<?xml version="1.0" encoding="UTF-8" standalone="no"?>
<!DOCTYPE svg PUBLIC "-//W3C//DTD SVG 1.1//EN"
 "http://www.w3.org/Graphics/SVG/1.1/DTD/svg11.dtd">
<!-- Generated by graphviz version 2.38.0 (20140413.2041)
 -->
<!-- Title: ConstraintSet.h Pages: 1 -->
<svg width="1775pt" height="576pt"
 viewBox="0.00 0.00 1775.00 576.00" xmlns="http://www.w3.org/2000/svg" xmlns:xlink="http://www.w3.org/1999/xlink">
<g id="graph0" class="graph" transform="scale(1 1) rotate(0) translate(4 572)">
<title>ConstraintSet.h</title>
<polygon fill="white" stroke="none" points="-4,4 -4,-572 1771,-572 1771,4 -4,4"/>
<!-- Node1 -->
<g id="node1" class="node"><title>Node1</title>
<polygon fill="#bfbfbf" stroke="black" points="686.5,-548.5 686.5,-567.5 771.5,-567.5 771.5,-548.5 686.5,-548.5"/>
<text text-anchor="middle" x="729" y="-555.5" font-family="Helvetica,sans-Serif" font-size="10.00">ConstraintSet.h</text>
</g>
<!-- Node2 -->
<g id="node2" class="node"><title>Node2</title>
<g id="a_node2"><a xlink:href="../../d3/dcf/Constraint_8h.html" target="_top" xlink:title="Declaration file of the Constraint class. ">
<polygon fill="white" stroke="black" points="669.5,-492.5 669.5,-511.5 788.5,-511.5 788.5,-492.5 669.5,-492.5"/>
<text text-anchor="middle" x="729" y="-499.5" font-family="Helvetica,sans-Serif" font-size="10.00">ocra/optim/Constraint.h</text>
</a>
</g>
</g>
<!-- Node1&#45;&gt;Node2 -->
<g id="edge1" class="edge"><title>Node1&#45;&gt;Node2</title>
<path fill="none" stroke="midnightblue" d="M729,-548.083C729,-541.006 729,-530.861 729,-521.986"/>
<polygon fill="midnightblue" stroke="midnightblue" points="732.5,-521.751 729,-511.751 725.5,-521.751 732.5,-521.751"/>
</g>
<!-- Node7 -->
<g id="node7" class="node"><title>Node7</title>
<polygon fill="white" stroke="#bfbfbf" points="1527,-6 1527,-25 1583,-25 1583,-6 1527,-6"/>
<text text-anchor="middle" x="1555" y="-13" font-family="Helvetica,sans-Serif" font-size="10.00">algorithm</text>
</g>
<!-- Node1&#45;&gt;Node7 -->
<g id="edge69" class="edge"><title>Node1&#45;&gt;Node7</title>
<path fill="none" stroke="midnightblue" d="M771.626,-557.035C966.951,-556.642 1767,-548.822 1767,-447 1767,-447 1767,-447 1767,-143 1767,-105.996 1760.98,-91.2125 1733,-67 1693.53,-32.8491 1632.46,-21.7057 1593.11,-18.1216"/>
<polygon fill="midnightblue" stroke="midnightblue" points="1593.35,-14.6302 1583.11,-17.3308 1592.8,-21.6084 1593.35,-14.6302"/>
</g>
<!-- Node20 -->
<g id="node20" class="node"><title>Node20</title>
<polygon fill="white" stroke="#bfbfbf" points="202,-73 202,-92 246,-92 246,-73 202,-73"/>
<text text-anchor="middle" x="224" y="-80" font-family="Helvetica,sans-Serif" font-size="10.00">vector</text>
</g>
<!-- Node1&#45;&gt;Node20 -->
<g id="edge68" class="edge"><title>Node1&#45;&gt;Node20</title>
<path fill="none" stroke="midnightblue" d="M686.387,-555.098C530.461,-547.582 0,-516.877 0,-447 0,-447 0,-447 0,-204.5 0,-118.427 129.614,-93.2875 191.653,-86.1843"/>
<polygon fill="midnightblue" stroke="midnightblue" points="192.125,-89.6539 201.703,-85.1242 191.391,-82.6925 192.125,-89.6539"/>
</g>
<!-- Node3 -->
<g id="node3" class="node"><title>Node3</title>
<g id="a_node3"><a xlink:href="../../d7/d90/Variable_8h.html" target="_top" xlink:title="Declaration file of the Variable class. ">
<polygon fill="white" stroke="black" points="746.5,-196 746.5,-215 855.5,-215 855.5,-196 746.5,-196"/>
<text text-anchor="middle" x="801" y="-203" font-family="Helvetica,sans-Serif" font-size="10.00">ocra/optim/Variable.h</text>
</a>
</g>
</g>
<!-- Node2&#45;&gt;Node3 -->
<g id="edge2" class="edge"><title>Node2&#45;&gt;Node3</title>
<path fill="none" stroke="midnightblue" d="M669.294,-500.421C613.205,-497.015 540.445,-483.622 559,-436 600.643,-329.118 722.755,-250.223 775.857,-220.005"/>
<polygon fill="midnightblue" stroke="midnightblue" points="777.623,-223.027 784.643,-215.093 774.207,-216.917 777.623,-223.027"/>
</g>
<!-- Node10 -->
<g id="node10" class="node"><title>Node10</title>
<polygon fill="white" stroke="#bfbfbf" points="1236,-0.5 1236,-30.5 1336,-30.5 1336,-0.5 1236,-0.5"/>
<text text-anchor="start" x="1244" y="-18.5" font-family="Helvetica,sans-Serif" font-size="10.00">boost/type_traits/is</text>
<text text-anchor="middle" x="1286" y="-7.5" font-family="Helvetica,sans-Serif" font-size="10.00">_base_of.hpp</text>
</g>
<!-- Node2&#45;&gt;Node10 -->
<g id="edge58" class="edge"><title>Node2&#45;&gt;Node10</title>
<path fill="none" stroke="midnightblue" d="M788.56,-500.417C1003.84,-497.532 1729,-480.747 1729,-385.5 1729,-385.5 1729,-385.5 1729,-143 1729,-108.183 1736.13,-90.0151 1710,-67 1683.23,-43.4187 1457,-26.7481 1346.4,-19.928"/>
<polygon fill="midnightblue" stroke="midnightblue" points="1346.58,-16.4328 1336.38,-19.3182 1346.15,-23.4199 1346.58,-16.4328"/>
</g>
<!-- Node11 -->
<g id="node11" class="node"><title>Node11</title>
<polygon fill="white" stroke="#bfbfbf" points="862.5,-6 862.5,-25 981.5,-25 981.5,-6 862.5,-6"/>
<text text-anchor="middle" x="922" y="-13" font-family="Helvetica,sans-Serif" font-size="10.00">boost/static_assert.hpp</text>
</g>
<!-- Node2&#45;&gt;Node11 -->
<g id="edge57" class="edge"><title>Node2&#45;&gt;Node11</title>
<path fill="none" stroke="midnightblue" d="M788.776,-493.691C834.304,-486.751 891.549,-474.585 906,-456 912.331,-447.858 976.311,-517.492 887,-134 883.068,-117.118 875.399,-114.997 872,-98 869.298,-84.4898 866.759,-79.7421 872,-67 877.909,-52.6338 890.1,-40.1834 900.964,-31.2394"/>
<polygon fill="midnightblue" stroke="midnightblue" points="903.12,-33.9969 908.888,-25.1097 898.837,-28.4603 903.12,-33.9969"/>
</g>
<!-- Node25 -->
<g id="node25" class="node"><title>Node25</title>
<g id="a_node25"><a xlink:href="../../df/df5/Function_8h.html" target="_top" xlink:title="Declaration file of the Function class. ">
<polygon fill="white" stroke="black" points="429.5,-257.5 429.5,-276.5 540.5,-276.5 540.5,-257.5 429.5,-257.5"/>
<text text-anchor="middle" x="485" y="-264.5" font-family="Helvetica,sans-Serif" font-size="10.00">ocra/optim/Function.h</text>
</a>
</g>
</g>
<!-- Node2&#45;&gt;Node25 -->
<g id="edge33" class="edge"><title>Node2&#45;&gt;Node25</title>
<path fill="none" stroke="midnightblue" d="M669.338,-496.761C617.954,-491.582 542.568,-480.285 481,-456 438.223,-439.127 416.023,-440.367 394,-400 369.28,-354.691 428.115,-305.764 462.432,-282.233"/>
<polygon fill="midnightblue" stroke="midnightblue" points="464.58,-285.007 470.967,-276.554 460.702,-279.18 464.58,-285.007"/>
</g>
<!-- Node35 -->
<g id="node35" class="node"><title>Node35</title>
<g id="a_node35"><a xlink:href="../../df/d55/FunctionInterfaceMapping_8h.html" target="_top" xlink:title="Declaration file of the FunctionInterfaceMapping struct. ">
<polygon fill="white" stroke="black" points="403.5,-369.5 403.5,-399.5 544.5,-399.5 544.5,-369.5 403.5,-369.5"/>
<text text-anchor="start" x="411.5" y="-387.5" font-family="Helvetica,sans-Serif" font-size="10.00">ocra/optim/FunctionInterface</text>
<text text-anchor="middle" x="474" y="-376.5" font-family="Helvetica,sans-Serif" font-size="10.00">Mapping.h</text>
</a>
</g>
</g>
<!-- Node2&#45;&gt;Node35 -->
<g id="edge53" class="edge"><title>Node2&#45;&gt;Node35</title>
<path fill="none" stroke="midnightblue" d="M669.35,-496.14C609.612,-490.114 523.05,-477.862 498,-456 484.703,-444.396 478.763,-425.123 476.114,-409.658"/>
<polygon fill="midnightblue" stroke="midnightblue" points="479.576,-409.137 474.757,-399.701 472.64,-410.083 479.576,-409.137"/>
</g>
<!-- Node36 -->
<g id="node36" class="node"><title>Node36</title>
<g id="a_node36"><a xlink:href="../../df/d0a/Macros_8h.html" target="_top" xlink:title="ocra/util/Macros.h">
<polygon fill="white" stroke="black" points="935.5,-257.5 935.5,-276.5 1030.5,-276.5 1030.5,-257.5 935.5,-257.5"/>
<text text-anchor="middle" x="983" y="-264.5" font-family="Helvetica,sans-Serif" font-size="10.00">ocra/util/Macros.h</text>
</a>
</g>
</g>
<!-- Node2&#45;&gt;Node36 -->
<g id="edge55" class="edge"><title>Node2&#45;&gt;Node36</title>
<path fill="none" stroke="midnightblue" d="M788.76,-497.108C849.025,-491.87 936.307,-480.249 959,-456 1003.01,-408.973 993.749,-323.943 986.951,-286.524"/>
<polygon fill="midnightblue" stroke="midnightblue" points="990.35,-285.669 984.982,-276.535 983.482,-287.023 990.35,-285.669"/>
</g>
<!-- Node38 -->
<g id="node38" class="node"><title>Node38</title>
<g id="a_node38"><a xlink:href="../../dc/d8a/LinearFunction_8h.html" target="_top" xlink:title="Declaration file of the LinearFunction class. ">
<polygon fill="white" stroke="black" points="681.5,-313.5 681.5,-332.5 818.5,-332.5 818.5,-313.5 681.5,-313.5"/>
<text text-anchor="middle" x="750" y="-320.5" font-family="Helvetica,sans-Serif" font-size="10.00">ocra/optim/LinearFunction.h</text>
</a>
</g>
</g>
<!-- Node2&#45;&gt;Node38 -->
<g id="edge59" class="edge"><title>Node2&#45;&gt;Node38</title>
<path fill="none" stroke="midnightblue" d="M784.083,-492.496C824.488,-485.001 874.412,-472.674 887,-456 924.392,-406.472 833.097,-358.54 781.872,-336.541"/>
<polygon fill="midnightblue" stroke="midnightblue" points="783.088,-333.256 772.513,-332.618 780.382,-339.712 783.088,-333.256"/>
</g>
<!-- Node39 -->
<g id="node39" class="node"><title>Node39</title>
<g id="a_node39"><a xlink:href="../../de/d69/BoundFunction_8h.html" target="_top" xlink:title="Declaration file of the BoundFunction class. ">
<polygon fill="white" stroke="black" points="739.5,-436.5 739.5,-455.5 878.5,-455.5 878.5,-436.5 739.5,-436.5"/>
<text text-anchor="middle" x="809" y="-443.5" font-family="Helvetica,sans-Serif" font-size="10.00">ocra/optim/BoundFunction.h</text>
</a>
</g>
</g>
<!-- Node2&#45;&gt;Node39 -->
<g id="edge62" class="edge"><title>Node2&#45;&gt;Node39</title>
<path fill="none" stroke="midnightblue" d="M741.853,-492.324C754.216,-483.979 773.13,-471.212 787.737,-461.352"/>
<polygon fill="midnightblue" stroke="midnightblue" points="789.848,-464.15 796.179,-455.655 785.932,-458.348 789.848,-464.15"/>
</g>
<!-- Node40 -->
<g id="node40" class="node"><title>Node40</title>
<g id="a_node40"><a xlink:href="../../dc/d6f/DiagonalLinearFunction_8h.html" target="_top" xlink:title="Declaration file of the DiagonalLinearFunction class. ">
<polygon fill="white" stroke="black" points="643,-369.5 643,-399.5 773,-399.5 773,-369.5 643,-369.5"/>
<text text-anchor="start" x="651" y="-387.5" font-family="Helvetica,sans-Serif" font-size="10.00">ocra/optim/DiagonalLinear</text>
<text text-anchor="middle" x="708" y="-376.5" font-family="Helvetica,sans-Serif" font-size="10.00">Function.h</text>
</a>
</g>
</g>
<!-- Node2&#45;&gt;Node40 -->
<g id="edge67" class="edge"><title>Node2&#45;&gt;Node40</title>
<path fill="none" stroke="midnightblue" d="M672.389,-492.438C631.628,-484.982 581.676,-472.733 569,-456 546.367,-426.123 588.926,-407.937 632.753,-397.538"/>
<polygon fill="midnightblue" stroke="midnightblue" points="633.699,-400.913 642.691,-395.31 632.167,-394.082 633.699,-400.913"/>
</g>
<!-- Node41 -->
<g id="node41" class="node"><title>Node41</title>
<g id="a_node41"><a xlink:href="../../de/d7a/IdentityFunction_8h.html" target="_top" xlink:title="Declaration file of the IdentityFunction class. ">
<polygon fill="white" stroke="black" points="578.5,-436.5 578.5,-455.5 721.5,-455.5 721.5,-436.5 578.5,-436.5"/>
<text text-anchor="middle" x="650" y="-443.5" font-family="Helvetica,sans-Serif" font-size="10.00">ocra/optim/IdentityFunction.h</text>
</a>
</g>
</g>
<!-- Node2&#45;&gt;Node41 -->
<g id="edge65" class="edge"><title>Node2&#45;&gt;Node41</title>
<path fill="none" stroke="midnightblue" d="M716.307,-492.324C704.099,-483.979 685.422,-471.212 670.997,-461.352"/>
<polygon fill="midnightblue" stroke="midnightblue" points="672.892,-458.408 662.661,-455.655 668.942,-464.187 672.892,-458.408"/>
</g>
<!-- Node4 -->
<g id="node4" class="node"><title>Node4</title>
<g id="a_node4"><a xlink:href="../../d8/ddc/ObserverSubject_8h.html" target="_top" xlink:title="Declaration file of the Observer, Subject and ObserverSubject classes. ">
<polygon fill="white" stroke="black" points="645,-134.5 645,-153.5 791,-153.5 791,-134.5 645,-134.5"/>
<text text-anchor="middle" x="718" y="-141.5" font-family="Helvetica,sans-Serif" font-size="10.00">ocra/optim/ObserverSubject.h</text>
</a>
</g>
</g>
<!-- Node3&#45;&gt;Node4 -->
<g id="edge3" class="edge"><title>Node3&#45;&gt;Node4</title>
<path fill="none" stroke="midnightblue" d="M789.108,-195.975C775.795,-186.431 754,-170.807 738.043,-159.368"/>
<polygon fill="midnightblue" stroke="midnightblue" points="740.036,-156.491 729.87,-153.509 735.958,-162.18 740.036,-156.491"/>
</g>
<!-- Node15 -->
<g id="node15" class="node"><title>Node15</title>
<g id="a_node15"><a xlink:href="../../d1/de6/Composite_8h.html" target="_top" xlink:title="Utility classes and functions to implement the Composite design pattern. ">
<polygon fill="white" stroke="black" points="1207.5,-134.5 1207.5,-153.5 1328.5,-153.5 1328.5,-134.5 1207.5,-134.5"/>
<text text-anchor="middle" x="1268" y="-141.5" font-family="Helvetica,sans-Serif" font-size="10.00">ocra/optim/Composite.h</text>
</a>
</g>
</g>
<!-- Node3&#45;&gt;Node15 -->
<g id="edge17" class="edge"><title>Node3&#45;&gt;Node15</title>
<path fill="none" stroke="midnightblue" d="M855.944,-197.5C940.855,-186.681 1103.9,-165.907 1197.43,-153.991"/>
<polygon fill="midnightblue" stroke="midnightblue" points="1197.89,-157.461 1207.37,-152.725 1197.01,-150.517 1197.89,-157.461"/>
</g>
<!-- Node18 -->
<g id="node18" class="node"><title>Node18</title>
<polygon fill="white" stroke="#bfbfbf" points="1583.5,-73 1583.5,-92 1700.5,-92 1700.5,-73 1583.5,-73"/>
<text text-anchor="middle" x="1642" y="-80" font-family="Helvetica,sans-Serif" font-size="10.00">boost/noncopyable.hpp</text>
</g>
<!-- Node3&#45;&gt;Node18 -->
<g id="edge30" class="edge"><title>Node3&#45;&gt;Node18</title>
<path fill="none" stroke="midnightblue" d="M855.791,-199.016C883.437,-196.269 917.494,-192.916 948,-190 1120.84,-173.478 1165.58,-181.614 1337,-154 1432.67,-138.589 1543.02,-110.448 1601.2,-94.7835"/>
<polygon fill="midnightblue" stroke="midnightblue" points="1602.36,-98.0946 1611.1,-92.1024 1600.53,-91.338 1602.36,-98.0946"/>
</g>
<!-- Node3&#45;&gt;Node20 -->
<g id="edge32" class="edge"><title>Node3&#45;&gt;Node20</title>
<path fill="none" stroke="midnightblue" d="M746.103,-198.677C633.959,-186.697 387.608,-159.917 370,-154 353.382,-148.416 351.591,-142.017 336,-134 300.965,-115.984 290.844,-114.346 255,-98 253.844,-97.473 252.666,-96.933 251.476,-96.3857"/>
<polygon fill="midnightblue" stroke="midnightblue" points="252.877,-93.1773 242.332,-92.146 249.932,-99.5278 252.877,-93.1773"/>
</g>
<!-- Node23 -->
<g id="node23" class="node"><title>Node23</title>
<polygon fill="white" stroke="#bfbfbf" points="809.5,-134.5 809.5,-153.5 878.5,-153.5 878.5,-134.5 809.5,-134.5"/>
<text text-anchor="middle" x="844" y="-141.5" font-family="Helvetica,sans-Serif" font-size="10.00">Eigen/Eigen</text>
</g>
<!-- Node3&#45;&gt;Node23 -->
<g id="edge29" class="edge"><title>Node3&#45;&gt;Node23</title>
<path fill="none" stroke="midnightblue" d="M807.161,-195.975C813.611,-187.05 823.904,-172.807 831.973,-161.643"/>
<polygon fill="midnightblue" stroke="midnightblue" points="834.83,-163.664 837.851,-153.509 829.156,-159.564 834.83,-163.664"/>
</g>
<!-- Node24 -->
<g id="node24" class="node"><title>Node24</title>
<polygon fill="white" stroke="#bfbfbf" points="243.5,-134.5 243.5,-153.5 284.5,-153.5 284.5,-134.5 243.5,-134.5"/>
<text text-anchor="middle" x="264" y="-141.5" font-family="Helvetica,sans-Serif" font-size="10.00">string</text>
</g>
<!-- Node3&#45;&gt;Node24 -->
<g id="edge31" class="edge"><title>Node3&#45;&gt;Node24</title>
<path fill="none" stroke="midnightblue" d="M746.328,-198.805C659.536,-189.706 484.902,-171.165 337,-154 323.226,-152.401 308.001,-150.54 295.036,-148.925"/>
<polygon fill="midnightblue" stroke="midnightblue" points="295.115,-145.408 284.758,-147.639 294.246,-152.354 295.115,-145.408"/>
</g>
<!-- Node5 -->
<g id="node5" class="node"><title>Node5</title>
<g id="a_node5"><a xlink:href="../../df/d67/ObserverSubjectBase_8h.html" target="_top" xlink:title="Declaration file of the Observer and Subject base classes. ">
<polygon fill="white" stroke="black" points="649,-67.5 649,-97.5 787,-97.5 787,-67.5 649,-67.5"/>
<text text-anchor="start" x="657" y="-85.5" font-family="Helvetica,sans-Serif" font-size="10.00">ocra/optim/ObserverSubject</text>
<text text-anchor="middle" x="718" y="-74.5" font-family="Helvetica,sans-Serif" font-size="10.00">Base.h</text>
</a>
</g>
</g>
<!-- Node4&#45;&gt;Node5 -->
<g id="edge4" class="edge"><title>Node4&#45;&gt;Node5</title>
<path fill="none" stroke="midnightblue" d="M718,-134.475C718,-127.471 718,-117.192 718,-107.696"/>
<polygon fill="midnightblue" stroke="midnightblue" points="721.5,-107.523 718,-97.523 714.5,-107.523 721.5,-107.523"/>
</g>
<!-- Node9 -->
<g id="node9" class="node"><title>Node9</title>
<polygon fill="white" stroke="#bfbfbf" points="452,-0.5 452,-30.5 552,-30.5 552,-0.5 452,-0.5"/>
<text text-anchor="start" x="460" y="-18.5" font-family="Helvetica,sans-Serif" font-size="10.00">boost/type_traits/is</text>
<text text-anchor="middle" x="502" y="-7.5" font-family="Helvetica,sans-Serif" font-size="10.00">_class.hpp</text>
</g>
<!-- Node4&#45;&gt;Node9 -->
<g id="edge16" class="edge"><title>Node4&#45;&gt;Node9</title>
<path fill="none" stroke="midnightblue" d="M701.438,-134.374C685.348,-125.78 660.422,-111.895 640,-98 621.693,-85.5444 619.622,-78.9793 601,-67 582.622,-55.1773 561.128,-43.9313 542.872,-35.0658"/>
<polygon fill="midnightblue" stroke="midnightblue" points="544.186,-31.8144 533.655,-30.6562 541.165,-38.1291 544.186,-31.8144"/>
</g>
<!-- Node4&#45;&gt;Node10 -->
<g id="edge14" class="edge"><title>Node4&#45;&gt;Node10</title>
<path fill="none" stroke="midnightblue" d="M791.083,-134.713C897.976,-122.521 1085.12,-100.875 1092,-98 1112.43,-89.4657 1111.5,-77.4847 1131,-67 1160.79,-50.9862 1196.54,-38.9193 1226.19,-30.6037"/>
<polygon fill="midnightblue" stroke="midnightblue" points="1227.27,-33.9368 1236,-27.9272 1225.43,-27.1838 1227.27,-33.9368"/>
</g>
<!-- Node4&#45;&gt;Node11 -->
<g id="edge13" class="edge"><title>Node4&#45;&gt;Node11</title>
<path fill="none" stroke="midnightblue" d="M733.818,-134.491C749.777,-125.764 774.994,-111.582 796,-98 815.785,-85.208 819.366,-80.0218 839,-67 858.688,-53.9423 881.678,-40.0562 898.463,-30.1568"/>
<polygon fill="midnightblue" stroke="midnightblue" points="900.234,-33.1758 907.09,-25.0979 896.693,-27.1376 900.234,-33.1758"/>
</g>
<!-- Node13 -->
<g id="node13" class="node"><title>Node13</title>
<g id="a_node13"><a xlink:href="../../db/ddf/ocra__events_8h.html" target="_top" xlink:title="ocra/optim/ocra_events.h">
<polygon fill="white" stroke="black" points="465.5,-73 465.5,-92 592.5,-92 592.5,-73 465.5,-73"/>
<text text-anchor="middle" x="529" y="-80" font-family="Helvetica,sans-Serif" font-size="10.00">ocra/optim/ocra_events.h</text>
</a>
</g>
</g>
<!-- Node4&#45;&gt;Node13 -->
<g id="edge12" class="edge"><title>Node4&#45;&gt;Node13</title>
<path fill="none" stroke="midnightblue" d="M690.921,-134.475C658.08,-124.136 602.57,-106.661 565.852,-95.1017"/>
<polygon fill="midnightblue" stroke="midnightblue" points="566.618,-91.6735 556.029,-92.0091 564.516,-98.3505 566.618,-91.6735"/>
</g>
<!-- Node14 -->
<g id="node14" class="node"><title>Node14</title>
<polygon fill="white" stroke="#bfbfbf" points="1140,-67.5 1140,-97.5 1240,-97.5 1240,-67.5 1140,-67.5"/>
<text text-anchor="start" x="1148" y="-85.5" font-family="Helvetica,sans-Serif" font-size="10.00">boost/type_traits/is</text>
<text text-anchor="middle" x="1190" y="-74.5" font-family="Helvetica,sans-Serif" font-size="10.00">_convertible.hpp</text>
</g>
<!-- Node4&#45;&gt;Node14 -->
<g id="edge15" class="edge"><title>Node4&#45;&gt;Node14</title>
<path fill="none" stroke="midnightblue" d="M791.433,-134.927C908.348,-122.07 1123.95,-98.3438 1126,-98 1127.26,-97.7878 1128.54,-97.5663 1129.83,-97.3366"/>
<polygon fill="midnightblue" stroke="midnightblue" points="1130.63,-100.747 1139.8,-95.4373 1129.32,-93.8702 1130.63,-100.747"/>
</g>
<!-- Node6 -->
<g id="node6" class="node"><title>Node6</title>
<polygon fill="white" stroke="#bfbfbf" points="688.5,-6 688.5,-25 747.5,-25 747.5,-6 688.5,-6"/>
<text text-anchor="middle" x="718" y="-13" font-family="Helvetica,sans-Serif" font-size="10.00">functional</text>
</g>
<!-- Node5&#45;&gt;Node6 -->
<g id="edge5" class="edge"><title>Node5&#45;&gt;Node6</title>
<path fill="none" stroke="midnightblue" d="M718,-67.396C718,-58.0638 718,-45.7143 718,-35.5173"/>
<polygon fill="midnightblue" stroke="midnightblue" points="721.5,-35.1945 718,-25.1945 714.5,-35.1946 721.5,-35.1945"/>
</g>
<!-- Node5&#45;&gt;Node7 -->
<g id="edge6" class="edge"><title>Node5&#45;&gt;Node7</title>
<path fill="none" stroke="midnightblue" d="M787.352,-74.6718C813.83,-72.1432 844.303,-69.3276 872,-67 998.927,-56.3332 1391.81,-28.148 1516.56,-19.2396"/>
<polygon fill="midnightblue" stroke="midnightblue" points="1517.05,-22.7139 1526.78,-18.5107 1516.55,-15.7316 1517.05,-22.7139"/>
</g>
<!-- Node8 -->
<g id="node8" class="node"><title>Node8</title>
<polygon fill="white" stroke="#bfbfbf" points="766,-6 766,-25 844,-25 844,-6 766,-6"/>
<text text-anchor="middle" x="805" y="-13" font-family="Helvetica,sans-Serif" font-size="10.00">boost/any.hpp</text>
</g>
<!-- Node5&#45;&gt;Node8 -->
<g id="edge7" class="edge"><title>Node5&#45;&gt;Node8</title>
<path fill="none" stroke="midnightblue" d="M736.878,-67.396C751.114,-56.7593 770.598,-42.2028 785.082,-31.3813"/>
<polygon fill="midnightblue" stroke="midnightblue" points="787.446,-33.9837 793.363,-25.1945 783.257,-28.376 787.446,-33.9837"/>
</g>
<!-- Node5&#45;&gt;Node9 -->
<g id="edge8" class="edge"><title>Node5&#45;&gt;Node9</title>
<path fill="none" stroke="midnightblue" d="M671.397,-67.476C638.296,-57.5149 593.671,-44.0862 558.533,-33.5123"/>
<polygon fill="midnightblue" stroke="midnightblue" points="559.476,-30.1411 548.892,-30.6109 557.459,-36.8441 559.476,-30.1411"/>
</g>
<!-- Node5&#45;&gt;Node10 -->
<g id="edge9" class="edge"><title>Node5&#45;&gt;Node10</title>
<path fill="none" stroke="midnightblue" d="M787.08,-73.5947C899.24,-60.7595 1119.1,-35.5993 1225.48,-23.4252"/>
<polygon fill="midnightblue" stroke="midnightblue" points="1226.19,-26.8675 1235.73,-22.2532 1225.39,-19.9129 1226.19,-26.8675"/>
</g>
<!-- Node5&#45;&gt;Node11 -->
<g id="edge10" class="edge"><title>Node5&#45;&gt;Node11</title>
<path fill="none" stroke="midnightblue" d="M762.014,-67.476C798.9,-55.7232 850.935,-39.1433 885.53,-28.1205"/>
<polygon fill="midnightblue" stroke="midnightblue" points="886.768,-31.3994 895.233,-25.0287 884.643,-24.7298 886.768,-31.3994"/>
</g>
<!-- Node12 -->
<g id="node12" class="node"><title>Node12</title>
<polygon fill="white" stroke="#bfbfbf" points="570,-0.5 570,-30.5 670,-30.5 670,-0.5 570,-0.5"/>
<text text-anchor="start" x="578" y="-18.5" font-family="Helvetica,sans-Serif" font-size="10.00">boost/ptr_container</text>
<text text-anchor="middle" x="620" y="-7.5" font-family="Helvetica,sans-Serif" font-size="10.00">/ptr_vector.hpp</text>
</g>
<!-- Node5&#45;&gt;Node12 -->
<g id="edge11" class="edge"><title>Node5&#45;&gt;Node12</title>
<path fill="none" stroke="midnightblue" d="M696.735,-67.396C682.994,-58.282 664.914,-46.2902 649.756,-36.236"/>
<polygon fill="midnightblue" stroke="midnightblue" points="651.491,-33.1872 641.223,-30.5765 647.622,-39.0207 651.491,-33.1872"/>
</g>
<!-- Node15&#45;&gt;Node7 -->
<g id="edge26" class="edge"><title>Node15&#45;&gt;Node7</title>
<path fill="none" stroke="midnightblue" d="M1328.56,-138.315C1392.29,-132.304 1487.26,-119.938 1516,-98 1536.32,-82.4855 1546.58,-53.6845 1551.35,-34.8078"/>
<polygon fill="midnightblue" stroke="midnightblue" points="1554.77,-35.5406 1553.55,-25.0157 1547.94,-34.001 1554.77,-35.5406"/>
</g>
<!-- Node15&#45;&gt;Node10 -->
<g id="edge22" class="edge"><title>Node15&#45;&gt;Node10</title>
<path fill="none" stroke="midnightblue" d="M1328.68,-139.573C1389.19,-134.738 1476.05,-123.463 1497,-98 1541.23,-44.2333 1423,-25.8495 1346.12,-19.6275"/>
<polygon fill="midnightblue" stroke="midnightblue" points="1346.27,-16.1288 1336.03,-18.8609 1345.74,-23.1087 1346.27,-16.1288"/>
</g>
<!-- Node15&#45;&gt;Node11 -->
<g id="edge21" class="edge"><title>Node15&#45;&gt;Node11</title>
<path fill="none" stroke="midnightblue" d="M1268.67,-134.397C1269.4,-118.476 1268.42,-84.4522 1249,-67 1205.77,-28.164 1047.23,-41.0657 990,-31 983.37,-29.834 976.402,-28.4879 969.558,-27.0955"/>
<polygon fill="midnightblue" stroke="midnightblue" points="970.176,-23.6492 959.672,-25.038 968.749,-30.5023 970.176,-23.6492"/>
</g>
<!-- Node15&#45;&gt;Node14 -->
<g id="edge23" class="edge"><title>Node15&#45;&gt;Node14</title>
<path fill="none" stroke="midnightblue" d="M1256.82,-134.475C1246.36,-126.492 1230.32,-114.254 1216.57,-103.77"/>
<polygon fill="midnightblue" stroke="midnightblue" points="1218.46,-100.805 1208.38,-97.523 1214.21,-106.371 1218.46,-100.805"/>
</g>
<!-- Node16 -->
<g id="node16" class="node"><title>Node16</title>
<g id="a_node16"><a xlink:href="../../de/df3/ocra__assert_8h.html" target="_top" xlink:title="ocra/optim/ocra_assert.h">
<polygon fill="white" stroke="black" points="958.5,-73 958.5,-92 1083.5,-92 1083.5,-73 958.5,-73"/>
<text text-anchor="middle" x="1021" y="-80" font-family="Helvetica,sans-Serif" font-size="10.00">ocra/optim/ocra_assert.h</text>
</a>
</g>
</g>
<!-- Node15&#45;&gt;Node16 -->
<g id="edge18" class="edge"><title>Node15&#45;&gt;Node16</title>
<path fill="none" stroke="midnightblue" d="M1232.61,-134.475C1188.77,-123.915 1114.03,-105.911 1066.12,-94.3689"/>
<polygon fill="midnightblue" stroke="midnightblue" points="1066.87,-90.9484 1056.32,-92.0091 1065.23,-97.7537 1066.87,-90.9484"/>
</g>
<!-- Node15&#45;&gt;Node18 -->
<g id="edge20" class="edge"><title>Node15&#45;&gt;Node18</title>
<path fill="none" stroke="midnightblue" d="M1328.67,-134.795C1389.56,-126.358 1485.97,-112.444 1569,-98 1576.09,-96.7668 1583.55,-95.3839 1590.88,-93.9749"/>
<polygon fill="midnightblue" stroke="midnightblue" points="1591.61,-97.3987 1600.76,-92.049 1590.27,-90.5282 1591.61,-97.3987"/>
</g>
<!-- Node19 -->
<g id="node19" class="node"><title>Node19</title>
<polygon fill="white" stroke="#bfbfbf" points="1296.5,-67.5 1296.5,-97.5 1425.5,-97.5 1425.5,-67.5 1296.5,-67.5"/>
<text text-anchor="start" x="1304.5" y="-85.5" font-family="Helvetica,sans-Serif" font-size="10.00">boost/type_traits/has</text>
<text text-anchor="middle" x="1361" y="-74.5" font-family="Helvetica,sans-Serif" font-size="10.00">_nothrow_constructor.hpp</text>
</g>
<!-- Node15&#45;&gt;Node19 -->
<g id="edge24" class="edge"><title>Node15&#45;&gt;Node19</title>
<path fill="none" stroke="midnightblue" d="M1281.32,-134.475C1294.04,-126.341 1313.65,-113.791 1330.24,-103.179"/>
<polygon fill="midnightblue" stroke="midnightblue" points="1332.54,-105.861 1339.08,-97.523 1328.77,-99.964 1332.54,-105.861"/>
</g>
<!-- Node15&#45;&gt;Node20 -->
<g id="edge25" class="edge"><title>Node15&#45;&gt;Node20</title>
<path fill="none" stroke="midnightblue" d="M1207.23,-141.685C1002.74,-137.068 347.156,-120.645 255,-98 253.009,-97.5109 250.992,-96.8902 248.992,-96.1824"/>
<polygon fill="midnightblue" stroke="midnightblue" points="249.906,-92.77 239.331,-92.122 247.194,-99.2232 249.906,-92.77"/>
</g>
<!-- Node21 -->
<g id="node21" class="node"><title>Node21</title>
<polygon fill="white" stroke="#bfbfbf" points="1443.5,-73 1443.5,-92 1488.5,-92 1488.5,-73 1443.5,-73"/>
<text text-anchor="middle" x="1466" y="-80" font-family="Helvetica,sans-Serif" font-size="10.00">iosfwd</text>
</g>
<!-- Node15&#45;&gt;Node21 -->
<g id="edge27" class="edge"><title>Node15&#45;&gt;Node21</title>
<path fill="none" stroke="midnightblue" d="M1306.45,-134.435C1340.44,-126.424 1391.15,-113.404 1434,-98 1435.62,-97.4184 1437.27,-96.7891 1438.92,-96.1297"/>
<polygon fill="midnightblue" stroke="midnightblue" points="1440.44,-99.2863 1448.27,-92.1452 1437.7,-92.8469 1440.44,-99.2863"/>
</g>
<!-- Node22 -->
<g id="node22" class="node"><title>Node22</title>
<polygon fill="white" stroke="#bfbfbf" points="881.5,-73 881.5,-92 940.5,-92 940.5,-73 881.5,-73"/>
<text text-anchor="middle" x="911" y="-80" font-family="Helvetica,sans-Serif" font-size="10.00">stdexcept</text>
</g>
<!-- Node15&#45;&gt;Node22 -->
<g id="edge28" class="edge"><title>Node15&#45;&gt;Node22</title>
<path fill="none" stroke="midnightblue" d="M1207.24,-138.51C1142.47,-132.781 1037.28,-120.761 949,-98 946.179,-97.2728 943.281,-96.4035 940.404,-95.4567"/>
<polygon fill="midnightblue" stroke="midnightblue" points="941.437,-92.1091 930.842,-92.0334 939.077,-98.6994 941.437,-92.1091"/>
</g>
<!-- Node17 -->
<g id="node17" class="node"><title>Node17</title>
<polygon fill="white" stroke="#bfbfbf" points="999.5,-6 999.5,-25 1042.5,-25 1042.5,-6 999.5,-6"/>
<text text-anchor="middle" x="1021" y="-13" font-family="Helvetica,sans-Serif" font-size="10.00">cstdio</text>
</g>
<!-- Node16&#45;&gt;Node17 -->
<g id="edge19" class="edge"><title>Node16&#45;&gt;Node17</title>
<path fill="none" stroke="midnightblue" d="M1021,-72.7338C1021,-63.1826 1021,-47.6183 1021,-35.2829"/>
<polygon fill="midnightblue" stroke="midnightblue" points="1024.5,-35.1273 1021,-25.1273 1017.5,-35.1273 1024.5,-35.1273"/>
</g>
<!-- Node25&#45;&gt;Node3 -->
<g id="edge49" class="edge"><title>Node25&#45;&gt;Node3</title>
<path fill="none" stroke="midnightblue" d="M534.281,-257.424C584.188,-248.645 663.563,-234.422 732,-221 738.227,-219.779 744.762,-218.457 751.225,-217.126"/>
<polygon fill="midnightblue" stroke="midnightblue" points="752.187,-220.501 761.266,-215.041 750.763,-213.648 752.187,-220.501"/>
</g>
<!-- Node25&#45;&gt;Node4 -->
<g id="edge50" class="edge"><title>Node25&#45;&gt;Node4</title>
<path fill="none" stroke="midnightblue" d="M540.944,-258.356C590.346,-250.666 657.733,-237.584 679,-221 697.419,-206.637 707.936,-181.18 713.303,-163.717"/>
<polygon fill="midnightblue" stroke="midnightblue" points="716.811,-164.164 716.116,-153.592 710.066,-162.29 716.811,-164.164"/>
</g>
<!-- Node26 -->
<g id="node26" class="node"><title>Node26</title>
<g id="a_node26"><a xlink:href="../../de/d94/IFunction_8h.html" target="_top" xlink:title="Declaration file of the IFunction interface. ">
<polygon fill="white" stroke="black" points="379,-134.5 379,-153.5 493,-153.5 493,-134.5 379,-134.5"/>
<text text-anchor="middle" x="436" y="-141.5" font-family="Helvetica,sans-Serif" font-size="10.00">ocra/optim/IFunction.h</text>
</a>
</g>
</g>
<!-- Node25&#45;&gt;Node26 -->
<g id="edge34" class="edge"><title>Node25&#45;&gt;Node26</title>
<path fill="none" stroke="midnightblue" d="M540.811,-259.195C586.618,-252.327 646.251,-239.994 661,-221 669.45,-210.118 669.735,-200.655 661,-190 641.304,-165.974 562.083,-154.52 503.184,-149.238"/>
<polygon fill="midnightblue" stroke="midnightblue" points="503.443,-145.747 493.181,-148.381 502.846,-152.722 503.443,-145.747"/>
</g>
<!-- Node31 -->
<g id="node31" class="node"><title>Node31</title>
<g id="a_node31"><a xlink:href="../../d9/d54/IFunctionProperties_8h.html" target="_top" xlink:title="ocra/optim/IFunctionProperties.h">
<polygon fill="white" stroke="black" points="28,-196 28,-215 186,-215 186,-196 28,-196"/>
<text text-anchor="middle" x="107" y="-203" font-family="Helvetica,sans-Serif" font-size="10.00">ocra/optim/IFunctionProperties.h</text>
</a>
</g>
</g>
<!-- Node25&#45;&gt;Node31 -->
<g id="edge42" class="edge"><title>Node25&#45;&gt;Node31</title>
<path fill="none" stroke="midnightblue" d="M429.381,-257.528C370.984,-248.595 276.502,-234.038 195,-221 186.335,-219.614 177.194,-218.131 168.212,-216.662"/>
<polygon fill="midnightblue" stroke="midnightblue" points="168.608,-213.18 158.173,-215.015 167.475,-220.088 168.608,-213.18"/>
</g>
<!-- Node32 -->
<g id="node32" class="node"><title>Node32</title>
<g id="a_node32"><a xlink:href="../../db/d47/AbilitySet_8h.html" target="_top" xlink:title="ocra/optim/AbilitySet.h">
<polygon fill="white" stroke="black" points="366,-196 366,-215 482,-215 482,-196 366,-196"/>
<text text-anchor="middle" x="424" y="-203" font-family="Helvetica,sans-Serif" font-size="10.00">ocra/optim/AbilitySet.h</text>
</a>
</g>
</g>
<!-- Node25&#45;&gt;Node32 -->
<g id="edge45" class="edge"><title>Node25&#45;&gt;Node32</title>
<path fill="none" stroke="midnightblue" d="M476.26,-257.475C466.838,-248.285 451.636,-233.456 440.051,-222.156"/>
<polygon fill="midnightblue" stroke="midnightblue" points="442.326,-219.486 432.724,-215.009 437.438,-224.497 442.326,-219.486"/>
</g>
<!-- Node33 -->
<g id="node33" class="node"><title>Node33</title>
<g id="a_node33"><a xlink:href="../../d1/d87/CoupledInputOutputSize_8h.html" target="_top" xlink:title="ocra/optim/CoupledInputOutput\lSize.h">
<polygon fill="white" stroke="black" points="500,-190.5 500,-220.5 652,-220.5 652,-190.5 500,-190.5"/>
<text text-anchor="start" x="508" y="-208.5" font-family="Helvetica,sans-Serif" font-size="10.00">ocra/optim/CoupledInputOutput</text>
<text text-anchor="middle" x="576" y="-197.5" font-family="Helvetica,sans-Serif" font-size="10.00">Size.h</text>
</a>
</g>
</g>
<!-- Node25&#45;&gt;Node33 -->
<g id="edge48" class="edge"><title>Node25&#45;&gt;Node33</title>
<path fill="none" stroke="midnightblue" d="M498.038,-257.475C510.478,-249.341 529.673,-236.791 545.903,-226.179"/>
<polygon fill="midnightblue" stroke="midnightblue" points="548.099,-228.925 554.553,-220.523 544.268,-223.066 548.099,-228.925"/>
</g>
<!-- Node34 -->
<g id="node34" class="node"><title>Node34</title>
<g id="a_node34"><a xlink:href="../../df/d97/NamedInstance_8h.html" target="_top" xlink:title="ocra/optim/NamedInstance.h">
<polygon fill="white" stroke="black" points="204.5,-196 204.5,-215 347.5,-215 347.5,-196 204.5,-196"/>
<text text-anchor="middle" x="276" y="-203" font-family="Helvetica,sans-Serif" font-size="10.00">ocra/optim/NamedInstance.h</text>
</a>
</g>
</g>
<!-- Node25&#45;&gt;Node34 -->
<g id="edge51" class="edge"><title>Node25&#45;&gt;Node34</title>
<path fill="none" stroke="midnightblue" d="M455.055,-257.475C418.428,-247.048 356.305,-229.362 315.716,-217.807"/>
<polygon fill="midnightblue" stroke="midnightblue" points="316.465,-214.381 305.889,-215.009 314.549,-221.113 316.465,-214.381"/>
</g>
<!-- Node26&#45;&gt;Node16 -->
<g id="edge38" class="edge"><title>Node26&#45;&gt;Node16</title>
<path fill="none" stroke="midnightblue" d="M493.173,-140.066C588.179,-134.726 784.408,-121.717 949,-98 956.72,-96.8875 964.862,-95.4788 972.783,-93.9789"/>
<polygon fill="midnightblue" stroke="midnightblue" points="973.51,-97.4032 982.65,-92.0457 972.164,-90.5338 973.51,-97.4032"/>
</g>
<!-- Node26&#45;&gt;Node20 -->
<g id="edge40" class="edge"><title>Node26&#45;&gt;Node20</title>
<path fill="none" stroke="midnightblue" d="M391.405,-134.434C354.33,-126.717 300.475,-114.117 255,-98 253.383,-97.4269 251.736,-96.7986 250.087,-96.1349"/>
<polygon fill="midnightblue" stroke="midnightblue" points="251.372,-92.8767 240.807,-92.0832 248.571,-99.292 251.372,-92.8767"/>
</g>
<!-- Node26&#45;&gt;Node22 -->
<g id="edge41" class="edge"><title>Node26&#45;&gt;Node22</title>
<path fill="none" stroke="midnightblue" d="M493.053,-135.888C564.043,-127.033 688.976,-111.436 796,-98 820.993,-94.8622 849.04,-91.3262 871.179,-88.5316"/>
<polygon fill="midnightblue" stroke="midnightblue" points="871.734,-91.9894 881.217,-87.2642 870.857,-85.0445 871.734,-91.9894"/>
</g>
<!-- Node27 -->
<g id="node27" class="node"><title>Node27</title>
<g id="a_node27"><a xlink:href="../../d5/d55/MathTypes_8h.html" target="_top" xlink:title="Declaration file of the OptimizationVariable class. ">
<polygon fill="white" stroke="black" points="336.5,-73 336.5,-92 447.5,-92 447.5,-73 336.5,-73"/>
<text text-anchor="middle" x="392" y="-80" font-family="Helvetica,sans-Serif" font-size="10.00">ocra/util/MathTypes.h</text>
</a>
</g>
</g>
<!-- Node26&#45;&gt;Node27 -->
<g id="edge35" class="edge"><title>Node26&#45;&gt;Node27</title>
<path fill="none" stroke="midnightblue" d="M429.696,-134.475C423.096,-125.55 412.563,-111.307 404.307,-100.143"/>
<polygon fill="midnightblue" stroke="midnightblue" points="407.052,-97.9684 398.292,-92.0091 401.424,-102.131 407.052,-97.9684"/>
</g>
<!-- Node30 -->
<g id="node30" class="node"><title>Node30</title>
<polygon fill="white" stroke="#bfbfbf" points="264,-73 264,-92 318,-92 318,-73 264,-73"/>
<text text-anchor="middle" x="291" y="-80" font-family="Helvetica,sans-Serif" font-size="10.00">iostream</text>
</g>
<!-- Node26&#45;&gt;Node30 -->
<g id="edge39" class="edge"><title>Node26&#45;&gt;Node30</title>
<path fill="none" stroke="midnightblue" d="M415.225,-134.475C390.568,-124.357 349.255,-107.405 321.098,-95.8507"/>
<polygon fill="midnightblue" stroke="midnightblue" points="322.317,-92.5674 311.736,-92.0091 319.659,-99.0434 322.317,-92.5674"/>
</g>
<!-- Node28 -->
<g id="node28" class="node"><title>Node28</title>
<polygon fill="white" stroke="#bfbfbf" points="288.5,-6 288.5,-25 361.5,-25 361.5,-6 288.5,-6"/>
<text text-anchor="middle" x="325" y="-13" font-family="Helvetica,sans-Serif" font-size="10.00">Eigen/Dense</text>
</g>
<!-- Node27&#45;&gt;Node28 -->
<g id="edge36" class="edge"><title>Node27&#45;&gt;Node28</title>
<path fill="none" stroke="midnightblue" d="M382.964,-72.7338C372.315,-62.403 354.415,-45.0371 341.319,-32.3315"/>
<polygon fill="midnightblue" stroke="midnightblue" points="343.507,-29.5784 333.893,-25.1273 338.633,-34.6026 343.507,-29.5784"/>
</g>
<!-- Node29 -->
<g id="node29" class="node"><title>Node29</title>
<polygon fill="white" stroke="#bfbfbf" points="380,-6 380,-25 424,-25 424,-6 380,-6"/>
<text text-anchor="middle" x="402" y="-13" font-family="Helvetica,sans-Serif" font-size="10.00">cmath</text>
</g>
<!-- Node27&#45;&gt;Node29 -->
<g id="edge37" class="edge"><title>Node27&#45;&gt;Node29</title>
<path fill="none" stroke="midnightblue" d="M393.349,-72.7338C394.818,-63.1826 397.213,-47.6183 399.11,-35.2829"/>
<polygon fill="midnightblue" stroke="midnightblue" points="402.611,-35.5432 400.673,-25.1273 395.693,-34.4788 402.611,-35.5432"/>
</g>
<!-- Node31&#45;&gt;Node20 -->
<g id="edge44" class="edge"><title>Node31&#45;&gt;Node20</title>
<path fill="none" stroke="midnightblue" d="M115.414,-195.798C134.894,-175.653 183.334,-125.556 208.408,-99.6247"/>
<polygon fill="midnightblue" stroke="midnightblue" points="211.227,-101.745 215.662,-92.1232 206.194,-96.8791 211.227,-101.745"/>
</g>
<!-- Node31&#45;&gt;Node24 -->
<g id="edge43" class="edge"><title>Node31&#45;&gt;Node24</title>
<path fill="none" stroke="midnightblue" d="M129.494,-195.975C156.766,-185.64 202.855,-168.173 233.356,-156.613"/>
<polygon fill="midnightblue" stroke="midnightblue" points="234.942,-159.755 243.053,-152.939 232.461,-153.21 234.942,-159.755"/>
</g>
<!-- Node32&#45;&gt;Node20 -->
<g id="edge47" class="edge"><title>Node32&#45;&gt;Node20</title>
<path fill="none" stroke="midnightblue" d="M408.826,-195.887C391.397,-185.949 361.987,-169.042 337,-154 305.137,-134.819 268.706,-111.911 246.025,-97.5311"/>
<polygon fill="midnightblue" stroke="midnightblue" points="247.799,-94.5115 237.481,-92.1049 244.046,-100.421 247.799,-94.5115"/>
</g>
<!-- Node32&#45;&gt;Node26 -->
<g id="edge46" class="edge"><title>Node32&#45;&gt;Node26</title>
<path fill="none" stroke="midnightblue" d="M425.719,-195.975C427.43,-187.492 430.11,-174.204 432.305,-163.322"/>
<polygon fill="midnightblue" stroke="midnightblue" points="435.738,-164.004 434.284,-153.509 428.876,-162.62 435.738,-164.004"/>
</g>
<!-- Node34&#45;&gt;Node24 -->
<g id="edge52" class="edge"><title>Node34&#45;&gt;Node24</title>
<path fill="none" stroke="midnightblue" d="M274.281,-195.975C272.57,-187.492 269.89,-174.204 267.695,-163.322"/>
<polygon fill="midnightblue" stroke="midnightblue" points="271.124,-162.62 265.716,-153.509 264.262,-164.004 271.124,-162.62"/>
</g>
<!-- Node35&#45;&gt;Node25 -->
<g id="edge54" class="edge"><title>Node35&#45;&gt;Node25</title>
<path fill="none" stroke="midnightblue" d="M475.349,-369.337C477.322,-348.622 480.998,-310.016 483.2,-286.899"/>
<polygon fill="midnightblue" stroke="midnightblue" points="486.71,-286.956 484.174,-276.669 479.742,-286.293 486.71,-286.956"/>
</g>
<!-- Node37 -->
<g id="node37" class="node"><title>Node37</title>
<polygon fill="white" stroke="#bfbfbf" points="957,-196 957,-215 1009,-215 1009,-196 957,-196"/>
<text text-anchor="middle" x="983" y="-203" font-family="Helvetica,sans-Serif" font-size="10.00">memory</text>
</g>
<!-- Node36&#45;&gt;Node37 -->
<g id="edge56" class="edge"><title>Node36&#45;&gt;Node37</title>
<path fill="none" stroke="midnightblue" d="M983,-257.475C983,-249.08 983,-235.981 983,-225.163"/>
<polygon fill="midnightblue" stroke="midnightblue" points="986.5,-225.009 983,-215.009 979.5,-225.009 986.5,-225.009"/>
</g>
<!-- Node38&#45;&gt;Node25 -->
<g id="edge60" class="edge"><title>Node38&#45;&gt;Node25</title>
<path fill="none" stroke="midnightblue" d="M708.01,-313.444C661.588,-303.984 586.772,-288.738 536.76,-278.547"/>
<polygon fill="midnightblue" stroke="midnightblue" points="537.291,-275.084 526.794,-276.516 535.893,-281.943 537.291,-275.084"/>
</g>
<!-- Node38&#45;&gt;Node36 -->
<g id="edge61" class="edge"><title>Node38&#45;&gt;Node36</title>
<path fill="none" stroke="midnightblue" d="M786.92,-313.444C827.395,-304.063 892.421,-288.993 936.384,-278.804"/>
<polygon fill="midnightblue" stroke="midnightblue" points="937.302,-282.184 946.253,-276.516 935.721,-275.365 937.302,-282.184"/>
</g>
<!-- Node39&#45;&gt;Node40 -->
<g id="edge63" class="edge"><title>Node39&#45;&gt;Node40</title>
<path fill="none" stroke="midnightblue" d="M794.529,-436.475C780.594,-428.266 759.023,-415.558 740.905,-404.885"/>
<polygon fill="midnightblue" stroke="midnightblue" points="742.196,-401.583 731.804,-399.523 738.643,-407.614 742.196,-401.583"/>
</g>
<!-- Node40&#45;&gt;Node38 -->
<g id="edge64" class="edge"><title>Node40&#45;&gt;Node38</title>
<path fill="none" stroke="midnightblue" d="M717.953,-369.399C723.994,-360.842 731.738,-349.871 738.101,-340.857"/>
<polygon fill="midnightblue" stroke="midnightblue" points="740.981,-342.846 743.889,-332.658 735.262,-338.809 740.981,-342.846"/>
</g>
<!-- Node41&#45;&gt;Node40 -->
<g id="edge66" class="edge"><title>Node41&#45;&gt;Node40</title>
<path fill="none" stroke="midnightblue" d="M658.31,-436.475C665.798,-428.793 677.127,-417.172 687.077,-406.964"/>
<polygon fill="midnightblue" stroke="midnightblue" points="689.857,-409.127 694.331,-399.523 684.844,-404.241 689.857,-409.127"/>
</g>
</g>
</svg>
