<?xml version="1.0" encoding="UTF-8" standalone="no"?>
<!DOCTYPE svg PUBLIC "-//W3C//DTD SVG 1.1//EN"
 "http://www.w3.org/Graphics/SVG/1.1/DTD/svg11.dtd">
<!-- Generated by graphviz version 2.38.0 (20140413.2041)
 -->
<!-- Title: gOcraTaskManagerBase.h Pages: 1 -->
<svg width="1703pt" height="218pt"
 viewBox="0.00 0.00 1702.50 218.00" xmlns="http://www.w3.org/2000/svg" xmlns:xlink="http://www.w3.org/1999/xlink">
<g id="graph0" class="graph" transform="scale(1 1) rotate(0) translate(4 214)">
<title>gOcraTaskManagerBase.h</title>
<polygon fill="white" stroke="none" points="-4,4 -4,-214 1698.5,-214 1698.5,4 -4,4"/>
<!-- Node1 -->
<g id="node1" class="node"><title>Node1</title>
<polygon fill="#bfbfbf" stroke="black" points="773.5,-190.5 773.5,-209.5 906.5,-209.5 906.5,-190.5 773.5,-190.5"/>
<text text-anchor="middle" x="840" y="-197.5" font-family="Helvetica,sans-Serif" font-size="10.00">gOcraTaskManagerBase.h</text>
</g>
<!-- Node2 -->
<g id="node2" class="node"><title>Node2</title>
<g id="a_node2"><a xlink:href="../../d4/d79/gOcraTaskManagerCollectionBase_8h.html" target="_top" xlink:title="gOcraTaskManagerCollection\lBase.h">
<polygon fill="white" stroke="black" points="710,-67.5 710,-97.5 856,-97.5 856,-67.5 710,-67.5"/>
<text text-anchor="start" x="718" y="-85.5" font-family="Helvetica,sans-Serif" font-size="10.00">gOcraTaskManagerCollection</text>
<text text-anchor="middle" x="783" y="-74.5" font-family="Helvetica,sans-Serif" font-size="10.00">Base.h</text>
</a>
</g>
</g>
<!-- Node1&#45;&gt;Node2 -->
<g id="edge1" class="edge"><title>Node1&#45;&gt;Node2</title>
<path fill="none" stroke="midnightblue" d="M823.464,-182.981C815.963,-174.91 807.548,-164.599 802,-154 792.476,-135.806 787.397,-112.407 784.952,-97.6765"/>
<polygon fill="midnightblue" stroke="midnightblue" points="821.039,-185.508 830.521,-190.234 826.056,-180.626 821.039,-185.508"/>
</g>
<!-- Node4 -->
<g id="node4" class="node"><title>Node4</title>
<g id="a_node4"><a xlink:href="../../de/dda/gOcraCoMTaskManager_8h.html" target="_top" xlink:title="gOcraCoMTaskManager.h">
<polygon fill="white" stroke="black" points="103.5,-134.5 103.5,-153.5 234.5,-153.5 234.5,-134.5 103.5,-134.5"/>
<text text-anchor="middle" x="169" y="-141.5" font-family="Helvetica,sans-Serif" font-size="10.00">gOcraCoMTaskManager.h</text>
</a>
</g>
</g>
<!-- Node1&#45;&gt;Node4 -->
<g id="edge3" class="edge"><title>Node1&#45;&gt;Node4</title>
<path fill="none" stroke="midnightblue" d="M763.338,-194.296C649.779,-187.082 430.213,-172.194 244,-154 240.998,-153.707 237.93,-153.393 234.832,-153.066"/>
<polygon fill="midnightblue" stroke="midnightblue" points="763.126,-197.789 773.327,-194.928 763.568,-190.803 763.126,-197.789"/>
</g>
<!-- Node6 -->
<g id="node6" class="node"><title>Node6</title>
<g id="a_node6"><a xlink:href="../../d0/d8c/gOcraContactSetTaskManager_8h.html" target="_top" xlink:title="gOcraContactSetTaskManager.h">
<polygon fill="white" stroke="black" points="253,-134.5 253,-153.5 413,-153.5 413,-134.5 253,-134.5"/>
<text text-anchor="middle" x="333" y="-141.5" font-family="Helvetica,sans-Serif" font-size="10.00">gOcraContactSetTaskManager.h</text>
</a>
</g>
</g>
<!-- Node1&#45;&gt;Node6 -->
<g id="edge6" class="edge"><title>Node1&#45;&gt;Node6</title>
<path fill="none" stroke="midnightblue" d="M763.396,-190.841C668.902,-180.777 509.022,-163.748 412.996,-153.52"/>
<polygon fill="midnightblue" stroke="midnightblue" points="763.144,-194.334 773.458,-191.913 763.885,-187.373 763.144,-194.334"/>
</g>
<!-- Node8 -->
<g id="node8" class="node"><title>Node8</title>
<g id="a_node8"><a xlink:href="../../dc/db6/gOcraContactTaskManager_8h.html" target="_top" xlink:title="gOcraContactTaskManager.h">
<polygon fill="white" stroke="black" points="431.5,-134.5 431.5,-153.5 576.5,-153.5 576.5,-134.5 431.5,-134.5"/>
<text text-anchor="middle" x="504" y="-141.5" font-family="Helvetica,sans-Serif" font-size="10.00">gOcraContactTaskManager.h</text>
</a>
</g>
</g>
<!-- Node1&#45;&gt;Node8 -->
<g id="edge9" class="edge"><title>Node1&#45;&gt;Node8</title>
<path fill="none" stroke="midnightblue" d="M776.868,-188.854C713.384,-178.651 616.608,-163.098 556.991,-153.516"/>
<polygon fill="midnightblue" stroke="midnightblue" points="776.331,-192.312 786.76,-190.444 777.442,-185.401 776.331,-192.312"/>
</g>
<!-- Node10 -->
<g id="node10" class="node"><title>Node10</title>
<g id="a_node10"><a xlink:href="../../d0/dd7/gOcraFullPostureTaskManager_8h.html" target="_top" xlink:title="gOcraFullPostureTaskManager.h">
<polygon fill="white" stroke="black" points="595,-134.5 595,-153.5 755,-153.5 755,-134.5 595,-134.5"/>
<text text-anchor="middle" x="675" y="-141.5" font-family="Helvetica,sans-Serif" font-size="10.00">gOcraFullPostureTaskManager.h</text>
</a>
</g>
</g>
<!-- Node1&#45;&gt;Node10 -->
<g id="edge12" class="edge"><title>Node1&#45;&gt;Node10</title>
<path fill="none" stroke="midnightblue" d="M804.264,-187.304C773.173,-177.129 728.853,-162.625 701.022,-153.516"/>
<polygon fill="midnightblue" stroke="midnightblue" points="803.263,-190.659 813.855,-190.444 805.44,-184.007 803.263,-190.659"/>
</g>
<!-- Node12 -->
<g id="node12" class="node"><title>Node12</title>
<g id="a_node12"><a xlink:href="../../dd/dc3/gOcraPartialPostureTaskManager_8h.html" target="_top" xlink:title="gOcraPartialPostureTaskManager.h">
<polygon fill="white" stroke="black" points="811,-134.5 811,-153.5 983,-153.5 983,-134.5 811,-134.5"/>
<text text-anchor="middle" x="897" y="-141.5" font-family="Helvetica,sans-Serif" font-size="10.00">gOcraPartialPostureTaskManager.h</text>
</a>
</g>
</g>
<!-- Node1&#45;&gt;Node12 -->
<g id="edge15" class="edge"><title>Node1&#45;&gt;Node12</title>
<path fill="none" stroke="midnightblue" d="M856.621,-183.253C866.734,-173.673 879.277,-161.791 887.675,-153.834"/>
<polygon fill="midnightblue" stroke="midnightblue" points="854.01,-180.906 849.158,-190.324 858.825,-185.987 854.01,-180.906"/>
</g>
<!-- Node14 -->
<g id="node14" class="node"><title>Node14</title>
<g id="a_node14"><a xlink:href="../../d8/de2/gOcraSegCartesianTaskManager_8h.html" target="_top" xlink:title="gOcraSegCartesianTaskManager.h">
<polygon fill="white" stroke="black" points="1001,-134.5 1001,-153.5 1171,-153.5 1171,-134.5 1001,-134.5"/>
<text text-anchor="middle" x="1086" y="-141.5" font-family="Helvetica,sans-Serif" font-size="10.00">gOcraSegCartesianTaskManager.h</text>
</a>
</g>
</g>
<!-- Node1&#45;&gt;Node14 -->
<g id="edge18" class="edge"><title>Node1&#45;&gt;Node14</title>
<path fill="none" stroke="midnightblue" d="M888.829,-188.281C935.316,-178.077 1004.36,-162.92 1047.2,-153.516"/>
<polygon fill="midnightblue" stroke="midnightblue" points="887.996,-184.881 878.979,-190.444 889.497,-191.718 887.996,-184.881"/>
</g>
<!-- Node16 -->
<g id="node16" class="node"><title>Node16</title>
<g id="a_node16"><a xlink:href="../../d7/d74/gOcraSegOrientationTaskManager_8h.html" target="_top" xlink:title="gOcraSegOrientationTaskManager.h">
<polygon fill="white" stroke="black" points="1189.5,-134.5 1189.5,-153.5 1364.5,-153.5 1364.5,-134.5 1189.5,-134.5"/>
<text text-anchor="middle" x="1277" y="-141.5" font-family="Helvetica,sans-Serif" font-size="10.00">gOcraSegOrientationTaskManager.h</text>
</a>
</g>
</g>
<!-- Node1&#45;&gt;Node16 -->
<g id="edge21" class="edge"><title>Node1&#45;&gt;Node16</title>
<path fill="none" stroke="midnightblue" d="M916.9,-189.497C999.271,-179.319 1128.8,-163.313 1208,-153.527"/>
<polygon fill="midnightblue" stroke="midnightblue" points="916.342,-186.04 906.847,-190.74 917.2,-192.987 916.342,-186.04"/>
</g>
<!-- Node18 -->
<g id="node18" class="node"><title>Node18</title>
<g id="a_node18"><a xlink:href="../../d2/db2/gOcraSegPoseTaskManager_8h.html" target="_top" xlink:title="gOcraSegPoseTaskManager.h">
<polygon fill="white" stroke="black" points="1383,-134.5 1383,-153.5 1533,-153.5 1533,-134.5 1383,-134.5"/>
<text text-anchor="middle" x="1458" y="-141.5" font-family="Helvetica,sans-Serif" font-size="10.00">gOcraSegPoseTaskManager.h</text>
</a>
</g>
</g>
<!-- Node1&#45;&gt;Node18 -->
<g id="edge24" class="edge"><title>Node1&#45;&gt;Node18</title>
<path fill="none" stroke="midnightblue" d="M916.569,-193.05C1020.14,-184.883 1210.62,-169.45 1373,-154 1376.25,-153.691 1379.57,-153.368 1382.92,-153.037"/>
<polygon fill="midnightblue" stroke="midnightblue" points="916.211,-189.567 906.516,-193.841 916.76,-196.545 916.211,-189.567"/>
</g>
<!-- Node20 -->
<g id="node20" class="node"><title>Node20</title>
<g id="a_node20"><a xlink:href="../../d6/d1f/gOcraTaskManagerBase_8cpp.html" target="_top" xlink:title="gOcraTaskManagerBase.cpp">
<polygon fill="white" stroke="black" points="1551.5,-134.5 1551.5,-153.5 1694.5,-153.5 1694.5,-134.5 1551.5,-134.5"/>
<text text-anchor="middle" x="1623" y="-141.5" font-family="Helvetica,sans-Serif" font-size="10.00">gOcraTaskManagerBase.cpp</text>
</a>
</g>
</g>
<!-- Node1&#45;&gt;Node20 -->
<g id="edge27" class="edge"><title>Node1&#45;&gt;Node20</title>
<path fill="none" stroke="midnightblue" d="M917.06,-195.238C1046.37,-188.662 1315.16,-173.861 1542,-154 1545.1,-153.728 1548.27,-153.437 1551.46,-153.131"/>
<polygon fill="midnightblue" stroke="midnightblue" points="916.676,-191.753 906.865,-195.754 917.03,-198.744 916.676,-191.753"/>
</g>
<!-- Node3 -->
<g id="node3" class="node"><title>Node3</title>
<g id="a_node3"><a xlink:href="../../de/d9f/gOcraTaskManagerCollectionBase_8cpp.html" target="_top" xlink:title="gOcraTaskManagerCollection\lBase.cpp">
<polygon fill="white" stroke="black" points="710,-0.5 710,-30.5 856,-30.5 856,-0.5 710,-0.5"/>
<text text-anchor="start" x="718" y="-18.5" font-family="Helvetica,sans-Serif" font-size="10.00">gOcraTaskManagerCollection</text>
<text text-anchor="middle" x="783" y="-7.5" font-family="Helvetica,sans-Serif" font-size="10.00">Base.cpp</text>
</a>
</g>
</g>
<!-- Node2&#45;&gt;Node3 -->
<g id="edge2" class="edge"><title>Node2&#45;&gt;Node3</title>
<path fill="none" stroke="midnightblue" d="M783,-57.1081C783,-48.1539 783,-38.3227 783,-30.5765"/>
<polygon fill="midnightblue" stroke="midnightblue" points="779.5,-57.3959 783,-67.396 786.5,-57.396 779.5,-57.3959"/>
</g>
<!-- Node4&#45;&gt;Node2 -->
<g id="edge4" class="edge"><title>Node4&#45;&gt;Node2</title>
<path fill="none" stroke="midnightblue" d="M244.954,-133.95C448.462,-114.169 502.152,-123.353 701,-98 703.868,-97.6343 706.789,-97.2373 709.736,-96.816"/>
<polygon fill="midnightblue" stroke="midnightblue" points="244.443,-130.484 234.833,-134.946 245.128,-137.45 244.443,-130.484"/>
</g>
<!-- Node5 -->
<g id="node5" class="node"><title>Node5</title>
<g id="a_node5"><a xlink:href="../../d4/d34/gOcraCoMTaskManager_8cpp.html" target="_top" xlink:title="gOcraCoMTaskManager.cpp">
<polygon fill="white" stroke="black" points="0,-73 0,-92 142,-92 142,-73 0,-73"/>
<text text-anchor="middle" x="71" y="-80" font-family="Helvetica,sans-Serif" font-size="10.00">gOcraCoMTaskManager.cpp</text>
</a>
</g>
</g>
<!-- Node4&#45;&gt;Node5 -->
<g id="edge5" class="edge"><title>Node4&#45;&gt;Node5</title>
<path fill="none" stroke="midnightblue" d="M146.343,-129.244C127.411,-117.75 101.014,-101.723 85.015,-92.0091"/>
<polygon fill="midnightblue" stroke="midnightblue" points="144.595,-132.277 154.959,-134.475 148.228,-126.294 144.595,-132.277"/>
</g>
<!-- Node6&#45;&gt;Node2 -->
<g id="edge7" class="edge"><title>Node6&#45;&gt;Node2</title>
<path fill="none" stroke="midnightblue" d="M423.145,-133.335C497.758,-125.01 606.459,-112.129 701,-98 703.86,-97.5726 706.773,-97.1235 709.714,-96.6587"/>
<polygon fill="midnightblue" stroke="midnightblue" points="422.4,-129.896 412.848,-134.479 423.174,-136.853 422.4,-129.896"/>
</g>
<!-- Node7 -->
<g id="node7" class="node"><title>Node7</title>
<g id="a_node7"><a xlink:href="../../d9/d71/gOcraContactSetTaskManager_8cpp.html" target="_top" xlink:title="gOcraContactSetTaskManager.cpp">
<polygon fill="white" stroke="black" points="160,-73 160,-92 330,-92 330,-73 160,-73"/>
<text text-anchor="middle" x="245" y="-80" font-family="Helvetica,sans-Serif" font-size="10.00">gOcraContactSetTaskManager.cpp</text>
</a>
</g>
</g>
<!-- Node6&#45;&gt;Node7 -->
<g id="edge8" class="edge"><title>Node6&#45;&gt;Node7</title>
<path fill="none" stroke="midnightblue" d="M311.721,-128.613C294.796,-117.169 271.69,-101.546 257.585,-92.0091"/>
<polygon fill="midnightblue" stroke="midnightblue" points="310.147,-131.773 320.392,-134.475 314.068,-125.974 310.147,-131.773"/>
</g>
<!-- Node8&#45;&gt;Node2 -->
<g id="edge10" class="edge"><title>Node8&#45;&gt;Node2</title>
<path fill="none" stroke="midnightblue" d="M553.923,-132.353C599.523,-122.629 667.252,-108.185 717.245,-97.523"/>
<polygon fill="midnightblue" stroke="midnightblue" points="553.024,-128.966 543.974,-134.475 554.484,-135.812 553.024,-128.966"/>
</g>
<!-- Node9 -->
<g id="node9" class="node"><title>Node9</title>
<g id="a_node9"><a xlink:href="../../da/d9a/gOcraContactTaskManager_8cpp.html" target="_top" xlink:title="gOcraContactTaskManager.cpp">
<polygon fill="white" stroke="black" points="348.5,-73 348.5,-92 503.5,-92 503.5,-73 348.5,-73"/>
<text text-anchor="middle" x="426" y="-80" font-family="Helvetica,sans-Serif" font-size="10.00">gOcraContactTaskManager.cpp</text>
</a>
</g>
</g>
<!-- Node8&#45;&gt;Node9 -->
<g id="edge11" class="edge"><title>Node8&#45;&gt;Node9</title>
<path fill="none" stroke="midnightblue" d="M484.721,-128.294C469.759,-116.88 449.541,-101.458 437.155,-92.0091"/>
<polygon fill="midnightblue" stroke="midnightblue" points="482.751,-131.193 492.825,-134.475 486.996,-125.627 482.751,-131.193"/>
</g>
<!-- Node10&#45;&gt;Node2 -->
<g id="edge13" class="edge"><title>Node10&#45;&gt;Node2</title>
<path fill="none" stroke="midnightblue" d="M699.427,-129.542C716.765,-119.991 739.983,-107.199 757.547,-97.523"/>
<polygon fill="midnightblue" stroke="midnightblue" points="697.544,-126.584 690.474,-134.475 700.921,-132.715 697.544,-126.584"/>
</g>
<!-- Node11 -->
<g id="node11" class="node"><title>Node11</title>
<g id="a_node11"><a xlink:href="../../d3/df6/gOcraFullPostureTaskManager_8cpp.html" target="_top" xlink:title="gOcraFullPostureTaskManager.cpp">
<polygon fill="white" stroke="black" points="522,-73 522,-92 692,-92 692,-73 522,-73"/>
<text text-anchor="middle" x="607" y="-80" font-family="Helvetica,sans-Serif" font-size="10.00">gOcraFullPostureTaskManager.cpp</text>
</a>
</g>
</g>
<!-- Node10&#45;&gt;Node11 -->
<g id="edge14" class="edge"><title>Node10&#45;&gt;Node11</title>
<path fill="none" stroke="midnightblue" d="M657.457,-127.65C644.492,-116.306 627.321,-101.281 616.725,-92.0091"/>
<polygon fill="midnightblue" stroke="midnightblue" points="655.427,-130.524 665.257,-134.475 660.036,-125.256 655.427,-130.524"/>
</g>
<!-- Node12&#45;&gt;Node2 -->
<g id="edge16" class="edge"><title>Node12&#45;&gt;Node2</title>
<path fill="none" stroke="midnightblue" d="M871.722,-129.807C853.369,-120.228 828.578,-107.289 809.868,-97.523"/>
<polygon fill="midnightblue" stroke="midnightblue" points="870.182,-132.951 880.667,-134.475 873.421,-126.745 870.182,-132.951"/>
</g>
<!-- Node13 -->
<g id="node13" class="node"><title>Node13</title>
<g id="a_node13"><a xlink:href="../../dd/dcc/gOcraPartialPostureTaskManager_8cpp.html" target="_top" xlink:title="gOcraPartialPostureTaskManager.cpp">
<polygon fill="white" stroke="black" points="874,-73 874,-92 1056,-92 1056,-73 874,-73"/>
<text text-anchor="middle" x="965" y="-80" font-family="Helvetica,sans-Serif" font-size="10.00">gOcraPartialPostureTaskManager.cpp</text>
</a>
</g>
</g>
<!-- Node12&#45;&gt;Node13 -->
<g id="edge17" class="edge"><title>Node12&#45;&gt;Node13</title>
<path fill="none" stroke="midnightblue" d="M914.543,-127.65C927.508,-116.306 944.679,-101.281 955.275,-92.0091"/>
<polygon fill="midnightblue" stroke="midnightblue" points="911.964,-125.256 906.743,-134.475 916.573,-130.524 911.964,-125.256"/>
</g>
<!-- Node14&#45;&gt;Node2 -->
<g id="edge19" class="edge"><title>Node14&#45;&gt;Node2</title>
<path fill="none" stroke="midnightblue" d="M1032.72,-132.537C983.188,-122.811 909.048,-108.252 854.411,-97.523"/>
<polygon fill="midnightblue" stroke="midnightblue" points="1032.1,-135.983 1042.59,-134.475 1033.45,-129.114 1032.1,-135.983"/>
</g>
<!-- Node15 -->
<g id="node15" class="node"><title>Node15</title>
<g id="a_node15"><a xlink:href="../../dd/d9e/gOcraSegCartesianTaskManager_8cpp.html" target="_top" xlink:title="gOcraSegCartesianTaskManager.cpp">
<polygon fill="white" stroke="black" points="1074,-73 1074,-92 1254,-92 1254,-73 1074,-73"/>
<text text-anchor="middle" x="1164" y="-80" font-family="Helvetica,sans-Serif" font-size="10.00">gOcraSegCartesianTaskManager.cpp</text>
</a>
</g>
</g>
<!-- Node14&#45;&gt;Node15 -->
<g id="edge20" class="edge"><title>Node14&#45;&gt;Node15</title>
<path fill="none" stroke="midnightblue" d="M1105.28,-128.294C1120.24,-116.88 1140.46,-101.458 1152.85,-92.0091"/>
<polygon fill="midnightblue" stroke="midnightblue" points="1103,-125.627 1097.18,-134.475 1107.25,-131.193 1103,-125.627"/>
</g>
<!-- Node16&#45;&gt;Node2 -->
<g id="edge22" class="edge"><title>Node16&#45;&gt;Node2</title>
<path fill="none" stroke="midnightblue" d="M1182.8,-133.444C1080.66,-122.951 924.284,-106.47 865,-98 862.138,-97.5911 859.222,-97.1575 856.279,-96.7057"/>
<polygon fill="midnightblue" stroke="midnightblue" points="1182.52,-136.932 1192.82,-134.471 1183.23,-129.969 1182.52,-136.932"/>
</g>
<!-- Node17 -->
<g id="node17" class="node"><title>Node17</title>
<g id="a_node17"><a xlink:href="../../d8/dfe/gOcraSegOrientationTaskManager_8cpp.html" target="_top" xlink:title="gOcraSegOrientationTaskManager.cpp">
<polygon fill="white" stroke="black" points="1272.5,-73 1272.5,-92 1457.5,-92 1457.5,-73 1272.5,-73"/>
<text text-anchor="middle" x="1365" y="-80" font-family="Helvetica,sans-Serif" font-size="10.00">gOcraSegOrientationTaskManager.cpp</text>
</a>
</g>
</g>
<!-- Node16&#45;&gt;Node17 -->
<g id="edge23" class="edge"><title>Node16&#45;&gt;Node17</title>
<path fill="none" stroke="midnightblue" d="M1298.28,-128.613C1315.2,-117.169 1338.31,-101.546 1352.42,-92.0091"/>
<polygon fill="midnightblue" stroke="midnightblue" points="1295.93,-125.974 1289.61,-134.475 1299.85,-131.773 1295.93,-125.974"/>
</g>
<!-- Node18&#45;&gt;Node2 -->
<g id="edge25" class="edge"><title>Node18&#45;&gt;Node2</title>
<path fill="none" stroke="midnightblue" d="M1372.7,-134.014C1145.8,-114.414 1086.35,-125.338 865,-98 862.13,-97.6456 859.209,-97.2581 856.261,-96.8447"/>
<polygon fill="midnightblue" stroke="midnightblue" points="1372.66,-137.524 1382.93,-134.908 1373.27,-130.55 1372.66,-137.524"/>
</g>
<!-- Node19 -->
<g id="node19" class="node"><title>Node19</title>
<g id="a_node19"><a xlink:href="../../de/d48/gOcraSegPoseTaskManager_8cpp.html" target="_top" xlink:title="gOcraSegPoseTaskManager.cpp">
<polygon fill="white" stroke="black" points="1475.5,-73 1475.5,-92 1636.5,-92 1636.5,-73 1475.5,-73"/>
<text text-anchor="middle" x="1556" y="-80" font-family="Helvetica,sans-Serif" font-size="10.00">gOcraSegPoseTaskManager.cpp</text>
</a>
</g>
</g>
<!-- Node18&#45;&gt;Node19 -->
<g id="edge26" class="edge"><title>Node18&#45;&gt;Node19</title>
<path fill="none" stroke="midnightblue" d="M1480.66,-129.244C1499.59,-117.75 1525.99,-101.723 1541.99,-92.0091"/>
<polygon fill="midnightblue" stroke="midnightblue" points="1478.77,-126.294 1472.04,-134.475 1482.41,-132.277 1478.77,-126.294"/>
</g>
</g>
</svg>
