<?xml version="1.0" encoding="UTF-8" standalone="no"?>
<!DOCTYPE svg PUBLIC "-//W3C//DTD SVG 1.1//EN"
 "http://www.w3.org/Graphics/SVG/1.1/DTD/svg11.dtd">
<!-- Generated by graphviz version 2.38.0 (20140413.2041)
 -->
<!-- Title: ContactSet.h Pages: 1 -->
<svg width="222pt" height="84pt"
 viewBox="0.00 0.00 222.00 84.00" xmlns="http://www.w3.org/2000/svg" xmlns:xlink="http://www.w3.org/1999/xlink">
<g id="graph0" class="graph" transform="scale(1 1) rotate(0) translate(4 80)">
<title>ContactSet.h</title>
<polygon fill="white" stroke="none" points="-4,4 -4,-80 218,-80 218,4 -4,4"/>
<!-- Node1 -->
<g id="node1" class="node"><title>Node1</title>
<polygon fill="#bfbfbf" stroke="black" points="63.5,-56.5 63.5,-75.5 137.5,-75.5 137.5,-56.5 63.5,-56.5"/>
<text text-anchor="middle" x="100.5" y="-63.5" font-family="Helvetica,sans-Serif" font-size="10.00">ContactSet.h</text>
</g>
<!-- Node2 -->
<g id="node2" class="node"><title>Node2</title>
<g id="a_node2"><a xlink:href="../../d7/dce/ContactSet_8cpp.html" target="_top" xlink:title="ContactSet.cpp">
<polygon fill="white" stroke="black" points="0,-0.5 0,-19.5 85,-19.5 85,-0.5 0,-0.5"/>
<text text-anchor="middle" x="42.5" y="-7.5" font-family="Helvetica,sans-Serif" font-size="10.00">ContactSet.cpp</text>
</a>
</g>
</g>
<!-- Node1&#45;&gt;Node2 -->
<g id="edge1" class="edge"><title>Node1&#45;&gt;Node2</title>
<path fill="none" stroke="midnightblue" d="M83.5869,-49.2533C73.297,-39.6731 60.5343,-27.7906 51.9883,-19.8339"/>
<polygon fill="midnightblue" stroke="midnightblue" points="81.4774,-52.0714 91.1813,-56.324 86.2473,-46.9481 81.4774,-52.0714"/>
</g>
<!-- Node3 -->
<g id="node3" class="node"><title>Node3</title>
<g id="a_node3"><a xlink:href="../../d0/d71/GHCJTController_8cpp.html" target="_top" xlink:title="Implement the quasi&#45;static Generalized Hierarchical Control based on Jacobian Transpose (GHCJT)...">
<polygon fill="white" stroke="black" points="103,-0.5 103,-19.5 214,-19.5 214,-0.5 103,-0.5"/>
<text text-anchor="middle" x="158.5" y="-7.5" font-family="Helvetica,sans-Serif" font-size="10.00">GHCJTController.cpp</text>
</a>
</g>
</g>
<!-- Node1&#45;&gt;Node3 -->
<g id="edge2" class="edge"><title>Node1&#45;&gt;Node3</title>
<path fill="none" stroke="midnightblue" d="M117.413,-49.2533C127.703,-39.6731 140.466,-27.7906 149.012,-19.8339"/>
<polygon fill="midnightblue" stroke="midnightblue" points="114.753,-46.9481 109.819,-56.324 119.523,-52.0714 114.753,-46.9481"/>
</g>
</g>
</svg>
