<?xml version="1.0" encoding="UTF-8" standalone="no"?>
<!DOCTYPE svg PUBLIC "-//W3C//DTD SVG 1.1//EN"
 "http://www.w3.org/Graphics/SVG/1.1/DTD/svg11.dtd">
<!-- Generated by graphviz version 2.38.0 (20140413.2041)
 -->
<!-- Title: ocra::NamedInstance Pages: 1 -->
<svg width="640pt" height="1320pt"
 viewBox="0.00 0.00 640.00 1320.00" xmlns="http://www.w3.org/2000/svg" xmlns:xlink="http://www.w3.org/1999/xlink">
<g id="graph0" class="graph" transform="scale(1 1) rotate(0) translate(4 1316)">
<title>ocra::NamedInstance</title>
<polygon fill="white" stroke="none" points="-4,4 -4,-1316 636,-1316 636,4 -4,4"/>
<!-- Node1 -->
<g id="node1" class="node"><title>Node1</title>
<polygon fill="#bfbfbf" stroke="black" points="0,-655.5 0,-674.5 110,-674.5 110,-655.5 0,-655.5"/>
<text text-anchor="middle" x="55" y="-662.5" font-family="Helvetica,sans-Serif" font-size="10.00">ocra::NamedInstance</text>
</g>
<!-- Node2 -->
<g id="node2" class="node"><title>Node2</title>
<g id="a_node2"><a xlink:href="../../d5/d38/classocra_1_1ContactSet.html" target="_top" xlink:title="Contact task factory. ">
<polygon fill="white" stroke="black" points="151,-1254.5 151,-1273.5 242,-1273.5 242,-1254.5 151,-1254.5"/>
<text text-anchor="middle" x="196.5" y="-1261.5" font-family="Helvetica,sans-Serif" font-size="10.00">ocra::ContactSet</text>
</a>
</g>
</g>
<!-- Node1&#45;&gt;Node2 -->
<g id="edge1" class="edge"><title>Node1&#45;&gt;Node2</title>
<path fill="none" stroke="midnightblue" d="M56.4761,-684.674C59.0542,-775.76 74.0332,-1155.85 146,-1245 149.122,-1248.87 153.13,-1251.95 157.51,-1254.4"/>
<polygon fill="midnightblue" stroke="midnightblue" points="59.9734,-684.522 56.2098,-674.619 52.9758,-684.708 59.9734,-684.522"/>
</g>
<!-- Node3 -->
<g id="node3" class="node"><title>Node3</title>
<g id="a_node3"><a xlink:href="../../db/d33/classocra_1_1ControlFrame.html" target="_top" xlink:title="Generic representation of a frame: gives access to its position, velocity, jacobian... ">
<polygon fill="white" stroke="black" points="146,-1216.5 146,-1235.5 247,-1235.5 247,-1216.5 146,-1216.5"/>
<text text-anchor="middle" x="196.5" y="-1223.5" font-family="Helvetica,sans-Serif" font-size="10.00">ocra::ControlFrame</text>
</a>
</g>
</g>
<!-- Node1&#45;&gt;Node3 -->
<g id="edge2" class="edge"><title>Node1&#45;&gt;Node3</title>
<path fill="none" stroke="midnightblue" d="M56.8985,-684.679C60.5387,-752.033 77.4692,-978.615 146,-1150 156.406,-1176.02 176.273,-1202.6 187.413,-1216.38"/>
<polygon fill="midnightblue" stroke="midnightblue" points="60.391,-684.442 56.3927,-674.63 53.3999,-684.794 60.391,-684.442"/>
</g>
<!-- Node7 -->
<g id="node7" class="node"><title>Node7</title>
<g id="a_node7"><a xlink:href="../../d8/d92/classocra_1_1Controller.html" target="_top" xlink:title="Interface for controllers. ">
<polygon fill="white" stroke="black" points="155,-1121.5 155,-1140.5 238,-1140.5 238,-1121.5 155,-1121.5"/>
<text text-anchor="middle" x="196.5" y="-1128.5" font-family="Helvetica,sans-Serif" font-size="10.00">ocra::Controller</text>
</a>
</g>
</g>
<!-- Node1&#45;&gt;Node7 -->
<g id="edge6" class="edge"><title>Node1&#45;&gt;Node7</title>
<path fill="none" stroke="midnightblue" d="M61.8258,-684.461C85.6613,-764.084 175.308,-1063.55 192.602,-1121.32"/>
<polygon fill="midnightblue" stroke="midnightblue" points="65.1345,-683.309 58.9137,-674.733 58.4286,-685.317 65.1345,-683.309"/>
</g>
<!-- Node11 -->
<g id="node11" class="node"><title>Node11</title>
<g id="a_node11"><a xlink:href="../../d6/d87/classocra_1_1Feature.html" target="_top" xlink:title="Feature interface, used by tasks to compute errors and jacobians. ">
<polygon fill="white" stroke="black" points="159.5,-931.5 159.5,-950.5 233.5,-950.5 233.5,-931.5 159.5,-931.5"/>
<text text-anchor="middle" x="196.5" y="-938.5" font-family="Helvetica,sans-Serif" font-size="10.00">ocra::Feature</text>
</a>
</g>
</g>
<!-- Node1&#45;&gt;Node11 -->
<g id="edge10" class="edge"><title>Node1&#45;&gt;Node11</title>
<path fill="none" stroke="midnightblue" d="M65.3808,-683.56C92.4768,-737.169 170.22,-890.983 190.574,-931.254"/>
<polygon fill="midnightblue" stroke="midnightblue" points="68.4365,-681.847 60.8019,-674.501 62.1892,-685.004 68.4365,-681.847"/>
</g>
<!-- Node19 -->
<g id="node19" class="node"><title>Node19</title>
<g id="a_node19"><a xlink:href="../../d2/d99/classocra_1_1FullState.html" target="_top" xlink:title="ocra::FullState">
<polygon fill="white" stroke="black" points="156.5,-760.5 156.5,-779.5 236.5,-779.5 236.5,-760.5 156.5,-760.5"/>
<text text-anchor="middle" x="196.5" y="-767.5" font-family="Helvetica,sans-Serif" font-size="10.00">ocra::FullState</text>
</a>
</g>
</g>
<!-- Node1&#45;&gt;Node19 -->
<g id="edge18" class="edge"><title>Node1&#45;&gt;Node19</title>
<path fill="none" stroke="midnightblue" d="M77.1906,-680.95C106.523,-703.028 158.598,-742.224 182.657,-760.333"/>
<polygon fill="midnightblue" stroke="midnightblue" points="78.9683,-677.907 68.8738,-674.69 74.7587,-683.5 78.9683,-677.907"/>
</g>
<!-- Node22 -->
<g id="node22" class="node"><title>Node22</title>
<g id="a_node22"><a xlink:href="../../d2/d99/classocra_1_1Function.html" target="_top" xlink:title="Function class. ">
<polygon fill="white" stroke="black" points="157,-551.5 157,-570.5 236,-570.5 236,-551.5 157,-551.5"/>
<text text-anchor="middle" x="196.5" y="-558.5" font-family="Helvetica,sans-Serif" font-size="10.00">ocra::Function</text>
</a>
</g>
</g>
<!-- Node1&#45;&gt;Node22 -->
<g id="edge21" class="edge"><title>Node1&#45;&gt;Node22</title>
<path fill="none" stroke="midnightblue" d="M77.1906,-649.202C106.523,-627.334 158.598,-588.511 182.657,-570.574"/>
<polygon fill="midnightblue" stroke="midnightblue" points="74.799,-646.619 68.8738,-655.402 78.983,-652.231 74.799,-646.619"/>
</g>
<!-- Node37 -->
<g id="node37" class="node"><title>Node37</title>
<g id="a_node37"><a xlink:href="../../d4/d00/classocra_1_1Model.html" target="_top" xlink:title="Model class. ">
<polygon fill="white" stroke="black" points="162.5,-409.5 162.5,-428.5 230.5,-428.5 230.5,-409.5 162.5,-409.5"/>
<text text-anchor="middle" x="196.5" y="-416.5" font-family="Helvetica,sans-Serif" font-size="10.00">ocra::Model</text>
</a>
</g>
</g>
<!-- Node1&#45;&gt;Node37 -->
<g id="edge36" class="edge"><title>Node1&#45;&gt;Node37</title>
<path fill="none" stroke="midnightblue" d="M66.5197,-646.449C94.3608,-597.353 169.257,-465.278 190.069,-428.577"/>
<polygon fill="midnightblue" stroke="midnightblue" points="63.3569,-644.931 61.4686,-655.357 69.446,-648.384 63.3569,-644.931"/>
</g>
<!-- Node39 -->
<g id="node39" class="node"><title>Node39</title>
<g id="a_node39"><a xlink:href="../../d0/d45/classocra_1_1PartialState.html" target="_top" xlink:title="A abstract partial state. ">
<polygon fill="white" stroke="black" points="150.5,-266.5 150.5,-285.5 242.5,-285.5 242.5,-266.5 150.5,-266.5"/>
<text text-anchor="middle" x="196.5" y="-273.5" font-family="Helvetica,sans-Serif" font-size="10.00">ocra::PartialState</text>
</a>
</g>
</g>
<!-- Node1&#45;&gt;Node39 -->
<g id="edge38" class="edge"><title>Node1&#45;&gt;Node39</title>
<path fill="none" stroke="midnightblue" d="M62.1952,-645.624C76.3295,-601.679 112.342,-491.185 146,-400 161.893,-356.944 182.813,-306.313 191.476,-285.581"/>
<polygon fill="midnightblue" stroke="midnightblue" points="58.8098,-644.719 59.0878,-655.31 65.4753,-646.857 58.8098,-644.719"/>
</g>
<!-- Node42 -->
<g id="node42" class="node"><title>Node42</title>
<g id="a_node42"><a xlink:href="../../d6/dd3/classocra_1_1Solver.html" target="_top" xlink:title="Solver class. ">
<polygon fill="white" stroke="black" points="162,-133.5 162,-152.5 231,-152.5 231,-133.5 162,-133.5"/>
<text text-anchor="middle" x="196.5" y="-140.5" font-family="Helvetica,sans-Serif" font-size="10.00">ocra::Solver</text>
</a>
</g>
</g>
<!-- Node1&#45;&gt;Node42 -->
<g id="edge41" class="edge"><title>Node1&#45;&gt;Node42</title>
<path fill="none" stroke="midnightblue" d="M58.9419,-645.427C68.1633,-586.009 98.7339,-402.858 146,-257 158.971,-216.974 180.902,-171.781 190.617,-152.516"/>
<polygon fill="midnightblue" stroke="midnightblue" points="55.4795,-644.916 57.4263,-655.331 62.3989,-645.975 55.4795,-644.916"/>
</g>
<!-- Node48 -->
<g id="node48" class="node"><title>Node48</title>
<g id="a_node48"><a xlink:href="../../d9/d84/classocra_1_1Task.html" target="_top" xlink:title="ocra::Task">
<polygon fill="white" stroke="black" points="165,-38.5 165,-57.5 228,-57.5 228,-38.5 165,-38.5"/>
<text text-anchor="middle" x="196.5" y="-45.5" font-family="Helvetica,sans-Serif" font-size="10.00">ocra::Task</text>
</a>
</g>
</g>
<!-- Node1&#45;&gt;Node48 -->
<g id="edge47" class="edge"><title>Node1&#45;&gt;Node48</title>
<path fill="none" stroke="midnightblue" d="M56.402,-644.965C58.4594,-572.322 70.9406,-316.905 146,-124 156.164,-97.8792 176.125,-71.3397 187.345,-57.5921"/>
<polygon fill="midnightblue" stroke="midnightblue" points="52.8935,-645.272 56.1463,-655.355 59.8913,-645.445 52.8935,-645.272"/>
</g>
<!-- Node4 -->
<g id="node4" class="node"><title>Node4</title>
<g id="a_node4"><a xlink:href="../../d9/d52/classocra_1_1CoMFrame.html" target="_top" xlink:title="Creates a frame whose center is at the CoM of the model and whose axes are parallel to the axes of th...">
<polygon fill="white" stroke="black" points="315,-1292.5 315,-1311.5 405,-1311.5 405,-1292.5 315,-1292.5"/>
<text text-anchor="middle" x="360" y="-1299.5" font-family="Helvetica,sans-Serif" font-size="10.00">ocra::CoMFrame</text>
</a>
</g>
</g>
<!-- Node3&#45;&gt;Node4 -->
<g id="edge3" class="edge"><title>Node3&#45;&gt;Node4</title>
<path fill="none" stroke="midnightblue" d="M237.818,-1239.68C241.017,-1241.3 244.12,-1243.07 247,-1245 266.338,-1257.93 262.912,-1271.27 283,-1283 292.63,-1288.63 303.888,-1292.6 314.744,-1295.4"/>
<polygon fill="midnightblue" stroke="midnightblue" points="239.209,-1236.47 228.657,-1235.52 236.312,-1242.84 239.209,-1236.47"/>
</g>
<!-- Node5 -->
<g id="node5" class="node"><title>Node5</title>
<g id="a_node5"><a xlink:href="../../d1/d45/classocra_1_1SegmentFrame.html" target="_top" xlink:title="A frame attached to a segment of a model. ">
<polygon fill="white" stroke="black" points="306,-1254.5 306,-1273.5 414,-1273.5 414,-1254.5 306,-1254.5"/>
<text text-anchor="middle" x="360" y="-1261.5" font-family="Helvetica,sans-Serif" font-size="10.00">ocra::SegmentFrame</text>
</a>
</g>
</g>
<!-- Node3&#45;&gt;Node5 -->
<g id="edge4" class="edge"><title>Node3&#45;&gt;Node5</title>
<path fill="none" stroke="midnightblue" d="M248.058,-1237.9C270.759,-1243.24 297.178,-1249.45 318.54,-1254.48"/>
<polygon fill="midnightblue" stroke="midnightblue" points="248.789,-1234.47 238.253,-1235.59 247.186,-1241.29 248.789,-1234.47"/>
</g>
<!-- Node6 -->
<g id="node6" class="node"><title>Node6</title>
<g id="a_node6"><a xlink:href="../../da/dbb/classocra_1_1TargetFrame.html" target="_top" xlink:title="Represents a &#39;target&#39;, i.e. something that does not depend on a model but must match with another fra...">
<polygon fill="white" stroke="black" points="311.5,-1216.5 311.5,-1235.5 408.5,-1235.5 408.5,-1216.5 311.5,-1216.5"/>
<text text-anchor="middle" x="360" y="-1223.5" font-family="Helvetica,sans-Serif" font-size="10.00">ocra::TargetFrame</text>
</a>
</g>
</g>
<!-- Node3&#45;&gt;Node6 -->
<g id="edge5" class="edge"><title>Node3&#45;&gt;Node6</title>
<path fill="none" stroke="midnightblue" d="M257.531,-1226C275.283,-1226 294.467,-1226 311.326,-1226"/>
<polygon fill="midnightblue" stroke="midnightblue" points="257.273,-1222.5 247.273,-1226 257.273,-1229.5 257.273,-1222.5"/>
</g>
<!-- Node8 -->
<g id="node8" class="node"><title>Node8</title>
<g id="a_node8"><a xlink:href="../../d6/dbf/classgocra_1_1GHCJTController.html" target="_top" xlink:title="gOcra Controller based on LQP solver for the ocra framework. ">
<polygon fill="white" stroke="black" points="299,-1178.5 299,-1197.5 421,-1197.5 421,-1178.5 299,-1178.5"/>
<text text-anchor="middle" x="360" y="-1185.5" font-family="Helvetica,sans-Serif" font-size="10.00">gocra::GHCJTController</text>
</a>
</g>
</g>
<!-- Node7&#45;&gt;Node8 -->
<g id="edge7" class="edge"><title>Node7&#45;&gt;Node8</title>
<path fill="none" stroke="midnightblue" d="M225.545,-1144.94C242,-1152.75 263.356,-1162.24 283,-1169 293.288,-1172.54 304.567,-1175.73 315.215,-1178.43"/>
<polygon fill="midnightblue" stroke="midnightblue" points="227.001,-1141.76 216.473,-1140.58 223.965,-1148.07 227.001,-1141.76"/>
</g>
<!-- Node9 -->
<g id="node9" class="node"><title>Node9</title>
<g id="a_node9"><a xlink:href="../../d1/d6a/classhocra_1_1HocraController.html" target="_top" xlink:title="Hocra Controller based on LQP solver for the ocra framework. ">
<polygon fill="white" stroke="black" points="302.5,-1140.5 302.5,-1159.5 417.5,-1159.5 417.5,-1140.5 302.5,-1140.5"/>
<text text-anchor="middle" x="360" y="-1147.5" font-family="Helvetica,sans-Serif" font-size="10.00">hocra::HocraController</text>
</a>
</g>
</g>
<!-- Node7&#45;&gt;Node9 -->
<g id="edge8" class="edge"><title>Node7&#45;&gt;Node9</title>
<path fill="none" stroke="midnightblue" d="M248.608,-1137.01C265.721,-1139.03 284.895,-1141.28 302.402,-1143.34"/>
<polygon fill="midnightblue" stroke="midnightblue" points="248.594,-1133.49 238.253,-1135.79 247.776,-1140.44 248.594,-1133.49"/>
</g>
<!-- Node10 -->
<g id="node10" class="node"><title>Node10</title>
<g id="a_node10"><a xlink:href="../../db/d14/classwocra_1_1WocraController.html" target="_top" xlink:title="Wocra Controller based on LQP solver for the ocra framework. ">
<polygon fill="white" stroke="black" points="300.5,-1102.5 300.5,-1121.5 419.5,-1121.5 419.5,-1102.5 300.5,-1102.5"/>
<text text-anchor="middle" x="360" y="-1109.5" font-family="Helvetica,sans-Serif" font-size="10.00">wocra::WocraController</text>
</a>
</g>
</g>
<!-- Node7&#45;&gt;Node10 -->
<g id="edge9" class="edge"><title>Node7&#45;&gt;Node10</title>
<path fill="none" stroke="midnightblue" d="M248.25,-1125.03C264.758,-1123.09 283.217,-1120.92 300.259,-1118.91"/>
<polygon fill="midnightblue" stroke="midnightblue" points="247.776,-1121.56 238.253,-1126.21 248.594,-1128.51 247.776,-1121.56"/>
</g>
<!-- Node12 -->
<g id="node12" class="node"><title>Node12</title>
<g id="a_node12"><a xlink:href="../../d3/dd9/classocra_1_1ContactConstraintFeature.html" target="_top" xlink:title="Used to build contact constraint tasks (null acceleration). ">
<polygon fill="white" stroke="black" points="283,-1064.5 283,-1083.5 437,-1083.5 437,-1064.5 283,-1064.5"/>
<text text-anchor="middle" x="360" y="-1071.5" font-family="Helvetica,sans-Serif" font-size="10.00">ocra::ContactConstraintFeature</text>
</a>
</g>
</g>
<!-- Node11&#45;&gt;Node12 -->
<g id="edge11" class="edge"><title>Node11&#45;&gt;Node12</title>
<path fill="none" stroke="midnightblue" d="M206.38,-959.756C219.477,-985.326 246.428,-1030.72 283,-1055 288.892,-1058.91 295.526,-1062.02 302.357,-1064.49"/>
<polygon fill="midnightblue" stroke="midnightblue" points="209.479,-958.126 201.907,-950.716 203.206,-961.231 209.479,-958.126"/>
</g>
<!-- Node13 -->
<g id="node13" class="node"><title>Node13</title>
<g id="a_node13"><a xlink:href="../../dd/dda/classocra_1_1DisplacementFeature.html" target="_top" xlink:title="Used to build position/orientation tasks. ">
<polygon fill="white" stroke="black" points="293,-1026.5 293,-1045.5 427,-1045.5 427,-1026.5 293,-1026.5"/>
<text text-anchor="middle" x="360" y="-1033.5" font-family="Helvetica,sans-Serif" font-size="10.00">ocra::DisplacementFeature</text>
</a>
</g>
</g>
<!-- Node11&#45;&gt;Node13 -->
<g id="edge12" class="edge"><title>Node11&#45;&gt;Node13</title>
<path fill="none" stroke="midnightblue" d="M212.237,-958.28C228.012,-975.676 254.626,-1002.02 283,-1017 290.336,-1020.87 298.492,-1023.98 306.659,-1026.47"/>
<polygon fill="midnightblue" stroke="midnightblue" points="214.649,-955.724 205.404,-950.548 209.404,-960.359 214.649,-955.724"/>
</g>
<!-- Node14 -->
<g id="node14" class="node"><title>Node14</title>
<g id="a_node14"><a xlink:href="../../d4/d65/classocra_1_1FullStateFeature.html" target="_top" xlink:title="Used to build tasks in the manikin configuration space. ">
<polygon fill="white" stroke="black" points="303.5,-988.5 303.5,-1007.5 416.5,-1007.5 416.5,-988.5 303.5,-988.5"/>
<text text-anchor="middle" x="360" y="-995.5" font-family="Helvetica,sans-Serif" font-size="10.00">ocra::FullStateFeature</text>
</a>
</g>
</g>
<!-- Node11&#45;&gt;Node14 -->
<g id="edge13" class="edge"><title>Node11&#45;&gt;Node14</title>
<path fill="none" stroke="midnightblue" d="M225.545,-954.942C242,-962.746 263.356,-972.236 283,-979 293.288,-982.542 304.567,-985.726 315.215,-988.429"/>
<polygon fill="midnightblue" stroke="midnightblue" points="227.001,-951.759 216.473,-950.575 223.965,-958.066 227.001,-951.759"/>
</g>
<!-- Node15 -->
<g id="node15" class="node"><title>Node15</title>
<g id="a_node15"><a xlink:href="../../d0/d2e/classocra_1_1OrientationFeature.html" target="_top" xlink:title="Used to build orientation tasks. ">
<polygon fill="white" stroke="black" points="299,-950.5 299,-969.5 421,-969.5 421,-950.5 299,-950.5"/>
<text text-anchor="middle" x="360" y="-957.5" font-family="Helvetica,sans-Serif" font-size="10.00">ocra::OrientationFeature</text>
</a>
</g>
</g>
<!-- Node11&#45;&gt;Node15 -->
<g id="edge14" class="edge"><title>Node11&#45;&gt;Node15</title>
<path fill="none" stroke="midnightblue" d="M244.017,-946.473C261.094,-948.482 280.678,-950.786 298.786,-952.916"/>
<polygon fill="midnightblue" stroke="midnightblue" points="244.084,-942.956 233.744,-945.264 243.266,-949.908 244.084,-942.956"/>
</g>
<!-- Node16 -->
<g id="node16" class="node"><title>Node16</title>
<g id="a_node16"><a xlink:href="../../dc/daf/classocra_1_1PartialStateFeature.html" target="_top" xlink:title="Used to build tasks in a partial configuration space. ">
<polygon fill="white" stroke="black" points="297.5,-912.5 297.5,-931.5 422.5,-931.5 422.5,-912.5 297.5,-912.5"/>
<text text-anchor="middle" x="360" y="-919.5" font-family="Helvetica,sans-Serif" font-size="10.00">ocra::PartialStateFeature</text>
</a>
</g>
</g>
<!-- Node11&#45;&gt;Node16 -->
<g id="edge15" class="edge"><title>Node11&#45;&gt;Node16</title>
<path fill="none" stroke="midnightblue" d="M243.759,-935.558C260.397,-933.6 279.441,-931.36 297.19,-929.272"/>
<polygon fill="midnightblue" stroke="midnightblue" points="243.266,-932.092 233.744,-936.736 244.084,-939.044 243.266,-932.092"/>
</g>
<!-- Node17 -->
<g id="node17" class="node"><title>Node17</title>
<g id="a_node17"><a xlink:href="../../d4/d58/classocra_1_1PointContactFeature.html" target="_top" xlink:title="Used to build point contact tasks. ">
<polygon fill="white" stroke="black" points="294.5,-874.5 294.5,-893.5 425.5,-893.5 425.5,-874.5 294.5,-874.5"/>
<text text-anchor="middle" x="360" y="-881.5" font-family="Helvetica,sans-Serif" font-size="10.00">ocra::PointContactFeature</text>
</a>
</g>
</g>
<!-- Node11&#45;&gt;Node17 -->
<g id="edge16" class="edge"><title>Node11&#45;&gt;Node17</title>
<path fill="none" stroke="midnightblue" d="M225.545,-927.058C242,-919.254 263.356,-909.764 283,-903 293.288,-899.458 304.567,-896.274 315.215,-893.571"/>
<polygon fill="midnightblue" stroke="midnightblue" points="223.965,-923.934 216.473,-931.425 227.001,-930.241 223.965,-923.934"/>
</g>
<!-- Node18 -->
<g id="node18" class="node"><title>Node18</title>
<g id="a_node18"><a xlink:href="../../d7/d01/classocra_1_1PositionFeature.html" target="_top" xlink:title="Used to build positioning tasks. ">
<polygon fill="white" stroke="black" points="305,-836.5 305,-855.5 415,-855.5 415,-836.5 305,-836.5"/>
<text text-anchor="middle" x="360" y="-843.5" font-family="Helvetica,sans-Serif" font-size="10.00">ocra::PositionFeature</text>
</a>
</g>
</g>
<!-- Node11&#45;&gt;Node18 -->
<g id="edge17" class="edge"><title>Node11&#45;&gt;Node18</title>
<path fill="none" stroke="midnightblue" d="M212.237,-923.72C228.012,-906.324 254.626,-879.982 283,-865 290.336,-861.126 298.492,-858.02 306.659,-855.535"/>
<polygon fill="midnightblue" stroke="midnightblue" points="209.404,-921.641 205.404,-931.452 214.649,-926.276 209.404,-921.641"/>
</g>
<!-- Node20 -->
<g id="node20" class="node"><title>Node20</title>
<g id="a_node20"><a xlink:href="../../dd/d54/classocra_1_1FullModelState.html" target="_top" xlink:title="ocra::FullModelState">
<polygon fill="white" stroke="black" points="306.5,-798.5 306.5,-817.5 413.5,-817.5 413.5,-798.5 306.5,-798.5"/>
<text text-anchor="middle" x="360" y="-805.5" font-family="Helvetica,sans-Serif" font-size="10.00">ocra::FullModelState</text>
</a>
</g>
</g>
<!-- Node19&#45;&gt;Node20 -->
<g id="edge19" class="edge"><title>Node19&#45;&gt;Node20</title>
<path fill="none" stroke="midnightblue" d="M246.528,-781.536C269.578,-786.96 296.729,-793.348 318.579,-798.489"/>
<polygon fill="midnightblue" stroke="midnightblue" points="247.13,-778.082 236.595,-779.199 245.527,-784.896 247.13,-778.082"/>
</g>
<!-- Node21 -->
<g id="node21" class="node"><title>Node21</title>
<g id="a_node21"><a xlink:href="../../d5/de2/classocra_1_1FullTargetState.html" target="_top" xlink:title="ocra::FullTargetState">
<polygon fill="white" stroke="black" points="306,-760.5 306,-779.5 414,-779.5 414,-760.5 306,-760.5"/>
<text text-anchor="middle" x="360" y="-767.5" font-family="Helvetica,sans-Serif" font-size="10.00">ocra::FullTargetState</text>
</a>
</g>
</g>
<!-- Node19&#45;&gt;Node21 -->
<g id="edge20" class="edge"><title>Node19&#45;&gt;Node21</title>
<path fill="none" stroke="midnightblue" d="M246.693,-770C265.427,-770 286.849,-770 305.927,-770"/>
<polygon fill="midnightblue" stroke="midnightblue" points="246.595,-766.5 236.595,-770 246.595,-773.5 246.595,-766.5"/>
</g>
<!-- Node23 -->
<g id="node23" class="node"><title>Node23</title>
<g id="a_node23"><a xlink:href="../../d1/d44/classFunction1.html" target="_top" xlink:title="Function1">
<polygon fill="white" stroke="black" points="330.5,-722.5 330.5,-741.5 389.5,-741.5 389.5,-722.5 330.5,-722.5"/>
<text text-anchor="middle" x="360" y="-729.5" font-family="Helvetica,sans-Serif" font-size="10.00">Function1</text>
</a>
</g>
</g>
<!-- Node22&#45;&gt;Node23 -->
<g id="edge22" class="edge"><title>Node22&#45;&gt;Node23</title>
<path fill="none" stroke="midnightblue" d="M202.85,-580.286C212.907,-612.843 237.799,-678.517 283,-713 296.517,-723.311 314.953,-728.083 330.282,-730.266"/>
<polygon fill="midnightblue" stroke="midnightblue" points="206.182,-579.212 200,-570.608 199.467,-581.189 206.182,-579.212"/>
</g>
<!-- Node24 -->
<g id="node24" class="node"><title>Node24</title>
<g id="a_node24"><a xlink:href="../../d6/d7e/classFunction2.html" target="_top" xlink:title="Function2">
<polygon fill="white" stroke="black" points="330.5,-684.5 330.5,-703.5 389.5,-703.5 389.5,-684.5 330.5,-684.5"/>
<text text-anchor="middle" x="360" y="-691.5" font-family="Helvetica,sans-Serif" font-size="10.00">Function2</text>
</a>
</g>
</g>
<!-- Node22&#45;&gt;Node24 -->
<g id="edge23" class="edge"><title>Node22&#45;&gt;Node24</title>
<path fill="none" stroke="midnightblue" d="M206.38,-579.756C219.477,-605.326 246.428,-650.717 283,-675 297.05,-684.329 315.32,-689.078 330.425,-691.495"/>
<polygon fill="midnightblue" stroke="midnightblue" points="209.479,-578.126 201.907,-570.716 203.206,-581.231 209.479,-578.126"/>
</g>
<!-- Node25 -->
<g id="node25" class="node"><title>Node25</title>
<g id="a_node25"><a xlink:href="../../d9/d4a/classFunction3.html" target="_top" xlink:title="Function3">
<polygon fill="white" stroke="black" points="330.5,-646.5 330.5,-665.5 389.5,-665.5 389.5,-646.5 330.5,-646.5"/>
<text text-anchor="middle" x="360" y="-653.5" font-family="Helvetica,sans-Serif" font-size="10.00">Function3</text>
</a>
</g>
</g>
<!-- Node22&#45;&gt;Node25 -->
<g id="edge24" class="edge"><title>Node22&#45;&gt;Node25</title>
<path fill="none" stroke="midnightblue" d="M212.237,-578.28C228.012,-595.676 254.626,-622.018 283,-637 297.673,-644.748 315.621,-649.426 330.391,-652.201"/>
<polygon fill="midnightblue" stroke="midnightblue" points="214.649,-575.724 205.404,-570.548 209.404,-580.359 214.649,-575.724"/>
</g>
<!-- Node26 -->
<g id="node26" class="node"><title>Node26</title>
<g id="a_node26"><a xlink:href="../../db/d8c/classMyFunction.html" target="_top" xlink:title="MyFunction">
<polygon fill="white" stroke="black" points="326,-608.5 326,-627.5 394,-627.5 394,-608.5 326,-608.5"/>
<text text-anchor="middle" x="360" y="-615.5" font-family="Helvetica,sans-Serif" font-size="10.00">MyFunction</text>
</a>
</g>
</g>
<!-- Node22&#45;&gt;Node26 -->
<g id="edge25" class="edge"><title>Node22&#45;&gt;Node26</title>
<path fill="none" stroke="midnightblue" d="M225.545,-574.942C242,-582.746 263.356,-592.236 283,-599 296.76,-603.738 312.294,-607.834 325.716,-610.998"/>
<polygon fill="midnightblue" stroke="midnightblue" points="227.001,-571.759 216.473,-570.575 223.965,-578.066 227.001,-571.759"/>
</g>
<!-- Node27 -->
<g id="node27" class="node"><title>Node27</title>
<g id="a_node27"><a xlink:href="../../db/da4/classocra_1_1DotProductFunction.html" target="_top" xlink:title="DotProductFunction class. ">
<polygon fill="white" stroke="black" points="296,-570.5 296,-589.5 424,-589.5 424,-570.5 296,-570.5"/>
<text text-anchor="middle" x="360" y="-577.5" font-family="Helvetica,sans-Serif" font-size="10.00">ocra::DotProductFunction</text>
</a>
</g>
</g>
<!-- Node22&#45;&gt;Node27 -->
<g id="edge26" class="edge"><title>Node22&#45;&gt;Node27</title>
<path fill="none" stroke="midnightblue" d="M246.128,-566.721C261.727,-568.556 279.236,-570.616 295.724,-572.556"/>
<polygon fill="midnightblue" stroke="midnightblue" points="246.524,-563.243 236.183,-565.551 245.706,-570.196 246.524,-563.243"/>
</g>
<!-- Node28 -->
<g id="node28" class="node"><title>Node28</title>
<g id="a_node28"><a xlink:href="../../de/d3a/classocra_1_1LinearFunction.html" target="_top" xlink:title="LinearFunction class. ">
<polygon fill="white" stroke="red" points="307.5,-532.5 307.5,-551.5 412.5,-551.5 412.5,-532.5 307.5,-532.5"/>
<text text-anchor="middle" x="360" y="-539.5" font-family="Helvetica,sans-Serif" font-size="10.00">ocra::LinearFunction</text>
</a>
</g>
</g>
<!-- Node22&#45;&gt;Node28 -->
<g id="edge27" class="edge"><title>Node22&#45;&gt;Node28</title>
<path fill="none" stroke="midnightblue" d="M246.297,-555.259C265.64,-552.984 287.898,-550.365 307.499,-548.059"/>
<polygon fill="midnightblue" stroke="midnightblue" points="245.706,-551.805 236.183,-556.449 246.524,-558.757 245.706,-551.805"/>
</g>
<!-- Node32 -->
<g id="node32" class="node"><title>Node32</title>
<g id="a_node32"><a xlink:href="../../dd/d93/classocra_1_1Pb114G10.html" target="_top" xlink:title="ocra::Pb114G10">
<polygon fill="white" stroke="black" points="316.5,-494.5 316.5,-513.5 403.5,-513.5 403.5,-494.5 316.5,-494.5"/>
<text text-anchor="middle" x="360" y="-501.5" font-family="Helvetica,sans-Serif" font-size="10.00">ocra::Pb114G10</text>
</a>
</g>
</g>
<!-- Node22&#45;&gt;Node32 -->
<g id="edge31" class="edge"><title>Node22&#45;&gt;Node32</title>
<path fill="none" stroke="midnightblue" d="M225.545,-547.058C242,-539.254 263.356,-529.764 283,-523 293.673,-519.325 305.415,-516.036 316.41,-513.268"/>
<polygon fill="midnightblue" stroke="midnightblue" points="223.965,-543.934 216.473,-551.425 227.001,-550.241 223.965,-543.934"/>
</g>
<!-- Node33 -->
<g id="node33" class="node"><title>Node33</title>
<g id="a_node33"><a xlink:href="../../da/d6c/classocra_1_1Pb114G11.html" target="_top" xlink:title="ocra::Pb114G11">
<polygon fill="white" stroke="black" points="316.5,-456.5 316.5,-475.5 403.5,-475.5 403.5,-456.5 316.5,-456.5"/>
<text text-anchor="middle" x="360" y="-463.5" font-family="Helvetica,sans-Serif" font-size="10.00">ocra::Pb114G11</text>
</a>
</g>
</g>
<!-- Node22&#45;&gt;Node33 -->
<g id="edge32" class="edge"><title>Node22&#45;&gt;Node33</title>
<path fill="none" stroke="midnightblue" d="M212.237,-543.72C228.012,-526.324 254.626,-499.982 283,-485 293.223,-479.602 305.036,-475.694 316.256,-472.882"/>
<polygon fill="midnightblue" stroke="midnightblue" points="209.404,-541.641 205.404,-551.452 214.649,-546.276 209.404,-541.641"/>
</g>
<!-- Node34 -->
<g id="node34" class="node"><title>Node34</title>
<g id="a_node34"><a xlink:href="../../d9/df1/classocra_1_1Pb114G5.html" target="_top" xlink:title="ocra::Pb114G5">
<polygon fill="white" stroke="black" points="319,-418.5 319,-437.5 401,-437.5 401,-418.5 319,-418.5"/>
<text text-anchor="middle" x="360" y="-425.5" font-family="Helvetica,sans-Serif" font-size="10.00">ocra::Pb114G5</text>
</a>
</g>
</g>
<!-- Node22&#45;&gt;Node34 -->
<g id="edge33" class="edge"><title>Node22&#45;&gt;Node34</title>
<path fill="none" stroke="midnightblue" d="M206.38,-542.244C219.477,-516.674 246.428,-471.283 283,-447 293.537,-440.004 306.448,-435.583 318.618,-432.79"/>
<polygon fill="midnightblue" stroke="midnightblue" points="203.206,-540.769 201.907,-551.284 209.479,-543.874 203.206,-540.769"/>
</g>
<!-- Node35 -->
<g id="node35" class="node"><title>Node35</title>
<g id="a_node35"><a xlink:href="../../d9/d7e/classocra_1_1QuadraticFunction.html" target="_top" xlink:title="QuadraticFunction class. ">
<polygon fill="white" stroke="red" points="299.5,-380.5 299.5,-399.5 420.5,-399.5 420.5,-380.5 299.5,-380.5"/>
<text text-anchor="middle" x="360" y="-387.5" font-family="Helvetica,sans-Serif" font-size="10.00">ocra::QuadraticFunction</text>
</a>
</g>
</g>
<!-- Node22&#45;&gt;Node35 -->
<g id="edge34" class="edge"><title>Node22&#45;&gt;Node35</title>
<path fill="none" stroke="midnightblue" d="M202.85,-541.714C212.907,-509.157 237.799,-443.483 283,-409 288.082,-405.123 293.86,-402.029 299.907,-399.561"/>
<polygon fill="midnightblue" stroke="midnightblue" points="199.467,-540.811 200,-551.392 206.182,-542.788 199.467,-540.811"/>
</g>
<!-- Node36 -->
<g id="node36" class="node"><title>Node36</title>
<g id="a_node36"><a xlink:href="../../df/d5a/classocra_1_1SubtractionFunction.html" target="_top" xlink:title="SubtractionFunction class. ">
<polygon fill="white" stroke="black" points="296,-342.5 296,-361.5 424,-361.5 424,-342.5 296,-342.5"/>
<text text-anchor="middle" x="360" y="-349.5" font-family="Helvetica,sans-Serif" font-size="10.00">ocra::SubtractionFunction</text>
</a>
</g>
</g>
<!-- Node22&#45;&gt;Node36 -->
<g id="edge35" class="edge"><title>Node22&#45;&gt;Node36</title>
<path fill="none" stroke="midnightblue" d="M204.995,-541.888C223.12,-496.056 268.874,-382.813 283,-371 287.591,-367.161 292.848,-364.081 298.408,-361.611"/>
<polygon fill="midnightblue" stroke="midnightblue" points="201.699,-540.704 201.29,-551.291 208.212,-543.27 201.699,-540.704"/>
</g>
<!-- Node29 -->
<g id="node29" class="node"><title>Node29</title>
<g id="a_node29"><a xlink:href="../../d4/d45/classocra_1_1ContactAvoidanceFunction.html" target="_top" xlink:title="Create a linear function that represents the joint limit function. ">
<polygon fill="white" stroke="red" points="473,-570.5 473,-589.5 632,-589.5 632,-570.5 473,-570.5"/>
<text text-anchor="middle" x="552.5" y="-577.5" font-family="Helvetica,sans-Serif" font-size="10.00">ocra::ContactAvoidanceFunction</text>
</a>
</g>
</g>
<!-- Node28&#45;&gt;Node29 -->
<g id="edge28" class="edge"><title>Node28&#45;&gt;Node29</title>
<path fill="none" stroke="midnightblue" d="M419.2,-553.61C446.294,-559.014 478.125,-565.364 503.774,-570.48"/>
<polygon fill="midnightblue" stroke="midnightblue" points="419.563,-550.113 409.071,-551.589 418.193,-556.978 419.563,-550.113"/>
</g>
<!-- Node30 -->
<g id="node30" class="node"><title>Node30</title>
<g id="a_node30"><a xlink:href="../../d3/d89/classocra_1_1DiagonalLinearFunction.html" target="_top" xlink:title="DiagonalLinearFunction class. ">
<polygon fill="white" stroke="red" points="481,-532.5 481,-551.5 624,-551.5 624,-532.5 481,-532.5"/>
<text text-anchor="middle" x="552.5" y="-539.5" font-family="Helvetica,sans-Serif" font-size="10.00">ocra::DiagonalLinearFunction</text>
</a>
</g>
</g>
<!-- Node28&#45;&gt;Node30 -->
<g id="edge29" class="edge"><title>Node28&#45;&gt;Node30</title>
<path fill="none" stroke="midnightblue" d="M422.662,-542C441.262,-542 461.822,-542 480.953,-542"/>
<polygon fill="midnightblue" stroke="midnightblue" points="422.552,-538.5 412.552,-542 422.552,-545.5 422.552,-538.5"/>
</g>
<!-- Node31 -->
<g id="node31" class="node"><title>Node31</title>
<g id="a_node31"><a xlink:href="../../d4/d5c/classocra_1_1DoubleDiagonalLinearFunction.html" target="_top" xlink:title="DoubleDiagonalLinearFunction class. ">
<polygon fill="white" stroke="black" points="484,-483 484,-513 621,-513 621,-483 484,-483"/>
<text text-anchor="start" x="492" y="-501" font-family="Helvetica,sans-Serif" font-size="10.00">ocra::DoubleDiagonalLinear</text>
<text text-anchor="middle" x="552.5" y="-490" font-family="Helvetica,sans-Serif" font-size="10.00">Function</text>
</a>
</g>
</g>
<!-- Node28&#45;&gt;Node31 -->
<g id="edge30" class="edge"><title>Node28&#45;&gt;Node31</title>
<path fill="none" stroke="midnightblue" d="M412.146,-530.187C434.935,-524.923 462.048,-518.661 486.274,-513.065"/>
<polygon fill="midnightblue" stroke="midnightblue" points="411.291,-526.792 402.336,-532.453 412.867,-533.612 411.291,-526.792"/>
</g>
<!-- Node38 -->
<g id="node38" class="node"><title>Node38</title>
<g id="a_node38"><a xlink:href="../../d3/d33/classModel3T.html" target="_top" xlink:title="Model3T">
<polygon fill="white" stroke="black" points="333,-304.5 333,-323.5 387,-323.5 387,-304.5 333,-304.5"/>
<text text-anchor="middle" x="360" y="-311.5" font-family="Helvetica,sans-Serif" font-size="10.00">Model3T</text>
</a>
</g>
</g>
<!-- Node37&#45;&gt;Node38 -->
<g id="edge37" class="edge"><title>Node37&#45;&gt;Node38</title>
<path fill="none" stroke="midnightblue" d="M210.368,-401.165C225.521,-381.486 252.521,-350.316 283,-333 298.255,-324.334 317.434,-319.577 332.708,-316.99"/>
<polygon fill="midnightblue" stroke="midnightblue" points="207.463,-399.204 204.269,-409.306 213.066,-403.401 207.463,-399.204"/>
</g>
<!-- Node40 -->
<g id="node40" class="node"><title>Node40</title>
<g id="a_node40"><a xlink:href="../../d1/dc1/classocra_1_1PartialModelState.html" target="_top" xlink:title="A partial state of the model. ">
<polygon fill="white" stroke="black" points="300.5,-266.5 300.5,-285.5 419.5,-285.5 419.5,-266.5 300.5,-266.5"/>
<text text-anchor="middle" x="360" y="-273.5" font-family="Helvetica,sans-Serif" font-size="10.00">ocra::PartialModelState</text>
</a>
</g>
</g>
<!-- Node39&#45;&gt;Node40 -->
<g id="edge39" class="edge"><title>Node39&#45;&gt;Node40</title>
<path fill="none" stroke="midnightblue" d="M253.211,-276C268.429,-276 284.964,-276 300.341,-276"/>
<polygon fill="midnightblue" stroke="midnightblue" points="252.917,-272.5 242.917,-276 252.917,-279.5 252.917,-272.5"/>
</g>
<!-- Node41 -->
<g id="node41" class="node"><title>Node41</title>
<g id="a_node41"><a xlink:href="../../d1/def/classocra_1_1PartialTargetState.html" target="_top" xlink:title="A target for a model partial state. ">
<polygon fill="white" stroke="black" points="300,-228.5 300,-247.5 420,-247.5 420,-228.5 300,-228.5"/>
<text text-anchor="middle" x="360" y="-235.5" font-family="Helvetica,sans-Serif" font-size="10.00">ocra::PartialTargetState</text>
</a>
</g>
</g>
<!-- Node39&#45;&gt;Node41 -->
<g id="edge40" class="edge"><title>Node39&#45;&gt;Node41</title>
<path fill="none" stroke="midnightblue" d="M248.058,-264.104C270.759,-258.763 297.178,-252.546 318.54,-247.52"/>
<polygon fill="midnightblue" stroke="midnightblue" points="247.186,-260.714 238.253,-266.411 248.789,-267.527 247.186,-260.714"/>
</g>
<!-- Node43 -->
<g id="node43" class="node"><title>Node43</title>
<g id="a_node43"><a xlink:href="../../d6/d35/classocra_1_1CascadeQPSolver.html" target="_top" xlink:title="CascadeQPSolver class. ">
<polygon fill="white" stroke="black" points="299,-190.5 299,-209.5 421,-209.5 421,-190.5 299,-190.5"/>
<text text-anchor="middle" x="360" y="-197.5" font-family="Helvetica,sans-Serif" font-size="10.00">ocra::CascadeQPSolver</text>
</a>
</g>
</g>
<!-- Node42&#45;&gt;Node43 -->
<g id="edge42" class="edge"><title>Node42&#45;&gt;Node43</title>
<path fill="none" stroke="midnightblue" d="M225.545,-156.942C242,-164.746 263.356,-174.236 283,-181 293.288,-184.542 304.567,-187.726 315.215,-190.429"/>
<polygon fill="midnightblue" stroke="midnightblue" points="227.001,-153.759 216.473,-152.575 223.965,-160.066 227.001,-153.759"/>
</g>
<!-- Node44 -->
<g id="node44" class="node"><title>Node44</title>
<g id="a_node44"><a xlink:href="../../dc/d6e/classocra_1_1FSQPSolver.html" target="_top" xlink:title="FSQPSolver class. ">
<polygon fill="white" stroke="black" points="312,-152.5 312,-171.5 408,-171.5 408,-152.5 312,-152.5"/>
<text text-anchor="middle" x="360" y="-159.5" font-family="Helvetica,sans-Serif" font-size="10.00">ocra::FSQPSolver</text>
</a>
</g>
</g>
<!-- Node42&#45;&gt;Node44 -->
<g id="edge43" class="edge"><title>Node42&#45;&gt;Node44</title>
<path fill="none" stroke="midnightblue" d="M241.329,-148.156C263.116,-150.719 289.472,-153.82 311.714,-156.437"/>
<polygon fill="midnightblue" stroke="midnightblue" points="241.696,-144.675 231.356,-146.983 240.878,-151.628 241.696,-144.675"/>
</g>
<!-- Node45 -->
<g id="node45" class="node"><title>Node45</title>
<g id="a_node45"><a xlink:href="../../d2/d07/classocra_1_1NewtonSolver.html" target="_top" xlink:title="NewtonSolver class. ">
<polygon fill="white" stroke="black" points="308.5,-114.5 308.5,-133.5 411.5,-133.5 411.5,-114.5 308.5,-114.5"/>
<text text-anchor="middle" x="360" y="-121.5" font-family="Helvetica,sans-Serif" font-size="10.00">ocra::NewtonSolver</text>
</a>
</g>
</g>
<!-- Node42&#45;&gt;Node45 -->
<g id="edge44" class="edge"><title>Node42&#45;&gt;Node45</title>
<path fill="none" stroke="midnightblue" d="M241.443,-137.83C262.105,-135.399 286.858,-132.487 308.31,-129.964"/>
<polygon fill="midnightblue" stroke="midnightblue" points="240.878,-134.372 231.356,-139.017 241.696,-141.325 240.878,-134.372"/>
</g>
<!-- Node46 -->
<g id="node46" class="node"><title>Node46</title>
<g id="a_node46"><a xlink:href="../../d2/d5e/classocra_1_1OneLevelSolver.html" target="_top" xlink:title="A generic abstract class the solvers that can be used in the wOcra Controller. ">
<polygon fill="white" stroke="red" points="305,-76.5 305,-95.5 415,-95.5 415,-76.5 305,-76.5"/>
<text text-anchor="middle" x="360" y="-83.5" font-family="Helvetica,sans-Serif" font-size="10.00">ocra::OneLevelSolver</text>
</a>
</g>
</g>
<!-- Node42&#45;&gt;Node46 -->
<g id="edge45" class="edge"><title>Node42&#45;&gt;Node46</title>
<path fill="none" stroke="midnightblue" d="M225.545,-129.058C242,-121.254 263.356,-111.764 283,-105 293.288,-101.458 304.567,-98.274 315.215,-95.5705"/>
<polygon fill="midnightblue" stroke="midnightblue" points="223.965,-125.934 216.473,-133.425 227.001,-132.241 223.965,-125.934"/>
</g>
<!-- Node47 -->
<g id="node47" class="node"><title>Node47</title>
<g id="a_node47"><a xlink:href="../../d7/dab/classocra_1_1QuadraticSolver.html" target="_top" xlink:title="QuadraticSolver class. ">
<polygon fill="white" stroke="red" points="304.5,-38.5 304.5,-57.5 415.5,-57.5 415.5,-38.5 304.5,-38.5"/>
<text text-anchor="middle" x="360" y="-45.5" font-family="Helvetica,sans-Serif" font-size="10.00">ocra::QuadraticSolver</text>
</a>
</g>
</g>
<!-- Node42&#45;&gt;Node47 -->
<g id="edge46" class="edge"><title>Node42&#45;&gt;Node47</title>
<path fill="none" stroke="midnightblue" d="M212.237,-125.72C228.012,-108.324 254.626,-81.9821 283,-67 290.336,-63.1262 298.492,-60.0198 306.659,-57.5349"/>
<polygon fill="midnightblue" stroke="midnightblue" points="209.404,-123.641 205.404,-133.452 214.649,-128.276 209.404,-123.641"/>
</g>
<!-- Node49 -->
<g id="node49" class="node"><title>Node49</title>
<g id="a_node49"><a xlink:href="../../d2/d46/classgocra_1_1GHCJTTask.html" target="_top" xlink:title="A generic abstract task for the GHCJT controller. ">
<polygon fill="white" stroke="black" points="309,-0.5 309,-19.5 411,-19.5 411,-0.5 309,-0.5"/>
<text text-anchor="middle" x="360" y="-7.5" font-family="Helvetica,sans-Serif" font-size="10.00">gocra::GHCJTTask</text>
</a>
</g>
</g>
<!-- Node48&#45;&gt;Node49 -->
<g id="edge48" class="edge"><title>Node48&#45;&gt;Node49</title>
<path fill="none" stroke="midnightblue" d="M238.018,-38.4663C262.643,-32.6723 293.972,-25.3007 318.579,-19.5109"/>
<polygon fill="midnightblue" stroke="midnightblue" points="237.19,-35.0656 228.257,-40.763 238.793,-41.8795 237.19,-35.0656"/>
</g>
</g>
</svg>
