<?xml version="1.0" encoding="UTF-8" standalone="no"?>
<!DOCTYPE svg PUBLIC "-//W3C//DTD SVG 1.1//EN"
 "http://www.w3.org/Graphics/SVG/1.1/DTD/svg11.dtd">
<!-- Generated by graphviz version 2.38.0 (20140413.2041)
 -->
<!-- Title: HocraController.h Pages: 1 -->
<svg width="231pt" height="140pt"
 viewBox="0.00 0.00 231.00 140.00" xmlns="http://www.w3.org/2000/svg" xmlns:xlink="http://www.w3.org/1999/xlink">
<g id="graph0" class="graph" transform="scale(1 1) rotate(0) translate(4 136)">
<title>HocraController.h</title>
<polygon fill="white" stroke="none" points="-4,4 -4,-136 227,-136 227,4 -4,4"/>
<!-- Node1 -->
<g id="node1" class="node"><title>Node1</title>
<polygon fill="#bfbfbf" stroke="black" points="64.5,-112.5 64.5,-131.5 157.5,-131.5 157.5,-112.5 64.5,-112.5"/>
<text text-anchor="middle" x="111" y="-119.5" font-family="Helvetica,sans-Serif" font-size="10.00">HocraController.h</text>
</g>
<!-- Node2 -->
<g id="node2" class="node"><title>Node2</title>
<g id="a_node2"><a xlink:href="../../d9/d62/HocraController_8cpp.html" target="_top" xlink:title="HocraController.cpp">
<polygon fill="white" stroke="black" points="0,-56.5 0,-75.5 104,-75.5 104,-56.5 0,-56.5"/>
<text text-anchor="middle" x="52" y="-63.5" font-family="Helvetica,sans-Serif" font-size="10.00">HocraController.cpp</text>
</a>
</g>
</g>
<!-- Node1&#45;&gt;Node2 -->
<g id="edge1" class="edge"><title>Node1&#45;&gt;Node2</title>
<path fill="none" stroke="midnightblue" d="M94.1055,-105.537C83.5855,-95.9087 70.4313,-83.8694 61.6519,-75.8339"/>
<polygon fill="midnightblue" stroke="midnightblue" points="91.7808,-108.154 101.521,-112.324 96.5069,-102.99 91.7808,-108.154"/>
</g>
<!-- Node3 -->
<g id="node3" class="node"><title>Node3</title>
<g id="a_node3"><a xlink:href="../../da/d7c/ControllerServer_8h.html" target="_top" xlink:title="ControllerServer.h">
<polygon fill="white" stroke="black" points="122.5,-56.5 122.5,-75.5 217.5,-75.5 217.5,-56.5 122.5,-56.5"/>
<text text-anchor="middle" x="170" y="-63.5" font-family="Helvetica,sans-Serif" font-size="10.00">ControllerServer.h</text>
</a>
</g>
</g>
<!-- Node1&#45;&gt;Node3 -->
<g id="edge2" class="edge"><title>Node1&#45;&gt;Node3</title>
<path fill="none" stroke="midnightblue" d="M127.895,-105.537C138.415,-95.9087 151.569,-83.8694 160.348,-75.8339"/>
<polygon fill="midnightblue" stroke="midnightblue" points="125.493,-102.99 120.479,-112.324 130.219,-108.154 125.493,-102.99"/>
</g>
<!-- Node4 -->
<g id="node4" class="node"><title>Node4</title>
<g id="a_node4"><a xlink:href="../../d5/dd2/ControllerServer_8cpp.html" target="_top" xlink:title="ControllerServer.cpp">
<polygon fill="white" stroke="black" points="117,-0.5 117,-19.5 223,-19.5 223,-0.5 117,-0.5"/>
<text text-anchor="middle" x="170" y="-7.5" font-family="Helvetica,sans-Serif" font-size="10.00">ControllerServer.cpp</text>
</a>
</g>
</g>
<!-- Node3&#45;&gt;Node4 -->
<g id="edge3" class="edge"><title>Node3&#45;&gt;Node4</title>
<path fill="none" stroke="midnightblue" d="M170,-45.8045C170,-36.9102 170,-26.7798 170,-19.7511"/>
<polygon fill="midnightblue" stroke="midnightblue" points="166.5,-46.083 170,-56.083 173.5,-46.083 166.5,-46.083"/>
</g>
</g>
</svg>
