<?xml version="1.0" encoding="UTF-8" standalone="no"?>
<!DOCTYPE svg PUBLIC "-//W3C//DTD SVG 1.1//EN"
 "http://www.w3.org/Graphics/SVG/1.1/DTD/svg11.dtd">
<!-- Generated by graphviz version 2.38.0 (20140413.2041)
 -->
<!-- Title: RobotState.cpp Pages: 1 -->
<svg width="1802pt" height="386pt"
 viewBox="0.00 0.00 1802.00 386.00" xmlns="http://www.w3.org/2000/svg" xmlns:xlink="http://www.w3.org/1999/xlink">
<g id="graph0" class="graph" transform="scale(1 1) rotate(0) translate(4 382)">
<title>RobotState.cpp</title>
<polygon fill="white" stroke="none" points="-4,4 -4,-382 1798,-382 1798,4 -4,4"/>
<!-- Node1 -->
<g id="node1" class="node"><title>Node1</title>
<polygon fill="#bfbfbf" stroke="black" points="542.5,-358.5 542.5,-377.5 627.5,-377.5 627.5,-358.5 542.5,-358.5"/>
<text text-anchor="middle" x="585" y="-365.5" font-family="Helvetica,sans-Serif" font-size="10.00">RobotState.cpp</text>
</g>
<!-- Node2 -->
<g id="node2" class="node"><title>Node2</title>
<g id="a_node2"><a xlink:href="../../d2/d42/RobotState_8h.html" target="_top" xlink:title="ocra&#45;recipes/RobotState.h">
<polygon fill="white" stroke="black" points="519.5,-302.5 519.5,-321.5 650.5,-321.5 650.5,-302.5 519.5,-302.5"/>
<text text-anchor="middle" x="585" y="-309.5" font-family="Helvetica,sans-Serif" font-size="10.00">ocra&#45;recipes/RobotState.h</text>
</a>
</g>
</g>
<!-- Node1&#45;&gt;Node2 -->
<g id="edge1" class="edge"><title>Node1&#45;&gt;Node2</title>
<path fill="none" stroke="midnightblue" d="M585,-358.083C585,-351.006 585,-340.861 585,-331.986"/>
<polygon fill="midnightblue" stroke="midnightblue" points="588.5,-331.751 585,-321.751 581.5,-331.751 588.5,-331.751"/>
</g>
<!-- Node3 -->
<g id="node3" class="node"><title>Node3</title>
<polygon fill="white" stroke="#bfbfbf" points="0,-246.5 0,-265.5 96,-265.5 96,-246.5 0,-246.5"/>
<text text-anchor="middle" x="48" y="-253.5" font-family="Helvetica,sans-Serif" font-size="10.00">yarp/os/Portable.h</text>
</g>
<!-- Node2&#45;&gt;Node3 -->
<g id="edge2" class="edge"><title>Node2&#45;&gt;Node3</title>
<path fill="none" stroke="midnightblue" d="M519.251,-306.158C428.639,-299.19 260.054,-285.173 106.278,-266.089"/>
<polygon fill="midnightblue" stroke="midnightblue" points="106.529,-262.593 96.1717,-264.825 105.66,-269.539 106.529,-262.593"/>
</g>
<!-- Node4 -->
<g id="node4" class="node"><title>Node4</title>
<polygon fill="white" stroke="#bfbfbf" points="114,-246.5 114,-265.5 250,-265.5 250,-246.5 114,-246.5"/>
<text text-anchor="middle" x="182" y="-253.5" font-family="Helvetica,sans-Serif" font-size="10.00">yarp/os/ConnectionWriter.h</text>
</g>
<!-- Node2&#45;&gt;Node4 -->
<g id="edge3" class="edge"><title>Node2&#45;&gt;Node4</title>
<path fill="none" stroke="midnightblue" d="M521.143,-302.444C448.925,-292.767 331.522,-277.035 255.534,-266.853"/>
<polygon fill="midnightblue" stroke="midnightblue" points="255.934,-263.376 245.558,-265.516 255.004,-270.314 255.934,-263.376"/>
</g>
<!-- Node5 -->
<g id="node5" class="node"><title>Node5</title>
<polygon fill="white" stroke="#bfbfbf" points="268.5,-246.5 268.5,-265.5 409.5,-265.5 409.5,-246.5 268.5,-246.5"/>
<text text-anchor="middle" x="339" y="-253.5" font-family="Helvetica,sans-Serif" font-size="10.00">yarp/os/ConnectionReader.h</text>
</g>
<!-- Node2&#45;&gt;Node5 -->
<g id="edge4" class="edge"><title>Node2&#45;&gt;Node5</title>
<path fill="none" stroke="midnightblue" d="M546.021,-302.444C503.106,-293.023 434.054,-277.866 387.631,-267.675"/>
<polygon fill="midnightblue" stroke="midnightblue" points="388.315,-264.242 377.797,-265.516 386.814,-271.079 388.315,-264.242"/>
</g>
<!-- Node6 -->
<g id="node6" class="node"><title>Node6</title>
<polygon fill="white" stroke="#bfbfbf" points="428,-246.5 428,-265.5 538,-265.5 538,-246.5 428,-246.5"/>
<text text-anchor="middle" x="483" y="-253.5" font-family="Helvetica,sans-Serif" font-size="10.00">yarp/os/PortReader.h</text>
</g>
<!-- Node2&#45;&gt;Node6 -->
<g id="edge5" class="edge"><title>Node2&#45;&gt;Node6</title>
<path fill="none" stroke="midnightblue" d="M568.612,-302.324C552.329,-293.703 527.133,-280.364 508.284,-270.386"/>
<polygon fill="midnightblue" stroke="midnightblue" points="509.823,-267.24 499.347,-265.655 506.548,-273.427 509.823,-267.24"/>
</g>
<!-- Node7 -->
<g id="node7" class="node"><title>Node7</title>
<polygon fill="white" stroke="#bfbfbf" points="527.5,-134.5 527.5,-153.5 600.5,-153.5 600.5,-134.5 527.5,-134.5"/>
<text text-anchor="middle" x="564" y="-141.5" font-family="Helvetica,sans-Serif" font-size="10.00">Eigen/Dense</text>
</g>
<!-- Node2&#45;&gt;Node7 -->
<g id="edge6" class="edge"><title>Node2&#45;&gt;Node7</title>
<path fill="none" stroke="midnightblue" d="M582.258,-302.475C576.874,-285.237 565.09,-244.906 561,-210 559.965,-201.172 560.704,-198.884 561,-190 561.287,-181.383 561.882,-171.854 562.467,-163.791"/>
<polygon fill="midnightblue" stroke="midnightblue" points="565.972,-163.859 563.254,-153.618 558.993,-163.318 565.972,-163.859"/>
</g>
<!-- Node8 -->
<g id="node8" class="node"><title>Node8</title>
<polygon fill="white" stroke="#bfbfbf" points="570,-190.5 570,-209.5 638,-209.5 638,-190.5 570,-190.5"/>
<text text-anchor="middle" x="604" y="-197.5" font-family="Helvetica,sans-Serif" font-size="10.00">Eigen/Lgsm</text>
</g>
<!-- Node2&#45;&gt;Node8 -->
<g id="edge7" class="edge"><title>Node2&#45;&gt;Node8</title>
<path fill="none" stroke="midnightblue" d="M586.491,-302.368C589.557,-284.617 596.63,-243.666 600.788,-219.597"/>
<polygon fill="midnightblue" stroke="midnightblue" points="604.263,-220.041 602.516,-209.591 597.365,-218.85 604.263,-220.041"/>
</g>
<!-- Node9 -->
<g id="node9" class="node"><title>Node9</title>
<g id="a_node9"><a xlink:href="../../d3/d5a/Model_8h.html" target="_top" xlink:title="Declaration file of the Model class. ">
<polygon fill="white" stroke="black" points="983.5,-246.5 983.5,-265.5 1088.5,-265.5 1088.5,-246.5 983.5,-246.5"/>
<text text-anchor="middle" x="1036" y="-253.5" font-family="Helvetica,sans-Serif" font-size="10.00">ocra/control/Model.h</text>
</a>
</g>
</g>
<!-- Node2&#45;&gt;Node9 -->
<g id="edge8" class="edge"><title>Node2&#45;&gt;Node9</title>
<path fill="none" stroke="midnightblue" d="M650.579,-303.148C737.089,-292.79 888.294,-274.685 973.326,-264.504"/>
<polygon fill="midnightblue" stroke="midnightblue" points="973.846,-267.967 983.359,-263.303 973.013,-261.017 973.846,-267.967"/>
</g>
<!-- Node38 -->
<g id="node38" class="node"><title>Node38</title>
<g id="a_node38"><a xlink:href="../../df/d0a/Macros_8h.html" target="_top" xlink:title="ocra/util/Macros.h">
<polygon fill="white" stroke="black" points="1442.5,-190.5 1442.5,-209.5 1537.5,-209.5 1537.5,-190.5 1442.5,-190.5"/>
<text text-anchor="middle" x="1490" y="-197.5" font-family="Helvetica,sans-Serif" font-size="10.00">ocra/util/Macros.h</text>
</a>
</g>
</g>
<!-- Node2&#45;&gt;Node38 -->
<g id="edge56" class="edge"><title>Node2&#45;&gt;Node38</title>
<path fill="none" stroke="midnightblue" d="M650.622,-308.386C769.49,-303.13 1015.74,-289.713 1098,-266 1116.72,-260.604 1118.37,-251.705 1137,-246 1261.03,-208.008 1300.42,-227.539 1432.28,-210.161"/>
<polygon fill="midnightblue" stroke="midnightblue" points="1432.93,-213.606 1442.36,-208.785 1431.98,-206.67 1432.93,-213.606"/>
</g>
<!-- Node42 -->
<g id="node42" class="node"><title>Node42</title>
<g id="a_node42"><a xlink:href="../../d8/d9f/ErrorsHelper_8h.html" target="_top" xlink:title="ocra/util/ErrorsHelper.h">
<polygon fill="white" stroke="black" points="1145.5,-246.5 1145.5,-265.5 1262.5,-265.5 1262.5,-246.5 1145.5,-246.5"/>
<text text-anchor="middle" x="1204" y="-253.5" font-family="Helvetica,sans-Serif" font-size="10.00">ocra/util/ErrorsHelper.h</text>
</a>
</g>
</g>
<!-- Node2&#45;&gt;Node42 -->
<g id="edge57" class="edge"><title>Node2&#45;&gt;Node42</title>
<path fill="none" stroke="midnightblue" d="M650.635,-306.452C753.247,-299.147 957.856,-283.801 1131,-266 1132.47,-265.849 1133.95,-265.693 1135.45,-265.534"/>
<polygon fill="midnightblue" stroke="midnightblue" points="1135.9,-269.006 1145.45,-264.429 1135.13,-262.048 1135.9,-269.006"/>
</g>
<!-- Node43 -->
<g id="node43" class="node"><title>Node43</title>
<polygon fill="white" stroke="#bfbfbf" points="1281,-246.5 1281,-265.5 1367,-265.5 1367,-246.5 1281,-246.5"/>
<text text-anchor="middle" x="1324" y="-253.5" font-family="Helvetica,sans-Serif" font-size="10.00">yarp/os/Bottle.h</text>
</g>
<!-- Node2&#45;&gt;Node43 -->
<g id="edge59" class="edge"><title>Node2&#45;&gt;Node43</title>
<path fill="none" stroke="midnightblue" d="M650.572,-309.018C771.305,-304.864 1037.05,-293.368 1270.87,-266.007"/>
<polygon fill="midnightblue" stroke="midnightblue" points="1271.4,-269.468 1280.92,-264.818 1270.58,-262.516 1271.4,-269.468"/>
</g>
<!-- Node9&#45;&gt;Node8 -->
<g id="edge52" class="edge"><title>Node9&#45;&gt;Node8</title>
<path fill="none" stroke="midnightblue" d="M983.252,-250.436C910.232,-243.779 774.044,-230.14 648.398,-210.097"/>
<polygon fill="midnightblue" stroke="midnightblue" points="648.645,-206.592 638.215,-208.455 647.53,-213.503 648.645,-206.592"/>
</g>
<!-- Node10 -->
<g id="node10" class="node"><title>Node10</title>
<g id="a_node10"><a xlink:href="../../d5/d55/MathTypes_8h.html" target="_top" xlink:title="Declaration file of the OptimizationVariable class. ">
<polygon fill="white" stroke="black" points="784.5,-190.5 784.5,-209.5 895.5,-209.5 895.5,-190.5 784.5,-190.5"/>
<text text-anchor="middle" x="840" y="-197.5" font-family="Helvetica,sans-Serif" font-size="10.00">ocra/util/MathTypes.h</text>
</a>
</g>
</g>
<!-- Node9&#45;&gt;Node10 -->
<g id="edge9" class="edge"><title>Node9&#45;&gt;Node10</title>
<path fill="none" stroke="midnightblue" d="M1004.94,-246.444C971.397,-237.201 917.803,-222.436 880.859,-212.257"/>
<polygon fill="midnightblue" stroke="midnightblue" points="881.482,-208.798 870.911,-209.516 879.623,-215.547 881.482,-208.798"/>
</g>
<!-- Node12 -->
<g id="node12" class="node"><title>Node12</title>
<g id="a_node12"><a xlink:href="../../d8/ddc/ObserverSubject_8h.html" target="_top" xlink:title="Declaration file of the Observer, Subject and ObserverSubject classes. ">
<polygon fill="white" stroke="black" points="913,-134.5 913,-153.5 1059,-153.5 1059,-134.5 913,-134.5"/>
<text text-anchor="middle" x="986" y="-141.5" font-family="Helvetica,sans-Serif" font-size="10.00">ocra/optim/ObserverSubject.h</text>
</a>
</g>
</g>
<!-- Node9&#45;&gt;Node12 -->
<g id="edge12" class="edge"><title>Node9&#45;&gt;Node12</title>
<path fill="none" stroke="midnightblue" d="M1045.84,-246.367C1059.03,-233.703 1079.53,-209.483 1068,-190 1059.03,-174.84 1042.93,-164.448 1027.37,-157.504"/>
<polygon fill="midnightblue" stroke="midnightblue" points="1028.39,-154.143 1017.81,-153.615 1025.75,-160.627 1028.39,-154.143"/>
</g>
<!-- Node23 -->
<g id="node23" class="node"><title>Node23</title>
<g id="a_node23"><a xlink:href="../../d7/d90/Variable_8h.html" target="_top" xlink:title="Declaration file of the Variable class. ">
<polygon fill="white" stroke="black" points="1115.5,-190.5 1115.5,-209.5 1224.5,-209.5 1224.5,-190.5 1115.5,-190.5"/>
<text text-anchor="middle" x="1170" y="-197.5" font-family="Helvetica,sans-Serif" font-size="10.00">ocra/optim/Variable.h</text>
</a>
</g>
</g>
<!-- Node9&#45;&gt;Node23 -->
<g id="edge26" class="edge"><title>Node9&#45;&gt;Node23</title>
<path fill="none" stroke="midnightblue" d="M1057.23,-246.444C1079.38,-237.517 1114.32,-223.439 1139.44,-213.317"/>
<polygon fill="midnightblue" stroke="midnightblue" points="1140.9,-216.501 1148.87,-209.516 1138.28,-210.008 1140.9,-216.501"/>
</g>
<!-- Node33 -->
<g id="node33" class="node"><title>Node33</title>
<polygon fill="white" stroke="#bfbfbf" points="1380.5,-134.5 1380.5,-153.5 1421.5,-153.5 1421.5,-134.5 1380.5,-134.5"/>
<text text-anchor="middle" x="1401" y="-141.5" font-family="Helvetica,sans-Serif" font-size="10.00">string</text>
</g>
<!-- Node9&#45;&gt;Node33 -->
<g id="edge53" class="edge"><title>Node9&#45;&gt;Node33</title>
<path fill="none" stroke="midnightblue" d="M1088.72,-246.73C1129.21,-239.497 1186.13,-227.403 1234,-210 1252.31,-203.345 1255.1,-197.693 1273,-190 1305.67,-175.958 1344.32,-162.828 1370.54,-154.418"/>
<polygon fill="midnightblue" stroke="midnightblue" points="1371.8,-157.689 1380.28,-151.328 1369.69,-151.016 1371.8,-157.689"/>
</g>
<!-- Node34 -->
<g id="node34" class="node"><title>Node34</title>
<g id="a_node34"><a xlink:href="../../df/d97/NamedInstance_8h.html" target="_top" xlink:title="ocra/optim/NamedInstance.h">
<polygon fill="white" stroke="black" points="1281.5,-190.5 1281.5,-209.5 1424.5,-209.5 1424.5,-190.5 1281.5,-190.5"/>
<text text-anchor="middle" x="1353" y="-197.5" font-family="Helvetica,sans-Serif" font-size="10.00">ocra/optim/NamedInstance.h</text>
</a>
</g>
</g>
<!-- Node9&#45;&gt;Node34 -->
<g id="edge44" class="edge"><title>Node9&#45;&gt;Node34</title>
<path fill="none" stroke="midnightblue" d="M1086.23,-246.444C1142.34,-236.885 1233.13,-221.419 1292.95,-211.23"/>
<polygon fill="midnightblue" stroke="midnightblue" points="1293.74,-214.646 1303.01,-209.516 1292.56,-207.745 1293.74,-214.646"/>
</g>
<!-- Node35 -->
<g id="node35" class="node"><title>Node35</title>
<g id="a_node35"><a xlink:href="../../d9/d5d/ModelContacts_8h.html" target="_top" xlink:title="Declaration file of the ModelContacts class. ">
<polygon fill="white" stroke="black" points="913.5,-190.5 913.5,-209.5 1058.5,-209.5 1058.5,-190.5 913.5,-190.5"/>
<text text-anchor="middle" x="986" y="-197.5" font-family="Helvetica,sans-Serif" font-size="10.00">ocra/control/ModelContacts.h</text>
</a>
</g>
</g>
<!-- Node9&#45;&gt;Node35 -->
<g id="edge46" class="edge"><title>Node9&#45;&gt;Node35</title>
<path fill="none" stroke="midnightblue" d="M1027.74,-246.083C1020.54,-238.298 1009.89,-226.801 1001.15,-217.367"/>
<polygon fill="midnightblue" stroke="midnightblue" points="1003.47,-214.711 994.103,-209.751 998.329,-219.467 1003.47,-214.711"/>
</g>
<!-- Node9&#45;&gt;Node38 -->
<g id="edge50" class="edge"><title>Node9&#45;&gt;Node38</title>
<path fill="none" stroke="midnightblue" d="M1088.65,-247.8C1093.5,-247.175 1098.34,-246.566 1103,-246 1246.6,-228.549 1285.61,-229.685 1432.1,-210.201"/>
<polygon fill="midnightblue" stroke="midnightblue" points="1432.92,-213.622 1442.37,-208.825 1431.99,-206.684 1432.92,-213.622"/>
</g>
<!-- Node40 -->
<g id="node40" class="node"><title>Node40</title>
<polygon fill="white" stroke="#bfbfbf" points="1556,-190.5 1556,-209.5 1610,-209.5 1610,-190.5 1556,-190.5"/>
<text text-anchor="middle" x="1583" y="-197.5" font-family="Helvetica,sans-Serif" font-size="10.00">iostream</text>
</g>
<!-- Node9&#45;&gt;Node40 -->
<g id="edge54" class="edge"><title>Node9&#45;&gt;Node40</title>
<path fill="none" stroke="midnightblue" d="M1088.68,-250.293C1104.24,-248.906 1121.31,-247.388 1137,-246 1315.92,-230.173 1364.84,-239.909 1545.84,-209.938"/>
<polygon fill="midnightblue" stroke="midnightblue" points="1546.68,-213.345 1555.97,-208.242 1545.53,-206.442 1546.68,-213.345"/>
</g>
<!-- Node41 -->
<g id="node41" class="node"><title>Node41</title>
<polygon fill="white" stroke="#bfbfbf" points="656,-190.5 656,-209.5 766,-209.5 766,-190.5 656,-190.5"/>
<text text-anchor="middle" x="711" y="-197.5" font-family="Helvetica,sans-Serif" font-size="10.00">yarp/os/Semaphore.h</text>
</g>
<!-- Node9&#45;&gt;Node41 -->
<g id="edge55" class="edge"><title>Node9&#45;&gt;Node41</title>
<path fill="none" stroke="midnightblue" d="M984.503,-246.444C926.856,-236.865 833.51,-221.356 772.188,-211.167"/>
<polygon fill="midnightblue" stroke="midnightblue" points="772.695,-207.703 762.256,-209.516 771.547,-214.608 772.695,-207.703"/>
</g>
<!-- Node10&#45;&gt;Node7 -->
<g id="edge10" class="edge"><title>Node10&#45;&gt;Node7</title>
<path fill="none" stroke="midnightblue" d="M796.267,-190.444C745.679,-180.546 662.718,-164.314 610.845,-154.165"/>
<polygon fill="midnightblue" stroke="midnightblue" points="611.39,-150.706 600.904,-152.22 610.046,-157.575 611.39,-150.706"/>
</g>
<!-- Node11 -->
<g id="node11" class="node"><title>Node11</title>
<polygon fill="white" stroke="#bfbfbf" points="641,-134.5 641,-153.5 685,-153.5 685,-134.5 641,-134.5"/>
<text text-anchor="middle" x="663" y="-141.5" font-family="Helvetica,sans-Serif" font-size="10.00">cmath</text>
</g>
<!-- Node10&#45;&gt;Node11 -->
<g id="edge11" class="edge"><title>Node10&#45;&gt;Node11</title>
<path fill="none" stroke="midnightblue" d="M811.954,-190.444C780.063,-180.714 728.111,-164.864 694.755,-154.688"/>
<polygon fill="midnightblue" stroke="midnightblue" points="695.629,-151.296 685.043,-151.725 693.587,-157.991 695.629,-151.296"/>
</g>
<!-- Node13 -->
<g id="node13" class="node"><title>Node13</title>
<g id="a_node13"><a xlink:href="../../df/d67/ObserverSubjectBase_8h.html" target="_top" xlink:title="Declaration file of the Observer and Subject base classes. ">
<polygon fill="white" stroke="black" points="573,-67.5 573,-97.5 711,-97.5 711,-67.5 573,-67.5"/>
<text text-anchor="start" x="581" y="-85.5" font-family="Helvetica,sans-Serif" font-size="10.00">ocra/optim/ObserverSubject</text>
<text text-anchor="middle" x="642" y="-74.5" font-family="Helvetica,sans-Serif" font-size="10.00">Base.h</text>
</a>
</g>
</g>
<!-- Node12&#45;&gt;Node13 -->
<g id="edge13" class="edge"><title>Node12&#45;&gt;Node13</title>
<path fill="none" stroke="midnightblue" d="M934.668,-134.491C883.448,-125.954 802.219,-112.29 721.68,-98.1057"/>
<polygon fill="midnightblue" stroke="midnightblue" points="721.809,-94.5744 711.353,-96.2832 720.592,-101.468 721.809,-94.5744"/>
</g>
<!-- Node17 -->
<g id="node17" class="node"><title>Node17</title>
<polygon fill="white" stroke="#bfbfbf" points="425,-0.5 425,-30.5 525,-30.5 525,-0.5 425,-0.5"/>
<text text-anchor="start" x="433" y="-18.5" font-family="Helvetica,sans-Serif" font-size="10.00">boost/type_traits/is</text>
<text text-anchor="middle" x="475" y="-7.5" font-family="Helvetica,sans-Serif" font-size="10.00">_class.hpp</text>
</g>
<!-- Node12&#45;&gt;Node17 -->
<g id="edge25" class="edge"><title>Node12&#45;&gt;Node17</title>
<path fill="none" stroke="midnightblue" d="M912.684,-134.939C909.751,-134.621 906.848,-134.307 904,-134 752.92,-117.711 702.534,-160.442 564,-98 534.55,-84.726 508.29,-57.8779 492.061,-38.6216"/>
<polygon fill="midnightblue" stroke="midnightblue" points="494.576,-36.1677 485.537,-30.6402 489.156,-40.5978 494.576,-36.1677"/>
</g>
<!-- Node18 -->
<g id="node18" class="node"><title>Node18</title>
<polygon fill="white" stroke="#bfbfbf" points="835,-0.5 835,-30.5 935,-30.5 935,-0.5 835,-0.5"/>
<text text-anchor="start" x="843" y="-18.5" font-family="Helvetica,sans-Serif" font-size="10.00">boost/type_traits/is</text>
<text text-anchor="middle" x="885" y="-7.5" font-family="Helvetica,sans-Serif" font-size="10.00">_base_of.hpp</text>
</g>
<!-- Node12&#45;&gt;Node18 -->
<g id="edge23" class="edge"><title>Node12&#45;&gt;Node18</title>
<path fill="none" stroke="midnightblue" d="M973.607,-134.36C962.153,-125.966 945.124,-112.408 933,-98 917.975,-80.1452 904.84,-56.9989 896.126,-39.9379"/>
<polygon fill="midnightblue" stroke="midnightblue" points="899.111,-38.0791 891.526,-30.6818 892.842,-41.1946 899.111,-38.0791"/>
</g>
<!-- Node19 -->
<g id="node19" class="node"><title>Node19</title>
<polygon fill="white" stroke="#bfbfbf" points="953.5,-6 953.5,-25 1072.5,-25 1072.5,-6 953.5,-6"/>
<text text-anchor="middle" x="1013" y="-13" font-family="Helvetica,sans-Serif" font-size="10.00">boost/static_assert.hpp</text>
</g>
<!-- Node12&#45;&gt;Node19 -->
<g id="edge22" class="edge"><title>Node12&#45;&gt;Node19</title>
<path fill="none" stroke="midnightblue" d="M973.219,-134.369C962.606,-126.36 948.269,-113.379 942,-98 936.799,-85.2416 935.683,-79.2444 942,-67 950.557,-50.4127 967.36,-38.0833 982.472,-29.7607"/>
<polygon fill="midnightblue" stroke="midnightblue" points="984.272,-32.7711 991.573,-25.0943 981.078,-26.5421 984.272,-32.7711"/>
</g>
<!-- Node21 -->
<g id="node21" class="node"><title>Node21</title>
<g id="a_node21"><a xlink:href="../../db/ddf/ocra__events_8h.html" target="_top" xlink:title="ocra/optim/ocra_events.h">
<polygon fill="white" stroke="black" points="729.5,-73 729.5,-92 856.5,-92 856.5,-73 729.5,-73"/>
<text text-anchor="middle" x="793" y="-80" font-family="Helvetica,sans-Serif" font-size="10.00">ocra/optim/ocra_events.h</text>
</a>
</g>
</g>
<!-- Node12&#45;&gt;Node21 -->
<g id="edge21" class="edge"><title>Node12&#45;&gt;Node21</title>
<path fill="none" stroke="midnightblue" d="M958.348,-134.475C924.812,-124.136 868.127,-106.661 830.632,-95.1017"/>
<polygon fill="midnightblue" stroke="midnightblue" points="831.188,-91.6106 820.601,-92.0091 829.126,-98.2999 831.188,-91.6106"/>
</g>
<!-- Node22 -->
<g id="node22" class="node"><title>Node22</title>
<polygon fill="white" stroke="#bfbfbf" points="951,-67.5 951,-97.5 1051,-97.5 1051,-67.5 951,-67.5"/>
<text text-anchor="start" x="959" y="-85.5" font-family="Helvetica,sans-Serif" font-size="10.00">boost/type_traits/is</text>
<text text-anchor="middle" x="1001" y="-74.5" font-family="Helvetica,sans-Serif" font-size="10.00">_convertible.hpp</text>
</g>
<!-- Node12&#45;&gt;Node22 -->
<g id="edge24" class="edge"><title>Node12&#45;&gt;Node22</title>
<path fill="none" stroke="midnightblue" d="M988.149,-134.475C989.934,-127.396 992.562,-116.97 994.977,-107.39"/>
<polygon fill="midnightblue" stroke="midnightblue" points="998.414,-108.075 997.465,-97.523 991.626,-106.364 998.414,-108.075"/>
</g>
<!-- Node14 -->
<g id="node14" class="node"><title>Node14</title>
<polygon fill="white" stroke="#bfbfbf" points="543.5,-6 543.5,-25 602.5,-25 602.5,-6 543.5,-6"/>
<text text-anchor="middle" x="573" y="-13" font-family="Helvetica,sans-Serif" font-size="10.00">functional</text>
</g>
<!-- Node13&#45;&gt;Node14 -->
<g id="edge14" class="edge"><title>Node13&#45;&gt;Node14</title>
<path fill="none" stroke="midnightblue" d="M627.028,-67.396C616.056,-57.0604 601.156,-43.0237 589.782,-32.309"/>
<polygon fill="midnightblue" stroke="midnightblue" points="591.908,-29.5039 582.23,-25.1945 587.109,-34.5991 591.908,-29.5039"/>
</g>
<!-- Node15 -->
<g id="node15" class="node"><title>Node15</title>
<polygon fill="white" stroke="#bfbfbf" points="1253,-6 1253,-25 1309,-25 1309,-6 1253,-6"/>
<text text-anchor="middle" x="1281" y="-13" font-family="Helvetica,sans-Serif" font-size="10.00">algorithm</text>
</g>
<!-- Node13&#45;&gt;Node15 -->
<g id="edge15" class="edge"><title>Node13&#45;&gt;Node15</title>
<path fill="none" stroke="midnightblue" d="M711.304,-68.4086C714.578,-67.907 717.822,-67.434 721,-67 822.441,-53.1462 1133.63,-28.0898 1242.73,-19.491"/>
<polygon fill="midnightblue" stroke="midnightblue" points="1243.24,-22.9613 1252.94,-18.6878 1242.69,-15.9829 1243.24,-22.9613"/>
</g>
<!-- Node16 -->
<g id="node16" class="node"><title>Node16</title>
<polygon fill="white" stroke="#bfbfbf" points="621,-6 621,-25 699,-25 699,-6 621,-6"/>
<text text-anchor="middle" x="660" y="-13" font-family="Helvetica,sans-Serif" font-size="10.00">boost/any.hpp</text>
</g>
<!-- Node13&#45;&gt;Node16 -->
<g id="edge16" class="edge"><title>Node13&#45;&gt;Node16</title>
<path fill="none" stroke="midnightblue" d="M645.906,-67.396C648.546,-57.8631 652.057,-45.1818 654.915,-34.8624"/>
<polygon fill="midnightblue" stroke="midnightblue" points="658.296,-35.7659 657.592,-25.1945 651.55,-33.8977 658.296,-35.7659"/>
</g>
<!-- Node13&#45;&gt;Node17 -->
<g id="edge17" class="edge"><title>Node13&#45;&gt;Node17</title>
<path fill="none" stroke="midnightblue" d="M605.763,-67.396C580.816,-57.6858 547.475,-44.7088 520.704,-34.2889"/>
<polygon fill="midnightblue" stroke="midnightblue" points="521.754,-30.9421 511.166,-30.5765 519.215,-37.4654 521.754,-30.9421"/>
</g>
<!-- Node13&#45;&gt;Node18 -->
<g id="edge18" class="edge"><title>Node13&#45;&gt;Node18</title>
<path fill="none" stroke="midnightblue" d="M694.428,-67.476C732.758,-57.2233 784.82,-43.2971 824.843,-32.5913"/>
<polygon fill="midnightblue" stroke="midnightblue" points="825.988,-35.9083 834.744,-29.9431 824.179,-29.1461 825.988,-35.9083"/>
</g>
<!-- Node13&#45;&gt;Node19 -->
<g id="edge19" class="edge"><title>Node13&#45;&gt;Node19</title>
<path fill="none" stroke="midnightblue" d="M711.347,-68.6847C714.609,-68.1093 717.839,-67.5451 721,-67 819.934,-49.937 845.293,-49.3283 944,-31 950.55,-29.7838 957.433,-28.4294 964.212,-27.0506"/>
<polygon fill="midnightblue" stroke="midnightblue" points="964.933,-30.4757 974.018,-25.0261 963.517,-23.6203 964.933,-30.4757"/>
</g>
<!-- Node20 -->
<g id="node20" class="node"><title>Node20</title>
<polygon fill="white" stroke="#bfbfbf" points="717,-0.5 717,-30.5 817,-30.5 817,-0.5 717,-0.5"/>
<text text-anchor="start" x="725" y="-18.5" font-family="Helvetica,sans-Serif" font-size="10.00">boost/ptr_container</text>
<text text-anchor="middle" x="767" y="-7.5" font-family="Helvetica,sans-Serif" font-size="10.00">/ptr_vector.hpp</text>
</g>
<!-- Node13&#45;&gt;Node20 -->
<g id="edge20" class="edge"><title>Node13&#45;&gt;Node20</title>
<path fill="none" stroke="midnightblue" d="M669.123,-67.396C687.223,-57.9839 711.226,-45.5026 730.931,-35.2557"/>
<polygon fill="midnightblue" stroke="midnightblue" points="732.672,-38.2953 739.93,-30.5765 729.443,-32.0848 732.672,-38.2953"/>
</g>
<!-- Node23&#45;&gt;Node12 -->
<g id="edge27" class="edge"><title>Node23&#45;&gt;Node12</title>
<path fill="none" stroke="midnightblue" d="M1140.84,-190.444C1109.49,-181.241 1059.47,-166.562 1024.8,-156.388"/>
<polygon fill="midnightblue" stroke="midnightblue" points="1025.6,-152.974 1015.02,-153.516 1023.63,-159.691 1025.6,-152.974"/>
</g>
<!-- Node24 -->
<g id="node24" class="node"><title>Node24</title>
<g id="a_node24"><a xlink:href="../../d1/de6/Composite_8h.html" target="_top" xlink:title="Utility classes and functions to implement the Composite design pattern. ">
<polygon fill="white" stroke="black" points="1164.5,-134.5 1164.5,-153.5 1285.5,-153.5 1285.5,-134.5 1164.5,-134.5"/>
<text text-anchor="middle" x="1225" y="-141.5" font-family="Helvetica,sans-Serif" font-size="10.00">ocra/optim/Composite.h</text>
</a>
</g>
</g>
<!-- Node23&#45;&gt;Node24 -->
<g id="edge28" class="edge"><title>Node23&#45;&gt;Node24</title>
<path fill="none" stroke="midnightblue" d="M1179.08,-190.083C1187.17,-182.141 1199.2,-170.335 1208.91,-160.797"/>
<polygon fill="midnightblue" stroke="midnightblue" points="1211.4,-163.254 1216.09,-153.751 1206.5,-158.26 1211.4,-163.254"/>
</g>
<!-- Node27 -->
<g id="node27" class="node"><title>Node27</title>
<polygon fill="white" stroke="#bfbfbf" points="1614.5,-73 1614.5,-92 1731.5,-92 1731.5,-73 1614.5,-73"/>
<text text-anchor="middle" x="1673" y="-80" font-family="Helvetica,sans-Serif" font-size="10.00">boost/noncopyable.hpp</text>
</g>
<!-- Node23&#45;&gt;Node27 -->
<g id="edge41" class="edge"><title>Node23&#45;&gt;Node27</title>
<path fill="none" stroke="midnightblue" d="M1196.11,-190.363C1221.58,-181.761 1261.3,-167.87 1295,-154 1314.49,-145.978 1317.77,-139.915 1338,-134 1453.35,-100.275 1487.62,-118.727 1606,-98 1612.62,-96.8416 1619.57,-95.4892 1626.39,-94.0847"/>
<polygon fill="midnightblue" stroke="midnightblue" points="1627.18,-97.496 1636.24,-92.0061 1625.74,-90.6469 1627.18,-97.496"/>
</g>
<!-- Node29 -->
<g id="node29" class="node"><title>Node29</title>
<polygon fill="white" stroke="#bfbfbf" points="1750,-73 1750,-92 1794,-92 1794,-73 1750,-73"/>
<text text-anchor="middle" x="1772" y="-80" font-family="Helvetica,sans-Serif" font-size="10.00">vector</text>
</g>
<!-- Node23&#45;&gt;Node29 -->
<g id="edge43" class="edge"><title>Node23&#45;&gt;Node29</title>
<path fill="none" stroke="midnightblue" d="M1207.11,-190.468C1239.91,-182.48 1288.81,-169.473 1330,-154 1349.35,-146.73 1352.08,-139.531 1372,-134 1530.77,-89.9156 1582.08,-141.536 1741,-98 1742.93,-97.4702 1744.9,-96.8281 1746.85,-96.1124"/>
<polygon fill="midnightblue" stroke="midnightblue" points="1748.47,-99.2278 1756.31,-92.1015 1745.73,-92.7833 1748.47,-99.2278"/>
</g>
<!-- Node32 -->
<g id="node32" class="node"><title>Node32</title>
<polygon fill="white" stroke="#bfbfbf" points="1077.5,-134.5 1077.5,-153.5 1146.5,-153.5 1146.5,-134.5 1077.5,-134.5"/>
<text text-anchor="middle" x="1112" y="-141.5" font-family="Helvetica,sans-Serif" font-size="10.00">Eigen/Eigen</text>
</g>
<!-- Node23&#45;&gt;Node32 -->
<g id="edge40" class="edge"><title>Node23&#45;&gt;Node32</title>
<path fill="none" stroke="midnightblue" d="M1160.68,-190.324C1152.11,-182.341 1139.19,-170.313 1128.81,-160.653"/>
<polygon fill="midnightblue" stroke="midnightblue" points="1131.19,-158.086 1121.49,-153.834 1126.42,-163.21 1131.19,-158.086"/>
</g>
<!-- Node23&#45;&gt;Node33 -->
<g id="edge42" class="edge"><title>Node23&#45;&gt;Node33</title>
<path fill="none" stroke="midnightblue" d="M1208.38,-190.499C1247.94,-181.662 1311.38,-167.289 1366,-154 1367.45,-153.648 1368.93,-153.283 1370.42,-152.912"/>
<polygon fill="midnightblue" stroke="midnightblue" points="1371.46,-156.261 1380.29,-150.419 1369.74,-149.474 1371.46,-156.261"/>
</g>
<!-- Node24&#45;&gt;Node15 -->
<g id="edge37" class="edge"><title>Node24&#45;&gt;Node15</title>
<path fill="none" stroke="midnightblue" d="M1278.09,-134.483C1333.87,-124.996 1414.82,-109.483 1424,-98 1456.19,-57.7136 1371.93,-33.725 1319.41,-23.0766"/>
<polygon fill="midnightblue" stroke="midnightblue" points="1319.85,-19.5979 1309.37,-21.1239 1318.52,-26.4691 1319.85,-19.5979"/>
</g>
<!-- Node24&#45;&gt;Node18 -->
<g id="edge33" class="edge"><title>Node24&#45;&gt;Node18</title>
<path fill="none" stroke="midnightblue" d="M1186.44,-134.49C1159.07,-127.372 1122.15,-115.529 1093,-98 1075.75,-87.6306 1077.49,-76.9559 1060,-67 1049.71,-61.1394 991.508,-44.8382 945.01,-32.3264"/>
<polygon fill="midnightblue" stroke="midnightblue" points="945.853,-28.9287 935.287,-29.7192 944.04,-35.6898 945.853,-28.9287"/>
</g>
<!-- Node24&#45;&gt;Node19 -->
<g id="edge32" class="edge"><title>Node24&#45;&gt;Node19</title>
<path fill="none" stroke="midnightblue" d="M1206.39,-134.427C1188.29,-125.871 1160.21,-112.014 1137,-98 1116.52,-85.6347 1112.9,-80.2778 1093,-67 1073.93,-54.2732 1051.87,-40.4094 1035.75,-30.4333"/>
<polygon fill="midnightblue" stroke="midnightblue" points="1037.36,-27.3159 1027.01,-25.0467 1033.69,-33.2744 1037.36,-27.3159"/>
</g>
<!-- Node24&#45;&gt;Node22 -->
<g id="edge34" class="edge"><title>Node24&#45;&gt;Node22</title>
<path fill="none" stroke="midnightblue" d="M1192.91,-134.475C1158.64,-125.372 1103.54,-110.737 1061.15,-99.4783"/>
<polygon fill="midnightblue" stroke="midnightblue" points="1061.79,-96.0248 1051.22,-96.8402 1059.99,-102.79 1061.79,-96.0248"/>
</g>
<!-- Node25 -->
<g id="node25" class="node"><title>Node25</title>
<g id="a_node25"><a xlink:href="../../de/df3/ocra__assert_8h.html" target="_top" xlink:title="ocra/optim/ocra_assert.h">
<polygon fill="white" stroke="black" points="1471.5,-73 1471.5,-92 1596.5,-92 1596.5,-73 1471.5,-73"/>
<text text-anchor="middle" x="1534" y="-80" font-family="Helvetica,sans-Serif" font-size="10.00">ocra/optim/ocra_assert.h</text>
</a>
</g>
</g>
<!-- Node24&#45;&gt;Node25 -->
<g id="edge29" class="edge"><title>Node24&#45;&gt;Node25</title>
<path fill="none" stroke="midnightblue" d="M1269.27,-134.475C1324.8,-123.783 1419.97,-105.458 1479.8,-93.9374"/>
<polygon fill="midnightblue" stroke="midnightblue" points="1480.65,-97.3369 1489.81,-92.0091 1479.33,-90.4631 1480.65,-97.3369"/>
</g>
<!-- Node24&#45;&gt;Node27 -->
<g id="edge31" class="edge"><title>Node24&#45;&gt;Node27</title>
<path fill="none" stroke="midnightblue" d="M1285.58,-135.718C1290.46,-135.135 1295.31,-134.557 1300,-134 1435.98,-117.842 1470.92,-120.509 1606,-98 1612.7,-96.8828 1619.75,-95.5425 1626.66,-94.1341"/>
<polygon fill="midnightblue" stroke="midnightblue" points="1627.55,-97.5236 1636.61,-92.0402 1626.1,-90.6735 1627.55,-97.5236"/>
</g>
<!-- Node28 -->
<g id="node28" class="node"><title>Node28</title>
<polygon fill="white" stroke="#bfbfbf" points="1145.5,-67.5 1145.5,-97.5 1274.5,-97.5 1274.5,-67.5 1145.5,-67.5"/>
<text text-anchor="start" x="1153.5" y="-85.5" font-family="Helvetica,sans-Serif" font-size="10.00">boost/type_traits/has</text>
<text text-anchor="middle" x="1210" y="-74.5" font-family="Helvetica,sans-Serif" font-size="10.00">_nothrow_constructor.hpp</text>
</g>
<!-- Node24&#45;&gt;Node28 -->
<g id="edge35" class="edge"><title>Node24&#45;&gt;Node28</title>
<path fill="none" stroke="midnightblue" d="M1222.85,-134.475C1221.07,-127.396 1218.44,-116.97 1216.02,-107.39"/>
<polygon fill="midnightblue" stroke="midnightblue" points="1219.37,-106.364 1213.54,-97.523 1212.59,-108.075 1219.37,-106.364"/>
</g>
<!-- Node24&#45;&gt;Node29 -->
<g id="edge36" class="edge"><title>Node24&#45;&gt;Node29</title>
<path fill="none" stroke="midnightblue" d="M1285.71,-137.984C1419.76,-126.87 1730.12,-100.921 1741,-98 1742.94,-97.4801 1744.9,-96.8453 1746.85,-96.1349"/>
<polygon fill="midnightblue" stroke="midnightblue" points="1748.47,-99.2526 1756.32,-92.1349 1745.74,-92.8051 1748.47,-99.2526"/>
</g>
<!-- Node30 -->
<g id="node30" class="node"><title>Node30</title>
<polygon fill="white" stroke="#bfbfbf" points="1292.5,-73 1292.5,-92 1337.5,-92 1337.5,-73 1292.5,-73"/>
<text text-anchor="middle" x="1315" y="-80" font-family="Helvetica,sans-Serif" font-size="10.00">iosfwd</text>
</g>
<!-- Node24&#45;&gt;Node30 -->
<g id="edge38" class="edge"><title>Node24&#45;&gt;Node30</title>
<path fill="none" stroke="midnightblue" d="M1237.89,-134.475C1252.46,-124.843 1276.4,-109.017 1293.75,-97.5517"/>
<polygon fill="midnightblue" stroke="midnightblue" points="1295.72,-100.444 1302.13,-92.0091 1291.86,-94.6044 1295.72,-100.444"/>
</g>
<!-- Node31 -->
<g id="node31" class="node"><title>Node31</title>
<polygon fill="white" stroke="#bfbfbf" points="1355.5,-73 1355.5,-92 1414.5,-92 1414.5,-73 1355.5,-73"/>
<text text-anchor="middle" x="1385" y="-80" font-family="Helvetica,sans-Serif" font-size="10.00">stdexcept</text>
</g>
<!-- Node24&#45;&gt;Node31 -->
<g id="edge39" class="edge"><title>Node24&#45;&gt;Node31</title>
<path fill="none" stroke="midnightblue" d="M1248.42,-134.451C1273,-125.455 1312.76,-110.847 1347,-98 1348.88,-97.2931 1350.82,-96.5638 1352.77,-95.826"/>
<polygon fill="midnightblue" stroke="midnightblue" points="1354.4,-98.9502 1362.51,-92.1289 1351.92,-92.4059 1354.4,-98.9502"/>
</g>
<!-- Node26 -->
<g id="node26" class="node"><title>Node26</title>
<polygon fill="white" stroke="#bfbfbf" points="1512.5,-6 1512.5,-25 1555.5,-25 1555.5,-6 1512.5,-6"/>
<text text-anchor="middle" x="1534" y="-13" font-family="Helvetica,sans-Serif" font-size="10.00">cstdio</text>
</g>
<!-- Node25&#45;&gt;Node26 -->
<g id="edge30" class="edge"><title>Node25&#45;&gt;Node26</title>
<path fill="none" stroke="midnightblue" d="M1534,-72.7338C1534,-63.1826 1534,-47.6183 1534,-35.2829"/>
<polygon fill="midnightblue" stroke="midnightblue" points="1537.5,-35.1273 1534,-25.1273 1530.5,-35.1273 1537.5,-35.1273"/>
</g>
<!-- Node34&#45;&gt;Node33 -->
<g id="edge45" class="edge"><title>Node34&#45;&gt;Node33</title>
<path fill="none" stroke="midnightblue" d="M1360.93,-190.083C1367.85,-182.298 1378.07,-170.801 1386.45,-161.367"/>
<polygon fill="midnightblue" stroke="midnightblue" points="1389.19,-163.55 1393.22,-153.751 1383.96,-158.9 1389.19,-163.55"/>
</g>
<!-- Node35&#45;&gt;Node12 -->
<g id="edge47" class="edge"><title>Node35&#45;&gt;Node12</title>
<path fill="none" stroke="midnightblue" d="M986,-190.083C986,-183.006 986,-172.861 986,-163.986"/>
<polygon fill="midnightblue" stroke="midnightblue" points="989.5,-163.751 986,-153.751 982.5,-163.751 989.5,-163.751"/>
</g>
<!-- Node36 -->
<g id="node36" class="node"><title>Node36</title>
<polygon fill="white" stroke="#bfbfbf" points="703.5,-134.5 703.5,-153.5 768.5,-153.5 768.5,-134.5 703.5,-134.5"/>
<text text-anchor="middle" x="736" y="-141.5" font-family="Helvetica,sans-Serif" font-size="10.00">Eigen/Core</text>
</g>
<!-- Node35&#45;&gt;Node36 -->
<g id="edge48" class="edge"><title>Node35&#45;&gt;Node36</title>
<path fill="none" stroke="midnightblue" d="M946.387,-190.444C900.594,-180.552 825.516,-164.335 778.524,-154.185"/>
<polygon fill="midnightblue" stroke="midnightblue" points="779.17,-150.744 768.656,-152.054 777.692,-157.586 779.17,-150.744"/>
</g>
<!-- Node37 -->
<g id="node37" class="node"><title>Node37</title>
<polygon fill="white" stroke="#bfbfbf" points="787,-134.5 787,-153.5 895,-153.5 895,-134.5 787,-134.5"/>
<text text-anchor="middle" x="841" y="-141.5" font-family="Helvetica,sans-Serif" font-size="10.00">boost/shared_ptr.hpp</text>
</g>
<!-- Node35&#45;&gt;Node37 -->
<g id="edge49" class="edge"><title>Node35&#45;&gt;Node37</title>
<path fill="none" stroke="midnightblue" d="M963.024,-190.444C938.843,-181.438 900.582,-167.189 873.354,-157.049"/>
<polygon fill="midnightblue" stroke="midnightblue" points="874.461,-153.727 863.868,-153.516 872.018,-160.286 874.461,-153.727"/>
</g>
<!-- Node39 -->
<g id="node39" class="node"><title>Node39</title>
<polygon fill="white" stroke="#bfbfbf" points="1464,-134.5 1464,-153.5 1516,-153.5 1516,-134.5 1464,-134.5"/>
<text text-anchor="middle" x="1490" y="-141.5" font-family="Helvetica,sans-Serif" font-size="10.00">memory</text>
</g>
<!-- Node38&#45;&gt;Node39 -->
<g id="edge51" class="edge"><title>Node38&#45;&gt;Node39</title>
<path fill="none" stroke="midnightblue" d="M1490,-190.083C1490,-183.006 1490,-172.861 1490,-163.986"/>
<polygon fill="midnightblue" stroke="midnightblue" points="1493.5,-163.751 1490,-153.751 1486.5,-163.751 1493.5,-163.751"/>
</g>
<!-- Node42&#45;&gt;Node40 -->
<g id="edge58" class="edge"><title>Node42&#45;&gt;Node40</title>
<path fill="none" stroke="midnightblue" d="M1262.6,-247.238C1265.78,-246.819 1268.93,-246.404 1272,-246 1390.99,-230.337 1424.16,-232.837 1545.86,-210.027"/>
<polygon fill="midnightblue" stroke="midnightblue" points="1546.77,-213.417 1555.95,-208.117 1545.47,-206.539 1546.77,-213.417"/>
</g>
</g>
</svg>
