<?xml version="1.0" encoding="UTF-8" standalone="no"?>
<!DOCTYPE svg PUBLIC "-//W3C//DTD SVG 1.1//EN"
 "http://www.w3.org/Graphics/SVG/1.1/DTD/svg11.dtd">
<!-- Generated by graphviz version 2.38.0 (20140413.2041)
 -->
<!-- Title: ocra::AbilitySet Pages: 1 -->
<svg width="765pt" height="656pt"
 viewBox="0.00 0.00 765.00 656.00" xmlns="http://www.w3.org/2000/svg" xmlns:xlink="http://www.w3.org/1999/xlink">
<g id="graph0" class="graph" transform="scale(1 1) rotate(0) translate(4 652)">
<title>ocra::AbilitySet</title>
<polygon fill="white" stroke="none" points="-4,4 -4,-652 761,-652 761,4 -4,4"/>
<!-- Node1 -->
<g id="node1" class="node"><title>Node1</title>
<polygon fill="#bfbfbf" stroke="black" points="0,-297 0,-316 83,-316 83,-297 0,-297"/>
<text text-anchor="middle" x="41.5" y="-304" font-family="Helvetica,sans-Serif" font-size="10.00">ocra::AbilitySet</text>
</g>
<!-- Node2 -->
<g id="node2" class="node"><title>Node2</title>
<g id="a_node2"><a xlink:href="../../d2/d99/classocra_1_1Function.html" target="_top" xlink:title="Function class. ">
<polygon fill="white" stroke="black" points="119,-297 119,-316 198,-316 198,-297 119,-297"/>
<text text-anchor="middle" x="158.5" y="-304" font-family="Helvetica,sans-Serif" font-size="10.00">ocra::Function</text>
</a>
</g>
</g>
<!-- Node1&#45;&gt;Node2 -->
<g id="edge1" class="edge"><title>Node1&#45;&gt;Node2</title>
<path fill="none" stroke="midnightblue" d="M93.0596,-306.5C101.715,-306.5 110.583,-306.5 118.864,-306.5"/>
<polygon fill="midnightblue" stroke="midnightblue" points="93.0447,-303 83.0447,-306.5 93.0447,-310 93.0447,-303"/>
</g>
<!-- Node3 -->
<g id="node3" class="node"><title>Node3</title>
<g id="a_node3"><a xlink:href="../../d1/d44/classFunction1.html" target="_top" xlink:title="Function1">
<polygon fill="white" stroke="black" points="268.5,-487 268.5,-506 327.5,-506 327.5,-487 268.5,-487"/>
<text text-anchor="middle" x="298" y="-494" font-family="Helvetica,sans-Serif" font-size="10.00">Function1</text>
</a>
</g>
</g>
<!-- Node2&#45;&gt;Node3 -->
<g id="edge2" class="edge"><title>Node2&#45;&gt;Node3</title>
<path fill="none" stroke="midnightblue" d="M162.59,-326.367C169.168,-361.925 187.909,-436.549 234,-477.5 243.48,-485.922 256.583,-490.613 268.385,-493.225"/>
<polygon fill="midnightblue" stroke="midnightblue" points="166.001,-325.552 160.862,-316.287 159.102,-326.734 166.001,-325.552"/>
</g>
<!-- Node4 -->
<g id="node4" class="node"><title>Node4</title>
<g id="a_node4"><a xlink:href="../../d6/d7e/classFunction2.html" target="_top" xlink:title="Function2">
<polygon fill="white" stroke="black" points="268.5,-449 268.5,-468 327.5,-468 327.5,-449 268.5,-449"/>
<text text-anchor="middle" x="298" y="-456" font-family="Helvetica,sans-Serif" font-size="10.00">Function2</text>
</a>
</g>
</g>
<!-- Node2&#45;&gt;Node4 -->
<g id="edge3" class="edge"><title>Node2&#45;&gt;Node4</title>
<path fill="none" stroke="midnightblue" d="M165.196,-325.961C174.685,-354.975 196.488,-409.378 234,-439.5 243.799,-447.368 256.808,-451.982 268.46,-454.687"/>
<polygon fill="midnightblue" stroke="midnightblue" points="168.468,-324.696 162.155,-316.188 161.784,-326.776 168.468,-324.696"/>
</g>
<!-- Node5 -->
<g id="node5" class="node"><title>Node5</title>
<g id="a_node5"><a xlink:href="../../d9/d4a/classFunction3.html" target="_top" xlink:title="Function3">
<polygon fill="white" stroke="black" points="268.5,-411 268.5,-430 327.5,-430 327.5,-411 268.5,-411"/>
<text text-anchor="middle" x="298" y="-418" font-family="Helvetica,sans-Serif" font-size="10.00">Function3</text>
</a>
</g>
</g>
<!-- Node2&#45;&gt;Node5 -->
<g id="edge4" class="edge"><title>Node2&#45;&gt;Node5</title>
<path fill="none" stroke="midnightblue" d="M169.308,-324.996C181.625,-346.475 204.734,-381.507 234,-401.5 244.188,-408.46 256.992,-412.929 268.392,-415.77"/>
<polygon fill="midnightblue" stroke="midnightblue" points="172.334,-323.235 164.426,-316.184 166.211,-326.627 172.334,-323.235"/>
</g>
<!-- Node6 -->
<g id="node6" class="node"><title>Node6</title>
<g id="a_node6"><a xlink:href="../../db/d8c/classMyFunction.html" target="_top" xlink:title="MyFunction">
<polygon fill="white" stroke="black" points="264,-373 264,-392 332,-392 332,-373 264,-373"/>
<text text-anchor="middle" x="298" y="-380" font-family="Helvetica,sans-Serif" font-size="10.00">MyFunction</text>
</a>
</g>
</g>
<!-- Node2&#45;&gt;Node6 -->
<g id="edge5" class="edge"><title>Node2&#45;&gt;Node6</title>
<path fill="none" stroke="midnightblue" d="M177.382,-323.17C191.738,-335.779 212.913,-352.709 234,-363.5 243.254,-368.236 253.89,-372.006 263.756,-374.898"/>
<polygon fill="midnightblue" stroke="midnightblue" points="179.546,-320.409 169.77,-316.325 174.865,-325.614 179.546,-320.409"/>
</g>
<!-- Node7 -->
<g id="node7" class="node"><title>Node7</title>
<g id="a_node7"><a xlink:href="../../db/da4/classocra_1_1DotProductFunction.html" target="_top" xlink:title="DotProductFunction class. ">
<polygon fill="white" stroke="black" points="234,-335 234,-354 362,-354 362,-335 234,-335"/>
<text text-anchor="middle" x="298" y="-342" font-family="Helvetica,sans-Serif" font-size="10.00">ocra::DotProductFunction</text>
</a>
</g>
</g>
<!-- Node2&#45;&gt;Node7 -->
<g id="edge6" class="edge"><title>Node2&#45;&gt;Node7</title>
<path fill="none" stroke="midnightblue" d="M204.073,-318.818C222.965,-324.039 244.647,-330.032 262.314,-334.914"/>
<polygon fill="midnightblue" stroke="midnightblue" points="204.768,-315.379 194.197,-316.089 202.903,-322.126 204.768,-315.379"/>
</g>
<!-- Node8 -->
<g id="node8" class="node"><title>Node8</title>
<g id="a_node8"><a xlink:href="../../de/d3a/classocra_1_1LinearFunction.html" target="_top" xlink:title="LinearFunction class. ">
<polygon fill="white" stroke="black" points="245.5,-297 245.5,-316 350.5,-316 350.5,-297 245.5,-297"/>
<text text-anchor="middle" x="298" y="-304" font-family="Helvetica,sans-Serif" font-size="10.00">ocra::LinearFunction</text>
</a>
</g>
</g>
<!-- Node2&#45;&gt;Node8 -->
<g id="edge7" class="edge"><title>Node2&#45;&gt;Node8</title>
<path fill="none" stroke="midnightblue" d="M208.408,-306.5C220.365,-306.5 233.197,-306.5 245.28,-306.5"/>
<polygon fill="midnightblue" stroke="midnightblue" points="208.167,-303 198.167,-306.5 208.167,-310 208.167,-303"/>
</g>
<!-- Node27 -->
<g id="node27" class="node"><title>Node27</title>
<g id="a_node27"><a xlink:href="../../dd/d93/classocra_1_1Pb114G10.html" target="_top" xlink:title="ocra::Pb114G10">
<polygon fill="white" stroke="black" points="254.5,-259 254.5,-278 341.5,-278 341.5,-259 254.5,-259"/>
<text text-anchor="middle" x="298" y="-266" font-family="Helvetica,sans-Serif" font-size="10.00">ocra::Pb114G10</text>
</a>
</g>
</g>
<!-- Node2&#45;&gt;Node27 -->
<g id="edge26" class="edge"><title>Node2&#45;&gt;Node27</title>
<path fill="none" stroke="midnightblue" d="M204.073,-294.182C222.965,-288.961 244.647,-282.968 262.314,-278.086"/>
<polygon fill="midnightblue" stroke="midnightblue" points="202.903,-290.874 194.197,-296.911 204.768,-297.621 202.903,-290.874"/>
</g>
<!-- Node28 -->
<g id="node28" class="node"><title>Node28</title>
<g id="a_node28"><a xlink:href="../../da/d6c/classocra_1_1Pb114G11.html" target="_top" xlink:title="ocra::Pb114G11">
<polygon fill="white" stroke="black" points="254.5,-221 254.5,-240 341.5,-240 341.5,-221 254.5,-221"/>
<text text-anchor="middle" x="298" y="-228" font-family="Helvetica,sans-Serif" font-size="10.00">ocra::Pb114G11</text>
</a>
</g>
</g>
<!-- Node2&#45;&gt;Node28 -->
<g id="edge27" class="edge"><title>Node2&#45;&gt;Node28</title>
<path fill="none" stroke="midnightblue" d="M177.382,-289.83C191.738,-277.221 212.913,-260.291 234,-249.5 241.322,-245.753 249.509,-242.611 257.495,-240.029"/>
<polygon fill="midnightblue" stroke="midnightblue" points="174.865,-287.386 169.77,-296.675 179.546,-292.591 174.865,-287.386"/>
</g>
<!-- Node29 -->
<g id="node29" class="node"><title>Node29</title>
<g id="a_node29"><a xlink:href="../../d9/df1/classocra_1_1Pb114G5.html" target="_top" xlink:title="ocra::Pb114G5">
<polygon fill="white" stroke="black" points="257,-183 257,-202 339,-202 339,-183 257,-183"/>
<text text-anchor="middle" x="298" y="-190" font-family="Helvetica,sans-Serif" font-size="10.00">ocra::Pb114G5</text>
</a>
</g>
</g>
<!-- Node2&#45;&gt;Node29 -->
<g id="edge28" class="edge"><title>Node2&#45;&gt;Node29</title>
<path fill="none" stroke="midnightblue" d="M169.308,-288.004C181.625,-266.525 204.734,-231.493 234,-211.5 240.792,-206.86 248.747,-203.327 256.673,-200.646"/>
<polygon fill="midnightblue" stroke="midnightblue" points="166.211,-286.373 164.426,-296.816 172.334,-289.765 166.211,-286.373"/>
</g>
<!-- Node30 -->
<g id="node30" class="node"><title>Node30</title>
<g id="a_node30"><a xlink:href="../../d9/d7e/classocra_1_1QuadraticFunction.html" target="_top" xlink:title="QuadraticFunction class. ">
<polygon fill="white" stroke="black" points="237.5,-88 237.5,-107 358.5,-107 358.5,-88 237.5,-88"/>
<text text-anchor="middle" x="298" y="-95" font-family="Helvetica,sans-Serif" font-size="10.00">ocra::QuadraticFunction</text>
</a>
</g>
</g>
<!-- Node2&#45;&gt;Node30 -->
<g id="edge29" class="edge"><title>Node2&#45;&gt;Node30</title>
<path fill="none" stroke="midnightblue" d="M168.734,-287.555C181.9,-261.165 207.43,-212.224 234,-173.5 251.26,-148.346 274.976,-121.429 287.825,-107.361"/>
<polygon fill="midnightblue" stroke="midnightblue" points="165.461,-286.279 164.171,-296.795 171.737,-289.378 165.461,-286.279"/>
</g>
<!-- Node34 -->
<g id="node34" class="node"><title>Node34</title>
<g id="a_node34"><a xlink:href="../../df/d5a/classocra_1_1SubtractionFunction.html" target="_top" xlink:title="SubtractionFunction class. ">
<polygon fill="white" stroke="black" points="234,-50 234,-69 362,-69 362,-50 234,-50"/>
<text text-anchor="middle" x="298" y="-57" font-family="Helvetica,sans-Serif" font-size="10.00">ocra::SubtractionFunction</text>
</a>
</g>
</g>
<!-- Node2&#45;&gt;Node34 -->
<g id="edge33" class="edge"><title>Node2&#45;&gt;Node34</title>
<path fill="none" stroke="midnightblue" d="M160.114,-286.371C162.567,-242.277 174.676,-136.481 234,-78.5 238.003,-74.5873 242.782,-71.4764 247.893,-69.0036"/>
<polygon fill="midnightblue" stroke="midnightblue" points="156.605,-286.491 159.661,-296.635 163.598,-286.799 156.605,-286.491"/>
</g>
<!-- Node9 -->
<g id="node9" class="node"><title>Node9</title>
<g id="a_node9"><a xlink:href="../../d4/d45/classocra_1_1ContactAvoidanceFunction.html" target="_top" xlink:title="Create a linear function that represents the joint limit function. ">
<polygon fill="white" stroke="black" points="399.5,-574 399.5,-593 558.5,-593 558.5,-574 399.5,-574"/>
<text text-anchor="middle" x="479" y="-581" font-family="Helvetica,sans-Serif" font-size="10.00">ocra::ContactAvoidanceFunction</text>
</a>
</g>
</g>
<!-- Node8&#45;&gt;Node9 -->
<g id="edge8" class="edge"><title>Node8&#45;&gt;Node9</title>
<path fill="none" stroke="midnightblue" d="M358.267,-321.768C359.591,-322.924 360.841,-324.166 362,-325.5 430.745,-404.581 329.65,-479.077 398,-558.5 403.885,-565.338 411.612,-570.331 419.943,-573.97"/>
<polygon fill="midnightblue" stroke="midnightblue" points="360.188,-318.841 349.971,-316.038 356.21,-324.601 360.188,-318.841"/>
</g>
<!-- Node12 -->
<g id="node12" class="node"><title>Node12</title>
<g id="a_node12"><a xlink:href="../../d3/d89/classocra_1_1DiagonalLinearFunction.html" target="_top" xlink:title="DiagonalLinearFunction class. ">
<polygon fill="white" stroke="black" points="407.5,-530 407.5,-549 550.5,-549 550.5,-530 407.5,-530"/>
<text text-anchor="middle" x="479" y="-537" font-family="Helvetica,sans-Serif" font-size="10.00">ocra::DiagonalLinearFunction</text>
</a>
</g>
</g>
<!-- Node8&#45;&gt;Node12 -->
<g id="edge11" class="edge"><title>Node8&#45;&gt;Node12</title>
<path fill="none" stroke="midnightblue" d="M358.214,-321.815C359.554,-322.958 360.821,-324.184 362,-325.5 420.525,-390.808 337.927,-455.614 398,-519.5 402.021,-523.776 406.806,-527.196 412.007,-529.923"/>
<polygon fill="midnightblue" stroke="midnightblue" points="360.093,-318.86 349.852,-316.143 356.163,-324.653 360.093,-318.86"/>
</g>
<!-- Node15 -->
<g id="node15" class="node"><title>Node15</title>
<g id="a_node15"><a xlink:href="../../d4/d5c/classocra_1_1DoubleDiagonalLinearFunction.html" target="_top" xlink:title="DoubleDiagonalLinearFunction class. ">
<polygon fill="white" stroke="black" points="410.5,-480.5 410.5,-510.5 547.5,-510.5 547.5,-480.5 410.5,-480.5"/>
<text text-anchor="start" x="418.5" y="-498.5" font-family="Helvetica,sans-Serif" font-size="10.00">ocra::DoubleDiagonalLinear</text>
<text text-anchor="middle" x="479" y="-487.5" font-family="Helvetica,sans-Serif" font-size="10.00">Function</text>
</a>
</g>
</g>
<!-- Node8&#45;&gt;Node15 -->
<g id="edge14" class="edge"><title>Node8&#45;&gt;Node15</title>
<path fill="none" stroke="midnightblue" d="M357.535,-321.448C359.116,-322.694 360.612,-324.041 362,-325.5 407.775,-373.601 352.466,-422.171 398,-470.5 401.592,-474.313 405.756,-477.548 410.26,-480.292"/>
<polygon fill="midnightblue" stroke="midnightblue" points="359.327,-318.44 349.008,-316.036 355.575,-324.35 359.327,-318.44"/>
</g>
<!-- Node16 -->
<g id="node16" class="node"><title>Node16</title>
<g id="a_node16"><a xlink:href="../../d9/da6/classocra_1_1DynamicEquationFunction.html" target="_top" xlink:title="DynamicEquationFunction class. ">
<polygon fill="white" stroke="black" points="401,-442 401,-461 557,-461 557,-442 401,-442"/>
<text text-anchor="middle" x="479" y="-449" font-family="Helvetica,sans-Serif" font-size="10.00">ocra::DynamicEquationFunction</text>
</a>
</g>
</g>
<!-- Node8&#45;&gt;Node16 -->
<g id="edge15" class="edge"><title>Node8&#45;&gt;Node16</title>
<path fill="none" stroke="midnightblue" d="M356.743,-321.142C358.602,-322.471 360.364,-323.92 362,-325.5 397.783,-360.069 361.399,-397.798 398,-431.5 402.634,-435.767 408.038,-439.158 413.811,-441.848"/>
<polygon fill="midnightblue" stroke="midnightblue" points="358.459,-318.09 348.063,-316.049 354.917,-324.128 358.459,-318.09"/>
</g>
<!-- Node17 -->
<g id="node17" class="node"><title>Node17</title>
<g id="a_node17"><a xlink:href="../../de/ddd/classocra_1_1FullDynamicEquationFunction.html" target="_top" xlink:title="Create a linear function that represents the dynamic equation of motion. ">
<polygon fill="white" stroke="black" points="412,-392.5 412,-422.5 546,-422.5 546,-392.5 412,-392.5"/>
<text text-anchor="start" x="420" y="-410.5" font-family="Helvetica,sans-Serif" font-size="10.00">ocra::FullDynamicEquation</text>
<text text-anchor="middle" x="479" y="-399.5" font-family="Helvetica,sans-Serif" font-size="10.00">Function</text>
</a>
</g>
</g>
<!-- Node8&#45;&gt;Node17 -->
<g id="edge16" class="edge"><title>Node8&#45;&gt;Node17</title>
<path fill="none" stroke="midnightblue" d="M354.113,-320.407C356.882,-321.933 359.533,-323.624 362,-325.5 385.849,-343.638 374.241,-364.243 398,-382.5 403.077,-386.401 408.772,-389.7 414.722,-392.488"/>
<polygon fill="midnightblue" stroke="midnightblue" points="355.488,-317.186 344.951,-316.079 352.498,-323.515 355.488,-317.186"/>
</g>
<!-- Node18 -->
<g id="node18" class="node"><title>Node18</title>
<g id="a_node18"><a xlink:href="../../df/de0/classocra_1_1JointLimitFunction.html" target="_top" xlink:title="Create a linear function that represents the joint limit function. ">
<polygon fill="white" stroke="black" points="418.5,-354 418.5,-373 539.5,-373 539.5,-354 418.5,-354"/>
<text text-anchor="middle" x="479" y="-361" font-family="Helvetica,sans-Serif" font-size="10.00">ocra::JointLimitFunction</text>
</a>
</g>
</g>
<!-- Node8&#45;&gt;Node18 -->
<g id="edge17" class="edge"><title>Node8&#45;&gt;Node18</title>
<path fill="none" stroke="midnightblue" d="M344.825,-319.184C350.666,-321.132 356.515,-323.25 362,-325.5 378.738,-332.366 381.064,-338.137 398,-344.5 407.889,-348.215 418.745,-351.37 429.183,-353.979"/>
<polygon fill="midnightblue" stroke="midnightblue" points="345.659,-315.776 335.068,-316.074 343.533,-322.446 345.659,-315.776"/>
</g>
<!-- Node21 -->
<g id="node21" class="node"><title>Node21</title>
<g id="a_node21"><a xlink:href="../../d0/dd6/classocra_1_1LinearizedCoulombFunction.html" target="_top" xlink:title="LinearizedCoulombFunction class. ">
<polygon fill="white" stroke="black" points="398,-316 398,-335 560,-335 560,-316 398,-316"/>
<text text-anchor="middle" x="479" y="-323" font-family="Helvetica,sans-Serif" font-size="10.00">ocra::LinearizedCoulombFunction</text>
</a>
</g>
</g>
<!-- Node8&#45;&gt;Node21 -->
<g id="edge20" class="edge"><title>Node8&#45;&gt;Node21</title>
<path fill="none" stroke="midnightblue" d="M360.971,-313.078C372.809,-314.334 385.359,-315.667 397.675,-316.974"/>
<polygon fill="midnightblue" stroke="midnightblue" points="361.088,-309.571 350.774,-311.996 360.349,-316.532 361.088,-309.571"/>
</g>
<!-- Node22 -->
<g id="node22" class="node"><title>Node22</title>
<g id="a_node22"><a xlink:href="../../dd/d16/classocra_1_1LinearTask.html" target="_top" xlink:title="LinearTask class. ">
<polygon fill="white" stroke="black" points="434.5,-278 434.5,-297 523.5,-297 523.5,-278 434.5,-278"/>
<text text-anchor="middle" x="479" y="-285" font-family="Helvetica,sans-Serif" font-size="10.00">ocra::LinearTask</text>
</a>
</g>
</g>
<!-- Node8&#45;&gt;Node22 -->
<g id="edge21" class="edge"><title>Node8&#45;&gt;Node22</title>
<path fill="none" stroke="midnightblue" d="M360.915,-299.928C385.055,-297.366 412.163,-294.488 434.212,-292.148"/>
<polygon fill="midnightblue" stroke="midnightblue" points="360.349,-296.468 350.774,-301.004 361.088,-303.429 360.349,-296.468"/>
</g>
<!-- Node23 -->
<g id="node23" class="node"><title>Node23</title>
<g id="a_node23"><a xlink:href="../../dd/dda/classocra_1_1SecondOrderLinearTask.html" target="_top" xlink:title="SecondOrderLinearTask class. ">
<polygon fill="white" stroke="black" points="406,-240 406,-259 552,-259 552,-240 406,-240"/>
<text text-anchor="middle" x="479" y="-247" font-family="Helvetica,sans-Serif" font-size="10.00">ocra::SecondOrderLinearTask</text>
</a>
</g>
</g>
<!-- Node8&#45;&gt;Node23 -->
<g id="edge22" class="edge"><title>Node8&#45;&gt;Node23</title>
<path fill="none" stroke="midnightblue" d="M344.825,-293.816C350.666,-291.868 356.515,-289.75 362,-287.5 378.738,-280.634 381.064,-274.863 398,-268.5 407.889,-264.785 418.745,-261.63 429.183,-259.021"/>
<polygon fill="midnightblue" stroke="midnightblue" points="343.533,-290.554 335.068,-296.926 345.659,-297.224 343.533,-290.554"/>
</g>
<!-- Node24 -->
<g id="node24" class="node"><title>Node24</title>
<g id="a_node24"><a xlink:href="../../d0/d8f/classocra_1_1SumOfLinearFunctions.html" target="_top" xlink:title="ocra::SumOfLinearFunctions">
<polygon fill="white" stroke="black" points="408.5,-202 408.5,-221 549.5,-221 549.5,-202 408.5,-202"/>
<text text-anchor="middle" x="479" y="-209" font-family="Helvetica,sans-Serif" font-size="10.00">ocra::SumOfLinearFunctions</text>
</a>
</g>
</g>
<!-- Node8&#45;&gt;Node24 -->
<g id="edge23" class="edge"><title>Node8&#45;&gt;Node24</title>
<path fill="none" stroke="midnightblue" d="M354.113,-292.593C356.882,-291.067 359.533,-289.376 362,-287.5 385.849,-269.362 373.62,-247.918 398,-230.5 403.459,-226.6 409.611,-223.491 416.016,-221.015"/>
<polygon fill="midnightblue" stroke="midnightblue" points="352.498,-289.485 344.951,-296.921 355.488,-295.814 352.498,-289.485"/>
</g>
<!-- Node25 -->
<g id="node25" class="node"><title>Node25</title>
<g id="a_node25"><a xlink:href="../../dd/d3d/classocra_1_1TorqueLimitFunction.html" target="_top" xlink:title="Create a linear function that represents the torque limit function. ">
<polygon fill="white" stroke="black" points="414,-164 414,-183 544,-183 544,-164 414,-164"/>
<text text-anchor="middle" x="479" y="-171" font-family="Helvetica,sans-Serif" font-size="10.00">ocra::TorqueLimitFunction</text>
</a>
</g>
</g>
<!-- Node8&#45;&gt;Node25 -->
<g id="edge24" class="edge"><title>Node8&#45;&gt;Node25</title>
<path fill="none" stroke="midnightblue" d="M356.559,-291.865C358.479,-290.534 360.303,-289.083 362,-287.5 395.015,-256.698 364.08,-222.302 398,-192.5 402.719,-188.354 408.178,-185.072 413.985,-182.48"/>
<polygon fill="midnightblue" stroke="midnightblue" points="354.572,-288.969 347.616,-296.961 358.037,-295.051 354.572,-288.969"/>
</g>
<!-- Node26 -->
<g id="node26" class="node"><title>Node26</title>
<g id="a_node26"><a xlink:href="../../d7/d46/classocra_1_1VariableChiFunction.html" target="_top" xlink:title="ocra::VariableChiFunction">
<polygon fill="white" stroke="black" points="414.5,-126 414.5,-145 543.5,-145 543.5,-126 414.5,-126"/>
<text text-anchor="middle" x="479" y="-133" font-family="Helvetica,sans-Serif" font-size="10.00">ocra::VariableChiFunction</text>
</a>
</g>
</g>
<!-- Node8&#45;&gt;Node26 -->
<g id="edge25" class="edge"><title>Node8&#45;&gt;Node26</title>
<path fill="none" stroke="midnightblue" d="M357.495,-291.514C359.088,-290.279 360.597,-288.944 362,-287.5 404.679,-243.584 354.029,-197.122 398,-154.5 402.715,-149.93 408.319,-146.388 414.339,-143.654"/>
<polygon fill="midnightblue" stroke="midnightblue" points="355.54,-288.608 348.927,-296.885 359.258,-294.539 355.54,-288.608"/>
</g>
<!-- Node10 -->
<g id="node10" class="node"><title>Node10</title>
<g id="a_node10"><a xlink:href="../../da/d90/classocra_1_1FullContactAvoidanceFunction.html" target="_top" xlink:title="Create a linear function that represents the contact avoidance function for the full formalism...">
<polygon fill="white" stroke="black" points="608,-617.5 608,-647.5 745,-647.5 745,-617.5 608,-617.5"/>
<text text-anchor="start" x="616" y="-635.5" font-family="Helvetica,sans-Serif" font-size="10.00">ocra::FullContactAvoidance</text>
<text text-anchor="middle" x="676.5" y="-624.5" font-family="Helvetica,sans-Serif" font-size="10.00">Function</text>
</a>
</g>
</g>
<!-- Node9&#45;&gt;Node10 -->
<g id="edge9" class="edge"><title>Node9&#45;&gt;Node10</title>
<path fill="none" stroke="midnightblue" d="M527.934,-595.514C554.35,-602.135 587.39,-610.416 615.506,-617.463"/>
<polygon fill="midnightblue" stroke="midnightblue" points="528.709,-592.1 518.158,-593.064 527.007,-598.89 528.709,-592.1"/>
</g>
<!-- Node11 -->
<g id="node11" class="node"><title>Node11</title>
<g id="a_node11"><a xlink:href="../../db/d40/classocra_1_1ReducedContactAvoidanceFunction.html" target="_top" xlink:title="Create a linear function that represents the contact avoidance function for the reduced formalism...">
<polygon fill="white" stroke="black" points="596,-568.5 596,-598.5 757,-598.5 757,-568.5 596,-568.5"/>
<text text-anchor="start" x="604" y="-586.5" font-family="Helvetica,sans-Serif" font-size="10.00">ocra::ReducedContactAvoidance</text>
<text text-anchor="middle" x="676.5" y="-575.5" font-family="Helvetica,sans-Serif" font-size="10.00">Function</text>
</a>
</g>
</g>
<!-- Node9&#45;&gt;Node11 -->
<g id="edge10" class="edge"><title>Node9&#45;&gt;Node11</title>
<path fill="none" stroke="midnightblue" d="M568.758,-583.5C577.743,-583.5 586.831,-583.5 595.714,-583.5"/>
<polygon fill="midnightblue" stroke="midnightblue" points="568.672,-580 558.672,-583.5 568.672,-587 568.672,-580"/>
</g>
<!-- Node13 -->
<g id="node13" class="node"><title>Node13</title>
<g id="a_node13"><a xlink:href="../../dd/d77/classocra_1_1BoundFunction.html" target="_top" xlink:title="BoundFunction class. ">
<polygon fill="white" stroke="black" points="623,-530 623,-549 730,-549 730,-530 623,-530"/>
<text text-anchor="middle" x="676.5" y="-537" font-family="Helvetica,sans-Serif" font-size="10.00">ocra::BoundFunction</text>
</a>
</g>
</g>
<!-- Node12&#45;&gt;Node13 -->
<g id="edge12" class="edge"><title>Node12&#45;&gt;Node13</title>
<path fill="none" stroke="midnightblue" d="M560.76,-539.5C581.709,-539.5 603.733,-539.5 622.82,-539.5"/>
<polygon fill="midnightblue" stroke="midnightblue" points="560.58,-536 550.58,-539.5 560.58,-543 560.58,-536"/>
</g>
<!-- Node14 -->
<g id="node14" class="node"><title>Node14</title>
<g id="a_node14"><a xlink:href="../../d4/d58/classocra_1_1IdentityFunction.html" target="_top" xlink:title="IdentityFunction class. ">
<polygon fill="white" stroke="black" points="621,-492 621,-511 732,-511 732,-492 621,-492"/>
<text text-anchor="middle" x="676.5" y="-499" font-family="Helvetica,sans-Serif" font-size="10.00">ocra::IdentityFunction</text>
</a>
</g>
</g>
<!-- Node12&#45;&gt;Node14 -->
<g id="edge13" class="edge"><title>Node12&#45;&gt;Node14</title>
<path fill="none" stroke="midnightblue" d="M539.11,-528.011C567.004,-522.589 599.902,-516.194 626.399,-511.044"/>
<polygon fill="midnightblue" stroke="midnightblue" points="538.229,-524.616 529.081,-529.96 539.565,-531.488 538.229,-524.616"/>
</g>
<!-- Node19 -->
<g id="node19" class="node"><title>Node19</title>
<g id="a_node19"><a xlink:href="../../df/d42/classocra_1_1FullJointLimitFunction.html" target="_top" xlink:title="Create a linear function that represents the joint limit function for the full formalism. ">
<polygon fill="white" stroke="black" points="608,-373 608,-392 745,-392 745,-373 608,-373"/>
<text text-anchor="middle" x="676.5" y="-380" font-family="Helvetica,sans-Serif" font-size="10.00">ocra::FullJointLimitFunction</text>
</a>
</g>
</g>
<!-- Node18&#45;&gt;Node19 -->
<g id="edge18" class="edge"><title>Node18&#45;&gt;Node19</title>
<path fill="none" stroke="midnightblue" d="M549.757,-370.279C568.685,-372.119 589.142,-374.107 607.946,-375.935"/>
<polygon fill="midnightblue" stroke="midnightblue" points="550.01,-366.788 539.719,-369.304 549.333,-373.755 550.01,-366.788"/>
</g>
<!-- Node20 -->
<g id="node20" class="node"><title>Node20</title>
<g id="a_node20"><a xlink:href="../../dc/daa/classocra_1_1ReducedJointLimitFunction.html" target="_top" xlink:title="Create a linear function that represents the joint limit function for the reduced formalism...">
<polygon fill="white" stroke="black" points="596.5,-335 596.5,-354 756.5,-354 756.5,-335 596.5,-335"/>
<text text-anchor="middle" x="676.5" y="-342" font-family="Helvetica,sans-Serif" font-size="10.00">ocra::ReducedJointLimitFunction</text>
</a>
</g>
</g>
<!-- Node18&#45;&gt;Node20 -->
<g id="edge19" class="edge"><title>Node18&#45;&gt;Node20</title>
<path fill="none" stroke="midnightblue" d="M549.954,-356.701C564.987,-355.24 580.976,-353.686 596.331,-352.194"/>
<polygon fill="midnightblue" stroke="midnightblue" points="549.333,-353.245 539.719,-357.696 550.01,-360.212 549.333,-353.245"/>
</g>
<!-- Node31 -->
<g id="node31" class="node"><title>Node31</title>
<g id="a_node31"><a xlink:href="../../d3/d16/classocra_1_1FcQuadraticFunction.html" target="_top" xlink:title="ocra::FcQuadraticFunction">
<polygon fill="white" stroke="black" points="413,-88 413,-107 545,-107 545,-88 413,-88"/>
<text text-anchor="middle" x="479" y="-95" font-family="Helvetica,sans-Serif" font-size="10.00">ocra::FcQuadraticFunction</text>
</a>
</g>
</g>
<!-- Node30&#45;&gt;Node31 -->
<g id="edge30" class="edge"><title>Node30&#45;&gt;Node31</title>
<path fill="none" stroke="midnightblue" d="M368.966,-97.5C383.401,-97.5 398.548,-97.5 412.805,-97.5"/>
<polygon fill="midnightblue" stroke="midnightblue" points="368.604,-94.0001 358.604,-97.5 368.604,-101 368.604,-94.0001"/>
</g>
<!-- Node32 -->
<g id="node32" class="node"><title>Node32</title>
<g id="a_node32"><a xlink:href="../../df/dfc/classocra_1_1SquaredLinearFunction.html" target="_top" xlink:title="SquaredLinearFunction class. ">
<polygon fill="white" stroke="black" points="408.5,-50 408.5,-69 549.5,-69 549.5,-50 408.5,-50"/>
<text text-anchor="middle" x="479" y="-57" font-family="Helvetica,sans-Serif" font-size="10.00">ocra::SquaredLinearFunction</text>
</a>
</g>
</g>
<!-- Node30&#45;&gt;Node32 -->
<g id="edge31" class="edge"><title>Node30&#45;&gt;Node32</title>
<path fill="none" stroke="midnightblue" d="M354.024,-85.819C379.408,-80.4301 409.161,-74.1139 433.156,-69.0201"/>
<polygon fill="midnightblue" stroke="midnightblue" points="353.224,-82.4106 344.169,-87.911 354.678,-89.258 353.224,-82.4106"/>
</g>
<!-- Node33 -->
<g id="node33" class="node"><title>Node33</title>
<g id="a_node33"><a xlink:href="../../d2/d31/classocra_1_1WeightedSquareDistanceFunction.html" target="_top" xlink:title="WeightedSquareDistanceFunction class. ">
<polygon fill="white" stroke="black" points="403,-0.5 403,-30.5 555,-30.5 555,-0.5 403,-0.5"/>
<text text-anchor="start" x="411" y="-18.5" font-family="Helvetica,sans-Serif" font-size="10.00">ocra::WeightedSquareDistance</text>
<text text-anchor="middle" x="479" y="-7.5" font-family="Helvetica,sans-Serif" font-size="10.00">Function</text>
</a>
</g>
</g>
<!-- Node30&#45;&gt;Node33 -->
<g id="edge32" class="edge"><title>Node30&#45;&gt;Node33</title>
<path fill="none" stroke="midnightblue" d="M351.181,-84.1612C354.947,-82.4792 358.597,-80.599 362,-78.5 381.801,-66.2871 378.26,-52.8114 398,-40.5 404.173,-36.6498 410.987,-33.3499 417.955,-30.5322"/>
<polygon fill="midnightblue" stroke="midnightblue" points="349.656,-81.0007 341.655,-87.9457 352.241,-87.5061 349.656,-81.0007"/>
</g>
</g>
</svg>
