<?xml version="1.0" encoding="UTF-8" standalone="no"?>
<!DOCTYPE svg PUBLIC "-//W3C//DTD SVG 1.1//EN"
 "http://www.w3.org/Graphics/SVG/1.1/DTD/svg11.dtd">
<!-- Generated by graphviz version 2.38.0 (20140413.2041)
 -->
<!-- Title: gOcraSegCartesianTaskManager.h Pages: 1 -->
<svg width="352pt" height="162pt"
 viewBox="0.00 0.00 352.00 162.00" xmlns="http://www.w3.org/2000/svg" xmlns:xlink="http://www.w3.org/1999/xlink">
<g id="graph0" class="graph" transform="scale(1 1) rotate(0) translate(4 158)">
<title>gOcraSegCartesianTaskManager.h</title>
<polygon fill="white" stroke="none" points="-4,4 -4,-158 348,-158 348,4 -4,4"/>
<!-- Node1 -->
<g id="node1" class="node"><title>Node1</title>
<polygon fill="#bfbfbf" stroke="black" points="78,-134.5 78,-153.5 248,-153.5 248,-134.5 78,-134.5"/>
<text text-anchor="middle" x="163" y="-141.5" font-family="Helvetica,sans-Serif" font-size="10.00">gOcraSegCartesianTaskManager.h</text>
</g>
<!-- Node2 -->
<g id="node2" class="node"><title>Node2</title>
<g id="a_node2"><a xlink:href="../../d4/d79/gOcraTaskManagerCollectionBase_8h.html" target="_top" xlink:title="gOcraTaskManagerCollection\lBase.h">
<polygon fill="white" stroke="black" points="0,-67.5 0,-97.5 146,-97.5 146,-67.5 0,-67.5"/>
<text text-anchor="start" x="8" y="-85.5" font-family="Helvetica,sans-Serif" font-size="10.00">gOcraTaskManagerCollection</text>
<text text-anchor="middle" x="73" y="-74.5" font-family="Helvetica,sans-Serif" font-size="10.00">Base.h</text>
</a>
</g>
</g>
<!-- Node1&#45;&gt;Node2 -->
<g id="edge1" class="edge"><title>Node1&#45;&gt;Node2</title>
<path fill="none" stroke="midnightblue" d="M141.429,-128.739C127.125,-119.282 108.441,-106.93 94.2112,-97.523"/>
<polygon fill="midnightblue" stroke="midnightblue" points="139.833,-131.88 150.105,-134.475 143.694,-126.041 139.833,-131.88"/>
</g>
<!-- Node4 -->
<g id="node4" class="node"><title>Node4</title>
<g id="a_node4"><a xlink:href="../../dd/d9e/gOcraSegCartesianTaskManager_8cpp.html" target="_top" xlink:title="gOcraSegCartesianTaskManager.cpp">
<polygon fill="white" stroke="black" points="164,-73 164,-92 344,-92 344,-73 164,-73"/>
<text text-anchor="middle" x="254" y="-80" font-family="Helvetica,sans-Serif" font-size="10.00">gOcraSegCartesianTaskManager.cpp</text>
</a>
</g>
</g>
<!-- Node1&#45;&gt;Node4 -->
<g id="edge3" class="edge"><title>Node1&#45;&gt;Node4</title>
<path fill="none" stroke="midnightblue" d="M184.52,-128.93C202.063,-117.459 226.265,-101.634 240.986,-92.0091"/>
<polygon fill="midnightblue" stroke="midnightblue" points="182.492,-126.073 176.038,-134.475 186.323,-131.932 182.492,-126.073"/>
</g>
<!-- Node3 -->
<g id="node3" class="node"><title>Node3</title>
<g id="a_node3"><a xlink:href="../../de/d9f/gOcraTaskManagerCollectionBase_8cpp.html" target="_top" xlink:title="gOcraTaskManagerCollection\lBase.cpp">
<polygon fill="white" stroke="black" points="0,-0.5 0,-30.5 146,-30.5 146,-0.5 0,-0.5"/>
<text text-anchor="start" x="8" y="-18.5" font-family="Helvetica,sans-Serif" font-size="10.00">gOcraTaskManagerCollection</text>
<text text-anchor="middle" x="73" y="-7.5" font-family="Helvetica,sans-Serif" font-size="10.00">Base.cpp</text>
</a>
</g>
</g>
<!-- Node2&#45;&gt;Node3 -->
<g id="edge2" class="edge"><title>Node2&#45;&gt;Node3</title>
<path fill="none" stroke="midnightblue" d="M73,-57.1081C73,-48.1539 73,-38.3227 73,-30.5765"/>
<polygon fill="midnightblue" stroke="midnightblue" points="69.5001,-57.3959 73,-67.396 76.5001,-57.396 69.5001,-57.3959"/>
</g>
</g>
</svg>
