<?xml version="1.0" encoding="UTF-8" standalone="no"?>
<!DOCTYPE svg PUBLIC "-//W3C//DTD SVG 1.1//EN"
 "http://www.w3.org/Graphics/SVG/1.1/DTD/svg11.dtd">
<!-- Generated by graphviz version 2.38.0 (20140413.2041)
 -->
<!-- Title: ocra::OneLevelSolverWithQPOASES Pages: 1 -->
<svg width="1010pt" height="417pt"
 viewBox="0.00 0.00 1010.00 416.50" xmlns="http://www.w3.org/2000/svg" xmlns:xlink="http://www.w3.org/1999/xlink">
<g id="graph0" class="graph" transform="scale(1 1) rotate(0) translate(4 412.5)">
<title>ocra::OneLevelSolverWithQPOASES</title>
<polygon fill="white" stroke="none" points="-4,4 -4,-412.5 1006,-412.5 1006,4 -4,4"/>
<!-- Node1 -->
<g id="node1" class="node"><title>Node1</title>
<polygon fill="#bfbfbf" stroke="black" points="871,-210.5 871,-240.5 1002,-240.5 1002,-210.5 871,-210.5"/>
<text text-anchor="start" x="879" y="-228.5" font-family="Helvetica,sans-Serif" font-size="10.00">ocra::OneLevelSolverWith</text>
<text text-anchor="middle" x="936.5" y="-217.5" font-family="Helvetica,sans-Serif" font-size="10.00">QPOASES</text>
</g>
<!-- Node2 -->
<g id="node2" class="node"><title>Node2</title>
<g id="a_node2"><a xlink:href="../../d2/d5e/classocra_1_1OneLevelSolver.html" target="_top" xlink:title="A generic abstract class the solvers that can be used in the wOcra Controller. ">
<polygon fill="white" stroke="black" points="724,-216 724,-235 834,-235 834,-216 724,-216"/>
<text text-anchor="middle" x="779" y="-223" font-family="Helvetica,sans-Serif" font-size="10.00">ocra::OneLevelSolver</text>
</a>
</g>
</g>
<!-- Node2&#45;&gt;Node1 -->
<g id="edge1" class="edge"><title>Node2&#45;&gt;Node1</title>
<path fill="none" stroke="midnightblue" d="M844.523,-225.5C853.272,-225.5 862.251,-225.5 871,-225.5"/>
<polygon fill="midnightblue" stroke="midnightblue" points="844.386,-222 834.386,-225.5 844.386,-229 844.386,-222"/>
</g>
<!-- Node3 -->
<g id="node3" class="node"><title>Node3</title>
<g id="a_node3"><a xlink:href="../../d6/dd3/classocra_1_1Solver.html" target="_top" xlink:title="Solver class. ">
<polygon fill="white" stroke="black" points="585,-180 585,-199 654,-199 654,-180 585,-180"/>
<text text-anchor="middle" x="619.5" y="-187" font-family="Helvetica,sans-Serif" font-size="10.00">ocra::Solver</text>
</a>
</g>
</g>
<!-- Node3&#45;&gt;Node2 -->
<g id="edge2" class="edge"><title>Node3&#45;&gt;Node2</title>
<path fill="none" stroke="midnightblue" d="M649.114,-203.354C656.436,-206.442 664.393,-209.415 672,-211.5 688.56,-216.039 706.992,-219.125 723.781,-221.217"/>
<polygon fill="midnightblue" stroke="midnightblue" points="650.176,-199.996 639.616,-199.143 647.339,-206.395 650.176,-199.996"/>
</g>
<!-- Node4 -->
<g id="node4" class="node"><title>Node4</title>
<g id="a_node4"><a xlink:href="../../d3/d16/classocra_1_1ObserverSubject.html" target="_top" xlink:title="ocra::ObserverSubject">
<polygon fill="white" stroke="black" points="385.5,-127 385.5,-146 499.5,-146 499.5,-127 385.5,-127"/>
<text text-anchor="middle" x="442.5" y="-134" font-family="Helvetica,sans-Serif" font-size="10.00">ocra::ObserverSubject</text>
</a>
</g>
</g>
<!-- Node4&#45;&gt;Node3 -->
<g id="edge3" class="edge"><title>Node4&#45;&gt;Node3</title>
<path fill="none" stroke="midnightblue" d="M484.932,-149.048C516.22,-158.524 558.501,-171.329 587.045,-179.974"/>
<polygon fill="midnightblue" stroke="midnightblue" points="485.776,-145.647 475.191,-146.098 483.747,-152.346 485.776,-145.647"/>
</g>
<!-- Node5 -->
<g id="node5" class="node"><title>Node5</title>
<g id="a_node5"><a xlink:href="../../d2/d45/classocra_1_1Observer.html" target="_top" xlink:title="ocra::Observer">
<polygon fill="white" stroke="black" points="226,-79 226,-98 307,-98 307,-79 226,-79"/>
<text text-anchor="middle" x="266.5" y="-86" font-family="Helvetica,sans-Serif" font-size="10.00">ocra::Observer</text>
</a>
</g>
</g>
<!-- Node5&#45;&gt;Node4 -->
<g id="edge4" class="edge"><title>Node5&#45;&gt;Node4</title>
<path fill="none" stroke="midnightblue" d="M312.313,-100.862C341.729,-108.977 379.636,-119.434 406.767,-126.918"/>
<polygon fill="midnightblue" stroke="midnightblue" points="312.864,-97.3835 302.293,-98.0982 311.002,-104.131 312.864,-97.3835"/>
</g>
<!-- Node6 -->
<g id="node6" class="node"><title>Node6</title>
<g id="a_node6"><a xlink:href="../../d4/dee/classocra_1_1ObserverBase.html" target="_top" xlink:title="ocra::ObserverBase\l\&lt; EVT_RESIZE \&gt;">
<polygon fill="white" stroke="black" points="42.5,-98.5 42.5,-128.5 146.5,-128.5 146.5,-98.5 42.5,-98.5"/>
<text text-anchor="start" x="50.5" y="-116.5" font-family="Helvetica,sans-Serif" font-size="10.00">ocra::ObserverBase</text>
<text text-anchor="middle" x="94.5" y="-105.5" font-family="Helvetica,sans-Serif" font-size="10.00">&lt; EVT_RESIZE &gt;</text>
</a>
</g>
</g>
<!-- Node6&#45;&gt;Node5 -->
<g id="edge5" class="edge"><title>Node6&#45;&gt;Node5</title>
<path fill="none" stroke="midnightblue" d="M156.557,-104.521C179.633,-101.128 205.272,-97.3571 225.877,-94.3269"/>
<polygon fill="midnightblue" stroke="midnightblue" points="155.89,-101.081 146.506,-105.999 156.908,-108.007 155.89,-101.081"/>
</g>
<!-- Node7 -->
<g id="node7" class="node"><title>Node7</title>
<g id="a_node7"><a xlink:href="../../d4/dee/classocra_1_1ObserverBase.html" target="_top" xlink:title="ocra::ObserverBase\l\&lt; EVT_CHANGE_DEPENDENCIES \&gt;">
<polygon fill="white" stroke="black" points="0,-49.5 0,-79.5 189,-79.5 189,-49.5 0,-49.5"/>
<text text-anchor="start" x="8" y="-67.5" font-family="Helvetica,sans-Serif" font-size="10.00">ocra::ObserverBase</text>
<text text-anchor="middle" x="94.5" y="-56.5" font-family="Helvetica,sans-Serif" font-size="10.00">&lt; EVT_CHANGE_DEPENDENCIES &gt;</text>
</a>
</g>
</g>
<!-- Node7&#45;&gt;Node5 -->
<g id="edge6" class="edge"><title>Node7&#45;&gt;Node5</title>
<path fill="none" stroke="midnightblue" d="M199.529,-79.1864C208.724,-80.4845 217.605,-81.7384 225.713,-82.883"/>
<polygon fill="midnightblue" stroke="midnightblue" points="199.841,-75.6959 189.45,-77.7635 198.863,-82.6272 199.841,-75.6959"/>
</g>
<!-- Node8 -->
<g id="node8" class="node"><title>Node8</title>
<g id="a_node8"><a xlink:href="../../d4/dee/classocra_1_1ObserverBase.html" target="_top" xlink:title="ocra::ObserverBase\l\&lt; EVT_CHANGE_VALUE \&gt;">
<polygon fill="white" stroke="black" points="24,-0.5 24,-30.5 165,-30.5 165,-0.5 24,-0.5"/>
<text text-anchor="start" x="32" y="-18.5" font-family="Helvetica,sans-Serif" font-size="10.00">ocra::ObserverBase</text>
<text text-anchor="middle" x="94.5" y="-7.5" font-family="Helvetica,sans-Serif" font-size="10.00">&lt; EVT_CHANGE_VALUE &gt;</text>
</a>
</g>
</g>
<!-- Node8&#45;&gt;Node5 -->
<g id="edge7" class="edge"><title>Node8&#45;&gt;Node5</title>
<path fill="none" stroke="midnightblue" d="M174.44,-33.8167C179.426,-35.5699 184.318,-37.4624 189,-39.5 213.296,-50.0735 238.649,-67.8718 253.209,-78.8588"/>
<polygon fill="midnightblue" stroke="midnightblue" points="175.361,-30.4347 164.768,-30.6156 173.162,-37.0803 175.361,-30.4347"/>
</g>
<!-- Node9 -->
<g id="node9" class="node"><title>Node9</title>
<g id="a_node9"><a xlink:href="../../dc/d77/classocra_1_1Subject.html" target="_top" xlink:title="ocra::Subject">
<polygon fill="white" stroke="black" points="229.5,-177 229.5,-196 303.5,-196 303.5,-177 229.5,-177"/>
<text text-anchor="middle" x="266.5" y="-184" font-family="Helvetica,sans-Serif" font-size="10.00">ocra::Subject</text>
</a>
</g>
</g>
<!-- Node9&#45;&gt;Node4 -->
<g id="edge8" class="edge"><title>Node9&#45;&gt;Node4</title>
<path fill="none" stroke="midnightblue" d="M310.471,-174.152C340.644,-165.482 380.412,-154.054 408.19,-146.072"/>
<polygon fill="midnightblue" stroke="midnightblue" points="309.282,-170.852 300.638,-176.978 311.215,-177.58 309.282,-170.852"/>
</g>
<!-- Node10 -->
<g id="node10" class="node"><title>Node10</title>
<g id="a_node10"><a xlink:href="../../dc/d29/classocra_1_1SubjectBase.html" target="_top" xlink:title="ocra::SubjectBase\&lt;\l EVT_RESIZE \&gt;">
<polygon fill="white" stroke="black" points="43,-245.5 43,-275.5 146,-275.5 146,-245.5 43,-245.5"/>
<text text-anchor="start" x="51" y="-263.5" font-family="Helvetica,sans-Serif" font-size="10.00">ocra::SubjectBase&lt;</text>
<text text-anchor="middle" x="94.5" y="-252.5" font-family="Helvetica,sans-Serif" font-size="10.00"> EVT_RESIZE &gt;</text>
</a>
</g>
</g>
<!-- Node10&#45;&gt;Node9 -->
<g id="edge9" class="edge"><title>Node10&#45;&gt;Node9</title>
<path fill="none" stroke="midnightblue" d="M155.81,-248.125C167.065,-244.95 178.562,-241.1 189,-236.5 213.537,-225.687 239.017,-207.36 253.501,-196.153"/>
<polygon fill="midnightblue" stroke="midnightblue" points="154.772,-244.779 146.015,-250.742 156.579,-251.542 154.772,-244.779"/>
</g>
<!-- Node11 -->
<g id="node11" class="node"><title>Node11</title>
<g id="a_node11"><a xlink:href="../../dc/d29/classocra_1_1SubjectBase.html" target="_top" xlink:title="ocra::SubjectBase\&lt;\l EVT_CHANGE_DEPENDENCIES \&gt;">
<polygon fill="white" stroke="black" points="3,-196.5 3,-226.5 186,-226.5 186,-196.5 3,-196.5"/>
<text text-anchor="start" x="11" y="-214.5" font-family="Helvetica,sans-Serif" font-size="10.00">ocra::SubjectBase&lt;</text>
<text text-anchor="middle" x="94.5" y="-203.5" font-family="Helvetica,sans-Serif" font-size="10.00"> EVT_CHANGE_DEPENDENCIES &gt;</text>
</a>
</g>
</g>
<!-- Node11&#45;&gt;Node9 -->
<g id="edge10" class="edge"><title>Node11&#45;&gt;Node9</title>
<path fill="none" stroke="midnightblue" d="M196.712,-196.616C208.269,-194.916 219.411,-193.278 229.239,-191.832"/>
<polygon fill="midnightblue" stroke="midnightblue" points="195.857,-193.204 186.472,-198.122 196.875,-200.129 195.857,-193.204"/>
</g>
<!-- Node12 -->
<g id="node12" class="node"><title>Node12</title>
<g id="a_node12"><a xlink:href="../../dc/d29/classocra_1_1SubjectBase.html" target="_top" xlink:title="ocra::SubjectBase\&lt;\l EVT_CHANGE_VALUE \&gt;">
<polygon fill="white" stroke="black" points="27,-147.5 27,-177.5 162,-177.5 162,-147.5 27,-147.5"/>
<text text-anchor="start" x="35" y="-165.5" font-family="Helvetica,sans-Serif" font-size="10.00">ocra::SubjectBase&lt;</text>
<text text-anchor="middle" x="94.5" y="-154.5" font-family="Helvetica,sans-Serif" font-size="10.00"> EVT_CHANGE_VALUE &gt;</text>
</a>
</g>
</g>
<!-- Node12&#45;&gt;Node9 -->
<g id="edge11" class="edge"><title>Node12&#45;&gt;Node9</title>
<path fill="none" stroke="midnightblue" d="M172.218,-173.331C192.126,-176.141 212.647,-179.038 229.355,-181.397"/>
<polygon fill="midnightblue" stroke="midnightblue" points="172.592,-169.849 162.201,-171.917 171.613,-176.78 172.592,-169.849"/>
</g>
<!-- Node13 -->
<g id="node13" class="node"><title>Node13</title>
<g id="a_node13"><a xlink:href="../../db/de3/classocra_1_1NamedInstance.html" target="_top" xlink:title="ocra::NamedInstance">
<polygon fill="white" stroke="black" points="387.5,-165 387.5,-184 497.5,-184 497.5,-165 387.5,-165"/>
<text text-anchor="middle" x="442.5" y="-172" font-family="Helvetica,sans-Serif" font-size="10.00">ocra::NamedInstance</text>
</a>
</g>
</g>
<!-- Node13&#45;&gt;Node3 -->
<g id="edge12" class="edge"><title>Node13&#45;&gt;Node3</title>
<path fill="none" stroke="midnightblue" d="M508.095,-180.037C534.112,-182.267 563.036,-184.746 584.75,-186.607"/>
<polygon fill="midnightblue" stroke="midnightblue" points="508.174,-176.531 497.912,-179.164 507.576,-183.505 508.174,-176.531"/>
</g>
<!-- Node14 -->
<g id="node14" class="node"><title>Node14</title>
<g id="a_node14"><a xlink:href="../../d5/d53/structocra_1_1OptimizationResult.html" target="_top" xlink:title="ocra::OptimizationResult">
<polygon fill="white" stroke="black" points="380,-203 380,-222 505,-222 505,-203 380,-203"/>
<text text-anchor="middle" x="442.5" y="-210" font-family="Helvetica,sans-Serif" font-size="10.00">ocra::OptimizationResult</text>
</a>
</g>
</g>
<!-- Node14&#45;&gt;Node3 -->
<g id="edge13" class="edge"><title>Node14&#45;&gt;Node3</title>
<path fill="none" stroke="#9a32cd" stroke-dasharray="5,2" d="M515.38,-203.053C539.419,-199.893 565.085,-196.52 584.797,-193.93"/>
<polygon fill="#9a32cd" stroke="#9a32cd" points="514.657,-199.618 505.198,-204.391 515.569,-206.558 514.657,-199.618"/>
<text text-anchor="middle" x="545" y="-204.5" font-family="Helvetica,sans-Serif" font-size="10.00"> _result</text>
</g>
<!-- Node15 -->
<g id="node15" class="node"><title>Node15</title>
<polygon fill="white" stroke="#bfbfbf" points="238,-241 238,-260 295,-260 295,-241 238,-241"/>
<text text-anchor="middle" x="266.5" y="-248" font-family="Helvetica,sans-Serif" font-size="10.00">VectorXd</text>
</g>
<!-- Node15&#45;&gt;Node1 -->
<g id="edge17" class="edge"><title>Node15&#45;&gt;Node1</title>
<path fill="none" stroke="#9a32cd" stroke-dasharray="5,2" d="M289.764,-265.9C321.789,-286.509 383.414,-320.5 441.5,-320.5 441.5,-320.5 441.5,-320.5 780,-320.5 840.425,-320.5 897.244,-267.618 922.203,-240.763"/>
<polygon fill="#9a32cd" stroke="#9a32cd" points="291.451,-262.82 281.177,-260.233 287.595,-268.662 291.451,-262.82"/>
<text text-anchor="middle" x="619.5" y="-400.5" font-family="Helvetica,sans-Serif" font-size="10.00"> _lbG</text>
<text text-anchor="middle" x="619.5" y="-389.5" font-family="Helvetica,sans-Serif" font-size="10.00">_ubA</text>
<text text-anchor="middle" x="619.5" y="-378.5" font-family="Helvetica,sans-Serif" font-size="10.00">_lbAandG</text>
<text text-anchor="middle" x="619.5" y="-367.5" font-family="Helvetica,sans-Serif" font-size="10.00">_xu</text>
<text text-anchor="middle" x="619.5" y="-356.5" font-family="Helvetica,sans-Serif" font-size="10.00">_ubG</text>
<text text-anchor="middle" x="619.5" y="-345.5" font-family="Helvetica,sans-Serif" font-size="10.00">_lbA</text>
<text text-anchor="middle" x="619.5" y="-334.5" font-family="Helvetica,sans-Serif" font-size="10.00">_xl</text>
<text text-anchor="middle" x="619.5" y="-323.5" font-family="Helvetica,sans-Serif" font-size="10.00">_ubAandG</text>
</g>
<!-- Node15&#45;&gt;Node2 -->
<g id="edge15" class="edge"><title>Node15&#45;&gt;Node2</title>
<path fill="none" stroke="#9a32cd" stroke-dasharray="5,2" d="M305.56,-248.636C395.247,-244.244 620.095,-233.233 723.912,-228.149"/>
<polygon fill="#9a32cd" stroke="#9a32cd" points="305.126,-245.153 295.309,-249.138 305.468,-252.145 305.126,-245.153"/>
<text text-anchor="middle" x="545" y="-284.5" font-family="Helvetica,sans-Serif" font-size="10.00"> Xsolution</text>
<text text-anchor="middle" x="545" y="-273.5" font-family="Helvetica,sans-Serif" font-size="10.00">_b</text>
<text text-anchor="middle" x="545" y="-262.5" font-family="Helvetica,sans-Serif" font-size="10.00">_d</text>
<text text-anchor="middle" x="545" y="-251.5" font-family="Helvetica,sans-Serif" font-size="10.00">_btotal</text>
<text text-anchor="middle" x="545" y="-240.5" font-family="Helvetica,sans-Serif" font-size="10.00">_h</text>
</g>
<!-- Node15&#45;&gt;Node14 -->
<g id="edge14" class="edge"><title>Node15&#45;&gt;Node14</title>
<path fill="none" stroke="#9a32cd" stroke-dasharray="5,2" d="M294.833,-236.629C304.186,-232.424 314.852,-228.206 325,-225.5 342.501,-220.833 361.914,-217.839 379.794,-215.92"/>
<polygon fill="#9a32cd" stroke="#9a32cd" points="293.206,-233.527 285.639,-240.943 296.179,-239.864 293.206,-233.527"/>
<text text-anchor="middle" x="343.5" y="-228.5" font-family="Helvetica,sans-Serif" font-size="10.00"> solution</text>
</g>
<!-- Node16 -->
<g id="node16" class="node"><title>Node16</title>
<polygon fill="white" stroke="#bfbfbf" points="591.5,-141 591.5,-160 647.5,-160 647.5,-141 591.5,-141"/>
<text text-anchor="middle" x="619.5" y="-148" font-family="Helvetica,sans-Serif" font-size="10.00">MatrixXd</text>
</g>
<!-- Node16&#45;&gt;Node1 -->
<g id="edge18" class="edge"><title>Node16&#45;&gt;Node1</title>
<path fill="none" stroke="#9a32cd" stroke-dasharray="5,2" d="M657.634,-147.312C672.728,-146.73 690.282,-146.965 706,-149.5 777.685,-161.061 857.291,-191.704 901.376,-210.359"/>
<polygon fill="#9a32cd" stroke="#9a32cd" points="657.437,-143.817 647.631,-147.828 657.797,-150.808 657.437,-143.817"/>
<text text-anchor="middle" x="779" y="-186.5" font-family="Helvetica,sans-Serif" font-size="10.00"> _RegTerm</text>
</g>
<!-- Node16&#45;&gt;Node2 -->
<g id="edge16" class="edge"><title>Node16&#45;&gt;Node2</title>
<path fill="none" stroke="#9a32cd" stroke-dasharray="5,2" d="M658.043,-151.68C673.463,-153.301 691.147,-156.672 706,-163.5 732.978,-175.902 757.614,-201.516 769.864,-215.631"/>
<polygon fill="#9a32cd" stroke="#9a32cd" points="658.05,-148.169 647.791,-150.818 657.463,-155.144 658.05,-148.169"/>
<text text-anchor="middle" x="689" y="-199.5" font-family="Helvetica,sans-Serif" font-size="10.00"> _Atotal</text>
<text text-anchor="middle" x="689" y="-188.5" font-family="Helvetica,sans-Serif" font-size="10.00">_A</text>
<text text-anchor="middle" x="689" y="-177.5" font-family="Helvetica,sans-Serif" font-size="10.00">_C</text>
<text text-anchor="middle" x="689" y="-166.5" font-family="Helvetica,sans-Serif" font-size="10.00">_G</text>
</g>
</g>
</svg>
