<?xml version="1.0" encoding="UTF-8" standalone="no"?>
<!DOCTYPE svg PUBLIC "-//W3C//DTD SVG 1.1//EN"
 "http://www.w3.org/Graphics/SVG/1.1/DTD/svg11.dtd">
<!-- Generated by graphviz version 2.38.0 (20140413.2041)
 -->
<!-- Title: FunctionUtilities.cpp Pages: 1 -->
<svg width="1487pt" height="397pt"
 viewBox="0.00 0.00 1487.00 397.00" xmlns="http://www.w3.org/2000/svg" xmlns:xlink="http://www.w3.org/1999/xlink">
<g id="graph0" class="graph" transform="scale(1 1) rotate(0) translate(4 393)">
<title>FunctionUtilities.cpp</title>
<polygon fill="white" stroke="none" points="-4,4 -4,-393 1483,-393 1483,4 -4,4"/>
<!-- Node1 -->
<g id="node1" class="node"><title>Node1</title>
<polygon fill="#bfbfbf" stroke="black" points="843.5,-369.5 843.5,-388.5 949.5,-388.5 949.5,-369.5 843.5,-369.5"/>
<text text-anchor="middle" x="896.5" y="-376.5" font-family="Helvetica,sans-Serif" font-size="10.00">FunctionUtilities.cpp</text>
</g>
<!-- Node2 -->
<g id="node2" class="node"><title>Node2</title>
<g id="a_node2"><a xlink:href="../../d1/d68/FunctionUtilities_8h.html" target="_top" xlink:title="Declaration file of the FunctionProperties class. ">
<polygon fill="white" stroke="black" points="662.5,-313.5 662.5,-332.5 806.5,-332.5 806.5,-313.5 662.5,-313.5"/>
<text text-anchor="middle" x="734.5" y="-320.5" font-family="Helvetica,sans-Serif" font-size="10.00">ocra/optim/FunctionUtilities.h</text>
</a>
</g>
</g>
<!-- Node1&#45;&gt;Node2 -->
<g id="edge1" class="edge"><title>Node1&#45;&gt;Node2</title>
<path fill="none" stroke="midnightblue" d="M870.831,-369.444C843.577,-360.359 800.316,-345.939 769.849,-335.783"/>
<polygon fill="midnightblue" stroke="midnightblue" points="770.643,-332.358 760.049,-332.516 768.429,-338.999 770.643,-332.358"/>
</g>
<!-- Node17 -->
<g id="node17" class="node"><title>Node17</title>
<g id="a_node17"><a xlink:href="../../d7/d90/Variable_8h.html" target="_top" xlink:title="Declaration file of the Variable class. ">
<polygon fill="white" stroke="black" points="874,-196 874,-215 983,-215 983,-196 874,-196"/>
<text text-anchor="middle" x="928.5" y="-203" font-family="Helvetica,sans-Serif" font-size="10.00">ocra/optim/Variable.h</text>
</a>
</g>
</g>
<!-- Node1&#45;&gt;Node17 -->
<g id="edge52" class="edge"><title>Node1&#45;&gt;Node17</title>
<path fill="none" stroke="midnightblue" d="M898.131,-369.26C903.117,-342.536 918.234,-261.517 925.074,-224.862"/>
<polygon fill="midnightblue" stroke="midnightblue" points="928.517,-225.492 926.91,-215.019 921.635,-224.208 928.517,-225.492"/>
</g>
<!-- Node35 -->
<g id="node35" class="node"><title>Node35</title>
<polygon fill="white" stroke="#bfbfbf" points="924.5,-313.5 924.5,-332.5 976.5,-332.5 976.5,-313.5 924.5,-313.5"/>
<text text-anchor="middle" x="950.5" y="-320.5" font-family="Helvetica,sans-Serif" font-size="10.00">sstream</text>
</g>
<!-- Node1&#45;&gt;Node35 -->
<g id="edge53" class="edge"><title>Node1&#45;&gt;Node35</title>
<path fill="none" stroke="midnightblue" d="M905.417,-369.083C913.28,-361.22 924.931,-349.569 934.419,-340.081"/>
<polygon fill="midnightblue" stroke="midnightblue" points="937.153,-342.297 941.749,-332.751 932.203,-337.347 937.153,-342.297"/>
</g>
<!-- Node3 -->
<g id="node3" class="node"><title>Node3</title>
<g id="a_node3"><a xlink:href="../../df/df5/Function_8h.html" target="_top" xlink:title="Declaration file of the Function class. ">
<polygon fill="white" stroke="black" points="555,-257.5 555,-276.5 666,-276.5 666,-257.5 555,-257.5"/>
<text text-anchor="middle" x="610.5" y="-264.5" font-family="Helvetica,sans-Serif" font-size="10.00">ocra/optim/Function.h</text>
</a>
</g>
</g>
<!-- Node2&#45;&gt;Node3 -->
<g id="edge2" class="edge"><title>Node2&#45;&gt;Node3</title>
<path fill="none" stroke="midnightblue" d="M714.852,-313.444C694.535,-304.596 662.597,-290.687 639.402,-280.586"/>
<polygon fill="midnightblue" stroke="midnightblue" points="640.622,-277.3 630.056,-276.516 637.827,-283.718 640.622,-277.3"/>
</g>
<!-- Node4 -->
<g id="node4" class="node"><title>Node4</title>
<g id="a_node4"><a xlink:href="../../de/d94/IFunction_8h.html" target="_top" xlink:title="Declaration file of the IFunction interface. ">
<polygon fill="white" stroke="black" points="194.5,-134.5 194.5,-153.5 308.5,-153.5 308.5,-134.5 194.5,-134.5"/>
<text text-anchor="middle" x="251.5" y="-141.5" font-family="Helvetica,sans-Serif" font-size="10.00">ocra/optim/IFunction.h</text>
</a>
</g>
</g>
<!-- Node3&#45;&gt;Node4 -->
<g id="edge3" class="edge"><title>Node3&#45;&gt;Node4</title>
<path fill="none" stroke="midnightblue" d="M554.864,-264.191C445.036,-260.045 208.846,-248.053 184.5,-221 175.284,-210.759 178.02,-202.159 184.5,-190 192.05,-175.834 206.261,-165.335 219.658,-158.058"/>
<polygon fill="midnightblue" stroke="midnightblue" points="221.334,-161.133 228.712,-153.529 218.202,-154.872 221.334,-161.133"/>
</g>
<!-- Node13 -->
<g id="node13" class="node"><title>Node13</title>
<g id="a_node13"><a xlink:href="../../d9/d54/IFunctionProperties_8h.html" target="_top" xlink:title="ocra/optim/IFunctionProperties.h">
<polygon fill="white" stroke="black" points="327.5,-196 327.5,-215 485.5,-215 485.5,-196 327.5,-196"/>
<text text-anchor="middle" x="406.5" y="-203" font-family="Helvetica,sans-Serif" font-size="10.00">ocra/optim/IFunctionProperties.h</text>
</a>
</g>
</g>
<!-- Node3&#45;&gt;Node13 -->
<g id="edge12" class="edge"><title>Node3&#45;&gt;Node13</title>
<path fill="none" stroke="midnightblue" d="M581.272,-257.475C545.597,-247.07 485.14,-229.437 445.518,-217.88"/>
<polygon fill="midnightblue" stroke="midnightblue" points="446.254,-214.449 435.674,-215.009 444.294,-221.169 446.254,-214.449"/>
</g>
<!-- Node15 -->
<g id="node15" class="node"><title>Node15</title>
<g id="a_node15"><a xlink:href="../../db/d47/AbilitySet_8h.html" target="_top" xlink:title="ocra/optim/AbilitySet.h">
<polygon fill="white" stroke="black" points="193.5,-196 193.5,-215 309.5,-215 309.5,-196 193.5,-196"/>
<text text-anchor="middle" x="251.5" y="-203" font-family="Helvetica,sans-Serif" font-size="10.00">ocra/optim/AbilitySet.h</text>
</a>
</g>
</g>
<!-- Node3&#45;&gt;Node15 -->
<g id="edge15" class="edge"><title>Node3&#45;&gt;Node15</title>
<path fill="none" stroke="midnightblue" d="M554.897,-258.447C496.023,-250.213 400.459,-236.17 318.5,-221 312.203,-219.834 305.592,-218.518 299.079,-217.166"/>
<polygon fill="midnightblue" stroke="midnightblue" points="299.49,-213.676 288.982,-215.028 298.04,-220.524 299.49,-213.676"/>
</g>
<!-- Node16 -->
<g id="node16" class="node"><title>Node16</title>
<g id="a_node16"><a xlink:href="../../d1/d87/CoupledInputOutputSize_8h.html" target="_top" xlink:title="ocra/optim/CoupledInputOutput\lSize.h">
<polygon fill="white" stroke="black" points="503.5,-190.5 503.5,-220.5 655.5,-220.5 655.5,-190.5 503.5,-190.5"/>
<text text-anchor="start" x="511.5" y="-208.5" font-family="Helvetica,sans-Serif" font-size="10.00">ocra/optim/CoupledInputOutput</text>
<text text-anchor="middle" x="579.5" y="-197.5" font-family="Helvetica,sans-Serif" font-size="10.00">Size.h</text>
</a>
</g>
</g>
<!-- Node3&#45;&gt;Node16 -->
<g id="edge18" class="edge"><title>Node3&#45;&gt;Node16</title>
<path fill="none" stroke="midnightblue" d="M606.058,-257.475C602.252,-250.17 596.59,-239.302 591.47,-229.475"/>
<polygon fill="midnightblue" stroke="midnightblue" points="594.531,-227.774 586.806,-220.523 588.323,-231.009 594.531,-227.774"/>
</g>
<!-- Node3&#45;&gt;Node17 -->
<g id="edge19" class="edge"><title>Node3&#45;&gt;Node17</title>
<path fill="none" stroke="midnightblue" d="M660.183,-257.448C710.497,-248.687 790.517,-234.479 859.5,-221 865.728,-219.783 872.264,-218.464 878.727,-217.135"/>
<polygon fill="midnightblue" stroke="midnightblue" points="879.688,-220.51 888.768,-215.05 878.265,-213.656 879.688,-220.51"/>
</g>
<!-- Node18 -->
<g id="node18" class="node"><title>Node18</title>
<g id="a_node18"><a xlink:href="../../d8/ddc/ObserverSubject_8h.html" target="_top" xlink:title="Declaration file of the Observer, Subject and ObserverSubject classes. ">
<polygon fill="white" stroke="black" points="764.5,-134.5 764.5,-153.5 910.5,-153.5 910.5,-134.5 764.5,-134.5"/>
<text text-anchor="middle" x="837.5" y="-141.5" font-family="Helvetica,sans-Serif" font-size="10.00">ocra/optim/ObserverSubject.h</text>
</a>
</g>
</g>
<!-- Node3&#45;&gt;Node18 -->
<g id="edge49" class="edge"><title>Node3&#45;&gt;Node18</title>
<path fill="none" stroke="midnightblue" d="M666.008,-261.467C722.272,-255.677 804.01,-243.586 825.5,-221 839.927,-205.838 841.189,-180.767 839.997,-163.596"/>
<polygon fill="midnightblue" stroke="midnightblue" points="843.478,-163.225 838.973,-153.636 836.515,-163.941 843.478,-163.225"/>
</g>
<!-- Node34 -->
<g id="node34" class="node"><title>Node34</title>
<g id="a_node34"><a xlink:href="../../df/d97/NamedInstance_8h.html" target="_top" xlink:title="ocra/optim/NamedInstance.h">
<polygon fill="white" stroke="black" points="674,-196 674,-215 817,-215 817,-196 674,-196"/>
<text text-anchor="middle" x="745.5" y="-203" font-family="Helvetica,sans-Serif" font-size="10.00">ocra/optim/NamedInstance.h</text>
</a>
</g>
</g>
<!-- Node3&#45;&gt;Node34 -->
<g id="edge50" class="edge"><title>Node3&#45;&gt;Node34</title>
<path fill="none" stroke="midnightblue" d="M629.842,-257.475C652.599,-247.445 690.592,-230.7 716.788,-219.155"/>
<polygon fill="midnightblue" stroke="midnightblue" points="718.455,-222.245 726.194,-215.009 715.631,-215.839 718.455,-222.245"/>
</g>
<!-- Node5 -->
<g id="node5" class="node"><title>Node5</title>
<g id="a_node5"><a xlink:href="../../d5/d55/MathTypes_8h.html" target="_top" xlink:title="Declaration file of the OptimizationVariable class. ">
<polygon fill="white" stroke="black" points="19,-73 19,-92 130,-92 130,-73 19,-73"/>
<text text-anchor="middle" x="74.5" y="-80" font-family="Helvetica,sans-Serif" font-size="10.00">ocra/util/MathTypes.h</text>
</a>
</g>
</g>
<!-- Node4&#45;&gt;Node5 -->
<g id="edge4" class="edge"><title>Node4&#45;&gt;Node5</title>
<path fill="none" stroke="midnightblue" d="M226.14,-134.475C195.516,-124.18 143.843,-106.81 109.454,-95.2502"/>
<polygon fill="midnightblue" stroke="midnightblue" points="110.407,-91.8779 99.8127,-92.0091 108.176,-98.5131 110.407,-91.8779"/>
</g>
<!-- Node8 -->
<g id="node8" class="node"><title>Node8</title>
<g id="a_node8"><a xlink:href="../../de/df3/ocra__assert_8h.html" target="_top" xlink:title="ocra/optim/ocra_assert.h">
<polygon fill="white" stroke="black" points="221,-73 221,-92 346,-92 346,-73 221,-73"/>
<text text-anchor="middle" x="283.5" y="-80" font-family="Helvetica,sans-Serif" font-size="10.00">ocra/optim/ocra_assert.h</text>
</a>
</g>
</g>
<!-- Node4&#45;&gt;Node8 -->
<g id="edge7" class="edge"><title>Node4&#45;&gt;Node8</title>
<path fill="none" stroke="midnightblue" d="M256.085,-134.475C260.742,-125.815 268.092,-112.149 274.01,-101.145"/>
<polygon fill="midnightblue" stroke="midnightblue" points="277.27,-102.474 278.924,-92.0091 271.105,-99.1584 277.27,-102.474"/>
</g>
<!-- Node10 -->
<g id="node10" class="node"><title>Node10</title>
<polygon fill="white" stroke="#bfbfbf" points="148.5,-73 148.5,-92 202.5,-92 202.5,-73 148.5,-73"/>
<text text-anchor="middle" x="175.5" y="-80" font-family="Helvetica,sans-Serif" font-size="10.00">iostream</text>
</g>
<!-- Node4&#45;&gt;Node10 -->
<g id="edge9" class="edge"><title>Node4&#45;&gt;Node10</title>
<path fill="none" stroke="midnightblue" d="M240.611,-134.475C228.534,-125.02 208.833,-109.596 194.26,-98.1871"/>
<polygon fill="midnightblue" stroke="midnightblue" points="196.4,-95.4177 186.369,-92.0091 192.085,-100.929 196.4,-95.4177"/>
</g>
<!-- Node11 -->
<g id="node11" class="node"><title>Node11</title>
<polygon fill="white" stroke="#bfbfbf" points="363.5,-73 363.5,-92 407.5,-92 407.5,-73 363.5,-73"/>
<text text-anchor="middle" x="385.5" y="-80" font-family="Helvetica,sans-Serif" font-size="10.00">vector</text>
</g>
<!-- Node4&#45;&gt;Node11 -->
<g id="edge10" class="edge"><title>Node4&#45;&gt;Node11</title>
<path fill="none" stroke="midnightblue" d="M271.699,-134.357C292.515,-125.407 325.873,-110.946 354.5,-98 355.688,-97.4629 356.899,-96.9114 358.122,-96.3519"/>
<polygon fill="midnightblue" stroke="midnightblue" points="359.898,-99.3871 367.504,-92.0123 356.959,-93.0338 359.898,-99.3871"/>
</g>
<!-- Node12 -->
<g id="node12" class="node"><title>Node12</title>
<polygon fill="white" stroke="#bfbfbf" points="426,-73 426,-92 485,-92 485,-73 426,-73"/>
<text text-anchor="middle" x="455.5" y="-80" font-family="Helvetica,sans-Serif" font-size="10.00">stdexcept</text>
</g>
<!-- Node4&#45;&gt;Node12 -->
<g id="edge11" class="edge"><title>Node4&#45;&gt;Node12</title>
<path fill="none" stroke="midnightblue" d="M286.212,-134.498C319.786,-126.049 371.98,-112.315 416.5,-98 418.907,-97.2261 421.385,-96.3927 423.869,-95.5307"/>
<polygon fill="midnightblue" stroke="midnightblue" points="425.117,-98.8014 433.346,-92.1286 422.752,-92.213 425.117,-98.8014"/>
</g>
<!-- Node6 -->
<g id="node6" class="node"><title>Node6</title>
<polygon fill="white" stroke="#bfbfbf" points="0,-6 0,-25 73,-25 73,-6 0,-6"/>
<text text-anchor="middle" x="36.5" y="-13" font-family="Helvetica,sans-Serif" font-size="10.00">Eigen/Dense</text>
</g>
<!-- Node5&#45;&gt;Node6 -->
<g id="edge5" class="edge"><title>Node5&#45;&gt;Node6</title>
<path fill="none" stroke="midnightblue" d="M69.3752,-72.7338C63.5635,-62.7928 53.9436,-46.3377 46.6075,-33.7892"/>
<polygon fill="midnightblue" stroke="midnightblue" points="49.6122,-31.9938 41.5437,-25.1273 43.5691,-35.5267 49.6122,-31.9938"/>
</g>
<!-- Node7 -->
<g id="node7" class="node"><title>Node7</title>
<polygon fill="white" stroke="#bfbfbf" points="91.5,-6 91.5,-25 135.5,-25 135.5,-6 91.5,-6"/>
<text text-anchor="middle" x="113.5" y="-13" font-family="Helvetica,sans-Serif" font-size="10.00">cmath</text>
</g>
<!-- Node5&#45;&gt;Node7 -->
<g id="edge6" class="edge"><title>Node5&#45;&gt;Node7</title>
<path fill="none" stroke="midnightblue" d="M79.7597,-72.7338C85.7243,-62.7928 95.5974,-46.3377 103.126,-33.7892"/>
<polygon fill="midnightblue" stroke="midnightblue" points="106.18,-35.503 108.324,-25.1273 100.177,-31.9015 106.18,-35.503"/>
</g>
<!-- Node9 -->
<g id="node9" class="node"><title>Node9</title>
<polygon fill="white" stroke="#bfbfbf" points="262,-6 262,-25 305,-25 305,-6 262,-6"/>
<text text-anchor="middle" x="283.5" y="-13" font-family="Helvetica,sans-Serif" font-size="10.00">cstdio</text>
</g>
<!-- Node8&#45;&gt;Node9 -->
<g id="edge8" class="edge"><title>Node8&#45;&gt;Node9</title>
<path fill="none" stroke="midnightblue" d="M283.5,-72.7338C283.5,-63.1826 283.5,-47.6183 283.5,-35.2829"/>
<polygon fill="midnightblue" stroke="midnightblue" points="287,-35.1273 283.5,-25.1273 280,-35.1273 287,-35.1273"/>
</g>
<!-- Node13&#45;&gt;Node11 -->
<g id="edge14" class="edge"><title>Node13&#45;&gt;Node11</title>
<path fill="none" stroke="midnightblue" d="M404.99,-195.798C401.599,-176.263 393.321,-128.565 388.719,-102.047"/>
<polygon fill="midnightblue" stroke="midnightblue" points="392.155,-101.377 386.997,-92.1232 385.258,-102.574 392.155,-101.377"/>
</g>
<!-- Node14 -->
<g id="node14" class="node"><title>Node14</title>
<polygon fill="white" stroke="#bfbfbf" points="667,-134.5 667,-153.5 708,-153.5 708,-134.5 667,-134.5"/>
<text text-anchor="middle" x="687.5" y="-141.5" font-family="Helvetica,sans-Serif" font-size="10.00">string</text>
</g>
<!-- Node13&#45;&gt;Node14 -->
<g id="edge13" class="edge"><title>Node13&#45;&gt;Node14</title>
<path fill="none" stroke="midnightblue" d="M446.76,-195.975C503.432,-183.975 605.503,-162.362 656.6,-151.543"/>
<polygon fill="midnightblue" stroke="midnightblue" points="657.637,-154.901 666.695,-149.405 656.187,-148.053 657.637,-154.901"/>
</g>
<!-- Node15&#45;&gt;Node4 -->
<g id="edge16" class="edge"><title>Node15&#45;&gt;Node4</title>
<path fill="none" stroke="midnightblue" d="M251.5,-195.975C251.5,-187.58 251.5,-174.481 251.5,-163.663"/>
<polygon fill="midnightblue" stroke="midnightblue" points="255,-163.509 251.5,-153.509 248,-163.509 255,-163.509"/>
</g>
<!-- Node15&#45;&gt;Node11 -->
<g id="edge17" class="edge"><title>Node15&#45;&gt;Node11</title>
<path fill="none" stroke="midnightblue" d="M264.103,-195.723C277.721,-186.045 299.841,-169.749 317.5,-154 337.021,-136.591 357.632,-114.651 370.976,-99.9099"/>
<polygon fill="midnightblue" stroke="midnightblue" points="373.863,-101.934 377.93,-92.151 368.65,-97.2617 373.863,-101.934"/>
</g>
<!-- Node17&#45;&gt;Node11 -->
<g id="edge48" class="edge"><title>Node17&#45;&gt;Node11</title>
<path fill="none" stroke="midnightblue" d="M891.708,-195.921C856.214,-187.143 801.283,-172.23 755.5,-154 737.402,-146.794 735.129,-139.694 716.5,-134 588.075,-94.7459 545.617,-134.914 416.5,-98 414.572,-97.4488 412.613,-96.7909 410.666,-96.064"/>
<polygon fill="midnightblue" stroke="midnightblue" points="411.785,-92.7363 401.214,-92.0295 409.037,-99.1743 411.785,-92.7363"/>
</g>
<!-- Node17&#45;&gt;Node14 -->
<g id="edge47" class="edge"><title>Node17&#45;&gt;Node14</title>
<path fill="none" stroke="midnightblue" d="M893.112,-195.953C852.05,-186.006 782.321,-169.023 722.5,-154 721.055,-153.637 719.576,-153.264 718.084,-152.886"/>
<polygon fill="midnightblue" stroke="midnightblue" points="718.773,-149.45 708.218,-150.369 717.043,-156.232 718.773,-149.45"/>
</g>
<!-- Node17&#45;&gt;Node18 -->
<g id="edge20" class="edge"><title>Node17&#45;&gt;Node18</title>
<path fill="none" stroke="midnightblue" d="M915.462,-195.975C900.731,-186.343 876.527,-170.517 858.991,-159.052"/>
<polygon fill="midnightblue" stroke="midnightblue" points="860.799,-156.052 850.514,-153.509 856.968,-161.911 860.799,-156.052"/>
</g>
<!-- Node29 -->
<g id="node29" class="node"><title>Node29</title>
<g id="a_node29"><a xlink:href="../../d1/de6/Composite_8h.html" target="_top" xlink:title="Utility classes and functions to implement the Composite design pattern. ">
<polygon fill="white" stroke="black" points="958,-134.5 958,-153.5 1079,-153.5 1079,-134.5 958,-134.5"/>
<text text-anchor="middle" x="1018.5" y="-141.5" font-family="Helvetica,sans-Serif" font-size="10.00">ocra/optim/Composite.h</text>
</a>
</g>
</g>
<!-- Node17&#45;&gt;Node29 -->
<g id="edge34" class="edge"><title>Node17&#45;&gt;Node29</title>
<path fill="none" stroke="midnightblue" d="M941.395,-195.975C955.964,-186.343 979.902,-170.517 997.245,-159.052"/>
<polygon fill="midnightblue" stroke="midnightblue" points="999.217,-161.944 1005.63,-153.509 995.357,-156.104 999.217,-161.944"/>
</g>
<!-- Node30 -->
<g id="node30" class="node"><title>Node30</title>
<polygon fill="white" stroke="#bfbfbf" points="1362,-73 1362,-92 1479,-92 1479,-73 1362,-73"/>
<text text-anchor="middle" x="1420.5" y="-80" font-family="Helvetica,sans-Serif" font-size="10.00">boost/noncopyable.hpp</text>
</g>
<!-- Node17&#45;&gt;Node30 -->
<g id="edge46" class="edge"><title>Node17&#45;&gt;Node30</title>
<path fill="none" stroke="midnightblue" d="M960.938,-195.993C993.668,-187.009 1045.39,-171.71 1088.5,-154 1106.52,-146.598 1108.98,-140.052 1127.5,-134 1224.18,-102.401 1253.54,-116.764 1353.5,-98 1359.72,-96.8329 1366.24,-95.5253 1372.68,-94.1859"/>
<polygon fill="midnightblue" stroke="midnightblue" points="1373.6,-97.5675 1382.66,-92.0705 1372.15,-90.7196 1373.6,-97.5675"/>
</g>
<!-- Node33 -->
<g id="node33" class="node"><title>Node33</title>
<polygon fill="white" stroke="#bfbfbf" points="1136,-134.5 1136,-153.5 1205,-153.5 1205,-134.5 1136,-134.5"/>
<text text-anchor="middle" x="1170.5" y="-141.5" font-family="Helvetica,sans-Serif" font-size="10.00">Eigen/Eigen</text>
</g>
<!-- Node17&#45;&gt;Node33 -->
<g id="edge45" class="edge"><title>Node17&#45;&gt;Node33</title>
<path fill="none" stroke="midnightblue" d="M963.173,-195.975C1006.03,-185.437 1079.04,-167.486 1126,-155.941"/>
<polygon fill="midnightblue" stroke="midnightblue" points="1127.02,-159.296 1135.89,-153.509 1125.35,-152.498 1127.02,-159.296"/>
</g>
<!-- Node19 -->
<g id="node19" class="node"><title>Node19</title>
<g id="a_node19"><a xlink:href="../../df/d67/ObserverSubjectBase_8h.html" target="_top" xlink:title="Declaration file of the Observer and Subject base classes. ">
<polygon fill="white" stroke="black" points="541.5,-67.5 541.5,-97.5 679.5,-97.5 679.5,-67.5 541.5,-67.5"/>
<text text-anchor="start" x="549.5" y="-85.5" font-family="Helvetica,sans-Serif" font-size="10.00">ocra/optim/ObserverSubject</text>
<text text-anchor="middle" x="610.5" y="-74.5" font-family="Helvetica,sans-Serif" font-size="10.00">Base.h</text>
</a>
</g>
</g>
<!-- Node18&#45;&gt;Node19 -->
<g id="edge21" class="edge"><title>Node18&#45;&gt;Node19</title>
<path fill="none" stroke="midnightblue" d="M804.976,-134.475C770.856,-125.532 716.364,-111.249 673.731,-100.074"/>
<polygon fill="midnightblue" stroke="midnightblue" points="674.56,-96.6729 663.999,-97.523 672.785,-103.444 674.56,-96.6729"/>
</g>
<!-- Node23 -->
<g id="node23" class="node"><title>Node23</title>
<polygon fill="white" stroke="#bfbfbf" points="375.5,-0.5 375.5,-30.5 475.5,-30.5 475.5,-0.5 375.5,-0.5"/>
<text text-anchor="start" x="383.5" y="-18.5" font-family="Helvetica,sans-Serif" font-size="10.00">boost/type_traits/is</text>
<text text-anchor="middle" x="425.5" y="-7.5" font-family="Helvetica,sans-Serif" font-size="10.00">_class.hpp</text>
</g>
<!-- Node18&#45;&gt;Node23 -->
<g id="edge33" class="edge"><title>Node18&#45;&gt;Node23</title>
<path fill="none" stroke="midnightblue" d="M766.264,-134.466C682.904,-124.172 553.525,-107.114 532.5,-98 512.185,-89.1934 511.057,-80.4914 493.5,-67 480.331,-56.8809 465.547,-45.8616 453.136,-36.7058"/>
<polygon fill="midnightblue" stroke="midnightblue" points="455.101,-33.8061 444.972,-30.6988 450.952,-39.4444 455.101,-33.8061"/>
</g>
<!-- Node24 -->
<g id="node24" class="node"><title>Node24</title>
<polygon fill="white" stroke="#bfbfbf" points="859.5,-0.5 859.5,-30.5 959.5,-30.5 959.5,-0.5 859.5,-0.5"/>
<text text-anchor="start" x="867.5" y="-18.5" font-family="Helvetica,sans-Serif" font-size="10.00">boost/type_traits/is</text>
<text text-anchor="middle" x="909.5" y="-7.5" font-family="Helvetica,sans-Serif" font-size="10.00">_base_of.hpp</text>
</g>
<!-- Node18&#45;&gt;Node24 -->
<g id="edge31" class="edge"><title>Node18&#45;&gt;Node24</title>
<path fill="none" stroke="midnightblue" d="M787.726,-134.45C766.672,-128.104 744.134,-117.089 731.5,-98 723.896,-86.5107 723.193,-77.9918 731.5,-67 735.234,-62.0598 799.066,-44.745 849.233,-31.7577"/>
<polygon fill="midnightblue" stroke="midnightblue" points="850.254,-35.1092 859.063,-29.2229 848.506,-28.3309 850.254,-35.1092"/>
</g>
<!-- Node25 -->
<g id="node25" class="node"><title>Node25</title>
<polygon fill="white" stroke="#bfbfbf" points="978,-6 978,-25 1097,-25 1097,-6 978,-6"/>
<text text-anchor="middle" x="1037.5" y="-13" font-family="Helvetica,sans-Serif" font-size="10.00">boost/static_assert.hpp</text>
</g>
<!-- Node18&#45;&gt;Node25 -->
<g id="edge30" class="edge"><title>Node18&#45;&gt;Node25</title>
<path fill="none" stroke="midnightblue" d="M811.289,-134.414C794.65,-127.445 774.443,-115.809 764.5,-98 757.784,-85.9701 755.645,-77.555 764.5,-67 794.088,-31.734 923.302,-39.7346 968.5,-31 974.81,-29.7806 981.433,-28.4516 987.977,-27.1091"/>
<polygon fill="midnightblue" stroke="midnightblue" points="989.056,-30.4599 998.137,-25.0022 987.634,-23.6057 989.056,-30.4599"/>
</g>
<!-- Node27 -->
<g id="node27" class="node"><title>Node27</title>
<g id="a_node27"><a xlink:href="../../db/ddf/ocra__events_8h.html" target="_top" xlink:title="ocra/optim/ocra_events.h">
<polygon fill="white" stroke="black" points="774,-73 774,-92 901,-92 901,-73 774,-73"/>
<text text-anchor="middle" x="837.5" y="-80" font-family="Helvetica,sans-Serif" font-size="10.00">ocra/optim/ocra_events.h</text>
</a>
</g>
</g>
<!-- Node18&#45;&gt;Node27 -->
<g id="edge29" class="edge"><title>Node18&#45;&gt;Node27</title>
<path fill="none" stroke="midnightblue" d="M837.5,-134.475C837.5,-126.08 837.5,-112.981 837.5,-102.163"/>
<polygon fill="midnightblue" stroke="midnightblue" points="841,-102.009 837.5,-92.0091 834,-102.009 841,-102.009"/>
</g>
<!-- Node28 -->
<g id="node28" class="node"><title>Node28</title>
<polygon fill="white" stroke="#bfbfbf" points="919.5,-67.5 919.5,-97.5 1019.5,-97.5 1019.5,-67.5 919.5,-67.5"/>
<text text-anchor="start" x="927.5" y="-85.5" font-family="Helvetica,sans-Serif" font-size="10.00">boost/type_traits/is</text>
<text text-anchor="middle" x="969.5" y="-74.5" font-family="Helvetica,sans-Serif" font-size="10.00">_convertible.hpp</text>
</g>
<!-- Node18&#45;&gt;Node28 -->
<g id="edge32" class="edge"><title>Node18&#45;&gt;Node28</title>
<path fill="none" stroke="midnightblue" d="M856.412,-134.475C875.292,-125.965 904.899,-112.619 929.084,-101.718"/>
<polygon fill="midnightblue" stroke="midnightblue" points="930.712,-104.823 938.39,-97.523 927.835,-98.4416 930.712,-104.823"/>
</g>
<!-- Node20 -->
<g id="node20" class="node"><title>Node20</title>
<polygon fill="white" stroke="#bfbfbf" points="494,-6 494,-25 553,-25 553,-6 494,-6"/>
<text text-anchor="middle" x="523.5" y="-13" font-family="Helvetica,sans-Serif" font-size="10.00">functional</text>
</g>
<!-- Node19&#45;&gt;Node20 -->
<g id="edge22" class="edge"><title>Node19&#45;&gt;Node20</title>
<path fill="none" stroke="midnightblue" d="M591.622,-67.396C577.386,-56.7593 557.902,-42.2028 543.418,-31.3813"/>
<polygon fill="midnightblue" stroke="midnightblue" points="545.243,-28.376 535.137,-25.1945 541.054,-33.9837 545.243,-28.376"/>
</g>
<!-- Node21 -->
<g id="node21" class="node"><title>Node21</title>
<polygon fill="white" stroke="#bfbfbf" points="785.5,-6 785.5,-25 841.5,-25 841.5,-6 785.5,-6"/>
<text text-anchor="middle" x="813.5" y="-13" font-family="Helvetica,sans-Serif" font-size="10.00">algorithm</text>
</g>
<!-- Node19&#45;&gt;Node21 -->
<g id="edge23" class="edge"><title>Node19&#45;&gt;Node21</title>
<path fill="none" stroke="midnightblue" d="M660.22,-67.4775C693.37,-57.8582 737.801,-44.4461 776.5,-31 778.618,-30.2641 780.795,-29.4813 782.981,-28.6754"/>
<polygon fill="midnightblue" stroke="midnightblue" points="784.37,-31.892 792.474,-25.0683 781.883,-25.3484 784.37,-31.892"/>
</g>
<!-- Node22 -->
<g id="node22" class="node"><title>Node22</title>
<polygon fill="white" stroke="#bfbfbf" points="571.5,-6 571.5,-25 649.5,-25 649.5,-6 571.5,-6"/>
<text text-anchor="middle" x="610.5" y="-13" font-family="Helvetica,sans-Serif" font-size="10.00">boost/any.hpp</text>
</g>
<!-- Node19&#45;&gt;Node22 -->
<g id="edge24" class="edge"><title>Node19&#45;&gt;Node22</title>
<path fill="none" stroke="midnightblue" d="M610.5,-67.396C610.5,-58.0638 610.5,-45.7143 610.5,-35.5173"/>
<polygon fill="midnightblue" stroke="midnightblue" points="614,-35.1945 610.5,-25.1945 607,-35.1946 614,-35.1945"/>
</g>
<!-- Node19&#45;&gt;Node23 -->
<g id="edge25" class="edge"><title>Node19&#45;&gt;Node23</title>
<path fill="none" stroke="midnightblue" d="M570.358,-67.396C542.479,-57.6006 505.138,-44.4809 475.351,-34.0153"/>
<polygon fill="midnightblue" stroke="midnightblue" points="476.159,-30.5893 465.564,-30.5765 473.838,-37.1935 476.159,-30.5893"/>
</g>
<!-- Node19&#45;&gt;Node24 -->
<g id="edge26" class="edge"><title>Node19&#45;&gt;Node24</title>
<path fill="none" stroke="midnightblue" d="M679.69,-67.5825C725.271,-58.2652 786.51,-45.4661 849.237,-31.2488"/>
<polygon fill="midnightblue" stroke="midnightblue" points="850.341,-34.5871 859.315,-28.9551 848.788,-27.7617 850.341,-34.5871"/>
</g>
<!-- Node19&#45;&gt;Node25 -->
<g id="edge27" class="edge"><title>Node19&#45;&gt;Node25</title>
<path fill="none" stroke="midnightblue" d="M679.681,-73.1376C751.947,-64.0757 868.499,-48.5402 968.5,-31 975.224,-29.8207 982.292,-28.4671 989.236,-27.0712"/>
<polygon fill="midnightblue" stroke="midnightblue" points="990.175,-30.4515 999.266,-25.011 988.767,-23.5946 990.175,-30.4515"/>
</g>
<!-- Node26 -->
<g id="node26" class="node"><title>Node26</title>
<polygon fill="white" stroke="#bfbfbf" points="667.5,-0.5 667.5,-30.5 767.5,-30.5 767.5,-0.5 667.5,-0.5"/>
<text text-anchor="start" x="675.5" y="-18.5" font-family="Helvetica,sans-Serif" font-size="10.00">boost/ptr_container</text>
<text text-anchor="middle" x="717.5" y="-7.5" font-family="Helvetica,sans-Serif" font-size="10.00">/ptr_vector.hpp</text>
</g>
<!-- Node19&#45;&gt;Node26 -->
<g id="edge28" class="edge"><title>Node19&#45;&gt;Node26</title>
<path fill="none" stroke="midnightblue" d="M633.717,-67.396C648.861,-58.1968 668.83,-46.0658 685.475,-35.9546"/>
<polygon fill="midnightblue" stroke="midnightblue" points="687.598,-38.7597 694.328,-30.5765 683.964,-32.7771 687.598,-38.7597"/>
</g>
<!-- Node29&#45;&gt;Node8 -->
<g id="edge35" class="edge"><title>Node29&#45;&gt;Node8</title>
<path fill="none" stroke="midnightblue" d="M957.789,-137.219C945.14,-136.089 931.889,-134.958 919.5,-134 668.628,-114.608 603.913,-131.253 354.5,-98 346.696,-96.9596 338.465,-95.5614 330.482,-94.0425"/>
<polygon fill="midnightblue" stroke="midnightblue" points="331.043,-90.5857 320.553,-92.0718 329.681,-97.4518 331.043,-90.5857"/>
</g>
<!-- Node29&#45;&gt;Node11 -->
<g id="edge41" class="edge"><title>Node29&#45;&gt;Node11</title>
<path fill="none" stroke="midnightblue" d="M957.783,-137.295C945.135,-136.158 931.885,-135.006 919.5,-134 696.108,-115.853 633.409,-154.422 416.5,-98 414.516,-97.484 412.504,-96.8437 410.507,-96.122"/>
<polygon fill="midnightblue" stroke="midnightblue" points="411.427,-92.7104 400.853,-92.0337 408.697,-99.1563 411.427,-92.7104"/>
</g>
<!-- Node29&#45;&gt;Node12 -->
<g id="edge44" class="edge"><title>Node29&#45;&gt;Node12</title>
<path fill="none" stroke="midnightblue" d="M957.535,-137.43C829.375,-125.711 542.911,-99.4589 532.5,-98 520.309,-96.2916 507.116,-93.9793 495.152,-91.7033"/>
<polygon fill="midnightblue" stroke="midnightblue" points="495.495,-88.2045 485.01,-89.7287 494.157,-95.0755 495.495,-88.2045"/>
</g>
<!-- Node29&#45;&gt;Node21 -->
<g id="edge42" class="edge"><title>Node29&#45;&gt;Node21</title>
<path fill="none" stroke="midnightblue" d="M1023.34,-134.353C1031.25,-118.956 1044.51,-86.5717 1028.5,-67 977.396,-4.52611 927.922,-53.8112 850.5,-31 848.068,-30.2834 845.572,-29.4738 843.08,-28.6125"/>
<polygon fill="midnightblue" stroke="midnightblue" points="844.228,-25.3057 833.635,-25.1229 841.802,-31.8718 844.228,-25.3057"/>
</g>
<!-- Node29&#45;&gt;Node24 -->
<g id="edge38" class="edge"><title>Node29&#45;&gt;Node24</title>
<path fill="none" stroke="midnightblue" d="M1029.8,-134.423C1047.5,-119.945 1078.09,-89.9898 1061.5,-67 1055.71,-58.9794 1009.41,-44.2768 969.417,-32.7962"/>
<polygon fill="midnightblue" stroke="midnightblue" points="970.255,-29.3956 959.679,-30.0276 968.341,-36.1288 970.255,-29.3956"/>
</g>
<!-- Node29&#45;&gt;Node25 -->
<g id="edge37" class="edge"><title>Node29&#45;&gt;Node25</title>
<path fill="none" stroke="midnightblue" d="M1049.52,-134.436C1067.53,-127.694 1088.73,-116.302 1099.5,-98 1106.49,-86.1253 1105.41,-79.4441 1099.5,-67 1092.09,-51.4127 1077.26,-39.0556 1063.96,-30.4671"/>
<polygon fill="midnightblue" stroke="midnightblue" points="1065.48,-27.2955 1055.11,-25.1299 1061.86,-33.2904 1065.48,-27.2955"/>
</g>
<!-- Node29&#45;&gt;Node28 -->
<g id="edge39" class="edge"><title>Node29&#45;&gt;Node28</title>
<path fill="none" stroke="midnightblue" d="M1011.48,-134.475C1005.22,-126.869 995.77,-115.399 987.424,-105.265"/>
<polygon fill="midnightblue" stroke="midnightblue" points="990.107,-103.017 981.048,-97.523 984.704,-107.467 990.107,-103.017"/>
</g>
<!-- Node29&#45;&gt;Node30 -->
<g id="edge36" class="edge"><title>Node29&#45;&gt;Node30</title>
<path fill="none" stroke="midnightblue" d="M1079.21,-135.435C1160.99,-125.142 1302.2,-106.982 1353.5,-98 1360.12,-96.8416 1367.07,-95.4892 1373.89,-94.0847"/>
<polygon fill="midnightblue" stroke="midnightblue" points="1374.68,-97.496 1383.74,-92.0061 1373.24,-90.6469 1374.68,-97.496"/>
</g>
<!-- Node31 -->
<g id="node31" class="node"><title>Node31</title>
<polygon fill="white" stroke="#bfbfbf" points="1152,-67.5 1152,-97.5 1281,-97.5 1281,-67.5 1152,-67.5"/>
<text text-anchor="start" x="1160" y="-85.5" font-family="Helvetica,sans-Serif" font-size="10.00">boost/type_traits/has</text>
<text text-anchor="middle" x="1216.5" y="-74.5" font-family="Helvetica,sans-Serif" font-size="10.00">_nothrow_constructor.hpp</text>
</g>
<!-- Node29&#45;&gt;Node31 -->
<g id="edge40" class="edge"><title>Node29&#45;&gt;Node31</title>
<path fill="none" stroke="midnightblue" d="M1046.87,-134.475C1076.32,-125.626 1123.16,-111.549 1160.17,-100.428"/>
<polygon fill="midnightblue" stroke="midnightblue" points="1161.27,-103.753 1169.84,-97.523 1159.25,-97.049 1161.27,-103.753"/>
</g>
<!-- Node32 -->
<g id="node32" class="node"><title>Node32</title>
<polygon fill="white" stroke="#bfbfbf" points="1299,-73 1299,-92 1344,-92 1344,-73 1299,-73"/>
<text text-anchor="middle" x="1321.5" y="-80" font-family="Helvetica,sans-Serif" font-size="10.00">iosfwd</text>
</g>
<!-- Node29&#45;&gt;Node32 -->
<g id="edge43" class="edge"><title>Node29&#45;&gt;Node32</title>
<path fill="none" stroke="midnightblue" d="M1079.21,-134.925C1146.96,-125.568 1252.1,-109.91 1290.5,-98 1292.37,-97.4192 1294.28,-96.7472 1296.18,-96.0171"/>
<polygon fill="midnightblue" stroke="midnightblue" points="1297.62,-99.2053 1305.42,-92.0368 1294.85,-92.7756 1297.62,-99.2053"/>
</g>
<!-- Node34&#45;&gt;Node14 -->
<g id="edge51" class="edge"><title>Node34&#45;&gt;Node14</title>
<path fill="none" stroke="midnightblue" d="M737.19,-195.975C728.318,-186.873 714.054,-172.241 703.08,-160.983"/>
<polygon fill="midnightblue" stroke="midnightblue" points="705.281,-158.227 695.795,-153.509 700.269,-163.113 705.281,-158.227"/>
</g>
</g>
</svg>
