<?xml version="1.0" encoding="UTF-8" standalone="no"?>
<!DOCTYPE svg PUBLIC "-//W3C//DTD SVG 1.1//EN"
 "http://www.w3.org/Graphics/SVG/1.1/DTD/svg11.dtd">
<!-- Generated by graphviz version 2.38.0 (20140413.2041)
 -->
<!-- Title: ocra::Subject Pages: 1 -->
<svg width="958pt" height="838pt"
 viewBox="0.00 0.00 958.00 838.00" xmlns="http://www.w3.org/2000/svg" xmlns:xlink="http://www.w3.org/1999/xlink">
<g id="graph0" class="graph" transform="scale(1 1) rotate(0) translate(4 834)">
<title>ocra::Subject</title>
<polygon fill="white" stroke="none" points="-4,4 -4,-834 954,-834 954,4 -4,4"/>
<!-- Node1 -->
<g id="node1" class="node"><title>Node1</title>
<polygon fill="#bfbfbf" stroke="black" points="219,-237.5 219,-256.5 293,-256.5 293,-237.5 219,-237.5"/>
<text text-anchor="middle" x="256" y="-244.5" font-family="Helvetica,sans-Serif" font-size="10.00">ocra::Subject</text>
</g>
<!-- Node5 -->
<g id="node5" class="node"><title>Node5</title>
<g id="a_node5"><a xlink:href="../../d3/d16/classocra_1_1ObserverSubject.html" target="_top" xlink:title="ocra::ObserverSubject">
<polygon fill="white" stroke="black" points="329,-237.5 329,-256.5 443,-256.5 443,-237.5 329,-237.5"/>
<text text-anchor="middle" x="386" y="-244.5" font-family="Helvetica,sans-Serif" font-size="10.00">ocra::ObserverSubject</text>
</a>
</g>
</g>
<!-- Node1&#45;&gt;Node5 -->
<g id="edge4" class="edge"><title>Node1&#45;&gt;Node5</title>
<path fill="none" stroke="midnightblue" d="M303.528,-247C311.787,-247 320.467,-247 328.956,-247"/>
<polygon fill="midnightblue" stroke="midnightblue" points="303.337,-243.5 293.337,-247 303.337,-250.5 303.337,-243.5"/>
</g>
<!-- Node2 -->
<g id="node2" class="node"><title>Node2</title>
<g id="a_node2"><a xlink:href="../../dc/d29/classocra_1_1SubjectBase.html" target="_top" xlink:title="ocra::SubjectBase\&lt;\l EVT_RESIZE \&gt;">
<polygon fill="white" stroke="black" points="40,-281 40,-311 143,-311 143,-281 40,-281"/>
<text text-anchor="start" x="48" y="-299" font-family="Helvetica,sans-Serif" font-size="10.00">ocra::SubjectBase&lt;</text>
<text text-anchor="middle" x="91.5" y="-288" font-family="Helvetica,sans-Serif" font-size="10.00"> EVT_RESIZE &gt;</text>
</a>
</g>
</g>
<!-- Node2&#45;&gt;Node1 -->
<g id="edge1" class="edge"><title>Node2&#45;&gt;Node1</title>
<path fill="none" stroke="midnightblue" d="M153.234,-279.693C163.205,-276.881 173.41,-273.921 183,-271 197.747,-266.509 214.054,-261.109 227.414,-256.571"/>
<polygon fill="midnightblue" stroke="midnightblue" points="152.061,-276.387 143.372,-282.449 153.945,-283.128 152.061,-276.387"/>
</g>
<!-- Node3 -->
<g id="node3" class="node"><title>Node3</title>
<g id="a_node3"><a xlink:href="../../dc/d29/classocra_1_1SubjectBase.html" target="_top" xlink:title="ocra::SubjectBase\&lt;\l EVT_CHANGE_DEPENDENCIES \&gt;">
<polygon fill="white" stroke="black" points="0,-232 0,-262 183,-262 183,-232 0,-232"/>
<text text-anchor="start" x="8" y="-250" font-family="Helvetica,sans-Serif" font-size="10.00">ocra::SubjectBase&lt;</text>
<text text-anchor="middle" x="91.5" y="-239" font-family="Helvetica,sans-Serif" font-size="10.00"> EVT_CHANGE_DEPENDENCIES &gt;</text>
</a>
</g>
</g>
<!-- Node3&#45;&gt;Node1 -->
<g id="edge2" class="edge"><title>Node3&#45;&gt;Node1</title>
<path fill="none" stroke="midnightblue" d="M193.417,-247C202.316,-247 210.879,-247 218.646,-247"/>
<polygon fill="midnightblue" stroke="midnightblue" points="193.252,-243.5 183.252,-247 193.252,-250.5 193.252,-243.5"/>
</g>
<!-- Node4 -->
<g id="node4" class="node"><title>Node4</title>
<g id="a_node4"><a xlink:href="../../dc/d29/classocra_1_1SubjectBase.html" target="_top" xlink:title="ocra::SubjectBase\&lt;\l EVT_CHANGE_VALUE \&gt;">
<polygon fill="white" stroke="black" points="24,-183 24,-213 159,-213 159,-183 24,-183"/>
<text text-anchor="start" x="32" y="-201" font-family="Helvetica,sans-Serif" font-size="10.00">ocra::SubjectBase&lt;</text>
<text text-anchor="middle" x="91.5" y="-190" font-family="Helvetica,sans-Serif" font-size="10.00"> EVT_CHANGE_VALUE &gt;</text>
</a>
</g>
</g>
<!-- Node4&#45;&gt;Node1 -->
<g id="edge3" class="edge"><title>Node4&#45;&gt;Node1</title>
<path fill="none" stroke="midnightblue" d="M161.827,-215.815C168.998,-217.828 176.16,-219.909 183,-222 198.311,-226.681 215.234,-232.522 228.824,-237.381"/>
<polygon fill="midnightblue" stroke="midnightblue" points="162.642,-212.409 152.071,-213.117 160.777,-219.156 162.642,-212.409"/>
</g>
<!-- Node6 -->
<g id="node6" class="node"><title>Node6</title>
<g id="a_node6"><a xlink:href="../../d2/d99/classocra_1_1Function.html" target="_top" xlink:title="Function class. ">
<polygon fill="white" stroke="black" points="494,-501.5 494,-520.5 573,-520.5 573,-501.5 494,-501.5"/>
<text text-anchor="middle" x="533.5" y="-508.5" font-family="Helvetica,sans-Serif" font-size="10.00">ocra::Function</text>
</a>
</g>
</g>
<!-- Node5&#45;&gt;Node6 -->
<g id="edge5" class="edge"><title>Node5&#45;&gt;Node6</title>
<path fill="none" stroke="midnightblue" d="M397.206,-265.519C425.795,-317.392 505.964,-462.852 527.254,-501.481"/>
<polygon fill="midnightblue" stroke="midnightblue" points="400.243,-263.778 392.351,-256.709 394.113,-267.156 400.243,-263.778"/>
</g>
<!-- Node33 -->
<g id="node33" class="node"><title>Node33</title>
<g id="a_node33"><a xlink:href="../../dd/d9c/classocra_1_1MergedVariable.html" target="_top" xlink:title="ocra::MergedVariable">
<polygon fill="white" stroke="black" points="479,-294.5 479,-313.5 588,-313.5 588,-294.5 479,-294.5"/>
<text text-anchor="middle" x="533.5" y="-301.5" font-family="Helvetica,sans-Serif" font-size="10.00">ocra::MergedVariable</text>
</a>
</g>
</g>
<!-- Node5&#45;&gt;Node33 -->
<g id="edge32" class="edge"><title>Node5&#45;&gt;Node33</title>
<path fill="none" stroke="midnightblue" d="M418.47,-260.459C436.168,-267.912 458.717,-277.215 479,-285 487.282,-288.179 496.353,-291.471 504.635,-294.403"/>
<polygon fill="midnightblue" stroke="midnightblue" points="419.756,-257.203 409.183,-256.531 417.029,-263.65 419.756,-257.203"/>
</g>
<!-- Node34 -->
<g id="node34" class="node"><title>Node34</title>
<g id="a_node34"><a xlink:href="../../d4/d00/classocra_1_1Model.html" target="_top" xlink:title="Model class. ">
<polygon fill="white" stroke="black" points="499.5,-256.5 499.5,-275.5 567.5,-275.5 567.5,-256.5 499.5,-256.5"/>
<text text-anchor="middle" x="533.5" y="-263.5" font-family="Helvetica,sans-Serif" font-size="10.00">ocra::Model</text>
</a>
</g>
</g>
<!-- Node5&#45;&gt;Node34 -->
<g id="edge33" class="edge"><title>Node5&#45;&gt;Node34</title>
<path fill="none" stroke="midnightblue" d="M453.547,-255.69C469.345,-257.753 485.536,-259.867 499.111,-261.64"/>
<polygon fill="midnightblue" stroke="midnightblue" points="453.623,-252.17 443.254,-254.346 452.717,-259.111 453.623,-252.17"/>
</g>
<!-- Node36 -->
<g id="node36" class="node"><title>Node36</title>
<g id="a_node36"><a xlink:href="../../d8/d4c/classocra_1_1ModelContacts.html" target="_top" xlink:title="ModelContacts class. ">
<polygon fill="white" stroke="black" points="480,-218.5 480,-237.5 587,-237.5 587,-218.5 480,-218.5"/>
<text text-anchor="middle" x="533.5" y="-225.5" font-family="Helvetica,sans-Serif" font-size="10.00">ocra::ModelContacts</text>
</a>
</g>
</g>
<!-- Node5&#45;&gt;Node36 -->
<g id="edge35" class="edge"><title>Node5&#45;&gt;Node36</title>
<path fill="none" stroke="midnightblue" d="M453.207,-238.354C462.097,-237.193 471.119,-236.015 479.735,-234.89"/>
<polygon fill="midnightblue" stroke="midnightblue" points="452.717,-234.889 443.254,-239.654 453.623,-241.83 452.717,-234.889"/>
</g>
<!-- Node37 -->
<g id="node37" class="node"><title>Node37</title>
<g id="a_node37"><a xlink:href="../../d6/dd3/classocra_1_1Solver.html" target="_top" xlink:title="Solver class. ">
<polygon fill="white" stroke="black" points="499,-161.5 499,-180.5 568,-180.5 568,-161.5 499,-161.5"/>
<text text-anchor="middle" x="533.5" y="-168.5" font-family="Helvetica,sans-Serif" font-size="10.00">ocra::Solver</text>
</a>
</g>
</g>
<!-- Node5&#45;&gt;Node37 -->
<g id="edge36" class="edge"><title>Node5&#45;&gt;Node37</title>
<path fill="none" stroke="midnightblue" d="M414.294,-232.744C443.51,-217.483 489.048,-193.697 514.222,-180.547"/>
<polygon fill="midnightblue" stroke="midnightblue" points="412.671,-229.642 405.428,-237.375 415.912,-235.847 412.671,-229.642"/>
</g>
<!-- Node47 -->
<g id="node47" class="node"><title>Node47</title>
<g id="a_node47"><a xlink:href="../../d2/dac/classocra_1_1Variable.html" target="_top" xlink:title="This class represents a variable in a mathematical sense. ">
<polygon fill="white" stroke="black" points="495,-38.5 495,-57.5 572,-57.5 572,-38.5 495,-38.5"/>
<text text-anchor="middle" x="533.5" y="-45.5" font-family="Helvetica,sans-Serif" font-size="10.00">ocra::Variable</text>
</a>
</g>
</g>
<!-- Node5&#45;&gt;Node47 -->
<g id="edge46" class="edge"><title>Node5&#45;&gt;Node47</title>
<path fill="none" stroke="midnightblue" d="M400.031,-229.178C429.952,-188.255 502.751,-88.6875 525.553,-57.5019"/>
<polygon fill="midnightblue" stroke="midnightblue" points="397.095,-227.264 394.018,-237.402 402.745,-231.395 397.095,-227.264"/>
</g>
<!-- Node7 -->
<g id="node7" class="node"><title>Node7</title>
<g id="a_node7"><a xlink:href="../../d1/d44/classFunction1.html" target="_top" xlink:title="Function1">
<polygon fill="white" stroke="black" points="658.5,-710.5 658.5,-729.5 717.5,-729.5 717.5,-710.5 658.5,-710.5"/>
<text text-anchor="middle" x="688" y="-717.5" font-family="Helvetica,sans-Serif" font-size="10.00">Function1</text>
</a>
</g>
</g>
<!-- Node6&#45;&gt;Node7 -->
<g id="edge6" class="edge"><title>Node6&#45;&gt;Node7</title>
<path fill="none" stroke="midnightblue" d="M538.181,-530.446C546.468,-568.827 570.222,-654.613 624,-701 633.516,-709.208 646.486,-713.87 658.184,-716.518"/>
<polygon fill="midnightblue" stroke="midnightblue" points="541.591,-529.649 536.165,-520.549 534.732,-531.046 541.591,-529.649"/>
</g>
<!-- Node8 -->
<g id="node8" class="node"><title>Node8</title>
<g id="a_node8"><a xlink:href="../../d6/d7e/classFunction2.html" target="_top" xlink:title="Function2">
<polygon fill="white" stroke="black" points="658.5,-672.5 658.5,-691.5 717.5,-691.5 717.5,-672.5 658.5,-672.5"/>
<text text-anchor="middle" x="688" y="-679.5" font-family="Helvetica,sans-Serif" font-size="10.00">Function2</text>
</a>
</g>
</g>
<!-- Node6&#45;&gt;Node8 -->
<g id="edge7" class="edge"><title>Node6&#45;&gt;Node8</title>
<path fill="none" stroke="midnightblue" d="M540.708,-530.531C552.003,-562.914 578.994,-627.652 624,-663 633.793,-670.691 646.668,-675.278 658.225,-678.008"/>
<polygon fill="midnightblue" stroke="midnightblue" points="543.97,-529.249 537.476,-520.878 537.332,-531.472 543.97,-529.249"/>
</g>
<!-- Node9 -->
<g id="node9" class="node"><title>Node9</title>
<g id="a_node9"><a xlink:href="../../d9/d4a/classFunction3.html" target="_top" xlink:title="Function3">
<polygon fill="white" stroke="black" points="658.5,-634.5 658.5,-653.5 717.5,-653.5 717.5,-634.5 658.5,-634.5"/>
<text text-anchor="middle" x="688" y="-641.5" font-family="Helvetica,sans-Serif" font-size="10.00">Function3</text>
</a>
</g>
</g>
<!-- Node6&#45;&gt;Node9 -->
<g id="edge8" class="edge"><title>Node6&#45;&gt;Node9</title>
<path fill="none" stroke="midnightblue" d="M544.194,-529.503C558.37,-554.778 587.126,-599.824 624,-625 634.19,-631.957 646.994,-636.426 658.394,-639.267"/>
<polygon fill="midnightblue" stroke="midnightblue" points="547.189,-527.686 539.334,-520.576 541.041,-531.032 547.189,-527.686"/>
</g>
<!-- Node10 -->
<g id="node10" class="node"><title>Node10</title>
<g id="a_node10"><a xlink:href="../../db/d8c/classMyFunction.html" target="_top" xlink:title="MyFunction">
<polygon fill="white" stroke="black" points="654,-596.5 654,-615.5 722,-615.5 722,-596.5 654,-596.5"/>
<text text-anchor="middle" x="688" y="-603.5" font-family="Helvetica,sans-Serif" font-size="10.00">MyFunction</text>
</a>
</g>
</g>
<!-- Node6&#45;&gt;Node10 -->
<g id="edge9" class="edge"><title>Node6&#45;&gt;Node10</title>
<path fill="none" stroke="midnightblue" d="M550.512,-528.243C567.31,-545.391 595.227,-571.339 624,-587 633.231,-592.025 643.964,-595.892 653.927,-598.784"/>
<polygon fill="midnightblue" stroke="midnightblue" points="552.649,-525.415 543.204,-520.616 547.595,-530.258 552.649,-525.415"/>
</g>
<!-- Node11 -->
<g id="node11" class="node"><title>Node11</title>
<g id="a_node11"><a xlink:href="../../db/da4/classocra_1_1DotProductFunction.html" target="_top" xlink:title="DotProductFunction class. ">
<polygon fill="white" stroke="black" points="624,-558.5 624,-577.5 752,-577.5 752,-558.5 624,-558.5"/>
<text text-anchor="middle" x="688" y="-565.5" font-family="Helvetica,sans-Serif" font-size="10.00">ocra::DotProductFunction</text>
</a>
</g>
</g>
<!-- Node6&#45;&gt;Node11 -->
<g id="edge10" class="edge"><title>Node6&#45;&gt;Node11</title>
<path fill="none" stroke="midnightblue" d="M564.733,-524.805C581.927,-532.41 603.964,-541.749 624,-549 633.238,-552.343 643.38,-555.584 652.774,-558.415"/>
<polygon fill="midnightblue" stroke="midnightblue" points="565.78,-521.439 555.222,-520.557 562.925,-527.831 565.78,-521.439"/>
</g>
<!-- Node12 -->
<g id="node12" class="node"><title>Node12</title>
<g id="a_node12"><a xlink:href="../../de/d3a/classocra_1_1LinearFunction.html" target="_top" xlink:title="LinearFunction class. ">
<polygon fill="white" stroke="black" points="635.5,-520.5 635.5,-539.5 740.5,-539.5 740.5,-520.5 635.5,-520.5"/>
<text text-anchor="middle" x="688" y="-527.5" font-family="Helvetica,sans-Serif" font-size="10.00">ocra::LinearFunction</text>
</a>
</g>
</g>
<!-- Node6&#45;&gt;Node12 -->
<g id="edge11" class="edge"><title>Node6&#45;&gt;Node12</title>
<path fill="none" stroke="midnightblue" d="M583.392,-517.091C599.942,-519.153 618.475,-521.462 635.24,-523.551"/>
<polygon fill="midnightblue" stroke="midnightblue" points="583.733,-513.607 573.377,-515.844 582.867,-520.553 583.733,-513.607"/>
</g>
<!-- Node25 -->
<g id="node25" class="node"><title>Node25</title>
<g id="a_node25"><a xlink:href="../../dd/d93/classocra_1_1Pb114G10.html" target="_top" xlink:title="ocra::Pb114G10">
<polygon fill="white" stroke="black" points="644.5,-482.5 644.5,-501.5 731.5,-501.5 731.5,-482.5 644.5,-482.5"/>
<text text-anchor="middle" x="688" y="-489.5" font-family="Helvetica,sans-Serif" font-size="10.00">ocra::Pb114G10</text>
</a>
</g>
</g>
<!-- Node6&#45;&gt;Node25 -->
<g id="edge24" class="edge"><title>Node6&#45;&gt;Node25</title>
<path fill="none" stroke="midnightblue" d="M583.366,-504.912C603.018,-502.463 625.47,-499.666 644.439,-497.303"/>
<polygon fill="midnightblue" stroke="midnightblue" points="582.867,-501.447 573.377,-506.156 583.733,-508.393 582.867,-501.447"/>
</g>
<!-- Node26 -->
<g id="node26" class="node"><title>Node26</title>
<g id="a_node26"><a xlink:href="../../da/d6c/classocra_1_1Pb114G11.html" target="_top" xlink:title="ocra::Pb114G11">
<polygon fill="white" stroke="black" points="644.5,-444.5 644.5,-463.5 731.5,-463.5 731.5,-444.5 644.5,-444.5"/>
<text text-anchor="middle" x="688" y="-451.5" font-family="Helvetica,sans-Serif" font-size="10.00">ocra::Pb114G11</text>
</a>
</g>
</g>
<!-- Node6&#45;&gt;Node26 -->
<g id="edge25" class="edge"><title>Node6&#45;&gt;Node26</title>
<path fill="none" stroke="midnightblue" d="M564.733,-497.195C581.927,-489.59 603.964,-480.251 624,-473 633.238,-469.657 643.38,-466.416 652.774,-463.585"/>
<polygon fill="midnightblue" stroke="midnightblue" points="562.925,-494.169 555.222,-501.443 565.78,-500.561 562.925,-494.169"/>
</g>
<!-- Node27 -->
<g id="node27" class="node"><title>Node27</title>
<g id="a_node27"><a xlink:href="../../d9/df1/classocra_1_1Pb114G5.html" target="_top" xlink:title="ocra::Pb114G5">
<polygon fill="white" stroke="black" points="647,-406.5 647,-425.5 729,-425.5 729,-406.5 647,-406.5"/>
<text text-anchor="middle" x="688" y="-413.5" font-family="Helvetica,sans-Serif" font-size="10.00">ocra::Pb114G5</text>
</a>
</g>
</g>
<!-- Node6&#45;&gt;Node27 -->
<g id="edge26" class="edge"><title>Node6&#45;&gt;Node27</title>
<path fill="none" stroke="midnightblue" d="M550.512,-493.757C567.31,-476.609 595.227,-450.661 624,-435 631.024,-431.177 638.917,-428.024 646.679,-425.461"/>
<polygon fill="midnightblue" stroke="midnightblue" points="547.595,-491.742 543.204,-501.384 552.649,-496.585 547.595,-491.742"/>
</g>
<!-- Node28 -->
<g id="node28" class="node"><title>Node28</title>
<g id="a_node28"><a xlink:href="../../d9/d7e/classocra_1_1QuadraticFunction.html" target="_top" xlink:title="QuadraticFunction class. ">
<polygon fill="white" stroke="black" points="627.5,-342.5 627.5,-361.5 748.5,-361.5 748.5,-342.5 627.5,-342.5"/>
<text text-anchor="middle" x="688" y="-349.5" font-family="Helvetica,sans-Serif" font-size="10.00">ocra::QuadraticFunction</text>
</a>
</g>
</g>
<!-- Node6&#45;&gt;Node28 -->
<g id="edge27" class="edge"><title>Node6&#45;&gt;Node28</title>
<path fill="none" stroke="midnightblue" d="M546.204,-493.039C562.101,-469.427 592.202,-427.388 624,-397 638.576,-383.07 657.7,-370.015 671.038,-361.592"/>
<polygon fill="midnightblue" stroke="midnightblue" points="543.27,-491.13 540.654,-501.397 549.102,-495.003 543.27,-491.13"/>
</g>
<!-- Node32 -->
<g id="node32" class="node"><title>Node32</title>
<g id="a_node32"><a xlink:href="../../df/d5a/classocra_1_1SubtractionFunction.html" target="_top" xlink:title="SubtractionFunction class. ">
<polygon fill="white" stroke="black" points="624,-304.5 624,-323.5 752,-323.5 752,-304.5 624,-304.5"/>
<text text-anchor="middle" x="688" y="-311.5" font-family="Helvetica,sans-Serif" font-size="10.00">ocra::SubtractionFunction</text>
</a>
</g>
</g>
<!-- Node6&#45;&gt;Node32 -->
<g id="edge31" class="edge"><title>Node6&#45;&gt;Node32</title>
<path fill="none" stroke="midnightblue" d="M538.934,-491.271C548.203,-454.592 573.126,-375.756 624,-333 628.635,-329.104 634.051,-326.008 639.727,-323.546"/>
<polygon fill="midnightblue" stroke="midnightblue" points="535.478,-490.673 536.548,-501.214 542.285,-492.306 535.478,-490.673"/>
</g>
<!-- Node13 -->
<g id="node13" class="node"><title>Node13</title>
<g id="a_node13"><a xlink:href="../../d4/d45/classocra_1_1ContactAvoidanceFunction.html" target="_top" xlink:title="Create a linear function that represents the joint limit function. ">
<polygon fill="white" stroke="red" points="789.5,-810.5 789.5,-829.5 948.5,-829.5 948.5,-810.5 789.5,-810.5"/>
<text text-anchor="middle" x="869" y="-817.5" font-family="Helvetica,sans-Serif" font-size="10.00">ocra::ContactAvoidanceFunction</text>
</a>
</g>
</g>
<!-- Node12&#45;&gt;Node13 -->
<g id="edge12" class="edge"><title>Node12&#45;&gt;Node13</title>
<path fill="none" stroke="midnightblue" d="M748.724,-545.641C749.881,-546.69 750.976,-547.809 752,-549 825.737,-634.807 711.733,-717.433 788,-801 791.464,-804.796 795.536,-807.9 799.977,-810.432"/>
<polygon fill="midnightblue" stroke="midnightblue" points="750.495,-542.606 740.316,-539.666 746.44,-548.312 750.495,-542.606"/>
</g>
<!-- Node14 -->
<g id="node14" class="node"><title>Node14</title>
<g id="a_node14"><a xlink:href="../../d3/d89/classocra_1_1DiagonalLinearFunction.html" target="_top" xlink:title="DiagonalLinearFunction class. ">
<polygon fill="white" stroke="red" points="797.5,-772.5 797.5,-791.5 940.5,-791.5 940.5,-772.5 797.5,-772.5"/>
<text text-anchor="middle" x="869" y="-779.5" font-family="Helvetica,sans-Serif" font-size="10.00">ocra::DiagonalLinearFunction</text>
</a>
</g>
</g>
<!-- Node12&#45;&gt;Node14 -->
<g id="edge13" class="edge"><title>Node12&#45;&gt;Node14</title>
<path fill="none" stroke="midnightblue" d="M748.244,-545.289C749.575,-546.439 750.832,-547.674 752,-549 815.761,-621.365 722.107,-692.571 788,-763 791.511,-766.753 795.617,-769.826 800.08,-772.336"/>
<polygon fill="midnightblue" stroke="midnightblue" points="750.146,-542.349 739.918,-539.584 746.189,-548.124 750.146,-542.349"/>
</g>
<!-- Node15 -->
<g id="node15" class="node"><title>Node15</title>
<g id="a_node15"><a xlink:href="../../d4/d5c/classocra_1_1DoubleDiagonalLinearFunction.html" target="_top" xlink:title="DoubleDiagonalLinearFunction class. ">
<polygon fill="white" stroke="black" points="800.5,-723 800.5,-753 937.5,-753 937.5,-723 800.5,-723"/>
<text text-anchor="start" x="808.5" y="-741" font-family="Helvetica,sans-Serif" font-size="10.00">ocra::DoubleDiagonalLinear</text>
<text text-anchor="middle" x="869" y="-730" font-family="Helvetica,sans-Serif" font-size="10.00">Function</text>
</a>
</g>
</g>
<!-- Node12&#45;&gt;Node15 -->
<g id="edge14" class="edge"><title>Node12&#45;&gt;Node15</title>
<path fill="none" stroke="midnightblue" d="M748.067,-545.291C749.457,-546.44 750.773,-547.675 752,-549 802.702,-603.755 737.572,-657.993 788,-713 791.54,-716.861 795.666,-720.131 800.144,-722.899"/>
<polygon fill="midnightblue" stroke="midnightblue" points="749.697,-542.174 739.421,-539.596 745.847,-548.02 749.697,-542.174"/>
</g>
<!-- Node16 -->
<g id="node16" class="node"><title>Node16</title>
<g id="a_node16"><a xlink:href="../../d9/da6/classocra_1_1DynamicEquationFunction.html" target="_top" xlink:title="DynamicEquationFunction class. ">
<polygon fill="white" stroke="black" points="791,-684.5 791,-703.5 947,-703.5 947,-684.5 791,-684.5"/>
<text text-anchor="middle" x="869" y="-691.5" font-family="Helvetica,sans-Serif" font-size="10.00">ocra::DynamicEquationFunction</text>
</a>
</g>
</g>
<!-- Node12&#45;&gt;Node16 -->
<g id="edge15" class="edge"><title>Node12&#45;&gt;Node16</title>
<path fill="none" stroke="midnightblue" d="M747.363,-544.938C749.002,-546.186 750.555,-547.537 752,-549 792.624,-590.135 746.402,-633.85 788,-674 792.429,-678.275 797.628,-681.678 803.212,-684.382"/>
<polygon fill="midnightblue" stroke="midnightblue" points="748.906,-541.778 738.555,-539.52 745.239,-547.74 748.906,-541.778"/>
</g>
<!-- Node17 -->
<g id="node17" class="node"><title>Node17</title>
<g id="a_node17"><a xlink:href="../../de/ddd/classocra_1_1FullDynamicEquationFunction.html" target="_top" xlink:title="Create a linear function that represents the dynamic equation of motion. ">
<polygon fill="white" stroke="black" points="802,-635 802,-665 936,-665 936,-635 802,-635"/>
<text text-anchor="start" x="810" y="-653" font-family="Helvetica,sans-Serif" font-size="10.00">ocra::FullDynamicEquation</text>
<text text-anchor="middle" x="869" y="-642" font-family="Helvetica,sans-Serif" font-size="10.00">Function</text>
</a>
</g>
</g>
<!-- Node12&#45;&gt;Node17 -->
<g id="edge16" class="edge"><title>Node12&#45;&gt;Node17</title>
<path fill="none" stroke="midnightblue" d="M745.69,-544.354C747.913,-545.76 750.03,-547.305 752,-549 780.328,-573.382 759.794,-600.477 788,-625 792.393,-628.819 797.366,-632.055 802.63,-634.796"/>
<polygon fill="midnightblue" stroke="midnightblue" points="747.156,-541.17 736.681,-539.584 743.881,-547.357 747.156,-541.17"/>
</g>
<!-- Node18 -->
<g id="node18" class="node"><title>Node18</title>
<g id="a_node18"><a xlink:href="../../df/de0/classocra_1_1JointLimitFunction.html" target="_top" xlink:title="Create a linear function that represents the joint limit function. ">
<polygon fill="white" stroke="red" points="808.5,-596.5 808.5,-615.5 929.5,-615.5 929.5,-596.5 808.5,-596.5"/>
<text text-anchor="middle" x="869" y="-603.5" font-family="Helvetica,sans-Serif" font-size="10.00">ocra::JointLimitFunction</text>
</a>
</g>
</g>
<!-- Node12&#45;&gt;Node18 -->
<g id="edge17" class="edge"><title>Node12&#45;&gt;Node18</title>
<path fill="none" stroke="midnightblue" d="M741.181,-543.339C744.947,-545.021 748.597,-546.901 752,-549 771.801,-561.213 767.843,-575.384 788,-587 794.679,-590.849 802.1,-593.92 809.652,-596.369"/>
<polygon fill="midnightblue" stroke="midnightblue" points="742.241,-539.994 731.655,-539.554 739.656,-546.499 742.241,-539.994"/>
</g>
<!-- Node19 -->
<g id="node19" class="node"><title>Node19</title>
<g id="a_node19"><a xlink:href="../../d0/dd6/classocra_1_1LinearizedCoulombFunction.html" target="_top" xlink:title="LinearizedCoulombFunction class. ">
<polygon fill="white" stroke="black" points="788,-558.5 788,-577.5 950,-577.5 950,-558.5 788,-558.5"/>
<text text-anchor="middle" x="869" y="-565.5" font-family="Helvetica,sans-Serif" font-size="10.00">ocra::LinearizedCoulombFunction</text>
</a>
</g>
</g>
<!-- Node12&#45;&gt;Node19 -->
<g id="edge18" class="edge"><title>Node12&#45;&gt;Node19</title>
<path fill="none" stroke="midnightblue" d="M744.024,-541.681C769.408,-547.07 799.161,-553.386 823.156,-558.48"/>
<polygon fill="midnightblue" stroke="midnightblue" points="744.678,-538.242 734.169,-539.589 743.224,-545.089 744.678,-538.242"/>
</g>
<!-- Node20 -->
<g id="node20" class="node"><title>Node20</title>
<g id="a_node20"><a xlink:href="../../dd/d16/classocra_1_1LinearTask.html" target="_top" xlink:title="LinearTask class. ">
<polygon fill="white" stroke="black" points="824.5,-520.5 824.5,-539.5 913.5,-539.5 913.5,-520.5 824.5,-520.5"/>
<text text-anchor="middle" x="869" y="-527.5" font-family="Helvetica,sans-Serif" font-size="10.00">ocra::LinearTask</text>
</a>
</g>
</g>
<!-- Node12&#45;&gt;Node20 -->
<g id="edge19" class="edge"><title>Node12&#45;&gt;Node20</title>
<path fill="none" stroke="midnightblue" d="M750.915,-530C775.055,-530 802.163,-530 824.212,-530"/>
<polygon fill="midnightblue" stroke="midnightblue" points="750.774,-526.5 740.774,-530 750.774,-533.5 750.774,-526.5"/>
</g>
<!-- Node21 -->
<g id="node21" class="node"><title>Node21</title>
<g id="a_node21"><a xlink:href="../../dd/dda/classocra_1_1SecondOrderLinearTask.html" target="_top" xlink:title="SecondOrderLinearTask class. ">
<polygon fill="white" stroke="black" points="796,-482.5 796,-501.5 942,-501.5 942,-482.5 796,-482.5"/>
<text text-anchor="middle" x="869" y="-489.5" font-family="Helvetica,sans-Serif" font-size="10.00">ocra::SecondOrderLinearTask</text>
</a>
</g>
</g>
<!-- Node12&#45;&gt;Node21 -->
<g id="edge20" class="edge"><title>Node12&#45;&gt;Node21</title>
<path fill="none" stroke="midnightblue" d="M744.024,-518.319C769.408,-512.93 799.161,-506.614 823.156,-501.52"/>
<polygon fill="midnightblue" stroke="midnightblue" points="743.224,-514.911 734.169,-520.411 744.678,-521.758 743.224,-514.911"/>
</g>
<!-- Node22 -->
<g id="node22" class="node"><title>Node22</title>
<g id="a_node22"><a xlink:href="../../d0/d8f/classocra_1_1SumOfLinearFunctions.html" target="_top" xlink:title="ocra::SumOfLinearFunctions">
<polygon fill="white" stroke="black" points="798.5,-444.5 798.5,-463.5 939.5,-463.5 939.5,-444.5 798.5,-444.5"/>
<text text-anchor="middle" x="869" y="-451.5" font-family="Helvetica,sans-Serif" font-size="10.00">ocra::SumOfLinearFunctions</text>
</a>
</g>
</g>
<!-- Node12&#45;&gt;Node22 -->
<g id="edge21" class="edge"><title>Node12&#45;&gt;Node22</title>
<path fill="none" stroke="midnightblue" d="M741.181,-516.661C744.947,-514.979 748.597,-513.099 752,-511 771.801,-498.787 767.843,-484.616 788,-473 794.679,-469.151 802.1,-466.08 809.652,-463.631"/>
<polygon fill="midnightblue" stroke="midnightblue" points="739.656,-513.501 731.655,-520.446 742.241,-520.006 739.656,-513.501"/>
</g>
<!-- Node23 -->
<g id="node23" class="node"><title>Node23</title>
<g id="a_node23"><a xlink:href="../../dd/d3d/classocra_1_1TorqueLimitFunction.html" target="_top" xlink:title="Create a linear function that represents the torque limit function. ">
<polygon fill="white" stroke="black" points="804,-406.5 804,-425.5 934,-425.5 934,-406.5 804,-406.5"/>
<text text-anchor="middle" x="869" y="-413.5" font-family="Helvetica,sans-Serif" font-size="10.00">ocra::TorqueLimitFunction</text>
</a>
</g>
</g>
<!-- Node12&#45;&gt;Node23 -->
<g id="edge22" class="edge"><title>Node12&#45;&gt;Node23</title>
<path fill="none" stroke="midnightblue" d="M745.69,-515.646C747.913,-514.24 750.03,-512.695 752,-511 780.328,-486.618 758.957,-458.525 788,-435 792.77,-431.136 798.195,-428.035 803.919,-425.548"/>
<polygon fill="midnightblue" stroke="midnightblue" points="743.881,-512.643 736.681,-520.416 747.156,-518.83 743.881,-512.643"/>
</g>
<!-- Node24 -->
<g id="node24" class="node"><title>Node24</title>
<g id="a_node24"><a xlink:href="../../d7/d46/classocra_1_1VariableChiFunction.html" target="_top" xlink:title="ocra::VariableChiFunction">
<polygon fill="white" stroke="black" points="804.5,-368.5 804.5,-387.5 933.5,-387.5 933.5,-368.5 804.5,-368.5"/>
<text text-anchor="middle" x="869" y="-375.5" font-family="Helvetica,sans-Serif" font-size="10.00">ocra::VariableChiFunction</text>
</a>
</g>
</g>
<!-- Node12&#45;&gt;Node24 -->
<g id="edge23" class="edge"><title>Node12&#45;&gt;Node24</title>
<path fill="none" stroke="midnightblue" d="M747.315,-515.014C748.967,-513.78 750.537,-512.445 752,-511 789.813,-473.674 749.089,-433.18 788,-397 792.704,-392.626 798.227,-389.202 804.134,-386.53"/>
<polygon fill="midnightblue" stroke="midnightblue" points="745.195,-512.206 738.457,-520.383 748.823,-518.193 745.195,-512.206"/>
</g>
<!-- Node29 -->
<g id="node29" class="node"><title>Node29</title>
<g id="a_node29"><a xlink:href="../../d3/d16/classocra_1_1FcQuadraticFunction.html" target="_top" xlink:title="ocra::FcQuadraticFunction">
<polygon fill="white" stroke="black" points="803,-330.5 803,-349.5 935,-349.5 935,-330.5 803,-330.5"/>
<text text-anchor="middle" x="869" y="-337.5" font-family="Helvetica,sans-Serif" font-size="10.00">ocra::FcQuadraticFunction</text>
</a>
</g>
</g>
<!-- Node28&#45;&gt;Node29 -->
<g id="edge28" class="edge"><title>Node28&#45;&gt;Node29</title>
<path fill="none" stroke="midnightblue" d="M758.966,-347.31C773.401,-346.342 788.548,-345.326 802.805,-344.371"/>
<polygon fill="midnightblue" stroke="midnightblue" points="758.348,-343.843 748.604,-348.004 758.816,-350.827 758.348,-343.843"/>
</g>
<!-- Node30 -->
<g id="node30" class="node"><title>Node30</title>
<g id="a_node30"><a xlink:href="../../df/dfc/classocra_1_1SquaredLinearFunction.html" target="_top" xlink:title="SquaredLinearFunction class. ">
<polygon fill="white" stroke="black" points="798.5,-292.5 798.5,-311.5 939.5,-311.5 939.5,-292.5 798.5,-292.5"/>
<text text-anchor="middle" x="869" y="-299.5" font-family="Helvetica,sans-Serif" font-size="10.00">ocra::SquaredLinearFunction</text>
</a>
</g>
</g>
<!-- Node28&#45;&gt;Node30 -->
<g id="edge29" class="edge"><title>Node28&#45;&gt;Node30</title>
<path fill="none" stroke="midnightblue" d="M731.364,-339.406C738.272,-337.3 745.343,-335.113 752,-333 768.075,-327.898 771.78,-325.62 788,-321 799.807,-317.637 812.71,-314.39 824.639,-311.559"/>
<polygon fill="midnightblue" stroke="midnightblue" points="729.985,-336.167 721.429,-342.415 732.014,-342.866 729.985,-336.167"/>
</g>
<!-- Node31 -->
<g id="node31" class="node"><title>Node31</title>
<g id="a_node31"><a xlink:href="../../d2/d31/classocra_1_1WeightedSquareDistanceFunction.html" target="_top" xlink:title="WeightedSquareDistanceFunction class. ">
<polygon fill="white" stroke="black" points="793,-243 793,-273 945,-273 945,-243 793,-243"/>
<text text-anchor="start" x="801" y="-261" font-family="Helvetica,sans-Serif" font-size="10.00">ocra::WeightedSquareDistance</text>
<text text-anchor="middle" x="869" y="-250" font-family="Helvetica,sans-Serif" font-size="10.00">Function</text>
</a>
</g>
</g>
<!-- Node28&#45;&gt;Node31 -->
<g id="edge30" class="edge"><title>Node28&#45;&gt;Node31</title>
<path fill="none" stroke="midnightblue" d="M743.397,-338.216C746.409,-336.657 749.303,-334.925 752,-333 774.289,-317.093 765.791,-299.018 788,-283 793.311,-279.17 799.227,-275.913 805.37,-273.148"/>
<polygon fill="midnightblue" stroke="midnightblue" points="741.777,-335.106 734.085,-342.392 744.642,-341.493 741.777,-335.106"/>
</g>
<!-- Node35 -->
<g id="node35" class="node"><title>Node35</title>
<g id="a_node35"><a xlink:href="../../d3/d33/classModel3T.html" target="_top" xlink:title="Model3T">
<polygon fill="white" stroke="black" points="661,-266.5 661,-285.5 715,-285.5 715,-266.5 661,-266.5"/>
<text text-anchor="middle" x="688" y="-273.5" font-family="Helvetica,sans-Serif" font-size="10.00">Model3T</text>
</a>
</g>
</g>
<!-- Node34&#45;&gt;Node35 -->
<g id="edge34" class="edge"><title>Node34&#45;&gt;Node35</title>
<path fill="none" stroke="midnightblue" d="M577.816,-268.84C604.476,-270.589 637.787,-272.773 660.559,-274.266"/>
<polygon fill="midnightblue" stroke="midnightblue" points="577.798,-265.332 567.59,-268.17 577.34,-272.317 577.798,-265.332"/>
</g>
<!-- Node38 -->
<g id="node38" class="node"><title>Node38</title>
<g id="a_node38"><a xlink:href="../../d6/d35/classocra_1_1CascadeQPSolver.html" target="_top" xlink:title="CascadeQPSolver class. ">
<polygon fill="white" stroke="black" points="627,-228.5 627,-247.5 749,-247.5 749,-228.5 627,-228.5"/>
<text text-anchor="middle" x="688" y="-235.5" font-family="Helvetica,sans-Serif" font-size="10.00">ocra::CascadeQPSolver</text>
</a>
</g>
</g>
<!-- Node37&#45;&gt;Node38 -->
<g id="edge37" class="edge"><title>Node37&#45;&gt;Node38</title>
<path fill="none" stroke="midnightblue" d="M559.223,-185.99C576.839,-196.236 601.321,-209.609 624,-219 632.55,-222.54 641.996,-225.742 650.916,-228.466"/>
<polygon fill="midnightblue" stroke="midnightblue" points="560.589,-182.732 550.198,-180.664 557.032,-188.761 560.589,-182.732"/>
</g>
<!-- Node39 -->
<g id="node39" class="node"><title>Node39</title>
<g id="a_node39"><a xlink:href="../../dc/d6e/classocra_1_1FSQPSolver.html" target="_top" xlink:title="FSQPSolver class. ">
<polygon fill="white" stroke="black" points="640,-190.5 640,-209.5 736,-209.5 736,-190.5 640,-190.5"/>
<text text-anchor="middle" x="688" y="-197.5" font-family="Helvetica,sans-Serif" font-size="10.00">ocra::FSQPSolver</text>
</a>
</g>
</g>
<!-- Node37&#45;&gt;Node39 -->
<g id="edge38" class="edge"><title>Node37&#45;&gt;Node39</title>
<path fill="none" stroke="midnightblue" d="M578.373,-179.343C597.651,-183.009 620.32,-187.32 639.949,-191.053"/>
<polygon fill="midnightblue" stroke="midnightblue" points="578.823,-175.866 568.345,-177.436 577.515,-182.743 578.823,-175.866"/>
</g>
<!-- Node40 -->
<g id="node40" class="node"><title>Node40</title>
<g id="a_node40"><a xlink:href="../../d2/d07/classocra_1_1NewtonSolver.html" target="_top" xlink:title="NewtonSolver class. ">
<polygon fill="white" stroke="black" points="636.5,-152.5 636.5,-171.5 739.5,-171.5 739.5,-152.5 636.5,-152.5"/>
<text text-anchor="middle" x="688" y="-159.5" font-family="Helvetica,sans-Serif" font-size="10.00">ocra::NewtonSolver</text>
</a>
</g>
</g>
<!-- Node37&#45;&gt;Node40 -->
<g id="edge39" class="edge"><title>Node37&#45;&gt;Node40</title>
<path fill="none" stroke="midnightblue" d="M578.36,-168.412C596.504,-167.341 617.653,-166.093 636.445,-164.984"/>
<polygon fill="midnightblue" stroke="midnightblue" points="578.121,-164.919 568.345,-169.003 578.534,-171.907 578.121,-164.919"/>
</g>
<!-- Node41 -->
<g id="node41" class="node"><title>Node41</title>
<g id="a_node41"><a xlink:href="../../d2/d5e/classocra_1_1OneLevelSolver.html" target="_top" xlink:title="A generic abstract class the solvers that can be used in the wOcra Controller. ">
<polygon fill="white" stroke="black" points="633,-114.5 633,-133.5 743,-133.5 743,-114.5 633,-114.5"/>
<text text-anchor="middle" x="688" y="-121.5" font-family="Helvetica,sans-Serif" font-size="10.00">ocra::OneLevelSolver</text>
</a>
</g>
</g>
<!-- Node37&#45;&gt;Node41 -->
<g id="edge40" class="edge"><title>Node37&#45;&gt;Node41</title>
<path fill="none" stroke="midnightblue" d="M574.49,-158.393C589.947,-153.545 607.787,-147.981 624,-143 634.156,-139.88 645.247,-136.519 655.254,-133.505"/>
<polygon fill="midnightblue" stroke="midnightblue" points="573.21,-155.126 564.718,-161.461 575.307,-161.804 573.21,-155.126"/>
</g>
<!-- Node45 -->
<g id="node45" class="node"><title>Node45</title>
<g id="a_node45"><a xlink:href="../../d7/dab/classocra_1_1QuadraticSolver.html" target="_top" xlink:title="QuadraticSolver class. ">
<polygon fill="white" stroke="red" points="632.5,-76.5 632.5,-95.5 743.5,-95.5 743.5,-76.5 632.5,-76.5"/>
<text text-anchor="middle" x="688" y="-83.5" font-family="Helvetica,sans-Serif" font-size="10.00">ocra::QuadraticSolver</text>
</a>
</g>
</g>
<!-- Node37&#45;&gt;Node45 -->
<g id="edge44" class="edge"><title>Node37&#45;&gt;Node45</title>
<path fill="none" stroke="midnightblue" d="M552.623,-154.698C569.884,-139.917 597.147,-118.444 624,-105 631.457,-101.267 639.784,-98.1174 647.879,-95.5229"/>
<polygon fill="midnightblue" stroke="midnightblue" points="550.231,-152.14 544.999,-161.353 554.834,-157.414 550.231,-152.14"/>
</g>
<!-- Node42 -->
<g id="node42" class="node"><title>Node42</title>
<g id="a_node42"><a xlink:href="../../df/d1b/classocra_1_1OneLevelSolverWithQLD.html" target="_top" xlink:title="Solver class that only consider one level of importance for all tasks using QLD. ">
<polygon fill="white" stroke="black" points="793.5,-193.5 793.5,-212.5 944.5,-212.5 944.5,-193.5 793.5,-193.5"/>
<text text-anchor="middle" x="869" y="-200.5" font-family="Helvetica,sans-Serif" font-size="10.00">ocra::OneLevelSolverWithQLD</text>
</a>
</g>
</g>
<!-- Node41&#45;&gt;Node42 -->
<g id="edge41" class="edge"><title>Node41&#45;&gt;Node42</title>
<path fill="none" stroke="midnightblue" d="M741.417,-137.322C745.107,-139.006 748.677,-140.891 752,-143 772.195,-155.815 767.504,-170.673 788,-183 795.238,-187.353 803.389,-190.763 811.648,-193.431"/>
<polygon fill="midnightblue" stroke="midnightblue" points="742.652,-134.046 732.07,-133.539 740.026,-140.535 742.652,-134.046"/>
</g>
<!-- Node43 -->
<g id="node43" class="node"><title>Node43</title>
<g id="a_node43"><a xlink:href="../../d0/d12/classocra_1_1OneLevelSolverWithQPOASES.html" target="_top" xlink:title="Solver class that only consider one level of importance for all tasks using QPOASES. ">
<polygon fill="white" stroke="black" points="803.5,-144 803.5,-174 934.5,-174 934.5,-144 803.5,-144"/>
<text text-anchor="start" x="811.5" y="-162" font-family="Helvetica,sans-Serif" font-size="10.00">ocra::OneLevelSolverWith</text>
<text text-anchor="middle" x="869" y="-151" font-family="Helvetica,sans-Serif" font-size="10.00">QPOASES</text>
</a>
</g>
</g>
<!-- Node41&#45;&gt;Node43 -->
<g id="edge42" class="edge"><title>Node41&#45;&gt;Node43</title>
<path fill="none" stroke="midnightblue" d="M748.105,-135.557C765.811,-139.019 785.318,-142.833 803.361,-146.361"/>
<polygon fill="midnightblue" stroke="midnightblue" points="748.398,-132.048 737.913,-133.564 747.055,-138.918 748.398,-132.048"/>
</g>
<!-- Node44 -->
<g id="node44" class="node"><title>Node44</title>
<g id="a_node44"><a xlink:href="../../d9/d45/classocra_1_1OneLevelSolverWithQuadProg.html" target="_top" xlink:title="Solver class that only consider one level of importance for all tasks using Quadprog++. ">
<polygon fill="white" stroke="black" points="803.5,-95 803.5,-125 934.5,-125 934.5,-95 803.5,-95"/>
<text text-anchor="start" x="811.5" y="-113" font-family="Helvetica,sans-Serif" font-size="10.00">ocra::OneLevelSolverWith</text>
<text text-anchor="middle" x="869" y="-102" font-family="Helvetica,sans-Serif" font-size="10.00">QuadProg</text>
</a>
</g>
</g>
<!-- Node41&#45;&gt;Node44 -->
<g id="edge43" class="edge"><title>Node41&#45;&gt;Node44</title>
<path fill="none" stroke="midnightblue" d="M753.616,-118.946C769.775,-117.682 787.11,-116.327 803.274,-115.062"/>
<polygon fill="midnightblue" stroke="midnightblue" points="752.888,-115.492 743.192,-119.762 753.434,-122.471 752.888,-115.492"/>
</g>
<!-- Node46 -->
<g id="node46" class="node"><title>Node46</title>
<g id="a_node46"><a xlink:href="../../d4/d02/classocra_1_1CmlQuadraticSolver.html" target="_top" xlink:title="CmlQuadraticSolver class. ">
<polygon fill="white" stroke="black" points="804.5,-56.5 804.5,-75.5 933.5,-75.5 933.5,-56.5 804.5,-56.5"/>
<text text-anchor="middle" x="869" y="-63.5" font-family="Helvetica,sans-Serif" font-size="10.00">ocra::CmlQuadraticSolver</text>
</a>
</g>
</g>
<!-- Node45&#45;&gt;Node46 -->
<g id="edge45" class="edge"><title>Node45&#45;&gt;Node46</title>
<path fill="none" stroke="midnightblue" d="M753.74,-78.7665C770.185,-76.929 787.841,-74.9563 804.238,-73.1243"/>
<polygon fill="midnightblue" stroke="midnightblue" points="753.228,-75.3018 743.679,-79.8907 754.005,-82.2585 753.228,-75.3018"/>
</g>
<!-- Node48 -->
<g id="node48" class="node"><title>Node48</title>
<g id="a_node48"><a xlink:href="../../d5/d40/classocra_1_1BaseVariable.html" target="_top" xlink:title="Implements a basic variable. ">
<polygon fill="white" stroke="black" points="638.5,-38.5 638.5,-57.5 737.5,-57.5 737.5,-38.5 638.5,-38.5"/>
<text text-anchor="middle" x="688" y="-45.5" font-family="Helvetica,sans-Serif" font-size="10.00">ocra::BaseVariable</text>
</a>
</g>
</g>
<!-- Node47&#45;&gt;Node48 -->
<g id="edge47" class="edge"><title>Node47&#45;&gt;Node48</title>
<path fill="none" stroke="midnightblue" d="M582.404,-48C600.276,-48 620.572,-48 638.498,-48"/>
<polygon fill="midnightblue" stroke="midnightblue" points="582.197,-44.5001 572.197,-48 582.197,-51.5001 582.197,-44.5001"/>
</g>
<!-- Node49 -->
<g id="node49" class="node"><title>Node49</title>
<g id="a_node49"><a xlink:href="../../d2/d7c/classocra_1_1CompositeVariable.html" target="_top" xlink:title="A concatenation of base variables and other composite variables. ">
<polygon fill="white" stroke="black" points="626,-0.5 626,-19.5 750,-19.5 750,-0.5 626,-0.5"/>
<text text-anchor="middle" x="688" y="-7.5" font-family="Helvetica,sans-Serif" font-size="10.00">ocra::CompositeVariable</text>
</a>
</g>
</g>
<!-- Node47&#45;&gt;Node49 -->
<g id="edge48" class="edge"><title>Node47&#45;&gt;Node49</title>
<path fill="none" stroke="midnightblue" d="M582.079,-36.1442C603.51,-30.8042 628.476,-24.5829 648.678,-19.5491"/>
<polygon fill="midnightblue" stroke="midnightblue" points="581.054,-32.7926 572.197,-38.6067 582.746,-39.5849 581.054,-32.7926"/>
</g>
</g>
</svg>
