<?xml version="1.0" encoding="UTF-8" standalone="no"?>
<!DOCTYPE svg PUBLIC "-//W3C//DTD SVG 1.1//EN"
 "http://www.w3.org/Graphics/SVG/1.1/DTD/svg11.dtd">
<!-- Generated by graphviz version 2.38.0 (20140413.2041)
 -->
<!-- Title: ocra::ControlFrame Pages: 1 -->
<svg width="340pt" height="140pt"
 viewBox="0.00 0.00 339.50 140.00" xmlns="http://www.w3.org/2000/svg" xmlns:xlink="http://www.w3.org/1999/xlink">
<g id="graph0" class="graph" transform="scale(1 1) rotate(0) translate(4 136)">
<title>ocra::ControlFrame</title>
<polygon fill="white" stroke="none" points="-4,4 -4,-136 335.5,-136 335.5,4 -4,4"/>
<!-- Node1 -->
<g id="node1" class="node"><title>Node1</title>
<polygon fill="#bfbfbf" stroke="black" points="111.5,-56.5 111.5,-75.5 212.5,-75.5 212.5,-56.5 111.5,-56.5"/>
<text text-anchor="middle" x="162" y="-63.5" font-family="Helvetica,sans-Serif" font-size="10.00">ocra::ControlFrame</text>
</g>
<!-- Node4 -->
<g id="node4" class="node"><title>Node4</title>
<g id="a_node4"><a xlink:href="../../d9/d52/classocra_1_1CoMFrame.html" target="_top" xlink:title="Creates a frame whose center is at the CoM of the model and whose axes are parallel to the axes of th...">
<polygon fill="white" stroke="black" points="0,-0.5 0,-19.5 90,-19.5 90,-0.5 0,-0.5"/>
<text text-anchor="middle" x="45" y="-7.5" font-family="Helvetica,sans-Serif" font-size="10.00">ocra::CoMFrame</text>
</a>
</g>
</g>
<!-- Node1&#45;&gt;Node4 -->
<g id="edge3" class="edge"><title>Node1&#45;&gt;Node4</title>
<path fill="none" stroke="midnightblue" d="M134.336,-52.2321C112.451,-42.1312 82.5032,-28.3091 63.4523,-19.5164"/>
<polygon fill="midnightblue" stroke="midnightblue" points="132.915,-55.4308 143.461,-56.4435 135.848,-49.075 132.915,-55.4308"/>
</g>
<!-- Node5 -->
<g id="node5" class="node"><title>Node5</title>
<g id="a_node5"><a xlink:href="../../d1/d45/classocra_1_1SegmentFrame.html" target="_top" xlink:title="A frame attached to a segment of a model. ">
<polygon fill="white" stroke="black" points="108,-0.5 108,-19.5 216,-19.5 216,-0.5 108,-0.5"/>
<text text-anchor="middle" x="162" y="-7.5" font-family="Helvetica,sans-Serif" font-size="10.00">ocra::SegmentFrame</text>
</a>
</g>
</g>
<!-- Node1&#45;&gt;Node5 -->
<g id="edge4" class="edge"><title>Node1&#45;&gt;Node5</title>
<path fill="none" stroke="midnightblue" d="M162,-45.8045C162,-36.9102 162,-26.7798 162,-19.7511"/>
<polygon fill="midnightblue" stroke="midnightblue" points="158.5,-46.083 162,-56.083 165.5,-46.083 158.5,-46.083"/>
</g>
<!-- Node6 -->
<g id="node6" class="node"><title>Node6</title>
<g id="a_node6"><a xlink:href="../../da/dbb/classocra_1_1TargetFrame.html" target="_top" xlink:title="Represents a &#39;target&#39;, i.e. something that does not depend on a model but must match with another fra...">
<polygon fill="white" stroke="black" points="234.5,-0.5 234.5,-19.5 331.5,-19.5 331.5,-0.5 234.5,-0.5"/>
<text text-anchor="middle" x="283" y="-7.5" font-family="Helvetica,sans-Serif" font-size="10.00">ocra::TargetFrame</text>
</a>
</g>
</g>
<!-- Node1&#45;&gt;Node6 -->
<g id="edge5" class="edge"><title>Node1&#45;&gt;Node6</title>
<path fill="none" stroke="midnightblue" d="M190.306,-52.3678C212.965,-42.2553 244.126,-28.3486 263.917,-19.5164"/>
<polygon fill="midnightblue" stroke="midnightblue" points="188.878,-49.1719 181.173,-56.4435 191.731,-55.5643 188.878,-49.1719"/>
</g>
<!-- Node2 -->
<g id="node2" class="node"><title>Node2</title>
<g id="a_node2"><a xlink:href="../../db/de3/classocra_1_1NamedInstance.html" target="_top" xlink:title="ocra::NamedInstance">
<polygon fill="white" stroke="black" points="53,-112.5 53,-131.5 163,-131.5 163,-112.5 53,-112.5"/>
<text text-anchor="middle" x="108" y="-119.5" font-family="Helvetica,sans-Serif" font-size="10.00">ocra::NamedInstance</text>
</a>
</g>
</g>
<!-- Node2&#45;&gt;Node1 -->
<g id="edge1" class="edge"><title>Node2&#45;&gt;Node1</title>
<path fill="none" stroke="midnightblue" d="M123.998,-105.002C133.567,-95.4329 145.361,-83.6389 153.249,-75.7511"/>
<polygon fill="midnightblue" stroke="midnightblue" points="121.513,-102.537 116.917,-112.083 126.463,-107.487 121.513,-102.537"/>
</g>
<!-- Node3 -->
<g id="node3" class="node"><title>Node3</title>
<polygon fill="white" stroke="#bfbfbf" points="181.5,-112.5 181.5,-131.5 252.5,-131.5 252.5,-112.5 181.5,-112.5"/>
<text text-anchor="middle" x="217" y="-119.5" font-family="Helvetica,sans-Serif" font-size="10.00">noncopyable</text>
</g>
<!-- Node3&#45;&gt;Node1 -->
<g id="edge2" class="edge"><title>Node3&#45;&gt;Node1</title>
<path fill="none" stroke="#8b1a1a" d="M200.706,-105.002C190.959,-95.4329 178.947,-83.6389 170.913,-75.7511"/>
<polygon fill="#8b1a1a" stroke="#8b1a1a" points="198.33,-107.575 207.918,-112.083 203.234,-102.58 198.33,-107.575"/>
</g>
</g>
</svg>
