<?xml version="1.0" encoding="UTF-8" standalone="no"?>
<!DOCTYPE svg PUBLIC "-//W3C//DTD SVG 1.1//EN"
 "http://www.w3.org/Graphics/SVG/1.1/DTD/svg11.dtd">
<!-- Generated by graphviz version 2.38.0 (20140413.2041)
 -->
<!-- Title: ObserverSubjectBase.h Pages: 1 -->
<svg width="730pt" height="95pt"
 viewBox="0.00 0.00 729.50 95.00" xmlns="http://www.w3.org/2000/svg" xmlns:xlink="http://www.w3.org/1999/xlink">
<g id="graph0" class="graph" transform="scale(1 1) rotate(0) translate(4 91)">
<title>ObserverSubjectBase.h</title>
<polygon fill="white" stroke="none" points="-4,4 -4,-91 725.5,-91 725.5,4 -4,4"/>
<!-- Node1 -->
<g id="node1" class="node"><title>Node1</title>
<polygon fill="#bfbfbf" stroke="black" points="237.5,-67.5 237.5,-86.5 357.5,-86.5 357.5,-67.5 237.5,-67.5"/>
<text text-anchor="middle" x="297.5" y="-74.5" font-family="Helvetica,sans-Serif" font-size="10.00">ObserverSubjectBase.h</text>
</g>
<!-- Node2 -->
<g id="node2" class="node"><title>Node2</title>
<polygon fill="white" stroke="#bfbfbf" points="0,-6 0,-25 59,-25 59,-6 0,-6"/>
<text text-anchor="middle" x="29.5" y="-13" font-family="Helvetica,sans-Serif" font-size="10.00">functional</text>
</g>
<!-- Node1&#45;&gt;Node2 -->
<g id="edge1" class="edge"><title>Node1&#45;&gt;Node2</title>
<path fill="none" stroke="midnightblue" d="M240.432,-67.4247C193.733,-59.7793 126.212,-47.2832 68.5,-31 65.8538,-30.2534 63.1323,-29.4083 60.4165,-28.5104"/>
<polygon fill="midnightblue" stroke="midnightblue" points="61.3448,-25.1268 50.75,-25.1097 59.0217,-31.73 61.3448,-25.1268"/>
</g>
<!-- Node3 -->
<g id="node3" class="node"><title>Node3</title>
<polygon fill="white" stroke="#bfbfbf" points="77.5,-6 77.5,-25 133.5,-25 133.5,-6 77.5,-6"/>
<text text-anchor="middle" x="105.5" y="-13" font-family="Helvetica,sans-Serif" font-size="10.00">algorithm</text>
</g>
<!-- Node1&#45;&gt;Node3 -->
<g id="edge2" class="edge"><title>Node1&#45;&gt;Node3</title>
<path fill="none" stroke="midnightblue" d="M264.873,-67.4555C233.32,-58.9747 184.28,-45.2185 142.5,-31 140.377,-30.2776 138.197,-29.5049 136.009,-28.7064"/>
<polygon fill="midnightblue" stroke="midnightblue" points="137.101,-25.3777 126.509,-25.1155 134.626,-31.9254 137.101,-25.3777"/>
</g>
<!-- Node4 -->
<g id="node4" class="node"><title>Node4</title>
<polygon fill="white" stroke="#bfbfbf" points="151.5,-6 151.5,-25 229.5,-25 229.5,-6 151.5,-6"/>
<text text-anchor="middle" x="190.5" y="-13" font-family="Helvetica,sans-Serif" font-size="10.00">boost/any.hpp</text>
</g>
<!-- Node1&#45;&gt;Node4 -->
<g id="edge3" class="edge"><title>Node1&#45;&gt;Node4</title>
<path fill="none" stroke="midnightblue" d="M282.17,-67.4751C264.53,-57.6664 235.34,-41.4346 214.642,-29.925"/>
<polygon fill="midnightblue" stroke="midnightblue" points="216.243,-26.8102 205.802,-25.0091 212.841,-32.9279 216.243,-26.8102"/>
</g>
<!-- Node5 -->
<g id="node5" class="node"><title>Node5</title>
<polygon fill="white" stroke="#bfbfbf" points="247.5,-0.5 247.5,-30.5 347.5,-30.5 347.5,-0.5 247.5,-0.5"/>
<text text-anchor="start" x="255.5" y="-18.5" font-family="Helvetica,sans-Serif" font-size="10.00">boost/type_traits/is</text>
<text text-anchor="middle" x="297.5" y="-7.5" font-family="Helvetica,sans-Serif" font-size="10.00">_class.hpp</text>
</g>
<!-- Node1&#45;&gt;Node5 -->
<g id="edge4" class="edge"><title>Node1&#45;&gt;Node5</title>
<path fill="none" stroke="midnightblue" d="M297.5,-67.4751C297.5,-60.471 297.5,-50.1919 297.5,-40.6956"/>
<polygon fill="midnightblue" stroke="midnightblue" points="301,-40.5229 297.5,-30.523 294,-40.523 301,-40.5229"/>
</g>
<!-- Node6 -->
<g id="node6" class="node"><title>Node6</title>
<polygon fill="white" stroke="#bfbfbf" points="365.5,-0.5 365.5,-30.5 465.5,-30.5 465.5,-0.5 365.5,-0.5"/>
<text text-anchor="start" x="373.5" y="-18.5" font-family="Helvetica,sans-Serif" font-size="10.00">boost/type_traits/is</text>
<text text-anchor="middle" x="415.5" y="-7.5" font-family="Helvetica,sans-Serif" font-size="10.00">_base_of.hpp</text>
</g>
<!-- Node1&#45;&gt;Node6 -->
<g id="edge5" class="edge"><title>Node1&#45;&gt;Node6</title>
<path fill="none" stroke="midnightblue" d="M314.407,-67.4751C331.06,-59.0777 357.05,-45.9728 378.507,-35.1534"/>
<polygon fill="midnightblue" stroke="midnightblue" points="380.336,-38.1506 387.69,-30.523 377.185,-31.9002 380.336,-38.1506"/>
</g>
<!-- Node7 -->
<g id="node7" class="node"><title>Node7</title>
<polygon fill="white" stroke="#bfbfbf" points="484,-6 484,-25 603,-25 603,-6 484,-6"/>
<text text-anchor="middle" x="543.5" y="-13" font-family="Helvetica,sans-Serif" font-size="10.00">boost/static_assert.hpp</text>
</g>
<!-- Node1&#45;&gt;Node7 -->
<g id="edge6" class="edge"><title>Node1&#45;&gt;Node7</title>
<path fill="none" stroke="midnightblue" d="M332.746,-67.4751C376.405,-56.9153 450.843,-38.911 498.563,-27.3689"/>
<polygon fill="midnightblue" stroke="midnightblue" points="499.423,-30.762 508.32,-25.0091 497.777,-23.9582 499.423,-30.762"/>
</g>
<!-- Node8 -->
<g id="node8" class="node"><title>Node8</title>
<polygon fill="white" stroke="#bfbfbf" points="621.5,-0.5 621.5,-30.5 721.5,-30.5 721.5,-0.5 621.5,-0.5"/>
<text text-anchor="start" x="629.5" y="-18.5" font-family="Helvetica,sans-Serif" font-size="10.00">boost/ptr_container</text>
<text text-anchor="middle" x="671.5" y="-7.5" font-family="Helvetica,sans-Serif" font-size="10.00">/ptr_vector.hpp</text>
</g>
<!-- Node1&#45;&gt;Node8 -->
<g id="edge7" class="edge"><title>Node1&#45;&gt;Node8</title>
<path fill="none" stroke="midnightblue" d="M357.597,-69.212C419.028,-61.8686 517.364,-48.9987 611.397,-31.0995"/>
<polygon fill="midnightblue" stroke="midnightblue" points="612.205,-34.5084 621.363,-29.1803 610.881,-27.6347 612.205,-34.5084"/>
</g>
</g>
</svg>
