<?xml version="1.0" encoding="UTF-8" standalone="no"?>
<!DOCTYPE svg PUBLIC "-//W3C//DTD SVG 1.1//EN"
 "http://www.w3.org/Graphics/SVG/1.1/DTD/svg11.dtd">
<!-- Generated by graphviz version 2.38.0 (20140413.2041)
 -->
<!-- Title: ocra::ControlConstraint Pages: 1 -->
<svg width="322pt" height="84pt"
 viewBox="0.00 0.00 321.50 84.00" xmlns="http://www.w3.org/2000/svg" xmlns:xlink="http://www.w3.org/1999/xlink">
<g id="graph0" class="graph" transform="scale(1 1) rotate(0) translate(4 80)">
<title>ocra::ControlConstraint</title>
<polygon fill="white" stroke="none" points="-4,4 -4,-80 317.5,-80 317.5,4 -4,4"/>
<!-- Node1 -->
<g id="node1" class="node"><title>Node1</title>
<polygon fill="#bfbfbf" stroke="black" points="107.5,-56.5 107.5,-75.5 225.5,-75.5 225.5,-56.5 107.5,-56.5"/>
<text text-anchor="middle" x="166.5" y="-63.5" font-family="Helvetica,sans-Serif" font-size="10.00">ocra::ControlConstraint</text>
</g>
<!-- Node2 -->
<g id="node2" class="node"><title>Node2</title>
<g id="a_node2"><a xlink:href="../../d4/d90/classocra_1_1ContactAvoidanceConstraint.html" target="_top" xlink:title="ocra::ContactAvoidanceConstraint">
<polygon fill="white" stroke="black" points="0,-0.5 0,-19.5 167,-19.5 167,-0.5 0,-0.5"/>
<text text-anchor="middle" x="83.5" y="-7.5" font-family="Helvetica,sans-Serif" font-size="10.00">ocra::ContactAvoidanceConstraint</text>
</a>
</g>
</g>
<!-- Node1&#45;&gt;Node2 -->
<g id="edge1" class="edge"><title>Node1&#45;&gt;Node2</title>
<path fill="none" stroke="midnightblue" d="M144.401,-50.6221C129.238,-40.7574 109.617,-27.9919 96.8023,-19.6545"/>
<polygon fill="midnightblue" stroke="midnightblue" points="142.874,-53.8042 153.165,-56.324 146.691,-47.9367 142.874,-53.8042"/>
</g>
<!-- Node3 -->
<g id="node3" class="node"><title>Node3</title>
<g id="a_node3"><a xlink:href="../../d4/d69/classocra_1_1JointLimitConstraint.html" target="_top" xlink:title="ocra::JointLimitConstraint">
<polygon fill="white" stroke="black" points="185.5,-0.5 185.5,-19.5 313.5,-19.5 313.5,-0.5 185.5,-0.5"/>
<text text-anchor="middle" x="249.5" y="-7.5" font-family="Helvetica,sans-Serif" font-size="10.00">ocra::JointLimitConstraint</text>
</a>
</g>
</g>
<!-- Node1&#45;&gt;Node3 -->
<g id="edge2" class="edge"><title>Node1&#45;&gt;Node3</title>
<path fill="none" stroke="midnightblue" d="M188.599,-50.6221C203.762,-40.7574 223.383,-27.9919 236.198,-19.6545"/>
<polygon fill="midnightblue" stroke="midnightblue" points="186.309,-47.9367 179.835,-56.324 190.126,-53.8042 186.309,-47.9367"/>
</g>
</g>
</svg>
