<?xml version="1.0" encoding="UTF-8" standalone="no"?>
<!DOCTYPE svg PUBLIC "-//W3C//DTD SVG 1.1//EN"
 "http://www.w3.org/Graphics/SVG/1.1/DTD/svg11.dtd">
<!-- Generated by graphviz version 2.38.0 (20140413.2041)
 -->
<!-- Title: ocra::VariableChiFunction Pages: 1 -->
<svg width="1226pt" height="424pt"
 viewBox="0.00 0.00 1226.00 423.50" xmlns="http://www.w3.org/2000/svg" xmlns:xlink="http://www.w3.org/1999/xlink">
<g id="graph0" class="graph" transform="scale(1 1) rotate(0) translate(4 419.5)">
<title>ocra::VariableChiFunction</title>
<polygon fill="white" stroke="none" points="-4,4 -4,-419.5 1222,-419.5 1222,4 -4,4"/>
<!-- Node1 -->
<g id="node1" class="node"><title>Node1</title>
<polygon fill="#bfbfbf" stroke="black" points="1089,-37.5 1089,-56.5 1218,-56.5 1218,-37.5 1089,-37.5"/>
<text text-anchor="middle" x="1153.5" y="-44.5" font-family="Helvetica,sans-Serif" font-size="10.00">ocra::VariableChiFunction</text>
</g>
<!-- Node2 -->
<g id="node2" class="node"><title>Node2</title>
<g id="a_node2"><a xlink:href="../../de/d3a/classocra_1_1LinearFunction.html" target="_top" xlink:title="LinearFunction class. ">
<polygon fill="white" stroke="black" points="947,-37.5 947,-56.5 1052,-56.5 1052,-37.5 947,-37.5"/>
<text text-anchor="middle" x="999.5" y="-44.5" font-family="Helvetica,sans-Serif" font-size="10.00">ocra::LinearFunction</text>
</a>
</g>
</g>
<!-- Node2&#45;&gt;Node1 -->
<g id="edge1" class="edge"><title>Node2&#45;&gt;Node1</title>
<path fill="none" stroke="midnightblue" d="M1062.43,-47C1071.1,-47 1080.04,-47 1088.75,-47"/>
<polygon fill="midnightblue" stroke="midnightblue" points="1062.38,-43.5001 1052.38,-47 1062.38,-50.5001 1062.38,-43.5001"/>
</g>
<!-- Node3 -->
<g id="node3" class="node"><title>Node3</title>
<g id="a_node3"><a xlink:href="../../d2/d99/classocra_1_1Function.html" target="_top" xlink:title="Function class. ">
<polygon fill="white" stroke="black" points="831,-138.5 831,-157.5 910,-157.5 910,-138.5 831,-138.5"/>
<text text-anchor="middle" x="870.5" y="-145.5" font-family="Helvetica,sans-Serif" font-size="10.00">ocra::Function</text>
</a>
</g>
</g>
<!-- Node3&#45;&gt;Node2 -->
<g id="edge2" class="edge"><title>Node3&#45;&gt;Node2</title>
<path fill="none" stroke="midnightblue" d="M891.611,-132.007C918.347,-110.744 964.751,-73.8398 986.545,-56.5075"/>
<polygon fill="midnightblue" stroke="midnightblue" points="889.325,-129.352 883.677,-138.316 893.683,-134.831 889.325,-129.352"/>
</g>
<!-- Node4 -->
<g id="node4" class="node"><title>Node4</title>
<g id="a_node4"><a xlink:href="../../d3/d16/classocra_1_1ObserverSubject.html" target="_top" xlink:title="ocra::ObserverSubject">
<polygon fill="white" stroke="black" points="388,-245.5 388,-264.5 502,-264.5 502,-245.5 388,-245.5"/>
<text text-anchor="middle" x="445" y="-252.5" font-family="Helvetica,sans-Serif" font-size="10.00">ocra::ObserverSubject</text>
</a>
</g>
</g>
<!-- Node4&#45;&gt;Node3 -->
<g id="edge3" class="edge"><title>Node4&#45;&gt;Node3</title>
<path fill="none" stroke="midnightblue" d="M512.326,-259.178C575.104,-261.062 671.199,-258.527 750,-233 797.23,-217.7 841.844,-176.39 860.423,-157.572"/>
<polygon fill="midnightblue" stroke="midnightblue" points="512.276,-255.674 502.16,-258.825 512.033,-262.67 512.276,-255.674"/>
</g>
<!-- Node20 -->
<g id="node20" class="node"><title>Node20</title>
<g id="a_node20"><a xlink:href="../../d2/dac/classocra_1_1Variable.html" target="_top" xlink:title="This class represents a variable in a mathematical sense. ">
<polygon fill="white" stroke="black" points="628,-286.5 628,-305.5 705,-305.5 705,-286.5 628,-286.5"/>
<text text-anchor="middle" x="666.5" y="-293.5" font-family="Helvetica,sans-Serif" font-size="10.00">ocra::Variable</text>
</a>
</g>
</g>
<!-- Node4&#45;&gt;Node20 -->
<g id="edge21" class="edge"><title>Node4&#45;&gt;Node20</title>
<path fill="none" stroke="midnightblue" d="M507.039,-266.401C545.801,-273.642 594.732,-282.781 627.891,-288.975"/>
<polygon fill="midnightblue" stroke="midnightblue" points="507.382,-262.905 496.909,-264.509 506.097,-269.786 507.382,-262.905"/>
</g>
<!-- Node5 -->
<g id="node5" class="node"><title>Node5</title>
<g id="a_node5"><a xlink:href="../../d2/d45/classocra_1_1Observer.html" target="_top" xlink:title="ocra::Observer">
<polygon fill="white" stroke="black" points="226,-316.5 226,-335.5 307,-335.5 307,-316.5 226,-316.5"/>
<text text-anchor="middle" x="266.5" y="-323.5" font-family="Helvetica,sans-Serif" font-size="10.00">ocra::Observer</text>
</a>
</g>
</g>
<!-- Node5&#45;&gt;Node4 -->
<g id="edge4" class="edge"><title>Node5&#45;&gt;Node4</title>
<path fill="none" stroke="midnightblue" d="M286.748,-310.055C301.529,-298.613 322.92,-283.732 344,-275 357.74,-269.309 373.23,-265.199 387.842,-262.246"/>
<polygon fill="midnightblue" stroke="midnightblue" points="284.513,-307.36 278.86,-316.321 288.867,-312.841 284.513,-307.36"/>
</g>
<!-- Node6 -->
<g id="node6" class="node"><title>Node6</title>
<g id="a_node6"><a xlink:href="../../d4/dee/classocra_1_1ObserverBase.html" target="_top" xlink:title="ocra::ObserverBase\l\&lt; EVT_RESIZE \&gt;">
<polygon fill="white" stroke="black" points="42.5,-385 42.5,-415 146.5,-415 146.5,-385 42.5,-385"/>
<text text-anchor="start" x="50.5" y="-403" font-family="Helvetica,sans-Serif" font-size="10.00">ocra::ObserverBase</text>
<text text-anchor="middle" x="94.5" y="-392" font-family="Helvetica,sans-Serif" font-size="10.00">&lt; EVT_RESIZE &gt;</text>
</a>
</g>
</g>
<!-- Node6&#45;&gt;Node5 -->
<g id="edge5" class="edge"><title>Node6&#45;&gt;Node5</title>
<path fill="none" stroke="midnightblue" d="M156.871,-386.502C167.777,-383.288 178.878,-379.466 189,-375 213.243,-364.305 238.613,-346.545 253.19,-335.598"/>
<polygon fill="midnightblue" stroke="midnightblue" points="155.628,-383.216 146.943,-389.285 157.517,-389.956 155.628,-383.216"/>
</g>
<!-- Node7 -->
<g id="node7" class="node"><title>Node7</title>
<g id="a_node7"><a xlink:href="../../d4/dee/classocra_1_1ObserverBase.html" target="_top" xlink:title="ocra::ObserverBase\l\&lt; EVT_CHANGE_DEPENDENCIES \&gt;">
<polygon fill="white" stroke="black" points="0,-336 0,-366 189,-366 189,-336 0,-336"/>
<text text-anchor="start" x="8" y="-354" font-family="Helvetica,sans-Serif" font-size="10.00">ocra::ObserverBase</text>
<text text-anchor="middle" x="94.5" y="-343" font-family="Helvetica,sans-Serif" font-size="10.00">&lt; EVT_CHANGE_DEPENDENCIES &gt;</text>
</a>
</g>
</g>
<!-- Node7&#45;&gt;Node5 -->
<g id="edge6" class="edge"><title>Node7&#45;&gt;Node5</title>
<path fill="none" stroke="midnightblue" d="M199.529,-335.702C208.724,-334.349 217.605,-333.043 225.713,-331.851"/>
<polygon fill="midnightblue" stroke="midnightblue" points="198.834,-332.266 189.45,-337.184 199.853,-339.192 198.834,-332.266"/>
</g>
<!-- Node8 -->
<g id="node8" class="node"><title>Node8</title>
<g id="a_node8"><a xlink:href="../../d4/dee/classocra_1_1ObserverBase.html" target="_top" xlink:title="ocra::ObserverBase\l\&lt; EVT_CHANGE_VALUE \&gt;">
<polygon fill="white" stroke="black" points="24,-287 24,-317 165,-317 165,-287 24,-287"/>
<text text-anchor="start" x="32" y="-305" font-family="Helvetica,sans-Serif" font-size="10.00">ocra::ObserverBase</text>
<text text-anchor="middle" x="94.5" y="-294" font-family="Helvetica,sans-Serif" font-size="10.00">&lt; EVT_CHANGE_VALUE &gt;</text>
</a>
</g>
</g>
<!-- Node8&#45;&gt;Node5 -->
<g id="edge7" class="edge"><title>Node8&#45;&gt;Node5</title>
<path fill="none" stroke="midnightblue" d="M175.415,-313.282C192.968,-315.76 210.811,-318.279 225.936,-320.414"/>
<polygon fill="midnightblue" stroke="midnightblue" points="175.527,-309.763 165.136,-311.831 174.549,-316.695 175.527,-309.763"/>
</g>
<!-- Node9 -->
<g id="node9" class="node"><title>Node9</title>
<g id="a_node9"><a xlink:href="../../dc/d77/classocra_1_1Subject.html" target="_top" xlink:title="ocra::Subject">
<polygon fill="white" stroke="black" points="229.5,-215.5 229.5,-234.5 303.5,-234.5 303.5,-215.5 229.5,-215.5"/>
<text text-anchor="middle" x="266.5" y="-222.5" font-family="Helvetica,sans-Serif" font-size="10.00">ocra::Subject</text>
</a>
</g>
</g>
<!-- Node9&#45;&gt;Node4 -->
<g id="edge8" class="edge"><title>Node9&#45;&gt;Node4</title>
<path fill="none" stroke="midnightblue" d="M313.732,-232.858C336.501,-236.728 364.139,-241.426 388.089,-245.497"/>
<polygon fill="midnightblue" stroke="midnightblue" points="314.088,-229.369 303.643,-231.143 312.915,-236.27 314.088,-229.369"/>
</g>
<!-- Node10 -->
<g id="node10" class="node"><title>Node10</title>
<g id="a_node10"><a xlink:href="../../dc/d29/classocra_1_1SubjectBase.html" target="_top" xlink:title="ocra::SubjectBase\&lt;\l EVT_RESIZE \&gt;">
<polygon fill="white" stroke="black" points="43,-238 43,-268 146,-268 146,-238 43,-238"/>
<text text-anchor="start" x="51" y="-256" font-family="Helvetica,sans-Serif" font-size="10.00">ocra::SubjectBase&lt;</text>
<text text-anchor="middle" x="94.5" y="-245" font-family="Helvetica,sans-Serif" font-size="10.00"> EVT_RESIZE &gt;</text>
</a>
</g>
</g>
<!-- Node10&#45;&gt;Node9 -->
<g id="edge9" class="edge"><title>Node10&#45;&gt;Node9</title>
<path fill="none" stroke="midnightblue" d="M156.006,-243.034C180.573,-238.988 208.125,-234.45 229.446,-230.938"/>
<polygon fill="midnightblue" stroke="midnightblue" points="155.344,-239.596 146.045,-244.675 156.481,-246.503 155.344,-239.596"/>
</g>
<!-- Node11 -->
<g id="node11" class="node"><title>Node11</title>
<g id="a_node11"><a xlink:href="../../dc/d29/classocra_1_1SubjectBase.html" target="_top" xlink:title="ocra::SubjectBase\&lt;\l EVT_CHANGE_DEPENDENCIES \&gt;">
<polygon fill="white" stroke="black" points="3,-189 3,-219 186,-219 186,-189 3,-189"/>
<text text-anchor="start" x="11" y="-207" font-family="Helvetica,sans-Serif" font-size="10.00">ocra::SubjectBase&lt;</text>
<text text-anchor="middle" x="94.5" y="-196" font-family="Helvetica,sans-Serif" font-size="10.00"> EVT_CHANGE_DEPENDENCIES &gt;</text>
</a>
</g>
</g>
<!-- Node11&#45;&gt;Node9 -->
<g id="edge10" class="edge"><title>Node11&#45;&gt;Node9</title>
<path fill="none" stroke="midnightblue" d="M196.712,-216.503C208.269,-217.93 219.411,-219.307 229.239,-220.521"/>
<polygon fill="midnightblue" stroke="midnightblue" points="196.826,-212.99 186.472,-215.238 195.968,-219.937 196.826,-212.99"/>
</g>
<!-- Node12 -->
<g id="node12" class="node"><title>Node12</title>
<g id="a_node12"><a xlink:href="../../dc/d29/classocra_1_1SubjectBase.html" target="_top" xlink:title="ocra::SubjectBase\&lt;\l EVT_CHANGE_VALUE \&gt;">
<polygon fill="white" stroke="black" points="27,-140 27,-170 162,-170 162,-140 27,-140"/>
<text text-anchor="start" x="35" y="-158" font-family="Helvetica,sans-Serif" font-size="10.00">ocra::SubjectBase&lt;</text>
<text text-anchor="middle" x="94.5" y="-147" font-family="Helvetica,sans-Serif" font-size="10.00"> EVT_CHANGE_VALUE &gt;</text>
</a>
</g>
</g>
<!-- Node12&#45;&gt;Node9 -->
<g id="edge11" class="edge"><title>Node12&#45;&gt;Node9</title>
<path fill="none" stroke="midnightblue" d="M172.021,-172.676C177.834,-174.614 183.553,-176.721 189,-179 212.589,-188.871 237.55,-205.127 252.315,-215.437"/>
<polygon fill="midnightblue" stroke="midnightblue" points="172.771,-169.242 162.182,-169.572 170.666,-175.918 172.771,-169.242"/>
</g>
<!-- Node13 -->
<g id="node13" class="node"><title>Node13</title>
<g id="a_node13"><a xlink:href="../../dd/d68/classocra_1_1IFunctionProperties.html" target="_top" xlink:title="ocra::IFunctionProperties">
<polygon fill="white" stroke="black" points="603.5,-204.5 603.5,-223.5 729.5,-223.5 729.5,-204.5 603.5,-204.5"/>
<text text-anchor="middle" x="666.5" y="-211.5" font-family="Helvetica,sans-Serif" font-size="10.00">ocra::IFunctionProperties</text>
</a>
</g>
</g>
<!-- Node13&#45;&gt;Node3 -->
<g id="edge12" class="edge"><title>Node13&#45;&gt;Node3</title>
<path fill="none" stroke="midnightblue" d="M720.968,-201.966C730.681,-199.517 740.683,-196.82 750,-194 778.529,-185.364 785.191,-181.732 813,-171 824.066,-166.729 836.264,-161.793 846.485,-157.591"/>
<polygon fill="midnightblue" stroke="midnightblue" points="719.865,-198.633 710.992,-204.423 721.539,-205.43 719.865,-198.633"/>
</g>
<!-- Node14 -->
<g id="node14" class="node"><title>Node14</title>
<polygon fill="white" stroke="#bfbfbf" points="583,-155 583,-185 750,-185 750,-155 583,-155"/>
<text text-anchor="start" x="591" y="-173" font-family="Helvetica,sans-Serif" font-size="10.00">OCRA_FUNCTION_INTERFACE</text>
<text text-anchor="middle" x="666.5" y="-162" font-family="Helvetica,sans-Serif" font-size="10.00">_INHERITANCEpublic</text>
</g>
<!-- Node14&#45;&gt;Node3 -->
<g id="edge13" class="edge"><title>Node14&#45;&gt;Node3</title>
<path fill="none" stroke="#8b1a1a" d="M760.446,-159.877C785.255,-157.175 810.716,-154.402 830.791,-152.216"/>
<polygon fill="#8b1a1a" stroke="#8b1a1a" points="759.806,-156.426 750.244,-160.988 760.564,-163.385 759.806,-156.426"/>
</g>
<!-- Node15 -->
<g id="node15" class="node"><title>Node15</title>
<g id="a_node15"><a xlink:href="../../db/de3/classocra_1_1NamedInstance.html" target="_top" xlink:title="ocra::NamedInstance">
<polygon fill="white" stroke="black" points="611.5,-116.5 611.5,-135.5 721.5,-135.5 721.5,-116.5 611.5,-116.5"/>
<text text-anchor="middle" x="666.5" y="-123.5" font-family="Helvetica,sans-Serif" font-size="10.00">ocra::NamedInstance</text>
</a>
</g>
</g>
<!-- Node15&#45;&gt;Node3 -->
<g id="edge14" class="edge"><title>Node15&#45;&gt;Node3</title>
<path fill="none" stroke="midnightblue" d="M731.98,-133.023C764.546,-136.569 802.968,-140.754 830.909,-143.797"/>
<polygon fill="midnightblue" stroke="midnightblue" points="731.952,-129.499 721.632,-131.896 731.195,-136.458 731.952,-129.499"/>
</g>
<!-- Node16 -->
<g id="node16" class="node"><title>Node16</title>
<g id="a_node16"><a xlink:href="../../d8/d24/classocra_1_1AbilitySet.html" target="_top" xlink:title="ocra::AbilitySet">
<polygon fill="white" stroke="black" points="625,-78.5 625,-97.5 708,-97.5 708,-78.5 625,-78.5"/>
<text text-anchor="middle" x="666.5" y="-85.5" font-family="Helvetica,sans-Serif" font-size="10.00">ocra::AbilitySet</text>
</a>
</g>
</g>
<!-- Node16&#45;&gt;Node3 -->
<g id="edge15" class="edge"><title>Node16&#45;&gt;Node3</title>
<path fill="none" stroke="midnightblue" d="M718.328,-98.8297C728.85,-101.317 739.826,-104.092 750,-107 782.899,-116.404 820.077,-129.572 844.103,-138.424"/>
<polygon fill="midnightblue" stroke="midnightblue" points="718.95,-95.3814 708.419,-96.5387 717.373,-102.201 718.95,-95.3814"/>
</g>
<!-- Node17 -->
<g id="node17" class="node"><title>Node17</title>
<g id="a_node17"><a xlink:href="../../d5/dc0/classocra_1_1CoupledInputOutputSize.html" target="_top" xlink:title="ocra::CoupledInputOutputSize">
<polygon fill="white" stroke="black" points="592.5,-40.5 592.5,-59.5 740.5,-59.5 740.5,-40.5 592.5,-40.5"/>
<text text-anchor="middle" x="666.5" y="-47.5" font-family="Helvetica,sans-Serif" font-size="10.00">ocra::CoupledInputOutputSize</text>
</a>
</g>
</g>
<!-- Node17&#45;&gt;Node3 -->
<g id="edge16" class="edge"><title>Node17&#45;&gt;Node3</title>
<path fill="none" stroke="midnightblue" d="M730.806,-62.2433C737.387,-64.2055 743.896,-66.4477 750,-69 793.367,-87.1324 837.834,-121.551 858.14,-138.325"/>
<polygon fill="midnightblue" stroke="midnightblue" points="731.72,-58.865 721.149,-59.5652 729.85,-65.6104 731.72,-58.865"/>
</g>
<!-- Node18 -->
<g id="node18" class="node"><title>Node18</title>
<polygon fill="white" stroke="#bfbfbf" points="638,-0.5 638,-19.5 695,-19.5 695,-0.5 638,-0.5"/>
<text text-anchor="middle" x="666.5" y="-7.5" font-family="Helvetica,sans-Serif" font-size="10.00">VectorXd</text>
</g>
<!-- Node18&#45;&gt;Node2 -->
<g id="edge24" class="edge"><title>Node18&#45;&gt;Node2</title>
<path fill="none" stroke="#9a32cd" stroke-dasharray="5,2" d="M705.214,-14.2158C764.566,-20.8502 879.889,-33.7413 946.881,-41.2299"/>
<polygon fill="#9a32cd" stroke="#9a32cd" points="705.479,-10.7236 695.152,-13.091 704.701,-17.6803 705.479,-10.7236"/>
<text text-anchor="middle" x="870.5" y="-40" font-family="Helvetica,sans-Serif" font-size="10.00"> _b</text>
</g>
<!-- Node18&#45;&gt;Node3 -->
<g id="edge17" class="edge"><title>Node18&#45;&gt;Node3</title>
<path fill="none" stroke="#9a32cd" stroke-dasharray="5,2" d="M704.898,-15.9577C736.896,-22.7492 782.489,-36.6621 813,-64 837.739,-86.1664 856.745,-121.388 864.999,-138.306"/>
<polygon fill="#9a32cd" stroke="#9a32cd" points="705.514,-12.5118 695.024,-13.995 704.149,-19.3774 705.514,-12.5118"/>
<text text-anchor="middle" x="790.5" y="-67" font-family="Helvetica,sans-Serif" font-size="10.00"> _value</text>
</g>
<!-- Node19 -->
<g id="node19" class="node"><title>Node19</title>
<polygon fill="white" stroke="#bfbfbf" points="638.5,-324.5 638.5,-343.5 694.5,-343.5 694.5,-324.5 638.5,-324.5"/>
<text text-anchor="middle" x="666.5" y="-331.5" font-family="Helvetica,sans-Serif" font-size="10.00">MatrixXd</text>
</g>
<!-- Node19&#45;&gt;Node3 -->
<g id="edge18" class="edge"><title>Node19&#45;&gt;Node3</title>
<path fill="none" stroke="#9a32cd" stroke-dasharray="5,2" d="M704.9,-335.264C737.203,-334.353 783.244,-327.983 813,-302 857.833,-262.851 867.121,-184.981 869.02,-157.708"/>
<polygon fill="#9a32cd" stroke="#9a32cd" points="704.474,-331.768 694.516,-335.384 704.555,-338.768 704.474,-331.768"/>
<text text-anchor="middle" x="790.5" y="-328" font-family="Helvetica,sans-Serif" font-size="10.00"> _jacobian</text>
</g>
<!-- Node20&#45;&gt;Node3 -->
<g id="edge19" class="edge"><title>Node20&#45;&gt;Node3</title>
<path fill="none" stroke="#9a32cd" stroke-dasharray="5,2" d="M715.147,-296.252C745.966,-294.092 785.345,-286.704 813,-265 848.844,-236.869 863.3,-180.286 867.803,-157.666"/>
<polygon fill="#9a32cd" stroke="#9a32cd" points="714.85,-292.762 705.053,-296.797 715.228,-299.752 714.85,-292.762"/>
<text text-anchor="middle" x="790.5" y="-290" font-family="Helvetica,sans-Serif" font-size="10.00"> x</text>
</g>
<!-- Node21 -->
<g id="node21" class="node"><title>Node21</title>
<g id="a_node21"><a xlink:href="../../d0/d29/classocra_1_1Component.html" target="_top" xlink:title="ocra::Component\&lt; Variable,\l CompositeVariable, VariableParenthood \&gt;">
<polygon fill="white" stroke="black" points="344,-373 344,-403 546,-403 546,-373 344,-373"/>
<text text-anchor="start" x="352" y="-391" font-family="Helvetica,sans-Serif" font-size="10.00">ocra::Component&lt; Variable,</text>
<text text-anchor="middle" x="445" y="-380" font-family="Helvetica,sans-Serif" font-size="10.00"> CompositeVariable, VariableParenthood &gt;</text>
</a>
</g>
</g>
<!-- Node21&#45;&gt;Node20 -->
<g id="edge20" class="edge"><title>Node21&#45;&gt;Node20</title>
<path fill="none" stroke="midnightblue" d="M536.15,-368.676C539.559,-366.944 542.858,-365.057 546,-363 568.538,-348.249 560.326,-329.54 583,-315 596.238,-306.51 612.823,-301.798 627.644,-299.189"/>
<polygon fill="midnightblue" stroke="midnightblue" points="534.539,-365.564 526.902,-372.908 537.452,-371.929 534.539,-365.564"/>
</g>
<!-- Node22 -->
<g id="node22" class="node"><title>Node22</title>
<polygon fill="white" stroke="#bfbfbf" points="409.5,-334.5 409.5,-353.5 480.5,-353.5 480.5,-334.5 409.5,-334.5"/>
<text text-anchor="middle" x="445" y="-341.5" font-family="Helvetica,sans-Serif" font-size="10.00">noncopyable</text>
</g>
<!-- Node22&#45;&gt;Node20 -->
<g id="edge22" class="edge"><title>Node22&#45;&gt;Node20</title>
<path fill="none" stroke="#8b1a1a" d="M490.64,-335.481C507.96,-332.068 527.938,-328.001 546,-324 562.523,-320.34 566.531,-318.899 583,-315 597.588,-311.546 613.649,-307.828 627.692,-304.605"/>
<polygon fill="#8b1a1a" stroke="#8b1a1a" points="489.925,-332.054 480.783,-337.409 491.269,-338.924 489.925,-332.054"/>
</g>
<!-- Node23 -->
<g id="node23" class="node"><title>Node23</title>
<g id="a_node23"><a xlink:href="../../dc/d20/classocra_1_1VariableHasRestrictedClassDerivation.html" target="_top" xlink:title="ocra::VariableHasRestricted\lClassDerivation">
<polygon fill="white" stroke="black" points="375,-285 375,-315 515,-315 515,-285 375,-285"/>
<text text-anchor="start" x="383" y="-303" font-family="Helvetica,sans-Serif" font-size="10.00">ocra::VariableHasRestricted</text>
<text text-anchor="middle" x="445" y="-292" font-family="Helvetica,sans-Serif" font-size="10.00">ClassDerivation</text>
</a>
</g>
</g>
<!-- Node23&#45;&gt;Node20 -->
<g id="edge23" class="edge"><title>Node23&#45;&gt;Node20</title>
<path fill="none" stroke="#8b1a1a" d="M525.371,-298.554C560.378,-297.916 599.861,-297.196 627.974,-296.684"/>
<polygon fill="#8b1a1a" stroke="#8b1a1a" points="525.084,-295.058 515.15,-298.74 525.212,-302.057 525.084,-295.058"/>
</g>
</g>
</svg>
