<?xml version="1.0" encoding="UTF-8" standalone="no"?>
<!DOCTYPE svg PUBLIC "-//W3C//DTD SVG 1.1//EN"
 "http://www.w3.org/Graphics/SVG/1.1/DTD/svg11.dtd">
<!-- Generated by graphviz version 2.38.0 (20140413.2041)
 -->
<!-- Title: ocra::Constraint&lt; Function &gt; Pages: 1 -->
<svg width="356pt" height="99pt"
 viewBox="0.00 0.00 356.00 98.50" xmlns="http://www.w3.org/2000/svg" xmlns:xlink="http://www.w3.org/1999/xlink">
<g id="graph0" class="graph" transform="scale(1 1) rotate(0) translate(4 94.5)">
<title>ocra::Constraint&lt; Function &gt;</title>
<polygon fill="white" stroke="none" points="-4,4 -4,-94.5 352,-94.5 352,4 -4,4"/>
<!-- Node1 -->
<g id="node1" class="node"><title>Node1</title>
<polygon fill="#bfbfbf" stroke="black" points="206,-38.5 206,-57.5 348,-57.5 348,-38.5 206,-38.5"/>
<text text-anchor="middle" x="277" y="-45.5" font-family="Helvetica,sans-Serif" font-size="10.00">ocra::Constraint&lt; Function &gt;</text>
</g>
<!-- Node2 -->
<g id="node2" class="node"><title>Node2</title>
<g id="a_node2"><a xlink:href="../../d1/d29/structocra_1_1FunctionInterfaceMapping.html" target="_top" xlink:title="ocra::FunctionInterfaceMapping\l\&lt; Constraint\&lt; Function \&gt; \&gt;">
<polygon fill="white" stroke="black" points="8,-60 8,-90 162,-90 162,-60 8,-60"/>
<text text-anchor="start" x="16" y="-78" font-family="Helvetica,sans-Serif" font-size="10.00">ocra::FunctionInterfaceMapping</text>
<text text-anchor="middle" x="85" y="-67" font-family="Helvetica,sans-Serif" font-size="10.00">&lt; Constraint&lt; Function &gt; &gt;</text>
</a>
</g>
</g>
<!-- Node2&#45;&gt;Node1 -->
<g id="edge1" class="edge"><title>Node2&#45;&gt;Node1</title>
<path fill="none" stroke="midnightblue" d="M172.43,-62.7179C184.701,-60.9741 197.164,-59.2029 208.992,-57.5222"/>
<polygon fill="midnightblue" stroke="midnightblue" points="171.594,-59.3015 162.185,-64.1736 172.578,-66.2318 171.594,-59.3015"/>
</g>
<!-- Node3 -->
<g id="node3" class="node"><title>Node3</title>
<g id="a_node3"><a xlink:href="../../dc/d29/classocra_1_1SubjectBase.html" target="_top" xlink:title="ocra::SubjectBase\&lt;\l EVT_CSTR_CHANGE_BOUNDS\l_NUMBER \&gt;">
<polygon fill="white" stroke="black" points="0,-0.5 0,-41.5 170,-41.5 170,-0.5 0,-0.5"/>
<text text-anchor="start" x="8" y="-29.5" font-family="Helvetica,sans-Serif" font-size="10.00">ocra::SubjectBase&lt;</text>
<text text-anchor="start" x="8" y="-18.5" font-family="Helvetica,sans-Serif" font-size="10.00"> EVT_CSTR_CHANGE_BOUNDS</text>
<text text-anchor="middle" x="85" y="-7.5" font-family="Helvetica,sans-Serif" font-size="10.00">_NUMBER &gt;</text>
</a>
</g>
</g>
<!-- Node3&#45;&gt;Node1 -->
<g id="edge2" class="edge"><title>Node3&#45;&gt;Node1</title>
<path fill="none" stroke="midnightblue" d="M180.261,-34.395C189.968,-35.7744 199.685,-37.1553 209.007,-38.48"/>
<polygon fill="midnightblue" stroke="midnightblue" points="180.559,-30.9023 170.167,-32.9605 179.575,-37.8327 180.559,-30.9023"/>
</g>
</g>
</svg>
