<?xml version="1.0" encoding="UTF-8" standalone="no"?>
<!DOCTYPE svg PUBLIC "-//W3C//DTD SVG 1.1//EN"
 "http://www.w3.org/Graphics/SVG/1.1/DTD/svg11.dtd">
<!-- Generated by graphviz version 2.38.0 (20140413.2041)
 -->
<!-- Title: LinearFunction.cpp Pages: 1 -->
<svg width="1589pt" height="397pt"
 viewBox="0.00 0.00 1589.00 397.00" xmlns="http://www.w3.org/2000/svg" xmlns:xlink="http://www.w3.org/1999/xlink">
<g id="graph0" class="graph" transform="scale(1 1) rotate(0) translate(4 393)">
<title>LinearFunction.cpp</title>
<polygon fill="white" stroke="none" points="-4,4 -4,-393 1585,-393 1585,4 -4,4"/>
<!-- Node1 -->
<g id="node1" class="node"><title>Node1</title>
<polygon fill="#bfbfbf" stroke="black" points="1386,-369.5 1386,-388.5 1485,-388.5 1485,-369.5 1386,-369.5"/>
<text text-anchor="middle" x="1435.5" y="-376.5" font-family="Helvetica,sans-Serif" font-size="10.00">LinearFunction.cpp</text>
</g>
<!-- Node2 -->
<g id="node2" class="node"><title>Node2</title>
<g id="a_node2"><a xlink:href="../../dc/d8a/LinearFunction_8h.html" target="_top" xlink:title="Declaration file of the LinearFunction class. ">
<polygon fill="white" stroke="black" points="915,-313.5 915,-332.5 1052,-332.5 1052,-313.5 915,-313.5"/>
<text text-anchor="middle" x="983.5" y="-320.5" font-family="Helvetica,sans-Serif" font-size="10.00">ocra/optim/LinearFunction.h</text>
</a>
</g>
</g>
<!-- Node1&#45;&gt;Node2 -->
<g id="edge1" class="edge"><title>Node1&#45;&gt;Node2</title>
<path fill="none" stroke="midnightblue" d="M1385.84,-372.067C1307.73,-362.735 1155.5,-344.549 1062.33,-333.417"/>
<polygon fill="midnightblue" stroke="midnightblue" points="1062.73,-329.94 1052.38,-332.229 1061.9,-336.891 1062.73,-329.94"/>
</g>
<!-- Node12 -->
<g id="node12" class="node"><title>Node12</title>
<polygon fill="white" stroke="#bfbfbf" points="1402,-73 1402,-92 1461,-92 1461,-73 1402,-73"/>
<text text-anchor="middle" x="1431.5" y="-80" font-family="Helvetica,sans-Serif" font-size="10.00">stdexcept</text>
</g>
<!-- Node1&#45;&gt;Node12 -->
<g id="edge55" class="edge"><title>Node1&#45;&gt;Node12</title>
<path fill="none" stroke="midnightblue" d="M1435.5,-369.442C1435.5,-350.936 1435.5,-305.812 1435.5,-268 1435.5,-268 1435.5,-268 1435.5,-204.5 1435.5,-168.194 1433.68,-125.794 1432.49,-102.053"/>
<polygon fill="midnightblue" stroke="midnightblue" points="1435.99,-101.811 1431.97,-92.0054 1429,-102.173 1435.99,-101.811"/>
</g>
<!-- Node17 -->
<g id="node17" class="node"><title>Node17</title>
<g id="a_node17"><a xlink:href="../../d7/d90/Variable_8h.html" target="_top" xlink:title="Declaration file of the Variable class. ">
<polygon fill="white" stroke="black" points="510,-196 510,-215 619,-215 619,-196 510,-196"/>
<text text-anchor="middle" x="564.5" y="-203" font-family="Helvetica,sans-Serif" font-size="10.00">ocra/optim/Variable.h</text>
</a>
</g>
</g>
<!-- Node1&#45;&gt;Node17 -->
<g id="edge56" class="edge"><title>Node1&#45;&gt;Node17</title>
<path fill="none" stroke="midnightblue" d="M1385.82,-378.79C1265.12,-379.102 948.551,-370.206 706.5,-277 663.534,-260.455 616.089,-235.431 588.363,-220.073"/>
<polygon fill="midnightblue" stroke="midnightblue" points="589.855,-216.897 579.419,-215.073 586.44,-223.007 589.855,-216.897"/>
</g>
<!-- Node37 -->
<g id="node37" class="node"><title>Node37</title>
<polygon fill="white" stroke="#bfbfbf" points="1463.5,-313.5 1463.5,-332.5 1515.5,-332.5 1515.5,-313.5 1463.5,-313.5"/>
<text text-anchor="middle" x="1489.5" y="-320.5" font-family="Helvetica,sans-Serif" font-size="10.00">sstream</text>
</g>
<!-- Node1&#45;&gt;Node37 -->
<g id="edge54" class="edge"><title>Node1&#45;&gt;Node37</title>
<path fill="none" stroke="midnightblue" d="M1444.42,-369.083C1452.28,-361.22 1463.93,-349.569 1473.42,-340.081"/>
<polygon fill="midnightblue" stroke="midnightblue" points="1476.15,-342.297 1480.75,-332.751 1471.2,-337.347 1476.15,-342.297"/>
</g>
<!-- Node38 -->
<g id="node38" class="node"><title>Node38</title>
<polygon fill="white" stroke="#bfbfbf" points="1534,-313.5 1534,-332.5 1581,-332.5 1581,-313.5 1534,-313.5"/>
<text text-anchor="middle" x="1557.5" y="-320.5" font-family="Helvetica,sans-Serif" font-size="10.00">math.h</text>
</g>
<!-- Node1&#45;&gt;Node38 -->
<g id="edge57" class="edge"><title>Node1&#45;&gt;Node38</title>
<path fill="none" stroke="midnightblue" d="M1454.83,-369.444C1474.82,-360.596 1506.24,-346.687 1529.06,-336.586"/>
<polygon fill="midnightblue" stroke="midnightblue" points="1530.53,-339.764 1538.26,-332.516 1527.7,-333.363 1530.53,-339.764"/>
</g>
<!-- Node3 -->
<g id="node3" class="node"><title>Node3</title>
<g id="a_node3"><a xlink:href="../../df/df5/Function_8h.html" target="_top" xlink:title="Declaration file of the Function class. ">
<polygon fill="white" stroke="black" points="928,-257.5 928,-276.5 1039,-276.5 1039,-257.5 928,-257.5"/>
<text text-anchor="middle" x="983.5" y="-264.5" font-family="Helvetica,sans-Serif" font-size="10.00">ocra/optim/Function.h</text>
</a>
</g>
</g>
<!-- Node2&#45;&gt;Node3 -->
<g id="edge2" class="edge"><title>Node2&#45;&gt;Node3</title>
<path fill="none" stroke="midnightblue" d="M983.5,-313.083C983.5,-306.006 983.5,-295.861 983.5,-286.986"/>
<polygon fill="midnightblue" stroke="midnightblue" points="987,-286.751 983.5,-276.751 980,-286.751 987,-286.751"/>
</g>
<!-- Node35 -->
<g id="node35" class="node"><title>Node35</title>
<g id="a_node35"><a xlink:href="../../df/d0a/Macros_8h.html" target="_top" xlink:title="ocra/util/Macros.h">
<polygon fill="white" stroke="black" points="716,-257.5 716,-276.5 811,-276.5 811,-257.5 716,-257.5"/>
<text text-anchor="middle" x="763.5" y="-264.5" font-family="Helvetica,sans-Serif" font-size="10.00">ocra/util/Macros.h</text>
</a>
</g>
</g>
<!-- Node2&#45;&gt;Node35 -->
<g id="edge52" class="edge"><title>Node2&#45;&gt;Node35</title>
<path fill="none" stroke="midnightblue" d="M948.64,-313.444C910.584,-304.102 849.542,-289.119 808.04,-278.933"/>
<polygon fill="midnightblue" stroke="midnightblue" points="808.743,-275.501 798.197,-276.516 807.074,-282.299 808.743,-275.501"/>
</g>
<!-- Node4 -->
<g id="node4" class="node"><title>Node4</title>
<g id="a_node4"><a xlink:href="../../de/d94/IFunction_8h.html" target="_top" xlink:title="Declaration file of the IFunction interface. ">
<polygon fill="white" stroke="black" points="1254.5,-134.5 1254.5,-153.5 1368.5,-153.5 1368.5,-134.5 1254.5,-134.5"/>
<text text-anchor="middle" x="1311.5" y="-141.5" font-family="Helvetica,sans-Serif" font-size="10.00">ocra/optim/IFunction.h</text>
</a>
</g>
</g>
<!-- Node3&#45;&gt;Node4 -->
<g id="edge3" class="edge"><title>Node3&#45;&gt;Node4</title>
<path fill="none" stroke="midnightblue" d="M1039.06,-263.698C1142.52,-258.839 1356.3,-245.877 1378.5,-221 1387.67,-210.721 1384.98,-202.159 1378.5,-190 1370.95,-175.834 1356.74,-165.335 1343.34,-158.058"/>
<polygon fill="midnightblue" stroke="midnightblue" points="1344.8,-154.872 1334.29,-153.529 1341.67,-161.133 1344.8,-154.872"/>
</g>
<!-- Node13 -->
<g id="node13" class="node"><title>Node13</title>
<g id="a_node13"><a xlink:href="../../d9/d54/IFunctionProperties_8h.html" target="_top" xlink:title="ocra/optim/IFunctionProperties.h">
<polygon fill="white" stroke="black" points="1077.5,-196 1077.5,-215 1235.5,-215 1235.5,-196 1077.5,-196"/>
<text text-anchor="middle" x="1156.5" y="-203" font-family="Helvetica,sans-Serif" font-size="10.00">ocra/optim/IFunctionProperties.h</text>
</a>
</g>
</g>
<!-- Node3&#45;&gt;Node13 -->
<g id="edge12" class="edge"><title>Node3&#45;&gt;Node13</title>
<path fill="none" stroke="midnightblue" d="M1008.29,-257.475C1038.09,-247.225 1088.29,-229.959 1121.9,-218.399"/>
<polygon fill="midnightblue" stroke="midnightblue" points="1123.44,-221.571 1131.76,-215.009 1121.16,-214.952 1123.44,-221.571"/>
</g>
<!-- Node15 -->
<g id="node15" class="node"><title>Node15</title>
<g id="a_node15"><a xlink:href="../../db/d47/AbilitySet_8h.html" target="_top" xlink:title="ocra/optim/AbilitySet.h">
<polygon fill="white" stroke="black" points="1253.5,-196 1253.5,-215 1369.5,-215 1369.5,-196 1253.5,-196"/>
<text text-anchor="middle" x="1311.5" y="-203" font-family="Helvetica,sans-Serif" font-size="10.00">ocra/optim/AbilitySet.h</text>
</a>
</g>
</g>
<!-- Node3&#45;&gt;Node15 -->
<g id="edge15" class="edge"><title>Node3&#45;&gt;Node15</title>
<path fill="none" stroke="midnightblue" d="M1037.11,-257.44C1089.95,-248.84 1172.96,-234.902 1244.5,-221 1250.63,-219.808 1257.07,-218.495 1263.42,-217.161"/>
<polygon fill="midnightblue" stroke="midnightblue" points="1264.24,-220.566 1273.29,-215.062 1262.78,-213.72 1264.24,-220.566"/>
</g>
<!-- Node16 -->
<g id="node16" class="node"><title>Node16</title>
<g id="a_node16"><a xlink:href="../../d1/d87/CoupledInputOutputSize_8h.html" target="_top" xlink:title="ocra/optim/CoupledInputOutput\lSize.h">
<polygon fill="white" stroke="black" points="907.5,-190.5 907.5,-220.5 1059.5,-220.5 1059.5,-190.5 907.5,-190.5"/>
<text text-anchor="start" x="915.5" y="-208.5" font-family="Helvetica,sans-Serif" font-size="10.00">ocra/optim/CoupledInputOutput</text>
<text text-anchor="middle" x="983.5" y="-197.5" font-family="Helvetica,sans-Serif" font-size="10.00">Size.h</text>
</a>
</g>
</g>
<!-- Node3&#45;&gt;Node16 -->
<g id="edge18" class="edge"><title>Node3&#45;&gt;Node16</title>
<path fill="none" stroke="midnightblue" d="M983.5,-257.475C983.5,-250.471 983.5,-240.192 983.5,-230.696"/>
<polygon fill="midnightblue" stroke="midnightblue" points="987,-230.523 983.5,-220.523 980,-230.523 987,-230.523"/>
</g>
<!-- Node3&#45;&gt;Node17 -->
<g id="edge19" class="edge"><title>Node3&#45;&gt;Node17</title>
<path fill="none" stroke="midnightblue" d="M927.909,-260.635C857.812,-253.484 733.733,-239.546 628.5,-221 622.241,-219.897 615.672,-218.586 609.224,-217.211"/>
<polygon fill="midnightblue" stroke="midnightblue" points="609.772,-213.748 599.253,-215.016 608.267,-220.584 609.772,-213.748"/>
</g>
<!-- Node18 -->
<g id="node18" class="node"><title>Node18</title>
<g id="a_node18"><a xlink:href="../../d8/ddc/ObserverSubject_8h.html" target="_top" xlink:title="Declaration file of the Observer, Subject and ObserverSubject classes. ">
<polygon fill="white" stroke="black" points="659.5,-134.5 659.5,-153.5 805.5,-153.5 805.5,-134.5 659.5,-134.5"/>
<text text-anchor="middle" x="732.5" y="-141.5" font-family="Helvetica,sans-Serif" font-size="10.00">ocra/optim/ObserverSubject.h</text>
</a>
</g>
</g>
<!-- Node3&#45;&gt;Node18 -->
<g id="edge49" class="edge"><title>Node3&#45;&gt;Node18</title>
<path fill="none" stroke="midnightblue" d="M927.748,-263.647C862.757,-259.627 761.082,-248.938 736.5,-221 722.897,-205.539 724.375,-180.734 727.613,-163.693"/>
<polygon fill="midnightblue" stroke="midnightblue" points="731.06,-164.318 729.854,-153.792 724.232,-162.772 731.06,-164.318"/>
</g>
<!-- Node34 -->
<g id="node34" class="node"><title>Node34</title>
<g id="a_node34"><a xlink:href="../../df/d97/NamedInstance_8h.html" target="_top" xlink:title="ocra/optim/NamedInstance.h">
<polygon fill="white" stroke="black" points="746,-196 746,-215 889,-215 889,-196 746,-196"/>
<text text-anchor="middle" x="817.5" y="-203" font-family="Helvetica,sans-Serif" font-size="10.00">ocra/optim/NamedInstance.h</text>
</a>
</g>
</g>
<!-- Node3&#45;&gt;Node34 -->
<g id="edge50" class="edge"><title>Node3&#45;&gt;Node34</title>
<path fill="none" stroke="midnightblue" d="M959.716,-257.475C931.118,-247.225 882.949,-229.959 850.698,-218.399"/>
<polygon fill="midnightblue" stroke="midnightblue" points="851.834,-215.089 841.24,-215.009 849.472,-221.678 851.834,-215.089"/>
</g>
<!-- Node5 -->
<g id="node5" class="node"><title>Node5</title>
<g id="a_node5"><a xlink:href="../../d5/d55/MathTypes_8h.html" target="_top" xlink:title="Declaration file of the OptimizationVariable class. ">
<polygon fill="white" stroke="black" points="1273,-73 1273,-92 1384,-92 1384,-73 1273,-73"/>
<text text-anchor="middle" x="1328.5" y="-80" font-family="Helvetica,sans-Serif" font-size="10.00">ocra/util/MathTypes.h</text>
</a>
</g>
</g>
<!-- Node4&#45;&gt;Node5 -->
<g id="edge4" class="edge"><title>Node4&#45;&gt;Node5</title>
<path fill="none" stroke="midnightblue" d="M1313.94,-134.475C1316.36,-125.992 1320.16,-112.704 1323.27,-101.822"/>
<polygon fill="midnightblue" stroke="midnightblue" points="1326.69,-102.586 1326.07,-92.0091 1319.96,-100.663 1326.69,-102.586"/>
</g>
<!-- Node8 -->
<g id="node8" class="node"><title>Node8</title>
<g id="a_node8"><a xlink:href="../../de/df3/ocra__assert_8h.html" target="_top" xlink:title="ocra/optim/ocra_assert.h">
<polygon fill="white" stroke="black" points="579,-73 579,-92 704,-92 704,-73 579,-73"/>
<text text-anchor="middle" x="641.5" y="-80" font-family="Helvetica,sans-Serif" font-size="10.00">ocra/optim/ocra_assert.h</text>
</a>
</g>
</g>
<!-- Node4&#45;&gt;Node8 -->
<g id="edge7" class="edge"><title>Node4&#45;&gt;Node8</title>
<path fill="none" stroke="midnightblue" d="M1254.32,-138.29C1158.27,-130.33 958.428,-113.556 789.5,-98 764.98,-95.7421 738.188,-93.154 714.22,-90.7951"/>
<polygon fill="midnightblue" stroke="midnightblue" points="714.432,-87.299 704.136,-89.7998 713.744,-94.2652 714.432,-87.299"/>
</g>
<!-- Node10 -->
<g id="node10" class="node"><title>Node10</title>
<polygon fill="white" stroke="#bfbfbf" points="1200.5,-73 1200.5,-92 1254.5,-92 1254.5,-73 1200.5,-73"/>
<text text-anchor="middle" x="1227.5" y="-80" font-family="Helvetica,sans-Serif" font-size="10.00">iostream</text>
</g>
<!-- Node4&#45;&gt;Node10 -->
<g id="edge9" class="edge"><title>Node4&#45;&gt;Node10</title>
<path fill="none" stroke="midnightblue" d="M1299.46,-134.475C1285.99,-124.931 1263.93,-109.307 1247.78,-97.8683"/>
<polygon fill="midnightblue" stroke="midnightblue" points="1249.7,-94.9332 1239.51,-92.0091 1245.65,-100.645 1249.7,-94.9332"/>
</g>
<!-- Node11 -->
<g id="node11" class="node"><title>Node11</title>
<polygon fill="white" stroke="#bfbfbf" points="1138.5,-73 1138.5,-92 1182.5,-92 1182.5,-73 1138.5,-73"/>
<text text-anchor="middle" x="1160.5" y="-80" font-family="Helvetica,sans-Serif" font-size="10.00">vector</text>
</g>
<!-- Node4&#45;&gt;Node11 -->
<g id="edge10" class="edge"><title>Node4&#45;&gt;Node11</title>
<path fill="none" stroke="midnightblue" d="M1286.92,-134.422C1262.5,-125.753 1224.11,-111.716 1191.5,-98 1190.13,-97.4241 1188.73,-96.8224 1187.33,-96.2054"/>
<polygon fill="midnightblue" stroke="midnightblue" points="1188.65,-92.9629 1178.1,-92.0238 1185.76,-99.339 1188.65,-92.9629"/>
</g>
<!-- Node4&#45;&gt;Node12 -->
<g id="edge11" class="edge"><title>Node4&#45;&gt;Node12</title>
<path fill="none" stroke="midnightblue" d="M1328.69,-134.475C1348.74,-124.534 1382.1,-107.995 1405.36,-96.461"/>
<polygon fill="midnightblue" stroke="midnightblue" points="1406.93,-99.5871 1414.34,-92.0091 1403.82,-93.3157 1406.93,-99.5871"/>
</g>
<!-- Node6 -->
<g id="node6" class="node"><title>Node6</title>
<polygon fill="white" stroke="#bfbfbf" points="1281,-6 1281,-25 1354,-25 1354,-6 1281,-6"/>
<text text-anchor="middle" x="1317.5" y="-13" font-family="Helvetica,sans-Serif" font-size="10.00">Eigen/Dense</text>
</g>
<!-- Node5&#45;&gt;Node6 -->
<g id="edge5" class="edge"><title>Node5&#45;&gt;Node6</title>
<path fill="none" stroke="midnightblue" d="M1327.02,-72.7338C1325.4,-63.1826 1322.77,-47.6183 1320.68,-35.2829"/>
<polygon fill="midnightblue" stroke="midnightblue" points="1324.08,-34.4031 1318.96,-25.1273 1317.18,-35.5711 1324.08,-34.4031"/>
</g>
<!-- Node7 -->
<g id="node7" class="node"><title>Node7</title>
<polygon fill="white" stroke="#bfbfbf" points="1372.5,-6 1372.5,-25 1416.5,-25 1416.5,-6 1372.5,-6"/>
<text text-anchor="middle" x="1394.5" y="-13" font-family="Helvetica,sans-Serif" font-size="10.00">cmath</text>
</g>
<!-- Node5&#45;&gt;Node7 -->
<g id="edge6" class="edge"><title>Node5&#45;&gt;Node7</title>
<path fill="none" stroke="midnightblue" d="M1337.4,-72.7338C1347.89,-62.403 1365.52,-45.0371 1378.42,-32.3315"/>
<polygon fill="midnightblue" stroke="midnightblue" points="1381.07,-34.6379 1385.74,-25.1273 1376.16,-29.6505 1381.07,-34.6379"/>
</g>
<!-- Node9 -->
<g id="node9" class="node"><title>Node9</title>
<polygon fill="white" stroke="#bfbfbf" points="533,-6 533,-25 576,-25 576,-6 533,-6"/>
<text text-anchor="middle" x="554.5" y="-13" font-family="Helvetica,sans-Serif" font-size="10.00">cstdio</text>
</g>
<!-- Node8&#45;&gt;Node9 -->
<g id="edge8" class="edge"><title>Node8&#45;&gt;Node9</title>
<path fill="none" stroke="midnightblue" d="M629.767,-72.7338C615.548,-62.1106 591.373,-44.0485 574.261,-31.2642"/>
<polygon fill="midnightblue" stroke="midnightblue" points="576.153,-28.3087 566.047,-25.1273 571.964,-33.9165 576.153,-28.3087"/>
</g>
<!-- Node13&#45;&gt;Node11 -->
<g id="edge14" class="edge"><title>Node13&#45;&gt;Node11</title>
<path fill="none" stroke="midnightblue" d="M1156.79,-195.798C1157.43,-176.35 1159,-128.99 1159.88,-102.404"/>
<polygon fill="midnightblue" stroke="midnightblue" points="1163.38,-102.233 1160.21,-92.1232 1156.39,-102.002 1163.38,-102.233"/>
</g>
<!-- Node14 -->
<g id="node14" class="node"><title>Node14</title>
<polygon fill="white" stroke="#bfbfbf" points="862,-134.5 862,-153.5 903,-153.5 903,-134.5 862,-134.5"/>
<text text-anchor="middle" x="882.5" y="-141.5" font-family="Helvetica,sans-Serif" font-size="10.00">string</text>
</g>
<!-- Node13&#45;&gt;Node14 -->
<g id="edge13" class="edge"><title>Node13&#45;&gt;Node14</title>
<path fill="none" stroke="midnightblue" d="M1117.24,-195.975C1062.12,-184.005 962.952,-162.47 913.005,-151.624"/>
<polygon fill="midnightblue" stroke="midnightblue" points="913.643,-148.181 903.128,-149.479 912.157,-155.022 913.643,-148.181"/>
</g>
<!-- Node15&#45;&gt;Node4 -->
<g id="edge16" class="edge"><title>Node15&#45;&gt;Node4</title>
<path fill="none" stroke="midnightblue" d="M1311.5,-195.975C1311.5,-187.58 1311.5,-174.481 1311.5,-163.663"/>
<polygon fill="midnightblue" stroke="midnightblue" points="1315,-163.509 1311.5,-153.509 1308,-163.509 1315,-163.509"/>
</g>
<!-- Node15&#45;&gt;Node11 -->
<g id="edge17" class="edge"><title>Node15&#45;&gt;Node11</title>
<path fill="none" stroke="midnightblue" d="M1299.71,-195.698C1286.42,-185.728 1264.23,-168.925 1245.5,-154 1222.13,-135.382 1195.72,-113.306 1178.62,-98.8819"/>
<polygon fill="midnightblue" stroke="midnightblue" points="1180.49,-95.8808 1170.6,-92.0951 1175.97,-101.225 1180.49,-95.8808"/>
</g>
<!-- Node17&#45;&gt;Node11 -->
<g id="edge48" class="edge"><title>Node17&#45;&gt;Node11</title>
<path fill="none" stroke="midnightblue" d="M601.345,-195.943C610.225,-193.939 619.692,-191.85 628.5,-190 710.903,-172.695 735.059,-181.908 814.5,-154 832.506,-147.674 834.313,-139.786 852.5,-134 968.703,-97.0287 1006.57,-129.024 1124.5,-98 1127.01,-97.34 1129.58,-96.5506 1132.13,-95.6856"/>
<polygon fill="midnightblue" stroke="midnightblue" points="1133.61,-98.8706 1141.75,-92.0888 1131.15,-92.3143 1133.61,-98.8706"/>
</g>
<!-- Node17&#45;&gt;Node14 -->
<g id="edge47" class="edge"><title>Node17&#45;&gt;Node14</title>
<path fill="none" stroke="midnightblue" d="M600.3,-195.992C609.47,-193.922 619.331,-191.791 628.5,-190 725.311,-171.094 750.972,-174.303 847.5,-154 848.958,-153.693 850.447,-153.366 851.948,-153.025"/>
<polygon fill="midnightblue" stroke="midnightblue" points="852.944,-156.385 861.843,-150.636 851.301,-149.58 852.944,-156.385"/>
</g>
<!-- Node17&#45;&gt;Node18 -->
<g id="edge20" class="edge"><title>Node17&#45;&gt;Node18</title>
<path fill="none" stroke="midnightblue" d="M588.57,-195.975C617.513,-185.725 666.262,-168.459 698.902,-156.899"/>
<polygon fill="midnightblue" stroke="midnightblue" points="700.217,-160.147 708.474,-153.509 697.88,-153.548 700.217,-160.147"/>
</g>
<!-- Node29 -->
<g id="node29" class="node"><title>Node29</title>
<g id="a_node29"><a xlink:href="../../d1/de6/Composite_8h.html" target="_top" xlink:title="Utility classes and functions to implement the Composite design pattern. ">
<polygon fill="white" stroke="black" points="372,-134.5 372,-153.5 493,-153.5 493,-134.5 372,-134.5"/>
<text text-anchor="middle" x="432.5" y="-141.5" font-family="Helvetica,sans-Serif" font-size="10.00">ocra/optim/Composite.h</text>
</a>
</g>
</g>
<!-- Node17&#45;&gt;Node29 -->
<g id="edge34" class="edge"><title>Node17&#45;&gt;Node29</title>
<path fill="none" stroke="midnightblue" d="M545.588,-195.975C523.337,-185.945 486.188,-169.2 460.574,-157.655"/>
<polygon fill="midnightblue" stroke="midnightblue" points="461.932,-154.428 451.377,-153.509 459.056,-160.809 461.932,-154.428"/>
</g>
<!-- Node30 -->
<g id="node30" class="node"><title>Node30</title>
<polygon fill="white" stroke="#bfbfbf" points="0,-73 0,-92 117,-92 117,-73 0,-73"/>
<text text-anchor="middle" x="58.5" y="-80" font-family="Helvetica,sans-Serif" font-size="10.00">boost/noncopyable.hpp</text>
</g>
<!-- Node17&#45;&gt;Node30 -->
<g id="edge46" class="edge"><title>Node17&#45;&gt;Node30</title>
<path fill="none" stroke="midnightblue" d="M528.919,-195.992C439.207,-174.539 203.844,-118.256 104.159,-94.4184"/>
<polygon fill="midnightblue" stroke="midnightblue" points="104.919,-91.0017 94.3796,-92.0799 103.291,-97.8097 104.919,-91.0017"/>
</g>
<!-- Node33 -->
<g id="node33" class="node"><title>Node33</title>
<polygon fill="white" stroke="#bfbfbf" points="530,-134.5 530,-153.5 599,-153.5 599,-134.5 530,-134.5"/>
<text text-anchor="middle" x="564.5" y="-141.5" font-family="Helvetica,sans-Serif" font-size="10.00">Eigen/Eigen</text>
</g>
<!-- Node17&#45;&gt;Node33 -->
<g id="edge45" class="edge"><title>Node17&#45;&gt;Node33</title>
<path fill="none" stroke="midnightblue" d="M564.5,-195.975C564.5,-187.58 564.5,-174.481 564.5,-163.663"/>
<polygon fill="midnightblue" stroke="midnightblue" points="568,-163.509 564.5,-153.509 561,-163.509 568,-163.509"/>
</g>
<!-- Node19 -->
<g id="node19" class="node"><title>Node19</title>
<g id="a_node19"><a xlink:href="../../df/d67/ObserverSubjectBase_8h.html" target="_top" xlink:title="Declaration file of the Observer and Subject base classes. ">
<polygon fill="white" stroke="black" points="944.5,-67.5 944.5,-97.5 1082.5,-97.5 1082.5,-67.5 944.5,-67.5"/>
<text text-anchor="start" x="952.5" y="-85.5" font-family="Helvetica,sans-Serif" font-size="10.00">ocra/optim/ObserverSubject</text>
<text text-anchor="middle" x="1013.5" y="-74.5" font-family="Helvetica,sans-Serif" font-size="10.00">Base.h</text>
</a>
</g>
</g>
<!-- Node18&#45;&gt;Node19 -->
<g id="edge21" class="edge"><title>Node18&#45;&gt;Node19</title>
<path fill="none" stroke="midnightblue" d="M772.76,-134.475C815.531,-125.419 884.16,-110.887 937.22,-99.6518"/>
<polygon fill="midnightblue" stroke="midnightblue" points="938.216,-103.019 947.274,-97.523 936.766,-96.1705 938.216,-103.019"/>
</g>
<!-- Node23 -->
<g id="node23" class="node"><title>Node23</title>
<polygon fill="white" stroke="#bfbfbf" points="1141.5,-0.5 1141.5,-30.5 1241.5,-30.5 1241.5,-0.5 1141.5,-0.5"/>
<text text-anchor="start" x="1149.5" y="-18.5" font-family="Helvetica,sans-Serif" font-size="10.00">boost/type_traits/is</text>
<text text-anchor="middle" x="1191.5" y="-7.5" font-family="Helvetica,sans-Serif" font-size="10.00">_class.hpp</text>
</g>
<!-- Node18&#45;&gt;Node23 -->
<g id="edge33" class="edge"><title>Node18&#45;&gt;Node23</title>
<path fill="none" stroke="midnightblue" d="M805.621,-134.88C906.78,-123.494 1078.53,-103.554 1091.5,-98 1111.54,-89.4221 1112.61,-80.7713 1129.5,-67 1141.62,-57.1184 1155.08,-46.1542 1166.35,-36.9739"/>
<polygon fill="midnightblue" stroke="midnightblue" points="1168.58,-39.674 1174.13,-30.6455 1164.16,-34.2461 1168.58,-39.674"/>
</g>
<!-- Node24 -->
<g id="node24" class="node"><title>Node24</title>
<polygon fill="white" stroke="#bfbfbf" points="731.5,-0.5 731.5,-30.5 831.5,-30.5 831.5,-0.5 731.5,-0.5"/>
<text text-anchor="start" x="739.5" y="-18.5" font-family="Helvetica,sans-Serif" font-size="10.00">boost/type_traits/is</text>
<text text-anchor="middle" x="781.5" y="-7.5" font-family="Helvetica,sans-Serif" font-size="10.00">_base_of.hpp</text>
</g>
<!-- Node18&#45;&gt;Node24 -->
<g id="edge31" class="edge"><title>Node18&#45;&gt;Node24</title>
<path fill="none" stroke="midnightblue" d="M735.868,-134.305C743.263,-115.215 761.139,-69.0653 772.194,-40.5239"/>
<polygon fill="midnightblue" stroke="midnightblue" points="775.578,-41.4771 775.927,-30.888 769.051,-38.9487 775.578,-41.4771"/>
</g>
<!-- Node25 -->
<g id="node25" class="node"><title>Node25</title>
<polygon fill="white" stroke="#bfbfbf" points="594,-6 594,-25 713,-25 713,-6 594,-6"/>
<text text-anchor="middle" x="653.5" y="-13" font-family="Helvetica,sans-Serif" font-size="10.00">boost/static_assert.hpp</text>
</g>
<!-- Node18&#45;&gt;Node25 -->
<g id="edge30" class="edge"><title>Node18&#45;&gt;Node25</title>
<path fill="none" stroke="midnightblue" d="M731.901,-134.362C730.526,-119.532 726.127,-88.7309 712.5,-67 703.393,-52.4771 688.779,-39.9235 676.375,-30.9654"/>
<polygon fill="midnightblue" stroke="midnightblue" points="678.067,-27.8813 667.843,-25.1011 674.102,-33.65 678.067,-27.8813"/>
</g>
<!-- Node27 -->
<g id="node27" class="node"><title>Node27</title>
<g id="a_node27"><a xlink:href="../../db/ddf/ocra__events_8h.html" target="_top" xlink:title="ocra/optim/ocra_events.h">
<polygon fill="white" stroke="black" points="799,-73 799,-92 926,-92 926,-73 799,-73"/>
<text text-anchor="middle" x="862.5" y="-80" font-family="Helvetica,sans-Serif" font-size="10.00">ocra/optim/ocra_events.h</text>
</a>
</g>
</g>
<!-- Node18&#45;&gt;Node27 -->
<g id="edge29" class="edge"><title>Node18&#45;&gt;Node27</title>
<path fill="none" stroke="midnightblue" d="M751.126,-134.475C772.943,-124.49 809.304,-107.848 834.517,-96.3075"/>
<polygon fill="midnightblue" stroke="midnightblue" points="836.272,-99.3534 843.909,-92.0091 833.359,-92.9884 836.272,-99.3534"/>
</g>
<!-- Node28 -->
<g id="node28" class="node"><title>Node28</title>
<polygon fill="white" stroke="#bfbfbf" points="460.5,-67.5 460.5,-97.5 560.5,-97.5 560.5,-67.5 460.5,-67.5"/>
<text text-anchor="start" x="468.5" y="-85.5" font-family="Helvetica,sans-Serif" font-size="10.00">boost/type_traits/is</text>
<text text-anchor="middle" x="510.5" y="-74.5" font-family="Helvetica,sans-Serif" font-size="10.00">_convertible.hpp</text>
</g>
<!-- Node18&#45;&gt;Node28 -->
<g id="edge32" class="edge"><title>Node18&#45;&gt;Node28</title>
<path fill="none" stroke="midnightblue" d="M700.693,-134.475C666.84,-125.402 612.48,-110.833 570.529,-99.5888"/>
<polygon fill="midnightblue" stroke="midnightblue" points="571.261,-96.1615 560.695,-96.9533 569.448,-102.923 571.261,-96.1615"/>
</g>
<!-- Node20 -->
<g id="node20" class="node"><title>Node20</title>
<polygon fill="white" stroke="#bfbfbf" points="968,-6 968,-25 1027,-25 1027,-6 968,-6"/>
<text text-anchor="middle" x="997.5" y="-13" font-family="Helvetica,sans-Serif" font-size="10.00">functional</text>
</g>
<!-- Node19&#45;&gt;Node20 -->
<g id="edge22" class="edge"><title>Node19&#45;&gt;Node20</title>
<path fill="none" stroke="midnightblue" d="M1010.03,-67.396C1007.71,-57.9635 1004.63,-45.4484 1002.1,-35.1891"/>
<polygon fill="midnightblue" stroke="midnightblue" points="1005.43,-34.0681 999.64,-25.1945 998.632,-35.7413 1005.43,-34.0681"/>
</g>
<!-- Node21 -->
<g id="node21" class="node"><title>Node21</title>
<polygon fill="white" stroke="#bfbfbf" points="325.5,-6 325.5,-25 381.5,-25 381.5,-6 325.5,-6"/>
<text text-anchor="middle" x="353.5" y="-13" font-family="Helvetica,sans-Serif" font-size="10.00">algorithm</text>
</g>
<!-- Node19&#45;&gt;Node21 -->
<g id="edge23" class="edge"><title>Node19&#45;&gt;Node21</title>
<path fill="none" stroke="midnightblue" d="M944.197,-68.3958C940.923,-67.8977 937.678,-67.4288 934.5,-67 920.989,-65.1771 518.726,-30.6558 391.609,-19.7635"/>
<polygon fill="midnightblue" stroke="midnightblue" points="391.817,-16.2687 381.555,-18.9022 391.22,-23.2431 391.817,-16.2687"/>
</g>
<!-- Node22 -->
<g id="node22" class="node"><title>Node22</title>
<polygon fill="white" stroke="#bfbfbf" points="1045.5,-6 1045.5,-25 1123.5,-25 1123.5,-6 1045.5,-6"/>
<text text-anchor="middle" x="1084.5" y="-13" font-family="Helvetica,sans-Serif" font-size="10.00">boost/any.hpp</text>
</g>
<!-- Node19&#45;&gt;Node22 -->
<g id="edge24" class="edge"><title>Node19&#45;&gt;Node22</title>
<path fill="none" stroke="midnightblue" d="M1028.91,-67.396C1040.31,-56.96 1055.83,-42.7507 1067.57,-31.9978"/>
<polygon fill="midnightblue" stroke="midnightblue" points="1069.99,-34.5287 1075,-25.1945 1065.26,-29.3655 1069.99,-34.5287"/>
</g>
<!-- Node19&#45;&gt;Node23 -->
<g id="edge25" class="edge"><title>Node19&#45;&gt;Node23</title>
<path fill="none" stroke="midnightblue" d="M1052.12,-67.396C1078.95,-57.6006 1114.88,-44.4809 1143.53,-34.0153"/>
<polygon fill="midnightblue" stroke="midnightblue" points="1144.76,-37.2944 1152.95,-30.5765 1142.36,-30.7191 1144.76,-37.2944"/>
</g>
<!-- Node19&#45;&gt;Node24 -->
<g id="edge26" class="edge"><title>Node19&#45;&gt;Node24</title>
<path fill="none" stroke="midnightblue" d="M963.445,-67.476C927.74,-57.4723 879.552,-43.9714 841.738,-33.3769"/>
<polygon fill="midnightblue" stroke="midnightblue" points="842.439,-29.9386 831.865,-30.6109 840.55,-36.6791 842.439,-29.9386"/>
</g>
<!-- Node19&#45;&gt;Node25 -->
<g id="edge27" class="edge"><title>Node19&#45;&gt;Node25</title>
<path fill="none" stroke="midnightblue" d="M944.147,-68.7168C940.887,-68.1327 937.658,-67.558 934.5,-67 840.386,-50.373 816.393,-48.8306 722.5,-31 716.186,-29.801 709.56,-28.484 703.016,-27.1477"/>
<polygon fill="midnightblue" stroke="midnightblue" points="703.356,-23.6442 692.855,-25.0463 701.939,-30.4991 703.356,-23.6442"/>
</g>
<!-- Node26 -->
<g id="node26" class="node"><title>Node26</title>
<polygon fill="white" stroke="#bfbfbf" points="849.5,-0.5 849.5,-30.5 949.5,-30.5 949.5,-0.5 849.5,-0.5"/>
<text text-anchor="start" x="857.5" y="-18.5" font-family="Helvetica,sans-Serif" font-size="10.00">boost/ptr_container</text>
<text text-anchor="middle" x="899.5" y="-7.5" font-family="Helvetica,sans-Serif" font-size="10.00">/ptr_vector.hpp</text>
</g>
<!-- Node19&#45;&gt;Node26 -->
<g id="edge28" class="edge"><title>Node19&#45;&gt;Node26</title>
<path fill="none" stroke="midnightblue" d="M988.764,-67.396C972.48,-58.1117 950.959,-45.8409 933.129,-35.6742"/>
<polygon fill="midnightblue" stroke="midnightblue" points="934.609,-32.4892 924.188,-30.5765 931.142,-38.5702 934.609,-32.4892"/>
</g>
<!-- Node29&#45;&gt;Node8 -->
<g id="edge35" class="edge"><title>Node29&#45;&gt;Node8</title>
<path fill="none" stroke="midnightblue" d="M462.445,-134.475C499.072,-124.048 561.195,-106.362 601.784,-94.8066"/>
<polygon fill="midnightblue" stroke="midnightblue" points="602.951,-98.1135 611.611,-92.0091 601.035,-91.381 602.951,-98.1135"/>
</g>
<!-- Node29&#45;&gt;Node11 -->
<g id="edge41" class="edge"><title>Node29&#45;&gt;Node11</title>
<path fill="none" stroke="midnightblue" d="M493.065,-136.493C502.251,-135.597 511.623,-134.733 520.5,-134 773.918,-113.06 839.534,-132.236 1091.5,-98 1103.57,-96.3597 1116.69,-93.803 1128.21,-91.2905"/>
<polygon fill="midnightblue" stroke="midnightblue" points="1129.28,-94.6366 1138.27,-89.023 1127.74,-87.8079 1129.28,-94.6366"/>
</g>
<!-- Node29&#45;&gt;Node12 -->
<g id="edge44" class="edge"><title>Node29&#45;&gt;Node12</title>
<path fill="none" stroke="midnightblue" d="M493.051,-136.32C502.24,-135.448 511.615,-134.637 520.5,-134 713.946,-120.128 1202.37,-136.266 1392.5,-98 1395.76,-97.3444 1399.1,-96.4562 1402.4,-95.4402"/>
<polygon fill="midnightblue" stroke="midnightblue" points="1403.71,-98.6921 1412.01,-92.1135 1401.42,-92.0772 1403.71,-98.6921"/>
</g>
<!-- Node29&#45;&gt;Node21 -->
<g id="edge42" class="edge"><title>Node29&#45;&gt;Node21</title>
<path fill="none" stroke="midnightblue" d="M371.766,-137.96C318.004,-132.088 245.37,-120.218 227.5,-98 198.826,-62.349 268.786,-37.2579 315.55,-25.0155"/>
<polygon fill="midnightblue" stroke="midnightblue" points="316.578,-28.3658 325.421,-22.5291 314.868,-21.5778 316.578,-28.3658"/>
</g>
<!-- Node29&#45;&gt;Node24 -->
<g id="edge38" class="edge"><title>Node29&#45;&gt;Node24</title>
<path fill="none" stroke="midnightblue" d="M431.818,-134.387C431.076,-118.449 432.027,-84.3981 451.5,-67 496.639,-26.6705 662,-42.1247 721.5,-31 721.602,-30.9809 721.704,-30.9618 721.806,-30.9426"/>
<polygon fill="midnightblue" stroke="midnightblue" points="722.378,-34.3977 731.494,-28.9987 721.001,-27.5345 722.378,-34.3977"/>
</g>
<!-- Node29&#45;&gt;Node25 -->
<g id="edge37" class="edge"><title>Node29&#45;&gt;Node25</title>
<path fill="none" stroke="midnightblue" d="M426.994,-134.404C417.951,-119.088 402.48,-86.8283 418.5,-67 419.235,-66.09 534.38,-41.6482 603.198,-27.1077"/>
<polygon fill="midnightblue" stroke="midnightblue" points="603.936,-30.5292 612.996,-25.0382 602.489,-23.6803 603.936,-30.5292"/>
</g>
<!-- Node29&#45;&gt;Node28 -->
<g id="edge39" class="edge"><title>Node29&#45;&gt;Node28</title>
<path fill="none" stroke="midnightblue" d="M443.675,-134.475C454.141,-126.492 470.184,-114.254 483.927,-103.77"/>
<polygon fill="midnightblue" stroke="midnightblue" points="486.289,-106.371 492.117,-97.523 482.043,-100.805 486.289,-106.371"/>
</g>
<!-- Node29&#45;&gt;Node30 -->
<g id="edge36" class="edge"><title>Node29&#45;&gt;Node30</title>
<path fill="none" stroke="midnightblue" d="M371.722,-135.324C309.644,-127.195 210.572,-113.422 125.5,-98 119.122,-96.8437 112.424,-95.523 105.832,-94.1602"/>
<polygon fill="midnightblue" stroke="midnightblue" points="106.13,-90.6458 95.622,-92.0017 104.682,-97.4944 106.13,-90.6458"/>
</g>
<!-- Node31 -->
<g id="node31" class="node"><title>Node31</title>
<polygon fill="white" stroke="#bfbfbf" points="237,-67.5 237,-97.5 366,-97.5 366,-67.5 237,-67.5"/>
<text text-anchor="start" x="245" y="-85.5" font-family="Helvetica,sans-Serif" font-size="10.00">boost/type_traits/has</text>
<text text-anchor="middle" x="301.5" y="-74.5" font-family="Helvetica,sans-Serif" font-size="10.00">_nothrow_constructor.hpp</text>
</g>
<!-- Node29&#45;&gt;Node31 -->
<g id="edge40" class="edge"><title>Node29&#45;&gt;Node31</title>
<path fill="none" stroke="midnightblue" d="M413.731,-134.475C394.994,-125.965 365.611,-112.619 341.61,-101.718"/>
<polygon fill="midnightblue" stroke="midnightblue" points="342.926,-98.4717 332.374,-97.523 340.032,-104.845 342.926,-98.4717"/>
</g>
<!-- Node32 -->
<g id="node32" class="node"><title>Node32</title>
<polygon fill="white" stroke="#bfbfbf" points="135,-73 135,-92 180,-92 180,-73 135,-73"/>
<text text-anchor="middle" x="157.5" y="-80" font-family="Helvetica,sans-Serif" font-size="10.00">iosfwd</text>
</g>
<!-- Node29&#45;&gt;Node32 -->
<g id="edge43" class="edge"><title>Node29&#45;&gt;Node32</title>
<path fill="none" stroke="midnightblue" d="M371.614,-134.694C323.089,-127.311 253.703,-115.036 194.5,-98 191.916,-97.2565 189.262,-96.4034 186.618,-95.4913"/>
<polygon fill="midnightblue" stroke="midnightblue" points="187.828,-92.2073 177.235,-92.0197 185.399,-98.7723 187.828,-92.2073"/>
</g>
<!-- Node34&#45;&gt;Node14 -->
<g id="edge51" class="edge"><title>Node34&#45;&gt;Node14</title>
<path fill="none" stroke="midnightblue" d="M826.813,-195.975C836.949,-186.697 853.364,-171.671 865.752,-160.331"/>
<polygon fill="midnightblue" stroke="midnightblue" points="868.191,-162.843 873.204,-153.509 863.465,-157.68 868.191,-162.843"/>
</g>
<!-- Node36 -->
<g id="node36" class="node"><title>Node36</title>
<polygon fill="white" stroke="#bfbfbf" points="637.5,-196 637.5,-215 689.5,-215 689.5,-196 637.5,-196"/>
<text text-anchor="middle" x="663.5" y="-203" font-family="Helvetica,sans-Serif" font-size="10.00">memory</text>
</g>
<!-- Node35&#45;&gt;Node36 -->
<g id="edge53" class="edge"><title>Node35&#45;&gt;Node36</title>
<path fill="none" stroke="midnightblue" d="M749.172,-257.475C732.836,-247.755 705.898,-231.727 686.588,-220.237"/>
<polygon fill="midnightblue" stroke="midnightblue" points="688.185,-217.115 677.801,-215.009 684.605,-223.13 688.185,-217.115"/>
</g>
</g>
</svg>
