<?xml version="1.0" encoding="UTF-8" standalone="no"?>
<!DOCTYPE svg PUBLIC "-//W3C//DTD SVG 1.1//EN"
 "http://www.w3.org/Graphics/SVG/1.1/DTD/svg11.dtd">
<!-- Generated by graphviz version 2.38.0 (20140413.2041)
 -->
<!-- Title: Function.cpp Pages: 1 -->
<svg width="1517pt" height="341pt"
 viewBox="0.00 0.00 1517.23 341.00" xmlns="http://www.w3.org/2000/svg" xmlns:xlink="http://www.w3.org/1999/xlink">
<g id="graph0" class="graph" transform="scale(1 1) rotate(0) translate(4 337)">
<title>Function.cpp</title>
<polygon fill="white" stroke="none" points="-4,4 -4,-337 1513.23,-337 1513.23,4 -4,4"/>
<!-- Node1 -->
<g id="node1" class="node"><title>Node1</title>
<polygon fill="#bfbfbf" stroke="black" points="1006,-313.5 1006,-332.5 1079,-332.5 1079,-313.5 1006,-313.5"/>
<text text-anchor="middle" x="1042.5" y="-320.5" font-family="Helvetica,sans-Serif" font-size="10.00">Function.cpp</text>
</g>
<!-- Node2 -->
<g id="node2" class="node"><title>Node2</title>
<g id="a_node2"><a xlink:href="../../df/df5/Function_8h.html" target="_top" xlink:title="Declaration file of the Function class. ">
<polygon fill="white" stroke="black" points="721,-257.5 721,-276.5 832,-276.5 832,-257.5 721,-257.5"/>
<text text-anchor="middle" x="776.5" y="-264.5" font-family="Helvetica,sans-Serif" font-size="10.00">ocra/optim/Function.h</text>
</a>
</g>
</g>
<!-- Node1&#45;&gt;Node2 -->
<g id="edge1" class="edge"><title>Node1&#45;&gt;Node2</title>
<path fill="none" stroke="midnightblue" d="M1005.79,-314.548C959.83,-305.217 880.797,-289.173 828.591,-278.575"/>
<polygon fill="midnightblue" stroke="midnightblue" points="829.021,-275.091 818.525,-276.531 827.628,-281.951 829.021,-275.091"/>
</g>
<!-- Node16 -->
<g id="node16" class="node"><title>Node16</title>
<g id="a_node16"><a xlink:href="../../d7/d90/Variable_8h.html" target="_top" xlink:title="Declaration file of the Variable class. ">
<polygon fill="white" stroke="black" points="988,-196 988,-215 1097,-215 1097,-196 988,-196"/>
<text text-anchor="middle" x="1042.5" y="-203" font-family="Helvetica,sans-Serif" font-size="10.00">ocra/optim/Variable.h</text>
</a>
</g>
</g>
<!-- Node1&#45;&gt;Node16 -->
<g id="edge52" class="edge"><title>Node1&#45;&gt;Node16</title>
<path fill="none" stroke="midnightblue" d="M1042.5,-313.319C1042.5,-294.757 1042.5,-250.839 1042.5,-225.473"/>
<polygon fill="midnightblue" stroke="midnightblue" points="1046,-225.282 1042.5,-215.282 1039,-225.282 1046,-225.282"/>
</g>
<!-- Node20 -->
<g id="node20" class="node"><title>Node20</title>
<polygon fill="white" stroke="#bfbfbf" points="1095.5,-6 1095.5,-25 1151.5,-25 1151.5,-6 1095.5,-6"/>
<text text-anchor="middle" x="1123.5" y="-13" font-family="Helvetica,sans-Serif" font-size="10.00">algorithm</text>
</g>
<!-- Node1&#45;&gt;Node20 -->
<g id="edge51" class="edge"><title>Node1&#45;&gt;Node20</title>
<path fill="none" stroke="midnightblue" d="M1079.38,-320.734C1189.36,-315.968 1507.5,-294.569 1507.5,-206.5 1507.5,-206.5 1507.5,-206.5 1507.5,-143 1507.5,-108.183 1514.41,-90.2614 1488.5,-67 1440.97,-24.3229 1245.47,-17.4986 1161.79,-16.5609"/>
<polygon fill="midnightblue" stroke="midnightblue" points="1161.72,-13.0602 1151.69,-16.4706 1161.65,-20.06 1161.72,-13.0602"/>
</g>
<!-- Node3 -->
<g id="node3" class="node"><title>Node3</title>
<g id="a_node3"><a xlink:href="../../de/d94/IFunction_8h.html" target="_top" xlink:title="Declaration file of the IFunction interface. ">
<polygon fill="white" stroke="black" points="226.5,-134.5 226.5,-153.5 340.5,-153.5 340.5,-134.5 226.5,-134.5"/>
<text text-anchor="middle" x="283.5" y="-141.5" font-family="Helvetica,sans-Serif" font-size="10.00">ocra/optim/IFunction.h</text>
</a>
</g>
</g>
<!-- Node2&#45;&gt;Node3 -->
<g id="edge2" class="edge"><title>Node2&#45;&gt;Node3</title>
<path fill="none" stroke="midnightblue" d="M720.986,-264.451C601.721,-260.603 329.304,-248.84 298.5,-221 282.785,-206.797 280.729,-181.303 281.474,-163.788"/>
<polygon fill="midnightblue" stroke="midnightblue" points="284.978,-163.867 282.252,-153.629 277.998,-163.332 284.978,-163.867"/>
</g>
<!-- Node12 -->
<g id="node12" class="node"><title>Node12</title>
<g id="a_node12"><a xlink:href="../../d9/d54/IFunctionProperties_8h.html" target="_top" xlink:title="ocra/optim/IFunctionProperties.h">
<polygon fill="white" stroke="black" points="441.5,-196 441.5,-215 599.5,-215 599.5,-196 441.5,-196"/>
<text text-anchor="middle" x="520.5" y="-203" font-family="Helvetica,sans-Serif" font-size="10.00">ocra/optim/IFunctionProperties.h</text>
</a>
</g>
</g>
<!-- Node2&#45;&gt;Node12 -->
<g id="edge11" class="edge"><title>Node2&#45;&gt;Node12</title>
<path fill="none" stroke="midnightblue" d="M739.821,-257.475C694.293,-246.893 616.6,-228.836 566.953,-217.297"/>
<polygon fill="midnightblue" stroke="midnightblue" points="567.643,-213.864 557.111,-215.009 566.059,-220.682 567.643,-213.864"/>
</g>
<!-- Node14 -->
<g id="node14" class="node"><title>Node14</title>
<g id="a_node14"><a xlink:href="../../db/d47/AbilitySet_8h.html" target="_top" xlink:title="ocra/optim/AbilitySet.h">
<polygon fill="white" stroke="black" points="307.5,-196 307.5,-215 423.5,-215 423.5,-196 307.5,-196"/>
<text text-anchor="middle" x="365.5" y="-203" font-family="Helvetica,sans-Serif" font-size="10.00">ocra/optim/AbilitySet.h</text>
</a>
</g>
</g>
<!-- Node2&#45;&gt;Node14 -->
<g id="edge14" class="edge"><title>Node2&#45;&gt;Node14</title>
<path fill="none" stroke="midnightblue" d="M720.876,-260.163C652.679,-252.675 533.686,-238.536 432.5,-221 425.882,-219.853 418.925,-218.507 412.102,-217.106"/>
<polygon fill="midnightblue" stroke="midnightblue" points="412.76,-213.668 402.253,-215.029 411.316,-220.517 412.76,-213.668"/>
</g>
<!-- Node15 -->
<g id="node15" class="node"><title>Node15</title>
<g id="a_node15"><a xlink:href="../../d1/d87/CoupledInputOutputSize_8h.html" target="_top" xlink:title="ocra/optim/CoupledInputOutput\lSize.h">
<polygon fill="white" stroke="black" points="617.5,-190.5 617.5,-220.5 769.5,-220.5 769.5,-190.5 617.5,-190.5"/>
<text text-anchor="start" x="625.5" y="-208.5" font-family="Helvetica,sans-Serif" font-size="10.00">ocra/optim/CoupledInputOutput</text>
<text text-anchor="middle" x="693.5" y="-197.5" font-family="Helvetica,sans-Serif" font-size="10.00">Size.h</text>
</a>
</g>
</g>
<!-- Node2&#45;&gt;Node15 -->
<g id="edge17" class="edge"><title>Node2&#45;&gt;Node15</title>
<path fill="none" stroke="midnightblue" d="M764.608,-257.475C753.367,-249.417 736.078,-237.023 721.363,-226.474"/>
<polygon fill="midnightblue" stroke="midnightblue" points="723.228,-223.505 713.061,-220.523 719.15,-229.194 723.228,-223.505"/>
</g>
<!-- Node2&#45;&gt;Node16 -->
<g id="edge18" class="edge"><title>Node2&#45;&gt;Node16</title>
<path fill="none" stroke="midnightblue" d="M814.611,-257.475C862.017,-246.871 942.984,-228.76 994.556,-217.224"/>
<polygon fill="midnightblue" stroke="midnightblue" points="995.465,-220.608 1004.46,-215.009 993.936,-213.776 995.465,-220.608"/>
</g>
<!-- Node17 -->
<g id="node17" class="node"><title>Node17</title>
<g id="a_node17"><a xlink:href="../../d8/ddc/ObserverSubject_8h.html" target="_top" xlink:title="Declaration file of the Observer, Subject and ObserverSubject classes. ">
<polygon fill="white" stroke="black" points="764.5,-134.5 764.5,-153.5 910.5,-153.5 910.5,-134.5 764.5,-134.5"/>
<text text-anchor="middle" x="837.5" y="-141.5" font-family="Helvetica,sans-Serif" font-size="10.00">ocra/optim/ObserverSubject.h</text>
</a>
</g>
</g>
<!-- Node2&#45;&gt;Node17 -->
<g id="edge48" class="edge"><title>Node2&#45;&gt;Node17</title>
<path fill="none" stroke="midnightblue" d="M832.027,-257.96C873.917,-250.624 926.34,-238.285 939.5,-221 947.846,-210.038 947.023,-201.542 939.5,-190 929.022,-173.925 911.362,-163.551 893.654,-156.874"/>
<polygon fill="midnightblue" stroke="midnightblue" points="894.451,-153.448 883.857,-153.533 892.191,-160.074 894.451,-153.448"/>
</g>
<!-- Node33 -->
<g id="node33" class="node"><title>Node33</title>
<g id="a_node33"><a xlink:href="../../df/d97/NamedInstance_8h.html" target="_top" xlink:title="ocra/optim/NamedInstance.h">
<polygon fill="white" stroke="black" points="788,-196 788,-215 931,-215 931,-196 788,-196"/>
<text text-anchor="middle" x="859.5" y="-203" font-family="Helvetica,sans-Serif" font-size="10.00">ocra/optim/NamedInstance.h</text>
</a>
</g>
</g>
<!-- Node2&#45;&gt;Node33 -->
<g id="edge49" class="edge"><title>Node2&#45;&gt;Node33</title>
<path fill="none" stroke="midnightblue" d="M788.392,-257.475C801.705,-247.931 823.5,-232.307 839.457,-220.868"/>
<polygon fill="midnightblue" stroke="midnightblue" points="841.542,-223.68 847.63,-215.009 837.464,-217.991 841.542,-223.68"/>
</g>
<!-- Node4 -->
<g id="node4" class="node"><title>Node4</title>
<g id="a_node4"><a xlink:href="../../d5/d55/MathTypes_8h.html" target="_top" xlink:title="Declaration file of the OptimizationVariable class. ">
<polygon fill="white" stroke="black" points="19,-73 19,-92 130,-92 130,-73 19,-73"/>
<text text-anchor="middle" x="74.5" y="-80" font-family="Helvetica,sans-Serif" font-size="10.00">ocra/util/MathTypes.h</text>
</a>
</g>
</g>
<!-- Node3&#45;&gt;Node4 -->
<g id="edge3" class="edge"><title>Node3&#45;&gt;Node4</title>
<path fill="none" stroke="midnightblue" d="M253.555,-134.475C216.928,-124.048 154.805,-106.362 114.216,-94.8066"/>
<polygon fill="midnightblue" stroke="midnightblue" points="114.965,-91.381 104.389,-92.0091 113.049,-98.1135 114.965,-91.381"/>
</g>
<!-- Node7 -->
<g id="node7" class="node"><title>Node7</title>
<g id="a_node7"><a xlink:href="../../de/df3/ocra__assert_8h.html" target="_top" xlink:title="ocra/optim/ocra_assert.h">
<polygon fill="white" stroke="black" points="221,-73 221,-92 346,-92 346,-73 221,-73"/>
<text text-anchor="middle" x="283.5" y="-80" font-family="Helvetica,sans-Serif" font-size="10.00">ocra/optim/ocra_assert.h</text>
</a>
</g>
</g>
<!-- Node3&#45;&gt;Node7 -->
<g id="edge6" class="edge"><title>Node3&#45;&gt;Node7</title>
<path fill="none" stroke="midnightblue" d="M283.5,-134.475C283.5,-126.08 283.5,-112.981 283.5,-102.163"/>
<polygon fill="midnightblue" stroke="midnightblue" points="287,-102.009 283.5,-92.0091 280,-102.009 287,-102.009"/>
</g>
<!-- Node9 -->
<g id="node9" class="node"><title>Node9</title>
<polygon fill="white" stroke="#bfbfbf" points="148.5,-73 148.5,-92 202.5,-92 202.5,-73 148.5,-73"/>
<text text-anchor="middle" x="175.5" y="-80" font-family="Helvetica,sans-Serif" font-size="10.00">iostream</text>
</g>
<!-- Node3&#45;&gt;Node9 -->
<g id="edge8" class="edge"><title>Node3&#45;&gt;Node9</title>
<path fill="none" stroke="midnightblue" d="M268.026,-134.475C250.222,-124.666 220.759,-108.435 199.868,-96.925"/>
<polygon fill="midnightblue" stroke="midnightblue" points="201.393,-93.769 190.945,-92.0091 198.015,-99.9001 201.393,-93.769"/>
</g>
<!-- Node10 -->
<g id="node10" class="node"><title>Node10</title>
<polygon fill="white" stroke="#bfbfbf" points="363.5,-73 363.5,-92 407.5,-92 407.5,-73 363.5,-73"/>
<text text-anchor="middle" x="385.5" y="-80" font-family="Helvetica,sans-Serif" font-size="10.00">vector</text>
</g>
<!-- Node3&#45;&gt;Node10 -->
<g id="edge9" class="edge"><title>Node3&#45;&gt;Node10</title>
<path fill="none" stroke="midnightblue" d="M298.114,-134.475C314.853,-124.711 342.504,-108.581 362.219,-97.0808"/>
<polygon fill="midnightblue" stroke="midnightblue" points="364.039,-100.071 370.913,-92.0091 360.512,-94.0246 364.039,-100.071"/>
</g>
<!-- Node11 -->
<g id="node11" class="node"><title>Node11</title>
<polygon fill="white" stroke="#bfbfbf" points="426,-73 426,-92 485,-92 485,-73 426,-73"/>
<text text-anchor="middle" x="455.5" y="-80" font-family="Helvetica,sans-Serif" font-size="10.00">stdexcept</text>
</g>
<!-- Node3&#45;&gt;Node11 -->
<g id="edge10" class="edge"><title>Node3&#45;&gt;Node11</title>
<path fill="none" stroke="midnightblue" d="M309.574,-134.432C336.446,-125.543 379.516,-111.129 416.5,-98 418.74,-97.2048 421.049,-96.3745 423.371,-95.5312"/>
<polygon fill="midnightblue" stroke="midnightblue" points="424.676,-98.7806 432.857,-92.0482 422.263,-92.2096 424.676,-98.7806"/>
</g>
<!-- Node5 -->
<g id="node5" class="node"><title>Node5</title>
<polygon fill="white" stroke="#bfbfbf" points="0,-6 0,-25 73,-25 73,-6 0,-6"/>
<text text-anchor="middle" x="36.5" y="-13" font-family="Helvetica,sans-Serif" font-size="10.00">Eigen/Dense</text>
</g>
<!-- Node4&#45;&gt;Node5 -->
<g id="edge4" class="edge"><title>Node4&#45;&gt;Node5</title>
<path fill="none" stroke="midnightblue" d="M69.3752,-72.7338C63.5635,-62.7928 53.9436,-46.3377 46.6075,-33.7892"/>
<polygon fill="midnightblue" stroke="midnightblue" points="49.6122,-31.9938 41.5437,-25.1273 43.5691,-35.5267 49.6122,-31.9938"/>
</g>
<!-- Node6 -->
<g id="node6" class="node"><title>Node6</title>
<polygon fill="white" stroke="#bfbfbf" points="91.5,-6 91.5,-25 135.5,-25 135.5,-6 91.5,-6"/>
<text text-anchor="middle" x="113.5" y="-13" font-family="Helvetica,sans-Serif" font-size="10.00">cmath</text>
</g>
<!-- Node4&#45;&gt;Node6 -->
<g id="edge5" class="edge"><title>Node4&#45;&gt;Node6</title>
<path fill="none" stroke="midnightblue" d="M79.7597,-72.7338C85.7243,-62.7928 95.5974,-46.3377 103.126,-33.7892"/>
<polygon fill="midnightblue" stroke="midnightblue" points="106.18,-35.503 108.324,-25.1273 100.177,-31.9015 106.18,-35.503"/>
</g>
<!-- Node8 -->
<g id="node8" class="node"><title>Node8</title>
<polygon fill="white" stroke="#bfbfbf" points="262,-6 262,-25 305,-25 305,-6 262,-6"/>
<text text-anchor="middle" x="283.5" y="-13" font-family="Helvetica,sans-Serif" font-size="10.00">cstdio</text>
</g>
<!-- Node7&#45;&gt;Node8 -->
<g id="edge7" class="edge"><title>Node7&#45;&gt;Node8</title>
<path fill="none" stroke="midnightblue" d="M283.5,-72.7338C283.5,-63.1826 283.5,-47.6183 283.5,-35.2829"/>
<polygon fill="midnightblue" stroke="midnightblue" points="287,-35.1273 283.5,-25.1273 280,-35.1273 287,-35.1273"/>
</g>
<!-- Node12&#45;&gt;Node10 -->
<g id="edge13" class="edge"><title>Node12&#45;&gt;Node10</title>
<path fill="none" stroke="midnightblue" d="M510.791,-195.798C488.12,-175.478 431.452,-124.686 402.745,-98.9566"/>
<polygon fill="midnightblue" stroke="midnightblue" points="404.904,-96.1913 395.121,-92.1232 400.232,-101.404 404.904,-96.1913"/>
</g>
<!-- Node13 -->
<g id="node13" class="node"><title>Node13</title>
<polygon fill="white" stroke="#bfbfbf" points="667,-134.5 667,-153.5 708,-153.5 708,-134.5 667,-134.5"/>
<text text-anchor="middle" x="687.5" y="-141.5" font-family="Helvetica,sans-Serif" font-size="10.00">string</text>
</g>
<!-- Node12&#45;&gt;Node13 -->
<g id="edge12" class="edge"><title>Node12&#45;&gt;Node13</title>
<path fill="none" stroke="midnightblue" d="M544.427,-195.975C574.05,-185.421 624.546,-167.43 656.943,-155.887"/>
<polygon fill="midnightblue" stroke="midnightblue" points="658.531,-159.037 666.776,-152.384 656.182,-152.443 658.531,-159.037"/>
</g>
<!-- Node14&#45;&gt;Node3 -->
<g id="edge15" class="edge"><title>Node14&#45;&gt;Node3</title>
<path fill="none" stroke="midnightblue" d="M353.751,-195.975C340.721,-186.52 319.464,-171.096 303.741,-159.687"/>
<polygon fill="midnightblue" stroke="midnightblue" points="305.376,-156.549 295.227,-153.509 301.265,-162.215 305.376,-156.549"/>
</g>
<!-- Node14&#45;&gt;Node10 -->
<g id="edge16" class="edge"><title>Node14&#45;&gt;Node10</title>
<path fill="none" stroke="midnightblue" d="M366.938,-195.798C370.167,-176.263 378.051,-128.565 382.434,-102.047"/>
<polygon fill="midnightblue" stroke="midnightblue" points="385.897,-102.56 384.075,-92.1232 378.991,-101.419 385.897,-102.56"/>
</g>
<!-- Node16&#45;&gt;Node10 -->
<g id="edge47" class="edge"><title>Node16&#45;&gt;Node10</title>
<path fill="none" stroke="midnightblue" d="M987.998,-196.896C917.19,-186.675 797.644,-168.154 755.5,-154 737.034,-147.798 735.129,-139.694 716.5,-134 588.075,-94.7459 545.617,-134.914 416.5,-98 414.572,-97.4488 412.613,-96.7909 410.666,-96.064"/>
<polygon fill="midnightblue" stroke="midnightblue" points="411.785,-92.7363 401.214,-92.0295 409.037,-99.1743 411.785,-92.7363"/>
</g>
<!-- Node16&#45;&gt;Node13 -->
<g id="edge46" class="edge"><title>Node16&#45;&gt;Node13</title>
<path fill="none" stroke="midnightblue" d="M987.742,-196.503C910.134,-185.058 772.068,-164.26 722.5,-154 721.041,-153.698 719.551,-153.375 718.049,-153.036"/>
<polygon fill="midnightblue" stroke="midnightblue" points="718.693,-149.591 708.152,-150.658 717.057,-156.398 718.693,-149.591"/>
</g>
<!-- Node16&#45;&gt;Node17 -->
<g id="edge19" class="edge"><title>Node16&#45;&gt;Node17</title>
<path fill="none" stroke="midnightblue" d="M1013.13,-195.975C977.203,-185.548 916.268,-167.862 876.456,-156.307"/>
<polygon fill="midnightblue" stroke="midnightblue" points="877.396,-152.935 866.817,-153.509 875.445,-159.658 877.396,-152.935"/>
</g>
<!-- Node28 -->
<g id="node28" class="node"><title>Node28</title>
<g id="a_node28"><a xlink:href="../../d1/de6/Composite_8h.html" target="_top" xlink:title="Utility classes and functions to implement the Composite design pattern. ">
<polygon fill="white" stroke="black" points="982,-134.5 982,-153.5 1103,-153.5 1103,-134.5 982,-134.5"/>
<text text-anchor="middle" x="1042.5" y="-141.5" font-family="Helvetica,sans-Serif" font-size="10.00">ocra/optim/Composite.h</text>
</a>
</g>
</g>
<!-- Node16&#45;&gt;Node28 -->
<g id="edge33" class="edge"><title>Node16&#45;&gt;Node28</title>
<path fill="none" stroke="midnightblue" d="M1042.5,-195.975C1042.5,-187.58 1042.5,-174.481 1042.5,-163.663"/>
<polygon fill="midnightblue" stroke="midnightblue" points="1046,-163.509 1042.5,-153.509 1039,-163.509 1046,-163.509"/>
</g>
<!-- Node29 -->
<g id="node29" class="node"><title>Node29</title>
<polygon fill="white" stroke="#bfbfbf" points="1362,-73 1362,-92 1479,-92 1479,-73 1362,-73"/>
<text text-anchor="middle" x="1420.5" y="-80" font-family="Helvetica,sans-Serif" font-size="10.00">boost/noncopyable.hpp</text>
</g>
<!-- Node16&#45;&gt;Node29 -->
<g id="edge45" class="edge"><title>Node16&#45;&gt;Node29</title>
<path fill="none" stroke="midnightblue" d="M1054.52,-195.768C1078.16,-178.735 1130.2,-142.035 1150.5,-134 1235.7,-100.275 1263.59,-115.694 1353.5,-98 1359.63,-96.7935 1366.06,-95.472 1372.42,-94.1334"/>
<polygon fill="midnightblue" stroke="midnightblue" points="1373.24,-97.5382 1382.29,-92.03 1371.78,-90.692 1373.24,-97.5382"/>
</g>
<!-- Node32 -->
<g id="node32" class="node"><title>Node32</title>
<polygon fill="white" stroke="#bfbfbf" points="1160,-134.5 1160,-153.5 1229,-153.5 1229,-134.5 1160,-134.5"/>
<text text-anchor="middle" x="1194.5" y="-141.5" font-family="Helvetica,sans-Serif" font-size="10.00">Eigen/Eigen</text>
</g>
<!-- Node16&#45;&gt;Node32 -->
<g id="edge44" class="edge"><title>Node16&#45;&gt;Node32</title>
<path fill="none" stroke="midnightblue" d="M1064.28,-195.975C1090.24,-185.813 1133.81,-168.756 1163.33,-157.2"/>
<polygon fill="midnightblue" stroke="midnightblue" points="1164.73,-160.413 1172.76,-153.509 1162.17,-153.895 1164.73,-160.413"/>
</g>
<!-- Node18 -->
<g id="node18" class="node"><title>Node18</title>
<g id="a_node18"><a xlink:href="../../df/d67/ObserverSubjectBase_8h.html" target="_top" xlink:title="Declaration file of the Observer and Subject base classes. ">
<polygon fill="white" stroke="black" points="541.5,-67.5 541.5,-97.5 679.5,-97.5 679.5,-67.5 541.5,-67.5"/>
<text text-anchor="start" x="549.5" y="-85.5" font-family="Helvetica,sans-Serif" font-size="10.00">ocra/optim/ObserverSubject</text>
<text text-anchor="middle" x="610.5" y="-74.5" font-family="Helvetica,sans-Serif" font-size="10.00">Base.h</text>
</a>
</g>
</g>
<!-- Node17&#45;&gt;Node18 -->
<g id="edge20" class="edge"><title>Node17&#45;&gt;Node18</title>
<path fill="none" stroke="midnightblue" d="M804.976,-134.475C770.856,-125.532 716.364,-111.249 673.731,-100.074"/>
<polygon fill="midnightblue" stroke="midnightblue" points="674.56,-96.6729 663.999,-97.523 672.785,-103.444 674.56,-96.6729"/>
</g>
<!-- Node22 -->
<g id="node22" class="node"><title>Node22</title>
<polygon fill="white" stroke="#bfbfbf" points="375.5,-0.5 375.5,-30.5 475.5,-30.5 475.5,-0.5 375.5,-0.5"/>
<text text-anchor="start" x="383.5" y="-18.5" font-family="Helvetica,sans-Serif" font-size="10.00">boost/type_traits/is</text>
<text text-anchor="middle" x="425.5" y="-7.5" font-family="Helvetica,sans-Serif" font-size="10.00">_class.hpp</text>
</g>
<!-- Node17&#45;&gt;Node22 -->
<g id="edge32" class="edge"><title>Node17&#45;&gt;Node22</title>
<path fill="none" stroke="midnightblue" d="M766.264,-134.466C682.904,-124.172 553.525,-107.114 532.5,-98 512.185,-89.1934 511.057,-80.4914 493.5,-67 480.331,-56.8809 465.547,-45.8616 453.136,-36.7058"/>
<polygon fill="midnightblue" stroke="midnightblue" points="455.101,-33.8061 444.972,-30.6988 450.952,-39.4444 455.101,-33.8061"/>
</g>
<!-- Node23 -->
<g id="node23" class="node"><title>Node23</title>
<polygon fill="white" stroke="#bfbfbf" points="785.5,-0.5 785.5,-30.5 885.5,-30.5 885.5,-0.5 785.5,-0.5"/>
<text text-anchor="start" x="793.5" y="-18.5" font-family="Helvetica,sans-Serif" font-size="10.00">boost/type_traits/is</text>
<text text-anchor="middle" x="835.5" y="-7.5" font-family="Helvetica,sans-Serif" font-size="10.00">_base_of.hpp</text>
</g>
<!-- Node17&#45;&gt;Node23 -->
<g id="edge30" class="edge"><title>Node17&#45;&gt;Node23</title>
<path fill="none" stroke="midnightblue" d="M787.726,-134.45C766.672,-128.104 744.134,-117.089 731.5,-98 723.896,-86.5107 724.189,-78.6779 731.5,-67 741.61,-50.8515 758.521,-39.7354 775.8,-32.14"/>
<polygon fill="midnightblue" stroke="midnightblue" points="777.429,-35.257 785.396,-28.2729 774.813,-28.7644 777.429,-35.257"/>
</g>
<!-- Node24 -->
<g id="node24" class="node"><title>Node24</title>
<polygon fill="white" stroke="#bfbfbf" points="904,-6 904,-25 1023,-25 1023,-6 904,-6"/>
<text text-anchor="middle" x="963.5" y="-13" font-family="Helvetica,sans-Serif" font-size="10.00">boost/static_assert.hpp</text>
</g>
<!-- Node17&#45;&gt;Node24 -->
<g id="edge29" class="edge"><title>Node17&#45;&gt;Node24</title>
<path fill="none" stroke="midnightblue" d="M811.289,-134.414C794.65,-127.445 774.443,-115.809 764.5,-98 757.784,-85.9701 756.04,-77.8747 764.5,-67 769.21,-60.9456 857.587,-40.1947 914.967,-27.2528"/>
<polygon fill="midnightblue" stroke="midnightblue" points="915.953,-30.6185 924.942,-25.0109 914.418,-23.7888 915.953,-30.6185"/>
</g>
<!-- Node26 -->
<g id="node26" class="node"><title>Node26</title>
<g id="a_node26"><a xlink:href="../../db/ddf/ocra__events_8h.html" target="_top" xlink:title="ocra/optim/ocra_events.h">
<polygon fill="white" stroke="black" points="774,-73 774,-92 901,-92 901,-73 774,-73"/>
<text text-anchor="middle" x="837.5" y="-80" font-family="Helvetica,sans-Serif" font-size="10.00">ocra/optim/ocra_events.h</text>
</a>
</g>
</g>
<!-- Node17&#45;&gt;Node26 -->
<g id="edge28" class="edge"><title>Node17&#45;&gt;Node26</title>
<path fill="none" stroke="midnightblue" d="M837.5,-134.475C837.5,-126.08 837.5,-112.981 837.5,-102.163"/>
<polygon fill="midnightblue" stroke="midnightblue" points="841,-102.009 837.5,-92.0091 834,-102.009 841,-102.009"/>
</g>
<!-- Node27 -->
<g id="node27" class="node"><title>Node27</title>
<polygon fill="white" stroke="#bfbfbf" points="919.5,-67.5 919.5,-97.5 1019.5,-97.5 1019.5,-67.5 919.5,-67.5"/>
<text text-anchor="start" x="927.5" y="-85.5" font-family="Helvetica,sans-Serif" font-size="10.00">boost/type_traits/is</text>
<text text-anchor="middle" x="969.5" y="-74.5" font-family="Helvetica,sans-Serif" font-size="10.00">_convertible.hpp</text>
</g>
<!-- Node17&#45;&gt;Node27 -->
<g id="edge31" class="edge"><title>Node17&#45;&gt;Node27</title>
<path fill="none" stroke="midnightblue" d="M856.412,-134.475C875.292,-125.965 904.899,-112.619 929.084,-101.718"/>
<polygon fill="midnightblue" stroke="midnightblue" points="930.712,-104.823 938.39,-97.523 927.835,-98.4416 930.712,-104.823"/>
</g>
<!-- Node19 -->
<g id="node19" class="node"><title>Node19</title>
<polygon fill="white" stroke="#bfbfbf" points="494,-6 494,-25 553,-25 553,-6 494,-6"/>
<text text-anchor="middle" x="523.5" y="-13" font-family="Helvetica,sans-Serif" font-size="10.00">functional</text>
</g>
<!-- Node18&#45;&gt;Node19 -->
<g id="edge21" class="edge"><title>Node18&#45;&gt;Node19</title>
<path fill="none" stroke="midnightblue" d="M591.622,-67.396C577.386,-56.7593 557.902,-42.2028 543.418,-31.3813"/>
<polygon fill="midnightblue" stroke="midnightblue" points="545.243,-28.376 535.137,-25.1945 541.054,-33.9837 545.243,-28.376"/>
</g>
<!-- Node18&#45;&gt;Node20 -->
<g id="edge22" class="edge"><title>Node18&#45;&gt;Node20</title>
<path fill="none" stroke="midnightblue" d="M679.514,-74.0131C762.991,-64.7747 907.725,-48.1716 1031.5,-31 1049.11,-28.5576 1068.55,-25.5393 1085.02,-22.89"/>
<polygon fill="midnightblue" stroke="midnightblue" points="1086.04,-26.269 1095.35,-21.212 1084.92,-19.3594 1086.04,-26.269"/>
</g>
<!-- Node21 -->
<g id="node21" class="node"><title>Node21</title>
<polygon fill="white" stroke="#bfbfbf" points="571.5,-6 571.5,-25 649.5,-25 649.5,-6 571.5,-6"/>
<text text-anchor="middle" x="610.5" y="-13" font-family="Helvetica,sans-Serif" font-size="10.00">boost/any.hpp</text>
</g>
<!-- Node18&#45;&gt;Node21 -->
<g id="edge23" class="edge"><title>Node18&#45;&gt;Node21</title>
<path fill="none" stroke="midnightblue" d="M610.5,-67.396C610.5,-58.0638 610.5,-45.7143 610.5,-35.5173"/>
<polygon fill="midnightblue" stroke="midnightblue" points="614,-35.1945 610.5,-25.1945 607,-35.1946 614,-35.1945"/>
</g>
<!-- Node18&#45;&gt;Node22 -->
<g id="edge24" class="edge"><title>Node18&#45;&gt;Node22</title>
<path fill="none" stroke="midnightblue" d="M570.358,-67.396C542.479,-57.6006 505.138,-44.4809 475.351,-34.0153"/>
<polygon fill="midnightblue" stroke="midnightblue" points="476.159,-30.5893 465.564,-30.5765 473.838,-37.1935 476.159,-30.5893"/>
</g>
<!-- Node18&#45;&gt;Node23 -->
<g id="edge25" class="edge"><title>Node18&#45;&gt;Node23</title>
<path fill="none" stroke="midnightblue" d="M659.045,-67.476C693.526,-57.5149 740.009,-44.0862 776.611,-33.5123"/>
<polygon fill="midnightblue" stroke="midnightblue" points="778.019,-36.7489 786.655,-30.6109 776.076,-30.0239 778.019,-36.7489"/>
</g>
<!-- Node18&#45;&gt;Node24 -->
<g id="edge26" class="edge"><title>Node18&#45;&gt;Node24</title>
<path fill="none" stroke="midnightblue" d="M679.767,-69.8037C737.34,-59.9332 821.37,-45.1822 894.5,-31 900.73,-29.7918 907.267,-28.4783 913.73,-27.1516"/>
<polygon fill="midnightblue" stroke="midnightblue" points="914.691,-30.5269 923.772,-25.0694 913.27,-23.6727 914.691,-30.5269"/>
</g>
<!-- Node25 -->
<g id="node25" class="node"><title>Node25</title>
<polygon fill="white" stroke="#bfbfbf" points="667.5,-0.5 667.5,-30.5 767.5,-30.5 767.5,-0.5 667.5,-0.5"/>
<text text-anchor="start" x="675.5" y="-18.5" font-family="Helvetica,sans-Serif" font-size="10.00">boost/ptr_container</text>
<text text-anchor="middle" x="717.5" y="-7.5" font-family="Helvetica,sans-Serif" font-size="10.00">/ptr_vector.hpp</text>
</g>
<!-- Node18&#45;&gt;Node25 -->
<g id="edge27" class="edge"><title>Node18&#45;&gt;Node25</title>
<path fill="none" stroke="midnightblue" d="M633.717,-67.396C648.861,-58.1968 668.83,-46.0658 685.475,-35.9546"/>
<polygon fill="midnightblue" stroke="midnightblue" points="687.598,-38.7597 694.328,-30.5765 683.964,-32.7771 687.598,-38.7597"/>
</g>
<!-- Node28&#45;&gt;Node7 -->
<g id="edge34" class="edge"><title>Node28&#45;&gt;Node7</title>
<path fill="none" stroke="midnightblue" d="M981.823,-138.446C961.963,-136.986 939.793,-135.389 919.5,-134 668.467,-116.819 603.913,-131.253 354.5,-98 346.696,-96.9596 338.465,-95.5614 330.482,-94.0425"/>
<polygon fill="midnightblue" stroke="midnightblue" points="331.043,-90.5857 320.553,-92.0718 329.681,-97.4518 331.043,-90.5857"/>
</g>
<!-- Node28&#45;&gt;Node10 -->
<g id="edge40" class="edge"><title>Node28&#45;&gt;Node10</title>
<path fill="none" stroke="midnightblue" d="M981.816,-138.54C961.956,-137.086 939.788,-135.468 919.5,-134 695.957,-117.822 633.409,-154.422 416.5,-98 414.516,-97.484 412.504,-96.8437 410.507,-96.122"/>
<polygon fill="midnightblue" stroke="midnightblue" points="411.427,-92.7104 400.853,-92.0337 408.697,-99.1563 411.427,-92.7104"/>
</g>
<!-- Node28&#45;&gt;Node11 -->
<g id="edge43" class="edge"><title>Node28&#45;&gt;Node11</title>
<path fill="none" stroke="midnightblue" d="M981.83,-138.399C866.112,-129.498 617.8,-109.766 532.5,-98 520.306,-96.318 507.111,-94.0133 495.147,-91.7363"/>
<polygon fill="midnightblue" stroke="midnightblue" points="495.491,-88.2376 485.006,-89.7589 494.152,-95.1082 495.491,-88.2376"/>
</g>
<!-- Node28&#45;&gt;Node20 -->
<g id="edge41" class="edge"><title>Node28&#45;&gt;Node20</title>
<path fill="none" stroke="midnightblue" d="M1050.14,-134.375C1057.76,-125.557 1069.6,-111.305 1078.5,-98 1092.49,-77.0852 1106.11,-51.4663 1114.63,-34.6004"/>
<polygon fill="midnightblue" stroke="midnightblue" points="1117.91,-35.8621 1119.24,-25.3504 1111.65,-32.7417 1117.91,-35.8621"/>
</g>
<!-- Node28&#45;&gt;Node23 -->
<g id="edge37" class="edge"><title>Node28&#45;&gt;Node23</title>
<path fill="none" stroke="midnightblue" d="M1043.62,-134.421C1045.15,-118.84 1045.94,-85.7756 1028.5,-67 1026.14,-64.4639 951.436,-45.3942 895.677,-31.4343"/>
<polygon fill="midnightblue" stroke="midnightblue" points="896.409,-28.0095 885.858,-28.9797 894.711,-34.8005 896.409,-28.0095"/>
</g>
<!-- Node28&#45;&gt;Node24 -->
<g id="edge36" class="edge"><title>Node28&#45;&gt;Node24</title>
<path fill="none" stroke="midnightblue" d="M1048.63,-134.383C1058.32,-119.585 1074.81,-88.8317 1061.5,-67 1050.03,-48.1807 1029.05,-36.0739 1009.43,-28.4486"/>
<polygon fill="midnightblue" stroke="midnightblue" points="1010.56,-25.1333 999.961,-25.0555 1008.19,-31.7232 1010.56,-25.1333"/>
</g>
<!-- Node28&#45;&gt;Node27 -->
<g id="edge38" class="edge"><title>Node28&#45;&gt;Node27</title>
<path fill="none" stroke="midnightblue" d="M1032.04,-134.475C1022.34,-126.567 1007.51,-114.485 994.734,-104.067"/>
<polygon fill="midnightblue" stroke="midnightblue" points="996.667,-101.128 986.705,-97.523 992.245,-106.554 996.667,-101.128"/>
</g>
<!-- Node28&#45;&gt;Node29 -->
<g id="edge35" class="edge"><title>Node28&#45;&gt;Node29</title>
<path fill="none" stroke="midnightblue" d="M1103.19,-135.486C1166.02,-127.41 1266.93,-113.612 1353.5,-98 1359.88,-96.8496 1366.58,-95.5323 1373.17,-94.1712"/>
<polygon fill="midnightblue" stroke="midnightblue" points="1374.32,-97.5055 1383.38,-92.014 1372.87,-90.6567 1374.32,-97.5055"/>
</g>
<!-- Node30 -->
<g id="node30" class="node"><title>Node30</title>
<polygon fill="white" stroke="#bfbfbf" points="1152,-67.5 1152,-97.5 1281,-97.5 1281,-67.5 1152,-67.5"/>
<text text-anchor="start" x="1160" y="-85.5" font-family="Helvetica,sans-Serif" font-size="10.00">boost/type_traits/has</text>
<text text-anchor="middle" x="1216.5" y="-74.5" font-family="Helvetica,sans-Serif" font-size="10.00">_nothrow_constructor.hpp</text>
</g>
<!-- Node28&#45;&gt;Node30 -->
<g id="edge39" class="edge"><title>Node28&#45;&gt;Node30</title>
<path fill="none" stroke="midnightblue" d="M1067.43,-134.475C1092.98,-125.739 1133.43,-111.907 1165.75,-100.855"/>
<polygon fill="midnightblue" stroke="midnightblue" points="1167.16,-104.07 1175.49,-97.523 1164.9,-97.4469 1167.16,-104.07"/>
</g>
<!-- Node31 -->
<g id="node31" class="node"><title>Node31</title>
<polygon fill="white" stroke="#bfbfbf" points="1299,-73 1299,-92 1344,-92 1344,-73 1299,-73"/>
<text text-anchor="middle" x="1321.5" y="-80" font-family="Helvetica,sans-Serif" font-size="10.00">iosfwd</text>
</g>
<!-- Node28&#45;&gt;Node31 -->
<g id="edge42" class="edge"><title>Node28&#45;&gt;Node31</title>
<path fill="none" stroke="midnightblue" d="M1098.96,-134.488C1160.76,-124.864 1255.69,-109.094 1290.5,-98 1292.17,-97.4667 1293.87,-96.8632 1295.57,-96.2128"/>
<polygon fill="midnightblue" stroke="midnightblue" points="1297.27,-99.2927 1305.09,-92.1378 1294.52,-92.8582 1297.27,-99.2927"/>
</g>
<!-- Node33&#45;&gt;Node13 -->
<g id="edge50" class="edge"><title>Node33&#45;&gt;Node13</title>
<path fill="none" stroke="midnightblue" d="M834.857,-195.975C803.962,-185.288 751.025,-166.975 717.719,-155.454"/>
<polygon fill="midnightblue" stroke="midnightblue" points="718.654,-152.074 708.059,-152.112 716.365,-158.689 718.654,-152.074"/>
</g>
</g>
</svg>
