<?xml version="1.0" encoding="UTF-8" standalone="no"?>
<!DOCTYPE svg PUBLIC "-//W3C//DTD SVG 1.1//EN"
 "http://www.w3.org/Graphics/SVG/1.1/DTD/svg11.dtd">
<!-- Generated by graphviz version 2.38.0 (20140413.2041)
 -->
<!-- Title: LinearFunction.h Pages: 1 -->
<svg width="1579pt" height="341pt"
 viewBox="0.00 0.00 1578.50 341.00" xmlns="http://www.w3.org/2000/svg" xmlns:xlink="http://www.w3.org/1999/xlink">
<g id="graph0" class="graph" transform="scale(1 1) rotate(0) translate(4 337)">
<title>LinearFunction.h</title>
<polygon fill="white" stroke="none" points="-4,4 -4,-337 1574.5,-337 1574.5,4 -4,4"/>
<!-- Node1 -->
<g id="node1" class="node"><title>Node1</title>
<polygon fill="#bfbfbf" stroke="black" points="1031.5,-313.5 1031.5,-332.5 1120.5,-332.5 1120.5,-313.5 1031.5,-313.5"/>
<text text-anchor="middle" x="1076" y="-320.5" font-family="Helvetica,sans-Serif" font-size="10.00">LinearFunction.h</text>
</g>
<!-- Node2 -->
<g id="node2" class="node"><title>Node2</title>
<g id="a_node2"><a xlink:href="../../df/df5/Function_8h.html" target="_top" xlink:title="Declaration file of the Function class. ">
<polygon fill="white" stroke="black" points="876.5,-257.5 876.5,-276.5 987.5,-276.5 987.5,-257.5 876.5,-257.5"/>
<text text-anchor="middle" x="932" y="-264.5" font-family="Helvetica,sans-Serif" font-size="10.00">ocra/optim/Function.h</text>
</a>
</g>
</g>
<!-- Node1&#45;&gt;Node2 -->
<g id="edge1" class="edge"><title>Node1&#45;&gt;Node2</title>
<path fill="none" stroke="midnightblue" d="M1053.18,-313.444C1029.17,-304.438 991.171,-290.189 964.131,-280.049"/>
<polygon fill="midnightblue" stroke="midnightblue" points="965.303,-276.751 954.71,-276.516 962.845,-283.305 965.303,-276.751"/>
</g>
<!-- Node34 -->
<g id="node34" class="node"><title>Node34</title>
<g id="a_node34"><a xlink:href="../../df/d0a/Macros_8h.html" target="_top" xlink:title="ocra/util/Macros.h">
<polygon fill="white" stroke="black" points="1173.5,-257.5 1173.5,-276.5 1268.5,-276.5 1268.5,-257.5 1173.5,-257.5"/>
<text text-anchor="middle" x="1221" y="-264.5" font-family="Helvetica,sans-Serif" font-size="10.00">ocra/util/Macros.h</text>
</a>
</g>
</g>
<!-- Node1&#45;&gt;Node34 -->
<g id="edge51" class="edge"><title>Node1&#45;&gt;Node34</title>
<path fill="none" stroke="midnightblue" d="M1098.98,-313.444C1123.16,-304.438 1161.42,-290.189 1188.65,-280.049"/>
<polygon fill="midnightblue" stroke="midnightblue" points="1189.98,-283.286 1198.13,-276.516 1187.54,-276.727 1189.98,-283.286"/>
</g>
<!-- Node3 -->
<g id="node3" class="node"><title>Node3</title>
<g id="a_node3"><a xlink:href="../../de/d94/IFunction_8h.html" target="_top" xlink:title="Declaration file of the IFunction interface. ">
<polygon fill="white" stroke="black" points="1201,-134.5 1201,-153.5 1315,-153.5 1315,-134.5 1201,-134.5"/>
<text text-anchor="middle" x="1258" y="-141.5" font-family="Helvetica,sans-Serif" font-size="10.00">ocra/optim/IFunction.h</text>
</a>
</g>
</g>
<!-- Node2&#45;&gt;Node3 -->
<g id="edge2" class="edge"><title>Node2&#45;&gt;Node3</title>
<path fill="none" stroke="midnightblue" d="M987.696,-264.964C1065.71,-262.351 1202.03,-253.174 1238,-221 1254.02,-206.674 1257.9,-181.209 1258.51,-163.733"/>
<polygon fill="midnightblue" stroke="midnightblue" points="1262.01,-163.61 1258.54,-153.6 1255.01,-163.591 1262.01,-163.61"/>
</g>
<!-- Node12 -->
<g id="node12" class="node"><title>Node12</title>
<g id="a_node12"><a xlink:href="../../d9/d54/IFunctionProperties_8h.html" target="_top" xlink:title="ocra/optim/IFunctionProperties.h">
<polygon fill="white" stroke="black" points="776,-196 776,-215 934,-215 934,-196 776,-196"/>
<text text-anchor="middle" x="855" y="-203" font-family="Helvetica,sans-Serif" font-size="10.00">ocra/optim/IFunctionProperties.h</text>
</a>
</g>
</g>
<!-- Node2&#45;&gt;Node12 -->
<g id="edge11" class="edge"><title>Node2&#45;&gt;Node12</title>
<path fill="none" stroke="midnightblue" d="M920.968,-257.475C908.732,-248.02 888.771,-232.596 874.007,-221.187"/>
<polygon fill="midnightblue" stroke="midnightblue" points="876.065,-218.354 866.012,-215.009 871.785,-223.893 876.065,-218.354"/>
</g>
<!-- Node14 -->
<g id="node14" class="node"><title>Node14</title>
<g id="a_node14"><a xlink:href="../../db/d47/AbilitySet_8h.html" target="_top" xlink:title="ocra/optim/AbilitySet.h">
<polygon fill="white" stroke="black" points="952,-196 952,-215 1068,-215 1068,-196 952,-196"/>
<text text-anchor="middle" x="1010" y="-203" font-family="Helvetica,sans-Serif" font-size="10.00">ocra/optim/AbilitySet.h</text>
</a>
</g>
</g>
<!-- Node2&#45;&gt;Node14 -->
<g id="edge14" class="edge"><title>Node2&#45;&gt;Node14</title>
<path fill="none" stroke="midnightblue" d="M943.175,-257.475C955.571,-248.02 975.79,-232.596 990.746,-221.187"/>
<polygon fill="midnightblue" stroke="midnightblue" points="993.017,-223.857 998.845,-215.009 988.772,-218.291 993.017,-223.857"/>
</g>
<!-- Node15 -->
<g id="node15" class="node"><title>Node15</title>
<g id="a_node15"><a xlink:href="../../d1/d87/CoupledInputOutputSize_8h.html" target="_top" xlink:title="ocra/optim/CoupledInputOutput\lSize.h">
<polygon fill="white" stroke="black" points="478,-190.5 478,-220.5 630,-220.5 630,-190.5 478,-190.5"/>
<text text-anchor="start" x="486" y="-208.5" font-family="Helvetica,sans-Serif" font-size="10.00">ocra/optim/CoupledInputOutput</text>
<text text-anchor="middle" x="554" y="-197.5" font-family="Helvetica,sans-Serif" font-size="10.00">Size.h</text>
</a>
</g>
</g>
<!-- Node2&#45;&gt;Node15 -->
<g id="edge17" class="edge"><title>Node2&#45;&gt;Node15</title>
<path fill="none" stroke="midnightblue" d="M876.332,-257.731C819.491,-249.224 728.428,-235.422 640.338,-221.203"/>
<polygon fill="midnightblue" stroke="midnightblue" points="640.876,-217.744 630.446,-219.602 639.758,-224.655 640.876,-217.744"/>
</g>
<!-- Node16 -->
<g id="node16" class="node"><title>Node16</title>
<g id="a_node16"><a xlink:href="../../d7/d90/Variable_8h.html" target="_top" xlink:title="Declaration file of the Variable class. ">
<polygon fill="white" stroke="black" points="648.5,-196 648.5,-215 757.5,-215 757.5,-196 648.5,-196"/>
<text text-anchor="middle" x="703" y="-203" font-family="Helvetica,sans-Serif" font-size="10.00">ocra/optim/Variable.h</text>
</a>
</g>
</g>
<!-- Node2&#45;&gt;Node16 -->
<g id="edge18" class="edge"><title>Node2&#45;&gt;Node16</title>
<path fill="none" stroke="midnightblue" d="M899.19,-257.475C858.803,-246.982 790.123,-229.137 745.671,-217.587"/>
<polygon fill="midnightblue" stroke="midnightblue" points="746.308,-214.136 735.749,-215.009 744.548,-220.911 746.308,-214.136"/>
</g>
<!-- Node17 -->
<g id="node17" class="node"><title>Node17</title>
<g id="a_node17"><a xlink:href="../../d8/ddc/ObserverSubject_8h.html" target="_top" xlink:title="Declaration file of the Observer, Subject and ObserverSubject classes. ">
<polygon fill="white" stroke="black" points="383,-134.5 383,-153.5 529,-153.5 529,-134.5 383,-134.5"/>
<text text-anchor="middle" x="456" y="-141.5" font-family="Helvetica,sans-Serif" font-size="10.00">ocra/optim/ObserverSubject.h</text>
</a>
</g>
</g>
<!-- Node2&#45;&gt;Node17 -->
<g id="edge48" class="edge"><title>Node2&#45;&gt;Node17</title>
<path fill="none" stroke="midnightblue" d="M876.42,-264.325C759.893,-260.286 498.311,-248.259 469,-221 453.561,-206.642 452.199,-181.184 453.436,-163.719"/>
<polygon fill="midnightblue" stroke="midnightblue" points="456.936,-163.905 454.502,-153.593 449.974,-163.172 456.936,-163.905"/>
</g>
<!-- Node33 -->
<g id="node33" class="node"><title>Node33</title>
<g id="a_node33"><a xlink:href="../../df/d97/NamedInstance_8h.html" target="_top" xlink:title="ocra/optim/NamedInstance.h">
<polygon fill="white" stroke="black" points="1086.5,-196 1086.5,-215 1229.5,-215 1229.5,-196 1086.5,-196"/>
<text text-anchor="middle" x="1158" y="-203" font-family="Helvetica,sans-Serif" font-size="10.00">ocra/optim/NamedInstance.h</text>
</a>
</g>
</g>
<!-- Node2&#45;&gt;Node33 -->
<g id="edge49" class="edge"><title>Node2&#45;&gt;Node33</title>
<path fill="none" stroke="midnightblue" d="M964.38,-257.475C1004.24,-246.982 1072.02,-229.137 1115.89,-217.587"/>
<polygon fill="midnightblue" stroke="midnightblue" points="1116.9,-220.94 1125.68,-215.009 1115.12,-214.17 1116.9,-220.94"/>
</g>
<!-- Node4 -->
<g id="node4" class="node"><title>Node4</title>
<g id="a_node4"><a xlink:href="../../d5/d55/MathTypes_8h.html" target="_top" xlink:title="Declaration file of the OptimizationVariable class. ">
<polygon fill="white" stroke="black" points="1316.5,-73 1316.5,-92 1427.5,-92 1427.5,-73 1316.5,-73"/>
<text text-anchor="middle" x="1372" y="-80" font-family="Helvetica,sans-Serif" font-size="10.00">ocra/util/MathTypes.h</text>
</a>
</g>
</g>
<!-- Node3&#45;&gt;Node4 -->
<g id="edge3" class="edge"><title>Node3&#45;&gt;Node4</title>
<path fill="none" stroke="midnightblue" d="M1274.33,-134.475C1293.21,-124.622 1324.51,-108.288 1346.58,-96.7697"/>
<polygon fill="midnightblue" stroke="midnightblue" points="1348.45,-99.7389 1355.7,-92.0091 1345.21,-93.5333 1348.45,-99.7389"/>
</g>
<!-- Node7 -->
<g id="node7" class="node"><title>Node7</title>
<g id="a_node7"><a xlink:href="../../de/df3/ocra__assert_8h.html" target="_top" xlink:title="ocra/optim/ocra_assert.h">
<polygon fill="white" stroke="black" points="1445.5,-73 1445.5,-92 1570.5,-92 1570.5,-73 1445.5,-73"/>
<text text-anchor="middle" x="1508" y="-80" font-family="Helvetica,sans-Serif" font-size="10.00">ocra/optim/ocra_assert.h</text>
</a>
</g>
</g>
<!-- Node3&#45;&gt;Node7 -->
<g id="edge6" class="edge"><title>Node3&#45;&gt;Node7</title>
<path fill="none" stroke="midnightblue" d="M1293.82,-134.475C1338.19,-123.915 1413.84,-105.911 1462.33,-94.3689"/>
<polygon fill="midnightblue" stroke="midnightblue" points="1463.33,-97.7294 1472.25,-92.0091 1461.71,-90.9196 1463.33,-97.7294"/>
</g>
<!-- Node9 -->
<g id="node9" class="node"><title>Node9</title>
<polygon fill="white" stroke="#bfbfbf" points="1244,-73 1244,-92 1298,-92 1298,-73 1244,-73"/>
<text text-anchor="middle" x="1271" y="-80" font-family="Helvetica,sans-Serif" font-size="10.00">iostream</text>
</g>
<!-- Node3&#45;&gt;Node9 -->
<g id="edge8" class="edge"><title>Node3&#45;&gt;Node9</title>
<path fill="none" stroke="midnightblue" d="M1259.86,-134.475C1261.72,-125.992 1264.62,-112.704 1267,-101.822"/>
<polygon fill="midnightblue" stroke="midnightblue" points="1270.43,-102.526 1269.14,-92.0091 1263.59,-101.032 1270.43,-102.526"/>
</g>
<!-- Node10 -->
<g id="node10" class="node"><title>Node10</title>
<polygon fill="white" stroke="#bfbfbf" points="780,-73 780,-92 824,-92 824,-73 780,-73"/>
<text text-anchor="middle" x="802" y="-80" font-family="Helvetica,sans-Serif" font-size="10.00">vector</text>
</g>
<!-- Node3&#45;&gt;Node10 -->
<g id="edge9" class="edge"><title>Node3&#45;&gt;Node10</title>
<path fill="none" stroke="midnightblue" d="M1200.71,-135.525C1103.84,-122.885 910.787,-97.6949 834.295,-87.714"/>
<polygon fill="midnightblue" stroke="midnightblue" points="834.667,-84.2328 824.298,-86.4095 833.761,-91.174 834.667,-84.2328"/>
</g>
<!-- Node11 -->
<g id="node11" class="node"><title>Node11</title>
<polygon fill="white" stroke="#bfbfbf" points="1166.5,-73 1166.5,-92 1225.5,-92 1225.5,-73 1166.5,-73"/>
<text text-anchor="middle" x="1196" y="-80" font-family="Helvetica,sans-Serif" font-size="10.00">stdexcept</text>
</g>
<!-- Node3&#45;&gt;Node11 -->
<g id="edge10" class="edge"><title>Node3&#45;&gt;Node11</title>
<path fill="none" stroke="midnightblue" d="M1249.12,-134.475C1239.54,-125.285 1224.09,-110.456 1212.31,-99.156"/>
<polygon fill="midnightblue" stroke="midnightblue" points="1214.51,-96.408 1204.87,-92.0091 1209.66,-101.458 1214.51,-96.408"/>
</g>
<!-- Node5 -->
<g id="node5" class="node"><title>Node5</title>
<polygon fill="white" stroke="#bfbfbf" points="1295.5,-6 1295.5,-25 1368.5,-25 1368.5,-6 1295.5,-6"/>
<text text-anchor="middle" x="1332" y="-13" font-family="Helvetica,sans-Serif" font-size="10.00">Eigen/Dense</text>
</g>
<!-- Node4&#45;&gt;Node5 -->
<g id="edge4" class="edge"><title>Node4&#45;&gt;Node5</title>
<path fill="none" stroke="midnightblue" d="M1366.61,-72.7338C1360.49,-62.7928 1350.36,-46.3377 1342.64,-33.7892"/>
<polygon fill="midnightblue" stroke="midnightblue" points="1345.53,-31.8095 1337.31,-25.1273 1339.57,-35.4783 1345.53,-31.8095"/>
</g>
<!-- Node6 -->
<g id="node6" class="node"><title>Node6</title>
<polygon fill="white" stroke="#bfbfbf" points="1387,-6 1387,-25 1431,-25 1431,-6 1387,-6"/>
<text text-anchor="middle" x="1409" y="-13" font-family="Helvetica,sans-Serif" font-size="10.00">cmath</text>
</g>
<!-- Node4&#45;&gt;Node6 -->
<g id="edge5" class="edge"><title>Node4&#45;&gt;Node6</title>
<path fill="none" stroke="midnightblue" d="M1376.99,-72.7338C1382.59,-62.8903 1391.83,-46.6598 1398.95,-34.1594"/>
<polygon fill="midnightblue" stroke="midnightblue" points="1402.18,-35.5494 1404.09,-25.1273 1396.1,-32.0865 1402.18,-35.5494"/>
</g>
<!-- Node8 -->
<g id="node8" class="node"><title>Node8</title>
<polygon fill="white" stroke="#bfbfbf" points="1486.5,-6 1486.5,-25 1529.5,-25 1529.5,-6 1486.5,-6"/>
<text text-anchor="middle" x="1508" y="-13" font-family="Helvetica,sans-Serif" font-size="10.00">cstdio</text>
</g>
<!-- Node7&#45;&gt;Node8 -->
<g id="edge7" class="edge"><title>Node7&#45;&gt;Node8</title>
<path fill="none" stroke="midnightblue" d="M1508,-72.7338C1508,-63.1826 1508,-47.6183 1508,-35.2829"/>
<polygon fill="midnightblue" stroke="midnightblue" points="1511.5,-35.1273 1508,-25.1273 1504.5,-35.1273 1511.5,-35.1273"/>
</g>
<!-- Node12&#45;&gt;Node10 -->
<g id="edge13" class="edge"><title>Node12&#45;&gt;Node10</title>
<path fill="none" stroke="midnightblue" d="M849.075,-195.88C842.529,-186.074 831.991,-169.417 825,-154 817.289,-136.994 810.933,-116.63 806.872,-102.17"/>
<polygon fill="midnightblue" stroke="midnightblue" points="810.223,-101.154 804.229,-92.4173 803.466,-102.985 810.223,-101.154"/>
</g>
<!-- Node13 -->
<g id="node13" class="node"><title>Node13</title>
<polygon fill="white" stroke="#bfbfbf" points="1006.5,-134.5 1006.5,-153.5 1047.5,-153.5 1047.5,-134.5 1006.5,-134.5"/>
<text text-anchor="middle" x="1027" y="-141.5" font-family="Helvetica,sans-Serif" font-size="10.00">string</text>
</g>
<!-- Node12&#45;&gt;Node13 -->
<g id="edge12" class="edge"><title>Node12&#45;&gt;Node13</title>
<path fill="none" stroke="midnightblue" d="M879.643,-195.975C910.538,-185.288 963.475,-166.975 996.781,-155.454"/>
<polygon fill="midnightblue" stroke="midnightblue" points="998.135,-158.689 1006.44,-152.112 995.846,-152.074 998.135,-158.689"/>
</g>
<!-- Node14&#45;&gt;Node3 -->
<g id="edge15" class="edge"><title>Node14&#45;&gt;Node3</title>
<path fill="none" stroke="midnightblue" d="M1045.53,-195.975C1089.55,-185.415 1164.59,-167.411 1212.7,-155.869"/>
<polygon fill="midnightblue" stroke="midnightblue" points="1213.63,-159.246 1222.53,-153.509 1211.99,-152.439 1213.63,-159.246"/>
</g>
<!-- Node14&#45;&gt;Node10 -->
<g id="edge16" class="edge"><title>Node14&#45;&gt;Node10</title>
<path fill="none" stroke="midnightblue" d="M976.962,-195.909C938.401,-185.474 877.428,-167.583 858,-154 838.055,-140.056 821.658,-116.998 811.87,-101.068"/>
<polygon fill="midnightblue" stroke="midnightblue" points="814.747,-99.0568 806.657,-92.2161 808.715,-102.609 814.747,-99.0568"/>
</g>
<!-- Node16&#45;&gt;Node10 -->
<g id="edge47" class="edge"><title>Node16&#45;&gt;Node10</title>
<path fill="none" stroke="midnightblue" d="M689.832,-195.868C670.942,-182.409 640.087,-155.713 656,-134 687.408,-91.1442 720.38,-116.999 770,-98 771.606,-97.3853 773.246,-96.7301 774.893,-96.0509"/>
<polygon fill="midnightblue" stroke="midnightblue" points="776.434,-99.1975 784.22,-92.0114 773.652,-92.774 776.434,-99.1975"/>
</g>
<!-- Node16&#45;&gt;Node13 -->
<g id="edge46" class="edge"><title>Node16&#45;&gt;Node13</title>
<path fill="none" stroke="midnightblue" d="M738.791,-195.943C747.96,-193.874 757.824,-191.755 767,-190 865.547,-171.146 894.372,-176.557 996.644,-153.786"/>
<polygon fill="midnightblue" stroke="midnightblue" points="997.46,-157.19 1006.44,-151.57 995.915,-150.363 997.46,-157.19"/>
</g>
<!-- Node16&#45;&gt;Node17 -->
<g id="edge19" class="edge"><title>Node16&#45;&gt;Node17</title>
<path fill="none" stroke="midnightblue" d="M667.611,-195.975C623.774,-185.415 549.034,-167.411 501.12,-155.869"/>
<polygon fill="midnightblue" stroke="midnightblue" points="501.865,-152.448 491.323,-153.509 500.226,-159.254 501.865,-152.448"/>
</g>
<!-- Node28 -->
<g id="node28" class="node"><title>Node28</title>
<g id="a_node28"><a xlink:href="../../d1/de6/Composite_8h.html" target="_top" xlink:title="Utility classes and functions to implement the Composite design pattern. ">
<polygon fill="white" stroke="black" points="867.5,-134.5 867.5,-153.5 988.5,-153.5 988.5,-134.5 867.5,-134.5"/>
<text text-anchor="middle" x="928" y="-141.5" font-family="Helvetica,sans-Serif" font-size="10.00">ocra/optim/Composite.h</text>
</a>
</g>
</g>
<!-- Node16&#45;&gt;Node28 -->
<g id="edge33" class="edge"><title>Node16&#45;&gt;Node28</title>
<path fill="none" stroke="midnightblue" d="M735.237,-195.975C774.919,-185.482 842.399,-167.637 886.074,-156.087"/>
<polygon fill="midnightblue" stroke="midnightblue" points="887.05,-159.449 895.823,-153.509 885.26,-152.682 887.05,-159.449"/>
</g>
<!-- Node29 -->
<g id="node29" class="node"><title>Node29</title>
<polygon fill="white" stroke="#bfbfbf" points="644.5,-73 644.5,-92 761.5,-92 761.5,-73 644.5,-73"/>
<text text-anchor="middle" x="703" y="-80" font-family="Helvetica,sans-Serif" font-size="10.00">boost/noncopyable.hpp</text>
</g>
<!-- Node16&#45;&gt;Node29 -->
<g id="edge45" class="edge"><title>Node16&#45;&gt;Node29</title>
<path fill="none" stroke="midnightblue" d="M712.81,-195.995C722.608,-186.789 737.044,-171.112 743,-154 749.96,-134.002 734.92,-113.157 721.336,-99.3688"/>
<polygon fill="midnightblue" stroke="midnightblue" points="723.353,-96.4584 713.685,-92.126 718.541,-101.542 723.353,-96.4584"/>
</g>
<!-- Node32 -->
<g id="node32" class="node"><title>Node32</title>
<polygon fill="white" stroke="#bfbfbf" points="665.5,-134.5 665.5,-153.5 734.5,-153.5 734.5,-134.5 665.5,-134.5"/>
<text text-anchor="middle" x="700" y="-141.5" font-family="Helvetica,sans-Serif" font-size="10.00">Eigen/Eigen</text>
</g>
<!-- Node16&#45;&gt;Node32 -->
<g id="edge44" class="edge"><title>Node16&#45;&gt;Node32</title>
<path fill="none" stroke="midnightblue" d="M702.57,-195.975C702.147,-187.58 701.486,-174.481 700.941,-163.663"/>
<polygon fill="midnightblue" stroke="midnightblue" points="704.428,-163.32 700.429,-153.509 697.437,-163.673 704.428,-163.32"/>
</g>
<!-- Node18 -->
<g id="node18" class="node"><title>Node18</title>
<g id="a_node18"><a xlink:href="../../df/d67/ObserverSubjectBase_8h.html" target="_top" xlink:title="Declaration file of the Observer and Subject base classes. ">
<polygon fill="white" stroke="black" points="148,-67.5 148,-97.5 286,-97.5 286,-67.5 148,-67.5"/>
<text text-anchor="start" x="156" y="-85.5" font-family="Helvetica,sans-Serif" font-size="10.00">ocra/optim/ObserverSubject</text>
<text text-anchor="middle" x="217" y="-74.5" font-family="Helvetica,sans-Serif" font-size="10.00">Base.h</text>
</a>
</g>
</g>
<!-- Node17&#45;&gt;Node18 -->
<g id="edge20" class="edge"><title>Node17&#45;&gt;Node18</title>
<path fill="none" stroke="midnightblue" d="M421.757,-134.475C385.758,-125.513 328.219,-111.188 283.29,-100.003"/>
<polygon fill="midnightblue" stroke="midnightblue" points="283.877,-96.5425 273.328,-97.523 282.186,-103.335 283.877,-96.5425"/>
</g>
<!-- Node22 -->
<g id="node22" class="node"><title>Node22</title>
<polygon fill="white" stroke="#bfbfbf" points="0,-0.5 0,-30.5 100,-30.5 100,-0.5 0,-0.5"/>
<text text-anchor="start" x="8" y="-18.5" font-family="Helvetica,sans-Serif" font-size="10.00">boost/type_traits/is</text>
<text text-anchor="middle" x="50" y="-7.5" font-family="Helvetica,sans-Serif" font-size="10.00">_class.hpp</text>
</g>
<!-- Node17&#45;&gt;Node22 -->
<g id="edge32" class="edge"><title>Node17&#45;&gt;Node22</title>
<path fill="none" stroke="midnightblue" d="M382.916,-137.652C303.082,-130.932 180.97,-117.821 139,-98 109.956,-84.2829 83.7791,-57.7653 67.4523,-38.6986"/>
<polygon fill="midnightblue" stroke="midnightblue" points="69.9593,-36.2394 60.8738,-30.7892 64.5775,-40.7156 69.9593,-36.2394"/>
</g>
<!-- Node23 -->
<g id="node23" class="node"><title>Node23</title>
<polygon fill="white" stroke="#bfbfbf" points="410,-0.5 410,-30.5 510,-30.5 510,-0.5 410,-0.5"/>
<text text-anchor="start" x="418" y="-18.5" font-family="Helvetica,sans-Serif" font-size="10.00">boost/type_traits/is</text>
<text text-anchor="middle" x="460" y="-7.5" font-family="Helvetica,sans-Serif" font-size="10.00">_base_of.hpp</text>
</g>
<!-- Node17&#45;&gt;Node23 -->
<g id="edge30" class="edge"><title>Node17&#45;&gt;Node23</title>
<path fill="none" stroke="midnightblue" d="M456.275,-134.305C456.876,-115.298 458.325,-69.4696 459.228,-40.9004"/>
<polygon fill="midnightblue" stroke="midnightblue" points="462.727,-40.9937 459.545,-30.888 455.731,-40.7724 462.727,-40.9937"/>
</g>
<!-- Node24 -->
<g id="node24" class="node"><title>Node24</title>
<polygon fill="white" stroke="#bfbfbf" points="528.5,-6 528.5,-25 647.5,-25 647.5,-6 528.5,-6"/>
<text text-anchor="middle" x="588" y="-13" font-family="Helvetica,sans-Serif" font-size="10.00">boost/static_assert.hpp</text>
</g>
<!-- Node17&#45;&gt;Node24 -->
<g id="edge29" class="edge"><title>Node17&#45;&gt;Node24</title>
<path fill="none" stroke="midnightblue" d="M461.728,-134.382C471.812,-119.584 493.865,-88.8285 517,-67 531.621,-53.2049 550.194,-40.1238 564.677,-30.7328"/>
<polygon fill="midnightblue" stroke="midnightblue" points="566.951,-33.4355 573.521,-25.124 563.202,-27.5241 566.951,-33.4355"/>
</g>
<!-- Node26 -->
<g id="node26" class="node"><title>Node26</title>
<g id="a_node26"><a xlink:href="../../db/ddf/ocra__events_8h.html" target="_top" xlink:title="ocra/optim/ocra_events.h">
<polygon fill="white" stroke="black" points="304.5,-73 304.5,-92 431.5,-92 431.5,-73 304.5,-73"/>
<text text-anchor="middle" x="368" y="-80" font-family="Helvetica,sans-Serif" font-size="10.00">ocra/optim/ocra_events.h</text>
</a>
</g>
</g>
<!-- Node17&#45;&gt;Node26 -->
<g id="edge28" class="edge"><title>Node17&#45;&gt;Node26</title>
<path fill="none" stroke="midnightblue" d="M443.392,-134.475C429.277,-124.931 406.169,-109.307 389.251,-97.8683"/>
<polygon fill="midnightblue" stroke="midnightblue" points="390.829,-94.7109 380.585,-92.0091 386.909,-100.51 390.829,-94.7109"/>
</g>
<!-- Node27 -->
<g id="node27" class="node"><title>Node27</title>
<polygon fill="white" stroke="#bfbfbf" points="526,-67.5 526,-97.5 626,-97.5 626,-67.5 526,-67.5"/>
<text text-anchor="start" x="534" y="-85.5" font-family="Helvetica,sans-Serif" font-size="10.00">boost/type_traits/is</text>
<text text-anchor="middle" x="576" y="-74.5" font-family="Helvetica,sans-Serif" font-size="10.00">_convertible.hpp</text>
</g>
<!-- Node17&#45;&gt;Node27 -->
<g id="edge31" class="edge"><title>Node17&#45;&gt;Node27</title>
<path fill="none" stroke="midnightblue" d="M473.193,-134.475C490.205,-126.04 516.796,-112.855 538.673,-102.008"/>
<polygon fill="midnightblue" stroke="midnightblue" points="540.314,-105.101 547.718,-97.523 537.204,-98.8296 540.314,-105.101"/>
</g>
<!-- Node19 -->
<g id="node19" class="node"><title>Node19</title>
<polygon fill="white" stroke="#bfbfbf" points="236.5,-6 236.5,-25 295.5,-25 295.5,-6 236.5,-6"/>
<text text-anchor="middle" x="266" y="-13" font-family="Helvetica,sans-Serif" font-size="10.00">functional</text>
</g>
<!-- Node18&#45;&gt;Node19 -->
<g id="edge21" class="edge"><title>Node18&#45;&gt;Node19</title>
<path fill="none" stroke="midnightblue" d="M227.632,-67.396C235.197,-57.3614 245.391,-43.8382 253.37,-33.2535"/>
<polygon fill="midnightblue" stroke="midnightblue" points="256.221,-35.2867 259.446,-25.1945 250.631,-31.0729 256.221,-35.2867"/>
</g>
<!-- Node20 -->
<g id="node20" class="node"><title>Node20</title>
<polygon fill="white" stroke="#bfbfbf" points="783,-6 783,-25 839,-25 839,-6 783,-6"/>
<text text-anchor="middle" x="811" y="-13" font-family="Helvetica,sans-Serif" font-size="10.00">algorithm</text>
</g>
<!-- Node18&#45;&gt;Node20 -->
<g id="edge22" class="edge"><title>Node18&#45;&gt;Node20</title>
<path fill="none" stroke="midnightblue" d="M286.272,-68.302C289.217,-67.8422 292.136,-67.4056 295,-67 318.632,-63.6534 657.394,-31.1788 772.812,-20.1463"/>
<polygon fill="midnightblue" stroke="midnightblue" points="773.331,-23.6128 782.952,-19.1773 772.665,-16.6445 773.331,-23.6128"/>
</g>
<!-- Node21 -->
<g id="node21" class="node"><title>Node21</title>
<polygon fill="white" stroke="#bfbfbf" points="314,-6 314,-25 392,-25 392,-6 314,-6"/>
<text text-anchor="middle" x="353" y="-13" font-family="Helvetica,sans-Serif" font-size="10.00">boost/any.hpp</text>
</g>
<!-- Node18&#45;&gt;Node21 -->
<g id="edge23" class="edge"><title>Node18&#45;&gt;Node21</title>
<path fill="none" stroke="midnightblue" d="M246.51,-67.396C270.162,-56.0919 303.076,-40.3607 326.03,-29.3903"/>
<polygon fill="midnightblue" stroke="midnightblue" points="327.688,-32.4771 335.201,-25.007 324.669,-26.1614 327.688,-32.4771"/>
</g>
<!-- Node18&#45;&gt;Node22 -->
<g id="edge24" class="edge"><title>Node18&#45;&gt;Node22</title>
<path fill="none" stroke="midnightblue" d="M180.763,-67.396C155.816,-57.6858 122.475,-44.7088 95.7039,-34.2889"/>
<polygon fill="midnightblue" stroke="midnightblue" points="96.7543,-30.9421 86.1658,-30.5765 94.2153,-37.4654 96.7543,-30.9421"/>
</g>
<!-- Node18&#45;&gt;Node23 -->
<g id="edge25" class="edge"><title>Node18&#45;&gt;Node23</title>
<path fill="none" stroke="midnightblue" d="M269.428,-67.476C307.758,-57.2233 359.82,-43.2971 399.843,-32.5913"/>
<polygon fill="midnightblue" stroke="midnightblue" points="400.988,-35.9083 409.744,-29.9431 399.179,-29.1461 400.988,-35.9083"/>
</g>
<!-- Node18&#45;&gt;Node24 -->
<g id="edge26" class="edge"><title>Node18&#45;&gt;Node24</title>
<path fill="none" stroke="midnightblue" d="M286.307,-68.5252C289.243,-68.0042 292.15,-67.4938 295,-67 394.353,-49.7843 419.855,-49.3736 519,-31 525.55,-29.7861 532.434,-28.4331 539.213,-27.0548"/>
<polygon fill="midnightblue" stroke="midnightblue" points="539.933,-30.48 549.019,-25.0309 538.518,-23.6245 539.933,-30.48"/>
</g>
<!-- Node25 -->
<g id="node25" class="node"><title>Node25</title>
<polygon fill="white" stroke="#bfbfbf" points="118,-0.5 118,-30.5 218,-30.5 218,-0.5 118,-0.5"/>
<text text-anchor="start" x="126" y="-18.5" font-family="Helvetica,sans-Serif" font-size="10.00">boost/ptr_container</text>
<text text-anchor="middle" x="168" y="-7.5" font-family="Helvetica,sans-Serif" font-size="10.00">/ptr_vector.hpp</text>
</g>
<!-- Node18&#45;&gt;Node25 -->
<g id="edge27" class="edge"><title>Node18&#45;&gt;Node25</title>
<path fill="none" stroke="midnightblue" d="M206.368,-67.396C200.075,-59.0486 191.963,-48.2871 184.819,-38.8113"/>
<polygon fill="midnightblue" stroke="midnightblue" points="187.426,-36.4549 178.612,-30.5765 181.836,-40.6686 187.426,-36.4549"/>
</g>
<!-- Node28&#45;&gt;Node7 -->
<g id="edge34" class="edge"><title>Node28&#45;&gt;Node7</title>
<path fill="none" stroke="midnightblue" d="M988.563,-134.934C991.413,-134.607 994.237,-134.293 997,-134 1191.67,-113.334 1242.16,-125.371 1436,-98 1443.81,-96.8969 1452.05,-95.48 1460.06,-93.9653"/>
<polygon fill="midnightblue" stroke="midnightblue" points="1460.89,-97.3697 1470.03,-92.0109 1459.54,-90.5005 1460.89,-97.3697"/>
</g>
<!-- Node28&#45;&gt;Node10 -->
<g id="edge40" class="edge"><title>Node28&#45;&gt;Node10</title>
<path fill="none" stroke="midnightblue" d="M909.947,-134.475C888.802,-124.49 853.56,-107.848 829.122,-96.3075"/>
<polygon fill="midnightblue" stroke="midnightblue" points="830.556,-93.1143 820.019,-92.0091 827.567,-99.4441 830.556,-93.1143"/>
</g>
<!-- Node28&#45;&gt;Node11 -->
<g id="edge43" class="edge"><title>Node28&#45;&gt;Node11</title>
<path fill="none" stroke="midnightblue" d="M985.068,-134.425C1031.77,-126.779 1099.29,-114.283 1157,-98 1159.65,-97.2534 1162.37,-96.4083 1165.08,-95.5104"/>
<polygon fill="midnightblue" stroke="midnightblue" points="1166.48,-98.73 1174.75,-92.1097 1164.16,-92.1268 1166.48,-98.73"/>
</g>
<!-- Node28&#45;&gt;Node20 -->
<g id="edge41" class="edge"><title>Node28&#45;&gt;Node20</title>
<path fill="none" stroke="midnightblue" d="M927.372,-134.495C925.845,-119.322 920.726,-87.2824 904,-67 889.5,-49.4176 867.217,-37.0176 848.098,-28.9058"/>
<polygon fill="midnightblue" stroke="midnightblue" points="849.316,-25.6233 838.731,-25.1572 846.715,-32.1222 849.316,-25.6233"/>
</g>
<!-- Node28&#45;&gt;Node23 -->
<g id="edge37" class="edge"><title>Node28&#45;&gt;Node23</title>
<path fill="none" stroke="midnightblue" d="M915.301,-134.483C902.518,-125.75 882.399,-111.562 866,-98 850.493,-85.1754 851.256,-75.4646 833,-67 708.549,-9.29714 659.569,-53.6257 520.305,-31.0216"/>
<polygon fill="midnightblue" stroke="midnightblue" points="520.567,-27.5156 510.119,-29.2761 519.385,-34.415 520.567,-27.5156"/>
</g>
<!-- Node28&#45;&gt;Node24 -->
<g id="edge36" class="edge"><title>Node28&#45;&gt;Node24</title>
<path fill="none" stroke="midnightblue" d="M923.592,-134.24C914.954,-118.058 894.157,-83.6152 866,-67 831.572,-46.6846 728.299,-31.7678 657.797,-23.61"/>
<polygon fill="midnightblue" stroke="midnightblue" points="657.977,-20.1079 647.645,-22.4555 657.186,-27.0631 657.977,-20.1079"/>
</g>
<!-- Node28&#45;&gt;Node27 -->
<g id="edge38" class="edge"><title>Node28&#45;&gt;Node27</title>
<path fill="none" stroke="midnightblue" d="M867.402,-135.289C810.165,-127.645 721.735,-114.905 636.038,-98.1046"/>
<polygon fill="midnightblue" stroke="midnightblue" points="636.634,-94.6547 626.144,-96.1441 635.273,-101.521 636.634,-94.6547"/>
</g>
<!-- Node28&#45;&gt;Node29 -->
<g id="edge35" class="edge"><title>Node28&#45;&gt;Node29</title>
<path fill="none" stroke="midnightblue" d="M895.763,-134.475C856.081,-123.982 788.601,-106.137 744.926,-94.587"/>
<polygon fill="midnightblue" stroke="midnightblue" points="745.74,-91.182 735.177,-92.0091 743.95,-97.9494 745.74,-91.182"/>
</g>
<!-- Node30 -->
<g id="node30" class="node"><title>Node30</title>
<polygon fill="white" stroke="#bfbfbf" points="956.5,-67.5 956.5,-97.5 1085.5,-97.5 1085.5,-67.5 956.5,-67.5"/>
<text text-anchor="start" x="964.5" y="-85.5" font-family="Helvetica,sans-Serif" font-size="10.00">boost/type_traits/has</text>
<text text-anchor="middle" x="1021" y="-74.5" font-family="Helvetica,sans-Serif" font-size="10.00">_nothrow_constructor.hpp</text>
</g>
<!-- Node28&#45;&gt;Node30 -->
<g id="edge39" class="edge"><title>Node28&#45;&gt;Node30</title>
<path fill="none" stroke="midnightblue" d="M941.325,-134.475C954.038,-126.341 973.655,-113.791 990.242,-103.179"/>
<polygon fill="midnightblue" stroke="midnightblue" points="992.544,-105.861 999.082,-97.523 988.772,-99.964 992.544,-105.861"/>
</g>
<!-- Node31 -->
<g id="node31" class="node"><title>Node31</title>
<polygon fill="white" stroke="#bfbfbf" points="1103.5,-73 1103.5,-92 1148.5,-92 1148.5,-73 1103.5,-73"/>
<text text-anchor="middle" x="1126" y="-80" font-family="Helvetica,sans-Serif" font-size="10.00">iosfwd</text>
</g>
<!-- Node28&#45;&gt;Node31 -->
<g id="edge42" class="edge"><title>Node28&#45;&gt;Node31</title>
<path fill="none" stroke="midnightblue" d="M966.448,-134.435C1000.44,-126.424 1051.15,-113.404 1094,-98 1095.62,-97.4184 1097.27,-96.7891 1098.92,-96.1297"/>
<polygon fill="midnightblue" stroke="midnightblue" points="1100.44,-99.2863 1108.27,-92.1452 1097.7,-92.8469 1100.44,-99.2863"/>
</g>
<!-- Node33&#45;&gt;Node13 -->
<g id="edge50" class="edge"><title>Node33&#45;&gt;Node13</title>
<path fill="none" stroke="midnightblue" d="M1139.23,-195.975C1117.15,-185.945 1080.28,-169.2 1054.86,-157.655"/>
<polygon fill="midnightblue" stroke="midnightblue" points="1056.29,-154.458 1045.73,-153.509 1053.39,-160.831 1056.29,-154.458"/>
</g>
<!-- Node35 -->
<g id="node35" class="node"><title>Node35</title>
<polygon fill="white" stroke="#bfbfbf" points="1286,-196 1286,-215 1338,-215 1338,-196 1286,-196"/>
<text text-anchor="middle" x="1312" y="-203" font-family="Helvetica,sans-Serif" font-size="10.00">memory</text>
</g>
<!-- Node34&#45;&gt;Node35 -->
<g id="edge52" class="edge"><title>Node34&#45;&gt;Node35</title>
<path fill="none" stroke="midnightblue" d="M1234.04,-257.475C1248.77,-247.843 1272.97,-232.017 1290.51,-220.552"/>
<polygon fill="midnightblue" stroke="midnightblue" points="1292.53,-223.411 1298.99,-215.009 1288.7,-217.552 1292.53,-223.411"/>
</g>
</g>
</svg>
