<?xml version="1.0" encoding="UTF-8" standalone="no"?>
<!DOCTYPE svg PUBLIC "-//W3C//DTD SVG 1.1//EN"
 "http://www.w3.org/Graphics/SVG/1.1/DTD/svg11.dtd">
<!-- Generated by graphviz version 2.38.0 (20140413.2041)
 -->
<!-- Title: OFSQP.cpp Pages: 1 -->
<svg width="434pt" height="140pt"
 viewBox="0.00 0.00 434.00 140.00" xmlns="http://www.w3.org/2000/svg" xmlns:xlink="http://www.w3.org/1999/xlink">
<g id="graph0" class="graph" transform="scale(1 1) rotate(0) translate(4 136)">
<title>OFSQP.cpp</title>
<polygon fill="white" stroke="none" points="-4,4 -4,-136 430,-136 430,4 -4,4"/>
<!-- Node1 -->
<g id="node1" class="node"><title>Node1</title>
<polygon fill="#bfbfbf" stroke="black" points="242,-112.5 242,-131.5 312,-131.5 312,-112.5 242,-112.5"/>
<text text-anchor="middle" x="277" y="-119.5" font-family="Helvetica,sans-Serif" font-size="10.00">OFSQP.cpp</text>
</g>
<!-- Node2 -->
<g id="node2" class="node"><title>Node2</title>
<g id="a_node2"><a xlink:href="../../db/dd3/OFSQP_8h.html" target="_top" xlink:title="ocra/optim/OFSQP.h">
<polygon fill="white" stroke="black" points="38,-56.5 38,-75.5 146,-75.5 146,-56.5 38,-56.5"/>
<text text-anchor="middle" x="92" y="-63.5" font-family="Helvetica,sans-Serif" font-size="10.00">ocra/optim/OFSQP.h</text>
</a>
</g>
</g>
<!-- Node1&#45;&gt;Node2 -->
<g id="edge1" class="edge"><title>Node1&#45;&gt;Node2</title>
<path fill="none" stroke="midnightblue" d="M247.686,-112.444C216.158,-103.241 165.869,-88.5617 131.014,-78.3879"/>
<polygon fill="midnightblue" stroke="midnightblue" points="131.757,-74.9587 121.177,-75.5164 129.795,-81.6783 131.757,-74.9587"/>
</g>
<!-- Node6 -->
<g id="node6" class="node"><title>Node6</title>
<g id="a_node6"><a xlink:href="../../db/d1f/ObjQLD_8h.html" target="_top" xlink:title="Declaration file of the ObjQLD class. This class should be merged with ocra::ObjQLD. It has been created to have a cml&#45;free solver. ">
<polygon fill="white" stroke="black" points="172.5,-56.5 172.5,-75.5 281.5,-75.5 281.5,-56.5 172.5,-56.5"/>
<text text-anchor="middle" x="227" y="-63.5" font-family="Helvetica,sans-Serif" font-size="10.00">ocra/optim/ObjQLD.h</text>
</a>
</g>
</g>
<!-- Node1&#45;&gt;Node6 -->
<g id="edge5" class="edge"><title>Node1&#45;&gt;Node6</title>
<path fill="none" stroke="midnightblue" d="M268.744,-112.083C261.535,-104.298 250.89,-92.8015 242.154,-83.3665"/>
<polygon fill="midnightblue" stroke="midnightblue" points="244.465,-80.7108 235.103,-75.7511 239.329,-85.4666 244.465,-80.7108"/>
</g>
<!-- Node8 -->
<g id="node8" class="node"><title>Node8</title>
<polygon fill="white" stroke="#bfbfbf" points="300,-56.5 300,-75.5 356,-75.5 356,-56.5 300,-56.5"/>
<text text-anchor="middle" x="328" y="-63.5" font-family="Helvetica,sans-Serif" font-size="10.00">algorithm</text>
</g>
<!-- Node1&#45;&gt;Node8 -->
<g id="edge7" class="edge"><title>Node1&#45;&gt;Node8</title>
<path fill="none" stroke="midnightblue" d="M285.422,-112.083C292.848,-104.22 303.852,-92.5688 312.812,-83.0813"/>
<polygon fill="midnightblue" stroke="midnightblue" points="315.413,-85.4244 319.735,-75.7511 310.324,-80.618 315.413,-85.4244"/>
</g>
<!-- Node9 -->
<g id="node9" class="node"><title>Node9</title>
<polygon fill="white" stroke="#bfbfbf" points="374,-56.5 374,-75.5 426,-75.5 426,-56.5 374,-56.5"/>
<text text-anchor="middle" x="400" y="-63.5" font-family="Helvetica,sans-Serif" font-size="10.00">assert.h</text>
</g>
<!-- Node1&#45;&gt;Node9 -->
<g id="edge8" class="edge"><title>Node1&#45;&gt;Node9</title>
<path fill="none" stroke="midnightblue" d="M296.49,-112.444C316.642,-103.596 348.323,-89.6875 371.331,-79.5865"/>
<polygon fill="midnightblue" stroke="midnightblue" points="372.852,-82.7411 380.601,-75.5164 370.038,-76.3316 372.852,-82.7411"/>
</g>
<!-- Node3 -->
<g id="node3" class="node"><title>Node3</title>
<polygon fill="white" stroke="#bfbfbf" points="0,-0.5 0,-19.5 46,-19.5 46,-0.5 0,-0.5"/>
<text text-anchor="middle" x="23" y="-7.5" font-family="Helvetica,sans-Serif" font-size="10.00">stdio.h</text>
</g>
<!-- Node2&#45;&gt;Node3 -->
<g id="edge2" class="edge"><title>Node2&#45;&gt;Node3</title>
<path fill="none" stroke="midnightblue" d="M80.914,-56.324C70.514,-48.1849 54.7394,-35.8395 42.2784,-26.0874"/>
<polygon fill="midnightblue" stroke="midnightblue" points="44.3199,-23.2407 34.2878,-19.8339 40.0057,-28.7533 44.3199,-23.2407"/>
</g>
<!-- Node4 -->
<g id="node4" class="node"><title>Node4</title>
<polygon fill="white" stroke="#bfbfbf" points="64.5,-0.5 64.5,-19.5 111.5,-19.5 111.5,-0.5 64.5,-0.5"/>
<text text-anchor="middle" x="88" y="-7.5" font-family="Helvetica,sans-Serif" font-size="10.00">math.h</text>
</g>
<!-- Node2&#45;&gt;Node4 -->
<g id="edge3" class="edge"><title>Node2&#45;&gt;Node4</title>
<path fill="none" stroke="midnightblue" d="M91.3395,-56.083C90.8152,-49.0059 90.0638,-38.8611 89.4064,-29.9865"/>
<polygon fill="midnightblue" stroke="midnightblue" points="92.8775,-29.4652 88.6482,-19.7511 85.8966,-29.9823 92.8775,-29.4652"/>
</g>
<!-- Node5 -->
<g id="node5" class="node"><title>Node5</title>
<polygon fill="white" stroke="#bfbfbf" points="130,-0.5 130,-19.5 178,-19.5 178,-0.5 130,-0.5"/>
<text text-anchor="middle" x="154" y="-7.5" font-family="Helvetica,sans-Serif" font-size="10.00">stdlib.h</text>
</g>
<!-- Node2&#45;&gt;Node5 -->
<g id="edge4" class="edge"><title>Node2&#45;&gt;Node5</title>
<path fill="none" stroke="midnightblue" d="M101.961,-56.324C111.127,-48.3414 124.937,-36.3128 136.028,-26.6529"/>
<polygon fill="midnightblue" stroke="midnightblue" points="138.615,-29.041 143.857,-19.8339 134.018,-23.7624 138.615,-29.041"/>
</g>
<!-- Node7 -->
<g id="node7" class="node"><title>Node7</title>
<polygon fill="white" stroke="#bfbfbf" points="196.5,-0.5 196.5,-19.5 265.5,-19.5 265.5,-0.5 196.5,-0.5"/>
<text text-anchor="middle" x="231" y="-7.5" font-family="Helvetica,sans-Serif" font-size="10.00">Eigen/Eigen</text>
</g>
<!-- Node6&#45;&gt;Node7 -->
<g id="edge6" class="edge"><title>Node6&#45;&gt;Node7</title>
<path fill="none" stroke="midnightblue" d="M227.661,-56.083C228.185,-49.0059 228.936,-38.8611 229.594,-29.9865"/>
<polygon fill="midnightblue" stroke="midnightblue" points="233.103,-29.9823 230.352,-19.7511 226.123,-29.4652 233.103,-29.9823"/>
</g>
</g>
</svg>
