<?xml version="1.0" encoding="UTF-8" standalone="no"?>
<!DOCTYPE svg PUBLIC "-//W3C//DTD SVG 1.1//EN"
 "http://www.w3.org/Graphics/SVG/1.1/DTD/svg11.dtd">
<!-- Generated by graphviz version 2.38.0 (20140413.2041)
 -->
<!-- Title: ocra::FullDynamicEquationFunction::Pimpl Pages: 1 -->
<svg width="1243pt" height="284pt"
 viewBox="0.00 0.00 1243.00 284.00" xmlns="http://www.w3.org/2000/svg" xmlns:xlink="http://www.w3.org/1999/xlink">
<g id="graph0" class="graph" transform="scale(1 1) rotate(0) translate(4 280)">
<title>ocra::FullDynamicEquationFunction::Pimpl</title>
<polygon fill="white" stroke="none" points="-4,4 -4,-280 1239,-280 1239,4 -4,4"/>
<!-- Node1 -->
<g id="node1" class="node"><title>Node1</title>
<polygon fill="#bfbfbf" stroke="black" points="1101,-115.5 1101,-145.5 1235,-145.5 1235,-115.5 1101,-115.5"/>
<text text-anchor="start" x="1109" y="-133.5" font-family="Helvetica,sans-Serif" font-size="10.00">ocra::FullDynamicEquation</text>
<text text-anchor="middle" x="1168" y="-122.5" font-family="Helvetica,sans-Serif" font-size="10.00">Function::Pimpl</text>
</g>
<!-- Node2 -->
<g id="node2" class="node"><title>Node2</title>
<g id="a_node2"><a xlink:href="../../d2/d7c/classocra_1_1CompositeVariable.html" target="_top" xlink:title="A concatenation of base variables and other composite variables. ">
<polygon fill="white" stroke="black" points="822,-217 822,-236 946,-236 946,-217 822,-217"/>
<text text-anchor="middle" x="884" y="-224" font-family="Helvetica,sans-Serif" font-size="10.00">ocra::CompositeVariable</text>
</a>
</g>
</g>
<!-- Node2&#45;&gt;Node1 -->
<g id="edge1" class="edge"><title>Node2&#45;&gt;Node1</title>
<path fill="none" stroke="#9a32cd" stroke-dasharray="5,2" d="M956.453,-221.159C995.099,-216.402 1042.97,-207.426 1083,-190.5 1108.92,-179.542 1134.64,-159.458 1150.66,-145.563"/>
<polygon fill="#9a32cd" stroke="#9a32cd" points="955.855,-217.705 946.326,-222.336 956.663,-224.658 955.855,-217.705"/>
<text text-anchor="middle" x="1023.5" y="-223.5" font-family="Helvetica,sans-Serif" font-size="10.00"> _chi</text>
</g>
<!-- Node3 -->
<g id="node3" class="node"><title>Node3</title>
<g id="a_node3"><a xlink:href="../../d7/d79/classocra_1_1Composite.html" target="_top" xlink:title="ocra::Composite\&lt; Variable,\l CompositeVariable, VariableParenthood \&gt;">
<polygon fill="white" stroke="black" points="583,-211.5 583,-241.5 785,-241.5 785,-211.5 583,-211.5"/>
<text text-anchor="start" x="591" y="-229.5" font-family="Helvetica,sans-Serif" font-size="10.00">ocra::Composite&lt; Variable,</text>
<text text-anchor="middle" x="684" y="-218.5" font-family="Helvetica,sans-Serif" font-size="10.00"> CompositeVariable, VariableParenthood &gt;</text>
</a>
</g>
</g>
<!-- Node3&#45;&gt;Node2 -->
<g id="edge2" class="edge"><title>Node3&#45;&gt;Node2</title>
<path fill="none" stroke="midnightblue" d="M795.445,-226.5C804.521,-226.5 813.467,-226.5 821.972,-226.5"/>
<polygon fill="midnightblue" stroke="midnightblue" points="795.16,-223 785.16,-226.5 795.16,-230 795.16,-223"/>
</g>
<!-- Node4 -->
<g id="node4" class="node"><title>Node4</title>
<g id="a_node4"><a xlink:href="../../d2/dac/classocra_1_1Variable.html" target="_top" xlink:title="This class represents a variable in a mathematical sense. ">
<polygon fill="white" stroke="black" points="645.5,-170 645.5,-189 722.5,-189 722.5,-170 645.5,-170"/>
<text text-anchor="middle" x="684" y="-177" font-family="Helvetica,sans-Serif" font-size="10.00">ocra::Variable</text>
</a>
</g>
</g>
<!-- Node4&#45;&gt;Node1 -->
<g id="edge21" class="edge"><title>Node4&#45;&gt;Node1</title>
<path fill="none" stroke="#9a32cd" stroke-dasharray="5,2" d="M732.766,-180.451C807.926,-181.119 958.108,-179.091 1083,-156.5 1096.97,-153.973 1111.88,-149.851 1125.19,-145.626"/>
<polygon fill="#9a32cd" stroke="#9a32cd" points="732.707,-176.951 722.669,-180.341 732.63,-183.95 732.707,-176.951"/>
<text text-anchor="middle" x="884" y="-194.5" font-family="Helvetica,sans-Serif" font-size="10.00"> _fc</text>
<text text-anchor="middle" x="884" y="-183.5" font-family="Helvetica,sans-Serif" font-size="10.00">_tau</text>
</g>
<!-- Node4&#45;&gt;Node2 -->
<g id="edge3" class="edge"><title>Node4&#45;&gt;Node2</title>
<path fill="none" stroke="midnightblue" d="M732.611,-189.636C749.216,-193.261 767.956,-197.452 785,-201.5 805.5,-206.368 828.315,-212.166 846.769,-216.952"/>
<polygon fill="midnightblue" stroke="midnightblue" points="733.097,-186.16 722.582,-187.459 731.611,-193.001 733.097,-186.16"/>
</g>
<!-- Node5 -->
<g id="node5" class="node"><title>Node5</title>
<g id="a_node5"><a xlink:href="../../d0/d29/classocra_1_1Component.html" target="_top" xlink:title="ocra::Component\&lt; Variable,\l CompositeVariable, VariableParenthood \&gt;">
<polygon fill="white" stroke="black" points="344,-144.5 344,-174.5 546,-174.5 546,-144.5 344,-144.5"/>
<text text-anchor="start" x="352" y="-162.5" font-family="Helvetica,sans-Serif" font-size="10.00">ocra::Component&lt; Variable,</text>
<text text-anchor="middle" x="445" y="-151.5" font-family="Helvetica,sans-Serif" font-size="10.00"> CompositeVariable, VariableParenthood &gt;</text>
</a>
</g>
</g>
<!-- Node5&#45;&gt;Node4 -->
<g id="edge4" class="edge"><title>Node5&#45;&gt;Node4</title>
<path fill="none" stroke="midnightblue" d="M556.506,-168.825C588.476,-171.523 621.224,-174.287 645.388,-176.326"/>
<polygon fill="midnightblue" stroke="midnightblue" points="556.425,-165.306 546.166,-167.953 555.836,-172.281 556.425,-165.306"/>
</g>
<!-- Node6 -->
<g id="node6" class="node"><title>Node6</title>
<g id="a_node6"><a xlink:href="../../d3/d16/classocra_1_1ObserverSubject.html" target="_top" xlink:title="ocra::ObserverSubject">
<polygon fill="white" stroke="black" points="388,-106 388,-125 502,-125 502,-106 388,-106"/>
<text text-anchor="middle" x="445" y="-113" font-family="Helvetica,sans-Serif" font-size="10.00">ocra::ObserverSubject</text>
</a>
</g>
</g>
<!-- Node6&#45;&gt;Node4 -->
<g id="edge5" class="edge"><title>Node6&#45;&gt;Node4</title>
<path fill="none" stroke="midnightblue" d="M511.998,-126.783C523.394,-129.089 535.082,-131.682 546,-134.5 585.391,-144.666 629.975,-160.058 657.288,-169.945"/>
<polygon fill="midnightblue" stroke="midnightblue" points="512.573,-123.329 502.085,-124.832 511.221,-130.197 512.573,-123.329"/>
</g>
<!-- Node18 -->
<g id="node18" class="node"><title>Node18</title>
<g id="a_node18"><a xlink:href="../../d4/d00/classocra_1_1Model.html" target="_top" xlink:title="Model class. ">
<polygon fill="white" stroke="black" points="650,-82 650,-101 718,-101 718,-82 650,-82"/>
<text text-anchor="middle" x="684" y="-89" font-family="Helvetica,sans-Serif" font-size="10.00">ocra::Model</text>
</a>
</g>
</g>
<!-- Node6&#45;&gt;Node18 -->
<g id="edge18" class="edge"><title>Node6&#45;&gt;Node18</title>
<path fill="none" stroke="midnightblue" d="M512.395,-108.776C557.205,-104.239 614.427,-98.4441 649.89,-94.8529"/>
<polygon fill="midnightblue" stroke="midnightblue" points="511.762,-105.323 502.166,-109.812 512.467,-112.287 511.762,-105.323"/>
</g>
<!-- Node7 -->
<g id="node7" class="node"><title>Node7</title>
<g id="a_node7"><a xlink:href="../../d2/d45/classocra_1_1Observer.html" target="_top" xlink:title="ocra::Observer">
<polygon fill="white" stroke="black" points="226,-177 226,-196 307,-196 307,-177 226,-177"/>
<text text-anchor="middle" x="266.5" y="-184" font-family="Helvetica,sans-Serif" font-size="10.00">ocra::Observer</text>
</a>
</g>
</g>
<!-- Node7&#45;&gt;Node6 -->
<g id="edge6" class="edge"><title>Node7&#45;&gt;Node6</title>
<path fill="none" stroke="midnightblue" d="M286.413,-170.374C301.164,-158.644 322.665,-143.329 344,-134.5 357.716,-128.824 373.198,-124.827 387.809,-122.018"/>
<polygon fill="midnightblue" stroke="midnightblue" points="284.09,-167.752 278.561,-176.79 288.519,-173.173 284.09,-167.752"/>
</g>
<!-- Node8 -->
<g id="node8" class="node"><title>Node8</title>
<g id="a_node8"><a xlink:href="../../d4/dee/classocra_1_1ObserverBase.html" target="_top" xlink:title="ocra::ObserverBase\l\&lt; EVT_RESIZE \&gt;">
<polygon fill="white" stroke="black" points="42.5,-245.5 42.5,-275.5 146.5,-275.5 146.5,-245.5 42.5,-245.5"/>
<text text-anchor="start" x="50.5" y="-263.5" font-family="Helvetica,sans-Serif" font-size="10.00">ocra::ObserverBase</text>
<text text-anchor="middle" x="94.5" y="-252.5" font-family="Helvetica,sans-Serif" font-size="10.00">&lt; EVT_RESIZE &gt;</text>
</a>
</g>
</g>
<!-- Node8&#45;&gt;Node7 -->
<g id="edge7" class="edge"><title>Node8&#45;&gt;Node7</title>
<path fill="none" stroke="midnightblue" d="M156.871,-247.002C167.777,-243.788 178.878,-239.966 189,-235.5 213.243,-224.805 238.613,-207.045 253.19,-196.098"/>
<polygon fill="midnightblue" stroke="midnightblue" points="155.628,-243.716 146.943,-249.785 157.517,-250.456 155.628,-243.716"/>
</g>
<!-- Node9 -->
<g id="node9" class="node"><title>Node9</title>
<g id="a_node9"><a xlink:href="../../d4/dee/classocra_1_1ObserverBase.html" target="_top" xlink:title="ocra::ObserverBase\l\&lt; EVT_CHANGE_DEPENDENCIES \&gt;">
<polygon fill="white" stroke="black" points="0,-196.5 0,-226.5 189,-226.5 189,-196.5 0,-196.5"/>
<text text-anchor="start" x="8" y="-214.5" font-family="Helvetica,sans-Serif" font-size="10.00">ocra::ObserverBase</text>
<text text-anchor="middle" x="94.5" y="-203.5" font-family="Helvetica,sans-Serif" font-size="10.00">&lt; EVT_CHANGE_DEPENDENCIES &gt;</text>
</a>
</g>
</g>
<!-- Node9&#45;&gt;Node7 -->
<g id="edge8" class="edge"><title>Node9&#45;&gt;Node7</title>
<path fill="none" stroke="midnightblue" d="M199.529,-196.202C208.724,-194.849 217.605,-193.543 225.713,-192.351"/>
<polygon fill="midnightblue" stroke="midnightblue" points="198.834,-192.766 189.45,-197.684 199.853,-199.692 198.834,-192.766"/>
</g>
<!-- Node10 -->
<g id="node10" class="node"><title>Node10</title>
<g id="a_node10"><a xlink:href="../../d4/dee/classocra_1_1ObserverBase.html" target="_top" xlink:title="ocra::ObserverBase\l\&lt; EVT_CHANGE_VALUE \&gt;">
<polygon fill="white" stroke="black" points="24,-147.5 24,-177.5 165,-177.5 165,-147.5 24,-147.5"/>
<text text-anchor="start" x="32" y="-165.5" font-family="Helvetica,sans-Serif" font-size="10.00">ocra::ObserverBase</text>
<text text-anchor="middle" x="94.5" y="-154.5" font-family="Helvetica,sans-Serif" font-size="10.00">&lt; EVT_CHANGE_VALUE &gt;</text>
</a>
</g>
</g>
<!-- Node10&#45;&gt;Node7 -->
<g id="edge9" class="edge"><title>Node10&#45;&gt;Node7</title>
<path fill="none" stroke="midnightblue" d="M175.415,-173.782C192.968,-176.26 210.811,-178.779 225.936,-180.914"/>
<polygon fill="midnightblue" stroke="midnightblue" points="175.527,-170.263 165.136,-172.331 174.549,-177.195 175.527,-170.263"/>
</g>
<!-- Node11 -->
<g id="node11" class="node"><title>Node11</title>
<g id="a_node11"><a xlink:href="../../dc/d77/classocra_1_1Subject.html" target="_top" xlink:title="ocra::Subject">
<polygon fill="white" stroke="black" points="229.5,-76 229.5,-95 303.5,-95 303.5,-76 229.5,-76"/>
<text text-anchor="middle" x="266.5" y="-83" font-family="Helvetica,sans-Serif" font-size="10.00">ocra::Subject</text>
</a>
</g>
</g>
<!-- Node11&#45;&gt;Node6 -->
<g id="edge10" class="edge"><title>Node11&#45;&gt;Node6</title>
<path fill="none" stroke="midnightblue" d="M313.732,-93.3581C336.501,-97.2283 364.139,-101.926 388.089,-105.997"/>
<polygon fill="midnightblue" stroke="midnightblue" points="314.088,-89.8686 303.643,-91.6433 312.915,-96.7696 314.088,-89.8686"/>
</g>
<!-- Node12 -->
<g id="node12" class="node"><title>Node12</title>
<g id="a_node12"><a xlink:href="../../dc/d29/classocra_1_1SubjectBase.html" target="_top" xlink:title="ocra::SubjectBase\&lt;\l EVT_RESIZE \&gt;">
<polygon fill="white" stroke="black" points="43,-98.5 43,-128.5 146,-128.5 146,-98.5 43,-98.5"/>
<text text-anchor="start" x="51" y="-116.5" font-family="Helvetica,sans-Serif" font-size="10.00">ocra::SubjectBase&lt;</text>
<text text-anchor="middle" x="94.5" y="-105.5" font-family="Helvetica,sans-Serif" font-size="10.00"> EVT_RESIZE &gt;</text>
</a>
</g>
</g>
<!-- Node12&#45;&gt;Node11 -->
<g id="edge11" class="edge"><title>Node12&#45;&gt;Node11</title>
<path fill="none" stroke="midnightblue" d="M156.006,-103.534C180.573,-99.4879 208.125,-94.9499 229.446,-91.4383"/>
<polygon fill="midnightblue" stroke="midnightblue" points="155.344,-100.096 146.045,-105.175 156.481,-107.003 155.344,-100.096"/>
</g>
<!-- Node13 -->
<g id="node13" class="node"><title>Node13</title>
<g id="a_node13"><a xlink:href="../../dc/d29/classocra_1_1SubjectBase.html" target="_top" xlink:title="ocra::SubjectBase\&lt;\l EVT_CHANGE_DEPENDENCIES \&gt;">
<polygon fill="white" stroke="black" points="3,-49.5 3,-79.5 186,-79.5 186,-49.5 3,-49.5"/>
<text text-anchor="start" x="11" y="-67.5" font-family="Helvetica,sans-Serif" font-size="10.00">ocra::SubjectBase&lt;</text>
<text text-anchor="middle" x="94.5" y="-56.5" font-family="Helvetica,sans-Serif" font-size="10.00"> EVT_CHANGE_DEPENDENCIES &gt;</text>
</a>
</g>
</g>
<!-- Node13&#45;&gt;Node11 -->
<g id="edge12" class="edge"><title>Node13&#45;&gt;Node11</title>
<path fill="none" stroke="midnightblue" d="M196.712,-77.0027C208.269,-78.4303 219.411,-79.8066 229.239,-81.0207"/>
<polygon fill="midnightblue" stroke="midnightblue" points="196.826,-73.4902 186.472,-75.7377 195.968,-80.4374 196.826,-73.4902"/>
</g>
<!-- Node14 -->
<g id="node14" class="node"><title>Node14</title>
<g id="a_node14"><a xlink:href="../../dc/d29/classocra_1_1SubjectBase.html" target="_top" xlink:title="ocra::SubjectBase\&lt;\l EVT_CHANGE_VALUE \&gt;">
<polygon fill="white" stroke="black" points="27,-0.5 27,-30.5 162,-30.5 162,-0.5 27,-0.5"/>
<text text-anchor="start" x="35" y="-18.5" font-family="Helvetica,sans-Serif" font-size="10.00">ocra::SubjectBase&lt;</text>
<text text-anchor="middle" x="94.5" y="-7.5" font-family="Helvetica,sans-Serif" font-size="10.00"> EVT_CHANGE_VALUE &gt;</text>
</a>
</g>
</g>
<!-- Node14&#45;&gt;Node11 -->
<g id="edge13" class="edge"><title>Node14&#45;&gt;Node11</title>
<path fill="none" stroke="midnightblue" d="M172.021,-33.1758C177.834,-35.1139 183.553,-37.2206 189,-39.5 212.589,-49.371 237.55,-65.627 252.315,-75.9367"/>
<polygon fill="midnightblue" stroke="midnightblue" points="172.771,-29.7425 162.182,-30.0722 170.666,-36.4183 172.771,-29.7425"/>
</g>
<!-- Node15 -->
<g id="node15" class="node"><title>Node15</title>
<polygon fill="white" stroke="#bfbfbf" points="409.5,-243 409.5,-262 480.5,-262 480.5,-243 409.5,-243"/>
<text text-anchor="middle" x="445" y="-250" font-family="Helvetica,sans-Serif" font-size="10.00">noncopyable</text>
</g>
<!-- Node15&#45;&gt;Node4 -->
<g id="edge14" class="edge"><title>Node15&#45;&gt;Node4</title>
<path fill="none" stroke="#8b1a1a" d="M490.587,-248.43C508.459,-245.579 528.84,-240.734 546,-232.5 565.342,-223.219 563.748,-210.966 583,-201.5 602.462,-191.931 626.085,-186.486 645.484,-183.408"/>
<polygon fill="#8b1a1a" stroke="#8b1a1a" points="490.077,-244.967 480.676,-249.853 491.072,-251.896 490.077,-244.967"/>
</g>
<!-- Node16 -->
<g id="node16" class="node"><title>Node16</title>
<g id="a_node16"><a xlink:href="../../dc/d20/classocra_1_1VariableHasRestrictedClassDerivation.html" target="_top" xlink:title="ocra::VariableHasRestricted\lClassDerivation">
<polygon fill="white" stroke="black" points="375,-193.5 375,-223.5 515,-223.5 515,-193.5 375,-193.5"/>
<text text-anchor="start" x="383" y="-211.5" font-family="Helvetica,sans-Serif" font-size="10.00">ocra::VariableHasRestricted</text>
<text text-anchor="middle" x="445" y="-200.5" font-family="Helvetica,sans-Serif" font-size="10.00">ClassDerivation</text>
</a>
</g>
</g>
<!-- Node16&#45;&gt;Node4 -->
<g id="edge15" class="edge"><title>Node16&#45;&gt;Node4</title>
<path fill="none" stroke="#8b1a1a" d="M525.321,-198.794C565.818,-193.839 613.193,-188.042 645.364,-184.105"/>
<polygon fill="#8b1a1a" stroke="#8b1a1a" points="524.688,-195.345 515.187,-200.034 525.538,-202.293 524.688,-195.345"/>
</g>
<!-- Node17 -->
<g id="node17" class="node"><title>Node17</title>
<polygon fill="white" stroke="#bfbfbf" points="855.5,-121 855.5,-140 912.5,-140 912.5,-121 855.5,-121"/>
<text text-anchor="middle" x="884" y="-128" font-family="Helvetica,sans-Serif" font-size="10.00">VectorXd</text>
</g>
<!-- Node17&#45;&gt;Node1 -->
<g id="edge16" class="edge"><title>Node17&#45;&gt;Node1</title>
<path fill="none" stroke="#9a32cd" stroke-dasharray="5,2" d="M922.574,-130.5C968.048,-130.5 1045.42,-130.5 1100.94,-130.5"/>
<polygon fill="#9a32cd" stroke="#9a32cd" points="922.553,-127 912.553,-130.5 922.553,-134 922.553,-127"/>
<text text-anchor="start" x="969.5" y="-144.5" font-family="Helvetica,sans-Serif" font-size="10.00"> _InertiaMatrixInverseLin</text>
<text text-anchor="middle" x="1023.5" y="-133.5" font-family="Helvetica,sans-Serif" font-size="10.00">NonLinGrav</text>
</g>
<!-- Node18&#45;&gt;Node1 -->
<g id="edge17" class="edge"><title>Node18&#45;&gt;Node1</title>
<path fill="none" stroke="#9a32cd" stroke-dasharray="5,2" d="M728.183,-91.663C780.008,-92.1648 869.5,-94.0053 946,-100.5 998.277,-104.938 1057.13,-113.083 1100.95,-119.767"/>
<polygon fill="#9a32cd" stroke="#9a32cd" points="728.053,-88.1619 718.024,-91.5773 727.994,-95.1616 728.053,-88.1619"/>
<text text-anchor="middle" x="884" y="-103.5" font-family="Helvetica,sans-Serif" font-size="10.00"> _model</text>
</g>
<!-- Node19 -->
<g id="node19" class="node"><title>Node19</title>
<g id="a_node19"><a xlink:href="../../db/de3/classocra_1_1NamedInstance.html" target="_top" xlink:title="ocra::NamedInstance">
<polygon fill="white" stroke="black" points="390,-68 390,-87 500,-87 500,-68 390,-68"/>
<text text-anchor="middle" x="445" y="-75" font-family="Helvetica,sans-Serif" font-size="10.00">ocra::NamedInstance</text>
</a>
</g>
</g>
<!-- Node19&#45;&gt;Node18 -->
<g id="edge19" class="edge"><title>Node19&#45;&gt;Node18</title>
<path fill="none" stroke="midnightblue" d="M510.078,-81.2852C555.254,-83.9538 613.909,-87.4187 649.979,-89.5494"/>
<polygon fill="midnightblue" stroke="midnightblue" points="510.265,-77.7902 500.076,-80.6943 509.852,-84.778 510.265,-77.7902"/>
</g>
<!-- Node20 -->
<g id="node20" class="node"><title>Node20</title>
<polygon fill="white" stroke="#bfbfbf" points="856,-36 856,-55 912,-55 912,-36 856,-36"/>
<text text-anchor="middle" x="884" y="-43" font-family="Helvetica,sans-Serif" font-size="10.00">MatrixXd</text>
</g>
<!-- Node20&#45;&gt;Node1 -->
<g id="edge20" class="edge"><title>Node20&#45;&gt;Node1</title>
<path fill="none" stroke="#9a32cd" stroke-dasharray="5,2" d="M922.084,-43.5889C962.963,-42.7928 1029.96,-45.4141 1083,-66.5 1110.6,-77.4717 1136.91,-100.186 1152.5,-115.388"/>
<polygon fill="#9a32cd" stroke="#9a32cd" points="921.929,-40.0917 912.029,-43.8645 922.121,-47.0891 921.929,-40.0917"/>
<text text-anchor="middle" x="1023.5" y="-69.5" font-family="Helvetica,sans-Serif" font-size="10.00"> _InertiaMatrixInverseJchiT</text>
</g>
</g>
</svg>
