<?xml version="1.0" encoding="UTF-8" standalone="no"?>
<!DOCTYPE svg PUBLIC "-//W3C//DTD SVG 1.1//EN"
 "http://www.w3.org/Graphics/SVG/1.1/DTD/svg11.dtd">
<!-- Generated by graphviz version 2.38.0 (20140413.2041)
 -->
<!-- Title: CascadeQP.h Pages: 1 -->
<svg width="503pt" height="196pt"
 viewBox="0.00 0.00 502.50 196.00" xmlns="http://www.w3.org/2000/svg" xmlns:xlink="http://www.w3.org/1999/xlink">
<g id="graph0" class="graph" transform="scale(1 1) rotate(0) translate(4 192)">
<title>CascadeQP.h</title>
<polygon fill="white" stroke="none" points="-4,4 -4,-192 498.5,-192 498.5,4 -4,4"/>
<!-- Node1 -->
<g id="node1" class="node"><title>Node1</title>
<polygon fill="#bfbfbf" stroke="black" points="310.5,-168.5 310.5,-187.5 388.5,-187.5 388.5,-168.5 310.5,-168.5"/>
<text text-anchor="middle" x="349.5" y="-175.5" font-family="Helvetica,sans-Serif" font-size="10.00">CascadeQP.h</text>
</g>
<!-- Node2 -->
<g id="node2" class="node"><title>Node2</title>
<g id="a_node2"><a xlink:href="../../d5/de8/CascadeQPStructures_8h.html" target="_top" xlink:title="Declaration file of the structures needed in CascadeQP. ">
<polygon fill="white" stroke="black" points="107.5,-112.5 107.5,-131.5 279.5,-131.5 279.5,-112.5 107.5,-112.5"/>
<text text-anchor="middle" x="193.5" y="-119.5" font-family="Helvetica,sans-Serif" font-size="10.00">ocra/optim/CascadeQPStructures.h</text>
</a>
</g>
</g>
<!-- Node1&#45;&gt;Node2 -->
<g id="edge1" class="edge"><title>Node1&#45;&gt;Node2</title>
<path fill="none" stroke="midnightblue" d="M324.781,-168.444C298.652,-159.399 257.241,-145.064 227.924,-134.916"/>
<polygon fill="midnightblue" stroke="midnightblue" points="228.698,-131.48 218.103,-131.516 226.408,-138.095 228.698,-131.48"/>
</g>
<!-- Node7 -->
<g id="node7" class="node"><title>Node7</title>
<polygon fill="white" stroke="#bfbfbf" points="229.5,-0.5 229.5,-19.5 281.5,-19.5 281.5,-0.5 229.5,-0.5"/>
<text text-anchor="middle" x="255.5" y="-7.5" font-family="Helvetica,sans-Serif" font-size="10.00">memory</text>
</g>
<!-- Node1&#45;&gt;Node7 -->
<g id="edge8" class="edge"><title>Node1&#45;&gt;Node7</title>
<path fill="none" stroke="midnightblue" d="M347.886,-168.426C343.673,-147.661 330.873,-93.6193 305.5,-56 297.722,-44.4677 286.358,-33.9252 276.428,-25.9479"/>
<polygon fill="midnightblue" stroke="midnightblue" points="278.264,-22.9446 268.198,-19.6376 274.004,-28.4998 278.264,-22.9446"/>
</g>
<!-- Node9 -->
<g id="node9" class="node"><title>Node9</title>
<polygon fill="white" stroke="#bfbfbf" points="352.5,-112.5 352.5,-131.5 396.5,-131.5 396.5,-112.5 352.5,-112.5"/>
<text text-anchor="middle" x="374.5" y="-119.5" font-family="Helvetica,sans-Serif" font-size="10.00">vector</text>
</g>
<!-- Node1&#45;&gt;Node9 -->
<g id="edge9" class="edge"><title>Node1&#45;&gt;Node9</title>
<path fill="none" stroke="midnightblue" d="M353.628,-168.083C357.014,-160.77 361.916,-150.181 366.119,-141.103"/>
<polygon fill="midnightblue" stroke="midnightblue" points="369.423,-142.296 370.449,-131.751 363.071,-139.355 369.423,-142.296"/>
</g>
<!-- Node10 -->
<g id="node10" class="node"><title>Node10</title>
<polygon fill="white" stroke="#bfbfbf" points="414.5,-112.5 414.5,-131.5 494.5,-131.5 494.5,-112.5 414.5,-112.5"/>
<text text-anchor="middle" x="454.5" y="-119.5" font-family="Helvetica,sans-Serif" font-size="10.00">qpOASES.hpp</text>
</g>
<!-- Node1&#45;&gt;Node10 -->
<g id="edge10" class="edge"><title>Node1&#45;&gt;Node10</title>
<path fill="none" stroke="midnightblue" d="M366.37,-168.324C383.209,-159.664 409.307,-146.242 428.738,-136.249"/>
<polygon fill="midnightblue" stroke="midnightblue" points="430.38,-139.341 437.672,-131.655 427.178,-133.116 430.38,-139.341"/>
</g>
<!-- Node3 -->
<g id="node3" class="node"><title>Node3</title>
<g id="a_node3"><a xlink:href="../../d5/d55/MathTypes_8h.html" target="_top" xlink:title="Declaration file of the OptimizationVariable class. ">
<polygon fill="white" stroke="black" points="0,-56.5 0,-75.5 111,-75.5 111,-56.5 0,-56.5"/>
<text text-anchor="middle" x="55.5" y="-63.5" font-family="Helvetica,sans-Serif" font-size="10.00">ocra/util/MathTypes.h</text>
</a>
</g>
</g>
<!-- Node2&#45;&gt;Node3 -->
<g id="edge2" class="edge"><title>Node2&#45;&gt;Node3</title>
<path fill="none" stroke="midnightblue" d="M171.633,-112.444C148.721,-103.478 112.525,-89.314 86.6335,-79.1827"/>
<polygon fill="midnightblue" stroke="midnightblue" points="87.8521,-75.9011 77.2642,-75.5164 85.3012,-82.4198 87.8521,-75.9011"/>
</g>
<!-- Node6 -->
<g id="node6" class="node"><title>Node6</title>
<g id="a_node6"><a xlink:href="../../df/d0a/Macros_8h.html" target="_top" xlink:title="ocra/util/Macros.h">
<polygon fill="white" stroke="black" points="129,-56.5 129,-75.5 224,-75.5 224,-56.5 129,-56.5"/>
<text text-anchor="middle" x="176.5" y="-63.5" font-family="Helvetica,sans-Serif" font-size="10.00">ocra/util/Macros.h</text>
</a>
</g>
</g>
<!-- Node2&#45;&gt;Node6 -->
<g id="edge5" class="edge"><title>Node2&#45;&gt;Node6</title>
<path fill="none" stroke="midnightblue" d="M190.693,-112.083C188.415,-104.849 185.129,-94.4087 182.292,-85.3968"/>
<polygon fill="midnightblue" stroke="midnightblue" points="185.596,-84.2385 179.255,-75.7511 178.919,-86.3406 185.596,-84.2385"/>
</g>
<!-- Node8 -->
<g id="node8" class="node"><title>Node8</title>
<polygon fill="white" stroke="#bfbfbf" points="242.5,-56.5 242.5,-75.5 296.5,-75.5 296.5,-56.5 242.5,-56.5"/>
<text text-anchor="middle" x="269.5" y="-63.5" font-family="Helvetica,sans-Serif" font-size="10.00">iostream</text>
</g>
<!-- Node2&#45;&gt;Node8 -->
<g id="edge7" class="edge"><title>Node2&#45;&gt;Node8</title>
<path fill="none" stroke="midnightblue" d="M205.711,-112.324C217.276,-104.107 234.875,-91.6017 248.661,-81.8069"/>
<polygon fill="midnightblue" stroke="midnightblue" points="250.943,-84.4791 257.067,-75.8339 246.888,-78.7729 250.943,-84.4791"/>
</g>
<!-- Node4 -->
<g id="node4" class="node"><title>Node4</title>
<polygon fill="white" stroke="#bfbfbf" points="8,-0.5 8,-19.5 81,-19.5 81,-0.5 8,-0.5"/>
<text text-anchor="middle" x="44.5" y="-7.5" font-family="Helvetica,sans-Serif" font-size="10.00">Eigen/Dense</text>
</g>
<!-- Node3&#45;&gt;Node4 -->
<g id="edge3" class="edge"><title>Node3&#45;&gt;Node4</title>
<path fill="none" stroke="midnightblue" d="M53.6836,-56.083C52.2259,-48.9272 50.1294,-38.6353 48.3075,-29.6911"/>
<polygon fill="midnightblue" stroke="midnightblue" points="51.7083,-28.8512 46.2826,-19.7511 44.8492,-30.2485 51.7083,-28.8512"/>
</g>
<!-- Node5 -->
<g id="node5" class="node"><title>Node5</title>
<polygon fill="white" stroke="#bfbfbf" points="99.5,-0.5 99.5,-19.5 143.5,-19.5 143.5,-0.5 99.5,-0.5"/>
<text text-anchor="middle" x="121.5" y="-7.5" font-family="Helvetica,sans-Serif" font-size="10.00">cmath</text>
</g>
<!-- Node3&#45;&gt;Node5 -->
<g id="edge4" class="edge"><title>Node3&#45;&gt;Node5</title>
<path fill="none" stroke="midnightblue" d="M66.104,-56.324C75.9562,-48.2631 90.8509,-36.0765 102.715,-26.3695"/>
<polygon fill="midnightblue" stroke="midnightblue" points="105.18,-28.8752 110.703,-19.8339 100.747,-23.4575 105.18,-28.8752"/>
</g>
<!-- Node6&#45;&gt;Node7 -->
<g id="edge6" class="edge"><title>Node6&#45;&gt;Node7</title>
<path fill="none" stroke="midnightblue" d="M189.193,-56.324C201.401,-47.979 220.078,-35.2122 234.503,-25.3524"/>
<polygon fill="midnightblue" stroke="midnightblue" points="236.558,-28.1871 242.839,-19.6545 232.608,-22.4082 236.558,-28.1871"/>
</g>
</g>
</svg>
