<?xml version="1.0" encoding="UTF-8" standalone="no"?>
<!DOCTYPE svg PUBLIC "-//W3C//DTD SVG 1.1//EN"
 "http://www.w3.org/Graphics/SVG/1.1/DTD/svg11.dtd">
<!-- Generated by graphviz version 2.38.0 (20140413.2041)
 -->
<!-- Title: ocra::FullContactAvoidanceFunction Pages: 1 -->
<svg width="1141pt" height="359pt"
 viewBox="0.00 0.00 1141.00 358.50" xmlns="http://www.w3.org/2000/svg" xmlns:xlink="http://www.w3.org/1999/xlink">
<g id="graph0" class="graph" transform="scale(1 1) rotate(0) translate(4 354.5)">
<title>ocra::FullContactAvoidanceFunction</title>
<polygon fill="white" stroke="none" points="-4,4 -4,-354.5 1137,-354.5 1137,4 -4,4"/>
<!-- Node1 -->
<g id="node1" class="node"><title>Node1</title>
<polygon fill="#bfbfbf" stroke="black" points="996,-93 996,-123 1133,-123 1133,-93 996,-93"/>
<text text-anchor="start" x="1004" y="-111" font-family="Helvetica,sans-Serif" font-size="10.00">ocra::FullContactAvoidance</text>
<text text-anchor="middle" x="1064.5" y="-100" font-family="Helvetica,sans-Serif" font-size="10.00">Function</text>
</g>
<!-- Node2 -->
<g id="node2" class="node"><title>Node2</title>
<g id="a_node2"><a xlink:href="../../d4/d45/classocra_1_1ContactAvoidanceFunction.html" target="_top" xlink:title="Create a linear function that represents the joint limit function. ">
<polygon fill="white" stroke="black" points="801,-98.5 801,-117.5 960,-117.5 960,-98.5 801,-98.5"/>
<text text-anchor="middle" x="880.5" y="-105.5" font-family="Helvetica,sans-Serif" font-size="10.00">ocra::ContactAvoidanceFunction</text>
</a>
</g>
</g>
<!-- Node2&#45;&gt;Node1 -->
<g id="edge1" class="edge"><title>Node2&#45;&gt;Node1</title>
<path fill="none" stroke="midnightblue" d="M970.121,-108C978.766,-108 987.439,-108 995.829,-108"/>
<polygon fill="midnightblue" stroke="midnightblue" points="970.005,-104.5 960.005,-108 970.005,-111.5 970.005,-104.5"/>
</g>
<!-- Node3 -->
<g id="node3" class="node"><title>Node3</title>
<g id="a_node3"><a xlink:href="../../de/d3a/classocra_1_1LinearFunction.html" target="_top" xlink:title="LinearFunction class. ">
<polygon fill="white" stroke="black" points="660,-98.5 660,-117.5 765,-117.5 765,-98.5 660,-98.5"/>
<text text-anchor="middle" x="712.5" y="-105.5" font-family="Helvetica,sans-Serif" font-size="10.00">ocra::LinearFunction</text>
</a>
</g>
</g>
<!-- Node3&#45;&gt;Node2 -->
<g id="edge2" class="edge"><title>Node3&#45;&gt;Node2</title>
<path fill="none" stroke="midnightblue" d="M775.139,-108C783.505,-108 792.182,-108 800.797,-108"/>
<polygon fill="midnightblue" stroke="midnightblue" points="775.114,-104.5 765.113,-108 775.113,-111.5 775.114,-104.5"/>
</g>
<!-- Node4 -->
<g id="node4" class="node"><title>Node4</title>
<g id="a_node4"><a xlink:href="../../d2/d99/classocra_1_1Function.html" target="_top" xlink:title="Function class. ">
<polygon fill="white" stroke="black" points="545,-98.5 545,-117.5 624,-117.5 624,-98.5 545,-98.5"/>
<text text-anchor="middle" x="584.5" y="-105.5" font-family="Helvetica,sans-Serif" font-size="10.00">ocra::Function</text>
</a>
</g>
</g>
<!-- Node4&#45;&gt;Node3 -->
<g id="edge3" class="edge"><title>Node4&#45;&gt;Node3</title>
<path fill="none" stroke="midnightblue" d="M634.519,-108C642.737,-108 651.29,-108 659.579,-108"/>
<polygon fill="midnightblue" stroke="midnightblue" points="634.332,-104.5 624.332,-108 634.332,-111.5 634.332,-104.5"/>
</g>
<!-- Node5 -->
<g id="node5" class="node"><title>Node5</title>
<g id="a_node5"><a xlink:href="../../d3/d16/classocra_1_1ObserverSubject.html" target="_top" xlink:title="ocra::ObserverSubject">
<polygon fill="white" stroke="black" points="368.5,-202.5 368.5,-221.5 482.5,-221.5 482.5,-202.5 368.5,-202.5"/>
<text text-anchor="middle" x="425.5" y="-209.5" font-family="Helvetica,sans-Serif" font-size="10.00">ocra::ObserverSubject</text>
</a>
</g>
</g>
<!-- Node5&#45;&gt;Node4 -->
<g id="edge4" class="edge"><title>Node5&#45;&gt;Node4</title>
<path fill="none" stroke="midnightblue" d="M492.657,-200.746C498.372,-198.6 503.908,-196.043 509,-193 541.339,-173.67 567.076,-135.523 577.923,-117.657"/>
<polygon fill="midnightblue" stroke="midnightblue" points="491.301,-197.508 482.918,-203.986 493.511,-204.15 491.301,-197.508"/>
</g>
<!-- Node6 -->
<g id="node6" class="node"><title>Node6</title>
<g id="a_node6"><a xlink:href="../../d2/d45/classocra_1_1Observer.html" target="_top" xlink:title="ocra::Observer">
<polygon fill="white" stroke="black" points="225,-251.5 225,-270.5 306,-270.5 306,-251.5 225,-251.5"/>
<text text-anchor="middle" x="265.5" y="-258.5" font-family="Helvetica,sans-Serif" font-size="10.00">ocra::Observer</text>
</a>
</g>
</g>
<!-- Node6&#45;&gt;Node5 -->
<g id="edge5" class="edge"><title>Node6&#45;&gt;Node5</title>
<path fill="none" stroke="midnightblue" d="M306.903,-248.47C333.937,-240.086 368.965,-229.223 393.739,-221.54"/>
<polygon fill="midnightblue" stroke="midnightblue" points="305.854,-245.131 297.339,-251.436 307.927,-251.817 305.854,-245.131"/>
</g>
<!-- Node7 -->
<g id="node7" class="node"><title>Node7</title>
<g id="a_node7"><a xlink:href="../../d4/dee/classocra_1_1ObserverBase.html" target="_top" xlink:title="ocra::ObserverBase\l\&lt; EVT_RESIZE \&gt;">
<polygon fill="white" stroke="black" points="42.5,-320 42.5,-350 146.5,-350 146.5,-320 42.5,-320"/>
<text text-anchor="start" x="50.5" y="-338" font-family="Helvetica,sans-Serif" font-size="10.00">ocra::ObserverBase</text>
<text text-anchor="middle" x="94.5" y="-327" font-family="Helvetica,sans-Serif" font-size="10.00">&lt; EVT_RESIZE &gt;</text>
</a>
</g>
</g>
<!-- Node7&#45;&gt;Node6 -->
<g id="edge6" class="edge"><title>Node7&#45;&gt;Node6</title>
<path fill="none" stroke="midnightblue" d="M156.217,-322.567C167.347,-319.409 178.694,-315.579 189,-311 213.137,-300.276 238.109,-282.094 252.426,-270.861"/>
<polygon fill="midnightblue" stroke="midnightblue" points="155.272,-319.196 146.523,-325.171 157.089,-325.957 155.272,-319.196"/>
</g>
<!-- Node8 -->
<g id="node8" class="node"><title>Node8</title>
<g id="a_node8"><a xlink:href="../../d4/dee/classocra_1_1ObserverBase.html" target="_top" xlink:title="ocra::ObserverBase\l\&lt; EVT_CHANGE_DEPENDENCIES \&gt;">
<polygon fill="white" stroke="black" points="0,-271 0,-301 189,-301 189,-271 0,-271"/>
<text text-anchor="start" x="8" y="-289" font-family="Helvetica,sans-Serif" font-size="10.00">ocra::ObserverBase</text>
<text text-anchor="middle" x="94.5" y="-278" font-family="Helvetica,sans-Serif" font-size="10.00">&lt; EVT_CHANGE_DEPENDENCIES &gt;</text>
</a>
</g>
</g>
<!-- Node8&#45;&gt;Node6 -->
<g id="edge7" class="edge"><title>Node8&#45;&gt;Node6</title>
<path fill="none" stroke="midnightblue" d="M199.526,-270.611C208.41,-269.297 216.989,-268.028 224.84,-266.867"/>
<polygon fill="midnightblue" stroke="midnightblue" points="198.77,-267.185 189.39,-272.111 199.795,-274.11 198.77,-267.185"/>
</g>
<!-- Node9 -->
<g id="node9" class="node"><title>Node9</title>
<g id="a_node9"><a xlink:href="../../d4/dee/classocra_1_1ObserverBase.html" target="_top" xlink:title="ocra::ObserverBase\l\&lt; EVT_CHANGE_VALUE \&gt;">
<polygon fill="white" stroke="black" points="24,-222 24,-252 165,-252 165,-222 24,-222"/>
<text text-anchor="start" x="32" y="-240" font-family="Helvetica,sans-Serif" font-size="10.00">ocra::ObserverBase</text>
<text text-anchor="middle" x="94.5" y="-229" font-family="Helvetica,sans-Serif" font-size="10.00">&lt; EVT_CHANGE_VALUE &gt;</text>
</a>
</g>
</g>
<!-- Node9&#45;&gt;Node6 -->
<g id="edge8" class="edge"><title>Node9&#45;&gt;Node6</title>
<path fill="none" stroke="midnightblue" d="M175.313,-248.334C192.551,-250.782 210.051,-253.268 224.93,-255.381"/>
<polygon fill="midnightblue" stroke="midnightblue" points="175.607,-244.841 165.214,-246.9 174.623,-251.772 175.607,-244.841"/>
</g>
<!-- Node10 -->
<g id="node10" class="node"><title>Node10</title>
<g id="a_node10"><a xlink:href="../../dc/d77/classocra_1_1Subject.html" target="_top" xlink:title="ocra::Subject">
<polygon fill="white" stroke="black" points="228.5,-153.5 228.5,-172.5 302.5,-172.5 302.5,-153.5 228.5,-153.5"/>
<text text-anchor="middle" x="265.5" y="-160.5" font-family="Helvetica,sans-Serif" font-size="10.00">ocra::Subject</text>
</a>
</g>
</g>
<!-- Node10&#45;&gt;Node5 -->
<g id="edge9" class="edge"><title>Node10&#45;&gt;Node5</title>
<path fill="none" stroke="midnightblue" d="M297.324,-176.478C310.861,-182.075 327.048,-188.337 342,-193 353.365,-196.544 365.798,-199.748 377.485,-202.471"/>
<polygon fill="midnightblue" stroke="midnightblue" points="298.566,-173.203 287.991,-172.552 295.852,-179.656 298.566,-173.203"/>
</g>
<!-- Node11 -->
<g id="node11" class="node"><title>Node11</title>
<g id="a_node11"><a xlink:href="../../dc/d29/classocra_1_1SubjectBase.html" target="_top" xlink:title="ocra::SubjectBase\&lt;\l EVT_RESIZE \&gt;">
<polygon fill="white" stroke="black" points="43,-173 43,-203 146,-203 146,-173 43,-173"/>
<text text-anchor="start" x="51" y="-191" font-family="Helvetica,sans-Serif" font-size="10.00">ocra::SubjectBase&lt;</text>
<text text-anchor="middle" x="94.5" y="-180" font-family="Helvetica,sans-Serif" font-size="10.00"> EVT_RESIZE &gt;</text>
</a>
</g>
</g>
<!-- Node11&#45;&gt;Node10 -->
<g id="edge10" class="edge"><title>Node11&#45;&gt;Node10</title>
<path fill="none" stroke="midnightblue" d="M156.345,-178.999C180.463,-175.432 207.377,-171.45 228.323,-168.352"/>
<polygon fill="midnightblue" stroke="midnightblue" points="155.586,-175.573 146.206,-180.499 156.61,-182.498 155.586,-175.573"/>
</g>
<!-- Node12 -->
<g id="node12" class="node"><title>Node12</title>
<g id="a_node12"><a xlink:href="../../dc/d29/classocra_1_1SubjectBase.html" target="_top" xlink:title="ocra::SubjectBase\&lt;\l EVT_CHANGE_DEPENDENCIES \&gt;">
<polygon fill="white" stroke="black" points="3,-124 3,-154 186,-154 186,-124 3,-124"/>
<text text-anchor="start" x="11" y="-142" font-family="Helvetica,sans-Serif" font-size="10.00">ocra::SubjectBase&lt;</text>
<text text-anchor="middle" x="94.5" y="-131" font-family="Helvetica,sans-Serif" font-size="10.00"> EVT_CHANGE_DEPENDENCIES &gt;</text>
</a>
</g>
</g>
<!-- Node12&#45;&gt;Node10 -->
<g id="edge11" class="edge"><title>Node12&#45;&gt;Node10</title>
<path fill="none" stroke="midnightblue" d="M196.458,-153.337C207.772,-154.944 218.677,-156.493 228.318,-157.862"/>
<polygon fill="midnightblue" stroke="midnightblue" points="196.824,-149.854 186.431,-151.913 195.84,-156.785 196.824,-149.854"/>
</g>
<!-- Node13 -->
<g id="node13" class="node"><title>Node13</title>
<g id="a_node13"><a xlink:href="../../dc/d29/classocra_1_1SubjectBase.html" target="_top" xlink:title="ocra::SubjectBase\&lt;\l EVT_CHANGE_VALUE \&gt;">
<polygon fill="white" stroke="black" points="27,-75 27,-105 162,-105 162,-75 27,-75"/>
<text text-anchor="start" x="35" y="-93" font-family="Helvetica,sans-Serif" font-size="10.00">ocra::SubjectBase&lt;</text>
<text text-anchor="middle" x="94.5" y="-82" font-family="Helvetica,sans-Serif" font-size="10.00"> EVT_CHANGE_VALUE &gt;</text>
</a>
</g>
</g>
<!-- Node13&#45;&gt;Node10 -->
<g id="edge12" class="edge"><title>Node13&#45;&gt;Node10</title>
<path fill="none" stroke="midnightblue" d="M172.11,-107.468C177.903,-109.453 183.593,-111.627 189,-114 213.04,-124.548 238.043,-142.354 252.391,-153.35"/>
<polygon fill="midnightblue" stroke="midnightblue" points="172.889,-104.042 162.297,-104.303 170.74,-110.704 172.889,-104.042"/>
</g>
<!-- Node14 -->
<g id="node14" class="node"><title>Node14</title>
<g id="a_node14"><a xlink:href="../../dd/d68/classocra_1_1IFunctionProperties.html" target="_top" xlink:title="ocra::IFunctionProperties">
<polygon fill="white" stroke="black" points="362.5,-164.5 362.5,-183.5 488.5,-183.5 488.5,-164.5 362.5,-164.5"/>
<text text-anchor="middle" x="425.5" y="-171.5" font-family="Helvetica,sans-Serif" font-size="10.00">ocra::IFunctionProperties</text>
</a>
</g>
</g>
<!-- Node14&#45;&gt;Node4 -->
<g id="edge13" class="edge"><title>Node14&#45;&gt;Node4</title>
<path fill="none" stroke="midnightblue" d="M486.939,-161.694C494.485,-159.477 502.002,-156.921 509,-154 532.145,-144.337 556.404,-128.021 570.725,-117.642"/>
<polygon fill="midnightblue" stroke="midnightblue" points="485.757,-158.39 477.045,-164.418 487.615,-165.138 485.757,-158.39"/>
</g>
<!-- Node15 -->
<g id="node15" class="node"><title>Node15</title>
<polygon fill="white" stroke="#bfbfbf" points="342,-115 342,-145 509,-145 509,-115 342,-115"/>
<text text-anchor="start" x="350" y="-133" font-family="Helvetica,sans-Serif" font-size="10.00">OCRA_FUNCTION_INTERFACE</text>
<text text-anchor="middle" x="425.5" y="-122" font-family="Helvetica,sans-Serif" font-size="10.00">_INHERITANCEpublic</text>
</g>
<!-- Node15&#45;&gt;Node4 -->
<g id="edge14" class="edge"><title>Node15&#45;&gt;Node4</title>
<path fill="none" stroke="#8b1a1a" d="M519.262,-117.001C528.157,-115.755 536.799,-114.544 544.71,-113.436"/>
<polygon fill="#8b1a1a" stroke="#8b1a1a" points="518.555,-113.566 509.138,-118.42 519.527,-120.498 518.555,-113.566"/>
</g>
<!-- Node16 -->
<g id="node16" class="node"><title>Node16</title>
<g id="a_node16"><a xlink:href="../../db/de3/classocra_1_1NamedInstance.html" target="_top" xlink:title="ocra::NamedInstance">
<polygon fill="white" stroke="black" points="370.5,-76.5 370.5,-95.5 480.5,-95.5 480.5,-76.5 370.5,-76.5"/>
<text text-anchor="middle" x="425.5" y="-83.5" font-family="Helvetica,sans-Serif" font-size="10.00">ocra::NamedInstance</text>
</a>
</g>
</g>
<!-- Node16&#45;&gt;Node4 -->
<g id="edge15" class="edge"><title>Node16&#45;&gt;Node4</title>
<path fill="none" stroke="midnightblue" d="M490.592,-94.981C508.951,-97.5537 528.4,-100.279 544.732,-102.568"/>
<polygon fill="midnightblue" stroke="midnightblue" points="490.919,-91.4928 480.53,-93.5712 489.948,-98.4251 490.919,-91.4928"/>
</g>
<!-- Node17 -->
<g id="node17" class="node"><title>Node17</title>
<g id="a_node17"><a xlink:href="../../d8/d24/classocra_1_1AbilitySet.html" target="_top" xlink:title="ocra::AbilitySet">
<polygon fill="white" stroke="black" points="384,-38.5 384,-57.5 467,-57.5 467,-38.5 384,-38.5"/>
<text text-anchor="middle" x="425.5" y="-45.5" font-family="Helvetica,sans-Serif" font-size="10.00">ocra::AbilitySet</text>
</a>
</g>
</g>
<!-- Node17&#45;&gt;Node4 -->
<g id="edge16" class="edge"><title>Node17&#45;&gt;Node4</title>
<path fill="none" stroke="midnightblue" d="M476.782,-57.2443C487.579,-59.873 498.803,-63.1065 509,-67 530.93,-75.373 554.357,-89.1612 568.963,-98.408"/>
<polygon fill="midnightblue" stroke="midnightblue" points="477.559,-53.8316 467.029,-54.9985 475.988,-60.6532 477.559,-53.8316"/>
</g>
<!-- Node18 -->
<g id="node18" class="node"><title>Node18</title>
<g id="a_node18"><a xlink:href="../../d5/dc0/classocra_1_1CoupledInputOutputSize.html" target="_top" xlink:title="ocra::CoupledInputOutputSize">
<polygon fill="white" stroke="black" points="351.5,-0.5 351.5,-19.5 499.5,-19.5 499.5,-0.5 351.5,-0.5"/>
<text text-anchor="middle" x="425.5" y="-7.5" font-family="Helvetica,sans-Serif" font-size="10.00">ocra::CoupledInputOutputSize</text>
</a>
</g>
</g>
<!-- Node18&#45;&gt;Node4 -->
<g id="edge17" class="edge"><title>Node18&#45;&gt;Node4</title>
<path fill="none" stroke="midnightblue" d="M496.654,-23.0415C500.939,-24.7844 505.093,-26.7602 509,-29 539.911,-46.7204 565.787,-81.3352 577.214,-98.2401"/>
<polygon fill="midnightblue" stroke="midnightblue" points="497.702,-19.6984 487.107,-19.5858 495.319,-26.2805 497.702,-19.6984"/>
</g>
</g>
</svg>
