<?xml version="1.0" encoding="UTF-8" standalone="no"?>
<!DOCTYPE svg PUBLIC "-//W3C//DTD SVG 1.1//EN"
 "http://www.w3.org/Graphics/SVG/1.1/DTD/svg11.dtd">
<!-- Generated by graphviz version 2.38.0 (20140413.2041)
 -->
<!-- Title: JointLimitConstraint.h Pages: 1 -->
<svg width="399pt" height="252pt"
 viewBox="0.00 0.00 398.50 252.00" xmlns="http://www.w3.org/2000/svg" xmlns:xlink="http://www.w3.org/1999/xlink">
<g id="graph0" class="graph" transform="scale(1 1) rotate(0) translate(4 248)">
<title>JointLimitConstraint.h</title>
<polygon fill="white" stroke="none" points="-4,4 -4,-248 394.5,-248 394.5,4 -4,4"/>
<!-- Node1 -->
<g id="node1" class="node"><title>Node1</title>
<polygon fill="#bfbfbf" stroke="black" points="68,-224.5 68,-243.5 180,-243.5 180,-224.5 68,-224.5"/>
<text text-anchor="middle" x="124" y="-231.5" font-family="Helvetica,sans-Serif" font-size="10.00">JointLimitConstraint.h</text>
</g>
<!-- Node2 -->
<g id="node2" class="node"><title>Node2</title>
<g id="a_node2"><a xlink:href="../../db/d5d/JointLimitConstraint_8cpp.html" target="_top" xlink:title="Implement joint limit constraint for wOcra controller. ">
<polygon fill="white" stroke="black" points="0,-168.5 0,-187.5 122,-187.5 122,-168.5 0,-168.5"/>
<text text-anchor="middle" x="61" y="-175.5" font-family="Helvetica,sans-Serif" font-size="10.00">JointLimitConstraint.cpp</text>
</a>
</g>
</g>
<!-- Node1&#45;&gt;Node2 -->
<g id="edge1" class="edge"><title>Node1&#45;&gt;Node2</title>
<path fill="none" stroke="midnightblue" d="M105.96,-217.537C94.7269,-207.909 80.6809,-195.869 71.3062,-187.834"/>
<polygon fill="midnightblue" stroke="midnightblue" points="104.008,-220.473 113.878,-224.324 108.563,-215.159 104.008,-220.473"/>
</g>
<!-- Node3 -->
<g id="node3" class="node"><title>Node3</title>
<g id="a_node3"><a xlink:href="../../db/dc6/WocraController_8h.html" target="_top" xlink:title="Define the LQP&#45;based controller developped during my PhD thesis with ocra framework. ">
<polygon fill="white" stroke="black" points="140.5,-168.5 140.5,-187.5 235.5,-187.5 235.5,-168.5 140.5,-168.5"/>
<text text-anchor="middle" x="188" y="-175.5" font-family="Helvetica,sans-Serif" font-size="10.00">WocraController.h</text>
</a>
</g>
</g>
<!-- Node1&#45;&gt;Node3 -->
<g id="edge2" class="edge"><title>Node1&#45;&gt;Node3</title>
<path fill="none" stroke="midnightblue" d="M141.991,-217.82C153.458,-208.145 167.913,-195.948 177.53,-187.834"/>
<polygon fill="midnightblue" stroke="midnightblue" points="139.669,-215.2 134.283,-224.324 144.183,-220.55 139.669,-215.2"/>
</g>
<!-- Node4 -->
<g id="node4" class="node"><title>Node4</title>
<g id="a_node4"><a xlink:href="../../d2/def/WocraController_8cpp.html" target="_top" xlink:title="Implement the LQP&#45;based controller developped during my PhD thesis with ocra framework. ">
<polygon fill="white" stroke="black" points="54,-112.5 54,-131.5 160,-131.5 160,-112.5 54,-112.5"/>
<text text-anchor="middle" x="107" y="-119.5" font-family="Helvetica,sans-Serif" font-size="10.00">WocraController.cpp</text>
</a>
</g>
</g>
<!-- Node3&#45;&gt;Node4 -->
<g id="edge3" class="edge"><title>Node3&#45;&gt;Node4</title>
<path fill="none" stroke="midnightblue" d="M166.433,-162.622C151.636,-152.757 132.488,-139.992 119.982,-131.655"/>
<polygon fill="midnightblue" stroke="midnightblue" points="164.724,-165.689 174.986,-168.324 168.607,-159.865 164.724,-165.689"/>
</g>
<!-- Node5 -->
<g id="node5" class="node"><title>Node5</title>
<g id="a_node5"><a xlink:href="../../da/d7c/ControllerServer_8h.html" target="_top" xlink:title="ControllerServer.h">
<polygon fill="white" stroke="black" points="140.5,-56.5 140.5,-75.5 235.5,-75.5 235.5,-56.5 140.5,-56.5"/>
<text text-anchor="middle" x="188" y="-63.5" font-family="Helvetica,sans-Serif" font-size="10.00">ControllerServer.h</text>
</a>
</g>
</g>
<!-- Node3&#45;&gt;Node5 -->
<g id="edge4" class="edge"><title>Node3&#45;&gt;Node5</title>
<path fill="none" stroke="midnightblue" d="M188,-158.348C188,-134.254 188,-93.3079 188,-75.5914"/>
<polygon fill="midnightblue" stroke="midnightblue" points="184.5,-158.368 188,-168.368 191.5,-158.369 184.5,-158.368"/>
</g>
<!-- Node7 -->
<g id="node7" class="node"><title>Node7</title>
<g id="a_node7"><a xlink:href="../../d2/d6c/ServerCommunications_8h.html" target="_top" xlink:title="ServerCommunications.h">
<polygon fill="white" stroke="black" points="216.5,-112.5 216.5,-131.5 343.5,-131.5 343.5,-112.5 216.5,-112.5"/>
<text text-anchor="middle" x="280" y="-119.5" font-family="Helvetica,sans-Serif" font-size="10.00">ServerCommunications.h</text>
</a>
</g>
</g>
<!-- Node3&#45;&gt;Node7 -->
<g id="edge6" class="edge"><title>Node3&#45;&gt;Node7</title>
<path fill="none" stroke="midnightblue" d="M211.55,-163.177C228.479,-153.241 250.783,-140.149 265.255,-131.655"/>
<polygon fill="midnightblue" stroke="midnightblue" points="209.634,-160.243 202.781,-168.324 213.177,-166.28 209.634,-160.243"/>
</g>
<!-- Node6 -->
<g id="node6" class="node"><title>Node6</title>
<g id="a_node6"><a xlink:href="../../d5/dd2/ControllerServer_8cpp.html" target="_top" xlink:title="ControllerServer.cpp">
<polygon fill="white" stroke="black" points="135,-0.5 135,-19.5 241,-19.5 241,-0.5 135,-0.5"/>
<text text-anchor="middle" x="188" y="-7.5" font-family="Helvetica,sans-Serif" font-size="10.00">ControllerServer.cpp</text>
</a>
</g>
</g>
<!-- Node5&#45;&gt;Node6 -->
<g id="edge5" class="edge"><title>Node5&#45;&gt;Node6</title>
<path fill="none" stroke="midnightblue" d="M188,-45.8045C188,-36.9102 188,-26.7798 188,-19.7511"/>
<polygon fill="midnightblue" stroke="midnightblue" points="184.5,-46.083 188,-56.083 191.5,-46.083 184.5,-46.083"/>
</g>
<!-- Node7&#45;&gt;Node5 -->
<g id="edge7" class="edge"><title>Node7&#45;&gt;Node5</title>
<path fill="none" stroke="midnightblue" d="M256.45,-107.177C239.521,-97.2407 217.217,-84.1492 202.745,-75.6545"/>
<polygon fill="midnightblue" stroke="midnightblue" points="254.823,-110.28 265.219,-112.324 258.366,-104.243 254.823,-110.28"/>
</g>
<!-- Node8 -->
<g id="node8" class="node"><title>Node8</title>
<g id="a_node8"><a xlink:href="../../dc/dac/ServerCommunications_8cpp.html" target="_top" xlink:title="ServerCommunications.cpp">
<polygon fill="white" stroke="black" points="253.5,-56.5 253.5,-75.5 390.5,-75.5 390.5,-56.5 253.5,-56.5"/>
<text text-anchor="middle" x="322" y="-63.5" font-family="Helvetica,sans-Serif" font-size="10.00">ServerCommunications.cpp</text>
</a>
</g>
</g>
<!-- Node7&#45;&gt;Node8 -->
<g id="edge8" class="edge"><title>Node7&#45;&gt;Node8</title>
<path fill="none" stroke="midnightblue" d="M293.11,-104.144C300.428,-94.7357 309.241,-83.4046 315.194,-75.7511"/>
<polygon fill="midnightblue" stroke="midnightblue" points="290.312,-102.041 286.935,-112.083 295.838,-106.338 290.312,-102.041"/>
</g>
</g>
</svg>
