<?xml version="1.0" encoding="UTF-8" standalone="no"?>
<!DOCTYPE svg PUBLIC "-//W3C//DTD SVG 1.1//EN"
 "http://www.w3.org/Graphics/SVG/1.1/DTD/svg11.dtd">
<!-- Generated by graphviz version 2.38.0 (20140413.2041)
 -->
<!-- Title: Model3T.cpp Pages: 1 -->
<svg width="1388pt" height="386pt"
 viewBox="0.00 0.00 1387.50 386.00" xmlns="http://www.w3.org/2000/svg" xmlns:xlink="http://www.w3.org/1999/xlink">
<g id="graph0" class="graph" transform="scale(1 1) rotate(0) translate(4 382)">
<title>Model3T.cpp</title>
<polygon fill="white" stroke="none" points="-4,4 -4,-382 1383.5,-382 1383.5,4 -4,4"/>
<!-- Node1 -->
<g id="node1" class="node"><title>Node1</title>
<polygon fill="#bfbfbf" stroke="black" points="1064,-358.5 1064,-377.5 1137,-377.5 1137,-358.5 1064,-358.5"/>
<text text-anchor="middle" x="1100.5" y="-365.5" font-family="Helvetica,sans-Serif" font-size="10.00">Model3T.cpp</text>
</g>
<!-- Node2 -->
<g id="node2" class="node"><title>Node2</title>
<g id="a_node2"><a xlink:href="../../d0/de5/Model3T_8h.html" target="_top" xlink:title="Model3T.h">
<polygon fill="white" stroke="black" points="915.5,-302.5 915.5,-321.5 977.5,-321.5 977.5,-302.5 915.5,-302.5"/>
<text text-anchor="middle" x="946.5" y="-309.5" font-family="Helvetica,sans-Serif" font-size="10.00">Model3T.h</text>
</a>
</g>
</g>
<!-- Node1&#45;&gt;Node2 -->
<g id="edge1" class="edge"><title>Node1&#45;&gt;Node2</title>
<path fill="none" stroke="midnightblue" d="M1076.1,-358.444C1050.3,-349.399 1009.42,-335.064 980.482,-324.916"/>
<polygon fill="midnightblue" stroke="midnightblue" points="981.382,-321.523 970.788,-321.516 979.066,-328.128 981.382,-321.523"/>
</g>
<!-- Node28 -->
<g id="node28" class="node"><title>Node28</title>
<polygon fill="white" stroke="#bfbfbf" points="642,-134.5 642,-153.5 683,-153.5 683,-134.5 642,-134.5"/>
<text text-anchor="middle" x="662.5" y="-141.5" font-family="Helvetica,sans-Serif" font-size="10.00">string</text>
</g>
<!-- Node1&#45;&gt;Node28 -->
<g id="edge50" class="edge"><title>Node1&#45;&gt;Node28</title>
<path fill="none" stroke="midnightblue" d="M1063.63,-362.778C947.147,-348.604 590.824,-298.562 524.5,-210 494.773,-170.306 582.375,-153.903 631.563,-147.957"/>
<polygon fill="midnightblue" stroke="midnightblue" points="632.165,-151.411 641.709,-146.812 631.38,-144.455 632.165,-151.411"/>
</g>
<!-- Node35 -->
<g id="node35" class="node"><title>Node35</title>
<polygon fill="white" stroke="#bfbfbf" points="1176.5,-190.5 1176.5,-209.5 1244.5,-209.5 1244.5,-190.5 1176.5,-190.5"/>
<text text-anchor="middle" x="1210.5" y="-197.5" font-family="Helvetica,sans-Serif" font-size="10.00">Eigen/Lgsm</text>
</g>
<!-- Node1&#45;&gt;Node35 -->
<g id="edge53" class="edge"><title>Node1&#45;&gt;Node35</title>
<path fill="none" stroke="midnightblue" d="M1098.02,-358.422C1092.43,-337.182 1081.15,-281.312 1105.5,-246 1113.54,-234.345 1145.26,-221.694 1171.76,-212.784"/>
<polygon fill="midnightblue" stroke="midnightblue" points="1173.18,-216 1181.6,-209.561 1171,-209.348 1173.18,-216"/>
</g>
<!-- Node36 -->
<g id="node36" class="node"><title>Node36</title>
<polygon fill="white" stroke="#bfbfbf" points="1262.5,-190.5 1262.5,-209.5 1316.5,-209.5 1316.5,-190.5 1262.5,-190.5"/>
<text text-anchor="middle" x="1289.5" y="-197.5" font-family="Helvetica,sans-Serif" font-size="10.00">iostream</text>
</g>
<!-- Node1&#45;&gt;Node36 -->
<g id="edge52" class="edge"><title>Node1&#45;&gt;Node36</title>
<path fill="none" stroke="midnightblue" d="M1104.1,-358.189C1109.87,-344.868 1122.19,-319.323 1138.5,-302 1175.29,-262.913 1229.91,-231.156 1262.38,-214.259"/>
<polygon fill="midnightblue" stroke="midnightblue" points="1264,-217.363 1271.31,-209.697 1260.82,-211.129 1264,-217.363"/>
</g>
<!-- Node38 -->
<g id="node38" class="node"><title>Node38</title>
<polygon fill="white" stroke="#bfbfbf" points="1147.5,-302.5 1147.5,-321.5 1199.5,-321.5 1199.5,-302.5 1147.5,-302.5"/>
<text text-anchor="middle" x="1173.5" y="-309.5" font-family="Helvetica,sans-Serif" font-size="10.00">sstream</text>
</g>
<!-- Node1&#45;&gt;Node38 -->
<g id="edge51" class="edge"><title>Node1&#45;&gt;Node38</title>
<path fill="none" stroke="midnightblue" d="M1112.23,-358.324C1123.34,-350.107 1140.24,-337.602 1153.48,-327.807"/>
<polygon fill="midnightblue" stroke="midnightblue" points="1155.6,-330.595 1161.56,-321.834 1151.44,-324.967 1155.6,-330.595"/>
</g>
<!-- Node39 -->
<g id="node39" class="node"><title>Node39</title>
<polygon fill="white" stroke="#bfbfbf" points="1217.5,-302.5 1217.5,-321.5 1305.5,-321.5 1305.5,-302.5 1217.5,-302.5"/>
<text text-anchor="middle" x="1261.5" y="-309.5" font-family="Helvetica,sans-Serif" font-size="10.00">Eigen/StdVector</text>
</g>
<!-- Node1&#45;&gt;Node39 -->
<g id="edge54" class="edge"><title>Node1&#45;&gt;Node39</title>
<path fill="none" stroke="midnightblue" d="M1126.01,-358.444C1153.1,-349.359 1196.09,-334.939 1226.37,-324.783"/>
<polygon fill="midnightblue" stroke="midnightblue" points="1227.74,-328.015 1236.11,-321.516 1225.51,-321.378 1227.74,-328.015"/>
</g>
<!-- Node3 -->
<g id="node3" class="node"><title>Node3</title>
<g id="a_node3"><a xlink:href="../../d3/d5a/Model_8h.html" target="_top" xlink:title="Declaration file of the Model class. ">
<polygon fill="white" stroke="black" points="819,-246.5 819,-265.5 924,-265.5 924,-246.5 819,-246.5"/>
<text text-anchor="middle" x="871.5" y="-253.5" font-family="Helvetica,sans-Serif" font-size="10.00">ocra/control/Model.h</text>
</a>
</g>
</g>
<!-- Node2&#45;&gt;Node3 -->
<g id="edge2" class="edge"><title>Node2&#45;&gt;Node3</title>
<path fill="none" stroke="midnightblue" d="M934.45,-302.324C923.037,-294.107 905.669,-281.602 892.065,-271.807"/>
<polygon fill="midnightblue" stroke="midnightblue" points="893.93,-268.837 883.769,-265.834 889.84,-274.517 893.93,-268.837"/>
</g>
<!-- Node4 -->
<g id="node4" class="node"><title>Node4</title>
<g id="a_node4"><a xlink:href="../../d5/d55/MathTypes_8h.html" target="_top" xlink:title="Declaration file of the OptimizationVariable class. ">
<polygon fill="white" stroke="black" points="157,-190.5 157,-209.5 268,-209.5 268,-190.5 157,-190.5"/>
<text text-anchor="middle" x="212.5" y="-197.5" font-family="Helvetica,sans-Serif" font-size="10.00">ocra/util/MathTypes.h</text>
</a>
</g>
</g>
<!-- Node3&#45;&gt;Node4 -->
<g id="edge3" class="edge"><title>Node3&#45;&gt;Node4</title>
<path fill="none" stroke="midnightblue" d="M818.962,-250.695C699.91,-240.94 409.776,-217.165 278.704,-206.425"/>
<polygon fill="midnightblue" stroke="midnightblue" points="278.665,-202.91 268.412,-205.582 278.093,-209.887 278.665,-202.91"/>
</g>
<!-- Node7 -->
<g id="node7" class="node"><title>Node7</title>
<g id="a_node7"><a xlink:href="../../d8/ddc/ObserverSubject_8h.html" target="_top" xlink:title="Declaration file of the Observer, Subject and ObserverSubject classes. ">
<polygon fill="white" stroke="black" points="798.5,-134.5 798.5,-153.5 944.5,-153.5 944.5,-134.5 798.5,-134.5"/>
<text text-anchor="middle" x="871.5" y="-141.5" font-family="Helvetica,sans-Serif" font-size="10.00">ocra/optim/ObserverSubject.h</text>
</a>
</g>
</g>
<!-- Node3&#45;&gt;Node7 -->
<g id="edge6" class="edge"><title>Node3&#45;&gt;Node7</title>
<path fill="none" stroke="midnightblue" d="M871.5,-246.368C871.5,-228.617 871.5,-187.666 871.5,-163.597"/>
<polygon fill="midnightblue" stroke="midnightblue" points="875,-163.591 871.5,-153.591 868,-163.591 875,-163.591"/>
</g>
<!-- Node18 -->
<g id="node18" class="node"><title>Node18</title>
<g id="a_node18"><a xlink:href="../../d7/d90/Variable_8h.html" target="_top" xlink:title="Declaration file of the Variable class. ">
<polygon fill="white" stroke="black" points="368,-190.5 368,-209.5 477,-209.5 477,-190.5 368,-190.5"/>
<text text-anchor="middle" x="422.5" y="-197.5" font-family="Helvetica,sans-Serif" font-size="10.00">ocra/optim/Variable.h</text>
</a>
</g>
</g>
<!-- Node3&#45;&gt;Node18 -->
<g id="edge20" class="edge"><title>Node3&#45;&gt;Node18</title>
<path fill="none" stroke="midnightblue" d="M818.674,-248.647C736.085,-238.714 576.609,-219.534 487.237,-208.786"/>
<polygon fill="midnightblue" stroke="midnightblue" points="487.571,-205.301 477.225,-207.582 486.735,-212.251 487.571,-205.301"/>
</g>
<!-- Node3&#45;&gt;Node28 -->
<g id="edge47" class="edge"><title>Node3&#45;&gt;Node28</title>
<path fill="none" stroke="midnightblue" d="M866.188,-246.461C857.103,-232.562 837.245,-205.084 813.5,-190 775.952,-166.148 725.177,-154.441 693.13,-149.073"/>
<polygon fill="midnightblue" stroke="midnightblue" points="693.448,-145.581 683.026,-147.488 692.363,-152.496 693.448,-145.581"/>
</g>
<!-- Node29 -->
<g id="node29" class="node"><title>Node29</title>
<g id="a_node29"><a xlink:href="../../df/d97/NamedInstance_8h.html" target="_top" xlink:title="ocra/optim/NamedInstance.h">
<polygon fill="white" stroke="black" points="662,-190.5 662,-209.5 805,-209.5 805,-190.5 662,-190.5"/>
<text text-anchor="middle" x="733.5" y="-197.5" font-family="Helvetica,sans-Serif" font-size="10.00">ocra/optim/NamedInstance.h</text>
</a>
</g>
</g>
<!-- Node3&#45;&gt;Node29 -->
<g id="edge38" class="edge"><title>Node3&#45;&gt;Node29</title>
<path fill="none" stroke="midnightblue" d="M849.633,-246.444C826.721,-237.478 790.525,-223.314 764.634,-213.183"/>
<polygon fill="midnightblue" stroke="midnightblue" points="765.852,-209.901 755.264,-209.516 763.301,-216.42 765.852,-209.901"/>
</g>
<!-- Node30 -->
<g id="node30" class="node"><title>Node30</title>
<g id="a_node30"><a xlink:href="../../d9/d5d/ModelContacts_8h.html" target="_top" xlink:title="Declaration file of the ModelContacts class. ">
<polygon fill="white" stroke="black" points="900,-190.5 900,-209.5 1045,-209.5 1045,-190.5 900,-190.5"/>
<text text-anchor="middle" x="972.5" y="-197.5" font-family="Helvetica,sans-Serif" font-size="10.00">ocra/control/ModelContacts.h</text>
</a>
</g>
</g>
<!-- Node3&#45;&gt;Node30 -->
<g id="edge40" class="edge"><title>Node3&#45;&gt;Node30</title>
<path fill="none" stroke="midnightblue" d="M887.727,-246.324C903.851,-237.703 928.8,-224.364 947.464,-214.386"/>
<polygon fill="midnightblue" stroke="midnightblue" points="949.144,-217.456 956.313,-209.655 945.844,-211.283 949.144,-217.456"/>
</g>
<!-- Node33 -->
<g id="node33" class="node"><title>Node33</title>
<g id="a_node33"><a xlink:href="../../df/d0a/Macros_8h.html" target="_top" xlink:title="ocra/util/Macros.h">
<polygon fill="white" stroke="black" points="1063,-190.5 1063,-209.5 1158,-209.5 1158,-190.5 1063,-190.5"/>
<text text-anchor="middle" x="1110.5" y="-197.5" font-family="Helvetica,sans-Serif" font-size="10.00">ocra/util/Macros.h</text>
</a>
</g>
</g>
<!-- Node3&#45;&gt;Node33 -->
<g id="edge44" class="edge"><title>Node3&#45;&gt;Node33</title>
<path fill="none" stroke="midnightblue" d="M909.37,-246.444C950.976,-237.043 1017.87,-221.929 1062.97,-211.739"/>
<polygon fill="midnightblue" stroke="midnightblue" points="1063.82,-215.134 1072.81,-209.516 1062.28,-208.306 1063.82,-215.134"/>
</g>
<!-- Node3&#45;&gt;Node35 -->
<g id="edge46" class="edge"><title>Node3&#45;&gt;Node35</title>
<path fill="none" stroke="midnightblue" d="M924.121,-247.789C983.23,-239.499 1081.96,-225.084 1166.5,-210 1166.6,-209.982 1166.7,-209.964 1166.8,-209.946"/>
<polygon fill="midnightblue" stroke="midnightblue" points="1167.24,-213.426 1176.42,-208.147 1165.95,-206.545 1167.24,-213.426"/>
</g>
<!-- Node3&#45;&gt;Node36 -->
<g id="edge48" class="edge"><title>Node3&#45;&gt;Node36</title>
<path fill="none" stroke="midnightblue" d="M924.027,-250.95C996.011,-244.929 1129.47,-232.082 1252.48,-209.972"/>
<polygon fill="midnightblue" stroke="midnightblue" points="1253.24,-213.391 1262.45,-208.155 1251.99,-206.505 1253.24,-213.391"/>
</g>
<!-- Node37 -->
<g id="node37" class="node"><title>Node37</title>
<polygon fill="white" stroke="#bfbfbf" points="533.5,-190.5 533.5,-209.5 643.5,-209.5 643.5,-190.5 533.5,-190.5"/>
<text text-anchor="middle" x="588.5" y="-197.5" font-family="Helvetica,sans-Serif" font-size="10.00">yarp/os/Semaphore.h</text>
</g>
<!-- Node3&#45;&gt;Node37 -->
<g id="edge49" class="edge"><title>Node3&#45;&gt;Node37</title>
<path fill="none" stroke="midnightblue" d="M826.658,-246.444C776.875,-236.944 696.517,-221.611 643.108,-211.42"/>
<polygon fill="midnightblue" stroke="midnightblue" points="643.611,-207.953 633.132,-209.516 642.299,-214.829 643.611,-207.953"/>
</g>
<!-- Node5 -->
<g id="node5" class="node"><title>Node5</title>
<polygon fill="white" stroke="#bfbfbf" points="176,-134.5 176,-153.5 249,-153.5 249,-134.5 176,-134.5"/>
<text text-anchor="middle" x="212.5" y="-141.5" font-family="Helvetica,sans-Serif" font-size="10.00">Eigen/Dense</text>
</g>
<!-- Node4&#45;&gt;Node5 -->
<g id="edge4" class="edge"><title>Node4&#45;&gt;Node5</title>
<path fill="none" stroke="midnightblue" d="M212.5,-190.083C212.5,-183.006 212.5,-172.861 212.5,-163.986"/>
<polygon fill="midnightblue" stroke="midnightblue" points="216,-163.751 212.5,-153.751 209,-163.751 216,-163.751"/>
</g>
<!-- Node6 -->
<g id="node6" class="node"><title>Node6</title>
<polygon fill="white" stroke="#bfbfbf" points="113.5,-134.5 113.5,-153.5 157.5,-153.5 157.5,-134.5 113.5,-134.5"/>
<text text-anchor="middle" x="135.5" y="-141.5" font-family="Helvetica,sans-Serif" font-size="10.00">cmath</text>
</g>
<!-- Node4&#45;&gt;Node6 -->
<g id="edge5" class="edge"><title>Node4&#45;&gt;Node6</title>
<path fill="none" stroke="midnightblue" d="M200.129,-190.324C188.342,-182.058 170.368,-169.453 156.364,-159.632"/>
<polygon fill="midnightblue" stroke="midnightblue" points="158.038,-156.531 147.841,-153.655 154.018,-162.262 158.038,-156.531"/>
</g>
<!-- Node8 -->
<g id="node8" class="node"><title>Node8</title>
<g id="a_node8"><a xlink:href="../../df/d67/ObserverSubjectBase_8h.html" target="_top" xlink:title="Declaration file of the Observer and Subject base classes. ">
<polygon fill="white" stroke="black" points="1083.5,-67.5 1083.5,-97.5 1221.5,-97.5 1221.5,-67.5 1083.5,-67.5"/>
<text text-anchor="start" x="1091.5" y="-85.5" font-family="Helvetica,sans-Serif" font-size="10.00">ocra/optim/ObserverSubject</text>
<text text-anchor="middle" x="1152.5" y="-74.5" font-family="Helvetica,sans-Serif" font-size="10.00">Base.h</text>
</a>
</g>
</g>
<!-- Node7&#45;&gt;Node8 -->
<g id="edge7" class="edge"><title>Node7&#45;&gt;Node8</title>
<path fill="none" stroke="midnightblue" d="M911.76,-134.475C954.531,-125.419 1023.16,-110.887 1076.22,-99.6518"/>
<polygon fill="midnightblue" stroke="midnightblue" points="1077.22,-103.019 1086.27,-97.523 1075.77,-96.1705 1077.22,-103.019"/>
</g>
<!-- Node12 -->
<g id="node12" class="node"><title>Node12</title>
<polygon fill="white" stroke="#bfbfbf" points="1279.5,-0.5 1279.5,-30.5 1379.5,-30.5 1379.5,-0.5 1279.5,-0.5"/>
<text text-anchor="start" x="1287.5" y="-18.5" font-family="Helvetica,sans-Serif" font-size="10.00">boost/type_traits/is</text>
<text text-anchor="middle" x="1329.5" y="-7.5" font-family="Helvetica,sans-Serif" font-size="10.00">_class.hpp</text>
</g>
<!-- Node7&#45;&gt;Node12 -->
<g id="edge19" class="edge"><title>Node7&#45;&gt;Node12</title>
<path fill="none" stroke="midnightblue" d="M944.624,-134.888C1045.79,-123.512 1217.54,-103.583 1230.5,-98 1262.31,-84.2992 1292.02,-57.1538 1310.43,-37.9633"/>
<polygon fill="midnightblue" stroke="midnightblue" points="1313.1,-40.234 1317.37,-30.5401 1307.99,-35.4519 1313.1,-40.234"/>
</g>
<!-- Node13 -->
<g id="node13" class="node"><title>Node13</title>
<polygon fill="white" stroke="#bfbfbf" points="731.5,-0.5 731.5,-30.5 831.5,-30.5 831.5,-0.5 731.5,-0.5"/>
<text text-anchor="start" x="739.5" y="-18.5" font-family="Helvetica,sans-Serif" font-size="10.00">boost/type_traits/is</text>
<text text-anchor="middle" x="781.5" y="-7.5" font-family="Helvetica,sans-Serif" font-size="10.00">_base_of.hpp</text>
</g>
<!-- Node7&#45;&gt;Node13 -->
<g id="edge17" class="edge"><title>Node7&#45;&gt;Node13</title>
<path fill="none" stroke="midnightblue" d="M871.241,-134.232C870.403,-119.208 866.911,-88.1208 852.5,-67 843.993,-54.5325 831.331,-44.1119 819.046,-36.0366"/>
<polygon fill="midnightblue" stroke="midnightblue" points="820.576,-32.867 810.231,-30.5754 816.889,-38.8175 820.576,-32.867"/>
</g>
<!-- Node14 -->
<g id="node14" class="node"><title>Node14</title>
<polygon fill="white" stroke="#bfbfbf" points="850,-6 850,-25 969,-25 969,-6 850,-6"/>
<text text-anchor="middle" x="909.5" y="-13" font-family="Helvetica,sans-Serif" font-size="10.00">boost/static_assert.hpp</text>
</g>
<!-- Node7&#45;&gt;Node14 -->
<g id="edge16" class="edge"><title>Node7&#45;&gt;Node14</title>
<path fill="none" stroke="midnightblue" d="M874.223,-134.385C877.073,-125.337 881.659,-110.686 885.5,-98 892.029,-76.436 899.311,-51.5895 904.123,-35.055"/>
<polygon fill="midnightblue" stroke="midnightblue" points="907.593,-35.6578 907.02,-25.0784 900.87,-33.7056 907.593,-35.6578"/>
</g>
<!-- Node16 -->
<g id="node16" class="node"><title>Node16</title>
<g id="a_node16"><a xlink:href="../../db/ddf/ocra__events_8h.html" target="_top" xlink:title="ocra/optim/ocra_events.h">
<polygon fill="white" stroke="black" points="938,-73 938,-92 1065,-92 1065,-73 938,-73"/>
<text text-anchor="middle" x="1001.5" y="-80" font-family="Helvetica,sans-Serif" font-size="10.00">ocra/optim/ocra_events.h</text>
</a>
</g>
</g>
<!-- Node7&#45;&gt;Node16 -->
<g id="edge15" class="edge"><title>Node7&#45;&gt;Node16</title>
<path fill="none" stroke="midnightblue" d="M890.126,-134.475C911.943,-124.49 948.304,-107.848 973.517,-96.3075"/>
<polygon fill="midnightblue" stroke="midnightblue" points="975.272,-99.3534 982.909,-92.0091 972.359,-92.9884 975.272,-99.3534"/>
</g>
<!-- Node17 -->
<g id="node17" class="node"><title>Node17</title>
<polygon fill="white" stroke="#bfbfbf" points="743.5,-67.5 743.5,-97.5 843.5,-97.5 843.5,-67.5 743.5,-67.5"/>
<text text-anchor="start" x="751.5" y="-85.5" font-family="Helvetica,sans-Serif" font-size="10.00">boost/type_traits/is</text>
<text text-anchor="middle" x="793.5" y="-74.5" font-family="Helvetica,sans-Serif" font-size="10.00">_convertible.hpp</text>
</g>
<!-- Node7&#45;&gt;Node17 -->
<g id="edge18" class="edge"><title>Node7&#45;&gt;Node17</title>
<path fill="none" stroke="midnightblue" d="M860.325,-134.475C849.859,-126.492 833.816,-114.254 820.073,-103.77"/>
<polygon fill="midnightblue" stroke="midnightblue" points="821.957,-100.805 811.883,-97.523 817.711,-106.371 821.957,-100.805"/>
</g>
<!-- Node9 -->
<g id="node9" class="node"><title>Node9</title>
<polygon fill="white" stroke="#bfbfbf" points="1202,-6 1202,-25 1261,-25 1261,-6 1202,-6"/>
<text text-anchor="middle" x="1231.5" y="-13" font-family="Helvetica,sans-Serif" font-size="10.00">functional</text>
</g>
<!-- Node8&#45;&gt;Node9 -->
<g id="edge8" class="edge"><title>Node8&#45;&gt;Node9</title>
<path fill="none" stroke="midnightblue" d="M1169.64,-67.396C1182.45,-56.8597 1199.93,-42.4771 1213.04,-31.6886"/>
<polygon fill="midnightblue" stroke="midnightblue" points="1215.43,-34.251 1220.93,-25.1945 1210.99,-28.8455 1215.43,-34.251"/>
</g>
<!-- Node10 -->
<g id="node10" class="node"><title>Node10</title>
<polygon fill="white" stroke="#bfbfbf" points="560.5,-6 560.5,-25 616.5,-25 616.5,-6 560.5,-6"/>
<text text-anchor="middle" x="588.5" y="-13" font-family="Helvetica,sans-Serif" font-size="10.00">algorithm</text>
</g>
<!-- Node8&#45;&gt;Node10 -->
<g id="edge9" class="edge"><title>Node8&#45;&gt;Node10</title>
<path fill="none" stroke="midnightblue" d="M1083.19,-68.457C1079.92,-67.9425 1076.67,-67.4535 1073.5,-67 918.257,-44.8275 878.455,-47.4354 722.5,-31 690.246,-27.6009 653.639,-23.6321 626.846,-20.7068"/>
<polygon fill="midnightblue" stroke="midnightblue" points="627.05,-17.2083 616.728,-19.6008 626.289,-24.1669 627.05,-17.2083"/>
</g>
<!-- Node11 -->
<g id="node11" class="node"><title>Node11</title>
<polygon fill="white" stroke="#bfbfbf" points="987.5,-6 987.5,-25 1065.5,-25 1065.5,-6 987.5,-6"/>
<text text-anchor="middle" x="1026.5" y="-13" font-family="Helvetica,sans-Serif" font-size="10.00">boost/any.hpp</text>
</g>
<!-- Node8&#45;&gt;Node11 -->
<g id="edge10" class="edge"><title>Node8&#45;&gt;Node11</title>
<path fill="none" stroke="midnightblue" d="M1125.16,-67.396C1103.44,-56.1928 1073.3,-40.6412 1052.06,-29.6853"/>
<polygon fill="midnightblue" stroke="midnightblue" points="1053.48,-26.4812 1042.99,-25.007 1050.27,-32.7022 1053.48,-26.4812"/>
</g>
<!-- Node8&#45;&gt;Node12 -->
<g id="edge11" class="edge"><title>Node8&#45;&gt;Node12</title>
<path fill="none" stroke="midnightblue" d="M1190.91,-67.396C1217.46,-57.6432 1253,-44.5949 1281.43,-34.152"/>
<polygon fill="midnightblue" stroke="midnightblue" points="1282.99,-37.3093 1291.17,-30.5765 1280.57,-30.7383 1282.99,-37.3093"/>
</g>
<!-- Node8&#45;&gt;Node13 -->
<g id="edge12" class="edge"><title>Node8&#45;&gt;Node13</title>
<path fill="none" stroke="midnightblue" d="M1083.16,-68.6582C1079.89,-68.0898 1076.66,-67.5344 1073.5,-67 973.308,-50.0686 944.955,-51.4214 841.553,-31.108"/>
<polygon fill="midnightblue" stroke="midnightblue" points="842.135,-27.6554 831.645,-29.141 840.772,-34.5214 842.135,-27.6554"/>
</g>
<!-- Node8&#45;&gt;Node14 -->
<g id="edge13" class="edge"><title>Node8&#45;&gt;Node14</title>
<path fill="none" stroke="midnightblue" d="M1100.07,-67.476C1055.47,-55.5466 992.285,-38.6441 951.1,-27.6276"/>
<polygon fill="midnightblue" stroke="midnightblue" points="951.949,-24.2317 941.384,-25.0287 950.14,-30.9939 951.949,-24.2317"/>
</g>
<!-- Node15 -->
<g id="node15" class="node"><title>Node15</title>
<polygon fill="white" stroke="#bfbfbf" points="1083.5,-0.5 1083.5,-30.5 1183.5,-30.5 1183.5,-0.5 1083.5,-0.5"/>
<text text-anchor="start" x="1091.5" y="-18.5" font-family="Helvetica,sans-Serif" font-size="10.00">boost/ptr_container</text>
<text text-anchor="middle" x="1133.5" y="-7.5" font-family="Helvetica,sans-Serif" font-size="10.00">/ptr_vector.hpp</text>
</g>
<!-- Node8&#45;&gt;Node15 -->
<g id="edge14" class="edge"><title>Node8&#45;&gt;Node15</title>
<path fill="none" stroke="midnightblue" d="M1148.38,-67.396C1146.06,-59.4745 1143.11,-49.379 1140.45,-40.2712"/>
<polygon fill="midnightblue" stroke="midnightblue" points="1143.78,-39.1928 1137.61,-30.5765 1137.06,-41.1569 1143.78,-39.1928"/>
</g>
<!-- Node18&#45;&gt;Node7 -->
<g id="edge21" class="edge"><title>Node18&#45;&gt;Node7</title>
<path fill="none" stroke="midnightblue" d="M477.107,-192.433C555.387,-183.018 700.032,-165.622 790.711,-154.716"/>
<polygon fill="midnightblue" stroke="midnightblue" points="791.165,-158.187 800.675,-153.518 790.329,-151.237 791.165,-158.187"/>
</g>
<!-- Node19 -->
<g id="node19" class="node"><title>Node19</title>
<g id="a_node19"><a xlink:href="../../d1/de6/Composite_8h.html" target="_top" xlink:title="Utility classes and functions to implement the Composite design pattern. ">
<polygon fill="white" stroke="black" points="431,-134.5 431,-153.5 552,-153.5 552,-134.5 431,-134.5"/>
<text text-anchor="middle" x="491.5" y="-141.5" font-family="Helvetica,sans-Serif" font-size="10.00">ocra/optim/Composite.h</text>
</a>
</g>
</g>
<!-- Node18&#45;&gt;Node19 -->
<g id="edge22" class="edge"><title>Node18&#45;&gt;Node19</title>
<path fill="none" stroke="midnightblue" d="M433.586,-190.324C443.986,-182.185 459.761,-169.839 472.222,-160.087"/>
<polygon fill="midnightblue" stroke="midnightblue" points="474.494,-162.753 480.212,-153.834 470.18,-157.241 474.494,-162.753"/>
</g>
<!-- Node22 -->
<g id="node22" class="node"><title>Node22</title>
<polygon fill="white" stroke="#bfbfbf" points="0,-73 0,-92 117,-92 117,-73 0,-73"/>
<text text-anchor="middle" x="58.5" y="-80" font-family="Helvetica,sans-Serif" font-size="10.00">boost/noncopyable.hpp</text>
</g>
<!-- Node18&#45;&gt;Node22 -->
<g id="edge35" class="edge"><title>Node18&#45;&gt;Node22</title>
<path fill="none" stroke="midnightblue" d="M392.177,-190.478C365.188,-182.451 324.923,-169.381 291.5,-154 275.574,-146.671 273.714,-140.667 257.5,-134 230.669,-122.967 157.496,-105.546 107.766,-94.3221"/>
<polygon fill="midnightblue" stroke="midnightblue" points="108.368,-90.8703 97.8446,-92.0947 106.835,-97.7003 108.368,-90.8703"/>
</g>
<!-- Node24 -->
<g id="node24" class="node"><title>Node24</title>
<polygon fill="white" stroke="#bfbfbf" points="135.5,-73 135.5,-92 179.5,-92 179.5,-73 135.5,-73"/>
<text text-anchor="middle" x="157.5" y="-80" font-family="Helvetica,sans-Serif" font-size="10.00">vector</text>
</g>
<!-- Node18&#45;&gt;Node24 -->
<g id="edge37" class="edge"><title>Node18&#45;&gt;Node24</title>
<path fill="none" stroke="midnightblue" d="M405.775,-190.376C375.77,-174.959 313.847,-143.407 291.5,-134 246.805,-115.187 233.409,-116.296 188.5,-98 187.124,-97.4396 185.722,-96.8503 184.311,-96.2432"/>
<polygon fill="midnightblue" stroke="midnightblue" points="185.625,-92.9966 175.068,-92.094 182.758,-99.3826 185.625,-92.9966"/>
</g>
<!-- Node27 -->
<g id="node27" class="node"><title>Node27</title>
<polygon fill="white" stroke="#bfbfbf" points="344,-134.5 344,-153.5 413,-153.5 413,-134.5 344,-134.5"/>
<text text-anchor="middle" x="378.5" y="-141.5" font-family="Helvetica,sans-Serif" font-size="10.00">Eigen/Eigen</text>
</g>
<!-- Node18&#45;&gt;Node27 -->
<g id="edge34" class="edge"><title>Node18&#45;&gt;Node27</title>
<path fill="none" stroke="midnightblue" d="M415.234,-190.083C408.955,-182.377 399.712,-171.033 392.069,-161.653"/>
<polygon fill="midnightblue" stroke="midnightblue" points="394.661,-159.293 385.631,-153.751 389.234,-163.714 394.661,-159.293"/>
</g>
<!-- Node18&#45;&gt;Node28 -->
<g id="edge36" class="edge"><title>Node18&#45;&gt;Node28</title>
<path fill="none" stroke="midnightblue" d="M460.529,-190.444C508.006,-179.761 588.276,-161.7 631.958,-151.872"/>
<polygon fill="midnightblue" stroke="midnightblue" points="632.735,-155.285 641.723,-149.675 631.198,-148.455 632.735,-155.285"/>
</g>
<!-- Node19&#45;&gt;Node10 -->
<g id="edge31" class="edge"><title>Node19&#45;&gt;Node10</title>
<path fill="none" stroke="midnightblue" d="M492.411,-134.192C494.351,-119.107 500.054,-87.9309 515.5,-67 527.17,-51.1863 545.329,-38.5957 560.616,-29.9414"/>
<polygon fill="midnightblue" stroke="midnightblue" points="562.529,-32.8865 569.679,-25.0679 559.214,-26.7212 562.529,-32.8865"/>
</g>
<!-- Node19&#45;&gt;Node13 -->
<g id="edge27" class="edge"><title>Node19&#45;&gt;Node13</title>
<path fill="none" stroke="midnightblue" d="M495.409,-134.331C503.111,-118.299 521.846,-84.0981 548.5,-67 600.649,-33.5472 671.474,-21.9496 721.306,-18.0863"/>
<polygon fill="midnightblue" stroke="midnightblue" points="721.56,-21.5772 731.293,-17.3933 721.075,-14.594 721.56,-21.5772"/>
</g>
<!-- Node19&#45;&gt;Node14 -->
<g id="edge26" class="edge"><title>Node19&#45;&gt;Node14</title>
<path fill="none" stroke="midnightblue" d="M552.314,-136.909C594.157,-130.993 650.147,-119.593 695.5,-98 715.492,-88.4816 714.822,-77.1515 734.5,-67 757.052,-55.3658 820.112,-38.4701 864.023,-27.4831"/>
<polygon fill="midnightblue" stroke="midnightblue" points="865.046,-30.8355 873.907,-25.0285 863.359,-24.0418 865.046,-30.8355"/>
</g>
<!-- Node19&#45;&gt;Node17 -->
<g id="edge28" class="edge"><title>Node19&#45;&gt;Node17</title>
<path fill="none" stroke="midnightblue" d="M539.465,-134.454C587.602,-125.754 663.83,-111.643 729.5,-98 730.755,-97.7393 732.023,-97.4735 733.301,-97.2036"/>
<polygon fill="midnightblue" stroke="midnightblue" points="734.188,-100.593 743.229,-95.0689 732.716,-93.7494 734.188,-100.593"/>
</g>
<!-- Node20 -->
<g id="node20" class="node"><title>Node20</title>
<g id="a_node20"><a xlink:href="../../de/df3/ocra__assert_8h.html" target="_top" xlink:title="ocra/optim/ocra_assert.h">
<polygon fill="white" stroke="black" points="338,-73 338,-92 463,-92 463,-73 338,-73"/>
<text text-anchor="middle" x="400.5" y="-80" font-family="Helvetica,sans-Serif" font-size="10.00">ocra/optim/ocra_assert.h</text>
</a>
</g>
</g>
<!-- Node19&#45;&gt;Node20 -->
<g id="edge23" class="edge"><title>Node19&#45;&gt;Node20</title>
<path fill="none" stroke="midnightblue" d="M478.462,-134.475C463.731,-124.843 439.527,-109.017 421.991,-97.5517"/>
<polygon fill="midnightblue" stroke="midnightblue" points="423.799,-94.5522 413.514,-92.0091 419.968,-100.411 423.799,-94.5522"/>
</g>
<!-- Node19&#45;&gt;Node22 -->
<g id="edge25" class="edge"><title>Node19&#45;&gt;Node22</title>
<path fill="none" stroke="midnightblue" d="M430.797,-135.171C427.653,-134.773 424.539,-134.381 421.5,-134 290.441,-117.578 256.773,-119.794 126.5,-98 119.781,-96.8759 112.719,-95.5427 105.793,-94.1473"/>
<polygon fill="midnightblue" stroke="midnightblue" points="106.3,-90.678 95.7974,-92.0753 104.879,-97.5322 106.3,-90.678"/>
</g>
<!-- Node23 -->
<g id="node23" class="node"><title>Node23</title>
<polygon fill="white" stroke="#bfbfbf" points="558,-67.5 558,-97.5 687,-97.5 687,-67.5 558,-67.5"/>
<text text-anchor="start" x="566" y="-85.5" font-family="Helvetica,sans-Serif" font-size="10.00">boost/type_traits/has</text>
<text text-anchor="middle" x="622.5" y="-74.5" font-family="Helvetica,sans-Serif" font-size="10.00">_nothrow_constructor.hpp</text>
</g>
<!-- Node19&#45;&gt;Node23 -->
<g id="edge29" class="edge"><title>Node19&#45;&gt;Node23</title>
<path fill="none" stroke="midnightblue" d="M510.269,-134.475C529.006,-125.965 558.389,-112.619 582.39,-101.718"/>
<polygon fill="midnightblue" stroke="midnightblue" points="583.968,-104.845 591.626,-97.523 581.074,-98.4717 583.968,-104.845"/>
</g>
<!-- Node19&#45;&gt;Node24 -->
<g id="edge30" class="edge"><title>Node19&#45;&gt;Node24</title>
<path fill="none" stroke="midnightblue" d="M430.91,-134.96C349.184,-123.967 211.192,-104.833 188.5,-98 186.623,-97.4347 184.714,-96.7742 182.814,-96.0524"/>
<polygon fill="midnightblue" stroke="midnightblue" points="184.131,-92.8092 173.561,-92.0901 181.376,-99.2441 184.131,-92.8092"/>
</g>
<!-- Node25 -->
<g id="node25" class="node"><title>Node25</title>
<polygon fill="white" stroke="#bfbfbf" points="198,-73 198,-92 243,-92 243,-73 198,-73"/>
<text text-anchor="middle" x="220.5" y="-80" font-family="Helvetica,sans-Serif" font-size="10.00">iosfwd</text>
</g>
<!-- Node19&#45;&gt;Node25 -->
<g id="edge32" class="edge"><title>Node19&#45;&gt;Node25</title>
<path fill="none" stroke="midnightblue" d="M437.401,-134.485C377.612,-124.787 285.296,-108.879 251.5,-98 249.828,-97.4618 248.129,-96.8545 246.431,-96.2013"/>
<polygon fill="midnightblue" stroke="midnightblue" points="247.49,-92.8472 236.92,-92.1189 244.729,-99.2797 247.49,-92.8472"/>
</g>
<!-- Node26 -->
<g id="node26" class="node"><title>Node26</title>
<polygon fill="white" stroke="#bfbfbf" points="261,-73 261,-92 320,-92 320,-73 261,-73"/>
<text text-anchor="middle" x="290.5" y="-80" font-family="Helvetica,sans-Serif" font-size="10.00">stdexcept</text>
</g>
<!-- Node19&#45;&gt;Node26 -->
<g id="edge33" class="edge"><title>Node19&#45;&gt;Node26</title>
<path fill="none" stroke="midnightblue" d="M456.872,-134.461C423.679,-126.035 372.295,-112.365 328.5,-98 326.236,-97.2573 323.908,-96.4583 321.573,-95.6309"/>
<polygon fill="midnightblue" stroke="midnightblue" points="322.669,-92.3051 312.075,-92.1405 320.254,-98.8754 322.669,-92.3051"/>
</g>
<!-- Node21 -->
<g id="node21" class="node"><title>Node21</title>
<polygon fill="white" stroke="#bfbfbf" points="379,-6 379,-25 422,-25 422,-6 379,-6"/>
<text text-anchor="middle" x="400.5" y="-13" font-family="Helvetica,sans-Serif" font-size="10.00">cstdio</text>
</g>
<!-- Node20&#45;&gt;Node21 -->
<g id="edge24" class="edge"><title>Node20&#45;&gt;Node21</title>
<path fill="none" stroke="midnightblue" d="M400.5,-72.7338C400.5,-63.1826 400.5,-47.6183 400.5,-35.2829"/>
<polygon fill="midnightblue" stroke="midnightblue" points="404,-35.1273 400.5,-25.1273 397,-35.1273 404,-35.1273"/>
</g>
<!-- Node29&#45;&gt;Node28 -->
<g id="edge39" class="edge"><title>Node29&#45;&gt;Node28</title>
<path fill="none" stroke="midnightblue" d="M722.093,-190.324C711.391,-182.185 695.159,-169.839 682.337,-160.087"/>
<polygon fill="midnightblue" stroke="midnightblue" points="684.193,-157.102 674.115,-153.834 679.956,-162.673 684.193,-157.102"/>
</g>
<!-- Node30&#45;&gt;Node7 -->
<g id="edge41" class="edge"><title>Node30&#45;&gt;Node7</title>
<path fill="none" stroke="midnightblue" d="M956.273,-190.324C940.149,-181.703 915.2,-168.364 896.536,-158.386"/>
<polygon fill="midnightblue" stroke="midnightblue" points="898.156,-155.283 887.687,-153.655 894.856,-161.456 898.156,-155.283"/>
</g>
<!-- Node31 -->
<g id="node31" class="node"><title>Node31</title>
<polygon fill="white" stroke="#bfbfbf" points="1089,-134.5 1089,-153.5 1154,-153.5 1154,-134.5 1089,-134.5"/>
<text text-anchor="middle" x="1121.5" y="-141.5" font-family="Helvetica,sans-Serif" font-size="10.00">Eigen/Core</text>
</g>
<!-- Node30&#45;&gt;Node31 -->
<g id="edge42" class="edge"><title>Node30&#45;&gt;Node31</title>
<path fill="none" stroke="midnightblue" d="M996.109,-190.444C1020.96,-181.438 1060.27,-167.189 1088.25,-157.049"/>
<polygon fill="midnightblue" stroke="midnightblue" points="1089.79,-160.214 1098,-153.516 1087.41,-153.633 1089.79,-160.214"/>
</g>
<!-- Node32 -->
<g id="node32" class="node"><title>Node32</title>
<polygon fill="white" stroke="#bfbfbf" points="962.5,-134.5 962.5,-153.5 1070.5,-153.5 1070.5,-134.5 962.5,-134.5"/>
<text text-anchor="middle" x="1016.5" y="-141.5" font-family="Helvetica,sans-Serif" font-size="10.00">boost/shared_ptr.hpp</text>
</g>
<!-- Node30&#45;&gt;Node32 -->
<g id="edge43" class="edge"><title>Node30&#45;&gt;Node32</title>
<path fill="none" stroke="midnightblue" d="M979.766,-190.083C986.045,-182.377 995.288,-171.033 1002.93,-161.653"/>
<polygon fill="midnightblue" stroke="midnightblue" points="1005.77,-163.714 1009.37,-153.751 1000.34,-159.293 1005.77,-163.714"/>
</g>
<!-- Node34 -->
<g id="node34" class="node"><title>Node34</title>
<polygon fill="white" stroke="#bfbfbf" points="1172.5,-134.5 1172.5,-153.5 1224.5,-153.5 1224.5,-134.5 1172.5,-134.5"/>
<text text-anchor="middle" x="1198.5" y="-141.5" font-family="Helvetica,sans-Serif" font-size="10.00">memory</text>
</g>
<!-- Node33&#45;&gt;Node34 -->
<g id="edge45" class="edge"><title>Node33&#45;&gt;Node34</title>
<path fill="none" stroke="midnightblue" d="M1124.64,-190.324C1138.37,-181.9 1159.44,-168.971 1175.56,-159.074"/>
<polygon fill="midnightblue" stroke="midnightblue" points="1177.7,-161.868 1184.4,-153.655 1174.04,-155.902 1177.7,-161.868"/>
</g>
</g>
</svg>
