<?xml version="1.0" encoding="UTF-8" standalone="no"?>
<!DOCTYPE svg PUBLIC "-//W3C//DTD SVG 1.1//EN"
 "http://www.w3.org/Graphics/SVG/1.1/DTD/svg11.dtd">
<!-- Generated by graphviz version 2.38.0 (20140413.2041)
 -->
<!-- Title: controlUtils.cpp Pages: 1 -->
<svg width="1425pt" height="386pt"
 viewBox="0.00 0.00 1424.50 386.00" xmlns="http://www.w3.org/2000/svg" xmlns:xlink="http://www.w3.org/1999/xlink">
<g id="graph0" class="graph" transform="scale(1 1) rotate(0) translate(4 382)">
<title>controlUtils.cpp</title>
<polygon fill="white" stroke="none" points="-4,4 -4,-382 1420.5,-382 1420.5,4 -4,4"/>
<!-- Node1 -->
<g id="node1" class="node"><title>Node1</title>
<polygon fill="#bfbfbf" stroke="black" points="160.5,-358.5 160.5,-377.5 245.5,-377.5 245.5,-358.5 160.5,-358.5"/>
<text text-anchor="middle" x="203" y="-365.5" font-family="Helvetica,sans-Serif" font-size="10.00">controlUtils.cpp</text>
</g>
<!-- Node2 -->
<g id="node2" class="node"><title>Node2</title>
<g id="a_node2"><a xlink:href="../../d6/d65/controlUtils_8h.html" target="_top" xlink:title="Control utility functions. ">
<polygon fill="white" stroke="black" points="139,-302.5 139,-321.5 267,-321.5 267,-302.5 139,-302.5"/>
<text text-anchor="middle" x="203" y="-309.5" font-family="Helvetica,sans-Serif" font-size="10.00">ocra/control/controlUtils.h</text>
</a>
</g>
</g>
<!-- Node1&#45;&gt;Node2 -->
<g id="edge1" class="edge"><title>Node1&#45;&gt;Node2</title>
<path fill="none" stroke="midnightblue" d="M203,-358.083C203,-351.006 203,-340.861 203,-331.986"/>
<polygon fill="midnightblue" stroke="midnightblue" points="206.5,-331.751 203,-321.751 199.5,-331.751 206.5,-331.751"/>
</g>
<!-- Node3 -->
<g id="node3" class="node"><title>Node3</title>
<g id="a_node3"><a xlink:href="../../d5/d55/MathTypes_8h.html" target="_top" xlink:title="Declaration file of the OptimizationVariable class. ">
<polygon fill="white" stroke="black" points="39.5,-190.5 39.5,-209.5 150.5,-209.5 150.5,-190.5 39.5,-190.5"/>
<text text-anchor="middle" x="95" y="-197.5" font-family="Helvetica,sans-Serif" font-size="10.00">ocra/util/MathTypes.h</text>
</a>
</g>
</g>
<!-- Node2&#45;&gt;Node3 -->
<g id="edge2" class="edge"><title>Node2&#45;&gt;Node3</title>
<path fill="none" stroke="midnightblue" d="M194.525,-302.368C176.387,-283.894 133.578,-240.293 110.457,-216.744"/>
<polygon fill="midnightblue" stroke="midnightblue" points="112.939,-214.275 103.435,-209.591 107.944,-219.179 112.939,-214.275"/>
</g>
<!-- Node6 -->
<g id="node6" class="node"><title>Node6</title>
<polygon fill="white" stroke="#bfbfbf" points="169,-190.5 169,-209.5 237,-209.5 237,-190.5 169,-190.5"/>
<text text-anchor="middle" x="203" y="-197.5" font-family="Helvetica,sans-Serif" font-size="10.00">Eigen/Lgsm</text>
</g>
<!-- Node2&#45;&gt;Node6 -->
<g id="edge5" class="edge"><title>Node2&#45;&gt;Node6</title>
<path fill="none" stroke="midnightblue" d="M203,-302.368C203,-284.617 203,-243.666 203,-219.597"/>
<polygon fill="midnightblue" stroke="midnightblue" points="206.5,-219.591 203,-209.591 199.5,-219.591 206.5,-219.591"/>
</g>
<!-- Node7 -->
<g id="node7" class="node"><title>Node7</title>
<g id="a_node7"><a xlink:href="../../d3/d5a/Model_8h.html" target="_top" xlink:title="Declaration file of the Model class. ">
<polygon fill="white" stroke="black" points="506.5,-246.5 506.5,-265.5 611.5,-265.5 611.5,-246.5 506.5,-246.5"/>
<text text-anchor="middle" x="559" y="-253.5" font-family="Helvetica,sans-Serif" font-size="10.00">ocra/control/Model.h</text>
</a>
</g>
</g>
<!-- Node2&#45;&gt;Node7 -->
<g id="edge6" class="edge"><title>Node2&#45;&gt;Node7</title>
<path fill="none" stroke="midnightblue" d="M259.409,-302.444C323.933,-292.656 429.29,-276.675 496.326,-266.507"/>
<polygon fill="midnightblue" stroke="midnightblue" points="496.974,-269.949 506.336,-264.988 495.924,-263.028 496.974,-269.949"/>
</g>
<!-- Node4 -->
<g id="node4" class="node"><title>Node4</title>
<polygon fill="white" stroke="#bfbfbf" points="9.5,-134.5 9.5,-153.5 82.5,-153.5 82.5,-134.5 9.5,-134.5"/>
<text text-anchor="middle" x="46" y="-141.5" font-family="Helvetica,sans-Serif" font-size="10.00">Eigen/Dense</text>
</g>
<!-- Node3&#45;&gt;Node4 -->
<g id="edge3" class="edge"><title>Node3&#45;&gt;Node4</title>
<path fill="none" stroke="midnightblue" d="M86.9086,-190.083C79.8446,-182.298 69.4124,-170.801 60.8511,-161.367"/>
<polygon fill="midnightblue" stroke="midnightblue" points="63.2527,-158.805 53.9408,-153.751 58.0688,-163.509 63.2527,-158.805"/>
</g>
<!-- Node5 -->
<g id="node5" class="node"><title>Node5</title>
<polygon fill="white" stroke="#bfbfbf" points="101,-134.5 101,-153.5 145,-153.5 145,-134.5 101,-134.5"/>
<text text-anchor="middle" x="123" y="-141.5" font-family="Helvetica,sans-Serif" font-size="10.00">cmath</text>
</g>
<!-- Node3&#45;&gt;Node5 -->
<g id="edge4" class="edge"><title>Node3&#45;&gt;Node5</title>
<path fill="none" stroke="midnightblue" d="M99.6236,-190.083C103.456,-182.691 109.024,-171.953 113.765,-162.811"/>
<polygon fill="midnightblue" stroke="midnightblue" points="116.966,-164.24 118.462,-153.751 110.752,-161.018 116.966,-164.24"/>
</g>
<!-- Node7&#45;&gt;Node3 -->
<g id="edge7" class="edge"><title>Node7&#45;&gt;Node3</title>
<path fill="none" stroke="midnightblue" d="M506.345,-249.49C431.899,-241.605 291.349,-226.371 160.836,-210.076"/>
<polygon fill="midnightblue" stroke="midnightblue" points="161.015,-206.571 150.657,-208.801 160.144,-213.517 161.015,-206.571"/>
</g>
<!-- Node7&#45;&gt;Node6 -->
<g id="edge48" class="edge"><title>Node7&#45;&gt;Node6</title>
<path fill="none" stroke="midnightblue" d="M506.226,-248.453C445.946,-240.743 344.141,-227.016 247.199,-210.121"/>
<polygon fill="midnightblue" stroke="midnightblue" points="247.684,-206.653 237.23,-208.369 246.473,-213.547 247.684,-206.653"/>
</g>
<!-- Node8 -->
<g id="node8" class="node"><title>Node8</title>
<g id="a_node8"><a xlink:href="../../d8/ddc/ObserverSubject_8h.html" target="_top" xlink:title="Declaration file of the Observer, Subject and ObserverSubject classes. ">
<polygon fill="white" stroke="black" points="471,-134.5 471,-153.5 617,-153.5 617,-134.5 471,-134.5"/>
<text text-anchor="middle" x="544" y="-141.5" font-family="Helvetica,sans-Serif" font-size="10.00">ocra/optim/ObserverSubject.h</text>
</a>
</g>
</g>
<!-- Node7&#45;&gt;Node8 -->
<g id="edge8" class="edge"><title>Node7&#45;&gt;Node8</title>
<path fill="none" stroke="midnightblue" d="M611.625,-251.945C670.965,-246.473 755.25,-231.362 723,-190 710.277,-173.683 664.836,-162.376 622.925,-155.178"/>
<polygon fill="midnightblue" stroke="midnightblue" points="623.37,-151.704 612.933,-153.525 622.227,-158.61 623.37,-151.704"/>
</g>
<!-- Node19 -->
<g id="node19" class="node"><title>Node19</title>
<g id="a_node19"><a xlink:href="../../d7/d90/Variable_8h.html" target="_top" xlink:title="Declaration file of the Variable class. ">
<polygon fill="white" stroke="black" points="770.5,-190.5 770.5,-209.5 879.5,-209.5 879.5,-190.5 770.5,-190.5"/>
<text text-anchor="middle" x="825" y="-197.5" font-family="Helvetica,sans-Serif" font-size="10.00">ocra/optim/Variable.h</text>
</a>
</g>
</g>
<!-- Node7&#45;&gt;Node19 -->
<g id="edge22" class="edge"><title>Node7&#45;&gt;Node19</title>
<path fill="none" stroke="midnightblue" d="M601.148,-246.444C647.746,-236.984 722.844,-221.738 773.045,-211.547"/>
<polygon fill="midnightblue" stroke="midnightblue" points="773.945,-214.936 783.049,-209.516 772.552,-208.076 773.945,-214.936"/>
</g>
<!-- Node29 -->
<g id="node29" class="node"><title>Node29</title>
<polygon fill="white" stroke="#bfbfbf" points="1016.5,-134.5 1016.5,-153.5 1057.5,-153.5 1057.5,-134.5 1016.5,-134.5"/>
<text text-anchor="middle" x="1037" y="-141.5" font-family="Helvetica,sans-Serif" font-size="10.00">string</text>
</g>
<!-- Node7&#45;&gt;Node29 -->
<g id="edge49" class="edge"><title>Node7&#45;&gt;Node29</title>
<path fill="none" stroke="midnightblue" d="M611.758,-252.261C677.506,-247.834 792.809,-236.719 888,-210 933.652,-197.186 983.558,-173.196 1012.47,-158.217"/>
<polygon fill="midnightblue" stroke="midnightblue" points="1014.21,-161.259 1021.44,-153.512 1010.95,-155.061 1014.21,-161.259"/>
</g>
<!-- Node30 -->
<g id="node30" class="node"><title>Node30</title>
<g id="a_node30"><a xlink:href="../../df/d97/NamedInstance_8h.html" target="_top" xlink:title="ocra/optim/NamedInstance.h">
<polygon fill="white" stroke="black" points="957.5,-190.5 957.5,-209.5 1100.5,-209.5 1100.5,-190.5 957.5,-190.5"/>
<text text-anchor="middle" x="1029" y="-197.5" font-family="Helvetica,sans-Serif" font-size="10.00">ocra/optim/NamedInstance.h</text>
</a>
</g>
</g>
<!-- Node7&#45;&gt;Node30 -->
<g id="edge40" class="edge"><title>Node7&#45;&gt;Node30</title>
<path fill="none" stroke="midnightblue" d="M611.547,-248.963C693.099,-239.593 850.773,-221.477 947.277,-210.389"/>
<polygon fill="midnightblue" stroke="midnightblue" points="947.752,-213.858 957.287,-209.239 946.953,-206.904 947.752,-213.858"/>
</g>
<!-- Node31 -->
<g id="node31" class="node"><title>Node31</title>
<g id="a_node31"><a xlink:href="../../d9/d5d/ModelContacts_8h.html" target="_top" xlink:title="Declaration file of the ModelContacts class. ">
<polygon fill="white" stroke="black" points="255.5,-190.5 255.5,-209.5 400.5,-209.5 400.5,-190.5 255.5,-190.5"/>
<text text-anchor="middle" x="328" y="-197.5" font-family="Helvetica,sans-Serif" font-size="10.00">ocra/control/ModelContacts.h</text>
</a>
</g>
</g>
<!-- Node7&#45;&gt;Node31 -->
<g id="edge42" class="edge"><title>Node7&#45;&gt;Node31</title>
<path fill="none" stroke="midnightblue" d="M522.397,-246.444C482.269,-237.063 417.802,-221.993 374.215,-211.804"/>
<polygon fill="midnightblue" stroke="midnightblue" points="374.966,-208.385 364.431,-209.516 373.372,-215.201 374.966,-208.385"/>
</g>
<!-- Node34 -->
<g id="node34" class="node"><title>Node34</title>
<g id="a_node34"><a xlink:href="../../df/d0a/Macros_8h.html" target="_top" xlink:title="ocra/util/Macros.h">
<polygon fill="white" stroke="black" points="418.5,-190.5 418.5,-209.5 513.5,-209.5 513.5,-190.5 418.5,-190.5"/>
<text text-anchor="middle" x="466" y="-197.5" font-family="Helvetica,sans-Serif" font-size="10.00">ocra/util/Macros.h</text>
</a>
</g>
</g>
<!-- Node7&#45;&gt;Node34 -->
<g id="edge46" class="edge"><title>Node7&#45;&gt;Node34</title>
<path fill="none" stroke="midnightblue" d="M544.058,-246.324C529.415,-237.822 506.866,-224.729 489.762,-214.797"/>
<polygon fill="midnightblue" stroke="midnightblue" points="491.31,-211.649 480.905,-209.655 487.795,-217.703 491.31,-211.649"/>
</g>
<!-- Node36 -->
<g id="node36" class="node"><title>Node36</title>
<polygon fill="white" stroke="#bfbfbf" points="532,-190.5 532,-209.5 586,-209.5 586,-190.5 532,-190.5"/>
<text text-anchor="middle" x="559" y="-197.5" font-family="Helvetica,sans-Serif" font-size="10.00">iostream</text>
</g>
<!-- Node7&#45;&gt;Node36 -->
<g id="edge50" class="edge"><title>Node7&#45;&gt;Node36</title>
<path fill="none" stroke="midnightblue" d="M559,-246.083C559,-239.006 559,-228.861 559,-219.986"/>
<polygon fill="midnightblue" stroke="midnightblue" points="562.5,-219.751 559,-209.751 555.5,-219.751 562.5,-219.751"/>
</g>
<!-- Node37 -->
<g id="node37" class="node"><title>Node37</title>
<polygon fill="white" stroke="#bfbfbf" points="604,-190.5 604,-209.5 714,-209.5 714,-190.5 604,-190.5"/>
<text text-anchor="middle" x="659" y="-197.5" font-family="Helvetica,sans-Serif" font-size="10.00">yarp/os/Semaphore.h</text>
</g>
<!-- Node7&#45;&gt;Node37 -->
<g id="edge51" class="edge"><title>Node7&#45;&gt;Node37</title>
<path fill="none" stroke="midnightblue" d="M575.067,-246.324C590.958,-237.743 615.507,-224.486 633.958,-214.522"/>
<polygon fill="midnightblue" stroke="midnightblue" points="635.837,-217.486 642.973,-209.655 632.511,-211.326 635.837,-217.486"/>
</g>
<!-- Node9 -->
<g id="node9" class="node"><title>Node9</title>
<g id="a_node9"><a xlink:href="../../df/d67/ObserverSubjectBase_8h.html" target="_top" xlink:title="Declaration file of the Observer and Subject base classes. ">
<polygon fill="white" stroke="black" points="195,-67.5 195,-97.5 333,-97.5 333,-67.5 195,-67.5"/>
<text text-anchor="start" x="203" y="-85.5" font-family="Helvetica,sans-Serif" font-size="10.00">ocra/optim/ObserverSubject</text>
<text text-anchor="middle" x="264" y="-74.5" font-family="Helvetica,sans-Serif" font-size="10.00">Base.h</text>
</a>
</g>
</g>
<!-- Node8&#45;&gt;Node9 -->
<g id="edge9" class="edge"><title>Node8&#45;&gt;Node9</title>
<path fill="none" stroke="midnightblue" d="M503.883,-134.475C461.265,-125.419 392.88,-110.887 340.009,-99.6518"/>
<polygon fill="midnightblue" stroke="midnightblue" points="340.5,-96.1781 329.99,-97.523 339.045,-103.025 340.5,-96.1781"/>
</g>
<!-- Node13 -->
<g id="node13" class="node"><title>Node13</title>
<polygon fill="white" stroke="#bfbfbf" points="0,-0.5 0,-30.5 100,-30.5 100,-0.5 0,-0.5"/>
<text text-anchor="start" x="8" y="-18.5" font-family="Helvetica,sans-Serif" font-size="10.00">boost/type_traits/is</text>
<text text-anchor="middle" x="50" y="-7.5" font-family="Helvetica,sans-Serif" font-size="10.00">_class.hpp</text>
</g>
<!-- Node8&#45;&gt;Node13 -->
<g id="edge21" class="edge"><title>Node8&#45;&gt;Node13</title>
<path fill="none" stroke="midnightblue" d="M470.759,-134.575C369.948,-122.865 199.286,-102.587 186,-98 144.858,-83.7945 102.653,-56.0437 76.3958,-36.9004"/>
<polygon fill="midnightblue" stroke="midnightblue" points="78.2447,-33.9142 68.127,-30.7704 74.0759,-39.5375 78.2447,-33.9142"/>
</g>
<!-- Node14 -->
<g id="node14" class="node"><title>Node14</title>
<polygon fill="white" stroke="#bfbfbf" points="410,-0.5 410,-30.5 510,-30.5 510,-0.5 410,-0.5"/>
<text text-anchor="start" x="418" y="-18.5" font-family="Helvetica,sans-Serif" font-size="10.00">boost/type_traits/is</text>
<text text-anchor="middle" x="460" y="-7.5" font-family="Helvetica,sans-Serif" font-size="10.00">_base_of.hpp</text>
</g>
<!-- Node8&#45;&gt;Node14 -->
<g id="edge19" class="edge"><title>Node8&#45;&gt;Node14</title>
<path fill="none" stroke="midnightblue" d="M485.129,-134.48C443.519,-127.113 392.935,-114.962 380,-98 371.645,-87.0442 373.348,-79.0656 380,-67 387.41,-53.5604 400.068,-43.204 413.156,-35.4704"/>
<polygon fill="midnightblue" stroke="midnightblue" points="415.119,-38.3868 422.227,-30.5298 411.771,-32.2395 415.119,-38.3868"/>
</g>
<!-- Node15 -->
<g id="node15" class="node"><title>Node15</title>
<polygon fill="white" stroke="#bfbfbf" points="528.5,-6 528.5,-25 647.5,-25 647.5,-6 528.5,-6"/>
<text text-anchor="middle" x="588" y="-13" font-family="Helvetica,sans-Serif" font-size="10.00">boost/static_assert.hpp</text>
</g>
<!-- Node8&#45;&gt;Node15 -->
<g id="edge18" class="edge"><title>Node8&#45;&gt;Node15</title>
<path fill="none" stroke="midnightblue" d="M545.714,-134.407C548.677,-120.154 555.287,-90.8344 564,-67 568.063,-55.8859 573.699,-43.9052 578.488,-34.4036"/>
<polygon fill="midnightblue" stroke="midnightblue" points="581.751,-35.7145 583.238,-25.2246 575.534,-32.4972 581.751,-35.7145"/>
</g>
<!-- Node17 -->
<g id="node17" class="node"><title>Node17</title>
<g id="a_node17"><a xlink:href="../../db/ddf/ocra__events_8h.html" target="_top" xlink:title="ocra/optim/ocra_events.h">
<polygon fill="white" stroke="black" points="389.5,-73 389.5,-92 516.5,-92 516.5,-73 389.5,-73"/>
<text text-anchor="middle" x="453" y="-80" font-family="Helvetica,sans-Serif" font-size="10.00">ocra/optim/ocra_events.h</text>
</a>
</g>
</g>
<!-- Node8&#45;&gt;Node17 -->
<g id="edge17" class="edge"><title>Node8&#45;&gt;Node17</title>
<path fill="none" stroke="midnightblue" d="M530.962,-134.475C516.231,-124.843 492.027,-109.017 474.491,-97.5517"/>
<polygon fill="midnightblue" stroke="midnightblue" points="476.299,-94.5522 466.014,-92.0091 472.468,-100.411 476.299,-94.5522"/>
</g>
<!-- Node18 -->
<g id="node18" class="node"><title>Node18</title>
<polygon fill="white" stroke="#bfbfbf" points="573,-67.5 573,-97.5 673,-97.5 673,-67.5 573,-67.5"/>
<text text-anchor="start" x="581" y="-85.5" font-family="Helvetica,sans-Serif" font-size="10.00">boost/type_traits/is</text>
<text text-anchor="middle" x="623" y="-74.5" font-family="Helvetica,sans-Serif" font-size="10.00">_convertible.hpp</text>
</g>
<!-- Node8&#45;&gt;Node18 -->
<g id="edge20" class="edge"><title>Node8&#45;&gt;Node18</title>
<path fill="none" stroke="midnightblue" d="M555.319,-134.475C565.918,-126.492 582.167,-114.254 596.086,-103.77"/>
<polygon fill="midnightblue" stroke="midnightblue" points="598.499,-106.335 604.381,-97.523 594.288,-100.743 598.499,-106.335"/>
</g>
<!-- Node10 -->
<g id="node10" class="node"><title>Node10</title>
<polygon fill="white" stroke="#bfbfbf" points="332.5,-6 332.5,-25 391.5,-25 391.5,-6 332.5,-6"/>
<text text-anchor="middle" x="362" y="-13" font-family="Helvetica,sans-Serif" font-size="10.00">functional</text>
</g>
<!-- Node9&#45;&gt;Node10 -->
<g id="edge10" class="edge"><title>Node9&#45;&gt;Node10</title>
<path fill="none" stroke="midnightblue" d="M285.265,-67.396C301.699,-56.4956 324.34,-41.4787 340.766,-30.5835"/>
<polygon fill="midnightblue" stroke="midnightblue" points="342.775,-33.4512 349.174,-25.007 338.906,-27.6177 342.775,-33.4512"/>
</g>
<!-- Node11 -->
<g id="node11" class="node"><title>Node11</title>
<polygon fill="white" stroke="#bfbfbf" points="951,-6 951,-25 1007,-25 1007,-6 951,-6"/>
<text text-anchor="middle" x="979" y="-13" font-family="Helvetica,sans-Serif" font-size="10.00">algorithm</text>
</g>
<!-- Node9&#45;&gt;Node11 -->
<g id="edge11" class="edge"><title>Node9&#45;&gt;Node11</title>
<path fill="none" stroke="midnightblue" d="M333.261,-72.3795C348.636,-70.484 364.861,-68.5837 380,-67 591.596,-44.8648 846.037,-25.9597 940.908,-19.1768"/>
<polygon fill="midnightblue" stroke="midnightblue" points="941.168,-22.6672 950.894,-18.4655 940.67,-15.6849 941.168,-22.6672"/>
</g>
<!-- Node12 -->
<g id="node12" class="node"><title>Node12</title>
<polygon fill="white" stroke="#bfbfbf" points="118,-6 118,-25 196,-25 196,-6 118,-6"/>
<text text-anchor="middle" x="157" y="-13" font-family="Helvetica,sans-Serif" font-size="10.00">boost/any.hpp</text>
</g>
<!-- Node9&#45;&gt;Node12 -->
<g id="edge12" class="edge"><title>Node9&#45;&gt;Node12</title>
<path fill="none" stroke="midnightblue" d="M240.783,-67.396C222.673,-56.3947 197.66,-41.2002 179.687,-30.2819"/>
<polygon fill="midnightblue" stroke="midnightblue" points="181.368,-27.2076 171.004,-25.007 177.733,-33.1902 181.368,-27.2076"/>
</g>
<!-- Node9&#45;&gt;Node13 -->
<g id="edge13" class="edge"><title>Node9&#45;&gt;Node13</title>
<path fill="none" stroke="midnightblue" d="M217.829,-67.476C185.174,-57.5574 141.2,-44.201 106.457,-33.6481"/>
<polygon fill="midnightblue" stroke="midnightblue" points="107.043,-30.1683 96.4575,-30.6109 105.009,-36.8662 107.043,-30.1683"/>
</g>
<!-- Node9&#45;&gt;Node14 -->
<g id="edge14" class="edge"><title>Node9&#45;&gt;Node14</title>
<path fill="none" stroke="midnightblue" d="M306.529,-67.396C336.323,-57.5154 376.316,-44.2525 408.006,-33.7429"/>
<polygon fill="midnightblue" stroke="midnightblue" points="409.164,-37.0464 417.554,-30.5765 406.961,-30.4022 409.164,-37.0464"/>
</g>
<!-- Node9&#45;&gt;Node15 -->
<g id="edge15" class="edge"><title>Node9&#45;&gt;Node15</title>
<path fill="none" stroke="midnightblue" d="M333.04,-68.0527C384.367,-58.0006 456.098,-43.8373 519,-31 525.139,-29.7471 531.582,-28.4155 537.962,-27.0868"/>
<polygon fill="midnightblue" stroke="midnightblue" points="538.809,-30.4852 547.882,-25.0129 537.377,-23.6334 538.809,-30.4852"/>
</g>
<!-- Node16 -->
<g id="node16" class="node"><title>Node16</title>
<polygon fill="white" stroke="#bfbfbf" points="214,-0.5 214,-30.5 314,-30.5 314,-0.5 214,-0.5"/>
<text text-anchor="start" x="222" y="-18.5" font-family="Helvetica,sans-Serif" font-size="10.00">boost/ptr_container</text>
<text text-anchor="middle" x="264" y="-7.5" font-family="Helvetica,sans-Serif" font-size="10.00">/ptr_vector.hpp</text>
</g>
<!-- Node9&#45;&gt;Node16 -->
<g id="edge16" class="edge"><title>Node9&#45;&gt;Node16</title>
<path fill="none" stroke="midnightblue" d="M264,-67.396C264,-59.6448 264,-49.8122 264,-40.8601"/>
<polygon fill="midnightblue" stroke="midnightblue" points="267.5,-40.5765 264,-30.5765 260.5,-40.5765 267.5,-40.5765"/>
</g>
<!-- Node19&#45;&gt;Node8 -->
<g id="edge23" class="edge"><title>Node19&#45;&gt;Node8</title>
<path fill="none" stroke="midnightblue" d="M780.475,-190.444C731.044,-180.944 651.254,-165.611 598.222,-155.42"/>
<polygon fill="midnightblue" stroke="midnightblue" points="598.798,-151.967 588.317,-153.516 597.477,-158.841 598.798,-151.967"/>
</g>
<!-- Node20 -->
<g id="node20" class="node"><title>Node20</title>
<g id="a_node20"><a xlink:href="../../d1/de6/Composite_8h.html" target="_top" xlink:title="Utility classes and functions to implement the Composite design pattern. ">
<polygon fill="white" stroke="black" points="877.5,-134.5 877.5,-153.5 998.5,-153.5 998.5,-134.5 877.5,-134.5"/>
<text text-anchor="middle" x="938" y="-141.5" font-family="Helvetica,sans-Serif" font-size="10.00">ocra/optim/Composite.h</text>
</a>
</g>
</g>
<!-- Node19&#45;&gt;Node20 -->
<g id="edge24" class="edge"><title>Node19&#45;&gt;Node20</title>
<path fill="none" stroke="midnightblue" d="M842.905,-190.444C861.254,-181.675 890.005,-167.935 911.094,-157.858"/>
<polygon fill="midnightblue" stroke="midnightblue" points="912.665,-160.986 920.179,-153.516 909.647,-154.67 912.665,-160.986"/>
</g>
<!-- Node23 -->
<g id="node23" class="node"><title>Node23</title>
<polygon fill="white" stroke="#bfbfbf" points="691.5,-73 691.5,-92 808.5,-92 808.5,-73 691.5,-73"/>
<text text-anchor="middle" x="750" y="-80" font-family="Helvetica,sans-Serif" font-size="10.00">boost/noncopyable.hpp</text>
</g>
<!-- Node19&#45;&gt;Node23 -->
<g id="edge37" class="edge"><title>Node19&#45;&gt;Node23</title>
<path fill="none" stroke="midnightblue" d="M812.273,-190.382C801.06,-182.198 784.997,-168.951 775,-154 764.416,-138.171 757.755,-117.347 753.995,-102.442"/>
<polygon fill="midnightblue" stroke="midnightblue" points="757.331,-101.334 751.668,-92.3794 750.511,-102.911 757.331,-101.334"/>
</g>
<!-- Node25 -->
<g id="node25" class="node"><title>Node25</title>
<polygon fill="white" stroke="#bfbfbf" points="827,-73 827,-92 871,-92 871,-73 827,-73"/>
<text text-anchor="middle" x="849" y="-80" font-family="Helvetica,sans-Serif" font-size="10.00">vector</text>
</g>
<!-- Node19&#45;&gt;Node25 -->
<g id="edge39" class="edge"><title>Node19&#45;&gt;Node25</title>
<path fill="none" stroke="midnightblue" d="M811.919,-190.407C795.345,-178.372 770.162,-155.548 781,-134 789.184,-117.728 805.369,-105.379 819.895,-96.9673"/>
<polygon fill="midnightblue" stroke="midnightblue" points="821.958,-99.8314 829.101,-92.0062 818.637,-93.6693 821.958,-99.8314"/>
</g>
<!-- Node28 -->
<g id="node28" class="node"><title>Node28</title>
<polygon fill="white" stroke="#bfbfbf" points="790.5,-134.5 790.5,-153.5 859.5,-153.5 859.5,-134.5 790.5,-134.5"/>
<text text-anchor="middle" x="825" y="-141.5" font-family="Helvetica,sans-Serif" font-size="10.00">Eigen/Eigen</text>
</g>
<!-- Node19&#45;&gt;Node28 -->
<g id="edge36" class="edge"><title>Node19&#45;&gt;Node28</title>
<path fill="none" stroke="midnightblue" d="M825,-190.083C825,-183.006 825,-172.861 825,-163.986"/>
<polygon fill="midnightblue" stroke="midnightblue" points="828.5,-163.751 825,-153.751 821.5,-163.751 828.5,-163.751"/>
</g>
<!-- Node19&#45;&gt;Node29 -->
<g id="edge38" class="edge"><title>Node19&#45;&gt;Node29</title>
<path fill="none" stroke="midnightblue" d="M861.74,-190.475C896.581,-182.267 950.608,-169.219 1006.64,-153.994"/>
<polygon fill="midnightblue" stroke="midnightblue" points="1007.66,-157.344 1016.38,-151.331 1005.81,-150.592 1007.66,-157.344"/>
</g>
<!-- Node20&#45;&gt;Node11 -->
<g id="edge33" class="edge"><title>Node20&#45;&gt;Node11</title>
<path fill="none" stroke="midnightblue" d="M998.56,-135.1C1086.61,-123.474 1240,-102.629 1244,-98 1307.72,-24.2279 1104.78,-16.1718 1017.21,-16.0256"/>
<polygon fill="midnightblue" stroke="midnightblue" points="1017.12,-12.5256 1007.13,-16.0431 1017.13,-19.5256 1017.12,-12.5256"/>
</g>
<!-- Node20&#45;&gt;Node14 -->
<g id="edge29" class="edge"><title>Node20&#45;&gt;Node14</title>
<path fill="none" stroke="midnightblue" d="M932.627,-134.298C921.197,-116.093 894.348,-75.0096 880,-67 812.15,-29.1221 613.531,-43.503 520.155,-30.8664"/>
<polygon fill="midnightblue" stroke="midnightblue" points="520.525,-27.3823 510.11,-29.3272 519.465,-34.3016 520.525,-27.3823"/>
</g>
<!-- Node20&#45;&gt;Node15 -->
<g id="edge28" class="edge"><title>Node20&#45;&gt;Node15</title>
<path fill="none" stroke="midnightblue" d="M937.907,-134.36C937.23,-118.377 933.336,-84.2533 913,-67 875.539,-35.2171 741.603,-23.3447 657.81,-18.9763"/>
<polygon fill="midnightblue" stroke="midnightblue" points="657.759,-15.4695 647.597,-18.4679 657.411,-22.4608 657.759,-15.4695"/>
</g>
<!-- Node20&#45;&gt;Node18 -->
<g id="edge30" class="edge"><title>Node20&#45;&gt;Node18</title>
<path fill="none" stroke="midnightblue" d="M883.363,-134.484C833.626,-126.486 757.954,-113.706 683.218,-98.1777"/>
<polygon fill="midnightblue" stroke="midnightblue" points="683.665,-94.6954 673.16,-96.0697 682.229,-101.547 683.665,-94.6954"/>
</g>
<!-- Node21 -->
<g id="node21" class="node"><title>Node21</title>
<g id="a_node21"><a xlink:href="../../de/df3/ocra__assert_8h.html" target="_top" xlink:title="ocra/optim/ocra_assert.h">
<polygon fill="white" stroke="black" points="1291.5,-73 1291.5,-92 1416.5,-92 1416.5,-73 1291.5,-73"/>
<text text-anchor="middle" x="1354" y="-80" font-family="Helvetica,sans-Serif" font-size="10.00">ocra/optim/ocra_assert.h</text>
</a>
</g>
</g>
<!-- Node20&#45;&gt;Node21 -->
<g id="edge25" class="edge"><title>Node20&#45;&gt;Node21</title>
<path fill="none" stroke="midnightblue" d="M998.803,-135.111C1088.92,-123.391 1250.22,-102.296 1277,-98 1284.74,-96.7578 1292.91,-95.3397 1300.9,-93.8878"/>
<polygon fill="midnightblue" stroke="midnightblue" points="1301.71,-97.299 1310.9,-92.0415 1300.43,-90.4154 1301.71,-97.299"/>
</g>
<!-- Node20&#45;&gt;Node23 -->
<g id="edge27" class="edge"><title>Node20&#45;&gt;Node23</title>
<path fill="none" stroke="midnightblue" d="M911.064,-134.475C878.397,-124.136 823.181,-106.661 786.657,-95.1017"/>
<polygon fill="midnightblue" stroke="midnightblue" points="787.476,-91.6897 776.886,-92.0091 785.364,-98.3634 787.476,-91.6897"/>
</g>
<!-- Node24 -->
<g id="node24" class="node"><title>Node24</title>
<polygon fill="white" stroke="#bfbfbf" points="965.5,-67.5 965.5,-97.5 1094.5,-97.5 1094.5,-67.5 965.5,-67.5"/>
<text text-anchor="start" x="973.5" y="-85.5" font-family="Helvetica,sans-Serif" font-size="10.00">boost/type_traits/has</text>
<text text-anchor="middle" x="1030" y="-74.5" font-family="Helvetica,sans-Serif" font-size="10.00">_nothrow_constructor.hpp</text>
</g>
<!-- Node20&#45;&gt;Node24 -->
<g id="edge31" class="edge"><title>Node20&#45;&gt;Node24</title>
<path fill="none" stroke="midnightblue" d="M951.181,-134.475C963.758,-126.341 983.164,-113.791 999.572,-103.179"/>
<polygon fill="midnightblue" stroke="midnightblue" points="1001.82,-105.893 1008.32,-97.523 998.02,-100.015 1001.82,-105.893"/>
</g>
<!-- Node20&#45;&gt;Node25 -->
<g id="edge32" class="edge"><title>Node20&#45;&gt;Node25</title>
<path fill="none" stroke="midnightblue" d="M925.248,-134.475C910.973,-124.931 887.603,-109.307 870.492,-97.8683"/>
<polygon fill="midnightblue" stroke="midnightblue" points="871.986,-94.6572 861.728,-92.0091 868.096,-100.477 871.986,-94.6572"/>
</g>
<!-- Node26 -->
<g id="node26" class="node"><title>Node26</title>
<polygon fill="white" stroke="#bfbfbf" points="1112.5,-73 1112.5,-92 1157.5,-92 1157.5,-73 1112.5,-73"/>
<text text-anchor="middle" x="1135" y="-80" font-family="Helvetica,sans-Serif" font-size="10.00">iosfwd</text>
</g>
<!-- Node20&#45;&gt;Node26 -->
<g id="edge34" class="edge"><title>Node20&#45;&gt;Node26</title>
<path fill="none" stroke="midnightblue" d="M976.829,-134.483C1010.85,-126.548 1061.38,-113.611 1104,-98 1105.61,-97.4099 1107.25,-96.7685 1108.9,-96.0948"/>
<polygon fill="midnightblue" stroke="midnightblue" points="1110.43,-99.2469 1118.17,-92.0163 1107.61,-92.8395 1110.43,-99.2469"/>
</g>
<!-- Node27 -->
<g id="node27" class="node"><title>Node27</title>
<polygon fill="white" stroke="#bfbfbf" points="1175.5,-73 1175.5,-92 1234.5,-92 1234.5,-73 1175.5,-73"/>
<text text-anchor="middle" x="1205" y="-80" font-family="Helvetica,sans-Serif" font-size="10.00">stdexcept</text>
</g>
<!-- Node20&#45;&gt;Node27 -->
<g id="edge35" class="edge"><title>Node20&#45;&gt;Node27</title>
<path fill="none" stroke="midnightblue" d="M995.579,-134.48C1042.28,-126.904 1109.55,-114.474 1167,-98 1169.58,-97.2591 1172.24,-96.418 1174.89,-95.5228"/>
<polygon fill="midnightblue" stroke="midnightblue" points="1176.09,-98.8101 1184.31,-92.1267 1173.72,-92.2247 1176.09,-98.8101"/>
</g>
<!-- Node22 -->
<g id="node22" class="node"><title>Node22</title>
<polygon fill="white" stroke="#bfbfbf" points="1332.5,-6 1332.5,-25 1375.5,-25 1375.5,-6 1332.5,-6"/>
<text text-anchor="middle" x="1354" y="-13" font-family="Helvetica,sans-Serif" font-size="10.00">cstdio</text>
</g>
<!-- Node21&#45;&gt;Node22 -->
<g id="edge26" class="edge"><title>Node21&#45;&gt;Node22</title>
<path fill="none" stroke="midnightblue" d="M1354,-72.7338C1354,-63.1826 1354,-47.6183 1354,-35.2829"/>
<polygon fill="midnightblue" stroke="midnightblue" points="1357.5,-35.1273 1354,-25.1273 1350.5,-35.1273 1357.5,-35.1273"/>
</g>
<!-- Node30&#45;&gt;Node29 -->
<g id="edge41" class="edge"><title>Node30&#45;&gt;Node29</title>
<path fill="none" stroke="midnightblue" d="M1030.32,-190.083C1031.38,-182.927 1032.91,-172.635 1034.23,-163.691"/>
<polygon fill="midnightblue" stroke="midnightblue" points="1037.7,-164.156 1035.7,-153.751 1030.78,-163.13 1037.7,-164.156"/>
</g>
<!-- Node31&#45;&gt;Node8 -->
<g id="edge43" class="edge"><title>Node31&#45;&gt;Node8</title>
<path fill="none" stroke="midnightblue" d="M362.226,-190.444C399.512,-181.122 459.269,-166.183 500.011,-155.997"/>
<polygon fill="midnightblue" stroke="midnightblue" points="501.082,-159.337 509.934,-153.516 499.384,-152.546 501.082,-159.337"/>
</g>
<!-- Node32 -->
<g id="node32" class="node"><title>Node32</title>
<polygon fill="white" stroke="#bfbfbf" points="191.5,-134.5 191.5,-153.5 256.5,-153.5 256.5,-134.5 191.5,-134.5"/>
<text text-anchor="middle" x="224" y="-141.5" font-family="Helvetica,sans-Serif" font-size="10.00">Eigen/Core</text>
</g>
<!-- Node31&#45;&gt;Node32 -->
<g id="edge44" class="edge"><title>Node31&#45;&gt;Node32</title>
<path fill="none" stroke="midnightblue" d="M311.291,-190.324C294.688,-181.703 268.998,-168.364 249.78,-158.386"/>
<polygon fill="midnightblue" stroke="midnightblue" points="251.156,-155.156 240.668,-153.655 247.93,-161.369 251.156,-155.156"/>
</g>
<!-- Node33 -->
<g id="node33" class="node"><title>Node33</title>
<polygon fill="white" stroke="#bfbfbf" points="275,-134.5 275,-153.5 383,-153.5 383,-134.5 275,-134.5"/>
<text text-anchor="middle" x="329" y="-141.5" font-family="Helvetica,sans-Serif" font-size="10.00">boost/shared_ptr.hpp</text>
</g>
<!-- Node31&#45;&gt;Node33 -->
<g id="edge45" class="edge"><title>Node31&#45;&gt;Node33</title>
<path fill="none" stroke="midnightblue" d="M328.165,-190.083C328.296,-183.006 328.484,-172.861 328.648,-163.986"/>
<polygon fill="midnightblue" stroke="midnightblue" points="332.152,-163.814 328.838,-153.751 325.153,-163.685 332.152,-163.814"/>
</g>
<!-- Node35 -->
<g id="node35" class="node"><title>Node35</title>
<polygon fill="white" stroke="#bfbfbf" points="401,-134.5 401,-153.5 453,-153.5 453,-134.5 401,-134.5"/>
<text text-anchor="middle" x="427" y="-141.5" font-family="Helvetica,sans-Serif" font-size="10.00">memory</text>
</g>
<!-- Node34&#45;&gt;Node35 -->
<g id="edge47" class="edge"><title>Node34&#45;&gt;Node35</title>
<path fill="none" stroke="midnightblue" d="M459.56,-190.083C454.051,-182.455 445.969,-171.264 439.235,-161.941"/>
<polygon fill="midnightblue" stroke="midnightblue" points="442.013,-159.809 433.32,-153.751 436.338,-163.907 442.013,-159.809"/>
</g>
</g>
</svg>
