<?xml version="1.0" encoding="UTF-8" standalone="no"?>
<!DOCTYPE svg PUBLIC "-//W3C//DTD SVG 1.1//EN"
 "http://www.w3.org/Graphics/SVG/1.1/DTD/svg11.dtd">
<!-- Generated by graphviz version 2.38.0 (20140413.2041)
 -->
<!-- Title: EigenUtilities.h Pages: 1 -->
<svg width="230pt" height="84pt"
 viewBox="0.00 0.00 229.50 84.00" xmlns="http://www.w3.org/2000/svg" xmlns:xlink="http://www.w3.org/1999/xlink">
<g id="graph0" class="graph" transform="scale(1 1) rotate(0) translate(4 80)">
<title>EigenUtilities.h</title>
<polygon fill="white" stroke="none" points="-4,4 -4,-80 225.5,-80 225.5,4 -4,4"/>
<!-- Node1 -->
<g id="node1" class="node"><title>Node1</title>
<polygon fill="#bfbfbf" stroke="black" points="84,-56.5 84,-75.5 167,-75.5 167,-56.5 84,-56.5"/>
<text text-anchor="middle" x="125.5" y="-63.5" font-family="Helvetica,sans-Serif" font-size="10.00">EigenUtilities.h</text>
</g>
<!-- Node2 -->
<g id="node2" class="node"><title>Node2</title>
<polygon fill="white" stroke="#bfbfbf" points="0,-0.5 0,-19.5 73,-19.5 73,-0.5 0,-0.5"/>
<text text-anchor="middle" x="36.5" y="-7.5" font-family="Helvetica,sans-Serif" font-size="10.00">Eigen/Dense</text>
</g>
<!-- Node1&#45;&gt;Node2 -->
<g id="edge1" class="edge"><title>Node1&#45;&gt;Node2</title>
<path fill="none" stroke="midnightblue" d="M111.201,-56.324C97.3171,-47.9002 76.0076,-34.9709 59.6963,-25.0741"/>
<polygon fill="midnightblue" stroke="midnightblue" points="61.1289,-21.8495 50.7639,-19.6545 57.4978,-27.8341 61.1289,-21.8495"/>
</g>
<!-- Node3 -->
<g id="node3" class="node"><title>Node3</title>
<polygon fill="white" stroke="#bfbfbf" points="91.5,-0.5 91.5,-19.5 159.5,-19.5 159.5,-0.5 91.5,-0.5"/>
<text text-anchor="middle" x="125.5" y="-7.5" font-family="Helvetica,sans-Serif" font-size="10.00">Eigen/Lgsm</text>
</g>
<!-- Node1&#45;&gt;Node3 -->
<g id="edge2" class="edge"><title>Node1&#45;&gt;Node3</title>
<path fill="none" stroke="midnightblue" d="M125.5,-56.083C125.5,-49.0059 125.5,-38.8611 125.5,-29.9865"/>
<polygon fill="midnightblue" stroke="midnightblue" points="129,-29.751 125.5,-19.7511 122,-29.7511 129,-29.751"/>
</g>
<!-- Node4 -->
<g id="node4" class="node"><title>Node4</title>
<polygon fill="white" stroke="#bfbfbf" points="177.5,-0.5 177.5,-19.5 221.5,-19.5 221.5,-0.5 177.5,-0.5"/>
<text text-anchor="middle" x="199.5" y="-7.5" font-family="Helvetica,sans-Serif" font-size="10.00">vector</text>
</g>
<!-- Node1&#45;&gt;Node4 -->
<g id="edge3" class="edge"><title>Node1&#45;&gt;Node4</title>
<path fill="none" stroke="midnightblue" d="M137.389,-56.324C148.65,-48.1066 165.787,-35.6017 179.209,-25.8069"/>
<polygon fill="midnightblue" stroke="midnightblue" points="181.38,-28.5559 187.394,-19.8339 177.253,-22.9014 181.38,-28.5559"/>
</g>
</g>
</svg>
