<?xml version="1.0" encoding="UTF-8" standalone="no"?>
<!DOCTYPE svg PUBLIC "-//W3C//DTD SVG 1.1//EN"
 "http://www.w3.org/Graphics/SVG/1.1/DTD/svg11.dtd">
<!-- Generated by graphviz version 2.38.0 (20140413.2041)
 -->
<!-- Title: ocra::RowFunction&lt; T &gt; Pages: 1 -->
<svg width="268pt" height="84pt"
 viewBox="0.00 0.00 268.00 84.00" xmlns="http://www.w3.org/2000/svg" xmlns:xlink="http://www.w3.org/1999/xlink">
<g id="graph0" class="graph" transform="scale(1 1) rotate(0) translate(4 80)">
<title>ocra::RowFunction&lt; T &gt;</title>
<polygon fill="white" stroke="none" points="-4,4 -4,-80 264,-80 264,4 -4,4"/>
<!-- Node1 -->
<g id="node1" class="node"><title>Node1</title>
<polygon fill="#bfbfbf" stroke="black" points="54,-0.5 54,-19.5 177,-19.5 177,-0.5 54,-0.5"/>
<text text-anchor="middle" x="115.5" y="-7.5" font-family="Helvetica,sans-Serif" font-size="10.00">ocra::RowFunction&lt; T &gt;</text>
</g>
<!-- Node2 -->
<g id="node2" class="node"><title>Node2</title>
<polygon fill="white" stroke="#bfbfbf" points="0,-56.5 0,-75.5 93,-75.5 93,-56.5 0,-56.5"/>
<text text-anchor="middle" x="46.5" y="-63.5" font-family="Helvetica,sans-Serif" font-size="10.00">T::functionType_t</text>
</g>
<!-- Node2&#45;&gt;Node1 -->
<g id="edge1" class="edge"><title>Node2&#45;&gt;Node1</title>
<path fill="none" stroke="midnightblue" d="M65.5379,-50.1008C77.9558,-40.3824 93.7434,-28.0269 104.212,-19.8339"/>
<polygon fill="midnightblue" stroke="midnightblue" points="63.304,-47.4046 57.586,-56.324 67.6182,-52.9171 63.304,-47.4046"/>
</g>
<!-- Node3 -->
<g id="node3" class="node"><title>Node3</title>
<polygon fill="white" stroke="#bfbfbf" points="111,-56.5 111,-75.5 260,-75.5 260,-56.5 111,-56.5"/>
<text text-anchor="middle" x="185.5" y="-63.5" font-family="Helvetica,sans-Serif" font-size="10.00">IsDerivedFrom&lt; T, Function &gt;</text>
</g>
<!-- Node3&#45;&gt;Node1 -->
<g id="edge2" class="edge"><title>Node3&#45;&gt;Node1</title>
<path fill="none" stroke="#8b1a1a" d="M166.186,-50.1008C153.588,-40.3824 137.572,-28.0269 126.951,-19.8339"/>
<polygon fill="#8b1a1a" stroke="#8b1a1a" points="164.198,-52.9871 174.253,-56.324 168.473,-47.4446 164.198,-52.9871"/>
</g>
</g>
</svg>
