<?xml version="1.0" encoding="UTF-8" standalone="no"?>
<!DOCTYPE svg PUBLIC "-//W3C//DTD SVG 1.1//EN"
 "http://www.w3.org/Graphics/SVG/1.1/DTD/svg11.dtd">
<!-- Generated by graphviz version 2.38.0 (20140413.2041)
 -->
<!-- Title: ocra::FullState::Pimpl Pages: 1 -->
<svg width="748pt" height="284pt"
 viewBox="0.00 0.00 748.00 284.00" xmlns="http://www.w3.org/2000/svg" xmlns:xlink="http://www.w3.org/1999/xlink">
<g id="graph0" class="graph" transform="scale(1 1) rotate(0) translate(4 280)">
<title>ocra::FullState::Pimpl</title>
<polygon fill="white" stroke="none" points="-4,4 -4,-280 744,-280 744,4 -4,4"/>
<!-- Node1 -->
<g id="node1" class="node"><title>Node1</title>
<polygon fill="#bfbfbf" stroke="black" points="629,-104 629,-123 740,-123 740,-104 629,-104"/>
<text text-anchor="middle" x="684.5" y="-111" font-family="Helvetica,sans-Serif" font-size="10.00">ocra::FullState::Pimpl</text>
</g>
<!-- Node2 -->
<g id="node2" class="node"><title>Node2</title>
<g id="a_node2"><a xlink:href="../../d4/d00/classocra_1_1Model.html" target="_top" xlink:title="Model class. ">
<polygon fill="white" stroke="black" points="495,-124 495,-143 563,-143 563,-124 495,-124"/>
<text text-anchor="middle" x="529" y="-131" font-family="Helvetica,sans-Serif" font-size="10.00">ocra::Model</text>
</a>
</g>
</g>
<!-- Node2&#45;&gt;Node1 -->
<g id="edge1" class="edge"><title>Node2&#45;&gt;Node1</title>
<path fill="none" stroke="#9a32cd" stroke-dasharray="5,2" d="M573.609,-127.818C590.787,-125.58 610.708,-122.984 628.833,-120.623"/>
<polygon fill="#9a32cd" stroke="#9a32cd" points="572.771,-124.398 563.307,-129.16 573.676,-131.339 572.771,-124.398"/>
<text text-anchor="middle" x="596" y="-128.5" font-family="Helvetica,sans-Serif" font-size="10.00"> model</text>
</g>
<!-- Node3 -->
<g id="node3" class="node"><title>Node3</title>
<g id="a_node3"><a xlink:href="../../d3/d16/classocra_1_1ObserverSubject.html" target="_top" xlink:title="ocra::ObserverSubject">
<polygon fill="white" stroke="black" points="344,-143 344,-162 458,-162 458,-143 344,-143"/>
<text text-anchor="middle" x="401" y="-150" font-family="Helvetica,sans-Serif" font-size="10.00">ocra::ObserverSubject</text>
</a>
</g>
</g>
<!-- Node3&#45;&gt;Node2 -->
<g id="edge2" class="edge"><title>Node3&#45;&gt;Node2</title>
<path fill="none" stroke="midnightblue" d="M468.324,-142.499C477.501,-141.115 486.583,-139.745 494.789,-138.508"/>
<polygon fill="midnightblue" stroke="midnightblue" points="467.733,-139.048 458.366,-144 468.777,-145.97 467.733,-139.048"/>
</g>
<!-- Node4 -->
<g id="node4" class="node"><title>Node4</title>
<g id="a_node4"><a xlink:href="../../d2/d45/classocra_1_1Observer.html" target="_top" xlink:title="ocra::Observer">
<polygon fill="white" stroke="black" points="226,-177 226,-196 307,-196 307,-177 226,-177"/>
<text text-anchor="middle" x="266.5" y="-184" font-family="Helvetica,sans-Serif" font-size="10.00">ocra::Observer</text>
</a>
</g>
</g>
<!-- Node4&#45;&gt;Node3 -->
<g id="edge3" class="edge"><title>Node4&#45;&gt;Node3</title>
<path fill="none" stroke="midnightblue" d="M314.805,-174.361C330.49,-170.337 347.722,-165.915 362.559,-162.107"/>
<polygon fill="midnightblue" stroke="midnightblue" points="313.577,-171.063 304.761,-176.939 315.317,-177.843 313.577,-171.063"/>
</g>
<!-- Node5 -->
<g id="node5" class="node"><title>Node5</title>
<g id="a_node5"><a xlink:href="../../d4/dee/classocra_1_1ObserverBase.html" target="_top" xlink:title="ocra::ObserverBase\l\&lt; EVT_RESIZE \&gt;">
<polygon fill="white" stroke="black" points="42.5,-245.5 42.5,-275.5 146.5,-275.5 146.5,-245.5 42.5,-245.5"/>
<text text-anchor="start" x="50.5" y="-263.5" font-family="Helvetica,sans-Serif" font-size="10.00">ocra::ObserverBase</text>
<text text-anchor="middle" x="94.5" y="-252.5" font-family="Helvetica,sans-Serif" font-size="10.00">&lt; EVT_RESIZE &gt;</text>
</a>
</g>
</g>
<!-- Node5&#45;&gt;Node4 -->
<g id="edge4" class="edge"><title>Node5&#45;&gt;Node4</title>
<path fill="none" stroke="midnightblue" d="M156.912,-247.812C167.814,-244.698 178.902,-240.95 189,-236.5 213.537,-225.687 239.017,-207.36 253.501,-196.153"/>
<polygon fill="midnightblue" stroke="midnightblue" points="155.726,-244.507 146.986,-250.495 157.553,-251.264 155.726,-244.507"/>
</g>
<!-- Node6 -->
<g id="node6" class="node"><title>Node6</title>
<g id="a_node6"><a xlink:href="../../d4/dee/classocra_1_1ObserverBase.html" target="_top" xlink:title="ocra::ObserverBase\l\&lt; EVT_CHANGE_DEPENDENCIES \&gt;">
<polygon fill="white" stroke="black" points="0,-196.5 0,-226.5 189,-226.5 189,-196.5 0,-196.5"/>
<text text-anchor="start" x="8" y="-214.5" font-family="Helvetica,sans-Serif" font-size="10.00">ocra::ObserverBase</text>
<text text-anchor="middle" x="94.5" y="-203.5" font-family="Helvetica,sans-Serif" font-size="10.00">&lt; EVT_CHANGE_DEPENDENCIES &gt;</text>
</a>
</g>
</g>
<!-- Node6&#45;&gt;Node4 -->
<g id="edge5" class="edge"><title>Node6&#45;&gt;Node4</title>
<path fill="none" stroke="midnightblue" d="M199.529,-196.202C208.724,-194.849 217.605,-193.543 225.713,-192.351"/>
<polygon fill="midnightblue" stroke="midnightblue" points="198.834,-192.766 189.45,-197.684 199.853,-199.692 198.834,-192.766"/>
</g>
<!-- Node7 -->
<g id="node7" class="node"><title>Node7</title>
<g id="a_node7"><a xlink:href="../../d4/dee/classocra_1_1ObserverBase.html" target="_top" xlink:title="ocra::ObserverBase\l\&lt; EVT_CHANGE_VALUE \&gt;">
<polygon fill="white" stroke="black" points="24,-147.5 24,-177.5 165,-177.5 165,-147.5 24,-147.5"/>
<text text-anchor="start" x="32" y="-165.5" font-family="Helvetica,sans-Serif" font-size="10.00">ocra::ObserverBase</text>
<text text-anchor="middle" x="94.5" y="-154.5" font-family="Helvetica,sans-Serif" font-size="10.00">&lt; EVT_CHANGE_VALUE &gt;</text>
</a>
</g>
</g>
<!-- Node7&#45;&gt;Node4 -->
<g id="edge6" class="edge"><title>Node7&#45;&gt;Node4</title>
<path fill="none" stroke="midnightblue" d="M175.415,-173.782C192.968,-176.26 210.811,-178.779 225.936,-180.914"/>
<polygon fill="midnightblue" stroke="midnightblue" points="175.527,-170.263 165.136,-172.331 174.549,-177.195 175.527,-170.263"/>
</g>
<!-- Node8 -->
<g id="node8" class="node"><title>Node8</title>
<g id="a_node8"><a xlink:href="../../dc/d77/classocra_1_1Subject.html" target="_top" xlink:title="ocra::Subject">
<polygon fill="white" stroke="black" points="229.5,-76 229.5,-95 303.5,-95 303.5,-76 229.5,-76"/>
<text text-anchor="middle" x="266.5" y="-83" font-family="Helvetica,sans-Serif" font-size="10.00">ocra::Subject</text>
</a>
</g>
</g>
<!-- Node8&#45;&gt;Node3 -->
<g id="edge7" class="edge"><title>Node8&#45;&gt;Node3</title>
<path fill="none" stroke="midnightblue" d="M289.264,-101.075C304.163,-111.248 324.651,-124.302 344,-133.5 351.418,-137.026 359.668,-140.204 367.507,-142.907"/>
<polygon fill="midnightblue" stroke="midnightblue" points="290.979,-98.0051 280.77,-95.1734 286.985,-103.754 290.979,-98.0051"/>
</g>
<!-- Node9 -->
<g id="node9" class="node"><title>Node9</title>
<g id="a_node9"><a xlink:href="../../dc/d29/classocra_1_1SubjectBase.html" target="_top" xlink:title="ocra::SubjectBase\&lt;\l EVT_RESIZE \&gt;">
<polygon fill="white" stroke="black" points="43,-98.5 43,-128.5 146,-128.5 146,-98.5 43,-98.5"/>
<text text-anchor="start" x="51" y="-116.5" font-family="Helvetica,sans-Serif" font-size="10.00">ocra::SubjectBase&lt;</text>
<text text-anchor="middle" x="94.5" y="-105.5" font-family="Helvetica,sans-Serif" font-size="10.00"> EVT_RESIZE &gt;</text>
</a>
</g>
</g>
<!-- Node9&#45;&gt;Node8 -->
<g id="edge8" class="edge"><title>Node9&#45;&gt;Node8</title>
<path fill="none" stroke="midnightblue" d="M156.006,-103.534C180.573,-99.4879 208.125,-94.9499 229.446,-91.4383"/>
<polygon fill="midnightblue" stroke="midnightblue" points="155.344,-100.096 146.045,-105.175 156.481,-107.003 155.344,-100.096"/>
</g>
<!-- Node10 -->
<g id="node10" class="node"><title>Node10</title>
<g id="a_node10"><a xlink:href="../../dc/d29/classocra_1_1SubjectBase.html" target="_top" xlink:title="ocra::SubjectBase\&lt;\l EVT_CHANGE_DEPENDENCIES \&gt;">
<polygon fill="white" stroke="black" points="3,-49.5 3,-79.5 186,-79.5 186,-49.5 3,-49.5"/>
<text text-anchor="start" x="11" y="-67.5" font-family="Helvetica,sans-Serif" font-size="10.00">ocra::SubjectBase&lt;</text>
<text text-anchor="middle" x="94.5" y="-56.5" font-family="Helvetica,sans-Serif" font-size="10.00"> EVT_CHANGE_DEPENDENCIES &gt;</text>
</a>
</g>
</g>
<!-- Node10&#45;&gt;Node8 -->
<g id="edge9" class="edge"><title>Node10&#45;&gt;Node8</title>
<path fill="none" stroke="midnightblue" d="M196.712,-77.0027C208.269,-78.4303 219.411,-79.8066 229.239,-81.0207"/>
<polygon fill="midnightblue" stroke="midnightblue" points="196.826,-73.4902 186.472,-75.7377 195.968,-80.4374 196.826,-73.4902"/>
</g>
<!-- Node11 -->
<g id="node11" class="node"><title>Node11</title>
<g id="a_node11"><a xlink:href="../../dc/d29/classocra_1_1SubjectBase.html" target="_top" xlink:title="ocra::SubjectBase\&lt;\l EVT_CHANGE_VALUE \&gt;">
<polygon fill="white" stroke="black" points="27,-0.5 27,-30.5 162,-30.5 162,-0.5 27,-0.5"/>
<text text-anchor="start" x="35" y="-18.5" font-family="Helvetica,sans-Serif" font-size="10.00">ocra::SubjectBase&lt;</text>
<text text-anchor="middle" x="94.5" y="-7.5" font-family="Helvetica,sans-Serif" font-size="10.00"> EVT_CHANGE_VALUE &gt;</text>
</a>
</g>
</g>
<!-- Node11&#45;&gt;Node8 -->
<g id="edge10" class="edge"><title>Node11&#45;&gt;Node8</title>
<path fill="none" stroke="midnightblue" d="M172.021,-33.1758C177.834,-35.1139 183.553,-37.2206 189,-39.5 212.589,-49.371 237.55,-65.627 252.315,-75.9367"/>
<polygon fill="midnightblue" stroke="midnightblue" points="172.771,-29.7425 162.182,-30.0722 170.666,-36.4183 172.771,-29.7425"/>
</g>
<!-- Node12 -->
<g id="node12" class="node"><title>Node12</title>
<g id="a_node12"><a xlink:href="../../db/de3/classocra_1_1NamedInstance.html" target="_top" xlink:title="ocra::NamedInstance">
<polygon fill="white" stroke="black" points="346,-105 346,-124 456,-124 456,-105 346,-105"/>
<text text-anchor="middle" x="401" y="-112" font-family="Helvetica,sans-Serif" font-size="10.00">ocra::NamedInstance</text>
</a>
</g>
</g>
<!-- Node12&#45;&gt;Node2 -->
<g id="edge11" class="edge"><title>Node12&#45;&gt;Node2</title>
<path fill="none" stroke="midnightblue" d="M466.133,-124.171C476.125,-125.678 486.078,-127.178 494.988,-128.522"/>
<polygon fill="midnightblue" stroke="midnightblue" points="466.577,-120.698 456.167,-122.668 465.533,-127.62 466.577,-120.698"/>
</g>
<!-- Node13 -->
<g id="node13" class="node"><title>Node13</title>
<polygon fill="white" stroke="#bfbfbf" points="501,-86 501,-105 557,-105 557,-86 501,-86"/>
<text text-anchor="middle" x="529" y="-93" font-family="Helvetica,sans-Serif" font-size="10.00">MatrixXd</text>
</g>
<!-- Node13&#45;&gt;Node1 -->
<g id="edge12" class="edge"><title>Node13&#45;&gt;Node1</title>
<path fill="none" stroke="#9a32cd" stroke-dasharray="5,2" d="M567.2,-95.5773C580.997,-95.9475 596.751,-96.7743 611,-98.5 621.591,-99.7826 632.935,-101.81 643.431,-103.965"/>
<polygon fill="#9a32cd" stroke="#9a32cd" points="567.157,-92.0758 557.089,-95.3758 567.017,-99.0744 567.157,-92.0758"/>
<text text-anchor="middle" x="596" y="-101.5" font-family="Helvetica,sans-Serif" font-size="10.00"> J</text>
</g>
</g>
</svg>
