<?xml version="1.0" encoding="UTF-8" standalone="no"?>
<!DOCTYPE svg PUBLIC "-//W3C//DTD SVG 1.1//EN"
 "http://www.w3.org/Graphics/SVG/1.1/DTD/svg11.dtd">
<!-- Generated by graphviz version 2.38.0 (20140413.2041)
 -->
<!-- Title: Trajectory Pages: 1 -->
<svg width="100pt" height="151pt"
 viewBox="0.00 0.00 100.00 151.00" xmlns="http://www.w3.org/2000/svg" xmlns:xlink="http://www.w3.org/1999/xlink">
<g id="graph0" class="graph" transform="scale(1 1) rotate(0) translate(4 147)">
<title>Trajectory</title>
<polygon fill="white" stroke="none" points="-4,4 -4,-147 96,-147 96,4 -4,4"/>
<g id="clust1" class="cluster"><title>clusterdir_15f1d80f273d6f5d5461ce4928602b6c</title>
<g id="a_clust1"><a xlink:href="dir_15f1d80f273d6f5d5461ce4928602b6c.html" target="_top" xlink:title="control">
<polygon fill="#ddddee" stroke="black" points="8,-64 8,-135 84,-135 84,-64 8,-64"/>
<text text-anchor="middle" x="46" y="-123" font-family="Helvetica,sans-Serif" font-size="10.00">control</text>
</a>
</g>
</g>
<!-- dir_057e3af16eda003f5dbc81205d1e9344 -->
<g id="node1" class="node"><title>dir_057e3af16eda003f5dbc81205d1e9344</title>
<g id="a_node1"><a xlink:href="dir_057e3af16eda003f5dbc81205d1e9344.html" target="_top" xlink:title="Trajectory">
<polygon fill="#eeeeff" stroke="black" points="76,-108 16,-108 16,-72 76,-72 76,-108"/>
<text text-anchor="middle" x="46" y="-87.5" font-family="Helvetica,sans-Serif" font-size="10.00">Trajectory</text>
</a>
</g>
</g>
<!-- dir_692aee75441e11bde3992a8b8f0d9649 -->
<g id="node2" class="node"><title>dir_692aee75441e11bde3992a8b8f0d9649</title>
<g id="a_node2"><a xlink:href="dir_692aee75441e11bde3992a8b8f0d9649.html" target="_top" xlink:title="util">
<polygon fill="none" stroke="black" points="73,-36 19,-36 19,-0 73,-0 73,-36"/>
<text text-anchor="middle" x="46" y="-15.5" font-family="Helvetica,sans-Serif" font-size="10.00">util</text>
</a>
</g>
</g>
<!-- dir_057e3af16eda003f5dbc81205d1e9344&#45;&gt;dir_692aee75441e11bde3992a8b8f0d9649 -->
<g id="edge1" class="edge"><title>dir_057e3af16eda003f5dbc81205d1e9344&#45;&gt;dir_692aee75441e11bde3992a8b8f0d9649</title>
<path fill="none" stroke="black" d="M46,-71.6966C46,-63.9827 46,-54.7125 46,-46.1124"/>
<polygon fill="black" stroke="black" points="49.5001,-46.1043 46,-36.1043 42.5001,-46.1044 49.5001,-46.1043"/>
<g id="a_edge1&#45;headlabel"><a xlink:href="dir_000016_000014.html" target="_top" xlink:title="2">
<text text-anchor="middle" x="52.3393" y="-47.199" font-family="Helvetica,sans-Serif" font-size="10.00">2</text>
</a>
</g>
</g>
</g>
</svg>
