<?xml version="1.0" encoding="UTF-8" standalone="no"?>
<!DOCTYPE svg PUBLIC "-//W3C//DTD SVG 1.1//EN"
 "http://www.w3.org/Graphics/SVG/1.1/DTD/svg11.dtd">
<!-- Generated by graphviz version 2.38.0 (20140413.2041)
 -->
<!-- Title: ocra&#45;recipes Pages: 1 -->
<svg width="238pt" height="276pt"
 viewBox="0.00 0.00 238.00 276.00" xmlns="http://www.w3.org/2000/svg" xmlns:xlink="http://www.w3.org/1999/xlink">
<g id="graph0" class="graph" transform="scale(1 1) rotate(0) translate(4 272)">
<title>ocra&#45;recipes</title>
<polygon fill="white" stroke="none" points="-4,4 -4,-272 234,-272 234,4 -4,4"/>
<g id="clust1" class="cluster"><title>clusterdir_fd23141e2b45aabae4313ed877e99d5c</title>
<g id="a_clust1"><a xlink:href="dir_fd23141e2b45aabae4313ed877e99d5c.html" target="_top">
<polygon fill="#eeeeff" stroke="black" points="64,-136 64,-260 222,-260 222,-136 64,-136"/>
</a>
</g>
</g>
<!-- dir_fd23141e2b45aabae4313ed877e99d5c -->
<g id="node1" class="node"><title>dir_fd23141e2b45aabae4313ed877e99d5c</title>
<text text-anchor="middle" x="179" y="-231.5" font-family="Helvetica,sans-Serif" font-size="10.00">ocra&#45;recipes</text>
</g>
<!-- dir_ae3fefa0625c20ac61051a17995d8c7e -->
<g id="node2" class="node"><title>dir_ae3fefa0625c20ac61051a17995d8c7e</title>
<g id="a_node2"><a xlink:href="dir_ae3fefa0625c20ac61051a17995d8c7e.html" target="_top" xlink:title="include">
<polygon fill="white" stroke="red" points="126,-180 72,-180 72,-144 126,-144 126,-180"/>
<text text-anchor="middle" x="99" y="-159.5" font-family="Helvetica,sans-Serif" font-size="10.00">include</text>
</a>
</g>
</g>
<!-- dir_58960c2b947bea1a2d3b3049bcff13f6 -->
<g id="node4" class="node"><title>dir_58960c2b947bea1a2d3b3049bcff13f6</title>
<g id="a_node4"><a xlink:href="dir_58960c2b947bea1a2d3b3049bcff13f6.html" target="_top" xlink:title="hocra">
<polygon fill="white" stroke="red" points="54,-108 0,-108 0,-72 54,-72 54,-108"/>
<text text-anchor="middle" x="27" y="-87.5" font-family="Helvetica,sans-Serif" font-size="10.00">hocra</text>
</a>
</g>
</g>
<!-- dir_ae3fefa0625c20ac61051a17995d8c7e&#45;&gt;dir_58960c2b947bea1a2d3b3049bcff13f6 -->
<g id="edge3" class="edge"><title>dir_ae3fefa0625c20ac61051a17995d8c7e&#45;&gt;dir_58960c2b947bea1a2d3b3049bcff13f6</title>
<path fill="none" stroke="black" d="M81.2022,-143.697C72.396,-135.135 61.6179,-124.656 51.9989,-115.304"/>
<polygon fill="black" stroke="black" points="54.2028,-112.566 44.593,-108.104 49.3232,-117.585 54.2028,-112.566"/>
<g id="a_edge3&#45;headlabel"><a xlink:href="dir_000012_000026.html" target="_top" xlink:title="1">
<text text-anchor="middle" x="58.7593" y="-110.536" font-family="Helvetica,sans-Serif" font-size="10.00">1</text>
</a>
</g>
</g>
<!-- dir_4825328a1b66194884fd323641c1a1d5 -->
<g id="node5" class="node"><title>dir_4825328a1b66194884fd323641c1a1d5</title>
<g id="a_node5"><a xlink:href="dir_4825328a1b66194884fd323641c1a1d5.html" target="_top" xlink:title="wocra">
<polygon fill="white" stroke="red" points="126,-108 72,-108 72,-72 126,-72 126,-108"/>
<text text-anchor="middle" x="99" y="-87.5" font-family="Helvetica,sans-Serif" font-size="10.00">wocra</text>
</a>
</g>
</g>
<!-- dir_ae3fefa0625c20ac61051a17995d8c7e&#45;&gt;dir_4825328a1b66194884fd323641c1a1d5 -->
<g id="edge4" class="edge"><title>dir_ae3fefa0625c20ac61051a17995d8c7e&#45;&gt;dir_4825328a1b66194884fd323641c1a1d5</title>
<path fill="none" stroke="black" d="M99,-143.697C99,-135.983 99,-126.712 99,-118.112"/>
<polygon fill="black" stroke="black" points="102.5,-118.104 99,-108.104 95.5001,-118.104 102.5,-118.104"/>
<g id="a_edge4&#45;headlabel"><a xlink:href="dir_000012_000032.html" target="_top" xlink:title="2">
<text text-anchor="middle" x="105.339" y="-119.199" font-family="Helvetica,sans-Serif" font-size="10.00">2</text>
</a>
</g>
</g>
<!-- dir_f76cb6505ef3806cfa5a3d9f0fe3c925 -->
<g id="node6" class="node"><title>dir_f76cb6505ef3806cfa5a3d9f0fe3c925</title>
<g id="a_node6"><a xlink:href="dir_f76cb6505ef3806cfa5a3d9f0fe3c925.html" target="_top" xlink:title="ocra">
<polygon fill="white" stroke="red" points="126,-36 72,-36 72,-0 126,-0 126,-36"/>
<text text-anchor="middle" x="99" y="-15.5" font-family="Helvetica,sans-Serif" font-size="10.00">ocra</text>
</a>
</g>
</g>
<!-- dir_ae3fefa0625c20ac61051a17995d8c7e&#45;&gt;dir_f76cb6505ef3806cfa5a3d9f0fe3c925 -->
<g id="edge5" class="edge"><title>dir_ae3fefa0625c20ac61051a17995d8c7e&#45;&gt;dir_f76cb6505ef3806cfa5a3d9f0fe3c925</title>
<path fill="none" stroke="black" d="M114.61,-143.774C122.373,-134.03 130.946,-121.184 135,-108 139.703,-92.7067 139.703,-87.2933 135,-72 131.991,-62.2153 126.493,-52.6161 120.684,-44.3336"/>
<polygon fill="black" stroke="black" points="123.407,-42.1306 114.61,-36.2264 117.805,-46.3279 123.407,-42.1306"/>
<g id="a_edge5&#45;headlabel"><a xlink:href="dir_000012_000000.html" target="_top" xlink:title="31">
<text text-anchor="middle" x="127.835" y="-40.8048" font-family="Helvetica,sans-Serif" font-size="10.00">31</text>
</a>
</g>
</g>
<!-- dir_e9c2eeff2e335e584d0a190341d4864b -->
<g id="node3" class="node"><title>dir_e9c2eeff2e335e584d0a190341d4864b</title>
<g id="a_node3"><a xlink:href="dir_e9c2eeff2e335e584d0a190341d4864b.html" target="_top" xlink:title="src">
<polygon fill="white" stroke="black" points="126,-252 72,-252 72,-216 126,-216 126,-252"/>
<text text-anchor="middle" x="99" y="-231.5" font-family="Helvetica,sans-Serif" font-size="10.00">src</text>
</a>
</g>
</g>
<!-- dir_e9c2eeff2e335e584d0a190341d4864b&#45;&gt;dir_ae3fefa0625c20ac61051a17995d8c7e -->
<g id="edge6" class="edge"><title>dir_e9c2eeff2e335e584d0a190341d4864b&#45;&gt;dir_ae3fefa0625c20ac61051a17995d8c7e</title>
<path fill="none" stroke="black" d="M99,-215.697C99,-207.983 99,-198.712 99,-190.112"/>
<polygon fill="black" stroke="black" points="102.5,-190.104 99,-180.104 95.5001,-190.104 102.5,-190.104"/>
<g id="a_edge6&#45;headlabel"><a xlink:href="dir_000011_000012.html" target="_top" xlink:title="9">
<text text-anchor="middle" x="105.339" y="-191.199" font-family="Helvetica,sans-Serif" font-size="10.00">9</text>
</a>
</g>
</g>
<!-- dir_58960c2b947bea1a2d3b3049bcff13f6&#45;&gt;dir_f76cb6505ef3806cfa5a3d9f0fe3c925 -->
<g id="edge1" class="edge"><title>dir_58960c2b947bea1a2d3b3049bcff13f6&#45;&gt;dir_f76cb6505ef3806cfa5a3d9f0fe3c925</title>
<path fill="none" stroke="black" d="M44.7978,-71.6966C53.604,-63.135 64.3821,-52.6562 74.0011,-43.3045"/>
<polygon fill="black" stroke="black" points="76.6768,-45.5846 81.407,-36.1043 71.7972,-40.5657 76.6768,-45.5846"/>
<g id="a_edge1&#45;headlabel"><a xlink:href="dir_000026_000000.html" target="_top" xlink:title="4">
<text text-anchor="middle" x="76.0787" y="-47.6261" font-family="Helvetica,sans-Serif" font-size="10.00">4</text>
</a>
</g>
</g>
<!-- dir_4825328a1b66194884fd323641c1a1d5&#45;&gt;dir_f76cb6505ef3806cfa5a3d9f0fe3c925 -->
<g id="edge2" class="edge"><title>dir_4825328a1b66194884fd323641c1a1d5&#45;&gt;dir_f76cb6505ef3806cfa5a3d9f0fe3c925</title>
<path fill="none" stroke="black" d="M99,-71.6966C99,-63.9827 99,-54.7125 99,-46.1124"/>
<polygon fill="black" stroke="black" points="102.5,-46.1043 99,-36.1043 95.5001,-46.1044 102.5,-46.1043"/>
<g id="a_edge2&#45;headlabel"><a xlink:href="dir_000032_000000.html" target="_top" xlink:title="8">
<text text-anchor="middle" x="105.339" y="-47.199" font-family="Helvetica,sans-Serif" font-size="10.00">8</text>
</a>
</g>
</g>
</g>
</svg>
