<?xml version="1.0" encoding="UTF-8" standalone="no"?>
<!DOCTYPE svg PUBLIC "-//W3C//DTD SVG 1.1//EN"
 "http://www.w3.org/Graphics/SVG/1.1/DTD/svg11.dtd">
<!-- Generated by graphviz version 2.38.0 (20140413.2041)
 -->
<!-- Title: optim Pages: 1 -->
<svg width="150pt" height="151pt"
 viewBox="0.00 0.00 150.00 151.00" xmlns="http://www.w3.org/2000/svg" xmlns:xlink="http://www.w3.org/1999/xlink">
<g id="graph0" class="graph" transform="scale(1 1) rotate(0) translate(4 147)">
<title>optim</title>
<polygon fill="white" stroke="none" points="-4,4 -4,-147 146,-147 146,4 -4,4"/>
<g id="clust1" class="cluster"><title>clusterdir_2221b70b0586630afab255d2df441928</title>
<g id="a_clust1"><a xlink:href="dir_2221b70b0586630afab255d2df441928.html" target="_top" xlink:title="ocra">
<polygon fill="#ddddee" stroke="black" points="8,-64 8,-135 78,-135 78,-64 8,-64"/>
<text text-anchor="middle" x="43" y="-123" font-family="Helvetica,sans-Serif" font-size="10.00">ocra</text>
</a>
</g>
</g>
<!-- dir_2a31179e8544c5fb72c5b71e610bcbae -->
<g id="node1" class="node"><title>dir_2a31179e8544c5fb72c5b71e610bcbae</title>
<g id="a_node1"><a xlink:href="dir_2a31179e8544c5fb72c5b71e610bcbae.html" target="_top" xlink:title="optim">
<polygon fill="#eeeeff" stroke="black" points="70,-108 16,-108 16,-72 70,-72 70,-108"/>
<text text-anchor="middle" x="43" y="-87.5" font-family="Helvetica,sans-Serif" font-size="10.00">optim</text>
</a>
</g>
</g>
<!-- dir_692aee75441e11bde3992a8b8f0d9649 -->
<g id="node2" class="node"><title>dir_692aee75441e11bde3992a8b8f0d9649</title>
<g id="a_node2"><a xlink:href="dir_692aee75441e11bde3992a8b8f0d9649.html" target="_top" xlink:title="util">
<polygon fill="none" stroke="black" points="106,-36 52,-36 52,-0 106,-0 106,-36"/>
<text text-anchor="middle" x="79" y="-15.5" font-family="Helvetica,sans-Serif" font-size="10.00">util</text>
</a>
</g>
</g>
<!-- dir_2a31179e8544c5fb72c5b71e610bcbae&#45;&gt;dir_692aee75441e11bde3992a8b8f0d9649 -->
<g id="edge1" class="edge"><title>dir_2a31179e8544c5fb72c5b71e610bcbae&#45;&gt;dir_692aee75441e11bde3992a8b8f0d9649</title>
<path fill="none" stroke="black" d="M51.8989,-71.6966C55.9968,-63.7284 60.9488,-54.0995 65.4927,-45.2641"/>
<polygon fill="black" stroke="black" points="68.7425,-46.598 70.2035,-36.1043 62.5174,-43.3965 68.7425,-46.598"/>
<g id="a_edge1&#45;headlabel"><a xlink:href="dir_000003_000014.html" target="_top" xlink:title="10">
<text text-anchor="middle" x="69.6235" y="-48.5931" font-family="Helvetica,sans-Serif" font-size="10.00">10</text>
</a>
</g>
</g>
<!-- dir_15f1d80f273d6f5d5461ce4928602b6c -->
<g id="node3" class="node"><title>dir_15f1d80f273d6f5d5461ce4928602b6c</title>
<g id="a_node3"><a xlink:href="dir_15f1d80f273d6f5d5461ce4928602b6c.html" target="_top" xlink:title="control">
<polygon fill="white" stroke="red" points="142,-108 88,-108 88,-72 142,-72 142,-108"/>
<text text-anchor="middle" x="115" y="-87.5" font-family="Helvetica,sans-Serif" font-size="10.00">control</text>
</a>
</g>
</g>
<!-- dir_2a31179e8544c5fb72c5b71e610bcbae&#45;&gt;dir_15f1d80f273d6f5d5461ce4928602b6c -->
<g id="edge2" class="edge"><title>dir_2a31179e8544c5fb72c5b71e610bcbae&#45;&gt;dir_15f1d80f273d6f5d5461ce4928602b6c</title>
<path fill="none" stroke="black" d="M70.2812,-90C72.7377,-90 75.1942,-90 77.6507,-90"/>
<polygon fill="black" stroke="black" points="77.7495,-93.5001 87.7495,-90 77.7495,-86.5001 77.7495,-93.5001"/>
<g id="a_edge2&#45;headlabel"><a xlink:href="dir_000003_000008.html" target="_top" xlink:title="5">
<text text-anchor="middle" x="74.1549" y="-93.8393" font-family="Helvetica,sans-Serif" font-size="10.00">5</text>
</a>
</g>
</g>
<!-- dir_15f1d80f273d6f5d5461ce4928602b6c&#45;&gt;dir_2a31179e8544c5fb72c5b71e610bcbae -->
<g id="edge3" class="edge"><title>dir_15f1d80f273d6f5d5461ce4928602b6c&#45;&gt;dir_2a31179e8544c5fb72c5b71e610bcbae</title>
<path fill="none" stroke="black" d="M87.7495,-90C85.293,-90 82.8366,-90 80.3801,-90"/>
<polygon fill="black" stroke="black" points="80.2813,-86.5001 70.2812,-90 80.2812,-93.5001 80.2813,-86.5001"/>
<g id="a_edge3&#45;headlabel"><a xlink:href="dir_000008_000003.html" target="_top" xlink:title="31">
<text text-anchor="middle" x="83.8759" y="-81.1607" font-family="Helvetica,sans-Serif" font-size="10.00">31</text>
</a>
</g>
</g>
<!-- dir_15f1d80f273d6f5d5461ce4928602b6c&#45;&gt;dir_692aee75441e11bde3992a8b8f0d9649 -->
<g id="edge4" class="edge"><title>dir_15f1d80f273d6f5d5461ce4928602b6c&#45;&gt;dir_692aee75441e11bde3992a8b8f0d9649</title>
<path fill="none" stroke="black" d="M106.101,-71.6966C102.003,-63.7284 97.0512,-54.0995 92.5073,-45.2641"/>
<polygon fill="black" stroke="black" points="95.4826,-43.3965 87.7965,-36.1043 89.2575,-46.598 95.4826,-43.3965"/>
<g id="a_edge4&#45;headlabel"><a xlink:href="dir_000008_000014.html" target="_top" xlink:title="28">
<text text-anchor="middle" x="99.6514" y="-42.7946" font-family="Helvetica,sans-Serif" font-size="10.00">28</text>
</a>
</g>
</g>
</g>
</svg>
