<?xml version="1.0" encoding="UTF-8" standalone="no"?>
<!DOCTYPE svg PUBLIC "-//W3C//DTD SVG 1.1//EN"
 "http://www.w3.org/Graphics/SVG/1.1/DTD/svg11.dtd">
<!-- Generated by graphviz version 2.38.0 (20140413.2041)
 -->
<!-- Title: ocra Pages: 1 -->
<svg width="166pt" height="148pt"
 viewBox="0.00 0.00 166.00 148.00" xmlns="http://www.w3.org/2000/svg" xmlns:xlink="http://www.w3.org/1999/xlink">
<g id="graph0" class="graph" transform="scale(1 1) rotate(0) translate(4 144)">
<title>ocra</title>
<polygon fill="white" stroke="none" points="-4,4 -4,-144 162,-144 162,4 -4,4"/>
<g id="clust1" class="cluster"><title>clusterdir_f76cb6505ef3806cfa5a3d9f0fe3c925</title>
<g id="a_clust1"><a xlink:href="dir_f76cb6505ef3806cfa5a3d9f0fe3c925.html" target="_top">
<polygon fill="#eeeeff" stroke="black" points="8,-8 8,-132 150,-132 150,-8 8,-8"/>
</a>
</g>
</g>
<!-- dir_f76cb6505ef3806cfa5a3d9f0fe3c925 -->
<g id="node1" class="node"><title>dir_f76cb6505ef3806cfa5a3d9f0fe3c925</title>
<text text-anchor="middle" x="115" y="-103.5" font-family="Helvetica,sans-Serif" font-size="10.00">ocra</text>
</g>
<!-- dir_357d0a83d6953c823b655e4b4fa4dc1f -->
<g id="node2" class="node"><title>dir_357d0a83d6953c823b655e4b4fa4dc1f</title>
<g id="a_node2"><a xlink:href="dir_357d0a83d6953c823b655e4b4fa4dc1f.html" target="_top" xlink:title="include">
<polygon fill="white" stroke="red" points="70,-52 16,-52 16,-16 70,-16 70,-52"/>
<text text-anchor="middle" x="43" y="-31.5" font-family="Helvetica,sans-Serif" font-size="10.00">include</text>
</a>
</g>
</g>
<!-- dir_7d8cee73c0b0c7d47156f6a548a62359 -->
<g id="node3" class="node"><title>dir_7d8cee73c0b0c7d47156f6a548a62359</title>
<g id="a_node3"><a xlink:href="dir_7d8cee73c0b0c7d47156f6a548a62359.html" target="_top" xlink:title="src">
<polygon fill="white" stroke="red" points="70,-124 16,-124 16,-88 70,-88 70,-124"/>
<text text-anchor="middle" x="43" y="-103.5" font-family="Helvetica,sans-Serif" font-size="10.00">src</text>
</a>
</g>
</g>
<!-- dir_7d8cee73c0b0c7d47156f6a548a62359&#45;&gt;dir_357d0a83d6953c823b655e4b4fa4dc1f -->
<g id="edge1" class="edge"><title>dir_7d8cee73c0b0c7d47156f6a548a62359&#45;&gt;dir_357d0a83d6953c823b655e4b4fa4dc1f</title>
<path fill="none" stroke="black" d="M43,-87.6966C43,-79.9827 43,-70.7125 43,-62.1124"/>
<polygon fill="black" stroke="black" points="46.5001,-62.1043 43,-52.1043 39.5001,-62.1044 46.5001,-62.1043"/>
<g id="a_edge1&#45;headlabel"><a xlink:href="dir_000004_000001.html" target="_top" xlink:title="104">
<text text-anchor="middle" x="49.3393" y="-63.199" font-family="Helvetica,sans-Serif" font-size="10.00">104</text>
</a>
</g>
</g>
</g>
</svg>
