<?xml version="1.0" encoding="UTF-8" standalone="no"?>
<!DOCTYPE svg PUBLIC "-//W3C//DTD SVG 1.1//EN"
 "http://www.w3.org/Graphics/SVG/1.1/DTD/svg11.dtd">
<!-- Generated by graphviz version 2.38.0 (20140413.2041)
 -->
<!-- Title: src Pages: 1 -->
<svg width="182pt" height="231pt"
 viewBox="0.00 0.00 182.00 231.00" xmlns="http://www.w3.org/2000/svg" xmlns:xlink="http://www.w3.org/1999/xlink">
<g id="graph0" class="graph" transform="scale(1 1) rotate(0) translate(4 227)">
<title>src</title>
<polygon fill="white" stroke="none" points="-4,4 -4,-227 178,-227 178,4 -4,4"/>
<g id="clust1" class="cluster"><title>clusterdir_563c14b350e61052b72d0d8fde0ede2c</title>
<g id="a_clust1"><a xlink:href="dir_563c14b350e61052b72d0d8fde0ede2c.html" target="_top" xlink:title="gocra">
<polygon fill="#ddddee" stroke="black" points="8,-128 8,-215 166,-215 166,-128 8,-128"/>
<text text-anchor="middle" x="87" y="-203" font-family="Helvetica,sans-Serif" font-size="10.00">gocra</text>
</a>
</g>
</g>
<g id="clust2" class="cluster"><title>clusterdir_e3553c556ef0dcac7d89aa92e85ed2aa</title>
<g id="a_clust2"><a xlink:href="dir_e3553c556ef0dcac7d89aa92e85ed2aa.html" target="_top">
<polygon fill="#eeeeff" stroke="black" points="16,-136 16,-188 158,-188 158,-136 16,-136"/>
</a>
</g>
</g>
<!-- dir_e3553c556ef0dcac7d89aa92e85ed2aa -->
<g id="node1" class="node"><title>dir_e3553c556ef0dcac7d89aa92e85ed2aa</title>
<text text-anchor="middle" x="51" y="-159.5" font-family="Helvetica,sans-Serif" font-size="10.00">src</text>
</g>
<!-- dir_f76cb6505ef3806cfa5a3d9f0fe3c925 -->
<g id="node4" class="node"><title>dir_f76cb6505ef3806cfa5a3d9f0fe3c925</title>
<g id="a_node4"><a xlink:href="dir_f76cb6505ef3806cfa5a3d9f0fe3c925.html" target="_top" xlink:title="ocra">
<polygon fill="white" stroke="red" points="133,-36 79,-36 79,-0 133,-0 133,-36"/>
<text text-anchor="middle" x="106" y="-15.5" font-family="Helvetica,sans-Serif" font-size="10.00">ocra</text>
</a>
</g>
</g>
<!-- dir_e3553c556ef0dcac7d89aa92e85ed2aa&#45;&gt;dir_f76cb6505ef3806cfa5a3d9f0fe3c925 -->
<g id="edge4" class="edge"><title>dir_e3553c556ef0dcac7d89aa92e85ed2aa&#45;&gt;dir_f76cb6505ef3806cfa5a3d9f0fe3c925</title>
<path fill="none" stroke="black" d="M52.6972,-143.674C54.9505,-125.29 59.8884,-95.6852 70,-72 74.0842,-62.4333 79.9884,-52.7836 85.8379,-44.3881"/>
<polygon fill="black" stroke="black" points="88.7797,-46.2938 91.8353,-36.1492 83.1203,-42.1741 88.7797,-46.2938"/>
<g id="a_edge4&#45;headlabel"><a xlink:href="dir_000019_000000.html" target="_top" xlink:title="14">
<text text-anchor="middle" x="88.9597" y="-48.371" font-family="Helvetica,sans-Serif" font-size="10.00">14</text>
</a>
</g>
</g>
<!-- dir_5d0f2752769b998d121d76fd97f04a99 -->
<g id="node2" class="node"><title>dir_5d0f2752769b998d121d76fd97f04a99</title>
<g id="a_node2"><a xlink:href="dir_5d0f2752769b998d121d76fd97f04a99.html" target="_top" xlink:title="Tasks">
<polygon fill="white" stroke="red" points="150,-180 96,-180 96,-144 150,-144 150,-180"/>
<text text-anchor="middle" x="123" y="-159.5" font-family="Helvetica,sans-Serif" font-size="10.00">Tasks</text>
</a>
</g>
</g>
<!-- dir_2744afda34637f3a8b9329399ed85b24 -->
<g id="node3" class="node"><title>dir_2744afda34637f3a8b9329399ed85b24</title>
<g id="a_node3"><a xlink:href="dir_2744afda34637f3a8b9329399ed85b24.html" target="_top" xlink:title="include">
<polygon fill="white" stroke="red" points="133,-108 79,-108 79,-72 133,-72 133,-108"/>
<text text-anchor="middle" x="106" y="-87.5" font-family="Helvetica,sans-Serif" font-size="10.00">include</text>
</a>
</g>
</g>
<!-- dir_5d0f2752769b998d121d76fd97f04a99&#45;&gt;dir_2744afda34637f3a8b9329399ed85b24 -->
<g id="edge2" class="edge"><title>dir_5d0f2752769b998d121d76fd97f04a99&#45;&gt;dir_2744afda34637f3a8b9329399ed85b24</title>
<path fill="none" stroke="black" d="M118.798,-143.697C116.904,-135.898 114.623,-126.509 112.516,-117.829"/>
<polygon fill="black" stroke="black" points="115.915,-116.996 110.154,-108.104 109.113,-118.648 115.915,-116.996"/>
<g id="a_edge2&#45;headlabel"><a xlink:href="dir_000022_000020.html" target="_top" xlink:title="13">
<text text-anchor="middle" x="119.522" y="-117.319" font-family="Helvetica,sans-Serif" font-size="10.00">13</text>
</a>
</g>
</g>
<!-- dir_5d0f2752769b998d121d76fd97f04a99&#45;&gt;dir_f76cb6505ef3806cfa5a3d9f0fe3c925 -->
<g id="edge3" class="edge"><title>dir_5d0f2752769b998d121d76fd97f04a99&#45;&gt;dir_f76cb6505ef3806cfa5a3d9f0fe3c925</title>
<path fill="none" stroke="black" d="M131.847,-143.709C139.916,-125.606 149.523,-96.4647 142,-72 138.991,-62.2153 133.493,-52.6161 127.684,-44.3336"/>
<polygon fill="black" stroke="black" points="130.407,-42.1306 121.61,-36.2264 124.805,-46.3279 130.407,-42.1306"/>
<g id="a_edge3&#45;headlabel"><a xlink:href="dir_000022_000000.html" target="_top" xlink:title="6">
<text text-anchor="middle" x="134.835" y="-40.8048" font-family="Helvetica,sans-Serif" font-size="10.00">6</text>
</a>
</g>
</g>
<!-- dir_2744afda34637f3a8b9329399ed85b24&#45;&gt;dir_f76cb6505ef3806cfa5a3d9f0fe3c925 -->
<g id="edge1" class="edge"><title>dir_2744afda34637f3a8b9329399ed85b24&#45;&gt;dir_f76cb6505ef3806cfa5a3d9f0fe3c925</title>
<path fill="none" stroke="black" d="M106,-71.6966C106,-63.9827 106,-54.7125 106,-46.1124"/>
<polygon fill="black" stroke="black" points="109.5,-46.1043 106,-36.1043 102.5,-46.1044 109.5,-46.1043"/>
<g id="a_edge1&#45;headlabel"><a xlink:href="dir_000020_000000.html" target="_top" xlink:title="24">
<text text-anchor="middle" x="112.339" y="-47.199" font-family="Helvetica,sans-Serif" font-size="10.00">24</text>
</a>
</g>
</g>
</g>
</svg>
