<?xml version="1.0" encoding="UTF-8" standalone="no"?>
<!DOCTYPE svg PUBLIC "-//W3C//DTD SVG 1.1//EN"
 "http://www.w3.org/Graphics/SVG/1.1/DTD/svg11.dtd">
<!-- Generated by graphviz version 2.38.0 (20140413.2041)
 -->
<!-- Title: control Pages: 1 -->
<svg width="307pt" height="231pt"
 viewBox="0.00 0.00 306.87 231.00" xmlns="http://www.w3.org/2000/svg" xmlns:xlink="http://www.w3.org/1999/xlink">
<g id="graph0" class="graph" transform="scale(1 1) rotate(0) translate(4 227)">
<title>control</title>
<polygon fill="white" stroke="none" points="-4,4 -4,-227 302.87,-227 302.87,4 -4,4"/>
<g id="clust1" class="cluster"><title>clusterdir_2221b70b0586630afab255d2df441928</title>
<g id="a_clust1"><a xlink:href="dir_2221b70b0586630afab255d2df441928.html" target="_top" xlink:title="ocra">
<polygon fill="#ddddee" stroke="black" points="8,-56 8,-215 186,-215 186,-56 8,-56"/>
<text text-anchor="middle" x="97" y="-203" font-family="Helvetica,sans-Serif" font-size="10.00">ocra</text>
</a>
</g>
</g>
<g id="clust2" class="cluster"><title>clusterdir_15f1d80f273d6f5d5461ce4928602b6c</title>
<g id="a_clust2"><a xlink:href="dir_15f1d80f273d6f5d5461ce4928602b6c.html" target="_top">
<polygon fill="#eeeeff" stroke="black" points="16,-64 16,-188 178,-188 178,-64 16,-64"/>
</a>
</g>
</g>
<!-- dir_15f1d80f273d6f5d5461ce4928602b6c -->
<g id="node1" class="node"><title>dir_15f1d80f273d6f5d5461ce4928602b6c</title>
<text text-anchor="middle" x="51" y="-159.5" font-family="Helvetica,sans-Serif" font-size="10.00">control</text>
</g>
<!-- dir_057e3af16eda003f5dbc81205d1e9344 -->
<g id="node3" class="node"><title>dir_057e3af16eda003f5dbc81205d1e9344</title>
<g id="a_node3"><a xlink:href="dir_057e3af16eda003f5dbc81205d1e9344.html" target="_top" xlink:title="Trajectory">
<polygon fill="white" stroke="black" points="127,-108 67,-108 67,-72 127,-72 127,-108"/>
<text text-anchor="middle" x="97" y="-87.5" font-family="Helvetica,sans-Serif" font-size="10.00">Trajectory</text>
</a>
</g>
</g>
<!-- dir_15f1d80f273d6f5d5461ce4928602b6c&#45;&gt;dir_057e3af16eda003f5dbc81205d1e9344 -->
<g id="edge5" class="edge"><title>dir_15f1d80f273d6f5d5461ce4928602b6c&#45;&gt;dir_057e3af16eda003f5dbc81205d1e9344</title>
<path fill="none" stroke="black" d="M62.3708,-143.697C67.7185,-135.559 74.2043,-125.689 80.1106,-116.701"/>
<polygon fill="black" stroke="black" points="83.1932,-118.384 85.76,-108.104 77.3432,-114.539 83.1932,-118.384"/>
<g id="a_edge5&#45;headlabel"><a xlink:href="dir_000008_000016.html" target="_top" xlink:title="1">
<text text-anchor="middle" x="83.5919" y="-120.447" font-family="Helvetica,sans-Serif" font-size="10.00">1</text>
</a>
</g>
</g>
<!-- dir_2a31179e8544c5fb72c5b71e610bcbae -->
<g id="node4" class="node"><title>dir_2a31179e8544c5fb72c5b71e610bcbae</title>
<g id="a_node4"><a xlink:href="dir_2a31179e8544c5fb72c5b71e610bcbae.html" target="_top" xlink:title="optim">
<polygon fill="none" stroke="black" points="248,-108 194,-108 194,-72 248,-72 248,-108"/>
<text text-anchor="middle" x="221" y="-87.5" font-family="Helvetica,sans-Serif" font-size="10.00">optim</text>
</a>
</g>
</g>
<!-- dir_15f1d80f273d6f5d5461ce4928602b6c&#45;&gt;dir_2a31179e8544c5fb72c5b71e610bcbae -->
<g id="edge6" class="edge"><title>dir_15f1d80f273d6f5d5461ce4928602b6c&#45;&gt;dir_2a31179e8544c5fb72c5b71e610bcbae</title>
<path fill="none" stroke="black" d="M78.4856,-143.794C119.649,-126.336 131.344,-124.96 173,-108 176.666,-106.507 180.507,-104.895 184.37,-103.277"/>
<polygon fill="black" stroke="black" points="186.037,-106.375 193.936,-99.3144 183.358,-99.9084 186.037,-106.375"/>
<g id="a_edge6&#45;headlabel"><a xlink:href="dir_000008_000003.html" target="_top" xlink:title="31">
<text text-anchor="middle" x="183.803" y="-107.874" font-family="Helvetica,sans-Serif" font-size="10.00">31</text>
</a>
</g>
</g>
<!-- dir_692aee75441e11bde3992a8b8f0d9649 -->
<g id="node5" class="node"><title>dir_692aee75441e11bde3992a8b8f0d9649</title>
<g id="a_node5"><a xlink:href="dir_692aee75441e11bde3992a8b8f0d9649.html" target="_top" xlink:title="util">
<polygon fill="none" stroke="black" points="275,-36 221,-36 221,-0 275,-0 275,-36"/>
<text text-anchor="middle" x="248" y="-15.5" font-family="Helvetica,sans-Serif" font-size="10.00">util</text>
</a>
</g>
</g>
<!-- dir_15f1d80f273d6f5d5461ce4928602b6c&#45;&gt;dir_692aee75441e11bde3992a8b8f0d9649 -->
<g id="edge7" class="edge"><title>dir_15f1d80f273d6f5d5461ce4928602b6c&#45;&gt;dir_692aee75441e11bde3992a8b8f0d9649</title>
<path fill="none" stroke="black" d="M78.2457,-147.331C81.1631,-146.11 84.1179,-144.971 87,-144 160.19,-119.345 208.374,-168.001 257,-108 270.989,-90.7388 266.532,-64.9753 259.877,-45.603"/>
<polygon fill="black" stroke="black" points="263.104,-44.241 256.283,-36.1341 256.559,-46.7253 263.104,-44.241"/>
<g id="a_edge7&#45;headlabel"><a xlink:href="dir_000008_000014.html" target="_top" xlink:title="28">
<text text-anchor="middle" x="267.034" y="-44.094" font-family="Helvetica,sans-Serif" font-size="10.00">28</text>
</a>
</g>
</g>
<!-- dir_546eb49454a4cf8aac62587857c9d936 -->
<g id="node2" class="node"><title>dir_546eb49454a4cf8aac62587857c9d936</title>
<g id="a_node2"><a xlink:href="dir_546eb49454a4cf8aac62587857c9d936.html" target="_top" xlink:title="TaskBuilders">
<polygon fill="white" stroke="black" points="170,-180 96,-180 96,-144 170,-144 170,-180"/>
<text text-anchor="middle" x="133" y="-159.5" font-family="Helvetica,sans-Serif" font-size="10.00">TaskBuilders</text>
</a>
</g>
</g>
<!-- dir_546eb49454a4cf8aac62587857c9d936&#45;&gt;dir_692aee75441e11bde3992a8b8f0d9649 -->
<g id="edge4" class="edge"><title>dir_546eb49454a4cf8aac62587857c9d936&#45;&gt;dir_692aee75441e11bde3992a8b8f0d9649</title>
<path fill="none" stroke="black" d="M170.31,-160.095C207.514,-156.958 262.906,-145.743 290,-108 303.477,-89.2255 299.515,-77.0618 290,-56 287.957,-51.478 285.058,-47.2878 281.726,-43.4771"/>
<polygon fill="black" stroke="black" points="283.972,-40.7739 274.413,-36.2031 279.035,-45.7368 283.972,-40.7739"/>
<g id="a_edge4&#45;headlabel"><a xlink:href="dir_000009_000014.html" target="_top" xlink:title="9">
<text text-anchor="middle" x="288.522" y="-38.7959" font-family="Helvetica,sans-Serif" font-size="10.00">9</text>
</a>
</g>
</g>
<!-- dir_057e3af16eda003f5dbc81205d1e9344&#45;&gt;dir_692aee75441e11bde3992a8b8f0d9649 -->
<g id="edge1" class="edge"><title>dir_057e3af16eda003f5dbc81205d1e9344&#45;&gt;dir_692aee75441e11bde3992a8b8f0d9649</title>
<path fill="none" stroke="black" d="M127.194,-75.0027C151.57,-63.7028 185.943,-47.7681 211.795,-35.7838"/>
<polygon fill="black" stroke="black" points="213.299,-38.9445 220.899,-31.5632 210.355,-32.5937 213.299,-38.9445"/>
<g id="a_edge1&#45;headlabel"><a xlink:href="dir_000016_000014.html" target="_top" xlink:title="2">
<text text-anchor="middle" x="211.232" y="-40.5322" font-family="Helvetica,sans-Serif" font-size="10.00">2</text>
</a>
</g>
</g>
<!-- dir_2a31179e8544c5fb72c5b71e610bcbae&#45;&gt;dir_15f1d80f273d6f5d5461ce4928602b6c -->
<g id="edge3" class="edge"><title>dir_2a31179e8544c5fb72c5b71e610bcbae&#45;&gt;dir_15f1d80f273d6f5d5461ce4928602b6c</title>
<path fill="none" stroke="black" d="M193.903,-106.808C192.927,-107.212 191.958,-107.61 191,-108 149.181,-125.026 137.558,-126.346 96,-144 93.2267,-145.178 90.354,-146.448 87.4518,-147.744"/>
<polygon fill="black" stroke="black" points="85.8683,-144.618 78.1669,-151.894 88.7247,-151.009 85.8683,-144.618"/>
<g id="a_edge3&#45;headlabel"><a xlink:href="dir_000003_000008.html" target="_top" xlink:title="5">
<text text-anchor="middle" x="87.9914" y="-138.059" font-family="Helvetica,sans-Serif" font-size="10.00">5</text>
</a>
</g>
</g>
<!-- dir_2a31179e8544c5fb72c5b71e610bcbae&#45;&gt;dir_692aee75441e11bde3992a8b8f0d9649 -->
<g id="edge2" class="edge"><title>dir_2a31179e8544c5fb72c5b71e610bcbae&#45;&gt;dir_692aee75441e11bde3992a8b8f0d9649</title>
<path fill="none" stroke="black" d="M227.674,-71.6966C230.715,-63.8132 234.383,-54.3042 237.761,-45.5464"/>
<polygon fill="black" stroke="black" points="241.069,-46.6939 241.403,-36.1043 234.538,-44.1748 241.069,-46.6939"/>
<g id="a_edge2&#45;headlabel"><a xlink:href="dir_000003_000014.html" target="_top" xlink:title="10">
<text text-anchor="middle" x="242.425" y="-48.5695" font-family="Helvetica,sans-Serif" font-size="10.00">10</text>
</a>
</g>
</g>
</g>
</svg>
