<?xml version="1.0" encoding="UTF-8" standalone="no"?>
<!DOCTYPE svg PUBLIC "-//W3C//DTD SVG 1.1//EN"
 "http://www.w3.org/Graphics/SVG/1.1/DTD/svg11.dtd">
<!-- Generated by graphviz version 2.38.0 (20140413.2041)
 -->
<!-- Title: control Pages: 1 -->
<svg width="280pt" height="159pt"
 viewBox="0.00 0.00 280.00 159.00" xmlns="http://www.w3.org/2000/svg" xmlns:xlink="http://www.w3.org/1999/xlink">
<g id="graph0" class="graph" transform="scale(1 1) rotate(0) translate(4 155)">
<title>control</title>
<polygon fill="white" stroke="none" points="-4,4 -4,-155 276,-155 276,4 -4,4"/>
<g id="clust1" class="cluster"><title>clusterdir_7d8cee73c0b0c7d47156f6a548a62359</title>
<g id="a_clust1"><a xlink:href="dir_7d8cee73c0b0c7d47156f6a548a62359.html" target="_top" xlink:title="src">
<polygon fill="#ddddee" stroke="black" points="8,-56 8,-143 264,-143 264,-56 8,-56"/>
<text text-anchor="middle" x="136" y="-131" font-family="Helvetica,sans-Serif" font-size="10.00">src</text>
</a>
</g>
</g>
<g id="clust2" class="cluster"><title>clusterdir_fbce8d87dfc23394048ae6db93cc54b1</title>
<g id="a_clust2"><a xlink:href="dir_fbce8d87dfc23394048ae6db93cc54b1.html" target="_top">
<polygon fill="#eeeeff" stroke="black" points="16,-64 16,-116 256,-116 256,-64 16,-64"/>
</a>
</g>
</g>
<!-- dir_fbce8d87dfc23394048ae6db93cc54b1 -->
<g id="node1" class="node"><title>dir_fbce8d87dfc23394048ae6db93cc54b1</title>
<text text-anchor="middle" x="221" y="-87.5" font-family="Helvetica,sans-Serif" font-size="10.00">control</text>
</g>
<!-- dir_357d0a83d6953c823b655e4b4fa4dc1f -->
<g id="node4" class="node"><title>dir_357d0a83d6953c823b655e4b4fa4dc1f</title>
<g id="a_node4"><a xlink:href="dir_357d0a83d6953c823b655e4b4fa4dc1f.html" target="_top" xlink:title="include">
<polygon fill="white" stroke="red" points="166,-36 112,-36 112,-0 166,-0 166,-36"/>
<text text-anchor="middle" x="139" y="-15.5" font-family="Helvetica,sans-Serif" font-size="10.00">include</text>
</a>
</g>
</g>
<!-- dir_fbce8d87dfc23394048ae6db93cc54b1&#45;&gt;dir_357d0a83d6953c823b655e4b4fa4dc1f -->
<g id="edge2" class="edge"><title>dir_fbce8d87dfc23394048ae6db93cc54b1&#45;&gt;dir_357d0a83d6953c823b655e4b4fa4dc1f</title>
<path fill="none" stroke="black" d="M202.892,-71.9802C197.231,-66.7739 190.917,-61.0825 185,-56 179.776,-51.5132 174.126,-46.833 168.633,-42.3699"/>
<polygon fill="black" stroke="black" points="170.749,-39.5802 160.765,-36.0341 166.359,-45.0322 170.749,-39.5802"/>
<g id="a_edge2&#45;headlabel"><a xlink:href="dir_000006_000001.html" target="_top" xlink:title="43">
<text text-anchor="middle" x="175.33" y="-37.1234" font-family="Helvetica,sans-Serif" font-size="10.00">43</text>
</a>
</g>
</g>
<!-- dir_72f82ee0de7a36599a36fa6ca5386bc4 -->
<g id="node2" class="node"><title>dir_72f82ee0de7a36599a36fa6ca5386bc4</title>
<g id="a_node2"><a xlink:href="dir_72f82ee0de7a36599a36fa6ca5386bc4.html" target="_top" xlink:title="TaskBuilders">
<polygon fill="white" stroke="black" points="176,-108 102,-108 102,-72 176,-72 176,-108"/>
<text text-anchor="middle" x="139" y="-87.5" font-family="Helvetica,sans-Serif" font-size="10.00">TaskBuilders</text>
</a>
</g>
</g>
<!-- dir_72f82ee0de7a36599a36fa6ca5386bc4&#45;&gt;dir_357d0a83d6953c823b655e4b4fa4dc1f -->
<g id="edge1" class="edge"><title>dir_72f82ee0de7a36599a36fa6ca5386bc4&#45;&gt;dir_357d0a83d6953c823b655e4b4fa4dc1f</title>
<path fill="none" stroke="black" d="M139,-71.6966C139,-63.9827 139,-54.7125 139,-46.1124"/>
<polygon fill="black" stroke="black" points="142.5,-46.1043 139,-36.1043 135.5,-46.1044 142.5,-46.1043"/>
<g id="a_edge1&#45;headlabel"><a xlink:href="dir_000007_000001.html" target="_top" xlink:title="10">
<text text-anchor="middle" x="145.339" y="-47.199" font-family="Helvetica,sans-Serif" font-size="10.00">10</text>
</a>
</g>
</g>
<!-- dir_97ab1460ad4909d525f6689edf6887bc -->
<g id="node3" class="node"><title>dir_97ab1460ad4909d525f6689edf6887bc</title>
<g id="a_node3"><a xlink:href="dir_97ab1460ad4909d525f6689edf6887bc.html" target="_top" xlink:title="Trajectory">
<polygon fill="white" stroke="black" points="84,-108 24,-108 24,-72 84,-72 84,-108"/>
<text text-anchor="middle" x="54" y="-87.5" font-family="Helvetica,sans-Serif" font-size="10.00">Trajectory</text>
</a>
</g>
</g>
<!-- dir_97ab1460ad4909d525f6689edf6887bc&#45;&gt;dir_357d0a83d6953c823b655e4b4fa4dc1f -->
<g id="edge3" class="edge"><title>dir_97ab1460ad4909d525f6689edf6887bc&#45;&gt;dir_357d0a83d6953c823b655e4b4fa4dc1f</title>
<path fill="none" stroke="black" d="M74.1615,-71.7763C80.1944,-66.6669 86.8426,-61.0801 93,-56 98.3116,-51.6177 104.004,-46.9872 109.511,-42.5405"/>
<polygon fill="black" stroke="black" points="111.784,-45.2035 117.38,-36.2074 107.395,-39.75 111.784,-45.2035"/>
<g id="a_edge3&#45;headlabel"><a xlink:href="dir_000015_000001.html" target="_top" xlink:title="6">
<text text-anchor="middle" x="110.764" y="-47.1691" font-family="Helvetica,sans-Serif" font-size="10.00">6</text>
</a>
</g>
</g>
</g>
</svg>
