<?xml version="1.0" encoding="UTF-8" standalone="no"?>
<!DOCTYPE svg PUBLIC "-//W3C//DTD SVG 1.1//EN"
 "http://www.w3.org/Graphics/SVG/1.1/DTD/svg11.dtd">
<!-- Generated by graphviz version 2.38.0 (20140413.2041)
 -->
<!-- Title: gocra Pages: 1 -->
<svg width="244pt" height="204pt"
 viewBox="0.00 0.00 244.00 204.00" xmlns="http://www.w3.org/2000/svg" xmlns:xlink="http://www.w3.org/1999/xlink">
<g id="graph0" class="graph" transform="scale(1 1) rotate(0) translate(4 200)">
<title>gocra</title>
<polygon fill="white" stroke="none" points="-4,4 -4,-200 240,-200 240,4 -4,4"/>
<g id="clust1" class="cluster"><title>clusterdir_563c14b350e61052b72d0d8fde0ede2c</title>
<g id="a_clust1"><a xlink:href="dir_563c14b350e61052b72d0d8fde0ede2c.html" target="_top">
<polygon fill="#eeeeff" stroke="black" points="8,-64 8,-188 228,-188 228,-64 8,-64"/>
</a>
</g>
</g>
<!-- dir_563c14b350e61052b72d0d8fde0ede2c -->
<g id="node1" class="node"><title>dir_563c14b350e61052b72d0d8fde0ede2c</title>
<text text-anchor="middle" x="193" y="-159.5" font-family="Helvetica,sans-Serif" font-size="10.00">gocra</text>
</g>
<!-- dir_a2bb6cc78b7fa91eb9f29f9fb228f5cb -->
<g id="node2" class="node"><title>dir_a2bb6cc78b7fa91eb9f29f9fb228f5cb</title>
<g id="a_node2"><a xlink:href="dir_a2bb6cc78b7fa91eb9f29f9fb228f5cb.html" target="_top" xlink:title="examples">
<polygon fill="white" stroke="red" points="75.5,-180 16.5,-180 16.5,-144 75.5,-144 75.5,-180"/>
<text text-anchor="middle" x="46" y="-159.5" font-family="Helvetica,sans-Serif" font-size="10.00">examples</text>
</a>
</g>
</g>
<!-- dir_2744afda34637f3a8b9329399ed85b24 -->
<g id="node3" class="node"><title>dir_2744afda34637f3a8b9329399ed85b24</title>
<g id="a_node3"><a xlink:href="dir_2744afda34637f3a8b9329399ed85b24.html" target="_top" xlink:title="include">
<polygon fill="white" stroke="red" points="71,-108 17,-108 17,-72 71,-72 71,-108"/>
<text text-anchor="middle" x="44" y="-87.5" font-family="Helvetica,sans-Serif" font-size="10.00">include</text>
</a>
</g>
</g>
<!-- dir_a2bb6cc78b7fa91eb9f29f9fb228f5cb&#45;&gt;dir_2744afda34637f3a8b9329399ed85b24 -->
<g id="edge4" class="edge"><title>dir_a2bb6cc78b7fa91eb9f29f9fb228f5cb&#45;&gt;dir_2744afda34637f3a8b9329399ed85b24</title>
<path fill="none" stroke="black" d="M45.5056,-143.697C45.2852,-135.983 45.0204,-126.712 44.7746,-118.112"/>
<polygon fill="black" stroke="black" points="48.273,-118 44.4887,-108.104 41.2758,-118.2 48.273,-118"/>
<g id="a_edge4&#45;headlabel"><a xlink:href="dir_000030_000020.html" target="_top" xlink:title="2">
<text text-anchor="middle" x="51.2136" y="-119.012" font-family="Helvetica,sans-Serif" font-size="10.00">2</text>
</a>
</g>
</g>
<!-- dir_f76cb6505ef3806cfa5a3d9f0fe3c925 -->
<g id="node5" class="node"><title>dir_f76cb6505ef3806cfa5a3d9f0fe3c925</title>
<g id="a_node5"><a xlink:href="dir_f76cb6505ef3806cfa5a3d9f0fe3c925.html" target="_top" xlink:title="ocra">
<polygon fill="white" stroke="red" points="126,-36 72,-36 72,-0 126,-0 126,-36"/>
<text text-anchor="middle" x="99" y="-15.5" font-family="Helvetica,sans-Serif" font-size="10.00">ocra</text>
</a>
</g>
</g>
<!-- dir_a2bb6cc78b7fa91eb9f29f9fb228f5cb&#45;&gt;dir_f76cb6505ef3806cfa5a3d9f0fe3c925 -->
<g id="edge5" class="edge"><title>dir_a2bb6cc78b7fa91eb9f29f9fb228f5cb&#45;&gt;dir_f76cb6505ef3806cfa5a3d9f0fe3c925</title>
<path fill="none" stroke="black" d="M59.3436,-143.733C66.4403,-133.776 74.7587,-120.738 80,-108 88.1535,-88.1844 93.0005,-64.3858 95.7561,-46.3857"/>
<polygon fill="black" stroke="black" points="99.2513,-46.6639 97.1792,-36.2737 92.3196,-45.6883 99.2513,-46.6639"/>
<g id="a_edge5&#45;headlabel"><a xlink:href="dir_000030_000000.html" target="_top" xlink:title="5">
<text text-anchor="middle" x="101.562" y="-48.1191" font-family="Helvetica,sans-Serif" font-size="10.00">5</text>
</a>
</g>
</g>
<!-- dir_2744afda34637f3a8b9329399ed85b24&#45;&gt;dir_f76cb6505ef3806cfa5a3d9f0fe3c925 -->
<g id="edge1" class="edge"><title>dir_2744afda34637f3a8b9329399ed85b24&#45;&gt;dir_f76cb6505ef3806cfa5a3d9f0fe3c925</title>
<path fill="none" stroke="black" d="M57.5955,-71.6966C64.1227,-63.3893 72.068,-53.2771 79.2466,-44.1407"/>
<polygon fill="black" stroke="black" points="82.1347,-46.1299 85.5609,-36.1043 76.6305,-41.8051 82.1347,-46.1299"/>
<g id="a_edge1&#45;headlabel"><a xlink:href="dir_000020_000000.html" target="_top" xlink:title="24">
<text text-anchor="middle" x="82.1465" y="-48.2106" font-family="Helvetica,sans-Serif" font-size="10.00">24</text>
</a>
</g>
</g>
<!-- dir_e3553c556ef0dcac7d89aa92e85ed2aa -->
<g id="node4" class="node"><title>dir_e3553c556ef0dcac7d89aa92e85ed2aa</title>
<g id="a_node4"><a xlink:href="dir_e3553c556ef0dcac7d89aa92e85ed2aa.html" target="_top" xlink:title="src">
<polygon fill="white" stroke="red" points="148,-180 94,-180 94,-144 148,-144 148,-180"/>
<text text-anchor="middle" x="121" y="-159.5" font-family="Helvetica,sans-Serif" font-size="10.00">src</text>
</a>
</g>
</g>
<!-- dir_e3553c556ef0dcac7d89aa92e85ed2aa&#45;&gt;dir_2744afda34637f3a8b9329399ed85b24 -->
<g id="edge2" class="edge"><title>dir_e3553c556ef0dcac7d89aa92e85ed2aa&#45;&gt;dir_2744afda34637f3a8b9329399ed85b24</title>
<path fill="none" stroke="black" d="M101.966,-143.697C92.4553,-135.05 80.7934,-124.449 70.4297,-115.027"/>
<polygon fill="black" stroke="black" points="72.5686,-112.241 62.8148,-108.104 67.8598,-117.421 72.5686,-112.241"/>
<g id="a_edge2&#45;headlabel"><a xlink:href="dir_000019_000020.html" target="_top" xlink:title="19">
<text text-anchor="middle" x="77.1382" y="-110.058" font-family="Helvetica,sans-Serif" font-size="10.00">19</text>
</a>
</g>
</g>
<!-- dir_e3553c556ef0dcac7d89aa92e85ed2aa&#45;&gt;dir_f76cb6505ef3806cfa5a3d9f0fe3c925 -->
<g id="edge3" class="edge"><title>dir_e3553c556ef0dcac7d89aa92e85ed2aa&#45;&gt;dir_f76cb6505ef3806cfa5a3d9f0fe3c925</title>
<path fill="none" stroke="black" d="M120.713,-143.673C120.126,-124.146 118.351,-91.5346 113,-64 111.868,-58.1771 110.255,-52.0432 108.523,-46.2413"/>
<polygon fill="black" stroke="black" points="111.726,-44.7628 105.357,-36.2958 105.055,-46.8863 111.726,-44.7628"/>
<g id="a_edge3&#45;headlabel"><a xlink:href="dir_000019_000000.html" target="_top" xlink:title="14">
<text text-anchor="middle" x="115.521" y="-44.8268" font-family="Helvetica,sans-Serif" font-size="10.00">14</text>
</a>
</g>
</g>
</g>
</svg>
