<?xml version="1.0" encoding="UTF-8" standalone="no"?>
<!DOCTYPE svg PUBLIC "-//W3C//DTD SVG 1.1//EN"
 "http://www.w3.org/Graphics/SVG/1.1/DTD/svg11.dtd">
<!-- Generated by graphviz version 2.38.0 (20140413.2041)
 -->
<!-- Title: src Pages: 1 -->
<svg width="326pt" height="159pt"
 viewBox="0.00 0.00 326.00 159.00" xmlns="http://www.w3.org/2000/svg" xmlns:xlink="http://www.w3.org/1999/xlink">
<g id="graph0" class="graph" transform="scale(1 1) rotate(0) translate(4 155)">
<title>src</title>
<polygon fill="white" stroke="none" points="-4,4 -4,-155 322,-155 322,4 -4,4"/>
<g id="clust1" class="cluster"><title>clusterdir_f76cb6505ef3806cfa5a3d9f0fe3c925</title>
<g id="a_clust1"><a xlink:href="dir_f76cb6505ef3806cfa5a3d9f0fe3c925.html" target="_top" xlink:title="ocra">
<polygon fill="#ddddee" stroke="black" points="8,-56 8,-143 310,-143 310,-56 8,-56"/>
<text text-anchor="middle" x="159" y="-131" font-family="Helvetica,sans-Serif" font-size="10.00">ocra</text>
</a>
</g>
</g>
<g id="clust2" class="cluster"><title>clusterdir_7d8cee73c0b0c7d47156f6a548a62359</title>
<g id="a_clust2"><a xlink:href="dir_7d8cee73c0b0c7d47156f6a548a62359.html" target="_top">
<polygon fill="#eeeeff" stroke="black" points="16,-64 16,-116 302,-116 302,-64 16,-64"/>
</a>
</g>
</g>
<!-- dir_7d8cee73c0b0c7d47156f6a548a62359 -->
<g id="node1" class="node"><title>dir_7d8cee73c0b0c7d47156f6a548a62359</title>
<text text-anchor="middle" x="267" y="-87.5" font-family="Helvetica,sans-Serif" font-size="10.00">src</text>
</g>
<!-- dir_fbce8d87dfc23394048ae6db93cc54b1 -->
<g id="node2" class="node"><title>dir_fbce8d87dfc23394048ae6db93cc54b1</title>
<g id="a_node2"><a xlink:href="dir_fbce8d87dfc23394048ae6db93cc54b1.html" target="_top" xlink:title="control">
<polygon fill="white" stroke="red" points="222,-108 168,-108 168,-72 222,-72 222,-108"/>
<text text-anchor="middle" x="195" y="-87.5" font-family="Helvetica,sans-Serif" font-size="10.00">control</text>
</a>
</g>
</g>
<!-- dir_357d0a83d6953c823b655e4b4fa4dc1f -->
<g id="node5" class="node"><title>dir_357d0a83d6953c823b655e4b4fa4dc1f</title>
<g id="a_node5"><a xlink:href="dir_357d0a83d6953c823b655e4b4fa4dc1f.html" target="_top" xlink:title="include">
<polygon fill="white" stroke="red" points="150,-36 96,-36 96,-0 150,-0 150,-36"/>
<text text-anchor="middle" x="123" y="-15.5" font-family="Helvetica,sans-Serif" font-size="10.00">include</text>
</a>
</g>
</g>
<!-- dir_fbce8d87dfc23394048ae6db93cc54b1&#45;&gt;dir_357d0a83d6953c823b655e4b4fa4dc1f -->
<g id="edge2" class="edge"><title>dir_fbce8d87dfc23394048ae6db93cc54b1&#45;&gt;dir_357d0a83d6953c823b655e4b4fa4dc1f</title>
<path fill="none" stroke="black" d="M177.202,-71.6966C168.396,-63.135 157.618,-52.6562 147.999,-43.3045"/>
<polygon fill="black" stroke="black" points="150.203,-40.5657 140.593,-36.1043 145.323,-45.5846 150.203,-40.5657"/>
<g id="a_edge2&#45;headlabel"><a xlink:href="dir_000006_000001.html" target="_top" xlink:title="43">
<text text-anchor="middle" x="154.759" y="-38.5356" font-family="Helvetica,sans-Serif" font-size="10.00">43</text>
</a>
</g>
</g>
<!-- dir_b0ed99934cb69857c37bff795c9759a0 -->
<g id="node3" class="node"><title>dir_b0ed99934cb69857c37bff795c9759a0</title>
<g id="a_node3"><a xlink:href="dir_b0ed99934cb69857c37bff795c9759a0.html" target="_top" xlink:title="optim">
<polygon fill="white" stroke="black" points="150,-108 96,-108 96,-72 150,-72 150,-108"/>
<text text-anchor="middle" x="123" y="-87.5" font-family="Helvetica,sans-Serif" font-size="10.00">optim</text>
</a>
</g>
</g>
<!-- dir_b0ed99934cb69857c37bff795c9759a0&#45;&gt;dir_357d0a83d6953c823b655e4b4fa4dc1f -->
<g id="edge1" class="edge"><title>dir_b0ed99934cb69857c37bff795c9759a0&#45;&gt;dir_357d0a83d6953c823b655e4b4fa4dc1f</title>
<path fill="none" stroke="black" d="M123,-71.6966C123,-63.9827 123,-54.7125 123,-46.1124"/>
<polygon fill="black" stroke="black" points="126.5,-46.1043 123,-36.1043 119.5,-46.1044 126.5,-46.1043"/>
<g id="a_edge1&#45;headlabel"><a xlink:href="dir_000005_000001.html" target="_top" xlink:title="60">
<text text-anchor="middle" x="129.339" y="-47.199" font-family="Helvetica,sans-Serif" font-size="10.00">60</text>
</a>
</g>
</g>
<!-- dir_3c9a7beb091c6b0ac7905d3a8aa0c132 -->
<g id="node4" class="node"><title>dir_3c9a7beb091c6b0ac7905d3a8aa0c132</title>
<g id="a_node4"><a xlink:href="dir_3c9a7beb091c6b0ac7905d3a8aa0c132.html" target="_top" xlink:title="util">
<polygon fill="white" stroke="black" points="78,-108 24,-108 24,-72 78,-72 78,-108"/>
<text text-anchor="middle" x="51" y="-87.5" font-family="Helvetica,sans-Serif" font-size="10.00">util</text>
</a>
</g>
</g>
<!-- dir_3c9a7beb091c6b0ac7905d3a8aa0c132&#45;&gt;dir_357d0a83d6953c823b655e4b4fa4dc1f -->
<g id="edge3" class="edge"><title>dir_3c9a7beb091c6b0ac7905d3a8aa0c132&#45;&gt;dir_357d0a83d6953c823b655e4b4fa4dc1f</title>
<path fill="none" stroke="black" d="M68.7978,-71.6966C77.604,-63.135 88.3821,-52.6562 98.0011,-43.3045"/>
<polygon fill="black" stroke="black" points="100.677,-45.5846 105.407,-36.1043 95.7972,-40.5657 100.677,-45.5846"/>
<g id="a_edge3&#45;headlabel"><a xlink:href="dir_000017_000001.html" target="_top" xlink:title="1">
<text text-anchor="middle" x="100.079" y="-47.6261" font-family="Helvetica,sans-Serif" font-size="10.00">1</text>
</a>
</g>
</g>
</g>
</svg>
