<?xml version="1.0" encoding="UTF-8" standalone="no"?>
<!DOCTYPE svg PUBLIC "-//W3C//DTD SVG 1.1//EN"
 "http://www.w3.org/Graphics/SVG/1.1/DTD/svg11.dtd">
<!-- Generated by graphviz version 2.38.0 (20140413.2041)
 -->
<!-- Title: include Pages: 1 -->
<svg width="182pt" height="159pt"
 viewBox="0.00 0.00 182.00 159.00" xmlns="http://www.w3.org/2000/svg" xmlns:xlink="http://www.w3.org/1999/xlink">
<g id="graph0" class="graph" transform="scale(1 1) rotate(0) translate(4 155)">
<title>include</title>
<polygon fill="white" stroke="none" points="-4,4 -4,-155 178,-155 178,4 -4,4"/>
<g id="clust1" class="cluster"><title>clusterdir_4825328a1b66194884fd323641c1a1d5</title>
<g id="a_clust1"><a xlink:href="dir_4825328a1b66194884fd323641c1a1d5.html" target="_top" xlink:title="wocra">
<polygon fill="#ddddee" stroke="black" points="8,-56 8,-143 166,-143 166,-56 8,-56"/>
<text text-anchor="middle" x="87" y="-131" font-family="Helvetica,sans-Serif" font-size="10.00">wocra</text>
</a>
</g>
</g>
<g id="clust2" class="cluster"><title>clusterdir_a4860a734eaca8f37c49a4d49ff9ded0</title>
<g id="a_clust2"><a xlink:href="dir_a4860a734eaca8f37c49a4d49ff9ded0.html" target="_top">
<polygon fill="#eeeeff" stroke="black" points="16,-64 16,-116 158,-116 158,-64 16,-64"/>
</a>
</g>
</g>
<!-- dir_a4860a734eaca8f37c49a4d49ff9ded0 -->
<g id="node1" class="node"><title>dir_a4860a734eaca8f37c49a4d49ff9ded0</title>
<text text-anchor="middle" x="123" y="-87.5" font-family="Helvetica,sans-Serif" font-size="10.00">include</text>
</g>
<!-- dir_e450284a44881f6859be06d546bd7f56 -->
<g id="node2" class="node"><title>dir_e450284a44881f6859be06d546bd7f56</title>
<g id="a_node2"><a xlink:href="dir_e450284a44881f6859be06d546bd7f56.html" target="_top" xlink:title="wocra">
<polygon fill="white" stroke="black" points="78,-108 24,-108 24,-72 78,-72 78,-108"/>
<text text-anchor="middle" x="51" y="-87.5" font-family="Helvetica,sans-Serif" font-size="10.00">wocra</text>
</a>
</g>
</g>
<!-- dir_f76cb6505ef3806cfa5a3d9f0fe3c925 -->
<g id="node3" class="node"><title>dir_f76cb6505ef3806cfa5a3d9f0fe3c925</title>
<g id="a_node3"><a xlink:href="dir_f76cb6505ef3806cfa5a3d9f0fe3c925.html" target="_top" xlink:title="ocra">
<polygon fill="white" stroke="red" points="78,-36 24,-36 24,-0 78,-0 78,-36"/>
<text text-anchor="middle" x="51" y="-15.5" font-family="Helvetica,sans-Serif" font-size="10.00">ocra</text>
</a>
</g>
</g>
<!-- dir_e450284a44881f6859be06d546bd7f56&#45;&gt;dir_f76cb6505ef3806cfa5a3d9f0fe3c925 -->
<g id="edge1" class="edge"><title>dir_e450284a44881f6859be06d546bd7f56&#45;&gt;dir_f76cb6505ef3806cfa5a3d9f0fe3c925</title>
<path fill="none" stroke="black" d="M51,-71.6966C51,-63.9827 51,-54.7125 51,-46.1124"/>
<polygon fill="black" stroke="black" points="54.5001,-46.1043 51,-36.1043 47.5001,-46.1044 54.5001,-46.1043"/>
<g id="a_edge1&#45;headlabel"><a xlink:href="dir_000034_000000.html" target="_top" xlink:title="7">
<text text-anchor="middle" x="57.3393" y="-47.199" font-family="Helvetica,sans-Serif" font-size="10.00">7</text>
</a>
</g>
</g>
</g>
</svg>
