<?xml version="1.0" encoding="UTF-8" standalone="no"?>
<!DOCTYPE svg PUBLIC "-//W3C//DTD SVG 1.1//EN"
 "http://www.w3.org/Graphics/SVG/1.1/DTD/svg11.dtd">
<!-- Generated by graphviz version 2.38.0 (20140413.2041)
 -->
<!-- Title: Graphical Class Hierarchy Pages: 1 -->
<svg width="290pt" height="449pt"
 viewBox="0.00 0.00 290.00 449.00" xmlns="http://www.w3.org/2000/svg" xmlns:xlink="http://www.w3.org/1999/xlink">
<g id="graph0" class="graph" transform="scale(1 1) rotate(0) translate(4 445)">
<title>Graphical Class Hierarchy</title>
<polygon fill="white" stroke="none" points="-4,4 -4,-445 286,-445 286,4 -4,4"/>
<!-- Node1 -->
<g id="node1" class="node"><title>Node1</title>
<polygon fill="white" stroke="#bfbfbf" points="0,-205 0,-224 66,-224 66,-205 0,-205"/>
<text text-anchor="middle" x="33" y="-212" font-family="Helvetica,sans-Serif" font-size="10.00">PortReader</text>
</g>
<!-- Node2 -->
<g id="node2" class="node"><title>Node2</title>
<g id="a_node2"><a xlink:href="de/d1c/classocra_1_1TaskYarpInterface_1_1ControlInputCallback.html" target="_top" xlink:title="a short description ">
<polygon fill="white" stroke="black" points="131,-410.5 131,-440.5 253,-440.5 253,-410.5 131,-410.5"/>
<text text-anchor="start" x="139" y="-428.5" font-family="Helvetica,sans-Serif" font-size="10.00">ocra::TaskYarpInterface</text>
<text text-anchor="middle" x="192" y="-417.5" font-family="Helvetica,sans-Serif" font-size="10.00">::ControlInputCallback</text>
</a>
</g>
</g>
<!-- Node1&#45;&gt;Node2 -->
<g id="edge1" class="edge"><title>Node1&#45;&gt;Node2</title>
<path fill="none" stroke="midnightblue" d="M35.4027,-234.691C39.1732,-272.994 52.8789,-356.403 102,-401.5 110.134,-408.968 120.349,-414.153 130.932,-417.745"/>
<polygon fill="midnightblue" stroke="midnightblue" points="38.8577,-234.011 34.5233,-224.344 31.8828,-234.604 38.8577,-234.011"/>
</g>
<!-- Node3 -->
<g id="node3" class="node"><title>Node3</title>
<g id="a_node3"><a xlink:href="d1/d1a/classocra_1_1TaskYarpInterface_1_1RpcMessageCallback.html" target="_top" xlink:title="a short description ">
<polygon fill="white" stroke="black" points="131,-361.5 131,-391.5 253,-391.5 253,-361.5 131,-361.5"/>
<text text-anchor="start" x="139" y="-379.5" font-family="Helvetica,sans-Serif" font-size="10.00">ocra::TaskYarpInterface</text>
<text text-anchor="middle" x="192" y="-368.5" font-family="Helvetica,sans-Serif" font-size="10.00">::RpcMessageCallback</text>
</a>
</g>
</g>
<!-- Node1&#45;&gt;Node3 -->
<g id="edge2" class="edge"><title>Node1&#45;&gt;Node3</title>
<path fill="none" stroke="midnightblue" d="M38.3492,-234.168C45.9815,-264.019 64.6523,-320.553 102,-351.5 110.28,-358.361 120.322,-363.343 130.637,-366.96"/>
<polygon fill="midnightblue" stroke="midnightblue" points="41.6812,-233.053 35.9486,-224.143 34.8736,-234.683 41.6812,-233.053"/>
</g>
<!-- Node4 -->
<g id="node4" class="node"><title>Node4</title>
<g id="a_node4"><a xlink:href="df/dca/classocra__recipes_1_1ClientCommunications.html" target="_top" xlink:title="ocra_recipes::ClientCommunications">
<polygon fill="white" stroke="black" points="103.5,-323 103.5,-342 280.5,-342 280.5,-323 103.5,-323"/>
<text text-anchor="middle" x="192" y="-330" font-family="Helvetica,sans-Serif" font-size="10.00">ocra_recipes::ClientCommunications</text>
</a>
</g>
</g>
<!-- Node1&#45;&gt;Node4 -->
<g id="edge3" class="edge"><title>Node1&#45;&gt;Node4</title>
<path fill="none" stroke="midnightblue" d="M41.7399,-233.503C52.0191,-256.234 72.3932,-293.692 102,-313.5 107.778,-317.366 114.199,-320.464 120.871,-322.944"/>
<polygon fill="midnightblue" stroke="midnightblue" points="44.9062,-232.007 37.7305,-224.212 38.4791,-234.78 44.9062,-232.007"/>
</g>
<!-- Node5 -->
<g id="node5" class="node"><title>Node5</title>
<g id="a_node5"><a xlink:href="de/dfc/classocra__recipes_1_1ClientCommunications_1_1InputCallback.html" target="_top" xlink:title="ocra_recipes::ClientCommunications\l::InputCallback">
<polygon fill="white" stroke="black" points="103.5,-273.5 103.5,-303.5 280.5,-303.5 280.5,-273.5 103.5,-273.5"/>
<text text-anchor="start" x="111.5" y="-291.5" font-family="Helvetica,sans-Serif" font-size="10.00">ocra_recipes::ClientCommunications</text>
<text text-anchor="middle" x="192" y="-280.5" font-family="Helvetica,sans-Serif" font-size="10.00">::InputCallback</text>
</a>
</g>
</g>
<!-- Node1&#45;&gt;Node5 -->
<g id="edge4" class="edge"><title>Node1&#45;&gt;Node5</title>
<path fill="none" stroke="midnightblue" d="M52.4637,-231.029C65.4933,-241.921 83.8048,-255.74 102,-264.5 109.065,-267.902 116.687,-270.881 124.392,-273.474"/>
<polygon fill="midnightblue" stroke="midnightblue" points="54.5849,-228.237 44.7184,-224.377 50.024,-233.548 54.5849,-228.237"/>
</g>
<!-- Node6 -->
<g id="node6" class="node"><title>Node6</title>
<g id="a_node6"><a xlink:href="d4/d05/classocra__recipes_1_1ClientManager_1_1moduleCallback.html" target="_top" xlink:title="A callback function which binds the rpc server port opened in the contoller server module to the cont...">
<polygon fill="white" stroke="black" points="121.5,-224.5 121.5,-254.5 262.5,-254.5 262.5,-224.5 121.5,-224.5"/>
<text text-anchor="start" x="129.5" y="-242.5" font-family="Helvetica,sans-Serif" font-size="10.00">ocra_recipes::ClientManager</text>
<text text-anchor="middle" x="192" y="-231.5" font-family="Helvetica,sans-Serif" font-size="10.00">::moduleCallback</text>
</a>
</g>
</g>
<!-- Node1&#45;&gt;Node6 -->
<g id="edge5" class="edge"><title>Node1&#45;&gt;Node6</title>
<path fill="none" stroke="midnightblue" d="M76.3351,-221.241C90.1962,-223.448 105.982,-225.962 121.314,-228.404"/>
<polygon fill="midnightblue" stroke="midnightblue" points="76.5761,-217.736 66.1501,-219.619 75.4753,-224.649 76.5761,-217.736"/>
</g>
<!-- Node7 -->
<g id="node7" class="node"><title>Node7</title>
<g id="a_node7"><a xlink:href="d5/d79/classocra__recipes_1_1ControlThread_1_1inputCallback.html" target="_top" xlink:title="ocra_recipes::ControlThread\l::inputCallback">
<polygon fill="white" stroke="black" points="122,-175.5 122,-205.5 262,-205.5 262,-175.5 122,-175.5"/>
<text text-anchor="start" x="130" y="-193.5" font-family="Helvetica,sans-Serif" font-size="10.00">ocra_recipes::ControlThread</text>
<text text-anchor="middle" x="192" y="-182.5" font-family="Helvetica,sans-Serif" font-size="10.00">::inputCallback</text>
</a>
</g>
</g>
<!-- Node1&#45;&gt;Node7 -->
<g id="edge6" class="edge"><title>Node1&#45;&gt;Node7</title>
<path fill="none" stroke="midnightblue" d="M76.0423,-208.073C90.1687,-205.914 106.32,-203.445 121.963,-201.053"/>
<polygon fill="midnightblue" stroke="midnightblue" points="75.5064,-204.614 66.1501,-209.585 76.5642,-211.534 75.5064,-204.614"/>
</g>
<!-- Node8 -->
<g id="node8" class="node"><title>Node8</title>
<g id="a_node8"><a xlink:href="d9/d94/classocra__recipes_1_1ServerCommunications.html" target="_top" xlink:title="ocra_recipes::ServerCommunications">
<polygon fill="white" stroke="black" points="102,-137 102,-156 282,-156 282,-137 102,-137"/>
<text text-anchor="middle" x="192" y="-144" font-family="Helvetica,sans-Serif" font-size="10.00">ocra_recipes::ServerCommunications</text>
</a>
</g>
</g>
<!-- Node1&#45;&gt;Node8 -->
<g id="edge7" class="edge"><title>Node1&#45;&gt;Node8</title>
<path fill="none" stroke="midnightblue" d="M52.4599,-198.422C65.4878,-187.872 83.7989,-174.581 102,-166.5 111.698,-162.194 122.415,-158.772 132.955,-156.067"/>
<polygon fill="midnightblue" stroke="midnightblue" points="50.1567,-195.785 44.7158,-204.876 54.6384,-201.162 50.1567,-195.785"/>
</g>
<!-- Node9 -->
<g id="node9" class="node"><title>Node9</title>
<g id="a_node9"><a xlink:href="d2/dde/classocra__recipes_1_1StateListener.html" target="_top" xlink:title="A callback for a port listing to robot states. ">
<polygon fill="white" stroke="black" points="124,-99 124,-118 260,-118 260,-99 124,-99"/>
<text text-anchor="middle" x="192" y="-106" font-family="Helvetica,sans-Serif" font-size="10.00">ocra_recipes::StateListener</text>
</a>
</g>
</g>
<!-- Node1&#45;&gt;Node9 -->
<g id="edge8" class="edge"><title>Node1&#45;&gt;Node9</title>
<path fill="none" stroke="midnightblue" d="M43.328,-196.007C54.4714,-175.891 75.0412,-144.359 102,-127.5 108.698,-123.311 116.175,-120.034 123.87,-117.472"/>
<polygon fill="midnightblue" stroke="midnightblue" points="40.2304,-194.378 38.6282,-204.851 46.4118,-197.663 40.2304,-194.378"/>
</g>
<!-- Node10 -->
<g id="node10" class="node"><title>Node10</title>
<g id="a_node10"><a xlink:href="d7/d37/classocra__recipes_1_1TaskConnection_1_1DesiredStateInputCallback.html" target="_top" xlink:title="ocra_recipes::TaskConnection\l::DesiredStateInputCallback">
<polygon fill="white" stroke="black" points="117.5,-49.5 117.5,-79.5 266.5,-79.5 266.5,-49.5 117.5,-49.5"/>
<text text-anchor="start" x="125.5" y="-67.5" font-family="Helvetica,sans-Serif" font-size="10.00">ocra_recipes::TaskConnection</text>
<text text-anchor="middle" x="192" y="-56.5" font-family="Helvetica,sans-Serif" font-size="10.00">::DesiredStateInputCallback</text>
</a>
</g>
</g>
<!-- Node1&#45;&gt;Node10 -->
<g id="edge9" class="edge"><title>Node1&#45;&gt;Node10</title>
<path fill="none" stroke="midnightblue" d="M39.3412,-194.958C47.9104,-167.318 67.3858,-117.104 102,-89.5 106.894,-85.5974 112.362,-82.3036 118.116,-79.5238"/>
<polygon fill="midnightblue" stroke="midnightblue" points="35.9498,-194.085 36.4953,-204.666 42.6671,-196.054 35.9498,-194.085"/>
</g>
<!-- Node11 -->
<g id="node11" class="node"><title>Node11</title>
<g id="a_node11"><a xlink:href="d9/dba/classocra__recipes_1_1TaskConnection_1_1InputCallback.html" target="_top" xlink:title="ocra_recipes::TaskConnection\l::InputCallback">
<polygon fill="white" stroke="black" points="117.5,-0.5 117.5,-30.5 266.5,-30.5 266.5,-0.5 117.5,-0.5"/>
<text text-anchor="start" x="125.5" y="-18.5" font-family="Helvetica,sans-Serif" font-size="10.00">ocra_recipes::TaskConnection</text>
<text text-anchor="middle" x="192" y="-7.5" font-family="Helvetica,sans-Serif" font-size="10.00">::InputCallback</text>
</a>
</g>
</g>
<!-- Node1&#45;&gt;Node11 -->
<g id="edge10" class="edge"><title>Node1&#45;&gt;Node11</title>
<path fill="none" stroke="midnightblue" d="M36.0237,-194.756C40.7858,-158.715 56.0174,-82.1537 102,-40.5 106.52,-36.4055 111.659,-32.9758 117.134,-30.1036"/>
<polygon fill="midnightblue" stroke="midnightblue" points="32.5183,-194.596 34.8197,-204.937 39.4698,-195.418 32.5183,-194.596"/>
</g>
</g>
</svg>
