<?xml version="1.0" encoding="UTF-8" standalone="no"?>
<!DOCTYPE svg PUBLIC "-//W3C//DTD SVG 1.1//EN"
 "http://www.w3.org/Graphics/SVG/1.1/DTD/svg11.dtd">
<!-- Generated by graphviz version 2.38.0 (20140413.2041)
 -->
<!-- Title: Graphical Class Hierarchy Pages: 1 -->
<svg width="393pt" height="39pt"
 viewBox="0.00 0.00 393.00 39.00" xmlns="http://www.w3.org/2000/svg" xmlns:xlink="http://www.w3.org/1999/xlink">
<g id="graph0" class="graph" transform="scale(1 1) rotate(0) translate(4 35)">
<title>Graphical Class Hierarchy</title>
<polygon fill="white" stroke="none" points="-4,4 -4,-35 389,-35 389,4 -4,4"/>
<!-- Node1 -->
<g id="node1" class="node"><title>Node1</title>
<g id="a_node1"><a xlink:href="d1/d29/structocra_1_1FunctionInterfaceMapping.html" target="_top" xlink:title="ocra::FunctionInterfaceMapping\l\&lt; Objective\&lt; ocra::SquaredLinearFunction \&gt; \&gt;">
<polygon fill="white" stroke="black" points="0,-0.5 0,-30.5 218,-30.5 218,-0.5 0,-0.5"/>
<text text-anchor="start" x="8" y="-18.5" font-family="Helvetica,sans-Serif" font-size="10.00">ocra::FunctionInterfaceMapping</text>
<text text-anchor="middle" x="109" y="-7.5" font-family="Helvetica,sans-Serif" font-size="10.00">&lt; Objective&lt; ocra::SquaredLinearFunction &gt; &gt;</text>
</a>
</g>
</g>
<!-- Node2 -->
<g id="node2" class="node"><title>Node2</title>
<g id="a_node2"><a xlink:href="df/d6c/classocra_1_1Objective.html" target="_top" xlink:title="ocra::Objective\&lt; ocra\l::SquaredLinearFunction \&gt;">
<polygon fill="white" stroke="black" points="254,-0.5 254,-30.5 385,-30.5 385,-0.5 254,-0.5"/>
<text text-anchor="start" x="262" y="-18.5" font-family="Helvetica,sans-Serif" font-size="10.00">ocra::Objective&lt; ocra</text>
<text text-anchor="middle" x="319.5" y="-7.5" font-family="Helvetica,sans-Serif" font-size="10.00">::SquaredLinearFunction &gt;</text>
</a>
</g>
</g>
<!-- Node1&#45;&gt;Node2 -->
<g id="edge1" class="edge"><title>Node1&#45;&gt;Node2</title>
<path fill="none" stroke="midnightblue" d="M228.478,-15.5C237.177,-15.5 245.741,-15.5 253.922,-15.5"/>
<polygon fill="midnightblue" stroke="midnightblue" points="228.22,-12.0001 218.22,-15.5 228.22,-19.0001 228.22,-12.0001"/>
</g>
</g>
</svg>
