<?xml version="1.0" encoding="UTF-8" standalone="no"?>
<!DOCTYPE svg PUBLIC "-//W3C//DTD SVG 1.1//EN"
 "http://www.w3.org/Graphics/SVG/1.1/DTD/svg11.dtd">
<!-- Generated by graphviz version 2.38.0 (20140413.2041)
 -->
<!-- Title: ControlFrame.cpp Pages: 1 -->
<svg width="1573pt" height="330pt"
 viewBox="0.00 0.00 1572.54 330.00" xmlns="http://www.w3.org/2000/svg" xmlns:xlink="http://www.w3.org/1999/xlink">
<g id="graph0" class="graph" transform="scale(1 1) rotate(0) translate(4 326)">
<title>ControlFrame.cpp</title>
<polygon fill="white" stroke="none" points="-4,4 -4,-326 1568.54,-326 1568.54,4 -4,4"/>
<!-- Node1 -->
<g id="node1" class="node"><title>Node1</title>
<polygon fill="#bfbfbf" stroke="black" points="588.04,-302.5 588.04,-321.5 683.04,-321.5 683.04,-302.5 588.04,-302.5"/>
<text text-anchor="middle" x="635.54" y="-309.5" font-family="Helvetica,sans-Serif" font-size="10.00">ControlFrame.cpp</text>
</g>
<!-- Node2 -->
<g id="node2" class="node"><title>Node2</title>
<g id="a_node2"><a xlink:href="../../db/d3d/ControlFrame_8h.html" target="_top" xlink:title="Classes that represent frames. ">
<polygon fill="white" stroke="black" points="214.54,-246.5 214.54,-265.5 352.54,-265.5 352.54,-246.5 214.54,-246.5"/>
<text text-anchor="middle" x="283.54" y="-253.5" font-family="Helvetica,sans-Serif" font-size="10.00">ocra/control/ControlFrame.h</text>
</a>
</g>
</g>
<!-- Node1&#45;&gt;Node2 -->
<g id="edge1" class="edge"><title>Node1&#45;&gt;Node2</title>
<path fill="none" stroke="midnightblue" d="M587.701,-303.661C525.979,-294.192 418.328,-277.678 349.042,-267.049"/>
<polygon fill="midnightblue" stroke="midnightblue" points="349.523,-263.582 339.108,-265.525 348.461,-270.501 349.523,-263.582"/>
</g>
<!-- Node14 -->
<g id="node14" class="node"><title>Node14</title>
<g id="a_node14"><a xlink:href="../../d3/d5a/Model_8h.html" target="_top" xlink:title="Declaration file of the Model class. ">
<polygon fill="white" stroke="black" points="583.04,-246.5 583.04,-265.5 688.04,-265.5 688.04,-246.5 583.04,-246.5"/>
<text text-anchor="middle" x="635.54" y="-253.5" font-family="Helvetica,sans-Serif" font-size="10.00">ocra/control/Model.h</text>
</a>
</g>
</g>
<!-- Node1&#45;&gt;Node14 -->
<g id="edge13" class="edge"><title>Node1&#45;&gt;Node14</title>
<path fill="none" stroke="midnightblue" d="M635.54,-302.083C635.54,-295.006 635.54,-284.861 635.54,-275.986"/>
<polygon fill="midnightblue" stroke="midnightblue" points="639.04,-275.751 635.54,-265.751 632.04,-275.751 639.04,-275.751"/>
</g>
<!-- Node37 -->
<g id="node37" class="node"><title>Node37</title>
<polygon fill="white" stroke="#bfbfbf" points="1043.54,-190.5 1043.54,-209.5 1097.54,-209.5 1097.54,-190.5 1043.54,-190.5"/>
<text text-anchor="middle" x="1070.54" y="-197.5" font-family="Helvetica,sans-Serif" font-size="10.00">iostream</text>
</g>
<!-- Node1&#45;&gt;Node37 -->
<g id="edge57" class="edge"><title>Node1&#45;&gt;Node37</title>
<path fill="none" stroke="midnightblue" d="M669.312,-302.46C749.412,-282.205 950.4,-231.38 1033.59,-210.343"/>
<polygon fill="midnightblue" stroke="midnightblue" points="1034.53,-213.715 1043.37,-207.87 1032.82,-206.929 1034.53,-213.715"/>
</g>
<!-- Node3 -->
<g id="node3" class="node"><title>Node3</title>
<g id="a_node3"><a xlink:href="../../df/d97/NamedInstance_8h.html" target="_top" xlink:title="ocra/optim/NamedInstance.h">
<polygon fill="white" stroke="black" points="514.04,-190.5 514.04,-209.5 657.04,-209.5 657.04,-190.5 514.04,-190.5"/>
<text text-anchor="middle" x="585.54" y="-197.5" font-family="Helvetica,sans-Serif" font-size="10.00">ocra/optim/NamedInstance.h</text>
</a>
</g>
</g>
<!-- Node2&#45;&gt;Node3 -->
<g id="edge2" class="edge"><title>Node2&#45;&gt;Node3</title>
<path fill="none" stroke="midnightblue" d="M331.393,-246.444C384.738,-236.905 470.985,-221.483 527.975,-211.293"/>
<polygon fill="midnightblue" stroke="midnightblue" points="528.683,-214.722 537.911,-209.516 527.451,-207.831 528.683,-214.722"/>
</g>
<!-- Node5 -->
<g id="node5" class="node"><title>Node5</title>
<g id="a_node5"><a xlink:href="../../d5/d55/MathTypes_8h.html" target="_top" xlink:title="Declaration file of the OptimizationVariable class. ">
<polygon fill="white" stroke="black" points="18.0398,-190.5 18.0398,-209.5 129.04,-209.5 129.04,-190.5 18.0398,-190.5"/>
<text text-anchor="middle" x="73.5398" y="-197.5" font-family="Helvetica,sans-Serif" font-size="10.00">ocra/util/MathTypes.h</text>
</a>
</g>
</g>
<!-- Node2&#45;&gt;Node5 -->
<g id="edge4" class="edge"><title>Node2&#45;&gt;Node5</title>
<path fill="none" stroke="midnightblue" d="M250.265,-246.444C214.091,-237.142 156.163,-222.246 116.559,-212.062"/>
<polygon fill="midnightblue" stroke="midnightblue" points="117.216,-208.617 106.659,-209.516 115.472,-215.397 117.216,-208.617"/>
</g>
<!-- Node8 -->
<g id="node8" class="node"><title>Node8</title>
<g id="a_node8"><a xlink:href="../../df/d0a/Macros_8h.html" target="_top" xlink:title="ocra/util/Macros.h">
<polygon fill="white" stroke="black" points="186.04,-190.5 186.04,-209.5 281.04,-209.5 281.04,-190.5 186.04,-190.5"/>
<text text-anchor="middle" x="233.54" y="-197.5" font-family="Helvetica,sans-Serif" font-size="10.00">ocra/util/Macros.h</text>
</a>
</g>
</g>
<!-- Node2&#45;&gt;Node8 -->
<g id="edge7" class="edge"><title>Node2&#45;&gt;Node8</title>
<path fill="none" stroke="midnightblue" d="M275.283,-246.083C268.075,-238.298 257.43,-226.801 248.694,-217.367"/>
<polygon fill="midnightblue" stroke="midnightblue" points="251.005,-214.711 241.643,-209.751 245.869,-219.467 251.005,-214.711"/>
</g>
<!-- Node10 -->
<g id="node10" class="node"><title>Node10</title>
<polygon fill="white" stroke="#bfbfbf" points="299.54,-190.5 299.54,-209.5 367.54,-209.5 367.54,-190.5 299.54,-190.5"/>
<text text-anchor="middle" x="333.54" y="-197.5" font-family="Helvetica,sans-Serif" font-size="10.00">Eigen/Lgsm</text>
</g>
<!-- Node2&#45;&gt;Node10 -->
<g id="edge9" class="edge"><title>Node2&#45;&gt;Node10</title>
<path fill="none" stroke="midnightblue" d="M291.796,-246.083C299.004,-238.298 309.65,-226.801 318.386,-217.367"/>
<polygon fill="midnightblue" stroke="midnightblue" points="321.211,-219.467 325.437,-209.751 316.075,-214.711 321.211,-219.467"/>
</g>
<!-- Node11 -->
<g id="node11" class="node"><title>Node11</title>
<polygon fill="white" stroke="#bfbfbf" points="684.54,-134.5 684.54,-153.5 792.54,-153.5 792.54,-134.5 684.54,-134.5"/>
<text text-anchor="middle" x="738.54" y="-141.5" font-family="Helvetica,sans-Serif" font-size="10.00">boost/shared_ptr.hpp</text>
</g>
<!-- Node2&#45;&gt;Node11 -->
<g id="edge10" class="edge"><title>Node2&#45;&gt;Node11</title>
<path fill="none" stroke="midnightblue" d="M244.411,-246.437C204.566,-236.022 151.89,-216.496 176.54,-190 212.704,-151.127 585.243,-159.059 674.234,-153.679"/>
<polygon fill="midnightblue" stroke="midnightblue" points="674.758,-157.148 684.45,-152.868 674.204,-150.17 674.758,-157.148"/>
</g>
<!-- Node12 -->
<g id="node12" class="node"><title>Node12</title>
<polygon fill="white" stroke="#bfbfbf" points="233.04,-73 233.04,-92 350.04,-92 350.04,-73 233.04,-73"/>
<text text-anchor="middle" x="291.54" y="-80" font-family="Helvetica,sans-Serif" font-size="10.00">boost/noncopyable.hpp</text>
</g>
<!-- Node2&#45;&gt;Node12 -->
<g id="edge11" class="edge"><title>Node2&#45;&gt;Node12</title>
<path fill="none" stroke="midnightblue" d="M214.454,-253.543C141.801,-250.377 34.461,-240.508 8.53977,-210 -4.23578,-194.964 -2.90172,-155.575 18.5398,-134 46.5114,-105.854 151.434,-93.0233 222.751,-87.4501"/>
<polygon fill="midnightblue" stroke="midnightblue" points="223.307,-90.9183 233.016,-86.6795 222.782,-83.938 223.307,-90.9183"/>
</g>
<!-- Node13 -->
<g id="node13" class="node"><title>Node13</title>
<polygon fill="white" stroke="#bfbfbf" points="385.54,-190.5 385.54,-209.5 495.54,-209.5 495.54,-190.5 385.54,-190.5"/>
<text text-anchor="middle" x="440.54" y="-197.5" font-family="Helvetica,sans-Serif" font-size="10.00">yarp/os/Semaphore.h</text>
</g>
<!-- Node2&#45;&gt;Node13 -->
<g id="edge12" class="edge"><title>Node2&#45;&gt;Node13</title>
<path fill="none" stroke="midnightblue" d="M308.417,-246.444C334.829,-237.359 376.755,-222.939 406.281,-212.783"/>
<polygon fill="midnightblue" stroke="midnightblue" points="407.461,-216.079 415.779,-209.516 405.184,-209.459 407.461,-216.079"/>
</g>
<!-- Node4 -->
<g id="node4" class="node"><title>Node4</title>
<polygon fill="white" stroke="#bfbfbf" points="461.04,-134.5 461.04,-153.5 502.04,-153.5 502.04,-134.5 461.04,-134.5"/>
<text text-anchor="middle" x="481.54" y="-141.5" font-family="Helvetica,sans-Serif" font-size="10.00">string</text>
</g>
<!-- Node3&#45;&gt;Node4 -->
<g id="edge3" class="edge"><title>Node3&#45;&gt;Node4</title>
<path fill="none" stroke="midnightblue" d="M568.83,-190.324C552.228,-181.703 526.538,-168.364 507.319,-158.386"/>
<polygon fill="midnightblue" stroke="midnightblue" points="508.696,-155.156 498.208,-153.655 505.47,-161.369 508.696,-155.156"/>
</g>
<!-- Node6 -->
<g id="node6" class="node"><title>Node6</title>
<polygon fill="white" stroke="#bfbfbf" points="28.0398,-134.5 28.0398,-153.5 101.04,-153.5 101.04,-134.5 28.0398,-134.5"/>
<text text-anchor="middle" x="64.5398" y="-141.5" font-family="Helvetica,sans-Serif" font-size="10.00">Eigen/Dense</text>
</g>
<!-- Node5&#45;&gt;Node6 -->
<g id="edge5" class="edge"><title>Node5&#45;&gt;Node6</title>
<path fill="none" stroke="midnightblue" d="M72.0536,-190.083C70.861,-182.927 69.1457,-172.635 67.655,-163.691"/>
<polygon fill="midnightblue" stroke="midnightblue" points="71.0947,-163.04 65.9983,-153.751 64.19,-164.19 71.0947,-163.04"/>
</g>
<!-- Node7 -->
<g id="node7" class="node"><title>Node7</title>
<polygon fill="white" stroke="#bfbfbf" points="119.54,-134.5 119.54,-153.5 163.54,-153.5 163.54,-134.5 119.54,-134.5"/>
<text text-anchor="middle" x="141.54" y="-141.5" font-family="Helvetica,sans-Serif" font-size="10.00">cmath</text>
</g>
<!-- Node5&#45;&gt;Node7 -->
<g id="edge6" class="edge"><title>Node5&#45;&gt;Node7</title>
<path fill="none" stroke="midnightblue" d="M84.4651,-190.324C94.7144,-182.185 110.26,-169.839 122.541,-160.087"/>
<polygon fill="midnightblue" stroke="midnightblue" points="124.761,-162.794 130.416,-153.834 120.408,-157.312 124.761,-162.794"/>
</g>
<!-- Node9 -->
<g id="node9" class="node"><title>Node9</title>
<polygon fill="white" stroke="#bfbfbf" points="207.54,-134.5 207.54,-153.5 259.54,-153.5 259.54,-134.5 207.54,-134.5"/>
<text text-anchor="middle" x="233.54" y="-141.5" font-family="Helvetica,sans-Serif" font-size="10.00">memory</text>
</g>
<!-- Node8&#45;&gt;Node9 -->
<g id="edge8" class="edge"><title>Node8&#45;&gt;Node9</title>
<path fill="none" stroke="midnightblue" d="M233.54,-190.083C233.54,-183.006 233.54,-172.861 233.54,-163.986"/>
<polygon fill="midnightblue" stroke="midnightblue" points="237.04,-163.751 233.54,-153.751 230.04,-163.751 237.04,-163.751"/>
</g>
<!-- Node14&#45;&gt;Node3 -->
<g id="edge47" class="edge"><title>Node14&#45;&gt;Node3</title>
<path fill="none" stroke="midnightblue" d="M627.283,-246.083C620.075,-238.298 609.43,-226.801 600.694,-217.367"/>
<polygon fill="midnightblue" stroke="midnightblue" points="603.005,-214.711 593.643,-209.751 597.869,-219.467 603.005,-214.711"/>
</g>
<!-- Node14&#45;&gt;Node4 -->
<g id="edge54" class="edge"><title>Node14&#45;&gt;Node4</title>
<path fill="none" stroke="midnightblue" d="M645.118,-246.302C658.465,-233.129 679.531,-207.774 665.54,-190 623.401,-136.468 582.643,-170.484 516.54,-154 515.094,-153.639 513.615,-153.268 512.122,-152.892"/>
<polygon fill="midnightblue" stroke="midnightblue" points="512.81,-149.455 502.255,-150.38 511.083,-156.239 512.81,-149.455"/>
</g>
<!-- Node14&#45;&gt;Node5 -->
<g id="edge14" class="edge"><title>Node14&#45;&gt;Node5</title>
<path fill="none" stroke="midnightblue" d="M582.921,-249.944C479.988,-240.054 252.226,-218.169 139.449,-207.333"/>
<polygon fill="midnightblue" stroke="midnightblue" points="139.519,-203.824 129.23,-206.351 138.85,-210.792 139.519,-203.824"/>
</g>
<!-- Node14&#45;&gt;Node8 -->
<g id="edge52" class="edge"><title>Node14&#45;&gt;Node8</title>
<path fill="none" stroke="midnightblue" d="M582.875,-248.578C517.145,-240.462 401.024,-225.799 291.05,-210.039"/>
<polygon fill="midnightblue" stroke="midnightblue" points="291.508,-206.569 281.111,-208.609 290.511,-213.498 291.508,-206.569"/>
</g>
<!-- Node14&#45;&gt;Node10 -->
<g id="edge53" class="edge"><title>Node14&#45;&gt;Node10</title>
<path fill="none" stroke="midnightblue" d="M583.356,-246.473C533.129,-238.145 454.788,-224.836 377.672,-210.168"/>
<polygon fill="midnightblue" stroke="midnightblue" points="378.265,-206.718 367.786,-208.278 376.951,-213.593 378.265,-206.718"/>
</g>
<!-- Node14&#45;&gt;Node13 -->
<g id="edge56" class="edge"><title>Node14&#45;&gt;Node13</title>
<path fill="none" stroke="midnightblue" d="M604.641,-246.444C571.266,-237.201 517.946,-222.436 481.191,-212.257"/>
<polygon fill="midnightblue" stroke="midnightblue" points="481.865,-208.812 471.294,-209.516 479.997,-215.558 481.865,-208.812"/>
</g>
<!-- Node15 -->
<g id="node15" class="node"><title>Node15</title>
<g id="a_node15"><a xlink:href="../../d8/ddc/ObserverSubject_8h.html" target="_top" xlink:title="Declaration file of the Observer, Subject and ObserverSubject classes. ">
<polygon fill="white" stroke="black" points="991.54,-134.5 991.54,-153.5 1137.54,-153.5 1137.54,-134.5 991.54,-134.5"/>
<text text-anchor="middle" x="1064.54" y="-141.5" font-family="Helvetica,sans-Serif" font-size="10.00">ocra/optim/ObserverSubject.h</text>
</a>
</g>
</g>
<!-- Node14&#45;&gt;Node15 -->
<g id="edge15" class="edge"><title>Node14&#45;&gt;Node15</title>
<path fill="none" stroke="midnightblue" d="M688.14,-246.589C728.197,-239.313 784.309,-227.228 831.54,-210 849.84,-203.325 852.247,-196.696 870.54,-190 913.309,-174.345 963.43,-162.886 1002.01,-155.45"/>
<polygon fill="midnightblue" stroke="midnightblue" points="1002.89,-158.846 1012.07,-153.553 1001.59,-151.968 1002.89,-158.846"/>
</g>
<!-- Node26 -->
<g id="node26" class="node"><title>Node26</title>
<g id="a_node26"><a xlink:href="../../d7/d90/Variable_8h.html" target="_top" xlink:title="Declaration file of the Variable class. ">
<polygon fill="white" stroke="black" points="714.04,-190.5 714.04,-209.5 823.04,-209.5 823.04,-190.5 714.04,-190.5"/>
<text text-anchor="middle" x="768.54" y="-197.5" font-family="Helvetica,sans-Serif" font-size="10.00">ocra/optim/Variable.h</text>
</a>
</g>
</g>
<!-- Node14&#45;&gt;Node26 -->
<g id="edge29" class="edge"><title>Node14&#45;&gt;Node26</title>
<path fill="none" stroke="midnightblue" d="M656.614,-246.444C678.6,-237.517 713.274,-223.439 738.204,-213.317"/>
<polygon fill="midnightblue" stroke="midnightblue" points="739.615,-216.521 747.564,-209.516 736.982,-210.035 739.615,-216.521"/>
</g>
<!-- Node35 -->
<g id="node35" class="node"><title>Node35</title>
<g id="a_node35"><a xlink:href="../../d9/d5d/ModelContacts_8h.html" target="_top" xlink:title="Declaration file of the ModelContacts class. ">
<polygon fill="white" stroke="black" points="880.04,-190.5 880.04,-209.5 1025.04,-209.5 1025.04,-190.5 880.04,-190.5"/>
<text text-anchor="middle" x="952.54" y="-197.5" font-family="Helvetica,sans-Serif" font-size="10.00">ocra/control/ModelContacts.h</text>
</a>
</g>
</g>
<!-- Node14&#45;&gt;Node35 -->
<g id="edge48" class="edge"><title>Node14&#45;&gt;Node35</title>
<path fill="none" stroke="midnightblue" d="M685.769,-246.444C741.881,-236.885 832.67,-221.419 892.487,-211.23"/>
<polygon fill="midnightblue" stroke="midnightblue" points="893.275,-214.646 902.545,-209.516 892.099,-207.745 893.275,-214.646"/>
</g>
<!-- Node14&#45;&gt;Node37 -->
<g id="edge55" class="edge"><title>Node14&#45;&gt;Node37</title>
<path fill="none" stroke="midnightblue" d="M688.316,-251.163C762.879,-245.272 903.442,-232.448 1033.04,-209.857"/>
<polygon fill="midnightblue" stroke="midnightblue" points="1033.9,-213.258 1043.14,-208.072 1032.69,-206.365 1033.9,-213.258"/>
</g>
<!-- Node16 -->
<g id="node16" class="node"><title>Node16</title>
<g id="a_node16"><a xlink:href="../../df/d67/ObserverSubjectBase_8h.html" target="_top" xlink:title="Declaration file of the Observer and Subject base classes. ">
<polygon fill="white" stroke="black" points="1169.54,-67.5 1169.54,-97.5 1307.54,-97.5 1307.54,-67.5 1169.54,-67.5"/>
<text text-anchor="start" x="1177.54" y="-85.5" font-family="Helvetica,sans-Serif" font-size="10.00">ocra/optim/ObserverSubject</text>
<text text-anchor="middle" x="1238.54" y="-74.5" font-family="Helvetica,sans-Serif" font-size="10.00">Base.h</text>
</a>
</g>
</g>
<!-- Node15&#45;&gt;Node16 -->
<g id="edge16" class="edge"><title>Node15&#45;&gt;Node16</title>
<path fill="none" stroke="midnightblue" d="M1089.47,-134.475C1115.02,-125.739 1155.47,-111.907 1187.79,-100.855"/>
<polygon fill="midnightblue" stroke="midnightblue" points="1189.2,-104.07 1197.53,-97.523 1186.94,-97.4469 1189.2,-104.07"/>
</g>
<!-- Node20 -->
<g id="node20" class="node"><title>Node20</title>
<polygon fill="white" stroke="#bfbfbf" points="1464.54,-0.5 1464.54,-30.5 1564.54,-30.5 1564.54,-0.5 1464.54,-0.5"/>
<text text-anchor="start" x="1472.54" y="-18.5" font-family="Helvetica,sans-Serif" font-size="10.00">boost/type_traits/is</text>
<text text-anchor="middle" x="1514.54" y="-7.5" font-family="Helvetica,sans-Serif" font-size="10.00">_class.hpp</text>
</g>
<!-- Node15&#45;&gt;Node20 -->
<g id="edge28" class="edge"><title>Node15&#45;&gt;Node20</title>
<path fill="none" stroke="midnightblue" d="M1134.83,-134.468C1197.8,-126.099 1284.94,-112.513 1316.54,-98 1336.35,-88.904 1335.36,-77.354 1354.54,-67 1372.13,-57.5051 1416.84,-43.6775 1454.54,-32.8912"/>
<polygon fill="midnightblue" stroke="midnightblue" points="1455.79,-36.1748 1464.45,-30.0777 1453.88,-29.4407 1455.79,-36.1748"/>
</g>
<!-- Node21 -->
<g id="node21" class="node"><title>Node21</title>
<polygon fill="white" stroke="#bfbfbf" points="917.54,-0.5 917.54,-30.5 1017.54,-30.5 1017.54,-0.5 917.54,-0.5"/>
<text text-anchor="start" x="925.54" y="-18.5" font-family="Helvetica,sans-Serif" font-size="10.00">boost/type_traits/is</text>
<text text-anchor="middle" x="967.54" y="-7.5" font-family="Helvetica,sans-Serif" font-size="10.00">_base_of.hpp</text>
</g>
<!-- Node15&#45;&gt;Node21 -->
<g id="edge26" class="edge"><title>Node15&#45;&gt;Node21</title>
<path fill="none" stroke="midnightblue" d="M1071.01,-134.298C1081.24,-119.373 1098.63,-88.4319 1084.54,-67 1077.04,-55.5989 1049.61,-43.4602 1023.19,-33.9417"/>
<polygon fill="midnightblue" stroke="midnightblue" points="1024.13,-30.5645 1013.54,-30.5596 1021.82,-37.1705 1024.13,-30.5645"/>
</g>
<!-- Node22 -->
<g id="node22" class="node"><title>Node22</title>
<polygon fill="white" stroke="#bfbfbf" points="1036.04,-6 1036.04,-25 1155.04,-25 1155.04,-6 1036.04,-6"/>
<text text-anchor="middle" x="1095.54" y="-13" font-family="Helvetica,sans-Serif" font-size="10.00">boost/static_assert.hpp</text>
</g>
<!-- Node15&#45;&gt;Node22 -->
<g id="edge25" class="edge"><title>Node15&#45;&gt;Node22</title>
<path fill="none" stroke="midnightblue" d="M1080.87,-134.387C1093.5,-126.72 1110.04,-114.213 1117.54,-98 1127.21,-77.0973 1116.72,-51.1443 1107.17,-34.2191"/>
<polygon fill="midnightblue" stroke="midnightblue" points="1110,-32.1355 1101.82,-25.4034 1104.02,-35.7679 1110,-32.1355"/>
</g>
<!-- Node24 -->
<g id="node24" class="node"><title>Node24</title>
<g id="a_node24"><a xlink:href="../../db/ddf/ocra__events_8h.html" target="_top" xlink:title="ocra/optim/ocra_events.h">
<polygon fill="white" stroke="black" points="1364.04,-73 1364.04,-92 1491.04,-92 1491.04,-73 1364.04,-73"/>
<text text-anchor="middle" x="1427.54" y="-80" font-family="Helvetica,sans-Serif" font-size="10.00">ocra/optim/ocra_events.h</text>
</a>
</g>
</g>
<!-- Node15&#45;&gt;Node24 -->
<g id="edge24" class="edge"><title>Node15&#45;&gt;Node24</title>
<path fill="none" stroke="midnightblue" d="M1121.39,-134.489C1178.97,-125.76 1270.55,-111.575 1349.54,-98 1357,-96.7185 1364.84,-95.3194 1372.57,-93.9121"/>
<polygon fill="midnightblue" stroke="midnightblue" points="1373.42,-97.3157 1382.62,-92.0665 1372.15,-90.4309 1373.42,-97.3157"/>
</g>
<!-- Node25 -->
<g id="node25" class="node"><title>Node25</title>
<polygon fill="white" stroke="#bfbfbf" points="975.54,-67.5 975.54,-97.5 1075.54,-97.5 1075.54,-67.5 975.54,-67.5"/>
<text text-anchor="start" x="983.54" y="-85.5" font-family="Helvetica,sans-Serif" font-size="10.00">boost/type_traits/is</text>
<text text-anchor="middle" x="1025.54" y="-74.5" font-family="Helvetica,sans-Serif" font-size="10.00">_convertible.hpp</text>
</g>
<!-- Node15&#45;&gt;Node25 -->
<g id="edge27" class="edge"><title>Node15&#45;&gt;Node25</title>
<path fill="none" stroke="midnightblue" d="M1058.95,-134.475C1054.11,-127.094 1046.89,-116.077 1040.4,-106.171"/>
<polygon fill="midnightblue" stroke="midnightblue" points="1043.14,-103.968 1034.73,-97.523 1037.29,-107.805 1043.14,-103.968"/>
</g>
<!-- Node17 -->
<g id="node17" class="node"><title>Node17</title>
<polygon fill="white" stroke="#bfbfbf" points="1173.04,-6 1173.04,-25 1232.04,-25 1232.04,-6 1173.04,-6"/>
<text text-anchor="middle" x="1202.54" y="-13" font-family="Helvetica,sans-Serif" font-size="10.00">functional</text>
</g>
<!-- Node16&#45;&gt;Node17 -->
<g id="edge17" class="edge"><title>Node16&#45;&gt;Node17</title>
<path fill="none" stroke="midnightblue" d="M1230.73,-67.396C1225.34,-57.6624 1218.13,-44.6464 1212.35,-34.2139"/>
<polygon fill="midnightblue" stroke="midnightblue" points="1215.26,-32.2467 1207.36,-25.1945 1209.14,-35.6382 1215.26,-32.2467"/>
</g>
<!-- Node18 -->
<g id="node18" class="node"><title>Node18</title>
<polygon fill="white" stroke="#bfbfbf" points="843.54,-6 843.54,-25 899.54,-25 899.54,-6 843.54,-6"/>
<text text-anchor="middle" x="871.54" y="-13" font-family="Helvetica,sans-Serif" font-size="10.00">algorithm</text>
</g>
<!-- Node16&#45;&gt;Node18 -->
<g id="edge18" class="edge"><title>Node16&#45;&gt;Node18</title>
<path fill="none" stroke="midnightblue" d="M1169.36,-75.4184C1101.95,-68.442 996.973,-54.7787 908.54,-31 905.883,-30.2856 903.156,-29.442 900.446,-28.5268"/>
<polygon fill="midnightblue" stroke="midnightblue" points="901.448,-25.1662 890.854,-25.001 899.033,-31.7364 901.448,-25.1662"/>
</g>
<!-- Node19 -->
<g id="node19" class="node"><title>Node19</title>
<polygon fill="white" stroke="#bfbfbf" points="1250.54,-6 1250.54,-25 1328.54,-25 1328.54,-6 1250.54,-6"/>
<text text-anchor="middle" x="1289.54" y="-13" font-family="Helvetica,sans-Serif" font-size="10.00">boost/any.hpp</text>
</g>
<!-- Node16&#45;&gt;Node19 -->
<g id="edge19" class="edge"><title>Node16&#45;&gt;Node19</title>
<path fill="none" stroke="midnightblue" d="M1249.61,-67.396C1257.48,-57.3614 1268.09,-43.8382 1276.39,-33.2535"/>
<polygon fill="midnightblue" stroke="midnightblue" points="1279.3,-35.2225 1282.72,-25.1945 1273.79,-30.9014 1279.3,-35.2225"/>
</g>
<!-- Node16&#45;&gt;Node20 -->
<g id="edge20" class="edge"><title>Node16&#45;&gt;Node20</title>
<path fill="none" stroke="midnightblue" d="M1299.85,-67.4436C1340.96,-57.97 1396.58,-45.0597 1454.3,-31.2818"/>
<polygon fill="midnightblue" stroke="midnightblue" points="1455.43,-34.6116 1464.34,-28.8824 1453.8,-27.8035 1455.43,-34.6116"/>
</g>
<!-- Node16&#45;&gt;Node21 -->
<g id="edge21" class="edge"><title>Node16&#45;&gt;Node21</title>
<path fill="none" stroke="midnightblue" d="M1179.11,-67.4642C1138.93,-57.9441 1084.38,-44.9707 1027.62,-31.2524"/>
<polygon fill="midnightblue" stroke="midnightblue" points="1028.29,-27.8138 1017.75,-28.8646 1026.64,-34.6176 1028.29,-27.8138"/>
</g>
<!-- Node16&#45;&gt;Node22 -->
<g id="edge22" class="edge"><title>Node16&#45;&gt;Node22</title>
<path fill="none" stroke="midnightblue" d="M1207.51,-67.396C1182.53,-56.0414 1147.72,-40.2201 1123.58,-29.2437"/>
<polygon fill="midnightblue" stroke="midnightblue" points="1124.81,-25.9588 1114.26,-25.007 1121.91,-32.3314 1124.81,-25.9588"/>
</g>
<!-- Node23 -->
<g id="node23" class="node"><title>Node23</title>
<polygon fill="white" stroke="#bfbfbf" points="1346.54,-0.5 1346.54,-30.5 1446.54,-30.5 1446.54,-0.5 1346.54,-0.5"/>
<text text-anchor="start" x="1354.54" y="-18.5" font-family="Helvetica,sans-Serif" font-size="10.00">boost/ptr_container</text>
<text text-anchor="middle" x="1396.54" y="-7.5" font-family="Helvetica,sans-Serif" font-size="10.00">/ptr_vector.hpp</text>
</g>
<!-- Node16&#45;&gt;Node23 -->
<g id="edge23" class="edge"><title>Node16&#45;&gt;Node23</title>
<path fill="none" stroke="midnightblue" d="M1272.82,-67.396C1296.32,-57.7284 1327.69,-44.8226 1352.97,-34.4262"/>
<polygon fill="midnightblue" stroke="midnightblue" points="1354.41,-37.6179 1362.32,-30.5765 1351.74,-31.1443 1354.41,-37.6179"/>
</g>
<!-- Node26&#45;&gt;Node4 -->
<g id="edge45" class="edge"><title>Node26&#45;&gt;Node4</title>
<path fill="none" stroke="midnightblue" d="M713.742,-190.431C662.538,-182.137 584.068,-168.69 516.54,-154 515.084,-153.683 513.597,-153.348 512.097,-153"/>
<polygon fill="midnightblue" stroke="midnightblue" points="512.751,-149.557 502.207,-150.588 511.093,-156.358 512.751,-149.557"/>
</g>
<!-- Node26&#45;&gt;Node12 -->
<g id="edge44" class="edge"><title>Node26&#45;&gt;Node12</title>
<path fill="none" stroke="midnightblue" d="M713.717,-193.167C667.471,-187.037 600.119,-175.237 544.54,-154 528.163,-147.742 526.826,-140.489 510.54,-134 494.949,-127.788 401.4,-107.117 341.72,-94.2268"/>
<polygon fill="midnightblue" stroke="midnightblue" points="342.237,-90.7579 331.724,-92.0721 340.761,-97.6007 342.237,-90.7579"/>
</g>
<!-- Node26&#45;&gt;Node15 -->
<g id="edge30" class="edge"><title>Node26&#45;&gt;Node15</title>
<path fill="none" stroke="midnightblue" d="M815.442,-190.444C867.62,-180.925 951.911,-165.547 1007.77,-155.356"/>
<polygon fill="midnightblue" stroke="midnightblue" points="1008.65,-158.754 1017.86,-153.516 1007.39,-151.868 1008.65,-158.754"/>
</g>
<!-- Node27 -->
<g id="node27" class="node"><title>Node27</title>
<g id="a_node27"><a xlink:href="../../d1/de6/Composite_8h.html" target="_top" xlink:title="Utility classes and functions to implement the Composite design pattern. ">
<polygon fill="white" stroke="black" points="811.04,-134.5 811.04,-153.5 932.04,-153.5 932.04,-134.5 811.04,-134.5"/>
<text text-anchor="middle" x="871.54" y="-141.5" font-family="Helvetica,sans-Serif" font-size="10.00">ocra/optim/Composite.h</text>
</a>
</g>
</g>
<!-- Node26&#45;&gt;Node27 -->
<g id="edge31" class="edge"><title>Node26&#45;&gt;Node27</title>
<path fill="none" stroke="midnightblue" d="M785.089,-190.324C801.531,-181.703 826.975,-168.364 846.008,-158.386"/>
<polygon fill="midnightblue" stroke="midnightblue" points="847.801,-161.398 855.032,-153.655 844.55,-155.198 847.801,-161.398"/>
</g>
<!-- Node31 -->
<g id="node31" class="node"><title>Node31</title>
<polygon fill="white" stroke="#bfbfbf" points="368.54,-73 368.54,-92 412.54,-92 412.54,-73 368.54,-73"/>
<text text-anchor="middle" x="390.54" y="-80" font-family="Helvetica,sans-Serif" font-size="10.00">vector</text>
</g>
<!-- Node26&#45;&gt;Node31 -->
<g id="edge46" class="edge"><title>Node26&#45;&gt;Node31</title>
<path fill="none" stroke="midnightblue" d="M724.326,-190.486C687.246,-182.76 633.185,-170.121 587.54,-154 567.666,-146.981 564.266,-141.426 544.54,-134 491.232,-113.932 474.826,-118.125 421.54,-98 420.115,-97.4621 418.666,-96.8865 417.21,-96.2863"/>
<polygon fill="midnightblue" stroke="midnightblue" points="418.281,-92.9337 407.719,-92.1042 415.458,-99.3394 418.281,-92.9337"/>
</g>
<!-- Node34 -->
<g id="node34" class="node"><title>Node34</title>
<polygon fill="white" stroke="#bfbfbf" points="597.04,-134.5 597.04,-153.5 666.04,-153.5 666.04,-134.5 597.04,-134.5"/>
<text text-anchor="middle" x="631.54" y="-141.5" font-family="Helvetica,sans-Serif" font-size="10.00">Eigen/Eigen</text>
</g>
<!-- Node26&#45;&gt;Node34 -->
<g id="edge43" class="edge"><title>Node26&#45;&gt;Node34</title>
<path fill="none" stroke="midnightblue" d="M746.832,-190.444C724.185,-181.517 688.468,-167.439 662.788,-157.317"/>
<polygon fill="midnightblue" stroke="midnightblue" points="663.733,-153.927 653.146,-153.516 661.166,-160.44 663.733,-153.927"/>
</g>
<!-- Node27&#45;&gt;Node12 -->
<g id="edge34" class="edge"><title>Node27&#45;&gt;Node12</title>
<path fill="none" stroke="midnightblue" d="M810.854,-135.022C807.705,-134.663 804.586,-134.32 801.54,-134 605.521,-113.427 554.547,-126.611 359.54,-98 352.314,-96.9399 344.706,-95.571 337.299,-94.0985"/>
<polygon fill="midnightblue" stroke="midnightblue" points="337.882,-90.6448 327.38,-92.0456 336.463,-97.4996 337.882,-90.6448"/>
</g>
<!-- Node27&#45;&gt;Node18 -->
<g id="edge40" class="edge"><title>Node27&#45;&gt;Node18</title>
<path fill="none" stroke="midnightblue" d="M871.54,-134.305C871.54,-113.994 871.54,-63.0532 871.54,-35.2768"/>
<polygon fill="midnightblue" stroke="midnightblue" points="875.04,-35.2557 871.54,-25.2557 868.04,-35.2557 875.04,-35.2557"/>
</g>
<!-- Node27&#45;&gt;Node21 -->
<g id="edge36" class="edge"><title>Node27&#45;&gt;Node21</title>
<path fill="none" stroke="midnightblue" d="M878.138,-134.305C892.88,-114.88 928.884,-67.4377 950.436,-39.0382"/>
<polygon fill="midnightblue" stroke="midnightblue" points="953.364,-40.9697 956.621,-30.888 947.787,-36.738 953.364,-40.9697"/>
</g>
<!-- Node27&#45;&gt;Node22 -->
<g id="edge35" class="edge"><title>Node27&#45;&gt;Node22</title>
<path fill="none" stroke="midnightblue" d="M883.975,-134.399C896.506,-125.599 916.266,-111.361 932.54,-98 948.345,-85.0238 949.173,-77.7966 966.54,-67 994.251,-49.7728 1028.82,-36.6219 1055.2,-28.0651"/>
<polygon fill="midnightblue" stroke="midnightblue" points="1056.39,-31.3587 1064.87,-25.0116 1054.28,-24.6832 1056.39,-31.3587"/>
</g>
<!-- Node27&#45;&gt;Node25 -->
<g id="edge37" class="edge"><title>Node27&#45;&gt;Node25</title>
<path fill="none" stroke="midnightblue" d="M893.604,-134.475C916.021,-125.814 951.399,-112.145 979.879,-101.141"/>
<polygon fill="midnightblue" stroke="midnightblue" points="981.178,-104.392 989.245,-97.523 978.656,-97.8622 981.178,-104.392"/>
</g>
<!-- Node28 -->
<g id="node28" class="node"><title>Node28</title>
<g id="a_node28"><a xlink:href="../../de/df3/ocra__assert_8h.html" target="_top" xlink:title="ocra/optim/ocra_assert.h">
<polygon fill="white" stroke="black" points="718.04,-73 718.04,-92 843.04,-92 843.04,-73 718.04,-73"/>
<text text-anchor="middle" x="780.54" y="-80" font-family="Helvetica,sans-Serif" font-size="10.00">ocra/optim/ocra_assert.h</text>
</a>
</g>
</g>
<!-- Node27&#45;&gt;Node28 -->
<g id="edge32" class="edge"><title>Node27&#45;&gt;Node28</title>
<path fill="none" stroke="midnightblue" d="M858.502,-134.475C843.77,-124.843 819.566,-109.017 802.031,-97.5517"/>
<polygon fill="midnightblue" stroke="midnightblue" points="803.839,-94.5522 793.554,-92.0091 800.008,-100.411 803.839,-94.5522"/>
</g>
<!-- Node30 -->
<g id="node30" class="node"><title>Node30</title>
<polygon fill="white" stroke="#bfbfbf" points="431.04,-67.5 431.04,-97.5 560.04,-97.5 560.04,-67.5 431.04,-67.5"/>
<text text-anchor="start" x="439.04" y="-85.5" font-family="Helvetica,sans-Serif" font-size="10.00">boost/type_traits/has</text>
<text text-anchor="middle" x="495.54" y="-74.5" font-family="Helvetica,sans-Serif" font-size="10.00">_nothrow_constructor.hpp</text>
</g>
<!-- Node27&#45;&gt;Node30 -->
<g id="edge38" class="edge"><title>Node27&#45;&gt;Node30</title>
<path fill="none" stroke="midnightblue" d="M811.038,-134.897C751.991,-126.789 659.369,-113.543 570.379,-98.2762"/>
<polygon fill="midnightblue" stroke="midnightblue" points="570.838,-94.8038 560.388,-96.5509 569.647,-101.702 570.838,-94.8038"/>
</g>
<!-- Node27&#45;&gt;Node31 -->
<g id="edge39" class="edge"><title>Node27&#45;&gt;Node31</title>
<path fill="none" stroke="midnightblue" d="M810.848,-135.071C807.701,-134.699 804.584,-134.34 801.54,-134 632.942,-115.181 585.219,-142.592 421.54,-98 419.605,-97.4729 417.642,-96.8328 415.691,-96.1185"/>
<polygon fill="midnightblue" stroke="midnightblue" points="416.804,-92.7892 406.231,-92.1106 414.073,-99.2346 416.804,-92.7892"/>
</g>
<!-- Node32 -->
<g id="node32" class="node"><title>Node32</title>
<polygon fill="white" stroke="#bfbfbf" points="578.04,-73 578.04,-92 623.04,-92 623.04,-73 578.04,-73"/>
<text text-anchor="middle" x="600.54" y="-80" font-family="Helvetica,sans-Serif" font-size="10.00">iosfwd</text>
</g>
<!-- Node27&#45;&gt;Node32 -->
<g id="edge41" class="edge"><title>Node27&#45;&gt;Node32</title>
<path fill="none" stroke="midnightblue" d="M817.44,-134.485C757.652,-124.787 665.336,-108.879 631.54,-98 629.868,-97.4618 628.169,-96.8545 626.471,-96.2013"/>
<polygon fill="midnightblue" stroke="midnightblue" points="627.53,-92.8472 616.96,-92.1189 624.769,-99.2797 627.53,-92.8472"/>
</g>
<!-- Node33 -->
<g id="node33" class="node"><title>Node33</title>
<polygon fill="white" stroke="#bfbfbf" points="641.04,-73 641.04,-92 700.04,-92 700.04,-73 641.04,-73"/>
<text text-anchor="middle" x="670.54" y="-80" font-family="Helvetica,sans-Serif" font-size="10.00">stdexcept</text>
</g>
<!-- Node27&#45;&gt;Node33 -->
<g id="edge42" class="edge"><title>Node27&#45;&gt;Node33</title>
<path fill="none" stroke="midnightblue" d="M836.912,-134.461C803.719,-126.035 752.335,-112.365 708.54,-98 706.275,-97.2573 703.947,-96.4583 701.612,-95.6309"/>
<polygon fill="midnightblue" stroke="midnightblue" points="702.709,-92.3051 692.115,-92.1405 700.294,-98.8754 702.709,-92.3051"/>
</g>
<!-- Node29 -->
<g id="node29" class="node"><title>Node29</title>
<polygon fill="white" stroke="#bfbfbf" points="759.04,-6 759.04,-25 802.04,-25 802.04,-6 759.04,-6"/>
<text text-anchor="middle" x="780.54" y="-13" font-family="Helvetica,sans-Serif" font-size="10.00">cstdio</text>
</g>
<!-- Node28&#45;&gt;Node29 -->
<g id="edge33" class="edge"><title>Node28&#45;&gt;Node29</title>
<path fill="none" stroke="midnightblue" d="M780.54,-72.7338C780.54,-63.1826 780.54,-47.6183 780.54,-35.2829"/>
<polygon fill="midnightblue" stroke="midnightblue" points="784.04,-35.1273 780.54,-25.1273 777.04,-35.1273 784.04,-35.1273"/>
</g>
<!-- Node35&#45;&gt;Node11 -->
<g id="edge51" class="edge"><title>Node35&#45;&gt;Node11</title>
<path fill="none" stroke="midnightblue" d="M918.631,-190.444C881.69,-181.122 822.486,-166.183 782.121,-155.997"/>
<polygon fill="midnightblue" stroke="midnightblue" points="782.842,-152.57 772.29,-153.516 781.13,-159.357 782.842,-152.57"/>
</g>
<!-- Node35&#45;&gt;Node15 -->
<g id="edge49" class="edge"><title>Node35&#45;&gt;Node15</title>
<path fill="none" stroke="midnightblue" d="M970.535,-190.324C988.577,-181.625 1016.59,-168.12 1037.34,-158.113"/>
<polygon fill="midnightblue" stroke="midnightblue" points="1039.1,-161.15 1046.59,-153.655 1036.06,-154.845 1039.1,-161.15"/>
</g>
<!-- Node36 -->
<g id="node36" class="node"><title>Node36</title>
<polygon fill="white" stroke="#bfbfbf" points="1156.04,-134.5 1156.04,-153.5 1221.04,-153.5 1221.04,-134.5 1156.04,-134.5"/>
<text text-anchor="middle" x="1188.54" y="-141.5" font-family="Helvetica,sans-Serif" font-size="10.00">Eigen/Core</text>
</g>
<!-- Node35&#45;&gt;Node36 -->
<g id="edge50" class="edge"><title>Node35&#45;&gt;Node36</title>
<path fill="none" stroke="midnightblue" d="M989.935,-190.444C1032.38,-180.732 1101.47,-164.922 1145.96,-154.743"/>
<polygon fill="midnightblue" stroke="midnightblue" points="1146.91,-158.115 1155.88,-152.473 1145.35,-151.292 1146.91,-158.115"/>
</g>
</g>
</svg>
