<?xml version="1.0" encoding="UTF-8" standalone="no"?>
<!DOCTYPE svg PUBLIC "-//W3C//DTD SVG 1.1//EN"
 "http://www.w3.org/Graphics/SVG/1.1/DTD/svg11.dtd">
<!-- Generated by graphviz version 2.38.0 (20140413.2041)
 -->
<!-- Title: BoundFunction.cpp Pages: 1 -->
<svg width="1541pt" height="520pt"
 viewBox="0.00 0.00 1541.00 520.00" xmlns="http://www.w3.org/2000/svg" xmlns:xlink="http://www.w3.org/1999/xlink">
<g id="graph0" class="graph" transform="scale(1 1) rotate(0) translate(4 516)">
<title>BoundFunction.cpp</title>
<polygon fill="white" stroke="none" points="-4,4 -4,-516 1537,-516 1537,4 -4,4"/>
<!-- Node1 -->
<g id="node1" class="node"><title>Node1</title>
<polygon fill="#bfbfbf" stroke="black" points="1276.5,-492.5 1276.5,-511.5 1377.5,-511.5 1377.5,-492.5 1276.5,-492.5"/>
<text text-anchor="middle" x="1327" y="-499.5" font-family="Helvetica,sans-Serif" font-size="10.00">BoundFunction.cpp</text>
</g>
<!-- Node2 -->
<g id="node2" class="node"><title>Node2</title>
<g id="a_node2"><a xlink:href="../../de/d69/BoundFunction_8h.html" target="_top" xlink:title="Declaration file of the BoundFunction class. ">
<polygon fill="white" stroke="black" points="1165.5,-436.5 1165.5,-455.5 1304.5,-455.5 1304.5,-436.5 1165.5,-436.5"/>
<text text-anchor="middle" x="1235" y="-443.5" font-family="Helvetica,sans-Serif" font-size="10.00">ocra/optim/BoundFunction.h</text>
</a>
</g>
</g>
<!-- Node1&#45;&gt;Node2 -->
<g id="edge1" class="edge"><title>Node1&#45;&gt;Node2</title>
<path fill="none" stroke="midnightblue" d="M1312.22,-492.324C1297.73,-483.822 1275.43,-470.729 1258.51,-460.797"/>
<polygon fill="midnightblue" stroke="midnightblue" points="1260.14,-457.698 1249.74,-455.655 1256.6,-463.735 1260.14,-457.698"/>
</g>
<!-- Node14 -->
<g id="node14" class="node"><title>Node14</title>
<polygon fill="white" stroke="#bfbfbf" points="1272.5,-73 1272.5,-92 1331.5,-92 1331.5,-73 1272.5,-73"/>
<text text-anchor="middle" x="1302" y="-80" font-family="Helvetica,sans-Serif" font-size="10.00">stdexcept</text>
</g>
<!-- Node1&#45;&gt;Node14 -->
<g id="edge56" class="edge"><title>Node1&#45;&gt;Node14</title>
<path fill="none" stroke="midnightblue" d="M1341.12,-492.485C1367.14,-475.602 1420,-435.187 1420,-385.5 1420,-385.5 1420,-385.5 1420,-204.5 1420,-153.272 1365.12,-115.641 1330.21,-96.8863"/>
<polygon fill="midnightblue" stroke="midnightblue" points="1331.45,-93.5856 1320.96,-92.1016 1328.23,-99.8036 1331.45,-93.5856"/>
</g>
<!-- Node3 -->
<g id="node3" class="node"><title>Node3</title>
<g id="a_node3"><a xlink:href="../../dc/d6f/DiagonalLinearFunction_8h.html" target="_top" xlink:title="Declaration file of the DiagonalLinearFunction class. ">
<polygon fill="white" stroke="black" points="995,-369.5 995,-399.5 1125,-399.5 1125,-369.5 995,-369.5"/>
<text text-anchor="start" x="1003" y="-387.5" font-family="Helvetica,sans-Serif" font-size="10.00">ocra/optim/DiagonalLinear</text>
<text text-anchor="middle" x="1060" y="-376.5" font-family="Helvetica,sans-Serif" font-size="10.00">Function.h</text>
</a>
</g>
</g>
<!-- Node2&#45;&gt;Node3 -->
<g id="edge2" class="edge"><title>Node2&#45;&gt;Node3</title>
<path fill="none" stroke="midnightblue" d="M1209.93,-436.475C1184.23,-427.739 1143.55,-413.907 1111.04,-402.855"/>
<polygon fill="midnightblue" stroke="midnightblue" points="1111.84,-399.428 1101.24,-399.523 1109.59,-406.056 1111.84,-399.428"/>
</g>
<!-- Node4 -->
<g id="node4" class="node"><title>Node4</title>
<g id="a_node4"><a xlink:href="../../dc/d8a/LinearFunction_8h.html" target="_top" xlink:title="Declaration file of the LinearFunction class. ">
<polygon fill="white" stroke="black" points="903.5,-313.5 903.5,-332.5 1040.5,-332.5 1040.5,-313.5 903.5,-313.5"/>
<text text-anchor="middle" x="972" y="-320.5" font-family="Helvetica,sans-Serif" font-size="10.00">ocra/optim/LinearFunction.h</text>
</a>
</g>
</g>
<!-- Node3&#45;&gt;Node4 -->
<g id="edge3" class="edge"><title>Node3&#45;&gt;Node4</title>
<path fill="none" stroke="midnightblue" d="M1039.15,-369.399C1025.3,-360.04 1007.19,-347.792 993.264,-338.377"/>
<polygon fill="midnightblue" stroke="midnightblue" points="995.049,-335.36 984.805,-332.658 991.128,-341.158 995.049,-335.36"/>
</g>
<!-- Node5 -->
<g id="node5" class="node"><title>Node5</title>
<g id="a_node5"><a xlink:href="../../df/df5/Function_8h.html" target="_top" xlink:title="Declaration file of the Function class. ">
<polygon fill="white" stroke="black" points="916.5,-257.5 916.5,-276.5 1027.5,-276.5 1027.5,-257.5 916.5,-257.5"/>
<text text-anchor="middle" x="972" y="-264.5" font-family="Helvetica,sans-Serif" font-size="10.00">ocra/optim/Function.h</text>
</a>
</g>
</g>
<!-- Node4&#45;&gt;Node5 -->
<g id="edge4" class="edge"><title>Node4&#45;&gt;Node5</title>
<path fill="none" stroke="midnightblue" d="M972,-313.083C972,-306.006 972,-295.861 972,-286.986"/>
<polygon fill="midnightblue" stroke="midnightblue" points="975.5,-286.751 972,-276.751 968.5,-286.751 975.5,-286.751"/>
</g>
<!-- Node37 -->
<g id="node37" class="node"><title>Node37</title>
<g id="a_node37"><a xlink:href="../../df/d0a/Macros_8h.html" target="_top" xlink:title="ocra/util/Macros.h">
<polygon fill="white" stroke="black" points="638.5,-257.5 638.5,-276.5 733.5,-276.5 733.5,-257.5 638.5,-257.5"/>
<text text-anchor="middle" x="686" y="-264.5" font-family="Helvetica,sans-Serif" font-size="10.00">ocra/util/Macros.h</text>
</a>
</g>
</g>
<!-- Node4&#45;&gt;Node37 -->
<g id="edge54" class="edge"><title>Node4&#45;&gt;Node37</title>
<path fill="none" stroke="midnightblue" d="M926.682,-313.444C876.372,-303.944 795.162,-288.611 741.187,-278.42"/>
<polygon fill="midnightblue" stroke="midnightblue" points="741.581,-274.933 731.106,-276.516 740.283,-281.811 741.581,-274.933"/>
</g>
<!-- Node6 -->
<g id="node6" class="node"><title>Node6</title>
<g id="a_node6"><a xlink:href="../../de/d94/IFunction_8h.html" target="_top" xlink:title="Declaration file of the IFunction interface. ">
<polygon fill="white" stroke="black" points="1260,-134.5 1260,-153.5 1374,-153.5 1374,-134.5 1260,-134.5"/>
<text text-anchor="middle" x="1317" y="-141.5" font-family="Helvetica,sans-Serif" font-size="10.00">ocra/optim/IFunction.h</text>
</a>
</g>
</g>
<!-- Node5&#45;&gt;Node6 -->
<g id="edge5" class="edge"><title>Node5&#45;&gt;Node6</title>
<path fill="none" stroke="midnightblue" d="M1027.8,-263.617C1130.51,-258.655 1341.09,-245.578 1363,-221 1379.88,-202.062 1356.08,-176.082 1336.9,-159.929"/>
<polygon fill="midnightblue" stroke="midnightblue" points="1339.08,-157.194 1329.1,-153.657 1334.7,-162.65 1339.08,-157.194"/>
</g>
<!-- Node15 -->
<g id="node15" class="node"><title>Node15</title>
<g id="a_node15"><a xlink:href="../../d9/d54/IFunctionProperties_8h.html" target="_top" xlink:title="ocra/optim/IFunctionProperties.h">
<polygon fill="white" stroke="black" points="1062,-196 1062,-215 1220,-215 1220,-196 1062,-196"/>
<text text-anchor="middle" x="1141" y="-203" font-family="Helvetica,sans-Serif" font-size="10.00">ocra/optim/IFunctionProperties.h</text>
</a>
</g>
</g>
<!-- Node5&#45;&gt;Node15 -->
<g id="edge14" class="edge"><title>Node5&#45;&gt;Node15</title>
<path fill="none" stroke="midnightblue" d="M996.214,-257.475C1025.33,-247.225 1074.37,-229.959 1107.2,-218.399"/>
<polygon fill="midnightblue" stroke="midnightblue" points="1108.56,-221.631 1116.83,-215.009 1106.24,-215.029 1108.56,-221.631"/>
</g>
<!-- Node17 -->
<g id="node17" class="node"><title>Node17</title>
<g id="a_node17"><a xlink:href="../../db/d47/AbilitySet_8h.html" target="_top" xlink:title="ocra/optim/AbilitySet.h">
<polygon fill="white" stroke="black" points="1238,-196 1238,-215 1354,-215 1354,-196 1238,-196"/>
<text text-anchor="middle" x="1296" y="-203" font-family="Helvetica,sans-Serif" font-size="10.00">ocra/optim/AbilitySet.h</text>
</a>
</g>
</g>
<!-- Node5&#45;&gt;Node17 -->
<g id="edge17" class="edge"><title>Node5&#45;&gt;Node17</title>
<path fill="none" stroke="midnightblue" d="M1024.29,-257.471C1076.3,-248.84 1158.32,-234.831 1229,-221 1235.13,-219.8 1241.57,-218.483 1247.92,-217.146"/>
<polygon fill="midnightblue" stroke="midnightblue" points="1248.74,-220.551 1257.79,-215.044 1247.28,-213.705 1248.74,-220.551"/>
</g>
<!-- Node18 -->
<g id="node18" class="node"><title>Node18</title>
<g id="a_node18"><a xlink:href="../../d1/d87/CoupledInputOutputSize_8h.html" target="_top" xlink:title="ocra/optim/CoupledInputOutput\lSize.h">
<polygon fill="white" stroke="black" points="603,-190.5 603,-220.5 755,-220.5 755,-190.5 603,-190.5"/>
<text text-anchor="start" x="611" y="-208.5" font-family="Helvetica,sans-Serif" font-size="10.00">ocra/optim/CoupledInputOutput</text>
<text text-anchor="middle" x="679" y="-197.5" font-family="Helvetica,sans-Serif" font-size="10.00">Size.h</text>
</a>
</g>
</g>
<!-- Node5&#45;&gt;Node18 -->
<g id="edge20" class="edge"><title>Node5&#45;&gt;Node18</title>
<path fill="none" stroke="midnightblue" d="M930.02,-257.475C885.331,-248.4 813.566,-233.826 758.193,-222.582"/>
<polygon fill="midnightblue" stroke="midnightblue" points="758.551,-219.083 748.054,-220.523 757.158,-225.943 758.551,-219.083"/>
</g>
<!-- Node19 -->
<g id="node19" class="node"><title>Node19</title>
<g id="a_node19"><a xlink:href="../../d7/d90/Variable_8h.html" target="_top" xlink:title="Declaration file of the Variable class. ">
<polygon fill="white" stroke="black" points="773.5,-196 773.5,-215 882.5,-215 882.5,-196 773.5,-196"/>
<text text-anchor="middle" x="828" y="-203" font-family="Helvetica,sans-Serif" font-size="10.00">ocra/optim/Variable.h</text>
</a>
</g>
</g>
<!-- Node5&#45;&gt;Node19 -->
<g id="edge21" class="edge"><title>Node5&#45;&gt;Node19</title>
<path fill="none" stroke="midnightblue" d="M951.368,-257.475C926.881,-247.357 885.853,-230.405 857.891,-218.851"/>
<polygon fill="midnightblue" stroke="midnightblue" points="859.172,-215.593 848.593,-215.009 856.499,-222.063 859.172,-215.593"/>
</g>
<!-- Node20 -->
<g id="node20" class="node"><title>Node20</title>
<g id="a_node20"><a xlink:href="../../d8/ddc/ObserverSubject_8h.html" target="_top" xlink:title="Declaration file of the Observer, Subject and ObserverSubject classes. ">
<polygon fill="white" stroke="black" points="370,-134.5 370,-153.5 516,-153.5 516,-134.5 370,-134.5"/>
<text text-anchor="middle" x="443" y="-141.5" font-family="Helvetica,sans-Serif" font-size="10.00">ocra/optim/ObserverSubject.h</text>
</a>
</g>
</g>
<!-- Node5&#45;&gt;Node20 -->
<g id="edge51" class="edge"><title>Node5&#45;&gt;Node20</title>
<path fill="none" stroke="midnightblue" d="M916.455,-263.196C825.889,-257.991 650.805,-245.11 594,-221 573.936,-212.484 574.788,-201.049 556,-190 532.375,-176.106 503.659,-164.733 481.087,-156.897"/>
<polygon fill="midnightblue" stroke="midnightblue" points="482.101,-153.545 471.507,-153.653 479.856,-160.175 482.101,-153.545"/>
</g>
<!-- Node36 -->
<g id="node36" class="node"><title>Node36</title>
<g id="a_node36"><a xlink:href="../../df/d97/NamedInstance_8h.html" target="_top" xlink:title="ocra/optim/NamedInstance.h">
<polygon fill="white" stroke="black" points="900.5,-196 900.5,-215 1043.5,-215 1043.5,-196 900.5,-196"/>
<text text-anchor="middle" x="972" y="-203" font-family="Helvetica,sans-Serif" font-size="10.00">ocra/optim/NamedInstance.h</text>
</a>
</g>
</g>
<!-- Node5&#45;&gt;Node36 -->
<g id="edge52" class="edge"><title>Node5&#45;&gt;Node36</title>
<path fill="none" stroke="midnightblue" d="M972,-257.475C972,-249.08 972,-235.981 972,-225.163"/>
<polygon fill="midnightblue" stroke="midnightblue" points="975.5,-225.009 972,-215.009 968.5,-225.009 975.5,-225.009"/>
</g>
<!-- Node7 -->
<g id="node7" class="node"><title>Node7</title>
<g id="a_node7"><a xlink:href="../../d5/d55/MathTypes_8h.html" target="_top" xlink:title="Declaration file of the OptimizationVariable class. ">
<polygon fill="white" stroke="black" points="1349.5,-73 1349.5,-92 1460.5,-92 1460.5,-73 1349.5,-73"/>
<text text-anchor="middle" x="1405" y="-80" font-family="Helvetica,sans-Serif" font-size="10.00">ocra/util/MathTypes.h</text>
</a>
</g>
</g>
<!-- Node6&#45;&gt;Node7 -->
<g id="edge6" class="edge"><title>Node6&#45;&gt;Node7</title>
<path fill="none" stroke="midnightblue" d="M1329.61,-134.475C1343.72,-124.931 1366.83,-109.307 1383.75,-97.8683"/>
<polygon fill="midnightblue" stroke="midnightblue" points="1386.09,-100.51 1392.42,-92.0091 1382.17,-94.7109 1386.09,-100.51"/>
</g>
<!-- Node10 -->
<g id="node10" class="node"><title>Node10</title>
<g id="a_node10"><a xlink:href="../../de/df3/ocra__assert_8h.html" target="_top" xlink:title="ocra/optim/ocra_assert.h">
<polygon fill="white" stroke="black" points="1067.5,-73 1067.5,-92 1192.5,-92 1192.5,-73 1067.5,-73"/>
<text text-anchor="middle" x="1130" y="-80" font-family="Helvetica,sans-Serif" font-size="10.00">ocra/optim/ocra_assert.h</text>
</a>
</g>
</g>
<!-- Node6&#45;&gt;Node10 -->
<g id="edge9" class="edge"><title>Node6&#45;&gt;Node10</title>
<path fill="none" stroke="midnightblue" d="M1290.21,-134.475C1257.71,-124.136 1202.79,-106.661 1166.46,-95.1017"/>
<polygon fill="midnightblue" stroke="midnightblue" points="1167.33,-91.7059 1156.74,-92.0091 1165.21,-98.3764 1167.33,-91.7059"/>
</g>
<!-- Node12 -->
<g id="node12" class="node"><title>Node12</title>
<polygon fill="white" stroke="#bfbfbf" points="1479,-73 1479,-92 1533,-92 1533,-73 1479,-73"/>
<text text-anchor="middle" x="1506" y="-80" font-family="Helvetica,sans-Serif" font-size="10.00">iostream</text>
</g>
<!-- Node6&#45;&gt;Node12 -->
<g id="edge11" class="edge"><title>Node6&#45;&gt;Node12</title>
<path fill="none" stroke="midnightblue" d="M1348.69,-134.472C1379.61,-125.95 1427.87,-112.118 1469,-98 1471.12,-97.272 1473.3,-96.4951 1475.49,-95.6936"/>
<polygon fill="midnightblue" stroke="midnightblue" points="1476.87,-98.9116 1484.98,-92.096 1474.39,-92.3655 1476.87,-98.9116"/>
</g>
<!-- Node13 -->
<g id="node13" class="node"><title>Node13</title>
<polygon fill="white" stroke="#bfbfbf" points="1210,-73 1210,-92 1254,-92 1254,-73 1210,-73"/>
<text text-anchor="middle" x="1232" y="-80" font-family="Helvetica,sans-Serif" font-size="10.00">vector</text>
</g>
<!-- Node6&#45;&gt;Node13 -->
<g id="edge12" class="edge"><title>Node6&#45;&gt;Node13</title>
<path fill="none" stroke="midnightblue" d="M1304.82,-134.475C1291.19,-124.931 1268.87,-109.307 1252.53,-97.8683"/>
<polygon fill="midnightblue" stroke="midnightblue" points="1254.36,-94.8764 1244.16,-92.0091 1250.34,-100.611 1254.36,-94.8764"/>
</g>
<!-- Node6&#45;&gt;Node14 -->
<g id="edge13" class="edge"><title>Node6&#45;&gt;Node14</title>
<path fill="none" stroke="midnightblue" d="M1314.85,-134.475C1312.71,-125.992 1309.36,-112.704 1306.62,-101.822"/>
<polygon fill="midnightblue" stroke="midnightblue" points="1309.98,-100.85 1304.15,-92.0091 1303.2,-102.561 1309.98,-100.85"/>
</g>
<!-- Node8 -->
<g id="node8" class="node"><title>Node8</title>
<polygon fill="white" stroke="#bfbfbf" points="1329.5,-6 1329.5,-25 1402.5,-25 1402.5,-6 1329.5,-6"/>
<text text-anchor="middle" x="1366" y="-13" font-family="Helvetica,sans-Serif" font-size="10.00">Eigen/Dense</text>
</g>
<!-- Node7&#45;&gt;Node8 -->
<g id="edge7" class="edge"><title>Node7&#45;&gt;Node8</title>
<path fill="none" stroke="midnightblue" d="M1399.74,-72.7338C1393.78,-62.7928 1383.9,-46.3377 1376.37,-33.7892"/>
<polygon fill="midnightblue" stroke="midnightblue" points="1379.32,-31.9015 1371.18,-25.1273 1373.32,-35.503 1379.32,-31.9015"/>
</g>
<!-- Node9 -->
<g id="node9" class="node"><title>Node9</title>
<polygon fill="white" stroke="#bfbfbf" points="1421,-6 1421,-25 1465,-25 1465,-6 1421,-6"/>
<text text-anchor="middle" x="1443" y="-13" font-family="Helvetica,sans-Serif" font-size="10.00">cmath</text>
</g>
<!-- Node7&#45;&gt;Node9 -->
<g id="edge8" class="edge"><title>Node7&#45;&gt;Node9</title>
<path fill="none" stroke="midnightblue" d="M1410.12,-72.7338C1415.94,-62.7928 1425.56,-46.3377 1432.89,-33.7892"/>
<polygon fill="midnightblue" stroke="midnightblue" points="1435.93,-35.5267 1437.96,-25.1273 1429.89,-31.9938 1435.93,-35.5267"/>
</g>
<!-- Node11 -->
<g id="node11" class="node"><title>Node11</title>
<polygon fill="white" stroke="#bfbfbf" points="1108.5,-6 1108.5,-25 1151.5,-25 1151.5,-6 1108.5,-6"/>
<text text-anchor="middle" x="1130" y="-13" font-family="Helvetica,sans-Serif" font-size="10.00">cstdio</text>
</g>
<!-- Node10&#45;&gt;Node11 -->
<g id="edge10" class="edge"><title>Node10&#45;&gt;Node11</title>
<path fill="none" stroke="midnightblue" d="M1130,-72.7338C1130,-63.1826 1130,-47.6183 1130,-35.2829"/>
<polygon fill="midnightblue" stroke="midnightblue" points="1133.5,-35.1273 1130,-25.1273 1126.5,-35.1273 1133.5,-35.1273"/>
</g>
<!-- Node15&#45;&gt;Node13 -->
<g id="edge16" class="edge"><title>Node15&#45;&gt;Node13</title>
<path fill="none" stroke="midnightblue" d="M1147.54,-195.798C1162.56,-175.827 1199.72,-126.421 1219.36,-100.304"/>
<polygon fill="midnightblue" stroke="midnightblue" points="1222.3,-102.219 1225.51,-92.1232 1216.71,-98.0115 1222.3,-102.219"/>
</g>
<!-- Node16 -->
<g id="node16" class="node"><title>Node16</title>
<polygon fill="white" stroke="#bfbfbf" points="1029.5,-134.5 1029.5,-153.5 1070.5,-153.5 1070.5,-134.5 1029.5,-134.5"/>
<text text-anchor="middle" x="1050" y="-141.5" font-family="Helvetica,sans-Serif" font-size="10.00">string</text>
</g>
<!-- Node15&#45;&gt;Node16 -->
<g id="edge15" class="edge"><title>Node15&#45;&gt;Node16</title>
<path fill="none" stroke="midnightblue" d="M1127.96,-195.975C1113.23,-186.343 1089.03,-170.517 1071.49,-159.052"/>
<polygon fill="midnightblue" stroke="midnightblue" points="1073.3,-156.052 1063.01,-153.509 1069.47,-161.911 1073.3,-156.052"/>
</g>
<!-- Node17&#45;&gt;Node6 -->
<g id="edge18" class="edge"><title>Node17&#45;&gt;Node6</title>
<path fill="none" stroke="midnightblue" d="M1299.01,-195.975C1302.03,-187.404 1306.79,-173.927 1310.65,-162.983"/>
<polygon fill="midnightblue" stroke="midnightblue" points="1313.97,-164.104 1314,-153.509 1307.37,-161.774 1313.97,-164.104"/>
</g>
<!-- Node17&#45;&gt;Node13 -->
<g id="edge19" class="edge"><title>Node17&#45;&gt;Node13</title>
<path fill="none" stroke="midnightblue" d="M1285.91,-195.843C1275.66,-186.513 1260.05,-170.735 1251,-154 1242.16,-137.649 1237.21,-116.901 1234.6,-102.157"/>
<polygon fill="midnightblue" stroke="midnightblue" points="1238.05,-101.555 1233.03,-92.224 1231.14,-102.648 1238.05,-101.555"/>
</g>
<!-- Node19&#45;&gt;Node13 -->
<g id="edge50" class="edge"><title>Node19&#45;&gt;Node13</title>
<path fill="none" stroke="midnightblue" d="M840.162,-195.877C865.583,-177.92 922.837,-137.853 933,-134 1045.37,-91.3923 1085.68,-131.85 1201,-98 1202.88,-97.4478 1204.79,-96.7969 1206.7,-96.0821"/>
<polygon fill="midnightblue" stroke="midnightblue" points="1208.13,-99.2768 1215.95,-92.1351 1205.38,-92.8376 1208.13,-99.2768"/>
</g>
<!-- Node19&#45;&gt;Node16 -->
<g id="edge49" class="edge"><title>Node19&#45;&gt;Node16</title>
<path fill="none" stroke="midnightblue" d="M861.738,-195.999C898.205,-186.728 958.265,-171.223 1019.53,-154.058"/>
<polygon fill="midnightblue" stroke="midnightblue" points="1020.69,-157.368 1029.37,-151.29 1018.8,-150.629 1020.69,-157.368"/>
</g>
<!-- Node19&#45;&gt;Node20 -->
<g id="edge22" class="edge"><title>Node19&#45;&gt;Node20</title>
<path fill="none" stroke="midnightblue" d="M792.898,-195.992C783.54,-193.877 773.413,-191.723 764,-190 683.74,-175.309 591.423,-162.824 526.453,-154.759"/>
<polygon fill="midnightblue" stroke="midnightblue" points="526.62,-151.253 516.266,-153.503 525.763,-158.2 526.62,-151.253"/>
</g>
<!-- Node31 -->
<g id="node31" class="node"><title>Node31</title>
<g id="a_node31"><a xlink:href="../../d1/de6/Composite_8h.html" target="_top" xlink:title="Utility classes and functions to implement the Composite design pattern. ">
<polygon fill="white" stroke="black" points="726.5,-134.5 726.5,-153.5 847.5,-153.5 847.5,-134.5 726.5,-134.5"/>
<text text-anchor="middle" x="787" y="-141.5" font-family="Helvetica,sans-Serif" font-size="10.00">ocra/optim/Composite.h</text>
</a>
</g>
</g>
<!-- Node19&#45;&gt;Node31 -->
<g id="edge36" class="edge"><title>Node19&#45;&gt;Node31</title>
<path fill="none" stroke="midnightblue" d="M822.126,-195.975C816.037,-187.138 806.355,-173.089 798.697,-161.975"/>
<polygon fill="midnightblue" stroke="midnightblue" points="801.42,-159.758 792.863,-153.509 795.656,-163.729 801.42,-159.758"/>
</g>
<!-- Node32 -->
<g id="node32" class="node"><title>Node32</title>
<polygon fill="white" stroke="#bfbfbf" points="932.5,-73 932.5,-92 1049.5,-92 1049.5,-73 932.5,-73"/>
<text text-anchor="middle" x="991" y="-80" font-family="Helvetica,sans-Serif" font-size="10.00">boost/noncopyable.hpp</text>
</g>
<!-- Node19&#45;&gt;Node32 -->
<g id="edge48" class="edge"><title>Node19&#45;&gt;Node32</title>
<path fill="none" stroke="midnightblue" d="M835.355,-195.932C847.726,-181.854 873.915,-153.452 900,-134 919.858,-119.191 944.547,-105.76 963.196,-96.4783"/>
<polygon fill="midnightblue" stroke="midnightblue" points="964.887,-99.5475 972.34,-92.0174 961.818,-93.2562 964.887,-99.5475"/>
</g>
<!-- Node35 -->
<g id="node35" class="node"><title>Node35</title>
<polygon fill="white" stroke="#bfbfbf" points="942.5,-134.5 942.5,-153.5 1011.5,-153.5 1011.5,-134.5 942.5,-134.5"/>
<text text-anchor="middle" x="977" y="-141.5" font-family="Helvetica,sans-Serif" font-size="10.00">Eigen/Eigen</text>
</g>
<!-- Node19&#45;&gt;Node35 -->
<g id="edge47" class="edge"><title>Node19&#45;&gt;Node35</title>
<path fill="none" stroke="midnightblue" d="M849.348,-195.975C874.686,-185.857 917.138,-168.905 946.071,-157.351"/>
<polygon fill="midnightblue" stroke="midnightblue" points="947.703,-160.468 955.692,-153.509 945.107,-153.967 947.703,-160.468"/>
</g>
<!-- Node21 -->
<g id="node21" class="node"><title>Node21</title>
<g id="a_node21"><a xlink:href="../../df/d67/ObserverSubjectBase_8h.html" target="_top" xlink:title="Declaration file of the Observer and Subject base classes. ">
<polygon fill="white" stroke="black" points="258,-67.5 258,-97.5 396,-97.5 396,-67.5 258,-67.5"/>
<text text-anchor="start" x="266" y="-85.5" font-family="Helvetica,sans-Serif" font-size="10.00">ocra/optim/ObserverSubject</text>
<text text-anchor="middle" x="327" y="-74.5" font-family="Helvetica,sans-Serif" font-size="10.00">Base.h</text>
</a>
</g>
</g>
<!-- Node20&#45;&gt;Node21 -->
<g id="edge23" class="edge"><title>Node20&#45;&gt;Node21</title>
<path fill="none" stroke="midnightblue" d="M426.38,-134.475C410.009,-126.078 384.459,-112.973 363.366,-102.153"/>
<polygon fill="midnightblue" stroke="midnightblue" points="364.834,-98.9727 354.339,-97.523 361.639,-105.201 364.834,-98.9727"/>
</g>
<!-- Node25 -->
<g id="node25" class="node"><title>Node25</title>
<polygon fill="white" stroke="#bfbfbf" points="0,-0.5 0,-30.5 100,-30.5 100,-0.5 0,-0.5"/>
<text text-anchor="start" x="8" y="-18.5" font-family="Helvetica,sans-Serif" font-size="10.00">boost/type_traits/is</text>
<text text-anchor="middle" x="50" y="-7.5" font-family="Helvetica,sans-Serif" font-size="10.00">_class.hpp</text>
</g>
<!-- Node20&#45;&gt;Node25 -->
<g id="edge35" class="edge"><title>Node20&#45;&gt;Node25</title>
<path fill="none" stroke="midnightblue" d="M369.681,-140.396C283.293,-136.119 146.054,-125.167 103,-98 81.705,-84.563 67.2304,-59.1087 58.8589,-40.207"/>
<polygon fill="midnightblue" stroke="midnightblue" points="62.002,-38.6497 54.9325,-30.7585 55.5379,-41.336 62.002,-38.6497"/>
</g>
<!-- Node26 -->
<g id="node26" class="node"><title>Node26</title>
<polygon fill="white" stroke="#bfbfbf" points="548,-0.5 548,-30.5 648,-30.5 648,-0.5 548,-0.5"/>
<text text-anchor="start" x="556" y="-18.5" font-family="Helvetica,sans-Serif" font-size="10.00">boost/type_traits/is</text>
<text text-anchor="middle" x="598" y="-7.5" font-family="Helvetica,sans-Serif" font-size="10.00">_base_of.hpp</text>
</g>
<!-- Node20&#45;&gt;Node26 -->
<g id="edge33" class="edge"><title>Node20&#45;&gt;Node26</title>
<path fill="none" stroke="midnightblue" d="M445.214,-134.29C449.566,-118.792 460.632,-86.2547 481,-67 497.03,-51.8459 518.322,-40.8355 538.346,-33.04"/>
<polygon fill="midnightblue" stroke="midnightblue" points="539.568,-36.3199 547.738,-29.5744 537.144,-29.7527 539.568,-36.3199"/>
</g>
<!-- Node27 -->
<g id="node27" class="node"><title>Node27</title>
<polygon fill="white" stroke="#bfbfbf" points="410.5,-6 410.5,-25 529.5,-25 529.5,-6 410.5,-6"/>
<text text-anchor="middle" x="470" y="-13" font-family="Helvetica,sans-Serif" font-size="10.00">boost/static_assert.hpp</text>
</g>
<!-- Node20&#45;&gt;Node27 -->
<g id="edge32" class="edge"><title>Node20&#45;&gt;Node27</title>
<path fill="none" stroke="midnightblue" d="M442.615,-134.421C442.186,-120.19 442.195,-90.8998 448,-67 450.752,-55.6712 455.871,-43.6804 460.48,-34.2269"/>
<polygon fill="midnightblue" stroke="midnightblue" points="463.703,-35.6126 465.144,-25.1163 457.471,-32.4228 463.703,-35.6126"/>
</g>
<!-- Node29 -->
<g id="node29" class="node"><title>Node29</title>
<g id="a_node29"><a xlink:href="../../db/ddf/ocra__events_8h.html" target="_top" xlink:title="ocra/optim/ocra_events.h">
<polygon fill="white" stroke="black" points="112.5,-73 112.5,-92 239.5,-92 239.5,-73 112.5,-73"/>
<text text-anchor="middle" x="176" y="-80" font-family="Helvetica,sans-Serif" font-size="10.00">ocra/optim/ocra_events.h</text>
</a>
</g>
</g>
<!-- Node20&#45;&gt;Node29 -->
<g id="edge31" class="edge"><title>Node20&#45;&gt;Node29</title>
<path fill="none" stroke="midnightblue" d="M404.745,-134.475C357.161,-123.871 275.89,-105.76 224.125,-94.2244"/>
<polygon fill="midnightblue" stroke="midnightblue" points="224.706,-90.7681 214.184,-92.0091 223.183,-97.6005 224.706,-90.7681"/>
</g>
<!-- Node30 -->
<g id="node30" class="node"><title>Node30</title>
<polygon fill="white" stroke="#bfbfbf" points="490,-67.5 490,-97.5 590,-97.5 590,-67.5 490,-67.5"/>
<text text-anchor="start" x="498" y="-85.5" font-family="Helvetica,sans-Serif" font-size="10.00">boost/type_traits/is</text>
<text text-anchor="middle" x="540" y="-74.5" font-family="Helvetica,sans-Serif" font-size="10.00">_convertible.hpp</text>
</g>
<!-- Node20&#45;&gt;Node30 -->
<g id="edge34" class="edge"><title>Node20&#45;&gt;Node30</title>
<path fill="none" stroke="midnightblue" d="M456.898,-134.475C470.281,-126.266 490.998,-113.558 508.398,-102.885"/>
<polygon fill="midnightblue" stroke="midnightblue" points="510.445,-105.735 517.139,-97.523 506.785,-99.7683 510.445,-105.735"/>
</g>
<!-- Node22 -->
<g id="node22" class="node"><title>Node22</title>
<polygon fill="white" stroke="#bfbfbf" points="118.5,-6 118.5,-25 177.5,-25 177.5,-6 118.5,-6"/>
<text text-anchor="middle" x="148" y="-13" font-family="Helvetica,sans-Serif" font-size="10.00">functional</text>
</g>
<!-- Node21&#45;&gt;Node22 -->
<g id="edge24" class="edge"><title>Node21&#45;&gt;Node22</title>
<path fill="none" stroke="midnightblue" d="M287.738,-67.4532C259.653,-57.3772 220.967,-43.4404 187,-31 184.906,-30.233 182.749,-29.4401 180.576,-28.6387"/>
<polygon fill="midnightblue" stroke="midnightblue" points="181.676,-25.3139 171.083,-25.1247 179.246,-31.8785 181.676,-25.3139"/>
</g>
<!-- Node23 -->
<g id="node23" class="node"><title>Node23</title>
<polygon fill="white" stroke="#bfbfbf" points="666,-6 666,-25 722,-25 722,-6 666,-6"/>
<text text-anchor="middle" x="694" y="-13" font-family="Helvetica,sans-Serif" font-size="10.00">algorithm</text>
</g>
<!-- Node21&#45;&gt;Node23 -->
<g id="edge25" class="edge"><title>Node21&#45;&gt;Node23</title>
<path fill="none" stroke="midnightblue" d="M396.176,-75.4184C463.589,-68.442 568.566,-54.7787 657,-31 659.657,-30.2856 662.383,-29.442 665.094,-28.5268"/>
<polygon fill="midnightblue" stroke="midnightblue" points="666.507,-31.7364 674.685,-25.001 664.092,-25.1662 666.507,-31.7364"/>
</g>
<!-- Node24 -->
<g id="node24" class="node"><title>Node24</title>
<polygon fill="white" stroke="#bfbfbf" points="196,-6 196,-25 274,-25 274,-6 196,-6"/>
<text text-anchor="middle" x="235" y="-13" font-family="Helvetica,sans-Serif" font-size="10.00">boost/any.hpp</text>
</g>
<!-- Node21&#45;&gt;Node24 -->
<g id="edge26" class="edge"><title>Node21&#45;&gt;Node24</title>
<path fill="none" stroke="midnightblue" d="M307.037,-67.396C291.752,-56.5966 270.748,-41.7564 255.363,-30.8872"/>
<polygon fill="midnightblue" stroke="midnightblue" points="257.228,-27.9188 247.041,-25.007 253.188,-33.6359 257.228,-27.9188"/>
</g>
<!-- Node21&#45;&gt;Node25 -->
<g id="edge27" class="edge"><title>Node21&#45;&gt;Node25</title>
<path fill="none" stroke="midnightblue" d="M265.401,-67.4611C224.1,-57.9952 168.227,-45.0876 110.277,-31.2891"/>
<polygon fill="midnightblue" stroke="midnightblue" points="110.74,-27.8014 100.201,-28.8858 109.116,-34.6105 110.74,-27.8014"/>
</g>
<!-- Node21&#45;&gt;Node26 -->
<g id="edge28" class="edge"><title>Node21&#45;&gt;Node26</title>
<path fill="none" stroke="midnightblue" d="M385.674,-67.4939C428.015,-57.3776 486.546,-43.3748 538,-31 538.101,-30.9757 538.202,-30.9514 538.303,-30.9271"/>
<polygon fill="midnightblue" stroke="midnightblue" points="539.009,-34.3572 547.912,-28.6134 537.37,-27.5518 539.009,-34.3572"/>
</g>
<!-- Node21&#45;&gt;Node27 -->
<g id="edge29" class="edge"><title>Node21&#45;&gt;Node27</title>
<path fill="none" stroke="midnightblue" d="M358.029,-67.396C383.009,-56.0414 417.816,-40.2201 441.964,-29.2437"/>
<polygon fill="midnightblue" stroke="midnightblue" points="443.629,-32.3314 451.285,-25.007 440.733,-25.9588 443.629,-32.3314"/>
</g>
<!-- Node28 -->
<g id="node28" class="node"><title>Node28</title>
<polygon fill="white" stroke="#bfbfbf" points="292,-0.5 292,-30.5 392,-30.5 392,-0.5 292,-0.5"/>
<text text-anchor="start" x="300" y="-18.5" font-family="Helvetica,sans-Serif" font-size="10.00">boost/ptr_container</text>
<text text-anchor="middle" x="342" y="-7.5" font-family="Helvetica,sans-Serif" font-size="10.00">/ptr_vector.hpp</text>
</g>
<!-- Node21&#45;&gt;Node28 -->
<g id="edge30" class="edge"><title>Node21&#45;&gt;Node28</title>
<path fill="none" stroke="midnightblue" d="M330.255,-67.396C332.063,-59.5597 334.363,-49.5958 336.446,-40.5653"/>
<polygon fill="midnightblue" stroke="midnightblue" points="339.913,-41.1075 338.752,-30.5765 333.093,-39.5334 339.913,-41.1075"/>
</g>
<!-- Node31&#45;&gt;Node10 -->
<g id="edge37" class="edge"><title>Node31&#45;&gt;Node10</title>
<path fill="none" stroke="midnightblue" d="M841.597,-134.496C896.395,-125.828 983.181,-111.742 1058,-98 1064.74,-96.7619 1071.83,-95.4045 1078.81,-94.0325"/>
<polygon fill="midnightblue" stroke="midnightblue" points="1079.8,-97.4049 1088.93,-92.0241 1078.44,-90.5389 1079.8,-97.4049"/>
</g>
<!-- Node31&#45;&gt;Node13 -->
<g id="edge43" class="edge"><title>Node31&#45;&gt;Node13</title>
<path fill="none" stroke="midnightblue" d="M847.506,-137.531C954.222,-127.721 1167.8,-107.292 1201,-98 1202.93,-97.4595 1204.89,-96.8096 1206.84,-96.0884"/>
<polygon fill="midnightblue" stroke="midnightblue" points="1208.46,-99.2012 1216.3,-92.0657 1205.72,-92.7599 1208.46,-99.2012"/>
</g>
<!-- Node31&#45;&gt;Node14 -->
<g id="edge46" class="edge"><title>Node31&#45;&gt;Node14</title>
<path fill="none" stroke="midnightblue" d="M847.669,-139.248C957.603,-132.121 1185.53,-115.741 1263,-98 1266.07,-97.2971 1269.22,-96.4131 1272.35,-95.4301"/>
<polygon fill="midnightblue" stroke="midnightblue" points="1273.77,-98.6416 1282.07,-92.0532 1271.47,-92.0295 1273.77,-98.6416"/>
</g>
<!-- Node31&#45;&gt;Node23 -->
<g id="edge44" class="edge"><title>Node31&#45;&gt;Node23</title>
<path fill="none" stroke="midnightblue" d="M763.496,-134.465C746.921,-127.247 725.523,-115.293 713,-98 699.649,-79.5628 695.523,-53.1655 694.332,-35.458"/>
<polygon fill="midnightblue" stroke="midnightblue" points="697.82,-35.0925 693.905,-25.2474 690.826,-35.3849 697.82,-35.0925"/>
</g>
<!-- Node31&#45;&gt;Node26 -->
<g id="edge40" class="edge"><title>Node31&#45;&gt;Node26</title>
<path fill="none" stroke="midnightblue" d="M766.378,-134.467C747.432,-126.246 718.903,-112.891 696,-98 668.241,-79.9523 639.453,-55.1603 620.322,-37.673"/>
<polygon fill="midnightblue" stroke="midnightblue" points="622.463,-34.8862 612.745,-30.6666 617.711,-40.0256 622.463,-34.8862"/>
</g>
<!-- Node31&#45;&gt;Node27 -->
<g id="edge39" class="edge"><title>Node31&#45;&gt;Node27</title>
<path fill="none" stroke="midnightblue" d="M756.01,-134.486C728.42,-126.464 687.245,-113.398 653,-98 627.761,-86.6511 623.953,-78.9656 599,-67 567.848,-52.0617 531.039,-37.9874 504.73,-28.5109"/>
<polygon fill="midnightblue" stroke="midnightblue" points="505.79,-25.1729 495.195,-25.1119 503.439,-31.7665 505.79,-25.1729"/>
</g>
<!-- Node31&#45;&gt;Node30 -->
<g id="edge41" class="edge"><title>Node31&#45;&gt;Node30</title>
<path fill="none" stroke="midnightblue" d="M751.611,-134.475C712.133,-124.965 647.592,-109.418 600.151,-97.9899"/>
<polygon fill="midnightblue" stroke="midnightblue" points="600.844,-94.5568 590.303,-95.6175 599.205,-101.362 600.844,-94.5568"/>
</g>
<!-- Node31&#45;&gt;Node32 -->
<g id="edge38" class="edge"><title>Node31&#45;&gt;Node32</title>
<path fill="none" stroke="midnightblue" d="M816.228,-134.475C851.903,-124.07 912.36,-106.437 951.982,-94.8801"/>
<polygon fill="midnightblue" stroke="midnightblue" points="953.206,-98.1692 961.826,-92.0091 951.246,-91.4492 953.206,-98.1692"/>
</g>
<!-- Node33 -->
<g id="node33" class="node"><title>Node33</title>
<polygon fill="white" stroke="#bfbfbf" points="722.5,-67.5 722.5,-97.5 851.5,-97.5 851.5,-67.5 722.5,-67.5"/>
<text text-anchor="start" x="730.5" y="-85.5" font-family="Helvetica,sans-Serif" font-size="10.00">boost/type_traits/has</text>
<text text-anchor="middle" x="787" y="-74.5" font-family="Helvetica,sans-Serif" font-size="10.00">_nothrow_constructor.hpp</text>
</g>
<!-- Node31&#45;&gt;Node33 -->
<g id="edge42" class="edge"><title>Node31&#45;&gt;Node33</title>
<path fill="none" stroke="midnightblue" d="M787,-134.475C787,-127.471 787,-117.192 787,-107.696"/>
<polygon fill="midnightblue" stroke="midnightblue" points="790.5,-107.523 787,-97.523 783.5,-107.523 790.5,-107.523"/>
</g>
<!-- Node34 -->
<g id="node34" class="node"><title>Node34</title>
<polygon fill="white" stroke="#bfbfbf" points="869.5,-73 869.5,-92 914.5,-92 914.5,-73 869.5,-73"/>
<text text-anchor="middle" x="892" y="-80" font-family="Helvetica,sans-Serif" font-size="10.00">iosfwd</text>
</g>
<!-- Node31&#45;&gt;Node34 -->
<g id="edge45" class="edge"><title>Node31&#45;&gt;Node34</title>
<path fill="none" stroke="midnightblue" d="M802.044,-134.475C819.275,-124.711 847.74,-108.581 868.034,-97.0808"/>
<polygon fill="midnightblue" stroke="midnightblue" points="870.009,-99.9843 876.984,-92.0091 866.558,-93.8942 870.009,-99.9843"/>
</g>
<!-- Node36&#45;&gt;Node16 -->
<g id="edge53" class="edge"><title>Node36&#45;&gt;Node16</title>
<path fill="none" stroke="midnightblue" d="M983.175,-195.975C995.571,-186.52 1015.79,-171.096 1030.75,-159.687"/>
<polygon fill="midnightblue" stroke="midnightblue" points="1033.02,-162.357 1038.85,-153.509 1028.77,-156.791 1033.02,-162.357"/>
</g>
<!-- Node38 -->
<g id="node38" class="node"><title>Node38</title>
<polygon fill="white" stroke="#bfbfbf" points="495,-196 495,-215 547,-215 547,-196 495,-196"/>
<text text-anchor="middle" x="521" y="-203" font-family="Helvetica,sans-Serif" font-size="10.00">memory</text>
</g>
<!-- Node37&#45;&gt;Node38 -->
<g id="edge55" class="edge"><title>Node37&#45;&gt;Node38</title>
<path fill="none" stroke="midnightblue" d="M662.031,-257.389C636.864,-248.343 596.142,-233.695 561,-221 558.773,-220.195 556.476,-219.365 554.162,-218.527"/>
<polygon fill="midnightblue" stroke="midnightblue" points="555.28,-215.21 544.686,-215.096 552.897,-221.792 555.28,-215.21"/>
</g>
</g>
</svg>
