<?xml version="1.0" encoding="UTF-8" standalone="no"?>
<!DOCTYPE svg PUBLIC "-//W3C//DTD SVG 1.1//EN"
 "http://www.w3.org/Graphics/SVG/1.1/DTD/svg11.dtd">
<!-- Generated by graphviz version 2.38.0 (20140413.2041)
 -->
<!-- Title: FSQPConstraintManager.h Pages: 1 -->
<svg width="257pt" height="140pt"
 viewBox="0.00 0.00 256.50 140.00" xmlns="http://www.w3.org/2000/svg" xmlns:xlink="http://www.w3.org/1999/xlink">
<g id="graph0" class="graph" transform="scale(1 1) rotate(0) translate(4 136)">
<title>FSQPConstraintManager.h</title>
<polygon fill="white" stroke="none" points="-4,4 -4,-136 252.5,-136 252.5,4 -4,4"/>
<!-- Node1 -->
<g id="node1" class="node"><title>Node1</title>
<polygon fill="#bfbfbf" stroke="black" points="43,-112.5 43,-131.5 177,-131.5 177,-112.5 43,-112.5"/>
<text text-anchor="middle" x="110" y="-119.5" font-family="Helvetica,sans-Serif" font-size="10.00">FSQPConstraintManager.h</text>
</g>
<!-- Node2 -->
<g id="node2" class="node"><title>Node2</title>
<g id="a_node2"><a xlink:href="../../dc/d89/FSQPSolver_8h.html" target="_top" xlink:title="Declaration file of the FSQPSolver class. ">
<polygon fill="white" stroke="black" points="5,-56.5 5,-75.5 85,-75.5 85,-56.5 5,-56.5"/>
<text text-anchor="middle" x="45" y="-63.5" font-family="Helvetica,sans-Serif" font-size="10.00">FSQPSolver.h</text>
</a>
</g>
</g>
<!-- Node1&#45;&gt;Node2 -->
<g id="edge1" class="edge"><title>Node1&#45;&gt;Node2</title>
<path fill="none" stroke="midnightblue" d="M91.7274,-105.82C80.0822,-96.1452 65.4005,-83.9481 55.6334,-75.8339"/>
<polygon fill="midnightblue" stroke="midnightblue" points="89.6281,-108.626 99.5566,-112.324 94.1013,-103.242 89.6281,-108.626"/>
</g>
<!-- Node4 -->
<g id="node4" class="node"><title>Node4</title>
<g id="a_node4"><a xlink:href="../../d6/db9/FSQPConstraintManager_8cpp.html" target="_top" xlink:title="FSQPConstraintManager.cpp">
<polygon fill="white" stroke="black" points="103.5,-56.5 103.5,-75.5 248.5,-75.5 248.5,-56.5 103.5,-56.5"/>
<text text-anchor="middle" x="176" y="-63.5" font-family="Helvetica,sans-Serif" font-size="10.00">FSQPConstraintManager.cpp</text>
</a>
</g>
</g>
<!-- Node1&#45;&gt;Node4 -->
<g id="edge3" class="edge"><title>Node1&#45;&gt;Node4</title>
<path fill="none" stroke="midnightblue" d="M128.554,-105.82C140.378,-96.1452 155.286,-83.9481 165.203,-75.8339"/>
<polygon fill="midnightblue" stroke="midnightblue" points="126.127,-103.283 120.604,-112.324 130.56,-108.7 126.127,-103.283"/>
</g>
<!-- Node3 -->
<g id="node3" class="node"><title>Node3</title>
<g id="a_node3"><a xlink:href="../../d4/d2f/FSQPSolver_8cpp.html" target="_top" xlink:title="FSQPSolver.cpp">
<polygon fill="white" stroke="black" points="0,-0.5 0,-19.5 90,-19.5 90,-0.5 0,-0.5"/>
<text text-anchor="middle" x="45" y="-7.5" font-family="Helvetica,sans-Serif" font-size="10.00">FSQPSolver.cpp</text>
</a>
</g>
</g>
<!-- Node2&#45;&gt;Node3 -->
<g id="edge2" class="edge"><title>Node2&#45;&gt;Node3</title>
<path fill="none" stroke="midnightblue" d="M45,-45.8045C45,-36.9102 45,-26.7798 45,-19.7511"/>
<polygon fill="midnightblue" stroke="midnightblue" points="41.5001,-46.083 45,-56.083 48.5001,-46.083 41.5001,-46.083"/>
</g>
</g>
</svg>
