<?xml version="1.0" encoding="UTF-8" standalone="no"?>
<!DOCTYPE svg PUBLIC "-//W3C//DTD SVG 1.1//EN"
 "http://www.w3.org/Graphics/SVG/1.1/DTD/svg11.dtd">
<!-- Generated by graphviz version 2.38.0 (20140413.2041)
 -->
<!-- Title: WeightedSquareDistanceFunction.cpp Pages: 1 -->
<svg width="1654pt" height="464pt"
 viewBox="0.00 0.00 1653.50 464.00" xmlns="http://www.w3.org/2000/svg" xmlns:xlink="http://www.w3.org/1999/xlink">
<g id="graph0" class="graph" transform="scale(1 1) rotate(0) translate(4 460)">
<title>WeightedSquareDistanceFunction.cpp</title>
<polygon fill="white" stroke="none" points="-4,4 -4,-460 1649.5,-460 1649.5,4 -4,4"/>
<!-- Node1 -->
<g id="node1" class="node"><title>Node1</title>
<polygon fill="#bfbfbf" stroke="black" points="873,-436.5 873,-455.5 1057,-455.5 1057,-436.5 873,-436.5"/>
<text text-anchor="middle" x="965" y="-443.5" font-family="Helvetica,sans-Serif" font-size="10.00">WeightedSquareDistanceFunction.cpp</text>
</g>
<!-- Node2 -->
<g id="node2" class="node"><title>Node2</title>
<g id="a_node2"><a xlink:href="../../d8/d6a/WeightedSquareDistanceFunction_8h.html" target="_top" xlink:title="Declaration file of the WeightedSquareDistanceFunction class. ">
<polygon fill="white" stroke="black" points="795.5,-369.5 795.5,-399.5 932.5,-399.5 932.5,-369.5 795.5,-369.5"/>
<text text-anchor="start" x="803.5" y="-387.5" font-family="Helvetica,sans-Serif" font-size="10.00">ocra/optim/WeightedSquare</text>
<text text-anchor="middle" x="864" y="-376.5" font-family="Helvetica,sans-Serif" font-size="10.00">DistanceFunction.h</text>
</a>
</g>
</g>
<!-- Node1&#45;&gt;Node2 -->
<g id="edge1" class="edge"><title>Node1&#45;&gt;Node2</title>
<path fill="none" stroke="midnightblue" d="M950.529,-436.475C936.594,-428.266 915.023,-415.558 896.905,-404.885"/>
<polygon fill="midnightblue" stroke="midnightblue" points="898.196,-401.583 887.804,-399.523 894.643,-407.614 898.196,-401.583"/>
</g>
<!-- Node13 -->
<g id="node13" class="node"><title>Node13</title>
<polygon fill="white" stroke="#bfbfbf" points="1438.5,-73 1438.5,-92 1497.5,-92 1497.5,-73 1438.5,-73"/>
<text text-anchor="middle" x="1468" y="-80" font-family="Helvetica,sans-Serif" font-size="10.00">stdexcept</text>
</g>
<!-- Node1&#45;&gt;Node13 -->
<g id="edge56" class="edge"><title>Node1&#45;&gt;Node13</title>
<path fill="none" stroke="midnightblue" d="M1057.13,-441.229C1200.57,-432.812 1461,-406.21 1461,-324 1461,-324 1461,-324 1461,-204.5 1461,-168.334 1464.16,-126.189 1466.23,-102.395"/>
<polygon fill="midnightblue" stroke="midnightblue" points="1469.73,-102.57 1467.14,-92.2956 1462.76,-101.94 1469.73,-102.57"/>
</g>
<!-- Node18 -->
<g id="node18" class="node"><title>Node18</title>
<g id="a_node18"><a xlink:href="../../d7/d90/Variable_8h.html" target="_top" xlink:title="Declaration file of the Variable class. ">
<polygon fill="white" stroke="black" points="805.5,-196 805.5,-215 914.5,-215 914.5,-196 805.5,-196"/>
<text text-anchor="middle" x="860" y="-203" font-family="Helvetica,sans-Serif" font-size="10.00">ocra/optim/Variable.h</text>
</a>
</g>
</g>
<!-- Node1&#45;&gt;Node18 -->
<g id="edge57" class="edge"><title>Node1&#45;&gt;Node18</title>
<path fill="none" stroke="midnightblue" d="M965.456,-436.141C966.485,-407.316 966.162,-314.733 924,-257 913.284,-242.327 897.222,-229.671 883.87,-220.698"/>
<polygon fill="midnightblue" stroke="midnightblue" points="885.462,-217.561 875.158,-215.096 881.676,-223.449 885.462,-217.561"/>
</g>
<!-- Node3 -->
<g id="node3" class="node"><title>Node3</title>
<g id="a_node3"><a xlink:href="../../d4/d83/QuadraticFunction_8h.html" target="_top" xlink:title="Declaration file of the QuadraticFunction class. ">
<polygon fill="white" stroke="black" points="783.5,-313.5 783.5,-332.5 936.5,-332.5 936.5,-313.5 783.5,-313.5"/>
<text text-anchor="middle" x="860" y="-320.5" font-family="Helvetica,sans-Serif" font-size="10.00">ocra/optim/QuadraticFunction.h</text>
</a>
</g>
</g>
<!-- Node2&#45;&gt;Node3 -->
<g id="edge2" class="edge"><title>Node2&#45;&gt;Node3</title>
<path fill="none" stroke="midnightblue" d="M863.052,-369.399C862.519,-361.466 861.846,-351.458 861.268,-342.858"/>
<polygon fill="midnightblue" stroke="midnightblue" points="864.745,-342.4 860.582,-332.658 857.761,-342.87 864.745,-342.4"/>
</g>
<!-- Node4 -->
<g id="node4" class="node"><title>Node4</title>
<g id="a_node4"><a xlink:href="../../df/df5/Function_8h.html" target="_top" xlink:title="Declaration file of the Function class. ">
<polygon fill="white" stroke="black" points="804.5,-257.5 804.5,-276.5 915.5,-276.5 915.5,-257.5 804.5,-257.5"/>
<text text-anchor="middle" x="860" y="-264.5" font-family="Helvetica,sans-Serif" font-size="10.00">ocra/optim/Function.h</text>
</a>
</g>
</g>
<!-- Node3&#45;&gt;Node4 -->
<g id="edge3" class="edge"><title>Node3&#45;&gt;Node4</title>
<path fill="none" stroke="midnightblue" d="M860,-313.083C860,-306.006 860,-295.861 860,-286.986"/>
<polygon fill="midnightblue" stroke="midnightblue" points="863.5,-286.751 860,-276.751 856.5,-286.751 863.5,-286.751"/>
</g>
<!-- Node9 -->
<g id="node9" class="node"><title>Node9</title>
<g id="a_node9"><a xlink:href="../../de/df3/ocra__assert_8h.html" target="_top" xlink:title="ocra/optim/ocra_assert.h">
<polygon fill="white" stroke="black" points="1222.5,-73 1222.5,-92 1347.5,-92 1347.5,-73 1222.5,-73"/>
<text text-anchor="middle" x="1285" y="-80" font-family="Helvetica,sans-Serif" font-size="10.00">ocra/optim/ocra_assert.h</text>
</a>
</g>
</g>
<!-- Node3&#45;&gt;Node9 -->
<g id="edge53" class="edge"><title>Node3&#45;&gt;Node9</title>
<path fill="none" stroke="midnightblue" d="M934.112,-313.492C1038.83,-299.884 1222.24,-269.687 1266,-221 1295.58,-188.089 1292.5,-131.648 1288.4,-102.365"/>
<polygon fill="midnightblue" stroke="midnightblue" points="1291.81,-101.58 1286.78,-92.2574 1284.9,-102.684 1291.81,-101.58"/>
</g>
<!-- Node36 -->
<g id="node36" class="node"><title>Node36</title>
<g id="a_node36"><a xlink:href="../../df/d0a/Macros_8h.html" target="_top" xlink:title="ocra/util/Macros.h">
<polygon fill="white" stroke="black" points="515.5,-257.5 515.5,-276.5 610.5,-276.5 610.5,-257.5 515.5,-257.5"/>
<text text-anchor="middle" x="563" y="-264.5" font-family="Helvetica,sans-Serif" font-size="10.00">ocra/util/Macros.h</text>
</a>
</g>
</g>
<!-- Node3&#45;&gt;Node36 -->
<g id="edge54" class="edge"><title>Node3&#45;&gt;Node36</title>
<path fill="none" stroke="midnightblue" d="M812.939,-313.444C760.585,-303.925 676.01,-288.547 619.96,-278.356"/>
<polygon fill="midnightblue" stroke="midnightblue" points="620.305,-274.862 609.84,-276.516 619.053,-281.749 620.305,-274.862"/>
</g>
<!-- Node5 -->
<g id="node5" class="node"><title>Node5</title>
<g id="a_node5"><a xlink:href="../../de/d94/IFunction_8h.html" target="_top" xlink:title="Declaration file of the IFunction interface. ">
<polygon fill="white" stroke="black" points="1313,-134.5 1313,-153.5 1427,-153.5 1427,-134.5 1313,-134.5"/>
<text text-anchor="middle" x="1370" y="-141.5" font-family="Helvetica,sans-Serif" font-size="10.00">ocra/optim/IFunction.h</text>
</a>
</g>
</g>
<!-- Node4&#45;&gt;Node5 -->
<g id="edge4" class="edge"><title>Node4&#45;&gt;Node5</title>
<path fill="none" stroke="midnightblue" d="M915.626,-260.295C956.617,-254.474 1012.85,-243.025 1058,-221 1077.59,-211.443 1076.13,-198.958 1096,-190 1162.33,-160.096 1245.7,-149.811 1302.95,-146.407"/>
<polygon fill="midnightblue" stroke="midnightblue" points="1303.17,-149.9 1312.97,-145.865 1302.79,-142.91 1303.17,-149.9"/>
</g>
<!-- Node14 -->
<g id="node14" class="node"><title>Node14</title>
<g id="a_node14"><a xlink:href="../../d9/d54/IFunctionProperties_8h.html" target="_top" xlink:title="ocra/optim/IFunctionProperties.h">
<polygon fill="white" stroke="black" points="468,-196 468,-215 626,-215 626,-196 468,-196"/>
<text text-anchor="middle" x="547" y="-203" font-family="Helvetica,sans-Serif" font-size="10.00">ocra/optim/IFunctionProperties.h</text>
</a>
</g>
</g>
<!-- Node4&#45;&gt;Node14 -->
<g id="edge13" class="edge"><title>Node4&#45;&gt;Node14</title>
<path fill="none" stroke="midnightblue" d="M815.155,-257.475C758.907,-246.783 662.509,-228.458 601.906,-216.937"/>
<polygon fill="midnightblue" stroke="midnightblue" points="602.24,-213.438 591.762,-215.009 600.932,-220.315 602.24,-213.438"/>
</g>
<!-- Node16 -->
<g id="node16" class="node"><title>Node16</title>
<g id="a_node16"><a xlink:href="../../db/d47/AbilitySet_8h.html" target="_top" xlink:title="ocra/optim/AbilitySet.h">
<polygon fill="white" stroke="black" points="933,-196 933,-215 1049,-215 1049,-196 933,-196"/>
<text text-anchor="middle" x="991" y="-203" font-family="Helvetica,sans-Serif" font-size="10.00">ocra/optim/AbilitySet.h</text>
</a>
</g>
</g>
<!-- Node4&#45;&gt;Node16 -->
<g id="edge16" class="edge"><title>Node4&#45;&gt;Node16</title>
<path fill="none" stroke="midnightblue" d="M878.769,-257.475C900.851,-247.445 937.719,-230.7 963.139,-219.155"/>
<polygon fill="midnightblue" stroke="midnightblue" points="964.608,-222.331 972.266,-215.009 961.713,-215.958 964.608,-222.331"/>
</g>
<!-- Node17 -->
<g id="node17" class="node"><title>Node17</title>
<g id="a_node17"><a xlink:href="../../d1/d87/CoupledInputOutputSize_8h.html" target="_top" xlink:title="ocra/optim/CoupledInputOutput\lSize.h">
<polygon fill="white" stroke="black" points="1105,-190.5 1105,-220.5 1257,-220.5 1257,-190.5 1105,-190.5"/>
<text text-anchor="start" x="1113" y="-208.5" font-family="Helvetica,sans-Serif" font-size="10.00">ocra/optim/CoupledInputOutput</text>
<text text-anchor="middle" x="1181" y="-197.5" font-family="Helvetica,sans-Serif" font-size="10.00">Size.h</text>
</a>
</g>
</g>
<!-- Node4&#45;&gt;Node17 -->
<g id="edge19" class="edge"><title>Node4&#45;&gt;Node17</title>
<path fill="none" stroke="midnightblue" d="M905.991,-257.475C955.256,-248.343 1034.55,-233.645 1095.37,-222.372"/>
<polygon fill="midnightblue" stroke="midnightblue" points="1096.15,-225.787 1105.35,-220.523 1094.88,-218.904 1096.15,-225.787"/>
</g>
<!-- Node4&#45;&gt;Node18 -->
<g id="edge20" class="edge"><title>Node4&#45;&gt;Node18</title>
<path fill="none" stroke="midnightblue" d="M860,-257.475C860,-249.08 860,-235.981 860,-225.163"/>
<polygon fill="midnightblue" stroke="midnightblue" points="863.5,-225.009 860,-215.009 856.5,-225.009 863.5,-225.009"/>
</g>
<!-- Node19 -->
<g id="node19" class="node"><title>Node19</title>
<g id="a_node19"><a xlink:href="../../d8/ddc/ObserverSubject_8h.html" target="_top" xlink:title="Declaration file of the Observer, Subject and ObserverSubject classes. ">
<polygon fill="white" stroke="black" points="370,-134.5 370,-153.5 516,-153.5 516,-134.5 370,-134.5"/>
<text text-anchor="middle" x="443" y="-141.5" font-family="Helvetica,sans-Serif" font-size="10.00">ocra/optim/ObserverSubject.h</text>
</a>
</g>
</g>
<!-- Node4&#45;&gt;Node19 -->
<g id="edge50" class="edge"><title>Node4&#45;&gt;Node19</title>
<path fill="none" stroke="midnightblue" d="M804.451,-263.338C700.348,-257.837 484.083,-243.789 459,-221 443.282,-206.719 440.848,-181.243 441.302,-163.753"/>
<polygon fill="midnightblue" stroke="midnightblue" points="444.806,-163.801 441.907,-153.611 437.818,-163.385 444.806,-163.801"/>
</g>
<!-- Node35 -->
<g id="node35" class="node"><title>Node35</title>
<g id="a_node35"><a xlink:href="../../df/d97/NamedInstance_8h.html" target="_top" xlink:title="ocra/optim/NamedInstance.h">
<polygon fill="white" stroke="black" points="644.5,-196 644.5,-215 787.5,-215 787.5,-196 644.5,-196"/>
<text text-anchor="middle" x="716" y="-203" font-family="Helvetica,sans-Serif" font-size="10.00">ocra/optim/NamedInstance.h</text>
</a>
</g>
</g>
<!-- Node4&#45;&gt;Node35 -->
<g id="edge51" class="edge"><title>Node4&#45;&gt;Node35</title>
<path fill="none" stroke="midnightblue" d="M839.368,-257.475C814.881,-247.357 773.853,-230.405 745.891,-218.851"/>
<polygon fill="midnightblue" stroke="midnightblue" points="747.172,-215.593 736.593,-215.009 744.499,-222.063 747.172,-215.593"/>
</g>
<!-- Node6 -->
<g id="node6" class="node"><title>Node6</title>
<g id="a_node6"><a xlink:href="../../d5/d55/MathTypes_8h.html" target="_top" xlink:title="Declaration file of the OptimizationVariable class. ">
<polygon fill="white" stroke="black" points="1515.5,-73 1515.5,-92 1626.5,-92 1626.5,-73 1515.5,-73"/>
<text text-anchor="middle" x="1571" y="-80" font-family="Helvetica,sans-Serif" font-size="10.00">ocra/util/MathTypes.h</text>
</a>
</g>
</g>
<!-- Node5&#45;&gt;Node6 -->
<g id="edge5" class="edge"><title>Node5&#45;&gt;Node6</title>
<path fill="none" stroke="midnightblue" d="M1398.8,-134.475C1433.87,-124.092 1493.26,-106.512 1532.31,-94.9538"/>
<polygon fill="midnightblue" stroke="midnightblue" points="1533.66,-98.2036 1542.26,-92.0091 1531.67,-91.4916 1533.66,-98.2036"/>
</g>
<!-- Node5&#45;&gt;Node9 -->
<g id="edge8" class="edge"><title>Node5&#45;&gt;Node9</title>
<path fill="none" stroke="midnightblue" d="M1357.82,-134.475C1344.19,-124.931 1321.87,-109.307 1305.53,-97.8683"/>
<polygon fill="midnightblue" stroke="midnightblue" points="1307.36,-94.8764 1297.16,-92.0091 1303.34,-100.611 1307.36,-94.8764"/>
</g>
<!-- Node11 -->
<g id="node11" class="node"><title>Node11</title>
<polygon fill="white" stroke="#bfbfbf" points="1366,-73 1366,-92 1420,-92 1420,-73 1366,-73"/>
<text text-anchor="middle" x="1393" y="-80" font-family="Helvetica,sans-Serif" font-size="10.00">iostream</text>
</g>
<!-- Node5&#45;&gt;Node11 -->
<g id="edge10" class="edge"><title>Node5&#45;&gt;Node11</title>
<path fill="none" stroke="midnightblue" d="M1373.3,-134.475C1376.61,-125.904 1381.82,-112.427 1386.05,-101.483"/>
<polygon fill="midnightblue" stroke="midnightblue" points="1389.37,-102.598 1389.71,-92.0091 1382.84,-100.075 1389.37,-102.598"/>
</g>
<!-- Node12 -->
<g id="node12" class="node"><title>Node12</title>
<polygon fill="white" stroke="#bfbfbf" points="700,-73 700,-92 744,-92 744,-73 700,-73"/>
<text text-anchor="middle" x="722" y="-80" font-family="Helvetica,sans-Serif" font-size="10.00">vector</text>
</g>
<!-- Node5&#45;&gt;Node12 -->
<g id="edge11" class="edge"><title>Node5&#45;&gt;Node12</title>
<path fill="none" stroke="midnightblue" d="M1312.74,-141.478C1180.64,-137.538 857.835,-125.345 753,-98 751.017,-97.4826 749.005,-96.8414 747.008,-96.119"/>
<polygon fill="midnightblue" stroke="midnightblue" points="747.928,-92.7075 737.354,-92.0293 745.197,-99.1529 747.928,-92.7075"/>
</g>
<!-- Node5&#45;&gt;Node13 -->
<g id="edge12" class="edge"><title>Node5&#45;&gt;Node13</title>
<path fill="none" stroke="midnightblue" d="M1384.04,-134.475C1400.05,-124.755 1426.45,-108.727 1445.37,-97.2372"/>
<polygon fill="midnightblue" stroke="midnightblue" points="1447.25,-100.191 1453.99,-92.0091 1443.62,-94.2072 1447.25,-100.191"/>
</g>
<!-- Node7 -->
<g id="node7" class="node"><title>Node7</title>
<polygon fill="white" stroke="#bfbfbf" points="1572.5,-6 1572.5,-25 1645.5,-25 1645.5,-6 1572.5,-6"/>
<text text-anchor="middle" x="1609" y="-13" font-family="Helvetica,sans-Serif" font-size="10.00">Eigen/Dense</text>
</g>
<!-- Node6&#45;&gt;Node7 -->
<g id="edge6" class="edge"><title>Node6&#45;&gt;Node7</title>
<path fill="none" stroke="midnightblue" d="M1576.12,-72.7338C1581.94,-62.7928 1591.56,-46.3377 1598.89,-33.7892"/>
<polygon fill="midnightblue" stroke="midnightblue" points="1601.93,-35.5267 1603.96,-25.1273 1595.89,-31.9938 1601.93,-35.5267"/>
</g>
<!-- Node8 -->
<g id="node8" class="node"><title>Node8</title>
<polygon fill="white" stroke="#bfbfbf" points="1510,-6 1510,-25 1554,-25 1554,-6 1510,-6"/>
<text text-anchor="middle" x="1532" y="-13" font-family="Helvetica,sans-Serif" font-size="10.00">cmath</text>
</g>
<!-- Node6&#45;&gt;Node8 -->
<g id="edge7" class="edge"><title>Node6&#45;&gt;Node8</title>
<path fill="none" stroke="midnightblue" d="M1565.74,-72.7338C1559.78,-62.7928 1549.9,-46.3377 1542.37,-33.7892"/>
<polygon fill="midnightblue" stroke="midnightblue" points="1545.32,-31.9015 1537.18,-25.1273 1539.32,-35.503 1545.32,-31.9015"/>
</g>
<!-- Node10 -->
<g id="node10" class="node"><title>Node10</title>
<polygon fill="white" stroke="#bfbfbf" points="1263.5,-6 1263.5,-25 1306.5,-25 1306.5,-6 1263.5,-6"/>
<text text-anchor="middle" x="1285" y="-13" font-family="Helvetica,sans-Serif" font-size="10.00">cstdio</text>
</g>
<!-- Node9&#45;&gt;Node10 -->
<g id="edge9" class="edge"><title>Node9&#45;&gt;Node10</title>
<path fill="none" stroke="midnightblue" d="M1285,-72.7338C1285,-63.1826 1285,-47.6183 1285,-35.2829"/>
<polygon fill="midnightblue" stroke="midnightblue" points="1288.5,-35.1273 1285,-25.1273 1281.5,-35.1273 1288.5,-35.1273"/>
</g>
<!-- Node14&#45;&gt;Node12 -->
<g id="edge15" class="edge"><title>Node14&#45;&gt;Node12</title>
<path fill="none" stroke="midnightblue" d="M559.306,-195.992C588.855,-175.56 664.094,-123.538 700.975,-98.0374"/>
<polygon fill="midnightblue" stroke="midnightblue" points="703.239,-100.727 709.474,-92.161 699.258,-94.9694 703.239,-100.727"/>
</g>
<!-- Node15 -->
<g id="node15" class="node"><title>Node15</title>
<polygon fill="white" stroke="#bfbfbf" points="689.5,-134.5 689.5,-153.5 730.5,-153.5 730.5,-134.5 689.5,-134.5"/>
<text text-anchor="middle" x="710" y="-141.5" font-family="Helvetica,sans-Serif" font-size="10.00">string</text>
</g>
<!-- Node14&#45;&gt;Node15 -->
<g id="edge14" class="edge"><title>Node14&#45;&gt;Node15</title>
<path fill="none" stroke="midnightblue" d="M570.354,-195.975C599.109,-185.479 648.013,-167.627 679.652,-156.078"/>
<polygon fill="midnightblue" stroke="midnightblue" points="681.077,-159.284 689.271,-152.567 678.677,-152.708 681.077,-159.284"/>
</g>
<!-- Node16&#45;&gt;Node5 -->
<g id="edge17" class="edge"><title>Node16&#45;&gt;Node5</title>
<path fill="none" stroke="midnightblue" d="M1031.29,-195.992C1041.61,-193.922 1052.7,-191.791 1063,-190 1145.32,-175.688 1240.59,-162.198 1302.9,-153.789"/>
<polygon fill="midnightblue" stroke="midnightblue" points="1303.55,-157.234 1312.99,-152.433 1302.61,-150.296 1303.55,-157.234"/>
</g>
<!-- Node16&#45;&gt;Node12 -->
<g id="edge18" class="edge"><title>Node16&#45;&gt;Node12</title>
<path fill="none" stroke="midnightblue" d="M982.667,-195.647C968.017,-180.622 936.051,-150.19 903,-134 841.43,-103.84 817.714,-120.639 753,-98 751.381,-97.4335 749.732,-96.8103 748.082,-96.1504"/>
<polygon fill="midnightblue" stroke="midnightblue" points="749.364,-92.8912 738.798,-92.1092 746.57,-99.3095 749.364,-92.8912"/>
</g>
<!-- Node18&#45;&gt;Node12 -->
<g id="edge49" class="edge"><title>Node18&#45;&gt;Node12</title>
<path fill="none" stroke="midnightblue" d="M850.075,-195.798C826.901,-175.478 768.973,-124.686 739.628,-98.9566"/>
<polygon fill="midnightblue" stroke="midnightblue" points="741.661,-96.0843 731.835,-92.1232 737.046,-101.348 741.661,-96.0843"/>
</g>
<!-- Node18&#45;&gt;Node15 -->
<g id="edge48" class="edge"><title>Node18&#45;&gt;Node15</title>
<path fill="none" stroke="midnightblue" d="M838.509,-195.975C812.856,-185.8 769.777,-168.712 740.641,-157.154"/>
<polygon fill="midnightblue" stroke="midnightblue" points="741.554,-153.751 730.968,-153.317 738.973,-160.258 741.554,-153.751"/>
</g>
<!-- Node18&#45;&gt;Node19 -->
<g id="edge21" class="edge"><title>Node18&#45;&gt;Node19</title>
<path fill="none" stroke="midnightblue" d="M825.246,-195.988C815.795,-193.848 805.536,-191.684 796,-190 704.38,-173.82 598.398,-161.104 526.656,-153.375"/>
<polygon fill="midnightblue" stroke="midnightblue" points="526.64,-149.854 516.325,-152.271 525.896,-156.814 526.64,-149.854"/>
</g>
<!-- Node30 -->
<g id="node30" class="node"><title>Node30</title>
<g id="a_node30"><a xlink:href="../../d1/de6/Composite_8h.html" target="_top" xlink:title="Utility classes and functions to implement the Composite design pattern. ">
<polygon fill="white" stroke="black" points="951.5,-134.5 951.5,-153.5 1072.5,-153.5 1072.5,-134.5 951.5,-134.5"/>
<text text-anchor="middle" x="1012" y="-141.5" font-family="Helvetica,sans-Serif" font-size="10.00">ocra/optim/Composite.h</text>
</a>
</g>
</g>
<!-- Node18&#45;&gt;Node30 -->
<g id="edge35" class="edge"><title>Node18&#45;&gt;Node30</title>
<path fill="none" stroke="midnightblue" d="M881.778,-195.975C907.738,-185.813 951.311,-168.756 980.835,-157.2"/>
<polygon fill="midnightblue" stroke="midnightblue" points="982.226,-160.413 990.263,-153.509 979.675,-153.895 982.226,-160.413"/>
</g>
<!-- Node31 -->
<g id="node31" class="node"><title>Node31</title>
<polygon fill="white" stroke="#bfbfbf" points="762.5,-73 762.5,-92 879.5,-92 879.5,-73 762.5,-73"/>
<text text-anchor="middle" x="821" y="-80" font-family="Helvetica,sans-Serif" font-size="10.00">boost/noncopyable.hpp</text>
</g>
<!-- Node18&#45;&gt;Node31 -->
<g id="edge47" class="edge"><title>Node18&#45;&gt;Node31</title>
<path fill="none" stroke="midnightblue" d="M848.831,-195.872C838.082,-186.794 822.526,-171.423 816,-154 809.69,-137.152 812.248,-116.476 815.586,-101.884"/>
<polygon fill="midnightblue" stroke="midnightblue" points="819.007,-102.636 818.157,-92.0757 812.236,-100.862 819.007,-102.636"/>
</g>
<!-- Node34 -->
<g id="node34" class="node"><title>Node34</title>
<polygon fill="white" stroke="#bfbfbf" points="825.5,-134.5 825.5,-153.5 894.5,-153.5 894.5,-134.5 825.5,-134.5"/>
<text text-anchor="middle" x="860" y="-141.5" font-family="Helvetica,sans-Serif" font-size="10.00">Eigen/Eigen</text>
</g>
<!-- Node18&#45;&gt;Node34 -->
<g id="edge46" class="edge"><title>Node18&#45;&gt;Node34</title>
<path fill="none" stroke="midnightblue" d="M860,-195.975C860,-187.58 860,-174.481 860,-163.663"/>
<polygon fill="midnightblue" stroke="midnightblue" points="863.5,-163.509 860,-153.509 856.5,-163.509 863.5,-163.509"/>
</g>
<!-- Node20 -->
<g id="node20" class="node"><title>Node20</title>
<g id="a_node20"><a xlink:href="../../df/d67/ObserverSubjectBase_8h.html" target="_top" xlink:title="Declaration file of the Observer and Subject base classes. ">
<polygon fill="white" stroke="black" points="166,-67.5 166,-97.5 304,-97.5 304,-67.5 166,-67.5"/>
<text text-anchor="start" x="174" y="-85.5" font-family="Helvetica,sans-Serif" font-size="10.00">ocra/optim/ObserverSubject</text>
<text text-anchor="middle" x="235" y="-74.5" font-family="Helvetica,sans-Serif" font-size="10.00">Base.h</text>
</a>
</g>
</g>
<!-- Node19&#45;&gt;Node20 -->
<g id="edge22" class="edge"><title>Node19&#45;&gt;Node20</title>
<path fill="none" stroke="midnightblue" d="M413.199,-134.475C382.132,-125.588 332.634,-111.429 293.68,-100.286"/>
<polygon fill="midnightblue" stroke="midnightblue" points="294.598,-96.9083 284.021,-97.523 292.673,-103.638 294.598,-96.9083"/>
</g>
<!-- Node24 -->
<g id="node24" class="node"><title>Node24</title>
<polygon fill="white" stroke="#bfbfbf" points="292,-0.5 292,-30.5 392,-30.5 392,-0.5 292,-0.5"/>
<text text-anchor="start" x="300" y="-18.5" font-family="Helvetica,sans-Serif" font-size="10.00">boost/type_traits/is</text>
<text text-anchor="middle" x="342" y="-7.5" font-family="Helvetica,sans-Serif" font-size="10.00">_class.hpp</text>
</g>
<!-- Node19&#45;&gt;Node24 -->
<g id="edge34" class="edge"><title>Node19&#45;&gt;Node24</title>
<path fill="none" stroke="midnightblue" d="M459.334,-134.387C471.955,-126.72 488.497,-114.213 496,-98 501.786,-85.4962 504.083,-78.1574 496,-67 490.078,-58.8259 442.409,-43.9486 401.654,-32.4511"/>
<polygon fill="midnightblue" stroke="midnightblue" points="402.584,-29.0768 392.011,-29.7562 400.7,-35.8185 402.584,-29.0768"/>
</g>
<!-- Node25 -->
<g id="node25" class="node"><title>Node25</title>
<polygon fill="white" stroke="#bfbfbf" points="622,-0.5 622,-30.5 722,-30.5 722,-0.5 622,-0.5"/>
<text text-anchor="start" x="630" y="-18.5" font-family="Helvetica,sans-Serif" font-size="10.00">boost/type_traits/is</text>
<text text-anchor="middle" x="672" y="-7.5" font-family="Helvetica,sans-Serif" font-size="10.00">_base_of.hpp</text>
</g>
<!-- Node19&#45;&gt;Node25 -->
<g id="edge32" class="edge"><title>Node19&#45;&gt;Node25</title>
<path fill="none" stroke="midnightblue" d="M457.274,-134.293C481.041,-119.878 530.335,-90.3283 573,-67 592.986,-56.0724 615.592,-44.484 634.152,-35.1681"/>
<polygon fill="midnightblue" stroke="midnightblue" points="635.8,-38.257 643.18,-30.6551 632.67,-31.9957 635.8,-38.257"/>
</g>
<!-- Node26 -->
<g id="node26" class="node"><title>Node26</title>
<polygon fill="white" stroke="#bfbfbf" points="410.5,-6 410.5,-25 529.5,-25 529.5,-6 410.5,-6"/>
<text text-anchor="middle" x="470" y="-13" font-family="Helvetica,sans-Serif" font-size="10.00">boost/static_assert.hpp</text>
</g>
<!-- Node19&#45;&gt;Node26 -->
<g id="edge31" class="edge"><title>Node19&#45;&gt;Node26</title>
<path fill="none" stroke="midnightblue" d="M404.155,-134.364C384.623,-127.847 362.673,-116.704 351,-98 343.705,-86.3117 343.395,-78.4888 351,-67 360.278,-52.9839 399.439,-38.0808 430.337,-28.1271"/>
<polygon fill="midnightblue" stroke="midnightblue" points="431.542,-31.4172 440.03,-25.0768 429.441,-24.7401 431.542,-31.4172"/>
</g>
<!-- Node28 -->
<g id="node28" class="node"><title>Node28</title>
<g id="a_node28"><a xlink:href="../../db/ddf/ocra__events_8h.html" target="_top" xlink:title="ocra/optim/ocra_events.h">
<polygon fill="white" stroke="black" points="360.5,-73 360.5,-92 487.5,-92 487.5,-73 360.5,-73"/>
<text text-anchor="middle" x="424" y="-80" font-family="Helvetica,sans-Serif" font-size="10.00">ocra/optim/ocra_events.h</text>
</a>
</g>
</g>
<!-- Node19&#45;&gt;Node28 -->
<g id="edge30" class="edge"><title>Node19&#45;&gt;Node28</title>
<path fill="none" stroke="midnightblue" d="M440.278,-134.475C437.569,-125.992 433.326,-112.704 429.851,-101.822"/>
<polygon fill="midnightblue" stroke="midnightblue" points="433.093,-100.47 426.717,-92.0091 426.425,-102.6 433.093,-100.47"/>
</g>
<!-- Node29 -->
<g id="node29" class="node"><title>Node29</title>
<polygon fill="white" stroke="#bfbfbf" points="582,-67.5 582,-97.5 682,-97.5 682,-67.5 582,-67.5"/>
<text text-anchor="start" x="590" y="-85.5" font-family="Helvetica,sans-Serif" font-size="10.00">boost/type_traits/is</text>
<text text-anchor="middle" x="632" y="-74.5" font-family="Helvetica,sans-Serif" font-size="10.00">_convertible.hpp</text>
</g>
<!-- Node19&#45;&gt;Node29 -->
<g id="edge33" class="edge"><title>Node19&#45;&gt;Node29</title>
<path fill="none" stroke="midnightblue" d="M470.079,-134.475C498.069,-125.664 542.524,-111.668 577.778,-100.57"/>
<polygon fill="midnightblue" stroke="midnightblue" points="578.969,-103.864 587.456,-97.523 576.867,-97.1874 578.969,-103.864"/>
</g>
<!-- Node21 -->
<g id="node21" class="node"><title>Node21</title>
<polygon fill="white" stroke="#bfbfbf" points="118.5,-6 118.5,-25 177.5,-25 177.5,-6 118.5,-6"/>
<text text-anchor="middle" x="148" y="-13" font-family="Helvetica,sans-Serif" font-size="10.00">functional</text>
</g>
<!-- Node20&#45;&gt;Node21 -->
<g id="edge23" class="edge"><title>Node20&#45;&gt;Node21</title>
<path fill="none" stroke="midnightblue" d="M216.122,-67.396C201.886,-56.7593 182.402,-42.2028 167.918,-31.3813"/>
<polygon fill="midnightblue" stroke="midnightblue" points="169.743,-28.376 159.637,-25.1945 165.554,-33.9837 169.743,-28.376"/>
</g>
<!-- Node22 -->
<g id="node22" class="node"><title>Node22</title>
<polygon fill="white" stroke="#bfbfbf" points="548,-6 548,-25 604,-25 604,-6 548,-6"/>
<text text-anchor="middle" x="576" y="-13" font-family="Helvetica,sans-Serif" font-size="10.00">algorithm</text>
</g>
<!-- Node20&#45;&gt;Node22 -->
<g id="edge24" class="edge"><title>Node20&#45;&gt;Node22</title>
<path fill="none" stroke="midnightblue" d="M304.158,-71.6096C379.521,-60.5412 495.087,-42.6385 538,-31 540.656,-30.2797 543.383,-29.4428 546.1,-28.5413"/>
<polygon fill="midnightblue" stroke="midnightblue" points="547.505,-31.7559 555.738,-25.0875 545.143,-25.1662 547.505,-31.7559"/>
</g>
<!-- Node23 -->
<g id="node23" class="node"><title>Node23</title>
<polygon fill="white" stroke="#bfbfbf" points="196,-6 196,-25 274,-25 274,-6 196,-6"/>
<text text-anchor="middle" x="235" y="-13" font-family="Helvetica,sans-Serif" font-size="10.00">boost/any.hpp</text>
</g>
<!-- Node20&#45;&gt;Node23 -->
<g id="edge25" class="edge"><title>Node20&#45;&gt;Node23</title>
<path fill="none" stroke="midnightblue" d="M235,-67.396C235,-58.0638 235,-45.7143 235,-35.5173"/>
<polygon fill="midnightblue" stroke="midnightblue" points="238.5,-35.1945 235,-25.1945 231.5,-35.1946 238.5,-35.1945"/>
</g>
<!-- Node20&#45;&gt;Node24 -->
<g id="edge26" class="edge"><title>Node20&#45;&gt;Node24</title>
<path fill="none" stroke="midnightblue" d="M258.217,-67.396C273.361,-58.1968 293.33,-46.0658 309.975,-35.9546"/>
<polygon fill="midnightblue" stroke="midnightblue" points="312.098,-38.7597 318.828,-30.5765 308.464,-32.7771 312.098,-38.7597"/>
</g>
<!-- Node20&#45;&gt;Node25 -->
<g id="edge27" class="edge"><title>Node20&#45;&gt;Node25</title>
<path fill="none" stroke="midnightblue" d="M304.074,-72.6837C397.749,-60.6691 558.674,-39.8042 611.752,-30.9946"/>
<polygon fill="midnightblue" stroke="midnightblue" points="612.628,-34.3942 621.869,-29.2117 611.413,-27.5005 612.628,-34.3942"/>
</g>
<!-- Node20&#45;&gt;Node26 -->
<g id="edge28" class="edge"><title>Node20&#45;&gt;Node26</title>
<path fill="none" stroke="midnightblue" d="M285.702,-67.476C328.74,-55.5718 389.682,-38.7156 429.517,-27.6975"/>
<polygon fill="midnightblue" stroke="midnightblue" points="430.461,-31.0679 439.166,-25.0287 428.594,-24.3213 430.461,-31.0679"/>
</g>
<!-- Node27 -->
<g id="node27" class="node"><title>Node27</title>
<polygon fill="white" stroke="#bfbfbf" points="0,-0.5 0,-30.5 100,-30.5 100,-0.5 0,-0.5"/>
<text text-anchor="start" x="8" y="-18.5" font-family="Helvetica,sans-Serif" font-size="10.00">boost/ptr_container</text>
<text text-anchor="middle" x="50" y="-7.5" font-family="Helvetica,sans-Serif" font-size="10.00">/ptr_vector.hpp</text>
</g>
<!-- Node20&#45;&gt;Node27 -->
<g id="edge29" class="edge"><title>Node20&#45;&gt;Node27</title>
<path fill="none" stroke="midnightblue" d="M194.858,-67.396C166.979,-57.6006 129.638,-44.4809 99.8513,-34.0153"/>
<polygon fill="midnightblue" stroke="midnightblue" points="100.659,-30.5893 90.0639,-30.5765 98.3383,-37.1935 100.659,-30.5893"/>
</g>
<!-- Node30&#45;&gt;Node9 -->
<g id="edge36" class="edge"><title>Node30&#45;&gt;Node9</title>
<path fill="none" stroke="midnightblue" d="M1051.11,-134.475C1099.87,-123.849 1183.21,-105.685 1236.12,-94.1524"/>
<polygon fill="midnightblue" stroke="midnightblue" points="1236.93,-97.5584 1245.96,-92.0091 1235.44,-90.7189 1236.93,-97.5584"/>
</g>
<!-- Node30&#45;&gt;Node12 -->
<g id="edge42" class="edge"><title>Node30&#45;&gt;Node12</title>
<path fill="none" stroke="midnightblue" d="M952.164,-134.483C887.605,-124.96 789.189,-109.384 753,-98 751.13,-97.4116 749.226,-96.734 747.33,-95.9999"/>
<polygon fill="midnightblue" stroke="midnightblue" points="748.653,-92.7593 738.085,-92.0107 745.88,-99.1864 748.653,-92.7593"/>
</g>
<!-- Node30&#45;&gt;Node13 -->
<g id="edge45" class="edge"><title>Node30&#45;&gt;Node13</title>
<path fill="none" stroke="midnightblue" d="M1072.52,-141.171C1154.37,-137.636 1304.45,-127.391 1429,-98 1432.06,-97.2768 1435.22,-96.3794 1438.34,-95.3882"/>
<polygon fill="midnightblue" stroke="midnightblue" points="1439.76,-98.5978 1448.05,-92.0003 1437.46,-91.9881 1439.76,-98.5978"/>
</g>
<!-- Node30&#45;&gt;Node22 -->
<g id="edge43" class="edge"><title>Node30&#45;&gt;Node22</title>
<path fill="none" stroke="midnightblue" d="M1001.98,-134.266C979.508,-114.729 926.715,-69.0417 922,-67 795.121,-12.0623 747.142,-64.5014 613,-31 610.331,-30.3334 607.596,-29.5227 604.879,-28.6289"/>
<polygon fill="midnightblue" stroke="midnightblue" points="605.873,-25.2661 595.279,-25.1371 603.481,-31.8445 605.873,-25.2661"/>
</g>
<!-- Node30&#45;&gt;Node25 -->
<g id="edge39" class="edge"><title>Node30&#45;&gt;Node25</title>
<path fill="none" stroke="midnightblue" d="M1008.71,-134.241C1002.15,-118.06 985.807,-83.6202 960,-67 923.162,-43.2757 805.044,-28.5838 732.018,-21.5308"/>
<polygon fill="midnightblue" stroke="midnightblue" points="732.311,-18.043 722.026,-20.5861 731.652,-25.0119 732.311,-18.043"/>
</g>
<!-- Node30&#45;&gt;Node26 -->
<g id="edge38" class="edge"><title>Node30&#45;&gt;Node26</title>
<path fill="none" stroke="midnightblue" d="M990.718,-134.353C971.881,-126.244 944.037,-113.124 922,-98 905.139,-86.4288 906.663,-75.3577 888,-67 745.684,-3.26922 693.066,-55.0669 539,-31 531.849,-29.883 524.321,-28.5085 516.971,-27.055"/>
<polygon fill="midnightblue" stroke="midnightblue" points="517.609,-23.6132 507.111,-25.0408 516.208,-30.4716 517.609,-23.6132"/>
</g>
<!-- Node30&#45;&gt;Node29 -->
<g id="edge40" class="edge"><title>Node30&#45;&gt;Node29</title>
<path fill="none" stroke="midnightblue" d="M951.351,-136.362C888.732,-129.089 788.035,-116.226 692.011,-98.0778"/>
<polygon fill="midnightblue" stroke="midnightblue" points="692.615,-94.63 682.136,-96.1893 691.3,-101.505 692.615,-94.63"/>
</g>
<!-- Node30&#45;&gt;Node31 -->
<g id="edge37" class="edge"><title>Node30&#45;&gt;Node31</title>
<path fill="none" stroke="midnightblue" d="M984.634,-134.475C951.446,-124.136 895.349,-106.661 858.242,-95.1017"/>
<polygon fill="midnightblue" stroke="midnightblue" points="858.903,-91.6417 848.315,-92.0091 856.821,-98.325 858.903,-91.6417"/>
</g>
<!-- Node32 -->
<g id="node32" class="node"><title>Node32</title>
<polygon fill="white" stroke="#bfbfbf" points="1012.5,-67.5 1012.5,-97.5 1141.5,-97.5 1141.5,-67.5 1012.5,-67.5"/>
<text text-anchor="start" x="1020.5" y="-85.5" font-family="Helvetica,sans-Serif" font-size="10.00">boost/type_traits/has</text>
<text text-anchor="middle" x="1077" y="-74.5" font-family="Helvetica,sans-Serif" font-size="10.00">_nothrow_constructor.hpp</text>
</g>
<!-- Node30&#45;&gt;Node32 -->
<g id="edge41" class="edge"><title>Node30&#45;&gt;Node32</title>
<path fill="none" stroke="midnightblue" d="M1021.31,-134.475C1029.87,-126.643 1042.9,-114.714 1054.21,-104.366"/>
<polygon fill="midnightblue" stroke="midnightblue" points="1056.67,-106.857 1061.68,-97.523 1051.94,-101.693 1056.67,-106.857"/>
</g>
<!-- Node33 -->
<g id="node33" class="node"><title>Node33</title>
<polygon fill="white" stroke="#bfbfbf" points="1159.5,-73 1159.5,-92 1204.5,-92 1204.5,-73 1159.5,-73"/>
<text text-anchor="middle" x="1182" y="-80" font-family="Helvetica,sans-Serif" font-size="10.00">iosfwd</text>
</g>
<!-- Node30&#45;&gt;Node33 -->
<g id="edge44" class="edge"><title>Node30&#45;&gt;Node33</title>
<path fill="none" stroke="midnightblue" d="M1041.4,-134.44C1069.57,-126 1113.12,-112.319 1150,-98 1151.42,-97.4481 1152.87,-96.8658 1154.33,-96.2641"/>
<polygon fill="midnightblue" stroke="midnightblue" points="1156.09,-99.3175 1163.87,-92.1328 1153.3,-92.8935 1156.09,-99.3175"/>
</g>
<!-- Node35&#45;&gt;Node15 -->
<g id="edge52" class="edge"><title>Node35&#45;&gt;Node15</title>
<path fill="none" stroke="midnightblue" d="M715.14,-195.975C714.294,-187.58 712.973,-174.481 711.882,-163.663"/>
<polygon fill="midnightblue" stroke="midnightblue" points="715.344,-163.107 710.858,-153.509 708.379,-163.81 715.344,-163.107"/>
</g>
<!-- Node37 -->
<g id="node37" class="node"><title>Node37</title>
<polygon fill="white" stroke="#bfbfbf" points="360,-196 360,-215 412,-215 412,-196 360,-196"/>
<text text-anchor="middle" x="386" y="-203" font-family="Helvetica,sans-Serif" font-size="10.00">memory</text>
</g>
<!-- Node36&#45;&gt;Node37 -->
<g id="edge55" class="edge"><title>Node36&#45;&gt;Node37</title>
<path fill="none" stroke="midnightblue" d="M536.143,-257.445C508.462,-248.565 464.098,-234.159 426,-221 423.617,-220.177 421.159,-219.316 418.688,-218.441"/>
<polygon fill="midnightblue" stroke="midnightblue" points="419.819,-215.129 409.224,-215.054 417.46,-221.719 419.819,-215.129"/>
</g>
</g>
</svg>
