<?xml version="1.0" encoding="UTF-8" standalone="no"?>
<!DOCTYPE svg PUBLIC "-//W3C//DTD SVG 1.1//EN"
 "http://www.w3.org/Graphics/SVG/1.1/DTD/svg11.dtd">
<!-- Generated by graphviz version 2.38.0 (20140413.2041)
 -->
<!-- Title: TaskBuilderOptions.h Pages: 1 -->
<svg width="1188pt" height="364pt"
 viewBox="0.00 0.00 1187.50 364.00" xmlns="http://www.w3.org/2000/svg" xmlns:xlink="http://www.w3.org/1999/xlink">
<g id="graph0" class="graph" transform="scale(1 1) rotate(0) translate(4 360)">
<title>TaskBuilderOptions.h</title>
<polygon fill="white" stroke="none" points="-4,4 -4,-360 1183.5,-360 1183.5,4 -4,4"/>
<!-- Node1 -->
<g id="node1" class="node"><title>Node1</title>
<polygon fill="#bfbfbf" stroke="black" points="491.5,-336.5 491.5,-355.5 601.5,-355.5 601.5,-336.5 491.5,-336.5"/>
<text text-anchor="middle" x="546.5" y="-343.5" font-family="Helvetica,sans-Serif" font-size="10.00">TaskBuilderOptions.h</text>
</g>
<!-- Node2 -->
<g id="node2" class="node"><title>Node2</title>
<g id="a_node2"><a xlink:href="../../d3/dc1/TaskBuilder_8h.html" target="_top" xlink:title="TaskBuilder.h">
<polygon fill="white" stroke="black" points="508,-280.5 508,-299.5 585,-299.5 585,-280.5 508,-280.5"/>
<text text-anchor="middle" x="546.5" y="-287.5" font-family="Helvetica,sans-Serif" font-size="10.00">TaskBuilder.h</text>
</a>
</g>
</g>
<!-- Node1&#45;&gt;Node2 -->
<g id="edge1" class="edge"><title>Node1&#45;&gt;Node2</title>
<path fill="none" stroke="midnightblue" d="M546.5,-325.805C546.5,-316.91 546.5,-306.78 546.5,-299.751"/>
<polygon fill="midnightblue" stroke="midnightblue" points="543,-326.083 546.5,-336.083 550,-326.083 543,-326.083"/>
</g>
<!-- Node4 -->
<g id="node4" class="node"><title>Node4</title>
<g id="a_node4"><a xlink:href="../../d1/d7b/TaskConstructionManager_8h.html" target="_top" xlink:title="TaskConstructionManager.h">
<polygon fill="white" stroke="black" points="457.5,-168.5 457.5,-187.5 597.5,-187.5 597.5,-168.5 457.5,-168.5"/>
<text text-anchor="middle" x="527.5" y="-175.5" font-family="Helvetica,sans-Serif" font-size="10.00">TaskConstructionManager.h</text>
</a>
</g>
</g>
<!-- Node1&#45;&gt;Node4 -->
<g id="edge35" class="edge"><title>Node1&#45;&gt;Node4</title>
<path fill="none" stroke="midnightblue" d="M500.037,-333.53C456.628,-320.072 394.32,-293.085 365.5,-244 360.999,-236.335 360.121,-231.077 365.5,-224 378.306,-207.152 428.577,-194.953 469.765,-187.541"/>
<polygon fill="midnightblue" stroke="midnightblue" points="499.23,-336.941 509.812,-336.432 501.222,-330.23 499.23,-336.941"/>
</g>
<!-- Node28 -->
<g id="node28" class="node"><title>Node28</title>
<g id="a_node28"><a xlink:href="../../dd/d04/TaskBuilderOptions_8cpp.html" target="_top" xlink:title="TaskBuilderOptions.cpp">
<polygon fill="white" stroke="black" points="603,-280.5 603,-299.5 724,-299.5 724,-280.5 603,-280.5"/>
<text text-anchor="middle" x="663.5" y="-287.5" font-family="Helvetica,sans-Serif" font-size="10.00">TaskBuilderOptions.cpp</text>
</a>
</g>
</g>
<!-- Node1&#45;&gt;Node28 -->
<g id="edge36" class="edge"><title>Node1&#45;&gt;Node28</title>
<path fill="none" stroke="midnightblue" d="M574.164,-332.232C596.049,-322.131 625.997,-308.309 645.048,-299.516"/>
<polygon fill="midnightblue" stroke="midnightblue" points="572.652,-329.075 565.039,-336.444 575.585,-335.431 572.652,-329.075"/>
</g>
<!-- Node3 -->
<g id="node3" class="node"><title>Node3</title>
<g id="a_node3"><a xlink:href="../../da/db2/CartesianTaskBuilder_8h.html" target="_top" xlink:title="CartesianTaskBuilder.h">
<polygon fill="white" stroke="black" points="531,-224.5 531,-243.5 650,-243.5 650,-224.5 531,-224.5"/>
<text text-anchor="middle" x="590.5" y="-231.5" font-family="Helvetica,sans-Serif" font-size="10.00">CartesianTaskBuilder.h</text>
</a>
</g>
</g>
<!-- Node2&#45;&gt;Node3 -->
<g id="edge2" class="edge"><title>Node2&#45;&gt;Node3</title>
<path fill="none" stroke="midnightblue" d="M560.235,-272.144C567.901,-262.736 577.133,-251.405 583.369,-243.751"/>
<polygon fill="midnightblue" stroke="midnightblue" points="557.369,-270.12 553.766,-280.083 562.796,-274.541 557.369,-270.12"/>
</g>
<!-- Node2&#45;&gt;Node4 -->
<g id="edge33" class="edge"><title>Node2&#45;&gt;Node4</title>
<path fill="none" stroke="midnightblue" d="M534.259,-271.834C529.253,-263.788 524.046,-253.825 521.5,-244 516.383,-224.253 521.428,-200.14 524.875,-187.564"/>
<polygon fill="midnightblue" stroke="midnightblue" points="531.42,-273.886 539.871,-280.275 537.249,-270.01 531.42,-273.886"/>
</g>
<!-- Node15 -->
<g id="node15" class="node"><title>Node15</title>
<g id="a_node15"><a xlink:href="../../de/d08/ComTaskBuilder_8h.html" target="_top" xlink:title="ComTaskBuilder.h">
<polygon fill="white" stroke="black" points="773.5,-224.5 773.5,-243.5 871.5,-243.5 871.5,-224.5 773.5,-224.5"/>
<text text-anchor="middle" x="822.5" y="-231.5" font-family="Helvetica,sans-Serif" font-size="10.00">ComTaskBuilder.h</text>
</a>
</g>
</g>
<!-- Node2&#45;&gt;Node15 -->
<g id="edge15" class="edge"><title>Node2&#45;&gt;Node15</title>
<path fill="none" stroke="midnightblue" d="M595.14,-279.484C647.066,-269.324 728.609,-253.37 778.629,-243.583"/>
<polygon fill="midnightblue" stroke="midnightblue" points="594.309,-276.08 585.167,-281.435 595.653,-282.949 594.309,-276.08"/>
</g>
<!-- Node17 -->
<g id="node17" class="node"><title>Node17</title>
<g id="a_node17"><a xlink:href="../../dc/d87/FullPostureTaskBuilder_8h.html" target="_top" xlink:title="FullPostureTaskBuilder.h">
<polygon fill="white" stroke="black" points="889.5,-224.5 889.5,-243.5 1015.5,-243.5 1015.5,-224.5 889.5,-224.5"/>
<text text-anchor="middle" x="952.5" y="-231.5" font-family="Helvetica,sans-Serif" font-size="10.00">FullPostureTaskBuilder.h</text>
</a>
</g>
</g>
<!-- Node2&#45;&gt;Node17 -->
<g id="edge18" class="edge"><title>Node2&#45;&gt;Node17</title>
<path fill="none" stroke="midnightblue" d="M595.214,-280.008C637.503,-274.431 798.165,-254.316 889.124,-242.931"/>
<polygon fill="midnightblue" stroke="midnightblue" points="594.624,-276.556 585.194,-281.386 595.578,-283.491 594.624,-276.556"/>
</g>
<!-- Node19 -->
<g id="node19" class="node"><title>Node19</title>
<g id="a_node19"><a xlink:href="../../d1/df8/OrientationTaskBuilder_8h.html" target="_top" xlink:title="OrientationTaskBuilder.h">
<polygon fill="white" stroke="black" points="1033.5,-224.5 1033.5,-243.5 1157.5,-243.5 1157.5,-224.5 1033.5,-224.5"/>
<text text-anchor="middle" x="1095.5" y="-231.5" font-family="Helvetica,sans-Serif" font-size="10.00">OrientationTaskBuilder.h</text>
</a>
</g>
</g>
<!-- Node2&#45;&gt;Node19 -->
<g id="edge21" class="edge"><title>Node2&#45;&gt;Node19</title>
<path fill="none" stroke="midnightblue" d="M595.236,-279.887C785.67,-254.227 836.597,-263.748 1024.5,-244 1027.34,-243.701 1030.25,-243.384 1033.18,-243.053"/>
<polygon fill="midnightblue" stroke="midnightblue" points="594.611,-276.44 585.175,-281.258 595.556,-283.376 594.611,-276.44"/>
</g>
<!-- Node21 -->
<g id="node21" class="node"><title>Node21</title>
<g id="a_node21"><a xlink:href="../../d5/d81/PartialPostureTaskBuilder_8h.html" target="_top" xlink:title="PartialPostureTaskBuilder.h">
<polygon fill="white" stroke="black" points="28.5,-224.5 28.5,-243.5 166.5,-243.5 166.5,-224.5 28.5,-224.5"/>
<text text-anchor="middle" x="97.5" y="-231.5" font-family="Helvetica,sans-Serif" font-size="10.00">PartialPostureTaskBuilder.h</text>
</a>
</g>
</g>
<!-- Node2&#45;&gt;Node21 -->
<g id="edge24" class="edge"><title>Node2&#45;&gt;Node21</title>
<path fill="none" stroke="midnightblue" d="M497.536,-283.111C417.457,-273.48 258.245,-254.332 166.669,-243.319"/>
<polygon fill="midnightblue" stroke="midnightblue" points="497.483,-286.63 507.83,-284.349 498.319,-279.68 497.483,-286.63"/>
</g>
<!-- Node23 -->
<g id="node23" class="node"><title>Node23</title>
<g id="a_node23"><a xlink:href="../../d2/d1a/PointContactTaskBuilder_8h.html" target="_top" xlink:title="PointContactTaskBuilder.h">
<polygon fill="white" stroke="black" points="184.5,-224.5 184.5,-243.5 318.5,-243.5 318.5,-224.5 184.5,-224.5"/>
<text text-anchor="middle" x="251.5" y="-231.5" font-family="Helvetica,sans-Serif" font-size="10.00">PointContactTaskBuilder.h</text>
</a>
</g>
</g>
<!-- Node2&#45;&gt;Node23 -->
<g id="edge27" class="edge"><title>Node2&#45;&gt;Node23</title>
<path fill="none" stroke="midnightblue" d="M498.013,-280.124C442.638,-269.988 352.672,-253.52 298.099,-243.53"/>
<polygon fill="midnightblue" stroke="midnightblue" points="497.467,-283.583 507.934,-281.94 498.728,-276.697 497.467,-283.583"/>
</g>
<!-- Node25 -->
<g id="node25" class="node"><title>Node25</title>
<g id="a_node25"><a xlink:href="../../d4/d7b/PoseTaskBuilder_8h.html" target="_top" xlink:title="PoseTaskBuilder.h">
<polygon fill="white" stroke="black" points="375,-224.5 375,-243.5 474,-243.5 474,-224.5 375,-224.5"/>
<text text-anchor="middle" x="424.5" y="-231.5" font-family="Helvetica,sans-Serif" font-size="10.00">PoseTaskBuilder.h</text>
</a>
</g>
</g>
<!-- Node2&#45;&gt;Node25 -->
<g id="edge30" class="edge"><title>Node2&#45;&gt;Node25</title>
<path fill="none" stroke="midnightblue" d="M517.961,-276.368C495.114,-266.255 463.695,-252.349 443.741,-243.516"/>
<polygon fill="midnightblue" stroke="midnightblue" points="516.608,-279.597 527.169,-280.444 519.441,-273.196 516.608,-279.597"/>
</g>
<!-- Node27 -->
<g id="node27" class="node"><title>Node27</title>
<g id="a_node27"><a xlink:href="../../da/d3a/TaskBuilder_8cpp.html" target="_top" xlink:title="TaskBuilder.cpp">
<polygon fill="white" stroke="black" points="668,-224.5 668,-243.5 755,-243.5 755,-224.5 668,-224.5"/>
<text text-anchor="middle" x="711.5" y="-231.5" font-family="Helvetica,sans-Serif" font-size="10.00">TaskBuilder.cpp</text>
</a>
</g>
</g>
<!-- Node2&#45;&gt;Node27 -->
<g id="edge34" class="edge"><title>Node2&#45;&gt;Node27</title>
<path fill="none" stroke="midnightblue" d="M582.236,-277.304C613.327,-267.129 657.647,-252.625 685.478,-243.516"/>
<polygon fill="midnightblue" stroke="midnightblue" points="581.06,-274.007 572.645,-280.444 583.237,-280.659 581.06,-274.007"/>
</g>
<!-- Node3&#45;&gt;Node4 -->
<g id="edge3" class="edge"><title>Node3&#45;&gt;Node4</title>
<path fill="none" stroke="midnightblue" d="M572.46,-217.537C561.227,-207.909 547.181,-195.869 537.806,-187.834"/>
<polygon fill="midnightblue" stroke="midnightblue" points="570.508,-220.473 580.378,-224.324 575.063,-215.159 570.508,-220.473"/>
</g>
<!-- Node14 -->
<g id="node14" class="node"><title>Node14</title>
<g id="a_node14"><a xlink:href="../../d5/d46/CartesianTaskBuilder_8cpp.html" target="_top" xlink:title="CartesianTaskBuilder.cpp">
<polygon fill="white" stroke="black" points="616,-168.5 616,-187.5 745,-187.5 745,-168.5 616,-168.5"/>
<text text-anchor="middle" x="680.5" y="-175.5" font-family="Helvetica,sans-Serif" font-size="10.00">CartesianTaskBuilder.cpp</text>
</a>
</g>
</g>
<!-- Node3&#45;&gt;Node14 -->
<g id="edge14" class="edge"><title>Node3&#45;&gt;Node14</title>
<path fill="none" stroke="midnightblue" d="M613.538,-219.177C630.099,-209.241 651.918,-196.149 666.076,-187.655"/>
<polygon fill="midnightblue" stroke="midnightblue" points="611.734,-216.178 604.96,-224.324 615.336,-222.18 611.734,-216.178"/>
</g>
<!-- Node5 -->
<g id="node5" class="node"><title>Node5</title>
<g id="a_node5"><a xlink:href="../../dd/d25/TaskConstructionManager_8cpp.html" target="_top" xlink:title="TaskConstructionManager.cpp">
<polygon fill="white" stroke="black" points="276.5,-112.5 276.5,-131.5 426.5,-131.5 426.5,-112.5 276.5,-112.5"/>
<text text-anchor="middle" x="351.5" y="-119.5" font-family="Helvetica,sans-Serif" font-size="10.00">TaskConstructionManager.cpp</text>
</a>
</g>
</g>
<!-- Node4&#45;&gt;Node5 -->
<g id="edge4" class="edge"><title>Node4&#45;&gt;Node5</title>
<path fill="none" stroke="midnightblue" d="M489.811,-165.436C456.628,-155.255 409.072,-140.664 379.257,-131.516"/>
<polygon fill="midnightblue" stroke="midnightblue" points="489.025,-168.856 499.612,-168.444 491.079,-162.164 489.025,-168.856"/>
</g>
<!-- Node6 -->
<g id="node6" class="node"><title>Node6</title>
<g id="a_node6"><a xlink:href="../../db/d9a/ControllerClient_8h.html" target="_top" xlink:title="ControllerClient.h">
<polygon fill="white" stroke="black" points="444.5,-112.5 444.5,-131.5 536.5,-131.5 536.5,-112.5 444.5,-112.5"/>
<text text-anchor="middle" x="490.5" y="-119.5" font-family="Helvetica,sans-Serif" font-size="10.00">ControllerClient.h</text>
</a>
</g>
</g>
<!-- Node4&#45;&gt;Node6 -->
<g id="edge5" class="edge"><title>Node4&#45;&gt;Node6</title>
<path fill="none" stroke="midnightblue" d="M515.554,-159.566C509.188,-150.275 501.633,-139.248 496.496,-131.751"/>
<polygon fill="midnightblue" stroke="midnightblue" points="512.851,-161.812 521.39,-168.083 518.625,-157.855 512.851,-161.812"/>
</g>
<!-- Node10 -->
<g id="node10" class="node"><title>Node10</title>
<g id="a_node10"><a xlink:href="../../da/d7c/ControllerServer_8h.html" target="_top" xlink:title="ControllerServer.h">
<polygon fill="white" stroke="black" points="560,-56.5 560,-75.5 655,-75.5 655,-56.5 560,-56.5"/>
<text text-anchor="middle" x="607.5" y="-63.5" font-family="Helvetica,sans-Serif" font-size="10.00">ControllerServer.h</text>
</a>
</g>
</g>
<!-- Node4&#45;&gt;Node10 -->
<g id="edge9" class="edge"><title>Node4&#45;&gt;Node10</title>
<path fill="none" stroke="midnightblue" d="M539.665,-160.272C556.959,-136.494 588.017,-93.7889 601.252,-75.5914"/>
<polygon fill="midnightblue" stroke="midnightblue" points="536.829,-158.222 533.777,-168.368 542.49,-162.34 536.829,-158.222"/>
</g>
<!-- Node12 -->
<g id="node12" class="node"><title>Node12</title>
<g id="a_node12"><a xlink:href="../../d2/d6c/ServerCommunications_8h.html" target="_top" xlink:title="ServerCommunications.h">
<polygon fill="white" stroke="black" points="593,-112.5 593,-131.5 720,-131.5 720,-112.5 593,-112.5"/>
<text text-anchor="middle" x="656.5" y="-119.5" font-family="Helvetica,sans-Serif" font-size="10.00">ServerCommunications.h</text>
</a>
</g>
</g>
<!-- Node4&#45;&gt;Node12 -->
<g id="edge11" class="edge"><title>Node4&#45;&gt;Node12</title>
<path fill="none" stroke="midnightblue" d="M557.354,-164.503C581.538,-154.38 614.962,-140.388 636.155,-131.516"/>
<polygon fill="midnightblue" stroke="midnightblue" points="555.813,-161.354 547.94,-168.444 558.516,-167.811 555.813,-161.354"/>
</g>
<!-- Node7 -->
<g id="node7" class="node"><title>Node7</title>
<g id="a_node7"><a xlink:href="../../d8/d80/ClientManager_8h.html" target="_top" xlink:title="Module class for the controller Client. ">
<polygon fill="white" stroke="black" points="332.5,-56.5 332.5,-75.5 420.5,-75.5 420.5,-56.5 332.5,-56.5"/>
<text text-anchor="middle" x="376.5" y="-63.5" font-family="Helvetica,sans-Serif" font-size="10.00">ClientManager.h</text>
</a>
</g>
</g>
<!-- Node6&#45;&gt;Node7 -->
<g id="edge6" class="edge"><title>Node6&#45;&gt;Node7</title>
<path fill="none" stroke="midnightblue" d="M463.258,-108.096C441.96,-98.0073 412.958,-84.2697 394.479,-75.5164"/>
<polygon fill="midnightblue" stroke="midnightblue" points="461.901,-111.326 472.436,-112.444 464.897,-105 461.901,-111.326"/>
</g>
<!-- Node9 -->
<g id="node9" class="node"><title>Node9</title>
<g id="a_node9"><a xlink:href="../../d2/d77/ControllerClient_8cpp.html" target="_top" xlink:title="ControllerClient.cpp">
<polygon fill="white" stroke="black" points="439,-56.5 439,-75.5 542,-75.5 542,-56.5 439,-56.5"/>
<text text-anchor="middle" x="490.5" y="-63.5" font-family="Helvetica,sans-Serif" font-size="10.00">ControllerClient.cpp</text>
</a>
</g>
</g>
<!-- Node6&#45;&gt;Node9 -->
<g id="edge8" class="edge"><title>Node6&#45;&gt;Node9</title>
<path fill="none" stroke="midnightblue" d="M490.5,-101.805C490.5,-92.9102 490.5,-82.7798 490.5,-75.7511"/>
<polygon fill="midnightblue" stroke="midnightblue" points="487,-102.083 490.5,-112.083 494,-102.083 487,-102.083"/>
</g>
<!-- Node8 -->
<g id="node8" class="node"><title>Node8</title>
<g id="a_node8"><a xlink:href="../../d9/d36/ClientManager_8cpp.html" target="_top" xlink:title="ClientManager.cpp">
<polygon fill="white" stroke="black" points="327.5,-0.5 327.5,-19.5 425.5,-19.5 425.5,-0.5 327.5,-0.5"/>
<text text-anchor="middle" x="376.5" y="-7.5" font-family="Helvetica,sans-Serif" font-size="10.00">ClientManager.cpp</text>
</a>
</g>
</g>
<!-- Node7&#45;&gt;Node8 -->
<g id="edge7" class="edge"><title>Node7&#45;&gt;Node8</title>
<path fill="none" stroke="midnightblue" d="M376.5,-45.8045C376.5,-36.9102 376.5,-26.7798 376.5,-19.7511"/>
<polygon fill="midnightblue" stroke="midnightblue" points="373,-46.083 376.5,-56.083 380,-46.083 373,-46.083"/>
</g>
<!-- Node11 -->
<g id="node11" class="node"><title>Node11</title>
<g id="a_node11"><a xlink:href="../../d5/dd2/ControllerServer_8cpp.html" target="_top" xlink:title="ControllerServer.cpp">
<polygon fill="white" stroke="black" points="554.5,-0.5 554.5,-19.5 660.5,-19.5 660.5,-0.5 554.5,-0.5"/>
<text text-anchor="middle" x="607.5" y="-7.5" font-family="Helvetica,sans-Serif" font-size="10.00">ControllerServer.cpp</text>
</a>
</g>
</g>
<!-- Node10&#45;&gt;Node11 -->
<g id="edge10" class="edge"><title>Node10&#45;&gt;Node11</title>
<path fill="none" stroke="midnightblue" d="M607.5,-45.8045C607.5,-36.9102 607.5,-26.7798 607.5,-19.7511"/>
<polygon fill="midnightblue" stroke="midnightblue" points="604,-46.083 607.5,-56.083 611,-46.083 604,-46.083"/>
</g>
<!-- Node12&#45;&gt;Node10 -->
<g id="edge12" class="edge"><title>Node12&#45;&gt;Node10</title>
<path fill="none" stroke="midnightblue" d="M641.466,-104.431C632.878,-94.9673 622.457,-83.4827 615.441,-75.7511"/>
<polygon fill="midnightblue" stroke="midnightblue" points="639.097,-107.029 648.409,-112.083 644.281,-102.325 639.097,-107.029"/>
</g>
<!-- Node13 -->
<g id="node13" class="node"><title>Node13</title>
<g id="a_node13"><a xlink:href="../../dc/dac/ServerCommunications_8cpp.html" target="_top" xlink:title="ServerCommunications.cpp">
<polygon fill="white" stroke="black" points="673,-56.5 673,-75.5 810,-75.5 810,-56.5 673,-56.5"/>
<text text-anchor="middle" x="741.5" y="-63.5" font-family="Helvetica,sans-Serif" font-size="10.00">ServerCommunications.cpp</text>
</a>
</g>
</g>
<!-- Node12&#45;&gt;Node13 -->
<g id="edge13" class="edge"><title>Node12&#45;&gt;Node13</title>
<path fill="none" stroke="midnightblue" d="M678.694,-106.901C694.28,-96.9986 714.63,-84.0705 727.877,-75.6545"/>
<polygon fill="midnightblue" stroke="midnightblue" points="676.721,-104.007 670.157,-112.324 680.474,-109.916 676.721,-104.007"/>
</g>
<!-- Node15&#45;&gt;Node4 -->
<g id="edge16" class="edge"><title>Node15&#45;&gt;Node4</title>
<path fill="none" stroke="midnightblue" d="M765.689,-222.601C709.937,-212.395 625.936,-197.019 574.025,-187.516"/>
<polygon fill="midnightblue" stroke="midnightblue" points="765.29,-226.086 775.756,-224.444 766.55,-219.2 765.29,-226.086"/>
</g>
<!-- Node16 -->
<g id="node16" class="node"><title>Node16</title>
<g id="a_node16"><a xlink:href="../../d4/d18/ComTaskBuilder_8cpp.html" target="_top" xlink:title="ComTaskBuilder.cpp">
<polygon fill="white" stroke="black" points="763.5,-168.5 763.5,-187.5 871.5,-187.5 871.5,-168.5 763.5,-168.5"/>
<text text-anchor="middle" x="817.5" y="-175.5" font-family="Helvetica,sans-Serif" font-size="10.00">ComTaskBuilder.cpp</text>
</a>
</g>
</g>
<!-- Node15&#45;&gt;Node16 -->
<g id="edge17" class="edge"><title>Node15&#45;&gt;Node16</title>
<path fill="none" stroke="midnightblue" d="M820.75,-214.101C819.92,-205.136 818.968,-194.858 818.31,-187.751"/>
<polygon fill="midnightblue" stroke="midnightblue" points="817.267,-214.448 821.674,-224.083 824.237,-213.803 817.267,-214.448"/>
</g>
<!-- Node17&#45;&gt;Node4 -->
<g id="edge19" class="edge"><title>Node17&#45;&gt;Node4</title>
<path fill="none" stroke="midnightblue" d="M879.327,-223.703C799.277,-213.532 672.058,-197.367 594.526,-187.516"/>
<polygon fill="midnightblue" stroke="midnightblue" points="878.971,-227.186 889.332,-224.974 879.853,-220.241 878.971,-227.186"/>
</g>
<!-- Node18 -->
<g id="node18" class="node"><title>Node18</title>
<g id="a_node18"><a xlink:href="../../d7/de9/FullPostureTaskBuilder_8cpp.html" target="_top" xlink:title="FullPostureTaskBuilder.cpp">
<polygon fill="white" stroke="black" points="890,-168.5 890,-187.5 1027,-187.5 1027,-168.5 890,-168.5"/>
<text text-anchor="middle" x="958.5" y="-175.5" font-family="Helvetica,sans-Serif" font-size="10.00">FullPostureTaskBuilder.cpp</text>
</a>
</g>
</g>
<!-- Node17&#45;&gt;Node18 -->
<g id="edge20" class="edge"><title>Node17&#45;&gt;Node18</title>
<path fill="none" stroke="midnightblue" d="M954.6,-214.101C955.596,-205.136 956.738,-194.858 957.528,-187.751"/>
<polygon fill="midnightblue" stroke="midnightblue" points="951.117,-213.758 953.491,-224.083 958.074,-214.531 951.117,-213.758"/>
</g>
<!-- Node19&#45;&gt;Node4 -->
<g id="edge22" class="edge"><title>Node19&#45;&gt;Node4</title>
<path fill="none" stroke="midnightblue" d="M1023.08,-223.887C837.385,-204.345 788.779,-206.229 606.5,-188 603.616,-187.712 600.673,-187.41 597.701,-187.099"/>
<polygon fill="midnightblue" stroke="midnightblue" points="1022.87,-227.384 1033.18,-224.956 1023.6,-220.422 1022.87,-227.384"/>
</g>
<!-- Node20 -->
<g id="node20" class="node"><title>Node20</title>
<g id="a_node20"><a xlink:href="../../d8/da4/OrientationTaskBuilder_8cpp.html" target="_top" xlink:title="OrientationTaskBuilder.cpp">
<polygon fill="white" stroke="black" points="1045.5,-168.5 1045.5,-187.5 1179.5,-187.5 1179.5,-168.5 1045.5,-168.5"/>
<text text-anchor="middle" x="1112.5" y="-175.5" font-family="Helvetica,sans-Serif" font-size="10.00">OrientationTaskBuilder.cpp</text>
</a>
</g>
</g>
<!-- Node19&#45;&gt;Node20 -->
<g id="edge23" class="edge"><title>Node19&#45;&gt;Node20</title>
<path fill="none" stroke="midnightblue" d="M1101.36,-214.396C1104.2,-205.362 1107.48,-194.936 1109.75,-187.751"/>
<polygon fill="midnightblue" stroke="midnightblue" points="1097.97,-213.493 1098.31,-224.083 1104.65,-215.596 1097.97,-213.493"/>
</g>
<!-- Node21&#45;&gt;Node4 -->
<g id="edge25" class="edge"><title>Node21&#45;&gt;Node4</title>
<path fill="none" stroke="midnightblue" d="M175.8,-223.167C256.985,-212.972 382.603,-197.196 459.684,-187.516"/>
<polygon fill="midnightblue" stroke="midnightblue" points="175.121,-219.725 165.635,-224.444 175.993,-226.67 175.121,-219.725"/>
</g>
<!-- Node22 -->
<g id="node22" class="node"><title>Node22</title>
<g id="a_node22"><a xlink:href="../../d5/df0/PartialPostureTaskBuilder_8cpp.html" target="_top" xlink:title="PartialPostureTaskBuilder.cpp">
<polygon fill="white" stroke="black" points="0,-168.5 0,-187.5 149,-187.5 149,-168.5 0,-168.5"/>
<text text-anchor="middle" x="74.5" y="-175.5" font-family="Helvetica,sans-Serif" font-size="10.00">PartialPostureTaskBuilder.cpp</text>
</a>
</g>
</g>
<!-- Node21&#45;&gt;Node22 -->
<g id="edge26" class="edge"><title>Node21&#45;&gt;Node22</title>
<path fill="none" stroke="midnightblue" d="M89.7012,-214.69C85.825,-205.589 81.3208,-195.014 78.2273,-187.751"/>
<polygon fill="midnightblue" stroke="midnightblue" points="86.5633,-216.254 93.702,-224.083 93.0034,-213.511 86.5633,-216.254"/>
</g>
<!-- Node23&#45;&gt;Node4 -->
<g id="edge28" class="edge"><title>Node23&#45;&gt;Node4</title>
<path fill="none" stroke="midnightblue" d="M305.303,-222.473C357.464,-212.268 435.605,-196.979 483.972,-187.516"/>
<polygon fill="midnightblue" stroke="midnightblue" points="304.375,-219.088 295.233,-224.444 305.719,-225.958 304.375,-219.088"/>
</g>
<!-- Node24 -->
<g id="node24" class="node"><title>Node24</title>
<g id="a_node24"><a xlink:href="../../da/d78/PointContactTaskBuilder_8cpp.html" target="_top" xlink:title="PointContactTaskBuilder.cpp">
<polygon fill="white" stroke="black" points="167.5,-168.5 167.5,-187.5 311.5,-187.5 311.5,-168.5 167.5,-168.5"/>
<text text-anchor="middle" x="239.5" y="-175.5" font-family="Helvetica,sans-Serif" font-size="10.00">PointContactTaskBuilder.cpp</text>
</a>
</g>
</g>
<!-- Node23&#45;&gt;Node24 -->
<g id="edge29" class="edge"><title>Node23&#45;&gt;Node24</title>
<path fill="none" stroke="midnightblue" d="M247.3,-214.101C245.308,-205.136 243.024,-194.858 241.445,-187.751"/>
<polygon fill="midnightblue" stroke="midnightblue" points="243.932,-215.08 249.518,-224.083 250.766,-213.562 243.932,-215.08"/>
</g>
<!-- Node25&#45;&gt;Node4 -->
<g id="edge31" class="edge"><title>Node25&#45;&gt;Node4</title>
<path fill="none" stroke="midnightblue" d="M450.079,-219.59C469.123,-209.605 494.564,-196.267 510.992,-187.655"/>
<polygon fill="midnightblue" stroke="midnightblue" points="448.28,-216.581 441.049,-224.324 451.531,-222.78 448.28,-216.581"/>
</g>
<!-- Node26 -->
<g id="node26" class="node"><title>Node26</title>
<g id="a_node26"><a xlink:href="../../d2/def/PoseTaskBuilder_8cpp.html" target="_top" xlink:title="PoseTaskBuilder.cpp">
<polygon fill="white" stroke="black" points="329.5,-168.5 329.5,-187.5 439.5,-187.5 439.5,-168.5 329.5,-168.5"/>
<text text-anchor="middle" x="384.5" y="-175.5" font-family="Helvetica,sans-Serif" font-size="10.00">PoseTaskBuilder.cpp</text>
</a>
</g>
</g>
<!-- Node25&#45;&gt;Node26 -->
<g id="edge32" class="edge"><title>Node25&#45;&gt;Node26</title>
<path fill="none" stroke="midnightblue" d="M411.8,-215.855C404.874,-206.505 396.594,-195.327 390.982,-187.751"/>
<polygon fill="midnightblue" stroke="midnightblue" points="409.13,-218.131 417.895,-224.083 414.755,-213.964 409.13,-218.131"/>
</g>
</g>
</svg>
