<?xml version="1.0" encoding="UTF-8" standalone="no"?>
<!DOCTYPE svg PUBLIC "-//W3C//DTD SVG 1.1//EN"
 "http://www.w3.org/Graphics/SVG/1.1/DTD/svg11.dtd">
<!-- Generated by graphviz version 2.38.0 (20140413.2041)
 -->
<!-- Title: CascadeQPStructures.h Pages: 1 -->
<svg width="335pt" height="140pt"
 viewBox="0.00 0.00 334.50 140.00" xmlns="http://www.w3.org/2000/svg" xmlns:xlink="http://www.w3.org/1999/xlink">
<g id="graph0" class="graph" transform="scale(1 1) rotate(0) translate(4 136)">
<title>CascadeQPStructures.h</title>
<polygon fill="white" stroke="none" points="-4,4 -4,-136 330.5,-136 330.5,4 -4,4"/>
<!-- Node1 -->
<g id="node1" class="node"><title>Node1</title>
<polygon fill="#bfbfbf" stroke="black" points="145,-112.5 145,-131.5 268,-131.5 268,-112.5 145,-112.5"/>
<text text-anchor="middle" x="206.5" y="-119.5" font-family="Helvetica,sans-Serif" font-size="10.00">CascadeQPStructures.h</text>
</g>
<!-- Node2 -->
<g id="node2" class="node"><title>Node2</title>
<g id="a_node2"><a xlink:href="../../d5/d55/MathTypes_8h.html" target="_top" xlink:title="Declaration file of the OptimizationVariable class. ">
<polygon fill="white" stroke="black" points="30,-56.5 30,-75.5 141,-75.5 141,-56.5 30,-56.5"/>
<text text-anchor="middle" x="85.5" y="-63.5" font-family="Helvetica,sans-Serif" font-size="10.00">ocra/util/MathTypes.h</text>
</a>
</g>
</g>
<!-- Node1&#45;&gt;Node2 -->
<g id="edge1" class="edge"><title>Node1&#45;&gt;Node2</title>
<path fill="none" stroke="midnightblue" d="M187.327,-112.444C167.591,-103.636 136.615,-89.8116 114.007,-79.722"/>
<polygon fill="midnightblue" stroke="midnightblue" points="115.141,-76.3957 104.583,-75.5164 112.289,-82.788 115.141,-76.3957"/>
</g>
<!-- Node5 -->
<g id="node5" class="node"><title>Node5</title>
<g id="a_node5"><a xlink:href="../../df/d0a/Macros_8h.html" target="_top" xlink:title="ocra/util/Macros.h">
<polygon fill="white" stroke="black" points="159,-56.5 159,-75.5 254,-75.5 254,-56.5 159,-56.5"/>
<text text-anchor="middle" x="206.5" y="-63.5" font-family="Helvetica,sans-Serif" font-size="10.00">ocra/util/Macros.h</text>
</a>
</g>
</g>
<!-- Node1&#45;&gt;Node5 -->
<g id="edge4" class="edge"><title>Node1&#45;&gt;Node5</title>
<path fill="none" stroke="midnightblue" d="M206.5,-112.083C206.5,-105.006 206.5,-94.8611 206.5,-85.9865"/>
<polygon fill="midnightblue" stroke="midnightblue" points="210,-85.751 206.5,-75.7511 203,-85.7511 210,-85.751"/>
</g>
<!-- Node7 -->
<g id="node7" class="node"><title>Node7</title>
<polygon fill="white" stroke="#bfbfbf" points="272.5,-56.5 272.5,-75.5 326.5,-75.5 326.5,-56.5 272.5,-56.5"/>
<text text-anchor="middle" x="299.5" y="-63.5" font-family="Helvetica,sans-Serif" font-size="10.00">iostream</text>
</g>
<!-- Node1&#45;&gt;Node7 -->
<g id="edge6" class="edge"><title>Node1&#45;&gt;Node7</title>
<path fill="none" stroke="midnightblue" d="M221.442,-112.324C236.085,-103.822 258.634,-90.7288 275.738,-80.7975"/>
<polygon fill="midnightblue" stroke="midnightblue" points="277.705,-83.7027 284.595,-75.6545 274.19,-77.6491 277.705,-83.7027"/>
</g>
<!-- Node3 -->
<g id="node3" class="node"><title>Node3</title>
<polygon fill="white" stroke="#bfbfbf" points="0,-0.5 0,-19.5 73,-19.5 73,-0.5 0,-0.5"/>
<text text-anchor="middle" x="36.5" y="-7.5" font-family="Helvetica,sans-Serif" font-size="10.00">Eigen/Dense</text>
</g>
<!-- Node2&#45;&gt;Node3 -->
<g id="edge2" class="edge"><title>Node2&#45;&gt;Node3</title>
<path fill="none" stroke="midnightblue" d="M77.4086,-56.083C70.3446,-48.2982 59.9124,-36.8015 51.3511,-27.3665"/>
<polygon fill="midnightblue" stroke="midnightblue" points="53.7527,-24.8047 44.4408,-19.7511 48.5688,-29.5087 53.7527,-24.8047"/>
</g>
<!-- Node4 -->
<g id="node4" class="node"><title>Node4</title>
<polygon fill="white" stroke="#bfbfbf" points="91.5,-0.5 91.5,-19.5 135.5,-19.5 135.5,-0.5 91.5,-0.5"/>
<text text-anchor="middle" x="113.5" y="-7.5" font-family="Helvetica,sans-Serif" font-size="10.00">cmath</text>
</g>
<!-- Node2&#45;&gt;Node4 -->
<g id="edge3" class="edge"><title>Node2&#45;&gt;Node4</title>
<path fill="none" stroke="midnightblue" d="M90.1236,-56.083C93.9563,-48.6913 99.5242,-37.9533 104.265,-28.8111"/>
<polygon fill="midnightblue" stroke="midnightblue" points="107.466,-30.2398 108.962,-19.7511 101.252,-27.0175 107.466,-30.2398"/>
</g>
<!-- Node6 -->
<g id="node6" class="node"><title>Node6</title>
<polygon fill="white" stroke="#bfbfbf" points="180.5,-0.5 180.5,-19.5 232.5,-19.5 232.5,-0.5 180.5,-0.5"/>
<text text-anchor="middle" x="206.5" y="-7.5" font-family="Helvetica,sans-Serif" font-size="10.00">memory</text>
</g>
<!-- Node5&#45;&gt;Node6 -->
<g id="edge5" class="edge"><title>Node5&#45;&gt;Node6</title>
<path fill="none" stroke="midnightblue" d="M206.5,-56.083C206.5,-49.0059 206.5,-38.8611 206.5,-29.9865"/>
<polygon fill="midnightblue" stroke="midnightblue" points="210,-29.751 206.5,-19.7511 203,-29.7511 210,-29.751"/>
</g>
</g>
</svg>
