<?xml version="1.0" encoding="UTF-8" standalone="no"?>
<!DOCTYPE svg PUBLIC "-//W3C//DTD SVG 1.1//EN"
 "http://www.w3.org/Graphics/SVG/1.1/DTD/svg11.dtd">
<!-- Generated by graphviz version 2.38.0 (20140413.2041)
 -->
<!-- Title: FSQPConstraintManager.h Pages: 1 -->
<svg width="2127pt" height="576pt"
 viewBox="0.00 0.00 2127.00 576.00" xmlns="http://www.w3.org/2000/svg" xmlns:xlink="http://www.w3.org/1999/xlink">
<g id="graph0" class="graph" transform="scale(1 1) rotate(0) translate(4 572)">
<title>FSQPConstraintManager.h</title>
<polygon fill="white" stroke="none" points="-4,4 -4,-572 2123,-572 2123,4 -4,4"/>
<!-- Node1 -->
<g id="node1" class="node"><title>Node1</title>
<polygon fill="#bfbfbf" stroke="black" points="1797,-548.5 1797,-567.5 1931,-567.5 1931,-548.5 1797,-548.5"/>
<text text-anchor="middle" x="1864" y="-555.5" font-family="Helvetica,sans-Serif" font-size="10.00">FSQPConstraintManager.h</text>
</g>
<!-- Node2 -->
<g id="node2" class="node"><title>Node2</title>
<g id="a_node2"><a xlink:href="../../d3/dcf/Constraint_8h.html" target="_top" xlink:title="Declaration file of the Constraint class. ">
<polygon fill="white" stroke="black" points="1574,-492.5 1574,-511.5 1644,-511.5 1644,-492.5 1574,-492.5"/>
<text text-anchor="middle" x="1609" y="-499.5" font-family="Helvetica,sans-Serif" font-size="10.00">Constraint.h</text>
</a>
</g>
</g>
<!-- Node1&#45;&gt;Node2 -->
<g id="edge1" class="edge"><title>Node1&#45;&gt;Node2</title>
<path fill="none" stroke="midnightblue" d="M1823.59,-548.444C1777.44,-538.67 1702.13,-522.722 1654.1,-512.551"/>
<polygon fill="midnightblue" stroke="midnightblue" points="1654.8,-509.121 1644.29,-510.473 1653.35,-515.969 1654.8,-509.121"/>
</g>
<!-- Node20 -->
<g id="node20" class="node"><title>Node20</title>
<polygon fill="white" stroke="#bfbfbf" points="1439,-73 1439,-92 1483,-92 1483,-73 1439,-73"/>
<text text-anchor="middle" x="1461" y="-80" font-family="Helvetica,sans-Serif" font-size="10.00">vector</text>
</g>
<!-- Node1&#45;&gt;Node20 -->
<g id="edge68" class="edge"><title>Node1&#45;&gt;Node20</title>
<path fill="none" stroke="midnightblue" d="M1931.33,-555.825C2006.88,-550.514 2119,-528.844 2119,-447 2119,-447 2119,-447 2119,-204.5 2119,-66.2372 1640.54,-129.883 1506,-98 1501.78,-96.9992 1497.38,-95.7933 1493.06,-94.5096"/>
<polygon fill="midnightblue" stroke="midnightblue" points="1493.82,-91.0819 1483.23,-91.4333 1491.73,-97.762 1493.82,-91.0819"/>
</g>
<!-- Node3 -->
<g id="node3" class="node"><title>Node3</title>
<g id="a_node3"><a xlink:href="../../d7/d90/Variable_8h.html" target="_top" xlink:title="Declaration file of the Variable class. ">
<polygon fill="white" stroke="black" points="1096.5,-196 1096.5,-215 1205.5,-215 1205.5,-196 1096.5,-196"/>
<text text-anchor="middle" x="1151" y="-203" font-family="Helvetica,sans-Serif" font-size="10.00">ocra/optim/Variable.h</text>
</a>
</g>
</g>
<!-- Node2&#45;&gt;Node3 -->
<g id="edge2" class="edge"><title>Node2&#45;&gt;Node3</title>
<path fill="none" stroke="midnightblue" d="M1573.78,-500.026C1493.14,-497.269 1297.71,-487.446 1241,-456 1205.76,-436.461 1184,-425.793 1184,-385.5 1184,-385.5 1184,-385.5 1184,-322 1184,-286.354 1169.29,-246.817 1159.51,-224.477"/>
<polygon fill="midnightblue" stroke="midnightblue" points="1162.64,-222.898 1155.31,-215.241 1156.26,-225.793 1162.64,-222.898"/>
</g>
<!-- Node10 -->
<g id="node10" class="node"><title>Node10</title>
<polygon fill="white" stroke="#bfbfbf" points="535,-0.5 535,-30.5 635,-30.5 635,-0.5 535,-0.5"/>
<text text-anchor="start" x="543" y="-18.5" font-family="Helvetica,sans-Serif" font-size="10.00">boost/type_traits/is</text>
<text text-anchor="middle" x="585" y="-7.5" font-family="Helvetica,sans-Serif" font-size="10.00">_base_of.hpp</text>
</g>
<!-- Node2&#45;&gt;Node10 -->
<g id="edge58" class="edge"><title>Node2&#45;&gt;Node10</title>
<path fill="none" stroke="midnightblue" d="M1573.93,-500.786C1521.09,-499.238 1418.96,-491.425 1341,-456 1296,-435.553 1255,-434.924 1255,-385.5 1255,-385.5 1255,-385.5 1255,-266 1255,-177.484 1308.92,-130.249 1247,-67 1201.36,-20.3869 725.725,-39.1291 661,-31 655.883,-30.3574 650.592,-29.5814 645.294,-28.7265"/>
<polygon fill="midnightblue" stroke="midnightblue" points="645.586,-25.2259 635.14,-26.9996 644.412,-32.1269 645.586,-25.2259"/>
</g>
<!-- Node11 -->
<g id="node11" class="node"><title>Node11</title>
<polygon fill="white" stroke="#bfbfbf" points="670.5,-6 670.5,-25 789.5,-25 789.5,-6 670.5,-6"/>
<text text-anchor="middle" x="730" y="-13" font-family="Helvetica,sans-Serif" font-size="10.00">boost/static_assert.hpp</text>
</g>
<!-- Node2&#45;&gt;Node11 -->
<g id="edge57" class="edge"><title>Node2&#45;&gt;Node11</title>
<path fill="none" stroke="midnightblue" d="M1573.98,-495.822C1491.7,-482.675 1293,-444.787 1293,-385.5 1293,-385.5 1293,-385.5 1293,-266 1293,-177.367 1341.84,-130.493 1280,-67 1263.45,-50.01 943.884,-29.1134 799.624,-20.5002"/>
<polygon fill="midnightblue" stroke="midnightblue" points="799.737,-17.0008 789.547,-19.9015 799.322,-23.9885 799.737,-17.0008"/>
</g>
<!-- Node25 -->
<g id="node25" class="node"><title>Node25</title>
<g id="a_node25"><a xlink:href="../../df/df5/Function_8h.html" target="_top" xlink:title="Declaration file of the Function class. ">
<polygon fill="white" stroke="black" points="1459.5,-257.5 1459.5,-276.5 1570.5,-276.5 1570.5,-257.5 1459.5,-257.5"/>
<text text-anchor="middle" x="1515" y="-264.5" font-family="Helvetica,sans-Serif" font-size="10.00">ocra/optim/Function.h</text>
</a>
</g>
</g>
<!-- Node2&#45;&gt;Node25 -->
<g id="edge33" class="edge"><title>Node2&#45;&gt;Node25</title>
<path fill="none" stroke="midnightblue" d="M1573.65,-492.463C1531.13,-480.09 1461.67,-452.657 1431,-400 1405.64,-356.444 1461.17,-306.68 1493.66,-282.591"/>
<polygon fill="midnightblue" stroke="midnightblue" points="1496.05,-285.183 1502.12,-276.503 1491.96,-279.5 1496.05,-285.183"/>
</g>
<!-- Node35 -->
<g id="node35" class="node"><title>Node35</title>
<g id="a_node35"><a xlink:href="../../df/d55/FunctionInterfaceMapping_8h.html" target="_top" xlink:title="Declaration file of the FunctionInterfaceMapping struct. ">
<polygon fill="white" stroke="black" points="1439.5,-369.5 1439.5,-399.5 1580.5,-399.5 1580.5,-369.5 1439.5,-369.5"/>
<text text-anchor="start" x="1447.5" y="-387.5" font-family="Helvetica,sans-Serif" font-size="10.00">ocra/optim/FunctionInterface</text>
<text text-anchor="middle" x="1510" y="-376.5" font-family="Helvetica,sans-Serif" font-size="10.00">Mapping.h</text>
</a>
</g>
</g>
<!-- Node2&#45;&gt;Node35 -->
<g id="edge53" class="edge"><title>Node2&#45;&gt;Node35</title>
<path fill="none" stroke="midnightblue" d="M1601.56,-492.319C1586.22,-474.424 1550.68,-432.966 1528.67,-407.281"/>
<polygon fill="midnightblue" stroke="midnightblue" points="1531.2,-404.86 1522.04,-399.545 1525.89,-409.416 1531.2,-404.86"/>
</g>
<!-- Node36 -->
<g id="node36" class="node"><title>Node36</title>
<g id="a_node36"><a xlink:href="../../df/d0a/Macros_8h.html" target="_top" xlink:title="ocra/util/Macros.h">
<polygon fill="white" stroke="black" points="1658.5,-257.5 1658.5,-276.5 1753.5,-276.5 1753.5,-257.5 1658.5,-257.5"/>
<text text-anchor="middle" x="1706" y="-264.5" font-family="Helvetica,sans-Serif" font-size="10.00">ocra/util/Macros.h</text>
</a>
</g>
</g>
<!-- Node2&#45;&gt;Node36 -->
<g id="edge55" class="edge"><title>Node2&#45;&gt;Node36</title>
<path fill="none" stroke="midnightblue" d="M1607.36,-492.243C1602.51,-463.728 1590.86,-371.986 1629,-313 1638.54,-298.248 1654.74,-287.734 1669.84,-280.598"/>
<polygon fill="midnightblue" stroke="midnightblue" points="1671.26,-283.796 1679.02,-276.583 1668.46,-277.382 1671.26,-283.796"/>
</g>
<!-- Node38 -->
<g id="node38" class="node"><title>Node38</title>
<g id="a_node38"><a xlink:href="../../dc/d8a/LinearFunction_8h.html" target="_top" xlink:title="Declaration file of the LinearFunction class. ">
<polygon fill="white" stroke="black" points="1637.5,-313.5 1637.5,-332.5 1774.5,-332.5 1774.5,-313.5 1637.5,-313.5"/>
<text text-anchor="middle" x="1706" y="-320.5" font-family="Helvetica,sans-Serif" font-size="10.00">ocra/optim/LinearFunction.h</text>
</a>
</g>
</g>
<!-- Node2&#45;&gt;Node38 -->
<g id="edge59" class="edge"><title>Node2&#45;&gt;Node38</title>
<path fill="none" stroke="midnightblue" d="M1613.68,-492.463C1628.69,-465.078 1675.83,-379.052 1696.33,-341.653"/>
<polygon fill="midnightblue" stroke="midnightblue" points="1699.4,-343.32 1701.14,-332.868 1693.26,-339.956 1699.4,-343.32"/>
</g>
<!-- Node39 -->
<g id="node39" class="node"><title>Node39</title>
<g id="a_node39"><a xlink:href="../../de/d69/BoundFunction_8h.html" target="_top" xlink:title="Declaration file of the BoundFunction class. ">
<polygon fill="white" stroke="black" points="1675.5,-436.5 1675.5,-455.5 1814.5,-455.5 1814.5,-436.5 1675.5,-436.5"/>
<text text-anchor="middle" x="1745" y="-443.5" font-family="Helvetica,sans-Serif" font-size="10.00">ocra/optim/BoundFunction.h</text>
</a>
</g>
</g>
<!-- Node2&#45;&gt;Node39 -->
<g id="edge62" class="edge"><title>Node2&#45;&gt;Node39</title>
<path fill="none" stroke="midnightblue" d="M1630.55,-492.444C1653.03,-483.517 1688.49,-469.439 1713.98,-459.317"/>
<polygon fill="midnightblue" stroke="midnightblue" points="1715.55,-462.46 1723.55,-455.516 1712.97,-455.954 1715.55,-462.46"/>
</g>
<!-- Node40 -->
<g id="node40" class="node"><title>Node40</title>
<g id="a_node40"><a xlink:href="../../dc/d6f/DiagonalLinearFunction_8h.html" target="_top" xlink:title="Declaration file of the DiagonalLinearFunction class. ">
<polygon fill="white" stroke="black" points="1729,-369.5 1729,-399.5 1859,-399.5 1859,-369.5 1729,-369.5"/>
<text text-anchor="start" x="1737" y="-387.5" font-family="Helvetica,sans-Serif" font-size="10.00">ocra/optim/DiagonalLinear</text>
<text text-anchor="middle" x="1794" y="-376.5" font-family="Helvetica,sans-Serif" font-size="10.00">Function.h</text>
</a>
</g>
</g>
<!-- Node2&#45;&gt;Node40 -->
<g id="edge67" class="edge"><title>Node2&#45;&gt;Node40</title>
<path fill="none" stroke="midnightblue" d="M1644.31,-498.854C1699.38,-494.687 1801.76,-483.379 1824,-456 1835.5,-441.846 1826.08,-422.633 1814.85,-407.839"/>
<polygon fill="midnightblue" stroke="midnightblue" points="1817.22,-405.216 1808.17,-399.711 1811.81,-409.659 1817.22,-405.216"/>
</g>
<!-- Node41 -->
<g id="node41" class="node"><title>Node41</title>
<g id="a_node41"><a xlink:href="../../de/d7a/IdentityFunction_8h.html" target="_top" xlink:title="Declaration file of the IdentityFunction class. ">
<polygon fill="white" stroke="black" points="1871.5,-436.5 1871.5,-455.5 2014.5,-455.5 2014.5,-436.5 1871.5,-436.5"/>
<text text-anchor="middle" x="1943" y="-443.5" font-family="Helvetica,sans-Serif" font-size="10.00">ocra/optim/IdentityFunction.h</text>
</a>
</g>
</g>
<!-- Node2&#45;&gt;Node41 -->
<g id="edge65" class="edge"><title>Node2&#45;&gt;Node41</title>
<path fill="none" stroke="midnightblue" d="M1644.11,-495.323C1700.14,-486.264 1810.56,-468.412 1880.37,-457.126"/>
<polygon fill="midnightblue" stroke="midnightblue" points="1881.05,-460.561 1890.36,-455.51 1879.93,-453.651 1881.05,-460.561"/>
</g>
<!-- Node4 -->
<g id="node4" class="node"><title>Node4</title>
<g id="a_node4"><a xlink:href="../../d8/ddc/ObserverSubject_8h.html" target="_top" xlink:title="Declaration file of the Observer, Subject and ObserverSubject classes. ">
<polygon fill="white" stroke="black" points="256,-134.5 256,-153.5 402,-153.5 402,-134.5 256,-134.5"/>
<text text-anchor="middle" x="329" y="-141.5" font-family="Helvetica,sans-Serif" font-size="10.00">ocra/optim/ObserverSubject.h</text>
</a>
</g>
</g>
<!-- Node3&#45;&gt;Node4 -->
<g id="edge3" class="edge"><title>Node3&#45;&gt;Node4</title>
<path fill="none" stroke="midnightblue" d="M1096.43,-200.55C955.783,-190.369 580.234,-163.185 412.239,-151.025"/>
<polygon fill="midnightblue" stroke="midnightblue" points="412.434,-147.53 402.207,-150.299 411.928,-154.512 412.434,-147.53"/>
</g>
<!-- Node15 -->
<g id="node15" class="node"><title>Node15</title>
<g id="a_node15"><a xlink:href="../../d1/de6/Composite_8h.html" target="_top" xlink:title="Utility classes and functions to implement the Composite design pattern. ">
<polygon fill="white" stroke="black" points="829.5,-134.5 829.5,-153.5 950.5,-153.5 950.5,-134.5 829.5,-134.5"/>
<text text-anchor="middle" x="890" y="-141.5" font-family="Helvetica,sans-Serif" font-size="10.00">ocra/optim/Composite.h</text>
</a>
</g>
</g>
<!-- Node3&#45;&gt;Node15 -->
<g id="edge17" class="edge"><title>Node3&#45;&gt;Node15</title>
<path fill="none" stroke="midnightblue" d="M1113.61,-195.975C1067.19,-185.393 987.976,-167.336 937.36,-155.797"/>
<polygon fill="midnightblue" stroke="midnightblue" points="937.853,-152.319 927.326,-153.509 936.297,-159.144 937.853,-152.319"/>
</g>
<!-- Node18 -->
<g id="node18" class="node"><title>Node18</title>
<polygon fill="white" stroke="#bfbfbf" points="575.5,-73 575.5,-92 692.5,-92 692.5,-73 575.5,-73"/>
<text text-anchor="middle" x="634" y="-80" font-family="Helvetica,sans-Serif" font-size="10.00">boost/noncopyable.hpp</text>
</g>
<!-- Node3&#45;&gt;Node18 -->
<g id="edge30" class="edge"><title>Node3&#45;&gt;Node18</title>
<path fill="none" stroke="midnightblue" d="M1096.39,-199.731C1030.18,-193.136 915.58,-179.104 820,-154 762.298,-138.844 697.77,-112.038 661.906,-96.2074"/>
<polygon fill="midnightblue" stroke="midnightblue" points="663.139,-92.9252 652.58,-92.0522 660.29,-99.3192 663.139,-92.9252"/>
</g>
<!-- Node3&#45;&gt;Node20 -->
<g id="edge32" class="edge"><title>Node3&#45;&gt;Node20</title>
<path fill="none" stroke="midnightblue" d="M1149.16,-195.759C1146.6,-180.904 1143.92,-150.722 1160,-134 1196.59,-95.9435 1358.6,-86.5351 1428.6,-84.2341"/>
<polygon fill="midnightblue" stroke="midnightblue" points="1428.73,-87.7318 1438.62,-83.933 1428.52,-80.7349 1428.73,-87.7318"/>
</g>
<!-- Node23 -->
<g id="node23" class="node"><title>Node23</title>
<polygon fill="white" stroke="#bfbfbf" points="1168.5,-134.5 1168.5,-153.5 1237.5,-153.5 1237.5,-134.5 1168.5,-134.5"/>
<text text-anchor="middle" x="1203" y="-141.5" font-family="Helvetica,sans-Serif" font-size="10.00">Eigen/Eigen</text>
</g>
<!-- Node3&#45;&gt;Node23 -->
<g id="edge29" class="edge"><title>Node3&#45;&gt;Node23</title>
<path fill="none" stroke="midnightblue" d="M1158.45,-195.975C1166.33,-186.962 1178.94,-172.525 1188.74,-161.312"/>
<polygon fill="midnightblue" stroke="midnightblue" points="1191.62,-163.342 1195.56,-153.509 1186.35,-158.736 1191.62,-163.342"/>
</g>
<!-- Node24 -->
<g id="node24" class="node"><title>Node24</title>
<polygon fill="white" stroke="#bfbfbf" points="1384.5,-134.5 1384.5,-153.5 1425.5,-153.5 1425.5,-134.5 1384.5,-134.5"/>
<text text-anchor="middle" x="1405" y="-141.5" font-family="Helvetica,sans-Serif" font-size="10.00">string</text>
</g>
<!-- Node3&#45;&gt;Node24 -->
<g id="edge31" class="edge"><title>Node3&#45;&gt;Node24</title>
<path fill="none" stroke="midnightblue" d="M1187.39,-195.975C1237.64,-184.205 1327.37,-163.185 1374.37,-152.175"/>
<polygon fill="midnightblue" stroke="midnightblue" points="1375.33,-155.546 1384.26,-149.857 1373.73,-148.73 1375.33,-155.546"/>
</g>
<!-- Node5 -->
<g id="node5" class="node"><title>Node5</title>
<g id="a_node5"><a xlink:href="../../df/d67/ObserverSubjectBase_8h.html" target="_top" xlink:title="Declaration file of the Observer and Subject base classes. ">
<polygon fill="white" stroke="black" points="79,-67.5 79,-97.5 217,-97.5 217,-67.5 79,-67.5"/>
<text text-anchor="start" x="87" y="-85.5" font-family="Helvetica,sans-Serif" font-size="10.00">ocra/optim/ObserverSubject</text>
<text text-anchor="middle" x="148" y="-74.5" font-family="Helvetica,sans-Serif" font-size="10.00">Base.h</text>
</a>
</g>
</g>
<!-- Node4&#45;&gt;Node5 -->
<g id="edge4" class="edge"><title>Node4&#45;&gt;Node5</title>
<path fill="none" stroke="midnightblue" d="M303.067,-134.475C276.377,-125.701 234.052,-111.788 200.36,-100.712"/>
<polygon fill="midnightblue" stroke="midnightblue" points="201.251,-97.321 190.658,-97.523 199.065,-103.971 201.251,-97.321"/>
</g>
<!-- Node9 -->
<g id="node9" class="node"><title>Node9</title>
<polygon fill="white" stroke="#bfbfbf" points="0,-0.5 0,-30.5 100,-30.5 100,-0.5 0,-0.5"/>
<text text-anchor="start" x="8" y="-18.5" font-family="Helvetica,sans-Serif" font-size="10.00">boost/type_traits/is</text>
<text text-anchor="middle" x="50" y="-7.5" font-family="Helvetica,sans-Serif" font-size="10.00">_class.hpp</text>
</g>
<!-- Node4&#45;&gt;Node9 -->
<g id="edge16" class="edge"><title>Node4&#45;&gt;Node9</title>
<path fill="none" stroke="midnightblue" d="M255.78,-139.083C188.836,-133.98 96.354,-122.605 70,-98 54.4941,-83.5232 50.1568,-59.149 49.2995,-40.8195"/>
<polygon fill="midnightblue" stroke="midnightblue" points="52.7957,-40.5338 49.1426,-30.5887 45.7965,-40.6412 52.7957,-40.5338"/>
</g>
<!-- Node4&#45;&gt;Node10 -->
<g id="edge14" class="edge"><title>Node4&#45;&gt;Node10</title>
<path fill="none" stroke="midnightblue" d="M309.704,-134.48C295.571,-127.081 277.443,-114.887 269,-98 262.838,-85.6768 260.059,-77.4829 269,-67 270.038,-65.7825 433.431,-40.1336 524.824,-25.8696"/>
<polygon fill="midnightblue" stroke="midnightblue" points="525.445,-29.315 534.786,-24.3153 524.366,-22.3987 525.445,-29.315"/>
</g>
<!-- Node4&#45;&gt;Node11 -->
<g id="edge13" class="edge"><title>Node4&#45;&gt;Node11</title>
<path fill="none" stroke="midnightblue" d="M320.992,-134.393C307.694,-119.059 284.2,-86.7724 302,-67 353.13,-10.2049 568.285,-41.3577 644,-31 653.353,-29.7206 663.25,-28.2044 672.873,-26.6426"/>
<polygon fill="midnightblue" stroke="midnightblue" points="673.472,-30.0912 682.767,-25.0065 672.33,-23.1849 673.472,-30.0912"/>
</g>
<!-- Node13 -->
<g id="node13" class="node"><title>Node13</title>
<g id="a_node13"><a xlink:href="../../db/ddf/ocra__events_8h.html" target="_top" xlink:title="ocra/optim/ocra_events.h">
<polygon fill="white" stroke="black" points="311.5,-73 311.5,-92 438.5,-92 438.5,-73 311.5,-73"/>
<text text-anchor="middle" x="375" y="-80" font-family="Helvetica,sans-Serif" font-size="10.00">ocra/optim/ocra_events.h</text>
</a>
</g>
</g>
<!-- Node4&#45;&gt;Node13 -->
<g id="edge12" class="edge"><title>Node4&#45;&gt;Node13</title>
<path fill="none" stroke="midnightblue" d="M335.591,-134.475C342.491,-125.55 353.502,-111.307 362.134,-100.143"/>
<polygon fill="midnightblue" stroke="midnightblue" points="365.074,-102.061 368.422,-92.0091 359.536,-97.7798 365.074,-102.061"/>
</g>
<!-- Node14 -->
<g id="node14" class="node"><title>Node14</title>
<polygon fill="white" stroke="#bfbfbf" points="457,-67.5 457,-97.5 557,-97.5 557,-67.5 457,-67.5"/>
<text text-anchor="start" x="465" y="-85.5" font-family="Helvetica,sans-Serif" font-size="10.00">boost/type_traits/is</text>
<text text-anchor="middle" x="507" y="-74.5" font-family="Helvetica,sans-Serif" font-size="10.00">_convertible.hpp</text>
</g>
<!-- Node4&#45;&gt;Node14 -->
<g id="edge15" class="edge"><title>Node4&#45;&gt;Node14</title>
<path fill="none" stroke="midnightblue" d="M354.503,-134.475C380.751,-125.701 422.374,-111.788 455.508,-100.712"/>
<polygon fill="midnightblue" stroke="midnightblue" points="456.674,-104.013 465.049,-97.523 454.455,-97.3738 456.674,-104.013"/>
</g>
<!-- Node6 -->
<g id="node6" class="node"><title>Node6</title>
<polygon fill="white" stroke="#bfbfbf" points="118.5,-6 118.5,-25 177.5,-25 177.5,-6 118.5,-6"/>
<text text-anchor="middle" x="148" y="-13" font-family="Helvetica,sans-Serif" font-size="10.00">functional</text>
</g>
<!-- Node5&#45;&gt;Node6 -->
<g id="edge5" class="edge"><title>Node5&#45;&gt;Node6</title>
<path fill="none" stroke="midnightblue" d="M148,-67.396C148,-58.0638 148,-45.7143 148,-35.5173"/>
<polygon fill="midnightblue" stroke="midnightblue" points="151.5,-35.1945 148,-25.1945 144.5,-35.1946 151.5,-35.1945"/>
</g>
<!-- Node7 -->
<g id="node7" class="node"><title>Node7</title>
<polygon fill="white" stroke="#bfbfbf" points="427,-6 427,-25 483,-25 483,-6 427,-6"/>
<text text-anchor="middle" x="455" y="-13" font-family="Helvetica,sans-Serif" font-size="10.00">algorithm</text>
</g>
<!-- Node5&#45;&gt;Node7 -->
<g id="edge6" class="edge"><title>Node5&#45;&gt;Node7</title>
<path fill="none" stroke="midnightblue" d="M217.255,-68.9396C268.25,-59.3845 339.177,-45.4541 401,-31 406.126,-29.8015 411.504,-28.46 416.797,-27.0899"/>
<polygon fill="midnightblue" stroke="midnightblue" points="418.009,-30.3899 426.782,-24.45 416.219,-23.6224 418.009,-30.3899"/>
</g>
<!-- Node8 -->
<g id="node8" class="node"><title>Node8</title>
<polygon fill="white" stroke="#bfbfbf" points="196,-6 196,-25 274,-25 274,-6 196,-6"/>
<text text-anchor="middle" x="235" y="-13" font-family="Helvetica,sans-Serif" font-size="10.00">boost/any.hpp</text>
</g>
<!-- Node5&#45;&gt;Node8 -->
<g id="edge7" class="edge"><title>Node5&#45;&gt;Node8</title>
<path fill="none" stroke="midnightblue" d="M166.878,-67.396C181.114,-56.7593 200.598,-42.2028 215.082,-31.3813"/>
<polygon fill="midnightblue" stroke="midnightblue" points="217.446,-33.9837 223.363,-25.1945 213.257,-28.376 217.446,-33.9837"/>
</g>
<!-- Node5&#45;&gt;Node9 -->
<g id="edge8" class="edge"><title>Node5&#45;&gt;Node9</title>
<path fill="none" stroke="midnightblue" d="M126.735,-67.396C112.994,-58.282 94.9144,-46.2902 79.7558,-36.236"/>
<polygon fill="midnightblue" stroke="midnightblue" points="81.4912,-33.1872 71.223,-30.5765 77.622,-39.0207 81.4912,-33.1872"/>
</g>
<!-- Node5&#45;&gt;Node10 -->
<g id="edge9" class="edge"><title>Node5&#45;&gt;Node10</title>
<path fill="none" stroke="midnightblue" d="M217.261,-69.2088C221.907,-68.4433 226.52,-67.7001 231,-67 346.694,-48.9212 376.145,-48.0203 492,-31 502.645,-29.4361 513.967,-27.7175 524.912,-26.0271"/>
<polygon fill="midnightblue" stroke="midnightblue" points="525.484,-29.4804 534.829,-24.488 524.41,-22.5633 525.484,-29.4804"/>
</g>
<!-- Node5&#45;&gt;Node11 -->
<g id="edge10" class="edge"><title>Node5&#45;&gt;Node11</title>
<path fill="none" stroke="midnightblue" d="M217.074,-72.9378C234.045,-70.9127 252.172,-68.8158 269,-67 435.467,-49.0379 478.01,-52.9325 644,-31 653.47,-29.7488 663.495,-28.2336 673.226,-26.6607"/>
<polygon fill="midnightblue" stroke="midnightblue" points="673.93,-30.092 683.226,-25.0092 672.789,-23.1856 673.93,-30.092"/>
</g>
<!-- Node12 -->
<g id="node12" class="node"><title>Node12</title>
<polygon fill="white" stroke="#bfbfbf" points="292,-0.5 292,-30.5 392,-30.5 392,-0.5 292,-0.5"/>
<text text-anchor="start" x="300" y="-18.5" font-family="Helvetica,sans-Serif" font-size="10.00">boost/ptr_container</text>
<text text-anchor="middle" x="342" y="-7.5" font-family="Helvetica,sans-Serif" font-size="10.00">/ptr_vector.hpp</text>
</g>
<!-- Node5&#45;&gt;Node12 -->
<g id="edge11" class="edge"><title>Node5&#45;&gt;Node12</title>
<path fill="none" stroke="midnightblue" d="M190.095,-67.396C219.458,-57.558 258.828,-44.3668 290.13,-33.879"/>
<polygon fill="midnightblue" stroke="midnightblue" points="291.617,-37.0722 299.987,-30.5765 289.393,-30.4348 291.617,-37.0722"/>
</g>
<!-- Node15&#45;&gt;Node7 -->
<g id="edge26" class="edge"><title>Node15&#45;&gt;Node7</title>
<path fill="none" stroke="midnightblue" d="M839.553,-134.438C808.075,-127.657 767.509,-116.223 735,-98 717.162,-88.0008 719.224,-76.2771 701,-67 700.417,-66.7031 562.137,-38.4051 493.181,-24.3049"/>
<polygon fill="midnightblue" stroke="midnightblue" points="493.636,-20.8256 483.137,-22.2513 492.234,-27.6837 493.636,-20.8256"/>
</g>
<!-- Node15&#45;&gt;Node10 -->
<g id="edge22" class="edge"><title>Node15&#45;&gt;Node10</title>
<path fill="none" stroke="midnightblue" d="M863.38,-134.361C840.154,-126.347 805.902,-113.364 778,-98 757.362,-86.6359 755.955,-77.7683 735,-67 706.579,-52.3951 673.027,-40.6383 644.87,-32.1558"/>
<polygon fill="midnightblue" stroke="midnightblue" points="645.734,-28.7618 635.152,-29.2927 643.755,-35.4764 645.734,-28.7618"/>
</g>
<!-- Node15&#45;&gt;Node11 -->
<g id="edge21" class="edge"><title>Node15&#45;&gt;Node11</title>
<path fill="none" stroke="midnightblue" d="M873.775,-134.446C858.341,-126.01 834.758,-112.332 816,-98 789.312,-77.6082 761.682,-50.0738 745.169,-32.8037"/>
<polygon fill="midnightblue" stroke="midnightblue" points="747.421,-30.0907 738.009,-25.2265 742.333,-34.8986 747.421,-30.0907"/>
</g>
<!-- Node15&#45;&gt;Node14 -->
<g id="edge23" class="edge"><title>Node15&#45;&gt;Node14</title>
<path fill="none" stroke="midnightblue" d="M829.383,-136.471C766.228,-129.243 664.24,-116.38 567.122,-98.0966"/>
<polygon fill="midnightblue" stroke="midnightblue" points="567.613,-94.6274 557.135,-96.1937 566.303,-101.504 567.613,-94.6274"/>
</g>
<!-- Node16 -->
<g id="node16" class="node"><title>Node16</title>
<g id="a_node16"><a xlink:href="../../de/df3/ocra__assert_8h.html" target="_top" xlink:title="ocra/optim/ocra_assert.h">
<polygon fill="white" stroke="black" points="1035.5,-73 1035.5,-92 1160.5,-92 1160.5,-73 1035.5,-73"/>
<text text-anchor="middle" x="1098" y="-80" font-family="Helvetica,sans-Serif" font-size="10.00">ocra/optim/ocra_assert.h</text>
</a>
</g>
</g>
<!-- Node15&#45;&gt;Node16 -->
<g id="edge18" class="edge"><title>Node15&#45;&gt;Node16</title>
<path fill="none" stroke="midnightblue" d="M919.801,-134.475C956.253,-124.048 1018.08,-106.362 1058.47,-94.8066"/>
<polygon fill="midnightblue" stroke="midnightblue" points="1059.6,-98.1244 1068.25,-92.0091 1057.68,-91.3944 1059.6,-98.1244"/>
</g>
<!-- Node15&#45;&gt;Node18 -->
<g id="edge20" class="edge"><title>Node15&#45;&gt;Node18</title>
<path fill="none" stroke="midnightblue" d="M853.321,-134.475C807.793,-123.893 730.1,-105.836 680.453,-94.2966"/>
<polygon fill="midnightblue" stroke="midnightblue" points="681.143,-90.8639 670.611,-92.0091 679.559,-97.6822 681.143,-90.8639"/>
</g>
<!-- Node19 -->
<g id="node19" class="node"><title>Node19</title>
<polygon fill="white" stroke="#bfbfbf" points="825.5,-67.5 825.5,-97.5 954.5,-97.5 954.5,-67.5 825.5,-67.5"/>
<text text-anchor="start" x="833.5" y="-85.5" font-family="Helvetica,sans-Serif" font-size="10.00">boost/type_traits/has</text>
<text text-anchor="middle" x="890" y="-74.5" font-family="Helvetica,sans-Serif" font-size="10.00">_nothrow_constructor.hpp</text>
</g>
<!-- Node15&#45;&gt;Node19 -->
<g id="edge24" class="edge"><title>Node15&#45;&gt;Node19</title>
<path fill="none" stroke="midnightblue" d="M890,-134.475C890,-127.471 890,-117.192 890,-107.696"/>
<polygon fill="midnightblue" stroke="midnightblue" points="893.5,-107.523 890,-97.523 886.5,-107.523 893.5,-107.523"/>
</g>
<!-- Node15&#45;&gt;Node20 -->
<g id="edge25" class="edge"><title>Node15&#45;&gt;Node20</title>
<path fill="none" stroke="midnightblue" d="M950.566,-136.689C1070.94,-124.145 1336.6,-96.4631 1428.76,-86.8596"/>
<polygon fill="midnightblue" stroke="midnightblue" points="1429.29,-90.3236 1438.87,-85.806 1428.56,-83.3613 1429.29,-90.3236"/>
</g>
<!-- Node21 -->
<g id="node21" class="node"><title>Node21</title>
<polygon fill="white" stroke="#bfbfbf" points="972.5,-73 972.5,-92 1017.5,-92 1017.5,-73 972.5,-73"/>
<text text-anchor="middle" x="995" y="-80" font-family="Helvetica,sans-Serif" font-size="10.00">iosfwd</text>
</g>
<!-- Node15&#45;&gt;Node21 -->
<g id="edge27" class="edge"><title>Node15&#45;&gt;Node21</title>
<path fill="none" stroke="midnightblue" d="M905.044,-134.475C922.275,-124.711 950.74,-108.581 971.034,-97.0808"/>
<polygon fill="midnightblue" stroke="midnightblue" points="973.009,-99.9843 979.984,-92.0091 969.558,-93.8942 973.009,-99.9843"/>
</g>
<!-- Node22 -->
<g id="node22" class="node"><title>Node22</title>
<polygon fill="white" stroke="#bfbfbf" points="1178.5,-73 1178.5,-92 1237.5,-92 1237.5,-73 1178.5,-73"/>
<text text-anchor="middle" x="1208" y="-80" font-family="Helvetica,sans-Serif" font-size="10.00">stdexcept</text>
</g>
<!-- Node15&#45;&gt;Node22 -->
<g id="edge28" class="edge"><title>Node15&#45;&gt;Node22</title>
<path fill="none" stroke="midnightblue" d="M950.56,-136.901C1007.79,-130.288 1095.69,-117.921 1170,-98 1172.66,-97.2874 1175.39,-96.4558 1178.1,-95.5579"/>
<polygon fill="midnightblue" stroke="midnightblue" points="1179.51,-98.7735 1187.74,-92.1099 1177.15,-92.1824 1179.51,-98.7735"/>
</g>
<!-- Node17 -->
<g id="node17" class="node"><title>Node17</title>
<polygon fill="white" stroke="#bfbfbf" points="1076.5,-6 1076.5,-25 1119.5,-25 1119.5,-6 1076.5,-6"/>
<text text-anchor="middle" x="1098" y="-13" font-family="Helvetica,sans-Serif" font-size="10.00">cstdio</text>
</g>
<!-- Node16&#45;&gt;Node17 -->
<g id="edge19" class="edge"><title>Node16&#45;&gt;Node17</title>
<path fill="none" stroke="midnightblue" d="M1098,-72.7338C1098,-63.1826 1098,-47.6183 1098,-35.2829"/>
<polygon fill="midnightblue" stroke="midnightblue" points="1101.5,-35.1273 1098,-25.1273 1094.5,-35.1273 1101.5,-35.1273"/>
</g>
<!-- Node25&#45;&gt;Node3 -->
<g id="edge49" class="edge"><title>Node25&#45;&gt;Node3</title>
<path fill="none" stroke="midnightblue" d="M1462.85,-257.475C1396.89,-246.694 1283.47,-228.154 1213.11,-216.653"/>
<polygon fill="midnightblue" stroke="midnightblue" points="1213.49,-213.168 1203.06,-215.009 1212.36,-220.077 1213.49,-213.168"/>
</g>
<!-- Node25&#45;&gt;Node4 -->
<g id="edge50" class="edge"><title>Node25&#45;&gt;Node4</title>
<path fill="none" stroke="midnightblue" d="M1484.38,-257.421C1419.06,-239.26 1267.73,-197.939 1215,-190 1061.8,-166.936 602.245,-152.332 412.428,-147.134"/>
<polygon fill="midnightblue" stroke="midnightblue" points="412.32,-143.63 402.228,-146.857 412.129,-150.628 412.32,-143.63"/>
</g>
<!-- Node26 -->
<g id="node26" class="node"><title>Node26</title>
<g id="a_node26"><a xlink:href="../../de/d94/IFunction_8h.html" target="_top" xlink:title="Declaration file of the IFunction interface. ">
<polygon fill="white" stroke="black" points="1520,-134.5 1520,-153.5 1634,-153.5 1634,-134.5 1520,-134.5"/>
<text text-anchor="middle" x="1577" y="-141.5" font-family="Helvetica,sans-Serif" font-size="10.00">ocra/optim/IFunction.h</text>
</a>
</g>
</g>
<!-- Node25&#45;&gt;Node26 -->
<g id="edge34" class="edge"><title>Node25&#45;&gt;Node26</title>
<path fill="none" stroke="midnightblue" d="M1570.67,-264.126C1602.32,-259.846 1639.6,-248.694 1660,-221 1668.17,-209.907 1667.05,-201.839 1660,-190 1650.9,-174.721 1634.61,-164.31 1618.86,-157.386"/>
<polygon fill="midnightblue" stroke="midnightblue" points="1619.77,-153.981 1609.18,-153.512 1617.17,-160.479 1619.77,-153.981"/>
</g>
<!-- Node31 -->
<g id="node31" class="node"><title>Node31</title>
<g id="a_node31"><a xlink:href="../../d9/d54/IFunctionProperties_8h.html" target="_top" xlink:title="ocra/optim/IFunctionProperties.h">
<polygon fill="white" stroke="black" points="1359,-196 1359,-215 1517,-215 1517,-196 1359,-196"/>
<text text-anchor="middle" x="1438" y="-203" font-family="Helvetica,sans-Serif" font-size="10.00">ocra/optim/IFunctionProperties.h</text>
</a>
</g>
</g>
<!-- Node25&#45;&gt;Node31 -->
<g id="edge42" class="edge"><title>Node25&#45;&gt;Node31</title>
<path fill="none" stroke="midnightblue" d="M1503.97,-257.475C1491.73,-248.02 1471.77,-232.596 1457.01,-221.187"/>
<polygon fill="midnightblue" stroke="midnightblue" points="1459.06,-218.354 1449.01,-215.009 1454.78,-223.893 1459.06,-218.354"/>
</g>
<!-- Node32 -->
<g id="node32" class="node"><title>Node32</title>
<g id="a_node32"><a xlink:href="../../db/d47/AbilitySet_8h.html" target="_top" xlink:title="ocra/optim/AbilitySet.h">
<polygon fill="white" stroke="black" points="1535,-196 1535,-215 1651,-215 1651,-196 1535,-196"/>
<text text-anchor="middle" x="1593" y="-203" font-family="Helvetica,sans-Serif" font-size="10.00">ocra/optim/AbilitySet.h</text>
</a>
</g>
</g>
<!-- Node25&#45;&gt;Node32 -->
<g id="edge45" class="edge"><title>Node25&#45;&gt;Node32</title>
<path fill="none" stroke="midnightblue" d="M1526.18,-257.475C1538.57,-248.02 1558.79,-232.596 1573.75,-221.187"/>
<polygon fill="midnightblue" stroke="midnightblue" points="1576.02,-223.857 1581.85,-215.009 1571.77,-218.291 1576.02,-223.857"/>
</g>
<!-- Node33 -->
<g id="node33" class="node"><title>Node33</title>
<g id="a_node33"><a xlink:href="../../d1/d87/CoupledInputOutputSize_8h.html" target="_top" xlink:title="ocra/optim/CoupledInputOutput\lSize.h">
<polygon fill="white" stroke="black" points="1707,-190.5 1707,-220.5 1859,-220.5 1859,-190.5 1707,-190.5"/>
<text text-anchor="start" x="1715" y="-208.5" font-family="Helvetica,sans-Serif" font-size="10.00">ocra/optim/CoupledInputOutput</text>
<text text-anchor="middle" x="1783" y="-197.5" font-family="Helvetica,sans-Serif" font-size="10.00">Size.h</text>
</a>
</g>
</g>
<!-- Node25&#45;&gt;Node33 -->
<g id="edge48" class="edge"><title>Node25&#45;&gt;Node33</title>
<path fill="none" stroke="midnightblue" d="M1553.4,-257.475C1594.1,-248.438 1659.37,-233.947 1709.93,-222.722"/>
<polygon fill="midnightblue" stroke="midnightblue" points="1710.83,-226.107 1719.84,-220.523 1709.32,-219.274 1710.83,-226.107"/>
</g>
<!-- Node34 -->
<g id="node34" class="node"><title>Node34</title>
<g id="a_node34"><a xlink:href="../../df/d97/NamedInstance_8h.html" target="_top" xlink:title="ocra/optim/NamedInstance.h">
<polygon fill="white" stroke="black" points="1877.5,-196 1877.5,-215 2020.5,-215 2020.5,-196 1877.5,-196"/>
<text text-anchor="middle" x="1949" y="-203" font-family="Helvetica,sans-Serif" font-size="10.00">ocra/optim/NamedInstance.h</text>
</a>
</g>
</g>
<!-- Node25&#45;&gt;Node34 -->
<g id="edge51" class="edge"><title>Node25&#45;&gt;Node34</title>
<path fill="none" stroke="midnightblue" d="M1570.76,-259.771C1640.44,-251.784 1763.27,-237.039 1868,-221 1876.32,-219.725 1885.11,-218.269 1893.7,-216.782"/>
<polygon fill="midnightblue" stroke="midnightblue" points="1894.41,-220.21 1903.66,-215.032 1893.2,-213.316 1894.41,-220.21"/>
</g>
<!-- Node26&#45;&gt;Node16 -->
<g id="edge38" class="edge"><title>Node26&#45;&gt;Node16</title>
<path fill="none" stroke="midnightblue" d="M1519.83,-138.289C1440.88,-131.417 1294.16,-117.327 1170,-98 1162.55,-96.8409 1154.71,-95.4441 1147.04,-93.9812"/>
<polygon fill="midnightblue" stroke="midnightblue" points="1147.61,-90.5256 1137.12,-92.0345 1146.26,-97.3946 1147.61,-90.5256"/>
</g>
<!-- Node26&#45;&gt;Node20 -->
<g id="edge40" class="edge"><title>Node26&#45;&gt;Node20</title>
<path fill="none" stroke="midnightblue" d="M1560.38,-134.475C1541.08,-124.578 1509.04,-108.142 1486.57,-96.6151"/>
<polygon fill="midnightblue" stroke="midnightblue" points="1488.08,-93.4589 1477.59,-92.0091 1484.89,-99.6873 1488.08,-93.4589"/>
</g>
<!-- Node26&#45;&gt;Node22 -->
<g id="edge41" class="edge"><title>Node26&#45;&gt;Node22</title>
<path fill="none" stroke="midnightblue" d="M1524.13,-134.475C1449.41,-122.427 1314.59,-100.688 1247.77,-89.9128"/>
<polygon fill="midnightblue" stroke="midnightblue" points="1248.08,-86.4173 1237.65,-88.2807 1246.96,-93.328 1248.08,-86.4173"/>
</g>
<!-- Node27 -->
<g id="node27" class="node"><title>Node27</title>
<g id="a_node27"><a xlink:href="../../d5/d55/MathTypes_8h.html" target="_top" xlink:title="Declaration file of the OptimizationVariable class. ">
<polygon fill="white" stroke="black" points="1514.5,-73 1514.5,-92 1625.5,-92 1625.5,-73 1514.5,-73"/>
<text text-anchor="middle" x="1570" y="-80" font-family="Helvetica,sans-Serif" font-size="10.00">ocra/util/MathTypes.h</text>
</a>
</g>
</g>
<!-- Node26&#45;&gt;Node27 -->
<g id="edge35" class="edge"><title>Node26&#45;&gt;Node27</title>
<path fill="none" stroke="midnightblue" d="M1576,-134.475C1575.01,-126.08 1573.47,-112.981 1572.2,-102.163"/>
<polygon fill="midnightblue" stroke="midnightblue" points="1575.65,-101.532 1571,-92.0091 1568.69,-102.35 1575.65,-101.532"/>
</g>
<!-- Node30 -->
<g id="node30" class="node"><title>Node30</title>
<polygon fill="white" stroke="#bfbfbf" points="1644,-73 1644,-92 1698,-92 1698,-73 1644,-73"/>
<text text-anchor="middle" x="1671" y="-80" font-family="Helvetica,sans-Serif" font-size="10.00">iostream</text>
</g>
<!-- Node26&#45;&gt;Node30 -->
<g id="edge39" class="edge"><title>Node26&#45;&gt;Node30</title>
<path fill="none" stroke="midnightblue" d="M1590.47,-134.475C1605.68,-124.843 1630.69,-109.017 1648.8,-97.5517"/>
<polygon fill="midnightblue" stroke="midnightblue" points="1650.98,-100.315 1657.56,-92.0091 1647.24,-94.4002 1650.98,-100.315"/>
</g>
<!-- Node28 -->
<g id="node28" class="node"><title>Node28</title>
<polygon fill="white" stroke="#bfbfbf" points="1494.5,-6 1494.5,-25 1567.5,-25 1567.5,-6 1494.5,-6"/>
<text text-anchor="middle" x="1531" y="-13" font-family="Helvetica,sans-Serif" font-size="10.00">Eigen/Dense</text>
</g>
<!-- Node27&#45;&gt;Node28 -->
<g id="edge36" class="edge"><title>Node27&#45;&gt;Node28</title>
<path fill="none" stroke="midnightblue" d="M1564.74,-72.7338C1558.78,-62.7928 1548.9,-46.3377 1541.37,-33.7892"/>
<polygon fill="midnightblue" stroke="midnightblue" points="1544.32,-31.9015 1536.18,-25.1273 1538.32,-35.503 1544.32,-31.9015"/>
</g>
<!-- Node29 -->
<g id="node29" class="node"><title>Node29</title>
<polygon fill="white" stroke="#bfbfbf" points="1586,-6 1586,-25 1630,-25 1630,-6 1586,-6"/>
<text text-anchor="middle" x="1608" y="-13" font-family="Helvetica,sans-Serif" font-size="10.00">cmath</text>
</g>
<!-- Node27&#45;&gt;Node29 -->
<g id="edge37" class="edge"><title>Node27&#45;&gt;Node29</title>
<path fill="none" stroke="midnightblue" d="M1575.12,-72.7338C1580.94,-62.7928 1590.56,-46.3377 1597.89,-33.7892"/>
<polygon fill="midnightblue" stroke="midnightblue" points="1600.93,-35.5267 1602.96,-25.1273 1594.89,-31.9938 1600.93,-35.5267"/>
</g>
<!-- Node31&#45;&gt;Node20 -->
<g id="edge44" class="edge"><title>Node31&#45;&gt;Node20</title>
<path fill="none" stroke="midnightblue" d="M1439.65,-195.798C1443.37,-176.263 1452.43,-128.565 1457.47,-102.047"/>
<polygon fill="midnightblue" stroke="midnightblue" points="1460.93,-102.601 1459.36,-92.1232 1454.05,-101.294 1460.93,-102.601"/>
</g>
<!-- Node31&#45;&gt;Node24 -->
<g id="edge43" class="edge"><title>Node31&#45;&gt;Node24</title>
<path fill="none" stroke="midnightblue" d="M1433.27,-195.975C1428.42,-187.227 1420.73,-173.369 1414.6,-162.309"/>
<polygon fill="midnightblue" stroke="midnightblue" points="1417.63,-160.557 1409.72,-153.509 1411.51,-163.952 1417.63,-160.557"/>
</g>
<!-- Node32&#45;&gt;Node20 -->
<g id="edge47" class="edge"><title>Node32&#45;&gt;Node20</title>
<path fill="none" stroke="midnightblue" d="M1574.62,-195.906C1556.99,-187.066 1530.28,-172.063 1511,-154 1494.29,-138.345 1479.74,-116.307 1470.71,-101.057"/>
<polygon fill="midnightblue" stroke="midnightblue" points="1473.61,-99.0851 1465.6,-92.15 1467.54,-102.566 1473.61,-99.0851"/>
</g>
<!-- Node32&#45;&gt;Node26 -->
<g id="edge46" class="edge"><title>Node32&#45;&gt;Node26</title>
<path fill="none" stroke="midnightblue" d="M1590.71,-195.975C1588.43,-187.492 1584.85,-174.204 1581.93,-163.322"/>
<polygon fill="midnightblue" stroke="midnightblue" points="1585.26,-162.257 1579.29,-153.509 1578.51,-164.075 1585.26,-162.257"/>
</g>
<!-- Node34&#45;&gt;Node24 -->
<g id="edge52" class="edge"><title>Node34&#45;&gt;Node24</title>
<path fill="none" stroke="midnightblue" d="M1904.96,-195.954C1893,-193.814 1880.03,-191.659 1868,-190 1783.82,-178.393 1525.16,-155.46 1435.77,-147.665"/>
<polygon fill="midnightblue" stroke="midnightblue" points="1436,-144.172 1425.73,-146.791 1435.39,-151.145 1436,-144.172"/>
</g>
<!-- Node35&#45;&gt;Node25 -->
<g id="edge54" class="edge"><title>Node35&#45;&gt;Node25</title>
<path fill="none" stroke="midnightblue" d="M1510.61,-369.337C1511.51,-348.622 1513.18,-310.016 1514.18,-286.899"/>
<polygon fill="midnightblue" stroke="midnightblue" points="1517.69,-286.812 1514.62,-276.669 1510.7,-286.509 1517.69,-286.812"/>
</g>
<!-- Node37 -->
<g id="node37" class="node"><title>Node37</title>
<polygon fill="white" stroke="#bfbfbf" points="2039,-196 2039,-215 2091,-215 2091,-196 2039,-196"/>
<text text-anchor="middle" x="2065" y="-203" font-family="Helvetica,sans-Serif" font-size="10.00">memory</text>
</g>
<!-- Node36&#45;&gt;Node37 -->
<g id="edge56" class="edge"><title>Node36&#45;&gt;Node37</title>
<path fill="none" stroke="midnightblue" d="M1753.71,-263.184C1817.57,-258.556 1933.96,-247.103 2030,-221 2032.44,-220.336 2034.94,-219.544 2037.43,-218.677"/>
<polygon fill="midnightblue" stroke="midnightblue" points="2038.71,-221.935 2046.78,-215.076 2036.19,-215.403 2038.71,-221.935"/>
</g>
<!-- Node38&#45;&gt;Node25 -->
<g id="edge60" class="edge"><title>Node38&#45;&gt;Node25</title>
<path fill="none" stroke="midnightblue" d="M1675.74,-313.444C1643.04,-304.201 1590.82,-289.436 1554.82,-279.257"/>
<polygon fill="midnightblue" stroke="midnightblue" points="1555.7,-275.869 1545.12,-276.516 1553.79,-282.605 1555.7,-275.869"/>
</g>
<!-- Node38&#45;&gt;Node36 -->
<g id="edge61" class="edge"><title>Node38&#45;&gt;Node36</title>
<path fill="none" stroke="midnightblue" d="M1706,-313.083C1706,-306.006 1706,-295.861 1706,-286.986"/>
<polygon fill="midnightblue" stroke="midnightblue" points="1709.5,-286.751 1706,-276.751 1702.5,-286.751 1709.5,-286.751"/>
</g>
<!-- Node39&#45;&gt;Node40 -->
<g id="edge63" class="edge"><title>Node39&#45;&gt;Node40</title>
<path fill="none" stroke="midnightblue" d="M1752.02,-436.475C1758.28,-428.869 1767.73,-417.399 1776.08,-407.265"/>
<polygon fill="midnightblue" stroke="midnightblue" points="1778.8,-409.467 1782.45,-399.523 1773.39,-405.017 1778.8,-409.467"/>
</g>
<!-- Node40&#45;&gt;Node38 -->
<g id="edge64" class="edge"><title>Node40&#45;&gt;Node38</title>
<path fill="none" stroke="midnightblue" d="M1773.15,-369.399C1759.3,-360.04 1741.19,-347.792 1727.26,-338.377"/>
<polygon fill="midnightblue" stroke="midnightblue" points="1729.05,-335.36 1718.8,-332.658 1725.13,-341.158 1729.05,-335.36"/>
</g>
<!-- Node41&#45;&gt;Node40 -->
<g id="edge66" class="edge"><title>Node41&#45;&gt;Node40</title>
<path fill="none" stroke="midnightblue" d="M1921.65,-436.475C1900.06,-427.852 1866.03,-414.264 1838.54,-403.285"/>
<polygon fill="midnightblue" stroke="midnightblue" points="1839.7,-399.981 1829.12,-399.523 1837.11,-406.482 1839.7,-399.981"/>
</g>
</g>
</svg>
