<?xml version="1.0" encoding="UTF-8" standalone="no"?>
<!DOCTYPE svg PUBLIC "-//W3C//DTD SVG 1.1//EN"
 "http://www.w3.org/Graphics/SVG/1.1/DTD/svg11.dtd">
<!-- Generated by graphviz version 2.38.0 (20140413.2041)
 -->
<!-- Title: ocra::Function Pages: 1 -->
<svg width="1191pt" height="656pt"
 viewBox="0.00 0.00 1191.00 656.00" xmlns="http://www.w3.org/2000/svg" xmlns:xlink="http://www.w3.org/1999/xlink">
<g id="graph0" class="graph" transform="scale(1 1) rotate(0) translate(4 652)">
<title>ocra::Function</title>
<polygon fill="white" stroke="none" points="-4,4 -4,-652 1187,-652 1187,4 -4,4"/>
<!-- Node1 -->
<g id="node1" class="node"><title>Node1</title>
<polygon fill="#bfbfbf" stroke="black" points="545,-297 545,-316 624,-316 624,-297 545,-297"/>
<text text-anchor="middle" x="584.5" y="-304" font-family="Helvetica,sans-Serif" font-size="10.00">ocra::Function</text>
</g>
<!-- Node16 -->
<g id="node16" class="node"><title>Node16</title>
<g id="a_node16"><a xlink:href="../../d1/d44/classFunction1.html" target="_top" xlink:title="Function1">
<polygon fill="white" stroke="black" points="694.5,-487 694.5,-506 753.5,-506 753.5,-487 694.5,-487"/>
<text text-anchor="middle" x="724" y="-494" font-family="Helvetica,sans-Serif" font-size="10.00">Function1</text>
</a>
</g>
</g>
<!-- Node1&#45;&gt;Node16 -->
<g id="edge15" class="edge"><title>Node1&#45;&gt;Node16</title>
<path fill="none" stroke="midnightblue" d="M588.59,-326.367C595.168,-361.925 613.909,-436.549 660,-477.5 669.48,-485.922 682.583,-490.613 694.385,-493.225"/>
<polygon fill="midnightblue" stroke="midnightblue" points="592.001,-325.552 586.862,-316.287 585.102,-326.734 592.001,-325.552"/>
</g>
<!-- Node17 -->
<g id="node17" class="node"><title>Node17</title>
<g id="a_node17"><a xlink:href="../../d6/d7e/classFunction2.html" target="_top" xlink:title="Function2">
<polygon fill="white" stroke="black" points="694.5,-449 694.5,-468 753.5,-468 753.5,-449 694.5,-449"/>
<text text-anchor="middle" x="724" y="-456" font-family="Helvetica,sans-Serif" font-size="10.00">Function2</text>
</a>
</g>
</g>
<!-- Node1&#45;&gt;Node17 -->
<g id="edge16" class="edge"><title>Node1&#45;&gt;Node17</title>
<path fill="none" stroke="midnightblue" d="M591.196,-325.961C600.685,-354.975 622.488,-409.378 660,-439.5 669.799,-447.368 682.808,-451.982 694.46,-454.687"/>
<polygon fill="midnightblue" stroke="midnightblue" points="594.468,-324.696 588.155,-316.188 587.784,-326.776 594.468,-324.696"/>
</g>
<!-- Node18 -->
<g id="node18" class="node"><title>Node18</title>
<g id="a_node18"><a xlink:href="../../d9/d4a/classFunction3.html" target="_top" xlink:title="Function3">
<polygon fill="white" stroke="black" points="694.5,-411 694.5,-430 753.5,-430 753.5,-411 694.5,-411"/>
<text text-anchor="middle" x="724" y="-418" font-family="Helvetica,sans-Serif" font-size="10.00">Function3</text>
</a>
</g>
</g>
<!-- Node1&#45;&gt;Node18 -->
<g id="edge17" class="edge"><title>Node1&#45;&gt;Node18</title>
<path fill="none" stroke="midnightblue" d="M595.308,-324.996C607.625,-346.475 630.734,-381.507 660,-401.5 670.188,-408.46 682.992,-412.929 694.392,-415.77"/>
<polygon fill="midnightblue" stroke="midnightblue" points="598.334,-323.235 590.426,-316.184 592.211,-326.627 598.334,-323.235"/>
</g>
<!-- Node19 -->
<g id="node19" class="node"><title>Node19</title>
<g id="a_node19"><a xlink:href="../../db/d8c/classMyFunction.html" target="_top" xlink:title="MyFunction">
<polygon fill="white" stroke="black" points="690,-373 690,-392 758,-392 758,-373 690,-373"/>
<text text-anchor="middle" x="724" y="-380" font-family="Helvetica,sans-Serif" font-size="10.00">MyFunction</text>
</a>
</g>
</g>
<!-- Node1&#45;&gt;Node19 -->
<g id="edge18" class="edge"><title>Node1&#45;&gt;Node19</title>
<path fill="none" stroke="midnightblue" d="M603.382,-323.17C617.738,-335.779 638.913,-352.709 660,-363.5 669.254,-368.236 679.89,-372.006 689.756,-374.898"/>
<polygon fill="midnightblue" stroke="midnightblue" points="605.546,-320.409 595.77,-316.325 600.865,-325.614 605.546,-320.409"/>
</g>
<!-- Node20 -->
<g id="node20" class="node"><title>Node20</title>
<g id="a_node20"><a xlink:href="../../db/da4/classocra_1_1DotProductFunction.html" target="_top" xlink:title="DotProductFunction class. ">
<polygon fill="white" stroke="black" points="660,-335 660,-354 788,-354 788,-335 660,-335"/>
<text text-anchor="middle" x="724" y="-342" font-family="Helvetica,sans-Serif" font-size="10.00">ocra::DotProductFunction</text>
</a>
</g>
</g>
<!-- Node1&#45;&gt;Node20 -->
<g id="edge19" class="edge"><title>Node1&#45;&gt;Node20</title>
<path fill="none" stroke="midnightblue" d="M630.073,-318.818C648.965,-324.039 670.647,-330.032 688.314,-334.914"/>
<polygon fill="midnightblue" stroke="midnightblue" points="630.768,-315.379 620.197,-316.089 628.903,-322.126 630.768,-315.379"/>
</g>
<!-- Node21 -->
<g id="node21" class="node"><title>Node21</title>
<g id="a_node21"><a xlink:href="../../de/d3a/classocra_1_1LinearFunction.html" target="_top" xlink:title="LinearFunction class. ">
<polygon fill="white" stroke="black" points="671.5,-297 671.5,-316 776.5,-316 776.5,-297 671.5,-297"/>
<text text-anchor="middle" x="724" y="-304" font-family="Helvetica,sans-Serif" font-size="10.00">ocra::LinearFunction</text>
</a>
</g>
</g>
<!-- Node1&#45;&gt;Node21 -->
<g id="edge20" class="edge"><title>Node1&#45;&gt;Node21</title>
<path fill="none" stroke="midnightblue" d="M634.408,-306.5C646.365,-306.5 659.197,-306.5 671.28,-306.5"/>
<polygon fill="midnightblue" stroke="midnightblue" points="634.167,-303 624.167,-306.5 634.167,-310 634.167,-303"/>
</g>
<!-- Node40 -->
<g id="node40" class="node"><title>Node40</title>
<g id="a_node40"><a xlink:href="../../dd/d93/classocra_1_1Pb114G10.html" target="_top" xlink:title="ocra::Pb114G10">
<polygon fill="white" stroke="black" points="680.5,-259 680.5,-278 767.5,-278 767.5,-259 680.5,-259"/>
<text text-anchor="middle" x="724" y="-266" font-family="Helvetica,sans-Serif" font-size="10.00">ocra::Pb114G10</text>
</a>
</g>
</g>
<!-- Node1&#45;&gt;Node40 -->
<g id="edge39" class="edge"><title>Node1&#45;&gt;Node40</title>
<path fill="none" stroke="midnightblue" d="M630.073,-294.182C648.965,-288.961 670.647,-282.968 688.314,-278.086"/>
<polygon fill="midnightblue" stroke="midnightblue" points="628.903,-290.874 620.197,-296.911 630.768,-297.621 628.903,-290.874"/>
</g>
<!-- Node41 -->
<g id="node41" class="node"><title>Node41</title>
<g id="a_node41"><a xlink:href="../../da/d6c/classocra_1_1Pb114G11.html" target="_top" xlink:title="ocra::Pb114G11">
<polygon fill="white" stroke="black" points="680.5,-221 680.5,-240 767.5,-240 767.5,-221 680.5,-221"/>
<text text-anchor="middle" x="724" y="-228" font-family="Helvetica,sans-Serif" font-size="10.00">ocra::Pb114G11</text>
</a>
</g>
</g>
<!-- Node1&#45;&gt;Node41 -->
<g id="edge40" class="edge"><title>Node1&#45;&gt;Node41</title>
<path fill="none" stroke="midnightblue" d="M603.382,-289.83C617.738,-277.221 638.913,-260.291 660,-249.5 667.322,-245.753 675.509,-242.611 683.495,-240.029"/>
<polygon fill="midnightblue" stroke="midnightblue" points="600.865,-287.386 595.77,-296.675 605.546,-292.591 600.865,-287.386"/>
</g>
<!-- Node42 -->
<g id="node42" class="node"><title>Node42</title>
<g id="a_node42"><a xlink:href="../../d9/df1/classocra_1_1Pb114G5.html" target="_top" xlink:title="ocra::Pb114G5">
<polygon fill="white" stroke="black" points="683,-183 683,-202 765,-202 765,-183 683,-183"/>
<text text-anchor="middle" x="724" y="-190" font-family="Helvetica,sans-Serif" font-size="10.00">ocra::Pb114G5</text>
</a>
</g>
</g>
<!-- Node1&#45;&gt;Node42 -->
<g id="edge41" class="edge"><title>Node1&#45;&gt;Node42</title>
<path fill="none" stroke="midnightblue" d="M595.308,-288.004C607.625,-266.525 630.734,-231.493 660,-211.5 666.792,-206.86 674.747,-203.327 682.673,-200.646"/>
<polygon fill="midnightblue" stroke="midnightblue" points="592.211,-286.373 590.426,-296.816 598.334,-289.765 592.211,-286.373"/>
</g>
<!-- Node43 -->
<g id="node43" class="node"><title>Node43</title>
<g id="a_node43"><a xlink:href="../../d9/d7e/classocra_1_1QuadraticFunction.html" target="_top" xlink:title="QuadraticFunction class. ">
<polygon fill="white" stroke="black" points="663.5,-88 663.5,-107 784.5,-107 784.5,-88 663.5,-88"/>
<text text-anchor="middle" x="724" y="-95" font-family="Helvetica,sans-Serif" font-size="10.00">ocra::QuadraticFunction</text>
</a>
</g>
</g>
<!-- Node1&#45;&gt;Node43 -->
<g id="edge42" class="edge"><title>Node1&#45;&gt;Node43</title>
<path fill="none" stroke="midnightblue" d="M594.734,-287.555C607.9,-261.165 633.43,-212.224 660,-173.5 677.26,-148.346 700.976,-121.429 713.825,-107.361"/>
<polygon fill="midnightblue" stroke="midnightblue" points="591.461,-286.279 590.171,-296.795 597.737,-289.378 591.461,-286.279"/>
</g>
<!-- Node47 -->
<g id="node47" class="node"><title>Node47</title>
<g id="a_node47"><a xlink:href="../../df/d5a/classocra_1_1SubtractionFunction.html" target="_top" xlink:title="SubtractionFunction class. ">
<polygon fill="white" stroke="black" points="660,-50 660,-69 788,-69 788,-50 660,-50"/>
<text text-anchor="middle" x="724" y="-57" font-family="Helvetica,sans-Serif" font-size="10.00">ocra::SubtractionFunction</text>
</a>
</g>
</g>
<!-- Node1&#45;&gt;Node47 -->
<g id="edge46" class="edge"><title>Node1&#45;&gt;Node47</title>
<path fill="none" stroke="midnightblue" d="M586.114,-286.371C588.567,-242.277 600.676,-136.481 660,-78.5 664.003,-74.5873 668.782,-71.4764 673.893,-69.0036"/>
<polygon fill="midnightblue" stroke="midnightblue" points="582.605,-286.491 585.661,-296.635 589.598,-286.799 582.605,-286.491"/>
</g>
<!-- Node2 -->
<g id="node2" class="node"><title>Node2</title>
<g id="a_node2"><a xlink:href="../../d3/d16/classocra_1_1ObserverSubject.html" target="_top" xlink:title="ocra::ObserverSubject">
<polygon fill="white" stroke="black" points="368.5,-401 368.5,-420 482.5,-420 482.5,-401 368.5,-401"/>
<text text-anchor="middle" x="425.5" y="-408" font-family="Helvetica,sans-Serif" font-size="10.00">ocra::ObserverSubject</text>
</a>
</g>
</g>
<!-- Node2&#45;&gt;Node1 -->
<g id="edge1" class="edge"><title>Node2&#45;&gt;Node1</title>
<path fill="none" stroke="midnightblue" d="M492.657,-399.246C498.372,-397.1 503.908,-394.543 509,-391.5 541.339,-372.17 567.076,-334.023 577.923,-316.157"/>
<polygon fill="midnightblue" stroke="midnightblue" points="491.301,-396.008 482.918,-402.486 493.511,-402.65 491.301,-396.008"/>
</g>
<!-- Node3 -->
<g id="node3" class="node"><title>Node3</title>
<g id="a_node3"><a xlink:href="../../d2/d45/classocra_1_1Observer.html" target="_top" xlink:title="ocra::Observer">
<polygon fill="white" stroke="black" points="225,-450 225,-469 306,-469 306,-450 225,-450"/>
<text text-anchor="middle" x="265.5" y="-457" font-family="Helvetica,sans-Serif" font-size="10.00">ocra::Observer</text>
</a>
</g>
</g>
<!-- Node3&#45;&gt;Node2 -->
<g id="edge2" class="edge"><title>Node3&#45;&gt;Node2</title>
<path fill="none" stroke="midnightblue" d="M306.903,-446.97C333.937,-438.586 368.965,-427.723 393.739,-420.04"/>
<polygon fill="midnightblue" stroke="midnightblue" points="305.854,-443.631 297.339,-449.936 307.927,-450.317 305.854,-443.631"/>
</g>
<!-- Node4 -->
<g id="node4" class="node"><title>Node4</title>
<g id="a_node4"><a xlink:href="../../d4/dee/classocra_1_1ObserverBase.html" target="_top" xlink:title="ocra::ObserverBase\l\&lt; EVT_RESIZE \&gt;">
<polygon fill="white" stroke="black" points="42.5,-518.5 42.5,-548.5 146.5,-548.5 146.5,-518.5 42.5,-518.5"/>
<text text-anchor="start" x="50.5" y="-536.5" font-family="Helvetica,sans-Serif" font-size="10.00">ocra::ObserverBase</text>
<text text-anchor="middle" x="94.5" y="-525.5" font-family="Helvetica,sans-Serif" font-size="10.00">&lt; EVT_RESIZE &gt;</text>
</a>
</g>
</g>
<!-- Node4&#45;&gt;Node3 -->
<g id="edge3" class="edge"><title>Node4&#45;&gt;Node3</title>
<path fill="none" stroke="midnightblue" d="M156.893,-520.053C167.797,-516.833 178.891,-512.996 189,-508.5 212.987,-497.832 238.006,-480.063 252.372,-469.108"/>
<polygon fill="midnightblue" stroke="midnightblue" points="155.65,-516.766 146.967,-522.837 157.54,-523.506 155.65,-516.766"/>
</g>
<!-- Node5 -->
<g id="node5" class="node"><title>Node5</title>
<g id="a_node5"><a xlink:href="../../d4/dee/classocra_1_1ObserverBase.html" target="_top" xlink:title="ocra::ObserverBase\l\&lt; EVT_CHANGE_DEPENDENCIES \&gt;">
<polygon fill="white" stroke="black" points="0,-469.5 0,-499.5 189,-499.5 189,-469.5 0,-469.5"/>
<text text-anchor="start" x="8" y="-487.5" font-family="Helvetica,sans-Serif" font-size="10.00">ocra::ObserverBase</text>
<text text-anchor="middle" x="94.5" y="-476.5" font-family="Helvetica,sans-Serif" font-size="10.00">&lt; EVT_CHANGE_DEPENDENCIES &gt;</text>
</a>
</g>
</g>
<!-- Node5&#45;&gt;Node3 -->
<g id="edge4" class="edge"><title>Node5&#45;&gt;Node3</title>
<path fill="none" stroke="midnightblue" d="M199.526,-469.111C208.41,-467.797 216.989,-466.528 224.84,-465.367"/>
<polygon fill="midnightblue" stroke="midnightblue" points="198.77,-465.685 189.39,-470.611 199.795,-472.61 198.77,-465.685"/>
</g>
<!-- Node6 -->
<g id="node6" class="node"><title>Node6</title>
<g id="a_node6"><a xlink:href="../../d4/dee/classocra_1_1ObserverBase.html" target="_top" xlink:title="ocra::ObserverBase\l\&lt; EVT_CHANGE_VALUE \&gt;">
<polygon fill="white" stroke="black" points="24,-420.5 24,-450.5 165,-450.5 165,-420.5 24,-420.5"/>
<text text-anchor="start" x="32" y="-438.5" font-family="Helvetica,sans-Serif" font-size="10.00">ocra::ObserverBase</text>
<text text-anchor="middle" x="94.5" y="-427.5" font-family="Helvetica,sans-Serif" font-size="10.00">&lt; EVT_CHANGE_VALUE &gt;</text>
</a>
</g>
</g>
<!-- Node6&#45;&gt;Node3 -->
<g id="edge5" class="edge"><title>Node6&#45;&gt;Node3</title>
<path fill="none" stroke="midnightblue" d="M175.313,-446.834C192.551,-449.282 210.051,-451.768 224.93,-453.881"/>
<polygon fill="midnightblue" stroke="midnightblue" points="175.607,-443.341 165.214,-445.4 174.623,-450.272 175.607,-443.341"/>
</g>
<!-- Node7 -->
<g id="node7" class="node"><title>Node7</title>
<g id="a_node7"><a xlink:href="../../dc/d77/classocra_1_1Subject.html" target="_top" xlink:title="ocra::Subject">
<polygon fill="white" stroke="black" points="228.5,-352 228.5,-371 302.5,-371 302.5,-352 228.5,-352"/>
<text text-anchor="middle" x="265.5" y="-359" font-family="Helvetica,sans-Serif" font-size="10.00">ocra::Subject</text>
</a>
</g>
</g>
<!-- Node7&#45;&gt;Node2 -->
<g id="edge6" class="edge"><title>Node7&#45;&gt;Node2</title>
<path fill="none" stroke="midnightblue" d="M297.324,-374.978C310.861,-380.575 327.048,-386.837 342,-391.5 353.365,-395.044 365.798,-398.248 377.485,-400.971"/>
<polygon fill="midnightblue" stroke="midnightblue" points="298.566,-371.703 287.991,-371.052 295.852,-378.156 298.566,-371.703"/>
</g>
<!-- Node8 -->
<g id="node8" class="node"><title>Node8</title>
<g id="a_node8"><a xlink:href="../../dc/d29/classocra_1_1SubjectBase.html" target="_top" xlink:title="ocra::SubjectBase\&lt;\l EVT_RESIZE \&gt;">
<polygon fill="white" stroke="black" points="43,-371.5 43,-401.5 146,-401.5 146,-371.5 43,-371.5"/>
<text text-anchor="start" x="51" y="-389.5" font-family="Helvetica,sans-Serif" font-size="10.00">ocra::SubjectBase&lt;</text>
<text text-anchor="middle" x="94.5" y="-378.5" font-family="Helvetica,sans-Serif" font-size="10.00"> EVT_RESIZE &gt;</text>
</a>
</g>
</g>
<!-- Node8&#45;&gt;Node7 -->
<g id="edge7" class="edge"><title>Node8&#45;&gt;Node7</title>
<path fill="none" stroke="midnightblue" d="M156.345,-377.499C180.463,-373.932 207.377,-369.95 228.323,-366.852"/>
<polygon fill="midnightblue" stroke="midnightblue" points="155.586,-374.073 146.206,-378.999 156.61,-380.998 155.586,-374.073"/>
</g>
<!-- Node9 -->
<g id="node9" class="node"><title>Node9</title>
<g id="a_node9"><a xlink:href="../../dc/d29/classocra_1_1SubjectBase.html" target="_top" xlink:title="ocra::SubjectBase\&lt;\l EVT_CHANGE_DEPENDENCIES \&gt;">
<polygon fill="white" stroke="black" points="3,-322.5 3,-352.5 186,-352.5 186,-322.5 3,-322.5"/>
<text text-anchor="start" x="11" y="-340.5" font-family="Helvetica,sans-Serif" font-size="10.00">ocra::SubjectBase&lt;</text>
<text text-anchor="middle" x="94.5" y="-329.5" font-family="Helvetica,sans-Serif" font-size="10.00"> EVT_CHANGE_DEPENDENCIES &gt;</text>
</a>
</g>
</g>
<!-- Node9&#45;&gt;Node7 -->
<g id="edge8" class="edge"><title>Node9&#45;&gt;Node7</title>
<path fill="none" stroke="midnightblue" d="M196.458,-351.837C207.772,-353.444 218.677,-354.993 228.318,-356.362"/>
<polygon fill="midnightblue" stroke="midnightblue" points="196.824,-348.354 186.431,-350.413 195.84,-355.285 196.824,-348.354"/>
</g>
<!-- Node10 -->
<g id="node10" class="node"><title>Node10</title>
<g id="a_node10"><a xlink:href="../../dc/d29/classocra_1_1SubjectBase.html" target="_top" xlink:title="ocra::SubjectBase\&lt;\l EVT_CHANGE_VALUE \&gt;">
<polygon fill="white" stroke="black" points="27,-273.5 27,-303.5 162,-303.5 162,-273.5 27,-273.5"/>
<text text-anchor="start" x="35" y="-291.5" font-family="Helvetica,sans-Serif" font-size="10.00">ocra::SubjectBase&lt;</text>
<text text-anchor="middle" x="94.5" y="-280.5" font-family="Helvetica,sans-Serif" font-size="10.00"> EVT_CHANGE_VALUE &gt;</text>
</a>
</g>
</g>
<!-- Node10&#45;&gt;Node7 -->
<g id="edge9" class="edge"><title>Node10&#45;&gt;Node7</title>
<path fill="none" stroke="midnightblue" d="M172.11,-305.968C177.903,-307.953 183.593,-310.127 189,-312.5 213.04,-323.048 238.043,-340.854 252.391,-351.85"/>
<polygon fill="midnightblue" stroke="midnightblue" points="172.889,-302.542 162.297,-302.803 170.74,-309.204 172.889,-302.542"/>
</g>
<!-- Node11 -->
<g id="node11" class="node"><title>Node11</title>
<g id="a_node11"><a xlink:href="../../dd/d68/classocra_1_1IFunctionProperties.html" target="_top" xlink:title="ocra::IFunctionProperties">
<polygon fill="white" stroke="black" points="362.5,-363 362.5,-382 488.5,-382 488.5,-363 362.5,-363"/>
<text text-anchor="middle" x="425.5" y="-370" font-family="Helvetica,sans-Serif" font-size="10.00">ocra::IFunctionProperties</text>
</a>
</g>
</g>
<!-- Node11&#45;&gt;Node1 -->
<g id="edge10" class="edge"><title>Node11&#45;&gt;Node1</title>
<path fill="none" stroke="midnightblue" d="M486.939,-360.194C494.485,-357.977 502.002,-355.421 509,-352.5 532.145,-342.837 556.404,-326.521 570.725,-316.142"/>
<polygon fill="midnightblue" stroke="midnightblue" points="485.757,-356.89 477.045,-362.918 487.615,-363.638 485.757,-356.89"/>
</g>
<!-- Node12 -->
<g id="node12" class="node"><title>Node12</title>
<polygon fill="white" stroke="#bfbfbf" points="342,-313.5 342,-343.5 509,-343.5 509,-313.5 342,-313.5"/>
<text text-anchor="start" x="350" y="-331.5" font-family="Helvetica,sans-Serif" font-size="10.00">OCRA_FUNCTION_INTERFACE</text>
<text text-anchor="middle" x="425.5" y="-320.5" font-family="Helvetica,sans-Serif" font-size="10.00">_INHERITANCEpublic</text>
</g>
<!-- Node12&#45;&gt;Node1 -->
<g id="edge11" class="edge"><title>Node12&#45;&gt;Node1</title>
<path fill="none" stroke="#8b1a1a" d="M519.262,-315.501C528.157,-314.255 536.799,-313.044 544.71,-311.936"/>
<polygon fill="#8b1a1a" stroke="#8b1a1a" points="518.555,-312.066 509.138,-316.92 519.527,-318.998 518.555,-312.066"/>
</g>
<!-- Node13 -->
<g id="node13" class="node"><title>Node13</title>
<g id="a_node13"><a xlink:href="../../db/de3/classocra_1_1NamedInstance.html" target="_top" xlink:title="ocra::NamedInstance">
<polygon fill="white" stroke="black" points="370.5,-275 370.5,-294 480.5,-294 480.5,-275 370.5,-275"/>
<text text-anchor="middle" x="425.5" y="-282" font-family="Helvetica,sans-Serif" font-size="10.00">ocra::NamedInstance</text>
</a>
</g>
</g>
<!-- Node13&#45;&gt;Node1 -->
<g id="edge12" class="edge"><title>Node13&#45;&gt;Node1</title>
<path fill="none" stroke="midnightblue" d="M490.592,-293.481C508.951,-296.054 528.4,-298.779 544.732,-301.068"/>
<polygon fill="midnightblue" stroke="midnightblue" points="490.919,-289.993 480.53,-292.071 489.948,-296.925 490.919,-289.993"/>
</g>
<!-- Node14 -->
<g id="node14" class="node"><title>Node14</title>
<g id="a_node14"><a xlink:href="../../d8/d24/classocra_1_1AbilitySet.html" target="_top" xlink:title="ocra::AbilitySet">
<polygon fill="white" stroke="black" points="384,-237 384,-256 467,-256 467,-237 384,-237"/>
<text text-anchor="middle" x="425.5" y="-244" font-family="Helvetica,sans-Serif" font-size="10.00">ocra::AbilitySet</text>
</a>
</g>
</g>
<!-- Node14&#45;&gt;Node1 -->
<g id="edge13" class="edge"><title>Node14&#45;&gt;Node1</title>
<path fill="none" stroke="midnightblue" d="M476.782,-255.744C487.579,-258.373 498.803,-261.607 509,-265.5 530.93,-273.873 554.357,-287.661 568.963,-296.908"/>
<polygon fill="midnightblue" stroke="midnightblue" points="477.559,-252.332 467.029,-253.499 475.988,-259.153 477.559,-252.332"/>
</g>
<!-- Node15 -->
<g id="node15" class="node"><title>Node15</title>
<g id="a_node15"><a xlink:href="../../d5/dc0/classocra_1_1CoupledInputOutputSize.html" target="_top" xlink:title="ocra::CoupledInputOutputSize">
<polygon fill="white" stroke="black" points="351.5,-199 351.5,-218 499.5,-218 499.5,-199 351.5,-199"/>
<text text-anchor="middle" x="425.5" y="-206" font-family="Helvetica,sans-Serif" font-size="10.00">ocra::CoupledInputOutputSize</text>
</a>
</g>
</g>
<!-- Node15&#45;&gt;Node1 -->
<g id="edge14" class="edge"><title>Node15&#45;&gt;Node1</title>
<path fill="none" stroke="midnightblue" d="M496.654,-221.541C500.939,-223.284 505.093,-225.26 509,-227.5 539.911,-245.22 565.787,-279.835 577.214,-296.74"/>
<polygon fill="midnightblue" stroke="midnightblue" points="497.702,-218.198 487.107,-218.086 495.319,-224.781 497.702,-218.198"/>
</g>
<!-- Node22 -->
<g id="node22" class="node"><title>Node22</title>
<g id="a_node22"><a xlink:href="../../d4/d45/classocra_1_1ContactAvoidanceFunction.html" target="_top" xlink:title="Create a linear function that represents the joint limit function. ">
<polygon fill="white" stroke="black" points="825.5,-574 825.5,-593 984.5,-593 984.5,-574 825.5,-574"/>
<text text-anchor="middle" x="905" y="-581" font-family="Helvetica,sans-Serif" font-size="10.00">ocra::ContactAvoidanceFunction</text>
</a>
</g>
</g>
<!-- Node21&#45;&gt;Node22 -->
<g id="edge21" class="edge"><title>Node21&#45;&gt;Node22</title>
<path fill="none" stroke="midnightblue" d="M784.267,-321.768C785.591,-322.924 786.841,-324.166 788,-325.5 856.745,-404.581 755.65,-479.077 824,-558.5 829.885,-565.338 837.612,-570.331 845.943,-573.97"/>
<polygon fill="midnightblue" stroke="midnightblue" points="786.188,-318.841 775.971,-316.038 782.21,-324.601 786.188,-318.841"/>
</g>
<!-- Node25 -->
<g id="node25" class="node"><title>Node25</title>
<g id="a_node25"><a xlink:href="../../d3/d89/classocra_1_1DiagonalLinearFunction.html" target="_top" xlink:title="DiagonalLinearFunction class. ">
<polygon fill="white" stroke="black" points="833.5,-530 833.5,-549 976.5,-549 976.5,-530 833.5,-530"/>
<text text-anchor="middle" x="905" y="-537" font-family="Helvetica,sans-Serif" font-size="10.00">ocra::DiagonalLinearFunction</text>
</a>
</g>
</g>
<!-- Node21&#45;&gt;Node25 -->
<g id="edge24" class="edge"><title>Node21&#45;&gt;Node25</title>
<path fill="none" stroke="midnightblue" d="M784.214,-321.815C785.554,-322.958 786.821,-324.184 788,-325.5 846.525,-390.808 763.927,-455.614 824,-519.5 828.021,-523.776 832.806,-527.196 838.007,-529.923"/>
<polygon fill="midnightblue" stroke="midnightblue" points="786.093,-318.86 775.852,-316.143 782.163,-324.653 786.093,-318.86"/>
</g>
<!-- Node28 -->
<g id="node28" class="node"><title>Node28</title>
<g id="a_node28"><a xlink:href="../../d4/d5c/classocra_1_1DoubleDiagonalLinearFunction.html" target="_top" xlink:title="DoubleDiagonalLinearFunction class. ">
<polygon fill="white" stroke="black" points="836.5,-480.5 836.5,-510.5 973.5,-510.5 973.5,-480.5 836.5,-480.5"/>
<text text-anchor="start" x="844.5" y="-498.5" font-family="Helvetica,sans-Serif" font-size="10.00">ocra::DoubleDiagonalLinear</text>
<text text-anchor="middle" x="905" y="-487.5" font-family="Helvetica,sans-Serif" font-size="10.00">Function</text>
</a>
</g>
</g>
<!-- Node21&#45;&gt;Node28 -->
<g id="edge27" class="edge"><title>Node21&#45;&gt;Node28</title>
<path fill="none" stroke="midnightblue" d="M783.535,-321.448C785.116,-322.694 786.612,-324.041 788,-325.5 833.775,-373.601 778.466,-422.171 824,-470.5 827.592,-474.313 831.756,-477.548 836.26,-480.292"/>
<polygon fill="midnightblue" stroke="midnightblue" points="785.327,-318.44 775.008,-316.036 781.575,-324.35 785.327,-318.44"/>
</g>
<!-- Node29 -->
<g id="node29" class="node"><title>Node29</title>
<g id="a_node29"><a xlink:href="../../d9/da6/classocra_1_1DynamicEquationFunction.html" target="_top" xlink:title="DynamicEquationFunction class. ">
<polygon fill="white" stroke="black" points="827,-442 827,-461 983,-461 983,-442 827,-442"/>
<text text-anchor="middle" x="905" y="-449" font-family="Helvetica,sans-Serif" font-size="10.00">ocra::DynamicEquationFunction</text>
</a>
</g>
</g>
<!-- Node21&#45;&gt;Node29 -->
<g id="edge28" class="edge"><title>Node21&#45;&gt;Node29</title>
<path fill="none" stroke="midnightblue" d="M782.743,-321.142C784.602,-322.471 786.364,-323.92 788,-325.5 823.783,-360.069 787.399,-397.798 824,-431.5 828.634,-435.767 834.038,-439.158 839.811,-441.848"/>
<polygon fill="midnightblue" stroke="midnightblue" points="784.459,-318.09 774.063,-316.049 780.917,-324.128 784.459,-318.09"/>
</g>
<!-- Node30 -->
<g id="node30" class="node"><title>Node30</title>
<g id="a_node30"><a xlink:href="../../de/ddd/classocra_1_1FullDynamicEquationFunction.html" target="_top" xlink:title="Create a linear function that represents the dynamic equation of motion. ">
<polygon fill="white" stroke="black" points="838,-392.5 838,-422.5 972,-422.5 972,-392.5 838,-392.5"/>
<text text-anchor="start" x="846" y="-410.5" font-family="Helvetica,sans-Serif" font-size="10.00">ocra::FullDynamicEquation</text>
<text text-anchor="middle" x="905" y="-399.5" font-family="Helvetica,sans-Serif" font-size="10.00">Function</text>
</a>
</g>
</g>
<!-- Node21&#45;&gt;Node30 -->
<g id="edge29" class="edge"><title>Node21&#45;&gt;Node30</title>
<path fill="none" stroke="midnightblue" d="M780.113,-320.407C782.882,-321.933 785.533,-323.624 788,-325.5 811.849,-343.638 800.241,-364.243 824,-382.5 829.077,-386.401 834.772,-389.7 840.722,-392.488"/>
<polygon fill="midnightblue" stroke="midnightblue" points="781.488,-317.186 770.951,-316.079 778.498,-323.515 781.488,-317.186"/>
</g>
<!-- Node31 -->
<g id="node31" class="node"><title>Node31</title>
<g id="a_node31"><a xlink:href="../../df/de0/classocra_1_1JointLimitFunction.html" target="_top" xlink:title="Create a linear function that represents the joint limit function. ">
<polygon fill="white" stroke="black" points="844.5,-354 844.5,-373 965.5,-373 965.5,-354 844.5,-354"/>
<text text-anchor="middle" x="905" y="-361" font-family="Helvetica,sans-Serif" font-size="10.00">ocra::JointLimitFunction</text>
</a>
</g>
</g>
<!-- Node21&#45;&gt;Node31 -->
<g id="edge30" class="edge"><title>Node21&#45;&gt;Node31</title>
<path fill="none" stroke="midnightblue" d="M770.825,-319.184C776.666,-321.132 782.515,-323.25 788,-325.5 804.738,-332.366 807.064,-338.137 824,-344.5 833.889,-348.215 844.745,-351.37 855.183,-353.979"/>
<polygon fill="midnightblue" stroke="midnightblue" points="771.659,-315.776 761.068,-316.074 769.533,-322.446 771.659,-315.776"/>
</g>
<!-- Node34 -->
<g id="node34" class="node"><title>Node34</title>
<g id="a_node34"><a xlink:href="../../d0/dd6/classocra_1_1LinearizedCoulombFunction.html" target="_top" xlink:title="LinearizedCoulombFunction class. ">
<polygon fill="white" stroke="black" points="824,-316 824,-335 986,-335 986,-316 824,-316"/>
<text text-anchor="middle" x="905" y="-323" font-family="Helvetica,sans-Serif" font-size="10.00">ocra::LinearizedCoulombFunction</text>
</a>
</g>
</g>
<!-- Node21&#45;&gt;Node34 -->
<g id="edge33" class="edge"><title>Node21&#45;&gt;Node34</title>
<path fill="none" stroke="midnightblue" d="M786.971,-313.078C798.809,-314.334 811.359,-315.667 823.675,-316.974"/>
<polygon fill="midnightblue" stroke="midnightblue" points="787.088,-309.571 776.774,-311.996 786.349,-316.532 787.088,-309.571"/>
</g>
<!-- Node35 -->
<g id="node35" class="node"><title>Node35</title>
<g id="a_node35"><a xlink:href="../../dd/d16/classocra_1_1LinearTask.html" target="_top" xlink:title="LinearTask class. ">
<polygon fill="white" stroke="black" points="860.5,-278 860.5,-297 949.5,-297 949.5,-278 860.5,-278"/>
<text text-anchor="middle" x="905" y="-285" font-family="Helvetica,sans-Serif" font-size="10.00">ocra::LinearTask</text>
</a>
</g>
</g>
<!-- Node21&#45;&gt;Node35 -->
<g id="edge34" class="edge"><title>Node21&#45;&gt;Node35</title>
<path fill="none" stroke="midnightblue" d="M786.915,-299.928C811.055,-297.366 838.163,-294.488 860.212,-292.148"/>
<polygon fill="midnightblue" stroke="midnightblue" points="786.349,-296.468 776.774,-301.004 787.088,-303.429 786.349,-296.468"/>
</g>
<!-- Node36 -->
<g id="node36" class="node"><title>Node36</title>
<g id="a_node36"><a xlink:href="../../dd/dda/classocra_1_1SecondOrderLinearTask.html" target="_top" xlink:title="SecondOrderLinearTask class. ">
<polygon fill="white" stroke="black" points="832,-240 832,-259 978,-259 978,-240 832,-240"/>
<text text-anchor="middle" x="905" y="-247" font-family="Helvetica,sans-Serif" font-size="10.00">ocra::SecondOrderLinearTask</text>
</a>
</g>
</g>
<!-- Node21&#45;&gt;Node36 -->
<g id="edge35" class="edge"><title>Node21&#45;&gt;Node36</title>
<path fill="none" stroke="midnightblue" d="M770.825,-293.816C776.666,-291.868 782.515,-289.75 788,-287.5 804.738,-280.634 807.064,-274.863 824,-268.5 833.889,-264.785 844.745,-261.63 855.183,-259.021"/>
<polygon fill="midnightblue" stroke="midnightblue" points="769.533,-290.554 761.068,-296.926 771.659,-297.224 769.533,-290.554"/>
</g>
<!-- Node37 -->
<g id="node37" class="node"><title>Node37</title>
<g id="a_node37"><a xlink:href="../../d0/d8f/classocra_1_1SumOfLinearFunctions.html" target="_top" xlink:title="ocra::SumOfLinearFunctions">
<polygon fill="white" stroke="black" points="834.5,-202 834.5,-221 975.5,-221 975.5,-202 834.5,-202"/>
<text text-anchor="middle" x="905" y="-209" font-family="Helvetica,sans-Serif" font-size="10.00">ocra::SumOfLinearFunctions</text>
</a>
</g>
</g>
<!-- Node21&#45;&gt;Node37 -->
<g id="edge36" class="edge"><title>Node21&#45;&gt;Node37</title>
<path fill="none" stroke="midnightblue" d="M780.113,-292.593C782.882,-291.067 785.533,-289.376 788,-287.5 811.849,-269.362 799.62,-247.918 824,-230.5 829.459,-226.6 835.611,-223.491 842.016,-221.015"/>
<polygon fill="midnightblue" stroke="midnightblue" points="778.498,-289.485 770.951,-296.921 781.488,-295.814 778.498,-289.485"/>
</g>
<!-- Node38 -->
<g id="node38" class="node"><title>Node38</title>
<g id="a_node38"><a xlink:href="../../dd/d3d/classocra_1_1TorqueLimitFunction.html" target="_top" xlink:title="Create a linear function that represents the torque limit function. ">
<polygon fill="white" stroke="black" points="840,-164 840,-183 970,-183 970,-164 840,-164"/>
<text text-anchor="middle" x="905" y="-171" font-family="Helvetica,sans-Serif" font-size="10.00">ocra::TorqueLimitFunction</text>
</a>
</g>
</g>
<!-- Node21&#45;&gt;Node38 -->
<g id="edge37" class="edge"><title>Node21&#45;&gt;Node38</title>
<path fill="none" stroke="midnightblue" d="M782.559,-291.865C784.479,-290.534 786.303,-289.083 788,-287.5 821.015,-256.698 790.08,-222.302 824,-192.5 828.719,-188.354 834.178,-185.072 839.985,-182.48"/>
<polygon fill="midnightblue" stroke="midnightblue" points="780.572,-288.969 773.616,-296.961 784.037,-295.051 780.572,-288.969"/>
</g>
<!-- Node39 -->
<g id="node39" class="node"><title>Node39</title>
<g id="a_node39"><a xlink:href="../../d7/d46/classocra_1_1VariableChiFunction.html" target="_top" xlink:title="ocra::VariableChiFunction">
<polygon fill="white" stroke="black" points="840.5,-126 840.5,-145 969.5,-145 969.5,-126 840.5,-126"/>
<text text-anchor="middle" x="905" y="-133" font-family="Helvetica,sans-Serif" font-size="10.00">ocra::VariableChiFunction</text>
</a>
</g>
</g>
<!-- Node21&#45;&gt;Node39 -->
<g id="edge38" class="edge"><title>Node21&#45;&gt;Node39</title>
<path fill="none" stroke="midnightblue" d="M783.495,-291.514C785.088,-290.279 786.597,-288.944 788,-287.5 830.679,-243.584 780.029,-197.122 824,-154.5 828.715,-149.93 834.319,-146.388 840.339,-143.654"/>
<polygon fill="midnightblue" stroke="midnightblue" points="781.54,-288.608 774.927,-296.885 785.258,-294.539 781.54,-288.608"/>
</g>
<!-- Node23 -->
<g id="node23" class="node"><title>Node23</title>
<g id="a_node23"><a xlink:href="../../da/d90/classocra_1_1FullContactAvoidanceFunction.html" target="_top" xlink:title="Create a linear function that represents the contact avoidance function for the full formalism...">
<polygon fill="white" stroke="black" points="1034,-617.5 1034,-647.5 1171,-647.5 1171,-617.5 1034,-617.5"/>
<text text-anchor="start" x="1042" y="-635.5" font-family="Helvetica,sans-Serif" font-size="10.00">ocra::FullContactAvoidance</text>
<text text-anchor="middle" x="1102.5" y="-624.5" font-family="Helvetica,sans-Serif" font-size="10.00">Function</text>
</a>
</g>
</g>
<!-- Node22&#45;&gt;Node23 -->
<g id="edge22" class="edge"><title>Node22&#45;&gt;Node23</title>
<path fill="none" stroke="midnightblue" d="M953.934,-595.514C980.35,-602.135 1013.39,-610.416 1041.51,-617.463"/>
<polygon fill="midnightblue" stroke="midnightblue" points="954.709,-592.1 944.158,-593.064 953.007,-598.89 954.709,-592.1"/>
</g>
<!-- Node24 -->
<g id="node24" class="node"><title>Node24</title>
<g id="a_node24"><a xlink:href="../../db/d40/classocra_1_1ReducedContactAvoidanceFunction.html" target="_top" xlink:title="Create a linear function that represents the contact avoidance function for the reduced formalism...">
<polygon fill="white" stroke="black" points="1022,-568.5 1022,-598.5 1183,-598.5 1183,-568.5 1022,-568.5"/>
<text text-anchor="start" x="1030" y="-586.5" font-family="Helvetica,sans-Serif" font-size="10.00">ocra::ReducedContactAvoidance</text>
<text text-anchor="middle" x="1102.5" y="-575.5" font-family="Helvetica,sans-Serif" font-size="10.00">Function</text>
</a>
</g>
</g>
<!-- Node22&#45;&gt;Node24 -->
<g id="edge23" class="edge"><title>Node22&#45;&gt;Node24</title>
<path fill="none" stroke="midnightblue" d="M994.758,-583.5C1003.74,-583.5 1012.83,-583.5 1021.71,-583.5"/>
<polygon fill="midnightblue" stroke="midnightblue" points="994.672,-580 984.672,-583.5 994.672,-587 994.672,-580"/>
</g>
<!-- Node26 -->
<g id="node26" class="node"><title>Node26</title>
<g id="a_node26"><a xlink:href="../../dd/d77/classocra_1_1BoundFunction.html" target="_top" xlink:title="BoundFunction class. ">
<polygon fill="white" stroke="black" points="1049,-530 1049,-549 1156,-549 1156,-530 1049,-530"/>
<text text-anchor="middle" x="1102.5" y="-537" font-family="Helvetica,sans-Serif" font-size="10.00">ocra::BoundFunction</text>
</a>
</g>
</g>
<!-- Node25&#45;&gt;Node26 -->
<g id="edge25" class="edge"><title>Node25&#45;&gt;Node26</title>
<path fill="none" stroke="midnightblue" d="M986.76,-539.5C1007.71,-539.5 1029.73,-539.5 1048.82,-539.5"/>
<polygon fill="midnightblue" stroke="midnightblue" points="986.58,-536 976.58,-539.5 986.58,-543 986.58,-536"/>
</g>
<!-- Node27 -->
<g id="node27" class="node"><title>Node27</title>
<g id="a_node27"><a xlink:href="../../d4/d58/classocra_1_1IdentityFunction.html" target="_top" xlink:title="IdentityFunction class. ">
<polygon fill="white" stroke="black" points="1047,-492 1047,-511 1158,-511 1158,-492 1047,-492"/>
<text text-anchor="middle" x="1102.5" y="-499" font-family="Helvetica,sans-Serif" font-size="10.00">ocra::IdentityFunction</text>
</a>
</g>
</g>
<!-- Node25&#45;&gt;Node27 -->
<g id="edge26" class="edge"><title>Node25&#45;&gt;Node27</title>
<path fill="none" stroke="midnightblue" d="M965.11,-528.011C993.004,-522.589 1025.9,-516.194 1052.4,-511.044"/>
<polygon fill="midnightblue" stroke="midnightblue" points="964.229,-524.616 955.081,-529.96 965.565,-531.488 964.229,-524.616"/>
</g>
<!-- Node32 -->
<g id="node32" class="node"><title>Node32</title>
<g id="a_node32"><a xlink:href="../../df/d42/classocra_1_1FullJointLimitFunction.html" target="_top" xlink:title="Create a linear function that represents the joint limit function for the full formalism. ">
<polygon fill="white" stroke="black" points="1034,-373 1034,-392 1171,-392 1171,-373 1034,-373"/>
<text text-anchor="middle" x="1102.5" y="-380" font-family="Helvetica,sans-Serif" font-size="10.00">ocra::FullJointLimitFunction</text>
</a>
</g>
</g>
<!-- Node31&#45;&gt;Node32 -->
<g id="edge31" class="edge"><title>Node31&#45;&gt;Node32</title>
<path fill="none" stroke="midnightblue" d="M975.757,-370.279C994.685,-372.119 1015.14,-374.107 1033.95,-375.935"/>
<polygon fill="midnightblue" stroke="midnightblue" points="976.01,-366.788 965.719,-369.304 975.333,-373.755 976.01,-366.788"/>
</g>
<!-- Node33 -->
<g id="node33" class="node"><title>Node33</title>
<g id="a_node33"><a xlink:href="../../dc/daa/classocra_1_1ReducedJointLimitFunction.html" target="_top" xlink:title="Create a linear function that represents the joint limit function for the reduced formalism...">
<polygon fill="white" stroke="black" points="1022.5,-335 1022.5,-354 1182.5,-354 1182.5,-335 1022.5,-335"/>
<text text-anchor="middle" x="1102.5" y="-342" font-family="Helvetica,sans-Serif" font-size="10.00">ocra::ReducedJointLimitFunction</text>
</a>
</g>
</g>
<!-- Node31&#45;&gt;Node33 -->
<g id="edge32" class="edge"><title>Node31&#45;&gt;Node33</title>
<path fill="none" stroke="midnightblue" d="M975.954,-356.701C990.987,-355.24 1006.98,-353.686 1022.33,-352.194"/>
<polygon fill="midnightblue" stroke="midnightblue" points="975.333,-353.245 965.719,-357.696 976.01,-360.212 975.333,-353.245"/>
</g>
<!-- Node44 -->
<g id="node44" class="node"><title>Node44</title>
<g id="a_node44"><a xlink:href="../../d3/d16/classocra_1_1FcQuadraticFunction.html" target="_top" xlink:title="ocra::FcQuadraticFunction">
<polygon fill="white" stroke="black" points="839,-88 839,-107 971,-107 971,-88 839,-88"/>
<text text-anchor="middle" x="905" y="-95" font-family="Helvetica,sans-Serif" font-size="10.00">ocra::FcQuadraticFunction</text>
</a>
</g>
</g>
<!-- Node43&#45;&gt;Node44 -->
<g id="edge43" class="edge"><title>Node43&#45;&gt;Node44</title>
<path fill="none" stroke="midnightblue" d="M794.966,-97.5C809.401,-97.5 824.548,-97.5 838.805,-97.5"/>
<polygon fill="midnightblue" stroke="midnightblue" points="794.604,-94.0001 784.604,-97.5 794.604,-101 794.604,-94.0001"/>
</g>
<!-- Node45 -->
<g id="node45" class="node"><title>Node45</title>
<g id="a_node45"><a xlink:href="../../df/dfc/classocra_1_1SquaredLinearFunction.html" target="_top" xlink:title="SquaredLinearFunction class. ">
<polygon fill="white" stroke="black" points="834.5,-50 834.5,-69 975.5,-69 975.5,-50 834.5,-50"/>
<text text-anchor="middle" x="905" y="-57" font-family="Helvetica,sans-Serif" font-size="10.00">ocra::SquaredLinearFunction</text>
</a>
</g>
</g>
<!-- Node43&#45;&gt;Node45 -->
<g id="edge44" class="edge"><title>Node43&#45;&gt;Node45</title>
<path fill="none" stroke="midnightblue" d="M780.024,-85.819C805.408,-80.4301 835.161,-74.1139 859.156,-69.0201"/>
<polygon fill="midnightblue" stroke="midnightblue" points="779.224,-82.4106 770.169,-87.911 780.678,-89.258 779.224,-82.4106"/>
</g>
<!-- Node46 -->
<g id="node46" class="node"><title>Node46</title>
<g id="a_node46"><a xlink:href="../../d2/d31/classocra_1_1WeightedSquareDistanceFunction.html" target="_top" xlink:title="WeightedSquareDistanceFunction class. ">
<polygon fill="white" stroke="black" points="829,-0.5 829,-30.5 981,-30.5 981,-0.5 829,-0.5"/>
<text text-anchor="start" x="837" y="-18.5" font-family="Helvetica,sans-Serif" font-size="10.00">ocra::WeightedSquareDistance</text>
<text text-anchor="middle" x="905" y="-7.5" font-family="Helvetica,sans-Serif" font-size="10.00">Function</text>
</a>
</g>
</g>
<!-- Node43&#45;&gt;Node46 -->
<g id="edge45" class="edge"><title>Node43&#45;&gt;Node46</title>
<path fill="none" stroke="midnightblue" d="M777.181,-84.1612C780.947,-82.4792 784.597,-80.599 788,-78.5 807.801,-66.2871 804.26,-52.8114 824,-40.5 830.173,-36.6498 836.987,-33.3499 843.955,-30.5322"/>
<polygon fill="midnightblue" stroke="midnightblue" points="775.656,-81.0007 767.655,-87.9457 778.241,-87.5061 775.656,-81.0007"/>
</g>
</g>
</svg>
