<?xml version="1.0" encoding="UTF-8" standalone="no"?>
<!DOCTYPE svg PUBLIC "-//W3C//DTD SVG 1.1//EN"
 "http://www.w3.org/Graphics/SVG/1.1/DTD/svg11.dtd">
<!-- Generated by graphviz version 2.38.0 (20140413.2041)
 -->
<!-- Title: Constraint.h Pages: 1 -->
<svg width="1540pt" height="520pt"
 viewBox="0.00 0.00 1540.00 520.00" xmlns="http://www.w3.org/2000/svg" xmlns:xlink="http://www.w3.org/1999/xlink">
<g id="graph0" class="graph" transform="scale(1 1) rotate(0) translate(4 516)">
<title>Constraint.h</title>
<polygon fill="white" stroke="none" points="-4,4 -4,-516 1536,-516 1536,4 -4,4"/>
<!-- Node1 -->
<g id="node1" class="node"><title>Node1</title>
<polygon fill="#bfbfbf" stroke="black" points="776,-492.5 776,-511.5 846,-511.5 846,-492.5 776,-492.5"/>
<text text-anchor="middle" x="811" y="-499.5" font-family="Helvetica,sans-Serif" font-size="10.00">Constraint.h</text>
</g>
<!-- Node2 -->
<g id="node2" class="node"><title>Node2</title>
<g id="a_node2"><a xlink:href="../../d7/d90/Variable_8h.html" target="_top" xlink:title="Declaration file of the Variable class. ">
<polygon fill="white" stroke="black" points="525.5,-196 525.5,-215 634.5,-215 634.5,-196 525.5,-196"/>
<text text-anchor="middle" x="580" y="-203" font-family="Helvetica,sans-Serif" font-size="10.00">ocra/optim/Variable.h</text>
</a>
</g>
</g>
<!-- Node1&#45;&gt;Node2 -->
<g id="edge1" class="edge"><title>Node1&#45;&gt;Node2</title>
<path fill="none" stroke="midnightblue" d="M775.916,-499.181C711.295,-493.74 580,-472.037 580,-385.5 580,-385.5 580,-385.5 580,-322 580,-287.864 580,-248.052 580,-225.209"/>
<polygon fill="midnightblue" stroke="midnightblue" points="583.5,-225.193 580,-215.193 576.5,-225.193 583.5,-225.193"/>
</g>
<!-- Node9 -->
<g id="node9" class="node"><title>Node9</title>
<polygon fill="white" stroke="#bfbfbf" points="455,-0.5 455,-30.5 555,-30.5 555,-0.5 455,-0.5"/>
<text text-anchor="start" x="463" y="-18.5" font-family="Helvetica,sans-Serif" font-size="10.00">boost/type_traits/is</text>
<text text-anchor="middle" x="505" y="-7.5" font-family="Helvetica,sans-Serif" font-size="10.00">_base_of.hpp</text>
</g>
<!-- Node1&#45;&gt;Node9 -->
<g id="edge57" class="edge"><title>Node1&#45;&gt;Node9</title>
<path fill="none" stroke="midnightblue" d="M775.777,-499.508C624.556,-492.645 38,-461.148 38,-385.5 38,-385.5 38,-385.5 38,-143 38,-108.183 30.802,-89.9327 57,-67 60.6213,-63.83 323.34,-35.6993 444.724,-22.8509"/>
<polygon fill="midnightblue" stroke="midnightblue" points="445.392,-26.2999 454.968,-21.7674 444.655,-19.3388 445.392,-26.2999"/>
</g>
<!-- Node10 -->
<g id="node10" class="node"><title>Node10</title>
<polygon fill="white" stroke="#bfbfbf" points="234.5,-6 234.5,-25 353.5,-25 353.5,-6 234.5,-6"/>
<text text-anchor="middle" x="294" y="-13" font-family="Helvetica,sans-Serif" font-size="10.00">boost/static_assert.hpp</text>
</g>
<!-- Node1&#45;&gt;Node10 -->
<g id="edge56" class="edge"><title>Node1&#45;&gt;Node10</title>
<path fill="none" stroke="midnightblue" d="M775.858,-500.366C656.52,-497.941 267.534,-487.733 147,-456 76.9292,-437.553 0,-457.958 0,-385.5 0,-385.5 0,-385.5 0,-143 0,-105.812 5.75702,-89.9731 35,-67 63.8262,-44.3543 157.828,-30.2868 224.252,-22.9222"/>
<polygon fill="midnightblue" stroke="midnightblue" points="224.686,-26.3958 234.252,-21.8407 223.933,-19.4364 224.686,-26.3958"/>
</g>
<!-- Node24 -->
<g id="node24" class="node"><title>Node24</title>
<g id="a_node24"><a xlink:href="../../df/df5/Function_8h.html" target="_top" xlink:title="Declaration file of the Function class. ">
<polygon fill="white" stroke="black" points="799.5,-257.5 799.5,-276.5 910.5,-276.5 910.5,-257.5 799.5,-257.5"/>
<text text-anchor="middle" x="855" y="-264.5" font-family="Helvetica,sans-Serif" font-size="10.00">ocra/optim/Function.h</text>
</a>
</g>
</g>
<!-- Node1&#45;&gt;Node24 -->
<g id="edge32" class="edge"><title>Node1&#45;&gt;Node24</title>
<path fill="none" stroke="midnightblue" d="M802.786,-492.182C795.456,-483.663 785.245,-470.019 781,-456 778.424,-447.493 779.169,-444.698 781,-436 793.267,-377.719 827.057,-315.003 844.411,-285.384"/>
<polygon fill="midnightblue" stroke="midnightblue" points="847.496,-287.044 849.611,-276.662 841.484,-283.459 847.496,-287.044"/>
</g>
<!-- Node34 -->
<g id="node34" class="node"><title>Node34</title>
<g id="a_node34"><a xlink:href="../../df/d55/FunctionInterfaceMapping_8h.html" target="_top" xlink:title="Declaration file of the FunctionInterfaceMapping struct. ">
<polygon fill="white" stroke="black" points="608.5,-369.5 608.5,-399.5 749.5,-399.5 749.5,-369.5 608.5,-369.5"/>
<text text-anchor="start" x="616.5" y="-387.5" font-family="Helvetica,sans-Serif" font-size="10.00">ocra/optim/FunctionInterface</text>
<text text-anchor="middle" x="679" y="-376.5" font-family="Helvetica,sans-Serif" font-size="10.00">Mapping.h</text>
</a>
</g>
</g>
<!-- Node1&#45;&gt;Node34 -->
<g id="edge52" class="edge"><title>Node1&#45;&gt;Node34</title>
<path fill="none" stroke="midnightblue" d="M797.463,-492.338C784.348,-483.718 764.13,-469.814 748,-456 730.22,-440.773 711.756,-421.708 698.407,-407.244"/>
<polygon fill="midnightblue" stroke="midnightblue" points="700.88,-404.762 691.554,-399.736 695.71,-409.481 700.88,-404.762"/>
</g>
<!-- Node35 -->
<g id="node35" class="node"><title>Node35</title>
<g id="a_node35"><a xlink:href="../../df/d0a/Macros_8h.html" target="_top" xlink:title="ocra/util/Macros.h">
<polygon fill="white" stroke="black" points="1148.5,-257.5 1148.5,-276.5 1243.5,-276.5 1243.5,-257.5 1148.5,-257.5"/>
<text text-anchor="middle" x="1196" y="-264.5" font-family="Helvetica,sans-Serif" font-size="10.00">ocra/util/Macros.h</text>
</a>
</g>
</g>
<!-- Node1&#45;&gt;Node35 -->
<g id="edge54" class="edge"><title>Node1&#45;&gt;Node35</title>
<path fill="none" stroke="midnightblue" d="M846.163,-501.394C924.989,-501.519 1112.42,-497.347 1157,-456 1204.84,-411.628 1202.32,-325.193 1198.49,-286.965"/>
<polygon fill="midnightblue" stroke="midnightblue" points="1201.93,-286.282 1197.31,-276.749 1194.98,-287.084 1201.93,-286.282"/>
</g>
<!-- Node37 -->
<g id="node37" class="node"><title>Node37</title>
<g id="a_node37"><a xlink:href="../../dc/d8a/LinearFunction_8h.html" target="_top" xlink:title="Declaration file of the LinearFunction class. ">
<polygon fill="white" stroke="black" points="985.5,-313.5 985.5,-332.5 1122.5,-332.5 1122.5,-313.5 985.5,-313.5"/>
<text text-anchor="middle" x="1054" y="-320.5" font-family="Helvetica,sans-Serif" font-size="10.00">ocra/optim/LinearFunction.h</text>
</a>
</g>
</g>
<!-- Node1&#45;&gt;Node37 -->
<g id="edge58" class="edge"><title>Node1&#45;&gt;Node37</title>
<path fill="none" stroke="midnightblue" d="M846.264,-501.688C922.831,-502.348 1100.44,-499.087 1138,-456 1171.73,-417.306 1109.88,-363.805 1075.19,-338.446"/>
<polygon fill="midnightblue" stroke="midnightblue" points="1077.21,-335.584 1067.03,-332.632 1073.14,-341.285 1077.21,-335.584"/>
</g>
<!-- Node38 -->
<g id="node38" class="node"><title>Node38</title>
<g id="a_node38"><a xlink:href="../../de/d69/BoundFunction_8h.html" target="_top" xlink:title="Declaration file of the BoundFunction class. ">
<polygon fill="white" stroke="black" points="790.5,-436.5 790.5,-455.5 929.5,-455.5 929.5,-436.5 790.5,-436.5"/>
<text text-anchor="middle" x="860" y="-443.5" font-family="Helvetica,sans-Serif" font-size="10.00">ocra/optim/BoundFunction.h</text>
</a>
</g>
</g>
<!-- Node1&#45;&gt;Node38 -->
<g id="edge61" class="edge"><title>Node1&#45;&gt;Node38</title>
<path fill="none" stroke="midnightblue" d="M819.091,-492.083C826.155,-484.298 836.588,-472.801 845.149,-463.367"/>
<polygon fill="midnightblue" stroke="midnightblue" points="847.931,-465.509 852.059,-455.751 842.747,-460.805 847.931,-465.509"/>
</g>
<!-- Node39 -->
<g id="node39" class="node"><title>Node39</title>
<g id="a_node39"><a xlink:href="../../dc/d6f/DiagonalLinearFunction_8h.html" target="_top" xlink:title="Declaration file of the DiagonalLinearFunction class. ">
<polygon fill="white" stroke="black" points="943,-369.5 943,-399.5 1073,-399.5 1073,-369.5 943,-369.5"/>
<text text-anchor="start" x="951" y="-387.5" font-family="Helvetica,sans-Serif" font-size="10.00">ocra/optim/DiagonalLinear</text>
<text text-anchor="middle" x="1008" y="-376.5" font-family="Helvetica,sans-Serif" font-size="10.00">Function.h</text>
</a>
</g>
</g>
<!-- Node1&#45;&gt;Node39 -->
<g id="edge66" class="edge"><title>Node1&#45;&gt;Node39</title>
<path fill="none" stroke="midnightblue" d="M846.04,-493.122C872.665,-486.096 909.447,-474.09 938,-456 958.53,-442.993 977.667,-422.946 990.725,-407.549"/>
<polygon fill="midnightblue" stroke="midnightblue" points="993.661,-409.49 997.324,-399.548 988.261,-405.036 993.661,-409.49"/>
</g>
<!-- Node40 -->
<g id="node40" class="node"><title>Node40</title>
<g id="a_node40"><a xlink:href="../../de/d7a/IdentityFunction_8h.html" target="_top" xlink:title="Declaration file of the IdentityFunction class. ">
<polygon fill="white" stroke="black" points="986.5,-436.5 986.5,-455.5 1129.5,-455.5 1129.5,-436.5 986.5,-436.5"/>
<text text-anchor="middle" x="1058" y="-443.5" font-family="Helvetica,sans-Serif" font-size="10.00">ocra/optim/IdentityFunction.h</text>
</a>
</g>
</g>
<!-- Node1&#45;&gt;Node40 -->
<g id="edge64" class="edge"><title>Node1&#45;&gt;Node40</title>
<path fill="none" stroke="midnightblue" d="M846.127,-493.32C888.777,-483.996 960.955,-468.216 1009.04,-457.703"/>
<polygon fill="midnightblue" stroke="midnightblue" points="1009.9,-461.099 1018.92,-455.544 1008.4,-454.261 1009.9,-461.099"/>
</g>
<!-- Node3 -->
<g id="node3" class="node"><title>Node3</title>
<g id="a_node3"><a xlink:href="../../d8/ddc/ObserverSubject_8h.html" target="_top" xlink:title="Declaration file of the Observer, Subject and ObserverSubject classes. ">
<polygon fill="white" stroke="black" points="633,-134.5 633,-153.5 779,-153.5 779,-134.5 633,-134.5"/>
<text text-anchor="middle" x="706" y="-141.5" font-family="Helvetica,sans-Serif" font-size="10.00">ocra/optim/ObserverSubject.h</text>
</a>
</g>
</g>
<!-- Node2&#45;&gt;Node3 -->
<g id="edge2" class="edge"><title>Node2&#45;&gt;Node3</title>
<path fill="none" stroke="midnightblue" d="M598.053,-195.975C619.198,-185.99 654.44,-169.348 678.878,-157.807"/>
<polygon fill="midnightblue" stroke="midnightblue" points="680.433,-160.944 687.981,-153.509 677.444,-154.614 680.433,-160.944"/>
</g>
<!-- Node14 -->
<g id="node14" class="node"><title>Node14</title>
<g id="a_node14"><a xlink:href="../../d1/de6/Composite_8h.html" target="_top" xlink:title="Utility classes and functions to implement the Composite design pattern. ">
<polygon fill="white" stroke="black" points="406.5,-134.5 406.5,-153.5 527.5,-153.5 527.5,-134.5 406.5,-134.5"/>
<text text-anchor="middle" x="467" y="-141.5" font-family="Helvetica,sans-Serif" font-size="10.00">ocra/optim/Composite.h</text>
</a>
</g>
</g>
<!-- Node2&#45;&gt;Node14 -->
<g id="edge16" class="edge"><title>Node2&#45;&gt;Node14</title>
<path fill="none" stroke="midnightblue" d="M563.81,-195.975C545.098,-186.122 514.077,-169.788 492.201,-158.27"/>
<polygon fill="midnightblue" stroke="midnightblue" points="493.639,-155.071 483.16,-153.509 490.378,-161.265 493.639,-155.071"/>
</g>
<!-- Node17 -->
<g id="node17" class="node"><title>Node17</title>
<polygon fill="white" stroke="#bfbfbf" points="66.5,-73 66.5,-92 183.5,-92 183.5,-73 66.5,-73"/>
<text text-anchor="middle" x="125" y="-80" font-family="Helvetica,sans-Serif" font-size="10.00">boost/noncopyable.hpp</text>
</g>
<!-- Node2&#45;&gt;Node17 -->
<g id="edge29" class="edge"><title>Node2&#45;&gt;Node17</title>
<path fill="none" stroke="midnightblue" d="M548.005,-195.992C467.661,-174.625 257.403,-118.711 167.149,-94.7089"/>
<polygon fill="midnightblue" stroke="midnightblue" points="167.827,-91.2675 157.263,-92.0799 166.028,-98.0324 167.827,-91.2675"/>
</g>
<!-- Node19 -->
<g id="node19" class="node"><title>Node19</title>
<polygon fill="white" stroke="#bfbfbf" points="1139,-73 1139,-92 1183,-92 1183,-73 1139,-73"/>
<text text-anchor="middle" x="1161" y="-80" font-family="Helvetica,sans-Serif" font-size="10.00">vector</text>
</g>
<!-- Node2&#45;&gt;Node19 -->
<g id="edge31" class="edge"><title>Node2&#45;&gt;Node19</title>
<path fill="none" stroke="midnightblue" d="M629.78,-195.994C672.576,-187.842 735.511,-173.837 788,-154 805.853,-147.253 807.789,-139.709 826,-134 950.352,-95.0175 989.842,-126.53 1117,-98 1120.95,-97.1141 1125.04,-96.0163 1129.08,-94.8242"/>
<polygon fill="midnightblue" stroke="midnightblue" points="1130.37,-98.0854 1138.85,-91.7335 1128.26,-91.4111 1130.37,-98.0854"/>
</g>
<!-- Node22 -->
<g id="node22" class="node"><title>Node22</title>
<polygon fill="white" stroke="#bfbfbf" points="545.5,-134.5 545.5,-153.5 614.5,-153.5 614.5,-134.5 545.5,-134.5"/>
<text text-anchor="middle" x="580" y="-141.5" font-family="Helvetica,sans-Serif" font-size="10.00">Eigen/Eigen</text>
</g>
<!-- Node2&#45;&gt;Node22 -->
<g id="edge28" class="edge"><title>Node2&#45;&gt;Node22</title>
<path fill="none" stroke="midnightblue" d="M580,-195.975C580,-187.58 580,-174.481 580,-163.663"/>
<polygon fill="midnightblue" stroke="midnightblue" points="583.5,-163.509 580,-153.509 576.5,-163.509 583.5,-163.509"/>
</g>
<!-- Node23 -->
<g id="node23" class="node"><title>Node23</title>
<polygon fill="white" stroke="#bfbfbf" points="835.5,-134.5 835.5,-153.5 876.5,-153.5 876.5,-134.5 835.5,-134.5"/>
<text text-anchor="middle" x="856" y="-141.5" font-family="Helvetica,sans-Serif" font-size="10.00">string</text>
</g>
<!-- Node2&#45;&gt;Node23 -->
<g id="edge30" class="edge"><title>Node2&#45;&gt;Node23</title>
<path fill="none" stroke="midnightblue" d="M623.668,-195.966C672.048,-186.368 752.308,-170.02 821,-154 822.451,-153.662 823.934,-153.308 825.431,-152.946"/>
<polygon fill="midnightblue" stroke="midnightblue" points="826.453,-156.299 835.31,-150.485 824.76,-149.506 826.453,-156.299"/>
</g>
<!-- Node4 -->
<g id="node4" class="node"><title>Node4</title>
<g id="a_node4"><a xlink:href="../../df/d67/ObserverSubjectBase_8h.html" target="_top" xlink:title="Declaration file of the Observer and Subject base classes. ">
<polygon fill="white" stroke="black" points="945,-67.5 945,-97.5 1083,-97.5 1083,-67.5 945,-67.5"/>
<text text-anchor="start" x="953" y="-85.5" font-family="Helvetica,sans-Serif" font-size="10.00">ocra/optim/ObserverSubject</text>
<text text-anchor="middle" x="1014" y="-74.5" font-family="Helvetica,sans-Serif" font-size="10.00">Base.h</text>
</a>
</g>
</g>
<!-- Node3&#45;&gt;Node4 -->
<g id="edge3" class="edge"><title>Node3&#45;&gt;Node4</title>
<path fill="none" stroke="midnightblue" d="M750.129,-134.475C798.245,-125.18 876.218,-110.117 934.954,-98.7703"/>
<polygon fill="midnightblue" stroke="midnightblue" points="935.79,-102.174 944.945,-96.8402 934.462,-95.3006 935.79,-102.174"/>
</g>
<!-- Node8 -->
<g id="node8" class="node"><title>Node8</title>
<polygon fill="white" stroke="#bfbfbf" points="1071,-0.5 1071,-30.5 1171,-30.5 1171,-0.5 1071,-0.5"/>
<text text-anchor="start" x="1079" y="-18.5" font-family="Helvetica,sans-Serif" font-size="10.00">boost/type_traits/is</text>
<text text-anchor="middle" x="1121" y="-7.5" font-family="Helvetica,sans-Serif" font-size="10.00">_class.hpp</text>
</g>
<!-- Node3&#45;&gt;Node8 -->
<g id="edge15" class="edge"><title>Node3&#45;&gt;Node8</title>
<path fill="none" stroke="midnightblue" d="M779.252,-134.947C890.346,-122.667 1088.96,-100.42 1092,-98 1109.28,-84.2356 1116.28,-59.3737 1119.1,-40.7162"/>
<polygon fill="midnightblue" stroke="midnightblue" points="1122.6,-40.9268 1120.33,-30.5786 1115.66,-40.0856 1122.6,-40.9268"/>
</g>
<!-- Node3&#45;&gt;Node9 -->
<g id="edge13" class="edge"><title>Node3&#45;&gt;Node9</title>
<path fill="none" stroke="midnightblue" d="M761.914,-134.458C783.472,-128.136 806.022,-117.137 819,-98 826.733,-86.597 827.935,-77.4874 819,-67 814.895,-62.1817 655.462,-38.3411 565.402,-25.2119"/>
<polygon fill="midnightblue" stroke="midnightblue" points="565.711,-21.7201 555.311,-23.7434 564.703,-28.6471 565.711,-21.7201"/>
</g>
<!-- Node3&#45;&gt;Node10 -->
<g id="edge12" class="edge"><title>Node3&#45;&gt;Node10</title>
<path fill="none" stroke="midnightblue" d="M700.771,-134.144C690.597,-117.802 666.445,-83.1037 636,-67 612.445,-54.5406 456.984,-35.0649 363.965,-24.3036"/>
<polygon fill="midnightblue" stroke="midnightblue" points="364.112,-20.7975 353.777,-23.1309 363.311,-27.7516 364.112,-20.7975"/>
</g>
<!-- Node12 -->
<g id="node12" class="node"><title>Node12</title>
<g id="a_node12"><a xlink:href="../../db/ddf/ocra__events_8h.html" target="_top" xlink:title="ocra/optim/ocra_events.h">
<polygon fill="white" stroke="black" points="683.5,-73 683.5,-92 810.5,-92 810.5,-73 683.5,-73"/>
<text text-anchor="middle" x="747" y="-80" font-family="Helvetica,sans-Serif" font-size="10.00">ocra/optim/ocra_events.h</text>
</a>
</g>
</g>
<!-- Node3&#45;&gt;Node12 -->
<g id="edge11" class="edge"><title>Node3&#45;&gt;Node12</title>
<path fill="none" stroke="midnightblue" d="M711.874,-134.475C717.963,-125.638 727.645,-111.589 735.303,-100.475"/>
<polygon fill="midnightblue" stroke="midnightblue" points="738.344,-102.229 741.137,-92.0091 732.58,-98.2575 738.344,-102.229"/>
</g>
<!-- Node13 -->
<g id="node13" class="node"><title>Node13</title>
<polygon fill="white" stroke="#bfbfbf" points="527,-67.5 527,-97.5 627,-97.5 627,-67.5 527,-67.5"/>
<text text-anchor="start" x="535" y="-85.5" font-family="Helvetica,sans-Serif" font-size="10.00">boost/type_traits/is</text>
<text text-anchor="middle" x="577" y="-74.5" font-family="Helvetica,sans-Serif" font-size="10.00">_convertible.hpp</text>
</g>
<!-- Node3&#45;&gt;Node13 -->
<g id="edge14" class="edge"><title>Node3&#45;&gt;Node13</title>
<path fill="none" stroke="midnightblue" d="M687.517,-134.475C669.066,-125.965 640.133,-112.619 616.498,-101.718"/>
<polygon fill="midnightblue" stroke="midnightblue" points="617.949,-98.5332 607.403,-97.523 615.017,-104.89 617.949,-98.5332"/>
</g>
<!-- Node5 -->
<g id="node5" class="node"><title>Node5</title>
<polygon fill="white" stroke="#bfbfbf" points="897.5,-6 897.5,-25 956.5,-25 956.5,-6 897.5,-6"/>
<text text-anchor="middle" x="927" y="-13" font-family="Helvetica,sans-Serif" font-size="10.00">functional</text>
</g>
<!-- Node4&#45;&gt;Node5 -->
<g id="edge4" class="edge"><title>Node4&#45;&gt;Node5</title>
<path fill="none" stroke="midnightblue" d="M995.122,-67.396C980.886,-56.7593 961.402,-42.2028 946.918,-31.3813"/>
<polygon fill="midnightblue" stroke="midnightblue" points="948.743,-28.376 938.637,-25.1945 944.554,-33.9837 948.743,-28.376"/>
</g>
<!-- Node6 -->
<g id="node6" class="node"><title>Node6</title>
<polygon fill="white" stroke="#bfbfbf" points="617,-6 617,-25 673,-25 673,-6 617,-6"/>
<text text-anchor="middle" x="645" y="-13" font-family="Helvetica,sans-Serif" font-size="10.00">algorithm</text>
</g>
<!-- Node4&#45;&gt;Node6 -->
<g id="edge5" class="edge"><title>Node4&#45;&gt;Node6</title>
<path fill="none" stroke="midnightblue" d="M944.644,-68.7332C941.385,-68.1448 938.157,-67.5646 935,-67 844.732,-50.8567 738.531,-32.5336 683.081,-23.0175"/>
<polygon fill="midnightblue" stroke="midnightblue" points="683.458,-19.5311 673.01,-21.2903 682.274,-26.4304 683.458,-19.5311"/>
</g>
<!-- Node7 -->
<g id="node7" class="node"><title>Node7</title>
<polygon fill="white" stroke="#bfbfbf" points="975,-6 975,-25 1053,-25 1053,-6 975,-6"/>
<text text-anchor="middle" x="1014" y="-13" font-family="Helvetica,sans-Serif" font-size="10.00">boost/any.hpp</text>
</g>
<!-- Node4&#45;&gt;Node7 -->
<g id="edge6" class="edge"><title>Node4&#45;&gt;Node7</title>
<path fill="none" stroke="midnightblue" d="M1014,-67.396C1014,-58.0638 1014,-45.7143 1014,-35.5173"/>
<polygon fill="midnightblue" stroke="midnightblue" points="1017.5,-35.1945 1014,-25.1945 1010.5,-35.1946 1017.5,-35.1945"/>
</g>
<!-- Node4&#45;&gt;Node8 -->
<g id="edge7" class="edge"><title>Node4&#45;&gt;Node8</title>
<path fill="none" stroke="midnightblue" d="M1037.22,-67.396C1052.36,-58.1968 1072.33,-46.0658 1088.97,-35.9546"/>
<polygon fill="midnightblue" stroke="midnightblue" points="1091.1,-38.7597 1097.83,-30.5765 1087.46,-32.7771 1091.1,-38.7597"/>
</g>
<!-- Node4&#45;&gt;Node9 -->
<g id="edge8" class="edge"><title>Node4&#45;&gt;Node9</title>
<path fill="none" stroke="midnightblue" d="M944.685,-68.4864C941.414,-67.964 938.173,-67.4653 935,-67 790.335,-45.7886 753.075,-49.1932 608,-31 594.158,-29.2642 579.291,-27.2556 565.278,-25.297"/>
<polygon fill="midnightblue" stroke="midnightblue" points="565.643,-21.8139 555.252,-23.8842 564.666,-28.7454 565.643,-21.8139"/>
</g>
<!-- Node4&#45;&gt;Node10 -->
<g id="edge9" class="edge"><title>Node4&#45;&gt;Node10</title>
<path fill="none" stroke="midnightblue" d="M944.704,-68.3436C941.428,-67.8594 938.181,-67.4078 935,-67 718.848,-39.289 663.148,-49.3484 446,-31 419.066,-28.7242 389.474,-25.961 363.614,-23.4596"/>
<polygon fill="midnightblue" stroke="midnightblue" points="363.82,-19.9632 353.529,-22.4791 363.143,-26.9304 363.82,-19.9632"/>
</g>
<!-- Node11 -->
<g id="node11" class="node"><title>Node11</title>
<polygon fill="white" stroke="#bfbfbf" points="779,-0.5 779,-30.5 879,-30.5 879,-0.5 779,-0.5"/>
<text text-anchor="start" x="787" y="-18.5" font-family="Helvetica,sans-Serif" font-size="10.00">boost/ptr_container</text>
<text text-anchor="middle" x="829" y="-7.5" font-family="Helvetica,sans-Serif" font-size="10.00">/ptr_vector.hpp</text>
</g>
<!-- Node4&#45;&gt;Node11 -->
<g id="edge10" class="edge"><title>Node4&#45;&gt;Node11</title>
<path fill="none" stroke="midnightblue" d="M973.858,-67.396C945.979,-57.6006 908.638,-44.4809 878.851,-34.0153"/>
<polygon fill="midnightblue" stroke="midnightblue" points="879.659,-30.5893 869.064,-30.5765 877.338,-37.1935 879.659,-30.5893"/>
</g>
<!-- Node14&#45;&gt;Node6 -->
<g id="edge25" class="edge"><title>Node14&#45;&gt;Node6</title>
<path fill="none" stroke="midnightblue" d="M470.737,-134.231C477.794,-118.642 494.508,-85.963 518,-67 544.031,-45.9877 579.91,-32.8027 606.894,-25.1967"/>
<polygon fill="midnightblue" stroke="midnightblue" points="608.01,-28.5213 616.762,-22.5501 606.196,-21.7603 608.01,-28.5213"/>
</g>
<!-- Node14&#45;&gt;Node9 -->
<g id="edge21" class="edge"><title>Node14&#45;&gt;Node9</title>
<path fill="none" stroke="midnightblue" d="M468.604,-134.457C471.358,-120.277 477.431,-91.0579 485,-67 487.777,-58.1749 491.362,-48.697 494.729,-40.3628"/>
<polygon fill="midnightblue" stroke="midnightblue" points="498.062,-41.4629 498.659,-30.8849 491.596,-38.782 498.062,-41.4629"/>
</g>
<!-- Node14&#45;&gt;Node10 -->
<g id="edge20" class="edge"><title>Node14&#45;&gt;Node10</title>
<path fill="none" stroke="midnightblue" d="M406.486,-139.994C344.079,-135.476 252.869,-124.433 231,-98 211.912,-74.9283 244.744,-47.1723 269.744,-30.7294"/>
<polygon fill="midnightblue" stroke="midnightblue" points="271.899,-33.5082 278.49,-25.2129 268.164,-27.5876 271.899,-33.5082"/>
</g>
<!-- Node14&#45;&gt;Node13 -->
<g id="edge22" class="edge"><title>Node14&#45;&gt;Node13</title>
<path fill="none" stroke="midnightblue" d="M482.76,-134.475C498.215,-126.115 522.295,-113.09 542.245,-102.299"/>
<polygon fill="midnightblue" stroke="midnightblue" points="543.945,-105.359 551.075,-97.523 540.614,-99.2022 543.945,-105.359"/>
</g>
<!-- Node15 -->
<g id="node15" class="node"><title>Node15</title>
<g id="a_node15"><a xlink:href="../../de/df3/ocra__assert_8h.html" target="_top" xlink:title="ocra/optim/ocra_assert.h">
<polygon fill="white" stroke="black" points="1200.5,-73 1200.5,-92 1325.5,-92 1325.5,-73 1200.5,-73"/>
<text text-anchor="middle" x="1263" y="-80" font-family="Helvetica,sans-Serif" font-size="10.00">ocra/optim/ocra_assert.h</text>
</a>
</g>
</g>
<!-- Node14&#45;&gt;Node15 -->
<g id="edge17" class="edge"><title>Node14&#45;&gt;Node15</title>
<path fill="none" stroke="midnightblue" d="M527.553,-134.841C530.407,-134.539 533.233,-134.256 536,-134 826.752,-107.098 902.4,-135.314 1192,-98 1199.9,-96.9826 1208.23,-95.5822 1216.29,-94.0503"/>
<polygon fill="midnightblue" stroke="midnightblue" points="1217.2,-97.44 1226.32,-92.0585 1215.83,-90.5741 1217.2,-97.44"/>
</g>
<!-- Node14&#45;&gt;Node17 -->
<g id="edge19" class="edge"><title>Node14&#45;&gt;Node17</title>
<path fill="none" stroke="midnightblue" d="M413.072,-134.472C358.701,-125.758 272.408,-111.61 198,-98 191.254,-96.766 184.167,-95.4203 177.17,-94.0624"/>
<polygon fill="midnightblue" stroke="midnightblue" points="177.521,-90.5647 167.035,-92.0757 176.175,-97.434 177.521,-90.5647"/>
</g>
<!-- Node18 -->
<g id="node18" class="node"><title>Node18</title>
<polygon fill="white" stroke="#bfbfbf" points="240.5,-67.5 240.5,-97.5 369.5,-97.5 369.5,-67.5 240.5,-67.5"/>
<text text-anchor="start" x="248.5" y="-85.5" font-family="Helvetica,sans-Serif" font-size="10.00">boost/type_traits/has</text>
<text text-anchor="middle" x="305" y="-74.5" font-family="Helvetica,sans-Serif" font-size="10.00">_nothrow_constructor.hpp</text>
</g>
<!-- Node14&#45;&gt;Node18 -->
<g id="edge23" class="edge"><title>Node14&#45;&gt;Node18</title>
<path fill="none" stroke="midnightblue" d="M443.789,-134.475C420.106,-125.776 382.669,-112.026 352.642,-100.998"/>
<polygon fill="midnightblue" stroke="midnightblue" points="353.774,-97.6853 343.18,-97.523 351.36,-104.256 353.774,-97.6853"/>
</g>
<!-- Node14&#45;&gt;Node19 -->
<g id="edge24" class="edge"><title>Node14&#45;&gt;Node19</title>
<path fill="none" stroke="midnightblue" d="M527.557,-134.875C530.409,-134.563 533.235,-134.27 536,-134 782.46,-109.973 846.654,-131.548 1092,-98 1104.07,-96.3494 1117.19,-93.7905 1128.71,-91.279"/>
<polygon fill="midnightblue" stroke="midnightblue" points="1129.78,-94.6253 1138.77,-89.0133 1128.24,-87.7964 1129.78,-94.6253"/>
</g>
<!-- Node20 -->
<g id="node20" class="node"><title>Node20</title>
<polygon fill="white" stroke="#bfbfbf" points="387.5,-73 387.5,-92 432.5,-92 432.5,-73 387.5,-73"/>
<text text-anchor="middle" x="410" y="-80" font-family="Helvetica,sans-Serif" font-size="10.00">iosfwd</text>
</g>
<!-- Node14&#45;&gt;Node20 -->
<g id="edge26" class="edge"><title>Node14&#45;&gt;Node20</title>
<path fill="none" stroke="midnightblue" d="M458.833,-134.475C450.114,-125.373 436.096,-110.741 425.311,-99.483"/>
<polygon fill="midnightblue" stroke="midnightblue" points="427.597,-96.809 418.152,-92.0091 422.542,-101.651 427.597,-96.809"/>
</g>
<!-- Node21 -->
<g id="node21" class="node"><title>Node21</title>
<polygon fill="white" stroke="#bfbfbf" points="867.5,-73 867.5,-92 926.5,-92 926.5,-73 867.5,-73"/>
<text text-anchor="middle" x="897" y="-80" font-family="Helvetica,sans-Serif" font-size="10.00">stdexcept</text>
</g>
<!-- Node14&#45;&gt;Node21 -->
<g id="edge27" class="edge"><title>Node14&#45;&gt;Node21</title>
<path fill="none" stroke="midnightblue" d="M527.581,-135.087C530.427,-134.719 533.244,-134.355 536,-134 661.752,-117.8 693.732,-117.595 819,-98 831.545,-96.0377 845.17,-93.6083 857.47,-91.3028"/>
<polygon fill="midnightblue" stroke="midnightblue" points="858.267,-94.714 867.437,-89.4082 856.96,-87.8371 858.267,-94.714"/>
</g>
<!-- Node16 -->
<g id="node16" class="node"><title>Node16</title>
<polygon fill="white" stroke="#bfbfbf" points="1241.5,-6 1241.5,-25 1284.5,-25 1284.5,-6 1241.5,-6"/>
<text text-anchor="middle" x="1263" y="-13" font-family="Helvetica,sans-Serif" font-size="10.00">cstdio</text>
</g>
<!-- Node15&#45;&gt;Node16 -->
<g id="edge18" class="edge"><title>Node15&#45;&gt;Node16</title>
<path fill="none" stroke="midnightblue" d="M1263,-72.7338C1263,-63.1826 1263,-47.6183 1263,-35.2829"/>
<polygon fill="midnightblue" stroke="midnightblue" points="1266.5,-35.1273 1263,-25.1273 1259.5,-35.1273 1266.5,-35.1273"/>
</g>
<!-- Node24&#45;&gt;Node2 -->
<g id="edge48" class="edge"><title>Node24&#45;&gt;Node2</title>
<path fill="none" stroke="midnightblue" d="M815.599,-257.475C766.487,-246.849 682.534,-228.685 629.234,-217.152"/>
<polygon fill="midnightblue" stroke="midnightblue" points="629.842,-213.703 619.328,-215.009 628.361,-220.545 629.842,-213.703"/>
</g>
<!-- Node24&#45;&gt;Node3 -->
<g id="edge49" class="edge"><title>Node24&#45;&gt;Node3</title>
<path fill="none" stroke="midnightblue" d="M799.242,-258.924C754.328,-251.944 696.379,-239.598 682,-221 668.575,-203.636 681.002,-178.611 692.397,-162.086"/>
<polygon fill="midnightblue" stroke="midnightblue" points="695.33,-164.007 698.452,-153.882 689.697,-159.85 695.33,-164.007"/>
</g>
<!-- Node25 -->
<g id="node25" class="node"><title>Node25</title>
<g id="a_node25"><a xlink:href="../../de/d94/IFunction_8h.html" target="_top" xlink:title="Declaration file of the IFunction interface. ">
<polygon fill="white" stroke="black" points="1206,-134.5 1206,-153.5 1320,-153.5 1320,-134.5 1206,-134.5"/>
<text text-anchor="middle" x="1263" y="-141.5" font-family="Helvetica,sans-Serif" font-size="10.00">ocra/optim/IFunction.h</text>
</a>
</g>
</g>
<!-- Node24&#45;&gt;Node25 -->
<g id="edge33" class="edge"><title>Node24&#45;&gt;Node25</title>
<path fill="none" stroke="midnightblue" d="M910.775,-264.768C1029.09,-261.577 1296.67,-251.08 1324,-221 1333.27,-210.803 1330.21,-202.299 1324,-190 1317.19,-176.52 1304.23,-166.083 1292,-158.67"/>
<polygon fill="midnightblue" stroke="midnightblue" points="1293.34,-155.41 1282.91,-153.59 1289.93,-161.521 1293.34,-155.41"/>
</g>
<!-- Node30 -->
<g id="node30" class="node"><title>Node30</title>
<g id="a_node30"><a xlink:href="../../d9/d54/IFunctionProperties_8h.html" target="_top" xlink:title="ocra/optim/IFunctionProperties.h">
<polygon fill="white" stroke="black" points="853,-196 853,-215 1011,-215 1011,-196 853,-196"/>
<text text-anchor="middle" x="932" y="-203" font-family="Helvetica,sans-Serif" font-size="10.00">ocra/optim/IFunctionProperties.h</text>
</a>
</g>
</g>
<!-- Node24&#45;&gt;Node30 -->
<g id="edge41" class="edge"><title>Node24&#45;&gt;Node30</title>
<path fill="none" stroke="midnightblue" d="M866.032,-257.475C878.268,-248.02 898.229,-232.596 912.993,-221.187"/>
<polygon fill="midnightblue" stroke="midnightblue" points="915.215,-223.893 920.988,-215.009 910.935,-218.354 915.215,-223.893"/>
</g>
<!-- Node31 -->
<g id="node31" class="node"><title>Node31</title>
<g id="a_node31"><a xlink:href="../../db/d47/AbilitySet_8h.html" target="_top" xlink:title="ocra/optim/AbilitySet.h">
<polygon fill="white" stroke="black" points="1199,-196 1199,-215 1315,-215 1315,-196 1199,-196"/>
<text text-anchor="middle" x="1257" y="-203" font-family="Helvetica,sans-Serif" font-size="10.00">ocra/optim/AbilitySet.h</text>
</a>
</g>
</g>
<!-- Node24&#45;&gt;Node31 -->
<g id="edge44" class="edge"><title>Node24&#45;&gt;Node31</title>
<path fill="none" stroke="midnightblue" d="M910.632,-259.901C977.269,-252.278 1092.17,-238.129 1190,-221 1196.62,-219.842 1203.57,-218.489 1210.39,-217.085"/>
<polygon fill="midnightblue" stroke="midnightblue" points="1211.18,-220.496 1220.24,-215.006 1209.74,-213.647 1211.18,-220.496"/>
</g>
<!-- Node32 -->
<g id="node32" class="node"><title>Node32</title>
<g id="a_node32"><a xlink:href="../../d1/d87/CoupledInputOutputSize_8h.html" target="_top" xlink:title="ocra/optim/CoupledInputOutput\lSize.h">
<polygon fill="white" stroke="black" points="1029,-190.5 1029,-220.5 1181,-220.5 1181,-190.5 1029,-190.5"/>
<text text-anchor="start" x="1037" y="-208.5" font-family="Helvetica,sans-Serif" font-size="10.00">ocra/optim/CoupledInputOutput</text>
<text text-anchor="middle" x="1105" y="-197.5" font-family="Helvetica,sans-Serif" font-size="10.00">Size.h</text>
</a>
</g>
</g>
<!-- Node24&#45;&gt;Node32 -->
<g id="edge47" class="edge"><title>Node24&#45;&gt;Node32</title>
<path fill="none" stroke="midnightblue" d="M890.819,-257.475C928.633,-248.475 989.168,-234.068 1036.25,-222.862"/>
<polygon fill="midnightblue" stroke="midnightblue" points="1037.16,-226.243 1046.08,-220.523 1035.54,-219.433 1037.16,-226.243"/>
</g>
<!-- Node33 -->
<g id="node33" class="node"><title>Node33</title>
<g id="a_node33"><a xlink:href="../../df/d97/NamedInstance_8h.html" target="_top" xlink:title="ocra/optim/NamedInstance.h">
<polygon fill="white" stroke="black" points="691.5,-196 691.5,-215 834.5,-215 834.5,-196 691.5,-196"/>
<text text-anchor="middle" x="763" y="-203" font-family="Helvetica,sans-Serif" font-size="10.00">ocra/optim/NamedInstance.h</text>
</a>
</g>
</g>
<!-- Node24&#45;&gt;Node33 -->
<g id="edge50" class="edge"><title>Node24&#45;&gt;Node33</title>
<path fill="none" stroke="midnightblue" d="M841.819,-257.475C826.926,-247.843 802.456,-232.017 784.727,-220.552"/>
<polygon fill="midnightblue" stroke="midnightblue" points="786.455,-217.501 776.157,-215.009 782.653,-223.379 786.455,-217.501"/>
</g>
<!-- Node25&#45;&gt;Node15 -->
<g id="edge37" class="edge"><title>Node25&#45;&gt;Node15</title>
<path fill="none" stroke="midnightblue" d="M1263,-134.475C1263,-126.08 1263,-112.981 1263,-102.163"/>
<polygon fill="midnightblue" stroke="midnightblue" points="1266.5,-102.009 1263,-92.0091 1259.5,-102.009 1266.5,-102.009"/>
</g>
<!-- Node25&#45;&gt;Node19 -->
<g id="edge39" class="edge"><title>Node25&#45;&gt;Node19</title>
<path fill="none" stroke="midnightblue" d="M1248.39,-134.475C1231.65,-124.711 1204,-108.581 1184.28,-97.0808"/>
<polygon fill="midnightblue" stroke="midnightblue" points="1185.99,-94.0246 1175.59,-92.0091 1182.46,-100.071 1185.99,-94.0246"/>
</g>
<!-- Node25&#45;&gt;Node21 -->
<g id="edge40" class="edge"><title>Node25&#45;&gt;Node21</title>
<path fill="none" stroke="midnightblue" d="M1205.86,-138.952C1140.02,-133.414 1028.95,-121.374 936,-98 933.014,-97.2491 929.941,-96.3463 926.893,-95.3629"/>
<polygon fill="midnightblue" stroke="midnightblue" points="927.973,-92.0328 917.378,-92.0349 925.662,-98.6403 927.973,-92.0328"/>
</g>
<!-- Node26 -->
<g id="node26" class="node"><title>Node26</title>
<g id="a_node26"><a xlink:href="../../d5/d55/MathTypes_8h.html" target="_top" xlink:title="Declaration file of the OptimizationVariable class. ">
<polygon fill="white" stroke="black" points="1416.5,-73 1416.5,-92 1527.5,-92 1527.5,-73 1416.5,-73"/>
<text text-anchor="middle" x="1472" y="-80" font-family="Helvetica,sans-Serif" font-size="10.00">ocra/util/MathTypes.h</text>
</a>
</g>
</g>
<!-- Node25&#45;&gt;Node26 -->
<g id="edge34" class="edge"><title>Node25&#45;&gt;Node26</title>
<path fill="none" stroke="midnightblue" d="M1292.94,-134.475C1329.57,-124.048 1391.7,-106.362 1432.28,-94.8066"/>
<polygon fill="midnightblue" stroke="midnightblue" points="1433.45,-98.1135 1442.11,-92.0091 1431.53,-91.381 1433.45,-98.1135"/>
</g>
<!-- Node29 -->
<g id="node29" class="node"><title>Node29</title>
<polygon fill="white" stroke="#bfbfbf" points="1344,-73 1344,-92 1398,-92 1398,-73 1344,-73"/>
<text text-anchor="middle" x="1371" y="-80" font-family="Helvetica,sans-Serif" font-size="10.00">iostream</text>
</g>
<!-- Node25&#45;&gt;Node29 -->
<g id="edge38" class="edge"><title>Node25&#45;&gt;Node29</title>
<path fill="none" stroke="midnightblue" d="M1278.47,-134.475C1296.28,-124.666 1325.74,-108.435 1346.63,-96.925"/>
<polygon fill="midnightblue" stroke="midnightblue" points="1348.49,-99.9001 1355.55,-92.0091 1345.11,-93.769 1348.49,-99.9001"/>
</g>
<!-- Node27 -->
<g id="node27" class="node"><title>Node27</title>
<polygon fill="white" stroke="#bfbfbf" points="1396.5,-6 1396.5,-25 1469.5,-25 1469.5,-6 1396.5,-6"/>
<text text-anchor="middle" x="1433" y="-13" font-family="Helvetica,sans-Serif" font-size="10.00">Eigen/Dense</text>
</g>
<!-- Node26&#45;&gt;Node27 -->
<g id="edge35" class="edge"><title>Node26&#45;&gt;Node27</title>
<path fill="none" stroke="midnightblue" d="M1466.74,-72.7338C1460.78,-62.7928 1450.9,-46.3377 1443.37,-33.7892"/>
<polygon fill="midnightblue" stroke="midnightblue" points="1446.32,-31.9015 1438.18,-25.1273 1440.32,-35.503 1446.32,-31.9015"/>
</g>
<!-- Node28 -->
<g id="node28" class="node"><title>Node28</title>
<polygon fill="white" stroke="#bfbfbf" points="1488,-6 1488,-25 1532,-25 1532,-6 1488,-6"/>
<text text-anchor="middle" x="1510" y="-13" font-family="Helvetica,sans-Serif" font-size="10.00">cmath</text>
</g>
<!-- Node26&#45;&gt;Node28 -->
<g id="edge36" class="edge"><title>Node26&#45;&gt;Node28</title>
<path fill="none" stroke="midnightblue" d="M1477.12,-72.7338C1482.94,-62.7928 1492.56,-46.3377 1499.89,-33.7892"/>
<polygon fill="midnightblue" stroke="midnightblue" points="1502.93,-35.5267 1504.96,-25.1273 1496.89,-31.9938 1502.93,-35.5267"/>
</g>
<!-- Node30&#45;&gt;Node19 -->
<g id="edge43" class="edge"><title>Node30&#45;&gt;Node19</title>
<path fill="none" stroke="midnightblue" d="M948.103,-195.992C987.344,-175.257 1088.16,-121.988 1135.6,-96.9205"/>
<polygon fill="midnightblue" stroke="midnightblue" points="1137.4,-99.9274 1144.61,-92.161 1134.13,-93.7383 1137.4,-99.9274"/>
</g>
<!-- Node30&#45;&gt;Node23 -->
<g id="edge42" class="edge"><title>Node30&#45;&gt;Node23</title>
<path fill="none" stroke="midnightblue" d="M921.111,-195.975C909.034,-186.52 889.333,-171.096 874.76,-159.687"/>
<polygon fill="midnightblue" stroke="midnightblue" points="876.9,-156.918 866.869,-153.509 872.585,-162.429 876.9,-156.918"/>
</g>
<!-- Node31&#45;&gt;Node19 -->
<g id="edge46" class="edge"><title>Node31&#45;&gt;Node19</title>
<path fill="none" stroke="midnightblue" d="M1243.73,-195.716C1230.6,-186.516 1210.56,-171.053 1197,-154 1184.34,-138.071 1174.28,-116.985 1168.05,-102.035"/>
<polygon fill="midnightblue" stroke="midnightblue" points="1171.16,-100.389 1164.21,-92.3957 1164.66,-102.981 1171.16,-100.389"/>
</g>
<!-- Node31&#45;&gt;Node25 -->
<g id="edge45" class="edge"><title>Node31&#45;&gt;Node25</title>
<path fill="none" stroke="midnightblue" d="M1257.86,-195.975C1258.71,-187.58 1260.03,-174.481 1261.12,-163.663"/>
<polygon fill="midnightblue" stroke="midnightblue" points="1264.62,-163.81 1262.14,-153.509 1257.66,-163.107 1264.62,-163.81"/>
</g>
<!-- Node33&#45;&gt;Node23 -->
<g id="edge51" class="edge"><title>Node33&#45;&gt;Node23</title>
<path fill="none" stroke="midnightblue" d="M776.325,-195.975C791.38,-186.343 816.116,-170.517 834.037,-159.052"/>
<polygon fill="midnightblue" stroke="midnightblue" points="836.163,-161.847 842.7,-153.509 832.39,-155.95 836.163,-161.847"/>
</g>
<!-- Node34&#45;&gt;Node24 -->
<g id="edge53" class="edge"><title>Node34&#45;&gt;Node24</title>
<path fill="none" stroke="midnightblue" d="M693.825,-369.363C710.161,-354.239 737.628,-330.121 764,-313 783.422,-300.391 806.878,-288.871 825.112,-280.644"/>
<polygon fill="midnightblue" stroke="midnightblue" points="826.655,-283.788 834.383,-276.54 823.822,-277.387 826.655,-283.788"/>
</g>
<!-- Node36 -->
<g id="node36" class="node"><title>Node36</title>
<polygon fill="white" stroke="#bfbfbf" points="1371,-196 1371,-215 1423,-215 1423,-196 1371,-196"/>
<text text-anchor="middle" x="1397" y="-203" font-family="Helvetica,sans-Serif" font-size="10.00">memory</text>
</g>
<!-- Node35&#45;&gt;Node36 -->
<g id="edge55" class="edge"><title>Node35&#45;&gt;Node36</title>
<path fill="none" stroke="midnightblue" d="M1229.21,-257.499C1261.92,-248.945 1313.19,-235.04 1357,-221 1359.55,-220.183 1362.18,-219.306 1364.82,-218.404"/>
<polygon fill="midnightblue" stroke="midnightblue" points="1365.99,-221.702 1374.26,-215.08 1363.66,-215.099 1365.99,-221.702"/>
</g>
<!-- Node37&#45;&gt;Node24 -->
<g id="edge59" class="edge"><title>Node37&#45;&gt;Node24</title>
<path fill="none" stroke="midnightblue" d="M1022.47,-313.444C988.408,-304.201 933.994,-289.436 896.485,-279.257"/>
<polygon fill="midnightblue" stroke="midnightblue" points="896.952,-275.758 886.385,-276.516 895.119,-282.513 896.952,-275.758"/>
</g>
<!-- Node37&#45;&gt;Node35 -->
<g id="edge60" class="edge"><title>Node37&#45;&gt;Node35</title>
<path fill="none" stroke="midnightblue" d="M1076.5,-313.444C1100.08,-304.478 1137.32,-290.314 1163.96,-280.183"/>
<polygon fill="midnightblue" stroke="midnightblue" points="1165.5,-283.342 1173.6,-276.516 1163.01,-276.8 1165.5,-283.342"/>
</g>
<!-- Node38&#45;&gt;Node39 -->
<g id="edge62" class="edge"><title>Node38&#45;&gt;Node39</title>
<path fill="none" stroke="midnightblue" d="M881.205,-436.475C902.654,-427.852 936.452,-414.264 963.761,-403.285"/>
<polygon fill="midnightblue" stroke="midnightblue" points="965.147,-406.501 973.119,-399.523 962.535,-400.006 965.147,-406.501"/>
</g>
<!-- Node39&#45;&gt;Node37 -->
<g id="edge63" class="edge"><title>Node39&#45;&gt;Node37</title>
<path fill="none" stroke="midnightblue" d="M1018.9,-369.399C1025.59,-360.753 1034.18,-349.642 1041.18,-340.576"/>
<polygon fill="midnightblue" stroke="midnightblue" points="1043.96,-342.71 1047.31,-332.658 1038.42,-338.428 1043.96,-342.71"/>
</g>
<!-- Node40&#45;&gt;Node39 -->
<g id="edge65" class="edge"><title>Node40&#45;&gt;Node39</title>
<path fill="none" stroke="midnightblue" d="M1050.84,-436.475C1044.44,-428.869 1034.81,-417.399 1026.29,-407.265"/>
<polygon fill="midnightblue" stroke="midnightblue" points="1028.9,-404.927 1019.78,-399.523 1023.54,-409.43 1028.9,-404.927"/>
</g>
</g>
</svg>
