<?xml version="1.0" encoding="UTF-8" standalone="no"?>
<!DOCTYPE svg PUBLIC "-//W3C//DTD SVG 1.1//EN"
 "http://www.w3.org/Graphics/SVG/1.1/DTD/svg11.dtd">
<!-- Generated by graphviz version 2.38.0 (20140413.2041)
 -->
<!-- Title: PartialState.h Pages: 1 -->
<svg width="1317pt" height="330pt"
 viewBox="0.00 0.00 1316.50 330.00" xmlns="http://www.w3.org/2000/svg" xmlns:xlink="http://www.w3.org/1999/xlink">
<g id="graph0" class="graph" transform="scale(1 1) rotate(0) translate(4 326)">
<title>PartialState.h</title>
<polygon fill="white" stroke="none" points="-4,4 -4,-326 1312.5,-326 1312.5,4 -4,4"/>
<!-- Node1 -->
<g id="node1" class="node"><title>Node1</title>
<polygon fill="#bfbfbf" stroke="black" points="1051,-302.5 1051,-321.5 1127,-321.5 1127,-302.5 1051,-302.5"/>
<text text-anchor="middle" x="1089" y="-309.5" font-family="Helvetica,sans-Serif" font-size="10.00">PartialState.h</text>
</g>
<!-- Node2 -->
<g id="node2" class="node"><title>Node2</title>
<g id="a_node2"><a xlink:href="../../df/d97/NamedInstance_8h.html" target="_top" xlink:title="ocra/optim/NamedInstance.h">
<polygon fill="white" stroke="black" points="263.5,-190.5 263.5,-209.5 406.5,-209.5 406.5,-190.5 263.5,-190.5"/>
<text text-anchor="middle" x="335" y="-197.5" font-family="Helvetica,sans-Serif" font-size="10.00">ocra/optim/NamedInstance.h</text>
</a>
</g>
</g>
<!-- Node1&#45;&gt;Node2 -->
<g id="edge1" class="edge"><title>Node1&#45;&gt;Node2</title>
<path fill="none" stroke="midnightblue" d="M1050.98,-308.608C973.379,-303.415 791.324,-289.634 640,-266 546.199,-251.35 437.796,-226.272 378.806,-211.926"/>
<polygon fill="midnightblue" stroke="midnightblue" points="379.622,-208.522 369.077,-209.548 377.96,-215.322 379.622,-208.522"/>
</g>
<!-- Node4 -->
<g id="node4" class="node"><title>Node4</title>
<g id="a_node4"><a xlink:href="../../d3/d5a/Model_8h.html" target="_top" xlink:title="Declaration file of the Model class. ">
<polygon fill="white" stroke="black" points="649.5,-246.5 649.5,-265.5 754.5,-265.5 754.5,-246.5 649.5,-246.5"/>
<text text-anchor="middle" x="702" y="-253.5" font-family="Helvetica,sans-Serif" font-size="10.00">ocra/control/Model.h</text>
</a>
</g>
</g>
<!-- Node1&#45;&gt;Node4 -->
<g id="edge3" class="edge"><title>Node1&#45;&gt;Node4</title>
<path fill="none" stroke="midnightblue" d="M1050.83,-305.674C984.086,-296.361 845.565,-277.032 764.603,-265.735"/>
<polygon fill="midnightblue" stroke="midnightblue" points="764.929,-262.247 754.541,-264.331 763.961,-269.18 764.929,-262.247"/>
</g>
<!-- Node30 -->
<g id="node30" class="node"><title>Node30</title>
<polygon fill="white" stroke="#bfbfbf" points="935.5,-134.5 935.5,-153.5 1000.5,-153.5 1000.5,-134.5 935.5,-134.5"/>
<text text-anchor="middle" x="968" y="-141.5" font-family="Helvetica,sans-Serif" font-size="10.00">Eigen/Core</text>
</g>
<!-- Node1&#45;&gt;Node30 -->
<g id="edge51" class="edge"><title>Node1&#45;&gt;Node30</title>
<path fill="none" stroke="midnightblue" d="M1090.24,-302.307C1092.81,-280.806 1096.44,-224.388 1070,-190 1055.54,-171.191 1031.54,-160.077 1010.45,-153.602"/>
<polygon fill="midnightblue" stroke="midnightblue" points="1011.27,-150.198 1000.7,-150.862 1009.38,-156.937 1011.27,-150.198"/>
</g>
<!-- Node31 -->
<g id="node31" class="node"><title>Node31</title>
<polygon fill="white" stroke="#bfbfbf" points="1040,-134.5 1040,-153.5 1148,-153.5 1148,-134.5 1040,-134.5"/>
<text text-anchor="middle" x="1094" y="-141.5" font-family="Helvetica,sans-Serif" font-size="10.00">boost/shared_ptr.hpp</text>
</g>
<!-- Node1&#45;&gt;Node31 -->
<g id="edge52" class="edge"><title>Node1&#45;&gt;Node31</title>
<path fill="none" stroke="midnightblue" d="M1092.6,-302.222C1096.06,-293.285 1101.03,-278.942 1103,-266 1108.07,-232.606 1106.33,-223.613 1103,-190 1102.13,-181.17 1100.31,-171.505 1098.53,-163.404"/>
<polygon fill="midnightblue" stroke="midnightblue" points="1101.92,-162.494 1096.23,-153.551 1095.1,-164.085 1101.92,-162.494"/>
</g>
<!-- Node32 -->
<g id="node32" class="node"><title>Node32</title>
<g id="a_node32"><a xlink:href="../../df/d0a/Macros_8h.html" target="_top" xlink:title="ocra/util/Macros.h">
<polygon fill="white" stroke="black" points="1155.5,-190.5 1155.5,-209.5 1250.5,-209.5 1250.5,-190.5 1155.5,-190.5"/>
<text text-anchor="middle" x="1203" y="-197.5" font-family="Helvetica,sans-Serif" font-size="10.00">ocra/util/Macros.h</text>
</a>
</g>
</g>
<!-- Node1&#45;&gt;Node32 -->
<g id="edge50" class="edge"><title>Node1&#45;&gt;Node32</title>
<path fill="none" stroke="midnightblue" d="M1099.62,-302.32C1110.31,-293.46 1127.17,-279.176 1141,-266 1157.83,-249.965 1176.08,-230.566 1188.39,-217.157"/>
<polygon fill="midnightblue" stroke="midnightblue" points="1191.07,-219.412 1195.23,-209.665 1185.9,-214.696 1191.07,-219.412"/>
</g>
<!-- Node3 -->
<g id="node3" class="node"><title>Node3</title>
<polygon fill="white" stroke="#bfbfbf" points="293.5,-134.5 293.5,-153.5 334.5,-153.5 334.5,-134.5 293.5,-134.5"/>
<text text-anchor="middle" x="314" y="-141.5" font-family="Helvetica,sans-Serif" font-size="10.00">string</text>
</g>
<!-- Node2&#45;&gt;Node3 -->
<g id="edge2" class="edge"><title>Node2&#45;&gt;Node3</title>
<path fill="none" stroke="midnightblue" d="M331.532,-190.083C328.688,-182.77 324.571,-172.181 321.04,-163.103"/>
<polygon fill="midnightblue" stroke="midnightblue" points="324.29,-161.803 317.403,-153.751 317.766,-164.34 324.29,-161.803"/>
</g>
<!-- Node4&#45;&gt;Node2 -->
<g id="edge39" class="edge"><title>Node4&#45;&gt;Node2</title>
<path fill="none" stroke="midnightblue" d="M649.418,-247.263C584.622,-237.729 474.382,-221.509 403.15,-211.028"/>
<polygon fill="midnightblue" stroke="midnightblue" points="403.337,-207.517 392.934,-209.524 402.318,-214.443 403.337,-207.517"/>
</g>
<!-- Node4&#45;&gt;Node3 -->
<g id="edge47" class="edge"><title>Node4&#45;&gt;Node3</title>
<path fill="none" stroke="midnightblue" d="M649.099,-249.963C598.102,-244.052 519.275,-232.116 454,-210 435.551,-203.749 432.57,-198.411 415,-190 391.193,-178.602 363.822,-166.466 343.585,-157.673"/>
<polygon fill="midnightblue" stroke="midnightblue" points="344.837,-154.402 334.27,-153.643 342.058,-160.826 344.837,-154.402"/>
</g>
<!-- Node5 -->
<g id="node5" class="node"><title>Node5</title>
<g id="a_node5"><a xlink:href="../../d5/d55/MathTypes_8h.html" target="_top" xlink:title="Declaration file of the OptimizationVariable class. ">
<polygon fill="white" stroke="black" points="134.5,-190.5 134.5,-209.5 245.5,-209.5 245.5,-190.5 134.5,-190.5"/>
<text text-anchor="middle" x="190" y="-197.5" font-family="Helvetica,sans-Serif" font-size="10.00">ocra/util/MathTypes.h</text>
</a>
</g>
</g>
<!-- Node4&#45;&gt;Node5 -->
<g id="edge4" class="edge"><title>Node4&#45;&gt;Node5</title>
<path fill="none" stroke="midnightblue" d="M649.166,-250.376C567.186,-243.051 404.14,-227.883 256.016,-210.206"/>
<polygon fill="midnightblue" stroke="midnightblue" points="256.176,-206.7 245.831,-208.984 255.342,-213.651 256.176,-206.7"/>
</g>
<!-- Node8 -->
<g id="node8" class="node"><title>Node8</title>
<g id="a_node8"><a xlink:href="../../d8/ddc/ObserverSubject_8h.html" target="_top" xlink:title="Declaration file of the Observer, Subject and ObserverSubject classes. ">
<polygon fill="white" stroke="black" points="760,-134.5 760,-153.5 906,-153.5 906,-134.5 760,-134.5"/>
<text text-anchor="middle" x="833" y="-141.5" font-family="Helvetica,sans-Serif" font-size="10.00">ocra/optim/ObserverSubject.h</text>
</a>
</g>
</g>
<!-- Node4&#45;&gt;Node8 -->
<g id="edge7" class="edge"><title>Node4&#45;&gt;Node8</title>
<path fill="none" stroke="midnightblue" d="M674.952,-246.437C644.102,-235.27 600.321,-214.271 620,-190 636.464,-169.694 697.331,-158.193 749.805,-151.911"/>
<polygon fill="midnightblue" stroke="midnightblue" points="750.296,-155.378 759.832,-150.761 749.498,-148.424 750.296,-155.378"/>
</g>
<!-- Node19 -->
<g id="node19" class="node"><title>Node19</title>
<g id="a_node19"><a xlink:href="../../d7/d90/Variable_8h.html" target="_top" xlink:title="Declaration file of the Variable class. ">
<polygon fill="white" stroke="black" points="463.5,-190.5 463.5,-209.5 572.5,-209.5 572.5,-190.5 463.5,-190.5"/>
<text text-anchor="middle" x="518" y="-197.5" font-family="Helvetica,sans-Serif" font-size="10.00">ocra/optim/Variable.h</text>
</a>
</g>
</g>
<!-- Node4&#45;&gt;Node19 -->
<g id="edge21" class="edge"><title>Node4&#45;&gt;Node19</title>
<path fill="none" stroke="midnightblue" d="M672.845,-246.444C641.487,-237.241 591.469,-222.562 556.803,-212.388"/>
<polygon fill="midnightblue" stroke="midnightblue" points="557.6,-208.974 547.019,-209.516 555.629,-215.691 557.6,-208.974"/>
</g>
<!-- Node29 -->
<g id="node29" class="node"><title>Node29</title>
<g id="a_node29"><a xlink:href="../../d9/d5d/ModelContacts_8h.html" target="_top" xlink:title="Declaration file of the ModelContacts class. ">
<polygon fill="white" stroke="black" points="629.5,-190.5 629.5,-209.5 774.5,-209.5 774.5,-190.5 629.5,-190.5"/>
<text text-anchor="middle" x="702" y="-197.5" font-family="Helvetica,sans-Serif" font-size="10.00">ocra/control/ModelContacts.h</text>
</a>
</g>
</g>
<!-- Node4&#45;&gt;Node29 -->
<g id="edge40" class="edge"><title>Node4&#45;&gt;Node29</title>
<path fill="none" stroke="midnightblue" d="M702,-246.083C702,-239.006 702,-228.861 702,-219.986"/>
<polygon fill="midnightblue" stroke="midnightblue" points="705.5,-219.751 702,-209.751 698.5,-219.751 705.5,-219.751"/>
</g>
<!-- Node4&#45;&gt;Node32 -->
<g id="edge44" class="edge"><title>Node4&#45;&gt;Node32</title>
<path fill="none" stroke="midnightblue" d="M754.669,-249.323C849.3,-239.123 1047.34,-217.777 1145.43,-207.206"/>
<polygon fill="midnightblue" stroke="midnightblue" points="1145.89,-210.676 1155.45,-206.125 1145.14,-203.717 1145.89,-210.676"/>
</g>
<!-- Node34 -->
<g id="node34" class="node"><title>Node34</title>
<polygon fill="white" stroke="#bfbfbf" points="793,-190.5 793,-209.5 861,-209.5 861,-190.5 793,-190.5"/>
<text text-anchor="middle" x="827" y="-197.5" font-family="Helvetica,sans-Serif" font-size="10.00">Eigen/Lgsm</text>
</g>
<!-- Node4&#45;&gt;Node34 -->
<g id="edge46" class="edge"><title>Node4&#45;&gt;Node34</title>
<path fill="none" stroke="midnightblue" d="M721.807,-246.444C742.287,-237.596 774.483,-223.687 797.865,-213.586"/>
<polygon fill="midnightblue" stroke="midnightblue" points="799.494,-216.695 807.286,-209.516 796.718,-210.269 799.494,-216.695"/>
</g>
<!-- Node35 -->
<g id="node35" class="node"><title>Node35</title>
<polygon fill="white" stroke="#bfbfbf" points="879,-190.5 879,-209.5 933,-209.5 933,-190.5 879,-190.5"/>
<text text-anchor="middle" x="906" y="-197.5" font-family="Helvetica,sans-Serif" font-size="10.00">iostream</text>
</g>
<!-- Node4&#45;&gt;Node35 -->
<g id="edge48" class="edge"><title>Node4&#45;&gt;Node35</title>
<path fill="none" stroke="midnightblue" d="M734.324,-246.444C770.936,-236.752 830.49,-220.988 868.95,-210.807"/>
<polygon fill="midnightblue" stroke="midnightblue" points="869.952,-214.163 878.723,-208.22 868.161,-207.396 869.952,-214.163"/>
</g>
<!-- Node36 -->
<g id="node36" class="node"><title>Node36</title>
<polygon fill="white" stroke="#bfbfbf" points="951,-190.5 951,-209.5 1061,-209.5 1061,-190.5 951,-190.5"/>
<text text-anchor="middle" x="1006" y="-197.5" font-family="Helvetica,sans-Serif" font-size="10.00">yarp/os/Semaphore.h</text>
</g>
<!-- Node4&#45;&gt;Node36 -->
<g id="edge49" class="edge"><title>Node4&#45;&gt;Node36</title>
<path fill="none" stroke="midnightblue" d="M750.17,-246.444C803.869,-236.905 890.686,-221.483 948.054,-211.293"/>
<polygon fill="midnightblue" stroke="midnightblue" points="948.822,-214.712 958.056,-209.516 947.598,-207.819 948.822,-214.712"/>
</g>
<!-- Node6 -->
<g id="node6" class="node"><title>Node6</title>
<polygon fill="white" stroke="#bfbfbf" points="178.5,-134.5 178.5,-153.5 251.5,-153.5 251.5,-134.5 178.5,-134.5"/>
<text text-anchor="middle" x="215" y="-141.5" font-family="Helvetica,sans-Serif" font-size="10.00">Eigen/Dense</text>
</g>
<!-- Node5&#45;&gt;Node6 -->
<g id="edge5" class="edge"><title>Node5&#45;&gt;Node6</title>
<path fill="none" stroke="midnightblue" d="M194.128,-190.083C197.514,-182.77 202.416,-172.181 206.619,-163.103"/>
<polygon fill="midnightblue" stroke="midnightblue" points="209.923,-164.296 210.949,-153.751 203.571,-161.355 209.923,-164.296"/>
</g>
<!-- Node7 -->
<g id="node7" class="node"><title>Node7</title>
<polygon fill="white" stroke="#bfbfbf" points="116,-134.5 116,-153.5 160,-153.5 160,-134.5 116,-134.5"/>
<text text-anchor="middle" x="138" y="-141.5" font-family="Helvetica,sans-Serif" font-size="10.00">cmath</text>
</g>
<!-- Node5&#45;&gt;Node7 -->
<g id="edge6" class="edge"><title>Node5&#45;&gt;Node7</title>
<path fill="none" stroke="midnightblue" d="M181.413,-190.083C173.841,-182.22 162.622,-170.569 153.486,-161.081"/>
<polygon fill="midnightblue" stroke="midnightblue" points="155.885,-158.527 146.427,-153.751 150.842,-163.382 155.885,-158.527"/>
</g>
<!-- Node9 -->
<g id="node9" class="node"><title>Node9</title>
<g id="a_node9"><a xlink:href="../../df/d67/ObserverSubjectBase_8h.html" target="_top" xlink:title="Declaration file of the Observer and Subject base classes. ">
<polygon fill="white" stroke="black" points="899,-67.5 899,-97.5 1037,-97.5 1037,-67.5 899,-67.5"/>
<text text-anchor="start" x="907" y="-85.5" font-family="Helvetica,sans-Serif" font-size="10.00">ocra/optim/ObserverSubject</text>
<text text-anchor="middle" x="968" y="-74.5" font-family="Helvetica,sans-Serif" font-size="10.00">Base.h</text>
</a>
</g>
</g>
<!-- Node8&#45;&gt;Node9 -->
<g id="edge8" class="edge"><title>Node8&#45;&gt;Node9</title>
<path fill="none" stroke="midnightblue" d="M852.342,-134.475C871.737,-125.927 902.199,-112.501 926.993,-101.573"/>
<polygon fill="midnightblue" stroke="midnightblue" points="928.444,-104.759 936.183,-97.523 925.621,-98.3534 928.444,-104.759"/>
</g>
<!-- Node13 -->
<g id="node13" class="node"><title>Node13</title>
<polygon fill="white" stroke="#bfbfbf" points="780,-0.5 780,-30.5 880,-30.5 880,-0.5 780,-0.5"/>
<text text-anchor="start" x="788" y="-18.5" font-family="Helvetica,sans-Serif" font-size="10.00">boost/type_traits/is</text>
<text text-anchor="middle" x="830" y="-7.5" font-family="Helvetica,sans-Serif" font-size="10.00">_class.hpp</text>
</g>
<!-- Node8&#45;&gt;Node13 -->
<g id="edge20" class="edge"><title>Node8&#45;&gt;Node13</title>
<path fill="none" stroke="midnightblue" d="M836.6,-134.222C840.056,-125.285 845.033,-110.942 847,-98 849.07,-84.3786 849.227,-80.5966 847,-67 845.533,-58.0435 842.693,-48.5348 839.749,-40.2128"/>
<polygon fill="midnightblue" stroke="midnightblue" points="842.991,-38.8911 836.191,-30.7671 836.441,-41.3589 842.991,-38.8911"/>
</g>
<!-- Node14 -->
<g id="node14" class="node"><title>Node14</title>
<polygon fill="white" stroke="#bfbfbf" points="662,-0.5 662,-30.5 762,-30.5 762,-0.5 662,-0.5"/>
<text text-anchor="start" x="670" y="-18.5" font-family="Helvetica,sans-Serif" font-size="10.00">boost/type_traits/is</text>
<text text-anchor="middle" x="712" y="-7.5" font-family="Helvetica,sans-Serif" font-size="10.00">_base_of.hpp</text>
</g>
<!-- Node8&#45;&gt;Node14 -->
<g id="edge18" class="edge"><title>Node8&#45;&gt;Node14</title>
<path fill="none" stroke="midnightblue" d="M833.095,-134.463C832.824,-119.241 830.209,-87.1252 814,-67 802.603,-52.8492 786.233,-42.3486 769.934,-34.7018"/>
<polygon fill="midnightblue" stroke="midnightblue" points="770.948,-31.325 760.383,-30.5231 768.142,-37.7381 770.948,-31.325"/>
</g>
<!-- Node15 -->
<g id="node15" class="node"><title>Node15</title>
<polygon fill="white" stroke="#bfbfbf" points="1189.5,-6 1189.5,-25 1308.5,-25 1308.5,-6 1189.5,-6"/>
<text text-anchor="middle" x="1249" y="-13" font-family="Helvetica,sans-Serif" font-size="10.00">boost/static_assert.hpp</text>
</g>
<!-- Node8&#45;&gt;Node15 -->
<g id="edge17" class="edge"><title>Node8&#45;&gt;Node15</title>
<path fill="none" stroke="midnightblue" d="M906.099,-135.755C1018.86,-124.432 1222.99,-103.285 1229,-98 1246.65,-82.4643 1250,-54.1187 1250.06,-35.2935"/>
<polygon fill="midnightblue" stroke="midnightblue" points="1253.55,-35.1408 1249.78,-25.24 1246.56,-35.3318 1253.55,-35.1408"/>
</g>
<!-- Node17 -->
<g id="node17" class="node"><title>Node17</title>
<g id="a_node17"><a xlink:href="../../db/ddf/ocra__events_8h.html" target="_top" xlink:title="ocra/optim/ocra_events.h">
<polygon fill="white" stroke="black" points="1093.5,-73 1093.5,-92 1220.5,-92 1220.5,-73 1093.5,-73"/>
<text text-anchor="middle" x="1157" y="-80" font-family="Helvetica,sans-Serif" font-size="10.00">ocra/optim/ocra_events.h</text>
</a>
</g>
</g>
<!-- Node8&#45;&gt;Node17 -->
<g id="edge16" class="edge"><title>Node8&#45;&gt;Node17</title>
<path fill="none" stroke="midnightblue" d="M879.71,-134.497C929.198,-125.478 1009.62,-110.795 1079,-98 1086.17,-96.6777 1093.71,-95.2822 1101.16,-93.9004"/>
<polygon fill="midnightblue" stroke="midnightblue" points="1102.03,-97.2991 1111.22,-92.0326 1100.75,-90.4167 1102.03,-97.2991"/>
</g>
<!-- Node18 -->
<g id="node18" class="node"><title>Node18</title>
<polygon fill="white" stroke="#bfbfbf" points="705,-67.5 705,-97.5 805,-97.5 805,-67.5 705,-67.5"/>
<text text-anchor="start" x="713" y="-85.5" font-family="Helvetica,sans-Serif" font-size="10.00">boost/type_traits/is</text>
<text text-anchor="middle" x="755" y="-74.5" font-family="Helvetica,sans-Serif" font-size="10.00">_convertible.hpp</text>
</g>
<!-- Node8&#45;&gt;Node18 -->
<g id="edge19" class="edge"><title>Node8&#45;&gt;Node18</title>
<path fill="none" stroke="midnightblue" d="M821.825,-134.475C811.359,-126.492 795.316,-114.254 781.573,-103.77"/>
<polygon fill="midnightblue" stroke="midnightblue" points="783.457,-100.805 773.383,-97.523 779.211,-106.371 783.457,-100.805"/>
</g>
<!-- Node10 -->
<g id="node10" class="node"><title>Node10</title>
<polygon fill="white" stroke="#bfbfbf" points="1112.5,-6 1112.5,-25 1171.5,-25 1171.5,-6 1112.5,-6"/>
<text text-anchor="middle" x="1142" y="-13" font-family="Helvetica,sans-Serif" font-size="10.00">functional</text>
</g>
<!-- Node9&#45;&gt;Node10 -->
<g id="edge9" class="edge"><title>Node9&#45;&gt;Node10</title>
<path fill="none" stroke="midnightblue" d="M1005.76,-67.396C1036.83,-55.7891 1080.39,-39.5147 1109.83,-28.5192"/>
<polygon fill="midnightblue" stroke="midnightblue" points="1111.08,-31.7852 1119.23,-25.007 1108.63,-25.2278 1111.08,-31.7852"/>
</g>
<!-- Node11 -->
<g id="node11" class="node"><title>Node11</title>
<polygon fill="white" stroke="#bfbfbf" points="387,-6 387,-25 443,-25 443,-6 387,-6"/>
<text text-anchor="middle" x="415" y="-13" font-family="Helvetica,sans-Serif" font-size="10.00">algorithm</text>
</g>
<!-- Node9&#45;&gt;Node11 -->
<g id="edge10" class="edge"><title>Node9&#45;&gt;Node11</title>
<path fill="none" stroke="midnightblue" d="M898.801,-73.3664C781.04,-59.5246 545.473,-31.8359 453.262,-20.9974"/>
<polygon fill="midnightblue" stroke="midnightblue" points="453.595,-17.5125 443.255,-19.8211 452.778,-24.4646 453.595,-17.5125"/>
</g>
<!-- Node12 -->
<g id="node12" class="node"><title>Node12</title>
<polygon fill="white" stroke="#bfbfbf" points="898,-6 898,-25 976,-25 976,-6 898,-6"/>
<text text-anchor="middle" x="937" y="-13" font-family="Helvetica,sans-Serif" font-size="10.00">boost/any.hpp</text>
</g>
<!-- Node9&#45;&gt;Node12 -->
<g id="edge11" class="edge"><title>Node9&#45;&gt;Node12</title>
<path fill="none" stroke="midnightblue" d="M961.273,-67.396C956.679,-57.7628 950.552,-44.9145 945.602,-34.5373"/>
<polygon fill="midnightblue" stroke="midnightblue" points="948.611,-32.7139 941.147,-25.1945 942.292,-35.7273 948.611,-32.7139"/>
</g>
<!-- Node9&#45;&gt;Node13 -->
<g id="edge12" class="edge"><title>Node9&#45;&gt;Node13</title>
<path fill="none" stroke="midnightblue" d="M938.056,-67.396C917.802,-57.8561 890.854,-45.1632 868.937,-34.8397"/>
<polygon fill="midnightblue" stroke="midnightblue" points="870.424,-31.6713 859.886,-30.5765 867.441,-38.004 870.424,-31.6713"/>
</g>
<!-- Node9&#45;&gt;Node14 -->
<g id="edge13" class="edge"><title>Node9&#45;&gt;Node14</title>
<path fill="none" stroke="midnightblue" d="M912.767,-67.476C871.4,-56.9725 814.848,-42.6138 772.305,-31.8117"/>
<polygon fill="midnightblue" stroke="midnightblue" points="772.912,-28.3548 762.358,-29.2861 771.189,-35.1396 772.912,-28.3548"/>
</g>
<!-- Node9&#45;&gt;Node15 -->
<g id="edge14" class="edge"><title>Node9&#45;&gt;Node15</title>
<path fill="none" stroke="midnightblue" d="M1028.63,-67.476C1080.63,-55.4457 1154.51,-38.3579 1202.1,-27.3493"/>
<polygon fill="midnightblue" stroke="midnightblue" points="1203.18,-30.6924 1212.13,-25.0287 1201.6,-23.8724 1203.18,-30.6924"/>
</g>
<!-- Node16 -->
<g id="node16" class="node"><title>Node16</title>
<polygon fill="white" stroke="#bfbfbf" points="994,-0.5 994,-30.5 1094,-30.5 1094,-0.5 994,-0.5"/>
<text text-anchor="start" x="1002" y="-18.5" font-family="Helvetica,sans-Serif" font-size="10.00">boost/ptr_container</text>
<text text-anchor="middle" x="1044" y="-7.5" font-family="Helvetica,sans-Serif" font-size="10.00">/ptr_vector.hpp</text>
</g>
<!-- Node9&#45;&gt;Node16 -->
<g id="edge15" class="edge"><title>Node9&#45;&gt;Node16</title>
<path fill="none" stroke="midnightblue" d="M984.491,-67.396C994.848,-58.5375 1008.38,-46.9604 1019.93,-37.0861"/>
<polygon fill="midnightblue" stroke="midnightblue" points="1022.22,-39.7361 1027.54,-30.5765 1017.67,-34.4163 1022.22,-39.7361"/>
</g>
<!-- Node19&#45;&gt;Node3 -->
<g id="edge37" class="edge"><title>Node19&#45;&gt;Node3</title>
<path fill="none" stroke="midnightblue" d="M485.676,-190.444C446.96,-180.195 382.591,-163.156 344.639,-153.11"/>
<polygon fill="midnightblue" stroke="midnightblue" points="345.241,-149.649 334.678,-150.474 343.449,-156.416 345.241,-149.649"/>
</g>
<!-- Node19&#45;&gt;Node8 -->
<g id="edge22" class="edge"><title>Node19&#45;&gt;Node8</title>
<path fill="none" stroke="midnightblue" d="M567.913,-190.444C623.67,-180.885 713.886,-165.419 773.326,-155.23"/>
<polygon fill="midnightblue" stroke="midnightblue" points="774.056,-158.656 783.321,-153.516 772.873,-151.756 774.056,-158.656"/>
</g>
<!-- Node20 -->
<g id="node20" class="node"><title>Node20</title>
<g id="a_node20"><a xlink:href="../../d1/de6/Composite_8h.html" target="_top" xlink:title="Utility classes and functions to implement the Composite design pattern. ">
<polygon fill="white" stroke="black" points="478.5,-134.5 478.5,-153.5 599.5,-153.5 599.5,-134.5 478.5,-134.5"/>
<text text-anchor="middle" x="539" y="-141.5" font-family="Helvetica,sans-Serif" font-size="10.00">ocra/optim/Composite.h</text>
</a>
</g>
</g>
<!-- Node19&#45;&gt;Node20 -->
<g id="edge23" class="edge"><title>Node19&#45;&gt;Node20</title>
<path fill="none" stroke="midnightblue" d="M521.468,-190.083C524.312,-182.77 528.429,-172.181 531.96,-163.103"/>
<polygon fill="midnightblue" stroke="midnightblue" points="535.234,-164.34 535.597,-153.751 528.71,-161.803 535.234,-164.34"/>
</g>
<!-- Node23 -->
<g id="node23" class="node"><title>Node23</title>
<polygon fill="white" stroke="#bfbfbf" points="569.5,-73 569.5,-92 686.5,-92 686.5,-73 569.5,-73"/>
<text text-anchor="middle" x="628" y="-80" font-family="Helvetica,sans-Serif" font-size="10.00">boost/noncopyable.hpp</text>
</g>
<!-- Node19&#45;&gt;Node23 -->
<g id="edge36" class="edge"><title>Node19&#45;&gt;Node23</title>
<path fill="none" stroke="midnightblue" d="M549.664,-190.364C569.108,-183.512 593.067,-172.027 608,-154 620.029,-139.478 624.834,-118.139 626.747,-102.745"/>
<polygon fill="midnightblue" stroke="midnightblue" points="630.273,-102.625 627.718,-92.3431 623.303,-101.974 630.273,-102.625"/>
</g>
<!-- Node25 -->
<g id="node25" class="node"><title>Node25</title>
<polygon fill="white" stroke="#bfbfbf" points="0,-73 0,-92 44,-92 44,-73 0,-73"/>
<text text-anchor="middle" x="22" y="-80" font-family="Helvetica,sans-Serif" font-size="10.00">vector</text>
</g>
<!-- Node19&#45;&gt;Node25 -->
<g id="edge38" class="edge"><title>Node19&#45;&gt;Node25</title>
<path fill="none" stroke="midnightblue" d="M487.799,-190.469C459.912,-182.249 417.555,-168.894 382,-154 364.033,-146.474 361.618,-139.728 343,-134 218.442,-95.6787 177.002,-134.847 52,-98 50.1273,-97.448 48.227,-96.7895 46.3388,-96.0622"/>
<polygon fill="midnightblue" stroke="midnightblue" points="47.7463,-92.8577 37.1841,-92.0268 44.9228,-99.263 47.7463,-92.8577"/>
</g>
<!-- Node28 -->
<g id="node28" class="node"><title>Node28</title>
<polygon fill="white" stroke="#bfbfbf" points="391.5,-134.5 391.5,-153.5 460.5,-153.5 460.5,-134.5 391.5,-134.5"/>
<text text-anchor="middle" x="426" y="-141.5" font-family="Helvetica,sans-Serif" font-size="10.00">Eigen/Eigen</text>
</g>
<!-- Node19&#45;&gt;Node28 -->
<g id="edge35" class="edge"><title>Node19&#45;&gt;Node28</title>
<path fill="none" stroke="midnightblue" d="M503.219,-190.324C488.733,-181.822 466.427,-168.729 449.507,-158.797"/>
<polygon fill="midnightblue" stroke="midnightblue" points="451.141,-155.698 440.745,-153.655 447.597,-161.735 451.141,-155.698"/>
</g>
<!-- Node20&#45;&gt;Node11 -->
<g id="edge32" class="edge"><title>Node20&#45;&gt;Node11</title>
<path fill="none" stroke="midnightblue" d="M478.276,-135.049C390.457,-123.409 237.979,-102.609 234,-98 191.229,-48.455 311.547,-27.566 376.504,-20.0835"/>
<polygon fill="midnightblue" stroke="midnightblue" points="377.241,-23.5239 386.801,-18.9559 376.479,-16.5655 377.241,-23.5239"/>
</g>
<!-- Node20&#45;&gt;Node14 -->
<g id="edge28" class="edge"><title>Node20&#45;&gt;Node14</title>
<path fill="none" stroke="midnightblue" d="M538.896,-134.21C539.195,-118.586 542.085,-85.8556 560,-67 583.85,-41.897 620.462,-29.2667 651.777,-22.9146"/>
<polygon fill="midnightblue" stroke="midnightblue" points="652.543,-26.3323 661.735,-21.065 651.264,-19.45 652.543,-26.3323"/>
</g>
<!-- Node20&#45;&gt;Node15 -->
<g id="edge27" class="edge"><title>Node20&#45;&gt;Node15</title>
<path fill="none" stroke="midnightblue" d="M599.518,-139.628C725.06,-132.344 1005.53,-114.464 1046,-98 1066.19,-89.7859 1064.78,-77.2702 1084,-67 1118.96,-48.3228 1161.86,-35.462 1195.15,-27.3945"/>
<polygon fill="midnightblue" stroke="midnightblue" points="1196.22,-30.7385 1205.16,-25.0436 1194.62,-23.9241 1196.22,-30.7385"/>
</g>
<!-- Node20&#45;&gt;Node18 -->
<g id="edge29" class="edge"><title>Node20&#45;&gt;Node18</title>
<path fill="none" stroke="midnightblue" d="M569.948,-134.475C602.493,-125.51 654.517,-111.179 695.128,-99.9924"/>
<polygon fill="midnightblue" stroke="midnightblue" points="696.212,-103.324 704.924,-97.2942 694.353,-96.5757 696.212,-103.324"/>
</g>
<!-- Node21 -->
<g id="node21" class="node"><title>Node21</title>
<g id="a_node21"><a xlink:href="../../de/df3/ocra__assert_8h.html" target="_top" xlink:title="ocra/optim/ocra_assert.h">
<polygon fill="white" stroke="black" points="61.5,-73 61.5,-92 186.5,-92 186.5,-73 61.5,-73"/>
<text text-anchor="middle" x="124" y="-80" font-family="Helvetica,sans-Serif" font-size="10.00">ocra/optim/ocra_assert.h</text>
</a>
</g>
</g>
<!-- Node20&#45;&gt;Node21 -->
<g id="edge24" class="edge"><title>Node20&#45;&gt;Node21</title>
<path fill="none" stroke="midnightblue" d="M478.377,-135.109C388.529,-123.387 227.704,-102.289 201,-98 193.256,-96.7563 185.095,-95.3373 177.097,-93.8851"/>
<polygon fill="midnightblue" stroke="midnightblue" points="177.566,-90.4127 167.097,-92.0385 176.295,-97.2963 177.566,-90.4127"/>
</g>
<!-- Node20&#45;&gt;Node23 -->
<g id="edge26" class="edge"><title>Node20&#45;&gt;Node23</title>
<path fill="none" stroke="midnightblue" d="M551.752,-134.475C566.027,-124.931 589.397,-109.307 606.508,-97.8683"/>
<polygon fill="midnightblue" stroke="midnightblue" points="608.904,-100.477 615.272,-92.0091 605.014,-94.6572 608.904,-100.477"/>
</g>
<!-- Node24 -->
<g id="node24" class="node"><title>Node24</title>
<polygon fill="white" stroke="#bfbfbf" points="243.5,-67.5 243.5,-97.5 372.5,-97.5 372.5,-67.5 243.5,-67.5"/>
<text text-anchor="start" x="251.5" y="-85.5" font-family="Helvetica,sans-Serif" font-size="10.00">boost/type_traits/has</text>
<text text-anchor="middle" x="308" y="-74.5" font-family="Helvetica,sans-Serif" font-size="10.00">_nothrow_constructor.hpp</text>
</g>
<!-- Node20&#45;&gt;Node24 -->
<g id="edge30" class="edge"><title>Node20&#45;&gt;Node24</title>
<path fill="none" stroke="midnightblue" d="M505.903,-134.475C471.182,-125.532 415.73,-111.249 372.345,-100.074"/>
<polygon fill="midnightblue" stroke="midnightblue" points="372.999,-96.628 362.442,-97.523 371.253,-103.407 372.999,-96.628"/>
</g>
<!-- Node20&#45;&gt;Node25 -->
<g id="edge31" class="edge"><title>Node20&#45;&gt;Node25</title>
<path fill="none" stroke="midnightblue" d="M478.312,-135.04C475.164,-134.676 472.046,-134.327 469,-134 284.041,-114.135 231.374,-147.29 52,-98 50.2743,-97.5258 48.5276,-96.9544 46.7901,-96.3163"/>
<polygon fill="midnightblue" stroke="midnightblue" points="47.7184,-92.9044 37.1509,-92.1435 44.9374,-99.3283 47.7184,-92.9044"/>
</g>
<!-- Node26 -->
<g id="node26" class="node"><title>Node26</title>
<polygon fill="white" stroke="#bfbfbf" points="390.5,-73 390.5,-92 435.5,-92 435.5,-73 390.5,-73"/>
<text text-anchor="middle" x="413" y="-80" font-family="Helvetica,sans-Serif" font-size="10.00">iosfwd</text>
</g>
<!-- Node20&#45;&gt;Node26 -->
<g id="edge33" class="edge"><title>Node20&#45;&gt;Node26</title>
<path fill="none" stroke="midnightblue" d="M520.947,-134.475C499.802,-124.49 464.56,-107.848 440.122,-96.3075"/>
<polygon fill="midnightblue" stroke="midnightblue" points="441.556,-93.1143 431.019,-92.0091 438.567,-99.4441 441.556,-93.1143"/>
</g>
<!-- Node27 -->
<g id="node27" class="node"><title>Node27</title>
<polygon fill="white" stroke="#bfbfbf" points="453.5,-73 453.5,-92 512.5,-92 512.5,-73 453.5,-73"/>
<text text-anchor="middle" x="483" y="-80" font-family="Helvetica,sans-Serif" font-size="10.00">stdexcept</text>
</g>
<!-- Node20&#45;&gt;Node27 -->
<g id="edge34" class="edge"><title>Node20&#45;&gt;Node27</title>
<path fill="none" stroke="midnightblue" d="M530.977,-134.475C522.41,-125.373 508.639,-110.741 498.043,-99.483"/>
<polygon fill="midnightblue" stroke="midnightblue" points="500.411,-96.8923 491.009,-92.0091 495.314,-101.69 500.411,-96.8923"/>
</g>
<!-- Node22 -->
<g id="node22" class="node"><title>Node22</title>
<polygon fill="white" stroke="#bfbfbf" points="102.5,-6 102.5,-25 145.5,-25 145.5,-6 102.5,-6"/>
<text text-anchor="middle" x="124" y="-13" font-family="Helvetica,sans-Serif" font-size="10.00">cstdio</text>
</g>
<!-- Node21&#45;&gt;Node22 -->
<g id="edge25" class="edge"><title>Node21&#45;&gt;Node22</title>
<path fill="none" stroke="midnightblue" d="M124,-72.7338C124,-63.1826 124,-47.6183 124,-35.2829"/>
<polygon fill="midnightblue" stroke="midnightblue" points="127.5,-35.1273 124,-25.1273 120.5,-35.1273 127.5,-35.1273"/>
</g>
<!-- Node29&#45;&gt;Node8 -->
<g id="edge41" class="edge"><title>Node29&#45;&gt;Node8</title>
<path fill="none" stroke="midnightblue" d="M722.757,-190.444C744.316,-181.557 778.263,-167.563 802.794,-157.451"/>
<polygon fill="midnightblue" stroke="midnightblue" points="804.428,-160.563 812.34,-153.516 801.761,-154.092 804.428,-160.563"/>
</g>
<!-- Node29&#45;&gt;Node30 -->
<g id="edge42" class="edge"><title>Node29&#45;&gt;Node30</title>
<path fill="none" stroke="midnightblue" d="M744.148,-190.444C793.761,-180.372 875.682,-163.741 925.463,-153.635"/>
<polygon fill="midnightblue" stroke="midnightblue" points="926.169,-157.063 935.273,-151.644 924.776,-150.203 926.169,-157.063"/>
</g>
<!-- Node29&#45;&gt;Node31 -->
<g id="edge43" class="edge"><title>Node29&#45;&gt;Node31</title>
<path fill="none" stroke="midnightblue" d="M764.114,-190.444C836.692,-180.446 956.187,-163.984 1029.69,-153.858"/>
<polygon fill="midnightblue" stroke="midnightblue" points="1030.32,-157.305 1039.75,-152.473 1029.37,-150.371 1030.32,-157.305"/>
</g>
<!-- Node33 -->
<g id="node33" class="node"><title>Node33</title>
<polygon fill="white" stroke="#bfbfbf" points="1177,-134.5 1177,-153.5 1229,-153.5 1229,-134.5 1177,-134.5"/>
<text text-anchor="middle" x="1203" y="-141.5" font-family="Helvetica,sans-Serif" font-size="10.00">memory</text>
</g>
<!-- Node32&#45;&gt;Node33 -->
<g id="edge45" class="edge"><title>Node32&#45;&gt;Node33</title>
<path fill="none" stroke="midnightblue" d="M1203,-190.083C1203,-183.006 1203,-172.861 1203,-163.986"/>
<polygon fill="midnightblue" stroke="midnightblue" points="1206.5,-163.751 1203,-153.751 1199.5,-163.751 1206.5,-163.751"/>
</g>
</g>
</svg>
