<?xml version="1.0" encoding="UTF-8" standalone="no"?>
<!DOCTYPE svg PUBLIC "-//W3C//DTD SVG 1.1//EN"
 "http://www.w3.org/Graphics/SVG/1.1/DTD/svg11.dtd">
<!-- Generated by graphviz version 2.38.0 (20140413.2041)
 -->
<!-- Title: ocra::Observer Pages: 1 -->
<svg width="971pt" height="838pt"
 viewBox="0.00 0.00 971.00 838.00" xmlns="http://www.w3.org/2000/svg" xmlns:xlink="http://www.w3.org/1999/xlink">
<g id="graph0" class="graph" transform="scale(1 1) rotate(0) translate(4 834)">
<title>ocra::Observer</title>
<polygon fill="white" stroke="none" points="-4,4 -4,-834 967,-834 967,4 -4,4"/>
<!-- Node1 -->
<g id="node1" class="node"><title>Node1</title>
<polygon fill="#bfbfbf" stroke="black" points="225,-237.5 225,-256.5 306,-256.5 306,-237.5 225,-237.5"/>
<text text-anchor="middle" x="265.5" y="-244.5" font-family="Helvetica,sans-Serif" font-size="10.00">ocra::Observer</text>
</g>
<!-- Node5 -->
<g id="node5" class="node"><title>Node5</title>
<g id="a_node5"><a xlink:href="../../d3/d16/classocra_1_1ObserverSubject.html" target="_top" xlink:title="ocra::ObserverSubject">
<polygon fill="white" stroke="black" points="342,-237.5 342,-256.5 456,-256.5 456,-237.5 342,-237.5"/>
<text text-anchor="middle" x="399" y="-244.5" font-family="Helvetica,sans-Serif" font-size="10.00">ocra::ObserverSubject</text>
</a>
</g>
</g>
<!-- Node1&#45;&gt;Node5 -->
<g id="edge4" class="edge"><title>Node1&#45;&gt;Node5</title>
<path fill="none" stroke="midnightblue" d="M316.548,-247C324.812,-247 333.428,-247 341.83,-247"/>
<polygon fill="midnightblue" stroke="midnightblue" points="316.311,-243.5 306.311,-247 316.311,-250.5 316.311,-243.5"/>
</g>
<!-- Node2 -->
<g id="node2" class="node"><title>Node2</title>
<g id="a_node2"><a xlink:href="../../d4/dee/classocra_1_1ObserverBase.html" target="_top" xlink:title="ocra::ObserverBase\l\&lt; EVT_RESIZE \&gt;">
<polygon fill="white" stroke="black" points="42.5,-281 42.5,-311 146.5,-311 146.5,-281 42.5,-281"/>
<text text-anchor="start" x="50.5" y="-299" font-family="Helvetica,sans-Serif" font-size="10.00">ocra::ObserverBase</text>
<text text-anchor="middle" x="94.5" y="-288" font-family="Helvetica,sans-Serif" font-size="10.00">&lt; EVT_RESIZE &gt;</text>
</a>
</g>
</g>
<!-- Node2&#45;&gt;Node1 -->
<g id="edge1" class="edge"><title>Node2&#45;&gt;Node1</title>
<path fill="none" stroke="midnightblue" d="M156.433,-280.147C167.303,-277.194 178.505,-274.069 189,-271 204.445,-266.483 221.543,-261.082 235.556,-256.548"/>
<polygon fill="midnightblue" stroke="midnightblue" points="155.317,-276.823 146.572,-282.804 157.139,-283.582 155.317,-276.823"/>
</g>
<!-- Node3 -->
<g id="node3" class="node"><title>Node3</title>
<g id="a_node3"><a xlink:href="../../d4/dee/classocra_1_1ObserverBase.html" target="_top" xlink:title="ocra::ObserverBase\l\&lt; EVT_CHANGE_DEPENDENCIES \&gt;">
<polygon fill="white" stroke="black" points="0,-232 0,-262 189,-262 189,-232 0,-232"/>
<text text-anchor="start" x="8" y="-250" font-family="Helvetica,sans-Serif" font-size="10.00">ocra::ObserverBase</text>
<text text-anchor="middle" x="94.5" y="-239" font-family="Helvetica,sans-Serif" font-size="10.00">&lt; EVT_CHANGE_DEPENDENCIES &gt;</text>
</a>
</g>
</g>
<!-- Node3&#45;&gt;Node1 -->
<g id="edge2" class="edge"><title>Node3&#45;&gt;Node1</title>
<path fill="none" stroke="midnightblue" d="M199.526,-247C208.41,-247 216.989,-247 224.84,-247"/>
<polygon fill="midnightblue" stroke="midnightblue" points="199.39,-243.5 189.39,-247 199.39,-250.5 199.39,-243.5"/>
</g>
<!-- Node4 -->
<g id="node4" class="node"><title>Node4</title>
<g id="a_node4"><a xlink:href="../../d4/dee/classocra_1_1ObserverBase.html" target="_top" xlink:title="ocra::ObserverBase\l\&lt; EVT_CHANGE_VALUE \&gt;">
<polygon fill="white" stroke="black" points="24,-183 24,-213 165,-213 165,-183 24,-183"/>
<text text-anchor="start" x="32" y="-201" font-family="Helvetica,sans-Serif" font-size="10.00">ocra::ObserverBase</text>
<text text-anchor="middle" x="94.5" y="-190" font-family="Helvetica,sans-Serif" font-size="10.00">&lt; EVT_CHANGE_VALUE &gt;</text>
</a>
</g>
</g>
<!-- Node4&#45;&gt;Node1 -->
<g id="edge3" class="edge"><title>Node4&#45;&gt;Node1</title>
<path fill="none" stroke="midnightblue" d="M166.246,-215.611C173.946,-217.691 181.651,-219.843 189,-222 205.031,-226.706 222.774,-232.548 237.03,-237.401"/>
<polygon fill="midnightblue" stroke="midnightblue" points="167.087,-212.213 156.523,-213.02 165.284,-218.977 167.087,-212.213"/>
</g>
<!-- Node6 -->
<g id="node6" class="node"><title>Node6</title>
<g id="a_node6"><a xlink:href="../../d2/d99/classocra_1_1Function.html" target="_top" xlink:title="Function class. ">
<polygon fill="white" stroke="black" points="507,-501.5 507,-520.5 586,-520.5 586,-501.5 507,-501.5"/>
<text text-anchor="middle" x="546.5" y="-508.5" font-family="Helvetica,sans-Serif" font-size="10.00">ocra::Function</text>
</a>
</g>
</g>
<!-- Node5&#45;&gt;Node6 -->
<g id="edge5" class="edge"><title>Node5&#45;&gt;Node6</title>
<path fill="none" stroke="midnightblue" d="M410.206,-265.519C438.795,-317.392 518.964,-462.852 540.254,-501.481"/>
<polygon fill="midnightblue" stroke="midnightblue" points="413.243,-263.778 405.351,-256.709 407.113,-267.156 413.243,-263.778"/>
</g>
<!-- Node33 -->
<g id="node33" class="node"><title>Node33</title>
<g id="a_node33"><a xlink:href="../../dd/d9c/classocra_1_1MergedVariable.html" target="_top" xlink:title="ocra::MergedVariable">
<polygon fill="white" stroke="black" points="492,-294.5 492,-313.5 601,-313.5 601,-294.5 492,-294.5"/>
<text text-anchor="middle" x="546.5" y="-301.5" font-family="Helvetica,sans-Serif" font-size="10.00">ocra::MergedVariable</text>
</a>
</g>
</g>
<!-- Node5&#45;&gt;Node33 -->
<g id="edge32" class="edge"><title>Node5&#45;&gt;Node33</title>
<path fill="none" stroke="midnightblue" d="M431.47,-260.459C449.168,-267.912 471.717,-277.215 492,-285 500.282,-288.179 509.353,-291.471 517.635,-294.403"/>
<polygon fill="midnightblue" stroke="midnightblue" points="432.756,-257.203 422.183,-256.531 430.029,-263.65 432.756,-257.203"/>
</g>
<!-- Node34 -->
<g id="node34" class="node"><title>Node34</title>
<g id="a_node34"><a xlink:href="../../d4/d00/classocra_1_1Model.html" target="_top" xlink:title="Model class. ">
<polygon fill="white" stroke="black" points="512.5,-256.5 512.5,-275.5 580.5,-275.5 580.5,-256.5 512.5,-256.5"/>
<text text-anchor="middle" x="546.5" y="-263.5" font-family="Helvetica,sans-Serif" font-size="10.00">ocra::Model</text>
</a>
</g>
</g>
<!-- Node5&#45;&gt;Node34 -->
<g id="edge33" class="edge"><title>Node5&#45;&gt;Node34</title>
<path fill="none" stroke="midnightblue" d="M466.547,-255.69C482.345,-257.753 498.536,-259.867 512.111,-261.64"/>
<polygon fill="midnightblue" stroke="midnightblue" points="466.623,-252.17 456.254,-254.346 465.717,-259.111 466.623,-252.17"/>
</g>
<!-- Node36 -->
<g id="node36" class="node"><title>Node36</title>
<g id="a_node36"><a xlink:href="../../d8/d4c/classocra_1_1ModelContacts.html" target="_top" xlink:title="ModelContacts class. ">
<polygon fill="white" stroke="black" points="493,-218.5 493,-237.5 600,-237.5 600,-218.5 493,-218.5"/>
<text text-anchor="middle" x="546.5" y="-225.5" font-family="Helvetica,sans-Serif" font-size="10.00">ocra::ModelContacts</text>
</a>
</g>
</g>
<!-- Node5&#45;&gt;Node36 -->
<g id="edge35" class="edge"><title>Node5&#45;&gt;Node36</title>
<path fill="none" stroke="midnightblue" d="M466.207,-238.354C475.097,-237.193 484.119,-236.015 492.735,-234.89"/>
<polygon fill="midnightblue" stroke="midnightblue" points="465.717,-234.889 456.254,-239.654 466.623,-241.83 465.717,-234.889"/>
</g>
<!-- Node37 -->
<g id="node37" class="node"><title>Node37</title>
<g id="a_node37"><a xlink:href="../../d6/dd3/classocra_1_1Solver.html" target="_top" xlink:title="Solver class. ">
<polygon fill="white" stroke="black" points="512,-161.5 512,-180.5 581,-180.5 581,-161.5 512,-161.5"/>
<text text-anchor="middle" x="546.5" y="-168.5" font-family="Helvetica,sans-Serif" font-size="10.00">ocra::Solver</text>
</a>
</g>
</g>
<!-- Node5&#45;&gt;Node37 -->
<g id="edge36" class="edge"><title>Node5&#45;&gt;Node37</title>
<path fill="none" stroke="midnightblue" d="M427.294,-232.744C456.51,-217.483 502.048,-193.697 527.222,-180.547"/>
<polygon fill="midnightblue" stroke="midnightblue" points="425.671,-229.642 418.428,-237.375 428.912,-235.847 425.671,-229.642"/>
</g>
<!-- Node47 -->
<g id="node47" class="node"><title>Node47</title>
<g id="a_node47"><a xlink:href="../../d2/dac/classocra_1_1Variable.html" target="_top" xlink:title="This class represents a variable in a mathematical sense. ">
<polygon fill="white" stroke="black" points="508,-38.5 508,-57.5 585,-57.5 585,-38.5 508,-38.5"/>
<text text-anchor="middle" x="546.5" y="-45.5" font-family="Helvetica,sans-Serif" font-size="10.00">ocra::Variable</text>
</a>
</g>
</g>
<!-- Node5&#45;&gt;Node47 -->
<g id="edge46" class="edge"><title>Node5&#45;&gt;Node47</title>
<path fill="none" stroke="midnightblue" d="M413.031,-229.178C442.952,-188.255 515.751,-88.6875 538.553,-57.5019"/>
<polygon fill="midnightblue" stroke="midnightblue" points="410.095,-227.264 407.018,-237.402 415.745,-231.395 410.095,-227.264"/>
</g>
<!-- Node7 -->
<g id="node7" class="node"><title>Node7</title>
<g id="a_node7"><a xlink:href="../../d1/d44/classFunction1.html" target="_top" xlink:title="Function1">
<polygon fill="white" stroke="black" points="671.5,-710.5 671.5,-729.5 730.5,-729.5 730.5,-710.5 671.5,-710.5"/>
<text text-anchor="middle" x="701" y="-717.5" font-family="Helvetica,sans-Serif" font-size="10.00">Function1</text>
</a>
</g>
</g>
<!-- Node6&#45;&gt;Node7 -->
<g id="edge6" class="edge"><title>Node6&#45;&gt;Node7</title>
<path fill="none" stroke="midnightblue" d="M551.181,-530.446C559.468,-568.827 583.222,-654.613 637,-701 646.516,-709.208 659.486,-713.87 671.184,-716.518"/>
<polygon fill="midnightblue" stroke="midnightblue" points="554.591,-529.649 549.165,-520.549 547.732,-531.046 554.591,-529.649"/>
</g>
<!-- Node8 -->
<g id="node8" class="node"><title>Node8</title>
<g id="a_node8"><a xlink:href="../../d6/d7e/classFunction2.html" target="_top" xlink:title="Function2">
<polygon fill="white" stroke="black" points="671.5,-672.5 671.5,-691.5 730.5,-691.5 730.5,-672.5 671.5,-672.5"/>
<text text-anchor="middle" x="701" y="-679.5" font-family="Helvetica,sans-Serif" font-size="10.00">Function2</text>
</a>
</g>
</g>
<!-- Node6&#45;&gt;Node8 -->
<g id="edge7" class="edge"><title>Node6&#45;&gt;Node8</title>
<path fill="none" stroke="midnightblue" d="M553.708,-530.531C565.003,-562.914 591.994,-627.652 637,-663 646.793,-670.691 659.668,-675.278 671.225,-678.008"/>
<polygon fill="midnightblue" stroke="midnightblue" points="556.97,-529.249 550.476,-520.878 550.332,-531.472 556.97,-529.249"/>
</g>
<!-- Node9 -->
<g id="node9" class="node"><title>Node9</title>
<g id="a_node9"><a xlink:href="../../d9/d4a/classFunction3.html" target="_top" xlink:title="Function3">
<polygon fill="white" stroke="black" points="671.5,-634.5 671.5,-653.5 730.5,-653.5 730.5,-634.5 671.5,-634.5"/>
<text text-anchor="middle" x="701" y="-641.5" font-family="Helvetica,sans-Serif" font-size="10.00">Function3</text>
</a>
</g>
</g>
<!-- Node6&#45;&gt;Node9 -->
<g id="edge8" class="edge"><title>Node6&#45;&gt;Node9</title>
<path fill="none" stroke="midnightblue" d="M557.194,-529.503C571.37,-554.778 600.126,-599.824 637,-625 647.19,-631.957 659.994,-636.426 671.394,-639.267"/>
<polygon fill="midnightblue" stroke="midnightblue" points="560.189,-527.686 552.334,-520.576 554.041,-531.032 560.189,-527.686"/>
</g>
<!-- Node10 -->
<g id="node10" class="node"><title>Node10</title>
<g id="a_node10"><a xlink:href="../../db/d8c/classMyFunction.html" target="_top" xlink:title="MyFunction">
<polygon fill="white" stroke="black" points="667,-596.5 667,-615.5 735,-615.5 735,-596.5 667,-596.5"/>
<text text-anchor="middle" x="701" y="-603.5" font-family="Helvetica,sans-Serif" font-size="10.00">MyFunction</text>
</a>
</g>
</g>
<!-- Node6&#45;&gt;Node10 -->
<g id="edge9" class="edge"><title>Node6&#45;&gt;Node10</title>
<path fill="none" stroke="midnightblue" d="M563.512,-528.243C580.31,-545.391 608.227,-571.339 637,-587 646.231,-592.025 656.964,-595.892 666.927,-598.784"/>
<polygon fill="midnightblue" stroke="midnightblue" points="565.649,-525.415 556.204,-520.616 560.595,-530.258 565.649,-525.415"/>
</g>
<!-- Node11 -->
<g id="node11" class="node"><title>Node11</title>
<g id="a_node11"><a xlink:href="../../db/da4/classocra_1_1DotProductFunction.html" target="_top" xlink:title="DotProductFunction class. ">
<polygon fill="white" stroke="black" points="637,-558.5 637,-577.5 765,-577.5 765,-558.5 637,-558.5"/>
<text text-anchor="middle" x="701" y="-565.5" font-family="Helvetica,sans-Serif" font-size="10.00">ocra::DotProductFunction</text>
</a>
</g>
</g>
<!-- Node6&#45;&gt;Node11 -->
<g id="edge10" class="edge"><title>Node6&#45;&gt;Node11</title>
<path fill="none" stroke="midnightblue" d="M577.733,-524.805C594.927,-532.41 616.964,-541.749 637,-549 646.238,-552.343 656.38,-555.584 665.774,-558.415"/>
<polygon fill="midnightblue" stroke="midnightblue" points="578.78,-521.439 568.222,-520.557 575.925,-527.831 578.78,-521.439"/>
</g>
<!-- Node12 -->
<g id="node12" class="node"><title>Node12</title>
<g id="a_node12"><a xlink:href="../../de/d3a/classocra_1_1LinearFunction.html" target="_top" xlink:title="LinearFunction class. ">
<polygon fill="white" stroke="black" points="648.5,-520.5 648.5,-539.5 753.5,-539.5 753.5,-520.5 648.5,-520.5"/>
<text text-anchor="middle" x="701" y="-527.5" font-family="Helvetica,sans-Serif" font-size="10.00">ocra::LinearFunction</text>
</a>
</g>
</g>
<!-- Node6&#45;&gt;Node12 -->
<g id="edge11" class="edge"><title>Node6&#45;&gt;Node12</title>
<path fill="none" stroke="midnightblue" d="M596.392,-517.091C612.942,-519.153 631.475,-521.462 648.24,-523.551"/>
<polygon fill="midnightblue" stroke="midnightblue" points="596.733,-513.607 586.377,-515.844 595.867,-520.553 596.733,-513.607"/>
</g>
<!-- Node25 -->
<g id="node25" class="node"><title>Node25</title>
<g id="a_node25"><a xlink:href="../../dd/d93/classocra_1_1Pb114G10.html" target="_top" xlink:title="ocra::Pb114G10">
<polygon fill="white" stroke="black" points="657.5,-482.5 657.5,-501.5 744.5,-501.5 744.5,-482.5 657.5,-482.5"/>
<text text-anchor="middle" x="701" y="-489.5" font-family="Helvetica,sans-Serif" font-size="10.00">ocra::Pb114G10</text>
</a>
</g>
</g>
<!-- Node6&#45;&gt;Node25 -->
<g id="edge24" class="edge"><title>Node6&#45;&gt;Node25</title>
<path fill="none" stroke="midnightblue" d="M596.366,-504.912C616.018,-502.463 638.47,-499.666 657.439,-497.303"/>
<polygon fill="midnightblue" stroke="midnightblue" points="595.867,-501.447 586.377,-506.156 596.733,-508.393 595.867,-501.447"/>
</g>
<!-- Node26 -->
<g id="node26" class="node"><title>Node26</title>
<g id="a_node26"><a xlink:href="../../da/d6c/classocra_1_1Pb114G11.html" target="_top" xlink:title="ocra::Pb114G11">
<polygon fill="white" stroke="black" points="657.5,-444.5 657.5,-463.5 744.5,-463.5 744.5,-444.5 657.5,-444.5"/>
<text text-anchor="middle" x="701" y="-451.5" font-family="Helvetica,sans-Serif" font-size="10.00">ocra::Pb114G11</text>
</a>
</g>
</g>
<!-- Node6&#45;&gt;Node26 -->
<g id="edge25" class="edge"><title>Node6&#45;&gt;Node26</title>
<path fill="none" stroke="midnightblue" d="M577.733,-497.195C594.927,-489.59 616.964,-480.251 637,-473 646.238,-469.657 656.38,-466.416 665.774,-463.585"/>
<polygon fill="midnightblue" stroke="midnightblue" points="575.925,-494.169 568.222,-501.443 578.78,-500.561 575.925,-494.169"/>
</g>
<!-- Node27 -->
<g id="node27" class="node"><title>Node27</title>
<g id="a_node27"><a xlink:href="../../d9/df1/classocra_1_1Pb114G5.html" target="_top" xlink:title="ocra::Pb114G5">
<polygon fill="white" stroke="black" points="660,-406.5 660,-425.5 742,-425.5 742,-406.5 660,-406.5"/>
<text text-anchor="middle" x="701" y="-413.5" font-family="Helvetica,sans-Serif" font-size="10.00">ocra::Pb114G5</text>
</a>
</g>
</g>
<!-- Node6&#45;&gt;Node27 -->
<g id="edge26" class="edge"><title>Node6&#45;&gt;Node27</title>
<path fill="none" stroke="midnightblue" d="M563.512,-493.757C580.31,-476.609 608.227,-450.661 637,-435 644.024,-431.177 651.917,-428.024 659.679,-425.461"/>
<polygon fill="midnightblue" stroke="midnightblue" points="560.595,-491.742 556.204,-501.384 565.649,-496.585 560.595,-491.742"/>
</g>
<!-- Node28 -->
<g id="node28" class="node"><title>Node28</title>
<g id="a_node28"><a xlink:href="../../d9/d7e/classocra_1_1QuadraticFunction.html" target="_top" xlink:title="QuadraticFunction class. ">
<polygon fill="white" stroke="black" points="640.5,-342.5 640.5,-361.5 761.5,-361.5 761.5,-342.5 640.5,-342.5"/>
<text text-anchor="middle" x="701" y="-349.5" font-family="Helvetica,sans-Serif" font-size="10.00">ocra::QuadraticFunction</text>
</a>
</g>
</g>
<!-- Node6&#45;&gt;Node28 -->
<g id="edge27" class="edge"><title>Node6&#45;&gt;Node28</title>
<path fill="none" stroke="midnightblue" d="M559.204,-493.039C575.101,-469.427 605.202,-427.388 637,-397 651.576,-383.07 670.7,-370.015 684.038,-361.592"/>
<polygon fill="midnightblue" stroke="midnightblue" points="556.27,-491.13 553.654,-501.397 562.102,-495.003 556.27,-491.13"/>
</g>
<!-- Node32 -->
<g id="node32" class="node"><title>Node32</title>
<g id="a_node32"><a xlink:href="../../df/d5a/classocra_1_1SubtractionFunction.html" target="_top" xlink:title="SubtractionFunction class. ">
<polygon fill="white" stroke="black" points="637,-304.5 637,-323.5 765,-323.5 765,-304.5 637,-304.5"/>
<text text-anchor="middle" x="701" y="-311.5" font-family="Helvetica,sans-Serif" font-size="10.00">ocra::SubtractionFunction</text>
</a>
</g>
</g>
<!-- Node6&#45;&gt;Node32 -->
<g id="edge31" class="edge"><title>Node6&#45;&gt;Node32</title>
<path fill="none" stroke="midnightblue" d="M551.934,-491.271C561.203,-454.592 586.126,-375.756 637,-333 641.635,-329.104 647.051,-326.008 652.727,-323.546"/>
<polygon fill="midnightblue" stroke="midnightblue" points="548.478,-490.673 549.548,-501.214 555.285,-492.306 548.478,-490.673"/>
</g>
<!-- Node13 -->
<g id="node13" class="node"><title>Node13</title>
<g id="a_node13"><a xlink:href="../../d4/d45/classocra_1_1ContactAvoidanceFunction.html" target="_top" xlink:title="Create a linear function that represents the joint limit function. ">
<polygon fill="white" stroke="red" points="802.5,-810.5 802.5,-829.5 961.5,-829.5 961.5,-810.5 802.5,-810.5"/>
<text text-anchor="middle" x="882" y="-817.5" font-family="Helvetica,sans-Serif" font-size="10.00">ocra::ContactAvoidanceFunction</text>
</a>
</g>
</g>
<!-- Node12&#45;&gt;Node13 -->
<g id="edge12" class="edge"><title>Node12&#45;&gt;Node13</title>
<path fill="none" stroke="midnightblue" d="M761.724,-545.641C762.881,-546.69 763.976,-547.809 765,-549 838.737,-634.807 724.733,-717.433 801,-801 804.464,-804.796 808.536,-807.9 812.977,-810.432"/>
<polygon fill="midnightblue" stroke="midnightblue" points="763.495,-542.606 753.316,-539.666 759.44,-548.312 763.495,-542.606"/>
</g>
<!-- Node14 -->
<g id="node14" class="node"><title>Node14</title>
<g id="a_node14"><a xlink:href="../../d3/d89/classocra_1_1DiagonalLinearFunction.html" target="_top" xlink:title="DiagonalLinearFunction class. ">
<polygon fill="white" stroke="red" points="810.5,-772.5 810.5,-791.5 953.5,-791.5 953.5,-772.5 810.5,-772.5"/>
<text text-anchor="middle" x="882" y="-779.5" font-family="Helvetica,sans-Serif" font-size="10.00">ocra::DiagonalLinearFunction</text>
</a>
</g>
</g>
<!-- Node12&#45;&gt;Node14 -->
<g id="edge13" class="edge"><title>Node12&#45;&gt;Node14</title>
<path fill="none" stroke="midnightblue" d="M761.244,-545.289C762.575,-546.439 763.832,-547.674 765,-549 828.761,-621.365 735.107,-692.571 801,-763 804.511,-766.753 808.617,-769.826 813.08,-772.336"/>
<polygon fill="midnightblue" stroke="midnightblue" points="763.146,-542.349 752.918,-539.584 759.189,-548.124 763.146,-542.349"/>
</g>
<!-- Node15 -->
<g id="node15" class="node"><title>Node15</title>
<g id="a_node15"><a xlink:href="../../d4/d5c/classocra_1_1DoubleDiagonalLinearFunction.html" target="_top" xlink:title="DoubleDiagonalLinearFunction class. ">
<polygon fill="white" stroke="black" points="813.5,-723 813.5,-753 950.5,-753 950.5,-723 813.5,-723"/>
<text text-anchor="start" x="821.5" y="-741" font-family="Helvetica,sans-Serif" font-size="10.00">ocra::DoubleDiagonalLinear</text>
<text text-anchor="middle" x="882" y="-730" font-family="Helvetica,sans-Serif" font-size="10.00">Function</text>
</a>
</g>
</g>
<!-- Node12&#45;&gt;Node15 -->
<g id="edge14" class="edge"><title>Node12&#45;&gt;Node15</title>
<path fill="none" stroke="midnightblue" d="M761.067,-545.291C762.457,-546.44 763.773,-547.675 765,-549 815.702,-603.755 750.572,-657.993 801,-713 804.54,-716.861 808.666,-720.131 813.144,-722.899"/>
<polygon fill="midnightblue" stroke="midnightblue" points="762.697,-542.174 752.421,-539.596 758.847,-548.02 762.697,-542.174"/>
</g>
<!-- Node16 -->
<g id="node16" class="node"><title>Node16</title>
<g id="a_node16"><a xlink:href="../../d9/da6/classocra_1_1DynamicEquationFunction.html" target="_top" xlink:title="DynamicEquationFunction class. ">
<polygon fill="white" stroke="black" points="804,-684.5 804,-703.5 960,-703.5 960,-684.5 804,-684.5"/>
<text text-anchor="middle" x="882" y="-691.5" font-family="Helvetica,sans-Serif" font-size="10.00">ocra::DynamicEquationFunction</text>
</a>
</g>
</g>
<!-- Node12&#45;&gt;Node16 -->
<g id="edge15" class="edge"><title>Node12&#45;&gt;Node16</title>
<path fill="none" stroke="midnightblue" d="M760.363,-544.938C762.002,-546.186 763.555,-547.537 765,-549 805.624,-590.135 759.402,-633.85 801,-674 805.429,-678.275 810.628,-681.678 816.212,-684.382"/>
<polygon fill="midnightblue" stroke="midnightblue" points="761.906,-541.778 751.555,-539.52 758.239,-547.74 761.906,-541.778"/>
</g>
<!-- Node17 -->
<g id="node17" class="node"><title>Node17</title>
<g id="a_node17"><a xlink:href="../../de/ddd/classocra_1_1FullDynamicEquationFunction.html" target="_top" xlink:title="Create a linear function that represents the dynamic equation of motion. ">
<polygon fill="white" stroke="black" points="815,-635 815,-665 949,-665 949,-635 815,-635"/>
<text text-anchor="start" x="823" y="-653" font-family="Helvetica,sans-Serif" font-size="10.00">ocra::FullDynamicEquation</text>
<text text-anchor="middle" x="882" y="-642" font-family="Helvetica,sans-Serif" font-size="10.00">Function</text>
</a>
</g>
</g>
<!-- Node12&#45;&gt;Node17 -->
<g id="edge16" class="edge"><title>Node12&#45;&gt;Node17</title>
<path fill="none" stroke="midnightblue" d="M758.69,-544.354C760.913,-545.76 763.03,-547.305 765,-549 793.328,-573.382 772.794,-600.477 801,-625 805.393,-628.819 810.366,-632.055 815.63,-634.796"/>
<polygon fill="midnightblue" stroke="midnightblue" points="760.156,-541.17 749.681,-539.584 756.881,-547.357 760.156,-541.17"/>
</g>
<!-- Node18 -->
<g id="node18" class="node"><title>Node18</title>
<g id="a_node18"><a xlink:href="../../df/de0/classocra_1_1JointLimitFunction.html" target="_top" xlink:title="Create a linear function that represents the joint limit function. ">
<polygon fill="white" stroke="red" points="821.5,-596.5 821.5,-615.5 942.5,-615.5 942.5,-596.5 821.5,-596.5"/>
<text text-anchor="middle" x="882" y="-603.5" font-family="Helvetica,sans-Serif" font-size="10.00">ocra::JointLimitFunction</text>
</a>
</g>
</g>
<!-- Node12&#45;&gt;Node18 -->
<g id="edge17" class="edge"><title>Node12&#45;&gt;Node18</title>
<path fill="none" stroke="midnightblue" d="M754.181,-543.339C757.947,-545.021 761.597,-546.901 765,-549 784.801,-561.213 780.843,-575.384 801,-587 807.679,-590.849 815.1,-593.92 822.652,-596.369"/>
<polygon fill="midnightblue" stroke="midnightblue" points="755.241,-539.994 744.655,-539.554 752.656,-546.499 755.241,-539.994"/>
</g>
<!-- Node19 -->
<g id="node19" class="node"><title>Node19</title>
<g id="a_node19"><a xlink:href="../../d0/dd6/classocra_1_1LinearizedCoulombFunction.html" target="_top" xlink:title="LinearizedCoulombFunction class. ">
<polygon fill="white" stroke="black" points="801,-558.5 801,-577.5 963,-577.5 963,-558.5 801,-558.5"/>
<text text-anchor="middle" x="882" y="-565.5" font-family="Helvetica,sans-Serif" font-size="10.00">ocra::LinearizedCoulombFunction</text>
</a>
</g>
</g>
<!-- Node12&#45;&gt;Node19 -->
<g id="edge18" class="edge"><title>Node12&#45;&gt;Node19</title>
<path fill="none" stroke="midnightblue" d="M757.024,-541.681C782.408,-547.07 812.161,-553.386 836.156,-558.48"/>
<polygon fill="midnightblue" stroke="midnightblue" points="757.678,-538.242 747.169,-539.589 756.224,-545.089 757.678,-538.242"/>
</g>
<!-- Node20 -->
<g id="node20" class="node"><title>Node20</title>
<g id="a_node20"><a xlink:href="../../dd/d16/classocra_1_1LinearTask.html" target="_top" xlink:title="LinearTask class. ">
<polygon fill="white" stroke="black" points="837.5,-520.5 837.5,-539.5 926.5,-539.5 926.5,-520.5 837.5,-520.5"/>
<text text-anchor="middle" x="882" y="-527.5" font-family="Helvetica,sans-Serif" font-size="10.00">ocra::LinearTask</text>
</a>
</g>
</g>
<!-- Node12&#45;&gt;Node20 -->
<g id="edge19" class="edge"><title>Node12&#45;&gt;Node20</title>
<path fill="none" stroke="midnightblue" d="M763.915,-530C788.055,-530 815.163,-530 837.212,-530"/>
<polygon fill="midnightblue" stroke="midnightblue" points="763.774,-526.5 753.774,-530 763.774,-533.5 763.774,-526.5"/>
</g>
<!-- Node21 -->
<g id="node21" class="node"><title>Node21</title>
<g id="a_node21"><a xlink:href="../../dd/dda/classocra_1_1SecondOrderLinearTask.html" target="_top" xlink:title="SecondOrderLinearTask class. ">
<polygon fill="white" stroke="black" points="809,-482.5 809,-501.5 955,-501.5 955,-482.5 809,-482.5"/>
<text text-anchor="middle" x="882" y="-489.5" font-family="Helvetica,sans-Serif" font-size="10.00">ocra::SecondOrderLinearTask</text>
</a>
</g>
</g>
<!-- Node12&#45;&gt;Node21 -->
<g id="edge20" class="edge"><title>Node12&#45;&gt;Node21</title>
<path fill="none" stroke="midnightblue" d="M757.024,-518.319C782.408,-512.93 812.161,-506.614 836.156,-501.52"/>
<polygon fill="midnightblue" stroke="midnightblue" points="756.224,-514.911 747.169,-520.411 757.678,-521.758 756.224,-514.911"/>
</g>
<!-- Node22 -->
<g id="node22" class="node"><title>Node22</title>
<g id="a_node22"><a xlink:href="../../d0/d8f/classocra_1_1SumOfLinearFunctions.html" target="_top" xlink:title="ocra::SumOfLinearFunctions">
<polygon fill="white" stroke="black" points="811.5,-444.5 811.5,-463.5 952.5,-463.5 952.5,-444.5 811.5,-444.5"/>
<text text-anchor="middle" x="882" y="-451.5" font-family="Helvetica,sans-Serif" font-size="10.00">ocra::SumOfLinearFunctions</text>
</a>
</g>
</g>
<!-- Node12&#45;&gt;Node22 -->
<g id="edge21" class="edge"><title>Node12&#45;&gt;Node22</title>
<path fill="none" stroke="midnightblue" d="M754.181,-516.661C757.947,-514.979 761.597,-513.099 765,-511 784.801,-498.787 780.843,-484.616 801,-473 807.679,-469.151 815.1,-466.08 822.652,-463.631"/>
<polygon fill="midnightblue" stroke="midnightblue" points="752.656,-513.501 744.655,-520.446 755.241,-520.006 752.656,-513.501"/>
</g>
<!-- Node23 -->
<g id="node23" class="node"><title>Node23</title>
<g id="a_node23"><a xlink:href="../../dd/d3d/classocra_1_1TorqueLimitFunction.html" target="_top" xlink:title="Create a linear function that represents the torque limit function. ">
<polygon fill="white" stroke="black" points="817,-406.5 817,-425.5 947,-425.5 947,-406.5 817,-406.5"/>
<text text-anchor="middle" x="882" y="-413.5" font-family="Helvetica,sans-Serif" font-size="10.00">ocra::TorqueLimitFunction</text>
</a>
</g>
</g>
<!-- Node12&#45;&gt;Node23 -->
<g id="edge22" class="edge"><title>Node12&#45;&gt;Node23</title>
<path fill="none" stroke="midnightblue" d="M758.69,-515.646C760.913,-514.24 763.03,-512.695 765,-511 793.328,-486.618 771.957,-458.525 801,-435 805.77,-431.136 811.195,-428.035 816.919,-425.548"/>
<polygon fill="midnightblue" stroke="midnightblue" points="756.881,-512.643 749.681,-520.416 760.156,-518.83 756.881,-512.643"/>
</g>
<!-- Node24 -->
<g id="node24" class="node"><title>Node24</title>
<g id="a_node24"><a xlink:href="../../d7/d46/classocra_1_1VariableChiFunction.html" target="_top" xlink:title="ocra::VariableChiFunction">
<polygon fill="white" stroke="black" points="817.5,-368.5 817.5,-387.5 946.5,-387.5 946.5,-368.5 817.5,-368.5"/>
<text text-anchor="middle" x="882" y="-375.5" font-family="Helvetica,sans-Serif" font-size="10.00">ocra::VariableChiFunction</text>
</a>
</g>
</g>
<!-- Node12&#45;&gt;Node24 -->
<g id="edge23" class="edge"><title>Node12&#45;&gt;Node24</title>
<path fill="none" stroke="midnightblue" d="M760.315,-515.014C761.967,-513.78 763.537,-512.445 765,-511 802.813,-473.674 762.089,-433.18 801,-397 805.704,-392.626 811.227,-389.202 817.134,-386.53"/>
<polygon fill="midnightblue" stroke="midnightblue" points="758.195,-512.206 751.457,-520.383 761.823,-518.193 758.195,-512.206"/>
</g>
<!-- Node29 -->
<g id="node29" class="node"><title>Node29</title>
<g id="a_node29"><a xlink:href="../../d3/d16/classocra_1_1FcQuadraticFunction.html" target="_top" xlink:title="ocra::FcQuadraticFunction">
<polygon fill="white" stroke="black" points="816,-330.5 816,-349.5 948,-349.5 948,-330.5 816,-330.5"/>
<text text-anchor="middle" x="882" y="-337.5" font-family="Helvetica,sans-Serif" font-size="10.00">ocra::FcQuadraticFunction</text>
</a>
</g>
</g>
<!-- Node28&#45;&gt;Node29 -->
<g id="edge28" class="edge"><title>Node28&#45;&gt;Node29</title>
<path fill="none" stroke="midnightblue" d="M771.966,-347.31C786.401,-346.342 801.548,-345.326 815.805,-344.371"/>
<polygon fill="midnightblue" stroke="midnightblue" points="771.348,-343.843 761.604,-348.004 771.816,-350.827 771.348,-343.843"/>
</g>
<!-- Node30 -->
<g id="node30" class="node"><title>Node30</title>
<g id="a_node30"><a xlink:href="../../df/dfc/classocra_1_1SquaredLinearFunction.html" target="_top" xlink:title="SquaredLinearFunction class. ">
<polygon fill="white" stroke="black" points="811.5,-292.5 811.5,-311.5 952.5,-311.5 952.5,-292.5 811.5,-292.5"/>
<text text-anchor="middle" x="882" y="-299.5" font-family="Helvetica,sans-Serif" font-size="10.00">ocra::SquaredLinearFunction</text>
</a>
</g>
</g>
<!-- Node28&#45;&gt;Node30 -->
<g id="edge29" class="edge"><title>Node28&#45;&gt;Node30</title>
<path fill="none" stroke="midnightblue" d="M744.364,-339.406C751.272,-337.3 758.343,-335.113 765,-333 781.075,-327.898 784.78,-325.62 801,-321 812.807,-317.637 825.71,-314.39 837.639,-311.559"/>
<polygon fill="midnightblue" stroke="midnightblue" points="742.985,-336.167 734.429,-342.415 745.014,-342.866 742.985,-336.167"/>
</g>
<!-- Node31 -->
<g id="node31" class="node"><title>Node31</title>
<g id="a_node31"><a xlink:href="../../d2/d31/classocra_1_1WeightedSquareDistanceFunction.html" target="_top" xlink:title="WeightedSquareDistanceFunction class. ">
<polygon fill="white" stroke="black" points="806,-243 806,-273 958,-273 958,-243 806,-243"/>
<text text-anchor="start" x="814" y="-261" font-family="Helvetica,sans-Serif" font-size="10.00">ocra::WeightedSquareDistance</text>
<text text-anchor="middle" x="882" y="-250" font-family="Helvetica,sans-Serif" font-size="10.00">Function</text>
</a>
</g>
</g>
<!-- Node28&#45;&gt;Node31 -->
<g id="edge30" class="edge"><title>Node28&#45;&gt;Node31</title>
<path fill="none" stroke="midnightblue" d="M756.397,-338.216C759.409,-336.657 762.303,-334.925 765,-333 787.289,-317.093 778.791,-299.018 801,-283 806.311,-279.17 812.227,-275.913 818.37,-273.148"/>
<polygon fill="midnightblue" stroke="midnightblue" points="754.777,-335.106 747.085,-342.392 757.642,-341.493 754.777,-335.106"/>
</g>
<!-- Node35 -->
<g id="node35" class="node"><title>Node35</title>
<g id="a_node35"><a xlink:href="../../d3/d33/classModel3T.html" target="_top" xlink:title="Model3T">
<polygon fill="white" stroke="black" points="674,-266.5 674,-285.5 728,-285.5 728,-266.5 674,-266.5"/>
<text text-anchor="middle" x="701" y="-273.5" font-family="Helvetica,sans-Serif" font-size="10.00">Model3T</text>
</a>
</g>
</g>
<!-- Node34&#45;&gt;Node35 -->
<g id="edge34" class="edge"><title>Node34&#45;&gt;Node35</title>
<path fill="none" stroke="midnightblue" d="M590.816,-268.84C617.476,-270.589 650.787,-272.773 673.559,-274.266"/>
<polygon fill="midnightblue" stroke="midnightblue" points="590.798,-265.332 580.59,-268.17 590.34,-272.317 590.798,-265.332"/>
</g>
<!-- Node38 -->
<g id="node38" class="node"><title>Node38</title>
<g id="a_node38"><a xlink:href="../../d6/d35/classocra_1_1CascadeQPSolver.html" target="_top" xlink:title="CascadeQPSolver class. ">
<polygon fill="white" stroke="black" points="640,-228.5 640,-247.5 762,-247.5 762,-228.5 640,-228.5"/>
<text text-anchor="middle" x="701" y="-235.5" font-family="Helvetica,sans-Serif" font-size="10.00">ocra::CascadeQPSolver</text>
</a>
</g>
</g>
<!-- Node37&#45;&gt;Node38 -->
<g id="edge37" class="edge"><title>Node37&#45;&gt;Node38</title>
<path fill="none" stroke="midnightblue" d="M572.223,-185.99C589.839,-196.236 614.321,-209.609 637,-219 645.55,-222.54 654.996,-225.742 663.916,-228.466"/>
<polygon fill="midnightblue" stroke="midnightblue" points="573.589,-182.732 563.198,-180.664 570.032,-188.761 573.589,-182.732"/>
</g>
<!-- Node39 -->
<g id="node39" class="node"><title>Node39</title>
<g id="a_node39"><a xlink:href="../../dc/d6e/classocra_1_1FSQPSolver.html" target="_top" xlink:title="FSQPSolver class. ">
<polygon fill="white" stroke="black" points="653,-190.5 653,-209.5 749,-209.5 749,-190.5 653,-190.5"/>
<text text-anchor="middle" x="701" y="-197.5" font-family="Helvetica,sans-Serif" font-size="10.00">ocra::FSQPSolver</text>
</a>
</g>
</g>
<!-- Node37&#45;&gt;Node39 -->
<g id="edge38" class="edge"><title>Node37&#45;&gt;Node39</title>
<path fill="none" stroke="midnightblue" d="M591.373,-179.343C610.651,-183.009 633.32,-187.32 652.949,-191.053"/>
<polygon fill="midnightblue" stroke="midnightblue" points="591.823,-175.866 581.345,-177.436 590.515,-182.743 591.823,-175.866"/>
</g>
<!-- Node40 -->
<g id="node40" class="node"><title>Node40</title>
<g id="a_node40"><a xlink:href="../../d2/d07/classocra_1_1NewtonSolver.html" target="_top" xlink:title="NewtonSolver class. ">
<polygon fill="white" stroke="black" points="649.5,-152.5 649.5,-171.5 752.5,-171.5 752.5,-152.5 649.5,-152.5"/>
<text text-anchor="middle" x="701" y="-159.5" font-family="Helvetica,sans-Serif" font-size="10.00">ocra::NewtonSolver</text>
</a>
</g>
</g>
<!-- Node37&#45;&gt;Node40 -->
<g id="edge39" class="edge"><title>Node37&#45;&gt;Node40</title>
<path fill="none" stroke="midnightblue" d="M591.36,-168.412C609.504,-167.341 630.653,-166.093 649.445,-164.984"/>
<polygon fill="midnightblue" stroke="midnightblue" points="591.121,-164.919 581.345,-169.003 591.534,-171.907 591.121,-164.919"/>
</g>
<!-- Node41 -->
<g id="node41" class="node"><title>Node41</title>
<g id="a_node41"><a xlink:href="../../d2/d5e/classocra_1_1OneLevelSolver.html" target="_top" xlink:title="A generic abstract class the solvers that can be used in the wOcra Controller. ">
<polygon fill="white" stroke="black" points="646,-114.5 646,-133.5 756,-133.5 756,-114.5 646,-114.5"/>
<text text-anchor="middle" x="701" y="-121.5" font-family="Helvetica,sans-Serif" font-size="10.00">ocra::OneLevelSolver</text>
</a>
</g>
</g>
<!-- Node37&#45;&gt;Node41 -->
<g id="edge40" class="edge"><title>Node37&#45;&gt;Node41</title>
<path fill="none" stroke="midnightblue" d="M587.49,-158.393C602.947,-153.545 620.787,-147.981 637,-143 647.156,-139.88 658.247,-136.519 668.254,-133.505"/>
<polygon fill="midnightblue" stroke="midnightblue" points="586.21,-155.126 577.718,-161.461 588.307,-161.804 586.21,-155.126"/>
</g>
<!-- Node45 -->
<g id="node45" class="node"><title>Node45</title>
<g id="a_node45"><a xlink:href="../../d7/dab/classocra_1_1QuadraticSolver.html" target="_top" xlink:title="QuadraticSolver class. ">
<polygon fill="white" stroke="red" points="645.5,-76.5 645.5,-95.5 756.5,-95.5 756.5,-76.5 645.5,-76.5"/>
<text text-anchor="middle" x="701" y="-83.5" font-family="Helvetica,sans-Serif" font-size="10.00">ocra::QuadraticSolver</text>
</a>
</g>
</g>
<!-- Node37&#45;&gt;Node45 -->
<g id="edge44" class="edge"><title>Node37&#45;&gt;Node45</title>
<path fill="none" stroke="midnightblue" d="M565.623,-154.698C582.884,-139.917 610.147,-118.444 637,-105 644.457,-101.267 652.784,-98.1174 660.879,-95.5229"/>
<polygon fill="midnightblue" stroke="midnightblue" points="563.231,-152.14 557.999,-161.353 567.834,-157.414 563.231,-152.14"/>
</g>
<!-- Node42 -->
<g id="node42" class="node"><title>Node42</title>
<g id="a_node42"><a xlink:href="../../df/d1b/classocra_1_1OneLevelSolverWithQLD.html" target="_top" xlink:title="Solver class that only consider one level of importance for all tasks using QLD. ">
<polygon fill="white" stroke="black" points="806.5,-193.5 806.5,-212.5 957.5,-212.5 957.5,-193.5 806.5,-193.5"/>
<text text-anchor="middle" x="882" y="-200.5" font-family="Helvetica,sans-Serif" font-size="10.00">ocra::OneLevelSolverWithQLD</text>
</a>
</g>
</g>
<!-- Node41&#45;&gt;Node42 -->
<g id="edge41" class="edge"><title>Node41&#45;&gt;Node42</title>
<path fill="none" stroke="midnightblue" d="M754.417,-137.322C758.107,-139.006 761.677,-140.891 765,-143 785.195,-155.815 780.504,-170.673 801,-183 808.238,-187.353 816.389,-190.763 824.648,-193.431"/>
<polygon fill="midnightblue" stroke="midnightblue" points="755.652,-134.046 745.07,-133.539 753.026,-140.535 755.652,-134.046"/>
</g>
<!-- Node43 -->
<g id="node43" class="node"><title>Node43</title>
<g id="a_node43"><a xlink:href="../../d0/d12/classocra_1_1OneLevelSolverWithQPOASES.html" target="_top" xlink:title="Solver class that only consider one level of importance for all tasks using QPOASES. ">
<polygon fill="white" stroke="black" points="816.5,-144 816.5,-174 947.5,-174 947.5,-144 816.5,-144"/>
<text text-anchor="start" x="824.5" y="-162" font-family="Helvetica,sans-Serif" font-size="10.00">ocra::OneLevelSolverWith</text>
<text text-anchor="middle" x="882" y="-151" font-family="Helvetica,sans-Serif" font-size="10.00">QPOASES</text>
</a>
</g>
</g>
<!-- Node41&#45;&gt;Node43 -->
<g id="edge42" class="edge"><title>Node41&#45;&gt;Node43</title>
<path fill="none" stroke="midnightblue" d="M761.105,-135.557C778.811,-139.019 798.318,-142.833 816.361,-146.361"/>
<polygon fill="midnightblue" stroke="midnightblue" points="761.398,-132.048 750.913,-133.564 760.055,-138.918 761.398,-132.048"/>
</g>
<!-- Node44 -->
<g id="node44" class="node"><title>Node44</title>
<g id="a_node44"><a xlink:href="../../d9/d45/classocra_1_1OneLevelSolverWithQuadProg.html" target="_top" xlink:title="Solver class that only consider one level of importance for all tasks using Quadprog++. ">
<polygon fill="white" stroke="black" points="816.5,-95 816.5,-125 947.5,-125 947.5,-95 816.5,-95"/>
<text text-anchor="start" x="824.5" y="-113" font-family="Helvetica,sans-Serif" font-size="10.00">ocra::OneLevelSolverWith</text>
<text text-anchor="middle" x="882" y="-102" font-family="Helvetica,sans-Serif" font-size="10.00">QuadProg</text>
</a>
</g>
</g>
<!-- Node41&#45;&gt;Node44 -->
<g id="edge43" class="edge"><title>Node41&#45;&gt;Node44</title>
<path fill="none" stroke="midnightblue" d="M766.616,-118.946C782.775,-117.682 800.11,-116.327 816.274,-115.062"/>
<polygon fill="midnightblue" stroke="midnightblue" points="765.888,-115.492 756.192,-119.762 766.434,-122.471 765.888,-115.492"/>
</g>
<!-- Node46 -->
<g id="node46" class="node"><title>Node46</title>
<g id="a_node46"><a xlink:href="../../d4/d02/classocra_1_1CmlQuadraticSolver.html" target="_top" xlink:title="CmlQuadraticSolver class. ">
<polygon fill="white" stroke="black" points="817.5,-56.5 817.5,-75.5 946.5,-75.5 946.5,-56.5 817.5,-56.5"/>
<text text-anchor="middle" x="882" y="-63.5" font-family="Helvetica,sans-Serif" font-size="10.00">ocra::CmlQuadraticSolver</text>
</a>
</g>
</g>
<!-- Node45&#45;&gt;Node46 -->
<g id="edge45" class="edge"><title>Node45&#45;&gt;Node46</title>
<path fill="none" stroke="midnightblue" d="M766.74,-78.7665C783.185,-76.929 800.841,-74.9563 817.238,-73.1243"/>
<polygon fill="midnightblue" stroke="midnightblue" points="766.228,-75.3018 756.679,-79.8907 767.005,-82.2585 766.228,-75.3018"/>
</g>
<!-- Node48 -->
<g id="node48" class="node"><title>Node48</title>
<g id="a_node48"><a xlink:href="../../d5/d40/classocra_1_1BaseVariable.html" target="_top" xlink:title="Implements a basic variable. ">
<polygon fill="white" stroke="black" points="651.5,-38.5 651.5,-57.5 750.5,-57.5 750.5,-38.5 651.5,-38.5"/>
<text text-anchor="middle" x="701" y="-45.5" font-family="Helvetica,sans-Serif" font-size="10.00">ocra::BaseVariable</text>
</a>
</g>
</g>
<!-- Node47&#45;&gt;Node48 -->
<g id="edge47" class="edge"><title>Node47&#45;&gt;Node48</title>
<path fill="none" stroke="midnightblue" d="M595.404,-48C613.276,-48 633.572,-48 651.498,-48"/>
<polygon fill="midnightblue" stroke="midnightblue" points="595.197,-44.5001 585.197,-48 595.197,-51.5001 595.197,-44.5001"/>
</g>
<!-- Node49 -->
<g id="node49" class="node"><title>Node49</title>
<g id="a_node49"><a xlink:href="../../d2/d7c/classocra_1_1CompositeVariable.html" target="_top" xlink:title="A concatenation of base variables and other composite variables. ">
<polygon fill="white" stroke="black" points="639,-0.5 639,-19.5 763,-19.5 763,-0.5 639,-0.5"/>
<text text-anchor="middle" x="701" y="-7.5" font-family="Helvetica,sans-Serif" font-size="10.00">ocra::CompositeVariable</text>
</a>
</g>
</g>
<!-- Node47&#45;&gt;Node49 -->
<g id="edge48" class="edge"><title>Node47&#45;&gt;Node49</title>
<path fill="none" stroke="midnightblue" d="M595.079,-36.1442C616.51,-30.8042 641.476,-24.5829 661.678,-19.5491"/>
<polygon fill="midnightblue" stroke="midnightblue" points="594.054,-32.7926 585.197,-38.6067 595.746,-39.5849 594.054,-32.7926"/>
</g>
</g>
</svg>
