<?xml version="1.0" encoding="UTF-8" standalone="no"?>
<!DOCTYPE svg PUBLIC "-//W3C//DTD SVG 1.1//EN"
 "http://www.w3.org/Graphics/SVG/1.1/DTD/svg11.dtd">
<!-- Generated by graphviz version 2.38.0 (20140413.2041)
 -->
<!-- Title: ocra::CoMFrame Pages: 1 -->
<svg width="208pt" height="140pt"
 viewBox="0.00 0.00 207.50 140.00" xmlns="http://www.w3.org/2000/svg" xmlns:xlink="http://www.w3.org/1999/xlink">
<g id="graph0" class="graph" transform="scale(1 1) rotate(0) translate(4 136)">
<title>ocra::CoMFrame</title>
<polygon fill="white" stroke="none" points="-4,4 -4,-136 203.5,-136 203.5,4 -4,4"/>
<!-- Node1 -->
<g id="node1" class="node"><title>Node1</title>
<polygon fill="#bfbfbf" stroke="black" points="64,-0.5 64,-19.5 154,-19.5 154,-0.5 64,-0.5"/>
<text text-anchor="middle" x="109" y="-7.5" font-family="Helvetica,sans-Serif" font-size="10.00">ocra::CoMFrame</text>
</g>
<!-- Node2 -->
<g id="node2" class="node"><title>Node2</title>
<g id="a_node2"><a xlink:href="../../db/d33/classocra_1_1ControlFrame.html" target="_top" xlink:title="Generic representation of a frame: gives access to its position, velocity, jacobian... ">
<polygon fill="white" stroke="black" points="58.5,-56.5 58.5,-75.5 159.5,-75.5 159.5,-56.5 58.5,-56.5"/>
<text text-anchor="middle" x="109" y="-63.5" font-family="Helvetica,sans-Serif" font-size="10.00">ocra::ControlFrame</text>
</a>
</g>
</g>
<!-- Node2&#45;&gt;Node1 -->
<g id="edge1" class="edge"><title>Node2&#45;&gt;Node1</title>
<path fill="none" stroke="midnightblue" d="M109,-45.8045C109,-36.9102 109,-26.7798 109,-19.7511"/>
<polygon fill="midnightblue" stroke="midnightblue" points="105.5,-46.083 109,-56.083 112.5,-46.083 105.5,-46.083"/>
</g>
<!-- Node3 -->
<g id="node3" class="node"><title>Node3</title>
<g id="a_node3"><a xlink:href="../../db/de3/classocra_1_1NamedInstance.html" target="_top" xlink:title="ocra::NamedInstance">
<polygon fill="white" stroke="black" points="0,-112.5 0,-131.5 110,-131.5 110,-112.5 0,-112.5"/>
<text text-anchor="middle" x="55" y="-119.5" font-family="Helvetica,sans-Serif" font-size="10.00">ocra::NamedInstance</text>
</a>
</g>
</g>
<!-- Node3&#45;&gt;Node2 -->
<g id="edge2" class="edge"><title>Node3&#45;&gt;Node2</title>
<path fill="none" stroke="midnightblue" d="M70.9976,-105.002C80.5671,-95.4329 92.3611,-83.6389 100.249,-75.7511"/>
<polygon fill="midnightblue" stroke="midnightblue" points="68.5132,-102.537 63.917,-112.083 73.463,-107.487 68.5132,-102.537"/>
</g>
<!-- Node4 -->
<g id="node4" class="node"><title>Node4</title>
<polygon fill="white" stroke="#bfbfbf" points="128.5,-112.5 128.5,-131.5 199.5,-131.5 199.5,-112.5 128.5,-112.5"/>
<text text-anchor="middle" x="164" y="-119.5" font-family="Helvetica,sans-Serif" font-size="10.00">noncopyable</text>
</g>
<!-- Node4&#45;&gt;Node2 -->
<g id="edge3" class="edge"><title>Node4&#45;&gt;Node2</title>
<path fill="none" stroke="#8b1a1a" d="M147.706,-105.002C137.959,-95.4329 125.947,-83.6389 117.913,-75.7511"/>
<polygon fill="#8b1a1a" stroke="#8b1a1a" points="145.33,-107.575 154.918,-112.083 150.234,-102.58 145.33,-107.575"/>
</g>
</g>
</svg>
