<?xml version="1.0" encoding="UTF-8" standalone="no"?>
<!DOCTYPE svg PUBLIC "-//W3C//DTD SVG 1.1//EN"
 "http://www.w3.org/Graphics/SVG/1.1/DTD/svg11.dtd">
<!-- Generated by graphviz version 2.38.0 (20140413.2041)
 -->
<!-- Title: ocra::Constraint&lt; T &gt; Pages: 1 -->
<svg width="162pt" height="162pt"
 viewBox="0.00 0.00 162.00 162.00" xmlns="http://www.w3.org/2000/svg" xmlns:xlink="http://www.w3.org/1999/xlink">
<g id="graph0" class="graph" transform="scale(1 1) rotate(0) translate(4 158)">
<title>ocra::Constraint&lt; T &gt;</title>
<polygon fill="white" stroke="none" points="-4,4 -4,-158 158,-158 158,4 -4,4"/>
<!-- Node1 -->
<g id="node1" class="node"><title>Node1</title>
<polygon fill="#bfbfbf" stroke="black" points="22,-67.5 22,-86.5 132,-86.5 132,-67.5 22,-67.5"/>
<text text-anchor="middle" x="77" y="-74.5" font-family="Helvetica,sans-Serif" font-size="10.00">ocra::Constraint&lt; T &gt;</text>
</g>
<!-- Node3 -->
<g id="node3" class="node"><title>Node3</title>
<g id="a_node3"><a xlink:href="../../d2/da4/classocra_1_1TorqueLimitConstraint.html" target="_top" xlink:title="ocra::TorqueLimitConstraint\l\&lt; LinearFunction \&gt;">
<polygon fill="white" stroke="black" points="8.5,-0.5 8.5,-30.5 145.5,-30.5 145.5,-0.5 8.5,-0.5"/>
<text text-anchor="start" x="16.5" y="-18.5" font-family="Helvetica,sans-Serif" font-size="10.00">ocra::TorqueLimitConstraint</text>
<text text-anchor="middle" x="77" y="-7.5" font-family="Helvetica,sans-Serif" font-size="10.00">&lt; LinearFunction &gt;</text>
</a>
</g>
</g>
<!-- Node1&#45;&gt;Node3 -->
<g id="edge2" class="edge"><title>Node1&#45;&gt;Node3</title>
<path fill="none" stroke="midnightblue" d="M77,-57.2349C77,-48.5864 77,-38.4969 77,-30.523"/>
<polygon fill="midnightblue" stroke="midnightblue" points="73.5001,-57.4751 77,-67.4751 80.5001,-57.4751 73.5001,-57.4751"/>
</g>
<!-- Node2 -->
<g id="node2" class="node"><title>Node2</title>
<g id="a_node2"><a xlink:href="../../d1/d29/structocra_1_1FunctionInterfaceMapping.html" target="_top" xlink:title="ocra::FunctionInterfaceMapping\l\&lt; Constraint\&lt; T \&gt; \&gt;">
<polygon fill="white" stroke="black" points="0,-123.5 0,-153.5 154,-153.5 154,-123.5 0,-123.5"/>
<text text-anchor="start" x="8" y="-141.5" font-family="Helvetica,sans-Serif" font-size="10.00">ocra::FunctionInterfaceMapping</text>
<text text-anchor="middle" x="77" y="-130.5" font-family="Helvetica,sans-Serif" font-size="10.00">&lt; Constraint&lt; T &gt; &gt;</text>
</a>
</g>
</g>
<!-- Node2&#45;&gt;Node1 -->
<g id="edge1" class="edge"><title>Node2&#45;&gt;Node1</title>
<path fill="none" stroke="midnightblue" d="M77,-113.289C77,-103.857 77,-93.6548 77,-86.6578"/>
<polygon fill="midnightblue" stroke="midnightblue" points="73.5001,-113.399 77,-123.399 80.5001,-113.399 73.5001,-113.399"/>
</g>
</g>
</svg>
