<?xml version="1.0" encoding="UTF-8" standalone="no"?>
<!DOCTYPE svg PUBLIC "-//W3C//DTD SVG 1.1//EN"
 "http://www.w3.org/Graphics/SVG/1.1/DTD/svg11.dtd">
<!-- Generated by graphviz version 2.38.0 (20140413.2041)
 -->
<!-- Title: WocraDebug.cpp Pages: 1 -->
<svg width="294pt" height="140pt"
 viewBox="0.00 0.00 294.00 140.00" xmlns="http://www.w3.org/2000/svg" xmlns:xlink="http://www.w3.org/1999/xlink">
<g id="graph0" class="graph" transform="scale(1 1) rotate(0) translate(4 136)">
<title>WocraDebug.cpp</title>
<polygon fill="white" stroke="none" points="-4,4 -4,-136 290,-136 290,4 -4,4"/>
<!-- Node1 -->
<g id="node1" class="node"><title>Node1</title>
<polygon fill="#bfbfbf" stroke="black" points="182.5,-112.5 182.5,-131.5 274.5,-131.5 274.5,-112.5 182.5,-112.5"/>
<text text-anchor="middle" x="228.5" y="-119.5" font-family="Helvetica,sans-Serif" font-size="10.00">WocraDebug.cpp</text>
</g>
<!-- Node2 -->
<g id="node2" class="node"><title>Node2</title>
<g id="a_node2"><a xlink:href="../../d4/dc1/WocraDebug_8h.html" target="_top" xlink:title="Debug trace. ">
<polygon fill="white" stroke="black" points="89,-56.5 89,-75.5 200,-75.5 200,-56.5 89,-56.5"/>
<text text-anchor="middle" x="144.5" y="-63.5" font-family="Helvetica,sans-Serif" font-size="10.00">wocra/WocraDebug.h</text>
</a>
</g>
</g>
<!-- Node1&#45;&gt;Node2 -->
<g id="edge1" class="edge"><title>Node1&#45;&gt;Node2</title>
<path fill="none" stroke="midnightblue" d="M215.004,-112.324C201.9,-103.9 181.788,-90.9709 166.393,-81.0741"/>
<polygon fill="midnightblue" stroke="midnightblue" points="168.267,-78.118 157.963,-75.6545 164.482,-84.0063 168.267,-78.118"/>
</g>
<!-- Node5 -->
<g id="node5" class="node"><title>Node5</title>
<polygon fill="white" stroke="#bfbfbf" points="203.5,-0.5 203.5,-19.5 253.5,-19.5 253.5,-0.5 203.5,-0.5"/>
<text text-anchor="middle" x="228.5" y="-7.5" font-family="Helvetica,sans-Serif" font-size="10.00">fstream</text>
</g>
<!-- Node1&#45;&gt;Node5 -->
<g id="edge6" class="edge"><title>Node1&#45;&gt;Node5</title>
<path fill="none" stroke="midnightblue" d="M228.5,-112.368C228.5,-94.617 228.5,-53.6664 228.5,-29.5974"/>
<polygon fill="midnightblue" stroke="midnightblue" points="232,-29.5914 228.5,-19.5914 225,-29.5915 232,-29.5914"/>
</g>
<!-- Node7 -->
<g id="node7" class="node"><title>Node7</title>
<polygon fill="white" stroke="#bfbfbf" points="257,-56.5 257,-75.5 286,-75.5 286,-56.5 257,-56.5"/>
<text text-anchor="middle" x="271.5" y="-63.5" font-family="Helvetica,sans-Serif" font-size="10.00">ios</text>
</g>
<!-- Node1&#45;&gt;Node7 -->
<g id="edge7" class="edge"><title>Node1&#45;&gt;Node7</title>
<path fill="none" stroke="midnightblue" d="M235.601,-112.083C241.737,-104.377 250.77,-93.0333 258.239,-83.6531"/>
<polygon fill="midnightblue" stroke="midnightblue" points="261.04,-85.7542 264.532,-75.7511 255.564,-81.3936 261.04,-85.7542"/>
</g>
<!-- Node3 -->
<g id="node3" class="node"><title>Node3</title>
<polygon fill="white" stroke="#bfbfbf" points="0,-0.5 0,-19.5 43,-19.5 43,-0.5 0,-0.5"/>
<text text-anchor="middle" x="21.5" y="-7.5" font-family="Helvetica,sans-Serif" font-size="10.00">cstdio</text>
</g>
<!-- Node2&#45;&gt;Node3 -->
<g id="edge2" class="edge"><title>Node2&#45;&gt;Node3</title>
<path fill="none" stroke="midnightblue" d="M125.01,-56.4435C104.858,-47.5961 73.1771,-33.6875 50.1692,-23.5865"/>
<polygon fill="midnightblue" stroke="midnightblue" points="51.462,-20.3316 40.8985,-19.5164 48.648,-26.7411 51.462,-20.3316"/>
</g>
<!-- Node4 -->
<g id="node4" class="node"><title>Node4</title>
<polygon fill="white" stroke="#bfbfbf" points="61.5,-0.5 61.5,-19.5 115.5,-19.5 115.5,-0.5 61.5,-0.5"/>
<text text-anchor="middle" x="88.5" y="-7.5" font-family="Helvetica,sans-Serif" font-size="10.00">iostream</text>
</g>
<!-- Node2&#45;&gt;Node4 -->
<g id="edge3" class="edge"><title>Node2&#45;&gt;Node4</title>
<path fill="none" stroke="midnightblue" d="M135.503,-56.324C127.306,-48.4196 114.994,-36.5482 105.028,-26.9377"/>
<polygon fill="midnightblue" stroke="midnightblue" points="107.289,-24.2558 97.6611,-19.8339 102.43,-29.2947 107.289,-24.2558"/>
</g>
<!-- Node2&#45;&gt;Node5 -->
<g id="edge4" class="edge"><title>Node2&#45;&gt;Node5</title>
<path fill="none" stroke="midnightblue" d="M157.996,-56.324C171.1,-47.9002 191.212,-34.9709 206.607,-25.0741"/>
<polygon fill="midnightblue" stroke="midnightblue" points="208.518,-28.0063 215.037,-19.6545 204.733,-22.118 208.518,-28.0063"/>
</g>
<!-- Node6 -->
<g id="node6" class="node"><title>Node6</title>
<polygon fill="white" stroke="#bfbfbf" points="133.5,-0.5 133.5,-19.5 185.5,-19.5 185.5,-0.5 133.5,-0.5"/>
<text text-anchor="middle" x="159.5" y="-7.5" font-family="Helvetica,sans-Serif" font-size="10.00">sstream</text>
</g>
<!-- Node2&#45;&gt;Node6 -->
<g id="edge5" class="edge"><title>Node2&#45;&gt;Node6</title>
<path fill="none" stroke="midnightblue" d="M146.977,-56.083C148.986,-48.8486 151.886,-38.4087 154.39,-29.3968"/>
<polygon fill="midnightblue" stroke="midnightblue" points="157.765,-30.323 157.069,-19.7511 151.02,-28.4495 157.765,-30.323"/>
</g>
</g>
</svg>
