<?xml version="1.0" encoding="UTF-8" standalone="no"?>
<!DOCTYPE svg PUBLIC "-//W3C//DTD SVG 1.1//EN"
 "http://www.w3.org/Graphics/SVG/1.1/DTD/svg11.dtd">
<!-- Generated by graphviz version 2.38.0 (20140413.2041)
 -->
<!-- Title: IFunction.h Pages: 1 -->
<svg width="495pt" height="140pt"
 viewBox="0.00 0.00 495.00 140.00" xmlns="http://www.w3.org/2000/svg" xmlns:xlink="http://www.w3.org/1999/xlink">
<g id="graph0" class="graph" transform="scale(1 1) rotate(0) translate(4 136)">
<title>IFunction.h</title>
<polygon fill="white" stroke="none" points="-4,4 -4,-136 491,-136 491,4 -4,4"/>
<!-- Node1 -->
<g id="node1" class="node"><title>Node1</title>
<polygon fill="#bfbfbf" stroke="black" points="288,-112.5 288,-131.5 353,-131.5 353,-112.5 288,-112.5"/>
<text text-anchor="middle" x="320.5" y="-119.5" font-family="Helvetica,sans-Serif" font-size="10.00">IFunction.h</text>
</g>
<!-- Node2 -->
<g id="node2" class="node"><title>Node2</title>
<g id="a_node2"><a xlink:href="../../d5/d55/MathTypes_8h.html" target="_top" xlink:title="Declaration file of the OptimizationVariable class. ">
<polygon fill="white" stroke="black" points="21,-56.5 21,-75.5 132,-75.5 132,-56.5 21,-56.5"/>
<text text-anchor="middle" x="76.5" y="-63.5" font-family="Helvetica,sans-Serif" font-size="10.00">ocra/util/MathTypes.h</text>
</a>
</g>
</g>
<!-- Node1&#45;&gt;Node2 -->
<g id="edge1" class="edge"><title>Node1&#45;&gt;Node2</title>
<path fill="none" stroke="midnightblue" d="M287.846,-113.773C246.02,-104.517 173.179,-88.3962 124.897,-77.7109"/>
<polygon fill="midnightblue" stroke="midnightblue" points="125.507,-74.2613 114.987,-75.5177 123.995,-81.0959 125.507,-74.2613"/>
</g>
<!-- Node5 -->
<g id="node5" class="node"><title>Node5</title>
<g id="a_node5"><a xlink:href="../../de/df3/ocra__assert_8h.html" target="_top" xlink:title="ocra/optim/ocra_assert.h">
<polygon fill="white" stroke="black" points="150,-56.5 150,-75.5 275,-75.5 275,-56.5 150,-56.5"/>
<text text-anchor="middle" x="212.5" y="-63.5" font-family="Helvetica,sans-Serif" font-size="10.00">ocra/optim/ocra_assert.h</text>
</a>
</g>
</g>
<!-- Node1&#45;&gt;Node5 -->
<g id="edge4" class="edge"><title>Node1&#45;&gt;Node5</title>
<path fill="none" stroke="midnightblue" d="M303.148,-112.324C285.828,-103.664 258.985,-90.2424 238.998,-80.249"/>
<polygon fill="midnightblue" stroke="midnightblue" points="240.319,-76.9962 229.809,-75.6545 237.188,-83.2572 240.319,-76.9962"/>
</g>
<!-- Node7 -->
<g id="node7" class="node"><title>Node7</title>
<polygon fill="white" stroke="#bfbfbf" points="293.5,-56.5 293.5,-75.5 347.5,-75.5 347.5,-56.5 293.5,-56.5"/>
<text text-anchor="middle" x="320.5" y="-63.5" font-family="Helvetica,sans-Serif" font-size="10.00">iostream</text>
</g>
<!-- Node1&#45;&gt;Node7 -->
<g id="edge6" class="edge"><title>Node1&#45;&gt;Node7</title>
<path fill="none" stroke="midnightblue" d="M320.5,-112.083C320.5,-105.006 320.5,-94.8611 320.5,-85.9865"/>
<polygon fill="midnightblue" stroke="midnightblue" points="324,-85.751 320.5,-75.7511 317,-85.7511 324,-85.751"/>
</g>
<!-- Node8 -->
<g id="node8" class="node"><title>Node8</title>
<polygon fill="white" stroke="#bfbfbf" points="365.5,-56.5 365.5,-75.5 409.5,-75.5 409.5,-56.5 365.5,-56.5"/>
<text text-anchor="middle" x="387.5" y="-63.5" font-family="Helvetica,sans-Serif" font-size="10.00">vector</text>
</g>
<!-- Node1&#45;&gt;Node8 -->
<g id="edge7" class="edge"><title>Node1&#45;&gt;Node8</title>
<path fill="none" stroke="midnightblue" d="M331.265,-112.324C341.266,-104.263 356.387,-92.0765 368.43,-82.3695"/>
<polygon fill="midnightblue" stroke="midnightblue" points="370.95,-84.8343 376.539,-75.8339 366.557,-79.3841 370.95,-84.8343"/>
</g>
<!-- Node9 -->
<g id="node9" class="node"><title>Node9</title>
<polygon fill="white" stroke="#bfbfbf" points="428,-56.5 428,-75.5 487,-75.5 487,-56.5 428,-56.5"/>
<text text-anchor="middle" x="457.5" y="-63.5" font-family="Helvetica,sans-Serif" font-size="10.00">stdexcept</text>
</g>
<!-- Node1&#45;&gt;Node9 -->
<g id="edge8" class="edge"><title>Node1&#45;&gt;Node9</title>
<path fill="none" stroke="midnightblue" d="M342.208,-112.444C364.855,-103.517 400.572,-89.4387 426.252,-79.3168"/>
<polygon fill="midnightblue" stroke="midnightblue" points="427.874,-82.4397 435.894,-75.5164 425.307,-75.9273 427.874,-82.4397"/>
</g>
<!-- Node3 -->
<g id="node3" class="node"><title>Node3</title>
<polygon fill="white" stroke="#bfbfbf" points="0,-0.5 0,-19.5 73,-19.5 73,-0.5 0,-0.5"/>
<text text-anchor="middle" x="36.5" y="-7.5" font-family="Helvetica,sans-Serif" font-size="10.00">Eigen/Dense</text>
</g>
<!-- Node2&#45;&gt;Node3 -->
<g id="edge2" class="edge"><title>Node2&#45;&gt;Node3</title>
<path fill="none" stroke="midnightblue" d="M69.8948,-56.083C64.2448,-48.4554 55.9552,-37.2645 49.0488,-27.9408"/>
<polygon fill="midnightblue" stroke="midnightblue" points="51.7471,-25.7034 42.9823,-19.7511 46.1221,-29.87 51.7471,-25.7034"/>
</g>
<!-- Node4 -->
<g id="node4" class="node"><title>Node4</title>
<polygon fill="white" stroke="#bfbfbf" points="91.5,-0.5 91.5,-19.5 135.5,-19.5 135.5,-0.5 91.5,-0.5"/>
<text text-anchor="middle" x="113.5" y="-7.5" font-family="Helvetica,sans-Serif" font-size="10.00">cmath</text>
</g>
<!-- Node2&#45;&gt;Node4 -->
<g id="edge3" class="edge"><title>Node2&#45;&gt;Node4</title>
<path fill="none" stroke="midnightblue" d="M82.6098,-56.083C87.7822,-48.5341 95.3461,-37.4948 101.694,-28.2298"/>
<polygon fill="midnightblue" stroke="midnightblue" points="104.739,-29.9787 107.504,-19.7511 98.9643,-26.0221 104.739,-29.9787"/>
</g>
<!-- Node6 -->
<g id="node6" class="node"><title>Node6</title>
<polygon fill="white" stroke="#bfbfbf" points="191,-0.5 191,-19.5 234,-19.5 234,-0.5 191,-0.5"/>
<text text-anchor="middle" x="212.5" y="-7.5" font-family="Helvetica,sans-Serif" font-size="10.00">cstdio</text>
</g>
<!-- Node5&#45;&gt;Node6 -->
<g id="edge5" class="edge"><title>Node5&#45;&gt;Node6</title>
<path fill="none" stroke="midnightblue" d="M212.5,-56.083C212.5,-49.0059 212.5,-38.8611 212.5,-29.9865"/>
<polygon fill="midnightblue" stroke="midnightblue" points="216,-29.751 212.5,-19.7511 209,-29.7511 216,-29.751"/>
</g>
</g>
</svg>
