<?xml version="1.0" encoding="UTF-8" standalone="no"?>
<!DOCTYPE svg PUBLIC "-//W3C//DTD SVG 1.1//EN"
 "http://www.w3.org/Graphics/SVG/1.1/DTD/svg11.dtd">
<!-- Generated by graphviz version 2.38.0 (20140413.2041)
 -->
<!-- Title: gocra::GHCJTController::Pimpl Pages: 1 -->
<svg width="1140pt" height="314pt"
 viewBox="0.00 0.00 1140.00 314.00" xmlns="http://www.w3.org/2000/svg" xmlns:xlink="http://www.w3.org/1999/xlink">
<g id="graph0" class="graph" transform="scale(1 1) rotate(0) translate(4 310)">
<title>gocra::GHCJTController::Pimpl</title>
<polygon fill="white" stroke="none" points="-4,4 -4,-310 1136,-310 1136,4 -4,4"/>
<!-- Node1 -->
<g id="node1" class="node"><title>Node1</title>
<polygon fill="#bfbfbf" stroke="black" points="1010,-82.5 1010,-112.5 1132,-112.5 1132,-82.5 1010,-82.5"/>
<text text-anchor="start" x="1018" y="-100.5" font-family="Helvetica,sans-Serif" font-size="10.00">gocra::GHCJTController</text>
<text text-anchor="middle" x="1071" y="-89.5" font-family="Helvetica,sans-Serif" font-size="10.00">::Pimpl</text>
</g>
<!-- Node2 -->
<g id="node2" class="node"><title>Node2</title>
<g id="a_node2"><a xlink:href="../../d2/d5e/classocra_1_1OneLevelSolver.html" target="_top" xlink:title="A generic abstract class the solvers that can be used in the wOcra Controller. ">
<polygon fill="white" stroke="black" points="742.5,-50 742.5,-69 852.5,-69 852.5,-50 742.5,-50"/>
<text text-anchor="middle" x="797.5" y="-57" font-family="Helvetica,sans-Serif" font-size="10.00">ocra::OneLevelSolver</text>
</a>
</g>
</g>
<!-- Node2&#45;&gt;Node1 -->
<g id="edge1" class="edge"><title>Node2&#45;&gt;Node1</title>
<path fill="none" stroke="#9a32cd" stroke-dasharray="5,2" d="M863.186,-66.0165C900.859,-70.1042 949.221,-75.853 992,-82.5 997.723,-83.3893 1003.67,-84.3905 1009.61,-85.443"/>
<polygon fill="#9a32cd" stroke="#9a32cd" points="863.173,-62.4952 852.857,-64.9083 862.426,-69.4552 863.173,-62.4952"/>
<text text-anchor="middle" x="940.5" y="-85.5" font-family="Helvetica,sans-Serif" font-size="10.00"> innerSolver</text>
</g>
<!-- Node3 -->
<g id="node3" class="node"><title>Node3</title>
<g id="a_node3"><a xlink:href="../../d6/dd3/classocra_1_1Solver.html" target="_top" xlink:title="Solver class. ">
<polygon fill="white" stroke="black" points="585,-90 585,-109 654,-109 654,-90 585,-90"/>
<text text-anchor="middle" x="619.5" y="-97" font-family="Helvetica,sans-Serif" font-size="10.00">ocra::Solver</text>
</a>
</g>
</g>
<!-- Node3&#45;&gt;Node2 -->
<g id="edge2" class="edge"><title>Node3&#45;&gt;Node2</title>
<path fill="none" stroke="midnightblue" d="M639.456,-83.4352C648.669,-76.6004 660.27,-69.3332 672,-65.5 694.318,-58.2072 720.082,-56.0184 742.362,-55.9172"/>
<polygon fill="midnightblue" stroke="midnightblue" points="637.138,-80.8049 631.429,-89.7296 641.458,-86.3135 637.138,-80.8049"/>
</g>
<!-- Node4 -->
<g id="node4" class="node"><title>Node4</title>
<g id="a_node4"><a xlink:href="../../d3/d16/classocra_1_1ObserverSubject.html" target="_top" xlink:title="ocra::ObserverSubject">
<polygon fill="white" stroke="black" points="385.5,-179 385.5,-198 499.5,-198 499.5,-179 385.5,-179"/>
<text text-anchor="middle" x="442.5" y="-186" font-family="Helvetica,sans-Serif" font-size="10.00">ocra::ObserverSubject</text>
</a>
</g>
</g>
<!-- Node4&#45;&gt;Node3 -->
<g id="edge3" class="edge"><title>Node4&#45;&gt;Node3</title>
<path fill="none" stroke="midnightblue" d="M472.736,-174.459C497.863,-162.297 534.999,-144.095 567,-127.5 578.564,-121.503 591.439,-114.503 601.423,-109.002"/>
<polygon fill="midnightblue" stroke="midnightblue" points="471.212,-171.308 463.73,-178.809 474.257,-177.612 471.212,-171.308"/>
</g>
<!-- Node18 -->
<g id="node18" class="node"><title>Node18</title>
<g id="a_node18"><a xlink:href="../../d4/d00/classocra_1_1Model.html" target="_top" xlink:title="Model class. ">
<polygon fill="white" stroke="black" points="585.5,-181 585.5,-200 653.5,-200 653.5,-181 585.5,-181"/>
<text text-anchor="middle" x="619.5" y="-188" font-family="Helvetica,sans-Serif" font-size="10.00">ocra::Model</text>
</a>
</g>
</g>
<!-- Node4&#45;&gt;Node18 -->
<g id="edge19" class="edge"><title>Node4&#45;&gt;Node18</title>
<path fill="none" stroke="midnightblue" d="M509.958,-189.26C535.783,-189.555 564.208,-189.88 585.489,-190.123"/>
<polygon fill="midnightblue" stroke="midnightblue" points="509.874,-185.758 499.834,-189.144 509.794,-192.758 509.874,-185.758"/>
</g>
<!-- Node5 -->
<g id="node5" class="node"><title>Node5</title>
<g id="a_node5"><a xlink:href="../../d2/d45/classocra_1_1Observer.html" target="_top" xlink:title="ocra::Observer">
<polygon fill="white" stroke="black" points="226,-199 226,-218 307,-218 307,-199 226,-199"/>
<text text-anchor="middle" x="266.5" y="-206" font-family="Helvetica,sans-Serif" font-size="10.00">ocra::Observer</text>
</a>
</g>
</g>
<!-- Node5&#45;&gt;Node4 -->
<g id="edge4" class="edge"><title>Node5&#45;&gt;Node4</title>
<path fill="none" stroke="midnightblue" d="M317.501,-202.753C338.685,-200.318 363.467,-197.469 385.283,-194.962"/>
<polygon fill="midnightblue" stroke="midnightblue" points="316.954,-199.292 307.419,-203.912 317.753,-206.247 316.954,-199.292"/>
</g>
<!-- Node6 -->
<g id="node6" class="node"><title>Node6</title>
<g id="a_node6"><a xlink:href="../../d4/dee/classocra_1_1ObserverBase.html" target="_top" xlink:title="ocra::ObserverBase\l\&lt; EVT_RESIZE \&gt;">
<polygon fill="white" stroke="black" points="42.5,-275.5 42.5,-305.5 146.5,-305.5 146.5,-275.5 42.5,-275.5"/>
<text text-anchor="start" x="50.5" y="-293.5" font-family="Helvetica,sans-Serif" font-size="10.00">ocra::ObserverBase</text>
<text text-anchor="middle" x="94.5" y="-282.5" font-family="Helvetica,sans-Serif" font-size="10.00">&lt; EVT_RESIZE &gt;</text>
</a>
</g>
</g>
<!-- Node6&#45;&gt;Node5 -->
<g id="edge5" class="edge"><title>Node6&#45;&gt;Node5</title>
<path fill="none" stroke="midnightblue" d="M156.463,-278.599C167.57,-275.389 178.846,-271.405 189,-266.5 215.414,-253.741 241.667,-231.112 255.495,-218.214"/>
<polygon fill="midnightblue" stroke="midnightblue" points="155.515,-275.229 146.779,-281.223 157.346,-281.985 155.515,-275.229"/>
</g>
<!-- Node7 -->
<g id="node7" class="node"><title>Node7</title>
<g id="a_node7"><a xlink:href="../../d4/dee/classocra_1_1ObserverBase.html" target="_top" xlink:title="ocra::ObserverBase\l\&lt; EVT_CHANGE_DEPENDENCIES \&gt;">
<polygon fill="white" stroke="black" points="0,-226.5 0,-256.5 189,-256.5 189,-226.5 0,-226.5"/>
<text text-anchor="start" x="8" y="-244.5" font-family="Helvetica,sans-Serif" font-size="10.00">ocra::ObserverBase</text>
<text text-anchor="middle" x="94.5" y="-233.5" font-family="Helvetica,sans-Serif" font-size="10.00">&lt; EVT_CHANGE_DEPENDENCIES &gt;</text>
</a>
</g>
</g>
<!-- Node7&#45;&gt;Node5 -->
<g id="edge6" class="edge"><title>Node7&#45;&gt;Node5</title>
<path fill="none" stroke="midnightblue" d="M182.882,-224.538C197.869,-221.628 212.759,-218.738 225.683,-216.229"/>
<polygon fill="midnightblue" stroke="midnightblue" points="182.188,-221.107 173.038,-226.449 183.522,-227.979 182.188,-221.107"/>
</g>
<!-- Node8 -->
<g id="node8" class="node"><title>Node8</title>
<g id="a_node8"><a xlink:href="../../d4/dee/classocra_1_1ObserverBase.html" target="_top" xlink:title="ocra::ObserverBase\l\&lt; EVT_CHANGE_VALUE \&gt;">
<polygon fill="white" stroke="black" points="24,-177.5 24,-207.5 165,-207.5 165,-177.5 24,-177.5"/>
<text text-anchor="start" x="32" y="-195.5" font-family="Helvetica,sans-Serif" font-size="10.00">ocra::ObserverBase</text>
<text text-anchor="middle" x="94.5" y="-184.5" font-family="Helvetica,sans-Serif" font-size="10.00">&lt; EVT_CHANGE_VALUE &gt;</text>
</a>
</g>
</g>
<!-- Node8&#45;&gt;Node5 -->
<g id="edge7" class="edge"><title>Node8&#45;&gt;Node5</title>
<path fill="none" stroke="midnightblue" d="M175.415,-200.021C192.968,-201.673 210.811,-203.353 225.936,-204.776"/>
<polygon fill="midnightblue" stroke="midnightblue" points="175.42,-196.507 165.136,-199.054 174.764,-203.476 175.42,-196.507"/>
</g>
<!-- Node9 -->
<g id="node9" class="node"><title>Node9</title>
<g id="a_node9"><a xlink:href="../../dc/d77/classocra_1_1Subject.html" target="_top" xlink:title="ocra::Subject">
<polygon fill="white" stroke="black" points="229.5,-100 229.5,-119 303.5,-119 303.5,-100 229.5,-100"/>
<text text-anchor="middle" x="266.5" y="-107" font-family="Helvetica,sans-Serif" font-size="10.00">ocra::Subject</text>
</a>
</g>
</g>
<!-- Node9&#45;&gt;Node4 -->
<g id="edge8" class="edge"><title>Node9&#45;&gt;Node4</title>
<path fill="none" stroke="midnightblue" d="M297.77,-123.243C332.874,-139.181 389.825,-165.038 420.437,-178.937"/>
<polygon fill="midnightblue" stroke="midnightblue" points="299.041,-119.976 288.488,-119.029 296.147,-126.35 299.041,-119.976"/>
</g>
<!-- Node10 -->
<g id="node10" class="node"><title>Node10</title>
<g id="a_node10"><a xlink:href="../../dc/d29/classocra_1_1SubjectBase.html" target="_top" xlink:title="ocra::SubjectBase\&lt;\l EVT_RESIZE \&gt;">
<polygon fill="white" stroke="black" points="43,-128.5 43,-158.5 146,-158.5 146,-128.5 43,-128.5"/>
<text text-anchor="start" x="51" y="-146.5" font-family="Helvetica,sans-Serif" font-size="10.00">ocra::SubjectBase&lt;</text>
<text text-anchor="middle" x="94.5" y="-135.5" font-family="Helvetica,sans-Serif" font-size="10.00"> EVT_RESIZE &gt;</text>
</a>
</g>
</g>
<!-- Node10&#45;&gt;Node9 -->
<g id="edge9" class="edge"><title>Node10&#45;&gt;Node9</title>
<path fill="none" stroke="midnightblue" d="M156.006,-131.399C180.573,-126.485 208.125,-120.975 229.446,-116.711"/>
<polygon fill="midnightblue" stroke="midnightblue" points="155.165,-127.998 146.045,-133.391 156.538,-134.862 155.165,-127.998"/>
</g>
<!-- Node11 -->
<g id="node11" class="node"><title>Node11</title>
<g id="a_node11"><a xlink:href="../../dc/d29/classocra_1_1SubjectBase.html" target="_top" xlink:title="ocra::SubjectBase\&lt;\l EVT_CHANGE_DEPENDENCIES \&gt;">
<polygon fill="white" stroke="black" points="3,-79.5 3,-109.5 186,-109.5 186,-79.5 3,-79.5"/>
<text text-anchor="start" x="11" y="-97.5" font-family="Helvetica,sans-Serif" font-size="10.00">ocra::SubjectBase&lt;</text>
<text text-anchor="middle" x="94.5" y="-86.5" font-family="Helvetica,sans-Serif" font-size="10.00"> EVT_CHANGE_DEPENDENCIES &gt;</text>
</a>
</g>
</g>
<!-- Node11&#45;&gt;Node9 -->
<g id="edge10" class="edge"><title>Node11&#45;&gt;Node9</title>
<path fill="none" stroke="midnightblue" d="M196.712,-103.431C208.269,-104.45 219.411,-105.433 229.239,-106.301"/>
<polygon fill="midnightblue" stroke="midnightblue" points="196.741,-99.9195 186.472,-102.527 196.126,-106.892 196.741,-99.9195"/>
</g>
<!-- Node12 -->
<g id="node12" class="node"><title>Node12</title>
<g id="a_node12"><a xlink:href="../../dc/d29/classocra_1_1SubjectBase.html" target="_top" xlink:title="ocra::SubjectBase\&lt;\l EVT_CHANGE_VALUE \&gt;">
<polygon fill="white" stroke="black" points="27,-30.5 27,-60.5 162,-60.5 162,-30.5 27,-30.5"/>
<text text-anchor="start" x="35" y="-48.5" font-family="Helvetica,sans-Serif" font-size="10.00">ocra::SubjectBase&lt;</text>
<text text-anchor="middle" x="94.5" y="-37.5" font-family="Helvetica,sans-Serif" font-size="10.00"> EVT_CHANGE_VALUE &gt;</text>
</a>
</g>
</g>
<!-- Node12&#45;&gt;Node9 -->
<g id="edge11" class="edge"><title>Node12&#45;&gt;Node9</title>
<path fill="none" stroke="midnightblue" d="M171.875,-63.5401C177.721,-65.3956 183.487,-67.3839 189,-69.5 210.967,-77.9324 234.763,-91.0665 249.882,-99.9638"/>
<polygon fill="midnightblue" stroke="midnightblue" points="172.578,-60.096 161.993,-60.5436 170.547,-66.7948 172.578,-60.096"/>
</g>
<!-- Node13 -->
<g id="node13" class="node"><title>Node13</title>
<g id="a_node13"><a xlink:href="../../db/de3/classocra_1_1NamedInstance.html" target="_top" xlink:title="ocra::NamedInstance">
<polygon fill="white" stroke="black" points="387.5,-123 387.5,-142 497.5,-142 497.5,-123 387.5,-123"/>
<text text-anchor="middle" x="442.5" y="-130" font-family="Helvetica,sans-Serif" font-size="10.00">ocra::NamedInstance</text>
</a>
</g>
</g>
<!-- Node13&#45;&gt;Node3 -->
<g id="edge12" class="edge"><title>Node13&#45;&gt;Node3</title>
<path fill="none" stroke="midnightblue" d="M505.287,-121.089C525.013,-117.42 546.93,-113.317 567,-109.5 572.816,-108.394 578.999,-107.205 584.987,-106.046"/>
<polygon fill="midnightblue" stroke="midnightblue" points="504.385,-117.697 495.193,-122.964 505.664,-124.579 504.385,-117.697"/>
</g>
<!-- Node13&#45;&gt;Node18 -->
<g id="edge20" class="edge"><title>Node13&#45;&gt;Node18</title>
<path fill="none" stroke="midnightblue" d="M482.008,-145.263C514.453,-156.016 560.159,-171.164 589.559,-180.908"/>
<polygon fill="midnightblue" stroke="midnightblue" points="482.991,-141.901 472.398,-142.078 480.789,-148.546 482.991,-141.901"/>
</g>
<!-- Node14 -->
<g id="node14" class="node"><title>Node14</title>
<g id="a_node14"><a xlink:href="../../d5/d53/structocra_1_1OptimizationResult.html" target="_top" xlink:title="ocra::OptimizationResult">
<polygon fill="white" stroke="black" points="380,-71 380,-90 505,-90 505,-71 380,-71"/>
<text text-anchor="middle" x="442.5" y="-78" font-family="Helvetica,sans-Serif" font-size="10.00">ocra::OptimizationResult</text>
</a>
</g>
</g>
<!-- Node14&#45;&gt;Node3 -->
<g id="edge13" class="edge"><title>Node14&#45;&gt;Node3</title>
<path fill="none" stroke="#9a32cd" stroke-dasharray="5,2" d="M515.38,-88.3041C539.419,-90.9141 565.085,-93.7006 584.797,-95.8408"/>
<polygon fill="#9a32cd" stroke="#9a32cd" points="515.518,-84.7986 505.198,-87.1987 514.762,-91.7577 515.518,-84.7986"/>
<text text-anchor="middle" x="545" y="-97.5" font-family="Helvetica,sans-Serif" font-size="10.00"> _result</text>
</g>
<!-- Node15 -->
<g id="node15" class="node"><title>Node15</title>
<polygon fill="white" stroke="#bfbfbf" points="238,-42 238,-61 295,-61 295,-42 238,-42"/>
<text text-anchor="middle" x="266.5" y="-49" font-family="Helvetica,sans-Serif" font-size="10.00">VectorXd</text>
</g>
<!-- Node15&#45;&gt;Node2 -->
<g id="edge15" class="edge"><title>Node15&#45;&gt;Node2</title>
<path fill="none" stroke="#9a32cd" stroke-dasharray="5,2" d="M305.104,-45.6526C361.841,-37.5574 472.727,-24.5673 567,-30.5 627.322,-34.2961 696.038,-43.6517 742.429,-50.718"/>
<polygon fill="#9a32cd" stroke="#9a32cd" points="304.547,-42.1967 295.156,-47.1016 305.556,-49.1236 304.547,-42.1967"/>
<text text-anchor="middle" x="545" y="-77.5" font-family="Helvetica,sans-Serif" font-size="10.00"> Xsolution</text>
<text text-anchor="middle" x="545" y="-66.5" font-family="Helvetica,sans-Serif" font-size="10.00">_b</text>
<text text-anchor="middle" x="545" y="-55.5" font-family="Helvetica,sans-Serif" font-size="10.00">_d</text>
<text text-anchor="middle" x="545" y="-44.5" font-family="Helvetica,sans-Serif" font-size="10.00">_btotal</text>
<text text-anchor="middle" x="545" y="-33.5" font-family="Helvetica,sans-Serif" font-size="10.00">_h</text>
</g>
<!-- Node15&#45;&gt;Node14 -->
<g id="edge14" class="edge"><title>Node15&#45;&gt;Node14</title>
<path fill="none" stroke="#9a32cd" stroke-dasharray="5,2" d="M305.143,-57.7739C328.21,-61.6184 358.195,-66.6158 384.171,-70.9452"/>
<polygon fill="#9a32cd" stroke="#9a32cd" points="305.51,-54.2868 295.071,-56.0951 304.359,-61.1916 305.51,-54.2868"/>
<text text-anchor="middle" x="343.5" y="-70.5" font-family="Helvetica,sans-Serif" font-size="10.00"> solution</text>
</g>
<!-- Node16 -->
<g id="node16" class="node"><title>Node16</title>
<polygon fill="white" stroke="#bfbfbf" points="591.5,-130 591.5,-149 647.5,-149 647.5,-130 591.5,-130"/>
<text text-anchor="middle" x="619.5" y="-137" font-family="Helvetica,sans-Serif" font-size="10.00">MatrixXd</text>
</g>
<!-- Node16&#45;&gt;Node1 -->
<g id="edge21" class="edge"><title>Node16&#45;&gt;Node1</title>
<path fill="none" stroke="#9a32cd" stroke-dasharray="5,2" d="M657.96,-141.3C725.407,-143.788 871.477,-145.73 992,-123.5 1005.2,-121.066 1019.22,-116.914 1031.68,-112.634"/>
<polygon fill="#9a32cd" stroke="#9a32cd" points="657.956,-137.798 647.826,-140.9 657.68,-144.792 657.956,-137.798"/>
<text text-anchor="middle" x="797.5" y="-146.5" font-family="Helvetica,sans-Serif" font-size="10.00"> augmentedJacobian</text>
</g>
<!-- Node16&#45;&gt;Node2 -->
<g id="edge16" class="edge"><title>Node16&#45;&gt;Node2</title>
<path fill="none" stroke="#9a32cd" stroke-dasharray="5,2" d="M648.033,-123.949C650.165,-122.245 652.189,-120.424 654,-118.5 665.45,-106.334 658.586,-95.4592 672,-85.5 692.122,-70.5601 718.874,-63.7569 742.422,-60.8122"/>
<polygon fill="#9a32cd" stroke="#9a32cd" points="645.684,-121.321 639.497,-129.921 649.697,-127.056 645.684,-121.321"/>
<text text-anchor="middle" x="689" y="-121.5" font-family="Helvetica,sans-Serif" font-size="10.00"> _Atotal</text>
<text text-anchor="middle" x="689" y="-110.5" font-family="Helvetica,sans-Serif" font-size="10.00">_A</text>
<text text-anchor="middle" x="689" y="-99.5" font-family="Helvetica,sans-Serif" font-size="10.00">_C</text>
<text text-anchor="middle" x="689" y="-88.5" font-family="Helvetica,sans-Serif" font-size="10.00">_G</text>
</g>
<!-- Node17 -->
<g id="node17" class="node"><title>Node17</title>
<g id="a_node17"><a xlink:href="../../de/d36/classgocra_1_1PerformanceRecorder.html" target="_top" xlink:title="To get and save time information to collect some data on performances. ">
<polygon fill="white" stroke="black" points="726.5,-88 726.5,-107 868.5,-107 868.5,-88 726.5,-88"/>
<text text-anchor="middle" x="797.5" y="-95" font-family="Helvetica,sans-Serif" font-size="10.00">gocra::PerformanceRecorder</text>
</a>
</g>
</g>
<!-- Node17&#45;&gt;Node1 -->
<g id="edge17" class="edge"><title>Node17&#45;&gt;Node1</title>
<path fill="none" stroke="#9a32cd" stroke-dasharray="5,2" d="M878.948,-97.5C920.835,-97.5 971.196,-97.5 1009.69,-97.5"/>
<polygon fill="#9a32cd" stroke="#9a32cd" points="878.771,-94.0001 868.771,-97.5 878.771,-101 878.771,-94.0001"/>
<text text-anchor="middle" x="940.5" y="-111.5" font-family="Helvetica,sans-Serif" font-size="10.00"> solveProblemRecorder</text>
<text text-anchor="middle" x="940.5" y="-100.5" font-family="Helvetica,sans-Serif" font-size="10.00">updateTasksRecorder</text>
</g>
<!-- Node18&#45;&gt;Node1 -->
<g id="edge18" class="edge"><title>Node18&#45;&gt;Node1</title>
<path fill="none" stroke="#9a32cd" stroke-dasharray="5,2" d="M663.878,-190.912C734.586,-190.323 878.217,-183.823 992,-144.5 1013.37,-137.115 1035.2,-123.315 1050.31,-112.571"/>
<polygon fill="#9a32cd" stroke="#9a32cd" points="663.563,-187.414 653.579,-190.96 663.595,-194.414 663.563,-187.414"/>
<text text-anchor="middle" x="797.5" y="-192.5" font-family="Helvetica,sans-Serif" font-size="10.00"> innerModel</text>
</g>
<!-- Node19 -->
<g id="node19" class="node"><title>Node19</title>
<g id="a_node19"><a xlink:href="../../d5/d01/classocra_1_1EqualZeroConstraintPtr.html" target="_top" xlink:title="ocra::EqualZeroConstraint\lPtr\&lt; SumOfLinearFunctions \&gt;">
<polygon fill="white" stroke="black" points="724,-0.5 724,-30.5 871,-30.5 871,-0.5 724,-0.5"/>
<text text-anchor="start" x="732" y="-18.5" font-family="Helvetica,sans-Serif" font-size="10.00">ocra::EqualZeroConstraint</text>
<text text-anchor="middle" x="797.5" y="-7.5" font-family="Helvetica,sans-Serif" font-size="10.00">Ptr&lt; SumOfLinearFunctions &gt;</text>
</a>
</g>
</g>
<!-- Node19&#45;&gt;Node1 -->
<g id="edge22" class="edge"><title>Node19&#45;&gt;Node1</title>
<path fill="none" stroke="#9a32cd" stroke-dasharray="5,2" d="M881.299,-26.4807C916.145,-32.5545 956.712,-41.5645 992,-54.5 1011.45,-61.6314 1031.91,-73.0786 1047,-82.3695"/>
<polygon fill="#9a32cd" stroke="#9a32cd" points="881.601,-22.9822 871.157,-24.7669 880.434,-29.8843 881.601,-22.9822"/>
<text text-anchor="middle" x="940.5" y="-57.5" font-family="Helvetica,sans-Serif" font-size="10.00"> seConstraint</text>
</g>
</g>
</svg>
