<?xml version="1.0" encoding="UTF-8" standalone="no"?>
<!DOCTYPE svg PUBLIC "-//W3C//DTD SVG 1.1//EN"
 "http://www.w3.org/Graphics/SVG/1.1/DTD/svg11.dtd">
<!-- Generated by graphviz version 2.38.0 (20140413.2041)
 -->
<!-- Title: TaskState.h Pages: 1 -->
<svg width="780pt" height="151pt"
 viewBox="0.00 0.00 780.00 151.00" xmlns="http://www.w3.org/2000/svg" xmlns:xlink="http://www.w3.org/1999/xlink">
<g id="graph0" class="graph" transform="scale(1 1) rotate(0) translate(4 147)">
<title>TaskState.h</title>
<polygon fill="white" stroke="none" points="-4,4 -4,-147 776,-147 776,4 -4,4"/>
<!-- Node1 -->
<g id="node1" class="node"><title>Node1</title>
<polygon fill="#bfbfbf" stroke="black" points="190.5,-123.5 190.5,-142.5 260.5,-142.5 260.5,-123.5 190.5,-123.5"/>
<text text-anchor="middle" x="225.5" y="-130.5" font-family="Helvetica,sans-Serif" font-size="10.00">TaskState.h</text>
</g>
<!-- Node2 -->
<g id="node2" class="node"><title>Node2</title>
<polygon fill="white" stroke="#bfbfbf" points="0,-62 0,-81 65,-81 65,-62 0,-62"/>
<text text-anchor="middle" x="32.5" y="-69" font-family="Helvetica,sans-Serif" font-size="10.00">Eigen/Core</text>
</g>
<!-- Node1&#45;&gt;Node2 -->
<g id="edge1" class="edge"><title>Node1&#45;&gt;Node2</title>
<path fill="none" stroke="midnightblue" d="M195.075,-123.497C164.287,-114.775 115.382,-100.596 73.5,-87 71.0494,-86.2045 68.5236,-85.3634 65.9862,-84.5031"/>
<polygon fill="midnightblue" stroke="midnightblue" points="66.8715,-81.1059 56.2767,-81.1448 64.5833,-87.7214 66.8715,-81.1059"/>
</g>
<!-- Node3 -->
<g id="node3" class="node"><title>Node3</title>
<polygon fill="white" stroke="#bfbfbf" points="115.5,-0.5 115.5,-19.5 183.5,-19.5 183.5,-0.5 115.5,-0.5"/>
<text text-anchor="middle" x="149.5" y="-7.5" font-family="Helvetica,sans-Serif" font-size="10.00">Eigen/Lgsm</text>
</g>
<!-- Node1&#45;&gt;Node3 -->
<g id="edge2" class="edge"><title>Node1&#45;&gt;Node3</title>
<path fill="none" stroke="midnightblue" d="M221.743,-123.232C215.369,-108.729 201.643,-79.0561 186.5,-56 179.837,-45.8553 171.291,-35.3336 164.091,-27.0173"/>
<polygon fill="midnightblue" stroke="midnightblue" points="166.71,-24.696 157.459,-19.5319 161.471,-29.3379 166.71,-24.696"/>
</g>
<!-- Node4 -->
<g id="node4" class="node"><title>Node4</title>
<g id="a_node4"><a xlink:href="../../df/d0a/Macros_8h.html" target="_top" xlink:title="ocra/util/Macros.h">
<polygon fill="white" stroke="black" points="83,-62 83,-81 178,-81 178,-62 83,-62"/>
<text text-anchor="middle" x="130.5" y="-69" font-family="Helvetica,sans-Serif" font-size="10.00">ocra/util/Macros.h</text>
</a>
</g>
</g>
<!-- Node1&#45;&gt;Node4 -->
<g id="edge3" class="edge"><title>Node1&#45;&gt;Node4</title>
<path fill="none" stroke="midnightblue" d="M211.889,-123.475C196.439,-113.799 171.01,-97.8721 152.684,-86.3941"/>
<polygon fill="midnightblue" stroke="midnightblue" points="154.419,-83.3509 144.086,-81.0091 150.703,-89.2834 154.419,-83.3509"/>
</g>
<!-- Node6 -->
<g id="node6" class="node"><title>Node6</title>
<g id="a_node6"><a xlink:href="../../d5/ded/YarpUtilities_8h.html" target="_top" xlink:title="ocra/util/YarpUtilities.h">
<polygon fill="white" stroke="black" points="276.5,-62 276.5,-81 392.5,-81 392.5,-62 276.5,-62"/>
<text text-anchor="middle" x="334.5" y="-69" font-family="Helvetica,sans-Serif" font-size="10.00">ocra/util/YarpUtilities.h</text>
</a>
</g>
</g>
<!-- Node1&#45;&gt;Node6 -->
<g id="edge5" class="edge"><title>Node1&#45;&gt;Node6</title>
<path fill="none" stroke="midnightblue" d="M241.117,-123.475C259.086,-113.666 288.821,-97.4346 309.906,-85.925"/>
<polygon fill="midnightblue" stroke="midnightblue" points="311.811,-88.8726 318.912,-81.0091 308.458,-82.7284 311.811,-88.8726"/>
</g>
<!-- Node10 -->
<g id="node10" class="node"><title>Node10</title>
<polygon fill="white" stroke="#bfbfbf" points="201.5,-0.5 201.5,-19.5 287.5,-19.5 287.5,-0.5 201.5,-0.5"/>
<text text-anchor="middle" x="244.5" y="-7.5" font-family="Helvetica,sans-Serif" font-size="10.00">yarp/os/Bottle.h</text>
</g>
<!-- Node1&#45;&gt;Node10 -->
<g id="edge21" class="edge"><title>Node1&#45;&gt;Node10</title>
<path fill="none" stroke="midnightblue" d="M226.866,-123.298C229.934,-103.763 237.424,-56.0646 241.588,-29.5471"/>
<polygon fill="midnightblue" stroke="midnightblue" points="245.052,-30.0451 243.146,-19.6232 238.137,-28.9592 245.052,-30.0451"/>
</g>
<!-- Node11 -->
<g id="node11" class="node"><title>Node11</title>
<g id="a_node11"><a xlink:href="../../da/d33/TaskYarpInterfaceVocab_8h.html" target="_top" xlink:title="ocra/control/TaskYarpInterface\lVocab.h">
<polygon fill="white" stroke="black" points="414,-56.5 414,-86.5 565,-86.5 565,-56.5 414,-56.5"/>
<text text-anchor="start" x="422" y="-74.5" font-family="Helvetica,sans-Serif" font-size="10.00">ocra/control/TaskYarpInterface</text>
<text text-anchor="middle" x="489.5" y="-63.5" font-family="Helvetica,sans-Serif" font-size="10.00">Vocab.h</text>
</a>
</g>
</g>
<!-- Node1&#45;&gt;Node11 -->
<g id="edge11" class="edge"><title>Node1&#45;&gt;Node11</title>
<path fill="none" stroke="midnightblue" d="M260.557,-124.099C300.334,-115.134 366.286,-100.27 417.213,-88.792"/>
<polygon fill="midnightblue" stroke="midnightblue" points="418.2,-92.1574 427.186,-86.5443 416.661,-85.3287 418.2,-92.1574"/>
</g>
<!-- Node5 -->
<g id="node5" class="node"><title>Node5</title>
<polygon fill="white" stroke="#bfbfbf" points="45.5,-0.5 45.5,-19.5 97.5,-19.5 97.5,-0.5 45.5,-0.5"/>
<text text-anchor="middle" x="71.5" y="-7.5" font-family="Helvetica,sans-Serif" font-size="10.00">memory</text>
</g>
<!-- Node4&#45;&gt;Node5 -->
<g id="edge4" class="edge"><title>Node4&#45;&gt;Node5</title>
<path fill="none" stroke="midnightblue" d="M122.047,-61.9751C112.934,-52.785 98.2298,-37.9563 87.0245,-26.656"/>
<polygon fill="midnightblue" stroke="midnightblue" points="89.4641,-24.1455 79.9376,-19.5091 84.4935,-29.0744 89.4641,-24.1455"/>
</g>
<!-- Node6&#45;&gt;Node3 -->
<g id="edge9" class="edge"><title>Node6&#45;&gt;Node3</title>
<path fill="none" stroke="midnightblue" d="M307.994,-61.9751C275.848,-51.6362 221.513,-34.1611 185.573,-22.6017"/>
<polygon fill="midnightblue" stroke="midnightblue" points="186.548,-19.239 175.957,-19.5091 184.405,-25.9028 186.548,-19.239"/>
</g>
<!-- Node7 -->
<g id="node7" class="node"><title>Node7</title>
<polygon fill="white" stroke="#bfbfbf" points="397.5,-0.5 397.5,-19.5 451.5,-19.5 451.5,-0.5 397.5,-0.5"/>
<text text-anchor="middle" x="424.5" y="-7.5" font-family="Helvetica,sans-Serif" font-size="10.00">iostream</text>
</g>
<!-- Node6&#45;&gt;Node7 -->
<g id="edge6" class="edge"><title>Node6&#45;&gt;Node7</title>
<path fill="none" stroke="midnightblue" d="M347.395,-61.9751C361.964,-52.3431 385.902,-36.5175 403.245,-25.0517"/>
<polygon fill="midnightblue" stroke="midnightblue" points="405.217,-27.9437 411.629,-19.5091 401.357,-22.1044 405.217,-27.9437"/>
</g>
<!-- Node8 -->
<g id="node8" class="node"><title>Node8</title>
<polygon fill="white" stroke="#bfbfbf" points="469.5,-0.5 469.5,-19.5 513.5,-19.5 513.5,-0.5 469.5,-0.5"/>
<text text-anchor="middle" x="491.5" y="-7.5" font-family="Helvetica,sans-Serif" font-size="10.00">vector</text>
</g>
<!-- Node6&#45;&gt;Node8 -->
<g id="edge7" class="edge"><title>Node6&#45;&gt;Node8</title>
<path fill="none" stroke="midnightblue" d="M356.994,-61.9751C383.885,-51.7841 429.071,-34.6594 459.569,-23.1012"/>
<polygon fill="midnightblue" stroke="midnightblue" points="461.19,-26.2297 469.301,-19.413 458.71,-19.684 461.19,-26.2297"/>
</g>
<!-- Node9 -->
<g id="node9" class="node"><title>Node9</title>
<polygon fill="white" stroke="#bfbfbf" points="306,-0.5 306,-19.5 379,-19.5 379,-0.5 306,-0.5"/>
<text text-anchor="middle" x="342.5" y="-7.5" font-family="Helvetica,sans-Serif" font-size="10.00">Eigen/Dense</text>
</g>
<!-- Node6&#45;&gt;Node9 -->
<g id="edge8" class="edge"><title>Node6&#45;&gt;Node9</title>
<path fill="none" stroke="midnightblue" d="M335.646,-61.9751C336.775,-53.5803 338.536,-40.4806 339.991,-29.6631"/>
<polygon fill="midnightblue" stroke="midnightblue" points="343.492,-29.8863 341.356,-19.5091 336.555,-28.9535 343.492,-29.8863"/>
</g>
<!-- Node6&#45;&gt;Node10 -->
<g id="edge10" class="edge"><title>Node6&#45;&gt;Node10</title>
<path fill="none" stroke="midnightblue" d="M321.605,-61.9751C307.036,-52.3431 283.098,-36.5175 265.755,-25.0517"/>
<polygon fill="midnightblue" stroke="midnightblue" points="267.643,-22.1044 257.371,-19.5091 263.783,-27.9437 267.643,-22.1044"/>
</g>
<!-- Node11&#45;&gt;Node3 -->
<g id="edge15" class="edge"><title>Node11&#45;&gt;Node3</title>
<path fill="none" stroke="midnightblue" d="M413.902,-57.9814C344.938,-46.5043 246.991,-30.0472 193.77,-20.1731"/>
<polygon fill="midnightblue" stroke="midnightblue" points="194.218,-16.6962 183.744,-18.2894 192.926,-23.5758 194.218,-16.6962"/>
</g>
<!-- Node11&#45;&gt;Node7 -->
<g id="edge12" class="edge"><title>Node11&#45;&gt;Node7</title>
<path fill="none" stroke="midnightblue" d="M474.096,-56.3993C464.261,-47.3967 451.507,-35.7214 441.395,-26.4652"/>
<polygon fill="midnightblue" stroke="midnightblue" points="443.698,-23.8282 433.958,-19.6578 438.971,-28.9916 443.698,-23.8282"/>
</g>
<!-- Node11&#45;&gt;Node8 -->
<g id="edge13" class="edge"><title>Node11&#45;&gt;Node8</title>
<path fill="none" stroke="midnightblue" d="M489.974,-56.3993C490.241,-48.4664 490.577,-38.458 490.866,-29.8583"/>
<polygon fill="midnightblue" stroke="midnightblue" points="494.371,-29.7697 491.209,-19.6578 487.375,-29.5345 494.371,-29.7697"/>
</g>
<!-- Node11&#45;&gt;Node9 -->
<g id="edge14" class="edge"><title>Node11&#45;&gt;Node9</title>
<path fill="none" stroke="midnightblue" d="M454.663,-56.3993C429.999,-46.4163 397.215,-33.1465 373.465,-23.5335"/>
<polygon fill="midnightblue" stroke="midnightblue" points="374.472,-20.1654 363.89,-19.6578 371.846,-26.6541 374.472,-20.1654"/>
</g>
<!-- Node11&#45;&gt;Node10 -->
<g id="edge16" class="edge"><title>Node11&#45;&gt;Node10</title>
<path fill="none" stroke="midnightblue" d="M431.749,-56.4747C388.189,-45.8959 329.301,-31.5946 289.275,-21.874"/>
<polygon fill="midnightblue" stroke="midnightblue" points="290.07,-18.4653 279.526,-19.5064 288.418,-25.2676 290.07,-18.4653"/>
</g>
<!-- Node12 -->
<g id="node12" class="node"><title>Node12</title>
<polygon fill="white" stroke="#bfbfbf" points="656.5,-0.5 656.5,-19.5 712.5,-19.5 712.5,-0.5 656.5,-0.5"/>
<text text-anchor="middle" x="684.5" y="-7.5" font-family="Helvetica,sans-Serif" font-size="10.00">algorithm</text>
</g>
<!-- Node11&#45;&gt;Node12 -->
<g id="edge17" class="edge"><title>Node11&#45;&gt;Node12</title>
<path fill="none" stroke="midnightblue" d="M535.712,-56.3993C569.554,-46.0733 614.92,-32.2309 646.628,-22.5559"/>
<polygon fill="midnightblue" stroke="midnightblue" points="647.867,-25.8371 656.41,-19.5709 645.824,-19.1418 647.867,-25.8371"/>
</g>
<!-- Node13 -->
<g id="node13" class="node"><title>Node13</title>
<polygon fill="white" stroke="#bfbfbf" points="731,-0.5 731,-19.5 772,-19.5 772,-0.5 731,-0.5"/>
<text text-anchor="middle" x="751.5" y="-7.5" font-family="Helvetica,sans-Serif" font-size="10.00">string</text>
</g>
<!-- Node11&#45;&gt;Node13 -->
<g id="edge18" class="edge"><title>Node11&#45;&gt;Node13</title>
<path fill="none" stroke="midnightblue" d="M560.655,-56.4932C604.305,-47.5557 661.51,-35.2291 720.955,-19.9809"/>
<polygon fill="midnightblue" stroke="midnightblue" points="722.097,-23.3007 730.902,-17.4073 720.344,-16.5239 722.097,-23.3007"/>
</g>
<!-- Node14 -->
<g id="node14" class="node"><title>Node14</title>
<polygon fill="white" stroke="#bfbfbf" points="532,-0.5 532,-19.5 573,-19.5 573,-0.5 532,-0.5"/>
<text text-anchor="middle" x="552.5" y="-7.5" font-family="Helvetica,sans-Serif" font-size="10.00">regex</text>
</g>
<!-- Node11&#45;&gt;Node14 -->
<g id="edge19" class="edge"><title>Node11&#45;&gt;Node14</title>
<path fill="none" stroke="midnightblue" d="M504.43,-56.3993C513.868,-47.4859 526.08,-35.9523 535.833,-26.7408"/>
<polygon fill="midnightblue" stroke="midnightblue" points="538.466,-29.0686 543.333,-19.6578 533.66,-23.9795 538.466,-29.0686"/>
</g>
<!-- Node15 -->
<g id="node15" class="node"><title>Node15</title>
<polygon fill="white" stroke="#bfbfbf" points="591,-0.5 591,-19.5 638,-19.5 638,-0.5 591,-0.5"/>
<text text-anchor="middle" x="614.5" y="-7.5" font-family="Helvetica,sans-Serif" font-size="10.00">iterator</text>
</g>
<!-- Node11&#45;&gt;Node15 -->
<g id="edge20" class="edge"><title>Node11&#45;&gt;Node15</title>
<path fill="none" stroke="midnightblue" d="M519.123,-56.3993C539.722,-46.5945 566.98,-33.6194 587.08,-24.052"/>
<polygon fill="midnightblue" stroke="midnightblue" points="588.786,-27.116 596.311,-19.6578 585.778,-20.7955 588.786,-27.116"/>
</g>
</g>
</svg>
