<?xml version="1.0" encoding="UTF-8" standalone="no"?>
<!DOCTYPE svg PUBLIC "-//W3C//DTD SVG 1.1//EN"
 "http://www.w3.org/Graphics/SVG/1.1/DTD/svg11.dtd">
<!-- Generated by graphviz version 2.38.0 (20140413.2041)
 -->
<!-- Title: MessageVocabulary.h Pages: 1 -->
<svg width="742pt" height="308pt"
 viewBox="0.00 0.00 741.50 308.00" xmlns="http://www.w3.org/2000/svg" xmlns:xlink="http://www.w3.org/1999/xlink">
<g id="graph0" class="graph" transform="scale(1 1) rotate(0) translate(4 304)">
<title>MessageVocabulary.h</title>
<polygon fill="white" stroke="none" points="-4,4 -4,-304 737.5,-304 737.5,4 -4,4"/>
<!-- Node1 -->
<g id="node1" class="node"><title>Node1</title>
<polygon fill="#bfbfbf" stroke="black" points="402.5,-280.5 402.5,-299.5 515.5,-299.5 515.5,-280.5 402.5,-280.5"/>
<text text-anchor="middle" x="459" y="-287.5" font-family="Helvetica,sans-Serif" font-size="10.00">MessageVocabulary.h</text>
</g>
<!-- Node2 -->
<g id="node2" class="node"><title>Node2</title>
<g id="a_node2"><a xlink:href="../../d0/ddc/ClientCommunications_8h.html" target="_top" xlink:title="ClientCommunications.h">
<polygon fill="white" stroke="black" points="264,-224.5 264,-243.5 388,-243.5 388,-224.5 264,-224.5"/>
<text text-anchor="middle" x="326" y="-231.5" font-family="Helvetica,sans-Serif" font-size="10.00">ClientCommunications.h</text>
</a>
</g>
</g>
<!-- Node1&#45;&gt;Node2 -->
<g id="edge1" class="edge"><title>Node1&#45;&gt;Node2</title>
<path fill="none" stroke="midnightblue" d="M428.552,-276.638C403.593,-266.504 368.923,-252.427 346.976,-243.516"/>
<polygon fill="midnightblue" stroke="midnightblue" points="427.344,-279.924 437.926,-280.444 429.977,-273.439 427.344,-279.924"/>
</g>
<!-- Node12 -->
<g id="node12" class="node"><title>Node12</title>
<g id="a_node12"><a xlink:href="../../d2/d6c/ServerCommunications_8h.html" target="_top" xlink:title="ServerCommunications.h">
<polygon fill="white" stroke="black" points="467.5,-224.5 467.5,-243.5 594.5,-243.5 594.5,-224.5 467.5,-224.5"/>
<text text-anchor="middle" x="531" y="-231.5" font-family="Helvetica,sans-Serif" font-size="10.00">ServerCommunications.h</text>
</a>
</g>
</g>
<!-- Node1&#45;&gt;Node12 -->
<g id="edge12" class="edge"><title>Node1&#45;&gt;Node12</title>
<path fill="none" stroke="midnightblue" d="M478.866,-274.101C491.823,-264.382 508.297,-252.027 519.221,-243.834"/>
<polygon fill="midnightblue" stroke="midnightblue" points="476.468,-271.524 470.568,-280.324 480.668,-277.124 476.468,-271.524"/>
</g>
<!-- Node3 -->
<g id="node3" class="node"><title>Node3</title>
<g id="a_node3"><a xlink:href="../../db/d9a/ControllerClient_8h.html" target="_top" xlink:title="ControllerClient.h">
<polygon fill="white" stroke="black" points="117,-112.5 117,-131.5 209,-131.5 209,-112.5 117,-112.5"/>
<text text-anchor="middle" x="163" y="-119.5" font-family="Helvetica,sans-Serif" font-size="10.00">ControllerClient.h</text>
</a>
</g>
</g>
<!-- Node2&#45;&gt;Node3 -->
<g id="edge2" class="edge"><title>Node2&#45;&gt;Node3</title>
<path fill="none" stroke="midnightblue" d="M277.111,-221.554C254.449,-214.534 228.143,-203.788 208,-188 188.124,-172.421 173.573,-145.658 166.96,-131.836"/>
<polygon fill="midnightblue" stroke="midnightblue" points="276.319,-224.969 286.9,-224.43 278.292,-218.253 276.319,-224.969"/>
</g>
<!-- Node7 -->
<g id="node7" class="node"><title>Node7</title>
<g id="a_node7"><a xlink:href="../../de/d5d/TaskConnection_8h.html" target="_top" xlink:title="TaskConnection.h">
<polygon fill="white" stroke="black" points="217,-168.5 217,-187.5 313,-187.5 313,-168.5 217,-168.5"/>
<text text-anchor="middle" x="265" y="-175.5" font-family="Helvetica,sans-Serif" font-size="10.00">TaskConnection.h</text>
</a>
</g>
</g>
<!-- Node2&#45;&gt;Node7 -->
<g id="edge6" class="edge"><title>Node2&#45;&gt;Node7</title>
<path fill="none" stroke="midnightblue" d="M308.533,-217.537C297.656,-207.909 284.056,-195.869 274.979,-187.834"/>
<polygon fill="midnightblue" stroke="midnightblue" points="306.392,-220.316 316.199,-224.324 311.032,-215.075 306.392,-220.316"/>
</g>
<!-- Node11 -->
<g id="node11" class="node"><title>Node11</title>
<g id="a_node11"><a xlink:href="../../d3/d45/ClientCommunications_8cpp.html" target="_top" xlink:title="ClientCommunications.cpp">
<polygon fill="white" stroke="black" points="331,-168.5 331,-187.5 465,-187.5 465,-168.5 331,-168.5"/>
<text text-anchor="middle" x="398" y="-175.5" font-family="Helvetica,sans-Serif" font-size="10.00">ClientCommunications.cpp</text>
</a>
</g>
</g>
<!-- Node2&#45;&gt;Node11 -->
<g id="edge11" class="edge"><title>Node2&#45;&gt;Node11</title>
<path fill="none" stroke="midnightblue" d="M345.866,-218.101C358.823,-208.382 375.297,-196.027 386.221,-187.834"/>
<polygon fill="midnightblue" stroke="midnightblue" points="343.468,-215.524 337.568,-224.324 347.668,-221.124 343.468,-215.524"/>
</g>
<!-- Node4 -->
<g id="node4" class="node"><title>Node4</title>
<g id="a_node4"><a xlink:href="../../d8/d80/ClientManager_8h.html" target="_top" xlink:title="Module class for the controller Client. ">
<polygon fill="white" stroke="black" points="5,-56.5 5,-75.5 93,-75.5 93,-56.5 5,-56.5"/>
<text text-anchor="middle" x="49" y="-63.5" font-family="Helvetica,sans-Serif" font-size="10.00">ClientManager.h</text>
</a>
</g>
</g>
<!-- Node3&#45;&gt;Node4 -->
<g id="edge3" class="edge"><title>Node3&#45;&gt;Node4</title>
<path fill="none" stroke="midnightblue" d="M135.758,-108.096C114.46,-98.0073 85.4583,-84.2697 66.9791,-75.5164"/>
<polygon fill="midnightblue" stroke="midnightblue" points="134.401,-111.326 144.936,-112.444 137.397,-105 134.401,-111.326"/>
</g>
<!-- Node6 -->
<g id="node6" class="node"><title>Node6</title>
<g id="a_node6"><a xlink:href="../../d2/d77/ControllerClient_8cpp.html" target="_top" xlink:title="ControllerClient.cpp">
<polygon fill="white" stroke="black" points="111.5,-56.5 111.5,-75.5 214.5,-75.5 214.5,-56.5 111.5,-56.5"/>
<text text-anchor="middle" x="163" y="-63.5" font-family="Helvetica,sans-Serif" font-size="10.00">ControllerClient.cpp</text>
</a>
</g>
</g>
<!-- Node3&#45;&gt;Node6 -->
<g id="edge5" class="edge"><title>Node3&#45;&gt;Node6</title>
<path fill="none" stroke="midnightblue" d="M163,-101.805C163,-92.9102 163,-82.7798 163,-75.7511"/>
<polygon fill="midnightblue" stroke="midnightblue" points="159.5,-102.083 163,-112.083 166.5,-102.083 159.5,-102.083"/>
</g>
<!-- Node5 -->
<g id="node5" class="node"><title>Node5</title>
<g id="a_node5"><a xlink:href="../../d9/d36/ClientManager_8cpp.html" target="_top" xlink:title="ClientManager.cpp">
<polygon fill="white" stroke="black" points="0,-0.5 0,-19.5 98,-19.5 98,-0.5 0,-0.5"/>
<text text-anchor="middle" x="49" y="-7.5" font-family="Helvetica,sans-Serif" font-size="10.00">ClientManager.cpp</text>
</a>
</g>
</g>
<!-- Node4&#45;&gt;Node5 -->
<g id="edge4" class="edge"><title>Node4&#45;&gt;Node5</title>
<path fill="none" stroke="midnightblue" d="M49,-45.8045C49,-36.9102 49,-26.7798 49,-19.7511"/>
<polygon fill="midnightblue" stroke="midnightblue" points="45.5001,-46.083 49,-56.083 52.5001,-46.083 45.5001,-46.083"/>
</g>
<!-- Node7&#45;&gt;Node3 -->
<g id="edge7" class="edge"><title>Node7&#45;&gt;Node3</title>
<path fill="none" stroke="midnightblue" d="M239.669,-163.59C220.81,-153.605 195.616,-140.267 179.347,-131.655"/>
<polygon fill="midnightblue" stroke="midnightblue" points="238.136,-166.738 248.612,-168.324 241.412,-160.552 238.136,-166.738"/>
</g>
<!-- Node8 -->
<g id="node8" class="node"><title>Node8</title>
<g id="a_node8"><a xlink:href="../../da/d00/TrajectoryThread_8h.html" target="_top" xlink:title="A thread for launching trajectory generators. ">
<polygon fill="white" stroke="black" points="227,-112.5 227,-131.5 325,-131.5 325,-112.5 227,-112.5"/>
<text text-anchor="middle" x="276" y="-119.5" font-family="Helvetica,sans-Serif" font-size="10.00">TrajectoryThread.h</text>
</a>
</g>
</g>
<!-- Node7&#45;&gt;Node8 -->
<g id="edge8" class="edge"><title>Node7&#45;&gt;Node8</title>
<path fill="none" stroke="midnightblue" d="M268.85,-158.101C270.676,-149.136 272.77,-138.858 274.217,-131.751"/>
<polygon fill="midnightblue" stroke="midnightblue" points="265.383,-157.586 266.816,-168.083 272.242,-158.983 265.383,-157.586"/>
</g>
<!-- Node10 -->
<g id="node10" class="node"><title>Node10</title>
<g id="a_node10"><a xlink:href="../../d1/d60/TaskConnection_8cpp.html" target="_top" xlink:title="TaskConnection.cpp">
<polygon fill="white" stroke="black" points="342.5,-112.5 342.5,-131.5 449.5,-131.5 449.5,-112.5 342.5,-112.5"/>
<text text-anchor="middle" x="396" y="-119.5" font-family="Helvetica,sans-Serif" font-size="10.00">TaskConnection.cpp</text>
</a>
</g>
</g>
<!-- Node7&#45;&gt;Node10 -->
<g id="edge10" class="edge"><title>Node7&#45;&gt;Node10</title>
<path fill="none" stroke="midnightblue" d="M295.317,-164.503C319.876,-154.38 353.818,-140.388 375.34,-131.516"/>
<polygon fill="midnightblue" stroke="midnightblue" points="293.669,-161.397 285.757,-168.444 296.337,-167.868 293.669,-161.397"/>
</g>
<!-- Node9 -->
<g id="node9" class="node"><title>Node9</title>
<g id="a_node9"><a xlink:href="../../d6/db4/TrajectoryThread_8cpp.html" target="_top" xlink:title="A thread for launching trajectory generators. ">
<polygon fill="white" stroke="black" points="232.5,-56.5 232.5,-75.5 341.5,-75.5 341.5,-56.5 232.5,-56.5"/>
<text text-anchor="middle" x="287" y="-63.5" font-family="Helvetica,sans-Serif" font-size="10.00">TrajectoryThread.cpp</text>
</a>
</g>
</g>
<!-- Node8&#45;&gt;Node9 -->
<g id="edge9" class="edge"><title>Node8&#45;&gt;Node9</title>
<path fill="none" stroke="midnightblue" d="M279.85,-102.101C281.676,-93.1357 283.77,-82.8579 285.217,-75.7511"/>
<polygon fill="midnightblue" stroke="midnightblue" points="276.383,-101.586 277.816,-112.083 283.242,-102.983 276.383,-101.586"/>
</g>
<!-- Node13 -->
<g id="node13" class="node"><title>Node13</title>
<g id="a_node13"><a xlink:href="../../da/d7c/ControllerServer_8h.html" target="_top" xlink:title="ControllerServer.h">
<polygon fill="white" stroke="black" points="483.5,-168.5 483.5,-187.5 578.5,-187.5 578.5,-168.5 483.5,-168.5"/>
<text text-anchor="middle" x="531" y="-175.5" font-family="Helvetica,sans-Serif" font-size="10.00">ControllerServer.h</text>
</a>
</g>
</g>
<!-- Node12&#45;&gt;Node13 -->
<g id="edge13" class="edge"><title>Node12&#45;&gt;Node13</title>
<path fill="none" stroke="midnightblue" d="M531,-213.805C531,-204.91 531,-194.78 531,-187.751"/>
<polygon fill="midnightblue" stroke="midnightblue" points="527.5,-214.083 531,-224.083 534.5,-214.083 527.5,-214.083"/>
</g>
<!-- Node15 -->
<g id="node15" class="node"><title>Node15</title>
<g id="a_node15"><a xlink:href="../../dc/dac/ServerCommunications_8cpp.html" target="_top" xlink:title="ServerCommunications.cpp">
<polygon fill="white" stroke="black" points="596.5,-168.5 596.5,-187.5 733.5,-187.5 733.5,-168.5 596.5,-168.5"/>
<text text-anchor="middle" x="665" y="-175.5" font-family="Helvetica,sans-Serif" font-size="10.00">ServerCommunications.cpp</text>
</a>
</g>
</g>
<!-- Node12&#45;&gt;Node15 -->
<g id="edge15" class="edge"><title>Node12&#45;&gt;Node15</title>
<path fill="none" stroke="midnightblue" d="M561.677,-220.638C586.823,-210.504 621.754,-196.427 643.867,-187.516"/>
<polygon fill="midnightblue" stroke="midnightblue" points="560.2,-217.459 552.233,-224.444 562.816,-223.952 560.2,-217.459"/>
</g>
<!-- Node14 -->
<g id="node14" class="node"><title>Node14</title>
<g id="a_node14"><a xlink:href="../../d5/dd2/ControllerServer_8cpp.html" target="_top" xlink:title="ControllerServer.cpp">
<polygon fill="white" stroke="black" points="478,-112.5 478,-131.5 584,-131.5 584,-112.5 478,-112.5"/>
<text text-anchor="middle" x="531" y="-119.5" font-family="Helvetica,sans-Serif" font-size="10.00">ControllerServer.cpp</text>
</a>
</g>
</g>
<!-- Node13&#45;&gt;Node14 -->
<g id="edge14" class="edge"><title>Node13&#45;&gt;Node14</title>
<path fill="none" stroke="midnightblue" d="M531,-157.805C531,-148.91 531,-138.78 531,-131.751"/>
<polygon fill="midnightblue" stroke="midnightblue" points="527.5,-158.083 531,-168.083 534.5,-158.083 527.5,-158.083"/>
</g>
</g>
</svg>
