<?xml version="1.0" encoding="UTF-8" standalone="no"?>
<!DOCTYPE svg PUBLIC "-//W3C//DTD SVG 1.1//EN"
 "http://www.w3.org/Graphics/SVG/1.1/DTD/svg11.dtd">
<!-- Generated by graphviz version 2.38.0 (20140413.2041)
 -->
<!-- Title: ocra::Controller Pages: 1 -->
<svg width="401pt" height="140pt"
 viewBox="0.00 0.00 400.50 140.00" xmlns="http://www.w3.org/2000/svg" xmlns:xlink="http://www.w3.org/1999/xlink">
<g id="graph0" class="graph" transform="scale(1 1) rotate(0) translate(4 136)">
<title>ocra::Controller</title>
<polygon fill="white" stroke="none" points="-4,4 -4,-136 396.5,-136 396.5,4 -4,4"/>
<!-- Node1 -->
<g id="node1" class="node"><title>Node1</title>
<polygon fill="#bfbfbf" stroke="black" points="156.5,-56.5 156.5,-75.5 239.5,-75.5 239.5,-56.5 156.5,-56.5"/>
<text text-anchor="middle" x="198" y="-63.5" font-family="Helvetica,sans-Serif" font-size="10.00">ocra::Controller</text>
</g>
<!-- Node4 -->
<g id="node4" class="node"><title>Node4</title>
<g id="a_node4"><a xlink:href="../../d6/dbf/classgocra_1_1GHCJTController.html" target="_top" xlink:title="gOcra Controller based on LQP solver for the ocra framework. ">
<polygon fill="white" stroke="black" points="0,-0.5 0,-19.5 122,-19.5 122,-0.5 0,-0.5"/>
<text text-anchor="middle" x="61" y="-7.5" font-family="Helvetica,sans-Serif" font-size="10.00">gocra::GHCJTController</text>
</a>
</g>
</g>
<!-- Node1&#45;&gt;Node4 -->
<g id="edge3" class="edge"><title>Node1&#45;&gt;Node4</title>
<path fill="none" stroke="midnightblue" d="M166.977,-52.772C141.243,-42.6287 105.314,-28.4669 82.6065,-19.5164"/>
<polygon fill="midnightblue" stroke="midnightblue" points="165.705,-56.0326 176.292,-56.4435 168.272,-49.5203 165.705,-56.0326"/>
</g>
<!-- Node5 -->
<g id="node5" class="node"><title>Node5</title>
<g id="a_node5"><a xlink:href="../../d1/d6a/classhocra_1_1HocraController.html" target="_top" xlink:title="Hocra Controller based on LQP solver for the ocra framework. ">
<polygon fill="white" stroke="black" points="140.5,-0.5 140.5,-19.5 255.5,-19.5 255.5,-0.5 140.5,-0.5"/>
<text text-anchor="middle" x="198" y="-7.5" font-family="Helvetica,sans-Serif" font-size="10.00">hocra::HocraController</text>
</a>
</g>
</g>
<!-- Node1&#45;&gt;Node5 -->
<g id="edge4" class="edge"><title>Node1&#45;&gt;Node5</title>
<path fill="none" stroke="midnightblue" d="M198,-45.8045C198,-36.9102 198,-26.7798 198,-19.7511"/>
<polygon fill="midnightblue" stroke="midnightblue" points="194.5,-46.083 198,-56.083 201.5,-46.083 194.5,-46.083"/>
</g>
<!-- Node6 -->
<g id="node6" class="node"><title>Node6</title>
<g id="a_node6"><a xlink:href="../../db/d14/classwocra_1_1WocraController.html" target="_top" xlink:title="Wocra Controller based on LQP solver for the ocra framework. ">
<polygon fill="white" stroke="black" points="273.5,-0.5 273.5,-19.5 392.5,-19.5 392.5,-0.5 273.5,-0.5"/>
<text text-anchor="middle" x="333" y="-7.5" font-family="Helvetica,sans-Serif" font-size="10.00">wocra::WocraController</text>
</a>
</g>
</g>
<!-- Node1&#45;&gt;Node6 -->
<g id="edge5" class="edge"><title>Node1&#45;&gt;Node6</title>
<path fill="none" stroke="midnightblue" d="M228.906,-52.6377C254.24,-42.504 289.431,-28.4274 311.709,-19.5164"/>
<polygon fill="midnightblue" stroke="midnightblue" points="227.376,-49.4799 219.391,-56.4435 229.976,-55.9792 227.376,-49.4799"/>
</g>
<!-- Node2 -->
<g id="node2" class="node"><title>Node2</title>
<g id="a_node2"><a xlink:href="../../db/de3/classocra_1_1NamedInstance.html" target="_top" xlink:title="ocra::NamedInstance">
<polygon fill="white" stroke="black" points="89,-112.5 89,-131.5 199,-131.5 199,-112.5 89,-112.5"/>
<text text-anchor="middle" x="144" y="-119.5" font-family="Helvetica,sans-Serif" font-size="10.00">ocra::NamedInstance</text>
</a>
</g>
</g>
<!-- Node2&#45;&gt;Node1 -->
<g id="edge1" class="edge"><title>Node2&#45;&gt;Node1</title>
<path fill="none" stroke="midnightblue" d="M159.998,-105.002C169.567,-95.4329 181.361,-83.6389 189.249,-75.7511"/>
<polygon fill="midnightblue" stroke="midnightblue" points="157.513,-102.537 152.917,-112.083 162.463,-107.487 157.513,-102.537"/>
</g>
<!-- Node3 -->
<g id="node3" class="node"><title>Node3</title>
<polygon fill="white" stroke="#bfbfbf" points="217.5,-112.5 217.5,-131.5 288.5,-131.5 288.5,-112.5 217.5,-112.5"/>
<text text-anchor="middle" x="253" y="-119.5" font-family="Helvetica,sans-Serif" font-size="10.00">noncopyable</text>
</g>
<!-- Node3&#45;&gt;Node1 -->
<g id="edge2" class="edge"><title>Node3&#45;&gt;Node1</title>
<path fill="none" stroke="#8b1a1a" d="M236.706,-105.002C226.959,-95.4329 214.947,-83.6389 206.913,-75.7511"/>
<polygon fill="#8b1a1a" stroke="#8b1a1a" points="234.33,-107.575 243.918,-112.083 239.234,-102.58 234.33,-107.575"/>
</g>
</g>
</svg>
