<?xml version="1.0" encoding="UTF-8" standalone="no"?>
<!DOCTYPE svg PUBLIC "-//W3C//DTD SVG 1.1//EN"
 "http://www.w3.org/Graphics/SVG/1.1/DTD/svg11.dtd">
<!-- Generated by graphviz version 2.38.0 (20140413.2041)
 -->
<!-- Title: ocra::OneLevelSolverWithQLD Pages: 1 -->
<svg width="1084pt" height="362pt"
 viewBox="0.00 0.00 1084.00 361.50" xmlns="http://www.w3.org/2000/svg" xmlns:xlink="http://www.w3.org/1999/xlink">
<g id="graph0" class="graph" transform="scale(1 1) rotate(0) translate(4 357.5)">
<title>ocra::OneLevelSolverWithQLD</title>
<polygon fill="white" stroke="none" points="-4,4 -4,-357.5 1080,-357.5 1080,4 -4,4"/>
<!-- Node1 -->
<g id="node1" class="node"><title>Node1</title>
<polygon fill="#bfbfbf" stroke="black" points="925,-147 925,-166 1076,-166 1076,-147 925,-147"/>
<text text-anchor="middle" x="1000.5" y="-154" font-family="Helvetica,sans-Serif" font-size="10.00">ocra::OneLevelSolverWithQLD</text>
</g>
<!-- Node2 -->
<g id="node2" class="node"><title>Node2</title>
<g id="a_node2"><a xlink:href="../../d2/d5e/classocra_1_1OneLevelSolver.html" target="_top" xlink:title="A generic abstract class the solvers that can be used in the wOcra Controller. ">
<polygon fill="white" stroke="black" points="724,-190 724,-209 834,-209 834,-190 724,-190"/>
<text text-anchor="middle" x="779" y="-197" font-family="Helvetica,sans-Serif" font-size="10.00">ocra::OneLevelSolver</text>
</a>
</g>
</g>
<!-- Node2&#45;&gt;Node1 -->
<g id="edge1" class="edge"><title>Node2&#45;&gt;Node1</title>
<path fill="none" stroke="midnightblue" d="M838.817,-187.978C873.876,-181.11 917.845,-172.496 950.922,-166.016"/>
<polygon fill="midnightblue" stroke="midnightblue" points="837.855,-184.6 828.714,-189.957 839.201,-191.469 837.855,-184.6"/>
</g>
<!-- Node3 -->
<g id="node3" class="node"><title>Node3</title>
<g id="a_node3"><a xlink:href="../../d6/dd3/classocra_1_1Solver.html" target="_top" xlink:title="Solver class. ">
<polygon fill="white" stroke="black" points="585,-180 585,-199 654,-199 654,-180 585,-180"/>
<text text-anchor="middle" x="619.5" y="-187" font-family="Helvetica,sans-Serif" font-size="10.00">ocra::Solver</text>
</a>
</g>
</g>
<!-- Node3&#45;&gt;Node2 -->
<g id="edge2" class="edge"><title>Node3&#45;&gt;Node2</title>
<path fill="none" stroke="midnightblue" d="M647.314,-203.366C655.074,-206.707 663.695,-209.8 672,-211.5 695.225,-216.253 721.725,-213.253 742.419,-209.065"/>
<polygon fill="midnightblue" stroke="midnightblue" points="648.583,-200.096 638.036,-199.088 645.652,-206.453 648.583,-200.096"/>
</g>
<!-- Node4 -->
<g id="node4" class="node"><title>Node4</title>
<g id="a_node4"><a xlink:href="../../d3/d16/classocra_1_1ObserverSubject.html" target="_top" xlink:title="ocra::ObserverSubject">
<polygon fill="white" stroke="black" points="385.5,-127 385.5,-146 499.5,-146 499.5,-127 385.5,-127"/>
<text text-anchor="middle" x="442.5" y="-134" font-family="Helvetica,sans-Serif" font-size="10.00">ocra::ObserverSubject</text>
</a>
</g>
</g>
<!-- Node4&#45;&gt;Node3 -->
<g id="edge3" class="edge"><title>Node4&#45;&gt;Node3</title>
<path fill="none" stroke="midnightblue" d="M484.932,-149.048C516.22,-158.524 558.501,-171.329 587.045,-179.974"/>
<polygon fill="midnightblue" stroke="midnightblue" points="485.776,-145.647 475.191,-146.098 483.747,-152.346 485.776,-145.647"/>
</g>
<!-- Node5 -->
<g id="node5" class="node"><title>Node5</title>
<g id="a_node5"><a xlink:href="../../d2/d45/classocra_1_1Observer.html" target="_top" xlink:title="ocra::Observer">
<polygon fill="white" stroke="black" points="226,-79 226,-98 307,-98 307,-79 226,-79"/>
<text text-anchor="middle" x="266.5" y="-86" font-family="Helvetica,sans-Serif" font-size="10.00">ocra::Observer</text>
</a>
</g>
</g>
<!-- Node5&#45;&gt;Node4 -->
<g id="edge4" class="edge"><title>Node5&#45;&gt;Node4</title>
<path fill="none" stroke="midnightblue" d="M312.313,-100.862C341.729,-108.977 379.636,-119.434 406.767,-126.918"/>
<polygon fill="midnightblue" stroke="midnightblue" points="312.864,-97.3835 302.293,-98.0982 311.002,-104.131 312.864,-97.3835"/>
</g>
<!-- Node6 -->
<g id="node6" class="node"><title>Node6</title>
<g id="a_node6"><a xlink:href="../../d4/dee/classocra_1_1ObserverBase.html" target="_top" xlink:title="ocra::ObserverBase\l\&lt; EVT_RESIZE \&gt;">
<polygon fill="white" stroke="black" points="42.5,-98.5 42.5,-128.5 146.5,-128.5 146.5,-98.5 42.5,-98.5"/>
<text text-anchor="start" x="50.5" y="-116.5" font-family="Helvetica,sans-Serif" font-size="10.00">ocra::ObserverBase</text>
<text text-anchor="middle" x="94.5" y="-105.5" font-family="Helvetica,sans-Serif" font-size="10.00">&lt; EVT_RESIZE &gt;</text>
</a>
</g>
</g>
<!-- Node6&#45;&gt;Node5 -->
<g id="edge5" class="edge"><title>Node6&#45;&gt;Node5</title>
<path fill="none" stroke="midnightblue" d="M156.557,-104.521C179.633,-101.128 205.272,-97.3571 225.877,-94.3269"/>
<polygon fill="midnightblue" stroke="midnightblue" points="155.89,-101.081 146.506,-105.999 156.908,-108.007 155.89,-101.081"/>
</g>
<!-- Node7 -->
<g id="node7" class="node"><title>Node7</title>
<g id="a_node7"><a xlink:href="../../d4/dee/classocra_1_1ObserverBase.html" target="_top" xlink:title="ocra::ObserverBase\l\&lt; EVT_CHANGE_DEPENDENCIES \&gt;">
<polygon fill="white" stroke="black" points="0,-49.5 0,-79.5 189,-79.5 189,-49.5 0,-49.5"/>
<text text-anchor="start" x="8" y="-67.5" font-family="Helvetica,sans-Serif" font-size="10.00">ocra::ObserverBase</text>
<text text-anchor="middle" x="94.5" y="-56.5" font-family="Helvetica,sans-Serif" font-size="10.00">&lt; EVT_CHANGE_DEPENDENCIES &gt;</text>
</a>
</g>
</g>
<!-- Node7&#45;&gt;Node5 -->
<g id="edge6" class="edge"><title>Node7&#45;&gt;Node5</title>
<path fill="none" stroke="midnightblue" d="M199.529,-79.1864C208.724,-80.4845 217.605,-81.7384 225.713,-82.883"/>
<polygon fill="midnightblue" stroke="midnightblue" points="199.841,-75.6959 189.45,-77.7635 198.863,-82.6272 199.841,-75.6959"/>
</g>
<!-- Node8 -->
<g id="node8" class="node"><title>Node8</title>
<g id="a_node8"><a xlink:href="../../d4/dee/classocra_1_1ObserverBase.html" target="_top" xlink:title="ocra::ObserverBase\l\&lt; EVT_CHANGE_VALUE \&gt;">
<polygon fill="white" stroke="black" points="24,-0.5 24,-30.5 165,-30.5 165,-0.5 24,-0.5"/>
<text text-anchor="start" x="32" y="-18.5" font-family="Helvetica,sans-Serif" font-size="10.00">ocra::ObserverBase</text>
<text text-anchor="middle" x="94.5" y="-7.5" font-family="Helvetica,sans-Serif" font-size="10.00">&lt; EVT_CHANGE_VALUE &gt;</text>
</a>
</g>
</g>
<!-- Node8&#45;&gt;Node5 -->
<g id="edge7" class="edge"><title>Node8&#45;&gt;Node5</title>
<path fill="none" stroke="midnightblue" d="M174.44,-33.8167C179.426,-35.5699 184.318,-37.4624 189,-39.5 213.296,-50.0735 238.649,-67.8718 253.209,-78.8588"/>
<polygon fill="midnightblue" stroke="midnightblue" points="175.361,-30.4347 164.768,-30.6156 173.162,-37.0803 175.361,-30.4347"/>
</g>
<!-- Node9 -->
<g id="node9" class="node"><title>Node9</title>
<g id="a_node9"><a xlink:href="../../dc/d77/classocra_1_1Subject.html" target="_top" xlink:title="ocra::Subject">
<polygon fill="white" stroke="black" points="229.5,-177 229.5,-196 303.5,-196 303.5,-177 229.5,-177"/>
<text text-anchor="middle" x="266.5" y="-184" font-family="Helvetica,sans-Serif" font-size="10.00">ocra::Subject</text>
</a>
</g>
</g>
<!-- Node9&#45;&gt;Node4 -->
<g id="edge8" class="edge"><title>Node9&#45;&gt;Node4</title>
<path fill="none" stroke="midnightblue" d="M310.471,-174.152C340.644,-165.482 380.412,-154.054 408.19,-146.072"/>
<polygon fill="midnightblue" stroke="midnightblue" points="309.282,-170.852 300.638,-176.978 311.215,-177.58 309.282,-170.852"/>
</g>
<!-- Node10 -->
<g id="node10" class="node"><title>Node10</title>
<g id="a_node10"><a xlink:href="../../dc/d29/classocra_1_1SubjectBase.html" target="_top" xlink:title="ocra::SubjectBase\&lt;\l EVT_RESIZE \&gt;">
<polygon fill="white" stroke="black" points="43,-245.5 43,-275.5 146,-275.5 146,-245.5 43,-245.5"/>
<text text-anchor="start" x="51" y="-263.5" font-family="Helvetica,sans-Serif" font-size="10.00">ocra::SubjectBase&lt;</text>
<text text-anchor="middle" x="94.5" y="-252.5" font-family="Helvetica,sans-Serif" font-size="10.00"> EVT_RESIZE &gt;</text>
</a>
</g>
</g>
<!-- Node10&#45;&gt;Node9 -->
<g id="edge9" class="edge"><title>Node10&#45;&gt;Node9</title>
<path fill="none" stroke="midnightblue" d="M155.81,-248.125C167.065,-244.95 178.562,-241.1 189,-236.5 213.537,-225.687 239.017,-207.36 253.501,-196.153"/>
<polygon fill="midnightblue" stroke="midnightblue" points="154.772,-244.779 146.015,-250.742 156.579,-251.542 154.772,-244.779"/>
</g>
<!-- Node11 -->
<g id="node11" class="node"><title>Node11</title>
<g id="a_node11"><a xlink:href="../../dc/d29/classocra_1_1SubjectBase.html" target="_top" xlink:title="ocra::SubjectBase\&lt;\l EVT_CHANGE_DEPENDENCIES \&gt;">
<polygon fill="white" stroke="black" points="3,-196.5 3,-226.5 186,-226.5 186,-196.5 3,-196.5"/>
<text text-anchor="start" x="11" y="-214.5" font-family="Helvetica,sans-Serif" font-size="10.00">ocra::SubjectBase&lt;</text>
<text text-anchor="middle" x="94.5" y="-203.5" font-family="Helvetica,sans-Serif" font-size="10.00"> EVT_CHANGE_DEPENDENCIES &gt;</text>
</a>
</g>
</g>
<!-- Node11&#45;&gt;Node9 -->
<g id="edge10" class="edge"><title>Node11&#45;&gt;Node9</title>
<path fill="none" stroke="midnightblue" d="M196.712,-196.616C208.269,-194.916 219.411,-193.278 229.239,-191.832"/>
<polygon fill="midnightblue" stroke="midnightblue" points="195.857,-193.204 186.472,-198.122 196.875,-200.129 195.857,-193.204"/>
</g>
<!-- Node12 -->
<g id="node12" class="node"><title>Node12</title>
<g id="a_node12"><a xlink:href="../../dc/d29/classocra_1_1SubjectBase.html" target="_top" xlink:title="ocra::SubjectBase\&lt;\l EVT_CHANGE_VALUE \&gt;">
<polygon fill="white" stroke="black" points="27,-147.5 27,-177.5 162,-177.5 162,-147.5 27,-147.5"/>
<text text-anchor="start" x="35" y="-165.5" font-family="Helvetica,sans-Serif" font-size="10.00">ocra::SubjectBase&lt;</text>
<text text-anchor="middle" x="94.5" y="-154.5" font-family="Helvetica,sans-Serif" font-size="10.00"> EVT_CHANGE_VALUE &gt;</text>
</a>
</g>
</g>
<!-- Node12&#45;&gt;Node9 -->
<g id="edge11" class="edge"><title>Node12&#45;&gt;Node9</title>
<path fill="none" stroke="midnightblue" d="M172.218,-173.331C192.126,-176.141 212.647,-179.038 229.355,-181.397"/>
<polygon fill="midnightblue" stroke="midnightblue" points="172.592,-169.849 162.201,-171.917 171.613,-176.78 172.592,-169.849"/>
</g>
<!-- Node13 -->
<g id="node13" class="node"><title>Node13</title>
<g id="a_node13"><a xlink:href="../../db/de3/classocra_1_1NamedInstance.html" target="_top" xlink:title="ocra::NamedInstance">
<polygon fill="white" stroke="black" points="387.5,-165 387.5,-184 497.5,-184 497.5,-165 387.5,-165"/>
<text text-anchor="middle" x="442.5" y="-172" font-family="Helvetica,sans-Serif" font-size="10.00">ocra::NamedInstance</text>
</a>
</g>
</g>
<!-- Node13&#45;&gt;Node3 -->
<g id="edge12" class="edge"><title>Node13&#45;&gt;Node3</title>
<path fill="none" stroke="midnightblue" d="M508.095,-180.037C534.112,-182.267 563.036,-184.746 584.75,-186.607"/>
<polygon fill="midnightblue" stroke="midnightblue" points="508.174,-176.531 497.912,-179.164 507.576,-183.505 508.174,-176.531"/>
</g>
<!-- Node14 -->
<g id="node14" class="node"><title>Node14</title>
<g id="a_node14"><a xlink:href="../../d5/d53/structocra_1_1OptimizationResult.html" target="_top" xlink:title="ocra::OptimizationResult">
<polygon fill="white" stroke="black" points="380,-203 380,-222 505,-222 505,-203 380,-203"/>
<text text-anchor="middle" x="442.5" y="-210" font-family="Helvetica,sans-Serif" font-size="10.00">ocra::OptimizationResult</text>
</a>
</g>
</g>
<!-- Node14&#45;&gt;Node3 -->
<g id="edge13" class="edge"><title>Node14&#45;&gt;Node3</title>
<path fill="none" stroke="#9a32cd" stroke-dasharray="5,2" d="M515.38,-203.053C539.419,-199.893 565.085,-196.52 584.797,-193.93"/>
<polygon fill="#9a32cd" stroke="#9a32cd" points="514.657,-199.618 505.198,-204.391 515.569,-206.558 514.657,-199.618"/>
<text text-anchor="middle" x="545" y="-204.5" font-family="Helvetica,sans-Serif" font-size="10.00"> _result</text>
</g>
<!-- Node15 -->
<g id="node15" class="node"><title>Node15</title>
<polygon fill="white" stroke="#bfbfbf" points="238,-241 238,-260 295,-260 295,-241 238,-241"/>
<text text-anchor="middle" x="266.5" y="-248" font-family="Helvetica,sans-Serif" font-size="10.00">VectorXd</text>
</g>
<!-- Node15&#45;&gt;Node1 -->
<g id="edge17" class="edge"><title>Node15&#45;&gt;Node1</title>
<path fill="none" stroke="#9a32cd" stroke-dasharray="5,2" d="M289.764,-265.9C321.789,-286.509 383.414,-320.5 441.5,-320.5 441.5,-320.5 441.5,-320.5 780,-320.5 883.702,-320.5 969.959,-201.574 993.281,-166.268"/>
<polygon fill="#9a32cd" stroke="#9a32cd" points="291.451,-262.82 281.177,-260.233 287.595,-268.662 291.451,-262.82"/>
<text text-anchor="middle" x="619.5" y="-345.5" font-family="Helvetica,sans-Serif" font-size="10.00"> _xu</text>
<text text-anchor="middle" x="619.5" y="-334.5" font-family="Helvetica,sans-Serif" font-size="10.00">bandh</text>
<text text-anchor="middle" x="619.5" y="-323.5" font-family="Helvetica,sans-Serif" font-size="10.00">_xl</text>
</g>
<!-- Node15&#45;&gt;Node2 -->
<g id="edge15" class="edge"><title>Node15&#45;&gt;Node2</title>
<path fill="none" stroke="#9a32cd" stroke-dasharray="5,2" d="M305.172,-252.246C381.659,-254.961 560.259,-257.065 706,-226.5 724.031,-222.719 743.544,-215.168 757.703,-209.011"/>
<polygon fill="#9a32cd" stroke="#9a32cd" points="305.197,-248.745 295.072,-251.862 304.932,-255.74 305.197,-248.745"/>
<text text-anchor="middle" x="545" y="-295.5" font-family="Helvetica,sans-Serif" font-size="10.00"> Xsolution</text>
<text text-anchor="middle" x="545" y="-284.5" font-family="Helvetica,sans-Serif" font-size="10.00">_b</text>
<text text-anchor="middle" x="545" y="-273.5" font-family="Helvetica,sans-Serif" font-size="10.00">_d</text>
<text text-anchor="middle" x="545" y="-262.5" font-family="Helvetica,sans-Serif" font-size="10.00">_btotal</text>
<text text-anchor="middle" x="545" y="-251.5" font-family="Helvetica,sans-Serif" font-size="10.00">_h</text>
</g>
<!-- Node15&#45;&gt;Node14 -->
<g id="edge14" class="edge"><title>Node15&#45;&gt;Node14</title>
<path fill="none" stroke="#9a32cd" stroke-dasharray="5,2" d="M294.833,-236.629C304.186,-232.424 314.852,-228.206 325,-225.5 342.501,-220.833 361.914,-217.839 379.794,-215.92"/>
<polygon fill="#9a32cd" stroke="#9a32cd" points="293.206,-233.527 285.639,-240.943 296.179,-239.864 293.206,-233.527"/>
<text text-anchor="middle" x="343.5" y="-228.5" font-family="Helvetica,sans-Serif" font-size="10.00"> solution</text>
</g>
<!-- Node16 -->
<g id="node16" class="node"><title>Node16</title>
<polygon fill="white" stroke="#bfbfbf" points="591.5,-141 591.5,-160 647.5,-160 647.5,-141 591.5,-141"/>
<text text-anchor="middle" x="619.5" y="-148" font-family="Helvetica,sans-Serif" font-size="10.00">MatrixXd</text>
</g>
<!-- Node16&#45;&gt;Node1 -->
<g id="edge18" class="edge"><title>Node16&#45;&gt;Node1</title>
<path fill="none" stroke="#9a32cd" stroke-dasharray="5,2" d="M658.206,-150.898C673.095,-151.066 690.353,-151.275 706,-151.5 780.397,-152.569 865.398,-154.045 924.709,-155.116"/>
<polygon fill="#9a32cd" stroke="#9a32cd" points="657.878,-147.394 647.839,-150.783 657.8,-154.393 657.878,-147.394"/>
<text text-anchor="middle" x="779" y="-155.5" font-family="Helvetica,sans-Serif" font-size="10.00"> AandG</text>
</g>
<!-- Node16&#45;&gt;Node2 -->
<g id="edge16" class="edge"><title>Node16&#45;&gt;Node2</title>
<path fill="none" stroke="#9a32cd" stroke-dasharray="5,2" d="M657.664,-153.59C672.891,-155.512 690.535,-158.593 706,-163.5 726.381,-169.967 748.118,-181.563 762.311,-189.847"/>
<polygon fill="#9a32cd" stroke="#9a32cd" points="657.897,-150.094 647.565,-152.436 657.103,-157.049 657.897,-150.094"/>
<text text-anchor="middle" x="689" y="-199.5" font-family="Helvetica,sans-Serif" font-size="10.00"> _Atotal</text>
<text text-anchor="middle" x="689" y="-188.5" font-family="Helvetica,sans-Serif" font-size="10.00">_A</text>
<text text-anchor="middle" x="689" y="-177.5" font-family="Helvetica,sans-Serif" font-size="10.00">_C</text>
<text text-anchor="middle" x="689" y="-166.5" font-family="Helvetica,sans-Serif" font-size="10.00">_G</text>
</g>
<!-- Node17 -->
<g id="node17" class="node"><title>Node17</title>
<g id="a_node17"><a xlink:href="../../db/db8/classocra_1_1ObjQLD.html" target="_top" xlink:title="ObjQLD class. ">
<polygon fill="white" stroke="black" points="740.5,-78 740.5,-97 817.5,-97 817.5,-78 740.5,-78"/>
<text text-anchor="middle" x="779" y="-85" font-family="Helvetica,sans-Serif" font-size="10.00">ocra::ObjQLD</text>
</a>
</g>
</g>
<!-- Node17&#45;&gt;Node1 -->
<g id="edge19" class="edge"><title>Node17&#45;&gt;Node1</title>
<path fill="none" stroke="#9a32cd" stroke-dasharray="5,2" d="M827.713,-91.7892C851.905,-94.8615 881.488,-100.01 907,-108.5 936.012,-118.155 967.031,-135.981 984.764,-146.982"/>
<polygon fill="#9a32cd" stroke="#9a32cd" points="828.046,-88.3043 817.702,-90.596 827.217,-95.2551 828.046,-88.3043"/>
<text text-anchor="middle" x="879.5" y="-111.5" font-family="Helvetica,sans-Serif" font-size="10.00"> _QLDsolver</text>
</g>
</g>
</svg>
