<?xml version="1.0" encoding="UTF-8" standalone="no"?>
<!DOCTYPE svg PUBLIC "-//W3C//DTD SVG 1.1//EN"
 "http://www.w3.org/Graphics/SVG/1.1/DTD/svg11.dtd">
<!-- Generated by graphviz version 2.38.0 (20140413.2041)
 -->
<!-- Title: ObserverSubject.h Pages: 1 -->
<svg width="834pt" height="162pt"
 viewBox="0.00 0.00 834.00 162.00" xmlns="http://www.w3.org/2000/svg" xmlns:xlink="http://www.w3.org/1999/xlink">
<g id="graph0" class="graph" transform="scale(1 1) rotate(0) translate(4 158)">
<title>ObserverSubject.h</title>
<polygon fill="white" stroke="none" points="-4,4 -4,-158 830,-158 830,4 -4,4"/>
<!-- Node1 -->
<g id="node1" class="node"><title>Node1</title>
<polygon fill="#bfbfbf" stroke="black" points="484,-134.5 484,-153.5 582,-153.5 582,-134.5 484,-134.5"/>
<text text-anchor="middle" x="533" y="-141.5" font-family="Helvetica,sans-Serif" font-size="10.00">ObserverSubject.h</text>
</g>
<!-- Node2 -->
<g id="node2" class="node"><title>Node2</title>
<g id="a_node2"><a xlink:href="../../df/d67/ObserverSubjectBase_8h.html" target="_top" xlink:title="Declaration file of the Observer and Subject base classes. ">
<polygon fill="white" stroke="black" points="249,-67.5 249,-97.5 387,-97.5 387,-67.5 249,-67.5"/>
<text text-anchor="start" x="257" y="-85.5" font-family="Helvetica,sans-Serif" font-size="10.00">ocra/optim/ObserverSubject</text>
<text text-anchor="middle" x="318" y="-74.5" font-family="Helvetica,sans-Serif" font-size="10.00">Base.h</text>
</a>
</g>
</g>
<!-- Node1&#45;&gt;Node2 -->
<g id="edge1" class="edge"><title>Node1&#45;&gt;Node2</title>
<path fill="none" stroke="midnightblue" d="M502.196,-134.475C470.015,-125.569 418.702,-111.369 378.399,-100.215"/>
<polygon fill="midnightblue" stroke="midnightblue" points="379.243,-96.817 368.671,-97.523 377.375,-103.563 379.243,-96.817"/>
</g>
<!-- Node6 -->
<g id="node6" class="node"><title>Node6</title>
<polygon fill="white" stroke="#bfbfbf" points="366,-0.5 366,-30.5 466,-30.5 466,-0.5 366,-0.5"/>
<text text-anchor="start" x="374" y="-18.5" font-family="Helvetica,sans-Serif" font-size="10.00">boost/type_traits/is</text>
<text text-anchor="middle" x="416" y="-7.5" font-family="Helvetica,sans-Serif" font-size="10.00">_class.hpp</text>
</g>
<!-- Node1&#45;&gt;Node6 -->
<g id="edge13" class="edge"><title>Node1&#45;&gt;Node6</title>
<path fill="none" stroke="midnightblue" d="M524.958,-134.305C506.837,-114.712 462.354,-66.6176 436.17,-38.308"/>
<polygon fill="midnightblue" stroke="midnightblue" points="438.667,-35.8529 429.307,-30.888 433.528,-40.6059 438.667,-35.8529"/>
</g>
<!-- Node7 -->
<g id="node7" class="node"><title>Node7</title>
<polygon fill="white" stroke="#bfbfbf" points="484,-0.5 484,-30.5 584,-30.5 584,-0.5 484,-0.5"/>
<text text-anchor="start" x="492" y="-18.5" font-family="Helvetica,sans-Serif" font-size="10.00">boost/type_traits/is</text>
<text text-anchor="middle" x="534" y="-7.5" font-family="Helvetica,sans-Serif" font-size="10.00">_base_of.hpp</text>
</g>
<!-- Node1&#45;&gt;Node7 -->
<g id="edge11" class="edge"><title>Node1&#45;&gt;Node7</title>
<path fill="none" stroke="midnightblue" d="M533.069,-134.305C533.219,-115.298 533.581,-69.4696 533.807,-40.9004"/>
<polygon fill="midnightblue" stroke="midnightblue" points="537.307,-40.9154 533.886,-30.888 530.307,-40.86 537.307,-40.9154"/>
</g>
<!-- Node8 -->
<g id="node8" class="node"><title>Node8</title>
<polygon fill="white" stroke="#bfbfbf" points="602.5,-6 602.5,-25 721.5,-25 721.5,-6 602.5,-6"/>
<text text-anchor="middle" x="662" y="-13" font-family="Helvetica,sans-Serif" font-size="10.00">boost/static_assert.hpp</text>
</g>
<!-- Node1&#45;&gt;Node8 -->
<g id="edge10" class="edge"><title>Node1&#45;&gt;Node8</title>
<path fill="none" stroke="midnightblue" d="M535.542,-134.496C540.436,-119.327 552.45,-87.2918 572,-67 588.09,-50.2993 610.918,-37.5767 629.556,-29.0789"/>
<polygon fill="midnightblue" stroke="midnightblue" points="631.095,-32.2262 638.863,-25.0215 628.298,-25.8095 631.095,-32.2262"/>
</g>
<!-- Node10 -->
<g id="node10" class="node"><title>Node10</title>
<g id="a_node10"><a xlink:href="../../db/ddf/ocra__events_8h.html" target="_top" xlink:title="ocra/optim/ocra_events.h">
<polygon fill="white" stroke="black" points="580.5,-73 580.5,-92 707.5,-92 707.5,-73 580.5,-73"/>
<text text-anchor="middle" x="644" y="-80" font-family="Helvetica,sans-Serif" font-size="10.00">ocra/optim/ocra_events.h</text>
</a>
</g>
</g>
<!-- Node1&#45;&gt;Node10 -->
<g id="edge9" class="edge"><title>Node1&#45;&gt;Node10</title>
<path fill="none" stroke="midnightblue" d="M548.904,-134.475C567.285,-124.622 597.756,-108.288 619.245,-96.7697"/>
<polygon fill="midnightblue" stroke="midnightblue" points="620.966,-99.8183 628.126,-92.0091 617.659,-93.6488 620.966,-99.8183"/>
</g>
<!-- Node11 -->
<g id="node11" class="node"><title>Node11</title>
<polygon fill="white" stroke="#bfbfbf" points="726,-67.5 726,-97.5 826,-97.5 826,-67.5 726,-67.5"/>
<text text-anchor="start" x="734" y="-85.5" font-family="Helvetica,sans-Serif" font-size="10.00">boost/type_traits/is</text>
<text text-anchor="middle" x="776" y="-74.5" font-family="Helvetica,sans-Serif" font-size="10.00">_convertible.hpp</text>
</g>
<!-- Node1&#45;&gt;Node11 -->
<g id="edge12" class="edge"><title>Node1&#45;&gt;Node11</title>
<path fill="none" stroke="midnightblue" d="M567.935,-134.469C602.924,-125.921 658.588,-112.316 715.84,-98.2829"/>
<polygon fill="midnightblue" stroke="midnightblue" points="716.91,-101.624 725.789,-95.8441 715.243,-94.8258 716.91,-101.624"/>
</g>
<!-- Node3 -->
<g id="node3" class="node"><title>Node3</title>
<polygon fill="white" stroke="#bfbfbf" points="288.5,-6 288.5,-25 347.5,-25 347.5,-6 288.5,-6"/>
<text text-anchor="middle" x="318" y="-13" font-family="Helvetica,sans-Serif" font-size="10.00">functional</text>
</g>
<!-- Node2&#45;&gt;Node3 -->
<g id="edge2" class="edge"><title>Node2&#45;&gt;Node3</title>
<path fill="none" stroke="midnightblue" d="M318,-67.396C318,-58.0638 318,-45.7143 318,-35.5173"/>
<polygon fill="midnightblue" stroke="midnightblue" points="321.5,-35.1945 318,-25.1945 314.5,-35.1946 321.5,-35.1945"/>
</g>
<!-- Node4 -->
<g id="node4" class="node"><title>Node4</title>
<polygon fill="white" stroke="#bfbfbf" points="0,-6 0,-25 56,-25 56,-6 0,-6"/>
<text text-anchor="middle" x="28" y="-13" font-family="Helvetica,sans-Serif" font-size="10.00">algorithm</text>
</g>
<!-- Node2&#45;&gt;Node4 -->
<g id="edge3" class="edge"><title>Node2&#45;&gt;Node4</title>
<path fill="none" stroke="midnightblue" d="M248.75,-71.0687C197.45,-62.5258 126.139,-48.9293 65,-31 62.567,-30.2865 60.07,-29.479 57.5776,-28.6193"/>
<polygon fill="midnightblue" stroke="midnightblue" points="58.7254,-25.3122 48.1321,-25.1325 56.3012,-31.8791 58.7254,-25.3122"/>
</g>
<!-- Node5 -->
<g id="node5" class="node"><title>Node5</title>
<polygon fill="white" stroke="#bfbfbf" points="74,-6 74,-25 152,-25 152,-6 74,-6"/>
<text text-anchor="middle" x="113" y="-13" font-family="Helvetica,sans-Serif" font-size="10.00">boost/any.hpp</text>
</g>
<!-- Node2&#45;&gt;Node5 -->
<g id="edge4" class="edge"><title>Node2&#45;&gt;Node5</title>
<path fill="none" stroke="midnightblue" d="M273.77,-67.476C236.704,-55.7232 184.414,-39.1433 149.649,-28.1205"/>
<polygon fill="midnightblue" stroke="midnightblue" points="150.488,-24.7149 139.898,-25.0287 148.373,-31.3875 150.488,-24.7149"/>
</g>
<!-- Node2&#45;&gt;Node6 -->
<g id="edge5" class="edge"><title>Node2&#45;&gt;Node6</title>
<path fill="none" stroke="midnightblue" d="M339.265,-67.396C353.006,-58.282 371.086,-46.2902 386.244,-36.236"/>
<polygon fill="midnightblue" stroke="midnightblue" points="388.378,-39.0207 394.777,-30.5765 384.509,-33.1872 388.378,-39.0207"/>
</g>
<!-- Node2&#45;&gt;Node7 -->
<g id="edge6" class="edge"><title>Node2&#45;&gt;Node7</title>
<path fill="none" stroke="midnightblue" d="M364.603,-67.476C397.704,-57.5149 442.329,-44.0862 477.467,-33.5123"/>
<polygon fill="midnightblue" stroke="midnightblue" points="478.541,-36.8441 487.108,-30.6109 476.524,-30.1411 478.541,-36.8441"/>
</g>
<!-- Node2&#45;&gt;Node8 -->
<g id="edge7" class="edge"><title>Node2&#45;&gt;Node8</title>
<path fill="none" stroke="midnightblue" d="M387.032,-69.3266C442.705,-59.3878 522.988,-44.7824 593,-31 599.227,-29.7742 605.761,-28.4503 612.223,-27.1182"/>
<polygon fill="midnightblue" stroke="midnightblue" points="613.186,-30.493 622.264,-25.031 611.761,-23.6395 613.186,-30.493"/>
</g>
<!-- Node9 -->
<g id="node9" class="node"><title>Node9</title>
<polygon fill="white" stroke="#bfbfbf" points="170,-0.5 170,-30.5 270,-30.5 270,-0.5 170,-0.5"/>
<text text-anchor="start" x="178" y="-18.5" font-family="Helvetica,sans-Serif" font-size="10.00">boost/ptr_container</text>
<text text-anchor="middle" x="220" y="-7.5" font-family="Helvetica,sans-Serif" font-size="10.00">/ptr_vector.hpp</text>
</g>
<!-- Node2&#45;&gt;Node9 -->
<g id="edge8" class="edge"><title>Node2&#45;&gt;Node9</title>
<path fill="none" stroke="midnightblue" d="M296.735,-67.396C282.994,-58.282 264.914,-46.2902 249.756,-36.236"/>
<polygon fill="midnightblue" stroke="midnightblue" points="251.491,-33.1872 241.223,-30.5765 247.622,-39.0207 251.491,-33.1872"/>
</g>
</g>
</svg>
