<?xml version="1.0" encoding="UTF-8" standalone="no"?>
<!DOCTYPE svg PUBLIC "-//W3C//DTD SVG 1.1//EN"
 "http://www.w3.org/Graphics/SVG/1.1/DTD/svg11.dtd">
<!-- Generated by graphviz version 2.38.0 (20140413.2041)
 -->
<!-- Title: TaskBuilderOptions.cpp Pages: 1 -->
<svg width="570pt" height="263pt"
 viewBox="0.00 0.00 569.55 263.00" xmlns="http://www.w3.org/2000/svg" xmlns:xlink="http://www.w3.org/1999/xlink">
<g id="graph0" class="graph" transform="scale(1 1) rotate(0) translate(4 259)">
<title>TaskBuilderOptions.cpp</title>
<polygon fill="white" stroke="none" points="-4,4 -4,-259 565.554,-259 565.554,4 -4,4"/>
<!-- Node1 -->
<g id="node1" class="node"><title>Node1</title>
<polygon fill="#bfbfbf" stroke="black" points="118.554,-235.5 118.554,-254.5 239.554,-254.5 239.554,-235.5 118.554,-235.5"/>
<text text-anchor="middle" x="179.054" y="-242.5" font-family="Helvetica,sans-Serif" font-size="10.00">TaskBuilderOptions.cpp</text>
</g>
<!-- Node2 -->
<g id="node2" class="node"><title>Node2</title>
<g id="a_node2"><a xlink:href="../../d2/d1d/TaskBuilderOptions_8h.html" target="_top" xlink:title="ocra/control/TaskBuilders\l/TaskBuilderOptions.h">
<polygon fill="white" stroke="black" points="115.054,-168.5 115.054,-198.5 243.054,-198.5 243.054,-168.5 115.054,-168.5"/>
<text text-anchor="start" x="123.054" y="-186.5" font-family="Helvetica,sans-Serif" font-size="10.00">ocra/control/TaskBuilders</text>
<text text-anchor="middle" x="179.054" y="-175.5" font-family="Helvetica,sans-Serif" font-size="10.00">/TaskBuilderOptions.h</text>
</a>
</g>
</g>
<!-- Node1&#45;&gt;Node2 -->
<g id="edge1" class="edge"><title>Node1&#45;&gt;Node2</title>
<path fill="none" stroke="midnightblue" d="M179.054,-235.475C179.054,-228.471 179.054,-218.192 179.054,-208.696"/>
<polygon fill="midnightblue" stroke="midnightblue" points="182.554,-208.523 179.054,-198.523 175.554,-208.523 182.554,-208.523"/>
</g>
<!-- Node3 -->
<g id="node3" class="node"><title>Node3</title>
<polygon fill="white" stroke="#bfbfbf" points="161.554,-0.5 161.554,-19.5 234.554,-19.5 234.554,-0.5 161.554,-0.5"/>
<text text-anchor="middle" x="198.054" y="-7.5" font-family="Helvetica,sans-Serif" font-size="10.00">Eigen/Dense</text>
</g>
<!-- Node2&#45;&gt;Node3 -->
<g id="edge2" class="edge"><title>Node2&#45;&gt;Node3</title>
<path fill="none" stroke="midnightblue" d="M114.911,-172.368C70.4179,-163.878 16.7785,-150.217 3.0537,-132 -2.29516,-124.901 1.53661,-120.758 3.0537,-112 7.56432,-85.9592 3.53224,-73.8152 23.0537,-56 57.938,-24.1647 112.314,-14.2101 151.192,-11.4108"/>
<polygon fill="midnightblue" stroke="midnightblue" points="151.441,-14.9023 161.218,-10.8212 151.03,-7.91434 151.441,-14.9023"/>
</g>
<!-- Node4 -->
<g id="node4" class="node"><title>Node4</title>
<polygon fill="white" stroke="#bfbfbf" points="102.054,-56.5 102.054,-75.5 170.054,-75.5 170.054,-56.5 102.054,-56.5"/>
<text text-anchor="middle" x="136.054" y="-63.5" font-family="Helvetica,sans-Serif" font-size="10.00">Eigen/Lgsm</text>
</g>
<!-- Node2&#45;&gt;Node4 -->
<g id="edge3" class="edge"><title>Node2&#45;&gt;Node4</title>
<path fill="none" stroke="midnightblue" d="M171.497,-168.182C166.425,-158.215 159.823,-144.518 155.054,-132 149.167,-116.55 144.015,-98.4604 140.566,-85.2929"/>
<polygon fill="midnightblue" stroke="midnightblue" points="143.947,-84.3856 138.091,-75.556 137.162,-86.1101 143.947,-84.3856"/>
</g>
<!-- Node5 -->
<g id="node5" class="node"><title>Node5</title>
<g id="a_node5"><a xlink:href="../../df/d0a/Macros_8h.html" target="_top" xlink:title="ocra/util/Macros.h">
<polygon fill="white" stroke="black" points="12.5537,-112.5 12.5537,-131.5 107.554,-131.5 107.554,-112.5 12.5537,-112.5"/>
<text text-anchor="middle" x="60.0537" y="-119.5" font-family="Helvetica,sans-Serif" font-size="10.00">ocra/util/Macros.h</text>
</a>
</g>
</g>
<!-- Node2&#45;&gt;Node5 -->
<g id="edge4" class="edge"><title>Node2&#45;&gt;Node5</title>
<path fill="none" stroke="midnightblue" d="M150.852,-168.399C131.332,-158.639 105.528,-145.737 86.419,-136.183"/>
<polygon fill="midnightblue" stroke="midnightblue" points="87.8788,-132.999 77.3693,-131.658 84.7483,-139.26 87.8788,-132.999"/>
</g>
<!-- Node7 -->
<g id="node7" class="node"><title>Node7</title>
<g id="a_node7"><a xlink:href="../../d5/ded/YarpUtilities_8h.html" target="_top" xlink:title="ocra/util/YarpUtilities.h">
<polygon fill="white" stroke="black" points="164.054,-112.5 164.054,-131.5 280.054,-131.5 280.054,-112.5 164.054,-112.5"/>
<text text-anchor="middle" x="222.054" y="-119.5" font-family="Helvetica,sans-Serif" font-size="10.00">ocra/util/YarpUtilities.h</text>
</a>
</g>
</g>
<!-- Node2&#45;&gt;Node7 -->
<g id="edge6" class="edge"><title>Node2&#45;&gt;Node7</title>
<path fill="none" stroke="midnightblue" d="M189.244,-168.399C195.428,-159.842 203.357,-148.871 209.871,-139.857"/>
<polygon fill="midnightblue" stroke="midnightblue" points="212.776,-141.813 215.797,-131.658 207.103,-137.713 212.776,-141.813"/>
</g>
<!-- Node10 -->
<g id="node10" class="node"><title>Node10</title>
<polygon fill="white" stroke="#bfbfbf" points="264.054,-56.5 264.054,-75.5 350.054,-75.5 350.054,-56.5 264.054,-56.5"/>
<text text-anchor="middle" x="307.054" y="-63.5" font-family="Helvetica,sans-Serif" font-size="10.00">yarp/os/Bottle.h</text>
</g>
<!-- Node2&#45;&gt;Node10 -->
<g id="edge19" class="edge"><title>Node2&#45;&gt;Node10</title>
<path fill="none" stroke="midnightblue" d="M232.655,-168.491C252.87,-160.751 274.478,-149.12 289.054,-132 300.074,-119.055 304.384,-99.8864 306.05,-85.717"/>
<polygon fill="midnightblue" stroke="midnightblue" points="309.547,-85.8977 306.897,-75.6396 302.572,-85.3112 309.547,-85.8977"/>
</g>
<!-- Node11 -->
<g id="node11" class="node"><title>Node11</title>
<g id="a_node11"><a xlink:href="../../df/d60/ControlEnum_8h.html" target="_top" xlink:title="Some enumerations for the control. ">
<polygon fill="white" stroke="black" points="336.054,-112.5 336.054,-131.5 472.054,-131.5 472.054,-112.5 336.054,-112.5"/>
<text text-anchor="middle" x="404.054" y="-119.5" font-family="Helvetica,sans-Serif" font-size="10.00">ocra/control/ControlEnum.h</text>
</a>
</g>
</g>
<!-- Node2&#45;&gt;Node11 -->
<g id="edge12" class="edge"><title>Node2&#45;&gt;Node11</title>
<path fill="none" stroke="midnightblue" d="M232.091,-168.475C271.755,-157.986 325.259,-143.837 361.995,-134.122"/>
<polygon fill="midnightblue" stroke="midnightblue" points="363.114,-137.447 371.887,-131.506 361.324,-130.679 363.114,-137.447"/>
</g>
<!-- Node6 -->
<g id="node6" class="node"><title>Node6</title>
<polygon fill="white" stroke="#bfbfbf" points="32.0537,-56.5 32.0537,-75.5 84.0537,-75.5 84.0537,-56.5 32.0537,-56.5"/>
<text text-anchor="middle" x="58.0537" y="-63.5" font-family="Helvetica,sans-Serif" font-size="10.00">memory</text>
</g>
<!-- Node5&#45;&gt;Node6 -->
<g id="edge5" class="edge"><title>Node5&#45;&gt;Node6</title>
<path fill="none" stroke="midnightblue" d="M59.7234,-112.083C59.4613,-105.006 59.0856,-94.8611 58.7569,-85.9865"/>
<polygon fill="midnightblue" stroke="midnightblue" points="62.2456,-85.6147 58.3778,-75.7511 55.2504,-85.8738 62.2456,-85.6147"/>
</g>
<!-- Node7&#45;&gt;Node3 -->
<g id="edge9" class="edge"><title>Node7&#45;&gt;Node3</title>
<path fill="none" stroke="midnightblue" d="M220.17,-112.368C216.297,-94.617 207.363,-53.6664 202.111,-29.5974"/>
<polygon fill="midnightblue" stroke="midnightblue" points="205.479,-28.6155 199.928,-19.5914 198.64,-30.1077 205.479,-28.6155"/>
</g>
<!-- Node7&#45;&gt;Node4 -->
<g id="edge10" class="edge"><title>Node7&#45;&gt;Node4</title>
<path fill="none" stroke="midnightblue" d="M208.236,-112.324C194.821,-103.9 174.23,-90.9709 158.468,-81.0741"/>
<polygon fill="midnightblue" stroke="midnightblue" points="160.167,-78.0081 149.837,-75.6545 156.445,-83.9364 160.167,-78.0081"/>
</g>
<!-- Node8 -->
<g id="node8" class="node"><title>Node8</title>
<polygon fill="white" stroke="#bfbfbf" points="368.054,-56.5 368.054,-75.5 422.054,-75.5 422.054,-56.5 368.054,-56.5"/>
<text text-anchor="middle" x="395.054" y="-63.5" font-family="Helvetica,sans-Serif" font-size="10.00">iostream</text>
</g>
<!-- Node7&#45;&gt;Node8 -->
<g id="edge7" class="edge"><title>Node7&#45;&gt;Node8</title>
<path fill="none" stroke="midnightblue" d="M249.466,-112.444C278.823,-103.28 325.573,-88.6876 358.15,-78.5192"/>
<polygon fill="midnightblue" stroke="midnightblue" points="359.267,-81.8371 367.77,-75.5164 357.181,-75.1551 359.267,-81.8371"/>
</g>
<!-- Node9 -->
<g id="node9" class="node"><title>Node9</title>
<polygon fill="white" stroke="#bfbfbf" points="332.054,-0.5 332.054,-19.5 376.054,-19.5 376.054,-0.5 332.054,-0.5"/>
<text text-anchor="middle" x="354.054" y="-7.5" font-family="Helvetica,sans-Serif" font-size="10.00">vector</text>
</g>
<!-- Node7&#45;&gt;Node9 -->
<g id="edge8" class="edge"><title>Node7&#45;&gt;Node9</title>
<path fill="none" stroke="midnightblue" d="M224.426,-112.29C228.546,-98.6393 238.236,-72.107 255.054,-56 273.802,-38.0441 300.97,-26.3948 322.106,-19.4576"/>
<polygon fill="midnightblue" stroke="midnightblue" points="323.411,-22.7178 331.933,-16.4236 321.346,-16.0293 323.411,-22.7178"/>
</g>
<!-- Node7&#45;&gt;Node10 -->
<g id="edge11" class="edge"><title>Node7&#45;&gt;Node10</title>
<path fill="none" stroke="midnightblue" d="M235.71,-112.324C248.97,-103.9 269.322,-90.9709 284.9,-81.0741"/>
<polygon fill="midnightblue" stroke="midnightblue" points="286.867,-83.9711 293.431,-75.6545 283.113,-78.0626 286.867,-83.9711"/>
</g>
<!-- Node11&#45;&gt;Node8 -->
<g id="edge18" class="edge"><title>Node11&#45;&gt;Node8</title>
<path fill="none" stroke="midnightblue" d="M402.568,-112.083C401.375,-104.927 399.66,-94.6353 398.169,-85.6911"/>
<polygon fill="midnightblue" stroke="midnightblue" points="401.609,-85.0396 396.512,-75.7511 394.704,-86.1904 401.609,-85.0396"/>
</g>
<!-- Node12 -->
<g id="node12" class="node"><title>Node12</title>
<g id="a_node12"><a xlink:href="../../da/dbb/StringUtilities_8h.html" target="_top" xlink:title="ocra/util/StringUtilities.h">
<polygon fill="white" stroke="black" points="440.554,-56.5 440.554,-75.5 561.554,-75.5 561.554,-56.5 440.554,-56.5"/>
<text text-anchor="middle" x="501.054" y="-63.5" font-family="Helvetica,sans-Serif" font-size="10.00">ocra/util/StringUtilities.h</text>
</a>
</g>
</g>
<!-- Node11&#45;&gt;Node12 -->
<g id="edge13" class="edge"><title>Node11&#45;&gt;Node12</title>
<path fill="none" stroke="midnightblue" d="M419.638,-112.324C435.053,-103.743 458.866,-90.486 476.763,-80.5224"/>
<polygon fill="midnightblue" stroke="midnightblue" points="478.473,-83.5767 485.508,-75.6545 475.068,-77.4606 478.473,-83.5767"/>
</g>
<!-- Node12&#45;&gt;Node3 -->
<g id="edge17" class="edge"><title>Node12&#45;&gt;Node3</title>
<path fill="none" stroke="midnightblue" d="M453.042,-56.4435C396.018,-46.2807 301.522,-29.4399 244.978,-19.3628"/>
<polygon fill="midnightblue" stroke="midnightblue" points="245.339,-15.872 234.88,-17.5631 244.11,-22.7634 245.339,-15.872"/>
</g>
<!-- Node12&#45;&gt;Node9 -->
<g id="edge16" class="edge"><title>Node12&#45;&gt;Node9</title>
<path fill="none" stroke="midnightblue" d="M477.761,-56.4435C452.958,-47.3322 413.543,-32.8531 385.884,-22.6929"/>
<polygon fill="midnightblue" stroke="midnightblue" points="386.869,-19.3258 376.275,-19.1629 384.455,-25.8965 386.869,-19.3258"/>
</g>
<!-- Node13 -->
<g id="node13" class="node"><title>Node13</title>
<polygon fill="white" stroke="#bfbfbf" points="439.054,-0.5 439.054,-19.5 495.054,-19.5 495.054,-0.5 439.054,-0.5"/>
<text text-anchor="middle" x="467.054" y="-7.5" font-family="Helvetica,sans-Serif" font-size="10.00">algorithm</text>
</g>
<!-- Node12&#45;&gt;Node13 -->
<g id="edge14" class="edge"><title>Node12&#45;&gt;Node13</title>
<path fill="none" stroke="midnightblue" d="M495.439,-56.083C490.686,-48.5341 483.736,-37.4948 477.902,-28.2298"/>
<polygon fill="midnightblue" stroke="midnightblue" points="480.854,-26.3486 472.564,-19.7511 474.93,-30.0783 480.854,-26.3486"/>
</g>
<!-- Node14 -->
<g id="node14" class="node"><title>Node14</title>
<polygon fill="white" stroke="#bfbfbf" points="513.554,-0.5 513.554,-19.5 554.554,-19.5 554.554,-0.5 513.554,-0.5"/>
<text text-anchor="middle" x="534.054" y="-7.5" font-family="Helvetica,sans-Serif" font-size="10.00">string</text>
</g>
<!-- Node12&#45;&gt;Node14 -->
<g id="edge15" class="edge"><title>Node12&#45;&gt;Node14</title>
<path fill="none" stroke="midnightblue" d="M506.503,-56.083C511.068,-48.6127 517.722,-37.7244 523.347,-28.5199"/>
<polygon fill="midnightblue" stroke="midnightblue" points="526.478,-30.109 528.706,-19.7511 520.505,-26.4588 526.478,-30.109"/>
</g>
</g>
</svg>
