<?xml version="1.0" encoding="UTF-8" standalone="no"?>
<!DOCTYPE svg PUBLIC "-//W3C//DTD SVG 1.1//EN"
 "http://www.w3.org/Graphics/SVG/1.1/DTD/svg11.dtd">
<!-- Generated by graphviz version 2.38.0 (20140413.2041)
 -->
<!-- Title: Buffer.h Pages: 1 -->
<svg width="315pt" height="140pt"
 viewBox="0.00 0.00 314.50 140.00" xmlns="http://www.w3.org/2000/svg" xmlns:xlink="http://www.w3.org/1999/xlink">
<g id="graph0" class="graph" transform="scale(1 1) rotate(0) translate(4 136)">
<title>Buffer.h</title>
<polygon fill="white" stroke="none" points="-4,4 -4,-136 310.5,-136 310.5,4 -4,4"/>
<!-- Node1 -->
<g id="node1" class="node"><title>Node1</title>
<polygon fill="#bfbfbf" stroke="black" points="128.5,-112.5 128.5,-131.5 179.5,-131.5 179.5,-112.5 128.5,-112.5"/>
<text text-anchor="middle" x="154" y="-119.5" font-family="Helvetica,sans-Serif" font-size="10.00">Buffer.h</text>
</g>
<!-- Node2 -->
<g id="node2" class="node"><title>Node2</title>
<g id="a_node2"><a xlink:href="../../dc/d89/FSQPSolver_8h.html" target="_top" xlink:title="Declaration file of the FSQPSolver class. ">
<polygon fill="white" stroke="black" points="8,-56.5 8,-75.5 88,-75.5 88,-56.5 8,-56.5"/>
<text text-anchor="middle" x="48" y="-63.5" font-family="Helvetica,sans-Serif" font-size="10.00">FSQPSolver.h</text>
</a>
</g>
</g>
<!-- Node1&#45;&gt;Node2 -->
<g id="edge1" class="edge"><title>Node1&#45;&gt;Node2</title>
<path fill="none" stroke="midnightblue" d="M127.944,-107.726C108.316,-97.7271 81.972,-84.3065 64.9885,-75.6545"/>
<polygon fill="midnightblue" stroke="midnightblue" points="126.47,-110.903 136.969,-112.324 129.648,-104.666 126.47,-110.903"/>
</g>
<!-- Node4 -->
<g id="node4" class="node"><title>Node4</title>
<g id="a_node4"><a xlink:href="../../d1/d88/NewtonSolver_8h.html" target="_top" xlink:title="Declaration file of the NewtonSolver class. ">
<polygon fill="white" stroke="black" points="111,-56.5 111,-75.5 197,-75.5 197,-56.5 111,-56.5"/>
<text text-anchor="middle" x="154" y="-63.5" font-family="Helvetica,sans-Serif" font-size="10.00">NewtonSolver.h</text>
</a>
</g>
</g>
<!-- Node1&#45;&gt;Node4 -->
<g id="edge3" class="edge"><title>Node1&#45;&gt;Node4</title>
<path fill="none" stroke="midnightblue" d="M154,-101.805C154,-92.9102 154,-82.7798 154,-75.7511"/>
<polygon fill="midnightblue" stroke="midnightblue" points="150.5,-102.083 154,-112.083 157.5,-102.083 150.5,-102.083"/>
</g>
<!-- Node6 -->
<g id="node6" class="node"><title>Node6</title>
<g id="a_node6"><a xlink:href="../../da/d52/QLDSolver_8h.html" target="_top" xlink:title="Declaration file of the QLDSolver class. ">
<polygon fill="white" stroke="black" points="215.5,-56.5 215.5,-75.5 288.5,-75.5 288.5,-56.5 215.5,-56.5"/>
<text text-anchor="middle" x="252" y="-63.5" font-family="Helvetica,sans-Serif" font-size="10.00">QLDSolver.h</text>
</a>
</g>
</g>
<!-- Node1&#45;&gt;Node6 -->
<g id="edge5" class="edge"><title>Node1&#45;&gt;Node6</title>
<path fill="none" stroke="midnightblue" d="M178.586,-107.453C196.678,-97.4835 220.735,-84.2279 236.294,-75.6545"/>
<polygon fill="midnightblue" stroke="midnightblue" points="176.815,-104.432 169.745,-112.324 180.193,-110.563 176.815,-104.432"/>
</g>
<!-- Node3 -->
<g id="node3" class="node"><title>Node3</title>
<g id="a_node3"><a xlink:href="../../d4/d2f/FSQPSolver_8cpp.html" target="_top" xlink:title="FSQPSolver.cpp">
<polygon fill="white" stroke="black" points="0,-0.5 0,-19.5 90,-19.5 90,-0.5 0,-0.5"/>
<text text-anchor="middle" x="45" y="-7.5" font-family="Helvetica,sans-Serif" font-size="10.00">FSQPSolver.cpp</text>
</a>
</g>
</g>
<!-- Node2&#45;&gt;Node3 -->
<g id="edge2" class="edge"><title>Node2&#45;&gt;Node3</title>
<path fill="none" stroke="midnightblue" d="M46.9336,-45.8045C46.4395,-36.9102 45.8767,-26.7798 45.4862,-19.7511"/>
<polygon fill="midnightblue" stroke="midnightblue" points="43.4552,-46.2926 47.5046,-56.083 50.4444,-45.9042 43.4552,-46.2926"/>
</g>
<!-- Node5 -->
<g id="node5" class="node"><title>Node5</title>
<g id="a_node5"><a xlink:href="../../d2/dcc/NewtonSolver_8cpp.html" target="_top" xlink:title="NewtonSolver.cpp">
<polygon fill="white" stroke="black" points="108.5,-0.5 108.5,-19.5 205.5,-19.5 205.5,-0.5 108.5,-0.5"/>
<text text-anchor="middle" x="157" y="-7.5" font-family="Helvetica,sans-Serif" font-size="10.00">NewtonSolver.cpp</text>
</a>
</g>
</g>
<!-- Node4&#45;&gt;Node5 -->
<g id="edge4" class="edge"><title>Node4&#45;&gt;Node5</title>
<path fill="none" stroke="midnightblue" d="M155.066,-45.8045C155.561,-36.9102 156.123,-26.7798 156.514,-19.7511"/>
<polygon fill="midnightblue" stroke="midnightblue" points="151.556,-45.9042 154.495,-56.083 158.545,-46.2926 151.556,-45.9042"/>
</g>
<!-- Node6&#45;&gt;Node5 -->
<g id="edge6" class="edge"><title>Node6&#45;&gt;Node5</title>
<path fill="none" stroke="midnightblue" d="M227.682,-51.1774C210.201,-41.2407 187.17,-28.1492 172.226,-19.6545"/>
<polygon fill="midnightblue" stroke="midnightblue" points="226.313,-54.425 236.737,-56.324 229.773,-48.3395 226.313,-54.425"/>
</g>
<!-- Node7 -->
<g id="node7" class="node"><title>Node7</title>
<g id="a_node7"><a xlink:href="../../da/db2/QLDSolver_8cpp.html" target="_top" xlink:title="QLDSolver.cpp">
<polygon fill="white" stroke="black" points="223.5,-0.5 223.5,-19.5 306.5,-19.5 306.5,-0.5 223.5,-0.5"/>
<text text-anchor="middle" x="265" y="-7.5" font-family="Helvetica,sans-Serif" font-size="10.00">QLDSolver.cpp</text>
</a>
</g>
</g>
<!-- Node6&#45;&gt;Node7 -->
<g id="edge7" class="edge"><title>Node6&#45;&gt;Node7</title>
<path fill="none" stroke="midnightblue" d="M256.55,-46.1005C258.708,-37.1357 261.182,-26.8579 262.893,-19.7511"/>
<polygon fill="midnightblue" stroke="midnightblue" points="253.085,-45.5415 254.147,-56.083 259.89,-47.18 253.085,-45.5415"/>
</g>
</g>
</svg>
