<?xml version="1.0" encoding="UTF-8" standalone="no"?>
<!DOCTYPE svg PUBLIC "-//W3C//DTD SVG 1.1//EN"
 "http://www.w3.org/Graphics/SVG/1.1/DTD/svg11.dtd">
<!-- Generated by graphviz version 2.38.0 (20140413.2041)
 -->
<!-- Title: ocra::CoupledInputOutputSize Pages: 1 -->
<svg width="830pt" height="656pt"
 viewBox="0.00 0.00 830.00 656.00" xmlns="http://www.w3.org/2000/svg" xmlns:xlink="http://www.w3.org/1999/xlink">
<g id="graph0" class="graph" transform="scale(1 1) rotate(0) translate(4 652)">
<title>ocra::CoupledInputOutputSize</title>
<polygon fill="white" stroke="none" points="-4,4 -4,-652 826,-652 826,4 -4,4"/>
<!-- Node1 -->
<g id="node1" class="node"><title>Node1</title>
<polygon fill="#bfbfbf" stroke="black" points="0,-297 0,-316 148,-316 148,-297 0,-297"/>
<text text-anchor="middle" x="74" y="-304" font-family="Helvetica,sans-Serif" font-size="10.00">ocra::CoupledInputOutputSize</text>
</g>
<!-- Node2 -->
<g id="node2" class="node"><title>Node2</title>
<g id="a_node2"><a xlink:href="../../d2/d99/classocra_1_1Function.html" target="_top" xlink:title="Function class. ">
<polygon fill="white" stroke="black" points="184,-297 184,-316 263,-316 263,-297 184,-297"/>
<text text-anchor="middle" x="223.5" y="-304" font-family="Helvetica,sans-Serif" font-size="10.00">ocra::Function</text>
</a>
</g>
</g>
<!-- Node1&#45;&gt;Node2 -->
<g id="edge1" class="edge"><title>Node1&#45;&gt;Node2</title>
<path fill="none" stroke="midnightblue" d="M158.376,-306.5C167.239,-306.5 175.913,-306.5 183.874,-306.5"/>
<polygon fill="midnightblue" stroke="midnightblue" points="158.318,-303 148.318,-306.5 158.318,-310 158.318,-303"/>
</g>
<!-- Node3 -->
<g id="node3" class="node"><title>Node3</title>
<g id="a_node3"><a xlink:href="../../d1/d44/classFunction1.html" target="_top" xlink:title="Function1">
<polygon fill="white" stroke="black" points="333.5,-487 333.5,-506 392.5,-506 392.5,-487 333.5,-487"/>
<text text-anchor="middle" x="363" y="-494" font-family="Helvetica,sans-Serif" font-size="10.00">Function1</text>
</a>
</g>
</g>
<!-- Node2&#45;&gt;Node3 -->
<g id="edge2" class="edge"><title>Node2&#45;&gt;Node3</title>
<path fill="none" stroke="midnightblue" d="M227.59,-326.367C234.168,-361.925 252.909,-436.549 299,-477.5 308.48,-485.922 321.583,-490.613 333.385,-493.225"/>
<polygon fill="midnightblue" stroke="midnightblue" points="231.001,-325.552 225.862,-316.287 224.102,-326.734 231.001,-325.552"/>
</g>
<!-- Node4 -->
<g id="node4" class="node"><title>Node4</title>
<g id="a_node4"><a xlink:href="../../d6/d7e/classFunction2.html" target="_top" xlink:title="Function2">
<polygon fill="white" stroke="black" points="333.5,-449 333.5,-468 392.5,-468 392.5,-449 333.5,-449"/>
<text text-anchor="middle" x="363" y="-456" font-family="Helvetica,sans-Serif" font-size="10.00">Function2</text>
</a>
</g>
</g>
<!-- Node2&#45;&gt;Node4 -->
<g id="edge3" class="edge"><title>Node2&#45;&gt;Node4</title>
<path fill="none" stroke="midnightblue" d="M230.196,-325.961C239.685,-354.975 261.488,-409.378 299,-439.5 308.799,-447.368 321.808,-451.982 333.46,-454.687"/>
<polygon fill="midnightblue" stroke="midnightblue" points="233.468,-324.696 227.155,-316.188 226.784,-326.776 233.468,-324.696"/>
</g>
<!-- Node5 -->
<g id="node5" class="node"><title>Node5</title>
<g id="a_node5"><a xlink:href="../../d9/d4a/classFunction3.html" target="_top" xlink:title="Function3">
<polygon fill="white" stroke="black" points="333.5,-411 333.5,-430 392.5,-430 392.5,-411 333.5,-411"/>
<text text-anchor="middle" x="363" y="-418" font-family="Helvetica,sans-Serif" font-size="10.00">Function3</text>
</a>
</g>
</g>
<!-- Node2&#45;&gt;Node5 -->
<g id="edge4" class="edge"><title>Node2&#45;&gt;Node5</title>
<path fill="none" stroke="midnightblue" d="M234.308,-324.996C246.625,-346.475 269.734,-381.507 299,-401.5 309.188,-408.46 321.992,-412.929 333.392,-415.77"/>
<polygon fill="midnightblue" stroke="midnightblue" points="237.334,-323.235 229.426,-316.184 231.211,-326.627 237.334,-323.235"/>
</g>
<!-- Node6 -->
<g id="node6" class="node"><title>Node6</title>
<g id="a_node6"><a xlink:href="../../db/d8c/classMyFunction.html" target="_top" xlink:title="MyFunction">
<polygon fill="white" stroke="black" points="329,-373 329,-392 397,-392 397,-373 329,-373"/>
<text text-anchor="middle" x="363" y="-380" font-family="Helvetica,sans-Serif" font-size="10.00">MyFunction</text>
</a>
</g>
</g>
<!-- Node2&#45;&gt;Node6 -->
<g id="edge5" class="edge"><title>Node2&#45;&gt;Node6</title>
<path fill="none" stroke="midnightblue" d="M242.382,-323.17C256.738,-335.779 277.913,-352.709 299,-363.5 308.254,-368.236 318.89,-372.006 328.756,-374.898"/>
<polygon fill="midnightblue" stroke="midnightblue" points="244.546,-320.409 234.77,-316.325 239.865,-325.614 244.546,-320.409"/>
</g>
<!-- Node7 -->
<g id="node7" class="node"><title>Node7</title>
<g id="a_node7"><a xlink:href="../../db/da4/classocra_1_1DotProductFunction.html" target="_top" xlink:title="DotProductFunction class. ">
<polygon fill="white" stroke="black" points="299,-335 299,-354 427,-354 427,-335 299,-335"/>
<text text-anchor="middle" x="363" y="-342" font-family="Helvetica,sans-Serif" font-size="10.00">ocra::DotProductFunction</text>
</a>
</g>
</g>
<!-- Node2&#45;&gt;Node7 -->
<g id="edge6" class="edge"><title>Node2&#45;&gt;Node7</title>
<path fill="none" stroke="midnightblue" d="M269.073,-318.818C287.965,-324.039 309.647,-330.032 327.314,-334.914"/>
<polygon fill="midnightblue" stroke="midnightblue" points="269.768,-315.379 259.197,-316.089 267.903,-322.126 269.768,-315.379"/>
</g>
<!-- Node8 -->
<g id="node8" class="node"><title>Node8</title>
<g id="a_node8"><a xlink:href="../../de/d3a/classocra_1_1LinearFunction.html" target="_top" xlink:title="LinearFunction class. ">
<polygon fill="white" stroke="black" points="310.5,-297 310.5,-316 415.5,-316 415.5,-297 310.5,-297"/>
<text text-anchor="middle" x="363" y="-304" font-family="Helvetica,sans-Serif" font-size="10.00">ocra::LinearFunction</text>
</a>
</g>
</g>
<!-- Node2&#45;&gt;Node8 -->
<g id="edge7" class="edge"><title>Node2&#45;&gt;Node8</title>
<path fill="none" stroke="midnightblue" d="M273.408,-306.5C285.365,-306.5 298.197,-306.5 310.28,-306.5"/>
<polygon fill="midnightblue" stroke="midnightblue" points="273.167,-303 263.167,-306.5 273.167,-310 273.167,-303"/>
</g>
<!-- Node27 -->
<g id="node27" class="node"><title>Node27</title>
<g id="a_node27"><a xlink:href="../../dd/d93/classocra_1_1Pb114G10.html" target="_top" xlink:title="ocra::Pb114G10">
<polygon fill="white" stroke="black" points="319.5,-259 319.5,-278 406.5,-278 406.5,-259 319.5,-259"/>
<text text-anchor="middle" x="363" y="-266" font-family="Helvetica,sans-Serif" font-size="10.00">ocra::Pb114G10</text>
</a>
</g>
</g>
<!-- Node2&#45;&gt;Node27 -->
<g id="edge26" class="edge"><title>Node2&#45;&gt;Node27</title>
<path fill="none" stroke="midnightblue" d="M269.073,-294.182C287.965,-288.961 309.647,-282.968 327.314,-278.086"/>
<polygon fill="midnightblue" stroke="midnightblue" points="267.903,-290.874 259.197,-296.911 269.768,-297.621 267.903,-290.874"/>
</g>
<!-- Node28 -->
<g id="node28" class="node"><title>Node28</title>
<g id="a_node28"><a xlink:href="../../da/d6c/classocra_1_1Pb114G11.html" target="_top" xlink:title="ocra::Pb114G11">
<polygon fill="white" stroke="black" points="319.5,-221 319.5,-240 406.5,-240 406.5,-221 319.5,-221"/>
<text text-anchor="middle" x="363" y="-228" font-family="Helvetica,sans-Serif" font-size="10.00">ocra::Pb114G11</text>
</a>
</g>
</g>
<!-- Node2&#45;&gt;Node28 -->
<g id="edge27" class="edge"><title>Node2&#45;&gt;Node28</title>
<path fill="none" stroke="midnightblue" d="M242.382,-289.83C256.738,-277.221 277.913,-260.291 299,-249.5 306.322,-245.753 314.509,-242.611 322.495,-240.029"/>
<polygon fill="midnightblue" stroke="midnightblue" points="239.865,-287.386 234.77,-296.675 244.546,-292.591 239.865,-287.386"/>
</g>
<!-- Node29 -->
<g id="node29" class="node"><title>Node29</title>
<g id="a_node29"><a xlink:href="../../d9/df1/classocra_1_1Pb114G5.html" target="_top" xlink:title="ocra::Pb114G5">
<polygon fill="white" stroke="black" points="322,-183 322,-202 404,-202 404,-183 322,-183"/>
<text text-anchor="middle" x="363" y="-190" font-family="Helvetica,sans-Serif" font-size="10.00">ocra::Pb114G5</text>
</a>
</g>
</g>
<!-- Node2&#45;&gt;Node29 -->
<g id="edge28" class="edge"><title>Node2&#45;&gt;Node29</title>
<path fill="none" stroke="midnightblue" d="M234.308,-288.004C246.625,-266.525 269.734,-231.493 299,-211.5 305.792,-206.86 313.747,-203.327 321.673,-200.646"/>
<polygon fill="midnightblue" stroke="midnightblue" points="231.211,-286.373 229.426,-296.816 237.334,-289.765 231.211,-286.373"/>
</g>
<!-- Node30 -->
<g id="node30" class="node"><title>Node30</title>
<g id="a_node30"><a xlink:href="../../d9/d7e/classocra_1_1QuadraticFunction.html" target="_top" xlink:title="QuadraticFunction class. ">
<polygon fill="white" stroke="black" points="302.5,-88 302.5,-107 423.5,-107 423.5,-88 302.5,-88"/>
<text text-anchor="middle" x="363" y="-95" font-family="Helvetica,sans-Serif" font-size="10.00">ocra::QuadraticFunction</text>
</a>
</g>
</g>
<!-- Node2&#45;&gt;Node30 -->
<g id="edge29" class="edge"><title>Node2&#45;&gt;Node30</title>
<path fill="none" stroke="midnightblue" d="M233.734,-287.555C246.9,-261.165 272.43,-212.224 299,-173.5 316.26,-148.346 339.976,-121.429 352.825,-107.361"/>
<polygon fill="midnightblue" stroke="midnightblue" points="230.461,-286.279 229.171,-296.795 236.737,-289.378 230.461,-286.279"/>
</g>
<!-- Node34 -->
<g id="node34" class="node"><title>Node34</title>
<g id="a_node34"><a xlink:href="../../df/d5a/classocra_1_1SubtractionFunction.html" target="_top" xlink:title="SubtractionFunction class. ">
<polygon fill="white" stroke="black" points="299,-50 299,-69 427,-69 427,-50 299,-50"/>
<text text-anchor="middle" x="363" y="-57" font-family="Helvetica,sans-Serif" font-size="10.00">ocra::SubtractionFunction</text>
</a>
</g>
</g>
<!-- Node2&#45;&gt;Node34 -->
<g id="edge33" class="edge"><title>Node2&#45;&gt;Node34</title>
<path fill="none" stroke="midnightblue" d="M225.114,-286.371C227.567,-242.277 239.676,-136.481 299,-78.5 303.003,-74.5873 307.782,-71.4764 312.893,-69.0036"/>
<polygon fill="midnightblue" stroke="midnightblue" points="221.605,-286.491 224.661,-296.635 228.598,-286.799 221.605,-286.491"/>
</g>
<!-- Node9 -->
<g id="node9" class="node"><title>Node9</title>
<g id="a_node9"><a xlink:href="../../d4/d45/classocra_1_1ContactAvoidanceFunction.html" target="_top" xlink:title="Create a linear function that represents the joint limit function. ">
<polygon fill="white" stroke="black" points="464.5,-574 464.5,-593 623.5,-593 623.5,-574 464.5,-574"/>
<text text-anchor="middle" x="544" y="-581" font-family="Helvetica,sans-Serif" font-size="10.00">ocra::ContactAvoidanceFunction</text>
</a>
</g>
</g>
<!-- Node8&#45;&gt;Node9 -->
<g id="edge8" class="edge"><title>Node8&#45;&gt;Node9</title>
<path fill="none" stroke="midnightblue" d="M423.267,-321.768C424.591,-322.924 425.841,-324.166 427,-325.5 495.745,-404.581 394.65,-479.077 463,-558.5 468.885,-565.338 476.612,-570.331 484.943,-573.97"/>
<polygon fill="midnightblue" stroke="midnightblue" points="425.188,-318.841 414.971,-316.038 421.21,-324.601 425.188,-318.841"/>
</g>
<!-- Node12 -->
<g id="node12" class="node"><title>Node12</title>
<g id="a_node12"><a xlink:href="../../d3/d89/classocra_1_1DiagonalLinearFunction.html" target="_top" xlink:title="DiagonalLinearFunction class. ">
<polygon fill="white" stroke="black" points="472.5,-530 472.5,-549 615.5,-549 615.5,-530 472.5,-530"/>
<text text-anchor="middle" x="544" y="-537" font-family="Helvetica,sans-Serif" font-size="10.00">ocra::DiagonalLinearFunction</text>
</a>
</g>
</g>
<!-- Node8&#45;&gt;Node12 -->
<g id="edge11" class="edge"><title>Node8&#45;&gt;Node12</title>
<path fill="none" stroke="midnightblue" d="M423.214,-321.815C424.554,-322.958 425.821,-324.184 427,-325.5 485.525,-390.808 402.927,-455.614 463,-519.5 467.021,-523.776 471.806,-527.196 477.007,-529.923"/>
<polygon fill="midnightblue" stroke="midnightblue" points="425.093,-318.86 414.852,-316.143 421.163,-324.653 425.093,-318.86"/>
</g>
<!-- Node15 -->
<g id="node15" class="node"><title>Node15</title>
<g id="a_node15"><a xlink:href="../../d4/d5c/classocra_1_1DoubleDiagonalLinearFunction.html" target="_top" xlink:title="DoubleDiagonalLinearFunction class. ">
<polygon fill="white" stroke="black" points="475.5,-480.5 475.5,-510.5 612.5,-510.5 612.5,-480.5 475.5,-480.5"/>
<text text-anchor="start" x="483.5" y="-498.5" font-family="Helvetica,sans-Serif" font-size="10.00">ocra::DoubleDiagonalLinear</text>
<text text-anchor="middle" x="544" y="-487.5" font-family="Helvetica,sans-Serif" font-size="10.00">Function</text>
</a>
</g>
</g>
<!-- Node8&#45;&gt;Node15 -->
<g id="edge14" class="edge"><title>Node8&#45;&gt;Node15</title>
<path fill="none" stroke="midnightblue" d="M422.535,-321.448C424.116,-322.694 425.612,-324.041 427,-325.5 472.775,-373.601 417.466,-422.171 463,-470.5 466.592,-474.313 470.756,-477.548 475.26,-480.292"/>
<polygon fill="midnightblue" stroke="midnightblue" points="424.327,-318.44 414.008,-316.036 420.575,-324.35 424.327,-318.44"/>
</g>
<!-- Node16 -->
<g id="node16" class="node"><title>Node16</title>
<g id="a_node16"><a xlink:href="../../d9/da6/classocra_1_1DynamicEquationFunction.html" target="_top" xlink:title="DynamicEquationFunction class. ">
<polygon fill="white" stroke="black" points="466,-442 466,-461 622,-461 622,-442 466,-442"/>
<text text-anchor="middle" x="544" y="-449" font-family="Helvetica,sans-Serif" font-size="10.00">ocra::DynamicEquationFunction</text>
</a>
</g>
</g>
<!-- Node8&#45;&gt;Node16 -->
<g id="edge15" class="edge"><title>Node8&#45;&gt;Node16</title>
<path fill="none" stroke="midnightblue" d="M421.743,-321.142C423.602,-322.471 425.364,-323.92 427,-325.5 462.783,-360.069 426.399,-397.798 463,-431.5 467.634,-435.767 473.038,-439.158 478.811,-441.848"/>
<polygon fill="midnightblue" stroke="midnightblue" points="423.459,-318.09 413.063,-316.049 419.917,-324.128 423.459,-318.09"/>
</g>
<!-- Node17 -->
<g id="node17" class="node"><title>Node17</title>
<g id="a_node17"><a xlink:href="../../de/ddd/classocra_1_1FullDynamicEquationFunction.html" target="_top" xlink:title="Create a linear function that represents the dynamic equation of motion. ">
<polygon fill="white" stroke="black" points="477,-392.5 477,-422.5 611,-422.5 611,-392.5 477,-392.5"/>
<text text-anchor="start" x="485" y="-410.5" font-family="Helvetica,sans-Serif" font-size="10.00">ocra::FullDynamicEquation</text>
<text text-anchor="middle" x="544" y="-399.5" font-family="Helvetica,sans-Serif" font-size="10.00">Function</text>
</a>
</g>
</g>
<!-- Node8&#45;&gt;Node17 -->
<g id="edge16" class="edge"><title>Node8&#45;&gt;Node17</title>
<path fill="none" stroke="midnightblue" d="M419.113,-320.407C421.882,-321.933 424.533,-323.624 427,-325.5 450.849,-343.638 439.241,-364.243 463,-382.5 468.077,-386.401 473.772,-389.7 479.722,-392.488"/>
<polygon fill="midnightblue" stroke="midnightblue" points="420.488,-317.186 409.951,-316.079 417.498,-323.515 420.488,-317.186"/>
</g>
<!-- Node18 -->
<g id="node18" class="node"><title>Node18</title>
<g id="a_node18"><a xlink:href="../../df/de0/classocra_1_1JointLimitFunction.html" target="_top" xlink:title="Create a linear function that represents the joint limit function. ">
<polygon fill="white" stroke="black" points="483.5,-354 483.5,-373 604.5,-373 604.5,-354 483.5,-354"/>
<text text-anchor="middle" x="544" y="-361" font-family="Helvetica,sans-Serif" font-size="10.00">ocra::JointLimitFunction</text>
</a>
</g>
</g>
<!-- Node8&#45;&gt;Node18 -->
<g id="edge17" class="edge"><title>Node8&#45;&gt;Node18</title>
<path fill="none" stroke="midnightblue" d="M409.825,-319.184C415.666,-321.132 421.515,-323.25 427,-325.5 443.738,-332.366 446.064,-338.137 463,-344.5 472.889,-348.215 483.745,-351.37 494.183,-353.979"/>
<polygon fill="midnightblue" stroke="midnightblue" points="410.659,-315.776 400.068,-316.074 408.533,-322.446 410.659,-315.776"/>
</g>
<!-- Node21 -->
<g id="node21" class="node"><title>Node21</title>
<g id="a_node21"><a xlink:href="../../d0/dd6/classocra_1_1LinearizedCoulombFunction.html" target="_top" xlink:title="LinearizedCoulombFunction class. ">
<polygon fill="white" stroke="black" points="463,-316 463,-335 625,-335 625,-316 463,-316"/>
<text text-anchor="middle" x="544" y="-323" font-family="Helvetica,sans-Serif" font-size="10.00">ocra::LinearizedCoulombFunction</text>
</a>
</g>
</g>
<!-- Node8&#45;&gt;Node21 -->
<g id="edge20" class="edge"><title>Node8&#45;&gt;Node21</title>
<path fill="none" stroke="midnightblue" d="M425.971,-313.078C437.809,-314.334 450.359,-315.667 462.675,-316.974"/>
<polygon fill="midnightblue" stroke="midnightblue" points="426.088,-309.571 415.774,-311.996 425.349,-316.532 426.088,-309.571"/>
</g>
<!-- Node22 -->
<g id="node22" class="node"><title>Node22</title>
<g id="a_node22"><a xlink:href="../../dd/d16/classocra_1_1LinearTask.html" target="_top" xlink:title="LinearTask class. ">
<polygon fill="white" stroke="black" points="499.5,-278 499.5,-297 588.5,-297 588.5,-278 499.5,-278"/>
<text text-anchor="middle" x="544" y="-285" font-family="Helvetica,sans-Serif" font-size="10.00">ocra::LinearTask</text>
</a>
</g>
</g>
<!-- Node8&#45;&gt;Node22 -->
<g id="edge21" class="edge"><title>Node8&#45;&gt;Node22</title>
<path fill="none" stroke="midnightblue" d="M425.915,-299.928C450.055,-297.366 477.163,-294.488 499.212,-292.148"/>
<polygon fill="midnightblue" stroke="midnightblue" points="425.349,-296.468 415.774,-301.004 426.088,-303.429 425.349,-296.468"/>
</g>
<!-- Node23 -->
<g id="node23" class="node"><title>Node23</title>
<g id="a_node23"><a xlink:href="../../dd/dda/classocra_1_1SecondOrderLinearTask.html" target="_top" xlink:title="SecondOrderLinearTask class. ">
<polygon fill="white" stroke="black" points="471,-240 471,-259 617,-259 617,-240 471,-240"/>
<text text-anchor="middle" x="544" y="-247" font-family="Helvetica,sans-Serif" font-size="10.00">ocra::SecondOrderLinearTask</text>
</a>
</g>
</g>
<!-- Node8&#45;&gt;Node23 -->
<g id="edge22" class="edge"><title>Node8&#45;&gt;Node23</title>
<path fill="none" stroke="midnightblue" d="M409.825,-293.816C415.666,-291.868 421.515,-289.75 427,-287.5 443.738,-280.634 446.064,-274.863 463,-268.5 472.889,-264.785 483.745,-261.63 494.183,-259.021"/>
<polygon fill="midnightblue" stroke="midnightblue" points="408.533,-290.554 400.068,-296.926 410.659,-297.224 408.533,-290.554"/>
</g>
<!-- Node24 -->
<g id="node24" class="node"><title>Node24</title>
<g id="a_node24"><a xlink:href="../../d0/d8f/classocra_1_1SumOfLinearFunctions.html" target="_top" xlink:title="ocra::SumOfLinearFunctions">
<polygon fill="white" stroke="black" points="473.5,-202 473.5,-221 614.5,-221 614.5,-202 473.5,-202"/>
<text text-anchor="middle" x="544" y="-209" font-family="Helvetica,sans-Serif" font-size="10.00">ocra::SumOfLinearFunctions</text>
</a>
</g>
</g>
<!-- Node8&#45;&gt;Node24 -->
<g id="edge23" class="edge"><title>Node8&#45;&gt;Node24</title>
<path fill="none" stroke="midnightblue" d="M419.113,-292.593C421.882,-291.067 424.533,-289.376 427,-287.5 450.849,-269.362 438.62,-247.918 463,-230.5 468.459,-226.6 474.611,-223.491 481.016,-221.015"/>
<polygon fill="midnightblue" stroke="midnightblue" points="417.498,-289.485 409.951,-296.921 420.488,-295.814 417.498,-289.485"/>
</g>
<!-- Node25 -->
<g id="node25" class="node"><title>Node25</title>
<g id="a_node25"><a xlink:href="../../dd/d3d/classocra_1_1TorqueLimitFunction.html" target="_top" xlink:title="Create a linear function that represents the torque limit function. ">
<polygon fill="white" stroke="black" points="479,-164 479,-183 609,-183 609,-164 479,-164"/>
<text text-anchor="middle" x="544" y="-171" font-family="Helvetica,sans-Serif" font-size="10.00">ocra::TorqueLimitFunction</text>
</a>
</g>
</g>
<!-- Node8&#45;&gt;Node25 -->
<g id="edge24" class="edge"><title>Node8&#45;&gt;Node25</title>
<path fill="none" stroke="midnightblue" d="M421.559,-291.865C423.479,-290.534 425.303,-289.083 427,-287.5 460.015,-256.698 429.08,-222.302 463,-192.5 467.719,-188.354 473.178,-185.072 478.985,-182.48"/>
<polygon fill="midnightblue" stroke="midnightblue" points="419.572,-288.969 412.616,-296.961 423.037,-295.051 419.572,-288.969"/>
</g>
<!-- Node26 -->
<g id="node26" class="node"><title>Node26</title>
<g id="a_node26"><a xlink:href="../../d7/d46/classocra_1_1VariableChiFunction.html" target="_top" xlink:title="ocra::VariableChiFunction">
<polygon fill="white" stroke="black" points="479.5,-126 479.5,-145 608.5,-145 608.5,-126 479.5,-126"/>
<text text-anchor="middle" x="544" y="-133" font-family="Helvetica,sans-Serif" font-size="10.00">ocra::VariableChiFunction</text>
</a>
</g>
</g>
<!-- Node8&#45;&gt;Node26 -->
<g id="edge25" class="edge"><title>Node8&#45;&gt;Node26</title>
<path fill="none" stroke="midnightblue" d="M422.495,-291.514C424.088,-290.279 425.597,-288.944 427,-287.5 469.679,-243.584 419.029,-197.122 463,-154.5 467.715,-149.93 473.319,-146.388 479.339,-143.654"/>
<polygon fill="midnightblue" stroke="midnightblue" points="420.54,-288.608 413.927,-296.885 424.258,-294.539 420.54,-288.608"/>
</g>
<!-- Node10 -->
<g id="node10" class="node"><title>Node10</title>
<g id="a_node10"><a xlink:href="../../da/d90/classocra_1_1FullContactAvoidanceFunction.html" target="_top" xlink:title="Create a linear function that represents the contact avoidance function for the full formalism...">
<polygon fill="white" stroke="black" points="673,-617.5 673,-647.5 810,-647.5 810,-617.5 673,-617.5"/>
<text text-anchor="start" x="681" y="-635.5" font-family="Helvetica,sans-Serif" font-size="10.00">ocra::FullContactAvoidance</text>
<text text-anchor="middle" x="741.5" y="-624.5" font-family="Helvetica,sans-Serif" font-size="10.00">Function</text>
</a>
</g>
</g>
<!-- Node9&#45;&gt;Node10 -->
<g id="edge9" class="edge"><title>Node9&#45;&gt;Node10</title>
<path fill="none" stroke="midnightblue" d="M592.934,-595.514C619.35,-602.135 652.39,-610.416 680.506,-617.463"/>
<polygon fill="midnightblue" stroke="midnightblue" points="593.709,-592.1 583.158,-593.064 592.007,-598.89 593.709,-592.1"/>
</g>
<!-- Node11 -->
<g id="node11" class="node"><title>Node11</title>
<g id="a_node11"><a xlink:href="../../db/d40/classocra_1_1ReducedContactAvoidanceFunction.html" target="_top" xlink:title="Create a linear function that represents the contact avoidance function for the reduced formalism...">
<polygon fill="white" stroke="black" points="661,-568.5 661,-598.5 822,-598.5 822,-568.5 661,-568.5"/>
<text text-anchor="start" x="669" y="-586.5" font-family="Helvetica,sans-Serif" font-size="10.00">ocra::ReducedContactAvoidance</text>
<text text-anchor="middle" x="741.5" y="-575.5" font-family="Helvetica,sans-Serif" font-size="10.00">Function</text>
</a>
</g>
</g>
<!-- Node9&#45;&gt;Node11 -->
<g id="edge10" class="edge"><title>Node9&#45;&gt;Node11</title>
<path fill="none" stroke="midnightblue" d="M633.758,-583.5C642.743,-583.5 651.831,-583.5 660.714,-583.5"/>
<polygon fill="midnightblue" stroke="midnightblue" points="633.672,-580 623.672,-583.5 633.672,-587 633.672,-580"/>
</g>
<!-- Node13 -->
<g id="node13" class="node"><title>Node13</title>
<g id="a_node13"><a xlink:href="../../dd/d77/classocra_1_1BoundFunction.html" target="_top" xlink:title="BoundFunction class. ">
<polygon fill="white" stroke="black" points="688,-530 688,-549 795,-549 795,-530 688,-530"/>
<text text-anchor="middle" x="741.5" y="-537" font-family="Helvetica,sans-Serif" font-size="10.00">ocra::BoundFunction</text>
</a>
</g>
</g>
<!-- Node12&#45;&gt;Node13 -->
<g id="edge12" class="edge"><title>Node12&#45;&gt;Node13</title>
<path fill="none" stroke="midnightblue" d="M625.76,-539.5C646.709,-539.5 668.733,-539.5 687.82,-539.5"/>
<polygon fill="midnightblue" stroke="midnightblue" points="625.58,-536 615.58,-539.5 625.58,-543 625.58,-536"/>
</g>
<!-- Node14 -->
<g id="node14" class="node"><title>Node14</title>
<g id="a_node14"><a xlink:href="../../d4/d58/classocra_1_1IdentityFunction.html" target="_top" xlink:title="IdentityFunction class. ">
<polygon fill="white" stroke="black" points="686,-492 686,-511 797,-511 797,-492 686,-492"/>
<text text-anchor="middle" x="741.5" y="-499" font-family="Helvetica,sans-Serif" font-size="10.00">ocra::IdentityFunction</text>
</a>
</g>
</g>
<!-- Node12&#45;&gt;Node14 -->
<g id="edge13" class="edge"><title>Node12&#45;&gt;Node14</title>
<path fill="none" stroke="midnightblue" d="M604.11,-528.011C632.004,-522.589 664.902,-516.194 691.399,-511.044"/>
<polygon fill="midnightblue" stroke="midnightblue" points="603.229,-524.616 594.081,-529.96 604.565,-531.488 603.229,-524.616"/>
</g>
<!-- Node19 -->
<g id="node19" class="node"><title>Node19</title>
<g id="a_node19"><a xlink:href="../../df/d42/classocra_1_1FullJointLimitFunction.html" target="_top" xlink:title="Create a linear function that represents the joint limit function for the full formalism. ">
<polygon fill="white" stroke="black" points="673,-373 673,-392 810,-392 810,-373 673,-373"/>
<text text-anchor="middle" x="741.5" y="-380" font-family="Helvetica,sans-Serif" font-size="10.00">ocra::FullJointLimitFunction</text>
</a>
</g>
</g>
<!-- Node18&#45;&gt;Node19 -->
<g id="edge18" class="edge"><title>Node18&#45;&gt;Node19</title>
<path fill="none" stroke="midnightblue" d="M614.757,-370.279C633.685,-372.119 654.142,-374.107 672.946,-375.935"/>
<polygon fill="midnightblue" stroke="midnightblue" points="615.01,-366.788 604.719,-369.304 614.333,-373.755 615.01,-366.788"/>
</g>
<!-- Node20 -->
<g id="node20" class="node"><title>Node20</title>
<g id="a_node20"><a xlink:href="../../dc/daa/classocra_1_1ReducedJointLimitFunction.html" target="_top" xlink:title="Create a linear function that represents the joint limit function for the reduced formalism...">
<polygon fill="white" stroke="black" points="661.5,-335 661.5,-354 821.5,-354 821.5,-335 661.5,-335"/>
<text text-anchor="middle" x="741.5" y="-342" font-family="Helvetica,sans-Serif" font-size="10.00">ocra::ReducedJointLimitFunction</text>
</a>
</g>
</g>
<!-- Node18&#45;&gt;Node20 -->
<g id="edge19" class="edge"><title>Node18&#45;&gt;Node20</title>
<path fill="none" stroke="midnightblue" d="M614.954,-356.701C629.987,-355.24 645.976,-353.686 661.331,-352.194"/>
<polygon fill="midnightblue" stroke="midnightblue" points="614.333,-353.245 604.719,-357.696 615.01,-360.212 614.333,-353.245"/>
</g>
<!-- Node31 -->
<g id="node31" class="node"><title>Node31</title>
<g id="a_node31"><a xlink:href="../../d3/d16/classocra_1_1FcQuadraticFunction.html" target="_top" xlink:title="ocra::FcQuadraticFunction">
<polygon fill="white" stroke="black" points="478,-88 478,-107 610,-107 610,-88 478,-88"/>
<text text-anchor="middle" x="544" y="-95" font-family="Helvetica,sans-Serif" font-size="10.00">ocra::FcQuadraticFunction</text>
</a>
</g>
</g>
<!-- Node30&#45;&gt;Node31 -->
<g id="edge30" class="edge"><title>Node30&#45;&gt;Node31</title>
<path fill="none" stroke="midnightblue" d="M433.966,-97.5C448.401,-97.5 463.548,-97.5 477.805,-97.5"/>
<polygon fill="midnightblue" stroke="midnightblue" points="433.604,-94.0001 423.604,-97.5 433.604,-101 433.604,-94.0001"/>
</g>
<!-- Node32 -->
<g id="node32" class="node"><title>Node32</title>
<g id="a_node32"><a xlink:href="../../df/dfc/classocra_1_1SquaredLinearFunction.html" target="_top" xlink:title="SquaredLinearFunction class. ">
<polygon fill="white" stroke="black" points="473.5,-50 473.5,-69 614.5,-69 614.5,-50 473.5,-50"/>
<text text-anchor="middle" x="544" y="-57" font-family="Helvetica,sans-Serif" font-size="10.00">ocra::SquaredLinearFunction</text>
</a>
</g>
</g>
<!-- Node30&#45;&gt;Node32 -->
<g id="edge31" class="edge"><title>Node30&#45;&gt;Node32</title>
<path fill="none" stroke="midnightblue" d="M419.024,-85.819C444.408,-80.4301 474.161,-74.1139 498.156,-69.0201"/>
<polygon fill="midnightblue" stroke="midnightblue" points="418.224,-82.4106 409.169,-87.911 419.678,-89.258 418.224,-82.4106"/>
</g>
<!-- Node33 -->
<g id="node33" class="node"><title>Node33</title>
<g id="a_node33"><a xlink:href="../../d2/d31/classocra_1_1WeightedSquareDistanceFunction.html" target="_top" xlink:title="WeightedSquareDistanceFunction class. ">
<polygon fill="white" stroke="black" points="468,-0.5 468,-30.5 620,-30.5 620,-0.5 468,-0.5"/>
<text text-anchor="start" x="476" y="-18.5" font-family="Helvetica,sans-Serif" font-size="10.00">ocra::WeightedSquareDistance</text>
<text text-anchor="middle" x="544" y="-7.5" font-family="Helvetica,sans-Serif" font-size="10.00">Function</text>
</a>
</g>
</g>
<!-- Node30&#45;&gt;Node33 -->
<g id="edge32" class="edge"><title>Node30&#45;&gt;Node33</title>
<path fill="none" stroke="midnightblue" d="M416.181,-84.1612C419.947,-82.4792 423.597,-80.599 427,-78.5 446.801,-66.2871 443.26,-52.8114 463,-40.5 469.173,-36.6498 475.987,-33.3499 482.955,-30.5322"/>
<polygon fill="midnightblue" stroke="midnightblue" points="414.656,-81.0007 406.655,-87.9457 417.241,-87.5061 414.656,-81.0007"/>
</g>
</g>
</svg>
