<?xml version="1.0" encoding="UTF-8" standalone="no"?>
<!DOCTYPE svg PUBLIC "-//W3C//DTD SVG 1.1//EN"
 "http://www.w3.org/Graphics/SVG/1.1/DTD/svg11.dtd">
<!-- Generated by graphviz version 2.38.0 (20140413.2041)
 -->
<!-- Title: ocra::DisplacementFeature::Pimpl Pages: 1 -->
<svg width="178pt" height="150pt"
 viewBox="0.00 0.00 178.00 150.00" xmlns="http://www.w3.org/2000/svg" xmlns:xlink="http://www.w3.org/1999/xlink">
<g id="graph0" class="graph" transform="scale(1 1) rotate(0) translate(4 146)">
<title>ocra::DisplacementFeature::Pimpl</title>
<polygon fill="white" stroke="none" points="-4,4 -4,-146 174,-146 174,4 -4,4"/>
<!-- Node1 -->
<g id="node1" class="node"><title>Node1</title>
<polygon fill="#bfbfbf" stroke="black" points="0,-0.5 0,-30.5 134,-30.5 134,-0.5 0,-0.5"/>
<text text-anchor="start" x="8" y="-18.5" font-family="Helvetica,sans-Serif" font-size="10.00">ocra::DisplacementFeature</text>
<text text-anchor="middle" x="67" y="-7.5" font-family="Helvetica,sans-Serif" font-size="10.00">::Pimpl</text>
</g>
<!-- Node2 -->
<g id="node2" class="node"><title>Node2</title>
<polygon fill="white" stroke="#bfbfbf" points="0.5,-122.5 0.5,-141.5 57.5,-141.5 57.5,-122.5 0.5,-122.5"/>
<text text-anchor="middle" x="29" y="-129.5" font-family="Helvetica,sans-Serif" font-size="10.00">VectorXd</text>
</g>
<!-- Node2&#45;&gt;Node1 -->
<g id="edge1" class="edge"><title>Node2&#45;&gt;Node1</title>
<path fill="none" stroke="#9a32cd" stroke-dasharray="5,2" d="M25.0825,-112.428C22.3746,-95.1666 20.727,-69.1595 30,-49 33.2871,-41.8539 38.9901,-35.6467 44.9481,-30.6265"/>
<polygon fill="#9a32cd" stroke="#9a32cd" points="21.6581,-113.159 26.911,-122.36 28.5424,-111.891 21.6581,-113.159"/>
<text text-anchor="middle" x="56.5" y="-90.5" font-family="Helvetica,sans-Serif" font-size="10.00"> error</text>
<text text-anchor="middle" x="56.5" y="-79.5" font-family="Helvetica,sans-Serif" font-size="10.00">acceleration</text>
<text text-anchor="middle" x="56.5" y="-68.5" font-family="Helvetica,sans-Serif" font-size="10.00">errorDot</text>
<text text-anchor="middle" x="56.5" y="-57.5" font-family="Helvetica,sans-Serif" font-size="10.00">effort</text>
</g>
<!-- Node3 -->
<g id="node3" class="node"><title>Node3</title>
<polygon fill="white" stroke="#bfbfbf" points="77,-122.5 77,-141.5 133,-141.5 133,-122.5 77,-122.5"/>
<text text-anchor="middle" x="105" y="-129.5" font-family="Helvetica,sans-Serif" font-size="10.00">MatrixXd</text>
</g>
<!-- Node3&#45;&gt;Node1 -->
<g id="edge2" class="edge"><title>Node3&#45;&gt;Node1</title>
<path fill="none" stroke="#9a32cd" stroke-dasharray="5,2" d="M101.019,-112.027C97.2269,-95.1926 90.9271,-70.073 83,-49 80.6971,-42.8782 77.6247,-36.3666 74.7881,-30.7922"/>
<polygon fill="#9a32cd" stroke="#9a32cd" points="97.6877,-113.179 103.233,-122.207 104.528,-111.691 97.6877,-113.179"/>
<text text-anchor="middle" x="134.5" y="-96" font-family="Helvetica,sans-Serif" font-size="10.00"> Minv</text>
<text text-anchor="middle" x="134.5" y="-85" font-family="Helvetica,sans-Serif" font-size="10.00">spaceTransform</text>
<text text-anchor="middle" x="134.5" y="-74" font-family="Helvetica,sans-Serif" font-size="10.00">M</text>
<text text-anchor="middle" x="134.5" y="-63" font-family="Helvetica,sans-Serif" font-size="10.00">jacobian</text>
<text text-anchor="middle" x="134.5" y="-52" font-family="Helvetica,sans-Serif" font-size="10.00">u</text>
</g>
</g>
</svg>
