<?xml version="1.0" encoding="UTF-8" standalone="no"?>
<!DOCTYPE svg PUBLIC "-//W3C//DTD SVG 1.1//EN"
 "http://www.w3.org/Graphics/SVG/1.1/DTD/svg11.dtd">
<!-- Generated by graphviz version 2.38.0 (20140413.2041)
 -->
<!-- Title: ocra::CompositeVariable Pages: 1 -->
<svg width="950pt" height="284pt"
 viewBox="0.00 0.00 950.00 284.00" xmlns="http://www.w3.org/2000/svg" xmlns:xlink="http://www.w3.org/1999/xlink">
<g id="graph0" class="graph" transform="scale(1 1) rotate(0) translate(4 280)">
<title>ocra::CompositeVariable</title>
<polygon fill="white" stroke="none" points="-4,4 -4,-280 946,-280 946,4 -4,4"/>
<!-- Node1 -->
<g id="node1" class="node"><title>Node1</title>
<polygon fill="#bfbfbf" stroke="black" points="818,-131 818,-150 942,-150 942,-131 818,-131"/>
<text text-anchor="middle" x="880" y="-138" font-family="Helvetica,sans-Serif" font-size="10.00">ocra::CompositeVariable</text>
</g>
<!-- Node2 -->
<g id="node2" class="node"><title>Node2</title>
<g id="a_node2"><a xlink:href="../../d7/d79/classocra_1_1Composite.html" target="_top" xlink:title="ocra::Composite\&lt; Variable,\l CompositeVariable, VariableParenthood \&gt;">
<polygon fill="white" stroke="black" points="580,-147.5 580,-177.5 782,-177.5 782,-147.5 580,-147.5"/>
<text text-anchor="start" x="588" y="-165.5" font-family="Helvetica,sans-Serif" font-size="10.00">ocra::Composite&lt; Variable,</text>
<text text-anchor="middle" x="681" y="-154.5" font-family="Helvetica,sans-Serif" font-size="10.00"> CompositeVariable, VariableParenthood &gt;</text>
</a>
</g>
</g>
<!-- Node2&#45;&gt;Node1 -->
<g id="edge1" class="edge"><title>Node2&#45;&gt;Node1</title>
<path fill="none" stroke="midnightblue" d="M792.189,-150.195C800.974,-149.214 809.634,-148.246 817.883,-147.325"/>
<polygon fill="midnightblue" stroke="midnightblue" points="791.781,-146.718 782.231,-151.307 792.558,-153.675 791.781,-146.718"/>
</g>
<!-- Node3 -->
<g id="node3" class="node"><title>Node3</title>
<g id="a_node3"><a xlink:href="../../d2/dac/classocra_1_1Variable.html" target="_top" xlink:title="This class represents a variable in a mathematical sense. ">
<polygon fill="white" stroke="black" points="642.5,-109 642.5,-128 719.5,-128 719.5,-109 642.5,-109"/>
<text text-anchor="middle" x="681" y="-116" font-family="Helvetica,sans-Serif" font-size="10.00">ocra::Variable</text>
</a>
</g>
</g>
<!-- Node3&#45;&gt;Node1 -->
<g id="edge2" class="edge"><title>Node3&#45;&gt;Node1</title>
<path fill="none" stroke="midnightblue" d="M729.703,-123.827C756.248,-126.792 789.568,-130.513 817.993,-133.687"/>
<polygon fill="midnightblue" stroke="midnightblue" points="729.845,-120.321 719.518,-122.69 729.068,-127.278 729.845,-120.321"/>
</g>
<!-- Node4 -->
<g id="node4" class="node"><title>Node4</title>
<g id="a_node4"><a xlink:href="../../d0/d29/classocra_1_1Component.html" target="_top" xlink:title="ocra::Component\&lt; Variable,\l CompositeVariable, VariableParenthood \&gt;">
<polygon fill="white" stroke="black" points="342,-166.5 342,-196.5 544,-196.5 544,-166.5 342,-166.5"/>
<text text-anchor="start" x="350" y="-184.5" font-family="Helvetica,sans-Serif" font-size="10.00">ocra::Component&lt; Variable,</text>
<text text-anchor="middle" x="443" y="-173.5" font-family="Helvetica,sans-Serif" font-size="10.00"> CompositeVariable, VariableParenthood &gt;</text>
</a>
</g>
</g>
<!-- Node4&#45;&gt;Node3 -->
<g id="edge3" class="edge"><title>Node4&#45;&gt;Node3</title>
<path fill="none" stroke="midnightblue" d="M523.043,-163.637C530.199,-161.451 537.278,-159.071 544,-156.5 560.898,-150.037 562.924,-143.477 580,-137.5 600.015,-130.494 623.239,-125.882 642.265,-122.958"/>
<polygon fill="midnightblue" stroke="midnightblue" points="521.877,-160.331 513.261,-166.497 523.842,-167.05 521.877,-160.331"/>
</g>
<!-- Node5 -->
<g id="node5" class="node"><title>Node5</title>
<g id="a_node5"><a xlink:href="../../d3/d16/classocra_1_1ObserverSubject.html" target="_top" xlink:title="ocra::ObserverSubject">
<polygon fill="white" stroke="black" points="386,-128 386,-147 500,-147 500,-128 386,-128"/>
<text text-anchor="middle" x="443" y="-135" font-family="Helvetica,sans-Serif" font-size="10.00">ocra::ObserverSubject</text>
</a>
</g>
</g>
<!-- Node5&#45;&gt;Node3 -->
<g id="edge4" class="edge"><title>Node5&#45;&gt;Node3</title>
<path fill="none" stroke="midnightblue" d="M510.25,-132.166C552.884,-128.734 606.759,-124.397 642.241,-121.54"/>
<polygon fill="midnightblue" stroke="midnightblue" points="509.915,-128.682 500.228,-132.973 510.477,-135.659 509.915,-128.682"/>
</g>
<!-- Node6 -->
<g id="node6" class="node"><title>Node6</title>
<g id="a_node6"><a xlink:href="../../d2/d45/classocra_1_1Observer.html" target="_top" xlink:title="ocra::Observer">
<polygon fill="white" stroke="black" points="225,-177 225,-196 306,-196 306,-177 225,-177"/>
<text text-anchor="middle" x="265.5" y="-184" font-family="Helvetica,sans-Serif" font-size="10.00">ocra::Observer</text>
</a>
</g>
</g>
<!-- Node6&#45;&gt;Node5 -->
<g id="edge5" class="edge"><title>Node6&#45;&gt;Node5</title>
<path fill="none" stroke="midnightblue" d="M296.654,-172.989C310.292,-167.278 326.742,-160.937 342,-156.5 355.999,-152.429 371.361,-149.009 385.753,-146.242"/>
<polygon fill="midnightblue" stroke="midnightblue" points="295.096,-169.849 287.278,-176.999 297.848,-176.285 295.096,-169.849"/>
</g>
<!-- Node7 -->
<g id="node7" class="node"><title>Node7</title>
<g id="a_node7"><a xlink:href="../../d4/dee/classocra_1_1ObserverBase.html" target="_top" xlink:title="ocra::ObserverBase\l\&lt; EVT_RESIZE \&gt;">
<polygon fill="white" stroke="black" points="42.5,-245.5 42.5,-275.5 146.5,-275.5 146.5,-245.5 42.5,-245.5"/>
<text text-anchor="start" x="50.5" y="-263.5" font-family="Helvetica,sans-Serif" font-size="10.00">ocra::ObserverBase</text>
<text text-anchor="middle" x="94.5" y="-252.5" font-family="Helvetica,sans-Serif" font-size="10.00">&lt; EVT_RESIZE &gt;</text>
</a>
</g>
</g>
<!-- Node7&#45;&gt;Node6 -->
<g id="edge6" class="edge"><title>Node7&#45;&gt;Node6</title>
<path fill="none" stroke="midnightblue" d="M156.217,-248.067C167.347,-244.909 178.694,-241.079 189,-236.5 213.137,-225.776 238.109,-207.594 252.426,-196.361"/>
<polygon fill="midnightblue" stroke="midnightblue" points="155.272,-244.696 146.523,-250.671 157.089,-251.457 155.272,-244.696"/>
</g>
<!-- Node8 -->
<g id="node8" class="node"><title>Node8</title>
<g id="a_node8"><a xlink:href="../../d4/dee/classocra_1_1ObserverBase.html" target="_top" xlink:title="ocra::ObserverBase\l\&lt; EVT_CHANGE_DEPENDENCIES \&gt;">
<polygon fill="white" stroke="black" points="0,-196.5 0,-226.5 189,-226.5 189,-196.5 0,-196.5"/>
<text text-anchor="start" x="8" y="-214.5" font-family="Helvetica,sans-Serif" font-size="10.00">ocra::ObserverBase</text>
<text text-anchor="middle" x="94.5" y="-203.5" font-family="Helvetica,sans-Serif" font-size="10.00">&lt; EVT_CHANGE_DEPENDENCIES &gt;</text>
</a>
</g>
</g>
<!-- Node8&#45;&gt;Node6 -->
<g id="edge7" class="edge"><title>Node8&#45;&gt;Node6</title>
<path fill="none" stroke="midnightblue" d="M199.526,-196.111C208.41,-194.797 216.989,-193.528 224.84,-192.367"/>
<polygon fill="midnightblue" stroke="midnightblue" points="198.77,-192.685 189.39,-197.611 199.795,-199.61 198.77,-192.685"/>
</g>
<!-- Node9 -->
<g id="node9" class="node"><title>Node9</title>
<g id="a_node9"><a xlink:href="../../d4/dee/classocra_1_1ObserverBase.html" target="_top" xlink:title="ocra::ObserverBase\l\&lt; EVT_CHANGE_VALUE \&gt;">
<polygon fill="white" stroke="black" points="24,-147.5 24,-177.5 165,-177.5 165,-147.5 24,-147.5"/>
<text text-anchor="start" x="32" y="-165.5" font-family="Helvetica,sans-Serif" font-size="10.00">ocra::ObserverBase</text>
<text text-anchor="middle" x="94.5" y="-154.5" font-family="Helvetica,sans-Serif" font-size="10.00">&lt; EVT_CHANGE_VALUE &gt;</text>
</a>
</g>
</g>
<!-- Node9&#45;&gt;Node6 -->
<g id="edge8" class="edge"><title>Node9&#45;&gt;Node6</title>
<path fill="none" stroke="midnightblue" d="M175.313,-173.834C192.551,-176.282 210.051,-178.768 224.93,-180.881"/>
<polygon fill="midnightblue" stroke="midnightblue" points="175.607,-170.341 165.214,-172.4 174.623,-177.272 175.607,-170.341"/>
</g>
<!-- Node10 -->
<g id="node10" class="node"><title>Node10</title>
<g id="a_node10"><a xlink:href="../../dc/d77/classocra_1_1Subject.html" target="_top" xlink:title="ocra::Subject">
<polygon fill="white" stroke="black" points="228.5,-79 228.5,-98 302.5,-98 302.5,-79 228.5,-79"/>
<text text-anchor="middle" x="265.5" y="-86" font-family="Helvetica,sans-Serif" font-size="10.00">ocra::Subject</text>
</a>
</g>
</g>
<!-- Node10&#45;&gt;Node5 -->
<g id="edge9" class="edge"><title>Node10&#45;&gt;Node5</title>
<path fill="none" stroke="midnightblue" d="M296.654,-102.011C310.292,-107.722 326.742,-114.063 342,-118.5 355.999,-122.571 371.361,-125.991 385.753,-128.758"/>
<polygon fill="midnightblue" stroke="midnightblue" points="297.848,-98.7151 287.278,-98.0005 295.096,-105.151 297.848,-98.7151"/>
</g>
<!-- Node11 -->
<g id="node11" class="node"><title>Node11</title>
<g id="a_node11"><a xlink:href="../../dc/d29/classocra_1_1SubjectBase.html" target="_top" xlink:title="ocra::SubjectBase\&lt;\l EVT_RESIZE \&gt;">
<polygon fill="white" stroke="black" points="43,-98.5 43,-128.5 146,-128.5 146,-98.5 43,-98.5"/>
<text text-anchor="start" x="51" y="-116.5" font-family="Helvetica,sans-Serif" font-size="10.00">ocra::SubjectBase&lt;</text>
<text text-anchor="middle" x="94.5" y="-105.5" font-family="Helvetica,sans-Serif" font-size="10.00"> EVT_RESIZE &gt;</text>
</a>
</g>
</g>
<!-- Node11&#45;&gt;Node10 -->
<g id="edge10" class="edge"><title>Node11&#45;&gt;Node10</title>
<path fill="none" stroke="midnightblue" d="M156.345,-104.499C180.463,-100.932 207.377,-96.9502 228.323,-93.8516"/>
<polygon fill="midnightblue" stroke="midnightblue" points="155.586,-101.073 146.206,-105.999 156.61,-107.998 155.586,-101.073"/>
</g>
<!-- Node12 -->
<g id="node12" class="node"><title>Node12</title>
<g id="a_node12"><a xlink:href="../../dc/d29/classocra_1_1SubjectBase.html" target="_top" xlink:title="ocra::SubjectBase\&lt;\l EVT_CHANGE_DEPENDENCIES \&gt;">
<polygon fill="white" stroke="black" points="3,-49.5 3,-79.5 186,-79.5 186,-49.5 3,-49.5"/>
<text text-anchor="start" x="11" y="-67.5" font-family="Helvetica,sans-Serif" font-size="10.00">ocra::SubjectBase&lt;</text>
<text text-anchor="middle" x="94.5" y="-56.5" font-family="Helvetica,sans-Serif" font-size="10.00"> EVT_CHANGE_DEPENDENCIES &gt;</text>
</a>
</g>
</g>
<!-- Node12&#45;&gt;Node10 -->
<g id="edge11" class="edge"><title>Node12&#45;&gt;Node10</title>
<path fill="none" stroke="midnightblue" d="M196.458,-78.8372C207.772,-80.444 218.677,-81.9926 228.318,-83.3618"/>
<polygon fill="midnightblue" stroke="midnightblue" points="196.824,-75.3541 186.431,-77.4133 195.84,-82.2846 196.824,-75.3541"/>
</g>
<!-- Node13 -->
<g id="node13" class="node"><title>Node13</title>
<g id="a_node13"><a xlink:href="../../dc/d29/classocra_1_1SubjectBase.html" target="_top" xlink:title="ocra::SubjectBase\&lt;\l EVT_CHANGE_VALUE \&gt;">
<polygon fill="white" stroke="black" points="27,-0.5 27,-30.5 162,-30.5 162,-0.5 27,-0.5"/>
<text text-anchor="start" x="35" y="-18.5" font-family="Helvetica,sans-Serif" font-size="10.00">ocra::SubjectBase&lt;</text>
<text text-anchor="middle" x="94.5" y="-7.5" font-family="Helvetica,sans-Serif" font-size="10.00"> EVT_CHANGE_VALUE &gt;</text>
</a>
</g>
</g>
<!-- Node13&#45;&gt;Node10 -->
<g id="edge12" class="edge"><title>Node13&#45;&gt;Node10</title>
<path fill="none" stroke="midnightblue" d="M172.11,-32.9681C177.903,-34.9534 183.593,-37.1275 189,-39.5 213.04,-50.0477 238.043,-67.8541 252.391,-78.8496"/>
<polygon fill="midnightblue" stroke="midnightblue" points="172.889,-29.5417 162.297,-29.8035 170.74,-36.2038 172.889,-29.5417"/>
</g>
<!-- Node14 -->
<g id="node14" class="node"><title>Node14</title>
<polygon fill="white" stroke="#bfbfbf" points="407.5,-90 407.5,-109 478.5,-109 478.5,-90 407.5,-90"/>
<text text-anchor="middle" x="443" y="-97" font-family="Helvetica,sans-Serif" font-size="10.00">noncopyable</text>
</g>
<!-- Node14&#45;&gt;Node3 -->
<g id="edge13" class="edge"><title>Node14&#45;&gt;Node3</title>
<path fill="none" stroke="#8b1a1a" d="M488.781,-103.105C533.175,-106.679 600.431,-112.094 642.212,-115.458"/>
<polygon fill="#8b1a1a" stroke="#8b1a1a" points="488.818,-99.597 478.569,-102.283 488.256,-106.574 488.818,-99.597"/>
</g>
<!-- Node15 -->
<g id="node15" class="node"><title>Node15</title>
<g id="a_node15"><a xlink:href="../../dc/d20/classocra_1_1VariableHasRestrictedClassDerivation.html" target="_top" xlink:title="ocra::VariableHasRestricted\lClassDerivation">
<polygon fill="white" stroke="black" points="373,-40.5 373,-70.5 513,-70.5 513,-40.5 373,-40.5"/>
<text text-anchor="start" x="381" y="-58.5" font-family="Helvetica,sans-Serif" font-size="10.00">ocra::VariableHasRestricted</text>
<text text-anchor="middle" x="443" y="-47.5" font-family="Helvetica,sans-Serif" font-size="10.00">ClassDerivation</text>
</a>
</g>
</g>
<!-- Node15&#45;&gt;Node3 -->
<g id="edge14" class="edge"><title>Node15&#45;&gt;Node3</title>
<path fill="none" stroke="#8b1a1a" d="M514.877,-72.9627C524.671,-75.4506 534.593,-78.0105 544,-80.5 579.194,-89.8141 619.32,-101.109 646.814,-108.953"/>
<polygon fill="#8b1a1a" stroke="#8b1a1a" points="515.702,-69.5612 505.149,-70.5039 513.986,-76.3478 515.702,-69.5612"/>
</g>
</g>
</svg>
