<?xml version="1.0" encoding="UTF-8" standalone="no"?>
<!DOCTYPE svg PUBLIC "-//W3C//DTD SVG 1.1//EN"
 "http://www.w3.org/Graphics/SVG/1.1/DTD/svg11.dtd">
<!-- Generated by graphviz version 2.38.0 (20140413.2041)
 -->
<!-- Title: ocra::OFSQPProblem Pages: 1 -->
<svg width="550pt" height="84pt"
 viewBox="0.00 0.00 549.50 84.00" xmlns="http://www.w3.org/2000/svg" xmlns:xlink="http://www.w3.org/1999/xlink">
<g id="graph0" class="graph" transform="scale(1 1) rotate(0) translate(4 80)">
<title>ocra::OFSQPProblem</title>
<polygon fill="white" stroke="none" points="-4,4 -4,-80 545.5,-80 545.5,4 -4,4"/>
<!-- Node1 -->
<g id="node1" class="node"><title>Node1</title>
<polygon fill="#bfbfbf" stroke="black" points="201.5,-56.5 201.5,-75.5 313.5,-75.5 313.5,-56.5 201.5,-56.5"/>
<text text-anchor="middle" x="257.5" y="-63.5" font-family="Helvetica,sans-Serif" font-size="10.00">ocra::OFSQPProblem</text>
</g>
<!-- Node2 -->
<g id="node2" class="node"><title>Node2</title>
<g id="a_node2"><a xlink:href="../../d5/d80/classocra_1_1Ex1Pb.html" target="_top" xlink:title="ocra::Ex1Pb">
<polygon fill="white" stroke="black" points="0,-0.5 0,-19.5 71,-19.5 71,-0.5 0,-0.5"/>
<text text-anchor="middle" x="35.5" y="-7.5" font-family="Helvetica,sans-Serif" font-size="10.00">ocra::Ex1Pb</text>
</a>
</g>
</g>
<!-- Node1&#45;&gt;Node2 -->
<g id="edge1" class="edge"><title>Node1&#45;&gt;Node2</title>
<path fill="none" stroke="midnightblue" d="M212.375,-54.0237C170.44,-43.8232 108.848,-28.8414 70.512,-19.5164"/>
<polygon fill="midnightblue" stroke="midnightblue" points="211.78,-57.4808 222.323,-56.4435 213.434,-50.6791 211.78,-57.4808"/>
</g>
<!-- Node3 -->
<g id="node3" class="node"><title>Node3</title>
<g id="a_node3"><a xlink:href="../../d4/d64/classocra_1_1Ex2Pb.html" target="_top" xlink:title="ocra::Ex2Pb">
<polygon fill="white" stroke="black" points="89,-0.5 89,-19.5 160,-19.5 160,-0.5 89,-0.5"/>
<text text-anchor="middle" x="124.5" y="-7.5" font-family="Helvetica,sans-Serif" font-size="10.00">ocra::Ex2Pb</text>
</a>
</g>
</g>
<!-- Node1&#45;&gt;Node3 -->
<g id="edge2" class="edge"><title>Node1&#45;&gt;Node3</title>
<path fill="none" stroke="midnightblue" d="M227.052,-52.6377C202.093,-42.504 167.423,-28.4274 145.476,-19.5164"/>
<polygon fill="midnightblue" stroke="midnightblue" points="225.844,-55.9245 236.426,-56.4435 228.477,-49.4387 225.844,-55.9245"/>
</g>
<!-- Node4 -->
<g id="node4" class="node"><title>Node4</title>
<g id="a_node4"><a xlink:href="../../d7/d00/classocra_1_1Ex3Pb.html" target="_top" xlink:title="ocra::Ex3Pb">
<polygon fill="white" stroke="black" points="178,-0.5 178,-19.5 249,-19.5 249,-0.5 178,-0.5"/>
<text text-anchor="middle" x="213.5" y="-7.5" font-family="Helvetica,sans-Serif" font-size="10.00">ocra::Ex3Pb</text>
</a>
</g>
</g>
<!-- Node1&#45;&gt;Node4 -->
<g id="edge3" class="edge"><title>Node1&#45;&gt;Node4</title>
<path fill="none" stroke="midnightblue" d="M243.765,-48.144C236.099,-38.7357 226.867,-27.4046 220.631,-19.7511"/>
<polygon fill="midnightblue" stroke="midnightblue" points="241.204,-50.5415 250.234,-56.083 246.631,-46.1198 241.204,-50.5415"/>
</g>
<!-- Node5 -->
<g id="node5" class="node"><title>Node5</title>
<g id="a_node5"><a xlink:href="../../d5/dbb/classocra_1_1Ex4Pb.html" target="_top" xlink:title="ocra::Ex4Pb">
<polygon fill="white" stroke="black" points="267,-0.5 267,-19.5 338,-19.5 338,-0.5 267,-0.5"/>
<text text-anchor="middle" x="302.5" y="-7.5" font-family="Helvetica,sans-Serif" font-size="10.00">ocra::Ex4Pb</text>
</a>
</g>
</g>
<!-- Node1&#45;&gt;Node5 -->
<g id="edge4" class="edge"><title>Node1&#45;&gt;Node5</title>
<path fill="none" stroke="midnightblue" d="M271.547,-48.144C279.387,-38.7357 288.829,-27.4046 295.207,-19.7511"/>
<polygon fill="midnightblue" stroke="midnightblue" points="268.644,-46.1601 264.931,-56.083 274.021,-50.6414 268.644,-46.1601"/>
</g>
<!-- Node6 -->
<g id="node6" class="node"><title>Node6</title>
<g id="a_node6"><a xlink:href="../../dd/ddf/classocra_1_1Ex5Pb.html" target="_top" xlink:title="ocra::Ex5Pb">
<polygon fill="white" stroke="black" points="356,-0.5 356,-19.5 427,-19.5 427,-0.5 356,-0.5"/>
<text text-anchor="middle" x="391.5" y="-7.5" font-family="Helvetica,sans-Serif" font-size="10.00">ocra::Ex5Pb</text>
</a>
</g>
</g>
<!-- Node1&#45;&gt;Node6 -->
<g id="edge5" class="edge"><title>Node1&#45;&gt;Node6</title>
<path fill="none" stroke="midnightblue" d="M288.177,-52.6377C313.323,-42.504 348.254,-28.4274 370.367,-19.5164"/>
<polygon fill="midnightblue" stroke="midnightblue" points="286.7,-49.4594 278.733,-56.4435 289.316,-55.952 286.7,-49.4594"/>
</g>
<!-- Node7 -->
<g id="node7" class="node"><title>Node7</title>
<g id="a_node7"><a xlink:href="../../dc/d6e/classocra_1_1FSQPSolver.html" target="_top" xlink:title="FSQPSolver class. ">
<polygon fill="white" stroke="black" points="445.5,-0.5 445.5,-19.5 541.5,-19.5 541.5,-0.5 445.5,-0.5"/>
<text text-anchor="middle" x="493.5" y="-7.5" font-family="Helvetica,sans-Serif" font-size="10.00">ocra::FSQPSolver</text>
</a>
</g>
</g>
<!-- Node1&#45;&gt;Node7 -->
<g id="edge6" class="edge"><title>Node1&#45;&gt;Node7</title>
<path fill="none" stroke="midnightblue" d="M304.906,-54.1529C349.497,-43.95 415.354,-28.8809 456.28,-19.5164"/>
<polygon fill="midnightblue" stroke="midnightblue" points="303.862,-50.8011 294.895,-56.4435 305.424,-57.6248 303.862,-50.8011"/>
</g>
</g>
</svg>
