<?xml version="1.0" encoding="UTF-8" standalone="no"?>
<!DOCTYPE svg PUBLIC "-//W3C//DTD SVG 1.1//EN"
 "http://www.w3.org/Graphics/SVG/1.1/DTD/svg11.dtd">
<!-- Generated by graphviz version 2.38.0 (20140413.2041)
 -->
<!-- Title: ocra::FSQPSolver Pages: 1 -->
<svg width="827pt" height="284pt"
 viewBox="0.00 0.00 827.00 284.00" xmlns="http://www.w3.org/2000/svg" xmlns:xlink="http://www.w3.org/1999/xlink">
<g id="graph0" class="graph" transform="scale(1 1) rotate(0) translate(4 280)">
<title>ocra::FSQPSolver</title>
<polygon fill="white" stroke="none" points="-4,4 -4,-280 823,-280 823,4 -4,4"/>
<!-- Node1 -->
<g id="node1" class="node"><title>Node1</title>
<polygon fill="#bfbfbf" stroke="black" points="723,-53 723,-72 819,-72 819,-53 723,-53"/>
<text text-anchor="middle" x="771" y="-60" font-family="Helvetica,sans-Serif" font-size="10.00">ocra::FSQPSolver</text>
</g>
<!-- Node2 -->
<g id="node2" class="node"><title>Node2</title>
<g id="a_node2"><a xlink:href="../../d6/dd3/classocra_1_1Solver.html" target="_top" xlink:title="Solver class. ">
<polygon fill="white" stroke="black" points="595.5,-76 595.5,-95 664.5,-95 664.5,-76 595.5,-76"/>
<text text-anchor="middle" x="630" y="-83" font-family="Helvetica,sans-Serif" font-size="10.00">ocra::Solver</text>
</a>
</g>
</g>
<!-- Node2&#45;&gt;Node1 -->
<g id="edge1" class="edge"><title>Node2&#45;&gt;Node1</title>
<path fill="none" stroke="midnightblue" d="M674.849,-78.2445C690.088,-75.7228 707.241,-72.8845 722.744,-70.3193"/>
<polygon fill="midnightblue" stroke="midnightblue" points="673.942,-74.8467 664.648,-79.9323 675.085,-81.7528 673.942,-74.8467"/>
</g>
<!-- Node3 -->
<g id="node3" class="node"><title>Node3</title>
<g id="a_node3"><a xlink:href="../../d3/d16/classocra_1_1ObserverSubject.html" target="_top" xlink:title="ocra::ObserverSubject">
<polygon fill="white" stroke="black" points="385.5,-114 385.5,-133 499.5,-133 499.5,-114 385.5,-114"/>
<text text-anchor="middle" x="442.5" y="-121" font-family="Helvetica,sans-Serif" font-size="10.00">ocra::ObserverSubject</text>
</a>
</g>
</g>
<!-- Node3&#45;&gt;Node2 -->
<g id="edge2" class="edge"><title>Node3&#45;&gt;Node2</title>
<path fill="none" stroke="midnightblue" d="M500.17,-111.891C531.304,-105.513 568.864,-97.8189 595.374,-92.3884"/>
<polygon fill="midnightblue" stroke="midnightblue" points="499.404,-108.475 490.309,-113.911 500.808,-115.333 499.404,-108.475"/>
</g>
<!-- Node4 -->
<g id="node4" class="node"><title>Node4</title>
<g id="a_node4"><a xlink:href="../../d2/d45/classocra_1_1Observer.html" target="_top" xlink:title="ocra::Observer">
<polygon fill="white" stroke="black" points="226,-177 226,-196 307,-196 307,-177 226,-177"/>
<text text-anchor="middle" x="266.5" y="-184" font-family="Helvetica,sans-Serif" font-size="10.00">ocra::Observer</text>
</a>
</g>
</g>
<!-- Node4&#45;&gt;Node3 -->
<g id="edge3" class="edge"><title>Node4&#45;&gt;Node3</title>
<path fill="none" stroke="midnightblue" d="M303.715,-173.388C336.951,-161.354 385.401,-143.812 415.11,-133.055"/>
<polygon fill="midnightblue" stroke="midnightblue" points="302.138,-170.236 293.927,-176.932 304.521,-176.818 302.138,-170.236"/>
</g>
<!-- Node5 -->
<g id="node5" class="node"><title>Node5</title>
<g id="a_node5"><a xlink:href="../../d4/dee/classocra_1_1ObserverBase.html" target="_top" xlink:title="ocra::ObserverBase\l\&lt; EVT_RESIZE \&gt;">
<polygon fill="white" stroke="black" points="42.5,-245.5 42.5,-275.5 146.5,-275.5 146.5,-245.5 42.5,-245.5"/>
<text text-anchor="start" x="50.5" y="-263.5" font-family="Helvetica,sans-Serif" font-size="10.00">ocra::ObserverBase</text>
<text text-anchor="middle" x="94.5" y="-252.5" font-family="Helvetica,sans-Serif" font-size="10.00">&lt; EVT_RESIZE &gt;</text>
</a>
</g>
</g>
<!-- Node5&#45;&gt;Node4 -->
<g id="edge4" class="edge"><title>Node5&#45;&gt;Node4</title>
<path fill="none" stroke="midnightblue" d="M156.912,-247.812C167.814,-244.698 178.902,-240.95 189,-236.5 213.537,-225.687 239.017,-207.36 253.501,-196.153"/>
<polygon fill="midnightblue" stroke="midnightblue" points="155.726,-244.507 146.986,-250.495 157.553,-251.264 155.726,-244.507"/>
</g>
<!-- Node6 -->
<g id="node6" class="node"><title>Node6</title>
<g id="a_node6"><a xlink:href="../../d4/dee/classocra_1_1ObserverBase.html" target="_top" xlink:title="ocra::ObserverBase\l\&lt; EVT_CHANGE_DEPENDENCIES \&gt;">
<polygon fill="white" stroke="black" points="0,-196.5 0,-226.5 189,-226.5 189,-196.5 0,-196.5"/>
<text text-anchor="start" x="8" y="-214.5" font-family="Helvetica,sans-Serif" font-size="10.00">ocra::ObserverBase</text>
<text text-anchor="middle" x="94.5" y="-203.5" font-family="Helvetica,sans-Serif" font-size="10.00">&lt; EVT_CHANGE_DEPENDENCIES &gt;</text>
</a>
</g>
</g>
<!-- Node6&#45;&gt;Node4 -->
<g id="edge5" class="edge"><title>Node6&#45;&gt;Node4</title>
<path fill="none" stroke="midnightblue" d="M199.529,-196.202C208.724,-194.849 217.605,-193.543 225.713,-192.351"/>
<polygon fill="midnightblue" stroke="midnightblue" points="198.834,-192.766 189.45,-197.684 199.853,-199.692 198.834,-192.766"/>
</g>
<!-- Node7 -->
<g id="node7" class="node"><title>Node7</title>
<g id="a_node7"><a xlink:href="../../d4/dee/classocra_1_1ObserverBase.html" target="_top" xlink:title="ocra::ObserverBase\l\&lt; EVT_CHANGE_VALUE \&gt;">
<polygon fill="white" stroke="black" points="24,-147.5 24,-177.5 165,-177.5 165,-147.5 24,-147.5"/>
<text text-anchor="start" x="32" y="-165.5" font-family="Helvetica,sans-Serif" font-size="10.00">ocra::ObserverBase</text>
<text text-anchor="middle" x="94.5" y="-154.5" font-family="Helvetica,sans-Serif" font-size="10.00">&lt; EVT_CHANGE_VALUE &gt;</text>
</a>
</g>
</g>
<!-- Node7&#45;&gt;Node4 -->
<g id="edge6" class="edge"><title>Node7&#45;&gt;Node4</title>
<path fill="none" stroke="midnightblue" d="M175.415,-173.782C192.968,-176.26 210.811,-178.779 225.936,-180.914"/>
<polygon fill="midnightblue" stroke="midnightblue" points="175.527,-170.263 165.136,-172.331 174.549,-177.195 175.527,-170.263"/>
</g>
<!-- Node8 -->
<g id="node8" class="node"><title>Node8</title>
<g id="a_node8"><a xlink:href="../../dc/d77/classocra_1_1Subject.html" target="_top" xlink:title="ocra::Subject">
<polygon fill="white" stroke="black" points="229.5,-80 229.5,-99 303.5,-99 303.5,-80 229.5,-80"/>
<text text-anchor="middle" x="266.5" y="-87" font-family="Helvetica,sans-Serif" font-size="10.00">ocra::Subject</text>
</a>
</g>
</g>
<!-- Node8&#45;&gt;Node3 -->
<g id="edge7" class="edge"><title>Node8&#45;&gt;Node3</title>
<path fill="none" stroke="midnightblue" d="M313.622,-98.5123C337.979,-103.272 367.869,-109.112 392.624,-113.95"/>
<polygon fill="midnightblue" stroke="midnightblue" points="314.039,-95.0276 303.553,-96.5448 312.696,-101.898 314.039,-95.0276"/>
</g>
<!-- Node9 -->
<g id="node9" class="node"><title>Node9</title>
<g id="a_node9"><a xlink:href="../../dc/d29/classocra_1_1SubjectBase.html" target="_top" xlink:title="ocra::SubjectBase\&lt;\l EVT_RESIZE \&gt;">
<polygon fill="white" stroke="black" points="43,-98.5 43,-128.5 146,-128.5 146,-98.5 43,-98.5"/>
<text text-anchor="start" x="51" y="-116.5" font-family="Helvetica,sans-Serif" font-size="10.00">ocra::SubjectBase&lt;</text>
<text text-anchor="middle" x="94.5" y="-105.5" font-family="Helvetica,sans-Serif" font-size="10.00"> EVT_RESIZE &gt;</text>
</a>
</g>
</g>
<!-- Node9&#45;&gt;Node8 -->
<g id="edge8" class="edge"><title>Node9&#45;&gt;Node8</title>
<path fill="none" stroke="midnightblue" d="M156.006,-104.958C180.573,-101.49 208.125,-97.5999 229.446,-94.59"/>
<polygon fill="midnightblue" stroke="midnightblue" points="155.458,-101.501 146.045,-106.364 156.436,-108.432 155.458,-101.501"/>
</g>
<!-- Node10 -->
<g id="node10" class="node"><title>Node10</title>
<g id="a_node10"><a xlink:href="../../dc/d29/classocra_1_1SubjectBase.html" target="_top" xlink:title="ocra::SubjectBase\&lt;\l EVT_CHANGE_DEPENDENCIES \&gt;">
<polygon fill="white" stroke="black" points="3,-49.5 3,-79.5 186,-79.5 186,-49.5 3,-49.5"/>
<text text-anchor="start" x="11" y="-67.5" font-family="Helvetica,sans-Serif" font-size="10.00">ocra::SubjectBase&lt;</text>
<text text-anchor="middle" x="94.5" y="-56.5" font-family="Helvetica,sans-Serif" font-size="10.00"> EVT_CHANGE_DEPENDENCIES &gt;</text>
</a>
</g>
</g>
<!-- Node10&#45;&gt;Node8 -->
<g id="edge9" class="edge"><title>Node10&#45;&gt;Node8</title>
<path fill="none" stroke="midnightblue" d="M196.712,-79.3842C208.269,-81.0837 219.411,-82.7222 229.239,-84.1675"/>
<polygon fill="midnightblue" stroke="midnightblue" points="196.875,-75.8705 186.472,-77.8783 195.857,-82.796 196.875,-75.8705"/>
</g>
<!-- Node11 -->
<g id="node11" class="node"><title>Node11</title>
<g id="a_node11"><a xlink:href="../../dc/d29/classocra_1_1SubjectBase.html" target="_top" xlink:title="ocra::SubjectBase\&lt;\l EVT_CHANGE_VALUE \&gt;">
<polygon fill="white" stroke="black" points="27,-0.5 27,-30.5 162,-30.5 162,-0.5 27,-0.5"/>
<text text-anchor="start" x="35" y="-18.5" font-family="Helvetica,sans-Serif" font-size="10.00">ocra::SubjectBase&lt;</text>
<text text-anchor="middle" x="94.5" y="-7.5" font-family="Helvetica,sans-Serif" font-size="10.00"> EVT_CHANGE_VALUE &gt;</text>
</a>
</g>
</g>
<!-- Node11&#45;&gt;Node8 -->
<g id="edge10" class="edge"><title>Node11&#45;&gt;Node8</title>
<path fill="none" stroke="midnightblue" d="M172.26,-32.64C178.018,-34.6998 183.66,-36.9804 189,-39.5 207.411,-48.1863 208.959,-55.3634 226,-66.5 233.041,-71.1016 241.024,-75.8358 247.961,-79.8039"/>
<polygon fill="midnightblue" stroke="midnightblue" points="173.084,-29.2254 162.49,-29.379 170.867,-35.8653 173.084,-29.2254"/>
</g>
<!-- Node12 -->
<g id="node12" class="node"><title>Node12</title>
<g id="a_node12"><a xlink:href="../../db/de3/classocra_1_1NamedInstance.html" target="_top" xlink:title="ocra::NamedInstance">
<polygon fill="white" stroke="black" points="387.5,-76 387.5,-95 497.5,-95 497.5,-76 387.5,-76"/>
<text text-anchor="middle" x="442.5" y="-83" font-family="Helvetica,sans-Serif" font-size="10.00">ocra::NamedInstance</text>
</a>
</g>
</g>
<!-- Node12&#45;&gt;Node2 -->
<g id="edge11" class="edge"><title>Node12&#45;&gt;Node2</title>
<path fill="none" stroke="midnightblue" d="M507.89,-85.5C537.393,-85.5 571.133,-85.5 595.495,-85.5"/>
<polygon fill="midnightblue" stroke="midnightblue" points="507.653,-82.0001 497.653,-85.5 507.653,-89.0001 507.653,-82.0001"/>
</g>
<!-- Node13 -->
<g id="node13" class="node"><title>Node13</title>
<g id="a_node13"><a xlink:href="../../d5/d53/structocra_1_1OptimizationResult.html" target="_top" xlink:title="ocra::OptimizationResult">
<polygon fill="white" stroke="black" points="380,-38 380,-57 505,-57 505,-38 380,-38"/>
<text text-anchor="middle" x="442.5" y="-45" font-family="Helvetica,sans-Serif" font-size="10.00">ocra::OptimizationResult</text>
</a>
</g>
</g>
<!-- Node13&#45;&gt;Node2 -->
<g id="edge12" class="edge"><title>Node13&#45;&gt;Node2</title>
<path fill="none" stroke="#9a32cd" stroke-dasharray="5,2" d="M500.029,-59.0455C517.93,-62.7048 537.794,-66.7685 556,-70.5 568.802,-73.1239 582.865,-76.0121 595.201,-78.5478"/>
<polygon fill="#9a32cd" stroke="#9a32cd" points="500.525,-55.5747 490.027,-57.0013 499.123,-62.4329 500.525,-55.5747"/>
<text text-anchor="middle" x="539.5" y="-73.5" font-family="Helvetica,sans-Serif" font-size="10.00"> _result</text>
</g>
<!-- Node14 -->
<g id="node14" class="node"><title>Node14</title>
<polygon fill="white" stroke="#bfbfbf" points="238,-38 238,-57 295,-57 295,-38 238,-38"/>
<text text-anchor="middle" x="266.5" y="-45" font-family="Helvetica,sans-Serif" font-size="10.00">VectorXd</text>
</g>
<!-- Node14&#45;&gt;Node13 -->
<g id="edge13" class="edge"><title>Node14&#45;&gt;Node13</title>
<path fill="none" stroke="#9a32cd" stroke-dasharray="5,2" d="M305.226,-47.5C326.999,-47.5 354.915,-47.5 379.805,-47.5"/>
<polygon fill="#9a32cd" stroke="#9a32cd" points="305.071,-44.0001 295.071,-47.5 305.071,-51.0001 305.071,-44.0001"/>
<text text-anchor="middle" x="343.5" y="-50.5" font-family="Helvetica,sans-Serif" font-size="10.00"> solution</text>
</g>
<!-- Node15 -->
<g id="node15" class="node"><title>Node15</title>
<g id="a_node15"><a xlink:href="../../d5/d0c/classocra_1_1OFSQPProblem.html" target="_top" xlink:title="ocra::OFSQPProblem">
<polygon fill="white" stroke="black" points="574,-38 574,-57 686,-57 686,-38 574,-38"/>
<text text-anchor="middle" x="630" y="-45" font-family="Helvetica,sans-Serif" font-size="10.00">ocra::OFSQPProblem</text>
</a>
</g>
</g>
<!-- Node15&#45;&gt;Node1 -->
<g id="edge14" class="edge"><title>Node15&#45;&gt;Node1</title>
<path fill="none" stroke="midnightblue" d="M696.375,-54.5549C705.33,-55.5212 714.376,-56.4974 722.917,-57.4191"/>
<polygon fill="midnightblue" stroke="midnightblue" points="696.654,-51.0647 686.336,-53.4715 695.903,-58.0243 696.654,-51.0647"/>
</g>
</g>
</svg>
