<?xml version="1.0" encoding="UTF-8" standalone="no"?>
<!DOCTYPE svg PUBLIC "-//W3C//DTD SVG 1.1//EN"
 "http://www.w3.org/Graphics/SVG/1.1/DTD/svg11.dtd">
<!-- Generated by graphviz version 2.38.0 (20140413.2041)
 -->
<!-- Title: RowFunction.h Pages: 1 -->
<svg width="1468pt" height="341pt"
 viewBox="0.00 0.00 1467.50 341.00" xmlns="http://www.w3.org/2000/svg" xmlns:xlink="http://www.w3.org/1999/xlink">
<g id="graph0" class="graph" transform="scale(1 1) rotate(0) translate(4 337)">
<title>RowFunction.h</title>
<polygon fill="white" stroke="none" points="-4,4 -4,-337 1463.5,-337 1463.5,4 -4,4"/>
<!-- Node1 -->
<g id="node1" class="node"><title>Node1</title>
<polygon fill="#bfbfbf" stroke="black" points="428.5,-313.5 428.5,-332.5 511.5,-332.5 511.5,-313.5 428.5,-313.5"/>
<text text-anchor="middle" x="470" y="-320.5" font-family="Helvetica,sans-Serif" font-size="10.00">RowFunction.h</text>
</g>
<!-- Node2 -->
<g id="node2" class="node"><title>Node2</title>
<polygon fill="white" stroke="#bfbfbf" points="309.5,-257.5 309.5,-276.5 474.5,-276.5 474.5,-257.5 309.5,-257.5"/>
<text text-anchor="middle" x="392" y="-264.5" font-family="Helvetica,sans-Serif" font-size="10.00">ocra/optim/CompileTimeChecks.h</text>
</g>
<!-- Node1&#45;&gt;Node2 -->
<g id="edge1" class="edge"><title>Node1&#45;&gt;Node2</title>
<path fill="none" stroke="midnightblue" d="M457.468,-313.324C445.414,-304.979 426.973,-292.212 412.731,-282.352"/>
<polygon fill="midnightblue" stroke="midnightblue" points="414.715,-279.469 404.501,-276.655 410.731,-285.224 414.715,-279.469"/>
</g>
<!-- Node3 -->
<g id="node3" class="node"><title>Node3</title>
<g id="a_node3"><a xlink:href="../../df/df5/Function_8h.html" target="_top" xlink:title="Declaration file of the Function class. ">
<polygon fill="white" stroke="black" points="492.5,-257.5 492.5,-276.5 603.5,-276.5 603.5,-257.5 492.5,-257.5"/>
<text text-anchor="middle" x="548" y="-264.5" font-family="Helvetica,sans-Serif" font-size="10.00">ocra/optim/Function.h</text>
</a>
</g>
</g>
<!-- Node1&#45;&gt;Node3 -->
<g id="edge2" class="edge"><title>Node1&#45;&gt;Node3</title>
<path fill="none" stroke="midnightblue" d="M482.532,-313.324C494.586,-304.979 513.027,-292.212 527.269,-282.352"/>
<polygon fill="midnightblue" stroke="midnightblue" points="529.269,-285.224 535.499,-276.655 525.285,-279.469 529.269,-285.224"/>
</g>
<!-- Node4 -->
<g id="node4" class="node"><title>Node4</title>
<g id="a_node4"><a xlink:href="../../de/d94/IFunction_8h.html" target="_top" xlink:title="Declaration file of the IFunction interface. ">
<polygon fill="white" stroke="black" points="214,-134.5 214,-153.5 328,-153.5 328,-134.5 214,-134.5"/>
<text text-anchor="middle" x="271" y="-141.5" font-family="Helvetica,sans-Serif" font-size="10.00">ocra/optim/IFunction.h</text>
</a>
</g>
</g>
<!-- Node3&#45;&gt;Node4 -->
<g id="edge3" class="edge"><title>Node3&#45;&gt;Node4</title>
<path fill="none" stroke="midnightblue" d="M492.411,-257.82C419.089,-246.805 298.399,-227.802 291,-221 275.181,-206.456 271.256,-181.041 270.578,-163.637"/>
<polygon fill="midnightblue" stroke="midnightblue" points="274.078,-163.526 270.509,-153.551 267.078,-163.575 274.078,-163.526"/>
</g>
<!-- Node13 -->
<g id="node13" class="node"><title>Node13</title>
<g id="a_node13"><a xlink:href="../../d9/d54/IFunctionProperties_8h.html" target="_top" xlink:title="ocra/optim/IFunctionProperties.h">
<polygon fill="white" stroke="black" points="300,-196 300,-215 458,-215 458,-196 300,-196"/>
<text text-anchor="middle" x="379" y="-203" font-family="Helvetica,sans-Serif" font-size="10.00">ocra/optim/IFunctionProperties.h</text>
</a>
</g>
</g>
<!-- Node3&#45;&gt;Node13 -->
<g id="edge12" class="edge"><title>Node3&#45;&gt;Node13</title>
<path fill="none" stroke="midnightblue" d="M523.786,-257.475C494.671,-247.225 445.632,-229.959 412.798,-218.399"/>
<polygon fill="midnightblue" stroke="midnightblue" points="413.763,-215.029 403.169,-215.009 411.439,-221.631 413.763,-215.029"/>
</g>
<!-- Node15 -->
<g id="node15" class="node"><title>Node15</title>
<g id="a_node15"><a xlink:href="../../db/d47/AbilitySet_8h.html" target="_top" xlink:title="ocra/optim/AbilitySet.h">
<polygon fill="white" stroke="black" points="128,-196 128,-215 244,-215 244,-196 128,-196"/>
<text text-anchor="middle" x="186" y="-203" font-family="Helvetica,sans-Serif" font-size="10.00">ocra/optim/AbilitySet.h</text>
</a>
</g>
</g>
<!-- Node3&#45;&gt;Node15 -->
<g id="edge15" class="edge"><title>Node3&#45;&gt;Node15</title>
<path fill="none" stroke="midnightblue" d="M492.282,-258.111C433.805,-249.654 339.259,-235.479 258,-221 251.168,-219.783 243.987,-218.428 236.914,-217.048"/>
<polygon fill="midnightblue" stroke="midnightblue" points="237.172,-213.531 226.682,-215.024 235.813,-220.398 237.172,-213.531"/>
</g>
<!-- Node16 -->
<g id="node16" class="node"><title>Node16</title>
<g id="a_node16"><a xlink:href="../../d1/d87/CoupledInputOutputSize_8h.html" target="_top" xlink:title="ocra/optim/CoupledInputOutput\lSize.h">
<polygon fill="white" stroke="black" points="803,-190.5 803,-220.5 955,-220.5 955,-190.5 803,-190.5"/>
<text text-anchor="start" x="811" y="-208.5" font-family="Helvetica,sans-Serif" font-size="10.00">ocra/optim/CoupledInputOutput</text>
<text text-anchor="middle" x="879" y="-197.5" font-family="Helvetica,sans-Serif" font-size="10.00">Size.h</text>
</a>
</g>
</g>
<!-- Node3&#45;&gt;Node16 -->
<g id="edge18" class="edge"><title>Node3&#45;&gt;Node16</title>
<path fill="none" stroke="midnightblue" d="M595.424,-257.475C646.838,-248.233 729.973,-233.289 792.967,-221.965"/>
<polygon fill="midnightblue" stroke="midnightblue" points="793.673,-225.394 802.896,-220.18 792.435,-218.505 793.673,-225.394"/>
</g>
<!-- Node17 -->
<g id="node17" class="node"><title>Node17</title>
<g id="a_node17"><a xlink:href="../../d7/d90/Variable_8h.html" target="_top" xlink:title="Declaration file of the Variable class. ">
<polygon fill="white" stroke="black" points="637.5,-196 637.5,-215 746.5,-215 746.5,-196 637.5,-196"/>
<text text-anchor="middle" x="692" y="-203" font-family="Helvetica,sans-Serif" font-size="10.00">ocra/optim/Variable.h</text>
</a>
</g>
</g>
<!-- Node3&#45;&gt;Node17 -->
<g id="edge19" class="edge"><title>Node3&#45;&gt;Node17</title>
<path fill="none" stroke="midnightblue" d="M568.632,-257.475C593.119,-247.357 634.147,-230.405 662.109,-218.851"/>
<polygon fill="midnightblue" stroke="midnightblue" points="663.501,-222.063 671.407,-215.009 660.828,-215.593 663.501,-222.063"/>
</g>
<!-- Node18 -->
<g id="node18" class="node"><title>Node18</title>
<g id="a_node18"><a xlink:href="../../d8/ddc/ObserverSubject_8h.html" target="_top" xlink:title="Declaration file of the Observer, Subject and ObserverSubject classes. ">
<polygon fill="white" stroke="black" points="1018,-134.5 1018,-153.5 1164,-153.5 1164,-134.5 1018,-134.5"/>
<text text-anchor="middle" x="1091" y="-141.5" font-family="Helvetica,sans-Serif" font-size="10.00">ocra/optim/ObserverSubject.h</text>
</a>
</g>
</g>
<!-- Node3&#45;&gt;Node18 -->
<g id="edge49" class="edge"><title>Node3&#45;&gt;Node18</title>
<path fill="none" stroke="midnightblue" d="M603.732,-261.119C646.995,-255.667 707.564,-244.319 756,-221 775.639,-211.545 774.075,-198.834 794,-190 861.967,-159.865 946.341,-149.338 1007.77,-145.926"/>
<polygon fill="midnightblue" stroke="midnightblue" points="1008,-149.419 1017.81,-145.42 1007.65,-142.428 1008,-149.419"/>
</g>
<!-- Node34 -->
<g id="node34" class="node"><title>Node34</title>
<g id="a_node34"><a xlink:href="../../df/d97/NamedInstance_8h.html" target="_top" xlink:title="ocra/optim/NamedInstance.h">
<polygon fill="white" stroke="black" points="476.5,-196 476.5,-215 619.5,-215 619.5,-196 476.5,-196"/>
<text text-anchor="middle" x="548" y="-203" font-family="Helvetica,sans-Serif" font-size="10.00">ocra/optim/NamedInstance.h</text>
</a>
</g>
</g>
<!-- Node3&#45;&gt;Node34 -->
<g id="edge50" class="edge"><title>Node3&#45;&gt;Node34</title>
<path fill="none" stroke="midnightblue" d="M548,-257.475C548,-249.08 548,-235.981 548,-225.163"/>
<polygon fill="midnightblue" stroke="midnightblue" points="551.5,-225.009 548,-215.009 544.5,-225.009 551.5,-225.009"/>
</g>
<!-- Node5 -->
<g id="node5" class="node"><title>Node5</title>
<g id="a_node5"><a xlink:href="../../d5/d55/MathTypes_8h.html" target="_top" xlink:title="Declaration file of the OptimizationVariable class. ">
<polygon fill="white" stroke="black" points="72.5,-73 72.5,-92 183.5,-92 183.5,-73 72.5,-73"/>
<text text-anchor="middle" x="128" y="-80" font-family="Helvetica,sans-Serif" font-size="10.00">ocra/util/MathTypes.h</text>
</a>
</g>
</g>
<!-- Node4&#45;&gt;Node5 -->
<g id="edge4" class="edge"><title>Node4&#45;&gt;Node5</title>
<path fill="none" stroke="midnightblue" d="M250.512,-134.475C226.194,-124.357 185.451,-107.405 157.683,-95.8507"/>
<polygon fill="midnightblue" stroke="midnightblue" points="159.028,-92.6193 148.45,-92.0091 156.339,-99.0822 159.028,-92.6193"/>
</g>
<!-- Node8 -->
<g id="node8" class="node"><title>Node8</title>
<g id="a_node8"><a xlink:href="../../de/df3/ocra__assert_8h.html" target="_top" xlink:title="ocra/optim/ocra_assert.h">
<polygon fill="white" stroke="black" points="262.5,-73 262.5,-92 387.5,-92 387.5,-73 262.5,-73"/>
<text text-anchor="middle" x="325" y="-80" font-family="Helvetica,sans-Serif" font-size="10.00">ocra/optim/ocra_assert.h</text>
</a>
</g>
</g>
<!-- Node4&#45;&gt;Node8 -->
<g id="edge7" class="edge"><title>Node4&#45;&gt;Node8</title>
<path fill="none" stroke="midnightblue" d="M278.737,-134.475C286.997,-125.373 300.277,-110.741 310.494,-99.483"/>
<polygon fill="midnightblue" stroke="midnightblue" points="313.149,-101.766 317.277,-92.0091 307.965,-97.0619 313.149,-101.766"/>
</g>
<!-- Node10 -->
<g id="node10" class="node"><title>Node10</title>
<polygon fill="white" stroke="#bfbfbf" points="0,-73 0,-92 54,-92 54,-73 0,-73"/>
<text text-anchor="middle" x="27" y="-80" font-family="Helvetica,sans-Serif" font-size="10.00">iostream</text>
</g>
<!-- Node4&#45;&gt;Node10 -->
<g id="edge9" class="edge"><title>Node4&#45;&gt;Node10</title>
<path fill="none" stroke="midnightblue" d="M219.944,-134.458C177.453,-126.755 115.624,-114.162 63,-98 60.7175,-97.299 58.377,-96.5142 56.0385,-95.6822"/>
<polygon fill="midnightblue" stroke="midnightblue" points="57.1797,-92.3718 46.5886,-92.0907 54.6928,-98.9151 57.1797,-92.3718"/>
</g>
<!-- Node11 -->
<g id="node11" class="node"><title>Node11</title>
<polygon fill="white" stroke="#bfbfbf" points="201,-73 201,-92 245,-92 245,-73 201,-73"/>
<text text-anchor="middle" x="223" y="-80" font-family="Helvetica,sans-Serif" font-size="10.00">vector</text>
</g>
<!-- Node4&#45;&gt;Node11 -->
<g id="edge10" class="edge"><title>Node4&#45;&gt;Node11</title>
<path fill="none" stroke="midnightblue" d="M264.123,-134.475C256.851,-125.462 245.205,-111.025 236.159,-99.8118"/>
<polygon fill="midnightblue" stroke="midnightblue" points="238.867,-97.5946 229.864,-92.0091 233.419,-101.99 238.867,-97.5946"/>
</g>
<!-- Node12 -->
<g id="node12" class="node"><title>Node12</title>
<polygon fill="white" stroke="#bfbfbf" points="405.5,-73 405.5,-92 464.5,-92 464.5,-73 405.5,-73"/>
<text text-anchor="middle" x="435" y="-80" font-family="Helvetica,sans-Serif" font-size="10.00">stdexcept</text>
</g>
<!-- Node4&#45;&gt;Node12 -->
<g id="edge11" class="edge"><title>Node4&#45;&gt;Node12</title>
<path fill="none" stroke="midnightblue" d="M294.99,-134.447C320.174,-125.449 360.91,-110.839 396,-98 398.095,-97.2336 400.251,-96.4412 402.424,-95.6402"/>
<polygon fill="midnightblue" stroke="midnightblue" points="403.754,-98.8802 411.918,-92.1271 401.324,-92.3153 403.754,-98.8802"/>
</g>
<!-- Node6 -->
<g id="node6" class="node"><title>Node6</title>
<polygon fill="white" stroke="#bfbfbf" points="53.5,-6 53.5,-25 126.5,-25 126.5,-6 53.5,-6"/>
<text text-anchor="middle" x="90" y="-13" font-family="Helvetica,sans-Serif" font-size="10.00">Eigen/Dense</text>
</g>
<!-- Node5&#45;&gt;Node6 -->
<g id="edge5" class="edge"><title>Node5&#45;&gt;Node6</title>
<path fill="none" stroke="midnightblue" d="M122.875,-72.7338C117.063,-62.7928 107.444,-46.3377 100.108,-33.7892"/>
<polygon fill="midnightblue" stroke="midnightblue" points="103.112,-31.9938 95.0437,-25.1273 97.0691,-35.5267 103.112,-31.9938"/>
</g>
<!-- Node7 -->
<g id="node7" class="node"><title>Node7</title>
<polygon fill="white" stroke="#bfbfbf" points="145,-6 145,-25 189,-25 189,-6 145,-6"/>
<text text-anchor="middle" x="167" y="-13" font-family="Helvetica,sans-Serif" font-size="10.00">cmath</text>
</g>
<!-- Node5&#45;&gt;Node7 -->
<g id="edge6" class="edge"><title>Node5&#45;&gt;Node7</title>
<path fill="none" stroke="midnightblue" d="M133.26,-72.7338C139.224,-62.7928 149.097,-46.3377 156.626,-33.7892"/>
<polygon fill="midnightblue" stroke="midnightblue" points="159.68,-35.503 161.824,-25.1273 153.677,-31.9015 159.68,-35.503"/>
</g>
<!-- Node9 -->
<g id="node9" class="node"><title>Node9</title>
<polygon fill="white" stroke="#bfbfbf" points="303.5,-6 303.5,-25 346.5,-25 346.5,-6 303.5,-6"/>
<text text-anchor="middle" x="325" y="-13" font-family="Helvetica,sans-Serif" font-size="10.00">cstdio</text>
</g>
<!-- Node8&#45;&gt;Node9 -->
<g id="edge8" class="edge"><title>Node8&#45;&gt;Node9</title>
<path fill="none" stroke="midnightblue" d="M325,-72.7338C325,-63.1826 325,-47.6183 325,-35.2829"/>
<polygon fill="midnightblue" stroke="midnightblue" points="328.5,-35.1273 325,-25.1273 321.5,-35.1273 328.5,-35.1273"/>
</g>
<!-- Node13&#45;&gt;Node11 -->
<g id="edge14" class="edge"><title>Node13&#45;&gt;Node11</title>
<path fill="none" stroke="midnightblue" d="M375.949,-195.955C370.356,-181.395 357.151,-151.645 337,-134 306.442,-107.242 289.961,-114.842 253,-98 251.845,-97.4738 250.668,-96.9313 249.481,-96.3792"/>
<polygon fill="midnightblue" stroke="midnightblue" points="250.922,-93.1892 240.387,-92.0684 247.924,-99.5145 250.922,-93.1892"/>
</g>
<!-- Node14 -->
<g id="node14" class="node"><title>Node14</title>
<polygon fill="white" stroke="#bfbfbf" points="490.5,-134.5 490.5,-153.5 531.5,-153.5 531.5,-134.5 490.5,-134.5"/>
<text text-anchor="middle" x="511" y="-141.5" font-family="Helvetica,sans-Serif" font-size="10.00">string</text>
</g>
<!-- Node13&#45;&gt;Node14 -->
<g id="edge13" class="edge"><title>Node13&#45;&gt;Node14</title>
<path fill="none" stroke="midnightblue" d="M397.912,-195.975C420.163,-185.945 457.312,-169.2 482.926,-157.655"/>
<polygon fill="midnightblue" stroke="midnightblue" points="484.444,-160.809 492.123,-153.509 481.568,-154.428 484.444,-160.809"/>
</g>
<!-- Node15&#45;&gt;Node4 -->
<g id="edge16" class="edge"><title>Node15&#45;&gt;Node4</title>
<path fill="none" stroke="midnightblue" d="M198.178,-195.975C211.812,-186.431 234.132,-170.807 250.474,-159.368"/>
<polygon fill="midnightblue" stroke="midnightblue" points="252.659,-162.111 258.844,-153.509 248.645,-156.376 252.659,-162.111"/>
</g>
<!-- Node15&#45;&gt;Node11 -->
<g id="edge17" class="edge"><title>Node15&#45;&gt;Node11</title>
<path fill="none" stroke="midnightblue" d="M188.12,-195.753C191.419,-182.364 198.12,-156.021 205,-134 208.388,-123.156 212.637,-111.172 216.156,-101.6"/>
<polygon fill="midnightblue" stroke="midnightblue" points="219.519,-102.601 219.734,-92.0084 212.96,-100.155 219.519,-102.601"/>
</g>
<!-- Node17&#45;&gt;Node11 -->
<g id="edge48" class="edge"><title>Node17&#45;&gt;Node11</title>
<path fill="none" stroke="midnightblue" d="M671.847,-195.882C649.129,-186.077 611.164,-169.421 579,-154 561.435,-145.579 558.614,-139.744 540,-134 417.161,-96.0932 376.279,-134.453 253,-98 251.128,-97.4464 249.228,-96.7867 247.34,-96.0586"/>
<polygon fill="midnightblue" stroke="midnightblue" points="248.748,-92.8543 238.186,-92.0214 245.923,-99.2591 248.748,-92.8543"/>
</g>
<!-- Node17&#45;&gt;Node14 -->
<g id="edge47" class="edge"><title>Node17&#45;&gt;Node14</title>
<path fill="none" stroke="midnightblue" d="M666.067,-195.975C633.06,-185.125 576.143,-166.414 541.211,-154.931"/>
<polygon fill="midnightblue" stroke="midnightblue" points="542.145,-151.554 531.552,-151.756 539.959,-158.204 542.145,-151.554"/>
</g>
<!-- Node17&#45;&gt;Node18 -->
<g id="edge20" class="edge"><title>Node17&#45;&gt;Node18</title>
<path fill="none" stroke="midnightblue" d="M730.228,-195.957C740.216,-193.865 750.989,-191.732 761,-190 844.593,-175.536 940.762,-162.87 1007.63,-154.693"/>
<polygon fill="midnightblue" stroke="midnightblue" points="1008.19,-158.151 1017.7,-153.469 1007.35,-151.202 1008.19,-158.151"/>
</g>
<!-- Node29 -->
<g id="node29" class="node"><title>Node29</title>
<g id="a_node29"><a xlink:href="../../d1/de6/Composite_8h.html" target="_top" xlink:title="Utility classes and functions to implement the Composite design pattern. ">
<polygon fill="white" stroke="black" points="588.5,-134.5 588.5,-153.5 709.5,-153.5 709.5,-134.5 588.5,-134.5"/>
<text text-anchor="middle" x="649" y="-141.5" font-family="Helvetica,sans-Serif" font-size="10.00">ocra/optim/Composite.h</text>
</a>
</g>
</g>
<!-- Node17&#45;&gt;Node29 -->
<g id="edge34" class="edge"><title>Node17&#45;&gt;Node29</title>
<path fill="none" stroke="midnightblue" d="M685.839,-195.975C679.389,-187.05 669.096,-172.807 661.027,-161.643"/>
<polygon fill="midnightblue" stroke="midnightblue" points="663.844,-159.564 655.149,-153.509 658.17,-163.664 663.844,-159.564"/>
</g>
<!-- Node30 -->
<g id="node30" class="node"><title>Node30</title>
<polygon fill="white" stroke="#bfbfbf" points="808.5,-73 808.5,-92 925.5,-92 925.5,-73 808.5,-73"/>
<text text-anchor="middle" x="867" y="-80" font-family="Helvetica,sans-Serif" font-size="10.00">boost/noncopyable.hpp</text>
</g>
<!-- Node17&#45;&gt;Node30 -->
<g id="edge46" class="edge"><title>Node17&#45;&gt;Node30</title>
<path fill="none" stroke="midnightblue" d="M698.437,-195.668C709.34,-181.21 732.73,-152.274 758,-134 780.818,-117.499 809.888,-104.356 832.267,-95.6192"/>
<polygon fill="midnightblue" stroke="midnightblue" points="833.612,-98.8524 841.72,-92.0334 831.129,-92.3074 833.612,-98.8524"/>
</g>
<!-- Node33 -->
<g id="node33" class="node"><title>Node33</title>
<polygon fill="white" stroke="#bfbfbf" points="766.5,-134.5 766.5,-153.5 835.5,-153.5 835.5,-134.5 766.5,-134.5"/>
<text text-anchor="middle" x="801" y="-141.5" font-family="Helvetica,sans-Serif" font-size="10.00">Eigen/Eigen</text>
</g>
<!-- Node17&#45;&gt;Node33 -->
<g id="edge45" class="edge"><title>Node17&#45;&gt;Node33</title>
<path fill="none" stroke="midnightblue" d="M707.617,-195.975C725.586,-186.166 755.321,-169.935 776.406,-158.425"/>
<polygon fill="midnightblue" stroke="midnightblue" points="778.311,-161.373 785.412,-153.509 774.958,-155.228 778.311,-161.373"/>
</g>
<!-- Node19 -->
<g id="node19" class="node"><title>Node19</title>
<g id="a_node19"><a xlink:href="../../df/d67/ObserverSubjectBase_8h.html" target="_top" xlink:title="Declaration file of the Observer and Subject base classes. ">
<polygon fill="white" stroke="black" points="1138,-67.5 1138,-97.5 1276,-97.5 1276,-67.5 1138,-67.5"/>
<text text-anchor="start" x="1146" y="-85.5" font-family="Helvetica,sans-Serif" font-size="10.00">ocra/optim/ObserverSubject</text>
<text text-anchor="middle" x="1207" y="-74.5" font-family="Helvetica,sans-Serif" font-size="10.00">Base.h</text>
</a>
</g>
</g>
<!-- Node18&#45;&gt;Node19 -->
<g id="edge21" class="edge"><title>Node18&#45;&gt;Node19</title>
<path fill="none" stroke="midnightblue" d="M1107.62,-134.475C1123.99,-126.078 1149.54,-112.973 1170.63,-102.153"/>
<polygon fill="midnightblue" stroke="midnightblue" points="1172.36,-105.201 1179.66,-97.523 1169.17,-98.9727 1172.36,-105.201"/>
</g>
<!-- Node23 -->
<g id="node23" class="node"><title>Node23</title>
<polygon fill="white" stroke="#bfbfbf" points="1351,-0.5 1351,-30.5 1451,-30.5 1451,-0.5 1351,-0.5"/>
<text text-anchor="start" x="1359" y="-18.5" font-family="Helvetica,sans-Serif" font-size="10.00">boost/type_traits/is</text>
<text text-anchor="middle" x="1401" y="-7.5" font-family="Helvetica,sans-Serif" font-size="10.00">_class.hpp</text>
</g>
<!-- Node18&#45;&gt;Node23 -->
<g id="edge33" class="edge"><title>Node18&#45;&gt;Node23</title>
<path fill="none" stroke="midnightblue" d="M1160.83,-134.47C1198.91,-127.959 1246.08,-116.789 1285,-98 1304.94,-88.3736 1306.06,-79.9739 1324,-67 1338.8,-56.2951 1355.74,-45.0839 1369.95,-35.9519"/>
<polygon fill="midnightblue" stroke="midnightblue" points="1371.85,-38.8879 1378.4,-30.5577 1368.09,-32.9872 1371.85,-38.8879"/>
</g>
<!-- Node24 -->
<g id="node24" class="node"><title>Node24</title>
<polygon fill="white" stroke="#bfbfbf" points="729,-0.5 729,-30.5 829,-30.5 829,-0.5 729,-0.5"/>
<text text-anchor="start" x="737" y="-18.5" font-family="Helvetica,sans-Serif" font-size="10.00">boost/type_traits/is</text>
<text text-anchor="middle" x="779" y="-7.5" font-family="Helvetica,sans-Serif" font-size="10.00">_base_of.hpp</text>
</g>
<!-- Node18&#45;&gt;Node24 -->
<g id="edge31" class="edge"><title>Node18&#45;&gt;Node24</title>
<path fill="none" stroke="midnightblue" d="M1089.33,-134.282C1085.76,-118.168 1075.78,-83.8357 1053,-67 977.599,-11.2665 935.645,-48.0246 838.994,-30.9843"/>
<polygon fill="midnightblue" stroke="midnightblue" points="839.634,-27.5432 829.154,-29.0976 838.316,-34.418 839.634,-27.5432"/>
</g>
<!-- Node25 -->
<g id="node25" class="node"><title>Node25</title>
<polygon fill="white" stroke="#bfbfbf" points="921.5,-6 921.5,-25 1040.5,-25 1040.5,-6 921.5,-6"/>
<text text-anchor="middle" x="981" y="-13" font-family="Helvetica,sans-Serif" font-size="10.00">boost/static_assert.hpp</text>
</g>
<!-- Node18&#45;&gt;Node25 -->
<g id="edge30" class="edge"><title>Node18&#45;&gt;Node25</title>
<path fill="none" stroke="midnightblue" d="M1093.07,-134.122C1096.09,-118.931 1099.92,-87.5996 1086,-67 1073.15,-47.9716 1051.04,-35.8888 1030.43,-28.3334"/>
<polygon fill="midnightblue" stroke="midnightblue" points="1031.38,-24.9606 1020.78,-25.0749 1029.14,-31.5922 1031.38,-24.9606"/>
</g>
<!-- Node27 -->
<g id="node27" class="node"><title>Node27</title>
<g id="a_node27"><a xlink:href="../../db/ddf/ocra__events_8h.html" target="_top" xlink:title="ocra/optim/ocra_events.h">
<polygon fill="white" stroke="black" points="1332.5,-73 1332.5,-92 1459.5,-92 1459.5,-73 1332.5,-73"/>
<text text-anchor="middle" x="1396" y="-80" font-family="Helvetica,sans-Serif" font-size="10.00">ocra/optim/ocra_events.h</text>
</a>
</g>
</g>
<!-- Node18&#45;&gt;Node27 -->
<g id="edge29" class="edge"><title>Node18&#45;&gt;Node27</title>
<path fill="none" stroke="midnightblue" d="M1134.7,-134.475C1189.51,-123.783 1283.44,-105.458 1342.5,-93.9374"/>
<polygon fill="midnightblue" stroke="midnightblue" points="1343.24,-97.3591 1352.38,-92.0091 1341.9,-90.4886 1343.24,-97.3591"/>
</g>
<!-- Node28 -->
<g id="node28" class="node"><title>Node28</title>
<polygon fill="white" stroke="#bfbfbf" points="944,-67.5 944,-97.5 1044,-97.5 1044,-67.5 944,-67.5"/>
<text text-anchor="start" x="952" y="-85.5" font-family="Helvetica,sans-Serif" font-size="10.00">boost/type_traits/is</text>
<text text-anchor="middle" x="994" y="-74.5" font-family="Helvetica,sans-Serif" font-size="10.00">_convertible.hpp</text>
</g>
<!-- Node18&#45;&gt;Node28 -->
<g id="edge32" class="edge"><title>Node18&#45;&gt;Node28</title>
<path fill="none" stroke="midnightblue" d="M1077.1,-134.475C1063.72,-126.266 1043,-113.558 1025.6,-102.885"/>
<polygon fill="midnightblue" stroke="midnightblue" points="1027.22,-99.7683 1016.86,-97.523 1023.56,-105.735 1027.22,-99.7683"/>
</g>
<!-- Node20 -->
<g id="node20" class="node"><title>Node20</title>
<polygon fill="white" stroke="#bfbfbf" points="1177.5,-6 1177.5,-25 1236.5,-25 1236.5,-6 1177.5,-6"/>
<text text-anchor="middle" x="1207" y="-13" font-family="Helvetica,sans-Serif" font-size="10.00">functional</text>
</g>
<!-- Node19&#45;&gt;Node20 -->
<g id="edge22" class="edge"><title>Node19&#45;&gt;Node20</title>
<path fill="none" stroke="midnightblue" d="M1207,-67.396C1207,-58.0638 1207,-45.7143 1207,-35.5173"/>
<polygon fill="midnightblue" stroke="midnightblue" points="1210.5,-35.1945 1207,-25.1945 1203.5,-35.1946 1210.5,-35.1945"/>
</g>
<!-- Node21 -->
<g id="node21" class="node"><title>Node21</title>
<polygon fill="white" stroke="#bfbfbf" points="847,-6 847,-25 903,-25 903,-6 847,-6"/>
<text text-anchor="middle" x="875" y="-13" font-family="Helvetica,sans-Serif" font-size="10.00">algorithm</text>
</g>
<!-- Node19&#45;&gt;Node21 -->
<g id="edge23" class="edge"><title>Node19&#45;&gt;Node21</title>
<path fill="none" stroke="midnightblue" d="M1137.86,-73.4857C1077.75,-65.6063 988.674,-51.725 913,-31 910.346,-30.2732 907.62,-29.4316 904.904,-28.5271"/>
<polygon fill="midnightblue" stroke="midnightblue" points="905.862,-25.1524 895.268,-25.0682 903.497,-31.7408 905.862,-25.1524"/>
</g>
<!-- Node22 -->
<g id="node22" class="node"><title>Node22</title>
<polygon fill="white" stroke="#bfbfbf" points="1255,-6 1255,-25 1333,-25 1333,-6 1255,-6"/>
<text text-anchor="middle" x="1294" y="-13" font-family="Helvetica,sans-Serif" font-size="10.00">boost/any.hpp</text>
</g>
<!-- Node19&#45;&gt;Node22 -->
<g id="edge24" class="edge"><title>Node19&#45;&gt;Node22</title>
<path fill="none" stroke="midnightblue" d="M1225.88,-67.396C1240.11,-56.7593 1259.6,-42.2028 1274.08,-31.3813"/>
<polygon fill="midnightblue" stroke="midnightblue" points="1276.45,-33.9837 1282.36,-25.1945 1272.26,-28.376 1276.45,-33.9837"/>
</g>
<!-- Node19&#45;&gt;Node23 -->
<g id="edge25" class="edge"><title>Node19&#45;&gt;Node23</title>
<path fill="none" stroke="midnightblue" d="M1249.1,-67.396C1278.46,-57.558 1317.83,-44.3668 1349.13,-33.879"/>
<polygon fill="midnightblue" stroke="midnightblue" points="1350.62,-37.0722 1358.99,-30.5765 1348.39,-30.4348 1350.62,-37.0722"/>
</g>
<!-- Node19&#45;&gt;Node24 -->
<g id="edge26" class="edge"><title>Node19&#45;&gt;Node24</title>
<path fill="none" stroke="midnightblue" d="M1137.79,-72.9111C1051.76,-62.0886 908.728,-43.5825 839.236,-31.0772"/>
<polygon fill="midnightblue" stroke="midnightblue" points="839.604,-27.5858 829.133,-29.2006 838.326,-34.4681 839.604,-27.5858"/>
</g>
<!-- Node19&#45;&gt;Node25 -->
<g id="edge27" class="edge"><title>Node19&#45;&gt;Node25</title>
<path fill="none" stroke="midnightblue" d="M1158.24,-67.476C1117.03,-55.6223 1058.74,-38.8583 1020.42,-27.8379"/>
<polygon fill="midnightblue" stroke="midnightblue" points="1021.23,-24.4291 1010.65,-25.0287 1019.3,-31.1564 1021.23,-24.4291"/>
</g>
<!-- Node26 -->
<g id="node26" class="node"><title>Node26</title>
<polygon fill="white" stroke="#bfbfbf" points="1059,-0.5 1059,-30.5 1159,-30.5 1159,-0.5 1059,-0.5"/>
<text text-anchor="start" x="1067" y="-18.5" font-family="Helvetica,sans-Serif" font-size="10.00">boost/ptr_container</text>
<text text-anchor="middle" x="1109" y="-7.5" font-family="Helvetica,sans-Serif" font-size="10.00">/ptr_vector.hpp</text>
</g>
<!-- Node19&#45;&gt;Node26 -->
<g id="edge28" class="edge"><title>Node19&#45;&gt;Node26</title>
<path fill="none" stroke="midnightblue" d="M1185.74,-67.396C1171.99,-58.282 1153.91,-46.2902 1138.76,-36.236"/>
<polygon fill="midnightblue" stroke="midnightblue" points="1140.49,-33.1872 1130.22,-30.5765 1136.62,-39.0207 1140.49,-33.1872"/>
</g>
<!-- Node29&#45;&gt;Node8 -->
<g id="edge35" class="edge"><title>Node29&#45;&gt;Node8</title>
<path fill="none" stroke="midnightblue" d="M599.007,-134.494C547.921,-125.711 466.332,-111.434 396,-98 389.441,-96.7471 382.55,-95.3905 375.746,-94.0269"/>
<polygon fill="midnightblue" stroke="midnightblue" points="376.384,-90.5851 365.889,-92.0355 374.997,-97.4465 376.384,-90.5851"/>
</g>
<!-- Node29&#45;&gt;Node11 -->
<g id="edge41" class="edge"><title>Node29&#45;&gt;Node11</title>
<path fill="none" stroke="midnightblue" d="M588.423,-135.69C583.543,-135.114 578.69,-134.544 574,-134 431.396,-117.448 390.932,-137.806 253,-98 251.124,-97.4587 249.222,-96.808 247.332,-96.0864"/>
<polygon fill="midnightblue" stroke="midnightblue" points="248.737,-92.8808 238.174,-92.0627 245.921,-99.2896 248.737,-92.8808"/>
</g>
<!-- Node29&#45;&gt;Node12 -->
<g id="edge44" class="edge"><title>Node29&#45;&gt;Node12</title>
<path fill="none" stroke="midnightblue" d="M610.188,-134.421C574.285,-126.169 519.593,-112.793 473,-98 470.586,-97.2334 468.102,-96.397 465.615,-95.5253"/>
<polygon fill="midnightblue" stroke="midnightblue" points="466.746,-92.2124 456.153,-92.0616 464.34,-98.7858 466.746,-92.2124"/>
</g>
<!-- Node29&#45;&gt;Node21 -->
<g id="edge42" class="edge"><title>Node29&#45;&gt;Node21</title>
<path fill="none" stroke="midnightblue" d="M663.955,-134.37C679.056,-125.549 702.949,-111.295 723,-98 742.636,-84.9805 745.664,-78.895 766,-67 791.405,-52.1406 821.923,-38.3182 844.197,-28.9048"/>
<polygon fill="midnightblue" stroke="midnightblue" points="845.617,-32.1047 853.5,-25.0263 842.924,-25.6436 845.617,-32.1047"/>
</g>
<!-- Node29&#45;&gt;Node24 -->
<g id="edge38" class="edge"><title>Node29&#45;&gt;Node24</title>
<path fill="none" stroke="midnightblue" d="M622.071,-134.356C605.281,-127.411 585.022,-115.825 575,-98 568.247,-85.9905 566.508,-77.8499 575,-67 592.64,-44.4611 665.277,-30.5812 718.877,-23.2121"/>
<polygon fill="midnightblue" stroke="midnightblue" points="719.532,-26.6559 728.983,-21.8679 718.609,-19.717 719.532,-26.6559"/>
</g>
<!-- Node29&#45;&gt;Node25 -->
<g id="edge37" class="edge"><title>Node29&#45;&gt;Node25</title>
<path fill="none" stroke="midnightblue" d="M674.488,-134.483C697.113,-126.459 730.719,-113.392 758,-98 778.206,-86.5994 779.149,-77.1742 800,-67 823.578,-55.495 888.973,-38.5132 934.335,-27.4775"/>
<polygon fill="midnightblue" stroke="midnightblue" points="935.358,-30.8311 944.256,-25.0806 933.714,-24.0269 935.358,-30.8311"/>
</g>
<!-- Node29&#45;&gt;Node28 -->
<g id="edge39" class="edge"><title>Node29&#45;&gt;Node28</title>
<path fill="none" stroke="midnightblue" d="M709.524,-134.998C765.384,-127.269 850.824,-114.577 933.987,-98.1056"/>
<polygon fill="midnightblue" stroke="midnightblue" points="934.734,-101.526 943.853,-96.1315 933.361,-94.6617 934.734,-101.526"/>
</g>
<!-- Node29&#45;&gt;Node30 -->
<g id="edge36" class="edge"><title>Node29&#45;&gt;Node30</title>
<path fill="none" stroke="midnightblue" d="M680.234,-134.475C718.6,-124.004 783.787,-106.212 826.111,-94.6601"/>
<polygon fill="midnightblue" stroke="midnightblue" points="827.098,-98.0187 835.824,-92.0091 825.255,-91.2657 827.098,-98.0187"/>
</g>
<!-- Node31 -->
<g id="node31" class="node"><title>Node31</title>
<polygon fill="white" stroke="#bfbfbf" points="584.5,-67.5 584.5,-97.5 713.5,-97.5 713.5,-67.5 584.5,-67.5"/>
<text text-anchor="start" x="592.5" y="-85.5" font-family="Helvetica,sans-Serif" font-size="10.00">boost/type_traits/has</text>
<text text-anchor="middle" x="649" y="-74.5" font-family="Helvetica,sans-Serif" font-size="10.00">_nothrow_constructor.hpp</text>
</g>
<!-- Node29&#45;&gt;Node31 -->
<g id="edge40" class="edge"><title>Node29&#45;&gt;Node31</title>
<path fill="none" stroke="midnightblue" d="M649,-134.475C649,-127.471 649,-117.192 649,-107.696"/>
<polygon fill="midnightblue" stroke="midnightblue" points="652.5,-107.523 649,-97.523 645.5,-107.523 652.5,-107.523"/>
</g>
<!-- Node32 -->
<g id="node32" class="node"><title>Node32</title>
<polygon fill="white" stroke="#bfbfbf" points="482.5,-73 482.5,-92 527.5,-92 527.5,-73 482.5,-73"/>
<text text-anchor="middle" x="505" y="-80" font-family="Helvetica,sans-Serif" font-size="10.00">iosfwd</text>
</g>
<!-- Node29&#45;&gt;Node32 -->
<g id="edge43" class="edge"><title>Node29&#45;&gt;Node32</title>
<path fill="none" stroke="midnightblue" d="M628.368,-134.475C603.881,-124.357 562.853,-107.405 534.891,-95.8507"/>
<polygon fill="midnightblue" stroke="midnightblue" points="536.172,-92.5932 525.593,-92.0091 533.499,-99.0627 536.172,-92.5932"/>
</g>
<!-- Node34&#45;&gt;Node14 -->
<g id="edge51" class="edge"><title>Node34&#45;&gt;Node14</title>
<path fill="none" stroke="midnightblue" d="M542.699,-195.975C537.259,-187.227 528.641,-173.369 521.764,-162.309"/>
<polygon fill="midnightblue" stroke="midnightblue" points="524.544,-160.153 516.291,-153.509 518.6,-163.849 524.544,-160.153"/>
</g>
</g>
</svg>
