<?xml version="1.0" encoding="UTF-8" standalone="no"?>
<!DOCTYPE svg PUBLIC "-//W3C//DTD SVG 1.1//EN"
 "http://www.w3.org/Graphics/SVG/1.1/DTD/svg11.dtd">
<!-- Generated by graphviz version 2.38.0 (20140413.2041)
 -->
<!-- Title: MergedVariable.cpp Pages: 1 -->
<svg width="1425pt" height="330pt"
 viewBox="0.00 0.00 1425.00 330.00" xmlns="http://www.w3.org/2000/svg" xmlns:xlink="http://www.w3.org/1999/xlink">
<g id="graph0" class="graph" transform="scale(1 1) rotate(0) translate(4 326)">
<title>MergedVariable.cpp</title>
<polygon fill="white" stroke="none" points="-4,4 -4,-326 1421,-326 1421,4 -4,4"/>
<!-- Node1 -->
<g id="node1" class="node"><title>Node1</title>
<polygon fill="#bfbfbf" stroke="black" points="1111.5,-302.5 1111.5,-321.5 1214.5,-321.5 1214.5,-302.5 1111.5,-302.5"/>
<text text-anchor="middle" x="1163" y="-309.5" font-family="Helvetica,sans-Serif" font-size="10.00">MergedVariable.cpp</text>
</g>
<!-- Node2 -->
<g id="node2" class="node"><title>Node2</title>
<g id="a_node2"><a xlink:href="../../d4/d54/MergedVariable_8h.html" target="_top" xlink:title="ocra/optim/MergedVariable.h">
<polygon fill="white" stroke="black" points="950.5,-246.5 950.5,-265.5 1091.5,-265.5 1091.5,-246.5 950.5,-246.5"/>
<text text-anchor="middle" x="1021" y="-253.5" font-family="Helvetica,sans-Serif" font-size="10.00">ocra/optim/MergedVariable.h</text>
</a>
</g>
</g>
<!-- Node1&#45;&gt;Node2 -->
<g id="edge1" class="edge"><title>Node1&#45;&gt;Node2</title>
<path fill="none" stroke="midnightblue" d="M1140.5,-302.444C1116.92,-293.478 1079.68,-279.314 1053.04,-269.183"/>
<polygon fill="midnightblue" stroke="midnightblue" points="1053.99,-265.8 1043.4,-265.516 1051.5,-272.342 1053.99,-265.8"/>
</g>
<!-- Node26 -->
<g id="node26" class="node"><title>Node26</title>
<g id="a_node26"><a xlink:href="../../d9/d9e/VariableMapping_8h.html" target="_top" xlink:title="Declaration file of the VariableMapping class. ">
<polygon fill="white" stroke="black" points="1112,-190.5 1112,-209.5 1258,-209.5 1258,-190.5 1112,-190.5"/>
<text text-anchor="middle" x="1185" y="-197.5" font-family="Helvetica,sans-Serif" font-size="10.00">ocra/optim/VariableMapping.h</text>
</a>
</g>
</g>
<!-- Node1&#45;&gt;Node26 -->
<g id="edge35" class="edge"><title>Node1&#45;&gt;Node26</title>
<path fill="none" stroke="midnightblue" d="M1164.73,-302.368C1168.28,-284.617 1176.47,-243.666 1181.28,-219.597"/>
<polygon fill="midnightblue" stroke="midnightblue" points="1184.75,-220.084 1183.28,-209.591 1177.89,-218.711 1184.75,-220.084"/>
</g>
<!-- Node27 -->
<g id="node27" class="node"><title>Node27</title>
<polygon fill="white" stroke="#bfbfbf" points="1191.5,-246.5 1191.5,-265.5 1286.5,-265.5 1286.5,-246.5 1191.5,-246.5"/>
<text text-anchor="middle" x="1239" y="-253.5" font-family="Helvetica,sans-Serif" font-size="10.00">boost/foreach.hpp</text>
</g>
<!-- Node1&#45;&gt;Node27 -->
<g id="edge37" class="edge"><title>Node1&#45;&gt;Node27</title>
<path fill="none" stroke="midnightblue" d="M1175.21,-302.324C1186.78,-294.107 1204.38,-281.602 1218.16,-271.807"/>
<polygon fill="midnightblue" stroke="midnightblue" points="1220.44,-274.479 1226.57,-265.834 1216.39,-268.773 1220.44,-274.479"/>
</g>
<!-- Node3 -->
<g id="node3" class="node"><title>Node3</title>
<g id="a_node3"><a xlink:href="../../d7/d90/Variable_8h.html" target="_top" xlink:title="Declaration file of the Variable class. ">
<polygon fill="white" stroke="black" points="944.5,-190.5 944.5,-209.5 1053.5,-209.5 1053.5,-190.5 944.5,-190.5"/>
<text text-anchor="middle" x="999" y="-197.5" font-family="Helvetica,sans-Serif" font-size="10.00">ocra/optim/Variable.h</text>
</a>
</g>
</g>
<!-- Node2&#45;&gt;Node3 -->
<g id="edge2" class="edge"><title>Node2&#45;&gt;Node3</title>
<path fill="none" stroke="midnightblue" d="M1017.37,-246.083C1014.39,-238.77 1010.07,-228.181 1006.38,-219.103"/>
<polygon fill="midnightblue" stroke="midnightblue" points="1009.58,-217.691 1002.57,-209.751 1003.1,-220.333 1009.58,-217.691"/>
</g>
<!-- Node24 -->
<g id="node24" class="node"><title>Node24</title>
<polygon fill="white" stroke="#bfbfbf" points="1089.5,-134.5 1089.5,-153.5 1130.5,-153.5 1130.5,-134.5 1089.5,-134.5"/>
<text text-anchor="middle" x="1110" y="-141.5" font-family="Helvetica,sans-Serif" font-size="10.00">string</text>
</g>
<!-- Node2&#45;&gt;Node24 -->
<g id="edge33" class="edge"><title>Node2&#45;&gt;Node24</title>
<path fill="none" stroke="midnightblue" d="M1029.45,-246.275C1037.94,-237.38 1051.27,-223.069 1062,-210 1075.02,-194.144 1088.83,-175.191 1098.28,-161.854"/>
<polygon fill="midnightblue" stroke="midnightblue" points="1101.17,-163.82 1104.06,-153.625 1095.45,-159.796 1101.17,-163.82"/>
</g>
<!-- Node25 -->
<g id="node25" class="node"><title>Node25</title>
<polygon fill="white" stroke="#bfbfbf" points="891.5,-190.5 891.5,-209.5 926.5,-209.5 926.5,-190.5 891.5,-190.5"/>
<text text-anchor="middle" x="909" y="-197.5" font-family="Helvetica,sans-Serif" font-size="10.00">map</text>
</g>
<!-- Node2&#45;&gt;Node25 -->
<g id="edge34" class="edge"><title>Node2&#45;&gt;Node25</title>
<path fill="none" stroke="midnightblue" d="M1003.01,-246.324C984.856,-237.573 956.621,-223.96 935.83,-213.936"/>
<polygon fill="midnightblue" stroke="midnightblue" points="937.109,-210.667 926.581,-209.476 934.068,-216.972 937.109,-210.667"/>
</g>
<!-- Node4 -->
<g id="node4" class="node"><title>Node4</title>
<g id="a_node4"><a xlink:href="../../d8/ddc/ObserverSubject_8h.html" target="_top" xlink:title="Declaration file of the Observer, Subject and ObserverSubject classes. ">
<polygon fill="white" stroke="black" points="380,-134.5 380,-153.5 526,-153.5 526,-134.5 380,-134.5"/>
<text text-anchor="middle" x="453" y="-141.5" font-family="Helvetica,sans-Serif" font-size="10.00">ocra/optim/ObserverSubject.h</text>
</a>
</g>
</g>
<!-- Node3&#45;&gt;Node4 -->
<g id="edge3" class="edge"><title>Node3&#45;&gt;Node4</title>
<path fill="none" stroke="midnightblue" d="M944.209,-191.124C941.095,-190.73 938.009,-190.352 935,-190 795.463,-173.684 632.644,-159.489 536.442,-151.602"/>
<polygon fill="midnightblue" stroke="midnightblue" points="536.447,-148.091 526.195,-150.765 535.877,-155.068 536.447,-148.091"/>
</g>
<!-- Node15 -->
<g id="node15" class="node"><title>Node15</title>
<g id="a_node15"><a xlink:href="../../d1/de6/Composite_8h.html" target="_top" xlink:title="Utility classes and functions to implement the Composite design pattern. ">
<polygon fill="white" stroke="black" points="911.5,-134.5 911.5,-153.5 1032.5,-153.5 1032.5,-134.5 911.5,-134.5"/>
<text text-anchor="middle" x="972" y="-141.5" font-family="Helvetica,sans-Serif" font-size="10.00">ocra/optim/Composite.h</text>
</a>
</g>
</g>
<!-- Node3&#45;&gt;Node15 -->
<g id="edge17" class="edge"><title>Node3&#45;&gt;Node15</title>
<path fill="none" stroke="midnightblue" d="M994.541,-190.083C990.846,-182.691 985.477,-171.953 980.906,-162.811"/>
<polygon fill="midnightblue" stroke="midnightblue" points="983.978,-161.13 976.376,-153.751 977.717,-164.261 983.978,-161.13"/>
</g>
<!-- Node18 -->
<g id="node18" class="node"><title>Node18</title>
<polygon fill="white" stroke="#bfbfbf" points="691.5,-73 691.5,-92 808.5,-92 808.5,-73 691.5,-73"/>
<text text-anchor="middle" x="750" y="-80" font-family="Helvetica,sans-Serif" font-size="10.00">boost/noncopyable.hpp</text>
</g>
<!-- Node3&#45;&gt;Node18 -->
<g id="edge30" class="edge"><title>Node3&#45;&gt;Node18</title>
<path fill="none" stroke="midnightblue" d="M979.937,-190.425C960.3,-181.529 928.859,-167.111 902,-154 884.495,-145.455 880.565,-142.421 863,-134 834.856,-120.507 802.272,-106.068 779.346,-96.1006"/>
<polygon fill="midnightblue" stroke="midnightblue" points="780.72,-92.8817 770.153,-92.1183 777.938,-99.3049 780.72,-92.8817"/>
</g>
<!-- Node20 -->
<g id="node20" class="node"><title>Node20</title>
<polygon fill="white" stroke="#bfbfbf" points="1373,-73 1373,-92 1417,-92 1417,-73 1373,-73"/>
<text text-anchor="middle" x="1395" y="-80" font-family="Helvetica,sans-Serif" font-size="10.00">vector</text>
</g>
<!-- Node3&#45;&gt;Node20 -->
<g id="edge32" class="edge"><title>Node3&#45;&gt;Node20</title>
<path fill="none" stroke="midnightblue" d="M1006.5,-190.481C1019.74,-176.091 1048.8,-147.244 1080,-134 1196.71,-84.4632 1241.01,-132.551 1363,-98 1364.94,-97.4515 1366.91,-96.8035 1368.87,-96.0907"/>
<polygon fill="midnightblue" stroke="midnightblue" points="1370.51,-99.1994 1378.42,-92.1481 1367.84,-92.7291 1370.51,-99.1994"/>
</g>
<!-- Node23 -->
<g id="node23" class="node"><title>Node23</title>
<polygon fill="white" stroke="#bfbfbf" points="785.5,-134.5 785.5,-153.5 854.5,-153.5 854.5,-134.5 785.5,-134.5"/>
<text text-anchor="middle" x="820" y="-141.5" font-family="Helvetica,sans-Serif" font-size="10.00">Eigen/Eigen</text>
</g>
<!-- Node3&#45;&gt;Node23 -->
<g id="edge29" class="edge"><title>Node3&#45;&gt;Node23</title>
<path fill="none" stroke="midnightblue" d="M970.637,-190.444C940.262,-181.28 891.89,-166.688 858.184,-156.519"/>
<polygon fill="midnightblue" stroke="midnightblue" points="858.815,-153.054 848.23,-153.516 856.793,-159.756 858.815,-153.054"/>
</g>
<!-- Node3&#45;&gt;Node24 -->
<g id="edge31" class="edge"><title>Node3&#45;&gt;Node24</title>
<path fill="none" stroke="midnightblue" d="M1016.83,-190.324C1034.72,-181.625 1062.48,-168.12 1083.05,-158.113"/>
<polygon fill="midnightblue" stroke="midnightblue" points="1084.75,-161.177 1092.21,-153.655 1081.69,-154.882 1084.75,-161.177"/>
</g>
<!-- Node5 -->
<g id="node5" class="node"><title>Node5</title>
<g id="a_node5"><a xlink:href="../../df/d67/ObserverSubjectBase_8h.html" target="_top" xlink:title="Declaration file of the Observer and Subject base classes. ">
<polygon fill="white" stroke="black" points="195,-67.5 195,-97.5 333,-97.5 333,-67.5 195,-67.5"/>
<text text-anchor="start" x="203" y="-85.5" font-family="Helvetica,sans-Serif" font-size="10.00">ocra/optim/ObserverSubject</text>
<text text-anchor="middle" x="264" y="-74.5" font-family="Helvetica,sans-Serif" font-size="10.00">Base.h</text>
</a>
</g>
</g>
<!-- Node4&#45;&gt;Node5 -->
<g id="edge4" class="edge"><title>Node4&#45;&gt;Node5</title>
<path fill="none" stroke="midnightblue" d="M425.921,-134.475C397.931,-125.664 353.476,-111.668 318.222,-100.57"/>
<polygon fill="midnightblue" stroke="midnightblue" points="319.133,-97.1874 308.544,-97.523 317.031,-103.864 319.133,-97.1874"/>
</g>
<!-- Node9 -->
<g id="node9" class="node"><title>Node9</title>
<polygon fill="white" stroke="#bfbfbf" points="0,-0.5 0,-30.5 100,-30.5 100,-0.5 0,-0.5"/>
<text text-anchor="start" x="8" y="-18.5" font-family="Helvetica,sans-Serif" font-size="10.00">boost/type_traits/is</text>
<text text-anchor="middle" x="50" y="-7.5" font-family="Helvetica,sans-Serif" font-size="10.00">_class.hpp</text>
</g>
<!-- Node4&#45;&gt;Node9 -->
<g id="edge16" class="edge"><title>Node4&#45;&gt;Node9</title>
<path fill="none" stroke="midnightblue" d="M379.723,-138.036C324.987,-132.581 249.067,-121.266 186,-98 145.397,-83.0208 103.368,-55.6992 76.9812,-36.846"/>
<polygon fill="midnightblue" stroke="midnightblue" points="78.8064,-33.8461 68.6568,-30.807 74.6959,-39.5121 78.8064,-33.8461"/>
</g>
<!-- Node10 -->
<g id="node10" class="node"><title>Node10</title>
<polygon fill="white" stroke="#bfbfbf" points="410,-0.5 410,-30.5 510,-30.5 510,-0.5 410,-0.5"/>
<text text-anchor="start" x="418" y="-18.5" font-family="Helvetica,sans-Serif" font-size="10.00">boost/type_traits/is</text>
<text text-anchor="middle" x="460" y="-7.5" font-family="Helvetica,sans-Serif" font-size="10.00">_base_of.hpp</text>
</g>
<!-- Node4&#45;&gt;Node10 -->
<g id="edge14" class="edge"><title>Node4&#45;&gt;Node10</title>
<path fill="none" stroke="midnightblue" d="M426.789,-134.414C410.15,-127.445 389.943,-115.809 380,-98 373.284,-85.9701 373.348,-79.0656 380,-67 387.41,-53.5604 400.068,-43.204 413.156,-35.4704"/>
<polygon fill="midnightblue" stroke="midnightblue" points="415.119,-38.3868 422.227,-30.5298 411.771,-32.2395 415.119,-38.3868"/>
</g>
<!-- Node11 -->
<g id="node11" class="node"><title>Node11</title>
<polygon fill="white" stroke="#bfbfbf" points="528.5,-6 528.5,-25 647.5,-25 647.5,-6 528.5,-6"/>
<text text-anchor="middle" x="588" y="-13" font-family="Helvetica,sans-Serif" font-size="10.00">boost/static_assert.hpp</text>
</g>
<!-- Node4&#45;&gt;Node11 -->
<g id="edge13" class="edge"><title>Node4&#45;&gt;Node11</title>
<path fill="none" stroke="midnightblue" d="M470.467,-134.358C485.827,-126.253 508.279,-113.135 525,-98 546.367,-78.6588 565.799,-51.3711 577.264,-33.8065"/>
<polygon fill="midnightblue" stroke="midnightblue" points="580.351,-35.4747 582.776,-25.161 574.449,-31.7117 580.351,-35.4747"/>
</g>
<!-- Node13 -->
<g id="node13" class="node"><title>Node13</title>
<g id="a_node13"><a xlink:href="../../db/ddf/ocra__events_8h.html" target="_top" xlink:title="ocra/optim/ocra_events.h">
<polygon fill="white" stroke="black" points="389.5,-73 389.5,-92 516.5,-92 516.5,-73 389.5,-73"/>
<text text-anchor="middle" x="453" y="-80" font-family="Helvetica,sans-Serif" font-size="10.00">ocra/optim/ocra_events.h</text>
</a>
</g>
</g>
<!-- Node4&#45;&gt;Node13 -->
<g id="edge12" class="edge"><title>Node4&#45;&gt;Node13</title>
<path fill="none" stroke="midnightblue" d="M453,-134.475C453,-126.08 453,-112.981 453,-102.163"/>
<polygon fill="midnightblue" stroke="midnightblue" points="456.5,-102.009 453,-92.0091 449.5,-102.009 456.5,-102.009"/>
</g>
<!-- Node14 -->
<g id="node14" class="node"><title>Node14</title>
<polygon fill="white" stroke="#bfbfbf" points="573,-67.5 573,-97.5 673,-97.5 673,-67.5 573,-67.5"/>
<text text-anchor="start" x="581" y="-85.5" font-family="Helvetica,sans-Serif" font-size="10.00">boost/type_traits/is</text>
<text text-anchor="middle" x="623" y="-74.5" font-family="Helvetica,sans-Serif" font-size="10.00">_convertible.hpp</text>
</g>
<!-- Node4&#45;&gt;Node14 -->
<g id="edge15" class="edge"><title>Node4&#45;&gt;Node14</title>
<path fill="none" stroke="midnightblue" d="M477.357,-134.475C502.318,-125.739 541.836,-111.907 573.414,-100.855"/>
<polygon fill="midnightblue" stroke="midnightblue" points="574.652,-104.13 582.934,-97.523 572.34,-97.523 574.652,-104.13"/>
</g>
<!-- Node6 -->
<g id="node6" class="node"><title>Node6</title>
<polygon fill="white" stroke="#bfbfbf" points="332.5,-6 332.5,-25 391.5,-25 391.5,-6 332.5,-6"/>
<text text-anchor="middle" x="362" y="-13" font-family="Helvetica,sans-Serif" font-size="10.00">functional</text>
</g>
<!-- Node5&#45;&gt;Node6 -->
<g id="edge5" class="edge"><title>Node5&#45;&gt;Node6</title>
<path fill="none" stroke="midnightblue" d="M285.265,-67.396C301.699,-56.4956 324.34,-41.4787 340.766,-30.5835"/>
<polygon fill="midnightblue" stroke="midnightblue" points="342.775,-33.4512 349.174,-25.007 338.906,-27.6177 342.775,-33.4512"/>
</g>
<!-- Node7 -->
<g id="node7" class="node"><title>Node7</title>
<polygon fill="white" stroke="#bfbfbf" points="815,-6 815,-25 871,-25 871,-6 815,-6"/>
<text text-anchor="middle" x="843" y="-13" font-family="Helvetica,sans-Serif" font-size="10.00">algorithm</text>
</g>
<!-- Node5&#45;&gt;Node7 -->
<g id="edge6" class="edge"><title>Node5&#45;&gt;Node7</title>
<path fill="none" stroke="midnightblue" d="M333.292,-72.6578C348.665,-70.7464 364.881,-68.7693 380,-67 537.562,-48.5607 725.554,-28.7241 804.794,-20.4619"/>
<polygon fill="midnightblue" stroke="midnightblue" points="805.213,-23.9372 814.797,-19.4201 804.488,-16.9749 805.213,-23.9372"/>
</g>
<!-- Node8 -->
<g id="node8" class="node"><title>Node8</title>
<polygon fill="white" stroke="#bfbfbf" points="118,-6 118,-25 196,-25 196,-6 118,-6"/>
<text text-anchor="middle" x="157" y="-13" font-family="Helvetica,sans-Serif" font-size="10.00">boost/any.hpp</text>
</g>
<!-- Node5&#45;&gt;Node8 -->
<g id="edge7" class="edge"><title>Node5&#45;&gt;Node8</title>
<path fill="none" stroke="midnightblue" d="M240.783,-67.396C222.673,-56.3947 197.66,-41.2002 179.687,-30.2819"/>
<polygon fill="midnightblue" stroke="midnightblue" points="181.368,-27.2076 171.004,-25.007 177.733,-33.1902 181.368,-27.2076"/>
</g>
<!-- Node5&#45;&gt;Node9 -->
<g id="edge8" class="edge"><title>Node5&#45;&gt;Node9</title>
<path fill="none" stroke="midnightblue" d="M217.829,-67.476C185.174,-57.5574 141.2,-44.201 106.457,-33.6481"/>
<polygon fill="midnightblue" stroke="midnightblue" points="107.043,-30.1683 96.4575,-30.6109 105.009,-36.8662 107.043,-30.1683"/>
</g>
<!-- Node5&#45;&gt;Node10 -->
<g id="edge9" class="edge"><title>Node5&#45;&gt;Node10</title>
<path fill="none" stroke="midnightblue" d="M306.529,-67.396C336.323,-57.5154 376.316,-44.2525 408.006,-33.7429"/>
<polygon fill="midnightblue" stroke="midnightblue" points="409.164,-37.0464 417.554,-30.5765 406.961,-30.4022 409.164,-37.0464"/>
</g>
<!-- Node5&#45;&gt;Node11 -->
<g id="edge10" class="edge"><title>Node5&#45;&gt;Node11</title>
<path fill="none" stroke="midnightblue" d="M333.04,-68.0527C384.367,-58.0006 456.098,-43.8373 519,-31 525.139,-29.7471 531.582,-28.4155 537.962,-27.0868"/>
<polygon fill="midnightblue" stroke="midnightblue" points="538.809,-30.4852 547.882,-25.0129 537.377,-23.6334 538.809,-30.4852"/>
</g>
<!-- Node12 -->
<g id="node12" class="node"><title>Node12</title>
<polygon fill="white" stroke="#bfbfbf" points="214,-0.5 214,-30.5 314,-30.5 314,-0.5 214,-0.5"/>
<text text-anchor="start" x="222" y="-18.5" font-family="Helvetica,sans-Serif" font-size="10.00">boost/ptr_container</text>
<text text-anchor="middle" x="264" y="-7.5" font-family="Helvetica,sans-Serif" font-size="10.00">/ptr_vector.hpp</text>
</g>
<!-- Node5&#45;&gt;Node12 -->
<g id="edge11" class="edge"><title>Node5&#45;&gt;Node12</title>
<path fill="none" stroke="midnightblue" d="M264,-67.396C264,-59.6448 264,-49.8122 264,-40.8601"/>
<polygon fill="midnightblue" stroke="midnightblue" points="267.5,-40.5765 264,-30.5765 260.5,-40.5765 267.5,-40.5765"/>
</g>
<!-- Node15&#45;&gt;Node7 -->
<g id="edge26" class="edge"><title>Node15&#45;&gt;Node7</title>
<path fill="none" stroke="midnightblue" d="M974.207,-134.029C977.422,-118.698 981.542,-87.1617 967,-67 947.199,-39.5479 909.804,-26.9868 881.237,-21.2584"/>
<polygon fill="midnightblue" stroke="midnightblue" points="881.623,-17.7717 871.16,-19.4422 880.381,-24.6607 881.623,-17.7717"/>
</g>
<!-- Node15&#45;&gt;Node10 -->
<g id="edge22" class="edge"><title>Node15&#45;&gt;Node10</title>
<path fill="none" stroke="midnightblue" d="M942.777,-134.381C918.634,-126.632 883.918,-114.016 856,-98 836.794,-86.982 837.429,-75.5391 817,-67 696.918,-16.8072 652.417,-53.093 520.216,-31.0239"/>
<polygon fill="midnightblue" stroke="midnightblue" points="520.577,-27.534 510.123,-29.2552 519.369,-34.4289 520.577,-27.534"/>
</g>
<!-- Node15&#45;&gt;Node11 -->
<g id="edge21" class="edge"><title>Node15&#45;&gt;Node11</title>
<path fill="none" stroke="midnightblue" d="M970.248,-134.231C966.516,-118.034 956.158,-83.5679 933,-67 890.083,-36.2955 745.605,-23.9903 657.806,-19.2643"/>
<polygon fill="midnightblue" stroke="midnightblue" points="657.822,-15.7605 647.654,-18.7379 657.459,-22.7511 657.822,-15.7605"/>
</g>
<!-- Node15&#45;&gt;Node14 -->
<g id="edge23" class="edge"><title>Node15&#45;&gt;Node14</title>
<path fill="none" stroke="midnightblue" d="M911.467,-135.171C854.853,-127.494 767.756,-114.783 683.178,-98.1347"/>
<polygon fill="midnightblue" stroke="midnightblue" points="683.636,-94.6573 673.146,-96.1388 682.27,-101.523 683.636,-94.6573"/>
</g>
<!-- Node16 -->
<g id="node16" class="node"><title>Node16</title>
<g id="a_node16"><a xlink:href="../../de/df3/ocra__assert_8h.html" target="_top" xlink:title="ocra/optim/ocra_assert.h">
<polygon fill="white" stroke="black" points="1019.5,-73 1019.5,-92 1144.5,-92 1144.5,-73 1019.5,-73"/>
<text text-anchor="middle" x="1082" y="-80" font-family="Helvetica,sans-Serif" font-size="10.00">ocra/optim/ocra_assert.h</text>
</a>
</g>
</g>
<!-- Node15&#45;&gt;Node16 -->
<g id="edge18" class="edge"><title>Node15&#45;&gt;Node16</title>
<path fill="none" stroke="midnightblue" d="M987.76,-134.475C1005.98,-124.622 1036.17,-108.288 1057.47,-96.7697"/>
<polygon fill="midnightblue" stroke="midnightblue" points="1059.14,-99.8453 1066.27,-92.0091 1055.81,-93.6883 1059.14,-99.8453"/>
</g>
<!-- Node15&#45;&gt;Node18 -->
<g id="edge20" class="edge"><title>Node15&#45;&gt;Node18</title>
<path fill="none" stroke="midnightblue" d="M940.193,-134.475C901.123,-124.004 834.74,-106.212 791.639,-94.6601"/>
<polygon fill="midnightblue" stroke="midnightblue" points="792.313,-91.2173 781.748,-92.0091 790.501,-97.9787 792.313,-91.2173"/>
</g>
<!-- Node19 -->
<g id="node19" class="node"><title>Node19</title>
<polygon fill="white" stroke="#bfbfbf" points="1162.5,-67.5 1162.5,-97.5 1291.5,-97.5 1291.5,-67.5 1162.5,-67.5"/>
<text text-anchor="start" x="1170.5" y="-85.5" font-family="Helvetica,sans-Serif" font-size="10.00">boost/type_traits/has</text>
<text text-anchor="middle" x="1227" y="-74.5" font-family="Helvetica,sans-Serif" font-size="10.00">_nothrow_constructor.hpp</text>
</g>
<!-- Node15&#45;&gt;Node19 -->
<g id="edge24" class="edge"><title>Node15&#45;&gt;Node19</title>
<path fill="none" stroke="midnightblue" d="M1008.54,-134.475C1047.11,-125.475 1108.85,-111.068 1156.88,-99.8624"/>
<polygon fill="midnightblue" stroke="midnightblue" points="1157.96,-103.204 1166.9,-97.523 1156.37,-96.3869 1157.96,-103.204"/>
</g>
<!-- Node15&#45;&gt;Node20 -->
<g id="edge25" class="edge"><title>Node15&#45;&gt;Node20</title>
<path fill="none" stroke="midnightblue" d="M1032.58,-135.699C1037.46,-135.121 1042.31,-134.548 1047,-134 1187.4,-117.579 1226.75,-135.627 1363,-98 1365.15,-97.4064 1367.34,-96.6865 1369.51,-95.8887"/>
<polygon fill="midnightblue" stroke="midnightblue" points="1370.87,-99.1135 1378.76,-92.0404 1368.18,-92.6506 1370.87,-99.1135"/>
</g>
<!-- Node21 -->
<g id="node21" class="node"><title>Node21</title>
<polygon fill="white" stroke="#bfbfbf" points="1309.5,-73 1309.5,-92 1354.5,-92 1354.5,-73 1309.5,-73"/>
<text text-anchor="middle" x="1332" y="-80" font-family="Helvetica,sans-Serif" font-size="10.00">iosfwd</text>
</g>
<!-- Node15&#45;&gt;Node21 -->
<g id="edge27" class="edge"><title>Node15&#45;&gt;Node21</title>
<path fill="none" stroke="midnightblue" d="M1032.8,-135.622C1120.54,-124.828 1274.94,-105.23 1300,-98 1301.93,-97.442 1303.9,-96.787 1305.86,-96.0691"/>
<polygon fill="midnightblue" stroke="midnightblue" points="1307.51,-99.1755 1315.41,-92.1154 1304.83,-92.7082 1307.51,-99.1755"/>
</g>
<!-- Node22 -->
<g id="node22" class="node"><title>Node22</title>
<polygon fill="white" stroke="#bfbfbf" points="865.5,-73 865.5,-92 924.5,-92 924.5,-73 865.5,-73"/>
<text text-anchor="middle" x="895" y="-80" font-family="Helvetica,sans-Serif" font-size="10.00">stdexcept</text>
</g>
<!-- Node15&#45;&gt;Node22 -->
<g id="edge28" class="edge"><title>Node15&#45;&gt;Node22</title>
<path fill="none" stroke="midnightblue" d="M960.968,-134.475C948.732,-125.02 928.771,-109.596 914.007,-98.1871"/>
<polygon fill="midnightblue" stroke="midnightblue" points="916.065,-95.3541 906.012,-92.0091 911.785,-100.893 916.065,-95.3541"/>
</g>
<!-- Node17 -->
<g id="node17" class="node"><title>Node17</title>
<polygon fill="white" stroke="#bfbfbf" points="1060.5,-6 1060.5,-25 1103.5,-25 1103.5,-6 1060.5,-6"/>
<text text-anchor="middle" x="1082" y="-13" font-family="Helvetica,sans-Serif" font-size="10.00">cstdio</text>
</g>
<!-- Node16&#45;&gt;Node17 -->
<g id="edge19" class="edge"><title>Node16&#45;&gt;Node17</title>
<path fill="none" stroke="midnightblue" d="M1082,-72.7338C1082,-63.1826 1082,-47.6183 1082,-35.2829"/>
<polygon fill="midnightblue" stroke="midnightblue" points="1085.5,-35.1273 1082,-25.1273 1078.5,-35.1273 1085.5,-35.1273"/>
</g>
<!-- Node26&#45;&gt;Node20 -->
<g id="edge36" class="edge"><title>Node26&#45;&gt;Node20</title>
<path fill="none" stroke="midnightblue" d="M1200.78,-190.319C1237.13,-170.328 1326.95,-120.929 1370.52,-96.9667"/>
<polygon fill="midnightblue" stroke="midnightblue" points="1372.24,-100.01 1379.32,-92.1245 1368.87,-93.8769 1372.24,-100.01"/>
</g>
</g>
</svg>
