<?xml version="1.0" encoding="UTF-8" standalone="no"?>
<!DOCTYPE svg PUBLIC "-//W3C//DTD SVG 1.1//EN"
 "http://www.w3.org/Graphics/SVG/1.1/DTD/svg11.dtd">
<!-- Generated by graphviz version 2.38.0 (20140413.2041)
 -->
<!-- Title: SumOfLinearFunctions.h Pages: 1 -->
<svg width="572pt" height="252pt"
 viewBox="0.00 0.00 571.50 252.00" xmlns="http://www.w3.org/2000/svg" xmlns:xlink="http://www.w3.org/1999/xlink">
<g id="graph0" class="graph" transform="scale(1 1) rotate(0) translate(4 248)">
<title>SumOfLinearFunctions.h</title>
<polygon fill="white" stroke="none" points="-4,4 -4,-248 567.5,-248 567.5,4 -4,4"/>
<!-- Node1 -->
<g id="node1" class="node"><title>Node1</title>
<polygon fill="#bfbfbf" stroke="black" points="265.5,-224.5 265.5,-243.5 390.5,-243.5 390.5,-224.5 265.5,-224.5"/>
<text text-anchor="middle" x="328" y="-231.5" font-family="Helvetica,sans-Serif" font-size="10.00">SumOfLinearFunctions.h</text>
</g>
<!-- Node2 -->
<g id="node2" class="node"><title>Node2</title>
<g id="a_node2"><a xlink:href="../../d1/de1/CascadeQPSolver_8h.html" target="_top" xlink:title="Declaration file of the CascadeQPSolver class. ">
<polygon fill="white" stroke="black" points="66,-168.5 66,-187.5 172,-187.5 172,-168.5 66,-168.5"/>
<text text-anchor="middle" x="119" y="-175.5" font-family="Helvetica,sans-Serif" font-size="10.00">CascadeQPSolver.h</text>
</a>
</g>
</g>
<!-- Node1&#45;&gt;Node2 -->
<g id="edge1" class="edge"><title>Node1&#45;&gt;Node2</title>
<path fill="none" stroke="midnightblue" d="M285.016,-221.894C245.548,-211.697 187.9,-196.802 151.962,-187.516"/>
<polygon fill="midnightblue" stroke="midnightblue" points="284.326,-225.331 294.883,-224.444 286.077,-218.553 284.326,-225.331"/>
</g>
<!-- Node8 -->
<g id="node8" class="node"><title>Node8</title>
<g id="a_node8"><a xlink:href="../../d8/d27/SumOfLinearFunctions_8cpp.html" target="_top" xlink:title="SumOfLinearFunctions.cpp">
<polygon fill="white" stroke="black" points="190.5,-168.5 190.5,-187.5 325.5,-187.5 325.5,-168.5 190.5,-168.5"/>
<text text-anchor="middle" x="258" y="-175.5" font-family="Helvetica,sans-Serif" font-size="10.00">SumOfLinearFunctions.cpp</text>
</a>
</g>
</g>
<!-- Node1&#45;&gt;Node8 -->
<g id="edge7" class="edge"><title>Node1&#45;&gt;Node8</title>
<path fill="none" stroke="midnightblue" d="M308.686,-218.101C296.088,-208.382 280.072,-196.027 269.451,-187.834"/>
<polygon fill="midnightblue" stroke="midnightblue" points="306.698,-220.987 316.753,-224.324 310.973,-215.445 306.698,-220.987"/>
</g>
<!-- Node9 -->
<g id="node9" class="node"><title>Node9</title>
<g id="a_node9"><a xlink:href="../../d0/d71/GHCJTController_8cpp.html" target="_top" xlink:title="Implement the quasi&#45;static Generalized Hierarchical Control based on Jacobian Transpose (GHCJT)...">
<polygon fill="white" stroke="black" points="343.5,-168.5 343.5,-187.5 454.5,-187.5 454.5,-168.5 343.5,-168.5"/>
<text text-anchor="middle" x="399" y="-175.5" font-family="Helvetica,sans-Serif" font-size="10.00">GHCJTController.cpp</text>
</a>
</g>
</g>
<!-- Node1&#45;&gt;Node9 -->
<g id="edge8" class="edge"><title>Node1&#45;&gt;Node9</title>
<path fill="none" stroke="midnightblue" d="M347.59,-218.101C360.368,-208.382 376.613,-196.027 387.385,-187.834"/>
<polygon fill="midnightblue" stroke="midnightblue" points="345.248,-215.484 339.407,-224.324 349.486,-221.056 345.248,-215.484"/>
</g>
<!-- Node10 -->
<g id="node10" class="node"><title>Node10</title>
<g id="a_node10"><a xlink:href="../../d2/d79/GHCJTTask_8cpp.html" target="_top" xlink:title="Implement task class for GHCJT controller. It inherits from the task class defined in the ocra framew...">
<polygon fill="white" stroke="black" points="472.5,-168.5 472.5,-187.5 563.5,-187.5 563.5,-168.5 472.5,-168.5"/>
<text text-anchor="middle" x="518" y="-175.5" font-family="Helvetica,sans-Serif" font-size="10.00">GHCJTTask.cpp</text>
</a>
</g>
</g>
<!-- Node1&#45;&gt;Node10 -->
<g id="edge9" class="edge"><title>Node1&#45;&gt;Node10</title>
<path fill="none" stroke="midnightblue" d="M367.764,-221.699C403.623,-211.507 455.571,-196.743 488.035,-187.516"/>
<polygon fill="midnightblue" stroke="midnightblue" points="366.768,-218.343 358.106,-224.444 368.682,-225.076 366.768,-218.343"/>
</g>
<!-- Node3 -->
<g id="node3" class="node"><title>Node3</title>
<g id="a_node3"><a xlink:href="../../d9/dd8/CascadeQPSolver_8cpp.html" target="_top" xlink:title="CascadeQPSolver.cpp">
<polygon fill="white" stroke="black" points="0,-112.5 0,-131.5 116,-131.5 116,-112.5 0,-112.5"/>
<text text-anchor="middle" x="58" y="-119.5" font-family="Helvetica,sans-Serif" font-size="10.00">CascadeQPSolver.cpp</text>
</a>
</g>
</g>
<!-- Node2&#45;&gt;Node3 -->
<g id="edge2" class="edge"><title>Node2&#45;&gt;Node3</title>
<path fill="none" stroke="midnightblue" d="M101.533,-161.537C90.6562,-151.909 77.0561,-139.869 67.979,-131.834"/>
<polygon fill="midnightblue" stroke="midnightblue" points="99.3917,-164.316 109.199,-168.324 104.032,-159.075 99.3917,-164.316"/>
</g>
<!-- Node4 -->
<g id="node4" class="node"><title>Node4</title>
<g id="a_node4"><a xlink:href="../../d7/d34/HocraController_8h.html" target="_top" xlink:title="HocraController.h">
<polygon fill="white" stroke="black" points="133.5,-112.5 133.5,-131.5 226.5,-131.5 226.5,-112.5 133.5,-112.5"/>
<text text-anchor="middle" x="180" y="-119.5" font-family="Helvetica,sans-Serif" font-size="10.00">HocraController.h</text>
</a>
</g>
</g>
<!-- Node2&#45;&gt;Node4 -->
<g id="edge3" class="edge"><title>Node2&#45;&gt;Node4</title>
<path fill="none" stroke="midnightblue" d="M136.467,-161.537C147.344,-151.909 160.944,-139.869 170.021,-131.834"/>
<polygon fill="midnightblue" stroke="midnightblue" points="133.968,-159.075 128.801,-168.324 138.608,-164.316 133.968,-159.075"/>
</g>
<!-- Node5 -->
<g id="node5" class="node"><title>Node5</title>
<g id="a_node5"><a xlink:href="../../d9/d62/HocraController_8cpp.html" target="_top" xlink:title="HocraController.cpp">
<polygon fill="white" stroke="black" points="69,-56.5 69,-75.5 173,-75.5 173,-56.5 69,-56.5"/>
<text text-anchor="middle" x="121" y="-63.5" font-family="Helvetica,sans-Serif" font-size="10.00">HocraController.cpp</text>
</a>
</g>
</g>
<!-- Node4&#45;&gt;Node5 -->
<g id="edge4" class="edge"><title>Node4&#45;&gt;Node5</title>
<path fill="none" stroke="midnightblue" d="M163.105,-105.537C152.585,-95.9087 139.431,-83.8694 130.652,-75.8339"/>
<polygon fill="midnightblue" stroke="midnightblue" points="160.781,-108.154 170.521,-112.324 165.507,-102.99 160.781,-108.154"/>
</g>
<!-- Node6 -->
<g id="node6" class="node"><title>Node6</title>
<g id="a_node6"><a xlink:href="../../da/d7c/ControllerServer_8h.html" target="_top" xlink:title="ControllerServer.h">
<polygon fill="white" stroke="black" points="191.5,-56.5 191.5,-75.5 286.5,-75.5 286.5,-56.5 191.5,-56.5"/>
<text text-anchor="middle" x="239" y="-63.5" font-family="Helvetica,sans-Serif" font-size="10.00">ControllerServer.h</text>
</a>
</g>
</g>
<!-- Node4&#45;&gt;Node6 -->
<g id="edge5" class="edge"><title>Node4&#45;&gt;Node6</title>
<path fill="none" stroke="midnightblue" d="M196.895,-105.537C207.415,-95.9087 220.569,-83.8694 229.348,-75.8339"/>
<polygon fill="midnightblue" stroke="midnightblue" points="194.493,-102.99 189.479,-112.324 199.219,-108.154 194.493,-102.99"/>
</g>
<!-- Node7 -->
<g id="node7" class="node"><title>Node7</title>
<g id="a_node7"><a xlink:href="../../d5/dd2/ControllerServer_8cpp.html" target="_top" xlink:title="ControllerServer.cpp">
<polygon fill="white" stroke="black" points="186,-0.5 186,-19.5 292,-19.5 292,-0.5 186,-0.5"/>
<text text-anchor="middle" x="239" y="-7.5" font-family="Helvetica,sans-Serif" font-size="10.00">ControllerServer.cpp</text>
</a>
</g>
</g>
<!-- Node6&#45;&gt;Node7 -->
<g id="edge6" class="edge"><title>Node6&#45;&gt;Node7</title>
<path fill="none" stroke="midnightblue" d="M239,-45.8045C239,-36.9102 239,-26.7798 239,-19.7511"/>
<polygon fill="midnightblue" stroke="midnightblue" points="235.5,-46.083 239,-56.083 242.5,-46.083 235.5,-46.083"/>
</g>
</g>
</svg>
