<?xml version="1.0" encoding="UTF-8" standalone="no"?>
<!DOCTYPE svg PUBLIC "-//W3C//DTD SVG 1.1//EN"
 "http://www.w3.org/Graphics/SVG/1.1/DTD/svg11.dtd">
<!-- Generated by graphviz version 2.38.0 (20140413.2041)
 -->
<!-- Title: Model.cpp Pages: 1 -->
<svg width="1431pt" height="330pt"
 viewBox="0.00 0.00 1430.50 330.00" xmlns="http://www.w3.org/2000/svg" xmlns:xlink="http://www.w3.org/1999/xlink">
<g id="graph0" class="graph" transform="scale(1 1) rotate(0) translate(4 326)">
<title>Model.cpp</title>
<polygon fill="white" stroke="none" points="-4,4 -4,-326 1426.5,-326 1426.5,4 -4,4"/>
<!-- Node1 -->
<g id="node1" class="node"><title>Node1</title>
<polygon fill="#bfbfbf" stroke="black" points="868.5,-302.5 868.5,-321.5 930.5,-321.5 930.5,-302.5 868.5,-302.5"/>
<text text-anchor="middle" x="899.5" y="-309.5" font-family="Helvetica,sans-Serif" font-size="10.00">Model.cpp</text>
</g>
<!-- Node2 -->
<g id="node2" class="node"><title>Node2</title>
<g id="a_node2"><a xlink:href="../../d3/d5a/Model_8h.html" target="_top" xlink:title="Declaration file of the Model class. ">
<polygon fill="white" stroke="black" points="847,-246.5 847,-265.5 952,-265.5 952,-246.5 847,-246.5"/>
<text text-anchor="middle" x="899.5" y="-253.5" font-family="Helvetica,sans-Serif" font-size="10.00">ocra/control/Model.h</text>
</a>
</g>
</g>
<!-- Node1&#45;&gt;Node2 -->
<g id="edge1" class="edge"><title>Node1&#45;&gt;Node2</title>
<path fill="none" stroke="midnightblue" d="M899.5,-302.083C899.5,-295.006 899.5,-284.861 899.5,-275.986"/>
<polygon fill="midnightblue" stroke="midnightblue" points="903,-275.751 899.5,-265.751 896,-275.751 903,-275.751"/>
</g>
<!-- Node3 -->
<g id="node3" class="node"><title>Node3</title>
<g id="a_node3"><a xlink:href="../../d5/d55/MathTypes_8h.html" target="_top" xlink:title="Declaration file of the OptimizationVariable class. ">
<polygon fill="white" stroke="black" points="191,-190.5 191,-209.5 302,-209.5 302,-190.5 191,-190.5"/>
<text text-anchor="middle" x="246.5" y="-197.5" font-family="Helvetica,sans-Serif" font-size="10.00">ocra/util/MathTypes.h</text>
</a>
</g>
</g>
<!-- Node2&#45;&gt;Node3 -->
<g id="edge2" class="edge"><title>Node2&#45;&gt;Node3</title>
<path fill="none" stroke="midnightblue" d="M846.891,-250.649C728.686,-240.874 442.282,-217.19 312.444,-206.453"/>
<polygon fill="midnightblue" stroke="midnightblue" points="312.501,-202.946 302.246,-205.61 311.924,-209.922 312.501,-202.946"/>
</g>
<!-- Node6 -->
<g id="node6" class="node"><title>Node6</title>
<g id="a_node6"><a xlink:href="../../d8/ddc/ObserverSubject_8h.html" target="_top" xlink:title="Declaration file of the Observer, Subject and ObserverSubject classes. ">
<polygon fill="white" stroke="black" points="787.5,-134.5 787.5,-153.5 933.5,-153.5 933.5,-134.5 787.5,-134.5"/>
<text text-anchor="middle" x="860.5" y="-141.5" font-family="Helvetica,sans-Serif" font-size="10.00">ocra/optim/ObserverSubject.h</text>
</a>
</g>
</g>
<!-- Node2&#45;&gt;Node6 -->
<g id="edge5" class="edge"><title>Node2&#45;&gt;Node6</title>
<path fill="none" stroke="midnightblue" d="M891.688,-246.426C884.382,-237.87 873.82,-224.013 868.5,-210 862.882,-195.202 861.008,-177.275 860.468,-164"/>
<polygon fill="midnightblue" stroke="midnightblue" points="863.962,-163.659 860.276,-153.726 856.964,-163.79 863.962,-163.659"/>
</g>
<!-- Node17 -->
<g id="node17" class="node"><title>Node17</title>
<g id="a_node17"><a xlink:href="../../d7/d90/Variable_8h.html" target="_top" xlink:title="Declaration file of the Variable class. ">
<polygon fill="white" stroke="black" points="456,-190.5 456,-209.5 565,-209.5 565,-190.5 456,-190.5"/>
<text text-anchor="middle" x="510.5" y="-197.5" font-family="Helvetica,sans-Serif" font-size="10.00">ocra/optim/Variable.h</text>
</a>
</g>
</g>
<!-- Node2&#45;&gt;Node17 -->
<g id="edge19" class="edge"><title>Node2&#45;&gt;Node17</title>
<path fill="none" stroke="midnightblue" d="M846.633,-247.661C776.056,-237.864 651.138,-220.523 575.073,-209.964"/>
<polygon fill="midnightblue" stroke="midnightblue" points="575.519,-206.492 565.132,-208.584 574.556,-213.426 575.519,-206.492"/>
</g>
<!-- Node27 -->
<g id="node27" class="node"><title>Node27</title>
<polygon fill="white" stroke="#bfbfbf" points="629,-134.5 629,-153.5 670,-153.5 670,-134.5 629,-134.5"/>
<text text-anchor="middle" x="649.5" y="-141.5" font-family="Helvetica,sans-Serif" font-size="10.00">string</text>
</g>
<!-- Node2&#45;&gt;Node27 -->
<g id="edge46" class="edge"><title>Node2&#45;&gt;Node27</title>
<path fill="none" stroke="midnightblue" d="M846.966,-251.051C787.058,-245.496 694.085,-233.333 668.5,-210 655.624,-198.258 651.289,-178.323 649.921,-163.619"/>
<polygon fill="midnightblue" stroke="midnightblue" points="653.415,-163.405 649.361,-153.617 646.425,-163.797 653.415,-163.405"/>
</g>
<!-- Node28 -->
<g id="node28" class="node"><title>Node28</title>
<g id="a_node28"><a xlink:href="../../df/d97/NamedInstance_8h.html" target="_top" xlink:title="ocra/optim/NamedInstance.h">
<polygon fill="white" stroke="black" points="678,-190.5 678,-209.5 821,-209.5 821,-190.5 678,-190.5"/>
<text text-anchor="middle" x="749.5" y="-197.5" font-family="Helvetica,sans-Serif" font-size="10.00">ocra/optim/NamedInstance.h</text>
</a>
</g>
</g>
<!-- Node2&#45;&gt;Node28 -->
<g id="edge37" class="edge"><title>Node2&#45;&gt;Node28</title>
<path fill="none" stroke="midnightblue" d="M875.732,-246.444C850.607,-237.399 810.789,-223.064 782.6,-212.916"/>
<polygon fill="midnightblue" stroke="midnightblue" points="783.751,-209.611 773.157,-209.516 781.38,-216.197 783.751,-209.611"/>
</g>
<!-- Node29 -->
<g id="node29" class="node"><title>Node29</title>
<g id="a_node29"><a xlink:href="../../d9/d5d/ModelContacts_8h.html" target="_top" xlink:title="Declaration file of the ModelContacts class. ">
<polygon fill="white" stroke="black" points="878,-190.5 878,-209.5 1023,-209.5 1023,-190.5 878,-190.5"/>
<text text-anchor="middle" x="950.5" y="-197.5" font-family="Helvetica,sans-Serif" font-size="10.00">ocra/control/ModelContacts.h</text>
</a>
</g>
</g>
<!-- Node2&#45;&gt;Node29 -->
<g id="edge39" class="edge"><title>Node2&#45;&gt;Node29</title>
<path fill="none" stroke="midnightblue" d="M907.922,-246.083C915.348,-238.22 926.352,-226.569 935.312,-217.081"/>
<polygon fill="midnightblue" stroke="midnightblue" points="937.913,-219.424 942.235,-209.751 932.824,-214.618 937.913,-219.424"/>
</g>
<!-- Node32 -->
<g id="node32" class="node"><title>Node32</title>
<g id="a_node32"><a xlink:href="../../df/d0a/Macros_8h.html" target="_top" xlink:title="ocra/util/Macros.h">
<polygon fill="white" stroke="black" points="1041,-190.5 1041,-209.5 1136,-209.5 1136,-190.5 1041,-190.5"/>
<text text-anchor="middle" x="1088.5" y="-197.5" font-family="Helvetica,sans-Serif" font-size="10.00">ocra/util/Macros.h</text>
</a>
</g>
</g>
<!-- Node2&#45;&gt;Node32 -->
<g id="edge43" class="edge"><title>Node2&#45;&gt;Node32</title>
<path fill="none" stroke="midnightblue" d="M929.448,-246.444C961.658,-237.241 1013.03,-222.562 1048.64,-212.388"/>
<polygon fill="midnightblue" stroke="midnightblue" points="1050.04,-215.629 1058.69,-209.516 1048.12,-208.898 1050.04,-215.629"/>
</g>
<!-- Node34 -->
<g id="node34" class="node"><title>Node34</title>
<polygon fill="white" stroke="#bfbfbf" points="1154.5,-190.5 1154.5,-209.5 1222.5,-209.5 1222.5,-190.5 1154.5,-190.5"/>
<text text-anchor="middle" x="1188.5" y="-197.5" font-family="Helvetica,sans-Serif" font-size="10.00">Eigen/Lgsm</text>
</g>
<!-- Node2&#45;&gt;Node34 -->
<g id="edge45" class="edge"><title>Node2&#45;&gt;Node34</title>
<path fill="none" stroke="midnightblue" d="M948.112,-246.483C995.651,-238.07 1070.35,-224.626 1144.3,-210.199"/>
<polygon fill="midnightblue" stroke="midnightblue" points="1145.11,-213.607 1154.25,-208.251 1143.76,-206.738 1145.11,-213.607"/>
</g>
<!-- Node35 -->
<g id="node35" class="node"><title>Node35</title>
<polygon fill="white" stroke="#bfbfbf" points="1240.5,-190.5 1240.5,-209.5 1294.5,-209.5 1294.5,-190.5 1240.5,-190.5"/>
<text text-anchor="middle" x="1267.5" y="-197.5" font-family="Helvetica,sans-Serif" font-size="10.00">iostream</text>
</g>
<!-- Node2&#45;&gt;Node35 -->
<g id="edge47" class="edge"><title>Node2&#45;&gt;Node35</title>
<path fill="none" stroke="midnightblue" d="M952.117,-249.681C1015.78,-242.844 1126.35,-229.681 1230.4,-210.026"/>
<polygon fill="midnightblue" stroke="midnightblue" points="1231.28,-213.421 1240.44,-208.104 1229.96,-206.545 1231.28,-213.421"/>
</g>
<!-- Node36 -->
<g id="node36" class="node"><title>Node36</title>
<polygon fill="white" stroke="#bfbfbf" points="1312.5,-190.5 1312.5,-209.5 1422.5,-209.5 1422.5,-190.5 1312.5,-190.5"/>
<text text-anchor="middle" x="1367.5" y="-197.5" font-family="Helvetica,sans-Serif" font-size="10.00">yarp/os/Semaphore.h</text>
</g>
<!-- Node2&#45;&gt;Node36 -->
<g id="edge48" class="edge"><title>Node2&#45;&gt;Node36</title>
<path fill="none" stroke="midnightblue" d="M952.176,-249.621C1027.39,-241.834 1170.16,-226.652 1302.07,-210.15"/>
<polygon fill="midnightblue" stroke="midnightblue" points="1302.87,-213.577 1312.36,-208.857 1302,-206.631 1302.87,-213.577"/>
</g>
<!-- Node4 -->
<g id="node4" class="node"><title>Node4</title>
<polygon fill="white" stroke="#bfbfbf" points="133,-134.5 133,-153.5 206,-153.5 206,-134.5 133,-134.5"/>
<text text-anchor="middle" x="169.5" y="-141.5" font-family="Helvetica,sans-Serif" font-size="10.00">Eigen/Dense</text>
</g>
<!-- Node3&#45;&gt;Node4 -->
<g id="edge3" class="edge"><title>Node3&#45;&gt;Node4</title>
<path fill="none" stroke="midnightblue" d="M234.129,-190.324C222.342,-182.058 204.368,-169.453 190.364,-159.632"/>
<polygon fill="midnightblue" stroke="midnightblue" points="192.038,-156.531 181.841,-153.655 188.018,-162.262 192.038,-156.531"/>
</g>
<!-- Node5 -->
<g id="node5" class="node"><title>Node5</title>
<polygon fill="white" stroke="#bfbfbf" points="224.5,-134.5 224.5,-153.5 268.5,-153.5 268.5,-134.5 224.5,-134.5"/>
<text text-anchor="middle" x="246.5" y="-141.5" font-family="Helvetica,sans-Serif" font-size="10.00">cmath</text>
</g>
<!-- Node3&#45;&gt;Node5 -->
<g id="edge4" class="edge"><title>Node3&#45;&gt;Node5</title>
<path fill="none" stroke="midnightblue" d="M246.5,-190.083C246.5,-183.006 246.5,-172.861 246.5,-163.986"/>
<polygon fill="midnightblue" stroke="midnightblue" points="250,-163.751 246.5,-153.751 243,-163.751 250,-163.751"/>
</g>
<!-- Node7 -->
<g id="node7" class="node"><title>Node7</title>
<g id="a_node7"><a xlink:href="../../df/d67/ObserverSubjectBase_8h.html" target="_top" xlink:title="Declaration file of the Observer and Subject base classes. ">
<polygon fill="white" stroke="black" points="937.5,-67.5 937.5,-97.5 1075.5,-97.5 1075.5,-67.5 937.5,-67.5"/>
<text text-anchor="start" x="945.5" y="-85.5" font-family="Helvetica,sans-Serif" font-size="10.00">ocra/optim/ObserverSubject</text>
<text text-anchor="middle" x="1006.5" y="-74.5" font-family="Helvetica,sans-Serif" font-size="10.00">Base.h</text>
</a>
</g>
</g>
<!-- Node6&#45;&gt;Node7 -->
<g id="edge6" class="edge"><title>Node6&#45;&gt;Node7</title>
<path fill="none" stroke="midnightblue" d="M881.418,-134.475C902.486,-125.889 935.628,-112.383 962.506,-101.429"/>
<polygon fill="midnightblue" stroke="midnightblue" points="964.151,-104.538 972.091,-97.523 961.509,-98.0558 964.151,-104.538"/>
</g>
<!-- Node11 -->
<g id="node11" class="node"><title>Node11</title>
<polygon fill="white" stroke="#bfbfbf" points="1181.5,-0.5 1181.5,-30.5 1281.5,-30.5 1281.5,-0.5 1181.5,-0.5"/>
<text text-anchor="start" x="1189.5" y="-18.5" font-family="Helvetica,sans-Serif" font-size="10.00">boost/type_traits/is</text>
<text text-anchor="middle" x="1231.5" y="-7.5" font-family="Helvetica,sans-Serif" font-size="10.00">_class.hpp</text>
</g>
<!-- Node6&#45;&gt;Node11 -->
<g id="edge18" class="edge"><title>Node6&#45;&gt;Node11</title>
<path fill="none" stroke="midnightblue" d="M918.708,-134.485C974.914,-125.695 1055.63,-111.412 1084.5,-98 1104.58,-88.6705 1104.68,-78.6581 1123.5,-67 1143.31,-54.7311 1166.58,-43.4869 1186.44,-34.7387"/>
<polygon fill="midnightblue" stroke="midnightblue" points="1188.1,-37.8352 1195.89,-30.6511 1185.32,-31.4111 1188.1,-37.8352"/>
</g>
<!-- Node12 -->
<g id="node12" class="node"><title>Node12</title>
<polygon fill="white" stroke="#bfbfbf" points="634.5,-0.5 634.5,-30.5 734.5,-30.5 734.5,-0.5 634.5,-0.5"/>
<text text-anchor="start" x="642.5" y="-18.5" font-family="Helvetica,sans-Serif" font-size="10.00">boost/type_traits/is</text>
<text text-anchor="middle" x="684.5" y="-7.5" font-family="Helvetica,sans-Serif" font-size="10.00">_base_of.hpp</text>
</g>
<!-- Node6&#45;&gt;Node12 -->
<g id="edge16" class="edge"><title>Node6&#45;&gt;Node12</title>
<path fill="none" stroke="midnightblue" d="M862.386,-134.321C865.199,-118.873 868.581,-86.4121 852.5,-67 848.838,-62.5798 791.214,-45.8488 744.461,-32.8415"/>
<polygon fill="midnightblue" stroke="midnightblue" points="745.245,-29.4268 734.673,-30.1282 743.375,-36.1724 745.245,-29.4268"/>
</g>
<!-- Node13 -->
<g id="node13" class="node"><title>Node13</title>
<polygon fill="white" stroke="#bfbfbf" points="753,-6 753,-25 872,-25 872,-6 753,-6"/>
<text text-anchor="middle" x="812.5" y="-13" font-family="Helvetica,sans-Serif" font-size="10.00">boost/static_assert.hpp</text>
</g>
<!-- Node6&#45;&gt;Node13 -->
<g id="edge15" class="edge"><title>Node6&#45;&gt;Node13</title>
<path fill="none" stroke="midnightblue" d="M867.776,-134.193C878.862,-119.634 897.494,-89.8823 885.5,-67 876.731,-50.2713 859.626,-37.9855 844.177,-29.7228"/>
<polygon fill="midnightblue" stroke="midnightblue" points="845.374,-26.4094 834.861,-25.0943 842.259,-32.6783 845.374,-26.4094"/>
</g>
<!-- Node15 -->
<g id="node15" class="node"><title>Node15</title>
<g id="a_node15"><a xlink:href="../../db/ddf/ocra__events_8h.html" target="_top" xlink:title="ocra/optim/ocra_events.h">
<polygon fill="white" stroke="black" points="1132,-73 1132,-92 1259,-92 1259,-73 1132,-73"/>
<text text-anchor="middle" x="1195.5" y="-80" font-family="Helvetica,sans-Serif" font-size="10.00">ocra/optim/ocra_events.h</text>
</a>
</g>
</g>
<!-- Node6&#45;&gt;Node15 -->
<g id="edge14" class="edge"><title>Node6&#45;&gt;Node15</title>
<path fill="none" stroke="midnightblue" d="M910.276,-134.443C962.068,-125.502 1045.51,-110.994 1117.5,-98 1124.85,-96.6732 1132.59,-95.2577 1140.22,-93.8508"/>
<polygon fill="midnightblue" stroke="midnightblue" points="1140.95,-97.2751 1150.15,-92.0143 1139.68,-90.3919 1140.95,-97.2751"/>
</g>
<!-- Node16 -->
<g id="node16" class="node"><title>Node16</title>
<polygon fill="white" stroke="#bfbfbf" points="743.5,-67.5 743.5,-97.5 843.5,-97.5 843.5,-67.5 743.5,-67.5"/>
<text text-anchor="start" x="751.5" y="-85.5" font-family="Helvetica,sans-Serif" font-size="10.00">boost/type_traits/is</text>
<text text-anchor="middle" x="793.5" y="-74.5" font-family="Helvetica,sans-Serif" font-size="10.00">_convertible.hpp</text>
</g>
<!-- Node6&#45;&gt;Node16 -->
<g id="edge17" class="edge"><title>Node6&#45;&gt;Node16</title>
<path fill="none" stroke="midnightblue" d="M850.901,-134.475C842.081,-126.643 828.649,-114.714 816.996,-104.366"/>
<polygon fill="midnightblue" stroke="midnightblue" points="819.092,-101.546 809.291,-97.523 814.444,-106.78 819.092,-101.546"/>
</g>
<!-- Node8 -->
<g id="node8" class="node"><title>Node8</title>
<polygon fill="white" stroke="#bfbfbf" points="890,-6 890,-25 949,-25 949,-6 890,-6"/>
<text text-anchor="middle" x="919.5" y="-13" font-family="Helvetica,sans-Serif" font-size="10.00">functional</text>
</g>
<!-- Node7&#45;&gt;Node8 -->
<g id="edge7" class="edge"><title>Node7&#45;&gt;Node8</title>
<path fill="none" stroke="midnightblue" d="M987.622,-67.396C973.386,-56.7593 953.902,-42.2028 939.418,-31.3813"/>
<polygon fill="midnightblue" stroke="midnightblue" points="941.243,-28.376 931.137,-25.1945 937.054,-33.9837 941.243,-28.376"/>
</g>
<!-- Node9 -->
<g id="node9" class="node"><title>Node9</title>
<polygon fill="white" stroke="#bfbfbf" points="511.5,-6 511.5,-25 567.5,-25 567.5,-6 511.5,-6"/>
<text text-anchor="middle" x="539.5" y="-13" font-family="Helvetica,sans-Serif" font-size="10.00">algorithm</text>
</g>
<!-- Node7&#45;&gt;Node9 -->
<g id="edge8" class="edge"><title>Node7&#45;&gt;Node9</title>
<path fill="none" stroke="midnightblue" d="M937.221,-73.0623C860.79,-63.5802 734.204,-47.3629 625.5,-31 609.807,-28.6377 592.548,-25.7792 577.636,-23.2268"/>
<polygon fill="midnightblue" stroke="midnightblue" points="578.185,-19.7698 567.736,-21.5184 576.995,-26.6679 578.185,-19.7698"/>
</g>
<!-- Node10 -->
<g id="node10" class="node"><title>Node10</title>
<polygon fill="white" stroke="#bfbfbf" points="967.5,-6 967.5,-25 1045.5,-25 1045.5,-6 967.5,-6"/>
<text text-anchor="middle" x="1006.5" y="-13" font-family="Helvetica,sans-Serif" font-size="10.00">boost/any.hpp</text>
</g>
<!-- Node7&#45;&gt;Node10 -->
<g id="edge9" class="edge"><title>Node7&#45;&gt;Node10</title>
<path fill="none" stroke="midnightblue" d="M1006.5,-67.396C1006.5,-58.0638 1006.5,-45.7143 1006.5,-35.5173"/>
<polygon fill="midnightblue" stroke="midnightblue" points="1010,-35.1945 1006.5,-25.1945 1003,-35.1946 1010,-35.1945"/>
</g>
<!-- Node7&#45;&gt;Node11 -->
<g id="edge10" class="edge"><title>Node7&#45;&gt;Node11</title>
<path fill="none" stroke="midnightblue" d="M1055.04,-67.476C1089.53,-57.5149 1136.01,-44.0862 1172.61,-33.5123"/>
<polygon fill="midnightblue" stroke="midnightblue" points="1174.02,-36.7489 1182.65,-30.6109 1172.08,-30.0239 1174.02,-36.7489"/>
</g>
<!-- Node7&#45;&gt;Node12 -->
<g id="edge11" class="edge"><title>Node7&#45;&gt;Node12</title>
<path fill="none" stroke="midnightblue" d="M937.361,-69.2251C886.592,-59.9808 815.729,-46.5993 744.694,-31.2016"/>
<polygon fill="midnightblue" stroke="midnightblue" points="745.187,-27.7271 734.671,-29.0158 743.696,-34.5663 745.187,-27.7271"/>
</g>
<!-- Node7&#45;&gt;Node13 -->
<g id="edge12" class="edge"><title>Node7&#45;&gt;Node13</title>
<path fill="none" stroke="midnightblue" d="M964.405,-67.396C929.462,-55.6882 880.344,-39.2314 847.52,-28.2336"/>
<polygon fill="midnightblue" stroke="midnightblue" points="848.484,-24.8653 837.89,-25.007 846.26,-31.5027 848.484,-24.8653"/>
</g>
<!-- Node14 -->
<g id="node14" class="node"><title>Node14</title>
<polygon fill="white" stroke="#bfbfbf" points="1063.5,-0.5 1063.5,-30.5 1163.5,-30.5 1163.5,-0.5 1063.5,-0.5"/>
<text text-anchor="start" x="1071.5" y="-18.5" font-family="Helvetica,sans-Serif" font-size="10.00">boost/ptr_container</text>
<text text-anchor="middle" x="1113.5" y="-7.5" font-family="Helvetica,sans-Serif" font-size="10.00">/ptr_vector.hpp</text>
</g>
<!-- Node7&#45;&gt;Node14 -->
<g id="edge13" class="edge"><title>Node7&#45;&gt;Node14</title>
<path fill="none" stroke="midnightblue" d="M1029.72,-67.396C1044.86,-58.1968 1064.83,-46.0658 1081.47,-35.9546"/>
<polygon fill="midnightblue" stroke="midnightblue" points="1083.6,-38.7597 1090.33,-30.5765 1079.96,-32.7771 1083.6,-38.7597"/>
</g>
<!-- Node17&#45;&gt;Node6 -->
<g id="edge20" class="edge"><title>Node17&#45;&gt;Node6</title>
<path fill="none" stroke="midnightblue" d="M565.188,-190.562C627.456,-180.955 729.113,-165.271 795.411,-155.042"/>
<polygon fill="midnightblue" stroke="midnightblue" points="795.982,-158.496 805.331,-153.512 794.914,-151.578 795.982,-158.496"/>
</g>
<!-- Node18 -->
<g id="node18" class="node"><title>Node18</title>
<g id="a_node18"><a xlink:href="../../d1/de6/Composite_8h.html" target="_top" xlink:title="Utility classes and functions to implement the Composite design pattern. ">
<polygon fill="white" stroke="black" points="450,-134.5 450,-153.5 571,-153.5 571,-134.5 450,-134.5"/>
<text text-anchor="middle" x="510.5" y="-141.5" font-family="Helvetica,sans-Serif" font-size="10.00">ocra/optim/Composite.h</text>
</a>
</g>
</g>
<!-- Node17&#45;&gt;Node18 -->
<g id="edge21" class="edge"><title>Node17&#45;&gt;Node18</title>
<path fill="none" stroke="midnightblue" d="M510.5,-190.083C510.5,-183.006 510.5,-172.861 510.5,-163.986"/>
<polygon fill="midnightblue" stroke="midnightblue" points="514,-163.751 510.5,-153.751 507,-163.751 514,-163.751"/>
</g>
<!-- Node21 -->
<g id="node21" class="node"><title>Node21</title>
<polygon fill="white" stroke="#bfbfbf" points="0,-73 0,-92 117,-92 117,-73 0,-73"/>
<text text-anchor="middle" x="58.5" y="-80" font-family="Helvetica,sans-Serif" font-size="10.00">boost/noncopyable.hpp</text>
</g>
<!-- Node17&#45;&gt;Node21 -->
<g id="edge34" class="edge"><title>Node17&#45;&gt;Node21</title>
<path fill="none" stroke="midnightblue" d="M455.59,-191.557C414.579,-184.835 357.705,-173.024 310.5,-154 294.593,-147.59 293.39,-140.453 277.5,-134 261.951,-127.686 168.387,-107.049 108.693,-94.1938"/>
<polygon fill="midnightblue" stroke="midnightblue" points="109.207,-90.7243 98.6947,-92.045 107.736,-97.5681 109.207,-90.7243"/>
</g>
<!-- Node23 -->
<g id="node23" class="node"><title>Node23</title>
<polygon fill="white" stroke="#bfbfbf" points="135.5,-73 135.5,-92 179.5,-92 179.5,-73 135.5,-73"/>
<text text-anchor="middle" x="157.5" y="-80" font-family="Helvetica,sans-Serif" font-size="10.00">vector</text>
</g>
<!-- Node17&#45;&gt;Node23 -->
<g id="edge36" class="edge"><title>Node17&#45;&gt;Node23</title>
<path fill="none" stroke="midnightblue" d="M474.758,-190.455C442.599,-182.367 394.276,-169.22 353.5,-154 333.754,-146.629 330.218,-141.448 310.5,-134 257.613,-114.024 241.365,-118.033 188.5,-98 187.076,-97.4605 185.627,-96.8837 184.171,-96.2825"/>
<polygon fill="midnightblue" stroke="midnightblue" points="185.244,-92.9301 174.682,-92.0972 182.419,-99.3349 185.244,-92.9301"/>
</g>
<!-- Node26 -->
<g id="node26" class="node"><title>Node26</title>
<polygon fill="white" stroke="#bfbfbf" points="363,-134.5 363,-153.5 432,-153.5 432,-134.5 363,-134.5"/>
<text text-anchor="middle" x="397.5" y="-141.5" font-family="Helvetica,sans-Serif" font-size="10.00">Eigen/Eigen</text>
</g>
<!-- Node17&#45;&gt;Node26 -->
<g id="edge33" class="edge"><title>Node17&#45;&gt;Node26</title>
<path fill="none" stroke="midnightblue" d="M492.595,-190.444C474.246,-181.675 445.495,-167.935 424.406,-157.858"/>
<polygon fill="midnightblue" stroke="midnightblue" points="425.853,-154.67 415.321,-153.516 422.835,-160.986 425.853,-154.67"/>
</g>
<!-- Node17&#45;&gt;Node27 -->
<g id="edge35" class="edge"><title>Node17&#45;&gt;Node27</title>
<path fill="none" stroke="midnightblue" d="M532.525,-190.444C556.011,-181.319 593.353,-166.813 619.512,-156.65"/>
<polygon fill="midnightblue" stroke="midnightblue" points="620.884,-159.872 628.937,-152.988 618.349,-153.347 620.884,-159.872"/>
</g>
<!-- Node18&#45;&gt;Node9 -->
<g id="edge30" class="edge"><title>Node18&#45;&gt;Node9</title>
<path fill="none" stroke="midnightblue" d="M510.027,-134.399C509.472,-120.136 509.304,-90.8014 515.5,-67 518.513,-55.4263 524.185,-43.2961 529.258,-33.8257"/>
<polygon fill="midnightblue" stroke="midnightblue" points="532.34,-35.4858 534.192,-25.0541 526.239,-32.0539 532.34,-35.4858"/>
</g>
<!-- Node18&#45;&gt;Node12 -->
<g id="edge26" class="edge"><title>Node18&#45;&gt;Node12</title>
<path fill="none" stroke="midnightblue" d="M512.55,-134.429C516.698,-118.862 527.529,-85.818 548.5,-67 569.776,-47.9079 598.92,-35.8184 624.772,-28.2752"/>
<polygon fill="midnightblue" stroke="midnightblue" points="625.782,-31.6276 634.496,-25.6016 623.926,-24.878 625.782,-31.6276"/>
</g>
<!-- Node18&#45;&gt;Node13 -->
<g id="edge25" class="edge"><title>Node18&#45;&gt;Node13</title>
<path fill="none" stroke="midnightblue" d="M571.081,-135.054C608.348,-128.544 656.309,-117.179 695.5,-98 715.388,-88.2672 716.519,-79.9209 734.5,-67 752.679,-53.9369 774.068,-40.1976 789.846,-30.3534"/>
<polygon fill="midnightblue" stroke="midnightblue" points="791.762,-33.2833 798.42,-25.0419 788.076,-27.3325 791.762,-33.2833"/>
</g>
<!-- Node18&#45;&gt;Node16 -->
<g id="edge27" class="edge"><title>Node18&#45;&gt;Node16</title>
<path fill="none" stroke="midnightblue" d="M553.357,-134.459C597.545,-125.591 668.416,-111.194 729.5,-98 730.753,-97.7294 732.019,-97.4546 733.295,-97.1764"/>
<polygon fill="midnightblue" stroke="midnightblue" points="734.199,-100.561 743.213,-94.9937 732.694,-93.7251 734.199,-100.561"/>
</g>
<!-- Node19 -->
<g id="node19" class="node"><title>Node19</title>
<g id="a_node19"><a xlink:href="../../de/df3/ocra__assert_8h.html" target="_top" xlink:title="ocra/optim/ocra_assert.h">
<polygon fill="white" stroke="black" points="338,-73 338,-92 463,-92 463,-73 338,-73"/>
<text text-anchor="middle" x="400.5" y="-80" font-family="Helvetica,sans-Serif" font-size="10.00">ocra/optim/ocra_assert.h</text>
</a>
</g>
</g>
<!-- Node18&#45;&gt;Node19 -->
<g id="edge22" class="edge"><title>Node18&#45;&gt;Node19</title>
<path fill="none" stroke="midnightblue" d="M494.74,-134.475C476.524,-124.622 446.327,-108.288 425.032,-96.7697"/>
<polygon fill="midnightblue" stroke="midnightblue" points="426.692,-93.6883 416.231,-92.0091 423.362,-99.8453 426.692,-93.6883"/>
</g>
<!-- Node18&#45;&gt;Node21 -->
<g id="edge24" class="edge"><title>Node18&#45;&gt;Node21</title>
<path fill="none" stroke="midnightblue" d="M449.8,-135.144C446.655,-134.753 443.541,-134.37 440.5,-134 301.057,-117.043 265.128,-120.673 126.5,-98 119.697,-96.8873 112.545,-95.5494 105.538,-94.1422"/>
<polygon fill="midnightblue" stroke="midnightblue" points="105.937,-90.6505 95.4345,-92.0491 104.517,-97.505 105.937,-90.6505"/>
</g>
<!-- Node22 -->
<g id="node22" class="node"><title>Node22</title>
<polygon fill="white" stroke="#bfbfbf" points="558,-67.5 558,-97.5 687,-97.5 687,-67.5 558,-67.5"/>
<text text-anchor="start" x="566" y="-85.5" font-family="Helvetica,sans-Serif" font-size="10.00">boost/type_traits/has</text>
<text text-anchor="middle" x="622.5" y="-74.5" font-family="Helvetica,sans-Serif" font-size="10.00">_nothrow_constructor.hpp</text>
</g>
<!-- Node18&#45;&gt;Node22 -->
<g id="edge28" class="edge"><title>Node18&#45;&gt;Node22</title>
<path fill="none" stroke="midnightblue" d="M526.547,-134.475C542.283,-126.115 566.801,-113.09 587.114,-102.299"/>
<polygon fill="midnightblue" stroke="midnightblue" points="588.915,-105.305 596.104,-97.523 585.631,-99.1237 588.915,-105.305"/>
</g>
<!-- Node18&#45;&gt;Node23 -->
<g id="edge29" class="edge"><title>Node18&#45;&gt;Node23</title>
<path fill="none" stroke="midnightblue" d="M449.903,-135.005C360.103,-123.088 200.88,-101.67 188.5,-98 186.62,-97.4427 184.71,-96.7882 182.808,-96.0707"/>
<polygon fill="midnightblue" stroke="midnightblue" points="184.123,-92.8267 173.552,-92.1179 181.374,-99.2642 184.123,-92.8267"/>
</g>
<!-- Node24 -->
<g id="node24" class="node"><title>Node24</title>
<polygon fill="white" stroke="#bfbfbf" points="198,-73 198,-92 243,-92 243,-73 198,-73"/>
<text text-anchor="middle" x="220.5" y="-80" font-family="Helvetica,sans-Serif" font-size="10.00">iosfwd</text>
</g>
<!-- Node18&#45;&gt;Node24 -->
<g id="edge31" class="edge"><title>Node18&#45;&gt;Node24</title>
<path fill="none" stroke="midnightblue" d="M450.664,-134.483C386.105,-124.96 287.689,-109.384 251.5,-98 249.63,-97.4116 247.726,-96.734 245.83,-95.9999"/>
<polygon fill="midnightblue" stroke="midnightblue" points="247.153,-92.7593 236.585,-92.0107 244.38,-99.1864 247.153,-92.7593"/>
</g>
<!-- Node25 -->
<g id="node25" class="node"><title>Node25</title>
<polygon fill="white" stroke="#bfbfbf" points="261,-73 261,-92 320,-92 320,-73 261,-73"/>
<text text-anchor="middle" x="290.5" y="-80" font-family="Helvetica,sans-Serif" font-size="10.00">stdexcept</text>
</g>
<!-- Node18&#45;&gt;Node25 -->
<g id="edge32" class="edge"><title>Node18&#45;&gt;Node25</title>
<path fill="none" stroke="midnightblue" d="M469.988,-134.474C432.845,-126.306 376.49,-113.027 328.5,-98 326.083,-97.243 323.596,-96.4134 321.108,-95.5465"/>
<polygon fill="midnightblue" stroke="midnightblue" points="322.237,-92.2327 311.643,-92.092 319.837,-98.8084 322.237,-92.2327"/>
</g>
<!-- Node20 -->
<g id="node20" class="node"><title>Node20</title>
<polygon fill="white" stroke="#bfbfbf" points="379,-6 379,-25 422,-25 422,-6 379,-6"/>
<text text-anchor="middle" x="400.5" y="-13" font-family="Helvetica,sans-Serif" font-size="10.00">cstdio</text>
</g>
<!-- Node19&#45;&gt;Node20 -->
<g id="edge23" class="edge"><title>Node19&#45;&gt;Node20</title>
<path fill="none" stroke="midnightblue" d="M400.5,-72.7338C400.5,-63.1826 400.5,-47.6183 400.5,-35.2829"/>
<polygon fill="midnightblue" stroke="midnightblue" points="404,-35.1273 400.5,-25.1273 397,-35.1273 404,-35.1273"/>
</g>
<!-- Node28&#45;&gt;Node27 -->
<g id="edge38" class="edge"><title>Node28&#45;&gt;Node27</title>
<path fill="none" stroke="midnightblue" d="M733.433,-190.324C717.542,-181.743 692.993,-168.486 674.542,-158.522"/>
<polygon fill="midnightblue" stroke="midnightblue" points="675.989,-155.326 665.527,-153.655 672.663,-161.486 675.989,-155.326"/>
</g>
<!-- Node29&#45;&gt;Node6 -->
<g id="edge40" class="edge"><title>Node29&#45;&gt;Node6</title>
<path fill="none" stroke="midnightblue" d="M936.04,-190.324C922,-181.9 900.452,-168.971 883.957,-159.074"/>
<polygon fill="midnightblue" stroke="midnightblue" points="885.3,-155.798 874.924,-153.655 881.698,-161.801 885.3,-155.798"/>
</g>
<!-- Node30 -->
<g id="node30" class="node"><title>Node30</title>
<polygon fill="white" stroke="#bfbfbf" points="952,-134.5 952,-153.5 1017,-153.5 1017,-134.5 952,-134.5"/>
<text text-anchor="middle" x="984.5" y="-141.5" font-family="Helvetica,sans-Serif" font-size="10.00">Eigen/Core</text>
</g>
<!-- Node29&#45;&gt;Node30 -->
<g id="edge41" class="edge"><title>Node29&#45;&gt;Node30</title>
<path fill="none" stroke="midnightblue" d="M956.114,-190.083C960.867,-182.534 967.818,-171.495 973.652,-162.23"/>
<polygon fill="midnightblue" stroke="midnightblue" points="976.624,-164.078 978.99,-153.751 970.7,-160.349 976.624,-164.078"/>
</g>
<!-- Node31 -->
<g id="node31" class="node"><title>Node31</title>
<polygon fill="white" stroke="#bfbfbf" points="1035.5,-134.5 1035.5,-153.5 1143.5,-153.5 1143.5,-134.5 1035.5,-134.5"/>
<text text-anchor="middle" x="1089.5" y="-141.5" font-family="Helvetica,sans-Serif" font-size="10.00">boost/shared_ptr.hpp</text>
</g>
<!-- Node29&#45;&gt;Node31 -->
<g id="edge42" class="edge"><title>Node29&#45;&gt;Node31</title>
<path fill="none" stroke="midnightblue" d="M972.525,-190.444C995.604,-181.478 1032.06,-167.314 1058.14,-157.183"/>
<polygon fill="midnightblue" stroke="midnightblue" points="1059.52,-160.4 1067.58,-153.516 1056.99,-153.875 1059.52,-160.4"/>
</g>
<!-- Node33 -->
<g id="node33" class="node"><title>Node33</title>
<polygon fill="white" stroke="#bfbfbf" points="1161.5,-134.5 1161.5,-153.5 1213.5,-153.5 1213.5,-134.5 1161.5,-134.5"/>
<text text-anchor="middle" x="1187.5" y="-141.5" font-family="Helvetica,sans-Serif" font-size="10.00">memory</text>
</g>
<!-- Node32&#45;&gt;Node33 -->
<g id="edge44" class="edge"><title>Node32&#45;&gt;Node33</title>
<path fill="none" stroke="midnightblue" d="M1104.41,-190.324C1120.14,-181.743 1144.44,-168.486 1162.71,-158.522"/>
<polygon fill="midnightblue" stroke="midnightblue" points="1164.53,-161.516 1171.63,-153.655 1161.18,-155.37 1164.53,-161.516"/>
</g>
</g>
</svg>
