<?xml version="1.0" encoding="UTF-8" standalone="no"?>
<!DOCTYPE svg PUBLIC "-//W3C//DTD SVG 1.1//EN"
 "http://www.w3.org/Graphics/SVG/1.1/DTD/svg11.dtd">
<!-- Generated by graphviz version 2.38.0 (20140413.2041)
 -->
<!-- Title: ocra::FullTargetState::Pimpl Pages: 1 -->
<svg width="140pt" height="139pt"
 viewBox="0.00 0.00 139.50 139.00" xmlns="http://www.w3.org/2000/svg" xmlns:xlink="http://www.w3.org/1999/xlink">
<g id="graph0" class="graph" transform="scale(1 1) rotate(0) translate(4 135)">
<title>ocra::FullTargetState::Pimpl</title>
<polygon fill="white" stroke="none" points="-4,4 -4,-135 135.5,-135 135.5,4 -4,4"/>
<!-- Node1 -->
<g id="node1" class="node"><title>Node1</title>
<polygon fill="#bfbfbf" stroke="black" points="11.5,-0.5 11.5,-30.5 119.5,-30.5 119.5,-0.5 11.5,-0.5"/>
<text text-anchor="start" x="19.5" y="-18.5" font-family="Helvetica,sans-Serif" font-size="10.00">ocra::FullTargetState</text>
<text text-anchor="middle" x="65.5" y="-7.5" font-family="Helvetica,sans-Serif" font-size="10.00">::Pimpl</text>
</g>
<!-- Node2 -->
<g id="node2" class="node"><title>Node2</title>
<polygon fill="white" stroke="#bfbfbf" points="0,-111.5 0,-130.5 57,-130.5 57,-111.5 0,-111.5"/>
<text text-anchor="middle" x="28.5" y="-118.5" font-family="Helvetica,sans-Serif" font-size="10.00">VectorXd</text>
</g>
<!-- Node2&#45;&gt;Node1 -->
<g id="edge1" class="edge"><title>Node2&#45;&gt;Node1</title>
<path fill="none" stroke="#9a32cd" stroke-dasharray="5,2" d="M35.0926,-101.559C42.3258,-81.3251 53.7821,-49.2785 60.3735,-30.8403"/>
<polygon fill="#9a32cd" stroke="#9a32cd" points="31.7252,-100.581 31.6546,-111.176 38.3166,-102.937 31.7252,-100.581"/>
<text text-anchor="middle" x="67" y="-85" font-family="Helvetica,sans-Serif" font-size="10.00"> tau</text>
<text text-anchor="middle" x="67" y="-74" font-family="Helvetica,sans-Serif" font-size="10.00">qdot</text>
<text text-anchor="middle" x="67" y="-63" font-family="Helvetica,sans-Serif" font-size="10.00">q</text>
<text text-anchor="middle" x="67" y="-52" font-family="Helvetica,sans-Serif" font-size="10.00">qddot</text>
</g>
<!-- Node3 -->
<g id="node3" class="node"><title>Node3</title>
<polygon fill="white" stroke="#bfbfbf" points="75.5,-111.5 75.5,-130.5 131.5,-130.5 131.5,-111.5 75.5,-111.5"/>
<text text-anchor="middle" x="103.5" y="-118.5" font-family="Helvetica,sans-Serif" font-size="10.00">MatrixXd</text>
</g>
<!-- Node3&#45;&gt;Node1 -->
<g id="edge2" class="edge"><title>Node3&#45;&gt;Node1</title>
<path fill="none" stroke="#9a32cd" stroke-dasharray="5,2" d="M98.5856,-101.345C94.5639,-86.8619 88.4242,-66.3877 81.5,-49 79.0336,-42.8066 75.8666,-36.1701 73.0019,-30.5192"/>
<polygon fill="#9a32cd" stroke="#9a32cd" points="95.2353,-102.363 101.226,-111.102 101.992,-100.535 95.2353,-102.363"/>
<text text-anchor="middle" x="102.5" y="-68.5" font-family="Helvetica,sans-Serif" font-size="10.00"> M</text>
</g>
</g>
</svg>
