<?xml version="1.0" encoding="UTF-8" standalone="no"?>
<!DOCTYPE svg PUBLIC "-//W3C//DTD SVG 1.1//EN"
 "http://www.w3.org/Graphics/SVG/1.1/DTD/svg11.dtd">
<!-- Generated by graphviz version 2.38.0 (20140413.2041)
 -->
<!-- Title: Objective.h Pages: 1 -->
<svg width="1536pt" height="464pt"
 viewBox="0.00 0.00 1535.50 464.00" xmlns="http://www.w3.org/2000/svg" xmlns:xlink="http://www.w3.org/1999/xlink">
<g id="graph0" class="graph" transform="scale(1 1) rotate(0) translate(4 460)">
<title>Objective.h</title>
<polygon fill="white" stroke="none" points="-4,4 -4,-460 1531.5,-460 1531.5,4 -4,4"/>
<!-- Node1 -->
<g id="node1" class="node"><title>Node1</title>
<polygon fill="#bfbfbf" stroke="black" points="710,-436.5 710,-455.5 776,-455.5 776,-436.5 710,-436.5"/>
<text text-anchor="middle" x="743" y="-443.5" font-family="Helvetica,sans-Serif" font-size="10.00">Objective.h</text>
</g>
<!-- Node2 -->
<g id="node2" class="node"><title>Node2</title>
<g id="a_node2"><a xlink:href="../../d7/d90/Variable_8h.html" target="_top" xlink:title="Declaration file of the Variable class. ">
<polygon fill="white" stroke="black" points="512.5,-196 512.5,-215 621.5,-215 621.5,-196 512.5,-196"/>
<text text-anchor="middle" x="567" y="-203" font-family="Helvetica,sans-Serif" font-size="10.00">ocra/optim/Variable.h</text>
</a>
</g>
</g>
<!-- Node1&#45;&gt;Node2 -->
<g id="edge1" class="edge"><title>Node1&#45;&gt;Node2</title>
<path fill="none" stroke="midnightblue" d="M735.455,-436.174C727.852,-427.199 715.865,-412.828 706,-400 656.909,-336.161 602.09,-257.504 578.65,-223.492"/>
<polygon fill="midnightblue" stroke="midnightblue" points="581.452,-221.389 572.902,-215.133 575.684,-225.356 581.452,-221.389"/>
</g>
<!-- Node9 -->
<g id="node9" class="node"><title>Node9</title>
<polygon fill="white" stroke="#bfbfbf" points="366,-0.5 366,-30.5 466,-30.5 466,-0.5 366,-0.5"/>
<text text-anchor="start" x="374" y="-18.5" font-family="Helvetica,sans-Serif" font-size="10.00">boost/type_traits/is</text>
<text text-anchor="middle" x="416" y="-7.5" font-family="Helvetica,sans-Serif" font-size="10.00">_base_of.hpp</text>
</g>
<!-- Node1&#45;&gt;Node9 -->
<g id="edge55" class="edge"><title>Node1&#45;&gt;Node9</title>
<path fill="none" stroke="midnightblue" d="M709.942,-442.875C570.561,-433.483 38,-393.078 38,-324 38,-324 38,-324 38,-143 38,-108.183 31.1198,-90.2908 57,-67 59.7633,-64.5132 254.141,-38.1704 355.683,-24.5537"/>
<polygon fill="midnightblue" stroke="midnightblue" points="356.358,-27.9946 365.804,-23.1973 355.428,-21.0566 356.358,-27.9946"/>
</g>
<!-- Node10 -->
<g id="node10" class="node"><title>Node10</title>
<polygon fill="white" stroke="#bfbfbf" points="177.5,-6 177.5,-25 296.5,-25 296.5,-6 177.5,-6"/>
<text text-anchor="middle" x="237" y="-13" font-family="Helvetica,sans-Serif" font-size="10.00">boost/static_assert.hpp</text>
</g>
<!-- Node1&#45;&gt;Node10 -->
<g id="edge54" class="edge"><title>Node1&#45;&gt;Node10</title>
<path fill="none" stroke="midnightblue" d="M709.996,-444.69C597.942,-443.313 232.88,-436.097 122,-400 61.2553,-380.224 0,-387.883 0,-324 0,-324 0,-324 0,-143 0,-105.812 6.36905,-90.7315 35,-67 71.9736,-36.3535 124.972,-23.9149 167.406,-19.0395"/>
<polygon fill="midnightblue" stroke="midnightblue" points="167.807,-22.5168 177.394,-18.0073 167.087,-15.5539 167.807,-22.5168"/>
</g>
<!-- Node24 -->
<g id="node24" class="node"><title>Node24</title>
<g id="a_node24"><a xlink:href="../../df/df5/Function_8h.html" target="_top" xlink:title="Declaration file of the Function class. ">
<polygon fill="white" stroke="black" points="835.5,-257.5 835.5,-276.5 946.5,-276.5 946.5,-257.5 835.5,-257.5"/>
<text text-anchor="middle" x="891" y="-264.5" font-family="Helvetica,sans-Serif" font-size="10.00">ocra/optim/Function.h</text>
</a>
</g>
</g>
<!-- Node1&#45;&gt;Node24 -->
<g id="edge32" class="edge"><title>Node1&#45;&gt;Node24</title>
<path fill="none" stroke="midnightblue" d="M734.677,-436.263C721.96,-421.805 700.425,-392.195 713,-369 739.708,-319.737 801.067,-292.839 844.245,-279.447"/>
<polygon fill="midnightblue" stroke="midnightblue" points="845.388,-282.758 853.979,-276.559 843.397,-276.048 845.388,-282.758"/>
</g>
<!-- Node34 -->
<g id="node34" class="node"><title>Node34</title>
<g id="a_node34"><a xlink:href="../../df/d55/FunctionInterfaceMapping_8h.html" target="_top" xlink:title="Declaration file of the FunctionInterfaceMapping struct. ">
<polygon fill="white" stroke="black" points="722.5,-369.5 722.5,-399.5 863.5,-399.5 863.5,-369.5 722.5,-369.5"/>
<text text-anchor="start" x="730.5" y="-387.5" font-family="Helvetica,sans-Serif" font-size="10.00">ocra/optim/FunctionInterface</text>
<text text-anchor="middle" x="793" y="-376.5" font-family="Helvetica,sans-Serif" font-size="10.00">Mapping.h</text>
</a>
</g>
</g>
<!-- Node1&#45;&gt;Node34 -->
<g id="edge52" class="edge"><title>Node1&#45;&gt;Node34</title>
<path fill="none" stroke="midnightblue" d="M750.164,-436.475C756.556,-428.869 766.194,-417.399 774.71,-407.265"/>
<polygon fill="midnightblue" stroke="midnightblue" points="777.462,-409.43 781.216,-399.523 772.103,-404.927 777.462,-409.43"/>
</g>
<!-- Node35 -->
<g id="node35" class="node"><title>Node35</title>
<g id="a_node35"><a xlink:href="../../d1/d0e/SquaredLinearFunction_8h.html" target="_top" xlink:title="Declaration file of the SquaredLinearFunction class. ">
<polygon fill="white" stroke="black" points="930,-369.5 930,-399.5 1058,-399.5 1058,-369.5 930,-369.5"/>
<text text-anchor="start" x="938" y="-387.5" font-family="Helvetica,sans-Serif" font-size="10.00">ocra/optim/SquaredLinear</text>
<text text-anchor="middle" x="994" y="-376.5" font-family="Helvetica,sans-Serif" font-size="10.00">Function.h</text>
</a>
</g>
</g>
<!-- Node1&#45;&gt;Node35 -->
<g id="edge56" class="edge"><title>Node1&#45;&gt;Node35</title>
<path fill="none" stroke="midnightblue" d="M776.072,-437.16C813.808,-428.215 876.56,-413.339 925.061,-401.842"/>
<polygon fill="midnightblue" stroke="midnightblue" points="925.947,-405.229 934.87,-399.517 924.332,-398.418 925.947,-405.229"/>
</g>
<!-- Node36 -->
<g id="node36" class="node"><title>Node36</title>
<g id="a_node36"><a xlink:href="../../dc/d8a/LinearFunction_8h.html" target="_top" xlink:title="Declaration file of the LinearFunction class. ">
<polygon fill="white" stroke="black" points="822.5,-313.5 822.5,-332.5 959.5,-332.5 959.5,-313.5 822.5,-313.5"/>
<text text-anchor="middle" x="891" y="-320.5" font-family="Helvetica,sans-Serif" font-size="10.00">ocra/optim/LinearFunction.h</text>
</a>
</g>
</g>
<!-- Node1&#45;&gt;Node36 -->
<g id="edge66" class="edge"><title>Node1&#45;&gt;Node36</title>
<path fill="none" stroke="midnightblue" d="M776.102,-442.149C805.418,-437.849 847.288,-427.061 872,-400 886.158,-384.496 890.15,-360.054 891.088,-343.092"/>
<polygon fill="midnightblue" stroke="midnightblue" points="894.596,-342.826 891.337,-332.745 887.598,-342.658 894.596,-342.826"/>
</g>
<!-- Node39 -->
<g id="node39" class="node"><title>Node39</title>
<g id="a_node39"><a xlink:href="../../d4/d83/QuadraticFunction_8h.html" target="_top" xlink:title="Declaration file of the QuadraticFunction class. ">
<polygon fill="white" stroke="black" points="1048.5,-313.5 1048.5,-332.5 1201.5,-332.5 1201.5,-313.5 1048.5,-313.5"/>
<text text-anchor="middle" x="1125" y="-320.5" font-family="Helvetica,sans-Serif" font-size="10.00">ocra/optim/QuadraticFunction.h</text>
</a>
</g>
</g>
<!-- Node1&#45;&gt;Node39 -->
<g id="edge67" class="edge"><title>Node1&#45;&gt;Node39</title>
<path fill="none" stroke="midnightblue" d="M776.231,-443.566C848.64,-439.936 1018.08,-428.562 1067,-400 1090.11,-386.505 1107.12,-359.858 1116.54,-341.981"/>
<polygon fill="midnightblue" stroke="midnightblue" points="1119.76,-343.372 1121.1,-332.862 1113.5,-340.245 1119.76,-343.372"/>
</g>
<!-- Node3 -->
<g id="node3" class="node"><title>Node3</title>
<g id="a_node3"><a xlink:href="../../d8/ddc/ObserverSubject_8h.html" target="_top" xlink:title="Declaration file of the Observer, Subject and ObserverSubject classes. ">
<polygon fill="white" stroke="black" points="620,-134.5 620,-153.5 766,-153.5 766,-134.5 620,-134.5"/>
<text text-anchor="middle" x="693" y="-141.5" font-family="Helvetica,sans-Serif" font-size="10.00">ocra/optim/ObserverSubject.h</text>
</a>
</g>
</g>
<!-- Node2&#45;&gt;Node3 -->
<g id="edge2" class="edge"><title>Node2&#45;&gt;Node3</title>
<path fill="none" stroke="midnightblue" d="M585.053,-195.975C606.198,-185.99 641.44,-169.348 665.878,-157.807"/>
<polygon fill="midnightblue" stroke="midnightblue" points="667.433,-160.944 674.981,-153.509 664.444,-154.614 667.433,-160.944"/>
</g>
<!-- Node14 -->
<g id="node14" class="node"><title>Node14</title>
<g id="a_node14"><a xlink:href="../../d1/de6/Composite_8h.html" target="_top" xlink:title="Utility classes and functions to implement the Composite design pattern. ">
<polygon fill="white" stroke="black" points="393.5,-134.5 393.5,-153.5 514.5,-153.5 514.5,-134.5 393.5,-134.5"/>
<text text-anchor="middle" x="454" y="-141.5" font-family="Helvetica,sans-Serif" font-size="10.00">ocra/optim/Composite.h</text>
</a>
</g>
</g>
<!-- Node2&#45;&gt;Node14 -->
<g id="edge16" class="edge"><title>Node2&#45;&gt;Node14</title>
<path fill="none" stroke="midnightblue" d="M550.81,-195.975C532.098,-186.122 501.077,-169.788 479.201,-158.27"/>
<polygon fill="midnightblue" stroke="midnightblue" points="480.639,-155.071 470.16,-153.509 477.378,-161.265 480.639,-155.071"/>
</g>
<!-- Node17 -->
<g id="node17" class="node"><title>Node17</title>
<polygon fill="white" stroke="#bfbfbf" points="66.5,-73 66.5,-92 183.5,-92 183.5,-73 66.5,-73"/>
<text text-anchor="middle" x="125" y="-80" font-family="Helvetica,sans-Serif" font-size="10.00">boost/noncopyable.hpp</text>
</g>
<!-- Node2&#45;&gt;Node17 -->
<g id="edge29" class="edge"><title>Node2&#45;&gt;Node17</title>
<path fill="none" stroke="midnightblue" d="M535.919,-195.992C457.95,-174.647 254.034,-118.824 166.212,-94.7821"/>
<polygon fill="midnightblue" stroke="midnightblue" points="166.911,-91.3446 156.341,-92.0799 165.062,-98.0962 166.911,-91.3446"/>
</g>
<!-- Node19 -->
<g id="node19" class="node"><title>Node19</title>
<polygon fill="white" stroke="#bfbfbf" points="1139,-73 1139,-92 1183,-92 1183,-73 1139,-73"/>
<text text-anchor="middle" x="1161" y="-80" font-family="Helvetica,sans-Serif" font-size="10.00">vector</text>
</g>
<!-- Node2&#45;&gt;Node19 -->
<g id="edge31" class="edge"><title>Node2&#45;&gt;Node19</title>
<path fill="none" stroke="midnightblue" d="M602.693,-195.908C662.074,-181.795 785.009,-153.344 890,-134 995.642,-114.536 1025.99,-128.457 1129,-98 1130.93,-97.4293 1132.89,-96.7648 1134.85,-96.0402"/>
<polygon fill="midnightblue" stroke="midnightblue" points="1136.5,-99.1434 1144.39,-92.0716 1133.82,-92.6801 1136.5,-99.1434"/>
</g>
<!-- Node22 -->
<g id="node22" class="node"><title>Node22</title>
<polygon fill="white" stroke="#bfbfbf" points="532.5,-134.5 532.5,-153.5 601.5,-153.5 601.5,-134.5 532.5,-134.5"/>
<text text-anchor="middle" x="567" y="-141.5" font-family="Helvetica,sans-Serif" font-size="10.00">Eigen/Eigen</text>
</g>
<!-- Node2&#45;&gt;Node22 -->
<g id="edge28" class="edge"><title>Node2&#45;&gt;Node22</title>
<path fill="none" stroke="midnightblue" d="M567,-195.975C567,-187.58 567,-174.481 567,-163.663"/>
<polygon fill="midnightblue" stroke="midnightblue" points="570.5,-163.509 567,-153.509 563.5,-163.509 570.5,-163.509"/>
</g>
<!-- Node23 -->
<g id="node23" class="node"><title>Node23</title>
<polygon fill="white" stroke="#bfbfbf" points="899.5,-134.5 899.5,-153.5 940.5,-153.5 940.5,-134.5 899.5,-134.5"/>
<text text-anchor="middle" x="920" y="-141.5" font-family="Helvetica,sans-Serif" font-size="10.00">string</text>
</g>
<!-- Node2&#45;&gt;Node23 -->
<g id="edge30" class="edge"><title>Node2&#45;&gt;Node23</title>
<path fill="none" stroke="midnightblue" d="M617.576,-195.975C691.851,-183.456 828.205,-160.473 889.15,-150.2"/>
<polygon fill="midnightblue" stroke="midnightblue" points="890.004,-153.605 899.283,-148.492 888.84,-146.703 890.004,-153.605"/>
</g>
<!-- Node4 -->
<g id="node4" class="node"><title>Node4</title>
<g id="a_node4"><a xlink:href="../../df/d67/ObserverSubjectBase_8h.html" target="_top" xlink:title="Declaration file of the Observer and Subject base classes. ">
<polygon fill="white" stroke="black" points="721,-67.5 721,-97.5 859,-97.5 859,-67.5 721,-67.5"/>
<text text-anchor="start" x="729" y="-85.5" font-family="Helvetica,sans-Serif" font-size="10.00">ocra/optim/ObserverSubject</text>
<text text-anchor="middle" x="790" y="-74.5" font-family="Helvetica,sans-Serif" font-size="10.00">Base.h</text>
</a>
</g>
</g>
<!-- Node3&#45;&gt;Node4 -->
<g id="edge3" class="edge"><title>Node3&#45;&gt;Node4</title>
<path fill="none" stroke="midnightblue" d="M706.898,-134.475C720.281,-126.266 740.998,-113.558 758.398,-102.885"/>
<polygon fill="midnightblue" stroke="midnightblue" points="760.445,-105.735 767.139,-97.523 756.785,-99.7683 760.445,-105.735"/>
</g>
<!-- Node8 -->
<g id="node8" class="node"><title>Node8</title>
<polygon fill="white" stroke="#bfbfbf" points="915,-0.5 915,-30.5 1015,-30.5 1015,-0.5 915,-0.5"/>
<text text-anchor="start" x="923" y="-18.5" font-family="Helvetica,sans-Serif" font-size="10.00">boost/type_traits/is</text>
<text text-anchor="middle" x="965" y="-7.5" font-family="Helvetica,sans-Serif" font-size="10.00">_class.hpp</text>
</g>
<!-- Node3&#45;&gt;Node8 -->
<g id="edge15" class="edge"><title>Node3&#45;&gt;Node8</title>
<path fill="none" stroke="midnightblue" d="M766.119,-138.673C831.106,-133.312 919.636,-121.792 945,-98 960.472,-83.4869 964.814,-59.1178 965.682,-40.7992"/>
<polygon fill="midnightblue" stroke="midnightblue" points="969.185,-40.6303 965.845,-30.5756 962.185,-40.5182 969.185,-40.6303"/>
</g>
<!-- Node3&#45;&gt;Node9 -->
<g id="edge13" class="edge"><title>Node3&#45;&gt;Node9</title>
<path fill="none" stroke="midnightblue" d="M692.959,-134.45C692.39,-118.618 688.78,-84.7355 669,-67 661.784,-60.5298 548.643,-39.7188 476.13,-26.9201"/>
<polygon fill="midnightblue" stroke="midnightblue" points="476.638,-23.4558 466.183,-25.1696 475.425,-30.3499 476.638,-23.4558"/>
</g>
<!-- Node3&#45;&gt;Node10 -->
<g id="edge12" class="edge"><title>Node3&#45;&gt;Node10</title>
<path fill="none" stroke="midnightblue" d="M689.227,-134.109C681.751,-117.708 663.377,-82.9155 636,-67 632.461,-64.9428 419.867,-38.7846 306.495,-24.9509"/>
<polygon fill="midnightblue" stroke="midnightblue" points="306.859,-21.4696 296.509,-23.733 306.012,-28.4181 306.859,-21.4696"/>
</g>
<!-- Node12 -->
<g id="node12" class="node"><title>Node12</title>
<g id="a_node12"><a xlink:href="../../db/ddf/ocra__events_8h.html" target="_top" xlink:title="ocra/optim/ocra_events.h">
<polygon fill="white" stroke="black" points="993.5,-73 993.5,-92 1120.5,-92 1120.5,-73 993.5,-73"/>
<text text-anchor="middle" x="1057" y="-80" font-family="Helvetica,sans-Serif" font-size="10.00">ocra/optim/ocra_events.h</text>
</a>
</g>
</g>
<!-- Node3&#45;&gt;Node12 -->
<g id="edge11" class="edge"><title>Node3&#45;&gt;Node12</title>
<path fill="none" stroke="midnightblue" d="M750.053,-134.499C807.834,-125.779 899.737,-111.601 979,-98 986.457,-96.7205 994.305,-95.3225 1002.03,-93.9158"/>
<polygon fill="midnightblue" stroke="midnightblue" points="1002.88,-97.3195 1012.08,-92.0707 1001.61,-90.4346 1002.88,-97.3195"/>
</g>
<!-- Node13 -->
<g id="node13" class="node"><title>Node13</title>
<polygon fill="white" stroke="#bfbfbf" points="527,-67.5 527,-97.5 627,-97.5 627,-67.5 527,-67.5"/>
<text text-anchor="start" x="535" y="-85.5" font-family="Helvetica,sans-Serif" font-size="10.00">boost/type_traits/is</text>
<text text-anchor="middle" x="577" y="-74.5" font-family="Helvetica,sans-Serif" font-size="10.00">_convertible.hpp</text>
</g>
<!-- Node3&#45;&gt;Node13 -->
<g id="edge14" class="edge"><title>Node3&#45;&gt;Node13</title>
<path fill="none" stroke="midnightblue" d="M676.38,-134.475C660.009,-126.078 634.459,-112.973 613.366,-102.153"/>
<polygon fill="midnightblue" stroke="midnightblue" points="614.834,-98.9727 604.339,-97.523 611.639,-105.201 614.834,-98.9727"/>
</g>
<!-- Node5 -->
<g id="node5" class="node"><title>Node5</title>
<polygon fill="white" stroke="#bfbfbf" points="623.5,-6 623.5,-25 682.5,-25 682.5,-6 623.5,-6"/>
<text text-anchor="middle" x="653" y="-13" font-family="Helvetica,sans-Serif" font-size="10.00">functional</text>
</g>
<!-- Node4&#45;&gt;Node5 -->
<g id="edge4" class="edge"><title>Node4&#45;&gt;Node5</title>
<path fill="none" stroke="midnightblue" d="M760.273,-67.396C736.448,-56.0919 703.291,-40.3607 680.169,-29.3903"/>
<polygon fill="midnightblue" stroke="midnightblue" points="681.465,-26.1314 670.93,-25.007 678.465,-32.4557 681.465,-26.1314"/>
</g>
<!-- Node6 -->
<g id="node6" class="node"><title>Node6</title>
<polygon fill="white" stroke="#bfbfbf" points="510,-6 510,-25 566,-25 566,-6 510,-6"/>
<text text-anchor="middle" x="538" y="-13" font-family="Helvetica,sans-Serif" font-size="10.00">algorithm</text>
</g>
<!-- Node4&#45;&gt;Node6 -->
<g id="edge5" class="edge"><title>Node4&#45;&gt;Node6</title>
<path fill="none" stroke="midnightblue" d="M735.63,-67.476C687.509,-55.0639 618.516,-37.2681 576.071,-26.3199"/>
<polygon fill="midnightblue" stroke="midnightblue" points="576.697,-22.8669 566.14,-23.7583 574.949,-29.6451 576.697,-22.8669"/>
</g>
<!-- Node7 -->
<g id="node7" class="node"><title>Node7</title>
<polygon fill="white" stroke="#bfbfbf" points="701,-6 701,-25 779,-25 779,-6 701,-6"/>
<text text-anchor="middle" x="740" y="-13" font-family="Helvetica,sans-Serif" font-size="10.00">boost/any.hpp</text>
</g>
<!-- Node4&#45;&gt;Node7 -->
<g id="edge6" class="edge"><title>Node4&#45;&gt;Node7</title>
<path fill="none" stroke="midnightblue" d="M779.151,-67.396C771.432,-57.3614 761.029,-43.8382 752.887,-33.2535"/>
<polygon fill="midnightblue" stroke="midnightblue" points="755.559,-30.9868 746.688,-25.1945 750.011,-35.2548 755.559,-30.9868"/>
</g>
<!-- Node4&#45;&gt;Node8 -->
<g id="edge7" class="edge"><title>Node4&#45;&gt;Node8</title>
<path fill="none" stroke="midnightblue" d="M827.972,-67.396C854.23,-57.6432 889.36,-44.5949 917.475,-34.152"/>
<polygon fill="midnightblue" stroke="midnightblue" points="918.946,-37.3394 927.102,-30.5765 916.509,-30.7774 918.946,-37.3394"/>
</g>
<!-- Node4&#45;&gt;Node9 -->
<g id="edge8" class="edge"><title>Node4&#45;&gt;Node9</title>
<path fill="none" stroke="midnightblue" d="M720.709,-69.389C716.07,-68.58 711.467,-67.7779 707,-67 627.133,-53.0936 534.923,-37.1024 476.079,-26.9058"/>
<polygon fill="midnightblue" stroke="midnightblue" points="476.661,-23.4546 466.21,-25.1958 475.466,-30.3518 476.661,-23.4546"/>
</g>
<!-- Node4&#45;&gt;Node10 -->
<g id="edge9" class="edge"><title>Node4&#45;&gt;Node10</title>
<path fill="none" stroke="midnightblue" d="M720.9,-73.1664C703.93,-71.1344 685.81,-68.977 669,-67 530.369,-50.6957 495.623,-47.3725 357,-31 340.691,-29.0738 323.139,-26.9702 306.629,-24.9777"/>
<polygon fill="midnightblue" stroke="midnightblue" points="306.851,-21.4792 296.503,-23.7541 306.011,-28.4287 306.851,-21.4792"/>
</g>
<!-- Node11 -->
<g id="node11" class="node"><title>Node11</title>
<polygon fill="white" stroke="#bfbfbf" points="797,-0.5 797,-30.5 897,-30.5 897,-0.5 797,-0.5"/>
<text text-anchor="start" x="805" y="-18.5" font-family="Helvetica,sans-Serif" font-size="10.00">boost/ptr_container</text>
<text text-anchor="middle" x="847" y="-7.5" font-family="Helvetica,sans-Serif" font-size="10.00">/ptr_vector.hpp</text>
</g>
<!-- Node4&#45;&gt;Node11 -->
<g id="edge10" class="edge"><title>Node4&#45;&gt;Node11</title>
<path fill="none" stroke="midnightblue" d="M802.368,-67.396C809.838,-58.8783 819.511,-47.8469 827.942,-38.2328"/>
<polygon fill="midnightblue" stroke="midnightblue" points="830.694,-40.4028 834.656,-30.5765 825.431,-35.7875 830.694,-40.4028"/>
</g>
<!-- Node14&#45;&gt;Node6 -->
<g id="edge25" class="edge"><title>Node14&#45;&gt;Node6</title>
<path fill="none" stroke="midnightblue" d="M459.774,-134.305C473.501,-113.633 508.296,-61.2323 526.501,-33.8176"/>
<polygon fill="midnightblue" stroke="midnightblue" points="529.57,-35.5225 532.186,-25.2557 523.738,-31.6502 529.57,-35.5225"/>
</g>
<!-- Node14&#45;&gt;Node9 -->
<g id="edge21" class="edge"><title>Node14&#45;&gt;Node9</title>
<path fill="none" stroke="midnightblue" d="M393.469,-136.336C345.607,-129.672 284.37,-117.557 269,-98 240.457,-61.6815 303.42,-39.116 355.637,-27.1818"/>
<polygon fill="midnightblue" stroke="midnightblue" points="356.552,-30.5644 365.571,-25.006 355.054,-23.7265 356.552,-30.5644"/>
</g>
<!-- Node14&#45;&gt;Node10 -->
<g id="edge20" class="edge"><title>Node14&#45;&gt;Node10</title>
<path fill="none" stroke="midnightblue" d="M393.145,-135.989C342.974,-128.987 277.072,-116.573 258,-98 241.183,-81.6226 237.203,-53.7033 236.571,-35.1786"/>
<polygon fill="midnightblue" stroke="midnightblue" points="240.07,-35.0298 236.525,-25.0457 233.07,-35.0613 240.07,-35.0298"/>
</g>
<!-- Node14&#45;&gt;Node13 -->
<g id="edge22" class="edge"><title>Node14&#45;&gt;Node13</title>
<path fill="none" stroke="midnightblue" d="M471.623,-134.475C489.06,-126.04 516.316,-112.855 538.74,-102.008"/>
<polygon fill="midnightblue" stroke="midnightblue" points="540.533,-105.028 548.011,-97.523 537.485,-98.727 540.533,-105.028"/>
</g>
<!-- Node15 -->
<g id="node15" class="node"><title>Node15</title>
<g id="a_node15"><a xlink:href="../../de/df3/ocra__assert_8h.html" target="_top" xlink:title="ocra/optim/ocra_assert.h">
<polygon fill="white" stroke="black" points="1402.5,-73 1402.5,-92 1527.5,-92 1527.5,-73 1402.5,-73"/>
<text text-anchor="middle" x="1465" y="-80" font-family="Helvetica,sans-Serif" font-size="10.00">ocra/optim/ocra_assert.h</text>
</a>
</g>
</g>
<!-- Node14&#45;&gt;Node15 -->
<g id="edge17" class="edge"><title>Node14&#45;&gt;Node15</title>
<path fill="none" stroke="midnightblue" d="M514.549,-134.795C517.404,-134.505 520.232,-134.237 523,-134 908.583,-100.941 1008.79,-144.345 1393,-98 1401.19,-97.0121 1409.84,-95.5975 1418.19,-94.0349"/>
<polygon fill="midnightblue" stroke="midnightblue" points="1419.04,-97.4345 1428.18,-92.0742 1417.7,-90.5656 1419.04,-97.4345"/>
</g>
<!-- Node14&#45;&gt;Node17 -->
<g id="edge19" class="edge"><title>Node14&#45;&gt;Node17</title>
<path fill="none" stroke="midnightblue" d="M403.424,-134.449C351.741,-125.63 269.191,-111.326 198,-98 191.259,-96.7382 184.175,-95.3762 177.18,-94.01"/>
<polygon fill="midnightblue" stroke="midnightblue" points="177.533,-90.5125 167.046,-92.0163 176.182,-97.3809 177.533,-90.5125"/>
</g>
<!-- Node18 -->
<g id="node18" class="node"><title>Node18</title>
<polygon fill="white" stroke="#bfbfbf" points="278.5,-67.5 278.5,-97.5 407.5,-97.5 407.5,-67.5 278.5,-67.5"/>
<text text-anchor="start" x="286.5" y="-85.5" font-family="Helvetica,sans-Serif" font-size="10.00">boost/type_traits/has</text>
<text text-anchor="middle" x="343" y="-74.5" font-family="Helvetica,sans-Serif" font-size="10.00">_nothrow_constructor.hpp</text>
</g>
<!-- Node14&#45;&gt;Node18 -->
<g id="edge23" class="edge"><title>Node14&#45;&gt;Node18</title>
<path fill="none" stroke="midnightblue" d="M438.096,-134.475C422.501,-126.115 398.202,-113.09 378.071,-102.299"/>
<polygon fill="midnightblue" stroke="midnightblue" points="379.628,-99.1627 369.161,-97.523 376.321,-105.332 379.628,-99.1627"/>
</g>
<!-- Node14&#45;&gt;Node19 -->
<g id="edge24" class="edge"><title>Node14&#45;&gt;Node19</title>
<path fill="none" stroke="midnightblue" d="M514.555,-134.857C517.408,-134.55 520.234,-134.262 523,-134 791.604,-108.536 867.079,-162.761 1129,-98 1131.21,-97.4528 1133.46,-96.7564 1135.69,-95.9659"/>
<polygon fill="midnightblue" stroke="midnightblue" points="1137.22,-99.1185 1145.13,-92.0697 1134.56,-92.6473 1137.22,-99.1185"/>
</g>
<!-- Node20 -->
<g id="node20" class="node"><title>Node20</title>
<polygon fill="white" stroke="#bfbfbf" points="425.5,-73 425.5,-92 470.5,-92 470.5,-73 425.5,-73"/>
<text text-anchor="middle" x="448" y="-80" font-family="Helvetica,sans-Serif" font-size="10.00">iosfwd</text>
</g>
<!-- Node14&#45;&gt;Node20 -->
<g id="edge26" class="edge"><title>Node14&#45;&gt;Node20</title>
<path fill="none" stroke="midnightblue" d="M453.14,-134.475C452.294,-126.08 450.973,-112.981 449.882,-102.163"/>
<polygon fill="midnightblue" stroke="midnightblue" points="453.344,-101.607 448.858,-92.0091 446.379,-102.31 453.344,-101.607"/>
</g>
<!-- Node21 -->
<g id="node21" class="node"><title>Node21</title>
<polygon fill="white" stroke="#bfbfbf" points="877.5,-73 877.5,-92 936.5,-92 936.5,-73 877.5,-73"/>
<text text-anchor="middle" x="907" y="-80" font-family="Helvetica,sans-Serif" font-size="10.00">stdexcept</text>
</g>
<!-- Node14&#45;&gt;Node21 -->
<g id="edge27" class="edge"><title>Node14&#45;&gt;Node21</title>
<path fill="none" stroke="midnightblue" d="M514.571,-135.01C517.42,-134.662 520.24,-134.324 523,-134 676.115,-116.029 717.893,-133.141 868,-98 871.066,-97.2822 874.219,-96.3884 877.34,-95.3993"/>
<polygon fill="midnightblue" stroke="midnightblue" points="878.765,-98.6094 887.056,-92.0143 876.462,-91.9991 878.765,-98.6094"/>
</g>
<!-- Node16 -->
<g id="node16" class="node"><title>Node16</title>
<polygon fill="white" stroke="#bfbfbf" points="1443.5,-6 1443.5,-25 1486.5,-25 1486.5,-6 1443.5,-6"/>
<text text-anchor="middle" x="1465" y="-13" font-family="Helvetica,sans-Serif" font-size="10.00">cstdio</text>
</g>
<!-- Node15&#45;&gt;Node16 -->
<g id="edge18" class="edge"><title>Node15&#45;&gt;Node16</title>
<path fill="none" stroke="midnightblue" d="M1465,-72.7338C1465,-63.1826 1465,-47.6183 1465,-35.2829"/>
<polygon fill="midnightblue" stroke="midnightblue" points="1468.5,-35.1273 1465,-25.1273 1461.5,-35.1273 1468.5,-35.1273"/>
</g>
<!-- Node24&#45;&gt;Node2 -->
<g id="edge48" class="edge"><title>Node24&#45;&gt;Node2</title>
<path fill="none" stroke="midnightblue" d="M839.626,-257.438C788.063,-248.726 706.4,-234.605 636,-221 629.69,-219.781 623.067,-218.452 616.523,-217.109"/>
<polygon fill="midnightblue" stroke="midnightblue" points="616.866,-213.606 606.363,-215.002 615.444,-220.46 616.866,-213.606"/>
</g>
<!-- Node24&#45;&gt;Node3 -->
<g id="edge49" class="edge"><title>Node24&#45;&gt;Node3</title>
<path fill="none" stroke="midnightblue" d="M835.373,-262.572C776.609,-257.654 689.63,-246.231 669,-221 655.107,-204.008 667.646,-178.894 679.194,-162.247"/>
<polygon fill="midnightblue" stroke="midnightblue" points="682.184,-164.091 685.334,-153.976 676.564,-159.919 682.184,-164.091"/>
</g>
<!-- Node25 -->
<g id="node25" class="node"><title>Node25</title>
<g id="a_node25"><a xlink:href="../../de/d94/IFunction_8h.html" target="_top" xlink:title="Declaration file of the IFunction interface. ">
<polygon fill="white" stroke="black" points="1199,-134.5 1199,-153.5 1313,-153.5 1313,-134.5 1199,-134.5"/>
<text text-anchor="middle" x="1256" y="-141.5" font-family="Helvetica,sans-Serif" font-size="10.00">ocra/optim/IFunction.h</text>
</a>
</g>
</g>
<!-- Node24&#45;&gt;Node25 -->
<g id="edge33" class="edge"><title>Node24&#45;&gt;Node25</title>
<path fill="none" stroke="midnightblue" d="M946.567,-262.009C1057.95,-253.741 1298.96,-234.398 1311,-221 1320.21,-210.752 1316.9,-202.451 1311,-190 1304.87,-177.068 1293.01,-166.617 1281.86,-159.053"/>
<polygon fill="midnightblue" stroke="midnightblue" points="1283.53,-155.968 1273.2,-153.614 1279.81,-161.896 1283.53,-155.968"/>
</g>
<!-- Node30 -->
<g id="node30" class="node"><title>Node30</title>
<g id="a_node30"><a xlink:href="../../d9/d54/IFunctionProperties_8h.html" target="_top" xlink:title="ocra/optim/IFunctionProperties.h">
<polygon fill="white" stroke="black" points="1010,-196 1010,-215 1168,-215 1168,-196 1010,-196"/>
<text text-anchor="middle" x="1089" y="-203" font-family="Helvetica,sans-Serif" font-size="10.00">ocra/optim/IFunctionProperties.h</text>
</a>
</g>
</g>
<!-- Node24&#45;&gt;Node30 -->
<g id="edge41" class="edge"><title>Node24&#45;&gt;Node30</title>
<path fill="none" stroke="midnightblue" d="M919.369,-257.475C953.921,-247.092 1012.42,-229.512 1050.88,-217.954"/>
<polygon fill="midnightblue" stroke="midnightblue" points="1052.11,-221.239 1060.68,-215.009 1050.1,-214.535 1052.11,-221.239"/>
</g>
<!-- Node31 -->
<g id="node31" class="node"><title>Node31</title>
<g id="a_node31"><a xlink:href="../../db/d47/AbilitySet_8h.html" target="_top" xlink:title="ocra/optim/AbilitySet.h">
<polygon fill="white" stroke="black" points="1186,-196 1186,-215 1302,-215 1302,-196 1186,-196"/>
<text text-anchor="middle" x="1244" y="-203" font-family="Helvetica,sans-Serif" font-size="10.00">ocra/optim/AbilitySet.h</text>
</a>
</g>
</g>
<!-- Node24&#45;&gt;Node31 -->
<g id="edge44" class="edge"><title>Node24&#45;&gt;Node31</title>
<path fill="none" stroke="midnightblue" d="M946.523,-258.222C1004.26,-249.91 1097.2,-235.9 1177,-221 1183.3,-219.824 1189.9,-218.502 1196.42,-217.147"/>
<polygon fill="midnightblue" stroke="midnightblue" points="1197.46,-220.505 1206.51,-215.007 1196.01,-213.657 1197.46,-220.505"/>
</g>
<!-- Node32 -->
<g id="node32" class="node"><title>Node32</title>
<g id="a_node32"><a xlink:href="../../d1/d87/CoupledInputOutputSize_8h.html" target="_top" xlink:title="ocra/optim/CoupledInputOutput\lSize.h">
<polygon fill="white" stroke="black" points="678,-190.5 678,-220.5 830,-220.5 830,-190.5 678,-190.5"/>
<text text-anchor="start" x="686" y="-208.5" font-family="Helvetica,sans-Serif" font-size="10.00">ocra/optim/CoupledInputOutput</text>
<text text-anchor="middle" x="754" y="-197.5" font-family="Helvetica,sans-Serif" font-size="10.00">Size.h</text>
</a>
</g>
</g>
<!-- Node24&#45;&gt;Node32 -->
<g id="edge47" class="edge"><title>Node24&#45;&gt;Node32</title>
<path fill="none" stroke="midnightblue" d="M871.371,-257.475C851.689,-248.927 820.776,-235.501 795.614,-224.573"/>
<polygon fill="midnightblue" stroke="midnightblue" points="796.855,-221.296 786.288,-220.523 794.066,-227.717 796.855,-221.296"/>
</g>
<!-- Node33 -->
<g id="node33" class="node"><title>Node33</title>
<g id="a_node33"><a xlink:href="../../df/d97/NamedInstance_8h.html" target="_top" xlink:title="ocra/optim/NamedInstance.h">
<polygon fill="white" stroke="black" points="848.5,-196 848.5,-215 991.5,-215 991.5,-196 848.5,-196"/>
<text text-anchor="middle" x="920" y="-203" font-family="Helvetica,sans-Serif" font-size="10.00">ocra/optim/NamedInstance.h</text>
</a>
</g>
</g>
<!-- Node24&#45;&gt;Node33 -->
<g id="edge50" class="edge"><title>Node24&#45;&gt;Node33</title>
<path fill="none" stroke="midnightblue" d="M895.155,-257.475C899.376,-248.815 906.037,-235.149 911.4,-224.145"/>
<polygon fill="midnightblue" stroke="midnightblue" points="914.618,-225.532 915.853,-215.009 908.325,-222.465 914.618,-225.532"/>
</g>
<!-- Node25&#45;&gt;Node15 -->
<g id="edge37" class="edge"><title>Node25&#45;&gt;Node15</title>
<path fill="none" stroke="midnightblue" d="M1285.94,-134.475C1322.57,-124.048 1384.7,-106.362 1425.28,-94.8066"/>
<polygon fill="midnightblue" stroke="midnightblue" points="1426.45,-98.1135 1435.11,-92.0091 1424.53,-91.381 1426.45,-98.1135"/>
</g>
<!-- Node25&#45;&gt;Node19 -->
<g id="edge39" class="edge"><title>Node25&#45;&gt;Node19</title>
<path fill="none" stroke="midnightblue" d="M1242.39,-134.475C1226.94,-124.799 1201.51,-108.872 1183.18,-97.3941"/>
<polygon fill="midnightblue" stroke="midnightblue" points="1184.92,-94.3509 1174.59,-92.0091 1181.2,-100.283 1184.92,-94.3509"/>
</g>
<!-- Node25&#45;&gt;Node21 -->
<g id="edge40" class="edge"><title>Node25&#45;&gt;Node21</title>
<path fill="none" stroke="midnightblue" d="M1202.27,-134.471C1147.36,-125.67 1059.65,-111.379 984,-98 971.878,-95.8563 958.705,-93.4163 946.738,-91.1573"/>
<polygon fill="midnightblue" stroke="midnightblue" points="947.067,-87.6572 936.589,-89.2308 945.761,-94.5344 947.067,-87.6572"/>
</g>
<!-- Node26 -->
<g id="node26" class="node"><title>Node26</title>
<g id="a_node26"><a xlink:href="../../d5/d55/MathTypes_8h.html" target="_top" xlink:title="Declaration file of the OptimizationVariable class. ">
<polygon fill="white" stroke="black" points="1200.5,-73 1200.5,-92 1311.5,-92 1311.5,-73 1200.5,-73"/>
<text text-anchor="middle" x="1256" y="-80" font-family="Helvetica,sans-Serif" font-size="10.00">ocra/util/MathTypes.h</text>
</a>
</g>
</g>
<!-- Node25&#45;&gt;Node26 -->
<g id="edge34" class="edge"><title>Node25&#45;&gt;Node26</title>
<path fill="none" stroke="midnightblue" d="M1256,-134.475C1256,-126.08 1256,-112.981 1256,-102.163"/>
<polygon fill="midnightblue" stroke="midnightblue" points="1259.5,-102.009 1256,-92.0091 1252.5,-102.009 1259.5,-102.009"/>
</g>
<!-- Node29 -->
<g id="node29" class="node"><title>Node29</title>
<polygon fill="white" stroke="#bfbfbf" points="1330,-73 1330,-92 1384,-92 1384,-73 1330,-73"/>
<text text-anchor="middle" x="1357" y="-80" font-family="Helvetica,sans-Serif" font-size="10.00">iostream</text>
</g>
<!-- Node25&#45;&gt;Node29 -->
<g id="edge38" class="edge"><title>Node25&#45;&gt;Node29</title>
<path fill="none" stroke="midnightblue" d="M1270.47,-134.475C1286.97,-124.755 1314.18,-108.727 1333.68,-97.2372"/>
<polygon fill="midnightblue" stroke="midnightblue" points="1335.72,-100.101 1342.56,-92.0091 1332.16,-94.0693 1335.72,-100.101"/>
</g>
<!-- Node27 -->
<g id="node27" class="node"><title>Node27</title>
<polygon fill="white" stroke="#bfbfbf" points="1180.5,-6 1180.5,-25 1253.5,-25 1253.5,-6 1180.5,-6"/>
<text text-anchor="middle" x="1217" y="-13" font-family="Helvetica,sans-Serif" font-size="10.00">Eigen/Dense</text>
</g>
<!-- Node26&#45;&gt;Node27 -->
<g id="edge35" class="edge"><title>Node26&#45;&gt;Node27</title>
<path fill="none" stroke="midnightblue" d="M1250.74,-72.7338C1244.78,-62.7928 1234.9,-46.3377 1227.37,-33.7892"/>
<polygon fill="midnightblue" stroke="midnightblue" points="1230.32,-31.9015 1222.18,-25.1273 1224.32,-35.503 1230.32,-31.9015"/>
</g>
<!-- Node28 -->
<g id="node28" class="node"><title>Node28</title>
<polygon fill="white" stroke="#bfbfbf" points="1272,-6 1272,-25 1316,-25 1316,-6 1272,-6"/>
<text text-anchor="middle" x="1294" y="-13" font-family="Helvetica,sans-Serif" font-size="10.00">cmath</text>
</g>
<!-- Node26&#45;&gt;Node28 -->
<g id="edge36" class="edge"><title>Node26&#45;&gt;Node28</title>
<path fill="none" stroke="midnightblue" d="M1261.12,-72.7338C1266.94,-62.7928 1276.56,-46.3377 1283.89,-33.7892"/>
<polygon fill="midnightblue" stroke="midnightblue" points="1286.93,-35.5267 1288.96,-25.1273 1280.89,-31.9938 1286.93,-35.5267"/>
</g>
<!-- Node30&#45;&gt;Node19 -->
<g id="edge43" class="edge"><title>Node30&#45;&gt;Node19</title>
<path fill="none" stroke="midnightblue" d="M1094.18,-195.798C1105.96,-176.002 1134.95,-127.282 1150.59,-100.993"/>
<polygon fill="midnightblue" stroke="midnightblue" points="1153.76,-102.507 1155.87,-92.1232 1147.75,-98.9271 1153.76,-102.507"/>
</g>
<!-- Node30&#45;&gt;Node23 -->
<g id="edge42" class="edge"><title>Node30&#45;&gt;Node23</title>
<path fill="none" stroke="midnightblue" d="M1064.79,-195.975C1034.6,-185.346 982.983,-167.174 950.229,-155.643"/>
<polygon fill="midnightblue" stroke="midnightblue" points="951.308,-152.312 940.713,-152.293 948.984,-158.915 951.308,-152.312"/>
</g>
<!-- Node31&#45;&gt;Node19 -->
<g id="edge46" class="edge"><title>Node31&#45;&gt;Node19</title>
<path fill="none" stroke="midnightblue" d="M1232.29,-195.994C1220.3,-186.787 1201.82,-171.108 1190,-154 1178.86,-137.878 1170.91,-116.822 1166.18,-101.932"/>
<polygon fill="midnightblue" stroke="midnightblue" points="1169.53,-100.915 1163.31,-92.3386 1162.82,-102.922 1169.53,-100.915"/>
</g>
<!-- Node31&#45;&gt;Node25 -->
<g id="edge45" class="edge"><title>Node31&#45;&gt;Node25</title>
<path fill="none" stroke="midnightblue" d="M1245.72,-195.975C1247.43,-187.492 1250.11,-174.204 1252.3,-163.322"/>
<polygon fill="midnightblue" stroke="midnightblue" points="1255.74,-164.004 1254.28,-153.509 1248.88,-162.62 1255.74,-164.004"/>
</g>
<!-- Node33&#45;&gt;Node23 -->
<g id="edge51" class="edge"><title>Node33&#45;&gt;Node23</title>
<path fill="none" stroke="midnightblue" d="M920,-195.975C920,-187.58 920,-174.481 920,-163.663"/>
<polygon fill="midnightblue" stroke="midnightblue" points="923.5,-163.509 920,-153.509 916.5,-163.509 923.5,-163.509"/>
</g>
<!-- Node34&#45;&gt;Node24 -->
<g id="edge53" class="edge"><title>Node34&#45;&gt;Node24</title>
<path fill="none" stroke="midnightblue" d="M793.893,-369.385C795.518,-354.059 800.097,-329.558 813,-313 824.221,-298.601 841.433,-287.975 856.836,-280.676"/>
<polygon fill="midnightblue" stroke="midnightblue" points="858.401,-283.811 866.124,-276.558 855.563,-277.412 858.401,-283.811"/>
</g>
<!-- Node35&#45;&gt;Node36 -->
<g id="edge57" class="edge"><title>Node35&#45;&gt;Node36</title>
<path fill="none" stroke="midnightblue" d="M969.59,-369.399C953.08,-359.862 931.377,-347.325 914.962,-337.842"/>
<polygon fill="midnightblue" stroke="midnightblue" points="916.397,-334.629 905.987,-332.658 912.896,-340.691 916.397,-334.629"/>
</g>
<!-- Node35&#45;&gt;Node39 -->
<g id="edge61" class="edge"><title>Node35&#45;&gt;Node39</title>
<path fill="none" stroke="midnightblue" d="M1025.05,-369.399C1046.73,-359.55 1075.46,-346.501 1096.55,-336.922"/>
<polygon fill="midnightblue" stroke="midnightblue" points="1098.28,-339.98 1105.94,-332.658 1095.39,-333.607 1098.28,-339.98"/>
</g>
<!-- Node40 -->
<g id="node40" class="node"><title>Node40</title>
<polygon fill="white" stroke="#bfbfbf" points="978,-313.5 978,-332.5 1030,-332.5 1030,-313.5 978,-313.5"/>
<text text-anchor="middle" x="1004" y="-320.5" font-family="Helvetica,sans-Serif" font-size="10.00">sstream</text>
</g>
<!-- Node35&#45;&gt;Node40 -->
<g id="edge65" class="edge"><title>Node35&#45;&gt;Node40</title>
<path fill="none" stroke="midnightblue" d="M996.37,-369.399C997.718,-361.377 999.423,-351.233 1000.88,-342.569"/>
<polygon fill="midnightblue" stroke="midnightblue" points="1004.34,-343.1 1002.54,-332.658 997.436,-341.939 1004.34,-343.1"/>
</g>
<!-- Node36&#45;&gt;Node24 -->
<g id="edge58" class="edge"><title>Node36&#45;&gt;Node24</title>
<path fill="none" stroke="midnightblue" d="M891,-313.083C891,-306.006 891,-295.861 891,-286.986"/>
<polygon fill="midnightblue" stroke="midnightblue" points="894.5,-286.751 891,-276.751 887.5,-286.751 894.5,-286.751"/>
</g>
<!-- Node37 -->
<g id="node37" class="node"><title>Node37</title>
<g id="a_node37"><a xlink:href="../../df/d0a/Macros_8h.html" target="_top" xlink:title="ocra/util/Macros.h">
<polygon fill="white" stroke="black" points="1077.5,-257.5 1077.5,-276.5 1172.5,-276.5 1172.5,-257.5 1077.5,-257.5"/>
<text text-anchor="middle" x="1125" y="-264.5" font-family="Helvetica,sans-Serif" font-size="10.00">ocra/util/Macros.h</text>
</a>
</g>
</g>
<!-- Node36&#45;&gt;Node37 -->
<g id="edge59" class="edge"><title>Node36&#45;&gt;Node37</title>
<path fill="none" stroke="midnightblue" d="M928.078,-313.444C968.728,-304.063 1034.03,-288.993 1078.18,-278.804"/>
<polygon fill="midnightblue" stroke="midnightblue" points="1079.14,-282.175 1088.1,-276.516 1077.56,-275.355 1079.14,-282.175"/>
</g>
<!-- Node38 -->
<g id="node38" class="node"><title>Node38</title>
<polygon fill="white" stroke="#bfbfbf" points="1358,-196 1358,-215 1410,-215 1410,-196 1358,-196"/>
<text text-anchor="middle" x="1384" y="-203" font-family="Helvetica,sans-Serif" font-size="10.00">memory</text>
</g>
<!-- Node37&#45;&gt;Node38 -->
<g id="edge60" class="edge"><title>Node37&#45;&gt;Node38</title>
<path fill="none" stroke="midnightblue" d="M1172.9,-258.223C1217.59,-250.482 1285.91,-237.402 1344,-221 1346.8,-220.21 1349.68,-219.319 1352.56,-218.379"/>
<polygon fill="midnightblue" stroke="midnightblue" points="1353.87,-221.629 1362.18,-215.058 1351.59,-215.013 1353.87,-221.629"/>
</g>
<!-- Node39&#45;&gt;Node15 -->
<g id="edge63" class="edge"><title>Node39&#45;&gt;Node15</title>
<path fill="none" stroke="midnightblue" d="M1201.56,-314.526C1267.5,-304.169 1360.94,-279.527 1419,-221 1451.55,-188.185 1461.07,-131.702 1463.85,-102.387"/>
<polygon fill="midnightblue" stroke="midnightblue" points="1467.36,-102.511 1464.64,-92.2688 1460.38,-101.966 1467.36,-102.511"/>
</g>
<!-- Node39&#45;&gt;Node24 -->
<g id="edge62" class="edge"><title>Node39&#45;&gt;Node24</title>
<path fill="none" stroke="midnightblue" d="M1087.92,-313.444C1047.27,-304.063 981.968,-288.993 937.816,-278.804"/>
<polygon fill="midnightblue" stroke="midnightblue" points="938.435,-275.355 927.905,-276.516 936.861,-282.175 938.435,-275.355"/>
</g>
<!-- Node39&#45;&gt;Node37 -->
<g id="edge64" class="edge"><title>Node39&#45;&gt;Node37</title>
<path fill="none" stroke="midnightblue" d="M1125,-313.083C1125,-306.006 1125,-295.861 1125,-286.986"/>
<polygon fill="midnightblue" stroke="midnightblue" points="1128.5,-286.751 1125,-276.751 1121.5,-286.751 1128.5,-286.751"/>
</g>
</g>
</svg>
