<?xml version="1.0" encoding="UTF-8" standalone="no"?>
<!DOCTYPE svg PUBLIC "-//W3C//DTD SVG 1.1//EN"
 "http://www.w3.org/Graphics/SVG/1.1/DTD/svg11.dtd">
<!-- Generated by graphviz version 2.38.0 (20140413.2041)
 -->
<!-- Title: ocra::ReducedContactAvoidanceFunction Pages: 1 -->
<svg width="1499pt" height="431pt"
 viewBox="0.00 0.00 1499.00 430.50" xmlns="http://www.w3.org/2000/svg" xmlns:xlink="http://www.w3.org/1999/xlink">
<g id="graph0" class="graph" transform="scale(1 1) rotate(0) translate(4 426.5)">
<title>ocra::ReducedContactAvoidanceFunction</title>
<polygon fill="white" stroke="none" points="-4,4 -4,-426.5 1495,-426.5 1495,4 -4,4"/>
<!-- Node1 -->
<g id="node1" class="node"><title>Node1</title>
<polygon fill="#bfbfbf" stroke="black" points="1330,-339.5 1330,-369.5 1491,-369.5 1491,-339.5 1330,-339.5"/>
<text text-anchor="start" x="1338" y="-357.5" font-family="Helvetica,sans-Serif" font-size="10.00">ocra::ReducedContactAvoidance</text>
<text text-anchor="middle" x="1410.5" y="-346.5" font-family="Helvetica,sans-Serif" font-size="10.00">Function</text>
</g>
<!-- Node2 -->
<g id="node2" class="node"><title>Node2</title>
<g id="a_node2"><a xlink:href="../../d4/d45/classocra_1_1ContactAvoidanceFunction.html" target="_top" xlink:title="Create a linear function that represents the joint limit function. ">
<polygon fill="white" stroke="black" points="1134,-345 1134,-364 1293,-364 1293,-345 1134,-345"/>
<text text-anchor="middle" x="1213.5" y="-352" font-family="Helvetica,sans-Serif" font-size="10.00">ocra::ContactAvoidanceFunction</text>
</a>
</g>
</g>
<!-- Node2&#45;&gt;Node1 -->
<g id="edge1" class="edge"><title>Node2&#45;&gt;Node1</title>
<path fill="none" stroke="midnightblue" d="M1303.5,-354.5C1312.27,-354.5 1321.14,-354.5 1329.82,-354.5"/>
<polygon fill="midnightblue" stroke="midnightblue" points="1303.25,-351 1293.25,-354.5 1303.25,-358 1303.25,-351"/>
</g>
<!-- Node3 -->
<g id="node3" class="node"><title>Node3</title>
<g id="a_node3"><a xlink:href="../../de/d3a/classocra_1_1LinearFunction.html" target="_top" xlink:title="LinearFunction class. ">
<polygon fill="white" stroke="black" points="992,-345 992,-364 1097,-364 1097,-345 992,-345"/>
<text text-anchor="middle" x="1044.5" y="-352" font-family="Helvetica,sans-Serif" font-size="10.00">ocra::LinearFunction</text>
</a>
</g>
</g>
<!-- Node3&#45;&gt;Node2 -->
<g id="edge2" class="edge"><title>Node3&#45;&gt;Node2</title>
<path fill="none" stroke="midnightblue" d="M1107.68,-354.5C1116.25,-354.5 1125.13,-354.5 1133.94,-354.5"/>
<polygon fill="midnightblue" stroke="midnightblue" points="1107.42,-351 1097.42,-354.5 1107.42,-358 1107.42,-351"/>
</g>
<!-- Node4 -->
<g id="node4" class="node"><title>Node4</title>
<g id="a_node4"><a xlink:href="../../d2/d99/classocra_1_1Function.html" target="_top" xlink:title="Function class. ">
<polygon fill="white" stroke="black" points="831,-235 831,-254 910,-254 910,-235 831,-235"/>
<text text-anchor="middle" x="870.5" y="-242" font-family="Helvetica,sans-Serif" font-size="10.00">ocra::Function</text>
</a>
</g>
</g>
<!-- Node4&#45;&gt;Node3 -->
<g id="edge3" class="edge"><title>Node4&#45;&gt;Node3</title>
<path fill="none" stroke="midnightblue" d="M895.314,-259.73C931.302,-282.746 998.515,-325.731 1028.45,-344.874"/>
<polygon fill="midnightblue" stroke="midnightblue" points="896.773,-256.509 886.463,-254.069 893.002,-262.406 896.773,-256.509"/>
</g>
<!-- Node5 -->
<g id="node5" class="node"><title>Node5</title>
<g id="a_node5"><a xlink:href="../../d3/d16/classocra_1_1ObserverSubject.html" target="_top" xlink:title="ocra::ObserverSubject">
<polygon fill="white" stroke="black" points="388,-106 388,-125 502,-125 502,-106 388,-106"/>
<text text-anchor="middle" x="445" y="-113" font-family="Helvetica,sans-Serif" font-size="10.00">ocra::ObserverSubject</text>
</a>
</g>
</g>
<!-- Node5&#45;&gt;Node4 -->
<g id="edge4" class="edge"><title>Node5&#45;&gt;Node4</title>
<path fill="none" stroke="midnightblue" d="M512.387,-109.27C575.208,-105.615 671.334,-105.888 750,-131.5 805.658,-149.621 848.806,-211.182 863.788,-234.99"/>
<polygon fill="midnightblue" stroke="midnightblue" points="511.973,-105.789 502.214,-109.913 512.415,-112.775 511.973,-105.789"/>
</g>
<!-- Node21 -->
<g id="node21" class="node"><title>Node21</title>
<g id="a_node21"><a xlink:href="../../d2/dac/classocra_1_1Variable.html" target="_top" xlink:title="This class represents a variable in a mathematical sense. ">
<polygon fill="white" stroke="black" points="628,-141 628,-160 705,-160 705,-141 628,-141"/>
<text text-anchor="middle" x="666.5" y="-148" font-family="Helvetica,sans-Serif" font-size="10.00">ocra::Variable</text>
</a>
</g>
</g>
<!-- Node5&#45;&gt;Node21 -->
<g id="edge22" class="edge"><title>Node5&#45;&gt;Node21</title>
<path fill="none" stroke="midnightblue" d="M512.161,-126.05C549.96,-132.077 595.995,-139.417 627.703,-144.473"/>
<polygon fill="midnightblue" stroke="midnightblue" points="512.668,-122.586 502.242,-124.468 511.566,-129.499 512.668,-122.586"/>
</g>
<!-- Node6 -->
<g id="node6" class="node"><title>Node6</title>
<g id="a_node6"><a xlink:href="../../d2/d45/classocra_1_1Observer.html" target="_top" xlink:title="ocra::Observer">
<polygon fill="white" stroke="black" points="226,-177 226,-196 307,-196 307,-177 226,-177"/>
<text text-anchor="middle" x="266.5" y="-184" font-family="Helvetica,sans-Serif" font-size="10.00">ocra::Observer</text>
</a>
</g>
</g>
<!-- Node6&#45;&gt;Node5 -->
<g id="edge5" class="edge"><title>Node6&#45;&gt;Node5</title>
<path fill="none" stroke="midnightblue" d="M286.748,-170.555C301.529,-159.113 322.92,-144.232 344,-135.5 357.74,-129.809 373.23,-125.699 387.842,-122.746"/>
<polygon fill="midnightblue" stroke="midnightblue" points="284.513,-167.86 278.86,-176.821 288.867,-173.341 284.513,-167.86"/>
</g>
<!-- Node7 -->
<g id="node7" class="node"><title>Node7</title>
<g id="a_node7"><a xlink:href="../../d4/dee/classocra_1_1ObserverBase.html" target="_top" xlink:title="ocra::ObserverBase\l\&lt; EVT_RESIZE \&gt;">
<polygon fill="white" stroke="black" points="42.5,-245.5 42.5,-275.5 146.5,-275.5 146.5,-245.5 42.5,-245.5"/>
<text text-anchor="start" x="50.5" y="-263.5" font-family="Helvetica,sans-Serif" font-size="10.00">ocra::ObserverBase</text>
<text text-anchor="middle" x="94.5" y="-252.5" font-family="Helvetica,sans-Serif" font-size="10.00">&lt; EVT_RESIZE &gt;</text>
</a>
</g>
</g>
<!-- Node7&#45;&gt;Node6 -->
<g id="edge6" class="edge"><title>Node7&#45;&gt;Node6</title>
<path fill="none" stroke="midnightblue" d="M156.871,-247.002C167.777,-243.788 178.878,-239.966 189,-235.5 213.243,-224.805 238.613,-207.045 253.19,-196.098"/>
<polygon fill="midnightblue" stroke="midnightblue" points="155.628,-243.716 146.943,-249.785 157.517,-250.456 155.628,-243.716"/>
</g>
<!-- Node8 -->
<g id="node8" class="node"><title>Node8</title>
<g id="a_node8"><a xlink:href="../../d4/dee/classocra_1_1ObserverBase.html" target="_top" xlink:title="ocra::ObserverBase\l\&lt; EVT_CHANGE_DEPENDENCIES \&gt;">
<polygon fill="white" stroke="black" points="0,-196.5 0,-226.5 189,-226.5 189,-196.5 0,-196.5"/>
<text text-anchor="start" x="8" y="-214.5" font-family="Helvetica,sans-Serif" font-size="10.00">ocra::ObserverBase</text>
<text text-anchor="middle" x="94.5" y="-203.5" font-family="Helvetica,sans-Serif" font-size="10.00">&lt; EVT_CHANGE_DEPENDENCIES &gt;</text>
</a>
</g>
</g>
<!-- Node8&#45;&gt;Node6 -->
<g id="edge7" class="edge"><title>Node8&#45;&gt;Node6</title>
<path fill="none" stroke="midnightblue" d="M199.529,-196.202C208.724,-194.849 217.605,-193.543 225.713,-192.351"/>
<polygon fill="midnightblue" stroke="midnightblue" points="198.834,-192.766 189.45,-197.684 199.853,-199.692 198.834,-192.766"/>
</g>
<!-- Node9 -->
<g id="node9" class="node"><title>Node9</title>
<g id="a_node9"><a xlink:href="../../d4/dee/classocra_1_1ObserverBase.html" target="_top" xlink:title="ocra::ObserverBase\l\&lt; EVT_CHANGE_VALUE \&gt;">
<polygon fill="white" stroke="black" points="24,-147.5 24,-177.5 165,-177.5 165,-147.5 24,-147.5"/>
<text text-anchor="start" x="32" y="-165.5" font-family="Helvetica,sans-Serif" font-size="10.00">ocra::ObserverBase</text>
<text text-anchor="middle" x="94.5" y="-154.5" font-family="Helvetica,sans-Serif" font-size="10.00">&lt; EVT_CHANGE_VALUE &gt;</text>
</a>
</g>
</g>
<!-- Node9&#45;&gt;Node6 -->
<g id="edge8" class="edge"><title>Node9&#45;&gt;Node6</title>
<path fill="none" stroke="midnightblue" d="M175.415,-173.782C192.968,-176.26 210.811,-178.779 225.936,-180.914"/>
<polygon fill="midnightblue" stroke="midnightblue" points="175.527,-170.263 165.136,-172.331 174.549,-177.195 175.527,-170.263"/>
</g>
<!-- Node10 -->
<g id="node10" class="node"><title>Node10</title>
<g id="a_node10"><a xlink:href="../../dc/d77/classocra_1_1Subject.html" target="_top" xlink:title="ocra::Subject">
<polygon fill="white" stroke="black" points="229.5,-76 229.5,-95 303.5,-95 303.5,-76 229.5,-76"/>
<text text-anchor="middle" x="266.5" y="-83" font-family="Helvetica,sans-Serif" font-size="10.00">ocra::Subject</text>
</a>
</g>
</g>
<!-- Node10&#45;&gt;Node5 -->
<g id="edge9" class="edge"><title>Node10&#45;&gt;Node5</title>
<path fill="none" stroke="midnightblue" d="M313.732,-93.3581C336.501,-97.2283 364.139,-101.926 388.089,-105.997"/>
<polygon fill="midnightblue" stroke="midnightblue" points="314.088,-89.8686 303.643,-91.6433 312.915,-96.7696 314.088,-89.8686"/>
</g>
<!-- Node11 -->
<g id="node11" class="node"><title>Node11</title>
<g id="a_node11"><a xlink:href="../../dc/d29/classocra_1_1SubjectBase.html" target="_top" xlink:title="ocra::SubjectBase\&lt;\l EVT_RESIZE \&gt;">
<polygon fill="white" stroke="black" points="43,-98.5 43,-128.5 146,-128.5 146,-98.5 43,-98.5"/>
<text text-anchor="start" x="51" y="-116.5" font-family="Helvetica,sans-Serif" font-size="10.00">ocra::SubjectBase&lt;</text>
<text text-anchor="middle" x="94.5" y="-105.5" font-family="Helvetica,sans-Serif" font-size="10.00"> EVT_RESIZE &gt;</text>
</a>
</g>
</g>
<!-- Node11&#45;&gt;Node10 -->
<g id="edge10" class="edge"><title>Node11&#45;&gt;Node10</title>
<path fill="none" stroke="midnightblue" d="M156.006,-103.534C180.573,-99.4879 208.125,-94.9499 229.446,-91.4383"/>
<polygon fill="midnightblue" stroke="midnightblue" points="155.344,-100.096 146.045,-105.175 156.481,-107.003 155.344,-100.096"/>
</g>
<!-- Node12 -->
<g id="node12" class="node"><title>Node12</title>
<g id="a_node12"><a xlink:href="../../dc/d29/classocra_1_1SubjectBase.html" target="_top" xlink:title="ocra::SubjectBase\&lt;\l EVT_CHANGE_DEPENDENCIES \&gt;">
<polygon fill="white" stroke="black" points="3,-49.5 3,-79.5 186,-79.5 186,-49.5 3,-49.5"/>
<text text-anchor="start" x="11" y="-67.5" font-family="Helvetica,sans-Serif" font-size="10.00">ocra::SubjectBase&lt;</text>
<text text-anchor="middle" x="94.5" y="-56.5" font-family="Helvetica,sans-Serif" font-size="10.00"> EVT_CHANGE_DEPENDENCIES &gt;</text>
</a>
</g>
</g>
<!-- Node12&#45;&gt;Node10 -->
<g id="edge11" class="edge"><title>Node12&#45;&gt;Node10</title>
<path fill="none" stroke="midnightblue" d="M196.712,-77.0027C208.269,-78.4303 219.411,-79.8066 229.239,-81.0207"/>
<polygon fill="midnightblue" stroke="midnightblue" points="196.826,-73.4902 186.472,-75.7377 195.968,-80.4374 196.826,-73.4902"/>
</g>
<!-- Node13 -->
<g id="node13" class="node"><title>Node13</title>
<g id="a_node13"><a xlink:href="../../dc/d29/classocra_1_1SubjectBase.html" target="_top" xlink:title="ocra::SubjectBase\&lt;\l EVT_CHANGE_VALUE \&gt;">
<polygon fill="white" stroke="black" points="27,-0.5 27,-30.5 162,-30.5 162,-0.5 27,-0.5"/>
<text text-anchor="start" x="35" y="-18.5" font-family="Helvetica,sans-Serif" font-size="10.00">ocra::SubjectBase&lt;</text>
<text text-anchor="middle" x="94.5" y="-7.5" font-family="Helvetica,sans-Serif" font-size="10.00"> EVT_CHANGE_VALUE &gt;</text>
</a>
</g>
</g>
<!-- Node13&#45;&gt;Node10 -->
<g id="edge12" class="edge"><title>Node13&#45;&gt;Node10</title>
<path fill="none" stroke="midnightblue" d="M172.021,-33.1758C177.834,-35.1139 183.553,-37.2206 189,-39.5 212.589,-49.371 237.55,-65.627 252.315,-75.9367"/>
<polygon fill="midnightblue" stroke="midnightblue" points="172.771,-29.7425 162.182,-30.0722 170.666,-36.4183 172.771,-29.7425"/>
</g>
<!-- Node14 -->
<g id="node14" class="node"><title>Node14</title>
<g id="a_node14"><a xlink:href="../../dd/d68/classocra_1_1IFunctionProperties.html" target="_top" xlink:title="ocra::IFunctionProperties">
<polygon fill="white" stroke="black" points="603.5,-343 603.5,-362 729.5,-362 729.5,-343 603.5,-343"/>
<text text-anchor="middle" x="666.5" y="-350" font-family="Helvetica,sans-Serif" font-size="10.00">ocra::IFunctionProperties</text>
</a>
</g>
</g>
<!-- Node14&#45;&gt;Node4 -->
<g id="edge13" class="edge"><title>Node14&#45;&gt;Node4</title>
<path fill="none" stroke="midnightblue" d="M730.04,-339.974C736.9,-337.828 743.682,-335.35 750,-332.5 795.328,-312.054 840.231,-272.42 859.586,-254.15"/>
<polygon fill="midnightblue" stroke="midnightblue" points="728.608,-336.745 719.975,-342.886 730.554,-343.469 728.608,-336.745"/>
</g>
<!-- Node15 -->
<g id="node15" class="node"><title>Node15</title>
<polygon fill="white" stroke="#bfbfbf" points="583,-293.5 583,-323.5 750,-323.5 750,-293.5 583,-293.5"/>
<text text-anchor="start" x="591" y="-311.5" font-family="Helvetica,sans-Serif" font-size="10.00">OCRA_FUNCTION_INTERFACE</text>
<text text-anchor="middle" x="666.5" y="-300.5" font-family="Helvetica,sans-Serif" font-size="10.00">_INHERITANCEpublic</text>
</g>
<!-- Node15&#45;&gt;Node4 -->
<g id="edge14" class="edge"><title>Node15&#45;&gt;Node4</title>
<path fill="none" stroke="#8b1a1a" d="M736.59,-290.734C760.923,-284.029 788.347,-275.962 813,-267.5 824.62,-263.512 837.31,-258.415 847.714,-254.034"/>
<polygon fill="#8b1a1a" stroke="#8b1a1a" points="735.449,-287.417 726.723,-293.425 737.291,-294.17 735.449,-287.417"/>
</g>
<!-- Node16 -->
<g id="node16" class="node"><title>Node16</title>
<g id="a_node16"><a xlink:href="../../db/de3/classocra_1_1NamedInstance.html" target="_top" xlink:title="ocra::NamedInstance">
<polygon fill="white" stroke="black" points="611.5,-255 611.5,-274 721.5,-274 721.5,-255 611.5,-255"/>
<text text-anchor="middle" x="666.5" y="-262" font-family="Helvetica,sans-Serif" font-size="10.00">ocra::NamedInstance</text>
</a>
</g>
</g>
<!-- Node16&#45;&gt;Node4 -->
<g id="edge15" class="edge"><title>Node16&#45;&gt;Node4</title>
<path fill="none" stroke="midnightblue" d="M731.956,-258.436C757.232,-256.022 786.482,-253.184 813,-250.5 818.79,-249.914 824.913,-249.279 830.906,-248.65"/>
<polygon fill="midnightblue" stroke="midnightblue" points="731.375,-254.975 721.752,-259.408 732.039,-261.944 731.375,-254.975"/>
</g>
<!-- Node17 -->
<g id="node17" class="node"><title>Node17</title>
<g id="a_node17"><a xlink:href="../../d8/d24/classocra_1_1AbilitySet.html" target="_top" xlink:title="ocra::AbilitySet">
<polygon fill="white" stroke="black" points="625,-217 625,-236 708,-236 708,-217 625,-217"/>
<text text-anchor="middle" x="666.5" y="-224" font-family="Helvetica,sans-Serif" font-size="10.00">ocra::AbilitySet</text>
</a>
</g>
</g>
<!-- Node17&#45;&gt;Node4 -->
<g id="edge16" class="edge"><title>Node17&#45;&gt;Node4</title>
<path fill="none" stroke="midnightblue" d="M718.369,-231.033C753.242,-234.14 798.796,-238.2 830.739,-241.046"/>
<polygon fill="midnightblue" stroke="midnightblue" points="718.649,-227.544 708.378,-230.143 718.028,-234.516 718.649,-227.544"/>
</g>
<!-- Node18 -->
<g id="node18" class="node"><title>Node18</title>
<g id="a_node18"><a xlink:href="../../d5/dc0/classocra_1_1CoupledInputOutputSize.html" target="_top" xlink:title="ocra::CoupledInputOutputSize">
<polygon fill="white" stroke="black" points="592.5,-179 592.5,-198 740.5,-198 740.5,-179 592.5,-179"/>
<text text-anchor="middle" x="666.5" y="-186" font-family="Helvetica,sans-Serif" font-size="10.00">ocra::CoupledInputOutputSize</text>
</a>
</g>
</g>
<!-- Node18&#45;&gt;Node4 -->
<g id="edge17" class="edge"><title>Node18&#45;&gt;Node4</title>
<path fill="none" stroke="midnightblue" d="M721.531,-200.34C731.047,-202.597 740.837,-205.03 750,-207.5 781.245,-215.923 816.601,-227.075 840.697,-234.926"/>
<polygon fill="midnightblue" stroke="midnightblue" points="722.283,-196.922 711.75,-198.057 720.692,-203.738 722.283,-196.922"/>
</g>
<!-- Node19 -->
<g id="node19" class="node"><title>Node19</title>
<polygon fill="white" stroke="#bfbfbf" points="638,-381 638,-400 695,-400 695,-381 638,-381"/>
<text text-anchor="middle" x="666.5" y="-388" font-family="Helvetica,sans-Serif" font-size="10.00">VectorXd</text>
</g>
<!-- Node19&#45;&gt;Node2 -->
<g id="edge26" class="edge"><title>Node19&#45;&gt;Node2</title>
<path fill="none" stroke="#9a32cd" stroke-dasharray="5,2" d="M705.476,-391.434C724.284,-391.851 747.335,-392.294 768,-392.5 914.459,-393.957 951.615,-391.258 1097,-373.5 1117.78,-370.962 1140.53,-367.391 1160.31,-364.028"/>
<polygon fill="#9a32cd" stroke="#9a32cd" points="705.303,-387.929 695.225,-391.2 705.143,-394.927 705.303,-387.929"/>
<text text-anchor="middle" x="951" y="-414.5" font-family="Helvetica,sans-Serif" font-size="10.00"> dJdqObst</text>
<text text-anchor="middle" x="951" y="-403.5" font-family="Helvetica,sans-Serif" font-size="10.00">distObst</text>
<text text-anchor="middle" x="951" y="-392.5" font-family="Helvetica,sans-Serif" font-size="10.00">velObst</text>
</g>
<!-- Node19&#45;&gt;Node3 -->
<g id="edge25" class="edge"><title>Node19&#45;&gt;Node3</title>
<path fill="none" stroke="#9a32cd" stroke-dasharray="5,2" d="M705.362,-386.875C773.113,-380.388 915.145,-366.789 991.803,-359.45"/>
<polygon fill="#9a32cd" stroke="#9a32cd" points="704.769,-383.416 695.148,-387.853 705.436,-390.384 704.769,-383.416"/>
<text text-anchor="middle" x="870.5" y="-376.5" font-family="Helvetica,sans-Serif" font-size="10.00"> _b</text>
</g>
<!-- Node19&#45;&gt;Node4 -->
<g id="edge18" class="edge"><title>Node19&#45;&gt;Node4</title>
<path fill="none" stroke="#9a32cd" stroke-dasharray="5,2" d="M705.481,-385.594C719.934,-382.755 736.227,-378.333 750,-371.5 759.329,-366.872 759.843,-362.974 768,-356.5 787.634,-340.916 795.455,-340.403 813,-322.5 834.535,-300.526 854.301,-269.845 863.717,-254.325"/>
<polygon fill="#9a32cd" stroke="#9a32cd" points="704.578,-382.2 695.344,-387.394 705.802,-389.092 704.578,-382.2"/>
<text text-anchor="middle" x="790.5" y="-359.5" font-family="Helvetica,sans-Serif" font-size="10.00"> _value</text>
</g>
<!-- Node20 -->
<g id="node20" class="node"><title>Node20</title>
<polygon fill="white" stroke="#bfbfbf" points="638.5,-55 638.5,-74 694.5,-74 694.5,-55 638.5,-55"/>
<text text-anchor="middle" x="666.5" y="-62" font-family="Helvetica,sans-Serif" font-size="10.00">MatrixXd</text>
</g>
<!-- Node20&#45;&gt;Node2 -->
<g id="edge27" class="edge"><title>Node20&#45;&gt;Node2</title>
<path fill="none" stroke="#9a32cd" stroke-dasharray="5,2" d="M704.642,-59.3139C734.673,-56.5144 777.622,-55.7059 813,-67.5 994.072,-127.865 1163.48,-301.582 1203.57,-344.716"/>
<polygon fill="#9a32cd" stroke="#9a32cd" points="704.172,-55.8439 694.593,-60.3697 704.904,-62.8056 704.172,-55.8439"/>
<text text-anchor="middle" x="951" y="-152.5" font-family="Helvetica,sans-Serif" font-size="10.00"> JObst</text>
</g>
<!-- Node20&#45;&gt;Node4 -->
<g id="edge19" class="edge"><title>Node20&#45;&gt;Node4</title>
<path fill="none" stroke="#9a32cd" stroke-dasharray="5,2" d="M705.017,-60.5438C737.197,-59.2484 782.99,-62.6777 813,-87.5 859.876,-126.273 867.866,-207.081 869.223,-234.87"/>
<polygon fill="#9a32cd" stroke="#9a32cd" points="704.451,-57.0706 694.669,-61.1402 704.853,-64.059 704.451,-57.0706"/>
<text text-anchor="middle" x="790.5" y="-90.5" font-family="Helvetica,sans-Serif" font-size="10.00"> _jacobian</text>
</g>
<!-- Node21&#45;&gt;Node4 -->
<g id="edge20" class="edge"><title>Node21&#45;&gt;Node4</title>
<path fill="none" stroke="#9a32cd" stroke-dasharray="5,2" d="M715.232,-159.742C726.745,-162.45 738.919,-165.718 750,-169.5 779.172,-179.456 786.841,-182.196 813,-198.5 830.39,-209.339 848.396,-224.88 859.275,-234.833"/>
<polygon fill="#9a32cd" stroke="#9a32cd" points="715.853,-156.295 705.328,-157.508 714.313,-163.123 715.853,-156.295"/>
<text text-anchor="middle" x="790.5" y="-201.5" font-family="Helvetica,sans-Serif" font-size="10.00"> x</text>
</g>
<!-- Node22 -->
<g id="node22" class="node"><title>Node22</title>
<g id="a_node22"><a xlink:href="../../d0/d29/classocra_1_1Component.html" target="_top" xlink:title="ocra::Component\&lt; Variable,\l CompositeVariable, VariableParenthood \&gt;">
<polygon fill="white" stroke="black" points="344,-233.5 344,-263.5 546,-263.5 546,-233.5 344,-233.5"/>
<text text-anchor="start" x="352" y="-251.5" font-family="Helvetica,sans-Serif" font-size="10.00">ocra::Component&lt; Variable,</text>
<text text-anchor="middle" x="445" y="-240.5" font-family="Helvetica,sans-Serif" font-size="10.00"> CompositeVariable, VariableParenthood &gt;</text>
</a>
</g>
</g>
<!-- Node22&#45;&gt;Node21 -->
<g id="edge21" class="edge"><title>Node22&#45;&gt;Node21</title>
<path fill="none" stroke="midnightblue" d="M536.967,-229.038C540.097,-227.343 543.121,-225.502 546,-223.5 569.887,-206.892 558.959,-185.885 583,-169.5 596.117,-160.56 612.85,-155.782 627.813,-153.245"/>
<polygon fill="midnightblue" stroke="midnightblue" points="535.369,-225.923 527.897,-233.434 538.423,-232.222 535.369,-225.923"/>
</g>
<!-- Node23 -->
<g id="node23" class="node"><title>Node23</title>
<polygon fill="white" stroke="#bfbfbf" points="409.5,-195 409.5,-214 480.5,-214 480.5,-195 409.5,-195"/>
<text text-anchor="middle" x="445" y="-202" font-family="Helvetica,sans-Serif" font-size="10.00">noncopyable</text>
</g>
<!-- Node23&#45;&gt;Node21 -->
<g id="edge23" class="edge"><title>Node23&#45;&gt;Node21</title>
<path fill="none" stroke="#8b1a1a" d="M490.582,-197.436C508.045,-194.19 528.137,-189.855 546,-184.5 562.997,-179.404 566.079,-174.841 583,-169.5 597.437,-164.943 613.611,-160.977 627.789,-157.865"/>
<polygon fill="#8b1a1a" stroke="#8b1a1a" points="489.864,-194.009 480.641,-199.222 491.102,-200.899 489.864,-194.009"/>
</g>
<!-- Node24 -->
<g id="node24" class="node"><title>Node24</title>
<g id="a_node24"><a xlink:href="../../dc/d20/classocra_1_1VariableHasRestrictedClassDerivation.html" target="_top" xlink:title="ocra::VariableHasRestricted\lClassDerivation">
<polygon fill="white" stroke="black" points="375,-145.5 375,-175.5 515,-175.5 515,-145.5 375,-145.5"/>
<text text-anchor="start" x="383" y="-163.5" font-family="Helvetica,sans-Serif" font-size="10.00">ocra::VariableHasRestricted</text>
<text text-anchor="middle" x="445" y="-152.5" font-family="Helvetica,sans-Serif" font-size="10.00">ClassDerivation</text>
</a>
</g>
</g>
<!-- Node24&#45;&gt;Node21 -->
<g id="edge24" class="edge"><title>Node24&#45;&gt;Node21</title>
<path fill="none" stroke="#8b1a1a" d="M525.371,-156.884C560.378,-155.289 599.861,-153.49 627.974,-152.21"/>
<polygon fill="#8b1a1a" stroke="#8b1a1a" points="524.98,-153.398 515.15,-157.35 525.299,-160.391 524.98,-153.398"/>
</g>
</g>
</svg>
