<?xml version="1.0" encoding="UTF-8" standalone="no"?>
<!DOCTYPE svg PUBLIC "-//W3C//DTD SVG 1.1//EN"
 "http://www.w3.org/Graphics/SVG/1.1/DTD/svg11.dtd">
<!-- Generated by graphviz version 2.38.0 (20140413.2041)
 -->
<!-- Title: ocra::ObserverSubject Pages: 1 -->
<svg width="464pt" height="284pt"
 viewBox="0.00 0.00 464.00 284.00" xmlns="http://www.w3.org/2000/svg" xmlns:xlink="http://www.w3.org/1999/xlink">
<g id="graph0" class="graph" transform="scale(1 1) rotate(0) translate(4 280)">
<title>ocra::ObserverSubject</title>
<polygon fill="white" stroke="none" points="-4,4 -4,-280 460,-280 460,4 -4,4"/>
<!-- Node1 -->
<g id="node1" class="node"><title>Node1</title>
<polygon fill="#bfbfbf" stroke="black" points="342,-140 342,-159 456,-159 456,-140 342,-140"/>
<text text-anchor="middle" x="399" y="-147" font-family="Helvetica,sans-Serif" font-size="10.00">ocra::ObserverSubject</text>
</g>
<!-- Node2 -->
<g id="node2" class="node"><title>Node2</title>
<g id="a_node2"><a xlink:href="../../d2/d45/classocra_1_1Observer.html" target="_top" xlink:title="ocra::Observer">
<polygon fill="white" stroke="black" points="225,-177 225,-196 306,-196 306,-177 225,-177"/>
<text text-anchor="middle" x="265.5" y="-184" font-family="Helvetica,sans-Serif" font-size="10.00">ocra::Observer</text>
</a>
</g>
</g>
<!-- Node2&#45;&gt;Node1 -->
<g id="edge1" class="edge"><title>Node2&#45;&gt;Node1</title>
<path fill="none" stroke="midnightblue" d="M310.308,-174.174C327.724,-169.274 347.46,-163.72 363.793,-159.125"/>
<polygon fill="midnightblue" stroke="midnightblue" points="309.043,-170.894 300.365,-176.972 310.939,-177.632 309.043,-170.894"/>
</g>
<!-- Node3 -->
<g id="node3" class="node"><title>Node3</title>
<g id="a_node3"><a xlink:href="../../d4/dee/classocra_1_1ObserverBase.html" target="_top" xlink:title="ocra::ObserverBase\l\&lt; EVT_RESIZE \&gt;">
<polygon fill="white" stroke="black" points="42.5,-245.5 42.5,-275.5 146.5,-275.5 146.5,-245.5 42.5,-245.5"/>
<text text-anchor="start" x="50.5" y="-263.5" font-family="Helvetica,sans-Serif" font-size="10.00">ocra::ObserverBase</text>
<text text-anchor="middle" x="94.5" y="-252.5" font-family="Helvetica,sans-Serif" font-size="10.00">&lt; EVT_RESIZE &gt;</text>
</a>
</g>
</g>
<!-- Node3&#45;&gt;Node2 -->
<g id="edge2" class="edge"><title>Node3&#45;&gt;Node2</title>
<path fill="none" stroke="midnightblue" d="M156.217,-248.067C167.347,-244.909 178.694,-241.079 189,-236.5 213.137,-225.776 238.109,-207.594 252.426,-196.361"/>
<polygon fill="midnightblue" stroke="midnightblue" points="155.272,-244.696 146.523,-250.671 157.089,-251.457 155.272,-244.696"/>
</g>
<!-- Node4 -->
<g id="node4" class="node"><title>Node4</title>
<g id="a_node4"><a xlink:href="../../d4/dee/classocra_1_1ObserverBase.html" target="_top" xlink:title="ocra::ObserverBase\l\&lt; EVT_CHANGE_DEPENDENCIES \&gt;">
<polygon fill="white" stroke="black" points="0,-196.5 0,-226.5 189,-226.5 189,-196.5 0,-196.5"/>
<text text-anchor="start" x="8" y="-214.5" font-family="Helvetica,sans-Serif" font-size="10.00">ocra::ObserverBase</text>
<text text-anchor="middle" x="94.5" y="-203.5" font-family="Helvetica,sans-Serif" font-size="10.00">&lt; EVT_CHANGE_DEPENDENCIES &gt;</text>
</a>
</g>
</g>
<!-- Node4&#45;&gt;Node2 -->
<g id="edge3" class="edge"><title>Node4&#45;&gt;Node2</title>
<path fill="none" stroke="midnightblue" d="M199.526,-196.111C208.41,-194.797 216.989,-193.528 224.84,-192.367"/>
<polygon fill="midnightblue" stroke="midnightblue" points="198.77,-192.685 189.39,-197.611 199.795,-199.61 198.77,-192.685"/>
</g>
<!-- Node5 -->
<g id="node5" class="node"><title>Node5</title>
<g id="a_node5"><a xlink:href="../../d4/dee/classocra_1_1ObserverBase.html" target="_top" xlink:title="ocra::ObserverBase\l\&lt; EVT_CHANGE_VALUE \&gt;">
<polygon fill="white" stroke="black" points="24,-147.5 24,-177.5 165,-177.5 165,-147.5 24,-147.5"/>
<text text-anchor="start" x="32" y="-165.5" font-family="Helvetica,sans-Serif" font-size="10.00">ocra::ObserverBase</text>
<text text-anchor="middle" x="94.5" y="-154.5" font-family="Helvetica,sans-Serif" font-size="10.00">&lt; EVT_CHANGE_VALUE &gt;</text>
</a>
</g>
</g>
<!-- Node5&#45;&gt;Node2 -->
<g id="edge4" class="edge"><title>Node5&#45;&gt;Node2</title>
<path fill="none" stroke="midnightblue" d="M175.313,-173.834C192.551,-176.282 210.051,-178.768 224.93,-180.881"/>
<polygon fill="midnightblue" stroke="midnightblue" points="175.607,-170.341 165.214,-172.4 174.623,-177.272 175.607,-170.341"/>
</g>
<!-- Node6 -->
<g id="node6" class="node"><title>Node6</title>
<g id="a_node6"><a xlink:href="../../dc/d77/classocra_1_1Subject.html" target="_top" xlink:title="ocra::Subject">
<polygon fill="white" stroke="black" points="228.5,-79 228.5,-98 302.5,-98 302.5,-79 228.5,-79"/>
<text text-anchor="middle" x="265.5" y="-86" font-family="Helvetica,sans-Serif" font-size="10.00">ocra::Subject</text>
</a>
</g>
</g>
<!-- Node6&#45;&gt;Node1 -->
<g id="edge5" class="edge"><title>Node6&#45;&gt;Node1</title>
<path fill="none" stroke="midnightblue" d="M296.301,-102.324C320.963,-113.764 355.369,-129.724 377.163,-139.834"/>
<polygon fill="midnightblue" stroke="midnightblue" points="297.591,-99.0644 287.047,-98.0312 294.646,-105.414 297.591,-99.0644"/>
</g>
<!-- Node7 -->
<g id="node7" class="node"><title>Node7</title>
<g id="a_node7"><a xlink:href="../../dc/d29/classocra_1_1SubjectBase.html" target="_top" xlink:title="ocra::SubjectBase\&lt;\l EVT_RESIZE \&gt;">
<polygon fill="white" stroke="black" points="43,-98.5 43,-128.5 146,-128.5 146,-98.5 43,-98.5"/>
<text text-anchor="start" x="51" y="-116.5" font-family="Helvetica,sans-Serif" font-size="10.00">ocra::SubjectBase&lt;</text>
<text text-anchor="middle" x="94.5" y="-105.5" font-family="Helvetica,sans-Serif" font-size="10.00"> EVT_RESIZE &gt;</text>
</a>
</g>
</g>
<!-- Node7&#45;&gt;Node6 -->
<g id="edge6" class="edge"><title>Node7&#45;&gt;Node6</title>
<path fill="none" stroke="midnightblue" d="M156.345,-104.499C180.463,-100.932 207.377,-96.9502 228.323,-93.8516"/>
<polygon fill="midnightblue" stroke="midnightblue" points="155.586,-101.073 146.206,-105.999 156.61,-107.998 155.586,-101.073"/>
</g>
<!-- Node8 -->
<g id="node8" class="node"><title>Node8</title>
<g id="a_node8"><a xlink:href="../../dc/d29/classocra_1_1SubjectBase.html" target="_top" xlink:title="ocra::SubjectBase\&lt;\l EVT_CHANGE_DEPENDENCIES \&gt;">
<polygon fill="white" stroke="black" points="3,-49.5 3,-79.5 186,-79.5 186,-49.5 3,-49.5"/>
<text text-anchor="start" x="11" y="-67.5" font-family="Helvetica,sans-Serif" font-size="10.00">ocra::SubjectBase&lt;</text>
<text text-anchor="middle" x="94.5" y="-56.5" font-family="Helvetica,sans-Serif" font-size="10.00"> EVT_CHANGE_DEPENDENCIES &gt;</text>
</a>
</g>
</g>
<!-- Node8&#45;&gt;Node6 -->
<g id="edge7" class="edge"><title>Node8&#45;&gt;Node6</title>
<path fill="none" stroke="midnightblue" d="M196.458,-78.8372C207.772,-80.444 218.677,-81.9926 228.318,-83.3618"/>
<polygon fill="midnightblue" stroke="midnightblue" points="196.824,-75.3541 186.431,-77.4133 195.84,-82.2846 196.824,-75.3541"/>
</g>
<!-- Node9 -->
<g id="node9" class="node"><title>Node9</title>
<g id="a_node9"><a xlink:href="../../dc/d29/classocra_1_1SubjectBase.html" target="_top" xlink:title="ocra::SubjectBase\&lt;\l EVT_CHANGE_VALUE \&gt;">
<polygon fill="white" stroke="black" points="27,-0.5 27,-30.5 162,-30.5 162,-0.5 27,-0.5"/>
<text text-anchor="start" x="35" y="-18.5" font-family="Helvetica,sans-Serif" font-size="10.00">ocra::SubjectBase&lt;</text>
<text text-anchor="middle" x="94.5" y="-7.5" font-family="Helvetica,sans-Serif" font-size="10.00"> EVT_CHANGE_VALUE &gt;</text>
</a>
</g>
</g>
<!-- Node9&#45;&gt;Node6 -->
<g id="edge8" class="edge"><title>Node9&#45;&gt;Node6</title>
<path fill="none" stroke="midnightblue" d="M171.331,-33.6388C177.389,-35.732 183.346,-38.0172 189,-40.5 212.75,-50.9295 237.643,-68.1783 252.081,-78.911"/>
<polygon fill="midnightblue" stroke="midnightblue" points="172.352,-30.2904 161.76,-30.5069 170.175,-36.9433 172.352,-30.2904"/>
</g>
</g>
</svg>
