<?xml version="1.0" encoding="UTF-8" standalone="no"?>
<!DOCTYPE svg PUBLIC "-//W3C//DTD SVG 1.1//EN"
 "http://www.w3.org/Graphics/SVG/1.1/DTD/svg11.dtd">
<!-- Generated by graphviz version 2.38.0 (20140413.2041)
 -->
<!-- Title: ocra::Task::Pimpl Pages: 1 -->
<svg width="1684pt" height="578pt"
 viewBox="0.00 0.00 1684.00 578.09" xmlns="http://www.w3.org/2000/svg" xmlns:xlink="http://www.w3.org/1999/xlink">
<g id="graph0" class="graph" transform="scale(1 1) rotate(0) translate(4 574.089)">
<title>ocra::Task::Pimpl</title>
<polygon fill="white" stroke="none" points="-4,4 -4,-574.089 1680,-574.089 1680,4 -4,4"/>
<!-- Node1 -->
<g id="node1" class="node"><title>Node1</title>
<polygon fill="#bfbfbf" stroke="black" points="1582,-359.589 1582,-378.589 1676,-378.589 1676,-359.589 1582,-359.589"/>
<text text-anchor="middle" x="1629" y="-366.589" font-family="Helvetica,sans-Serif" font-size="10.00">ocra::Task::Pimpl</text>
</g>
<!-- Node2 -->
<g id="node2" class="node"><title>Node2</title>
<polygon fill="white" stroke="#bfbfbf" points="1273,-540.589 1273,-559.589 1416,-559.589 1416,-540.589 1273,-540.589"/>
<text text-anchor="middle" x="1344.5" y="-547.589" font-family="Helvetica,sans-Serif" font-size="10.00">anonymous:gainsWorkspace</text>
</g>
<!-- Node2&#45;&gt;Node1 -->
<g id="edge1" class="edge"><title>Node2&#45;&gt;Node1</title>
<path fill="none" stroke="#9a32cd" stroke-dasharray="5,2" d="M1423.25,-560.086C1468.54,-561.713 1524.35,-556.013 1564,-526.089 1613.34,-488.851 1624.8,-407.06 1627.32,-378.868"/>
<polygon fill="#9a32cd" stroke="#9a32cd" points="1423.32,-556.585 1413.16,-559.598 1422.98,-563.577 1423.32,-556.585"/>
<text text-anchor="middle" x="1511.5" y="-562.089" font-family="Helvetica,sans-Serif" font-size="10.00"> gainsWorkspace</text>
</g>
<!-- Node3 -->
<g id="node3" class="node"><title>Node3</title>
<g id="a_node3"><a xlink:href="../../df/d6c/classocra_1_1Objective.html" target="_top" xlink:title="ocra::Objective\&lt; ocra\l::SquaredLinearFunction \&gt;">
<polygon fill="white" stroke="black" points="1279,-491.089 1279,-521.089 1410,-521.089 1410,-491.089 1279,-491.089"/>
<text text-anchor="start" x="1287" y="-509.089" font-family="Helvetica,sans-Serif" font-size="10.00">ocra::Objective&lt; ocra</text>
<text text-anchor="middle" x="1344.5" y="-498.089" font-family="Helvetica,sans-Serif" font-size="10.00">::SquaredLinearFunction &gt;</text>
</a>
</g>
</g>
<!-- Node3&#45;&gt;Node1 -->
<g id="edge2" class="edge"><title>Node3&#45;&gt;Node1</title>
<path fill="none" stroke="#9a32cd" stroke-dasharray="5,2" d="M1420.46,-513.248C1465.52,-513.859 1522.05,-507.761 1564,-480.089 1601.32,-455.47 1619.49,-401.083 1625.58,-378.849"/>
<polygon fill="#9a32cd" stroke="#9a32cd" points="1420.53,-509.749 1410.45,-513.001 1420.36,-516.747 1420.53,-509.749"/>
<text text-anchor="middle" x="1511.5" y="-514.089" font-family="Helvetica,sans-Serif" font-size="10.00"> innerTaskAsObjective</text>
</g>
<!-- Node4 -->
<g id="node4" class="node"><title>Node4</title>
<g id="a_node4"><a xlink:href="../../d1/d29/structocra_1_1FunctionInterfaceMapping.html" target="_top" xlink:title="ocra::FunctionInterfaceMapping\l\&lt; Objective\&lt; ocra::SquaredLinearFunction \&gt; \&gt;">
<polygon fill="white" stroke="black" points="967,-498.089 967,-528.089 1185,-528.089 1185,-498.089 967,-498.089"/>
<text text-anchor="start" x="975" y="-516.089" font-family="Helvetica,sans-Serif" font-size="10.00">ocra::FunctionInterfaceMapping</text>
<text text-anchor="middle" x="1076" y="-505.089" font-family="Helvetica,sans-Serif" font-size="10.00">&lt; Objective&lt; ocra::SquaredLinearFunction &gt; &gt;</text>
</a>
</g>
</g>
<!-- Node4&#45;&gt;Node3 -->
<g id="edge3" class="edge"><title>Node4&#45;&gt;Node3</title>
<path fill="none" stroke="midnightblue" d="M1195.11,-509.987C1223.81,-509.233 1253.45,-508.455 1278.62,-507.794"/>
<polygon fill="midnightblue" stroke="midnightblue" points="1194.92,-506.491 1185.01,-510.252 1195.1,-513.489 1194.92,-506.491"/>
</g>
<!-- Node5 -->
<g id="node5" class="node"><title>Node5</title>
<g id="a_node5"><a xlink:href="../../d5/d01/classocra_1_1EqualZeroConstraintPtr.html" target="_top" xlink:title="ocra::EqualZeroConstraint\lPtr\&lt; ocra::LinearFunction \&gt;">
<polygon fill="white" stroke="black" points="1276.5,-442.089 1276.5,-472.089 1412.5,-472.089 1412.5,-442.089 1276.5,-442.089"/>
<text text-anchor="start" x="1284.5" y="-460.089" font-family="Helvetica,sans-Serif" font-size="10.00">ocra::EqualZeroConstraint</text>
<text text-anchor="middle" x="1344.5" y="-449.089" font-family="Helvetica,sans-Serif" font-size="10.00">Ptr&lt; ocra::LinearFunction &gt;</text>
</a>
</g>
</g>
<!-- Node5&#45;&gt;Node1 -->
<g id="edge4" class="edge"><title>Node5&#45;&gt;Node1</title>
<path fill="none" stroke="#9a32cd" stroke-dasharray="5,2" d="M1423.1,-457.534C1466.35,-455.11 1520.15,-447.539 1564,-427.089 1588.19,-415.809 1609.68,-392.175 1620.53,-378.82"/>
<polygon fill="#9a32cd" stroke="#9a32cd" points="1422.74,-454.047 1412.92,-458.021 1423.07,-461.039 1422.74,-454.047"/>
<text text-anchor="middle" x="1511.5" y="-468.089" font-family="Helvetica,sans-Serif" font-size="10.00"> innerTaskAsConstraint</text>
<text text-anchor="middle" x="1511.5" y="-457.089" font-family="Helvetica,sans-Serif" font-size="10.00">ContactForceConstraint</text>
</g>
<!-- Node6 -->
<g id="node6" class="node"><title>Node6</title>
<polygon fill="white" stroke="#bfbfbf" points="638,-384.589 638,-403.589 695,-403.589 695,-384.589 638,-384.589"/>
<text text-anchor="middle" x="666.5" y="-391.589" font-family="Helvetica,sans-Serif" font-size="10.00">VectorXd</text>
</g>
<!-- Node6&#45;&gt;Node1 -->
<g id="edge5" class="edge"><title>Node6&#45;&gt;Node1</title>
<path fill="none" stroke="#9a32cd" stroke-dasharray="5,2" d="M705.34,-399.537C747.676,-405.151 818.351,-413.089 879.5,-413.089 879.5,-413.089 879.5,-413.089 1345.5,-413.089 1434.35,-413.089 1537.06,-391.578 1590.82,-378.637"/>
<polygon fill="#9a32cd" stroke="#9a32cd" points="705.589,-396.038 695.21,-398.165 704.65,-402.975 705.589,-396.038"/>
<text text-anchor="middle" x="1076" y="-471.089" font-family="Helvetica,sans-Serif" font-size="10.00"> output</text>
<text text-anchor="middle" x="1076" y="-460.089" font-family="Helvetica,sans-Serif" font-size="10.00">error</text>
<text text-anchor="middle" x="1076" y="-449.089" font-family="Helvetica,sans-Serif" font-size="10.00">errorDot</text>
<text text-anchor="middle" x="1076" y="-438.089" font-family="Helvetica,sans-Serif" font-size="10.00">weight</text>
<text text-anchor="middle" x="1076" y="-427.089" font-family="Helvetica,sans-Serif" font-size="10.00">errorDdot</text>
<text text-anchor="middle" x="1076" y="-416.089" font-family="Helvetica,sans-Serif" font-size="10.00">effort</text>
</g>
<!-- Node8 -->
<g id="node8" class="node"><title>Node8</title>
<g id="a_node8"><a xlink:href="../../de/d3a/classocra_1_1LinearFunction.html" target="_top" xlink:title="LinearFunction class. ">
<polygon fill="white" stroke="black" points="1023.5,-331.589 1023.5,-350.589 1128.5,-350.589 1128.5,-331.589 1023.5,-331.589"/>
<text text-anchor="middle" x="1076" y="-338.589" font-family="Helvetica,sans-Serif" font-size="10.00">ocra::LinearFunction</text>
</a>
</g>
</g>
<!-- Node6&#45;&gt;Node8 -->
<g id="edge30" class="edge"><title>Node6&#45;&gt;Node8</title>
<path fill="none" stroke="#9a32cd" stroke-dasharray="5,2" d="M705.353,-389.166C778.721,-379.624 940.353,-358.602 1023.45,-347.795"/>
<polygon fill="#9a32cd" stroke="#9a32cd" points="704.654,-385.728 695.189,-390.488 705.557,-392.669 704.654,-385.728"/>
<text text-anchor="middle" x="880.5" y="-376.089" font-family="Helvetica,sans-Serif" font-size="10.00"> _b</text>
</g>
<!-- Node9 -->
<g id="node9" class="node"><title>Node9</title>
<g id="a_node9"><a xlink:href="../../d2/d99/classocra_1_1Function.html" target="_top" xlink:title="Function class. ">
<polygon fill="white" stroke="black" points="841,-251.589 841,-270.589 920,-270.589 920,-251.589 841,-251.589"/>
<text text-anchor="middle" x="880.5" y="-258.589" font-family="Helvetica,sans-Serif" font-size="10.00">ocra::Function</text>
</a>
</g>
</g>
<!-- Node6&#45;&gt;Node9 -->
<g id="edge23" class="edge"><title>Node6&#45;&gt;Node9</title>
<path fill="none" stroke="#9a32cd" stroke-dasharray="5,2" d="M705.295,-384.476C719.482,-380.509 735.641,-375.556 750,-370.089 764.492,-364.573 800.729,-349.569 813,-340.089 839.53,-319.594 862.785,-286.888 873.393,-270.746"/>
<polygon fill="#9a32cd" stroke="#9a32cd" points="704.093,-381.176 695.367,-387.184 705.936,-387.929 704.093,-381.176"/>
<text text-anchor="middle" x="790.5" y="-366.089" font-family="Helvetica,sans-Serif" font-size="10.00"> _value</text>
</g>
<!-- Node7 -->
<g id="node7" class="node"><title>Node7</title>
<g id="a_node7"><a xlink:href="../../de/ddd/classocra_1_1FullDynamicEquationFunction.html" target="_top" xlink:title="Create a linear function that represents the dynamic equation of motion. ">
<polygon fill="white" stroke="black" points="1277.5,-354.089 1277.5,-384.089 1411.5,-384.089 1411.5,-354.089 1277.5,-354.089"/>
<text text-anchor="start" x="1285.5" y="-372.089" font-family="Helvetica,sans-Serif" font-size="10.00">ocra::FullDynamicEquation</text>
<text text-anchor="middle" x="1344.5" y="-361.089" font-family="Helvetica,sans-Serif" font-size="10.00">Function</text>
</a>
</g>
</g>
<!-- Node7&#45;&gt;Node1 -->
<g id="edge6" class="edge"><title>Node7&#45;&gt;Node1</title>
<path fill="none" stroke="#9a32cd" stroke-dasharray="5,2" d="M1422.05,-369.089C1473.02,-369.089 1538.33,-369.089 1581.59,-369.089"/>
<polygon fill="#9a32cd" stroke="#9a32cd" points="1421.73,-365.59 1411.73,-369.089 1421.73,-372.59 1421.73,-365.59"/>
<text text-anchor="middle" x="1511.5" y="-372.089" font-family="Helvetica,sans-Serif" font-size="10.00"> dynamicEquation</text>
</g>
<!-- Node8&#45;&gt;Node1 -->
<g id="edge36" class="edge"><title>Node8&#45;&gt;Node1</title>
<path fill="none" stroke="#9a32cd" stroke-dasharray="5,2" d="M1138.86,-337.497C1171.34,-335.788 1211.81,-333.936 1248,-333.089 1333.75,-331.085 1355.61,-324.945 1441,-333.089 1493.17,-338.065 1552.42,-350.68 1589.99,-359.567"/>
<polygon fill="#9a32cd" stroke="#9a32cd" points="1138.41,-334.016 1128.61,-338.046 1138.78,-341.006 1138.41,-334.016"/>
<text text-anchor="middle" x="1344.5" y="-336.089" font-family="Helvetica,sans-Serif" font-size="10.00"> innerObjectiveFunction</text>
</g>
<!-- Node8&#45;&gt;Node7 -->
<g id="edge7" class="edge"><title>Node8&#45;&gt;Node7</title>
<path fill="none" stroke="midnightblue" d="M1138.68,-347.57C1180.18,-351.93 1234.85,-357.674 1277.27,-362.13"/>
<polygon fill="midnightblue" stroke="midnightblue" points="1139.01,-344.086 1128.7,-346.521 1138.28,-351.047 1139.01,-344.086"/>
</g>
<!-- Node9&#45;&gt;Node8 -->
<g id="edge8" class="edge"><title>Node9&#45;&gt;Node8</title>
<path fill="none" stroke="midnightblue" d="M914.194,-274.606C953.259,-290.757 1017.63,-317.369 1051.88,-331.53"/>
<polygon fill="midnightblue" stroke="midnightblue" points="915.419,-271.326 904.841,-270.739 912.745,-277.795 915.419,-271.326"/>
</g>
<!-- Node10 -->
<g id="node10" class="node"><title>Node10</title>
<g id="a_node10"><a xlink:href="../../d3/d16/classocra_1_1ObserverSubject.html" target="_top" xlink:title="ocra::ObserverSubject">
<polygon fill="white" stroke="black" points="388,-243.589 388,-262.589 502,-262.589 502,-243.589 388,-243.589"/>
<text text-anchor="middle" x="445" y="-250.589" font-family="Helvetica,sans-Serif" font-size="10.00">ocra::ObserverSubject</text>
</a>
</g>
</g>
<!-- Node10&#45;&gt;Node9 -->
<g id="edge9" class="edge"><title>Node10&#45;&gt;Node9</title>
<path fill="none" stroke="midnightblue" d="M464.597,-269.213C489.547,-289.668 536.163,-323.874 583,-337.089 654.433,-357.245 678.151,-355.707 750,-337.089 781.007,-329.055 785.36,-318.277 813,-302.089 830.79,-291.671 850.898,-279.17 864.3,-270.733"/>
<polygon fill="midnightblue" stroke="midnightblue" points="466.624,-266.346 456.71,-262.608 462.129,-271.712 466.624,-266.346"/>
</g>
<!-- Node25 -->
<g id="node25" class="node"><title>Node25</title>
<g id="a_node25"><a xlink:href="../../d2/dac/classocra_1_1Variable.html" target="_top" xlink:title="This class represents a variable in a mathematical sense. ">
<polygon fill="white" stroke="black" points="628,-68.5895 628,-87.5895 705,-87.5895 705,-68.5895 628,-68.5895"/>
<text text-anchor="middle" x="666.5" y="-75.5895" font-family="Helvetica,sans-Serif" font-size="10.00">ocra::Variable</text>
</a>
</g>
</g>
<!-- Node10&#45;&gt;Node25 -->
<g id="edge27" class="edge"><title>Node10&#45;&gt;Node25</title>
<path fill="none" stroke="midnightblue" d="M463.035,-235.994C483.417,-215.288 518.263,-179.075 546,-146.089 563.563,-125.203 560.102,-111.935 583,-97.0895 596.196,-88.5342 612.774,-83.8113 627.601,-81.2118"/>
<polygon fill="midnightblue" stroke="midnightblue" points="460.278,-233.805 455.734,-243.377 465.255,-238.728 460.278,-233.805"/>
</g>
<!-- Node11 -->
<g id="node11" class="node"><title>Node11</title>
<g id="a_node11"><a xlink:href="../../d2/d45/classocra_1_1Observer.html" target="_top" xlink:title="ocra::Observer">
<polygon fill="white" stroke="black" points="226,-314.589 226,-333.589 307,-333.589 307,-314.589 226,-314.589"/>
<text text-anchor="middle" x="266.5" y="-321.589" font-family="Helvetica,sans-Serif" font-size="10.00">ocra::Observer</text>
</a>
</g>
</g>
<!-- Node11&#45;&gt;Node10 -->
<g id="edge10" class="edge"><title>Node11&#45;&gt;Node10</title>
<path fill="none" stroke="midnightblue" d="M300.591,-310.778C335.446,-296.757 389.463,-275.028 420.292,-262.626"/>
<polygon fill="midnightblue" stroke="midnightblue" points="299.275,-307.535 291.304,-314.514 301.887,-314.029 299.275,-307.535"/>
</g>
<!-- Node12 -->
<g id="node12" class="node"><title>Node12</title>
<g id="a_node12"><a xlink:href="../../d4/dee/classocra_1_1ObserverBase.html" target="_top" xlink:title="ocra::ObserverBase\l\&lt; EVT_RESIZE \&gt;">
<polygon fill="white" stroke="black" points="42.5,-383.089 42.5,-413.089 146.5,-413.089 146.5,-383.089 42.5,-383.089"/>
<text text-anchor="start" x="50.5" y="-401.089" font-family="Helvetica,sans-Serif" font-size="10.00">ocra::ObserverBase</text>
<text text-anchor="middle" x="94.5" y="-390.089" font-family="Helvetica,sans-Serif" font-size="10.00">&lt; EVT_RESIZE &gt;</text>
</a>
</g>
</g>
<!-- Node12&#45;&gt;Node11 -->
<g id="edge11" class="edge"><title>Node12&#45;&gt;Node11</title>
<path fill="none" stroke="midnightblue" d="M156.871,-384.592C167.777,-381.377 178.878,-377.555 189,-373.089 213.243,-362.395 238.613,-344.634 253.19,-333.688"/>
<polygon fill="midnightblue" stroke="midnightblue" points="155.628,-381.305 146.943,-387.374 157.517,-388.046 155.628,-381.305"/>
</g>
<!-- Node13 -->
<g id="node13" class="node"><title>Node13</title>
<g id="a_node13"><a xlink:href="../../d4/dee/classocra_1_1ObserverBase.html" target="_top" xlink:title="ocra::ObserverBase\l\&lt; EVT_CHANGE_DEPENDENCIES \&gt;">
<polygon fill="white" stroke="black" points="0,-334.089 0,-364.089 189,-364.089 189,-334.089 0,-334.089"/>
<text text-anchor="start" x="8" y="-352.089" font-family="Helvetica,sans-Serif" font-size="10.00">ocra::ObserverBase</text>
<text text-anchor="middle" x="94.5" y="-341.089" font-family="Helvetica,sans-Serif" font-size="10.00">&lt; EVT_CHANGE_DEPENDENCIES &gt;</text>
</a>
</g>
</g>
<!-- Node13&#45;&gt;Node11 -->
<g id="edge12" class="edge"><title>Node13&#45;&gt;Node11</title>
<path fill="none" stroke="midnightblue" d="M199.529,-333.791C208.724,-332.439 217.605,-331.133 225.713,-329.941"/>
<polygon fill="midnightblue" stroke="midnightblue" points="198.834,-330.356 189.45,-335.273 199.853,-337.281 198.834,-330.356"/>
</g>
<!-- Node14 -->
<g id="node14" class="node"><title>Node14</title>
<g id="a_node14"><a xlink:href="../../d4/dee/classocra_1_1ObserverBase.html" target="_top" xlink:title="ocra::ObserverBase\l\&lt; EVT_CHANGE_VALUE \&gt;">
<polygon fill="white" stroke="black" points="24,-285.089 24,-315.089 165,-315.089 165,-285.089 24,-285.089"/>
<text text-anchor="start" x="32" y="-303.089" font-family="Helvetica,sans-Serif" font-size="10.00">ocra::ObserverBase</text>
<text text-anchor="middle" x="94.5" y="-292.089" font-family="Helvetica,sans-Serif" font-size="10.00">&lt; EVT_CHANGE_VALUE &gt;</text>
</a>
</g>
</g>
<!-- Node14&#45;&gt;Node11 -->
<g id="edge13" class="edge"><title>Node14&#45;&gt;Node11</title>
<path fill="none" stroke="midnightblue" d="M175.415,-311.372C192.968,-313.85 210.811,-316.369 225.936,-318.504"/>
<polygon fill="midnightblue" stroke="midnightblue" points="175.527,-307.853 165.136,-309.92 174.549,-314.784 175.527,-307.853"/>
</g>
<!-- Node15 -->
<g id="node15" class="node"><title>Node15</title>
<g id="a_node15"><a xlink:href="../../dc/d77/classocra_1_1Subject.html" target="_top" xlink:title="ocra::Subject">
<polygon fill="white" stroke="black" points="229.5,-213.589 229.5,-232.589 303.5,-232.589 303.5,-213.589 229.5,-213.589"/>
<text text-anchor="middle" x="266.5" y="-220.589" font-family="Helvetica,sans-Serif" font-size="10.00">ocra::Subject</text>
</a>
</g>
</g>
<!-- Node15&#45;&gt;Node10 -->
<g id="edge14" class="edge"><title>Node15&#45;&gt;Node10</title>
<path fill="none" stroke="midnightblue" d="M313.732,-230.948C336.501,-234.818 364.139,-239.515 388.089,-243.586"/>
<polygon fill="midnightblue" stroke="midnightblue" points="314.088,-227.458 303.643,-229.233 312.915,-234.359 314.088,-227.458"/>
</g>
<!-- Node16 -->
<g id="node16" class="node"><title>Node16</title>
<g id="a_node16"><a xlink:href="../../dc/d29/classocra_1_1SubjectBase.html" target="_top" xlink:title="ocra::SubjectBase\&lt;\l EVT_RESIZE \&gt;">
<polygon fill="white" stroke="black" points="43,-236.089 43,-266.089 146,-266.089 146,-236.089 43,-236.089"/>
<text text-anchor="start" x="51" y="-254.089" font-family="Helvetica,sans-Serif" font-size="10.00">ocra::SubjectBase&lt;</text>
<text text-anchor="middle" x="94.5" y="-243.089" font-family="Helvetica,sans-Serif" font-size="10.00"> EVT_RESIZE &gt;</text>
</a>
</g>
</g>
<!-- Node16&#45;&gt;Node15 -->
<g id="edge15" class="edge"><title>Node16&#45;&gt;Node15</title>
<path fill="none" stroke="midnightblue" d="M156.006,-241.124C180.573,-237.077 208.125,-232.539 229.446,-229.028"/>
<polygon fill="midnightblue" stroke="midnightblue" points="155.344,-237.686 146.045,-242.764 156.481,-244.593 155.344,-237.686"/>
</g>
<!-- Node17 -->
<g id="node17" class="node"><title>Node17</title>
<g id="a_node17"><a xlink:href="../../dc/d29/classocra_1_1SubjectBase.html" target="_top" xlink:title="ocra::SubjectBase\&lt;\l EVT_CHANGE_DEPENDENCIES \&gt;">
<polygon fill="white" stroke="black" points="3,-187.089 3,-217.089 186,-217.089 186,-187.089 3,-187.089"/>
<text text-anchor="start" x="11" y="-205.089" font-family="Helvetica,sans-Serif" font-size="10.00">ocra::SubjectBase&lt;</text>
<text text-anchor="middle" x="94.5" y="-194.089" font-family="Helvetica,sans-Serif" font-size="10.00"> EVT_CHANGE_DEPENDENCIES &gt;</text>
</a>
</g>
</g>
<!-- Node17&#45;&gt;Node15 -->
<g id="edge16" class="edge"><title>Node17&#45;&gt;Node15</title>
<path fill="none" stroke="midnightblue" d="M196.712,-214.592C208.269,-216.02 219.411,-217.396 229.239,-218.61"/>
<polygon fill="midnightblue" stroke="midnightblue" points="196.826,-211.08 186.472,-213.327 195.968,-218.027 196.826,-211.08"/>
</g>
<!-- Node18 -->
<g id="node18" class="node"><title>Node18</title>
<g id="a_node18"><a xlink:href="../../dc/d29/classocra_1_1SubjectBase.html" target="_top" xlink:title="ocra::SubjectBase\&lt;\l EVT_CHANGE_VALUE \&gt;">
<polygon fill="white" stroke="black" points="27,-138.089 27,-168.089 162,-168.089 162,-138.089 27,-138.089"/>
<text text-anchor="start" x="35" y="-156.089" font-family="Helvetica,sans-Serif" font-size="10.00">ocra::SubjectBase&lt;</text>
<text text-anchor="middle" x="94.5" y="-145.089" font-family="Helvetica,sans-Serif" font-size="10.00"> EVT_CHANGE_VALUE &gt;</text>
</a>
</g>
</g>
<!-- Node18&#45;&gt;Node15 -->
<g id="edge17" class="edge"><title>Node18&#45;&gt;Node15</title>
<path fill="none" stroke="midnightblue" d="M172.021,-170.765C177.834,-172.703 183.553,-174.81 189,-177.089 212.589,-186.96 237.55,-203.216 252.315,-213.526"/>
<polygon fill="midnightblue" stroke="midnightblue" points="172.771,-167.332 162.182,-167.662 170.666,-174.008 172.771,-167.332"/>
</g>
<!-- Node19 -->
<g id="node19" class="node"><title>Node19</title>
<g id="a_node19"><a xlink:href="../../dd/d68/classocra_1_1IFunctionProperties.html" target="_top" xlink:title="ocra::IFunctionProperties">
<polygon fill="white" stroke="black" points="603.5,-308.589 603.5,-327.589 729.5,-327.589 729.5,-308.589 603.5,-308.589"/>
<text text-anchor="middle" x="666.5" y="-315.589" font-family="Helvetica,sans-Serif" font-size="10.00">ocra::IFunctionProperties</text>
</a>
</g>
</g>
<!-- Node19&#45;&gt;Node9 -->
<g id="edge18" class="edge"><title>Node19&#45;&gt;Node9</title>
<path fill="none" stroke="midnightblue" d="M717.833,-306.106C728.468,-303.513 739.613,-300.749 750,-298.089 778.095,-290.895 785.111,-289.044 813,-281.089 824.594,-277.783 837.277,-274.007 848.429,-270.634"/>
<polygon fill="midnightblue" stroke="midnightblue" points="716.728,-302.772 707.835,-308.531 718.378,-309.575 716.728,-302.772"/>
</g>
<!-- Node20 -->
<g id="node20" class="node"><title>Node20</title>
<polygon fill="white" stroke="#bfbfbf" points="583,-259.089 583,-289.089 750,-289.089 750,-259.089 583,-259.089"/>
<text text-anchor="start" x="591" y="-277.089" font-family="Helvetica,sans-Serif" font-size="10.00">OCRA_FUNCTION_INTERFACE</text>
<text text-anchor="middle" x="666.5" y="-266.089" font-family="Helvetica,sans-Serif" font-size="10.00">_INHERITANCEpublic</text>
</g>
<!-- Node20&#45;&gt;Node9 -->
<g id="edge19" class="edge"><title>Node20&#45;&gt;Node9</title>
<path fill="none" stroke="#8b1a1a" d="M760.421,-268.391C788.709,-266.657 818.259,-264.845 840.845,-263.46"/>
<polygon fill="#8b1a1a" stroke="#8b1a1a" points="759.839,-264.921 750.072,-269.026 760.267,-271.907 759.839,-264.921"/>
</g>
<!-- Node21 -->
<g id="node21" class="node"><title>Node21</title>
<g id="a_node21"><a xlink:href="../../db/de3/classocra_1_1NamedInstance.html" target="_top" xlink:title="ocra::NamedInstance">
<polygon fill="white" stroke="black" points="611.5,-220.589 611.5,-239.589 721.5,-239.589 721.5,-220.589 611.5,-220.589"/>
<text text-anchor="middle" x="666.5" y="-227.589" font-family="Helvetica,sans-Serif" font-size="10.00">ocra::NamedInstance</text>
</a>
</g>
</g>
<!-- Node21&#45;&gt;Node9 -->
<g id="edge20" class="edge"><title>Node21&#45;&gt;Node9</title>
<path fill="none" stroke="midnightblue" d="M731.854,-239.5C767.465,-244.707 810.533,-251.005 840.939,-255.451"/>
<polygon fill="midnightblue" stroke="midnightblue" points="731.946,-235.976 721.545,-237.992 730.933,-242.902 731.946,-235.976"/>
</g>
<!-- Node22 -->
<g id="node22" class="node"><title>Node22</title>
<g id="a_node22"><a xlink:href="../../d8/d24/classocra_1_1AbilitySet.html" target="_top" xlink:title="ocra::AbilitySet">
<polygon fill="white" stroke="black" points="625,-182.589 625,-201.589 708,-201.589 708,-182.589 625,-182.589"/>
<text text-anchor="middle" x="666.5" y="-189.589" font-family="Helvetica,sans-Serif" font-size="10.00">ocra::AbilitySet</text>
</a>
</g>
</g>
<!-- Node22&#45;&gt;Node9 -->
<g id="edge21" class="edge"><title>Node22&#45;&gt;Node9</title>
<path fill="none" stroke="midnightblue" d="M718.084,-202.542C728.701,-205.069 739.777,-207.956 750,-211.089 788.48,-222.884 831.865,-240.568 857.38,-251.438"/>
<polygon fill="midnightblue" stroke="midnightblue" points="718.619,-199.073 708.087,-200.232 717.043,-205.893 718.619,-199.073"/>
</g>
<!-- Node23 -->
<g id="node23" class="node"><title>Node23</title>
<g id="a_node23"><a xlink:href="../../d5/dc0/classocra_1_1CoupledInputOutputSize.html" target="_top" xlink:title="ocra::CoupledInputOutputSize">
<polygon fill="white" stroke="black" points="592.5,-144.589 592.5,-163.589 740.5,-163.589 740.5,-144.589 592.5,-144.589"/>
<text text-anchor="middle" x="666.5" y="-151.589" font-family="Helvetica,sans-Serif" font-size="10.00">ocra::CoupledInputOutputSize</text>
</a>
</g>
</g>
<!-- Node23&#45;&gt;Node9 -->
<g id="edge22" class="edge"><title>Node23&#45;&gt;Node9</title>
<path fill="none" stroke="midnightblue" d="M731.61,-166.421C737.925,-168.357 744.154,-170.568 750,-173.089 750.121,-173.142 812.891,-215.016 813,-215.089 831.349,-227.551 852.38,-242.152 865.792,-251.506"/>
<polygon fill="midnightblue" stroke="midnightblue" points="732.232,-162.96 721.657,-163.604 730.325,-169.695 732.232,-162.96"/>
</g>
<!-- Node24 -->
<g id="node24" class="node"><title>Node24</title>
<polygon fill="white" stroke="#bfbfbf" points="638.5,-106.589 638.5,-125.589 694.5,-125.589 694.5,-106.589 638.5,-106.589"/>
<text text-anchor="middle" x="666.5" y="-113.589" font-family="Helvetica,sans-Serif" font-size="10.00">MatrixXd</text>
</g>
<!-- Node24&#45;&gt;Node1 -->
<g id="edge34" class="edge"><title>Node24&#45;&gt;Node1</title>
<path fill="none" stroke="#9a32cd" stroke-dasharray="5,2" d="M704.7,-113.272C747.013,-110.314 818.188,-106.089 879.5,-106.089 879.5,-106.089 879.5,-106.089 1345.5,-106.089 1497.28,-106.089 1601.62,-311.969 1623.66,-359.417"/>
<polygon fill="#9a32cd" stroke="#9a32cd" points="704.313,-109.79 694.588,-113.993 704.811,-116.773 704.313,-109.79"/>
<text text-anchor="middle" x="1076" y="-153.089" font-family="Helvetica,sans-Serif" font-size="10.00"> K</text>
<text text-anchor="middle" x="1076" y="-142.089" font-family="Helvetica,sans-Serif" font-size="10.00">jacobian</text>
<text text-anchor="middle" x="1076" y="-131.089" font-family="Helvetica,sans-Serif" font-size="10.00">M</text>
<text text-anchor="middle" x="1076" y="-120.089" font-family="Helvetica,sans-Serif" font-size="10.00">B</text>
<text text-anchor="middle" x="1076" y="-109.089" font-family="Helvetica,sans-Serif" font-size="10.00">M_inverse</text>
</g>
<!-- Node24&#45;&gt;Node9 -->
<g id="edge24" class="edge"><title>Node24&#45;&gt;Node9</title>
<path fill="none" stroke="#9a32cd" stroke-dasharray="5,2" d="M704.93,-120.637C719.564,-123.439 736.127,-127.929 750,-135.089 759.511,-139.999 759.056,-145.209 768,-151.089 786.441,-163.215 795.878,-158.163 813,-172.089 841.729,-195.458 864.771,-233.836 874.496,-251.565"/>
<polygon fill="#9a32cd" stroke="#9a32cd" points="705.13,-117.12 694.683,-118.881 703.948,-124.02 705.13,-117.12"/>
<text text-anchor="middle" x="790.5" y="-175.089" font-family="Helvetica,sans-Serif" font-size="10.00"> _jacobian</text>
</g>
<!-- Node25&#45;&gt;Node9 -->
<g id="edge25" class="edge"><title>Node25&#45;&gt;Node9</title>
<path fill="none" stroke="#9a32cd" stroke-dasharray="5,2" d="M715.33,-86.1198C726.93,-88.8744 739.118,-92.4676 750,-97.0895 780.749,-110.149 790.357,-113.526 813,-138.089 846.072,-173.965 868.206,-229.331 876.19,-251.465"/>
<polygon fill="#9a32cd" stroke="#9a32cd" points="715.855,-82.6514 705.336,-83.91 714.344,-89.4864 715.855,-82.6514"/>
<text text-anchor="middle" x="790.5" y="-141.089" font-family="Helvetica,sans-Serif" font-size="10.00"> x</text>
</g>
<!-- Node29 -->
<g id="node29" class="node"><title>Node29</title>
<g id="a_node29"><a xlink:href="../../d5/d40/classocra_1_1BaseVariable.html" target="_top" xlink:title="Implements a basic variable. ">
<polygon fill="white" stroke="black" points="831,-50.5895 831,-69.5895 930,-69.5895 930,-50.5895 831,-50.5895"/>
<text text-anchor="middle" x="880.5" y="-57.5895" font-family="Helvetica,sans-Serif" font-size="10.00">ocra::BaseVariable</text>
</a>
</g>
</g>
<!-- Node25&#45;&gt;Node29 -->
<g id="edge33" class="edge"><title>Node25&#45;&gt;Node29</title>
<path fill="none" stroke="midnightblue" d="M715.677,-73.999C750.081,-71.0778 796.197,-67.1624 830.734,-64.23"/>
<polygon fill="midnightblue" stroke="midnightblue" points="715.069,-70.5379 705.401,-74.8714 715.662,-77.5128 715.069,-70.5379"/>
</g>
<!-- Node26 -->
<g id="node26" class="node"><title>Node26</title>
<g id="a_node26"><a xlink:href="../../d0/d29/classocra_1_1Component.html" target="_top" xlink:title="ocra::Component\&lt; Variable,\l CompositeVariable, VariableParenthood \&gt;">
<polygon fill="white" stroke="black" points="344,-107.089 344,-137.089 546,-137.089 546,-107.089 344,-107.089"/>
<text text-anchor="start" x="352" y="-125.089" font-family="Helvetica,sans-Serif" font-size="10.00">ocra::Component&lt; Variable,</text>
<text text-anchor="middle" x="445" y="-114.089" font-family="Helvetica,sans-Serif" font-size="10.00"> CompositeVariable, VariableParenthood &gt;</text>
</a>
</g>
</g>
<!-- Node26&#45;&gt;Node25 -->
<g id="edge26" class="edge"><title>Node26&#45;&gt;Node25</title>
<path fill="none" stroke="midnightblue" d="M530.755,-105.1C564.317,-98.3721 601.173,-90.9842 627.843,-85.6381"/>
<polygon fill="midnightblue" stroke="midnightblue" points="530.043,-101.673 520.926,-107.07 531.418,-108.536 530.043,-101.673"/>
</g>
<!-- Node27 -->
<g id="node27" class="node"><title>Node27</title>
<polygon fill="white" stroke="#bfbfbf" points="409.5,-68.5895 409.5,-87.5895 480.5,-87.5895 480.5,-68.5895 409.5,-68.5895"/>
<text text-anchor="middle" x="445" y="-75.5895" font-family="Helvetica,sans-Serif" font-size="10.00">noncopyable</text>
</g>
<!-- Node27&#45;&gt;Node25 -->
<g id="edge28" class="edge"><title>Node27&#45;&gt;Node25</title>
<path fill="none" stroke="#8b1a1a" d="M490.889,-78.0895C531.288,-78.0895 589.974,-78.0895 627.942,-78.0895"/>
<polygon fill="#8b1a1a" stroke="#8b1a1a" points="490.78,-74.5896 480.78,-78.0895 490.78,-81.5896 490.78,-74.5896"/>
</g>
<!-- Node28 -->
<g id="node28" class="node"><title>Node28</title>
<g id="a_node28"><a xlink:href="../../dc/d20/classocra_1_1VariableHasRestrictedClassDerivation.html" target="_top" xlink:title="ocra::VariableHasRestricted\lClassDerivation">
<polygon fill="white" stroke="black" points="375,-19.0895 375,-49.0895 515,-49.0895 515,-19.0895 375,-19.0895"/>
<text text-anchor="start" x="383" y="-37.0895" font-family="Helvetica,sans-Serif" font-size="10.00">ocra::VariableHasRestricted</text>
<text text-anchor="middle" x="445" y="-26.0895" font-family="Helvetica,sans-Serif" font-size="10.00">ClassDerivation</text>
</a>
</g>
</g>
<!-- Node28&#45;&gt;Node25 -->
<g id="edge29" class="edge"><title>Node28&#45;&gt;Node25</title>
<path fill="none" stroke="#8b1a1a" d="M525.371,-49.9998C560.378,-57.0171 599.861,-64.9318 627.974,-70.5671"/>
<polygon fill="#8b1a1a" stroke="#8b1a1a" points="525.643,-46.4848 515.15,-47.951 524.267,-53.3482 525.643,-46.4848"/>
</g>
<!-- Node29&#45;&gt;Node1 -->
<g id="edge31" class="edge"><title>Node29&#45;&gt;Node1</title>
<path fill="none" stroke="#9a32cd" stroke-dasharray="5,2" d="M940.66,-58.8547C1097.77,-56.1291 1516.75,-52.6735 1564,-92.0895 1606.64,-127.661 1623.76,-314.68 1627.29,-359.452"/>
<polygon fill="#9a32cd" stroke="#9a32cd" points="940.188,-55.3625 930.252,-59.0409 940.313,-62.3614 940.188,-55.3625"/>
<text text-anchor="middle" x="1216.5" y="-62.0895" font-family="Helvetica,sans-Serif" font-size="10.00"> fcVar</text>
</g>
<!-- Node30 -->
<g id="node30" class="node"><title>Node30</title>
<g id="a_node30"><a xlink:href="../../db/d90/classocra_1_1Leaf.html" target="_top" xlink:title="ocra::Leaf\&lt; BaseVariable \&gt;">
<polygon fill="white" stroke="black" points="598.5,-30.5895 598.5,-49.5895 734.5,-49.5895 734.5,-30.5895 598.5,-30.5895"/>
<text text-anchor="middle" x="666.5" y="-37.5895" font-family="Helvetica,sans-Serif" font-size="10.00">ocra::Leaf&lt; BaseVariable &gt;</text>
</a>
</g>
</g>
<!-- Node30&#45;&gt;Node29 -->
<g id="edge32" class="edge"><title>Node30&#45;&gt;Node29</title>
<path fill="none" stroke="midnightblue" d="M744.641,-47.3669C773.497,-50.0892 805.443,-53.1029 830.996,-55.5136"/>
<polygon fill="midnightblue" stroke="midnightblue" points="744.863,-43.8724 734.578,-46.4176 744.205,-50.8415 744.863,-43.8724"/>
</g>
<!-- Node31 -->
<g id="node31" class="node"><title>Node31</title>
<g id="a_node31"><a xlink:href="../../de/d84/classocra_1_1LessThanZeroConstraintPtr.html" target="_top" xlink:title="ocra::LessThanZeroConstraint\lPtr\&lt; ocra::LinearizedCoulombFunction \&gt;">
<polygon fill="white" stroke="black" points="1248,-1.08948 1248,-31.0895 1441,-31.0895 1441,-1.08948 1248,-1.08948"/>
<text text-anchor="start" x="1256" y="-19.0895" font-family="Helvetica,sans-Serif" font-size="10.00">ocra::LessThanZeroConstraint</text>
<text text-anchor="middle" x="1344.5" y="-8.08948" font-family="Helvetica,sans-Serif" font-size="10.00">Ptr&lt; ocra::LinearizedCoulombFunction &gt;</text>
</a>
</g>
</g>
<!-- Node31&#45;&gt;Node1 -->
<g id="edge35" class="edge"><title>Node31&#45;&gt;Node1</title>
<path fill="none" stroke="#9a32cd" stroke-dasharray="5,2" d="M1437.88,-0.484985C1481.18,1.45495 1530.5,-4.85693 1564,-35.0895 1613.86,-80.081 1625.65,-308.88 1627.65,-359.265"/>
<polygon fill="#9a32cd" stroke="#9a32cd" points="1437.65,3.00787 1427.88,-1.08112 1438.07,-3.97972 1437.65,3.00787"/>
<text text-anchor="middle" x="1511.5" y="-38.0895" font-family="Helvetica,sans-Serif" font-size="10.00"> frictionConstraint</text>
</g>
</g>
</svg>
