<?xml version="1.0" encoding="UTF-8" standalone="no"?>
<!DOCTYPE svg PUBLIC "-//W3C//DTD SVG 1.1//EN"
 "http://www.w3.org/Graphics/SVG/1.1/DTD/svg11.dtd">
<!-- Generated by graphviz version 2.38.0 (20140413.2041)
 -->
<!-- Title: ocra::PointContactFeature::Pimpl Pages: 1 -->
<svg width="177pt" height="139pt"
 viewBox="0.00 0.00 176.50 139.00" xmlns="http://www.w3.org/2000/svg" xmlns:xlink="http://www.w3.org/1999/xlink">
<g id="graph0" class="graph" transform="scale(1 1) rotate(0) translate(4 135)">
<title>ocra::PointContactFeature::Pimpl</title>
<polygon fill="white" stroke="none" points="-4,4 -4,-135 172.5,-135 172.5,4 -4,4"/>
<!-- Node1 -->
<g id="node1" class="node"><title>Node1</title>
<polygon fill="#bfbfbf" stroke="black" points="1,-0.5 1,-30.5 132,-30.5 132,-0.5 1,-0.5"/>
<text text-anchor="start" x="9" y="-18.5" font-family="Helvetica,sans-Serif" font-size="10.00">ocra::PointContactFeature</text>
<text text-anchor="middle" x="66.5" y="-7.5" font-family="Helvetica,sans-Serif" font-size="10.00">::Pimpl</text>
</g>
<!-- Node2 -->
<g id="node2" class="node"><title>Node2</title>
<polygon fill="white" stroke="#bfbfbf" points="0,-111.5 0,-130.5 57,-130.5 57,-111.5 0,-111.5"/>
<text text-anchor="middle" x="28.5" y="-118.5" font-family="Helvetica,sans-Serif" font-size="10.00">VectorXd</text>
</g>
<!-- Node2&#45;&gt;Node1 -->
<g id="edge1" class="edge"><title>Node2&#45;&gt;Node1</title>
<path fill="none" stroke="#9a32cd" stroke-dasharray="5,2" d="M24.7467,-101.182C22.7042,-86.3172 21.9309,-65.4143 29.5,-49 32.7938,-41.857 38.4988,-35.6507 44.4565,-30.6303"/>
<polygon fill="#9a32cd" stroke="#9a32cd" points="21.3218,-101.921 26.4388,-111.199 28.224,-100.755 21.3218,-101.921"/>
<text text-anchor="middle" x="56" y="-85" font-family="Helvetica,sans-Serif" font-size="10.00"> error</text>
<text text-anchor="middle" x="56" y="-74" font-family="Helvetica,sans-Serif" font-size="10.00">acceleration</text>
<text text-anchor="middle" x="56" y="-63" font-family="Helvetica,sans-Serif" font-size="10.00">errorDot</text>
<text text-anchor="middle" x="56" y="-52" font-family="Helvetica,sans-Serif" font-size="10.00">effort</text>
</g>
<!-- Node3 -->
<g id="node3" class="node"><title>Node3</title>
<polygon fill="white" stroke="#bfbfbf" points="76.5,-111.5 76.5,-130.5 132.5,-130.5 132.5,-111.5 76.5,-111.5"/>
<text text-anchor="middle" x="104.5" y="-118.5" font-family="Helvetica,sans-Serif" font-size="10.00">MatrixXd</text>
</g>
<!-- Node3&#45;&gt;Node1 -->
<g id="edge2" class="edge"><title>Node3&#45;&gt;Node1</title>
<path fill="none" stroke="#9a32cd" stroke-dasharray="5,2" d="M99.5856,-101.345C95.5639,-86.8619 89.4242,-66.3877 82.5,-49 80.0336,-42.8066 76.8666,-36.1701 74.0019,-30.5192"/>
<polygon fill="#9a32cd" stroke="#9a32cd" points="96.2353,-102.363 102.226,-111.102 102.992,-100.535 96.2353,-102.363"/>
<text text-anchor="middle" x="133" y="-85" font-family="Helvetica,sans-Serif" font-size="10.00"> Minv</text>
<text text-anchor="middle" x="133" y="-74" font-family="Helvetica,sans-Serif" font-size="10.00">spaceTransform</text>
<text text-anchor="middle" x="133" y="-63" font-family="Helvetica,sans-Serif" font-size="10.00">M</text>
<text text-anchor="middle" x="133" y="-52" font-family="Helvetica,sans-Serif" font-size="10.00">jacobian</text>
</g>
</g>
</svg>
