<?xml version="1.0" encoding="UTF-8" standalone="no"?>
<!DOCTYPE svg PUBLIC "-//W3C//DTD SVG 1.1//EN"
 "http://www.w3.org/Graphics/SVG/1.1/DTD/svg11.dtd">
<!-- Generated by graphviz version 2.38.0 (20140413.2041)
 -->
<!-- Title: Function3 Pages: 1 -->
<svg width="1014pt" height="460pt"
 viewBox="0.00 0.00 1014.00 459.50" xmlns="http://www.w3.org/2000/svg" xmlns:xlink="http://www.w3.org/1999/xlink">
<g id="graph0" class="graph" transform="scale(1 1) rotate(0) translate(4 455.5)">
<title>Function3</title>
<polygon fill="white" stroke="none" points="-4,4 -4,-455.5 1010,-455.5 1010,4 -4,4"/>
<!-- Node1 -->
<g id="node1" class="node"><title>Node1</title>
<polygon fill="#bfbfbf" stroke="black" points="947,-152.5 947,-171.5 1006,-171.5 1006,-152.5 947,-152.5"/>
<text text-anchor="middle" x="976.5" y="-159.5" font-family="Helvetica,sans-Serif" font-size="10.00">Function3</text>
</g>
<!-- Node2 -->
<g id="node2" class="node"><title>Node2</title>
<g id="a_node2"><a xlink:href="../../d2/d99/classocra_1_1Function.html" target="_top" xlink:title="Function class. ">
<polygon fill="white" stroke="black" points="831,-152.5 831,-171.5 910,-171.5 910,-152.5 831,-152.5"/>
<text text-anchor="middle" x="870.5" y="-159.5" font-family="Helvetica,sans-Serif" font-size="10.00">ocra::Function</text>
</a>
</g>
</g>
<!-- Node2&#45;&gt;Node1 -->
<g id="edge1" class="edge"><title>Node2&#45;&gt;Node1</title>
<path fill="none" stroke="midnightblue" d="M920.347,-162C929.412,-162 938.605,-162 946.819,-162"/>
<polygon fill="midnightblue" stroke="midnightblue" points="920.226,-158.5 910.226,-162 920.226,-165.5 920.226,-158.5"/>
</g>
<!-- Node3 -->
<g id="node3" class="node"><title>Node3</title>
<g id="a_node3"><a xlink:href="../../d3/d16/classocra_1_1ObserverSubject.html" target="_top" xlink:title="ocra::ObserverSubject">
<polygon fill="white" stroke="black" points="388,-281.5 388,-300.5 502,-300.5 502,-281.5 388,-281.5"/>
<text text-anchor="middle" x="445" y="-288.5" font-family="Helvetica,sans-Serif" font-size="10.00">ocra::ObserverSubject</text>
</a>
</g>
</g>
<!-- Node3&#45;&gt;Node2 -->
<g id="edge2" class="edge"><title>Node3&#45;&gt;Node2</title>
<path fill="none" stroke="midnightblue" d="M512.222,-296.506C575.322,-299.396 671.996,-297.603 750,-269 802.814,-249.634 846.684,-194.21 862.842,-171.689"/>
<polygon fill="midnightblue" stroke="midnightblue" points="512.17,-292.999 502.004,-295.983 511.813,-299.99 512.17,-292.999"/>
</g>
<!-- Node19 -->
<g id="node19" class="node"><title>Node19</title>
<g id="a_node19"><a xlink:href="../../d2/dac/classocra_1_1Variable.html" target="_top" xlink:title="This class represents a variable in a mathematical sense. ">
<polygon fill="white" stroke="black" points="628,-328.5 628,-347.5 705,-347.5 705,-328.5 628,-328.5"/>
<text text-anchor="middle" x="666.5" y="-335.5" font-family="Helvetica,sans-Serif" font-size="10.00">ocra::Variable</text>
</a>
</g>
</g>
<!-- Node3&#45;&gt;Node19 -->
<g id="edge20" class="edge"><title>Node3&#45;&gt;Node19</title>
<path fill="none" stroke="midnightblue" d="M505.009,-302.549C518.493,-305.258 532.753,-308.179 546,-311 573.46,-316.847 604.373,-323.843 627.878,-329.248"/>
<polygon fill="midnightblue" stroke="midnightblue" points="505.37,-299.052 494.878,-300.524 503.998,-305.916 505.37,-299.052"/>
</g>
<!-- Node4 -->
<g id="node4" class="node"><title>Node4</title>
<g id="a_node4"><a xlink:href="../../d2/d45/classocra_1_1Observer.html" target="_top" xlink:title="ocra::Observer">
<polygon fill="white" stroke="black" points="226,-352.5 226,-371.5 307,-371.5 307,-352.5 226,-352.5"/>
<text text-anchor="middle" x="266.5" y="-359.5" font-family="Helvetica,sans-Serif" font-size="10.00">ocra::Observer</text>
</a>
</g>
</g>
<!-- Node4&#45;&gt;Node3 -->
<g id="edge3" class="edge"><title>Node4&#45;&gt;Node3</title>
<path fill="none" stroke="midnightblue" d="M286.748,-346.055C301.529,-334.613 322.92,-319.732 344,-311 357.74,-305.309 373.23,-301.199 387.842,-298.246"/>
<polygon fill="midnightblue" stroke="midnightblue" points="284.513,-343.36 278.86,-352.321 288.867,-348.841 284.513,-343.36"/>
</g>
<!-- Node5 -->
<g id="node5" class="node"><title>Node5</title>
<g id="a_node5"><a xlink:href="../../d4/dee/classocra_1_1ObserverBase.html" target="_top" xlink:title="ocra::ObserverBase\l\&lt; EVT_RESIZE \&gt;">
<polygon fill="white" stroke="black" points="42.5,-421 42.5,-451 146.5,-451 146.5,-421 42.5,-421"/>
<text text-anchor="start" x="50.5" y="-439" font-family="Helvetica,sans-Serif" font-size="10.00">ocra::ObserverBase</text>
<text text-anchor="middle" x="94.5" y="-428" font-family="Helvetica,sans-Serif" font-size="10.00">&lt; EVT_RESIZE &gt;</text>
</a>
</g>
</g>
<!-- Node5&#45;&gt;Node4 -->
<g id="edge4" class="edge"><title>Node5&#45;&gt;Node4</title>
<path fill="none" stroke="midnightblue" d="M156.871,-422.502C167.777,-419.288 178.878,-415.466 189,-411 213.243,-400.305 238.613,-382.545 253.19,-371.598"/>
<polygon fill="midnightblue" stroke="midnightblue" points="155.628,-419.216 146.943,-425.285 157.517,-425.956 155.628,-419.216"/>
</g>
<!-- Node6 -->
<g id="node6" class="node"><title>Node6</title>
<g id="a_node6"><a xlink:href="../../d4/dee/classocra_1_1ObserverBase.html" target="_top" xlink:title="ocra::ObserverBase\l\&lt; EVT_CHANGE_DEPENDENCIES \&gt;">
<polygon fill="white" stroke="black" points="0,-372 0,-402 189,-402 189,-372 0,-372"/>
<text text-anchor="start" x="8" y="-390" font-family="Helvetica,sans-Serif" font-size="10.00">ocra::ObserverBase</text>
<text text-anchor="middle" x="94.5" y="-379" font-family="Helvetica,sans-Serif" font-size="10.00">&lt; EVT_CHANGE_DEPENDENCIES &gt;</text>
</a>
</g>
</g>
<!-- Node6&#45;&gt;Node4 -->
<g id="edge5" class="edge"><title>Node6&#45;&gt;Node4</title>
<path fill="none" stroke="midnightblue" d="M199.529,-371.702C208.724,-370.349 217.605,-369.043 225.713,-367.851"/>
<polygon fill="midnightblue" stroke="midnightblue" points="198.834,-368.266 189.45,-373.184 199.853,-375.192 198.834,-368.266"/>
</g>
<!-- Node7 -->
<g id="node7" class="node"><title>Node7</title>
<g id="a_node7"><a xlink:href="../../d4/dee/classocra_1_1ObserverBase.html" target="_top" xlink:title="ocra::ObserverBase\l\&lt; EVT_CHANGE_VALUE \&gt;">
<polygon fill="white" stroke="black" points="24,-323 24,-353 165,-353 165,-323 24,-323"/>
<text text-anchor="start" x="32" y="-341" font-family="Helvetica,sans-Serif" font-size="10.00">ocra::ObserverBase</text>
<text text-anchor="middle" x="94.5" y="-330" font-family="Helvetica,sans-Serif" font-size="10.00">&lt; EVT_CHANGE_VALUE &gt;</text>
</a>
</g>
</g>
<!-- Node7&#45;&gt;Node4 -->
<g id="edge6" class="edge"><title>Node7&#45;&gt;Node4</title>
<path fill="none" stroke="midnightblue" d="M175.415,-349.282C192.968,-351.76 210.811,-354.279 225.936,-356.414"/>
<polygon fill="midnightblue" stroke="midnightblue" points="175.527,-345.763 165.136,-347.831 174.549,-352.695 175.527,-345.763"/>
</g>
<!-- Node8 -->
<g id="node8" class="node"><title>Node8</title>
<g id="a_node8"><a xlink:href="../../dc/d77/classocra_1_1Subject.html" target="_top" xlink:title="ocra::Subject">
<polygon fill="white" stroke="black" points="229.5,-251.5 229.5,-270.5 303.5,-270.5 303.5,-251.5 229.5,-251.5"/>
<text text-anchor="middle" x="266.5" y="-258.5" font-family="Helvetica,sans-Serif" font-size="10.00">ocra::Subject</text>
</a>
</g>
</g>
<!-- Node8&#45;&gt;Node3 -->
<g id="edge7" class="edge"><title>Node8&#45;&gt;Node3</title>
<path fill="none" stroke="midnightblue" d="M313.732,-268.858C336.501,-272.728 364.139,-277.426 388.089,-281.497"/>
<polygon fill="midnightblue" stroke="midnightblue" points="314.088,-265.369 303.643,-267.143 312.915,-272.27 314.088,-265.369"/>
</g>
<!-- Node9 -->
<g id="node9" class="node"><title>Node9</title>
<g id="a_node9"><a xlink:href="../../dc/d29/classocra_1_1SubjectBase.html" target="_top" xlink:title="ocra::SubjectBase\&lt;\l EVT_RESIZE \&gt;">
<polygon fill="white" stroke="black" points="43,-274 43,-304 146,-304 146,-274 43,-274"/>
<text text-anchor="start" x="51" y="-292" font-family="Helvetica,sans-Serif" font-size="10.00">ocra::SubjectBase&lt;</text>
<text text-anchor="middle" x="94.5" y="-281" font-family="Helvetica,sans-Serif" font-size="10.00"> EVT_RESIZE &gt;</text>
</a>
</g>
</g>
<!-- Node9&#45;&gt;Node8 -->
<g id="edge8" class="edge"><title>Node9&#45;&gt;Node8</title>
<path fill="none" stroke="midnightblue" d="M156.006,-279.034C180.573,-274.988 208.125,-270.45 229.446,-266.938"/>
<polygon fill="midnightblue" stroke="midnightblue" points="155.344,-275.596 146.045,-280.675 156.481,-282.503 155.344,-275.596"/>
</g>
<!-- Node10 -->
<g id="node10" class="node"><title>Node10</title>
<g id="a_node10"><a xlink:href="../../dc/d29/classocra_1_1SubjectBase.html" target="_top" xlink:title="ocra::SubjectBase\&lt;\l EVT_CHANGE_DEPENDENCIES \&gt;">
<polygon fill="white" stroke="black" points="3,-225 3,-255 186,-255 186,-225 3,-225"/>
<text text-anchor="start" x="11" y="-243" font-family="Helvetica,sans-Serif" font-size="10.00">ocra::SubjectBase&lt;</text>
<text text-anchor="middle" x="94.5" y="-232" font-family="Helvetica,sans-Serif" font-size="10.00"> EVT_CHANGE_DEPENDENCIES &gt;</text>
</a>
</g>
</g>
<!-- Node10&#45;&gt;Node8 -->
<g id="edge9" class="edge"><title>Node10&#45;&gt;Node8</title>
<path fill="none" stroke="midnightblue" d="M196.712,-252.503C208.269,-253.93 219.411,-255.307 229.239,-256.521"/>
<polygon fill="midnightblue" stroke="midnightblue" points="196.826,-248.99 186.472,-251.238 195.968,-255.937 196.826,-248.99"/>
</g>
<!-- Node11 -->
<g id="node11" class="node"><title>Node11</title>
<g id="a_node11"><a xlink:href="../../dc/d29/classocra_1_1SubjectBase.html" target="_top" xlink:title="ocra::SubjectBase\&lt;\l EVT_CHANGE_VALUE \&gt;">
<polygon fill="white" stroke="black" points="27,-176 27,-206 162,-206 162,-176 27,-176"/>
<text text-anchor="start" x="35" y="-194" font-family="Helvetica,sans-Serif" font-size="10.00">ocra::SubjectBase&lt;</text>
<text text-anchor="middle" x="94.5" y="-183" font-family="Helvetica,sans-Serif" font-size="10.00"> EVT_CHANGE_VALUE &gt;</text>
</a>
</g>
</g>
<!-- Node11&#45;&gt;Node8 -->
<g id="edge10" class="edge"><title>Node11&#45;&gt;Node8</title>
<path fill="none" stroke="midnightblue" d="M172.021,-208.676C177.834,-210.614 183.553,-212.721 189,-215 212.589,-224.871 237.55,-241.127 252.315,-251.437"/>
<polygon fill="midnightblue" stroke="midnightblue" points="172.771,-205.242 162.182,-205.572 170.666,-211.918 172.771,-205.242"/>
</g>
<!-- Node12 -->
<g id="node12" class="node"><title>Node12</title>
<g id="a_node12"><a xlink:href="../../dd/d68/classocra_1_1IFunctionProperties.html" target="_top" xlink:title="ocra::IFunctionProperties">
<polygon fill="white" stroke="black" points="603.5,-240.5 603.5,-259.5 729.5,-259.5 729.5,-240.5 603.5,-240.5"/>
<text text-anchor="middle" x="666.5" y="-247.5" font-family="Helvetica,sans-Serif" font-size="10.00">ocra::IFunctionProperties</text>
</a>
</g>
</g>
<!-- Node12&#45;&gt;Node2 -->
<g id="edge11" class="edge"><title>Node12&#45;&gt;Node2</title>
<path fill="none" stroke="midnightblue" d="M726.363,-237.796C734.412,-235.531 742.485,-232.936 750,-230 779.835,-218.344 785.169,-210.856 813,-195 826.621,-187.24 841.975,-178.257 853.236,-171.624"/>
<polygon fill="midnightblue" stroke="midnightblue" points="725.358,-234.442 716.596,-240.397 727.159,-241.206 725.358,-234.442"/>
</g>
<!-- Node13 -->
<g id="node13" class="node"><title>Node13</title>
<polygon fill="white" stroke="#bfbfbf" points="583,-191 583,-221 750,-221 750,-191 583,-191"/>
<text text-anchor="start" x="591" y="-209" font-family="Helvetica,sans-Serif" font-size="10.00">OCRA_FUNCTION_INTERFACE</text>
<text text-anchor="middle" x="666.5" y="-198" font-family="Helvetica,sans-Serif" font-size="10.00">_INHERITANCEpublic</text>
</g>
<!-- Node13&#45;&gt;Node2 -->
<g id="edge12" class="edge"><title>Node13&#45;&gt;Node2</title>
<path fill="none" stroke="#8b1a1a" d="M753.028,-188.954C772.757,-184.858 793.635,-180.394 813,-176 819.11,-174.614 825.575,-173.078 831.864,-171.546"/>
<polygon fill="#8b1a1a" stroke="#8b1a1a" points="752.225,-185.545 743.14,-190.995 753.641,-192.401 752.225,-185.545"/>
</g>
<!-- Node14 -->
<g id="node14" class="node"><title>Node14</title>
<g id="a_node14"><a xlink:href="../../db/de3/classocra_1_1NamedInstance.html" target="_top" xlink:title="ocra::NamedInstance">
<polygon fill="white" stroke="black" points="611.5,-152.5 611.5,-171.5 721.5,-171.5 721.5,-152.5 611.5,-152.5"/>
<text text-anchor="middle" x="666.5" y="-159.5" font-family="Helvetica,sans-Serif" font-size="10.00">ocra::NamedInstance</text>
</a>
</g>
</g>
<!-- Node14&#45;&gt;Node2 -->
<g id="edge13" class="edge"><title>Node14&#45;&gt;Node2</title>
<path fill="none" stroke="midnightblue" d="M731.98,-162C764.546,-162 802.968,-162 830.909,-162"/>
<polygon fill="midnightblue" stroke="midnightblue" points="731.632,-158.5 721.632,-162 731.632,-165.5 731.632,-158.5"/>
</g>
<!-- Node15 -->
<g id="node15" class="node"><title>Node15</title>
<g id="a_node15"><a xlink:href="../../d8/d24/classocra_1_1AbilitySet.html" target="_top" xlink:title="ocra::AbilitySet">
<polygon fill="white" stroke="black" points="625,-114.5 625,-133.5 708,-133.5 708,-114.5 625,-114.5"/>
<text text-anchor="middle" x="666.5" y="-121.5" font-family="Helvetica,sans-Serif" font-size="10.00">ocra::AbilitySet</text>
</a>
</g>
</g>
<!-- Node15&#45;&gt;Node2 -->
<g id="edge14" class="edge"><title>Node15&#45;&gt;Node2</title>
<path fill="none" stroke="midnightblue" d="M718.369,-133.569C753.242,-140.13 798.796,-148.699 830.739,-154.708"/>
<polygon fill="midnightblue" stroke="midnightblue" points="718.852,-130.099 708.378,-131.69 717.558,-136.978 718.852,-130.099"/>
</g>
<!-- Node16 -->
<g id="node16" class="node"><title>Node16</title>
<g id="a_node16"><a xlink:href="../../d5/dc0/classocra_1_1CoupledInputOutputSize.html" target="_top" xlink:title="ocra::CoupledInputOutputSize">
<polygon fill="white" stroke="black" points="592.5,-76.5 592.5,-95.5 740.5,-95.5 740.5,-76.5 592.5,-76.5"/>
<text text-anchor="middle" x="666.5" y="-83.5" font-family="Helvetica,sans-Serif" font-size="10.00">ocra::CoupledInputOutputSize</text>
</a>
</g>
</g>
<!-- Node16&#45;&gt;Node2 -->
<g id="edge15" class="edge"><title>Node16&#45;&gt;Node2</title>
<path fill="none" stroke="midnightblue" d="M726.788,-98.002C734.67,-100.077 742.584,-102.413 750,-105 787.98,-118.252 829.876,-140.022 852.587,-152.472"/>
<polygon fill="midnightblue" stroke="midnightblue" points="727.412,-94.5503 716.861,-95.5126 725.71,-101.34 727.412,-94.5503"/>
</g>
<!-- Node17 -->
<g id="node17" class="node"><title>Node17</title>
<polygon fill="white" stroke="#bfbfbf" points="638,-38.5 638,-57.5 695,-57.5 695,-38.5 638,-38.5"/>
<text text-anchor="middle" x="666.5" y="-45.5" font-family="Helvetica,sans-Serif" font-size="10.00">VectorXd</text>
</g>
<!-- Node17&#45;&gt;Node2 -->
<g id="edge16" class="edge"><title>Node17&#45;&gt;Node2</title>
<path fill="none" stroke="#9a32cd" stroke-dasharray="5,2" d="M705.279,-54.1021C736.659,-60.6837 781.155,-73.6695 813,-98 833.964,-114.017 853.09,-138.702 862.799,-152.257"/>
<polygon fill="#9a32cd" stroke="#9a32cd" points="705.666,-50.611 695.178,-52.1084 704.311,-57.4785 705.666,-50.611"/>
<text text-anchor="middle" x="790.5" y="-101" font-family="Helvetica,sans-Serif" font-size="10.00"> _value</text>
</g>
<!-- Node18 -->
<g id="node18" class="node"><title>Node18</title>
<polygon fill="white" stroke="#bfbfbf" points="638.5,-0.5 638.5,-19.5 694.5,-19.5 694.5,-0.5 638.5,-0.5"/>
<text text-anchor="middle" x="666.5" y="-7.5" font-family="Helvetica,sans-Serif" font-size="10.00">MatrixXd</text>
</g>
<!-- Node18&#45;&gt;Node2 -->
<g id="edge17" class="edge"><title>Node18&#45;&gt;Node2</title>
<path fill="none" stroke="#9a32cd" stroke-dasharray="5,2" d="M704.555,-13.7761C736.928,-18.9048 783.272,-30.9284 813,-59 842.065,-86.4455 859.744,-132.242 866.434,-152.201"/>
<polygon fill="#9a32cd" stroke="#9a32cd" points="704.971,-10.2999 694.574,-12.3416 703.975,-17.2287 704.971,-10.2999"/>
<text text-anchor="middle" x="790.5" y="-62" font-family="Helvetica,sans-Serif" font-size="10.00"> _jacobian</text>
</g>
<!-- Node19&#45;&gt;Node2 -->
<g id="edge18" class="edge"><title>Node19&#45;&gt;Node2</title>
<path fill="none" stroke="#9a32cd" stroke-dasharray="5,2" d="M715.437,-337.016C746.555,-333.981 786.164,-325.295 813,-302 853.972,-266.434 865.626,-196.85 868.586,-171.515"/>
<polygon fill="#9a32cd" stroke="#9a32cd" points="714.925,-333.545 705.24,-337.841 715.49,-340.523 714.925,-333.545"/>
<text text-anchor="middle" x="790.5" y="-329" font-family="Helvetica,sans-Serif" font-size="10.00"> x</text>
</g>
<!-- Node20 -->
<g id="node20" class="node"><title>Node20</title>
<g id="a_node20"><a xlink:href="../../d0/d29/classocra_1_1Component.html" target="_top" xlink:title="ocra::Component\&lt; Variable,\l CompositeVariable, VariableParenthood \&gt;">
<polygon fill="white" stroke="black" points="344,-409 344,-439 546,-439 546,-409 344,-409"/>
<text text-anchor="start" x="352" y="-427" font-family="Helvetica,sans-Serif" font-size="10.00">ocra::Component&lt; Variable,</text>
<text text-anchor="middle" x="445" y="-416" font-family="Helvetica,sans-Serif" font-size="10.00"> CompositeVariable, VariableParenthood &gt;</text>
</a>
</g>
</g>
<!-- Node20&#45;&gt;Node19 -->
<g id="edge19" class="edge"><title>Node20&#45;&gt;Node19</title>
<path fill="none" stroke="midnightblue" d="M524.822,-406.095C532.049,-403.914 539.203,-401.547 546,-399 584.608,-384.535 626.955,-360.912 649.414,-347.709"/>
<polygon fill="midnightblue" stroke="midnightblue" points="523.581,-402.81 514.949,-408.953 525.528,-409.534 523.581,-402.81"/>
</g>
<!-- Node21 -->
<g id="node21" class="node"><title>Node21</title>
<polygon fill="white" stroke="#bfbfbf" points="409.5,-370.5 409.5,-389.5 480.5,-389.5 480.5,-370.5 409.5,-370.5"/>
<text text-anchor="middle" x="445" y="-377.5" font-family="Helvetica,sans-Serif" font-size="10.00">noncopyable</text>
</g>
<!-- Node21&#45;&gt;Node19 -->
<g id="edge21" class="edge"><title>Node21&#45;&gt;Node19</title>
<path fill="none" stroke="#8b1a1a" d="M490.632,-371.46C531.039,-363.728 589.893,-352.467 627.942,-345.186"/>
<polygon fill="#8b1a1a" stroke="#8b1a1a" points="489.944,-368.028 480.78,-373.345 491.26,-374.903 489.944,-368.028"/>
</g>
<!-- Node22 -->
<g id="node22" class="node"><title>Node22</title>
<g id="a_node22"><a xlink:href="../../dc/d20/classocra_1_1VariableHasRestrictedClassDerivation.html" target="_top" xlink:title="ocra::VariableHasRestricted\lClassDerivation">
<polygon fill="white" stroke="black" points="375,-321 375,-351 515,-351 515,-321 375,-321"/>
<text text-anchor="start" x="383" y="-339" font-family="Helvetica,sans-Serif" font-size="10.00">ocra::VariableHasRestricted</text>
<text text-anchor="middle" x="445" y="-328" font-family="Helvetica,sans-Serif" font-size="10.00">ClassDerivation</text>
</a>
</g>
</g>
<!-- Node22&#45;&gt;Node19 -->
<g id="edge22" class="edge"><title>Node22&#45;&gt;Node19</title>
<path fill="none" stroke="#8b1a1a" d="M525.371,-336.723C560.378,-337.042 599.861,-337.402 627.974,-337.658"/>
<polygon fill="#8b1a1a" stroke="#8b1a1a" points="525.181,-333.221 515.15,-336.63 525.118,-340.221 525.181,-333.221"/>
</g>
</g>
</svg>
