<?xml version="1.0" encoding="UTF-8" standalone="no"?>
<!DOCTYPE svg PUBLIC "-//W3C//DTD SVG 1.1//EN"
 "http://www.w3.org/Graphics/SVG/1.1/DTD/svg11.dtd">
<!-- Generated by graphviz version 2.38.0 (20140413.2041)
 -->
<!-- Title: ClientCommunications.h Pages: 1 -->
<svg width="1663pt" height="151pt"
 viewBox="0.00 0.00 1663.00 151.00" xmlns="http://www.w3.org/2000/svg" xmlns:xlink="http://www.w3.org/1999/xlink">
<g id="graph0" class="graph" transform="scale(1 1) rotate(0) translate(4 147)">
<title>ClientCommunications.h</title>
<polygon fill="white" stroke="none" points="-4,4 -4,-147 1659,-147 1659,4 -4,4"/>
<!-- Node1 -->
<g id="node1" class="node"><title>Node1</title>
<polygon fill="#bfbfbf" stroke="black" points="633,-123.5 633,-142.5 757,-142.5 757,-123.5 633,-123.5"/>
<text text-anchor="middle" x="695" y="-130.5" font-family="Helvetica,sans-Serif" font-size="10.00">ClientCommunications.h</text>
</g>
<!-- Node2 -->
<g id="node2" class="node"><title>Node2</title>
<polygon fill="white" stroke="#bfbfbf" points="57,-0.5 57,-19.5 111,-19.5 111,-0.5 57,-0.5"/>
<text text-anchor="middle" x="84" y="-7.5" font-family="Helvetica,sans-Serif" font-size="10.00">iostream</text>
</g>
<!-- Node1&#45;&gt;Node2 -->
<g id="edge1" class="edge"><title>Node1&#45;&gt;Node2</title>
<path fill="none" stroke="midnightblue" d="M632.599,-129.745C522.715,-125.158 299.372,-112.902 226,-87 202.404,-78.67 200.806,-68.2754 179,-56 157.603,-43.9547 132.456,-32.1405 113.411,-23.6418"/>
<polygon fill="midnightblue" stroke="midnightblue" points="114.622,-20.3506 104.06,-19.516 111.796,-26.755 114.622,-20.3506"/>
</g>
<!-- Node3 -->
<g id="node3" class="node"><title>Node3</title>
<polygon fill="white" stroke="#bfbfbf" points="731,-0.5 731,-19.5 783,-19.5 783,-0.5 731,-0.5"/>
<text text-anchor="middle" x="757" y="-7.5" font-family="Helvetica,sans-Serif" font-size="10.00">memory</text>
</g>
<!-- Node1&#45;&gt;Node3 -->
<g id="edge2" class="edge"><title>Node1&#45;&gt;Node3</title>
<path fill="none" stroke="midnightblue" d="M687.575,-123.496C675.753,-108.868 655.318,-78.3636 669,-56 675.397,-45.5446 702.058,-32.7447 724.376,-23.473"/>
<polygon fill="midnightblue" stroke="midnightblue" points="725.964,-26.606 733.918,-19.6077 723.336,-20.1181 725.964,-26.606"/>
</g>
<!-- Node4 -->
<g id="node4" class="node"><title>Node4</title>
<polygon fill="white" stroke="#bfbfbf" points="677.5,-62 677.5,-81 712.5,-81 712.5,-62 677.5,-62"/>
<text text-anchor="middle" x="695" y="-69" font-family="Helvetica,sans-Serif" font-size="10.00">map</text>
</g>
<!-- Node1&#45;&gt;Node4 -->
<g id="edge3" class="edge"><title>Node1&#45;&gt;Node4</title>
<path fill="none" stroke="midnightblue" d="M695,-123.475C695,-115.08 695,-101.981 695,-91.1631"/>
<polygon fill="midnightblue" stroke="midnightblue" points="698.5,-91.0091 695,-81.0091 691.5,-91.0091 698.5,-91.0091"/>
</g>
<!-- Node5 -->
<g id="node5" class="node"><title>Node5</title>
<polygon fill="white" stroke="#bfbfbf" points="129.5,-0.5 129.5,-19.5 202.5,-19.5 202.5,-0.5 129.5,-0.5"/>
<text text-anchor="middle" x="166" y="-7.5" font-family="Helvetica,sans-Serif" font-size="10.00">Eigen/Dense</text>
</g>
<!-- Node1&#45;&gt;Node5 -->
<g id="edge4" class="edge"><title>Node1&#45;&gt;Node5</title>
<path fill="none" stroke="midnightblue" d="M632.712,-128.408C535.344,-122.233 351.819,-108.192 290,-87 249.124,-72.9873 207.484,-43.7455 184.369,-25.8983"/>
<polygon fill="midnightblue" stroke="midnightblue" points="186.48,-23.1058 176.458,-19.6716 182.151,-28.6066 186.48,-23.1058"/>
</g>
<!-- Node6 -->
<g id="node6" class="node"><title>Node6</title>
<polygon fill="white" stroke="#bfbfbf" points="221,-0.5 221,-19.5 289,-19.5 289,-0.5 221,-0.5"/>
<text text-anchor="middle" x="255" y="-7.5" font-family="Helvetica,sans-Serif" font-size="10.00">Eigen/Lgsm</text>
</g>
<!-- Node1&#45;&gt;Node6 -->
<g id="edge5" class="edge"><title>Node1&#45;&gt;Node6</title>
<path fill="none" stroke="midnightblue" d="M632.747,-128.969C543.812,-123.845 385.449,-111.538 334,-87 305.914,-73.6047 281.479,-46.3193 267.488,-28.3502"/>
<polygon fill="midnightblue" stroke="midnightblue" points="269.964,-25.8189 261.16,-19.9256 264.367,-30.0232 269.964,-25.8189"/>
</g>
<!-- Node7 -->
<g id="node7" class="node"><title>Node7</title>
<polygon fill="white" stroke="#bfbfbf" points="307,-0.5 307,-19.5 393,-19.5 393,-0.5 307,-0.5"/>
<text text-anchor="middle" x="350" y="-7.5" font-family="Helvetica,sans-Serif" font-size="10.00">yarp/os/Bottle.h</text>
</g>
<!-- Node1&#45;&gt;Node7 -->
<g id="edge6" class="edge"><title>Node1&#45;&gt;Node7</title>
<path fill="none" stroke="midnightblue" d="M632.68,-128.344C537.651,-122.124 365.526,-108.076 347,-87 333.412,-71.5422 337.482,-46.7358 342.745,-29.6938"/>
<polygon fill="midnightblue" stroke="midnightblue" points="346.21,-30.3872 346.202,-19.7924 339.601,-28.0797 346.21,-30.3872"/>
</g>
<!-- Node8 -->
<g id="node8" class="node"><title>Node8</title>
<polygon fill="white" stroke="#bfbfbf" points="731,-62 731,-81 835,-81 835,-62 731,-62"/>
<text text-anchor="middle" x="783" y="-69" font-family="Helvetica,sans-Serif" font-size="10.00">yarp/os/RpcClient.h</text>
</g>
<!-- Node1&#45;&gt;Node8 -->
<g id="edge7" class="edge"><title>Node1&#45;&gt;Node8</title>
<path fill="none" stroke="midnightblue" d="M707.608,-123.475C721.723,-113.931 744.831,-98.3073 761.749,-86.8683"/>
<polygon fill="midnightblue" stroke="midnightblue" points="764.091,-89.5098 770.415,-81.0091 760.171,-83.7109 764.091,-89.5098"/>
</g>
<!-- Node9 -->
<g id="node9" class="node"><title>Node9</title>
<polygon fill="white" stroke="#bfbfbf" points="853,-62 853,-81 931,-81 931,-62 853,-62"/>
<text text-anchor="middle" x="892" y="-69" font-family="Helvetica,sans-Serif" font-size="10.00">yarp/os/Port.h</text>
</g>
<!-- Node1&#45;&gt;Node9 -->
<g id="edge8" class="edge"><title>Node1&#45;&gt;Node9</title>
<path fill="none" stroke="midnightblue" d="M723.225,-123.475C757.603,-113.092 815.81,-95.5116 854.077,-83.9538"/>
<polygon fill="midnightblue" stroke="midnightblue" points="855.266,-87.251 863.827,-81.0091 853.242,-80.5499 855.266,-87.251"/>
</g>
<!-- Node10 -->
<g id="node10" class="node"><title>Node10</title>
<polygon fill="white" stroke="#bfbfbf" points="949.5,-62 949.5,-81 1046.5,-81 1046.5,-62 949.5,-62"/>
<text text-anchor="middle" x="998" y="-69" font-family="Helvetica,sans-Serif" font-size="10.00">yarp/os/Network.h</text>
</g>
<!-- Node1&#45;&gt;Node10 -->
<g id="edge9" class="edge"><title>Node1&#45;&gt;Node10</title>
<path fill="none" stroke="midnightblue" d="M746.81,-123.464C796.529,-115.042 873.642,-101.374 940,-87 945.007,-85.9154 950.239,-84.71 955.424,-83.4707"/>
<polygon fill="midnightblue" stroke="midnightblue" points="956.38,-86.8404 965.264,-81.0686 954.719,-80.0401 956.38,-86.8404"/>
</g>
<!-- Node11 -->
<g id="node11" class="node"><title>Node11</title>
<polygon fill="white" stroke="#bfbfbf" points="1065,-62 1065,-81 1141,-81 1141,-62 1065,-62"/>
<text text-anchor="middle" x="1103" y="-69" font-family="Helvetica,sans-Serif" font-size="10.00">yarp/os/Log.h</text>
</g>
<!-- Node1&#45;&gt;Node11 -->
<g id="edge10" class="edge"><title>Node1&#45;&gt;Node11</title>
<path fill="none" stroke="midnightblue" d="M757.193,-127.578C829.576,-121.666 952.415,-109.255 1056,-87 1059.93,-86.1564 1064,-85.1334 1068.03,-84.0253"/>
<polygon fill="midnightblue" stroke="midnightblue" points="1069.23,-87.3185 1077.85,-81.1496 1067.27,-80.6005 1069.23,-87.3185"/>
</g>
<!-- Node12 -->
<g id="node12" class="node"><title>Node12</title>
<polygon fill="white" stroke="#bfbfbf" points="1159.5,-62 1159.5,-81 1266.5,-81 1266.5,-62 1159.5,-62"/>
<text text-anchor="middle" x="1213" y="-69" font-family="Helvetica,sans-Serif" font-size="10.00">yarp/os/LogStream.h</text>
</g>
<!-- Node1&#45;&gt;Node12 -->
<g id="edge11" class="edge"><title>Node1&#45;&gt;Node12</title>
<path fill="none" stroke="midnightblue" d="M757.146,-128.376C845.058,-122.677 1010.57,-109.845 1150,-87 1156.32,-85.9639 1162.96,-84.6688 1169.46,-83.2816"/>
<polygon fill="midnightblue" stroke="midnightblue" points="1170.48,-86.6393 1179.48,-81.0501 1168.96,-79.8065 1170.48,-86.6393"/>
</g>
<!-- Node13 -->
<g id="node13" class="node"><title>Node13</title>
<polygon fill="white" stroke="#bfbfbf" points="1285,-62 1285,-81 1395,-81 1395,-62 1285,-62"/>
<text text-anchor="middle" x="1340" y="-69" font-family="Helvetica,sans-Serif" font-size="10.00">yarp/os/PortReader.h</text>
</g>
<!-- Node1&#45;&gt;Node13 -->
<g id="edge12" class="edge"><title>Node1&#45;&gt;Node13</title>
<path fill="none" stroke="midnightblue" d="M757.246,-130.149C863.952,-126.315 1088.44,-115.357 1276,-87 1282.74,-85.9816 1289.82,-84.6479 1296.71,-83.2016"/>
<polygon fill="midnightblue" stroke="midnightblue" points="1297.61,-86.5885 1306.63,-81.0259 1296.11,-79.7513 1297.61,-86.5885"/>
</g>
<!-- Node14 -->
<g id="node14" class="node"><title>Node14</title>
<polygon fill="white" stroke="#bfbfbf" points="1413.5,-62 1413.5,-81 1554.5,-81 1554.5,-62 1413.5,-62"/>
<text text-anchor="middle" x="1484" y="-69" font-family="Helvetica,sans-Serif" font-size="10.00">yarp/os/ConnectionReader.h</text>
</g>
<!-- Node1&#45;&gt;Node14 -->
<g id="edge13" class="edge"><title>Node1&#45;&gt;Node14</title>
<path fill="none" stroke="midnightblue" d="M757.343,-130.47C881.055,-126.9 1166.18,-116.001 1404,-87 1413.16,-85.8833 1422.85,-84.3916 1432.22,-82.7893"/>
<polygon fill="midnightblue" stroke="midnightblue" points="1432.97,-86.2107 1442.2,-81.0196 1431.75,-79.318 1432.97,-86.2107"/>
</g>
<!-- Node15 -->
<g id="node15" class="node"><title>Node15</title>
<polygon fill="white" stroke="#bfbfbf" points="1573,-62 1573,-81 1655,-81 1655,-62 1573,-62"/>
<text text-anchor="middle" x="1614" y="-69" font-family="Helvetica,sans-Serif" font-size="10.00">yarp/os/Time.h</text>
</g>
<!-- Node1&#45;&gt;Node15 -->
<g id="edge14" class="edge"><title>Node1&#45;&gt;Node15</title>
<path fill="none" stroke="midnightblue" d="M757.301,-130.638C929.358,-126.581 1408.61,-113.194 1564,-87 1568.87,-86.1793 1573.94,-85.0487 1578.9,-83.7778"/>
<polygon fill="midnightblue" stroke="midnightblue" points="1580.12,-87.0693 1588.83,-81.0262 1578.25,-80.3234 1580.12,-87.0693"/>
</g>
<!-- Node16 -->
<g id="node16" class="node"><title>Node16</title>
<g id="a_node16"><a xlink:href="../../da/d33/TaskYarpInterfaceVocab_8h.html" target="_top" xlink:title="ocra/control/TaskYarpInterface\lVocab.h">
<polygon fill="white" stroke="black" points="356.5,-56.5 356.5,-86.5 507.5,-86.5 507.5,-56.5 356.5,-56.5"/>
<text text-anchor="start" x="364.5" y="-74.5" font-family="Helvetica,sans-Serif" font-size="10.00">ocra/control/TaskYarpInterface</text>
<text text-anchor="middle" x="432" y="-63.5" font-family="Helvetica,sans-Serif" font-size="10.00">Vocab.h</text>
</a>
</g>
</g>
<!-- Node1&#45;&gt;Node16 -->
<g id="edge15" class="edge"><title>Node1&#45;&gt;Node16</title>
<path fill="none" stroke="midnightblue" d="M657.319,-123.475C617.454,-114.456 553.589,-100.008 504.014,-88.7921"/>
<polygon fill="midnightblue" stroke="midnightblue" points="504.51,-85.3159 493.984,-86.523 502.965,-92.1434 504.51,-85.3159"/>
</g>
<!-- Node22 -->
<g id="node22" class="node"><title>Node22</title>
<g id="a_node22"><a xlink:href="../../d2/de1/MessageVocabulary_8h.html" target="_top" xlink:title="ocra&#45;recipes/MessageVocabulary.h">
<polygon fill="white" stroke="black" points="0,-62 0,-81 170,-81 170,-62 0,-62"/>
<text text-anchor="middle" x="85" y="-69" font-family="Helvetica,sans-Serif" font-size="10.00">ocra&#45;recipes/MessageVocabulary.h</text>
</a>
</g>
</g>
<!-- Node1&#45;&gt;Node22 -->
<g id="edge25" class="edge"><title>Node1&#45;&gt;Node22</title>
<path fill="none" stroke="midnightblue" d="M632.865,-127.645C536.71,-120.651 346.126,-105.775 185,-87 173.679,-85.6809 161.664,-84.0974 150.036,-82.4687"/>
<polygon fill="midnightblue" stroke="midnightblue" points="150.338,-78.9764 139.944,-81.0313 149.35,-85.9065 150.338,-78.9764"/>
</g>
<!-- Node23 -->
<g id="node23" class="node"><title>Node23</title>
<g id="a_node23"><a xlink:href="../../df/d0a/Macros_8h.html" target="_top" xlink:title="ocra/util/Macros.h">
<polygon fill="white" stroke="black" points="525.5,-62 525.5,-81 620.5,-81 620.5,-62 525.5,-62"/>
<text text-anchor="middle" x="573" y="-69" font-family="Helvetica,sans-Serif" font-size="10.00">ocra/util/Macros.h</text>
</a>
</g>
</g>
<!-- Node1&#45;&gt;Node23 -->
<g id="edge27" class="edge"><title>Node1&#45;&gt;Node23</title>
<path fill="none" stroke="midnightblue" d="M677.52,-123.475C657.137,-113.534 623.225,-96.9947 599.575,-85.461"/>
<polygon fill="midnightblue" stroke="midnightblue" points="600.969,-82.2468 590.447,-81.0091 597.901,-88.5385 600.969,-82.2468"/>
</g>
<!-- Node16&#45;&gt;Node2 -->
<g id="edge16" class="edge"><title>Node16&#45;&gt;Node2</title>
<path fill="none" stroke="midnightblue" d="M356.337,-60.0814C295.302,-51.2563 207.061,-37.5522 121.008,-20.0666"/>
<polygon fill="midnightblue" stroke="midnightblue" points="121.57,-16.609 111.071,-18.0282 120.163,-23.4662 121.57,-16.609"/>
</g>
<!-- Node16&#45;&gt;Node5 -->
<g id="edge18" class="edge"><title>Node16&#45;&gt;Node5</title>
<path fill="none" stroke="midnightblue" d="M369.299,-56.4747C321.378,-45.7557 256.372,-31.2148 212.896,-21.4898"/>
<polygon fill="midnightblue" stroke="midnightblue" points="213.397,-18.0156 202.874,-19.2482 211.869,-24.8468 213.397,-18.0156"/>
</g>
<!-- Node16&#45;&gt;Node6 -->
<g id="edge19" class="edge"><title>Node16&#45;&gt;Node6</title>
<path fill="none" stroke="midnightblue" d="M390.053,-56.3993C359.602,-46.1627 318.87,-32.4703 290.127,-22.8082"/>
<polygon fill="midnightblue" stroke="midnightblue" points="291.091,-19.4398 280.497,-19.5709 288.86,-26.0749 291.091,-19.4398"/>
</g>
<!-- Node16&#45;&gt;Node7 -->
<g id="edge20" class="edge"><title>Node16&#45;&gt;Node7</title>
<path fill="none" stroke="midnightblue" d="M412.567,-56.3993C399.792,-47.1293 383.111,-35.0254 370.186,-25.6469"/>
<polygon fill="midnightblue" stroke="midnightblue" points="372.081,-22.6979 361.932,-19.6578 367.97,-28.3635 372.081,-22.6979"/>
</g>
<!-- Node17 -->
<g id="node17" class="node"><title>Node17</title>
<polygon fill="white" stroke="#bfbfbf" points="411,-0.5 411,-19.5 455,-19.5 455,-0.5 411,-0.5"/>
<text text-anchor="middle" x="433" y="-7.5" font-family="Helvetica,sans-Serif" font-size="10.00">vector</text>
</g>
<!-- Node16&#45;&gt;Node17 -->
<g id="edge17" class="edge"><title>Node16&#45;&gt;Node17</title>
<path fill="none" stroke="midnightblue" d="M432.237,-56.3993C432.37,-48.4664 432.539,-38.458 432.683,-29.8583"/>
<polygon fill="midnightblue" stroke="midnightblue" points="436.186,-29.7152 432.854,-19.6578 429.187,-29.5975 436.186,-29.7152"/>
</g>
<!-- Node18 -->
<g id="node18" class="node"><title>Node18</title>
<polygon fill="white" stroke="#bfbfbf" points="473,-0.5 473,-19.5 529,-19.5 529,-0.5 473,-0.5"/>
<text text-anchor="middle" x="501" y="-7.5" font-family="Helvetica,sans-Serif" font-size="10.00">algorithm</text>
</g>
<!-- Node16&#45;&gt;Node18 -->
<g id="edge21" class="edge"><title>Node16&#45;&gt;Node18</title>
<path fill="none" stroke="midnightblue" d="M448.352,-56.3993C458.895,-47.3076 472.6,-35.4899 483.384,-26.1909"/>
<polygon fill="midnightblue" stroke="midnightblue" points="485.672,-28.8389 490.96,-19.6578 481.101,-23.5377 485.672,-28.8389"/>
</g>
<!-- Node19 -->
<g id="node19" class="node"><title>Node19</title>
<polygon fill="white" stroke="#bfbfbf" points="547.5,-0.5 547.5,-19.5 588.5,-19.5 588.5,-0.5 547.5,-0.5"/>
<text text-anchor="middle" x="568" y="-7.5" font-family="Helvetica,sans-Serif" font-size="10.00">string</text>
</g>
<!-- Node16&#45;&gt;Node19 -->
<g id="edge22" class="edge"><title>Node16&#45;&gt;Node19</title>
<path fill="none" stroke="midnightblue" d="M464.23,-56.3993C486.845,-46.5054 516.838,-33.3832 538.761,-23.7919"/>
<polygon fill="midnightblue" stroke="midnightblue" points="540.452,-26.8726 548.211,-19.6578 537.646,-20.4595 540.452,-26.8726"/>
</g>
<!-- Node20 -->
<g id="node20" class="node"><title>Node20</title>
<polygon fill="white" stroke="#bfbfbf" points="606.5,-0.5 606.5,-19.5 647.5,-19.5 647.5,-0.5 606.5,-0.5"/>
<text text-anchor="middle" x="627" y="-7.5" font-family="Helvetica,sans-Serif" font-size="10.00">regex</text>
</g>
<!-- Node16&#45;&gt;Node20 -->
<g id="edge23" class="edge"><title>Node16&#45;&gt;Node20</title>
<path fill="none" stroke="midnightblue" d="M478.212,-56.3993C514.798,-45.236 564.852,-29.963 596.557,-20.2889"/>
<polygon fill="midnightblue" stroke="midnightblue" points="597.623,-23.6231 606.166,-17.357 595.58,-16.9279 597.623,-23.6231"/>
</g>
<!-- Node21 -->
<g id="node21" class="node"><title>Node21</title>
<polygon fill="white" stroke="#bfbfbf" points="665.5,-0.5 665.5,-19.5 712.5,-19.5 712.5,-0.5 665.5,-0.5"/>
<text text-anchor="middle" x="689" y="-7.5" font-family="Helvetica,sans-Serif" font-size="10.00">iterator</text>
</g>
<!-- Node16&#45;&gt;Node21 -->
<g id="edge24" class="edge"><title>Node16&#45;&gt;Node21</title>
<path fill="none" stroke="midnightblue" d="M499.17,-56.4057C541.558,-47.2837 597.674,-34.7936 655.265,-20.3514"/>
<polygon fill="midnightblue" stroke="midnightblue" points="656.433,-23.6664 665.272,-17.8256 654.72,-16.8792 656.433,-23.6664"/>
</g>
<!-- Node22&#45;&gt;Node2 -->
<g id="edge26" class="edge"><title>Node22&#45;&gt;Node2</title>
<path fill="none" stroke="midnightblue" d="M84.8567,-61.9751C84.7156,-53.5803 84.4955,-40.4806 84.3137,-29.6631"/>
<polygon fill="midnightblue" stroke="midnightblue" points="87.8107,-29.4488 84.143,-19.5091 80.8116,-29.5665 87.8107,-29.4488"/>
</g>
<!-- Node23&#45;&gt;Node3 -->
<g id="edge28" class="edge"><title>Node23&#45;&gt;Node3</title>
<path fill="none" stroke="midnightblue" d="M599.363,-61.9751C631.426,-51.6068 685.683,-34.0617 721.427,-22.5033"/>
<polygon fill="midnightblue" stroke="midnightblue" points="722.545,-25.8201 730.983,-19.413 720.392,-19.1596 722.545,-25.8201"/>
</g>
</g>
</svg>
