<?xml version="1.0" encoding="UTF-8" standalone="no"?>
<!DOCTYPE svg PUBLIC "-//W3C//DTD SVG 1.1//EN"
 "http://www.w3.org/Graphics/SVG/1.1/DTD/svg11.dtd">
<!-- Generated by graphviz version 2.38.0 (20140413.2041)
 -->
<!-- Title: ocra::Solver Pages: 1 -->
<svg width="914pt" height="320pt"
 viewBox="0.00 0.00 914.00 319.50" xmlns="http://www.w3.org/2000/svg" xmlns:xlink="http://www.w3.org/1999/xlink">
<g id="graph0" class="graph" transform="scale(1 1) rotate(0) translate(4 315.5)">
<title>ocra::Solver</title>
<polygon fill="white" stroke="none" points="-4,4 -4,-315.5 910,-315.5 910,4 -4,4"/>
<!-- Node1 -->
<g id="node1" class="node"><title>Node1</title>
<polygon fill="#bfbfbf" stroke="black" points="492,-144.5 492,-163.5 561,-163.5 561,-144.5 492,-144.5"/>
<text text-anchor="middle" x="526.5" y="-151.5" font-family="Helvetica,sans-Serif" font-size="10.00">ocra::Solver</text>
</g>
<!-- Node12 -->
<g id="node12" class="node"><title>Node12</title>
<g id="a_node12"><a xlink:href="../../d6/d35/classocra_1_1CascadeQPSolver.html" target="_top" xlink:title="CascadeQPSolver class. ">
<polygon fill="white" stroke="black" points="597,-220.5 597,-239.5 719,-239.5 719,-220.5 597,-220.5"/>
<text text-anchor="middle" x="658" y="-227.5" font-family="Helvetica,sans-Serif" font-size="10.00">ocra::CascadeQPSolver</text>
</a>
</g>
</g>
<!-- Node1&#45;&gt;Node12 -->
<g id="edge11" class="edge"><title>Node1&#45;&gt;Node12</title>
<path fill="none" stroke="midnightblue" d="M544.399,-171.01C557.699,-183.572 577.232,-200.283 597,-211 603.916,-214.749 611.688,-217.893 619.287,-220.474"/>
<polygon fill="midnightblue" stroke="midnightblue" points="546.593,-168.262 536.977,-163.815 541.721,-173.288 546.593,-168.262"/>
</g>
<!-- Node13 -->
<g id="node13" class="node"><title>Node13</title>
<g id="a_node13"><a xlink:href="../../dc/d6e/classocra_1_1FSQPSolver.html" target="_top" xlink:title="FSQPSolver class. ">
<polygon fill="white" stroke="black" points="610,-182.5 610,-201.5 706,-201.5 706,-182.5 610,-182.5"/>
<text text-anchor="middle" x="658" y="-189.5" font-family="Helvetica,sans-Serif" font-size="10.00">ocra::FSQPSolver</text>
</a>
</g>
</g>
<!-- Node1&#45;&gt;Node13 -->
<g id="edge12" class="edge"><title>Node1&#45;&gt;Node13</title>
<path fill="none" stroke="midnightblue" d="M570.219,-166.535C587.836,-171.705 607.923,-177.599 624.332,-182.414"/>
<polygon fill="midnightblue" stroke="midnightblue" points="570.759,-163.046 560.178,-163.589 568.788,-169.763 570.759,-163.046"/>
</g>
<!-- Node14 -->
<g id="node14" class="node"><title>Node14</title>
<g id="a_node14"><a xlink:href="../../d2/d07/classocra_1_1NewtonSolver.html" target="_top" xlink:title="NewtonSolver class. ">
<polygon fill="white" stroke="black" points="606.5,-144.5 606.5,-163.5 709.5,-163.5 709.5,-144.5 606.5,-144.5"/>
<text text-anchor="middle" x="658" y="-151.5" font-family="Helvetica,sans-Serif" font-size="10.00">ocra::NewtonSolver</text>
</a>
</g>
</g>
<!-- Node1&#45;&gt;Node14 -->
<g id="edge13" class="edge"><title>Node1&#45;&gt;Node14</title>
<path fill="none" stroke="midnightblue" d="M571.242,-154C582.534,-154 594.783,-154 606.393,-154"/>
<polygon fill="midnightblue" stroke="midnightblue" points="571.187,-150.5 561.187,-154 571.187,-157.5 571.187,-150.5"/>
</g>
<!-- Node15 -->
<g id="node15" class="node"><title>Node15</title>
<g id="a_node15"><a xlink:href="../../d2/d5e/classocra_1_1OneLevelSolver.html" target="_top" xlink:title="A generic abstract class the solvers that can be used in the wOcra Controller. ">
<polygon fill="white" stroke="black" points="603,-106.5 603,-125.5 713,-125.5 713,-106.5 603,-106.5"/>
<text text-anchor="middle" x="658" y="-113.5" font-family="Helvetica,sans-Serif" font-size="10.00">ocra::OneLevelSolver</text>
</a>
</g>
</g>
<!-- Node1&#45;&gt;Node15 -->
<g id="edge14" class="edge"><title>Node1&#45;&gt;Node15</title>
<path fill="none" stroke="midnightblue" d="M570.219,-141.465C587.836,-136.295 607.923,-130.401 624.332,-125.586"/>
<polygon fill="midnightblue" stroke="midnightblue" points="568.788,-138.237 560.178,-144.411 570.759,-144.954 568.788,-138.237"/>
</g>
<!-- Node19 -->
<g id="node19" class="node"><title>Node19</title>
<g id="a_node19"><a xlink:href="../../d7/dab/classocra_1_1QuadraticSolver.html" target="_top" xlink:title="QuadraticSolver class. ">
<polygon fill="white" stroke="black" points="602.5,-38.5 602.5,-57.5 713.5,-57.5 713.5,-38.5 602.5,-38.5"/>
<text text-anchor="middle" x="658" y="-45.5" font-family="Helvetica,sans-Serif" font-size="10.00">ocra::QuadraticSolver</text>
</a>
</g>
</g>
<!-- Node1&#45;&gt;Node19 -->
<g id="edge18" class="edge"><title>Node1&#45;&gt;Node19</title>
<path fill="none" stroke="midnightblue" d="M547.225,-137.804C561.133,-126.39 580.199,-110.75 597,-97 613.652,-83.3715 632.927,-67.638 645.041,-57.7544"/>
<polygon fill="midnightblue" stroke="midnightblue" points="544.808,-135.26 539.299,-144.31 549.249,-140.671 544.808,-135.26"/>
</g>
<!-- Node2 -->
<g id="node2" class="node"><title>Node2</title>
<g id="a_node2"><a xlink:href="../../d3/d16/classocra_1_1ObserverSubject.html" target="_top" xlink:title="ocra::ObserverSubject">
<polygon fill="white" stroke="black" points="342,-163.5 342,-182.5 456,-182.5 456,-163.5 342,-163.5"/>
<text text-anchor="middle" x="399" y="-170.5" font-family="Helvetica,sans-Serif" font-size="10.00">ocra::ObserverSubject</text>
</a>
</g>
</g>
<!-- Node2&#45;&gt;Node1 -->
<g id="edge1" class="edge"><title>Node2&#45;&gt;Node1</title>
<path fill="none" stroke="midnightblue" d="M466.138,-162.987C474.99,-161.647 483.752,-160.32 491.716,-159.115"/>
<polygon fill="midnightblue" stroke="midnightblue" points="465.506,-159.543 456.143,-164.5 466.554,-166.464 465.506,-159.543"/>
</g>
<!-- Node3 -->
<g id="node3" class="node"><title>Node3</title>
<g id="a_node3"><a xlink:href="../../d2/d45/classocra_1_1Observer.html" target="_top" xlink:title="ocra::Observer">
<polygon fill="white" stroke="black" points="225,-212.5 225,-231.5 306,-231.5 306,-212.5 225,-212.5"/>
<text text-anchor="middle" x="265.5" y="-219.5" font-family="Helvetica,sans-Serif" font-size="10.00">ocra::Observer</text>
</a>
</g>
</g>
<!-- Node3&#45;&gt;Node2 -->
<g id="edge2" class="edge"><title>Node3&#45;&gt;Node2</title>
<path fill="none" stroke="midnightblue" d="M301.617,-208.915C323.901,-200.611 352.232,-190.054 372.398,-182.54"/>
<polygon fill="midnightblue" stroke="midnightblue" points="300.315,-205.665 292.167,-212.436 302.759,-212.224 300.315,-205.665"/>
</g>
<!-- Node4 -->
<g id="node4" class="node"><title>Node4</title>
<g id="a_node4"><a xlink:href="../../d4/dee/classocra_1_1ObserverBase.html" target="_top" xlink:title="ocra::ObserverBase\l\&lt; EVT_RESIZE \&gt;">
<polygon fill="white" stroke="black" points="42.5,-281 42.5,-311 146.5,-311 146.5,-281 42.5,-281"/>
<text text-anchor="start" x="50.5" y="-299" font-family="Helvetica,sans-Serif" font-size="10.00">ocra::ObserverBase</text>
<text text-anchor="middle" x="94.5" y="-288" font-family="Helvetica,sans-Serif" font-size="10.00">&lt; EVT_RESIZE &gt;</text>
</a>
</g>
</g>
<!-- Node4&#45;&gt;Node3 -->
<g id="edge3" class="edge"><title>Node4&#45;&gt;Node3</title>
<path fill="none" stroke="midnightblue" d="M156.217,-283.567C167.347,-280.409 178.694,-276.579 189,-272 213.137,-261.276 238.109,-243.094 252.426,-231.861"/>
<polygon fill="midnightblue" stroke="midnightblue" points="155.272,-280.196 146.523,-286.171 157.089,-286.957 155.272,-280.196"/>
</g>
<!-- Node5 -->
<g id="node5" class="node"><title>Node5</title>
<g id="a_node5"><a xlink:href="../../d4/dee/classocra_1_1ObserverBase.html" target="_top" xlink:title="ocra::ObserverBase\l\&lt; EVT_CHANGE_DEPENDENCIES \&gt;">
<polygon fill="white" stroke="black" points="0,-232 0,-262 189,-262 189,-232 0,-232"/>
<text text-anchor="start" x="8" y="-250" font-family="Helvetica,sans-Serif" font-size="10.00">ocra::ObserverBase</text>
<text text-anchor="middle" x="94.5" y="-239" font-family="Helvetica,sans-Serif" font-size="10.00">&lt; EVT_CHANGE_DEPENDENCIES &gt;</text>
</a>
</g>
</g>
<!-- Node5&#45;&gt;Node3 -->
<g id="edge4" class="edge"><title>Node5&#45;&gt;Node3</title>
<path fill="none" stroke="midnightblue" d="M199.526,-231.611C208.41,-230.297 216.989,-229.028 224.84,-227.867"/>
<polygon fill="midnightblue" stroke="midnightblue" points="198.77,-228.185 189.39,-233.111 199.795,-235.11 198.77,-228.185"/>
</g>
<!-- Node6 -->
<g id="node6" class="node"><title>Node6</title>
<g id="a_node6"><a xlink:href="../../d4/dee/classocra_1_1ObserverBase.html" target="_top" xlink:title="ocra::ObserverBase\l\&lt; EVT_CHANGE_VALUE \&gt;">
<polygon fill="white" stroke="black" points="24,-183 24,-213 165,-213 165,-183 24,-183"/>
<text text-anchor="start" x="32" y="-201" font-family="Helvetica,sans-Serif" font-size="10.00">ocra::ObserverBase</text>
<text text-anchor="middle" x="94.5" y="-190" font-family="Helvetica,sans-Serif" font-size="10.00">&lt; EVT_CHANGE_VALUE &gt;</text>
</a>
</g>
</g>
<!-- Node6&#45;&gt;Node3 -->
<g id="edge5" class="edge"><title>Node6&#45;&gt;Node3</title>
<path fill="none" stroke="midnightblue" d="M175.313,-209.334C192.551,-211.782 210.051,-214.268 224.93,-216.381"/>
<polygon fill="midnightblue" stroke="midnightblue" points="175.607,-205.841 165.214,-207.9 174.623,-212.772 175.607,-205.841"/>
</g>
<!-- Node7 -->
<g id="node7" class="node"><title>Node7</title>
<g id="a_node7"><a xlink:href="../../dc/d77/classocra_1_1Subject.html" target="_top" xlink:title="ocra::Subject">
<polygon fill="white" stroke="black" points="228.5,-114.5 228.5,-133.5 302.5,-133.5 302.5,-114.5 228.5,-114.5"/>
<text text-anchor="middle" x="265.5" y="-121.5" font-family="Helvetica,sans-Serif" font-size="10.00">ocra::Subject</text>
</a>
</g>
</g>
<!-- Node7&#45;&gt;Node2 -->
<g id="edge6" class="edge"><title>Node7&#45;&gt;Node2</title>
<path fill="none" stroke="midnightblue" d="M299.441,-137.513C312.618,-142.807 327.971,-148.837 342,-154 350.671,-157.191 360.167,-160.487 368.836,-163.42"/>
<polygon fill="midnightblue" stroke="midnightblue" points="300.43,-134.137 289.847,-133.634 297.807,-140.627 300.43,-134.137"/>
</g>
<!-- Node8 -->
<g id="node8" class="node"><title>Node8</title>
<g id="a_node8"><a xlink:href="../../dc/d29/classocra_1_1SubjectBase.html" target="_top" xlink:title="ocra::SubjectBase\&lt;\l EVT_RESIZE \&gt;">
<polygon fill="white" stroke="black" points="43,-134 43,-164 146,-164 146,-134 43,-134"/>
<text text-anchor="start" x="51" y="-152" font-family="Helvetica,sans-Serif" font-size="10.00">ocra::SubjectBase&lt;</text>
<text text-anchor="middle" x="94.5" y="-141" font-family="Helvetica,sans-Serif" font-size="10.00"> EVT_RESIZE &gt;</text>
</a>
</g>
</g>
<!-- Node8&#45;&gt;Node7 -->
<g id="edge7" class="edge"><title>Node8&#45;&gt;Node7</title>
<path fill="none" stroke="midnightblue" d="M156.345,-139.999C180.463,-136.432 207.377,-132.45 228.323,-129.352"/>
<polygon fill="midnightblue" stroke="midnightblue" points="155.586,-136.573 146.206,-141.499 156.61,-143.498 155.586,-136.573"/>
</g>
<!-- Node9 -->
<g id="node9" class="node"><title>Node9</title>
<g id="a_node9"><a xlink:href="../../dc/d29/classocra_1_1SubjectBase.html" target="_top" xlink:title="ocra::SubjectBase\&lt;\l EVT_CHANGE_DEPENDENCIES \&gt;">
<polygon fill="white" stroke="black" points="3,-85 3,-115 186,-115 186,-85 3,-85"/>
<text text-anchor="start" x="11" y="-103" font-family="Helvetica,sans-Serif" font-size="10.00">ocra::SubjectBase&lt;</text>
<text text-anchor="middle" x="94.5" y="-92" font-family="Helvetica,sans-Serif" font-size="10.00"> EVT_CHANGE_DEPENDENCIES &gt;</text>
</a>
</g>
</g>
<!-- Node9&#45;&gt;Node7 -->
<g id="edge8" class="edge"><title>Node9&#45;&gt;Node7</title>
<path fill="none" stroke="midnightblue" d="M196.458,-114.337C207.772,-115.944 218.677,-117.493 228.318,-118.862"/>
<polygon fill="midnightblue" stroke="midnightblue" points="196.824,-110.854 186.431,-112.913 195.84,-117.785 196.824,-110.854"/>
</g>
<!-- Node10 -->
<g id="node10" class="node"><title>Node10</title>
<g id="a_node10"><a xlink:href="../../dc/d29/classocra_1_1SubjectBase.html" target="_top" xlink:title="ocra::SubjectBase\&lt;\l EVT_CHANGE_VALUE \&gt;">
<polygon fill="white" stroke="black" points="27,-36 27,-66 162,-66 162,-36 27,-36"/>
<text text-anchor="start" x="35" y="-54" font-family="Helvetica,sans-Serif" font-size="10.00">ocra::SubjectBase&lt;</text>
<text text-anchor="middle" x="94.5" y="-43" font-family="Helvetica,sans-Serif" font-size="10.00"> EVT_CHANGE_VALUE &gt;</text>
</a>
</g>
</g>
<!-- Node10&#45;&gt;Node7 -->
<g id="edge9" class="edge"><title>Node10&#45;&gt;Node7</title>
<path fill="none" stroke="midnightblue" d="M172.11,-68.4681C177.903,-70.4534 183.593,-72.6275 189,-75 213.04,-85.5477 238.043,-103.354 252.391,-114.35"/>
<polygon fill="midnightblue" stroke="midnightblue" points="172.889,-65.0417 162.297,-65.3035 170.74,-71.7038 172.889,-65.0417"/>
</g>
<!-- Node11 -->
<g id="node11" class="node"><title>Node11</title>
<g id="a_node11"><a xlink:href="../../db/de3/classocra_1_1NamedInstance.html" target="_top" xlink:title="ocra::NamedInstance">
<polygon fill="white" stroke="black" points="344,-125.5 344,-144.5 454,-144.5 454,-125.5 344,-125.5"/>
<text text-anchor="middle" x="399" y="-132.5" font-family="Helvetica,sans-Serif" font-size="10.00">ocra::NamedInstance</text>
</a>
</g>
</g>
<!-- Node11&#45;&gt;Node1 -->
<g id="edge10" class="edge"><title>Node11&#45;&gt;Node1</title>
<path fill="none" stroke="midnightblue" d="M464.211,-144.721C473.725,-146.162 483.195,-147.595 491.745,-148.89"/>
<polygon fill="midnightblue" stroke="midnightblue" points="464.727,-141.26 454.316,-143.223 463.68,-148.181 464.727,-141.26"/>
</g>
<!-- Node16 -->
<g id="node16" class="node"><title>Node16</title>
<g id="a_node16"><a xlink:href="../../df/d1b/classocra_1_1OneLevelSolverWithQLD.html" target="_top" xlink:title="Solver class that only consider one level of importance for all tasks using QLD. ">
<polygon fill="white" stroke="black" points="755,-175.5 755,-194.5 906,-194.5 906,-175.5 755,-175.5"/>
<text text-anchor="middle" x="830.5" y="-182.5" font-family="Helvetica,sans-Serif" font-size="10.00">ocra::OneLevelSolverWithQLD</text>
</a>
</g>
</g>
<!-- Node15&#45;&gt;Node16 -->
<g id="edge15" class="edge"><title>Node15&#45;&gt;Node16</title>
<path fill="none" stroke="midnightblue" d="M706.545,-129.137C710.85,-130.896 715.066,-132.847 719,-135 737.271,-144.998 736.512,-155.41 755,-165 763.203,-169.255 772.396,-172.669 781.449,-175.386"/>
<polygon fill="midnightblue" stroke="midnightblue" points="707.645,-125.812 697.052,-125.592 705.196,-132.37 707.645,-125.812"/>
</g>
<!-- Node17 -->
<g id="node17" class="node"><title>Node17</title>
<g id="a_node17"><a xlink:href="../../d0/d12/classocra_1_1OneLevelSolverWithQPOASES.html" target="_top" xlink:title="Solver class that only consider one level of importance for all tasks using QPOASES. ">
<polygon fill="white" stroke="black" points="765,-126 765,-156 896,-156 896,-126 765,-126"/>
<text text-anchor="start" x="773" y="-144" font-family="Helvetica,sans-Serif" font-size="10.00">ocra::OneLevelSolverWith</text>
<text text-anchor="middle" x="830.5" y="-133" font-family="Helvetica,sans-Serif" font-size="10.00">QPOASES</text>
</a>
</g>
</g>
<!-- Node15&#45;&gt;Node17 -->
<g id="edge16" class="edge"><title>Node15&#45;&gt;Node17</title>
<path fill="none" stroke="midnightblue" d="M723.586,-125.47C737.105,-127.452 751.362,-129.543 764.882,-131.525"/>
<polygon fill="midnightblue" stroke="midnightblue" points="723.818,-121.967 713.416,-123.979 722.802,-128.893 723.818,-121.967"/>
</g>
<!-- Node18 -->
<g id="node18" class="node"><title>Node18</title>
<g id="a_node18"><a xlink:href="../../d9/d45/classocra_1_1OneLevelSolverWithQuadProg.html" target="_top" xlink:title="Solver class that only consider one level of importance for all tasks using Quadprog++. ">
<polygon fill="white" stroke="black" points="765,-77 765,-107 896,-107 896,-77 765,-77"/>
<text text-anchor="start" x="773" y="-95" font-family="Helvetica,sans-Serif" font-size="10.00">ocra::OneLevelSolverWith</text>
<text text-anchor="middle" x="830.5" y="-84" font-family="Helvetica,sans-Serif" font-size="10.00">QuadProg</text>
</a>
</g>
</g>
<!-- Node15&#45;&gt;Node18 -->
<g id="edge17" class="edge"><title>Node15&#45;&gt;Node18</title>
<path fill="none" stroke="midnightblue" d="M723.586,-106.909C737.105,-105.006 751.362,-102.999 764.882,-101.096"/>
<polygon fill="midnightblue" stroke="midnightblue" points="722.831,-103.48 713.416,-108.34 723.806,-110.412 722.831,-103.48"/>
</g>
<!-- Node20 -->
<g id="node20" class="node"><title>Node20</title>
<g id="a_node20"><a xlink:href="../../d4/d02/classocra_1_1CmlQuadraticSolver.html" target="_top" xlink:title="CmlQuadraticSolver class. ">
<polygon fill="white" stroke="black" points="766,-38.5 766,-57.5 895,-57.5 895,-38.5 766,-38.5"/>
<text text-anchor="middle" x="830.5" y="-45.5" font-family="Helvetica,sans-Serif" font-size="10.00">ocra::CmlQuadraticSolver</text>
</a>
</g>
</g>
<!-- Node19&#45;&gt;Node20 -->
<g id="edge19" class="edge"><title>Node19&#45;&gt;Node20</title>
<path fill="none" stroke="midnightblue" d="M724.163,-48C737.821,-48 752.208,-48 765.811,-48"/>
<polygon fill="midnightblue" stroke="midnightblue" points="723.886,-44.5001 713.886,-48 723.886,-51.5001 723.886,-44.5001"/>
</g>
<!-- Node21 -->
<g id="node21" class="node"><title>Node21</title>
<g id="a_node21"><a xlink:href="../../d2/dab/classocra_1_1QLDSolver.html" target="_top" xlink:title="QLDSolver class. ">
<polygon fill="white" stroke="black" points="786,-0.5 786,-19.5 875,-19.5 875,-0.5 786,-0.5"/>
<text text-anchor="middle" x="830.5" y="-7.5" font-family="Helvetica,sans-Serif" font-size="10.00">ocra::QLDSolver</text>
</a>
</g>
</g>
<!-- Node19&#45;&gt;Node21 -->
<g id="edge20" class="edge"><title>Node19&#45;&gt;Node21</title>
<path fill="none" stroke="midnightblue" d="M712.054,-36.1757C736.091,-30.8184 764.132,-24.5689 786.785,-19.5201"/>
<polygon fill="midnightblue" stroke="midnightblue" points="711.023,-32.8194 702.024,-38.411 712.546,-39.6517 711.023,-32.8194"/>
</g>
</g>
</svg>
