<?xml version="1.0" encoding="UTF-8" standalone="no"?>
<!DOCTYPE svg PUBLIC "-//W3C//DTD SVG 1.1//EN"
 "http://www.w3.org/Graphics/SVG/1.1/DTD/svg11.dtd">
<!-- Generated by graphviz version 2.38.0 (20140413.2041)
 -->
<!-- Title: AbilitySet.h Pages: 1 -->
<svg width="496pt" height="196pt"
 viewBox="0.00 0.00 495.50 196.00" xmlns="http://www.w3.org/2000/svg" xmlns:xlink="http://www.w3.org/1999/xlink">
<g id="graph0" class="graph" transform="scale(1 1) rotate(0) translate(4 192)">
<title>AbilitySet.h</title>
<polygon fill="white" stroke="none" points="-4,4 -4,-192 491.5,-192 491.5,4 -4,4"/>
<!-- Node1 -->
<g id="node1" class="node"><title>Node1</title>
<polygon fill="#bfbfbf" stroke="black" points="359,-168.5 359,-187.5 426,-187.5 426,-168.5 359,-168.5"/>
<text text-anchor="middle" x="392.5" y="-175.5" font-family="Helvetica,sans-Serif" font-size="10.00">AbilitySet.h</text>
</g>
<!-- Node2 -->
<g id="node2" class="node"><title>Node2</title>
<g id="a_node2"><a xlink:href="../../de/d94/IFunction_8h.html" target="_top" xlink:title="Declaration file of the IFunction interface. ">
<polygon fill="white" stroke="black" points="278.5,-112.5 278.5,-131.5 392.5,-131.5 392.5,-112.5 278.5,-112.5"/>
<text text-anchor="middle" x="335.5" y="-119.5" font-family="Helvetica,sans-Serif" font-size="10.00">ocra/optim/IFunction.h</text>
</a>
</g>
</g>
<!-- Node1&#45;&gt;Node2 -->
<g id="edge1" class="edge"><title>Node1&#45;&gt;Node2</title>
<path fill="none" stroke="midnightblue" d="M383.342,-168.324C374.999,-160.42 362.468,-148.548 352.323,-138.938"/>
<polygon fill="midnightblue" stroke="midnightblue" points="354.491,-136.171 344.825,-131.834 349.677,-141.252 354.491,-136.171"/>
</g>
<!-- Node9 -->
<g id="node9" class="node"><title>Node9</title>
<polygon fill="white" stroke="#bfbfbf" points="443.5,-56.5 443.5,-75.5 487.5,-75.5 487.5,-56.5 443.5,-56.5"/>
<text text-anchor="middle" x="465.5" y="-63.5" font-family="Helvetica,sans-Serif" font-size="10.00">vector</text>
</g>
<!-- Node1&#45;&gt;Node9 -->
<g id="edge10" class="edge"><title>Node1&#45;&gt;Node9</title>
<path fill="none" stroke="midnightblue" d="M398.228,-168.368C410.275,-150.215 438.423,-107.802 454.225,-83.9902"/>
<polygon fill="midnightblue" stroke="midnightblue" points="457.185,-85.8589 459.798,-75.5914 451.353,-81.9882 457.185,-85.8589"/>
</g>
<!-- Node3 -->
<g id="node3" class="node"><title>Node3</title>
<g id="a_node3"><a xlink:href="../../d5/d55/MathTypes_8h.html" target="_top" xlink:title="Declaration file of the OptimizationVariable class. ">
<polygon fill="white" stroke="black" points="21,-56.5 21,-75.5 132,-75.5 132,-56.5 21,-56.5"/>
<text text-anchor="middle" x="76.5" y="-63.5" font-family="Helvetica,sans-Serif" font-size="10.00">ocra/util/MathTypes.h</text>
</a>
</g>
</g>
<!-- Node2&#45;&gt;Node3 -->
<g id="edge2" class="edge"><title>Node2&#45;&gt;Node3</title>
<path fill="none" stroke="midnightblue" d="M294.461,-112.444C249.184,-103.004 176.273,-87.802 127.394,-77.6111"/>
<polygon fill="midnightblue" stroke="midnightblue" points="127.851,-74.1312 117.347,-75.5164 126.422,-80.9839 127.851,-74.1312"/>
</g>
<!-- Node6 -->
<g id="node6" class="node"><title>Node6</title>
<g id="a_node6"><a xlink:href="../../de/df3/ocra__assert_8h.html" target="_top" xlink:title="ocra/optim/ocra_assert.h">
<polygon fill="white" stroke="black" points="150,-56.5 150,-75.5 275,-75.5 275,-56.5 150,-56.5"/>
<text text-anchor="middle" x="212.5" y="-63.5" font-family="Helvetica,sans-Serif" font-size="10.00">ocra/optim/ocra_assert.h</text>
</a>
</g>
</g>
<!-- Node2&#45;&gt;Node6 -->
<g id="edge5" class="edge"><title>Node2&#45;&gt;Node6</title>
<path fill="none" stroke="midnightblue" d="M316.01,-112.444C295.858,-103.596 264.177,-89.6875 241.169,-79.5865"/>
<polygon fill="midnightblue" stroke="midnightblue" points="242.462,-76.3316 231.899,-75.5164 239.648,-82.7411 242.462,-76.3316"/>
</g>
<!-- Node8 -->
<g id="node8" class="node"><title>Node8</title>
<polygon fill="white" stroke="#bfbfbf" points="293.5,-56.5 293.5,-75.5 347.5,-75.5 347.5,-56.5 293.5,-56.5"/>
<text text-anchor="middle" x="320.5" y="-63.5" font-family="Helvetica,sans-Serif" font-size="10.00">iostream</text>
</g>
<!-- Node2&#45;&gt;Node8 -->
<g id="edge7" class="edge"><title>Node2&#45;&gt;Node8</title>
<path fill="none" stroke="midnightblue" d="M333.023,-112.083C331.014,-104.849 328.114,-94.4087 325.61,-85.3968"/>
<polygon fill="midnightblue" stroke="midnightblue" points="328.98,-84.4495 322.931,-75.7511 322.235,-86.323 328.98,-84.4495"/>
</g>
<!-- Node2&#45;&gt;Node9 -->
<g id="edge8" class="edge"><title>Node2&#45;&gt;Node9</title>
<path fill="none" stroke="midnightblue" d="M356.099,-112.444C377.493,-103.557 411.181,-89.5632 435.524,-79.4514"/>
<polygon fill="midnightblue" stroke="midnightblue" points="437.105,-82.5848 444.997,-75.5164 434.42,-76.1203 437.105,-82.5848"/>
</g>
<!-- Node10 -->
<g id="node10" class="node"><title>Node10</title>
<polygon fill="white" stroke="#bfbfbf" points="366,-56.5 366,-75.5 425,-75.5 425,-56.5 366,-56.5"/>
<text text-anchor="middle" x="395.5" y="-63.5" font-family="Helvetica,sans-Serif" font-size="10.00">stdexcept</text>
</g>
<!-- Node2&#45;&gt;Node10 -->
<g id="edge9" class="edge"><title>Node2&#45;&gt;Node10</title>
<path fill="none" stroke="midnightblue" d="M345.14,-112.324C354.01,-104.341 367.375,-92.3128 378.108,-82.6529"/>
<polygon fill="midnightblue" stroke="midnightblue" points="380.593,-85.1251 385.685,-75.8339 375.91,-79.922 380.593,-85.1251"/>
</g>
<!-- Node4 -->
<g id="node4" class="node"><title>Node4</title>
<polygon fill="white" stroke="#bfbfbf" points="0,-0.5 0,-19.5 73,-19.5 73,-0.5 0,-0.5"/>
<text text-anchor="middle" x="36.5" y="-7.5" font-family="Helvetica,sans-Serif" font-size="10.00">Eigen/Dense</text>
</g>
<!-- Node3&#45;&gt;Node4 -->
<g id="edge3" class="edge"><title>Node3&#45;&gt;Node4</title>
<path fill="none" stroke="midnightblue" d="M69.8948,-56.083C64.2448,-48.4554 55.9552,-37.2645 49.0488,-27.9408"/>
<polygon fill="midnightblue" stroke="midnightblue" points="51.7471,-25.7034 42.9823,-19.7511 46.1221,-29.87 51.7471,-25.7034"/>
</g>
<!-- Node5 -->
<g id="node5" class="node"><title>Node5</title>
<polygon fill="white" stroke="#bfbfbf" points="91.5,-0.5 91.5,-19.5 135.5,-19.5 135.5,-0.5 91.5,-0.5"/>
<text text-anchor="middle" x="113.5" y="-7.5" font-family="Helvetica,sans-Serif" font-size="10.00">cmath</text>
</g>
<!-- Node3&#45;&gt;Node5 -->
<g id="edge4" class="edge"><title>Node3&#45;&gt;Node5</title>
<path fill="none" stroke="midnightblue" d="M82.6098,-56.083C87.7822,-48.5341 95.3461,-37.4948 101.694,-28.2298"/>
<polygon fill="midnightblue" stroke="midnightblue" points="104.739,-29.9787 107.504,-19.7511 98.9643,-26.0221 104.739,-29.9787"/>
</g>
<!-- Node7 -->
<g id="node7" class="node"><title>Node7</title>
<polygon fill="white" stroke="#bfbfbf" points="191,-0.5 191,-19.5 234,-19.5 234,-0.5 191,-0.5"/>
<text text-anchor="middle" x="212.5" y="-7.5" font-family="Helvetica,sans-Serif" font-size="10.00">cstdio</text>
</g>
<!-- Node6&#45;&gt;Node7 -->
<g id="edge6" class="edge"><title>Node6&#45;&gt;Node7</title>
<path fill="none" stroke="midnightblue" d="M212.5,-56.083C212.5,-49.0059 212.5,-38.8611 212.5,-29.9865"/>
<polygon fill="midnightblue" stroke="midnightblue" points="216,-29.751 212.5,-19.7511 209,-29.7511 216,-29.751"/>
</g>
</g>
</svg>
