<?xml version="1.0" encoding="UTF-8" standalone="no"?>
<!DOCTYPE svg PUBLIC "-//W3C//DTD SVG 1.1//EN"
 "http://www.w3.org/Graphics/SVG/1.1/DTD/svg11.dtd">
<!-- Generated by graphviz version 2.38.0 (20140413.2041)
 -->
<!-- Title: TaskConnection.h Pages: 1 -->
<svg width="463pt" height="196pt"
 viewBox="0.00 0.00 462.50 196.00" xmlns="http://www.w3.org/2000/svg" xmlns:xlink="http://www.w3.org/1999/xlink">
<g id="graph0" class="graph" transform="scale(1 1) rotate(0) translate(4 192)">
<title>TaskConnection.h</title>
<polygon fill="white" stroke="none" points="-4,4 -4,-192 458.5,-192 458.5,4 -4,4"/>
<!-- Node1 -->
<g id="node1" class="node"><title>Node1</title>
<polygon fill="#bfbfbf" stroke="black" points="233,-168.5 233,-187.5 329,-187.5 329,-168.5 233,-168.5"/>
<text text-anchor="middle" x="281" y="-175.5" font-family="Helvetica,sans-Serif" font-size="10.00">TaskConnection.h</text>
</g>
<!-- Node2 -->
<g id="node2" class="node"><title>Node2</title>
<g id="a_node2"><a xlink:href="../../db/d9a/ControllerClient_8h.html" target="_top" xlink:title="ControllerClient.h">
<polygon fill="white" stroke="black" points="117,-112.5 117,-131.5 209,-131.5 209,-112.5 117,-112.5"/>
<text text-anchor="middle" x="163" y="-119.5" font-family="Helvetica,sans-Serif" font-size="10.00">ControllerClient.h</text>
</a>
</g>
</g>
<!-- Node1&#45;&gt;Node2 -->
<g id="edge1" class="edge"><title>Node1&#45;&gt;Node2</title>
<path fill="none" stroke="midnightblue" d="M253.1,-164.232C231.027,-154.131 200.824,-140.309 181.61,-131.516"/>
<polygon fill="midnightblue" stroke="midnightblue" points="251.753,-167.465 262.303,-168.444 254.666,-161.1 251.753,-167.465"/>
</g>
<!-- Node6 -->
<g id="node6" class="node"><title>Node6</title>
<g id="a_node6"><a xlink:href="../../da/d00/TrajectoryThread_8h.html" target="_top" xlink:title="A thread for launching trajectory generators. ">
<polygon fill="white" stroke="black" points="232,-112.5 232,-131.5 330,-131.5 330,-112.5 232,-112.5"/>
<text text-anchor="middle" x="281" y="-119.5" font-family="Helvetica,sans-Serif" font-size="10.00">TrajectoryThread.h</text>
</a>
</g>
</g>
<!-- Node1&#45;&gt;Node6 -->
<g id="edge5" class="edge"><title>Node1&#45;&gt;Node6</title>
<path fill="none" stroke="midnightblue" d="M281,-157.805C281,-148.91 281,-138.78 281,-131.751"/>
<polygon fill="midnightblue" stroke="midnightblue" points="277.5,-158.083 281,-168.083 284.5,-158.083 277.5,-158.083"/>
</g>
<!-- Node8 -->
<g id="node8" class="node"><title>Node8</title>
<g id="a_node8"><a xlink:href="../../d1/d60/TaskConnection_8cpp.html" target="_top" xlink:title="TaskConnection.cpp">
<polygon fill="white" stroke="black" points="347.5,-112.5 347.5,-131.5 454.5,-131.5 454.5,-112.5 347.5,-112.5"/>
<text text-anchor="middle" x="401" y="-119.5" font-family="Helvetica,sans-Serif" font-size="10.00">TaskConnection.cpp</text>
</a>
</g>
</g>
<!-- Node1&#45;&gt;Node8 -->
<g id="edge7" class="edge"><title>Node1&#45;&gt;Node8</title>
<path fill="none" stroke="midnightblue" d="M309.373,-164.232C331.82,-154.131 362.535,-140.309 382.075,-131.516"/>
<polygon fill="midnightblue" stroke="midnightblue" points="307.697,-161.148 300.014,-168.444 310.57,-167.532 307.697,-161.148"/>
</g>
<!-- Node3 -->
<g id="node3" class="node"><title>Node3</title>
<g id="a_node3"><a xlink:href="../../d8/d80/ClientManager_8h.html" target="_top" xlink:title="Module class for the controller Client. ">
<polygon fill="white" stroke="black" points="5,-56.5 5,-75.5 93,-75.5 93,-56.5 5,-56.5"/>
<text text-anchor="middle" x="49" y="-63.5" font-family="Helvetica,sans-Serif" font-size="10.00">ClientManager.h</text>
</a>
</g>
</g>
<!-- Node2&#45;&gt;Node3 -->
<g id="edge2" class="edge"><title>Node2&#45;&gt;Node3</title>
<path fill="none" stroke="midnightblue" d="M135.758,-108.096C114.46,-98.0073 85.4583,-84.2697 66.9791,-75.5164"/>
<polygon fill="midnightblue" stroke="midnightblue" points="134.401,-111.326 144.936,-112.444 137.397,-105 134.401,-111.326"/>
</g>
<!-- Node5 -->
<g id="node5" class="node"><title>Node5</title>
<g id="a_node5"><a xlink:href="../../d2/d77/ControllerClient_8cpp.html" target="_top" xlink:title="ControllerClient.cpp">
<polygon fill="white" stroke="black" points="111.5,-56.5 111.5,-75.5 214.5,-75.5 214.5,-56.5 111.5,-56.5"/>
<text text-anchor="middle" x="163" y="-63.5" font-family="Helvetica,sans-Serif" font-size="10.00">ControllerClient.cpp</text>
</a>
</g>
</g>
<!-- Node2&#45;&gt;Node5 -->
<g id="edge4" class="edge"><title>Node2&#45;&gt;Node5</title>
<path fill="none" stroke="midnightblue" d="M163,-101.805C163,-92.9102 163,-82.7798 163,-75.7511"/>
<polygon fill="midnightblue" stroke="midnightblue" points="159.5,-102.083 163,-112.083 166.5,-102.083 159.5,-102.083"/>
</g>
<!-- Node4 -->
<g id="node4" class="node"><title>Node4</title>
<g id="a_node4"><a xlink:href="../../d9/d36/ClientManager_8cpp.html" target="_top" xlink:title="ClientManager.cpp">
<polygon fill="white" stroke="black" points="0,-0.5 0,-19.5 98,-19.5 98,-0.5 0,-0.5"/>
<text text-anchor="middle" x="49" y="-7.5" font-family="Helvetica,sans-Serif" font-size="10.00">ClientManager.cpp</text>
</a>
</g>
</g>
<!-- Node3&#45;&gt;Node4 -->
<g id="edge3" class="edge"><title>Node3&#45;&gt;Node4</title>
<path fill="none" stroke="midnightblue" d="M49,-45.8045C49,-36.9102 49,-26.7798 49,-19.7511"/>
<polygon fill="midnightblue" stroke="midnightblue" points="45.5001,-46.083 49,-56.083 52.5001,-46.083 45.5001,-46.083"/>
</g>
<!-- Node7 -->
<g id="node7" class="node"><title>Node7</title>
<g id="a_node7"><a xlink:href="../../d6/db4/TrajectoryThread_8cpp.html" target="_top" xlink:title="A thread for launching trajectory generators. ">
<polygon fill="white" stroke="black" points="232.5,-56.5 232.5,-75.5 341.5,-75.5 341.5,-56.5 232.5,-56.5"/>
<text text-anchor="middle" x="287" y="-63.5" font-family="Helvetica,sans-Serif" font-size="10.00">TrajectoryThread.cpp</text>
</a>
</g>
</g>
<!-- Node6&#45;&gt;Node7 -->
<g id="edge6" class="edge"><title>Node6&#45;&gt;Node7</title>
<path fill="none" stroke="midnightblue" d="M283.1,-102.101C284.096,-93.1357 285.238,-82.8579 286.028,-75.7511"/>
<polygon fill="midnightblue" stroke="midnightblue" points="279.617,-101.758 281.991,-112.083 286.574,-102.531 279.617,-101.758"/>
</g>
</g>
</svg>
