<?xml version="1.0" encoding="UTF-8" standalone="no"?>
<!DOCTYPE svg PUBLIC "-//W3C//DTD SVG 1.1//EN"
 "http://www.w3.org/Graphics/SVG/1.1/DTD/svg11.dtd">
<!-- Generated by graphviz version 2.38.0 (20140413.2041)
 -->
<!-- Title: YarpUtilities.h Pages: 1 -->
<svg width="406pt" height="84pt"
 viewBox="0.00 0.00 406.00 84.00" xmlns="http://www.w3.org/2000/svg" xmlns:xlink="http://www.w3.org/1999/xlink">
<g id="graph0" class="graph" transform="scale(1 1) rotate(0) translate(4 80)">
<title>YarpUtilities.h</title>
<polygon fill="white" stroke="none" points="-4,4 -4,-80 402,-80 402,4 -4,4"/>
<!-- Node1 -->
<g id="node1" class="node"><title>Node1</title>
<polygon fill="#bfbfbf" stroke="black" points="132,-56.5 132,-75.5 210,-75.5 210,-56.5 132,-56.5"/>
<text text-anchor="middle" x="171" y="-63.5" font-family="Helvetica,sans-Serif" font-size="10.00">YarpUtilities.h</text>
</g>
<!-- Node2 -->
<g id="node2" class="node"><title>Node2</title>
<polygon fill="white" stroke="#bfbfbf" points="0,-0.5 0,-19.5 54,-19.5 54,-0.5 0,-0.5"/>
<text text-anchor="middle" x="27" y="-7.5" font-family="Helvetica,sans-Serif" font-size="10.00">iostream</text>
</g>
<!-- Node1&#45;&gt;Node2 -->
<g id="edge1" class="edge"><title>Node1&#45;&gt;Node2</title>
<path fill="none" stroke="midnightblue" d="M148.183,-56.4435C124.168,-47.4381 86.171,-33.1891 59.1308,-23.049"/>
<polygon fill="midnightblue" stroke="midnightblue" points="60.3027,-19.7506 49.7105,-19.5164 57.8448,-26.3049 60.3027,-19.7506"/>
</g>
<!-- Node3 -->
<g id="node3" class="node"><title>Node3</title>
<polygon fill="white" stroke="#bfbfbf" points="72,-0.5 72,-19.5 116,-19.5 116,-0.5 72,-0.5"/>
<text text-anchor="middle" x="94" y="-7.5" font-family="Helvetica,sans-Serif" font-size="10.00">vector</text>
</g>
<!-- Node1&#45;&gt;Node3 -->
<g id="edge2" class="edge"><title>Node1&#45;&gt;Node3</title>
<path fill="none" stroke="midnightblue" d="M158.629,-56.324C146.842,-48.0577 128.868,-35.4527 114.864,-25.6322"/>
<polygon fill="midnightblue" stroke="midnightblue" points="116.538,-22.5307 106.341,-19.6545 112.518,-28.2619 116.538,-22.5307"/>
</g>
<!-- Node4 -->
<g id="node4" class="node"><title>Node4</title>
<polygon fill="white" stroke="#bfbfbf" points="134.5,-0.5 134.5,-19.5 207.5,-19.5 207.5,-0.5 134.5,-0.5"/>
<text text-anchor="middle" x="171" y="-7.5" font-family="Helvetica,sans-Serif" font-size="10.00">Eigen/Dense</text>
</g>
<!-- Node1&#45;&gt;Node4 -->
<g id="edge3" class="edge"><title>Node1&#45;&gt;Node4</title>
<path fill="none" stroke="midnightblue" d="M171,-56.083C171,-49.0059 171,-38.8611 171,-29.9865"/>
<polygon fill="midnightblue" stroke="midnightblue" points="174.5,-29.751 171,-19.7511 167.5,-29.7511 174.5,-29.751"/>
</g>
<!-- Node5 -->
<g id="node5" class="node"><title>Node5</title>
<polygon fill="white" stroke="#bfbfbf" points="226,-0.5 226,-19.5 294,-19.5 294,-0.5 226,-0.5"/>
<text text-anchor="middle" x="260" y="-7.5" font-family="Helvetica,sans-Serif" font-size="10.00">Eigen/Lgsm</text>
</g>
<!-- Node1&#45;&gt;Node5 -->
<g id="edge4" class="edge"><title>Node1&#45;&gt;Node5</title>
<path fill="none" stroke="midnightblue" d="M185.299,-56.324C199.183,-47.9002 220.492,-34.9709 236.804,-25.0741"/>
<polygon fill="midnightblue" stroke="midnightblue" points="239.002,-27.8341 245.736,-19.6545 235.371,-21.8495 239.002,-27.8341"/>
</g>
<!-- Node6 -->
<g id="node6" class="node"><title>Node6</title>
<polygon fill="white" stroke="#bfbfbf" points="312,-0.5 312,-19.5 398,-19.5 398,-0.5 312,-0.5"/>
<text text-anchor="middle" x="355" y="-7.5" font-family="Helvetica,sans-Serif" font-size="10.00">yarp/os/Bottle.h</text>
</g>
<!-- Node1&#45;&gt;Node6 -->
<g id="edge5" class="edge"><title>Node1&#45;&gt;Node6</title>
<path fill="none" stroke="midnightblue" d="M200.155,-56.4435C231.513,-47.2406 281.531,-32.5617 316.197,-22.3879"/>
<polygon fill="midnightblue" stroke="midnightblue" points="317.371,-25.6909 325.981,-19.5164 315.4,-18.9742 317.371,-25.6909"/>
</g>
</g>
</svg>
