<?xml version="1.0" encoding="UTF-8" standalone="no"?>
<!DOCTYPE svg PUBLIC "-//W3C//DTD SVG 1.1//EN"
 "http://www.w3.org/Graphics/SVG/1.1/DTD/svg11.dtd">
<!-- Generated by graphviz version 2.38.0 (20140413.2041)
 -->
<!-- Title: FunctionUtilities.h Pages: 1 -->
<svg width="374pt" height="84pt"
 viewBox="0.00 0.00 374.00 84.00" xmlns="http://www.w3.org/2000/svg" xmlns:xlink="http://www.w3.org/1999/xlink">
<g id="graph0" class="graph" transform="scale(1 1) rotate(0) translate(4 80)">
<title>FunctionUtilities.h</title>
<polygon fill="white" stroke="none" points="-4,4 -4,-80 370,-80 370,4 -4,4"/>
<!-- Node1 -->
<g id="node1" class="node"><title>Node1</title>
<polygon fill="#bfbfbf" stroke="black" points="118.5,-56.5 118.5,-75.5 213.5,-75.5 213.5,-56.5 118.5,-56.5"/>
<text text-anchor="middle" x="166" y="-63.5" font-family="Helvetica,sans-Serif" font-size="10.00">FunctionUtilities.h</text>
</g>
<!-- Node2 -->
<g id="node2" class="node"><title>Node2</title>
<g id="a_node2"><a xlink:href="../../dd/d93/FunctionUtilities_8cpp.html" target="_top" xlink:title="FunctionUtilities.cpp">
<polygon fill="white" stroke="black" points="0,-0.5 0,-19.5 106,-19.5 106,-0.5 0,-0.5"/>
<text text-anchor="middle" x="53" y="-7.5" font-family="Helvetica,sans-Serif" font-size="10.00">FunctionUtilities.cpp</text>
</a>
</g>
</g>
<!-- Node1&#45;&gt;Node2 -->
<g id="edge1" class="edge"><title>Node1&#45;&gt;Node2</title>
<path fill="none" stroke="midnightblue" d="M138.997,-52.096C117.886,-42.0073 89.1385,-28.2697 70.8214,-19.5164"/>
<polygon fill="midnightblue" stroke="midnightblue" points="137.563,-55.2897 148.095,-56.4435 140.581,-48.9738 137.563,-55.2897"/>
</g>
<!-- Node3 -->
<g id="node3" class="node"><title>Node3</title>
<g id="a_node3"><a xlink:href="../../db/d6f/LinearTask_8cpp.html" target="_top" xlink:title="LinearTask.cpp">
<polygon fill="white" stroke="black" points="124.5,-0.5 124.5,-19.5 207.5,-19.5 207.5,-0.5 124.5,-0.5"/>
<text text-anchor="middle" x="166" y="-7.5" font-family="Helvetica,sans-Serif" font-size="10.00">LinearTask.cpp</text>
</a>
</g>
</g>
<!-- Node1&#45;&gt;Node3 -->
<g id="edge2" class="edge"><title>Node1&#45;&gt;Node3</title>
<path fill="none" stroke="midnightblue" d="M166,-45.8045C166,-36.9102 166,-26.7798 166,-19.7511"/>
<polygon fill="midnightblue" stroke="midnightblue" points="162.5,-46.083 166,-56.083 169.5,-46.083 162.5,-46.083"/>
</g>
<!-- Node4 -->
<g id="node4" class="node"><title>Node4</title>
<g id="a_node4"><a xlink:href="../../db/d64/SecondOrderLinearTask_8cpp.html" target="_top" xlink:title="SecondOrderLinearTask.cpp">
<polygon fill="white" stroke="black" points="226,-0.5 226,-19.5 366,-19.5 366,-0.5 226,-0.5"/>
<text text-anchor="middle" x="296" y="-7.5" font-family="Helvetica,sans-Serif" font-size="10.00">SecondOrderLinearTask.cpp</text>
</a>
</g>
</g>
<!-- Node1&#45;&gt;Node4 -->
<g id="edge3" class="edge"><title>Node1&#45;&gt;Node4</title>
<path fill="none" stroke="midnightblue" d="M196.085,-52.503C220.457,-42.3795 254.14,-28.388 275.497,-19.5164"/>
<polygon fill="midnightblue" stroke="midnightblue" points="194.491,-49.3752 186.599,-56.4435 197.177,-55.8397 194.491,-49.3752"/>
</g>
</g>
</svg>
