<?xml version="1.0" encoding="UTF-8" standalone="no"?>
<!DOCTYPE svg PUBLIC "-//W3C//DTD SVG 1.1//EN"
 "http://www.w3.org/Graphics/SVG/1.1/DTD/svg11.dtd">
<!-- Generated by graphviz version 2.38.0 (20140413.2041)
 -->
<!-- Title: ControlThread.cpp Pages: 1 -->
<svg width="844pt" height="196pt"
 viewBox="0.00 0.00 844.00 196.00" xmlns="http://www.w3.org/2000/svg" xmlns:xlink="http://www.w3.org/1999/xlink">
<g id="graph0" class="graph" transform="scale(1 1) rotate(0) translate(4 192)">
<title>ControlThread.cpp</title>
<polygon fill="white" stroke="none" points="-4,4 -4,-192 840,-192 840,4 -4,4"/>
<!-- Node1 -->
<g id="node1" class="node"><title>Node1</title>
<polygon fill="#bfbfbf" stroke="black" points="399,-168.5 399,-187.5 496,-187.5 496,-168.5 399,-168.5"/>
<text text-anchor="middle" x="447.5" y="-175.5" font-family="Helvetica,sans-Serif" font-size="10.00">ControlThread.cpp</text>
</g>
<!-- Node2 -->
<g id="node2" class="node"><title>Node2</title>
<g id="a_node2"><a xlink:href="../../da/d7e/ControlThread_8h.html" target="_top" xlink:title="A class for launching generic control threads. ">
<polygon fill="white" stroke="black" points="376,-112.5 376,-131.5 519,-131.5 519,-112.5 376,-112.5"/>
<text text-anchor="middle" x="447.5" y="-119.5" font-family="Helvetica,sans-Serif" font-size="10.00">ocra&#45;recipes/ControlThread.h</text>
</a>
</g>
</g>
<!-- Node1&#45;&gt;Node2 -->
<g id="edge1" class="edge"><title>Node1&#45;&gt;Node2</title>
<path fill="none" stroke="midnightblue" d="M447.5,-168.083C447.5,-161.006 447.5,-150.861 447.5,-141.986"/>
<polygon fill="midnightblue" stroke="midnightblue" points="451,-141.751 447.5,-131.751 444,-141.751 451,-141.751"/>
</g>
<!-- Node3 -->
<g id="node3" class="node"><title>Node3</title>
<polygon fill="white" stroke="#bfbfbf" points="-7.10543e-15,-56.5 -7.10543e-15,-75.5 97,-75.5 97,-56.5 -7.10543e-15,-56.5"/>
<text text-anchor="middle" x="48.5" y="-63.5" font-family="Helvetica,sans-Serif" font-size="10.00">yarp/os/Network.h</text>
</g>
<!-- Node2&#45;&gt;Node3 -->
<g id="edge2" class="edge"><title>Node2&#45;&gt;Node3</title>
<path fill="none" stroke="midnightblue" d="M379.504,-112.489C312.853,-104.041 208.093,-90.4846 107.279,-76.0838"/>
<polygon fill="midnightblue" stroke="midnightblue" points="107.618,-72.5967 97.2222,-74.6426 106.625,-79.5259 107.618,-72.5967"/>
</g>
<!-- Node4 -->
<g id="node4" class="node"><title>Node4</title>
<polygon fill="white" stroke="#bfbfbf" points="115,-56.5 115,-75.5 226,-75.5 226,-56.5 115,-56.5"/>
<text text-anchor="middle" x="170.5" y="-63.5" font-family="Helvetica,sans-Serif" font-size="10.00">yarp/os/RateThread.h</text>
</g>
<!-- Node2&#45;&gt;Node4 -->
<g id="edge3" class="edge"><title>Node2&#45;&gt;Node4</title>
<path fill="none" stroke="midnightblue" d="M403.609,-112.444C354.983,-102.964 276.554,-87.6747 224.276,-77.4835"/>
<polygon fill="midnightblue" stroke="midnightblue" points="224.671,-73.9946 214.186,-75.5164 223.332,-80.8653 224.671,-73.9946"/>
</g>
<!-- Node5 -->
<g id="node5" class="node"><title>Node5</title>
<polygon fill="white" stroke="#bfbfbf" points="244.5,-56.5 244.5,-75.5 322.5,-75.5 322.5,-56.5 244.5,-56.5"/>
<text text-anchor="middle" x="283.5" y="-63.5" font-family="Helvetica,sans-Serif" font-size="10.00">yarp/os/Port.h</text>
</g>
<!-- Node2&#45;&gt;Node5 -->
<g id="edge4" class="edge"><title>Node2&#45;&gt;Node5</title>
<path fill="none" stroke="midnightblue" d="M421.514,-112.444C393.804,-103.32 349.748,-88.8133 318.884,-78.6509"/>
<polygon fill="midnightblue" stroke="midnightblue" points="319.958,-75.3196 309.365,-75.5164 317.768,-81.9684 319.958,-75.3196"/>
</g>
<!-- Node6 -->
<g id="node6" class="node"><title>Node6</title>
<polygon fill="white" stroke="#bfbfbf" points="340.5,-56.5 340.5,-75.5 444.5,-75.5 444.5,-56.5 340.5,-56.5"/>
<text text-anchor="middle" x="392.5" y="-63.5" font-family="Helvetica,sans-Serif" font-size="10.00">yarp/os/RpcClient.h</text>
</g>
<!-- Node2&#45;&gt;Node6 -->
<g id="edge5" class="edge"><title>Node2&#45;&gt;Node6</title>
<path fill="none" stroke="midnightblue" d="M438.418,-112.083C430.329,-104.141 418.305,-92.3354 408.59,-82.7973"/>
<polygon fill="midnightblue" stroke="midnightblue" points="411.001,-80.2595 401.413,-75.7511 406.097,-85.2545 411.001,-80.2595"/>
</g>
<!-- Node7 -->
<g id="node7" class="node"><title>Node7</title>
<polygon fill="white" stroke="#bfbfbf" points="462.5,-56.5 462.5,-75.5 544.5,-75.5 544.5,-56.5 462.5,-56.5"/>
<text text-anchor="middle" x="503.5" y="-63.5" font-family="Helvetica,sans-Serif" font-size="10.00">yarp/os/Time.h</text>
</g>
<!-- Node2&#45;&gt;Node7 -->
<g id="edge6" class="edge"><title>Node2&#45;&gt;Node7</title>
<path fill="none" stroke="midnightblue" d="M456.497,-112.324C464.694,-104.42 477.006,-92.5482 486.972,-82.9377"/>
<polygon fill="midnightblue" stroke="midnightblue" points="489.57,-85.2947 494.339,-75.8339 484.711,-80.2558 489.57,-85.2947"/>
</g>
<!-- Node8 -->
<g id="node8" class="node"><title>Node8</title>
<polygon fill="white" stroke="#bfbfbf" points="563,-56.5 563,-75.5 636,-75.5 636,-56.5 563,-56.5"/>
<text text-anchor="middle" x="599.5" y="-63.5" font-family="Helvetica,sans-Serif" font-size="10.00">Eigen/Dense</text>
</g>
<!-- Node2&#45;&gt;Node8 -->
<g id="edge7" class="edge"><title>Node2&#45;&gt;Node8</title>
<path fill="none" stroke="midnightblue" d="M471.585,-112.444C497.045,-103.399 537.394,-89.064 565.959,-78.9158"/>
<polygon fill="midnightblue" stroke="midnightblue" points="567.277,-82.1622 575.528,-75.5164 564.933,-75.5661 567.277,-82.1622"/>
</g>
<!-- Node9 -->
<g id="node9" class="node"><title>Node9</title>
<polygon fill="white" stroke="#bfbfbf" points="654.5,-56.5 654.5,-75.5 722.5,-75.5 722.5,-56.5 654.5,-56.5"/>
<text text-anchor="middle" x="688.5" y="-63.5" font-family="Helvetica,sans-Serif" font-size="10.00">Eigen/Lgsm</text>
</g>
<!-- Node2&#45;&gt;Node9 -->
<g id="edge8" class="edge"><title>Node2&#45;&gt;Node9</title>
<path fill="none" stroke="midnightblue" d="M485.687,-112.444C528.875,-102.767 599.084,-87.0351 644.525,-76.8533"/>
<polygon fill="midnightblue" stroke="midnightblue" points="645.395,-80.2452 654.388,-74.6433 643.865,-73.4145 645.395,-80.2452"/>
</g>
<!-- Node10 -->
<g id="node10" class="node"><title>Node10</title>
<g id="a_node10"><a xlink:href="../../df/d0a/Macros_8h.html" target="_top" xlink:title="ocra/util/Macros.h">
<polygon fill="white" stroke="black" points="741,-56.5 741,-75.5 836,-75.5 836,-56.5 741,-56.5"/>
<text text-anchor="middle" x="788.5" y="-63.5" font-family="Helvetica,sans-Serif" font-size="10.00">ocra/util/Macros.h</text>
</a>
</g>
</g>
<!-- Node2&#45;&gt;Node10 -->
<g id="edge9" class="edge"><title>Node2&#45;&gt;Node10</title>
<path fill="none" stroke="midnightblue" d="M501.532,-112.444C564.102,-102.535 666.757,-86.2789 730.832,-76.1321"/>
<polygon fill="midnightblue" stroke="midnightblue" points="731.443,-79.5791 740.773,-74.558 730.348,-72.6652 731.443,-79.5791"/>
</g>
<!-- Node11 -->
<g id="node11" class="node"><title>Node11</title>
<polygon fill="white" stroke="#bfbfbf" points="762.5,-0.5 762.5,-19.5 814.5,-19.5 814.5,-0.5 762.5,-0.5"/>
<text text-anchor="middle" x="788.5" y="-7.5" font-family="Helvetica,sans-Serif" font-size="10.00">memory</text>
</g>
<!-- Node10&#45;&gt;Node11 -->
<g id="edge10" class="edge"><title>Node10&#45;&gt;Node11</title>
<path fill="none" stroke="midnightblue" d="M788.5,-56.083C788.5,-49.0059 788.5,-38.8611 788.5,-29.9865"/>
<polygon fill="midnightblue" stroke="midnightblue" points="792,-29.751 788.5,-19.7511 785,-29.7511 792,-29.751"/>
</g>
</g>
</svg>
