<?xml version="1.0" encoding="UTF-8" standalone="no"?>
<!DOCTYPE svg PUBLIC "-//W3C//DTD SVG 1.1//EN"
 "http://www.w3.org/Graphics/SVG/1.1/DTD/svg11.dtd">
<!-- Generated by graphviz version 2.38.0 (20140413.2041)
 -->
<!-- Title: ocra::ObserverSubject Pages: 1 -->
<svg width="971pt" height="831pt"
 viewBox="0.00 0.00 971.00 831.00" xmlns="http://www.w3.org/2000/svg" xmlns:xlink="http://www.w3.org/1999/xlink">
<g id="graph0" class="graph" transform="scale(1 1) rotate(0) translate(4 827)">
<title>ocra::ObserverSubject</title>
<polygon fill="white" stroke="none" points="-4,4 -4,-827 967,-827 967,4 -4,4"/>
<!-- Node1 -->
<g id="node1" class="node"><title>Node1</title>
<polygon fill="#bfbfbf" stroke="black" points="342,-237.5 342,-256.5 456,-256.5 456,-237.5 342,-237.5"/>
<text text-anchor="middle" x="399" y="-244.5" font-family="Helvetica,sans-Serif" font-size="10.00">ocra::ObserverSubject</text>
</g>
<!-- Node10 -->
<g id="node10" class="node"><title>Node10</title>
<g id="a_node10"><a xlink:href="../../d2/d99/classocra_1_1Function.html" target="_top" xlink:title="Function class. ">
<polygon fill="white" stroke="black" points="507,-494.5 507,-513.5 586,-513.5 586,-494.5 507,-494.5"/>
<text text-anchor="middle" x="546.5" y="-501.5" font-family="Helvetica,sans-Serif" font-size="10.00">ocra::Function</text>
</a>
</g>
</g>
<!-- Node1&#45;&gt;Node10 -->
<g id="edge9" class="edge"><title>Node1&#45;&gt;Node10</title>
<path fill="none" stroke="midnightblue" d="M410.581,-265.689C439.361,-316.524 518.352,-456.047 539.968,-494.229"/>
<polygon fill="midnightblue" stroke="midnightblue" points="413.499,-263.739 405.526,-256.761 407.407,-267.187 413.499,-263.739"/>
</g>
<!-- Node37 -->
<g id="node37" class="node"><title>Node37</title>
<g id="a_node37"><a xlink:href="../../dd/d9c/classocra_1_1MergedVariable.html" target="_top" xlink:title="ocra::MergedVariable">
<polygon fill="white" stroke="black" points="492,-294.5 492,-313.5 601,-313.5 601,-294.5 492,-294.5"/>
<text text-anchor="middle" x="546.5" y="-301.5" font-family="Helvetica,sans-Serif" font-size="10.00">ocra::MergedVariable</text>
</a>
</g>
</g>
<!-- Node1&#45;&gt;Node37 -->
<g id="edge36" class="edge"><title>Node1&#45;&gt;Node37</title>
<path fill="none" stroke="midnightblue" d="M431.47,-260.459C449.168,-267.912 471.717,-277.215 492,-285 500.282,-288.179 509.353,-291.471 517.635,-294.403"/>
<polygon fill="midnightblue" stroke="midnightblue" points="432.756,-257.203 422.183,-256.531 430.029,-263.65 432.756,-257.203"/>
</g>
<!-- Node38 -->
<g id="node38" class="node"><title>Node38</title>
<g id="a_node38"><a xlink:href="../../d4/d00/classocra_1_1Model.html" target="_top" xlink:title="Model class. ">
<polygon fill="white" stroke="black" points="512.5,-256.5 512.5,-275.5 580.5,-275.5 580.5,-256.5 512.5,-256.5"/>
<text text-anchor="middle" x="546.5" y="-263.5" font-family="Helvetica,sans-Serif" font-size="10.00">ocra::Model</text>
</a>
</g>
</g>
<!-- Node1&#45;&gt;Node38 -->
<g id="edge37" class="edge"><title>Node1&#45;&gt;Node38</title>
<path fill="none" stroke="midnightblue" d="M466.547,-255.69C482.345,-257.753 498.536,-259.867 512.111,-261.64"/>
<polygon fill="midnightblue" stroke="midnightblue" points="466.623,-252.17 456.254,-254.346 465.717,-259.111 466.623,-252.17"/>
</g>
<!-- Node40 -->
<g id="node40" class="node"><title>Node40</title>
<g id="a_node40"><a xlink:href="../../d8/d4c/classocra_1_1ModelContacts.html" target="_top" xlink:title="ModelContacts class. ">
<polygon fill="white" stroke="black" points="493,-218.5 493,-237.5 600,-237.5 600,-218.5 493,-218.5"/>
<text text-anchor="middle" x="546.5" y="-225.5" font-family="Helvetica,sans-Serif" font-size="10.00">ocra::ModelContacts</text>
</a>
</g>
</g>
<!-- Node1&#45;&gt;Node40 -->
<g id="edge39" class="edge"><title>Node1&#45;&gt;Node40</title>
<path fill="none" stroke="midnightblue" d="M466.207,-238.354C475.097,-237.193 484.119,-236.015 492.735,-234.89"/>
<polygon fill="midnightblue" stroke="midnightblue" points="465.717,-234.889 456.254,-239.654 466.623,-241.83 465.717,-234.889"/>
</g>
<!-- Node41 -->
<g id="node41" class="node"><title>Node41</title>
<g id="a_node41"><a xlink:href="../../d6/dd3/classocra_1_1Solver.html" target="_top" xlink:title="Solver class. ">
<polygon fill="white" stroke="black" points="512,-161.5 512,-180.5 581,-180.5 581,-161.5 512,-161.5"/>
<text text-anchor="middle" x="546.5" y="-168.5" font-family="Helvetica,sans-Serif" font-size="10.00">ocra::Solver</text>
</a>
</g>
</g>
<!-- Node1&#45;&gt;Node41 -->
<g id="edge40" class="edge"><title>Node1&#45;&gt;Node41</title>
<path fill="none" stroke="midnightblue" d="M427.294,-232.744C456.51,-217.483 502.048,-193.697 527.222,-180.547"/>
<polygon fill="midnightblue" stroke="midnightblue" points="425.671,-229.642 418.428,-237.375 428.912,-235.847 425.671,-229.642"/>
</g>
<!-- Node47 -->
<g id="node47" class="node"><title>Node47</title>
<g id="a_node47"><a xlink:href="../../d2/dac/classocra_1_1Variable.html" target="_top" xlink:title="This class represents a variable in a mathematical sense. ">
<polygon fill="white" stroke="black" points="508,-38.5 508,-57.5 585,-57.5 585,-38.5 508,-38.5"/>
<text text-anchor="middle" x="546.5" y="-45.5" font-family="Helvetica,sans-Serif" font-size="10.00">ocra::Variable</text>
</a>
</g>
</g>
<!-- Node1&#45;&gt;Node47 -->
<g id="edge46" class="edge"><title>Node1&#45;&gt;Node47</title>
<path fill="none" stroke="midnightblue" d="M413.031,-229.178C442.952,-188.255 515.751,-88.6875 538.553,-57.5019"/>
<polygon fill="midnightblue" stroke="midnightblue" points="410.095,-227.264 407.018,-237.402 415.745,-231.395 410.095,-227.264"/>
</g>
<!-- Node2 -->
<g id="node2" class="node"><title>Node2</title>
<g id="a_node2"><a xlink:href="../../d2/d45/classocra_1_1Observer.html" target="_top" xlink:title="ocra::Observer">
<polygon fill="white" stroke="black" points="225,-274.5 225,-293.5 306,-293.5 306,-274.5 225,-274.5"/>
<text text-anchor="middle" x="265.5" y="-281.5" font-family="Helvetica,sans-Serif" font-size="10.00">ocra::Observer</text>
</a>
</g>
</g>
<!-- Node2&#45;&gt;Node1 -->
<g id="edge1" class="edge"><title>Node2&#45;&gt;Node1</title>
<path fill="none" stroke="midnightblue" d="M310.308,-271.674C327.724,-266.774 347.46,-261.22 363.793,-256.625"/>
<polygon fill="midnightblue" stroke="midnightblue" points="309.043,-268.394 300.365,-274.472 310.939,-275.132 309.043,-268.394"/>
</g>
<!-- Node3 -->
<g id="node3" class="node"><title>Node3</title>
<g id="a_node3"><a xlink:href="../../d4/dee/classocra_1_1ObserverBase.html" target="_top" xlink:title="ocra::ObserverBase\l\&lt; EVT_RESIZE \&gt;">
<polygon fill="white" stroke="black" points="42.5,-343 42.5,-373 146.5,-373 146.5,-343 42.5,-343"/>
<text text-anchor="start" x="50.5" y="-361" font-family="Helvetica,sans-Serif" font-size="10.00">ocra::ObserverBase</text>
<text text-anchor="middle" x="94.5" y="-350" font-family="Helvetica,sans-Serif" font-size="10.00">&lt; EVT_RESIZE &gt;</text>
</a>
</g>
</g>
<!-- Node3&#45;&gt;Node2 -->
<g id="edge2" class="edge"><title>Node3&#45;&gt;Node2</title>
<path fill="none" stroke="midnightblue" d="M156.893,-344.553C167.797,-341.333 178.891,-337.496 189,-333 212.987,-322.332 238.006,-304.563 252.372,-293.608"/>
<polygon fill="midnightblue" stroke="midnightblue" points="155.65,-341.266 146.967,-347.337 157.54,-348.006 155.65,-341.266"/>
</g>
<!-- Node4 -->
<g id="node4" class="node"><title>Node4</title>
<g id="a_node4"><a xlink:href="../../d4/dee/classocra_1_1ObserverBase.html" target="_top" xlink:title="ocra::ObserverBase\l\&lt; EVT_CHANGE_DEPENDENCIES \&gt;">
<polygon fill="white" stroke="black" points="0,-294 0,-324 189,-324 189,-294 0,-294"/>
<text text-anchor="start" x="8" y="-312" font-family="Helvetica,sans-Serif" font-size="10.00">ocra::ObserverBase</text>
<text text-anchor="middle" x="94.5" y="-301" font-family="Helvetica,sans-Serif" font-size="10.00">&lt; EVT_CHANGE_DEPENDENCIES &gt;</text>
</a>
</g>
</g>
<!-- Node4&#45;&gt;Node2 -->
<g id="edge3" class="edge"><title>Node4&#45;&gt;Node2</title>
<path fill="none" stroke="midnightblue" d="M199.526,-293.611C208.41,-292.297 216.989,-291.028 224.84,-289.867"/>
<polygon fill="midnightblue" stroke="midnightblue" points="198.77,-290.185 189.39,-295.111 199.795,-297.11 198.77,-290.185"/>
</g>
<!-- Node5 -->
<g id="node5" class="node"><title>Node5</title>
<g id="a_node5"><a xlink:href="../../d4/dee/classocra_1_1ObserverBase.html" target="_top" xlink:title="ocra::ObserverBase\l\&lt; EVT_CHANGE_VALUE \&gt;">
<polygon fill="white" stroke="black" points="24,-245 24,-275 165,-275 165,-245 24,-245"/>
<text text-anchor="start" x="32" y="-263" font-family="Helvetica,sans-Serif" font-size="10.00">ocra::ObserverBase</text>
<text text-anchor="middle" x="94.5" y="-252" font-family="Helvetica,sans-Serif" font-size="10.00">&lt; EVT_CHANGE_VALUE &gt;</text>
</a>
</g>
</g>
<!-- Node5&#45;&gt;Node2 -->
<g id="edge4" class="edge"><title>Node5&#45;&gt;Node2</title>
<path fill="none" stroke="midnightblue" d="M175.313,-271.334C192.551,-273.782 210.051,-276.268 224.93,-278.381"/>
<polygon fill="midnightblue" stroke="midnightblue" points="175.607,-267.841 165.214,-269.9 174.623,-274.772 175.607,-267.841"/>
</g>
<!-- Node6 -->
<g id="node6" class="node"><title>Node6</title>
<g id="a_node6"><a xlink:href="../../dc/d77/classocra_1_1Subject.html" target="_top" xlink:title="ocra::Subject">
<polygon fill="white" stroke="black" points="228.5,-176.5 228.5,-195.5 302.5,-195.5 302.5,-176.5 228.5,-176.5"/>
<text text-anchor="middle" x="265.5" y="-183.5" font-family="Helvetica,sans-Serif" font-size="10.00">ocra::Subject</text>
</a>
</g>
</g>
<!-- Node6&#45;&gt;Node1 -->
<g id="edge5" class="edge"><title>Node6&#45;&gt;Node1</title>
<path fill="none" stroke="midnightblue" d="M296.301,-199.824C320.963,-211.264 355.369,-227.224 377.163,-237.334"/>
<polygon fill="midnightblue" stroke="midnightblue" points="297.591,-196.564 287.047,-195.531 294.646,-202.914 297.591,-196.564"/>
</g>
<!-- Node7 -->
<g id="node7" class="node"><title>Node7</title>
<g id="a_node7"><a xlink:href="../../dc/d29/classocra_1_1SubjectBase.html" target="_top" xlink:title="ocra::SubjectBase\&lt;\l EVT_RESIZE \&gt;">
<polygon fill="white" stroke="black" points="43,-196 43,-226 146,-226 146,-196 43,-196"/>
<text text-anchor="start" x="51" y="-214" font-family="Helvetica,sans-Serif" font-size="10.00">ocra::SubjectBase&lt;</text>
<text text-anchor="middle" x="94.5" y="-203" font-family="Helvetica,sans-Serif" font-size="10.00"> EVT_RESIZE &gt;</text>
</a>
</g>
</g>
<!-- Node7&#45;&gt;Node6 -->
<g id="edge6" class="edge"><title>Node7&#45;&gt;Node6</title>
<path fill="none" stroke="midnightblue" d="M156.345,-201.999C180.463,-198.432 207.377,-194.45 228.323,-191.352"/>
<polygon fill="midnightblue" stroke="midnightblue" points="155.586,-198.573 146.206,-203.499 156.61,-205.498 155.586,-198.573"/>
</g>
<!-- Node8 -->
<g id="node8" class="node"><title>Node8</title>
<g id="a_node8"><a xlink:href="../../dc/d29/classocra_1_1SubjectBase.html" target="_top" xlink:title="ocra::SubjectBase\&lt;\l EVT_CHANGE_DEPENDENCIES \&gt;">
<polygon fill="white" stroke="black" points="3,-147 3,-177 186,-177 186,-147 3,-147"/>
<text text-anchor="start" x="11" y="-165" font-family="Helvetica,sans-Serif" font-size="10.00">ocra::SubjectBase&lt;</text>
<text text-anchor="middle" x="94.5" y="-154" font-family="Helvetica,sans-Serif" font-size="10.00"> EVT_CHANGE_DEPENDENCIES &gt;</text>
</a>
</g>
</g>
<!-- Node8&#45;&gt;Node6 -->
<g id="edge7" class="edge"><title>Node8&#45;&gt;Node6</title>
<path fill="none" stroke="midnightblue" d="M196.458,-176.337C207.772,-177.944 218.677,-179.493 228.318,-180.862"/>
<polygon fill="midnightblue" stroke="midnightblue" points="196.824,-172.854 186.431,-174.913 195.84,-179.785 196.824,-172.854"/>
</g>
<!-- Node9 -->
<g id="node9" class="node"><title>Node9</title>
<g id="a_node9"><a xlink:href="../../dc/d29/classocra_1_1SubjectBase.html" target="_top" xlink:title="ocra::SubjectBase\&lt;\l EVT_CHANGE_VALUE \&gt;">
<polygon fill="white" stroke="black" points="27,-98 27,-128 162,-128 162,-98 27,-98"/>
<text text-anchor="start" x="35" y="-116" font-family="Helvetica,sans-Serif" font-size="10.00">ocra::SubjectBase&lt;</text>
<text text-anchor="middle" x="94.5" y="-105" font-family="Helvetica,sans-Serif" font-size="10.00"> EVT_CHANGE_VALUE &gt;</text>
</a>
</g>
</g>
<!-- Node9&#45;&gt;Node6 -->
<g id="edge8" class="edge"><title>Node9&#45;&gt;Node6</title>
<path fill="none" stroke="midnightblue" d="M172.11,-130.468C177.903,-132.453 183.593,-134.627 189,-137 213.04,-147.548 238.043,-165.354 252.391,-176.35"/>
<polygon fill="midnightblue" stroke="midnightblue" points="172.889,-127.042 162.297,-127.303 170.74,-133.704 172.889,-127.042"/>
</g>
<!-- Node11 -->
<g id="node11" class="node"><title>Node11</title>
<g id="a_node11"><a xlink:href="../../d1/d44/classFunction1.html" target="_top" xlink:title="Function1">
<polygon fill="white" stroke="black" points="671.5,-703.5 671.5,-722.5 730.5,-722.5 730.5,-703.5 671.5,-703.5"/>
<text text-anchor="middle" x="701" y="-710.5" font-family="Helvetica,sans-Serif" font-size="10.00">Function1</text>
</a>
</g>
</g>
<!-- Node10&#45;&gt;Node11 -->
<g id="edge10" class="edge"><title>Node10&#45;&gt;Node11</title>
<path fill="none" stroke="midnightblue" d="M551.181,-523.446C559.468,-561.827 583.222,-647.613 637,-694 646.516,-702.208 659.486,-706.87 671.184,-709.518"/>
<polygon fill="midnightblue" stroke="midnightblue" points="554.591,-522.649 549.165,-513.549 547.732,-524.046 554.591,-522.649"/>
</g>
<!-- Node12 -->
<g id="node12" class="node"><title>Node12</title>
<g id="a_node12"><a xlink:href="../../d6/d7e/classFunction2.html" target="_top" xlink:title="Function2">
<polygon fill="white" stroke="black" points="671.5,-665.5 671.5,-684.5 730.5,-684.5 730.5,-665.5 671.5,-665.5"/>
<text text-anchor="middle" x="701" y="-672.5" font-family="Helvetica,sans-Serif" font-size="10.00">Function2</text>
</a>
</g>
</g>
<!-- Node10&#45;&gt;Node12 -->
<g id="edge11" class="edge"><title>Node10&#45;&gt;Node12</title>
<path fill="none" stroke="midnightblue" d="M553.708,-523.531C565.003,-555.914 591.994,-620.652 637,-656 646.793,-663.691 659.668,-668.278 671.225,-671.008"/>
<polygon fill="midnightblue" stroke="midnightblue" points="556.97,-522.249 550.476,-513.878 550.332,-524.472 556.97,-522.249"/>
</g>
<!-- Node13 -->
<g id="node13" class="node"><title>Node13</title>
<g id="a_node13"><a xlink:href="../../d9/d4a/classFunction3.html" target="_top" xlink:title="Function3">
<polygon fill="white" stroke="black" points="671.5,-627.5 671.5,-646.5 730.5,-646.5 730.5,-627.5 671.5,-627.5"/>
<text text-anchor="middle" x="701" y="-634.5" font-family="Helvetica,sans-Serif" font-size="10.00">Function3</text>
</a>
</g>
</g>
<!-- Node10&#45;&gt;Node13 -->
<g id="edge12" class="edge"><title>Node10&#45;&gt;Node13</title>
<path fill="none" stroke="midnightblue" d="M557.194,-522.503C571.37,-547.778 600.126,-592.824 637,-618 647.19,-624.957 659.994,-629.426 671.394,-632.267"/>
<polygon fill="midnightblue" stroke="midnightblue" points="560.189,-520.686 552.334,-513.576 554.041,-524.032 560.189,-520.686"/>
</g>
<!-- Node14 -->
<g id="node14" class="node"><title>Node14</title>
<g id="a_node14"><a xlink:href="../../db/d8c/classMyFunction.html" target="_top" xlink:title="MyFunction">
<polygon fill="white" stroke="black" points="667,-589.5 667,-608.5 735,-608.5 735,-589.5 667,-589.5"/>
<text text-anchor="middle" x="701" y="-596.5" font-family="Helvetica,sans-Serif" font-size="10.00">MyFunction</text>
</a>
</g>
</g>
<!-- Node10&#45;&gt;Node14 -->
<g id="edge13" class="edge"><title>Node10&#45;&gt;Node14</title>
<path fill="none" stroke="midnightblue" d="M563.512,-521.243C580.31,-538.391 608.227,-564.339 637,-580 646.231,-585.025 656.964,-588.892 666.927,-591.784"/>
<polygon fill="midnightblue" stroke="midnightblue" points="565.649,-518.415 556.204,-513.616 560.595,-523.258 565.649,-518.415"/>
</g>
<!-- Node15 -->
<g id="node15" class="node"><title>Node15</title>
<g id="a_node15"><a xlink:href="../../db/da4/classocra_1_1DotProductFunction.html" target="_top" xlink:title="DotProductFunction class. ">
<polygon fill="white" stroke="black" points="637,-551.5 637,-570.5 765,-570.5 765,-551.5 637,-551.5"/>
<text text-anchor="middle" x="701" y="-558.5" font-family="Helvetica,sans-Serif" font-size="10.00">ocra::DotProductFunction</text>
</a>
</g>
</g>
<!-- Node10&#45;&gt;Node15 -->
<g id="edge14" class="edge"><title>Node10&#45;&gt;Node15</title>
<path fill="none" stroke="midnightblue" d="M577.733,-517.805C594.927,-525.41 616.964,-534.749 637,-542 646.238,-545.343 656.38,-548.584 665.774,-551.415"/>
<polygon fill="midnightblue" stroke="midnightblue" points="578.78,-514.439 568.222,-513.557 575.925,-520.831 578.78,-514.439"/>
</g>
<!-- Node16 -->
<g id="node16" class="node"><title>Node16</title>
<g id="a_node16"><a xlink:href="../../de/d3a/classocra_1_1LinearFunction.html" target="_top" xlink:title="LinearFunction class. ">
<polygon fill="white" stroke="black" points="648.5,-513.5 648.5,-532.5 753.5,-532.5 753.5,-513.5 648.5,-513.5"/>
<text text-anchor="middle" x="701" y="-520.5" font-family="Helvetica,sans-Serif" font-size="10.00">ocra::LinearFunction</text>
</a>
</g>
</g>
<!-- Node10&#45;&gt;Node16 -->
<g id="edge15" class="edge"><title>Node10&#45;&gt;Node16</title>
<path fill="none" stroke="midnightblue" d="M596.392,-510.091C612.942,-512.153 631.475,-514.462 648.24,-516.551"/>
<polygon fill="midnightblue" stroke="midnightblue" points="596.733,-506.607 586.377,-508.844 595.867,-513.553 596.733,-506.607"/>
</g>
<!-- Node29 -->
<g id="node29" class="node"><title>Node29</title>
<g id="a_node29"><a xlink:href="../../dd/d93/classocra_1_1Pb114G10.html" target="_top" xlink:title="ocra::Pb114G10">
<polygon fill="white" stroke="black" points="657.5,-475.5 657.5,-494.5 744.5,-494.5 744.5,-475.5 657.5,-475.5"/>
<text text-anchor="middle" x="701" y="-482.5" font-family="Helvetica,sans-Serif" font-size="10.00">ocra::Pb114G10</text>
</a>
</g>
</g>
<!-- Node10&#45;&gt;Node29 -->
<g id="edge28" class="edge"><title>Node10&#45;&gt;Node29</title>
<path fill="none" stroke="midnightblue" d="M596.366,-497.912C616.018,-495.463 638.47,-492.666 657.439,-490.303"/>
<polygon fill="midnightblue" stroke="midnightblue" points="595.867,-494.447 586.377,-499.156 596.733,-501.393 595.867,-494.447"/>
</g>
<!-- Node30 -->
<g id="node30" class="node"><title>Node30</title>
<g id="a_node30"><a xlink:href="../../da/d6c/classocra_1_1Pb114G11.html" target="_top" xlink:title="ocra::Pb114G11">
<polygon fill="white" stroke="black" points="657.5,-437.5 657.5,-456.5 744.5,-456.5 744.5,-437.5 657.5,-437.5"/>
<text text-anchor="middle" x="701" y="-444.5" font-family="Helvetica,sans-Serif" font-size="10.00">ocra::Pb114G11</text>
</a>
</g>
</g>
<!-- Node10&#45;&gt;Node30 -->
<g id="edge29" class="edge"><title>Node10&#45;&gt;Node30</title>
<path fill="none" stroke="midnightblue" d="M577.733,-490.195C594.927,-482.59 616.964,-473.251 637,-466 646.238,-462.657 656.38,-459.416 665.774,-456.585"/>
<polygon fill="midnightblue" stroke="midnightblue" points="575.925,-487.169 568.222,-494.443 578.78,-493.561 575.925,-487.169"/>
</g>
<!-- Node31 -->
<g id="node31" class="node"><title>Node31</title>
<g id="a_node31"><a xlink:href="../../d9/df1/classocra_1_1Pb114G5.html" target="_top" xlink:title="ocra::Pb114G5">
<polygon fill="white" stroke="black" points="660,-399.5 660,-418.5 742,-418.5 742,-399.5 660,-399.5"/>
<text text-anchor="middle" x="701" y="-406.5" font-family="Helvetica,sans-Serif" font-size="10.00">ocra::Pb114G5</text>
</a>
</g>
</g>
<!-- Node10&#45;&gt;Node31 -->
<g id="edge30" class="edge"><title>Node10&#45;&gt;Node31</title>
<path fill="none" stroke="midnightblue" d="M563.512,-486.757C580.31,-469.609 608.227,-443.661 637,-428 644.024,-424.177 651.917,-421.024 659.679,-418.461"/>
<polygon fill="midnightblue" stroke="midnightblue" points="560.595,-484.742 556.204,-494.384 565.649,-489.585 560.595,-484.742"/>
</g>
<!-- Node32 -->
<g id="node32" class="node"><title>Node32</title>
<g id="a_node32"><a xlink:href="../../d9/d7e/classocra_1_1QuadraticFunction.html" target="_top" xlink:title="QuadraticFunction class. ">
<polygon fill="white" stroke="black" points="640.5,-342.5 640.5,-361.5 761.5,-361.5 761.5,-342.5 640.5,-342.5"/>
<text text-anchor="middle" x="701" y="-349.5" font-family="Helvetica,sans-Serif" font-size="10.00">ocra::QuadraticFunction</text>
</a>
</g>
</g>
<!-- Node10&#45;&gt;Node32 -->
<g id="edge31" class="edge"><title>Node10&#45;&gt;Node32</title>
<path fill="none" stroke="midnightblue" d="M558.622,-486.023C574.07,-462.06 603.883,-419.28 637,-390 650.014,-378.494 666.981,-368.488 680.028,-361.636"/>
<polygon fill="midnightblue" stroke="midnightblue" points="555.65,-484.174 553.256,-494.495 561.564,-487.92 555.65,-484.174"/>
</g>
<!-- Node36 -->
<g id="node36" class="node"><title>Node36</title>
<g id="a_node36"><a xlink:href="../../df/d5a/classocra_1_1SubtractionFunction.html" target="_top" xlink:title="SubtractionFunction class. ">
<polygon fill="white" stroke="black" points="637,-304.5 637,-323.5 765,-323.5 765,-304.5 637,-304.5"/>
<text text-anchor="middle" x="701" y="-311.5" font-family="Helvetica,sans-Serif" font-size="10.00">ocra::SubtractionFunction</text>
</a>
</g>
</g>
<!-- Node10&#45;&gt;Node36 -->
<g id="edge35" class="edge"><title>Node10&#45;&gt;Node36</title>
<path fill="none" stroke="midnightblue" d="M552.433,-484.073C562.292,-448.419 587.828,-373.647 637,-333 641.667,-329.142 647.102,-326.068 652.786,-323.617"/>
<polygon fill="midnightblue" stroke="midnightblue" points="548.933,-483.62 549.773,-494.182 555.702,-485.402 548.933,-483.62"/>
</g>
<!-- Node17 -->
<g id="node17" class="node"><title>Node17</title>
<g id="a_node17"><a xlink:href="../../d4/d45/classocra_1_1ContactAvoidanceFunction.html" target="_top" xlink:title="Create a linear function that represents the joint limit function. ">
<polygon fill="white" stroke="red" points="802.5,-803.5 802.5,-822.5 961.5,-822.5 961.5,-803.5 802.5,-803.5"/>
<text text-anchor="middle" x="882" y="-810.5" font-family="Helvetica,sans-Serif" font-size="10.00">ocra::ContactAvoidanceFunction</text>
</a>
</g>
</g>
<!-- Node16&#45;&gt;Node17 -->
<g id="edge16" class="edge"><title>Node16&#45;&gt;Node17</title>
<path fill="none" stroke="midnightblue" d="M761.724,-538.641C762.881,-539.69 763.976,-540.809 765,-542 838.737,-627.807 724.733,-710.433 801,-794 804.464,-797.796 808.536,-800.9 812.977,-803.432"/>
<polygon fill="midnightblue" stroke="midnightblue" points="763.495,-535.606 753.316,-532.666 759.44,-541.312 763.495,-535.606"/>
</g>
<!-- Node18 -->
<g id="node18" class="node"><title>Node18</title>
<g id="a_node18"><a xlink:href="../../d3/d89/classocra_1_1DiagonalLinearFunction.html" target="_top" xlink:title="DiagonalLinearFunction class. ">
<polygon fill="white" stroke="red" points="810.5,-765.5 810.5,-784.5 953.5,-784.5 953.5,-765.5 810.5,-765.5"/>
<text text-anchor="middle" x="882" y="-772.5" font-family="Helvetica,sans-Serif" font-size="10.00">ocra::DiagonalLinearFunction</text>
</a>
</g>
</g>
<!-- Node16&#45;&gt;Node18 -->
<g id="edge17" class="edge"><title>Node16&#45;&gt;Node18</title>
<path fill="none" stroke="midnightblue" d="M761.244,-538.289C762.575,-539.439 763.832,-540.674 765,-542 828.761,-614.365 735.107,-685.571 801,-756 804.511,-759.753 808.617,-762.826 813.08,-765.336"/>
<polygon fill="midnightblue" stroke="midnightblue" points="763.146,-535.349 752.918,-532.584 759.189,-541.124 763.146,-535.349"/>
</g>
<!-- Node19 -->
<g id="node19" class="node"><title>Node19</title>
<g id="a_node19"><a xlink:href="../../d4/d5c/classocra_1_1DoubleDiagonalLinearFunction.html" target="_top" xlink:title="DoubleDiagonalLinearFunction class. ">
<polygon fill="white" stroke="black" points="813.5,-716 813.5,-746 950.5,-746 950.5,-716 813.5,-716"/>
<text text-anchor="start" x="821.5" y="-734" font-family="Helvetica,sans-Serif" font-size="10.00">ocra::DoubleDiagonalLinear</text>
<text text-anchor="middle" x="882" y="-723" font-family="Helvetica,sans-Serif" font-size="10.00">Function</text>
</a>
</g>
</g>
<!-- Node16&#45;&gt;Node19 -->
<g id="edge18" class="edge"><title>Node16&#45;&gt;Node19</title>
<path fill="none" stroke="midnightblue" d="M761.067,-538.291C762.457,-539.44 763.773,-540.675 765,-542 815.702,-596.755 750.572,-650.993 801,-706 804.54,-709.861 808.666,-713.131 813.144,-715.899"/>
<polygon fill="midnightblue" stroke="midnightblue" points="762.697,-535.174 752.421,-532.596 758.847,-541.02 762.697,-535.174"/>
</g>
<!-- Node20 -->
<g id="node20" class="node"><title>Node20</title>
<g id="a_node20"><a xlink:href="../../d9/da6/classocra_1_1DynamicEquationFunction.html" target="_top" xlink:title="DynamicEquationFunction class. ">
<polygon fill="white" stroke="black" points="804,-677.5 804,-696.5 960,-696.5 960,-677.5 804,-677.5"/>
<text text-anchor="middle" x="882" y="-684.5" font-family="Helvetica,sans-Serif" font-size="10.00">ocra::DynamicEquationFunction</text>
</a>
</g>
</g>
<!-- Node16&#45;&gt;Node20 -->
<g id="edge19" class="edge"><title>Node16&#45;&gt;Node20</title>
<path fill="none" stroke="midnightblue" d="M760.367,-537.934C762.005,-539.183 763.557,-540.535 765,-542 805.881,-583.482 758.899,-627.757 801,-668 805.025,-671.847 809.679,-674.963 814.679,-677.481"/>
<polygon fill="midnightblue" stroke="midnightblue" points="761.913,-534.776 751.563,-532.511 758.242,-540.736 761.913,-534.776"/>
</g>
<!-- Node21 -->
<g id="node21" class="node"><title>Node21</title>
<g id="a_node21"><a xlink:href="../../de/ddd/classocra_1_1FullDynamicEquationFunction.html" target="_top" xlink:title="Create a linear function that represents the dynamic equation of motion. ">
<polygon fill="white" stroke="black" points="815,-628 815,-658 949,-658 949,-628 815,-628"/>
<text text-anchor="start" x="823" y="-646" font-family="Helvetica,sans-Serif" font-size="10.00">ocra::FullDynamicEquation</text>
<text text-anchor="middle" x="882" y="-635" font-family="Helvetica,sans-Serif" font-size="10.00">Function</text>
</a>
</g>
</g>
<!-- Node16&#45;&gt;Node21 -->
<g id="edge20" class="edge"><title>Node16&#45;&gt;Node21</title>
<path fill="none" stroke="midnightblue" d="M758.69,-537.354C760.913,-538.76 763.03,-540.305 765,-542 793.328,-566.382 772.794,-593.477 801,-618 805.393,-621.819 810.366,-625.055 815.63,-627.796"/>
<polygon fill="midnightblue" stroke="midnightblue" points="760.156,-534.17 749.681,-532.584 756.881,-540.357 760.156,-534.17"/>
</g>
<!-- Node22 -->
<g id="node22" class="node"><title>Node22</title>
<g id="a_node22"><a xlink:href="../../df/de0/classocra_1_1JointLimitFunction.html" target="_top" xlink:title="Create a linear function that represents the joint limit function. ">
<polygon fill="white" stroke="red" points="821.5,-589.5 821.5,-608.5 942.5,-608.5 942.5,-589.5 821.5,-589.5"/>
<text text-anchor="middle" x="882" y="-596.5" font-family="Helvetica,sans-Serif" font-size="10.00">ocra::JointLimitFunction</text>
</a>
</g>
</g>
<!-- Node16&#45;&gt;Node22 -->
<g id="edge21" class="edge"><title>Node16&#45;&gt;Node22</title>
<path fill="none" stroke="midnightblue" d="M754.181,-536.339C757.947,-538.021 761.597,-539.901 765,-542 784.801,-554.213 780.843,-568.384 801,-580 807.679,-583.849 815.1,-586.92 822.652,-589.369"/>
<polygon fill="midnightblue" stroke="midnightblue" points="755.241,-532.994 744.655,-532.554 752.656,-539.499 755.241,-532.994"/>
</g>
<!-- Node23 -->
<g id="node23" class="node"><title>Node23</title>
<g id="a_node23"><a xlink:href="../../d0/dd6/classocra_1_1LinearizedCoulombFunction.html" target="_top" xlink:title="LinearizedCoulombFunction class. ">
<polygon fill="white" stroke="black" points="801,-551.5 801,-570.5 963,-570.5 963,-551.5 801,-551.5"/>
<text text-anchor="middle" x="882" y="-558.5" font-family="Helvetica,sans-Serif" font-size="10.00">ocra::LinearizedCoulombFunction</text>
</a>
</g>
</g>
<!-- Node16&#45;&gt;Node23 -->
<g id="edge22" class="edge"><title>Node16&#45;&gt;Node23</title>
<path fill="none" stroke="midnightblue" d="M757.024,-534.681C782.408,-540.07 812.161,-546.386 836.156,-551.48"/>
<polygon fill="midnightblue" stroke="midnightblue" points="757.678,-531.242 747.169,-532.589 756.224,-538.089 757.678,-531.242"/>
</g>
<!-- Node24 -->
<g id="node24" class="node"><title>Node24</title>
<g id="a_node24"><a xlink:href="../../dd/d16/classocra_1_1LinearTask.html" target="_top" xlink:title="LinearTask class. ">
<polygon fill="white" stroke="black" points="837.5,-513.5 837.5,-532.5 926.5,-532.5 926.5,-513.5 837.5,-513.5"/>
<text text-anchor="middle" x="882" y="-520.5" font-family="Helvetica,sans-Serif" font-size="10.00">ocra::LinearTask</text>
</a>
</g>
</g>
<!-- Node16&#45;&gt;Node24 -->
<g id="edge23" class="edge"><title>Node16&#45;&gt;Node24</title>
<path fill="none" stroke="midnightblue" d="M763.915,-523C788.055,-523 815.163,-523 837.212,-523"/>
<polygon fill="midnightblue" stroke="midnightblue" points="763.774,-519.5 753.774,-523 763.774,-526.5 763.774,-519.5"/>
</g>
<!-- Node25 -->
<g id="node25" class="node"><title>Node25</title>
<g id="a_node25"><a xlink:href="../../dd/dda/classocra_1_1SecondOrderLinearTask.html" target="_top" xlink:title="SecondOrderLinearTask class. ">
<polygon fill="white" stroke="black" points="809,-475.5 809,-494.5 955,-494.5 955,-475.5 809,-475.5"/>
<text text-anchor="middle" x="882" y="-482.5" font-family="Helvetica,sans-Serif" font-size="10.00">ocra::SecondOrderLinearTask</text>
</a>
</g>
</g>
<!-- Node16&#45;&gt;Node25 -->
<g id="edge24" class="edge"><title>Node16&#45;&gt;Node25</title>
<path fill="none" stroke="midnightblue" d="M757.024,-511.319C782.408,-505.93 812.161,-499.614 836.156,-494.52"/>
<polygon fill="midnightblue" stroke="midnightblue" points="756.224,-507.911 747.169,-513.411 757.678,-514.758 756.224,-507.911"/>
</g>
<!-- Node26 -->
<g id="node26" class="node"><title>Node26</title>
<g id="a_node26"><a xlink:href="../../d0/d8f/classocra_1_1SumOfLinearFunctions.html" target="_top" xlink:title="ocra::SumOfLinearFunctions">
<polygon fill="white" stroke="black" points="811.5,-437.5 811.5,-456.5 952.5,-456.5 952.5,-437.5 811.5,-437.5"/>
<text text-anchor="middle" x="882" y="-444.5" font-family="Helvetica,sans-Serif" font-size="10.00">ocra::SumOfLinearFunctions</text>
</a>
</g>
</g>
<!-- Node16&#45;&gt;Node26 -->
<g id="edge25" class="edge"><title>Node16&#45;&gt;Node26</title>
<path fill="none" stroke="midnightblue" d="M754.181,-509.661C757.947,-507.979 761.597,-506.099 765,-504 784.801,-491.787 780.843,-477.616 801,-466 807.679,-462.151 815.1,-459.08 822.652,-456.631"/>
<polygon fill="midnightblue" stroke="midnightblue" points="752.656,-506.501 744.655,-513.446 755.241,-513.006 752.656,-506.501"/>
</g>
<!-- Node27 -->
<g id="node27" class="node"><title>Node27</title>
<g id="a_node27"><a xlink:href="../../dd/d3d/classocra_1_1TorqueLimitFunction.html" target="_top" xlink:title="Create a linear function that represents the torque limit function. ">
<polygon fill="white" stroke="black" points="817,-399.5 817,-418.5 947,-418.5 947,-399.5 817,-399.5"/>
<text text-anchor="middle" x="882" y="-406.5" font-family="Helvetica,sans-Serif" font-size="10.00">ocra::TorqueLimitFunction</text>
</a>
</g>
</g>
<!-- Node16&#45;&gt;Node27 -->
<g id="edge26" class="edge"><title>Node16&#45;&gt;Node27</title>
<path fill="none" stroke="midnightblue" d="M758.69,-508.646C760.913,-507.24 763.03,-505.695 765,-504 793.328,-479.618 771.957,-451.525 801,-428 805.77,-424.136 811.195,-421.035 816.919,-418.548"/>
<polygon fill="midnightblue" stroke="midnightblue" points="756.881,-505.643 749.681,-513.416 760.156,-511.83 756.881,-505.643"/>
</g>
<!-- Node28 -->
<g id="node28" class="node"><title>Node28</title>
<g id="a_node28"><a xlink:href="../../d7/d46/classocra_1_1VariableChiFunction.html" target="_top" xlink:title="ocra::VariableChiFunction">
<polygon fill="white" stroke="black" points="817.5,-361.5 817.5,-380.5 946.5,-380.5 946.5,-361.5 817.5,-361.5"/>
<text text-anchor="middle" x="882" y="-368.5" font-family="Helvetica,sans-Serif" font-size="10.00">ocra::VariableChiFunction</text>
</a>
</g>
</g>
<!-- Node16&#45;&gt;Node28 -->
<g id="edge27" class="edge"><title>Node16&#45;&gt;Node28</title>
<path fill="none" stroke="midnightblue" d="M760.315,-508.014C761.967,-506.78 763.537,-505.445 765,-504 802.813,-466.674 762.089,-426.18 801,-390 805.704,-385.626 811.227,-382.202 817.134,-379.53"/>
<polygon fill="midnightblue" stroke="midnightblue" points="758.195,-505.206 751.457,-513.383 761.823,-511.193 758.195,-505.206"/>
</g>
<!-- Node33 -->
<g id="node33" class="node"><title>Node33</title>
<g id="a_node33"><a xlink:href="../../d3/d16/classocra_1_1FcQuadraticFunction.html" target="_top" xlink:title="ocra::FcQuadraticFunction">
<polygon fill="white" stroke="black" points="816,-323.5 816,-342.5 948,-342.5 948,-323.5 816,-323.5"/>
<text text-anchor="middle" x="882" y="-330.5" font-family="Helvetica,sans-Serif" font-size="10.00">ocra::FcQuadraticFunction</text>
</a>
</g>
</g>
<!-- Node32&#45;&gt;Node33 -->
<g id="edge32" class="edge"><title>Node32&#45;&gt;Node33</title>
<path fill="none" stroke="midnightblue" d="M771.966,-344.573C786.401,-343.041 801.548,-341.433 815.805,-339.92"/>
<polygon fill="midnightblue" stroke="midnightblue" points="771.179,-341.137 761.604,-345.673 771.918,-348.098 771.179,-341.137"/>
</g>
<!-- Node34 -->
<g id="node34" class="node"><title>Node34</title>
<g id="a_node34"><a xlink:href="../../df/dfc/classocra_1_1SquaredLinearFunction.html" target="_top" xlink:title="SquaredLinearFunction class. ">
<polygon fill="white" stroke="black" points="811.5,-285.5 811.5,-304.5 952.5,-304.5 952.5,-285.5 811.5,-285.5"/>
<text text-anchor="middle" x="882" y="-292.5" font-family="Helvetica,sans-Serif" font-size="10.00">ocra::SquaredLinearFunction</text>
</a>
</g>
</g>
<!-- Node32&#45;&gt;Node34 -->
<g id="edge33" class="edge"><title>Node32&#45;&gt;Node34</title>
<path fill="none" stroke="midnightblue" d="M747.825,-339.316C753.666,-337.368 759.515,-335.25 765,-333 781.738,-326.134 784.064,-320.363 801,-314 810.889,-310.285 821.745,-307.13 832.183,-304.521"/>
<polygon fill="midnightblue" stroke="midnightblue" points="746.533,-336.054 738.068,-342.426 748.659,-342.724 746.533,-336.054"/>
</g>
<!-- Node35 -->
<g id="node35" class="node"><title>Node35</title>
<g id="a_node35"><a xlink:href="../../d2/d31/classocra_1_1WeightedSquareDistanceFunction.html" target="_top" xlink:title="WeightedSquareDistanceFunction class. ">
<polygon fill="white" stroke="black" points="806,-236 806,-266 958,-266 958,-236 806,-236"/>
<text text-anchor="start" x="814" y="-254" font-family="Helvetica,sans-Serif" font-size="10.00">ocra::WeightedSquareDistance</text>
<text text-anchor="middle" x="882" y="-243" font-family="Helvetica,sans-Serif" font-size="10.00">Function</text>
</a>
</g>
</g>
<!-- Node32&#45;&gt;Node35 -->
<g id="edge34" class="edge"><title>Node32&#45;&gt;Node35</title>
<path fill="none" stroke="midnightblue" d="M757.113,-338.093C759.882,-336.567 762.533,-334.876 765,-333 788.849,-314.862 777.241,-294.257 801,-276 806.077,-272.099 811.772,-268.8 817.722,-266.012"/>
<polygon fill="midnightblue" stroke="midnightblue" points="755.498,-334.985 747.951,-342.421 758.488,-341.314 755.498,-334.985"/>
</g>
<!-- Node39 -->
<g id="node39" class="node"><title>Node39</title>
<g id="a_node39"><a xlink:href="../../d3/d33/classModel3T.html" target="_top" xlink:title="Model3T">
<polygon fill="white" stroke="black" points="674,-266.5 674,-285.5 728,-285.5 728,-266.5 674,-266.5"/>
<text text-anchor="middle" x="701" y="-273.5" font-family="Helvetica,sans-Serif" font-size="10.00">Model3T</text>
</a>
</g>
</g>
<!-- Node38&#45;&gt;Node39 -->
<g id="edge38" class="edge"><title>Node38&#45;&gt;Node39</title>
<path fill="none" stroke="midnightblue" d="M590.816,-268.84C617.476,-270.589 650.787,-272.773 673.559,-274.266"/>
<polygon fill="midnightblue" stroke="midnightblue" points="590.798,-265.332 580.59,-268.17 590.34,-272.317 590.798,-265.332"/>
</g>
<!-- Node42 -->
<g id="node42" class="node"><title>Node42</title>
<g id="a_node42"><a xlink:href="../../d6/d35/classocra_1_1CascadeQPSolver.html" target="_top" xlink:title="CascadeQPSolver class. ">
<polygon fill="white" stroke="black" points="640,-228.5 640,-247.5 762,-247.5 762,-228.5 640,-228.5"/>
<text text-anchor="middle" x="701" y="-235.5" font-family="Helvetica,sans-Serif" font-size="10.00">ocra::CascadeQPSolver</text>
</a>
</g>
</g>
<!-- Node41&#45;&gt;Node42 -->
<g id="edge41" class="edge"><title>Node41&#45;&gt;Node42</title>
<path fill="none" stroke="midnightblue" d="M572.223,-185.99C589.839,-196.236 614.321,-209.609 637,-219 645.55,-222.54 654.996,-225.742 663.916,-228.466"/>
<polygon fill="midnightblue" stroke="midnightblue" points="573.589,-182.732 563.198,-180.664 570.032,-188.761 573.589,-182.732"/>
</g>
<!-- Node43 -->
<g id="node43" class="node"><title>Node43</title>
<g id="a_node43"><a xlink:href="../../dc/d6e/classocra_1_1FSQPSolver.html" target="_top" xlink:title="FSQPSolver class. ">
<polygon fill="white" stroke="black" points="653,-190.5 653,-209.5 749,-209.5 749,-190.5 653,-190.5"/>
<text text-anchor="middle" x="701" y="-197.5" font-family="Helvetica,sans-Serif" font-size="10.00">ocra::FSQPSolver</text>
</a>
</g>
</g>
<!-- Node41&#45;&gt;Node43 -->
<g id="edge42" class="edge"><title>Node41&#45;&gt;Node43</title>
<path fill="none" stroke="midnightblue" d="M591.373,-179.343C610.651,-183.009 633.32,-187.32 652.949,-191.053"/>
<polygon fill="midnightblue" stroke="midnightblue" points="591.823,-175.866 581.345,-177.436 590.515,-182.743 591.823,-175.866"/>
</g>
<!-- Node44 -->
<g id="node44" class="node"><title>Node44</title>
<g id="a_node44"><a xlink:href="../../d2/d07/classocra_1_1NewtonSolver.html" target="_top" xlink:title="NewtonSolver class. ">
<polygon fill="white" stroke="black" points="649.5,-152.5 649.5,-171.5 752.5,-171.5 752.5,-152.5 649.5,-152.5"/>
<text text-anchor="middle" x="701" y="-159.5" font-family="Helvetica,sans-Serif" font-size="10.00">ocra::NewtonSolver</text>
</a>
</g>
</g>
<!-- Node41&#45;&gt;Node44 -->
<g id="edge43" class="edge"><title>Node41&#45;&gt;Node44</title>
<path fill="none" stroke="midnightblue" d="M591.36,-168.412C609.504,-167.341 630.653,-166.093 649.445,-164.984"/>
<polygon fill="midnightblue" stroke="midnightblue" points="591.121,-164.919 581.345,-169.003 591.534,-171.907 591.121,-164.919"/>
</g>
<!-- Node45 -->
<g id="node45" class="node"><title>Node45</title>
<g id="a_node45"><a xlink:href="../../d2/d5e/classocra_1_1OneLevelSolver.html" target="_top" xlink:title="A generic abstract class the solvers that can be used in the wOcra Controller. ">
<polygon fill="white" stroke="red" points="646,-114.5 646,-133.5 756,-133.5 756,-114.5 646,-114.5"/>
<text text-anchor="middle" x="701" y="-121.5" font-family="Helvetica,sans-Serif" font-size="10.00">ocra::OneLevelSolver</text>
</a>
</g>
</g>
<!-- Node41&#45;&gt;Node45 -->
<g id="edge44" class="edge"><title>Node41&#45;&gt;Node45</title>
<path fill="none" stroke="midnightblue" d="M587.49,-158.393C602.947,-153.545 620.787,-147.981 637,-143 647.156,-139.88 658.247,-136.519 668.254,-133.505"/>
<polygon fill="midnightblue" stroke="midnightblue" points="586.21,-155.126 577.718,-161.461 588.307,-161.804 586.21,-155.126"/>
</g>
<!-- Node46 -->
<g id="node46" class="node"><title>Node46</title>
<g id="a_node46"><a xlink:href="../../d7/dab/classocra_1_1QuadraticSolver.html" target="_top" xlink:title="QuadraticSolver class. ">
<polygon fill="white" stroke="red" points="645.5,-76.5 645.5,-95.5 756.5,-95.5 756.5,-76.5 645.5,-76.5"/>
<text text-anchor="middle" x="701" y="-83.5" font-family="Helvetica,sans-Serif" font-size="10.00">ocra::QuadraticSolver</text>
</a>
</g>
</g>
<!-- Node41&#45;&gt;Node46 -->
<g id="edge45" class="edge"><title>Node41&#45;&gt;Node46</title>
<path fill="none" stroke="midnightblue" d="M565.623,-154.698C582.884,-139.917 610.147,-118.444 637,-105 644.457,-101.267 652.784,-98.1174 660.879,-95.5229"/>
<polygon fill="midnightblue" stroke="midnightblue" points="563.231,-152.14 557.999,-161.353 567.834,-157.414 563.231,-152.14"/>
</g>
<!-- Node48 -->
<g id="node48" class="node"><title>Node48</title>
<g id="a_node48"><a xlink:href="../../d5/d40/classocra_1_1BaseVariable.html" target="_top" xlink:title="Implements a basic variable. ">
<polygon fill="white" stroke="black" points="651.5,-38.5 651.5,-57.5 750.5,-57.5 750.5,-38.5 651.5,-38.5"/>
<text text-anchor="middle" x="701" y="-45.5" font-family="Helvetica,sans-Serif" font-size="10.00">ocra::BaseVariable</text>
</a>
</g>
</g>
<!-- Node47&#45;&gt;Node48 -->
<g id="edge47" class="edge"><title>Node47&#45;&gt;Node48</title>
<path fill="none" stroke="midnightblue" d="M595.404,-48C613.276,-48 633.572,-48 651.498,-48"/>
<polygon fill="midnightblue" stroke="midnightblue" points="595.197,-44.5001 585.197,-48 595.197,-51.5001 595.197,-44.5001"/>
</g>
<!-- Node49 -->
<g id="node49" class="node"><title>Node49</title>
<g id="a_node49"><a xlink:href="../../d2/d7c/classocra_1_1CompositeVariable.html" target="_top" xlink:title="A concatenation of base variables and other composite variables. ">
<polygon fill="white" stroke="black" points="639,-0.5 639,-19.5 763,-19.5 763,-0.5 639,-0.5"/>
<text text-anchor="middle" x="701" y="-7.5" font-family="Helvetica,sans-Serif" font-size="10.00">ocra::CompositeVariable</text>
</a>
</g>
</g>
<!-- Node47&#45;&gt;Node49 -->
<g id="edge48" class="edge"><title>Node47&#45;&gt;Node49</title>
<path fill="none" stroke="midnightblue" d="M595.079,-36.1442C616.51,-30.8042 641.476,-24.5829 661.678,-19.5491"/>
<polygon fill="midnightblue" stroke="midnightblue" points="594.054,-32.7926 585.197,-38.6067 595.746,-39.5849 594.054,-32.7926"/>
</g>
</g>
</svg>
