<?xml version="1.0" encoding="UTF-8" standalone="no"?>
<!DOCTYPE svg PUBLIC "-//W3C//DTD SVG 1.1//EN"
 "http://www.w3.org/Graphics/SVG/1.1/DTD/svg11.dtd">
<!-- Generated by graphviz version 2.38.0 (20140413.2041)
 -->
<!-- Title: ocra::CascadeQP Pages: 1 -->
<svg width="106pt" height="162pt"
 viewBox="0.00 0.00 106.00 162.00" xmlns="http://www.w3.org/2000/svg" xmlns:xlink="http://www.w3.org/1999/xlink">
<g id="graph0" class="graph" transform="scale(1 1) rotate(0) translate(4 158)">
<title>ocra::CascadeQP</title>
<polygon fill="white" stroke="none" points="-4,4 -4,-158 102,-158 102,4 -4,4"/>
<!-- Node1 -->
<g id="node1" class="node"><title>Node1</title>
<polygon fill="#bfbfbf" stroke="black" points="1.5,-0.5 1.5,-19.5 96.5,-19.5 96.5,-0.5 1.5,-0.5"/>
<text text-anchor="middle" x="49" y="-7.5" font-family="Helvetica,sans-Serif" font-size="10.00">ocra::CascadeQP</text>
</g>
<!-- Node2 -->
<g id="node2" class="node"><title>Node2</title>
<g id="a_node2"><a xlink:href="../../d2/d4d/structocra_1_1FinalSolution.html" target="_top" xlink:title="ocra::FinalSolution">
<polygon fill="white" stroke="black" points="-7.10543e-15,-67.5 -7.10543e-15,-86.5 98,-86.5 98,-67.5 -7.10543e-15,-67.5"/>
<text text-anchor="middle" x="49" y="-74.5" font-family="Helvetica,sans-Serif" font-size="10.00">ocra::FinalSolution</text>
</a>
</g>
</g>
<!-- Node2&#45;&gt;Node1 -->
<g id="edge1" class="edge"><title>Node2&#45;&gt;Node1</title>
<path fill="none" stroke="#9a32cd" stroke-dasharray="5,2" d="M49,-57.037C49,-44.6703 49,-29.1198 49,-19.6273"/>
<polygon fill="#9a32cd" stroke="#9a32cd" points="45.5001,-57.2338 49,-67.2338 52.5001,-57.2338 45.5001,-57.2338"/>
<text text-anchor="middle" x="52.5" y="-41" font-family="Helvetica,sans-Serif" font-size="10.00"> f</text>
</g>
<!-- Node3 -->
<g id="node3" class="node"><title>Node3</title>
<polygon fill="white" stroke="#bfbfbf" points="20.5,-134.5 20.5,-153.5 77.5,-153.5 77.5,-134.5 20.5,-134.5"/>
<text text-anchor="middle" x="49" y="-141.5" font-family="Helvetica,sans-Serif" font-size="10.00">VectorXd</text>
</g>
<!-- Node3&#45;&gt;Node2 -->
<g id="edge2" class="edge"><title>Node3&#45;&gt;Node2</title>
<path fill="none" stroke="#9a32cd" stroke-dasharray="5,2" d="M49,-124.037C49,-111.67 49,-96.1198 49,-86.6273"/>
<polygon fill="#9a32cd" stroke="#9a32cd" points="45.5001,-124.234 49,-134.234 52.5001,-124.234 45.5001,-124.234"/>
<text text-anchor="middle" x="55" y="-108" font-family="Helvetica,sans-Serif" font-size="10.00"> yf</text>
</g>
</g>
</svg>
