<?xml version="1.0" encoding="UTF-8" standalone="no"?>
<!DOCTYPE svg PUBLIC "-//W3C//DTD SVG 1.1//EN"
 "http://www.w3.org/Graphics/SVG/1.1/DTD/svg11.dtd">
<!-- Generated by graphviz version 2.38.0 (20140413.2041)
 -->
<!-- Title: FileOperations.h Pages: 1 -->
<svg width="338pt" height="140pt"
 viewBox="0.00 0.00 337.50 140.00" xmlns="http://www.w3.org/2000/svg" xmlns:xlink="http://www.w3.org/1999/xlink">
<g id="graph0" class="graph" transform="scale(1 1) rotate(0) translate(4 136)">
<title>FileOperations.h</title>
<polygon fill="white" stroke="none" points="-4,4 -4,-136 333.5,-136 333.5,4 -4,4"/>
<!-- Node1 -->
<g id="node1" class="node"><title>Node1</title>
<polygon fill="#bfbfbf" stroke="black" points="156.5,-112.5 156.5,-131.5 244.5,-131.5 244.5,-112.5 156.5,-112.5"/>
<text text-anchor="middle" x="200.5" y="-119.5" font-family="Helvetica,sans-Serif" font-size="10.00">FileOperations.h</text>
</g>
<!-- Node2 -->
<g id="node2" class="node"><title>Node2</title>
<g id="a_node2"><a xlink:href="../../d5/d55/MathTypes_8h.html" target="_top" xlink:title="Declaration file of the OptimizationVariable class. ">
<polygon fill="white" stroke="black" points="19,-56.5 19,-75.5 130,-75.5 130,-56.5 19,-56.5"/>
<text text-anchor="middle" x="74.5" y="-63.5" font-family="Helvetica,sans-Serif" font-size="10.00">ocra/util/MathTypes.h</text>
</a>
</g>
</g>
<!-- Node1&#45;&gt;Node2 -->
<g id="edge1" class="edge"><title>Node1&#45;&gt;Node2</title>
<path fill="none" stroke="midnightblue" d="M180.535,-112.444C159.891,-103.596 127.437,-89.6875 103.868,-79.5865"/>
<polygon fill="midnightblue" stroke="midnightblue" points="104.942,-76.2387 94.3717,-75.5164 102.184,-82.6727 104.942,-76.2387"/>
</g>
<!-- Node5 -->
<g id="node5" class="node"><title>Node5</title>
<polygon fill="white" stroke="#bfbfbf" points="148,-56.5 148,-75.5 189,-75.5 189,-56.5 148,-56.5"/>
<text text-anchor="middle" x="168.5" y="-63.5" font-family="Helvetica,sans-Serif" font-size="10.00">string</text>
</g>
<!-- Node1&#45;&gt;Node5 -->
<g id="edge4" class="edge"><title>Node1&#45;&gt;Node5</title>
<path fill="none" stroke="midnightblue" d="M195.216,-112.083C190.789,-104.613 184.337,-93.7244 178.882,-84.5199"/>
<polygon fill="midnightblue" stroke="midnightblue" points="181.795,-82.5697 173.686,-75.7511 175.773,-86.1383 181.795,-82.5697"/>
</g>
<!-- Node6 -->
<g id="node6" class="node"><title>Node6</title>
<polygon fill="white" stroke="#bfbfbf" points="207.5,-56.5 207.5,-75.5 257.5,-75.5 257.5,-56.5 207.5,-56.5"/>
<text text-anchor="middle" x="232.5" y="-63.5" font-family="Helvetica,sans-Serif" font-size="10.00">fstream</text>
</g>
<!-- Node1&#45;&gt;Node6 -->
<g id="edge5" class="edge"><title>Node1&#45;&gt;Node6</title>
<path fill="none" stroke="midnightblue" d="M205.784,-112.083C210.211,-104.613 216.663,-93.7244 222.118,-84.5199"/>
<polygon fill="midnightblue" stroke="midnightblue" points="225.227,-86.1383 227.314,-75.7511 219.205,-82.5697 225.227,-86.1383"/>
</g>
<!-- Node7 -->
<g id="node7" class="node"><title>Node7</title>
<polygon fill="white" stroke="#bfbfbf" points="275.5,-56.5 275.5,-75.5 329.5,-75.5 329.5,-56.5 275.5,-56.5"/>
<text text-anchor="middle" x="302.5" y="-63.5" font-family="Helvetica,sans-Serif" font-size="10.00">iostream</text>
</g>
<!-- Node1&#45;&gt;Node7 -->
<g id="edge6" class="edge"><title>Node1&#45;&gt;Node7</title>
<path fill="none" stroke="midnightblue" d="M216.888,-112.324C233.171,-103.703 258.367,-90.3643 277.216,-80.3855"/>
<polygon fill="midnightblue" stroke="midnightblue" points="278.952,-83.4267 286.153,-75.6545 275.677,-77.2402 278.952,-83.4267"/>
</g>
<!-- Node3 -->
<g id="node3" class="node"><title>Node3</title>
<polygon fill="white" stroke="#bfbfbf" points="0,-0.5 0,-19.5 73,-19.5 73,-0.5 0,-0.5"/>
<text text-anchor="middle" x="36.5" y="-7.5" font-family="Helvetica,sans-Serif" font-size="10.00">Eigen/Dense</text>
</g>
<!-- Node2&#45;&gt;Node3 -->
<g id="edge2" class="edge"><title>Node2&#45;&gt;Node3</title>
<path fill="none" stroke="midnightblue" d="M68.2251,-56.083C62.8575,-48.4554 54.9824,-37.2645 48.4213,-27.9408"/>
<polygon fill="midnightblue" stroke="midnightblue" points="51.2755,-25.9149 42.6582,-19.7511 45.5508,-29.9434 51.2755,-25.9149"/>
</g>
<!-- Node4 -->
<g id="node4" class="node"><title>Node4</title>
<polygon fill="white" stroke="#bfbfbf" points="91.5,-0.5 91.5,-19.5 135.5,-19.5 135.5,-0.5 91.5,-0.5"/>
<text text-anchor="middle" x="113.5" y="-7.5" font-family="Helvetica,sans-Serif" font-size="10.00">cmath</text>
</g>
<!-- Node2&#45;&gt;Node4 -->
<g id="edge3" class="edge"><title>Node2&#45;&gt;Node4</title>
<path fill="none" stroke="midnightblue" d="M80.9401,-56.083C86.4489,-48.4554 94.5312,-37.2645 101.265,-27.9408"/>
<polygon fill="midnightblue" stroke="midnightblue" points="104.162,-29.9071 107.18,-19.7511 98.4874,-25.8087 104.162,-29.9071"/>
</g>
</g>
</svg>
