<?xml version="1.0" encoding="UTF-8" standalone="no"?>
<!DOCTYPE svg PUBLIC "-//W3C//DTD SVG 1.1//EN"
 "http://www.w3.org/Graphics/SVG/1.1/DTD/svg11.dtd">
<!-- Generated by graphviz version 2.26.3 (20100126.1600)
 -->
<!-- Title: G Pages: 1 -->
<svg width="1287pt" height="146pt"
 viewBox="0.00 0.00 1287.00 146.00" xmlns="http://www.w3.org/2000/svg" xmlns:xlink="http://www.w3.org/1999/xlink">
<g id="graph1" class="graph" transform="scale(1 1) rotate(0) translate(4 142)">
<title>G</title>
<polygon fill="white" stroke="white" points="-4,5 -4,-142 1284,-142 1284,5 -4,5"/>
<!-- Node1 -->
<g id="node1" class="node"><title>Node1</title>
<polygon fill="#bfbfbf" stroke="black" points="412,-116.5 412,-137.5 900,-137.5 900,-116.5 412,-116.5"/>
<text text-anchor="middle" x="656" y="-124.5" font-family="Helvetica,sans-Serif" font-size="10.00">ocra&#45;wbi&#45;plugins/ocra&#45;icub&#45;clients/walking&#45;client/include/walking&#45;client/constraints/AdmissibilityConstraints.h</text>
</g>
<!-- Node2 -->
<g id="node3" class="node"><title>Node2</title>
<a xlink:href="Constraint_8h.html" target="_top" xlink:title="A constraint base class.">
<polygon fill="white" stroke="black" points="126.5,-58.5 126.5,-79.5 309.5,-79.5 309.5,-58.5 126.5,-58.5"/>
<text text-anchor="middle" x="218" y="-66.5" font-family="Helvetica,sans-Serif" font-size="10.00">walking&#45;client/constraints/Constraint.h</text>
</a>
</g>
<!-- Node1&#45;&gt;Node2 -->
<g id="edge2" class="edge"><title>Node1&#45;&gt;Node2</title>
<path fill="none" stroke="midnightblue" d="M576.682,-116.497C500.793,-106.448 386.5,-91.3128 307.416,-80.8404"/>
<polygon fill="midnightblue" stroke="midnightblue" points="307.84,-77.3662 297.467,-79.5231 306.921,-84.3056 307.84,-77.3662"/>
</g>
<!-- Node7 -->
<g id="node13" class="node"><title>Node7</title>
<a xlink:href="SSDSAlternation_8h.html" target="_top" xlink:title="walking&#45;client/constraints/SSDSAlternation.h">
<polygon fill="white" stroke="black" points="327,-58.5 327,-79.5 539,-79.5 539,-58.5 327,-58.5"/>
<text text-anchor="middle" x="433" y="-66.5" font-family="Helvetica,sans-Serif" font-size="10.00">walking&#45;client/constraints/SSDSAlternation.h</text>
</a>
</g>
<!-- Node1&#45;&gt;Node7 -->
<g id="edge12" class="edge"><title>Node1&#45;&gt;Node7</title>
<path fill="none" stroke="midnightblue" d="M615.616,-116.497C578.474,-106.836 523.263,-92.4765 483.277,-82.0765"/>
<polygon fill="midnightblue" stroke="midnightblue" points="484.018,-78.653 473.459,-79.5231 482.256,-85.4276 484.018,-78.653"/>
</g>
<!-- Node9 -->
<g id="node17" class="node"><title>Node9</title>
<a xlink:href="SingleSupport_8h.html" target="_top" xlink:title="walking&#45;client/constraints/SingleSupport.h">
<polygon fill="white" stroke="black" points="556.5,-58.5 556.5,-79.5 755.5,-79.5 755.5,-58.5 556.5,-58.5"/>
<text text-anchor="middle" x="656" y="-66.5" font-family="Helvetica,sans-Serif" font-size="10.00">walking&#45;client/constraints/SingleSupport.h</text>
</a>
</g>
<!-- Node1&#45;&gt;Node9 -->
<g id="edge16" class="edge"><title>Node1&#45;&gt;Node9</title>
<path fill="none" stroke="midnightblue" d="M656,-116.362C656,-108.922 656,-98.7427 656,-89.7276"/>
<polygon fill="midnightblue" stroke="midnightblue" points="659.5,-89.5706 656,-79.5707 652.5,-89.5707 659.5,-89.5706"/>
</g>
<!-- Node10 -->
<g id="node20" class="node"><title>Node10</title>
<a xlink:href="ContactConfigHistory_8h.html" target="_top" xlink:title="walking&#45;client/constraints/ContactConfigHistory.h">
<polygon fill="white" stroke="black" points="772.5,-58.5 772.5,-79.5 1005.5,-79.5 1005.5,-58.5 772.5,-58.5"/>
<text text-anchor="middle" x="889" y="-66.5" font-family="Helvetica,sans-Serif" font-size="10.00">walking&#45;client/constraints/ContactConfigHistory.h</text>
</a>
</g>
<!-- Node1&#45;&gt;Node10 -->
<g id="edge20" class="edge"><title>Node1&#45;&gt;Node10</title>
<path fill="none" stroke="midnightblue" d="M698.195,-116.497C737.166,-106.795 795.178,-92.3547 836.999,-81.9445"/>
<polygon fill="midnightblue" stroke="midnightblue" points="837.868,-85.335 846.726,-79.5231 836.177,-78.5423 837.868,-85.335"/>
</g>
<!-- Node11 -->
<g id="node23" class="node"><title>Node11</title>
<a xlink:href="ContactConfigEnforcement_8h.html" target="_top" xlink:title="walking&#45;client/constraints/ContactConfigEnforcement.h">
<polygon fill="white" stroke="black" points="1022.5,-58.5 1022.5,-79.5 1279.5,-79.5 1279.5,-58.5 1022.5,-58.5"/>
<text text-anchor="middle" x="1151" y="-66.5" font-family="Helvetica,sans-Serif" font-size="10.00">walking&#45;client/constraints/ContactConfigEnforcement.h</text>
</a>
</g>
<!-- Node1&#45;&gt;Node11 -->
<g id="edge24" class="edge"><title>Node1&#45;&gt;Node11</title>
<path fill="none" stroke="midnightblue" d="M745.641,-116.497C831.754,-106.407 961.625,-91.1894 1051.04,-80.7127"/>
<polygon fill="midnightblue" stroke="midnightblue" points="1051.67,-84.1631 1061.19,-79.5231 1050.85,-77.2107 1051.67,-84.1631"/>
</g>
<!-- Node3 -->
<g id="node5" class="node"><title>Node3</title>
<a xlink:href="utils_8h.html" target="_top" xlink:title="walking&#45;client/utils.h">
<polygon fill="white" stroke="black" points="-0.5,-0.5 -0.5,-21.5 104.5,-21.5 104.5,-0.5 -0.5,-0.5"/>
<text text-anchor="middle" x="52" y="-8.5" font-family="Helvetica,sans-Serif" font-size="10.00">walking&#45;client/utils.h</text>
</a>
</g>
<!-- Node2&#45;&gt;Node3 -->
<g id="edge4" class="edge"><title>Node2&#45;&gt;Node3</title>
<path fill="none" stroke="midnightblue" d="M187.939,-58.4966C160.993,-49.082 121.272,-35.2036 91.7178,-24.8773"/>
<polygon fill="midnightblue" stroke="midnightblue" points="92.7126,-21.5174 82.1177,-21.5231 90.4036,-28.1257 92.7126,-21.5174"/>
</g>
<!-- Node4 -->
<g id="node7" class="node"><title>Node4</title>
<polygon fill="white" stroke="#bfbfbf" points="121.5,-0.5 121.5,-21.5 186.5,-21.5 186.5,-0.5 121.5,-0.5"/>
<text text-anchor="middle" x="154" y="-8.5" font-family="Helvetica,sans-Serif" font-size="10.00">Eigen/Core</text>
</g>
<!-- Node2&#45;&gt;Node4 -->
<g id="edge6" class="edge"><title>Node2&#45;&gt;Node4</title>
<path fill="none" stroke="midnightblue" d="M206.261,-58.3619C197.059,-50.0226 184.06,-38.2418 173.328,-28.5162"/>
<polygon fill="midnightblue" stroke="midnightblue" points="175.424,-25.6924 165.664,-21.5707 170.724,-30.8793 175.424,-25.6924"/>
</g>
<!-- Node5 -->
<g id="node9" class="node"><title>Node5</title>
<polygon fill="white" stroke="#bfbfbf" points="204,-0.5 204,-21.5 374,-21.5 374,-0.5 204,-0.5"/>
<text text-anchor="middle" x="289" y="-8.5" font-family="Helvetica,sans-Serif" font-size="10.00">unsupported/Eigen/MatrixFunctions</text>
</g>
<!-- Node2&#45;&gt;Node5 -->
<g id="edge8" class="edge"><title>Node2&#45;&gt;Node5</title>
<path fill="none" stroke="midnightblue" d="M231.022,-58.3619C241.431,-49.859 256.219,-37.7785 268.255,-27.9466"/>
<polygon fill="midnightblue" stroke="midnightblue" points="270.53,-30.6077 276.06,-21.5707 266.101,-25.1866 270.53,-30.6077"/>
</g>
<!-- Node6 -->
<g id="node11" class="node"><title>Node6</title>
<polygon fill="white" stroke="#bfbfbf" points="391.5,-0.5 391.5,-21.5 508.5,-21.5 508.5,-0.5 391.5,-0.5"/>
<text text-anchor="middle" x="450" y="-8.5" font-family="Helvetica,sans-Serif" font-size="10.00">ocra/util/ErrorsHelper.h</text>
</g>
<!-- Node2&#45;&gt;Node6 -->
<g id="edge10" class="edge"><title>Node2&#45;&gt;Node6</title>
<path fill="none" stroke="midnightblue" d="M260.013,-58.4966C298.736,-48.8159 356.337,-34.4156 397.958,-24.0105"/>
<polygon fill="midnightblue" stroke="midnightblue" points="399.055,-27.344 407.908,-21.5231 397.357,-20.553 399.055,-27.344"/>
</g>
<!-- Node8 -->
<g id="node15" class="node"><title>Node8</title>
<polygon fill="white" stroke="#bfbfbf" points="629.5,-0.5 629.5,-21.5 810.5,-21.5 810.5,-0.5 629.5,-0.5"/>
<text text-anchor="middle" x="720" y="-8.5" font-family="Helvetica,sans-Serif" font-size="10.00">walking&#45;client/constraints/constraint.h</text>
</g>
<!-- Node7&#45;&gt;Node8 -->
<g id="edge14" class="edge"><title>Node7&#45;&gt;Node8</title>
<path fill="none" stroke="midnightblue" d="M484.974,-58.4966C533.585,-48.6727 606.247,-33.9884 657.893,-23.5512"/>
<polygon fill="midnightblue" stroke="midnightblue" points="658.82,-26.9346 667.929,-21.5231 657.434,-20.0734 658.82,-26.9346"/>
</g>
<!-- Node9&#45;&gt;Node8 -->
<g id="edge18" class="edge"><title>Node9&#45;&gt;Node8</title>
<path fill="none" stroke="midnightblue" d="M667.739,-58.3619C676.941,-50.0226 689.94,-38.2418 700.672,-28.5162"/>
<polygon fill="midnightblue" stroke="midnightblue" points="703.276,-30.8793 708.336,-21.5707 698.576,-25.6924 703.276,-30.8793"/>
</g>
<!-- Node10&#45;&gt;Node8 -->
<g id="edge22" class="edge"><title>Node10&#45;&gt;Node8</title>
<path fill="none" stroke="midnightblue" d="M858.395,-58.4966C830.963,-49.082 790.524,-35.2036 760.436,-24.8773"/>
<polygon fill="midnightblue" stroke="midnightblue" points="761.257,-21.4588 750.662,-21.5231 758.984,-28.0797 761.257,-21.4588"/>
</g>
<!-- Node11&#45;&gt;Node8 -->
<g id="edge26" class="edge"><title>Node11&#45;&gt;Node8</title>
<path fill="none" stroke="midnightblue" d="M1072.95,-58.4966C998.426,-48.468 886.265,-33.3744 808.462,-22.9045"/>
<polygon fill="midnightblue" stroke="midnightblue" points="808.575,-19.3881 798.197,-21.5231 807.641,-26.3256 808.575,-19.3881"/>
</g>
</g>
</svg>
