<?xml version="1.0" encoding="UTF-8" standalone="no"?>
<!DOCTYPE svg PUBLIC "-//W3C//DTD SVG 1.1//EN"
 "http://www.w3.org/Graphics/SVG/1.1/DTD/svg11.dtd">
<!-- Generated by graphviz version 2.26.3 (20100126.1600)
 -->
<!-- Title: G Pages: 1 -->
<svg width="974pt" height="262pt"
 viewBox="0.00 0.00 973.82 262.00" xmlns="http://www.w3.org/2000/svg" xmlns:xlink="http://www.w3.org/1999/xlink">
<g id="graph1" class="graph" transform="scale(1 1) rotate(0) translate(4 258)">
<title>G</title>
<polygon fill="white" stroke="white" points="-4,5 -4,-258 970.815,-258 970.815,5 -4,5"/>
<!-- Node1 -->
<g id="node1" class="node"><title>Node1</title>
<polygon fill="#bfbfbf" stroke="black" points="98.8151,-232.5 98.8151,-253.5 586.815,-253.5 586.815,-232.5 98.8151,-232.5"/>
<text text-anchor="middle" x="342.815" y="-240.5" font-family="Helvetica,sans-Serif" font-size="10.00">ocra&#45;wbi&#45;plugins/ocra&#45;icub&#45;clients/walking&#45;client/include/walking&#45;client/constraints/AdmissibilityConstraints.h</text>
</g>
<!-- Node2 -->
<g id="node3" class="node"><title>Node2</title>
<a xlink:href="Constraint_8h.html" target="_top" xlink:title="A constraint base class.">
<polygon fill="white" stroke="black" points="251.315,-116.5 251.315,-137.5 434.315,-137.5 434.315,-116.5 251.315,-116.5"/>
<text text-anchor="middle" x="342.815" y="-124.5" font-family="Helvetica,sans-Serif" font-size="10.00">walking&#45;client/constraints/Constraint.h</text>
</a>
</g>
<!-- Node1&#45;&gt;Node2 -->
<g id="edge2" class="edge"><title>Node1&#45;&gt;Node2</title>
<path fill="none" stroke="midnightblue" d="M206.367,-232.472C118.597,-224.275 18.4548,-211.668 4.81514,-196 -1.60505,-188.625 -1.60505,-181.375 4.81514,-174 20.2976,-156.216 147.237,-142.374 241.022,-134.45"/>
<polygon fill="midnightblue" stroke="midnightblue" points="241.46,-137.925 251.134,-133.607 240.878,-130.95 241.46,-137.925"/>
</g>
<!-- Node9 -->
<g id="node17" class="node"><title>Node9</title>
<a xlink:href="SSDSAlternation_8h.html" target="_top" xlink:title="walking&#45;client/constraints/SSDSAlternation.h">
<polygon fill="white" stroke="black" points="13.8151,-174.5 13.8151,-195.5 225.815,-195.5 225.815,-174.5 13.8151,-174.5"/>
<text text-anchor="middle" x="119.815" y="-182.5" font-family="Helvetica,sans-Serif" font-size="10.00">walking&#45;client/constraints/SSDSAlternation.h</text>
</a>
</g>
<!-- Node1&#45;&gt;Node9 -->
<g id="edge16" class="edge"><title>Node1&#45;&gt;Node9</title>
<path fill="none" stroke="midnightblue" d="M302.432,-232.497C265.29,-222.836 210.078,-208.477 170.092,-198.077"/>
<polygon fill="midnightblue" stroke="midnightblue" points="170.834,-194.653 160.274,-195.523 169.071,-201.428 170.834,-194.653"/>
</g>
<!-- Node10 -->
<g id="node20" class="node"><title>Node10</title>
<a xlink:href="SingleSupport_8h.html" target="_top" xlink:title="walking&#45;client/constraints/SingleSupport.h">
<polygon fill="white" stroke="black" points="243.315,-174.5 243.315,-195.5 442.315,-195.5 442.315,-174.5 243.315,-174.5"/>
<text text-anchor="middle" x="342.815" y="-182.5" font-family="Helvetica,sans-Serif" font-size="10.00">walking&#45;client/constraints/SingleSupport.h</text>
</a>
</g>
<!-- Node1&#45;&gt;Node10 -->
<g id="edge20" class="edge"><title>Node1&#45;&gt;Node10</title>
<path fill="none" stroke="midnightblue" d="M342.815,-232.362C342.815,-224.922 342.815,-214.743 342.815,-205.728"/>
<polygon fill="midnightblue" stroke="midnightblue" points="346.315,-205.571 342.815,-195.571 339.315,-205.571 346.315,-205.571"/>
</g>
<!-- Node11 -->
<g id="node23" class="node"><title>Node11</title>
<a xlink:href="ContactConfigHistory_8h.html" target="_top" xlink:title="walking&#45;client/constraints/ContactConfigHistory.h">
<polygon fill="white" stroke="black" points="459.315,-174.5 459.315,-195.5 692.315,-195.5 692.315,-174.5 459.315,-174.5"/>
<text text-anchor="middle" x="575.815" y="-182.5" font-family="Helvetica,sans-Serif" font-size="10.00">walking&#45;client/constraints/ContactConfigHistory.h</text>
</a>
</g>
<!-- Node1&#45;&gt;Node11 -->
<g id="edge24" class="edge"><title>Node1&#45;&gt;Node11</title>
<path fill="none" stroke="midnightblue" d="M385.01,-232.497C423.982,-222.795 481.994,-208.355 523.814,-197.945"/>
<polygon fill="midnightblue" stroke="midnightblue" points="524.683,-201.335 533.541,-195.523 522.992,-194.542 524.683,-201.335"/>
</g>
<!-- Node12 -->
<g id="node26" class="node"><title>Node12</title>
<a xlink:href="ContactConfigEnforcement_8h.html" target="_top" xlink:title="walking&#45;client/constraints/ContactConfigEnforcement.h">
<polygon fill="white" stroke="black" points="709.315,-174.5 709.315,-195.5 966.315,-195.5 966.315,-174.5 709.315,-174.5"/>
<text text-anchor="middle" x="837.815" y="-182.5" font-family="Helvetica,sans-Serif" font-size="10.00">walking&#45;client/constraints/ContactConfigEnforcement.h</text>
</a>
</g>
<!-- Node1&#45;&gt;Node12 -->
<g id="edge28" class="edge"><title>Node1&#45;&gt;Node12</title>
<path fill="none" stroke="midnightblue" d="M432.456,-232.497C518.569,-222.407 648.44,-207.189 737.853,-196.713"/>
<polygon fill="midnightblue" stroke="midnightblue" points="738.482,-200.163 748.006,-195.523 737.667,-193.211 738.482,-200.163"/>
</g>
<!-- Node3 -->
<g id="node5" class="node"><title>Node3</title>
<a xlink:href="utils_8h.html" target="_top" xlink:title="walking&#45;client/utils.h">
<polygon fill="white" stroke="black" points="53.3151,-58.5 53.3151,-79.5 158.315,-79.5 158.315,-58.5 53.3151,-58.5"/>
<text text-anchor="middle" x="105.815" y="-66.5" font-family="Helvetica,sans-Serif" font-size="10.00">walking&#45;client/utils.h</text>
</a>
</g>
<!-- Node2&#45;&gt;Node3 -->
<g id="edge4" class="edge"><title>Node2&#45;&gt;Node3</title>
<path fill="none" stroke="midnightblue" d="M299.896,-116.497C260.255,-106.795 201.247,-92.3547 158.709,-81.9445"/>
<polygon fill="midnightblue" stroke="midnightblue" points="159.36,-78.5006 148.815,-79.5231 157.696,-85.2999 159.36,-78.5006"/>
</g>
<!-- Node5 -->
<g id="node9" class="node"><title>Node5</title>
<polygon fill="white" stroke="#bfbfbf" points="175.315,-58.5 175.315,-79.5 240.315,-79.5 240.315,-58.5 175.315,-58.5"/>
<text text-anchor="middle" x="207.815" y="-66.5" font-family="Helvetica,sans-Serif" font-size="10.00">Eigen/Core</text>
</g>
<!-- Node2&#45;&gt;Node5 -->
<g id="edge8" class="edge"><title>Node2&#45;&gt;Node5</title>
<path fill="none" stroke="midnightblue" d="M318.368,-116.497C296.997,-107.315 265.746,-93.8889 241.918,-83.6516"/>
<polygon fill="midnightblue" stroke="midnightblue" points="243.106,-80.3529 232.537,-79.6212 240.343,-86.7845 243.106,-80.3529"/>
</g>
<!-- Node6 -->
<g id="node11" class="node"><title>Node6</title>
<polygon fill="white" stroke="#bfbfbf" points="257.815,-58.5 257.815,-79.5 427.815,-79.5 427.815,-58.5 257.815,-58.5"/>
<text text-anchor="middle" x="342.815" y="-66.5" font-family="Helvetica,sans-Serif" font-size="10.00">unsupported/Eigen/MatrixFunctions</text>
</g>
<!-- Node2&#45;&gt;Node6 -->
<g id="edge10" class="edge"><title>Node2&#45;&gt;Node6</title>
<path fill="none" stroke="midnightblue" d="M342.815,-116.362C342.815,-108.922 342.815,-98.7427 342.815,-89.7276"/>
<polygon fill="midnightblue" stroke="midnightblue" points="346.315,-89.5706 342.815,-79.5707 339.315,-89.5707 346.315,-89.5706"/>
</g>
<!-- Node7 -->
<g id="node13" class="node"><title>Node7</title>
<polygon fill="white" stroke="#bfbfbf" points="445.315,-58.5 445.315,-79.5 562.315,-79.5 562.315,-58.5 445.315,-58.5"/>
<text text-anchor="middle" x="503.815" y="-66.5" font-family="Helvetica,sans-Serif" font-size="10.00">ocra/util/ErrorsHelper.h</text>
</g>
<!-- Node2&#45;&gt;Node7 -->
<g id="edge12" class="edge"><title>Node2&#45;&gt;Node7</title>
<path fill="none" stroke="midnightblue" d="M371.971,-116.497C397.991,-107.123 436.294,-93.3242 464.919,-83.0122"/>
<polygon fill="midnightblue" stroke="midnightblue" points="466.383,-86.2052 474.605,-79.5231 464.01,-79.6195 466.383,-86.2052"/>
</g>
<!-- Node8 -->
<g id="node15" class="node"><title>Node8</title>
<polygon fill="white" stroke="#bfbfbf" points="579.815,-58.5 579.815,-79.5 631.815,-79.5 631.815,-58.5 579.815,-58.5"/>
<text text-anchor="middle" x="605.815" y="-66.5" font-family="Helvetica,sans-Serif" font-size="10.00">memory</text>
</g>
<!-- Node2&#45;&gt;Node8 -->
<g id="edge14" class="edge"><title>Node2&#45;&gt;Node8</title>
<path fill="none" stroke="midnightblue" d="M402.245,-116.456C446.131,-108.281 507.478,-96.0412 569.557,-80.157"/>
<polygon fill="midnightblue" stroke="midnightblue" points="570.721,-83.4712 579.524,-77.5765 568.966,-76.6947 570.721,-83.4712"/>
</g>
<!-- Node4 -->
<g id="node7" class="node"><title>Node4</title>
<polygon fill="white" stroke="#bfbfbf" points="85.3151,-0.5 85.3151,-21.5 126.315,-21.5 126.315,-0.5 85.3151,-0.5"/>
<text text-anchor="middle" x="105.815" y="-8.5" font-family="Helvetica,sans-Serif" font-size="10.00">string</text>
</g>
<!-- Node3&#45;&gt;Node4 -->
<g id="edge6" class="edge"><title>Node3&#45;&gt;Node4</title>
<path fill="none" stroke="midnightblue" d="M105.815,-58.3619C105.815,-50.9219 105.815,-40.7427 105.815,-31.7276"/>
<polygon fill="midnightblue" stroke="midnightblue" points="109.315,-31.5706 105.815,-21.5707 102.315,-31.5707 109.315,-31.5706"/>
</g>
<!-- Node9&#45;&gt;Node2 -->
<g id="edge18" class="edge"><title>Node9&#45;&gt;Node2</title>
<path fill="none" stroke="midnightblue" d="M160.199,-174.497C197.341,-164.836 252.552,-150.477 292.538,-140.077"/>
<polygon fill="midnightblue" stroke="midnightblue" points="293.559,-143.428 302.356,-137.523 291.797,-136.653 293.559,-143.428"/>
</g>
<!-- Node10&#45;&gt;Node2 -->
<g id="edge22" class="edge"><title>Node10&#45;&gt;Node2</title>
<path fill="none" stroke="midnightblue" d="M342.815,-174.362C342.815,-166.922 342.815,-156.743 342.815,-147.728"/>
<polygon fill="midnightblue" stroke="midnightblue" points="346.315,-147.571 342.815,-137.571 339.315,-147.571 346.315,-147.571"/>
</g>
<!-- Node11&#45;&gt;Node2 -->
<g id="edge26" class="edge"><title>Node11&#45;&gt;Node2</title>
<path fill="none" stroke="midnightblue" d="M533.621,-174.497C494.649,-164.795 436.637,-150.355 394.816,-139.945"/>
<polygon fill="midnightblue" stroke="midnightblue" points="395.638,-136.542 385.089,-137.523 393.947,-143.335 395.638,-136.542"/>
</g>
<!-- Node12&#45;&gt;Node2 -->
<g id="edge30" class="edge"><title>Node12&#45;&gt;Node2</title>
<path fill="none" stroke="midnightblue" d="M748.174,-174.497C662.061,-164.407 532.19,-149.189 442.777,-138.713"/>
<polygon fill="midnightblue" stroke="midnightblue" points="442.963,-135.211 432.624,-137.523 442.149,-142.163 442.963,-135.211"/>
</g>
</g>
</svg>
