<?xml version="1.0" encoding="UTF-8" standalone="no"?>
<!DOCTYPE svg PUBLIC "-//W3C//DTD SVG 1.1//EN"
 "http://www.w3.org/Graphics/SVG/1.1/DTD/svg11.dtd">
<!-- Generated by graphviz version 2.26.3 (20100126.1600)
 -->
<!-- Title: G Pages: 1 -->
<svg width="2676pt" height="378pt"
 viewBox="0.00 0.00 2676.00 378.00" xmlns="http://www.w3.org/2000/svg" xmlns:xlink="http://www.w3.org/1999/xlink">
<g id="graph1" class="graph" transform="scale(1 1) rotate(0) translate(4 374)">
<title>G</title>
<polygon fill="white" stroke="white" points="-4,5 -4,-374 2673,-374 2673,5 -4,5"/>
<!-- Node1 -->
<g id="node1" class="node"><title>Node1</title>
<polygon fill="#bfbfbf" stroke="black" points="1875.5,-348.5 1875.5,-369.5 2204.5,-369.5 2204.5,-348.5 1875.5,-348.5"/>
<text text-anchor="middle" x="2040" y="-356.5" font-family="Helvetica,sans-Serif" font-size="10.00">ocra&#45;wbi&#45;plugins/ocra&#45;icub&#45;clients/walking&#45;client/src/BaseOfSupport.cpp</text>
</g>
<!-- Node2 -->
<g id="node3" class="node"><title>Node2</title>
<a xlink:href="BaseOfSupport_8h.html" target="_top" xlink:title="walking&#45;client/BaseOfSupport.h">
<polygon fill="white" stroke="black" points="1963,-290.5 1963,-311.5 2117,-311.5 2117,-290.5 1963,-290.5"/>
<text text-anchor="middle" x="2040" y="-298.5" font-family="Helvetica,sans-Serif" font-size="10.00">walking&#45;client/BaseOfSupport.h</text>
</a>
</g>
<!-- Node1&#45;&gt;Node2 -->
<g id="edge2" class="edge"><title>Node1&#45;&gt;Node2</title>
<path fill="none" stroke="midnightblue" d="M2040,-348.362C2040,-340.922 2040,-330.743 2040,-321.728"/>
<polygon fill="midnightblue" stroke="midnightblue" points="2043.5,-321.571 2040,-311.571 2036.5,-321.571 2043.5,-321.571"/>
</g>
<!-- Node3 -->
<g id="node5" class="node"><title>Node3</title>
<polygon fill="white" stroke="#bfbfbf" points="1107.5,-232.5 1107.5,-253.5 1210.5,-253.5 1210.5,-232.5 1107.5,-232.5"/>
<text text-anchor="middle" x="1159" y="-240.5" font-family="Helvetica,sans-Serif" font-size="10.00">boost/geometry.hpp</text>
</g>
<!-- Node2&#45;&gt;Node3 -->
<g id="edge4" class="edge"><title>Node2&#45;&gt;Node3</title>
<path fill="none" stroke="midnightblue" d="M1962.75,-299.771C1818.68,-296.78 1499.09,-286.858 1220.94,-254.114"/>
<polygon fill="midnightblue" stroke="midnightblue" points="1220.99,-250.595 1210.65,-252.889 1220.17,-257.546 1220.99,-250.595"/>
</g>
<!-- Node4 -->
<g id="node7" class="node"><title>Node4</title>
<polygon fill="white" stroke="#bfbfbf" points="1227.5,-232.5 1227.5,-253.5 1418.5,-253.5 1418.5,-232.5 1227.5,-232.5"/>
<text text-anchor="middle" x="1323" y="-240.5" font-family="Helvetica,sans-Serif" font-size="10.00">boost/geometry/geometries/polygon.hpp</text>
</g>
<!-- Node2&#45;&gt;Node4 -->
<g id="edge6" class="edge"><title>Node2&#45;&gt;Node4</title>
<path fill="none" stroke="midnightblue" d="M1962.53,-295.78C1848.1,-287.909 1626.89,-272.083 1428.77,-254.144"/>
<polygon fill="midnightblue" stroke="midnightblue" points="1429.04,-250.653 1418.76,-253.233 1428.4,-257.625 1429.04,-250.653"/>
</g>
<!-- Node5 -->
<g id="node9" class="node"><title>Node5</title>
<polygon fill="white" stroke="#bfbfbf" points="1435.5,-232.5 1435.5,-253.5 1608.5,-253.5 1608.5,-232.5 1435.5,-232.5"/>
<text text-anchor="middle" x="1522" y="-240.5" font-family="Helvetica,sans-Serif" font-size="10.00">boost/geometry/geometries/box.hpp</text>
</g>
<!-- Node2&#45;&gt;Node5 -->
<g id="edge8" class="edge"><title>Node2&#45;&gt;Node5</title>
<path fill="none" stroke="midnightblue" d="M1962.8,-292.531C1880.23,-283.447 1745.13,-268.515 1618.95,-254.218"/>
<polygon fill="midnightblue" stroke="midnightblue" points="1619.05,-250.707 1608.72,-253.058 1618.26,-257.662 1619.05,-250.707"/>
</g>
<!-- Node6 -->
<g id="node11" class="node"><title>Node6</title>
<polygon fill="white" stroke="#bfbfbf" points="1625.5,-232.5 1625.5,-253.5 1870.5,-253.5 1870.5,-232.5 1625.5,-232.5"/>
<text text-anchor="middle" x="1748" y="-240.5" font-family="Helvetica,sans-Serif" font-size="10.00">boost/geometry/geometries/adapted/boost_tuple.hpp</text>
</g>
<!-- Node2&#45;&gt;Node6 -->
<g id="edge10" class="edge"><title>Node2&#45;&gt;Node6</title>
<path fill="none" stroke="midnightblue" d="M1987.12,-290.497C1937.56,-280.652 1863.43,-265.927 1810.86,-255.486"/>
<polygon fill="midnightblue" stroke="midnightblue" points="1811.47,-252.038 1800.98,-253.523 1810.1,-258.904 1811.47,-252.038"/>
</g>
<!-- Node7 -->
<g id="node13" class="node"><title>Node7</title>
<polygon fill="white" stroke="#bfbfbf" points="1888,-232.5 1888,-253.5 2058,-253.5 2058,-232.5 1888,-232.5"/>
<text text-anchor="middle" x="1973" y="-240.5" font-family="Helvetica,sans-Serif" font-size="10.00">unsupported/Eigen/MatrixFunctions</text>
</g>
<!-- Node2&#45;&gt;Node7 -->
<g id="edge12" class="edge"><title>Node2&#45;&gt;Node7</title>
<path fill="none" stroke="midnightblue" d="M2027.71,-290.362C2017.98,-281.941 2004.2,-270.011 1992.9,-260.231"/>
<polygon fill="midnightblue" stroke="midnightblue" points="1995.06,-257.469 1985.21,-253.571 1990.48,-262.762 1995.06,-257.469"/>
</g>
<!-- Node8 -->
<g id="node15" class="node"><title>Node8</title>
<polygon fill="white" stroke="#bfbfbf" points="2075.5,-232.5 2075.5,-253.5 2140.5,-253.5 2140.5,-232.5 2075.5,-232.5"/>
<text text-anchor="middle" x="2108" y="-240.5" font-family="Helvetica,sans-Serif" font-size="10.00">Eigen/Core</text>
</g>
<!-- Node2&#45;&gt;Node8 -->
<g id="edge14" class="edge"><title>Node2&#45;&gt;Node8</title>
<path fill="none" stroke="midnightblue" d="M2052.47,-290.362C2062.35,-281.941 2076.33,-270.011 2087.8,-260.231"/>
<polygon fill="midnightblue" stroke="midnightblue" points="2090.27,-262.723 2095.61,-253.571 2085.73,-257.397 2090.27,-262.723"/>
</g>
<!-- Node9 -->
<g id="node17" class="node"><title>Node9</title>
<a xlink:href="MIQPState_8h.html" target="_top" xlink:title="walking&#45;client/MIQPState.h">
<polygon fill="white" stroke="black" points="2158,-232.5 2158,-253.5 2294,-253.5 2294,-232.5 2158,-232.5"/>
<text text-anchor="middle" x="2226" y="-240.5" font-family="Helvetica,sans-Serif" font-size="10.00">walking&#45;client/MIQPState.h</text>
</a>
</g>
<!-- Node2&#45;&gt;Node9 -->
<g id="edge16" class="edge"><title>Node2&#45;&gt;Node9</title>
<path fill="none" stroke="midnightblue" d="M2073.68,-290.497C2104.14,-281 2149.16,-266.962 2182.36,-256.609"/>
<polygon fill="midnightblue" stroke="midnightblue" points="2183.75,-259.841 2192.25,-253.523 2181.67,-253.159 2183.75,-259.841"/>
</g>
<!-- Node41 -->
<g id="node92" class="node"><title>Node41</title>
<a xlink:href="utils_8h.html" target="_top" xlink:title="walking&#45;client/utils.h">
<polygon fill="white" stroke="black" points="2280.5,-174.5 2280.5,-195.5 2385.5,-195.5 2385.5,-174.5 2280.5,-174.5"/>
<text text-anchor="middle" x="2333" y="-182.5" font-family="Helvetica,sans-Serif" font-size="10.00">walking&#45;client/utils.h</text>
</a>
</g>
<!-- Node2&#45;&gt;Node41 -->
<g id="edge114" class="edge"><title>Node2&#45;&gt;Node41</title>
<path fill="none" stroke="midnightblue" d="M2117.02,-295.264C2184.04,-288.856 2274.75,-276.323 2303,-254 2318.07,-242.09 2325.73,-221.093 2329.51,-205.38"/>
<polygon fill="midnightblue" stroke="midnightblue" points="2332.95,-206.025 2331.56,-195.522 2326.1,-204.602 2332.95,-206.025"/>
</g>
<!-- Node42 -->
<g id="node96" class="node"><title>Node42</title>
<a xlink:href="StepController_8h.html" target="_top" xlink:title="walking&#45;client/StepController.h">
<polygon fill="white" stroke="black" points="2349.5,-232.5 2349.5,-253.5 2498.5,-253.5 2498.5,-232.5 2349.5,-232.5"/>
<text text-anchor="middle" x="2424" y="-240.5" font-family="Helvetica,sans-Serif" font-size="10.00">walking&#45;client/StepController.h</text>
</a>
</g>
<!-- Node2&#45;&gt;Node42 -->
<g id="edge108" class="edge"><title>Node2&#45;&gt;Node42</title>
<path fill="none" stroke="midnightblue" d="M2109.54,-290.497C2175.66,-280.509 2275.05,-265.498 2344.33,-255.033"/>
<polygon fill="midnightblue" stroke="midnightblue" points="2344.96,-258.477 2354.33,-253.523 2343.92,-251.556 2344.96,-258.477"/>
</g>
<!-- Node44 -->
<g id="node102" class="node"><title>Node44</title>
<polygon fill="white" stroke="#bfbfbf" points="2516,-232.5 2516,-253.5 2668,-253.5 2668,-232.5 2516,-232.5"/>
<text text-anchor="middle" x="2592" y="-240.5" font-family="Helvetica,sans-Serif" font-size="10.00">ocra&#45;recipes/TaskConnection.h</text>
</g>
<!-- Node2&#45;&gt;Node44 -->
<g id="edge116" class="edge"><title>Node2&#45;&gt;Node44</title>
<path fill="none" stroke="midnightblue" d="M2117.33,-293.895C2207.85,-285.426 2362.53,-270.478 2505.3,-254.173"/>
<polygon fill="midnightblue" stroke="midnightblue" points="2506.02,-257.613 2515.56,-252.997 2505.22,-250.659 2506.02,-257.613"/>
</g>
<!-- Node10 -->
<g id="node19" class="node"><title>Node10</title>
<polygon fill="white" stroke="#bfbfbf" points="2445.5,-0.5 2445.5,-21.5 2518.5,-21.5 2518.5,-0.5 2445.5,-0.5"/>
<text text-anchor="middle" x="2482" y="-8.5" font-family="Helvetica,sans-Serif" font-size="10.00">Eigen/Dense</text>
</g>
<!-- Node9&#45;&gt;Node10 -->
<g id="edge18" class="edge"><title>Node9&#45;&gt;Node10</title>
<path fill="none" stroke="midnightblue" d="M2231.61,-232.431C2239.47,-218.208 2254.74,-192.551 2272,-174 2330.28,-111.357 2414.29,-53.9576 2456.19,-27.0615"/>
<polygon fill="midnightblue" stroke="midnightblue" points="2458.15,-29.9642 2464.71,-21.6437 2454.39,-24.0579 2458.15,-29.9642"/>
</g>
<!-- Node11 -->
<g id="node21" class="node"><title>Node11</title>
<a xlink:href="OcraWbiModel_8h.html" target="_top" xlink:title="Implementation of ocra::Model using wholeBodyInterface.">
<polygon fill="white" stroke="black" points="436,-174.5 436,-195.5 568,-195.5 568,-174.5 436,-174.5"/>
<text text-anchor="middle" x="502" y="-182.5" font-family="Helvetica,sans-Serif" font-size="10.00">ocra&#45;icub/OcraWbiModel.h</text>
</a>
</g>
<!-- Node9&#45;&gt;Node11 -->
<g id="edge20" class="edge"><title>Node9&#45;&gt;Node11</title>
<path fill="none" stroke="midnightblue" d="M2157.61,-232.82C2154.71,-232.517 2151.83,-232.241 2149,-232 1837.9,-205.426 859.727,-189.997 578.387,-186.029"/>
<polygon fill="midnightblue" stroke="midnightblue" points="578.327,-182.528 568.279,-185.887 578.228,-189.527 578.327,-182.528"/>
</g>
<!-- Node22 -->
<g id="node45" class="node"><title>Node22</title>
<a xlink:href="Utilities_8h.html" target="_top" xlink:title="Some useful tools for the ocra&#45;icub lib.">
<polygon fill="white" stroke="black" points="1214.5,-58.5 1214.5,-79.5 1315.5,-79.5 1315.5,-58.5 1214.5,-58.5"/>
<text text-anchor="middle" x="1265" y="-66.5" font-family="Helvetica,sans-Serif" font-size="10.00">ocra&#45;icub/Utilities.h</text>
</a>
</g>
<!-- Node9&#45;&gt;Node22 -->
<g id="edge106" class="edge"><title>Node9&#45;&gt;Node22</title>
<path fill="none" stroke="midnightblue" d="M2224.68,-232.322C2222.14,-216.727 2215.01,-188.053 2196,-174 2125.96,-122.236 1521.51,-83.5946 1325.84,-72.3482"/>
<polygon fill="midnightblue" stroke="midnightblue" points="1325.92,-68.847 1315.74,-71.7709 1325.52,-75.8357 1325.92,-68.847"/>
</g>
<!-- Node40 -->
<g id="node90" class="node"><title>Node40</title>
<polygon fill="white" stroke="#bfbfbf" points="2070.5,-174.5 2070.5,-195.5 2187.5,-195.5 2187.5,-174.5 2070.5,-174.5"/>
<text text-anchor="middle" x="2129" y="-182.5" font-family="Helvetica,sans-Serif" font-size="10.00">ocra/util/ErrorsHelper.h</text>
</g>
<!-- Node9&#45;&gt;Node40 -->
<g id="edge100" class="edge"><title>Node9&#45;&gt;Node40</title>
<path fill="none" stroke="midnightblue" d="M2208.21,-232.362C2193.44,-223.532 2172.22,-210.844 2155.46,-200.822"/>
<polygon fill="midnightblue" stroke="midnightblue" points="2157.06,-197.699 2146.68,-195.571 2153.47,-203.707 2157.06,-197.699"/>
</g>
<!-- Node9&#45;&gt;Node41 -->
<g id="edge102" class="edge"><title>Node9&#45;&gt;Node41</title>
<path fill="none" stroke="midnightblue" d="M2245.63,-232.362C2262.14,-223.409 2285.97,-210.491 2304.58,-200.406"/>
<polygon fill="midnightblue" stroke="midnightblue" points="2306.38,-203.413 2313.5,-195.571 2303.04,-197.259 2306.38,-203.413"/>
</g>
<!-- Node12 -->
<g id="node23" class="node"><title>Node12</title>
<polygon fill="white" stroke="#bfbfbf" points="2376,-0.5 2376,-21.5 2428,-21.5 2428,-0.5 2376,-0.5"/>
<text text-anchor="middle" x="2402" y="-8.5" font-family="Helvetica,sans-Serif" font-size="10.00">memory</text>
</g>
<!-- Node11&#45;&gt;Node12 -->
<g id="edge22" class="edge"><title>Node11&#45;&gt;Node12</title>
<path fill="none" stroke="midnightblue" d="M568.389,-184.389C810.067,-181.076 1665.01,-159.845 2365.74,-21.8988"/>
<polygon fill="midnightblue" stroke="midnightblue" points="2366.66,-25.2857 2375.79,-19.9112 2365.3,-18.4188 2366.66,-25.2857"/>
</g>
<!-- Node13 -->
<g id="node25" class="node"><title>Node13</title>
<polygon fill="white" stroke="#bfbfbf" points="75.5,-0.5 75.5,-21.5 180.5,-21.5 180.5,-0.5 75.5,-0.5"/>
<text text-anchor="middle" x="128" y="-8.5" font-family="Helvetica,sans-Serif" font-size="10.00">ocra/control/Model.h</text>
</g>
<!-- Node11&#45;&gt;Node13 -->
<g id="edge24" class="edge"><title>Node11&#45;&gt;Node13</title>
<path fill="none" stroke="midnightblue" d="M435.952,-176.461C375.156,-167.833 290.007,-153.582 260,-138 208.557,-111.286 163.452,-58.2303 141.738,-29.8863"/>
<polygon fill="midnightblue" stroke="midnightblue" points="144.334,-27.514 135.532,-21.6168 138.735,-31.7158 144.334,-27.514"/>
</g>
<!-- Node14 -->
<g id="node27" class="node"><title>Node14</title>
<polygon fill="white" stroke="#bfbfbf" points="0,-0.5 0,-21.5 58,-21.5 58,-0.5 0,-0.5"/>
<text text-anchor="middle" x="29" y="-8.5" font-family="Helvetica,sans-Serif" font-size="10.00">wbi/wbi.h</text>
</g>
<!-- Node11&#45;&gt;Node14 -->
<g id="edge26" class="edge"><title>Node11&#45;&gt;Node14</title>
<path fill="none" stroke="midnightblue" d="M435.949,-181.435C378.315,-176.564 293.303,-165.07 224,-138 153.922,-110.627 82.6144,-55.8771 48.9468,-28.063"/>
<polygon fill="midnightblue" stroke="midnightblue" points="51.139,-25.3337 41.2219,-21.6051 46.6493,-30.7042 51.139,-25.3337"/>
</g>
<!-- Node15 -->
<g id="node29" class="node"><title>Node15</title>
<polygon fill="white" stroke="#bfbfbf" points="198,-0.5 198,-21.5 274,-21.5 274,-0.5 198,-0.5"/>
<text text-anchor="middle" x="236" y="-8.5" font-family="Helvetica,sans-Serif" font-size="10.00">yarp/os/Log.h</text>
</g>
<!-- Node11&#45;&gt;Node15 -->
<g id="edge28" class="edge"><title>Node11&#45;&gt;Node15</title>
<path fill="none" stroke="midnightblue" d="M452.44,-174.497C376.417,-157.269 236.763,-120.814 208,-80 197.043,-64.4526 207.929,-43.9857 219.169,-29.389"/>
<polygon fill="midnightblue" stroke="midnightblue" points="221.977,-31.4863 225.666,-21.5546 216.588,-27.018 221.977,-31.4863"/>
</g>
<!-- Node16 -->
<g id="node31" class="node"><title>Node16</title>
<a xlink:href="OcraWbiConversions_8h.html" target="_top" xlink:title="A utility class full of static conversion functions.">
<polygon fill="white" stroke="black" points="421.5,-116.5 421.5,-137.5 582.5,-137.5 582.5,-116.5 421.5,-116.5"/>
<text text-anchor="middle" x="502" y="-124.5" font-family="Helvetica,sans-Serif" font-size="10.00">ocra&#45;icub/OcraWbiConversions.h</text>
</a>
</g>
<!-- Node11&#45;&gt;Node16 -->
<g id="edge30" class="edge"><title>Node11&#45;&gt;Node16</title>
<path fill="none" stroke="midnightblue" d="M502,-174.362C502,-166.922 502,-156.743 502,-147.728"/>
<polygon fill="midnightblue" stroke="midnightblue" points="505.5,-147.571 502,-137.571 498.5,-147.571 505.5,-147.571"/>
</g>
<!-- Node11&#45;&gt;Node22 -->
<g id="edge98" class="edge"><title>Node11&#45;&gt;Node22</title>
<path fill="none" stroke="midnightblue" d="M568.045,-174.959C714.086,-152.756 1062.66,-99.7627 1203.95,-78.2816"/>
<polygon fill="midnightblue" stroke="midnightblue" points="1204.8,-81.6925 1214.16,-76.7291 1203.75,-74.772 1204.8,-81.6925"/>
</g>
<!-- Node16&#45;&gt;Node14 -->
<g id="edge42" class="edge"><title>Node16&#45;&gt;Node14</title>
<path fill="none" stroke="midnightblue" d="M421.498,-118.74C361.868,-111.514 278.996,-99.1317 208,-80 155.09,-65.742 96.252,-41.3099 60.9612,-25.6709"/>
<polygon fill="midnightblue" stroke="midnightblue" points="62.2139,-22.3971 51.6563,-21.5088 59.3557,-28.787 62.2139,-22.3971"/>
</g>
<!-- Node16&#45;&gt;Node15 -->
<g id="edge40" class="edge"><title>Node16&#45;&gt;Node15</title>
<path fill="none" stroke="midnightblue" d="M437.355,-116.483C386.825,-107.461 321.365,-93.7722 298,-80 277.124,-67.6951 259.369,-46.0175 248.279,-30.2362"/>
<polygon fill="midnightblue" stroke="midnightblue" points="251.041,-28.0722 242.546,-21.7411 245.239,-31.988 251.041,-28.0722"/>
</g>
<!-- Node17 -->
<g id="node33" class="node"><title>Node17</title>
<polygon fill="white" stroke="#bfbfbf" points="462,-0.5 462,-21.5 516,-21.5 516,-0.5 462,-0.5"/>
<text text-anchor="middle" x="489" y="-8.5" font-family="Helvetica,sans-Serif" font-size="10.00">iostream</text>
</g>
<!-- Node16&#45;&gt;Node17 -->
<g id="edge32" class="edge"><title>Node16&#45;&gt;Node17</title>
<path fill="none" stroke="midnightblue" d="M563.178,-116.412C605.464,-106.253 650.536,-87.9467 629,-58 627.418,-55.8006 566.869,-36.0086 525.926,-22.8192"/>
<polygon fill="midnightblue" stroke="midnightblue" points="526.833,-19.4346 516.242,-19.7049 524.69,-26.0985 526.833,-19.4346"/>
</g>
<!-- Node18 -->
<g id="node35" class="node"><title>Node18</title>
<polygon fill="white" stroke="#bfbfbf" points="216.5,-58.5 216.5,-79.5 251.5,-79.5 251.5,-58.5 216.5,-58.5"/>
<text text-anchor="middle" x="234" y="-66.5" font-family="Helvetica,sans-Serif" font-size="10.00">map</text>
</g>
<!-- Node16&#45;&gt;Node18 -->
<g id="edge34" class="edge"><title>Node16&#45;&gt;Node18</title>
<path fill="none" stroke="midnightblue" d="M435.505,-116.475C387.664,-108.259 321.826,-95.6277 265,-80 263.761,-79.6593 262.5,-79.2935 261.232,-78.9097"/>
<polygon fill="midnightblue" stroke="midnightblue" points="262.157,-75.5296 251.564,-75.731 259.97,-82.1794 262.157,-75.5296"/>
</g>
<!-- Node19 -->
<g id="node37" class="node"><title>Node19</title>
<polygon fill="white" stroke="#bfbfbf" points="292,-0.5 292,-21.5 336,-21.5 336,-0.5 292,-0.5"/>
<text text-anchor="middle" x="314" y="-8.5" font-family="Helvetica,sans-Serif" font-size="10.00">vector</text>
</g>
<!-- Node16&#45;&gt;Node19 -->
<g id="edge36" class="edge"><title>Node16&#45;&gt;Node19</title>
<path fill="none" stroke="midnightblue" d="M521.276,-116.372C543.598,-102.729 575.229,-78.385 558,-58 528.768,-23.4128 406.482,-32.7878 346.335,-21.6434"/>
<polygon fill="midnightblue" stroke="midnightblue" points="346.727,-18.1455 336.207,-19.4002 345.214,-24.9799 346.727,-18.1455"/>
</g>
<!-- Node20 -->
<g id="node39" class="node"><title>Node20</title>
<polygon fill="white" stroke="#bfbfbf" points="353.5,-0.5 353.5,-21.5 444.5,-21.5 444.5,-0.5 353.5,-0.5"/>
<text text-anchor="middle" x="399" y="-8.5" font-family="Helvetica,sans-Serif" font-size="10.00">yarp/sig/Vector.h</text>
</g>
<!-- Node16&#45;&gt;Node20 -->
<g id="edge38" class="edge"><title>Node16&#45;&gt;Node20</title>
<path fill="none" stroke="midnightblue" d="M535.891,-116.444C568.702,-104.448 610.794,-83.2244 591,-58 586.675,-52.488 509.71,-34.8771 454.559,-22.8499"/>
<polygon fill="midnightblue" stroke="midnightblue" points="455.052,-19.3755 444.537,-20.6733 453.566,-26.216 455.052,-19.3755"/>
</g>
<!-- Node21 -->
<g id="node43" class="node"><title>Node21</title>
<polygon fill="white" stroke="#bfbfbf" points="307,-58.5 307,-79.5 549,-79.5 549,-58.5 307,-58.5"/>
<text text-anchor="middle" x="428" y="-66.5" font-family="Helvetica,sans-Serif" font-size="10.00">yarpWholeBodyInterface/yarpWholeBodyInterface.h</text>
</g>
<!-- Node16&#45;&gt;Node21 -->
<g id="edge44" class="edge"><title>Node16&#45;&gt;Node21</title>
<path fill="none" stroke="midnightblue" d="M488.427,-116.362C477.579,-107.859 462.166,-95.7785 449.621,-85.9466"/>
<polygon fill="midnightblue" stroke="midnightblue" points="451.516,-82.9848 441.487,-79.5707 447.198,-88.4942 451.516,-82.9848"/>
</g>
<!-- Node16&#45;&gt;Node22 -->
<g id="edge46" class="edge"><title>Node16&#45;&gt;Node22</title>
<path fill="none" stroke="midnightblue" d="M582.572,-120.875C736.017,-109.211 1067.06,-84.0463 1203.9,-73.6448"/>
<polygon fill="midnightblue" stroke="midnightblue" points="1204.48,-77.1104 1214.19,-72.8624 1203.95,-70.1305 1204.48,-77.1104"/>
</g>
<!-- Node22&#45;&gt;Node10 -->
<g id="edge94" class="edge"><title>Node22&#45;&gt;Node10</title>
<path fill="none" stroke="midnightblue" d="M1315.52,-68.3166C1507.9,-65.5088 2195.58,-53.548 2435.23,-21.9815"/>
<polygon fill="midnightblue" stroke="midnightblue" points="2435.84,-25.4305 2445.28,-20.6091 2434.9,-18.4949 2435.84,-25.4305"/>
</g>
<!-- Node22&#45;&gt;Node12 -->
<g id="edge48" class="edge"><title>Node22&#45;&gt;Node12</title>
<path fill="none" stroke="midnightblue" d="M1315.74,-67.2061C1517.29,-60.0341 2255.4,-33.3181 2365.73,-21.3863"/>
<polygon fill="midnightblue" stroke="midnightblue" points="2366.36,-24.8331 2375.81,-20.0407 2365.43,-17.8947 2366.36,-24.8331"/>
</g>
<!-- Node22&#45;&gt;Node13 -->
<g id="edge90" class="edge"><title>Node22&#45;&gt;Node13</title>
<path fill="none" stroke="midnightblue" d="M1214.3,-67.6935C1032.29,-62.8635 411.379,-45.1487 190.709,-22.0366"/>
<polygon fill="midnightblue" stroke="midnightblue" points="190.825,-18.5288 180.507,-20.9319 190.072,-25.4881 190.825,-18.5288"/>
</g>
<!-- Node22&#45;&gt;Node14 -->
<g id="edge88" class="edge"><title>Node22&#45;&gt;Node14</title>
<path fill="none" stroke="midnightblue" d="M1214.34,-68.6465C1018.85,-67.0332 312.818,-58.838 68.2013,-21.7994"/>
<polygon fill="midnightblue" stroke="midnightblue" points="68.7199,-18.3381 58.2977,-20.2425 67.6328,-25.2531 68.7199,-18.3381"/>
</g>
<!-- Node22&#45;&gt;Node15 -->
<g id="edge78" class="edge"><title>Node22&#45;&gt;Node15</title>
<path fill="none" stroke="midnightblue" d="M1214.24,-67.7926C1042.79,-63.5262 485.174,-48.0711 284.262,-21.9062"/>
<polygon fill="midnightblue" stroke="midnightblue" points="284.489,-18.405 274.11,-20.5317 283.55,-25.3418 284.489,-18.405"/>
</g>
<!-- Node22&#45;&gt;Node17 -->
<g id="edge52" class="edge"><title>Node22&#45;&gt;Node17</title>
<path fill="none" stroke="midnightblue" d="M1214.27,-67.3187C1073.01,-62.3975 676.196,-46.8868 526.291,-21.8207"/>
<polygon fill="midnightblue" stroke="midnightblue" points="526.809,-18.3583 516.355,-20.0778 525.6,-25.253 526.809,-18.3583"/>
</g>
<!-- Node22&#45;&gt;Node19 -->
<g id="edge56" class="edge"><title>Node22&#45;&gt;Node19</title>
<path fill="none" stroke="midnightblue" d="M1214.45,-68.3418C1050.32,-65.9088 532.702,-55.8376 346.093,-21.6336"/>
<polygon fill="midnightblue" stroke="midnightblue" points="346.614,-18.1697 336.134,-19.721 345.294,-25.0441 346.614,-18.1697"/>
</g>
<!-- Node22&#45;&gt;Node20 -->
<g id="edge84" class="edge"><title>Node22&#45;&gt;Node20</title>
<path fill="none" stroke="midnightblue" d="M1214.4,-68.5826C1087.81,-67.0007 747.124,-59.4314 454.539,-22.0494"/>
<polygon fill="midnightblue" stroke="midnightblue" points="454.954,-18.5741 444.588,-20.7641 454.057,-25.5164 454.954,-18.5741"/>
</g>
<!-- Node23 -->
<g id="node48" class="node"><title>Node23</title>
<polygon fill="white" stroke="#bfbfbf" points="1606,-0.5 1606,-21.5 1650,-21.5 1650,-0.5 1606,-0.5"/>
<text text-anchor="middle" x="1628" y="-8.5" font-family="Helvetica,sans-Serif" font-size="10.00">cmath</text>
</g>
<!-- Node22&#45;&gt;Node23 -->
<g id="edge50" class="edge"><title>Node22&#45;&gt;Node23</title>
<path fill="none" stroke="midnightblue" d="M1315.66,-65.0072C1379.3,-59.2916 1491.84,-46.8693 1596.08,-21.8535"/>
<polygon fill="midnightblue" stroke="midnightblue" points="1596.93,-25.2481 1605.81,-19.4737 1595.27,-18.4483 1596.93,-25.2481"/>
</g>
<!-- Node24 -->
<g id="node51" class="node"><title>Node24</title>
<polygon fill="white" stroke="#bfbfbf" points="2535.5,-0.5 2535.5,-21.5 2576.5,-21.5 2576.5,-0.5 2535.5,-0.5"/>
<text text-anchor="middle" x="2556" y="-8.5" font-family="Helvetica,sans-Serif" font-size="10.00">string</text>
</g>
<!-- Node22&#45;&gt;Node24 -->
<g id="edge54" class="edge"><title>Node22&#45;&gt;Node24</title>
<path fill="none" stroke="midnightblue" d="M1315.79,-68.0821C1531.38,-64.057 2366.62,-47.1176 2525.11,-21.6146"/>
<polygon fill="midnightblue" stroke="midnightblue" points="2526.12,-24.9892 2535.33,-19.7637 2524.87,-18.1012 2526.12,-24.9892"/>
</g>
<!-- Node25 -->
<g id="node54" class="node"><title>Node25</title>
<polygon fill="white" stroke="#bfbfbf" points="1668,-0.5 1668,-21.5 1720,-21.5 1720,-0.5 1668,-0.5"/>
<text text-anchor="middle" x="1694" y="-8.5" font-family="Helvetica,sans-Serif" font-size="10.00">sstream</text>
</g>
<!-- Node22&#45;&gt;Node25 -->
<g id="edge58" class="edge"><title>Node22&#45;&gt;Node25</title>
<path fill="none" stroke="midnightblue" d="M1315.56,-65.9838C1389.1,-60.937 1529.88,-48.7912 1657.8,-21.9478"/>
<polygon fill="midnightblue" stroke="midnightblue" points="1658.72,-25.3302 1667.77,-19.8198 1657.26,-18.4844 1658.72,-25.3302"/>
</g>
<!-- Node26 -->
<g id="node56" class="node"><title>Node26</title>
<polygon fill="white" stroke="#bfbfbf" points="1737.5,-0.5 1737.5,-21.5 1852.5,-21.5 1852.5,-0.5 1737.5,-0.5"/>
<text text-anchor="middle" x="1795" y="-8.5" font-family="Helvetica,sans-Serif" font-size="10.00">yarp/os/BufferedPort.h</text>
</g>
<!-- Node22&#45;&gt;Node26 -->
<g id="edge60" class="edge"><title>Node22&#45;&gt;Node26</title>
<path fill="none" stroke="midnightblue" d="M1315.59,-64.9464C1399.16,-58.0157 1571.52,-42.7337 1727.21,-22.1784"/>
<polygon fill="midnightblue" stroke="midnightblue" points="1727.99,-25.6056 1737.44,-20.8169 1727.07,-18.6668 1727.99,-25.6056"/>
</g>
<!-- Node27 -->
<g id="node58" class="node"><title>Node27</title>
<polygon fill="white" stroke="#bfbfbf" points="1870,-0.5 1870,-21.5 1956,-21.5 1956,-0.5 1870,-0.5"/>
<text text-anchor="middle" x="1913" y="-8.5" font-family="Helvetica,sans-Serif" font-size="10.00">yarp/os/Bottle.h</text>
</g>
<!-- Node22&#45;&gt;Node27 -->
<g id="edge62" class="edge"><title>Node22&#45;&gt;Node27</title>
<path fill="none" stroke="midnightblue" d="M1315.87,-67.2149C1417.45,-63.1689 1652.69,-51.3857 1859.79,-22.0142"/>
<polygon fill="midnightblue" stroke="midnightblue" points="1860.55,-25.4423 1869.95,-20.5569 1859.55,-18.5133 1860.55,-25.4423"/>
</g>
<!-- Node28 -->
<g id="node60" class="node"><title>Node28</title>
<polygon fill="white" stroke="#bfbfbf" points="1973.5,-0.5 1973.5,-21.5 2084.5,-21.5 2084.5,-0.5 1973.5,-0.5"/>
<text text-anchor="middle" x="2029" y="-8.5" font-family="Helvetica,sans-Serif" font-size="10.00">yarp/os/RateThread.h</text>
</g>
<!-- Node22&#45;&gt;Node28 -->
<g id="edge64" class="edge"><title>Node22&#45;&gt;Node28</title>
<path fill="none" stroke="midnightblue" d="M1315.68,-67.3908C1429.62,-63.3864 1714.87,-51.2055 1962.91,-22.1568"/>
<polygon fill="midnightblue" stroke="midnightblue" points="1963.68,-25.5898 1973.2,-20.9391 1962.86,-18.6383 1963.68,-25.5898"/>
</g>
<!-- Node29 -->
<g id="node62" class="node"><title>Node29</title>
<polygon fill="white" stroke="#bfbfbf" points="2101.5,-0.5 2101.5,-21.5 2230.5,-21.5 2230.5,-0.5 2101.5,-0.5"/>
<text text-anchor="middle" x="2166" y="-8.5" font-family="Helvetica,sans-Serif" font-size="10.00">yarp/os/ResourceFinder.h</text>
</g>
<!-- Node22&#45;&gt;Node29 -->
<g id="edge66" class="edge"><title>Node22&#45;&gt;Node29</title>
<path fill="none" stroke="midnightblue" d="M1315.54,-67.7651C1443.61,-64.2854 1791.48,-52.6518 2090.98,-22.1367"/>
<polygon fill="midnightblue" stroke="midnightblue" points="2091.57,-25.5939 2101.16,-21.0896 2090.86,-18.6306 2091.57,-25.5939"/>
</g>
<!-- Node30 -->
<g id="node64" class="node"><title>Node30</title>
<polygon fill="white" stroke="#bfbfbf" points="2248,-0.5 2248,-21.5 2358,-21.5 2358,-0.5 2248,-0.5"/>
<text text-anchor="middle" x="2303" y="-8.5" font-family="Helvetica,sans-Serif" font-size="10.00">yarp/os/PortReader.h</text>
</g>
<!-- Node22&#45;&gt;Node30 -->
<g id="edge68" class="edge"><title>Node22&#45;&gt;Node30</title>
<path fill="none" stroke="midnightblue" d="M1315.6,-67.3758C1485.84,-61.7849 2037.94,-42.6001 2237.8,-21.9855"/>
<polygon fill="midnightblue" stroke="midnightblue" points="2238.33,-25.449 2247.9,-20.909 2237.59,-18.4884 2238.33,-25.449"/>
</g>
<!-- Node31 -->
<g id="node66" class="node"><title>Node31</title>
<polygon fill="white" stroke="#bfbfbf" points="534,-0.5 534,-21.5 638,-21.5 638,-0.5 534,-0.5"/>
<text text-anchor="middle" x="586" y="-8.5" font-family="Helvetica,sans-Serif" font-size="10.00">yarp/os/RpcClient.h</text>
</g>
<!-- Node22&#45;&gt;Node31 -->
<g id="edge70" class="edge"><title>Node22&#45;&gt;Node31</title>
<path fill="none" stroke="midnightblue" d="M1214.35,-66.9088C1110.2,-62.2273 864.321,-49.2155 648.135,-22.0374"/>
<polygon fill="midnightblue" stroke="midnightblue" points="648.55,-18.5621 638.189,-20.7742 647.668,-25.5063 648.55,-18.5621"/>
</g>
<!-- Node32 -->
<g id="node68" class="node"><title>Node32</title>
<polygon fill="white" stroke="#bfbfbf" points="655.5,-0.5 655.5,-21.5 762.5,-21.5 762.5,-0.5 655.5,-0.5"/>
<text text-anchor="middle" x="709" y="-8.5" font-family="Helvetica,sans-Serif" font-size="10.00">yarp/os/RpcServer.h</text>
</g>
<!-- Node22&#45;&gt;Node32 -->
<g id="edge72" class="edge"><title>Node22&#45;&gt;Node32</title>
<path fill="none" stroke="midnightblue" d="M1214.35,-65.5378C1126.46,-59.2333 939.815,-44.5397 772.69,-22.1528"/>
<polygon fill="midnightblue" stroke="midnightblue" points="773.106,-18.6772 762.727,-20.8058 772.168,-25.6141 773.106,-18.6772"/>
</g>
<!-- Node33 -->
<g id="node70" class="node"><title>Node33</title>
<polygon fill="white" stroke="#bfbfbf" points="779.5,-0.5 779.5,-21.5 920.5,-21.5 920.5,-0.5 779.5,-0.5"/>
<text text-anchor="middle" x="850" y="-8.5" font-family="Helvetica,sans-Serif" font-size="10.00">yarp/os/ConnectionReader.h</text>
</g>
<!-- Node22&#45;&gt;Node33 -->
<g id="edge74" class="edge"><title>Node22&#45;&gt;Node33</title>
<path fill="none" stroke="midnightblue" d="M1214.11,-61.8881C1143.4,-52.005 1014.67,-34.0135 930.756,-22.2863"/>
<polygon fill="midnightblue" stroke="midnightblue" points="931.14,-18.8061 920.752,-20.8882 930.171,-25.7387 931.14,-18.8061"/>
</g>
<!-- Node34 -->
<g id="node72" class="node"><title>Node34</title>
<polygon fill="white" stroke="#bfbfbf" points="938,-0.5 938,-21.5 1020,-21.5 1020,-0.5 938,-0.5"/>
<text text-anchor="middle" x="979" y="-8.5" font-family="Helvetica,sans-Serif" font-size="10.00">yarp/os/Time.h</text>
</g>
<!-- Node22&#45;&gt;Node34 -->
<g id="edge76" class="edge"><title>Node22&#45;&gt;Node34</title>
<path fill="none" stroke="midnightblue" d="M1214.3,-59.2067C1168.62,-50.3139 1099.35,-36.6615 1029.97,-22.1781"/>
<polygon fill="midnightblue" stroke="midnightblue" points="1030.69,-18.7524 1020.19,-20.1293 1029.26,-25.6039 1030.69,-18.7524"/>
</g>
<!-- Node35 -->
<g id="node75" class="node"><title>Node35</title>
<polygon fill="white" stroke="#bfbfbf" points="1037.5,-0.5 1037.5,-21.5 1144.5,-21.5 1144.5,-0.5 1037.5,-0.5"/>
<text text-anchor="middle" x="1091" y="-8.5" font-family="Helvetica,sans-Serif" font-size="10.00">yarp/os/LogStream.h</text>
</g>
<!-- Node22&#45;&gt;Node35 -->
<g id="edge80" class="edge"><title>Node22&#45;&gt;Node35</title>
<path fill="none" stroke="midnightblue" d="M1233.49,-58.4966C1205.12,-49.0411 1163.25,-35.0829 1132.23,-24.7428"/>
<polygon fill="midnightblue" stroke="midnightblue" points="1133.16,-21.365 1122.57,-21.5231 1130.95,-28.0058 1133.16,-21.365"/>
</g>
<!-- Node36 -->
<g id="node77" class="node"><title>Node36</title>
<polygon fill="white" stroke="#bfbfbf" points="1161.5,-0.5 1161.5,-21.5 1258.5,-21.5 1258.5,-0.5 1161.5,-0.5"/>
<text text-anchor="middle" x="1210" y="-8.5" font-family="Helvetica,sans-Serif" font-size="10.00">yarp/os/Property.h</text>
</g>
<!-- Node22&#45;&gt;Node36 -->
<g id="edge82" class="edge"><title>Node22&#45;&gt;Node36</title>
<path fill="none" stroke="midnightblue" d="M1254.91,-58.3619C1247.16,-50.1861 1236.27,-38.7025 1227.15,-29.0907"/>
<polygon fill="midnightblue" stroke="midnightblue" points="1229.44,-26.4186 1220.02,-21.5707 1224.37,-31.2352 1229.44,-26.4186"/>
</g>
<!-- Node37 -->
<g id="node80" class="node"><title>Node37</title>
<polygon fill="white" stroke="#bfbfbf" points="1275.5,-0.5 1275.5,-21.5 1364.5,-21.5 1364.5,-0.5 1275.5,-0.5"/>
<text text-anchor="middle" x="1320" y="-8.5" font-family="Helvetica,sans-Serif" font-size="10.00">yarp/sig/Matrix.h</text>
</g>
<!-- Node22&#45;&gt;Node37 -->
<g id="edge86" class="edge"><title>Node22&#45;&gt;Node37</title>
<path fill="none" stroke="midnightblue" d="M1275.09,-58.3619C1282.84,-50.1861 1293.73,-38.7025 1302.85,-29.0907"/>
<polygon fill="midnightblue" stroke="midnightblue" points="1305.63,-31.2352 1309.98,-21.5707 1300.56,-26.4186 1305.63,-31.2352"/>
</g>
<!-- Node38 -->
<g id="node84" class="node"><title>Node38</title>
<polygon fill="white" stroke="#bfbfbf" points="1381.5,-0.5 1381.5,-21.5 1502.5,-21.5 1502.5,-0.5 1381.5,-0.5"/>
<text text-anchor="middle" x="1442" y="-8.5" font-family="Helvetica,sans-Serif" font-size="10.00">ocra/util/StringUtilities.h</text>
</g>
<!-- Node22&#45;&gt;Node38 -->
<g id="edge92" class="edge"><title>Node22&#45;&gt;Node38</title>
<path fill="none" stroke="midnightblue" d="M1297.05,-58.4966C1325.91,-49.0411 1368.51,-35.0829 1400.06,-24.7428"/>
<polygon fill="midnightblue" stroke="midnightblue" points="1401.47,-27.963 1409.89,-21.5231 1399.29,-21.3111 1401.47,-27.963"/>
</g>
<!-- Node39 -->
<g id="node87" class="node"><title>Node39</title>
<polygon fill="white" stroke="#bfbfbf" points="1520,-0.5 1520,-21.5 1588,-21.5 1588,-0.5 1520,-0.5"/>
<text text-anchor="middle" x="1554" y="-8.5" font-family="Helvetica,sans-Serif" font-size="10.00">Eigen/Lgsm</text>
</g>
<!-- Node22&#45;&gt;Node39 -->
<g id="edge96" class="edge"><title>Node22&#45;&gt;Node39</title>
<path fill="none" stroke="midnightblue" d="M1315.6,-60.2738C1363.32,-51.832 1437.06,-38.2442 1509.97,-22.1411"/>
<polygon fill="midnightblue" stroke="midnightblue" points="1510.78,-25.5462 1519.78,-19.9571 1509.26,-18.7134 1510.78,-25.5462"/>
</g>
<!-- Node41&#45;&gt;Node24 -->
<g id="edge104" class="edge"><title>Node41&#45;&gt;Node24</title>
<path fill="none" stroke="midnightblue" d="M2346.61,-174.377C2384.01,-145.195 2488.58,-63.6067 2534.22,-27.9915"/>
<polygon fill="midnightblue" stroke="midnightblue" points="2536.55,-30.6157 2542.28,-21.7046 2532.24,-25.0969 2536.55,-30.6157"/>
</g>
<!-- Node42&#45;&gt;Node41 -->
<g id="edge112" class="edge"><title>Node42&#45;&gt;Node41</title>
<path fill="none" stroke="midnightblue" d="M2407.31,-232.362C2393.58,-223.614 2373.92,-211.079 2358.26,-201.101"/>
<polygon fill="midnightblue" stroke="midnightblue" points="2359.9,-197.994 2349.58,-195.571 2356.14,-203.897 2359.9,-197.994"/>
</g>
<!-- Node43 -->
<g id="node98" class="node"><title>Node43</title>
<polygon fill="white" stroke="#bfbfbf" points="2402.5,-174.5 2402.5,-195.5 2557.5,-195.5 2557.5,-174.5 2402.5,-174.5"/>
<text text-anchor="middle" x="2480" y="-182.5" font-family="Helvetica,sans-Serif" font-size="10.00">ocra&#45;recipes/TrajectoryThread.h</text>
</g>
<!-- Node42&#45;&gt;Node43 -->
<g id="edge110" class="edge"><title>Node42&#45;&gt;Node43</title>
<path fill="none" stroke="midnightblue" d="M2434.27,-232.362C2442.24,-224.104 2453.47,-212.472 2462.81,-202.803"/>
<polygon fill="midnightblue" stroke="midnightblue" points="2465.37,-205.196 2469.79,-195.571 2460.33,-200.334 2465.37,-205.196"/>
</g>
</g>
</svg>
