<?xml version="1.0" encoding="UTF-8" standalone="no"?>
<!DOCTYPE svg PUBLIC "-//W3C//DTD SVG 1.1//EN"
 "http://www.w3.org/Graphics/SVG/1.1/DTD/svg11.dtd">
<!-- Generated by graphviz version 2.26.3 (20100126.1600)
 -->
<!-- Title: G Pages: 1 -->
<svg width="2651pt" height="320pt"
 viewBox="0.00 0.00 2651.00 320.00" xmlns="http://www.w3.org/2000/svg" xmlns:xlink="http://www.w3.org/1999/xlink">
<g id="graph1" class="graph" transform="scale(1 1) rotate(0) translate(4 316)">
<title>G</title>
<polygon fill="white" stroke="white" points="-4,5 -4,-316 2648,-316 2648,5 -4,5"/>
<!-- Node1 -->
<g id="node1" class="node"><title>Node1</title>
<polygon fill="#bfbfbf" stroke="black" points="1816,-290.5 1816,-311.5 2214,-311.5 2214,-290.5 1816,-290.5"/>
<text text-anchor="middle" x="2015" y="-298.5" font-family="Helvetica,sans-Serif" font-size="10.00">ocra&#45;wbi&#45;plugins/ocra&#45;icub&#45;clients/walking&#45;client/include/walking&#45;client/BaseOfSupport.h</text>
</g>
<!-- Node2 -->
<g id="node3" class="node"><title>Node2</title>
<polygon fill="white" stroke="#bfbfbf" points="1082.5,-232.5 1082.5,-253.5 1185.5,-253.5 1185.5,-232.5 1082.5,-232.5"/>
<text text-anchor="middle" x="1134" y="-240.5" font-family="Helvetica,sans-Serif" font-size="10.00">boost/geometry.hpp</text>
</g>
<!-- Node1&#45;&gt;Node2 -->
<g id="edge2" class="edge"><title>Node1&#45;&gt;Node2</title>
<path fill="none" stroke="midnightblue" d="M1815.73,-296.509C1651.61,-291.179 1412.75,-279.684 1195.64,-254.08"/>
<polygon fill="midnightblue" stroke="midnightblue" points="1195.99,-250.597 1185.65,-252.889 1195.16,-257.548 1195.99,-250.597"/>
</g>
<!-- Node3 -->
<g id="node5" class="node"><title>Node3</title>
<polygon fill="white" stroke="#bfbfbf" points="1202.5,-232.5 1202.5,-253.5 1393.5,-253.5 1393.5,-232.5 1202.5,-232.5"/>
<text text-anchor="middle" x="1298" y="-240.5" font-family="Helvetica,sans-Serif" font-size="10.00">boost/geometry/geometries/polygon.hpp</text>
</g>
<!-- Node1&#45;&gt;Node3 -->
<g id="edge4" class="edge"><title>Node1&#45;&gt;Node3</title>
<path fill="none" stroke="midnightblue" d="M1861.86,-290.489C1740.34,-281.859 1565.85,-268.823 1403.91,-254.157"/>
<polygon fill="midnightblue" stroke="midnightblue" points="1404.04,-250.653 1393.76,-253.233 1403.4,-257.625 1404.04,-250.653"/>
</g>
<!-- Node4 -->
<g id="node7" class="node"><title>Node4</title>
<polygon fill="white" stroke="#bfbfbf" points="1410.5,-232.5 1410.5,-253.5 1583.5,-253.5 1583.5,-232.5 1410.5,-232.5"/>
<text text-anchor="middle" x="1497" y="-240.5" font-family="Helvetica,sans-Serif" font-size="10.00">boost/geometry/geometries/box.hpp</text>
</g>
<!-- Node1&#45;&gt;Node4 -->
<g id="edge6" class="edge"><title>Node1&#45;&gt;Node4</title>
<path fill="none" stroke="midnightblue" d="M1919.23,-290.486C1835.91,-281.31 1711.61,-267.55 1593.99,-254.222"/>
<polygon fill="midnightblue" stroke="midnightblue" points="1594.05,-250.707 1583.72,-253.058 1593.26,-257.662 1594.05,-250.707"/>
</g>
<!-- Node5 -->
<g id="node9" class="node"><title>Node5</title>
<polygon fill="white" stroke="#bfbfbf" points="1600.5,-232.5 1600.5,-253.5 1845.5,-253.5 1845.5,-232.5 1600.5,-232.5"/>
<text text-anchor="middle" x="1723" y="-240.5" font-family="Helvetica,sans-Serif" font-size="10.00">boost/geometry/geometries/adapted/boost_tuple.hpp</text>
</g>
<!-- Node1&#45;&gt;Node5 -->
<g id="edge8" class="edge"><title>Node1&#45;&gt;Node5</title>
<path fill="none" stroke="midnightblue" d="M1962.12,-290.497C1912.56,-280.652 1838.43,-265.927 1785.86,-255.486"/>
<polygon fill="midnightblue" stroke="midnightblue" points="1786.47,-252.038 1775.98,-253.523 1785.1,-258.904 1786.47,-252.038"/>
</g>
<!-- Node6 -->
<g id="node11" class="node"><title>Node6</title>
<polygon fill="white" stroke="#bfbfbf" points="1863,-232.5 1863,-253.5 2033,-253.5 2033,-232.5 1863,-232.5"/>
<text text-anchor="middle" x="1948" y="-240.5" font-family="Helvetica,sans-Serif" font-size="10.00">unsupported/Eigen/MatrixFunctions</text>
</g>
<!-- Node1&#45;&gt;Node6 -->
<g id="edge10" class="edge"><title>Node1&#45;&gt;Node6</title>
<path fill="none" stroke="midnightblue" d="M2002.71,-290.362C1992.98,-281.941 1979.2,-270.011 1967.9,-260.231"/>
<polygon fill="midnightblue" stroke="midnightblue" points="1970.06,-257.469 1960.21,-253.571 1965.48,-262.762 1970.06,-257.469"/>
</g>
<!-- Node7 -->
<g id="node13" class="node"><title>Node7</title>
<polygon fill="white" stroke="#bfbfbf" points="2050.5,-232.5 2050.5,-253.5 2115.5,-253.5 2115.5,-232.5 2050.5,-232.5"/>
<text text-anchor="middle" x="2083" y="-240.5" font-family="Helvetica,sans-Serif" font-size="10.00">Eigen/Core</text>
</g>
<!-- Node1&#45;&gt;Node7 -->
<g id="edge12" class="edge"><title>Node1&#45;&gt;Node7</title>
<path fill="none" stroke="midnightblue" d="M2027.47,-290.362C2037.35,-281.941 2051.33,-270.011 2062.8,-260.231"/>
<polygon fill="midnightblue" stroke="midnightblue" points="2065.27,-262.723 2070.61,-253.571 2060.73,-257.397 2065.27,-262.723"/>
</g>
<!-- Node8 -->
<g id="node15" class="node"><title>Node8</title>
<a xlink:href="MIQPState_8h.html" target="_top" xlink:title="walking&#45;client/MIQPState.h">
<polygon fill="white" stroke="black" points="2133,-232.5 2133,-253.5 2269,-253.5 2269,-232.5 2133,-232.5"/>
<text text-anchor="middle" x="2201" y="-240.5" font-family="Helvetica,sans-Serif" font-size="10.00">walking&#45;client/MIQPState.h</text>
</a>
</g>
<!-- Node1&#45;&gt;Node8 -->
<g id="edge14" class="edge"><title>Node1&#45;&gt;Node8</title>
<path fill="none" stroke="midnightblue" d="M2048.68,-290.497C2079.14,-281 2124.16,-266.962 2157.36,-256.609"/>
<polygon fill="midnightblue" stroke="midnightblue" points="2158.75,-259.841 2167.25,-253.523 2156.67,-253.159 2158.75,-259.841"/>
</g>
<!-- Node40 -->
<g id="node90" class="node"><title>Node40</title>
<a xlink:href="utils_8h.html" target="_top" xlink:title="walking&#45;client/utils.h">
<polygon fill="white" stroke="black" points="2295.5,-174.5 2295.5,-195.5 2400.5,-195.5 2400.5,-174.5 2295.5,-174.5"/>
<text text-anchor="middle" x="2348" y="-182.5" font-family="Helvetica,sans-Serif" font-size="10.00">walking&#45;client/utils.h</text>
</a>
</g>
<!-- Node1&#45;&gt;Node40 -->
<g id="edge110" class="edge"><title>Node1&#45;&gt;Node40</title>
<path fill="none" stroke="midnightblue" d="M2106.61,-290.477C2170.21,-282.076 2248.6,-269.215 2278,-254 2301.15,-242.023 2321.59,-219.78 2334.31,-203.782"/>
<polygon fill="midnightblue" stroke="midnightblue" points="2337.25,-205.706 2340.56,-195.642 2331.7,-201.446 2337.25,-205.706"/>
</g>
<!-- Node41 -->
<g id="node93" class="node"><title>Node41</title>
<a xlink:href="StepController_8h.html" target="_top" xlink:title="walking&#45;client/StepController.h">
<polygon fill="white" stroke="black" points="2324.5,-232.5 2324.5,-253.5 2473.5,-253.5 2473.5,-232.5 2324.5,-232.5"/>
<text text-anchor="middle" x="2399" y="-240.5" font-family="Helvetica,sans-Serif" font-size="10.00">walking&#45;client/StepController.h</text>
</a>
</g>
<!-- Node1&#45;&gt;Node41 -->
<g id="edge104" class="edge"><title>Node1&#45;&gt;Node41</title>
<path fill="none" stroke="midnightblue" d="M2084.54,-290.497C2150.66,-280.509 2250.05,-265.498 2319.33,-255.033"/>
<polygon fill="midnightblue" stroke="midnightblue" points="2319.96,-258.477 2329.33,-253.523 2318.92,-251.556 2319.96,-258.477"/>
</g>
<!-- Node43 -->
<g id="node99" class="node"><title>Node43</title>
<polygon fill="white" stroke="#bfbfbf" points="2491,-232.5 2491,-253.5 2643,-253.5 2643,-232.5 2491,-232.5"/>
<text text-anchor="middle" x="2567" y="-240.5" font-family="Helvetica,sans-Serif" font-size="10.00">ocra&#45;recipes/TaskConnection.h</text>
</g>
<!-- Node1&#45;&gt;Node43 -->
<g id="edge112" class="edge"><title>Node1&#45;&gt;Node43</title>
<path fill="none" stroke="midnightblue" d="M2128.81,-290.456C2220.94,-281.709 2354.33,-268.564 2480.34,-254.169"/>
<polygon fill="midnightblue" stroke="midnightblue" points="2481.02,-257.613 2490.56,-252.997 2480.22,-250.659 2481.02,-257.613"/>
</g>
<!-- Node9 -->
<g id="node17" class="node"><title>Node9</title>
<polygon fill="white" stroke="#bfbfbf" points="2503.5,-0.5 2503.5,-21.5 2576.5,-21.5 2576.5,-0.5 2503.5,-0.5"/>
<text text-anchor="middle" x="2540" y="-8.5" font-family="Helvetica,sans-Serif" font-size="10.00">Eigen/Dense</text>
</g>
<!-- Node8&#45;&gt;Node9 -->
<g id="edge16" class="edge"><title>Node8&#45;&gt;Node9</title>
<path fill="none" stroke="midnightblue" d="M2213.5,-232.289C2229.96,-218.348 2259.97,-193.468 2287,-174 2367.09,-116.309 2466.74,-55.0035 2513.48,-26.8318"/>
<polygon fill="midnightblue" stroke="midnightblue" points="2515.33,-29.802 2522.1,-21.6501 2511.72,-23.8025 2515.33,-29.802"/>
</g>
<!-- Node10 -->
<g id="node19" class="node"><title>Node10</title>
<a xlink:href="OcraWbiModel_8h.html" target="_top" xlink:title="Implementation of ocra::Model using wholeBodyInterface.">
<polygon fill="white" stroke="black" points="2079,-174.5 2079,-195.5 2211,-195.5 2211,-174.5 2079,-174.5"/>
<text text-anchor="middle" x="2145" y="-182.5" font-family="Helvetica,sans-Serif" font-size="10.00">ocra&#45;icub/OcraWbiModel.h</text>
</a>
</g>
<!-- Node8&#45;&gt;Node10 -->
<g id="edge18" class="edge"><title>Node8&#45;&gt;Node10</title>
<path fill="none" stroke="midnightblue" d="M2190.73,-232.362C2182.76,-224.104 2171.53,-212.472 2162.19,-202.803"/>
<polygon fill="midnightblue" stroke="midnightblue" points="2164.67,-200.334 2155.21,-195.571 2159.63,-205.196 2164.67,-200.334"/>
</g>
<!-- Node21 -->
<g id="node43" class="node"><title>Node21</title>
<a xlink:href="Utilities_8h.html" target="_top" xlink:title="Some useful tools for the ocra&#45;icub lib.">
<polygon fill="white" stroke="black" points="1279.5,-58.5 1279.5,-79.5 1380.5,-79.5 1380.5,-58.5 1279.5,-58.5"/>
<text text-anchor="middle" x="1330" y="-66.5" font-family="Helvetica,sans-Serif" font-size="10.00">ocra&#45;icub/Utilities.h</text>
</a>
</g>
<!-- Node8&#45;&gt;Node21 -->
<g id="edge102" class="edge"><title>Node8&#45;&gt;Node21</title>
<path fill="none" stroke="midnightblue" d="M2138.52,-232.482C2084.76,-223.297 2005.16,-209.376 1936,-196 1734.08,-156.945 1495.48,-105.329 1387.82,-81.7426"/>
<polygon fill="midnightblue" stroke="midnightblue" points="1388.34,-78.272 1377.82,-79.5489 1386.84,-85.1096 1388.34,-78.272"/>
</g>
<!-- Node39 -->
<g id="node88" class="node"><title>Node39</title>
<polygon fill="white" stroke="#bfbfbf" points="1944.5,-174.5 1944.5,-195.5 2061.5,-195.5 2061.5,-174.5 1944.5,-174.5"/>
<text text-anchor="middle" x="2003" y="-182.5" font-family="Helvetica,sans-Serif" font-size="10.00">ocra/util/ErrorsHelper.h</text>
</g>
<!-- Node8&#45;&gt;Node39 -->
<g id="edge98" class="edge"><title>Node8&#45;&gt;Node39</title>
<path fill="none" stroke="midnightblue" d="M2165.14,-232.497C2132.45,-222.918 2083.97,-208.72 2048.55,-198.342"/>
<polygon fill="midnightblue" stroke="midnightblue" points="2049.5,-194.975 2038.92,-195.523 2047.54,-201.693 2049.5,-194.975"/>
</g>
<!-- Node8&#45;&gt;Node40 -->
<g id="edge100" class="edge"><title>Node8&#45;&gt;Node40</title>
<path fill="none" stroke="midnightblue" d="M2227.62,-232.497C2251.1,-223.234 2285.53,-209.65 2311.56,-199.379"/>
<polygon fill="midnightblue" stroke="midnightblue" points="2313.06,-202.547 2321.08,-195.621 2310.49,-196.036 2313.06,-202.547"/>
</g>
<!-- Node11 -->
<g id="node21" class="node"><title>Node11</title>
<polygon fill="white" stroke="#bfbfbf" points="2358,-0.5 2358,-21.5 2410,-21.5 2410,-0.5 2358,-0.5"/>
<text text-anchor="middle" x="2384" y="-8.5" font-family="Helvetica,sans-Serif" font-size="10.00">memory</text>
</g>
<!-- Node10&#45;&gt;Node11 -->
<g id="edge20" class="edge"><title>Node10&#45;&gt;Node11</title>
<path fill="none" stroke="midnightblue" d="M2149.72,-174.19C2162.01,-146.488 2195.49,-74.0073 2216,-58 2261.83,-22.2373 2287.53,-37.4142 2347.7,-22.1295"/>
<polygon fill="midnightblue" stroke="midnightblue" points="2348.94,-25.4188 2357.66,-19.4024 2347.09,-18.6673 2348.94,-25.4188"/>
</g>
<!-- Node12 -->
<g id="node23" class="node"><title>Node12</title>
<polygon fill="white" stroke="#bfbfbf" points="-0.5,-0.5 -0.5,-21.5 104.5,-21.5 104.5,-0.5 -0.5,-0.5"/>
<text text-anchor="middle" x="52" y="-8.5" font-family="Helvetica,sans-Serif" font-size="10.00">ocra/control/Model.h</text>
</g>
<!-- Node10&#45;&gt;Node12 -->
<g id="edge22" class="edge"><title>Node10&#45;&gt;Node12</title>
<path fill="none" stroke="midnightblue" d="M2078.79,-174.901C2075.82,-174.571 2072.88,-174.268 2070,-174 1668.3,-136.676 1565.62,-163.586 1163,-138 867.803,-119.24 793.735,-114.826 500,-80 330.493,-59.9029 286.228,-50.6697 114.437,-22.214"/>
<polygon fill="midnightblue" stroke="midnightblue" points="114.993,-18.7584 104.555,-20.5792 113.85,-25.6645 114.993,-18.7584"/>
</g>
<!-- Node13 -->
<g id="node25" class="node"><title>Node13</title>
<polygon fill="white" stroke="#bfbfbf" points="2428,-0.5 2428,-21.5 2486,-21.5 2486,-0.5 2428,-0.5"/>
<text text-anchor="middle" x="2457" y="-8.5" font-family="Helvetica,sans-Serif" font-size="10.00">wbi/wbi.h</text>
</g>
<!-- Node10&#45;&gt;Node13 -->
<g id="edge24" class="edge"><title>Node10&#45;&gt;Node13</title>
<path fill="none" stroke="midnightblue" d="M2154.48,-174.207C2162.82,-164.703 2175.26,-150.472 2186,-138 2216.45,-102.639 2213.99,-82.0143 2254,-58 2315.72,-20.958 2343.89,-38.8175 2417.85,-22.0688"/>
<polygon fill="midnightblue" stroke="midnightblue" points="2418.69,-25.4659 2427.59,-19.7228 2417.05,-18.6602 2418.69,-25.4659"/>
</g>
<!-- Node14 -->
<g id="node27" class="node"><title>Node14</title>
<polygon fill="white" stroke="#bfbfbf" points="2264,-0.5 2264,-21.5 2340,-21.5 2340,-0.5 2264,-0.5"/>
<text text-anchor="middle" x="2302" y="-8.5" font-family="Helvetica,sans-Serif" font-size="10.00">yarp/os/Log.h</text>
</g>
<!-- Node10&#45;&gt;Node14 -->
<g id="edge26" class="edge"><title>Node10&#45;&gt;Node14</title>
<path fill="none" stroke="midnightblue" d="M2144.68,-174.295C2144.55,-150.35 2147.57,-91.91 2178,-58 2188.65,-46.1333 2224.07,-33.3489 2254.35,-24.1137"/>
<polygon fill="midnightblue" stroke="midnightblue" points="2255.38,-27.4593 2263.96,-21.2457 2253.37,-20.7517 2255.38,-27.4593"/>
</g>
<!-- Node15 -->
<g id="node29" class="node"><title>Node15</title>
<a xlink:href="OcraWbiConversions_8h.html" target="_top" xlink:title="A utility class full of static conversion functions.">
<polygon fill="white" stroke="black" points="1171.5,-116.5 1171.5,-137.5 1332.5,-137.5 1332.5,-116.5 1171.5,-116.5"/>
<text text-anchor="middle" x="1252" y="-124.5" font-family="Helvetica,sans-Serif" font-size="10.00">ocra&#45;icub/OcraWbiConversions.h</text>
</a>
</g>
<!-- Node10&#45;&gt;Node15 -->
<g id="edge28" class="edge"><title>Node10&#45;&gt;Node15</title>
<path fill="none" stroke="midnightblue" d="M2078.79,-174.965C2075.82,-174.618 2072.88,-174.293 2070,-174 1806.64,-147.174 1493.9,-134.513 1342.75,-129.599"/>
<polygon fill="midnightblue" stroke="midnightblue" points="1342.7,-126.095 1332.59,-129.272 1342.47,-133.092 1342.7,-126.095"/>
</g>
<!-- Node10&#45;&gt;Node21 -->
<g id="edge96" class="edge"><title>Node10&#45;&gt;Node21</title>
<path fill="none" stroke="midnightblue" d="M2078.75,-175.266C2075.79,-174.837 2072.87,-174.413 2070,-174 1817.98,-137.639 1517.52,-95.3262 1390.96,-77.5513"/>
<polygon fill="midnightblue" stroke="midnightblue" points="1391.09,-74.0357 1380.7,-76.111 1390.12,-80.9677 1391.09,-74.0357"/>
</g>
<!-- Node15&#45;&gt;Node13 -->
<g id="edge40" class="edge"><title>Node15&#45;&gt;Node13</title>
<path fill="none" stroke="midnightblue" d="M1332.61,-122.863C1461.22,-115.955 1720.69,-100.754 1940,-80 2150.26,-60.1023 2207.17,-64.6951 2417.83,-22.003"/>
<polygon fill="midnightblue" stroke="midnightblue" points="2418.56,-25.4275 2427.66,-20.0008 2417.16,-18.5685 2418.56,-25.4275"/>
</g>
<!-- Node15&#45;&gt;Node14 -->
<g id="edge38" class="edge"><title>Node15&#45;&gt;Node14</title>
<path fill="none" stroke="midnightblue" d="M1332.75,-122.002C1502.13,-110.77 1906.87,-79.999 2253.87,-22.028"/>
<polygon fill="midnightblue" stroke="midnightblue" points="2254.58,-25.458 2263.86,-20.3487 2253.42,-18.5548 2254.58,-25.458"/>
</g>
<!-- Node16 -->
<g id="node31" class="node"><title>Node16</title>
<polygon fill="white" stroke="#bfbfbf" points="230,-0.5 230,-21.5 284,-21.5 284,-0.5 230,-0.5"/>
<text text-anchor="middle" x="257" y="-8.5" font-family="Helvetica,sans-Serif" font-size="10.00">iostream</text>
</g>
<!-- Node15&#45;&gt;Node16 -->
<g id="edge30" class="edge"><title>Node15&#45;&gt;Node16</title>
<path fill="none" stroke="midnightblue" d="M1246.95,-116.448C1238.66,-100.46 1220.48,-70.6265 1195,-58 1107.59,-14.6782 430.426,-37.46 294.498,-21.5797"/>
<polygon fill="midnightblue" stroke="midnightblue" points="294.734,-18.0783 284.343,-20.1464 293.755,-25.0096 294.734,-18.0783"/>
</g>
<!-- Node17 -->
<g id="node33" class="node"><title>Node17</title>
<polygon fill="white" stroke="#bfbfbf" points="891.5,-58.5 891.5,-79.5 926.5,-79.5 926.5,-58.5 891.5,-58.5"/>
<text text-anchor="middle" x="909" y="-66.5" font-family="Helvetica,sans-Serif" font-size="10.00">map</text>
</g>
<!-- Node15&#45;&gt;Node17 -->
<g id="edge32" class="edge"><title>Node15&#45;&gt;Node17</title>
<path fill="none" stroke="midnightblue" d="M1171.36,-120.718C1108.98,-114.56 1020.59,-103.006 936.403,-79.9056"/>
<polygon fill="midnightblue" stroke="midnightblue" points="937.263,-76.5118 926.689,-77.1829 935.374,-83.2521 937.263,-76.5118"/>
</g>
<!-- Node18 -->
<g id="node35" class="node"><title>Node18</title>
<polygon fill="white" stroke="#bfbfbf" points="302,-0.5 302,-21.5 346,-21.5 346,-0.5 302,-0.5"/>
<text text-anchor="middle" x="324" y="-8.5" font-family="Helvetica,sans-Serif" font-size="10.00">vector</text>
</g>
<!-- Node15&#45;&gt;Node18 -->
<g id="edge34" class="edge"><title>Node15&#45;&gt;Node18</title>
<path fill="none" stroke="midnightblue" d="M1251.79,-116.486C1250.85,-100.83 1246.53,-71.76 1228,-58 1152.26,-1.76795 489.45,-38.2349 356.385,-21.3631"/>
<polygon fill="midnightblue" stroke="midnightblue" points="356.551,-17.8461 346.128,-19.7483 355.462,-24.761 356.551,-17.8461"/>
</g>
<!-- Node19 -->
<g id="node37" class="node"><title>Node19</title>
<polygon fill="white" stroke="#bfbfbf" points="121.5,-0.5 121.5,-21.5 212.5,-21.5 212.5,-0.5 121.5,-0.5"/>
<text text-anchor="middle" x="167" y="-8.5" font-family="Helvetica,sans-Serif" font-size="10.00">yarp/sig/Vector.h</text>
</g>
<!-- Node15&#45;&gt;Node19 -->
<g id="edge36" class="edge"><title>Node15&#45;&gt;Node19</title>
<path fill="none" stroke="midnightblue" d="M1171.45,-121.537C998.944,-109.244 581.022,-76.2858 222.66,-22.149"/>
<polygon fill="midnightblue" stroke="midnightblue" points="223.02,-18.6637 212.608,-20.6226 221.969,-25.5844 223.02,-18.6637"/>
</g>
<!-- Node20 -->
<g id="node41" class="node"><title>Node20</title>
<polygon fill="white" stroke="#bfbfbf" points="944,-58.5 944,-79.5 1186,-79.5 1186,-58.5 944,-58.5"/>
<text text-anchor="middle" x="1065" y="-66.5" font-family="Helvetica,sans-Serif" font-size="10.00">yarpWholeBodyInterface/yarpWholeBodyInterface.h</text>
</g>
<!-- Node15&#45;&gt;Node20 -->
<g id="edge42" class="edge"><title>Node15&#45;&gt;Node20</title>
<path fill="none" stroke="midnightblue" d="M1218.14,-116.497C1187.52,-107 1142.26,-92.9619 1108.88,-82.6087"/>
<polygon fill="midnightblue" stroke="midnightblue" points="1109.52,-79.1426 1098.93,-79.5231 1107.44,-85.8284 1109.52,-79.1426"/>
</g>
<!-- Node15&#45;&gt;Node21 -->
<g id="edge44" class="edge"><title>Node15&#45;&gt;Node21</title>
<path fill="none" stroke="midnightblue" d="M1266.31,-116.362C1277.85,-107.777 1294.3,-95.5459 1307.59,-85.6636"/>
<polygon fill="midnightblue" stroke="midnightblue" points="1309.85,-88.3463 1315.78,-79.5707 1305.67,-82.7291 1309.85,-88.3463"/>
</g>
<!-- Node21&#45;&gt;Node9 -->
<g id="edge92" class="edge"><title>Node21&#45;&gt;Node9</title>
<path fill="none" stroke="midnightblue" d="M1380.55,-68.3021C1572.24,-65.4502 2255.17,-53.3741 2493.3,-21.9735"/>
<polygon fill="midnightblue" stroke="midnightblue" points="2493.85,-25.431 2503.28,-20.6084 2492.9,-18.4956 2493.85,-25.431"/>
</g>
<!-- Node21&#45;&gt;Node11 -->
<g id="edge46" class="edge"><title>Node21&#45;&gt;Node11</title>
<path fill="none" stroke="midnightblue" d="M1380.57,-68.3932C1556.3,-66.0201 2140.55,-55.8473 2347.93,-21.7263"/>
<polygon fill="midnightblue" stroke="midnightblue" points="2348.54,-25.1715 2357.81,-20.0306 2347.36,-18.2723 2348.54,-25.1715"/>
</g>
<!-- Node21&#45;&gt;Node12 -->
<g id="edge88" class="edge"><title>Node21&#45;&gt;Node12</title>
<path fill="none" stroke="midnightblue" d="M1279.4,-64.2973C1254.07,-62.0915 1222.94,-59.602 1195,-58 718.035,-30.6492 593.225,-72.2315 114.792,-22.0544"/>
<polygon fill="midnightblue" stroke="midnightblue" points="114.815,-18.5375 104.503,-20.9669 114.08,-25.4987 114.815,-18.5375"/>
</g>
<!-- Node21&#45;&gt;Node13 -->
<g id="edge86" class="edge"><title>Node21&#45;&gt;Node13</title>
<path fill="none" stroke="midnightblue" d="M1380.76,-68.4142C1564.56,-66.0474 2195.71,-55.7194 2417.76,-21.8111"/>
<polygon fill="midnightblue" stroke="midnightblue" points="2418.37,-25.2568 2427.7,-20.2308 2417.28,-18.3435 2418.37,-25.2568"/>
</g>
<!-- Node21&#45;&gt;Node14 -->
<g id="edge76" class="edge"><title>Node21&#45;&gt;Node14</title>
<path fill="none" stroke="midnightblue" d="M1380.7,-67.6218C1545.33,-62.9618 2064.71,-46.7644 2253.79,-21.9032"/>
<polygon fill="midnightblue" stroke="midnightblue" points="2254.46,-25.3451 2263.89,-20.5221 2253.51,-18.4097 2254.46,-25.3451"/>
</g>
<!-- Node21&#45;&gt;Node16 -->
<g id="edge50" class="edge"><title>Node21&#45;&gt;Node16</title>
<path fill="none" stroke="midnightblue" d="M1279.48,-62.8549C1263.08,-61.0469 1244.79,-59.2269 1228,-58 816.584,-27.9315 704.838,-90.3184 294.402,-21.8449"/>
<polygon fill="midnightblue" stroke="midnightblue" points="294.784,-18.3601 284.342,-20.1505 293.622,-25.2629 294.784,-18.3601"/>
</g>
<!-- Node21&#45;&gt;Node18 -->
<g id="edge54" class="edge"><title>Node21&#45;&gt;Node18</title>
<path fill="none" stroke="midnightblue" d="M1279.43,-59.6801C1274.9,-59.0355 1270.37,-58.4602 1266,-58 866.366,-15.9424 754.743,-97.2513 356.196,-21.6838"/>
<polygon fill="midnightblue" stroke="midnightblue" points="356.608,-18.199 346.127,-19.7531 355.289,-25.0738 356.608,-18.199"/>
</g>
<!-- Node21&#45;&gt;Node19 -->
<g id="edge82" class="edge"><title>Node21&#45;&gt;Node19</title>
<path fill="none" stroke="midnightblue" d="M1279.39,-64.3415C1254.07,-62.1466 1222.93,-59.6535 1195,-58 765.951,-32.6037 652.885,-72.7689 222.798,-22.047"/>
<polygon fill="midnightblue" stroke="midnightblue" points="222.923,-18.5372 212.58,-20.8318 222.096,-25.4883 222.923,-18.5372"/>
</g>
<!-- Node22 -->
<g id="node46" class="node"><title>Node22</title>
<polygon fill="white" stroke="#bfbfbf" points="450,-0.5 450,-21.5 494,-21.5 494,-0.5 450,-0.5"/>
<text text-anchor="middle" x="472" y="-8.5" font-family="Helvetica,sans-Serif" font-size="10.00">cmath</text>
</g>
<!-- Node21&#45;&gt;Node22 -->
<g id="edge48" class="edge"><title>Node21&#45;&gt;Node22</title>
<path fill="none" stroke="midnightblue" d="M1279.43,-59.7161C1274.9,-59.0638 1270.37,-58.4769 1266,-58 931.81,-21.5367 837.944,-86.1845 504.08,-21.6782"/>
<polygon fill="midnightblue" stroke="midnightblue" points="504.618,-18.2172 494.132,-19.7318 503.273,-25.0869 504.618,-18.2172"/>
</g>
<!-- Node23 -->
<g id="node49" class="node"><title>Node23</title>
<polygon fill="white" stroke="#bfbfbf" points="511.5,-0.5 511.5,-21.5 552.5,-21.5 552.5,-0.5 511.5,-0.5"/>
<text text-anchor="middle" x="532" y="-8.5" font-family="Helvetica,sans-Serif" font-size="10.00">string</text>
</g>
<!-- Node21&#45;&gt;Node23 -->
<g id="edge52" class="edge"><title>Node21&#45;&gt;Node23</title>
<path fill="none" stroke="midnightblue" d="M1279.42,-59.7343C1274.89,-59.0782 1270.37,-58.4854 1266,-58 957.526,-23.738 869.934,-85.0714 562.761,-21.8321"/>
<polygon fill="midnightblue" stroke="midnightblue" points="563.18,-18.3443 552.676,-19.7276 561.75,-25.1967 563.18,-18.3443"/>
</g>
<!-- Node24 -->
<g id="node52" class="node"><title>Node24</title>
<polygon fill="white" stroke="#bfbfbf" points="570,-0.5 570,-21.5 622,-21.5 622,-0.5 570,-0.5"/>
<text text-anchor="middle" x="596" y="-8.5" font-family="Helvetica,sans-Serif" font-size="10.00">sstream</text>
</g>
<!-- Node21&#45;&gt;Node24 -->
<g id="edge56" class="edge"><title>Node21&#45;&gt;Node24</title>
<path fill="none" stroke="midnightblue" d="M1279.42,-59.7608C1274.89,-59.0989 1270.37,-58.4976 1266,-58 988.432,-26.382 910.89,-71.6811 632.197,-21.8143"/>
<polygon fill="midnightblue" stroke="midnightblue" points="632.662,-18.3415 622.197,-19.9999 631.412,-25.229 632.662,-18.3415"/>
</g>
<!-- Node25 -->
<g id="node54" class="node"><title>Node25</title>
<polygon fill="white" stroke="#bfbfbf" points="639.5,-0.5 639.5,-21.5 754.5,-21.5 754.5,-0.5 639.5,-0.5"/>
<text text-anchor="middle" x="697" y="-8.5" font-family="Helvetica,sans-Serif" font-size="10.00">yarp/os/BufferedPort.h</text>
</g>
<!-- Node21&#45;&gt;Node25 -->
<g id="edge58" class="edge"><title>Node21&#45;&gt;Node25</title>
<path fill="none" stroke="midnightblue" d="M1279.41,-59.8305C1274.89,-59.1538 1270.36,-58.53 1266,-58 1046.77,-31.3802 987.294,-47.95 764.589,-22.0987"/>
<polygon fill="midnightblue" stroke="midnightblue" points="764.888,-18.6098 754.547,-20.9174 764.07,-25.5619 764.888,-18.6098"/>
</g>
<!-- Node26 -->
<g id="node56" class="node"><title>Node26</title>
<polygon fill="white" stroke="#bfbfbf" points="772,-0.5 772,-21.5 858,-21.5 858,-0.5 772,-0.5"/>
<text text-anchor="middle" x="815" y="-8.5" font-family="Helvetica,sans-Serif" font-size="10.00">yarp/os/Bottle.h</text>
</g>
<!-- Node21&#45;&gt;Node26 -->
<g id="edge60" class="edge"><title>Node21&#45;&gt;Node26</title>
<path fill="none" stroke="midnightblue" d="M1279.4,-59.9176C1274.88,-59.2223 1270.36,-58.5704 1266,-58 1092.64,-35.3184 1044.79,-47.9929 867.952,-21.9938"/>
<polygon fill="midnightblue" stroke="midnightblue" points="868.466,-18.5317 858.059,-20.519 867.433,-25.4552 868.466,-18.5317"/>
</g>
<!-- Node27 -->
<g id="node58" class="node"><title>Node27</title>
<polygon fill="white" stroke="#bfbfbf" points="875.5,-0.5 875.5,-21.5 986.5,-21.5 986.5,-0.5 875.5,-0.5"/>
<text text-anchor="middle" x="931" y="-8.5" font-family="Helvetica,sans-Serif" font-size="10.00">yarp/os/RateThread.h</text>
</g>
<!-- Node21&#45;&gt;Node27 -->
<g id="edge62" class="edge"><title>Node21&#45;&gt;Node27</title>
<path fill="none" stroke="midnightblue" d="M1279.37,-60.1151C1274.85,-59.3776 1270.35,-58.662 1266,-58 1149.05,-40.1883 1116.8,-40.2762 996.775,-22.231"/>
<polygon fill="midnightblue" stroke="midnightblue" points="997.239,-18.7613 986.827,-20.7243 996.19,-25.6824 997.239,-18.7613"/>
</g>
<!-- Node28 -->
<g id="node60" class="node"><title>Node28</title>
<polygon fill="white" stroke="#bfbfbf" points="1003.5,-0.5 1003.5,-21.5 1132.5,-21.5 1132.5,-0.5 1003.5,-0.5"/>
<text text-anchor="middle" x="1068" y="-8.5" font-family="Helvetica,sans-Serif" font-size="10.00">yarp/os/ResourceFinder.h</text>
</g>
<!-- Node21&#45;&gt;Node28 -->
<g id="edge64" class="edge"><title>Node21&#45;&gt;Node28</title>
<path fill="none" stroke="midnightblue" d="M1282.55,-58.4966C1238.45,-48.7341 1172.67,-34.1718 1125.58,-23.7474"/>
<polygon fill="midnightblue" stroke="midnightblue" points="1126.06,-20.2673 1115.54,-21.5231 1124.54,-27.1018 1126.06,-20.2673"/>
</g>
<!-- Node29 -->
<g id="node62" class="node"><title>Node29</title>
<polygon fill="white" stroke="#bfbfbf" points="1150,-0.5 1150,-21.5 1260,-21.5 1260,-0.5 1150,-0.5"/>
<text text-anchor="middle" x="1205" y="-8.5" font-family="Helvetica,sans-Serif" font-size="10.00">yarp/os/PortReader.h</text>
</g>
<!-- Node21&#45;&gt;Node29 -->
<g id="edge66" class="edge"><title>Node21&#45;&gt;Node29</title>
<path fill="none" stroke="midnightblue" d="M1307.36,-58.4966C1287.75,-49.397 1259.15,-36.1273 1237.17,-25.9253"/>
<polygon fill="midnightblue" stroke="midnightblue" points="1238.43,-22.6554 1227.89,-21.6212 1235.49,-29.0051 1238.43,-22.6554"/>
</g>
<!-- Node30 -->
<g id="node64" class="node"><title>Node30</title>
<polygon fill="white" stroke="#bfbfbf" points="1278,-0.5 1278,-21.5 1382,-21.5 1382,-0.5 1278,-0.5"/>
<text text-anchor="middle" x="1330" y="-8.5" font-family="Helvetica,sans-Serif" font-size="10.00">yarp/os/RpcClient.h</text>
</g>
<!-- Node21&#45;&gt;Node30 -->
<g id="edge68" class="edge"><title>Node21&#45;&gt;Node30</title>
<path fill="none" stroke="midnightblue" d="M1330,-58.3619C1330,-50.9219 1330,-40.7427 1330,-31.7276"/>
<polygon fill="midnightblue" stroke="midnightblue" points="1333.5,-31.5706 1330,-21.5707 1326.5,-31.5707 1333.5,-31.5706"/>
</g>
<!-- Node31 -->
<g id="node66" class="node"><title>Node31</title>
<polygon fill="white" stroke="#bfbfbf" points="1399.5,-0.5 1399.5,-21.5 1506.5,-21.5 1506.5,-0.5 1399.5,-0.5"/>
<text text-anchor="middle" x="1453" y="-8.5" font-family="Helvetica,sans-Serif" font-size="10.00">yarp/os/RpcServer.h</text>
</g>
<!-- Node21&#45;&gt;Node31 -->
<g id="edge70" class="edge"><title>Node21&#45;&gt;Node31</title>
<path fill="none" stroke="midnightblue" d="M1352.27,-58.4966C1371.57,-49.397 1399.71,-36.1273 1421.35,-25.9253"/>
<polygon fill="midnightblue" stroke="midnightblue" points="1422.92,-29.052 1430.48,-21.6212 1419.94,-22.7206 1422.92,-29.052"/>
</g>
<!-- Node32 -->
<g id="node68" class="node"><title>Node32</title>
<polygon fill="white" stroke="#bfbfbf" points="1523.5,-0.5 1523.5,-21.5 1664.5,-21.5 1664.5,-0.5 1523.5,-0.5"/>
<text text-anchor="middle" x="1594" y="-8.5" font-family="Helvetica,sans-Serif" font-size="10.00">yarp/os/ConnectionReader.h</text>
</g>
<!-- Node21&#45;&gt;Node32 -->
<g id="edge72" class="edge"><title>Node21&#45;&gt;Node32</title>
<path fill="none" stroke="midnightblue" d="M1377.81,-58.4966C1422.34,-48.7136 1488.81,-34.1107 1536.28,-23.6819"/>
<polygon fill="midnightblue" stroke="midnightblue" points="1537.09,-27.0874 1546.1,-21.5231 1535.58,-20.2505 1537.09,-27.0874"/>
</g>
<!-- Node33 -->
<g id="node70" class="node"><title>Node33</title>
<polygon fill="white" stroke="#bfbfbf" points="1682,-0.5 1682,-21.5 1764,-21.5 1764,-0.5 1682,-0.5"/>
<text text-anchor="middle" x="1723" y="-8.5" font-family="Helvetica,sans-Serif" font-size="10.00">yarp/os/Time.h</text>
</g>
<!-- Node21&#45;&gt;Node33 -->
<g id="edge74" class="edge"><title>Node21&#45;&gt;Node33</title>
<path fill="none" stroke="midnightblue" d="M1380.76,-63.3376C1445.92,-55.7827 1562.65,-41.2835 1671.97,-22.0789"/>
<polygon fill="midnightblue" stroke="midnightblue" points="1672.62,-25.5198 1681.85,-20.3273 1671.39,-18.6274 1672.62,-25.5198"/>
</g>
<!-- Node34 -->
<g id="node73" class="node"><title>Node34</title>
<polygon fill="white" stroke="#bfbfbf" points="1781.5,-0.5 1781.5,-21.5 1888.5,-21.5 1888.5,-0.5 1781.5,-0.5"/>
<text text-anchor="middle" x="1835" y="-8.5" font-family="Helvetica,sans-Serif" font-size="10.00">yarp/os/LogStream.h</text>
</g>
<!-- Node21&#45;&gt;Node34 -->
<g id="edge78" class="edge"><title>Node21&#45;&gt;Node34</title>
<path fill="none" stroke="midnightblue" d="M1380.63,-64.7881C1461.22,-57.8304 1623.82,-42.7546 1771.14,-22.1957"/>
<polygon fill="midnightblue" stroke="midnightblue" points="1771.85,-25.6297 1781.27,-20.7699 1770.88,-18.698 1771.85,-25.6297"/>
</g>
<!-- Node35 -->
<g id="node75" class="node"><title>Node35</title>
<polygon fill="white" stroke="#bfbfbf" points="1905.5,-0.5 1905.5,-21.5 2002.5,-21.5 2002.5,-0.5 1905.5,-0.5"/>
<text text-anchor="middle" x="1954" y="-8.5" font-family="Helvetica,sans-Serif" font-size="10.00">yarp/os/Property.h</text>
</g>
<!-- Node21&#45;&gt;Node35 -->
<g id="edge80" class="edge"><title>Node21&#45;&gt;Node35</title>
<path fill="none" stroke="midnightblue" d="M1380.64,-66.6396C1478.32,-61.6884 1699.67,-48.5342 1895.07,-22.1566"/>
<polygon fill="midnightblue" stroke="midnightblue" points="1895.81,-25.5891 1905.24,-20.7687 1894.86,-18.6534 1895.81,-25.5891"/>
</g>
<!-- Node36 -->
<g id="node78" class="node"><title>Node36</title>
<polygon fill="white" stroke="#bfbfbf" points="2019.5,-0.5 2019.5,-21.5 2108.5,-21.5 2108.5,-0.5 2019.5,-0.5"/>
<text text-anchor="middle" x="2064" y="-8.5" font-family="Helvetica,sans-Serif" font-size="10.00">yarp/sig/Matrix.h</text>
</g>
<!-- Node21&#45;&gt;Node36 -->
<g id="edge84" class="edge"><title>Node21&#45;&gt;Node36</title>
<path fill="none" stroke="midnightblue" d="M1380.65,-67.8532C1492.49,-64.8148 1769.08,-54.5233 2009.29,-22.0934"/>
<polygon fill="midnightblue" stroke="midnightblue" points="2009.82,-25.5532 2019.25,-20.732 2008.87,-18.6176 2009.82,-25.5532"/>
</g>
<!-- Node37 -->
<g id="node82" class="node"><title>Node37</title>
<polygon fill="white" stroke="#bfbfbf" points="2125.5,-0.5 2125.5,-21.5 2246.5,-21.5 2246.5,-0.5 2125.5,-0.5"/>
<text text-anchor="middle" x="2186" y="-8.5" font-family="Helvetica,sans-Serif" font-size="10.00">ocra/util/StringUtilities.h</text>
</g>
<!-- Node21&#45;&gt;Node37 -->
<g id="edge90" class="edge"><title>Node21&#45;&gt;Node37</title>
<path fill="none" stroke="midnightblue" d="M1380.79,-67.6993C1504.66,-64.1547 1832.31,-52.5414 2115.41,-22.0875"/>
<polygon fill="midnightblue" stroke="midnightblue" points="2115.9,-25.5552 2125.46,-20.9962 2115.14,-18.5961 2115.9,-25.5552"/>
</g>
<!-- Node38 -->
<g id="node85" class="node"><title>Node38</title>
<polygon fill="white" stroke="#bfbfbf" points="364,-0.5 364,-21.5 432,-21.5 432,-0.5 364,-0.5"/>
<text text-anchor="middle" x="398" y="-8.5" font-family="Helvetica,sans-Serif" font-size="10.00">Eigen/Lgsm</text>
</g>
<!-- Node21&#45;&gt;Node38 -->
<g id="edge94" class="edge"><title>Node21&#45;&gt;Node38</title>
<path fill="none" stroke="midnightblue" d="M1279.43,-59.6994C1274.9,-59.0507 1270.37,-58.4692 1266,-58 904.376,-19.1907 805.831,-74.7459 442.149,-21.8844"/>
<polygon fill="midnightblue" stroke="midnightblue" points="442.54,-18.4043 432.138,-20.4116 441.522,-25.3298 442.54,-18.4043"/>
</g>
<!-- Node41&#45;&gt;Node40 -->
<g id="edge108" class="edge"><title>Node41&#45;&gt;Node40</title>
<path fill="none" stroke="midnightblue" d="M2389.65,-232.362C2382.46,-224.186 2372.36,-212.702 2363.91,-203.091"/>
<polygon fill="midnightblue" stroke="midnightblue" points="2366.53,-200.769 2357.29,-195.571 2361.27,-205.392 2366.53,-200.769"/>
</g>
<!-- Node42 -->
<g id="node95" class="node"><title>Node42</title>
<polygon fill="white" stroke="#bfbfbf" points="2417.5,-174.5 2417.5,-195.5 2572.5,-195.5 2572.5,-174.5 2417.5,-174.5"/>
<text text-anchor="middle" x="2495" y="-182.5" font-family="Helvetica,sans-Serif" font-size="10.00">ocra&#45;recipes/TrajectoryThread.h</text>
</g>
<!-- Node41&#45;&gt;Node42 -->
<g id="edge106" class="edge"><title>Node41&#45;&gt;Node42</title>
<path fill="none" stroke="midnightblue" d="M2416.61,-232.362C2431.22,-223.532 2452.22,-210.844 2468.81,-200.822"/>
<polygon fill="midnightblue" stroke="midnightblue" points="2470.75,-203.738 2477.5,-195.571 2467.13,-197.746 2470.75,-203.738"/>
</g>
</g>
</svg>
