<?xml version="1.0" encoding="UTF-8" standalone="no"?>
<!DOCTYPE svg PUBLIC "-//W3C//DTD SVG 1.1//EN"
 "http://www.w3.org/Graphics/SVG/1.1/DTD/svg11.dtd">
<!-- Generated by graphviz version 2.26.3 (20100126.1600)
 -->
<!-- Title: G Pages: 1 -->
<svg width="586pt" height="204pt"
 viewBox="0.00 0.00 586.00 204.00" xmlns="http://www.w3.org/2000/svg" xmlns:xlink="http://www.w3.org/1999/xlink">
<g id="graph1" class="graph" transform="scale(1 1) rotate(0) translate(4 200)">
<title>G</title>
<polygon fill="white" stroke="white" points="-4,5 -4,-200 583,-200 583,5 -4,5"/>
<!-- Node1 -->
<g id="node1" class="node"><title>Node1</title>
<polygon fill="#bfbfbf" stroke="black" points="78,-174.5 78,-195.5 500,-195.5 500,-174.5 78,-174.5"/>
<text text-anchor="middle" x="289" y="-182.5" font-family="Helvetica,sans-Serif" font-size="10.00">ocra&#45;wbi&#45;plugins/ocra&#45;icub&#45;clients/walking&#45;client/include/walking&#45;client/constraints/Bounding.h</text>
</g>
<!-- Node2 -->
<g id="node3" class="node"><title>Node2</title>
<a xlink:href="Constraint_8h.html" target="_top" xlink:title="A constraint base class.">
<polygon fill="white" stroke="black" points="197.5,-116.5 197.5,-137.5 380.5,-137.5 380.5,-116.5 197.5,-116.5"/>
<text text-anchor="middle" x="289" y="-124.5" font-family="Helvetica,sans-Serif" font-size="10.00">walking&#45;client/constraints/Constraint.h</text>
</a>
</g>
<!-- Node1&#45;&gt;Node2 -->
<g id="edge2" class="edge"><title>Node1&#45;&gt;Node2</title>
<path fill="none" stroke="midnightblue" d="M289,-174.362C289,-166.922 289,-156.743 289,-147.728"/>
<polygon fill="midnightblue" stroke="midnightblue" points="292.5,-147.571 289,-137.571 285.5,-147.571 292.5,-147.571"/>
</g>
<!-- Node3 -->
<g id="node5" class="node"><title>Node3</title>
<a xlink:href="utils_8h.html" target="_top" xlink:title="walking&#45;client/utils.h">
<polygon fill="white" stroke="black" points="-0.5,-58.5 -0.5,-79.5 104.5,-79.5 104.5,-58.5 -0.5,-58.5"/>
<text text-anchor="middle" x="52" y="-66.5" font-family="Helvetica,sans-Serif" font-size="10.00">walking&#45;client/utils.h</text>
</a>
</g>
<!-- Node2&#45;&gt;Node3 -->
<g id="edge4" class="edge"><title>Node2&#45;&gt;Node3</title>
<path fill="none" stroke="midnightblue" d="M246.081,-116.497C206.44,-106.795 147.432,-92.3547 104.894,-81.9445"/>
<polygon fill="midnightblue" stroke="midnightblue" points="105.545,-78.5006 94.9994,-79.5231 103.881,-85.2999 105.545,-78.5006"/>
</g>
<!-- Node5 -->
<g id="node9" class="node"><title>Node5</title>
<polygon fill="white" stroke="#bfbfbf" points="121.5,-58.5 121.5,-79.5 186.5,-79.5 186.5,-58.5 121.5,-58.5"/>
<text text-anchor="middle" x="154" y="-66.5" font-family="Helvetica,sans-Serif" font-size="10.00">Eigen/Core</text>
</g>
<!-- Node2&#45;&gt;Node5 -->
<g id="edge8" class="edge"><title>Node2&#45;&gt;Node5</title>
<path fill="none" stroke="midnightblue" d="M264.553,-116.497C243.182,-107.315 211.931,-93.8889 188.103,-83.6516"/>
<polygon fill="midnightblue" stroke="midnightblue" points="189.291,-80.3529 178.722,-79.6212 186.528,-86.7845 189.291,-80.3529"/>
</g>
<!-- Node6 -->
<g id="node11" class="node"><title>Node6</title>
<polygon fill="white" stroke="#bfbfbf" points="204,-58.5 204,-79.5 374,-79.5 374,-58.5 204,-58.5"/>
<text text-anchor="middle" x="289" y="-66.5" font-family="Helvetica,sans-Serif" font-size="10.00">unsupported/Eigen/MatrixFunctions</text>
</g>
<!-- Node2&#45;&gt;Node6 -->
<g id="edge10" class="edge"><title>Node2&#45;&gt;Node6</title>
<path fill="none" stroke="midnightblue" d="M289,-116.362C289,-108.922 289,-98.7427 289,-89.7276"/>
<polygon fill="midnightblue" stroke="midnightblue" points="292.5,-89.5706 289,-79.5707 285.5,-89.5707 292.5,-89.5706"/>
</g>
<!-- Node7 -->
<g id="node13" class="node"><title>Node7</title>
<polygon fill="white" stroke="#bfbfbf" points="391.5,-58.5 391.5,-79.5 508.5,-79.5 508.5,-58.5 391.5,-58.5"/>
<text text-anchor="middle" x="450" y="-66.5" font-family="Helvetica,sans-Serif" font-size="10.00">ocra/util/ErrorsHelper.h</text>
</g>
<!-- Node2&#45;&gt;Node7 -->
<g id="edge12" class="edge"><title>Node2&#45;&gt;Node7</title>
<path fill="none" stroke="midnightblue" d="M318.156,-116.497C344.176,-107.123 382.479,-93.3242 411.104,-83.0122"/>
<polygon fill="midnightblue" stroke="midnightblue" points="412.568,-86.2052 420.789,-79.5231 410.195,-79.6195 412.568,-86.2052"/>
</g>
<!-- Node8 -->
<g id="node15" class="node"><title>Node8</title>
<polygon fill="white" stroke="#bfbfbf" points="526,-58.5 526,-79.5 578,-79.5 578,-58.5 526,-58.5"/>
<text text-anchor="middle" x="552" y="-66.5" font-family="Helvetica,sans-Serif" font-size="10.00">memory</text>
</g>
<!-- Node2&#45;&gt;Node8 -->
<g id="edge14" class="edge"><title>Node2&#45;&gt;Node8</title>
<path fill="none" stroke="midnightblue" d="M348.43,-116.456C392.316,-108.281 453.662,-96.0412 515.742,-80.157"/>
<polygon fill="midnightblue" stroke="midnightblue" points="516.906,-83.4712 525.709,-77.5765 515.151,-76.6947 516.906,-83.4712"/>
</g>
<!-- Node4 -->
<g id="node7" class="node"><title>Node4</title>
<polygon fill="white" stroke="#bfbfbf" points="31.5,-0.5 31.5,-21.5 72.5,-21.5 72.5,-0.5 31.5,-0.5"/>
<text text-anchor="middle" x="52" y="-8.5" font-family="Helvetica,sans-Serif" font-size="10.00">string</text>
</g>
<!-- Node3&#45;&gt;Node4 -->
<g id="edge6" class="edge"><title>Node3&#45;&gt;Node4</title>
<path fill="none" stroke="midnightblue" d="M52,-58.3619C52,-50.9219 52,-40.7427 52,-31.7276"/>
<polygon fill="midnightblue" stroke="midnightblue" points="55.5001,-31.5706 52,-21.5707 48.5001,-31.5707 55.5001,-31.5706"/>
</g>
</g>
</svg>
