<?xml version="1.0" encoding="UTF-8" standalone="no"?>
<!DOCTYPE svg PUBLIC "-//W3C//DTD SVG 1.1//EN"
 "http://www.w3.org/Graphics/SVG/1.1/DTD/svg11.dtd">
<!-- Generated by graphviz version 2.26.3 (20100126.1600)
 -->
<!-- Title: G Pages: 1 -->
<svg width="248pt" height="102pt"
 viewBox="0.00 0.00 248.00 102.00" xmlns="http://www.w3.org/2000/svg" xmlns:xlink="http://www.w3.org/1999/xlink">
<g id="graph1" class="graph" transform="scale(1 1) rotate(0) translate(4 98)">
<title>G</title>
<polygon fill="white" stroke="white" points="-4,5 -4,-98 245,-98 245,5 -4,5"/>
<!-- Node1 -->
<g id="node1" class="node"><title>Node1</title>
<polygon fill="#bfbfbf" stroke="black" points="84.5,-0.5 84.5,-21.5 161.5,-21.5 161.5,-0.5 84.5,-0.5"/>
<text text-anchor="middle" x="123" y="-8.5" font-family="Helvetica,sans-Serif" font-size="10.00">WalkingClient</text>
</g>
<!-- Node2 -->
<g id="node2" class="node"><title>Node2</title>
<a xlink:href="structsingleStepTestParams.html" target="_top" xlink:title="singleStepTestParams">
<polygon fill="white" stroke="black" points="0,-72.5 0,-93.5 116,-93.5 116,-72.5 0,-72.5"/>
<text text-anchor="middle" x="58" y="-80.5" font-family="Helvetica,sans-Serif" font-size="10.00">singleStepTestParams</text>
</a>
</g>
<!-- Node2&#45;&gt;Node1 -->
<g id="edge2" class="edge"><title>Node2&#45;&gt;Node1</title>
<path fill="none" stroke="#9a32cd" stroke-dasharray="5,2" d="M54.1013,-62.2243C53.7609,-54.679 54.7445,-46.4348 59,-40 64.9887,-30.9444 74.5488,-24.6802 84.4731,-20.361"/>
<polygon fill="#9a32cd" stroke="#9a32cd" points="50.6256,-62.6365 55.2611,-72.1634 57.5784,-61.8251 50.6256,-62.6365"/>
<text text-anchor="middle" x="113" y="-44.5" font-family="Helvetica,sans-Serif" font-size="10.00"> _singleStepTestParams</text>
</g>
<!-- Node3 -->
<g id="node4" class="node"><title>Node3</title>
<a xlink:href="structMIQPParameters.html" target="_top" xlink:title="MIQPParameters">
<polygon fill="white" stroke="black" points="143,-72.5 143,-93.5 235,-93.5 235,-72.5 143,-72.5"/>
<text text-anchor="middle" x="189" y="-80.5" font-family="Helvetica,sans-Serif" font-size="10.00">MIQPParameters</text>
</a>
</g>
<!-- Node3&#45;&gt;Node1 -->
<g id="edge4" class="edge"><title>Node3&#45;&gt;Node1</title>
<path fill="none" stroke="#9a32cd" stroke-dasharray="5,2" d="M181.269,-62.7627C177.694,-55.0809 172.913,-46.6013 167,-40 160.529,-32.7766 151.874,-26.5631 143.951,-21.7616"/>
<polygon fill="#9a32cd" stroke="#9a32cd" points="178.137,-64.3414 185.268,-72.1767 184.579,-61.6042 178.137,-64.3414"/>
<text text-anchor="middle" x="208" y="-44.5" font-family="Helvetica,sans-Serif" font-size="10.00"> _miqpParams</text>
</g>
</g>
</svg>
