<?xml version="1.0" encoding="UTF-8" standalone="no"?>
<!DOCTYPE svg PUBLIC "-//W3C//DTD SVG 1.1//EN"
 "http://www.w3.org/Graphics/SVG/1.1/DTD/svg11.dtd">
<!-- Generated by graphviz version 2.26.3 (20100126.1600)
 -->
<!-- Title: G Pages: 1 -->
<svg width="528pt" height="185pt"
 viewBox="0.00 0.00 528.00 184.99" xmlns="http://www.w3.org/2000/svg" xmlns:xlink="http://www.w3.org/1999/xlink">
<g id="graph1" class="graph" transform="scale(1 1) rotate(0) translate(4 180.99)">
<title>G</title>
<polygon fill="white" stroke="white" points="-4,5 -4,-180.99 525,-180.99 525,5 -4,5"/>
<!-- Node1 -->
<g id="node1" class="node"><title>Node1</title>
<polygon fill="#bfbfbf" stroke="black" points="398,-80.5 398,-101.5 520,-101.5 520,-80.5 398,-80.5"/>
<text text-anchor="middle" x="459" y="-88.5" font-family="Helvetica,sans-Serif" font-size="10.00">AdmissibilityConstraints</text>
</g>
<!-- Node2 -->
<g id="node2" class="node"><title>Node2</title>
<a xlink:href="classConstraint.html" target="_top" xlink:title="Constraint">
<polygon fill="white" stroke="black" points="0,-80.5 0,-101.5 62,-101.5 62,-80.5 0,-80.5"/>
<text text-anchor="middle" x="31" y="-88.5" font-family="Helvetica,sans-Serif" font-size="10.00">Constraint</text>
</a>
</g>
<!-- Node2&#45;&gt;Node1 -->
<g id="edge2" class="edge"><title>Node2&#45;&gt;Node1</title>
<path fill="none" stroke="midnightblue" d="M45.5265,-109.4C58.1593,-123.8 77.8754,-142.726 100,-151 216.667,-194.631 261.553,-177.539 380,-139 405.333,-130.757 431.03,-113.022 445.966,-101.57"/>
<polygon fill="midnightblue" stroke="midnightblue" points="48.0534,-106.967 38.9422,-101.559 42.6927,-111.468 48.0534,-106.967"/>
</g>
<!-- Node3 -->
<g id="node4" class="node"><title>Node3</title>
<a xlink:href="classSSDSAlternation.html" target="_top" xlink:title="SSDSAlternation">
<polygon fill="white" stroke="black" points="122.5,-120.5 122.5,-141.5 213.5,-141.5 213.5,-120.5 122.5,-120.5"/>
<text text-anchor="middle" x="168" y="-128.5" font-family="Helvetica,sans-Serif" font-size="10.00">SSDSAlternation</text>
</a>
</g>
<!-- Node2&#45;&gt;Node3 -->
<g id="edge6" class="edge"><title>Node2&#45;&gt;Node3</title>
<path fill="none" stroke="midnightblue" d="M71.6926,-102.881C90.7383,-108.442 113.239,-115.011 131.7,-120.401"/>
<polygon fill="midnightblue" stroke="midnightblue" points="72.6676,-99.5197 62.0874,-100.077 70.7057,-106.239 72.6676,-99.5197"/>
</g>
<!-- Node4 -->
<g id="node7" class="node"><title>Node4</title>
<a xlink:href="classSingleSupport.html" target="_top" xlink:title="SingleSupport">
<polygon fill="white" stroke="black" points="129.5,-80.5 129.5,-101.5 206.5,-101.5 206.5,-80.5 129.5,-80.5"/>
<text text-anchor="middle" x="168" y="-88.5" font-family="Helvetica,sans-Serif" font-size="10.00">SingleSupport</text>
</a>
</g>
<!-- Node2&#45;&gt;Node4 -->
<g id="edge10" class="edge"><title>Node2&#45;&gt;Node4</title>
<path fill="none" stroke="midnightblue" d="M72.1103,-91C90.2963,-91 111.566,-91 129.446,-91"/>
<polygon fill="midnightblue" stroke="midnightblue" points="72.0875,-87.5001 62.0874,-91 72.0874,-94.5001 72.0875,-87.5001"/>
</g>
<!-- Node5 -->
<g id="node10" class="node"><title>Node5</title>
<a xlink:href="classContactConfigHistory.html" target="_top" xlink:title="ContactConfigHistory">
<polygon fill="white" stroke="black" points="112.5,-40.5 112.5,-61.5 223.5,-61.5 223.5,-40.5 112.5,-40.5"/>
<text text-anchor="middle" x="168" y="-48.5" font-family="Helvetica,sans-Serif" font-size="10.00">ContactConfigHistory</text>
</a>
</g>
<!-- Node2&#45;&gt;Node5 -->
<g id="edge14" class="edge"><title>Node2&#45;&gt;Node5</title>
<path fill="none" stroke="midnightblue" d="M71.6926,-79.119C90.7383,-73.5582 113.239,-66.9888 131.7,-61.5987"/>
<polygon fill="midnightblue" stroke="midnightblue" points="70.7057,-75.7609 62.0874,-81.9234 72.6676,-82.4803 70.7057,-75.7609"/>
</g>
<!-- Node6 -->
<g id="node13" class="node"><title>Node6</title>
<a xlink:href="classContactConfigEnforcement.html" target="_top" xlink:title="ContactConfigEnforcement">
<polygon fill="white" stroke="black" points="100.5,-0.5 100.5,-21.5 235.5,-21.5 235.5,-0.5 100.5,-0.5"/>
<text text-anchor="middle" x="168" y="-8.5" font-family="Helvetica,sans-Serif" font-size="10.00">ContactConfigEnforcement</text>
</a>
</g>
<!-- Node2&#45;&gt;Node6 -->
<g id="edge18" class="edge"><title>Node2&#45;&gt;Node6</title>
<path fill="none" stroke="midnightblue" d="M47.6107,-72.8385C60.6817,-59.5362 79.9791,-41.9608 100,-31 106.8,-27.2771 114.372,-24.1754 121.923,-21.6145"/>
<polygon fill="midnightblue" stroke="midnightblue" points="45.0548,-70.4471 40.6757,-80.0946 50.1153,-75.2836 45.0548,-70.4471"/>
</g>
<!-- Node3&#45;&gt;Node1 -->
<g id="edge4" class="edge"><title>Node3&#45;&gt;Node1</title>
<path fill="none" stroke="#9a32cd" stroke-dasharray="5,2" d="M223.869,-126.015C266.721,-121.868 327.269,-115.309 380,-107 389.814,-105.454 400.262,-103.534 410.236,-101.568"/>
<polygon fill="#9a32cd" stroke="#9a32cd" points="223.267,-122.557 213.645,-126.992 223.932,-129.525 223.267,-122.557"/>
<text text-anchor="middle" x="317" y="-126" font-family="Helvetica,sans-Serif" font-size="10.00"> _ssdsAlternation</text>
</g>
<!-- Node4&#45;&gt;Node1 -->
<g id="edge8" class="edge"><title>Node4&#45;&gt;Node1</title>
<path fill="none" stroke="#9a32cd" stroke-dasharray="5,2" d="M216.831,-91C266.625,-91 344.005,-91 397.847,-91"/>
<polygon fill="#9a32cd" stroke="#9a32cd" points="216.643,-87.5001 206.643,-91 216.643,-94.5001 216.643,-87.5001"/>
<text text-anchor="middle" x="317" y="-95" font-family="Helvetica,sans-Serif" font-size="10.00"> _singleSupport</text>
</g>
<!-- Node5&#45;&gt;Node1 -->
<g id="edge12" class="edge"><title>Node5&#45;&gt;Node1</title>
<path fill="none" stroke="#9a32cd" stroke-dasharray="5,2" d="M233.662,-56.3504C275.657,-60.2095 331.21,-66.1257 380,-74 391.08,-75.7882 402.95,-78.119 414.034,-80.4785"/>
<polygon fill="#9a32cd" stroke="#9a32cd" points="233.836,-52.852 223.562,-55.4379 233.206,-59.8236 233.836,-52.852"/>
<text text-anchor="middle" x="317" y="-78" font-family="Helvetica,sans-Serif" font-size="10.00"> _contactConfigHistory</text>
</g>
<!-- Node6&#45;&gt;Node1 -->
<g id="edge16" class="edge"><title>Node6&#45;&gt;Node1</title>
<path fill="none" stroke="#9a32cd" stroke-dasharray="5,2" d="M245.852,-14.1334C286.793,-17.7241 337.225,-25.2682 380,-41 405.441,-50.3564 431.308,-68.7833 446.219,-80.4648"/>
<polygon fill="#9a32cd" stroke="#9a32cd" points="245.909,-10.6266 235.658,-13.3032 245.34,-17.6035 245.909,-10.6266"/>
<text text-anchor="middle" x="317" y="-45" font-family="Helvetica,sans-Serif" font-size="10.00"> _contactConfigEnforcement</text>
</g>
</g>
</svg>
