<?xml version="1.0" encoding="UTF-8" standalone="no"?>
<!DOCTYPE svg PUBLIC "-//W3C//DTD SVG 1.1//EN"
 "http://www.w3.org/Graphics/SVG/1.1/DTD/svg11.dtd">
<!-- Generated by graphviz version 2.26.3 (20100126.1600)
 -->
<!-- Title: G Pages: 1 -->
<svg width="248pt" height="162pt"
 viewBox="0.00 0.00 247.58 162.00" xmlns="http://www.w3.org/2000/svg" xmlns:xlink="http://www.w3.org/1999/xlink">
<g id="graph1" class="graph" transform="scale(1 1) rotate(0) translate(4 158)">
<title>G</title>
<polygon fill="white" stroke="white" points="-4,5 -4,-158 244.58,-158 244.58,5 -4,5"/>
<!-- Node1 -->
<g id="node1" class="node"><title>Node1</title>
<polygon fill="#bfbfbf" stroke="black" points="31.08,-0.5 31.08,-21.5 126.08,-21.5 126.08,-0.5 31.08,-0.5"/>
<text text-anchor="middle" x="78.58" y="-8.5" font-family="Helvetica,sans-Serif" font-size="10.00">ShapeConstraints</text>
</g>
<!-- Node2 -->
<g id="node2" class="node"><title>Node2</title>
<a xlink:href="classConstraint.html" target="_top" xlink:title="Constraint">
<polygon fill="white" stroke="black" points="46.58,-132.5 46.58,-153.5 108.58,-153.5 108.58,-132.5 46.58,-132.5"/>
<text text-anchor="middle" x="77.58" y="-140.5" font-family="Helvetica,sans-Serif" font-size="10.00">Constraint</text>
</a>
</g>
<!-- Node2&#45;&gt;Node1 -->
<g id="edge2" class="edge"><title>Node2&#45;&gt;Node1</title>
<path fill="none" stroke="midnightblue" d="M41.3624,-127.828C17.3868,-115.283 -7.87036,-95.7145 2.58003,-72 12.8822,-48.6218 37.4726,-31.5998 55.9113,-21.5692"/>
<polygon fill="midnightblue" stroke="midnightblue" points="39.8942,-131.006 50.4115,-132.286 42.9878,-124.727 39.8942,-131.006"/>
</g>
<!-- Node3 -->
<g id="node4" class="node"><title>Node3</title>
<a xlink:href="classBounding.html" target="_top" xlink:title="Bounding">
<polygon fill="white" stroke="black" points="11.08,-72.5 11.08,-93.5 68.08,-93.5 68.08,-72.5 11.08,-72.5"/>
<text text-anchor="middle" x="39.58" y="-80.5" font-family="Helvetica,sans-Serif" font-size="10.00">Bounding</text>
</a>
</g>
<!-- Node2&#45;&gt;Node3 -->
<g id="edge6" class="edge"><title>Node2&#45;&gt;Node3</title>
<path fill="none" stroke="midnightblue" d="M65.4029,-123.773C59.0798,-113.789 51.5942,-101.97 46.3149,-93.6339"/>
<polygon fill="midnightblue" stroke="midnightblue" points="62.479,-125.698 70.7864,-132.273 68.3927,-121.952 62.479,-125.698"/>
</g>
<!-- Node4 -->
<g id="node7" class="node"><title>Node4</title>
<a xlink:href="classConstancy.html" target="_top" xlink:title="Constancy">
<polygon fill="white" stroke="black" points="85.58,-72.5 85.58,-93.5 149.58,-93.5 149.58,-72.5 85.58,-72.5"/>
<text text-anchor="middle" x="117.58" y="-80.5" font-family="Helvetica,sans-Serif" font-size="10.00">Constancy</text>
</a>
</g>
<!-- Node2&#45;&gt;Node4 -->
<g id="edge10" class="edge"><title>Node2&#45;&gt;Node4</title>
<path fill="none" stroke="midnightblue" d="M90.398,-123.773C97.0539,-113.789 104.934,-101.97 110.491,-93.6339"/>
<polygon fill="midnightblue" stroke="midnightblue" points="87.3661,-122.011 84.7312,-132.273 93.1905,-125.894 87.3661,-122.011"/>
</g>
<!-- Node5 -->
<g id="node10" class="node"><title>Node5</title>
<a xlink:href="classSequentiality.html" target="_top" xlink:title="Sequentiality">
<polygon fill="white" stroke="black" points="167.08,-72.5 167.08,-93.5 240.08,-93.5 240.08,-72.5 167.08,-72.5"/>
<text text-anchor="middle" x="203.58" y="-80.5" font-family="Helvetica,sans-Serif" font-size="10.00">Sequentiality</text>
</a>
</g>
<!-- Node2&#45;&gt;Node5 -->
<g id="edge14" class="edge"><title>Node2&#45;&gt;Node5</title>
<path fill="none" stroke="midnightblue" d="M108.941,-128.066C131.379,-117.381 161.049,-103.253 181.142,-93.6846"/>
<polygon fill="midnightblue" stroke="midnightblue" points="107.34,-124.952 99.8163,-132.411 110.35,-131.272 107.34,-124.952"/>
</g>
<!-- Node3&#45;&gt;Node1 -->
<g id="edge4" class="edge"><title>Node3&#45;&gt;Node1</title>
<path fill="none" stroke="#9a32cd" stroke-dasharray="5,2" d="M39.5196,-62.4145C40.2356,-54.9896 41.9285,-46.7766 45.58,-40 49.4874,-32.7485 55.9712,-26.4541 62.1622,-21.5998"/>
<polygon fill="#9a32cd" stroke="#9a32cd" points="36.0203,-62.319 39.0553,-72.4698 43.0129,-62.6419 36.0203,-62.319"/>
<text text-anchor="middle" x="69.58" y="-44.5" font-family="Helvetica,sans-Serif" font-size="10.00"> _bounding</text>
</g>
<!-- Node4&#45;&gt;Node1 -->
<g id="edge8" class="edge"><title>Node4&#45;&gt;Node1</title>
<path fill="none" stroke="#9a32cd" stroke-dasharray="5,2" d="M106.974,-63.4193C99.6906,-49.9734 90.3008,-32.6384 84.3582,-21.6674"/>
<polygon fill="#9a32cd" stroke="#9a32cd" points="103.985,-65.2502 111.825,-72.3762 110.14,-61.9162 103.985,-65.2502"/>
<text text-anchor="middle" x="127.58" y="-44.5" font-family="Helvetica,sans-Serif" font-size="10.00"> _constancy</text>
</g>
<!-- Node5&#45;&gt;Node1 -->
<g id="edge12" class="edge"><title>Node5&#45;&gt;Node1</title>
<path fill="none" stroke="#9a32cd" stroke-dasharray="5,2" d="M187.628,-64.5656C179.594,-56.1704 169.296,-46.6475 158.58,-40 146.026,-32.2125 131.073,-26.084 117.51,-21.5066"/>
<polygon fill="#9a32cd" stroke="#9a32cd" points="185.236,-67.1363 194.576,-72.1384 190.394,-62.4038 185.236,-67.1363"/>
<text text-anchor="middle" x="207.58" y="-44.5" font-family="Helvetica,sans-Serif" font-size="10.00"> _sequentiality</text>
</g>
</g>
</svg>
