<?xml version="1.0" encoding="UTF-8" standalone="no"?>
<!DOCTYPE svg PUBLIC "-//W3C//DTD SVG 1.1//EN"
 "http://www.w3.org/Graphics/SVG/1.1/DTD/svg11.dtd">
<!-- Generated by graphviz version 2.26.3 (20100126.1600)
 -->
<!-- Title: G Pages: 1 -->
<svg width="242pt" height="350pt"
 viewBox="0.00 0.00 242.00 350.00" xmlns="http://www.w3.org/2000/svg" xmlns:xlink="http://www.w3.org/1999/xlink">
<g id="graph1" class="graph" transform="scale(1 1) rotate(0) translate(4 346)">
<title>G</title>
<polygon fill="white" stroke="white" points="-4,5 -4,-346 239,-346 239,5 -4,5"/>
<!-- Node1 -->
<g id="node1" class="node"><title>Node1</title>
<polygon fill="#bfbfbf" stroke="black" points="0,-160.5 0,-181.5 62,-181.5 62,-160.5 0,-160.5"/>
<text text-anchor="middle" x="31" y="-168.5" font-family="Helvetica,sans-Serif" font-size="10.00">Constraint</text>
</g>
<!-- Node2 -->
<g id="node3" class="node"><title>Node2</title>
<a xlink:href="classAdmissibilityConstraints.html" target="_top" xlink:title="AdmissibilityConstraints">
<polygon fill="white" stroke="black" points="105,-320.5 105,-341.5 227,-341.5 227,-320.5 105,-320.5"/>
<text text-anchor="middle" x="166" y="-328.5" font-family="Helvetica,sans-Serif" font-size="10.00">AdmissibilityConstraints</text>
</a>
</g>
<!-- Node1&#45;&gt;Node2 -->
<g id="edge2" class="edge"><title>Node1&#45;&gt;Node2</title>
<path fill="none" stroke="midnightblue" d="M35.2358,-191.52C42.6098,-222.058 60.7218,-279.265 98,-311 102.498,-314.829 107.699,-317.925 113.183,-320.429"/>
<polygon fill="midnightblue" stroke="midnightblue" points="38.6062,-190.555 32.9892,-181.572 31.7781,-192.097 38.6062,-190.555"/>
</g>
<!-- Node3 -->
<g id="node5" class="node"><title>Node3</title>
<a xlink:href="classBounding.html" target="_top" xlink:title="Bounding">
<polygon fill="white" stroke="black" points="137.5,-280.5 137.5,-301.5 194.5,-301.5 194.5,-280.5 137.5,-280.5"/>
<text text-anchor="middle" x="166" y="-288.5" font-family="Helvetica,sans-Serif" font-size="10.00">Bounding</text>
</a>
</g>
<!-- Node1&#45;&gt;Node3 -->
<g id="edge4" class="edge"><title>Node1&#45;&gt;Node3</title>
<path fill="none" stroke="midnightblue" d="M39.2322,-190.866C49.6331,-213.548 69.6601,-250.195 98,-271 109.407,-279.375 124.288,-284.261 137.22,-287.103"/>
<polygon fill="midnightblue" stroke="midnightblue" points="42.3601,-189.283 35.1355,-181.534 35.9505,-192.097 42.3601,-189.283"/>
</g>
<!-- Node4 -->
<g id="node7" class="node"><title>Node4</title>
<a xlink:href="classConstancy.html" target="_top" xlink:title="Constancy">
<polygon fill="white" stroke="black" points="134,-240.5 134,-261.5 198,-261.5 198,-240.5 134,-240.5"/>
<text text-anchor="middle" x="166" y="-248.5" font-family="Helvetica,sans-Serif" font-size="10.00">Constancy</text>
</a>
</g>
<!-- Node1&#45;&gt;Node4 -->
<g id="edge6" class="edge"><title>Node1&#45;&gt;Node4</title>
<path fill="none" stroke="midnightblue" d="M47.3856,-189.557C60.0198,-202.824 78.5699,-220.178 98,-231 108.965,-237.108 121.988,-241.523 133.688,-244.626"/>
<polygon fill="midnightblue" stroke="midnightblue" points="49.6857,-186.889 40.3285,-181.919 44.5445,-191.639 49.6857,-186.889"/>
</g>
<!-- Node5 -->
<g id="node9" class="node"><title>Node5</title>
<a xlink:href="classContactConfigEnforcement.html" target="_top" xlink:title="ContactConfigEnforcement">
<polygon fill="white" stroke="black" points="98.5,-200.5 98.5,-221.5 233.5,-221.5 233.5,-200.5 98.5,-200.5"/>
<text text-anchor="middle" x="166" y="-208.5" font-family="Helvetica,sans-Serif" font-size="10.00">ContactConfigEnforcement</text>
</a>
</g>
<!-- Node1&#45;&gt;Node5 -->
<g id="edge8" class="edge"><title>Node1&#45;&gt;Node5</title>
<path fill="none" stroke="midnightblue" d="M71.6016,-183.149C80.3093,-185.746 89.459,-188.469 98,-191 108.383,-194.077 119.662,-197.401 129.996,-200.44"/>
<polygon fill="midnightblue" stroke="midnightblue" points="72.5975,-179.793 62.0142,-180.286 70.5951,-186.501 72.5975,-179.793"/>
</g>
<!-- Node6 -->
<g id="node11" class="node"><title>Node6</title>
<a xlink:href="classContactConfigHistory.html" target="_top" xlink:title="ContactConfigHistory">
<polygon fill="white" stroke="black" points="110.5,-160.5 110.5,-181.5 221.5,-181.5 221.5,-160.5 110.5,-160.5"/>
<text text-anchor="middle" x="166" y="-168.5" font-family="Helvetica,sans-Serif" font-size="10.00">ContactConfigHistory</text>
</a>
</g>
<!-- Node1&#45;&gt;Node6 -->
<g id="edge10" class="edge"><title>Node1&#45;&gt;Node6</title>
<path fill="none" stroke="midnightblue" d="M72.4235,-171C84.3605,-171 97.583,-171 110.238,-171"/>
<polygon fill="midnightblue" stroke="midnightblue" points="72.3111,-167.5 62.311,-171 72.311,-174.5 72.3111,-167.5"/>
</g>
<!-- Node7 -->
<g id="node13" class="node"><title>Node7</title>
<a xlink:href="classSequentiality.html" target="_top" xlink:title="Sequentiality">
<polygon fill="white" stroke="black" points="129.5,-120.5 129.5,-141.5 202.5,-141.5 202.5,-120.5 129.5,-120.5"/>
<text text-anchor="middle" x="166" y="-128.5" font-family="Helvetica,sans-Serif" font-size="10.00">Sequentiality</text>
</a>
</g>
<!-- Node1&#45;&gt;Node7 -->
<g id="edge12" class="edge"><title>Node1&#45;&gt;Node7</title>
<path fill="none" stroke="midnightblue" d="M71.6016,-158.851C80.3093,-156.254 89.459,-153.531 98,-151 108.383,-147.923 119.662,-144.599 129.996,-141.56"/>
<polygon fill="midnightblue" stroke="midnightblue" points="70.5951,-155.499 62.0142,-161.714 72.5975,-162.207 70.5951,-155.499"/>
</g>
<!-- Node8 -->
<g id="node15" class="node"><title>Node8</title>
<a xlink:href="classShapeConstraints.html" target="_top" xlink:title="ShapeConstraints">
<polygon fill="white" stroke="black" points="118.5,-80.5 118.5,-101.5 213.5,-101.5 213.5,-80.5 118.5,-80.5"/>
<text text-anchor="middle" x="166" y="-88.5" font-family="Helvetica,sans-Serif" font-size="10.00">ShapeConstraints</text>
</a>
</g>
<!-- Node1&#45;&gt;Node8 -->
<g id="edge14" class="edge"><title>Node1&#45;&gt;Node8</title>
<path fill="none" stroke="midnightblue" d="M47.3856,-152.443C60.0198,-139.176 78.5699,-121.822 98,-111 104.773,-107.228 112.33,-104.101 119.876,-101.53"/>
<polygon fill="midnightblue" stroke="midnightblue" points="44.5445,-150.361 40.3285,-160.081 49.6857,-155.111 44.5445,-150.361"/>
</g>
<!-- Node9 -->
<g id="node17" class="node"><title>Node9</title>
<a xlink:href="classSingleSupport.html" target="_top" xlink:title="SingleSupport">
<polygon fill="white" stroke="black" points="127.5,-40.5 127.5,-61.5 204.5,-61.5 204.5,-40.5 127.5,-40.5"/>
<text text-anchor="middle" x="166" y="-48.5" font-family="Helvetica,sans-Serif" font-size="10.00">SingleSupport</text>
</a>
</g>
<!-- Node1&#45;&gt;Node9 -->
<g id="edge16" class="edge"><title>Node1&#45;&gt;Node9</title>
<path fill="none" stroke="midnightblue" d="M39.2322,-151.134C49.6331,-128.452 69.6601,-91.8053 98,-71 106.531,-64.7373 117.004,-60.4252 127.152,-57.46"/>
<polygon fill="midnightblue" stroke="midnightblue" points="35.9505,-149.903 35.1355,-160.466 42.3601,-152.717 35.9505,-149.903"/>
</g>
<!-- Node10 -->
<g id="node19" class="node"><title>Node10</title>
<a xlink:href="classSSDSAlternation.html" target="_top" xlink:title="SSDSAlternation">
<polygon fill="white" stroke="black" points="120.5,-0.5 120.5,-21.5 211.5,-21.5 211.5,-0.5 120.5,-0.5"/>
<text text-anchor="middle" x="166" y="-8.5" font-family="Helvetica,sans-Serif" font-size="10.00">SSDSAlternation</text>
</a>
</g>
<!-- Node1&#45;&gt;Node10 -->
<g id="edge18" class="edge"><title>Node1&#45;&gt;Node10</title>
<path fill="none" stroke="midnightblue" d="M35.2358,-150.48C42.6098,-119.942 60.7218,-62.7347 98,-31 104.372,-25.5758 112.156,-21.6221 120.154,-18.7404"/>
<polygon fill="midnightblue" stroke="midnightblue" points="31.7781,-149.903 32.9892,-160.428 38.6062,-151.445 31.7781,-149.903"/>
</g>
</g>
</svg>
