<?xml version="1.0" encoding="UTF-8" standalone="no"?>
<!DOCTYPE svg PUBLIC "-//W3C//DTD SVG 1.1//EN"
 "http://www.w3.org/Graphics/SVG/1.1/DTD/svg11.dtd">
<!-- Generated by graphviz version 2.26.3 (20100126.1600)
 -->
<!-- Title: G Pages: 1 -->
<svg width="1468pt" height="320pt"
 viewBox="0.00 0.00 1468.00 320.00" xmlns="http://www.w3.org/2000/svg" xmlns:xlink="http://www.w3.org/1999/xlink">
<g id="graph1" class="graph" transform="scale(1 1) rotate(0) translate(4 316)">
<title>G</title>
<polygon fill="white" stroke="white" points="-4,5 -4,-316 1465,-316 1465,5 -4,5"/>
<!-- Node1 -->
<g id="node1" class="node"><title>Node1</title>
<polygon fill="#bfbfbf" stroke="black" points="890.5,-290.5 890.5,-311.5 1319.5,-311.5 1319.5,-290.5 890.5,-290.5"/>
<text text-anchor="middle" x="1105" y="-298.5" font-family="Helvetica,sans-Serif" font-size="10.00">ocra&#45;wbi&#45;plugins/ocra&#45;icub&#45;clients/walking&#45;client/include/walking&#45;client/constraints/Constancy.h</text>
</g>
<!-- Node2 -->
<g id="node3" class="node"><title>Node2</title>
<a xlink:href="ShapeConstraints_8h.html" target="_top" xlink:title="ocra&#45;wbi&#45;plugins/ocra&#45;icub&#45;clients/walking&#45;client/include/walking&#45;client/constraints/ShapeConstraints.h">
<polygon fill="white" stroke="black" points="674,-232.5 674,-253.5 1134,-253.5 1134,-232.5 674,-232.5"/>
<text text-anchor="middle" x="904" y="-240.5" font-family="Helvetica,sans-Serif" font-size="10.00">ocra&#45;wbi&#45;plugins/ocra&#45;icub&#45;clients/walking&#45;client/include/walking&#45;client/constraints/ShapeConstraints.h</text>
</a>
</g>
<!-- Node1&#45;&gt;Node2 -->
<g id="edge2" class="edge"><title>Node1&#45;&gt;Node2</title>
<path fill="none" stroke="midnightblue" d="M1058.84,-287.68C1022.89,-277.307 973.684,-263.108 940.468,-253.523"/>
<polygon fill="midnightblue" stroke="midnightblue" points="1058.02,-291.087 1068.6,-290.497 1059.96,-284.361 1058.02,-291.087"/>
</g>
<!-- Node11 -->
<g id="node21" class="node"><title>Node11</title>
<a xlink:href="Constancy_8cpp.html" target="_top" xlink:title="ocra&#45;wbi&#45;plugins/ocra&#45;icub&#45;clients/walking&#45;client/src/Constancy.cpp">
<polygon fill="white" stroke="black" points="1151.5,-232.5 1151.5,-253.5 1460.5,-253.5 1460.5,-232.5 1151.5,-232.5"/>
<text text-anchor="middle" x="1306" y="-240.5" font-family="Helvetica,sans-Serif" font-size="10.00">ocra&#45;wbi&#45;plugins/ocra&#45;icub&#45;clients/walking&#45;client/src/Constancy.cpp</text>
</a>
</g>
<!-- Node1&#45;&gt;Node11 -->
<g id="edge20" class="edge"><title>Node1&#45;&gt;Node11</title>
<path fill="none" stroke="midnightblue" d="M1151.16,-287.68C1187.11,-277.307 1236.32,-263.108 1269.53,-253.523"/>
<polygon fill="midnightblue" stroke="midnightblue" points="1150.04,-284.361 1141.4,-290.497 1151.98,-291.087 1150.04,-284.361"/>
</g>
<!-- Node3 -->
<g id="node5" class="node"><title>Node3</title>
<a xlink:href="MIQPLinearConstraints_8h.html" target="_top" xlink:title="ocra&#45;wbi&#45;plugins/ocra&#45;icub&#45;clients/walking&#45;client/include/walking&#45;client/constraints/MIQPLinearConstraints.h">
<polygon fill="white" stroke="black" points="447,-174.5 447,-195.5 931,-195.5 931,-174.5 447,-174.5"/>
<text text-anchor="middle" x="689" y="-182.5" font-family="Helvetica,sans-Serif" font-size="10.00">ocra&#45;wbi&#45;plugins/ocra&#45;icub&#45;clients/walking&#45;client/include/walking&#45;client/constraints/MIQPLinearConstraints.h</text>
</a>
</g>
<!-- Node2&#45;&gt;Node3 -->
<g id="edge4" class="edge"><title>Node2&#45;&gt;Node3</title>
<path fill="none" stroke="midnightblue" d="M855.115,-229.812C816.623,-219.428 763.689,-205.149 728.008,-195.523"/>
<polygon fill="midnightblue" stroke="midnightblue" points="854.499,-233.271 865.065,-232.497 856.322,-226.513 854.499,-233.271"/>
</g>
<!-- Node10 -->
<g id="node19" class="node"><title>Node10</title>
<a xlink:href="ShapeConstraints_8cpp.html" target="_top" xlink:title="ocra&#45;wbi&#45;plugins/ocra&#45;icub&#45;clients/walking&#45;client/src/ShapeConstraints.cpp">
<polygon fill="white" stroke="black" points="949,-174.5 949,-195.5 1289,-195.5 1289,-174.5 949,-174.5"/>
<text text-anchor="middle" x="1119" y="-182.5" font-family="Helvetica,sans-Serif" font-size="10.00">ocra&#45;wbi&#45;plugins/ocra&#45;icub&#45;clients/walking&#45;client/src/ShapeConstraints.cpp</text>
</a>
</g>
<!-- Node2&#45;&gt;Node10 -->
<g id="edge18" class="edge"><title>Node2&#45;&gt;Node10</title>
<path fill="none" stroke="midnightblue" d="M952.885,-229.812C991.377,-219.428 1044.31,-205.149 1079.99,-195.523"/>
<polygon fill="midnightblue" stroke="midnightblue" points="951.678,-226.513 942.935,-232.497 953.501,-233.271 951.678,-226.513"/>
</g>
<!-- Node4 -->
<g id="node7" class="node"><title>Node4</title>
<a xlink:href="MIQPController_8h.html" target="_top" xlink:title="A thread for launching trajectory generators.">
<polygon fill="white" stroke="black" points="291,-116.5 291,-137.5 689,-137.5 689,-116.5 291,-116.5"/>
<text text-anchor="middle" x="490" y="-124.5" font-family="Helvetica,sans-Serif" font-size="10.00">ocra&#45;wbi&#45;plugins/ocra&#45;icub&#45;clients/walking&#45;client/include/walking&#45;client/MIQPController.h</text>
</a>
</g>
<!-- Node3&#45;&gt;Node4 -->
<g id="edge6" class="edge"><title>Node3&#45;&gt;Node4</title>
<path fill="none" stroke="midnightblue" d="M643.297,-171.68C607.709,-161.307 558.99,-147.108 526.105,-137.523"/>
<polygon fill="midnightblue" stroke="midnightblue" points="642.383,-175.059 652.963,-174.497 644.341,-168.338 642.383,-175.059"/>
</g>
<!-- Node9 -->
<g id="node17" class="node"><title>Node9</title>
<a xlink:href="MIQPLinearConstraints_8cpp.html" target="_top" xlink:title="ocra&#45;wbi&#45;plugins/ocra&#45;icub&#45;clients/walking&#45;client/src/MIQPLinearConstraints.cpp">
<polygon fill="white" stroke="black" points="707,-116.5 707,-137.5 1071,-137.5 1071,-116.5 707,-116.5"/>
<text text-anchor="middle" x="889" y="-124.5" font-family="Helvetica,sans-Serif" font-size="10.00">ocra&#45;wbi&#45;plugins/ocra&#45;icub&#45;clients/walking&#45;client/src/MIQPLinearConstraints.cpp</text>
</a>
</g>
<!-- Node3&#45;&gt;Node9 -->
<g id="edge16" class="edge"><title>Node3&#45;&gt;Node9</title>
<path fill="none" stroke="midnightblue" d="M734.933,-171.68C770.7,-161.307 819.663,-147.108 852.714,-137.523"/>
<polygon fill="midnightblue" stroke="midnightblue" points="733.848,-168.35 725.218,-174.497 735.798,-175.073 733.848,-168.35"/>
</g>
<!-- Node5 -->
<g id="node9" class="node"><title>Node5</title>
<a xlink:href="WalkingClient_8h.html" target="_top" xlink:title="ocra&#45;wbi&#45;plugins/ocra&#45;icub&#45;clients/walking&#45;client/include/walking&#45;client/WalkingClient.h">
<polygon fill="white" stroke="black" points="105,-58.5 105,-79.5 497,-79.5 497,-58.5 105,-58.5"/>
<text text-anchor="middle" x="301" y="-66.5" font-family="Helvetica,sans-Serif" font-size="10.00">ocra&#45;wbi&#45;plugins/ocra&#45;icub&#45;clients/walking&#45;client/include/walking&#45;client/WalkingClient.h</text>
</a>
</g>
<!-- Node4&#45;&gt;Node5 -->
<g id="edge8" class="edge"><title>Node4&#45;&gt;Node5</title>
<path fill="none" stroke="midnightblue" d="M446.16,-113.546C412.398,-103.186 366.39,-89.0668 335.291,-79.5231"/>
<polygon fill="midnightblue" stroke="midnightblue" points="445.187,-116.909 455.774,-116.497 447.24,-110.217 445.187,-116.909"/>
</g>
<!-- Node8 -->
<g id="node15" class="node"><title>Node8</title>
<a xlink:href="MIQPController_8cpp.html" target="_top" xlink:title="ocra&#45;wbi&#45;plugins/ocra&#45;icub&#45;clients/walking&#45;client/src/MIQPController.cpp">
<polygon fill="white" stroke="black" points="514.5,-58.5 514.5,-79.5 843.5,-79.5 843.5,-58.5 514.5,-58.5"/>
<text text-anchor="middle" x="679" y="-66.5" font-family="Helvetica,sans-Serif" font-size="10.00">ocra&#45;wbi&#45;plugins/ocra&#45;icub&#45;clients/walking&#45;client/src/MIQPController.cpp</text>
</a>
</g>
<!-- Node4&#45;&gt;Node8 -->
<g id="edge14" class="edge"><title>Node4&#45;&gt;Node8</title>
<path fill="none" stroke="midnightblue" d="M533.84,-113.546C567.602,-103.186 613.61,-89.0668 644.709,-79.5231"/>
<polygon fill="midnightblue" stroke="midnightblue" points="532.76,-110.217 524.226,-116.497 534.813,-116.909 532.76,-110.217"/>
</g>
<!-- Node6 -->
<g id="node11" class="node"><title>Node6</title>
<a xlink:href="ocra-icub-clients_2walking-client_2src_2main_8cpp.html" target="_top" xlink:title="ocra&#45;wbi&#45;plugins/ocra&#45;icub&#45;clients/walking&#45;client/src/main.cpp">
<polygon fill="white" stroke="black" points="-0.5,-0.5 -0.5,-21.5 282.5,-21.5 282.5,-0.5 -0.5,-0.5"/>
<text text-anchor="middle" x="141" y="-8.5" font-family="Helvetica,sans-Serif" font-size="10.00">ocra&#45;wbi&#45;plugins/ocra&#45;icub&#45;clients/walking&#45;client/src/main.cpp</text>
</a>
</g>
<!-- Node5&#45;&gt;Node6 -->
<g id="edge10" class="edge"><title>Node5&#45;&gt;Node6</title>
<path fill="none" stroke="midnightblue" d="M262.405,-55.0095C233.972,-44.7023 195.905,-30.903 170.029,-21.5231"/>
<polygon fill="midnightblue" stroke="midnightblue" points="261.431,-58.3791 272.025,-58.4966 263.817,-51.7981 261.431,-58.3791"/>
</g>
<!-- Node7 -->
<g id="node13" class="node"><title>Node7</title>
<a xlink:href="WalkingClient_8cpp.html" target="_top" xlink:title="ocra&#45;wbi&#45;plugins/ocra&#45;icub&#45;clients/walking&#45;client/src/WalkingClient.cpp">
<polygon fill="white" stroke="black" points="299.5,-0.5 299.5,-21.5 622.5,-21.5 622.5,-0.5 299.5,-0.5"/>
<text text-anchor="middle" x="461" y="-8.5" font-family="Helvetica,sans-Serif" font-size="10.00">ocra&#45;wbi&#45;plugins/ocra&#45;icub&#45;clients/walking&#45;client/src/WalkingClient.cpp</text>
</a>
</g>
<!-- Node5&#45;&gt;Node7 -->
<g id="edge12" class="edge"><title>Node5&#45;&gt;Node7</title>
<path fill="none" stroke="midnightblue" d="M339.595,-55.0095C368.028,-44.7023 406.095,-30.903 431.971,-21.5231"/>
<polygon fill="midnightblue" stroke="midnightblue" points="338.183,-51.7981 329.975,-58.4966 340.569,-58.3791 338.183,-51.7981"/>
</g>
</g>
</svg>
