<?xml version="1.0" encoding="UTF-8" standalone="no"?>
<!DOCTYPE svg PUBLIC "-//W3C//DTD SVG 1.1//EN"
 "http://www.w3.org/Graphics/SVG/1.1/DTD/svg11.dtd">
<!-- Generated by graphviz version 2.26.3 (20100126.1600)
 -->
<!-- Title: G Pages: 1 -->
<svg width="516pt" height="204pt"
 viewBox="0.00 0.00 516.00 204.00" xmlns="http://www.w3.org/2000/svg" xmlns:xlink="http://www.w3.org/1999/xlink">
<g id="graph1" class="graph" transform="scale(1 1) rotate(0) translate(4 200)">
<title>G</title>
<polygon fill="white" stroke="white" points="-4,5 -4,-200 513,-200 513,5 -4,5"/>
<!-- Node1 -->
<g id="node1" class="node"><title>Node1</title>
<polygon fill="#bfbfbf" stroke="black" points="66.5,-174.5 66.5,-195.5 375.5,-195.5 375.5,-174.5 66.5,-174.5"/>
<text text-anchor="middle" x="221" y="-182.5" font-family="Helvetica,sans-Serif" font-size="10.00">ocra&#45;wbi&#45;plugins/ocra&#45;icub&#45;clients/walking&#45;client/src/Constancy.cpp</text>
</g>
<!-- Node2 -->
<g id="node3" class="node"><title>Node2</title>
<a xlink:href="Constancy_8h.html" target="_top" xlink:title="walking&#45;client/constraints/Constancy.h">
<polygon fill="white" stroke="black" points="128.5,-116.5 128.5,-137.5 313.5,-137.5 313.5,-116.5 128.5,-116.5"/>
<text text-anchor="middle" x="221" y="-124.5" font-family="Helvetica,sans-Serif" font-size="10.00">walking&#45;client/constraints/Constancy.h</text>
</a>
</g>
<!-- Node1&#45;&gt;Node2 -->
<g id="edge2" class="edge"><title>Node1&#45;&gt;Node2</title>
<path fill="none" stroke="midnightblue" d="M221,-174.362C221,-166.922 221,-156.743 221,-147.728"/>
<polygon fill="midnightblue" stroke="midnightblue" points="224.5,-147.571 221,-137.571 217.5,-147.571 224.5,-147.571"/>
</g>
<!-- Node3 -->
<g id="node5" class="node"><title>Node3</title>
<a xlink:href="Constraint_8h.html" target="_top" xlink:title="A constraint base class.">
<polygon fill="white" stroke="black" points="129.5,-58.5 129.5,-79.5 312.5,-79.5 312.5,-58.5 129.5,-58.5"/>
<text text-anchor="middle" x="221" y="-66.5" font-family="Helvetica,sans-Serif" font-size="10.00">walking&#45;client/constraints/Constraint.h</text>
</a>
</g>
<!-- Node2&#45;&gt;Node3 -->
<g id="edge4" class="edge"><title>Node2&#45;&gt;Node3</title>
<path fill="none" stroke="midnightblue" d="M221,-116.362C221,-108.922 221,-98.7427 221,-89.7276"/>
<polygon fill="midnightblue" stroke="midnightblue" points="224.5,-89.5706 221,-79.5707 217.5,-89.5707 224.5,-89.5706"/>
</g>
<!-- Node4 -->
<g id="node7" class="node"><title>Node4</title>
<a xlink:href="utils_8h.html" target="_top" xlink:title="walking&#45;client/utils.h">
<polygon fill="white" stroke="black" points="-0.5,-0.5 -0.5,-21.5 104.5,-21.5 104.5,-0.5 -0.5,-0.5"/>
<text text-anchor="middle" x="52" y="-8.5" font-family="Helvetica,sans-Serif" font-size="10.00">walking&#45;client/utils.h</text>
</a>
</g>
<!-- Node3&#45;&gt;Node4 -->
<g id="edge6" class="edge"><title>Node3&#45;&gt;Node4</title>
<path fill="none" stroke="midnightblue" d="M190.395,-58.4966C162.963,-49.082 122.524,-35.2036 92.4356,-24.8773"/>
<polygon fill="midnightblue" stroke="midnightblue" points="93.2567,-21.4588 82.662,-21.5231 90.9843,-28.0797 93.2567,-21.4588"/>
</g>
<!-- Node5 -->
<g id="node9" class="node"><title>Node5</title>
<polygon fill="white" stroke="#bfbfbf" points="121.5,-0.5 121.5,-21.5 186.5,-21.5 186.5,-0.5 121.5,-0.5"/>
<text text-anchor="middle" x="154" y="-8.5" font-family="Helvetica,sans-Serif" font-size="10.00">Eigen/Core</text>
</g>
<!-- Node3&#45;&gt;Node5 -->
<g id="edge8" class="edge"><title>Node3&#45;&gt;Node5</title>
<path fill="none" stroke="midnightblue" d="M208.711,-58.3619C198.983,-49.9408 185.202,-38.0105 173.905,-28.2308"/>
<polygon fill="midnightblue" stroke="midnightblue" points="176.062,-25.4695 166.211,-21.5707 171.481,-30.7619 176.062,-25.4695"/>
</g>
<!-- Node6 -->
<g id="node11" class="node"><title>Node6</title>
<polygon fill="white" stroke="#bfbfbf" points="204,-0.5 204,-21.5 374,-21.5 374,-0.5 204,-0.5"/>
<text text-anchor="middle" x="289" y="-8.5" font-family="Helvetica,sans-Serif" font-size="10.00">unsupported/Eigen/MatrixFunctions</text>
</g>
<!-- Node3&#45;&gt;Node6 -->
<g id="edge10" class="edge"><title>Node3&#45;&gt;Node6</title>
<path fill="none" stroke="midnightblue" d="M233.472,-58.3619C243.345,-49.9408 257.333,-38.0105 268.798,-28.2308"/>
<polygon fill="midnightblue" stroke="midnightblue" points="271.27,-30.7231 276.607,-21.5707 266.727,-25.3972 271.27,-30.7231"/>
</g>
<!-- Node7 -->
<g id="node13" class="node"><title>Node7</title>
<polygon fill="white" stroke="#bfbfbf" points="391.5,-0.5 391.5,-21.5 508.5,-21.5 508.5,-0.5 391.5,-0.5"/>
<text text-anchor="middle" x="450" y="-8.5" font-family="Helvetica,sans-Serif" font-size="10.00">ocra/util/ErrorsHelper.h</text>
</g>
<!-- Node3&#45;&gt;Node7 -->
<g id="edge12" class="edge"><title>Node3&#45;&gt;Node7</title>
<path fill="none" stroke="midnightblue" d="M262.47,-58.4966C300.692,-48.8159 357.549,-34.4156 398.631,-24.0105"/>
<polygon fill="midnightblue" stroke="midnightblue" points="399.617,-27.3712 408.452,-21.5231 397.899,-20.5855 399.617,-27.3712"/>
</g>
</g>
</svg>
