<?xml version="1.0" encoding="UTF-8" standalone="no"?>
<!DOCTYPE svg PUBLIC "-//W3C//DTD SVG 1.1//EN"
 "http://www.w3.org/Graphics/SVG/1.1/DTD/svg11.dtd">
<!-- Generated by graphviz version 2.26.3 (20100126.1600)
 -->
<!-- Title: G Pages: 1 -->
<svg width="2295pt" height="320pt"
 viewBox="0.00 0.00 2295.00 320.00" xmlns="http://www.w3.org/2000/svg" xmlns:xlink="http://www.w3.org/1999/xlink">
<g id="graph1" class="graph" transform="scale(1 1) rotate(0) translate(4 316)">
<title>G</title>
<polygon fill="white" stroke="white" points="-4,5 -4,-316 2292,-316 2292,5 -4,5"/>
<!-- Node1 -->
<g id="node1" class="node"><title>Node1</title>
<polygon fill="#bfbfbf" stroke="black" points="960.5,-290.5 960.5,-311.5 1387.5,-311.5 1387.5,-290.5 960.5,-290.5"/>
<text text-anchor="middle" x="1174" y="-298.5" font-family="Helvetica,sans-Serif" font-size="10.00">ocra&#45;wbi&#45;plugins/ocra&#45;icub&#45;clients/walking&#45;client/include/walking&#45;client/constraints/Constraint.h</text>
</g>
<!-- Node2 -->
<g id="node3" class="node"><title>Node2</title>
<a xlink:href="AdmissibilityConstraints_8h.html" target="_top" xlink:title="ocra&#45;wbi&#45;plugins/ocra&#45;icub&#45;clients/walking&#45;client/include/walking&#45;client/constraints/AdmissibilityConstraints.h">
<polygon fill="white" stroke="black" points="259,-232.5 259,-253.5 747,-253.5 747,-232.5 259,-232.5"/>
<text text-anchor="middle" x="503" y="-240.5" font-family="Helvetica,sans-Serif" font-size="10.00">ocra&#45;wbi&#45;plugins/ocra&#45;icub&#45;clients/walking&#45;client/include/walking&#45;client/constraints/AdmissibilityConstraints.h</text>
</a>
</g>
<!-- Node1&#45;&gt;Node2 -->
<g id="edge2" class="edge"><title>Node1&#45;&gt;Node2</title>
<path fill="none" stroke="midnightblue" d="M1042.4,-289.625C921.176,-279.146 742.734,-263.722 624.741,-253.523"/>
<polygon fill="midnightblue" stroke="midnightblue" points="1042.22,-293.122 1052.49,-290.497 1042.83,-286.148 1042.22,-293.122"/>
</g>
<!-- Node8 -->
<g id="node15" class="node"><title>Node8</title>
<a xlink:href="Bounding_8h.html" target="_top" xlink:title="ocra&#45;wbi&#45;plugins/ocra&#45;icub&#45;clients/walking&#45;client/include/walking&#45;client/constraints/Bounding.h">
<polygon fill="white" stroke="black" points="963,-232.5 963,-253.5 1385,-253.5 1385,-232.5 963,-232.5"/>
<text text-anchor="middle" x="1174" y="-240.5" font-family="Helvetica,sans-Serif" font-size="10.00">ocra&#45;wbi&#45;plugins/ocra&#45;icub&#45;clients/walking&#45;client/include/walking&#45;client/constraints/Bounding.h</text>
</a>
</g>
<!-- Node1&#45;&gt;Node8 -->
<g id="edge14" class="edge"><title>Node1&#45;&gt;Node8</title>
<path fill="none" stroke="midnightblue" d="M1174,-280.191C1174,-271.168 1174,-260.994 1174,-253.571"/>
<polygon fill="midnightblue" stroke="midnightblue" points="1170.5,-280.362 1174,-290.362 1177.5,-280.362 1170.5,-280.362"/>
</g>
<!-- Node9 -->
<g id="node17" class="node"><title>Node9</title>
<a xlink:href="ShapeConstraints_8h.html" target="_top" xlink:title="ocra&#45;wbi&#45;plugins/ocra&#45;icub&#45;clients/walking&#45;client/include/walking&#45;client/constraints/ShapeConstraints.h">
<polygon fill="white" stroke="black" points="705,-174.5 705,-195.5 1165,-195.5 1165,-174.5 705,-174.5"/>
<text text-anchor="middle" x="935" y="-182.5" font-family="Helvetica,sans-Serif" font-size="10.00">ocra&#45;wbi&#45;plugins/ocra&#45;icub&#45;clients/walking&#45;client/include/walking&#45;client/constraints/ShapeConstraints.h</text>
</a>
</g>
<!-- Node1&#45;&gt;Node9 -->
<g id="edge32" class="edge"><title>Node1&#45;&gt;Node9</title>
<path fill="none" stroke="midnightblue" d="M1068.37,-288.953C1020.62,-281.451 971.074,-270.108 954,-254 937.732,-238.653 934.947,-210.775 934.728,-195.575"/>
<polygon fill="midnightblue" stroke="midnightblue" points="1068.11,-292.453 1078.52,-290.495 1069.16,-285.532 1068.11,-292.453"/>
</g>
<!-- Node12 -->
<g id="node24" class="node"><title>Node12</title>
<a xlink:href="Constancy_8h.html" target="_top" xlink:title="ocra&#45;wbi&#45;plugins/ocra&#45;icub&#45;clients/walking&#45;client/include/walking&#45;client/constraints/Constancy.h">
<polygon fill="white" stroke="black" points="1402.5,-232.5 1402.5,-253.5 1831.5,-253.5 1831.5,-232.5 1402.5,-232.5"/>
<text text-anchor="middle" x="1617" y="-240.5" font-family="Helvetica,sans-Serif" font-size="10.00">ocra&#45;wbi&#45;plugins/ocra&#45;icub&#45;clients/walking&#45;client/include/walking&#45;client/constraints/Constancy.h</text>
</a>
</g>
<!-- Node1&#45;&gt;Node12 -->
<g id="edge24" class="edge"><title>Node1&#45;&gt;Node12</title>
<path fill="none" stroke="midnightblue" d="M1264.28,-289.18C1344.22,-278.714 1459.82,-263.579 1536.63,-253.523"/>
<polygon fill="midnightblue" stroke="midnightblue" points="1263.68,-285.728 1254.22,-290.497 1264.59,-292.669 1263.68,-285.728"/>
</g>
<!-- Node14 -->
<g id="node28" class="node"><title>Node14</title>
<a xlink:href="Sequentiality_8h.html" target="_top" xlink:title="ocra&#45;wbi&#45;plugins/ocra&#45;icub&#45;clients/walking&#45;client/include/walking&#45;client/constraints/Sequentiality.h">
<polygon fill="white" stroke="black" points="1849,-232.5 1849,-253.5 2287,-253.5 2287,-232.5 1849,-232.5"/>
<text text-anchor="middle" x="2068" y="-240.5" font-family="Helvetica,sans-Serif" font-size="10.00">ocra&#45;wbi&#45;plugins/ocra&#45;icub&#45;clients/walking&#45;client/include/walking&#45;client/constraints/Sequentiality.h</text>
</a>
</g>
<!-- Node1&#45;&gt;Node14 -->
<g id="edge28" class="edge"><title>Node1&#45;&gt;Node14</title>
<path fill="none" stroke="midnightblue" d="M1345.94,-289.845C1507.5,-279.363 1747.49,-263.794 1905.8,-253.523"/>
<polygon fill="midnightblue" stroke="midnightblue" points="1345.65,-286.356 1335.9,-290.497 1346.1,-293.342 1345.65,-286.356"/>
</g>
<!-- Node3 -->
<g id="node5" class="node"><title>Node3</title>
<a xlink:href="MIQPLinearConstraints_8h.html" target="_top" xlink:title="ocra&#45;wbi&#45;plugins/ocra&#45;icub&#45;clients/walking&#45;client/include/walking&#45;client/constraints/MIQPLinearConstraints.h">
<polygon fill="white" stroke="black" points="156,-116.5 156,-137.5 640,-137.5 640,-116.5 156,-116.5"/>
<text text-anchor="middle" x="398" y="-124.5" font-family="Helvetica,sans-Serif" font-size="10.00">ocra&#45;wbi&#45;plugins/ocra&#45;icub&#45;clients/walking&#45;client/include/walking&#45;client/constraints/MIQPLinearConstraints.h</text>
</a>
</g>
<!-- Node2&#45;&gt;Node3 -->
<g id="edge4" class="edge"><title>Node2&#45;&gt;Node3</title>
<path fill="none" stroke="midnightblue" d="M406.457,-230.75C364.749,-223.286 322.599,-212.036 310,-196 290.269,-170.888 332.231,-149.558 364.748,-137.519"/>
<polygon fill="midnightblue" stroke="midnightblue" points="406.015,-234.225 416.464,-232.473 407.203,-227.327 406.015,-234.225"/>
</g>
<!-- Node7 -->
<g id="node13" class="node"><title>Node7</title>
<a xlink:href="AdmissibilityConstraints_8cpp.html" target="_top" xlink:title="ocra&#45;wbi&#45;plugins/ocra&#45;icub&#45;clients/walking&#45;client/src/AdmissibilityConstraints.cpp">
<polygon fill="white" stroke="black" points="319,-174.5 319,-195.5 687,-195.5 687,-174.5 319,-174.5"/>
<text text-anchor="middle" x="503" y="-182.5" font-family="Helvetica,sans-Serif" font-size="10.00">ocra&#45;wbi&#45;plugins/ocra&#45;icub&#45;clients/walking&#45;client/src/AdmissibilityConstraints.cpp</text>
</a>
</g>
<!-- Node2&#45;&gt;Node7 -->
<g id="edge12" class="edge"><title>Node2&#45;&gt;Node7</title>
<path fill="none" stroke="midnightblue" d="M503,-222.191C503,-213.168 503,-202.994 503,-195.571"/>
<polygon fill="midnightblue" stroke="midnightblue" points="499.5,-222.362 503,-232.362 506.5,-222.362 499.5,-222.362"/>
</g>
<!-- Node4 -->
<g id="node7" class="node"><title>Node4</title>
<a xlink:href="MIQPController_8h.html" target="_top" xlink:title="A thread for launching trajectory generators.">
<polygon fill="white" stroke="black" points="0,-58.5 0,-79.5 398,-79.5 398,-58.5 0,-58.5"/>
<text text-anchor="middle" x="199" y="-66.5" font-family="Helvetica,sans-Serif" font-size="10.00">ocra&#45;wbi&#45;plugins/ocra&#45;icub&#45;clients/walking&#45;client/include/walking&#45;client/MIQPController.h</text>
</a>
</g>
<!-- Node3&#45;&gt;Node4 -->
<g id="edge6" class="edge"><title>Node3&#45;&gt;Node4</title>
<path fill="none" stroke="midnightblue" d="M352.297,-113.68C316.709,-103.307 267.99,-89.1078 235.105,-79.5231"/>
<polygon fill="midnightblue" stroke="midnightblue" points="351.383,-117.059 361.963,-116.497 353.341,-110.338 351.383,-117.059"/>
</g>
<!-- Node6 -->
<g id="node11" class="node"><title>Node6</title>
<a xlink:href="MIQPLinearConstraints_8cpp.html" target="_top" xlink:title="ocra&#45;wbi&#45;plugins/ocra&#45;icub&#45;clients/walking&#45;client/src/MIQPLinearConstraints.cpp">
<polygon fill="white" stroke="black" points="416,-58.5 416,-79.5 780,-79.5 780,-58.5 416,-58.5"/>
<text text-anchor="middle" x="598" y="-66.5" font-family="Helvetica,sans-Serif" font-size="10.00">ocra&#45;wbi&#45;plugins/ocra&#45;icub&#45;clients/walking&#45;client/src/MIQPLinearConstraints.cpp</text>
</a>
</g>
<!-- Node3&#45;&gt;Node6 -->
<g id="edge10" class="edge"><title>Node3&#45;&gt;Node6</title>
<path fill="none" stroke="midnightblue" d="M443.933,-113.68C479.7,-103.307 528.663,-89.1078 561.714,-79.5231"/>
<polygon fill="midnightblue" stroke="midnightblue" points="442.848,-110.35 434.218,-116.497 444.798,-117.073 442.848,-110.35"/>
</g>
<!-- Node5 -->
<g id="node9" class="node"><title>Node5</title>
<a xlink:href="MIQPController_8cpp.html" target="_top" xlink:title="ocra&#45;wbi&#45;plugins/ocra&#45;icub&#45;clients/walking&#45;client/src/MIQPController.cpp">
<polygon fill="white" stroke="black" points="34.5,-0.5 34.5,-21.5 363.5,-21.5 363.5,-0.5 34.5,-0.5"/>
<text text-anchor="middle" x="199" y="-8.5" font-family="Helvetica,sans-Serif" font-size="10.00">ocra&#45;wbi&#45;plugins/ocra&#45;icub&#45;clients/walking&#45;client/src/MIQPController.cpp</text>
</a>
</g>
<!-- Node4&#45;&gt;Node5 -->
<g id="edge8" class="edge"><title>Node4&#45;&gt;Node5</title>
<path fill="none" stroke="midnightblue" d="M199,-48.1906C199,-39.1684 199,-28.9941 199,-21.5707"/>
<polygon fill="midnightblue" stroke="midnightblue" points="195.5,-48.3619 199,-58.3619 202.5,-48.3619 195.5,-48.3619"/>
</g>
<!-- Node8&#45;&gt;Node9 -->
<g id="edge16" class="edge"><title>Node8&#45;&gt;Node9</title>
<path fill="none" stroke="midnightblue" d="M1120.75,-230.077C1077.87,-219.672 1018.36,-205.231 978.362,-195.523"/>
<polygon fill="midnightblue" stroke="midnightblue" points="1120.18,-233.54 1130.72,-232.497 1121.83,-226.737 1120.18,-233.54"/>
</g>
<!-- Node11 -->
<g id="node22" class="node"><title>Node11</title>
<a xlink:href="Bounding_8cpp.html" target="_top" xlink:title="ocra&#45;wbi&#45;plugins/ocra&#45;icub&#45;clients/walking&#45;client/src/Bounding.cpp">
<polygon fill="white" stroke="black" points="1183,-174.5 1183,-195.5 1485,-195.5 1485,-174.5 1183,-174.5"/>
<text text-anchor="middle" x="1334" y="-182.5" font-family="Helvetica,sans-Serif" font-size="10.00">ocra&#45;wbi&#45;plugins/ocra&#45;icub&#45;clients/walking&#45;client/src/Bounding.cpp</text>
</a>
</g>
<!-- Node8&#45;&gt;Node11 -->
<g id="edge22" class="edge"><title>Node8&#45;&gt;Node11</title>
<path fill="none" stroke="midnightblue" d="M1212.59,-229.009C1241.03,-218.702 1279.1,-204.903 1304.97,-195.523"/>
<polygon fill="midnightblue" stroke="midnightblue" points="1211.18,-225.798 1202.97,-232.497 1213.57,-232.379 1211.18,-225.798"/>
</g>
<!-- Node9&#45;&gt;Node3 -->
<g id="edge18" class="edge"><title>Node9&#45;&gt;Node3</title>
<path fill="none" stroke="midnightblue" d="M827.63,-173.403C730.661,-162.93 589.195,-147.65 495.429,-137.523"/>
<polygon fill="midnightblue" stroke="midnightblue" points="827.435,-176.902 837.753,-174.497 828.187,-169.943 827.435,-176.902"/>
</g>
<!-- Node10 -->
<g id="node20" class="node"><title>Node10</title>
<a xlink:href="ShapeConstraints_8cpp.html" target="_top" xlink:title="ocra&#45;wbi&#45;plugins/ocra&#45;icub&#45;clients/walking&#45;client/src/ShapeConstraints.cpp">
<polygon fill="white" stroke="black" points="765,-116.5 765,-137.5 1105,-137.5 1105,-116.5 765,-116.5"/>
<text text-anchor="middle" x="935" y="-124.5" font-family="Helvetica,sans-Serif" font-size="10.00">ocra&#45;wbi&#45;plugins/ocra&#45;icub&#45;clients/walking&#45;client/src/ShapeConstraints.cpp</text>
</a>
</g>
<!-- Node9&#45;&gt;Node10 -->
<g id="edge20" class="edge"><title>Node9&#45;&gt;Node10</title>
<path fill="none" stroke="midnightblue" d="M935,-164.191C935,-155.168 935,-144.994 935,-137.571"/>
<polygon fill="midnightblue" stroke="midnightblue" points="931.5,-164.362 935,-174.362 938.5,-164.362 931.5,-164.362"/>
</g>
<!-- Node13 -->
<g id="node26" class="node"><title>Node13</title>
<a xlink:href="Constancy_8cpp.html" target="_top" xlink:title="ocra&#45;wbi&#45;plugins/ocra&#45;icub&#45;clients/walking&#45;client/src/Constancy.cpp">
<polygon fill="white" stroke="black" points="1502.5,-174.5 1502.5,-195.5 1811.5,-195.5 1811.5,-174.5 1502.5,-174.5"/>
<text text-anchor="middle" x="1657" y="-182.5" font-family="Helvetica,sans-Serif" font-size="10.00">ocra&#45;wbi&#45;plugins/ocra&#45;icub&#45;clients/walking&#45;client/src/Constancy.cpp</text>
</a>
</g>
<!-- Node12&#45;&gt;Node13 -->
<g id="edge26" class="edge"><title>Node12&#45;&gt;Node13</title>
<path fill="none" stroke="midnightblue" d="M1630.13,-223.959C1636.64,-214.522 1644.25,-203.484 1649.71,-195.571"/>
<polygon fill="midnightblue" stroke="midnightblue" points="1627.13,-222.143 1624.34,-232.362 1632.9,-226.117 1627.13,-222.143"/>
</g>
<!-- Node15 -->
<g id="node30" class="node"><title>Node15</title>
<a xlink:href="Sequentiality_8cpp.html" target="_top" xlink:title="ocra&#45;wbi&#45;plugins/ocra&#45;icub&#45;clients/walking&#45;client/src/Sequentiality.cpp">
<polygon fill="white" stroke="black" points="1909,-174.5 1909,-195.5 2227,-195.5 2227,-174.5 1909,-174.5"/>
<text text-anchor="middle" x="2068" y="-182.5" font-family="Helvetica,sans-Serif" font-size="10.00">ocra&#45;wbi&#45;plugins/ocra&#45;icub&#45;clients/walking&#45;client/src/Sequentiality.cpp</text>
</a>
</g>
<!-- Node14&#45;&gt;Node15 -->
<g id="edge30" class="edge"><title>Node14&#45;&gt;Node15</title>
<path fill="none" stroke="midnightblue" d="M2068,-222.191C2068,-213.168 2068,-202.994 2068,-195.571"/>
<polygon fill="midnightblue" stroke="midnightblue" points="2064.5,-222.362 2068,-232.362 2071.5,-222.362 2064.5,-222.362"/>
</g>
</g>
</svg>
