<?xml version="1.0" encoding="UTF-8" standalone="no"?>
<!DOCTYPE svg PUBLIC "-//W3C//DTD SVG 1.1//EN"
 "http://www.w3.org/Graphics/SVG/1.1/DTD/svg11.dtd">
<!-- Generated by graphviz version 2.26.3 (20100126.1600)
 -->
<!-- Title: G Pages: 1 -->
<svg width="586pt" height="204pt"
 viewBox="0.00 0.00 586.00 204.00" xmlns="http://www.w3.org/2000/svg" xmlns:xlink="http://www.w3.org/1999/xlink">
<g id="graph1" class="graph" transform="scale(1 1) rotate(0) translate(4 200)">
<title>G</title>
<polygon fill="white" stroke="white" points="-4,5 -4,-200 583,-200 583,5 -4,5"/>
<!-- Node1 -->
<g id="node1" class="node"><title>Node1</title>
<polygon fill="#bfbfbf" stroke="black" points="134.5,-174.5 134.5,-195.5 443.5,-195.5 443.5,-174.5 134.5,-174.5"/>
<text text-anchor="middle" x="289" y="-182.5" font-family="Helvetica,sans-Serif" font-size="10.00">ocra&#45;wbi&#45;plugins/ocra&#45;icub&#45;clients/walking&#45;client/src/Constancy.cpp</text>
</g>
<!-- Node2 -->
<g id="node3" class="node"><title>Node2</title>
<a xlink:href="Constancy_8h.html" target="_top" xlink:title="walking&#45;client/constraints/Constancy.h">
<polygon fill="white" stroke="black" points="196.5,-116.5 196.5,-137.5 381.5,-137.5 381.5,-116.5 196.5,-116.5"/>
<text text-anchor="middle" x="289" y="-124.5" font-family="Helvetica,sans-Serif" font-size="10.00">walking&#45;client/constraints/Constancy.h</text>
</a>
</g>
<!-- Node1&#45;&gt;Node2 -->
<g id="edge2" class="edge"><title>Node1&#45;&gt;Node2</title>
<path fill="none" stroke="midnightblue" d="M289,-174.362C289,-166.922 289,-156.743 289,-147.728"/>
<polygon fill="midnightblue" stroke="midnightblue" points="292.5,-147.571 289,-137.571 285.5,-147.571 292.5,-147.571"/>
</g>
<!-- Node3 -->
<g id="node5" class="node"><title>Node3</title>
<a xlink:href="Constraint_8h.html" target="_top" xlink:title="A constraint base class.">
<polygon fill="white" stroke="black" points="197.5,-58.5 197.5,-79.5 380.5,-79.5 380.5,-58.5 197.5,-58.5"/>
<text text-anchor="middle" x="289" y="-66.5" font-family="Helvetica,sans-Serif" font-size="10.00">walking&#45;client/constraints/Constraint.h</text>
</a>
</g>
<!-- Node2&#45;&gt;Node3 -->
<g id="edge4" class="edge"><title>Node2&#45;&gt;Node3</title>
<path fill="none" stroke="midnightblue" d="M289,-116.362C289,-108.922 289,-98.7427 289,-89.7276"/>
<polygon fill="midnightblue" stroke="midnightblue" points="292.5,-89.5706 289,-79.5707 285.5,-89.5707 292.5,-89.5706"/>
</g>
<!-- Node4 -->
<g id="node7" class="node"><title>Node4</title>
<a xlink:href="utils_8h.html" target="_top" xlink:title="walking&#45;client/utils.h">
<polygon fill="white" stroke="black" points="-0.5,-0.5 -0.5,-21.5 104.5,-21.5 104.5,-0.5 -0.5,-0.5"/>
<text text-anchor="middle" x="52" y="-8.5" font-family="Helvetica,sans-Serif" font-size="10.00">walking&#45;client/utils.h</text>
</a>
</g>
<!-- Node3&#45;&gt;Node4 -->
<g id="edge6" class="edge"><title>Node3&#45;&gt;Node4</title>
<path fill="none" stroke="midnightblue" d="M246.081,-58.4966C206.44,-48.7955 147.432,-34.3547 104.894,-23.9445"/>
<polygon fill="midnightblue" stroke="midnightblue" points="105.545,-20.5006 94.9994,-21.5231 103.881,-27.2999 105.545,-20.5006"/>
</g>
<!-- Node5 -->
<g id="node9" class="node"><title>Node5</title>
<polygon fill="white" stroke="#bfbfbf" points="121.5,-0.5 121.5,-21.5 186.5,-21.5 186.5,-0.5 121.5,-0.5"/>
<text text-anchor="middle" x="154" y="-8.5" font-family="Helvetica,sans-Serif" font-size="10.00">Eigen/Core</text>
</g>
<!-- Node3&#45;&gt;Node5 -->
<g id="edge8" class="edge"><title>Node3&#45;&gt;Node5</title>
<path fill="none" stroke="midnightblue" d="M264.553,-58.4966C243.182,-49.3154 211.931,-35.8889 188.103,-25.6516"/>
<polygon fill="midnightblue" stroke="midnightblue" points="189.291,-22.3529 178.722,-21.6212 186.528,-28.7845 189.291,-22.3529"/>
</g>
<!-- Node6 -->
<g id="node11" class="node"><title>Node6</title>
<polygon fill="white" stroke="#bfbfbf" points="204,-0.5 204,-21.5 374,-21.5 374,-0.5 204,-0.5"/>
<text text-anchor="middle" x="289" y="-8.5" font-family="Helvetica,sans-Serif" font-size="10.00">unsupported/Eigen/MatrixFunctions</text>
</g>
<!-- Node3&#45;&gt;Node6 -->
<g id="edge10" class="edge"><title>Node3&#45;&gt;Node6</title>
<path fill="none" stroke="midnightblue" d="M289,-58.3619C289,-50.9219 289,-40.7427 289,-31.7276"/>
<polygon fill="midnightblue" stroke="midnightblue" points="292.5,-31.5706 289,-21.5707 285.5,-31.5707 292.5,-31.5706"/>
</g>
<!-- Node7 -->
<g id="node13" class="node"><title>Node7</title>
<polygon fill="white" stroke="#bfbfbf" points="391.5,-0.5 391.5,-21.5 508.5,-21.5 508.5,-0.5 391.5,-0.5"/>
<text text-anchor="middle" x="450" y="-8.5" font-family="Helvetica,sans-Serif" font-size="10.00">ocra/util/ErrorsHelper.h</text>
</g>
<!-- Node3&#45;&gt;Node7 -->
<g id="edge12" class="edge"><title>Node3&#45;&gt;Node7</title>
<path fill="none" stroke="midnightblue" d="M318.156,-58.4966C344.176,-49.1229 382.479,-35.3242 411.104,-25.0122"/>
<polygon fill="midnightblue" stroke="midnightblue" points="412.568,-28.2052 420.789,-21.5231 410.195,-21.6195 412.568,-28.2052"/>
</g>
<!-- Node8 -->
<g id="node15" class="node"><title>Node8</title>
<polygon fill="white" stroke="#bfbfbf" points="526,-0.5 526,-21.5 578,-21.5 578,-0.5 526,-0.5"/>
<text text-anchor="middle" x="552" y="-8.5" font-family="Helvetica,sans-Serif" font-size="10.00">memory</text>
</g>
<!-- Node3&#45;&gt;Node8 -->
<g id="edge14" class="edge"><title>Node3&#45;&gt;Node8</title>
<path fill="none" stroke="midnightblue" d="M348.43,-58.4563C392.316,-50.2807 453.662,-38.0412 515.742,-22.157"/>
<polygon fill="midnightblue" stroke="midnightblue" points="516.906,-25.4712 525.709,-19.5765 515.151,-18.6947 516.906,-25.4712"/>
</g>
</g>
</svg>
