<?xml version="1.0" encoding="UTF-8" standalone="no"?>
<!DOCTYPE svg PUBLIC "-//W3C//DTD SVG 1.1//EN"
 "http://www.w3.org/Graphics/SVG/1.1/DTD/svg11.dtd">
<!-- Generated by graphviz version 2.26.3 (20100126.1600)
 -->
<!-- Title: G Pages: 1 -->
<svg width="388pt" height="146pt"
 viewBox="0.00 0.00 388.00 146.00" xmlns="http://www.w3.org/2000/svg" xmlns:xlink="http://www.w3.org/1999/xlink">
<g id="graph1" class="graph" transform="scale(1 1) rotate(0) translate(4 142)">
<title>G</title>
<polygon fill="white" stroke="white" points="-4,5 -4,-142 385,-142 385,5 -4,5"/>
<!-- Node1 -->
<g id="node1" class="node"><title>Node1</title>
<polygon fill="#bfbfbf" stroke="black" points="0,-116.5 0,-137.5 380,-137.5 380,-116.5 0,-116.5"/>
<text text-anchor="middle" x="190" y="-124.5" font-family="Helvetica,sans-Serif" font-size="10.00">ocra&#45;wbi&#45;plugins/ocra&#45;icub&#45;clients/walking&#45;client/src/ContactConfigEnforcement.cpp</text>
</g>
<!-- Node2 -->
<g id="node3" class="node"><title>Node2</title>
<a xlink:href="ContactConfigEnforcement_8h.html" target="_top" xlink:title="walking&#45;client/constraints/ContactConfigEnforcement.h">
<polygon fill="white" stroke="black" points="61.5,-58.5 61.5,-79.5 318.5,-79.5 318.5,-58.5 61.5,-58.5"/>
<text text-anchor="middle" x="190" y="-66.5" font-family="Helvetica,sans-Serif" font-size="10.00">walking&#45;client/constraints/ContactConfigEnforcement.h</text>
</a>
</g>
<!-- Node1&#45;&gt;Node2 -->
<g id="edge2" class="edge"><title>Node1&#45;&gt;Node2</title>
<path fill="none" stroke="midnightblue" d="M190,-116.362C190,-108.922 190,-98.7427 190,-89.7276"/>
<polygon fill="midnightblue" stroke="midnightblue" points="193.5,-89.5706 190,-79.5707 186.5,-89.5707 193.5,-89.5706"/>
</g>
<!-- Node3 -->
<g id="node5" class="node"><title>Node3</title>
<polygon fill="white" stroke="#bfbfbf" points="99.5,-0.5 99.5,-21.5 280.5,-21.5 280.5,-0.5 99.5,-0.5"/>
<text text-anchor="middle" x="190" y="-8.5" font-family="Helvetica,sans-Serif" font-size="10.00">walking&#45;client/constraints/constraint.h</text>
</g>
<!-- Node2&#45;&gt;Node3 -->
<g id="edge4" class="edge"><title>Node2&#45;&gt;Node3</title>
<path fill="none" stroke="midnightblue" d="M190,-58.3619C190,-50.9219 190,-40.7427 190,-31.7276"/>
<polygon fill="midnightblue" stroke="midnightblue" points="193.5,-31.5706 190,-21.5707 186.5,-31.5707 193.5,-31.5706"/>
</g>
</g>
</svg>
