<?xml version="1.0" encoding="UTF-8" standalone="no"?>
<!DOCTYPE svg PUBLIC "-//W3C//DTD SVG 1.1//EN"
 "http://www.w3.org/Graphics/SVG/1.1/DTD/svg11.dtd">
<!-- Generated by graphviz version 2.26.3 (20100126.1600)
 -->
<!-- Title: G Pages: 1 -->
<svg width="4156pt" height="146pt"
 viewBox="0.00 0.00 4156.00 146.00" xmlns="http://www.w3.org/2000/svg" xmlns:xlink="http://www.w3.org/1999/xlink">
<g id="graph1" class="graph" transform="scale(1 1) rotate(0) translate(4 142)">
<title>G</title>
<polygon fill="white" stroke="white" points="-4,5 -4,-142 4153,-142 4153,5 -4,5"/>
<!-- Node1 -->
<g id="node1" class="node"><title>Node1</title>
<polygon fill="#bfbfbf" stroke="black" points="1786,-116.5 1786,-137.5 2048,-137.5 2048,-116.5 1786,-116.5"/>
<text text-anchor="middle" x="1917" y="-124.5" font-family="Helvetica,sans-Serif" font-size="10.00">ocra&#45;wbi&#45;plugins/ocra&#45;icub/include/ocra&#45;icub/IcubClient.h</text>
</g>
<!-- Node2 -->
<g id="node3" class="node"><title>Node2</title>
<a xlink:href="ExampleClient_8h.html" target="_top" xlink:title="ocra&#45;wbi&#45;plugins/ocra&#45;icub&#45;clients/example&#45;client/include/example&#45;client/ExampleClient.h">
<polygon fill="white" stroke="black" points="309,-58.5 309,-79.5 711,-79.5 711,-58.5 309,-58.5"/>
<text text-anchor="middle" x="510" y="-66.5" font-family="Helvetica,sans-Serif" font-size="10.00">ocra&#45;wbi&#45;plugins/ocra&#45;icub&#45;clients/example&#45;client/include/example&#45;client/ExampleClient.h</text>
</a>
</g>
<!-- Node1&#45;&gt;Node2 -->
<g id="edge2" class="edge"><title>Node1&#45;&gt;Node2</title>
<path fill="none" stroke="midnightblue" d="M1775.61,-121.172C1524.43,-110.817 999.751,-89.1888 711.08,-77.289"/>
<polygon fill="midnightblue" stroke="midnightblue" points="1775.76,-124.681 1785.9,-121.596 1776.05,-117.687 1775.76,-124.681"/>
</g>
<!-- Node3 -->
<g id="node5" class="node"><title>Node3</title>
<a xlink:href="example-client_8cpp.html" target="_top" xlink:title="ocra&#45;wbi&#45;plugins/ocra&#45;icub&#45;clients/example&#45;client/src/example&#45;client.cpp">
<polygon fill="white" stroke="black" points="-0.5,-0.5 -0.5,-21.5 328.5,-21.5 328.5,-0.5 -0.5,-0.5"/>
<text text-anchor="middle" x="164" y="-8.5" font-family="Helvetica,sans-Serif" font-size="10.00">ocra&#45;wbi&#45;plugins/ocra&#45;icub&#45;clients/example&#45;client/src/example&#45;client.cpp</text>
</a>
</g>
<!-- Node1&#45;&gt;Node3 -->
<g id="edge8" class="edge"><title>Node1&#45;&gt;Node3</title>
<path fill="none" stroke="midnightblue" d="M1775.78,-126.425C1408.24,-124.43 440.635,-115.803 300,-80 253.046,-68.0465 203.726,-37.9237 179.415,-21.7162"/>
<polygon fill="midnightblue" stroke="midnightblue" points="1775.93,-129.926 1785.95,-126.48 1775.97,-122.926 1775.93,-129.926"/>
</g>
<!-- Node5 -->
<g id="node10" class="node"><title>Node5</title>
<a xlink:href="SittingDemoClient_8h.html" target="_top" xlink:title="ocra&#45;wbi&#45;plugins/ocra&#45;icub&#45;clients/sitting&#45;demo/include/sitting&#45;demo/SittingDemoClient.h">
<polygon fill="white" stroke="black" points="954,-58.5 954,-79.5 1352,-79.5 1352,-58.5 954,-58.5"/>
<text text-anchor="middle" x="1153" y="-66.5" font-family="Helvetica,sans-Serif" font-size="10.00">ocra&#45;wbi&#45;plugins/ocra&#45;icub&#45;clients/sitting&#45;demo/include/sitting&#45;demo/SittingDemoClient.h</text>
</a>
</g>
<!-- Node1&#45;&gt;Node5 -->
<g id="edge10" class="edge"><title>Node1&#45;&gt;Node5</title>
<path fill="none" stroke="midnightblue" d="M1775.43,-116.252C1637.25,-105.763 1428.37,-89.9052 1291.32,-79.5009"/>
<polygon fill="midnightblue" stroke="midnightblue" points="1775.43,-119.762 1785.66,-117.029 1775.96,-112.782 1775.43,-119.762"/>
</g>
<!-- Node6 -->
<g id="node12" class="node"><title>Node6</title>
<a xlink:href="ocra-icub-clients_2sitting-demo_2src_2main_8cpp.html" target="_top" xlink:title="ocra&#45;wbi&#45;plugins/ocra&#45;icub&#45;clients/sitting&#45;demo/src/main.cpp">
<polygon fill="white" stroke="black" points="691.5,-0.5 691.5,-21.5 968.5,-21.5 968.5,-0.5 691.5,-0.5"/>
<text text-anchor="middle" x="830" y="-8.5" font-family="Helvetica,sans-Serif" font-size="10.00">ocra&#45;wbi&#45;plugins/ocra&#45;icub&#45;clients/sitting&#45;demo/src/main.cpp</text>
</a>
</g>
<!-- Node1&#45;&gt;Node6 -->
<g id="edge16" class="edge"><title>Node1&#45;&gt;Node6</title>
<path fill="none" stroke="midnightblue" d="M1775.68,-123.973C1525.16,-118.045 1022.19,-103.403 945,-80 904.224,-67.6378 862.98,-37.6906 842.773,-21.6165"/>
<polygon fill="midnightblue" stroke="midnightblue" points="1775.87,-127.479 1785.95,-124.215 1776.03,-120.481 1775.87,-127.479"/>
</g>
<!-- Node8 -->
<g id="node17" class="node"><title>Node8</title>
<a xlink:href="StandingDemoClient_8h.html" target="_top" xlink:title="ocra&#45;wbi&#45;plugins/ocra&#45;icub&#45;clients/standing&#45;demo/include/standing&#45;demo/StandingDemoClient.h">
<polygon fill="white" stroke="black" points="1581,-58.5 1581,-79.5 2011,-79.5 2011,-58.5 1581,-58.5"/>
<text text-anchor="middle" x="1796" y="-66.5" font-family="Helvetica,sans-Serif" font-size="10.00">ocra&#45;wbi&#45;plugins/ocra&#45;icub&#45;clients/standing&#45;demo/include/standing&#45;demo/StandingDemoClient.h</text>
</a>
</g>
<!-- Node1&#45;&gt;Node8 -->
<g id="edge18" class="edge"><title>Node1&#45;&gt;Node8</title>
<path fill="none" stroke="midnightblue" d="M1885.85,-112.069C1864.66,-101.912 1837.13,-88.7157 1818.16,-79.6212"/>
<polygon fill="midnightblue" stroke="midnightblue" points="1884.56,-115.33 1895.09,-116.497 1887.58,-109.018 1884.56,-115.33"/>
</g>
<!-- Node9 -->
<g id="node19" class="node"><title>Node9</title>
<a xlink:href="ocra-icub-clients_2standing-demo_2src_2main_8cpp.html" target="_top" xlink:title="ocra&#45;wbi&#45;plugins/ocra&#45;icub&#45;clients/standing&#45;demo/src/main.cpp">
<polygon fill="white" stroke="black" points="1337.5,-0.5 1337.5,-21.5 1624.5,-21.5 1624.5,-0.5 1337.5,-0.5"/>
<text text-anchor="middle" x="1481" y="-8.5" font-family="Helvetica,sans-Serif" font-size="10.00">ocra&#45;wbi&#45;plugins/ocra&#45;icub&#45;clients/standing&#45;demo/src/main.cpp</text>
</a>
</g>
<!-- Node1&#45;&gt;Node9 -->
<g id="edge24" class="edge"><title>Node1&#45;&gt;Node9</title>
<path fill="none" stroke="midnightblue" d="M1780.01,-115.481C1700.57,-107.413 1609.1,-95.3394 1572,-80 1538.65,-66.2118 1506.73,-37.1539 1491.06,-21.5069"/>
<polygon fill="midnightblue" stroke="midnightblue" points="1779.83,-118.981 1790.13,-116.494 1780.52,-112.016 1779.83,-118.981"/>
</g>
<!-- Node11 -->
<g id="node24" class="node"><title>Node11</title>
<a xlink:href="SteppingDemoClient_8h.html" target="_top" xlink:title="ocra&#45;wbi&#45;plugins/ocra&#45;icub&#45;clients/stepping&#45;demo/include/stepping&#45;demo/SteppingDemoClient.h">
<polygon fill="white" stroke="black" points="2067,-58.5 2067,-79.5 2497,-79.5 2497,-58.5 2067,-58.5"/>
<text text-anchor="middle" x="2282" y="-66.5" font-family="Helvetica,sans-Serif" font-size="10.00">ocra&#45;wbi&#45;plugins/ocra&#45;icub&#45;clients/stepping&#45;demo/include/stepping&#45;demo/SteppingDemoClient.h</text>
</a>
</g>
<!-- Node1&#45;&gt;Node11 -->
<g id="edge26" class="edge"><title>Node1&#45;&gt;Node11</title>
<path fill="none" stroke="midnightblue" d="M1993,-114.923C2058.8,-104.468 2153.01,-89.4969 2215.78,-79.5231"/>
<polygon fill="midnightblue" stroke="midnightblue" points="1992.43,-111.471 1983.1,-116.497 1993.52,-118.384 1992.43,-111.471"/>
</g>
<!-- Node12 -->
<g id="node26" class="node"><title>Node12</title>
<a xlink:href="stepping-demo_8cpp.html" target="_top" xlink:title="ocra&#45;wbi&#45;plugins/ocra&#45;icub&#45;clients/stepping&#45;demo/src/stepping&#45;demo.cpp">
<polygon fill="white" stroke="black" points="2016,-0.5 2016,-21.5 2346,-21.5 2346,-0.5 2016,-0.5"/>
<text text-anchor="middle" x="2181" y="-8.5" font-family="Helvetica,sans-Serif" font-size="10.00">ocra&#45;wbi&#45;plugins/ocra&#45;icub&#45;clients/stepping&#45;demo/src/stepping&#45;demo.cpp</text>
</a>
</g>
<!-- Node1&#45;&gt;Node12 -->
<g id="edge32" class="edge"><title>Node1&#45;&gt;Node12</title>
<path fill="none" stroke="midnightblue" d="M1951.3,-112.342C1971.53,-103.455 1997.48,-91.6202 2020,-80 2037.34,-71.05 2040.38,-66.3986 2058,-58 2088.23,-43.5872 2124.14,-30.2783 2149.33,-21.53"/>
<polygon fill="midnightblue" stroke="midnightblue" points="1949.64,-109.247 1941.88,-116.454 1952.44,-115.664 1949.64,-109.247"/>
</g>
<!-- Node14 -->
<g id="node31" class="node"><title>Node14</title>
<a xlink:href="TaskOpsClient_8h.html" target="_top" xlink:title="ocra&#45;wbi&#45;plugins/ocra&#45;icub&#45;clients/task&#45;operations&#45;demo/include/task&#45;operations&#45;demo/TaskOpsClient.h">
<polygon fill="white" stroke="black" points="2700.5,-58.5 2700.5,-79.5 3165.5,-79.5 3165.5,-58.5 2700.5,-58.5"/>
<text text-anchor="middle" x="2933" y="-66.5" font-family="Helvetica,sans-Serif" font-size="10.00">ocra&#45;wbi&#45;plugins/ocra&#45;icub&#45;clients/task&#45;operations&#45;demo/include/task&#45;operations&#45;demo/TaskOpsClient.h</text>
</a>
</g>
<!-- Node1&#45;&gt;Node14 -->
<g id="edge34" class="edge"><title>Node1&#45;&gt;Node14</title>
<path fill="none" stroke="midnightblue" d="M2058.07,-118.947C2238.12,-108.668 2550,-90.8639 2748.68,-79.522"/>
<polygon fill="midnightblue" stroke="midnightblue" points="2057.79,-115.457 2048,-119.521 2058.19,-122.446 2057.79,-115.457"/>
</g>
<!-- Node15 -->
<g id="node33" class="node"><title>Node15</title>
<a xlink:href="task-operations-demo_8cpp.html" target="_top" xlink:title="ocra&#45;wbi&#45;plugins/ocra&#45;icub&#45;clients/task&#45;operations&#45;demo/src/task&#45;operations&#45;demo.cpp">
<polygon fill="white" stroke="black" points="2738,-0.5 2738,-21.5 3128,-21.5 3128,-0.5 2738,-0.5"/>
<text text-anchor="middle" x="2933" y="-8.5" font-family="Helvetica,sans-Serif" font-size="10.00">ocra&#45;wbi&#45;plugins/ocra&#45;icub&#45;clients/task&#45;operations&#45;demo/src/task&#45;operations&#45;demo.cpp</text>
</a>
</g>
<!-- Node1&#45;&gt;Node15 -->
<g id="edge40" class="edge"><title>Node1&#45;&gt;Node15</title>
<path fill="none" stroke="midnightblue" d="M2058.32,-118.93C2177.83,-111.339 2353.48,-98.3784 2506,-80 2639.64,-63.8971 2795.48,-36.5157 2876.91,-21.5449"/>
<polygon fill="midnightblue" stroke="midnightblue" points="2057.78,-115.458 2048.02,-119.581 2058.22,-122.444 2057.78,-115.458"/>
</g>
<!-- Node17 -->
<g id="node38" class="node"><title>Node17</title>
<a xlink:href="WalkingClient_8h.html" target="_top" xlink:title="ocra&#45;wbi&#45;plugins/ocra&#45;icub&#45;clients/walking&#45;client/include/walking&#45;client/WalkingClient.h">
<polygon fill="white" stroke="black" points="3471,-58.5 3471,-79.5 3863,-79.5 3863,-58.5 3471,-58.5"/>
<text text-anchor="middle" x="3667" y="-66.5" font-family="Helvetica,sans-Serif" font-size="10.00">ocra&#45;wbi&#45;plugins/ocra&#45;icub&#45;clients/walking&#45;client/include/walking&#45;client/WalkingClient.h</text>
</a>
</g>
<!-- Node1&#45;&gt;Node17 -->
<g id="edge42" class="edge"><title>Node1&#45;&gt;Node17</title>
<path fill="none" stroke="midnightblue" d="M2058.62,-122.306C2370.02,-111.986 3114.8,-87.3014 3470.89,-75.4997"/>
<polygon fill="midnightblue" stroke="midnightblue" points="2058.05,-118.823 2048.18,-122.652 2058.29,-125.819 2058.05,-118.823"/>
</g>
<!-- Node18 -->
<g id="node40" class="node"><title>Node18</title>
<a xlink:href="ocra-icub-clients_2walking-client_2src_2main_8cpp.html" target="_top" xlink:title="ocra&#45;wbi&#45;plugins/ocra&#45;icub&#45;clients/walking&#45;client/src/main.cpp">
<polygon fill="white" stroke="black" points="3525.5,-0.5 3525.5,-21.5 3808.5,-21.5 3808.5,-0.5 3525.5,-0.5"/>
<text text-anchor="middle" x="3667" y="-8.5" font-family="Helvetica,sans-Serif" font-size="10.00">ocra&#45;wbi&#45;plugins/ocra&#45;icub&#45;clients/walking&#45;client/src/main.cpp</text>
</a>
</g>
<!-- Node1&#45;&gt;Node18 -->
<g id="edge48" class="edge"><title>Node1&#45;&gt;Node18</title>
<path fill="none" stroke="midnightblue" d="M2058.44,-123.526C2339.89,-116.314 2961.27,-98.8146 3174,-80 3330.47,-66.1615 3513.26,-37.1935 3606.13,-21.554"/>
<polygon fill="midnightblue" stroke="midnightblue" points="2058.07,-120.034 2048.17,-123.789 2058.25,-127.032 2058.07,-120.034"/>
</g>
<!-- Node2&#45;&gt;Node3 -->
<g id="edge4" class="edge"><title>Node2&#45;&gt;Node3</title>
<path fill="none" stroke="midnightblue" d="M437.187,-56.7943C374.849,-46.3447 286.03,-31.4559 226.776,-21.5231"/>
<polygon fill="midnightblue" stroke="midnightblue" points="436.901,-60.2952 447.342,-58.4966 438.058,-53.3915 436.901,-60.2952"/>
</g>
<!-- Node4 -->
<g id="node7" class="node"><title>Node4</title>
<a xlink:href="ExampleClient_8cpp.html" target="_top" xlink:title="ocra&#45;wbi&#45;plugins/ocra&#45;icub&#45;clients/example&#45;client/src/ExampleClient.cpp">
<polygon fill="white" stroke="black" points="345.5,-0.5 345.5,-21.5 674.5,-21.5 674.5,-0.5 345.5,-0.5"/>
<text text-anchor="middle" x="510" y="-8.5" font-family="Helvetica,sans-Serif" font-size="10.00">ocra&#45;wbi&#45;plugins/ocra&#45;icub&#45;clients/example&#45;client/src/ExampleClient.cpp</text>
</a>
</g>
<!-- Node2&#45;&gt;Node4 -->
<g id="edge6" class="edge"><title>Node2&#45;&gt;Node4</title>
<path fill="none" stroke="midnightblue" d="M510,-48.1906C510,-39.1684 510,-28.9941 510,-21.5707"/>
<polygon fill="midnightblue" stroke="midnightblue" points="506.5,-48.3619 510,-58.3619 513.5,-48.3619 506.5,-48.3619"/>
</g>
<!-- Node5&#45;&gt;Node6 -->
<g id="edge12" class="edge"><title>Node5&#45;&gt;Node6</title>
<path fill="none" stroke="midnightblue" d="M1084.31,-56.6648C1026.15,-46.222 943.69,-31.415 888.603,-21.5231"/>
<polygon fill="midnightblue" stroke="midnightblue" points="1084.05,-60.1741 1094.51,-58.4966 1085.28,-53.2843 1084.05,-60.1741"/>
</g>
<!-- Node7 -->
<g id="node14" class="node"><title>Node7</title>
<a xlink:href="SittingDemoClient_8cpp.html" target="_top" xlink:title="ocra&#45;wbi&#45;plugins/ocra&#45;icub&#45;clients/sitting&#45;demo/src/SittingDemoClient.cpp">
<polygon fill="white" stroke="black" points="985.5,-0.5 985.5,-21.5 1320.5,-21.5 1320.5,-0.5 985.5,-0.5"/>
<text text-anchor="middle" x="1153" y="-8.5" font-family="Helvetica,sans-Serif" font-size="10.00">ocra&#45;wbi&#45;plugins/ocra&#45;icub&#45;clients/sitting&#45;demo/src/SittingDemoClient.cpp</text>
</a>
</g>
<!-- Node5&#45;&gt;Node7 -->
<g id="edge14" class="edge"><title>Node5&#45;&gt;Node7</title>
<path fill="none" stroke="midnightblue" d="M1153,-48.1906C1153,-39.1684 1153,-28.9941 1153,-21.5707"/>
<polygon fill="midnightblue" stroke="midnightblue" points="1149.5,-48.3619 1153,-58.3619 1156.5,-48.3619 1149.5,-48.3619"/>
</g>
<!-- Node8&#45;&gt;Node9 -->
<g id="edge20" class="edge"><title>Node8&#45;&gt;Node9</title>
<path fill="none" stroke="midnightblue" d="M1729.01,-56.6648C1672.29,-46.222 1591.87,-31.415 1538.15,-21.5231"/>
<polygon fill="midnightblue" stroke="midnightblue" points="1728.49,-60.1279 1738.96,-58.4966 1729.76,-53.2436 1728.49,-60.1279"/>
</g>
<!-- Node10 -->
<g id="node21" class="node"><title>Node10</title>
<a xlink:href="StandingDemoClient_8cpp.html" target="_top" xlink:title="ocra&#45;wbi&#45;plugins/ocra&#45;icub&#45;clients/standing&#45;demo/src/StandingDemoClient.cpp">
<polygon fill="white" stroke="black" points="1642,-0.5 1642,-21.5 1998,-21.5 1998,-0.5 1642,-0.5"/>
<text text-anchor="middle" x="1820" y="-8.5" font-family="Helvetica,sans-Serif" font-size="10.00">ocra&#45;wbi&#45;plugins/ocra&#45;icub&#45;clients/standing&#45;demo/src/StandingDemoClient.cpp</text>
</a>
</g>
<!-- Node8&#45;&gt;Node10 -->
<g id="edge22" class="edge"><title>Node8&#45;&gt;Node10</title>
<path fill="none" stroke="midnightblue" d="M1804.24,-49.079C1808.07,-39.8422 1812.45,-29.2388 1815.63,-21.5707"/>
<polygon fill="midnightblue" stroke="midnightblue" points="1800.99,-47.7835 1800.4,-58.3619 1807.46,-50.46 1800.99,-47.7835"/>
</g>
<!-- Node11&#45;&gt;Node12 -->
<g id="edge28" class="edge"><title>Node11&#45;&gt;Node12</title>
<path fill="none" stroke="midnightblue" d="M2254.8,-53.379C2237.25,-43.3011 2214.89,-30.4624 2199.41,-21.5707"/>
<polygon fill="midnightblue" stroke="midnightblue" points="2253.06,-56.4171 2263.48,-58.3619 2256.55,-50.3468 2253.06,-56.4171"/>
</g>
<!-- Node13 -->
<g id="node28" class="node"><title>Node13</title>
<a xlink:href="SteppingDemoClient_8cpp.html" target="_top" xlink:title="ocra&#45;wbi&#45;plugins/ocra&#45;icub&#45;clients/stepping&#45;demo/src/SteppingDemoClient.cpp">
<polygon fill="white" stroke="black" points="2364,-0.5 2364,-21.5 2720,-21.5 2720,-0.5 2364,-0.5"/>
<text text-anchor="middle" x="2542" y="-8.5" font-family="Helvetica,sans-Serif" font-size="10.00">ocra&#45;wbi&#45;plugins/ocra&#45;icub&#45;clients/stepping&#45;demo/src/SteppingDemoClient.cpp</text>
</a>
</g>
<!-- Node11&#45;&gt;Node13 -->
<g id="edge30" class="edge"><title>Node11&#45;&gt;Node13</title>
<path fill="none" stroke="midnightblue" d="M2339.05,-56.2737C2385.75,-45.8548 2451.04,-31.2921 2494.83,-21.5231"/>
<polygon fill="midnightblue" stroke="midnightblue" points="2338.08,-52.9033 2329.08,-58.4966 2339.61,-59.7353 2338.08,-52.9033"/>
</g>
<!-- Node14&#45;&gt;Node15 -->
<g id="edge36" class="edge"><title>Node14&#45;&gt;Node15</title>
<path fill="none" stroke="midnightblue" d="M2933,-48.1906C2933,-39.1684 2933,-28.9941 2933,-21.5707"/>
<polygon fill="midnightblue" stroke="midnightblue" points="2929.5,-48.3619 2933,-58.3619 2936.5,-48.3619 2929.5,-48.3619"/>
</g>
<!-- Node16 -->
<g id="node35" class="node"><title>Node16</title>
<a xlink:href="TaskOpsClient_8cpp.html" target="_top" xlink:title="ocra&#45;wbi&#45;plugins/ocra&#45;icub&#45;clients/task&#45;operations&#45;demo/src/TaskOpsClient.cpp">
<polygon fill="white" stroke="black" points="3146,-0.5 3146,-21.5 3508,-21.5 3508,-0.5 3146,-0.5"/>
<text text-anchor="middle" x="3327" y="-8.5" font-family="Helvetica,sans-Serif" font-size="10.00">ocra&#45;wbi&#45;plugins/ocra&#45;icub&#45;clients/task&#45;operations&#45;demo/src/TaskOpsClient.cpp</text>
</a>
</g>
<!-- Node14&#45;&gt;Node16 -->
<g id="edge38" class="edge"><title>Node14&#45;&gt;Node16</title>
<path fill="none" stroke="midnightblue" d="M3014.6,-56.9877C3085.65,-46.529 3187.62,-31.5174 3255.52,-21.5231"/>
<polygon fill="midnightblue" stroke="midnightblue" points="3013.73,-53.5775 3004.35,-58.4966 3014.75,-60.5029 3013.73,-53.5775"/>
</g>
<!-- Node17&#45;&gt;Node18 -->
<g id="edge44" class="edge"><title>Node17&#45;&gt;Node18</title>
<path fill="none" stroke="midnightblue" d="M3667,-48.1906C3667,-39.1684 3667,-28.9941 3667,-21.5707"/>
<polygon fill="midnightblue" stroke="midnightblue" points="3663.5,-48.3619 3667,-58.3619 3670.5,-48.3619 3663.5,-48.3619"/>
</g>
<!-- Node19 -->
<g id="node42" class="node"><title>Node19</title>
<a xlink:href="WalkingClient_8cpp.html" target="_top" xlink:title="ocra&#45;wbi&#45;plugins/ocra&#45;icub&#45;clients/walking&#45;client/src/WalkingClient.cpp">
<polygon fill="white" stroke="black" points="3825.5,-0.5 3825.5,-21.5 4148.5,-21.5 4148.5,-0.5 3825.5,-0.5"/>
<text text-anchor="middle" x="3987" y="-8.5" font-family="Helvetica,sans-Serif" font-size="10.00">ocra&#45;wbi&#45;plugins/ocra&#45;icub&#45;clients/walking&#45;client/src/WalkingClient.cpp</text>
</a>
</g>
<!-- Node17&#45;&gt;Node19 -->
<g id="edge46" class="edge"><title>Node17&#45;&gt;Node19</title>
<path fill="none" stroke="midnightblue" d="M3735.06,-56.6648C3792.67,-46.222 3874.37,-31.415 3928.94,-21.5231"/>
<polygon fill="midnightblue" stroke="midnightblue" points="3734.17,-53.2692 3724.95,-58.4966 3735.41,-60.157 3734.17,-53.2692"/>
</g>
</g>
</svg>
