<?xml version="1.0" encoding="UTF-8" standalone="no"?>
<!DOCTYPE svg PUBLIC "-//W3C//DTD SVG 1.1//EN"
 "http://www.w3.org/Graphics/SVG/1.1/DTD/svg11.dtd">
<!-- Generated by graphviz version 2.26.3 (20100126.1600)
 -->
<!-- Title: G Pages: 1 -->
<svg width="3272pt" height="436pt"
 viewBox="0.00 0.00 3272.00 436.00" xmlns="http://www.w3.org/2000/svg" xmlns:xlink="http://www.w3.org/1999/xlink">
<g id="graph1" class="graph" transform="scale(1 1) rotate(0) translate(4 432)">
<title>G</title>
<polygon fill="white" stroke="white" points="-4,5 -4,-432 3269,-432 3269,5 -4,5"/>
<!-- Node1 -->
<g id="node1" class="node"><title>Node1</title>
<polygon fill="#bfbfbf" stroke="black" points="1550,-406.5 1550,-427.5 2034,-427.5 2034,-406.5 1550,-406.5"/>
<text text-anchor="middle" x="1792" y="-414.5" font-family="Helvetica,sans-Serif" font-size="10.00">ocra&#45;wbi&#45;plugins/ocra&#45;icub&#45;clients/walking&#45;client/include/walking&#45;client/constraints/MIQPLinearConstraints.h</text>
</g>
<!-- Node2 -->
<g id="node3" class="node"><title>Node2</title>
<a xlink:href="ShapeConstraints_8h.html" target="_top" xlink:title="walking&#45;client/constraints/ShapeConstraints.h">
<polygon fill="white" stroke="black" points="1817,-348.5 1817,-369.5 2033,-369.5 2033,-348.5 1817,-348.5"/>
<text text-anchor="middle" x="1925" y="-356.5" font-family="Helvetica,sans-Serif" font-size="10.00">walking&#45;client/constraints/ShapeConstraints.h</text>
</a>
</g>
<!-- Node1&#45;&gt;Node2 -->
<g id="edge2" class="edge"><title>Node1&#45;&gt;Node2</title>
<path fill="none" stroke="midnightblue" d="M1816.09,-406.497C1837.14,-397.315 1867.93,-383.889 1891.4,-373.652"/>
<polygon fill="midnightblue" stroke="midnightblue" points="1892.88,-376.827 1900.64,-369.621 1890.08,-370.41 1892.88,-376.827"/>
</g>
<!-- Node12 -->
<g id="node26" class="node"><title>Node12</title>
<a xlink:href="AdmissibilityConstraints_8h.html" target="_top" xlink:title="walking&#45;client/constraints/AdmissibilityConstraints.h">
<polygon fill="white" stroke="black" points="2615,-348.5 2615,-369.5 2859,-369.5 2859,-348.5 2615,-348.5"/>
<text text-anchor="middle" x="2737" y="-356.5" font-family="Helvetica,sans-Serif" font-size="10.00">walking&#45;client/constraints/AdmissibilityConstraints.h</text>
</a>
</g>
<!-- Node1&#45;&gt;Node12 -->
<g id="edge28" class="edge"><title>Node1&#45;&gt;Node12</title>
<path fill="none" stroke="midnightblue" d="M1963.13,-406.497C2147.52,-395.18 2436.99,-377.413 2604.71,-367.119"/>
<polygon fill="midnightblue" stroke="midnightblue" points="2605.07,-370.604 2614.84,-366.498 2604.64,-363.617 2605.07,-370.604"/>
</g>
<!-- Node17 -->
<g id="node41" class="node"><title>Node17</title>
<a xlink:href="StepController_8h.html" target="_top" xlink:title="walking&#45;client/StepController.h">
<polygon fill="white" stroke="black" points="1034.5,-232.5 1034.5,-253.5 1183.5,-253.5 1183.5,-232.5 1034.5,-232.5"/>
<text text-anchor="middle" x="1109" y="-240.5" font-family="Helvetica,sans-Serif" font-size="10.00">walking&#45;client/StepController.h</text>
</a>
</g>
<!-- Node1&#45;&gt;Node17 -->
<g id="edge48" class="edge"><title>Node1&#45;&gt;Node17</title>
<path fill="none" stroke="midnightblue" d="M1750.56,-406.442C1631.83,-376.195 1290.62,-289.269 1160.37,-256.087"/>
<polygon fill="midnightblue" stroke="midnightblue" points="1161.18,-252.682 1150.63,-253.605 1159.46,-259.466 1161.18,-252.682"/>
</g>
<!-- Node19 -->
<g id="node46" class="node"><title>Node19</title>
<a xlink:href="BaseOfSupport_8h.html" target="_top" xlink:title="walking&#45;client/BaseOfSupport.h">
<polygon fill="white" stroke="black" points="1454,-290.5 1454,-311.5 1608,-311.5 1608,-290.5 1454,-290.5"/>
<text text-anchor="middle" x="1531" y="-298.5" font-family="Helvetica,sans-Serif" font-size="10.00">walking&#45;client/BaseOfSupport.h</text>
</a>
</g>
<!-- Node1&#45;&gt;Node19 -->
<g id="edge54" class="edge"><title>Node1&#45;&gt;Node19</title>
<path fill="none" stroke="midnightblue" d="M1767.91,-406.295C1720.99,-385.438 1617.26,-339.336 1563.99,-315.66"/>
<polygon fill="midnightblue" stroke="midnightblue" points="1565.21,-312.375 1554.65,-311.512 1562.37,-318.771 1565.21,-312.375"/>
</g>
<!-- Node3 -->
<g id="node5" class="node"><title>Node3</title>
<a xlink:href="Constraint_8h.html" target="_top" xlink:title="A constraint base class.">
<polygon fill="white" stroke="black" points="2234.5,-232.5 2234.5,-253.5 2417.5,-253.5 2417.5,-232.5 2234.5,-232.5"/>
<text text-anchor="middle" x="2326" y="-240.5" font-family="Helvetica,sans-Serif" font-size="10.00">walking&#45;client/constraints/Constraint.h</text>
</a>
</g>
<!-- Node2&#45;&gt;Node3 -->
<g id="edge4" class="edge"><title>Node2&#45;&gt;Node3</title>
<path fill="none" stroke="midnightblue" d="M1951.07,-348.366C1972.75,-339.301 2004.27,-325.613 2031,-312 2048.39,-303.143 2050.69,-296.744 2069,-290 2118.57,-271.745 2176.23,-260.372 2224.36,-253.398"/>
<polygon fill="midnightblue" stroke="midnightblue" points="2225.06,-256.834 2234.48,-251.976 2224.09,-249.902 2225.06,-256.834"/>
</g>
<!-- Node9 -->
<g id="node17" class="node"><title>Node9</title>
<a xlink:href="Bounding_8h.html" target="_top" xlink:title="walking&#45;client/constraints/Bounding.h">
<polygon fill="white" stroke="black" points="2077.5,-290.5 2077.5,-311.5 2256.5,-311.5 2256.5,-290.5 2077.5,-290.5"/>
<text text-anchor="middle" x="2167" y="-298.5" font-family="Helvetica,sans-Serif" font-size="10.00">walking&#45;client/constraints/Bounding.h</text>
</a>
</g>
<!-- Node2&#45;&gt;Node9 -->
<g id="edge16" class="edge"><title>Node2&#45;&gt;Node9</title>
<path fill="none" stroke="midnightblue" d="M1968.82,-348.497C2009.39,-338.775 2069.81,-324.294 2113.26,-313.879"/>
<polygon fill="midnightblue" stroke="midnightblue" points="2114.18,-317.257 2123.09,-311.523 2112.55,-310.45 2114.18,-317.257"/>
</g>
<!-- Node10 -->
<g id="node20" class="node"><title>Node10</title>
<a xlink:href="Constancy_8h.html" target="_top" xlink:title="walking&#45;client/constraints/Constancy.h">
<polygon fill="white" stroke="black" points="1625.5,-290.5 1625.5,-311.5 1810.5,-311.5 1810.5,-290.5 1625.5,-290.5"/>
<text text-anchor="middle" x="1718" y="-298.5" font-family="Helvetica,sans-Serif" font-size="10.00">walking&#45;client/constraints/Constancy.h</text>
</a>
</g>
<!-- Node2&#45;&gt;Node10 -->
<g id="edge20" class="edge"><title>Node2&#45;&gt;Node10</title>
<path fill="none" stroke="midnightblue" d="M1887.51,-348.497C1853.33,-338.918 1802.65,-324.72 1765.62,-314.342"/>
<polygon fill="midnightblue" stroke="midnightblue" points="1766.13,-310.851 1755.56,-311.523 1764.24,-317.591 1766.13,-310.851"/>
</g>
<!-- Node11 -->
<g id="node23" class="node"><title>Node11</title>
<a xlink:href="Sequentiality_8h.html" target="_top" xlink:title="walking&#45;client/constraints/Sequentiality.h">
<polygon fill="white" stroke="black" points="1828,-290.5 1828,-311.5 2022,-311.5 2022,-290.5 1828,-290.5"/>
<text text-anchor="middle" x="1925" y="-298.5" font-family="Helvetica,sans-Serif" font-size="10.00">walking&#45;client/constraints/Sequentiality.h</text>
</a>
</g>
<!-- Node2&#45;&gt;Node11 -->
<g id="edge24" class="edge"><title>Node2&#45;&gt;Node11</title>
<path fill="none" stroke="midnightblue" d="M1925,-348.362C1925,-340.922 1925,-330.743 1925,-321.728"/>
<polygon fill="midnightblue" stroke="midnightblue" points="1928.5,-321.571 1925,-311.571 1921.5,-321.571 1928.5,-321.571"/>
</g>
<!-- Node4 -->
<g id="node7" class="node"><title>Node4</title>
<a xlink:href="utils_8h.html" target="_top" xlink:title="walking&#45;client/utils.h">
<polygon fill="white" stroke="black" points="1345.5,-174.5 1345.5,-195.5 1450.5,-195.5 1450.5,-174.5 1345.5,-174.5"/>
<text text-anchor="middle" x="1398" y="-182.5" font-family="Helvetica,sans-Serif" font-size="10.00">walking&#45;client/utils.h</text>
</a>
</g>
<!-- Node3&#45;&gt;Node4 -->
<g id="edge6" class="edge"><title>Node3&#45;&gt;Node4</title>
<path fill="none" stroke="midnightblue" d="M2234.48,-237.28C2046.55,-225.535 1621.37,-198.961 1460.9,-188.931"/>
<polygon fill="midnightblue" stroke="midnightblue" points="1460.91,-185.425 1450.72,-188.295 1460.48,-192.412 1460.91,-185.425"/>
</g>
<!-- Node5 -->
<g id="node9" class="node"><title>Node5</title>
<polygon fill="white" stroke="#bfbfbf" points="2261.5,-174.5 2261.5,-195.5 2326.5,-195.5 2326.5,-174.5 2261.5,-174.5"/>
<text text-anchor="middle" x="2294" y="-182.5" font-family="Helvetica,sans-Serif" font-size="10.00">Eigen/Core</text>
</g>
<!-- Node3&#45;&gt;Node5 -->
<g id="edge8" class="edge"><title>Node3&#45;&gt;Node5</title>
<path fill="none" stroke="midnightblue" d="M2320.13,-232.362C2315.85,-224.595 2309.91,-213.843 2304.78,-204.546"/>
<polygon fill="midnightblue" stroke="midnightblue" points="2307.73,-202.636 2299.83,-195.571 2301.6,-206.017 2307.73,-202.636"/>
</g>
<!-- Node6 -->
<g id="node11" class="node"><title>Node6</title>
<polygon fill="white" stroke="#bfbfbf" points="2385,-174.5 2385,-195.5 2555,-195.5 2555,-174.5 2385,-174.5"/>
<text text-anchor="middle" x="2470" y="-182.5" font-family="Helvetica,sans-Serif" font-size="10.00">unsupported/Eigen/MatrixFunctions</text>
</g>
<!-- Node3&#45;&gt;Node6 -->
<g id="edge10" class="edge"><title>Node3&#45;&gt;Node6</title>
<path fill="none" stroke="midnightblue" d="M2352.08,-232.497C2375.07,-223.234 2408.8,-209.65 2434.3,-199.379"/>
<polygon fill="midnightblue" stroke="midnightblue" points="2435.66,-202.604 2443.63,-195.621 2433.05,-196.111 2435.66,-202.604"/>
</g>
<!-- Node7 -->
<g id="node13" class="node"><title>Node7</title>
<polygon fill="white" stroke="#bfbfbf" points="2121.5,-174.5 2121.5,-195.5 2238.5,-195.5 2238.5,-174.5 2121.5,-174.5"/>
<text text-anchor="middle" x="2180" y="-182.5" font-family="Helvetica,sans-Serif" font-size="10.00">ocra/util/ErrorsHelper.h</text>
</g>
<!-- Node3&#45;&gt;Node7 -->
<g id="edge12" class="edge"><title>Node3&#45;&gt;Node7</title>
<path fill="none" stroke="midnightblue" d="M2299.56,-232.497C2276.24,-223.234 2242.05,-209.65 2216.2,-199.379"/>
<polygon fill="midnightblue" stroke="midnightblue" points="2217.32,-196.06 2206.74,-195.621 2214.74,-202.566 2217.32,-196.06"/>
</g>
<!-- Node8 -->
<g id="node15" class="node"><title>Node8</title>
<polygon fill="white" stroke="#bfbfbf" points="2438,-0.5 2438,-21.5 2490,-21.5 2490,-0.5 2438,-0.5"/>
<text text-anchor="middle" x="2464" y="-8.5" font-family="Helvetica,sans-Serif" font-size="10.00">memory</text>
</g>
<!-- Node3&#45;&gt;Node8 -->
<g id="edge14" class="edge"><title>Node3&#45;&gt;Node8</title>
<path fill="none" stroke="midnightblue" d="M2332.29,-232.429C2353.8,-196.271 2424.63,-77.1858 2452.55,-30.2551"/>
<polygon fill="midnightblue" stroke="midnightblue" points="2455.57,-32.0173 2457.67,-21.6335 2449.55,-28.4387 2455.57,-32.0173"/>
</g>
<!-- Node9&#45;&gt;Node3 -->
<g id="edge18" class="edge"><title>Node9&#45;&gt;Node3</title>
<path fill="none" stroke="midnightblue" d="M2195.79,-290.497C2221.49,-281.123 2259.32,-267.324 2287.59,-257.012"/>
<polygon fill="midnightblue" stroke="midnightblue" points="2288.96,-260.238 2297.15,-253.523 2286.56,-253.662 2288.96,-260.238"/>
</g>
<!-- Node10&#45;&gt;Node3 -->
<g id="edge22" class="edge"><title>Node10&#45;&gt;Node3</title>
<path fill="none" stroke="midnightblue" d="M1810.73,-290.842C1813.52,-290.556 1816.28,-290.274 1819,-290 1959.44,-275.843 2121.94,-261.061 2224.34,-251.941"/>
<polygon fill="midnightblue" stroke="midnightblue" points="2224.72,-255.422 2234.37,-251.049 2224.1,-248.449 2224.72,-255.422"/>
</g>
<!-- Node11&#45;&gt;Node3 -->
<g id="edge26" class="edge"><title>Node11&#45;&gt;Node3</title>
<path fill="none" stroke="midnightblue" d="M1997.62,-290.497C2066.81,-280.488 2170.88,-265.436 2243.25,-254.969"/>
<polygon fill="midnightblue" stroke="midnightblue" points="2243.85,-258.419 2253.25,-253.523 2242.85,-251.491 2243.85,-258.419"/>
</g>
<!-- Node12&#45;&gt;Node3 -->
<g id="edge30" class="edge"><title>Node12&#45;&gt;Node3</title>
<path fill="none" stroke="midnightblue" d="M2859.33,-352.579C2920.64,-346.53 2985.86,-334.789 3005,-312 3011.29,-304.513 3011.67,-297.149 3005,-290 2985.63,-269.24 2612.45,-253.155 2427.77,-246.431"/>
<polygon fill="midnightblue" stroke="midnightblue" points="2427.62,-242.923 2417.5,-246.06 2427.37,-249.919 2427.62,-242.923"/>
</g>
<!-- Node13 -->
<g id="node29" class="node"><title>Node13</title>
<a xlink:href="SSDSAlternation_8h.html" target="_top" xlink:title="walking&#45;client/constraints/SSDSAlternation.h">
<polygon fill="white" stroke="black" points="3052,-290.5 3052,-311.5 3264,-311.5 3264,-290.5 3052,-290.5"/>
<text text-anchor="middle" x="3158" y="-298.5" font-family="Helvetica,sans-Serif" font-size="10.00">walking&#45;client/constraints/SSDSAlternation.h</text>
</a>
</g>
<!-- Node12&#45;&gt;Node13 -->
<g id="edge32" class="edge"><title>Node12&#45;&gt;Node13</title>
<path fill="none" stroke="midnightblue" d="M2813.24,-348.497C2886.03,-338.468 2995.59,-323.374 3071.59,-312.904"/>
<polygon fill="midnightblue" stroke="midnightblue" points="3072.19,-316.355 3081.62,-311.523 3071.23,-309.421 3072.19,-316.355"/>
</g>
<!-- Node14 -->
<g id="node32" class="node"><title>Node14</title>
<a xlink:href="SingleSupport_8h.html" target="_top" xlink:title="walking&#45;client/constraints/SingleSupport.h">
<polygon fill="white" stroke="black" points="2273.5,-290.5 2273.5,-311.5 2472.5,-311.5 2472.5,-290.5 2273.5,-290.5"/>
<text text-anchor="middle" x="2373" y="-298.5" font-family="Helvetica,sans-Serif" font-size="10.00">walking&#45;client/constraints/SingleSupport.h</text>
</a>
</g>
<!-- Node12&#45;&gt;Node14 -->
<g id="edge36" class="edge"><title>Node12&#45;&gt;Node14</title>
<path fill="none" stroke="midnightblue" d="M2671.08,-348.497C2608.53,-338.529 2514.58,-323.559 2448.92,-313.097"/>
<polygon fill="midnightblue" stroke="midnightblue" points="2449.47,-309.64 2439.04,-311.523 2448.37,-316.553 2449.47,-309.64"/>
</g>
<!-- Node15 -->
<g id="node35" class="node"><title>Node15</title>
<a xlink:href="ContactConfigHistory_8h.html" target="_top" xlink:title="walking&#45;client/constraints/ContactConfigHistory.h">
<polygon fill="white" stroke="black" points="2489.5,-290.5 2489.5,-311.5 2722.5,-311.5 2722.5,-290.5 2489.5,-290.5"/>
<text text-anchor="middle" x="2606" y="-298.5" font-family="Helvetica,sans-Serif" font-size="10.00">walking&#45;client/constraints/ContactConfigHistory.h</text>
</a>
</g>
<!-- Node12&#45;&gt;Node15 -->
<g id="edge40" class="edge"><title>Node12&#45;&gt;Node15</title>
<path fill="none" stroke="midnightblue" d="M2713.28,-348.497C2692.63,-339.356 2662.48,-326.008 2639.4,-315.788"/>
<polygon fill="midnightblue" stroke="midnightblue" points="2640.55,-312.469 2629.99,-311.621 2637.72,-318.87 2640.55,-312.469"/>
</g>
<!-- Node16 -->
<g id="node38" class="node"><title>Node16</title>
<a xlink:href="ContactConfigEnforcement_8h.html" target="_top" xlink:title="walking&#45;client/constraints/ContactConfigEnforcement.h">
<polygon fill="white" stroke="black" points="2739.5,-290.5 2739.5,-311.5 2996.5,-311.5 2996.5,-290.5 2739.5,-290.5"/>
<text text-anchor="middle" x="2868" y="-298.5" font-family="Helvetica,sans-Serif" font-size="10.00">walking&#45;client/constraints/ContactConfigEnforcement.h</text>
</a>
</g>
<!-- Node12&#45;&gt;Node16 -->
<g id="edge44" class="edge"><title>Node12&#45;&gt;Node16</title>
<path fill="none" stroke="midnightblue" d="M2760.72,-348.497C2781.37,-339.356 2811.52,-326.008 2834.6,-315.788"/>
<polygon fill="midnightblue" stroke="midnightblue" points="2836.28,-318.87 2844.01,-311.621 2833.45,-312.469 2836.28,-318.87"/>
</g>
<!-- Node13&#45;&gt;Node3 -->
<g id="edge34" class="edge"><title>Node13&#45;&gt;Node3</title>
<path fill="none" stroke="midnightblue" d="M3051.68,-291.109C3047.06,-290.725 3042.48,-290.353 3038,-290 2820.83,-272.881 2566.06,-257.104 2427.81,-248.902"/>
<polygon fill="midnightblue" stroke="midnightblue" points="2427.85,-245.398 2417.66,-248.301 2427.43,-252.386 2427.85,-245.398"/>
</g>
<!-- Node14&#45;&gt;Node3 -->
<g id="edge38" class="edge"><title>Node14&#45;&gt;Node3</title>
<path fill="none" stroke="midnightblue" d="M2364.38,-290.362C2357.82,-282.268 2348.63,-270.932 2340.89,-261.38"/>
<polygon fill="midnightblue" stroke="midnightblue" points="2343.58,-259.136 2334.57,-253.571 2338.14,-263.544 2343.58,-259.136"/>
</g>
<!-- Node15&#45;&gt;Node3 -->
<g id="edge42" class="edge"><title>Node15&#45;&gt;Node3</title>
<path fill="none" stroke="midnightblue" d="M2555.29,-290.497C2507.97,-280.693 2437.27,-266.05 2386.91,-255.616"/>
<polygon fill="midnightblue" stroke="midnightblue" points="2387.3,-252.124 2376.8,-253.523 2385.88,-258.979 2387.3,-252.124"/>
</g>
<!-- Node16&#45;&gt;Node3 -->
<g id="edge46" class="edge"><title>Node16&#45;&gt;Node3</title>
<path fill="none" stroke="midnightblue" d="M2769.85,-290.497C2673.06,-280.139 2525.79,-264.38 2427.77,-253.891"/>
<polygon fill="midnightblue" stroke="midnightblue" points="2427.87,-250.381 2417.55,-252.797 2427.12,-257.342 2427.87,-250.381"/>
</g>
<!-- Node17&#45;&gt;Node4 -->
<g id="edge52" class="edge"><title>Node17&#45;&gt;Node4</title>
<path fill="none" stroke="midnightblue" d="M1161.34,-232.497C1210.29,-222.673 1283.45,-207.988 1335.46,-197.551"/>
<polygon fill="midnightblue" stroke="midnightblue" points="1336.45,-200.922 1345.57,-195.523 1335.07,-194.059 1336.45,-200.922"/>
</g>
<!-- Node18 -->
<g id="node43" class="node"><title>Node18</title>
<polygon fill="white" stroke="#bfbfbf" points="1031.5,-174.5 1031.5,-195.5 1186.5,-195.5 1186.5,-174.5 1031.5,-174.5"/>
<text text-anchor="middle" x="1109" y="-182.5" font-family="Helvetica,sans-Serif" font-size="10.00">ocra&#45;recipes/TrajectoryThread.h</text>
</g>
<!-- Node17&#45;&gt;Node18 -->
<g id="edge50" class="edge"><title>Node17&#45;&gt;Node18</title>
<path fill="none" stroke="midnightblue" d="M1109,-232.362C1109,-224.922 1109,-214.743 1109,-205.728"/>
<polygon fill="midnightblue" stroke="midnightblue" points="1112.5,-205.571 1109,-195.571 1105.5,-205.571 1112.5,-205.571"/>
</g>
<!-- Node19&#45;&gt;Node5 -->
<g id="edge62" class="edge"><title>Node19&#45;&gt;Node5</title>
<path fill="none" stroke="midnightblue" d="M1608.34,-290.996C1611.26,-290.654 1614.16,-290.32 1617,-290 1780.74,-271.545 1829.13,-304.428 1986,-254 2004.58,-248.028 2005.62,-238.553 2024,-232 2118.57,-198.29 2148.51,-215.451 2247,-196 2248.46,-195.711 2249.95,-195.409 2251.45,-195.097"/>
<polygon fill="midnightblue" stroke="midnightblue" points="2252.42,-198.469 2261.45,-192.929 2250.93,-191.628 2252.42,-198.469"/>
</g>
<!-- Node19&#45;&gt;Node17 -->
<g id="edge148" class="edge"><title>Node19&#45;&gt;Node17</title>
<path fill="none" stroke="midnightblue" d="M1454.58,-290.497C1381.04,-280.39 1270.08,-265.139 1193.84,-254.661"/>
<polygon fill="midnightblue" stroke="midnightblue" points="1194.17,-251.173 1183.79,-253.279 1193.22,-258.108 1194.17,-251.173"/>
</g>
<!-- Node20 -->
<g id="node48" class="node"><title>Node20</title>
<polygon fill="white" stroke="#bfbfbf" points="2032.5,-232.5 2032.5,-253.5 2135.5,-253.5 2135.5,-232.5 2032.5,-232.5"/>
<text text-anchor="middle" x="2084" y="-240.5" font-family="Helvetica,sans-Serif" font-size="10.00">boost/geometry.hpp</text>
</g>
<!-- Node19&#45;&gt;Node20 -->
<g id="edge56" class="edge"><title>Node19&#45;&gt;Node20</title>
<path fill="none" stroke="midnightblue" d="M1608.34,-290.967C1611.26,-290.633 1614.16,-290.309 1617,-290 1795.33,-270.617 1841.1,-276.983 2019,-254 2020.08,-253.861 2021.17,-253.717 2022.26,-253.568"/>
<polygon fill="midnightblue" stroke="midnightblue" points="2022.85,-257.019 2032.25,-252.133 2021.86,-250.09 2022.85,-257.019"/>
</g>
<!-- Node21 -->
<g id="node50" class="node"><title>Node21</title>
<polygon fill="white" stroke="#bfbfbf" points="1200.5,-232.5 1200.5,-253.5 1391.5,-253.5 1391.5,-232.5 1200.5,-232.5"/>
<text text-anchor="middle" x="1296" y="-240.5" font-family="Helvetica,sans-Serif" font-size="10.00">boost/geometry/geometries/polygon.hpp</text>
</g>
<!-- Node19&#45;&gt;Node21 -->
<g id="edge58" class="edge"><title>Node19&#45;&gt;Node21</title>
<path fill="none" stroke="midnightblue" d="M1488.44,-290.497C1449.14,-280.795 1390.63,-266.355 1348.45,-255.945"/>
<polygon fill="midnightblue" stroke="midnightblue" points="1349.18,-252.521 1338.64,-253.523 1347.51,-259.317 1349.18,-252.521"/>
</g>
<!-- Node22 -->
<g id="node52" class="node"><title>Node22</title>
<polygon fill="white" stroke="#bfbfbf" points="1408.5,-232.5 1408.5,-253.5 1653.5,-253.5 1653.5,-232.5 1408.5,-232.5"/>
<text text-anchor="middle" x="1531" y="-240.5" font-family="Helvetica,sans-Serif" font-size="10.00">boost/geometry/geometries/adapted/boost_tuple.hpp</text>
</g>
<!-- Node19&#45;&gt;Node22 -->
<g id="edge60" class="edge"><title>Node19&#45;&gt;Node22</title>
<path fill="none" stroke="midnightblue" d="M1531,-290.362C1531,-282.922 1531,-272.743 1531,-263.728"/>
<polygon fill="midnightblue" stroke="midnightblue" points="1534.5,-263.571 1531,-253.571 1527.5,-263.571 1534.5,-263.571"/>
</g>
<!-- Node23 -->
<g id="node55" class="node"><title>Node23</title>
<a xlink:href="MIQPState_8h.html" target="_top" xlink:title="walking&#45;client/MIQPState.h">
<polygon fill="white" stroke="black" points="1841,-232.5 1841,-253.5 1977,-253.5 1977,-232.5 1841,-232.5"/>
<text text-anchor="middle" x="1909" y="-240.5" font-family="Helvetica,sans-Serif" font-size="10.00">walking&#45;client/MIQPState.h</text>
</a>
</g>
<!-- Node19&#45;&gt;Node23 -->
<g id="edge64" class="edge"><title>Node19&#45;&gt;Node23</title>
<path fill="none" stroke="midnightblue" d="M1599.45,-290.497C1664.51,-280.514 1762.28,-265.512 1830.48,-255.048"/>
<polygon fill="midnightblue" stroke="midnightblue" points="1831.38,-258.45 1840.74,-253.474 1830.32,-251.531 1831.38,-258.45"/>
</g>
<!-- Node50 -->
<g id="node125" class="node"><title>Node50</title>
<polygon fill="white" stroke="#bfbfbf" points="1671,-232.5 1671,-253.5 1823,-253.5 1823,-232.5 1671,-232.5"/>
<text text-anchor="middle" x="1747" y="-240.5" font-family="Helvetica,sans-Serif" font-size="10.00">ocra&#45;recipes/TaskConnection.h</text>
</g>
<!-- Node19&#45;&gt;Node50 -->
<g id="edge150" class="edge"><title>Node19&#45;&gt;Node50</title>
<path fill="none" stroke="midnightblue" d="M1570.12,-290.497C1605.94,-280.877 1659.12,-266.598 1697.81,-256.209"/>
<polygon fill="midnightblue" stroke="midnightblue" points="1699.06,-259.497 1707.81,-253.523 1697.25,-252.736 1699.06,-259.497"/>
</g>
<!-- Node23&#45;&gt;Node4 -->
<g id="edge144" class="edge"><title>Node23&#45;&gt;Node4</title>
<path fill="none" stroke="midnightblue" d="M1840.59,-233.066C1837.69,-232.696 1834.82,-232.339 1832,-232 1668.84,-212.375 1626.92,-217.521 1464,-196 1462.91,-195.855 1461.8,-195.707 1460.69,-195.554"/>
<polygon fill="midnightblue" stroke="midnightblue" points="1460.95,-192.054 1450.55,-194.087 1459.94,-198.982 1460.95,-192.054"/>
</g>
<!-- Node23&#45;&gt;Node7 -->
<g id="edge142" class="edge"><title>Node23&#45;&gt;Node7</title>
<path fill="none" stroke="midnightblue" d="M1958.08,-232.497C2003.88,-222.693 2072.3,-208.05 2121.05,-197.616"/>
<polygon fill="midnightblue" stroke="midnightblue" points="2121.79,-201.038 2130.83,-195.523 2120.32,-194.193 2121.79,-201.038"/>
</g>
<!-- Node24 -->
<g id="node57" class="node"><title>Node24</title>
<polygon fill="white" stroke="#bfbfbf" points="-0.5,-0.5 -0.5,-21.5 72.5,-21.5 72.5,-0.5 -0.5,-0.5"/>
<text text-anchor="middle" x="36" y="-8.5" font-family="Helvetica,sans-Serif" font-size="10.00">Eigen/Dense</text>
</g>
<!-- Node23&#45;&gt;Node24 -->
<g id="edge66" class="edge"><title>Node23&#45;&gt;Node24</title>
<path fill="none" stroke="midnightblue" d="M1840.6,-232.977C1837.69,-232.631 1834.82,-232.304 1832,-232 1612.69,-208.388 1556.17,-220.906 1337,-196 1273.54,-188.789 1258.2,-183.206 1195,-174 703.901,-102.459 573.7,-115.054 82.9537,-22.2498"/>
<polygon fill="midnightblue" stroke="midnightblue" points="83.2459,-18.7429 72.7688,-20.3185 81.9416,-25.6203 83.2459,-18.7429"/>
</g>
<!-- Node25 -->
<g id="node59" class="node"><title>Node25</title>
<a xlink:href="OcraWbiModel_8h.html" target="_top" xlink:title="Implementation of ocra::Model using wholeBodyInterface.">
<polygon fill="white" stroke="black" points="1968,-174.5 1968,-195.5 2100,-195.5 2100,-174.5 1968,-174.5"/>
<text text-anchor="middle" x="2034" y="-182.5" font-family="Helvetica,sans-Serif" font-size="10.00">ocra&#45;icub/OcraWbiModel.h</text>
</a>
</g>
<!-- Node23&#45;&gt;Node25 -->
<g id="edge68" class="edge"><title>Node23&#45;&gt;Node25</title>
<path fill="none" stroke="midnightblue" d="M1931.64,-232.497C1951.25,-223.397 1979.85,-210.127 2001.83,-199.925"/>
<polygon fill="midnightblue" stroke="midnightblue" points="2003.51,-203.005 2011.11,-195.621 2000.57,-196.655 2003.51,-203.005"/>
</g>
<!-- Node33 -->
<g id="node78" class="node"><title>Node33</title>
<a xlink:href="Utilities_8h.html" target="_top" xlink:title="Some useful tools for the ocra&#45;icub lib.">
<polygon fill="white" stroke="red" points="1471.5,-58.5 1471.5,-79.5 1572.5,-79.5 1572.5,-58.5 1471.5,-58.5"/>
<text text-anchor="middle" x="1522" y="-66.5" font-family="Helvetica,sans-Serif" font-size="10.00">ocra&#45;icub/Utilities.h</text>
</a>
</g>
<!-- Node23&#45;&gt;Node33 -->
<g id="edge146" class="edge"><title>Node23&#45;&gt;Node33</title>
<path fill="none" stroke="midnightblue" d="M1885.37,-232.377C1819.12,-202.588 1631.41,-118.192 1554.99,-83.8307"/>
<polygon fill="midnightblue" stroke="midnightblue" points="1556.36,-80.6132 1545.81,-79.7046 1553.49,-86.9976 1556.36,-80.6132"/>
</g>
<!-- Node25&#45;&gt;Node8 -->
<g id="edge70" class="edge"><title>Node25&#45;&gt;Node8</title>
<path fill="none" stroke="midnightblue" d="M2100.24,-175.171C2156.06,-166.15 2231.01,-152.086 2258,-138 2303.99,-113.999 2299.12,-85.6799 2343,-58 2357.6,-48.7904 2398.05,-33.774 2428.19,-23.1975"/>
<polygon fill="midnightblue" stroke="midnightblue" points="2429.67,-26.3886 2437.96,-19.7958 2427.37,-19.7776 2429.67,-26.3886"/>
</g>
<!-- Node26 -->
<g id="node62" class="node"><title>Node26</title>
<polygon fill="white" stroke="#bfbfbf" points="89.5,-0.5 89.5,-21.5 194.5,-21.5 194.5,-0.5 89.5,-0.5"/>
<text text-anchor="middle" x="142" y="-8.5" font-family="Helvetica,sans-Serif" font-size="10.00">ocra/control/Model.h</text>
</g>
<!-- Node25&#45;&gt;Node26 -->
<g id="edge72" class="edge"><title>Node25&#45;&gt;Node26</title>
<path fill="none" stroke="midnightblue" d="M1967.97,-175.295C1905.95,-166.076 1810.59,-151.634 1728,-138 1526.28,-104.701 1478.34,-79.2617 1275,-58 804.229,-8.77503 678.809,-71.5316 204.698,-22.0418"/>
<polygon fill="midnightblue" stroke="midnightblue" points="204.815,-18.5347 194.503,-20.9659 204.08,-25.4961 204.815,-18.5347"/>
</g>
<!-- Node27 -->
<g id="node64" class="node"><title>Node27</title>
<polygon fill="white" stroke="#bfbfbf" points="2026,-0.5 2026,-21.5 2084,-21.5 2084,-0.5 2026,-0.5"/>
<text text-anchor="middle" x="2055" y="-8.5" font-family="Helvetica,sans-Serif" font-size="10.00">wbi/wbi.h</text>
</g>
<!-- Node25&#45;&gt;Node27 -->
<g id="edge74" class="edge"><title>Node25&#45;&gt;Node27</title>
<path fill="none" stroke="midnightblue" d="M2035.28,-174.377C2038.67,-146.293 2047.92,-69.6735 2052.44,-32.2027"/>
<polygon fill="midnightblue" stroke="midnightblue" points="2055.96,-32.2751 2053.68,-21.9277 2049.01,-31.4363 2055.96,-32.2751"/>
</g>
<!-- Node28 -->
<g id="node66" class="node"><title>Node28</title>
<polygon fill="white" stroke="#bfbfbf" points="2344,-0.5 2344,-21.5 2420,-21.5 2420,-0.5 2344,-0.5"/>
<text text-anchor="middle" x="2382" y="-8.5" font-family="Helvetica,sans-Serif" font-size="10.00">yarp/os/Log.h</text>
</g>
<!-- Node25&#45;&gt;Node28 -->
<g id="edge76" class="edge"><title>Node25&#45;&gt;Node28</title>
<path fill="none" stroke="midnightblue" d="M2095.16,-174.439C2144.09,-165.255 2208.16,-151.359 2231,-138 2272.81,-113.545 2267.53,-88.6873 2305,-58 2319.65,-46.0025 2337.64,-34.8538 2352.54,-26.4284"/>
<polygon fill="midnightblue" stroke="midnightblue" points="2354.31,-29.4518 2361.37,-21.5511 2350.92,-23.3253 2354.31,-29.4518"/>
</g>
<!-- Node29 -->
<g id="node68" class="node"><title>Node29</title>
<a xlink:href="OcraWbiConversions_8h.html" target="_top" xlink:title="A utility class full of static conversion functions.">
<polygon fill="white" stroke="red" points="2061.5,-116.5 2061.5,-137.5 2222.5,-137.5 2222.5,-116.5 2061.5,-116.5"/>
<text text-anchor="middle" x="2142" y="-124.5" font-family="Helvetica,sans-Serif" font-size="10.00">ocra&#45;icub/OcraWbiConversions.h</text>
</a>
</g>
<!-- Node25&#45;&gt;Node29 -->
<g id="edge78" class="edge"><title>Node25&#45;&gt;Node29</title>
<path fill="none" stroke="midnightblue" d="M2053.56,-174.497C2070.2,-165.56 2094.33,-152.602 2113.18,-142.477"/>
<polygon fill="midnightblue" stroke="midnightblue" points="2115.07,-145.436 2122.22,-137.621 2111.76,-139.269 2115.07,-145.436"/>
</g>
<!-- Node25&#45;&gt;Node33 -->
<g id="edge140" class="edge"><title>Node25&#45;&gt;Node33</title>
<path fill="none" stroke="midnightblue" d="M1987.21,-174.398C1892.84,-153.018 1680.06,-104.81 1578.29,-81.7529"/>
<polygon fill="midnightblue" stroke="midnightblue" points="1579.03,-78.3314 1568.5,-79.5352 1577.48,-85.1583 1579.03,-78.3314"/>
</g>
<!-- Node29&#45;&gt;Node27 -->
<g id="edge88" class="edge"><title>Node29&#45;&gt;Node27</title>
<path fill="none" stroke="midnightblue" d="M2133.97,-116.295C2119.21,-96.6135 2087.59,-54.4504 2069.15,-29.8668"/>
<polygon fill="midnightblue" stroke="midnightblue" points="2071.81,-27.5792 2063.01,-21.6792 2066.21,-31.7792 2071.81,-27.5792"/>
</g>
<!-- Node29&#45;&gt;Node28 -->
<g id="edge86" class="edge"><title>Node29&#45;&gt;Node28</title>
<path fill="none" stroke="midnightblue" d="M2160.74,-116.305C2190.25,-99.5223 2246.32,-67.8944 2267,-58 2292.25,-45.9199 2321.46,-34.0076 2344.12,-25.1982"/>
<polygon fill="midnightblue" stroke="midnightblue" points="2345.64,-28.3623 2353.72,-21.5007 2343.13,-21.8304 2345.64,-28.3623"/>
</g>
<!-- Node30 -->
<g id="node70" class="node"><title>Node30</title>
<polygon fill="white" stroke="#bfbfbf" points="2102,-0.5 2102,-21.5 2156,-21.5 2156,-0.5 2102,-0.5"/>
<text text-anchor="middle" x="2129" y="-8.5" font-family="Helvetica,sans-Serif" font-size="10.00">iostream</text>
</g>
<!-- Node29&#45;&gt;Node30 -->
<g id="edge80" class="edge"><title>Node29&#45;&gt;Node30</title>
<path fill="none" stroke="midnightblue" d="M2140.8,-116.295C2138.65,-97.1314 2134.12,-56.654 2131.34,-31.8434"/>
<polygon fill="midnightblue" stroke="midnightblue" points="2134.79,-31.2272 2130.2,-21.6792 2127.83,-32.0068 2134.79,-31.2272"/>
</g>
<!-- Node31 -->
<g id="node72" class="node"><title>Node31</title>
<polygon fill="white" stroke="#bfbfbf" points="2174,-0.5 2174,-21.5 2218,-21.5 2218,-0.5 2174,-0.5"/>
<text text-anchor="middle" x="2196" y="-8.5" font-family="Helvetica,sans-Serif" font-size="10.00">vector</text>
</g>
<!-- Node29&#45;&gt;Node31 -->
<g id="edge82" class="edge"><title>Node29&#45;&gt;Node31</title>
<path fill="none" stroke="midnightblue" d="M2146.98,-116.295C2156.02,-96.8724 2175.26,-55.5561 2186.76,-30.8462"/>
<polygon fill="midnightblue" stroke="midnightblue" points="2189.98,-32.2222 2191.03,-21.6792 2183.64,-29.2679 2189.98,-32.2222"/>
</g>
<!-- Node32 -->
<g id="node74" class="node"><title>Node32</title>
<polygon fill="white" stroke="#bfbfbf" points="2235.5,-0.5 2235.5,-21.5 2326.5,-21.5 2326.5,-0.5 2235.5,-0.5"/>
<text text-anchor="middle" x="2281" y="-8.5" font-family="Helvetica,sans-Serif" font-size="10.00">yarp/sig/Vector.h</text>
</g>
<!-- Node29&#45;&gt;Node32 -->
<g id="edge84" class="edge"><title>Node29&#45;&gt;Node32</title>
<path fill="none" stroke="midnightblue" d="M2154.83,-116.295C2178.93,-96.1819 2231.16,-52.5904 2260.3,-28.2752"/>
<polygon fill="midnightblue" stroke="midnightblue" points="2262.77,-30.7737 2268.2,-21.6792 2258.28,-25.3993 2262.77,-30.7737"/>
</g>
<!-- Node29&#45;&gt;Node33 -->
<g id="edge90" class="edge"><title>Node29&#45;&gt;Node33</title>
<path fill="none" stroke="midnightblue" d="M2061.26,-119.447C1935.33,-107.666 1694.95,-85.179 1582.64,-74.6726"/>
<polygon fill="midnightblue" stroke="midnightblue" points="1582.78,-71.171 1572.5,-73.7243 1582.13,-78.1406 1582.78,-71.171"/>
</g>
<!-- Node33&#45;&gt;Node8 -->
<g id="edge92" class="edge"><title>Node33&#45;&gt;Node8</title>
<path fill="none" stroke="midnightblue" d="M1572.66,-68.0575C1735.2,-64.7745 2243.24,-52.4359 2427.69,-21.7729"/>
<polygon fill="midnightblue" stroke="midnightblue" points="2428.55,-25.1762 2437.81,-20.014 2427.35,-18.2798 2428.55,-25.1762"/>
</g>
<!-- Node33&#45;&gt;Node24 -->
<g id="edge138" class="edge"><title>Node33&#45;&gt;Node24</title>
<path fill="none" stroke="midnightblue" d="M1471.39,-66.5334C1421.47,-64.1505 1342.99,-60.5387 1275,-58 1012.97,-48.2156 360.233,-57.4805 82.8276,-21.9764"/>
<polygon fill="midnightblue" stroke="midnightblue" points="83.0891,-18.4806 72.7166,-20.6395 82.1715,-25.4202 83.0891,-18.4806"/>
</g>
<!-- Node33&#45;&gt;Node26 -->
<g id="edge134" class="edge"><title>Node33&#45;&gt;Node26</title>
<path fill="none" stroke="midnightblue" d="M1471.43,-59.6291C1466.9,-58.9953 1462.38,-58.4365 1458,-58 906.139,-2.93871 759.801,-78.7392 204.773,-22.042"/>
<polygon fill="midnightblue" stroke="midnightblue" points="204.808,-18.527 194.501,-20.9824 204.089,-25.4901 204.808,-18.527"/>
</g>
<!-- Node33&#45;&gt;Node27 -->
<g id="edge132" class="edge"><title>Node33&#45;&gt;Node27</title>
<path fill="none" stroke="midnightblue" d="M1572.68,-67.3148C1661.03,-63.6982 1848.99,-52.9969 2015.73,-21.9567"/>
<polygon fill="midnightblue" stroke="midnightblue" points="2016.5,-25.3745 2025.67,-20.0774 2015.2,-18.4964 2016.5,-25.3745"/>
</g>
<!-- Node33&#45;&gt;Node28 -->
<g id="edge122" class="edge"><title>Node33&#45;&gt;Node28</title>
<path fill="none" stroke="midnightblue" d="M1572.65,-67.2156C1723.31,-61.7308 2167.94,-44.2186 2333.84,-21.9071"/>
<polygon fill="midnightblue" stroke="midnightblue" points="2334.47,-25.353 2343.89,-20.4995 2333.5,-18.4207 2334.47,-25.353"/>
</g>
<!-- Node33&#45;&gt;Node30 -->
<g id="edge96" class="edge"><title>Node33&#45;&gt;Node30</title>
<path fill="none" stroke="midnightblue" d="M1572.54,-66.2339C1689.37,-59.6209 1976.37,-42.0706 2091.67,-21.8604"/>
<polygon fill="midnightblue" stroke="midnightblue" points="2092.44,-25.2789 2101.64,-20.0234 2091.17,-18.395 2092.44,-25.2789"/>
</g>
<!-- Node33&#45;&gt;Node31 -->
<g id="edge100" class="edge"><title>Node33&#45;&gt;Node31</title>
<path fill="none" stroke="midnightblue" d="M1572.61,-67.0523C1700.27,-61.8672 2033.82,-46.5568 2163.75,-21.7007"/>
<polygon fill="midnightblue" stroke="midnightblue" points="2164.75,-25.0712 2173.85,-19.6603 2163.36,-18.2098 2164.75,-25.0712"/>
</g>
<!-- Node33&#45;&gt;Node32 -->
<g id="edge128" class="edge"><title>Node33&#45;&gt;Node32</title>
<path fill="none" stroke="midnightblue" d="M1572.67,-67.9556C1687.33,-65.0904 1975.52,-55.0694 2225.41,-22.0706"/>
<polygon fill="midnightblue" stroke="midnightblue" points="2225.96,-25.5288 2235.41,-20.7357 2225.03,-18.5904 2225.96,-25.5288"/>
</g>
<!-- Node34 -->
<g id="node81" class="node"><title>Node34</title>
<polygon fill="white" stroke="#bfbfbf" points="1326,-0.5 1326,-21.5 1370,-21.5 1370,-0.5 1326,-0.5"/>
<text text-anchor="middle" x="1348" y="-8.5" font-family="Helvetica,sans-Serif" font-size="10.00">cmath</text>
</g>
<!-- Node33&#45;&gt;Node34 -->
<g id="edge94" class="edge"><title>Node33&#45;&gt;Node34</title>
<path fill="none" stroke="midnightblue" d="M1489.27,-58.4837C1462.22,-49.7398 1422.6,-36.8067 1379.8,-22.2283"/>
<polygon fill="midnightblue" stroke="midnightblue" points="1380.92,-18.9145 1370.33,-18.9936 1378.66,-25.5386 1380.92,-18.9145"/>
</g>
<!-- Node35 -->
<g id="node84" class="node"><title>Node35</title>
<polygon fill="white" stroke="#bfbfbf" points="1387.5,-0.5 1387.5,-21.5 1428.5,-21.5 1428.5,-0.5 1387.5,-0.5"/>
<text text-anchor="middle" x="1408" y="-8.5" font-family="Helvetica,sans-Serif" font-size="10.00">string</text>
</g>
<!-- Node33&#45;&gt;Node35 -->
<g id="edge98" class="edge"><title>Node33&#45;&gt;Node35</title>
<path fill="none" stroke="midnightblue" d="M1501.36,-58.4966C1483.63,-49.4786 1457.86,-36.3649 1437.88,-26.2006"/>
<polygon fill="midnightblue" stroke="midnightblue" points="1439.38,-23.0364 1428.88,-21.6212 1436.2,-29.2753 1439.38,-23.0364"/>
</g>
<!-- Node36 -->
<g id="node87" class="node"><title>Node36</title>
<polygon fill="white" stroke="#bfbfbf" points="1446,-0.5 1446,-21.5 1498,-21.5 1498,-0.5 1446,-0.5"/>
<text text-anchor="middle" x="1472" y="-8.5" font-family="Helvetica,sans-Serif" font-size="10.00">sstream</text>
</g>
<!-- Node33&#45;&gt;Node36 -->
<g id="edge102" class="edge"><title>Node33&#45;&gt;Node36</title>
<path fill="none" stroke="midnightblue" d="M1512.83,-58.3619C1505.85,-50.2678 1496.08,-38.9318 1487.84,-29.3796"/>
<polygon fill="midnightblue" stroke="midnightblue" points="1490.29,-26.8595 1481.11,-21.5707 1484.99,-31.4301 1490.29,-26.8595"/>
</g>
<!-- Node37 -->
<g id="node89" class="node"><title>Node37</title>
<polygon fill="white" stroke="#bfbfbf" points="1515.5,-0.5 1515.5,-21.5 1630.5,-21.5 1630.5,-0.5 1515.5,-0.5"/>
<text text-anchor="middle" x="1573" y="-8.5" font-family="Helvetica,sans-Serif" font-size="10.00">yarp/os/BufferedPort.h</text>
</g>
<!-- Node33&#45;&gt;Node37 -->
<g id="edge104" class="edge"><title>Node33&#45;&gt;Node37</title>
<path fill="none" stroke="midnightblue" d="M1531.35,-58.3619C1538.54,-50.1861 1548.64,-38.7025 1557.09,-29.0907"/>
<polygon fill="midnightblue" stroke="midnightblue" points="1559.73,-31.3916 1563.71,-21.5707 1554.47,-26.7692 1559.73,-31.3916"/>
</g>
<!-- Node38 -->
<g id="node91" class="node"><title>Node38</title>
<polygon fill="white" stroke="#bfbfbf" points="1648,-0.5 1648,-21.5 1734,-21.5 1734,-0.5 1648,-0.5"/>
<text text-anchor="middle" x="1691" y="-8.5" font-family="Helvetica,sans-Serif" font-size="10.00">yarp/os/Bottle.h</text>
</g>
<!-- Node33&#45;&gt;Node38 -->
<g id="edge106" class="edge"><title>Node33&#45;&gt;Node38</title>
<path fill="none" stroke="midnightblue" d="M1552.6,-58.4966C1580.04,-49.082 1620.48,-35.2036 1650.56,-24.8773"/>
<polygon fill="midnightblue" stroke="midnightblue" points="1652.02,-28.0797 1660.34,-21.5231 1649.74,-21.4588 1652.02,-28.0797"/>
</g>
<!-- Node39 -->
<g id="node93" class="node"><title>Node39</title>
<polygon fill="white" stroke="#bfbfbf" points="1751.5,-0.5 1751.5,-21.5 1862.5,-21.5 1862.5,-0.5 1751.5,-0.5"/>
<text text-anchor="middle" x="1807" y="-8.5" font-family="Helvetica,sans-Serif" font-size="10.00">yarp/os/RateThread.h</text>
</g>
<!-- Node33&#45;&gt;Node39 -->
<g id="edge108" class="edge"><title>Node33&#45;&gt;Node39</title>
<path fill="none" stroke="midnightblue" d="M1572.62,-58.6976C1620.76,-48.9013 1693.28,-34.1428 1744.89,-23.6396"/>
<polygon fill="midnightblue" stroke="midnightblue" points="1745.82,-27.0224 1754.92,-21.5984 1744.42,-20.163 1745.82,-27.0224"/>
</g>
<!-- Node40 -->
<g id="node95" class="node"><title>Node40</title>
<polygon fill="white" stroke="#bfbfbf" points="1879.5,-0.5 1879.5,-21.5 2008.5,-21.5 2008.5,-0.5 1879.5,-0.5"/>
<text text-anchor="middle" x="1944" y="-8.5" font-family="Helvetica,sans-Serif" font-size="10.00">yarp/os/ResourceFinder.h</text>
</g>
<!-- Node33&#45;&gt;Node40 -->
<g id="edge110" class="edge"><title>Node33&#45;&gt;Node40</title>
<path fill="none" stroke="midnightblue" d="M1572.61,-62.4381C1638.54,-53.8323 1757.69,-38.0895 1869.07,-22.2622"/>
<polygon fill="midnightblue" stroke="midnightblue" points="1869.72,-25.7043 1879.13,-20.8291 1868.74,-18.7742 1869.72,-25.7043"/>
</g>
<!-- Node41 -->
<g id="node97" class="node"><title>Node41</title>
<polygon fill="white" stroke="#bfbfbf" points="212,-0.5 212,-21.5 322,-21.5 322,-0.5 212,-0.5"/>
<text text-anchor="middle" x="267" y="-8.5" font-family="Helvetica,sans-Serif" font-size="10.00">yarp/os/PortReader.h</text>
</g>
<!-- Node33&#45;&gt;Node41 -->
<g id="edge112" class="edge"><title>Node33&#45;&gt;Node41</title>
<path fill="none" stroke="midnightblue" d="M1471.43,-59.6444C1466.9,-59.0074 1462.37,-58.4436 1458,-58 962.7,-7.76778 831.314,-71.7119 332.079,-21.9717"/>
<polygon fill="midnightblue" stroke="midnightblue" points="332.392,-18.4856 322.092,-20.9664 331.691,-25.4504 332.392,-18.4856"/>
</g>
<!-- Node42 -->
<g id="node99" class="node"><title>Node42</title>
<polygon fill="white" stroke="#bfbfbf" points="340,-0.5 340,-21.5 444,-21.5 444,-0.5 340,-0.5"/>
<text text-anchor="middle" x="392" y="-8.5" font-family="Helvetica,sans-Serif" font-size="10.00">yarp/os/RpcClient.h</text>
</g>
<!-- Node33&#45;&gt;Node42 -->
<g id="edge114" class="edge"><title>Node33&#45;&gt;Node42</title>
<path fill="none" stroke="midnightblue" d="M1471.43,-59.6627C1466.9,-59.0218 1462.37,-58.4521 1458,-58 1016.78,-12.3891 899.167,-68.9127 454.405,-22.0044"/>
<polygon fill="midnightblue" stroke="midnightblue" points="454.487,-18.4934 444.173,-20.9131 453.745,-25.4539 454.487,-18.4934"/>
</g>
<!-- Node43 -->
<g id="node101" class="node"><title>Node43</title>
<polygon fill="white" stroke="#bfbfbf" points="461.5,-0.5 461.5,-21.5 568.5,-21.5 568.5,-0.5 461.5,-0.5"/>
<text text-anchor="middle" x="515" y="-8.5" font-family="Helvetica,sans-Serif" font-size="10.00">yarp/os/RpcServer.h</text>
</g>
<!-- Node33&#45;&gt;Node43 -->
<g id="edge116" class="edge"><title>Node33&#45;&gt;Node43</title>
<path fill="none" stroke="midnightblue" d="M1471.43,-59.6864C1466.9,-59.0404 1462.37,-58.4631 1458,-58 1071.63,-17.0757 968.349,-63.5182 578.84,-22.076"/>
<polygon fill="midnightblue" stroke="midnightblue" points="579.022,-18.5754 568.705,-20.9848 578.273,-25.5352 579.022,-18.5754"/>
</g>
<!-- Node44 -->
<g id="node103" class="node"><title>Node44</title>
<polygon fill="white" stroke="#bfbfbf" points="585.5,-0.5 585.5,-21.5 726.5,-21.5 726.5,-0.5 585.5,-0.5"/>
<text text-anchor="middle" x="656" y="-8.5" font-family="Helvetica,sans-Serif" font-size="10.00">yarp/os/ConnectionReader.h</text>
</g>
<!-- Node33&#45;&gt;Node44 -->
<g id="edge118" class="edge"><title>Node33&#45;&gt;Node44</title>
<path fill="none" stroke="midnightblue" d="M1471.42,-59.7284C1466.89,-59.0735 1462.37,-58.4826 1458,-58 1141.49,-23.0488 1057.03,-51.6159 736.634,-22.0827"/>
<polygon fill="midnightblue" stroke="midnightblue" points="736.881,-18.5907 726.599,-21.146 736.23,-25.5604 736.881,-18.5907"/>
</g>
<!-- Node45 -->
<g id="node105" class="node"><title>Node45</title>
<polygon fill="white" stroke="#bfbfbf" points="744,-0.5 744,-21.5 826,-21.5 826,-0.5 744,-0.5"/>
<text text-anchor="middle" x="785" y="-8.5" font-family="Helvetica,sans-Serif" font-size="10.00">yarp/os/Time.h</text>
</g>
<!-- Node33&#45;&gt;Node45 -->
<g id="edge120" class="edge"><title>Node33&#45;&gt;Node45</title>
<path fill="none" stroke="midnightblue" d="M1471.42,-59.7659C1466.89,-59.103 1462.37,-58.5 1458,-58 1185.81,-26.8447 1111.55,-59.1084 836.401,-21.994"/>
<polygon fill="midnightblue" stroke="midnightblue" points="836.49,-18.4736 826.107,-20.586 835.541,-25.409 836.49,-18.4736"/>
</g>
<!-- Node46 -->
<g id="node108" class="node"><title>Node46</title>
<polygon fill="white" stroke="#bfbfbf" points="843.5,-0.5 843.5,-21.5 950.5,-21.5 950.5,-0.5 843.5,-0.5"/>
<text text-anchor="middle" x="897" y="-8.5" font-family="Helvetica,sans-Serif" font-size="10.00">yarp/os/LogStream.h</text>
</g>
<!-- Node33&#45;&gt;Node46 -->
<g id="edge124" class="edge"><title>Node33&#45;&gt;Node46</title>
<path fill="none" stroke="midnightblue" d="M1471.41,-59.8332C1466.88,-59.1559 1462.36,-58.5312 1458,-58 1240.51,-31.5287 1181.38,-48.9314 960.668,-22.1073"/>
<polygon fill="midnightblue" stroke="midnightblue" points="961.07,-18.6304 950.717,-20.8814 960.214,-25.5779 961.07,-18.6304"/>
</g>
<!-- Node47 -->
<g id="node110" class="node"><title>Node47</title>
<polygon fill="white" stroke="#bfbfbf" points="967.5,-0.5 967.5,-21.5 1064.5,-21.5 1064.5,-0.5 967.5,-0.5"/>
<text text-anchor="middle" x="1016" y="-8.5" font-family="Helvetica,sans-Serif" font-size="10.00">yarp/os/Property.h</text>
</g>
<!-- Node33&#45;&gt;Node47 -->
<g id="edge126" class="edge"><title>Node33&#45;&gt;Node47</title>
<path fill="none" stroke="midnightblue" d="M1471.4,-59.9329C1466.87,-59.2343 1462.36,-58.5775 1458,-58 1290.88,-35.8575 1244.87,-45.9088 1074.81,-22.1566"/>
<polygon fill="midnightblue" stroke="midnightblue" points="1075.16,-18.6708 1064.76,-20.7347 1074.18,-25.6017 1075.16,-18.6708"/>
</g>
<!-- Node48 -->
<g id="node113" class="node"><title>Node48</title>
<polygon fill="white" stroke="#bfbfbf" points="1081.5,-0.5 1081.5,-21.5 1170.5,-21.5 1170.5,-0.5 1081.5,-0.5"/>
<text text-anchor="middle" x="1126" y="-8.5" font-family="Helvetica,sans-Serif" font-size="10.00">yarp/sig/Matrix.h</text>
</g>
<!-- Node33&#45;&gt;Node48 -->
<g id="edge130" class="edge"><title>Node33&#45;&gt;Node48</title>
<path fill="none" stroke="midnightblue" d="M1471.38,-60.0976C1466.86,-59.3638 1462.35,-58.6539 1458,-58 1337.62,-39.8969 1304.05,-42.5595 1180.97,-22.2451"/>
<polygon fill="midnightblue" stroke="midnightblue" points="1181.21,-18.7368 1170.77,-20.5432 1180.06,-25.6413 1181.21,-18.7368"/>
</g>
<!-- Node49 -->
<g id="node117" class="node"><title>Node49</title>
<polygon fill="white" stroke="#bfbfbf" points="1187.5,-0.5 1187.5,-21.5 1308.5,-21.5 1308.5,-0.5 1187.5,-0.5"/>
<text text-anchor="middle" x="1248" y="-8.5" font-family="Helvetica,sans-Serif" font-size="10.00">ocra/util/StringUtilities.h</text>
</g>
<!-- Node33&#45;&gt;Node49 -->
<g id="edge136" class="edge"><title>Node33&#45;&gt;Node49</title>
<path fill="none" stroke="midnightblue" d="M1472.38,-58.4966C1426.07,-48.6931 1356.89,-34.0496 1307.6,-23.6165"/>
<polygon fill="midnightblue" stroke="midnightblue" points="1308.22,-20.1699 1297.71,-21.5231 1306.77,-27.0182 1308.22,-20.1699"/>
</g>
</g>
</svg>
