<?xml version="1.0" encoding="UTF-8" standalone="no"?>
<!DOCTYPE svg PUBLIC "-//W3C//DTD SVG 1.1//EN"
 "http://www.w3.org/Graphics/SVG/1.1/DTD/svg11.dtd">
<!-- Generated by graphviz version 2.26.3 (20100126.1600)
 -->
<!-- Title: G Pages: 1 -->
<svg width="4279pt" height="320pt"
 viewBox="0.00 0.00 4279.00 320.00" xmlns="http://www.w3.org/2000/svg" xmlns:xlink="http://www.w3.org/1999/xlink">
<g id="graph1" class="graph" transform="scale(1 1) rotate(0) translate(4 316)">
<title>G</title>
<polygon fill="white" stroke="white" points="-4,5 -4,-316 4276,-316 4276,5 -4,5"/>
<!-- Node1 -->
<g id="node1" class="node"><title>Node1</title>
<polygon fill="#bfbfbf" stroke="black" points="2140,-290.5 2140,-311.5 2538,-311.5 2538,-290.5 2140,-290.5"/>
<text text-anchor="middle" x="2339" y="-298.5" font-family="Helvetica,sans-Serif" font-size="10.00">ocra&#45;wbi&#45;plugins/ocra&#45;icub&#45;clients/walking&#45;client/include/walking&#45;client/MIQPController.h</text>
</g>
<!-- Node2 -->
<g id="node3" class="node"><title>Node2</title>
<polygon fill="white" stroke="#bfbfbf" points="63,-232.5 63,-253.5 137,-253.5 137,-232.5 63,-232.5"/>
<text text-anchor="middle" x="100" y="-240.5" font-family="Helvetica,sans-Serif" font-size="10.00">gurobi_c++.h</text>
</g>
<!-- Node1&#45;&gt;Node2 -->
<g id="edge2" class="edge"><title>Node1&#45;&gt;Node2</title>
<path fill="none" stroke="midnightblue" d="M2139.79,-298.894C1637.39,-293.272 344.865,-276.777 151,-254 149.735,-253.851 148.455,-253.686 147.166,-253.506"/>
<polygon fill="midnightblue" stroke="midnightblue" points="147.619,-250.034 137.186,-251.878 146.492,-256.942 147.619,-250.034"/>
</g>
<!-- Node3 -->
<g id="node5" class="node"><title>Node3</title>
<a xlink:href="utils_8h.html" target="_top" xlink:title="walking&#45;client/utils.h">
<polygon fill="white" stroke="black" points="3130.5,-0.5 3130.5,-21.5 3235.5,-21.5 3235.5,-0.5 3130.5,-0.5"/>
<text text-anchor="middle" x="3183" y="-8.5" font-family="Helvetica,sans-Serif" font-size="10.00">walking&#45;client/utils.h</text>
</a>
</g>
<!-- Node1&#45;&gt;Node3 -->
<g id="edge4" class="edge"><title>Node1&#45;&gt;Node3</title>
<path fill="none" stroke="midnightblue" d="M2538.08,-298.742C3016.4,-292.004 4191,-267.1 4191,-185 4191,-185 4191,-185 4191,-127 4191,-31.4118 3466.37,-14.5259 3245.89,-11.6004"/>
<polygon fill="midnightblue" stroke="midnightblue" points="3245.82,-8.09931 3235.78,-11.4714 3245.73,-15.0987 3245.82,-8.09931"/>
</g>
<!-- Node4 -->
<g id="node7" class="node"><title>Node4</title>
<a xlink:href="OcraWbiModel_8h.html" target="_top" xlink:title="Implementation of ocra::Model using wholeBodyInterface.">
<polygon fill="white" stroke="black" points="381,-174.5 381,-195.5 513,-195.5 513,-174.5 381,-174.5"/>
<text text-anchor="middle" x="447" y="-182.5" font-family="Helvetica,sans-Serif" font-size="10.00">ocra&#45;icub/OcraWbiModel.h</text>
</a>
</g>
<!-- Node1&#45;&gt;Node4 -->
<g id="edge6" class="edge"><title>Node1&#45;&gt;Node4</title>
<path fill="none" stroke="midnightblue" d="M2167.34,-290.475C1770.36,-266.136 801.505,-206.735 523.017,-189.661"/>
<polygon fill="midnightblue" stroke="midnightblue" points="523.206,-186.166 513.011,-189.047 522.778,-193.153 523.206,-186.166"/>
</g>
<!-- Node21 -->
<g id="node46" class="node"><title>Node21</title>
<polygon fill="white" stroke="#bfbfbf" points="-0.5,-0.5 -0.5,-21.5 110.5,-21.5 110.5,-0.5 -0.5,-0.5"/>
<text text-anchor="middle" x="55" y="-8.5" font-family="Helvetica,sans-Serif" font-size="10.00">yarp/os/RateThread.h</text>
</g>
<!-- Node1&#45;&gt;Node21 -->
<g id="edge86" class="edge"><title>Node1&#45;&gt;Node21</title>
<path fill="none" stroke="midnightblue" d="M2139.83,-295.519C1602.77,-280.087 165,-234.18 165,-185 165,-185 165,-185 165,-127 165,-80.5751 118.036,-45.2935 85.4814,-26.4138"/>
<polygon fill="midnightblue" stroke="midnightblue" points="87.1698,-23.348 76.7325,-21.5281 83.7568,-29.4596 87.1698,-23.348"/>
</g>
<!-- Node32 -->
<g id="node72" class="node"><title>Node32</title>
<polygon fill="white" stroke="#bfbfbf" points="2417.5,-0.5 2417.5,-21.5 2490.5,-21.5 2490.5,-0.5 2417.5,-0.5"/>
<text text-anchor="middle" x="2454" y="-8.5" font-family="Helvetica,sans-Serif" font-size="10.00">Eigen/Dense</text>
</g>
<!-- Node1&#45;&gt;Node32 -->
<g id="edge88" class="edge"><title>Node1&#45;&gt;Node32</title>
<path fill="none" stroke="midnightblue" d="M2278.58,-290.484C2255.54,-283.642 2230.8,-272.407 2214,-254 2192.55,-230.509 2195,-216.808 2195,-185 2195,-185 2195,-185 2195,-127 2195,-103.413 2339.92,-50.2073 2412.95,-24.8912"/>
<polygon fill="midnightblue" stroke="midnightblue" points="2414.45,-28.0787 2422.76,-21.5101 2412.16,-21.4611 2414.45,-28.0787"/>
</g>
<!-- Node33 -->
<g id="node74" class="node"><title>Node33</title>
<polygon fill="white" stroke="#bfbfbf" points="2508,-0.5 2508,-21.5 2576,-21.5 2576,-0.5 2508,-0.5"/>
<text text-anchor="middle" x="2542" y="-8.5" font-family="Helvetica,sans-Serif" font-size="10.00">Eigen/Lgsm</text>
</g>
<!-- Node1&#45;&gt;Node33 -->
<g id="edge90" class="edge"><title>Node1&#45;&gt;Node33</title>
<path fill="none" stroke="midnightblue" d="M2346.71,-290.414C2360.28,-270.711 2387,-226.628 2387,-185 2387,-185 2387,-185 2387,-127 2387,-93.1959 2394.28,-81.0613 2419,-58 2430.95,-46.8478 2467.94,-33.4869 2498.26,-23.866"/>
<polygon fill="midnightblue" stroke="midnightblue" points="2499.33,-27.2001 2507.83,-20.8813 2497.24,-20.5176 2499.33,-27.2001"/>
</g>
<!-- Node34 -->
<g id="node80" class="node"><title>Node34</title>
<polygon fill="white" stroke="#bfbfbf" points="2728,-0.5 2728,-21.5 2898,-21.5 2898,-0.5 2728,-0.5"/>
<text text-anchor="middle" x="2813" y="-8.5" font-family="Helvetica,sans-Serif" font-size="10.00">unsupported/Eigen/MatrixFunctions</text>
</g>
<!-- Node1&#45;&gt;Node34 -->
<g id="edge92" class="edge"><title>Node1&#45;&gt;Node34</title>
<path fill="none" stroke="midnightblue" d="M2365.3,-290.429C2401.7,-273.854 2463,-238.062 2463,-185 2463,-185 2463,-185 2463,-127 2463,-72.6377 2617.06,-39.3493 2720.76,-23.1004"/>
<polygon fill="midnightblue" stroke="midnightblue" points="2721.59,-26.5136 2730.94,-21.5337 2720.52,-19.595 2721.59,-26.5136"/>
</g>
<!-- Node35 -->
<g id="node82" class="node"><title>Node35</title>
<a xlink:href="MIQPLinearConstraints_8h.html" target="_top" xlink:title="walking&#45;client/constraints/MIQPLinearConstraints.h">
<polygon fill="white" stroke="black" points="2597,-232.5 2597,-253.5 2837,-253.5 2837,-232.5 2597,-232.5"/>
<text text-anchor="middle" x="2717" y="-240.5" font-family="Helvetica,sans-Serif" font-size="10.00">walking&#45;client/constraints/MIQPLinearConstraints.h</text>
</a>
</g>
<!-- Node1&#45;&gt;Node35 -->
<g id="edge94" class="edge"><title>Node1&#45;&gt;Node35</title>
<path fill="none" stroke="midnightblue" d="M2407.45,-290.497C2472.41,-280.529 2569.98,-265.559 2638.16,-255.097"/>
<polygon fill="midnightblue" stroke="midnightblue" points="2639.07,-258.499 2648.42,-253.523 2638,-251.58 2639.07,-258.499"/>
</g>
<!-- Node49 -->
<g id="node117" class="node"><title>Node49</title>
<a xlink:href="MIQPState_8h.html" target="_top" xlink:title="walking&#45;client/MIQPState.h">
<polygon fill="white" stroke="black" points="2223,-232.5 2223,-253.5 2359,-253.5 2359,-232.5 2223,-232.5"/>
<text text-anchor="middle" x="2291" y="-240.5" font-family="Helvetica,sans-Serif" font-size="10.00">walking&#45;client/MIQPState.h</text>
</a>
</g>
<!-- Node1&#45;&gt;Node49 -->
<g id="edge136" class="edge"><title>Node1&#45;&gt;Node49</title>
<path fill="none" stroke="midnightblue" d="M2330.2,-290.362C2323.5,-282.268 2314.12,-270.932 2306.21,-261.38"/>
<polygon fill="midnightblue" stroke="midnightblue" points="2308.82,-259.043 2299.75,-253.571 2303.43,-263.506 2308.82,-259.043"/>
</g>
<!-- Node50 -->
<g id="node124" class="node"><title>Node50</title>
<polygon fill="white" stroke="#bfbfbf" points="4218.5,-232.5 4218.5,-253.5 4271.5,-253.5 4271.5,-232.5 4218.5,-232.5"/>
<text text-anchor="middle" x="4245" y="-240.5" font-family="Helvetica,sans-Serif" font-size="10.00">Gurobi.h</text>
</g>
<!-- Node1&#45;&gt;Node50 -->
<g id="edge148" class="edge"><title>Node1&#45;&gt;Node50</title>
<path fill="none" stroke="midnightblue" d="M2538.08,-298.722C2985.45,-293.207 4043.91,-277.815 4205,-254 4206.07,-253.842 4207.15,-253.665 4208.24,-253.471"/>
<polygon fill="midnightblue" stroke="midnightblue" points="4209.04,-256.879 4218.08,-251.359 4207.57,-250.035 4209.04,-256.879"/>
</g>
<!-- Node5 -->
<g id="node9" class="node"><title>Node5</title>
<polygon fill="white" stroke="#bfbfbf" points="298,-0.5 298,-21.5 350,-21.5 350,-0.5 298,-0.5"/>
<text text-anchor="middle" x="324" y="-8.5" font-family="Helvetica,sans-Serif" font-size="10.00">memory</text>
</g>
<!-- Node4&#45;&gt;Node5 -->
<g id="edge8" class="edge"><title>Node4&#45;&gt;Node5</title>
<path fill="none" stroke="midnightblue" d="M436.163,-174.283C427.094,-165.06 414.06,-151.191 404,-138 376.396,-101.805 349.214,-55.8733 334.732,-30.3454"/>
<polygon fill="midnightblue" stroke="midnightblue" points="337.78,-28.6252 329.829,-21.6234 331.678,-32.0556 337.78,-28.6252"/>
</g>
<!-- Node6 -->
<g id="node11" class="node"><title>Node6</title>
<polygon fill="white" stroke="#bfbfbf" points="367.5,-0.5 367.5,-21.5 472.5,-21.5 472.5,-0.5 367.5,-0.5"/>
<text text-anchor="middle" x="420" y="-8.5" font-family="Helvetica,sans-Serif" font-size="10.00">ocra/control/Model.h</text>
</g>
<!-- Node4&#45;&gt;Node6 -->
<g id="edge10" class="edge"><title>Node4&#45;&gt;Node6</title>
<path fill="none" stroke="midnightblue" d="M435.755,-174.234C427.4,-165.404 416.673,-152.099 412,-138 400.019,-101.852 407.8,-56.8038 414.161,-31.23"/>
<polygon fill="midnightblue" stroke="midnightblue" points="417.549,-32.1087 416.739,-21.5448 410.785,-30.3082 417.549,-32.1087"/>
</g>
<!-- Node7 -->
<g id="node13" class="node"><title>Node7</title>
<polygon fill="white" stroke="#bfbfbf" points="222,-0.5 222,-21.5 280,-21.5 280,-0.5 222,-0.5"/>
<text text-anchor="middle" x="251" y="-8.5" font-family="Helvetica,sans-Serif" font-size="10.00">wbi/wbi.h</text>
</g>
<!-- Node4&#45;&gt;Node7 -->
<g id="edge12" class="edge"><title>Node4&#45;&gt;Node7</title>
<path fill="none" stroke="midnightblue" d="M432.114,-174.425C419.328,-165.177 400.552,-151.196 385,-138 341.555,-101.137 293.834,-54.2331 268.724,-29.0066"/>
<polygon fill="midnightblue" stroke="midnightblue" points="270.926,-26.256 261.4,-21.6181 265.954,-31.1841 270.926,-26.256"/>
</g>
<!-- Node8 -->
<g id="node15" class="node"><title>Node8</title>
<polygon fill="white" stroke="#bfbfbf" points="128,-0.5 128,-21.5 204,-21.5 204,-0.5 128,-0.5"/>
<text text-anchor="middle" x="166" y="-8.5" font-family="Helvetica,sans-Serif" font-size="10.00">yarp/os/Log.h</text>
</g>
<!-- Node4&#45;&gt;Node8 -->
<g id="edge14" class="edge"><title>Node4&#45;&gt;Node8</title>
<path fill="none" stroke="midnightblue" d="M425.193,-174.421C406.747,-165.282 379.759,-151.459 357,-138 294.751,-101.189 224.699,-52.6919 189.242,-27.6146"/>
<polygon fill="midnightblue" stroke="midnightblue" points="191.18,-24.698 180.999,-21.765 187.129,-30.4066 191.18,-24.698"/>
</g>
<!-- Node9 -->
<g id="node17" class="node"><title>Node9</title>
<a xlink:href="OcraWbiConversions_8h.html" target="_top" xlink:title="A utility class full of static conversion functions.">
<polygon fill="white" stroke="black" points="420.5,-116.5 420.5,-137.5 581.5,-137.5 581.5,-116.5 420.5,-116.5"/>
<text text-anchor="middle" x="501" y="-124.5" font-family="Helvetica,sans-Serif" font-size="10.00">ocra&#45;icub/OcraWbiConversions.h</text>
</a>
</g>
<!-- Node4&#45;&gt;Node9 -->
<g id="edge16" class="edge"><title>Node4&#45;&gt;Node9</title>
<path fill="none" stroke="midnightblue" d="M456.904,-174.362C464.516,-166.186 475.208,-154.702 484.157,-145.091"/>
<polygon fill="midnightblue" stroke="midnightblue" points="486.906,-147.275 491.158,-137.571 481.783,-142.505 486.906,-147.275"/>
</g>
<!-- Node15 -->
<g id="node31" class="node"><title>Node15</title>
<a xlink:href="Utilities_8h.html" target="_top" xlink:title="Some useful tools for the ocra&#45;icub lib.">
<polygon fill="white" stroke="black" points="1135.5,-58.5 1135.5,-79.5 1236.5,-79.5 1236.5,-58.5 1135.5,-58.5"/>
<text text-anchor="middle" x="1186" y="-66.5" font-family="Helvetica,sans-Serif" font-size="10.00">ocra&#45;icub/Utilities.h</text>
</a>
</g>
<!-- Node4&#45;&gt;Node15 -->
<g id="edge84" class="edge"><title>Node4&#45;&gt;Node15</title>
<path fill="none" stroke="midnightblue" d="M513.232,-174.604C655.456,-152.279 988.262,-100.039 1125.35,-78.5209"/>
<polygon fill="midnightblue" stroke="midnightblue" points="1125.93,-81.9726 1135.26,-76.9641 1124.84,-75.0573 1125.93,-81.9726"/>
</g>
<!-- Node9&#45;&gt;Node7 -->
<g id="edge28" class="edge"><title>Node9&#45;&gt;Node7</title>
<path fill="none" stroke="midnightblue" d="M477.929,-116.295C433.073,-95.4818 334.033,-49.5272 282.914,-25.808"/>
<polygon fill="midnightblue" stroke="midnightblue" points="284.199,-22.5458 273.654,-21.5117 281.252,-28.8956 284.199,-22.5458"/>
</g>
<!-- Node9&#45;&gt;Node8 -->
<g id="edge26" class="edge"><title>Node9&#45;&gt;Node8</title>
<path fill="none" stroke="midnightblue" d="M465.118,-116.46C434.405,-107.288 389.088,-93.4 350,-80 298.155,-62.2267 238.922,-39.5888 201.989,-25.1903"/>
<polygon fill="midnightblue" stroke="midnightblue" points="203.231,-21.918 192.643,-21.537 200.682,-28.4376 203.231,-21.918"/>
</g>
<!-- Node10 -->
<g id="node19" class="node"><title>Node10</title>
<polygon fill="white" stroke="#bfbfbf" points="490,-0.5 490,-21.5 544,-21.5 544,-0.5 490,-0.5"/>
<text text-anchor="middle" x="517" y="-8.5" font-family="Helvetica,sans-Serif" font-size="10.00">iostream</text>
</g>
<!-- Node9&#45;&gt;Node10 -->
<g id="edge18" class="edge"><title>Node9&#45;&gt;Node10</title>
<path fill="none" stroke="midnightblue" d="M500.181,-116.157C499.371,-102.494 498.682,-78.3375 502,-58 503.474,-48.9654 506.331,-39.2827 509.161,-31.0677"/>
<polygon fill="midnightblue" stroke="midnightblue" points="512.473,-32.2 512.623,-21.6062 505.899,-29.7946 512.473,-32.2"/>
</g>
<!-- Node11 -->
<g id="node21" class="node"><title>Node11</title>
<polygon fill="white" stroke="#bfbfbf" points="420.5,-58.5 420.5,-79.5 455.5,-79.5 455.5,-58.5 420.5,-58.5"/>
<text text-anchor="middle" x="438" y="-66.5" font-family="Helvetica,sans-Serif" font-size="10.00">map</text>
</g>
<!-- Node9&#45;&gt;Node11 -->
<g id="edge20" class="edge"><title>Node9&#45;&gt;Node11</title>
<path fill="none" stroke="midnightblue" d="M489.445,-116.362C480.387,-108.023 467.59,-96.2418 457.026,-86.5162"/>
<polygon fill="midnightblue" stroke="midnightblue" points="459.21,-83.7688 449.482,-79.5707 454.468,-88.9187 459.21,-83.7688"/>
</g>
<!-- Node12 -->
<g id="node23" class="node"><title>Node12</title>
<polygon fill="white" stroke="#bfbfbf" points="562,-0.5 562,-21.5 606,-21.5 606,-0.5 562,-0.5"/>
<text text-anchor="middle" x="584" y="-8.5" font-family="Helvetica,sans-Serif" font-size="10.00">vector</text>
</g>
<!-- Node9&#45;&gt;Node12 -->
<g id="edge22" class="edge"><title>Node9&#45;&gt;Node12</title>
<path fill="none" stroke="midnightblue" d="M581.787,-123.492C649.722,-118.645 739.298,-107.155 762,-80 826.821,-2.4641 860.485,-93.2219 616.203,-22.1384"/>
<polygon fill="midnightblue" stroke="midnightblue" points="616.844,-18.6786 606.262,-19.202 614.861,-25.3918 616.844,-18.6786"/>
</g>
<!-- Node13 -->
<g id="node25" class="node"><title>Node13</title>
<polygon fill="white" stroke="#bfbfbf" points="623.5,-0.5 623.5,-21.5 714.5,-21.5 714.5,-0.5 623.5,-0.5"/>
<text text-anchor="middle" x="669" y="-8.5" font-family="Helvetica,sans-Serif" font-size="10.00">yarp/sig/Vector.h</text>
</g>
<!-- Node9&#45;&gt;Node13 -->
<g id="edge24" class="edge"><title>Node9&#45;&gt;Node13</title>
<path fill="none" stroke="midnightblue" d="M581.555,-119.087C661.41,-110.411 773.728,-95.6306 787,-80 810.107,-52.7853 765.307,-33.728 724.431,-22.6389"/>
<polygon fill="midnightblue" stroke="midnightblue" points="725.271,-19.2409 714.713,-20.1254 723.518,-26.0179 725.271,-19.2409"/>
</g>
<!-- Node14 -->
<g id="node29" class="node"><title>Node14</title>
<polygon fill="white" stroke="#bfbfbf" points="511,-58.5 511,-79.5 753,-79.5 753,-58.5 511,-58.5"/>
<text text-anchor="middle" x="632" y="-66.5" font-family="Helvetica,sans-Serif" font-size="10.00">yarpWholeBodyInterface/yarpWholeBodyInterface.h</text>
</g>
<!-- Node9&#45;&gt;Node14 -->
<g id="edge30" class="edge"><title>Node9&#45;&gt;Node14</title>
<path fill="none" stroke="midnightblue" d="M524.723,-116.497C545.368,-107.356 575.516,-94.0082 598.599,-83.7883"/>
<polygon fill="midnightblue" stroke="midnightblue" points="600.284,-86.8701 608.011,-79.6212 597.45,-80.4694 600.284,-86.8701"/>
</g>
<!-- Node9&#45;&gt;Node15 -->
<g id="edge32" class="edge"><title>Node9&#45;&gt;Node15</title>
<path fill="none" stroke="midnightblue" d="M581.593,-120.176C720.393,-108.424 1001.54,-84.6186 1125.25,-74.144"/>
<polygon fill="midnightblue" stroke="midnightblue" points="1125.63,-77.624 1135.3,-73.2927 1125.04,-70.649 1125.63,-77.624"/>
</g>
<!-- Node15&#45;&gt;Node5 -->
<g id="edge34" class="edge"><title>Node15&#45;&gt;Node5</title>
<path fill="none" stroke="midnightblue" d="M1135.5,-67.7679C983.024,-63.7947 528.026,-50.0183 360.123,-21.7501"/>
<polygon fill="midnightblue" stroke="midnightblue" points="360.653,-18.2897 350.197,-19.9995 359.437,-25.1833 360.653,-18.2897"/>
</g>
<!-- Node15&#45;&gt;Node6 -->
<g id="edge76" class="edge"><title>Node15&#45;&gt;Node6</title>
<path fill="none" stroke="midnightblue" d="M1135.38,-67.5679C1020.83,-63.9088 732.832,-52.3607 482.527,-22.0786"/>
<polygon fill="midnightblue" stroke="midnightblue" points="482.866,-18.5941 472.516,-20.8548 482.017,-25.5424 482.866,-18.5941"/>
</g>
<!-- Node15&#45;&gt;Node7 -->
<g id="edge74" class="edge"><title>Node15&#45;&gt;Node7</title>
<path fill="none" stroke="midnightblue" d="M1135.35,-67.874C974.06,-64.0528 472.803,-50.3019 290.308,-21.8338"/>
<polygon fill="midnightblue" stroke="midnightblue" points="290.737,-18.3575 280.304,-20.2034 289.611,-25.2664 290.737,-18.3575"/>
</g>
<!-- Node15&#45;&gt;Node8 -->
<g id="edge64" class="edge"><title>Node15&#45;&gt;Node8</title>
<path fill="none" stroke="midnightblue" d="M1135.41,-67.7709C965.179,-63.4483 413.196,-47.8674 214.168,-21.8944"/>
<polygon fill="midnightblue" stroke="midnightblue" points="214.49,-18.4062 204.11,-20.5302 213.549,-25.3427 214.49,-18.4062"/>
</g>
<!-- Node15&#45;&gt;Node10 -->
<g id="edge38" class="edge"><title>Node15&#45;&gt;Node10</title>
<path fill="none" stroke="midnightblue" d="M1135.29,-66.6929C1009.05,-60.7224 682.271,-43.8139 554.311,-21.8427"/>
<polygon fill="midnightblue" stroke="midnightblue" points="554.823,-18.3787 544.36,-20.0467 553.58,-25.2674 554.823,-18.3787"/>
</g>
<!-- Node15&#45;&gt;Node12 -->
<g id="edge42" class="edge"><title>Node15&#45;&gt;Node12</title>
<path fill="none" stroke="midnightblue" d="M1135.4,-66.5165C1018.45,-60.5126 731.202,-44.1937 616.094,-21.6893"/>
<polygon fill="midnightblue" stroke="midnightblue" points="616.653,-18.231 606.151,-19.6349 615.236,-25.0862 616.653,-18.231"/>
</g>
<!-- Node15&#45;&gt;Node13 -->
<g id="edge70" class="edge"><title>Node15&#45;&gt;Node13</title>
<path fill="none" stroke="midnightblue" d="M1135.44,-65.5276C1051.92,-59.4297 879.769,-45.3291 724.79,-22.1627"/>
<polygon fill="midnightblue" stroke="midnightblue" points="725.019,-18.6575 714.608,-20.6236 723.972,-25.5789 725.019,-18.6575"/>
</g>
<!-- Node16 -->
<g id="node34" class="node"><title>Node16</title>
<polygon fill="white" stroke="#bfbfbf" points="1214,-0.5 1214,-21.5 1258,-21.5 1258,-0.5 1214,-0.5"/>
<text text-anchor="middle" x="1236" y="-8.5" font-family="Helvetica,sans-Serif" font-size="10.00">cmath</text>
</g>
<!-- Node15&#45;&gt;Node16 -->
<g id="edge36" class="edge"><title>Node15&#45;&gt;Node16</title>
<path fill="none" stroke="midnightblue" d="M1195.17,-58.3619C1202.15,-50.2678 1211.92,-38.9318 1220.16,-29.3796"/>
<polygon fill="midnightblue" stroke="midnightblue" points="1223.01,-31.4301 1226.89,-21.5707 1217.71,-26.8595 1223.01,-31.4301"/>
</g>
<!-- Node17 -->
<g id="node37" class="node"><title>Node17</title>
<polygon fill="white" stroke="#bfbfbf" points="1275.5,-0.5 1275.5,-21.5 1316.5,-21.5 1316.5,-0.5 1275.5,-0.5"/>
<text text-anchor="middle" x="1296" y="-8.5" font-family="Helvetica,sans-Serif" font-size="10.00">string</text>
</g>
<!-- Node15&#45;&gt;Node17 -->
<g id="edge40" class="edge"><title>Node15&#45;&gt;Node17</title>
<path fill="none" stroke="midnightblue" d="M1205.92,-58.4966C1222.95,-49.5194 1247.67,-36.4835 1266.91,-26.3387"/>
<polygon fill="midnightblue" stroke="midnightblue" points="1268.64,-29.3814 1275.86,-21.6212 1265.38,-23.1894 1268.64,-29.3814"/>
</g>
<!-- Node18 -->
<g id="node40" class="node"><title>Node18</title>
<polygon fill="white" stroke="#bfbfbf" points="1334,-0.5 1334,-21.5 1386,-21.5 1386,-0.5 1334,-0.5"/>
<text text-anchor="middle" x="1360" y="-8.5" font-family="Helvetica,sans-Serif" font-size="10.00">sstream</text>
</g>
<!-- Node15&#45;&gt;Node18 -->
<g id="edge44" class="edge"><title>Node15&#45;&gt;Node18</title>
<path fill="none" stroke="midnightblue" d="M1217.51,-58.4966C1247.56,-48.4814 1292.76,-33.4147 1324.16,-22.9464"/>
<polygon fill="midnightblue" stroke="midnightblue" points="1325.46,-26.2042 1333.84,-19.7214 1323.24,-19.5634 1325.46,-26.2042"/>
</g>
<!-- Node19 -->
<g id="node42" class="node"><title>Node19</title>
<polygon fill="white" stroke="#bfbfbf" points="1403.5,-0.5 1403.5,-21.5 1518.5,-21.5 1518.5,-0.5 1403.5,-0.5"/>
<text text-anchor="middle" x="1461" y="-8.5" font-family="Helvetica,sans-Serif" font-size="10.00">yarp/os/BufferedPort.h</text>
</g>
<!-- Node15&#45;&gt;Node19 -->
<g id="edge46" class="edge"><title>Node15&#45;&gt;Node19</title>
<path fill="none" stroke="midnightblue" d="M1235.8,-58.4966C1282.28,-48.6931 1351.71,-34.0496 1401.18,-23.6165"/>
<polygon fill="midnightblue" stroke="midnightblue" points="1402.04,-27.0115 1411.11,-21.5231 1400.6,-20.1622 1402.04,-27.0115"/>
</g>
<!-- Node20 -->
<g id="node44" class="node"><title>Node20</title>
<polygon fill="white" stroke="#bfbfbf" points="1536,-0.5 1536,-21.5 1622,-21.5 1622,-0.5 1536,-0.5"/>
<text text-anchor="middle" x="1579" y="-8.5" font-family="Helvetica,sans-Serif" font-size="10.00">yarp/os/Bottle.h</text>
</g>
<!-- Node15&#45;&gt;Node20 -->
<g id="edge48" class="edge"><title>Node15&#45;&gt;Node20</title>
<path fill="none" stroke="midnightblue" d="M1236.73,-63.1575C1301.47,-55.4459 1417.14,-40.8164 1525.77,-22.1242"/>
<polygon fill="midnightblue" stroke="midnightblue" points="1526.66,-25.5209 1535.92,-20.3618 1525.46,-18.6241 1526.66,-25.5209"/>
</g>
<!-- Node15&#45;&gt;Node21 -->
<g id="edge50" class="edge"><title>Node15&#45;&gt;Node21</title>
<path fill="none" stroke="midnightblue" d="M1135.42,-67.6202C954.548,-62.556 339.473,-44.1822 120.895,-22.071"/>
<polygon fill="midnightblue" stroke="midnightblue" points="121.099,-18.5734 110.79,-21.0153 120.372,-25.5355 121.099,-18.5734"/>
</g>
<!-- Node22 -->
<g id="node48" class="node"><title>Node22</title>
<polygon fill="white" stroke="#bfbfbf" points="1639.5,-0.5 1639.5,-21.5 1768.5,-21.5 1768.5,-0.5 1639.5,-0.5"/>
<text text-anchor="middle" x="1704" y="-8.5" font-family="Helvetica,sans-Serif" font-size="10.00">yarp/os/ResourceFinder.h</text>
</g>
<!-- Node15&#45;&gt;Node22 -->
<g id="edge52" class="edge"><title>Node15&#45;&gt;Node22</title>
<path fill="none" stroke="midnightblue" d="M1236.81,-64.3732C1317.67,-56.8462 1480.9,-40.9925 1628.96,-22.2239"/>
<polygon fill="midnightblue" stroke="midnightblue" points="1629.67,-25.6626 1639.14,-20.9256 1628.78,-18.7188 1629.67,-25.6626"/>
</g>
<!-- Node23 -->
<g id="node50" class="node"><title>Node23</title>
<polygon fill="white" stroke="#bfbfbf" points="1786,-0.5 1786,-21.5 1896,-21.5 1896,-0.5 1786,-0.5"/>
<text text-anchor="middle" x="1841" y="-8.5" font-family="Helvetica,sans-Serif" font-size="10.00">yarp/os/PortReader.h</text>
</g>
<!-- Node15&#45;&gt;Node23 -->
<g id="edge54" class="edge"><title>Node15&#45;&gt;Node23</title>
<path fill="none" stroke="midnightblue" d="M1236.75,-66.5211C1337.54,-61.2612 1570.19,-47.4359 1775.81,-22.0555"/>
<polygon fill="midnightblue" stroke="midnightblue" points="1776.4,-25.5092 1785.89,-20.7992 1775.53,-18.5629 1776.4,-25.5092"/>
</g>
<!-- Node24 -->
<g id="node52" class="node"><title>Node24</title>
<polygon fill="white" stroke="#bfbfbf" points="1914,-0.5 1914,-21.5 2018,-21.5 2018,-0.5 1914,-0.5"/>
<text text-anchor="middle" x="1966" y="-8.5" font-family="Helvetica,sans-Serif" font-size="10.00">yarp/os/RpcClient.h</text>
</g>
<!-- Node15&#45;&gt;Node24 -->
<g id="edge56" class="edge"><title>Node15&#45;&gt;Node24</title>
<path fill="none" stroke="midnightblue" d="M1236.74,-67.6557C1352.97,-64.1522 1647.53,-52.8631 1903.57,-22.0562"/>
<polygon fill="midnightblue" stroke="midnightblue" points="1904.31,-25.4925 1913.82,-20.811 1903.47,-18.5437 1904.31,-25.4925"/>
</g>
<!-- Node25 -->
<g id="node54" class="node"><title>Node25</title>
<polygon fill="white" stroke="#bfbfbf" points="2035.5,-0.5 2035.5,-21.5 2142.5,-21.5 2142.5,-0.5 2035.5,-0.5"/>
<text text-anchor="middle" x="2089" y="-8.5" font-family="Helvetica,sans-Serif" font-size="10.00">yarp/os/RpcServer.h</text>
</g>
<!-- Node15&#45;&gt;Node25 -->
<g id="edge58" class="edge"><title>Node15&#45;&gt;Node25</title>
<path fill="none" stroke="midnightblue" d="M1236.9,-68.2766C1366.71,-65.9776 1720.79,-56.8605 2024.95,-22.1284"/>
<polygon fill="midnightblue" stroke="midnightblue" points="2025.76,-25.5582 2035.29,-20.935 2024.95,-18.6043 2025.76,-25.5582"/>
</g>
<!-- Node26 -->
<g id="node56" class="node"><title>Node26</title>
<polygon fill="white" stroke="#bfbfbf" points="2159.5,-0.5 2159.5,-21.5 2300.5,-21.5 2300.5,-0.5 2159.5,-0.5"/>
<text text-anchor="middle" x="2230" y="-8.5" font-family="Helvetica,sans-Serif" font-size="10.00">yarp/os/ConnectionReader.h</text>
</g>
<!-- Node15&#45;&gt;Node26 -->
<g id="edge60" class="edge"><title>Node15&#45;&gt;Node26</title>
<path fill="none" stroke="midnightblue" d="M1236.6,-68.134C1378.82,-65.3588 1794.37,-54.9097 2149.44,-22.078"/>
<polygon fill="midnightblue" stroke="midnightblue" points="2149.77,-25.5628 2159.4,-21.1498 2149.12,-18.593 2149.77,-25.5628"/>
</g>
<!-- Node27 -->
<g id="node58" class="node"><title>Node27</title>
<polygon fill="white" stroke="#bfbfbf" points="2318,-0.5 2318,-21.5 2400,-21.5 2400,-0.5 2318,-0.5"/>
<text text-anchor="middle" x="2359" y="-8.5" font-family="Helvetica,sans-Serif" font-size="10.00">yarp/os/Time.h</text>
</g>
<!-- Node15&#45;&gt;Node27 -->
<g id="edge62" class="edge"><title>Node15&#45;&gt;Node27</title>
<path fill="none" stroke="midnightblue" d="M1236.64,-68.0571C1423.89,-64.3906 2077.69,-49.9438 2307.92,-21.8984"/>
<polygon fill="midnightblue" stroke="midnightblue" points="2308.42,-25.363 2317.9,-20.6386 2307.54,-18.4181 2308.42,-25.363"/>
</g>
<!-- Node28 -->
<g id="node61" class="node"><title>Node28</title>
<polygon fill="white" stroke="#bfbfbf" points="731.5,-0.5 731.5,-21.5 838.5,-21.5 838.5,-0.5 731.5,-0.5"/>
<text text-anchor="middle" x="785" y="-8.5" font-family="Helvetica,sans-Serif" font-size="10.00">yarp/os/LogStream.h</text>
</g>
<!-- Node15&#45;&gt;Node28 -->
<g id="edge66" class="edge"><title>Node15&#45;&gt;Node28</title>
<path fill="none" stroke="midnightblue" d="M1135.37,-62.5881C1071.04,-54.306 956.331,-39.089 848.796,-22.2461"/>
<polygon fill="midnightblue" stroke="midnightblue" points="849.17,-18.762 838.748,-20.6641 848.082,-25.6768 849.17,-18.762"/>
</g>
<!-- Node29 -->
<g id="node63" class="node"><title>Node29</title>
<polygon fill="white" stroke="#bfbfbf" points="855.5,-0.5 855.5,-21.5 952.5,-21.5 952.5,-0.5 855.5,-0.5"/>
<text text-anchor="middle" x="904" y="-8.5" font-family="Helvetica,sans-Serif" font-size="10.00">yarp/os/Property.h</text>
</g>
<!-- Node15&#45;&gt;Node29 -->
<g id="edge68" class="edge"><title>Node15&#45;&gt;Node29</title>
<path fill="none" stroke="midnightblue" d="M1135.26,-58.5638C1086.79,-48.596 1013.79,-33.5804 962.807,-23.095"/>
<polygon fill="midnightblue" stroke="midnightblue" points="963.418,-19.6476 952.918,-21.0612 962.008,-26.5041 963.418,-19.6476"/>
</g>
<!-- Node30 -->
<g id="node66" class="node"><title>Node30</title>
<polygon fill="white" stroke="#bfbfbf" points="969.5,-0.5 969.5,-21.5 1058.5,-21.5 1058.5,-0.5 969.5,-0.5"/>
<text text-anchor="middle" x="1014" y="-8.5" font-family="Helvetica,sans-Serif" font-size="10.00">yarp/sig/Matrix.h</text>
</g>
<!-- Node15&#45;&gt;Node30 -->
<g id="edge72" class="edge"><title>Node15&#45;&gt;Node30</title>
<path fill="none" stroke="midnightblue" d="M1154.85,-58.4966C1126.81,-49.0411 1085.42,-35.0829 1054.75,-24.7428"/>
<polygon fill="midnightblue" stroke="midnightblue" points="1055.8,-21.4019 1045.21,-21.5231 1053.56,-28.035 1055.8,-21.4019"/>
</g>
<!-- Node31 -->
<g id="node70" class="node"><title>Node31</title>
<polygon fill="white" stroke="#bfbfbf" points="1075.5,-0.5 1075.5,-21.5 1196.5,-21.5 1196.5,-0.5 1075.5,-0.5"/>
<text text-anchor="middle" x="1136" y="-8.5" font-family="Helvetica,sans-Serif" font-size="10.00">ocra/util/StringUtilities.h</text>
</g>
<!-- Node15&#45;&gt;Node31 -->
<g id="edge78" class="edge"><title>Node15&#45;&gt;Node31</title>
<path fill="none" stroke="midnightblue" d="M1176.83,-58.3619C1169.85,-50.2678 1160.08,-38.9318 1151.84,-29.3796"/>
<polygon fill="midnightblue" stroke="midnightblue" points="1154.29,-26.8595 1145.11,-21.5707 1148.99,-31.4301 1154.29,-26.8595"/>
</g>
<!-- Node15&#45;&gt;Node32 -->
<g id="edge80" class="edge"><title>Node15&#45;&gt;Node32</title>
<path fill="none" stroke="midnightblue" d="M1236.65,-68.4128C1434.59,-65.9103 2156.87,-54.7857 2407.15,-21.9905"/>
<polygon fill="midnightblue" stroke="midnightblue" points="2407.84,-25.4284 2417.28,-20.6142 2406.9,-18.4921 2407.84,-25.4284"/>
</g>
<!-- Node15&#45;&gt;Node33 -->
<g id="edge82" class="edge"><title>Node15&#45;&gt;Node33</title>
<path fill="none" stroke="midnightblue" d="M1236.78,-68.6382C1444.18,-66.9385 2228.42,-58.2935 2497.73,-21.8557"/>
<polygon fill="midnightblue" stroke="midnightblue" points="2498.45,-25.29 2507.87,-20.4363 2497.48,-18.3577 2498.45,-25.29"/>
</g>
<!-- Node36 -->
<g id="node84" class="node"><title>Node36</title>
<a xlink:href="ShapeConstraints_8h.html" target="_top" xlink:title="walking&#45;client/constraints/ShapeConstraints.h">
<polygon fill="white" stroke="black" points="2609,-174.5 2609,-195.5 2825,-195.5 2825,-174.5 2609,-174.5"/>
<text text-anchor="middle" x="2717" y="-182.5" font-family="Helvetica,sans-Serif" font-size="10.00">walking&#45;client/constraints/ShapeConstraints.h</text>
</a>
</g>
<!-- Node35&#45;&gt;Node36 -->
<g id="edge96" class="edge"><title>Node35&#45;&gt;Node36</title>
<path fill="none" stroke="midnightblue" d="M2717,-232.362C2717,-224.922 2717,-214.743 2717,-205.728"/>
<polygon fill="midnightblue" stroke="midnightblue" points="2720.5,-205.571 2717,-195.571 2713.5,-205.571 2720.5,-205.571"/>
</g>
<!-- Node43 -->
<g id="node101" class="node"><title>Node43</title>
<a xlink:href="AdmissibilityConstraints_8h.html" target="_top" xlink:title="walking&#45;client/constraints/AdmissibilityConstraints.h">
<polygon fill="white" stroke="black" points="3315,-174.5 3315,-195.5 3559,-195.5 3559,-174.5 3315,-174.5"/>
<text text-anchor="middle" x="3437" y="-182.5" font-family="Helvetica,sans-Serif" font-size="10.00">walking&#45;client/constraints/AdmissibilityConstraints.h</text>
</a>
</g>
<!-- Node35&#45;&gt;Node43 -->
<g id="edge116" class="edge"><title>Node35&#45;&gt;Node43</title>
<path fill="none" stroke="midnightblue" d="M2837.11,-233.325C2966.18,-222.927 3170.75,-206.448 3304.44,-195.678"/>
<polygon fill="midnightblue" stroke="midnightblue" points="3305.06,-199.14 3314.75,-194.848 3304.5,-192.163 3305.06,-199.14"/>
</g>
<!-- Node37 -->
<g id="node86" class="node"><title>Node37</title>
<a xlink:href="Constraint_8h.html" target="_top" xlink:title="A constraint base class.">
<polygon fill="white" stroke="black" points="2721.5,-58.5 2721.5,-79.5 2904.5,-79.5 2904.5,-58.5 2721.5,-58.5"/>
<text text-anchor="middle" x="2813" y="-66.5" font-family="Helvetica,sans-Serif" font-size="10.00">walking&#45;client/constraints/Constraint.h</text>
</a>
</g>
<!-- Node36&#45;&gt;Node37 -->
<g id="edge98" class="edge"><title>Node36&#45;&gt;Node37</title>
<path fill="none" stroke="midnightblue" d="M2627.35,-174.487C2582.04,-167.136 2533.78,-155.455 2520,-138 2513.94,-130.326 2513.66,-123.441 2520,-116 2532.58,-101.242 2631.71,-87.5862 2711.23,-78.8408"/>
<polygon fill="midnightblue" stroke="midnightblue" points="2711.76,-82.3046 2721.32,-77.7459 2711,-75.3455 2711.76,-82.3046"/>
</g>
<!-- Node40 -->
<g id="node94" class="node"><title>Node40</title>
<a xlink:href="Bounding_8h.html" target="_top" xlink:title="walking&#45;client/constraints/Bounding.h">
<polygon fill="white" stroke="black" points="2528.5,-116.5 2528.5,-137.5 2707.5,-137.5 2707.5,-116.5 2528.5,-116.5"/>
<text text-anchor="middle" x="2618" y="-124.5" font-family="Helvetica,sans-Serif" font-size="10.00">walking&#45;client/constraints/Bounding.h</text>
</a>
</g>
<!-- Node36&#45;&gt;Node40 -->
<g id="edge108" class="edge"><title>Node36&#45;&gt;Node40</title>
<path fill="none" stroke="midnightblue" d="M2698.84,-174.362C2683.77,-165.532 2662.11,-152.844 2645.01,-142.822"/>
<polygon fill="midnightblue" stroke="midnightblue" points="2646.44,-139.606 2636.04,-137.571 2642.9,-145.646 2646.44,-139.606"/>
</g>
<!-- Node41 -->
<g id="node97" class="node"><title>Node41</title>
<polygon fill="white" stroke="#bfbfbf" points="2724.5,-116.5 2724.5,-137.5 2907.5,-137.5 2907.5,-116.5 2724.5,-116.5"/>
<text text-anchor="middle" x="2816" y="-124.5" font-family="Helvetica,sans-Serif" font-size="10.00">walking&#45;client/constraints/constancy.h</text>
</g>
<!-- Node36&#45;&gt;Node41 -->
<g id="edge112" class="edge"><title>Node36&#45;&gt;Node41</title>
<path fill="none" stroke="midnightblue" d="M2735.16,-174.362C2750.23,-165.532 2771.89,-152.844 2788.99,-142.822"/>
<polygon fill="midnightblue" stroke="midnightblue" points="2791.1,-145.646 2797.96,-137.571 2787.56,-139.606 2791.1,-145.646"/>
</g>
<!-- Node42 -->
<g id="node99" class="node"><title>Node42</title>
<polygon fill="white" stroke="#bfbfbf" points="2924.5,-116.5 2924.5,-137.5 3117.5,-137.5 3117.5,-116.5 2924.5,-116.5"/>
<text text-anchor="middle" x="3021" y="-124.5" font-family="Helvetica,sans-Serif" font-size="10.00">walking&#45;client/constraints/sequentiality.h</text>
</g>
<!-- Node36&#45;&gt;Node42 -->
<g id="edge114" class="edge"><title>Node36&#45;&gt;Node42</title>
<path fill="none" stroke="midnightblue" d="M2772.05,-174.497C2823.76,-164.632 2901.15,-149.866 2955.9,-139.421"/>
<polygon fill="midnightblue" stroke="midnightblue" points="2956.68,-142.835 2965.84,-137.523 2955.37,-135.959 2956.68,-142.835"/>
</g>
<!-- Node37&#45;&gt;Node3 -->
<g id="edge100" class="edge"><title>Node37&#45;&gt;Node3</title>
<path fill="none" stroke="midnightblue" d="M2880,-58.4966C2948.34,-47.7842 3053.55,-31.2925 3120.29,-20.8303"/>
<polygon fill="midnightblue" stroke="midnightblue" points="3120.92,-24.2749 3130.25,-19.2683 3119.83,-17.3593 3120.92,-24.2749"/>
</g>
<!-- Node37&#45;&gt;Node34 -->
<g id="edge104" class="edge"><title>Node37&#45;&gt;Node34</title>
<path fill="none" stroke="midnightblue" d="M2813,-58.3619C2813,-50.9219 2813,-40.7427 2813,-31.7276"/>
<polygon fill="midnightblue" stroke="midnightblue" points="2816.5,-31.5706 2813,-21.5707 2809.5,-31.5707 2816.5,-31.5706"/>
</g>
<!-- Node38 -->
<g id="node89" class="node"><title>Node38</title>
<polygon fill="white" stroke="#bfbfbf" points="2915.5,-0.5 2915.5,-21.5 2980.5,-21.5 2980.5,-0.5 2915.5,-0.5"/>
<text text-anchor="middle" x="2948" y="-8.5" font-family="Helvetica,sans-Serif" font-size="10.00">Eigen/Core</text>
</g>
<!-- Node37&#45;&gt;Node38 -->
<g id="edge102" class="edge"><title>Node37&#45;&gt;Node38</title>
<path fill="none" stroke="midnightblue" d="M2837.45,-58.4966C2858.82,-49.3154 2890.07,-35.8889 2913.9,-25.6516"/>
<polygon fill="midnightblue" stroke="midnightblue" points="2915.47,-28.7845 2923.28,-21.6212 2912.71,-22.3529 2915.47,-28.7845"/>
</g>
<!-- Node39 -->
<g id="node92" class="node"><title>Node39</title>
<polygon fill="white" stroke="#bfbfbf" points="2593.5,-0.5 2593.5,-21.5 2710.5,-21.5 2710.5,-0.5 2593.5,-0.5"/>
<text text-anchor="middle" x="2652" y="-8.5" font-family="Helvetica,sans-Serif" font-size="10.00">ocra/util/ErrorsHelper.h</text>
</g>
<!-- Node37&#45;&gt;Node39 -->
<g id="edge106" class="edge"><title>Node37&#45;&gt;Node39</title>
<path fill="none" stroke="midnightblue" d="M2783.84,-58.4966C2757.82,-49.1229 2719.52,-35.3242 2690.9,-25.0122"/>
<polygon fill="midnightblue" stroke="midnightblue" points="2691.8,-21.6195 2681.21,-21.5231 2689.43,-28.2052 2691.8,-21.6195"/>
</g>
<!-- Node40&#45;&gt;Node37 -->
<g id="edge110" class="edge"><title>Node40&#45;&gt;Node37</title>
<path fill="none" stroke="midnightblue" d="M2653.31,-116.497C2685.38,-106.959 2732.85,-92.8408 2767.7,-82.475"/>
<polygon fill="midnightblue" stroke="midnightblue" points="2769.03,-85.7288 2777.62,-79.5231 2767.04,-79.0193 2769.03,-85.7288"/>
</g>
<!-- Node43&#45;&gt;Node37 -->
<g id="edge118" class="edge"><title>Node43&#45;&gt;Node37</title>
<path fill="none" stroke="midnightblue" d="M3377.3,-174.498C3329.61,-165.766 3261.21,-152.464 3202,-138 3167.84,-129.656 3160.35,-123.516 3126,-116 3056.08,-100.702 2976.29,-88.8041 2914.76,-80.8068"/>
<polygon fill="midnightblue" stroke="midnightblue" points="2915.03,-77.312 2904.66,-79.5075 2914.14,-84.2548 2915.03,-77.312"/>
</g>
<!-- Node44 -->
<g id="node104" class="node"><title>Node44</title>
<a xlink:href="SSDSAlternation_8h.html" target="_top" xlink:title="walking&#45;client/constraints/SSDSAlternation.h">
<polygon fill="white" stroke="black" points="3211,-116.5 3211,-137.5 3423,-137.5 3423,-116.5 3211,-116.5"/>
<text text-anchor="middle" x="3317" y="-124.5" font-family="Helvetica,sans-Serif" font-size="10.00">walking&#45;client/constraints/SSDSAlternation.h</text>
</a>
</g>
<!-- Node43&#45;&gt;Node44 -->
<g id="edge120" class="edge"><title>Node43&#45;&gt;Node44</title>
<path fill="none" stroke="midnightblue" d="M3415.27,-174.497C3396.53,-165.438 3369.23,-152.246 3348.16,-142.063"/>
<polygon fill="midnightblue" stroke="midnightblue" points="3349.5,-138.822 3338.97,-137.621 3346.46,-145.124 3349.5,-138.822"/>
</g>
<!-- Node46 -->
<g id="node108" class="node"><title>Node46</title>
<a xlink:href="SingleSupport_8h.html" target="_top" xlink:title="walking&#45;client/constraints/SingleSupport.h">
<polygon fill="white" stroke="black" points="3440.5,-116.5 3440.5,-137.5 3639.5,-137.5 3639.5,-116.5 3440.5,-116.5"/>
<text text-anchor="middle" x="3540" y="-124.5" font-family="Helvetica,sans-Serif" font-size="10.00">walking&#45;client/constraints/SingleSupport.h</text>
</a>
</g>
<!-- Node43&#45;&gt;Node46 -->
<g id="edge124" class="edge"><title>Node43&#45;&gt;Node46</title>
<path fill="none" stroke="midnightblue" d="M3455.89,-174.362C3471.72,-165.45 3494.52,-152.609 3512.39,-142.545"/>
<polygon fill="midnightblue" stroke="midnightblue" points="3514.23,-145.527 3521.23,-137.571 3510.8,-139.428 3514.23,-145.527"/>
</g>
<!-- Node47 -->
<g id="node111" class="node"><title>Node47</title>
<a xlink:href="ContactConfigHistory_8h.html" target="_top" xlink:title="walking&#45;client/constraints/ContactConfigHistory.h">
<polygon fill="white" stroke="black" points="3656.5,-116.5 3656.5,-137.5 3889.5,-137.5 3889.5,-116.5 3656.5,-116.5"/>
<text text-anchor="middle" x="3773" y="-124.5" font-family="Helvetica,sans-Serif" font-size="10.00">walking&#45;client/constraints/ContactConfigHistory.h</text>
</a>
</g>
<!-- Node43&#45;&gt;Node47 -->
<g id="edge128" class="edge"><title>Node43&#45;&gt;Node47</title>
<path fill="none" stroke="midnightblue" d="M3497.85,-174.497C3555.35,-164.57 3641.6,-149.682 3702.17,-139.226"/>
<polygon fill="midnightblue" stroke="midnightblue" points="3702.78,-142.673 3712.04,-137.523 3701.59,-135.775 3702.78,-142.673"/>
</g>
<!-- Node48 -->
<g id="node114" class="node"><title>Node48</title>
<a xlink:href="ContactConfigEnforcement_8h.html" target="_top" xlink:title="walking&#45;client/constraints/ContactConfigEnforcement.h">
<polygon fill="white" stroke="black" points="3906.5,-116.5 3906.5,-137.5 4163.5,-137.5 4163.5,-116.5 3906.5,-116.5"/>
<text text-anchor="middle" x="4035" y="-124.5" font-family="Helvetica,sans-Serif" font-size="10.00">walking&#45;client/constraints/ContactConfigEnforcement.h</text>
</a>
</g>
<!-- Node43&#45;&gt;Node48 -->
<g id="edge132" class="edge"><title>Node43&#45;&gt;Node48</title>
<path fill="none" stroke="midnightblue" d="M3545.29,-174.497C3650.06,-164.335 3808.45,-148.973 3916.53,-138.49"/>
<polygon fill="midnightblue" stroke="midnightblue" points="3916.89,-141.972 3926.5,-137.523 3916.21,-135.005 3916.89,-141.972"/>
</g>
<!-- Node45 -->
<g id="node106" class="node"><title>Node45</title>
<polygon fill="white" stroke="#bfbfbf" points="3565.5,-58.5 3565.5,-79.5 3746.5,-79.5 3746.5,-58.5 3565.5,-58.5"/>
<text text-anchor="middle" x="3656" y="-66.5" font-family="Helvetica,sans-Serif" font-size="10.00">walking&#45;client/constraints/constraint.h</text>
</g>
<!-- Node44&#45;&gt;Node45 -->
<g id="edge122" class="edge"><title>Node44&#45;&gt;Node45</title>
<path fill="none" stroke="midnightblue" d="M3378.39,-116.497C3436.41,-106.57 3523.43,-91.6819 3584.54,-81.2264"/>
<polygon fill="midnightblue" stroke="midnightblue" points="3585.23,-84.6594 3594.49,-79.5231 3584.05,-77.7597 3585.23,-84.6594"/>
</g>
<!-- Node46&#45;&gt;Node45 -->
<g id="edge126" class="edge"><title>Node46&#45;&gt;Node45</title>
<path fill="none" stroke="midnightblue" d="M3561.01,-116.497C3579.04,-107.479 3605.27,-94.3649 3625.6,-84.2006"/>
<polygon fill="midnightblue" stroke="midnightblue" points="3627.38,-87.2239 3634.76,-79.6212 3624.25,-80.9629 3627.38,-87.2239"/>
</g>
<!-- Node47&#45;&gt;Node45 -->
<g id="edge130" class="edge"><title>Node47&#45;&gt;Node45</title>
<path fill="none" stroke="midnightblue" d="M3751.81,-116.497C3733.54,-107.438 3706.93,-94.2462 3686.39,-84.0628"/>
<polygon fill="midnightblue" stroke="midnightblue" points="3687.94,-80.9269 3677.43,-79.6212 3684.83,-87.1986 3687.94,-80.9269"/>
</g>
<!-- Node48&#45;&gt;Node45 -->
<g id="edge134" class="edge"><title>Node48&#45;&gt;Node45</title>
<path fill="none" stroke="midnightblue" d="M3966.37,-116.497C3901.24,-106.529 3803.41,-91.5591 3735.05,-81.0973"/>
<polygon fill="midnightblue" stroke="midnightblue" points="3735.18,-77.5762 3724.76,-79.5231 3734.12,-84.4956 3735.18,-77.5762"/>
</g>
<!-- Node49&#45;&gt;Node3 -->
<g id="edge144" class="edge"><title>Node49&#45;&gt;Node3</title>
<path fill="none" stroke="midnightblue" d="M2359.06,-238.491C2547.53,-225.447 3066.28,-185.556 3126,-138 3159.71,-111.153 3174.12,-60.0828 3179.75,-31.5644"/>
<polygon fill="midnightblue" stroke="midnightblue" points="3183.24,-31.9703 3181.56,-21.5091 3176.35,-30.733 3183.24,-31.9703"/>
</g>
<!-- Node49&#45;&gt;Node4 -->
<g id="edge140" class="edge"><title>Node49&#45;&gt;Node4</title>
<path fill="none" stroke="midnightblue" d="M2222.91,-240.858C1936.06,-231.836 826.93,-196.95 523.89,-187.418"/>
<polygon fill="midnightblue" stroke="midnightblue" points="523.558,-183.906 513.453,-187.09 523.338,-190.903 523.558,-183.906"/>
</g>
<!-- Node49&#45;&gt;Node15 -->
<g id="edge146" class="edge"><title>Node49&#45;&gt;Node15</title>
<path fill="none" stroke="midnightblue" d="M2223.95,-232.442C2024.68,-201.064 1438.05,-108.689 1246.94,-78.5961"/>
<polygon fill="midnightblue" stroke="midnightblue" points="1247.22,-75.0973 1236.8,-76.9991 1246.13,-82.0121 1247.22,-75.0973"/>
</g>
<!-- Node49&#45;&gt;Node32 -->
<g id="edge138" class="edge"><title>Node49&#45;&gt;Node32</title>
<path fill="none" stroke="midnightblue" d="M2293.32,-232.11C2300.34,-201.376 2323.97,-112.66 2373,-58 2385.14,-44.4691 2402.12,-33.7927 2417.4,-26.0583"/>
<polygon fill="midnightblue" stroke="midnightblue" points="2419.14,-29.1067 2426.64,-21.6234 2416.11,-22.7962 2419.14,-29.1067"/>
</g>
<!-- Node49&#45;&gt;Node39 -->
<g id="edge142" class="edge"><title>Node49&#45;&gt;Node39</title>
<path fill="none" stroke="midnightblue" d="M2298.69,-232.348C2324.73,-196.569 2410.1,-81.6223 2449,-58 2461.06,-50.6753 2533.84,-34.8184 2588.83,-23.5516"/>
<polygon fill="midnightblue" stroke="midnightblue" points="2589.78,-26.9313 2598.88,-21.5044 2588.38,-20.0723 2589.78,-26.9313"/>
</g>
</g>
</svg>
