<?xml version="1.0" encoding="UTF-8" standalone="no"?>
<!DOCTYPE svg PUBLIC "-//W3C//DTD SVG 1.1//EN"
 "http://www.w3.org/Graphics/SVG/1.1/DTD/svg11.dtd">
<!-- Generated by graphviz version 2.26.3 (20100126.1600)
 -->
<!-- Title: G Pages: 1 -->
<svg width="3698pt" height="436pt"
 viewBox="0.00 0.00 3698.00 436.00" xmlns="http://www.w3.org/2000/svg" xmlns:xlink="http://www.w3.org/1999/xlink">
<g id="graph1" class="graph" transform="scale(1 1) rotate(0) translate(4 432)">
<title>G</title>
<polygon fill="white" stroke="white" points="-4,5 -4,-432 3695,-432 3695,5 -4,5"/>
<!-- Node1 -->
<g id="node1" class="node"><title>Node1</title>
<polygon fill="#bfbfbf" stroke="black" points="1278,-406.5 1278,-427.5 1676,-427.5 1676,-406.5 1278,-406.5"/>
<text text-anchor="middle" x="1477" y="-414.5" font-family="Helvetica,sans-Serif" font-size="10.00">ocra&#45;wbi&#45;plugins/ocra&#45;icub&#45;clients/walking&#45;client/include/walking&#45;client/MIQPController.h</text>
</g>
<!-- Node2 -->
<g id="node3" class="node"><title>Node2</title>
<polygon fill="white" stroke="#bfbfbf" points="355,-348.5 355,-369.5 429,-369.5 429,-348.5 355,-348.5"/>
<text text-anchor="middle" x="392" y="-356.5" font-family="Helvetica,sans-Serif" font-size="10.00">gurobi_c++.h</text>
</g>
<!-- Node1&#45;&gt;Node2 -->
<g id="edge2" class="edge"><title>Node1&#45;&gt;Node2</title>
<path fill="none" stroke="midnightblue" d="M1277.97,-411.91C1023.95,-404.725 598.765,-390.194 443,-370 441.737,-369.836 440.459,-369.657 439.171,-369.465"/>
<polygon fill="midnightblue" stroke="midnightblue" points="439.643,-365.996 429.199,-367.774 438.473,-372.897 439.643,-365.996"/>
</g>
<!-- Node3 -->
<g id="node5" class="node"><title>Node3</title>
<a xlink:href="utils_8h.html" target="_top" xlink:title="walking&#45;client/utils.h">
<polygon fill="white" stroke="black" points="3350.5,-116.5 3350.5,-137.5 3455.5,-137.5 3455.5,-116.5 3350.5,-116.5"/>
<text text-anchor="middle" x="3403" y="-124.5" font-family="Helvetica,sans-Serif" font-size="10.00">walking&#45;client/utils.h</text>
</a>
</g>
<!-- Node1&#45;&gt;Node3 -->
<g id="edge4" class="edge"><title>Node1&#45;&gt;Node3</title>
<path fill="none" stroke="midnightblue" d="M1676.38,-413.962C2114.83,-406.975 3136.35,-388.905 3293,-370 3436.15,-352.725 3610,-445.188 3610,-301 3610,-301 3610,-301 3610,-243 3610,-175.978 3526.4,-147.293 3465.45,-135.286"/>
<polygon fill="midnightblue" stroke="midnightblue" points="3465.97,-131.823 3455.5,-133.432 3464.69,-138.705 3465.97,-131.823"/>
</g>
<!-- Node4 -->
<g id="node7" class="node"><title>Node4</title>
<a xlink:href="OcraWbiModel_8h.html" target="_top" xlink:title="Implementation of ocra::Model using wholeBodyInterface.">
<polygon fill="white" stroke="black" points="1303,-174.5 1303,-195.5 1435,-195.5 1435,-174.5 1303,-174.5"/>
<text text-anchor="middle" x="1369" y="-182.5" font-family="Helvetica,sans-Serif" font-size="10.00">ocra&#45;icub/OcraWbiModel.h</text>
</a>
</g>
<!-- Node1&#45;&gt;Node4 -->
<g id="edge6" class="edge"><title>Node1&#45;&gt;Node4</title>
<path fill="none" stroke="midnightblue" d="M1472.08,-406.429C1455.32,-370.422 1400.27,-252.179 1378.24,-204.847"/>
<polygon fill="midnightblue" stroke="midnightblue" points="1381.34,-203.222 1373.95,-195.634 1375,-206.176 1381.34,-203.222"/>
</g>
<!-- Node21 -->
<g id="node46" class="node"><title>Node21</title>
<polygon fill="white" stroke="#bfbfbf" points="-0.5,-0.5 -0.5,-21.5 110.5,-21.5 110.5,-0.5 -0.5,-0.5"/>
<text text-anchor="middle" x="55" y="-8.5" font-family="Helvetica,sans-Serif" font-size="10.00">yarp/os/RateThread.h</text>
</g>
<!-- Node1&#45;&gt;Node21 -->
<g id="edge86" class="edge"><title>Node1&#45;&gt;Node21</title>
<path fill="none" stroke="midnightblue" d="M1277.97,-411.614C1032.72,-404.202 640.282,-389.523 575,-370 516.795,-352.593 457,-361.752 457,-301 457,-301 457,-301 457,-127 457,-92.4496 234.96,-45.1833 120.918,-23.1854"/>
<polygon fill="midnightblue" stroke="midnightblue" points="121.377,-19.7097 110.896,-21.2637 120.058,-26.5844 121.377,-19.7097"/>
</g>
<!-- Node32 -->
<g id="node72" class="node"><title>Node32</title>
<polygon fill="white" stroke="#bfbfbf" points="2433.5,-0.5 2433.5,-21.5 2506.5,-21.5 2506.5,-0.5 2433.5,-0.5"/>
<text text-anchor="middle" x="2470" y="-8.5" font-family="Helvetica,sans-Serif" font-size="10.00">Eigen/Dense</text>
</g>
<!-- Node1&#45;&gt;Node32 -->
<g id="edge88" class="edge"><title>Node1&#45;&gt;Node32</title>
<path fill="none" stroke="midnightblue" d="M1465.76,-406.234C1457.4,-397.404 1446.67,-384.099 1442,-370 1429.06,-330.965 1423.42,-296.476 1463,-232 1536.33,-112.558 1590.86,-95.1597 1726,-58 2022.72,23.5912 2115.23,-65.185 2423.17,-22.0274"/>
<polygon fill="midnightblue" stroke="midnightblue" points="2423.87,-25.4617 2433.27,-20.5744 2422.88,-18.5329 2423.87,-25.4617"/>
</g>
<!-- Node33 -->
<g id="node74" class="node"><title>Node33</title>
<polygon fill="white" stroke="#bfbfbf" points="128,-0.5 128,-21.5 196,-21.5 196,-0.5 128,-0.5"/>
<text text-anchor="middle" x="162" y="-8.5" font-family="Helvetica,sans-Serif" font-size="10.00">Eigen/Lgsm</text>
</g>
<!-- Node1&#45;&gt;Node33 -->
<g id="edge90" class="edge"><title>Node1&#45;&gt;Node33</title>
<path fill="none" stroke="midnightblue" d="M1277.98,-413.097C990.994,-404.77 495,-379.084 495,-301 495,-301 495,-301 495,-127 495,-94.5312 496.138,-78.5494 471,-58 426.982,-22.0173 278.414,-32.2886 206.257,-21.828"/>
<polygon fill="midnightblue" stroke="midnightblue" points="206.63,-18.3415 196.186,-20.1263 205.463,-25.2437 206.63,-18.3415"/>
</g>
<!-- Node34 -->
<g id="node80" class="node"><title>Node34</title>
<polygon fill="white" stroke="#bfbfbf" points="2352,-116.5 2352,-137.5 2522,-137.5 2522,-116.5 2352,-116.5"/>
<text text-anchor="middle" x="2437" y="-124.5" font-family="Helvetica,sans-Serif" font-size="10.00">unsupported/Eigen/MatrixFunctions</text>
</g>
<!-- Node1&#45;&gt;Node34 -->
<g id="edge92" class="edge"><title>Node1&#45;&gt;Node34</title>
<path fill="none" stroke="midnightblue" d="M1485.53,-406.455C1514.86,-370.504 1612.06,-253.761 1655,-232 1773.35,-172.022 2160.35,-142.693 2341.66,-131.971"/>
<polygon fill="midnightblue" stroke="midnightblue" points="2341.94,-135.461 2351.72,-131.383 2341.54,-128.473 2341.94,-135.461"/>
</g>
<!-- Node35 -->
<g id="node82" class="node"><title>Node35</title>
<a xlink:href="MIQPLinearConstraints_8h.html" target="_top" xlink:title="walking&#45;client/constraints/MIQPLinearConstraints.h">
<polygon fill="white" stroke="black" points="3044,-348.5 3044,-369.5 3284,-369.5 3284,-348.5 3044,-348.5"/>
<text text-anchor="middle" x="3164" y="-356.5" font-family="Helvetica,sans-Serif" font-size="10.00">walking&#45;client/constraints/MIQPLinearConstraints.h</text>
</a>
</g>
<!-- Node1&#45;&gt;Node35 -->
<g id="edge94" class="edge"><title>Node1&#45;&gt;Node35</title>
<path fill="none" stroke="midnightblue" d="M1676.31,-410.148C2025.83,-398.131 2740.01,-373.577 3033.57,-363.484"/>
<polygon fill="midnightblue" stroke="midnightblue" points="3033.96,-366.973 3043.83,-363.131 3033.72,-359.977 3033.96,-366.973"/>
</g>
<!-- Node49 -->
<g id="node123" class="node"><title>Node49</title>
<a xlink:href="MIQPState_8h.html" target="_top" xlink:title="walking&#45;client/MIQPState.h">
<polygon fill="white" stroke="black" points="1472,-232.5 1472,-253.5 1608,-253.5 1608,-232.5 1472,-232.5"/>
<text text-anchor="middle" x="1540" y="-240.5" font-family="Helvetica,sans-Serif" font-size="10.00">walking&#45;client/MIQPState.h</text>
</a>
</g>
<!-- Node1&#45;&gt;Node49 -->
<g id="edge166" class="edge"><title>Node1&#45;&gt;Node49</title>
<path fill="none" stroke="midnightblue" d="M1480.85,-406.377C1491.06,-378.172 1519,-301.012 1532.5,-263.72"/>
<polygon fill="midnightblue" stroke="midnightblue" points="1535.93,-264.522 1536.04,-253.928 1529.35,-262.139 1535.93,-264.522"/>
</g>
<!-- Node50 -->
<g id="node134" class="node"><title>Node50</title>
<polygon fill="white" stroke="#bfbfbf" points="3637.5,-348.5 3637.5,-369.5 3690.5,-369.5 3690.5,-348.5 3637.5,-348.5"/>
<text text-anchor="middle" x="3664" y="-356.5" font-family="Helvetica,sans-Serif" font-size="10.00">Gurobi.h</text>
</g>
<!-- Node1&#45;&gt;Node50 -->
<g id="edge168" class="edge"><title>Node1&#45;&gt;Node50</title>
<path fill="none" stroke="midnightblue" d="M1676.17,-415.437C2171.9,-411.149 3434.93,-397.633 3624,-370 3625.07,-369.844 3626.15,-369.668 3627.24,-369.476"/>
<polygon fill="midnightblue" stroke="midnightblue" points="3628.03,-372.885 3637.08,-367.372 3626.57,-366.039 3628.03,-372.885"/>
</g>
<!-- Node5 -->
<g id="node9" class="node"><title>Node5</title>
<polygon fill="white" stroke="#bfbfbf" points="2524,-0.5 2524,-21.5 2576,-21.5 2576,-0.5 2524,-0.5"/>
<text text-anchor="middle" x="2550" y="-8.5" font-family="Helvetica,sans-Serif" font-size="10.00">memory</text>
</g>
<!-- Node4&#45;&gt;Node5 -->
<g id="edge8" class="edge"><title>Node4&#45;&gt;Node5</title>
<path fill="none" stroke="midnightblue" d="M1435.25,-179.392C1610.79,-163.722 2102.04,-114.591 2513.74,-22.0189"/>
<polygon fill="midnightblue" stroke="midnightblue" points="2514.77,-25.3736 2523.75,-19.7546 2513.23,-18.5459 2514.77,-25.3736"/>
</g>
<!-- Node6 -->
<g id="node11" class="node"><title>Node6</title>
<polygon fill="white" stroke="#bfbfbf" points="2311.5,-0.5 2311.5,-21.5 2416.5,-21.5 2416.5,-0.5 2311.5,-0.5"/>
<text text-anchor="middle" x="2364" y="-8.5" font-family="Helvetica,sans-Serif" font-size="10.00">ocra/control/Model.h</text>
</g>
<!-- Node4&#45;&gt;Node6 -->
<g id="edge10" class="edge"><title>Node4&#45;&gt;Node6</title>
<path fill="none" stroke="midnightblue" d="M1374.11,-174.309C1387.76,-146.214 1425.67,-71.5272 1449,-58 1528.84,-11.7146 2170.71,-31.2564 2301.4,-21.8368"/>
<polygon fill="midnightblue" stroke="midnightblue" points="2301.84,-25.3109 2311.49,-20.9371 2301.22,-18.3385 2301.84,-25.3109"/>
</g>
<!-- Node7 -->
<g id="node13" class="node"><title>Node7</title>
<polygon fill="white" stroke="#bfbfbf" points="2236,-0.5 2236,-21.5 2294,-21.5 2294,-0.5 2236,-0.5"/>
<text text-anchor="middle" x="2265" y="-8.5" font-family="Helvetica,sans-Serif" font-size="10.00">wbi/wbi.h</text>
</g>
<!-- Node4&#45;&gt;Node7 -->
<g id="edge12" class="edge"><title>Node4&#45;&gt;Node7</title>
<path fill="none" stroke="midnightblue" d="M1368.82,-174.21C1369.07,-149.014 1373.59,-86.3055 1411,-58 1481.25,-4.84345 2099.62,-34.8353 2225.66,-21.5524"/>
<polygon fill="midnightblue" stroke="midnightblue" points="2226.24,-25.0061 2235.7,-20.228 2225.33,-18.0662 2226.24,-25.0061"/>
</g>
<!-- Node8 -->
<g id="node15" class="node"><title>Node8</title>
<polygon fill="white" stroke="#bfbfbf" points="214,-0.5 214,-21.5 290,-21.5 290,-0.5 214,-0.5"/>
<text text-anchor="middle" x="252" y="-8.5" font-family="Helvetica,sans-Serif" font-size="10.00">yarp/os/Log.h</text>
</g>
<!-- Node4&#45;&gt;Node8 -->
<g id="edge14" class="edge"><title>Node4&#45;&gt;Node8</title>
<path fill="none" stroke="midnightblue" d="M1302.74,-182.525C1135.12,-176.009 703.109,-157.531 641,-138 624.64,-132.855 525.067,-63.9985 509,-58 423.232,-25.9787 393.768,-39.7952 300.064,-22.0777"/>
<polygon fill="midnightblue" stroke="midnightblue" points="300.664,-18.6289 290.177,-20.1376 299.316,-25.4979 300.664,-18.6289"/>
</g>
<!-- Node9 -->
<g id="node17" class="node"><title>Node9</title>
<a xlink:href="OcraWbiConversions_8h.html" target="_top" xlink:title="A utility class full of static conversion functions.">
<polygon fill="white" stroke="black" points="649.5,-116.5 649.5,-137.5 810.5,-137.5 810.5,-116.5 649.5,-116.5"/>
<text text-anchor="middle" x="730" y="-124.5" font-family="Helvetica,sans-Serif" font-size="10.00">ocra&#45;icub/OcraWbiConversions.h</text>
</a>
</g>
<!-- Node4&#45;&gt;Node9 -->
<g id="edge16" class="edge"><title>Node4&#45;&gt;Node9</title>
<path fill="none" stroke="midnightblue" d="M1302.72,-178.984C1187.79,-168.552 951.334,-147.09 821.07,-135.266"/>
<polygon fill="midnightblue" stroke="midnightblue" points="821,-131.745 810.725,-134.327 820.367,-138.717 821,-131.745"/>
</g>
<!-- Node15 -->
<g id="node31" class="node"><title>Node15</title>
<a xlink:href="Utilities_8h.html" target="_top" xlink:title="Some useful tools for the ocra&#45;icub lib.">
<polygon fill="white" stroke="black" points="1220.5,-58.5 1220.5,-79.5 1321.5,-79.5 1321.5,-58.5 1220.5,-58.5"/>
<text text-anchor="middle" x="1271" y="-66.5" font-family="Helvetica,sans-Serif" font-size="10.00">ocra&#45;icub/Utilities.h</text>
</a>
</g>
<!-- Node4&#45;&gt;Node15 -->
<g id="edge84" class="edge"><title>Node4&#45;&gt;Node15</title>
<path fill="none" stroke="midnightblue" d="M1359.96,-174.295C1343.26,-154.527 1307.4,-112.08 1286.67,-87.5443"/>
<polygon fill="midnightblue" stroke="midnightblue" points="1289.15,-85.0593 1280.02,-79.6792 1283.8,-89.5768 1289.15,-85.0593"/>
</g>
<!-- Node9&#45;&gt;Node7 -->
<g id="edge28" class="edge"><title>Node9&#45;&gt;Node7</title>
<path fill="none" stroke="midnightblue" d="M810.586,-124.605C950.991,-119.781 1234.61,-106.97 1330,-80 1350.66,-74.1595 1352.24,-63.4673 1373,-58 1553.63,-10.4273 2023.59,-51.225 2225.7,-21.7856"/>
<polygon fill="midnightblue" stroke="midnightblue" points="2226.36,-25.2254 2235.7,-20.2338 2225.28,-18.3081 2226.36,-25.2254"/>
</g>
<!-- Node9&#45;&gt;Node8 -->
<g id="edge26" class="edge"><title>Node9&#45;&gt;Node8</title>
<path fill="none" stroke="midnightblue" d="M689.767,-116.438C660.184,-108.081 619.325,-95.2926 585,-80 567.174,-72.0581 565.434,-64.4063 547,-58 444.774,-22.4732 410.382,-41.5512 300.009,-22.0278"/>
<polygon fill="midnightblue" stroke="midnightblue" points="300.629,-18.5831 290.161,-20.22 299.365,-25.4681 300.629,-18.5831"/>
</g>
<!-- Node10 -->
<g id="node19" class="node"><title>Node10</title>
<polygon fill="white" stroke="#bfbfbf" points="308,-0.5 308,-21.5 362,-21.5 362,-0.5 308,-0.5"/>
<text text-anchor="middle" x="335" y="-8.5" font-family="Helvetica,sans-Serif" font-size="10.00">iostream</text>
</g>
<!-- Node9&#45;&gt;Node10 -->
<g id="edge18" class="edge"><title>Node9&#45;&gt;Node10</title>
<path fill="none" stroke="midnightblue" d="M703.679,-116.398C681.786,-107.352 649.962,-93.6735 623,-80 605.595,-71.1734 603.36,-64.6133 585,-58 497.272,-26.4008 466.891,-42.9454 372.031,-21.9668"/>
<polygon fill="midnightblue" stroke="midnightblue" points="372.554,-18.4959 362.024,-19.6691 370.987,-25.3183 372.554,-18.4959"/>
</g>
<!-- Node11 -->
<g id="node21" class="node"><title>Node11</title>
<polygon fill="white" stroke="#bfbfbf" points="712.5,-58.5 712.5,-79.5 747.5,-79.5 747.5,-58.5 712.5,-58.5"/>
<text text-anchor="middle" x="730" y="-66.5" font-family="Helvetica,sans-Serif" font-size="10.00">map</text>
</g>
<!-- Node9&#45;&gt;Node11 -->
<g id="edge20" class="edge"><title>Node9&#45;&gt;Node11</title>
<path fill="none" stroke="midnightblue" d="M730,-116.362C730,-108.922 730,-98.7427 730,-89.7276"/>
<polygon fill="midnightblue" stroke="midnightblue" points="733.5,-89.5706 730,-79.5707 726.5,-89.5707 733.5,-89.5706"/>
</g>
<!-- Node12 -->
<g id="node23" class="node"><title>Node12</title>
<polygon fill="white" stroke="#bfbfbf" points="380,-0.5 380,-21.5 424,-21.5 424,-0.5 380,-0.5"/>
<text text-anchor="middle" x="402" y="-8.5" font-family="Helvetica,sans-Serif" font-size="10.00">vector</text>
</g>
<!-- Node9&#45;&gt;Node12 -->
<g id="edge22" class="edge"><title>Node9&#45;&gt;Node12</title>
<path fill="none" stroke="midnightblue" d="M714.275,-116.383C686.968,-98.0162 632.75,-61.8945 623,-58 546.068,-27.2722 518.002,-43.1789 433.919,-21.9002"/>
<polygon fill="midnightblue" stroke="midnightblue" points="434.783,-18.5084 424.221,-19.346 433,-25.2776 434.783,-18.5084"/>
</g>
<!-- Node13 -->
<g id="node25" class="node"><title>Node13</title>
<polygon fill="white" stroke="#bfbfbf" points="441.5,-0.5 441.5,-21.5 532.5,-21.5 532.5,-0.5 441.5,-0.5"/>
<text text-anchor="middle" x="487" y="-8.5" font-family="Helvetica,sans-Serif" font-size="10.00">yarp/sig/Vector.h</text>
</g>
<!-- Node9&#45;&gt;Node13 -->
<g id="edge24" class="edge"><title>Node9&#45;&gt;Node13</title>
<path fill="none" stroke="midnightblue" d="M722.345,-116.405C710.783,-101.181 687.393,-73.2736 661,-58 640.837,-46.3315 585.263,-32.3362 542.293,-22.6684"/>
<polygon fill="midnightblue" stroke="midnightblue" points="543.025,-19.2458 532.503,-20.4912 541.505,-26.0788 543.025,-19.2458"/>
</g>
<!-- Node14 -->
<g id="node29" class="node"><title>Node14</title>
<polygon fill="white" stroke="#bfbfbf" points="765,-58.5 765,-79.5 1007,-79.5 1007,-58.5 765,-58.5"/>
<text text-anchor="middle" x="886" y="-66.5" font-family="Helvetica,sans-Serif" font-size="10.00">yarpWholeBodyInterface/yarpWholeBodyInterface.h</text>
</g>
<!-- Node9&#45;&gt;Node14 -->
<g id="edge30" class="edge"><title>Node9&#45;&gt;Node14</title>
<path fill="none" stroke="midnightblue" d="M758.25,-116.497C783.462,-107.123 820.576,-93.3242 848.312,-83.0122"/>
<polygon fill="midnightblue" stroke="midnightblue" points="849.543,-86.2886 857.697,-79.5231 847.104,-79.7274 849.543,-86.2886"/>
</g>
<!-- Node9&#45;&gt;Node15 -->
<g id="edge32" class="edge"><title>Node9&#45;&gt;Node15</title>
<path fill="none" stroke="midnightblue" d="M810.701,-118.348C919.945,-106.636 1112.45,-85.9985 1210.26,-75.5114"/>
<polygon fill="midnightblue" stroke="midnightblue" points="1210.72,-78.9831 1220.29,-74.4369 1209.97,-72.023 1210.72,-78.9831"/>
</g>
<!-- Node15&#45;&gt;Node5 -->
<g id="edge34" class="edge"><title>Node15&#45;&gt;Node5</title>
<path fill="none" stroke="midnightblue" d="M1321.77,-67.8813C1535.31,-63.0696 2356.5,-43.4692 2513.66,-21.6309"/>
<polygon fill="midnightblue" stroke="midnightblue" points="2514.47,-25.0478 2523.81,-20.0548 2513.39,-18.1307 2514.47,-25.0478"/>
</g>
<!-- Node15&#45;&gt;Node6 -->
<g id="edge76" class="edge"><title>Node15&#45;&gt;Node6</title>
<path fill="none" stroke="midnightblue" d="M1321.51,-64.5643C1348.12,-62.3459 1381.31,-59.765 1411,-58 1803.78,-34.6518 1906.9,-64.801 2301.52,-22.0324"/>
<polygon fill="midnightblue" stroke="midnightblue" points="2301.93,-25.5085 2311.49,-20.9431 2301.17,-18.5499 2301.93,-25.5085"/>
</g>
<!-- Node15&#45;&gt;Node7 -->
<g id="edge74" class="edge"><title>Node15&#45;&gt;Node7</title>
<path fill="none" stroke="midnightblue" d="M1321.57,-59.684C1326.1,-59.0386 1330.63,-58.462 1335,-58 1726.3,-16.6538 1833.59,-84.4821 2225.79,-21.8397"/>
<polygon fill="midnightblue" stroke="midnightblue" points="2226.39,-25.2891 2235.7,-20.2392 2225.27,-18.3787 2226.39,-25.2891"/>
</g>
<!-- Node15&#45;&gt;Node8 -->
<g id="edge64" class="edge"><title>Node15&#45;&gt;Node8</title>
<path fill="none" stroke="midnightblue" d="M1220.49,-66.8125C1035.56,-58.7725 401.391,-30.9118 300.255,-21.6391"/>
<polygon fill="midnightblue" stroke="midnightblue" points="300.431,-18.1376 290.11,-20.5301 299.671,-25.0962 300.431,-18.1376"/>
</g>
<!-- Node15&#45;&gt;Node10 -->
<g id="edge38" class="edge"><title>Node15&#45;&gt;Node10</title>
<path fill="none" stroke="midnightblue" d="M1220.49,-66.704C1044.89,-58.6802 466.991,-31.902 372.263,-21.4456"/>
<polygon fill="midnightblue" stroke="midnightblue" points="372.727,-17.9765 362.349,-20.1106 371.792,-24.9139 372.727,-17.9765"/>
</g>
<!-- Node15&#45;&gt;Node12 -->
<g id="edge42" class="edge"><title>Node15&#45;&gt;Node12</title>
<path fill="none" stroke="midnightblue" d="M1220.37,-66.5586C1053.16,-58.4464 524.551,-32.3875 434.193,-21.2398"/>
<polygon fill="midnightblue" stroke="midnightblue" points="434.55,-17.7539 424.136,-19.7072 433.495,-24.674 434.55,-17.7539"/>
</g>
<!-- Node15&#45;&gt;Node13 -->
<g id="edge70" class="edge"><title>Node15&#45;&gt;Node13</title>
<path fill="none" stroke="midnightblue" d="M1220.29,-66.6403C1080.66,-60.0022 691.603,-40.5234 542.877,-22.0698"/>
<polygon fill="midnightblue" stroke="midnightblue" points="542.956,-18.5511 532.591,-20.7431 542.061,-25.4936 542.956,-18.5511"/>
</g>
<!-- Node16 -->
<g id="node34" class="node"><title>Node16</title>
<polygon fill="white" stroke="#bfbfbf" points="1810,-0.5 1810,-21.5 1854,-21.5 1854,-0.5 1810,-0.5"/>
<text text-anchor="middle" x="1832" y="-8.5" font-family="Helvetica,sans-Serif" font-size="10.00">cmath</text>
</g>
<!-- Node15&#45;&gt;Node16 -->
<g id="edge36" class="edge"><title>Node15&#45;&gt;Node16</title>
<path fill="none" stroke="midnightblue" d="M1321.59,-59.8571C1326.12,-59.1747 1330.64,-58.5423 1335,-58 1537.92,-32.7789 1595.99,-64.0993 1800.02,-21.723"/>
<polygon fill="midnightblue" stroke="midnightblue" points="1800.79,-25.1385 1809.85,-19.6488 1799.34,-18.2894 1800.79,-25.1385"/>
</g>
<!-- Node17 -->
<g id="node37" class="node"><title>Node17</title>
<polygon fill="white" stroke="#bfbfbf" points="1871.5,-0.5 1871.5,-21.5 1912.5,-21.5 1912.5,-0.5 1871.5,-0.5"/>
<text text-anchor="middle" x="1892" y="-8.5" font-family="Helvetica,sans-Serif" font-size="10.00">string</text>
</g>
<!-- Node15&#45;&gt;Node17 -->
<g id="edge40" class="edge"><title>Node15&#45;&gt;Node17</title>
<path fill="none" stroke="midnightblue" d="M1321.59,-59.8146C1326.11,-59.1413 1330.63,-58.5226 1335,-58 1565.24,-30.4381 1631.35,-71.0717 1861.3,-21.8598"/>
<polygon fill="midnightblue" stroke="midnightblue" points="1862.29,-25.2279 1871.31,-19.6832 1860.8,-18.3877 1862.29,-25.2279"/>
</g>
<!-- Node18 -->
<g id="node40" class="node"><title>Node18</title>
<polygon fill="white" stroke="#bfbfbf" points="1930,-0.5 1930,-21.5 1982,-21.5 1982,-0.5 1930,-0.5"/>
<text text-anchor="middle" x="1956" y="-8.5" font-family="Helvetica,sans-Serif" font-size="10.00">sstream</text>
</g>
<!-- Node15&#45;&gt;Node18 -->
<g id="edge44" class="edge"><title>Node15&#45;&gt;Node18</title>
<path fill="none" stroke="midnightblue" d="M1321.58,-59.783C1326.11,-59.1164 1330.63,-58.508 1335,-58 1590.9,-28.238 1662.6,-68.4231 1919.79,-21.827"/>
<polygon fill="midnightblue" stroke="midnightblue" points="1920.6,-25.2366 1929.8,-19.9862 1919.33,-18.352 1920.6,-25.2366"/>
</g>
<!-- Node19 -->
<g id="node42" class="node"><title>Node19</title>
<polygon fill="white" stroke="#bfbfbf" points="1999.5,-0.5 1999.5,-21.5 2114.5,-21.5 2114.5,-0.5 1999.5,-0.5"/>
<text text-anchor="middle" x="2057" y="-8.5" font-family="Helvetica,sans-Serif" font-size="10.00">yarp/os/BufferedPort.h</text>
</g>
<!-- Node15&#45;&gt;Node19 -->
<g id="edge46" class="edge"><title>Node15&#45;&gt;Node19</title>
<path fill="none" stroke="midnightblue" d="M1321.58,-59.7523C1326.11,-59.0922 1330.63,-58.4937 1335,-58 1621.89,-25.583 1699.04,-53.4106 1989.48,-22.0652"/>
<polygon fill="midnightblue" stroke="midnightblue" points="1989.9,-25.5404 1999.46,-20.9741 1989.14,-18.5818 1989.9,-25.5404"/>
</g>
<!-- Node20 -->
<g id="node44" class="node"><title>Node20</title>
<polygon fill="white" stroke="#bfbfbf" points="2132,-0.5 2132,-21.5 2218,-21.5 2218,-0.5 2132,-0.5"/>
<text text-anchor="middle" x="2175" y="-8.5" font-family="Helvetica,sans-Serif" font-size="10.00">yarp/os/Bottle.h</text>
</g>
<!-- Node15&#45;&gt;Node20 -->
<g id="edge48" class="edge"><title>Node15&#45;&gt;Node20</title>
<path fill="none" stroke="midnightblue" d="M1321.57,-59.7091C1326.1,-59.0583 1330.63,-58.4736 1335,-58 1680.23,-20.5932 1773.47,-65.5536 2121.84,-21.9501"/>
<polygon fill="midnightblue" stroke="midnightblue" points="2122.48,-25.3974 2131.96,-20.6679 2121.6,-18.453 2122.48,-25.3974"/>
</g>
<!-- Node15&#45;&gt;Node21 -->
<g id="edge50" class="edge"><title>Node15&#45;&gt;Node21</title>
<path fill="none" stroke="midnightblue" d="M1220.2,-66.7638C1168.74,-64.5089 1086.84,-60.9494 1016,-58 620.667,-41.5401 517.49,-63.5106 120.811,-22.082"/>
<polygon fill="midnightblue" stroke="midnightblue" points="121.099,-18.5931 110.788,-21.0283 120.367,-25.5547 121.099,-18.5931"/>
</g>
<!-- Node22 -->
<g id="node48" class="node"><title>Node22</title>
<polygon fill="white" stroke="#bfbfbf" points="549.5,-0.5 549.5,-21.5 678.5,-21.5 678.5,-0.5 549.5,-0.5"/>
<text text-anchor="middle" x="614" y="-8.5" font-family="Helvetica,sans-Serif" font-size="10.00">yarp/os/ResourceFinder.h</text>
</g>
<!-- Node15&#45;&gt;Node22 -->
<g id="edge52" class="edge"><title>Node15&#45;&gt;Node22</title>
<path fill="none" stroke="midnightblue" d="M1220.5,-66.1173C1120.83,-60.1712 891.564,-45.2246 689.079,-22.1836"/>
<polygon fill="midnightblue" stroke="midnightblue" points="689.181,-18.6725 678.848,-21.0098 688.384,-25.6269 689.181,-18.6725"/>
</g>
<!-- Node23 -->
<g id="node50" class="node"><title>Node23</title>
<polygon fill="white" stroke="#bfbfbf" points="696,-0.5 696,-21.5 806,-21.5 806,-0.5 696,-0.5"/>
<text text-anchor="middle" x="751" y="-8.5" font-family="Helvetica,sans-Serif" font-size="10.00">yarp/os/PortReader.h</text>
</g>
<!-- Node15&#45;&gt;Node23 -->
<g id="edge54" class="edge"><title>Node15&#45;&gt;Node23</title>
<path fill="none" stroke="midnightblue" d="M1220.26,-64.8964C1137.73,-57.9756 969.1,-42.8075 816.171,-22.0897"/>
<polygon fill="midnightblue" stroke="midnightblue" points="816.503,-18.6027 806.121,-20.717 815.556,-25.5383 816.503,-18.6027"/>
</g>
<!-- Node24 -->
<g id="node52" class="node"><title>Node24</title>
<polygon fill="white" stroke="#bfbfbf" points="824,-0.5 824,-21.5 928,-21.5 928,-0.5 824,-0.5"/>
<text text-anchor="middle" x="876" y="-8.5" font-family="Helvetica,sans-Serif" font-size="10.00">yarp/os/RpcClient.h</text>
</g>
<!-- Node15&#45;&gt;Node24 -->
<g id="edge56" class="edge"><title>Node15&#45;&gt;Node24</title>
<path fill="none" stroke="midnightblue" d="M1220.27,-62.4806C1156.71,-54.1765 1044.24,-39.026 938.138,-22.1401"/>
<polygon fill="midnightblue" stroke="midnightblue" points="938.648,-18.6773 928.221,-20.5537 937.542,-25.5894 938.648,-18.6773"/>
</g>
<!-- Node25 -->
<g id="node54" class="node"><title>Node25</title>
<polygon fill="white" stroke="#bfbfbf" points="945.5,-0.5 945.5,-21.5 1052.5,-21.5 1052.5,-0.5 945.5,-0.5"/>
<text text-anchor="middle" x="999" y="-8.5" font-family="Helvetica,sans-Serif" font-size="10.00">yarp/os/RpcServer.h</text>
</g>
<!-- Node15&#45;&gt;Node25 -->
<g id="edge58" class="edge"><title>Node15&#45;&gt;Node25</title>
<path fill="none" stroke="midnightblue" d="M1221.74,-58.4966C1175.77,-48.6931 1107.09,-34.0496 1058.17,-23.6165"/>
<polygon fill="midnightblue" stroke="midnightblue" points="1058.86,-20.1856 1048.35,-21.5231 1057.4,-27.0317 1058.86,-20.1856"/>
</g>
<!-- Node26 -->
<g id="node56" class="node"><title>Node26</title>
<polygon fill="white" stroke="#bfbfbf" points="1069.5,-0.5 1069.5,-21.5 1210.5,-21.5 1210.5,-0.5 1069.5,-0.5"/>
<text text-anchor="middle" x="1140" y="-8.5" font-family="Helvetica,sans-Serif" font-size="10.00">yarp/os/ConnectionReader.h</text>
</g>
<!-- Node15&#45;&gt;Node26 -->
<g id="edge60" class="edge"><title>Node15&#45;&gt;Node26</title>
<path fill="none" stroke="midnightblue" d="M1247.28,-58.4966C1226.63,-49.3562 1196.48,-36.0082 1173.4,-25.7883"/>
<polygon fill="midnightblue" stroke="midnightblue" points="1174.55,-22.4694 1163.99,-21.6212 1171.72,-28.8701 1174.55,-22.4694"/>
</g>
<!-- Node27 -->
<g id="node58" class="node"><title>Node27</title>
<polygon fill="white" stroke="#bfbfbf" points="1228,-0.5 1228,-21.5 1310,-21.5 1310,-0.5 1228,-0.5"/>
<text text-anchor="middle" x="1269" y="-8.5" font-family="Helvetica,sans-Serif" font-size="10.00">yarp/os/Time.h</text>
</g>
<!-- Node15&#45;&gt;Node27 -->
<g id="edge62" class="edge"><title>Node15&#45;&gt;Node27</title>
<path fill="none" stroke="midnightblue" d="M1270.63,-58.3619C1270.38,-50.9219 1270.03,-40.7427 1269.71,-31.7276"/>
<polygon fill="midnightblue" stroke="midnightblue" points="1273.21,-31.4441 1269.36,-21.5707 1266.21,-31.6854 1273.21,-31.4441"/>
</g>
<!-- Node28 -->
<g id="node61" class="node"><title>Node28</title>
<polygon fill="white" stroke="#bfbfbf" points="1327.5,-0.5 1327.5,-21.5 1434.5,-21.5 1434.5,-0.5 1327.5,-0.5"/>
<text text-anchor="middle" x="1381" y="-8.5" font-family="Helvetica,sans-Serif" font-size="10.00">yarp/os/LogStream.h</text>
</g>
<!-- Node15&#45;&gt;Node28 -->
<g id="edge66" class="edge"><title>Node15&#45;&gt;Node28</title>
<path fill="none" stroke="midnightblue" d="M1290.92,-58.4966C1307.95,-49.5194 1332.67,-36.4835 1351.91,-26.3387"/>
<polygon fill="midnightblue" stroke="midnightblue" points="1353.64,-29.3814 1360.86,-21.6212 1350.38,-23.1894 1353.64,-29.3814"/>
</g>
<!-- Node29 -->
<g id="node63" class="node"><title>Node29</title>
<polygon fill="white" stroke="#bfbfbf" points="1451.5,-0.5 1451.5,-21.5 1548.5,-21.5 1548.5,-0.5 1451.5,-0.5"/>
<text text-anchor="middle" x="1500" y="-8.5" font-family="Helvetica,sans-Serif" font-size="10.00">yarp/os/Property.h</text>
</g>
<!-- Node15&#45;&gt;Node29 -->
<g id="edge68" class="edge"><title>Node15&#45;&gt;Node29</title>
<path fill="none" stroke="midnightblue" d="M1312.47,-58.4966C1350.69,-48.8159 1407.55,-34.4156 1448.63,-24.0105"/>
<polygon fill="midnightblue" stroke="midnightblue" points="1449.62,-27.3712 1458.45,-21.5231 1447.9,-20.5855 1449.62,-27.3712"/>
</g>
<!-- Node30 -->
<g id="node66" class="node"><title>Node30</title>
<polygon fill="white" stroke="#bfbfbf" points="1565.5,-0.5 1565.5,-21.5 1654.5,-21.5 1654.5,-0.5 1565.5,-0.5"/>
<text text-anchor="middle" x="1610" y="-8.5" font-family="Helvetica,sans-Serif" font-size="10.00">yarp/sig/Matrix.h</text>
</g>
<!-- Node15&#45;&gt;Node30 -->
<g id="edge72" class="edge"><title>Node15&#45;&gt;Node30</title>
<path fill="none" stroke="midnightblue" d="M1321.65,-60.2494C1326.16,-59.4832 1330.66,-58.7243 1335,-58 1430.41,-42.0647 1457.01,-40.2649 1555.42,-22.2403"/>
<polygon fill="midnightblue" stroke="midnightblue" points="1556.29,-25.6383 1565.49,-20.3846 1555.03,-18.7541 1556.29,-25.6383"/>
</g>
<!-- Node31 -->
<g id="node70" class="node"><title>Node31</title>
<polygon fill="white" stroke="#bfbfbf" points="1671.5,-0.5 1671.5,-21.5 1792.5,-21.5 1792.5,-0.5 1671.5,-0.5"/>
<text text-anchor="middle" x="1732" y="-8.5" font-family="Helvetica,sans-Serif" font-size="10.00">ocra/util/StringUtilities.h</text>
</g>
<!-- Node15&#45;&gt;Node31 -->
<g id="edge78" class="edge"><title>Node15&#45;&gt;Node31</title>
<path fill="none" stroke="midnightblue" d="M1321.61,-60.0084C1326.13,-59.2937 1330.65,-58.6125 1335,-58 1476.96,-38.0285 1515.92,-41.3833 1661.25,-22.1849"/>
<polygon fill="midnightblue" stroke="midnightblue" points="1661.99,-25.6173 1671.44,-20.8253 1661.07,-18.6788 1661.99,-25.6173"/>
</g>
<!-- Node15&#45;&gt;Node32 -->
<g id="edge80" class="edge"><title>Node15&#45;&gt;Node32</title>
<path fill="none" stroke="midnightblue" d="M1321.62,-65.5361C1357.23,-63.1813 1406.02,-60.1206 1449,-58 1879.16,-36.7786 1993.29,-81.1409 2423.07,-22.0345"/>
<polygon fill="midnightblue" stroke="midnightblue" points="2423.86,-25.459 2433.28,-20.6189 2422.89,-18.5253 2423.86,-25.459"/>
</g>
<!-- Node15&#45;&gt;Node33 -->
<g id="edge82" class="edge"><title>Node15&#45;&gt;Node33</title>
<path fill="none" stroke="midnightblue" d="M1220.28,-66.7985C1021.39,-58.1622 301.354,-26.8562 206.302,-21.1573"/>
<polygon fill="midnightblue" stroke="midnightblue" points="206.367,-17.6528 196.138,-20.4102 205.854,-24.634 206.367,-17.6528"/>
</g>
<!-- Node35&#45;&gt;Node3 -->
<g id="edge164" class="edge"><title>Node35&#45;&gt;Node3</title>
<path fill="none" stroke="midnightblue" d="M3257.17,-348.442C3362.18,-334.21 3522.33,-304.631 3553,-254 3584.35,-202.24 3500.27,-161.244 3445.65,-140.939"/>
<polygon fill="midnightblue" stroke="midnightblue" points="3446.76,-137.617 3436.16,-137.508 3444.38,-144.2 3446.76,-137.617"/>
</g>
<!-- Node36 -->
<g id="node84" class="node"><title>Node36</title>
<a xlink:href="ShapeConstraints_8h.html" target="_top" xlink:title="walking&#45;client/constraints/ShapeConstraints.h">
<polygon fill="white" stroke="black" points="2890,-290.5 2890,-311.5 3106,-311.5 3106,-290.5 2890,-290.5"/>
<text text-anchor="middle" x="2998" y="-298.5" font-family="Helvetica,sans-Serif" font-size="10.00">walking&#45;client/constraints/ShapeConstraints.h</text>
</a>
</g>
<!-- Node35&#45;&gt;Node36 -->
<g id="edge96" class="edge"><title>Node35&#45;&gt;Node36</title>
<path fill="none" stroke="midnightblue" d="M3133.94,-348.497C3106.99,-339.082 3067.27,-325.204 3037.72,-314.877"/>
<polygon fill="midnightblue" stroke="midnightblue" points="3038.71,-311.517 3028.12,-311.523 3036.4,-318.126 3038.71,-311.517"/>
</g>
<!-- Node42 -->
<g id="node102" class="node"><title>Node42</title>
<a xlink:href="AdmissibilityConstraints_8h.html" target="_top" xlink:title="walking&#45;client/constraints/AdmissibilityConstraints.h">
<polygon fill="white" stroke="black" points="2214,-290.5 2214,-311.5 2458,-311.5 2458,-290.5 2214,-290.5"/>
<text text-anchor="middle" x="2336" y="-298.5" font-family="Helvetica,sans-Serif" font-size="10.00">walking&#45;client/constraints/AdmissibilityConstraints.h</text>
</a>
</g>
<!-- Node35&#45;&gt;Node42 -->
<g id="edge120" class="edge"><title>Node35&#45;&gt;Node42</title>
<path fill="none" stroke="midnightblue" d="M3043.6,-350.566C2890.54,-339.845 2627.17,-321.396 2468.53,-310.283"/>
<polygon fill="midnightblue" stroke="midnightblue" points="2468.45,-306.769 2458.23,-309.562 2467.96,-313.752 2468.45,-306.769"/>
</g>
<!-- Node47 -->
<g id="node117" class="node"><title>Node47</title>
<a xlink:href="StepController_8h.html" target="_top" xlink:title="walking&#45;client/StepController.h">
<polygon fill="white" stroke="red" points="3395.5,-232.5 3395.5,-253.5 3544.5,-253.5 3544.5,-232.5 3395.5,-232.5"/>
<text text-anchor="middle" x="3470" y="-240.5" font-family="Helvetica,sans-Serif" font-size="10.00">walking&#45;client/StepController.h</text>
</a>
</g>
<!-- Node35&#45;&gt;Node47 -->
<g id="edge140" class="edge"><title>Node35&#45;&gt;Node47</title>
<path fill="none" stroke="midnightblue" d="M3257.88,-348.492C3318.06,-340.437 3389.65,-327.992 3416,-312 3435.49,-300.169 3450.67,-278.537 3459.9,-262.638"/>
<polygon fill="midnightblue" stroke="midnightblue" points="3463.11,-264.066 3464.87,-253.618 3456.98,-260.689 3463.11,-264.066"/>
</g>
<!-- Node48 -->
<g id="node120" class="node"><title>Node48</title>
<a xlink:href="BaseOfSupport_8h.html" target="_top" xlink:title="walking&#45;client/BaseOfSupport.h">
<polygon fill="white" stroke="red" points="3253,-290.5 3253,-311.5 3407,-311.5 3407,-290.5 3253,-290.5"/>
<text text-anchor="middle" x="3330" y="-298.5" font-family="Helvetica,sans-Serif" font-size="10.00">walking&#45;client/BaseOfSupport.h</text>
</a>
</g>
<!-- Node35&#45;&gt;Node48 -->
<g id="edge144" class="edge"><title>Node35&#45;&gt;Node48</title>
<path fill="none" stroke="midnightblue" d="M3194.06,-348.497C3221.01,-339.082 3260.73,-325.204 3290.28,-314.877"/>
<polygon fill="midnightblue" stroke="midnightblue" points="3291.6,-318.126 3299.88,-311.523 3289.29,-311.517 3291.6,-318.126"/>
</g>
<!-- Node37 -->
<g id="node86" class="node"><title>Node37</title>
<a xlink:href="Constraint_8h.html" target="_top" xlink:title="A constraint base class.">
<polygon fill="white" stroke="red" points="2456.5,-174.5 2456.5,-195.5 2639.5,-195.5 2639.5,-174.5 2456.5,-174.5"/>
<text text-anchor="middle" x="2548" y="-182.5" font-family="Helvetica,sans-Serif" font-size="10.00">walking&#45;client/constraints/Constraint.h</text>
</a>
</g>
<!-- Node36&#45;&gt;Node37 -->
<g id="edge98" class="edge"><title>Node36&#45;&gt;Node37</title>
<path fill="none" stroke="midnightblue" d="M2889.81,-293.506C2832.44,-287.155 2761.52,-275.466 2701,-254 2682.61,-247.476 2680.52,-240.6 2663,-232 2638.04,-219.746 2609.05,-207.914 2586.43,-199.187"/>
<polygon fill="midnightblue" stroke="midnightblue" points="2587.42,-195.822 2576.83,-195.526 2584.93,-202.361 2587.42,-195.822"/>
</g>
<!-- Node39 -->
<g id="node93" class="node"><title>Node39</title>
<a xlink:href="Bounding_8h.html" target="_top" xlink:title="walking&#45;client/constraints/Bounding.h">
<polygon fill="white" stroke="black" points="2709.5,-232.5 2709.5,-253.5 2888.5,-253.5 2888.5,-232.5 2709.5,-232.5"/>
<text text-anchor="middle" x="2799" y="-240.5" font-family="Helvetica,sans-Serif" font-size="10.00">walking&#45;client/constraints/Bounding.h</text>
</a>
</g>
<!-- Node36&#45;&gt;Node39 -->
<g id="edge108" class="edge"><title>Node36&#45;&gt;Node39</title>
<path fill="none" stroke="midnightblue" d="M2961.96,-290.497C2929.1,-280.918 2880.38,-266.72 2844.78,-256.342"/>
<polygon fill="midnightblue" stroke="midnightblue" points="2845.68,-252.961 2835.1,-253.523 2843.73,-259.681 2845.68,-252.961"/>
</g>
<!-- Node40 -->
<g id="node96" class="node"><title>Node40</title>
<a xlink:href="Constancy_8h.html" target="_top" xlink:title="walking&#45;client/constraints/Constancy.h">
<polygon fill="white" stroke="black" points="2905.5,-232.5 2905.5,-253.5 3090.5,-253.5 3090.5,-232.5 2905.5,-232.5"/>
<text text-anchor="middle" x="2998" y="-240.5" font-family="Helvetica,sans-Serif" font-size="10.00">walking&#45;client/constraints/Constancy.h</text>
</a>
</g>
<!-- Node36&#45;&gt;Node40 -->
<g id="edge112" class="edge"><title>Node36&#45;&gt;Node40</title>
<path fill="none" stroke="midnightblue" d="M2998,-290.362C2998,-282.922 2998,-272.743 2998,-263.728"/>
<polygon fill="midnightblue" stroke="midnightblue" points="3001.5,-263.571 2998,-253.571 2994.5,-263.571 3001.5,-263.571"/>
</g>
<!-- Node41 -->
<g id="node99" class="node"><title>Node41</title>
<a xlink:href="Sequentiality_8h.html" target="_top" xlink:title="walking&#45;client/constraints/Sequentiality.h">
<polygon fill="white" stroke="black" points="3108,-232.5 3108,-253.5 3302,-253.5 3302,-232.5 3108,-232.5"/>
<text text-anchor="middle" x="3205" y="-240.5" font-family="Helvetica,sans-Serif" font-size="10.00">walking&#45;client/constraints/Sequentiality.h</text>
</a>
</g>
<!-- Node36&#45;&gt;Node41 -->
<g id="edge116" class="edge"><title>Node36&#45;&gt;Node41</title>
<path fill="none" stroke="midnightblue" d="M3035.49,-290.497C3069.67,-280.918 3120.35,-266.72 3157.38,-256.342"/>
<polygon fill="midnightblue" stroke="midnightblue" points="3158.76,-259.591 3167.44,-253.523 3156.87,-252.851 3158.76,-259.591"/>
</g>
<!-- Node37&#45;&gt;Node3 -->
<g id="edge100" class="edge"><title>Node37&#45;&gt;Node3</title>
<path fill="none" stroke="midnightblue" d="M2639.91,-178.765C2814.7,-166.908 3190.9,-141.388 3340.14,-131.264"/>
<polygon fill="midnightblue" stroke="midnightblue" points="3340.74,-134.731 3350.48,-130.563 3340.27,-127.747 3340.74,-134.731"/>
</g>
<!-- Node37&#45;&gt;Node5 -->
<g id="edge106" class="edge"><title>Node37&#45;&gt;Node5</title>
<path fill="none" stroke="midnightblue" d="M2548.12,-174.377C2548.44,-146.293 2549.33,-69.6735 2549.76,-32.2027"/>
<polygon fill="midnightblue" stroke="midnightblue" points="2553.26,-31.9673 2549.87,-21.9277 2546.26,-31.8868 2553.26,-31.9673"/>
</g>
<!-- Node37&#45;&gt;Node34 -->
<g id="edge102" class="edge"><title>Node37&#45;&gt;Node34</title>
<path fill="none" stroke="midnightblue" d="M2527.9,-174.497C2510.72,-165.519 2485.77,-152.484 2466.36,-142.339"/>
<polygon fill="midnightblue" stroke="midnightblue" points="2467.81,-139.15 2457.33,-137.621 2464.57,-145.354 2467.81,-139.15"/>
</g>
<!-- Node38 -->
<g id="node90" class="node"><title>Node38</title>
<polygon fill="white" stroke="#bfbfbf" points="2063.5,-116.5 2063.5,-137.5 2180.5,-137.5 2180.5,-116.5 2063.5,-116.5"/>
<text text-anchor="middle" x="2122" y="-124.5" font-family="Helvetica,sans-Serif" font-size="10.00">ocra/util/ErrorsHelper.h</text>
</g>
<!-- Node37&#45;&gt;Node38 -->
<g id="edge104" class="edge"><title>Node37&#45;&gt;Node38</title>
<path fill="none" stroke="midnightblue" d="M2470.85,-174.497C2391,-163.624 2267.42,-146.799 2190.79,-136.366"/>
<polygon fill="midnightblue" stroke="midnightblue" points="2191.15,-132.882 2180.77,-135.001 2190.2,-139.818 2191.15,-132.882"/>
</g>
<!-- Node39&#45;&gt;Node37 -->
<g id="edge110" class="edge"><title>Node39&#45;&gt;Node37</title>
<path fill="none" stroke="midnightblue" d="M2753.55,-232.497C2711.39,-222.755 2648.54,-208.233 2603.45,-197.813"/>
<polygon fill="midnightblue" stroke="midnightblue" points="2604.07,-194.364 2593.54,-195.523 2602.49,-201.185 2604.07,-194.364"/>
</g>
<!-- Node40&#45;&gt;Node37 -->
<g id="edge114" class="edge"><title>Node40&#45;&gt;Node37</title>
<path fill="none" stroke="midnightblue" d="M2916.51,-232.497C2838.54,-222.448 2721.12,-207.313 2639.87,-196.84"/>
<polygon fill="midnightblue" stroke="midnightblue" points="2640.01,-193.33 2629.64,-195.523 2639.11,-200.273 2640.01,-193.33"/>
</g>
<!-- Node41&#45;&gt;Node37 -->
<g id="edge118" class="edge"><title>Node41&#45;&gt;Node37</title>
<path fill="none" stroke="midnightblue" d="M3107.96,-232.858C3104.94,-232.565 3101.95,-232.279 3099,-232 2942.36,-217.193 2760.46,-202.082 2649.84,-193.125"/>
<polygon fill="midnightblue" stroke="midnightblue" points="2649.94,-189.622 2639.69,-192.305 2649.38,-196.599 2649.94,-189.622"/>
</g>
<!-- Node42&#45;&gt;Node37 -->
<g id="edge122" class="edge"><title>Node42&#45;&gt;Node37</title>
<path fill="none" stroke="midnightblue" d="M2348.86,-290.382C2366.85,-275.871 2400.95,-249.638 2433,-232 2456.7,-218.955 2484.79,-207.409 2507.27,-199.026"/>
<polygon fill="midnightblue" stroke="midnightblue" points="2508.66,-202.243 2516.85,-195.517 2506.26,-195.67 2508.66,-202.243"/>
</g>
<!-- Node43 -->
<g id="node105" class="node"><title>Node43</title>
<a xlink:href="SSDSAlternation_8h.html" target="_top" xlink:title="walking&#45;client/constraints/SSDSAlternation.h">
<polygon fill="white" stroke="black" points="2442,-232.5 2442,-253.5 2654,-253.5 2654,-232.5 2442,-232.5"/>
<text text-anchor="middle" x="2548" y="-240.5" font-family="Helvetica,sans-Serif" font-size="10.00">walking&#45;client/constraints/SSDSAlternation.h</text>
</a>
</g>
<!-- Node42&#45;&gt;Node43 -->
<g id="edge124" class="edge"><title>Node42&#45;&gt;Node43</title>
<path fill="none" stroke="midnightblue" d="M2374.39,-290.497C2409.55,-280.877 2461.74,-266.598 2499.72,-256.209"/>
<polygon fill="midnightblue" stroke="midnightblue" points="2500.81,-259.538 2509.54,-253.523 2498.97,-252.786 2500.81,-259.538"/>
</g>
<!-- Node44 -->
<g id="node108" class="node"><title>Node44</title>
<a xlink:href="SingleSupport_8h.html" target="_top" xlink:title="walking&#45;client/constraints/SingleSupport.h">
<polygon fill="white" stroke="black" points="1663.5,-232.5 1663.5,-253.5 1862.5,-253.5 1862.5,-232.5 1663.5,-232.5"/>
<text text-anchor="middle" x="1763" y="-240.5" font-family="Helvetica,sans-Serif" font-size="10.00">walking&#45;client/constraints/SingleSupport.h</text>
</a>
</g>
<!-- Node42&#45;&gt;Node44 -->
<g id="edge128" class="edge"><title>Node42&#45;&gt;Node44</title>
<path fill="none" stroke="midnightblue" d="M2231.65,-290.476C2139.8,-281.208 2002.12,-267.301 1872.83,-254.185"/>
<polygon fill="midnightblue" stroke="midnightblue" points="1873.04,-250.689 1862.74,-253.162 1872.34,-257.653 1873.04,-250.689"/>
</g>
<!-- Node45 -->
<g id="node111" class="node"><title>Node45</title>
<a xlink:href="ContactConfigHistory_8h.html" target="_top" xlink:title="walking&#45;client/constraints/ContactConfigHistory.h">
<polygon fill="white" stroke="black" points="1879.5,-232.5 1879.5,-253.5 2112.5,-253.5 2112.5,-232.5 1879.5,-232.5"/>
<text text-anchor="middle" x="1996" y="-240.5" font-family="Helvetica,sans-Serif" font-size="10.00">walking&#45;client/constraints/ContactConfigHistory.h</text>
</a>
</g>
<!-- Node42&#45;&gt;Node45 -->
<g id="edge132" class="edge"><title>Node42&#45;&gt;Node45</title>
<path fill="none" stroke="midnightblue" d="M2274.43,-290.497C2216.24,-280.57 2128.96,-265.682 2067.67,-255.226"/>
<polygon fill="midnightblue" stroke="midnightblue" points="2068.13,-251.755 2057.69,-253.523 2066.96,-258.655 2068.13,-251.755"/>
</g>
<!-- Node46 -->
<g id="node114" class="node"><title>Node46</title>
<a xlink:href="ContactConfigEnforcement_8h.html" target="_top" xlink:title="walking&#45;client/constraints/ContactConfigEnforcement.h">
<polygon fill="white" stroke="black" points="2129.5,-232.5 2129.5,-253.5 2386.5,-253.5 2386.5,-232.5 2129.5,-232.5"/>
<text text-anchor="middle" x="2258" y="-240.5" font-family="Helvetica,sans-Serif" font-size="10.00">walking&#45;client/constraints/ContactConfigEnforcement.h</text>
</a>
</g>
<!-- Node42&#45;&gt;Node46 -->
<g id="edge136" class="edge"><title>Node42&#45;&gt;Node46</title>
<path fill="none" stroke="midnightblue" d="M2321.69,-290.362C2310.15,-281.777 2293.7,-269.546 2280.41,-259.664"/>
<polygon fill="midnightblue" stroke="midnightblue" points="2282.33,-256.729 2272.22,-253.571 2278.15,-262.346 2282.33,-256.729"/>
</g>
<!-- Node43&#45;&gt;Node37 -->
<g id="edge126" class="edge"><title>Node43&#45;&gt;Node37</title>
<path fill="none" stroke="midnightblue" d="M2548,-232.362C2548,-224.922 2548,-214.743 2548,-205.728"/>
<polygon fill="midnightblue" stroke="midnightblue" points="2551.5,-205.571 2548,-195.571 2544.5,-205.571 2551.5,-205.571"/>
</g>
<!-- Node44&#45;&gt;Node37 -->
<g id="edge130" class="edge"><title>Node44&#45;&gt;Node37</title>
<path fill="none" stroke="midnightblue" d="M1862.73,-232.724C1865.52,-232.475 1868.28,-232.233 1871,-232 2074.93,-214.54 2313.85,-199.133 2446.36,-191.033"/>
<polygon fill="midnightblue" stroke="midnightblue" points="2446.73,-194.517 2456.49,-190.415 2446.3,-187.53 2446.73,-194.517"/>
</g>
<!-- Node45&#45;&gt;Node37 -->
<g id="edge134" class="edge"><title>Node45&#45;&gt;Node37</title>
<path fill="none" stroke="midnightblue" d="M2095.96,-232.497C2195.09,-222.082 2346.2,-206.204 2446.02,-195.715"/>
<polygon fill="midnightblue" stroke="midnightblue" points="2446.54,-199.18 2456.12,-194.654 2445.81,-192.219 2446.54,-199.18"/>
</g>
<!-- Node46&#45;&gt;Node37 -->
<g id="edge138" class="edge"><title>Node46&#45;&gt;Node37</title>
<path fill="none" stroke="midnightblue" d="M2310.52,-232.497C2359.74,-222.652 2433.36,-207.927 2485.57,-197.486"/>
<polygon fill="midnightblue" stroke="midnightblue" points="2486.27,-200.916 2495.38,-195.523 2484.89,-194.052 2486.27,-200.916"/>
</g>
<!-- Node47&#45;&gt;Node3 -->
<g id="edge142" class="edge"><title>Node47&#45;&gt;Node3</title>
<path fill="none" stroke="midnightblue" d="M3463.82,-232.295C3452.55,-212.786 3428.52,-171.188 3414.27,-146.518"/>
<polygon fill="midnightblue" stroke="midnightblue" points="3417.2,-144.588 3409.17,-137.679 3411.14,-148.089 3417.2,-144.588"/>
</g>
<!-- Node48&#45;&gt;Node3 -->
<g id="edge162" class="edge"><title>Node48&#45;&gt;Node3</title>
<path fill="none" stroke="midnightblue" d="M3334.46,-290.377C3346.34,-262.051 3378.94,-184.349 3394.51,-147.242"/>
<polygon fill="midnightblue" stroke="midnightblue" points="3397.77,-148.503 3398.42,-137.928 3391.32,-145.795 3397.77,-148.503"/>
</g>
<!-- Node48&#45;&gt;Node34 -->
<g id="edge146" class="edge"><title>Node48&#45;&gt;Node34</title>
<path fill="none" stroke="midnightblue" d="M3330.45,-290.481C3330.48,-275.09 3328.04,-246.673 3311,-232 3252.78,-181.873 2746.79,-145.711 2532.37,-132.503"/>
<polygon fill="midnightblue" stroke="midnightblue" points="2532.27,-128.99 2522.07,-131.872 2531.84,-135.977 2532.27,-128.99"/>
</g>
<!-- Node48&#45;&gt;Node47 -->
<g id="edge160" class="edge"><title>Node48&#45;&gt;Node47</title>
<path fill="none" stroke="midnightblue" d="M3355.35,-290.497C3377.61,-281.275 3410.21,-267.769 3434.96,-257.515"/>
<polygon fill="midnightblue" stroke="midnightblue" points="3436.46,-260.682 3444.36,-253.621 3433.78,-254.215 3436.46,-260.682"/>
</g>
<!-- Node48&#45;&gt;Node49 -->
<g id="edge148" class="edge"><title>Node48&#45;&gt;Node49</title>
<path fill="none" stroke="midnightblue" d="M3252.9,-296.561C3211.95,-294.327 3160.75,-291.734 3115,-290 2466.38,-265.415 2302.92,-292.927 1655,-254 1643.11,-253.286 1630.55,-252.311 1618.27,-251.235"/>
<polygon fill="midnightblue" stroke="midnightblue" points="1618.32,-247.725 1608.04,-250.311 1617.69,-254.697 1618.32,-247.725"/>
</g>
<!-- Node49&#45;&gt;Node3 -->
<g id="edge156" class="edge"><title>Node49&#45;&gt;Node3</title>
<path fill="none" stroke="midnightblue" d="M1608.08,-236.234C1623.51,-234.772 1639.81,-233.282 1655,-232 2007.13,-202.285 2095.27,-195.576 2448,-174 2784.29,-153.43 3187.62,-135.934 3340.31,-129.567"/>
<polygon fill="midnightblue" stroke="midnightblue" points="3340.59,-133.059 3350.44,-129.146 3340.3,-126.065 3340.59,-133.059"/>
</g>
<!-- Node49&#45;&gt;Node4 -->
<g id="edge152" class="edge"><title>Node49&#45;&gt;Node4</title>
<path fill="none" stroke="midnightblue" d="M1509.03,-232.497C1481.16,-223.041 1440,-209.083 1409.52,-198.743"/>
<polygon fill="midnightblue" stroke="midnightblue" points="1410.62,-195.421 1400.02,-195.523 1408.37,-202.05 1410.62,-195.421"/>
</g>
<!-- Node49&#45;&gt;Node15 -->
<g id="edge158" class="edge"><title>Node49&#45;&gt;Node15</title>
<path fill="none" stroke="midnightblue" d="M1525.93,-232.361C1507.43,-218.498 1473.79,-193.702 1444,-174 1393.64,-140.693 1332.94,-104.789 1298.47,-84.7827"/>
<polygon fill="midnightblue" stroke="midnightblue" points="1299.88,-81.5562 1289.47,-79.5768 1296.38,-87.6149 1299.88,-81.5562"/>
</g>
<!-- Node49&#45;&gt;Node32 -->
<g id="edge150" class="edge"><title>Node49&#45;&gt;Node32</title>
<path fill="none" stroke="midnightblue" d="M1541.44,-232.476C1544.13,-217.077 1551.44,-188.651 1570,-174 1870.34,63.1177 2044.36,-98.8208 2423.36,-22.2303"/>
<polygon fill="midnightblue" stroke="midnightblue" points="2424.12,-25.6473 2433.21,-20.1965 2422.71,-18.792 2424.12,-25.6473"/>
</g>
<!-- Node49&#45;&gt;Node38 -->
<g id="edge154" class="edge"><title>Node49&#45;&gt;Node38</title>
<path fill="none" stroke="midnightblue" d="M1545.84,-232.33C1555.16,-216.47 1575.03,-187.138 1601,-174 1640.44,-154.045 1921.19,-137.26 2053.43,-130.363"/>
<polygon fill="midnightblue" stroke="midnightblue" points="2053.65,-133.857 2063.45,-129.845 2053.29,-126.866 2053.65,-133.857"/>
</g>
</g>
</svg>
