<?xml version="1.0" encoding="UTF-8" standalone="no"?>
<!DOCTYPE svg PUBLIC "-//W3C//DTD SVG 1.1//EN"
 "http://www.w3.org/Graphics/SVG/1.1/DTD/svg11.dtd">
<!-- Generated by graphviz version 2.26.3 (20100126.1600)
 -->
<!-- Title: G Pages: 1 -->
<svg width="3325pt" height="494pt"
 viewBox="0.00 0.00 3325.00 494.00" xmlns="http://www.w3.org/2000/svg" xmlns:xlink="http://www.w3.org/1999/xlink">
<g id="graph1" class="graph" transform="scale(1 1) rotate(0) translate(4 490)">
<title>G</title>
<polygon fill="white" stroke="white" points="-4,5 -4,-490 3322,-490 3322,5 -4,5"/>
<!-- Node1 -->
<g id="node1" class="node"><title>Node1</title>
<polygon fill="#bfbfbf" stroke="black" points="1685.5,-464.5 1685.5,-485.5 2014.5,-485.5 2014.5,-464.5 1685.5,-464.5"/>
<text text-anchor="middle" x="1850" y="-472.5" font-family="Helvetica,sans-Serif" font-size="10.00">ocra&#45;wbi&#45;plugins/ocra&#45;icub&#45;clients/walking&#45;client/src/MIQPController.cpp</text>
</g>
<!-- Node2 -->
<g id="node3" class="node"><title>Node2</title>
<a xlink:href="MIQPController_8h.html" target="_top" xlink:title="A thread for launching trajectory generators.">
<polygon fill="white" stroke="black" points="1772.5,-406.5 1772.5,-427.5 1927.5,-427.5 1927.5,-406.5 1772.5,-406.5"/>
<text text-anchor="middle" x="1850" y="-414.5" font-family="Helvetica,sans-Serif" font-size="10.00">walking&#45;client/MIQPController.h</text>
</a>
</g>
<!-- Node1&#45;&gt;Node2 -->
<g id="edge2" class="edge"><title>Node1&#45;&gt;Node2</title>
<path fill="none" stroke="midnightblue" d="M1850,-464.362C1850,-456.922 1850,-446.743 1850,-437.728"/>
<polygon fill="midnightblue" stroke="midnightblue" points="1853.5,-437.571 1850,-427.571 1846.5,-437.571 1853.5,-437.571"/>
</g>
<!-- Node3 -->
<g id="node5" class="node"><title>Node3</title>
<polygon fill="white" stroke="#bfbfbf" points="872,-348.5 872,-369.5 946,-369.5 946,-348.5 872,-348.5"/>
<text text-anchor="middle" x="909" y="-356.5" font-family="Helvetica,sans-Serif" font-size="10.00">gurobi_c++.h</text>
</g>
<!-- Node2&#45;&gt;Node3 -->
<g id="edge4" class="edge"><title>Node2&#45;&gt;Node3</title>
<path fill="none" stroke="midnightblue" d="M1772.41,-414.495C1585.82,-408.215 1115.96,-390.802 960,-370 958.737,-369.832 957.46,-369.649 956.172,-369.453"/>
<polygon fill="midnightblue" stroke="midnightblue" points="956.651,-365.984 946.203,-367.742 955.467,-372.883 956.651,-365.984"/>
</g>
<!-- Node4 -->
<g id="node7" class="node"><title>Node4</title>
<a xlink:href="utils_8h.html" target="_top" xlink:title="walking&#45;client/utils.h">
<polygon fill="white" stroke="black" points="2942.5,-116.5 2942.5,-137.5 3047.5,-137.5 3047.5,-116.5 2942.5,-116.5"/>
<text text-anchor="middle" x="2995" y="-124.5" font-family="Helvetica,sans-Serif" font-size="10.00">walking&#45;client/utils.h</text>
</a>
</g>
<!-- Node2&#45;&gt;Node4 -->
<g id="edge6" class="edge"><title>Node2&#45;&gt;Node4</title>
<path fill="none" stroke="midnightblue" d="M1927.54,-415.23C2138.81,-410.142 2721.49,-394.271 2912,-370 3058.48,-351.339 3237,-448.664 3237,-301 3237,-301 3237,-301 3237,-243 3237,-200.894 3116.36,-160.419 3045.44,-140.262"/>
<polygon fill="midnightblue" stroke="midnightblue" points="3046.35,-136.883 3035.78,-137.555 3044.46,-143.624 3046.35,-136.883"/>
</g>
<!-- Node6 -->
<g id="node11" class="node"><title>Node6</title>
<a xlink:href="OcraWbiModel_8h.html" target="_top" xlink:title="Implementation of ocra::Model using wholeBodyInterface.">
<polygon fill="white" stroke="black" points="1604,-174.5 1604,-195.5 1736,-195.5 1736,-174.5 1604,-174.5"/>
<text text-anchor="middle" x="1670" y="-182.5" font-family="Helvetica,sans-Serif" font-size="10.00">ocra&#45;icub/OcraWbiModel.h</text>
</a>
</g>
<!-- Node2&#45;&gt;Node6 -->
<g id="edge10" class="edge"><title>Node2&#45;&gt;Node6</title>
<path fill="none" stroke="midnightblue" d="M1814.01,-406.389C1793.94,-398.935 1769.69,-387.185 1753,-370 1706.33,-321.935 1683.18,-243.092 1674.37,-205.796"/>
<polygon fill="midnightblue" stroke="midnightblue" points="1677.7,-204.625 1672.09,-195.636 1670.87,-206.16 1677.7,-204.625"/>
</g>
<!-- Node22 -->
<g id="node49" class="node"><title>Node22</title>
<polygon fill="white" stroke="#bfbfbf" points="-0.5,-0.5 -0.5,-21.5 110.5,-21.5 110.5,-0.5 -0.5,-0.5"/>
<text text-anchor="middle" x="55" y="-8.5" font-family="Helvetica,sans-Serif" font-size="10.00">yarp/os/RateThread.h</text>
</g>
<!-- Node2&#45;&gt;Node22 -->
<g id="edge92" class="edge"><title>Node2&#45;&gt;Node22</title>
<path fill="none" stroke="midnightblue" d="M1772.21,-414.155C1592.42,-407.292 1158.59,-388.99 1095,-370 1035.68,-352.285 974,-362.907 974,-301 974,-301 974,-301 974,-127 974,-33.9969 256.147,-35.7606 121.112,-22.0022"/>
<polygon fill="midnightblue" stroke="midnightblue" points="121.171,-18.4838 110.822,-20.7569 120.329,-25.4331 121.171,-18.4838"/>
</g>
<!-- Node33 -->
<g id="node75" class="node"><title>Node33</title>
<polygon fill="white" stroke="#bfbfbf" points="2375.5,-0.5 2375.5,-21.5 2448.5,-21.5 2448.5,-0.5 2375.5,-0.5"/>
<text text-anchor="middle" x="2412" y="-8.5" font-family="Helvetica,sans-Serif" font-size="10.00">Eigen/Dense</text>
</g>
<!-- Node2&#45;&gt;Node33 -->
<g id="edge96" class="edge"><title>Node2&#45;&gt;Node33</title>
<path fill="none" stroke="midnightblue" d="M1840.02,-406.418C1832.32,-397.489 1822.3,-383.962 1818,-370 1808.14,-337.992 1773.24,-325.474 1821,-232 1859.67,-156.326 1897.89,-155.755 1973,-116 2129.24,-33.3039 2188.45,-57.0279 2365.33,-22.2197"/>
<polygon fill="midnightblue" stroke="midnightblue" points="2366.1,-25.6356 2375.22,-20.238 2364.72,-18.7722 2366.1,-25.6356"/>
</g>
<!-- Node34 -->
<g id="node77" class="node"><title>Node34</title>
<polygon fill="white" stroke="#bfbfbf" points="128,-0.5 128,-21.5 196,-21.5 196,-0.5 128,-0.5"/>
<text text-anchor="middle" x="162" y="-8.5" font-family="Helvetica,sans-Serif" font-size="10.00">Eigen/Lgsm</text>
</g>
<!-- Node2&#45;&gt;Node34 -->
<g id="edge98" class="edge"><title>Node2&#45;&gt;Node34</title>
<path fill="none" stroke="midnightblue" d="M1772.29,-414.335C1564.55,-406.184 1012,-377.328 1012,-301 1012,-301 1012,-301 1012,-127 1012,-94.5312 1014.02,-77.4163 988,-58 920.309,-7.4958 328.593,-33.1813 206.199,-21.6012"/>
<polygon fill="midnightblue" stroke="midnightblue" points="206.482,-18.1103 196.139,-20.4043 205.655,-25.0613 206.482,-18.1103"/>
</g>
<!-- Node35 -->
<g id="node80" class="node"><title>Node35</title>
<polygon fill="white" stroke="#bfbfbf" points="1832.5,-348.5 1832.5,-369.5 1957.5,-369.5 1957.5,-348.5 1832.5,-348.5"/>
<text text-anchor="middle" x="1895" y="-356.5" font-family="Helvetica,sans-Serif" font-size="10.00">ocra/util/FileOperations.h</text>
</g>
<!-- Node2&#45;&gt;Node35 -->
<g id="edge90" class="edge"><title>Node2&#45;&gt;Node35</title>
<path fill="none" stroke="midnightblue" d="M1858.25,-406.362C1864.47,-398.35 1873.15,-387.161 1880.51,-377.67"/>
<polygon fill="midnightblue" stroke="midnightblue" points="1883.43,-379.617 1886.8,-369.571 1877.9,-375.326 1883.43,-379.617"/>
</g>
<!-- Node36 -->
<g id="node83" class="node"><title>Node36</title>
<polygon fill="white" stroke="#bfbfbf" points="1975,-348.5 1975,-369.5 2085,-369.5 2085,-348.5 1975,-348.5"/>
<text text-anchor="middle" x="2030" y="-356.5" font-family="Helvetica,sans-Serif" font-size="10.00">yarp/os/Semaphore.h</text>
</g>
<!-- Node2&#45;&gt;Node36 -->
<g id="edge94" class="edge"><title>Node2&#45;&gt;Node36</title>
<path fill="none" stroke="midnightblue" d="M1882.6,-406.497C1912.07,-397 1955.64,-382.962 1987.77,-372.609"/>
<polygon fill="midnightblue" stroke="midnightblue" points="1988.9,-375.921 1997.34,-369.523 1986.75,-369.259 1988.9,-375.921"/>
</g>
<!-- Node37 -->
<g id="node87" class="node"><title>Node37</title>
<polygon fill="white" stroke="#bfbfbf" points="2294,-116.5 2294,-137.5 2464,-137.5 2464,-116.5 2294,-116.5"/>
<text text-anchor="middle" x="2379" y="-124.5" font-family="Helvetica,sans-Serif" font-size="10.00">unsupported/Eigen/MatrixFunctions</text>
</g>
<!-- Node2&#45;&gt;Node37 -->
<g id="edge100" class="edge"><title>Node2&#45;&gt;Node37</title>
<path fill="none" stroke="midnightblue" d="M1927.75,-412.549C1991.02,-407.11 2073.12,-395.281 2094,-370 2122.31,-335.72 2048.67,-321.121 2044,-312 2035.93,-296.246 2035.15,-249.322 2049,-232 2081.86,-190.893 2224.11,-156.904 2310.76,-139.522"/>
<polygon fill="midnightblue" stroke="midnightblue" points="2311.65,-142.913 2320.78,-137.536 2310.29,-136.047 2311.65,-142.913"/>
</g>
<!-- Node38 -->
<g id="node89" class="node"><title>Node38</title>
<a xlink:href="MIQPLinearConstraints_8h.html" target="_top" xlink:title="walking&#45;client/constraints/MIQPLinearConstraints.h">
<polygon fill="white" stroke="black" points="2663,-348.5 2663,-369.5 2903,-369.5 2903,-348.5 2663,-348.5"/>
<text text-anchor="middle" x="2783" y="-356.5" font-family="Helvetica,sans-Serif" font-size="10.00">walking&#45;client/constraints/MIQPLinearConstraints.h</text>
</a>
</g>
<!-- Node2&#45;&gt;Node38 -->
<g id="edge102" class="edge"><title>Node2&#45;&gt;Node38</title>
<path fill="none" stroke="midnightblue" d="M1927.54,-412.18C2087.54,-402.233 2455.73,-379.345 2652.85,-367.091"/>
<polygon fill="midnightblue" stroke="midnightblue" points="2653.21,-370.575 2662.97,-366.461 2652.78,-363.589 2653.21,-370.575"/>
</g>
<!-- Node49 -->
<g id="node121" class="node"><title>Node49</title>
<a xlink:href="MIQPState_8h.html" target="_top" xlink:title="walking&#45;client/MIQPState.h">
<polygon fill="white" stroke="black" points="1830,-232.5 1830,-253.5 1966,-253.5 1966,-232.5 1830,-232.5"/>
<text text-anchor="middle" x="1898" y="-240.5" font-family="Helvetica,sans-Serif" font-size="10.00">walking&#45;client/MIQPState.h</text>
</a>
</g>
<!-- Node2&#45;&gt;Node49 -->
<g id="edge162" class="edge"><title>Node2&#45;&gt;Node49</title>
<path fill="none" stroke="midnightblue" d="M1841.29,-406.368C1831.37,-392.922 1817.35,-368.989 1824,-348 1834.96,-313.433 1861.85,-280.418 1880.01,-260.928"/>
<polygon fill="midnightblue" stroke="midnightblue" points="1882.57,-263.318 1886.96,-253.674 1877.51,-258.476 1882.57,-263.318"/>
</g>
<!-- Node50 -->
<g id="node132" class="node"><title>Node50</title>
<polygon fill="white" stroke="#bfbfbf" points="3264.5,-348.5 3264.5,-369.5 3317.5,-369.5 3317.5,-348.5 3264.5,-348.5"/>
<text text-anchor="middle" x="3291" y="-356.5" font-family="Helvetica,sans-Serif" font-size="10.00">Gurobi.h</text>
</g>
<!-- Node2&#45;&gt;Node50 -->
<g id="edge164" class="edge"><title>Node2&#45;&gt;Node50</title>
<path fill="none" stroke="midnightblue" d="M1927.73,-416.791C2182.81,-415.73 2992.81,-409.273 3251,-370 3252.07,-369.838 3253.15,-369.656 3254.24,-369.459"/>
<polygon fill="midnightblue" stroke="midnightblue" points="3255.04,-372.866 3264.07,-367.328 3253.56,-366.024 3255.04,-372.866"/>
</g>
<!-- Node5 -->
<g id="node9" class="node"><title>Node5</title>
<polygon fill="white" stroke="#bfbfbf" points="2645.5,-0.5 2645.5,-21.5 2686.5,-21.5 2686.5,-0.5 2645.5,-0.5"/>
<text text-anchor="middle" x="2666" y="-8.5" font-family="Helvetica,sans-Serif" font-size="10.00">string</text>
</g>
<!-- Node4&#45;&gt;Node5 -->
<g id="edge8" class="edge"><title>Node4&#45;&gt;Node5</title>
<path fill="none" stroke="midnightblue" d="M2964.93,-116.398C2902.42,-94.3585 2759.06,-43.8103 2696.33,-21.6925"/>
<polygon fill="midnightblue" stroke="midnightblue" points="2697.22,-18.2972 2686.63,-18.2728 2694.89,-24.8989 2697.22,-18.2972"/>
</g>
<!-- Node7 -->
<g id="node13" class="node"><title>Node7</title>
<polygon fill="white" stroke="#bfbfbf" points="2466,-0.5 2466,-21.5 2518,-21.5 2518,-0.5 2466,-0.5"/>
<text text-anchor="middle" x="2492" y="-8.5" font-family="Helvetica,sans-Serif" font-size="10.00">memory</text>
</g>
<!-- Node6&#45;&gt;Node7 -->
<g id="edge12" class="edge"><title>Node6&#45;&gt;Node7</title>
<path fill="none" stroke="midnightblue" d="M1724.46,-174.46C1875.24,-145.167 2296.9,-62.4375 2455.64,-22.1641"/>
<polygon fill="midnightblue" stroke="midnightblue" points="2456.9,-25.4547 2465.71,-19.5738 2455.15,-18.6754 2456.9,-25.4547"/>
</g>
<!-- Node8 -->
<g id="node15" class="node"><title>Node8</title>
<polygon fill="white" stroke="#bfbfbf" points="2253.5,-0.5 2253.5,-21.5 2358.5,-21.5 2358.5,-0.5 2253.5,-0.5"/>
<text text-anchor="middle" x="2306" y="-8.5" font-family="Helvetica,sans-Serif" font-size="10.00">ocra/control/Model.h</text>
</g>
<!-- Node6&#45;&gt;Node8 -->
<g id="edge14" class="edge"><title>Node6&#45;&gt;Node8</title>
<path fill="none" stroke="midnightblue" d="M1682.02,-174.221C1692.59,-164.726 1708.37,-150.501 1722,-138 1760.48,-102.719 1760.24,-79.0826 1808,-58 1894.44,-19.8392 2133.32,-33.742 2243.54,-21.9812"/>
<polygon fill="midnightblue" stroke="midnightblue" points="2243.96,-25.456 2253.48,-20.8023 2243.13,-18.5048 2243.96,-25.456"/>
</g>
<!-- Node9 -->
<g id="node17" class="node"><title>Node9</title>
<polygon fill="white" stroke="#bfbfbf" points="2084,-0.5 2084,-21.5 2142,-21.5 2142,-0.5 2084,-0.5"/>
<text text-anchor="middle" x="2113" y="-8.5" font-family="Helvetica,sans-Serif" font-size="10.00">wbi/wbi.h</text>
</g>
<!-- Node6&#45;&gt;Node9 -->
<g id="edge16" class="edge"><title>Node6&#45;&gt;Node9</title>
<path fill="none" stroke="midnightblue" d="M1671.69,-174.225C1676.27,-149.061 1691.39,-86.4173 1732,-58 1792.4,-15.7304 1984.38,-35.0839 2073.57,-21.7869"/>
<polygon fill="midnightblue" stroke="midnightblue" points="2074.41,-25.1945 2083.67,-20.048 2073.22,-18.2961 2074.41,-25.1945"/>
</g>
<!-- Node10 -->
<g id="node19" class="node"><title>Node10</title>
<polygon fill="white" stroke="#bfbfbf" points="2160,-0.5 2160,-21.5 2236,-21.5 2236,-0.5 2160,-0.5"/>
<text text-anchor="middle" x="2198" y="-8.5" font-family="Helvetica,sans-Serif" font-size="10.00">yarp/os/Log.h</text>
</g>
<!-- Node6&#45;&gt;Node10 -->
<g id="edge18" class="edge"><title>Node6&#45;&gt;Node10</title>
<path fill="none" stroke="midnightblue" d="M1676.79,-174.35C1694.85,-146.357 1744.5,-71.8996 1770,-58 1842.12,-18.6938 2052.04,-34.5316 2149.91,-21.8397"/>
<polygon fill="midnightblue" stroke="midnightblue" points="2150.48,-25.2935 2159.87,-20.3813 2149.47,-18.3673 2150.48,-25.2935"/>
</g>
<!-- Node11 -->
<g id="node21" class="node"><title>Node11</title>
<a xlink:href="OcraWbiConversions_8h.html" target="_top" xlink:title="A utility class full of static conversion functions.">
<polygon fill="white" stroke="black" points="1246.5,-116.5 1246.5,-137.5 1407.5,-137.5 1407.5,-116.5 1246.5,-116.5"/>
<text text-anchor="middle" x="1327" y="-124.5" font-family="Helvetica,sans-Serif" font-size="10.00">ocra&#45;icub/OcraWbiConversions.h</text>
</a>
</g>
<!-- Node6&#45;&gt;Node11 -->
<g id="edge20" class="edge"><title>Node6&#45;&gt;Node11</title>
<path fill="none" stroke="midnightblue" d="M1607.89,-174.497C1549.18,-164.57 1461.14,-149.682 1399.3,-139.226"/>
<polygon fill="midnightblue" stroke="midnightblue" points="1399.67,-135.739 1389.23,-137.523 1398.51,-142.641 1399.67,-135.739"/>
</g>
<!-- Node17 -->
<g id="node35" class="node"><title>Node17</title>
<a xlink:href="Utilities_8h.html" target="_top" xlink:title="Some useful tools for the ocra&#45;icub lib.">
<polygon fill="white" stroke="black" points="1465.5,-58.5 1465.5,-79.5 1566.5,-79.5 1566.5,-58.5 1465.5,-58.5"/>
<text text-anchor="middle" x="1516" y="-66.5" font-family="Helvetica,sans-Serif" font-size="10.00">ocra&#45;icub/Utilities.h</text>
</a>
</g>
<!-- Node6&#45;&gt;Node17 -->
<g id="edge88" class="edge"><title>Node6&#45;&gt;Node17</title>
<path fill="none" stroke="midnightblue" d="M1655.79,-174.295C1628.97,-154.096 1570.72,-110.216 1538.52,-85.9632"/>
<polygon fill="midnightblue" stroke="midnightblue" points="1540.27,-82.9002 1530.18,-79.6792 1536.06,-88.4915 1540.27,-82.9002"/>
</g>
<!-- Node11&#45;&gt;Node9 -->
<g id="edge32" class="edge"><title>Node11&#45;&gt;Node9</title>
<path fill="none" stroke="midnightblue" d="M1407.52,-117.676C1456.78,-110.524 1520.59,-98.6432 1575,-80 1595.31,-73.0417 1597.34,-63.845 1618,-58 1810.88,-3.41991 1872.57,-56.7387 2073.69,-21.9082"/>
<polygon fill="midnightblue" stroke="midnightblue" points="2074.45,-25.3271 2083.68,-20.1251 2073.22,-18.4359 2074.45,-25.3271"/>
</g>
<!-- Node11&#45;&gt;Node10 -->
<g id="edge30" class="edge"><title>Node11&#45;&gt;Node10</title>
<path fill="none" stroke="midnightblue" d="M1391.95,-116.475C1449.34,-107.113 1535.28,-92.9403 1610,-80 1664.29,-70.5975 1677.38,-65.2549 1732,-58 1914.02,-33.8213 1964.64,-50.754 2149.8,-21.9968"/>
<polygon fill="midnightblue" stroke="midnightblue" points="2150.54,-25.424 2159.87,-20.4088 2149.45,-18.5094 2150.54,-25.424"/>
</g>
<!-- Node12 -->
<g id="node23" class="node"><title>Node12</title>
<polygon fill="white" stroke="#bfbfbf" points="214,-0.5 214,-21.5 268,-21.5 268,-0.5 214,-0.5"/>
<text text-anchor="middle" x="241" y="-8.5" font-family="Helvetica,sans-Serif" font-size="10.00">iostream</text>
</g>
<!-- Node11&#45;&gt;Node12 -->
<g id="edge22" class="edge"><title>Node11&#45;&gt;Node12</title>
<path fill="none" stroke="midnightblue" d="M1246.27,-119.92C1193.24,-113.501 1123.02,-101.599 1064,-80 1045.67,-73.2933 1044.72,-63.5132 1026,-58 869.117,-11.7967 456.849,-49.1261 278.224,-21.7459"/>
<polygon fill="midnightblue" stroke="midnightblue" points="278.782,-18.2908 268.347,-20.1226 277.647,-25.1981 278.782,-18.2908"/>
</g>
<!-- Node13 -->
<g id="node25" class="node"><title>Node13</title>
<polygon fill="white" stroke="#bfbfbf" points="1153.5,-58.5 1153.5,-79.5 1188.5,-79.5 1188.5,-58.5 1153.5,-58.5"/>
<text text-anchor="middle" x="1171" y="-66.5" font-family="Helvetica,sans-Serif" font-size="10.00">map</text>
</g>
<!-- Node11&#45;&gt;Node13 -->
<g id="edge24" class="edge"><title>Node11&#45;&gt;Node13</title>
<path fill="none" stroke="midnightblue" d="M1296.36,-116.44C1271.87,-107.887 1236.48,-95.2737 1197.91,-80.2437"/>
<polygon fill="midnightblue" stroke="midnightblue" points="1199.16,-76.9752 1188.57,-76.5832 1196.6,-83.4922 1199.16,-76.9752"/>
</g>
<!-- Node14 -->
<g id="node27" class="node"><title>Node14</title>
<polygon fill="white" stroke="#bfbfbf" points="286,-0.5 286,-21.5 330,-21.5 330,-0.5 286,-0.5"/>
<text text-anchor="middle" x="308" y="-8.5" font-family="Helvetica,sans-Serif" font-size="10.00">vector</text>
</g>
<!-- Node11&#45;&gt;Node14 -->
<g id="edge26" class="edge"><title>Node11&#45;&gt;Node14</title>
<path fill="none" stroke="midnightblue" d="M1246.36,-116.544C1202.67,-109.306 1148.31,-97.7153 1102,-80 1083.77,-73.0275 1082.72,-63.5281 1064,-58 912.319,-13.1978 513.241,-51.7349 340.201,-21.6083"/>
<polygon fill="midnightblue" stroke="midnightblue" points="340.606,-18.1234 330.133,-19.725 339.319,-25.0041 340.606,-18.1234"/>
</g>
<!-- Node15 -->
<g id="node29" class="node"><title>Node15</title>
<polygon fill="white" stroke="#bfbfbf" points="347.5,-0.5 347.5,-21.5 438.5,-21.5 438.5,-0.5 347.5,-0.5"/>
<text text-anchor="middle" x="393" y="-8.5" font-family="Helvetica,sans-Serif" font-size="10.00">yarp/sig/Vector.h</text>
</g>
<!-- Node11&#45;&gt;Node15 -->
<g id="edge28" class="edge"><title>Node11&#45;&gt;Node15</title>
<path fill="none" stroke="midnightblue" d="M1273.48,-116.436C1236.7,-108.392 1187.1,-95.9831 1145,-80 1124.93,-72.3812 1122.72,-63.5998 1102,-58 823.704,17.198 738.088,-57.4808 448.533,-22.0247"/>
<polygon fill="midnightblue" stroke="midnightblue" points="448.946,-18.5491 438.587,-20.7735 448.072,-25.4944 448.946,-18.5491"/>
</g>
<!-- Node16 -->
<g id="node33" class="node"><title>Node16</title>
<polygon fill="white" stroke="#bfbfbf" points="1206,-58.5 1206,-79.5 1448,-79.5 1448,-58.5 1206,-58.5"/>
<text text-anchor="middle" x="1327" y="-66.5" font-family="Helvetica,sans-Serif" font-size="10.00">yarpWholeBodyInterface/yarpWholeBodyInterface.h</text>
</g>
<!-- Node11&#45;&gt;Node16 -->
<g id="edge34" class="edge"><title>Node11&#45;&gt;Node16</title>
<path fill="none" stroke="midnightblue" d="M1327,-116.362C1327,-108.922 1327,-98.7427 1327,-89.7276"/>
<polygon fill="midnightblue" stroke="midnightblue" points="1330.5,-89.5706 1327,-79.5707 1323.5,-89.5707 1330.5,-89.5706"/>
</g>
<!-- Node11&#45;&gt;Node17 -->
<g id="edge36" class="edge"><title>Node11&#45;&gt;Node17</title>
<path fill="none" stroke="midnightblue" d="M1361.23,-116.497C1392.31,-106.959 1438.31,-92.8408 1472.09,-82.475"/>
<polygon fill="midnightblue" stroke="midnightblue" points="1473.18,-85.8029 1481.71,-79.5231 1471.12,-79.1109 1473.18,-85.8029"/>
</g>
<!-- Node17&#45;&gt;Node5 -->
<g id="edge44" class="edge"><title>Node17&#45;&gt;Node5</title>
<path fill="none" stroke="midnightblue" d="M1566.53,-67.2328C1714.34,-61.9377 2158.73,-45.1257 2527,-22 2564.28,-19.6592 2607.11,-16.1444 2635.26,-13.7209"/>
<polygon fill="midnightblue" stroke="midnightblue" points="2635.63,-17.2021 2645.29,-12.8503 2635.03,-10.2284 2635.63,-17.2021"/>
</g>
<!-- Node17&#45;&gt;Node7 -->
<g id="edge38" class="edge"><title>Node17&#45;&gt;Node7</title>
<path fill="none" stroke="midnightblue" d="M1566.53,-66.8331C1747.49,-59.028 2357.3,-32.3291 2455.73,-21.3939"/>
<polygon fill="midnightblue" stroke="midnightblue" points="2456.37,-24.8385 2465.81,-20.0195 2455.43,-17.9027 2456.37,-24.8385"/>
</g>
<!-- Node17&#45;&gt;Node8 -->
<g id="edge80" class="edge"><title>Node17&#45;&gt;Node8</title>
<path fill="none" stroke="midnightblue" d="M1566.62,-66.4908C1706.01,-59.4642 2094.42,-39.0652 2243.19,-22.079"/>
<polygon fill="midnightblue" stroke="midnightblue" points="2243.97,-25.5123 2253.49,-20.8622 2243.14,-18.5608 2243.97,-25.5123"/>
</g>
<!-- Node17&#45;&gt;Node9 -->
<g id="edge78" class="edge"><title>Node17&#45;&gt;Node9</title>
<path fill="none" stroke="midnightblue" d="M1566.59,-59.8359C1571.12,-59.158 1575.64,-58.5325 1580,-58 1795.64,-31.6903 1856.05,-59.9966 2073.54,-21.945"/>
<polygon fill="midnightblue" stroke="midnightblue" points="2074.45,-25.3387 2083.69,-20.143 2073.23,-18.4467 2074.45,-25.3387"/>
</g>
<!-- Node17&#45;&gt;Node10 -->
<g id="edge68" class="edge"><title>Node17&#45;&gt;Node10</title>
<path fill="none" stroke="midnightblue" d="M1566.55,-63.1449C1582.95,-61.3533 1601.23,-59.4698 1618,-58 1851.29,-37.5506 1914.47,-56.6325 2149.99,-21.9419"/>
<polygon fill="midnightblue" stroke="midnightblue" points="2150.51,-25.4033 2159.88,-20.468 2149.47,-18.4797 2150.51,-25.4033"/>
</g>
<!-- Node17&#45;&gt;Node12 -->
<g id="edge42" class="edge"><title>Node17&#45;&gt;Node12</title>
<path fill="none" stroke="midnightblue" d="M1465.22,-59.0206C1462.45,-58.6353 1459.69,-58.2904 1457,-58 938.647,-2.10767 796.49,-106.082 278.315,-21.8119"/>
<polygon fill="midnightblue" stroke="midnightblue" points="278.773,-18.3403 268.338,-20.1738 277.639,-25.2478 278.773,-18.3403"/>
</g>
<!-- Node17&#45;&gt;Node14 -->
<g id="edge46" class="edge"><title>Node17&#45;&gt;Node14</title>
<path fill="none" stroke="midnightblue" d="M1465.22,-59.0261C1462.45,-58.6394 1459.69,-58.2927 1457,-58 1213.14,-31.4969 599.715,-67.1475 340.328,-21.641"/>
<polygon fill="midnightblue" stroke="midnightblue" points="340.59,-18.1309 330.124,-19.7734 339.33,-25.0166 340.59,-18.1309"/>
</g>
<!-- Node17&#45;&gt;Node15 -->
<g id="edge74" class="edge"><title>Node17&#45;&gt;Node15</title>
<path fill="none" stroke="midnightblue" d="M1465.22,-59.0374C1462.45,-58.6477 1459.69,-58.2973 1457,-58 1013.81,-9.06204 894.774,-74.0445 448.511,-22.0072"/>
<polygon fill="midnightblue" stroke="midnightblue" points="448.92,-18.5313 438.579,-20.8361 448.1,-25.4831 448.92,-18.5313"/>
</g>
<!-- Node18 -->
<g id="node38" class="node"><title>Node18</title>
<polygon fill="white" stroke="#bfbfbf" points="1716,-0.5 1716,-21.5 1760,-21.5 1760,-0.5 1716,-0.5"/>
<text text-anchor="middle" x="1738" y="-8.5" font-family="Helvetica,sans-Serif" font-size="10.00">cmath</text>
</g>
<!-- Node17&#45;&gt;Node18 -->
<g id="edge40" class="edge"><title>Node17&#45;&gt;Node18</title>
<path fill="none" stroke="midnightblue" d="M1564.64,-58.4409C1601.25,-50.1727 1652.83,-37.8537 1706.12,-22.0779"/>
<polygon fill="midnightblue" stroke="midnightblue" points="1707.16,-25.4204 1715.74,-19.199 1705.15,-18.7145 1707.16,-25.4204"/>
</g>
<!-- Node19 -->
<g id="node43" class="node"><title>Node19</title>
<polygon fill="white" stroke="#bfbfbf" points="1778,-0.5 1778,-21.5 1830,-21.5 1830,-0.5 1778,-0.5"/>
<text text-anchor="middle" x="1804" y="-8.5" font-family="Helvetica,sans-Serif" font-size="10.00">sstream</text>
</g>
<!-- Node17&#45;&gt;Node19 -->
<g id="edge48" class="edge"><title>Node17&#45;&gt;Node19</title>
<path fill="none" stroke="midnightblue" d="M1566.78,-59.9073C1628.54,-48.7995 1728.6,-30.6377 1767.67,-21.992"/>
<polygon fill="midnightblue" stroke="midnightblue" points="1768.79,-25.3242 1777.72,-19.6327 1767.19,-18.5092 1768.79,-25.3242"/>
</g>
<!-- Node20 -->
<g id="node45" class="node"><title>Node20</title>
<polygon fill="white" stroke="#bfbfbf" points="1847.5,-0.5 1847.5,-21.5 1962.5,-21.5 1962.5,-0.5 1847.5,-0.5"/>
<text text-anchor="middle" x="1905" y="-8.5" font-family="Helvetica,sans-Serif" font-size="10.00">yarp/os/BufferedPort.h</text>
</g>
<!-- Node17&#45;&gt;Node20 -->
<g id="edge50" class="edge"><title>Node17&#45;&gt;Node20</title>
<path fill="none" stroke="midnightblue" d="M1566.63,-60.1434C1571.15,-59.3999 1575.66,-58.6751 1580,-58 1691.7,-40.6425 1722.45,-39.6003 1837.51,-22.1977"/>
<polygon fill="midnightblue" stroke="midnightblue" points="1838.06,-25.6547 1847.42,-20.6905 1837.01,-18.7344 1838.06,-25.6547"/>
</g>
<!-- Node21 -->
<g id="node47" class="node"><title>Node21</title>
<polygon fill="white" stroke="#bfbfbf" points="1980,-0.5 1980,-21.5 2066,-21.5 2066,-0.5 1980,-0.5"/>
<text text-anchor="middle" x="2023" y="-8.5" font-family="Helvetica,sans-Serif" font-size="10.00">yarp/os/Bottle.h</text>
</g>
<!-- Node17&#45;&gt;Node21 -->
<g id="edge52" class="edge"><title>Node17&#45;&gt;Node21</title>
<path fill="none" stroke="midnightblue" d="M1566.6,-59.9263C1571.12,-59.2291 1575.64,-58.5744 1580,-58 1749.81,-35.625 1796.72,-47.6364 1969.98,-22.0073"/>
<polygon fill="midnightblue" stroke="midnightblue" points="1970.57,-25.4576 1979.94,-20.5129 1969.53,-18.535 1970.57,-25.4576"/>
</g>
<!-- Node17&#45;&gt;Node22 -->
<g id="edge54" class="edge"><title>Node17&#45;&gt;Node22</title>
<path fill="none" stroke="midnightblue" d="M1465.23,-59.0089C1462.45,-58.6266 1459.69,-58.2856 1457,-58 868.754,4.35773 712.743,-79.5814 120.853,-22.0602"/>
<polygon fill="midnightblue" stroke="midnightblue" points="121.078,-18.5655 110.784,-21.0721 120.394,-25.5321 121.078,-18.5655"/>
</g>
<!-- Node23 -->
<g id="node51" class="node"><title>Node23</title>
<polygon fill="white" stroke="#bfbfbf" points="455.5,-0.5 455.5,-21.5 584.5,-21.5 584.5,-0.5 455.5,-0.5"/>
<text text-anchor="middle" x="520" y="-8.5" font-family="Helvetica,sans-Serif" font-size="10.00">yarp/os/ResourceFinder.h</text>
</g>
<!-- Node17&#45;&gt;Node23 -->
<g id="edge56" class="edge"><title>Node17&#45;&gt;Node23</title>
<path fill="none" stroke="midnightblue" d="M1465.22,-59.057C1462.45,-58.6623 1459.69,-58.3054 1457,-58 1078.47,-15.0499 977.35,-57.9198 595.07,-22.1118"/>
<polygon fill="midnightblue" stroke="midnightblue" points="595.12,-18.6009 584.834,-21.1406 594.459,-25.5696 595.12,-18.6009"/>
</g>
<!-- Node24 -->
<g id="node53" class="node"><title>Node24</title>
<polygon fill="white" stroke="#bfbfbf" points="602,-0.5 602,-21.5 712,-21.5 712,-0.5 602,-0.5"/>
<text text-anchor="middle" x="657" y="-8.5" font-family="Helvetica,sans-Serif" font-size="10.00">yarp/os/PortReader.h</text>
</g>
<!-- Node17&#45;&gt;Node24 -->
<g id="edge58" class="edge"><title>Node17&#45;&gt;Node24</title>
<path fill="none" stroke="midnightblue" d="M1465.22,-59.0805C1462.44,-58.6798 1459.69,-58.3152 1457,-58 1135.06,-20.2906 1048.31,-57.0345 722.308,-22.0182"/>
<polygon fill="midnightblue" stroke="midnightblue" points="722.418,-18.5096 712.098,-20.9066 721.66,-25.4685 722.418,-18.5096"/>
</g>
<!-- Node25 -->
<g id="node55" class="node"><title>Node25</title>
<polygon fill="white" stroke="#bfbfbf" points="730,-0.5 730,-21.5 834,-21.5 834,-0.5 730,-0.5"/>
<text text-anchor="middle" x="782" y="-8.5" font-family="Helvetica,sans-Serif" font-size="10.00">yarp/os/RpcClient.h</text>
</g>
<!-- Node17&#45;&gt;Node25 -->
<g id="edge60" class="edge"><title>Node17&#45;&gt;Node25</title>
<path fill="none" stroke="midnightblue" d="M1465.21,-59.1121C1462.44,-58.7032 1459.69,-58.3282 1457,-58 1188.97,-25.288 1116.21,-53.6046 844.352,-22.0324"/>
<polygon fill="midnightblue" stroke="midnightblue" points="844.522,-18.5283 834.182,-20.8342 843.703,-25.4802 844.522,-18.5283"/>
</g>
<!-- Node26 -->
<g id="node57" class="node"><title>Node26</title>
<polygon fill="white" stroke="#bfbfbf" points="851.5,-0.5 851.5,-21.5 958.5,-21.5 958.5,-0.5 851.5,-0.5"/>
<text text-anchor="middle" x="905" y="-8.5" font-family="Helvetica,sans-Serif" font-size="10.00">yarp/os/RpcServer.h</text>
</g>
<!-- Node17&#45;&gt;Node26 -->
<g id="edge62" class="edge"><title>Node17&#45;&gt;Node26</title>
<path fill="none" stroke="midnightblue" d="M1465.21,-59.1602C1462.44,-58.7389 1459.69,-58.348 1457,-58 1243.72,-30.3703 1185.43,-48.5393 968.818,-22.1268"/>
<polygon fill="midnightblue" stroke="midnightblue" points="969.072,-18.6315 958.717,-20.877 968.212,-25.5785 969.072,-18.6315"/>
</g>
<!-- Node27 -->
<g id="node59" class="node"><title>Node27</title>
<polygon fill="white" stroke="#bfbfbf" points="975.5,-0.5 975.5,-21.5 1116.5,-21.5 1116.5,-0.5 975.5,-0.5"/>
<text text-anchor="middle" x="1046" y="-8.5" font-family="Helvetica,sans-Serif" font-size="10.00">yarp/os/ConnectionReader.h</text>
</g>
<!-- Node17&#45;&gt;Node27 -->
<g id="edge64" class="edge"><title>Node17&#45;&gt;Node27</title>
<path fill="none" stroke="midnightblue" d="M1465.19,-59.2728C1462.42,-58.8225 1459.68,-58.3946 1457,-58 1313.46,-36.8684 1274.05,-40.0762 1126.94,-22.2071"/>
<polygon fill="midnightblue" stroke="midnightblue" points="1126.97,-18.6856 1116.62,-20.9415 1126.12,-25.6335 1126.97,-18.6856"/>
</g>
<!-- Node28 -->
<g id="node61" class="node"><title>Node28</title>
<polygon fill="white" stroke="#bfbfbf" points="1134,-0.5 1134,-21.5 1216,-21.5 1216,-0.5 1134,-0.5"/>
<text text-anchor="middle" x="1175" y="-8.5" font-family="Helvetica,sans-Serif" font-size="10.00">yarp/os/Time.h</text>
</g>
<!-- Node17&#45;&gt;Node28 -->
<g id="edge66" class="edge"><title>Node17&#45;&gt;Node28</title>
<path fill="none" stroke="midnightblue" d="M1465.49,-59.4781C1462.62,-58.9696 1459.77,-58.4736 1457,-58 1357.26,-40.9674 1329.24,-41.1887 1226.05,-22.113"/>
<polygon fill="midnightblue" stroke="midnightblue" points="1226.63,-18.6616 1216.16,-20.2689 1225.35,-25.5429 1226.63,-18.6616"/>
</g>
<!-- Node29 -->
<g id="node64" class="node"><title>Node29</title>
<polygon fill="white" stroke="#bfbfbf" points="1233.5,-0.5 1233.5,-21.5 1340.5,-21.5 1340.5,-0.5 1233.5,-0.5"/>
<text text-anchor="middle" x="1287" y="-8.5" font-family="Helvetica,sans-Serif" font-size="10.00">yarp/os/LogStream.h</text>
</g>
<!-- Node17&#45;&gt;Node29 -->
<g id="edge70" class="edge"><title>Node17&#45;&gt;Node29</title>
<path fill="none" stroke="midnightblue" d="M1474.53,-58.4966C1436.31,-48.8159 1379.45,-34.4156 1338.37,-24.0105"/>
<polygon fill="midnightblue" stroke="midnightblue" points="1339.1,-20.5855 1328.55,-21.5231 1337.38,-27.3712 1339.1,-20.5855"/>
</g>
<!-- Node30 -->
<g id="node66" class="node"><title>Node30</title>
<polygon fill="white" stroke="#bfbfbf" points="1357.5,-0.5 1357.5,-21.5 1454.5,-21.5 1454.5,-0.5 1357.5,-0.5"/>
<text text-anchor="middle" x="1406" y="-8.5" font-family="Helvetica,sans-Serif" font-size="10.00">yarp/os/Property.h</text>
</g>
<!-- Node17&#45;&gt;Node30 -->
<g id="edge72" class="edge"><title>Node17&#45;&gt;Node30</title>
<path fill="none" stroke="midnightblue" d="M1496.08,-58.4966C1479.05,-49.5194 1454.33,-36.4835 1435.09,-26.3387"/>
<polygon fill="midnightblue" stroke="midnightblue" points="1436.62,-23.1894 1426.14,-21.6212 1433.36,-29.3814 1436.62,-23.1894"/>
</g>
<!-- Node31 -->
<g id="node69" class="node"><title>Node31</title>
<polygon fill="white" stroke="#bfbfbf" points="1471.5,-0.5 1471.5,-21.5 1560.5,-21.5 1560.5,-0.5 1471.5,-0.5"/>
<text text-anchor="middle" x="1516" y="-8.5" font-family="Helvetica,sans-Serif" font-size="10.00">yarp/sig/Matrix.h</text>
</g>
<!-- Node17&#45;&gt;Node31 -->
<g id="edge76" class="edge"><title>Node17&#45;&gt;Node31</title>
<path fill="none" stroke="midnightblue" d="M1516,-58.3619C1516,-50.9219 1516,-40.7427 1516,-31.7276"/>
<polygon fill="midnightblue" stroke="midnightblue" points="1519.5,-31.5706 1516,-21.5707 1512.5,-31.5707 1519.5,-31.5706"/>
</g>
<!-- Node32 -->
<g id="node73" class="node"><title>Node32</title>
<polygon fill="white" stroke="#bfbfbf" points="1577.5,-0.5 1577.5,-21.5 1698.5,-21.5 1698.5,-0.5 1577.5,-0.5"/>
<text text-anchor="middle" x="1638" y="-8.5" font-family="Helvetica,sans-Serif" font-size="10.00">ocra/util/StringUtilities.h</text>
</g>
<!-- Node17&#45;&gt;Node32 -->
<g id="edge82" class="edge"><title>Node17&#45;&gt;Node32</title>
<path fill="none" stroke="midnightblue" d="M1538.09,-58.4966C1557.23,-49.397 1585.15,-36.1273 1606.61,-25.9253"/>
<polygon fill="midnightblue" stroke="midnightblue" points="1608.13,-29.0758 1615.66,-21.6212 1605.12,-22.7539 1608.13,-29.0758"/>
</g>
<!-- Node17&#45;&gt;Node33 -->
<g id="edge84" class="edge"><title>Node17&#45;&gt;Node33</title>
<path fill="none" stroke="midnightblue" d="M1566.64,-66.7494C1732.06,-59.3248 2251.93,-35.3896 2365.08,-21.9134"/>
<polygon fill="midnightblue" stroke="midnightblue" points="2365.82,-25.3467 2375.27,-20.5631 2364.9,-18.4074 2365.82,-25.3467"/>
</g>
<!-- Node17&#45;&gt;Node34 -->
<g id="edge86" class="edge"><title>Node17&#45;&gt;Node34</title>
<path fill="none" stroke="midnightblue" d="M1465.23,-59.0149C1462.45,-58.6311 1459.69,-58.2881 1457,-58 906.86,0.832037 758.072,-98.2339 206.341,-21.885"/>
<polygon fill="midnightblue" stroke="midnightblue" points="206.519,-18.3759 196.131,-20.4585 205.55,-25.3086 206.519,-18.3759"/>
</g>
<!-- Node38&#45;&gt;Node4 -->
<g id="edge160" class="edge"><title>Node38&#45;&gt;Node4</title>
<path fill="none" stroke="midnightblue" d="M2902.8,-348.472C2951.19,-341.509 2999.14,-330.184 3014,-312 3053.21,-264.006 3022.94,-183.974 3005.34,-146.932"/>
<polygon fill="midnightblue" stroke="midnightblue" points="3008.34,-145.107 3000.78,-137.687 3002.06,-148.204 3008.34,-145.107"/>
</g>
<!-- Node39 -->
<g id="node91" class="node"><title>Node39</title>
<a xlink:href="ShapeConstraints_8h.html" target="_top" xlink:title="walking&#45;client/constraints/ShapeConstraints.h">
<polygon fill="white" stroke="black" points="2530,-290.5 2530,-311.5 2746,-311.5 2746,-290.5 2530,-290.5"/>
<text text-anchor="middle" x="2638" y="-298.5" font-family="Helvetica,sans-Serif" font-size="10.00">walking&#45;client/constraints/ShapeConstraints.h</text>
</a>
</g>
<!-- Node38&#45;&gt;Node39 -->
<g id="edge104" class="edge"><title>Node38&#45;&gt;Node39</title>
<path fill="none" stroke="midnightblue" d="M2756.74,-348.497C2733.58,-339.234 2699.62,-325.65 2673.95,-315.379"/>
<polygon fill="midnightblue" stroke="midnightblue" points="2675.14,-312.086 2664.55,-311.621 2672.54,-318.585 2675.14,-312.086"/>
</g>
<!-- Node45 -->
<g id="node109" class="node"><title>Node45</title>
<a xlink:href="AdmissibilityConstraints_8h.html" target="_top" xlink:title="walking&#45;client/constraints/AdmissibilityConstraints.h">
<polygon fill="white" stroke="red" points="2053,-290.5 2053,-311.5 2297,-311.5 2297,-290.5 2053,-290.5"/>
<text text-anchor="middle" x="2175" y="-298.5" font-family="Helvetica,sans-Serif" font-size="10.00">walking&#45;client/constraints/AdmissibilityConstraints.h</text>
</a>
</g>
<!-- Node38&#45;&gt;Node45 -->
<g id="edge128" class="edge"><title>Node38&#45;&gt;Node45</title>
<path fill="none" stroke="midnightblue" d="M2672.9,-348.497C2566.37,-338.335 2405.34,-322.973 2295.45,-312.49"/>
<polygon fill="midnightblue" stroke="midnightblue" points="2295.6,-308.989 2285.31,-311.523 2294.93,-315.957 2295.6,-308.989"/>
</g>
<!-- Node47 -->
<g id="node115" class="node"><title>Node47</title>
<a xlink:href="StepController_8h.html" target="_top" xlink:title="walking&#45;client/StepController.h">
<polygon fill="white" stroke="red" points="3060.5,-232.5 3060.5,-253.5 3209.5,-253.5 3209.5,-232.5 3060.5,-232.5"/>
<text text-anchor="middle" x="3135" y="-240.5" font-family="Helvetica,sans-Serif" font-size="10.00">walking&#45;client/StepController.h</text>
</a>
</g>
<!-- Node38&#45;&gt;Node47 -->
<g id="edge136" class="edge"><title>Node38&#45;&gt;Node47</title>
<path fill="none" stroke="midnightblue" d="M2867.52,-348.473C2932.23,-339.576 3015.55,-326.065 3047,-312 3074.57,-299.671 3101.12,-276.85 3117.72,-260.84"/>
<polygon fill="midnightblue" stroke="midnightblue" points="3120.38,-263.126 3125.03,-253.603 3115.46,-258.152 3120.38,-263.126"/>
</g>
<!-- Node48 -->
<g id="node118" class="node"><title>Node48</title>
<a xlink:href="BaseOfSupport_8h.html" target="_top" xlink:title="walking&#45;client/BaseOfSupport.h">
<polygon fill="white" stroke="red" points="2851,-290.5 2851,-311.5 3005,-311.5 3005,-290.5 2851,-290.5"/>
<text text-anchor="middle" x="2928" y="-298.5" font-family="Helvetica,sans-Serif" font-size="10.00">walking&#45;client/BaseOfSupport.h</text>
</a>
</g>
<!-- Node38&#45;&gt;Node48 -->
<g id="edge140" class="edge"><title>Node38&#45;&gt;Node48</title>
<path fill="none" stroke="midnightblue" d="M2809.26,-348.497C2832.42,-339.234 2866.38,-325.65 2892.05,-315.379"/>
<polygon fill="midnightblue" stroke="midnightblue" points="2893.46,-318.585 2901.45,-311.621 2890.86,-312.086 2893.46,-318.585"/>
</g>
<!-- Node40 -->
<g id="node93" class="node"><title>Node40</title>
<a xlink:href="Constraint_8h.html" target="_top" xlink:title="A constraint base class.">
<polygon fill="white" stroke="red" points="2352.5,-174.5 2352.5,-195.5 2535.5,-195.5 2535.5,-174.5 2352.5,-174.5"/>
<text text-anchor="middle" x="2444" y="-182.5" font-family="Helvetica,sans-Serif" font-size="10.00">walking&#45;client/constraints/Constraint.h</text>
</a>
</g>
<!-- Node39&#45;&gt;Node40 -->
<g id="edge106" class="edge"><title>Node39&#45;&gt;Node40</title>
<path fill="none" stroke="midnightblue" d="M2612.81,-290.388C2592.63,-281.544 2563.86,-268.147 2540,-254 2513.05,-238.023 2484.12,-216.571 2465.14,-201.851"/>
<polygon fill="midnightblue" stroke="midnightblue" points="2467.19,-199.016 2457.16,-195.606 2462.88,-204.527 2467.19,-199.016"/>
</g>
<!-- Node42 -->
<g id="node100" class="node"><title>Node42</title>
<a xlink:href="Bounding_8h.html" target="_top" xlink:title="walking&#45;client/constraints/Bounding.h">
<polygon fill="white" stroke="black" points="2548.5,-232.5 2548.5,-253.5 2727.5,-253.5 2727.5,-232.5 2548.5,-232.5"/>
<text text-anchor="middle" x="2638" y="-240.5" font-family="Helvetica,sans-Serif" font-size="10.00">walking&#45;client/constraints/Bounding.h</text>
</a>
</g>
<!-- Node39&#45;&gt;Node42 -->
<g id="edge116" class="edge"><title>Node39&#45;&gt;Node42</title>
<path fill="none" stroke="midnightblue" d="M2638,-290.362C2638,-282.922 2638,-272.743 2638,-263.728"/>
<polygon fill="midnightblue" stroke="midnightblue" points="2641.5,-263.571 2638,-253.571 2634.5,-263.571 2641.5,-263.571"/>
</g>
<!-- Node43 -->
<g id="node103" class="node"><title>Node43</title>
<a xlink:href="Constancy_8h.html" target="_top" xlink:title="walking&#45;client/constraints/Constancy.h">
<polygon fill="white" stroke="black" points="2744.5,-232.5 2744.5,-253.5 2929.5,-253.5 2929.5,-232.5 2744.5,-232.5"/>
<text text-anchor="middle" x="2837" y="-240.5" font-family="Helvetica,sans-Serif" font-size="10.00">walking&#45;client/constraints/Constancy.h</text>
</a>
</g>
<!-- Node39&#45;&gt;Node43 -->
<g id="edge120" class="edge"><title>Node39&#45;&gt;Node43</title>
<path fill="none" stroke="midnightblue" d="M2674.04,-290.497C2706.9,-280.918 2755.62,-266.72 2791.22,-256.342"/>
<polygon fill="midnightblue" stroke="midnightblue" points="2792.27,-259.681 2800.9,-253.523 2790.32,-252.961 2792.27,-259.681"/>
</g>
<!-- Node44 -->
<g id="node106" class="node"><title>Node44</title>
<a xlink:href="Sequentiality_8h.html" target="_top" xlink:title="walking&#45;client/constraints/Sequentiality.h">
<polygon fill="white" stroke="black" points="2299,-232.5 2299,-253.5 2493,-253.5 2493,-232.5 2299,-232.5"/>
<text text-anchor="middle" x="2396" y="-240.5" font-family="Helvetica,sans-Serif" font-size="10.00">walking&#45;client/constraints/Sequentiality.h</text>
</a>
</g>
<!-- Node39&#45;&gt;Node44 -->
<g id="edge124" class="edge"><title>Node39&#45;&gt;Node44</title>
<path fill="none" stroke="midnightblue" d="M2594.18,-290.497C2553.61,-280.775 2493.19,-266.294 2449.74,-255.879"/>
<polygon fill="midnightblue" stroke="midnightblue" points="2450.45,-252.45 2439.91,-253.523 2448.82,-259.257 2450.45,-252.45"/>
</g>
<!-- Node40&#45;&gt;Node4 -->
<g id="edge108" class="edge"><title>Node40&#45;&gt;Node4</title>
<path fill="none" stroke="midnightblue" d="M2535.6,-175.357C2647.92,-163.535 2835.26,-143.814 2932.37,-133.593"/>
<polygon fill="midnightblue" stroke="midnightblue" points="2932.75,-137.072 2942.33,-132.544 2932.02,-130.111 2932.75,-137.072"/>
</g>
<!-- Node40&#45;&gt;Node7 -->
<g id="edge114" class="edge"><title>Node40&#45;&gt;Node7</title>
<path fill="none" stroke="midnightblue" d="M2452.26,-174.446C2458.95,-165.321 2468.06,-151.507 2473,-138 2486.14,-102.071 2490.2,-57.2434 2491.45,-31.5923"/>
<polygon fill="midnightblue" stroke="midnightblue" points="2494.95,-31.6837 2491.84,-21.5553 2487.96,-31.4118 2494.95,-31.6837"/>
</g>
<!-- Node40&#45;&gt;Node37 -->
<g id="edge110" class="edge"><title>Node40&#45;&gt;Node37</title>
<path fill="none" stroke="midnightblue" d="M2432.08,-174.362C2422.64,-165.941 2409.27,-154.011 2398.31,-144.231"/>
<polygon fill="midnightblue" stroke="midnightblue" points="2400.64,-141.617 2390.85,-137.571 2395.98,-146.84 2400.64,-141.617"/>
</g>
<!-- Node41 -->
<g id="node97" class="node"><title>Node41</title>
<polygon fill="white" stroke="#bfbfbf" points="2042.5,-116.5 2042.5,-137.5 2159.5,-137.5 2159.5,-116.5 2042.5,-116.5"/>
<text text-anchor="middle" x="2101" y="-124.5" font-family="Helvetica,sans-Serif" font-size="10.00">ocra/util/ErrorsHelper.h</text>
</g>
<!-- Node40&#45;&gt;Node41 -->
<g id="edge112" class="edge"><title>Node40&#45;&gt;Node41</title>
<path fill="none" stroke="midnightblue" d="M2381.89,-174.497C2321.99,-164.369 2231.56,-149.077 2169.58,-138.597"/>
<polygon fill="midnightblue" stroke="midnightblue" points="2169.95,-135.109 2159.5,-136.893 2168.78,-142.011 2169.95,-135.109"/>
</g>
<!-- Node42&#45;&gt;Node40 -->
<g id="edge118" class="edge"><title>Node42&#45;&gt;Node40</title>
<path fill="none" stroke="midnightblue" d="M2602.87,-232.497C2570.97,-222.959 2523.74,-208.841 2489.07,-198.475"/>
<polygon fill="midnightblue" stroke="midnightblue" points="2489.78,-195.034 2479.2,-195.523 2487.78,-201.741 2489.78,-195.034"/>
</g>
<!-- Node43&#45;&gt;Node40 -->
<g id="edge122" class="edge"><title>Node43&#45;&gt;Node40</title>
<path fill="none" stroke="midnightblue" d="M2765.83,-232.497C2698.16,-222.509 2596.44,-207.498 2525.53,-197.033"/>
<polygon fill="midnightblue" stroke="midnightblue" points="2525.71,-193.521 2515.3,-195.523 2524.68,-200.446 2525.71,-193.521"/>
</g>
<!-- Node44&#45;&gt;Node40 -->
<g id="edge126" class="edge"><title>Node44&#45;&gt;Node40</title>
<path fill="none" stroke="midnightblue" d="M2404.8,-232.362C2411.5,-224.268 2420.88,-212.932 2428.79,-203.38"/>
<polygon fill="midnightblue" stroke="midnightblue" points="2431.57,-205.506 2435.25,-195.571 2426.18,-201.043 2431.57,-205.506"/>
</g>
<!-- Node45&#45;&gt;Node40 -->
<g id="edge130" class="edge"><title>Node45&#45;&gt;Node40</title>
<path fill="none" stroke="midnightblue" d="M2126.23,-290.412C2084.83,-279.249 2035.7,-259.46 2060,-232 2078.49,-211.11 2234.71,-197.539 2342.11,-190.586"/>
<polygon fill="midnightblue" stroke="midnightblue" points="2342.59,-194.063 2352.35,-189.933 2342.14,-187.077 2342.59,-194.063"/>
</g>
<!-- Node46 -->
<g id="node112" class="node"><title>Node46</title>
<a xlink:href="SSDSAlternation_8h.html" target="_top" xlink:title="walking&#45;client/constraints/SSDSAlternation.h">
<polygon fill="white" stroke="black" points="2069,-232.5 2069,-253.5 2281,-253.5 2281,-232.5 2069,-232.5"/>
<text text-anchor="middle" x="2175" y="-240.5" font-family="Helvetica,sans-Serif" font-size="10.00">walking&#45;client/constraints/SSDSAlternation.h</text>
</a>
</g>
<!-- Node45&#45;&gt;Node46 -->
<g id="edge132" class="edge"><title>Node45&#45;&gt;Node46</title>
<path fill="none" stroke="midnightblue" d="M2175,-290.362C2175,-282.922 2175,-272.743 2175,-263.728"/>
<polygon fill="midnightblue" stroke="midnightblue" points="2178.5,-263.571 2175,-253.571 2171.5,-263.571 2178.5,-263.571"/>
</g>
<!-- Node46&#45;&gt;Node40 -->
<g id="edge134" class="edge"><title>Node46&#45;&gt;Node40</title>
<path fill="none" stroke="midnightblue" d="M2223.71,-232.497C2269.09,-222.714 2336.81,-208.111 2385.18,-197.682"/>
<polygon fill="midnightblue" stroke="midnightblue" points="2386.16,-201.052 2395.19,-195.523 2384.68,-194.209 2386.16,-201.052"/>
</g>
<!-- Node47&#45;&gt;Node4 -->
<g id="edge138" class="edge"><title>Node47&#45;&gt;Node4</title>
<path fill="none" stroke="midnightblue" d="M3122.08,-232.295C3097.81,-212.182 3045.2,-168.59 3015.85,-144.275"/>
<polygon fill="midnightblue" stroke="midnightblue" points="3017.82,-141.364 3007.89,-137.679 3013.36,-146.755 3017.82,-141.364"/>
</g>
<!-- Node48&#45;&gt;Node4 -->
<g id="edge158" class="edge"><title>Node48&#45;&gt;Node4</title>
<path fill="none" stroke="midnightblue" d="M2940.99,-290.423C2950.81,-281.697 2963.78,-268.44 2971,-254 2988.23,-219.563 2993.14,-174.227 2994.51,-148.079"/>
<polygon fill="midnightblue" stroke="midnightblue" points="2998.02,-147.958 2994.91,-137.828 2991.02,-147.683 2998.02,-147.958"/>
</g>
<!-- Node48&#45;&gt;Node37 -->
<g id="edge142" class="edge"><title>Node48&#45;&gt;Node37</title>
<path fill="none" stroke="midnightblue" d="M2934.05,-290.305C2941.55,-275.463 2951.76,-248.582 2938,-232 2880.16,-162.284 2618.1,-138.565 2474.26,-130.721"/>
<polygon fill="midnightblue" stroke="midnightblue" points="2474.28,-127.217 2464.11,-130.183 2473.91,-134.208 2474.28,-127.217"/>
</g>
<!-- Node48&#45;&gt;Node47 -->
<g id="edge156" class="edge"><title>Node48&#45;&gt;Node47</title>
<path fill="none" stroke="midnightblue" d="M2965.49,-290.497C2999.67,-280.918 3050.35,-266.72 3087.38,-256.342"/>
<polygon fill="midnightblue" stroke="midnightblue" points="3088.76,-259.591 3097.44,-253.523 3086.87,-252.851 3088.76,-259.591"/>
</g>
<!-- Node48&#45;&gt;Node49 -->
<g id="edge144" class="edge"><title>Node48&#45;&gt;Node49</title>
<path fill="none" stroke="midnightblue" d="M2850.93,-295.905C2820.99,-293.977 2786.4,-291.811 2755,-290 2446.21,-272.186 2368.75,-272.477 2060,-254 2032.68,-252.365 2002.78,-250.388 1976.18,-248.563"/>
<polygon fill="midnightblue" stroke="midnightblue" points="1976.38,-245.069 1966.17,-247.872 1975.9,-252.052 1976.38,-245.069"/>
</g>
<!-- Node49&#45;&gt;Node4 -->
<g id="edge152" class="edge"><title>Node49&#45;&gt;Node4</title>
<path fill="none" stroke="midnightblue" d="M1956.24,-232.438C2041.21,-217.383 2204.25,-189.828 2344,-174 2559.04,-149.644 2815.55,-135.47 2931.97,-129.842"/>
<polygon fill="midnightblue" stroke="midnightblue" points="2932.3,-133.33 2942.13,-129.355 2931.97,-126.338 2932.3,-133.33"/>
</g>
<!-- Node49&#45;&gt;Node6 -->
<g id="edge148" class="edge"><title>Node49&#45;&gt;Node6</title>
<path fill="none" stroke="midnightblue" d="M1856.71,-232.497C1818.66,-222.816 1762.05,-208.416 1721.14,-198.01"/>
<polygon fill="midnightblue" stroke="midnightblue" points="1721.92,-194.597 1711.37,-195.523 1720.19,-201.38 1721.92,-194.597"/>
</g>
<!-- Node49&#45;&gt;Node17 -->
<g id="edge154" class="edge"><title>Node49&#45;&gt;Node17</title>
<path fill="none" stroke="midnightblue" d="M1874.68,-232.377C1809.41,-202.649 1624.75,-118.535 1549.02,-84.0412"/>
<polygon fill="midnightblue" stroke="midnightblue" points="1550.05,-80.6647 1539.5,-79.7046 1547.15,-87.035 1550.05,-80.6647"/>
</g>
<!-- Node49&#45;&gt;Node33 -->
<g id="edge146" class="edge"><title>Node49&#45;&gt;Node33</title>
<path fill="none" stroke="midnightblue" d="M1900.65,-232.485C1904.79,-217.857 1914.01,-191.227 1930,-174 1966,-135.209 1985.05,-136.113 2034,-116 2094.75,-91.0392 2278.51,-44.0929 2365.45,-22.4548"/>
<polygon fill="midnightblue" stroke="midnightblue" points="2366.45,-25.8137 2375.31,-20.0066 2364.76,-19.0201 2366.45,-25.8137"/>
</g>
<!-- Node49&#45;&gt;Node41 -->
<g id="edge150" class="edge"><title>Node49&#45;&gt;Node41</title>
<path fill="none" stroke="midnightblue" d="M1904.91,-232.318C1915.18,-217.242 1935.89,-189.805 1960,-174 1983.82,-158.383 2013.32,-147.495 2039.17,-140.161"/>
<polygon fill="midnightblue" stroke="midnightblue" points="2040.14,-143.523 2048.88,-137.522 2038.31,-136.768 2040.14,-143.523"/>
</g>
</g>
</svg>
