<?xml version="1.0" encoding="UTF-8" standalone="no"?>
<!DOCTYPE svg PUBLIC "-//W3C//DTD SVG 1.1//EN"
 "http://www.w3.org/Graphics/SVG/1.1/DTD/svg11.dtd">
<!-- Generated by graphviz version 2.26.3 (20100126.1600)
 -->
<!-- Title: G Pages: 1 -->
<svg width="3619pt" height="436pt"
 viewBox="0.00 0.00 3619.00 436.00" xmlns="http://www.w3.org/2000/svg" xmlns:xlink="http://www.w3.org/1999/xlink">
<g id="graph1" class="graph" transform="scale(1 1) rotate(0) translate(4 432)">
<title>G</title>
<polygon fill="white" stroke="white" points="-4,5 -4,-432 3616,-432 3616,5 -4,5"/>
<!-- Node1 -->
<g id="node1" class="node"><title>Node1</title>
<polygon fill="#bfbfbf" stroke="black" points="1328,-406.5 1328,-427.5 1726,-427.5 1726,-406.5 1328,-406.5"/>
<text text-anchor="middle" x="1527" y="-414.5" font-family="Helvetica,sans-Serif" font-size="10.00">ocra&#45;wbi&#45;plugins/ocra&#45;icub&#45;clients/walking&#45;client/include/walking&#45;client/MIQPController.h</text>
</g>
<!-- Node2 -->
<g id="node3" class="node"><title>Node2</title>
<polygon fill="white" stroke="#bfbfbf" points="353,-348.5 353,-369.5 427,-369.5 427,-348.5 353,-348.5"/>
<text text-anchor="middle" x="390" y="-356.5" font-family="Helvetica,sans-Serif" font-size="10.00">gurobi_c++.h</text>
</g>
<!-- Node1&#45;&gt;Node2 -->
<g id="edge2" class="edge"><title>Node1&#45;&gt;Node2</title>
<path fill="none" stroke="midnightblue" d="M1327.9,-412.418C1062.39,-405.61 606.653,-391.293 441,-370 439.737,-369.838 438.458,-369.66 437.17,-369.469"/>
<polygon fill="midnightblue" stroke="midnightblue" points="437.641,-365.999 427.198,-367.783 436.474,-372.901 437.641,-365.999"/>
</g>
<!-- Node3 -->
<g id="node5" class="node"><title>Node3</title>
<a xlink:href="utils_8h.html" target="_top" xlink:title="walking&#45;client/utils.h">
<polygon fill="white" stroke="black" points="1736.5,-116.5 1736.5,-137.5 1841.5,-137.5 1841.5,-116.5 1736.5,-116.5"/>
<text text-anchor="middle" x="1789" y="-124.5" font-family="Helvetica,sans-Serif" font-size="10.00">walking&#45;client/utils.h</text>
</a>
</g>
<!-- Node1&#45;&gt;Node3 -->
<g id="edge4" class="edge"><title>Node1&#45;&gt;Node3</title>
<path fill="none" stroke="midnightblue" d="M1536.07,-406.459C1560.58,-378.027 1630.31,-297.487 1690,-232 1718.16,-201.105 1751.67,-165.879 1771.59,-145.091"/>
<polygon fill="midnightblue" stroke="midnightblue" points="1774.36,-147.259 1778.76,-137.62 1769.31,-142.411 1774.36,-147.259"/>
</g>
<!-- Node4 -->
<g id="node7" class="node"><title>Node4</title>
<a xlink:href="OcraWbiModel_8h.html" target="_top" xlink:title="Implementation of ocra::Model using wholeBodyInterface.">
<polygon fill="white" stroke="black" points="1319,-174.5 1319,-195.5 1451,-195.5 1451,-174.5 1319,-174.5"/>
<text text-anchor="middle" x="1385" y="-182.5" font-family="Helvetica,sans-Serif" font-size="10.00">ocra&#45;icub/OcraWbiModel.h</text>
</a>
</g>
<!-- Node1&#45;&gt;Node4 -->
<g id="edge6" class="edge"><title>Node1&#45;&gt;Node4</title>
<path fill="none" stroke="midnightblue" d="M1508.39,-406.495C1494.87,-398.082 1476.92,-385.198 1465,-370 1424.09,-317.851 1399.93,-241.599 1390.12,-205.457"/>
<polygon fill="midnightblue" stroke="midnightblue" points="1393.46,-204.384 1387.54,-195.599 1386.69,-206.159 1393.46,-204.384"/>
</g>
<!-- Node21 -->
<g id="node46" class="node"><title>Node21</title>
<polygon fill="white" stroke="#bfbfbf" points="-0.5,-0.5 -0.5,-21.5 110.5,-21.5 110.5,-0.5 -0.5,-0.5"/>
<text text-anchor="middle" x="55" y="-8.5" font-family="Helvetica,sans-Serif" font-size="10.00">yarp/os/RateThread.h</text>
</g>
<!-- Node1&#45;&gt;Node21 -->
<g id="edge86" class="edge"><title>Node1&#45;&gt;Node21</title>
<path fill="none" stroke="midnightblue" d="M1327.78,-412.918C1065.91,-406.689 630.717,-393.041 560,-370 506.906,-352.701 455,-356.841 455,-301 455,-301 455,-301 455,-127 455,-92.6082 234.065,-45.2648 120.59,-23.2168"/>
<polygon fill="midnightblue" stroke="midnightblue" points="121.101,-19.7508 110.618,-21.2907 119.773,-26.6238 121.101,-19.7508"/>
</g>
<!-- Node32 -->
<g id="node72" class="node"><title>Node32</title>
<polygon fill="white" stroke="#bfbfbf" points="2503.5,-0.5 2503.5,-21.5 2576.5,-21.5 2576.5,-0.5 2503.5,-0.5"/>
<text text-anchor="middle" x="2540" y="-8.5" font-family="Helvetica,sans-Serif" font-size="10.00">Eigen/Dense</text>
</g>
<!-- Node1&#45;&gt;Node32 -->
<g id="edge88" class="edge"><title>Node1&#45;&gt;Node32</title>
<path fill="none" stroke="midnightblue" d="M1519.29,-406.414C1505.72,-386.711 1479,-342.628 1479,-301 1479,-301 1479,-301 1479,-243 1479,-130.124 1546.74,-96.0842 1653,-58 1826.29,4.1089 2293.26,-46.5669 2493.1,-21.9541"/>
<polygon fill="midnightblue" stroke="midnightblue" points="2493.83,-25.3883 2503.28,-20.601 2492.9,-18.4494 2493.83,-25.3883"/>
</g>
<!-- Node33 -->
<g id="node74" class="node"><title>Node33</title>
<polygon fill="white" stroke="#bfbfbf" points="128,-0.5 128,-21.5 196,-21.5 196,-0.5 128,-0.5"/>
<text text-anchor="middle" x="162" y="-8.5" font-family="Helvetica,sans-Serif" font-size="10.00">Eigen/Lgsm</text>
</g>
<!-- Node1&#45;&gt;Node33 -->
<g id="edge90" class="edge"><title>Node1&#45;&gt;Node33</title>
<path fill="none" stroke="midnightblue" d="M1327.94,-414.36C1027.53,-407.682 493,-384.123 493,-301 493,-301 493,-301 493,-127 493,-94.5312 494.128,-78.5621 469,-58 425.325,-22.261 277.866,-32.2615 206.191,-21.8199"/>
<polygon fill="midnightblue" stroke="midnightblue" points="206.632,-18.3447 196.187,-20.1231 205.461,-25.2462 206.632,-18.3447"/>
</g>
<!-- Node34 -->
<g id="node80" class="node"><title>Node34</title>
<polygon fill="white" stroke="#bfbfbf" points="2973,-116.5 2973,-137.5 3143,-137.5 3143,-116.5 2973,-116.5"/>
<text text-anchor="middle" x="3058" y="-124.5" font-family="Helvetica,sans-Serif" font-size="10.00">unsupported/Eigen/MatrixFunctions</text>
</g>
<!-- Node1&#45;&gt;Node34 -->
<g id="edge92" class="edge"><title>Node1&#45;&gt;Node34</title>
<path fill="none" stroke="midnightblue" d="M1726.02,-415.727C2232.58,-411.179 3531,-390.766 3531,-301 3531,-301 3531,-301 3531,-243 3531,-165.978 3291.43,-139.833 3153.28,-131.16"/>
<polygon fill="midnightblue" stroke="midnightblue" points="3153.3,-127.655 3143.11,-130.541 3152.88,-134.642 3153.3,-127.655"/>
</g>
<!-- Node35 -->
<g id="node82" class="node"><title>Node35</title>
<a xlink:href="MIQPLinearConstraints_8h.html" target="_top" xlink:title="walking&#45;client/constraints/MIQPLinearConstraints.h">
<polygon fill="white" stroke="black" points="1761,-348.5 1761,-369.5 2001,-369.5 2001,-348.5 1761,-348.5"/>
<text text-anchor="middle" x="1881" y="-356.5" font-family="Helvetica,sans-Serif" font-size="10.00">walking&#45;client/constraints/MIQPLinearConstraints.h</text>
</a>
</g>
<!-- Node1&#45;&gt;Node35 -->
<g id="edge94" class="edge"><title>Node1&#45;&gt;Node35</title>
<path fill="none" stroke="midnightblue" d="M1591.11,-406.497C1651.82,-396.55 1742.94,-381.621 1806.77,-371.162"/>
<polygon fill="midnightblue" stroke="midnightblue" points="1807.47,-374.594 1816.77,-369.523 1806.34,-367.686 1807.47,-374.594"/>
</g>
<!-- Node49 -->
<g id="node122" class="node"><title>Node49</title>
<a xlink:href="MIQPState_8h.html" target="_top" xlink:title="walking&#45;client/MIQPState.h">
<polygon fill="white" stroke="black" points="1507,-232.5 1507,-253.5 1643,-253.5 1643,-232.5 1507,-232.5"/>
<text text-anchor="middle" x="1575" y="-240.5" font-family="Helvetica,sans-Serif" font-size="10.00">walking&#45;client/MIQPState.h</text>
</a>
</g>
<!-- Node1&#45;&gt;Node49 -->
<g id="edge160" class="edge"><title>Node1&#45;&gt;Node49</title>
<path fill="none" stroke="midnightblue" d="M1529.93,-406.377C1537.71,-378.172 1559,-301.012 1569.28,-263.72"/>
<polygon fill="midnightblue" stroke="midnightblue" points="1572.7,-264.498 1571.99,-253.928 1565.95,-262.637 1572.7,-264.498"/>
</g>
<!-- Node50 -->
<g id="node131" class="node"><title>Node50</title>
<polygon fill="white" stroke="#bfbfbf" points="3558.5,-348.5 3558.5,-369.5 3611.5,-369.5 3611.5,-348.5 3558.5,-348.5"/>
<text text-anchor="middle" x="3585" y="-356.5" font-family="Helvetica,sans-Serif" font-size="10.00">Gurobi.h</text>
</g>
<!-- Node1&#45;&gt;Node50 -->
<g id="edge162" class="edge"><title>Node1&#45;&gt;Node50</title>
<path fill="none" stroke="midnightblue" d="M1726.29,-415.132C2200.35,-410.29 3368.82,-395.875 3545,-370 3546.07,-369.843 3547.15,-369.667 3548.24,-369.474"/>
<polygon fill="midnightblue" stroke="midnightblue" points="3549.03,-372.882 3558.08,-367.366 3547.57,-366.038 3549.03,-372.882"/>
</g>
<!-- Node5 -->
<g id="node9" class="node"><title>Node5</title>
<polygon fill="white" stroke="#bfbfbf" points="2434,-0.5 2434,-21.5 2486,-21.5 2486,-0.5 2434,-0.5"/>
<text text-anchor="middle" x="2460" y="-8.5" font-family="Helvetica,sans-Serif" font-size="10.00">memory</text>
</g>
<!-- Node4&#45;&gt;Node5 -->
<g id="edge8" class="edge"><title>Node4&#45;&gt;Node5</title>
<path fill="none" stroke="midnightblue" d="M1395.66,-174.387C1425.25,-145.034 1507.28,-64.4979 1523,-58 1613.16,-20.7376 2287.79,-38.1638 2423.66,-21.5339"/>
<polygon fill="midnightblue" stroke="midnightblue" points="2424.42,-24.9589 2433.81,-20.0486 2423.41,-18.0326 2424.42,-24.9589"/>
</g>
<!-- Node6 -->
<g id="node11" class="node"><title>Node6</title>
<polygon fill="white" stroke="#bfbfbf" points="2311.5,-0.5 2311.5,-21.5 2416.5,-21.5 2416.5,-0.5 2311.5,-0.5"/>
<text text-anchor="middle" x="2364" y="-8.5" font-family="Helvetica,sans-Serif" font-size="10.00">ocra/control/Model.h</text>
</g>
<!-- Node4&#45;&gt;Node6 -->
<g id="edge10" class="edge"><title>Node4&#45;&gt;Node6</title>
<path fill="none" stroke="midnightblue" d="M1389.57,-174.266C1401.13,-148.622 1434.31,-83.9973 1485,-58 1563.58,-17.6995 2175.18,-31.2297 2301.42,-21.8452"/>
<polygon fill="midnightblue" stroke="midnightblue" points="2301.85,-25.3204 2311.49,-20.9308 2301.22,-18.3491 2301.85,-25.3204"/>
</g>
<!-- Node7 -->
<g id="node13" class="node"><title>Node7</title>
<polygon fill="white" stroke="#bfbfbf" points="2236,-0.5 2236,-21.5 2294,-21.5 2294,-0.5 2236,-0.5"/>
<text text-anchor="middle" x="2265" y="-8.5" font-family="Helvetica,sans-Serif" font-size="10.00">wbi/wbi.h</text>
</g>
<!-- Node4&#45;&gt;Node7 -->
<g id="edge12" class="edge"><title>Node4&#45;&gt;Node7</title>
<path fill="none" stroke="midnightblue" d="M1383.18,-174.394C1379.61,-149.595 1374.74,-87.6827 1409,-58 1475.74,-0.168006 2099.09,-34.5907 2225.63,-21.5432"/>
<polygon fill="midnightblue" stroke="midnightblue" points="2226.24,-24.9937 2235.7,-20.2283 2225.33,-18.0526 2226.24,-24.9937"/>
</g>
<!-- Node8 -->
<g id="node15" class="node"><title>Node8</title>
<polygon fill="white" stroke="#bfbfbf" points="214,-0.5 214,-21.5 290,-21.5 290,-0.5 214,-0.5"/>
<text text-anchor="middle" x="252" y="-8.5" font-family="Helvetica,sans-Serif" font-size="10.00">yarp/os/Log.h</text>
</g>
<!-- Node4&#45;&gt;Node8 -->
<g id="edge14" class="edge"><title>Node4&#45;&gt;Node8</title>
<path fill="none" stroke="midnightblue" d="M1318.97,-182.645C1148.58,-176.312 702.886,-158.035 639,-138 622.636,-132.868 523.062,-64.0114 507,-58 422.137,-26.239 392.934,-39.6893 300.261,-22.1179"/>
<polygon fill="midnightblue" stroke="midnightblue" points="300.666,-18.6306 290.179,-20.1325 299.314,-25.4987 300.666,-18.6306"/>
</g>
<!-- Node9 -->
<g id="node17" class="node"><title>Node9</title>
<a xlink:href="OcraWbiConversions_8h.html" target="_top" xlink:title="A utility class full of static conversion functions.">
<polygon fill="white" stroke="black" points="647.5,-116.5 647.5,-137.5 808.5,-137.5 808.5,-116.5 647.5,-116.5"/>
<text text-anchor="middle" x="728" y="-124.5" font-family="Helvetica,sans-Serif" font-size="10.00">ocra&#45;icub/OcraWbiConversions.h</text>
</a>
</g>
<!-- Node4&#45;&gt;Node9 -->
<g id="edge16" class="edge"><title>Node4&#45;&gt;Node9</title>
<path fill="none" stroke="midnightblue" d="M1319,-179.173C1200.86,-168.744 953.119,-146.874 818.965,-135.03"/>
<polygon fill="midnightblue" stroke="midnightblue" points="818.985,-131.519 808.716,-134.126 818.369,-138.492 818.985,-131.519"/>
</g>
<!-- Node15 -->
<g id="node31" class="node"><title>Node15</title>
<a xlink:href="Utilities_8h.html" target="_top" xlink:title="Some useful tools for the ocra&#45;icub lib.">
<polygon fill="white" stroke="black" points="1218.5,-58.5 1218.5,-79.5 1319.5,-79.5 1319.5,-58.5 1218.5,-58.5"/>
<text text-anchor="middle" x="1269" y="-66.5" font-family="Helvetica,sans-Serif" font-size="10.00">ocra&#45;icub/Utilities.h</text>
</a>
</g>
<!-- Node4&#45;&gt;Node15 -->
<g id="edge84" class="edge"><title>Node4&#45;&gt;Node15</title>
<path fill="none" stroke="midnightblue" d="M1374.29,-174.295C1354.35,-154.355 1311.34,-111.337 1286.91,-86.9056"/>
<polygon fill="midnightblue" stroke="midnightblue" points="1289.23,-84.2754 1279.68,-79.6792 1284.28,-89.2252 1289.23,-84.2754"/>
</g>
<!-- Node9&#45;&gt;Node7 -->
<g id="edge28" class="edge"><title>Node9&#45;&gt;Node7</title>
<path fill="none" stroke="midnightblue" d="M808.586,-124.605C948.991,-119.781 1232.61,-106.97 1328,-80 1348.66,-74.1595 1350.24,-63.4663 1371,-58 1552.06,-10.325 2023.11,-51.2819 2225.67,-21.7888"/>
<polygon fill="midnightblue" stroke="midnightblue" points="2226.36,-25.2251 2235.7,-20.2341 2225.28,-18.3078 2226.36,-25.2251"/>
</g>
<!-- Node9&#45;&gt;Node8 -->
<g id="edge26" class="edge"><title>Node9&#45;&gt;Node8</title>
<path fill="none" stroke="midnightblue" d="M687.767,-116.438C658.184,-108.081 617.325,-95.2926 583,-80 565.174,-72.0581 563.43,-64.4169 545,-58 443.704,-22.7307 409.559,-41.4309 300.267,-22.0754"/>
<polygon fill="midnightblue" stroke="midnightblue" points="300.63,-18.5835 290.162,-20.2163 299.364,-25.468 300.63,-18.5835"/>
</g>
<!-- Node10 -->
<g id="node19" class="node"><title>Node10</title>
<polygon fill="white" stroke="#bfbfbf" points="308,-0.5 308,-21.5 362,-21.5 362,-0.5 308,-0.5"/>
<text text-anchor="middle" x="335" y="-8.5" font-family="Helvetica,sans-Serif" font-size="10.00">iostream</text>
</g>
<!-- Node9&#45;&gt;Node10 -->
<g id="edge18" class="edge"><title>Node9&#45;&gt;Node10</title>
<path fill="none" stroke="midnightblue" d="M701.679,-116.398C679.786,-107.352 647.962,-93.6735 621,-80 603.595,-71.1734 601.355,-64.6275 583,-58 496.094,-26.6209 466.002,-42.839 371.947,-21.9514"/>
<polygon fill="midnightblue" stroke="midnightblue" points="372.556,-18.5 362.025,-19.6646 370.983,-25.3212 372.556,-18.5"/>
</g>
<!-- Node11 -->
<g id="node21" class="node"><title>Node11</title>
<polygon fill="white" stroke="#bfbfbf" points="710.5,-58.5 710.5,-79.5 745.5,-79.5 745.5,-58.5 710.5,-58.5"/>
<text text-anchor="middle" x="728" y="-66.5" font-family="Helvetica,sans-Serif" font-size="10.00">map</text>
</g>
<!-- Node9&#45;&gt;Node11 -->
<g id="edge20" class="edge"><title>Node9&#45;&gt;Node11</title>
<path fill="none" stroke="midnightblue" d="M728,-116.362C728,-108.922 728,-98.7427 728,-89.7276"/>
<polygon fill="midnightblue" stroke="midnightblue" points="731.5,-89.5706 728,-79.5707 724.5,-89.5707 731.5,-89.5706"/>
</g>
<!-- Node12 -->
<g id="node23" class="node"><title>Node12</title>
<polygon fill="white" stroke="#bfbfbf" points="380,-0.5 380,-21.5 424,-21.5 424,-0.5 380,-0.5"/>
<text text-anchor="middle" x="402" y="-8.5" font-family="Helvetica,sans-Serif" font-size="10.00">vector</text>
</g>
<!-- Node9&#45;&gt;Node12 -->
<g id="edge22" class="edge"><title>Node9&#45;&gt;Node12</title>
<path fill="none" stroke="midnightblue" d="M712.275,-116.385C684.966,-98.0211 630.747,-61.9039 621,-58 544.957,-27.5412 517.172,-43.027 434.082,-21.9457"/>
<polygon fill="midnightblue" stroke="midnightblue" points="434.785,-18.5115 424.223,-19.3407 432.997,-25.2792 434.785,-18.5115"/>
</g>
<!-- Node13 -->
<g id="node25" class="node"><title>Node13</title>
<polygon fill="white" stroke="#bfbfbf" points="441.5,-0.5 441.5,-21.5 532.5,-21.5 532.5,-0.5 441.5,-0.5"/>
<text text-anchor="middle" x="487" y="-8.5" font-family="Helvetica,sans-Serif" font-size="10.00">yarp/sig/Vector.h</text>
</g>
<!-- Node9&#45;&gt;Node13 -->
<g id="edge24" class="edge"><title>Node9&#45;&gt;Node13</title>
<path fill="none" stroke="midnightblue" d="M720.339,-116.415C708.77,-101.204 685.371,-73.3122 659,-58 639.235,-46.5236 585.046,-32.6494 542.721,-22.9618"/>
<polygon fill="midnightblue" stroke="midnightblue" points="543.32,-19.5089 532.794,-20.7159 541.775,-26.3363 543.32,-19.5089"/>
</g>
<!-- Node14 -->
<g id="node29" class="node"><title>Node14</title>
<polygon fill="white" stroke="#bfbfbf" points="763,-58.5 763,-79.5 1005,-79.5 1005,-58.5 763,-58.5"/>
<text text-anchor="middle" x="884" y="-66.5" font-family="Helvetica,sans-Serif" font-size="10.00">yarpWholeBodyInterface/yarpWholeBodyInterface.h</text>
</g>
<!-- Node9&#45;&gt;Node14 -->
<g id="edge30" class="edge"><title>Node9&#45;&gt;Node14</title>
<path fill="none" stroke="midnightblue" d="M756.25,-116.497C781.462,-107.123 818.576,-93.3242 846.312,-83.0122"/>
<polygon fill="midnightblue" stroke="midnightblue" points="847.543,-86.2886 855.697,-79.5231 845.104,-79.7274 847.543,-86.2886"/>
</g>
<!-- Node9&#45;&gt;Node15 -->
<g id="edge32" class="edge"><title>Node9&#45;&gt;Node15</title>
<path fill="none" stroke="midnightblue" d="M808.701,-118.348C917.945,-106.636 1110.45,-85.9985 1208.26,-75.5114"/>
<polygon fill="midnightblue" stroke="midnightblue" points="1208.72,-78.9831 1218.29,-74.4369 1207.97,-72.023 1208.72,-78.9831"/>
</g>
<!-- Node15&#45;&gt;Node5 -->
<g id="edge34" class="edge"><title>Node15&#45;&gt;Node5</title>
<path fill="none" stroke="midnightblue" d="M1319.62,-66.2417C1363.39,-63.8998 1428.36,-60.5268 1485,-58 1690.67,-48.8249 2203.19,-57.3862 2423.85,-21.729"/>
<polygon fill="midnightblue" stroke="midnightblue" points="2424.53,-25.1632 2433.81,-20.0533 2423.37,-18.2602 2424.53,-25.1632"/>
</g>
<!-- Node15&#45;&gt;Node6 -->
<g id="edge76" class="edge"><title>Node15&#45;&gt;Node6</title>
<path fill="none" stroke="midnightblue" d="M1319.51,-64.5632C1346.12,-62.3445 1379.31,-59.7636 1409,-58 1802.66,-34.6173 1906.01,-64.8782 2301.5,-22.0347"/>
<polygon fill="midnightblue" stroke="midnightblue" points="2301.93,-25.5084 2311.49,-20.9434 2301.17,-18.5498 2301.93,-25.5084"/>
</g>
<!-- Node15&#45;&gt;Node7 -->
<g id="edge74" class="edge"><title>Node15&#45;&gt;Node7</title>
<path fill="none" stroke="midnightblue" d="M1319.57,-59.6836C1324.1,-59.0382 1328.63,-58.4618 1333,-58 1725.17,-16.5789 1832.71,-84.6035 2225.77,-21.8431"/>
<polygon fill="midnightblue" stroke="midnightblue" points="2226.39,-25.2889 2235.7,-20.2395 2225.27,-18.3785 2226.39,-25.2889"/>
</g>
<!-- Node15&#45;&gt;Node8 -->
<g id="edge64" class="edge"><title>Node15&#45;&gt;Node8</title>
<path fill="none" stroke="midnightblue" d="M1218.26,-66.7975C1033.29,-58.7362 401.094,-30.8954 300.229,-21.6369"/>
<polygon fill="midnightblue" stroke="midnightblue" points="300.432,-18.1383 290.11,-20.5298 299.67,-25.0968 300.432,-18.1383"/>
</g>
<!-- Node15&#45;&gt;Node10 -->
<g id="edge38" class="edge"><title>Node15&#45;&gt;Node10</title>
<path fill="none" stroke="midnightblue" d="M1218.28,-66.6887C1042.88,-58.6521 467.871,-31.9369 372.527,-21.4749"/>
<polygon fill="midnightblue" stroke="midnightblue" points="372.725,-17.9702 362.349,-20.1102 371.795,-24.9082 372.725,-17.9702"/>
</g>
<!-- Node15&#45;&gt;Node12 -->
<g id="edge42" class="edge"><title>Node15&#45;&gt;Node12</title>
<path fill="none" stroke="midnightblue" d="M1218.49,-66.5575C1051.68,-58.4417 524.332,-32.3726 434.172,-21.2375"/>
<polygon fill="midnightblue" stroke="midnightblue" points="434.55,-17.7548 424.136,-19.7068 433.494,-24.6747 434.55,-17.7548"/>
</g>
<!-- Node15&#45;&gt;Node13 -->
<g id="edge70" class="edge"><title>Node15&#45;&gt;Node13</title>
<path fill="none" stroke="midnightblue" d="M1218.43,-66.6367C1079.18,-59.9892 691.19,-40.4881 542.851,-22.0668"/>
<polygon fill="midnightblue" stroke="midnightblue" points="542.957,-18.5515 532.591,-20.7425 542.061,-25.4939 542.957,-18.5515"/>
</g>
<!-- Node16 -->
<g id="node34" class="node"><title>Node16</title>
<polygon fill="white" stroke="#bfbfbf" points="1810,-0.5 1810,-21.5 1854,-21.5 1854,-0.5 1810,-0.5"/>
<text text-anchor="middle" x="1832" y="-8.5" font-family="Helvetica,sans-Serif" font-size="10.00">cmath</text>
</g>
<!-- Node15&#45;&gt;Node16 -->
<g id="edge36" class="edge"><title>Node15&#45;&gt;Node16</title>
<path fill="none" stroke="midnightblue" d="M1319.59,-59.8556C1324.12,-59.1735 1328.64,-58.5416 1333,-58 1536.79,-32.7047 1595.11,-64.2428 1799.98,-21.7306"/>
<polygon fill="midnightblue" stroke="midnightblue" points="1800.79,-25.1378 1809.85,-19.6497 1799.34,-18.2885 1800.79,-25.1378"/>
</g>
<!-- Node17 -->
<g id="node37" class="node"><title>Node17</title>
<polygon fill="white" stroke="#bfbfbf" points="1871.5,-0.5 1871.5,-21.5 1912.5,-21.5 1912.5,-0.5 1871.5,-0.5"/>
<text text-anchor="middle" x="1892" y="-8.5" font-family="Helvetica,sans-Serif" font-size="10.00">string</text>
</g>
<!-- Node15&#45;&gt;Node17 -->
<g id="edge40" class="edge"><title>Node15&#45;&gt;Node17</title>
<path fill="none" stroke="midnightblue" d="M1319.59,-59.8134C1324.11,-59.1404 1328.63,-58.5221 1333,-58 1564.11,-30.3637 1630.47,-71.2251 1861.27,-21.867"/>
<polygon fill="midnightblue" stroke="midnightblue" points="1862.29,-25.2274 1871.31,-19.6838 1860.8,-18.387 1862.29,-25.2274"/>
</g>
<!-- Node18 -->
<g id="node40" class="node"><title>Node18</title>
<polygon fill="white" stroke="#bfbfbf" points="1930,-0.5 1930,-21.5 1982,-21.5 1982,-0.5 1930,-0.5"/>
<text text-anchor="middle" x="1956" y="-8.5" font-family="Helvetica,sans-Serif" font-size="10.00">sstream</text>
</g>
<!-- Node15&#45;&gt;Node18 -->
<g id="edge44" class="edge"><title>Node15&#45;&gt;Node18</title>
<path fill="none" stroke="midnightblue" d="M1319.58,-59.782C1324.11,-59.1157 1328.63,-58.5075 1333,-58 1589.77,-28.1635 1661.72,-68.5524 1919.75,-21.8326"/>
<polygon fill="midnightblue" stroke="midnightblue" points="1920.6,-25.2362 1929.8,-19.9868 1919.33,-18.3514 1920.6,-25.2362"/>
</g>
<!-- Node19 -->
<g id="node42" class="node"><title>Node19</title>
<polygon fill="white" stroke="#bfbfbf" points="1999.5,-0.5 1999.5,-21.5 2114.5,-21.5 2114.5,-0.5 1999.5,-0.5"/>
<text text-anchor="middle" x="2057" y="-8.5" font-family="Helvetica,sans-Serif" font-size="10.00">yarp/os/BufferedPort.h</text>
</g>
<!-- Node15&#45;&gt;Node19 -->
<g id="edge46" class="edge"><title>Node15&#45;&gt;Node19</title>
<path fill="none" stroke="midnightblue" d="M1319.58,-59.7515C1324.11,-59.0916 1328.63,-58.4933 1333,-58 1620.76,-25.5084 1698.15,-53.4805 1989.45,-22.0682"/>
<polygon fill="midnightblue" stroke="midnightblue" points="1989.9,-25.5401 1999.46,-20.9747 1989.14,-18.5815 1989.9,-25.5401"/>
</g>
<!-- Node20 -->
<g id="node44" class="node"><title>Node20</title>
<polygon fill="white" stroke="#bfbfbf" points="2132,-0.5 2132,-21.5 2218,-21.5 2218,-0.5 2132,-0.5"/>
<text text-anchor="middle" x="2175" y="-8.5" font-family="Helvetica,sans-Serif" font-size="10.00">yarp/os/Bottle.h</text>
</g>
<!-- Node15&#45;&gt;Node20 -->
<g id="edge48" class="edge"><title>Node15&#45;&gt;Node20</title>
<path fill="none" stroke="midnightblue" d="M1319.57,-59.7085C1324.1,-59.0578 1328.63,-58.4734 1333,-58 1679.11,-20.5184 1772.58,-65.6429 2121.82,-21.953"/>
<polygon fill="midnightblue" stroke="midnightblue" points="2122.48,-25.3972 2131.96,-20.6683 2121.6,-18.4527 2122.48,-25.3972"/>
</g>
<!-- Node15&#45;&gt;Node21 -->
<g id="edge50" class="edge"><title>Node15&#45;&gt;Node21</title>
<path fill="none" stroke="midnightblue" d="M1218.2,-66.7651C1166.74,-64.5113 1084.84,-60.9525 1014,-58 619.548,-41.5591 516.601,-63.4366 120.789,-22.0799"/>
<polygon fill="midnightblue" stroke="midnightblue" points="121.099,-18.5933 110.788,-21.028 120.367,-25.5549 121.099,-18.5933"/>
</g>
<!-- Node22 -->
<g id="node48" class="node"><title>Node22</title>
<polygon fill="white" stroke="#bfbfbf" points="549.5,-0.5 549.5,-21.5 678.5,-21.5 678.5,-0.5 549.5,-0.5"/>
<text text-anchor="middle" x="614" y="-8.5" font-family="Helvetica,sans-Serif" font-size="10.00">yarp/os/ResourceFinder.h</text>
</g>
<!-- Node15&#45;&gt;Node22 -->
<g id="edge52" class="edge"><title>Node15&#45;&gt;Node22</title>
<path fill="none" stroke="midnightblue" d="M1218.28,-66.0853C1118.74,-60.1082 890.601,-45.1457 689.033,-22.1789"/>
<polygon fill="midnightblue" stroke="midnightblue" points="689.182,-18.673 678.848,-21.0089 688.383,-25.6273 689.182,-18.673"/>
</g>
<!-- Node23 -->
<g id="node50" class="node"><title>Node23</title>
<polygon fill="white" stroke="#bfbfbf" points="696,-0.5 696,-21.5 806,-21.5 806,-0.5 696,-0.5"/>
<text text-anchor="middle" x="751" y="-8.5" font-family="Helvetica,sans-Serif" font-size="10.00">yarp/os/PortReader.h</text>
</g>
<!-- Node15&#45;&gt;Node23 -->
<g id="edge54" class="edge"><title>Node15&#45;&gt;Node23</title>
<path fill="none" stroke="midnightblue" d="M1218.48,-64.8842C1136.32,-57.9462 968.427,-42.754 816.13,-22.0848"/>
<polygon fill="midnightblue" stroke="midnightblue" points="816.504,-18.6035 806.122,-20.7155 815.555,-25.5389 816.504,-18.6035"/>
</g>
<!-- Node24 -->
<g id="node52" class="node"><title>Node24</title>
<polygon fill="white" stroke="#bfbfbf" points="824,-0.5 824,-21.5 928,-21.5 928,-0.5 824,-0.5"/>
<text text-anchor="middle" x="876" y="-8.5" font-family="Helvetica,sans-Serif" font-size="10.00">yarp/os/RpcClient.h</text>
</g>
<!-- Node15&#45;&gt;Node24 -->
<g id="edge56" class="edge"><title>Node15&#45;&gt;Node24</title>
<path fill="none" stroke="midnightblue" d="M1218.29,-62.4268C1155.13,-54.1056 1043.67,-38.9802 938.389,-22.1815"/>
<polygon fill="midnightblue" stroke="midnightblue" points="938.649,-18.6787 928.221,-20.5508 937.541,-25.5903 938.649,-18.6787"/>
</g>
<!-- Node25 -->
<g id="node54" class="node"><title>Node25</title>
<polygon fill="white" stroke="#bfbfbf" points="945.5,-0.5 945.5,-21.5 1052.5,-21.5 1052.5,-0.5 945.5,-0.5"/>
<text text-anchor="middle" x="999" y="-8.5" font-family="Helvetica,sans-Serif" font-size="10.00">yarp/os/RpcServer.h</text>
</g>
<!-- Node15&#45;&gt;Node25 -->
<g id="edge58" class="edge"><title>Node15&#45;&gt;Node25</title>
<path fill="none" stroke="midnightblue" d="M1220.11,-58.4966C1174.56,-48.7136 1106.58,-34.1107 1058.04,-23.6819"/>
<polygon fill="midnightblue" stroke="midnightblue" points="1058.5,-20.2014 1047.99,-21.5231 1057.03,-27.0453 1058.5,-20.2014"/>
</g>
<!-- Node26 -->
<g id="node56" class="node"><title>Node26</title>
<polygon fill="white" stroke="#bfbfbf" points="1069.5,-0.5 1069.5,-21.5 1210.5,-21.5 1210.5,-0.5 1069.5,-0.5"/>
<text text-anchor="middle" x="1140" y="-8.5" font-family="Helvetica,sans-Serif" font-size="10.00">yarp/os/ConnectionReader.h</text>
</g>
<!-- Node15&#45;&gt;Node26 -->
<g id="edge60" class="edge"><title>Node15&#45;&gt;Node26</title>
<path fill="none" stroke="midnightblue" d="M1245.64,-58.4966C1225.31,-49.3562 1195.62,-36.0082 1172.89,-25.7883"/>
<polygon fill="midnightblue" stroke="midnightblue" points="1174.18,-22.5298 1163.62,-21.6212 1171.31,-28.9142 1174.18,-22.5298"/>
</g>
<!-- Node27 -->
<g id="node58" class="node"><title>Node27</title>
<polygon fill="white" stroke="#bfbfbf" points="1228,-0.5 1228,-21.5 1310,-21.5 1310,-0.5 1228,-0.5"/>
<text text-anchor="middle" x="1269" y="-8.5" font-family="Helvetica,sans-Serif" font-size="10.00">yarp/os/Time.h</text>
</g>
<!-- Node15&#45;&gt;Node27 -->
<g id="edge62" class="edge"><title>Node15&#45;&gt;Node27</title>
<path fill="none" stroke="midnightblue" d="M1269,-58.3619C1269,-50.9219 1269,-40.7427 1269,-31.7276"/>
<polygon fill="midnightblue" stroke="midnightblue" points="1272.5,-31.5706 1269,-21.5707 1265.5,-31.5707 1272.5,-31.5706"/>
</g>
<!-- Node28 -->
<g id="node61" class="node"><title>Node28</title>
<polygon fill="white" stroke="#bfbfbf" points="1327.5,-0.5 1327.5,-21.5 1434.5,-21.5 1434.5,-0.5 1327.5,-0.5"/>
<text text-anchor="middle" x="1381" y="-8.5" font-family="Helvetica,sans-Serif" font-size="10.00">yarp/os/LogStream.h</text>
</g>
<!-- Node15&#45;&gt;Node28 -->
<g id="edge66" class="edge"><title>Node15&#45;&gt;Node28</title>
<path fill="none" stroke="midnightblue" d="M1289.28,-58.4966C1306.62,-49.5194 1331.79,-36.4835 1351.38,-26.3387"/>
<polygon fill="midnightblue" stroke="midnightblue" points="1353.22,-29.3278 1360.49,-21.6212 1350,-23.1118 1353.22,-29.3278"/>
</g>
<!-- Node29 -->
<g id="node63" class="node"><title>Node29</title>
<polygon fill="white" stroke="#bfbfbf" points="1451.5,-0.5 1451.5,-21.5 1548.5,-21.5 1548.5,-0.5 1451.5,-0.5"/>
<text text-anchor="middle" x="1500" y="-8.5" font-family="Helvetica,sans-Serif" font-size="10.00">yarp/os/Property.h</text>
</g>
<!-- Node15&#45;&gt;Node29 -->
<g id="edge68" class="edge"><title>Node15&#45;&gt;Node29</title>
<path fill="none" stroke="midnightblue" d="M1310.83,-58.4966C1349.39,-48.8159 1406.74,-34.4156 1448.18,-24.0105"/>
<polygon fill="midnightblue" stroke="midnightblue" points="1449.24,-27.353 1458.09,-21.5231 1447.54,-20.5637 1449.24,-27.353"/>
</g>
<!-- Node30 -->
<g id="node66" class="node"><title>Node30</title>
<polygon fill="white" stroke="#bfbfbf" points="1565.5,-0.5 1565.5,-21.5 1654.5,-21.5 1654.5,-0.5 1565.5,-0.5"/>
<text text-anchor="middle" x="1610" y="-8.5" font-family="Helvetica,sans-Serif" font-size="10.00">yarp/sig/Matrix.h</text>
</g>
<!-- Node15&#45;&gt;Node30 -->
<g id="edge72" class="edge"><title>Node15&#45;&gt;Node30</title>
<path fill="none" stroke="midnightblue" d="M1319.65,-60.2428C1324.16,-59.478 1328.66,-58.7213 1333,-58 1429.36,-41.9765 1456.17,-40.3407 1555.64,-22.1975"/>
<polygon fill="midnightblue" stroke="midnightblue" points="1556.29,-25.6363 1565.5,-20.3892 1555.03,-18.7512 1556.29,-25.6363"/>
</g>
<!-- Node31 -->
<g id="node70" class="node"><title>Node31</title>
<polygon fill="white" stroke="#bfbfbf" points="1671.5,-0.5 1671.5,-21.5 1792.5,-21.5 1792.5,-0.5 1671.5,-0.5"/>
<text text-anchor="middle" x="1732" y="-8.5" font-family="Helvetica,sans-Serif" font-size="10.00">ocra/util/StringUtilities.h</text>
</g>
<!-- Node15&#45;&gt;Node31 -->
<g id="edge78" class="edge"><title>Node15&#45;&gt;Node31</title>
<path fill="none" stroke="midnightblue" d="M1319.61,-60.0054C1324.13,-59.2913 1328.65,-58.6111 1333,-58 1475.82,-37.9551 1515.03,-41.4466 1661.2,-22.1914"/>
<polygon fill="midnightblue" stroke="midnightblue" points="1661.99,-25.6163 1671.44,-20.8276 1661.07,-18.6775 1661.99,-25.6163"/>
</g>
<!-- Node15&#45;&gt;Node32 -->
<g id="edge80" class="edge"><title>Node15&#45;&gt;Node32</title>
<path fill="none" stroke="midnightblue" d="M1319.6,-66.7154C1370.86,-64.4229 1452.44,-60.8347 1523,-58 1951.57,-40.7835 2065.07,-80.9943 2493.11,-22.0299"/>
<polygon fill="midnightblue" stroke="midnightblue" points="2493.86,-25.46 2503.28,-20.6185 2492.89,-18.5264 2493.86,-25.46"/>
</g>
<!-- Node15&#45;&gt;Node33 -->
<g id="edge82" class="edge"><title>Node15&#45;&gt;Node33</title>
<path fill="none" stroke="midnightblue" d="M1218.37,-66.7984C1019.86,-58.1618 301.173,-26.8548 206.285,-21.1568"/>
<polygon fill="midnightblue" stroke="midnightblue" points="206.368,-17.6535 196.138,-20.41 205.854,-24.6347 206.368,-17.6535"/>
</g>
<!-- Node36 -->
<g id="node84" class="node"><title>Node36</title>
<a xlink:href="ShapeConstraints_8h.html" target="_top" xlink:title="walking&#45;client/constraints/ShapeConstraints.h">
<polygon fill="white" stroke="black" points="2045,-290.5 2045,-311.5 2261,-311.5 2261,-290.5 2045,-290.5"/>
<text text-anchor="middle" x="2153" y="-298.5" font-family="Helvetica,sans-Serif" font-size="10.00">walking&#45;client/constraints/ShapeConstraints.h</text>
</a>
</g>
<!-- Node35&#45;&gt;Node36 -->
<g id="edge96" class="edge"><title>Node35&#45;&gt;Node36</title>
<path fill="none" stroke="midnightblue" d="M1930.26,-348.497C1976.23,-338.693 2044.91,-324.05 2093.83,-313.616"/>
<polygon fill="midnightblue" stroke="midnightblue" points="2094.6,-317.032 2103.65,-311.523 2093.14,-310.186 2094.6,-317.032"/>
</g>
<!-- Node42 -->
<g id="node102" class="node"><title>Node42</title>
<a xlink:href="AdmissibilityConstraints_8h.html" target="_top" xlink:title="walking&#45;client/constraints/AdmissibilityConstraints.h">
<polygon fill="white" stroke="black" points="2742,-290.5 2742,-311.5 2986,-311.5 2986,-290.5 2742,-290.5"/>
<text text-anchor="middle" x="2864" y="-298.5" font-family="Helvetica,sans-Serif" font-size="10.00">walking&#45;client/constraints/AdmissibilityConstraints.h</text>
</a>
</g>
<!-- Node35&#45;&gt;Node42 -->
<g id="edge120" class="edge"><title>Node35&#45;&gt;Node42</title>
<path fill="none" stroke="midnightblue" d="M2001.04,-351.917C2186.08,-340.999 2539.67,-320.137 2731.8,-308.8"/>
<polygon fill="midnightblue" stroke="midnightblue" points="2732.18,-312.284 2741.95,-308.201 2731.76,-305.296 2732.18,-312.284"/>
</g>
<!-- Node47 -->
<g id="node117" class="node"><title>Node47</title>
<a xlink:href="StepController_8h.html" target="_top" xlink:title="walking&#45;client/StepController.h">
<polygon fill="white" stroke="red" points="1698.5,-232.5 1698.5,-253.5 1847.5,-253.5 1847.5,-232.5 1698.5,-232.5"/>
<text text-anchor="middle" x="1773" y="-240.5" font-family="Helvetica,sans-Serif" font-size="10.00">walking&#45;client/StepController.h</text>
</a>
</g>
<!-- Node35&#45;&gt;Node47 -->
<g id="edge140" class="edge"><title>Node35&#45;&gt;Node47</title>
<path fill="none" stroke="midnightblue" d="M1880.64,-348.488C1879.63,-333.865 1875.85,-307.241 1862,-290 1850.38,-275.538 1833.09,-264.988 1816.84,-257.593"/>
<polygon fill="midnightblue" stroke="midnightblue" points="1818.01,-254.287 1807.43,-253.597 1815.27,-260.729 1818.01,-254.287"/>
</g>
<!-- Node48 -->
<g id="node120" class="node"><title>Node48</title>
<a xlink:href="BaseOfSupport_8h.html" target="_top" xlink:title="walking&#45;client/BaseOfSupport.h">
<polygon fill="white" stroke="red" points="1699,-290.5 1699,-311.5 1853,-311.5 1853,-290.5 1699,-290.5"/>
<text text-anchor="middle" x="1776" y="-298.5" font-family="Helvetica,sans-Serif" font-size="10.00">walking&#45;client/BaseOfSupport.h</text>
</a>
</g>
<!-- Node35&#45;&gt;Node48 -->
<g id="edge144" class="edge"><title>Node35&#45;&gt;Node48</title>
<path fill="none" stroke="midnightblue" d="M1861.74,-348.362C1845.53,-339.409 1822.15,-326.491 1803.89,-316.406"/>
<polygon fill="midnightblue" stroke="midnightblue" points="1805.58,-313.342 1795.14,-311.571 1802.2,-319.47 1805.58,-313.342"/>
</g>
<!-- Node37 -->
<g id="node86" class="node"><title>Node37</title>
<a xlink:href="Constraint_8h.html" target="_top" xlink:title="A constraint base class.">
<polygon fill="white" stroke="red" points="2393.5,-174.5 2393.5,-195.5 2576.5,-195.5 2576.5,-174.5 2393.5,-174.5"/>
<text text-anchor="middle" x="2485" y="-182.5" font-family="Helvetica,sans-Serif" font-size="10.00">walking&#45;client/constraints/Constraint.h</text>
</a>
</g>
<!-- Node36&#45;&gt;Node37 -->
<g id="edge98" class="edge"><title>Node36&#45;&gt;Node37</title>
<path fill="none" stroke="midnightblue" d="M2261.29,-297.09C2339.41,-292.042 2436.14,-280.481 2466,-254 2479.46,-242.058 2483.77,-221.541 2484.98,-205.975"/>
<polygon fill="midnightblue" stroke="midnightblue" points="2488.49,-205.842 2485.39,-195.709 2481.49,-205.56 2488.49,-205.842"/>
</g>
<!-- Node39 -->
<g id="node93" class="node"><title>Node39</title>
<a xlink:href="Bounding_8h.html" target="_top" xlink:title="walking&#45;client/constraints/Bounding.h">
<polygon fill="white" stroke="black" points="1864.5,-232.5 1864.5,-253.5 2043.5,-253.5 2043.5,-232.5 1864.5,-232.5"/>
<text text-anchor="middle" x="1954" y="-240.5" font-family="Helvetica,sans-Serif" font-size="10.00">walking&#45;client/constraints/Bounding.h</text>
</a>
</g>
<!-- Node36&#45;&gt;Node39 -->
<g id="edge108" class="edge"><title>Node36&#45;&gt;Node39</title>
<path fill="none" stroke="midnightblue" d="M2116.96,-290.497C2084.1,-280.918 2035.38,-266.72 1999.78,-256.342"/>
<polygon fill="midnightblue" stroke="midnightblue" points="2000.68,-252.961 1990.1,-253.523 1998.73,-259.681 2000.68,-252.961"/>
</g>
<!-- Node40 -->
<g id="node96" class="node"><title>Node40</title>
<a xlink:href="Constancy_8h.html" target="_top" xlink:title="walking&#45;client/constraints/Constancy.h">
<polygon fill="white" stroke="black" points="2060.5,-232.5 2060.5,-253.5 2245.5,-253.5 2245.5,-232.5 2060.5,-232.5"/>
<text text-anchor="middle" x="2153" y="-240.5" font-family="Helvetica,sans-Serif" font-size="10.00">walking&#45;client/constraints/Constancy.h</text>
</a>
</g>
<!-- Node36&#45;&gt;Node40 -->
<g id="edge112" class="edge"><title>Node36&#45;&gt;Node40</title>
<path fill="none" stroke="midnightblue" d="M2153,-290.362C2153,-282.922 2153,-272.743 2153,-263.728"/>
<polygon fill="midnightblue" stroke="midnightblue" points="2156.5,-263.571 2153,-253.571 2149.5,-263.571 2156.5,-263.571"/>
</g>
<!-- Node41 -->
<g id="node99" class="node"><title>Node41</title>
<a xlink:href="Sequentiality_8h.html" target="_top" xlink:title="walking&#45;client/constraints/Sequentiality.h">
<polygon fill="white" stroke="black" points="2263,-232.5 2263,-253.5 2457,-253.5 2457,-232.5 2263,-232.5"/>
<text text-anchor="middle" x="2360" y="-240.5" font-family="Helvetica,sans-Serif" font-size="10.00">walking&#45;client/constraints/Sequentiality.h</text>
</a>
</g>
<!-- Node36&#45;&gt;Node41 -->
<g id="edge116" class="edge"><title>Node36&#45;&gt;Node41</title>
<path fill="none" stroke="midnightblue" d="M2190.49,-290.497C2224.67,-280.918 2275.35,-266.72 2312.38,-256.342"/>
<polygon fill="midnightblue" stroke="midnightblue" points="2313.76,-259.591 2322.44,-253.523 2311.87,-252.851 2313.76,-259.591"/>
</g>
<!-- Node37&#45;&gt;Node3 -->
<g id="edge100" class="edge"><title>Node37&#45;&gt;Node3</title>
<path fill="none" stroke="midnightblue" d="M2393.29,-177.358C2249.68,-165.39 1975.39,-142.533 1851.95,-132.246"/>
<polygon fill="midnightblue" stroke="midnightblue" points="1852.16,-128.751 1841.9,-131.409 1851.58,-135.727 1852.16,-128.751"/>
</g>
<!-- Node37&#45;&gt;Node5 -->
<g id="edge106" class="edge"><title>Node37&#45;&gt;Node5</title>
<path fill="none" stroke="midnightblue" d="M2483.47,-174.377C2479.44,-146.293 2468.43,-69.6735 2463.05,-32.2027"/>
<polygon fill="midnightblue" stroke="midnightblue" points="2466.46,-31.3283 2461.57,-21.9277 2459.53,-32.3239 2466.46,-31.3283"/>
</g>
<!-- Node37&#45;&gt;Node34 -->
<g id="edge102" class="edge"><title>Node37&#45;&gt;Node34</title>
<path fill="none" stroke="midnightblue" d="M2576.74,-175.713C2682.41,-165.018 2855.19,-147.528 2962.44,-136.672"/>
<polygon fill="midnightblue" stroke="midnightblue" points="2963.02,-140.132 2972.61,-135.643 2962.31,-133.168 2963.02,-140.132"/>
</g>
<!-- Node38 -->
<g id="node90" class="node"><title>Node38</title>
<polygon fill="white" stroke="#bfbfbf" points="1602.5,-116.5 1602.5,-137.5 1719.5,-137.5 1719.5,-116.5 1602.5,-116.5"/>
<text text-anchor="middle" x="1661" y="-124.5" font-family="Helvetica,sans-Serif" font-size="10.00">ocra/util/ErrorsHelper.h</text>
</g>
<!-- Node37&#45;&gt;Node38 -->
<g id="edge104" class="edge"><title>Node37&#45;&gt;Node38</title>
<path fill="none" stroke="midnightblue" d="M2393.27,-182.286C2252.56,-177.46 1974.85,-165.321 1729.94,-138.133"/>
<polygon fill="midnightblue" stroke="midnightblue" points="1730.11,-134.63 1719.78,-136.994 1729.33,-141.586 1730.11,-134.63"/>
</g>
<!-- Node39&#45;&gt;Node37 -->
<g id="edge110" class="edge"><title>Node39&#45;&gt;Node37</title>
<path fill="none" stroke="midnightblue" d="M2043.72,-232.916C2046.51,-232.607 2049.28,-232.301 2052,-232 2165.44,-219.477 2295.63,-205.383 2383.39,-195.924"/>
<polygon fill="midnightblue" stroke="midnightblue" points="2383.77,-199.402 2393.34,-194.851 2383.02,-192.443 2383.77,-199.402"/>
</g>
<!-- Node40&#45;&gt;Node37 -->
<g id="edge114" class="edge"><title>Node40&#45;&gt;Node37</title>
<path fill="none" stroke="midnightblue" d="M2213.12,-232.497C2269.83,-222.591 2354.81,-207.743 2414.64,-197.291"/>
<polygon fill="midnightblue" stroke="midnightblue" points="2415.52,-200.692 2424.76,-195.523 2414.31,-193.796 2415.52,-200.692"/>
</g>
<!-- Node41&#45;&gt;Node37 -->
<g id="edge118" class="edge"><title>Node41&#45;&gt;Node37</title>
<path fill="none" stroke="midnightblue" d="M2382.64,-232.497C2402.25,-223.397 2430.85,-210.127 2452.83,-199.925"/>
<polygon fill="midnightblue" stroke="midnightblue" points="2454.51,-203.005 2462.11,-195.621 2451.57,-196.655 2454.51,-203.005"/>
</g>
<!-- Node42&#45;&gt;Node37 -->
<g id="edge122" class="edge"><title>Node42&#45;&gt;Node37</title>
<path fill="none" stroke="midnightblue" d="M2854.34,-290.321C2839.55,-274.726 2809.67,-246.052 2778,-232 2744.45,-217.114 2657.47,-204.238 2586.94,-195.746"/>
<polygon fill="midnightblue" stroke="midnightblue" points="2587,-192.229 2576.66,-194.525 2586.18,-199.18 2587,-192.229"/>
</g>
<!-- Node43 -->
<g id="node105" class="node"><title>Node43</title>
<a xlink:href="SSDSAlternation_8h.html" target="_top" xlink:title="walking&#45;client/constraints/SSDSAlternation.h">
<polygon fill="white" stroke="black" points="2825,-232.5 2825,-253.5 3037,-253.5 3037,-232.5 2825,-232.5"/>
<text text-anchor="middle" x="2931" y="-240.5" font-family="Helvetica,sans-Serif" font-size="10.00">walking&#45;client/constraints/SSDSAlternation.h</text>
</a>
</g>
<!-- Node42&#45;&gt;Node43 -->
<g id="edge124" class="edge"><title>Node42&#45;&gt;Node43</title>
<path fill="none" stroke="midnightblue" d="M2876.29,-290.362C2886.02,-281.941 2899.8,-270.011 2911.1,-260.231"/>
<polygon fill="midnightblue" stroke="midnightblue" points="2913.52,-262.762 2918.79,-253.571 2908.94,-257.469 2913.52,-262.762"/>
</g>
<!-- Node44 -->
<g id="node108" class="node"><title>Node44</title>
<a xlink:href="SingleSupport_8h.html" target="_top" xlink:title="walking&#45;client/constraints/SingleSupport.h">
<polygon fill="white" stroke="black" points="3054.5,-232.5 3054.5,-253.5 3253.5,-253.5 3253.5,-232.5 3054.5,-232.5"/>
<text text-anchor="middle" x="3154" y="-240.5" font-family="Helvetica,sans-Serif" font-size="10.00">walking&#45;client/constraints/SingleSupport.h</text>
</a>
</g>
<!-- Node42&#45;&gt;Node44 -->
<g id="edge128" class="edge"><title>Node42&#45;&gt;Node44</title>
<path fill="none" stroke="midnightblue" d="M2916.52,-290.497C2965.74,-280.652 3039.36,-265.927 3091.57,-255.486"/>
<polygon fill="midnightblue" stroke="midnightblue" points="3092.27,-258.916 3101.38,-253.523 3090.89,-252.052 3092.27,-258.916"/>
</g>
<!-- Node45 -->
<g id="node111" class="node"><title>Node45</title>
<a xlink:href="ContactConfigHistory_8h.html" target="_top" xlink:title="walking&#45;client/constraints/ContactConfigHistory.h">
<polygon fill="white" stroke="black" points="3270.5,-232.5 3270.5,-253.5 3503.5,-253.5 3503.5,-232.5 3270.5,-232.5"/>
<text text-anchor="middle" x="3387" y="-240.5" font-family="Helvetica,sans-Serif" font-size="10.00">walking&#45;client/constraints/ContactConfigHistory.h</text>
</a>
</g>
<!-- Node42&#45;&gt;Node45 -->
<g id="edge132" class="edge"><title>Node42&#45;&gt;Node45</title>
<path fill="none" stroke="midnightblue" d="M2958.71,-290.497C3049.88,-280.386 3187.47,-265.128 3281.96,-254.649"/>
<polygon fill="midnightblue" stroke="midnightblue" points="3282.56,-258.104 3292.11,-253.523 3281.79,-251.147 3282.56,-258.104"/>
</g>
<!-- Node46 -->
<g id="node114" class="node"><title>Node46</title>
<a xlink:href="ContactConfigEnforcement_8h.html" target="_top" xlink:title="walking&#45;client/constraints/ContactConfigEnforcement.h">
<polygon fill="white" stroke="black" points="2512.5,-232.5 2512.5,-253.5 2769.5,-253.5 2769.5,-232.5 2512.5,-232.5"/>
<text text-anchor="middle" x="2641" y="-240.5" font-family="Helvetica,sans-Serif" font-size="10.00">walking&#45;client/constraints/ContactConfigEnforcement.h</text>
</a>
</g>
<!-- Node42&#45;&gt;Node46 -->
<g id="edge136" class="edge"><title>Node42&#45;&gt;Node46</title>
<path fill="none" stroke="midnightblue" d="M2823.62,-290.497C2786.47,-280.836 2731.26,-266.477 2691.28,-256.077"/>
<polygon fill="midnightblue" stroke="midnightblue" points="2692.02,-252.653 2681.46,-253.523 2690.26,-259.428 2692.02,-252.653"/>
</g>
<!-- Node43&#45;&gt;Node37 -->
<g id="edge126" class="edge"><title>Node43&#45;&gt;Node37</title>
<path fill="none" stroke="midnightblue" d="M2850.23,-232.497C2772.96,-222.448 2656.58,-207.313 2576.05,-196.84"/>
<polygon fill="midnightblue" stroke="midnightblue" points="2576.29,-193.342 2565.92,-195.523 2575.38,-200.284 2576.29,-193.342"/>
</g>
<!-- Node44&#45;&gt;Node37 -->
<g id="edge130" class="edge"><title>Node44&#45;&gt;Node37</title>
<path fill="none" stroke="midnightblue" d="M3054.26,-232.776C3051.48,-232.512 3048.72,-232.253 3046,-232 2885.64,-217.117 2699.29,-201.921 2586.85,-192.981"/>
<polygon fill="midnightblue" stroke="midnightblue" points="2587.12,-189.492 2576.87,-192.189 2586.57,-196.47 2587.12,-189.492"/>
</g>
<!-- Node45&#45;&gt;Node37 -->
<g id="edge134" class="edge"><title>Node45&#45;&gt;Node37</title>
<path fill="none" stroke="midnightblue" d="M3270.24,-232.623C3267.46,-232.41 3264.72,-232.202 3262,-232 3019.92,-214.03 2735.02,-198.139 2586.57,-190.256"/>
<polygon fill="midnightblue" stroke="midnightblue" points="2586.73,-186.759 2576.56,-189.725 2586.36,-193.749 2586.73,-186.759"/>
</g>
<!-- Node46&#45;&gt;Node37 -->
<g id="edge138" class="edge"><title>Node46&#45;&gt;Node37</title>
<path fill="none" stroke="midnightblue" d="M2612.75,-232.497C2587.54,-223.123 2550.42,-209.324 2522.69,-199.012"/>
<polygon fill="midnightblue" stroke="midnightblue" points="2523.9,-195.727 2513.3,-195.523 2521.46,-202.289 2523.9,-195.727"/>
</g>
<!-- Node47&#45;&gt;Node3 -->
<g id="edge142" class="edge"><title>Node47&#45;&gt;Node3</title>
<path fill="none" stroke="midnightblue" d="M1774.48,-232.295C1777.12,-213.131 1782.7,-172.654 1786.13,-147.843"/>
<polygon fill="midnightblue" stroke="midnightblue" points="1789.63,-148.064 1787.53,-137.679 1782.69,-147.107 1789.63,-148.064"/>
</g>
<!-- Node48&#45;&gt;Node47 -->
<g id="edge158" class="edge"><title>Node48&#45;&gt;Node47</title>
<path fill="none" stroke="midnightblue" d="M1775.45,-290.362C1775.06,-282.922 1774.54,-272.743 1774.07,-263.728"/>
<polygon fill="midnightblue" stroke="midnightblue" points="1777.56,-263.376 1773.55,-253.571 1770.57,-263.738 1777.56,-263.376"/>
</g>
<!-- Node48&#45;&gt;Node49 -->
<g id="edge146" class="edge"><title>Node48&#45;&gt;Node49</title>
<path fill="none" stroke="midnightblue" d="M1739.6,-290.497C1706.41,-280.918 1657.2,-266.72 1621.24,-256.342"/>
<polygon fill="midnightblue" stroke="midnightblue" points="1622.05,-252.933 1611.47,-253.523 1620.11,-259.658 1622.05,-252.933"/>
</g>
<!-- Node49&#45;&gt;Node3 -->
<g id="edge154" class="edge"><title>Node49&#45;&gt;Node3</title>
<path fill="none" stroke="midnightblue" d="M1588.32,-232.433C1606.95,-217.982 1642.19,-191.818 1675,-174 1698.6,-161.184 1726.44,-149.644 1748.7,-141.205"/>
<polygon fill="midnightblue" stroke="midnightblue" points="1750.04,-144.442 1758.19,-137.669 1747.59,-137.883 1750.04,-144.442"/>
</g>
<!-- Node49&#45;&gt;Node4 -->
<g id="edge150" class="edge"><title>Node49&#45;&gt;Node4</title>
<path fill="none" stroke="midnightblue" d="M1540.59,-232.497C1509.35,-222.959 1463.1,-208.841 1429.14,-198.475"/>
<polygon fill="midnightblue" stroke="midnightblue" points="1430.06,-195.095 1419.47,-195.523 1428.01,-201.79 1430.06,-195.095"/>
</g>
<!-- Node49&#45;&gt;Node15 -->
<g id="edge156" class="edge"><title>Node49&#45;&gt;Node15</title>
<path fill="none" stroke="midnightblue" d="M1557.59,-232.272C1535.17,-218.524 1494.93,-194.068 1460,-174 1402.99,-141.24 1335.37,-104.574 1297.81,-84.3997"/>
<polygon fill="midnightblue" stroke="midnightblue" points="1299.4,-81.2814 1288.93,-79.6384 1296.09,-87.4499 1299.4,-81.2814"/>
</g>
<!-- Node49&#45;&gt;Node32 -->
<g id="edge148" class="edge"><title>Node49&#45;&gt;Node32</title>
<path fill="none" stroke="midnightblue" d="M1572.77,-232.222C1568.37,-207.6 1561.62,-146.972 1594,-116 1737.21,20.9668 2279.35,-53.9914 2493.31,-22.0191"/>
<polygon fill="midnightblue" stroke="midnightblue" points="2493.93,-25.4638 2503.25,-20.4145 2492.82,-18.5533 2493.93,-25.4638"/>
</g>
<!-- Node49&#45;&gt;Node38 -->
<g id="edge152" class="edge"><title>Node49&#45;&gt;Node38</title>
<path fill="none" stroke="midnightblue" d="M1582.94,-232.295C1597.53,-212.613 1628.79,-170.45 1647.01,-145.867"/>
<polygon fill="midnightblue" stroke="midnightblue" points="1649.94,-147.797 1653.08,-137.679 1644.32,-143.628 1649.94,-147.797"/>
</g>
</g>
</svg>
