<?xml version="1.0" encoding="UTF-8" standalone="no"?>
<!DOCTYPE svg PUBLIC "-//W3C//DTD SVG 1.1//EN"
 "http://www.w3.org/Graphics/SVG/1.1/DTD/svg11.dtd">
<!-- Generated by graphviz version 2.26.3 (20100126.1600)
 -->
<!-- Title: G Pages: 1 -->
<svg width="4288pt" height="320pt"
 viewBox="0.00 0.00 4287.92 320.00" xmlns="http://www.w3.org/2000/svg" xmlns:xlink="http://www.w3.org/1999/xlink">
<g id="graph1" class="graph" transform="scale(1 1) rotate(0) translate(4 316)">
<title>G</title>
<polygon fill="white" stroke="white" points="-4,5 -4,-316 4284.92,-316 4284.92,5 -4,5"/>
<!-- Node1 -->
<g id="node1" class="node"><title>Node1</title>
<polygon fill="#bfbfbf" stroke="black" points="2367,-290.5 2367,-311.5 2765,-311.5 2765,-290.5 2367,-290.5"/>
<text text-anchor="middle" x="2566" y="-298.5" font-family="Helvetica,sans-Serif" font-size="10.00">ocra&#45;wbi&#45;plugins/ocra&#45;icub&#45;clients/walking&#45;client/include/walking&#45;client/MIQPController.h</text>
</g>
<!-- Node2 -->
<g id="node3" class="node"><title>Node2</title>
<polygon fill="white" stroke="#bfbfbf" points="0,-232.5 0,-253.5 74,-253.5 74,-232.5 0,-232.5"/>
<text text-anchor="middle" x="37" y="-240.5" font-family="Helvetica,sans-Serif" font-size="10.00">gurobi_c++.h</text>
</g>
<!-- Node1&#45;&gt;Node2 -->
<g id="edge2" class="edge"><title>Node1&#45;&gt;Node2</title>
<path fill="none" stroke="midnightblue" d="M2366.71,-299.437C1818.02,-294.821 311.054,-279.923 88,-254 86.7348,-253.853 85.4546,-253.689 84.1651,-253.51"/>
<polygon fill="midnightblue" stroke="midnightblue" points="84.6164,-250.038 74.1846,-251.889 83.4943,-256.947 84.6164,-250.038"/>
</g>
<!-- Node3 -->
<g id="node5" class="node"><title>Node3</title>
<a xlink:href="utils_8h.html" target="_top" xlink:title="walking&#45;client/utils.h">
<polygon fill="white" stroke="black" points="1651.5,-0.5 1651.5,-21.5 1756.5,-21.5 1756.5,-0.5 1651.5,-0.5"/>
<text text-anchor="middle" x="1704" y="-8.5" font-family="Helvetica,sans-Serif" font-size="10.00">walking&#45;client/utils.h</text>
</a>
</g>
<!-- Node1&#45;&gt;Node3 -->
<g id="edge4" class="edge"><title>Node1&#45;&gt;Node3</title>
<path fill="none" stroke="midnightblue" d="M2366.96,-299.239C1936.18,-294.943 928.837,-282.147 588,-254 370.574,-236.045 102,-403.166 102,-185 102,-185 102,-185 102,-127 102,-95.1919 95.9871,-77.6497 121,-58 151.384,-34.131 1349.56,-15.9338 1640.73,-11.8583"/>
<polygon fill="midnightblue" stroke="midnightblue" points="1641.15,-15.3528 1651.1,-11.7137 1641.05,-8.35345 1641.15,-15.3528"/>
</g>
<!-- Node4 -->
<g id="node7" class="node"><title>Node4</title>
<a xlink:href="OcraWbiModel_8h.html" target="_top" xlink:title="Implementation of ocra::Model using wholeBodyInterface.">
<polygon fill="white" stroke="black" points="597,-232.5 597,-253.5 729,-253.5 729,-232.5 597,-232.5"/>
<text text-anchor="middle" x="663" y="-240.5" font-family="Helvetica,sans-Serif" font-size="10.00">ocra&#45;icub/OcraWbiModel.h</text>
</a>
</g>
<!-- Node1&#45;&gt;Node4 -->
<g id="edge6" class="edge"><title>Node1&#45;&gt;Node4</title>
<path fill="none" stroke="midnightblue" d="M2366.84,-294.93C1952.55,-282.303 1013.71,-253.689 739.526,-245.332"/>
<polygon fill="midnightblue" stroke="midnightblue" points="739.384,-241.827 729.282,-245.02 739.171,-248.823 739.384,-241.827"/>
</g>
<!-- Node21 -->
<g id="node46" class="node"><title>Node21</title>
<polygon fill="white" stroke="#bfbfbf" points="2419.5,-58.5 2419.5,-79.5 2530.5,-79.5 2530.5,-58.5 2419.5,-58.5"/>
<text text-anchor="middle" x="2475" y="-66.5" font-family="Helvetica,sans-Serif" font-size="10.00">yarp/os/RateThread.h</text>
</g>
<!-- Node1&#45;&gt;Node21 -->
<g id="edge86" class="edge"><title>Node1&#45;&gt;Node21</title>
<path fill="none" stroke="midnightblue" d="M2561.85,-290.429C2547.76,-254.497 2501.54,-136.674 2482.9,-89.1453"/>
<polygon fill="midnightblue" stroke="midnightblue" points="2486.08,-87.6649 2479.17,-79.6335 2479.56,-90.221 2486.08,-87.6649"/>
</g>
<!-- Node32 -->
<g id="node72" class="node"><title>Node32</title>
<polygon fill="white" stroke="#bfbfbf" points="2547.5,-58.5 2547.5,-79.5 2620.5,-79.5 2620.5,-58.5 2547.5,-58.5"/>
<text text-anchor="middle" x="2584" y="-66.5" font-family="Helvetica,sans-Serif" font-size="10.00">Eigen/Dense</text>
</g>
<!-- Node1&#45;&gt;Node32 -->
<g id="edge88" class="edge"><title>Node1&#45;&gt;Node32</title>
<path fill="none" stroke="midnightblue" d="M2566.82,-290.429C2569.6,-254.648 2578.67,-137.663 2582.39,-89.7481"/>
<polygon fill="midnightblue" stroke="midnightblue" points="2585.89,-89.8743 2583.17,-79.6335 2578.91,-89.3328 2585.89,-89.8743"/>
</g>
<!-- Node33 -->
<g id="node74" class="node"><title>Node33</title>
<polygon fill="white" stroke="#bfbfbf" points="2638,-58.5 2638,-79.5 2706,-79.5 2706,-58.5 2638,-58.5"/>
<text text-anchor="middle" x="2672" y="-66.5" font-family="Helvetica,sans-Serif" font-size="10.00">Eigen/Lgsm</text>
</g>
<!-- Node1&#45;&gt;Node33 -->
<g id="edge90" class="edge"><title>Node1&#45;&gt;Node33</title>
<path fill="none" stroke="midnightblue" d="M2570.32,-290.237C2574.08,-280.753 2579.61,-266.533 2584,-254 2605.3,-193.25 2595.43,-171.526 2628,-116 2634.32,-105.223 2643.51,-94.8969 2651.86,-86.6821"/>
<polygon fill="midnightblue" stroke="midnightblue" points="2654.31,-89.1852 2659.18,-79.7793 2649.51,-84.0913 2654.31,-89.1852"/>
</g>
<!-- Node34 -->
<g id="node80" class="node"><title>Node34</title>
<polygon fill="white" stroke="#bfbfbf" points="3012,-0.5 3012,-21.5 3182,-21.5 3182,-0.5 3012,-0.5"/>
<text text-anchor="middle" x="3097" y="-8.5" font-family="Helvetica,sans-Serif" font-size="10.00">unsupported/Eigen/MatrixFunctions</text>
</g>
<!-- Node1&#45;&gt;Node34 -->
<g id="edge92" class="edge"><title>Node1&#45;&gt;Node34</title>
<path fill="none" stroke="midnightblue" d="M2575.1,-290.291C2582.65,-281.071 2593.35,-267.204 2601,-254 2634.53,-196.131 2609.78,-159.008 2661,-116 2712.87,-72.4409 2895.65,-39.5879 3007.42,-23.0104"/>
<polygon fill="midnightblue" stroke="midnightblue" points="3007.96,-26.4695 3017.34,-21.554 3006.94,-19.5437 3007.96,-26.4695"/>
</g>
<!-- Node35 -->
<g id="node82" class="node"><title>Node35</title>
<a xlink:href="MIQPLinearConstraints_8h.html" target="_top" xlink:title="walking&#45;client/constraints/MIQPLinearConstraints.h">
<polygon fill="white" stroke="black" points="2855,-232.5 2855,-253.5 3095,-253.5 3095,-232.5 2855,-232.5"/>
<text text-anchor="middle" x="2975" y="-240.5" font-family="Helvetica,sans-Serif" font-size="10.00">walking&#45;client/constraints/MIQPLinearConstraints.h</text>
</a>
</g>
<!-- Node1&#45;&gt;Node35 -->
<g id="edge94" class="edge"><title>Node1&#45;&gt;Node35</title>
<path fill="none" stroke="midnightblue" d="M2640.07,-290.497C2710.64,-280.488 2816.79,-265.436 2890.6,-254.969"/>
<polygon fill="midnightblue" stroke="midnightblue" points="2891.38,-258.393 2900.79,-253.523 2890.4,-251.462 2891.38,-258.393"/>
</g>
<!-- Node49 -->
<g id="node117" class="node"><title>Node49</title>
<polygon fill="white" stroke="#bfbfbf" points="3112.5,-232.5 3112.5,-253.5 3165.5,-253.5 3165.5,-232.5 3112.5,-232.5"/>
<text text-anchor="middle" x="3139" y="-240.5" font-family="Helvetica,sans-Serif" font-size="10.00">Gurobi.h</text>
</g>
<!-- Node1&#45;&gt;Node49 -->
<g id="edge136" class="edge"><title>Node1&#45;&gt;Node49</title>
<path fill="none" stroke="midnightblue" d="M2765.16,-293.932C2864.34,-287.885 2985.96,-276.664 3102.25,-254.024"/>
<polygon fill="midnightblue" stroke="midnightblue" points="3103.27,-257.389 3112.4,-252.015 3101.91,-250.522 3103.27,-257.389"/>
</g>
<!-- Node5 -->
<g id="node9" class="node"><title>Node5</title>
<polygon fill="white" stroke="#bfbfbf" points="2350,-58.5 2350,-79.5 2402,-79.5 2402,-58.5 2350,-58.5"/>
<text text-anchor="middle" x="2376" y="-66.5" font-family="Helvetica,sans-Serif" font-size="10.00">memory</text>
</g>
<!-- Node4&#45;&gt;Node5 -->
<g id="edge8" class="edge"><title>Node4&#45;&gt;Node5</title>
<path fill="none" stroke="midnightblue" d="M729.295,-241.492C955.145,-235.319 1714.69,-206.043 2339.67,-79.9346"/>
<polygon fill="midnightblue" stroke="midnightblue" points="2340.68,-83.3015 2349.78,-77.8832 2339.28,-76.4412 2340.68,-83.3015"/>
</g>
<!-- Node6 -->
<g id="node11" class="node"><title>Node6</title>
<polygon fill="white" stroke="#bfbfbf" points="299.5,-58.5 299.5,-79.5 404.5,-79.5 404.5,-58.5 299.5,-58.5"/>
<text text-anchor="middle" x="352" y="-66.5" font-family="Helvetica,sans-Serif" font-size="10.00">ocra/control/Model.h</text>
</g>
<!-- Node4&#45;&gt;Node6 -->
<g id="edge10" class="edge"><title>Node4&#45;&gt;Node6</title>
<path fill="none" stroke="midnightblue" d="M616.097,-232.497C540.861,-214.703 398.263,-176.768 365,-138 353.741,-124.878 350.968,-105.114 350.733,-90.0968"/>
<polygon fill="midnightblue" stroke="midnightblue" points="354.24,-89.7982 350.95,-79.7271 347.242,-89.6517 354.24,-89.7982"/>
</g>
<!-- Node7 -->
<g id="node13" class="node"><title>Node7</title>
<polygon fill="white" stroke="#bfbfbf" points="130,-58.5 130,-79.5 188,-79.5 188,-58.5 130,-58.5"/>
<text text-anchor="middle" x="159" y="-66.5" font-family="Helvetica,sans-Serif" font-size="10.00">wbi/wbi.h</text>
</g>
<!-- Node4&#45;&gt;Node7 -->
<g id="edge12" class="edge"><title>Node4&#45;&gt;Node7</title>
<path fill="none" stroke="midnightblue" d="M596.746,-238.787C538.086,-233.488 450.872,-221.729 379,-196 301.352,-168.203 219.749,-113.246 181.405,-85.6437"/>
<polygon fill="midnightblue" stroke="midnightblue" points="183.187,-82.6121 173.041,-79.5606 179.07,-88.2731 183.187,-82.6121"/>
</g>
<!-- Node8 -->
<g id="node15" class="node"><title>Node8</title>
<polygon fill="white" stroke="#bfbfbf" points="206,-58.5 206,-79.5 282,-79.5 282,-58.5 206,-58.5"/>
<text text-anchor="middle" x="244" y="-66.5" font-family="Helvetica,sans-Serif" font-size="10.00">yarp/os/Log.h</text>
</g>
<!-- Node4&#45;&gt;Node8 -->
<g id="edge14" class="edge"><title>Node4&#45;&gt;Node8</title>
<path fill="none" stroke="midnightblue" d="M596.943,-237.4C547.928,-231.496 480.297,-219.601 425,-196 359.532,-168.058 293.942,-113.963 262.755,-86.2617"/>
<polygon fill="midnightblue" stroke="midnightblue" points="265.019,-83.5904 255.243,-79.5054 260.338,-88.7949 265.019,-83.5904"/>
</g>
<!-- Node9 -->
<g id="node17" class="node"><title>Node9</title>
<a xlink:href="OcraWbiConversions_8h.html" target="_top" xlink:title="A utility class full of static conversion functions.">
<polygon fill="white" stroke="black" points="582.5,-174.5 582.5,-195.5 743.5,-195.5 743.5,-174.5 582.5,-174.5"/>
<text text-anchor="middle" x="663" y="-182.5" font-family="Helvetica,sans-Serif" font-size="10.00">ocra&#45;icub/OcraWbiConversions.h</text>
</a>
</g>
<!-- Node4&#45;&gt;Node9 -->
<g id="edge16" class="edge"><title>Node4&#45;&gt;Node9</title>
<path fill="none" stroke="midnightblue" d="M663,-232.362C663,-224.922 663,-214.743 663,-205.728"/>
<polygon fill="midnightblue" stroke="midnightblue" points="666.5,-205.571 663,-195.571 659.5,-205.571 666.5,-205.571"/>
</g>
<!-- Node15 -->
<g id="node31" class="node"><title>Node15</title>
<a xlink:href="Utilities_8h.html" target="_top" xlink:title="Some useful tools for the ocra&#45;icub lib.">
<polygon fill="white" stroke="black" points="1104.5,-116.5 1104.5,-137.5 1205.5,-137.5 1205.5,-116.5 1104.5,-116.5"/>
<text text-anchor="middle" x="1155" y="-124.5" font-family="Helvetica,sans-Serif" font-size="10.00">ocra&#45;icub/Utilities.h</text>
</a>
</g>
<!-- Node4&#45;&gt;Node15 -->
<g id="edge84" class="edge"><title>Node4&#45;&gt;Node15</title>
<path fill="none" stroke="midnightblue" d="M707.966,-232.398C798.465,-211.061 1002.29,-163.004 1100.32,-139.893"/>
<polygon fill="midnightblue" stroke="midnightblue" points="1101.39,-143.237 1110.32,-137.535 1099.78,-136.423 1101.39,-143.237"/>
</g>
<!-- Node9&#45;&gt;Node7 -->
<g id="edge28" class="edge"><title>Node9&#45;&gt;Node7</title>
<path fill="none" stroke="midnightblue" d="M582.467,-180.481C511.298,-174.988 405.242,-163.117 316,-138 268.989,-124.769 217.765,-100.165 187.028,-84.1945"/>
<polygon fill="midnightblue" stroke="midnightblue" points="188.653,-81.0949 178.173,-79.5375 185.395,-87.2902 188.653,-81.0949"/>
</g>
<!-- Node9&#45;&gt;Node8 -->
<g id="edge26" class="edge"><title>Node9&#45;&gt;Node8</title>
<path fill="none" stroke="midnightblue" d="M582.341,-180.189C521.266,-174.673 436.046,-162.92 365,-138 328.376,-125.154 290.114,-101.295 266.664,-85.2807"/>
<polygon fill="midnightblue" stroke="midnightblue" points="268.646,-82.3959 258.436,-79.5665 264.653,-88.1454 268.646,-82.3959"/>
</g>
<!-- Node10 -->
<g id="node19" class="node"><title>Node10</title>
<polygon fill="white" stroke="#bfbfbf" points="592,-58.5 592,-79.5 646,-79.5 646,-58.5 592,-58.5"/>
<text text-anchor="middle" x="619" y="-66.5" font-family="Helvetica,sans-Serif" font-size="10.00">iostream</text>
</g>
<!-- Node9&#45;&gt;Node10 -->
<g id="edge18" class="edge"><title>Node9&#45;&gt;Node10</title>
<path fill="none" stroke="midnightblue" d="M674.469,-174.499C687.999,-160.784 707.307,-136.149 696,-116 687.241,-100.391 670.957,-89.3523 655.613,-81.9134"/>
<polygon fill="midnightblue" stroke="midnightblue" points="656.814,-78.6168 646.256,-77.7382 653.962,-85.0093 656.814,-78.6168"/>
</g>
<!-- Node11 -->
<g id="node21" class="node"><title>Node11</title>
<polygon fill="white" stroke="#bfbfbf" points="747.5,-116.5 747.5,-137.5 782.5,-137.5 782.5,-116.5 747.5,-116.5"/>
<text text-anchor="middle" x="765" y="-124.5" font-family="Helvetica,sans-Serif" font-size="10.00">map</text>
</g>
<!-- Node9&#45;&gt;Node11 -->
<g id="edge20" class="edge"><title>Node9&#45;&gt;Node11</title>
<path fill="none" stroke="midnightblue" d="M681.708,-174.362C697.674,-165.283 720.813,-152.126 738.653,-141.982"/>
<polygon fill="midnightblue" stroke="midnightblue" points="740.47,-144.975 747.433,-136.989 737.01,-138.89 740.47,-144.975"/>
</g>
<!-- Node12 -->
<g id="node23" class="node"><title>Node12</title>
<polygon fill="white" stroke="#bfbfbf" points="422,-58.5 422,-79.5 466,-79.5 466,-58.5 422,-58.5"/>
<text text-anchor="middle" x="444" y="-66.5" font-family="Helvetica,sans-Serif" font-size="10.00">vector</text>
</g>
<!-- Node9&#45;&gt;Node12 -->
<g id="edge22" class="edge"><title>Node9&#45;&gt;Node12</title>
<path fill="none" stroke="midnightblue" d="M660.117,-174.313C655.409,-158.975 644.575,-130.926 625,-116 572.931,-76.2958 543.454,-97.3734 476.031,-79.9404"/>
<polygon fill="midnightblue" stroke="midnightblue" points="476.831,-76.5302 466.259,-77.2146 474.951,-83.2728 476.831,-76.5302"/>
</g>
<!-- Node13 -->
<g id="node25" class="node"><title>Node13</title>
<polygon fill="white" stroke="#bfbfbf" points="483.5,-58.5 483.5,-79.5 574.5,-79.5 574.5,-58.5 483.5,-58.5"/>
<text text-anchor="middle" x="529" y="-66.5" font-family="Helvetica,sans-Serif" font-size="10.00">yarp/sig/Vector.h</text>
</g>
<!-- Node9&#45;&gt;Node13 -->
<g id="edge24" class="edge"><title>Node9&#45;&gt;Node13</title>
<path fill="none" stroke="midnightblue" d="M665.479,-174.438C668.269,-159.754 670.885,-133.06 658,-116 648.407,-103.299 613.718,-91.0593 582.726,-82.2556"/>
<polygon fill="midnightblue" stroke="midnightblue" points="583.401,-78.8111 572.83,-79.5218 581.537,-85.5583 583.401,-78.8111"/>
</g>
<!-- Node14 -->
<g id="node29" class="node"><title>Node14</title>
<polygon fill="white" stroke="#bfbfbf" points="374,-116.5 374,-137.5 616,-137.5 616,-116.5 374,-116.5"/>
<text text-anchor="middle" x="495" y="-124.5" font-family="Helvetica,sans-Serif" font-size="10.00">yarpWholeBodyInterface/yarpWholeBodyInterface.h</text>
</g>
<!-- Node9&#45;&gt;Node14 -->
<g id="edge30" class="edge"><title>Node9&#45;&gt;Node14</title>
<path fill="none" stroke="midnightblue" d="M632.576,-174.497C605.306,-165.082 565.107,-151.204 535.196,-140.877"/>
<polygon fill="midnightblue" stroke="midnightblue" points="536.075,-137.478 525.481,-137.523 533.791,-144.095 536.075,-137.478"/>
</g>
<!-- Node9&#45;&gt;Node15 -->
<g id="edge32" class="edge"><title>Node9&#45;&gt;Node15</title>
<path fill="none" stroke="midnightblue" d="M743.693,-175.487C842.03,-163.895 1005.96,-144.57 1094.25,-134.162"/>
<polygon fill="midnightblue" stroke="midnightblue" points="1094.85,-137.615 1104.37,-132.968 1094.03,-130.663 1094.85,-137.615"/>
</g>
<!-- Node15&#45;&gt;Node5 -->
<g id="edge34" class="edge"><title>Node15&#45;&gt;Node5</title>
<path fill="none" stroke="midnightblue" d="M1205.52,-125.787C1412.19,-120.72 2188.96,-100.618 2339.69,-79.6269"/>
<polygon fill="midnightblue" stroke="midnightblue" points="2340.47,-83.0477 2349.81,-78.0495 2339.39,-76.1312 2340.47,-83.0477"/>
</g>
<!-- Node15&#45;&gt;Node6 -->
<g id="edge76" class="edge"><title>Node15&#45;&gt;Node6</title>
<path fill="none" stroke="midnightblue" d="M1104.43,-125.804C985.707,-122.564 679.735,-111.71 414.717,-80.0958"/>
<polygon fill="midnightblue" stroke="midnightblue" points="414.861,-76.588 404.514,-78.866 414.024,-83.5377 414.861,-76.588"/>
</g>
<!-- Node15&#45;&gt;Node7 -->
<g id="edge74" class="edge"><title>Node15&#45;&gt;Node7</title>
<path fill="none" stroke="midnightblue" d="M1104.5,-125.211C925.14,-118.767 323.329,-96.3281 198.296,-79.7022"/>
<polygon fill="midnightblue" stroke="midnightblue" points="198.709,-76.2252 188.302,-78.2133 197.678,-83.1488 198.709,-76.2252"/>
</g>
<!-- Node15&#45;&gt;Node8 -->
<g id="edge64" class="edge"><title>Node15&#45;&gt;Node8</title>
<path fill="none" stroke="midnightblue" d="M1104.31,-125.413C947.118,-120.31 468.361,-103.364 292.035,-79.8852"/>
<polygon fill="midnightblue" stroke="midnightblue" points="292.499,-76.4161 282.113,-78.5105 291.538,-83.3498 292.499,-76.4161"/>
</g>
<!-- Node15&#45;&gt;Node10 -->
<g id="edge38" class="edge"><title>Node15&#45;&gt;Node10</title>
<path fill="none" stroke="midnightblue" d="M1104.48,-125.631C1015.47,-122.487 824.931,-112.48 656.415,-79.9601"/>
<polygon fill="midnightblue" stroke="midnightblue" points="656.858,-76.4804 646.371,-77.9897 655.511,-83.3495 656.858,-76.4804"/>
</g>
<!-- Node15&#45;&gt;Node12 -->
<g id="edge42" class="edge"><title>Node15&#45;&gt;Node12</title>
<path fill="none" stroke="midnightblue" d="M1104.46,-125.287C971.521,-120.505 613.413,-105.766 476.036,-79.6531"/>
<polygon fill="midnightblue" stroke="midnightblue" points="476.637,-76.204 466.144,-77.6712 475.261,-83.0676 476.637,-76.204"/>
</g>
<!-- Node15&#45;&gt;Node13 -->
<g id="edge70" class="edge"><title>Node15&#45;&gt;Node13</title>
<path fill="none" stroke="midnightblue" d="M1104.27,-124.861C1005.84,-120.27 781.966,-107.682 584.572,-80.0957"/>
<polygon fill="midnightblue" stroke="midnightblue" points="584.99,-76.6201 574.599,-78.6857 584.01,-83.5511 584.99,-76.6201"/>
</g>
<!-- Node16 -->
<g id="node34" class="node"><title>Node16</title>
<polygon fill="white" stroke="#bfbfbf" points="908,-58.5 908,-79.5 952,-79.5 952,-58.5 908,-58.5"/>
<text text-anchor="middle" x="930" y="-66.5" font-family="Helvetica,sans-Serif" font-size="10.00">cmath</text>
</g>
<!-- Node15&#45;&gt;Node16 -->
<g id="edge36" class="edge"><title>Node15&#45;&gt;Node16</title>
<path fill="none" stroke="midnightblue" d="M1105.19,-116.42C1068.01,-108.187 1015.81,-95.923 961.973,-80.0977"/>
<polygon fill="midnightblue" stroke="midnightblue" points="962.843,-76.7049 952.26,-77.2088 960.848,-83.4144 962.843,-76.7049"/>
</g>
<!-- Node17 -->
<g id="node37" class="node"><title>Node17</title>
<polygon fill="white" stroke="#bfbfbf" points="969.5,-58.5 969.5,-79.5 1010.5,-79.5 1010.5,-58.5 969.5,-58.5"/>
<text text-anchor="middle" x="990" y="-66.5" font-family="Helvetica,sans-Serif" font-size="10.00">string</text>
</g>
<!-- Node15&#45;&gt;Node17 -->
<g id="edge40" class="edge"><title>Node15&#45;&gt;Node17</title>
<path fill="none" stroke="midnightblue" d="M1123.58,-116.437C1097.95,-107.756 1060.59,-94.9554 1020.09,-80.3361"/>
<polygon fill="midnightblue" stroke="midnightblue" points="1021.16,-77.0032 1010.57,-76.8878 1018.78,-83.5847 1021.16,-77.0032"/>
</g>
<!-- Node18 -->
<g id="node40" class="node"><title>Node18</title>
<polygon fill="white" stroke="#bfbfbf" points="1028,-58.5 1028,-79.5 1080,-79.5 1080,-58.5 1028,-58.5"/>
<text text-anchor="middle" x="1054" y="-66.5" font-family="Helvetica,sans-Serif" font-size="10.00">sstream</text>
</g>
<!-- Node15&#45;&gt;Node18 -->
<g id="edge44" class="edge"><title>Node15&#45;&gt;Node18</title>
<path fill="none" stroke="midnightblue" d="M1136.48,-116.362C1121.1,-107.532 1099,-94.844 1081.55,-84.8224"/>
<polygon fill="midnightblue" stroke="midnightblue" points="1082.82,-81.5154 1072.41,-79.5707 1079.34,-87.5857 1082.82,-81.5154"/>
</g>
<!-- Node19 -->
<g id="node42" class="node"><title>Node19</title>
<polygon fill="white" stroke="#bfbfbf" points="1097.5,-58.5 1097.5,-79.5 1212.5,-79.5 1212.5,-58.5 1097.5,-58.5"/>
<text text-anchor="middle" x="1155" y="-66.5" font-family="Helvetica,sans-Serif" font-size="10.00">yarp/os/BufferedPort.h</text>
</g>
<!-- Node15&#45;&gt;Node19 -->
<g id="edge46" class="edge"><title>Node15&#45;&gt;Node19</title>
<path fill="none" stroke="midnightblue" d="M1155,-116.362C1155,-108.922 1155,-98.7427 1155,-89.7276"/>
<polygon fill="midnightblue" stroke="midnightblue" points="1158.5,-89.5706 1155,-79.5707 1151.5,-89.5707 1158.5,-89.5706"/>
</g>
<!-- Node20 -->
<g id="node44" class="node"><title>Node20</title>
<polygon fill="white" stroke="#bfbfbf" points="1230,-58.5 1230,-79.5 1316,-79.5 1316,-58.5 1230,-58.5"/>
<text text-anchor="middle" x="1273" y="-66.5" font-family="Helvetica,sans-Serif" font-size="10.00">yarp/os/Bottle.h</text>
</g>
<!-- Node15&#45;&gt;Node20 -->
<g id="edge48" class="edge"><title>Node15&#45;&gt;Node20</title>
<path fill="none" stroke="midnightblue" d="M1176.37,-116.497C1194.8,-107.438 1221.64,-94.2462 1242.36,-84.0628"/>
<polygon fill="midnightblue" stroke="midnightblue" points="1243.96,-87.1735 1251.39,-79.6212 1240.87,-80.8914 1243.96,-87.1735"/>
</g>
<!-- Node15&#45;&gt;Node21 -->
<g id="edge50" class="edge"><title>Node15&#45;&gt;Node21</title>
<path fill="none" stroke="midnightblue" d="M1205.56,-126.006C1406.7,-121.914 2151.19,-105.428 2409.14,-80.0588"/>
<polygon fill="midnightblue" stroke="midnightblue" points="2409.62,-83.5282 2419.21,-79.0373 2408.91,-76.5639 2409.62,-83.5282"/>
</g>
<!-- Node22 -->
<g id="node48" class="node"><title>Node22</title>
<polygon fill="white" stroke="#bfbfbf" points="1333.5,-58.5 1333.5,-79.5 1462.5,-79.5 1462.5,-58.5 1333.5,-58.5"/>
<text text-anchor="middle" x="1398" y="-66.5" font-family="Helvetica,sans-Serif" font-size="10.00">yarp/os/ResourceFinder.h</text>
</g>
<!-- Node15&#45;&gt;Node22 -->
<g id="edge52" class="edge"><title>Node15&#45;&gt;Node22</title>
<path fill="none" stroke="midnightblue" d="M1199.01,-116.497C1239.74,-106.775 1300.41,-92.2938 1344.04,-81.8787"/>
<polygon fill="midnightblue" stroke="midnightblue" points="1345,-85.2491 1353.91,-79.5231 1343.37,-78.4404 1345,-85.2491"/>
</g>
<!-- Node23 -->
<g id="node50" class="node"><title>Node23</title>
<polygon fill="white" stroke="#bfbfbf" points="1480,-58.5 1480,-79.5 1590,-79.5 1590,-58.5 1480,-58.5"/>
<text text-anchor="middle" x="1535" y="-66.5" font-family="Helvetica,sans-Serif" font-size="10.00">yarp/os/PortReader.h</text>
</g>
<!-- Node15&#45;&gt;Node23 -->
<g id="edge54" class="edge"><title>Node15&#45;&gt;Node23</title>
<path fill="none" stroke="midnightblue" d="M1205.68,-119.822C1266.12,-111.18 1370.49,-96.0063 1469.94,-80.1458"/>
<polygon fill="midnightblue" stroke="midnightblue" points="1470.53,-83.5951 1479.86,-78.5593 1469.43,-76.683 1470.53,-83.5951"/>
</g>
<!-- Node24 -->
<g id="node52" class="node"><title>Node24</title>
<polygon fill="white" stroke="#bfbfbf" points="1608,-58.5 1608,-79.5 1712,-79.5 1712,-58.5 1608,-58.5"/>
<text text-anchor="middle" x="1660" y="-66.5" font-family="Helvetica,sans-Serif" font-size="10.00">yarp/os/RpcClient.h</text>
</g>
<!-- Node15&#45;&gt;Node24 -->
<g id="edge56" class="edge"><title>Node15&#45;&gt;Node24</title>
<path fill="none" stroke="midnightblue" d="M1205.75,-122.841C1286.53,-115.955 1449.51,-100.978 1597.61,-80.1192"/>
<polygon fill="midnightblue" stroke="midnightblue" points="1598.39,-83.5441 1607.8,-78.6721 1597.4,-76.6138 1598.39,-83.5441"/>
</g>
<!-- Node25 -->
<g id="node54" class="node"><title>Node25</title>
<polygon fill="white" stroke="#bfbfbf" points="1729.5,-58.5 1729.5,-79.5 1836.5,-79.5 1836.5,-58.5 1729.5,-58.5"/>
<text text-anchor="middle" x="1783" y="-66.5" font-family="Helvetica,sans-Serif" font-size="10.00">yarp/os/RpcServer.h</text>
</g>
<!-- Node15&#45;&gt;Node25 -->
<g id="edge58" class="edge"><title>Node15&#45;&gt;Node25</title>
<path fill="none" stroke="midnightblue" d="M1205.52,-124.381C1302.97,-118.988 1523.83,-105.103 1719.12,-80.1568"/>
<polygon fill="midnightblue" stroke="midnightblue" points="1719.81,-83.5966 1729.28,-78.8455 1718.91,-76.6541 1719.81,-83.5966"/>
</g>
<!-- Node26 -->
<g id="node56" class="node"><title>Node26</title>
<polygon fill="white" stroke="#bfbfbf" points="1853.5,-58.5 1853.5,-79.5 1994.5,-79.5 1994.5,-58.5 1853.5,-58.5"/>
<text text-anchor="middle" x="1924" y="-66.5" font-family="Helvetica,sans-Serif" font-size="10.00">yarp/os/ConnectionReader.h</text>
</g>
<!-- Node15&#45;&gt;Node26 -->
<g id="edge60" class="edge"><title>Node15&#45;&gt;Node26</title>
<path fill="none" stroke="midnightblue" d="M1205.75,-124.768C1318.51,-119.543 1598.64,-105.105 1843.24,-80.1266"/>
<polygon fill="midnightblue" stroke="midnightblue" points="1843.81,-83.5874 1853.39,-79.0818 1843.09,-76.6241 1843.81,-83.5874"/>
</g>
<!-- Node27 -->
<g id="node58" class="node"><title>Node27</title>
<polygon fill="white" stroke="#bfbfbf" points="2012,-58.5 2012,-79.5 2094,-79.5 2094,-58.5 2012,-58.5"/>
<text text-anchor="middle" x="2053" y="-66.5" font-family="Helvetica,sans-Serif" font-size="10.00">yarp/os/Time.h</text>
</g>
<!-- Node15&#45;&gt;Node27 -->
<g id="edge62" class="edge"><title>Node15&#45;&gt;Node27</title>
<path fill="none" stroke="midnightblue" d="M1205.57,-125.269C1360.6,-119.796 1828.65,-101.998 2001.9,-79.9183"/>
<polygon fill="midnightblue" stroke="midnightblue" points="2002.44,-83.3769 2011.89,-78.5938 2001.52,-76.4375 2002.44,-83.3769"/>
</g>
<!-- Node28 -->
<g id="node61" class="node"><title>Node28</title>
<polygon fill="white" stroke="#bfbfbf" points="2111.5,-58.5 2111.5,-79.5 2218.5,-79.5 2218.5,-58.5 2111.5,-58.5"/>
<text text-anchor="middle" x="2165" y="-66.5" font-family="Helvetica,sans-Serif" font-size="10.00">yarp/os/LogStream.h</text>
</g>
<!-- Node15&#45;&gt;Node28 -->
<g id="edge66" class="edge"><title>Node15&#45;&gt;Node28</title>
<path fill="none" stroke="midnightblue" d="M1205.72,-125.331C1373.05,-119.694 1907.43,-100.62 2101.22,-80.0608"/>
<polygon fill="midnightblue" stroke="midnightblue" points="2101.73,-83.5257 2111.29,-78.9559 2100.97,-76.5674 2101.73,-83.5257"/>
</g>
<!-- Node29 -->
<g id="node63" class="node"><title>Node29</title>
<polygon fill="white" stroke="#bfbfbf" points="2235.5,-58.5 2235.5,-79.5 2332.5,-79.5 2332.5,-58.5 2235.5,-58.5"/>
<text text-anchor="middle" x="2284" y="-66.5" font-family="Helvetica,sans-Serif" font-size="10.00">yarp/os/Property.h</text>
</g>
<!-- Node15&#45;&gt;Node29 -->
<g id="edge68" class="edge"><title>Node15&#45;&gt;Node29</title>
<path fill="none" stroke="midnightblue" d="M1205.52,-125.771C1386.88,-121.205 2005.59,-104.289 2225.11,-80.0543"/>
<polygon fill="midnightblue" stroke="midnightblue" points="2225.72,-83.5074 2235.26,-78.8947 2224.92,-76.5527 2225.72,-83.5074"/>
</g>
<!-- Node30 -->
<g id="node66" class="node"><title>Node30</title>
<polygon fill="white" stroke="#bfbfbf" points="663.5,-58.5 663.5,-79.5 752.5,-79.5 752.5,-58.5 663.5,-58.5"/>
<text text-anchor="middle" x="708" y="-66.5" font-family="Helvetica,sans-Serif" font-size="10.00">yarp/sig/Matrix.h</text>
</g>
<!-- Node15&#45;&gt;Node30 -->
<g id="edge72" class="edge"><title>Node15&#45;&gt;Node30</title>
<path fill="none" stroke="midnightblue" d="M1104.43,-122.37C1031.17,-115.355 891.066,-100.781 762.771,-80.1948"/>
<polygon fill="midnightblue" stroke="midnightblue" points="763.2,-76.7189 752.769,-78.5737 762.08,-83.6287 763.2,-76.7189"/>
</g>
<!-- Node31 -->
<g id="node70" class="node"><title>Node31</title>
<polygon fill="white" stroke="#bfbfbf" points="769.5,-58.5 769.5,-79.5 890.5,-79.5 890.5,-58.5 769.5,-58.5"/>
<text text-anchor="middle" x="830" y="-66.5" font-family="Helvetica,sans-Serif" font-size="10.00">ocra/util/StringUtilities.h</text>
</g>
<!-- Node15&#45;&gt;Node31 -->
<g id="edge78" class="edge"><title>Node15&#45;&gt;Node31</title>
<path fill="none" stroke="midnightblue" d="M1104.22,-117.938C1049,-108.084 960.434,-92.2774 898.955,-81.3057"/>
<polygon fill="midnightblue" stroke="midnightblue" points="899.409,-77.8315 888.949,-79.5202 898.179,-84.7227 899.409,-77.8315"/>
</g>
<!-- Node15&#45;&gt;Node32 -->
<g id="edge80" class="edge"><title>Node15&#45;&gt;Node32</title>
<path fill="none" stroke="midnightblue" d="M1205.55,-126.676C1419.62,-125.092 2253.05,-116.735 2537.01,-80.0027"/>
<polygon fill="midnightblue" stroke="midnightblue" points="2537.83,-83.4235 2547.28,-78.6279 2536.91,-76.4853 2537.83,-83.4235"/>
</g>
<!-- Node15&#45;&gt;Node33 -->
<g id="edge82" class="edge"><title>Node15&#45;&gt;Node33</title>
<path fill="none" stroke="midnightblue" d="M1205.78,-126.869C1429,-126.067 2324.97,-120.428 2627.78,-79.845"/>
<polygon fill="midnightblue" stroke="midnightblue" points="2628.44,-83.287 2637.87,-78.4486 2627.48,-76.3531 2628.44,-83.287"/>
</g>
<!-- Node36 -->
<g id="node84" class="node"><title>Node36</title>
<a xlink:href="ShapeConstraints_8h.html" target="_top" xlink:title="walking&#45;client/constraints/ShapeConstraints.h">
<polygon fill="white" stroke="black" points="3857,-174.5 3857,-195.5 4073,-195.5 4073,-174.5 3857,-174.5"/>
<text text-anchor="middle" x="3965" y="-182.5" font-family="Helvetica,sans-Serif" font-size="10.00">walking&#45;client/constraints/ShapeConstraints.h</text>
</a>
</g>
<!-- Node35&#45;&gt;Node36 -->
<g id="edge96" class="edge"><title>Node35&#45;&gt;Node36</title>
<path fill="none" stroke="midnightblue" d="M3095.16,-232.633C3098.13,-232.415 3101.09,-232.204 3104,-232 3369.12,-213.464 3680.6,-198.034 3846.64,-190.316"/>
<polygon fill="midnightblue" stroke="midnightblue" points="3847.05,-193.801 3856.88,-189.841 3846.73,-186.808 3847.05,-193.801"/>
</g>
<!-- Node43 -->
<g id="node101" class="node"><title>Node43</title>
<a xlink:href="AdmissibilityConstraints_8h.html" target="_top" xlink:title="walking&#45;client/constraints/AdmissibilityConstraints.h">
<polygon fill="white" stroke="black" points="3039,-174.5 3039,-195.5 3283,-195.5 3283,-174.5 3039,-174.5"/>
<text text-anchor="middle" x="3161" y="-182.5" font-family="Helvetica,sans-Serif" font-size="10.00">walking&#45;client/constraints/AdmissibilityConstraints.h</text>
</a>
</g>
<!-- Node35&#45;&gt;Node43 -->
<g id="edge116" class="edge"><title>Node35&#45;&gt;Node43</title>
<path fill="none" stroke="midnightblue" d="M3008.68,-232.497C3039.14,-223 3084.16,-208.962 3117.36,-198.609"/>
<polygon fill="midnightblue" stroke="midnightblue" points="3118.75,-201.841 3127.25,-195.523 3116.67,-195.159 3118.75,-201.841"/>
</g>
<!-- Node37 -->
<g id="node86" class="node"><title>Node37</title>
<a xlink:href="Constraint_8h.html" target="_top" xlink:title="A constraint base class.">
<polygon fill="white" stroke="black" points="3558.5,-58.5 3558.5,-79.5 3741.5,-79.5 3741.5,-58.5 3558.5,-58.5"/>
<text text-anchor="middle" x="3650" y="-66.5" font-family="Helvetica,sans-Serif" font-size="10.00">walking&#45;client/constraints/Constraint.h</text>
</a>
</g>
<!-- Node36&#45;&gt;Node37 -->
<g id="edge98" class="edge"><title>Node36&#45;&gt;Node37</title>
<path fill="none" stroke="midnightblue" d="M4073.17,-175.503C4157.2,-166.999 4261.67,-153.504 4275,-138 4281.37,-130.586 4281.65,-123.168 4275,-116 4257.5,-97.1301 3924.38,-80.4765 3751.8,-73.073"/>
<polygon fill="midnightblue" stroke="midnightblue" points="3751.82,-69.5708 3741.68,-72.6416 3751.52,-76.5644 3751.82,-69.5708"/>
</g>
<!-- Node40 -->
<g id="node94" class="node"><title>Node40</title>
<a xlink:href="Bounding_8h.html" target="_top" xlink:title="walking&#45;client/constraints/Bounding.h">
<polygon fill="white" stroke="black" points="3677.5,-116.5 3677.5,-137.5 3856.5,-137.5 3856.5,-116.5 3677.5,-116.5"/>
<text text-anchor="middle" x="3767" y="-124.5" font-family="Helvetica,sans-Serif" font-size="10.00">walking&#45;client/constraints/Bounding.h</text>
</a>
</g>
<!-- Node36&#45;&gt;Node40 -->
<g id="edge108" class="edge"><title>Node36&#45;&gt;Node40</title>
<path fill="none" stroke="midnightblue" d="M3929.14,-174.497C3896.45,-164.918 3847.97,-150.72 3812.55,-140.342"/>
<polygon fill="midnightblue" stroke="midnightblue" points="3813.5,-136.975 3802.92,-137.523 3811.54,-143.693 3813.5,-136.975"/>
</g>
<!-- Node41 -->
<g id="node97" class="node"><title>Node41</title>
<polygon fill="white" stroke="#bfbfbf" points="3873.5,-116.5 3873.5,-137.5 4056.5,-137.5 4056.5,-116.5 3873.5,-116.5"/>
<text text-anchor="middle" x="3965" y="-124.5" font-family="Helvetica,sans-Serif" font-size="10.00">walking&#45;client/constraints/constancy.h</text>
</g>
<!-- Node36&#45;&gt;Node41 -->
<g id="edge112" class="edge"><title>Node36&#45;&gt;Node41</title>
<path fill="none" stroke="midnightblue" d="M3965,-174.362C3965,-166.922 3965,-156.743 3965,-147.728"/>
<polygon fill="midnightblue" stroke="midnightblue" points="3968.5,-147.571 3965,-137.571 3961.5,-147.571 3968.5,-147.571"/>
</g>
<!-- Node42 -->
<g id="node99" class="node"><title>Node42</title>
<polygon fill="white" stroke="#bfbfbf" points="4073.5,-116.5 4073.5,-137.5 4266.5,-137.5 4266.5,-116.5 4073.5,-116.5"/>
<text text-anchor="middle" x="4170" y="-124.5" font-family="Helvetica,sans-Serif" font-size="10.00">walking&#45;client/constraints/sequentiality.h</text>
</g>
<!-- Node36&#45;&gt;Node42 -->
<g id="edge114" class="edge"><title>Node36&#45;&gt;Node42</title>
<path fill="none" stroke="midnightblue" d="M4002.12,-174.497C4035.98,-164.918 4086.16,-150.72 4122.84,-140.342"/>
<polygon fill="midnightblue" stroke="midnightblue" points="4124.14,-143.613 4132.81,-137.523 4122.23,-136.878 4124.14,-143.613"/>
</g>
<!-- Node37&#45;&gt;Node3 -->
<g id="edge100" class="edge"><title>Node37&#45;&gt;Node3</title>
<path fill="none" stroke="midnightblue" d="M3558.43,-66.2707C3221,-56.2139 2051.97,-21.3713 1767.01,-12.8779"/>
<polygon fill="midnightblue" stroke="midnightblue" points="1766.95,-9.37473 1756.85,-12.5752 1766.74,-16.3716 1766.95,-9.37473"/>
</g>
<!-- Node37&#45;&gt;Node34 -->
<g id="edge104" class="edge"><title>Node37&#45;&gt;Node34</title>
<path fill="none" stroke="midnightblue" d="M3558.37,-59.3899C3457.23,-48.7813 3295.16,-31.7837 3192.49,-21.0155"/>
<polygon fill="midnightblue" stroke="midnightblue" points="3192.75,-17.5232 3182.44,-19.9609 3192.02,-24.485 3192.75,-17.5232"/>
</g>
<!-- Node38 -->
<g id="node89" class="node"><title>Node38</title>
<polygon fill="white" stroke="#bfbfbf" points="3563.5,-0.5 3563.5,-21.5 3628.5,-21.5 3628.5,-0.5 3563.5,-0.5"/>
<text text-anchor="middle" x="3596" y="-8.5" font-family="Helvetica,sans-Serif" font-size="10.00">Eigen/Core</text>
</g>
<!-- Node37&#45;&gt;Node38 -->
<g id="edge102" class="edge"><title>Node37&#45;&gt;Node38</title>
<path fill="none" stroke="midnightblue" d="M3640.1,-58.3619C3632.48,-50.1861 3621.79,-38.7025 3612.84,-29.0907"/>
<polygon fill="midnightblue" stroke="midnightblue" points="3615.22,-26.5046 3605.84,-21.5707 3610.09,-31.2746 3615.22,-26.5046"/>
</g>
<!-- Node39 -->
<g id="node92" class="node"><title>Node39</title>
<polygon fill="white" stroke="#bfbfbf" points="3645.5,-0.5 3645.5,-21.5 3762.5,-21.5 3762.5,-0.5 3645.5,-0.5"/>
<text text-anchor="middle" x="3704" y="-8.5" font-family="Helvetica,sans-Serif" font-size="10.00">ocra/util/ErrorsHelper.h</text>
</g>
<!-- Node37&#45;&gt;Node39 -->
<g id="edge106" class="edge"><title>Node37&#45;&gt;Node39</title>
<path fill="none" stroke="midnightblue" d="M3659.9,-58.3619C3667.52,-50.1861 3678.21,-38.7025 3687.16,-29.0907"/>
<polygon fill="midnightblue" stroke="midnightblue" points="3689.91,-31.2746 3694.16,-21.5707 3684.78,-26.5046 3689.91,-31.2746"/>
</g>
<!-- Node40&#45;&gt;Node37 -->
<g id="edge110" class="edge"><title>Node40&#45;&gt;Node37</title>
<path fill="none" stroke="midnightblue" d="M3745.81,-116.497C3727.54,-107.438 3700.93,-94.2462 3680.39,-84.0628"/>
<polygon fill="midnightblue" stroke="midnightblue" points="3681.94,-80.9269 3671.43,-79.6212 3678.83,-87.1986 3681.94,-80.9269"/>
</g>
<!-- Node43&#45;&gt;Node37 -->
<g id="edge118" class="edge"><title>Node43&#45;&gt;Node37</title>
<path fill="none" stroke="midnightblue" d="M3283.02,-179.884C3413.37,-173.313 3604.87,-160.046 3631,-138 3644.83,-126.329 3649.07,-105.604 3650.16,-89.9044"/>
<polygon fill="midnightblue" stroke="midnightblue" points="3653.67,-89.668 3650.49,-79.5624 3646.67,-89.4469 3653.67,-89.668"/>
</g>
<!-- Node44 -->
<g id="node104" class="node"><title>Node44</title>
<a xlink:href="SSDSAlternation_8h.html" target="_top" xlink:title="walking&#45;client/constraints/SSDSAlternation.h">
<polygon fill="white" stroke="black" points="2944,-116.5 2944,-137.5 3156,-137.5 3156,-116.5 2944,-116.5"/>
<text text-anchor="middle" x="3050" y="-124.5" font-family="Helvetica,sans-Serif" font-size="10.00">walking&#45;client/constraints/SSDSAlternation.h</text>
</a>
</g>
<!-- Node43&#45;&gt;Node44 -->
<g id="edge120" class="edge"><title>Node43&#45;&gt;Node44</title>
<path fill="none" stroke="midnightblue" d="M3140.9,-174.497C3123.72,-165.519 3098.77,-152.484 3079.36,-142.339"/>
<polygon fill="midnightblue" stroke="midnightblue" points="3080.81,-139.15 3070.33,-137.621 3077.57,-145.354 3080.81,-139.15"/>
</g>
<!-- Node46 -->
<g id="node108" class="node"><title>Node46</title>
<a xlink:href="SingleSupport_8h.html" target="_top" xlink:title="walking&#45;client/constraints/SingleSupport.h">
<polygon fill="white" stroke="black" points="3173.5,-116.5 3173.5,-137.5 3372.5,-137.5 3372.5,-116.5 3173.5,-116.5"/>
<text text-anchor="middle" x="3273" y="-124.5" font-family="Helvetica,sans-Serif" font-size="10.00">walking&#45;client/constraints/SingleSupport.h</text>
</a>
</g>
<!-- Node43&#45;&gt;Node46 -->
<g id="edge124" class="edge"><title>Node43&#45;&gt;Node46</title>
<path fill="none" stroke="midnightblue" d="M3181.28,-174.497C3198.62,-165.519 3223.79,-152.484 3243.38,-142.339"/>
<polygon fill="midnightblue" stroke="midnightblue" points="3245.22,-145.328 3252.49,-137.621 3242,-139.112 3245.22,-145.328"/>
</g>
<!-- Node47 -->
<g id="node111" class="node"><title>Node47</title>
<a xlink:href="ContactConfigHistory_8h.html" target="_top" xlink:title="walking&#45;client/constraints/ContactConfigHistory.h">
<polygon fill="white" stroke="black" points="3389.5,-116.5 3389.5,-137.5 3622.5,-137.5 3622.5,-116.5 3389.5,-116.5"/>
<text text-anchor="middle" x="3506" y="-124.5" font-family="Helvetica,sans-Serif" font-size="10.00">walking&#45;client/constraints/ContactConfigHistory.h</text>
</a>
</g>
<!-- Node43&#45;&gt;Node47 -->
<g id="edge128" class="edge"><title>Node43&#45;&gt;Node47</title>
<path fill="none" stroke="midnightblue" d="M3223.48,-174.497C3282.52,-164.57 3371.08,-149.682 3433.27,-139.226"/>
<polygon fill="midnightblue" stroke="midnightblue" points="3434.12,-142.633 3443.41,-137.523 3432.96,-135.729 3434.12,-142.633"/>
</g>
<!-- Node48 -->
<g id="node114" class="node"><title>Node48</title>
<a xlink:href="ContactConfigEnforcement_8h.html" target="_top" xlink:title="walking&#45;client/constraints/ContactConfigEnforcement.h">
<polygon fill="white" stroke="black" points="2669.5,-116.5 2669.5,-137.5 2926.5,-137.5 2926.5,-116.5 2669.5,-116.5"/>
<text text-anchor="middle" x="2798" y="-124.5" font-family="Helvetica,sans-Serif" font-size="10.00">walking&#45;client/constraints/ContactConfigEnforcement.h</text>
</a>
</g>
<!-- Node43&#45;&gt;Node48 -->
<g id="edge132" class="edge"><title>Node43&#45;&gt;Node48</title>
<path fill="none" stroke="midnightblue" d="M3095.26,-174.497C3033.01,-164.55 2939.57,-149.621 2874.12,-139.162"/>
<polygon fill="midnightblue" stroke="midnightblue" points="2874.29,-135.645 2863.86,-137.523 2873.18,-142.557 2874.29,-135.645"/>
</g>
<!-- Node45 -->
<g id="node106" class="node"><title>Node45</title>
<polygon fill="white" stroke="#bfbfbf" points="3071.5,-58.5 3071.5,-79.5 3252.5,-79.5 3252.5,-58.5 3071.5,-58.5"/>
<text text-anchor="middle" x="3162" y="-66.5" font-family="Helvetica,sans-Serif" font-size="10.00">walking&#45;client/constraints/constraint.h</text>
</g>
<!-- Node44&#45;&gt;Node45 -->
<g id="edge122" class="edge"><title>Node44&#45;&gt;Node45</title>
<path fill="none" stroke="midnightblue" d="M3070.28,-116.497C3087.62,-107.519 3112.79,-94.4835 3132.38,-84.3387"/>
<polygon fill="midnightblue" stroke="midnightblue" points="3134.22,-87.3278 3141.49,-79.6212 3131,-81.1118 3134.22,-87.3278"/>
</g>
<!-- Node46&#45;&gt;Node45 -->
<g id="edge126" class="edge"><title>Node46&#45;&gt;Node45</title>
<path fill="none" stroke="midnightblue" d="M3252.9,-116.497C3235.72,-107.519 3210.77,-94.4835 3191.36,-84.3387"/>
<polygon fill="midnightblue" stroke="midnightblue" points="3192.81,-81.1503 3182.33,-79.6212 3189.57,-87.3544 3192.81,-81.1503"/>
</g>
<!-- Node47&#45;&gt;Node45 -->
<g id="edge130" class="edge"><title>Node47&#45;&gt;Node45</title>
<path fill="none" stroke="midnightblue" d="M3443.7,-116.497C3384.83,-106.57 3296.53,-91.6819 3234.52,-81.2264"/>
<polygon fill="midnightblue" stroke="midnightblue" points="3234.86,-77.7344 3224.41,-79.5231 3233.69,-84.637 3234.86,-77.7344"/>
</g>
<!-- Node48&#45;&gt;Node45 -->
<g id="edge134" class="edge"><title>Node48&#45;&gt;Node45</title>
<path fill="none" stroke="midnightblue" d="M2863.92,-116.497C2926.47,-106.529 3020.42,-91.5591 3086.08,-81.0973"/>
<polygon fill="midnightblue" stroke="midnightblue" points="3086.63,-84.5531 3095.96,-79.5231 3085.53,-77.6403 3086.63,-84.5531"/>
</g>
</g>
</svg>
