<?xml version="1.0" encoding="UTF-8" standalone="no"?>
<!DOCTYPE svg PUBLIC "-//W3C//DTD SVG 1.1//EN"
 "http://www.w3.org/Graphics/SVG/1.1/DTD/svg11.dtd">
<!-- Generated by graphviz version 2.26.3 (20100126.1600)
 -->
<!-- Title: G Pages: 1 -->
<svg width="1622pt" height="320pt"
 viewBox="0.00 0.00 1621.91 320.00" xmlns="http://www.w3.org/2000/svg" xmlns:xlink="http://www.w3.org/1999/xlink">
<g id="graph1" class="graph" transform="scale(1 1) rotate(0) translate(4 316)">
<title>G</title>
<polygon fill="white" stroke="white" points="-4,5 -4,-316 1618.91,-316 1618.91,5 -4,5"/>
<!-- Node1 -->
<g id="node1" class="node"><title>Node1</title>
<polygon fill="#bfbfbf" stroke="black" points="407.913,-290.5 407.913,-311.5 771.913,-311.5 771.913,-290.5 407.913,-290.5"/>
<text text-anchor="middle" x="589.913" y="-298.5" font-family="Helvetica,sans-Serif" font-size="10.00">ocra&#45;wbi&#45;plugins/ocra&#45;icub&#45;clients/walking&#45;client/src/MIQPLinearConstraints.cpp</text>
</g>
<!-- Node2 -->
<g id="node3" class="node"><title>Node2</title>
<a xlink:href="MIQPLinearConstraints_8h.html" target="_top" xlink:title="walking&#45;client/constraints/MIQPLinearConstraints.h">
<polygon fill="white" stroke="black" points="469.913,-232.5 469.913,-253.5 709.913,-253.5 709.913,-232.5 469.913,-232.5"/>
<text text-anchor="middle" x="589.913" y="-240.5" font-family="Helvetica,sans-Serif" font-size="10.00">walking&#45;client/constraints/MIQPLinearConstraints.h</text>
</a>
</g>
<!-- Node1&#45;&gt;Node2 -->
<g id="edge2" class="edge"><title>Node1&#45;&gt;Node2</title>
<path fill="none" stroke="midnightblue" d="M589.913,-290.362C589.913,-282.922 589.913,-272.743 589.913,-263.728"/>
<polygon fill="midnightblue" stroke="midnightblue" points="593.413,-263.571 589.913,-253.571 586.413,-263.571 593.413,-263.571"/>
</g>
<!-- Node3 -->
<g id="node5" class="node"><title>Node3</title>
<a xlink:href="ShapeConstraints_8h.html" target="_top" xlink:title="walking&#45;client/constraints/ShapeConstraints.h">
<polygon fill="white" stroke="black" points="193.913,-174.5 193.913,-195.5 409.913,-195.5 409.913,-174.5 193.913,-174.5"/>
<text text-anchor="middle" x="301.913" y="-182.5" font-family="Helvetica,sans-Serif" font-size="10.00">walking&#45;client/constraints/ShapeConstraints.h</text>
</a>
</g>
<!-- Node2&#45;&gt;Node3 -->
<g id="edge4" class="edge"><title>Node2&#45;&gt;Node3</title>
<path fill="none" stroke="midnightblue" d="M537.759,-232.497C488.978,-222.673 416.063,-207.988 364.236,-197.551"/>
<polygon fill="midnightblue" stroke="midnightblue" points="364.66,-194.066 354.166,-195.523 363.278,-200.929 364.66,-194.066"/>
</g>
<!-- Node13 -->
<g id="node28" class="node"><title>Node13</title>
<a xlink:href="AdmissibilityConstraints_8h.html" target="_top" xlink:title="walking&#45;client/constraints/AdmissibilityConstraints.h">
<polygon fill="white" stroke="black" points="756.913,-174.5 756.913,-195.5 1000.91,-195.5 1000.91,-174.5 756.913,-174.5"/>
<text text-anchor="middle" x="878.913" y="-182.5" font-family="Helvetica,sans-Serif" font-size="10.00">walking&#45;client/constraints/AdmissibilityConstraints.h</text>
</a>
</g>
<!-- Node2&#45;&gt;Node13 -->
<g id="edge30" class="edge"><title>Node2&#45;&gt;Node13</title>
<path fill="none" stroke="midnightblue" d="M642.249,-232.497C691.2,-222.673 764.368,-207.988 816.374,-197.551"/>
<polygon fill="midnightblue" stroke="midnightblue" points="817.364,-200.922 826.479,-195.523 815.986,-194.059 817.364,-200.922"/>
</g>
<!-- Node4 -->
<g id="node7" class="node"><title>Node4</title>
<a xlink:href="Constraint_8h.html" target="_top" xlink:title="A constraint base class.">
<polygon fill="white" stroke="black" points="542.413,-58.5 542.413,-79.5 725.413,-79.5 725.413,-58.5 542.413,-58.5"/>
<text text-anchor="middle" x="633.913" y="-66.5" font-family="Helvetica,sans-Serif" font-size="10.00">walking&#45;client/constraints/Constraint.h</text>
</a>
</g>
<!-- Node3&#45;&gt;Node4 -->
<g id="edge6" class="edge"><title>Node3&#45;&gt;Node4</title>
<path fill="none" stroke="midnightblue" d="M193.823,-174.716C114.108,-166.01 17.4164,-152.637 4.91334,-138 -1.43731,-130.565 -1.73801,-123.167 4.91334,-116 22.5563,-96.9896 358.653,-80.373 532.138,-73.0207"/>
<polygon fill="midnightblue" stroke="midnightblue" points="532.464,-76.5102 542.308,-72.5924 532.17,-69.5164 532.464,-76.5102"/>
</g>
<!-- Node10 -->
<g id="node19" class="node"><title>Node10</title>
<a xlink:href="Bounding_8h.html" target="_top" xlink:title="walking&#45;client/constraints/Bounding.h">
<polygon fill="white" stroke="black" points="13.4133,-116.5 13.4133,-137.5 192.413,-137.5 192.413,-116.5 13.4133,-116.5"/>
<text text-anchor="middle" x="102.913" y="-124.5" font-family="Helvetica,sans-Serif" font-size="10.00">walking&#45;client/constraints/Bounding.h</text>
</a>
</g>
<!-- Node3&#45;&gt;Node10 -->
<g id="edge18" class="edge"><title>Node3&#45;&gt;Node10</title>
<path fill="none" stroke="midnightblue" d="M265.876,-174.497C233.012,-164.918 184.296,-150.72 148.689,-140.342"/>
<polygon fill="midnightblue" stroke="midnightblue" points="149.598,-136.961 139.018,-137.523 147.639,-143.681 149.598,-136.961"/>
</g>
<!-- Node11 -->
<g id="node22" class="node"><title>Node11</title>
<a xlink:href="Constancy_8h.html" target="_top" xlink:title="walking&#45;client/constraints/Constancy.h">
<polygon fill="white" stroke="black" points="209.413,-116.5 209.413,-137.5 394.413,-137.5 394.413,-116.5 209.413,-116.5"/>
<text text-anchor="middle" x="301.913" y="-124.5" font-family="Helvetica,sans-Serif" font-size="10.00">walking&#45;client/constraints/Constancy.h</text>
</a>
</g>
<!-- Node3&#45;&gt;Node11 -->
<g id="edge22" class="edge"><title>Node3&#45;&gt;Node11</title>
<path fill="none" stroke="midnightblue" d="M301.913,-174.362C301.913,-166.922 301.913,-156.743 301.913,-147.728"/>
<polygon fill="midnightblue" stroke="midnightblue" points="305.413,-147.571 301.913,-137.571 298.413,-147.571 305.413,-147.571"/>
</g>
<!-- Node12 -->
<g id="node25" class="node"><title>Node12</title>
<a xlink:href="Sequentiality_8h.html" target="_top" xlink:title="walking&#45;client/constraints/Sequentiality.h">
<polygon fill="white" stroke="black" points="411.913,-116.5 411.913,-137.5 605.913,-137.5 605.913,-116.5 411.913,-116.5"/>
<text text-anchor="middle" x="508.913" y="-124.5" font-family="Helvetica,sans-Serif" font-size="10.00">walking&#45;client/constraints/Sequentiality.h</text>
</a>
</g>
<!-- Node3&#45;&gt;Node12 -->
<g id="edge26" class="edge"><title>Node3&#45;&gt;Node12</title>
<path fill="none" stroke="midnightblue" d="M339.399,-174.497C373.584,-164.918 424.259,-150.72 461.297,-140.342"/>
<polygon fill="midnightblue" stroke="midnightblue" points="462.672,-143.591 471.357,-137.523 460.783,-136.851 462.672,-143.591"/>
</g>
<!-- Node5 -->
<g id="node9" class="node"><title>Node5</title>
<a xlink:href="utils_8h.html" target="_top" xlink:title="walking&#45;client/utils.h">
<polygon fill="white" stroke="black" points="344.413,-0.5 344.413,-21.5 449.413,-21.5 449.413,-0.5 344.413,-0.5"/>
<text text-anchor="middle" x="396.913" y="-8.5" font-family="Helvetica,sans-Serif" font-size="10.00">walking&#45;client/utils.h</text>
</a>
</g>
<!-- Node4&#45;&gt;Node5 -->
<g id="edge8" class="edge"><title>Node4&#45;&gt;Node5</title>
<path fill="none" stroke="midnightblue" d="M590.994,-58.4966C551.353,-48.7955 492.346,-34.3547 449.807,-23.9445"/>
<polygon fill="midnightblue" stroke="midnightblue" points="450.458,-20.5006 439.913,-21.5231 448.794,-27.2999 450.458,-20.5006"/>
</g>
<!-- Node6 -->
<g id="node11" class="node"><title>Node6</title>
<polygon fill="white" stroke="#bfbfbf" points="466.413,-0.5 466.413,-21.5 531.413,-21.5 531.413,-0.5 466.413,-0.5"/>
<text text-anchor="middle" x="498.913" y="-8.5" font-family="Helvetica,sans-Serif" font-size="10.00">Eigen/Core</text>
</g>
<!-- Node4&#45;&gt;Node6 -->
<g id="edge10" class="edge"><title>Node4&#45;&gt;Node6</title>
<path fill="none" stroke="midnightblue" d="M609.466,-58.4966C588.096,-49.3154 556.844,-35.8889 533.016,-25.6516"/>
<polygon fill="midnightblue" stroke="midnightblue" points="534.205,-22.3529 523.635,-21.6212 531.441,-28.7845 534.205,-22.3529"/>
</g>
<!-- Node7 -->
<g id="node13" class="node"><title>Node7</title>
<polygon fill="white" stroke="#bfbfbf" points="548.913,-0.5 548.913,-21.5 718.913,-21.5 718.913,-0.5 548.913,-0.5"/>
<text text-anchor="middle" x="633.913" y="-8.5" font-family="Helvetica,sans-Serif" font-size="10.00">unsupported/Eigen/MatrixFunctions</text>
</g>
<!-- Node4&#45;&gt;Node7 -->
<g id="edge12" class="edge"><title>Node4&#45;&gt;Node7</title>
<path fill="none" stroke="midnightblue" d="M633.913,-58.3619C633.913,-50.9219 633.913,-40.7427 633.913,-31.7276"/>
<polygon fill="midnightblue" stroke="midnightblue" points="637.413,-31.5706 633.913,-21.5707 630.413,-31.5707 637.413,-31.5706"/>
</g>
<!-- Node8 -->
<g id="node15" class="node"><title>Node8</title>
<polygon fill="white" stroke="#bfbfbf" points="736.413,-0.5 736.413,-21.5 853.413,-21.5 853.413,-0.5 736.413,-0.5"/>
<text text-anchor="middle" x="794.913" y="-8.5" font-family="Helvetica,sans-Serif" font-size="10.00">ocra/util/ErrorsHelper.h</text>
</g>
<!-- Node4&#45;&gt;Node8 -->
<g id="edge14" class="edge"><title>Node4&#45;&gt;Node8</title>
<path fill="none" stroke="midnightblue" d="M663.069,-58.4966C689.089,-49.1229 727.393,-35.3242 756.017,-25.0122"/>
<polygon fill="midnightblue" stroke="midnightblue" points="757.481,-28.2052 765.703,-21.5231 755.108,-21.6195 757.481,-28.2052"/>
</g>
<!-- Node9 -->
<g id="node17" class="node"><title>Node9</title>
<polygon fill="white" stroke="#bfbfbf" points="870.913,-0.5 870.913,-21.5 922.913,-21.5 922.913,-0.5 870.913,-0.5"/>
<text text-anchor="middle" x="896.913" y="-8.5" font-family="Helvetica,sans-Serif" font-size="10.00">memory</text>
</g>
<!-- Node4&#45;&gt;Node9 -->
<g id="edge16" class="edge"><title>Node4&#45;&gt;Node9</title>
<path fill="none" stroke="midnightblue" d="M693.343,-58.4563C737.229,-50.2807 798.576,-38.0412 860.655,-22.157"/>
<polygon fill="midnightblue" stroke="midnightblue" points="861.819,-25.4712 870.623,-19.5765 860.064,-18.6947 861.819,-25.4712"/>
</g>
<!-- Node10&#45;&gt;Node4 -->
<g id="edge20" class="edge"><title>Node10&#45;&gt;Node4</title>
<path fill="none" stroke="midnightblue" d="M192.634,-116.916C195.425,-116.607 198.191,-116.301 200.913,-116 314.353,-103.477 444.542,-89.3831 532.299,-79.9238"/>
<polygon fill="midnightblue" stroke="midnightblue" points="532.685,-83.4025 542.252,-78.8511 531.935,-76.4428 532.685,-83.4025"/>
</g>
<!-- Node11&#45;&gt;Node4 -->
<g id="edge24" class="edge"><title>Node11&#45;&gt;Node4</title>
<path fill="none" stroke="midnightblue" d="M362.036,-116.497C418.738,-106.591 503.727,-91.7433 563.557,-81.2911"/>
<polygon fill="midnightblue" stroke="midnightblue" points="564.429,-84.6918 573.678,-79.5231 563.225,-77.7963 564.429,-84.6918"/>
</g>
<!-- Node12&#45;&gt;Node4 -->
<g id="edge28" class="edge"><title>Node12&#45;&gt;Node4</title>
<path fill="none" stroke="midnightblue" d="M531.55,-116.497C551.161,-107.397 579.76,-94.1273 601.747,-83.9253"/>
<polygon fill="midnightblue" stroke="midnightblue" points="603.425,-87.0051 611.023,-79.6212 600.479,-80.6554 603.425,-87.0051"/>
</g>
<!-- Node13&#45;&gt;Node4 -->
<g id="edge32" class="edge"><title>Node13&#45;&gt;Node4</title>
<path fill="none" stroke="midnightblue" d="M778.726,-174.489C727.237,-167.116 671.471,-155.413 652.913,-138 639.789,-125.686 635.434,-105.218 634.126,-89.7645"/>
<polygon fill="midnightblue" stroke="midnightblue" points="637.613,-89.4048 633.63,-79.5869 630.621,-89.7453 637.613,-89.4048"/>
</g>
<!-- Node14 -->
<g id="node31" class="node"><title>Node14</title>
<a xlink:href="SSDSAlternation_8h.html" target="_top" xlink:title="walking&#45;client/constraints/SSDSAlternation.h">
<polygon fill="white" stroke="black" points="661.913,-116.5 661.913,-137.5 873.913,-137.5 873.913,-116.5 661.913,-116.5"/>
<text text-anchor="middle" x="767.913" y="-124.5" font-family="Helvetica,sans-Serif" font-size="10.00">walking&#45;client/constraints/SSDSAlternation.h</text>
</a>
</g>
<!-- Node13&#45;&gt;Node14 -->
<g id="edge34" class="edge"><title>Node13&#45;&gt;Node14</title>
<path fill="none" stroke="midnightblue" d="M858.812,-174.497C841.631,-165.519 816.684,-152.484 797.268,-142.339"/>
<polygon fill="midnightblue" stroke="midnightblue" points="798.724,-139.15 788.24,-137.621 795.482,-145.354 798.724,-139.15"/>
</g>
<!-- Node15 -->
<g id="node34" class="node"><title>Node15</title>
<a xlink:href="SingleSupport_8h.html" target="_top" xlink:title="walking&#45;client/constraints/SingleSupport.h">
<polygon fill="white" stroke="black" points="891.413,-116.5 891.413,-137.5 1090.41,-137.5 1090.41,-116.5 891.413,-116.5"/>
<text text-anchor="middle" x="990.913" y="-124.5" font-family="Helvetica,sans-Serif" font-size="10.00">walking&#45;client/constraints/SingleSupport.h</text>
</a>
</g>
<!-- Node13&#45;&gt;Node15 -->
<g id="edge38" class="edge"><title>Node13&#45;&gt;Node15</title>
<path fill="none" stroke="midnightblue" d="M899.196,-174.497C916.531,-165.519 941.704,-152.484 961.294,-142.339"/>
<polygon fill="midnightblue" stroke="midnightblue" points="963.133,-145.328 970.403,-137.621 959.914,-139.112 963.133,-145.328"/>
</g>
<!-- Node16 -->
<g id="node37" class="node"><title>Node16</title>
<a xlink:href="ContactConfigHistory_8h.html" target="_top" xlink:title="walking&#45;client/constraints/ContactConfigHistory.h">
<polygon fill="white" stroke="black" points="1107.41,-116.5 1107.41,-137.5 1340.41,-137.5 1340.41,-116.5 1107.41,-116.5"/>
<text text-anchor="middle" x="1223.91" y="-124.5" font-family="Helvetica,sans-Serif" font-size="10.00">walking&#45;client/constraints/ContactConfigHistory.h</text>
</a>
</g>
<!-- Node13&#45;&gt;Node16 -->
<g id="edge42" class="edge"><title>Node13&#45;&gt;Node16</title>
<path fill="none" stroke="midnightblue" d="M941.39,-174.497C1000.43,-164.57 1088.99,-149.682 1151.19,-139.226"/>
<polygon fill="midnightblue" stroke="midnightblue" points="1152.04,-142.633 1161.32,-137.523 1150.88,-135.729 1152.04,-142.633"/>
</g>
<!-- Node17 -->
<g id="node40" class="node"><title>Node17</title>
<a xlink:href="ContactConfigEnforcement_8h.html" target="_top" xlink:title="walking&#45;client/constraints/ContactConfigEnforcement.h">
<polygon fill="white" stroke="black" points="1357.41,-116.5 1357.41,-137.5 1614.41,-137.5 1614.41,-116.5 1357.41,-116.5"/>
<text text-anchor="middle" x="1485.91" y="-124.5" font-family="Helvetica,sans-Serif" font-size="10.00">walking&#45;client/constraints/ContactConfigEnforcement.h</text>
</a>
</g>
<!-- Node13&#45;&gt;Node17 -->
<g id="edge46" class="edge"><title>Node13&#45;&gt;Node17</title>
<path fill="none" stroke="midnightblue" d="M988.836,-174.497C1095.18,-164.335 1255.95,-148.973 1365.66,-138.49"/>
<polygon fill="midnightblue" stroke="midnightblue" points="1366.16,-141.958 1375.78,-137.523 1365.5,-134.99 1366.16,-141.958"/>
</g>
<!-- Node14&#45;&gt;Node4 -->
<g id="edge36" class="edge"><title>Node14&#45;&gt;Node4</title>
<path fill="none" stroke="midnightblue" d="M743.647,-116.497C722.435,-107.315 691.415,-93.8889 667.764,-83.6516"/>
<polygon fill="midnightblue" stroke="midnightblue" points="669.02,-80.3815 658.452,-79.6212 666.239,-86.8055 669.02,-80.3815"/>
</g>
<!-- Node15&#45;&gt;Node4 -->
<g id="edge40" class="edge"><title>Node15&#45;&gt;Node4</title>
<path fill="none" stroke="midnightblue" d="M926.263,-116.497C865.039,-106.55 773.147,-91.6205 708.771,-81.1618"/>
<polygon fill="midnightblue" stroke="midnightblue" points="709.116,-77.6721 698.685,-79.5231 707.994,-84.5815 709.116,-77.6721"/>
</g>
<!-- Node16&#45;&gt;Node4 -->
<g id="edge44" class="edge"><title>Node16&#45;&gt;Node4</title>
<path fill="none" stroke="midnightblue" d="M1117.07,-116.497C1008.66,-105.839 842.059,-89.4618 735.556,-78.992"/>
<polygon fill="midnightblue" stroke="midnightblue" points="735.735,-75.4928 725.441,-77.9976 735.05,-82.4593 735.735,-75.4928"/>
</g>
<!-- Node17&#45;&gt;Node4 -->
<g id="edge48" class="edge"><title>Node17&#45;&gt;Node4</title>
<path fill="none" stroke="midnightblue" d="M1357.21,-116.611C1354.42,-116.404 1351.65,-116.2 1348.91,-116 1130.59,-100.06 874.571,-83.8264 735.84,-75.2344"/>
<polygon fill="midnightblue" stroke="midnightblue" points="735.845,-71.7281 725.648,-74.6039 735.413,-78.7148 735.845,-71.7281"/>
</g>
</g>
</svg>
