<?xml version="1.0" encoding="UTF-8" standalone="no"?>
<!DOCTYPE svg PUBLIC "-//W3C//DTD SVG 1.1//EN"
 "http://www.w3.org/Graphics/SVG/1.1/DTD/svg11.dtd">
<!-- Generated by graphviz version 2.26.3 (20100126.1600)
 -->
<!-- Title: G Pages: 1 -->
<svg width="3324pt" height="494pt"
 viewBox="0.00 0.00 3324.00 494.00" xmlns="http://www.w3.org/2000/svg" xmlns:xlink="http://www.w3.org/1999/xlink">
<g id="graph1" class="graph" transform="scale(1 1) rotate(0) translate(4 490)">
<title>G</title>
<polygon fill="white" stroke="white" points="-4,5 -4,-490 3321,-490 3321,5 -4,5"/>
<!-- Node1 -->
<g id="node1" class="node"><title>Node1</title>
<polygon fill="#bfbfbf" stroke="black" points="1447.5,-464.5 1447.5,-485.5 1776.5,-485.5 1776.5,-464.5 1447.5,-464.5"/>
<text text-anchor="middle" x="1612" y="-472.5" font-family="Helvetica,sans-Serif" font-size="10.00">ocra&#45;wbi&#45;plugins/ocra&#45;icub&#45;clients/walking&#45;client/src/MIQPController.cpp</text>
</g>
<!-- Node2 -->
<g id="node3" class="node"><title>Node2</title>
<a xlink:href="MIQPController_8h.html" target="_top" xlink:title="A thread for launching trajectory generators.">
<polygon fill="white" stroke="black" points="1534.5,-406.5 1534.5,-427.5 1689.5,-427.5 1689.5,-406.5 1534.5,-406.5"/>
<text text-anchor="middle" x="1612" y="-414.5" font-family="Helvetica,sans-Serif" font-size="10.00">walking&#45;client/MIQPController.h</text>
</a>
</g>
<!-- Node1&#45;&gt;Node2 -->
<g id="edge2" class="edge"><title>Node1&#45;&gt;Node2</title>
<path fill="none" stroke="midnightblue" d="M1612,-464.362C1612,-456.922 1612,-446.743 1612,-437.728"/>
<polygon fill="midnightblue" stroke="midnightblue" points="1615.5,-437.571 1612,-427.571 1608.5,-437.571 1615.5,-437.571"/>
</g>
<!-- Node3 -->
<g id="node5" class="node"><title>Node3</title>
<polygon fill="white" stroke="#bfbfbf" points="409,-348.5 409,-369.5 483,-369.5 483,-348.5 409,-348.5"/>
<text text-anchor="middle" x="446" y="-356.5" font-family="Helvetica,sans-Serif" font-size="10.00">gurobi_c++.h</text>
</g>
<!-- Node2&#45;&gt;Node3 -->
<g id="edge4" class="edge"><title>Node2&#45;&gt;Node3</title>
<path fill="none" stroke="midnightblue" d="M1534.14,-415.445C1315.39,-410.799 698.069,-395.731 497,-370 495.737,-369.838 494.458,-369.661 493.17,-369.471"/>
<polygon fill="midnightblue" stroke="midnightblue" points="493.64,-366.001 483.197,-367.788 492.475,-372.903 493.64,-366.001"/>
</g>
<!-- Node4 -->
<g id="node7" class="node"><title>Node4</title>
<a xlink:href="utils_8h.html" target="_top" xlink:title="walking&#45;client/utils.h">
<polygon fill="white" stroke="black" points="2503.5,-116.5 2503.5,-137.5 2608.5,-137.5 2608.5,-116.5 2503.5,-116.5"/>
<text text-anchor="middle" x="2556" y="-124.5" font-family="Helvetica,sans-Serif" font-size="10.00">walking&#45;client/utils.h</text>
</a>
</g>
<!-- Node2&#45;&gt;Node4 -->
<g id="edge6" class="edge"><title>Node2&#45;&gt;Node4</title>
<path fill="none" stroke="midnightblue" d="M1689.51,-415.572C2012.67,-409.119 3236,-379.505 3236,-301 3236,-301 3236,-301 3236,-243 3236,-146.866 3124.99,-194.195 3031,-174 2885.51,-142.738 2710.4,-132.208 2618.82,-128.707"/>
<polygon fill="midnightblue" stroke="midnightblue" points="2618.73,-125.201 2608.61,-128.333 2618.47,-132.197 2618.73,-125.201"/>
</g>
<!-- Node6 -->
<g id="node11" class="node"><title>Node6</title>
<a xlink:href="OcraWbiModel_8h.html" target="_top" xlink:title="Implementation of ocra::Model using wholeBodyInterface.">
<polygon fill="white" stroke="black" points="1413,-174.5 1413,-195.5 1545,-195.5 1545,-174.5 1413,-174.5"/>
<text text-anchor="middle" x="1479" y="-182.5" font-family="Helvetica,sans-Serif" font-size="10.00">ocra&#45;icub/OcraWbiModel.h</text>
</a>
</g>
<!-- Node2&#45;&gt;Node6 -->
<g id="edge10" class="edge"><title>Node2&#45;&gt;Node6</title>
<path fill="none" stroke="midnightblue" d="M1605.94,-406.429C1585.25,-370.346 1517.23,-251.683 1490.21,-204.55"/>
<polygon fill="midnightblue" stroke="midnightblue" points="1493.11,-202.568 1485.1,-195.634 1487.03,-206.05 1493.11,-202.568"/>
</g>
<!-- Node22 -->
<g id="node49" class="node"><title>Node22</title>
<polygon fill="white" stroke="#bfbfbf" points="-0.5,-0.5 -0.5,-21.5 110.5,-21.5 110.5,-0.5 -0.5,-0.5"/>
<text text-anchor="middle" x="55" y="-8.5" font-family="Helvetica,sans-Serif" font-size="10.00">yarp/os/RateThread.h</text>
</g>
<!-- Node2&#45;&gt;Node22 -->
<g id="edge92" class="edge"><title>Node2&#45;&gt;Node22</title>
<path fill="none" stroke="midnightblue" d="M1534.22,-414.999C1351.31,-409.933 898.001,-395.181 748,-370 639.807,-351.837 511,-410.707 511,-301 511,-301 511,-301 511,-127 511,-106.918 241.86,-49.2267 117.118,-23.5663"/>
<polygon fill="midnightblue" stroke="midnightblue" points="117.808,-20.1352 107.309,-21.5534 116.401,-26.9923 117.808,-20.1352"/>
</g>
<!-- Node33 -->
<g id="node75" class="node"><title>Node33</title>
<polygon fill="white" stroke="#bfbfbf" points="2375.5,-0.5 2375.5,-21.5 2448.5,-21.5 2448.5,-0.5 2375.5,-0.5"/>
<text text-anchor="middle" x="2412" y="-8.5" font-family="Helvetica,sans-Serif" font-size="10.00">Eigen/Dense</text>
</g>
<!-- Node2&#45;&gt;Node33 -->
<g id="edge94" class="edge"><title>Node2&#45;&gt;Node33</title>
<path fill="none" stroke="midnightblue" d="M1597.82,-406.408C1587.65,-397.861 1574.77,-384.845 1569,-370 1553.78,-330.806 1549.54,-300.003 1595,-232 1644.82,-157.476 1677.7,-151.523 1760,-116 2007.58,-9.14103 2096.02,-68.1016 2365.18,-22.1465"/>
<polygon fill="midnightblue" stroke="midnightblue" points="2365.99,-25.558 2375.25,-20.3941 2364.79,-18.6618 2365.99,-25.558"/>
</g>
<!-- Node34 -->
<g id="node77" class="node"><title>Node34</title>
<polygon fill="white" stroke="#bfbfbf" points="128,-0.5 128,-21.5 196,-21.5 196,-0.5 128,-0.5"/>
<text text-anchor="middle" x="162" y="-8.5" font-family="Helvetica,sans-Serif" font-size="10.00">Eigen/Lgsm</text>
</g>
<!-- Node2&#45;&gt;Node34 -->
<g id="edge96" class="edge"><title>Node2&#45;&gt;Node34</title>
<path fill="none" stroke="midnightblue" d="M1534.27,-412.592C1289.21,-398.187 549,-350.573 549,-301 549,-301 549,-301 549,-127 549,-94.5312 550.368,-78.2654 525,-58 471.329,-15.1243 290.678,-33.2778 206.223,-21.7947"/>
<polygon fill="midnightblue" stroke="midnightblue" points="206.599,-18.3107 196.173,-20.1967 205.499,-25.2238 206.599,-18.3107"/>
</g>
<!-- Node35 -->
<g id="node80" class="node"><title>Node35</title>
<polygon fill="white" stroke="#bfbfbf" points="1639.5,-348.5 1639.5,-369.5 1764.5,-369.5 1764.5,-348.5 1639.5,-348.5"/>
<text text-anchor="middle" x="1702" y="-356.5" font-family="Helvetica,sans-Serif" font-size="10.00">ocra/util/FileOperations.h</text>
</g>
<!-- Node2&#45;&gt;Node35 -->
<g id="edge90" class="edge"><title>Node2&#45;&gt;Node35</title>
<path fill="none" stroke="midnightblue" d="M1628.51,-406.362C1642.08,-397.614 1661.53,-385.079 1677.01,-375.101"/>
<polygon fill="midnightblue" stroke="midnightblue" points="1679.09,-377.93 1685.6,-369.571 1675.3,-372.046 1679.09,-377.93"/>
</g>
<!-- Node36 -->
<g id="node85" class="node"><title>Node36</title>
<polygon fill="white" stroke="#bfbfbf" points="2185,-116.5 2185,-137.5 2355,-137.5 2355,-116.5 2185,-116.5"/>
<text text-anchor="middle" x="2270" y="-124.5" font-family="Helvetica,sans-Serif" font-size="10.00">unsupported/Eigen/MatrixFunctions</text>
</g>
<!-- Node2&#45;&gt;Node36 -->
<g id="edge98" class="edge"><title>Node2&#45;&gt;Node36</title>
<path fill="none" stroke="midnightblue" d="M1670.05,-406.455C1710.14,-398.021 1758.7,-385.129 1773,-370 1816.25,-324.247 1760.35,-276.391 1805,-232 1856.31,-180.99 2054.42,-150.68 2174.88,-136.589"/>
<polygon fill="midnightblue" stroke="midnightblue" points="2175.32,-140.061 2184.85,-135.439 2174.52,-133.108 2175.32,-140.061"/>
</g>
<!-- Node37 -->
<g id="node87" class="node"><title>Node37</title>
<a xlink:href="MIQPLinearConstraints_8h.html" target="_top" xlink:title="walking&#45;client/constraints/MIQPLinearConstraints.h">
<polygon fill="white" stroke="black" points="2491,-348.5 2491,-369.5 2731,-369.5 2731,-348.5 2491,-348.5"/>
<text text-anchor="middle" x="2611" y="-356.5" font-family="Helvetica,sans-Serif" font-size="10.00">walking&#45;client/constraints/MIQPLinearConstraints.h</text>
</a>
</g>
<!-- Node2&#45;&gt;Node37 -->
<g id="edge100" class="edge"><title>Node2&#45;&gt;Node37</title>
<path fill="none" stroke="midnightblue" d="M1689.56,-412.497C1860.17,-402.592 2269.59,-378.822 2480.51,-366.576"/>
<polygon fill="midnightblue" stroke="midnightblue" points="2480.93,-370.058 2490.71,-365.984 2480.53,-363.069 2480.93,-370.058"/>
</g>
<!-- Node49 -->
<g id="node122" class="node"><title>Node49</title>
<a xlink:href="MIQPState_8h.html" target="_top" xlink:title="walking&#45;client/MIQPState.h">
<polygon fill="white" stroke="black" points="1604,-232.5 1604,-253.5 1740,-253.5 1740,-232.5 1604,-232.5"/>
<text text-anchor="middle" x="1672" y="-240.5" font-family="Helvetica,sans-Serif" font-size="10.00">walking&#45;client/MIQPState.h</text>
</a>
</g>
<!-- Node2&#45;&gt;Node49 -->
<g id="edge164" class="edge"><title>Node2&#45;&gt;Node49</title>
<path fill="none" stroke="midnightblue" d="M1614.62,-406.14C1618,-392.458 1624.27,-368.283 1631,-348 1640.97,-317.97 1654.7,-283.989 1663.46,-263.027"/>
<polygon fill="midnightblue" stroke="midnightblue" points="1666.78,-264.173 1667.44,-253.598 1660.33,-261.453 1666.78,-264.173"/>
</g>
<!-- Node50 -->
<g id="node133" class="node"><title>Node50</title>
<polygon fill="white" stroke="#bfbfbf" points="3263.5,-348.5 3263.5,-369.5 3316.5,-369.5 3316.5,-348.5 3263.5,-348.5"/>
<text text-anchor="middle" x="3290" y="-356.5" font-family="Helvetica,sans-Serif" font-size="10.00">Gurobi.h</text>
</g>
<!-- Node2&#45;&gt;Node50 -->
<g id="edge166" class="edge"><title>Node2&#45;&gt;Node50</title>
<path fill="none" stroke="midnightblue" d="M1689.59,-415.866C1993.65,-411.274 3095.03,-393.187 3250,-370 3251.07,-369.84 3252.15,-369.661 3253.24,-369.466"/>
<polygon fill="midnightblue" stroke="midnightblue" points="3254.04,-372.874 3263.08,-367.346 3252.56,-366.031 3254.04,-372.874"/>
</g>
<!-- Node5 -->
<g id="node9" class="node"><title>Node5</title>
<polygon fill="white" stroke="#bfbfbf" points="2535.5,-0.5 2535.5,-21.5 2576.5,-21.5 2576.5,-0.5 2535.5,-0.5"/>
<text text-anchor="middle" x="2556" y="-8.5" font-family="Helvetica,sans-Serif" font-size="10.00">string</text>
</g>
<!-- Node4&#45;&gt;Node5 -->
<g id="edge8" class="edge"><title>Node4&#45;&gt;Node5</title>
<path fill="none" stroke="midnightblue" d="M2556,-116.295C2556,-97.1314 2556,-56.654 2556,-31.8434"/>
<polygon fill="midnightblue" stroke="midnightblue" points="2559.5,-31.6792 2556,-21.6792 2552.5,-31.6792 2559.5,-31.6792"/>
</g>
<!-- Node7 -->
<g id="node13" class="node"><title>Node7</title>
<polygon fill="white" stroke="#bfbfbf" points="2466,-0.5 2466,-21.5 2518,-21.5 2518,-0.5 2466,-0.5"/>
<text text-anchor="middle" x="2492" y="-8.5" font-family="Helvetica,sans-Serif" font-size="10.00">memory</text>
</g>
<!-- Node6&#45;&gt;Node7 -->
<g id="edge12" class="edge"><title>Node6&#45;&gt;Node7</title>
<path fill="none" stroke="midnightblue" d="M1540.7,-174.446C1620.42,-160.83 1763.53,-136.461 1886,-116 2136.46,-74.1543 2205.07,-81.4 2455.97,-22.0157"/>
<polygon fill="midnightblue" stroke="midnightblue" points="2456.82,-25.411 2465.74,-19.6916 2455.2,-18.601 2456.82,-25.411"/>
</g>
<!-- Node8 -->
<g id="node15" class="node"><title>Node8</title>
<polygon fill="white" stroke="#bfbfbf" points="2253.5,-0.5 2253.5,-21.5 2358.5,-21.5 2358.5,-0.5 2253.5,-0.5"/>
<text text-anchor="middle" x="2306" y="-8.5" font-family="Helvetica,sans-Serif" font-size="10.00">ocra/control/Model.h</text>
</g>
<!-- Node6&#45;&gt;Node8 -->
<g id="edge14" class="edge"><title>Node6&#45;&gt;Node8</title>
<path fill="none" stroke="midnightblue" d="M1484.11,-174.323C1497.79,-146.26 1535.74,-71.6472 1559,-58 1622.58,-20.6981 2132.53,-30.0685 2243.27,-21.8445"/>
<polygon fill="midnightblue" stroke="midnightblue" points="2243.85,-25.3056 2253.49,-20.9024 2243.21,-18.3352 2243.85,-25.3056"/>
</g>
<!-- Node9 -->
<g id="node17" class="node"><title>Node9</title>
<polygon fill="white" stroke="#bfbfbf" points="2178,-0.5 2178,-21.5 2236,-21.5 2236,-0.5 2178,-0.5"/>
<text text-anchor="middle" x="2207" y="-8.5" font-family="Helvetica,sans-Serif" font-size="10.00">wbi/wbi.h</text>
</g>
<!-- Node6&#45;&gt;Node9 -->
<g id="edge16" class="edge"><title>Node6&#45;&gt;Node9</title>
<path fill="none" stroke="midnightblue" d="M1478.85,-174.238C1479.14,-149.104 1483.75,-86.5184 1521,-58 1576.24,-15.7026 2061.95,-32.7796 2167.69,-21.5397"/>
<polygon fill="midnightblue" stroke="midnightblue" points="2168.25,-24.9957 2177.69,-20.194 2167.32,-18.0581 2168.25,-24.9957"/>
</g>
<!-- Node10 -->
<g id="node19" class="node"><title>Node10</title>
<polygon fill="white" stroke="#bfbfbf" points="214,-0.5 214,-21.5 290,-21.5 290,-0.5 214,-0.5"/>
<text text-anchor="middle" x="252" y="-8.5" font-family="Helvetica,sans-Serif" font-size="10.00">yarp/os/Log.h</text>
</g>
<!-- Node6&#45;&gt;Node10 -->
<g id="edge18" class="edge"><title>Node6&#45;&gt;Node10</title>
<path fill="none" stroke="midnightblue" d="M1412.83,-182.857C1236.23,-176.881 762.566,-159.076 695,-138 678.628,-132.893 579.167,-63.7225 563,-58 454.42,-19.5673 417.469,-42.1963 300.237,-22.0506"/>
<polygon fill="midnightblue" stroke="midnightblue" points="300.616,-18.563 290.156,-20.2479 299.384,-25.4537 300.616,-18.563"/>
</g>
<!-- Node11 -->
<g id="node21" class="node"><title>Node11</title>
<a xlink:href="OcraWbiConversions_8h.html" target="_top" xlink:title="A utility class full of static conversion functions.">
<polygon fill="white" stroke="black" points="703.5,-116.5 703.5,-137.5 864.5,-137.5 864.5,-116.5 703.5,-116.5"/>
<text text-anchor="middle" x="784" y="-124.5" font-family="Helvetica,sans-Serif" font-size="10.00">ocra&#45;icub/OcraWbiConversions.h</text>
</a>
</g>
<!-- Node6&#45;&gt;Node11 -->
<g id="edge20" class="edge"><title>Node6&#45;&gt;Node11</title>
<path fill="none" stroke="midnightblue" d="M1412.99,-179.491C1287.99,-169.06 1016.6,-146.411 874.648,-134.565"/>
<polygon fill="midnightblue" stroke="midnightblue" points="874.912,-131.075 864.656,-133.731 874.33,-138.051 874.912,-131.075"/>
</g>
<!-- Node17 -->
<g id="node35" class="node"><title>Node17</title>
<a xlink:href="Utilities_8h.html" target="_top" xlink:title="Some useful tools for the ocra&#45;icub lib.">
<polygon fill="white" stroke="black" points="1330.5,-58.5 1330.5,-79.5 1431.5,-79.5 1431.5,-58.5 1330.5,-58.5"/>
<text text-anchor="middle" x="1381" y="-66.5" font-family="Helvetica,sans-Serif" font-size="10.00">ocra&#45;icub/Utilities.h</text>
</a>
</g>
<!-- Node6&#45;&gt;Node17 -->
<g id="edge88" class="edge"><title>Node6&#45;&gt;Node17</title>
<path fill="none" stroke="midnightblue" d="M1469.96,-174.295C1453.26,-154.527 1417.4,-112.08 1396.67,-87.5443"/>
<polygon fill="midnightblue" stroke="midnightblue" points="1399.15,-85.0593 1390.02,-79.6792 1393.8,-89.5768 1399.15,-85.0593"/>
</g>
<!-- Node11&#45;&gt;Node9 -->
<g id="edge32" class="edge"><title>Node11&#45;&gt;Node9</title>
<path fill="none" stroke="midnightblue" d="M864.643,-125.236C1015.32,-121.279 1333.94,-109.606 1440,-80 1460.68,-74.2282 1462.27,-63.5741 1483,-58 1774.67,20.4243 1865.98,-70.7795 2167.79,-21.8471"/>
<polygon fill="midnightblue" stroke="midnightblue" points="2168.4,-25.2931 2177.7,-20.2031 2167.26,-18.3875 2168.4,-25.2931"/>
</g>
<!-- Node11&#45;&gt;Node10 -->
<g id="edge30" class="edge"><title>Node11&#45;&gt;Node10</title>
<path fill="none" stroke="midnightblue" d="M743.767,-116.438C714.184,-108.081 673.325,-95.2926 639,-80 621.174,-72.0581 619.514,-64.1707 601,-58 475.894,-16.302 434.161,-44.008 300.367,-22.0463"/>
<polygon fill="midnightblue" stroke="midnightblue" points="300.593,-18.5343 290.146,-20.3023 299.415,-25.4346 300.593,-18.5343"/>
</g>
<!-- Node12 -->
<g id="node23" class="node"><title>Node12</title>
<polygon fill="white" stroke="#bfbfbf" points="308,-0.5 308,-21.5 362,-21.5 362,-0.5 308,-0.5"/>
<text text-anchor="middle" x="335" y="-8.5" font-family="Helvetica,sans-Serif" font-size="10.00">iostream</text>
</g>
<!-- Node11&#45;&gt;Node12 -->
<g id="edge22" class="edge"><title>Node11&#45;&gt;Node12</title>
<path fill="none" stroke="midnightblue" d="M757.679,-116.398C735.786,-107.352 703.962,-93.6735 677,-80 659.595,-71.1734 657.467,-64.3083 639,-58 528.27,-20.1758 490.41,-46.1889 371.817,-21.857"/>
<polygon fill="midnightblue" stroke="midnightblue" points="372.511,-18.4264 362.002,-19.7672 371.054,-25.273 372.511,-18.4264"/>
</g>
<!-- Node13 -->
<g id="node25" class="node"><title>Node13</title>
<polygon fill="white" stroke="#bfbfbf" points="766.5,-58.5 766.5,-79.5 801.5,-79.5 801.5,-58.5 766.5,-58.5"/>
<text text-anchor="middle" x="784" y="-66.5" font-family="Helvetica,sans-Serif" font-size="10.00">map</text>
</g>
<!-- Node11&#45;&gt;Node13 -->
<g id="edge24" class="edge"><title>Node11&#45;&gt;Node13</title>
<path fill="none" stroke="midnightblue" d="M784,-116.362C784,-108.922 784,-98.7427 784,-89.7276"/>
<polygon fill="midnightblue" stroke="midnightblue" points="787.5,-89.5706 784,-79.5707 780.5,-89.5707 787.5,-89.5706"/>
</g>
<!-- Node14 -->
<g id="node27" class="node"><title>Node14</title>
<polygon fill="white" stroke="#bfbfbf" points="380,-0.5 380,-21.5 424,-21.5 424,-0.5 380,-0.5"/>
<text text-anchor="middle" x="402" y="-8.5" font-family="Helvetica,sans-Serif" font-size="10.00">vector</text>
</g>
<!-- Node11&#45;&gt;Node14 -->
<g id="edge26" class="edge"><title>Node11&#45;&gt;Node14</title>
<path fill="none" stroke="midnightblue" d="M768.291,-116.343C741.008,-97.9133 686.828,-61.6949 677,-58 577.4,-20.5536 541.488,-46.8108 434.114,-21.8598"/>
<polygon fill="midnightblue" stroke="midnightblue" points="434.735,-18.4093 424.193,-19.4576 433.088,-25.2127 434.735,-18.4093"/>
</g>
<!-- Node15 -->
<g id="node29" class="node"><title>Node15</title>
<polygon fill="white" stroke="#bfbfbf" points="441.5,-0.5 441.5,-21.5 532.5,-21.5 532.5,-0.5 441.5,-0.5"/>
<text text-anchor="middle" x="487" y="-8.5" font-family="Helvetica,sans-Serif" font-size="10.00">yarp/sig/Vector.h</text>
</g>
<!-- Node11&#45;&gt;Node15 -->
<g id="edge28" class="edge"><title>Node11&#45;&gt;Node15</title>
<path fill="none" stroke="midnightblue" d="M776.653,-116.449C765.308,-101.017 741.992,-72.5484 715,-58 714.036,-57.4806 609.832,-36.1135 542.648,-22.3709"/>
<polygon fill="midnightblue" stroke="midnightblue" points="543.111,-18.8934 532.613,-20.3187 541.709,-25.7514 543.111,-18.8934"/>
</g>
<!-- Node16 -->
<g id="node33" class="node"><title>Node16</title>
<polygon fill="white" stroke="#bfbfbf" points="819,-58.5 819,-79.5 1061,-79.5 1061,-58.5 819,-58.5"/>
<text text-anchor="middle" x="940" y="-66.5" font-family="Helvetica,sans-Serif" font-size="10.00">yarpWholeBodyInterface/yarpWholeBodyInterface.h</text>
</g>
<!-- Node11&#45;&gt;Node16 -->
<g id="edge34" class="edge"><title>Node11&#45;&gt;Node16</title>
<path fill="none" stroke="midnightblue" d="M812.25,-116.497C837.462,-107.123 874.576,-93.3242 902.312,-83.0122"/>
<polygon fill="midnightblue" stroke="midnightblue" points="903.543,-86.2886 911.697,-79.5231 901.104,-79.7274 903.543,-86.2886"/>
</g>
<!-- Node11&#45;&gt;Node17 -->
<g id="edge36" class="edge"><title>Node11&#45;&gt;Node17</title>
<path fill="none" stroke="midnightblue" d="M864.514,-119.178C985.532,-107.421 1211.66,-85.4521 1320.03,-74.9234"/>
<polygon fill="midnightblue" stroke="midnightblue" points="1320.53,-78.3916 1330.14,-73.9409 1319.85,-71.4244 1320.53,-78.3916"/>
</g>
<!-- Node17&#45;&gt;Node5 -->
<g id="edge44" class="edge"><title>Node17&#45;&gt;Node5</title>
<path fill="none" stroke="midnightblue" d="M1431.59,-67.8812C1633.8,-63.2828 2379.68,-45.0681 2525.2,-21.5987"/>
<polygon fill="midnightblue" stroke="midnightblue" points="2526.12,-24.9888 2535.33,-19.7538 2524.86,-18.1021 2526.12,-24.9888"/>
</g>
<!-- Node17&#45;&gt;Node7 -->
<g id="edge38" class="edge"><title>Node17&#45;&gt;Node7</title>
<path fill="none" stroke="midnightblue" d="M1431.82,-67.5594C1626.13,-61.9471 2317.72,-40.9892 2455.83,-21.6084"/>
<polygon fill="midnightblue" stroke="midnightblue" points="2456.48,-25.0497 2465.81,-20.0377 2455.39,-18.1348 2456.48,-25.0497"/>
</g>
<!-- Node17&#45;&gt;Node8 -->
<g id="edge80" class="edge"><title>Node17&#45;&gt;Node8</title>
<path fill="none" stroke="midnightblue" d="M1431.52,-64.6783C1458.13,-62.4912 1491.32,-59.9037 1521,-58 1839.22,-37.5913 1923.2,-58.2314 2243.46,-22.0544"/>
<polygon fill="midnightblue" stroke="midnightblue" points="2243.95,-25.5212 2253.49,-20.9116 2243.16,-18.5662 2243.95,-25.5212"/>
</g>
<!-- Node17&#45;&gt;Node9 -->
<g id="edge78" class="edge"><title>Node17&#45;&gt;Node9</title>
<path fill="none" stroke="midnightblue" d="M1431.58,-59.7281C1436.11,-59.0732 1440.63,-58.4825 1445,-58 1761.95,-23.0115 1849.45,-74.0818 2167.73,-21.8676"/>
<polygon fill="midnightblue" stroke="midnightblue" points="2168.41,-25.3033 2177.7,-20.2113 2167.26,-18.398 2168.41,-25.3033"/>
</g>
<!-- Node17&#45;&gt;Node10 -->
<g id="edge68" class="edge"><title>Node17&#45;&gt;Node10</title>
<path fill="none" stroke="midnightblue" d="M1330.15,-67.0557C1131.01,-59.4081 410.051,-31.4027 300.377,-21.6432"/>
<polygon fill="midnightblue" stroke="midnightblue" points="300.423,-18.1283 290.108,-20.546 299.68,-25.0887 300.423,-18.1283"/>
</g>
<!-- Node17&#45;&gt;Node12 -->
<g id="edge42" class="edge"><title>Node17&#45;&gt;Node12</title>
<path fill="none" stroke="midnightblue" d="M1330.2,-66.9889C1140.04,-59.4173 476.264,-32.5796 372.505,-21.4643"/>
<polygon fill="midnightblue" stroke="midnightblue" points="372.717,-17.9621 362.346,-20.1271 371.804,-24.9022 372.717,-17.9621"/>
</g>
<!-- Node17&#45;&gt;Node14 -->
<g id="edge46" class="edge"><title>Node17&#45;&gt;Node14</title>
<path fill="none" stroke="midnightblue" d="M1330.41,-66.9005C1148.49,-59.2993 533.385,-33.1433 434.276,-21.2394"/>
<polygon fill="midnightblue" stroke="midnightblue" points="434.54,-17.7402 424.133,-19.7252 433.506,-24.6634 434.54,-17.7402"/>
</g>
<!-- Node17&#45;&gt;Node15 -->
<g id="edge74" class="edge"><title>Node17&#45;&gt;Node15</title>
<path fill="none" stroke="midnightblue" d="M1330.37,-67.1327C1176.36,-61.3034 714.108,-42.6657 542.722,-22.037"/>
<polygon fill="midnightblue" stroke="midnightblue" points="542.944,-18.5376 532.587,-20.7703 542.076,-25.4836 542.944,-18.5376"/>
</g>
<!-- Node18 -->
<g id="node38" class="node"><title>Node18</title>
<polygon fill="white" stroke="#bfbfbf" points="1810,-0.5 1810,-21.5 1854,-21.5 1854,-0.5 1810,-0.5"/>
<text text-anchor="middle" x="1832" y="-8.5" font-family="Helvetica,sans-Serif" font-size="10.00">cmath</text>
</g>
<!-- Node17&#45;&gt;Node18 -->
<g id="edge40" class="edge"><title>Node17&#45;&gt;Node18</title>
<path fill="none" stroke="midnightblue" d="M1431.61,-59.9684C1436.13,-59.2622 1440.64,-58.5939 1445,-58 1599.34,-36.9585 1644.01,-56.0254 1799.9,-21.8038"/>
<polygon fill="midnightblue" stroke="midnightblue" points="1800.84,-25.1795 1809.84,-19.5834 1799.31,-18.3478 1800.84,-25.1795"/>
</g>
<!-- Node19 -->
<g id="node43" class="node"><title>Node19</title>
<polygon fill="white" stroke="#bfbfbf" points="1872,-0.5 1872,-21.5 1924,-21.5 1924,-0.5 1872,-0.5"/>
<text text-anchor="middle" x="1898" y="-8.5" font-family="Helvetica,sans-Serif" font-size="10.00">sstream</text>
</g>
<!-- Node17&#45;&gt;Node19 -->
<g id="edge48" class="edge"><title>Node17&#45;&gt;Node19</title>
<path fill="none" stroke="midnightblue" d="M1431.6,-59.8985C1436.12,-59.2073 1440.64,-58.5615 1445,-58 1626.69,-34.6046 1678.27,-57.3411 1861.81,-21.8751"/>
<polygon fill="midnightblue" stroke="midnightblue" points="1862.65,-25.2766 1871.79,-19.9148 1861.3,-18.4079 1862.65,-25.2766"/>
</g>
<!-- Node20 -->
<g id="node45" class="node"><title>Node20</title>
<polygon fill="white" stroke="#bfbfbf" points="1941.5,-0.5 1941.5,-21.5 2056.5,-21.5 2056.5,-0.5 1941.5,-0.5"/>
<text text-anchor="middle" x="1999" y="-8.5" font-family="Helvetica,sans-Serif" font-size="10.00">yarp/os/BufferedPort.h</text>
</g>
<!-- Node17&#45;&gt;Node20 -->
<g id="edge50" class="edge"><title>Node17&#45;&gt;Node20</title>
<path fill="none" stroke="midnightblue" d="M1431.59,-59.8408C1436.12,-59.1619 1440.64,-58.5348 1445,-58 1657.6,-31.9501 1715.33,-47.4184 1931.38,-22.1062"/>
<polygon fill="midnightblue" stroke="midnightblue" points="1931.93,-25.5647 1941.45,-20.9099 1931.11,-18.6136 1931.93,-25.5647"/>
</g>
<!-- Node21 -->
<g id="node47" class="node"><title>Node21</title>
<polygon fill="white" stroke="#bfbfbf" points="2074,-0.5 2074,-21.5 2160,-21.5 2160,-0.5 2074,-0.5"/>
<text text-anchor="middle" x="2117" y="-8.5" font-family="Helvetica,sans-Serif" font-size="10.00">yarp/os/Bottle.h</text>
</g>
<!-- Node17&#45;&gt;Node21 -->
<g id="edge52" class="edge"><title>Node17&#45;&gt;Node21</title>
<path fill="none" stroke="midnightblue" d="M1431.58,-59.7672C1436.11,-59.104 1440.63,-58.5006 1445,-58 1715.88,-26.9565 1789.63,-57.892 2063.7,-21.9883"/>
<polygon fill="midnightblue" stroke="midnightblue" points="2064.5,-25.4127 2073.96,-20.6264 2063.58,-18.4737 2064.5,-25.4127"/>
</g>
<!-- Node17&#45;&gt;Node22 -->
<g id="edge54" class="edge"><title>Node17&#45;&gt;Node22</title>
<path fill="none" stroke="midnightblue" d="M1330.16,-67.1987C1108.32,-59.3284 231.596,-28.1064 121.038,-21.7518"/>
<polygon fill="midnightblue" stroke="midnightblue" points="121.006,-18.2412 110.787,-21.0379 120.52,-25.2243 121.006,-18.2412"/>
</g>
<!-- Node23 -->
<g id="node51" class="node"><title>Node23</title>
<polygon fill="white" stroke="#bfbfbf" points="549.5,-0.5 549.5,-21.5 678.5,-21.5 678.5,-0.5 549.5,-0.5"/>
<text text-anchor="middle" x="614" y="-8.5" font-family="Helvetica,sans-Serif" font-size="10.00">yarp/os/ResourceFinder.h</text>
</g>
<!-- Node17&#45;&gt;Node23 -->
<g id="edge56" class="edge"><title>Node17&#45;&gt;Node23</title>
<path fill="none" stroke="midnightblue" d="M1330.37,-66.9945C1217.2,-62.2047 934.959,-48.5557 689.047,-22.1578"/>
<polygon fill="midnightblue" stroke="midnightblue" points="689.162,-18.6498 678.843,-21.0527 688.408,-25.6091 689.162,-18.6498"/>
</g>
<!-- Node24 -->
<g id="node53" class="node"><title>Node24</title>
<polygon fill="white" stroke="#bfbfbf" points="696,-0.5 696,-21.5 806,-21.5 806,-0.5 696,-0.5"/>
<text text-anchor="middle" x="751" y="-8.5" font-family="Helvetica,sans-Serif" font-size="10.00">yarp/os/PortReader.h</text>
</g>
<!-- Node17&#45;&gt;Node24 -->
<g id="edge58" class="edge"><title>Node17&#45;&gt;Node24</title>
<path fill="none" stroke="midnightblue" d="M1330.49,-66.2908C1233.07,-60.7425 1012.23,-46.6024 816.308,-22.0757"/>
<polygon fill="midnightblue" stroke="midnightblue" points="816.472,-18.5686 806.112,-20.7869 815.594,-25.5134 816.472,-18.5686"/>
</g>
<!-- Node25 -->
<g id="node55" class="node"><title>Node25</title>
<polygon fill="white" stroke="#bfbfbf" points="824,-0.5 824,-21.5 928,-21.5 928,-0.5 824,-0.5"/>
<text text-anchor="middle" x="876" y="-8.5" font-family="Helvetica,sans-Serif" font-size="10.00">yarp/os/RpcClient.h</text>
</g>
<!-- Node17&#45;&gt;Node25 -->
<g id="edge60" class="edge"><title>Node17&#45;&gt;Node25</title>
<path fill="none" stroke="midnightblue" d="M1330.25,-64.8407C1249.47,-57.9553 1086.49,-42.9781 938.387,-22.1192"/>
<polygon fill="midnightblue" stroke="midnightblue" points="938.596,-18.6138 928.203,-20.6721 937.611,-25.5441 938.596,-18.6138"/>
</g>
<!-- Node26 -->
<g id="node57" class="node"><title>Node26</title>
<polygon fill="white" stroke="#bfbfbf" points="945.5,-0.5 945.5,-21.5 1052.5,-21.5 1052.5,-0.5 945.5,-0.5"/>
<text text-anchor="middle" x="999" y="-8.5" font-family="Helvetica,sans-Serif" font-size="10.00">yarp/os/RpcServer.h</text>
</g>
<!-- Node17&#45;&gt;Node26 -->
<g id="edge62" class="edge"><title>Node17&#45;&gt;Node26</title>
<path fill="none" stroke="midnightblue" d="M1330.49,-62.0552C1269.4,-53.5497 1163.18,-38.4247 1062.76,-22.256"/>
<polygon fill="midnightblue" stroke="midnightblue" points="1063.18,-18.7785 1052.75,-20.6375 1062.07,-25.6888 1063.18,-18.7785"/>
</g>
<!-- Node27 -->
<g id="node59" class="node"><title>Node27</title>
<polygon fill="white" stroke="#bfbfbf" points="1069.5,-0.5 1069.5,-21.5 1210.5,-21.5 1210.5,-0.5 1069.5,-0.5"/>
<text text-anchor="middle" x="1140" y="-8.5" font-family="Helvetica,sans-Serif" font-size="10.00">yarp/os/ConnectionReader.h</text>
</g>
<!-- Node17&#45;&gt;Node27 -->
<g id="edge64" class="edge"><title>Node17&#45;&gt;Node27</title>
<path fill="none" stroke="midnightblue" d="M1337.36,-58.4966C1296.96,-48.775 1236.79,-34.2938 1193.51,-23.8787"/>
<polygon fill="midnightblue" stroke="midnightblue" points="1194.27,-20.4601 1183.73,-21.5231 1192.63,-27.2658 1194.27,-20.4601"/>
</g>
<!-- Node28 -->
<g id="node61" class="node"><title>Node28</title>
<polygon fill="white" stroke="#bfbfbf" points="1228,-0.5 1228,-21.5 1310,-21.5 1310,-0.5 1228,-0.5"/>
<text text-anchor="middle" x="1269" y="-8.5" font-family="Helvetica,sans-Serif" font-size="10.00">yarp/os/Time.h</text>
</g>
<!-- Node17&#45;&gt;Node28 -->
<g id="edge66" class="edge"><title>Node17&#45;&gt;Node28</title>
<path fill="none" stroke="midnightblue" d="M1360.72,-58.4966C1343.38,-49.5194 1318.21,-36.4835 1298.62,-26.3387"/>
<polygon fill="midnightblue" stroke="midnightblue" points="1300,-23.1118 1289.51,-21.6212 1296.78,-29.3278 1300,-23.1118"/>
</g>
<!-- Node29 -->
<g id="node64" class="node"><title>Node29</title>
<polygon fill="white" stroke="#bfbfbf" points="1327.5,-0.5 1327.5,-21.5 1434.5,-21.5 1434.5,-0.5 1327.5,-0.5"/>
<text text-anchor="middle" x="1381" y="-8.5" font-family="Helvetica,sans-Serif" font-size="10.00">yarp/os/LogStream.h</text>
</g>
<!-- Node17&#45;&gt;Node29 -->
<g id="edge70" class="edge"><title>Node17&#45;&gt;Node29</title>
<path fill="none" stroke="midnightblue" d="M1381,-58.3619C1381,-50.9219 1381,-40.7427 1381,-31.7276"/>
<polygon fill="midnightblue" stroke="midnightblue" points="1384.5,-31.5706 1381,-21.5707 1377.5,-31.5707 1384.5,-31.5706"/>
</g>
<!-- Node30 -->
<g id="node66" class="node"><title>Node30</title>
<polygon fill="white" stroke="#bfbfbf" points="1451.5,-0.5 1451.5,-21.5 1548.5,-21.5 1548.5,-0.5 1451.5,-0.5"/>
<text text-anchor="middle" x="1500" y="-8.5" font-family="Helvetica,sans-Serif" font-size="10.00">yarp/os/Property.h</text>
</g>
<!-- Node17&#45;&gt;Node30 -->
<g id="edge72" class="edge"><title>Node17&#45;&gt;Node30</title>
<path fill="none" stroke="midnightblue" d="M1402.55,-58.4966C1421.14,-49.4378 1448.2,-36.2462 1469.1,-26.0628"/>
<polygon fill="midnightblue" stroke="midnightblue" points="1470.75,-29.1487 1478.21,-21.6212 1467.69,-22.8563 1470.75,-29.1487"/>
</g>
<!-- Node31 -->
<g id="node69" class="node"><title>Node31</title>
<polygon fill="white" stroke="#bfbfbf" points="1565.5,-0.5 1565.5,-21.5 1654.5,-21.5 1654.5,-0.5 1565.5,-0.5"/>
<text text-anchor="middle" x="1610" y="-8.5" font-family="Helvetica,sans-Serif" font-size="10.00">yarp/sig/Matrix.h</text>
</g>
<!-- Node17&#45;&gt;Node31 -->
<g id="edge76" class="edge"><title>Node17&#45;&gt;Node31</title>
<path fill="none" stroke="midnightblue" d="M1422.47,-58.4966C1460.69,-48.8159 1517.55,-34.4156 1558.63,-24.0105"/>
<polygon fill="midnightblue" stroke="midnightblue" points="1559.62,-27.3712 1568.45,-21.5231 1557.9,-20.5855 1559.62,-27.3712"/>
</g>
<!-- Node32 -->
<g id="node73" class="node"><title>Node32</title>
<polygon fill="white" stroke="#bfbfbf" points="1671.5,-0.5 1671.5,-21.5 1792.5,-21.5 1792.5,-0.5 1671.5,-0.5"/>
<text text-anchor="middle" x="1732" y="-8.5" font-family="Helvetica,sans-Serif" font-size="10.00">ocra/util/StringUtilities.h</text>
</g>
<!-- Node17&#45;&gt;Node32 -->
<g id="edge82" class="edge"><title>Node17&#45;&gt;Node32</title>
<path fill="none" stroke="midnightblue" d="M1431.65,-60.2567C1436.16,-59.489 1440.66,-58.7277 1445,-58 1518.63,-45.6435 1602.96,-31.8803 1661.06,-22.4583"/>
<polygon fill="midnightblue" stroke="midnightblue" points="1661.92,-25.8643 1671.23,-20.8093 1660.8,-18.9544 1661.92,-25.8643"/>
</g>
<!-- Node17&#45;&gt;Node33 -->
<g id="edge84" class="edge"><title>Node17&#45;&gt;Node33</title>
<path fill="none" stroke="midnightblue" d="M1431.63,-65.6392C1467.24,-63.3317 1516.02,-60.2851 1559,-58 1914.63,-39.0904 2009.41,-72.2943 2365.21,-22.0297"/>
<polygon fill="midnightblue" stroke="midnightblue" points="2365.87,-25.4713 2375.28,-20.5956 2364.88,-18.5413 2365.87,-25.4713"/>
</g>
<!-- Node17&#45;&gt;Node34 -->
<g id="edge86" class="edge"><title>Node17&#45;&gt;Node34</title>
<path fill="none" stroke="midnightblue" d="M1330.32,-67.1195C1118.71,-59.251 312.214,-29.0837 206.398,-21.3748"/>
<polygon fill="midnightblue" stroke="midnightblue" points="206.416,-17.8616 196.136,-20.4232 205.77,-24.8317 206.416,-17.8616"/>
</g>
<!-- Node37&#45;&gt;Node4 -->
<g id="edge162" class="edge"><title>Node37&#45;&gt;Node4</title>
<path fill="none" stroke="midnightblue" d="M2731.37,-351.627C2915.36,-338.001 3239.3,-303.496 3179,-232 3142.97,-189.278 2769.41,-148.027 2618.61,-132.984"/>
<polygon fill="midnightblue" stroke="midnightblue" points="2618.88,-129.493 2608.58,-131.989 2618.18,-136.459 2618.88,-129.493"/>
</g>
<!-- Node38 -->
<g id="node89" class="node"><title>Node38</title>
<a xlink:href="ShapeConstraints_8h.html" target="_top" xlink:title="walking&#45;client/constraints/ShapeConstraints.h">
<polygon fill="white" stroke="black" points="2604,-290.5 2604,-311.5 2820,-311.5 2820,-290.5 2604,-290.5"/>
<text text-anchor="middle" x="2712" y="-298.5" font-family="Helvetica,sans-Serif" font-size="10.00">walking&#45;client/constraints/ShapeConstraints.h</text>
</a>
</g>
<!-- Node37&#45;&gt;Node38 -->
<g id="edge102" class="edge"><title>Node37&#45;&gt;Node38</title>
<path fill="none" stroke="midnightblue" d="M2629.52,-348.362C2644.9,-339.532 2667,-326.844 2684.45,-316.822"/>
<polygon fill="midnightblue" stroke="midnightblue" points="2686.66,-319.586 2693.59,-311.571 2683.18,-313.515 2686.66,-319.586"/>
</g>
<!-- Node44 -->
<g id="node107" class="node"><title>Node44</title>
<a xlink:href="AdmissibilityConstraints_8h.html" target="_top" xlink:title="walking&#45;client/constraints/AdmissibilityConstraints.h">
<polygon fill="white" stroke="red" points="2095,-290.5 2095,-311.5 2339,-311.5 2339,-290.5 2095,-290.5"/>
<text text-anchor="middle" x="2217" y="-298.5" font-family="Helvetica,sans-Serif" font-size="10.00">walking&#45;client/constraints/AdmissibilityConstraints.h</text>
</a>
</g>
<!-- Node37&#45;&gt;Node44 -->
<g id="edge126" class="edge"><title>Node37&#45;&gt;Node44</title>
<path fill="none" stroke="midnightblue" d="M2539.65,-348.497C2471.8,-338.509 2369.83,-323.498 2298.74,-313.033"/>
<polygon fill="midnightblue" stroke="midnightblue" points="2298.89,-309.517 2288.48,-311.523 2297.87,-316.442 2298.89,-309.517"/>
</g>
<!-- Node47 -->
<g id="node116" class="node"><title>Node47</title>
<a xlink:href="StepController_8h.html" target="_top" xlink:title="walking&#45;client/StepController.h">
<polygon fill="white" stroke="red" points="3021.5,-232.5 3021.5,-253.5 3170.5,-253.5 3170.5,-232.5 3021.5,-232.5"/>
<text text-anchor="middle" x="3096" y="-240.5" font-family="Helvetica,sans-Serif" font-size="10.00">walking&#45;client/StepController.h</text>
</a>
</g>
<!-- Node37&#45;&gt;Node47 -->
<g id="edge138" class="edge"><title>Node37&#45;&gt;Node47</title>
<path fill="none" stroke="midnightblue" d="M2662.67,-348.476C2706.92,-339.315 2772.3,-325.433 2829,-312 2905.59,-293.855 2993.93,-270.558 3047.33,-256.21"/>
<polygon fill="midnightblue" stroke="midnightblue" points="3048.46,-259.53 3057.21,-253.551 3046.64,-252.771 3048.46,-259.53"/>
</g>
<!-- Node48 -->
<g id="node119" class="node"><title>Node48</title>
<a xlink:href="BaseOfSupport_8h.html" target="_top" xlink:title="walking&#45;client/BaseOfSupport.h">
<polygon fill="white" stroke="red" points="2432,-290.5 2432,-311.5 2586,-311.5 2586,-290.5 2432,-290.5"/>
<text text-anchor="middle" x="2509" y="-298.5" font-family="Helvetica,sans-Serif" font-size="10.00">walking&#45;client/BaseOfSupport.h</text>
</a>
</g>
<!-- Node37&#45;&gt;Node48 -->
<g id="edge142" class="edge"><title>Node37&#45;&gt;Node48</title>
<path fill="none" stroke="midnightblue" d="M2592.29,-348.362C2576.62,-339.45 2554.04,-326.609 2536.34,-316.545"/>
<polygon fill="midnightblue" stroke="midnightblue" points="2538.01,-313.471 2527.59,-311.571 2534.55,-319.556 2538.01,-313.471"/>
</g>
<!-- Node39 -->
<g id="node91" class="node"><title>Node39</title>
<a xlink:href="Constraint_8h.html" target="_top" xlink:title="A constraint base class.">
<polygon fill="white" stroke="red" points="2336.5,-174.5 2336.5,-195.5 2519.5,-195.5 2519.5,-174.5 2336.5,-174.5"/>
<text text-anchor="middle" x="2428" y="-182.5" font-family="Helvetica,sans-Serif" font-size="10.00">walking&#45;client/constraints/Constraint.h</text>
</a>
</g>
<!-- Node38&#45;&gt;Node39 -->
<g id="edge104" class="edge"><title>Node38&#45;&gt;Node39</title>
<path fill="none" stroke="midnightblue" d="M2735.47,-290.338C2761.59,-277.056 2797.8,-253.488 2779,-232 2762.67,-213.343 2627.59,-199.538 2529.87,-191.878"/>
<polygon fill="midnightblue" stroke="midnightblue" points="2529.88,-188.369 2519.64,-191.088 2529.34,-195.348 2529.88,-188.369"/>
</g>
<!-- Node41 -->
<g id="node98" class="node"><title>Node41</title>
<a xlink:href="Bounding_8h.html" target="_top" xlink:title="walking&#45;client/constraints/Bounding.h">
<polygon fill="white" stroke="black" points="2825.5,-232.5 2825.5,-253.5 3004.5,-253.5 3004.5,-232.5 2825.5,-232.5"/>
<text text-anchor="middle" x="2915" y="-240.5" font-family="Helvetica,sans-Serif" font-size="10.00">walking&#45;client/constraints/Bounding.h</text>
</a>
</g>
<!-- Node38&#45;&gt;Node41 -->
<g id="edge114" class="edge"><title>Node38&#45;&gt;Node41</title>
<path fill="none" stroke="midnightblue" d="M2748.76,-290.497C2782.29,-280.918 2831.98,-266.72 2868.3,-256.342"/>
<polygon fill="midnightblue" stroke="midnightblue" points="2869.52,-259.636 2878.17,-253.523 2867.59,-252.905 2869.52,-259.636"/>
</g>
<!-- Node42 -->
<g id="node101" class="node"><title>Node42</title>
<a xlink:href="Constancy_8h.html" target="_top" xlink:title="walking&#45;client/constraints/Constancy.h">
<polygon fill="white" stroke="black" points="2335.5,-232.5 2335.5,-253.5 2520.5,-253.5 2520.5,-232.5 2335.5,-232.5"/>
<text text-anchor="middle" x="2428" y="-240.5" font-family="Helvetica,sans-Serif" font-size="10.00">walking&#45;client/constraints/Constancy.h</text>
</a>
</g>
<!-- Node38&#45;&gt;Node42 -->
<g id="edge118" class="edge"><title>Node38&#45;&gt;Node42</title>
<path fill="none" stroke="midnightblue" d="M2660.57,-290.497C2612.47,-280.673 2540.56,-265.988 2489.46,-255.551"/>
<polygon fill="midnightblue" stroke="midnightblue" points="2490.02,-252.095 2479.53,-253.523 2488.62,-258.953 2490.02,-252.095"/>
</g>
<!-- Node43 -->
<g id="node104" class="node"><title>Node43</title>
<a xlink:href="Sequentiality_8h.html" target="_top" xlink:title="walking&#45;client/constraints/Sequentiality.h">
<polygon fill="white" stroke="black" points="2576,-232.5 2576,-253.5 2770,-253.5 2770,-232.5 2576,-232.5"/>
<text text-anchor="middle" x="2673" y="-240.5" font-family="Helvetica,sans-Serif" font-size="10.00">walking&#45;client/constraints/Sequentiality.h</text>
</a>
</g>
<!-- Node38&#45;&gt;Node43 -->
<g id="edge122" class="edge"><title>Node38&#45;&gt;Node43</title>
<path fill="none" stroke="midnightblue" d="M2704.85,-290.362C2699.51,-282.431 2692.09,-271.389 2685.75,-261.961"/>
<polygon fill="midnightblue" stroke="midnightblue" points="2688.59,-259.916 2680.11,-253.571 2682.78,-263.822 2688.59,-259.916"/>
</g>
<!-- Node39&#45;&gt;Node4 -->
<g id="edge106" class="edge"><title>Node39&#45;&gt;Node4</title>
<path fill="none" stroke="midnightblue" d="M2451.18,-174.497C2471.35,-165.356 2500.81,-152.008 2523.36,-141.788"/>
<polygon fill="midnightblue" stroke="midnightblue" points="2524.9,-144.937 2532.56,-137.621 2522.01,-138.561 2524.9,-144.937"/>
</g>
<!-- Node39&#45;&gt;Node7 -->
<g id="edge112" class="edge"><title>Node39&#45;&gt;Node7</title>
<path fill="none" stroke="midnightblue" d="M2431.91,-174.377C2442.28,-146.172 2470.66,-69.0121 2484.38,-31.7203"/>
<polygon fill="midnightblue" stroke="midnightblue" points="2487.81,-32.5212 2487.98,-21.9277 2481.24,-30.1048 2487.81,-32.5212"/>
</g>
<!-- Node39&#45;&gt;Node36 -->
<g id="edge108" class="edge"><title>Node39&#45;&gt;Node36</title>
<path fill="none" stroke="midnightblue" d="M2399.39,-174.497C2373.85,-165.123 2336.26,-151.324 2308.17,-141.012"/>
<polygon fill="midnightblue" stroke="midnightblue" points="2309.26,-137.684 2298.67,-137.523 2306.85,-144.255 2309.26,-137.684"/>
</g>
<!-- Node40 -->
<g id="node95" class="node"><title>Node40</title>
<polygon fill="white" stroke="#bfbfbf" points="1894.5,-116.5 1894.5,-137.5 2011.5,-137.5 2011.5,-116.5 1894.5,-116.5"/>
<text text-anchor="middle" x="1953" y="-124.5" font-family="Helvetica,sans-Serif" font-size="10.00">ocra/util/ErrorsHelper.h</text>
</g>
<!-- Node39&#45;&gt;Node40 -->
<g id="edge110" class="edge"><title>Node39&#45;&gt;Node40</title>
<path fill="none" stroke="midnightblue" d="M2341.98,-174.497C2250.14,-163.282 2106.42,-145.734 2021.79,-135.4"/>
<polygon fill="midnightblue" stroke="midnightblue" points="2022.12,-131.915 2011.77,-134.177 2021.28,-138.863 2022.12,-131.915"/>
</g>
<!-- Node41&#45;&gt;Node39 -->
<g id="edge116" class="edge"><title>Node41&#45;&gt;Node39</title>
<path fill="none" stroke="midnightblue" d="M2826.81,-232.497C2742.09,-222.407 2614.31,-207.189 2526.35,-196.713"/>
<polygon fill="midnightblue" stroke="midnightblue" points="2526.7,-193.23 2516.36,-195.523 2525.87,-200.181 2526.7,-193.23"/>
</g>
<!-- Node42&#45;&gt;Node39 -->
<g id="edge120" class="edge"><title>Node42&#45;&gt;Node39</title>
<path fill="none" stroke="midnightblue" d="M2428,-232.362C2428,-224.922 2428,-214.743 2428,-205.728"/>
<polygon fill="midnightblue" stroke="midnightblue" points="2431.5,-205.571 2428,-195.571 2424.5,-205.571 2431.5,-205.571"/>
</g>
<!-- Node43&#45;&gt;Node39 -->
<g id="edge124" class="edge"><title>Node43&#45;&gt;Node39</title>
<path fill="none" stroke="midnightblue" d="M2628.63,-232.497C2587.57,-222.775 2526.4,-208.294 2482.4,-197.879"/>
<polygon fill="midnightblue" stroke="midnightblue" points="2482.99,-194.421 2472.45,-195.523 2481.38,-201.233 2482.99,-194.421"/>
</g>
<!-- Node44&#45;&gt;Node39 -->
<g id="edge128" class="edge"><title>Node44&#45;&gt;Node39</title>
<path fill="none" stroke="midnightblue" d="M2232.66,-290.307C2253.66,-276.166 2292.34,-250.841 2327,-232 2348.76,-220.173 2374.02,-208.419 2393.83,-199.623"/>
<polygon fill="midnightblue" stroke="midnightblue" points="2395.34,-202.785 2403.09,-195.556 2392.52,-196.377 2395.34,-202.785"/>
</g>
<!-- Node45 -->
<g id="node110" class="node"><title>Node45</title>
<a xlink:href="SSDSAlternation_8h.html" target="_top" xlink:title="walking&#45;client/constraints/SSDSAlternation.h">
<polygon fill="white" stroke="black" points="1814,-232.5 1814,-253.5 2026,-253.5 2026,-232.5 1814,-232.5"/>
<text text-anchor="middle" x="1920" y="-240.5" font-family="Helvetica,sans-Serif" font-size="10.00">walking&#45;client/constraints/SSDSAlternation.h</text>
</a>
</g>
<!-- Node44&#45;&gt;Node45 -->
<g id="edge130" class="edge"><title>Node44&#45;&gt;Node45</title>
<path fill="none" stroke="midnightblue" d="M2163.22,-290.497C2112.81,-280.652 2037.4,-265.927 1983.94,-255.486"/>
<polygon fill="midnightblue" stroke="midnightblue" points="1984.37,-252.005 1973.89,-253.523 1983.03,-258.875 1984.37,-252.005"/>
</g>
<!-- Node46 -->
<g id="node113" class="node"><title>Node46</title>
<a xlink:href="SingleSupport_8h.html" target="_top" xlink:title="walking&#45;client/constraints/SingleSupport.h">
<polygon fill="white" stroke="black" points="2043.5,-232.5 2043.5,-253.5 2242.5,-253.5 2242.5,-232.5 2043.5,-232.5"/>
<text text-anchor="middle" x="2143" y="-240.5" font-family="Helvetica,sans-Serif" font-size="10.00">walking&#45;client/constraints/SingleSupport.h</text>
</a>
</g>
<!-- Node44&#45;&gt;Node46 -->
<g id="edge134" class="edge"><title>Node44&#45;&gt;Node46</title>
<path fill="none" stroke="midnightblue" d="M2203.43,-290.362C2192.58,-281.859 2177.17,-269.779 2164.62,-259.947"/>
<polygon fill="midnightblue" stroke="midnightblue" points="2166.52,-256.985 2156.49,-253.571 2162.2,-262.494 2166.52,-256.985"/>
</g>
<!-- Node45&#45;&gt;Node39 -->
<g id="edge132" class="edge"><title>Node45&#45;&gt;Node39</title>
<path fill="none" stroke="midnightblue" d="M2011.99,-232.497C2100.6,-222.381 2234.34,-207.111 2326.12,-196.632"/>
<polygon fill="midnightblue" stroke="midnightblue" points="2326.72,-200.086 2336.26,-195.474 2325.93,-193.131 2326.72,-200.086"/>
</g>
<!-- Node46&#45;&gt;Node39 -->
<g id="edge136" class="edge"><title>Node46&#45;&gt;Node39</title>
<path fill="none" stroke="midnightblue" d="M2194.61,-232.497C2242.88,-222.673 2315.04,-207.988 2366.33,-197.551"/>
<polygon fill="midnightblue" stroke="midnightblue" points="2367.19,-200.947 2376.29,-195.523 2365.79,-194.088 2367.19,-200.947"/>
</g>
<!-- Node47&#45;&gt;Node4 -->
<g id="edge140" class="edge"><title>Node47&#45;&gt;Node4</title>
<path fill="none" stroke="midnightblue" d="M3046.65,-232.398C2947.02,-210.996 2722.25,-162.713 2615.04,-139.683"/>
<polygon fill="midnightblue" stroke="midnightblue" points="2615.56,-136.214 2605.04,-137.535 2614.08,-143.057 2615.56,-136.214"/>
</g>
<!-- Node48&#45;&gt;Node4 -->
<g id="edge160" class="edge"><title>Node48&#45;&gt;Node4</title>
<path fill="none" stroke="midnightblue" d="M2514.21,-290.396C2518.65,-281.013 2524.94,-266.853 2529,-254 2540.59,-217.301 2548.73,-173.064 2552.87,-147.667"/>
<polygon fill="midnightblue" stroke="midnightblue" points="2556.34,-148.14 2554.44,-137.716 2549.42,-147.048 2556.34,-148.14"/>
</g>
<!-- Node48&#45;&gt;Node36 -->
<g id="edge144" class="edge"><title>Node48&#45;&gt;Node36</title>
<path fill="none" stroke="midnightblue" d="M2444.82,-290.495C2399.92,-282.039 2344.9,-269.099 2327,-254 2294.22,-226.346 2279.5,-176.011 2273.55,-147.724"/>
<polygon fill="midnightblue" stroke="midnightblue" points="2276.95,-146.886 2271.62,-137.73 2270.08,-148.212 2276.95,-146.886"/>
</g>
<!-- Node48&#45;&gt;Node47 -->
<g id="edge158" class="edge"><title>Node48&#45;&gt;Node47</title>
<path fill="none" stroke="midnightblue" d="M2586.34,-290.955C2589.26,-290.624 2592.16,-290.304 2595,-290 2777.15,-270.516 2825.93,-274.118 3011.28,-254.151"/>
<polygon fill="midnightblue" stroke="midnightblue" points="3011.8,-257.615 3021.36,-253.056 3011.04,-250.656 3011.8,-257.615"/>
</g>
<!-- Node48&#45;&gt;Node49 -->
<g id="edge146" class="edge"><title>Node48&#45;&gt;Node49</title>
<path fill="none" stroke="midnightblue" d="M2431.61,-295.681C2405.1,-293.867 2375.25,-291.835 2348,-290 2106.68,-273.757 2046.19,-271.968 1805,-254 1787.34,-252.685 1768.37,-251.174 1750.45,-249.702"/>
<polygon fill="midnightblue" stroke="midnightblue" points="1750.58,-246.201 1740.33,-248.866 1750.01,-253.178 1750.58,-246.201"/>
</g>
<!-- Node49&#45;&gt;Node4 -->
<g id="edge154" class="edge"><title>Node49&#45;&gt;Node4</title>
<path fill="none" stroke="midnightblue" d="M1740.26,-234.042C1906.9,-212.176 2332.54,-156.323 2493.27,-135.231"/>
<polygon fill="midnightblue" stroke="midnightblue" points="2494.01,-138.664 2503.47,-133.893 2493.1,-131.724 2494.01,-138.664"/>
</g>
<!-- Node49&#45;&gt;Node6 -->
<g id="edge150" class="edge"><title>Node49&#45;&gt;Node6</title>
<path fill="none" stroke="midnightblue" d="M1637.05,-232.497C1605.31,-222.959 1558.33,-208.841 1523.84,-198.475"/>
<polygon fill="midnightblue" stroke="midnightblue" points="1524.6,-195.049 1514.02,-195.523 1522.59,-201.753 1524.6,-195.049"/>
</g>
<!-- Node49&#45;&gt;Node17 -->
<g id="edge156" class="edge"><title>Node49&#45;&gt;Node17</title>
<path fill="none" stroke="midnightblue" d="M1654.23,-232.377C1604.92,-202.891 1466.13,-119.905 1407.58,-84.8959"/>
<polygon fill="midnightblue" stroke="midnightblue" points="1409.28,-81.8326 1398.9,-79.7046 1405.69,-87.8406 1409.28,-81.8326"/>
</g>
<!-- Node49&#45;&gt;Node33 -->
<g id="edge148" class="edge"><title>Node49&#45;&gt;Node33</title>
<path fill="none" stroke="midnightblue" d="M1674.13,-232.27C1677.69,-217.137 1686.27,-189.63 1704,-174 1767.68,-117.859 1803.76,-137.066 1886,-116 2093.82,-62.7699 2152.49,-68.5706 2365.27,-22.3151"/>
<polygon fill="midnightblue" stroke="midnightblue" points="2366.17,-25.701 2375.2,-20.145 2364.68,-18.8627 2366.17,-25.701"/>
</g>
<!-- Node49&#45;&gt;Node40 -->
<g id="edge152" class="edge"><title>Node49&#45;&gt;Node40</title>
<path fill="none" stroke="midnightblue" d="M1678.35,-232.466C1688.23,-217.055 1708.78,-188.612 1734,-174 1759.22,-159.388 1830.01,-145.771 1884.34,-136.995"/>
<polygon fill="midnightblue" stroke="midnightblue" points="1884.96,-140.442 1894.28,-135.414 1883.86,-133.529 1884.96,-140.442"/>
</g>
</g>
</svg>
