<?xml version="1.0" encoding="UTF-8" standalone="no"?>
<!DOCTYPE svg PUBLIC "-//W3C//DTD SVG 1.1//EN"
 "http://www.w3.org/Graphics/SVG/1.1/DTD/svg11.dtd">
<!-- Generated by graphviz version 2.26.3 (20100126.1600)
 -->
<!-- Title: G Pages: 1 -->
<svg width="2372pt" height="436pt"
 viewBox="0.00 0.00 2372.00 436.00" xmlns="http://www.w3.org/2000/svg" xmlns:xlink="http://www.w3.org/1999/xlink">
<g id="graph1" class="graph" transform="scale(1 1) rotate(0) translate(4 432)">
<title>G</title>
<polygon fill="white" stroke="white" points="-4,5 -4,-432 2369,-432 2369,5 -4,5"/>
<!-- Node1 -->
<g id="node1" class="node"><title>Node1</title>
<polygon fill="#bfbfbf" stroke="black" points="389,-406.5 389,-427.5 873,-427.5 873,-406.5 389,-406.5"/>
<text text-anchor="middle" x="631" y="-414.5" font-family="Helvetica,sans-Serif" font-size="10.00">ocra&#45;wbi&#45;plugins/ocra&#45;icub&#45;clients/walking&#45;client/include/walking&#45;client/constraints/MIQPLinearConstraints.h</text>
</g>
<!-- Node2 -->
<g id="node3" class="node"><title>Node2</title>
<a xlink:href="ShapeConstraints_8h.html" target="_top" xlink:title="walking&#45;client/constraints/ShapeConstraints.h">
<polygon fill="white" stroke="black" points="1848,-348.5 1848,-369.5 2064,-369.5 2064,-348.5 1848,-348.5"/>
<text text-anchor="middle" x="1956" y="-356.5" font-family="Helvetica,sans-Serif" font-size="10.00">walking&#45;client/constraints/ShapeConstraints.h</text>
</a>
</g>
<!-- Node1&#45;&gt;Node2 -->
<g id="edge2" class="edge"><title>Node1&#45;&gt;Node2</title>
<path fill="none" stroke="midnightblue" d="M870.948,-406.497C1156.15,-394.012 1620.66,-373.679 1837.5,-364.187"/>
<polygon fill="midnightblue" stroke="midnightblue" points="1837.8,-367.678 1847.63,-363.744 1837.49,-360.684 1837.8,-367.678"/>
</g>
<!-- Node4 -->
<g id="node7" class="node"><title>Node4</title>
<a xlink:href="utils_8h.html" target="_top" xlink:title="walking&#45;client/utils.h">
<polygon fill="white" stroke="black" points="258.5,-174.5 258.5,-195.5 363.5,-195.5 363.5,-174.5 258.5,-174.5"/>
<text text-anchor="middle" x="311" y="-182.5" font-family="Helvetica,sans-Serif" font-size="10.00">walking&#45;client/utils.h</text>
</a>
</g>
<!-- Node1&#45;&gt;Node4 -->
<g id="edge156" class="edge"><title>Node1&#45;&gt;Node4</title>
<path fill="none" stroke="midnightblue" d="M575.27,-406.468C500.827,-389.111 371.53,-346.726 313,-254 304.028,-239.787 304.287,-220.437 306.354,-205.845"/>
<polygon fill="midnightblue" stroke="midnightblue" points="309.84,-206.24 308.165,-195.778 302.95,-205 309.84,-206.24"/>
</g>
<!-- Node12 -->
<g id="node26" class="node"><title>Node12</title>
<a xlink:href="AdmissibilityConstraints_8h.html" target="_top" xlink:title="walking&#45;client/constraints/AdmissibilityConstraints.h">
<polygon fill="white" stroke="black" points="1067,-348.5 1067,-369.5 1311,-369.5 1311,-348.5 1067,-348.5"/>
<text text-anchor="middle" x="1189" y="-356.5" font-family="Helvetica,sans-Serif" font-size="10.00">walking&#45;client/constraints/AdmissibilityConstraints.h</text>
</a>
</g>
<!-- Node1&#45;&gt;Node12 -->
<g id="edge28" class="edge"><title>Node1&#45;&gt;Node12</title>
<path fill="none" stroke="midnightblue" d="M732.05,-406.497C829.516,-396.366 976.711,-381.066 1077.54,-370.585"/>
<polygon fill="midnightblue" stroke="midnightblue" points="1078.18,-374.038 1087.76,-369.523 1077.45,-367.076 1078.18,-374.038"/>
</g>
<!-- Node17 -->
<g id="node41" class="node"><title>Node17</title>
<a xlink:href="StepController_8h.html" target="_top" xlink:title="walking&#45;client/StepController.h">
<polygon fill="white" stroke="black" points="96.5,-232.5 96.5,-253.5 245.5,-253.5 245.5,-232.5 96.5,-232.5"/>
<text text-anchor="middle" x="171" y="-240.5" font-family="Helvetica,sans-Serif" font-size="10.00">walking&#45;client/StepController.h</text>
</a>
</g>
<!-- Node1&#45;&gt;Node17 -->
<g id="edge48" class="edge"><title>Node1&#45;&gt;Node17</title>
<path fill="none" stroke="midnightblue" d="M433.395,-406.46C360.946,-399.6 289.264,-388.358 259,-370 217.739,-344.971 191.011,-292.399 178.766,-263.358"/>
<polygon fill="midnightblue" stroke="midnightblue" points="181.903,-261.777 174.911,-253.817 175.413,-264.4 181.903,-261.777"/>
</g>
<!-- Node19 -->
<g id="node46" class="node"><title>Node19</title>
<a xlink:href="BaseOfSupport_8h.html" target="_top" xlink:title="walking&#45;client/BaseOfSupport.h">
<polygon fill="white" stroke="black" points="554,-290.5 554,-311.5 708,-311.5 708,-290.5 554,-290.5"/>
<text text-anchor="middle" x="631" y="-298.5" font-family="Helvetica,sans-Serif" font-size="10.00">walking&#45;client/BaseOfSupport.h</text>
</a>
</g>
<!-- Node1&#45;&gt;Node19 -->
<g id="edge54" class="edge"><title>Node1&#45;&gt;Node19</title>
<path fill="none" stroke="midnightblue" d="M631,-406.295C631,-387.131 631,-346.654 631,-321.843"/>
<polygon fill="midnightblue" stroke="midnightblue" points="634.5,-321.679 631,-311.679 627.5,-321.679 634.5,-321.679"/>
</g>
<!-- Node3 -->
<g id="node5" class="node"><title>Node3</title>
<a xlink:href="Constraint_8h.html" target="_top" xlink:title="A constraint base class.">
<polygon fill="white" stroke="black" points="1518.5,-232.5 1518.5,-253.5 1701.5,-253.5 1701.5,-232.5 1518.5,-232.5"/>
<text text-anchor="middle" x="1610" y="-240.5" font-family="Helvetica,sans-Serif" font-size="10.00">walking&#45;client/constraints/Constraint.h</text>
</a>
</g>
<!-- Node2&#45;&gt;Node3 -->
<g id="edge4" class="edge"><title>Node2&#45;&gt;Node3</title>
<path fill="none" stroke="midnightblue" d="M1956.41,-348.277C1956.36,-332.893 1953.78,-304.788 1937,-290 1920.14,-275.143 1801.39,-260.863 1711.81,-252.021"/>
<polygon fill="midnightblue" stroke="midnightblue" points="1711.88,-248.512 1701.59,-251.023 1711.2,-255.479 1711.88,-248.512"/>
</g>
<!-- Node9 -->
<g id="node17" class="node"><title>Node9</title>
<a xlink:href="Bounding_8h.html" target="_top" xlink:title="walking&#45;client/constraints/Bounding.h">
<polygon fill="white" stroke="black" points="1983.5,-290.5 1983.5,-311.5 2162.5,-311.5 2162.5,-290.5 1983.5,-290.5"/>
<text text-anchor="middle" x="2073" y="-298.5" font-family="Helvetica,sans-Serif" font-size="10.00">walking&#45;client/constraints/Bounding.h</text>
</a>
</g>
<!-- Node2&#45;&gt;Node9 -->
<g id="edge16" class="edge"><title>Node2&#45;&gt;Node9</title>
<path fill="none" stroke="midnightblue" d="M1977.19,-348.497C1995.46,-339.438 2022.07,-326.246 2042.61,-316.063"/>
<polygon fill="midnightblue" stroke="midnightblue" points="2044.17,-319.199 2051.57,-311.621 2041.06,-312.927 2044.17,-319.199"/>
</g>
<!-- Node10 -->
<g id="node20" class="node"><title>Node10</title>
<a xlink:href="Constancy_8h.html" target="_top" xlink:title="walking&#45;client/constraints/Constancy.h">
<polygon fill="white" stroke="black" points="2179.5,-290.5 2179.5,-311.5 2364.5,-311.5 2364.5,-290.5 2179.5,-290.5"/>
<text text-anchor="middle" x="2272" y="-298.5" font-family="Helvetica,sans-Serif" font-size="10.00">walking&#45;client/constraints/Constancy.h</text>
</a>
</g>
<!-- Node2&#45;&gt;Node10 -->
<g id="edge20" class="edge"><title>Node2&#45;&gt;Node10</title>
<path fill="none" stroke="midnightblue" d="M2013.23,-348.497C2067.08,-338.611 2147.75,-323.805 2204.68,-313.356"/>
<polygon fill="midnightblue" stroke="midnightblue" points="2205.46,-316.771 2214.67,-311.523 2204.2,-309.886 2205.46,-316.771"/>
</g>
<!-- Node11 -->
<g id="node23" class="node"><title>Node11</title>
<a xlink:href="Sequentiality_8h.html" target="_top" xlink:title="walking&#45;client/constraints/Sequentiality.h">
<polygon fill="white" stroke="black" points="1734,-290.5 1734,-311.5 1928,-311.5 1928,-290.5 1734,-290.5"/>
<text text-anchor="middle" x="1831" y="-298.5" font-family="Helvetica,sans-Serif" font-size="10.00">walking&#45;client/constraints/Sequentiality.h</text>
</a>
</g>
<!-- Node2&#45;&gt;Node11 -->
<g id="edge24" class="edge"><title>Node2&#45;&gt;Node11</title>
<path fill="none" stroke="midnightblue" d="M1933.36,-348.497C1913.75,-339.397 1885.15,-326.127 1863.17,-315.925"/>
<polygon fill="midnightblue" stroke="midnightblue" points="1864.43,-312.655 1853.89,-311.621 1861.49,-319.005 1864.43,-312.655"/>
</g>
<!-- Node3&#45;&gt;Node4 -->
<g id="edge6" class="edge"><title>Node3&#45;&gt;Node4</title>
<path fill="none" stroke="midnightblue" d="M1518.22,-236.905C1491.11,-235.201 1461.36,-233.428 1434,-232 1030.1,-210.928 544.089,-193.169 373.685,-187.17"/>
<polygon fill="midnightblue" stroke="midnightblue" points="373.757,-183.671 363.64,-186.818 373.511,-190.667 373.757,-183.671"/>
</g>
<!-- Node5 -->
<g id="node9" class="node"><title>Node5</title>
<polygon fill="white" stroke="#bfbfbf" points="1442.5,-174.5 1442.5,-195.5 1507.5,-195.5 1507.5,-174.5 1442.5,-174.5"/>
<text text-anchor="middle" x="1475" y="-182.5" font-family="Helvetica,sans-Serif" font-size="10.00">Eigen/Core</text>
</g>
<!-- Node3&#45;&gt;Node5 -->
<g id="edge8" class="edge"><title>Node3&#45;&gt;Node5</title>
<path fill="none" stroke="midnightblue" d="M1585.55,-232.497C1564.18,-223.315 1532.93,-209.889 1509.1,-199.652"/>
<polygon fill="midnightblue" stroke="midnightblue" points="1510.29,-196.353 1499.72,-195.621 1507.53,-202.784 1510.29,-196.353"/>
</g>
<!-- Node6 -->
<g id="node11" class="node"><title>Node6</title>
<polygon fill="white" stroke="#bfbfbf" points="1525,-174.5 1525,-195.5 1695,-195.5 1695,-174.5 1525,-174.5"/>
<text text-anchor="middle" x="1610" y="-182.5" font-family="Helvetica,sans-Serif" font-size="10.00">unsupported/Eigen/MatrixFunctions</text>
</g>
<!-- Node3&#45;&gt;Node6 -->
<g id="edge10" class="edge"><title>Node3&#45;&gt;Node6</title>
<path fill="none" stroke="midnightblue" d="M1610,-232.362C1610,-224.922 1610,-214.743 1610,-205.728"/>
<polygon fill="midnightblue" stroke="midnightblue" points="1613.5,-205.571 1610,-195.571 1606.5,-205.571 1613.5,-205.571"/>
</g>
<!-- Node7 -->
<g id="node13" class="node"><title>Node7</title>
<polygon fill="white" stroke="#bfbfbf" points="1308.5,-174.5 1308.5,-195.5 1425.5,-195.5 1425.5,-174.5 1308.5,-174.5"/>
<text text-anchor="middle" x="1367" y="-182.5" font-family="Helvetica,sans-Serif" font-size="10.00">ocra/util/ErrorsHelper.h</text>
</g>
<!-- Node3&#45;&gt;Node7 -->
<g id="edge12" class="edge"><title>Node3&#45;&gt;Node7</title>
<path fill="none" stroke="midnightblue" d="M1565.99,-232.497C1525.26,-222.775 1464.59,-208.294 1420.96,-197.879"/>
<polygon fill="midnightblue" stroke="midnightblue" points="1421.63,-194.44 1411.09,-195.523 1420,-201.249 1421.63,-194.44"/>
</g>
<!-- Node8 -->
<g id="node15" class="node"><title>Node8</title>
<polygon fill="white" stroke="#bfbfbf" points="2300,-0.5 2300,-21.5 2352,-21.5 2352,-0.5 2300,-0.5"/>
<text text-anchor="middle" x="2326" y="-8.5" font-family="Helvetica,sans-Serif" font-size="10.00">memory</text>
</g>
<!-- Node3&#45;&gt;Node8 -->
<g id="edge14" class="edge"><title>Node3&#45;&gt;Node8</title>
<path fill="none" stroke="midnightblue" d="M1642.63,-232.429C1760.9,-194.104 2166.71,-62.6132 2290.11,-22.6277"/>
<polygon fill="midnightblue" stroke="midnightblue" points="2291.41,-25.8886 2299.84,-19.4765 2289.25,-19.2294 2291.41,-25.8886"/>
</g>
<!-- Node9&#45;&gt;Node3 -->
<g id="edge18" class="edge"><title>Node9&#45;&gt;Node3</title>
<path fill="none" stroke="midnightblue" d="M1989.15,-290.497C1908.77,-280.427 1787.63,-265.251 1704.01,-254.776"/>
<polygon fill="midnightblue" stroke="midnightblue" points="1704.36,-251.293 1694,-253.523 1703.49,-258.239 1704.36,-251.293"/>
</g>
<!-- Node10&#45;&gt;Node3 -->
<g id="edge22" class="edge"><title>Node10&#45;&gt;Node3</title>
<path fill="none" stroke="midnightblue" d="M2179.27,-290.81C2176.48,-290.533 2173.72,-290.262 2171,-290 2010.69,-274.558 1824.33,-259.523 1711.87,-250.768"/>
<polygon fill="midnightblue" stroke="midnightblue" points="1712.13,-247.278 1701.89,-249.993 1711.59,-254.257 1712.13,-247.278"/>
</g>
<!-- Node11&#45;&gt;Node3 -->
<g id="edge26" class="edge"><title>Node11&#45;&gt;Node3</title>
<path fill="none" stroke="midnightblue" d="M1790.98,-290.497C1754.17,-280.836 1699.45,-266.477 1659.83,-256.077"/>
<polygon fill="midnightblue" stroke="midnightblue" points="1660.66,-252.676 1650.1,-253.523 1658.88,-259.447 1660.66,-252.676"/>
</g>
<!-- Node12&#45;&gt;Node3 -->
<g id="edge30" class="edge"><title>Node12&#45;&gt;Node3</title>
<path fill="none" stroke="midnightblue" d="M1299.5,-348.484C1348.75,-341.561 1406.84,-330.263 1457,-312 1475.34,-305.323 1477.48,-298.6 1495,-290 1519.96,-277.746 1548.95,-265.914 1571.57,-257.187"/>
<polygon fill="midnightblue" stroke="midnightblue" points="1573.07,-260.361 1581.17,-253.526 1570.58,-253.822 1573.07,-260.361"/>
</g>
<!-- Node13 -->
<g id="node29" class="node"><title>Node13</title>
<a xlink:href="SSDSAlternation_8h.html" target="_top" xlink:title="walking&#45;client/constraints/SSDSAlternation.h">
<polygon fill="white" stroke="black" points="1504,-290.5 1504,-311.5 1716,-311.5 1716,-290.5 1504,-290.5"/>
<text text-anchor="middle" x="1610" y="-298.5" font-family="Helvetica,sans-Serif" font-size="10.00">walking&#45;client/constraints/SSDSAlternation.h</text>
</a>
</g>
<!-- Node12&#45;&gt;Node13 -->
<g id="edge32" class="edge"><title>Node12&#45;&gt;Node13</title>
<path fill="none" stroke="midnightblue" d="M1265.24,-348.497C1338.03,-338.468 1447.59,-323.374 1523.59,-312.904"/>
<polygon fill="midnightblue" stroke="midnightblue" points="1524.19,-316.355 1533.62,-311.523 1523.23,-309.421 1524.19,-316.355"/>
</g>
<!-- Node14 -->
<g id="node32" class="node"><title>Node14</title>
<a xlink:href="SingleSupport_8h.html" target="_top" xlink:title="walking&#45;client/constraints/SingleSupport.h">
<polygon fill="white" stroke="black" points="725.5,-290.5 725.5,-311.5 924.5,-311.5 924.5,-290.5 725.5,-290.5"/>
<text text-anchor="middle" x="825" y="-298.5" font-family="Helvetica,sans-Serif" font-size="10.00">walking&#45;client/constraints/SingleSupport.h</text>
</a>
</g>
<!-- Node12&#45;&gt;Node14 -->
<g id="edge36" class="edge"><title>Node12&#45;&gt;Node14</title>
<path fill="none" stroke="midnightblue" d="M1123.08,-348.497C1060.53,-338.529 966.578,-323.559 900.921,-313.097"/>
<polygon fill="midnightblue" stroke="midnightblue" points="901.467,-309.64 891.041,-311.523 900.366,-316.553 901.467,-309.64"/>
</g>
<!-- Node15 -->
<g id="node35" class="node"><title>Node15</title>
<a xlink:href="ContactConfigHistory_8h.html" target="_top" xlink:title="walking&#45;client/constraints/ContactConfigHistory.h">
<polygon fill="white" stroke="black" points="941.5,-290.5 941.5,-311.5 1174.5,-311.5 1174.5,-290.5 941.5,-290.5"/>
<text text-anchor="middle" x="1058" y="-298.5" font-family="Helvetica,sans-Serif" font-size="10.00">walking&#45;client/constraints/ContactConfigHistory.h</text>
</a>
</g>
<!-- Node12&#45;&gt;Node15 -->
<g id="edge40" class="edge"><title>Node12&#45;&gt;Node15</title>
<path fill="none" stroke="midnightblue" d="M1165.28,-348.497C1144.63,-339.356 1114.48,-326.008 1091.4,-315.788"/>
<polygon fill="midnightblue" stroke="midnightblue" points="1092.55,-312.469 1081.99,-311.621 1089.72,-318.87 1092.55,-312.469"/>
</g>
<!-- Node16 -->
<g id="node38" class="node"><title>Node16</title>
<a xlink:href="ContactConfigEnforcement_8h.html" target="_top" xlink:title="walking&#45;client/constraints/ContactConfigEnforcement.h">
<polygon fill="white" stroke="black" points="1191.5,-290.5 1191.5,-311.5 1448.5,-311.5 1448.5,-290.5 1191.5,-290.5"/>
<text text-anchor="middle" x="1320" y="-298.5" font-family="Helvetica,sans-Serif" font-size="10.00">walking&#45;client/constraints/ContactConfigEnforcement.h</text>
</a>
</g>
<!-- Node12&#45;&gt;Node16 -->
<g id="edge44" class="edge"><title>Node12&#45;&gt;Node16</title>
<path fill="none" stroke="midnightblue" d="M1212.72,-348.497C1233.37,-339.356 1263.52,-326.008 1286.6,-315.788"/>
<polygon fill="midnightblue" stroke="midnightblue" points="1288.28,-318.87 1296.01,-311.621 1285.45,-312.469 1288.28,-318.87"/>
</g>
<!-- Node13&#45;&gt;Node3 -->
<g id="edge34" class="edge"><title>Node13&#45;&gt;Node3</title>
<path fill="none" stroke="midnightblue" d="M1610,-290.362C1610,-282.922 1610,-272.743 1610,-263.728"/>
<polygon fill="midnightblue" stroke="midnightblue" points="1613.5,-263.571 1610,-253.571 1606.5,-263.571 1613.5,-263.571"/>
</g>
<!-- Node14&#45;&gt;Node3 -->
<g id="edge38" class="edge"><title>Node14&#45;&gt;Node3</title>
<path fill="none" stroke="midnightblue" d="M924.728,-290.701C927.515,-290.459 930.276,-290.224 933,-290 1186.87,-269.091 1251.16,-275.275 1505,-254 1506.1,-253.908 1507.2,-253.815 1508.31,-253.719"/>
<polygon fill="midnightblue" stroke="midnightblue" points="1508.75,-257.194 1518.4,-252.823 1508.13,-250.222 1508.75,-257.194"/>
</g>
<!-- Node15&#45;&gt;Node3 -->
<g id="edge42" class="edge"><title>Node15&#45;&gt;Node3</title>
<path fill="none" stroke="midnightblue" d="M1157.96,-290.497C1257.09,-280.082 1408.2,-264.204 1508.02,-253.715"/>
<polygon fill="midnightblue" stroke="midnightblue" points="1508.54,-257.18 1518.12,-252.654 1507.81,-250.219 1508.54,-257.18"/>
</g>
<!-- Node16&#45;&gt;Node3 -->
<g id="edge46" class="edge"><title>Node16&#45;&gt;Node3</title>
<path fill="none" stroke="midnightblue" d="M1372.52,-290.497C1421.74,-280.652 1495.36,-265.927 1547.57,-255.486"/>
<polygon fill="midnightblue" stroke="midnightblue" points="1548.27,-258.916 1557.38,-253.523 1546.89,-252.052 1548.27,-258.916"/>
</g>
<!-- Node17&#45;&gt;Node4 -->
<g id="edge52" class="edge"><title>Node17&#45;&gt;Node4</title>
<path fill="none" stroke="midnightblue" d="M196.353,-232.497C218.613,-223.275 251.212,-209.769 275.963,-199.515"/>
<polygon fill="midnightblue" stroke="midnightblue" points="277.464,-202.682 285.363,-195.621 274.784,-196.215 277.464,-202.682"/>
</g>
<!-- Node18 -->
<g id="node43" class="node"><title>Node18</title>
<polygon fill="white" stroke="#bfbfbf" points="86.5,-174.5 86.5,-195.5 241.5,-195.5 241.5,-174.5 86.5,-174.5"/>
<text text-anchor="middle" x="164" y="-182.5" font-family="Helvetica,sans-Serif" font-size="10.00">ocra&#45;recipes/TrajectoryThread.h</text>
</g>
<!-- Node17&#45;&gt;Node18 -->
<g id="edge50" class="edge"><title>Node17&#45;&gt;Node18</title>
<path fill="none" stroke="midnightblue" d="M169.716,-232.362C168.818,-224.922 167.59,-214.743 166.502,-205.728"/>
<polygon fill="midnightblue" stroke="midnightblue" points="169.949,-205.079 165.276,-195.571 162.999,-205.918 169.949,-205.079"/>
</g>
<!-- Node19&#45;&gt;Node4 -->
<g id="edge152" class="edge"><title>Node19&#45;&gt;Node4</title>
<path fill="none" stroke="midnightblue" d="M553.783,-298.28C475.746,-293.939 362.214,-282.741 330,-254 316.571,-242.019 312.256,-221.507 311.04,-205.953"/>
<polygon fill="midnightblue" stroke="midnightblue" points="314.526,-205.543 310.617,-195.696 307.532,-205.832 314.526,-205.543"/>
</g>
<!-- Node19&#45;&gt;Node5 -->
<g id="edge66" class="edge"><title>Node19&#45;&gt;Node5</title>
<path fill="none" stroke="midnightblue" d="M708.325,-290.824C711.252,-290.53 714.151,-290.253 717,-290 796.453,-282.935 1365.68,-295.176 1434,-254 1451.82,-243.261 1462.8,-221.58 1468.86,-205.372"/>
<polygon fill="midnightblue" stroke="midnightblue" points="1472.24,-206.276 1472.15,-195.682 1465.62,-204.024 1472.24,-206.276"/>
</g>
<!-- Node19&#45;&gt;Node6 -->
<g id="edge64" class="edge"><title>Node19&#45;&gt;Node6</title>
<path fill="none" stroke="midnightblue" d="M708.324,-290.818C711.251,-290.525 714.151,-290.251 717,-290 881.225,-275.531 1297.76,-292.761 1458,-254 1464.27,-252.484 1535.33,-219.704 1578.04,-199.879"/>
<polygon fill="midnightblue" stroke="midnightblue" points="1579.6,-203.01 1587.2,-195.623 1576.66,-196.662 1579.6,-203.01"/>
</g>
<!-- Node19&#45;&gt;Node17 -->
<g id="edge150" class="edge"><title>Node19&#45;&gt;Node17</title>
<path fill="none" stroke="midnightblue" d="M553.747,-291.259C471.367,-280.872 341.274,-264.469 256.031,-253.721"/>
<polygon fill="midnightblue" stroke="midnightblue" points="256.223,-250.218 245.864,-252.439 255.348,-257.163 256.223,-250.218"/>
</g>
<!-- Node20 -->
<g id="node48" class="node"><title>Node20</title>
<polygon fill="white" stroke="#bfbfbf" points="338.5,-232.5 338.5,-253.5 441.5,-253.5 441.5,-232.5 338.5,-232.5"/>
<text text-anchor="middle" x="390" y="-240.5" font-family="Helvetica,sans-Serif" font-size="10.00">boost/geometry.hpp</text>
</g>
<!-- Node19&#45;&gt;Node20 -->
<g id="edge56" class="edge"><title>Node19&#45;&gt;Node20</title>
<path fill="none" stroke="midnightblue" d="M587.357,-290.497C546.962,-280.775 486.79,-266.294 443.513,-255.879"/>
<polygon fill="midnightblue" stroke="midnightblue" points="444.267,-252.46 433.725,-253.523 442.629,-259.266 444.267,-252.46"/>
</g>
<!-- Node21 -->
<g id="node50" class="node"><title>Node21</title>
<polygon fill="white" stroke="#bfbfbf" points="458.5,-232.5 458.5,-253.5 649.5,-253.5 649.5,-232.5 458.5,-232.5"/>
<text text-anchor="middle" x="554" y="-240.5" font-family="Helvetica,sans-Serif" font-size="10.00">boost/geometry/geometries/polygon.hpp</text>
</g>
<!-- Node19&#45;&gt;Node21 -->
<g id="edge58" class="edge"><title>Node19&#45;&gt;Node21</title>
<path fill="none" stroke="midnightblue" d="M616.877,-290.362C605.48,-281.777 589.242,-269.546 576.122,-259.664"/>
<polygon fill="midnightblue" stroke="midnightblue" points="578.127,-256.792 568.033,-253.571 573.915,-262.383 578.127,-256.792"/>
</g>
<!-- Node22 -->
<g id="node52" class="node"><title>Node22</title>
<polygon fill="white" stroke="#bfbfbf" points="666.5,-232.5 666.5,-253.5 839.5,-253.5 839.5,-232.5 666.5,-232.5"/>
<text text-anchor="middle" x="753" y="-240.5" font-family="Helvetica,sans-Serif" font-size="10.00">boost/geometry/geometries/box.hpp</text>
</g>
<!-- Node19&#45;&gt;Node22 -->
<g id="edge60" class="edge"><title>Node19&#45;&gt;Node22</title>
<path fill="none" stroke="midnightblue" d="M653.093,-290.497C672.234,-281.397 700.146,-268.127 721.605,-257.925"/>
<polygon fill="midnightblue" stroke="midnightblue" points="723.13,-261.076 730.659,-253.621 720.125,-254.754 723.13,-261.076"/>
</g>
<!-- Node23 -->
<g id="node54" class="node"><title>Node23</title>
<polygon fill="white" stroke="#bfbfbf" points="856.5,-232.5 856.5,-253.5 1101.5,-253.5 1101.5,-232.5 856.5,-232.5"/>
<text text-anchor="middle" x="979" y="-240.5" font-family="Helvetica,sans-Serif" font-size="10.00">boost/geometry/geometries/adapted/boost_tuple.hpp</text>
</g>
<!-- Node19&#45;&gt;Node23 -->
<g id="edge62" class="edge"><title>Node19&#45;&gt;Node23</title>
<path fill="none" stroke="midnightblue" d="M694.02,-290.497C753.578,-280.57 842.908,-265.682 905.642,-255.226"/>
<polygon fill="midnightblue" stroke="midnightblue" points="906.573,-258.62 915.862,-253.523 905.422,-251.715 906.573,-258.62"/>
</g>
<!-- Node24 -->
<g id="node58" class="node"><title>Node24</title>
<a xlink:href="MIQPState_8h.html" target="_top" xlink:title="walking&#45;client/MIQPState.h">
<polygon fill="white" stroke="black" points="1119,-232.5 1119,-253.5 1255,-253.5 1255,-232.5 1119,-232.5"/>
<text text-anchor="middle" x="1187" y="-240.5" font-family="Helvetica,sans-Serif" font-size="10.00">walking&#45;client/MIQPState.h</text>
</a>
</g>
<!-- Node19&#45;&gt;Node24 -->
<g id="edge68" class="edge"><title>Node19&#45;&gt;Node24</title>
<path fill="none" stroke="midnightblue" d="M708.34,-290.975C711.263,-290.638 714.157,-290.312 717,-290 888.117,-271.225 934.1,-274.286 1108.56,-254.125"/>
<polygon fill="midnightblue" stroke="midnightblue" points="1109.06,-257.589 1118.59,-252.956 1108.25,-250.636 1109.06,-257.589"/>
</g>
<!-- Node50 -->
<g id="node127" class="node"><title>Node50</title>
<polygon fill="white" stroke="#bfbfbf" points="1273,-232.5 1273,-253.5 1425,-253.5 1425,-232.5 1273,-232.5"/>
<text text-anchor="middle" x="1349" y="-240.5" font-family="Helvetica,sans-Serif" font-size="10.00">ocra&#45;recipes/TaskConnection.h</text>
</g>
<!-- Node19&#45;&gt;Node50 -->
<g id="edge154" class="edge"><title>Node19&#45;&gt;Node50</title>
<path fill="none" stroke="midnightblue" d="M708.33,-290.881C711.256,-290.571 714.153,-290.275 717,-290 956.189,-266.854 1019.78,-277.349 1262.38,-254.108"/>
<polygon fill="midnightblue" stroke="midnightblue" points="1262.95,-257.569 1272.57,-253.122 1262.28,-250.601 1262.95,-257.569"/>
</g>
<!-- Node24&#45;&gt;Node4 -->
<g id="edge146" class="edge"><title>Node24&#45;&gt;Node4</title>
<path fill="none" stroke="midnightblue" d="M1118.61,-232.893C1115.7,-232.57 1112.82,-232.27 1110,-232 785.315,-200.903 701.301,-230.87 377,-196 375.903,-195.882 374.796,-195.758 373.682,-195.628"/>
<polygon fill="midnightblue" stroke="midnightblue" points="373.886,-192.125 363.521,-194.318 372.992,-199.068 373.886,-192.125"/>
</g>
<!-- Node24&#45;&gt;Node7 -->
<g id="edge144" class="edge"><title>Node24&#45;&gt;Node7</title>
<path fill="none" stroke="midnightblue" d="M1219.6,-232.497C1249.07,-223 1292.64,-208.962 1324.77,-198.609"/>
<polygon fill="midnightblue" stroke="midnightblue" points="1325.9,-201.921 1334.34,-195.523 1323.75,-195.259 1325.9,-201.921"/>
</g>
<!-- Node25 -->
<g id="node60" class="node"><title>Node25</title>
<polygon fill="white" stroke="#bfbfbf" points="-0.5,-0.5 -0.5,-21.5 72.5,-21.5 72.5,-0.5 -0.5,-0.5"/>
<text text-anchor="middle" x="36" y="-8.5" font-family="Helvetica,sans-Serif" font-size="10.00">Eigen/Dense</text>
</g>
<!-- Node24&#45;&gt;Node25 -->
<g id="edge70" class="edge"><title>Node24&#45;&gt;Node25</title>
<path fill="none" stroke="midnightblue" d="M1118.96,-233.268C939.44,-207.58 466.091,-139.79 458,-138 314.768,-106.318 149.372,-50.8546 75.354,-25.0034"/>
<polygon fill="midnightblue" stroke="midnightblue" points="76.1229,-21.5641 65.528,-21.5577 73.8064,-28.1697 76.1229,-21.5641"/>
</g>
<!-- Node26 -->
<g id="node62" class="node"><title>Node26</title>
<a xlink:href="OcraWbiModel_8h.html" target="_top" xlink:title="Implementation of ocra::Model using wholeBodyInterface.">
<polygon fill="white" stroke="black" points="1159,-174.5 1159,-195.5 1291,-195.5 1291,-174.5 1159,-174.5"/>
<text text-anchor="middle" x="1225" y="-182.5" font-family="Helvetica,sans-Serif" font-size="10.00">ocra&#45;icub/OcraWbiModel.h</text>
</a>
</g>
<!-- Node24&#45;&gt;Node26 -->
<g id="edge72" class="edge"><title>Node24&#45;&gt;Node26</title>
<path fill="none" stroke="midnightblue" d="M1193.97,-232.362C1199.17,-224.431 1206.4,-213.389 1212.58,-203.961"/>
<polygon fill="midnightblue" stroke="midnightblue" points="1215.52,-205.853 1218.07,-195.571 1209.67,-202.017 1215.52,-205.853"/>
</g>
<!-- Node34 -->
<g id="node81" class="node"><title>Node34</title>
<a xlink:href="Utilities_8h.html" target="_top" xlink:title="Some useful tools for the ocra&#45;icub lib.">
<polygon fill="white" stroke="red" points="1126.5,-58.5 1126.5,-79.5 1227.5,-79.5 1227.5,-58.5 1126.5,-58.5"/>
<text text-anchor="middle" x="1177" y="-66.5" font-family="Helvetica,sans-Serif" font-size="10.00">ocra&#45;icub/Utilities.h</text>
</a>
</g>
<!-- Node24&#45;&gt;Node34 -->
<g id="edge148" class="edge"><title>Node24&#45;&gt;Node34</title>
<path fill="none" stroke="midnightblue" d="M1175.13,-232.36C1166.3,-223.599 1154.96,-210.327 1150,-196 1137.23,-159.145 1154.06,-114.091 1166.31,-88.7592"/>
<polygon fill="midnightblue" stroke="midnightblue" points="1169.46,-90.2806 1170.86,-79.779 1163.22,-87.1138 1169.46,-90.2806"/>
</g>
<!-- Node26&#45;&gt;Node8 -->
<g id="edge74" class="edge"><title>Node26&#45;&gt;Node8</title>
<path fill="none" stroke="midnightblue" d="M1291.24,-175.183C1294.2,-174.777 1297.13,-174.38 1300,-174 1434.88,-156.127 1469.37,-157.639 1604,-138 1809.77,-107.984 1859.87,-92.1349 2065,-58 2162.2,-41.8261 2190.26,-45.0802 2289.87,-22.0217"/>
<polygon fill="midnightblue" stroke="midnightblue" points="2290.81,-25.3982 2299.74,-19.7066 2289.21,-18.5832 2290.81,-25.3982"/>
</g>
<!-- Node27 -->
<g id="node65" class="node"><title>Node27</title>
<polygon fill="white" stroke="#bfbfbf" points="2101.5,-0.5 2101.5,-21.5 2206.5,-21.5 2206.5,-0.5 2101.5,-0.5"/>
<text text-anchor="middle" x="2154" y="-8.5" font-family="Helvetica,sans-Serif" font-size="10.00">ocra/control/Model.h</text>
</g>
<!-- Node26&#45;&gt;Node27 -->
<g id="edge76" class="edge"><title>Node26&#45;&gt;Node27</title>
<path fill="none" stroke="midnightblue" d="M1277.14,-174.448C1387.95,-152.118 1655.19,-98.7866 1880,-58 1971.33,-41.4302 1996.75,-38.6912 2091.43,-22.2594"/>
<polygon fill="midnightblue" stroke="midnightblue" points="2092.18,-25.6809 2101.43,-20.5169 2090.98,-18.7847 2092.18,-25.6809"/>
</g>
<!-- Node28 -->
<g id="node67" class="node"><title>Node28</title>
<polygon fill="white" stroke="#bfbfbf" points="2224,-0.5 2224,-21.5 2282,-21.5 2282,-0.5 2224,-0.5"/>
<text text-anchor="middle" x="2253" y="-8.5" font-family="Helvetica,sans-Serif" font-size="10.00">wbi/wbi.h</text>
</g>
<!-- Node26&#45;&gt;Node28 -->
<g id="edge78" class="edge"><title>Node26&#45;&gt;Node28</title>
<path fill="none" stroke="midnightblue" d="M1291.04,-175.157C1366.97,-163.791 1486.95,-145.676 1532,-138 1721.91,-105.641 1767.89,-89.1482 1958,-58 2068.6,-39.8794 2100.42,-45.7348 2213.54,-22.0895"/>
<polygon fill="midnightblue" stroke="midnightblue" points="2214.59,-25.4454 2223.65,-19.9455 2213.14,-18.5979 2214.59,-25.4454"/>
</g>
<!-- Node29 -->
<g id="node69" class="node"><title>Node29</title>
<polygon fill="white" stroke="#bfbfbf" points="90,-0.5 90,-21.5 166,-21.5 166,-0.5 90,-0.5"/>
<text text-anchor="middle" x="128" y="-8.5" font-family="Helvetica,sans-Serif" font-size="10.00">yarp/os/Log.h</text>
</g>
<!-- Node26&#45;&gt;Node29 -->
<g id="edge80" class="edge"><title>Node26&#45;&gt;Node29</title>
<path fill="none" stroke="midnightblue" d="M1158.95,-183.274C990.224,-178.512 552.391,-163.802 492,-138 443.695,-117.362 452.314,-80.8192 405,-58 314.718,-14.4575 278.814,-40.0781 176.301,-22.0673"/>
<polygon fill="midnightblue" stroke="midnightblue" points="176.639,-18.5703 166.168,-20.1843 175.36,-25.4525 176.639,-18.5703"/>
</g>
<!-- Node30 -->
<g id="node71" class="node"><title>Node30</title>
<a xlink:href="OcraWbiConversions_8h.html" target="_top" xlink:title="A utility class full of static conversion functions.">
<polygon fill="white" stroke="red" points="500.5,-116.5 500.5,-137.5 661.5,-137.5 661.5,-116.5 500.5,-116.5"/>
<text text-anchor="middle" x="581" y="-124.5" font-family="Helvetica,sans-Serif" font-size="10.00">ocra&#45;icub/OcraWbiConversions.h</text>
</a>
</g>
<!-- Node26&#45;&gt;Node30 -->
<g id="edge82" class="edge"><title>Node26&#45;&gt;Node30</title>
<path fill="none" stroke="midnightblue" d="M1158.81,-179.039C1042.91,-168.6 803.09,-147.002 671.791,-135.177"/>
<polygon fill="midnightblue" stroke="midnightblue" points="672.028,-131.684 661.754,-134.273 671.4,-138.656 672.028,-131.684"/>
</g>
<!-- Node26&#45;&gt;Node34 -->
<g id="edge142" class="edge"><title>Node26&#45;&gt;Node34</title>
<path fill="none" stroke="midnightblue" d="M1220.57,-174.295C1212.57,-154.959 1195.59,-113.923 1185.35,-89.1767"/>
<polygon fill="midnightblue" stroke="midnightblue" points="1188.48,-87.5811 1181.42,-79.6792 1182.01,-90.2576 1188.48,-87.5811"/>
</g>
<!-- Node30&#45;&gt;Node28 -->
<g id="edge92" class="edge"><title>Node30&#45;&gt;Node28</title>
<path fill="none" stroke="midnightblue" d="M661.544,-122.856C963.579,-107.178 2021.04,-50.9941 2213.7,-21.7948"/>
<polygon fill="midnightblue" stroke="midnightblue" points="2214.38,-25.23 2223.69,-20.1681 2213.26,-18.321 2214.38,-25.23"/>
</g>
<!-- Node30&#45;&gt;Node29 -->
<g id="edge90" class="edge"><title>Node30&#45;&gt;Node29</title>
<path fill="none" stroke="midnightblue" d="M556.877,-116.361C536.446,-107.184 506.495,-93.3405 481,-80 463.709,-70.9524 461.467,-64.3083 443,-58 332.27,-20.1758 295.158,-42.4674 176.018,-22.0122"/>
<polygon fill="midnightblue" stroke="midnightblue" points="176.614,-18.5634 166.155,-20.2543 175.386,-25.4548 176.614,-18.5634"/>
</g>
<!-- Node31 -->
<g id="node73" class="node"><title>Node31</title>
<polygon fill="white" stroke="#bfbfbf" points="292,-0.5 292,-21.5 346,-21.5 346,-0.5 292,-0.5"/>
<text text-anchor="middle" x="319" y="-8.5" font-family="Helvetica,sans-Serif" font-size="10.00">iostream</text>
</g>
<!-- Node30&#45;&gt;Node31 -->
<g id="edge84" class="edge"><title>Node30&#45;&gt;Node31</title>
<path fill="none" stroke="midnightblue" d="M574.639,-116.481C564.752,-101.089 544.188,-72.6715 519,-58 457.162,-21.9808 429.491,-39.3364 355.777,-21.9518"/>
<polygon fill="midnightblue" stroke="midnightblue" points="356.61,-18.5524 346.06,-19.5236 354.913,-25.3436 356.61,-18.5524"/>
</g>
<!-- Node32 -->
<g id="node75" class="node"><title>Node32</title>
<polygon fill="white" stroke="#bfbfbf" points="364,-0.5 364,-21.5 408,-21.5 408,-0.5 364,-0.5"/>
<text text-anchor="middle" x="386" y="-8.5" font-family="Helvetica,sans-Serif" font-size="10.00">vector</text>
</g>
<!-- Node30&#45;&gt;Node32 -->
<g id="edge86" class="edge"><title>Node30&#45;&gt;Node32</title>
<path fill="none" stroke="midnightblue" d="M580.352,-116.454C578.84,-101.291 573.799,-73.4589 557,-58 512.033,-16.6201 481.539,-38.3624 418.28,-22.0049"/>
<polygon fill="midnightblue" stroke="midnightblue" points="418.847,-18.5281 408.272,-19.1708 416.94,-25.2632 418.847,-18.5281"/>
</g>
<!-- Node33 -->
<g id="node77" class="node"><title>Node33</title>
<polygon fill="white" stroke="#bfbfbf" points="183.5,-0.5 183.5,-21.5 274.5,-21.5 274.5,-0.5 183.5,-0.5"/>
<text text-anchor="middle" x="229" y="-8.5" font-family="Helvetica,sans-Serif" font-size="10.00">yarp/sig/Vector.h</text>
</g>
<!-- Node30&#45;&gt;Node33 -->
<g id="edge88" class="edge"><title>Node30&#45;&gt;Node33</title>
<path fill="none" stroke="midnightblue" d="M567.094,-116.306C544.184,-98.8781 499.226,-65.533 481,-58 401.245,-25.0374 372.829,-37.9273 284.546,-22.206"/>
<polygon fill="midnightblue" stroke="midnightblue" points="285.122,-18.7533 274.652,-20.3699 283.845,-25.6358 285.122,-18.7533"/>
</g>
<!-- Node30&#45;&gt;Node34 -->
<g id="edge94" class="edge"><title>Node30&#45;&gt;Node34</title>
<path fill="none" stroke="midnightblue" d="M661.689,-119.148C782.607,-107.381 1008.13,-85.4335 1116.2,-74.9165"/>
<polygon fill="midnightblue" stroke="midnightblue" points="1116.67,-78.3873 1126.29,-73.9351 1116,-71.4202 1116.67,-78.3873"/>
</g>
<!-- Node34&#45;&gt;Node8 -->
<g id="edge96" class="edge"><title>Node34&#45;&gt;Node8</title>
<path fill="none" stroke="midnightblue" d="M1227.65,-68.6237C1414.05,-66.9695 2062.41,-58.7697 2289.64,-21.7686"/>
<polygon fill="midnightblue" stroke="midnightblue" points="2290.54,-25.1657 2299.81,-20.042 2289.37,-18.2643 2290.54,-25.1657"/>
</g>
<!-- Node34&#45;&gt;Node25 -->
<g id="edge140" class="edge"><title>Node34&#45;&gt;Node25</title>
<path fill="none" stroke="midnightblue" d="M1126.28,-68.1505C941.862,-64.8588 306.514,-51.6928 82.7448,-21.9823"/>
<polygon fill="midnightblue" stroke="midnightblue" points="83.1063,-18.4991 72.722,-20.6007 82.1503,-25.4335 83.1063,-18.4991"/>
</g>
<!-- Node34&#45;&gt;Node27 -->
<g id="edge138" class="edge"><title>Node34&#45;&gt;Node27</title>
<path fill="none" stroke="midnightblue" d="M1227.74,-67.2481C1391.28,-61.4709 1904.25,-42.2908 2091.49,-22.0259"/>
<polygon fill="midnightblue" stroke="midnightblue" points="2091.94,-25.4973 2101.49,-20.9063 2091.16,-18.5408 2091.94,-25.4973"/>
</g>
<!-- Node34&#45;&gt;Node28 -->
<g id="edge136" class="edge"><title>Node34&#45;&gt;Node28</title>
<path fill="none" stroke="midnightblue" d="M1227.55,-68.2927C1405.31,-65.5629 2001.9,-54.2875 2213.61,-21.836"/>
<polygon fill="midnightblue" stroke="midnightblue" points="2214.38,-25.2581 2223.7,-20.2245 2213.27,-18.3458 2214.38,-25.2581"/>
</g>
<!-- Node34&#45;&gt;Node29 -->
<g id="edge126" class="edge"><title>Node34&#45;&gt;Node29</title>
<path fill="none" stroke="midnightblue" d="M1126.44,-67.8531C952.872,-63.7278 381.236,-48.5364 176.178,-21.8939"/>
<polygon fill="midnightblue" stroke="midnightblue" points="176.488,-18.4041 166.11,-20.5348 175.552,-25.3412 176.488,-18.4041"/>
</g>
<!-- Node34&#45;&gt;Node31 -->
<g id="edge100" class="edge"><title>Node34&#45;&gt;Node31</title>
<path fill="none" stroke="midnightblue" d="M1126.27,-67.6892C974.274,-63.5165 523.344,-49.2854 356.455,-21.8376"/>
<polygon fill="midnightblue" stroke="midnightblue" points="356.801,-18.3456 346.351,-20.0962 355.612,-25.2439 356.801,-18.3456"/>
</g>
<!-- Node34&#45;&gt;Node32 -->
<g id="edge104" class="edge"><title>Node34&#45;&gt;Node32</title>
<path fill="none" stroke="midnightblue" d="M1126.43,-67.711C982.616,-63.7608 572.321,-50.446 418.341,-21.6975"/>
<polygon fill="midnightblue" stroke="midnightblue" points="418.627,-18.1867 408.14,-19.6913 417.276,-25.0552 418.627,-18.1867"/>
</g>
<!-- Node34&#45;&gt;Node33 -->
<g id="edge132" class="edge"><title>Node34&#45;&gt;Node33</title>
<path fill="none" stroke="midnightblue" d="M1126.31,-67.327C965.491,-61.8657 467.033,-43.7234 284.59,-22.0162"/>
<polygon fill="midnightblue" stroke="midnightblue" points="284.939,-18.5328 274.586,-20.7812 284.082,-25.4801 284.939,-18.5328"/>
</g>
<!-- Node35 -->
<g id="node84" class="node"><title>Node35</title>
<polygon fill="white" stroke="#bfbfbf" points="1912,-0.5 1912,-21.5 1956,-21.5 1956,-0.5 1912,-0.5"/>
<text text-anchor="middle" x="1934" y="-8.5" font-family="Helvetica,sans-Serif" font-size="10.00">cmath</text>
</g>
<!-- Node34&#45;&gt;Node35 -->
<g id="edge98" class="edge"><title>Node34&#45;&gt;Node35</title>
<path fill="none" stroke="midnightblue" d="M1227.59,-67.5412C1366.85,-63.2436 1754.72,-49.3082 1901.7,-21.6951"/>
<polygon fill="midnightblue" stroke="midnightblue" points="1902.73,-25.0593 1911.86,-19.6833 1901.37,-18.1926 1902.73,-25.0593"/>
</g>
<!-- Node36 -->
<g id="node87" class="node"><title>Node36</title>
<polygon fill="white" stroke="#bfbfbf" points="1973.5,-0.5 1973.5,-21.5 2014.5,-21.5 2014.5,-0.5 1973.5,-0.5"/>
<text text-anchor="middle" x="1994" y="-8.5" font-family="Helvetica,sans-Serif" font-size="10.00">string</text>
</g>
<!-- Node34&#45;&gt;Node36 -->
<g id="edge102" class="edge"><title>Node34&#45;&gt;Node36</title>
<path fill="none" stroke="midnightblue" d="M1227.57,-67.9796C1375.16,-64.6935 1804.39,-52.8675 1963.25,-21.7809"/>
<polygon fill="midnightblue" stroke="midnightblue" points="1964.23,-25.1525 1973.32,-19.7053 1962.82,-18.2967 1964.23,-25.1525"/>
</g>
<!-- Node37 -->
<g id="node90" class="node"><title>Node37</title>
<polygon fill="white" stroke="#bfbfbf" points="2032,-0.5 2032,-21.5 2084,-21.5 2084,-0.5 2032,-0.5"/>
<text text-anchor="middle" x="2058" y="-8.5" font-family="Helvetica,sans-Serif" font-size="10.00">sstream</text>
</g>
<!-- Node34&#45;&gt;Node37 -->
<g id="edge106" class="edge"><title>Node34&#45;&gt;Node37</title>
<path fill="none" stroke="midnightblue" d="M1227.54,-67.8414C1382.47,-64.0352 1850.11,-50.5876 2021.89,-21.7452"/>
<polygon fill="midnightblue" stroke="midnightblue" points="2022.56,-25.1819 2031.8,-20.0032 2021.35,-18.2876 2022.56,-25.1819"/>
</g>
<!-- Node38 -->
<g id="node92" class="node"><title>Node38</title>
<polygon fill="white" stroke="#bfbfbf" points="425.5,-0.5 425.5,-21.5 540.5,-21.5 540.5,-0.5 425.5,-0.5"/>
<text text-anchor="middle" x="483" y="-8.5" font-family="Helvetica,sans-Serif" font-size="10.00">yarp/os/BufferedPort.h</text>
</g>
<!-- Node34&#45;&gt;Node38 -->
<g id="edge108" class="edge"><title>Node34&#45;&gt;Node38</title>
<path fill="none" stroke="midnightblue" d="M1126.38,-66.7675C1021.07,-61.7865 770.573,-48.1883 550.666,-22.1172"/>
<polygon fill="midnightblue" stroke="midnightblue" points="550.894,-18.6196 540.549,-20.9063 550.062,-25.57 550.894,-18.6196"/>
</g>
<!-- Node39 -->
<g id="node94" class="node"><title>Node39</title>
<polygon fill="white" stroke="#bfbfbf" points="558,-0.5 558,-21.5 644,-21.5 644,-0.5 558,-0.5"/>
<text text-anchor="middle" x="601" y="-8.5" font-family="Helvetica,sans-Serif" font-size="10.00">yarp/os/Bottle.h</text>
</g>
<!-- Node34&#45;&gt;Node39 -->
<g id="edge110" class="edge"><title>Node34&#45;&gt;Node39</title>
<path fill="none" stroke="midnightblue" d="M1126.18,-66.456C1034.04,-61.406 833.157,-48.3859 654.185,-22.0299"/>
<polygon fill="midnightblue" stroke="midnightblue" points="654.465,-18.5332 644.058,-20.5208 653.433,-25.4567 654.465,-18.5332"/>
</g>
<!-- Node40 -->
<g id="node96" class="node"><title>Node40</title>
<polygon fill="white" stroke="#bfbfbf" points="661.5,-0.5 661.5,-21.5 772.5,-21.5 772.5,-0.5 661.5,-0.5"/>
<text text-anchor="middle" x="717" y="-8.5" font-family="Helvetica,sans-Serif" font-size="10.00">yarp/os/RateThread.h</text>
</g>
<!-- Node34&#45;&gt;Node40 -->
<g id="edge112" class="edge"><title>Node34&#45;&gt;Node40</title>
<path fill="none" stroke="midnightblue" d="M1126.26,-63.8322C1052.73,-56.1555 912.044,-40.7615 782.89,-22.2253"/>
<polygon fill="midnightblue" stroke="midnightblue" points="783.218,-18.7365 772.82,-20.7703 782.217,-25.6645 783.218,-18.7365"/>
</g>
<!-- Node41 -->
<g id="node98" class="node"><title>Node41</title>
<polygon fill="white" stroke="#bfbfbf" points="789.5,-0.5 789.5,-21.5 918.5,-21.5 918.5,-0.5 789.5,-0.5"/>
<text text-anchor="middle" x="854" y="-8.5" font-family="Helvetica,sans-Serif" font-size="10.00">yarp/os/ResourceFinder.h</text>
</g>
<!-- Node34&#45;&gt;Node41 -->
<g id="edge114" class="edge"><title>Node34&#45;&gt;Node41</title>
<path fill="none" stroke="midnightblue" d="M1126.18,-59.8737C1071.31,-50.0222 983.618,-34.2751 922.654,-23.328"/>
<polygon fill="midnightblue" stroke="midnightblue" points="923.193,-19.8688 912.731,-21.5462 921.955,-26.7586 923.193,-19.8688"/>
</g>
<!-- Node42 -->
<g id="node100" class="node"><title>Node42</title>
<polygon fill="white" stroke="#bfbfbf" points="936,-0.5 936,-21.5 1046,-21.5 1046,-0.5 936,-0.5"/>
<text text-anchor="middle" x="991" y="-8.5" font-family="Helvetica,sans-Serif" font-size="10.00">yarp/os/PortReader.h</text>
</g>
<!-- Node34&#45;&gt;Node42 -->
<g id="edge116" class="edge"><title>Node34&#45;&gt;Node42</title>
<path fill="none" stroke="midnightblue" d="M1143.32,-58.4966C1112.86,-49.0001 1067.84,-34.9619 1034.64,-24.6087"/>
<polygon fill="midnightblue" stroke="midnightblue" points="1035.33,-21.1587 1024.75,-21.5231 1033.25,-27.8414 1035.33,-21.1587"/>
</g>
<!-- Node43 -->
<g id="node102" class="node"><title>Node43</title>
<polygon fill="white" stroke="#bfbfbf" points="1064,-0.5 1064,-21.5 1168,-21.5 1168,-0.5 1064,-0.5"/>
<text text-anchor="middle" x="1116" y="-8.5" font-family="Helvetica,sans-Serif" font-size="10.00">yarp/os/RpcClient.h</text>
</g>
<!-- Node34&#45;&gt;Node43 -->
<g id="edge118" class="edge"><title>Node34&#45;&gt;Node43</title>
<path fill="none" stroke="midnightblue" d="M1165.81,-58.3619C1157.04,-50.0226 1144.65,-38.2418 1134.42,-28.5162"/>
<polygon fill="midnightblue" stroke="midnightblue" points="1136.78,-25.9248 1127.12,-21.5707 1131.95,-30.9978 1136.78,-25.9248"/>
</g>
<!-- Node44 -->
<g id="node104" class="node"><title>Node44</title>
<polygon fill="white" stroke="#bfbfbf" points="1185.5,-0.5 1185.5,-21.5 1292.5,-21.5 1292.5,-0.5 1185.5,-0.5"/>
<text text-anchor="middle" x="1239" y="-8.5" font-family="Helvetica,sans-Serif" font-size="10.00">yarp/os/RpcServer.h</text>
</g>
<!-- Node34&#45;&gt;Node44 -->
<g id="edge120" class="edge"><title>Node34&#45;&gt;Node44</title>
<path fill="none" stroke="midnightblue" d="M1188.37,-58.3619C1197.29,-50.0226 1209.88,-38.2418 1220.28,-28.5162"/>
<polygon fill="midnightblue" stroke="midnightblue" points="1222.79,-30.9582 1227.7,-21.5707 1218.01,-25.8463 1222.79,-30.9582"/>
</g>
<!-- Node45 -->
<g id="node106" class="node"><title>Node45</title>
<polygon fill="white" stroke="#bfbfbf" points="1309.5,-0.5 1309.5,-21.5 1450.5,-21.5 1450.5,-0.5 1309.5,-0.5"/>
<text text-anchor="middle" x="1380" y="-8.5" font-family="Helvetica,sans-Serif" font-size="10.00">yarp/os/ConnectionReader.h</text>
</g>
<!-- Node34&#45;&gt;Node45 -->
<g id="edge122" class="edge"><title>Node34&#45;&gt;Node45</title>
<path fill="none" stroke="midnightblue" d="M1213.76,-58.4966C1247.29,-48.9183 1296.98,-34.7196 1333.3,-24.3418"/>
<polygon fill="midnightblue" stroke="midnightblue" points="1334.52,-27.6357 1343.17,-21.5231 1332.59,-20.905 1334.52,-27.6357"/>
</g>
<!-- Node46 -->
<g id="node108" class="node"><title>Node46</title>
<polygon fill="white" stroke="#bfbfbf" points="1468,-0.5 1468,-21.5 1550,-21.5 1550,-0.5 1468,-0.5"/>
<text text-anchor="middle" x="1509" y="-8.5" font-family="Helvetica,sans-Serif" font-size="10.00">yarp/os/Time.h</text>
</g>
<!-- Node34&#45;&gt;Node46 -->
<g id="edge124" class="edge"><title>Node34&#45;&gt;Node46</title>
<path fill="none" stroke="midnightblue" d="M1227.57,-61.3737C1282.02,-52.9836 1371.41,-38.6924 1457.85,-22.1541"/>
<polygon fill="midnightblue" stroke="midnightblue" points="1458.68,-25.5602 1467.83,-20.2322 1457.35,-18.6865 1458.68,-25.5602"/>
</g>
<!-- Node47 -->
<g id="node111" class="node"><title>Node47</title>
<polygon fill="white" stroke="#bfbfbf" points="1567.5,-0.5 1567.5,-21.5 1674.5,-21.5 1674.5,-0.5 1567.5,-0.5"/>
<text text-anchor="middle" x="1621" y="-8.5" font-family="Helvetica,sans-Serif" font-size="10.00">yarp/os/LogStream.h</text>
</g>
<!-- Node34&#45;&gt;Node47 -->
<g id="edge128" class="edge"><title>Node34&#45;&gt;Node47</title>
<path fill="none" stroke="midnightblue" d="M1227.79,-63.6209C1299.15,-55.8701 1433.4,-40.5895 1557.22,-22.2143"/>
<polygon fill="midnightblue" stroke="midnightblue" points="1557.89,-25.6542 1567.26,-20.7147 1556.85,-18.7311 1557.89,-25.6542"/>
</g>
<!-- Node48 -->
<g id="node113" class="node"><title>Node48</title>
<polygon fill="white" stroke="#bfbfbf" points="1691.5,-0.5 1691.5,-21.5 1788.5,-21.5 1788.5,-0.5 1691.5,-0.5"/>
<text text-anchor="middle" x="1740" y="-8.5" font-family="Helvetica,sans-Serif" font-size="10.00">yarp/os/Property.h</text>
</g>
<!-- Node34&#45;&gt;Node48 -->
<g id="edge130" class="edge"><title>Node34&#45;&gt;Node48</title>
<path fill="none" stroke="midnightblue" d="M1227.83,-65.9339C1317.49,-60.1642 1509.76,-46.1768 1681.27,-22.1474"/>
<polygon fill="midnightblue" stroke="midnightblue" points="1681.82,-25.6041 1691.24,-20.7366 1680.84,-18.6732 1681.82,-25.6041"/>
</g>
<!-- Node49 -->
<g id="node116" class="node"><title>Node49</title>
<polygon fill="white" stroke="#bfbfbf" points="1805.5,-0.5 1805.5,-21.5 1894.5,-21.5 1894.5,-0.5 1805.5,-0.5"/>
<text text-anchor="middle" x="1850" y="-8.5" font-family="Helvetica,sans-Serif" font-size="10.00">yarp/sig/Matrix.h</text>
</g>
<!-- Node34&#45;&gt;Node49 -->
<g id="edge134" class="edge"><title>Node34&#45;&gt;Node49</title>
<path fill="none" stroke="midnightblue" d="M1227.87,-67.3655C1332.47,-63.5243 1579.34,-51.9878 1795.32,-22.1015"/>
<polygon fill="midnightblue" stroke="midnightblue" points="1795.83,-25.5633 1805.25,-20.7105 1794.86,-18.6309 1795.83,-25.5633"/>
</g>
</g>
</svg>
