<?xml version="1.0" encoding="UTF-8" standalone="no"?>
<!DOCTYPE svg PUBLIC "-//W3C//DTD SVG 1.1//EN"
 "http://www.w3.org/Graphics/SVG/1.1/DTD/svg11.dtd">
<!-- Generated by graphviz version 2.26.3 (20100126.1600)
 -->
<!-- Title: G Pages: 1 -->
<svg width="3251pt" height="494pt"
 viewBox="0.00 0.00 3251.00 494.00" xmlns="http://www.w3.org/2000/svg" xmlns:xlink="http://www.w3.org/1999/xlink">
<g id="graph1" class="graph" transform="scale(1 1) rotate(0) translate(4 490)">
<title>G</title>
<polygon fill="white" stroke="white" points="-4,5 -4,-490 3248,-490 3248,5 -4,5"/>
<!-- Node1 -->
<g id="node1" class="node"><title>Node1</title>
<polygon fill="#bfbfbf" stroke="black" points="1253.5,-464.5 1253.5,-485.5 1582.5,-485.5 1582.5,-464.5 1253.5,-464.5"/>
<text text-anchor="middle" x="1418" y="-472.5" font-family="Helvetica,sans-Serif" font-size="10.00">ocra&#45;wbi&#45;plugins/ocra&#45;icub&#45;clients/walking&#45;client/src/MIQPController.cpp</text>
</g>
<!-- Node2 -->
<g id="node3" class="node"><title>Node2</title>
<a xlink:href="MIQPController_8h.html" target="_top" xlink:title="A thread for launching trajectory generators.">
<polygon fill="white" stroke="black" points="1340.5,-406.5 1340.5,-427.5 1495.5,-427.5 1495.5,-406.5 1340.5,-406.5"/>
<text text-anchor="middle" x="1418" y="-414.5" font-family="Helvetica,sans-Serif" font-size="10.00">walking&#45;client/MIQPController.h</text>
</a>
</g>
<!-- Node1&#45;&gt;Node2 -->
<g id="edge2" class="edge"><title>Node1&#45;&gt;Node2</title>
<path fill="none" stroke="midnightblue" d="M1418,-464.362C1418,-456.922 1418,-446.743 1418,-437.728"/>
<polygon fill="midnightblue" stroke="midnightblue" points="1421.5,-437.571 1418,-427.571 1414.5,-437.571 1421.5,-437.571"/>
</g>
<!-- Node3 -->
<g id="node5" class="node"><title>Node3</title>
<polygon fill="white" stroke="#bfbfbf" points="683,-348.5 683,-369.5 757,-369.5 757,-348.5 683,-348.5"/>
<text text-anchor="middle" x="720" y="-356.5" font-family="Helvetica,sans-Serif" font-size="10.00">gurobi_c++.h</text>
</g>
<!-- Node2&#45;&gt;Node3 -->
<g id="edge4" class="edge"><title>Node2&#45;&gt;Node3</title>
<path fill="none" stroke="midnightblue" d="M1340.44,-414.87C1218.63,-410.738 975.289,-399.304 771,-370 769.739,-369.819 768.463,-369.625 767.177,-369.419"/>
<polygon fill="midnightblue" stroke="midnightblue" points="767.672,-365.953 757.215,-367.656 766.452,-372.846 767.672,-365.953"/>
</g>
<!-- Node4 -->
<g id="node7" class="node"><title>Node4</title>
<a xlink:href="utils_8h.html" target="_top" xlink:title="walking&#45;client/utils.h">
<polygon fill="white" stroke="black" points="2513.5,-116.5 2513.5,-137.5 2618.5,-137.5 2618.5,-116.5 2513.5,-116.5"/>
<text text-anchor="middle" x="2566" y="-124.5" font-family="Helvetica,sans-Serif" font-size="10.00">walking&#45;client/utils.h</text>
</a>
</g>
<!-- Node2&#45;&gt;Node4 -->
<g id="edge6" class="edge"><title>Node2&#45;&gt;Node4</title>
<path fill="none" stroke="midnightblue" d="M1495.5,-415.846C1828.99,-410.383 3125,-383.822 3125,-301 3125,-301 3125,-301 3125,-243 3125,-192.789 2774.76,-149.387 2628.74,-133.475"/>
<polygon fill="midnightblue" stroke="midnightblue" points="2628.91,-129.972 2618.59,-132.377 2628.16,-136.932 2628.91,-129.972"/>
</g>
<!-- Node5 -->
<g id="node9" class="node"><title>Node5</title>
<a xlink:href="OcraWbiModel_8h.html" target="_top" xlink:title="Implementation of ocra::Model using wholeBodyInterface.">
<polygon fill="white" stroke="black" points="1281,-174.5 1281,-195.5 1413,-195.5 1413,-174.5 1281,-174.5"/>
<text text-anchor="middle" x="1347" y="-182.5" font-family="Helvetica,sans-Serif" font-size="10.00">ocra&#45;icub/OcraWbiModel.h</text>
</a>
</g>
<!-- Node2&#45;&gt;Node5 -->
<g id="edge8" class="edge"><title>Node2&#45;&gt;Node5</title>
<path fill="none" stroke="midnightblue" d="M1403.1,-406.445C1392.29,-397.918 1378.34,-384.91 1371,-370 1344.17,-315.457 1343.78,-241.45 1345.48,-205.838"/>
<polygon fill="midnightblue" stroke="midnightblue" points="1348.99,-205.886 1346.08,-195.698 1342,-205.475 1348.99,-205.886"/>
</g>
<!-- Node22 -->
<g id="node48" class="node"><title>Node22</title>
<polygon fill="white" stroke="#bfbfbf" points="-0.5,-0.5 -0.5,-21.5 110.5,-21.5 110.5,-0.5 -0.5,-0.5"/>
<text text-anchor="middle" x="55" y="-8.5" font-family="Helvetica,sans-Serif" font-size="10.00">yarp/os/RateThread.h</text>
</g>
<!-- Node2&#45;&gt;Node22 -->
<g id="edge88" class="edge"><title>Node2&#45;&gt;Node22</title>
<path fill="none" stroke="midnightblue" d="M1340.02,-413.274C1220,-406.929 995.831,-392.486 919,-370 854.709,-351.184 785,-367.987 785,-301 785,-301 785,-301 785,-127 785,19.7554 287.87,-43.6115 120.887,-22.1092"/>
<polygon fill="midnightblue" stroke="midnightblue" points="121.24,-18.6239 110.84,-20.6443 120.23,-25.5506 121.24,-18.6239"/>
</g>
<!-- Node33 -->
<g id="node74" class="node"><title>Node33</title>
<polygon fill="white" stroke="#bfbfbf" points="2503.5,-0.5 2503.5,-21.5 2576.5,-21.5 2576.5,-0.5 2503.5,-0.5"/>
<text text-anchor="middle" x="2540" y="-8.5" font-family="Helvetica,sans-Serif" font-size="10.00">Eigen/Dense</text>
</g>
<!-- Node2&#45;&gt;Node33 -->
<g id="edge90" class="edge"><title>Node2&#45;&gt;Node33</title>
<path fill="none" stroke="midnightblue" d="M1495.91,-416.294C1756.51,-413.647 2596.47,-402.727 2865,-370 2999.95,-353.553 3163,-436.948 3163,-301 3163,-301 3163,-301 3163,-127 3163,-68.4366 2732.03,-27.0456 2586.99,-14.7737"/>
<polygon fill="midnightblue" stroke="midnightblue" points="2586.9,-11.2546 2576.65,-13.9073 2586.32,-18.2301 2586.9,-11.2546"/>
</g>
<!-- Node34 -->
<g id="node76" class="node"><title>Node34</title>
<polygon fill="white" stroke="#bfbfbf" points="128,-0.5 128,-21.5 196,-21.5 196,-0.5 128,-0.5"/>
<text text-anchor="middle" x="162" y="-8.5" font-family="Helvetica,sans-Serif" font-size="10.00">Eigen/Lgsm</text>
</g>
<!-- Node2&#45;&gt;Node34 -->
<g id="edge92" class="edge"><title>Node2&#45;&gt;Node34</title>
<path fill="none" stroke="midnightblue" d="M1340.21,-409.857C1178.93,-393.998 823,-353.095 823,-301 823,-301 823,-301 823,-127 823,-94.5312 824.881,-77.6056 799,-58 748.301,-19.5948 305.965,-31.2391 206.324,-21.607"/>
<polygon fill="midnightblue" stroke="midnightblue" points="206.497,-18.1021 196.146,-20.3584 205.645,-25.05 206.497,-18.1021"/>
</g>
<!-- Node35 -->
<g id="node82" class="node"><title>Node35</title>
<polygon fill="white" stroke="#bfbfbf" points="1965,-116.5 1965,-137.5 2135,-137.5 2135,-116.5 1965,-116.5"/>
<text text-anchor="middle" x="2050" y="-124.5" font-family="Helvetica,sans-Serif" font-size="10.00">unsupported/Eigen/MatrixFunctions</text>
</g>
<!-- Node2&#45;&gt;Node35 -->
<g id="edge94" class="edge"><title>Node2&#45;&gt;Node35</title>
<path fill="none" stroke="midnightblue" d="M1412.56,-406.218C1397.67,-375.005 1360.18,-283.523 1404,-232 1439.28,-190.525 1783.9,-152.292 1954.84,-135.699"/>
<polygon fill="midnightblue" stroke="midnightblue" points="1955.23,-139.178 1964.84,-134.734 1954.55,-132.211 1955.23,-139.178"/>
</g>
<!-- Node36 -->
<g id="node84" class="node"><title>Node36</title>
<a xlink:href="MIQPLinearConstraints_8h.html" target="_top" xlink:title="walking&#45;client/constraints/MIQPLinearConstraints.h">
<polygon fill="white" stroke="black" points="2176,-348.5 2176,-369.5 2416,-369.5 2416,-348.5 2176,-348.5"/>
<text text-anchor="middle" x="2296" y="-356.5" font-family="Helvetica,sans-Serif" font-size="10.00">walking&#45;client/constraints/MIQPLinearConstraints.h</text>
</a>
</g>
<!-- Node2&#45;&gt;Node36 -->
<g id="edge96" class="edge"><title>Node2&#45;&gt;Node36</title>
<path fill="none" stroke="midnightblue" d="M1495.53,-411.878C1646.24,-401.922 1980.17,-379.864 2165.56,-367.617"/>
<polygon fill="midnightblue" stroke="midnightblue" points="2165.9,-371.102 2175.64,-366.951 2165.44,-364.117 2165.9,-371.102"/>
</g>
<!-- Node49 -->
<g id="node121" class="node"><title>Node49</title>
<a xlink:href="MIQPState_8h.html" target="_top" xlink:title="walking&#45;client/MIQPState.h">
<polygon fill="white" stroke="black" points="1413,-232.5 1413,-253.5 1549,-253.5 1549,-232.5 1413,-232.5"/>
<text text-anchor="middle" x="1481" y="-240.5" font-family="Helvetica,sans-Serif" font-size="10.00">walking&#45;client/MIQPState.h</text>
</a>
</g>
<!-- Node2&#45;&gt;Node49 -->
<g id="edge158" class="edge"><title>Node2&#45;&gt;Node49</title>
<path fill="none" stroke="midnightblue" d="M1421.85,-406.377C1432.06,-378.172 1460,-301.012 1473.5,-263.72"/>
<polygon fill="midnightblue" stroke="midnightblue" points="1476.93,-264.522 1477.04,-253.928 1470.35,-262.139 1476.93,-264.522"/>
</g>
<!-- Node50 -->
<g id="node130" class="node"><title>Node50</title>
<polygon fill="white" stroke="#bfbfbf" points="3190.5,-348.5 3190.5,-369.5 3243.5,-369.5 3243.5,-348.5 3190.5,-348.5"/>
<text text-anchor="middle" x="3217" y="-356.5" font-family="Helvetica,sans-Serif" font-size="10.00">Gurobi.h</text>
</g>
<!-- Node2&#45;&gt;Node50 -->
<g id="edge160" class="edge"><title>Node2&#45;&gt;Node50</title>
<path fill="none" stroke="midnightblue" d="M1495.57,-416.031C1813.71,-411.908 3009.58,-394.882 3177,-370 3178.07,-369.841 3179.15,-369.663 3180.24,-369.469"/>
<polygon fill="midnightblue" stroke="midnightblue" points="3181.04,-372.877 3190.08,-367.353 3179.57,-366.033 3181.04,-372.877"/>
</g>
<!-- Node6 -->
<g id="node11" class="node"><title>Node6</title>
<polygon fill="white" stroke="#bfbfbf" points="2434,-0.5 2434,-21.5 2486,-21.5 2486,-0.5 2434,-0.5"/>
<text text-anchor="middle" x="2460" y="-8.5" font-family="Helvetica,sans-Serif" font-size="10.00">memory</text>
</g>
<!-- Node5&#45;&gt;Node6 -->
<g id="edge10" class="edge"><title>Node5&#45;&gt;Node6</title>
<path fill="none" stroke="midnightblue" d="M1413.09,-175.615C1626.1,-145.282 2288.24,-50.3286 2423.6,-21.961"/>
<polygon fill="midnightblue" stroke="midnightblue" points="2424.73,-25.296 2433.75,-19.7293 2423.23,-18.4594 2424.73,-25.296"/>
</g>
<!-- Node7 -->
<g id="node13" class="node"><title>Node7</title>
<polygon fill="white" stroke="#bfbfbf" points="2311.5,-0.5 2311.5,-21.5 2416.5,-21.5 2416.5,-0.5 2311.5,-0.5"/>
<text text-anchor="middle" x="2364" y="-8.5" font-family="Helvetica,sans-Serif" font-size="10.00">ocra/control/Model.h</text>
</g>
<!-- Node5&#45;&gt;Node7 -->
<g id="edge12" class="edge"><title>Node5&#45;&gt;Node7</title>
<path fill="none" stroke="midnightblue" d="M1377.35,-174.423C1450.54,-149.411 1643,-86.5822 1809,-58 2022.66,-21.2123 2082.78,-48.7114 2301.29,-22.0998"/>
<polygon fill="midnightblue" stroke="midnightblue" points="2301.99,-25.5403 2311.48,-20.8341 2301.13,-18.5937 2301.99,-25.5403"/>
</g>
<!-- Node8 -->
<g id="node15" class="node"><title>Node8</title>
<polygon fill="white" stroke="#bfbfbf" points="2236,-0.5 2236,-21.5 2294,-21.5 2294,-0.5 2236,-0.5"/>
<text text-anchor="middle" x="2265" y="-8.5" font-family="Helvetica,sans-Serif" font-size="10.00">wbi/wbi.h</text>
</g>
<!-- Node5&#45;&gt;Node8 -->
<g id="edge14" class="edge"><title>Node5&#45;&gt;Node8</title>
<path fill="none" stroke="midnightblue" d="M1368.47,-174.405C1428.01,-145.102 1592.6,-64.6838 1619,-58 1878.21,7.63143 1958.28,-66.0757 2225.69,-21.8763"/>
<polygon fill="midnightblue" stroke="midnightblue" points="2226.42,-25.3034 2235.69,-20.1831 2225.25,-18.4016 2226.42,-25.3034"/>
</g>
<!-- Node9 -->
<g id="node17" class="node"><title>Node9</title>
<polygon fill="white" stroke="#bfbfbf" points="2142,-0.5 2142,-21.5 2218,-21.5 2218,-0.5 2142,-0.5"/>
<text text-anchor="middle" x="2180" y="-8.5" font-family="Helvetica,sans-Serif" font-size="10.00">yarp/os/Log.h</text>
</g>
<!-- Node5&#45;&gt;Node9 -->
<g id="edge16" class="edge"><title>Node5&#45;&gt;Node9</title>
<path fill="none" stroke="midnightblue" d="M1360.01,-174.249C1391.98,-148.565 1477.88,-83.8606 1562,-58 1801.85,15.7369 1879.4,-57.1295 2131.68,-21.9509"/>
<polygon fill="midnightblue" stroke="midnightblue" points="2132.48,-25.3711 2141.88,-20.4825 2131.49,-18.4424 2132.48,-25.3711"/>
</g>
<!-- Node10 -->
<g id="node19" class="node"><title>Node10</title>
<a xlink:href="OcraWbiConversions_8h.html" target="_top" xlink:title="A utility class full of static conversion functions.">
<polygon fill="white" stroke="black" points="1057.5,-116.5 1057.5,-137.5 1218.5,-137.5 1218.5,-116.5 1057.5,-116.5"/>
<text text-anchor="middle" x="1138" y="-124.5" font-family="Helvetica,sans-Serif" font-size="10.00">ocra&#45;icub/OcraWbiConversions.h</text>
</a>
</g>
<!-- Node5&#45;&gt;Node10 -->
<g id="edge18" class="edge"><title>Node5&#45;&gt;Node10</title>
<path fill="none" stroke="midnightblue" d="M1309.15,-174.497C1274.49,-164.877 1223.03,-150.598 1185.6,-140.209"/>
<polygon fill="midnightblue" stroke="midnightblue" points="1186.49,-136.825 1175.92,-137.523 1184.62,-143.57 1186.49,-136.825"/>
</g>
<!-- Node16 -->
<g id="node33" class="node"><title>Node16</title>
<a xlink:href="Utilities_8h.html" target="_top" xlink:title="Some useful tools for the ocra&#45;icub lib.">
<polygon fill="white" stroke="black" points="1276.5,-58.5 1276.5,-79.5 1377.5,-79.5 1377.5,-58.5 1276.5,-58.5"/>
<text text-anchor="middle" x="1327" y="-66.5" font-family="Helvetica,sans-Serif" font-size="10.00">ocra&#45;icub/Utilities.h</text>
</a>
</g>
<!-- Node5&#45;&gt;Node16 -->
<g id="edge86" class="edge"><title>Node5&#45;&gt;Node16</title>
<path fill="none" stroke="midnightblue" d="M1345.15,-174.295C1341.85,-155.131 1334.87,-114.654 1330.59,-89.8434"/>
<polygon fill="midnightblue" stroke="midnightblue" points="1333.99,-88.9391 1328.84,-79.6792 1327.09,-90.1285 1333.99,-88.9391"/>
</g>
<!-- Node10&#45;&gt;Node8 -->
<g id="edge30" class="edge"><title>Node10&#45;&gt;Node8</title>
<path fill="none" stroke="midnightblue" d="M1201.8,-116.432C1315.8,-97.5776 1544.25,-59.919 1562,-58 1852.97,-26.5403 1933.38,-70.4637 2225.65,-21.8894"/>
<polygon fill="midnightblue" stroke="midnightblue" points="2226.42,-25.3104 2235.69,-20.1982 2225.25,-18.4076 2226.42,-25.3104"/>
</g>
<!-- Node10&#45;&gt;Node9 -->
<g id="edge28" class="edge"><title>Node10&#45;&gt;Node9</title>
<path fill="none" stroke="midnightblue" d="M1218.52,-117.676C1267.78,-110.524 1331.59,-98.6432 1386,-80 1406.31,-73.0417 1408.27,-63.5603 1429,-58 1728.36,22.2762 1820.81,-63.9802 2131.68,-21.9365"/>
<polygon fill="midnightblue" stroke="midnightblue" points="2132.46,-25.3618 2141.89,-20.5211 2131.5,-18.4281 2132.46,-25.3618"/>
</g>
<!-- Node11 -->
<g id="node21" class="node"><title>Node11</title>
<polygon fill="white" stroke="#bfbfbf" points="214,-0.5 214,-21.5 268,-21.5 268,-0.5 214,-0.5"/>
<text text-anchor="middle" x="241" y="-8.5" font-family="Helvetica,sans-Serif" font-size="10.00">iostream</text>
</g>
<!-- Node10&#45;&gt;Node11 -->
<g id="edge20" class="edge"><title>Node10&#45;&gt;Node11</title>
<path fill="none" stroke="midnightblue" d="M1057.27,-119.92C1004.24,-113.501 934.021,-101.599 875,-80 856.674,-73.2933 855.675,-63.6644 837,-58 601.481,13.4368 524.388,-64.6291 278.309,-21.8552"/>
<polygon fill="midnightblue" stroke="midnightblue" points="278.815,-18.3903 268.355,-20.0755 277.583,-25.281 278.815,-18.3903"/>
</g>
<!-- Node12 -->
<g id="node23" class="node"><title>Node12</title>
<polygon fill="white" stroke="#bfbfbf" points="926.5,-58.5 926.5,-79.5 961.5,-79.5 961.5,-58.5 926.5,-58.5"/>
<text text-anchor="middle" x="944" y="-66.5" font-family="Helvetica,sans-Serif" font-size="10.00">map</text>
</g>
<!-- Node10&#45;&gt;Node12 -->
<g id="edge22" class="edge"><title>Node10&#45;&gt;Node12</title>
<path fill="none" stroke="midnightblue" d="M1098.94,-116.449C1065.79,-107.326 1017.06,-93.5126 975,-80 973.777,-79.607 972.529,-79.1981 971.27,-78.7791"/>
<polygon fill="midnightblue" stroke="midnightblue" points="972.237,-75.4104 961.642,-75.4673 969.96,-82.0297 972.237,-75.4104"/>
</g>
<!-- Node13 -->
<g id="node25" class="node"><title>Node13</title>
<polygon fill="white" stroke="#bfbfbf" points="286,-0.5 286,-21.5 330,-21.5 330,-0.5 286,-0.5"/>
<text text-anchor="middle" x="308" y="-8.5" font-family="Helvetica,sans-Serif" font-size="10.00">vector</text>
</g>
<!-- Node10&#45;&gt;Node13 -->
<g id="edge24" class="edge"><title>Node10&#45;&gt;Node13</title>
<path fill="none" stroke="midnightblue" d="M1065.59,-116.458C1022.04,-108.913 965.93,-97.0458 918,-80 897.774,-72.8068 895.69,-63.7257 875,-58 648.036,4.81043 574.808,-68.3211 340.001,-21.6856"/>
<polygon fill="midnightblue" stroke="midnightblue" points="340.64,-18.2441 330.143,-19.6766 339.242,-25.1031 340.64,-18.2441"/>
</g>
<!-- Node14 -->
<g id="node27" class="node"><title>Node14</title>
<polygon fill="white" stroke="#bfbfbf" points="347.5,-0.5 347.5,-21.5 438.5,-21.5 438.5,-0.5 347.5,-0.5"/>
<text text-anchor="middle" x="393" y="-8.5" font-family="Helvetica,sans-Serif" font-size="10.00">yarp/sig/Vector.h</text>
</g>
<!-- Node10&#45;&gt;Node14 -->
<g id="edge26" class="edge"><title>Node10&#45;&gt;Node14</title>
<path fill="none" stroke="midnightblue" d="M1103.67,-116.44C1077.06,-107.819 1039.55,-94.6916 1008,-80 990.309,-71.761 988.662,-63.7067 970,-58 750.345,9.16836 679.873,-51.5511 448.656,-22.0561"/>
<polygon fill="midnightblue" stroke="midnightblue" points="448.965,-18.5665 438.593,-20.7287 448.049,-25.5064 448.965,-18.5665"/>
</g>
<!-- Node15 -->
<g id="node31" class="node"><title>Node15</title>
<polygon fill="white" stroke="#bfbfbf" points="1017,-58.5 1017,-79.5 1259,-79.5 1259,-58.5 1017,-58.5"/>
<text text-anchor="middle" x="1138" y="-66.5" font-family="Helvetica,sans-Serif" font-size="10.00">yarpWholeBodyInterface/yarpWholeBodyInterface.h</text>
</g>
<!-- Node10&#45;&gt;Node15 -->
<g id="edge32" class="edge"><title>Node10&#45;&gt;Node15</title>
<path fill="none" stroke="midnightblue" d="M1138,-116.362C1138,-108.922 1138,-98.7427 1138,-89.7276"/>
<polygon fill="midnightblue" stroke="midnightblue" points="1141.5,-89.5706 1138,-79.5707 1134.5,-89.5707 1141.5,-89.5706"/>
</g>
<!-- Node10&#45;&gt;Node16 -->
<g id="edge34" class="edge"><title>Node10&#45;&gt;Node16</title>
<path fill="none" stroke="midnightblue" d="M1172.23,-116.497C1203.31,-106.959 1249.31,-92.8408 1283.09,-82.475"/>
<polygon fill="midnightblue" stroke="midnightblue" points="1284.18,-85.8029 1292.71,-79.5231 1282.12,-79.1109 1284.18,-85.8029"/>
</g>
<!-- Node16&#45;&gt;Node6 -->
<g id="edge36" class="edge"><title>Node16&#45;&gt;Node6</title>
<path fill="none" stroke="midnightblue" d="M1377.82,-67.6068C1574.67,-62.1068 2282.57,-41.3292 2423.62,-21.6374"/>
<polygon fill="midnightblue" stroke="midnightblue" points="2424.47,-25.0464 2433.81,-20.0402 2423.39,-18.1308 2424.47,-25.0464"/>
</g>
<!-- Node16&#45;&gt;Node7 -->
<g id="edge78" class="edge"><title>Node16&#45;&gt;Node7</title>
<path fill="none" stroke="midnightblue" d="M1377.77,-66.9441C1559.53,-59.5311 2173.48,-34.0292 2301.27,-21.9711"/>
<polygon fill="midnightblue" stroke="midnightblue" points="2301.9,-25.4248 2311.49,-20.9169 2301.19,-18.4617 2301.9,-25.4248"/>
</g>
<!-- Node16&#45;&gt;Node8 -->
<g id="edge76" class="edge"><title>Node16&#45;&gt;Node8</title>
<path fill="none" stroke="midnightblue" d="M1377.82,-65.2171C1409.03,-62.9609 1449.81,-60.1305 1486,-58 1811.78,-38.8194 1899.96,-75.4442 2225.5,-21.9078"/>
<polygon fill="midnightblue" stroke="midnightblue" points="2226.41,-25.3058 2235.7,-20.2147 2225.26,-18.4004 2226.41,-25.3058"/>
</g>
<!-- Node16&#45;&gt;Node9 -->
<g id="edge66" class="edge"><title>Node16&#45;&gt;Node9</title>
<path fill="none" stroke="midnightblue" d="M1377.58,-59.7224C1382.11,-59.0687 1386.63,-58.4798 1391,-58 1715.83,-22.3391 1804.22,-66.8767 2131.64,-21.9547"/>
<polygon fill="midnightblue" stroke="midnightblue" points="2132.47,-25.373 2141.89,-20.5296 2131.5,-18.4397 2132.47,-25.373"/>
</g>
<!-- Node16&#45;&gt;Node11 -->
<g id="edge40" class="edge"><title>Node16&#45;&gt;Node11</title>
<path fill="none" stroke="midnightblue" d="M1276.22,-59.0396C1273.45,-58.6494 1270.69,-58.2983 1268,-58 833.26,-9.84493 713.454,-93.7256 278.351,-21.829"/>
<polygon fill="midnightblue" stroke="midnightblue" points="278.781,-18.3524 268.341,-20.1568 277.627,-25.2568 278.781,-18.3524"/>
</g>
<!-- Node16&#45;&gt;Node13 -->
<g id="edge44" class="edge"><title>Node16&#45;&gt;Node13</title>
<path fill="none" stroke="midnightblue" d="M1276.22,-59.0475C1273.45,-58.6552 1270.69,-58.3015 1268,-58 860.677,-12.3827 746.608,-98.5689 340.09,-21.6616"/>
<polygon fill="midnightblue" stroke="midnightblue" points="340.607,-18.1969 330.127,-19.7552 339.291,-25.0722 340.607,-18.1969"/>
</g>
<!-- Node16&#45;&gt;Node14 -->
<g id="edge72" class="edge"><title>Node16&#45;&gt;Node14</title>
<path fill="none" stroke="midnightblue" d="M1276.22,-59.0641C1273.44,-58.6676 1270.69,-58.3084 1268,-58 908.412,-16.802 811.257,-65.6905 448.567,-22.0268"/>
<polygon fill="midnightblue" stroke="midnightblue" points="448.932,-18.5455 438.582,-20.8095 448.085,-25.494 448.932,-18.5455"/>
</g>
<!-- Node17 -->
<g id="node36" class="node"><title>Node17</title>
<polygon fill="white" stroke="#bfbfbf" points="700,-0.5 700,-21.5 744,-21.5 744,-0.5 700,-0.5"/>
<text text-anchor="middle" x="722" y="-8.5" font-family="Helvetica,sans-Serif" font-size="10.00">cmath</text>
</g>
<!-- Node16&#45;&gt;Node17 -->
<g id="edge38" class="edge"><title>Node16&#45;&gt;Node17</title>
<path fill="none" stroke="midnightblue" d="M1276.21,-59.1486C1273.44,-58.7303 1270.69,-58.3433 1268,-58 1043.62,-29.3372 979.436,-67.679 753.961,-21.7029"/>
<polygon fill="midnightblue" stroke="midnightblue" points="754.646,-18.2706 744.144,-19.6691 753.226,-25.1251 754.646,-18.2706"/>
</g>
<!-- Node18 -->
<g id="node39" class="node"><title>Node18</title>
<polygon fill="white" stroke="#bfbfbf" points="761.5,-0.5 761.5,-21.5 802.5,-21.5 802.5,-0.5 761.5,-0.5"/>
<text text-anchor="middle" x="782" y="-8.5" font-family="Helvetica,sans-Serif" font-size="10.00">string</text>
</g>
<!-- Node16&#45;&gt;Node18 -->
<g id="edge42" class="edge"><title>Node16&#45;&gt;Node18</title>
<path fill="none" stroke="midnightblue" d="M1276.21,-59.1773C1273.43,-58.7516 1270.69,-58.3551 1268,-58 1069.27,-31.722 1011.65,-65.4561 812.587,-21.8605"/>
<polygon fill="midnightblue" stroke="midnightblue" points="813.213,-18.4143 802.692,-19.6557 811.691,-25.2467 813.213,-18.4143"/>
</g>
<!-- Node19 -->
<g id="node42" class="node"><title>Node19</title>
<polygon fill="white" stroke="#bfbfbf" points="820,-0.5 820,-21.5 872,-21.5 872,-0.5 820,-0.5"/>
<text text-anchor="middle" x="846" y="-8.5" font-family="Helvetica,sans-Serif" font-size="10.00">sstream</text>
</g>
<!-- Node16&#45;&gt;Node19 -->
<g id="edge46" class="edge"><title>Node16&#45;&gt;Node19</title>
<path fill="none" stroke="midnightblue" d="M1276.2,-59.2233C1273.43,-58.7857 1270.68,-58.3741 1268,-58 1100.17,-34.5989 1052.16,-55.2682 882.252,-21.9001"/>
<polygon fill="midnightblue" stroke="midnightblue" points="882.709,-18.4223 872.217,-19.895 881.338,-25.2866 882.709,-18.4223"/>
</g>
<!-- Node20 -->
<g id="node44" class="node"><title>Node20</title>
<polygon fill="white" stroke="#bfbfbf" points="889.5,-0.5 889.5,-21.5 1004.5,-21.5 1004.5,-0.5 889.5,-0.5"/>
<text text-anchor="middle" x="947" y="-8.5" font-family="Helvetica,sans-Serif" font-size="10.00">yarp/os/BufferedPort.h</text>
</g>
<!-- Node16&#45;&gt;Node20 -->
<g id="edge48" class="edge"><title>Node16&#45;&gt;Node20</title>
<path fill="none" stroke="midnightblue" d="M1276.5,-59.4325C1273.62,-58.9356 1270.78,-58.4546 1268,-58 1158.25,-40.0303 1127.83,-39.4299 1014.69,-22.2303"/>
<polygon fill="midnightblue" stroke="midnightblue" points="1014.99,-18.7365 1004.58,-20.6833 1013.93,-25.656 1014.99,-18.7365"/>
</g>
<!-- Node21 -->
<g id="node46" class="node"><title>Node21</title>
<polygon fill="white" stroke="#bfbfbf" points="1022,-0.5 1022,-21.5 1108,-21.5 1108,-0.5 1022,-0.5"/>
<text text-anchor="middle" x="1065" y="-8.5" font-family="Helvetica,sans-Serif" font-size="10.00">yarp/os/Bottle.h</text>
</g>
<!-- Node16&#45;&gt;Node21 -->
<g id="edge50" class="edge"><title>Node16&#45;&gt;Node21</title>
<path fill="none" stroke="midnightblue" d="M1279.55,-58.4966C1234.08,-48.4299 1165.55,-33.2598 1118.24,-22.7854"/>
<polygon fill="midnightblue" stroke="midnightblue" points="1118.7,-19.3037 1108.18,-20.5595 1117.19,-26.1382 1118.7,-19.3037"/>
</g>
<!-- Node16&#45;&gt;Node22 -->
<g id="edge52" class="edge"><title>Node16&#45;&gt;Node22</title>
<path fill="none" stroke="midnightblue" d="M1276.22,-59.0233C1273.45,-58.6373 1270.69,-58.2915 1268,-58 763.398,-3.38054 629.092,-72.4739 120.95,-22.0765"/>
<polygon fill="midnightblue" stroke="midnightblue" points="121.084,-18.5726 110.785,-21.0574 120.386,-25.5376 121.084,-18.5726"/>
</g>
<!-- Node23 -->
<g id="node50" class="node"><title>Node23</title>
<polygon fill="white" stroke="#bfbfbf" points="1125.5,-0.5 1125.5,-21.5 1254.5,-21.5 1254.5,-0.5 1125.5,-0.5"/>
<text text-anchor="middle" x="1190" y="-8.5" font-family="Helvetica,sans-Serif" font-size="10.00">yarp/os/ResourceFinder.h</text>
</g>
<!-- Node16&#45;&gt;Node23 -->
<g id="edge54" class="edge"><title>Node16&#45;&gt;Node23</title>
<path fill="none" stroke="midnightblue" d="M1302.19,-58.4966C1280.5,-49.3154 1248.79,-35.8889 1224.61,-25.6516"/>
<polygon fill="midnightblue" stroke="midnightblue" points="1225.66,-22.2968 1215.09,-21.6212 1222.93,-28.7429 1225.66,-22.2968"/>
</g>
<!-- Node24 -->
<g id="node52" class="node"><title>Node24</title>
<polygon fill="white" stroke="#bfbfbf" points="1272,-0.5 1272,-21.5 1382,-21.5 1382,-0.5 1272,-0.5"/>
<text text-anchor="middle" x="1327" y="-8.5" font-family="Helvetica,sans-Serif" font-size="10.00">yarp/os/PortReader.h</text>
</g>
<!-- Node16&#45;&gt;Node24 -->
<g id="edge56" class="edge"><title>Node16&#45;&gt;Node24</title>
<path fill="none" stroke="midnightblue" d="M1327,-58.3619C1327,-50.9219 1327,-40.7427 1327,-31.7276"/>
<polygon fill="midnightblue" stroke="midnightblue" points="1330.5,-31.5706 1327,-21.5707 1323.5,-31.5707 1330.5,-31.5706"/>
</g>
<!-- Node25 -->
<g id="node54" class="node"><title>Node25</title>
<polygon fill="white" stroke="#bfbfbf" points="1400,-0.5 1400,-21.5 1504,-21.5 1504,-0.5 1400,-0.5"/>
<text text-anchor="middle" x="1452" y="-8.5" font-family="Helvetica,sans-Serif" font-size="10.00">yarp/os/RpcClient.h</text>
</g>
<!-- Node16&#45;&gt;Node25 -->
<g id="edge58" class="edge"><title>Node16&#45;&gt;Node25</title>
<path fill="none" stroke="midnightblue" d="M1349.64,-58.4966C1369.25,-49.397 1397.85,-36.1273 1419.83,-25.9253"/>
<polygon fill="midnightblue" stroke="midnightblue" points="1421.51,-29.0051 1429.11,-21.6212 1418.57,-22.6554 1421.51,-29.0051"/>
</g>
<!-- Node26 -->
<g id="node56" class="node"><title>Node26</title>
<polygon fill="white" stroke="#bfbfbf" points="1521.5,-0.5 1521.5,-21.5 1628.5,-21.5 1628.5,-0.5 1521.5,-0.5"/>
<text text-anchor="middle" x="1575" y="-8.5" font-family="Helvetica,sans-Serif" font-size="10.00">yarp/os/RpcServer.h</text>
</g>
<!-- Node16&#45;&gt;Node26 -->
<g id="edge60" class="edge"><title>Node16&#45;&gt;Node26</title>
<path fill="none" stroke="midnightblue" d="M1371.91,-58.4966C1413.57,-48.7545 1475.66,-34.2328 1520.21,-23.813"/>
<polygon fill="midnightblue" stroke="midnightblue" points="1521.06,-27.2084 1530,-21.5231 1519.47,-20.3924 1521.06,-27.2084"/>
</g>
<!-- Node27 -->
<g id="node58" class="node"><title>Node27</title>
<polygon fill="white" stroke="#bfbfbf" points="1645.5,-0.5 1645.5,-21.5 1786.5,-21.5 1786.5,-0.5 1645.5,-0.5"/>
<text text-anchor="middle" x="1716" y="-8.5" font-family="Helvetica,sans-Serif" font-size="10.00">yarp/os/ConnectionReader.h</text>
</g>
<!-- Node16&#45;&gt;Node27 -->
<g id="edge62" class="edge"><title>Node16&#45;&gt;Node27</title>
<path fill="none" stroke="midnightblue" d="M1377.64,-60.1692C1382.15,-59.4202 1386.66,-58.6871 1391,-58 1436.63,-50.7805 1554.74,-33.8649 1635.27,-22.4235"/>
<polygon fill="midnightblue" stroke="midnightblue" points="1635.98,-25.858 1645.39,-20.9867 1635,-18.9275 1635.98,-25.858"/>
</g>
<!-- Node28 -->
<g id="node60" class="node"><title>Node28</title>
<polygon fill="white" stroke="#bfbfbf" points="1804,-0.5 1804,-21.5 1886,-21.5 1886,-0.5 1804,-0.5"/>
<text text-anchor="middle" x="1845" y="-8.5" font-family="Helvetica,sans-Serif" font-size="10.00">yarp/os/Time.h</text>
</g>
<!-- Node16&#45;&gt;Node28 -->
<g id="edge64" class="edge"><title>Node16&#45;&gt;Node28</title>
<path fill="none" stroke="midnightblue" d="M1377.6,-59.9124C1382.12,-59.2182 1386.64,-58.568 1391,-58 1566.53,-35.1336 1615.09,-48.903 1793.88,-22.0093"/>
<polygon fill="midnightblue" stroke="midnightblue" points="1794.52,-25.4515 1803.88,-20.4831 1793.46,-18.5316 1794.52,-25.4515"/>
</g>
<!-- Node29 -->
<g id="node63" class="node"><title>Node29</title>
<polygon fill="white" stroke="#bfbfbf" points="1903.5,-0.5 1903.5,-21.5 2010.5,-21.5 2010.5,-0.5 1903.5,-0.5"/>
<text text-anchor="middle" x="1957" y="-8.5" font-family="Helvetica,sans-Serif" font-size="10.00">yarp/os/LogStream.h</text>
</g>
<!-- Node16&#45;&gt;Node29 -->
<g id="edge68" class="edge"><title>Node16&#45;&gt;Node29</title>
<path fill="none" stroke="midnightblue" d="M1377.59,-59.8298C1382.11,-59.1533 1386.64,-58.5297 1391,-58 1610.67,-31.3431 1670.4,-49.1146 1893.24,-22.1177"/>
<polygon fill="midnightblue" stroke="midnightblue" points="1893.78,-25.5767 1903.28,-20.8837 1892.93,-18.6289 1893.78,-25.5767"/>
</g>
<!-- Node30 -->
<g id="node65" class="node"><title>Node30</title>
<polygon fill="white" stroke="#bfbfbf" points="2027.5,-0.5 2027.5,-21.5 2124.5,-21.5 2124.5,-0.5 2027.5,-0.5"/>
<text text-anchor="middle" x="2076" y="-8.5" font-family="Helvetica,sans-Serif" font-size="10.00">yarp/os/Property.h</text>
</g>
<!-- Node16&#45;&gt;Node30 -->
<g id="edge70" class="edge"><title>Node16&#45;&gt;Node30</title>
<path fill="none" stroke="midnightblue" d="M1377.58,-59.7637C1382.11,-59.1013 1386.63,-58.499 1391,-58 1665.51,-26.6429 1739.84,-55.8626 2017.29,-22.0797"/>
<polygon fill="midnightblue" stroke="midnightblue" points="2017.75,-25.5495 2027.25,-20.8511 2016.9,-18.6022 2017.75,-25.5495"/>
</g>
<!-- Node31 -->
<g id="node68" class="node"><title>Node31</title>
<polygon fill="white" stroke="#bfbfbf" points="455.5,-0.5 455.5,-21.5 544.5,-21.5 544.5,-0.5 455.5,-0.5"/>
<text text-anchor="middle" x="500" y="-8.5" font-family="Helvetica,sans-Serif" font-size="10.00">yarp/sig/Matrix.h</text>
</g>
<!-- Node16&#45;&gt;Node31 -->
<g id="edge74" class="edge"><title>Node16&#45;&gt;Node31</title>
<path fill="none" stroke="midnightblue" d="M1276.22,-59.0852C1273.44,-58.6832 1270.69,-58.3171 1268,-58 955.401,-21.158 870.417,-61.5635 555.092,-22.1051"/>
<polygon fill="midnightblue" stroke="midnightblue" points="555.099,-18.578 544.737,-20.7913 554.217,-25.5223 555.099,-18.578"/>
</g>
<!-- Node32 -->
<g id="node72" class="node"><title>Node32</title>
<polygon fill="white" stroke="#bfbfbf" points="561.5,-0.5 561.5,-21.5 682.5,-21.5 682.5,-0.5 561.5,-0.5"/>
<text text-anchor="middle" x="622" y="-8.5" font-family="Helvetica,sans-Serif" font-size="10.00">ocra/util/StringUtilities.h</text>
</g>
<!-- Node16&#45;&gt;Node32 -->
<g id="edge80" class="edge"><title>Node16&#45;&gt;Node32</title>
<path fill="none" stroke="midnightblue" d="M1276.21,-59.1243C1273.44,-58.7122 1270.69,-58.3332 1268,-58 1016.25,-26.7959 948.106,-49.661 692.492,-22.0764"/>
<polygon fill="midnightblue" stroke="midnightblue" points="692.859,-18.5958 682.538,-20.987 692.098,-25.5542 692.859,-18.5958"/>
</g>
<!-- Node16&#45;&gt;Node33 -->
<g id="edge82" class="edge"><title>Node16&#45;&gt;Node33</title>
<path fill="none" stroke="midnightblue" d="M1377.68,-68.3062C1569.87,-65.4694 2254.55,-53.4411 2493.27,-21.9766"/>
<polygon fill="midnightblue" stroke="midnightblue" points="2493.85,-25.4308 2503.28,-20.6087 2492.9,-18.4953 2493.85,-25.4308"/>
</g>
<!-- Node16&#45;&gt;Node34 -->
<g id="edge84" class="edge"><title>Node16&#45;&gt;Node34</title>
<path fill="none" stroke="midnightblue" d="M1276.22,-59.0316C1273.45,-58.6434 1270.69,-58.2949 1268,-58 801.422,-6.89859 674.737,-87.809 206.208,-21.8753"/>
<polygon fill="midnightblue" stroke="midnightblue" points="206.526,-18.3854 196.133,-20.4424 205.541,-25.3157 206.526,-18.3854"/>
</g>
<!-- Node37 -->
<g id="node86" class="node"><title>Node37</title>
<a xlink:href="ShapeConstraints_8h.html" target="_top" xlink:title="walking&#45;client/constraints/ShapeConstraints.h">
<polygon fill="white" stroke="black" points="1954,-290.5 1954,-311.5 2170,-311.5 2170,-290.5 1954,-290.5"/>
<text text-anchor="middle" x="2062" y="-298.5" font-family="Helvetica,sans-Serif" font-size="10.00">walking&#45;client/constraints/ShapeConstraints.h</text>
</a>
</g>
<!-- Node36&#45;&gt;Node37 -->
<g id="edge98" class="edge"><title>Node36&#45;&gt;Node37</title>
<path fill="none" stroke="midnightblue" d="M2253.62,-348.497C2214.49,-338.795 2156.22,-324.355 2114.22,-313.945"/>
<polygon fill="midnightblue" stroke="midnightblue" points="2115,-310.532 2104.46,-311.523 2113.32,-317.326 2115,-310.532"/>
</g>
<!-- Node43 -->
<g id="node104" class="node"><title>Node43</title>
<a xlink:href="AdmissibilityConstraints_8h.html" target="_top" xlink:title="walking&#45;client/constraints/AdmissibilityConstraints.h">
<polygon fill="white" stroke="red" points="2422,-290.5 2422,-311.5 2666,-311.5 2666,-290.5 2422,-290.5"/>
<text text-anchor="middle" x="2544" y="-298.5" font-family="Helvetica,sans-Serif" font-size="10.00">walking&#45;client/constraints/AdmissibilityConstraints.h</text>
</a>
</g>
<!-- Node36&#45;&gt;Node43 -->
<g id="edge122" class="edge"><title>Node36&#45;&gt;Node43</title>
<path fill="none" stroke="midnightblue" d="M2340.91,-348.497C2382.57,-338.755 2444.66,-324.233 2489.21,-313.813"/>
<polygon fill="midnightblue" stroke="midnightblue" points="2490.06,-317.208 2499,-311.523 2488.47,-310.392 2490.06,-317.208"/>
</g>
<!-- Node47 -->
<g id="node116" class="node"><title>Node47</title>
<a xlink:href="StepController_8h.html" target="_top" xlink:title="walking&#45;client/StepController.h">
<polygon fill="white" stroke="red" points="2948.5,-232.5 2948.5,-253.5 3097.5,-253.5 3097.5,-232.5 2948.5,-232.5"/>
<text text-anchor="middle" x="3023" y="-240.5" font-family="Helvetica,sans-Serif" font-size="10.00">walking&#45;client/StepController.h</text>
</a>
</g>
<!-- Node36&#45;&gt;Node47 -->
<g id="edge138" class="edge"><title>Node36&#45;&gt;Node47</title>
<path fill="none" stroke="midnightblue" d="M2397.23,-348.461C2473.73,-340.009 2581.23,-327.09 2675,-312 2778.02,-295.421 2897.1,-270.566 2965.86,-255.65"/>
<polygon fill="midnightblue" stroke="midnightblue" points="2966.6,-259.07 2975.63,-253.523 2965.12,-252.23 2966.6,-259.07"/>
</g>
<!-- Node48 -->
<g id="node119" class="node"><title>Node48</title>
<a xlink:href="BaseOfSupport_8h.html" target="_top" xlink:title="walking&#45;client/BaseOfSupport.h">
<polygon fill="white" stroke="red" points="2219,-290.5 2219,-311.5 2373,-311.5 2373,-290.5 2219,-290.5"/>
<text text-anchor="middle" x="2296" y="-298.5" font-family="Helvetica,sans-Serif" font-size="10.00">walking&#45;client/BaseOfSupport.h</text>
</a>
</g>
<!-- Node36&#45;&gt;Node48 -->
<g id="edge142" class="edge"><title>Node36&#45;&gt;Node48</title>
<path fill="none" stroke="midnightblue" d="M2296,-348.362C2296,-340.922 2296,-330.743 2296,-321.728"/>
<polygon fill="midnightblue" stroke="midnightblue" points="2299.5,-321.571 2296,-311.571 2292.5,-321.571 2299.5,-321.571"/>
</g>
<!-- Node38 -->
<g id="node88" class="node"><title>Node38</title>
<a xlink:href="Constraint_8h.html" target="_top" xlink:title="A constraint base class.">
<polygon fill="white" stroke="red" points="2162.5,-174.5 2162.5,-195.5 2345.5,-195.5 2345.5,-174.5 2162.5,-174.5"/>
<text text-anchor="middle" x="2254" y="-182.5" font-family="Helvetica,sans-Serif" font-size="10.00">walking&#45;client/constraints/Constraint.h</text>
</a>
</g>
<!-- Node37&#45;&gt;Node38 -->
<g id="edge100" class="edge"><title>Node37&#45;&gt;Node38</title>
<path fill="none" stroke="midnightblue" d="M2091.35,-290.36C2113.22,-281.878 2143.41,-268.967 2168,-254 2192.87,-238.862 2218.55,-217.353 2235.29,-202.388"/>
<polygon fill="midnightblue" stroke="midnightblue" points="2237.7,-204.935 2242.75,-195.625 2232.99,-199.749 2237.7,-204.935"/>
</g>
<!-- Node40 -->
<g id="node95" class="node"><title>Node40</title>
<a xlink:href="Bounding_8h.html" target="_top" xlink:title="walking&#45;client/constraints/Bounding.h">
<polygon fill="white" stroke="black" points="1566.5,-232.5 1566.5,-253.5 1745.5,-253.5 1745.5,-232.5 1566.5,-232.5"/>
<text text-anchor="middle" x="1656" y="-240.5" font-family="Helvetica,sans-Serif" font-size="10.00">walking&#45;client/constraints/Bounding.h</text>
</a>
</g>
<!-- Node37&#45;&gt;Node40 -->
<g id="edge110" class="edge"><title>Node37&#45;&gt;Node40</title>
<path fill="none" stroke="midnightblue" d="M1988.48,-290.497C1918.42,-280.488 1813.05,-265.436 1739.78,-254.969"/>
<polygon fill="midnightblue" stroke="midnightblue" points="1740.06,-251.473 1729.66,-253.523 1739.07,-258.402 1740.06,-251.473"/>
</g>
<!-- Node41 -->
<g id="node98" class="node"><title>Node41</title>
<a xlink:href="Constancy_8h.html" target="_top" xlink:title="walking&#45;client/constraints/Constancy.h">
<polygon fill="white" stroke="black" points="1762.5,-232.5 1762.5,-253.5 1947.5,-253.5 1947.5,-232.5 1762.5,-232.5"/>
<text text-anchor="middle" x="1855" y="-240.5" font-family="Helvetica,sans-Serif" font-size="10.00">walking&#45;client/constraints/Constancy.h</text>
</a>
</g>
<!-- Node37&#45;&gt;Node41 -->
<g id="edge114" class="edge"><title>Node37&#45;&gt;Node41</title>
<path fill="none" stroke="midnightblue" d="M2024.51,-290.497C1990.33,-280.918 1939.65,-266.72 1902.62,-256.342"/>
<polygon fill="midnightblue" stroke="midnightblue" points="1903.13,-252.851 1892.56,-253.523 1901.24,-259.591 1903.13,-252.851"/>
</g>
<!-- Node42 -->
<g id="node101" class="node"><title>Node42</title>
<a xlink:href="Sequentiality_8h.html" target="_top" xlink:title="walking&#45;client/constraints/Sequentiality.h">
<polygon fill="white" stroke="black" points="1965,-232.5 1965,-253.5 2159,-253.5 2159,-232.5 1965,-232.5"/>
<text text-anchor="middle" x="2062" y="-240.5" font-family="Helvetica,sans-Serif" font-size="10.00">walking&#45;client/constraints/Sequentiality.h</text>
</a>
</g>
<!-- Node37&#45;&gt;Node42 -->
<g id="edge118" class="edge"><title>Node37&#45;&gt;Node42</title>
<path fill="none" stroke="midnightblue" d="M2062,-290.362C2062,-282.922 2062,-272.743 2062,-263.728"/>
<polygon fill="midnightblue" stroke="midnightblue" points="2065.5,-263.571 2062,-253.571 2058.5,-263.571 2065.5,-263.571"/>
</g>
<!-- Node38&#45;&gt;Node4 -->
<g id="edge102" class="edge"><title>Node38&#45;&gt;Node4</title>
<path fill="none" stroke="midnightblue" d="M2310.5,-174.497C2364.92,-164.38 2447.06,-149.11 2503.43,-138.631"/>
<polygon fill="midnightblue" stroke="midnightblue" points="2504.11,-142.066 2513.3,-136.797 2502.83,-135.184 2504.11,-142.066"/>
</g>
<!-- Node38&#45;&gt;Node6 -->
<g id="edge108" class="edge"><title>Node38&#45;&gt;Node6</title>
<path fill="none" stroke="midnightblue" d="M2266.58,-174.377C2301.05,-145.255 2397.32,-63.9457 2439.62,-28.2142"/>
<polygon fill="midnightblue" stroke="midnightblue" points="2441.95,-30.8313 2447.33,-21.7046 2437.43,-25.4836 2441.95,-30.8313"/>
</g>
<!-- Node38&#45;&gt;Node35 -->
<g id="edge104" class="edge"><title>Node38&#45;&gt;Node35</title>
<path fill="none" stroke="midnightblue" d="M2217.06,-174.497C2183.37,-164.918 2133.43,-150.72 2096.93,-140.342"/>
<polygon fill="midnightblue" stroke="midnightblue" points="2097.59,-136.891 2087.01,-137.523 2095.67,-143.624 2097.59,-136.891"/>
</g>
<!-- Node39 -->
<g id="node92" class="node"><title>Node39</title>
<polygon fill="white" stroke="#bfbfbf" points="2152.5,-116.5 2152.5,-137.5 2269.5,-137.5 2269.5,-116.5 2152.5,-116.5"/>
<text text-anchor="middle" x="2211" y="-124.5" font-family="Helvetica,sans-Serif" font-size="10.00">ocra/util/ErrorsHelper.h</text>
</g>
<!-- Node38&#45;&gt;Node39 -->
<g id="edge106" class="edge"><title>Node38&#45;&gt;Node39</title>
<path fill="none" stroke="midnightblue" d="M2246.11,-174.362C2240.17,-166.35 2231.88,-155.161 2224.84,-145.67"/>
<polygon fill="midnightblue" stroke="midnightblue" points="2227.6,-143.519 2218.84,-137.571 2221.98,-147.688 2227.6,-143.519"/>
</g>
<!-- Node40&#45;&gt;Node38 -->
<g id="edge112" class="edge"><title>Node40&#45;&gt;Node38</title>
<path fill="none" stroke="midnightblue" d="M1745.71,-232.864C1748.51,-232.57 1751.28,-232.281 1754,-232 1891.72,-217.799 2050.97,-203.132 2152.05,-194.04"/>
<polygon fill="midnightblue" stroke="midnightblue" points="2152.61,-197.504 2162.26,-193.124 2151.98,-190.532 2152.61,-197.504"/>
</g>
<!-- Node41&#45;&gt;Node38 -->
<g id="edge116" class="edge"><title>Node41&#45;&gt;Node38</title>
<path fill="none" stroke="midnightblue" d="M1927.26,-232.497C1996.11,-222.488 2099.66,-207.436 2171.66,-196.969"/>
<polygon fill="midnightblue" stroke="midnightblue" points="2172.22,-200.425 2181.61,-195.523 2171.21,-193.498 2172.22,-200.425"/>
</g>
<!-- Node42&#45;&gt;Node38 -->
<g id="edge120" class="edge"><title>Node42&#45;&gt;Node38</title>
<path fill="none" stroke="midnightblue" d="M2096.77,-232.497C2128.34,-222.959 2175.08,-208.841 2209.39,-198.475"/>
<polygon fill="midnightblue" stroke="midnightblue" points="2210.6,-201.765 2219.17,-195.523 2208.58,-195.064 2210.6,-201.765"/>
</g>
<!-- Node43&#45;&gt;Node38 -->
<g id="edge124" class="edge"><title>Node43&#45;&gt;Node38</title>
<path fill="none" stroke="midnightblue" d="M2666.43,-292.821C2763.84,-285.031 2886.34,-271.848 2902,-254 2908.45,-246.65 2908.66,-239.16 2902,-232 2883.7,-212.327 2533.63,-195.901 2355.82,-188.788"/>
<polygon fill="midnightblue" stroke="midnightblue" points="2355.79,-185.284 2345.66,-188.384 2355.52,-192.279 2355.79,-185.284"/>
</g>
<!-- Node44 -->
<g id="node107" class="node"><title>Node44</title>
<a xlink:href="SSDSAlternation_8h.html" target="_top" xlink:title="walking&#45;client/constraints/SSDSAlternation.h">
<polygon fill="white" stroke="black" points="2215,-232.5 2215,-253.5 2427,-253.5 2427,-232.5 2215,-232.5"/>
<text text-anchor="middle" x="2321" y="-240.5" font-family="Helvetica,sans-Serif" font-size="10.00">walking&#45;client/constraints/SSDSAlternation.h</text>
</a>
</g>
<!-- Node43&#45;&gt;Node44 -->
<g id="edge126" class="edge"><title>Node43&#45;&gt;Node44</title>
<path fill="none" stroke="midnightblue" d="M2503.62,-290.497C2466.47,-280.836 2411.26,-266.477 2371.28,-256.077"/>
<polygon fill="midnightblue" stroke="midnightblue" points="2372.02,-252.653 2361.46,-253.523 2370.26,-259.428 2372.02,-252.653"/>
</g>
<!-- Node45 -->
<g id="node110" class="node"><title>Node45</title>
<a xlink:href="SingleSupport_8h.html" target="_top" xlink:title="walking&#45;client/constraints/SingleSupport.h">
<polygon fill="white" stroke="black" points="2444.5,-232.5 2444.5,-253.5 2643.5,-253.5 2643.5,-232.5 2444.5,-232.5"/>
<text text-anchor="middle" x="2544" y="-240.5" font-family="Helvetica,sans-Serif" font-size="10.00">walking&#45;client/constraints/SingleSupport.h</text>
</a>
</g>
<!-- Node43&#45;&gt;Node45 -->
<g id="edge130" class="edge"><title>Node43&#45;&gt;Node45</title>
<path fill="none" stroke="midnightblue" d="M2544,-290.362C2544,-282.922 2544,-272.743 2544,-263.728"/>
<polygon fill="midnightblue" stroke="midnightblue" points="2547.5,-263.571 2544,-253.571 2540.5,-263.571 2547.5,-263.571"/>
</g>
<!-- Node46 -->
<g id="node113" class="node"><title>Node46</title>
<a xlink:href="ContactConfigHistory_8h.html" target="_top" xlink:title="walking&#45;client/constraints/ContactConfigHistory.h">
<polygon fill="white" stroke="black" points="2660.5,-232.5 2660.5,-253.5 2893.5,-253.5 2893.5,-232.5 2660.5,-232.5"/>
<text text-anchor="middle" x="2777" y="-240.5" font-family="Helvetica,sans-Serif" font-size="10.00">walking&#45;client/constraints/ContactConfigHistory.h</text>
</a>
</g>
<!-- Node43&#45;&gt;Node46 -->
<g id="edge134" class="edge"><title>Node43&#45;&gt;Node46</title>
<path fill="none" stroke="midnightblue" d="M2586.19,-290.497C2625.17,-280.795 2683.18,-266.355 2725,-255.945"/>
<polygon fill="midnightblue" stroke="midnightblue" points="2725.87,-259.335 2734.73,-253.523 2724.18,-252.542 2725.87,-259.335"/>
</g>
<!-- Node44&#45;&gt;Node38 -->
<g id="edge128" class="edge"><title>Node44&#45;&gt;Node38</title>
<path fill="none" stroke="midnightblue" d="M2308.71,-232.362C2298.98,-223.941 2285.2,-212.011 2273.9,-202.231"/>
<polygon fill="midnightblue" stroke="midnightblue" points="2276.06,-199.469 2266.21,-195.571 2271.48,-204.762 2276.06,-199.469"/>
</g>
<!-- Node45&#45;&gt;Node38 -->
<g id="edge132" class="edge"><title>Node45&#45;&gt;Node38</title>
<path fill="none" stroke="midnightblue" d="M2491.48,-232.497C2442.26,-222.652 2368.64,-207.927 2316.43,-197.486"/>
<polygon fill="midnightblue" stroke="midnightblue" points="2317.11,-194.052 2306.62,-195.523 2315.73,-200.916 2317.11,-194.052"/>
</g>
<!-- Node46&#45;&gt;Node38 -->
<g id="edge136" class="edge"><title>Node46&#45;&gt;Node38</title>
<path fill="none" stroke="midnightblue" d="M2682.29,-232.497C2590.13,-222.276 2450.52,-206.794 2355.97,-196.308"/>
<polygon fill="midnightblue" stroke="midnightblue" points="2356.14,-192.806 2345.81,-195.182 2355.37,-199.763 2356.14,-192.806"/>
</g>
<!-- Node47&#45;&gt;Node4 -->
<g id="edge140" class="edge"><title>Node47&#45;&gt;Node4</title>
<path fill="none" stroke="midnightblue" d="M2981.23,-232.398C2897.34,-211.104 2708.61,-163.199 2617.35,-140.033"/>
<polygon fill="midnightblue" stroke="midnightblue" points="2618.06,-136.603 2607.5,-137.535 2616.34,-143.388 2618.06,-136.603"/>
</g>
<!-- Node48&#45;&gt;Node47 -->
<g id="edge156" class="edge"><title>Node48&#45;&gt;Node47</title>
<path fill="none" stroke="midnightblue" d="M2373.08,-293.53C2386.39,-292.304 2400.09,-291.082 2413,-290 2630.16,-271.8 2684.81,-271.866 2902,-254 2913.74,-253.034 2926.12,-251.966 2938.3,-250.886"/>
<polygon fill="midnightblue" stroke="midnightblue" points="2938.82,-254.354 2948.47,-249.978 2938.19,-247.382 2938.82,-254.354"/>
</g>
<!-- Node48&#45;&gt;Node49 -->
<g id="edge144" class="edge"><title>Node48&#45;&gt;Node49</title>
<path fill="none" stroke="midnightblue" d="M2218.94,-293.359C2205.63,-292.153 2191.92,-290.981 2179,-290 1906.7,-269.313 1834.83,-281.273 1559.69,-254.101"/>
<polygon fill="midnightblue" stroke="midnightblue" points="1559.7,-250.584 1549.4,-253.075 1559,-257.549 1559.7,-250.584"/>
</g>
<!-- Node49&#45;&gt;Node4 -->
<g id="edge152" class="edge"><title>Node49&#45;&gt;Node4</title>
<path fill="none" stroke="midnightblue" d="M1549.41,-233.001C1552.31,-232.649 1555.18,-232.313 1558,-232 1758.73,-209.708 1810.39,-219.371 2011,-196 2074.87,-188.559 2090.27,-182.535 2154,-174 2277.51,-157.46 2422.36,-141.8 2503.22,-133.391"/>
<polygon fill="midnightblue" stroke="midnightblue" points="2503.65,-136.865 2513.24,-132.352 2502.93,-129.902 2503.65,-136.865"/>
</g>
<!-- Node49&#45;&gt;Node5 -->
<g id="edge148" class="edge"><title>Node49&#45;&gt;Node5</title>
<path fill="none" stroke="midnightblue" d="M1456.73,-232.497C1435.52,-223.315 1404.5,-209.889 1380.85,-199.652"/>
<polygon fill="midnightblue" stroke="midnightblue" points="1382.11,-196.381 1371.54,-195.621 1379.33,-202.806 1382.11,-196.381"/>
</g>
<!-- Node49&#45;&gt;Node16 -->
<g id="edge154" class="edge"><title>Node49&#45;&gt;Node16</title>
<path fill="none" stroke="midnightblue" d="M1471.9,-232.163C1460.38,-218.506 1439.9,-194.355 1422,-174 1394.91,-143.202 1362.78,-107.946 1343.68,-87.1268"/>
<polygon fill="midnightblue" stroke="midnightblue" points="1346.15,-84.6411 1336.81,-79.643 1341,-89.3759 1346.15,-84.6411"/>
</g>
<!-- Node49&#45;&gt;Node33 -->
<g id="edge146" class="edge"><title>Node49&#45;&gt;Node33</title>
<path fill="none" stroke="midnightblue" d="M1516.19,-232.442C1594.61,-209.167 1789.9,-152.612 1956,-116 2071.72,-90.4919 2360.81,-49.0633 2493.19,-22.2701"/>
<polygon fill="midnightblue" stroke="midnightblue" points="2494.12,-25.6515 2503.21,-20.2064 2492.71,-18.7954 2494.12,-25.6515"/>
</g>
<!-- Node49&#45;&gt;Node39 -->
<g id="edge150" class="edge"><title>Node49&#45;&gt;Node39</title>
<path fill="none" stroke="midnightblue" d="M1549.41,-233.044C1552.31,-232.68 1555.18,-232.33 1558,-232 1732.21,-211.591 1778.29,-226.603 1951,-196 2028.82,-182.211 2117.36,-156.503 2168.45,-140.658"/>
<polygon fill="midnightblue" stroke="midnightblue" points="2169.65,-143.949 2178.15,-137.627 2167.57,-137.267 2169.65,-143.949"/>
</g>
</g>
</svg>
