<?xml version="1.0" encoding="UTF-8" standalone="no"?>
<!DOCTYPE svg PUBLIC "-//W3C//DTD SVG 1.1//EN"
 "http://www.w3.org/Graphics/SVG/1.1/DTD/svg11.dtd">
<!-- Generated by graphviz version 2.26.3 (20100126.1600)
 -->
<!-- Title: G Pages: 1 -->
<svg width="3665pt" height="494pt"
 viewBox="0.00 0.00 3665.00 494.00" xmlns="http://www.w3.org/2000/svg" xmlns:xlink="http://www.w3.org/1999/xlink">
<g id="graph1" class="graph" transform="scale(1 1) rotate(0) translate(4 490)">
<title>G</title>
<polygon fill="white" stroke="white" points="-4,5 -4,-490 3662,-490 3662,5 -4,5"/>
<!-- Node1 -->
<g id="node1" class="node"><title>Node1</title>
<polygon fill="#bfbfbf" stroke="black" points="1484,-464.5 1484,-485.5 1848,-485.5 1848,-464.5 1484,-464.5"/>
<text text-anchor="middle" x="1666" y="-472.5" font-family="Helvetica,sans-Serif" font-size="10.00">ocra&#45;wbi&#45;plugins/ocra&#45;icub&#45;clients/walking&#45;client/src/MIQPLinearConstraints.cpp</text>
</g>
<!-- Node2 -->
<g id="node3" class="node"><title>Node2</title>
<a xlink:href="MIQPLinearConstraints_8h.html" target="_top" xlink:title="walking&#45;client/constraints/MIQPLinearConstraints.h">
<polygon fill="white" stroke="black" points="1546,-406.5 1546,-427.5 1786,-427.5 1786,-406.5 1546,-406.5"/>
<text text-anchor="middle" x="1666" y="-414.5" font-family="Helvetica,sans-Serif" font-size="10.00">walking&#45;client/constraints/MIQPLinearConstraints.h</text>
</a>
</g>
<!-- Node1&#45;&gt;Node2 -->
<g id="edge2" class="edge"><title>Node1&#45;&gt;Node2</title>
<path fill="none" stroke="midnightblue" d="M1666,-464.362C1666,-456.922 1666,-446.743 1666,-437.728"/>
<polygon fill="midnightblue" stroke="midnightblue" points="1669.5,-437.571 1666,-427.571 1662.5,-437.571 1669.5,-437.571"/>
</g>
<!-- Node3 -->
<g id="node5" class="node"><title>Node3</title>
<a xlink:href="ShapeConstraints_8h.html" target="_top" xlink:title="walking&#45;client/constraints/ShapeConstraints.h">
<polygon fill="white" stroke="black" points="1239,-348.5 1239,-369.5 1455,-369.5 1455,-348.5 1239,-348.5"/>
<text text-anchor="middle" x="1347" y="-356.5" font-family="Helvetica,sans-Serif" font-size="10.00">walking&#45;client/constraints/ShapeConstraints.h</text>
</a>
</g>
<!-- Node2&#45;&gt;Node3 -->
<g id="edge4" class="edge"><title>Node2&#45;&gt;Node3</title>
<path fill="none" stroke="midnightblue" d="M1608.23,-406.497C1553.86,-396.611 1472.43,-381.805 1414.96,-371.356"/>
<polygon fill="midnightblue" stroke="midnightblue" points="1415.34,-367.868 1404.88,-369.523 1414.09,-374.756 1415.34,-367.868"/>
</g>
<!-- Node5 -->
<g id="node9" class="node"><title>Node5</title>
<a xlink:href="utils_8h.html" target="_top" xlink:title="walking&#45;client/utils.h">
<polygon fill="white" stroke="black" points="1721.5,-174.5 1721.5,-195.5 1826.5,-195.5 1826.5,-174.5 1721.5,-174.5"/>
<text text-anchor="middle" x="1774" y="-182.5" font-family="Helvetica,sans-Serif" font-size="10.00">walking&#45;client/utils.h</text>
</a>
</g>
<!-- Node2&#45;&gt;Node5 -->
<g id="edge158" class="edge"><title>Node2&#45;&gt;Node5</title>
<path fill="none" stroke="midnightblue" d="M1786.07,-406.658C1966.49,-388.35 2294.02,-343.432 2365,-254 2371.08,-246.341 2371.63,-239.183 2365,-232 2347.27,-212.802 1985.6,-194.48 1836.95,-187.73"/>
<polygon fill="midnightblue" stroke="midnightblue" points="1836.77,-184.218 1826.63,-187.264 1836.46,-191.211 1836.77,-184.218"/>
</g>
<!-- Node14 -->
<g id="node30" class="node"><title>Node14</title>
<a xlink:href="AdmissibilityConstraints_8h.html" target="_top" xlink:title="walking&#45;client/constraints/AdmissibilityConstraints.h">
<polygon fill="white" stroke="black" points="408,-348.5 408,-369.5 652,-369.5 652,-348.5 408,-348.5"/>
<text text-anchor="middle" x="530" y="-356.5" font-family="Helvetica,sans-Serif" font-size="10.00">walking&#45;client/constraints/AdmissibilityConstraints.h</text>
</a>
</g>
<!-- Node2&#45;&gt;Node14 -->
<g id="edge32" class="edge"><title>Node2&#45;&gt;Node14</title>
<path fill="none" stroke="midnightblue" d="M1545.77,-410.862C1331.49,-399.921 885.204,-377.135 662.44,-365.762"/>
<polygon fill="midnightblue" stroke="midnightblue" points="662.495,-362.26 652.329,-365.246 662.138,-369.251 662.495,-362.26"/>
</g>
<!-- Node19 -->
<g id="node45" class="node"><title>Node19</title>
<a xlink:href="StepController_8h.html" target="_top" xlink:title="walking&#45;client/StepController.h">
<polygon fill="white" stroke="black" points="1219.5,-232.5 1219.5,-253.5 1368.5,-253.5 1368.5,-232.5 1219.5,-232.5"/>
<text text-anchor="middle" x="1294" y="-240.5" font-family="Helvetica,sans-Serif" font-size="10.00">walking&#45;client/StepController.h</text>
</a>
</g>
<!-- Node2&#45;&gt;Node19 -->
<g id="edge52" class="edge"><title>Node2&#45;&gt;Node19</title>
<path fill="none" stroke="midnightblue" d="M1668.17,-406.285C1672.44,-381.797 1678.94,-321.429 1647,-290 1646.85,-289.852 1483.45,-268.143 1379.05,-254.284"/>
<polygon fill="midnightblue" stroke="midnightblue" points="1379.19,-250.773 1368.82,-252.927 1378.27,-257.713 1379.19,-250.773"/>
</g>
<!-- Node21 -->
<g id="node50" class="node"><title>Node21</title>
<a xlink:href="BaseOfSupport_8h.html" target="_top" xlink:title="walking&#45;client/BaseOfSupport.h">
<polygon fill="white" stroke="black" points="1694,-290.5 1694,-311.5 1848,-311.5 1848,-290.5 1694,-290.5"/>
<text text-anchor="middle" x="1771" y="-298.5" font-family="Helvetica,sans-Serif" font-size="10.00">walking&#45;client/BaseOfSupport.h</text>
</a>
</g>
<!-- Node2&#45;&gt;Node21 -->
<g id="edge58" class="edge"><title>Node2&#45;&gt;Node21</title>
<path fill="none" stroke="midnightblue" d="M1675.69,-406.295C1693.66,-386.441 1732.34,-343.709 1754.5,-319.224"/>
<polygon fill="midnightblue" stroke="midnightblue" points="1757.22,-321.442 1761.33,-311.679 1752.03,-316.744 1757.22,-321.442"/>
</g>
<!-- Node4 -->
<g id="node7" class="node"><title>Node4</title>
<a xlink:href="Constraint_8h.html" target="_top" xlink:title="A constraint base class.">
<polygon fill="white" stroke="black" points="943.5,-232.5 943.5,-253.5 1126.5,-253.5 1126.5,-232.5 943.5,-232.5"/>
<text text-anchor="middle" x="1035" y="-240.5" font-family="Helvetica,sans-Serif" font-size="10.00">walking&#45;client/constraints/Constraint.h</text>
</a>
</g>
<!-- Node3&#45;&gt;Node4 -->
<g id="edge6" class="edge"><title>Node3&#45;&gt;Node4</title>
<path fill="none" stroke="midnightblue" d="M1323.78,-348.482C1303.76,-339.269 1274.19,-325.309 1249,-312 1231.74,-302.885 1229.03,-297.471 1211,-290 1174.97,-275.068 1132.81,-263.615 1098.78,-255.754"/>
<polygon fill="midnightblue" stroke="midnightblue" points="1099.49,-252.325 1088.96,-253.532 1097.94,-259.152 1099.49,-252.325"/>
</g>
<!-- Node11 -->
<g id="node21" class="node"><title>Node11</title>
<a xlink:href="Bounding_8h.html" target="_top" xlink:title="walking&#45;client/constraints/Bounding.h">
<polygon fill="white" stroke="black" points="1257.5,-290.5 1257.5,-311.5 1436.5,-311.5 1436.5,-290.5 1257.5,-290.5"/>
<text text-anchor="middle" x="1347" y="-298.5" font-family="Helvetica,sans-Serif" font-size="10.00">walking&#45;client/constraints/Bounding.h</text>
</a>
</g>
<!-- Node3&#45;&gt;Node11 -->
<g id="edge20" class="edge"><title>Node3&#45;&gt;Node11</title>
<path fill="none" stroke="midnightblue" d="M1347,-348.362C1347,-340.922 1347,-330.743 1347,-321.728"/>
<polygon fill="midnightblue" stroke="midnightblue" points="1350.5,-321.571 1347,-311.571 1343.5,-321.571 1350.5,-321.571"/>
</g>
<!-- Node12 -->
<g id="node24" class="node"><title>Node12</title>
<a xlink:href="Constancy_8h.html" target="_top" xlink:title="walking&#45;client/constraints/Constancy.h">
<polygon fill="white" stroke="black" points="1453.5,-290.5 1453.5,-311.5 1638.5,-311.5 1638.5,-290.5 1453.5,-290.5"/>
<text text-anchor="middle" x="1546" y="-298.5" font-family="Helvetica,sans-Serif" font-size="10.00">walking&#45;client/constraints/Constancy.h</text>
</a>
</g>
<!-- Node3&#45;&gt;Node12 -->
<g id="edge24" class="edge"><title>Node3&#45;&gt;Node12</title>
<path fill="none" stroke="midnightblue" d="M1383.04,-348.497C1415.9,-338.918 1464.62,-324.72 1500.22,-314.342"/>
<polygon fill="midnightblue" stroke="midnightblue" points="1501.27,-317.681 1509.9,-311.523 1499.32,-310.961 1501.27,-317.681"/>
</g>
<!-- Node13 -->
<g id="node27" class="node"><title>Node13</title>
<a xlink:href="Sequentiality_8h.html" target="_top" xlink:title="walking&#45;client/constraints/Sequentiality.h">
<polygon fill="white" stroke="black" points="1008,-290.5 1008,-311.5 1202,-311.5 1202,-290.5 1008,-290.5"/>
<text text-anchor="middle" x="1105" y="-298.5" font-family="Helvetica,sans-Serif" font-size="10.00">walking&#45;client/constraints/Sequentiality.h</text>
</a>
</g>
<!-- Node3&#45;&gt;Node13 -->
<g id="edge28" class="edge"><title>Node3&#45;&gt;Node13</title>
<path fill="none" stroke="midnightblue" d="M1303.18,-348.497C1262.61,-338.775 1202.19,-324.294 1158.74,-313.879"/>
<polygon fill="midnightblue" stroke="midnightblue" points="1159.45,-310.45 1148.91,-311.523 1157.82,-317.257 1159.45,-310.45"/>
</g>
<!-- Node4&#45;&gt;Node5 -->
<g id="edge8" class="edge"><title>Node4&#45;&gt;Node5</title>
<path fill="none" stroke="midnightblue" d="M1126.73,-235.801C1278.96,-223.853 1579.98,-200.228 1710.81,-189.959"/>
<polygon fill="midnightblue" stroke="midnightblue" points="1711.36,-193.427 1721.06,-189.155 1710.82,-186.448 1711.36,-193.427"/>
</g>
<!-- Node7 -->
<g id="node13" class="node"><title>Node7</title>
<polygon fill="white" stroke="#bfbfbf" points="1024.5,-174.5 1024.5,-195.5 1089.5,-195.5 1089.5,-174.5 1024.5,-174.5"/>
<text text-anchor="middle" x="1057" y="-182.5" font-family="Helvetica,sans-Serif" font-size="10.00">Eigen/Core</text>
</g>
<!-- Node4&#45;&gt;Node7 -->
<g id="edge12" class="edge"><title>Node4&#45;&gt;Node7</title>
<path fill="none" stroke="midnightblue" d="M1039.04,-232.362C1041.92,-224.758 1045.89,-214.294 1049.36,-205.135"/>
<polygon fill="midnightblue" stroke="midnightblue" points="1052.72,-206.162 1052.99,-195.571 1046.17,-203.679 1052.72,-206.162"/>
</g>
<!-- Node8 -->
<g id="node15" class="node"><title>Node8</title>
<polygon fill="white" stroke="#bfbfbf" points="1107,-174.5 1107,-195.5 1277,-195.5 1277,-174.5 1107,-174.5"/>
<text text-anchor="middle" x="1192" y="-182.5" font-family="Helvetica,sans-Serif" font-size="10.00">unsupported/Eigen/MatrixFunctions</text>
</g>
<!-- Node4&#45;&gt;Node8 -->
<g id="edge14" class="edge"><title>Node4&#45;&gt;Node8</title>
<path fill="none" stroke="midnightblue" d="M1063.43,-232.497C1088.81,-223.123 1126.16,-209.324 1154.07,-199.012"/>
<polygon fill="midnightblue" stroke="midnightblue" points="1155.35,-202.272 1163.52,-195.523 1152.92,-195.705 1155.35,-202.272"/>
</g>
<!-- Node9 -->
<g id="node17" class="node"><title>Node9</title>
<polygon fill="white" stroke="#bfbfbf" points="1294.5,-174.5 1294.5,-195.5 1411.5,-195.5 1411.5,-174.5 1294.5,-174.5"/>
<text text-anchor="middle" x="1353" y="-182.5" font-family="Helvetica,sans-Serif" font-size="10.00">ocra/util/ErrorsHelper.h</text>
</g>
<!-- Node4&#45;&gt;Node9 -->
<g id="edge16" class="edge"><title>Node4&#45;&gt;Node9</title>
<path fill="none" stroke="midnightblue" d="M1092.59,-232.497C1146.79,-222.611 1227.97,-207.805 1285.26,-197.356"/>
<polygon fill="midnightblue" stroke="midnightblue" points="1286.09,-200.761 1295.3,-195.523 1284.84,-193.874 1286.09,-200.761"/>
</g>
<!-- Node10 -->
<g id="node19" class="node"><title>Node10</title>
<polygon fill="white" stroke="#bfbfbf" points="1411,-0.5 1411,-21.5 1463,-21.5 1463,-0.5 1411,-0.5"/>
<text text-anchor="middle" x="1437" y="-8.5" font-family="Helvetica,sans-Serif" font-size="10.00">memory</text>
</g>
<!-- Node4&#45;&gt;Node10 -->
<g id="edge18" class="edge"><title>Node4&#45;&gt;Node10</title>
<path fill="none" stroke="midnightblue" d="M1026.97,-232.282C1017.26,-217.888 1003.64,-192.04 1016,-174 1061.74,-107.239 1307.64,-42.119 1401.01,-19.4353"/>
<polygon fill="midnightblue" stroke="midnightblue" points="1401.94,-22.8099 1410.85,-17.0653 1400.31,-16.0046 1401.94,-22.8099"/>
</g>
<!-- Node6 -->
<g id="node11" class="node"><title>Node6</title>
<polygon fill="white" stroke="#bfbfbf" points="1480.5,-0.5 1480.5,-21.5 1521.5,-21.5 1521.5,-0.5 1480.5,-0.5"/>
<text text-anchor="middle" x="1501" y="-8.5" font-family="Helvetica,sans-Serif" font-size="10.00">string</text>
</g>
<!-- Node5&#45;&gt;Node6 -->
<g id="edge10" class="edge"><title>Node5&#45;&gt;Node6</title>
<path fill="none" stroke="midnightblue" d="M1757.33,-174.377C1711.17,-144.952 1581.4,-62.2461 1526.28,-27.1126"/>
<polygon fill="midnightblue" stroke="midnightblue" points="1528.11,-24.1279 1517.8,-21.7046 1524.35,-30.0309 1528.11,-24.1279"/>
</g>
<!-- Node11&#45;&gt;Node4 -->
<g id="edge22" class="edge"><title>Node11&#45;&gt;Node4</title>
<path fill="none" stroke="midnightblue" d="M1290.5,-290.497C1237.32,-280.611 1157.67,-265.805 1101.47,-255.356"/>
<polygon fill="midnightblue" stroke="midnightblue" points="1102.08,-251.91 1091.61,-253.523 1100.8,-258.792 1102.08,-251.91"/>
</g>
<!-- Node12&#45;&gt;Node4 -->
<g id="edge26" class="edge"><title>Node12&#45;&gt;Node4</title>
<path fill="none" stroke="midnightblue" d="M1453.46,-290.497C1364.2,-280.365 1229.39,-265.064 1137.05,-254.583"/>
<polygon fill="midnightblue" stroke="midnightblue" points="1137.18,-251.075 1126.85,-253.425 1136.39,-258.031 1137.18,-251.075"/>
</g>
<!-- Node13&#45;&gt;Node4 -->
<g id="edge30" class="edge"><title>Node13&#45;&gt;Node4</title>
<path fill="none" stroke="midnightblue" d="M1092.16,-290.362C1082,-281.941 1067.6,-270.011 1055.8,-260.231"/>
<polygon fill="midnightblue" stroke="midnightblue" points="1057.69,-257.256 1047.76,-253.571 1053.22,-262.646 1057.69,-257.256"/>
</g>
<!-- Node14&#45;&gt;Node4 -->
<g id="edge34" class="edge"><title>Node14&#45;&gt;Node4</title>
<path fill="none" stroke="midnightblue" d="M414.12,-348.491C365.934,-341.498 317.769,-330.141 303,-312 296.827,-304.417 296.311,-297.132 303,-290 324.219,-267.375 737.252,-251.962 933.323,-245.89"/>
<polygon fill="midnightblue" stroke="midnightblue" points="933.462,-249.388 943.35,-245.582 933.247,-242.391 933.462,-249.388"/>
</g>
<!-- Node15 -->
<g id="node33" class="node"><title>Node15</title>
<a xlink:href="SSDSAlternation_8h.html" target="_top" xlink:title="walking&#45;client/constraints/SSDSAlternation.h">
<polygon fill="white" stroke="black" points="312,-290.5 312,-311.5 524,-311.5 524,-290.5 312,-290.5"/>
<text text-anchor="middle" x="418" y="-298.5" font-family="Helvetica,sans-Serif" font-size="10.00">walking&#45;client/constraints/SSDSAlternation.h</text>
</a>
</g>
<!-- Node14&#45;&gt;Node15 -->
<g id="edge36" class="edge"><title>Node14&#45;&gt;Node15</title>
<path fill="none" stroke="midnightblue" d="M509.718,-348.497C492.382,-339.519 467.21,-326.484 447.62,-316.339"/>
<polygon fill="midnightblue" stroke="midnightblue" points="448.999,-313.112 438.51,-311.621 445.78,-319.328 448.999,-313.112"/>
</g>
<!-- Node16 -->
<g id="node36" class="node"><title>Node16</title>
<a xlink:href="SingleSupport_8h.html" target="_top" xlink:title="walking&#45;client/constraints/SingleSupport.h">
<polygon fill="white" stroke="black" points="541.5,-290.5 541.5,-311.5 740.5,-311.5 740.5,-290.5 541.5,-290.5"/>
<text text-anchor="middle" x="641" y="-298.5" font-family="Helvetica,sans-Serif" font-size="10.00">walking&#45;client/constraints/SingleSupport.h</text>
</a>
</g>
<!-- Node14&#45;&gt;Node16 -->
<g id="edge40" class="edge"><title>Node14&#45;&gt;Node16</title>
<path fill="none" stroke="midnightblue" d="M550.101,-348.497C567.282,-339.519 592.23,-326.484 611.645,-316.339"/>
<polygon fill="midnightblue" stroke="midnightblue" points="613.431,-319.354 620.673,-311.621 610.189,-313.15 613.431,-319.354"/>
</g>
<!-- Node17 -->
<g id="node39" class="node"><title>Node17</title>
<a xlink:href="ContactConfigHistory_8h.html" target="_top" xlink:title="walking&#45;client/constraints/ContactConfigHistory.h">
<polygon fill="white" stroke="black" points="757.5,-290.5 757.5,-311.5 990.5,-311.5 990.5,-290.5 757.5,-290.5"/>
<text text-anchor="middle" x="874" y="-298.5" font-family="Helvetica,sans-Serif" font-size="10.00">walking&#45;client/constraints/ContactConfigHistory.h</text>
</a>
</g>
<!-- Node14&#45;&gt;Node17 -->
<g id="edge44" class="edge"><title>Node14&#45;&gt;Node17</title>
<path fill="none" stroke="midnightblue" d="M592.296,-348.497C651.169,-338.57 739.473,-323.682 801.485,-313.226"/>
<polygon fill="midnightblue" stroke="midnightblue" points="802.308,-316.637 811.587,-311.523 801.145,-309.734 802.308,-316.637"/>
</g>
<!-- Node18 -->
<g id="node42" class="node"><title>Node18</title>
<a xlink:href="ContactConfigEnforcement_8h.html" target="_top" xlink:title="walking&#45;client/constraints/ContactConfigEnforcement.h">
<polygon fill="white" stroke="black" points="-0.5,-290.5 -0.5,-311.5 256.5,-311.5 256.5,-290.5 -0.5,-290.5"/>
<text text-anchor="middle" x="128" y="-298.5" font-family="Helvetica,sans-Serif" font-size="10.00">walking&#45;client/constraints/ContactConfigEnforcement.h</text>
</a>
</g>
<!-- Node14&#45;&gt;Node18 -->
<g id="edge48" class="edge"><title>Node14&#45;&gt;Node18</title>
<path fill="none" stroke="midnightblue" d="M457.201,-348.497C387.834,-338.488 283.505,-323.436 210.955,-312.969"/>
<polygon fill="midnightblue" stroke="midnightblue" points="211.333,-309.487 200.936,-311.523 210.333,-316.415 211.333,-309.487"/>
</g>
<!-- Node15&#45;&gt;Node4 -->
<g id="edge38" class="edge"><title>Node15&#45;&gt;Node4</title>
<path fill="none" stroke="midnightblue" d="M524.205,-290.833C527.169,-290.552 530.105,-290.274 533,-290 671.593,-276.884 831.729,-261.925 933.153,-252.475"/>
<polygon fill="midnightblue" stroke="midnightblue" points="933.759,-255.934 943.391,-251.521 933.11,-248.964 933.759,-255.934"/>
</g>
<!-- Node16&#45;&gt;Node4 -->
<g id="edge42" class="edge"><title>Node16&#45;&gt;Node4</title>
<path fill="none" stroke="midnightblue" d="M712.35,-290.497C780.198,-280.509 882.172,-265.498 953.259,-255.033"/>
<polygon fill="midnightblue" stroke="midnightblue" points="954.132,-258.442 963.516,-253.523 953.113,-251.517 954.132,-258.442"/>
</g>
<!-- Node17&#45;&gt;Node4 -->
<g id="edge46" class="edge"><title>Node17&#45;&gt;Node4</title>
<path fill="none" stroke="midnightblue" d="M903.156,-290.497C929.176,-281.123 967.479,-267.324 996.104,-257.012"/>
<polygon fill="midnightblue" stroke="midnightblue" points="997.568,-260.205 1005.79,-253.523 995.195,-253.62 997.568,-260.205"/>
</g>
<!-- Node18&#45;&gt;Node4 -->
<g id="edge50" class="edge"><title>Node18&#45;&gt;Node4</title>
<path fill="none" stroke="midnightblue" d="M256.86,-290.928C261.293,-290.61 265.683,-290.3 270,-290 507.389,-273.514 786.43,-257.125 933.085,-248.743"/>
<polygon fill="midnightblue" stroke="midnightblue" points="933.629,-252.218 943.413,-248.154 933.23,-245.229 933.629,-252.218"/>
</g>
<!-- Node19&#45;&gt;Node5 -->
<g id="edge56" class="edge"><title>Node19&#45;&gt;Node5</title>
<path fill="none" stroke="midnightblue" d="M1368.65,-233.057C1371.47,-232.697 1374.26,-232.344 1377,-232 1494.97,-217.2 1632.83,-201.161 1711.13,-192.169"/>
<polygon fill="midnightblue" stroke="midnightblue" points="1711.78,-195.618 1721.31,-191.001 1710.98,-188.664 1711.78,-195.618"/>
</g>
<!-- Node20 -->
<g id="node47" class="node"><title>Node20</title>
<polygon fill="white" stroke="#bfbfbf" points="1428.5,-174.5 1428.5,-195.5 1583.5,-195.5 1583.5,-174.5 1428.5,-174.5"/>
<text text-anchor="middle" x="1506" y="-182.5" font-family="Helvetica,sans-Serif" font-size="10.00">ocra&#45;recipes/TrajectoryThread.h</text>
</g>
<!-- Node19&#45;&gt;Node20 -->
<g id="edge54" class="edge"><title>Node19&#45;&gt;Node20</title>
<path fill="none" stroke="midnightblue" d="M1332.39,-232.497C1367.55,-222.877 1419.74,-208.598 1457.72,-198.209"/>
<polygon fill="midnightblue" stroke="midnightblue" points="1458.81,-201.538 1467.54,-195.523 1456.97,-194.786 1458.81,-201.538"/>
</g>
<!-- Node21&#45;&gt;Node5 -->
<g id="edge154" class="edge"><title>Node21&#45;&gt;Node5</title>
<path fill="none" stroke="midnightblue" d="M1822.36,-290.444C1842.32,-283.565 1863.18,-272.312 1875,-254 1891.4,-228.586 1858.29,-210.091 1825.67,-198.684"/>
<polygon fill="midnightblue" stroke="midnightblue" points="1826.67,-195.328 1816.08,-195.513 1824.48,-201.975 1826.67,-195.328"/>
</g>
<!-- Node21&#45;&gt;Node7 -->
<g id="edge70" class="edge"><title>Node21&#45;&gt;Node7</title>
<path fill="none" stroke="midnightblue" d="M1693.95,-294.052C1678.41,-292.683 1662.18,-291.275 1647,-290 1445.3,-273.057 1387.84,-308.832 1193,-254 1151.51,-242.323 1107.79,-217.592 1081.45,-201.133"/>
<polygon fill="midnightblue" stroke="midnightblue" points="1083.21,-198.104 1072.89,-195.691 1079.45,-204.011 1083.21,-198.104"/>
</g>
<!-- Node21&#45;&gt;Node8 -->
<g id="edge68" class="edge"><title>Node21&#45;&gt;Node8</title>
<path fill="none" stroke="midnightblue" d="M1693.95,-294.091C1678.4,-292.718 1662.18,-291.3 1647,-290 1598.57,-285.852 1248.42,-285.025 1211,-254 1197.07,-242.449 1192.84,-221.707 1191.78,-205.971"/>
<polygon fill="midnightblue" stroke="midnightblue" points="1195.27,-205.494 1191.48,-195.601 1188.27,-205.699 1195.27,-205.494"/>
</g>
<!-- Node21&#45;&gt;Node19 -->
<g id="edge152" class="edge"><title>Node21&#45;&gt;Node19</title>
<path fill="none" stroke="midnightblue" d="M1693.56,-291.628C1688.97,-291.076 1684.42,-290.53 1680,-290 1548.64,-274.257 1513.27,-271.061 1378.93,-254.231"/>
<polygon fill="midnightblue" stroke="midnightblue" points="1379.01,-250.714 1368.65,-252.942 1378.14,-257.66 1379.01,-250.714"/>
</g>
<!-- Node22 -->
<g id="node52" class="node"><title>Node22</title>
<polygon fill="white" stroke="#bfbfbf" points="1555.5,-232.5 1555.5,-253.5 1658.5,-253.5 1658.5,-232.5 1555.5,-232.5"/>
<text text-anchor="middle" x="1607" y="-240.5" font-family="Helvetica,sans-Serif" font-size="10.00">boost/geometry.hpp</text>
</g>
<!-- Node21&#45;&gt;Node22 -->
<g id="edge60" class="edge"><title>Node21&#45;&gt;Node22</title>
<path fill="none" stroke="midnightblue" d="M1741.3,-290.497C1714.68,-281.082 1675.44,-267.204 1646.24,-256.877"/>
<polygon fill="midnightblue" stroke="midnightblue" points="1647.35,-253.558 1636.75,-253.523 1645.02,-260.157 1647.35,-253.558"/>
</g>
<!-- Node23 -->
<g id="node54" class="node"><title>Node23</title>
<polygon fill="white" stroke="#bfbfbf" points="1675.5,-232.5 1675.5,-253.5 1866.5,-253.5 1866.5,-232.5 1675.5,-232.5"/>
<text text-anchor="middle" x="1771" y="-240.5" font-family="Helvetica,sans-Serif" font-size="10.00">boost/geometry/geometries/polygon.hpp</text>
</g>
<!-- Node21&#45;&gt;Node23 -->
<g id="edge62" class="edge"><title>Node21&#45;&gt;Node23</title>
<path fill="none" stroke="midnightblue" d="M1771,-290.362C1771,-282.922 1771,-272.743 1771,-263.728"/>
<polygon fill="midnightblue" stroke="midnightblue" points="1774.5,-263.571 1771,-253.571 1767.5,-263.571 1774.5,-263.571"/>
</g>
<!-- Node24 -->
<g id="node56" class="node"><title>Node24</title>
<polygon fill="white" stroke="#bfbfbf" points="1921.5,-232.5 1921.5,-253.5 2094.5,-253.5 2094.5,-232.5 1921.5,-232.5"/>
<text text-anchor="middle" x="2008" y="-240.5" font-family="Helvetica,sans-Serif" font-size="10.00">boost/geometry/geometries/box.hpp</text>
</g>
<!-- Node21&#45;&gt;Node24 -->
<g id="edge64" class="edge"><title>Node21&#45;&gt;Node24</title>
<path fill="none" stroke="midnightblue" d="M1813.92,-290.497C1853.56,-280.795 1912.57,-266.355 1955.11,-255.945"/>
<polygon fill="midnightblue" stroke="midnightblue" points="1956.12,-259.3 1965,-253.523 1954.46,-252.501 1956.12,-259.3"/>
</g>
<!-- Node25 -->
<g id="node58" class="node"><title>Node25</title>
<polygon fill="white" stroke="#bfbfbf" points="2111.5,-232.5 2111.5,-253.5 2356.5,-253.5 2356.5,-232.5 2111.5,-232.5"/>
<text text-anchor="middle" x="2234" y="-240.5" font-family="Helvetica,sans-Serif" font-size="10.00">boost/geometry/geometries/adapted/boost_tuple.hpp</text>
</g>
<!-- Node21&#45;&gt;Node25 -->
<g id="edge66" class="edge"><title>Node21&#45;&gt;Node25</title>
<path fill="none" stroke="midnightblue" d="M1848.24,-291.325C1928.42,-281.28 2053.92,-265.558 2139.86,-254.793"/>
<polygon fill="midnightblue" stroke="midnightblue" points="2140.39,-258.254 2149.88,-253.538 2139.52,-251.308 2140.39,-258.254"/>
</g>
<!-- Node26 -->
<g id="node62" class="node"><title>Node26</title>
<a xlink:href="MIQPState_8h.html" target="_top" xlink:title="walking&#45;client/MIQPState.h">
<polygon fill="white" stroke="black" points="2412,-232.5 2412,-253.5 2548,-253.5 2548,-232.5 2412,-232.5"/>
<text text-anchor="middle" x="2480" y="-240.5" font-family="Helvetica,sans-Serif" font-size="10.00">walking&#45;client/MIQPState.h</text>
</a>
</g>
<!-- Node21&#45;&gt;Node26 -->
<g id="edge72" class="edge"><title>Node21&#45;&gt;Node26</title>
<path fill="none" stroke="midnightblue" d="M1848.4,-295.283C1961.8,-286.814 2179.76,-270.187 2365,-254 2376.86,-252.963 2389.41,-251.816 2401.68,-250.665"/>
<polygon fill="midnightblue" stroke="midnightblue" points="2402.28,-254.124 2411.91,-249.699 2401.63,-247.155 2402.28,-254.124"/>
</g>
<!-- Node50 -->
<g id="node128" class="node"><title>Node50</title>
<polygon fill="white" stroke="#bfbfbf" points="1386,-232.5 1386,-253.5 1538,-253.5 1538,-232.5 1386,-232.5"/>
<text text-anchor="middle" x="1462" y="-240.5" font-family="Helvetica,sans-Serif" font-size="10.00">ocra&#45;recipes/TaskConnection.h</text>
</g>
<!-- Node21&#45;&gt;Node50 -->
<g id="edge156" class="edge"><title>Node21&#45;&gt;Node50</title>
<path fill="none" stroke="midnightblue" d="M1715.04,-290.497C1662.49,-280.632 1583.82,-265.866 1528.17,-255.421"/>
<polygon fill="midnightblue" stroke="midnightblue" points="1528.54,-251.928 1518.06,-253.523 1527.25,-258.808 1528.54,-251.928"/>
</g>
<!-- Node26&#45;&gt;Node5 -->
<g id="edge148" class="edge"><title>Node26&#45;&gt;Node5</title>
<path fill="none" stroke="midnightblue" d="M2411.58,-233.519C2406.99,-232.976 2402.43,-232.463 2398,-232 2193.16,-210.564 1949.49,-195.102 1836.85,-188.521"/>
<polygon fill="midnightblue" stroke="midnightblue" points="1836.87,-185.016 1826.69,-187.931 1836.47,-192.005 1836.87,-185.016"/>
</g>
<!-- Node26&#45;&gt;Node9 -->
<g id="edge146" class="edge"><title>Node26&#45;&gt;Node9</title>
<path fill="none" stroke="midnightblue" d="M2411.95,-235.84C2396.52,-234.399 2380.21,-233.016 2365,-232 1949.01,-204.204 1839.94,-237.582 1422.02,-196.1"/>
<polygon fill="midnightblue" stroke="midnightblue" points="1422.07,-192.588 1411.77,-195.074 1421.37,-199.553 1422.07,-192.588"/>
</g>
<!-- Node27 -->
<g id="node64" class="node"><title>Node27</title>
<polygon fill="white" stroke="#bfbfbf" points="1538.5,-0.5 1538.5,-21.5 1611.5,-21.5 1611.5,-0.5 1538.5,-0.5"/>
<text text-anchor="middle" x="1575" y="-8.5" font-family="Helvetica,sans-Serif" font-size="10.00">Eigen/Dense</text>
</g>
<!-- Node26&#45;&gt;Node27 -->
<g id="edge74" class="edge"><title>Node26&#45;&gt;Node27</title>
<path fill="none" stroke="midnightblue" d="M2438.76,-232.429C2289.71,-194.22 1779.44,-63.4089 1621.79,-22.9935"/>
<polygon fill="midnightblue" stroke="midnightblue" points="1622.47,-19.5571 1611.92,-20.4641 1620.74,-26.3378 1622.47,-19.5571"/>
</g>
<!-- Node28 -->
<g id="node66" class="node"><title>Node28</title>
<a xlink:href="OcraWbiModel_8h.html" target="_top" xlink:title="Implementation of ocra::Model using wholeBodyInterface.">
<polygon fill="white" stroke="black" points="2568,-174.5 2568,-195.5 2700,-195.5 2700,-174.5 2568,-174.5"/>
<text text-anchor="middle" x="2634" y="-182.5" font-family="Helvetica,sans-Serif" font-size="10.00">ocra&#45;icub/OcraWbiModel.h</text>
</a>
</g>
<!-- Node26&#45;&gt;Node28 -->
<g id="edge76" class="edge"><title>Node26&#45;&gt;Node28</title>
<path fill="none" stroke="midnightblue" d="M2507.89,-232.497C2532.67,-223.164 2569.1,-209.445 2596.44,-199.147"/>
<polygon fill="midnightblue" stroke="midnightblue" points="2597.93,-202.323 2606.06,-195.523 2595.47,-195.772 2597.93,-202.323"/>
</g>
<!-- Node36 -->
<g id="node85" class="node"><title>Node36</title>
<a xlink:href="Utilities_8h.html" target="_top" xlink:title="Some useful tools for the ocra&#45;icub lib.">
<polygon fill="white" stroke="red" points="2583.5,-58.5 2583.5,-79.5 2684.5,-79.5 2684.5,-58.5 2583.5,-58.5"/>
<text text-anchor="middle" x="2634" y="-66.5" font-family="Helvetica,sans-Serif" font-size="10.00">ocra&#45;icub/Utilities.h</text>
</a>
</g>
<!-- Node26&#45;&gt;Node36 -->
<g id="edge150" class="edge"><title>Node26&#45;&gt;Node36</title>
<path fill="none" stroke="midnightblue" d="M2489.4,-232.377C2514.79,-203.688 2585.01,-124.348 2617.33,-87.8354"/>
<polygon fill="midnightblue" stroke="midnightblue" points="2620.32,-89.7357 2624.33,-79.9277 2615.08,-85.0964 2620.32,-89.7357"/>
</g>
<!-- Node28&#45;&gt;Node10 -->
<g id="edge78" class="edge"><title>Node28&#45;&gt;Node10</title>
<path fill="none" stroke="midnightblue" d="M2567.79,-179.573C2390.6,-164.227 1891.22,-115.589 1473.11,-21.9798"/>
<polygon fill="midnightblue" stroke="midnightblue" points="1473.77,-18.5415 1463.25,-19.7602 1472.23,-25.3707 1473.77,-18.5415"/>
</g>
<!-- Node29 -->
<g id="node69" class="node"><title>Node29</title>
<polygon fill="white" stroke="#bfbfbf" points="1628.5,-0.5 1628.5,-21.5 1733.5,-21.5 1733.5,-0.5 1628.5,-0.5"/>
<text text-anchor="middle" x="1681" y="-8.5" font-family="Helvetica,sans-Serif" font-size="10.00">ocra/control/Model.h</text>
</g>
<!-- Node28&#45;&gt;Node29 -->
<g id="edge80" class="edge"><title>Node28&#45;&gt;Node29</title>
<path fill="none" stroke="midnightblue" d="M2623.63,-174.182C2598.06,-148.35 2528.78,-83.3394 2456,-58 2308.9,-6.78215 1915.6,-38.8243 1743.53,-21.9754"/>
<polygon fill="midnightblue" stroke="midnightblue" points="1743.82,-18.4875 1733.51,-20.9093 1743.08,-25.4482 1743.82,-18.4875"/>
</g>
<!-- Node30 -->
<g id="node71" class="node"><title>Node30</title>
<polygon fill="white" stroke="#bfbfbf" points="3599,-0.5 3599,-21.5 3657,-21.5 3657,-0.5 3599,-0.5"/>
<text text-anchor="middle" x="3628" y="-8.5" font-family="Helvetica,sans-Serif" font-size="10.00">wbi/wbi.h</text>
</g>
<!-- Node28&#45;&gt;Node30 -->
<g id="edge82" class="edge"><title>Node28&#45;&gt;Node30</title>
<path fill="none" stroke="midnightblue" d="M2700.02,-183.669C2885.56,-179.597 3402.75,-165.86 3474,-138 3533.63,-114.682 3587.4,-58.8697 3612.71,-29.613"/>
<polygon fill="midnightblue" stroke="midnightblue" points="3615.56,-31.6726 3619.36,-21.7821 3610.22,-27.1449 3615.56,-31.6726"/>
</g>
<!-- Node31 -->
<g id="node73" class="node"><title>Node31</title>
<polygon fill="white" stroke="#bfbfbf" points="3505,-0.5 3505,-21.5 3581,-21.5 3581,-0.5 3505,-0.5"/>
<text text-anchor="middle" x="3543" y="-8.5" font-family="Helvetica,sans-Serif" font-size="10.00">yarp/os/Log.h</text>
</g>
<!-- Node28&#45;&gt;Node31 -->
<g id="edge84" class="edge"><title>Node28&#45;&gt;Node31</title>
<path fill="none" stroke="midnightblue" d="M2700.12,-184.32C2882.05,-182.01 3380.92,-172.563 3446,-138 3490.5,-114.371 3520.67,-60.3627 3534.46,-30.9626"/>
<polygon fill="midnightblue" stroke="midnightblue" points="3537.72,-32.2344 3538.64,-21.6798 3531.34,-29.3555 3537.72,-32.2344"/>
</g>
<!-- Node32 -->
<g id="node75" class="node"><title>Node32</title>
<a xlink:href="OcraWbiConversions_8h.html" target="_top" xlink:title="A utility class full of static conversion functions.">
<polygon fill="white" stroke="red" points="3276.5,-116.5 3276.5,-137.5 3437.5,-137.5 3437.5,-116.5 3276.5,-116.5"/>
<text text-anchor="middle" x="3357" y="-124.5" font-family="Helvetica,sans-Serif" font-size="10.00">ocra&#45;icub/OcraWbiConversions.h</text>
</a>
</g>
<!-- Node28&#45;&gt;Node32 -->
<g id="edge86" class="edge"><title>Node28&#45;&gt;Node32</title>
<path fill="none" stroke="midnightblue" d="M2700.08,-179.699C2829.87,-169.287 3118.27,-146.151 3265.97,-134.302"/>
<polygon fill="midnightblue" stroke="midnightblue" points="3266.67,-137.758 3276.36,-133.469 3266.11,-130.78 3266.67,-137.758"/>
</g>
<!-- Node28&#45;&gt;Node36 -->
<g id="edge144" class="edge"><title>Node28&#45;&gt;Node36</title>
<path fill="none" stroke="midnightblue" d="M2634,-174.295C2634,-155.131 2634,-114.654 2634,-89.8434"/>
<polygon fill="midnightblue" stroke="midnightblue" points="2637.5,-89.6792 2634,-79.6792 2630.5,-89.6792 2637.5,-89.6792"/>
</g>
<!-- Node32&#45;&gt;Node30 -->
<g id="edge96" class="edge"><title>Node32&#45;&gt;Node30</title>
<path fill="none" stroke="midnightblue" d="M3382.01,-116.295C3430.84,-95.3952 3538.89,-49.1446 3594.09,-25.5132"/>
<polygon fill="midnightblue" stroke="midnightblue" points="3595.63,-28.6644 3603.44,-21.5117 3592.87,-22.2292 3595.63,-28.6644"/>
</g>
<!-- Node32&#45;&gt;Node31 -->
<g id="edge94" class="edge"><title>Node32&#45;&gt;Node31</title>
<path fill="none" stroke="midnightblue" d="M3374.17,-116.295C3407.05,-95.7846 3479.09,-50.8594 3517.57,-26.8575"/>
<polygon fill="midnightblue" stroke="midnightblue" points="3519.51,-29.7733 3526.15,-21.5117 3515.81,-23.8337 3519.51,-29.7733"/>
</g>
<!-- Node33 -->
<g id="node77" class="node"><title>Node33</title>
<polygon fill="white" stroke="#bfbfbf" points="3263,-0.5 3263,-21.5 3317,-21.5 3317,-0.5 3263,-0.5"/>
<text text-anchor="middle" x="3290" y="-8.5" font-family="Helvetica,sans-Serif" font-size="10.00">iostream</text>
</g>
<!-- Node32&#45;&gt;Node33 -->
<g id="edge88" class="edge"><title>Node32&#45;&gt;Node33</title>
<path fill="none" stroke="midnightblue" d="M3350.82,-116.295C3339.55,-96.7861 3315.52,-55.1884 3301.27,-30.5177"/>
<polygon fill="midnightblue" stroke="midnightblue" points="3304.2,-28.588 3296.17,-21.6792 3298.14,-32.0891 3304.2,-28.588"/>
</g>
<!-- Node34 -->
<g id="node79" class="node"><title>Node34</title>
<polygon fill="white" stroke="#bfbfbf" points="3335,-0.5 3335,-21.5 3379,-21.5 3379,-0.5 3335,-0.5"/>
<text text-anchor="middle" x="3357" y="-8.5" font-family="Helvetica,sans-Serif" font-size="10.00">vector</text>
</g>
<!-- Node32&#45;&gt;Node34 -->
<g id="edge90" class="edge"><title>Node32&#45;&gt;Node34</title>
<path fill="none" stroke="midnightblue" d="M3357,-116.295C3357,-97.1314 3357,-56.654 3357,-31.8434"/>
<polygon fill="midnightblue" stroke="midnightblue" points="3360.5,-31.6792 3357,-21.6792 3353.5,-31.6792 3360.5,-31.6792"/>
</g>
<!-- Node35 -->
<g id="node81" class="node"><title>Node35</title>
<polygon fill="white" stroke="#bfbfbf" points="3396.5,-0.5 3396.5,-21.5 3487.5,-21.5 3487.5,-0.5 3396.5,-0.5"/>
<text text-anchor="middle" x="3442" y="-8.5" font-family="Helvetica,sans-Serif" font-size="10.00">yarp/sig/Vector.h</text>
</g>
<!-- Node32&#45;&gt;Node35 -->
<g id="edge92" class="edge"><title>Node32&#45;&gt;Node35</title>
<path fill="none" stroke="midnightblue" d="M3364.84,-116.295C3379.27,-96.6135 3410.16,-54.4504 3428.18,-29.8668"/>
<polygon fill="midnightblue" stroke="midnightblue" points="3431.09,-31.8142 3434.17,-21.6792 3425.44,-27.6768 3431.09,-31.8142"/>
</g>
<!-- Node32&#45;&gt;Node36 -->
<g id="edge98" class="edge"><title>Node32&#45;&gt;Node36</title>
<path fill="none" stroke="midnightblue" d="M3276.17,-120.515C3129.97,-108.787 2824.74,-84.3012 2694.74,-73.8724"/>
<polygon fill="midnightblue" stroke="midnightblue" points="2694.82,-70.3676 2684.57,-73.0566 2694.26,-77.3451 2694.82,-70.3676"/>
</g>
<!-- Node36&#45;&gt;Node6 -->
<g id="edge106" class="edge"><title>Node36&#45;&gt;Node6</title>
<path fill="none" stroke="midnightblue" d="M2583.38,-66.2737C2539.61,-63.9519 2474.64,-60.5902 2418,-58 2223.89,-49.1229 1739.44,-61.1336 1531.65,-21.7326"/>
<polygon fill="midnightblue" stroke="midnightblue" points="1532.16,-18.2648 1521.67,-19.7551 1530.8,-25.1314 1532.16,-18.2648"/>
</g>
<!-- Node36&#45;&gt;Node10 -->
<g id="edge100" class="edge"><title>Node36&#45;&gt;Node10</title>
<path fill="none" stroke="midnightblue" d="M2583.38,-66.2382C2539.61,-63.8942 2474.64,-60.5199 2418,-58 2211.01,-48.7915 1695.22,-57.5813 1473.21,-21.7385"/>
<polygon fill="midnightblue" stroke="midnightblue" points="1473.63,-18.2594 1463.19,-20.054 1472.47,-25.1626 1473.63,-18.2594"/>
</g>
<!-- Node36&#45;&gt;Node27 -->
<g id="edge142" class="edge"><title>Node36&#45;&gt;Node27</title>
<path fill="none" stroke="midnightblue" d="M2583.38,-65.6191C2547.76,-63.3025 2498.98,-60.2531 2456,-58 2087.96,-38.7056 1989.95,-73.764 1621.86,-22.0364"/>
<polygon fill="midnightblue" stroke="midnightblue" points="1622.11,-18.5381 1611.72,-20.6001 1621.13,-25.4689 1622.11,-18.5381"/>
</g>
<!-- Node36&#45;&gt;Node29 -->
<g id="edge140" class="edge"><title>Node36&#45;&gt;Node29</title>
<path fill="none" stroke="midnightblue" d="M2583.43,-59.6987C2578.9,-59.0501 2574.37,-58.4688 2570,-58 2207.06,-19.0785 2109.83,-61.9882 1743.59,-22.0457"/>
<polygon fill="midnightblue" stroke="midnightblue" points="1743.83,-18.5511 1733.51,-20.9326 1743.06,-25.5088 1743.83,-18.5511"/>
</g>
<!-- Node36&#45;&gt;Node30 -->
<g id="edge138" class="edge"><title>Node36&#45;&gt;Node30</title>
<path fill="none" stroke="midnightblue" d="M2684.65,-68.0633C2853.02,-64.7109 3393.82,-51.9649 3588.58,-21.8464"/>
<polygon fill="midnightblue" stroke="midnightblue" points="3589.38,-25.2621 3598.7,-20.213 3588.27,-18.3516 3589.38,-25.2621"/>
</g>
<!-- Node36&#45;&gt;Node31 -->
<g id="edge130" class="edge"><title>Node36&#45;&gt;Node31</title>
<path fill="none" stroke="midnightblue" d="M2684.57,-67.4095C2841.32,-62.299 3318.57,-45.3393 3494.72,-21.9175"/>
<polygon fill="midnightblue" stroke="midnightblue" points="3495.46,-25.3488 3504.89,-20.5101 3494.5,-18.4149 3495.46,-25.3488"/>
</g>
<!-- Node36&#45;&gt;Node33 -->
<g id="edge104" class="edge"><title>Node36&#45;&gt;Node33</title>
<path fill="none" stroke="midnightblue" d="M2684.6,-66.6078C2808.8,-60.5109 3127.08,-43.4651 3252.53,-21.8738"/>
<polygon fill="midnightblue" stroke="midnightblue" points="3253.42,-25.2683 3262.64,-20.0422 3252.18,-18.3803 3253.42,-25.2683"/>
</g>
<!-- Node36&#45;&gt;Node34 -->
<g id="edge108" class="edge"><title>Node36&#45;&gt;Node34</title>
<path fill="none" stroke="midnightblue" d="M2684.93,-67.3435C2819.81,-62.6764 3184.95,-48.1523 3324.79,-21.6841"/>
<polygon fill="midnightblue" stroke="midnightblue" points="3325.74,-25.0644 3334.86,-19.6745 3324.37,-18.1998 3325.74,-25.0644"/>
</g>
<!-- Node36&#45;&gt;Node35 -->
<g id="edge136" class="edge"><title>Node36&#45;&gt;Node35</title>
<path fill="none" stroke="midnightblue" d="M2684.53,-68.2663C2804.68,-66.0033 3116.96,-57.0739 3386.44,-22.0598"/>
<polygon fill="midnightblue" stroke="midnightblue" points="3386.95,-25.5227 3396.41,-20.7497 3386.04,-18.5823 3386.95,-25.5227"/>
</g>
<!-- Node37 -->
<g id="node88" class="node"><title>Node37</title>
<polygon fill="white" stroke="#bfbfbf" points="3201,-0.5 3201,-21.5 3245,-21.5 3245,-0.5 3201,-0.5"/>
<text text-anchor="middle" x="3223" y="-8.5" font-family="Helvetica,sans-Serif" font-size="10.00">cmath</text>
</g>
<!-- Node36&#45;&gt;Node37 -->
<g id="edge102" class="edge"><title>Node36&#45;&gt;Node37</title>
<path fill="none" stroke="midnightblue" d="M2684.76,-66.3965C2799.77,-60.235 3078.35,-43.7727 3190.81,-21.712"/>
<polygon fill="midnightblue" stroke="midnightblue" points="3191.77,-25.0882 3200.85,-19.6297 3190.34,-18.2341 3191.77,-25.0882"/>
</g>
<!-- Node38 -->
<g id="node93" class="node"><title>Node38</title>
<polygon fill="white" stroke="#bfbfbf" points="1751,-0.5 1751,-21.5 1803,-21.5 1803,-0.5 1751,-0.5"/>
<text text-anchor="middle" x="1777" y="-8.5" font-family="Helvetica,sans-Serif" font-size="10.00">sstream</text>
</g>
<!-- Node36&#45;&gt;Node38 -->
<g id="edge110" class="edge"><title>Node36&#45;&gt;Node38</title>
<path fill="none" stroke="midnightblue" d="M2583.43,-59.7176C2578.9,-59.065 2574.37,-58.4776 2570,-58 2238,-21.7236 2145.85,-79.8916 1813.11,-21.78"/>
<polygon fill="midnightblue" stroke="midnightblue" points="1813.65,-18.3215 1803.19,-20.0266 1812.43,-25.2146 1813.65,-18.3215"/>
</g>
<!-- Node39 -->
<g id="node95" class="node"><title>Node39</title>
<polygon fill="white" stroke="#bfbfbf" points="1820.5,-0.5 1820.5,-21.5 1935.5,-21.5 1935.5,-0.5 1820.5,-0.5"/>
<text text-anchor="middle" x="1878" y="-8.5" font-family="Helvetica,sans-Serif" font-size="10.00">yarp/os/BufferedPort.h</text>
</g>
<!-- Node36&#45;&gt;Node39 -->
<g id="edge112" class="edge"><title>Node36&#45;&gt;Node39</title>
<path fill="none" stroke="midnightblue" d="M2583.42,-59.7646C2578.89,-59.1019 2574.37,-58.4994 2570,-58 2296.37,-26.7175 2222.68,-52.3368 1945.49,-22.0658"/>
<polygon fill="midnightblue" stroke="midnightblue" points="1945.87,-18.5862 1935.54,-20.9652 1945.1,-25.5438 1945.87,-18.5862"/>
</g>
<!-- Node40 -->
<g id="node97" class="node"><title>Node40</title>
<polygon fill="white" stroke="#bfbfbf" points="1953,-0.5 1953,-21.5 2039,-21.5 2039,-0.5 1953,-0.5"/>
<text text-anchor="middle" x="1996" y="-8.5" font-family="Helvetica,sans-Serif" font-size="10.00">yarp/os/Bottle.h</text>
</g>
<!-- Node36&#45;&gt;Node40 -->
<g id="edge114" class="edge"><title>Node36&#45;&gt;Node40</title>
<path fill="none" stroke="midnightblue" d="M2583.41,-59.8183C2578.89,-59.1442 2574.37,-58.5243 2570,-58 2342.38,-30.661 2280.07,-53.4767 2049.11,-21.981"/>
<polygon fill="midnightblue" stroke="midnightblue" points="2049.43,-18.493 2039.05,-20.5899 2048.47,-25.427 2049.43,-18.493"/>
</g>
<!-- Node41 -->
<g id="node99" class="node"><title>Node41</title>
<polygon fill="white" stroke="#bfbfbf" points="2056.5,-0.5 2056.5,-21.5 2167.5,-21.5 2167.5,-0.5 2056.5,-0.5"/>
<text text-anchor="middle" x="2112" y="-8.5" font-family="Helvetica,sans-Serif" font-size="10.00">yarp/os/RateThread.h</text>
</g>
<!-- Node36&#45;&gt;Node41 -->
<g id="edge116" class="edge"><title>Node36&#45;&gt;Node41</title>
<path fill="none" stroke="midnightblue" d="M2583.4,-59.923C2578.88,-59.2265 2574.36,-58.5729 2570,-58 2398.89,-35.5143 2352.07,-44.5576 2177.83,-22.1637"/>
<polygon fill="midnightblue" stroke="midnightblue" points="2178.18,-18.6795 2167.81,-20.8595 2177.27,-25.621 2178.18,-18.6795"/>
</g>
<!-- Node42 -->
<g id="node101" class="node"><title>Node42</title>
<polygon fill="white" stroke="#bfbfbf" points="2184.5,-0.5 2184.5,-21.5 2313.5,-21.5 2313.5,-0.5 2184.5,-0.5"/>
<text text-anchor="middle" x="2249" y="-8.5" font-family="Helvetica,sans-Serif" font-size="10.00">yarp/os/ResourceFinder.h</text>
</g>
<!-- Node36&#45;&gt;Node42 -->
<g id="edge118" class="edge"><title>Node36&#45;&gt;Node42</title>
<path fill="none" stroke="midnightblue" d="M2583.36,-60.1717C2578.85,-59.4221 2574.34,-58.6883 2570,-58 2463.22,-41.0761 2433.88,-38.4437 2324.05,-22.2944"/>
<polygon fill="midnightblue" stroke="midnightblue" points="2324.28,-18.7912 2313.88,-20.7944 2323.26,-25.7163 2324.28,-18.7912"/>
</g>
<!-- Node43 -->
<g id="node103" class="node"><title>Node43</title>
<polygon fill="white" stroke="#bfbfbf" points="2331,-0.5 2331,-21.5 2441,-21.5 2441,-0.5 2331,-0.5"/>
<text text-anchor="middle" x="2386" y="-8.5" font-family="Helvetica,sans-Serif" font-size="10.00">yarp/os/PortReader.h</text>
</g>
<!-- Node36&#45;&gt;Node43 -->
<g id="edge120" class="edge"><title>Node36&#45;&gt;Node43</title>
<path fill="none" stroke="midnightblue" d="M2589.09,-58.4966C2547.43,-48.7545 2485.34,-34.2328 2440.79,-23.813"/>
<polygon fill="midnightblue" stroke="midnightblue" points="2441.53,-20.3924 2431,-21.5231 2439.94,-27.2084 2441.53,-20.3924"/>
</g>
<!-- Node44 -->
<g id="node105" class="node"><title>Node44</title>
<polygon fill="white" stroke="#bfbfbf" points="2459,-0.5 2459,-21.5 2563,-21.5 2563,-0.5 2459,-0.5"/>
<text text-anchor="middle" x="2511" y="-8.5" font-family="Helvetica,sans-Serif" font-size="10.00">yarp/os/RpcClient.h</text>
</g>
<!-- Node36&#45;&gt;Node44 -->
<g id="edge122" class="edge"><title>Node36&#45;&gt;Node44</title>
<path fill="none" stroke="midnightblue" d="M2611.73,-58.4966C2592.43,-49.397 2564.29,-36.1273 2542.65,-25.9253"/>
<polygon fill="midnightblue" stroke="midnightblue" points="2544.06,-22.7206 2533.52,-21.6212 2541.08,-29.052 2544.06,-22.7206"/>
</g>
<!-- Node45 -->
<g id="node107" class="node"><title>Node45</title>
<polygon fill="white" stroke="#bfbfbf" points="2580.5,-0.5 2580.5,-21.5 2687.5,-21.5 2687.5,-0.5 2580.5,-0.5"/>
<text text-anchor="middle" x="2634" y="-8.5" font-family="Helvetica,sans-Serif" font-size="10.00">yarp/os/RpcServer.h</text>
</g>
<!-- Node36&#45;&gt;Node45 -->
<g id="edge124" class="edge"><title>Node36&#45;&gt;Node45</title>
<path fill="none" stroke="midnightblue" d="M2634,-58.3619C2634,-50.9219 2634,-40.7427 2634,-31.7276"/>
<polygon fill="midnightblue" stroke="midnightblue" points="2637.5,-31.5706 2634,-21.5707 2630.5,-31.5707 2637.5,-31.5706"/>
</g>
<!-- Node46 -->
<g id="node109" class="node"><title>Node46</title>
<polygon fill="white" stroke="#bfbfbf" points="2704.5,-0.5 2704.5,-21.5 2845.5,-21.5 2845.5,-0.5 2704.5,-0.5"/>
<text text-anchor="middle" x="2775" y="-8.5" font-family="Helvetica,sans-Serif" font-size="10.00">yarp/os/ConnectionReader.h</text>
</g>
<!-- Node36&#45;&gt;Node46 -->
<g id="edge126" class="edge"><title>Node36&#45;&gt;Node46</title>
<path fill="none" stroke="midnightblue" d="M2659.53,-58.4966C2681.95,-49.2746 2714.78,-35.7695 2739.71,-25.5153"/>
<polygon fill="midnightblue" stroke="midnightblue" points="2741.26,-28.6623 2749.18,-21.6212 2738.6,-22.1886 2741.26,-28.6623"/>
</g>
<!-- Node47 -->
<g id="node111" class="node"><title>Node47</title>
<polygon fill="white" stroke="#bfbfbf" points="2863,-0.5 2863,-21.5 2945,-21.5 2945,-0.5 2863,-0.5"/>
<text text-anchor="middle" x="2904" y="-8.5" font-family="Helvetica,sans-Serif" font-size="10.00">yarp/os/Time.h</text>
</g>
<!-- Node36&#45;&gt;Node47 -->
<g id="edge128" class="edge"><title>Node36&#45;&gt;Node47</title>
<path fill="none" stroke="midnightblue" d="M2683.82,-58.4464C2726.25,-49.4393 2789.09,-36.0483 2852.96,-22.217"/>
<polygon fill="midnightblue" stroke="midnightblue" points="2853.77,-25.6229 2862.8,-20.084 2852.29,-18.7817 2853.77,-25.6229"/>
</g>
<!-- Node48 -->
<g id="node114" class="node"><title>Node48</title>
<polygon fill="white" stroke="#bfbfbf" points="2962.5,-0.5 2962.5,-21.5 3069.5,-21.5 3069.5,-0.5 2962.5,-0.5"/>
<text text-anchor="middle" x="3016" y="-8.5" font-family="Helvetica,sans-Serif" font-size="10.00">yarp/os/LogStream.h</text>
</g>
<!-- Node36&#45;&gt;Node48 -->
<g id="edge132" class="edge"><title>Node36&#45;&gt;Node48</title>
<path fill="none" stroke="midnightblue" d="M2684.51,-62.0552C2745.6,-53.5497 2851.82,-38.4247 2952.24,-22.256"/>
<polygon fill="midnightblue" stroke="midnightblue" points="2952.93,-25.6888 2962.25,-20.6375 2951.82,-18.7785 2952.93,-25.6888"/>
</g>
<!-- Node49 -->
<g id="node116" class="node"><title>Node49</title>
<polygon fill="white" stroke="#bfbfbf" points="3086.5,-0.5 3086.5,-21.5 3183.5,-21.5 3183.5,-0.5 3086.5,-0.5"/>
<text text-anchor="middle" x="3135" y="-8.5" font-family="Helvetica,sans-Serif" font-size="10.00">yarp/os/Property.h</text>
</g>
<!-- Node36&#45;&gt;Node49 -->
<g id="edge134" class="edge"><title>Node36&#45;&gt;Node49</title>
<path fill="none" stroke="midnightblue" d="M2684.78,-65.0409C2765.6,-58.4302 2928.63,-43.8284 3076.09,-22.1973"/>
<polygon fill="midnightblue" stroke="midnightblue" points="3076.85,-25.6231 3086.23,-20.6951 3075.82,-18.6987 3076.85,-25.6231"/>
</g>
</g>
</svg>
