<?xml version="1.0" encoding="UTF-8" standalone="no"?>
<!DOCTYPE svg PUBLIC "-//W3C//DTD SVG 1.1//EN"
 "http://www.w3.org/Graphics/SVG/1.1/DTD/svg11.dtd">
<!-- Generated by graphviz version 2.26.3 (20100126.1600)
 -->
<!-- Title: G Pages: 1 -->
<svg width="3127pt" height="494pt"
 viewBox="0.00 0.00 3127.00 494.00" xmlns="http://www.w3.org/2000/svg" xmlns:xlink="http://www.w3.org/1999/xlink">
<g id="graph1" class="graph" transform="scale(1 1) rotate(0) translate(4 490)">
<title>G</title>
<polygon fill="white" stroke="white" points="-4,5 -4,-490 3124,-490 3124,5 -4,5"/>
<!-- Node1 -->
<g id="node1" class="node"><title>Node1</title>
<polygon fill="#bfbfbf" stroke="black" points="1465,-464.5 1465,-485.5 1829,-485.5 1829,-464.5 1465,-464.5"/>
<text text-anchor="middle" x="1647" y="-472.5" font-family="Helvetica,sans-Serif" font-size="10.00">ocra&#45;wbi&#45;plugins/ocra&#45;icub&#45;clients/walking&#45;client/src/MIQPLinearConstraints.cpp</text>
</g>
<!-- Node2 -->
<g id="node3" class="node"><title>Node2</title>
<a xlink:href="MIQPLinearConstraints_8h.html" target="_top" xlink:title="walking&#45;client/constraints/MIQPLinearConstraints.h">
<polygon fill="white" stroke="black" points="1527,-406.5 1527,-427.5 1767,-427.5 1767,-406.5 1527,-406.5"/>
<text text-anchor="middle" x="1647" y="-414.5" font-family="Helvetica,sans-Serif" font-size="10.00">walking&#45;client/constraints/MIQPLinearConstraints.h</text>
</a>
</g>
<!-- Node1&#45;&gt;Node2 -->
<g id="edge2" class="edge"><title>Node1&#45;&gt;Node2</title>
<path fill="none" stroke="midnightblue" d="M1647,-464.362C1647,-456.922 1647,-446.743 1647,-437.728"/>
<polygon fill="midnightblue" stroke="midnightblue" points="1650.5,-437.571 1647,-427.571 1643.5,-437.571 1650.5,-437.571"/>
</g>
<!-- Node3 -->
<g id="node5" class="node"><title>Node3</title>
<a xlink:href="ShapeConstraints_8h.html" target="_top" xlink:title="walking&#45;client/constraints/ShapeConstraints.h">
<polygon fill="white" stroke="black" points="1672,-348.5 1672,-369.5 1888,-369.5 1888,-348.5 1672,-348.5"/>
<text text-anchor="middle" x="1780" y="-356.5" font-family="Helvetica,sans-Serif" font-size="10.00">walking&#45;client/constraints/ShapeConstraints.h</text>
</a>
</g>
<!-- Node2&#45;&gt;Node3 -->
<g id="edge4" class="edge"><title>Node2&#45;&gt;Node3</title>
<path fill="none" stroke="midnightblue" d="M1671.09,-406.497C1692.14,-397.315 1722.93,-383.889 1746.4,-373.652"/>
<polygon fill="midnightblue" stroke="midnightblue" points="1747.88,-376.827 1755.64,-369.621 1745.08,-370.41 1747.88,-376.827"/>
</g>
<!-- Node13 -->
<g id="node28" class="node"><title>Node13</title>
<a xlink:href="AdmissibilityConstraints_8h.html" target="_top" xlink:title="walking&#45;client/constraints/AdmissibilityConstraints.h">
<polygon fill="white" stroke="black" points="2470,-348.5 2470,-369.5 2714,-369.5 2714,-348.5 2470,-348.5"/>
<text text-anchor="middle" x="2592" y="-356.5" font-family="Helvetica,sans-Serif" font-size="10.00">walking&#45;client/constraints/AdmissibilityConstraints.h</text>
</a>
</g>
<!-- Node2&#45;&gt;Node13 -->
<g id="edge30" class="edge"><title>Node2&#45;&gt;Node13</title>
<path fill="none" stroke="midnightblue" d="M1767.16,-409.625C1944.6,-398.734 2275.51,-378.425 2459.68,-367.121"/>
<polygon fill="midnightblue" stroke="midnightblue" points="2459.92,-370.613 2469.69,-366.507 2459.5,-363.626 2459.92,-370.613"/>
</g>
<!-- Node18 -->
<g id="node43" class="node"><title>Node18</title>
<a xlink:href="StepController_8h.html" target="_top" xlink:title="walking&#45;client/StepController.h">
<polygon fill="white" stroke="black" points="889.5,-232.5 889.5,-253.5 1038.5,-253.5 1038.5,-232.5 889.5,-232.5"/>
<text text-anchor="middle" x="964" y="-240.5" font-family="Helvetica,sans-Serif" font-size="10.00">walking&#45;client/StepController.h</text>
</a>
</g>
<!-- Node2&#45;&gt;Node18 -->
<g id="edge50" class="edge"><title>Node2&#45;&gt;Node18</title>
<path fill="none" stroke="midnightblue" d="M1605.56,-406.442C1486.83,-376.195 1145.62,-289.269 1015.37,-256.087"/>
<polygon fill="midnightblue" stroke="midnightblue" points="1016.18,-252.682 1005.63,-253.605 1014.46,-259.466 1016.18,-252.682"/>
</g>
<!-- Node20 -->
<g id="node48" class="node"><title>Node20</title>
<a xlink:href="BaseOfSupport_8h.html" target="_top" xlink:title="walking&#45;client/BaseOfSupport.h">
<polygon fill="white" stroke="black" points="1309,-290.5 1309,-311.5 1463,-311.5 1463,-290.5 1309,-290.5"/>
<text text-anchor="middle" x="1386" y="-298.5" font-family="Helvetica,sans-Serif" font-size="10.00">walking&#45;client/BaseOfSupport.h</text>
</a>
</g>
<!-- Node2&#45;&gt;Node20 -->
<g id="edge56" class="edge"><title>Node2&#45;&gt;Node20</title>
<path fill="none" stroke="midnightblue" d="M1622.91,-406.295C1575.99,-385.438 1472.26,-339.336 1418.99,-315.66"/>
<polygon fill="midnightblue" stroke="midnightblue" points="1420.21,-312.375 1409.65,-311.512 1417.37,-318.771 1420.21,-312.375"/>
</g>
<!-- Node4 -->
<g id="node7" class="node"><title>Node4</title>
<a xlink:href="Constraint_8h.html" target="_top" xlink:title="A constraint base class.">
<polygon fill="white" stroke="black" points="2096.5,-232.5 2096.5,-253.5 2279.5,-253.5 2279.5,-232.5 2096.5,-232.5"/>
<text text-anchor="middle" x="2188" y="-240.5" font-family="Helvetica,sans-Serif" font-size="10.00">walking&#45;client/constraints/Constraint.h</text>
</a>
</g>
<!-- Node3&#45;&gt;Node4 -->
<g id="edge6" class="edge"><title>Node3&#45;&gt;Node4</title>
<path fill="none" stroke="midnightblue" d="M1806.07,-348.366C1827.75,-339.301 1859.27,-325.613 1886,-312 1903.39,-303.143 1905.67,-296.701 1924,-290 1975.85,-271.045 2036.31,-259.566 2086.28,-252.704"/>
<polygon fill="midnightblue" stroke="midnightblue" points="2087,-256.139 2096.45,-251.351 2086.07,-249.2 2087,-256.139"/>
</g>
<!-- Node10 -->
<g id="node19" class="node"><title>Node10</title>
<a xlink:href="Bounding_8h.html" target="_top" xlink:title="walking&#45;client/constraints/Bounding.h">
<polygon fill="white" stroke="black" points="1932.5,-290.5 1932.5,-311.5 2111.5,-311.5 2111.5,-290.5 1932.5,-290.5"/>
<text text-anchor="middle" x="2022" y="-298.5" font-family="Helvetica,sans-Serif" font-size="10.00">walking&#45;client/constraints/Bounding.h</text>
</a>
</g>
<!-- Node3&#45;&gt;Node10 -->
<g id="edge18" class="edge"><title>Node3&#45;&gt;Node10</title>
<path fill="none" stroke="midnightblue" d="M1823.82,-348.497C1864.39,-338.775 1924.81,-324.294 1968.26,-313.879"/>
<polygon fill="midnightblue" stroke="midnightblue" points="1969.18,-317.257 1978.09,-311.523 1967.55,-310.45 1969.18,-317.257"/>
</g>
<!-- Node11 -->
<g id="node22" class="node"><title>Node11</title>
<a xlink:href="Constancy_8h.html" target="_top" xlink:title="walking&#45;client/constraints/Constancy.h">
<polygon fill="white" stroke="black" points="1480.5,-290.5 1480.5,-311.5 1665.5,-311.5 1665.5,-290.5 1480.5,-290.5"/>
<text text-anchor="middle" x="1573" y="-298.5" font-family="Helvetica,sans-Serif" font-size="10.00">walking&#45;client/constraints/Constancy.h</text>
</a>
</g>
<!-- Node3&#45;&gt;Node11 -->
<g id="edge22" class="edge"><title>Node3&#45;&gt;Node11</title>
<path fill="none" stroke="midnightblue" d="M1742.51,-348.497C1708.33,-338.918 1657.65,-324.72 1620.62,-314.342"/>
<polygon fill="midnightblue" stroke="midnightblue" points="1621.13,-310.851 1610.56,-311.523 1619.24,-317.591 1621.13,-310.851"/>
</g>
<!-- Node12 -->
<g id="node25" class="node"><title>Node12</title>
<a xlink:href="Sequentiality_8h.html" target="_top" xlink:title="walking&#45;client/constraints/Sequentiality.h">
<polygon fill="white" stroke="black" points="1683,-290.5 1683,-311.5 1877,-311.5 1877,-290.5 1683,-290.5"/>
<text text-anchor="middle" x="1780" y="-298.5" font-family="Helvetica,sans-Serif" font-size="10.00">walking&#45;client/constraints/Sequentiality.h</text>
</a>
</g>
<!-- Node3&#45;&gt;Node12 -->
<g id="edge26" class="edge"><title>Node3&#45;&gt;Node12</title>
<path fill="none" stroke="midnightblue" d="M1780,-348.362C1780,-340.922 1780,-330.743 1780,-321.728"/>
<polygon fill="midnightblue" stroke="midnightblue" points="1783.5,-321.571 1780,-311.571 1776.5,-321.571 1783.5,-321.571"/>
</g>
<!-- Node5 -->
<g id="node9" class="node"><title>Node5</title>
<a xlink:href="utils_8h.html" target="_top" xlink:title="walking&#45;client/utils.h">
<polygon fill="white" stroke="black" points="1244.5,-174.5 1244.5,-195.5 1349.5,-195.5 1349.5,-174.5 1244.5,-174.5"/>
<text text-anchor="middle" x="1297" y="-182.5" font-family="Helvetica,sans-Serif" font-size="10.00">walking&#45;client/utils.h</text>
</a>
</g>
<!-- Node4&#45;&gt;Node5 -->
<g id="edge8" class="edge"><title>Node4&#45;&gt;Node5</title>
<path fill="none" stroke="midnightblue" d="M2096.42,-237.039C1915.18,-225.241 1514.93,-199.186 1359.99,-189.1"/>
<polygon fill="midnightblue" stroke="midnightblue" points="1359.91,-185.588 1349.7,-188.43 1359.45,-192.573 1359.91,-185.588"/>
</g>
<!-- Node6 -->
<g id="node11" class="node"><title>Node6</title>
<polygon fill="white" stroke="#bfbfbf" points="2123.5,-174.5 2123.5,-195.5 2188.5,-195.5 2188.5,-174.5 2123.5,-174.5"/>
<text text-anchor="middle" x="2156" y="-182.5" font-family="Helvetica,sans-Serif" font-size="10.00">Eigen/Core</text>
</g>
<!-- Node4&#45;&gt;Node6 -->
<g id="edge10" class="edge"><title>Node4&#45;&gt;Node6</title>
<path fill="none" stroke="midnightblue" d="M2182.13,-232.362C2177.85,-224.595 2171.91,-213.843 2166.78,-204.546"/>
<polygon fill="midnightblue" stroke="midnightblue" points="2169.73,-202.636 2161.83,-195.571 2163.6,-206.017 2169.73,-202.636"/>
</g>
<!-- Node7 -->
<g id="node13" class="node"><title>Node7</title>
<polygon fill="white" stroke="#bfbfbf" points="2247,-174.5 2247,-195.5 2417,-195.5 2417,-174.5 2247,-174.5"/>
<text text-anchor="middle" x="2332" y="-182.5" font-family="Helvetica,sans-Serif" font-size="10.00">unsupported/Eigen/MatrixFunctions</text>
</g>
<!-- Node4&#45;&gt;Node7 -->
<g id="edge12" class="edge"><title>Node4&#45;&gt;Node7</title>
<path fill="none" stroke="midnightblue" d="M2214.08,-232.497C2237.07,-223.234 2270.8,-209.65 2296.3,-199.379"/>
<polygon fill="midnightblue" stroke="midnightblue" points="2297.66,-202.604 2305.63,-195.621 2295.05,-196.111 2297.66,-202.604"/>
</g>
<!-- Node8 -->
<g id="node15" class="node"><title>Node8</title>
<polygon fill="white" stroke="#bfbfbf" points="1983.5,-174.5 1983.5,-195.5 2100.5,-195.5 2100.5,-174.5 1983.5,-174.5"/>
<text text-anchor="middle" x="2042" y="-182.5" font-family="Helvetica,sans-Serif" font-size="10.00">ocra/util/ErrorsHelper.h</text>
</g>
<!-- Node4&#45;&gt;Node8 -->
<g id="edge14" class="edge"><title>Node4&#45;&gt;Node8</title>
<path fill="none" stroke="midnightblue" d="M2161.56,-232.497C2138.24,-223.234 2104.05,-209.65 2078.2,-199.379"/>
<polygon fill="midnightblue" stroke="midnightblue" points="2079.32,-196.06 2068.74,-195.621 2076.74,-202.566 2079.32,-196.06"/>
</g>
<!-- Node9 -->
<g id="node17" class="node"><title>Node9</title>
<polygon fill="white" stroke="#bfbfbf" points="2300,-0.5 2300,-21.5 2352,-21.5 2352,-0.5 2300,-0.5"/>
<text text-anchor="middle" x="2326" y="-8.5" font-family="Helvetica,sans-Serif" font-size="10.00">memory</text>
</g>
<!-- Node4&#45;&gt;Node9 -->
<g id="edge16" class="edge"><title>Node4&#45;&gt;Node9</title>
<path fill="none" stroke="midnightblue" d="M2194.29,-232.429C2215.8,-196.271 2286.63,-77.1858 2314.55,-30.2551"/>
<polygon fill="midnightblue" stroke="midnightblue" points="2317.57,-32.0173 2319.67,-21.6335 2311.55,-28.4387 2317.57,-32.0173"/>
</g>
<!-- Node10&#45;&gt;Node4 -->
<g id="edge20" class="edge"><title>Node10&#45;&gt;Node4</title>
<path fill="none" stroke="midnightblue" d="M2052.06,-290.497C2079.01,-281.082 2118.73,-267.204 2148.28,-256.877"/>
<polygon fill="midnightblue" stroke="midnightblue" points="2149.6,-260.126 2157.88,-253.523 2147.29,-253.517 2149.6,-260.126"/>
</g>
<!-- Node11&#45;&gt;Node4 -->
<g id="edge24" class="edge"><title>Node11&#45;&gt;Node4</title>
<path fill="none" stroke="midnightblue" d="M1665.73,-290.838C1668.52,-290.552 1671.28,-290.272 1674,-290 1817.02,-275.674 1982.62,-260.848 2086.35,-251.773"/>
<polygon fill="midnightblue" stroke="midnightblue" points="2086.84,-255.243 2096.5,-250.886 2086.23,-248.27 2086.84,-255.243"/>
</g>
<!-- Node12&#45;&gt;Node4 -->
<g id="edge28" class="edge"><title>Node12&#45;&gt;Node4</title>
<path fill="none" stroke="midnightblue" d="M1853.89,-290.497C1924.29,-280.488 2030.17,-265.436 2103.81,-254.969"/>
<polygon fill="midnightblue" stroke="midnightblue" points="2104.57,-258.396 2113.98,-253.523 2103.58,-251.465 2104.57,-258.396"/>
</g>
<!-- Node13&#45;&gt;Node4 -->
<g id="edge32" class="edge"><title>Node13&#45;&gt;Node4</title>
<path fill="none" stroke="midnightblue" d="M2714.33,-352.579C2775.64,-346.53 2840.86,-334.789 2860,-312 2866.29,-304.513 2866.67,-297.151 2860,-290 2840.87,-269.486 2472.92,-253.32 2289.78,-246.508"/>
<polygon fill="midnightblue" stroke="midnightblue" points="2289.71,-243.004 2279.59,-246.132 2289.45,-249.999 2289.71,-243.004"/>
</g>
<!-- Node14 -->
<g id="node31" class="node"><title>Node14</title>
<a xlink:href="SSDSAlternation_8h.html" target="_top" xlink:title="walking&#45;client/constraints/SSDSAlternation.h">
<polygon fill="white" stroke="black" points="2907,-290.5 2907,-311.5 3119,-311.5 3119,-290.5 2907,-290.5"/>
<text text-anchor="middle" x="3013" y="-298.5" font-family="Helvetica,sans-Serif" font-size="10.00">walking&#45;client/constraints/SSDSAlternation.h</text>
</a>
</g>
<!-- Node13&#45;&gt;Node14 -->
<g id="edge34" class="edge"><title>Node13&#45;&gt;Node14</title>
<path fill="none" stroke="midnightblue" d="M2668.24,-348.497C2741.03,-338.468 2850.59,-323.374 2926.59,-312.904"/>
<polygon fill="midnightblue" stroke="midnightblue" points="2927.19,-316.355 2936.62,-311.523 2926.23,-309.421 2927.19,-316.355"/>
</g>
<!-- Node15 -->
<g id="node34" class="node"><title>Node15</title>
<a xlink:href="SingleSupport_8h.html" target="_top" xlink:title="walking&#45;client/constraints/SingleSupport.h">
<polygon fill="white" stroke="black" points="2128.5,-290.5 2128.5,-311.5 2327.5,-311.5 2327.5,-290.5 2128.5,-290.5"/>
<text text-anchor="middle" x="2228" y="-298.5" font-family="Helvetica,sans-Serif" font-size="10.00">walking&#45;client/constraints/SingleSupport.h</text>
</a>
</g>
<!-- Node13&#45;&gt;Node15 -->
<g id="edge38" class="edge"><title>Node13&#45;&gt;Node15</title>
<path fill="none" stroke="midnightblue" d="M2526.08,-348.497C2463.53,-338.529 2369.58,-323.559 2303.92,-313.097"/>
<polygon fill="midnightblue" stroke="midnightblue" points="2304.47,-309.64 2294.04,-311.523 2303.37,-316.553 2304.47,-309.64"/>
</g>
<!-- Node16 -->
<g id="node37" class="node"><title>Node16</title>
<a xlink:href="ContactConfigHistory_8h.html" target="_top" xlink:title="walking&#45;client/constraints/ContactConfigHistory.h">
<polygon fill="white" stroke="black" points="2344.5,-290.5 2344.5,-311.5 2577.5,-311.5 2577.5,-290.5 2344.5,-290.5"/>
<text text-anchor="middle" x="2461" y="-298.5" font-family="Helvetica,sans-Serif" font-size="10.00">walking&#45;client/constraints/ContactConfigHistory.h</text>
</a>
</g>
<!-- Node13&#45;&gt;Node16 -->
<g id="edge42" class="edge"><title>Node13&#45;&gt;Node16</title>
<path fill="none" stroke="midnightblue" d="M2568.28,-348.497C2547.63,-339.356 2517.48,-326.008 2494.4,-315.788"/>
<polygon fill="midnightblue" stroke="midnightblue" points="2495.55,-312.469 2484.99,-311.621 2492.72,-318.87 2495.55,-312.469"/>
</g>
<!-- Node17 -->
<g id="node40" class="node"><title>Node17</title>
<a xlink:href="ContactConfigEnforcement_8h.html" target="_top" xlink:title="walking&#45;client/constraints/ContactConfigEnforcement.h">
<polygon fill="white" stroke="black" points="2594.5,-290.5 2594.5,-311.5 2851.5,-311.5 2851.5,-290.5 2594.5,-290.5"/>
<text text-anchor="middle" x="2723" y="-298.5" font-family="Helvetica,sans-Serif" font-size="10.00">walking&#45;client/constraints/ContactConfigEnforcement.h</text>
</a>
</g>
<!-- Node13&#45;&gt;Node17 -->
<g id="edge46" class="edge"><title>Node13&#45;&gt;Node17</title>
<path fill="none" stroke="midnightblue" d="M2615.72,-348.497C2636.37,-339.356 2666.52,-326.008 2689.6,-315.788"/>
<polygon fill="midnightblue" stroke="midnightblue" points="2691.28,-318.87 2699.01,-311.621 2688.45,-312.469 2691.28,-318.87"/>
</g>
<!-- Node14&#45;&gt;Node4 -->
<g id="edge36" class="edge"><title>Node14&#45;&gt;Node4</title>
<path fill="none" stroke="midnightblue" d="M2906.68,-291.113C2902.06,-290.728 2897.48,-290.355 2893,-290 2678.41,-273.014 2426.75,-257.231 2289.67,-248.983"/>
<polygon fill="midnightblue" stroke="midnightblue" points="2289.79,-245.483 2279.59,-248.378 2289.37,-252.471 2289.79,-245.483"/>
</g>
<!-- Node15&#45;&gt;Node4 -->
<g id="edge40" class="edge"><title>Node15&#45;&gt;Node4</title>
<path fill="none" stroke="midnightblue" d="M2220.66,-290.362C2215.19,-282.431 2207.58,-271.389 2201.08,-261.961"/>
<polygon fill="midnightblue" stroke="midnightblue" points="2203.85,-259.816 2195.29,-253.571 2198.09,-263.79 2203.85,-259.816"/>
</g>
<!-- Node16&#45;&gt;Node4 -->
<g id="edge44" class="edge"><title>Node16&#45;&gt;Node4</title>
<path fill="none" stroke="midnightblue" d="M2411.56,-290.497C2365.42,-280.693 2296.49,-266.05 2247.38,-255.616"/>
<polygon fill="midnightblue" stroke="midnightblue" points="2248.04,-252.178 2237.53,-253.523 2246.59,-259.025 2248.04,-252.178"/>
</g>
<!-- Node17&#45;&gt;Node4 -->
<g id="edge48" class="edge"><title>Node17&#45;&gt;Node4</title>
<path fill="none" stroke="midnightblue" d="M2626.12,-290.497C2531.02,-280.187 2386.54,-264.524 2289.79,-254.035"/>
<polygon fill="midnightblue" stroke="midnightblue" points="2290.02,-250.539 2279.7,-252.941 2289.26,-257.498 2290.02,-250.539"/>
</g>
<!-- Node18&#45;&gt;Node5 -->
<g id="edge54" class="edge"><title>Node18&#45;&gt;Node5</title>
<path fill="none" stroke="midnightblue" d="M1024.3,-232.497C1083.66,-222.159 1173.91,-206.439 1234.14,-195.949"/>
<polygon fill="midnightblue" stroke="midnightblue" points="1235.02,-199.348 1244.27,-194.184 1233.82,-192.451 1235.02,-199.348"/>
</g>
<!-- Node19 -->
<g id="node45" class="node"><title>Node19</title>
<polygon fill="white" stroke="#bfbfbf" points="886.5,-174.5 886.5,-195.5 1041.5,-195.5 1041.5,-174.5 886.5,-174.5"/>
<text text-anchor="middle" x="964" y="-182.5" font-family="Helvetica,sans-Serif" font-size="10.00">ocra&#45;recipes/TrajectoryThread.h</text>
</g>
<!-- Node18&#45;&gt;Node19 -->
<g id="edge52" class="edge"><title>Node18&#45;&gt;Node19</title>
<path fill="none" stroke="midnightblue" d="M964,-232.362C964,-224.922 964,-214.743 964,-205.728"/>
<polygon fill="midnightblue" stroke="midnightblue" points="967.5,-205.571 964,-195.571 960.5,-205.571 967.5,-205.571"/>
</g>
<!-- Node20&#45;&gt;Node6 -->
<g id="edge64" class="edge"><title>Node20&#45;&gt;Node6</title>
<path fill="none" stroke="midnightblue" d="M1463.34,-290.996C1466.26,-290.654 1469.16,-290.32 1472,-290 1635.74,-271.545 1684.13,-304.428 1841,-254 1859.58,-248.028 1860.6,-238.509 1879,-232 1976.54,-197.492 2007.45,-215.803 2109,-196 2110.47,-195.714 2111.95,-195.415 2113.46,-195.106"/>
<polygon fill="midnightblue" stroke="midnightblue" points="2114.41,-198.479 2123.45,-192.95 2112.94,-191.637 2114.41,-198.479"/>
</g>
<!-- Node20&#45;&gt;Node18 -->
<g id="edge148" class="edge"><title>Node20&#45;&gt;Node18</title>
<path fill="none" stroke="midnightblue" d="M1309.58,-290.497C1236.04,-280.39 1125.08,-265.139 1048.84,-254.661"/>
<polygon fill="midnightblue" stroke="midnightblue" points="1049.17,-251.173 1038.79,-253.279 1048.22,-258.108 1049.17,-251.173"/>
</g>
<!-- Node21 -->
<g id="node50" class="node"><title>Node21</title>
<polygon fill="white" stroke="#bfbfbf" points="1887.5,-232.5 1887.5,-253.5 1990.5,-253.5 1990.5,-232.5 1887.5,-232.5"/>
<text text-anchor="middle" x="1939" y="-240.5" font-family="Helvetica,sans-Serif" font-size="10.00">boost/geometry.hpp</text>
</g>
<!-- Node20&#45;&gt;Node21 -->
<g id="edge58" class="edge"><title>Node20&#45;&gt;Node21</title>
<path fill="none" stroke="midnightblue" d="M1463.34,-290.967C1466.26,-290.633 1469.16,-290.309 1472,-290 1650.33,-270.617 1696.1,-276.983 1874,-254 1875.08,-253.861 1876.17,-253.717 1877.26,-253.568"/>
<polygon fill="midnightblue" stroke="midnightblue" points="1877.85,-257.019 1887.25,-252.133 1876.86,-250.09 1877.85,-257.019"/>
</g>
<!-- Node22 -->
<g id="node52" class="node"><title>Node22</title>
<polygon fill="white" stroke="#bfbfbf" points="1055.5,-232.5 1055.5,-253.5 1246.5,-253.5 1246.5,-232.5 1055.5,-232.5"/>
<text text-anchor="middle" x="1151" y="-240.5" font-family="Helvetica,sans-Serif" font-size="10.00">boost/geometry/geometries/polygon.hpp</text>
</g>
<!-- Node20&#45;&gt;Node22 -->
<g id="edge60" class="edge"><title>Node20&#45;&gt;Node22</title>
<path fill="none" stroke="midnightblue" d="M1343.44,-290.497C1304.14,-280.795 1245.63,-266.355 1203.45,-255.945"/>
<polygon fill="midnightblue" stroke="midnightblue" points="1204.18,-252.521 1193.64,-253.523 1202.51,-259.317 1204.18,-252.521"/>
</g>
<!-- Node23 -->
<g id="node54" class="node"><title>Node23</title>
<polygon fill="white" stroke="#bfbfbf" points="1263.5,-232.5 1263.5,-253.5 1508.5,-253.5 1508.5,-232.5 1263.5,-232.5"/>
<text text-anchor="middle" x="1386" y="-240.5" font-family="Helvetica,sans-Serif" font-size="10.00">boost/geometry/geometries/adapted/boost_tuple.hpp</text>
</g>
<!-- Node20&#45;&gt;Node23 -->
<g id="edge62" class="edge"><title>Node20&#45;&gt;Node23</title>
<path fill="none" stroke="midnightblue" d="M1386,-290.362C1386,-282.922 1386,-272.743 1386,-263.728"/>
<polygon fill="midnightblue" stroke="midnightblue" points="1389.5,-263.571 1386,-253.571 1382.5,-263.571 1389.5,-263.571"/>
</g>
<!-- Node24 -->
<g id="node57" class="node"><title>Node24</title>
<a xlink:href="MIQPState_8h.html" target="_top" xlink:title="walking&#45;client/MIQPState.h">
<polygon fill="white" stroke="black" points="1696,-232.5 1696,-253.5 1832,-253.5 1832,-232.5 1696,-232.5"/>
<text text-anchor="middle" x="1764" y="-240.5" font-family="Helvetica,sans-Serif" font-size="10.00">walking&#45;client/MIQPState.h</text>
</a>
</g>
<!-- Node20&#45;&gt;Node24 -->
<g id="edge66" class="edge"><title>Node20&#45;&gt;Node24</title>
<path fill="none" stroke="midnightblue" d="M1454.45,-290.497C1519.51,-280.514 1617.28,-265.512 1685.48,-255.048"/>
<polygon fill="midnightblue" stroke="midnightblue" points="1686.38,-258.45 1695.74,-253.474 1685.32,-251.531 1686.38,-258.45"/>
</g>
<!-- Node50 -->
<g id="node125" class="node"><title>Node50</title>
<polygon fill="white" stroke="#bfbfbf" points="1526,-232.5 1526,-253.5 1678,-253.5 1678,-232.5 1526,-232.5"/>
<text text-anchor="middle" x="1602" y="-240.5" font-family="Helvetica,sans-Serif" font-size="10.00">ocra&#45;recipes/TaskConnection.h</text>
</g>
<!-- Node20&#45;&gt;Node50 -->
<g id="edge150" class="edge"><title>Node20&#45;&gt;Node50</title>
<path fill="none" stroke="midnightblue" d="M1425.12,-290.497C1460.94,-280.877 1514.12,-266.598 1552.81,-256.209"/>
<polygon fill="midnightblue" stroke="midnightblue" points="1554.06,-259.497 1562.81,-253.523 1552.25,-252.736 1554.06,-259.497"/>
</g>
<!-- Node24&#45;&gt;Node5 -->
<g id="edge144" class="edge"><title>Node24&#45;&gt;Node5</title>
<path fill="none" stroke="midnightblue" d="M1696,-233.168C1692.96,-232.765 1689.95,-232.374 1687,-232 1543.27,-213.753 1506.51,-215.917 1363,-196 1361.91,-195.848 1360.8,-195.693 1359.69,-195.534"/>
<polygon fill="midnightblue" stroke="midnightblue" points="1359.96,-192.035 1349.56,-194.025 1358.93,-198.959 1359.96,-192.035"/>
</g>
<!-- Node24&#45;&gt;Node8 -->
<g id="edge142" class="edge"><title>Node24&#45;&gt;Node8</title>
<path fill="none" stroke="midnightblue" d="M1814.34,-232.497C1861.33,-222.693 1931.52,-208.05 1981.53,-197.616"/>
<polygon fill="midnightblue" stroke="midnightblue" points="1982.49,-200.992 1991.56,-195.523 1981.06,-194.139 1982.49,-200.992"/>
</g>
<!-- Node25 -->
<g id="node59" class="node"><title>Node25</title>
<polygon fill="white" stroke="#bfbfbf" points="-0.5,-0.5 -0.5,-21.5 72.5,-21.5 72.5,-0.5 -0.5,-0.5"/>
<text text-anchor="middle" x="36" y="-8.5" font-family="Helvetica,sans-Serif" font-size="10.00">Eigen/Dense</text>
</g>
<!-- Node24&#45;&gt;Node25 -->
<g id="edge68" class="edge"><title>Node24&#45;&gt;Node25</title>
<path fill="none" stroke="midnightblue" d="M1695.59,-233.002C1692.69,-232.65 1689.82,-232.313 1687,-232 1487.15,-209.771 1435.76,-218.991 1236,-196 981.413,-166.699 351.913,-74.5808 82.9712,-22.2741"/>
<polygon fill="midnightblue" stroke="midnightblue" points="83.2634,-18.7649 72.777,-20.2763 81.9172,-25.6342 83.2634,-18.7649"/>
</g>
<!-- Node26 -->
<g id="node61" class="node"><title>Node26</title>
<a xlink:href="OcraWbiModel_8h.html" target="_top" xlink:title="Implementation of ocra::Model using wholeBodyInterface.">
<polygon fill="white" stroke="black" points="1830,-174.5 1830,-195.5 1962,-195.5 1962,-174.5 1830,-174.5"/>
<text text-anchor="middle" x="1896" y="-182.5" font-family="Helvetica,sans-Serif" font-size="10.00">ocra&#45;icub/OcraWbiModel.h</text>
</a>
</g>
<!-- Node24&#45;&gt;Node26 -->
<g id="edge70" class="edge"><title>Node24&#45;&gt;Node26</title>
<path fill="none" stroke="midnightblue" d="M1787.9,-232.497C1808.8,-223.315 1839.36,-209.889 1862.66,-199.652"/>
<polygon fill="midnightblue" stroke="midnightblue" points="1864.08,-202.848 1871.83,-195.621 1861.26,-196.44 1864.08,-202.848"/>
</g>
<!-- Node34 -->
<g id="node80" class="node"><title>Node34</title>
<a xlink:href="Utilities_8h.html" target="_top" xlink:title="Some useful tools for the ocra&#45;icub lib.">
<polygon fill="white" stroke="red" points="1384.5,-58.5 1384.5,-79.5 1485.5,-79.5 1485.5,-58.5 1384.5,-58.5"/>
<text text-anchor="middle" x="1435" y="-66.5" font-family="Helvetica,sans-Serif" font-size="10.00">ocra&#45;icub/Utilities.h</text>
</a>
</g>
<!-- Node24&#45;&gt;Node34 -->
<g id="edge146" class="edge"><title>Node24&#45;&gt;Node34</title>
<path fill="none" stroke="midnightblue" d="M1743.91,-232.377C1687.93,-202.77 1529.96,-119.221 1464.24,-84.4661"/>
<polygon fill="midnightblue" stroke="midnightblue" points="1465.72,-81.2859 1455.24,-79.7046 1462.44,-87.4738 1465.72,-81.2859"/>
</g>
<!-- Node26&#45;&gt;Node9 -->
<g id="edge72" class="edge"><title>Node26&#45;&gt;Node9</title>
<path fill="none" stroke="midnightblue" d="M1962.24,-175.171C2018.06,-166.15 2093.01,-152.086 2120,-138 2165.99,-113.999 2161.12,-85.6799 2205,-58 2219.6,-48.7904 2260.05,-33.774 2290.19,-23.1975"/>
<polygon fill="midnightblue" stroke="midnightblue" points="2291.67,-26.3886 2299.96,-19.7958 2289.37,-19.7776 2291.67,-26.3886"/>
</g>
<!-- Node27 -->
<g id="node64" class="node"><title>Node27</title>
<polygon fill="white" stroke="#bfbfbf" points="89.5,-0.5 89.5,-21.5 194.5,-21.5 194.5,-0.5 89.5,-0.5"/>
<text text-anchor="middle" x="142" y="-8.5" font-family="Helvetica,sans-Serif" font-size="10.00">ocra/control/Model.h</text>
</g>
<!-- Node26&#45;&gt;Node27 -->
<g id="edge74" class="edge"><title>Node26&#45;&gt;Node27</title>
<path fill="none" stroke="midnightblue" d="M1833.3,-174.467C1655.65,-144.654 1159.45,-61.595 1124,-58 719.728,-17.0055 611.958,-65.6606 204.493,-22.0289"/>
<polygon fill="midnightblue" stroke="midnightblue" points="204.824,-18.5443 194.505,-20.9474 204.07,-25.5036 204.824,-18.5443"/>
</g>
<!-- Node28 -->
<g id="node66" class="node"><title>Node28</title>
<polygon fill="white" stroke="#bfbfbf" points="1888,-0.5 1888,-21.5 1946,-21.5 1946,-0.5 1888,-0.5"/>
<text text-anchor="middle" x="1917" y="-8.5" font-family="Helvetica,sans-Serif" font-size="10.00">wbi/wbi.h</text>
</g>
<!-- Node26&#45;&gt;Node28 -->
<g id="edge76" class="edge"><title>Node26&#45;&gt;Node28</title>
<path fill="none" stroke="midnightblue" d="M1897.28,-174.377C1900.67,-146.293 1909.92,-69.6735 1914.44,-32.2027"/>
<polygon fill="midnightblue" stroke="midnightblue" points="1917.96,-32.2751 1915.68,-21.9277 1911.01,-31.4363 1917.96,-32.2751"/>
</g>
<!-- Node29 -->
<g id="node68" class="node"><title>Node29</title>
<polygon fill="white" stroke="#bfbfbf" points="2206,-0.5 2206,-21.5 2282,-21.5 2282,-0.5 2206,-0.5"/>
<text text-anchor="middle" x="2244" y="-8.5" font-family="Helvetica,sans-Serif" font-size="10.00">yarp/os/Log.h</text>
</g>
<!-- Node26&#45;&gt;Node29 -->
<g id="edge78" class="edge"><title>Node26&#45;&gt;Node29</title>
<path fill="none" stroke="midnightblue" d="M1957.16,-174.439C2006.09,-165.255 2070.16,-151.359 2093,-138 2134.81,-113.545 2129.53,-88.6873 2167,-58 2181.65,-46.0025 2199.64,-34.8538 2214.54,-26.4284"/>
<polygon fill="midnightblue" stroke="midnightblue" points="2216.31,-29.4518 2223.37,-21.5511 2212.92,-23.3253 2216.31,-29.4518"/>
</g>
<!-- Node30 -->
<g id="node70" class="node"><title>Node30</title>
<a xlink:href="OcraWbiConversions_8h.html" target="_top" xlink:title="A utility class full of static conversion functions.">
<polygon fill="white" stroke="red" points="1923.5,-116.5 1923.5,-137.5 2084.5,-137.5 2084.5,-116.5 1923.5,-116.5"/>
<text text-anchor="middle" x="2004" y="-124.5" font-family="Helvetica,sans-Serif" font-size="10.00">ocra&#45;icub/OcraWbiConversions.h</text>
</a>
</g>
<!-- Node26&#45;&gt;Node30 -->
<g id="edge80" class="edge"><title>Node26&#45;&gt;Node30</title>
<path fill="none" stroke="midnightblue" d="M1915.56,-174.497C1932.2,-165.56 1956.33,-152.602 1975.18,-142.477"/>
<polygon fill="midnightblue" stroke="midnightblue" points="1977.07,-145.436 1984.22,-137.621 1973.76,-139.269 1977.07,-145.436"/>
</g>
<!-- Node26&#45;&gt;Node34 -->
<g id="edge140" class="edge"><title>Node26&#45;&gt;Node34</title>
<path fill="none" stroke="midnightblue" d="M1853.87,-174.398C1769.24,-153.104 1578.86,-105.199 1486.8,-82.0334"/>
<polygon fill="midnightblue" stroke="midnightblue" points="1487.42,-78.5812 1476.87,-79.5352 1485.71,-85.3696 1487.42,-78.5812"/>
</g>
<!-- Node30&#45;&gt;Node28 -->
<g id="edge90" class="edge"><title>Node30&#45;&gt;Node28</title>
<path fill="none" stroke="midnightblue" d="M1995.97,-116.295C1981.21,-96.6135 1949.59,-54.4504 1931.15,-29.8668"/>
<polygon fill="midnightblue" stroke="midnightblue" points="1933.81,-27.5792 1925.01,-21.6792 1928.21,-31.7792 1933.81,-27.5792"/>
</g>
<!-- Node30&#45;&gt;Node29 -->
<g id="edge88" class="edge"><title>Node30&#45;&gt;Node29</title>
<path fill="none" stroke="midnightblue" d="M2022.74,-116.305C2052.25,-99.5223 2108.32,-67.8944 2129,-58 2154.25,-45.9199 2183.46,-34.0076 2206.12,-25.1982"/>
<polygon fill="midnightblue" stroke="midnightblue" points="2207.64,-28.3623 2215.72,-21.5007 2205.13,-21.8304 2207.64,-28.3623"/>
</g>
<!-- Node31 -->
<g id="node72" class="node"><title>Node31</title>
<polygon fill="white" stroke="#bfbfbf" points="1964,-0.5 1964,-21.5 2018,-21.5 2018,-0.5 1964,-0.5"/>
<text text-anchor="middle" x="1991" y="-8.5" font-family="Helvetica,sans-Serif" font-size="10.00">iostream</text>
</g>
<!-- Node30&#45;&gt;Node31 -->
<g id="edge82" class="edge"><title>Node30&#45;&gt;Node31</title>
<path fill="none" stroke="midnightblue" d="M2002.8,-116.295C2000.65,-97.1314 1996.12,-56.654 1993.34,-31.8434"/>
<polygon fill="midnightblue" stroke="midnightblue" points="1996.79,-31.2272 1992.2,-21.6792 1989.83,-32.0068 1996.79,-31.2272"/>
</g>
<!-- Node32 -->
<g id="node74" class="node"><title>Node32</title>
<polygon fill="white" stroke="#bfbfbf" points="2036,-0.5 2036,-21.5 2080,-21.5 2080,-0.5 2036,-0.5"/>
<text text-anchor="middle" x="2058" y="-8.5" font-family="Helvetica,sans-Serif" font-size="10.00">vector</text>
</g>
<!-- Node30&#45;&gt;Node32 -->
<g id="edge84" class="edge"><title>Node30&#45;&gt;Node32</title>
<path fill="none" stroke="midnightblue" d="M2008.98,-116.295C2018.02,-96.8724 2037.26,-55.5561 2048.76,-30.8462"/>
<polygon fill="midnightblue" stroke="midnightblue" points="2051.98,-32.2222 2053.03,-21.6792 2045.64,-29.2679 2051.98,-32.2222"/>
</g>
<!-- Node33 -->
<g id="node76" class="node"><title>Node33</title>
<polygon fill="white" stroke="#bfbfbf" points="2097.5,-0.5 2097.5,-21.5 2188.5,-21.5 2188.5,-0.5 2097.5,-0.5"/>
<text text-anchor="middle" x="2143" y="-8.5" font-family="Helvetica,sans-Serif" font-size="10.00">yarp/sig/Vector.h</text>
</g>
<!-- Node30&#45;&gt;Node33 -->
<g id="edge86" class="edge"><title>Node30&#45;&gt;Node33</title>
<path fill="none" stroke="midnightblue" d="M2016.83,-116.295C2040.93,-96.1819 2093.16,-52.5904 2122.3,-28.2752"/>
<polygon fill="midnightblue" stroke="midnightblue" points="2124.77,-30.7737 2130.2,-21.6792 2120.28,-25.3993 2124.77,-30.7737"/>
</g>
<!-- Node30&#45;&gt;Node34 -->
<g id="edge92" class="edge"><title>Node30&#45;&gt;Node34</title>
<path fill="none" stroke="midnightblue" d="M1923.38,-118.782C1808.23,-107.045 1599.2,-85.7374 1496,-75.2178"/>
<polygon fill="midnightblue" stroke="midnightblue" points="1496.05,-71.7051 1485.75,-74.1729 1495.34,-78.6691 1496.05,-71.7051"/>
</g>
<!-- Node34&#45;&gt;Node9 -->
<g id="edge94" class="edge"><title>Node34&#45;&gt;Node9</title>
<path fill="none" stroke="midnightblue" d="M1485.58,-67.8784C1641.76,-64.1597 2115.85,-50.8937 2289.77,-21.7648"/>
<polygon fill="midnightblue" stroke="midnightblue" points="2290.56,-25.1803 2299.8,-20.0051 2289.35,-18.2855 2290.56,-25.1803"/>
</g>
<!-- Node34&#45;&gt;Node25 -->
<g id="edge138" class="edge"><title>Node34&#45;&gt;Node25</title>
<path fill="none" stroke="midnightblue" d="M1384.36,-67.1958C1322.82,-65.0057 1215.79,-61.2074 1124,-58 663.846,-41.921 542.254,-84.7672 82.9406,-22.0321"/>
<polygon fill="midnightblue" stroke="midnightblue" points="83.1021,-18.5214 72.7184,-20.6262 82.1482,-25.4562 83.1021,-18.5214"/>
</g>
<!-- Node34&#45;&gt;Node27 -->
<g id="edge136" class="edge"><title>Node34&#45;&gt;Node27</title>
<path fill="none" stroke="midnightblue" d="M1384.43,-59.6391C1379.9,-59.0033 1375.37,-58.4412 1371,-58 857.544,-6.21696 721.244,-75.3435 204.453,-22.0123"/>
<polygon fill="midnightblue" stroke="midnightblue" points="204.811,-18.5308 194.502,-20.9752 204.085,-25.493 204.811,-18.5308"/>
</g>
<!-- Node34&#45;&gt;Node28 -->
<g id="edge134" class="edge"><title>Node34&#45;&gt;Node28</title>
<path fill="none" stroke="midnightblue" d="M1485.7,-66.5456C1566.75,-61.9876 1730.52,-50.1757 1877.56,-22.0127"/>
<polygon fill="midnightblue" stroke="midnightblue" points="1878.52,-25.3914 1887.67,-20.0454 1877.18,-18.5204 1878.52,-25.3914"/>
</g>
<!-- Node34&#45;&gt;Node29 -->
<g id="edge124" class="edge"><title>Node34&#45;&gt;Node29</title>
<path fill="none" stroke="midnightblue" d="M1485.58,-66.9937C1629.43,-61.1149 2039.97,-43.0954 2195.57,-21.9494"/>
<polygon fill="midnightblue" stroke="midnightblue" points="2196.47,-25.3561 2205.88,-20.487 2195.49,-18.4254 2196.47,-25.3561"/>
</g>
<!-- Node34&#45;&gt;Node31 -->
<g id="edge98" class="edge"><title>Node34&#45;&gt;Node31</title>
<path fill="none" stroke="midnightblue" d="M1485.69,-67.8824C1577.52,-65.1081 1777.49,-55.6268 1953.67,-21.937"/>
<polygon fill="midnightblue" stroke="midnightblue" points="1954.48,-25.3438 1963.63,-20.0001 1953.15,-18.4724 1954.48,-25.3438"/>
</g>
<!-- Node34&#45;&gt;Node32 -->
<g id="edge102" class="edge"><title>Node34&#45;&gt;Node32</title>
<path fill="none" stroke="midnightblue" d="M1485.62,-66.685C1605.79,-60.9236 1906.47,-44.877 2025.88,-21.6886"/>
<polygon fill="midnightblue" stroke="midnightblue" points="2026.76,-25.0815 2035.85,-19.643 2025.35,-18.2244 2026.76,-25.0815"/>
</g>
<!-- Node34&#45;&gt;Node33 -->
<g id="edge130" class="edge"><title>Node34&#45;&gt;Node33</title>
<path fill="none" stroke="midnightblue" d="M1485.69,-67.5869C1594.3,-64.0787 1857.56,-53.0063 2087.19,-22.11"/>
<polygon fill="midnightblue" stroke="midnightblue" points="2087.97,-25.5359 2097.41,-20.7189 2087.03,-18.5999 2087.97,-25.5359"/>
</g>
<!-- Node35 -->
<g id="node83" class="node"><title>Node35</title>
<polygon fill="white" stroke="#bfbfbf" points="1188,-0.5 1188,-21.5 1232,-21.5 1232,-0.5 1188,-0.5"/>
<text text-anchor="middle" x="1210" y="-8.5" font-family="Helvetica,sans-Serif" font-size="10.00">cmath</text>
</g>
<!-- Node34&#45;&gt;Node35 -->
<g id="edge96" class="edge"><title>Node34&#45;&gt;Node35</title>
<path fill="none" stroke="midnightblue" d="M1385.19,-58.4202C1348.01,-50.1871 1295.81,-37.923 1241.97,-22.0977"/>
<polygon fill="midnightblue" stroke="midnightblue" points="1242.84,-18.7049 1232.26,-19.2088 1240.85,-25.4144 1242.84,-18.7049"/>
</g>
<!-- Node36 -->
<g id="node86" class="node"><title>Node36</title>
<polygon fill="white" stroke="#bfbfbf" points="1249.5,-0.5 1249.5,-21.5 1290.5,-21.5 1290.5,-0.5 1249.5,-0.5"/>
<text text-anchor="middle" x="1270" y="-8.5" font-family="Helvetica,sans-Serif" font-size="10.00">string</text>
</g>
<!-- Node34&#45;&gt;Node36 -->
<g id="edge100" class="edge"><title>Node34&#45;&gt;Node36</title>
<path fill="none" stroke="midnightblue" d="M1403.58,-58.4369C1377.95,-49.7562 1340.59,-36.9554 1300.09,-22.3361"/>
<polygon fill="midnightblue" stroke="midnightblue" points="1301.16,-19.0032 1290.57,-18.8878 1298.78,-25.5847 1301.16,-19.0032"/>
</g>
<!-- Node37 -->
<g id="node89" class="node"><title>Node37</title>
<polygon fill="white" stroke="#bfbfbf" points="1308,-0.5 1308,-21.5 1360,-21.5 1360,-0.5 1308,-0.5"/>
<text text-anchor="middle" x="1334" y="-8.5" font-family="Helvetica,sans-Serif" font-size="10.00">sstream</text>
</g>
<!-- Node34&#45;&gt;Node37 -->
<g id="edge104" class="edge"><title>Node34&#45;&gt;Node37</title>
<path fill="none" stroke="midnightblue" d="M1416.48,-58.3619C1401.1,-49.532 1379,-36.844 1361.55,-26.8224"/>
<polygon fill="midnightblue" stroke="midnightblue" points="1362.82,-23.5154 1352.41,-21.5707 1359.34,-29.5857 1362.82,-23.5154"/>
</g>
<!-- Node38 -->
<g id="node91" class="node"><title>Node38</title>
<polygon fill="white" stroke="#bfbfbf" points="1377.5,-0.5 1377.5,-21.5 1492.5,-21.5 1492.5,-0.5 1377.5,-0.5"/>
<text text-anchor="middle" x="1435" y="-8.5" font-family="Helvetica,sans-Serif" font-size="10.00">yarp/os/BufferedPort.h</text>
</g>
<!-- Node34&#45;&gt;Node38 -->
<g id="edge106" class="edge"><title>Node34&#45;&gt;Node38</title>
<path fill="none" stroke="midnightblue" d="M1435,-58.3619C1435,-50.9219 1435,-40.7427 1435,-31.7276"/>
<polygon fill="midnightblue" stroke="midnightblue" points="1438.5,-31.5706 1435,-21.5707 1431.5,-31.5707 1438.5,-31.5706"/>
</g>
<!-- Node39 -->
<g id="node93" class="node"><title>Node39</title>
<polygon fill="white" stroke="#bfbfbf" points="1510,-0.5 1510,-21.5 1596,-21.5 1596,-0.5 1510,-0.5"/>
<text text-anchor="middle" x="1553" y="-8.5" font-family="Helvetica,sans-Serif" font-size="10.00">yarp/os/Bottle.h</text>
</g>
<!-- Node34&#45;&gt;Node39 -->
<g id="edge108" class="edge"><title>Node34&#45;&gt;Node39</title>
<path fill="none" stroke="midnightblue" d="M1456.37,-58.4966C1474.8,-49.4378 1501.64,-36.2462 1522.36,-26.0628"/>
<polygon fill="midnightblue" stroke="midnightblue" points="1523.96,-29.1735 1531.39,-21.6212 1520.87,-22.8914 1523.96,-29.1735"/>
</g>
<!-- Node40 -->
<g id="node95" class="node"><title>Node40</title>
<polygon fill="white" stroke="#bfbfbf" points="1613.5,-0.5 1613.5,-21.5 1724.5,-21.5 1724.5,-0.5 1613.5,-0.5"/>
<text text-anchor="middle" x="1669" y="-8.5" font-family="Helvetica,sans-Serif" font-size="10.00">yarp/os/RateThread.h</text>
</g>
<!-- Node34&#45;&gt;Node40 -->
<g id="edge110" class="edge"><title>Node34&#45;&gt;Node40</title>
<path fill="none" stroke="midnightblue" d="M1477.38,-58.4966C1516.51,-48.7955 1574.78,-34.3547 1616.78,-23.9445"/>
<polygon fill="midnightblue" stroke="midnightblue" points="1617.68,-27.3262 1626.54,-21.5231 1616,-20.5318 1617.68,-27.3262"/>
</g>
<!-- Node41 -->
<g id="node97" class="node"><title>Node41</title>
<polygon fill="white" stroke="#bfbfbf" points="1741.5,-0.5 1741.5,-21.5 1870.5,-21.5 1870.5,-0.5 1741.5,-0.5"/>
<text text-anchor="middle" x="1806" y="-8.5" font-family="Helvetica,sans-Serif" font-size="10.00">yarp/os/ResourceFinder.h</text>
</g>
<!-- Node34&#45;&gt;Node41 -->
<g id="edge112" class="edge"><title>Node34&#45;&gt;Node41</title>
<path fill="none" stroke="midnightblue" d="M1485.81,-61.057C1549.3,-51.1305 1658.48,-34.0627 1731.45,-22.6552"/>
<polygon fill="midnightblue" stroke="midnightblue" points="1732.15,-26.0871 1741.49,-21.0844 1731.07,-19.1711 1732.15,-26.0871"/>
</g>
<!-- Node42 -->
<g id="node99" class="node"><title>Node42</title>
<polygon fill="white" stroke="#bfbfbf" points="212,-0.5 212,-21.5 322,-21.5 322,-0.5 212,-0.5"/>
<text text-anchor="middle" x="267" y="-8.5" font-family="Helvetica,sans-Serif" font-size="10.00">yarp/os/PortReader.h</text>
</g>
<!-- Node34&#45;&gt;Node42 -->
<g id="edge114" class="edge"><title>Node34&#45;&gt;Node42</title>
<path fill="none" stroke="midnightblue" d="M1384.43,-59.657C1379.9,-59.0173 1375.37,-58.4495 1371,-58 914.294,-11.066 792.85,-68.4281 332.341,-22.0017"/>
<polygon fill="midnightblue" stroke="midnightblue" points="332.396,-18.4892 322.093,-20.957 331.686,-25.4531 332.396,-18.4892"/>
</g>
<!-- Node43 -->
<g id="node101" class="node"><title>Node43</title>
<polygon fill="white" stroke="#bfbfbf" points="340,-0.5 340,-21.5 444,-21.5 444,-0.5 340,-0.5"/>
<text text-anchor="middle" x="392" y="-8.5" font-family="Helvetica,sans-Serif" font-size="10.00">yarp/os/RpcClient.h</text>
</g>
<!-- Node34&#45;&gt;Node43 -->
<g id="edge116" class="edge"><title>Node34&#45;&gt;Node43</title>
<path fill="none" stroke="midnightblue" d="M1384.43,-59.6786C1379.9,-59.0343 1375.37,-58.4595 1371,-58 968.194,-15.6699 860.627,-65.5223 454.138,-21.9809"/>
<polygon fill="midnightblue" stroke="midnightblue" points="454.493,-18.4989 444.174,-20.9013 453.739,-25.4582 454.493,-18.4989"/>
</g>
<!-- Node44 -->
<g id="node103" class="node"><title>Node44</title>
<polygon fill="white" stroke="#bfbfbf" points="461.5,-0.5 461.5,-21.5 568.5,-21.5 568.5,-0.5 461.5,-0.5"/>
<text text-anchor="middle" x="515" y="-8.5" font-family="Helvetica,sans-Serif" font-size="10.00">yarp/os/RpcServer.h</text>
</g>
<!-- Node34&#45;&gt;Node44 -->
<g id="edge118" class="edge"><title>Node34&#45;&gt;Node44</title>
<path fill="none" stroke="midnightblue" d="M1384.43,-59.7074C1379.9,-59.057 1375.37,-58.4729 1371,-58 1023.14,-20.3688 929.869,-60.1653 578.9,-22.0897"/>
<polygon fill="midnightblue" stroke="midnightblue" points="579.029,-18.5829 568.707,-20.9699 578.264,-25.541 579.029,-18.5829"/>
</g>
<!-- Node45 -->
<g id="node105" class="node"><title>Node45</title>
<polygon fill="white" stroke="#bfbfbf" points="585.5,-0.5 585.5,-21.5 726.5,-21.5 726.5,-0.5 585.5,-0.5"/>
<text text-anchor="middle" x="656" y="-8.5" font-family="Helvetica,sans-Serif" font-size="10.00">yarp/os/ConnectionReader.h</text>
</g>
<!-- Node34&#45;&gt;Node45 -->
<g id="edge120" class="edge"><title>Node34&#45;&gt;Node45</title>
<path fill="none" stroke="midnightblue" d="M1384.42,-59.7604C1379.89,-59.0986 1375.37,-58.4974 1371,-58 1093,-26.3447 1018.51,-49.0006 736.714,-22.1001"/>
<polygon fill="midnightblue" stroke="midnightblue" points="736.892,-18.6011 726.601,-21.1221 736.218,-25.5685 736.892,-18.6011"/>
</g>
<!-- Node46 -->
<g id="node107" class="node"><title>Node46</title>
<polygon fill="white" stroke="#bfbfbf" points="744,-0.5 744,-21.5 826,-21.5 826,-0.5 744,-0.5"/>
<text text-anchor="middle" x="785" y="-8.5" font-family="Helvetica,sans-Serif" font-size="10.00">yarp/os/Time.h</text>
</g>
<!-- Node34&#45;&gt;Node46 -->
<g id="edge122" class="edge"><title>Node34&#45;&gt;Node46</title>
<path fill="none" stroke="midnightblue" d="M1384.41,-59.8099C1379.89,-59.1376 1375.37,-58.5204 1371,-58 1137.16,-30.127 1073.11,-55.0434 836.069,-21.9644"/>
<polygon fill="midnightblue" stroke="midnightblue" points="836.504,-18.4911 826.112,-20.5551 835.523,-25.422 836.504,-18.4911"/>
</g>
<!-- Node47 -->
<g id="node110" class="node"><title>Node47</title>
<polygon fill="white" stroke="#bfbfbf" points="843.5,-0.5 843.5,-21.5 950.5,-21.5 950.5,-0.5 843.5,-0.5"/>
<text text-anchor="middle" x="897" y="-8.5" font-family="Helvetica,sans-Serif" font-size="10.00">yarp/os/LogStream.h</text>
</g>
<!-- Node34&#45;&gt;Node47 -->
<g id="edge126" class="edge"><title>Node34&#45;&gt;Node47</title>
<path fill="none" stroke="midnightblue" d="M1384.4,-59.9044C1379.88,-59.2119 1375.36,-58.5642 1371,-58 1192,-34.838 1142.98,-45.6684 960.91,-22.1639"/>
<polygon fill="midnightblue" stroke="midnightblue" points="961.093,-18.6581 950.723,-20.8313 960.185,-25.599 961.093,-18.6581"/>
</g>
<!-- Node48 -->
<g id="node112" class="node"><title>Node48</title>
<polygon fill="white" stroke="#bfbfbf" points="967.5,-0.5 967.5,-21.5 1064.5,-21.5 1064.5,-0.5 967.5,-0.5"/>
<text text-anchor="middle" x="1016" y="-8.5" font-family="Helvetica,sans-Serif" font-size="10.00">yarp/os/Property.h</text>
</g>
<!-- Node34&#45;&gt;Node48 -->
<g id="edge128" class="edge"><title>Node34&#45;&gt;Node48</title>
<path fill="none" stroke="midnightblue" d="M1384.38,-60.0596C1379.86,-59.334 1375.35,-58.6363 1371,-58 1242.22,-39.1663 1206.53,-42.4729 1074.85,-22.2135"/>
<polygon fill="midnightblue" stroke="midnightblue" points="1075.2,-18.7259 1064.78,-20.6475 1074.12,-25.6427 1075.2,-18.7259"/>
</g>
<!-- Node49 -->
<g id="node115" class="node"><title>Node49</title>
<polygon fill="white" stroke="#bfbfbf" points="1081.5,-0.5 1081.5,-21.5 1170.5,-21.5 1170.5,-0.5 1081.5,-0.5"/>
<text text-anchor="middle" x="1126" y="-8.5" font-family="Helvetica,sans-Serif" font-size="10.00">yarp/sig/Matrix.h</text>
</g>
<!-- Node34&#45;&gt;Node49 -->
<g id="edge132" class="edge"><title>Node34&#45;&gt;Node49</title>
<path fill="none" stroke="midnightblue" d="M1384.42,-60.0686C1334.95,-51.2544 1257.21,-37.1917 1180.8,-22.3242"/>
<polygon fill="midnightblue" stroke="midnightblue" points="1181,-18.798 1170.52,-20.3172 1179.66,-25.6683 1181,-18.798"/>
</g>
</g>
</svg>
