<?xml version="1.0" encoding="UTF-8" standalone="no"?>
<!DOCTYPE svg PUBLIC "-//W3C//DTD SVG 1.1//EN"
 "http://www.w3.org/Graphics/SVG/1.1/DTD/svg11.dtd">
<!-- Generated by graphviz version 2.26.3 (20100126.1600)
 -->
<!-- Title: G Pages: 1 -->
<svg width="3427pt" height="436pt"
 viewBox="0.00 0.00 3427.00 436.00" xmlns="http://www.w3.org/2000/svg" xmlns:xlink="http://www.w3.org/1999/xlink">
<g id="graph1" class="graph" transform="scale(1 1) rotate(0) translate(4 432)">
<title>G</title>
<polygon fill="white" stroke="white" points="-4,5 -4,-432 3424,-432 3424,5 -4,5"/>
<!-- Node1 -->
<g id="node1" class="node"><title>Node1</title>
<polygon fill="#bfbfbf" stroke="black" points="1275,-406.5 1275,-427.5 1673,-427.5 1673,-406.5 1275,-406.5"/>
<text text-anchor="middle" x="1474" y="-414.5" font-family="Helvetica,sans-Serif" font-size="10.00">ocra&#45;wbi&#45;plugins/ocra&#45;icub&#45;clients/walking&#45;client/include/walking&#45;client/MIQPController.h</text>
</g>
<!-- Node2 -->
<g id="node3" class="node"><title>Node2</title>
<polygon fill="white" stroke="#bfbfbf" points="353,-348.5 353,-369.5 427,-369.5 427,-348.5 353,-348.5"/>
<text text-anchor="middle" x="390" y="-356.5" font-family="Helvetica,sans-Serif" font-size="10.00">gurobi_c++.h</text>
</g>
<!-- Node1&#45;&gt;Node2 -->
<g id="edge2" class="edge"><title>Node1&#45;&gt;Node2</title>
<path fill="none" stroke="midnightblue" d="M1274.89,-411.898C1021.09,-404.704 596.558,-390.171 441,-370 439.737,-369.836 438.459,-369.657 437.171,-369.465"/>
<polygon fill="midnightblue" stroke="midnightblue" points="437.643,-365.995 427.199,-367.774 436.473,-372.897 437.643,-365.995"/>
</g>
<!-- Node3 -->
<g id="node5" class="node"><title>Node3</title>
<a xlink:href="utils_8h.html" target="_top" xlink:title="walking&#45;client/utils.h">
<polygon fill="white" stroke="black" points="2598.5,-116.5 2598.5,-137.5 2703.5,-137.5 2703.5,-116.5 2598.5,-116.5"/>
<text text-anchor="middle" x="2651" y="-124.5" font-family="Helvetica,sans-Serif" font-size="10.00">walking&#45;client/utils.h</text>
</a>
</g>
<!-- Node1&#45;&gt;Node3 -->
<g id="edge4" class="edge"><title>Node1&#45;&gt;Node3</title>
<path fill="none" stroke="midnightblue" d="M1673.15,-414.832C2153.98,-408.283 3339,-383.75 3339,-301 3339,-301 3339,-301 3339,-243 3339,-179.901 2883.2,-142.67 2713.59,-131"/>
<polygon fill="midnightblue" stroke="midnightblue" points="2713.77,-127.504 2703.56,-130.317 2713.3,-134.488 2713.77,-127.504"/>
</g>
<!-- Node5 -->
<g id="node9" class="node"><title>Node5</title>
<a xlink:href="OcraWbiModel_8h.html" target="_top" xlink:title="Implementation of ocra::Model using wholeBodyInterface.">
<polygon fill="white" stroke="black" points="1301,-174.5 1301,-195.5 1433,-195.5 1433,-174.5 1301,-174.5"/>
<text text-anchor="middle" x="1367" y="-182.5" font-family="Helvetica,sans-Serif" font-size="10.00">ocra&#45;icub/OcraWbiModel.h</text>
</a>
</g>
<!-- Node1&#45;&gt;Node5 -->
<g id="edge8" class="edge"><title>Node1&#45;&gt;Node5</title>
<path fill="none" stroke="midnightblue" d="M1469.12,-406.429C1452.52,-370.422 1397.98,-252.179 1376.15,-204.847"/>
<polygon fill="midnightblue" stroke="midnightblue" points="1379.27,-203.248 1371.9,-195.634 1372.91,-206.18 1379.27,-203.248"/>
</g>
<!-- Node21 -->
<g id="node47" class="node"><title>Node21</title>
<polygon fill="white" stroke="#bfbfbf" points="-0.5,-0.5 -0.5,-21.5 110.5,-21.5 110.5,-0.5 -0.5,-0.5"/>
<text text-anchor="middle" x="55" y="-8.5" font-family="Helvetica,sans-Serif" font-size="10.00">yarp/os/RateThread.h</text>
</g>
<!-- Node1&#45;&gt;Node21 -->
<g id="edge90" class="edge"><title>Node1&#45;&gt;Node21</title>
<path fill="none" stroke="midnightblue" d="M1274.96,-411.652C1029.7,-404.28 637.246,-389.644 572,-370 514.194,-352.596 455,-361.369 455,-301 455,-301 455,-301 455,-127 455,-92.6082 234.065,-45.2648 120.59,-23.2168"/>
<polygon fill="midnightblue" stroke="midnightblue" points="121.101,-19.7508 110.618,-21.2907 119.773,-26.6238 121.101,-19.7508"/>
</g>
<!-- Node32 -->
<g id="node73" class="node"><title>Node32</title>
<polygon fill="white" stroke="#bfbfbf" points="2375.5,-0.5 2375.5,-21.5 2448.5,-21.5 2448.5,-0.5 2375.5,-0.5"/>
<text text-anchor="middle" x="2412" y="-8.5" font-family="Helvetica,sans-Serif" font-size="10.00">Eigen/Dense</text>
</g>
<!-- Node1&#45;&gt;Node32 -->
<g id="edge92" class="edge"><title>Node1&#45;&gt;Node32</title>
<path fill="none" stroke="midnightblue" d="M1462.76,-406.234C1454.4,-397.404 1443.67,-384.099 1439,-370 1426.02,-330.831 1420.18,-295.757 1460,-232 1533.66,-114.068 1586.62,-97.2681 1720,-58 1855.17,-18.2063 2208.93,-42.1062 2365.26,-21.954"/>
<polygon fill="midnightblue" stroke="midnightblue" points="2365.85,-25.4064 2375.27,-20.5618 2364.89,-18.4732 2365.85,-25.4064"/>
</g>
<!-- Node33 -->
<g id="node75" class="node"><title>Node33</title>
<polygon fill="white" stroke="#bfbfbf" points="128,-0.5 128,-21.5 196,-21.5 196,-0.5 128,-0.5"/>
<text text-anchor="middle" x="162" y="-8.5" font-family="Helvetica,sans-Serif" font-size="10.00">Eigen/Lgsm</text>
</g>
<!-- Node1&#45;&gt;Node33 -->
<g id="edge94" class="edge"><title>Node1&#45;&gt;Node33</title>
<path fill="none" stroke="midnightblue" d="M1274.89,-413.069C988.148,-404.707 493,-378.978 493,-301 493,-301 493,-301 493,-127 493,-94.5312 494.128,-78.5621 469,-58 425.325,-22.261 277.866,-32.2615 206.191,-21.8199"/>
<polygon fill="midnightblue" stroke="midnightblue" points="206.632,-18.3447 196.187,-20.1231 205.461,-25.2462 206.632,-18.3447"/>
</g>
<!-- Node34 -->
<g id="node78" class="node"><title>Node34</title>
<polygon fill="white" stroke="#bfbfbf" points="1501.5,-348.5 1501.5,-369.5 1626.5,-369.5 1626.5,-348.5 1501.5,-348.5"/>
<text text-anchor="middle" x="1564" y="-356.5" font-family="Helvetica,sans-Serif" font-size="10.00">ocra/util/FileOperations.h</text>
</g>
<!-- Node1&#45;&gt;Node34 -->
<g id="edge88" class="edge"><title>Node1&#45;&gt;Node34</title>
<path fill="none" stroke="midnightblue" d="M1490.51,-406.362C1504.08,-397.614 1523.53,-385.079 1539.01,-375.101"/>
<polygon fill="midnightblue" stroke="midnightblue" points="1541.09,-377.93 1547.6,-369.571 1537.3,-372.046 1541.09,-377.93"/>
</g>
<!-- Node35 -->
<g id="node83" class="node"><title>Node35</title>
<polygon fill="white" stroke="#bfbfbf" points="2288,-116.5 2288,-137.5 2458,-137.5 2458,-116.5 2288,-116.5"/>
<text text-anchor="middle" x="2373" y="-124.5" font-family="Helvetica,sans-Serif" font-size="10.00">unsupported/Eigen/MatrixFunctions</text>
</g>
<!-- Node1&#45;&gt;Node35 -->
<g id="edge96" class="edge"><title>Node1&#45;&gt;Node35</title>
<path fill="none" stroke="midnightblue" d="M1533.6,-406.45C1573.58,-398.141 1621.32,-385.407 1635,-370 1676.28,-323.498 1613.61,-275.54 1658,-232 1701.65,-189.19 2093.32,-150.701 2277.75,-134.77"/>
<polygon fill="midnightblue" stroke="midnightblue" points="2278.05,-138.257 2287.72,-133.914 2277.45,-131.283 2278.05,-138.257"/>
</g>
<!-- Node36 -->
<g id="node85" class="node"><title>Node36</title>
<a xlink:href="MIQPLinearConstraints_8h.html" target="_top" xlink:title="walking&#45;client/constraints/MIQPLinearConstraints.h">
<polygon fill="white" stroke="black" points="2594,-348.5 2594,-369.5 2834,-369.5 2834,-348.5 2594,-348.5"/>
<text text-anchor="middle" x="2714" y="-356.5" font-family="Helvetica,sans-Serif" font-size="10.00">walking&#45;client/constraints/MIQPLinearConstraints.h</text>
</a>
</g>
<!-- Node1&#45;&gt;Node36 -->
<g id="edge98" class="edge"><title>Node1&#45;&gt;Node36</title>
<path fill="none" stroke="midnightblue" d="M1673.23,-407.681C1929.15,-395.711 2366.16,-375.27 2583.41,-365.108"/>
<polygon fill="midnightblue" stroke="midnightblue" points="2583.77,-368.596 2593.59,-364.632 2583.44,-361.603 2583.77,-368.596"/>
</g>
<!-- Node49 -->
<g id="node123" class="node"><title>Node49</title>
<a xlink:href="MIQPState_8h.html" target="_top" xlink:title="walking&#45;client/MIQPState.h">
<polygon fill="white" stroke="black" points="1469,-232.5 1469,-253.5 1605,-253.5 1605,-232.5 1469,-232.5"/>
<text text-anchor="middle" x="1537" y="-240.5" font-family="Helvetica,sans-Serif" font-size="10.00">walking&#45;client/MIQPState.h</text>
</a>
</g>
<!-- Node1&#45;&gt;Node49 -->
<g id="edge166" class="edge"><title>Node1&#45;&gt;Node49</title>
<path fill="none" stroke="midnightblue" d="M1476.54,-406.113C1479.84,-392.403 1486.02,-368.199 1493,-348 1503.49,-317.658 1518.38,-283.551 1527.86,-262.67"/>
<polygon fill="midnightblue" stroke="midnightblue" points="1531.06,-264.105 1532.04,-253.557 1524.69,-261.187 1531.06,-264.105"/>
</g>
<!-- Node50 -->
<g id="node134" class="node"><title>Node50</title>
<polygon fill="white" stroke="#bfbfbf" points="3366.5,-348.5 3366.5,-369.5 3419.5,-369.5 3419.5,-348.5 3366.5,-348.5"/>
<text text-anchor="middle" x="3393" y="-356.5" font-family="Helvetica,sans-Serif" font-size="10.00">Gurobi.h</text>
</g>
<!-- Node1&#45;&gt;Node50 -->
<g id="edge168" class="edge"><title>Node1&#45;&gt;Node50</title>
<path fill="none" stroke="midnightblue" d="M1673.2,-414.758C2122.96,-409.301 3190.64,-393.989 3353,-370 3354.07,-369.842 3355.15,-369.665 3356.24,-369.471"/>
<polygon fill="midnightblue" stroke="midnightblue" points="3357.04,-372.88 3366.08,-367.36 3355.57,-366.035 3357.04,-372.88"/>
</g>
<!-- Node4 -->
<g id="node7" class="node"><title>Node4</title>
<polygon fill="white" stroke="#bfbfbf" points="2559.5,-0.5 2559.5,-21.5 2600.5,-21.5 2600.5,-0.5 2559.5,-0.5"/>
<text text-anchor="middle" x="2580" y="-8.5" font-family="Helvetica,sans-Serif" font-size="10.00">string</text>
</g>
<!-- Node3&#45;&gt;Node4 -->
<g id="edge6" class="edge"><title>Node3&#45;&gt;Node4</title>
<path fill="none" stroke="midnightblue" d="M2644.45,-116.295C2632.51,-96.7861 2607.05,-55.1884 2591.95,-30.5177"/>
<polygon fill="midnightblue" stroke="midnightblue" points="2594.74,-28.3812 2586.54,-21.6792 2588.77,-32.0356 2594.74,-28.3812"/>
</g>
<!-- Node6 -->
<g id="node11" class="node"><title>Node6</title>
<polygon fill="white" stroke="#bfbfbf" points="2466,-0.5 2466,-21.5 2518,-21.5 2518,-0.5 2466,-0.5"/>
<text text-anchor="middle" x="2492" y="-8.5" font-family="Helvetica,sans-Serif" font-size="10.00">memory</text>
</g>
<!-- Node5&#45;&gt;Node6 -->
<g id="edge10" class="edge"><title>Node5&#45;&gt;Node6</title>
<path fill="none" stroke="midnightblue" d="M1433.09,-178.75C1602.61,-161.946 2066.29,-111.092 2455.98,-21.9797"/>
<polygon fill="midnightblue" stroke="midnightblue" points="2456.79,-25.3854 2465.75,-19.734 2455.22,-18.5633 2456.79,-25.3854"/>
</g>
<!-- Node7 -->
<g id="node13" class="node"><title>Node7</title>
<polygon fill="white" stroke="#bfbfbf" points="2253.5,-0.5 2253.5,-21.5 2358.5,-21.5 2358.5,-0.5 2253.5,-0.5"/>
<text text-anchor="middle" x="2306" y="-8.5" font-family="Helvetica,sans-Serif" font-size="10.00">ocra/control/Model.h</text>
</g>
<!-- Node5&#45;&gt;Node7 -->
<g id="edge12" class="edge"><title>Node5&#45;&gt;Node7</title>
<path fill="none" stroke="midnightblue" d="M1372.11,-174.313C1385.77,-146.227 1423.69,-71.5617 1447,-58 1521.4,-14.7212 2118.98,-30.8337 2243.27,-21.8449"/>
<polygon fill="midnightblue" stroke="midnightblue" points="2243.85,-25.3071 2253.49,-20.9271 2243.22,-18.3351 2243.85,-25.3071"/>
</g>
<!-- Node8 -->
<g id="node15" class="node"><title>Node8</title>
<polygon fill="white" stroke="#bfbfbf" points="2178,-0.5 2178,-21.5 2236,-21.5 2236,-0.5 2178,-0.5"/>
<text text-anchor="middle" x="2207" y="-8.5" font-family="Helvetica,sans-Serif" font-size="10.00">wbi/wbi.h</text>
</g>
<!-- Node5&#45;&gt;Node8 -->
<g id="edge14" class="edge"><title>Node5&#45;&gt;Node8</title>
<path fill="none" stroke="midnightblue" d="M1366.83,-174.218C1367.09,-149.04 1371.64,-86.3661 1409,-58 1474.23,-8.47787 2048.05,-34.1161 2167.58,-21.5568"/>
<polygon fill="midnightblue" stroke="midnightblue" points="2168.24,-24.9998 2177.7,-20.2183 2167.33,-18.0602 2168.24,-24.9998"/>
</g>
<!-- Node9 -->
<g id="node17" class="node"><title>Node9</title>
<polygon fill="white" stroke="#bfbfbf" points="214,-0.5 214,-21.5 290,-21.5 290,-0.5 214,-0.5"/>
<text text-anchor="middle" x="252" y="-8.5" font-family="Helvetica,sans-Serif" font-size="10.00">yarp/os/Log.h</text>
</g>
<!-- Node5&#45;&gt;Node9 -->
<g id="edge16" class="edge"><title>Node5&#45;&gt;Node9</title>
<path fill="none" stroke="midnightblue" d="M1300.74,-182.525C1133.12,-176.009 701.109,-157.531 639,-138 622.64,-132.855 523.062,-64.0114 507,-58 422.137,-26.239 392.934,-39.6893 300.261,-22.1179"/>
<polygon fill="midnightblue" stroke="midnightblue" points="300.666,-18.6306 290.179,-20.1325 299.314,-25.4987 300.666,-18.6306"/>
</g>
<!-- Node10 -->
<g id="node19" class="node"><title>Node10</title>
<a xlink:href="OcraWbiConversions_8h.html" target="_top" xlink:title="A utility class full of static conversion functions.">
<polygon fill="white" stroke="black" points="647.5,-116.5 647.5,-137.5 808.5,-137.5 808.5,-116.5 647.5,-116.5"/>
<text text-anchor="middle" x="728" y="-124.5" font-family="Helvetica,sans-Serif" font-size="10.00">ocra&#45;icub/OcraWbiConversions.h</text>
</a>
</g>
<!-- Node5&#45;&gt;Node10 -->
<g id="edge18" class="edge"><title>Node5&#45;&gt;Node10</title>
<path fill="none" stroke="midnightblue" d="M1300.72,-178.984C1185.79,-168.552 949.334,-147.09 819.07,-135.266"/>
<polygon fill="midnightblue" stroke="midnightblue" points="819,-131.745 808.725,-134.327 818.367,-138.717 819,-131.745"/>
</g>
<!-- Node16 -->
<g id="node33" class="node"><title>Node16</title>
<a xlink:href="Utilities_8h.html" target="_top" xlink:title="Some useful tools for the ocra&#45;icub lib.">
<polygon fill="white" stroke="black" points="1218.5,-58.5 1218.5,-79.5 1319.5,-79.5 1319.5,-58.5 1218.5,-58.5"/>
<text text-anchor="middle" x="1269" y="-66.5" font-family="Helvetica,sans-Serif" font-size="10.00">ocra&#45;icub/Utilities.h</text>
</a>
</g>
<!-- Node5&#45;&gt;Node16 -->
<g id="edge86" class="edge"><title>Node5&#45;&gt;Node16</title>
<path fill="none" stroke="midnightblue" d="M1357.96,-174.295C1341.26,-154.527 1305.4,-112.08 1284.67,-87.5443"/>
<polygon fill="midnightblue" stroke="midnightblue" points="1287.15,-85.0593 1278.02,-79.6792 1281.8,-89.5768 1287.15,-85.0593"/>
</g>
<!-- Node10&#45;&gt;Node8 -->
<g id="edge30" class="edge"><title>Node10&#45;&gt;Node8</title>
<path fill="none" stroke="midnightblue" d="M808.586,-124.605C948.991,-119.781 1232.61,-106.97 1328,-80 1348.66,-74.1595 1350.25,-63.4979 1371,-58 1539.58,-13.3364 1978.07,-49.5594 2167.76,-21.7785"/>
<polygon fill="midnightblue" stroke="midnightblue" points="2168.36,-25.2273 2177.7,-20.225 2167.28,-18.3112 2168.36,-25.2273"/>
</g>
<!-- Node10&#45;&gt;Node9 -->
<g id="edge28" class="edge"><title>Node10&#45;&gt;Node9</title>
<path fill="none" stroke="midnightblue" d="M687.767,-116.438C658.184,-108.081 617.325,-95.2926 583,-80 565.174,-72.0581 563.43,-64.4169 545,-58 443.704,-22.7307 409.559,-41.4309 300.267,-22.0754"/>
<polygon fill="midnightblue" stroke="midnightblue" points="300.63,-18.5835 290.162,-20.2163 299.364,-25.468 300.63,-18.5835"/>
</g>
<!-- Node11 -->
<g id="node21" class="node"><title>Node11</title>
<polygon fill="white" stroke="#bfbfbf" points="308,-0.5 308,-21.5 362,-21.5 362,-0.5 308,-0.5"/>
<text text-anchor="middle" x="335" y="-8.5" font-family="Helvetica,sans-Serif" font-size="10.00">iostream</text>
</g>
<!-- Node10&#45;&gt;Node11 -->
<g id="edge20" class="edge"><title>Node10&#45;&gt;Node11</title>
<path fill="none" stroke="midnightblue" d="M701.679,-116.398C679.786,-107.352 647.962,-93.6735 621,-80 603.595,-71.1734 601.355,-64.6275 583,-58 496.094,-26.6209 466.002,-42.839 371.947,-21.9514"/>
<polygon fill="midnightblue" stroke="midnightblue" points="372.556,-18.5 362.025,-19.6646 370.983,-25.3212 372.556,-18.5"/>
</g>
<!-- Node12 -->
<g id="node23" class="node"><title>Node12</title>
<polygon fill="white" stroke="#bfbfbf" points="710.5,-58.5 710.5,-79.5 745.5,-79.5 745.5,-58.5 710.5,-58.5"/>
<text text-anchor="middle" x="728" y="-66.5" font-family="Helvetica,sans-Serif" font-size="10.00">map</text>
</g>
<!-- Node10&#45;&gt;Node12 -->
<g id="edge22" class="edge"><title>Node10&#45;&gt;Node12</title>
<path fill="none" stroke="midnightblue" d="M728,-116.362C728,-108.922 728,-98.7427 728,-89.7276"/>
<polygon fill="midnightblue" stroke="midnightblue" points="731.5,-89.5706 728,-79.5707 724.5,-89.5707 731.5,-89.5706"/>
</g>
<!-- Node13 -->
<g id="node25" class="node"><title>Node13</title>
<polygon fill="white" stroke="#bfbfbf" points="380,-0.5 380,-21.5 424,-21.5 424,-0.5 380,-0.5"/>
<text text-anchor="middle" x="402" y="-8.5" font-family="Helvetica,sans-Serif" font-size="10.00">vector</text>
</g>
<!-- Node10&#45;&gt;Node13 -->
<g id="edge24" class="edge"><title>Node10&#45;&gt;Node13</title>
<path fill="none" stroke="midnightblue" d="M712.275,-116.385C684.966,-98.0211 630.747,-61.9039 621,-58 544.957,-27.5412 517.172,-43.027 434.082,-21.9457"/>
<polygon fill="midnightblue" stroke="midnightblue" points="434.785,-18.5115 424.223,-19.3407 432.997,-25.2792 434.785,-18.5115"/>
</g>
<!-- Node14 -->
<g id="node27" class="node"><title>Node14</title>
<polygon fill="white" stroke="#bfbfbf" points="441.5,-0.5 441.5,-21.5 532.5,-21.5 532.5,-0.5 441.5,-0.5"/>
<text text-anchor="middle" x="487" y="-8.5" font-family="Helvetica,sans-Serif" font-size="10.00">yarp/sig/Vector.h</text>
</g>
<!-- Node10&#45;&gt;Node14 -->
<g id="edge26" class="edge"><title>Node10&#45;&gt;Node14</title>
<path fill="none" stroke="midnightblue" d="M720.339,-116.415C708.77,-101.204 685.371,-73.3122 659,-58 639.235,-46.5236 585.046,-32.6494 542.721,-22.9618"/>
<polygon fill="midnightblue" stroke="midnightblue" points="543.32,-19.5089 532.794,-20.7159 541.775,-26.3363 543.32,-19.5089"/>
</g>
<!-- Node15 -->
<g id="node31" class="node"><title>Node15</title>
<polygon fill="white" stroke="#bfbfbf" points="763,-58.5 763,-79.5 1005,-79.5 1005,-58.5 763,-58.5"/>
<text text-anchor="middle" x="884" y="-66.5" font-family="Helvetica,sans-Serif" font-size="10.00">yarpWholeBodyInterface/yarpWholeBodyInterface.h</text>
</g>
<!-- Node10&#45;&gt;Node15 -->
<g id="edge32" class="edge"><title>Node10&#45;&gt;Node15</title>
<path fill="none" stroke="midnightblue" d="M756.25,-116.497C781.462,-107.123 818.576,-93.3242 846.312,-83.0122"/>
<polygon fill="midnightblue" stroke="midnightblue" points="847.543,-86.2886 855.697,-79.5231 845.104,-79.7274 847.543,-86.2886"/>
</g>
<!-- Node10&#45;&gt;Node16 -->
<g id="edge34" class="edge"><title>Node10&#45;&gt;Node16</title>
<path fill="none" stroke="midnightblue" d="M808.701,-118.348C917.945,-106.636 1110.45,-85.9985 1208.26,-75.5114"/>
<polygon fill="midnightblue" stroke="midnightblue" points="1208.72,-78.9831 1218.29,-74.4369 1207.97,-72.023 1208.72,-78.9831"/>
</g>
<!-- Node16&#45;&gt;Node4 -->
<g id="edge42" class="edge"><title>Node16&#45;&gt;Node4</title>
<path fill="none" stroke="midnightblue" d="M1319.67,-68.2392C1523.92,-64.9974 2287.26,-51.1489 2527,-22 2534.36,-21.1057 2542.21,-19.7189 2549.55,-18.2277"/>
<polygon fill="midnightblue" stroke="midnightblue" points="2550.45,-21.6142 2559.49,-16.0907 2548.98,-14.7705 2550.45,-21.6142"/>
</g>
<!-- Node16&#45;&gt;Node6 -->
<g id="edge36" class="edge"><title>Node16&#45;&gt;Node6</title>
<path fill="none" stroke="midnightblue" d="M1319.61,-67.7884C1526.62,-62.7274 2304.7,-42.6465 2455.67,-21.6291"/>
<polygon fill="midnightblue" stroke="midnightblue" points="2456.47,-25.0475 2465.81,-20.0497 2455.39,-18.131 2456.47,-25.0475"/>
</g>
<!-- Node16&#45;&gt;Node7 -->
<g id="edge78" class="edge"><title>Node16&#45;&gt;Node7</title>
<path fill="none" stroke="midnightblue" d="M1319.51,-64.5972C1346.12,-62.3879 1379.31,-59.805 1409,-58 1776.86,-35.6349 1873.64,-62.5981 2243.32,-22.0595"/>
<polygon fill="midnightblue" stroke="midnightblue" points="2243.94,-25.512 2253.49,-20.934 2243.17,-18.5544 2243.94,-25.512"/>
</g>
<!-- Node16&#45;&gt;Node8 -->
<g id="edge76" class="edge"><title>Node16&#45;&gt;Node8</title>
<path fill="none" stroke="midnightblue" d="M1319.57,-59.6967C1324.1,-59.0486 1328.63,-58.4679 1333,-58 1699.45,-18.7792 1800.18,-80.9902 2167.59,-21.8781"/>
<polygon fill="midnightblue" stroke="midnightblue" points="2168.39,-25.2929 2177.7,-20.2311 2167.27,-18.3839 2168.39,-25.2929"/>
</g>
<!-- Node16&#45;&gt;Node9 -->
<g id="edge66" class="edge"><title>Node16&#45;&gt;Node9</title>
<path fill="none" stroke="midnightblue" d="M1218.26,-66.7975C1033.29,-58.7362 401.094,-30.8954 300.229,-21.6369"/>
<polygon fill="midnightblue" stroke="midnightblue" points="300.432,-18.1383 290.11,-20.5298 299.67,-25.0968 300.432,-18.1383"/>
</g>
<!-- Node16&#45;&gt;Node11 -->
<g id="edge40" class="edge"><title>Node16&#45;&gt;Node11</title>
<path fill="none" stroke="midnightblue" d="M1218.28,-66.6887C1042.88,-58.6521 467.871,-31.9369 372.527,-21.4749"/>
<polygon fill="midnightblue" stroke="midnightblue" points="372.725,-17.9702 362.349,-20.1102 371.795,-24.9082 372.725,-17.9702"/>
</g>
<!-- Node16&#45;&gt;Node13 -->
<g id="edge44" class="edge"><title>Node16&#45;&gt;Node13</title>
<path fill="none" stroke="midnightblue" d="M1218.49,-66.5575C1051.68,-58.4417 524.332,-32.3726 434.172,-21.2375"/>
<polygon fill="midnightblue" stroke="midnightblue" points="434.55,-17.7548 424.136,-19.7068 433.494,-24.6747 434.55,-17.7548"/>
</g>
<!-- Node16&#45;&gt;Node14 -->
<g id="edge72" class="edge"><title>Node16&#45;&gt;Node14</title>
<path fill="none" stroke="midnightblue" d="M1218.43,-66.6367C1079.18,-59.9892 691.19,-40.4881 542.851,-22.0668"/>
<polygon fill="midnightblue" stroke="midnightblue" points="542.957,-18.5515 532.591,-20.7425 542.061,-25.4939 542.957,-18.5515"/>
</g>
<!-- Node17 -->
<g id="node36" class="node"><title>Node17</title>
<polygon fill="white" stroke="#bfbfbf" points="1810,-0.5 1810,-21.5 1854,-21.5 1854,-0.5 1810,-0.5"/>
<text text-anchor="middle" x="1832" y="-8.5" font-family="Helvetica,sans-Serif" font-size="10.00">cmath</text>
</g>
<!-- Node16&#45;&gt;Node17 -->
<g id="edge38" class="edge"><title>Node16&#45;&gt;Node17</title>
<path fill="none" stroke="midnightblue" d="M1319.59,-59.8556C1324.12,-59.1735 1328.64,-58.5416 1333,-58 1536.79,-32.7047 1595.11,-64.2428 1799.98,-21.7306"/>
<polygon fill="midnightblue" stroke="midnightblue" points="1800.79,-25.1378 1809.85,-19.6497 1799.34,-18.2885 1800.79,-25.1378"/>
</g>
<!-- Node18 -->
<g id="node41" class="node"><title>Node18</title>
<polygon fill="white" stroke="#bfbfbf" points="1872,-0.5 1872,-21.5 1924,-21.5 1924,-0.5 1872,-0.5"/>
<text text-anchor="middle" x="1898" y="-8.5" font-family="Helvetica,sans-Serif" font-size="10.00">sstream</text>
</g>
<!-- Node16&#45;&gt;Node18 -->
<g id="edge46" class="edge"><title>Node16&#45;&gt;Node18</title>
<path fill="none" stroke="midnightblue" d="M1319.59,-59.8134C1324.11,-59.1404 1328.63,-58.5221 1333,-58 1564.11,-30.3637 1629.15,-64.7008 1861.67,-21.8615"/>
<polygon fill="midnightblue" stroke="midnightblue" points="1862.61,-25.2467 1871.8,-19.9674 1861.32,-18.3661 1862.61,-25.2467"/>
</g>
<!-- Node19 -->
<g id="node43" class="node"><title>Node19</title>
<polygon fill="white" stroke="#bfbfbf" points="1941.5,-0.5 1941.5,-21.5 2056.5,-21.5 2056.5,-0.5 1941.5,-0.5"/>
<text text-anchor="middle" x="1999" y="-8.5" font-family="Helvetica,sans-Serif" font-size="10.00">yarp/os/BufferedPort.h</text>
</g>
<!-- Node16&#45;&gt;Node19 -->
<g id="edge48" class="edge"><title>Node16&#45;&gt;Node19</title>
<path fill="none" stroke="midnightblue" d="M1319.58,-59.7763C1324.11,-59.1111 1328.63,-58.5048 1333,-58 1595.14,-27.7017 1665.83,-51.4067 1931.52,-22.0688"/>
<polygon fill="midnightblue" stroke="midnightblue" points="1931.91,-25.547 1941.46,-20.9567 1931.13,-18.5904 1931.91,-25.547"/>
</g>
<!-- Node20 -->
<g id="node45" class="node"><title>Node20</title>
<polygon fill="white" stroke="#bfbfbf" points="2074,-0.5 2074,-21.5 2160,-21.5 2160,-0.5 2074,-0.5"/>
<text text-anchor="middle" x="2117" y="-8.5" font-family="Helvetica,sans-Serif" font-size="10.00">yarp/os/Bottle.h</text>
</g>
<!-- Node16&#45;&gt;Node20 -->
<g id="edge50" class="edge"><title>Node16&#45;&gt;Node20</title>
<path fill="none" stroke="midnightblue" d="M1319.58,-59.7255C1324.11,-59.0712 1328.63,-58.4813 1333,-58 1653.45,-22.7127 1740.2,-62.9958 2063.83,-21.958"/>
<polygon fill="midnightblue" stroke="midnightblue" points="2064.49,-25.4017 2073.96,-20.6562 2063.6,-18.4588 2064.49,-25.4017"/>
</g>
<!-- Node16&#45;&gt;Node21 -->
<g id="edge52" class="edge"><title>Node16&#45;&gt;Node21</title>
<path fill="none" stroke="midnightblue" d="M1218.2,-66.7651C1166.74,-64.5113 1084.84,-60.9525 1014,-58 619.548,-41.5591 516.601,-63.4366 120.789,-22.0799"/>
<polygon fill="midnightblue" stroke="midnightblue" points="121.099,-18.5933 110.788,-21.028 120.367,-25.5549 121.099,-18.5933"/>
</g>
<!-- Node22 -->
<g id="node49" class="node"><title>Node22</title>
<polygon fill="white" stroke="#bfbfbf" points="549.5,-0.5 549.5,-21.5 678.5,-21.5 678.5,-0.5 549.5,-0.5"/>
<text text-anchor="middle" x="614" y="-8.5" font-family="Helvetica,sans-Serif" font-size="10.00">yarp/os/ResourceFinder.h</text>
</g>
<!-- Node16&#45;&gt;Node22 -->
<g id="edge54" class="edge"><title>Node16&#45;&gt;Node22</title>
<path fill="none" stroke="midnightblue" d="M1218.28,-66.0853C1118.74,-60.1082 890.601,-45.1457 689.033,-22.1789"/>
<polygon fill="midnightblue" stroke="midnightblue" points="689.182,-18.673 678.848,-21.0089 688.383,-25.6273 689.182,-18.673"/>
</g>
<!-- Node23 -->
<g id="node51" class="node"><title>Node23</title>
<polygon fill="white" stroke="#bfbfbf" points="696,-0.5 696,-21.5 806,-21.5 806,-0.5 696,-0.5"/>
<text text-anchor="middle" x="751" y="-8.5" font-family="Helvetica,sans-Serif" font-size="10.00">yarp/os/PortReader.h</text>
</g>
<!-- Node16&#45;&gt;Node23 -->
<g id="edge56" class="edge"><title>Node16&#45;&gt;Node23</title>
<path fill="none" stroke="midnightblue" d="M1218.48,-64.8842C1136.32,-57.9462 968.427,-42.754 816.13,-22.0848"/>
<polygon fill="midnightblue" stroke="midnightblue" points="816.504,-18.6035 806.122,-20.7155 815.555,-25.5389 816.504,-18.6035"/>
</g>
<!-- Node24 -->
<g id="node53" class="node"><title>Node24</title>
<polygon fill="white" stroke="#bfbfbf" points="824,-0.5 824,-21.5 928,-21.5 928,-0.5 824,-0.5"/>
<text text-anchor="middle" x="876" y="-8.5" font-family="Helvetica,sans-Serif" font-size="10.00">yarp/os/RpcClient.h</text>
</g>
<!-- Node16&#45;&gt;Node24 -->
<g id="edge58" class="edge"><title>Node16&#45;&gt;Node24</title>
<path fill="none" stroke="midnightblue" d="M1218.29,-62.4268C1155.13,-54.1056 1043.67,-38.9802 938.389,-22.1815"/>
<polygon fill="midnightblue" stroke="midnightblue" points="938.649,-18.6787 928.221,-20.5508 937.541,-25.5903 938.649,-18.6787"/>
</g>
<!-- Node25 -->
<g id="node55" class="node"><title>Node25</title>
<polygon fill="white" stroke="#bfbfbf" points="945.5,-0.5 945.5,-21.5 1052.5,-21.5 1052.5,-0.5 945.5,-0.5"/>
<text text-anchor="middle" x="999" y="-8.5" font-family="Helvetica,sans-Serif" font-size="10.00">yarp/os/RpcServer.h</text>
</g>
<!-- Node16&#45;&gt;Node25 -->
<g id="edge60" class="edge"><title>Node16&#45;&gt;Node25</title>
<path fill="none" stroke="midnightblue" d="M1220.11,-58.4966C1174.56,-48.7136 1106.58,-34.1107 1058.04,-23.6819"/>
<polygon fill="midnightblue" stroke="midnightblue" points="1058.5,-20.2014 1047.99,-21.5231 1057.03,-27.0453 1058.5,-20.2014"/>
</g>
<!-- Node26 -->
<g id="node57" class="node"><title>Node26</title>
<polygon fill="white" stroke="#bfbfbf" points="1069.5,-0.5 1069.5,-21.5 1210.5,-21.5 1210.5,-0.5 1069.5,-0.5"/>
<text text-anchor="middle" x="1140" y="-8.5" font-family="Helvetica,sans-Serif" font-size="10.00">yarp/os/ConnectionReader.h</text>
</g>
<!-- Node16&#45;&gt;Node26 -->
<g id="edge62" class="edge"><title>Node16&#45;&gt;Node26</title>
<path fill="none" stroke="midnightblue" d="M1245.64,-58.4966C1225.31,-49.3562 1195.62,-36.0082 1172.89,-25.7883"/>
<polygon fill="midnightblue" stroke="midnightblue" points="1174.18,-22.5298 1163.62,-21.6212 1171.31,-28.9142 1174.18,-22.5298"/>
</g>
<!-- Node27 -->
<g id="node59" class="node"><title>Node27</title>
<polygon fill="white" stroke="#bfbfbf" points="1228,-0.5 1228,-21.5 1310,-21.5 1310,-0.5 1228,-0.5"/>
<text text-anchor="middle" x="1269" y="-8.5" font-family="Helvetica,sans-Serif" font-size="10.00">yarp/os/Time.h</text>
</g>
<!-- Node16&#45;&gt;Node27 -->
<g id="edge64" class="edge"><title>Node16&#45;&gt;Node27</title>
<path fill="none" stroke="midnightblue" d="M1269,-58.3619C1269,-50.9219 1269,-40.7427 1269,-31.7276"/>
<polygon fill="midnightblue" stroke="midnightblue" points="1272.5,-31.5706 1269,-21.5707 1265.5,-31.5707 1272.5,-31.5706"/>
</g>
<!-- Node28 -->
<g id="node62" class="node"><title>Node28</title>
<polygon fill="white" stroke="#bfbfbf" points="1327.5,-0.5 1327.5,-21.5 1434.5,-21.5 1434.5,-0.5 1327.5,-0.5"/>
<text text-anchor="middle" x="1381" y="-8.5" font-family="Helvetica,sans-Serif" font-size="10.00">yarp/os/LogStream.h</text>
</g>
<!-- Node16&#45;&gt;Node28 -->
<g id="edge68" class="edge"><title>Node16&#45;&gt;Node28</title>
<path fill="none" stroke="midnightblue" d="M1289.28,-58.4966C1306.62,-49.5194 1331.79,-36.4835 1351.38,-26.3387"/>
<polygon fill="midnightblue" stroke="midnightblue" points="1353.22,-29.3278 1360.49,-21.6212 1350,-23.1118 1353.22,-29.3278"/>
</g>
<!-- Node29 -->
<g id="node64" class="node"><title>Node29</title>
<polygon fill="white" stroke="#bfbfbf" points="1451.5,-0.5 1451.5,-21.5 1548.5,-21.5 1548.5,-0.5 1451.5,-0.5"/>
<text text-anchor="middle" x="1500" y="-8.5" font-family="Helvetica,sans-Serif" font-size="10.00">yarp/os/Property.h</text>
</g>
<!-- Node16&#45;&gt;Node29 -->
<g id="edge70" class="edge"><title>Node16&#45;&gt;Node29</title>
<path fill="none" stroke="midnightblue" d="M1310.83,-58.4966C1349.39,-48.8159 1406.74,-34.4156 1448.18,-24.0105"/>
<polygon fill="midnightblue" stroke="midnightblue" points="1449.24,-27.353 1458.09,-21.5231 1447.54,-20.5637 1449.24,-27.353"/>
</g>
<!-- Node30 -->
<g id="node67" class="node"><title>Node30</title>
<polygon fill="white" stroke="#bfbfbf" points="1565.5,-0.5 1565.5,-21.5 1654.5,-21.5 1654.5,-0.5 1565.5,-0.5"/>
<text text-anchor="middle" x="1610" y="-8.5" font-family="Helvetica,sans-Serif" font-size="10.00">yarp/sig/Matrix.h</text>
</g>
<!-- Node16&#45;&gt;Node30 -->
<g id="edge74" class="edge"><title>Node16&#45;&gt;Node30</title>
<path fill="none" stroke="midnightblue" d="M1319.65,-60.2428C1324.16,-59.478 1328.66,-58.7213 1333,-58 1429.36,-41.9765 1456.17,-40.3407 1555.64,-22.1975"/>
<polygon fill="midnightblue" stroke="midnightblue" points="1556.29,-25.6363 1565.5,-20.3892 1555.03,-18.7512 1556.29,-25.6363"/>
</g>
<!-- Node31 -->
<g id="node71" class="node"><title>Node31</title>
<polygon fill="white" stroke="#bfbfbf" points="1671.5,-0.5 1671.5,-21.5 1792.5,-21.5 1792.5,-0.5 1671.5,-0.5"/>
<text text-anchor="middle" x="1732" y="-8.5" font-family="Helvetica,sans-Serif" font-size="10.00">ocra/util/StringUtilities.h</text>
</g>
<!-- Node16&#45;&gt;Node31 -->
<g id="edge80" class="edge"><title>Node16&#45;&gt;Node31</title>
<path fill="none" stroke="midnightblue" d="M1319.61,-60.0054C1324.13,-59.2913 1328.65,-58.6111 1333,-58 1475.82,-37.9551 1515.03,-41.4466 1661.2,-22.1914"/>
<polygon fill="midnightblue" stroke="midnightblue" points="1661.99,-25.6163 1671.44,-20.8276 1661.07,-18.6775 1661.99,-25.6163"/>
</g>
<!-- Node16&#45;&gt;Node32 -->
<g id="edge82" class="edge"><title>Node16&#45;&gt;Node32</title>
<path fill="none" stroke="midnightblue" d="M1319.62,-65.5663C1355.23,-63.2254 1404.02,-60.1688 1447,-58 1852.39,-37.545 1960.04,-78.2045 2365.34,-22.0008"/>
<polygon fill="midnightblue" stroke="midnightblue" points="2365.86,-25.4628 2375.28,-20.6121 2364.89,-18.5302 2365.86,-25.4628"/>
</g>
<!-- Node16&#45;&gt;Node33 -->
<g id="edge84" class="edge"><title>Node16&#45;&gt;Node33</title>
<path fill="none" stroke="midnightblue" d="M1218.37,-66.7984C1019.86,-58.1618 301.173,-26.8548 206.285,-21.1568"/>
<polygon fill="midnightblue" stroke="midnightblue" points="206.368,-17.6535 196.138,-20.41 205.854,-24.6347 206.368,-17.6535"/>
</g>
<!-- Node36&#45;&gt;Node3 -->
<g id="edge164" class="edge"><title>Node36&#45;&gt;Node3</title>
<path fill="none" stroke="midnightblue" d="M2834.01,-351.641C3017.96,-338.015 3342.41,-303.485 3282,-232 3245.43,-188.728 2866.23,-147.725 2713.87,-132.869"/>
<polygon fill="midnightblue" stroke="midnightblue" points="2714.02,-129.368 2703.73,-131.886 2713.34,-136.335 2714.02,-129.368"/>
</g>
<!-- Node37 -->
<g id="node87" class="node"><title>Node37</title>
<a xlink:href="ShapeConstraints_8h.html" target="_top" xlink:title="walking&#45;client/constraints/ShapeConstraints.h">
<polygon fill="white" stroke="black" points="2707,-290.5 2707,-311.5 2923,-311.5 2923,-290.5 2707,-290.5"/>
<text text-anchor="middle" x="2815" y="-298.5" font-family="Helvetica,sans-Serif" font-size="10.00">walking&#45;client/constraints/ShapeConstraints.h</text>
</a>
</g>
<!-- Node36&#45;&gt;Node37 -->
<g id="edge100" class="edge"><title>Node36&#45;&gt;Node37</title>
<path fill="none" stroke="midnightblue" d="M2732.52,-348.362C2747.9,-339.532 2770,-326.844 2787.45,-316.822"/>
<polygon fill="midnightblue" stroke="midnightblue" points="2789.66,-319.586 2796.59,-311.571 2786.18,-313.515 2789.66,-319.586"/>
</g>
<!-- Node43 -->
<g id="node105" class="node"><title>Node43</title>
<a xlink:href="AdmissibilityConstraints_8h.html" target="_top" xlink:title="walking&#45;client/constraints/AdmissibilityConstraints.h">
<polygon fill="white" stroke="red" points="2107,-290.5 2107,-311.5 2351,-311.5 2351,-290.5 2107,-290.5"/>
<text text-anchor="middle" x="2229" y="-298.5" font-family="Helvetica,sans-Serif" font-size="10.00">walking&#45;client/constraints/AdmissibilityConstraints.h</text>
</a>
</g>
<!-- Node36&#45;&gt;Node43 -->
<g id="edge124" class="edge"><title>Node36&#45;&gt;Node43</title>
<path fill="none" stroke="midnightblue" d="M2626.17,-348.497C2541.8,-338.407 2414.55,-323.189 2326.94,-312.713"/>
<polygon fill="midnightblue" stroke="midnightblue" points="2327.34,-309.235 2316.99,-311.523 2326.51,-316.186 2327.34,-309.235"/>
</g>
<!-- Node47 -->
<g id="node117" class="node"><title>Node47</title>
<a xlink:href="StepController_8h.html" target="_top" xlink:title="walking&#45;client/StepController.h">
<polygon fill="white" stroke="red" points="3124.5,-232.5 3124.5,-253.5 3273.5,-253.5 3273.5,-232.5 3124.5,-232.5"/>
<text text-anchor="middle" x="3199" y="-240.5" font-family="Helvetica,sans-Serif" font-size="10.00">walking&#45;client/StepController.h</text>
</a>
</g>
<!-- Node36&#45;&gt;Node47 -->
<g id="edge140" class="edge"><title>Node36&#45;&gt;Node47</title>
<path fill="none" stroke="midnightblue" d="M2765.67,-348.476C2809.92,-339.315 2875.3,-325.433 2932,-312 3008.59,-293.855 3096.93,-270.558 3150.33,-256.21"/>
<polygon fill="midnightblue" stroke="midnightblue" points="3151.46,-259.53 3160.21,-253.551 3149.64,-252.771 3151.46,-259.53"/>
</g>
<!-- Node48 -->
<g id="node120" class="node"><title>Node48</title>
<a xlink:href="BaseOfSupport_8h.html" target="_top" xlink:title="walking&#45;client/BaseOfSupport.h">
<polygon fill="white" stroke="red" points="2535,-290.5 2535,-311.5 2689,-311.5 2689,-290.5 2535,-290.5"/>
<text text-anchor="middle" x="2612" y="-298.5" font-family="Helvetica,sans-Serif" font-size="10.00">walking&#45;client/BaseOfSupport.h</text>
</a>
</g>
<!-- Node36&#45;&gt;Node48 -->
<g id="edge144" class="edge"><title>Node36&#45;&gt;Node48</title>
<path fill="none" stroke="midnightblue" d="M2695.29,-348.362C2679.62,-339.45 2657.04,-326.609 2639.34,-316.545"/>
<polygon fill="midnightblue" stroke="midnightblue" points="2641.01,-313.471 2630.59,-311.571 2637.55,-319.556 2641.01,-313.471"/>
</g>
<!-- Node38 -->
<g id="node89" class="node"><title>Node38</title>
<a xlink:href="Constraint_8h.html" target="_top" xlink:title="A constraint base class.">
<polygon fill="white" stroke="red" points="2400.5,-174.5 2400.5,-195.5 2583.5,-195.5 2583.5,-174.5 2400.5,-174.5"/>
<text text-anchor="middle" x="2492" y="-182.5" font-family="Helvetica,sans-Serif" font-size="10.00">walking&#45;client/constraints/Constraint.h</text>
</a>
</g>
<!-- Node37&#45;&gt;Node38 -->
<g id="edge102" class="edge"><title>Node37&#45;&gt;Node38</title>
<path fill="none" stroke="midnightblue" d="M2838.52,-290.296C2864.69,-276.973 2900.94,-253.363 2882,-232 2863.11,-210.692 2702.83,-197.181 2593.72,-190.363"/>
<polygon fill="midnightblue" stroke="midnightblue" points="2593.85,-186.865 2583.65,-189.744 2593.42,-193.852 2593.85,-186.865"/>
</g>
<!-- Node40 -->
<g id="node96" class="node"><title>Node40</title>
<a xlink:href="Bounding_8h.html" target="_top" xlink:title="walking&#45;client/constraints/Bounding.h">
<polygon fill="white" stroke="black" points="2928.5,-232.5 2928.5,-253.5 3107.5,-253.5 3107.5,-232.5 2928.5,-232.5"/>
<text text-anchor="middle" x="3018" y="-240.5" font-family="Helvetica,sans-Serif" font-size="10.00">walking&#45;client/constraints/Bounding.h</text>
</a>
</g>
<!-- Node37&#45;&gt;Node40 -->
<g id="edge112" class="edge"><title>Node37&#45;&gt;Node40</title>
<path fill="none" stroke="midnightblue" d="M2851.76,-290.497C2885.29,-280.918 2934.98,-266.72 2971.3,-256.342"/>
<polygon fill="midnightblue" stroke="midnightblue" points="2972.52,-259.636 2981.17,-253.523 2970.59,-252.905 2972.52,-259.636"/>
</g>
<!-- Node41 -->
<g id="node99" class="node"><title>Node41</title>
<a xlink:href="Constancy_8h.html" target="_top" xlink:title="walking&#45;client/constraints/Constancy.h">
<polygon fill="white" stroke="black" points="2438.5,-232.5 2438.5,-253.5 2623.5,-253.5 2623.5,-232.5 2438.5,-232.5"/>
<text text-anchor="middle" x="2531" y="-240.5" font-family="Helvetica,sans-Serif" font-size="10.00">walking&#45;client/constraints/Constancy.h</text>
</a>
</g>
<!-- Node37&#45;&gt;Node41 -->
<g id="edge116" class="edge"><title>Node37&#45;&gt;Node41</title>
<path fill="none" stroke="midnightblue" d="M2763.57,-290.497C2715.47,-280.673 2643.56,-265.988 2592.46,-255.551"/>
<polygon fill="midnightblue" stroke="midnightblue" points="2593.02,-252.095 2582.53,-253.523 2591.62,-258.953 2593.02,-252.095"/>
</g>
<!-- Node42 -->
<g id="node102" class="node"><title>Node42</title>
<a xlink:href="Sequentiality_8h.html" target="_top" xlink:title="walking&#45;client/constraints/Sequentiality.h">
<polygon fill="white" stroke="black" points="2679,-232.5 2679,-253.5 2873,-253.5 2873,-232.5 2679,-232.5"/>
<text text-anchor="middle" x="2776" y="-240.5" font-family="Helvetica,sans-Serif" font-size="10.00">walking&#45;client/constraints/Sequentiality.h</text>
</a>
</g>
<!-- Node37&#45;&gt;Node42 -->
<g id="edge120" class="edge"><title>Node37&#45;&gt;Node42</title>
<path fill="none" stroke="midnightblue" d="M2807.85,-290.362C2802.51,-282.431 2795.09,-271.389 2788.75,-261.961"/>
<polygon fill="midnightblue" stroke="midnightblue" points="2791.59,-259.916 2783.11,-253.571 2785.78,-263.822 2791.59,-259.916"/>
</g>
<!-- Node38&#45;&gt;Node3 -->
<g id="edge104" class="edge"><title>Node38&#45;&gt;Node3</title>
<path fill="none" stroke="midnightblue" d="M2520.79,-174.497C2546.49,-165.123 2584.32,-151.324 2612.59,-141.012"/>
<polygon fill="midnightblue" stroke="midnightblue" points="2613.96,-144.238 2622.15,-137.523 2611.56,-137.662 2613.96,-144.238"/>
</g>
<!-- Node38&#45;&gt;Node6 -->
<g id="edge110" class="edge"><title>Node38&#45;&gt;Node6</title>
<path fill="none" stroke="midnightblue" d="M2492,-174.377C2492,-146.293 2492,-69.6735 2492,-32.2027"/>
<polygon fill="midnightblue" stroke="midnightblue" points="2495.5,-31.9277 2492,-21.9277 2488.5,-31.9278 2495.5,-31.9277"/>
</g>
<!-- Node38&#45;&gt;Node35 -->
<g id="edge106" class="edge"><title>Node38&#45;&gt;Node35</title>
<path fill="none" stroke="midnightblue" d="M2470.45,-174.497C2451.86,-165.438 2424.8,-152.246 2403.9,-142.063"/>
<polygon fill="midnightblue" stroke="midnightblue" points="2405.31,-138.856 2394.79,-137.621 2402.25,-145.149 2405.31,-138.856"/>
</g>
<!-- Node39 -->
<g id="node93" class="node"><title>Node39</title>
<polygon fill="white" stroke="#bfbfbf" points="2015.5,-116.5 2015.5,-137.5 2132.5,-137.5 2132.5,-116.5 2015.5,-116.5"/>
<text text-anchor="middle" x="2074" y="-124.5" font-family="Helvetica,sans-Serif" font-size="10.00">ocra/util/ErrorsHelper.h</text>
</g>
<!-- Node38&#45;&gt;Node39 -->
<g id="edge108" class="edge"><title>Node38&#45;&gt;Node39</title>
<path fill="none" stroke="midnightblue" d="M2416.3,-174.497C2338.45,-163.693 2218.23,-147.013 2142.94,-136.566"/>
<polygon fill="midnightblue" stroke="midnightblue" points="2143.01,-133.042 2132.62,-135.134 2142.05,-139.975 2143.01,-133.042"/>
</g>
<!-- Node40&#45;&gt;Node38 -->
<g id="edge114" class="edge"><title>Node40&#45;&gt;Node38</title>
<path fill="none" stroke="midnightblue" d="M2928.47,-233.128C2835.71,-222.9 2690.98,-206.941 2593.89,-196.235"/>
<polygon fill="midnightblue" stroke="midnightblue" points="2594.09,-192.736 2583.77,-195.119 2593.33,-199.694 2594.09,-192.736"/>
</g>
<!-- Node41&#45;&gt;Node38 -->
<g id="edge118" class="edge"><title>Node41&#45;&gt;Node38</title>
<path fill="none" stroke="midnightblue" d="M2523.85,-232.362C2518.51,-224.431 2511.09,-213.389 2504.75,-203.961"/>
<polygon fill="midnightblue" stroke="midnightblue" points="2507.59,-201.916 2499.11,-195.571 2501.78,-205.822 2507.59,-201.916"/>
</g>
<!-- Node42&#45;&gt;Node38 -->
<g id="edge122" class="edge"><title>Node42&#45;&gt;Node38</title>
<path fill="none" stroke="midnightblue" d="M2724.57,-232.497C2676.47,-222.673 2604.56,-207.988 2553.46,-197.551"/>
<polygon fill="midnightblue" stroke="midnightblue" points="2554.02,-194.095 2543.53,-195.523 2552.62,-200.953 2554.02,-194.095"/>
</g>
<!-- Node43&#45;&gt;Node38 -->
<g id="edge126" class="edge"><title>Node43&#45;&gt;Node38</title>
<path fill="none" stroke="midnightblue" d="M2259.66,-290.475C2285.19,-281.476 2322.34,-267.822 2354,-254 2392.43,-237.222 2435.46,-215.163 2463.1,-200.554"/>
<polygon fill="midnightblue" stroke="midnightblue" points="2465.01,-203.502 2472.2,-195.719 2461.73,-197.32 2465.01,-203.502"/>
</g>
<!-- Node44 -->
<g id="node108" class="node"><title>Node44</title>
<a xlink:href="SSDSAlternation_8h.html" target="_top" xlink:title="walking&#45;client/constraints/SSDSAlternation.h">
<polygon fill="white" stroke="black" points="1667,-232.5 1667,-253.5 1879,-253.5 1879,-232.5 1667,-232.5"/>
<text text-anchor="middle" x="1773" y="-240.5" font-family="Helvetica,sans-Serif" font-size="10.00">walking&#45;client/constraints/SSDSAlternation.h</text>
</a>
</g>
<!-- Node43&#45;&gt;Node44 -->
<g id="edge128" class="edge"><title>Node43&#45;&gt;Node44</title>
<path fill="none" stroke="midnightblue" d="M2146.42,-290.497C2067.33,-280.437 1948.18,-265.282 1865.84,-254.808"/>
<polygon fill="midnightblue" stroke="midnightblue" points="1866.09,-251.313 1855.73,-253.523 1865.21,-258.257 1866.09,-251.313"/>
</g>
<!-- Node45 -->
<g id="node111" class="node"><title>Node45</title>
<a xlink:href="SingleSupport_8h.html" target="_top" xlink:title="walking&#45;client/constraints/SingleSupport.h">
<polygon fill="white" stroke="black" points="1896.5,-232.5 1896.5,-253.5 2095.5,-253.5 2095.5,-232.5 1896.5,-232.5"/>
<text text-anchor="middle" x="1996" y="-240.5" font-family="Helvetica,sans-Serif" font-size="10.00">walking&#45;client/constraints/SingleSupport.h</text>
</a>
</g>
<!-- Node43&#45;&gt;Node45 -->
<g id="edge132" class="edge"><title>Node43&#45;&gt;Node45</title>
<path fill="none" stroke="midnightblue" d="M2186.81,-290.497C2147.83,-280.795 2089.82,-266.355 2048,-255.945"/>
<polygon fill="midnightblue" stroke="midnightblue" points="2048.82,-252.542 2038.27,-253.523 2047.13,-259.335 2048.82,-252.542"/>
</g>
<!-- Node46 -->
<g id="node114" class="node"><title>Node46</title>
<a xlink:href="ContactConfigHistory_8h.html" target="_top" xlink:title="walking&#45;client/constraints/ContactConfigHistory.h">
<polygon fill="white" stroke="black" points="2112.5,-232.5 2112.5,-253.5 2345.5,-253.5 2345.5,-232.5 2112.5,-232.5"/>
<text text-anchor="middle" x="2229" y="-240.5" font-family="Helvetica,sans-Serif" font-size="10.00">walking&#45;client/constraints/ContactConfigHistory.h</text>
</a>
</g>
<!-- Node43&#45;&gt;Node46 -->
<g id="edge136" class="edge"><title>Node43&#45;&gt;Node46</title>
<path fill="none" stroke="midnightblue" d="M2229,-290.362C2229,-282.922 2229,-272.743 2229,-263.728"/>
<polygon fill="midnightblue" stroke="midnightblue" points="2232.5,-263.571 2229,-253.571 2225.5,-263.571 2232.5,-263.571"/>
</g>
<!-- Node44&#45;&gt;Node38 -->
<g id="edge130" class="edge"><title>Node44&#45;&gt;Node38</title>
<path fill="none" stroke="midnightblue" d="M1879.2,-232.773C1882.16,-232.509 1885.1,-232.251 1888,-232 2064.4,-216.702 2269.99,-201.199 2390.09,-192.377"/>
<polygon fill="midnightblue" stroke="midnightblue" points="2390.66,-195.845 2400.38,-191.623 2390.15,-188.864 2390.66,-195.845"/>
</g>
<!-- Node45&#45;&gt;Node38 -->
<g id="edge134" class="edge"><title>Node45&#45;&gt;Node38</title>
<path fill="none" stroke="midnightblue" d="M2085.82,-232.497C2172.11,-222.407 2302.24,-207.189 2391.84,-196.713"/>
<polygon fill="midnightblue" stroke="midnightblue" points="2392.48,-200.161 2402.01,-195.523 2391.67,-193.208 2392.48,-200.161"/>
</g>
<!-- Node46&#45;&gt;Node38 -->
<g id="edge138" class="edge"><title>Node46&#45;&gt;Node38</title>
<path fill="none" stroke="midnightblue" d="M2276.63,-232.497C2320.99,-222.714 2387.21,-208.111 2434.49,-197.682"/>
<polygon fill="midnightblue" stroke="midnightblue" points="2435.27,-201.095 2444.28,-195.523 2433.76,-194.259 2435.27,-201.095"/>
</g>
<!-- Node47&#45;&gt;Node3 -->
<g id="edge142" class="edge"><title>Node47&#45;&gt;Node3</title>
<path fill="none" stroke="midnightblue" d="M3148.92,-232.398C3047.71,-210.975 2819.25,-162.615 2710.59,-139.614"/>
<polygon fill="midnightblue" stroke="midnightblue" points="2711.28,-136.182 2700.77,-137.535 2709.83,-143.03 2711.28,-136.182"/>
</g>
<!-- Node48&#45;&gt;Node3 -->
<g id="edge162" class="edge"><title>Node48&#45;&gt;Node3</title>
<path fill="none" stroke="midnightblue" d="M2617.41,-290.454C2621.97,-281.108 2628.33,-266.971 2632,-254 2642.3,-217.535 2647.3,-173.508 2649.5,-148.034"/>
<polygon fill="midnightblue" stroke="midnightblue" points="2653.01,-147.975 2650.32,-137.729 2646.03,-147.42 2653.01,-147.975"/>
</g>
<!-- Node48&#45;&gt;Node35 -->
<g id="edge146" class="edge"><title>Node48&#45;&gt;Node35</title>
<path fill="none" stroke="midnightblue" d="M2552.64,-290.473C2507.39,-281.577 2449.63,-268.066 2430,-254 2394.81,-228.786 2380.96,-176.683 2375.81,-147.661"/>
<polygon fill="midnightblue" stroke="midnightblue" points="2379.27,-147.099 2374.24,-137.773 2372.36,-148.199 2379.27,-147.099"/>
</g>
<!-- Node48&#45;&gt;Node47 -->
<g id="edge160" class="edge"><title>Node48&#45;&gt;Node47</title>
<path fill="none" stroke="midnightblue" d="M2689.34,-290.955C2692.26,-290.624 2695.16,-290.304 2698,-290 2880.15,-270.516 2928.93,-274.118 3114.28,-254.151"/>
<polygon fill="midnightblue" stroke="midnightblue" points="3114.8,-257.615 3124.36,-253.056 3114.04,-250.656 3114.8,-257.615"/>
</g>
<!-- Node48&#45;&gt;Node49 -->
<g id="edge148" class="edge"><title>Node48&#45;&gt;Node49</title>
<path fill="none" stroke="midnightblue" d="M2534.76,-297.609C2339.18,-288.956 1827.87,-265.9 1658,-254 1644.2,-253.033 1629.53,-251.84 1615.34,-250.599"/>
<polygon fill="midnightblue" stroke="midnightblue" points="1615.38,-247.09 1605.11,-249.691 1614.76,-254.062 1615.38,-247.09"/>
</g>
<!-- Node49&#45;&gt;Node3 -->
<g id="edge156" class="edge"><title>Node49&#45;&gt;Node3</title>
<path fill="none" stroke="midnightblue" d="M1605.01,-235.918C1805.84,-215.005 2394.35,-153.724 2588.25,-133.535"/>
<polygon fill="midnightblue" stroke="midnightblue" points="2588.69,-137.008 2598.27,-132.491 2587.96,-130.045 2588.69,-137.008"/>
</g>
<!-- Node49&#45;&gt;Node5 -->
<g id="edge152" class="edge"><title>Node49&#45;&gt;Node5</title>
<path fill="none" stroke="midnightblue" d="M1506.21,-232.497C1478.62,-223.082 1437.94,-209.204 1407.67,-198.877"/>
<polygon fill="midnightblue" stroke="midnightblue" points="1408.44,-195.44 1397.84,-195.523 1406.18,-202.065 1408.44,-195.44"/>
</g>
<!-- Node49&#45;&gt;Node16 -->
<g id="edge158" class="edge"><title>Node49&#45;&gt;Node16</title>
<path fill="none" stroke="midnightblue" d="M1523.09,-232.342C1504.81,-218.458 1471.53,-193.64 1442,-174 1391.73,-140.568 1330.99,-104.707 1296.5,-84.7422"/>
<polygon fill="midnightblue" stroke="midnightblue" points="1297.9,-81.5134 1287.49,-79.5478 1294.41,-87.5767 1297.9,-81.5134"/>
</g>
<!-- Node49&#45;&gt;Node32 -->
<g id="edge150" class="edge"><title>Node49&#45;&gt;Node32</title>
<path fill="none" stroke="midnightblue" d="M1538.51,-232.248C1541.26,-216.828 1548.63,-188.678 1567,-174 1847.11,49.8428 2010.27,-96.0088 2365.18,-22.29"/>
<polygon fill="midnightblue" stroke="midnightblue" points="2366.14,-25.6628 2375.2,-20.1608 2364.69,-18.8157 2366.14,-25.6628"/>
</g>
<!-- Node49&#45;&gt;Node39 -->
<g id="edge154" class="edge"><title>Node49&#45;&gt;Node39</title>
<path fill="none" stroke="midnightblue" d="M1542.99,-232.356C1552.55,-216.529 1572.85,-187.24 1599,-174 1634.37,-156.091 1882.3,-138.693 2005.23,-131.05"/>
<polygon fill="midnightblue" stroke="midnightblue" points="2005.52,-134.538 2015.29,-130.429 2005.09,-127.551 2005.52,-134.538"/>
</g>
</g>
</svg>
