<?xml version="1.0" encoding="UTF-8" standalone="no"?>
<!DOCTYPE svg PUBLIC "-//W3C//DTD SVG 1.1//EN"
 "http://www.w3.org/Graphics/SVG/1.1/DTD/svg11.dtd">
<!-- Generated by graphviz version 2.26.3 (20100126.1600)
 -->
<!-- Title: G Pages: 1 -->
<svg width="1204pt" height="320pt"
 viewBox="0.00 0.00 1204.00 320.00" xmlns="http://www.w3.org/2000/svg" xmlns:xlink="http://www.w3.org/1999/xlink">
<g id="graph1" class="graph" transform="scale(1 1) rotate(0) translate(4 316)">
<title>G</title>
<polygon fill="white" stroke="white" points="-4,5 -4,-316 1201,-316 1201,5 -4,5"/>
<!-- Node1 -->
<g id="node1" class="node"><title>Node1</title>
<polygon fill="#bfbfbf" stroke="black" points="668,-290.5 668,-311.5 1048,-311.5 1048,-290.5 668,-290.5"/>
<text text-anchor="middle" x="858" y="-298.5" font-family="Helvetica,sans-Serif" font-size="10.00">ocra&#45;wbi&#45;plugins/ocra&#45;icub&#45;clients/walking&#45;client/include/walking&#45;client/MIQPState.h</text>
</g>
<!-- Node2 -->
<g id="node3" class="node"><title>Node2</title>
<a xlink:href="BaseOfSupport_8h.html" target="_top" xlink:title="ocra&#45;wbi&#45;plugins/ocra&#45;icub&#45;clients/walking&#45;client/include/walking&#45;client/BaseOfSupport.h">
<polygon fill="white" stroke="black" points="432,-232.5 432,-253.5 830,-253.5 830,-232.5 432,-232.5"/>
<text text-anchor="middle" x="631" y="-240.5" font-family="Helvetica,sans-Serif" font-size="10.00">ocra&#45;wbi&#45;plugins/ocra&#45;icub&#45;clients/walking&#45;client/include/walking&#45;client/BaseOfSupport.h</text>
</a>
</g>
<!-- Node1&#45;&gt;Node2 -->
<g id="edge2" class="edge"><title>Node1&#45;&gt;Node2</title>
<path fill="none" stroke="midnightblue" d="M807.162,-288.011C766.46,-277.611 710.098,-263.21 672.185,-253.523"/>
<polygon fill="midnightblue" stroke="midnightblue" points="806.337,-291.412 816.892,-290.497 808.07,-284.63 806.337,-291.412"/>
</g>
<!-- Node4 -->
<g id="node7" class="node"><title>Node4</title>
<a xlink:href="MIQPController_8h.html" target="_top" xlink:title="A thread for launching trajectory generators.">
<polygon fill="white" stroke="black" points="550,-116.5 550,-137.5 948,-137.5 948,-116.5 550,-116.5"/>
<text text-anchor="middle" x="749" y="-124.5" font-family="Helvetica,sans-Serif" font-size="10.00">ocra&#45;wbi&#45;plugins/ocra&#45;icub&#45;clients/walking&#45;client/include/walking&#45;client/MIQPController.h</text>
</a>
</g>
<!-- Node1&#45;&gt;Node4 -->
<g id="edge20" class="edge"><title>Node1&#45;&gt;Node4</title>
<path fill="none" stroke="midnightblue" d="M860.325,-280.04C862.198,-252.979 861.524,-205.616 839,-174 826.42,-156.341 805.152,-144.802 786.449,-137.577"/>
<polygon fill="midnightblue" stroke="midnightblue" points="856.813,-280.021 859.422,-290.289 863.786,-280.635 856.813,-280.021"/>
</g>
<!-- Node11 -->
<g id="node22" class="node"><title>Node11</title>
<a xlink:href="MIQPState_8cpp.html" target="_top" xlink:title="ocra&#45;wbi&#45;plugins/ocra&#45;icub&#45;clients/walking&#45;client/src/MIQPState.cpp">
<polygon fill="white" stroke="black" points="885.5,-232.5 885.5,-253.5 1196.5,-253.5 1196.5,-232.5 885.5,-232.5"/>
<text text-anchor="middle" x="1041" y="-240.5" font-family="Helvetica,sans-Serif" font-size="10.00">ocra&#45;wbi&#45;plugins/ocra&#45;icub&#45;clients/walking&#45;client/src/MIQPState.cpp</text>
</a>
</g>
<!-- Node1&#45;&gt;Node11 -->
<g id="edge22" class="edge"><title>Node1&#45;&gt;Node11</title>
<path fill="none" stroke="midnightblue" d="M900.87,-287.413C933.52,-277.065 977.815,-263.026 1007.8,-253.523"/>
<polygon fill="midnightblue" stroke="midnightblue" points="899.615,-284.139 891.14,-290.497 901.73,-290.812 899.615,-284.139"/>
</g>
<!-- Node3 -->
<g id="node5" class="node"><title>Node3</title>
<a xlink:href="MIQPLinearConstraints_8h.html" target="_top" xlink:title="ocra&#45;wbi&#45;plugins/ocra&#45;icub&#45;clients/walking&#45;client/include/walking&#45;client/constraints/MIQPLinearConstraints.h">
<polygon fill="white" stroke="black" points="0,-174.5 0,-195.5 484,-195.5 484,-174.5 0,-174.5"/>
<text text-anchor="middle" x="242" y="-182.5" font-family="Helvetica,sans-Serif" font-size="10.00">ocra&#45;wbi&#45;plugins/ocra&#45;icub&#45;clients/walking&#45;client/include/walking&#45;client/constraints/MIQPLinearConstraints.h</text>
</a>
</g>
<!-- Node2&#45;&gt;Node3 -->
<g id="edge4" class="edge"><title>Node2&#45;&gt;Node3</title>
<path fill="none" stroke="midnightblue" d="M550.435,-230.988C480.29,-220.529 379.608,-205.517 312.577,-195.523"/>
<polygon fill="midnightblue" stroke="midnightblue" points="550.148,-234.484 560.555,-232.497 551.181,-227.56 550.148,-234.484"/>
</g>
<!-- Node10 -->
<g id="node19" class="node"><title>Node10</title>
<a xlink:href="BaseOfSupport_8cpp.html" target="_top" xlink:title="ocra&#45;wbi&#45;plugins/ocra&#45;icub&#45;clients/walking&#45;client/src/BaseOfSupport.cpp">
<polygon fill="white" stroke="black" points="501.5,-174.5 501.5,-195.5 830.5,-195.5 830.5,-174.5 501.5,-174.5"/>
<text text-anchor="middle" x="666" y="-182.5" font-family="Helvetica,sans-Serif" font-size="10.00">ocra&#45;wbi&#45;plugins/ocra&#45;icub&#45;clients/walking&#45;client/src/BaseOfSupport.cpp</text>
</a>
</g>
<!-- Node2&#45;&gt;Node10 -->
<g id="edge18" class="edge"><title>Node2&#45;&gt;Node10</title>
<path fill="none" stroke="midnightblue" d="M642.667,-223.667C648.322,-214.295 654.895,-203.402 659.621,-195.571"/>
<polygon fill="midnightblue" stroke="midnightblue" points="639.59,-221.992 637.42,-232.362 645.583,-225.608 639.59,-221.992"/>
</g>
<!-- Node3&#45;&gt;Node4 -->
<g id="edge6" class="edge"><title>Node3&#45;&gt;Node4</title>
<path fill="none" stroke="midnightblue" d="M343.928,-173.34C435.464,-162.868 568.665,-147.63 657.014,-137.523"/>
<polygon fill="midnightblue" stroke="midnightblue" points="343.351,-169.883 333.814,-174.497 344.147,-176.837 343.351,-169.883"/>
</g>
<!-- Node9 -->
<g id="node17" class="node"><title>Node9</title>
<a xlink:href="MIQPLinearConstraints_8cpp.html" target="_top" xlink:title="ocra&#45;wbi&#45;plugins/ocra&#45;icub&#45;clients/walking&#45;client/src/MIQPLinearConstraints.cpp">
<polygon fill="white" stroke="black" points="60,-116.5 60,-137.5 424,-137.5 424,-116.5 60,-116.5"/>
<text text-anchor="middle" x="242" y="-124.5" font-family="Helvetica,sans-Serif" font-size="10.00">ocra&#45;wbi&#45;plugins/ocra&#45;icub&#45;clients/walking&#45;client/src/MIQPLinearConstraints.cpp</text>
</a>
</g>
<!-- Node3&#45;&gt;Node9 -->
<g id="edge16" class="edge"><title>Node3&#45;&gt;Node9</title>
<path fill="none" stroke="midnightblue" d="M242,-164.191C242,-155.168 242,-144.994 242,-137.571"/>
<polygon fill="midnightblue" stroke="midnightblue" points="238.5,-164.362 242,-174.362 245.5,-164.362 238.5,-164.362"/>
</g>
<!-- Node5 -->
<g id="node9" class="node"><title>Node5</title>
<a xlink:href="WalkingClient_8h.html" target="_top" xlink:title="ocra&#45;wbi&#45;plugins/ocra&#45;icub&#45;clients/walking&#45;client/include/walking&#45;client/WalkingClient.h">
<polygon fill="white" stroke="black" points="364,-58.5 364,-79.5 756,-79.5 756,-58.5 364,-58.5"/>
<text text-anchor="middle" x="560" y="-66.5" font-family="Helvetica,sans-Serif" font-size="10.00">ocra&#45;wbi&#45;plugins/ocra&#45;icub&#45;clients/walking&#45;client/include/walking&#45;client/WalkingClient.h</text>
</a>
</g>
<!-- Node4&#45;&gt;Node5 -->
<g id="edge8" class="edge"><title>Node4&#45;&gt;Node5</title>
<path fill="none" stroke="midnightblue" d="M705.16,-113.546C671.398,-103.186 625.39,-89.0668 594.291,-79.5231"/>
<polygon fill="midnightblue" stroke="midnightblue" points="704.187,-116.909 714.774,-116.497 706.24,-110.217 704.187,-116.909"/>
</g>
<!-- Node8 -->
<g id="node15" class="node"><title>Node8</title>
<a xlink:href="MIQPController_8cpp.html" target="_top" xlink:title="ocra&#45;wbi&#45;plugins/ocra&#45;icub&#45;clients/walking&#45;client/src/MIQPController.cpp">
<polygon fill="white" stroke="black" points="773.5,-58.5 773.5,-79.5 1102.5,-79.5 1102.5,-58.5 773.5,-58.5"/>
<text text-anchor="middle" x="938" y="-66.5" font-family="Helvetica,sans-Serif" font-size="10.00">ocra&#45;wbi&#45;plugins/ocra&#45;icub&#45;clients/walking&#45;client/src/MIQPController.cpp</text>
</a>
</g>
<!-- Node4&#45;&gt;Node8 -->
<g id="edge14" class="edge"><title>Node4&#45;&gt;Node8</title>
<path fill="none" stroke="midnightblue" d="M792.84,-113.546C826.602,-103.186 872.61,-89.0668 903.709,-79.5231"/>
<polygon fill="midnightblue" stroke="midnightblue" points="791.76,-110.217 783.226,-116.497 793.813,-116.909 791.76,-110.217"/>
</g>
<!-- Node6 -->
<g id="node11" class="node"><title>Node6</title>
<a xlink:href="ocra-icub-clients_2walking-client_2src_2main_8cpp.html" target="_top" xlink:title="ocra&#45;wbi&#45;plugins/ocra&#45;icub&#45;clients/walking&#45;client/src/main.cpp">
<polygon fill="white" stroke="black" points="258.5,-0.5 258.5,-21.5 541.5,-21.5 541.5,-0.5 258.5,-0.5"/>
<text text-anchor="middle" x="400" y="-8.5" font-family="Helvetica,sans-Serif" font-size="10.00">ocra&#45;wbi&#45;plugins/ocra&#45;icub&#45;clients/walking&#45;client/src/main.cpp</text>
</a>
</g>
<!-- Node5&#45;&gt;Node6 -->
<g id="edge10" class="edge"><title>Node5&#45;&gt;Node6</title>
<path fill="none" stroke="midnightblue" d="M521.405,-55.0095C492.972,-44.7023 454.905,-30.903 429.029,-21.5231"/>
<polygon fill="midnightblue" stroke="midnightblue" points="520.431,-58.3791 531.025,-58.4966 522.817,-51.7981 520.431,-58.3791"/>
</g>
<!-- Node7 -->
<g id="node13" class="node"><title>Node7</title>
<a xlink:href="WalkingClient_8cpp.html" target="_top" xlink:title="ocra&#45;wbi&#45;plugins/ocra&#45;icub&#45;clients/walking&#45;client/src/WalkingClient.cpp">
<polygon fill="white" stroke="black" points="558.5,-0.5 558.5,-21.5 881.5,-21.5 881.5,-0.5 558.5,-0.5"/>
<text text-anchor="middle" x="720" y="-8.5" font-family="Helvetica,sans-Serif" font-size="10.00">ocra&#45;wbi&#45;plugins/ocra&#45;icub&#45;clients/walking&#45;client/src/WalkingClient.cpp</text>
</a>
</g>
<!-- Node5&#45;&gt;Node7 -->
<g id="edge12" class="edge"><title>Node5&#45;&gt;Node7</title>
<path fill="none" stroke="midnightblue" d="M598.595,-55.0095C627.028,-44.7023 665.095,-30.903 690.971,-21.5231"/>
<polygon fill="midnightblue" stroke="midnightblue" points="597.183,-51.7981 588.975,-58.4966 599.569,-58.3791 597.183,-51.7981"/>
</g>
</g>
</svg>
