<?xml version="1.0" encoding="UTF-8" standalone="no"?>
<!DOCTYPE svg PUBLIC "-//W3C//DTD SVG 1.1//EN"
 "http://www.w3.org/Graphics/SVG/1.1/DTD/svg11.dtd">
<!-- Generated by graphviz version 2.26.3 (20100126.1600)
 -->
<!-- Title: G Pages: 1 -->
<svg width="2311pt" height="494pt"
 viewBox="0.00 0.00 2311.00 494.00" xmlns="http://www.w3.org/2000/svg" xmlns:xlink="http://www.w3.org/1999/xlink">
<g id="graph1" class="graph" transform="scale(1 1) rotate(0) translate(4 490)">
<title>G</title>
<polygon fill="white" stroke="white" points="-4,5 -4,-490 2308,-490 2308,5 -4,5"/>
<!-- Node1 -->
<g id="node1" class="node"><title>Node1</title>
<polygon fill="#bfbfbf" stroke="black" points="388,-464.5 388,-485.5 752,-485.5 752,-464.5 388,-464.5"/>
<text text-anchor="middle" x="570" y="-472.5" font-family="Helvetica,sans-Serif" font-size="10.00">ocra&#45;wbi&#45;plugins/ocra&#45;icub&#45;clients/walking&#45;client/src/MIQPLinearConstraints.cpp</text>
</g>
<!-- Node2 -->
<g id="node3" class="node"><title>Node2</title>
<a xlink:href="MIQPLinearConstraints_8h.html" target="_top" xlink:title="walking&#45;client/constraints/MIQPLinearConstraints.h">
<polygon fill="white" stroke="black" points="450,-406.5 450,-427.5 690,-427.5 690,-406.5 450,-406.5"/>
<text text-anchor="middle" x="570" y="-414.5" font-family="Helvetica,sans-Serif" font-size="10.00">walking&#45;client/constraints/MIQPLinearConstraints.h</text>
</a>
</g>
<!-- Node1&#45;&gt;Node2 -->
<g id="edge2" class="edge"><title>Node1&#45;&gt;Node2</title>
<path fill="none" stroke="midnightblue" d="M570,-464.362C570,-456.922 570,-446.743 570,-437.728"/>
<polygon fill="midnightblue" stroke="midnightblue" points="573.5,-437.571 570,-427.571 566.5,-437.571 573.5,-437.571"/>
</g>
<!-- Node3 -->
<g id="node5" class="node"><title>Node3</title>
<a xlink:href="ShapeConstraints_8h.html" target="_top" xlink:title="walking&#45;client/constraints/ShapeConstraints.h">
<polygon fill="white" stroke="black" points="1787,-348.5 1787,-369.5 2003,-369.5 2003,-348.5 1787,-348.5"/>
<text text-anchor="middle" x="1895" y="-356.5" font-family="Helvetica,sans-Serif" font-size="10.00">walking&#45;client/constraints/ShapeConstraints.h</text>
</a>
</g>
<!-- Node2&#45;&gt;Node3 -->
<g id="edge4" class="edge"><title>Node2&#45;&gt;Node3</title>
<path fill="none" stroke="midnightblue" d="M690.215,-411.738C942.668,-400.687 1525.35,-375.181 1776.39,-364.192"/>
<polygon fill="midnightblue" stroke="midnightblue" points="1776.8,-367.678 1786.64,-363.743 1776.49,-360.684 1776.8,-367.678"/>
</g>
<!-- Node5 -->
<g id="node9" class="node"><title>Node5</title>
<a xlink:href="utils_8h.html" target="_top" xlink:title="walking&#45;client/utils.h">
<polygon fill="white" stroke="black" points="197.5,-174.5 197.5,-195.5 302.5,-195.5 302.5,-174.5 197.5,-174.5"/>
<text text-anchor="middle" x="250" y="-182.5" font-family="Helvetica,sans-Serif" font-size="10.00">walking&#45;client/utils.h</text>
</a>
</g>
<!-- Node2&#45;&gt;Node5 -->
<g id="edge156" class="edge"><title>Node2&#45;&gt;Node5</title>
<path fill="none" stroke="midnightblue" d="M514.27,-406.468C439.827,-389.111 310.53,-346.726 252,-254 243.028,-239.787 243.287,-220.437 245.354,-205.845"/>
<polygon fill="midnightblue" stroke="midnightblue" points="248.84,-206.24 247.165,-195.778 241.95,-205 248.84,-206.24"/>
</g>
<!-- Node13 -->
<g id="node28" class="node"><title>Node13</title>
<a xlink:href="AdmissibilityConstraints_8h.html" target="_top" xlink:title="walking&#45;client/constraints/AdmissibilityConstraints.h">
<polygon fill="white" stroke="black" points="1006,-348.5 1006,-369.5 1250,-369.5 1250,-348.5 1006,-348.5"/>
<text text-anchor="middle" x="1128" y="-356.5" font-family="Helvetica,sans-Serif" font-size="10.00">walking&#45;client/constraints/AdmissibilityConstraints.h</text>
</a>
</g>
<!-- Node2&#45;&gt;Node13 -->
<g id="edge30" class="edge"><title>Node2&#45;&gt;Node13</title>
<path fill="none" stroke="midnightblue" d="M671.05,-406.497C768.516,-396.366 915.711,-381.066 1016.54,-370.585"/>
<polygon fill="midnightblue" stroke="midnightblue" points="1017.18,-374.038 1026.76,-369.523 1016.45,-367.076 1017.18,-374.038"/>
</g>
<!-- Node18 -->
<g id="node43" class="node"><title>Node18</title>
<a xlink:href="StepController_8h.html" target="_top" xlink:title="walking&#45;client/StepController.h">
<polygon fill="white" stroke="black" points="35.5,-232.5 35.5,-253.5 184.5,-253.5 184.5,-232.5 35.5,-232.5"/>
<text text-anchor="middle" x="110" y="-240.5" font-family="Helvetica,sans-Serif" font-size="10.00">walking&#45;client/StepController.h</text>
</a>
</g>
<!-- Node2&#45;&gt;Node18 -->
<g id="edge50" class="edge"><title>Node2&#45;&gt;Node18</title>
<path fill="none" stroke="midnightblue" d="M449.697,-412.331C357.483,-406.829 239.256,-395.026 198,-370 156.739,-344.971 130.011,-292.399 117.766,-263.358"/>
<polygon fill="midnightblue" stroke="midnightblue" points="120.903,-261.777 113.911,-253.817 114.413,-264.4 120.903,-261.777"/>
</g>
<!-- Node20 -->
<g id="node48" class="node"><title>Node20</title>
<a xlink:href="BaseOfSupport_8h.html" target="_top" xlink:title="walking&#45;client/BaseOfSupport.h">
<polygon fill="white" stroke="black" points="493,-290.5 493,-311.5 647,-311.5 647,-290.5 493,-290.5"/>
<text text-anchor="middle" x="570" y="-298.5" font-family="Helvetica,sans-Serif" font-size="10.00">walking&#45;client/BaseOfSupport.h</text>
</a>
</g>
<!-- Node2&#45;&gt;Node20 -->
<g id="edge56" class="edge"><title>Node2&#45;&gt;Node20</title>
<path fill="none" stroke="midnightblue" d="M570,-406.295C570,-387.131 570,-346.654 570,-321.843"/>
<polygon fill="midnightblue" stroke="midnightblue" points="573.5,-321.679 570,-311.679 566.5,-321.679 573.5,-321.679"/>
</g>
<!-- Node4 -->
<g id="node7" class="node"><title>Node4</title>
<a xlink:href="Constraint_8h.html" target="_top" xlink:title="A constraint base class.">
<polygon fill="white" stroke="black" points="1457.5,-232.5 1457.5,-253.5 1640.5,-253.5 1640.5,-232.5 1457.5,-232.5"/>
<text text-anchor="middle" x="1549" y="-240.5" font-family="Helvetica,sans-Serif" font-size="10.00">walking&#45;client/constraints/Constraint.h</text>
</a>
</g>
<!-- Node3&#45;&gt;Node4 -->
<g id="edge6" class="edge"><title>Node3&#45;&gt;Node4</title>
<path fill="none" stroke="midnightblue" d="M1895.41,-348.277C1895.36,-332.893 1892.78,-304.788 1876,-290 1859.14,-275.143 1740.39,-260.863 1650.81,-252.021"/>
<polygon fill="midnightblue" stroke="midnightblue" points="1650.88,-248.512 1640.59,-251.023 1650.2,-255.479 1650.88,-248.512"/>
</g>
<!-- Node10 -->
<g id="node19" class="node"><title>Node10</title>
<a xlink:href="Bounding_8h.html" target="_top" xlink:title="walking&#45;client/constraints/Bounding.h">
<polygon fill="white" stroke="black" points="1922.5,-290.5 1922.5,-311.5 2101.5,-311.5 2101.5,-290.5 1922.5,-290.5"/>
<text text-anchor="middle" x="2012" y="-298.5" font-family="Helvetica,sans-Serif" font-size="10.00">walking&#45;client/constraints/Bounding.h</text>
</a>
</g>
<!-- Node3&#45;&gt;Node10 -->
<g id="edge18" class="edge"><title>Node3&#45;&gt;Node10</title>
<path fill="none" stroke="midnightblue" d="M1916.19,-348.497C1934.46,-339.438 1961.07,-326.246 1981.61,-316.063"/>
<polygon fill="midnightblue" stroke="midnightblue" points="1983.17,-319.199 1990.57,-311.621 1980.06,-312.927 1983.17,-319.199"/>
</g>
<!-- Node11 -->
<g id="node22" class="node"><title>Node11</title>
<a xlink:href="Constancy_8h.html" target="_top" xlink:title="walking&#45;client/constraints/Constancy.h">
<polygon fill="white" stroke="black" points="2118.5,-290.5 2118.5,-311.5 2303.5,-311.5 2303.5,-290.5 2118.5,-290.5"/>
<text text-anchor="middle" x="2211" y="-298.5" font-family="Helvetica,sans-Serif" font-size="10.00">walking&#45;client/constraints/Constancy.h</text>
</a>
</g>
<!-- Node3&#45;&gt;Node11 -->
<g id="edge22" class="edge"><title>Node3&#45;&gt;Node11</title>
<path fill="none" stroke="midnightblue" d="M1952.23,-348.497C2006.08,-338.611 2086.75,-323.805 2143.68,-313.356"/>
<polygon fill="midnightblue" stroke="midnightblue" points="2144.46,-316.771 2153.67,-311.523 2143.2,-309.886 2144.46,-316.771"/>
</g>
<!-- Node12 -->
<g id="node25" class="node"><title>Node12</title>
<a xlink:href="Sequentiality_8h.html" target="_top" xlink:title="walking&#45;client/constraints/Sequentiality.h">
<polygon fill="white" stroke="black" points="1673,-290.5 1673,-311.5 1867,-311.5 1867,-290.5 1673,-290.5"/>
<text text-anchor="middle" x="1770" y="-298.5" font-family="Helvetica,sans-Serif" font-size="10.00">walking&#45;client/constraints/Sequentiality.h</text>
</a>
</g>
<!-- Node3&#45;&gt;Node12 -->
<g id="edge26" class="edge"><title>Node3&#45;&gt;Node12</title>
<path fill="none" stroke="midnightblue" d="M1872.36,-348.497C1852.75,-339.397 1824.15,-326.127 1802.17,-315.925"/>
<polygon fill="midnightblue" stroke="midnightblue" points="1803.43,-312.655 1792.89,-311.621 1800.49,-319.005 1803.43,-312.655"/>
</g>
<!-- Node4&#45;&gt;Node5 -->
<g id="edge8" class="edge"><title>Node4&#45;&gt;Node5</title>
<path fill="none" stroke="midnightblue" d="M1457.22,-236.905C1430.11,-235.201 1400.36,-233.428 1373,-232 969.099,-210.928 483.089,-193.169 312.685,-187.17"/>
<polygon fill="midnightblue" stroke="midnightblue" points="312.757,-183.671 302.64,-186.818 312.511,-190.667 312.757,-183.671"/>
</g>
<!-- Node6 -->
<g id="node11" class="node"><title>Node6</title>
<polygon fill="white" stroke="#bfbfbf" points="1381.5,-174.5 1381.5,-195.5 1446.5,-195.5 1446.5,-174.5 1381.5,-174.5"/>
<text text-anchor="middle" x="1414" y="-182.5" font-family="Helvetica,sans-Serif" font-size="10.00">Eigen/Core</text>
</g>
<!-- Node4&#45;&gt;Node6 -->
<g id="edge10" class="edge"><title>Node4&#45;&gt;Node6</title>
<path fill="none" stroke="midnightblue" d="M1524.55,-232.497C1503.18,-223.315 1471.93,-209.889 1448.1,-199.652"/>
<polygon fill="midnightblue" stroke="midnightblue" points="1449.29,-196.353 1438.72,-195.621 1446.53,-202.784 1449.29,-196.353"/>
</g>
<!-- Node7 -->
<g id="node13" class="node"><title>Node7</title>
<polygon fill="white" stroke="#bfbfbf" points="1464,-174.5 1464,-195.5 1634,-195.5 1634,-174.5 1464,-174.5"/>
<text text-anchor="middle" x="1549" y="-182.5" font-family="Helvetica,sans-Serif" font-size="10.00">unsupported/Eigen/MatrixFunctions</text>
</g>
<!-- Node4&#45;&gt;Node7 -->
<g id="edge12" class="edge"><title>Node4&#45;&gt;Node7</title>
<path fill="none" stroke="midnightblue" d="M1549,-232.362C1549,-224.922 1549,-214.743 1549,-205.728"/>
<polygon fill="midnightblue" stroke="midnightblue" points="1552.5,-205.571 1549,-195.571 1545.5,-205.571 1552.5,-205.571"/>
</g>
<!-- Node8 -->
<g id="node15" class="node"><title>Node8</title>
<polygon fill="white" stroke="#bfbfbf" points="1247.5,-174.5 1247.5,-195.5 1364.5,-195.5 1364.5,-174.5 1247.5,-174.5"/>
<text text-anchor="middle" x="1306" y="-182.5" font-family="Helvetica,sans-Serif" font-size="10.00">ocra/util/ErrorsHelper.h</text>
</g>
<!-- Node4&#45;&gt;Node8 -->
<g id="edge14" class="edge"><title>Node4&#45;&gt;Node8</title>
<path fill="none" stroke="midnightblue" d="M1504.99,-232.497C1464.26,-222.775 1403.59,-208.294 1359.96,-197.879"/>
<polygon fill="midnightblue" stroke="midnightblue" points="1360.63,-194.44 1350.09,-195.523 1359,-201.249 1360.63,-194.44"/>
</g>
<!-- Node9 -->
<g id="node17" class="node"><title>Node9</title>
<polygon fill="white" stroke="#bfbfbf" points="2194,-0.5 2194,-21.5 2246,-21.5 2246,-0.5 2194,-0.5"/>
<text text-anchor="middle" x="2220" y="-8.5" font-family="Helvetica,sans-Serif" font-size="10.00">memory</text>
</g>
<!-- Node4&#45;&gt;Node9 -->
<g id="edge16" class="edge"><title>Node4&#45;&gt;Node9</title>
<path fill="none" stroke="midnightblue" d="M1579.58,-232.429C1689.69,-194.357 2065.7,-64.3508 2184.04,-23.4341"/>
<polygon fill="midnightblue" stroke="midnightblue" points="2185.41,-26.6636 2193.72,-20.088 2183.12,-20.0479 2185.41,-26.6636"/>
</g>
<!-- Node10&#45;&gt;Node4 -->
<g id="edge20" class="edge"><title>Node10&#45;&gt;Node4</title>
<path fill="none" stroke="midnightblue" d="M1928.15,-290.497C1847.77,-280.427 1726.63,-265.251 1643.01,-254.776"/>
<polygon fill="midnightblue" stroke="midnightblue" points="1643.36,-251.293 1633,-253.523 1642.49,-258.239 1643.36,-251.293"/>
</g>
<!-- Node11&#45;&gt;Node4 -->
<g id="edge24" class="edge"><title>Node11&#45;&gt;Node4</title>
<path fill="none" stroke="midnightblue" d="M2118.27,-290.81C2115.48,-290.533 2112.72,-290.262 2110,-290 1949.69,-274.558 1763.33,-259.523 1650.87,-250.768"/>
<polygon fill="midnightblue" stroke="midnightblue" points="1651.13,-247.278 1640.89,-249.993 1650.59,-254.257 1651.13,-247.278"/>
</g>
<!-- Node12&#45;&gt;Node4 -->
<g id="edge28" class="edge"><title>Node12&#45;&gt;Node4</title>
<path fill="none" stroke="midnightblue" d="M1729.98,-290.497C1693.17,-280.836 1638.45,-266.477 1598.83,-256.077"/>
<polygon fill="midnightblue" stroke="midnightblue" points="1599.66,-252.676 1589.1,-253.523 1597.88,-259.447 1599.66,-252.676"/>
</g>
<!-- Node13&#45;&gt;Node4 -->
<g id="edge32" class="edge"><title>Node13&#45;&gt;Node4</title>
<path fill="none" stroke="midnightblue" d="M1238.5,-348.484C1287.75,-341.561 1345.84,-330.263 1396,-312 1414.34,-305.323 1416.48,-298.6 1434,-290 1458.96,-277.746 1487.95,-265.914 1510.57,-257.187"/>
<polygon fill="midnightblue" stroke="midnightblue" points="1512.07,-260.361 1520.17,-253.526 1509.58,-253.822 1512.07,-260.361"/>
</g>
<!-- Node14 -->
<g id="node31" class="node"><title>Node14</title>
<a xlink:href="SSDSAlternation_8h.html" target="_top" xlink:title="walking&#45;client/constraints/SSDSAlternation.h">
<polygon fill="white" stroke="black" points="1443,-290.5 1443,-311.5 1655,-311.5 1655,-290.5 1443,-290.5"/>
<text text-anchor="middle" x="1549" y="-298.5" font-family="Helvetica,sans-Serif" font-size="10.00">walking&#45;client/constraints/SSDSAlternation.h</text>
</a>
</g>
<!-- Node13&#45;&gt;Node14 -->
<g id="edge34" class="edge"><title>Node13&#45;&gt;Node14</title>
<path fill="none" stroke="midnightblue" d="M1204.24,-348.497C1277.03,-338.468 1386.59,-323.374 1462.59,-312.904"/>
<polygon fill="midnightblue" stroke="midnightblue" points="1463.19,-316.355 1472.62,-311.523 1462.23,-309.421 1463.19,-316.355"/>
</g>
<!-- Node15 -->
<g id="node34" class="node"><title>Node15</title>
<a xlink:href="SingleSupport_8h.html" target="_top" xlink:title="walking&#45;client/constraints/SingleSupport.h">
<polygon fill="white" stroke="black" points="664.5,-290.5 664.5,-311.5 863.5,-311.5 863.5,-290.5 664.5,-290.5"/>
<text text-anchor="middle" x="764" y="-298.5" font-family="Helvetica,sans-Serif" font-size="10.00">walking&#45;client/constraints/SingleSupport.h</text>
</a>
</g>
<!-- Node13&#45;&gt;Node15 -->
<g id="edge38" class="edge"><title>Node13&#45;&gt;Node15</title>
<path fill="none" stroke="midnightblue" d="M1062.08,-348.497C999.529,-338.529 905.578,-323.559 839.921,-313.097"/>
<polygon fill="midnightblue" stroke="midnightblue" points="840.467,-309.64 830.041,-311.523 839.366,-316.553 840.467,-309.64"/>
</g>
<!-- Node16 -->
<g id="node37" class="node"><title>Node16</title>
<a xlink:href="ContactConfigHistory_8h.html" target="_top" xlink:title="walking&#45;client/constraints/ContactConfigHistory.h">
<polygon fill="white" stroke="black" points="880.5,-290.5 880.5,-311.5 1113.5,-311.5 1113.5,-290.5 880.5,-290.5"/>
<text text-anchor="middle" x="997" y="-298.5" font-family="Helvetica,sans-Serif" font-size="10.00">walking&#45;client/constraints/ContactConfigHistory.h</text>
</a>
</g>
<!-- Node13&#45;&gt;Node16 -->
<g id="edge42" class="edge"><title>Node13&#45;&gt;Node16</title>
<path fill="none" stroke="midnightblue" d="M1104.28,-348.497C1083.63,-339.356 1053.48,-326.008 1030.4,-315.788"/>
<polygon fill="midnightblue" stroke="midnightblue" points="1031.55,-312.469 1020.99,-311.621 1028.72,-318.87 1031.55,-312.469"/>
</g>
<!-- Node17 -->
<g id="node40" class="node"><title>Node17</title>
<a xlink:href="ContactConfigEnforcement_8h.html" target="_top" xlink:title="walking&#45;client/constraints/ContactConfigEnforcement.h">
<polygon fill="white" stroke="black" points="1130.5,-290.5 1130.5,-311.5 1387.5,-311.5 1387.5,-290.5 1130.5,-290.5"/>
<text text-anchor="middle" x="1259" y="-298.5" font-family="Helvetica,sans-Serif" font-size="10.00">walking&#45;client/constraints/ContactConfigEnforcement.h</text>
</a>
</g>
<!-- Node13&#45;&gt;Node17 -->
<g id="edge46" class="edge"><title>Node13&#45;&gt;Node17</title>
<path fill="none" stroke="midnightblue" d="M1151.72,-348.497C1172.37,-339.356 1202.52,-326.008 1225.6,-315.788"/>
<polygon fill="midnightblue" stroke="midnightblue" points="1227.28,-318.87 1235.01,-311.621 1224.45,-312.469 1227.28,-318.87"/>
</g>
<!-- Node14&#45;&gt;Node4 -->
<g id="edge36" class="edge"><title>Node14&#45;&gt;Node4</title>
<path fill="none" stroke="midnightblue" d="M1549,-290.362C1549,-282.922 1549,-272.743 1549,-263.728"/>
<polygon fill="midnightblue" stroke="midnightblue" points="1552.5,-263.571 1549,-253.571 1545.5,-263.571 1552.5,-263.571"/>
</g>
<!-- Node15&#45;&gt;Node4 -->
<g id="edge40" class="edge"><title>Node15&#45;&gt;Node4</title>
<path fill="none" stroke="midnightblue" d="M863.728,-290.701C866.515,-290.459 869.276,-290.224 872,-290 1125.87,-269.091 1190.16,-275.275 1444,-254 1445.1,-253.908 1446.2,-253.815 1447.31,-253.719"/>
<polygon fill="midnightblue" stroke="midnightblue" points="1447.75,-257.194 1457.4,-252.823 1447.13,-250.222 1447.75,-257.194"/>
</g>
<!-- Node16&#45;&gt;Node4 -->
<g id="edge44" class="edge"><title>Node16&#45;&gt;Node4</title>
<path fill="none" stroke="midnightblue" d="M1096.96,-290.497C1196.09,-280.082 1347.2,-264.204 1447.02,-253.715"/>
<polygon fill="midnightblue" stroke="midnightblue" points="1447.54,-257.18 1457.12,-252.654 1446.81,-250.219 1447.54,-257.18"/>
</g>
<!-- Node17&#45;&gt;Node4 -->
<g id="edge48" class="edge"><title>Node17&#45;&gt;Node4</title>
<path fill="none" stroke="midnightblue" d="M1311.52,-290.497C1360.74,-280.652 1434.36,-265.927 1486.57,-255.486"/>
<polygon fill="midnightblue" stroke="midnightblue" points="1487.27,-258.916 1496.38,-253.523 1485.89,-252.052 1487.27,-258.916"/>
</g>
<!-- Node18&#45;&gt;Node5 -->
<g id="edge54" class="edge"><title>Node18&#45;&gt;Node5</title>
<path fill="none" stroke="midnightblue" d="M135.353,-232.497C157.613,-223.275 190.212,-209.769 214.963,-199.515"/>
<polygon fill="midnightblue" stroke="midnightblue" points="216.464,-202.682 224.363,-195.621 213.784,-196.215 216.464,-202.682"/>
</g>
<!-- Node19 -->
<g id="node45" class="node"><title>Node19</title>
<polygon fill="white" stroke="#bfbfbf" points="25.5,-174.5 25.5,-195.5 180.5,-195.5 180.5,-174.5 25.5,-174.5"/>
<text text-anchor="middle" x="103" y="-182.5" font-family="Helvetica,sans-Serif" font-size="10.00">ocra&#45;recipes/TrajectoryThread.h</text>
</g>
<!-- Node18&#45;&gt;Node19 -->
<g id="edge52" class="edge"><title>Node18&#45;&gt;Node19</title>
<path fill="none" stroke="midnightblue" d="M108.716,-232.362C107.818,-224.922 106.59,-214.743 105.502,-205.728"/>
<polygon fill="midnightblue" stroke="midnightblue" points="108.949,-205.079 104.276,-195.571 101.999,-205.918 108.949,-205.079"/>
</g>
<!-- Node20&#45;&gt;Node5 -->
<g id="edge152" class="edge"><title>Node20&#45;&gt;Node5</title>
<path fill="none" stroke="midnightblue" d="M492.783,-298.28C414.746,-293.939 301.214,-282.741 269,-254 255.571,-242.019 251.256,-221.507 250.04,-205.953"/>
<polygon fill="midnightblue" stroke="midnightblue" points="253.526,-205.543 249.617,-195.696 246.532,-205.832 253.526,-205.543"/>
</g>
<!-- Node20&#45;&gt;Node6 -->
<g id="edge68" class="edge"><title>Node20&#45;&gt;Node6</title>
<path fill="none" stroke="midnightblue" d="M647.325,-290.824C650.252,-290.53 653.151,-290.253 656,-290 735.453,-282.935 1304.68,-295.176 1373,-254 1390.82,-243.261 1401.8,-221.58 1407.86,-205.372"/>
<polygon fill="midnightblue" stroke="midnightblue" points="1411.24,-206.276 1411.15,-195.682 1404.62,-204.024 1411.24,-206.276"/>
</g>
<!-- Node20&#45;&gt;Node7 -->
<g id="edge66" class="edge"><title>Node20&#45;&gt;Node7</title>
<path fill="none" stroke="midnightblue" d="M647.324,-290.818C650.251,-290.525 653.151,-290.251 656,-290 820.225,-275.531 1236.76,-292.761 1397,-254 1403.27,-252.484 1474.33,-219.704 1517.04,-199.879"/>
<polygon fill="midnightblue" stroke="midnightblue" points="1518.6,-203.01 1526.2,-195.623 1515.66,-196.662 1518.6,-203.01"/>
</g>
<!-- Node20&#45;&gt;Node18 -->
<g id="edge150" class="edge"><title>Node20&#45;&gt;Node18</title>
<path fill="none" stroke="midnightblue" d="M492.747,-291.259C410.367,-280.872 280.274,-264.469 195.031,-253.721"/>
<polygon fill="midnightblue" stroke="midnightblue" points="195.223,-250.218 184.864,-252.439 194.348,-257.163 195.223,-250.218"/>
</g>
<!-- Node21 -->
<g id="node50" class="node"><title>Node21</title>
<polygon fill="white" stroke="#bfbfbf" points="277.5,-232.5 277.5,-253.5 380.5,-253.5 380.5,-232.5 277.5,-232.5"/>
<text text-anchor="middle" x="329" y="-240.5" font-family="Helvetica,sans-Serif" font-size="10.00">boost/geometry.hpp</text>
</g>
<!-- Node20&#45;&gt;Node21 -->
<g id="edge58" class="edge"><title>Node20&#45;&gt;Node21</title>
<path fill="none" stroke="midnightblue" d="M526.357,-290.497C485.962,-280.775 425.79,-266.294 382.513,-255.879"/>
<polygon fill="midnightblue" stroke="midnightblue" points="383.267,-252.46 372.725,-253.523 381.629,-259.266 383.267,-252.46"/>
</g>
<!-- Node22 -->
<g id="node52" class="node"><title>Node22</title>
<polygon fill="white" stroke="#bfbfbf" points="397.5,-232.5 397.5,-253.5 588.5,-253.5 588.5,-232.5 397.5,-232.5"/>
<text text-anchor="middle" x="493" y="-240.5" font-family="Helvetica,sans-Serif" font-size="10.00">boost/geometry/geometries/polygon.hpp</text>
</g>
<!-- Node20&#45;&gt;Node22 -->
<g id="edge60" class="edge"><title>Node20&#45;&gt;Node22</title>
<path fill="none" stroke="midnightblue" d="M555.877,-290.362C544.48,-281.777 528.242,-269.546 515.122,-259.664"/>
<polygon fill="midnightblue" stroke="midnightblue" points="517.127,-256.792 507.033,-253.571 512.915,-262.383 517.127,-256.792"/>
</g>
<!-- Node23 -->
<g id="node54" class="node"><title>Node23</title>
<polygon fill="white" stroke="#bfbfbf" points="605.5,-232.5 605.5,-253.5 778.5,-253.5 778.5,-232.5 605.5,-232.5"/>
<text text-anchor="middle" x="692" y="-240.5" font-family="Helvetica,sans-Serif" font-size="10.00">boost/geometry/geometries/box.hpp</text>
</g>
<!-- Node20&#45;&gt;Node23 -->
<g id="edge62" class="edge"><title>Node20&#45;&gt;Node23</title>
<path fill="none" stroke="midnightblue" d="M592.093,-290.497C611.234,-281.397 639.146,-268.127 660.605,-257.925"/>
<polygon fill="midnightblue" stroke="midnightblue" points="662.13,-261.076 669.659,-253.621 659.125,-254.754 662.13,-261.076"/>
</g>
<!-- Node24 -->
<g id="node56" class="node"><title>Node24</title>
<polygon fill="white" stroke="#bfbfbf" points="795.5,-232.5 795.5,-253.5 1040.5,-253.5 1040.5,-232.5 795.5,-232.5"/>
<text text-anchor="middle" x="918" y="-240.5" font-family="Helvetica,sans-Serif" font-size="10.00">boost/geometry/geometries/adapted/boost_tuple.hpp</text>
</g>
<!-- Node20&#45;&gt;Node24 -->
<g id="edge64" class="edge"><title>Node20&#45;&gt;Node24</title>
<path fill="none" stroke="midnightblue" d="M633.02,-290.497C692.578,-280.57 781.908,-265.682 844.642,-255.226"/>
<polygon fill="midnightblue" stroke="midnightblue" points="845.573,-258.62 854.862,-253.523 844.422,-251.715 845.573,-258.62"/>
</g>
<!-- Node25 -->
<g id="node60" class="node"><title>Node25</title>
<a xlink:href="MIQPState_8h.html" target="_top" xlink:title="walking&#45;client/MIQPState.h">
<polygon fill="white" stroke="black" points="1058,-232.5 1058,-253.5 1194,-253.5 1194,-232.5 1058,-232.5"/>
<text text-anchor="middle" x="1126" y="-240.5" font-family="Helvetica,sans-Serif" font-size="10.00">walking&#45;client/MIQPState.h</text>
</a>
</g>
<!-- Node20&#45;&gt;Node25 -->
<g id="edge70" class="edge"><title>Node20&#45;&gt;Node25</title>
<path fill="none" stroke="midnightblue" d="M647.34,-290.975C650.263,-290.638 653.157,-290.312 656,-290 827.117,-271.225 873.1,-274.286 1047.56,-254.125"/>
<polygon fill="midnightblue" stroke="midnightblue" points="1048.06,-257.589 1057.59,-252.956 1047.25,-250.636 1048.06,-257.589"/>
</g>
<!-- Node50 -->
<g id="node127" class="node"><title>Node50</title>
<polygon fill="white" stroke="#bfbfbf" points="1212,-232.5 1212,-253.5 1364,-253.5 1364,-232.5 1212,-232.5"/>
<text text-anchor="middle" x="1288" y="-240.5" font-family="Helvetica,sans-Serif" font-size="10.00">ocra&#45;recipes/TaskConnection.h</text>
</g>
<!-- Node20&#45;&gt;Node50 -->
<g id="edge154" class="edge"><title>Node20&#45;&gt;Node50</title>
<path fill="none" stroke="midnightblue" d="M647.33,-290.881C650.256,-290.571 653.153,-290.275 656,-290 895.189,-266.854 958.784,-277.349 1201.38,-254.108"/>
<polygon fill="midnightblue" stroke="midnightblue" points="1201.95,-257.569 1211.57,-253.122 1201.28,-250.601 1201.95,-257.569"/>
</g>
<!-- Node25&#45;&gt;Node5 -->
<g id="edge146" class="edge"><title>Node25&#45;&gt;Node5</title>
<path fill="none" stroke="midnightblue" d="M1057.61,-232.893C1054.7,-232.57 1051.82,-232.27 1049,-232 724.315,-200.903 640.301,-230.87 316,-196 314.903,-195.882 313.796,-195.758 312.682,-195.628"/>
<polygon fill="midnightblue" stroke="midnightblue" points="312.886,-192.125 302.521,-194.318 311.992,-199.068 312.886,-192.125"/>
</g>
<!-- Node25&#45;&gt;Node8 -->
<g id="edge144" class="edge"><title>Node25&#45;&gt;Node8</title>
<path fill="none" stroke="midnightblue" d="M1158.6,-232.497C1188.07,-223 1231.64,-208.962 1263.77,-198.609"/>
<polygon fill="midnightblue" stroke="midnightblue" points="1264.9,-201.921 1273.34,-195.523 1262.75,-195.259 1264.9,-201.921"/>
</g>
<!-- Node26 -->
<g id="node62" class="node"><title>Node26</title>
<polygon fill="white" stroke="#bfbfbf" points="-0.5,-0.5 -0.5,-21.5 72.5,-21.5 72.5,-0.5 -0.5,-0.5"/>
<text text-anchor="middle" x="36" y="-8.5" font-family="Helvetica,sans-Serif" font-size="10.00">Eigen/Dense</text>
</g>
<!-- Node25&#45;&gt;Node26 -->
<g id="edge72" class="edge"><title>Node25&#45;&gt;Node26</title>
<path fill="none" stroke="midnightblue" d="M1057.76,-233.229C877.127,-207.359 400.031,-138.991 396,-138 273.206,-107.82 133.483,-52.0832 70.271,-25.6474"/>
<polygon fill="midnightblue" stroke="midnightblue" points="71.372,-22.3136 60.7971,-21.6646 68.6592,-28.7665 71.372,-22.3136"/>
</g>
<!-- Node27 -->
<g id="node64" class="node"><title>Node27</title>
<a xlink:href="OcraWbiModel_8h.html" target="_top" xlink:title="Implementation of ocra::Model using wholeBodyInterface.">
<polygon fill="white" stroke="black" points="1098,-174.5 1098,-195.5 1230,-195.5 1230,-174.5 1098,-174.5"/>
<text text-anchor="middle" x="1164" y="-182.5" font-family="Helvetica,sans-Serif" font-size="10.00">ocra&#45;icub/OcraWbiModel.h</text>
</a>
</g>
<!-- Node25&#45;&gt;Node27 -->
<g id="edge74" class="edge"><title>Node25&#45;&gt;Node27</title>
<path fill="none" stroke="midnightblue" d="M1132.97,-232.362C1138.17,-224.431 1145.4,-213.389 1151.58,-203.961"/>
<polygon fill="midnightblue" stroke="midnightblue" points="1154.52,-205.853 1157.07,-195.571 1148.67,-202.017 1154.52,-205.853"/>
</g>
<!-- Node35 -->
<g id="node83" class="node"><title>Node35</title>
<a xlink:href="Utilities_8h.html" target="_top" xlink:title="Some useful tools for the ocra&#45;icub lib.">
<polygon fill="white" stroke="red" points="1065.5,-58.5 1065.5,-79.5 1166.5,-79.5 1166.5,-58.5 1065.5,-58.5"/>
<text text-anchor="middle" x="1116" y="-66.5" font-family="Helvetica,sans-Serif" font-size="10.00">ocra&#45;icub/Utilities.h</text>
</a>
</g>
<!-- Node25&#45;&gt;Node35 -->
<g id="edge148" class="edge"><title>Node25&#45;&gt;Node35</title>
<path fill="none" stroke="midnightblue" d="M1114.13,-232.36C1105.3,-223.599 1093.96,-210.327 1089,-196 1076.23,-159.145 1093.06,-114.091 1105.31,-88.7592"/>
<polygon fill="midnightblue" stroke="midnightblue" points="1108.46,-90.2806 1109.86,-79.779 1102.22,-87.1138 1108.46,-90.2806"/>
</g>
<!-- Node27&#45;&gt;Node9 -->
<g id="edge76" class="edge"><title>Node27&#45;&gt;Node9</title>
<path fill="none" stroke="midnightblue" d="M1230.25,-175.227C1233.2,-174.809 1236.13,-174.398 1239,-174 1361.09,-157.056 1392.22,-157.105 1514,-138 1709.06,-107.398 1756.29,-90.7929 1951,-58 2051.62,-41.0533 2080.76,-45.542 2183.87,-22.0093"/>
<polygon fill="midnightblue" stroke="midnightblue" points="2184.79,-25.3879 2193.75,-19.7219 2183.21,-18.5684 2184.79,-25.3879"/>
</g>
<!-- Node28 -->
<g id="node67" class="node"><title>Node28</title>
<polygon fill="white" stroke="#bfbfbf" points="1995.5,-0.5 1995.5,-21.5 2100.5,-21.5 2100.5,-0.5 1995.5,-0.5"/>
<text text-anchor="middle" x="2048" y="-8.5" font-family="Helvetica,sans-Serif" font-size="10.00">ocra/control/Model.h</text>
</g>
<!-- Node27&#45;&gt;Node28 -->
<g id="edge78" class="edge"><title>Node27&#45;&gt;Node28</title>
<path fill="none" stroke="midnightblue" d="M1211.25,-174.491C1313.47,-151.904 1562.85,-97.5735 1773,-58 1864.63,-40.7445 1890.3,-38.6821 1985.39,-22.2631"/>
<polygon fill="midnightblue" stroke="midnightblue" points="1986.18,-25.6778 1995.43,-20.5195 1984.98,-18.7808 1986.18,-25.6778"/>
</g>
<!-- Node29 -->
<g id="node69" class="node"><title>Node29</title>
<polygon fill="white" stroke="#bfbfbf" points="2118,-0.5 2118,-21.5 2176,-21.5 2176,-0.5 2118,-0.5"/>
<text text-anchor="middle" x="2147" y="-8.5" font-family="Helvetica,sans-Serif" font-size="10.00">wbi/wbi.h</text>
</g>
<!-- Node27&#45;&gt;Node29 -->
<g id="edge80" class="edge"><title>Node27&#45;&gt;Node29</title>
<path fill="none" stroke="midnightblue" d="M1230.24,-174.5C1287.25,-165.326 1371.65,-151.411 1445,-138 1624.63,-105.156 1667.92,-88.2663 1848,-58 1960.32,-39.1221 1992.7,-45.9401 2107.75,-22.0414"/>
<polygon fill="midnightblue" stroke="midnightblue" points="2108.59,-25.4412 2117.65,-19.9517 2107.14,-18.5921 2108.59,-25.4412"/>
</g>
<!-- Node30 -->
<g id="node71" class="node"><title>Node30</title>
<polygon fill="white" stroke="#bfbfbf" points="90,-0.5 90,-21.5 166,-21.5 166,-0.5 90,-0.5"/>
<text text-anchor="middle" x="128" y="-8.5" font-family="Helvetica,sans-Serif" font-size="10.00">yarp/os/Log.h</text>
</g>
<!-- Node27&#45;&gt;Node30 -->
<g id="edge82" class="edge"><title>Node27&#45;&gt;Node30</title>
<path fill="none" stroke="midnightblue" d="M1097.95,-183.274C929.224,-178.512 491.391,-163.802 431,-138 382.695,-117.362 390.673,-82.1027 344,-58 278.564,-24.2078 252.136,-37.5258 176.224,-22.1458"/>
<polygon fill="midnightblue" stroke="midnightblue" points="176.715,-18.672 166.205,-20.009 175.255,-25.518 176.715,-18.672"/>
</g>
<!-- Node31 -->
<g id="node73" class="node"><title>Node31</title>
<a xlink:href="OcraWbiConversions_8h.html" target="_top" xlink:title="A utility class full of static conversion functions.">
<polygon fill="white" stroke="red" points="439.5,-116.5 439.5,-137.5 600.5,-137.5 600.5,-116.5 439.5,-116.5"/>
<text text-anchor="middle" x="520" y="-124.5" font-family="Helvetica,sans-Serif" font-size="10.00">ocra&#45;icub/OcraWbiConversions.h</text>
</a>
</g>
<!-- Node27&#45;&gt;Node31 -->
<g id="edge84" class="edge"><title>Node27&#45;&gt;Node31</title>
<path fill="none" stroke="midnightblue" d="M1097.81,-179.039C981.906,-168.6 742.09,-147.002 610.791,-135.177"/>
<polygon fill="midnightblue" stroke="midnightblue" points="611.028,-131.684 600.754,-134.273 610.4,-138.656 611.028,-131.684"/>
</g>
<!-- Node27&#45;&gt;Node35 -->
<g id="edge142" class="edge"><title>Node27&#45;&gt;Node35</title>
<path fill="none" stroke="midnightblue" d="M1159.57,-174.295C1151.57,-154.959 1134.59,-113.923 1124.35,-89.1767"/>
<polygon fill="midnightblue" stroke="midnightblue" points="1127.48,-87.5811 1120.42,-79.6792 1121.01,-90.2576 1127.48,-87.5811"/>
</g>
<!-- Node31&#45;&gt;Node29 -->
<g id="edge94" class="edge"><title>Node31&#45;&gt;Node29</title>
<path fill="none" stroke="midnightblue" d="M600.642,-122.695C897.274,-106.722 1919.94,-50.3893 2107.71,-21.7961"/>
<polygon fill="midnightblue" stroke="midnightblue" points="2108.39,-25.232 2117.69,-20.1627 2107.25,-18.3239 2108.39,-25.232"/>
</g>
<!-- Node31&#45;&gt;Node30 -->
<g id="edge92" class="edge"><title>Node31&#45;&gt;Node30</title>
<path fill="none" stroke="midnightblue" d="M495.877,-116.361C475.446,-107.184 445.495,-93.3405 420,-80 402.709,-70.9524 400.342,-64.6641 382,-58 297.232,-27.202 268.466,-39.7084 176.217,-22.1141"/>
<polygon fill="midnightblue" stroke="midnightblue" points="176.668,-18.6357 166.179,-20.1298 175.31,-25.5028 176.668,-18.6357"/>
</g>
<!-- Node32 -->
<g id="node75" class="node"><title>Node32</title>
<polygon fill="white" stroke="#bfbfbf" points="292,-0.5 292,-21.5 346,-21.5 346,-0.5 292,-0.5"/>
<text text-anchor="middle" x="319" y="-8.5" font-family="Helvetica,sans-Serif" font-size="10.00">iostream</text>
</g>
<!-- Node31&#45;&gt;Node32 -->
<g id="edge86" class="edge"><title>Node31&#45;&gt;Node32</title>
<path fill="none" stroke="midnightblue" d="M513.081,-116.332C502.795,-101.273 482.075,-73.8565 458,-58 449.236,-52.2279 394.168,-34.4146 356.034,-22.4522"/>
<polygon fill="midnightblue" stroke="midnightblue" points="356.85,-19.0405 346.261,-19.3982 354.762,-25.7218 356.85,-19.0405"/>
</g>
<!-- Node33 -->
<g id="node77" class="node"><title>Node33</title>
<polygon fill="white" stroke="#bfbfbf" points="364,-0.5 364,-21.5 408,-21.5 408,-0.5 364,-0.5"/>
<text text-anchor="middle" x="386" y="-8.5" font-family="Helvetica,sans-Serif" font-size="10.00">vector</text>
</g>
<!-- Node31&#45;&gt;Node33 -->
<g id="edge88" class="edge"><title>Node31&#45;&gt;Node33</title>
<path fill="none" stroke="midnightblue" d="M518.963,-116.283C516.989,-101.417 511.403,-74.5052 496,-58 490.279,-51.8691 447.988,-34.7649 417.552,-22.9748"/>
<polygon fill="midnightblue" stroke="midnightblue" points="418.737,-19.6809 408.147,-19.3543 416.222,-26.2135 418.737,-19.6809"/>
</g>
<!-- Node34 -->
<g id="node79" class="node"><title>Node34</title>
<polygon fill="white" stroke="#bfbfbf" points="183.5,-0.5 183.5,-21.5 274.5,-21.5 274.5,-0.5 183.5,-0.5"/>
<text text-anchor="middle" x="229" y="-8.5" font-family="Helvetica,sans-Serif" font-size="10.00">yarp/sig/Vector.h</text>
</g>
<!-- Node31&#45;&gt;Node34 -->
<g id="edge90" class="edge"><title>Node31&#45;&gt;Node34</title>
<path fill="none" stroke="midnightblue" d="M506.042,-116.427C483.054,-99.1779 437.987,-66.0891 420,-58 396.012,-47.2119 331.736,-32.3891 284.342,-22.2934"/>
<polygon fill="midnightblue" stroke="midnightblue" points="285.013,-18.858 274.505,-20.214 283.565,-25.7067 285.013,-18.858"/>
</g>
<!-- Node31&#45;&gt;Node35 -->
<g id="edge96" class="edge"><title>Node31&#45;&gt;Node35</title>
<path fill="none" stroke="midnightblue" d="M600.689,-119.148C721.607,-107.381 947.132,-85.4335 1055.2,-74.9165"/>
<polygon fill="midnightblue" stroke="midnightblue" points="1055.67,-78.3873 1065.29,-73.9351 1055,-71.4202 1055.67,-78.3873"/>
</g>
<!-- Node35&#45;&gt;Node9 -->
<g id="edge98" class="edge"><title>Node35&#45;&gt;Node9</title>
<path fill="none" stroke="midnightblue" d="M1166.8,-68.5174C1348.45,-66.5237 1965.98,-57.3725 2183.74,-21.7531"/>
<polygon fill="midnightblue" stroke="midnightblue" points="2184.54,-25.1681 2193.81,-20.0369 2183.36,-18.2677 2184.54,-25.1681"/>
</g>
<!-- Node35&#45;&gt;Node26 -->
<g id="edge140" class="edge"><title>Node35&#45;&gt;Node26</title>
<path fill="none" stroke="midnightblue" d="M1065.33,-68.0035C887.841,-64.3128 293.968,-50.2246 82.7873,-21.9915"/>
<polygon fill="midnightblue" stroke="midnightblue" points="83.1097,-18.5027 72.7231,-20.593 82.1461,-25.4361 83.1097,-18.5027"/>
</g>
<!-- Node35&#45;&gt;Node28 -->
<g id="edge138" class="edge"><title>Node35&#45;&gt;Node28</title>
<path fill="none" stroke="midnightblue" d="M1166.77,-67.0931C1324.81,-61.0285 1807.57,-41.4991 1985.48,-22.031"/>
<polygon fill="midnightblue" stroke="midnightblue" points="1985.95,-25.5004 1995.49,-20.8974 1985.16,-18.5448 1985.95,-25.5004"/>
</g>
<!-- Node35&#45;&gt;Node29 -->
<g id="edge136" class="edge"><title>Node35&#45;&gt;Node29</title>
<path fill="none" stroke="midnightblue" d="M1166.77,-68.1686C1339.67,-65.0958 1905.58,-52.9944 2107.77,-21.8139"/>
<polygon fill="midnightblue" stroke="midnightblue" points="2108.38,-25.2613 2117.7,-20.2184 2107.27,-18.35 2108.38,-25.2613"/>
</g>
<!-- Node35&#45;&gt;Node30 -->
<g id="edge128" class="edge"><title>Node35&#45;&gt;Node30</title>
<path fill="none" stroke="midnightblue" d="M1065.31,-67.6725C898.745,-63.1248 368.418,-47.1254 176.105,-21.8885"/>
<polygon fill="midnightblue" stroke="midnightblue" points="176.492,-18.4089 166.111,-20.5249 175.546,-25.3447 176.492,-18.4089"/>
</g>
<!-- Node35&#45;&gt;Node32 -->
<g id="edge102" class="edge"><title>Node35&#45;&gt;Node32</title>
<path fill="none" stroke="midnightblue" d="M1065.42,-67.4259C921.565,-62.7091 511.094,-47.5242 356.592,-21.868"/>
<polygon fill="midnightblue" stroke="midnightblue" points="356.806,-18.3526 346.354,-20.0829 355.604,-25.2486 356.806,-18.3526"/>
</g>
<!-- Node35&#45;&gt;Node33 -->
<g id="edge106" class="edge"><title>Node35&#45;&gt;Node33</title>
<path fill="none" stroke="midnightblue" d="M1065.31,-67.3916C929.68,-62.8086 559.754,-48.4065 418.324,-21.7042"/>
<polygon fill="midnightblue" stroke="midnightblue" points="418.634,-18.1973 408.143,-19.6764 417.266,-25.0624 418.634,-18.1973"/>
</g>
<!-- Node35&#45;&gt;Node34 -->
<g id="edge134" class="edge"><title>Node35&#45;&gt;Node34</title>
<path fill="none" stroke="midnightblue" d="M1065.24,-67.1004C911.963,-61.2152 454.449,-42.5155 284.63,-22.0266"/>
<polygon fill="midnightblue" stroke="midnightblue" points="284.945,-18.5388 274.587,-20.7688 284.075,-25.4846 284.945,-18.5388"/>
</g>
<!-- Node36 -->
<g id="node86" class="node"><title>Node36</title>
<polygon fill="white" stroke="#bfbfbf" points="1806,-0.5 1806,-21.5 1850,-21.5 1850,-0.5 1806,-0.5"/>
<text text-anchor="middle" x="1828" y="-8.5" font-family="Helvetica,sans-Serif" font-size="10.00">cmath</text>
</g>
<!-- Node35&#45;&gt;Node36 -->
<g id="edge100" class="edge"><title>Node35&#45;&gt;Node36</title>
<path fill="none" stroke="midnightblue" d="M1166.61,-67.2904C1299.75,-62.516 1658.38,-47.7958 1795.95,-21.6555"/>
<polygon fill="midnightblue" stroke="midnightblue" points="1796.74,-25.0673 1805.86,-19.6715 1795.36,-18.2036 1796.74,-25.0673"/>
</g>
<!-- Node37 -->
<g id="node89" class="node"><title>Node37</title>
<polygon fill="white" stroke="#bfbfbf" points="1867.5,-0.5 1867.5,-21.5 1908.5,-21.5 1908.5,-0.5 1867.5,-0.5"/>
<text text-anchor="middle" x="1888" y="-8.5" font-family="Helvetica,sans-Serif" font-size="10.00">string</text>
</g>
<!-- Node35&#45;&gt;Node37 -->
<g id="edge104" class="edge"><title>Node35&#45;&gt;Node37</title>
<path fill="none" stroke="midnightblue" d="M1166.76,-67.763C1308.59,-64.0009 1707.94,-51.244 1857.42,-21.7552"/>
<polygon fill="midnightblue" stroke="midnightblue" points="1858.24,-25.1589 1867.32,-19.6959 1856.81,-18.3055 1858.24,-25.1589"/>
</g>
<!-- Node38 -->
<g id="node92" class="node"><title>Node38</title>
<polygon fill="white" stroke="#bfbfbf" points="1926,-0.5 1926,-21.5 1978,-21.5 1978,-0.5 1926,-0.5"/>
<text text-anchor="middle" x="1952" y="-8.5" font-family="Helvetica,sans-Serif" font-size="10.00">sstream</text>
</g>
<!-- Node35&#45;&gt;Node38 -->
<g id="edge108" class="edge"><title>Node35&#45;&gt;Node38</title>
<path fill="none" stroke="midnightblue" d="M1166.52,-67.6597C1315.56,-63.4548 1752.61,-49.2588 1915.48,-21.8206"/>
<polygon fill="midnightblue" stroke="midnightblue" points="1916.56,-25.1826 1925.8,-19.9941 1915.34,-18.2896 1916.56,-25.1826"/>
</g>
<!-- Node39 -->
<g id="node94" class="node"><title>Node39</title>
<polygon fill="white" stroke="#bfbfbf" points="425.5,-0.5 425.5,-21.5 540.5,-21.5 540.5,-0.5 425.5,-0.5"/>
<text text-anchor="middle" x="483" y="-8.5" font-family="Helvetica,sans-Serif" font-size="10.00">yarp/os/BufferedPort.h</text>
</g>
<!-- Node35&#45;&gt;Node39 -->
<g id="edge110" class="edge"><title>Node35&#45;&gt;Node39</title>
<path fill="none" stroke="midnightblue" d="M1065.41,-66.2106C967.833,-60.525 746.638,-46.1581 550.746,-22.1405"/>
<polygon fill="midnightblue" stroke="midnightblue" points="550.906,-18.6337 540.552,-20.879 550.047,-25.5807 550.906,-18.6337"/>
</g>
<!-- Node40 -->
<g id="node96" class="node"><title>Node40</title>
<polygon fill="white" stroke="#bfbfbf" points="558,-0.5 558,-21.5 644,-21.5 644,-0.5 558,-0.5"/>
<text text-anchor="middle" x="601" y="-8.5" font-family="Helvetica,sans-Serif" font-size="10.00">yarp/os/Bottle.h</text>
</g>
<!-- Node35&#45;&gt;Node40 -->
<g id="edge112" class="edge"><title>Node35&#45;&gt;Node40</title>
<path fill="none" stroke="midnightblue" d="M1065.42,-65.6505C981.878,-59.7288 809.684,-45.8781 654.276,-22.0645"/>
<polygon fill="midnightblue" stroke="midnightblue" points="654.483,-18.5549 644.064,-20.4815 653.41,-25.4723 654.483,-18.5549"/>
</g>
<!-- Node41 -->
<g id="node98" class="node"><title>Node41</title>
<polygon fill="white" stroke="#bfbfbf" points="661.5,-0.5 661.5,-21.5 772.5,-21.5 772.5,-0.5 661.5,-0.5"/>
<text text-anchor="middle" x="717" y="-8.5" font-family="Helvetica,sans-Serif" font-size="10.00">yarp/os/RateThread.h</text>
</g>
<!-- Node35&#45;&gt;Node41 -->
<g id="edge114" class="edge"><title>Node35&#45;&gt;Node41</title>
<path fill="none" stroke="midnightblue" d="M1065.42,-62.3974C1001.75,-53.977 888.779,-38.6728 782.74,-22.2421"/>
<polygon fill="midnightblue" stroke="midnightblue" points="783.25,-18.7795 772.831,-20.7002 782.174,-25.6962 783.25,-18.7795"/>
</g>
<!-- Node42 -->
<g id="node100" class="node"><title>Node42</title>
<polygon fill="white" stroke="#bfbfbf" points="789.5,-0.5 789.5,-21.5 918.5,-21.5 918.5,-0.5 789.5,-0.5"/>
<text text-anchor="middle" x="854" y="-8.5" font-family="Helvetica,sans-Serif" font-size="10.00">yarp/os/ResourceFinder.h</text>
</g>
<!-- Node35&#45;&gt;Node42 -->
<g id="edge116" class="edge"><title>Node35&#45;&gt;Node42</title>
<path fill="none" stroke="midnightblue" d="M1068.55,-58.4966C1024.45,-48.7341 958.672,-34.1718 911.583,-23.7474"/>
<polygon fill="midnightblue" stroke="midnightblue" points="912.055,-20.2673 901.535,-21.5231 910.542,-27.1018 912.055,-20.2673"/>
</g>
<!-- Node43 -->
<g id="node102" class="node"><title>Node43</title>
<polygon fill="white" stroke="#bfbfbf" points="936,-0.5 936,-21.5 1046,-21.5 1046,-0.5 936,-0.5"/>
<text text-anchor="middle" x="991" y="-8.5" font-family="Helvetica,sans-Serif" font-size="10.00">yarp/os/PortReader.h</text>
</g>
<!-- Node35&#45;&gt;Node43 -->
<g id="edge118" class="edge"><title>Node35&#45;&gt;Node43</title>
<path fill="none" stroke="midnightblue" d="M1093.36,-58.4966C1073.75,-49.397 1045.15,-36.1273 1023.17,-25.9253"/>
<polygon fill="midnightblue" stroke="midnightblue" points="1024.43,-22.6554 1013.89,-21.6212 1021.49,-29.0051 1024.43,-22.6554"/>
</g>
<!-- Node44 -->
<g id="node104" class="node"><title>Node44</title>
<polygon fill="white" stroke="#bfbfbf" points="1064,-0.5 1064,-21.5 1168,-21.5 1168,-0.5 1064,-0.5"/>
<text text-anchor="middle" x="1116" y="-8.5" font-family="Helvetica,sans-Serif" font-size="10.00">yarp/os/RpcClient.h</text>
</g>
<!-- Node35&#45;&gt;Node44 -->
<g id="edge120" class="edge"><title>Node35&#45;&gt;Node44</title>
<path fill="none" stroke="midnightblue" d="M1116,-58.3619C1116,-50.9219 1116,-40.7427 1116,-31.7276"/>
<polygon fill="midnightblue" stroke="midnightblue" points="1119.5,-31.5706 1116,-21.5707 1112.5,-31.5707 1119.5,-31.5706"/>
</g>
<!-- Node45 -->
<g id="node106" class="node"><title>Node45</title>
<polygon fill="white" stroke="#bfbfbf" points="1185.5,-0.5 1185.5,-21.5 1292.5,-21.5 1292.5,-0.5 1185.5,-0.5"/>
<text text-anchor="middle" x="1239" y="-8.5" font-family="Helvetica,sans-Serif" font-size="10.00">yarp/os/RpcServer.h</text>
</g>
<!-- Node35&#45;&gt;Node45 -->
<g id="edge122" class="edge"><title>Node35&#45;&gt;Node45</title>
<path fill="none" stroke="midnightblue" d="M1138.27,-58.4966C1157.57,-49.397 1185.71,-36.1273 1207.35,-25.9253"/>
<polygon fill="midnightblue" stroke="midnightblue" points="1208.92,-29.052 1216.48,-21.6212 1205.94,-22.7206 1208.92,-29.052"/>
</g>
<!-- Node46 -->
<g id="node108" class="node"><title>Node46</title>
<polygon fill="white" stroke="#bfbfbf" points="1309.5,-0.5 1309.5,-21.5 1450.5,-21.5 1450.5,-0.5 1309.5,-0.5"/>
<text text-anchor="middle" x="1380" y="-8.5" font-family="Helvetica,sans-Serif" font-size="10.00">yarp/os/ConnectionReader.h</text>
</g>
<!-- Node35&#45;&gt;Node46 -->
<g id="edge124" class="edge"><title>Node35&#45;&gt;Node46</title>
<path fill="none" stroke="midnightblue" d="M1163.81,-58.4966C1208.34,-48.7136 1274.81,-34.1107 1322.28,-23.6819"/>
<polygon fill="midnightblue" stroke="midnightblue" points="1323.09,-27.0874 1332.1,-21.5231 1321.58,-20.2505 1323.09,-27.0874"/>
</g>
<!-- Node47 -->
<g id="node110" class="node"><title>Node47</title>
<polygon fill="white" stroke="#bfbfbf" points="1468,-0.5 1468,-21.5 1550,-21.5 1550,-0.5 1468,-0.5"/>
<text text-anchor="middle" x="1509" y="-8.5" font-family="Helvetica,sans-Serif" font-size="10.00">yarp/os/Time.h</text>
</g>
<!-- Node35&#45;&gt;Node47 -->
<g id="edge126" class="edge"><title>Node35&#45;&gt;Node47</title>
<path fill="none" stroke="midnightblue" d="M1166.76,-63.3376C1231.92,-55.7827 1348.65,-41.2835 1457.97,-22.0789"/>
<polygon fill="midnightblue" stroke="midnightblue" points="1458.62,-25.5198 1467.85,-20.3273 1457.39,-18.6274 1458.62,-25.5198"/>
</g>
<!-- Node48 -->
<g id="node113" class="node"><title>Node48</title>
<polygon fill="white" stroke="#bfbfbf" points="1567.5,-0.5 1567.5,-21.5 1674.5,-21.5 1674.5,-0.5 1567.5,-0.5"/>
<text text-anchor="middle" x="1621" y="-8.5" font-family="Helvetica,sans-Serif" font-size="10.00">yarp/os/LogStream.h</text>
</g>
<!-- Node35&#45;&gt;Node48 -->
<g id="edge130" class="edge"><title>Node35&#45;&gt;Node48</title>
<path fill="none" stroke="midnightblue" d="M1166.63,-64.7881C1247.22,-57.8304 1409.82,-42.7546 1557.14,-22.1957"/>
<polygon fill="midnightblue" stroke="midnightblue" points="1557.85,-25.6297 1567.27,-20.7699 1556.88,-18.698 1557.85,-25.6297"/>
</g>
<!-- Node49 -->
<g id="node115" class="node"><title>Node49</title>
<polygon fill="white" stroke="#bfbfbf" points="1691.5,-0.5 1691.5,-21.5 1788.5,-21.5 1788.5,-0.5 1691.5,-0.5"/>
<text text-anchor="middle" x="1740" y="-8.5" font-family="Helvetica,sans-Serif" font-size="10.00">yarp/os/Property.h</text>
</g>
<!-- Node35&#45;&gt;Node49 -->
<g id="edge132" class="edge"><title>Node35&#45;&gt;Node49</title>
<path fill="none" stroke="midnightblue" d="M1166.64,-66.6396C1264.32,-61.6884 1485.67,-48.5342 1681.07,-22.1566"/>
<polygon fill="midnightblue" stroke="midnightblue" points="1681.81,-25.5891 1691.24,-20.7687 1680.86,-18.6534 1681.81,-25.5891"/>
</g>
</g>
</svg>
