<?xml version="1.0" encoding="UTF-8" standalone="no"?>
<!DOCTYPE svg PUBLIC "-//W3C//DTD SVG 1.1//EN"
 "http://www.w3.org/Graphics/SVG/1.1/DTD/svg11.dtd">
<!-- Generated by graphviz version 2.26.3 (20100126.1600)
 -->
<!-- Title: G Pages: 1 -->
<svg width="4073pt" height="320pt"
 viewBox="0.00 0.00 4073.00 320.00" xmlns="http://www.w3.org/2000/svg" xmlns:xlink="http://www.w3.org/1999/xlink">
<g id="graph1" class="graph" transform="scale(1 1) rotate(0) translate(4 316)">
<title>G</title>
<polygon fill="white" stroke="white" points="-4,5 -4,-316 4070,-316 4070,5 -4,5"/>
<!-- Node1 -->
<g id="node1" class="node"><title>Node1</title>
<polygon fill="#bfbfbf" stroke="black" points="1972,-290.5 1972,-311.5 2370,-311.5 2370,-290.5 1972,-290.5"/>
<text text-anchor="middle" x="2171" y="-298.5" font-family="Helvetica,sans-Serif" font-size="10.00">ocra&#45;wbi&#45;plugins/ocra&#45;icub&#45;clients/walking&#45;client/include/walking&#45;client/MIQPController.h</text>
</g>
<!-- Node2 -->
<g id="node3" class="node"><title>Node2</title>
<polygon fill="white" stroke="#bfbfbf" points="0,-232.5 0,-253.5 74,-253.5 74,-232.5 0,-232.5"/>
<text text-anchor="middle" x="37" y="-240.5" font-family="Helvetica,sans-Serif" font-size="10.00">gurobi_c++.h</text>
</g>
<!-- Node1&#45;&gt;Node2 -->
<g id="edge2" class="edge"><title>Node1&#45;&gt;Node2</title>
<path fill="none" stroke="midnightblue" d="M1971.65,-298.658C1486.64,-292.652 271.32,-275.639 88,-254 86.735,-253.851 85.4551,-253.685 84.1658,-253.504"/>
<polygon fill="midnightblue" stroke="midnightblue" points="84.62,-250.032 74.1865,-251.874 83.4913,-256.94 84.62,-250.032"/>
</g>
<!-- Node3 -->
<g id="node5" class="node"><title>Node3</title>
<a xlink:href="utils_8h.html" target="_top" xlink:title="walking&#45;client/utils.h">
<polygon fill="white" stroke="black" points="87.5,-0.5 87.5,-21.5 192.5,-21.5 192.5,-0.5 87.5,-0.5"/>
<text text-anchor="middle" x="140" y="-8.5" font-family="Helvetica,sans-Serif" font-size="10.00">walking&#45;client/utils.h</text>
</a>
</g>
<!-- Node1&#45;&gt;Node3 -->
<g id="edge4" class="edge"><title>Node1&#45;&gt;Node3</title>
<path fill="none" stroke="midnightblue" d="M1971.68,-300.102C1453.13,-296.457 102,-278.033 102,-185 102,-185 102,-185 102,-127 102,-91.7411 118.051,-53.3154 129.289,-30.7323"/>
<polygon fill="midnightblue" stroke="midnightblue" points="132.418,-32.3005 133.895,-21.809 126.198,-29.0901 132.418,-32.3005"/>
</g>
<!-- Node4 -->
<g id="node7" class="node"><title>Node4</title>
<a xlink:href="OcraWbiModel_8h.html" target="_top" xlink:title="Implementation of ocra::Model using wholeBodyInterface.">
<polygon fill="white" stroke="black" points="2105,-174.5 2105,-195.5 2237,-195.5 2237,-174.5 2105,-174.5"/>
<text text-anchor="middle" x="2171" y="-182.5" font-family="Helvetica,sans-Serif" font-size="10.00">ocra&#45;icub/OcraWbiModel.h</text>
</a>
</g>
<!-- Node1&#45;&gt;Node4 -->
<g id="edge6" class="edge"><title>Node1&#45;&gt;Node4</title>
<path fill="none" stroke="midnightblue" d="M2180.06,-290.252C2187.04,-281.227 2196.13,-267.652 2200,-254 2202.67,-244.593 2202.67,-241.407 2200,-232 2197.19,-222.081 2191.62,-212.203 2186.11,-204.08"/>
<polygon fill="midnightblue" stroke="midnightblue" points="2188.77,-201.785 2180.06,-195.748 2183.1,-205.897 2188.77,-201.785"/>
</g>
<!-- Node21 -->
<g id="node46" class="node"><title>Node21</title>
<polygon fill="white" stroke="#bfbfbf" points="3778.5,-0.5 3778.5,-21.5 3889.5,-21.5 3889.5,-0.5 3778.5,-0.5"/>
<text text-anchor="middle" x="3834" y="-8.5" font-family="Helvetica,sans-Serif" font-size="10.00">yarp/os/RateThread.h</text>
</g>
<!-- Node1&#45;&gt;Node21 -->
<g id="edge86" class="edge"><title>Node1&#45;&gt;Node21</title>
<path fill="none" stroke="midnightblue" d="M2260.44,-290.489C2411.28,-271.537 2700,-229.455 2700,-185 2700,-185 2700,-185 2700,-127 2700,-85.7719 2724.65,-75.4577 2762,-58 2860.95,-11.7492 3618.6,-32.3968 3767.81,-21.9264"/>
<polygon fill="midnightblue" stroke="midnightblue" points="3768.55,-25.3768 3778.21,-21.0429 3767.95,-18.4019 3768.55,-25.3768"/>
</g>
<!-- Node32 -->
<g id="node72" class="node"><title>Node32</title>
<polygon fill="white" stroke="#bfbfbf" points="3906.5,-0.5 3906.5,-21.5 3979.5,-21.5 3979.5,-0.5 3906.5,-0.5"/>
<text text-anchor="middle" x="3943" y="-8.5" font-family="Helvetica,sans-Serif" font-size="10.00">Eigen/Dense</text>
</g>
<!-- Node1&#45;&gt;Node32 -->
<g id="edge88" class="edge"><title>Node1&#45;&gt;Node32</title>
<path fill="none" stroke="midnightblue" d="M2285.86,-290.488C2461.33,-272.859 2776,-234.363 2776,-185 2776,-185 2776,-185 2776,-127 2776,-94.5312 2773.85,-77.2445 2800,-58 2847.48,-23.0618 3771.07,-29.764 3896.08,-21.5609"/>
<polygon fill="midnightblue" stroke="midnightblue" points="3896.64,-25.0247 3906.28,-20.6315 3896.01,-18.0536 3896.64,-25.0247"/>
</g>
<!-- Node33 -->
<g id="node74" class="node"><title>Node33</title>
<polygon fill="white" stroke="#bfbfbf" points="3997,-0.5 3997,-21.5 4065,-21.5 4065,-0.5 3997,-0.5"/>
<text text-anchor="middle" x="4031" y="-8.5" font-family="Helvetica,sans-Serif" font-size="10.00">Eigen/Lgsm</text>
</g>
<!-- Node1&#45;&gt;Node33 -->
<g id="edge90" class="edge"><title>Node1&#45;&gt;Node33</title>
<path fill="none" stroke="midnightblue" d="M2321.33,-290.481C2435.4,-281.653 2582.27,-268.231 2641,-254 2721.45,-234.505 2814,-267.779 2814,-185 2814,-185 2814,-185 2814,-127 2814,1.15142 3814.5,-42.1499 3986.71,-21.7093"/>
<polygon fill="midnightblue" stroke="midnightblue" points="3987.43,-25.1423 3996.84,-20.2682 3986.45,-18.2122 3987.43,-25.1423"/>
</g>
<!-- Node34 -->
<g id="node80" class="node"><title>Node34</title>
<polygon fill="white" stroke="#bfbfbf" points="1301,-0.5 1301,-21.5 1471,-21.5 1471,-0.5 1301,-0.5"/>
<text text-anchor="middle" x="1386" y="-8.5" font-family="Helvetica,sans-Serif" font-size="10.00">unsupported/Eigen/MatrixFunctions</text>
</g>
<!-- Node1&#45;&gt;Node34 -->
<g id="edge92" class="edge"><title>Node1&#45;&gt;Node34</title>
<path fill="none" stroke="midnightblue" d="M2111.57,-290.44C2024.37,-273.23 1872,-235.877 1872,-185 1872,-185 1872,-185 1872,-127 1872,-86.5111 1613.5,-43.3807 1473.55,-22.9974"/>
<polygon fill="midnightblue" stroke="midnightblue" points="1473.67,-19.4784 1463.28,-21.5103 1472.67,-26.4063 1473.67,-19.4784"/>
</g>
<!-- Node35 -->
<g id="node82" class="node"><title>Node35</title>
<a xlink:href="MIQPLinearConstraints_8h.html" target="_top" xlink:title="walking&#45;client/constraints/MIQPLinearConstraints.h">
<polygon fill="white" stroke="black" points="1283,-232.5 1283,-253.5 1523,-253.5 1523,-232.5 1283,-232.5"/>
<text text-anchor="middle" x="1403" y="-240.5" font-family="Helvetica,sans-Serif" font-size="10.00">walking&#45;client/constraints/MIQPLinearConstraints.h</text>
</a>
</g>
<!-- Node1&#45;&gt;Node35 -->
<g id="edge94" class="edge"><title>Node1&#45;&gt;Node35</title>
<path fill="none" stroke="midnightblue" d="M2031.92,-290.497C1890.12,-279.788 1671.85,-263.304 1533.31,-252.841"/>
<polygon fill="midnightblue" stroke="midnightblue" points="1533.3,-249.33 1523.06,-252.067 1532.77,-256.31 1533.3,-249.33"/>
</g>
<!-- Node48 -->
<g id="node119" class="node"><title>Node48</title>
<a xlink:href="MIQPState_8h.html" target="_top" xlink:title="walking&#45;client/MIQPState.h">
<polygon fill="white" stroke="black" points="2055,-232.5 2055,-253.5 2191,-253.5 2191,-232.5 2055,-232.5"/>
<text text-anchor="middle" x="2123" y="-240.5" font-family="Helvetica,sans-Serif" font-size="10.00">walking&#45;client/MIQPState.h</text>
</a>
</g>
<!-- Node1&#45;&gt;Node48 -->
<g id="edge142" class="edge"><title>Node1&#45;&gt;Node48</title>
<path fill="none" stroke="midnightblue" d="M2162.2,-290.362C2155.5,-282.268 2146.12,-270.932 2138.21,-261.38"/>
<polygon fill="midnightblue" stroke="midnightblue" points="2140.82,-259.043 2131.75,-253.571 2135.43,-263.506 2140.82,-259.043"/>
</g>
<!-- Node49 -->
<g id="node126" class="node"><title>Node49</title>
<polygon fill="white" stroke="#bfbfbf" points="2841.5,-232.5 2841.5,-253.5 2894.5,-253.5 2894.5,-232.5 2841.5,-232.5"/>
<text text-anchor="middle" x="2868" y="-240.5" font-family="Helvetica,sans-Serif" font-size="10.00">Gurobi.h</text>
</g>
<!-- Node1&#45;&gt;Node49 -->
<g id="edge154" class="edge"><title>Node1&#45;&gt;Node49</title>
<path fill="none" stroke="midnightblue" d="M2370.16,-291.067C2530.67,-282.258 2743.12,-268.561 2828,-254 2829.1,-253.811 2830.21,-253.605 2831.34,-253.384"/>
<polygon fill="midnightblue" stroke="midnightblue" points="2832.51,-256.707 2841.48,-251.076 2830.96,-249.881 2832.51,-256.707"/>
</g>
<!-- Node5 -->
<g id="node9" class="node"><title>Node5</title>
<polygon fill="white" stroke="#bfbfbf" points="1489,-0.5 1489,-21.5 1541,-21.5 1541,-0.5 1489,-0.5"/>
<text text-anchor="middle" x="1515" y="-8.5" font-family="Helvetica,sans-Serif" font-size="10.00">memory</text>
</g>
<!-- Node4&#45;&gt;Node5 -->
<g id="edge8" class="edge"><title>Node4&#45;&gt;Node5</title>
<path fill="none" stroke="midnightblue" d="M2129.59,-174.497C2099.4,-166.211 2057.86,-153.486 2023,-138 2020.99,-137.106 1888.09,-58.6882 1886,-58 1746.39,-12.1014 1699.06,-50.9196 1551.12,-21.8678"/>
<polygon fill="midnightblue" stroke="midnightblue" points="1551.72,-18.4193 1541.23,-19.8545 1550.33,-25.2787 1551.72,-18.4193"/>
</g>
<!-- Node6 -->
<g id="node11" class="node"><title>Node6</title>
<polygon fill="white" stroke="#bfbfbf" points="3656.5,-0.5 3656.5,-21.5 3761.5,-21.5 3761.5,-0.5 3656.5,-0.5"/>
<text text-anchor="middle" x="3709" y="-8.5" font-family="Helvetica,sans-Serif" font-size="10.00">ocra/control/Model.h</text>
</g>
<!-- Node4&#45;&gt;Node6 -->
<g id="edge10" class="edge"><title>Node4&#45;&gt;Node6</title>
<path fill="none" stroke="midnightblue" d="M2237.18,-180.55C2303.98,-174.885 2409.62,-162.701 2498,-138 2541.73,-125.779 2641.69,-67.9022 2686,-58 2891.62,-12.0496 3419.03,-44.0379 3646.23,-22.0075"/>
<polygon fill="midnightblue" stroke="midnightblue" points="3646.91,-25.457 3656.5,-20.953 3646.19,-18.4937 3646.91,-25.457"/>
</g>
<!-- Node7 -->
<g id="node13" class="node"><title>Node7</title>
<polygon fill="white" stroke="#bfbfbf" points="1559,-0.5 1559,-21.5 1617,-21.5 1617,-0.5 1559,-0.5"/>
<text text-anchor="middle" x="1588" y="-8.5" font-family="Helvetica,sans-Serif" font-size="10.00">wbi/wbi.h</text>
</g>
<!-- Node4&#45;&gt;Node7 -->
<g id="edge12" class="edge"><title>Node4&#45;&gt;Node7</title>
<path fill="none" stroke="midnightblue" d="M2147.81,-174.495C2127.44,-165.176 2097.07,-151.054 2071,-138 2021.93,-113.433 2009.98,-106.641 1962,-80 1944.94,-70.526 1942.51,-64.1853 1924,-58 1800.56,-16.7492 1758.76,-47.0719 1627.38,-21.9907"/>
<polygon fill="midnightblue" stroke="midnightblue" points="1627.83,-18.5128 1617.34,-20.0016 1626.47,-25.3792 1627.83,-18.5128"/>
</g>
<!-- Node8 -->
<g id="node15" class="node"><title>Node8</title>
<polygon fill="white" stroke="#bfbfbf" points="1635,-0.5 1635,-21.5 1711,-21.5 1711,-0.5 1635,-0.5"/>
<text text-anchor="middle" x="1673" y="-8.5" font-family="Helvetica,sans-Serif" font-size="10.00">yarp/os/Log.h</text>
</g>
<!-- Node4&#45;&gt;Node8 -->
<g id="edge14" class="edge"><title>Node4&#45;&gt;Node8</title>
<path fill="none" stroke="midnightblue" d="M2157.79,-174.323C2126.16,-149.373 2042.66,-87.1554 1962,-58 1862.73,-22.1181 1828.8,-41.205 1721.12,-22.0501"/>
<polygon fill="midnightblue" stroke="midnightblue" points="1721.63,-18.5861 1711.16,-20.2087 1720.36,-25.4693 1721.63,-18.5861"/>
</g>
<!-- Node9 -->
<g id="node17" class="node"><title>Node9</title>
<a xlink:href="OcraWbiConversions_8h.html" target="_top" xlink:title="A utility class full of static conversion functions.">
<polygon fill="white" stroke="black" points="2293.5,-116.5 2293.5,-137.5 2454.5,-137.5 2454.5,-116.5 2293.5,-116.5"/>
<text text-anchor="middle" x="2374" y="-124.5" font-family="Helvetica,sans-Serif" font-size="10.00">ocra&#45;icub/OcraWbiConversions.h</text>
</a>
</g>
<!-- Node4&#45;&gt;Node9 -->
<g id="edge16" class="edge"><title>Node4&#45;&gt;Node9</title>
<path fill="none" stroke="midnightblue" d="M2207.76,-174.497C2241.29,-164.918 2290.98,-150.72 2327.3,-140.342"/>
<polygon fill="midnightblue" stroke="midnightblue" points="2328.52,-143.636 2337.17,-137.523 2326.59,-136.905 2328.52,-143.636"/>
</g>
<!-- Node15 -->
<g id="node31" class="node"><title>Node15</title>
<a xlink:href="Utilities_8h.html" target="_top" xlink:title="Some useful tools for the ocra&#45;icub lib.">
<polygon fill="white" stroke="black" points="2515.5,-58.5 2515.5,-79.5 2616.5,-79.5 2616.5,-58.5 2515.5,-58.5"/>
<text text-anchor="middle" x="2566" y="-66.5" font-family="Helvetica,sans-Serif" font-size="10.00">ocra&#45;icub/Utilities.h</text>
</a>
</g>
<!-- Node4&#45;&gt;Node15 -->
<g id="edge84" class="edge"><title>Node4&#45;&gt;Node15</title>
<path fill="none" stroke="midnightblue" d="M2237.22,-177.679C2310.33,-169.009 2422.98,-153.747 2463,-138 2494.58,-125.573 2526.33,-102.28 2546.06,-86.2197"/>
<polygon fill="midnightblue" stroke="midnightblue" points="2548.54,-88.7088 2553.99,-79.6235 2544.07,-83.3269 2548.54,-88.7088"/>
</g>
<!-- Node9&#45;&gt;Node7 -->
<g id="edge28" class="edge"><title>Node9&#45;&gt;Node7</title>
<path fill="none" stroke="midnightblue" d="M2293.26,-118.375C2225.94,-110.506 2127.7,-97.4465 2043,-80 2006.46,-72.4744 1998.66,-64.8976 1962,-58 1817.57,-30.8267 1775.18,-50.1218 1627.23,-21.9658"/>
<polygon fill="midnightblue" stroke="midnightblue" points="1627.82,-18.514 1617.33,-20.0416 1626.48,-25.3854 1627.82,-18.514"/>
</g>
<!-- Node9&#45;&gt;Node8 -->
<g id="edge26" class="edge"><title>Node9&#45;&gt;Node8</title>
<path fill="none" stroke="midnightblue" d="M2374.57,-116.342C2374.75,-100.772 2372.5,-72.13 2355,-58 2302.01,-15.2033 1826.21,-30.8359 1721.31,-21.6457"/>
<polygon fill="midnightblue" stroke="midnightblue" points="1721.44,-18.139 1711.11,-20.5031 1720.66,-25.0954 1721.44,-18.139"/>
</g>
<!-- Node10 -->
<g id="node19" class="node"><title>Node10</title>
<polygon fill="white" stroke="#bfbfbf" points="1729,-0.5 1729,-21.5 1783,-21.5 1783,-0.5 1729,-0.5"/>
<text text-anchor="middle" x="1756" y="-8.5" font-family="Helvetica,sans-Serif" font-size="10.00">iostream</text>
</g>
<!-- Node9&#45;&gt;Node10 -->
<g id="edge18" class="edge"><title>Node9&#45;&gt;Node10</title>
<path fill="none" stroke="midnightblue" d="M2381.11,-116.352C2390.18,-101.318 2403,-73.9308 2388,-58 2344.26,-11.5347 1893.61,-32.0461 1793.54,-21.4926"/>
<polygon fill="midnightblue" stroke="midnightblue" points="1793.74,-17.9862 1783.35,-20.0868 1792.78,-24.9206 1793.74,-17.9862"/>
</g>
<!-- Node11 -->
<g id="node21" class="node"><title>Node11</title>
<polygon fill="white" stroke="#bfbfbf" points="2051.5,-58.5 2051.5,-79.5 2086.5,-79.5 2086.5,-58.5 2051.5,-58.5"/>
<text text-anchor="middle" x="2069" y="-66.5" font-family="Helvetica,sans-Serif" font-size="10.00">map</text>
</g>
<!-- Node9&#45;&gt;Node11 -->
<g id="edge20" class="edge"><title>Node9&#45;&gt;Node11</title>
<path fill="none" stroke="midnightblue" d="M2293.21,-118.453C2239.42,-111.596 2167.26,-100.155 2096.65,-80.032"/>
<polygon fill="midnightblue" stroke="midnightblue" points="2097.28,-76.5699 2086.7,-77.1346 2095.33,-83.2908 2097.28,-76.5699"/>
</g>
<!-- Node12 -->
<g id="node23" class="node"><title>Node12</title>
<polygon fill="white" stroke="#bfbfbf" points="1801,-0.5 1801,-21.5 1845,-21.5 1845,-0.5 1801,-0.5"/>
<text text-anchor="middle" x="1823" y="-8.5" font-family="Helvetica,sans-Serif" font-size="10.00">vector</text>
</g>
<!-- Node9&#45;&gt;Node12 -->
<g id="edge22" class="edge"><title>Node9&#45;&gt;Node12</title>
<path fill="none" stroke="midnightblue" d="M2391.72,-116.395C2413.07,-102.353 2443.97,-77.1357 2426,-58 2384.11,-13.3912 1952.15,-33.0654 1855.25,-21.287"/>
<polygon fill="midnightblue" stroke="midnightblue" points="1855.56,-17.7936 1845.14,-19.6883 1854.47,-24.7077 1855.56,-17.7936"/>
</g>
<!-- Node13 -->
<g id="node25" class="node"><title>Node13</title>
<polygon fill="white" stroke="#bfbfbf" points="1862.5,-0.5 1862.5,-21.5 1953.5,-21.5 1953.5,-0.5 1862.5,-0.5"/>
<text text-anchor="middle" x="1908" y="-8.5" font-family="Helvetica,sans-Serif" font-size="10.00">yarp/sig/Vector.h</text>
</g>
<!-- Node9&#45;&gt;Node13 -->
<g id="edge24" class="edge"><title>Node9&#45;&gt;Node13</title>
<path fill="none" stroke="midnightblue" d="M2407.5,-116.394C2441.55,-103.965 2486.34,-81.9947 2464,-58 2427.54,-18.8269 2051.82,-28.6189 1963.67,-21.7511"/>
<polygon fill="midnightblue" stroke="midnightblue" points="1963.9,-18.2561 1953.59,-20.7194 1963.19,-25.2197 1963.9,-18.2561"/>
</g>
<!-- Node14 -->
<g id="node29" class="node"><title>Node14</title>
<polygon fill="white" stroke="#bfbfbf" points="2104,-58.5 2104,-79.5 2346,-79.5 2346,-58.5 2104,-58.5"/>
<text text-anchor="middle" x="2225" y="-66.5" font-family="Helvetica,sans-Serif" font-size="10.00">yarpWholeBodyInterface/yarpWholeBodyInterface.h</text>
</g>
<!-- Node9&#45;&gt;Node14 -->
<g id="edge30" class="edge"><title>Node9&#45;&gt;Node14</title>
<path fill="none" stroke="midnightblue" d="M2347.02,-116.497C2323.15,-107.205 2288.11,-93.5649 2261.69,-83.2832"/>
<polygon fill="midnightblue" stroke="midnightblue" points="2262.62,-79.889 2252.03,-79.5231 2260.08,-86.4122 2262.62,-79.889"/>
</g>
<!-- Node9&#45;&gt;Node15 -->
<g id="edge32" class="edge"><title>Node9&#45;&gt;Node15</title>
<path fill="none" stroke="midnightblue" d="M2408.77,-116.497C2440.34,-106.959 2487.08,-92.8408 2521.39,-82.475"/>
<polygon fill="midnightblue" stroke="midnightblue" points="2522.6,-85.7654 2531.17,-79.5231 2520.58,-79.0644 2522.6,-85.7654"/>
</g>
<!-- Node15&#45;&gt;Node5 -->
<g id="edge34" class="edge"><title>Node15&#45;&gt;Node5</title>
<path fill="none" stroke="midnightblue" d="M2515.27,-66.2499C2472.53,-63.9584 2409.77,-60.6525 2355,-58 2000.6,-40.838 1904.47,-83.4109 1551.18,-21.7932"/>
<polygon fill="midnightblue" stroke="midnightblue" points="1551.65,-18.3209 1541.19,-20.0347 1550.43,-25.215 1551.65,-18.3209"/>
</g>
<!-- Node15&#45;&gt;Node6 -->
<g id="edge76" class="edge"><title>Node15&#45;&gt;Node6</title>
<path fill="none" stroke="midnightblue" d="M2616.57,-59.6605C2621.1,-59.0201 2625.63,-58.4511 2630,-58 3077.04,-11.8906 3196.12,-69.4404 3646.47,-22.0266"/>
<polygon fill="midnightblue" stroke="midnightblue" points="3646.92,-25.4986 3656.5,-20.9599 3646.18,-18.5379 3646.92,-25.4986"/>
</g>
<!-- Node15&#45;&gt;Node7 -->
<g id="edge74" class="edge"><title>Node15&#45;&gt;Node7</title>
<path fill="none" stroke="midnightblue" d="M2515.27,-66.3161C2472.53,-64.0644 2409.77,-60.7799 2355,-58 2034.34,-41.7243 1947.73,-74.7709 1627.34,-21.8839"/>
<polygon fill="midnightblue" stroke="midnightblue" points="1627.74,-18.4033 1617.3,-20.2123 1626.59,-25.3081 1627.74,-18.4033"/>
</g>
<!-- Node15&#45;&gt;Node8 -->
<g id="edge64" class="edge"><title>Node15&#45;&gt;Node8</title>
<path fill="none" stroke="midnightblue" d="M2515.37,-65.7646C2479.75,-63.5147 2430.96,-60.4853 2388,-58 2094.51,-41.0233 2016.09,-63.5238 1721.24,-21.9536"/>
<polygon fill="midnightblue" stroke="midnightblue" points="1721.51,-18.4557 1711.11,-20.5122 1720.52,-25.3859 1721.51,-18.4557"/>
</g>
<!-- Node15&#45;&gt;Node10 -->
<g id="edge38" class="edge"><title>Node15&#45;&gt;Node10</title>
<path fill="none" stroke="midnightblue" d="M2515.47,-64.7642C2488.86,-62.6005 2455.68,-60.0082 2426,-58 2147.71,-39.1686 2071.62,-70.8347 1793.34,-21.8732"/>
<polygon fill="midnightblue" stroke="midnightblue" points="1793.81,-18.4026 1783.35,-20.0973 1792.58,-25.2944 1793.81,-18.4026"/>
</g>
<!-- Node15&#45;&gt;Node12 -->
<g id="edge42" class="edge"><title>Node15&#45;&gt;Node12</title>
<path fill="none" stroke="midnightblue" d="M2515.46,-63.0599C2499.06,-61.2635 2480.77,-59.3986 2464,-58 2196.66,-35.7091 2121.99,-74.9658 1855.12,-21.716"/>
<polygon fill="midnightblue" stroke="midnightblue" points="1855.63,-18.2489 1845.14,-19.6991 1854.25,-25.1102 1855.63,-18.2489"/>
</g>
<!-- Node15&#45;&gt;Node13 -->
<g id="edge70" class="edge"><title>Node15&#45;&gt;Node13</title>
<path fill="none" stroke="midnightblue" d="M2515.41,-59.8075C2510.89,-59.1357 2506.37,-58.5193 2502,-58 2266.42,-29.9782 2202.13,-53.4184 1963.61,-22.0711"/>
<polygon fill="midnightblue" stroke="midnightblue" points="1963.97,-18.5875 1953.59,-20.7357 1963.04,-25.5262 1963.97,-18.5875"/>
</g>
<!-- Node16 -->
<g id="node34" class="node"><title>Node16</title>
<polygon fill="white" stroke="#bfbfbf" points="2957,-0.5 2957,-21.5 3001,-21.5 3001,-0.5 2957,-0.5"/>
<text text-anchor="middle" x="2979" y="-8.5" font-family="Helvetica,sans-Serif" font-size="10.00">cmath</text>
</g>
<!-- Node15&#45;&gt;Node16 -->
<g id="edge36" class="edge"><title>Node15&#45;&gt;Node16</title>
<path fill="none" stroke="midnightblue" d="M2616.61,-60.0244C2621.14,-59.3063 2625.65,-58.62 2630,-58 2767.65,-38.3954 2807.62,-53.2881 2947.06,-21.7957"/>
<polygon fill="midnightblue" stroke="midnightblue" points="2947.87,-25.2011 2956.83,-19.5504 2946.3,-18.3788 2947.87,-25.2011"/>
</g>
<!-- Node17 -->
<g id="node37" class="node"><title>Node17</title>
<polygon fill="white" stroke="#bfbfbf" points="3018.5,-0.5 3018.5,-21.5 3059.5,-21.5 3059.5,-0.5 3018.5,-0.5"/>
<text text-anchor="middle" x="3039" y="-8.5" font-family="Helvetica,sans-Serif" font-size="10.00">string</text>
</g>
<!-- Node15&#45;&gt;Node17 -->
<g id="edge40" class="edge"><title>Node15&#45;&gt;Node17</title>
<path fill="none" stroke="midnightblue" d="M2616.6,-59.9387C2621.13,-59.2388 2625.64,-58.5802 2630,-58 2794.88,-36.0529 2842.9,-59.4762 3008.27,-21.9316"/>
<polygon fill="midnightblue" stroke="midnightblue" points="3009.34,-25.2767 3018.3,-19.6145 3007.77,-18.4566 3009.34,-25.2767"/>
</g>
<!-- Node18 -->
<g id="node40" class="node"><title>Node18</title>
<polygon fill="white" stroke="#bfbfbf" points="3077,-0.5 3077,-21.5 3129,-21.5 3129,-0.5 3077,-0.5"/>
<text text-anchor="middle" x="3103" y="-8.5" font-family="Helvetica,sans-Serif" font-size="10.00">sstream</text>
</g>
<!-- Node15&#45;&gt;Node18 -->
<g id="edge44" class="edge"><title>Node15&#45;&gt;Node18</title>
<path fill="none" stroke="midnightblue" d="M2616.59,-59.8802C2621.12,-59.1928 2625.64,-58.553 2630,-58 2820.56,-33.841 2874.53,-58.6615 3066.93,-21.844"/>
<polygon fill="midnightblue" stroke="midnightblue" points="3067.64,-25.2705 3076.79,-19.9262 3066.3,-18.3992 3067.64,-25.2705"/>
</g>
<!-- Node19 -->
<g id="node42" class="node"><title>Node19</title>
<polygon fill="white" stroke="#bfbfbf" points="3146.5,-0.5 3146.5,-21.5 3261.5,-21.5 3261.5,-0.5 3146.5,-0.5"/>
<text text-anchor="middle" x="3204" y="-8.5" font-family="Helvetica,sans-Serif" font-size="10.00">yarp/os/BufferedPort.h</text>
</g>
<!-- Node15&#45;&gt;Node19 -->
<g id="edge46" class="edge"><title>Node15&#45;&gt;Node19</title>
<path fill="none" stroke="midnightblue" d="M2616.59,-59.8272C2621.11,-59.1512 2625.63,-58.5285 2630,-58 2851.41,-31.1945 2911.48,-48.1221 3136.32,-22.1087"/>
<polygon fill="midnightblue" stroke="midnightblue" points="3136.93,-25.5608 3146.45,-20.9198 3136.11,-18.6085 3136.93,-25.5608"/>
</g>
<!-- Node20 -->
<g id="node44" class="node"><title>Node20</title>
<polygon fill="white" stroke="#bfbfbf" points="3279,-0.5 3279,-21.5 3365,-21.5 3365,-0.5 3279,-0.5"/>
<text text-anchor="middle" x="3322" y="-8.5" font-family="Helvetica,sans-Serif" font-size="10.00">yarp/os/Bottle.h</text>
</g>
<!-- Node15&#45;&gt;Node20 -->
<g id="edge48" class="edge"><title>Node15&#45;&gt;Node20</title>
<path fill="none" stroke="midnightblue" d="M2616.58,-59.7587C2621.11,-59.0973 2625.63,-58.4967 2630,-58 2909.75,-26.1956 2985.82,-58.8071 3268.8,-21.9723"/>
<polygon fill="midnightblue" stroke="midnightblue" points="3269.5,-25.4106 3278.96,-20.6325 3268.59,-18.4708 3269.5,-25.4106"/>
</g>
<!-- Node15&#45;&gt;Node21 -->
<g id="edge50" class="edge"><title>Node15&#45;&gt;Node21</title>
<path fill="none" stroke="midnightblue" d="M2616.75,-63.6889C2638.11,-61.6248 2663.24,-59.4198 2686,-58 3163.82,-28.191 3288.74,-70.3579 3768.26,-22.0614"/>
<polygon fill="midnightblue" stroke="midnightblue" points="3768.62,-25.5433 3778.21,-21.0512 3767.91,-18.5791 3768.62,-25.5433"/>
</g>
<!-- Node22 -->
<g id="node48" class="node"><title>Node22</title>
<polygon fill="white" stroke="#bfbfbf" points="3382.5,-0.5 3382.5,-21.5 3511.5,-21.5 3511.5,-0.5 3382.5,-0.5"/>
<text text-anchor="middle" x="3447" y="-8.5" font-family="Helvetica,sans-Serif" font-size="10.00">yarp/os/ResourceFinder.h</text>
</g>
<!-- Node15&#45;&gt;Node22 -->
<g id="edge52" class="edge"><title>Node15&#45;&gt;Node22</title>
<path fill="none" stroke="midnightblue" d="M2616.58,-59.7218C2621.11,-59.0683 2625.63,-58.4795 2630,-58 2955.7,-22.2644 3042.79,-54.0402 3371.86,-22.1303"/>
<polygon fill="midnightblue" stroke="midnightblue" points="3372.55,-25.5789 3382.16,-21.1179 3371.87,-18.6124 3372.55,-25.5789"/>
</g>
<!-- Node23 -->
<g id="node50" class="node"><title>Node23</title>
<polygon fill="white" stroke="#bfbfbf" points="3529,-0.5 3529,-21.5 3639,-21.5 3639,-0.5 3529,-0.5"/>
<text text-anchor="middle" x="3584" y="-8.5" font-family="Helvetica,sans-Serif" font-size="10.00">yarp/os/PortReader.h</text>
</g>
<!-- Node15&#45;&gt;Node23 -->
<g id="edge54" class="edge"><title>Node15&#45;&gt;Node23</title>
<path fill="none" stroke="midnightblue" d="M2616.57,-59.6844C2621.1,-59.0389 2625.63,-58.4622 2630,-58 3020.42,-16.7286 3124.59,-62.8388 3518.94,-21.9808"/>
<polygon fill="midnightblue" stroke="midnightblue" points="3519.32,-25.4599 3528.91,-20.9365 3518.59,-18.4981 3519.32,-25.4599"/>
</g>
<!-- Node24 -->
<g id="node52" class="node"><title>Node24</title>
<polygon fill="white" stroke="#bfbfbf" points="1971,-0.5 1971,-21.5 2075,-21.5 2075,-0.5 1971,-0.5"/>
<text text-anchor="middle" x="2023" y="-8.5" font-family="Helvetica,sans-Serif" font-size="10.00">yarp/os/RpcClient.h</text>
</g>
<!-- Node15&#45;&gt;Node24 -->
<g id="edge56" class="edge"><title>Node15&#45;&gt;Node24</title>
<path fill="none" stroke="midnightblue" d="M2515.4,-59.8985C2510.88,-59.2073 2506.36,-58.5615 2502,-58 2320.31,-34.6046 2270.58,-46.1476 2085.27,-22.0668"/>
<polygon fill="midnightblue" stroke="midnightblue" points="2085.56,-18.5753 2075.19,-20.7396 2084.65,-25.5153 2085.56,-18.5753"/>
</g>
<!-- Node25 -->
<g id="node54" class="node"><title>Node25</title>
<polygon fill="white" stroke="#bfbfbf" points="2092.5,-0.5 2092.5,-21.5 2199.5,-21.5 2199.5,-0.5 2092.5,-0.5"/>
<text text-anchor="middle" x="2146" y="-8.5" font-family="Helvetica,sans-Serif" font-size="10.00">yarp/os/RpcServer.h</text>
</g>
<!-- Node15&#45;&gt;Node25 -->
<g id="edge58" class="edge"><title>Node15&#45;&gt;Node25</title>
<path fill="none" stroke="midnightblue" d="M2515.38,-60.0672C2510.86,-59.3399 2506.35,-58.6398 2502,-58 2374.94,-39.3125 2339.89,-41.3885 2209.7,-22.198"/>
<polygon fill="midnightblue" stroke="midnightblue" points="2210.15,-18.7265 2199.74,-20.7166 2209.12,-25.6503 2210.15,-18.7265"/>
</g>
<!-- Node26 -->
<g id="node56" class="node"><title>Node26</title>
<polygon fill="white" stroke="#bfbfbf" points="2216.5,-0.5 2216.5,-21.5 2357.5,-21.5 2357.5,-0.5 2216.5,-0.5"/>
<text text-anchor="middle" x="2287" y="-8.5" font-family="Helvetica,sans-Serif" font-size="10.00">yarp/os/ConnectionReader.h</text>
</g>
<!-- Node15&#45;&gt;Node26 -->
<g id="edge60" class="edge"><title>Node15&#45;&gt;Node26</title>
<path fill="none" stroke="midnightblue" d="M2515.48,-58.4966C2468.32,-48.6931 2397.88,-34.0496 2347.69,-23.6165"/>
<polygon fill="midnightblue" stroke="midnightblue" points="2348.12,-20.1317 2337.62,-21.5231 2346.7,-26.9852 2348.12,-20.1317"/>
</g>
<!-- Node27 -->
<g id="node58" class="node"><title>Node27</title>
<polygon fill="white" stroke="#bfbfbf" points="2375,-0.5 2375,-21.5 2457,-21.5 2457,-0.5 2375,-0.5"/>
<text text-anchor="middle" x="2416" y="-8.5" font-family="Helvetica,sans-Serif" font-size="10.00">yarp/os/Time.h</text>
</g>
<!-- Node15&#45;&gt;Node27 -->
<g id="edge62" class="edge"><title>Node15&#45;&gt;Node27</title>
<path fill="none" stroke="midnightblue" d="M2538.84,-58.4966C2514.7,-49.1639 2479.22,-35.4447 2452.59,-25.1475"/>
<polygon fill="midnightblue" stroke="midnightblue" points="2453.8,-21.8651 2443.21,-21.5231 2451.28,-28.394 2453.8,-21.8651"/>
</g>
<!-- Node28 -->
<g id="node61" class="node"><title>Node28</title>
<polygon fill="white" stroke="#bfbfbf" points="2474.5,-0.5 2474.5,-21.5 2581.5,-21.5 2581.5,-0.5 2474.5,-0.5"/>
<text text-anchor="middle" x="2528" y="-8.5" font-family="Helvetica,sans-Serif" font-size="10.00">yarp/os/LogStream.h</text>
</g>
<!-- Node15&#45;&gt;Node28 -->
<g id="edge66" class="edge"><title>Node15&#45;&gt;Node28</title>
<path fill="none" stroke="midnightblue" d="M2559.03,-58.3619C2553.83,-50.4313 2546.6,-39.3885 2540.42,-29.9606"/>
<polygon fill="midnightblue" stroke="midnightblue" points="2543.33,-28.0172 2534.93,-21.5707 2537.48,-31.8534 2543.33,-28.0172"/>
</g>
<!-- Node29 -->
<g id="node63" class="node"><title>Node29</title>
<polygon fill="white" stroke="#bfbfbf" points="2598.5,-0.5 2598.5,-21.5 2695.5,-21.5 2695.5,-0.5 2598.5,-0.5"/>
<text text-anchor="middle" x="2647" y="-8.5" font-family="Helvetica,sans-Serif" font-size="10.00">yarp/os/Property.h</text>
</g>
<!-- Node15&#45;&gt;Node29 -->
<g id="edge68" class="edge"><title>Node15&#45;&gt;Node29</title>
<path fill="none" stroke="midnightblue" d="M2580.86,-58.3619C2592.85,-49.7773 2609.93,-37.5459 2623.73,-27.6636"/>
<polygon fill="midnightblue" stroke="midnightblue" points="2626.14,-30.2383 2632.24,-21.5707 2622.07,-24.5469 2626.14,-30.2383"/>
</g>
<!-- Node30 -->
<g id="node66" class="node"><title>Node30</title>
<polygon fill="white" stroke="#bfbfbf" points="2712.5,-0.5 2712.5,-21.5 2801.5,-21.5 2801.5,-0.5 2712.5,-0.5"/>
<text text-anchor="middle" x="2757" y="-8.5" font-family="Helvetica,sans-Serif" font-size="10.00">yarp/sig/Matrix.h</text>
</g>
<!-- Node15&#45;&gt;Node30 -->
<g id="edge72" class="edge"><title>Node15&#45;&gt;Node30</title>
<path fill="none" stroke="midnightblue" d="M2600.59,-58.4966C2632,-48.9592 2678.49,-34.8408 2712.63,-24.475"/>
<polygon fill="midnightblue" stroke="midnightblue" points="2713.79,-27.7778 2722.35,-21.5231 2711.76,-21.0798 2713.79,-27.7778"/>
</g>
<!-- Node31 -->
<g id="node70" class="node"><title>Node31</title>
<polygon fill="white" stroke="#bfbfbf" points="2818.5,-0.5 2818.5,-21.5 2939.5,-21.5 2939.5,-0.5 2818.5,-0.5"/>
<text text-anchor="middle" x="2879" y="-8.5" font-family="Helvetica,sans-Serif" font-size="10.00">ocra/util/StringUtilities.h</text>
</g>
<!-- Node15&#45;&gt;Node31 -->
<g id="edge78" class="edge"><title>Node15&#45;&gt;Node31</title>
<path fill="none" stroke="midnightblue" d="M2616.64,-59.6168C2669.79,-49.7668 2753.62,-34.2328 2812.18,-23.3827"/>
<polygon fill="midnightblue" stroke="midnightblue" points="2812.88,-26.8122 2822.07,-21.5487 2811.6,-19.9294 2812.88,-26.8122"/>
</g>
<!-- Node15&#45;&gt;Node32 -->
<g id="edge80" class="edge"><title>Node15&#45;&gt;Node32</title>
<path fill="none" stroke="midnightblue" d="M2616.85,-64.9563C2647.8,-62.6197 2688.16,-59.7963 2724,-58 3242.06,-32.0331 3379.01,-91.5976 3896.32,-21.9879"/>
<polygon fill="midnightblue" stroke="midnightblue" points="3896.84,-25.4493 3906.28,-20.6379 3895.9,-18.5127 3896.84,-25.4493"/>
</g>
<!-- Node15&#45;&gt;Node33 -->
<g id="edge82" class="edge"><title>Node15&#45;&gt;Node33</title>
<path fill="none" stroke="midnightblue" d="M2616.66,-66.3746C2664.05,-63.9764 2736.81,-60.4427 2800,-58 3060.7,-47.923 3710.36,-58.6835 3986.79,-21.8414"/>
<polygon fill="midnightblue" stroke="midnightblue" points="3987.44,-25.2854 3996.87,-20.4536 3986.48,-18.3509 3987.44,-25.2854"/>
</g>
<!-- Node36 -->
<g id="node84" class="node"><title>Node36</title>
<a xlink:href="ShapeConstraints_8h.html" target="_top" xlink:title="walking&#45;client/constraints/ShapeConstraints.h">
<polygon fill="white" stroke="black" points="1295,-174.5 1295,-195.5 1511,-195.5 1511,-174.5 1295,-174.5"/>
<text text-anchor="middle" x="1403" y="-182.5" font-family="Helvetica,sans-Serif" font-size="10.00">walking&#45;client/constraints/ShapeConstraints.h</text>
</a>
</g>
<!-- Node35&#45;&gt;Node36 -->
<g id="edge96" class="edge"><title>Node35&#45;&gt;Node36</title>
<path fill="none" stroke="midnightblue" d="M1403,-232.362C1403,-224.922 1403,-214.743 1403,-205.728"/>
<polygon fill="midnightblue" stroke="midnightblue" points="1406.5,-205.571 1403,-195.571 1399.5,-205.571 1406.5,-205.571"/>
</g>
<!-- Node43 -->
<g id="node104" class="node"><title>Node43</title>
<a xlink:href="AdmissibilityConstraints_8h.html" target="_top" xlink:title="walking&#45;client/constraints/AdmissibilityConstraints.h">
<polygon fill="white" stroke="black" points="739,-174.5 739,-195.5 983,-195.5 983,-174.5 739,-174.5"/>
<text text-anchor="middle" x="861" y="-182.5" font-family="Helvetica,sans-Serif" font-size="10.00">walking&#45;client/constraints/AdmissibilityConstraints.h</text>
</a>
</g>
<!-- Node35&#45;&gt;Node43 -->
<g id="edge122" class="edge"><title>Node35&#45;&gt;Node43</title>
<path fill="none" stroke="midnightblue" d="M1304.85,-232.497C1210.27,-222.376 1067.49,-207.097 969.561,-196.617"/>
<polygon fill="midnightblue" stroke="midnightblue" points="969.652,-193.107 959.336,-195.523 968.907,-200.067 969.652,-193.107"/>
</g>
<!-- Node37 -->
<g id="node86" class="node"><title>Node37</title>
<a xlink:href="Constraint_8h.html" target="_top" xlink:title="A constraint base class.">
<polygon fill="white" stroke="black" points="1075.5,-58.5 1075.5,-79.5 1258.5,-79.5 1258.5,-58.5 1075.5,-58.5"/>
<text text-anchor="middle" x="1167" y="-66.5" font-family="Helvetica,sans-Serif" font-size="10.00">walking&#45;client/constraints/Constraint.h</text>
</a>
</g>
<!-- Node36&#45;&gt;Node37 -->
<g id="edge98" class="edge"><title>Node36&#45;&gt;Node37</title>
<path fill="none" stroke="midnightblue" d="M1332.57,-174.462C1284.12,-166.075 1225.04,-153.239 1205,-138 1189.08,-125.892 1178.95,-105.099 1173.19,-89.4956"/>
<polygon fill="midnightblue" stroke="midnightblue" points="1176.39,-88.0489 1169.88,-79.693 1169.76,-90.2872 1176.39,-88.0489"/>
</g>
<!-- Node40 -->
<g id="node95" class="node"><title>Node40</title>
<a xlink:href="Bounding_8h.html" target="_top" xlink:title="walking&#45;client/constraints/Bounding.h">
<polygon fill="white" stroke="black" points="1213.5,-116.5 1213.5,-137.5 1392.5,-137.5 1392.5,-116.5 1213.5,-116.5"/>
<text text-anchor="middle" x="1303" y="-124.5" font-family="Helvetica,sans-Serif" font-size="10.00">walking&#45;client/constraints/Bounding.h</text>
</a>
</g>
<!-- Node36&#45;&gt;Node40 -->
<g id="edge110" class="edge"><title>Node36&#45;&gt;Node40</title>
<path fill="none" stroke="midnightblue" d="M1384.66,-174.362C1369.43,-165.532 1347.56,-152.844 1330.28,-142.822"/>
<polygon fill="midnightblue" stroke="midnightblue" points="1331.63,-139.56 1321.23,-137.571 1328.12,-145.615 1331.63,-139.56"/>
</g>
<!-- Node41 -->
<g id="node98" class="node"><title>Node41</title>
<a xlink:href="Constancy_8h.html" target="_top" xlink:title="walking&#45;client/constraints/Constancy.h">
<polygon fill="white" stroke="black" points="1409.5,-116.5 1409.5,-137.5 1594.5,-137.5 1594.5,-116.5 1409.5,-116.5"/>
<text text-anchor="middle" x="1502" y="-124.5" font-family="Helvetica,sans-Serif" font-size="10.00">walking&#45;client/constraints/Constancy.h</text>
</a>
</g>
<!-- Node36&#45;&gt;Node41 -->
<g id="edge114" class="edge"><title>Node36&#45;&gt;Node41</title>
<path fill="none" stroke="midnightblue" d="M1421.16,-174.362C1436.23,-165.532 1457.89,-152.844 1474.99,-142.822"/>
<polygon fill="midnightblue" stroke="midnightblue" points="1477.1,-145.646 1483.96,-137.571 1473.56,-139.606 1477.1,-145.646"/>
</g>
<!-- Node42 -->
<g id="node101" class="node"><title>Node42</title>
<a xlink:href="Sequentiality_8h.html" target="_top" xlink:title="walking&#45;client/constraints/Sequentiality.h">
<polygon fill="white" stroke="black" points="1612,-116.5 1612,-137.5 1806,-137.5 1806,-116.5 1612,-116.5"/>
<text text-anchor="middle" x="1709" y="-124.5" font-family="Helvetica,sans-Serif" font-size="10.00">walking&#45;client/constraints/Sequentiality.h</text>
</a>
</g>
<!-- Node36&#45;&gt;Node42 -->
<g id="edge118" class="edge"><title>Node36&#45;&gt;Node42</title>
<path fill="none" stroke="midnightblue" d="M1458.41,-174.497C1510.46,-164.632 1588.36,-149.866 1643.47,-139.421"/>
<polygon fill="midnightblue" stroke="midnightblue" points="1644.31,-142.824 1653.48,-137.523 1643,-135.947 1644.31,-142.824"/>
</g>
<!-- Node37&#45;&gt;Node3 -->
<g id="edge100" class="edge"><title>Node37&#45;&gt;Node3</title>
<path fill="none" stroke="midnightblue" d="M1075.41,-63.8274C870.067,-52.2307 377.24,-24.3982 202.632,-14.5372"/>
<polygon fill="midnightblue" stroke="midnightblue" points="202.763,-11.039 192.581,-13.9695 202.368,-18.0279 202.763,-11.039"/>
</g>
<!-- Node37&#45;&gt;Node5 -->
<g id="edge108" class="edge"><title>Node37&#45;&gt;Node5</title>
<path fill="none" stroke="midnightblue" d="M1258.79,-59.0313C1318.97,-51.6036 1399.46,-39.9891 1478.6,-22.0667"/>
<polygon fill="midnightblue" stroke="midnightblue" points="1479.79,-25.3855 1488.75,-19.7323 1478.22,-18.5637 1479.79,-25.3855"/>
</g>
<!-- Node37&#45;&gt;Node34 -->
<g id="edge104" class="edge"><title>Node37&#45;&gt;Node34</title>
<path fill="none" stroke="midnightblue" d="M1206.66,-58.4966C1243.06,-48.8569 1297.13,-34.5373 1336.38,-24.1427"/>
<polygon fill="midnightblue" stroke="midnightblue" points="1337.5,-27.4666 1346.27,-21.5231 1335.7,-20.6999 1337.5,-27.4666"/>
</g>
<!-- Node38 -->
<g id="node89" class="node"><title>Node38</title>
<polygon fill="white" stroke="#bfbfbf" points="1084.5,-0.5 1084.5,-21.5 1149.5,-21.5 1149.5,-0.5 1084.5,-0.5"/>
<text text-anchor="middle" x="1117" y="-8.5" font-family="Helvetica,sans-Serif" font-size="10.00">Eigen/Core</text>
</g>
<!-- Node37&#45;&gt;Node38 -->
<g id="edge102" class="edge"><title>Node37&#45;&gt;Node38</title>
<path fill="none" stroke="midnightblue" d="M1157.83,-58.3619C1150.85,-50.2678 1141.08,-38.9318 1132.84,-29.3796"/>
<polygon fill="midnightblue" stroke="midnightblue" points="1135.29,-26.8595 1126.11,-21.5707 1129.99,-31.4301 1135.29,-26.8595"/>
</g>
<!-- Node39 -->
<g id="node92" class="node"><title>Node39</title>
<polygon fill="white" stroke="#bfbfbf" points="1166.5,-0.5 1166.5,-21.5 1283.5,-21.5 1283.5,-0.5 1166.5,-0.5"/>
<text text-anchor="middle" x="1225" y="-8.5" font-family="Helvetica,sans-Serif" font-size="10.00">ocra/util/ErrorsHelper.h</text>
</g>
<!-- Node37&#45;&gt;Node39 -->
<g id="edge106" class="edge"><title>Node37&#45;&gt;Node39</title>
<path fill="none" stroke="midnightblue" d="M1177.64,-58.3619C1185.9,-50.1043 1197.53,-38.4725 1207.2,-28.8029"/>
<polygon fill="midnightblue" stroke="midnightblue" points="1209.83,-31.1166 1214.43,-21.5707 1204.88,-26.1669 1209.83,-31.1166"/>
</g>
<!-- Node40&#45;&gt;Node37 -->
<g id="edge112" class="edge"><title>Node40&#45;&gt;Node37</title>
<path fill="none" stroke="midnightblue" d="M1278.37,-116.497C1256.84,-107.315 1225.36,-93.8889 1201.36,-83.6516"/>
<polygon fill="midnightblue" stroke="midnightblue" points="1202.48,-80.3247 1191.9,-79.6212 1199.73,-86.7636 1202.48,-80.3247"/>
</g>
<!-- Node41&#45;&gt;Node37 -->
<g id="edge116" class="edge"><title>Node41&#45;&gt;Node37</title>
<path fill="none" stroke="midnightblue" d="M1441.33,-116.497C1384.12,-106.591 1298.36,-91.7433 1237.99,-81.2911"/>
<polygon fill="midnightblue" stroke="midnightblue" points="1238.23,-77.7804 1227.78,-79.5231 1237.04,-84.6778 1238.23,-77.7804"/>
</g>
<!-- Node42&#45;&gt;Node37 -->
<g id="edge120" class="edge"><title>Node42&#45;&gt;Node37</title>
<path fill="none" stroke="midnightblue" d="M1611.79,-116.597C1515.04,-106.244 1367.18,-90.421 1268.84,-79.8976"/>
<polygon fill="midnightblue" stroke="midnightblue" points="1269.2,-76.4165 1258.88,-78.8325 1268.45,-83.3768 1269.2,-76.4165"/>
</g>
<!-- Node43&#45;&gt;Node37 -->
<g id="edge124" class="edge"><title>Node43&#45;&gt;Node37</title>
<path fill="none" stroke="midnightblue" d="M978.337,-174.467C1038.71,-167.098 1104.64,-155.407 1129,-138 1145.36,-126.306 1155.47,-105.277 1161.1,-89.4974"/>
<polygon fill="midnightblue" stroke="midnightblue" points="1164.56,-90.1829 1164.31,-79.5909 1157.9,-88.0251 1164.56,-90.1829"/>
</g>
<!-- Node44 -->
<g id="node107" class="node"><title>Node44</title>
<a xlink:href="SSDSAlternation_8h.html" target="_top" xlink:title="walking&#45;client/constraints/SSDSAlternation.h">
<polygon fill="white" stroke="black" points="168,-116.5 168,-137.5 380,-137.5 380,-116.5 168,-116.5"/>
<text text-anchor="middle" x="274" y="-124.5" font-family="Helvetica,sans-Serif" font-size="10.00">walking&#45;client/constraints/SSDSAlternation.h</text>
</a>
</g>
<!-- Node43&#45;&gt;Node44 -->
<g id="edge126" class="edge"><title>Node43&#45;&gt;Node44</title>
<path fill="none" stroke="midnightblue" d="M754.699,-174.497C651.799,-164.329 496.212,-148.956 390.115,-138.473"/>
<polygon fill="midnightblue" stroke="midnightblue" points="390.301,-134.974 380.005,-137.474 389.612,-141.941 390.301,-134.974"/>
</g>
<!-- Node45 -->
<g id="node110" class="node"><title>Node45</title>
<a xlink:href="SingleSupport_8h.html" target="_top" xlink:title="walking&#45;client/constraints/SingleSupport.h">
<polygon fill="white" stroke="black" points="397.5,-116.5 397.5,-137.5 596.5,-137.5 596.5,-116.5 397.5,-116.5"/>
<text text-anchor="middle" x="497" y="-124.5" font-family="Helvetica,sans-Serif" font-size="10.00">walking&#45;client/constraints/SingleSupport.h</text>
</a>
</g>
<!-- Node43&#45;&gt;Node45 -->
<g id="edge130" class="edge"><title>Node43&#45;&gt;Node45</title>
<path fill="none" stroke="midnightblue" d="M795.082,-174.497C732.529,-164.529 638.578,-149.559 572.921,-139.097"/>
<polygon fill="midnightblue" stroke="midnightblue" points="573.467,-135.64 563.041,-137.523 572.366,-142.553 573.467,-135.64"/>
</g>
<!-- Node46 -->
<g id="node113" class="node"><title>Node46</title>
<a xlink:href="ContactConfigHistory_8h.html" target="_top" xlink:title="walking&#45;client/constraints/ContactConfigHistory.h">
<polygon fill="white" stroke="black" points="613.5,-116.5 613.5,-137.5 846.5,-137.5 846.5,-116.5 613.5,-116.5"/>
<text text-anchor="middle" x="730" y="-124.5" font-family="Helvetica,sans-Serif" font-size="10.00">walking&#45;client/constraints/ContactConfigHistory.h</text>
</a>
</g>
<!-- Node43&#45;&gt;Node46 -->
<g id="edge134" class="edge"><title>Node43&#45;&gt;Node46</title>
<path fill="none" stroke="midnightblue" d="M837.277,-174.497C816.632,-165.356 786.484,-152.008 763.401,-141.788"/>
<polygon fill="midnightblue" stroke="midnightblue" points="764.55,-138.469 753.989,-137.621 761.716,-144.87 764.55,-138.469"/>
</g>
<!-- Node47 -->
<g id="node116" class="node"><title>Node47</title>
<a xlink:href="ContactConfigEnforcement_8h.html" target="_top" xlink:title="walking&#45;client/constraints/ContactConfigEnforcement.h">
<polygon fill="white" stroke="black" points="863.5,-116.5 863.5,-137.5 1120.5,-137.5 1120.5,-116.5 863.5,-116.5"/>
<text text-anchor="middle" x="992" y="-124.5" font-family="Helvetica,sans-Serif" font-size="10.00">walking&#45;client/constraints/ContactConfigEnforcement.h</text>
</a>
</g>
<!-- Node43&#45;&gt;Node47 -->
<g id="edge138" class="edge"><title>Node43&#45;&gt;Node47</title>
<path fill="none" stroke="midnightblue" d="M884.723,-174.497C905.368,-165.356 935.516,-152.008 958.599,-141.788"/>
<polygon fill="midnightblue" stroke="midnightblue" points="960.284,-144.87 968.011,-137.621 957.45,-138.469 960.284,-144.87"/>
</g>
<!-- Node44&#45;&gt;Node37 -->
<g id="edge128" class="edge"><title>Node44&#45;&gt;Node37</title>
<path fill="none" stroke="midnightblue" d="M380.194,-116.706C383.161,-116.462 386.101,-116.226 389,-116 631.322,-97.0971 916.614,-81.5819 1065.28,-74.0066"/>
<polygon fill="midnightblue" stroke="midnightblue" points="1065.5,-77.5001 1075.31,-73.4971 1065.14,-70.5091 1065.5,-77.5001"/>
</g>
<!-- Node45&#45;&gt;Node37 -->
<g id="edge132" class="edge"><title>Node45&#45;&gt;Node37</title>
<path fill="none" stroke="midnightblue" d="M596.735,-116.776C599.519,-116.511 602.279,-116.252 605,-116 765.88,-101.081 952.873,-85.8664 1065.46,-76.9365"/>
<polygon fill="midnightblue" stroke="midnightblue" points="1065.76,-80.4241 1075.45,-76.1453 1065.21,-73.4459 1065.76,-80.4241"/>
</g>
<!-- Node46&#45;&gt;Node37 -->
<g id="edge136" class="edge"><title>Node46&#45;&gt;Node37</title>
<path fill="none" stroke="midnightblue" d="M809.137,-116.497C884.852,-106.448 998.885,-91.3128 1077.79,-80.8404"/>
<polygon fill="midnightblue" stroke="midnightblue" points="1078.26,-84.3084 1087.71,-79.5231 1077.34,-77.3693 1078.26,-84.3084"/>
</g>
<!-- Node47&#45;&gt;Node37 -->
<g id="edge140" class="edge"><title>Node47&#45;&gt;Node37</title>
<path fill="none" stroke="midnightblue" d="M1023.69,-116.497C1052.22,-107.041 1094.34,-93.0829 1125.53,-82.7428"/>
<polygon fill="midnightblue" stroke="midnightblue" points="1126.86,-85.9914 1135.25,-79.5231 1124.66,-79.3468 1126.86,-85.9914"/>
</g>
<!-- Node48&#45;&gt;Node3 -->
<g id="edge150" class="edge"><title>Node48&#45;&gt;Node3</title>
<path fill="none" stroke="midnightblue" d="M2054.79,-242.328C1852.49,-239.986 1238.2,-230.345 730,-196 475.497,-178.8 343.584,-314.058 159,-138 130.374,-110.696 132.303,-60.2261 136.183,-31.8231"/>
<polygon fill="midnightblue" stroke="midnightblue" points="139.665,-32.2073 137.764,-21.7845 132.751,-31.1182 139.665,-32.2073"/>
</g>
<!-- Node48&#45;&gt;Node4 -->
<g id="edge146" class="edge"><title>Node48&#45;&gt;Node4</title>
<path fill="none" stroke="midnightblue" d="M2131.8,-232.362C2138.5,-224.268 2147.88,-212.932 2155.79,-203.38"/>
<polygon fill="midnightblue" stroke="midnightblue" points="2158.57,-205.506 2162.25,-195.571 2153.18,-201.043 2158.57,-205.506"/>
</g>
<!-- Node48&#45;&gt;Node15 -->
<g id="edge152" class="edge"><title>Node48&#45;&gt;Node15</title>
<path fill="none" stroke="midnightblue" d="M2191.14,-234.709C2269.63,-222.807 2400.31,-195.613 2498,-138 2520,-125.024 2539.83,-103.159 2552.32,-87.5193"/>
<polygon fill="midnightblue" stroke="midnightblue" points="2555.12,-89.6181 2558.47,-79.5669 2549.59,-85.3352 2555.12,-89.6181"/>
</g>
<!-- Node48&#45;&gt;Node32 -->
<g id="edge144" class="edge"><title>Node48&#45;&gt;Node32</title>
<path fill="none" stroke="midnightblue" d="M2191.23,-235.799C2249.51,-228.691 2335.21,-215.954 2408,-196 2570.86,-151.353 2596.56,-91.8287 2762,-58 3006.31,-8.04489 3631.61,-54.9494 3896.25,-21.9479"/>
<polygon fill="midnightblue" stroke="midnightblue" points="3896.82,-25.4035 3906.28,-20.6348 3895.91,-18.4628 3896.82,-25.4035"/>
</g>
<!-- Node48&#45;&gt;Node39 -->
<g id="edge148" class="edge"><title>Node48&#45;&gt;Node39</title>
<path fill="none" stroke="midnightblue" d="M2101.91,-232.437C2052.83,-208.27 1926.61,-148.532 1815,-116 1765.47,-101.563 1438.46,-46.4563 1293.72,-22.3748"/>
<polygon fill="midnightblue" stroke="midnightblue" points="1294.06,-18.8832 1283.62,-20.6955 1292.91,-25.7884 1294.06,-18.8832"/>
</g>
</g>
</svg>
