<?xml version="1.0" encoding="UTF-8" standalone="no"?>
<!DOCTYPE svg PUBLIC "-//W3C//DTD SVG 1.1//EN"
 "http://www.w3.org/Graphics/SVG/1.1/DTD/svg11.dtd">
<!-- Generated by graphviz version 2.26.3 (20100126.1600)
 -->
<!-- Title: G Pages: 1 -->
<svg width="2584pt" height="262pt"
 viewBox="0.00 0.00 2584.00 262.00" xmlns="http://www.w3.org/2000/svg" xmlns:xlink="http://www.w3.org/1999/xlink">
<g id="graph1" class="graph" transform="scale(1 1) rotate(0) translate(4 258)">
<title>G</title>
<polygon fill="white" stroke="white" points="-4,5 -4,-258 2581,-258 2581,5 -4,5"/>
<!-- Node1 -->
<g id="node1" class="node"><title>Node1</title>
<polygon fill="#bfbfbf" stroke="black" points="1378.5,-232.5 1378.5,-253.5 1661.5,-253.5 1661.5,-232.5 1378.5,-232.5"/>
<text text-anchor="middle" x="1520" y="-240.5" font-family="Helvetica,sans-Serif" font-size="10.00">ocra&#45;wbi&#45;plugins/ocra&#45;icub/include/ocra&#45;icub/ModelInitializer.h</text>
</g>
<!-- Node2 -->
<g id="node3" class="node"><title>Node2</title>
<a xlink:href="OcraWbiModel_8h.html" target="_top" xlink:title="Implementation of ocra::Model using wholeBodyInterface.">
<polygon fill="white" stroke="black" points="1151,-174.5 1151,-195.5 1283,-195.5 1283,-174.5 1151,-174.5"/>
<text text-anchor="middle" x="1217" y="-182.5" font-family="Helvetica,sans-Serif" font-size="10.00">ocra&#45;icub/OcraWbiModel.h</text>
</a>
</g>
<!-- Node1&#45;&gt;Node2 -->
<g id="edge2" class="edge"><title>Node1&#45;&gt;Node2</title>
<path fill="none" stroke="midnightblue" d="M1465.13,-232.497C1413.59,-222.632 1336.45,-207.866 1281.89,-197.421"/>
<polygon fill="midnightblue" stroke="midnightblue" points="1282.45,-193.966 1271.97,-195.523 1281.14,-200.841 1282.45,-193.966"/>
</g>
<!-- Node4 -->
<g id="node7" class="node"><title>Node4</title>
<polygon fill="white" stroke="#bfbfbf" points="-0.5,-0.5 -0.5,-21.5 104.5,-21.5 104.5,-0.5 -0.5,-0.5"/>
<text text-anchor="middle" x="52" y="-8.5" font-family="Helvetica,sans-Serif" font-size="10.00">ocra/control/Model.h</text>
</g>
<!-- Node1&#45;&gt;Node4 -->
<g id="edge82" class="edge"><title>Node1&#45;&gt;Node4</title>
<path fill="none" stroke="midnightblue" d="M1378.45,-238.795C1235.17,-233.322 1007.47,-221.283 812,-196 677.32,-178.58 644.432,-168.068 512,-138 412.553,-115.421 388.315,-107.089 290,-80 222.625,-61.4359 144.924,-38.6483 97.1303,-24.4722"/>
<polygon fill="midnightblue" stroke="midnightblue" points="97.9828,-21.0743 87.4001,-21.5825 95.9899,-27.7846 97.9828,-21.0743"/>
</g>
<!-- Node6 -->
<g id="node11" class="node"><title>Node6</title>
<polygon fill="white" stroke="#bfbfbf" points="122,-0.5 122,-21.5 198,-21.5 198,-0.5 122,-0.5"/>
<text text-anchor="middle" x="160" y="-8.5" font-family="Helvetica,sans-Serif" font-size="10.00">yarp/os/Log.h</text>
</g>
<!-- Node1&#45;&gt;Node6 -->
<g id="edge92" class="edge"><title>Node1&#45;&gt;Node6</title>
<path fill="none" stroke="midnightblue" d="M1378.33,-235.795C1157.41,-221.738 719.12,-182.479 362,-80 303.917,-63.3327 237.876,-39.905 197.577,-25.0904"/>
<polygon fill="midnightblue" stroke="midnightblue" points="198.746,-21.7912 188.153,-21.6102 196.321,-28.3578 198.746,-21.7912"/>
</g>
<!-- Node12 -->
<g id="node25" class="node"><title>Node12</title>
<polygon fill="white" stroke="#bfbfbf" points="1399,-58.5 1399,-79.5 1641,-79.5 1641,-58.5 1399,-58.5"/>
<text text-anchor="middle" x="1520" y="-66.5" font-family="Helvetica,sans-Serif" font-size="10.00">yarpWholeBodyInterface/yarpWholeBodyInterface.h</text>
</g>
<!-- Node1&#45;&gt;Node12 -->
<g id="edge84" class="edge"><title>Node1&#45;&gt;Node12</title>
<path fill="none" stroke="midnightblue" d="M1520,-232.377C1520,-204.293 1520,-127.673 1520,-90.2027"/>
<polygon fill="midnightblue" stroke="midnightblue" points="1523.5,-89.9277 1520,-79.9277 1516.5,-89.9278 1523.5,-89.9277"/>
</g>
<!-- Node22 -->
<g id="node48" class="node"><title>Node22</title>
<polygon fill="white" stroke="#bfbfbf" points="2348,-0.5 2348,-21.5 2452,-21.5 2452,-0.5 2348,-0.5"/>
<text text-anchor="middle" x="2400" y="-8.5" font-family="Helvetica,sans-Serif" font-size="10.00">yarp/os/RpcClient.h</text>
</g>
<!-- Node1&#45;&gt;Node22 -->
<g id="edge86" class="edge"><title>Node1&#45;&gt;Node22</title>
<path fill="none" stroke="midnightblue" d="M1525.82,-232.452C1544.73,-199.396 1608.15,-97.6649 1693,-58 1820.45,1.57965 2180.29,-37.046 2337.75,-21.9199"/>
<polygon fill="midnightblue" stroke="midnightblue" points="2338.25,-25.3863 2347.82,-20.8443 2337.5,-18.4259 2338.25,-25.3863"/>
</g>
<!-- Node26 -->
<g id="node57" class="node"><title>Node26</title>
<polygon fill="white" stroke="#bfbfbf" points="2469.5,-0.5 2469.5,-21.5 2576.5,-21.5 2576.5,-0.5 2469.5,-0.5"/>
<text text-anchor="middle" x="2523" y="-8.5" font-family="Helvetica,sans-Serif" font-size="10.00">yarp/os/LogStream.h</text>
</g>
<!-- Node1&#45;&gt;Node26 -->
<g id="edge90" class="edge"><title>Node1&#45;&gt;Node26</title>
<path fill="none" stroke="midnightblue" d="M1547.99,-232.415C1587.31,-217.825 1661.35,-191.371 1726,-174 1866.44,-136.267 2296.69,-53.7595 2459.6,-22.9332"/>
<polygon fill="midnightblue" stroke="midnightblue" points="2460.3,-26.3629 2469.47,-21.0658 2459,-19.4848 2460.3,-26.3629"/>
</g>
<!-- Node32 -->
<g id="node76" class="node"><title>Node32</title>
<polygon fill="white" stroke="#bfbfbf" points="1734.5,-174.5 1734.5,-195.5 1831.5,-195.5 1831.5,-174.5 1734.5,-174.5"/>
<text text-anchor="middle" x="1783" y="-182.5" font-family="Helvetica,sans-Serif" font-size="10.00">yarp/os/Network.h</text>
</g>
<!-- Node1&#45;&gt;Node32 -->
<g id="edge88" class="edge"><title>Node1&#45;&gt;Node32</title>
<path fill="none" stroke="midnightblue" d="M1567.63,-232.497C1611.99,-222.714 1678.21,-208.111 1725.49,-197.682"/>
<polygon fill="midnightblue" stroke="midnightblue" points="1726.27,-201.095 1735.28,-195.523 1724.76,-194.259 1726.27,-201.095"/>
</g>
<!-- Node3 -->
<g id="node5" class="node"><title>Node3</title>
<polygon fill="white" stroke="#bfbfbf" points="2278,-0.5 2278,-21.5 2330,-21.5 2330,-0.5 2278,-0.5"/>
<text text-anchor="middle" x="2304" y="-8.5" font-family="Helvetica,sans-Serif" font-size="10.00">memory</text>
</g>
<!-- Node2&#45;&gt;Node3 -->
<g id="edge4" class="edge"><title>Node2&#45;&gt;Node3</title>
<path fill="none" stroke="midnightblue" d="M1230.86,-174.485C1270.27,-144.622 1380.77,-61.2348 1390,-58 1571.52,5.61751 2060.32,-53.6256 2267.84,-21.689"/>
<polygon fill="midnightblue" stroke="midnightblue" points="2268.51,-25.1259 2277.81,-20.0456 2267.37,-18.2192 2268.51,-25.1259"/>
</g>
<!-- Node2&#45;&gt;Node4 -->
<g id="edge6" class="edge"><title>Node2&#45;&gt;Node4</title>
<path fill="none" stroke="midnightblue" d="M1150.62,-183.041C1038.6,-179.026 805.158,-167.601 610,-138 418.36,-108.932 194.737,-50.4094 99.1802,-24.2086"/>
<polygon fill="midnightblue" stroke="midnightblue" points="100.094,-20.83 89.5235,-21.5511 98.2364,-27.5791 100.094,-20.83"/>
</g>
<!-- Node5 -->
<g id="node9" class="node"><title>Node5</title>
<polygon fill="white" stroke="#bfbfbf" points="2202,-0.5 2202,-21.5 2260,-21.5 2260,-0.5 2202,-0.5"/>
<text text-anchor="middle" x="2231" y="-8.5" font-family="Helvetica,sans-Serif" font-size="10.00">wbi/wbi.h</text>
</g>
<!-- Node2&#45;&gt;Node5 -->
<g id="edge8" class="edge"><title>Node2&#45;&gt;Node5</title>
<path fill="none" stroke="midnightblue" d="M1224.59,-174.179C1243.45,-148.342 1295.38,-83.3203 1357,-58 1526.06,11.4695 1993.16,-49.893 2191.6,-21.7798"/>
<polygon fill="midnightblue" stroke="midnightblue" points="2192.35,-25.2059 2201.7,-20.2311 2191.29,-18.2867 2192.35,-25.2059"/>
</g>
<!-- Node2&#45;&gt;Node6 -->
<g id="edge10" class="edge"><title>Node2&#45;&gt;Node6</title>
<path fill="none" stroke="midnightblue" d="M1150.6,-181.615C1053.87,-176.05 868.75,-163.002 713,-138 658.44,-129.242 295.594,-42.7486 208.087,-22.261"/>
<polygon fill="midnightblue" stroke="midnightblue" points="208.75,-18.8217 198.216,-19.9595 207.16,-25.6389 208.75,-18.8217"/>
</g>
<!-- Node7 -->
<g id="node13" class="node"><title>Node7</title>
<a xlink:href="OcraWbiConversions_8h.html" target="_top" xlink:title="A utility class full of static conversion functions.">
<polygon fill="white" stroke="black" points="721.5,-116.5 721.5,-137.5 882.5,-137.5 882.5,-116.5 721.5,-116.5"/>
<text text-anchor="middle" x="802" y="-124.5" font-family="Helvetica,sans-Serif" font-size="10.00">ocra&#45;icub/OcraWbiConversions.h</text>
</a>
</g>
<!-- Node2&#45;&gt;Node7 -->
<g id="edge12" class="edge"><title>Node2&#45;&gt;Node7</title>
<path fill="none" stroke="midnightblue" d="M1150.78,-175.746C1079.5,-165.783 965.842,-149.898 887.764,-138.986"/>
<polygon fill="midnightblue" stroke="midnightblue" points="887.858,-135.465 877.47,-137.548 886.889,-142.398 887.858,-135.465"/>
</g>
<!-- Node13 -->
<g id="node27" class="node"><title>Node13</title>
<a xlink:href="Utilities_8h.html" target="_top" xlink:title="Some useful tools for the ocra&#45;icub lib.">
<polygon fill="white" stroke="black" points="1166.5,-58.5 1166.5,-79.5 1267.5,-79.5 1267.5,-58.5 1166.5,-58.5"/>
<text text-anchor="middle" x="1217" y="-66.5" font-family="Helvetica,sans-Serif" font-size="10.00">ocra&#45;icub/Utilities.h</text>
</a>
</g>
<!-- Node2&#45;&gt;Node13 -->
<g id="edge80" class="edge"><title>Node2&#45;&gt;Node13</title>
<path fill="none" stroke="midnightblue" d="M1217,-174.295C1217,-155.131 1217,-114.654 1217,-89.8434"/>
<polygon fill="midnightblue" stroke="midnightblue" points="1220.5,-89.6792 1217,-79.6792 1213.5,-89.6792 1220.5,-89.6792"/>
</g>
<!-- Node7&#45;&gt;Node5 -->
<g id="edge24" class="edge"><title>Node7&#45;&gt;Node5</title>
<path fill="none" stroke="midnightblue" d="M882.682,-122.639C998.123,-115.779 1204.4,-101.046 1276,-80 1296.6,-73.9464 1298.24,-63.4573 1319,-58 1503.97,-9.38006 1985.3,-51.8362 2191.78,-21.7728"/>
<polygon fill="midnightblue" stroke="midnightblue" points="2192.35,-25.2257 2201.7,-20.2367 2191.28,-18.3081 2192.35,-25.2257"/>
</g>
<!-- Node7&#45;&gt;Node6 -->
<g id="edge22" class="edge"><title>Node7&#45;&gt;Node6</title>
<path fill="none" stroke="midnightblue" d="M760.315,-116.414C723.979,-107.101 669.899,-93.0329 623,-80 589.53,-70.6991 582.078,-64.7397 548,-58 401.71,-29.0674 359.086,-46.6207 208.234,-22.0276"/>
<polygon fill="midnightblue" stroke="midnightblue" points="208.578,-18.5368 198.139,-20.3458 207.428,-25.4416 208.578,-18.5368"/>
</g>
<!-- Node8 -->
<g id="node15" class="node"><title>Node8</title>
<polygon fill="white" stroke="#bfbfbf" points="324,-0.5 324,-21.5 378,-21.5 378,-0.5 324,-0.5"/>
<text text-anchor="middle" x="351" y="-8.5" font-family="Helvetica,sans-Serif" font-size="10.00">iostream</text>
</g>
<!-- Node7&#45;&gt;Node8 -->
<g id="edge14" class="edge"><title>Node7&#45;&gt;Node8</title>
<path fill="none" stroke="midnightblue" d="M796.719,-116.375C788.233,-100.573 769.948,-71.316 745,-58 677.011,-21.7105 480.317,-36.5722 388.273,-21.7654"/>
<polygon fill="midnightblue" stroke="midnightblue" points="388.839,-18.3111 378.375,-19.9709 387.59,-25.1988 388.839,-18.3111"/>
</g>
<!-- Node9 -->
<g id="node17" class="node"><title>Node9</title>
<polygon fill="white" stroke="#bfbfbf" points="701.5,-58.5 701.5,-79.5 736.5,-79.5 736.5,-58.5 701.5,-58.5"/>
<text text-anchor="middle" x="719" y="-66.5" font-family="Helvetica,sans-Serif" font-size="10.00">map</text>
</g>
<!-- Node7&#45;&gt;Node9 -->
<g id="edge16" class="edge"><title>Node7&#45;&gt;Node9</title>
<path fill="none" stroke="midnightblue" d="M786.777,-116.362C774.375,-107.696 756.654,-95.3126 742.443,-85.3819"/>
<polygon fill="midnightblue" stroke="midnightblue" points="744.329,-82.4297 734.127,-79.5707 740.319,-88.1676 744.329,-82.4297"/>
</g>
<!-- Node10 -->
<g id="node19" class="node"><title>Node10</title>
<polygon fill="white" stroke="#bfbfbf" points="396,-0.5 396,-21.5 440,-21.5 440,-0.5 396,-0.5"/>
<text text-anchor="middle" x="418" y="-8.5" font-family="Helvetica,sans-Serif" font-size="10.00">vector</text>
</g>
<!-- Node7&#45;&gt;Node10 -->
<g id="edge18" class="edge"><title>Node7&#45;&gt;Node10</title>
<path fill="none" stroke="midnightblue" d="M801.651,-116.386C800.52,-100.872 795.958,-72.301 778,-58 722.715,-13.9724 536.084,-36.4689 450.135,-21.57"/>
<polygon fill="midnightblue" stroke="midnightblue" points="450.662,-18.1061 440.168,-19.5608 449.279,-24.968 450.662,-18.1061"/>
</g>
<!-- Node11 -->
<g id="node21" class="node"><title>Node11</title>
<polygon fill="white" stroke="#bfbfbf" points="215.5,-0.5 215.5,-21.5 306.5,-21.5 306.5,-0.5 215.5,-0.5"/>
<text text-anchor="middle" x="261" y="-8.5" font-family="Helvetica,sans-Serif" font-size="10.00">yarp/sig/Vector.h</text>
</g>
<!-- Node7&#45;&gt;Node11 -->
<g id="edge20" class="edge"><title>Node7&#45;&gt;Node11</title>
<path fill="none" stroke="midnightblue" d="M779.981,-116.425C746.772,-100.962 681.524,-72.4545 623,-58 492.336,-25.7279 452.929,-42.9206 316.601,-22.1377"/>
<polygon fill="midnightblue" stroke="midnightblue" points="317.037,-18.6633 306.616,-20.5745 315.954,-25.5791 317.037,-18.6633"/>
</g>
<!-- Node7&#45;&gt;Node12 -->
<g id="edge26" class="edge"><title>Node7&#45;&gt;Node12</title>
<path fill="none" stroke="midnightblue" d="M882.621,-120.487C1005.54,-110.558 1241.1,-91.5298 1388.86,-79.5934"/>
<polygon fill="midnightblue" stroke="midnightblue" points="1389.22,-83.0759 1398.91,-78.782 1388.66,-76.0986 1389.22,-83.0759"/>
</g>
<!-- Node7&#45;&gt;Node13 -->
<g id="edge28" class="edge"><title>Node7&#45;&gt;Node13</title>
<path fill="none" stroke="midnightblue" d="M877.153,-116.497C957.129,-105.319 1082.12,-87.8502 1156.16,-77.5032"/>
<polygon fill="midnightblue" stroke="midnightblue" points="1156.84,-80.9424 1166.26,-76.0919 1155.87,-74.0098 1156.84,-80.9424"/>
</g>
<!-- Node13&#45;&gt;Node3 -->
<g id="edge30" class="edge"><title>Node13&#45;&gt;Node3</title>
<path fill="none" stroke="midnightblue" d="M1267.51,-64.5535C1294.12,-62.3322 1327.31,-59.7519 1357,-58 1758.58,-34.3065 1867.53,-90.4751 2267.7,-21.8007"/>
<polygon fill="midnightblue" stroke="midnightblue" points="2268.56,-25.205 2277.81,-20.0499 2267.36,-18.3077 2268.56,-25.205"/>
</g>
<!-- Node13&#45;&gt;Node4 -->
<g id="edge72" class="edge"><title>Node13&#45;&gt;Node4</title>
<path fill="none" stroke="midnightblue" d="M1166.28,-67.7574C981.125,-63.0807 341.089,-45.6466 114.651,-22.029"/>
<polygon fill="midnightblue" stroke="midnightblue" points="114.824,-18.5274 104.506,-20.9357 114.074,-25.4871 114.824,-18.5274"/>
</g>
<!-- Node13&#45;&gt;Node5 -->
<g id="edge70" class="edge"><title>Node13&#45;&gt;Node5</title>
<path fill="none" stroke="midnightblue" d="M1267.57,-59.6799C1272.1,-59.0353 1276.63,-58.4601 1281,-58 1681.07,-15.905 1790.76,-85.6964 2191.58,-21.8727"/>
<polygon fill="midnightblue" stroke="midnightblue" points="2192.39,-25.2874 2201.7,-20.2418 2191.27,-18.3765 2192.39,-25.2874"/>
</g>
<!-- Node13&#45;&gt;Node6 -->
<g id="edge60" class="edge"><title>Node13&#45;&gt;Node6</title>
<path fill="none" stroke="midnightblue" d="M1166.34,-67.8725C991.761,-63.7979 415.012,-48.72 208.26,-21.9041"/>
<polygon fill="midnightblue" stroke="midnightblue" points="208.487,-18.4031 198.11,-20.536 207.552,-25.3404 208.487,-18.4031"/>
</g>
<!-- Node13&#45;&gt;Node8 -->
<g id="edge34" class="edge"><title>Node13&#45;&gt;Node8</title>
<path fill="none" stroke="midnightblue" d="M1166.33,-67.7231C1013.32,-63.6216 556.746,-49.5147 388.308,-21.8126"/>
<polygon fill="midnightblue" stroke="midnightblue" points="388.8,-18.3458 378.351,-20.0978 387.612,-25.2443 388.8,-18.3458"/>
</g>
<!-- Node13&#45;&gt;Node10 -->
<g id="edge38" class="edge"><title>Node13&#45;&gt;Node10</title>
<path fill="none" stroke="midnightblue" d="M1166.43,-67.7486C1021.44,-63.8756 605.33,-50.6935 449.989,-21.6305"/>
<polygon fill="midnightblue" stroke="midnightblue" points="450.627,-18.189 440.139,-19.6931 449.276,-25.0574 450.627,-18.189"/>
</g>
<!-- Node13&#45;&gt;Node11 -->
<g id="edge66" class="edge"><title>Node13&#45;&gt;Node11</title>
<path fill="none" stroke="midnightblue" d="M1166.44,-67.3583C1004.8,-61.9568 500.912,-43.8941 316.687,-22.027"/>
<polygon fill="midnightblue" stroke="midnightblue" points="316.939,-18.5316 306.586,-20.7828 316.083,-25.4791 316.939,-18.5316"/>
</g>
<!-- Node14 -->
<g id="node30" class="node"><title>Node14</title>
<polygon fill="white" stroke="#bfbfbf" points="1648,-0.5 1648,-21.5 1692,-21.5 1692,-0.5 1648,-0.5"/>
<text text-anchor="middle" x="1670" y="-8.5" font-family="Helvetica,sans-Serif" font-size="10.00">cmath</text>
</g>
<!-- Node13&#45;&gt;Node14 -->
<g id="edge32" class="edge"><title>Node13&#45;&gt;Node14</title>
<path fill="none" stroke="midnightblue" d="M1267.61,-59.9657C1272.13,-59.2601 1276.64,-58.5927 1281,-58 1436.2,-36.8849 1481.13,-56.1664 1637.84,-21.8141"/>
<polygon fill="midnightblue" stroke="midnightblue" points="1638.84,-25.1783 1647.84,-19.5849 1637.32,-18.3462 1638.84,-25.1783"/>
</g>
<!-- Node15 -->
<g id="node33" class="node"><title>Node15</title>
<polygon fill="white" stroke="#bfbfbf" points="1709.5,-0.5 1709.5,-21.5 1750.5,-21.5 1750.5,-0.5 1709.5,-0.5"/>
<text text-anchor="middle" x="1730" y="-8.5" font-family="Helvetica,sans-Serif" font-size="10.00">string</text>
</g>
<!-- Node13&#45;&gt;Node15 -->
<g id="edge36" class="edge"><title>Node13&#45;&gt;Node15</title>
<path fill="none" stroke="midnightblue" d="M1267.6,-59.8966C1272.12,-59.2058 1276.64,-58.5606 1281,-58 1463.56,-34.5307 1516.48,-62.6001 1699.36,-21.8898"/>
<polygon fill="midnightblue" stroke="midnightblue" points="1700.32,-25.2603 1709.3,-19.6378 1698.78,-18.4333 1700.32,-25.2603"/>
</g>
<!-- Node16 -->
<g id="node36" class="node"><title>Node16</title>
<polygon fill="white" stroke="#bfbfbf" points="1768,-0.5 1768,-21.5 1820,-21.5 1820,-0.5 1768,-0.5"/>
<text text-anchor="middle" x="1794" y="-8.5" font-family="Helvetica,sans-Serif" font-size="10.00">sstream</text>
</g>
<!-- Node13&#45;&gt;Node16 -->
<g id="edge40" class="edge"><title>Node13&#45;&gt;Node16</title>
<path fill="none" stroke="midnightblue" d="M1267.59,-59.848C1272.12,-59.1676 1276.64,-58.5381 1281,-58 1489.14,-32.3339 1547.95,-61.2701 1757.69,-21.8741"/>
<polygon fill="midnightblue" stroke="midnightblue" points="1758.63,-25.2587 1767.79,-19.946 1757.31,-18.3828 1758.63,-25.2587"/>
</g>
<!-- Node17 -->
<g id="node38" class="node"><title>Node17</title>
<polygon fill="white" stroke="#bfbfbf" points="1837.5,-0.5 1837.5,-21.5 1952.5,-21.5 1952.5,-0.5 1837.5,-0.5"/>
<text text-anchor="middle" x="1895" y="-8.5" font-family="Helvetica,sans-Serif" font-size="10.00">yarp/os/BufferedPort.h</text>
</g>
<!-- Node13&#45;&gt;Node17 -->
<g id="edge42" class="edge"><title>Node13&#45;&gt;Node17</title>
<path fill="none" stroke="midnightblue" d="M1267.58,-59.803C1272.11,-59.1321 1276.63,-58.5172 1281,-58 1520.07,-29.6807 1584.78,-49.5383 1827.27,-22.1056"/>
<polygon fill="midnightblue" stroke="midnightblue" points="1827.92,-25.554 1837.45,-20.9373 1827.12,-18.5996 1827.92,-25.554"/>
</g>
<!-- Node18 -->
<g id="node40" class="node"><title>Node18</title>
<polygon fill="white" stroke="#bfbfbf" points="1970,-0.5 1970,-21.5 2056,-21.5 2056,-0.5 1970,-0.5"/>
<text text-anchor="middle" x="2013" y="-8.5" font-family="Helvetica,sans-Serif" font-size="10.00">yarp/os/Bottle.h</text>
</g>
<!-- Node13&#45;&gt;Node18 -->
<g id="edge44" class="edge"><title>Node13&#45;&gt;Node18</title>
<path fill="none" stroke="midnightblue" d="M1267.58,-59.7432C1272.11,-59.0851 1276.63,-58.4895 1281,-58 1578.39,-24.6877 1659.13,-60.6118 1959.63,-21.9887"/>
<polygon fill="midnightblue" stroke="midnightblue" points="1960.49,-25.4062 1969.96,-20.6436 1959.59,-18.4648 1960.49,-25.4062"/>
</g>
<!-- Node19 -->
<g id="node42" class="node"><title>Node19</title>
<polygon fill="white" stroke="#bfbfbf" points="2073.5,-0.5 2073.5,-21.5 2184.5,-21.5 2184.5,-0.5 2073.5,-0.5"/>
<text text-anchor="middle" x="2129" y="-8.5" font-family="Helvetica,sans-Serif" font-size="10.00">yarp/os/RateThread.h</text>
</g>
<!-- Node13&#45;&gt;Node19 -->
<g id="edge46" class="edge"><title>Node13&#45;&gt;Node19</title>
<path fill="none" stroke="midnightblue" d="M1267.57,-59.7102C1272.1,-59.0591 1276.63,-58.4742 1281,-58 1624.48,-20.7427 1716.48,-58.8754 2063.14,-22.0909"/>
<polygon fill="midnightblue" stroke="midnightblue" points="2063.64,-25.5574 2073.21,-21.0092 2062.89,-18.5975 2063.64,-25.5574"/>
</g>
<!-- Node20 -->
<g id="node44" class="node"><title>Node20</title>
<polygon fill="white" stroke="#bfbfbf" points="457.5,-0.5 457.5,-21.5 586.5,-21.5 586.5,-0.5 457.5,-0.5"/>
<text text-anchor="middle" x="522" y="-8.5" font-family="Helvetica,sans-Serif" font-size="10.00">yarp/os/ResourceFinder.h</text>
</g>
<!-- Node13&#45;&gt;Node20 -->
<g id="edge48" class="edge"><title>Node13&#45;&gt;Node20</title>
<path fill="none" stroke="midnightblue" d="M1166.49,-66.456C1062.01,-60.9181 814.368,-46.3669 596.853,-22.1498"/>
<polygon fill="midnightblue" stroke="midnightblue" points="597.174,-18.6639 586.846,-21.0263 596.393,-25.6202 597.174,-18.6639"/>
</g>
<!-- Node21 -->
<g id="node46" class="node"><title>Node21</title>
<polygon fill="white" stroke="#bfbfbf" points="604,-0.5 604,-21.5 714,-21.5 714,-0.5 604,-0.5"/>
<text text-anchor="middle" x="659" y="-8.5" font-family="Helvetica,sans-Serif" font-size="10.00">yarp/os/PortReader.h</text>
</g>
<!-- Node13&#45;&gt;Node21 -->
<g id="edge50" class="edge"><title>Node13&#45;&gt;Node21</title>
<path fill="none" stroke="midnightblue" d="M1166.37,-65.4486C1078.49,-59.0088 891.872,-44.1136 724.119,-22.0705"/>
<polygon fill="midnightblue" stroke="midnightblue" points="724.491,-18.5892 714.118,-20.7446 723.571,-25.5285 724.491,-18.5892"/>
</g>
<!-- Node13&#45;&gt;Node22 -->
<g id="edge52" class="edge"><title>Node13&#45;&gt;Node22</title>
<path fill="none" stroke="midnightblue" d="M1267.7,-65.4338C1302.17,-63.0932 1348.82,-60.0898 1390,-58 1808.25,-36.7737 1917.68,-67.0843 2337.84,-21.9852"/>
<polygon fill="midnightblue" stroke="midnightblue" points="2338.26,-25.4606 2347.83,-20.9058 2337.51,-18.5011 2338.26,-25.4606"/>
</g>
<!-- Node23 -->
<g id="node50" class="node"><title>Node23</title>
<polygon fill="white" stroke="#bfbfbf" points="731.5,-0.5 731.5,-21.5 838.5,-21.5 838.5,-0.5 731.5,-0.5"/>
<text text-anchor="middle" x="785" y="-8.5" font-family="Helvetica,sans-Serif" font-size="10.00">yarp/os/RpcServer.h</text>
</g>
<!-- Node13&#45;&gt;Node23 -->
<g id="edge54" class="edge"><title>Node13&#45;&gt;Node23</title>
<path fill="none" stroke="midnightblue" d="M1166.32,-63.3628C1096.89,-55.4632 968.078,-40.1758 848.779,-22.2221"/>
<polygon fill="midnightblue" stroke="midnightblue" points="849.153,-18.739 838.742,-20.7017 848.105,-25.66 849.153,-18.739"/>
</g>
<!-- Node24 -->
<g id="node52" class="node"><title>Node24</title>
<polygon fill="white" stroke="#bfbfbf" points="855.5,-0.5 855.5,-21.5 996.5,-21.5 996.5,-0.5 855.5,-0.5"/>
<text text-anchor="middle" x="926" y="-8.5" font-family="Helvetica,sans-Serif" font-size="10.00">yarp/os/ConnectionReader.h</text>
</g>
<!-- Node13&#45;&gt;Node24 -->
<g id="edge56" class="edge"><title>Node13&#45;&gt;Node24</title>
<path fill="none" stroke="midnightblue" d="M1166.31,-58.8972C1117.05,-49.0792 1042.11,-34.1428 989.034,-23.5635"/>
<polygon fill="midnightblue" stroke="midnightblue" points="989.548,-20.0971 979.057,-21.5749 988.18,-26.9621 989.548,-20.0971"/>
</g>
<!-- Node25 -->
<g id="node54" class="node"><title>Node25</title>
<polygon fill="white" stroke="#bfbfbf" points="1014,-0.5 1014,-21.5 1096,-21.5 1096,-0.5 1014,-0.5"/>
<text text-anchor="middle" x="1055" y="-8.5" font-family="Helvetica,sans-Serif" font-size="10.00">yarp/os/Time.h</text>
</g>
<!-- Node13&#45;&gt;Node25 -->
<g id="edge58" class="edge"><title>Node13&#45;&gt;Node25</title>
<path fill="none" stroke="midnightblue" d="M1187.66,-58.4966C1161.48,-49.1229 1122.94,-35.3242 1094.14,-25.0122"/>
<polygon fill="midnightblue" stroke="midnightblue" points="1094.99,-21.5987 1084.39,-21.5231 1092.63,-28.189 1094.99,-21.5987"/>
</g>
<!-- Node13&#45;&gt;Node26 -->
<g id="edge62" class="edge"><title>Node13&#45;&gt;Node26</title>
<path fill="none" stroke="midnightblue" d="M1267.7,-65.3762C1302.17,-63.0106 1348.82,-60.0009 1390,-58 1862.34,-35.0501 1985.59,-71.2066 2459.11,-22.0729"/>
<polygon fill="midnightblue" stroke="midnightblue" points="2459.72,-25.5292 2469.3,-21.0088 2458.99,-18.5671 2459.72,-25.5292"/>
</g>
<!-- Node27 -->
<g id="node59" class="node"><title>Node27</title>
<polygon fill="white" stroke="#bfbfbf" points="1113.5,-0.5 1113.5,-21.5 1210.5,-21.5 1210.5,-0.5 1113.5,-0.5"/>
<text text-anchor="middle" x="1162" y="-8.5" font-family="Helvetica,sans-Serif" font-size="10.00">yarp/os/Property.h</text>
</g>
<!-- Node13&#45;&gt;Node27 -->
<g id="edge64" class="edge"><title>Node13&#45;&gt;Node27</title>
<path fill="none" stroke="midnightblue" d="M1206.91,-58.3619C1199.16,-50.1861 1188.27,-38.7025 1179.15,-29.0907"/>
<polygon fill="midnightblue" stroke="midnightblue" points="1181.44,-26.4186 1172.02,-21.5707 1176.37,-31.2352 1181.44,-26.4186"/>
</g>
<!-- Node28 -->
<g id="node62" class="node"><title>Node28</title>
<polygon fill="white" stroke="#bfbfbf" points="1227.5,-0.5 1227.5,-21.5 1316.5,-21.5 1316.5,-0.5 1227.5,-0.5"/>
<text text-anchor="middle" x="1272" y="-8.5" font-family="Helvetica,sans-Serif" font-size="10.00">yarp/sig/Matrix.h</text>
</g>
<!-- Node13&#45;&gt;Node28 -->
<g id="edge68" class="edge"><title>Node13&#45;&gt;Node28</title>
<path fill="none" stroke="midnightblue" d="M1227.09,-58.3619C1234.84,-50.1861 1245.73,-38.7025 1254.85,-29.0907"/>
<polygon fill="midnightblue" stroke="midnightblue" points="1257.63,-31.2352 1261.98,-21.5707 1252.56,-26.4186 1257.63,-31.2352"/>
</g>
<!-- Node29 -->
<g id="node66" class="node"><title>Node29</title>
<polygon fill="white" stroke="#bfbfbf" points="1333.5,-0.5 1333.5,-21.5 1454.5,-21.5 1454.5,-0.5 1333.5,-0.5"/>
<text text-anchor="middle" x="1394" y="-8.5" font-family="Helvetica,sans-Serif" font-size="10.00">ocra/util/StringUtilities.h</text>
</g>
<!-- Node13&#45;&gt;Node29 -->
<g id="edge74" class="edge"><title>Node13&#45;&gt;Node29</title>
<path fill="none" stroke="midnightblue" d="M1249.05,-58.4966C1277.91,-49.0411 1320.51,-35.0829 1352.06,-24.7428"/>
<polygon fill="midnightblue" stroke="midnightblue" points="1353.47,-27.963 1361.89,-21.5231 1351.29,-21.3111 1353.47,-27.963"/>
</g>
<!-- Node30 -->
<g id="node68" class="node"><title>Node30</title>
<polygon fill="white" stroke="#bfbfbf" points="1471.5,-0.5 1471.5,-21.5 1544.5,-21.5 1544.5,-0.5 1471.5,-0.5"/>
<text text-anchor="middle" x="1508" y="-8.5" font-family="Helvetica,sans-Serif" font-size="10.00">Eigen/Dense</text>
</g>
<!-- Node13&#45;&gt;Node30 -->
<g id="edge76" class="edge"><title>Node13&#45;&gt;Node30</title>
<path fill="none" stroke="midnightblue" d="M1267.56,-60.1171C1315.17,-51.5802 1388.69,-37.9473 1461,-22.3686"/>
<polygon fill="midnightblue" stroke="midnightblue" points="1462.17,-25.6978 1471.2,-20.1577 1460.68,-18.8569 1462.17,-25.6978"/>
</g>
<!-- Node31 -->
<g id="node70" class="node"><title>Node31</title>
<polygon fill="white" stroke="#bfbfbf" points="1562,-0.5 1562,-21.5 1630,-21.5 1630,-0.5 1562,-0.5"/>
<text text-anchor="middle" x="1596" y="-8.5" font-family="Helvetica,sans-Serif" font-size="10.00">Eigen/Lgsm</text>
</g>
<!-- Node13&#45;&gt;Node31 -->
<g id="edge78" class="edge"><title>Node13&#45;&gt;Node31</title>
<path fill="none" stroke="midnightblue" d="M1267.63,-60.1129C1272.15,-59.3759 1276.65,-58.661 1281,-58 1398.38,-40.1519 1431.54,-44.8791 1551.85,-22.0516"/>
<polygon fill="midnightblue" stroke="midnightblue" points="1552.66,-25.4602 1561.82,-20.1354 1551.33,-18.586 1552.66,-25.4602"/>
</g>
</g>
</svg>
