<?xml version="1.0" encoding="UTF-8" standalone="no"?>
<!DOCTYPE svg PUBLIC "-//W3C//DTD SVG 1.1//EN"
 "http://www.w3.org/Graphics/SVG/1.1/DTD/svg11.dtd">
<!-- Generated by graphviz version 2.26.3 (20100126.1600)
 -->
<!-- Title: G Pages: 1 -->
<svg width="2584pt" height="436pt"
 viewBox="0.00 0.00 2584.00 436.00" xmlns="http://www.w3.org/2000/svg" xmlns:xlink="http://www.w3.org/1999/xlink">
<g id="graph1" class="graph" transform="scale(1 1) rotate(0) translate(4 432)">
<title>G</title>
<polygon fill="white" stroke="white" points="-4,5 -4,-432 2581,-432 2581,5 -4,5"/>
<!-- Node1 -->
<g id="node1" class="node"><title>Node1</title>
<polygon fill="#bfbfbf" stroke="black" points="1398,-406.5 1398,-427.5 1628,-427.5 1628,-406.5 1398,-406.5"/>
<text text-anchor="middle" x="1513" y="-414.5" font-family="Helvetica,sans-Serif" font-size="10.00">ocra&#45;wbi&#45;plugins/ocra&#45;icub&#45;server/src/Module.cpp</text>
</g>
<!-- Node2 -->
<g id="node3" class="node"><title>Node2</title>
<a xlink:href="Module_8h.html" target="_top" xlink:title="Module class for the controller server.">
<polygon fill="white" stroke="black" points="1448.5,-348.5 1448.5,-369.5 1577.5,-369.5 1577.5,-348.5 1448.5,-348.5"/>
<text text-anchor="middle" x="1513" y="-356.5" font-family="Helvetica,sans-Serif" font-size="10.00">ocra&#45;icub&#45;server/Module.h</text>
</a>
</g>
<!-- Node1&#45;&gt;Node2 -->
<g id="edge2" class="edge"><title>Node1&#45;&gt;Node2</title>
<path fill="none" stroke="midnightblue" d="M1513,-406.362C1513,-398.922 1513,-388.743 1513,-379.728"/>
<polygon fill="midnightblue" stroke="midnightblue" points="1516.5,-379.571 1513,-369.571 1509.5,-379.571 1516.5,-379.571"/>
</g>
<!-- Node3 -->
<g id="node5" class="node"><title>Node3</title>
<polygon fill="white" stroke="#bfbfbf" points="2328,-0.5 2328,-21.5 2382,-21.5 2382,-0.5 2328,-0.5"/>
<text text-anchor="middle" x="2355" y="-8.5" font-family="Helvetica,sans-Serif" font-size="10.00">iostream</text>
</g>
<!-- Node2&#45;&gt;Node3 -->
<g id="edge4" class="edge"><title>Node2&#45;&gt;Node3</title>
<path fill="none" stroke="midnightblue" d="M1556.52,-348.465C1605.1,-333.8 1677,-302.113 1677,-243 1677,-243 1677,-243 1677,-127 1677,-73.0023 1726.01,-75.7606 1777,-58 2001.87,20.3206 2079.42,-63.215 2317.64,-21.8618"/>
<polygon fill="midnightblue" stroke="midnightblue" points="2318.42,-25.2789 2327.64,-20.0694 2317.18,-18.3887 2318.42,-25.2789"/>
</g>
<!-- Node4 -->
<g id="node7" class="node"><title>Node4</title>
<polygon fill="white" stroke="#bfbfbf" points="2524,-0.5 2524,-21.5 2576,-21.5 2576,-0.5 2524,-0.5"/>
<text text-anchor="middle" x="2550" y="-8.5" font-family="Helvetica,sans-Serif" font-size="10.00">memory</text>
</g>
<!-- Node2&#45;&gt;Node4 -->
<g id="edge6" class="edge"><title>Node2&#45;&gt;Node4</title>
<path fill="none" stroke="midnightblue" d="M1564.64,-348.489C1645.03,-330.623 1791,-291.505 1791,-243 1791,-243 1791,-243 1791,-127 1791,32.4762 2335.17,-54.678 2513.77,-21.7999"/>
<polygon fill="midnightblue" stroke="midnightblue" points="2514.66,-25.1898 2523.75,-19.7467 2513.25,-18.3334 2514.66,-25.1898"/>
</g>
<!-- Node5 -->
<g id="node9" class="node"><title>Node5</title>
<polygon fill="white" stroke="#bfbfbf" points="1373,-290.5 1373,-311.5 1429,-311.5 1429,-290.5 1373,-290.5"/>
<text text-anchor="middle" x="1401" y="-298.5" font-family="Helvetica,sans-Serif" font-size="10.00">algorithm</text>
</g>
<!-- Node2&#45;&gt;Node5 -->
<g id="edge8" class="edge"><title>Node2&#45;&gt;Node5</title>
<path fill="none" stroke="midnightblue" d="M1492.72,-348.497C1475.38,-339.519 1450.21,-326.484 1430.62,-316.339"/>
<polygon fill="midnightblue" stroke="midnightblue" points="1432,-313.112 1421.51,-311.621 1428.78,-319.328 1432,-313.112"/>
</g>
<!-- Node6 -->
<g id="node11" class="node"><title>Node6</title>
<polygon fill="white" stroke="#bfbfbf" points="1447,-290.5 1447,-311.5 1489,-311.5 1489,-290.5 1447,-290.5"/>
<text text-anchor="middle" x="1468" y="-298.5" font-family="Helvetica,sans-Serif" font-size="10.00">locale</text>
</g>
<!-- Node2&#45;&gt;Node6 -->
<g id="edge10" class="edge"><title>Node2&#45;&gt;Node6</title>
<path fill="none" stroke="midnightblue" d="M1504.75,-348.362C1498.53,-340.35 1489.85,-329.161 1482.49,-319.67"/>
<polygon fill="midnightblue" stroke="midnightblue" points="1485.1,-317.326 1476.2,-311.571 1479.57,-321.617 1485.1,-317.326"/>
</g>
<!-- Node7 -->
<g id="node13" class="node"><title>Node7</title>
<polygon fill="white" stroke="#bfbfbf" points="1506.5,-290.5 1506.5,-311.5 1611.5,-311.5 1611.5,-290.5 1506.5,-290.5"/>
<text text-anchor="middle" x="1559" y="-298.5" font-family="Helvetica,sans-Serif" font-size="10.00">yarp/os/RFModule.h</text>
</g>
<!-- Node2&#45;&gt;Node7 -->
<g id="edge12" class="edge"><title>Node2&#45;&gt;Node7</title>
<path fill="none" stroke="midnightblue" d="M1521.44,-348.362C1527.79,-340.35 1536.67,-329.161 1544.19,-319.67"/>
<polygon fill="midnightblue" stroke="midnightblue" points="1547.14,-321.581 1550.62,-311.571 1541.66,-317.231 1547.14,-321.581"/>
</g>
<!-- Node8 -->
<g id="node15" class="node"><title>Node8</title>
<polygon fill="white" stroke="#bfbfbf" points="881,-58.5 881,-79.5 1123,-79.5 1123,-58.5 881,-58.5"/>
<text text-anchor="middle" x="1002" y="-66.5" font-family="Helvetica,sans-Serif" font-size="10.00">yarpWholeBodyInterface/yarpWholeBodyInterface.h</text>
</g>
<!-- Node2&#45;&gt;Node8 -->
<g id="edge14" class="edge"><title>Node2&#45;&gt;Node8</title>
<path fill="none" stroke="midnightblue" d="M1462.11,-348.411C1424.59,-339.63 1377.79,-326.306 1364,-312 1341.93,-289.098 1345,-274.808 1345,-243 1345,-243 1345,-243 1345,-185 1345,-131.312 1192.3,-97.6257 1090.67,-81.1513"/>
<polygon fill="midnightblue" stroke="midnightblue" points="1091.12,-77.679 1080.69,-79.5627 1090.02,-84.5919 1091.12,-77.679"/>
</g>
<!-- Node9 -->
<g id="node17" class="node"><title>Node9</title>
<a xlink:href="Thread_8h.html" target="_top" xlink:title="The thread class for the controller server.">
<polygon fill="white" stroke="black" points="913,-290.5 913,-311.5 1041,-311.5 1041,-290.5 913,-290.5"/>
<text text-anchor="middle" x="977" y="-298.5" font-family="Helvetica,sans-Serif" font-size="10.00">ocra&#45;icub&#45;server/Thread.h</text>
</a>
</g>
<!-- Node2&#45;&gt;Node9 -->
<g id="edge16" class="edge"><title>Node2&#45;&gt;Node9</title>
<path fill="none" stroke="midnightblue" d="M1448.35,-352.004C1348.37,-341.186 1156.82,-320.459 1051.3,-309.04"/>
<polygon fill="midnightblue" stroke="midnightblue" points="1051.37,-305.527 1041.05,-307.931 1050.61,-312.486 1051.37,-305.527"/>
</g>
<!-- Node21 -->
<g id="node49" class="node"><title>Node21</title>
<a xlink:href="Utilities_8h.html" target="_top" xlink:title="Some useful tools for the ocra&#45;icub lib.">
<polygon fill="white" stroke="black" points="1140.5,-58.5 1140.5,-79.5 1241.5,-79.5 1241.5,-58.5 1140.5,-58.5"/>
<text text-anchor="middle" x="1191" y="-66.5" font-family="Helvetica,sans-Serif" font-size="10.00">ocra&#45;icub/Utilities.h</text>
</a>
</g>
<!-- Node2&#45;&gt;Node21 -->
<g id="edge132" class="edge"><title>Node2&#45;&gt;Node21</title>
<path fill="none" stroke="midnightblue" d="M1560.54,-348.447C1595.96,-338.022 1635.7,-319.33 1620,-290 1546.04,-151.812 1351.08,-97.5722 1251.46,-78.3825"/>
<polygon fill="midnightblue" stroke="midnightblue" points="1252.02,-74.9257 1241.55,-76.5274 1250.73,-81.8064 1252.02,-74.9257"/>
</g>
<!-- Node9&#45;&gt;Node8 -->
<g id="edge18" class="edge"><title>Node9&#45;&gt;Node8</title>
<path fill="none" stroke="midnightblue" d="M997.315,-290.417C1025.62,-274.377 1075.71,-240.953 1096,-196 1115.99,-151.702 1063.29,-107.892 1028.94,-85.11"/>
<polygon fill="midnightblue" stroke="midnightblue" points="1030.54,-81.9787 1020.23,-79.5211 1026.76,-87.8691 1030.54,-81.9787"/>
</g>
<!-- Node10 -->
<g id="node20" class="node"><title>Node10</title>
<polygon fill="white" stroke="#bfbfbf" points="0,-0.5 0,-21.5 58,-21.5 58,-0.5 0,-0.5"/>
<text text-anchor="middle" x="29" y="-8.5" font-family="Helvetica,sans-Serif" font-size="10.00">wbi/wbi.h</text>
</g>
<!-- Node9&#45;&gt;Node10 -->
<g id="edge20" class="edge"><title>Node9&#45;&gt;Node10</title>
<path fill="none" stroke="midnightblue" d="M912.802,-300.094C754.48,-297.367 348.749,-287.253 218,-254 147.664,-236.111 70,-257.575 70,-185 70,-185 70,-185 70,-127 70,-91.4618 52.6819,-53.1198 40.5564,-30.6296"/>
<polygon fill="midnightblue" stroke="midnightblue" points="43.5241,-28.7655 35.5874,-21.747 37.415,-32.183 43.5241,-28.7655"/>
</g>
<!-- Node11 -->
<g id="node22" class="node"><title>Node11</title>
<a xlink:href="IcubControllerServer_8h.html" target="_top" xlink:title="ocra&#45;icub&#45;server/IcubControllerServer.h">
<polygon fill="white" stroke="black" points="519.5,-232.5 519.5,-253.5 706.5,-253.5 706.5,-232.5 519.5,-232.5"/>
<text text-anchor="middle" x="613" y="-240.5" font-family="Helvetica,sans-Serif" font-size="10.00">ocra&#45;icub&#45;server/IcubControllerServer.h</text>
</a>
</g>
<!-- Node9&#45;&gt;Node11 -->
<g id="edge22" class="edge"><title>Node9&#45;&gt;Node11</title>
<path fill="none" stroke="midnightblue" d="M912.762,-290.764C850.252,-280.804 755.262,-265.668 689.019,-255.113"/>
<polygon fill="midnightblue" stroke="midnightblue" points="689.479,-251.642 679.053,-253.525 688.377,-258.555 689.479,-251.642"/>
</g>
<!-- Node9&#45;&gt;Node21 -->
<g id="edge114" class="edge"><title>Node9&#45;&gt;Node21</title>
<path fill="none" stroke="midnightblue" d="M1009.26,-290.429C1029.47,-282.655 1055.16,-270.553 1074,-254 1128.79,-205.846 1167.2,-125.893 1182.98,-88.9022"/>
<polygon fill="midnightblue" stroke="midnightblue" points="1186.21,-90.247 1186.83,-79.6701 1179.75,-87.5541 1186.21,-90.247"/>
</g>
<!-- Node23 -->
<g id="node55" class="node"><title>Node23</title>
<polygon fill="white" stroke="#bfbfbf" points="333.5,-0.5 333.5,-21.5 374.5,-21.5 374.5,-0.5 333.5,-0.5"/>
<text text-anchor="middle" x="354" y="-8.5" font-family="Helvetica,sans-Serif" font-size="10.00">string</text>
</g>
<!-- Node9&#45;&gt;Node23 -->
<g id="edge128" class="edge"><title>Node9&#45;&gt;Node23</title>
<path fill="none" stroke="midnightblue" d="M912.857,-297.757C794.001,-291.319 544,-275.657 460,-254 397.949,-238.002 363.032,-249.657 328,-196 294.127,-144.118 325.288,-66.6458 343.284,-30.6691"/>
<polygon fill="midnightblue" stroke="midnightblue" points="346.45,-32.1667 347.945,-21.6779 340.235,-28.9447 346.45,-32.1667"/>
</g>
<!-- Node24 -->
<g id="node58" class="node"><title>Node24</title>
<polygon fill="white" stroke="#bfbfbf" points="2154,-0.5 2154,-21.5 2206,-21.5 2206,-0.5 2154,-0.5"/>
<text text-anchor="middle" x="2180" y="-8.5" font-family="Helvetica,sans-Serif" font-size="10.00">sstream</text>
</g>
<!-- Node9&#45;&gt;Node24 -->
<g id="edge126" class="edge"><title>Node9&#45;&gt;Node24</title>
<path fill="none" stroke="midnightblue" d="M1033.65,-290.472C1118.56,-273.051 1269,-235.116 1269,-185 1269,-185 1269,-185 1269,-127 1269,17.6221 1443.77,-78.0447 1587,-58 1829.87,-24.0098 1898.89,-66.4366 2143.88,-21.8127"/>
<polygon fill="midnightblue" stroke="midnightblue" points="2144.6,-25.2392 2153.8,-19.9772 2143.33,-18.3562 2144.6,-25.2392"/>
</g>
<!-- Node26 -->
<g id="node62" class="node"><title>Node26</title>
<polygon fill="white" stroke="#bfbfbf" points="2224,-0.5 2224,-21.5 2310,-21.5 2310,-0.5 2224,-0.5"/>
<text text-anchor="middle" x="2267" y="-8.5" font-family="Helvetica,sans-Serif" font-size="10.00">yarp/os/Bottle.h</text>
</g>
<!-- Node9&#45;&gt;Node26 -->
<g id="edge118" class="edge"><title>Node9&#45;&gt;Node26</title>
<path fill="none" stroke="midnightblue" d="M1041.48,-291.808C1089,-284.132 1154.85,-271.595 1211,-254 1419.94,-188.521 1450.17,-109.44 1663,-58 1898.71,-1.03246 1969.51,-54.0364 2213.7,-21.9848"/>
<polygon fill="midnightblue" stroke="midnightblue" points="2214.51,-25.4071 2223.95,-20.6025 2213.58,-18.4698 2214.51,-25.4071"/>
</g>
<!-- Node31 -->
<g id="node72" class="node"><title>Node31</title>
<polygon fill="white" stroke="#bfbfbf" points="2399.5,-0.5 2399.5,-21.5 2506.5,-21.5 2506.5,-0.5 2399.5,-0.5"/>
<text text-anchor="middle" x="2453" y="-8.5" font-family="Helvetica,sans-Serif" font-size="10.00">yarp/os/RpcServer.h</text>
</g>
<!-- Node9&#45;&gt;Node31 -->
<g id="edge120" class="edge"><title>Node9&#45;&gt;Node31</title>
<path fill="none" stroke="midnightblue" d="M1041.19,-293.763C1098.23,-286.489 1183.56,-273.532 1256,-254 1494.87,-189.596 1534.99,-109.378 1777,-58 2041.13,-1.92455 2117.65,-52.6609 2389.13,-22.0967"/>
<polygon fill="midnightblue" stroke="midnightblue" points="2389.76,-25.5483 2399.29,-20.926 2388.95,-18.5944 2389.76,-25.5483"/>
</g>
<!-- Node32 -->
<g id="node74" class="node"><title>Node32</title>
<polygon fill="white" stroke="#bfbfbf" points="75.5,-0.5 75.5,-21.5 216.5,-21.5 216.5,-0.5 75.5,-0.5"/>
<text text-anchor="middle" x="146" y="-8.5" font-family="Helvetica,sans-Serif" font-size="10.00">yarp/os/ConnectionReader.h</text>
</g>
<!-- Node9&#45;&gt;Node32 -->
<g id="edge122" class="edge"><title>Node9&#45;&gt;Node32</title>
<path fill="none" stroke="midnightblue" d="M912.949,-298.464C754.609,-291.926 353.398,-273.633 296,-254 243.865,-236.167 193,-240.1 193,-185 193,-185 193,-185 193,-127 193,-90.6852 172.969,-52.3473 159.061,-30.1048"/>
<polygon fill="midnightblue" stroke="midnightblue" points="161.93,-28.0957 153.551,-21.6106 156.057,-31.9049 161.93,-28.0957"/>
</g>
<!-- Node33 -->
<g id="node76" class="node"><title>Node33</title>
<polygon fill="white" stroke="#bfbfbf" points="234,-0.5 234,-21.5 316,-21.5 316,-0.5 234,-0.5"/>
<text text-anchor="middle" x="275" y="-8.5" font-family="Helvetica,sans-Serif" font-size="10.00">yarp/os/Time.h</text>
</g>
<!-- Node9&#45;&gt;Node33 -->
<g id="edge124" class="edge"><title>Node9&#45;&gt;Node33</title>
<path fill="none" stroke="midnightblue" d="M912.817,-298.177C765.439,-291.4 411.562,-273.328 361,-254 313.92,-236.003 271,-235.403 271,-185 271,-185 271,-185 271,-127 271,-93.5779 272.679,-54.7713 273.861,-31.5866"/>
<polygon fill="midnightblue" stroke="midnightblue" points="277.359,-31.7229 274.392,-21.5519 270.369,-31.3529 277.359,-31.7229"/>
</g>
<!-- Node39 -->
<g id="node94" class="node"><title>Node39</title>
<polygon fill="white" stroke="#bfbfbf" points="866.5,-174.5 866.5,-195.5 1087.5,-195.5 1087.5,-174.5 866.5,-174.5"/>
<text text-anchor="middle" x="977" y="-182.5" font-family="Helvetica,sans-Serif" font-size="10.00">iDynTree/Estimation/SimpleLeggedOdometry.h</text>
</g>
<!-- Node9&#45;&gt;Node39 -->
<g id="edge130" class="edge"><title>Node9&#45;&gt;Node39</title>
<path fill="none" stroke="midnightblue" d="M977,-290.295C977,-271.131 977,-230.654 977,-205.843"/>
<polygon fill="midnightblue" stroke="midnightblue" points="980.5,-205.679 977,-195.679 973.5,-205.679 980.5,-205.679"/>
</g>
<!-- Node40 -->
<g id="node96" class="node"><title>Node40</title>
<polygon fill="white" stroke="#bfbfbf" points="336.5,-174.5 336.5,-195.5 453.5,-195.5 453.5,-174.5 336.5,-174.5"/>
<text text-anchor="middle" x="395" y="-182.5" font-family="Helvetica,sans-Serif" font-size="10.00">ocra/util/ErrorsHelper.h</text>
</g>
<!-- Node9&#45;&gt;Node40 -->
<g id="edge116" class="edge"><title>Node9&#45;&gt;Node40</title>
<path fill="none" stroke="midnightblue" d="M912.945,-297.973C803.195,-292.215 583.975,-278.067 511,-254 475.245,-242.208 438.678,-218.038 416.402,-201.672"/>
<polygon fill="midnightblue" stroke="midnightblue" points="418.423,-198.813 408.322,-195.615 414.224,-204.414 418.423,-198.813"/>
</g>
<!-- Node11&#45;&gt;Node10 -->
<g id="edge24" class="edge"><title>Node11&#45;&gt;Node10</title>
<path fill="none" stroke="midnightblue" d="M591.201,-232.468C562.032,-218.507 508.569,-193.378 462,-174 318.28,-114.195 144.012,-51.5243 67.8118,-24.6004"/>
<polygon fill="midnightblue" stroke="midnightblue" points="68.7476,-21.2192 58.1528,-21.1936 66.4192,-27.8206 68.7476,-21.2192"/>
</g>
<!-- Node12 -->
<g id="node25" class="node"><title>Node12</title>
<polygon fill="white" stroke="#bfbfbf" points="697,-174.5 697,-195.5 849,-195.5 849,-174.5 697,-174.5"/>
<text text-anchor="middle" x="773" y="-182.5" font-family="Helvetica,sans-Serif" font-size="10.00">ocra&#45;recipes/ControllerServer.h</text>
</g>
<!-- Node11&#45;&gt;Node12 -->
<g id="edge26" class="edge"><title>Node11&#45;&gt;Node12</title>
<path fill="none" stroke="midnightblue" d="M641.975,-232.497C667.833,-223.123 705.899,-209.324 734.346,-199.012"/>
<polygon fill="midnightblue" stroke="midnightblue" points="735.762,-202.222 743.971,-195.523 733.377,-195.641 735.762,-202.222"/>
</g>
<!-- Node13 -->
<g id="node27" class="node"><title>Node13</title>
<polygon fill="white" stroke="#bfbfbf" points="391.5,-0.5 391.5,-21.5 464.5,-21.5 464.5,-0.5 391.5,-0.5"/>
<text text-anchor="middle" x="428" y="-8.5" font-family="Helvetica,sans-Serif" font-size="10.00">Eigen/Dense</text>
</g>
<!-- Node11&#45;&gt;Node13 -->
<g id="edge28" class="edge"><title>Node11&#45;&gt;Node13</title>
<path fill="none" stroke="midnightblue" d="M590.359,-232.45C574.355,-224.182 553.141,-211.498 538,-196 512.013,-169.399 459.939,-72.3261 438.053,-30.4478"/>
<polygon fill="midnightblue" stroke="midnightblue" points="441.121,-28.7607 433.401,-21.5047 434.911,-31.9914 441.121,-28.7607"/>
</g>
<!-- Node14 -->
<g id="node29" class="node"><title>Node14</title>
<a xlink:href="OcraWbiModel_8h.html" target="_top" xlink:title="Implementation of ocra::Model using wholeBodyInterface.">
<polygon fill="white" stroke="black" points="547,-174.5 547,-195.5 679,-195.5 679,-174.5 547,-174.5"/>
<text text-anchor="middle" x="613" y="-182.5" font-family="Helvetica,sans-Serif" font-size="10.00">ocra&#45;icub/OcraWbiModel.h</text>
</a>
</g>
<!-- Node11&#45;&gt;Node14 -->
<g id="edge30" class="edge"><title>Node11&#45;&gt;Node14</title>
<path fill="none" stroke="midnightblue" d="M613,-232.362C613,-224.922 613,-214.743 613,-205.728"/>
<polygon fill="midnightblue" stroke="midnightblue" points="616.5,-205.571 613,-195.571 609.5,-205.571 616.5,-205.571"/>
</g>
<!-- Node11&#45;&gt;Node39 -->
<g id="edge110" class="edge"><title>Node11&#45;&gt;Node39</title>
<path fill="none" stroke="midnightblue" d="M678.918,-232.497C741.471,-222.529 835.422,-207.559 901.079,-197.097"/>
<polygon fill="midnightblue" stroke="midnightblue" points="901.634,-200.553 910.959,-195.523 900.533,-193.64 901.634,-200.553"/>
</g>
<!-- Node11&#45;&gt;Node40 -->
<g id="edge112" class="edge"><title>Node11&#45;&gt;Node40</title>
<path fill="none" stroke="midnightblue" d="M573.522,-232.497C537.367,-222.877 483.696,-208.598 444.647,-198.209"/>
<polygon fill="midnightblue" stroke="midnightblue" points="445.116,-194.712 434.552,-195.523 443.316,-201.477 445.116,-194.712"/>
</g>
<!-- Node14&#45;&gt;Node4 -->
<g id="edge32" class="edge"><title>Node14&#45;&gt;Node4</title>
<path fill="none" stroke="midnightblue" d="M679.234,-175.141C682.195,-174.746 685.128,-174.363 688,-174 929.444,-143.447 1534.36,-76.8254 1777,-58 2101.05,-32.8584 2189.9,-78.7429 2513.67,-21.8252"/>
<polygon fill="midnightblue" stroke="midnightblue" points="2514.57,-25.2191 2523.81,-20.0229 2513.35,-18.3272 2514.57,-25.2191"/>
</g>
<!-- Node14&#45;&gt;Node10 -->
<g id="edge36" class="edge"><title>Node14&#45;&gt;Node10</title>
<path fill="none" stroke="midnightblue" d="M592.23,-174.382C555.874,-155.72 478.437,-115.634 414,-80 396.922,-70.5558 394.522,-64.146 376,-58 247.849,-15.4768 204.566,-47.7253 68.3125,-21.9706"/>
<polygon fill="midnightblue" stroke="midnightblue" points="68.8259,-18.5047 58.3391,-20.0142 67.4784,-25.3737 68.8259,-18.5047"/>
</g>
<!-- Node15 -->
<g id="node32" class="node"><title>Node15</title>
<polygon fill="white" stroke="#bfbfbf" points="575.5,-0.5 575.5,-21.5 680.5,-21.5 680.5,-0.5 575.5,-0.5"/>
<text text-anchor="middle" x="628" y="-8.5" font-family="Helvetica,sans-Serif" font-size="10.00">ocra/control/Model.h</text>
</g>
<!-- Node14&#45;&gt;Node15 -->
<g id="edge34" class="edge"><title>Node14&#45;&gt;Node15</title>
<path fill="none" stroke="midnightblue" d="M613.916,-174.377C616.337,-146.293 622.942,-69.6735 626.172,-32.2027"/>
<polygon fill="midnightblue" stroke="midnightblue" points="629.686,-32.1914 627.058,-21.9277 622.712,-31.5901 629.686,-32.1914"/>
</g>
<!-- Node16 -->
<g id="node35" class="node"><title>Node16</title>
<polygon fill="white" stroke="#bfbfbf" points="482,-0.5 482,-21.5 558,-21.5 558,-0.5 482,-0.5"/>
<text text-anchor="middle" x="520" y="-8.5" font-family="Helvetica,sans-Serif" font-size="10.00">yarp/os/Log.h</text>
</g>
<!-- Node14&#45;&gt;Node16 -->
<g id="edge38" class="edge"><title>Node14&#45;&gt;Node16</title>
<path fill="none" stroke="midnightblue" d="M607.322,-174.377C592.118,-145.93 550.297,-67.6838 530.566,-30.7689"/>
<polygon fill="midnightblue" stroke="midnightblue" points="533.641,-29.0972 525.841,-21.9277 527.468,-32.3969 533.641,-29.0972"/>
</g>
<!-- Node17 -->
<g id="node37" class="node"><title>Node17</title>
<a xlink:href="OcraWbiConversions_8h.html" target="_top" xlink:title="A utility class full of static conversion functions.">
<polygon fill="white" stroke="black" points="712.5,-116.5 712.5,-137.5 873.5,-137.5 873.5,-116.5 712.5,-116.5"/>
<text text-anchor="middle" x="793" y="-124.5" font-family="Helvetica,sans-Serif" font-size="10.00">ocra&#45;icub/OcraWbiConversions.h</text>
</a>
</g>
<!-- Node14&#45;&gt;Node17 -->
<g id="edge40" class="edge"><title>Node14&#45;&gt;Node17</title>
<path fill="none" stroke="midnightblue" d="M645.597,-174.497C675.069,-165 718.635,-150.962 750.766,-140.609"/>
<polygon fill="midnightblue" stroke="midnightblue" points="751.898,-143.921 760.342,-137.523 749.751,-137.259 751.898,-143.921"/>
</g>
<!-- Node14&#45;&gt;Node21 -->
<g id="edge108" class="edge"><title>Node14&#45;&gt;Node21</title>
<path fill="none" stroke="midnightblue" d="M678.113,-174.499C732.69,-165.487 812.602,-151.803 882,-138 971.752,-120.148 1075.45,-96.3341 1137,-81.8622"/>
<polygon fill="midnightblue" stroke="midnightblue" points="1137.94,-85.235 1146.88,-79.5347 1136.34,-78.4216 1137.94,-85.235"/>
</g>
<!-- Node17&#45;&gt;Node3 -->
<g id="edge42" class="edge"><title>Node17&#45;&gt;Node3</title>
<path fill="none" stroke="midnightblue" d="M873.614,-119.948C1027.15,-106.662 1372.17,-77.5098 1663,-58 1951.07,-38.6752 2029.74,-72.2655 2317.75,-21.8533"/>
<polygon fill="midnightblue" stroke="midnightblue" points="2318.41,-25.2913 2327.65,-20.1028 2317.19,-18.3983 2318.41,-25.2913"/>
</g>
<!-- Node17&#45;&gt;Node8 -->
<g id="edge54" class="edge"><title>Node17&#45;&gt;Node8</title>
<path fill="none" stroke="midnightblue" d="M830.848,-116.497C865.511,-106.877 916.965,-92.5981 954.402,-82.209"/>
<polygon fill="midnightblue" stroke="midnightblue" points="955.381,-85.5697 964.081,-79.5231 953.509,-78.8246 955.381,-85.5697"/>
</g>
<!-- Node17&#45;&gt;Node10 -->
<g id="edge52" class="edge"><title>Node17&#45;&gt;Node10</title>
<path fill="none" stroke="midnightblue" d="M742.321,-116.494C669.819,-101.757 532.184,-74.8634 414,-58 263.802,-36.5686 221.011,-51.0224 68.5359,-22.0252"/>
<polygon fill="midnightblue" stroke="midnightblue" points="68.8144,-18.5143 58.3317,-20.0516 67.4851,-25.3869 68.8144,-18.5143"/>
</g>
<!-- Node17&#45;&gt;Node16 -->
<g id="edge50" class="edge"><title>Node17&#45;&gt;Node16</title>
<path fill="none" stroke="midnightblue" d="M767.806,-116.295C718.62,-95.3952 609.771,-49.1446 554.156,-25.5132"/>
<polygon fill="midnightblue" stroke="midnightblue" points="555.311,-22.2011 544.739,-21.5117 552.574,-28.6437 555.311,-22.2011"/>
</g>
<!-- Node18 -->
<g id="node40" class="node"><title>Node18</title>
<polygon fill="white" stroke="#bfbfbf" points="820.5,-58.5 820.5,-79.5 855.5,-79.5 855.5,-58.5 820.5,-58.5"/>
<text text-anchor="middle" x="838" y="-66.5" font-family="Helvetica,sans-Serif" font-size="10.00">map</text>
</g>
<!-- Node17&#45;&gt;Node18 -->
<g id="edge44" class="edge"><title>Node17&#45;&gt;Node18</title>
<path fill="none" stroke="midnightblue" d="M801.254,-116.362C807.47,-108.35 816.151,-97.1605 823.515,-87.6696"/>
<polygon fill="midnightblue" stroke="midnightblue" points="826.434,-89.617 829.799,-79.5707 820.903,-85.326 826.434,-89.617"/>
</g>
<!-- Node19 -->
<g id="node42" class="node"><title>Node19</title>
<polygon fill="white" stroke="#bfbfbf" points="698,-0.5 698,-21.5 742,-21.5 742,-0.5 698,-0.5"/>
<text text-anchor="middle" x="720" y="-8.5" font-family="Helvetica,sans-Serif" font-size="10.00">vector</text>
</g>
<!-- Node17&#45;&gt;Node19 -->
<g id="edge46" class="edge"><title>Node17&#45;&gt;Node19</title>
<path fill="none" stroke="midnightblue" d="M786.263,-116.295C773.932,-96.6998 747.576,-54.8198 732.077,-30.1913"/>
<polygon fill="midnightblue" stroke="midnightblue" points="735.009,-28.2786 726.721,-21.6792 729.085,-32.007 735.009,-28.2786"/>
</g>
<!-- Node20 -->
<g id="node44" class="node"><title>Node20</title>
<polygon fill="white" stroke="#bfbfbf" points="759.5,-0.5 759.5,-21.5 850.5,-21.5 850.5,-0.5 759.5,-0.5"/>
<text text-anchor="middle" x="805" y="-8.5" font-family="Helvetica,sans-Serif" font-size="10.00">yarp/sig/Vector.h</text>
</g>
<!-- Node17&#45;&gt;Node20 -->
<g id="edge48" class="edge"><title>Node17&#45;&gt;Node20</title>
<path fill="none" stroke="midnightblue" d="M794.107,-116.295C796.09,-97.1314 800.277,-56.654 802.844,-31.8434"/>
<polygon fill="midnightblue" stroke="midnightblue" points="806.348,-31.9863 803.895,-21.6792 799.385,-31.2659 806.348,-31.9863"/>
</g>
<!-- Node17&#45;&gt;Node21 -->
<g id="edge56" class="edge"><title>Node17&#45;&gt;Node21</title>
<path fill="none" stroke="midnightblue" d="M873.639,-116.894C940.073,-108.32 1036.98,-95.2461 1130.57,-80.1825"/>
<polygon fill="midnightblue" stroke="midnightblue" points="1131.18,-83.6293 1140.5,-78.5758 1130.07,-76.7193 1131.18,-83.6293"/>
</g>
<!-- Node21&#45;&gt;Node3 -->
<g id="edge62" class="edge"><title>Node21&#45;&gt;Node3</title>
<path fill="none" stroke="midnightblue" d="M1241.8,-67.6456C1442.22,-62.2013 2173.66,-41.3423 2317.62,-21.6756"/>
<polygon fill="midnightblue" stroke="midnightblue" points="2318.3,-25.1125 2327.66,-20.1412 2317.24,-18.1929 2318.3,-25.1125"/>
</g>
<!-- Node21&#45;&gt;Node4 -->
<g id="edge58" class="edge"><title>Node21&#45;&gt;Node4</title>
<path fill="none" stroke="midnightblue" d="M1241.56,-68.0096C1463.45,-63.5563 2347.03,-44.6782 2513.49,-21.6549"/>
<polygon fill="midnightblue" stroke="midnightblue" points="2514.46,-25.0463 2523.81,-20.0615 2513.4,-18.1282 2514.46,-25.0463"/>
</g>
<!-- Node21&#45;&gt;Node10 -->
<g id="edge98" class="edge"><title>Node21&#45;&gt;Node10</title>
<path fill="none" stroke="midnightblue" d="M1140.22,-59.0314C1137.45,-58.6433 1134.69,-58.2949 1132,-58 664.543,-6.8174 536.529,-95.1492 68.3621,-21.8515"/>
<polygon fill="midnightblue" stroke="midnightblue" points="68.7192,-18.3645 58.2951,-20.2587 67.6252,-25.2785 68.7192,-18.3645"/>
</g>
<!-- Node21&#45;&gt;Node13 -->
<g id="edge104" class="edge"><title>Node21&#45;&gt;Node13</title>
<path fill="none" stroke="midnightblue" d="M1140.22,-59.0991C1137.44,-58.6935 1134.69,-58.3228 1132,-58 844.035,-23.4383 764.925,-64.0769 474.699,-22.0298"/>
<polygon fill="midnightblue" stroke="midnightblue" points="475.13,-18.5557 464.727,-20.5649 474.112,-25.4813 475.13,-18.5557"/>
</g>
<!-- Node21&#45;&gt;Node15 -->
<g id="edge100" class="edge"><title>Node21&#45;&gt;Node15</title>
<path fill="none" stroke="midnightblue" d="M1140.2,-59.1854C1137.43,-58.7576 1134.69,-58.3585 1132,-58 939.45,-32.2965 886.621,-47.0487 690.575,-22.1037"/>
<polygon fill="midnightblue" stroke="midnightblue" points="690.888,-18.6152 680.522,-20.806 689.991,-25.5576 690.888,-18.6152"/>
</g>
<!-- Node21&#45;&gt;Node16 -->
<g id="edge88" class="edge"><title>Node21&#45;&gt;Node16</title>
<path fill="none" stroke="midnightblue" d="M1140.21,-59.1286C1137.44,-58.7154 1134.69,-58.335 1132,-58 885.603,-27.2948 817.698,-57.9668 568.215,-21.9595"/>
<polygon fill="midnightblue" stroke="midnightblue" points="568.519,-18.4669 558.117,-20.4804 567.505,-25.393 568.519,-18.4669"/>
</g>
<!-- Node21&#45;&gt;Node19 -->
<g id="edge66" class="edge"><title>Node21&#45;&gt;Node19</title>
<path fill="none" stroke="midnightblue" d="M1140.2,-59.228C1137.43,-58.7892 1134.68,-58.3761 1132,-58 966.849,-34.8502 918.939,-57.7865 752.263,-21.8218"/>
<polygon fill="midnightblue" stroke="midnightblue" points="752.677,-18.3294 742.159,-19.6015 751.175,-25.1662 752.677,-18.3294"/>
</g>
<!-- Node21&#45;&gt;Node20 -->
<g id="edge94" class="edge"><title>Node21&#45;&gt;Node20</title>
<path fill="none" stroke="midnightblue" d="M1140.18,-59.3477C1137.42,-58.878 1134.68,-58.4255 1132,-58 1014.32,-39.2846 981.421,-42.0604 860.633,-22.1918"/>
<polygon fill="midnightblue" stroke="midnightblue" points="861.062,-18.7151 850.623,-20.5269 859.914,-25.6202 861.062,-18.7151"/>
</g>
<!-- Node22 -->
<g id="node52" class="node"><title>Node22</title>
<polygon fill="white" stroke="#bfbfbf" points="1092,-0.5 1092,-21.5 1136,-21.5 1136,-0.5 1092,-0.5"/>
<text text-anchor="middle" x="1114" y="-8.5" font-family="Helvetica,sans-Serif" font-size="10.00">cmath</text>
</g>
<!-- Node21&#45;&gt;Node22 -->
<g id="edge60" class="edge"><title>Node21&#45;&gt;Node22</title>
<path fill="none" stroke="midnightblue" d="M1176.88,-58.3619C1165.48,-49.7773 1149.24,-37.5459 1136.12,-27.6636"/>
<polygon fill="midnightblue" stroke="midnightblue" points="1138.13,-24.7916 1128.03,-21.5707 1133.92,-30.3829 1138.13,-24.7916"/>
</g>
<!-- Node21&#45;&gt;Node23 -->
<g id="edge64" class="edge"><title>Node21&#45;&gt;Node23</title>
<path fill="none" stroke="midnightblue" d="M1140.22,-59.0778C1137.44,-58.6777 1134.69,-58.314 1132,-58 804.368,-19.7649 711.181,-88.501 384.891,-21.8508"/>
<polygon fill="midnightblue" stroke="midnightblue" points="385.176,-18.3357 374.674,-19.7354 383.757,-25.1903 385.176,-18.3357"/>
</g>
<!-- Node21&#45;&gt;Node24 -->
<g id="edge68" class="edge"><title>Node21&#45;&gt;Node24</title>
<path fill="none" stroke="midnightblue" d="M1241.57,-59.6844C1246.1,-59.0389 1250.63,-58.4622 1255,-58 1645.42,-16.7286 1753.21,-88.7257 2143.94,-21.758"/>
<polygon fill="midnightblue" stroke="midnightblue" points="2144.56,-25.2035 2153.81,-20.0471 2143.36,-18.3064 2144.56,-25.2035"/>
</g>
<!-- Node25 -->
<g id="node60" class="node"><title>Node25</title>
<polygon fill="white" stroke="#bfbfbf" points="1153.5,-0.5 1153.5,-21.5 1268.5,-21.5 1268.5,-0.5 1153.5,-0.5"/>
<text text-anchor="middle" x="1211" y="-8.5" font-family="Helvetica,sans-Serif" font-size="10.00">yarp/os/BufferedPort.h</text>
</g>
<!-- Node21&#45;&gt;Node25 -->
<g id="edge70" class="edge"><title>Node21&#45;&gt;Node25</title>
<path fill="none" stroke="midnightblue" d="M1194.67,-58.3619C1197.29,-50.7584 1200.9,-40.294 1204.06,-31.1349"/>
<polygon fill="midnightblue" stroke="midnightblue" points="1207.4,-32.1654 1207.35,-21.5707 1200.79,-29.8834 1207.4,-32.1654"/>
</g>
<!-- Node21&#45;&gt;Node26 -->
<g id="edge72" class="edge"><title>Node21&#45;&gt;Node26</title>
<path fill="none" stroke="midnightblue" d="M1241.72,-67.765C1417.99,-63.3049 2004.16,-47.025 2213.96,-21.9083"/>
<polygon fill="midnightblue" stroke="midnightblue" points="2214.47,-25.3721 2223.96,-20.6672 2213.61,-18.4254 2214.47,-25.3721"/>
</g>
<!-- Node27 -->
<g id="node64" class="node"><title>Node27</title>
<polygon fill="white" stroke="#bfbfbf" points="1285.5,-0.5 1285.5,-21.5 1396.5,-21.5 1396.5,-0.5 1285.5,-0.5"/>
<text text-anchor="middle" x="1341" y="-8.5" font-family="Helvetica,sans-Serif" font-size="10.00">yarp/os/RateThread.h</text>
</g>
<!-- Node21&#45;&gt;Node27 -->
<g id="edge74" class="edge"><title>Node21&#45;&gt;Node27</title>
<path fill="none" stroke="midnightblue" d="M1218.16,-58.4966C1242.3,-49.1639 1277.78,-35.4447 1304.41,-25.1475"/>
<polygon fill="midnightblue" stroke="midnightblue" points="1305.72,-28.394 1313.79,-21.5231 1303.2,-21.8651 1305.72,-28.394"/>
</g>
<!-- Node28 -->
<g id="node66" class="node"><title>Node28</title>
<polygon fill="white" stroke="#bfbfbf" points="1413.5,-0.5 1413.5,-21.5 1542.5,-21.5 1542.5,-0.5 1413.5,-0.5"/>
<text text-anchor="middle" x="1478" y="-8.5" font-family="Helvetica,sans-Serif" font-size="10.00">yarp/os/ResourceFinder.h</text>
</g>
<!-- Node21&#45;&gt;Node28 -->
<g id="edge76" class="edge"><title>Node21&#45;&gt;Node28</title>
<path fill="none" stroke="midnightblue" d="M1241.65,-58.7643C1290.23,-48.9471 1363.68,-34.1021 1415.8,-23.5709"/>
<polygon fill="midnightblue" stroke="midnightblue" points="1416.81,-26.9365 1425.92,-21.5249 1415.42,-20.0752 1416.81,-26.9365"/>
</g>
<!-- Node29 -->
<g id="node68" class="node"><title>Node29</title>
<polygon fill="white" stroke="#bfbfbf" points="1560,-0.5 1560,-21.5 1670,-21.5 1670,-0.5 1560,-0.5"/>
<text text-anchor="middle" x="1615" y="-8.5" font-family="Helvetica,sans-Serif" font-size="10.00">yarp/os/PortReader.h</text>
</g>
<!-- Node21&#45;&gt;Node29 -->
<g id="edge78" class="edge"><title>Node21&#45;&gt;Node29</title>
<path fill="none" stroke="midnightblue" d="M1241.62,-60.0634C1246.14,-59.3369 1250.65,-58.638 1255,-58 1382.92,-39.2394 1418.17,-41.1229 1549.8,-22.1193"/>
<polygon fill="midnightblue" stroke="midnightblue" points="1550.48,-25.5579 1559.87,-20.6527 1549.47,-18.631 1550.48,-25.5579"/>
</g>
<!-- Node30 -->
<g id="node70" class="node"><title>Node30</title>
<polygon fill="white" stroke="#bfbfbf" points="1688,-0.5 1688,-21.5 1792,-21.5 1792,-0.5 1688,-0.5"/>
<text text-anchor="middle" x="1740" y="-8.5" font-family="Helvetica,sans-Serif" font-size="10.00">yarp/os/RpcClient.h</text>
</g>
<!-- Node21&#45;&gt;Node30 -->
<g id="edge80" class="edge"><title>Node21&#45;&gt;Node30</title>
<path fill="none" stroke="midnightblue" d="M1241.6,-59.8928C1246.12,-59.2028 1250.64,-58.5589 1255,-58 1439.38,-34.371 1489.8,-46.3802 1677.87,-22.0464"/>
<polygon fill="midnightblue" stroke="midnightblue" points="1678.35,-25.514 1687.81,-20.7438 1677.44,-18.5734 1678.35,-25.514"/>
</g>
<!-- Node21&#45;&gt;Node31 -->
<g id="edge82" class="edge"><title>Node21&#45;&gt;Node31</title>
<path fill="none" stroke="midnightblue" d="M1241.65,-67.9385C1437.11,-63.7011 2143.18,-47.0549 2389.33,-22.0356"/>
<polygon fill="midnightblue" stroke="midnightblue" points="2389.72,-25.5142 2399.3,-20.9904 2388.99,-18.5524 2389.72,-25.5142"/>
</g>
<!-- Node21&#45;&gt;Node32 -->
<g id="edge84" class="edge"><title>Node21&#45;&gt;Node32</title>
<path fill="none" stroke="midnightblue" d="M1140.22,-59.0505C1137.45,-58.6575 1134.69,-58.3028 1132,-58 734.427,-13.2857 628.583,-57.122 226.749,-22.0781"/>
<polygon fill="midnightblue" stroke="midnightblue" points="226.865,-18.5748 216.596,-21.1814 226.249,-25.5476 226.865,-18.5748"/>
</g>
<!-- Node21&#45;&gt;Node33 -->
<g id="edge86" class="edge"><title>Node21&#45;&gt;Node33</title>
<path fill="none" stroke="midnightblue" d="M1140.22,-59.0665C1137.44,-58.6694 1134.69,-58.3094 1132,-58 778.635,-17.379 682.741,-67.7908 326.187,-21.9429"/>
<polygon fill="midnightblue" stroke="midnightblue" points="326.47,-18.4503 316.102,-20.6295 325.566,-25.3917 326.47,-18.4503"/>
</g>
<!-- Node34 -->
<g id="node79" class="node"><title>Node34</title>
<polygon fill="white" stroke="#bfbfbf" points="1809.5,-0.5 1809.5,-21.5 1916.5,-21.5 1916.5,-0.5 1809.5,-0.5"/>
<text text-anchor="middle" x="1863" y="-8.5" font-family="Helvetica,sans-Serif" font-size="10.00">yarp/os/LogStream.h</text>
</g>
<!-- Node21&#45;&gt;Node34 -->
<g id="edge90" class="edge"><title>Node21&#45;&gt;Node34</title>
<path fill="none" stroke="midnightblue" d="M1241.58,-59.8041C1246.11,-59.133 1250.63,-58.5177 1255,-58 1493.2,-29.7551 1557.82,-50.696 1799.15,-22.119"/>
<polygon fill="midnightblue" stroke="midnightblue" points="1799.77,-25.569 1809.29,-20.9019 1798.94,-18.6189 1799.77,-25.569"/>
</g>
<!-- Node35 -->
<g id="node81" class="node"><title>Node35</title>
<polygon fill="white" stroke="#bfbfbf" points="1933.5,-0.5 1933.5,-21.5 2030.5,-21.5 2030.5,-0.5 1933.5,-0.5"/>
<text text-anchor="middle" x="1982" y="-8.5" font-family="Helvetica,sans-Serif" font-size="10.00">yarp/os/Property.h</text>
</g>
<!-- Node21&#45;&gt;Node35 -->
<g id="edge92" class="edge"><title>Node21&#45;&gt;Node35</title>
<path fill="none" stroke="midnightblue" d="M1241.58,-59.7469C1246.11,-59.088 1250.63,-58.4912 1255,-58 1548.01,-25.0607 1627.24,-57.5909 1923.09,-22.0986"/>
<polygon fill="midnightblue" stroke="midnightblue" points="1923.75,-25.5442 1933.25,-20.8627 1922.9,-18.5953 1923.75,-25.5442"/>
</g>
<!-- Node36 -->
<g id="node84" class="node"><title>Node36</title>
<polygon fill="white" stroke="#bfbfbf" points="2047.5,-0.5 2047.5,-21.5 2136.5,-21.5 2136.5,-0.5 2047.5,-0.5"/>
<text text-anchor="middle" x="2092" y="-8.5" font-family="Helvetica,sans-Serif" font-size="10.00">yarp/sig/Matrix.h</text>
</g>
<!-- Node21&#45;&gt;Node36 -->
<g id="edge96" class="edge"><title>Node21&#45;&gt;Node36</title>
<path fill="none" stroke="midnightblue" d="M1241.57,-59.7102C1246.1,-59.0591 1250.63,-58.4742 1255,-58 1598.48,-20.7427 1691.16,-64.7262 2037.21,-22.06"/>
<polygon fill="midnightblue" stroke="midnightblue" points="2037.77,-25.5172 2047.26,-20.8054 2036.91,-18.5711 2037.77,-25.5172"/>
</g>
<!-- Node37 -->
<g id="node88" class="node"><title>Node37</title>
<polygon fill="white" stroke="#bfbfbf" points="867.5,-0.5 867.5,-21.5 988.5,-21.5 988.5,-0.5 867.5,-0.5"/>
<text text-anchor="middle" x="928" y="-8.5" font-family="Helvetica,sans-Serif" font-size="10.00">ocra/util/StringUtilities.h</text>
</g>
<!-- Node21&#45;&gt;Node37 -->
<g id="edge102" class="edge"><title>Node21&#45;&gt;Node37</title>
<path fill="none" stroke="midnightblue" d="M1143.37,-58.4966C1099.01,-48.7136 1032.79,-34.1107 985.506,-23.6819"/>
<polygon fill="midnightblue" stroke="midnightblue" points="986.236,-20.2588 975.717,-21.5231 984.728,-27.0946 986.236,-20.2588"/>
</g>
<!-- Node38 -->
<g id="node91" class="node"><title>Node38</title>
<polygon fill="white" stroke="#bfbfbf" points="1006,-0.5 1006,-21.5 1074,-21.5 1074,-0.5 1006,-0.5"/>
<text text-anchor="middle" x="1040" y="-8.5" font-family="Helvetica,sans-Serif" font-size="10.00">Eigen/Lgsm</text>
</g>
<!-- Node21&#45;&gt;Node38 -->
<g id="edge106" class="edge"><title>Node21&#45;&gt;Node38</title>
<path fill="none" stroke="midnightblue" d="M1163.66,-58.4966C1139.36,-49.1639 1103.64,-35.4447 1076.83,-25.1475"/>
<polygon fill="midnightblue" stroke="midnightblue" points="1077.99,-21.8415 1067.4,-21.5231 1075.48,-28.376 1077.99,-21.8415"/>
</g>
</g>
</svg>
