<?xml version="1.0" encoding="UTF-8" standalone="no"?>
<!DOCTYPE svg PUBLIC "-//W3C//DTD SVG 1.1//EN"
 "http://www.w3.org/Graphics/SVG/1.1/DTD/svg11.dtd">
<!-- Generated by graphviz version 2.26.3 (20100126.1600)
 -->
<!-- Title: G Pages: 1 -->
<svg width="474pt" height="88pt"
 viewBox="0.00 0.00 474.00 88.00" xmlns="http://www.w3.org/2000/svg" xmlns:xlink="http://www.w3.org/1999/xlink">
<g id="graph1" class="graph" transform="scale(1 1) rotate(0) translate(4 84)">
<title>G</title>
<polygon fill="white" stroke="white" points="-4,5 -4,-84 471,-84 471,5 -4,5"/>
<!-- Node1 -->
<g id="node1" class="node"><title>Node1</title>
<polygon fill="#bfbfbf" stroke="black" points="75.5,-58.5 75.5,-79.5 384.5,-79.5 384.5,-58.5 75.5,-58.5"/>
<text text-anchor="middle" x="230" y="-66.5" font-family="Helvetica,sans-Serif" font-size="10.00">ocra&#45;wbi&#45;plugins/ocra&#45;icub&#45;server/include/ocra&#45;icub&#45;server/Module.h</text>
</g>
<!-- Node2 -->
<g id="node3" class="node"><title>Node2</title>
<a xlink:href="ocra-icub-server_2src_2main_8cpp.html" target="_top" xlink:title="ocra&#45;wbi&#45;plugins/ocra&#45;icub&#45;server/src/main.cpp">
<polygon fill="white" stroke="black" points="-0.5,-0.5 -0.5,-21.5 218.5,-21.5 218.5,-0.5 -0.5,-0.5"/>
<text text-anchor="middle" x="109" y="-8.5" font-family="Helvetica,sans-Serif" font-size="10.00">ocra&#45;wbi&#45;plugins/ocra&#45;icub&#45;server/src/main.cpp</text>
</a>
</g>
<!-- Node1&#45;&gt;Node2 -->
<g id="edge2" class="edge"><title>Node1&#45;&gt;Node2</title>
<path fill="none" stroke="midnightblue" d="M198.851,-54.0693C177.661,-43.9121 150.131,-30.7157 131.158,-21.6212"/>
<polygon fill="midnightblue" stroke="midnightblue" points="197.557,-57.3303 208.088,-58.4966 200.583,-51.018 197.557,-57.3303"/>
</g>
<!-- Node3 -->
<g id="node5" class="node"><title>Node3</title>
<a xlink:href="Module_8cpp.html" target="_top" xlink:title="ocra&#45;wbi&#45;plugins/ocra&#45;icub&#45;server/src/Module.cpp">
<polygon fill="white" stroke="black" points="236,-0.5 236,-21.5 466,-21.5 466,-0.5 236,-0.5"/>
<text text-anchor="middle" x="351" y="-8.5" font-family="Helvetica,sans-Serif" font-size="10.00">ocra&#45;wbi&#45;plugins/ocra&#45;icub&#45;server/src/Module.cpp</text>
</a>
</g>
<!-- Node1&#45;&gt;Node3 -->
<g id="edge4" class="edge"><title>Node1&#45;&gt;Node3</title>
<path fill="none" stroke="midnightblue" d="M261.149,-54.0693C282.339,-43.9121 309.869,-30.7157 328.842,-21.6212"/>
<polygon fill="midnightblue" stroke="midnightblue" points="259.417,-51.018 251.912,-58.4966 262.443,-57.3303 259.417,-51.018"/>
</g>
</g>
</svg>
