<?xml version="1.0" encoding="UTF-8" standalone="no"?>
<!DOCTYPE svg PUBLIC "-//W3C//DTD SVG 1.1//EN"
 "http://www.w3.org/Graphics/SVG/1.1/DTD/svg11.dtd">
<!-- Generated by graphviz version 2.26.3 (20100126.1600)
 -->
<!-- Title: G Pages: 1 -->
<svg width="2584pt" height="436pt"
 viewBox="0.00 0.00 2584.00 436.00" xmlns="http://www.w3.org/2000/svg" xmlns:xlink="http://www.w3.org/1999/xlink">
<g id="graph1" class="graph" transform="scale(1 1) rotate(0) translate(4 432)">
<title>G</title>
<polygon fill="white" stroke="white" points="-4,5 -4,-432 2581,-432 2581,5 -4,5"/>
<!-- Node1 -->
<g id="node1" class="node"><title>Node1</title>
<polygon fill="#bfbfbf" stroke="black" points="1046.5,-406.5 1046.5,-427.5 1329.5,-427.5 1329.5,-406.5 1046.5,-406.5"/>
<text text-anchor="middle" x="1188" y="-414.5" font-family="Helvetica,sans-Serif" font-size="10.00">ocra&#45;wbi&#45;plugins/ocra&#45;icub&#45;clients/walking&#45;client/src/main.cpp</text>
</g>
<!-- Node2 -->
<g id="node3" class="node"><title>Node2</title>
<polygon fill="white" stroke="#bfbfbf" points="123.5,-0.5 123.5,-21.5 252.5,-21.5 252.5,-0.5 123.5,-0.5"/>
<text text-anchor="middle" x="188" y="-8.5" font-family="Helvetica,sans-Serif" font-size="10.00">yarp/os/ResourceFinder.h</text>
</g>
<!-- Node1&#45;&gt;Node2 -->
<g id="edge2" class="edge"><title>Node1&#45;&gt;Node2</title>
<path fill="none" stroke="midnightblue" d="M1046.06,-414.799C811.313,-410.377 361.29,-398.302 294,-370 252.249,-352.439 219,-346.294 219,-301 219,-301 219,-301 219,-127 219,-92.292 205.887,-53.6626 196.718,-30.8944"/>
<polygon fill="midnightblue" stroke="midnightblue" points="199.928,-29.4988 192.844,-21.6206 193.469,-32.197 199.928,-29.4988"/>
</g>
<!-- Node3 -->
<g id="node5" class="node"><title>Node3</title>
<polygon fill="white" stroke="#bfbfbf" points="352.5,-174.5 352.5,-195.5 449.5,-195.5 449.5,-174.5 352.5,-174.5"/>
<text text-anchor="middle" x="401" y="-182.5" font-family="Helvetica,sans-Serif" font-size="10.00">yarp/os/Network.h</text>
</g>
<!-- Node1&#45;&gt;Node3 -->
<g id="edge4" class="edge"><title>Node1&#45;&gt;Node3</title>
<path fill="none" stroke="midnightblue" d="M1046.24,-414.44C804.458,-409.372 335.846,-396.213 311,-370 262.943,-319.298 340.853,-238.082 380.301,-202.574"/>
<polygon fill="midnightblue" stroke="midnightblue" points="382.89,-204.958 388.075,-195.718 378.26,-199.707 382.89,-204.958"/>
</g>
<!-- Node4 -->
<g id="node7" class="node"><title>Node4</title>
<polygon fill="white" stroke="#bfbfbf" points="270,-0.5 270,-21.5 346,-21.5 346,-0.5 270,-0.5"/>
<text text-anchor="middle" x="308" y="-8.5" font-family="Helvetica,sans-Serif" font-size="10.00">yarp/os/Log.h</text>
</g>
<!-- Node1&#45;&gt;Node4 -->
<g id="edge6" class="edge"><title>Node1&#45;&gt;Node4</title>
<path fill="none" stroke="midnightblue" d="M1046.46,-412.204C801.629,-402 325,-372.902 325,-301 325,-301 325,-301 325,-127 325,-93.4159 317.938,-54.935 312.917,-31.8211"/>
<polygon fill="midnightblue" stroke="midnightblue" points="316.271,-30.7824 310.656,-21.7976 309.442,-32.3226 316.271,-30.7824"/>
</g>
<!-- Node5 -->
<g id="node9" class="node"><title>Node5</title>
<polygon fill="white" stroke="#bfbfbf" points="-0.5,-0.5 -0.5,-21.5 106.5,-21.5 106.5,-0.5 -0.5,-0.5"/>
<text text-anchor="middle" x="53" y="-8.5" font-family="Helvetica,sans-Serif" font-size="10.00">yarp/os/LogStream.h</text>
</g>
<!-- Node1&#45;&gt;Node5 -->
<g id="edge8" class="edge"><title>Node1&#45;&gt;Node5</title>
<path fill="none" stroke="midnightblue" d="M1046.07,-413.186C800.598,-406.111 315.661,-389.852 240,-370 173.672,-352.597 102,-369.573 102,-301 102,-301 102,-301 102,-127 102,-90.4633 81.1167,-52.1932 66.6167,-30.0246"/>
<polygon fill="midnightblue" stroke="midnightblue" points="69.3845,-27.8702 60.8727,-21.5615 63.5926,-31.8013 69.3845,-27.8702"/>
</g>
<!-- Node6 -->
<g id="node11" class="node"><title>Node6</title>
<polygon fill="white" stroke="#bfbfbf" points="2494,-0.5 2494,-21.5 2576,-21.5 2576,-0.5 2494,-0.5"/>
<text text-anchor="middle" x="2535" y="-8.5" font-family="Helvetica,sans-Serif" font-size="10.00">yarp/os/Time.h</text>
</g>
<!-- Node1&#45;&gt;Node6 -->
<g id="edge10" class="edge"><title>Node1&#45;&gt;Node6</title>
<path fill="none" stroke="midnightblue" d="M1329.7,-410.338C1643.6,-394.641 2370,-352.726 2370,-301 2370,-301 2370,-301 2370,-127 2370,-70.4897 2435.57,-39.1287 2484.04,-23.6663"/>
<polygon fill="midnightblue" stroke="midnightblue" points="2485.24,-26.9586 2493.79,-20.6938 2483.2,-20.263 2485.24,-26.9586"/>
</g>
<!-- Node7 -->
<g id="node13" class="node"><title>Node7</title>
<a xlink:href="IcubClient_8h.html" target="_top" xlink:title="ocra&#45;icub/IcubClient.h">
<polygon fill="white" stroke="black" points="1132,-290.5 1132,-311.5 1244,-311.5 1244,-290.5 1132,-290.5"/>
<text text-anchor="middle" x="1188" y="-298.5" font-family="Helvetica,sans-Serif" font-size="10.00">ocra&#45;icub/IcubClient.h</text>
</a>
</g>
<!-- Node1&#45;&gt;Node7 -->
<g id="edge12" class="edge"><title>Node1&#45;&gt;Node7</title>
<path fill="none" stroke="midnightblue" d="M1188,-406.295C1188,-387.131 1188,-346.654 1188,-321.843"/>
<polygon fill="midnightblue" stroke="midnightblue" points="1191.5,-321.679 1188,-311.679 1184.5,-321.679 1191.5,-321.679"/>
</g>
<!-- Node35 -->
<g id="node92" class="node"><title>Node35</title>
<polygon fill="white" stroke="#bfbfbf" points="1261.5,-290.5 1261.5,-311.5 1410.5,-311.5 1410.5,-290.5 1261.5,-290.5"/>
<text text-anchor="middle" x="1336" y="-298.5" font-family="Helvetica,sans-Serif" font-size="10.00">ocra&#45;recipes/ControllerClient.h</text>
</g>
<!-- Node1&#45;&gt;Node35 -->
<g id="edge114" class="edge"><title>Node1&#45;&gt;Node35</title>
<path fill="none" stroke="midnightblue" d="M1201.66,-406.295C1227.43,-386.096 1283.41,-342.216 1314.36,-317.963"/>
<polygon fill="midnightblue" stroke="midnightblue" points="1316.66,-320.603 1322.37,-311.679 1312.35,-315.093 1316.66,-320.603"/>
</g>
<!-- Node36 -->
<g id="node94" class="node"><title>Node36</title>
<polygon fill="white" stroke="#bfbfbf" points="1530,-348.5 1530,-369.5 1674,-369.5 1674,-348.5 1530,-348.5"/>
<text text-anchor="middle" x="1602" y="-356.5" font-family="Helvetica,sans-Serif" font-size="10.00">ocra&#45;recipes/ClientManager.h</text>
</g>
<!-- Node1&#45;&gt;Node36 -->
<g id="edge116" class="edge"><title>Node1&#45;&gt;Node36</title>
<path fill="none" stroke="midnightblue" d="M1262.97,-406.497C1335.3,-396.364 1444.54,-381.06 1519.35,-370.579"/>
<polygon fill="midnightblue" stroke="midnightblue" points="1520.25,-373.987 1529.67,-369.134 1519.28,-367.055 1520.25,-373.987"/>
</g>
<!-- Node37 -->
<g id="node96" class="node"><title>Node37</title>
<a xlink:href="WalkingClient_8h.html" target="_top" xlink:title="walking&#45;client/WalkingClient.h">
<polygon fill="white" stroke="black" points="1364,-348.5 1364,-369.5 1512,-369.5 1512,-348.5 1364,-348.5"/>
<text text-anchor="middle" x="1438" y="-356.5" font-family="Helvetica,sans-Serif" font-size="10.00">walking&#45;client/WalkingClient.h</text>
</a>
</g>
<!-- Node1&#45;&gt;Node37 -->
<g id="edge118" class="edge"><title>Node1&#45;&gt;Node37</title>
<path fill="none" stroke="midnightblue" d="M1233.27,-406.497C1275.26,-396.755 1337.86,-382.233 1382.77,-371.813"/>
<polygon fill="midnightblue" stroke="midnightblue" points="1383.69,-375.193 1392.64,-369.523 1382.11,-368.374 1383.69,-375.193"/>
</g>
<!-- Node8 -->
<g id="node15" class="node"><title>Node8</title>
<a xlink:href="ModelInitializer_8h.html" target="_top" xlink:title="ocra&#45;icub/ModelInitializer.h">
<polygon fill="white" stroke="black" points="524.5,-232.5 524.5,-253.5 657.5,-253.5 657.5,-232.5 524.5,-232.5"/>
<text text-anchor="middle" x="591" y="-240.5" font-family="Helvetica,sans-Serif" font-size="10.00">ocra&#45;icub/ModelInitializer.h</text>
</a>
</g>
<!-- Node7&#45;&gt;Node8 -->
<g id="edge14" class="edge"><title>Node7&#45;&gt;Node8</title>
<path fill="none" stroke="midnightblue" d="M1131.84,-295.544C1024.41,-285.107 789.701,-262.304 667.85,-250.466"/>
<polygon fill="midnightblue" stroke="midnightblue" points="668.138,-246.978 657.846,-249.494 667.461,-253.945 668.138,-246.978"/>
</g>
<!-- Node9 -->
<g id="node17" class="node"><title>Node9</title>
<a xlink:href="OcraWbiModel_8h.html" target="_top" xlink:title="Implementation of ocra::Model using wholeBodyInterface.">
<polygon fill="white" stroke="black" points="933,-174.5 933,-195.5 1065,-195.5 1065,-174.5 933,-174.5"/>
<text text-anchor="middle" x="999" y="-182.5" font-family="Helvetica,sans-Serif" font-size="10.00">ocra&#45;icub/OcraWbiModel.h</text>
</a>
</g>
<!-- Node7&#45;&gt;Node9 -->
<g id="edge110" class="edge"><title>Node7&#45;&gt;Node9</title>
<path fill="none" stroke="midnightblue" d="M1170.56,-290.295C1137.14,-269.785 1063.94,-224.859 1024.84,-200.857"/>
<polygon fill="midnightblue" stroke="midnightblue" points="1026.48,-197.76 1016.13,-195.512 1022.82,-203.726 1026.48,-197.76"/>
</g>
<!-- Node13 -->
<g id="node26" class="node"><title>Node13</title>
<a xlink:href="OcraWbiConversions_8h.html" target="_top" xlink:title="A utility class full of static conversion functions.">
<polygon fill="white" stroke="black" points="1479.5,-116.5 1479.5,-137.5 1640.5,-137.5 1640.5,-116.5 1479.5,-116.5"/>
<text text-anchor="middle" x="1560" y="-124.5" font-family="Helvetica,sans-Serif" font-size="10.00">ocra&#45;icub/OcraWbiConversions.h</text>
</a>
</g>
<!-- Node7&#45;&gt;Node13 -->
<g id="edge108" class="edge"><title>Node7&#45;&gt;Node13</title>
<path fill="none" stroke="midnightblue" d="M1230.98,-290.434C1258.82,-282.598 1295.29,-270.425 1325,-254 1374.51,-226.628 1374.52,-201.428 1424,-174 1450.25,-159.447 1481.82,-148.202 1507.93,-140.365"/>
<polygon fill="midnightblue" stroke="midnightblue" points="1509.03,-143.69 1517.65,-137.528 1507.07,-136.97 1509.03,-143.69"/>
</g>
<!-- Node19 -->
<g id="node40" class="node"><title>Node19</title>
<a xlink:href="Utilities_8h.html" target="_top" xlink:title="Some useful tools for the ocra&#45;icub lib.">
<polygon fill="white" stroke="black" points="1323.5,-58.5 1323.5,-79.5 1424.5,-79.5 1424.5,-58.5 1323.5,-58.5"/>
<text text-anchor="middle" x="1374" y="-66.5" font-family="Helvetica,sans-Serif" font-size="10.00">ocra&#45;icub/Utilities.h</text>
</a>
</g>
<!-- Node7&#45;&gt;Node19 -->
<g id="edge112" class="edge"><title>Node7&#45;&gt;Node19</title>
<path fill="none" stroke="midnightblue" d="M1196.48,-290.429C1225.59,-254.12 1321.74,-134.19 1359.03,-87.671"/>
<polygon fill="midnightblue" stroke="midnightblue" points="1361.95,-89.625 1365.47,-79.6335 1356.49,-85.2463 1361.95,-89.625"/>
</g>
<!-- Node8&#45;&gt;Node3 -->
<g id="edge102" class="edge"><title>Node8&#45;&gt;Node3</title>
<path fill="none" stroke="midnightblue" d="M556.592,-232.497C525.349,-222.959 479.099,-208.841 445.142,-198.475"/>
<polygon fill="midnightblue" stroke="midnightblue" points="446.058,-195.095 435.472,-195.523 444.015,-201.79 446.058,-195.095"/>
</g>
<!-- Node8&#45;&gt;Node4 -->
<g id="edge106" class="edge"><title>Node8&#45;&gt;Node4</title>
<path fill="none" stroke="midnightblue" d="M578.105,-232.429C533.354,-195.742 384.468,-73.6875 329.035,-28.2443"/>
<polygon fill="midnightblue" stroke="midnightblue" points="330.923,-25.2666 320.971,-21.6335 326.486,-30.6801 330.923,-25.2666"/>
</g>
<!-- Node8&#45;&gt;Node5 -->
<g id="edge104" class="edge"><title>Node8&#45;&gt;Node5</title>
<path fill="none" stroke="midnightblue" d="M571.905,-232.355C546.328,-218.268 499.367,-193.002 458,-174 325.781,-113.265 164.117,-51.9591 91.5196,-25.0915"/>
<polygon fill="midnightblue" stroke="midnightblue" points="92.4725,-21.7125 81.8792,-21.5326 90.0482,-28.2793 92.4725,-21.7125"/>
</g>
<!-- Node8&#45;&gt;Node9 -->
<g id="edge16" class="edge"><title>Node8&#45;&gt;Node9</title>
<path fill="none" stroke="midnightblue" d="M657.916,-233.487C730.612,-223.153 846.535,-206.674 922.712,-195.845"/>
<polygon fill="midnightblue" stroke="midnightblue" points="923.317,-199.294 932.725,-194.422 922.331,-192.364 923.317,-199.294"/>
</g>
<!-- Node11 -->
<g id="node21" class="node"><title>Node11</title>
<polygon fill="white" stroke="#bfbfbf" points="363.5,-0.5 363.5,-21.5 468.5,-21.5 468.5,-0.5 363.5,-0.5"/>
<text text-anchor="middle" x="416" y="-8.5" font-family="Helvetica,sans-Serif" font-size="10.00">ocra/control/Model.h</text>
</g>
<!-- Node8&#45;&gt;Node11 -->
<g id="edge96" class="edge"><title>Node8&#45;&gt;Node11</title>
<path fill="none" stroke="midnightblue" d="M590.411,-232.269C588.146,-201.194 577.488,-110.048 529,-58 514.5,-42.4354 494.059,-31.8564 474.541,-24.7441"/>
<polygon fill="midnightblue" stroke="midnightblue" points="475.658,-21.4272 465.063,-21.5243 473.406,-28.0551 475.658,-21.4272"/>
</g>
<!-- Node18 -->
<g id="node38" class="node"><title>Node18</title>
<polygon fill="white" stroke="#bfbfbf" points="924,-58.5 924,-79.5 1166,-79.5 1166,-58.5 924,-58.5"/>
<text text-anchor="middle" x="1045" y="-66.5" font-family="Helvetica,sans-Serif" font-size="10.00">yarpWholeBodyInterface/yarpWholeBodyInterface.h</text>
</g>
<!-- Node8&#45;&gt;Node18 -->
<g id="edge98" class="edge"><title>Node8&#45;&gt;Node18</title>
<path fill="none" stroke="midnightblue" d="M618.716,-232.377C696.931,-202.401 919.423,-117.129 1007.98,-83.1887"/>
<polygon fill="midnightblue" stroke="midnightblue" points="1009.27,-86.4408 1017.36,-79.5938 1006.77,-79.9045 1009.27,-86.4408"/>
</g>
<!-- Node27 -->
<g id="node60" class="node"><title>Node27</title>
<polygon fill="white" stroke="#bfbfbf" points="486,-0.5 486,-21.5 590,-21.5 590,-0.5 486,-0.5"/>
<text text-anchor="middle" x="538" y="-8.5" font-family="Helvetica,sans-Serif" font-size="10.00">yarp/os/RpcClient.h</text>
</g>
<!-- Node8&#45;&gt;Node27 -->
<g id="edge100" class="edge"><title>Node8&#45;&gt;Node27</title>
<path fill="none" stroke="midnightblue" d="M591.162,-232.206C591.273,-203.145 589.416,-121.183 567,-58 563.506,-48.152 557.731,-38.1708 552.251,-29.9547"/>
<polygon fill="midnightblue" stroke="midnightblue" points="554.941,-27.6957 546.325,-21.5295 549.215,-31.7226 554.941,-27.6957"/>
</g>
<!-- Node9&#45;&gt;Node4 -->
<g id="edge24" class="edge"><title>Node9&#45;&gt;Node4</title>
<path fill="none" stroke="midnightblue" d="M944.075,-174.483C900.222,-165.742 837.338,-152.437 783,-138 668.613,-107.609 643.541,-87.8056 529,-58 455.559,-38.8895 433.803,-38.962 355.977,-22.1625"/>
<polygon fill="midnightblue" stroke="midnightblue" points="356.717,-18.7418 346.201,-20.0278 355.224,-25.5806 356.717,-18.7418"/>
</g>
<!-- Node10 -->
<g id="node19" class="node"><title>Node10</title>
<polygon fill="white" stroke="#bfbfbf" points="608,-0.5 608,-21.5 660,-21.5 660,-0.5 608,-0.5"/>
<text text-anchor="middle" x="634" y="-8.5" font-family="Helvetica,sans-Serif" font-size="10.00">memory</text>
</g>
<!-- Node9&#45;&gt;Node10 -->
<g id="edge18" class="edge"><title>Node9&#45;&gt;Node10</title>
<path fill="none" stroke="midnightblue" d="M976.717,-174.377C914.355,-144.649 737.91,-60.5351 665.552,-26.0412"/>
<polygon fill="midnightblue" stroke="midnightblue" points="666.988,-22.8485 656.455,-21.7046 663.976,-29.1672 666.988,-22.8485"/>
</g>
<!-- Node9&#45;&gt;Node11 -->
<g id="edge20" class="edge"><title>Node9&#45;&gt;Node11</title>
<path fill="none" stroke="midnightblue" d="M965.475,-174.426C935.464,-164.943 890.269,-150.62 851,-138 741.544,-102.823 715.521,-89.6702 605,-58 560.691,-45.3033 509.98,-32.8016 472.249,-23.8874"/>
<polygon fill="midnightblue" stroke="midnightblue" points="472.994,-20.4672 462.458,-21.586 471.392,-27.2814 472.994,-20.4672"/>
</g>
<!-- Node12 -->
<g id="node23" class="node"><title>Node12</title>
<polygon fill="white" stroke="#bfbfbf" points="2086,-0.5 2086,-21.5 2144,-21.5 2144,-0.5 2086,-0.5"/>
<text text-anchor="middle" x="2115" y="-8.5" font-family="Helvetica,sans-Serif" font-size="10.00">wbi/wbi.h</text>
</g>
<!-- Node9&#45;&gt;Node12 -->
<g id="edge22" class="edge"><title>Node9&#45;&gt;Node12</title>
<path fill="none" stroke="midnightblue" d="M1044.78,-174.435C1174.03,-144.634 1534.1,-61.811 1560,-58 1784.65,-24.9483 1848.41,-61.1941 2075.79,-21.8929"/>
<polygon fill="midnightblue" stroke="midnightblue" points="2076.44,-25.3311 2085.69,-20.1522 2075.23,-18.4369 2076.44,-25.3311"/>
</g>
<!-- Node9&#45;&gt;Node13 -->
<g id="edge26" class="edge"><title>Node9&#45;&gt;Node13</title>
<path fill="none" stroke="midnightblue" d="M1065.16,-178.682C1155.69,-169.959 1323.22,-153.538 1466,-138 1467.08,-137.882 1468.17,-137.763 1469.27,-137.643"/>
<polygon fill="midnightblue" stroke="midnightblue" points="1469.7,-141.117 1479.25,-136.535 1468.92,-134.16 1469.7,-141.117"/>
</g>
<!-- Node9&#45;&gt;Node19 -->
<g id="edge94" class="edge"><title>Node9&#45;&gt;Node19</title>
<path fill="none" stroke="midnightblue" d="M1033.27,-174.398C1101.62,-153.255 1254.79,-105.877 1330.26,-82.53"/>
<polygon fill="midnightblue" stroke="midnightblue" points="1331.42,-85.8341 1339.94,-79.5352 1329.35,-79.1467 1331.42,-85.8341"/>
</g>
<!-- Node13&#45;&gt;Node4 -->
<g id="edge36" class="edge"><title>Node13&#45;&gt;Node4</title>
<path fill="none" stroke="midnightblue" d="M1506.37,-116.472C1416.34,-98.9552 1238.44,-65.0457 1175,-58 815.709,-18.0973 718.14,-70.8121 356.076,-21.9074"/>
<polygon fill="midnightblue" stroke="midnightblue" points="356.49,-18.4315 346.108,-20.5445 355.542,-25.367 356.49,-18.4315"/>
</g>
<!-- Node13&#45;&gt;Node12 -->
<g id="edge38" class="edge"><title>Node13&#45;&gt;Node12</title>
<path fill="none" stroke="midnightblue" d="M1559.46,-116.376C1559.32,-100.851 1561.61,-72.2654 1579,-58 1620.05,-24.3215 1988.63,-31.0784 2075.71,-21.5337"/>
<polygon fill="midnightblue" stroke="midnightblue" points="2076.26,-24.9908 2085.69,-20.1443 2075.3,-18.0578 2076.26,-24.9908"/>
</g>
<!-- Node14 -->
<g id="node28" class="node"><title>Node14</title>
<polygon fill="white" stroke="#bfbfbf" points="2162,-0.5 2162,-21.5 2216,-21.5 2216,-0.5 2162,-0.5"/>
<text text-anchor="middle" x="2189" y="-8.5" font-family="Helvetica,sans-Serif" font-size="10.00">iostream</text>
</g>
<!-- Node13&#45;&gt;Node14 -->
<g id="edge28" class="edge"><title>Node13&#45;&gt;Node14</title>
<path fill="none" stroke="midnightblue" d="M1575.37,-116.295C1599.13,-100.389 1646.77,-70.997 1692,-58 1886.34,-2.15975 1949.06,-58.384 2151.57,-21.9034"/>
<polygon fill="midnightblue" stroke="midnightblue" points="2152.44,-25.3018 2161.64,-20.0356 2151.17,-18.4193 2152.44,-25.3018"/>
</g>
<!-- Node15 -->
<g id="node30" class="node"><title>Node15</title>
<polygon fill="white" stroke="#bfbfbf" points="1587.5,-58.5 1587.5,-79.5 1622.5,-79.5 1622.5,-58.5 1587.5,-58.5"/>
<text text-anchor="middle" x="1605" y="-66.5" font-family="Helvetica,sans-Serif" font-size="10.00">map</text>
</g>
<!-- Node13&#45;&gt;Node15 -->
<g id="edge30" class="edge"><title>Node13&#45;&gt;Node15</title>
<path fill="none" stroke="midnightblue" d="M1568.25,-116.362C1574.47,-108.35 1583.15,-97.1605 1590.51,-87.6696"/>
<polygon fill="midnightblue" stroke="midnightblue" points="1593.43,-89.617 1596.8,-79.5707 1587.9,-85.326 1593.43,-89.617"/>
</g>
<!-- Node16 -->
<g id="node32" class="node"><title>Node16</title>
<polygon fill="white" stroke="#bfbfbf" points="2432,-0.5 2432,-21.5 2476,-21.5 2476,-0.5 2432,-0.5"/>
<text text-anchor="middle" x="2454" y="-8.5" font-family="Helvetica,sans-Serif" font-size="10.00">vector</text>
</g>
<!-- Node13&#45;&gt;Node16 -->
<g id="edge32" class="edge"><title>Node13&#45;&gt;Node16</title>
<path fill="none" stroke="midnightblue" d="M1608.21,-116.424C1646.01,-107.746 1699.78,-94.5537 1746,-80 1772.3,-71.7203 1777.04,-63.7558 1804,-58 2070.21,-1.1699 2150.93,-74.7838 2421.73,-21.727"/>
<polygon fill="midnightblue" stroke="midnightblue" points="2422.74,-25.0947 2431.86,-19.7015 2421.37,-18.2307 2422.74,-25.0947"/>
</g>
<!-- Node17 -->
<g id="node34" class="node"><title>Node17</title>
<polygon fill="white" stroke="#bfbfbf" points="2233.5,-0.5 2233.5,-21.5 2324.5,-21.5 2324.5,-0.5 2233.5,-0.5"/>
<text text-anchor="middle" x="2279" y="-8.5" font-family="Helvetica,sans-Serif" font-size="10.00">yarp/sig/Vector.h</text>
</g>
<!-- Node13&#45;&gt;Node17 -->
<g id="edge34" class="edge"><title>Node13&#45;&gt;Node17</title>
<path fill="none" stroke="midnightblue" d="M1586.17,-116.372C1625.98,-100.705 1704.5,-71.7827 1774,-58 1968.06,-19.5135 2024.1,-49.1317 2223.49,-22.0691"/>
<polygon fill="midnightblue" stroke="midnightblue" points="2223.98,-25.5348 2233.4,-20.6933 2223.02,-18.6012 2223.98,-25.5348"/>
</g>
<!-- Node13&#45;&gt;Node18 -->
<g id="edge40" class="edge"><title>Node13&#45;&gt;Node18</title>
<path fill="none" stroke="midnightblue" d="M1479.25,-117.906C1389.98,-107.852 1245.95,-91.6311 1148.47,-80.6533"/>
<polygon fill="midnightblue" stroke="midnightblue" points="1148.63,-77.1492 1138.3,-79.508 1147.85,-84.1052 1148.63,-77.1492"/>
</g>
<!-- Node13&#45;&gt;Node19 -->
<g id="edge42" class="edge"><title>Node13&#45;&gt;Node19</title>
<path fill="none" stroke="midnightblue" d="M1526.32,-116.497C1495.86,-107 1450.84,-92.9619 1417.64,-82.6087"/>
<polygon fill="midnightblue" stroke="midnightblue" points="1418.33,-79.1587 1407.75,-79.5231 1416.25,-85.8414 1418.33,-79.1587"/>
</g>
<!-- Node19&#45;&gt;Node2 -->
<g id="edge62" class="edge"><title>Node19&#45;&gt;Node2</title>
<path fill="none" stroke="midnightblue" d="M1323.3,-65.9754C1283.09,-63.6303 1225.46,-60.3883 1175,-58 772.288,-38.9401 667.459,-59.9906 263.051,-22.1119"/>
<polygon fill="midnightblue" stroke="midnightblue" points="263.118,-18.6027 252.833,-21.1483 262.46,-25.5718 263.118,-18.6027"/>
</g>
<!-- Node19&#45;&gt;Node4 -->
<g id="edge74" class="edge"><title>Node19&#45;&gt;Node4</title>
<path fill="none" stroke="midnightblue" d="M1323.45,-62.616C1308.22,-60.8843 1291.45,-59.1675 1276,-58 870.81,-27.3814 762.684,-76.1287 356.073,-21.9019"/>
<polygon fill="midnightblue" stroke="midnightblue" points="356.484,-18.4257 346.106,-20.5601 355.55,-25.3631 356.484,-18.4257"/>
</g>
<!-- Node19&#45;&gt;Node5 -->
<g id="edge76" class="edge"><title>Node19&#45;&gt;Node5</title>
<path fill="none" stroke="midnightblue" d="M1323.3,-65.8996C1283.1,-63.5128 1225.47,-60.2516 1175,-58 707.42,-37.1393 585.519,-70.8138 116.783,-22.0631"/>
<polygon fill="midnightblue" stroke="midnightblue" points="117.013,-18.5681 106.702,-21.0076 116.284,-25.5301 117.013,-18.5681"/>
</g>
<!-- Node19&#45;&gt;Node6 -->
<g id="edge72" class="edge"><title>Node19&#45;&gt;Node6</title>
<path fill="none" stroke="midnightblue" d="M1424.54,-66.0923C1466.02,-63.7525 1526.31,-60.4604 1579,-58 1978.2,-39.3593 2083.58,-72.9285 2483.79,-21.9437"/>
<polygon fill="midnightblue" stroke="midnightblue" points="2484.43,-25.3905 2493.9,-20.6456 2483.54,-18.4475 2484.43,-25.3905"/>
</g>
<!-- Node19&#45;&gt;Node10 -->
<g id="edge44" class="edge"><title>Node19&#45;&gt;Node10</title>
<path fill="none" stroke="midnightblue" d="M1323.44,-62.8113C1308.21,-61.0856 1291.44,-59.3233 1276,-58 1010.02,-35.2012 936.58,-70.0123 670.165,-21.8174"/>
<polygon fill="midnightblue" stroke="midnightblue" points="670.666,-18.351 660.199,-19.9923 669.405,-25.2365 670.666,-18.351"/>
</g>
<!-- Node19&#45;&gt;Node11 -->
<g id="edge86" class="edge"><title>Node19&#45;&gt;Node11</title>
<path fill="none" stroke="midnightblue" d="M1323.45,-62.6737C1308.22,-60.9438 1291.45,-59.2135 1276,-58 924.908,-30.4174 831.973,-61.0512 478.506,-22.0416"/>
<polygon fill="midnightblue" stroke="midnightblue" points="478.833,-18.5565 468.507,-20.9273 478.058,-25.5134 478.833,-18.5565"/>
</g>
<!-- Node19&#45;&gt;Node12 -->
<g id="edge84" class="edge"><title>Node19&#45;&gt;Node12</title>
<path fill="none" stroke="midnightblue" d="M1424.58,-59.7591C1429.11,-59.0976 1433.63,-58.4969 1438,-58 1717.32,-26.2328 1794.79,-68.83 2075.62,-21.8992"/>
<polygon fill="midnightblue" stroke="midnightblue" points="2076.42,-25.3133 2085.69,-20.1916 2075.25,-18.4117 2076.42,-25.3133"/>
</g>
<!-- Node19&#45;&gt;Node14 -->
<g id="edge48" class="edge"><title>Node19&#45;&gt;Node14</title>
<path fill="none" stroke="midnightblue" d="M1424.79,-66.2667C1583.73,-57.6712 2065.75,-31.2775 2151.53,-21.485"/>
<polygon fill="midnightblue" stroke="midnightblue" points="2152.22,-24.9227 2161.65,-20.087 2151.26,-17.9886 2152.22,-24.9227"/>
</g>
<!-- Node19&#45;&gt;Node16 -->
<g id="edge52" class="edge"><title>Node19&#45;&gt;Node16</title>
<path fill="none" stroke="midnightblue" d="M1424.54,-66.1333C1466.03,-63.8173 1526.31,-60.5372 1579,-58 1763.4,-49.1204 2223.12,-57.4984 2422.02,-21.6006"/>
<polygon fill="midnightblue" stroke="midnightblue" points="2422.69,-25.0361 2431.87,-19.7444 2421.4,-18.1573 2422.69,-25.0361"/>
</g>
<!-- Node19&#45;&gt;Node17 -->
<g id="edge80" class="edge"><title>Node19&#45;&gt;Node17</title>
<path fill="none" stroke="midnightblue" d="M1424.65,-66.2519C1594.97,-57.0051 2140.6,-27.333 2223.29,-21.5892"/>
<polygon fill="midnightblue" stroke="midnightblue" points="2223.73,-25.0658 2233.41,-20.7727 2223.16,-18.0884 2223.73,-25.0658"/>
</g>
<!-- Node20 -->
<g id="node43" class="node"><title>Node20</title>
<polygon fill="white" stroke="#bfbfbf" points="1660,-0.5 1660,-21.5 1704,-21.5 1704,-0.5 1660,-0.5"/>
<text text-anchor="middle" x="1682" y="-8.5" font-family="Helvetica,sans-Serif" font-size="10.00">cmath</text>
</g>
<!-- Node19&#45;&gt;Node20 -->
<g id="edge46" class="edge"><title>Node19&#45;&gt;Node20</title>
<path fill="none" stroke="midnightblue" d="M1424.65,-60.2806C1429.17,-59.5077 1433.67,-58.7388 1438,-58 1529.5,-42.404 1556.31,-45.8826 1649.91,-21.9634"/>
<polygon fill="midnightblue" stroke="midnightblue" points="1650.99,-25.2982 1659.79,-19.4002 1649.23,-18.5223 1650.99,-25.2982"/>
</g>
<!-- Node21 -->
<g id="node46" class="node"><title>Node21</title>
<polygon fill="white" stroke="#bfbfbf" points="1721.5,-0.5 1721.5,-21.5 1762.5,-21.5 1762.5,-0.5 1721.5,-0.5"/>
<text text-anchor="middle" x="1742" y="-8.5" font-family="Helvetica,sans-Serif" font-size="10.00">string</text>
</g>
<!-- Node19&#45;&gt;Node21 -->
<g id="edge50" class="edge"><title>Node19&#45;&gt;Node21</title>
<path fill="none" stroke="midnightblue" d="M1424.63,-60.1062C1429.14,-59.3706 1433.65,-58.6579 1438,-58 1556.66,-40.0426 1591.62,-51.423 1711.36,-22.0033"/>
<polygon fill="midnightblue" stroke="midnightblue" points="1712.43,-25.3445 1721.28,-19.5219 1710.73,-18.5538 1712.43,-25.3445"/>
</g>
<!-- Node22 -->
<g id="node49" class="node"><title>Node22</title>
<polygon fill="white" stroke="#bfbfbf" points="1780,-0.5 1780,-21.5 1832,-21.5 1832,-0.5 1780,-0.5"/>
<text text-anchor="middle" x="1806" y="-8.5" font-family="Helvetica,sans-Serif" font-size="10.00">sstream</text>
</g>
<!-- Node19&#45;&gt;Node22 -->
<g id="edge54" class="edge"><title>Node19&#45;&gt;Node22</title>
<path fill="none" stroke="midnightblue" d="M1424.61,-60.0008C1429.13,-59.2877 1433.65,-58.609 1438,-58 1582.26,-37.8249 1623.53,-51.8323 1769.97,-21.8885"/>
<polygon fill="midnightblue" stroke="midnightblue" points="1770.7,-25.3133 1779.77,-19.8517 1769.27,-18.4597 1770.7,-25.3133"/>
</g>
<!-- Node23 -->
<g id="node51" class="node"><title>Node23</title>
<polygon fill="white" stroke="#bfbfbf" points="1849.5,-0.5 1849.5,-21.5 1964.5,-21.5 1964.5,-0.5 1849.5,-0.5"/>
<text text-anchor="middle" x="1907" y="-8.5" font-family="Helvetica,sans-Serif" font-size="10.00">yarp/os/BufferedPort.h</text>
</g>
<!-- Node19&#45;&gt;Node23 -->
<g id="edge56" class="edge"><title>Node19&#45;&gt;Node23</title>
<path fill="none" stroke="midnightblue" d="M1424.6,-59.9135C1429.12,-59.219 1433.64,-58.5685 1438,-58 1613.09,-35.1706 1660.91,-44.4458 1839.46,-22.1219"/>
<polygon fill="midnightblue" stroke="midnightblue" points="1839.96,-25.5856 1849.45,-20.8572 1839.08,-18.641 1839.96,-25.5856"/>
</g>
<!-- Node24 -->
<g id="node53" class="node"><title>Node24</title>
<polygon fill="white" stroke="#bfbfbf" points="1982,-0.5 1982,-21.5 2068,-21.5 2068,-0.5 1982,-0.5"/>
<text text-anchor="middle" x="2025" y="-8.5" font-family="Helvetica,sans-Serif" font-size="10.00">yarp/os/Bottle.h</text>
</g>
<!-- Node19&#45;&gt;Node24 -->
<g id="edge58" class="edge"><title>Node19&#45;&gt;Node24</title>
<path fill="none" stroke="midnightblue" d="M1424.59,-59.8105C1429.11,-59.138 1433.63,-58.5207 1438,-58 1671.4,-30.1641 1735.21,-54.0697 1972,-21.9632"/>
<polygon fill="midnightblue" stroke="midnightblue" points="1972.52,-25.4251 1981.95,-20.5955 1971.57,-18.4903 1972.52,-25.4251"/>
</g>
<!-- Node25 -->
<g id="node55" class="node"><title>Node25</title>
<polygon fill="white" stroke="#bfbfbf" points="677.5,-0.5 677.5,-21.5 788.5,-21.5 788.5,-0.5 677.5,-0.5"/>
<text text-anchor="middle" x="733" y="-8.5" font-family="Helvetica,sans-Serif" font-size="10.00">yarp/os/RateThread.h</text>
</g>
<!-- Node19&#45;&gt;Node25 -->
<g id="edge60" class="edge"><title>Node19&#45;&gt;Node25</title>
<path fill="none" stroke="midnightblue" d="M1323.43,-62.9639C1308.19,-61.2431 1291.43,-59.445 1276,-58 1066.76,-38.401 1010.63,-47.8053 798.998,-22.1606"/>
<polygon fill="midnightblue" stroke="midnightblue" points="799.153,-18.6535 788.801,-20.9127 798.302,-25.6017 799.153,-18.6535"/>
</g>
<!-- Node26 -->
<g id="node58" class="node"><title>Node26</title>
<polygon fill="white" stroke="#bfbfbf" points="806,-0.5 806,-21.5 916,-21.5 916,-0.5 806,-0.5"/>
<text text-anchor="middle" x="861" y="-8.5" font-family="Helvetica,sans-Serif" font-size="10.00">yarp/os/PortReader.h</text>
</g>
<!-- Node19&#45;&gt;Node26 -->
<g id="edge64" class="edge"><title>Node19&#45;&gt;Node26</title>
<path fill="none" stroke="midnightblue" d="M1323.4,-63.2267C1308.17,-61.5141 1291.41,-59.6546 1276,-58 1123.28,-41.5971 1082.04,-43.2183 926.071,-22.077"/>
<polygon fill="midnightblue" stroke="midnightblue" points="926.503,-18.6036 916.121,-20.7188 925.556,-25.5393 926.503,-18.6036"/>
</g>
<!-- Node19&#45;&gt;Node27 -->
<g id="edge66" class="edge"><title>Node19&#45;&gt;Node27</title>
<path fill="none" stroke="midnightblue" d="M1323.44,-62.7521C1308.21,-61.0246 1291.44,-59.2761 1276,-58 979.082,-33.4631 900.064,-56.2803 600.474,-22.0419"/>
<polygon fill="midnightblue" stroke="midnightblue" points="600.515,-18.5235 590.179,-20.8531 599.712,-25.4773 600.515,-18.5235"/>
</g>
<!-- Node28 -->
<g id="node62" class="node"><title>Node28</title>
<polygon fill="white" stroke="#bfbfbf" points="933.5,-0.5 933.5,-21.5 1040.5,-21.5 1040.5,-0.5 933.5,-0.5"/>
<text text-anchor="middle" x="987" y="-8.5" font-family="Helvetica,sans-Serif" font-size="10.00">yarp/os/RpcServer.h</text>
</g>
<!-- Node19&#45;&gt;Node28 -->
<g id="edge68" class="edge"><title>Node19&#45;&gt;Node28</title>
<path fill="none" stroke="midnightblue" d="M1323.26,-62.1736C1261.31,-53.7251 1153.07,-38.5991 1050.93,-22.2789"/>
<polygon fill="midnightblue" stroke="midnightblue" points="1051.18,-18.7738 1040.75,-20.6448 1050.07,-25.6854 1051.18,-18.7738"/>
</g>
<!-- Node29 -->
<g id="node64" class="node"><title>Node29</title>
<polygon fill="white" stroke="#bfbfbf" points="1057.5,-0.5 1057.5,-21.5 1198.5,-21.5 1198.5,-0.5 1057.5,-0.5"/>
<text text-anchor="middle" x="1128" y="-8.5" font-family="Helvetica,sans-Serif" font-size="10.00">yarp/os/ConnectionReader.h</text>
</g>
<!-- Node19&#45;&gt;Node29 -->
<g id="edge70" class="edge"><title>Node19&#45;&gt;Node29</title>
<path fill="none" stroke="midnightblue" d="M1329.45,-58.4966C1288.22,-48.775 1226.8,-34.2938 1182.62,-23.8787"/>
<polygon fill="midnightblue" stroke="midnightblue" points="1183.17,-20.4113 1172.63,-21.5231 1181.56,-27.2245 1183.17,-20.4113"/>
</g>
<!-- Node30 -->
<g id="node69" class="node"><title>Node30</title>
<polygon fill="white" stroke="#bfbfbf" points="1215.5,-0.5 1215.5,-21.5 1312.5,-21.5 1312.5,-0.5 1215.5,-0.5"/>
<text text-anchor="middle" x="1264" y="-8.5" font-family="Helvetica,sans-Serif" font-size="10.00">yarp/os/Property.h</text>
</g>
<!-- Node19&#45;&gt;Node30 -->
<g id="edge78" class="edge"><title>Node19&#45;&gt;Node30</title>
<path fill="none" stroke="midnightblue" d="M1354.08,-58.4966C1337.05,-49.5194 1312.33,-36.4835 1293.09,-26.3387"/>
<polygon fill="midnightblue" stroke="midnightblue" points="1294.62,-23.1894 1284.14,-21.6212 1291.36,-29.3814 1294.62,-23.1894"/>
</g>
<!-- Node31 -->
<g id="node72" class="node"><title>Node31</title>
<polygon fill="white" stroke="#bfbfbf" points="1329.5,-0.5 1329.5,-21.5 1418.5,-21.5 1418.5,-0.5 1329.5,-0.5"/>
<text text-anchor="middle" x="1374" y="-8.5" font-family="Helvetica,sans-Serif" font-size="10.00">yarp/sig/Matrix.h</text>
</g>
<!-- Node19&#45;&gt;Node31 -->
<g id="edge82" class="edge"><title>Node19&#45;&gt;Node31</title>
<path fill="none" stroke="midnightblue" d="M1374,-58.3619C1374,-50.9219 1374,-40.7427 1374,-31.7276"/>
<polygon fill="midnightblue" stroke="midnightblue" points="1377.5,-31.5706 1374,-21.5707 1370.5,-31.5707 1377.5,-31.5706"/>
</g>
<!-- Node32 -->
<g id="node76" class="node"><title>Node32</title>
<polygon fill="white" stroke="#bfbfbf" points="1435.5,-0.5 1435.5,-21.5 1556.5,-21.5 1556.5,-0.5 1435.5,-0.5"/>
<text text-anchor="middle" x="1496" y="-8.5" font-family="Helvetica,sans-Serif" font-size="10.00">ocra/util/StringUtilities.h</text>
</g>
<!-- Node19&#45;&gt;Node32 -->
<g id="edge88" class="edge"><title>Node19&#45;&gt;Node32</title>
<path fill="none" stroke="midnightblue" d="M1396.09,-58.4966C1415.23,-49.397 1443.15,-36.1273 1464.61,-25.9253"/>
<polygon fill="midnightblue" stroke="midnightblue" points="1466.13,-29.0758 1473.66,-21.6212 1463.12,-22.7539 1466.13,-29.0758"/>
</g>
<!-- Node33 -->
<g id="node78" class="node"><title>Node33</title>
<polygon fill="white" stroke="#bfbfbf" points="2341.5,-0.5 2341.5,-21.5 2414.5,-21.5 2414.5,-0.5 2341.5,-0.5"/>
<text text-anchor="middle" x="2378" y="-8.5" font-family="Helvetica,sans-Serif" font-size="10.00">Eigen/Dense</text>
</g>
<!-- Node19&#45;&gt;Node33 -->
<g id="edge90" class="edge"><title>Node19&#45;&gt;Node33</title>
<path fill="none" stroke="midnightblue" d="M1424.54,-66.2047C1466.03,-63.9302 1526.32,-60.671 1579,-58 1910.79,-41.1777 1999.25,-69.4904 2331.38,-22.0127"/>
<polygon fill="midnightblue" stroke="midnightblue" points="2331.88,-25.477 2341.28,-20.5858 2330.88,-18.5486 2331.88,-25.477"/>
</g>
<!-- Node34 -->
<g id="node80" class="node"><title>Node34</title>
<polygon fill="white" stroke="#bfbfbf" points="1574,-0.5 1574,-21.5 1642,-21.5 1642,-0.5 1574,-0.5"/>
<text text-anchor="middle" x="1608" y="-8.5" font-family="Helvetica,sans-Serif" font-size="10.00">Eigen/Lgsm</text>
</g>
<!-- Node19&#45;&gt;Node34 -->
<g id="edge92" class="edge"><title>Node19&#45;&gt;Node34</title>
<path fill="none" stroke="midnightblue" d="M1417.27,-58.473C1453.88,-49.5379 1508,-36.2667 1564,-22.2364"/>
<polygon fill="midnightblue" stroke="midnightblue" points="1564.89,-25.6223 1573.74,-19.7944 1563.19,-18.8327 1564.89,-25.6223"/>
</g>
<!-- Node37&#45;&gt;Node6 -->
<g id="edge140" class="edge"><title>Node37&#45;&gt;Node6</title>
<path fill="none" stroke="midnightblue" d="M1510.78,-348.46C1585,-337.55 1695.04,-320.883 1737,-312 1853.12,-287.417 1995,-361.697 1995,-243 1995,-243 1995,-243 1995,-127 1995,-18.5754 2356.34,-44.1471 2483.96,-21.9906"/>
<polygon fill="midnightblue" stroke="midnightblue" points="2484.65,-25.4218 2493.8,-20.082 2483.32,-18.5498 2484.65,-25.4218"/>
</g>
<!-- Node37&#45;&gt;Node7 -->
<g id="edge120" class="edge"><title>Node37&#45;&gt;Node7</title>
<path fill="none" stroke="midnightblue" d="M1392.73,-348.497C1350.74,-338.755 1288.14,-324.233 1243.23,-313.813"/>
<polygon fill="midnightblue" stroke="midnightblue" points="1243.89,-310.374 1233.36,-311.523 1242.31,-317.193 1243.89,-310.374"/>
</g>
<!-- Node37&#45;&gt;Node35 -->
<g id="edge124" class="edge"><title>Node37&#45;&gt;Node35</title>
<path fill="none" stroke="midnightblue" d="M1419.29,-348.362C1403.62,-339.45 1381.04,-326.609 1363.34,-316.545"/>
<polygon fill="midnightblue" stroke="midnightblue" points="1365.01,-313.471 1354.59,-311.571 1361.55,-319.556 1365.01,-313.471"/>
</g>
<!-- Node38 -->
<g id="node99" class="node"><title>Node38</title>
<polygon fill="white" stroke="#bfbfbf" points="2022.5,-290.5 2022.5,-311.5 2177.5,-311.5 2177.5,-290.5 2022.5,-290.5"/>
<text text-anchor="middle" x="2100" y="-298.5" font-family="Helvetica,sans-Serif" font-size="10.00">ocra&#45;recipes/TrajectoryThread.h</text>
</g>
<!-- Node37&#45;&gt;Node38 -->
<g id="edge122" class="edge"><title>Node37&#45;&gt;Node38</title>
<path fill="none" stroke="midnightblue" d="M1512.19,-348.951C1515.16,-348.617 1518.11,-348.298 1521,-348 1737.33,-325.704 1792.54,-333.055 2009,-312 2009.94,-311.909 2010.88,-311.816 2011.82,-311.722"/>
<polygon fill="midnightblue" stroke="midnightblue" points="2012.5,-315.171 2022.09,-310.66 2011.78,-308.208 2012.5,-315.171"/>
</g>
<!-- Node39 -->
<g id="node102" class="node"><title>Node39</title>
<polygon fill="white" stroke="#bfbfbf" points="1466,-290.5 1466,-311.5 1586,-311.5 1586,-290.5 1466,-290.5"/>
<text text-anchor="middle" x="1526" y="-298.5" font-family="Helvetica,sans-Serif" font-size="10.00">ocra/util/EigenUtilities.h</text>
</g>
<!-- Node37&#45;&gt;Node39 -->
<g id="edge126" class="edge"><title>Node37&#45;&gt;Node39</title>
<path fill="none" stroke="midnightblue" d="M1454.14,-348.362C1467.41,-339.614 1486.43,-327.079 1501.57,-317.101"/>
<polygon fill="midnightblue" stroke="midnightblue" points="1503.54,-319.996 1509.96,-311.571 1499.69,-314.151 1503.54,-319.996"/>
</g>
<!-- Node40 -->
<g id="node104" class="node"><title>Node40</title>
<a xlink:href="ZmpPreviewController_8h.html" target="_top" xlink:title="walking&#45;client/ZmpPreviewController.h">
<polygon fill="white" stroke="black" points="1658,-116.5 1658,-137.5 1842,-137.5 1842,-116.5 1658,-116.5"/>
<text text-anchor="middle" x="1750" y="-124.5" font-family="Helvetica,sans-Serif" font-size="10.00">walking&#45;client/ZmpPreviewController.h</text>
</a>
</g>
<!-- Node37&#45;&gt;Node40 -->
<g id="edge128" class="edge"><title>Node37&#45;&gt;Node40</title>
<path fill="none" stroke="midnightblue" d="M1438.45,-348.034C1439.58,-333.361 1443.49,-307.196 1457,-290 1520.88,-208.692 1637.18,-161.741 1702.4,-140.615"/>
<polygon fill="midnightblue" stroke="midnightblue" points="1703.55,-143.922 1712.02,-137.564 1701.43,-137.249 1703.55,-143.922"/>
</g>
<!-- Node42 -->
<g id="node111" class="node"><title>Node42</title>
<polygon fill="white" stroke="#bfbfbf" points="1603.5,-290.5 1603.5,-311.5 1728.5,-311.5 1728.5,-290.5 1603.5,-290.5"/>
<text text-anchor="middle" x="1666" y="-298.5" font-family="Helvetica,sans-Serif" font-size="10.00">ocra/util/FileOperations.h</text>
</g>
<!-- Node37&#45;&gt;Node42 -->
<g id="edge138" class="edge"><title>Node37&#45;&gt;Node42</title>
<path fill="none" stroke="midnightblue" d="M1479.29,-348.497C1517.34,-338.816 1573.95,-324.416 1614.86,-314.01"/>
<polygon fill="midnightblue" stroke="midnightblue" points="1615.81,-317.38 1624.63,-311.523 1614.08,-310.597 1615.81,-317.38"/>
</g>
<!-- Node40&#45;&gt;Node16 -->
<g id="edge136" class="edge"><title>Node40&#45;&gt;Node16</title>
<path fill="none" stroke="midnightblue" d="M1806.13,-116.47C1844.04,-108.513 1894.85,-96.1912 1938,-80 1958.1,-72.4589 1960.35,-63.8725 1981,-58 2167.43,-4.97869 2228.26,-61.3679 2421.93,-21.728"/>
<polygon fill="midnightblue" stroke="midnightblue" points="2422.79,-25.1238 2431.85,-19.6373 2421.34,-18.2742 2422.79,-25.1238"/>
</g>
<!-- Node40&#45;&gt;Node19 -->
<g id="edge130" class="edge"><title>Node40&#45;&gt;Node19</title>
<path fill="none" stroke="midnightblue" d="M1681.91,-116.497C1611.46,-105.629 1502.44,-88.8133 1434.8,-78.3793"/>
<polygon fill="midnightblue" stroke="midnightblue" points="1435.14,-74.89 1424.72,-76.8245 1434.07,-81.8082 1435.14,-74.89"/>
</g>
<!-- Node40&#45;&gt;Node33 -->
<g id="edge134" class="edge"><title>Node40&#45;&gt;Node33</title>
<path fill="none" stroke="midnightblue" d="M1754.8,-116.287C1762.56,-100.37 1779.54,-70.9645 1804,-58 1905.36,-4.27799 2200.44,-38.1566 2331.03,-21.9534"/>
<polygon fill="midnightblue" stroke="midnightblue" points="2331.85,-25.373 2341.27,-20.5241 2330.88,-18.4402 2331.85,-25.373"/>
</g>
<!-- Node41 -->
<g id="node107" class="node"><title>Node41</title>
<polygon fill="white" stroke="#bfbfbf" points="1812.5,-58.5 1812.5,-79.5 1929.5,-79.5 1929.5,-58.5 1812.5,-58.5"/>
<text text-anchor="middle" x="1871" y="-66.5" font-family="Helvetica,sans-Serif" font-size="10.00">ocra/util/ErrorsHelper.h</text>
</g>
<!-- Node40&#45;&gt;Node41 -->
<g id="edge132" class="edge"><title>Node40&#45;&gt;Node41</title>
<path fill="none" stroke="midnightblue" d="M1771.91,-116.497C1790.81,-107.438 1818.33,-94.2462 1839.58,-84.0628"/>
<polygon fill="midnightblue" stroke="midnightblue" points="1841.34,-87.0999 1848.84,-79.6212 1838.31,-80.7876 1841.34,-87.0999"/>
</g>
</g>
</svg>
