<?xml version="1.0" encoding="UTF-8" standalone="no"?>
<!DOCTYPE svg PUBLIC "-//W3C//DTD SVG 1.1//EN"
 "http://www.w3.org/Graphics/SVG/1.1/DTD/svg11.dtd">
<!-- Generated by graphviz version 2.26.3 (20100126.1600)
 -->
<!-- Title: G Pages: 1 -->
<svg width="5316pt" height="378pt"
 viewBox="0.00 0.00 5316.00 378.00" xmlns="http://www.w3.org/2000/svg" xmlns:xlink="http://www.w3.org/1999/xlink">
<g id="graph1" class="graph" transform="scale(1 1) rotate(0) translate(4 374)">
<title>G</title>
<polygon fill="white" stroke="white" points="-4,5 -4,-374 5313,-374 5313,5 -4,5"/>
<!-- Node1 -->
<g id="node1" class="node"><title>Node1</title>
<polygon fill="#bfbfbf" stroke="black" points="1614,-348.5 1614,-369.5 1896,-369.5 1896,-348.5 1614,-348.5"/>
<text text-anchor="middle" x="1755" y="-356.5" font-family="Helvetica,sans-Serif" font-size="10.00">ocra&#45;wbi&#45;plugins/ocra&#45;icub/include/ocra&#45;icub/OcraWbiModel.h</text>
</g>
<!-- Node2 -->
<g id="node3" class="node"><title>Node2</title>
<a xlink:href="IcubControllerServer_8h.html" target="_top" xlink:title="ocra&#45;wbi&#45;plugins/ocra&#45;icub&#45;server/include/ocra&#45;icub&#45;server/IcubControllerServer.h">
<polygon fill="white" stroke="black" points="415.5,-290.5 415.5,-311.5 782.5,-311.5 782.5,-290.5 415.5,-290.5"/>
<text text-anchor="middle" x="599" y="-298.5" font-family="Helvetica,sans-Serif" font-size="10.00">ocra&#45;wbi&#45;plugins/ocra&#45;icub&#45;server/include/ocra&#45;icub&#45;server/IcubControllerServer.h</text>
</a>
</g>
<!-- Node1&#45;&gt;Node2 -->
<g id="edge2" class="edge"><title>Node1&#45;&gt;Node2</title>
<path fill="none" stroke="midnightblue" d="M1603.61,-351.899C1414.6,-342.961 1081.37,-326.96 796,-312 791.553,-311.767 787.05,-311.529 782.507,-311.288"/>
<polygon fill="midnightblue" stroke="midnightblue" points="1603.46,-355.396 1613.62,-352.372 1603.79,-348.404 1603.46,-355.396"/>
</g>
<!-- Node9 -->
<g id="node17" class="node"><title>Node9</title>
<a xlink:href="MIQPController_8h.html" target="_top" xlink:title="A thread for launching trajectory generators.">
<polygon fill="white" stroke="black" points="649,-116.5 649,-137.5 1047,-137.5 1047,-116.5 649,-116.5"/>
<text text-anchor="middle" x="848" y="-124.5" font-family="Helvetica,sans-Serif" font-size="10.00">ocra&#45;wbi&#45;plugins/ocra&#45;icub&#45;clients/walking&#45;client/include/walking&#45;client/MIQPController.h</text>
</a>
</g>
<!-- Node1&#45;&gt;Node9 -->
<g id="edge16" class="edge"><title>Node1&#45;&gt;Node9</title>
<path fill="none" stroke="midnightblue" d="M1603.74,-349.585C1399.88,-335.217 1048.88,-304.085 931,-254 889.915,-236.544 869.805,-235.495 849,-196 839.173,-177.345 842.385,-151.727 845.353,-137.538"/>
<polygon fill="midnightblue" stroke="midnightblue" points="1603.72,-353.092 1613.94,-350.298 1604.21,-346.109 1603.72,-353.092"/>
</g>
<!-- Node14 -->
<g id="node27" class="node"><title>Node14</title>
<a xlink:href="MIQPState_8h.html" target="_top" xlink:title="ocra&#45;wbi&#45;plugins/ocra&#45;icub&#45;clients/walking&#45;client/include/walking&#45;client/MIQPState.h">
<polygon fill="white" stroke="black" points="1245,-290.5 1245,-311.5 1625,-311.5 1625,-290.5 1245,-290.5"/>
<text text-anchor="middle" x="1435" y="-298.5" font-family="Helvetica,sans-Serif" font-size="10.00">ocra&#45;wbi&#45;plugins/ocra&#45;icub&#45;clients/walking&#45;client/include/walking&#45;client/MIQPState.h</text>
</a>
</g>
<!-- Node1&#45;&gt;Node14 -->
<g id="edge26" class="edge"><title>Node1&#45;&gt;Node14</title>
<path fill="none" stroke="midnightblue" d="M1686.94,-346.665C1629.33,-336.222 1547.63,-321.415 1493.06,-311.523"/>
<polygon fill="midnightblue" stroke="midnightblue" points="1686.59,-350.157 1697.05,-348.497 1687.83,-343.269 1686.59,-350.157"/>
</g>
<!-- Node20 -->
<g id="node41" class="node"><title>Node20</title>
<a xlink:href="IcubClient_8h.html" target="_top" xlink:title="ocra&#45;wbi&#45;plugins/ocra&#45;icub/include/ocra&#45;icub/IcubClient.h">
<polygon fill="white" stroke="black" points="2430,-232.5 2430,-253.5 2692,-253.5 2692,-232.5 2430,-232.5"/>
<text text-anchor="middle" x="2561" y="-240.5" font-family="Helvetica,sans-Serif" font-size="10.00">ocra&#45;wbi&#45;plugins/ocra&#45;icub/include/ocra&#45;icub/IcubClient.h</text>
</a>
</g>
<!-- Node1&#45;&gt;Node20 -->
<g id="edge42" class="edge"><title>Node1&#45;&gt;Node20</title>
<path fill="none" stroke="midnightblue" d="M1838.46,-346.988C1996.77,-324.204 2338.19,-275.067 2488.01,-253.505"/>
<polygon fill="midnightblue" stroke="midnightblue" points="1837.71,-343.561 1828.31,-348.45 1838.7,-350.489 1837.71,-343.561"/>
</g>
<!-- Node36 -->
<g id="node80" class="node"><title>Node36</title>
<a xlink:href="ModelInitializer_8h.html" target="_top" xlink:title="ocra&#45;wbi&#45;plugins/ocra&#45;icub/include/ocra&#45;icub/ModelInitializer.h">
<polygon fill="white" stroke="black" points="2313.5,-290.5 2313.5,-311.5 2596.5,-311.5 2596.5,-290.5 2313.5,-290.5"/>
<text text-anchor="middle" x="2455" y="-298.5" font-family="Helvetica,sans-Serif" font-size="10.00">ocra&#45;wbi&#45;plugins/ocra&#45;icub/include/ocra&#45;icub/ModelInitializer.h</text>
</a>
</g>
<!-- Node1&#45;&gt;Node36 -->
<g id="edge88" class="edge"><title>Node1&#45;&gt;Node36</title>
<path fill="none" stroke="midnightblue" d="M1891.91,-347.656C2018.38,-337.177 2204.78,-321.732 2328,-311.523"/>
<polygon fill="midnightblue" stroke="midnightblue" points="1891.44,-344.183 1881.76,-348.497 1892.02,-351.159 1891.44,-344.183"/>
</g>
<!-- Node38 -->
<g id="node85" class="node"><title>Node38</title>
<a xlink:href="OcraWbiModel_8cpp.html" target="_top" xlink:title="Implementation of ocra::Model using wholeBodyInterface.">
<polygon fill="white" stroke="black" points="2613.5,-290.5 2613.5,-311.5 2846.5,-311.5 2846.5,-290.5 2613.5,-290.5"/>
<text text-anchor="middle" x="2730" y="-298.5" font-family="Helvetica,sans-Serif" font-size="10.00">ocra&#45;wbi&#45;plugins/ocra&#45;icub/src/OcraWbiModel.cpp</text>
</a>
</g>
<!-- Node1&#45;&gt;Node38 -->
<g id="edge94" class="edge"><title>Node1&#45;&gt;Node38</title>
<path fill="none" stroke="midnightblue" d="M1906.11,-352.131C2076.15,-344.055 2360.55,-329.509 2605,-312 2607.72,-311.805 2610.47,-311.604 2613.24,-311.396"/>
<polygon fill="midnightblue" stroke="midnightblue" points="1905.91,-348.636 1896.09,-352.606 1906.24,-355.628 1905.91,-348.636"/>
</g>
<!-- Node3 -->
<g id="node5" class="node"><title>Node3</title>
<a xlink:href="Thread_8h.html" target="_top" xlink:title="The thread class for the controller server.">
<polygon fill="white" stroke="black" points="150,-232.5 150,-253.5 458,-253.5 458,-232.5 150,-232.5"/>
<text text-anchor="middle" x="304" y="-240.5" font-family="Helvetica,sans-Serif" font-size="10.00">ocra&#45;wbi&#45;plugins/ocra&#45;icub&#45;server/include/ocra&#45;icub&#45;server/Thread.h</text>
</a>
</g>
<!-- Node2&#45;&gt;Node3 -->
<g id="edge4" class="edge"><title>Node2&#45;&gt;Node3</title>
<path fill="none" stroke="midnightblue" d="M535.6,-288.535C482.523,-278.099 407.626,-263.374 357.522,-253.523"/>
<polygon fill="midnightblue" stroke="midnightblue" points="535.09,-292.002 545.578,-290.497 536.441,-285.133 535.09,-292.002"/>
</g>
<!-- Node8 -->
<g id="node15" class="node"><title>Node8</title>
<a xlink:href="IcubControllerServer_8cpp.html" target="_top" xlink:title="ocra&#45;wbi&#45;plugins/ocra&#45;icub&#45;server/src/IcubControllerServer.cpp">
<polygon fill="white" stroke="black" points="475.5,-232.5 475.5,-253.5 762.5,-253.5 762.5,-232.5 475.5,-232.5"/>
<text text-anchor="middle" x="619" y="-240.5" font-family="Helvetica,sans-Serif" font-size="10.00">ocra&#45;wbi&#45;plugins/ocra&#45;icub&#45;server/src/IcubControllerServer.cpp</text>
</a>
</g>
<!-- Node2&#45;&gt;Node8 -->
<g id="edge14" class="edge"><title>Node2&#45;&gt;Node8</title>
<path fill="none" stroke="midnightblue" d="M605.971,-280.784C609.132,-271.617 612.739,-261.157 615.355,-253.571"/>
<polygon fill="midnightblue" stroke="midnightblue" points="602.619,-279.767 602.668,-290.362 609.237,-282.049 602.619,-279.767"/>
</g>
<!-- Node4 -->
<g id="node7" class="node"><title>Node4</title>
<a xlink:href="Module_8h.html" target="_top" xlink:title="Module class for the controller server.">
<polygon fill="white" stroke="black" points="-0.5,-174.5 -0.5,-195.5 308.5,-195.5 308.5,-174.5 -0.5,-174.5"/>
<text text-anchor="middle" x="154" y="-182.5" font-family="Helvetica,sans-Serif" font-size="10.00">ocra&#45;wbi&#45;plugins/ocra&#45;icub&#45;server/include/ocra&#45;icub&#45;server/Module.h</text>
</a>
</g>
<!-- Node3&#45;&gt;Node4 -->
<g id="edge6" class="edge"><title>Node3&#45;&gt;Node4</title>
<path fill="none" stroke="midnightblue" d="M267.468,-228.874C240.85,-218.582 205.367,-204.862 181.215,-195.523"/>
<polygon fill="midnightblue" stroke="midnightblue" points="266.247,-232.155 276.836,-232.497 268.771,-225.626 266.247,-232.155"/>
</g>
<!-- Node7 -->
<g id="node13" class="node"><title>Node7</title>
<a xlink:href="Thread_8cpp.html" target="_top" xlink:title="The thread class for the controller server.">
<polygon fill="white" stroke="black" points="326,-174.5 326,-195.5 554,-195.5 554,-174.5 326,-174.5"/>
<text text-anchor="middle" x="440" y="-182.5" font-family="Helvetica,sans-Serif" font-size="10.00">ocra&#45;wbi&#45;plugins/ocra&#45;icub&#45;server/src/Thread.cpp</text>
</a>
</g>
<!-- Node3&#45;&gt;Node7 -->
<g id="edge12" class="edge"><title>Node3&#45;&gt;Node7</title>
<path fill="none" stroke="midnightblue" d="M338.048,-228.479C361.989,-218.269 393.482,-204.839 415.095,-195.621"/>
<polygon fill="midnightblue" stroke="midnightblue" points="336.454,-225.354 328.629,-232.497 339.2,-231.793 336.454,-225.354"/>
</g>
<!-- Node5 -->
<g id="node9" class="node"><title>Node5</title>
<a xlink:href="ocra-icub-server_2src_2main_8cpp.html" target="_top" xlink:title="ocra&#45;wbi&#45;plugins/ocra&#45;icub&#45;server/src/main.cpp">
<polygon fill="white" stroke="black" points="29.5,-116.5 29.5,-137.5 248.5,-137.5 248.5,-116.5 29.5,-116.5"/>
<text text-anchor="middle" x="139" y="-124.5" font-family="Helvetica,sans-Serif" font-size="10.00">ocra&#45;wbi&#45;plugins/ocra&#45;icub&#45;server/src/main.cpp</text>
</a>
</g>
<!-- Node4&#45;&gt;Node5 -->
<g id="edge8" class="edge"><title>Node4&#45;&gt;Node5</title>
<path fill="none" stroke="midnightblue" d="M148.695,-164.488C146.343,-155.392 143.675,-145.076 141.734,-137.571"/>
<polygon fill="midnightblue" stroke="midnightblue" points="145.356,-165.557 151.249,-174.362 152.133,-163.804 145.356,-165.557"/>
</g>
<!-- Node6 -->
<g id="node11" class="node"><title>Node6</title>
<a xlink:href="Module_8cpp.html" target="_top" xlink:title="ocra&#45;wbi&#45;plugins/ocra&#45;icub&#45;server/src/Module.cpp">
<polygon fill="white" stroke="black" points="266,-116.5 266,-137.5 496,-137.5 496,-116.5 266,-116.5"/>
<text text-anchor="middle" x="381" y="-124.5" font-family="Helvetica,sans-Serif" font-size="10.00">ocra&#45;wbi&#45;plugins/ocra&#45;icub&#45;server/src/Module.cpp</text>
</a>
</g>
<!-- Node4&#45;&gt;Node6 -->
<g id="edge10" class="edge"><title>Node4&#45;&gt;Node6</title>
<path fill="none" stroke="midnightblue" d="M204.838,-172.011C245.54,-161.611 301.902,-147.21 339.815,-137.523"/>
<polygon fill="midnightblue" stroke="midnightblue" points="203.93,-168.63 195.108,-174.497 205.663,-175.412 203.93,-168.63"/>
</g>
<!-- Node10 -->
<g id="node19" class="node"><title>Node10</title>
<a xlink:href="WalkingClient_8h.html" target="_top" xlink:title="ocra&#45;wbi&#45;plugins/ocra&#45;icub&#45;clients/walking&#45;client/include/walking&#45;client/WalkingClient.h">
<polygon fill="white" stroke="black" points="1304,-58.5 1304,-79.5 1696,-79.5 1696,-58.5 1304,-58.5"/>
<text text-anchor="middle" x="1500" y="-66.5" font-family="Helvetica,sans-Serif" font-size="10.00">ocra&#45;wbi&#45;plugins/ocra&#45;icub&#45;clients/walking&#45;client/include/walking&#45;client/WalkingClient.h</text>
</a>
</g>
<!-- Node9&#45;&gt;Node10 -->
<g id="edge18" class="edge"><title>Node9&#45;&gt;Node10</title>
<path fill="none" stroke="midnightblue" d="M976.227,-115.593C1094.01,-105.115 1267.17,-89.7119 1381.71,-79.5231"/>
<polygon fill="midnightblue" stroke="midnightblue" points="975.723,-112.124 966.072,-116.497 976.343,-119.097 975.723,-112.124"/>
</g>
<!-- Node13 -->
<g id="node25" class="node"><title>Node13</title>
<a xlink:href="MIQPController_8cpp.html" target="_top" xlink:title="ocra&#45;wbi&#45;plugins/ocra&#45;icub&#45;clients/walking&#45;client/src/MIQPController.cpp">
<polygon fill="white" stroke="black" points="683.5,-58.5 683.5,-79.5 1012.5,-79.5 1012.5,-58.5 683.5,-58.5"/>
<text text-anchor="middle" x="848" y="-66.5" font-family="Helvetica,sans-Serif" font-size="10.00">ocra&#45;wbi&#45;plugins/ocra&#45;icub&#45;clients/walking&#45;client/src/MIQPController.cpp</text>
</a>
</g>
<!-- Node9&#45;&gt;Node13 -->
<g id="edge24" class="edge"><title>Node9&#45;&gt;Node13</title>
<path fill="none" stroke="midnightblue" d="M848,-106.191C848,-97.1684 848,-86.9941 848,-79.5707"/>
<polygon fill="midnightblue" stroke="midnightblue" points="844.5,-106.362 848,-116.362 851.5,-106.362 844.5,-106.362"/>
</g>
<!-- Node11 -->
<g id="node21" class="node"><title>Node11</title>
<a xlink:href="ocra-icub-clients_2walking-client_2src_2main_8cpp.html" target="_top" xlink:title="ocra&#45;wbi&#45;plugins/ocra&#45;icub&#45;clients/walking&#45;client/src/main.cpp">
<polygon fill="white" stroke="black" points="1630.5,-0.5 1630.5,-21.5 1913.5,-21.5 1913.5,-0.5 1630.5,-0.5"/>
<text text-anchor="middle" x="1772" y="-8.5" font-family="Helvetica,sans-Serif" font-size="10.00">ocra&#45;wbi&#45;plugins/ocra&#45;icub&#45;clients/walking&#45;client/src/main.cpp</text>
</a>
</g>
<!-- Node10&#45;&gt;Node11 -->
<g id="edge20" class="edge"><title>Node10&#45;&gt;Node11</title>
<path fill="none" stroke="midnightblue" d="M1559.07,-56.4045C1607.97,-45.977 1676.65,-31.333 1722.65,-21.5231"/>
<polygon fill="midnightblue" stroke="midnightblue" points="1558.31,-52.988 1549.26,-58.4966 1559.77,-59.8341 1558.31,-52.988"/>
</g>
<!-- Node12 -->
<g id="node23" class="node"><title>Node12</title>
<a xlink:href="WalkingClient_8cpp.html" target="_top" xlink:title="ocra&#45;wbi&#45;plugins/ocra&#45;icub&#45;clients/walking&#45;client/src/WalkingClient.cpp">
<polygon fill="white" stroke="black" points="1290.5,-0.5 1290.5,-21.5 1613.5,-21.5 1613.5,-0.5 1290.5,-0.5"/>
<text text-anchor="middle" x="1452" y="-8.5" font-family="Helvetica,sans-Serif" font-size="10.00">ocra&#45;wbi&#45;plugins/ocra&#45;icub&#45;clients/walking&#45;client/src/WalkingClient.cpp</text>
</a>
</g>
<!-- Node10&#45;&gt;Node12 -->
<g id="edge22" class="edge"><title>Node10&#45;&gt;Node12</title>
<path fill="none" stroke="midnightblue" d="M1484.72,-50.5407C1476.81,-40.9786 1467.43,-29.6467 1460.75,-21.5707"/>
<polygon fill="midnightblue" stroke="midnightblue" points="1482.12,-52.8894 1491.2,-58.3619 1487.52,-48.4264 1482.12,-52.8894"/>
</g>
<!-- Node14&#45;&gt;Node9 -->
<g id="edge38" class="edge"><title>Node14&#45;&gt;Node9</title>
<path fill="none" stroke="midnightblue" d="M1261.77,-289.584C1116.01,-276.373 922.67,-249.217 867,-196 850.833,-180.546 848.008,-152.712 847.755,-137.547"/>
<polygon fill="midnightblue" stroke="midnightblue" points="1261.47,-293.071 1271.74,-290.472 1262.1,-286.098 1261.47,-293.071"/>
</g>
<!-- Node15 -->
<g id="node29" class="node"><title>Node15</title>
<a xlink:href="BaseOfSupport_8h.html" target="_top" xlink:title="ocra&#45;wbi&#45;plugins/ocra&#45;icub&#45;clients/walking&#45;client/include/walking&#45;client/BaseOfSupport.h">
<polygon fill="white" stroke="black" points="1131,-232.5 1131,-253.5 1529,-253.5 1529,-232.5 1131,-232.5"/>
<text text-anchor="middle" x="1330" y="-240.5" font-family="Helvetica,sans-Serif" font-size="10.00">ocra&#45;wbi&#45;plugins/ocra&#45;icub&#45;clients/walking&#45;client/include/walking&#45;client/BaseOfSupport.h</text>
</a>
</g>
<!-- Node14&#45;&gt;Node15 -->
<g id="edge28" class="edge"><title>Node14&#45;&gt;Node15</title>
<path fill="none" stroke="midnightblue" d="M1406.97,-285.517C1388.69,-275.419 1365.31,-262.503 1349.14,-253.571"/>
<polygon fill="midnightblue" stroke="midnightblue" points="1405.3,-288.59 1415.74,-290.362 1408.68,-282.463 1405.3,-288.59"/>
</g>
<!-- Node19 -->
<g id="node39" class="node"><title>Node19</title>
<a xlink:href="MIQPState_8cpp.html" target="_top" xlink:title="ocra&#45;wbi&#45;plugins/ocra&#45;icub&#45;clients/walking&#45;client/src/MIQPState.cpp">
<polygon fill="white" stroke="black" points="1546.5,-232.5 1546.5,-253.5 1857.5,-253.5 1857.5,-232.5 1546.5,-232.5"/>
<text text-anchor="middle" x="1702" y="-240.5" font-family="Helvetica,sans-Serif" font-size="10.00">ocra&#45;wbi&#45;plugins/ocra&#45;icub&#45;clients/walking&#45;client/src/MIQPState.cpp</text>
</a>
</g>
<!-- Node14&#45;&gt;Node19 -->
<g id="edge40" class="edge"><title>Node14&#45;&gt;Node19</title>
<path fill="none" stroke="midnightblue" d="M1493.28,-288.339C1541.27,-277.916 1608.49,-263.313 1653.56,-253.523"/>
<polygon fill="midnightblue" stroke="midnightblue" points="1492.38,-284.954 1483.35,-290.497 1493.87,-291.794 1492.38,-284.954"/>
</g>
<!-- Node16 -->
<g id="node31" class="node"><title>Node16</title>
<a xlink:href="MIQPLinearConstraints_8h.html" target="_top" xlink:title="ocra&#45;wbi&#45;plugins/ocra&#45;icub&#45;clients/walking&#45;client/include/walking&#45;client/constraints/MIQPLinearConstraints.h">
<polygon fill="white" stroke="black" points="876,-174.5 876,-195.5 1360,-195.5 1360,-174.5 876,-174.5"/>
<text text-anchor="middle" x="1118" y="-182.5" font-family="Helvetica,sans-Serif" font-size="10.00">ocra&#45;wbi&#45;plugins/ocra&#45;icub&#45;clients/walking&#45;client/include/walking&#45;client/constraints/MIQPLinearConstraints.h</text>
</a>
</g>
<!-- Node15&#45;&gt;Node16 -->
<g id="edge30" class="edge"><title>Node15&#45;&gt;Node16</title>
<path fill="none" stroke="midnightblue" d="M1281.8,-229.812C1243.84,-219.428 1191.65,-205.149 1156.46,-195.523"/>
<polygon fill="midnightblue" stroke="midnightblue" points="1281.04,-233.234 1291.61,-232.497 1282.89,-226.482 1281.04,-233.234"/>
</g>
<!-- Node18 -->
<g id="node36" class="node"><title>Node18</title>
<a xlink:href="BaseOfSupport_8cpp.html" target="_top" xlink:title="ocra&#45;wbi&#45;plugins/ocra&#45;icub&#45;clients/walking&#45;client/src/BaseOfSupport.cpp">
<polygon fill="white" stroke="black" points="1377.5,-174.5 1377.5,-195.5 1706.5,-195.5 1706.5,-174.5 1377.5,-174.5"/>
<text text-anchor="middle" x="1542" y="-182.5" font-family="Helvetica,sans-Serif" font-size="10.00">ocra&#45;wbi&#45;plugins/ocra&#45;icub&#45;clients/walking&#45;client/src/BaseOfSupport.cpp</text>
</a>
</g>
<!-- Node15&#45;&gt;Node18 -->
<g id="edge36" class="edge"><title>Node15&#45;&gt;Node18</title>
<path fill="none" stroke="midnightblue" d="M1378.2,-229.812C1416.16,-219.428 1468.35,-205.149 1503.54,-195.523"/>
<polygon fill="midnightblue" stroke="midnightblue" points="1377.11,-226.482 1368.39,-232.497 1378.96,-233.234 1377.11,-226.482"/>
</g>
<!-- Node16&#45;&gt;Node9 -->
<g id="edge32" class="edge"><title>Node16&#45;&gt;Node9</title>
<path fill="none" stroke="midnightblue" d="M1059.06,-172.339C1010.54,-161.916 942.558,-147.313 896.987,-137.523"/>
<polygon fill="midnightblue" stroke="midnightblue" points="1058.59,-175.818 1069.11,-174.497 1060.06,-168.974 1058.59,-175.818"/>
</g>
<!-- Node17 -->
<g id="node34" class="node"><title>Node17</title>
<a xlink:href="MIQPLinearConstraints_8cpp.html" target="_top" xlink:title="ocra&#45;wbi&#45;plugins/ocra&#45;icub&#45;clients/walking&#45;client/src/MIQPLinearConstraints.cpp">
<polygon fill="white" stroke="black" points="1065,-116.5 1065,-137.5 1429,-137.5 1429,-116.5 1065,-116.5"/>
<text text-anchor="middle" x="1247" y="-124.5" font-family="Helvetica,sans-Serif" font-size="10.00">ocra&#45;wbi&#45;plugins/ocra&#45;icub&#45;clients/walking&#45;client/src/MIQPLinearConstraints.cpp</text>
</a>
</g>
<!-- Node16&#45;&gt;Node17 -->
<g id="edge34" class="edge"><title>Node16&#45;&gt;Node17</title>
<path fill="none" stroke="midnightblue" d="M1150.6,-170.343C1173.27,-160.15 1202.97,-146.798 1223.38,-137.621"/>
<polygon fill="midnightblue" stroke="midnightblue" points="1149.05,-167.204 1141.36,-174.497 1151.92,-173.588 1149.05,-167.204"/>
</g>
<!-- Node20&#45;&gt;Node10 -->
<g id="edge84" class="edge"><title>Node20&#45;&gt;Node10</title>
<path fill="none" stroke="midnightblue" d="M2419.53,-241.709C2223.19,-238.722 1878.61,-228.82 1758,-196 1737.29,-190.363 1734.2,-183.6 1715,-174 1644.78,-138.892 1561.05,-98.392 1522.04,-79.5975"/>
<polygon fill="midnightblue" stroke="midnightblue" points="2419.59,-245.21 2429.64,-241.859 2419.69,-238.211 2419.59,-245.21"/>
</g>
<!-- Node20&#45;&gt;Node11 -->
<g id="edge86" class="edge"><title>Node20&#45;&gt;Node11</title>
<path fill="none" stroke="midnightblue" d="M2419.52,-233.35C2208.87,-217.563 1832.91,-183.376 1791,-138 1760.6,-105.08 1766.22,-45.5631 1770.04,-21.5088"/>
<polygon fill="midnightblue" stroke="midnightblue" points="2419.51,-236.858 2429.74,-234.11 2420.03,-229.877 2419.51,-236.858"/>
</g>
<!-- Node21 -->
<g id="node43" class="node"><title>Node21</title>
<a xlink:href="ExampleClient_8h.html" target="_top" xlink:title="ocra&#45;wbi&#45;plugins/ocra&#45;icub&#45;clients/example&#45;client/include/example&#45;client/ExampleClient.h">
<polygon fill="white" stroke="black" points="2109,-174.5 2109,-195.5 2511,-195.5 2511,-174.5 2109,-174.5"/>
<text text-anchor="middle" x="2310" y="-182.5" font-family="Helvetica,sans-Serif" font-size="10.00">ocra&#45;wbi&#45;plugins/ocra&#45;icub&#45;clients/example&#45;client/include/example&#45;client/ExampleClient.h</text>
</a>
</g>
<!-- Node20&#45;&gt;Node21 -->
<g id="edge44" class="edge"><title>Node20&#45;&gt;Node21</title>
<path fill="none" stroke="midnightblue" d="M2505.64,-230.208C2460.57,-219.794 2397.73,-205.272 2355.54,-195.523"/>
<polygon fill="midnightblue" stroke="midnightblue" points="2505.01,-233.655 2515.55,-232.497 2506.59,-226.835 2505.01,-233.655"/>
</g>
<!-- Node22 -->
<g id="node45" class="node"><title>Node22</title>
<a xlink:href="example-client_8cpp.html" target="_top" xlink:title="ocra&#45;wbi&#45;plugins/ocra&#45;icub&#45;clients/example&#45;client/src/example&#45;client.cpp">
<polygon fill="white" stroke="black" points="1799.5,-116.5 1799.5,-137.5 2128.5,-137.5 2128.5,-116.5 1799.5,-116.5"/>
<text text-anchor="middle" x="1964" y="-124.5" font-family="Helvetica,sans-Serif" font-size="10.00">ocra&#45;wbi&#45;plugins/ocra&#45;icub&#45;clients/example&#45;client/src/example&#45;client.cpp</text>
</a>
</g>
<!-- Node20&#45;&gt;Node22 -->
<g id="edge50" class="edge"><title>Node20&#45;&gt;Node22</title>
<path fill="none" stroke="midnightblue" d="M2419.61,-234.276C2306.64,-226.25 2157.98,-213.021 2100,-196 2053.76,-182.426 2004.53,-153.278 1979.93,-137.561"/>
<polygon fill="midnightblue" stroke="midnightblue" points="2419.51,-237.778 2429.73,-234.988 2420,-230.795 2419.51,-237.778"/>
</g>
<!-- Node24 -->
<g id="node50" class="node"><title>Node24</title>
<a xlink:href="SittingDemoClient_8h.html" target="_top" xlink:title="ocra&#45;wbi&#45;plugins/ocra&#45;icub&#45;clients/sitting&#45;demo/include/sitting&#45;demo/SittingDemoClient.h">
<polygon fill="white" stroke="black" points="2589,-174.5 2589,-195.5 2987,-195.5 2987,-174.5 2589,-174.5"/>
<text text-anchor="middle" x="2788" y="-182.5" font-family="Helvetica,sans-Serif" font-size="10.00">ocra&#45;wbi&#45;plugins/ocra&#45;icub&#45;clients/sitting&#45;demo/include/sitting&#45;demo/SittingDemoClient.h</text>
</a>
</g>
<!-- Node20&#45;&gt;Node24 -->
<g id="edge52" class="edge"><title>Node20&#45;&gt;Node24</title>
<path fill="none" stroke="midnightblue" d="M2611.84,-230.011C2652.54,-219.611 2708.9,-205.21 2746.81,-195.523"/>
<polygon fill="midnightblue" stroke="midnightblue" points="2610.93,-226.63 2602.11,-232.497 2612.66,-233.412 2610.93,-226.63"/>
</g>
<!-- Node25 -->
<g id="node52" class="node"><title>Node25</title>
<a xlink:href="ocra-icub-clients_2sitting-demo_2src_2main_8cpp.html" target="_top" xlink:title="ocra&#45;wbi&#45;plugins/ocra&#45;icub&#45;clients/sitting&#45;demo/src/main.cpp">
<polygon fill="white" stroke="black" points="2491.5,-116.5 2491.5,-137.5 2768.5,-137.5 2768.5,-116.5 2491.5,-116.5"/>
<text text-anchor="middle" x="2630" y="-124.5" font-family="Helvetica,sans-Serif" font-size="10.00">ocra&#45;wbi&#45;plugins/ocra&#45;icub&#45;clients/sitting&#45;demo/src/main.cpp</text>
</a>
</g>
<!-- Node20&#45;&gt;Node25 -->
<g id="edge58" class="edge"><title>Node20&#45;&gt;Node25</title>
<path fill="none" stroke="midnightblue" d="M2563.62,-222.591C2566.16,-208.205 2571,-188.924 2580,-174 2588.86,-159.308 2603.57,-146.273 2614.75,-137.68"/>
<polygon fill="midnightblue" stroke="midnightblue" points="2560.16,-222.067 2562.1,-232.483 2567.08,-223.133 2560.16,-222.067"/>
</g>
<!-- Node27 -->
<g id="node57" class="node"><title>Node27</title>
<a xlink:href="StandingDemoClient_8h.html" target="_top" xlink:title="ocra&#45;wbi&#45;plugins/ocra&#45;icub&#45;clients/standing&#45;demo/include/standing&#45;demo/StandingDemoClient.h">
<polygon fill="white" stroke="black" points="3066,-174.5 3066,-195.5 3496,-195.5 3496,-174.5 3066,-174.5"/>
<text text-anchor="middle" x="3281" y="-182.5" font-family="Helvetica,sans-Serif" font-size="10.00">ocra&#45;wbi&#45;plugins/ocra&#45;icub&#45;clients/standing&#45;demo/include/standing&#45;demo/StandingDemoClient.h</text>
</a>
</g>
<!-- Node20&#45;&gt;Node27 -->
<g id="edge60" class="edge"><title>Node20&#45;&gt;Node27</title>
<path fill="none" stroke="midnightblue" d="M2701.43,-231.688C2831.52,-221.208 3023.51,-205.743 3150.37,-195.523"/>
<polygon fill="midnightblue" stroke="midnightblue" points="2701.07,-228.205 2691.39,-232.497 2701.64,-235.182 2701.07,-228.205"/>
</g>
<!-- Node28 -->
<g id="node59" class="node"><title>Node28</title>
<a xlink:href="ocra-icub-clients_2standing-demo_2src_2main_8cpp.html" target="_top" xlink:title="ocra&#45;wbi&#45;plugins/ocra&#45;icub&#45;clients/standing&#45;demo/src/main.cpp">
<polygon fill="white" stroke="black" points="3137.5,-116.5 3137.5,-137.5 3424.5,-137.5 3424.5,-116.5 3137.5,-116.5"/>
<text text-anchor="middle" x="3281" y="-124.5" font-family="Helvetica,sans-Serif" font-size="10.00">ocra&#45;wbi&#45;plugins/ocra&#45;icub&#45;clients/standing&#45;demo/src/main.cpp</text>
</a>
</g>
<!-- Node20&#45;&gt;Node28 -->
<g id="edge66" class="edge"><title>Node20&#45;&gt;Node28</title>
<path fill="none" stroke="midnightblue" d="M2700.04,-231.595C2805.56,-222.26 2941.46,-208.59 2996,-196 3024.08,-189.517 3029.27,-181.867 3057,-174 3111.09,-158.652 3173.82,-145.912 3219.12,-137.585"/>
<polygon fill="midnightblue" stroke="midnightblue" points="2699.59,-228.122 2689.93,-232.484 2700.2,-235.095 2699.59,-228.122"/>
</g>
<!-- Node30 -->
<g id="node64" class="node"><title>Node30</title>
<a xlink:href="SteppingDemoClient_8h.html" target="_top" xlink:title="ocra&#45;wbi&#45;plugins/ocra&#45;icub&#45;clients/stepping&#45;demo/include/stepping&#45;demo/SteppingDemoClient.h">
<polygon fill="white" stroke="black" points="3766,-174.5 3766,-195.5 4196,-195.5 4196,-174.5 3766,-174.5"/>
<text text-anchor="middle" x="3981" y="-182.5" font-family="Helvetica,sans-Serif" font-size="10.00">ocra&#45;wbi&#45;plugins/ocra&#45;icub&#45;clients/stepping&#45;demo/include/stepping&#45;demo/SteppingDemoClient.h</text>
</a>
</g>
<!-- Node20&#45;&gt;Node30 -->
<g id="edge68" class="edge"><title>Node20&#45;&gt;Node30</title>
<path fill="none" stroke="midnightblue" d="M2702.45,-231.965C2837.85,-224.877 3438.15,-203.765 3765.98,-192.404"/>
<polygon fill="midnightblue" stroke="midnightblue" points="2701.94,-228.487 2692.15,-232.529 2702.32,-235.477 2701.94,-228.487"/>
</g>
<!-- Node31 -->
<g id="node66" class="node"><title>Node31</title>
<a xlink:href="stepping-demo_8cpp.html" target="_top" xlink:title="ocra&#45;wbi&#45;plugins/ocra&#45;icub&#45;clients/stepping&#45;demo/src/stepping&#45;demo.cpp">
<polygon fill="white" stroke="black" points="3816,-116.5 3816,-137.5 4146,-137.5 4146,-116.5 3816,-116.5"/>
<text text-anchor="middle" x="3981" y="-124.5" font-family="Helvetica,sans-Serif" font-size="10.00">ocra&#45;wbi&#45;plugins/ocra&#45;icub&#45;clients/stepping&#45;demo/src/stepping&#45;demo.cpp</text>
</a>
</g>
<!-- Node20&#45;&gt;Node31 -->
<g id="edge74" class="edge"><title>Node20&#45;&gt;Node31</title>
<path fill="none" stroke="midnightblue" d="M2702.26,-231.944C3059.72,-210.349 3152.2,-229.386 3505,-196 3655.88,-181.722 3832.08,-153.006 3921.86,-137.502"/>
<polygon fill="midnightblue" stroke="midnightblue" points="2701.92,-228.458 2692.15,-232.561 2702.34,-235.445 2701.92,-228.458"/>
</g>
<!-- Node33 -->
<g id="node71" class="node"><title>Node33</title>
<a xlink:href="TaskOpsClient_8h.html" target="_top" xlink:title="ocra&#45;wbi&#45;plugins/ocra&#45;icub&#45;clients/task&#45;operations&#45;demo/include/task&#45;operations&#45;demo/TaskOpsClient.h">
<polygon fill="white" stroke="black" points="4500.5,-174.5 4500.5,-195.5 4965.5,-195.5 4965.5,-174.5 4500.5,-174.5"/>
<text text-anchor="middle" x="4733" y="-182.5" font-family="Helvetica,sans-Serif" font-size="10.00">ocra&#45;wbi&#45;plugins/ocra&#45;icub&#45;clients/task&#45;operations&#45;demo/include/task&#45;operations&#45;demo/TaskOpsClient.h</text>
</a>
</g>
<!-- Node20&#45;&gt;Node33 -->
<g id="edge76" class="edge"><title>Node20&#45;&gt;Node33</title>
<path fill="none" stroke="midnightblue" d="M2701.86,-231.986C3440.6,-195.228 3627.74,-214.892 4363,-196 4407.33,-194.861 4454.64,-193.537 4500.11,-192.21"/>
<polygon fill="midnightblue" stroke="midnightblue" points="2701.58,-228.495 2691.77,-232.49 2701.93,-235.487 2701.58,-228.495"/>
</g>
<!-- Node34 -->
<g id="node73" class="node"><title>Node34</title>
<a xlink:href="task-operations-demo_8cpp.html" target="_top" xlink:title="ocra&#45;wbi&#45;plugins/ocra&#45;icub&#45;clients/task&#45;operations&#45;demo/src/task&#45;operations&#45;demo.cpp">
<polygon fill="white" stroke="black" points="4538,-116.5 4538,-137.5 4928,-137.5 4928,-116.5 4538,-116.5"/>
<text text-anchor="middle" x="4733" y="-124.5" font-family="Helvetica,sans-Serif" font-size="10.00">ocra&#45;wbi&#45;plugins/ocra&#45;icub&#45;clients/task&#45;operations&#45;demo/src/task&#45;operations&#45;demo.cpp</text>
</a>
</g>
<!-- Node20&#45;&gt;Node34 -->
<g id="edge82" class="edge"><title>Node20&#45;&gt;Node34</title>
<path fill="none" stroke="midnightblue" d="M2702.14,-231.972C3370.51,-198.306 3541.76,-247.13 4205,-196 4373.45,-183.014 4570.47,-153.406 4669.43,-137.525"/>
<polygon fill="midnightblue" stroke="midnightblue" points="2701.58,-228.496 2691.77,-232.499 2701.94,-235.487 2701.58,-228.496"/>
</g>
<!-- Node21&#45;&gt;Node22 -->
<g id="edge46" class="edge"><title>Node21&#45;&gt;Node22</title>
<path fill="none" stroke="midnightblue" d="M2237.19,-172.794C2174.85,-162.345 2086.03,-147.456 2026.78,-137.523"/>
<polygon fill="midnightblue" stroke="midnightblue" points="2236.9,-176.295 2247.34,-174.497 2238.06,-169.391 2236.9,-176.295"/>
</g>
<!-- Node23 -->
<g id="node47" class="node"><title>Node23</title>
<a xlink:href="ExampleClient_8cpp.html" target="_top" xlink:title="ocra&#45;wbi&#45;plugins/ocra&#45;icub&#45;clients/example&#45;client/src/ExampleClient.cpp">
<polygon fill="white" stroke="black" points="2145.5,-116.5 2145.5,-137.5 2474.5,-137.5 2474.5,-116.5 2145.5,-116.5"/>
<text text-anchor="middle" x="2310" y="-124.5" font-family="Helvetica,sans-Serif" font-size="10.00">ocra&#45;wbi&#45;plugins/ocra&#45;icub&#45;clients/example&#45;client/src/ExampleClient.cpp</text>
</a>
</g>
<!-- Node21&#45;&gt;Node23 -->
<g id="edge48" class="edge"><title>Node21&#45;&gt;Node23</title>
<path fill="none" stroke="midnightblue" d="M2310,-164.191C2310,-155.168 2310,-144.994 2310,-137.571"/>
<polygon fill="midnightblue" stroke="midnightblue" points="2306.5,-164.362 2310,-174.362 2313.5,-164.362 2306.5,-164.362"/>
</g>
<!-- Node24&#45;&gt;Node25 -->
<g id="edge54" class="edge"><title>Node24&#45;&gt;Node25</title>
<path fill="none" stroke="midnightblue" d="M2749.89,-171.009C2721.81,-160.702 2684.22,-146.903 2658.67,-137.523"/>
<polygon fill="midnightblue" stroke="midnightblue" points="2748.79,-174.336 2759.39,-174.497 2751.21,-167.765 2748.79,-174.336"/>
</g>
<!-- Node26 -->
<g id="node54" class="node"><title>Node26</title>
<a xlink:href="SittingDemoClient_8cpp.html" target="_top" xlink:title="ocra&#45;wbi&#45;plugins/ocra&#45;icub&#45;clients/sitting&#45;demo/src/SittingDemoClient.cpp">
<polygon fill="white" stroke="black" points="2785.5,-116.5 2785.5,-137.5 3120.5,-137.5 3120.5,-116.5 2785.5,-116.5"/>
<text text-anchor="middle" x="2953" y="-124.5" font-family="Helvetica,sans-Serif" font-size="10.00">ocra&#45;wbi&#45;plugins/ocra&#45;icub&#45;clients/sitting&#45;demo/src/SittingDemoClient.cpp</text>
</a>
</g>
<!-- Node24&#45;&gt;Node26 -->
<g id="edge56" class="edge"><title>Node24&#45;&gt;Node26</title>
<path fill="none" stroke="midnightblue" d="M2827.42,-171.144C2856.78,-160.823 2896.26,-146.944 2923.06,-137.523"/>
<polygon fill="midnightblue" stroke="midnightblue" points="2826.15,-167.878 2817.88,-174.497 2828.48,-174.482 2826.15,-167.878"/>
</g>
<!-- Node27&#45;&gt;Node28 -->
<g id="edge62" class="edge"><title>Node27&#45;&gt;Node28</title>
<path fill="none" stroke="midnightblue" d="M3281,-164.191C3281,-155.168 3281,-144.994 3281,-137.571"/>
<polygon fill="midnightblue" stroke="midnightblue" points="3277.5,-164.362 3281,-174.362 3284.5,-164.362 3277.5,-164.362"/>
</g>
<!-- Node29 -->
<g id="node61" class="node"><title>Node29</title>
<a xlink:href="StandingDemoClient_8cpp.html" target="_top" xlink:title="ocra&#45;wbi&#45;plugins/ocra&#45;icub&#45;clients/standing&#45;demo/src/StandingDemoClient.cpp">
<polygon fill="white" stroke="black" points="3442,-116.5 3442,-137.5 3798,-137.5 3798,-116.5 3442,-116.5"/>
<text text-anchor="middle" x="3620" y="-124.5" font-family="Helvetica,sans-Serif" font-size="10.00">ocra&#45;wbi&#45;plugins/ocra&#45;icub&#45;clients/standing&#45;demo/src/StandingDemoClient.cpp</text>
</a>
</g>
<!-- Node27&#45;&gt;Node29 -->
<g id="edge64" class="edge"><title>Node27&#45;&gt;Node29</title>
<path fill="none" stroke="midnightblue" d="M3352.34,-172.794C3413.42,-162.345 3500.44,-147.456 3558.49,-137.523"/>
<polygon fill="midnightblue" stroke="midnightblue" points="3351.66,-169.36 3342.39,-174.497 3352.84,-176.26 3351.66,-169.36"/>
</g>
<!-- Node30&#45;&gt;Node31 -->
<g id="edge70" class="edge"><title>Node30&#45;&gt;Node31</title>
<path fill="none" stroke="midnightblue" d="M3981,-164.191C3981,-155.168 3981,-144.994 3981,-137.571"/>
<polygon fill="midnightblue" stroke="midnightblue" points="3977.5,-164.362 3981,-174.362 3984.5,-164.362 3977.5,-164.362"/>
</g>
<!-- Node32 -->
<g id="node68" class="node"><title>Node32</title>
<a xlink:href="SteppingDemoClient_8cpp.html" target="_top" xlink:title="ocra&#45;wbi&#45;plugins/ocra&#45;icub&#45;clients/stepping&#45;demo/src/SteppingDemoClient.cpp">
<polygon fill="white" stroke="black" points="4164,-116.5 4164,-137.5 4520,-137.5 4520,-116.5 4164,-116.5"/>
<text text-anchor="middle" x="4342" y="-124.5" font-family="Helvetica,sans-Serif" font-size="10.00">ocra&#45;wbi&#45;plugins/ocra&#45;icub&#45;clients/stepping&#45;demo/src/SteppingDemoClient.cpp</text>
</a>
</g>
<!-- Node30&#45;&gt;Node32 -->
<g id="edge72" class="edge"><title>Node30&#45;&gt;Node32</title>
<path fill="none" stroke="midnightblue" d="M4056.57,-172.859C4121.63,-162.406 4214.55,-147.476 4276.5,-137.523"/>
<polygon fill="midnightblue" stroke="midnightblue" points="4055.69,-169.455 4046.37,-174.497 4056.8,-176.366 4055.69,-169.455"/>
</g>
<!-- Node33&#45;&gt;Node34 -->
<g id="edge78" class="edge"><title>Node33&#45;&gt;Node34</title>
<path fill="none" stroke="midnightblue" d="M4733,-164.191C4733,-155.168 4733,-144.994 4733,-137.571"/>
<polygon fill="midnightblue" stroke="midnightblue" points="4729.5,-164.362 4733,-174.362 4736.5,-164.362 4729.5,-164.362"/>
</g>
<!-- Node35 -->
<g id="node75" class="node"><title>Node35</title>
<a xlink:href="TaskOpsClient_8cpp.html" target="_top" xlink:title="ocra&#45;wbi&#45;plugins/ocra&#45;icub&#45;clients/task&#45;operations&#45;demo/src/TaskOpsClient.cpp">
<polygon fill="white" stroke="black" points="4946,-116.5 4946,-137.5 5308,-137.5 5308,-116.5 4946,-116.5"/>
<text text-anchor="middle" x="5127" y="-124.5" font-family="Helvetica,sans-Serif" font-size="10.00">ocra&#45;wbi&#45;plugins/ocra&#45;icub&#45;clients/task&#45;operations&#45;demo/src/TaskOpsClient.cpp</text>
</a>
</g>
<!-- Node33&#45;&gt;Node35 -->
<g id="edge80" class="edge"><title>Node33&#45;&gt;Node35</title>
<path fill="none" stroke="midnightblue" d="M4814.6,-172.988C4885.65,-162.529 4987.62,-147.517 5055.52,-137.523"/>
<polygon fill="midnightblue" stroke="midnightblue" points="4813.73,-169.577 4804.35,-174.497 4814.75,-176.503 4813.73,-169.577"/>
</g>
<!-- Node36&#45;&gt;Node20 -->
<g id="edge90" class="edge"><title>Node36&#45;&gt;Node20</title>
<path fill="none" stroke="midnightblue" d="M2483.3,-285.517C2501.75,-275.419 2525.36,-262.503 2541.68,-253.571"/>
<polygon fill="midnightblue" stroke="midnightblue" points="2481.53,-282.491 2474.44,-290.362 2484.89,-288.632 2481.53,-282.491"/>
</g>
<!-- Node37 -->
<g id="node83" class="node"><title>Node37</title>
<a xlink:href="ModelInitializer_8cpp.html" target="_top" xlink:title="ocra&#45;wbi&#45;plugins/ocra&#45;icub/src/ModelInitializer.cpp">
<polygon fill="white" stroke="black" points="2709.5,-232.5 2709.5,-253.5 2942.5,-253.5 2942.5,-232.5 2709.5,-232.5"/>
<text text-anchor="middle" x="2826" y="-240.5" font-family="Helvetica,sans-Serif" font-size="10.00">ocra&#45;wbi&#45;plugins/ocra&#45;icub/src/ModelInitializer.cpp</text>
</a>
</g>
<!-- Node36&#45;&gt;Node37 -->
<g id="edge92" class="edge"><title>Node36&#45;&gt;Node37</title>
<path fill="none" stroke="midnightblue" d="M2532.25,-288.923C2599.13,-278.468 2694.89,-263.497 2758.69,-253.523"/>
<polygon fill="midnightblue" stroke="midnightblue" points="2531.52,-285.494 2522.19,-290.497 2532.61,-292.41 2531.52,-285.494"/>
</g>
</g>
</svg>
