<?xml version="1.0" encoding="UTF-8" standalone="no"?>
<!DOCTYPE svg PUBLIC "-//W3C//DTD SVG 1.1//EN"
 "http://www.w3.org/Graphics/SVG/1.1/DTD/svg11.dtd">
<!-- Generated by graphviz version 2.26.3 (20100126.1600)
 -->
<!-- Title: G Pages: 1 -->
<svg width="4640pt" height="320pt"
 viewBox="0.00 0.00 4640.00 320.00" xmlns="http://www.w3.org/2000/svg" xmlns:xlink="http://www.w3.org/1999/xlink">
<g id="graph1" class="graph" transform="scale(1 1) rotate(0) translate(4 316)">
<title>G</title>
<polygon fill="white" stroke="white" points="-4,5 -4,-316 4637,-316 4637,5 -4,5"/>
<!-- Node1 -->
<g id="node1" class="node"><title>Node1</title>
<polygon fill="#bfbfbf" stroke="black" points="2354.5,-290.5 2354.5,-311.5 2665.5,-311.5 2665.5,-290.5 2354.5,-290.5"/>
<text text-anchor="middle" x="2510" y="-298.5" font-family="Helvetica,sans-Serif" font-size="10.00">ocra&#45;wbi&#45;plugins/ocra&#45;icub/include/ocra&#45;icub/OcraWbiConversions.h</text>
</g>
<!-- Node2 -->
<g id="node3" class="node"><title>Node2</title>
<a xlink:href="IcubClient_8h.html" target="_top" xlink:title="ocra&#45;wbi&#45;plugins/ocra&#45;icub/include/ocra&#45;icub/IcubClient.h">
<polygon fill="white" stroke="black" points="2171,-116.5 2171,-137.5 2433,-137.5 2433,-116.5 2171,-116.5"/>
<text text-anchor="middle" x="2302" y="-124.5" font-family="Helvetica,sans-Serif" font-size="10.00">ocra&#45;wbi&#45;plugins/ocra&#45;icub/include/ocra&#45;icub/IcubClient.h</text>
</a>
</g>
<!-- Node1&#45;&gt;Node2 -->
<g id="edge2" class="edge"><title>Node1&#45;&gt;Node2</title>
<path fill="none" stroke="midnightblue" d="M2426.78,-287.816C2403.16,-280.855 2378.79,-270.226 2360,-254 2323.13,-222.156 2308.4,-162.025 2303.78,-137.658"/>
<polygon fill="midnightblue" stroke="midnightblue" points="2425.92,-291.207 2436.49,-290.489 2427.78,-284.458 2425.92,-291.207"/>
</g>
<!-- Node21 -->
<g id="node47" class="node"><title>Node21</title>
<a xlink:href="OcraWbiModel_8h.html" target="_top" xlink:title="Implementation of ocra::Model using wholeBodyInterface.">
<polygon fill="white" stroke="black" points="2369,-232.5 2369,-253.5 2651,-253.5 2651,-232.5 2369,-232.5"/>
<text text-anchor="middle" x="2510" y="-240.5" font-family="Helvetica,sans-Serif" font-size="10.00">ocra&#45;wbi&#45;plugins/ocra&#45;icub/include/ocra&#45;icub/OcraWbiModel.h</text>
</a>
</g>
<!-- Node1&#45;&gt;Node21 -->
<g id="edge52" class="edge"><title>Node1&#45;&gt;Node21</title>
<path fill="none" stroke="midnightblue" d="M2510,-280.191C2510,-271.168 2510,-260.994 2510,-253.571"/>
<polygon fill="midnightblue" stroke="midnightblue" points="2506.5,-280.362 2510,-290.362 2513.5,-280.362 2506.5,-280.362"/>
</g>
<!-- Node32 -->
<g id="node71" class="node"><title>Node32</title>
<a xlink:href="OcraWbiConversions_8cpp.html" target="_top" xlink:title="A utility class full of static conversion functions.">
<polygon fill="white" stroke="black" points="2668.5,-232.5 2668.5,-253.5 2929.5,-253.5 2929.5,-232.5 2668.5,-232.5"/>
<text text-anchor="middle" x="2799" y="-240.5" font-family="Helvetica,sans-Serif" font-size="10.00">ocra&#45;wbi&#45;plugins/ocra&#45;icub/src/OcraWbiConversions.cpp</text>
</a>
</g>
<!-- Node1&#45;&gt;Node32 -->
<g id="edge78" class="edge"><title>Node1&#45;&gt;Node32</title>
<path fill="none" stroke="midnightblue" d="M2572.44,-288.47C2624.41,-278.038 2697.58,-263.354 2746.57,-253.523"/>
<polygon fill="midnightblue" stroke="midnightblue" points="2571.45,-285.097 2562.34,-290.497 2572.83,-291.96 2571.45,-285.097"/>
</g>
<!-- Node3 -->
<g id="node5" class="node"><title>Node3</title>
<a xlink:href="ExampleClient_8h.html" target="_top" xlink:title="ocra&#45;wbi&#45;plugins/ocra&#45;icub&#45;clients/example&#45;client/include/example&#45;client/ExampleClient.h">
<polygon fill="white" stroke="black" points="309,-58.5 309,-79.5 711,-79.5 711,-58.5 309,-58.5"/>
<text text-anchor="middle" x="510" y="-66.5" font-family="Helvetica,sans-Serif" font-size="10.00">ocra&#45;wbi&#45;plugins/ocra&#45;icub&#45;clients/example&#45;client/include/example&#45;client/ExampleClient.h</text>
</a>
</g>
<!-- Node2&#45;&gt;Node3 -->
<g id="edge4" class="edge"><title>Node2&#45;&gt;Node3</title>
<path fill="none" stroke="midnightblue" d="M2160.81,-122.43C1844.32,-112.187 1077.27,-87.3603 711.07,-75.5078"/>
<polygon fill="midnightblue" stroke="midnightblue" points="2160.85,-125.933 2170.96,-122.759 2161.07,-118.937 2160.85,-125.933"/>
</g>
<!-- Node4 -->
<g id="node7" class="node"><title>Node4</title>
<a xlink:href="example-client_8cpp.html" target="_top" xlink:title="ocra&#45;wbi&#45;plugins/ocra&#45;icub&#45;clients/example&#45;client/src/example&#45;client.cpp">
<polygon fill="white" stroke="black" points="-0.5,-0.5 -0.5,-21.5 328.5,-21.5 328.5,-0.5 -0.5,-0.5"/>
<text text-anchor="middle" x="164" y="-8.5" font-family="Helvetica,sans-Serif" font-size="10.00">ocra&#45;wbi&#45;plugins/ocra&#45;icub&#45;clients/example&#45;client/src/example&#45;client.cpp</text>
</a>
</g>
<!-- Node2&#45;&gt;Node4 -->
<g id="edge10" class="edge"><title>Node2&#45;&gt;Node4</title>
<path fill="none" stroke="midnightblue" d="M2160.73,-125.398C1719.31,-120.167 389.877,-102.614 300,-80 253.013,-68.1777 203.707,-37.9985 179.407,-21.7482"/>
<polygon fill="midnightblue" stroke="midnightblue" points="2160.95,-128.901 2170.99,-125.519 2161.03,-121.901 2160.95,-128.901"/>
</g>
<!-- Node6 -->
<g id="node12" class="node"><title>Node6</title>
<a xlink:href="SittingDemoClient_8h.html" target="_top" xlink:title="ocra&#45;wbi&#45;plugins/ocra&#45;icub&#45;clients/sitting&#45;demo/include/sitting&#45;demo/SittingDemoClient.h">
<polygon fill="white" stroke="black" points="954,-58.5 954,-79.5 1352,-79.5 1352,-58.5 954,-58.5"/>
<text text-anchor="middle" x="1153" y="-66.5" font-family="Helvetica,sans-Serif" font-size="10.00">ocra&#45;wbi&#45;plugins/ocra&#45;icub&#45;clients/sitting&#45;demo/include/sitting&#45;demo/SittingDemoClient.h</text>
</a>
</g>
<!-- Node2&#45;&gt;Node6 -->
<g id="edge12" class="edge"><title>Node2&#45;&gt;Node6</title>
<path fill="none" stroke="midnightblue" d="M2160.63,-119.864C1957.71,-109.621 1582.98,-90.7046 1352.1,-79.0506"/>
<polygon fill="midnightblue" stroke="midnightblue" points="2160.59,-123.366 2170.75,-120.375 2160.94,-116.375 2160.59,-123.366"/>
</g>
<!-- Node7 -->
<g id="node14" class="node"><title>Node7</title>
<a xlink:href="ocra-icub-clients_2sitting-demo_2src_2main_8cpp.html" target="_top" xlink:title="ocra&#45;wbi&#45;plugins/ocra&#45;icub&#45;clients/sitting&#45;demo/src/main.cpp">
<polygon fill="white" stroke="black" points="691.5,-0.5 691.5,-21.5 968.5,-21.5 968.5,-0.5 691.5,-0.5"/>
<text text-anchor="middle" x="830" y="-8.5" font-family="Helvetica,sans-Serif" font-size="10.00">ocra&#45;wbi&#45;plugins/ocra&#45;icub&#45;clients/sitting&#45;demo/src/main.cpp</text>
</a>
</g>
<!-- Node2&#45;&gt;Node7 -->
<g id="edge18" class="edge"><title>Node2&#45;&gt;Node7</title>
<path fill="none" stroke="midnightblue" d="M2160.35,-126.105C1836.1,-123.48 1059.01,-113.716 945,-80 904.141,-67.9173 862.932,-37.85 842.753,-21.6847"/>
<polygon fill="midnightblue" stroke="midnightblue" points="2160.73,-129.608 2170.76,-126.188 2160.78,-122.608 2160.73,-129.608"/>
</g>
<!-- Node9 -->
<g id="node19" class="node"><title>Node9</title>
<a xlink:href="StandingDemoClient_8h.html" target="_top" xlink:title="ocra&#45;wbi&#45;plugins/ocra&#45;icub&#45;clients/standing&#45;demo/include/standing&#45;demo/StandingDemoClient.h">
<polygon fill="white" stroke="black" points="1605,-58.5 1605,-79.5 2035,-79.5 2035,-58.5 1605,-58.5"/>
<text text-anchor="middle" x="1820" y="-66.5" font-family="Helvetica,sans-Serif" font-size="10.00">ocra&#45;wbi&#45;plugins/ocra&#45;icub&#45;clients/standing&#45;demo/include/standing&#45;demo/StandingDemoClient.h</text>
</a>
</g>
<!-- Node2&#45;&gt;Node9 -->
<g id="edge20" class="edge"><title>Node2&#45;&gt;Node9</title>
<path fill="none" stroke="midnightblue" d="M2204.57,-115.276C2117.56,-104.806 1991.27,-89.6095 1907.45,-79.5231"/>
<polygon fill="midnightblue" stroke="midnightblue" points="2204.37,-118.777 2214.71,-116.497 2205.2,-111.827 2204.37,-118.777"/>
</g>
<!-- Node10 -->
<g id="node21" class="node"><title>Node10</title>
<a xlink:href="ocra-icub-clients_2standing-demo_2src_2main_8cpp.html" target="_top" xlink:title="ocra&#45;wbi&#45;plugins/ocra&#45;icub&#45;clients/standing&#45;demo/src/main.cpp">
<polygon fill="white" stroke="black" points="1337.5,-0.5 1337.5,-21.5 1624.5,-21.5 1624.5,-0.5 1337.5,-0.5"/>
<text text-anchor="middle" x="1481" y="-8.5" font-family="Helvetica,sans-Serif" font-size="10.00">ocra&#45;wbi&#45;plugins/ocra&#45;icub&#45;clients/standing&#45;demo/src/main.cpp</text>
</a>
</g>
<!-- Node2&#45;&gt;Node10 -->
<g id="edge26" class="edge"><title>Node2&#45;&gt;Node10</title>
<path fill="none" stroke="midnightblue" d="M2160.63,-125.417C1985.44,-122.098 1697.63,-111.821 1596,-80 1555.34,-67.2681 1514.04,-37.4797 1493.8,-21.5263"/>
<polygon fill="midnightblue" stroke="midnightblue" points="2160.64,-128.918 2170.7,-125.602 2160.77,-121.919 2160.64,-128.918"/>
</g>
<!-- Node12 -->
<g id="node26" class="node"><title>Node12</title>
<a xlink:href="SteppingDemoClient_8h.html" target="_top" xlink:title="ocra&#45;wbi&#45;plugins/ocra&#45;icub&#45;clients/stepping&#45;demo/include/stepping&#45;demo/SteppingDemoClient.h">
<polygon fill="white" stroke="black" points="2209,-58.5 2209,-79.5 2639,-79.5 2639,-58.5 2209,-58.5"/>
<text text-anchor="middle" x="2424" y="-66.5" font-family="Helvetica,sans-Serif" font-size="10.00">ocra&#45;wbi&#45;plugins/ocra&#45;icub&#45;clients/stepping&#45;demo/include/stepping&#45;demo/SteppingDemoClient.h</text>
</a>
</g>
<!-- Node2&#45;&gt;Node12 -->
<g id="edge28" class="edge"><title>Node2&#45;&gt;Node12</title>
<path fill="none" stroke="midnightblue" d="M2333.41,-112.069C2354.77,-101.912 2382.53,-88.7157 2401.66,-79.6212"/>
<polygon fill="midnightblue" stroke="midnightblue" points="2331.62,-109.042 2324.09,-116.497 2334.63,-115.364 2331.62,-109.042"/>
</g>
<!-- Node13 -->
<g id="node28" class="node"><title>Node13</title>
<a xlink:href="stepping-demo_8cpp.html" target="_top" xlink:title="ocra&#45;wbi&#45;plugins/ocra&#45;icub&#45;clients/stepping&#45;demo/src/stepping&#45;demo.cpp">
<polygon fill="white" stroke="black" points="2016,-0.5 2016,-21.5 2346,-21.5 2346,-0.5 2016,-0.5"/>
<text text-anchor="middle" x="2181" y="-8.5" font-family="Helvetica,sans-Serif" font-size="10.00">ocra&#45;wbi&#45;plugins/ocra&#45;icub&#45;clients/stepping&#45;demo/src/stepping&#45;demo.cpp</text>
</a>
</g>
<!-- Node2&#45;&gt;Node13 -->
<g id="edge34" class="edge"><title>Node2&#45;&gt;Node13</title>
<path fill="none" stroke="midnightblue" d="M2249.47,-112.829C2231.56,-105.635 2212.83,-95.1127 2200,-80 2185.69,-63.1394 2182.09,-36.3669 2181.23,-21.6176"/>
<polygon fill="midnightblue" stroke="midnightblue" points="2248.71,-116.279 2259.3,-116.491 2251.15,-109.719 2248.71,-116.279"/>
</g>
<!-- Node15 -->
<g id="node33" class="node"><title>Node15</title>
<a xlink:href="TaskOpsClient_8h.html" target="_top" xlink:title="ocra&#45;wbi&#45;plugins/ocra&#45;icub&#45;clients/task&#45;operations&#45;demo/include/task&#45;operations&#45;demo/TaskOpsClient.h">
<polygon fill="white" stroke="black" points="2700.5,-58.5 2700.5,-79.5 3165.5,-79.5 3165.5,-58.5 2700.5,-58.5"/>
<text text-anchor="middle" x="2933" y="-66.5" font-family="Helvetica,sans-Serif" font-size="10.00">ocra&#45;wbi&#45;plugins/ocra&#45;icub&#45;clients/task&#45;operations&#45;demo/include/task&#45;operations&#45;demo/TaskOpsClient.h</text>
</a>
</g>
<!-- Node2&#45;&gt;Node15 -->
<g id="edge36" class="edge"><title>Node2&#45;&gt;Node15</title>
<path fill="none" stroke="midnightblue" d="M2426.44,-115.562C2540.43,-105.084 2707.78,-89.7017 2818.52,-79.5231"/>
<polygon fill="midnightblue" stroke="midnightblue" points="2425.91,-112.096 2416.27,-116.497 2426.55,-119.067 2425.91,-112.096"/>
</g>
<!-- Node16 -->
<g id="node35" class="node"><title>Node16</title>
<a xlink:href="task-operations-demo_8cpp.html" target="_top" xlink:title="ocra&#45;wbi&#45;plugins/ocra&#45;icub&#45;clients/task&#45;operations&#45;demo/src/task&#45;operations&#45;demo.cpp">
<polygon fill="white" stroke="black" points="2738,-0.5 2738,-21.5 3128,-21.5 3128,-0.5 2738,-0.5"/>
<text text-anchor="middle" x="2933" y="-8.5" font-family="Helvetica,sans-Serif" font-size="10.00">ocra&#45;wbi&#45;plugins/ocra&#45;icub&#45;clients/task&#45;operations&#45;demo/src/task&#45;operations&#45;demo.cpp</text>
</a>
</g>
<!-- Node2&#45;&gt;Node16 -->
<g id="edge42" class="edge"><title>Node2&#45;&gt;Node16</title>
<path fill="none" stroke="midnightblue" d="M2417.71,-115.392C2501.13,-106.247 2606.11,-92.9262 2648,-80 2668.89,-73.5528 2671.3,-65.046 2692,-58 2743.15,-40.5873 2802.73,-28.8956 2849.85,-21.5284"/>
<polygon fill="midnightblue" stroke="midnightblue" points="2417.21,-111.925 2407.65,-116.486 2417.97,-118.884 2417.21,-111.925"/>
</g>
<!-- Node18 -->
<g id="node40" class="node"><title>Node18</title>
<a xlink:href="WalkingClient_8h.html" target="_top" xlink:title="ocra&#45;wbi&#45;plugins/ocra&#45;icub&#45;clients/walking&#45;client/include/walking&#45;client/WalkingClient.h">
<polygon fill="white" stroke="black" points="3471,-58.5 3471,-79.5 3863,-79.5 3863,-58.5 3471,-58.5"/>
<text text-anchor="middle" x="3667" y="-66.5" font-family="Helvetica,sans-Serif" font-size="10.00">ocra&#45;wbi&#45;plugins/ocra&#45;icub&#45;clients/walking&#45;client/include/walking&#45;client/WalkingClient.h</text>
</a>
</g>
<!-- Node2&#45;&gt;Node18 -->
<g id="edge44" class="edge"><title>Node2&#45;&gt;Node18</title>
<path fill="none" stroke="midnightblue" d="M2443.22,-115.956C2653.44,-104.044 3181.73,-85.407 3470.9,-75.5652"/>
<polygon fill="midnightblue" stroke="midnightblue" points="2442.93,-112.466 2433.15,-116.535 2443.33,-119.455 2442.93,-112.466"/>
</g>
<!-- Node19 -->
<g id="node42" class="node"><title>Node19</title>
<a xlink:href="ocra-icub-clients_2walking-client_2src_2main_8cpp.html" target="_top" xlink:title="ocra&#45;wbi&#45;plugins/ocra&#45;icub&#45;clients/walking&#45;client/src/main.cpp">
<polygon fill="white" stroke="black" points="3525.5,-0.5 3525.5,-21.5 3808.5,-21.5 3808.5,-0.5 3525.5,-0.5"/>
<text text-anchor="middle" x="3667" y="-8.5" font-family="Helvetica,sans-Serif" font-size="10.00">ocra&#45;wbi&#45;plugins/ocra&#45;icub&#45;clients/walking&#45;client/src/main.cpp</text>
</a>
</g>
<!-- Node2&#45;&gt;Node19 -->
<g id="edge50" class="edge"><title>Node2&#45;&gt;Node19</title>
<path fill="none" stroke="midnightblue" d="M2443.34,-115.934C2768.78,-95.551 2853.04,-110.291 3174,-80 3329.74,-65.302 3511.7,-36.8953 3604.95,-21.5122"/>
<polygon fill="midnightblue" stroke="midnightblue" points="2442.91,-112.454 2433.15,-116.578 2443.35,-119.44 2442.91,-112.454"/>
</g>
<!-- Node3&#45;&gt;Node4 -->
<g id="edge6" class="edge"><title>Node3&#45;&gt;Node4</title>
<path fill="none" stroke="midnightblue" d="M437.187,-56.7943C374.849,-46.3447 286.03,-31.4559 226.776,-21.5231"/>
<polygon fill="midnightblue" stroke="midnightblue" points="436.901,-60.2952 447.342,-58.4966 438.058,-53.3915 436.901,-60.2952"/>
</g>
<!-- Node5 -->
<g id="node9" class="node"><title>Node5</title>
<a xlink:href="ExampleClient_8cpp.html" target="_top" xlink:title="ocra&#45;wbi&#45;plugins/ocra&#45;icub&#45;clients/example&#45;client/src/ExampleClient.cpp">
<polygon fill="white" stroke="black" points="345.5,-0.5 345.5,-21.5 674.5,-21.5 674.5,-0.5 345.5,-0.5"/>
<text text-anchor="middle" x="510" y="-8.5" font-family="Helvetica,sans-Serif" font-size="10.00">ocra&#45;wbi&#45;plugins/ocra&#45;icub&#45;clients/example&#45;client/src/ExampleClient.cpp</text>
</a>
</g>
<!-- Node3&#45;&gt;Node5 -->
<g id="edge8" class="edge"><title>Node3&#45;&gt;Node5</title>
<path fill="none" stroke="midnightblue" d="M510,-48.1906C510,-39.1684 510,-28.9941 510,-21.5707"/>
<polygon fill="midnightblue" stroke="midnightblue" points="506.5,-48.3619 510,-58.3619 513.5,-48.3619 506.5,-48.3619"/>
</g>
<!-- Node6&#45;&gt;Node7 -->
<g id="edge14" class="edge"><title>Node6&#45;&gt;Node7</title>
<path fill="none" stroke="midnightblue" d="M1084.31,-56.6648C1026.15,-46.222 943.69,-31.415 888.603,-21.5231"/>
<polygon fill="midnightblue" stroke="midnightblue" points="1084.05,-60.1741 1094.51,-58.4966 1085.28,-53.2843 1084.05,-60.1741"/>
</g>
<!-- Node8 -->
<g id="node16" class="node"><title>Node8</title>
<a xlink:href="SittingDemoClient_8cpp.html" target="_top" xlink:title="ocra&#45;wbi&#45;plugins/ocra&#45;icub&#45;clients/sitting&#45;demo/src/SittingDemoClient.cpp">
<polygon fill="white" stroke="black" points="985.5,-0.5 985.5,-21.5 1320.5,-21.5 1320.5,-0.5 985.5,-0.5"/>
<text text-anchor="middle" x="1153" y="-8.5" font-family="Helvetica,sans-Serif" font-size="10.00">ocra&#45;wbi&#45;plugins/ocra&#45;icub&#45;clients/sitting&#45;demo/src/SittingDemoClient.cpp</text>
</a>
</g>
<!-- Node6&#45;&gt;Node8 -->
<g id="edge16" class="edge"><title>Node6&#45;&gt;Node8</title>
<path fill="none" stroke="midnightblue" d="M1153,-48.1906C1153,-39.1684 1153,-28.9941 1153,-21.5707"/>
<polygon fill="midnightblue" stroke="midnightblue" points="1149.5,-48.3619 1153,-58.3619 1156.5,-48.3619 1149.5,-48.3619"/>
</g>
<!-- Node9&#45;&gt;Node10 -->
<g id="edge22" class="edge"><title>Node9&#45;&gt;Node10</title>
<path fill="none" stroke="midnightblue" d="M1748.66,-56.7943C1687.58,-46.3447 1600.56,-31.4559 1542.51,-21.5231"/>
<polygon fill="midnightblue" stroke="midnightblue" points="1748.16,-60.26 1758.61,-58.4966 1749.34,-53.3603 1748.16,-60.26"/>
</g>
<!-- Node11 -->
<g id="node23" class="node"><title>Node11</title>
<a xlink:href="StandingDemoClient_8cpp.html" target="_top" xlink:title="ocra&#45;wbi&#45;plugins/ocra&#45;icub&#45;clients/standing&#45;demo/src/StandingDemoClient.cpp">
<polygon fill="white" stroke="black" points="1642,-0.5 1642,-21.5 1998,-21.5 1998,-0.5 1642,-0.5"/>
<text text-anchor="middle" x="1820" y="-8.5" font-family="Helvetica,sans-Serif" font-size="10.00">ocra&#45;wbi&#45;plugins/ocra&#45;icub&#45;clients/standing&#45;demo/src/StandingDemoClient.cpp</text>
</a>
</g>
<!-- Node9&#45;&gt;Node11 -->
<g id="edge24" class="edge"><title>Node9&#45;&gt;Node11</title>
<path fill="none" stroke="midnightblue" d="M1820,-48.1906C1820,-39.1684 1820,-28.9941 1820,-21.5707"/>
<polygon fill="midnightblue" stroke="midnightblue" points="1816.5,-48.3619 1820,-58.3619 1823.5,-48.3619 1816.5,-48.3619"/>
</g>
<!-- Node12&#45;&gt;Node13 -->
<g id="edge30" class="edge"><title>Node12&#45;&gt;Node13</title>
<path fill="none" stroke="midnightblue" d="M2370.13,-56.1424C2326.52,-45.7328 2265.85,-31.2511 2225.09,-21.5231"/>
<polygon fill="midnightblue" stroke="midnightblue" points="2369.46,-59.5793 2379.99,-58.4966 2371.08,-52.7706 2369.46,-59.5793"/>
</g>
<!-- Node14 -->
<g id="node30" class="node"><title>Node14</title>
<a xlink:href="SteppingDemoClient_8cpp.html" target="_top" xlink:title="ocra&#45;wbi&#45;plugins/ocra&#45;icub&#45;clients/stepping&#45;demo/src/SteppingDemoClient.cpp">
<polygon fill="white" stroke="black" points="2364,-0.5 2364,-21.5 2720,-21.5 2720,-0.5 2364,-0.5"/>
<text text-anchor="middle" x="2542" y="-8.5" font-family="Helvetica,sans-Serif" font-size="10.00">ocra&#45;wbi&#45;plugins/ocra&#45;icub&#45;clients/stepping&#45;demo/src/SteppingDemoClient.cpp</text>
</a>
</g>
<!-- Node12&#45;&gt;Node14 -->
<g id="edge32" class="edge"><title>Node12&#45;&gt;Node14</title>
<path fill="none" stroke="midnightblue" d="M2454.38,-54.0693C2475.04,-43.9121 2501.89,-30.7157 2520.39,-21.6212"/>
<polygon fill="midnightblue" stroke="midnightblue" points="2452.8,-50.9443 2445.37,-58.4966 2455.89,-57.2265 2452.8,-50.9443"/>
</g>
<!-- Node15&#45;&gt;Node16 -->
<g id="edge38" class="edge"><title>Node15&#45;&gt;Node16</title>
<path fill="none" stroke="midnightblue" d="M2933,-48.1906C2933,-39.1684 2933,-28.9941 2933,-21.5707"/>
<polygon fill="midnightblue" stroke="midnightblue" points="2929.5,-48.3619 2933,-58.3619 2936.5,-48.3619 2929.5,-48.3619"/>
</g>
<!-- Node17 -->
<g id="node37" class="node"><title>Node17</title>
<a xlink:href="TaskOpsClient_8cpp.html" target="_top" xlink:title="ocra&#45;wbi&#45;plugins/ocra&#45;icub&#45;clients/task&#45;operations&#45;demo/src/TaskOpsClient.cpp">
<polygon fill="white" stroke="black" points="3146,-0.5 3146,-21.5 3508,-21.5 3508,-0.5 3146,-0.5"/>
<text text-anchor="middle" x="3327" y="-8.5" font-family="Helvetica,sans-Serif" font-size="10.00">ocra&#45;wbi&#45;plugins/ocra&#45;icub&#45;clients/task&#45;operations&#45;demo/src/TaskOpsClient.cpp</text>
</a>
</g>
<!-- Node15&#45;&gt;Node17 -->
<g id="edge40" class="edge"><title>Node15&#45;&gt;Node17</title>
<path fill="none" stroke="midnightblue" d="M3014.6,-56.9877C3085.65,-46.529 3187.62,-31.5174 3255.52,-21.5231"/>
<polygon fill="midnightblue" stroke="midnightblue" points="3013.73,-53.5775 3004.35,-58.4966 3014.75,-60.5029 3013.73,-53.5775"/>
</g>
<!-- Node18&#45;&gt;Node19 -->
<g id="edge46" class="edge"><title>Node18&#45;&gt;Node19</title>
<path fill="none" stroke="midnightblue" d="M3667,-48.1906C3667,-39.1684 3667,-28.9941 3667,-21.5707"/>
<polygon fill="midnightblue" stroke="midnightblue" points="3663.5,-48.3619 3667,-58.3619 3670.5,-48.3619 3663.5,-48.3619"/>
</g>
<!-- Node20 -->
<g id="node44" class="node"><title>Node20</title>
<a xlink:href="WalkingClient_8cpp.html" target="_top" xlink:title="ocra&#45;wbi&#45;plugins/ocra&#45;icub&#45;clients/walking&#45;client/src/WalkingClient.cpp">
<polygon fill="white" stroke="black" points="3825.5,-0.5 3825.5,-21.5 4148.5,-21.5 4148.5,-0.5 3825.5,-0.5"/>
<text text-anchor="middle" x="3987" y="-8.5" font-family="Helvetica,sans-Serif" font-size="10.00">ocra&#45;wbi&#45;plugins/ocra&#45;icub&#45;clients/walking&#45;client/src/WalkingClient.cpp</text>
</a>
</g>
<!-- Node18&#45;&gt;Node20 -->
<g id="edge48" class="edge"><title>Node18&#45;&gt;Node20</title>
<path fill="none" stroke="midnightblue" d="M3735.06,-56.6648C3792.67,-46.222 3874.37,-31.415 3928.94,-21.5231"/>
<polygon fill="midnightblue" stroke="midnightblue" points="3734.17,-53.2692 3724.95,-58.4966 3735.41,-60.157 3734.17,-53.2692"/>
</g>
<!-- Node21&#45;&gt;Node2 -->
<g id="edge68" class="edge"><title>Node21&#45;&gt;Node2</title>
<path fill="none" stroke="midnightblue" d="M2440.29,-229.923C2413.66,-222.756 2383.96,-211.967 2360,-196 2336.56,-180.382 2317.41,-152.614 2308.1,-137.504"/>
<polygon fill="midnightblue" stroke="midnightblue" points="2439.77,-233.403 2450.32,-232.496 2441.51,-226.623 2439.77,-233.403"/>
</g>
<!-- Node22 -->
<g id="node49" class="node"><title>Node22</title>
<a xlink:href="IcubControllerServer_8h.html" target="_top" xlink:title="ocra&#45;wbi&#45;plugins/ocra&#45;icub&#45;server/include/ocra&#45;icub&#45;server/IcubControllerServer.h">
<polygon fill="white" stroke="black" points="2670.5,-174.5 2670.5,-195.5 3037.5,-195.5 3037.5,-174.5 2670.5,-174.5"/>
<text text-anchor="middle" x="2854" y="-182.5" font-family="Helvetica,sans-Serif" font-size="10.00">ocra&#45;wbi&#45;plugins/ocra&#45;icub&#45;server/include/ocra&#45;icub&#45;server/IcubControllerServer.h</text>
</a>
</g>
<!-- Node21&#45;&gt;Node22 -->
<g id="edge54" class="edge"><title>Node21&#45;&gt;Node22</title>
<path fill="none" stroke="midnightblue" d="M2582.39,-230.794C2644.37,-220.345 2732.68,-205.456 2791.59,-195.523"/>
<polygon fill="midnightblue" stroke="midnightblue" points="2581.57,-227.383 2572.3,-232.497 2582.74,-234.285 2581.57,-227.383"/>
</g>
<!-- Node29 -->
<g id="node64" class="node"><title>Node29</title>
<a xlink:href="ModelInitializer_8h.html" target="_top" xlink:title="ocra&#45;wbi&#45;plugins/ocra&#45;icub/include/ocra&#45;icub/ModelInitializer.h">
<polygon fill="white" stroke="black" points="2368.5,-174.5 2368.5,-195.5 2651.5,-195.5 2651.5,-174.5 2368.5,-174.5"/>
<text text-anchor="middle" x="2510" y="-182.5" font-family="Helvetica,sans-Serif" font-size="10.00">ocra&#45;wbi&#45;plugins/ocra&#45;icub/include/ocra&#45;icub/ModelInitializer.h</text>
</a>
</g>
<!-- Node21&#45;&gt;Node29 -->
<g id="edge70" class="edge"><title>Node21&#45;&gt;Node29</title>
<path fill="none" stroke="midnightblue" d="M2510,-222.191C2510,-213.168 2510,-202.994 2510,-195.571"/>
<polygon fill="midnightblue" stroke="midnightblue" points="2506.5,-222.362 2510,-232.362 2513.5,-222.362 2506.5,-222.362"/>
</g>
<!-- Node31 -->
<g id="node69" class="node"><title>Node31</title>
<a xlink:href="OcraWbiModel_8cpp.html" target="_top" xlink:title="Implementation of ocra::Model using wholeBodyInterface.">
<polygon fill="white" stroke="black" points="3054.5,-174.5 3054.5,-195.5 3287.5,-195.5 3287.5,-174.5 3054.5,-174.5"/>
<text text-anchor="middle" x="3171" y="-182.5" font-family="Helvetica,sans-Serif" font-size="10.00">ocra&#45;wbi&#45;plugins/ocra&#45;icub/src/OcraWbiModel.cpp</text>
</a>
</g>
<!-- Node21&#45;&gt;Node31 -->
<g id="edge76" class="edge"><title>Node21&#45;&gt;Node31</title>
<path fill="none" stroke="midnightblue" d="M2640.03,-231.61C2748.58,-222.098 2907.37,-208.177 3046,-196 3048.71,-195.762 3051.46,-195.52 3054.23,-195.277"/>
<polygon fill="midnightblue" stroke="midnightblue" points="2639.67,-228.128 2630.01,-232.487 2640.28,-235.101 2639.67,-228.128"/>
</g>
<!-- Node23 -->
<g id="node51" class="node"><title>Node23</title>
<a xlink:href="Thread_8h.html" target="_top" xlink:title="The thread class for the controller server.">
<polygon fill="white" stroke="black" points="3351,-116.5 3351,-137.5 3659,-137.5 3659,-116.5 3351,-116.5"/>
<text text-anchor="middle" x="3505" y="-124.5" font-family="Helvetica,sans-Serif" font-size="10.00">ocra&#45;wbi&#45;plugins/ocra&#45;icub&#45;server/include/ocra&#45;icub&#45;server/Thread.h</text>
</a>
</g>
<!-- Node22&#45;&gt;Node23 -->
<g id="edge56" class="edge"><title>Node22&#45;&gt;Node23</title>
<path fill="none" stroke="midnightblue" d="M2982.03,-173.593C3099.64,-163.115 3272.53,-147.712 3386.89,-137.523"/>
<polygon fill="midnightblue" stroke="midnightblue" points="2981.54,-170.123 2971.89,-174.497 2982.16,-177.095 2981.54,-170.123"/>
</g>
<!-- Node28 -->
<g id="node61" class="node"><title>Node28</title>
<a xlink:href="IcubControllerServer_8cpp.html" target="_top" xlink:title="ocra&#45;wbi&#45;plugins/ocra&#45;icub&#45;server/src/IcubControllerServer.cpp">
<polygon fill="white" stroke="black" points="3676.5,-116.5 3676.5,-137.5 3963.5,-137.5 3963.5,-116.5 3676.5,-116.5"/>
<text text-anchor="middle" x="3820" y="-124.5" font-family="Helvetica,sans-Serif" font-size="10.00">ocra&#45;wbi&#45;plugins/ocra&#45;icub&#45;server/src/IcubControllerServer.cpp</text>
</a>
</g>
<!-- Node22&#45;&gt;Node28 -->
<g id="edge66" class="edge"><title>Node22&#45;&gt;Node28</title>
<path fill="none" stroke="midnightblue" d="M3047.35,-173.907C3278.29,-160.647 3637.53,-139.982 3668,-138 3670.77,-137.82 3673.57,-137.636 3676.39,-137.448"/>
<polygon fill="midnightblue" stroke="midnightblue" points="3046.92,-170.426 3037.13,-174.494 3047.32,-177.415 3046.92,-170.426"/>
</g>
<!-- Node24 -->
<g id="node53" class="node"><title>Node24</title>
<a xlink:href="Module_8h.html" target="_top" xlink:title="Module class for the controller server.">
<polygon fill="white" stroke="black" points="4000.5,-58.5 4000.5,-79.5 4309.5,-79.5 4309.5,-58.5 4000.5,-58.5"/>
<text text-anchor="middle" x="4155" y="-66.5" font-family="Helvetica,sans-Serif" font-size="10.00">ocra&#45;wbi&#45;plugins/ocra&#45;icub&#45;server/include/ocra&#45;icub&#45;server/Module.h</text>
</a>
</g>
<!-- Node23&#45;&gt;Node24 -->
<g id="edge58" class="edge"><title>Node23&#45;&gt;Node24</title>
<path fill="none" stroke="midnightblue" d="M3632.83,-115.593C3750.26,-105.115 3922.88,-89.7119 4037.07,-79.5231"/>
<polygon fill="midnightblue" stroke="midnightblue" points="3632.36,-112.122 3622.71,-116.497 3632.98,-119.094 3632.36,-112.122"/>
</g>
<!-- Node27 -->
<g id="node59" class="node"><title>Node27</title>
<a xlink:href="Thread_8cpp.html" target="_top" xlink:title="The thread class for the controller server.">
<polygon fill="white" stroke="black" points="4327,-58.5 4327,-79.5 4555,-79.5 4555,-58.5 4327,-58.5"/>
<text text-anchor="middle" x="4441" y="-66.5" font-family="Helvetica,sans-Serif" font-size="10.00">ocra&#45;wbi&#45;plugins/ocra&#45;icub&#45;server/src/Thread.cpp</text>
</a>
</g>
<!-- Node23&#45;&gt;Node27 -->
<g id="edge64" class="edge"><title>Node23&#45;&gt;Node27</title>
<path fill="none" stroke="midnightblue" d="M3669.79,-115.897C3958.52,-98.3175 4032.81,-100.644 4318,-80 4320.89,-79.791 4323.81,-79.5735 4326.76,-79.3489"/>
<polygon fill="midnightblue" stroke="midnightblue" points="3669.2,-112.427 3659.43,-116.531 3669.63,-119.414 3669.2,-112.427"/>
</g>
<!-- Node25 -->
<g id="node55" class="node"><title>Node25</title>
<a xlink:href="ocra-icub-server_2src_2main_8cpp.html" target="_top" xlink:title="ocra&#45;wbi&#45;plugins/ocra&#45;icub&#45;server/src/main.cpp">
<polygon fill="white" stroke="black" points="4165.5,-0.5 4165.5,-21.5 4384.5,-21.5 4384.5,-0.5 4165.5,-0.5"/>
<text text-anchor="middle" x="4275" y="-8.5" font-family="Helvetica,sans-Serif" font-size="10.00">ocra&#45;wbi&#45;plugins/ocra&#45;icub&#45;server/src/main.cpp</text>
</a>
</g>
<!-- Node24&#45;&gt;Node25 -->
<g id="edge60" class="edge"><title>Node24&#45;&gt;Node25</title>
<path fill="none" stroke="midnightblue" d="M4185.89,-54.0693C4206.91,-43.9121 4234.21,-30.7157 4253.03,-21.6212"/>
<polygon fill="midnightblue" stroke="midnightblue" points="4184.21,-50.9937 4176.73,-58.4966 4187.26,-57.2961 4184.21,-50.9937"/>
</g>
<!-- Node26 -->
<g id="node57" class="node"><title>Node26</title>
<a xlink:href="Module_8cpp.html" target="_top" xlink:title="ocra&#45;wbi&#45;plugins/ocra&#45;icub&#45;server/src/Module.cpp">
<polygon fill="white" stroke="black" points="4402,-0.5 4402,-21.5 4632,-21.5 4632,-0.5 4402,-0.5"/>
<text text-anchor="middle" x="4517" y="-8.5" font-family="Helvetica,sans-Serif" font-size="10.00">ocra&#45;wbi&#45;plugins/ocra&#45;icub&#45;server/src/Module.cpp</text>
</a>
</g>
<!-- Node24&#45;&gt;Node26 -->
<g id="edge62" class="edge"><title>Node24&#45;&gt;Node26</title>
<path fill="none" stroke="midnightblue" d="M4230.78,-56.8589C4296.02,-46.4061 4389.2,-31.4764 4451.32,-21.5231"/>
<polygon fill="midnightblue" stroke="midnightblue" points="4229.88,-53.4586 4220.56,-58.4966 4230.98,-60.3704 4229.88,-53.4586"/>
</g>
<!-- Node29&#45;&gt;Node2 -->
<g id="edge72" class="edge"><title>Node29&#45;&gt;Node2</title>
<path fill="none" stroke="midnightblue" d="M2462.23,-171.68C2425.03,-161.307 2374.11,-147.108 2339.74,-137.523"/>
<polygon fill="midnightblue" stroke="midnightblue" points="2461.76,-175.182 2472.33,-174.497 2463.64,-168.439 2461.76,-175.182"/>
</g>
<!-- Node30 -->
<g id="node67" class="node"><title>Node30</title>
<a xlink:href="ModelInitializer_8cpp.html" target="_top" xlink:title="ocra&#45;wbi&#45;plugins/ocra&#45;icub/src/ModelInitializer.cpp">
<polygon fill="white" stroke="black" points="2450.5,-116.5 2450.5,-137.5 2683.5,-137.5 2683.5,-116.5 2450.5,-116.5"/>
<text text-anchor="middle" x="2567" y="-124.5" font-family="Helvetica,sans-Serif" font-size="10.00">ocra&#45;wbi&#45;plugins/ocra&#45;icub/src/ModelInitializer.cpp</text>
</a>
</g>
<!-- Node29&#45;&gt;Node30 -->
<g id="edge74" class="edge"><title>Node29&#45;&gt;Node30</title>
<path fill="none" stroke="midnightblue" d="M2527.57,-167.118C2537.09,-157.438 2548.51,-145.81 2556.61,-137.571"/>
<polygon fill="midnightblue" stroke="midnightblue" points="2524.97,-164.776 2520.45,-174.362 2529.96,-169.683 2524.97,-164.776"/>
</g>
</g>
</svg>
