<?xml version="1.0" encoding="UTF-8" standalone="no"?>
<!DOCTYPE svg PUBLIC "-//W3C//DTD SVG 1.1//EN"
 "http://www.w3.org/Graphics/SVG/1.1/DTD/svg11.dtd">
<!-- Generated by graphviz version 2.26.3 (20100126.1600)
 -->
<!-- Title: G Pages: 1 -->
<svg width="2707pt" height="436pt"
 viewBox="0.00 0.00 2707.00 436.00" xmlns="http://www.w3.org/2000/svg" xmlns:xlink="http://www.w3.org/1999/xlink">
<g id="graph1" class="graph" transform="scale(1 1) rotate(0) translate(4 432)">
<title>G</title>
<polygon fill="white" stroke="white" points="-4,5 -4,-432 2704,-432 2704,5 -4,5"/>
<!-- Node1 -->
<g id="node1" class="node"><title>Node1</title>
<polygon fill="#bfbfbf" stroke="black" points="1123.5,-406.5 1123.5,-427.5 1406.5,-427.5 1406.5,-406.5 1123.5,-406.5"/>
<text text-anchor="middle" x="1265" y="-414.5" font-family="Helvetica,sans-Serif" font-size="10.00">ocra&#45;wbi&#45;plugins/ocra&#45;icub&#45;clients/walking&#45;client/src/main.cpp</text>
</g>
<!-- Node2 -->
<g id="node3" class="node"><title>Node2</title>
<polygon fill="white" stroke="#bfbfbf" points="-0.5,-0.5 -0.5,-21.5 128.5,-21.5 128.5,-0.5 -0.5,-0.5"/>
<text text-anchor="middle" x="64" y="-8.5" font-family="Helvetica,sans-Serif" font-size="10.00">yarp/os/ResourceFinder.h</text>
</g>
<!-- Node1&#45;&gt;Node2 -->
<g id="edge2" class="edge"><title>Node1&#45;&gt;Node2</title>
<path fill="none" stroke="midnightblue" d="M1123.36,-414.235C860.474,-408.561 316.122,-394.072 233,-370 173.536,-352.78 112,-362.907 112,-301 112,-301 112,-301 112,-127 112,-90.5752 91.5429,-52.271 77.3388,-30.0651"/>
<polygon fill="midnightblue" stroke="midnightblue" points="80.1578,-27.9831 71.712,-21.5863 74.3253,-31.8538 80.1578,-27.9831"/>
</g>
<!-- Node3 -->
<g id="node5" class="node"><title>Node3</title>
<polygon fill="white" stroke="#bfbfbf" points="336.5,-174.5 336.5,-195.5 433.5,-195.5 433.5,-174.5 336.5,-174.5"/>
<text text-anchor="middle" x="385" y="-182.5" font-family="Helvetica,sans-Serif" font-size="10.00">yarp/os/Network.h</text>
</g>
<!-- Node1&#45;&gt;Node3 -->
<g id="edge4" class="edge"><title>Node1&#45;&gt;Node3</title>
<path fill="none" stroke="midnightblue" d="M1133.32,-406.478C973.308,-389.949 697.839,-349.302 481,-254 451.669,-241.109 422.416,-218.285 404.05,-202.434"/>
<polygon fill="midnightblue" stroke="midnightblue" points="406.232,-199.692 396.416,-195.703 401.602,-204.942 406.232,-199.692"/>
</g>
<!-- Node4 -->
<g id="node7" class="node"><title>Node4</title>
<polygon fill="white" stroke="#bfbfbf" points="270,-0.5 270,-21.5 346,-21.5 346,-0.5 270,-0.5"/>
<text text-anchor="middle" x="308" y="-8.5" font-family="Helvetica,sans-Serif" font-size="10.00">yarp/os/Log.h</text>
</g>
<!-- Node1&#45;&gt;Node4 -->
<g id="edge6" class="edge"><title>Node1&#45;&gt;Node4</title>
<path fill="none" stroke="midnightblue" d="M1123.42,-414.138C857.304,-406.861 309,-382.035 309,-301 309,-301 309,-301 309,-127 309,-93.5965 308.58,-54.7844 308.285,-31.5935"/>
<polygon fill="midnightblue" stroke="midnightblue" points="311.784,-31.5086 308.152,-21.5558 304.785,-31.6013 311.784,-31.5086"/>
</g>
<!-- Node5 -->
<g id="node9" class="node"><title>Node5</title>
<polygon fill="white" stroke="#bfbfbf" points="145.5,-0.5 145.5,-21.5 252.5,-21.5 252.5,-0.5 145.5,-0.5"/>
<text text-anchor="middle" x="199" y="-8.5" font-family="Helvetica,sans-Serif" font-size="10.00">yarp/os/LogStream.h</text>
</g>
<!-- Node1&#45;&gt;Node5 -->
<g id="edge8" class="edge"><title>Node1&#45;&gt;Node5</title>
<path fill="none" stroke="midnightblue" d="M1123.33,-415.118C911.406,-411.336 522.198,-400.384 386,-370 306.414,-352.245 216,-382.542 216,-301 216,-301 216,-301 216,-127 216,-93.4159 208.938,-54.935 203.917,-31.8211"/>
<polygon fill="midnightblue" stroke="midnightblue" points="207.271,-30.7824 201.656,-21.7976 200.442,-32.3226 207.271,-30.7824"/>
</g>
<!-- Node6 -->
<g id="node11" class="node"><title>Node6</title>
<polygon fill="white" stroke="#bfbfbf" points="2494,-0.5 2494,-21.5 2576,-21.5 2576,-0.5 2494,-0.5"/>
<text text-anchor="middle" x="2535" y="-8.5" font-family="Helvetica,sans-Serif" font-size="10.00">yarp/os/Time.h</text>
</g>
<!-- Node1&#45;&gt;Node6 -->
<g id="edge10" class="edge"><title>Node1&#45;&gt;Node6</title>
<path fill="none" stroke="midnightblue" d="M1406.77,-414.165C1581.86,-409.584 1888.59,-398.035 2150,-370 2319.37,-351.836 2527,-471.339 2527,-301 2527,-301 2527,-301 2527,-127 2527,-93.5184 2530.36,-54.7294 2532.72,-31.5644"/>
<polygon fill="midnightblue" stroke="midnightblue" points="2536.21,-31.8524 2533.78,-21.5393 2529.25,-31.1149 2536.21,-31.8524"/>
</g>
<!-- Node7 -->
<g id="node13" class="node"><title>Node7</title>
<a xlink:href="IcubClient_8h.html" target="_top" xlink:title="ocra&#45;icub/IcubClient.h">
<polygon fill="white" stroke="black" points="1209,-290.5 1209,-311.5 1321,-311.5 1321,-290.5 1209,-290.5"/>
<text text-anchor="middle" x="1265" y="-298.5" font-family="Helvetica,sans-Serif" font-size="10.00">ocra&#45;icub/IcubClient.h</text>
</a>
</g>
<!-- Node1&#45;&gt;Node7 -->
<g id="edge12" class="edge"><title>Node1&#45;&gt;Node7</title>
<path fill="none" stroke="midnightblue" d="M1265,-406.295C1265,-387.131 1265,-346.654 1265,-321.843"/>
<polygon fill="midnightblue" stroke="midnightblue" points="1268.5,-321.679 1265,-311.679 1261.5,-321.679 1268.5,-321.679"/>
</g>
<!-- Node35 -->
<g id="node92" class="node"><title>Node35</title>
<polygon fill="white" stroke="#bfbfbf" points="2350.5,-290.5 2350.5,-311.5 2499.5,-311.5 2499.5,-290.5 2350.5,-290.5"/>
<text text-anchor="middle" x="2425" y="-298.5" font-family="Helvetica,sans-Serif" font-size="10.00">ocra&#45;recipes/ControllerClient.h</text>
</g>
<!-- Node1&#45;&gt;Node35 -->
<g id="edge114" class="edge"><title>Node1&#45;&gt;Node35</title>
<path fill="none" stroke="midnightblue" d="M1406.77,-414.335C1567.44,-410.006 1836.92,-398.787 2067,-370 2175.65,-356.406 2300.94,-329.676 2370.76,-313.771"/>
<polygon fill="midnightblue" stroke="midnightblue" points="2371.69,-317.15 2380.65,-311.506 2370.12,-310.327 2371.69,-317.15"/>
</g>
<!-- Node36 -->
<g id="node94" class="node"><title>Node36</title>
<polygon fill="white" stroke="#bfbfbf" points="2555,-348.5 2555,-369.5 2699,-369.5 2699,-348.5 2555,-348.5"/>
<text text-anchor="middle" x="2627" y="-356.5" font-family="Helvetica,sans-Serif" font-size="10.00">ocra&#45;recipes/ClientManager.h</text>
</g>
<!-- Node1&#45;&gt;Node36 -->
<g id="edge116" class="edge"><title>Node1&#45;&gt;Node36</title>
<path fill="none" stroke="midnightblue" d="M1406.86,-415.956C1642.68,-413.284 2130.06,-403.779 2541,-370 2542.27,-369.896 2543.54,-369.787 2544.83,-369.673"/>
<polygon fill="midnightblue" stroke="midnightblue" points="2545.17,-373.156 2554.79,-368.717 2544.5,-366.188 2545.17,-373.156"/>
</g>
<!-- Node37 -->
<g id="node96" class="node"><title>Node37</title>
<a xlink:href="WalkingClient_8h.html" target="_top" xlink:title="walking&#45;client/WalkingClient.h">
<polygon fill="white" stroke="black" points="1910,-348.5 1910,-369.5 2058,-369.5 2058,-348.5 1910,-348.5"/>
<text text-anchor="middle" x="1984" y="-356.5" font-family="Helvetica,sans-Serif" font-size="10.00">walking&#45;client/WalkingClient.h</text>
</a>
</g>
<!-- Node1&#45;&gt;Node37 -->
<g id="edge118" class="edge"><title>Node1&#45;&gt;Node37</title>
<path fill="none" stroke="midnightblue" d="M1395.21,-406.497C1541.63,-394.685 1775.15,-375.847 1899.55,-365.813"/>
<polygon fill="midnightblue" stroke="midnightblue" points="1900.09,-369.281 1909.77,-364.988 1899.52,-362.303 1900.09,-369.281"/>
</g>
<!-- Node8 -->
<g id="node15" class="node"><title>Node8</title>
<a xlink:href="ModelInitializer_8h.html" target="_top" xlink:title="ocra&#45;icub/ModelInitializer.h">
<polygon fill="white" stroke="black" points="489.5,-232.5 489.5,-253.5 622.5,-253.5 622.5,-232.5 489.5,-232.5"/>
<text text-anchor="middle" x="556" y="-240.5" font-family="Helvetica,sans-Serif" font-size="10.00">ocra&#45;icub/ModelInitializer.h</text>
</a>
</g>
<!-- Node7&#45;&gt;Node8 -->
<g id="edge14" class="edge"><title>Node7&#45;&gt;Node8</title>
<path fill="none" stroke="midnightblue" d="M1208.77,-296.4C1082.51,-286.072 776.326,-261.024 632.733,-249.277"/>
<polygon fill="midnightblue" stroke="midnightblue" points="632.932,-245.782 622.68,-248.455 632.361,-252.759 632.932,-245.782"/>
</g>
<!-- Node9 -->
<g id="node17" class="node"><title>Node9</title>
<a xlink:href="OcraWbiModel_8h.html" target="_top" xlink:title="Implementation of ocra::Model using wholeBodyInterface.">
<polygon fill="white" stroke="black" points="1199,-174.5 1199,-195.5 1331,-195.5 1331,-174.5 1199,-174.5"/>
<text text-anchor="middle" x="1265" y="-182.5" font-family="Helvetica,sans-Serif" font-size="10.00">ocra&#45;icub/OcraWbiModel.h</text>
</a>
</g>
<!-- Node7&#45;&gt;Node9 -->
<g id="edge110" class="edge"><title>Node7&#45;&gt;Node9</title>
<path fill="none" stroke="midnightblue" d="M1265,-290.295C1265,-271.131 1265,-230.654 1265,-205.843"/>
<polygon fill="midnightblue" stroke="midnightblue" points="1268.5,-205.679 1265,-195.679 1261.5,-205.679 1268.5,-205.679"/>
</g>
<!-- Node13 -->
<g id="node26" class="node"><title>Node13</title>
<a xlink:href="OcraWbiConversions_8h.html" target="_top" xlink:title="A utility class full of static conversion functions.">
<polygon fill="white" stroke="black" points="1090.5,-116.5 1090.5,-137.5 1251.5,-137.5 1251.5,-116.5 1090.5,-116.5"/>
<text text-anchor="middle" x="1171" y="-124.5" font-family="Helvetica,sans-Serif" font-size="10.00">ocra&#45;icub/OcraWbiConversions.h</text>
</a>
</g>
<!-- Node7&#45;&gt;Node13 -->
<g id="edge108" class="edge"><title>Node7&#45;&gt;Node13</title>
<path fill="none" stroke="midnightblue" d="M1255.52,-290.471C1239.73,-272.414 1208.01,-233.821 1190,-196 1182.66,-180.598 1177.73,-161.87 1174.74,-147.814"/>
<polygon fill="midnightblue" stroke="midnightblue" points="1178.11,-146.828 1172.74,-137.695 1171.24,-148.184 1178.11,-146.828"/>
</g>
<!-- Node19 -->
<g id="node40" class="node"><title>Node19</title>
<a xlink:href="Utilities_8h.html" target="_top" xlink:title="Some useful tools for the ocra&#45;icub lib.">
<polygon fill="white" stroke="black" points="1264.5,-58.5 1264.5,-79.5 1365.5,-79.5 1365.5,-58.5 1264.5,-58.5"/>
<text text-anchor="middle" x="1315" y="-66.5" font-family="Helvetica,sans-Serif" font-size="10.00">ocra&#45;icub/Utilities.h</text>
</a>
</g>
<!-- Node7&#45;&gt;Node19 -->
<g id="edge112" class="edge"><title>Node7&#45;&gt;Node19</title>
<path fill="none" stroke="midnightblue" d="M1276.19,-290.358C1293.82,-272.726 1327.35,-235.466 1340,-196 1351.81,-159.136 1336.41,-114.377 1325.07,-89.0414"/>
<polygon fill="midnightblue" stroke="midnightblue" points="1328.12,-87.3041 1320.69,-79.7467 1321.78,-90.2852 1328.12,-87.3041"/>
</g>
<!-- Node8&#45;&gt;Node3 -->
<g id="edge102" class="edge"><title>Node8&#45;&gt;Node3</title>
<path fill="none" stroke="midnightblue" d="M525.033,-232.497C497.156,-223.041 456.003,-209.083 425.518,-198.743"/>
<polygon fill="midnightblue" stroke="midnightblue" points="426.619,-195.421 416.025,-195.523 424.371,-202.05 426.619,-195.421"/>
</g>
<!-- Node8&#45;&gt;Node4 -->
<g id="edge106" class="edge"><title>Node8&#45;&gt;Node4</title>
<path fill="none" stroke="midnightblue" d="M544.7,-232.429C505.564,-195.818 375.547,-74.1894 326.734,-28.5258"/>
<polygon fill="midnightblue" stroke="midnightblue" points="329.061,-25.9092 319.367,-21.6335 324.279,-31.0211 329.061,-25.9092"/>
</g>
<!-- Node8&#45;&gt;Node5 -->
<g id="edge104" class="edge"><title>Node8&#45;&gt;Node5</title>
<path fill="none" stroke="midnightblue" d="M538.708,-232.499C523.247,-223.064 500.008,-208.77 480,-196 384.253,-134.893 271.822,-59.8707 223.304,-27.3356"/>
<polygon fill="midnightblue" stroke="midnightblue" points="224.996,-24.2555 214.742,-21.5896 221.095,-30.0681 224.996,-24.2555"/>
</g>
<!-- Node8&#45;&gt;Node9 -->
<g id="edge16" class="edge"><title>Node8&#45;&gt;Node9</title>
<path fill="none" stroke="midnightblue" d="M622.701,-237.544C754.868,-226.732 1049.27,-202.648 1188.81,-191.233"/>
<polygon fill="midnightblue" stroke="midnightblue" points="1189.31,-194.704 1198.99,-190.4 1188.74,-187.727 1189.31,-194.704"/>
</g>
<!-- Node11 -->
<g id="node21" class="node"><title>Node11</title>
<polygon fill="white" stroke="#bfbfbf" points="485.5,-0.5 485.5,-21.5 590.5,-21.5 590.5,-0.5 485.5,-0.5"/>
<text text-anchor="middle" x="538" y="-8.5" font-family="Helvetica,sans-Serif" font-size="10.00">ocra/control/Model.h</text>
</g>
<!-- Node8&#45;&gt;Node11 -->
<g id="edge96" class="edge"><title>Node8&#45;&gt;Node11</title>
<path fill="none" stroke="midnightblue" d="M556.602,-232.491C558.034,-204.138 560.836,-123.777 551,-58 549.677,-49.1508 547.23,-39.5976 544.814,-31.43"/>
<polygon fill="midnightblue" stroke="midnightblue" points="548.084,-30.1606 541.751,-21.6667 541.405,-32.2559 548.084,-30.1606"/>
</g>
<!-- Node18 -->
<g id="node38" class="node"><title>Node18</title>
<polygon fill="white" stroke="#bfbfbf" points="725,-58.5 725,-79.5 967,-79.5 967,-58.5 725,-58.5"/>
<text text-anchor="middle" x="846" y="-66.5" font-family="Helvetica,sans-Serif" font-size="10.00">yarpWholeBodyInterface/yarpWholeBodyInterface.h</text>
</g>
<!-- Node8&#45;&gt;Node18 -->
<g id="edge98" class="edge"><title>Node8&#45;&gt;Node18</title>
<path fill="none" stroke="midnightblue" d="M573.704,-232.377C622.848,-202.891 761.159,-119.905 819.507,-84.8959"/>
<polygon fill="midnightblue" stroke="midnightblue" points="821.385,-87.8509 828.159,-79.7046 817.783,-81.8484 821.385,-87.8509"/>
</g>
<!-- Node27 -->
<g id="node60" class="node"><title>Node27</title>
<polygon fill="white" stroke="#bfbfbf" points="364,-0.5 364,-21.5 468,-21.5 468,-0.5 364,-0.5"/>
<text text-anchor="middle" x="416" y="-8.5" font-family="Helvetica,sans-Serif" font-size="10.00">yarp/os/RpcClient.h</text>
</g>
<!-- Node8&#45;&gt;Node27 -->
<g id="edge100" class="edge"><title>Node8&#45;&gt;Node27</title>
<path fill="none" stroke="midnightblue" d="M554.747,-232.415C550.416,-197.359 535.123,-85.6964 513,-58 501.077,-43.0727 483.236,-32.5764 466.094,-25.3511"/>
<polygon fill="midnightblue" stroke="midnightblue" points="467.273,-22.0538 456.685,-21.6661 464.72,-28.5718 467.273,-22.0538"/>
</g>
<!-- Node9&#45;&gt;Node4 -->
<g id="edge24" class="edge"><title>Node9&#45;&gt;Node4</title>
<path fill="none" stroke="midnightblue" d="M1198.92,-180.061C1116.39,-173.318 971.073,-159.548 848,-138 697.218,-111.601 662.072,-92.7815 513,-58 445.876,-42.3385 426.792,-38.525 356.063,-22.2355"/>
<polygon fill="midnightblue" stroke="midnightblue" points="356.746,-18.8012 346.215,-19.9638 355.173,-25.6221 356.746,-18.8012"/>
</g>
<!-- Node10 -->
<g id="node19" class="node"><title>Node10</title>
<polygon fill="white" stroke="#bfbfbf" points="2058,-0.5 2058,-21.5 2110,-21.5 2110,-0.5 2058,-0.5"/>
<text text-anchor="middle" x="2084" y="-8.5" font-family="Helvetica,sans-Serif" font-size="10.00">memory</text>
</g>
<!-- Node9&#45;&gt;Node10 -->
<g id="edge18" class="edge"><title>Node9&#45;&gt;Node10</title>
<path fill="none" stroke="midnightblue" d="M1325.97,-174.461C1456.93,-151.364 1774.72,-92.8474 2048.01,-22.0937"/>
<polygon fill="midnightblue" stroke="midnightblue" points="2048.91,-25.4749 2057.71,-19.5716 2047.15,-18.7001 2048.91,-25.4749"/>
</g>
<!-- Node9&#45;&gt;Node11 -->
<g id="edge20" class="edge"><title>Node9&#45;&gt;Node11</title>
<path fill="none" stroke="midnightblue" d="M1198.92,-178.108C1094.32,-165.933 885.155,-136.403 716,-80 694.881,-72.958 691.529,-66.6119 671,-58 641.363,-45.5674 607.161,-33.5303 580.862,-24.7503"/>
<polygon fill="midnightblue" stroke="midnightblue" points="581.789,-21.3704 571.195,-21.5508 579.589,-28.0159 581.789,-21.3704"/>
</g>
<!-- Node12 -->
<g id="node23" class="node"><title>Node12</title>
<polygon fill="white" stroke="#bfbfbf" points="1982,-0.5 1982,-21.5 2040,-21.5 2040,-0.5 1982,-0.5"/>
<text text-anchor="middle" x="2011" y="-8.5" font-family="Helvetica,sans-Serif" font-size="10.00">wbi/wbi.h</text>
</g>
<!-- Node9&#45;&gt;Node12 -->
<g id="edge22" class="edge"><title>Node9&#45;&gt;Node12</title>
<path fill="none" stroke="midnightblue" d="M1283.86,-174.49C1330,-149.343 1452.92,-85.7394 1564,-58 1737.84,-14.5855 1791.69,-54.0475 1971.62,-21.9435"/>
<polygon fill="midnightblue" stroke="midnightblue" points="1972.47,-25.3448 1981.68,-20.0978 1971.21,-18.4597 1972.47,-25.3448"/>
</g>
<!-- Node9&#45;&gt;Node13 -->
<g id="edge26" class="edge"><title>Node9&#45;&gt;Node13</title>
<path fill="none" stroke="midnightblue" d="M1247.76,-174.362C1233.45,-165.532 1212.89,-152.844 1196.64,-142.822"/>
<polygon fill="midnightblue" stroke="midnightblue" points="1198.48,-139.843 1188.13,-137.571 1194.8,-145.8 1198.48,-139.843"/>
</g>
<!-- Node9&#45;&gt;Node19 -->
<g id="edge94" class="edge"><title>Node9&#45;&gt;Node19</title>
<path fill="none" stroke="midnightblue" d="M1269.61,-174.295C1277.95,-154.959 1295.64,-113.923 1306.3,-89.1767"/>
<polygon fill="midnightblue" stroke="midnightblue" points="1309.65,-90.2479 1310.4,-79.6792 1303.22,-87.477 1309.65,-90.2479"/>
</g>
<!-- Node13&#45;&gt;Node4 -->
<g id="edge36" class="edge"><title>Node13&#45;&gt;Node4</title>
<path fill="none" stroke="midnightblue" d="M1147.89,-116.407C1111.99,-100.506 1040.24,-70.9562 976,-58 708.301,-4.0129 630.5,-60.2408 356.368,-21.9618"/>
<polygon fill="midnightblue" stroke="midnightblue" points="356.509,-18.4465 346.115,-20.499 355.52,-25.3763 356.509,-18.4465"/>
</g>
<!-- Node13&#45;&gt;Node12 -->
<g id="edge38" class="edge"><title>Node13&#45;&gt;Node12</title>
<path fill="none" stroke="midnightblue" d="M1234.35,-116.483C1274.98,-108.729 1328.47,-96.6316 1374,-80 1394.16,-72.6347 1396.3,-63.7008 1417,-58 1652.59,6.8927 1727.11,-62.7928 1971.79,-21.8668"/>
<polygon fill="midnightblue" stroke="midnightblue" points="1972.43,-25.309 1981.69,-20.1667 1971.24,-18.41 1972.43,-25.309"/>
</g>
<!-- Node14 -->
<g id="node28" class="node"><title>Node14</title>
<polygon fill="white" stroke="#bfbfbf" points="608,-0.5 608,-21.5 662,-21.5 662,-0.5 608,-0.5"/>
<text text-anchor="middle" x="635" y="-8.5" font-family="Helvetica,sans-Serif" font-size="10.00">iostream</text>
</g>
<!-- Node13&#45;&gt;Node14 -->
<g id="edge28" class="edge"><title>Node13&#45;&gt;Node14</title>
<path fill="none" stroke="midnightblue" d="M1165.75,-116.315C1157.31,-100.435 1139.07,-71.0767 1114,-58 1029.08,-13.7103 783.503,-38.8982 672.37,-21.7588"/>
<polygon fill="midnightblue" stroke="midnightblue" points="672.815,-18.2837 662.364,-20.0264 671.621,-25.1811 672.815,-18.2837"/>
</g>
<!-- Node15 -->
<g id="node30" class="node"><title>Node15</title>
<polygon fill="white" stroke="#bfbfbf" points="1070.5,-58.5 1070.5,-79.5 1105.5,-79.5 1105.5,-58.5 1070.5,-58.5"/>
<text text-anchor="middle" x="1088" y="-66.5" font-family="Helvetica,sans-Serif" font-size="10.00">map</text>
</g>
<!-- Node13&#45;&gt;Node15 -->
<g id="edge30" class="edge"><title>Node13&#45;&gt;Node15</title>
<path fill="none" stroke="midnightblue" d="M1155.78,-116.362C1143.37,-107.696 1125.65,-95.3126 1111.44,-85.3819"/>
<polygon fill="midnightblue" stroke="midnightblue" points="1113.33,-82.4297 1103.13,-79.5707 1109.32,-88.1676 1113.33,-82.4297"/>
</g>
<!-- Node16 -->
<g id="node32" class="node"><title>Node16</title>
<polygon fill="white" stroke="#bfbfbf" points="2342,-0.5 2342,-21.5 2386,-21.5 2386,-0.5 2342,-0.5"/>
<text text-anchor="middle" x="2364" y="-8.5" font-family="Helvetica,sans-Serif" font-size="10.00">vector</text>
</g>
<!-- Node13&#45;&gt;Node16 -->
<g id="edge32" class="edge"><title>Node13&#45;&gt;Node16</title>
<path fill="none" stroke="midnightblue" d="M1251.57,-122.357C1476.05,-109.011 2106.26,-68.6292 2331.74,-21.7776"/>
<polygon fill="midnightblue" stroke="midnightblue" points="2332.8,-25.1297 2341.84,-19.6128 2331.33,-18.285 2332.8,-25.1297"/>
</g>
<!-- Node17 -->
<g id="node34" class="node"><title>Node17</title>
<polygon fill="white" stroke="#bfbfbf" points="679.5,-0.5 679.5,-21.5 770.5,-21.5 770.5,-0.5 679.5,-0.5"/>
<text text-anchor="middle" x="725" y="-8.5" font-family="Helvetica,sans-Serif" font-size="10.00">yarp/sig/Vector.h</text>
</g>
<!-- Node13&#45;&gt;Node17 -->
<g id="edge34" class="edge"><title>Node13&#45;&gt;Node17</title>
<path fill="none" stroke="midnightblue" d="M1170.67,-116.359C1169.57,-100.812 1165.04,-72.1978 1147,-58 1084.7,-8.96846 875.682,-32.4122 780.54,-21.9224"/>
<polygon fill="midnightblue" stroke="midnightblue" points="780.973,-18.4493 770.606,-20.6354 780.074,-25.3913 780.973,-18.4493"/>
</g>
<!-- Node13&#45;&gt;Node18 -->
<g id="edge40" class="edge"><title>Node13&#45;&gt;Node18</title>
<path fill="none" stroke="midnightblue" d="M1112.14,-116.497C1056.64,-106.591 973.441,-91.7433 914.873,-81.2911"/>
<polygon fill="midnightblue" stroke="midnightblue" points="915.425,-77.8344 904.965,-79.5231 914.195,-84.7256 915.425,-77.8344"/>
</g>
<!-- Node13&#45;&gt;Node19 -->
<g id="edge42" class="edge"><title>Node13&#45;&gt;Node19</title>
<path fill="none" stroke="midnightblue" d="M1197.08,-116.497C1220.07,-107.234 1253.8,-93.6499 1279.3,-83.3793"/>
<polygon fill="midnightblue" stroke="midnightblue" points="1280.66,-86.6039 1288.63,-79.6212 1278.05,-80.1108 1280.66,-86.6039"/>
</g>
<!-- Node19&#45;&gt;Node2 -->
<g id="edge62" class="edge"><title>Node19&#45;&gt;Node2</title>
<path fill="none" stroke="midnightblue" d="M1264.21,-65.9693C1223.58,-63.6055 1165.15,-60.3416 1114,-58 683.329,-38.2825 571.375,-62.0592 139.103,-22.1124"/>
<polygon fill="midnightblue" stroke="midnightblue" points="139.114,-18.5983 128.832,-21.1569 138.465,-25.5682 139.114,-18.5983"/>
</g>
<!-- Node19&#45;&gt;Node4 -->
<g id="edge74" class="edge"><title>Node19&#45;&gt;Node4</title>
<path fill="none" stroke="midnightblue" d="M1264.2,-66.1176C1223.57,-63.8366 1165.13,-60.6117 1114,-58 780.021,-40.941 691.2,-68.1333 356.097,-21.9218"/>
<polygon fill="midnightblue" stroke="midnightblue" points="356.497,-18.4439 346.11,-20.5331 355.533,-25.3771 356.497,-18.4439"/>
</g>
<!-- Node19&#45;&gt;Node5 -->
<g id="edge76" class="edge"><title>Node19&#45;&gt;Node5</title>
<path fill="none" stroke="midnightblue" d="M1264.2,-66.0444C1223.57,-63.7225 1165.14,-60.4784 1114,-58 738.327,-39.7937 639.925,-62.8232 262.803,-22.0793"/>
<polygon fill="midnightblue" stroke="midnightblue" points="263.025,-18.5828 252.705,-20.9803 262.268,-25.5418 263.025,-18.5828"/>
</g>
<!-- Node19&#45;&gt;Node6 -->
<g id="edge72" class="edge"><title>Node19&#45;&gt;Node6</title>
<path fill="none" stroke="midnightblue" d="M1365.74,-68.1536C1558.19,-64.7613 2243.8,-50.972 2483.84,-21.9061"/>
<polygon fill="midnightblue" stroke="midnightblue" points="2484.41,-25.3611 2493.9,-20.6441 2483.54,-18.4155 2484.41,-25.3611"/>
</g>
<!-- Node19&#45;&gt;Node10 -->
<g id="edge44" class="edge"><title>Node19&#45;&gt;Node10</title>
<path fill="none" stroke="midnightblue" d="M1365.6,-66.4664C1514.84,-58.8992 1948.47,-36.1989 2047.83,-21.626"/>
<polygon fill="midnightblue" stroke="midnightblue" points="2048.5,-25.063 2057.8,-19.9786 2047.36,-18.1567 2048.5,-25.063"/>
</g>
<!-- Node19&#45;&gt;Node11 -->
<g id="edge86" class="edge"><title>Node19&#45;&gt;Node11</title>
<path fill="none" stroke="midnightblue" d="M1264.36,-66.008C1117.83,-57.3065 698.156,-32.0544 600.557,-21.9814"/>
<polygon fill="midnightblue" stroke="midnightblue" points="600.842,-18.4916 590.515,-20.8583 600.064,-25.4482 600.842,-18.4916"/>
</g>
<!-- Node19&#45;&gt;Node12 -->
<g id="edge84" class="edge"><title>Node19&#45;&gt;Node12</title>
<path fill="none" stroke="midnightblue" d="M1365.58,-59.7791C1370.11,-59.1134 1374.63,-58.5062 1379,-58 1638.39,-27.9401 1710.56,-66.0549 1971.53,-21.9225"/>
<polygon fill="midnightblue" stroke="midnightblue" points="1972.43,-25.3197 1981.69,-20.179 1971.24,-18.4205 1972.43,-25.3197"/>
</g>
<!-- Node19&#45;&gt;Node14 -->
<g id="edge48" class="edge"><title>Node19&#45;&gt;Node14</title>
<path fill="none" stroke="midnightblue" d="M1264.47,-65.6222C1126.03,-56.3285 746.477,-30.5754 672.3,-21.4979"/>
<polygon fill="midnightblue" stroke="midnightblue" points="672.76,-18.0281 662.36,-20.0504 671.751,-24.955 672.76,-18.0281"/>
</g>
<!-- Node19&#45;&gt;Node16 -->
<g id="edge52" class="edge"><title>Node19&#45;&gt;Node16</title>
<path fill="none" stroke="midnightblue" d="M1365.56,-68.6308C1541.27,-67.0468 2125.38,-59.1836 2332.02,-21.605"/>
<polygon fill="midnightblue" stroke="midnightblue" points="2332.7,-25.0395 2341.87,-19.7347 2331.39,-18.1625 2332.7,-25.0395"/>
</g>
<!-- Node19&#45;&gt;Node17 -->
<g id="edge80" class="edge"><title>Node19&#45;&gt;Node17</title>
<path fill="none" stroke="midnightblue" d="M1264.37,-64.7172C1143.94,-54.5099 846.075,-29.1422 780.843,-21.9214"/>
<polygon fill="midnightblue" stroke="midnightblue" points="780.952,-18.4088 770.601,-20.668 780.102,-25.3569 780.952,-18.4088"/>
</g>
<!-- Node20 -->
<g id="node43" class="node"><title>Node20</title>
<polygon fill="white" stroke="#bfbfbf" points="1428,-0.5 1428,-21.5 1472,-21.5 1472,-0.5 1428,-0.5"/>
<text text-anchor="middle" x="1450" y="-8.5" font-family="Helvetica,sans-Serif" font-size="10.00">cmath</text>
</g>
<!-- Node19&#45;&gt;Node20 -->
<g id="edge46" class="edge"><title>Node19&#45;&gt;Node20</title>
<path fill="none" stroke="midnightblue" d="M1339.45,-58.4966C1361.62,-48.9711 1394.43,-34.8759 1418.55,-24.5137"/>
<polygon fill="midnightblue" stroke="midnightblue" points="1420.16,-27.6282 1427.97,-20.465 1417.4,-21.1967 1420.16,-27.6282"/>
</g>
<!-- Node21 -->
<g id="node46" class="node"><title>Node21</title>
<polygon fill="white" stroke="#bfbfbf" points="1489.5,-0.5 1489.5,-21.5 1530.5,-21.5 1530.5,-0.5 1489.5,-0.5"/>
<text text-anchor="middle" x="1510" y="-8.5" font-family="Helvetica,sans-Serif" font-size="10.00">string</text>
</g>
<!-- Node19&#45;&gt;Node21 -->
<g id="edge50" class="edge"><title>Node19&#45;&gt;Node21</title>
<path fill="none" stroke="midnightblue" d="M1355.89,-58.4816C1387.5,-50.1149 1432.5,-37.6903 1479.7,-22.2643"/>
<polygon fill="midnightblue" stroke="midnightblue" points="1481.09,-25.4931 1489.48,-19.0336 1478.89,-18.8462 1481.09,-25.4931"/>
</g>
<!-- Node22 -->
<g id="node49" class="node"><title>Node22</title>
<polygon fill="white" stroke="#bfbfbf" points="1548,-0.5 1548,-21.5 1600,-21.5 1600,-0.5 1548,-0.5"/>
<text text-anchor="middle" x="1574" y="-8.5" font-family="Helvetica,sans-Serif" font-size="10.00">sstream</text>
</g>
<!-- Node19&#45;&gt;Node22 -->
<g id="edge54" class="edge"><title>Node19&#45;&gt;Node22</title>
<path fill="none" stroke="midnightblue" d="M1365.59,-59.848C1408.98,-51.6697 1473.33,-38.7625 1537.78,-22.1534"/>
<polygon fill="midnightblue" stroke="midnightblue" points="1538.91,-25.4757 1547.71,-19.5664 1537.15,-18.702 1538.91,-25.4757"/>
</g>
<!-- Node23 -->
<g id="node51" class="node"><title>Node23</title>
<polygon fill="white" stroke="#bfbfbf" points="1617.5,-0.5 1617.5,-21.5 1732.5,-21.5 1732.5,-0.5 1617.5,-0.5"/>
<text text-anchor="middle" x="1675" y="-8.5" font-family="Helvetica,sans-Serif" font-size="10.00">yarp/os/BufferedPort.h</text>
</g>
<!-- Node19&#45;&gt;Node23 -->
<g id="edge56" class="edge"><title>Node19&#45;&gt;Node23</title>
<path fill="none" stroke="midnightblue" d="M1365.64,-60.2237C1370.16,-59.463 1374.66,-58.7124 1379,-58 1477.91,-41.7602 1505.17,-38.6895 1607.29,-22.2644"/>
<polygon fill="midnightblue" stroke="midnightblue" points="1608.1,-25.6798 1617.41,-20.6323 1606.98,-18.7691 1608.1,-25.6798"/>
</g>
<!-- Node24 -->
<g id="node53" class="node"><title>Node24</title>
<polygon fill="white" stroke="#bfbfbf" points="1750,-0.5 1750,-21.5 1836,-21.5 1836,-0.5 1750,-0.5"/>
<text text-anchor="middle" x="1793" y="-8.5" font-family="Helvetica,sans-Serif" font-size="10.00">yarp/os/Bottle.h</text>
</g>
<!-- Node19&#45;&gt;Node24 -->
<g id="edge58" class="edge"><title>Node19&#45;&gt;Node24</title>
<path fill="none" stroke="midnightblue" d="M1365.6,-59.9606C1370.13,-59.2561 1374.64,-58.5903 1379,-58 1535.93,-36.7377 1579.45,-46.3517 1739.71,-22.0594"/>
<polygon fill="midnightblue" stroke="midnightblue" points="1740.58,-25.4669 1749.94,-20.4884 1739.52,-18.5482 1740.58,-25.4669"/>
</g>
<!-- Node25 -->
<g id="node55" class="node"><title>Node25</title>
<polygon fill="white" stroke="#bfbfbf" points="2127.5,-0.5 2127.5,-21.5 2238.5,-21.5 2238.5,-0.5 2127.5,-0.5"/>
<text text-anchor="middle" x="2183" y="-8.5" font-family="Helvetica,sans-Serif" font-size="10.00">yarp/os/RateThread.h</text>
</g>
<!-- Node19&#45;&gt;Node25 -->
<g id="edge60" class="edge"><title>Node19&#45;&gt;Node25</title>
<path fill="none" stroke="midnightblue" d="M1365.97,-67.997C1491.84,-65.096 1827.63,-54.7777 2116.93,-22.1383"/>
<polygon fill="midnightblue" stroke="midnightblue" points="2117.67,-25.5776 2127.21,-20.9677 2116.87,-18.6226 2117.67,-25.5776"/>
</g>
<!-- Node26 -->
<g id="node58" class="node"><title>Node26</title>
<polygon fill="white" stroke="#bfbfbf" points="1854,-0.5 1854,-21.5 1964,-21.5 1964,-0.5 1854,-0.5"/>
<text text-anchor="middle" x="1909" y="-8.5" font-family="Helvetica,sans-Serif" font-size="10.00">yarp/os/PortReader.h</text>
</g>
<!-- Node19&#45;&gt;Node26 -->
<g id="edge64" class="edge"><title>Node19&#45;&gt;Node26</title>
<path fill="none" stroke="midnightblue" d="M1365.59,-59.8571C1370.12,-59.1747 1374.64,-58.5423 1379,-58 1581.92,-32.7789 1637.14,-47.1551 1843.93,-22.0336"/>
<polygon fill="midnightblue" stroke="midnightblue" points="1844.39,-25.5028 1853.89,-20.8072 1843.54,-18.5553 1844.39,-25.5028"/>
</g>
<!-- Node19&#45;&gt;Node27 -->
<g id="edge66" class="edge"><title>Node19&#45;&gt;Node27</title>
<path fill="none" stroke="midnightblue" d="M1264.2,-66.1921C1095.42,-56.8589 559.868,-27.2022 478.216,-21.6244"/>
<polygon fill="midnightblue" stroke="midnightblue" points="478.422,-18.1299 468.181,-20.843 477.879,-25.1088 478.422,-18.1299"/>
</g>
<!-- Node28 -->
<g id="node62" class="node"><title>Node28</title>
<polygon fill="white" stroke="#bfbfbf" points="787.5,-0.5 787.5,-21.5 894.5,-21.5 894.5,-0.5 787.5,-0.5"/>
<text text-anchor="middle" x="841" y="-8.5" font-family="Helvetica,sans-Serif" font-size="10.00">yarp/os/RpcServer.h</text>
</g>
<!-- Node19&#45;&gt;Node28 -->
<g id="edge68" class="edge"><title>Node19&#45;&gt;Node28</title>
<path fill="none" stroke="midnightblue" d="M1264.45,-64.2523C1188.52,-56.8971 1040.3,-41.6718 904.877,-22.2127"/>
<polygon fill="midnightblue" stroke="midnightblue" points="905.134,-18.7135 894.735,-20.7439 904.131,-25.6412 905.134,-18.7135"/>
</g>
<!-- Node29 -->
<g id="node64" class="node"><title>Node29</title>
<polygon fill="white" stroke="#bfbfbf" points="911.5,-0.5 911.5,-21.5 1052.5,-21.5 1052.5,-0.5 911.5,-0.5"/>
<text text-anchor="middle" x="982" y="-8.5" font-family="Helvetica,sans-Serif" font-size="10.00">yarp/os/ConnectionReader.h</text>
</g>
<!-- Node19&#45;&gt;Node29 -->
<g id="edge70" class="edge"><title>Node19&#45;&gt;Node29</title>
<path fill="none" stroke="midnightblue" d="M1264.42,-60.191C1207.86,-50.3396 1115.87,-34.3167 1052.32,-23.2484"/>
<polygon fill="midnightblue" stroke="midnightblue" points="1052.83,-19.7841 1042.38,-21.5162 1051.63,-26.6803 1052.83,-19.7841"/>
</g>
<!-- Node30 -->
<g id="node69" class="node"><title>Node30</title>
<polygon fill="white" stroke="#bfbfbf" points="1069.5,-0.5 1069.5,-21.5 1166.5,-21.5 1166.5,-0.5 1069.5,-0.5"/>
<text text-anchor="middle" x="1118" y="-8.5" font-family="Helvetica,sans-Serif" font-size="10.00">yarp/os/Property.h</text>
</g>
<!-- Node19&#45;&gt;Node30 -->
<g id="edge78" class="edge"><title>Node19&#45;&gt;Node30</title>
<path fill="none" stroke="midnightblue" d="M1279.32,-58.4966C1246.93,-48.9592 1198.98,-34.8408 1163.77,-24.475"/>
<polygon fill="midnightblue" stroke="midnightblue" points="1164.32,-20.9899 1153.74,-21.5231 1162.35,-27.7049 1164.32,-20.9899"/>
</g>
<!-- Node31 -->
<g id="node72" class="node"><title>Node31</title>
<polygon fill="white" stroke="#bfbfbf" points="1183.5,-0.5 1183.5,-21.5 1272.5,-21.5 1272.5,-0.5 1183.5,-0.5"/>
<text text-anchor="middle" x="1228" y="-8.5" font-family="Helvetica,sans-Serif" font-size="10.00">yarp/sig/Matrix.h</text>
</g>
<!-- Node19&#45;&gt;Node31 -->
<g id="edge82" class="edge"><title>Node19&#45;&gt;Node31</title>
<path fill="none" stroke="midnightblue" d="M1299.04,-58.3619C1286.04,-49.6955 1267.47,-37.3126 1252.57,-27.3819"/>
<polygon fill="midnightblue" stroke="midnightblue" points="1254.12,-24.2055 1243.86,-21.5707 1250.24,-30.0299 1254.12,-24.2055"/>
</g>
<!-- Node32 -->
<g id="node76" class="node"><title>Node32</title>
<polygon fill="white" stroke="#bfbfbf" points="1289.5,-0.5 1289.5,-21.5 1410.5,-21.5 1410.5,-0.5 1289.5,-0.5"/>
<text text-anchor="middle" x="1350" y="-8.5" font-family="Helvetica,sans-Serif" font-size="10.00">ocra/util/StringUtilities.h</text>
</g>
<!-- Node19&#45;&gt;Node32 -->
<g id="edge88" class="edge"><title>Node19&#45;&gt;Node32</title>
<path fill="none" stroke="midnightblue" d="M1321.42,-58.3619C1326.16,-50.5131 1332.73,-39.6159 1338.38,-30.2527"/>
<polygon fill="midnightblue" stroke="midnightblue" points="1341.45,-31.9409 1343.62,-21.5707 1335.46,-28.3242 1341.45,-31.9409"/>
</g>
<!-- Node33 -->
<g id="node78" class="node"><title>Node33</title>
<polygon fill="white" stroke="#bfbfbf" points="2403.5,-0.5 2403.5,-21.5 2476.5,-21.5 2476.5,-0.5 2403.5,-0.5"/>
<text text-anchor="middle" x="2440" y="-8.5" font-family="Helvetica,sans-Serif" font-size="10.00">Eigen/Dense</text>
</g>
<!-- Node19&#45;&gt;Node33 -->
<g id="edge90" class="edge"><title>Node19&#45;&gt;Node33</title>
<path fill="none" stroke="midnightblue" d="M1365.62,-68.1152C1548.07,-64.724 2172.43,-51.3183 2393.08,-22.0066"/>
<polygon fill="midnightblue" stroke="midnightblue" points="2393.85,-25.4334 2403.28,-20.5987 2392.89,-18.4992 2393.85,-25.4334"/>
</g>
<!-- Node34 -->
<g id="node80" class="node"><title>Node34</title>
<polygon fill="white" stroke="#bfbfbf" points="2256,-0.5 2256,-21.5 2324,-21.5 2324,-0.5 2256,-0.5"/>
<text text-anchor="middle" x="2290" y="-8.5" font-family="Helvetica,sans-Serif" font-size="10.00">Eigen/Lgsm</text>
</g>
<!-- Node19&#45;&gt;Node34 -->
<g id="edge92" class="edge"><title>Node19&#45;&gt;Node34</title>
<path fill="none" stroke="midnightblue" d="M1365.52,-67.7852C1530.8,-63.6052 2055.28,-48.6664 2245.69,-21.8808"/>
<polygon fill="midnightblue" stroke="midnightblue" points="2246.47,-25.304 2255.86,-20.3903 2245.46,-18.378 2246.47,-25.304"/>
</g>
<!-- Node37&#45;&gt;Node6 -->
<g id="edge172" class="edge"><title>Node37&#45;&gt;Node6</title>
<path fill="none" stroke="midnightblue" d="M2045.97,-348.438C2164.85,-327.669 2415.77,-281.178 2445,-254 2512.53,-191.216 2478.3,-143.425 2513,-58 2516.66,-48.9801 2521.15,-39.2004 2525.12,-30.9097"/>
<polygon fill="midnightblue" stroke="midnightblue" points="2528.38,-32.2098 2529.61,-21.6863 2522.09,-29.1471 2528.38,-32.2098"/>
</g>
<!-- Node37&#45;&gt;Node7 -->
<g id="edge120" class="edge"><title>Node37&#45;&gt;Node7</title>
<path fill="none" stroke="midnightblue" d="M1909.76,-353.011C1769.01,-341.658 1465.45,-317.17 1331.19,-306.339"/>
<polygon fill="midnightblue" stroke="midnightblue" points="1331.29,-302.836 1321.04,-305.521 1330.73,-309.814 1331.29,-302.836"/>
</g>
<!-- Node37&#45;&gt;Node35 -->
<g id="edge124" class="edge"><title>Node37&#45;&gt;Node35</title>
<path fill="none" stroke="midnightblue" d="M2058.31,-349.227C2136.23,-338.979 2258.47,-322.901 2340.14,-312.161"/>
<polygon fill="midnightblue" stroke="midnightblue" points="2340.93,-315.588 2350.38,-310.813 2340.01,-308.647 2340.93,-315.588"/>
</g>
<!-- Node38 -->
<g id="node99" class="node"><title>Node38</title>
<polygon fill="white" stroke="#bfbfbf" points="2079.5,-232.5 2079.5,-253.5 2234.5,-253.5 2234.5,-232.5 2079.5,-232.5"/>
<text text-anchor="middle" x="2157" y="-240.5" font-family="Helvetica,sans-Serif" font-size="10.00">ocra&#45;recipes/TrajectoryThread.h</text>
</g>
<!-- Node37&#45;&gt;Node38 -->
<g id="edge122" class="edge"><title>Node37&#45;&gt;Node38</title>
<path fill="none" stroke="midnightblue" d="M2058.22,-349.508C2103.44,-342.03 2155.12,-329.853 2169,-312 2179.8,-298.119 2174.56,-277.9 2167.97,-262.934"/>
<polygon fill="midnightblue" stroke="midnightblue" points="2170.91,-260.99 2163.36,-253.555 2164.63,-264.074 2170.91,-260.99"/>
</g>
<!-- Node39 -->
<g id="node102" class="node"><title>Node39</title>
<polygon fill="white" stroke="#bfbfbf" points="1656,-290.5 1656,-311.5 1776,-311.5 1776,-290.5 1656,-290.5"/>
<text text-anchor="middle" x="1716" y="-298.5" font-family="Helvetica,sans-Serif" font-size="10.00">ocra/util/EigenUtilities.h</text>
</g>
<!-- Node37&#45;&gt;Node39 -->
<g id="edge126" class="edge"><title>Node37&#45;&gt;Node39</title>
<path fill="none" stroke="midnightblue" d="M1935.47,-348.497C1890.26,-338.714 1822.79,-324.111 1774.6,-313.682"/>
<polygon fill="midnightblue" stroke="midnightblue" points="1775.14,-310.218 1764.62,-311.523 1773.66,-317.059 1775.14,-310.218"/>
</g>
<!-- Node40 -->
<g id="node104" class="node"><title>Node40</title>
<a xlink:href="ZmpPreviewController_8h.html" target="_top" xlink:title="walking&#45;client/ZmpPreviewController.h">
<polygon fill="white" stroke="black" points="2252,-232.5 2252,-253.5 2436,-253.5 2436,-232.5 2252,-232.5"/>
<text text-anchor="middle" x="2344" y="-240.5" font-family="Helvetica,sans-Serif" font-size="10.00">walking&#45;client/ZmpPreviewController.h</text>
</a>
</g>
<!-- Node37&#45;&gt;Node40 -->
<g id="edge128" class="edge"><title>Node37&#45;&gt;Node40</title>
<path fill="none" stroke="midnightblue" d="M2041.8,-348.48C2082.63,-340.345 2138.32,-327.809 2186,-312 2231.83,-296.803 2282.64,-273.361 2313.95,-258.099"/>
<polygon fill="midnightblue" stroke="midnightblue" points="2315.59,-261.195 2323.02,-253.643 2312.5,-254.913 2315.59,-261.195"/>
</g>
<!-- Node42 -->
<g id="node111" class="node"><title>Node42</title>
<a xlink:href="utils_8h.html" target="_top" xlink:title="walking&#45;client/utils.h">
<polygon fill="white" stroke="black" points="2108.5,-174.5 2108.5,-195.5 2213.5,-195.5 2213.5,-174.5 2108.5,-174.5"/>
<text text-anchor="middle" x="2161" y="-182.5" font-family="Helvetica,sans-Serif" font-size="10.00">walking&#45;client/utils.h</text>
</a>
</g>
<!-- Node37&#45;&gt;Node42 -->
<g id="edge146" class="edge"><title>Node37&#45;&gt;Node42</title>
<path fill="none" stroke="midnightblue" d="M1985.23,-348.034C1987.21,-333.817 1992.05,-308.639 2003,-290 2029.42,-245.037 2083.61,-215.524 2121.11,-199.551"/>
<polygon fill="midnightblue" stroke="midnightblue" points="2122.81,-202.635 2130.72,-195.592 2120.15,-196.161 2122.81,-202.635"/>
</g>
<!-- Node43 -->
<g id="node113" class="node"><title>Node43</title>
<a xlink:href="StepController_8h.html" target="_top" xlink:title="walking&#45;client/StepController.h">
<polygon fill="white" stroke="black" points="2011.5,-290.5 2011.5,-311.5 2160.5,-311.5 2160.5,-290.5 2011.5,-290.5"/>
<text text-anchor="middle" x="2086" y="-298.5" font-family="Helvetica,sans-Serif" font-size="10.00">walking&#45;client/StepController.h</text>
</a>
</g>
<!-- Node37&#45;&gt;Node43 -->
<g id="edge140" class="edge"><title>Node37&#45;&gt;Node43</title>
<path fill="none" stroke="midnightblue" d="M2002.71,-348.362C2018.38,-339.45 2040.96,-326.609 2058.66,-316.545"/>
<polygon fill="midnightblue" stroke="midnightblue" points="2060.45,-319.556 2067.41,-311.571 2056.99,-313.471 2060.45,-319.556"/>
</g>
<!-- Node44 -->
<g id="node118" class="node"><title>Node44</title>
<a xlink:href="MIQPController_8h.html" target="_top" xlink:title="A thread for launching trajectory generators.">
<polygon fill="white" stroke="black" points="1790.5,-232.5 1790.5,-253.5 1945.5,-253.5 1945.5,-232.5 1790.5,-232.5"/>
<text text-anchor="middle" x="1868" y="-240.5" font-family="Helvetica,sans-Serif" font-size="10.00">walking&#45;client/MIQPController.h</text>
</a>
</g>
<!-- Node37&#45;&gt;Node44 -->
<g id="edge148" class="edge"><title>Node37&#45;&gt;Node44</title>
<path fill="none" stroke="midnightblue" d="M1976.14,-348.129C1965.69,-334.014 1946.29,-308.947 1927,-290 1915.98,-279.176 1902.59,-268.35 1891.36,-259.821"/>
<polygon fill="midnightblue" stroke="midnightblue" points="1893.37,-256.955 1883.26,-253.785 1889.19,-262.567 1893.37,-256.955"/>
</g>
<!-- Node50 -->
<g id="node135" class="node"><title>Node50</title>
<polygon fill="white" stroke="#bfbfbf" points="1793.5,-290.5 1793.5,-311.5 1918.5,-311.5 1918.5,-290.5 1793.5,-290.5"/>
<text text-anchor="middle" x="1856" y="-298.5" font-family="Helvetica,sans-Serif" font-size="10.00">ocra/util/FileOperations.h</text>
</g>
<!-- Node37&#45;&gt;Node50 -->
<g id="edge170" class="edge"><title>Node37&#45;&gt;Node50</title>
<path fill="none" stroke="midnightblue" d="M1960.82,-348.497C1940.65,-339.356 1911.19,-326.008 1888.64,-315.788"/>
<polygon fill="midnightblue" stroke="midnightblue" points="1889.99,-312.561 1879.44,-311.621 1887.1,-318.937 1889.99,-312.561"/>
</g>
<!-- Node40&#45;&gt;Node16 -->
<g id="edge136" class="edge"><title>Node40&#45;&gt;Node16</title>
<path fill="none" stroke="midnightblue" d="M2328.4,-232.271C2317.61,-223.831 2304.12,-211.012 2298,-196 2294.31,-186.947 2296.13,-183.597 2298,-174 2308.59,-119.614 2337.34,-60.4198 2353.17,-30.5675"/>
<polygon fill="midnightblue" stroke="midnightblue" points="2356.33,-32.0803 2358,-21.6179 2350.17,-28.7554 2356.33,-32.0803"/>
</g>
<!-- Node40&#45;&gt;Node19 -->
<g id="edge130" class="edge"><title>Node40&#45;&gt;Node19</title>
<path fill="none" stroke="midnightblue" d="M2326.81,-232.468C2298.52,-215.278 2243.19,-182.275 2222,-174 2116.56,-132.831 2085.92,-132.969 1974,-116 1755.49,-82.8698 1492.58,-72.9858 1375.89,-70.1231"/>
<polygon fill="midnightblue" stroke="midnightblue" points="1375.81,-66.6204 1365.73,-69.8827 1375.65,-73.6184 1375.81,-66.6204"/>
</g>
<!-- Node40&#45;&gt;Node33 -->
<g id="edge134" class="edge"><title>Node40&#45;&gt;Node33</title>
<path fill="none" stroke="midnightblue" d="M2382.29,-232.372C2400.57,-225.207 2420.84,-213.737 2432,-196 2464.43,-144.466 2453.25,-67.919 2445.24,-31.5814"/>
<polygon fill="midnightblue" stroke="midnightblue" points="2448.61,-30.5998 2442.91,-21.6674 2441.79,-32.2032 2448.61,-30.5998"/>
</g>
<!-- Node41 -->
<g id="node107" class="node"><title>Node41</title>
<polygon fill="white" stroke="#bfbfbf" points="2306.5,-174.5 2306.5,-195.5 2423.5,-195.5 2423.5,-174.5 2306.5,-174.5"/>
<text text-anchor="middle" x="2365" y="-182.5" font-family="Helvetica,sans-Serif" font-size="10.00">ocra/util/ErrorsHelper.h</text>
</g>
<!-- Node40&#45;&gt;Node41 -->
<g id="edge132" class="edge"><title>Node40&#45;&gt;Node41</title>
<path fill="none" stroke="midnightblue" d="M2347.85,-232.362C2350.6,-224.758 2354.39,-214.294 2357.71,-205.135"/>
<polygon fill="midnightblue" stroke="midnightblue" points="2361.06,-206.165 2361.17,-195.571 2354.48,-203.782 2361.06,-206.165"/>
</g>
<!-- Node40&#45;&gt;Node42 -->
<g id="edge138" class="edge"><title>Node40&#45;&gt;Node42</title>
<path fill="none" stroke="midnightblue" d="M2310.86,-232.497C2280.9,-223 2236.6,-208.962 2203.94,-198.609"/>
<polygon fill="midnightblue" stroke="midnightblue" points="2204.79,-195.208 2194.2,-195.523 2202.68,-201.881 2204.79,-195.208"/>
</g>
<!-- Node43&#45;&gt;Node38 -->
<g id="edge142" class="edge"><title>Node43&#45;&gt;Node38</title>
<path fill="none" stroke="midnightblue" d="M2099.02,-290.362C2109.43,-281.859 2124.22,-269.779 2136.26,-259.947"/>
<polygon fill="midnightblue" stroke="midnightblue" points="2138.53,-262.608 2144.06,-253.571 2134.1,-257.187 2138.53,-262.608"/>
</g>
<!-- Node43&#45;&gt;Node42 -->
<g id="edge144" class="edge"><title>Node43&#45;&gt;Node42</title>
<path fill="none" stroke="midnightblue" d="M2079.25,-290.403C2071.1,-276.146 2059.82,-250.453 2071,-232 2080,-217.143 2095.41,-206.76 2110.96,-199.608"/>
<polygon fill="midnightblue" stroke="midnightblue" points="2112.73,-202.658 2120.6,-195.561 2110.03,-196.203 2112.73,-202.658"/>
</g>
<!-- Node44&#45;&gt;Node9 -->
<g id="edge154" class="edge"><title>Node44&#45;&gt;Node9</title>
<path fill="none" stroke="midnightblue" d="M1790.34,-235.586C1693.72,-226.352 1523.67,-210.076 1378,-196 1366.12,-194.852 1353.54,-193.632 1341.25,-192.438"/>
<polygon fill="midnightblue" stroke="midnightblue" points="1341.32,-188.927 1331.02,-191.443 1340.64,-195.895 1341.32,-188.927"/>
</g>
<!-- Node44&#45;&gt;Node25 -->
<g id="edge156" class="edge"><title>Node44&#45;&gt;Node25</title>
<path fill="none" stroke="midnightblue" d="M1913.79,-232.432C1937.38,-225.21 1965.42,-213.67 1986,-196 2039.95,-149.668 2013.18,-104.491 2067,-58 2084.6,-42.7942 2107.77,-32.0871 2128.76,-24.7751"/>
<polygon fill="midnightblue" stroke="midnightblue" points="2130.14,-28.0057 2138.55,-21.5522 2127.95,-21.3573 2130.14,-28.0057"/>
</g>
<!-- Node44&#45;&gt;Node33 -->
<g id="edge158" class="edge"><title>Node44&#45;&gt;Node33</title>
<path fill="none" stroke="midnightblue" d="M1913.45,-232.449C1947.83,-223.968 1995.96,-211.018 2037,-196 2181.36,-143.172 2345.7,-60.202 2411.03,-26.2518"/>
<polygon fill="midnightblue" stroke="midnightblue" points="2412.68,-29.3351 2419.93,-21.6078 2409.45,-23.1284 2412.68,-29.3351"/>
</g>
<!-- Node44&#45;&gt;Node34 -->
<g id="edge160" class="edge"><title>Node44&#45;&gt;Node34</title>
<path fill="none" stroke="midnightblue" d="M1918.52,-232.417C1946.61,-225.044 1981.36,-213.364 2009,-196 2081.39,-150.521 2070.33,-103.033 2143,-58 2160.38,-47.2279 2209.3,-32.5912 2245.97,-22.5288"/>
<polygon fill="midnightblue" stroke="midnightblue" points="2247.21,-25.8171 2255.95,-19.819 2245.38,-19.0616 2247.21,-25.8171"/>
</g>
<!-- Node44&#45;&gt;Node42 -->
<g id="edge152" class="edge"><title>Node44&#45;&gt;Node42</title>
<path fill="none" stroke="midnightblue" d="M1921.06,-232.497C1970.95,-222.622 2045.64,-207.835 2098.42,-197.389"/>
<polygon fill="midnightblue" stroke="midnightblue" points="2099.2,-200.801 2108.33,-195.425 2097.85,-193.934 2099.2,-200.801"/>
</g>
<!-- Node45 -->
<g id="node120" class="node"><title>Node45</title>
<polygon fill="white" stroke="#bfbfbf" points="1457,-174.5 1457,-195.5 1531,-195.5 1531,-174.5 1457,-174.5"/>
<text text-anchor="middle" x="1494" y="-182.5" font-family="Helvetica,sans-Serif" font-size="10.00">gurobi_c++.h</text>
</g>
<!-- Node44&#45;&gt;Node45 -->
<g id="edge150" class="edge"><title>Node44&#45;&gt;Node45</title>
<path fill="none" stroke="midnightblue" d="M1790.46,-233.94C1726.13,-225.953 1632.08,-213.189 1541.03,-196.07"/>
<polygon fill="midnightblue" stroke="midnightblue" points="1541.57,-192.61 1531.09,-194.181 1540.26,-199.487 1541.57,-192.61"/>
</g>
<!-- Node46 -->
<g id="node127" class="node"><title>Node46</title>
<polygon fill="white" stroke="#bfbfbf" points="1549,-174.5 1549,-195.5 1719,-195.5 1719,-174.5 1549,-174.5"/>
<text text-anchor="middle" x="1634" y="-182.5" font-family="Helvetica,sans-Serif" font-size="10.00">unsupported/Eigen/MatrixFunctions</text>
</g>
<!-- Node44&#45;&gt;Node46 -->
<g id="edge162" class="edge"><title>Node44&#45;&gt;Node46</title>
<path fill="none" stroke="midnightblue" d="M1825.62,-232.497C1786.49,-222.795 1728.22,-208.355 1686.22,-197.945"/>
<polygon fill="midnightblue" stroke="midnightblue" points="1687,-194.532 1676.46,-195.523 1685.32,-201.326 1687,-194.532"/>
</g>
<!-- Node47 -->
<g id="node129" class="node"><title>Node47</title>
<a xlink:href="MIQPLinearConstraints_8h.html" target="_top" xlink:title="walking&#45;client/constraints/MIQPLinearConstraints.h">
<polygon fill="white" stroke="red" points="1737,-174.5 1737,-195.5 1977,-195.5 1977,-174.5 1737,-174.5"/>
<text text-anchor="middle" x="1857" y="-182.5" font-family="Helvetica,sans-Serif" font-size="10.00">walking&#45;client/constraints/MIQPLinearConstraints.h</text>
</a>
</g>
<!-- Node44&#45;&gt;Node47 -->
<g id="edge164" class="edge"><title>Node44&#45;&gt;Node47</title>
<path fill="none" stroke="midnightblue" d="M1865.98,-232.362C1864.56,-224.84 1862.6,-214.519 1860.87,-205.431"/>
<polygon fill="midnightblue" stroke="midnightblue" points="1864.31,-204.743 1859,-195.571 1857.43,-206.048 1864.31,-204.743"/>
</g>
<!-- Node49 -->
<g id="node133" class="node"><title>Node49</title>
<polygon fill="white" stroke="#bfbfbf" points="1386.5,-174.5 1386.5,-195.5 1439.5,-195.5 1439.5,-174.5 1386.5,-174.5"/>
<text text-anchor="middle" x="1413" y="-182.5" font-family="Helvetica,sans-Serif" font-size="10.00">Gurobi.h</text>
</g>
<!-- Node44&#45;&gt;Node49 -->
<g id="edge168" class="edge"><title>Node44&#45;&gt;Node49</title>
<path fill="none" stroke="midnightblue" d="M1790.26,-238.805C1707.65,-233.332 1573.23,-221.528 1449.63,-196.047"/>
<polygon fill="midnightblue" stroke="midnightblue" points="1450.12,-192.573 1439.61,-193.946 1448.68,-199.424 1450.12,-192.573"/>
</g>
<!-- Node48 -->
<g id="node131" class="node"><title>Node48</title>
<a xlink:href="ShapeConstraints_8h.html" target="_top" xlink:title="walking&#45;client/constraints/ShapeConstraints.h">
<polygon fill="white" stroke="red" points="1749,-116.5 1749,-137.5 1965,-137.5 1965,-116.5 1749,-116.5"/>
<text text-anchor="middle" x="1857" y="-124.5" font-family="Helvetica,sans-Serif" font-size="10.00">walking&#45;client/constraints/ShapeConstraints.h</text>
</a>
</g>
<!-- Node47&#45;&gt;Node48 -->
<g id="edge166" class="edge"><title>Node47&#45;&gt;Node48</title>
<path fill="none" stroke="midnightblue" d="M1857,-174.362C1857,-166.922 1857,-156.743 1857,-147.728"/>
<polygon fill="midnightblue" stroke="midnightblue" points="1860.5,-147.571 1857,-137.571 1853.5,-147.571 1860.5,-147.571"/>
</g>
</g>
</svg>
