<?xml version="1.0" encoding="UTF-8" standalone="no"?>
<!DOCTYPE svg PUBLIC "-//W3C//DTD SVG 1.1//EN"
 "http://www.w3.org/Graphics/SVG/1.1/DTD/svg11.dtd">
<!-- Generated by graphviz version 2.26.3 (20100126.1600)
 -->
<!-- Title: G Pages: 1 -->
<svg width="2584pt" height="436pt"
 viewBox="0.00 0.00 2584.00 436.00" xmlns="http://www.w3.org/2000/svg" xmlns:xlink="http://www.w3.org/1999/xlink">
<g id="graph1" class="graph" transform="scale(1 1) rotate(0) translate(4 432)">
<title>G</title>
<polygon fill="white" stroke="white" points="-4,5 -4,-432 2581,-432 2581,5 -4,5"/>
<!-- Node1 -->
<g id="node1" class="node"><title>Node1</title>
<polygon fill="#bfbfbf" stroke="black" points="846.5,-406.5 846.5,-427.5 1129.5,-427.5 1129.5,-406.5 846.5,-406.5"/>
<text text-anchor="middle" x="988" y="-414.5" font-family="Helvetica,sans-Serif" font-size="10.00">ocra&#45;wbi&#45;plugins/ocra&#45;icub&#45;clients/walking&#45;client/src/main.cpp</text>
</g>
<!-- Node2 -->
<g id="node3" class="node"><title>Node2</title>
<polygon fill="white" stroke="#bfbfbf" points="217.5,-0.5 217.5,-21.5 346.5,-21.5 346.5,-0.5 217.5,-0.5"/>
<text text-anchor="middle" x="282" y="-8.5" font-family="Helvetica,sans-Serif" font-size="10.00">yarp/os/ResourceFinder.h</text>
</g>
<!-- Node1&#45;&gt;Node2 -->
<g id="edge2" class="edge"><title>Node1&#45;&gt;Node2</title>
<path fill="none" stroke="midnightblue" d="M846.178,-409.316C627.763,-395.556 234,-362.255 234,-301 234,-301 234,-301 234,-243 234,-163.503 261.361,-71.801 274.768,-31.6387"/>
<polygon fill="midnightblue" stroke="midnightblue" points="278.16,-32.5352 278.072,-21.9407 271.534,-30.2778 278.16,-32.5352"/>
</g>
<!-- Node3 -->
<g id="node5" class="node"><title>Node3</title>
<polygon fill="white" stroke="#bfbfbf" points="261.5,-174.5 261.5,-195.5 358.5,-195.5 358.5,-174.5 261.5,-174.5"/>
<text text-anchor="middle" x="310" y="-182.5" font-family="Helvetica,sans-Serif" font-size="10.00">yarp/os/Network.h</text>
</g>
<!-- Node1&#45;&gt;Node3 -->
<g id="edge4" class="edge"><title>Node1&#45;&gt;Node3</title>
<path fill="none" stroke="midnightblue" d="M922.934,-406.466C812.488,-386.932 583.08,-339.132 406,-254 377.286,-240.195 348.098,-217.763 329.568,-202.241"/>
<polygon fill="midnightblue" stroke="midnightblue" points="331.723,-199.479 321.844,-195.651 327.18,-204.805 331.723,-199.479"/>
</g>
<!-- Node4 -->
<g id="node7" class="node"><title>Node4</title>
<polygon fill="white" stroke="#bfbfbf" points="124,-0.5 124,-21.5 200,-21.5 200,-0.5 124,-0.5"/>
<text text-anchor="middle" x="162" y="-8.5" font-family="Helvetica,sans-Serif" font-size="10.00">yarp/os/Log.h</text>
</g>
<!-- Node1&#45;&gt;Node4 -->
<g id="edge6" class="edge"><title>Node1&#45;&gt;Node4</title>
<path fill="none" stroke="midnightblue" d="M846.345,-414.019C680.857,-409.306 417.643,-397.638 323,-370 261.338,-351.993 196,-365.237 196,-301 196,-301 196,-301 196,-127 196,-92.0581 181.618,-53.499 171.561,-30.8087"/>
<polygon fill="midnightblue" stroke="midnightblue" points="174.671,-29.1928 167.312,-21.57 168.311,-32.1177 174.671,-29.1928"/>
</g>
<!-- Node5 -->
<g id="node9" class="node"><title>Node5</title>
<polygon fill="white" stroke="#bfbfbf" points="-0.5,-0.5 -0.5,-21.5 106.5,-21.5 106.5,-0.5 -0.5,-0.5"/>
<text text-anchor="middle" x="53" y="-8.5" font-family="Helvetica,sans-Serif" font-size="10.00">yarp/os/LogStream.h</text>
</g>
<!-- Node1&#45;&gt;Node5 -->
<g id="edge8" class="edge"><title>Node1&#45;&gt;Node5</title>
<path fill="none" stroke="midnightblue" d="M846.278,-415.212C657.924,-411.646 335.659,-401.076 222,-370 157.003,-352.229 87,-368.383 87,-301 87,-301 87,-301 87,-127 87,-92.0581 72.6177,-53.499 62.5614,-30.8087"/>
<polygon fill="midnightblue" stroke="midnightblue" points="65.6707,-29.1928 58.3125,-21.57 59.311,-32.1177 65.6707,-29.1928"/>
</g>
<!-- Node6 -->
<g id="node11" class="node"><title>Node6</title>
<polygon fill="white" stroke="#bfbfbf" points="2494,-0.5 2494,-21.5 2576,-21.5 2576,-0.5 2494,-0.5"/>
<text text-anchor="middle" x="2535" y="-8.5" font-family="Helvetica,sans-Serif" font-size="10.00">yarp/os/Time.h</text>
</g>
<!-- Node1&#45;&gt;Node6 -->
<g id="edge10" class="edge"><title>Node1&#45;&gt;Node6</title>
<path fill="none" stroke="midnightblue" d="M1041.75,-406.478C1124.09,-388.801 1272,-350.199 1272,-301 1272,-301 1272,-301 1272,-127 1272,24.579 1455.55,-76.496 1606,-58 1990.76,-10.6978 2095.46,-71.1483 2483.8,-21.9385"/>
<polygon fill="midnightblue" stroke="midnightblue" points="2484.43,-25.3862 2493.9,-20.6415 2483.54,-18.4432 2484.43,-25.3862"/>
</g>
<!-- Node7 -->
<g id="node13" class="node"><title>Node7</title>
<a xlink:href="IcubClient_8h.html" target="_top" xlink:title="ocra&#45;icub/IcubClient.h">
<polygon fill="white" stroke="black" points="932,-290.5 932,-311.5 1044,-311.5 1044,-290.5 932,-290.5"/>
<text text-anchor="middle" x="988" y="-298.5" font-family="Helvetica,sans-Serif" font-size="10.00">ocra&#45;icub/IcubClient.h</text>
</a>
</g>
<!-- Node1&#45;&gt;Node7 -->
<g id="edge12" class="edge"><title>Node1&#45;&gt;Node7</title>
<path fill="none" stroke="midnightblue" d="M988,-406.295C988,-387.131 988,-346.654 988,-321.843"/>
<polygon fill="midnightblue" stroke="midnightblue" points="991.5,-321.679 988,-311.679 984.5,-321.679 991.5,-321.679"/>
</g>
<!-- Node35 -->
<g id="node92" class="node"><title>Node35</title>
<polygon fill="white" stroke="#bfbfbf" points="2061.5,-290.5 2061.5,-311.5 2210.5,-311.5 2210.5,-290.5 2061.5,-290.5"/>
<text text-anchor="middle" x="2136" y="-298.5" font-family="Helvetica,sans-Serif" font-size="10.00">ocra&#45;recipes/ControllerClient.h</text>
</g>
<!-- Node1&#45;&gt;Node35 -->
<g id="edge114" class="edge"><title>Node1&#45;&gt;Node35</title>
<path fill="none" stroke="midnightblue" d="M1129.79,-414.07C1290.65,-409.446 1542.4,-397.905 1633,-370 1651.65,-364.256 1652.41,-353.942 1671,-348 1830.34,-297.068 1881.61,-329.899 2051.34,-312.121"/>
<polygon fill="midnightblue" stroke="midnightblue" points="2051.8,-315.592 2061.36,-311.027 2051.04,-308.633 2051.8,-315.592"/>
</g>
<!-- Node36 -->
<g id="node94" class="node"><title>Node36</title>
<polygon fill="white" stroke="#bfbfbf" points="1680,-348.5 1680,-369.5 1824,-369.5 1824,-348.5 1680,-348.5"/>
<text text-anchor="middle" x="1752" y="-356.5" font-family="Helvetica,sans-Serif" font-size="10.00">ocra&#45;recipes/ClientManager.h</text>
</g>
<!-- Node1&#45;&gt;Node36 -->
<g id="edge116" class="edge"><title>Node1&#45;&gt;Node36</title>
<path fill="none" stroke="midnightblue" d="M1129.74,-409.573C1267.05,-401.813 1481.06,-388.222 1666,-370 1667.26,-369.875 1668.54,-369.747 1669.82,-369.616"/>
<polygon fill="midnightblue" stroke="midnightblue" points="1670.2,-373.095 1679.77,-368.547 1669.46,-366.135 1670.2,-373.095"/>
</g>
<!-- Node37 -->
<g id="node96" class="node"><title>Node37</title>
<a xlink:href="WalkingClient_8h.html" target="_top" xlink:title="walking&#45;client/WalkingClient.h">
<polygon fill="white" stroke="black" points="1476,-348.5 1476,-369.5 1624,-369.5 1624,-348.5 1476,-348.5"/>
<text text-anchor="middle" x="1550" y="-356.5" font-family="Helvetica,sans-Serif" font-size="10.00">walking&#45;client/WalkingClient.h</text>
</a>
</g>
<!-- Node1&#45;&gt;Node37 -->
<g id="edge118" class="edge"><title>Node1&#45;&gt;Node37</title>
<path fill="none" stroke="midnightblue" d="M1089.77,-406.497C1197.42,-395.387 1365.29,-378.063 1465.77,-367.693"/>
<polygon fill="midnightblue" stroke="midnightblue" points="1466.29,-371.158 1475.88,-366.65 1465.57,-364.195 1466.29,-371.158"/>
</g>
<!-- Node8 -->
<g id="node15" class="node"><title>Node8</title>
<a xlink:href="ModelInitializer_8h.html" target="_top" xlink:title="ocra&#45;icub/ModelInitializer.h">
<polygon fill="white" stroke="black" points="414.5,-232.5 414.5,-253.5 547.5,-253.5 547.5,-232.5 414.5,-232.5"/>
<text text-anchor="middle" x="481" y="-240.5" font-family="Helvetica,sans-Serif" font-size="10.00">ocra&#45;icub/ModelInitializer.h</text>
</a>
</g>
<!-- Node7&#45;&gt;Node8 -->
<g id="edge14" class="edge"><title>Node7&#45;&gt;Node8</title>
<path fill="none" stroke="midnightblue" d="M931.805,-294.571C840.733,-284.153 660.749,-263.563 557.885,-251.796"/>
<polygon fill="midnightblue" stroke="midnightblue" points="558.205,-248.309 547.872,-250.65 557.409,-255.264 558.205,-248.309"/>
</g>
<!-- Node9 -->
<g id="node17" class="node"><title>Node9</title>
<a xlink:href="OcraWbiModel_8h.html" target="_top" xlink:title="Implementation of ocra::Model using wholeBodyInterface.">
<polygon fill="white" stroke="black" points="538,-174.5 538,-195.5 670,-195.5 670,-174.5 538,-174.5"/>
<text text-anchor="middle" x="604" y="-182.5" font-family="Helvetica,sans-Serif" font-size="10.00">ocra&#45;icub/OcraWbiModel.h</text>
</a>
</g>
<!-- Node7&#45;&gt;Node9 -->
<g id="edge110" class="edge"><title>Node7&#45;&gt;Node9</title>
<path fill="none" stroke="midnightblue" d="M952.905,-290.398C882.914,-269.255 726.075,-221.877 648.789,-198.53"/>
<polygon fill="midnightblue" stroke="midnightblue" points="649.46,-195.077 638.875,-195.535 647.436,-201.777 649.46,-195.077"/>
</g>
<!-- Node13 -->
<g id="node26" class="node"><title>Node13</title>
<a xlink:href="OcraWbiConversions_8h.html" target="_top" xlink:title="A utility class full of static conversion functions.">
<polygon fill="white" stroke="black" points="907.5,-116.5 907.5,-137.5 1068.5,-137.5 1068.5,-116.5 907.5,-116.5"/>
<text text-anchor="middle" x="988" y="-124.5" font-family="Helvetica,sans-Serif" font-size="10.00">ocra&#45;icub/OcraWbiConversions.h</text>
</a>
</g>
<!-- Node7&#45;&gt;Node13 -->
<g id="edge108" class="edge"><title>Node7&#45;&gt;Node13</title>
<path fill="none" stroke="midnightblue" d="M988,-290.377C988,-262.293 988,-185.673 988,-148.203"/>
<polygon fill="midnightblue" stroke="midnightblue" points="991.5,-147.928 988,-137.928 984.5,-147.928 991.5,-147.928"/>
</g>
<!-- Node19 -->
<g id="node40" class="node"><title>Node19</title>
<a xlink:href="Utilities_8h.html" target="_top" xlink:title="Some useful tools for the ocra&#45;icub lib.">
<polygon fill="white" stroke="black" points="1105.5,-58.5 1105.5,-79.5 1206.5,-79.5 1206.5,-58.5 1105.5,-58.5"/>
<text text-anchor="middle" x="1156" y="-66.5" font-family="Helvetica,sans-Serif" font-size="10.00">ocra&#45;icub/Utilities.h</text>
</a>
</g>
<!-- Node7&#45;&gt;Node19 -->
<g id="edge112" class="edge"><title>Node7&#45;&gt;Node19</title>
<path fill="none" stroke="midnightblue" d="M995.846,-290.355C1014.96,-264.394 1065.44,-195.72 1107,-138 1119.11,-121.177 1132.76,-101.938 1142.57,-88.0569"/>
<polygon fill="midnightblue" stroke="midnightblue" points="1145.5,-89.9757 1148.4,-79.7876 1139.78,-85.9388 1145.5,-89.9757"/>
</g>
<!-- Node8&#45;&gt;Node3 -->
<g id="edge102" class="edge"><title>Node8&#45;&gt;Node3</title>
<path fill="none" stroke="midnightblue" d="M450.033,-232.497C422.156,-223.041 381.003,-209.083 350.518,-198.743"/>
<polygon fill="midnightblue" stroke="midnightblue" points="351.619,-195.421 341.025,-195.523 349.371,-202.05 351.619,-195.421"/>
</g>
<!-- Node8&#45;&gt;Node4 -->
<g id="edge106" class="edge"><title>Node8&#45;&gt;Node4</title>
<path fill="none" stroke="midnightblue" d="M469.25,-232.308C453.775,-218.388 425.529,-193.53 400,-174 325.173,-116.757 231.8,-55.6244 187.544,-27.2295"/>
<polygon fill="midnightblue" stroke="midnightblue" points="189.18,-24.1211 178.87,-21.6804 185.407,-30.0177 189.18,-24.1211"/>
</g>
<!-- Node8&#45;&gt;Node5 -->
<g id="edge104" class="edge"><title>Node8&#45;&gt;Node5</title>
<path fill="none" stroke="midnightblue" d="M462.144,-232.499C445.601,-223.182 420.979,-209.062 400,-196 385.036,-186.683 382.178,-182.963 367,-174 266.508,-114.659 142.211,-53.611 84.8061,-26.0804"/>
<polygon fill="midnightblue" stroke="midnightblue" points="86.0639,-22.8024 75.5324,-21.6457 83.044,-29.1175 86.0639,-22.8024"/>
</g>
<!-- Node8&#45;&gt;Node9 -->
<g id="edge16" class="edge"><title>Node8&#45;&gt;Node9</title>
<path fill="none" stroke="midnightblue" d="M503.274,-232.497C522.572,-223.397 550.713,-210.127 572.348,-199.925"/>
<polygon fill="midnightblue" stroke="midnightblue" points="573.924,-203.052 581.476,-195.621 570.938,-196.721 573.924,-203.052"/>
</g>
<!-- Node11 -->
<g id="node21" class="node"><title>Node11</title>
<polygon fill="white" stroke="#bfbfbf" points="363.5,-0.5 363.5,-21.5 468.5,-21.5 468.5,-0.5 363.5,-0.5"/>
<text text-anchor="middle" x="416" y="-8.5" font-family="Helvetica,sans-Serif" font-size="10.00">ocra/control/Model.h</text>
</g>
<!-- Node8&#45;&gt;Node11 -->
<g id="edge96" class="edge"><title>Node8&#45;&gt;Node11</title>
<path fill="none" stroke="midnightblue" d="M478.038,-232.429C467.992,-196.573 435.099,-79.1689 421.728,-31.4458"/>
<polygon fill="midnightblue" stroke="midnightblue" points="425.047,-30.3185 418.979,-21.6335 418.307,-32.207 425.047,-30.3185"/>
</g>
<!-- Node18 -->
<g id="node38" class="node"><title>Node18</title>
<polygon fill="white" stroke="#bfbfbf" points="642,-58.5 642,-79.5 884,-79.5 884,-58.5 642,-58.5"/>
<text text-anchor="middle" x="763" y="-66.5" font-family="Helvetica,sans-Serif" font-size="10.00">yarpWholeBodyInterface/yarpWholeBodyInterface.h</text>
</g>
<!-- Node8&#45;&gt;Node18 -->
<g id="edge98" class="edge"><title>Node8&#45;&gt;Node18</title>
<path fill="none" stroke="midnightblue" d="M547.544,-232.605C596.429,-223.98 657.857,-210.77 679,-196 717.795,-168.9 743.408,-117.599 755.305,-89.1951"/>
<polygon fill="midnightblue" stroke="midnightblue" points="758.578,-90.4374 759.066,-79.8538 752.084,-87.8228 758.578,-90.4374"/>
</g>
<!-- Node27 -->
<g id="node60" class="node"><title>Node27</title>
<polygon fill="white" stroke="#bfbfbf" points="486,-0.5 486,-21.5 590,-21.5 590,-0.5 486,-0.5"/>
<text text-anchor="middle" x="538" y="-8.5" font-family="Helvetica,sans-Serif" font-size="10.00">yarp/os/RpcClient.h</text>
</g>
<!-- Node8&#45;&gt;Node27 -->
<g id="edge100" class="edge"><title>Node8&#45;&gt;Node27</title>
<path fill="none" stroke="midnightblue" d="M483.597,-232.429C492.407,-196.573 521.252,-79.1689 532.977,-31.4458"/>
<polygon fill="midnightblue" stroke="midnightblue" points="536.4,-32.1798 535.387,-21.6335 529.603,-30.5096 536.4,-32.1798"/>
</g>
<!-- Node9&#45;&gt;Node4 -->
<g id="edge24" class="edge"><title>Node9&#45;&gt;Node4</title>
<path fill="none" stroke="midnightblue" d="M577.016,-174.377C500.946,-144.431 284.696,-59.3012 198.305,-25.292"/>
<polygon fill="midnightblue" stroke="midnightblue" points="199.498,-22.0002 188.911,-21.5938 196.934,-28.5137 199.498,-22.0002"/>
</g>
<!-- Node10 -->
<g id="node19" class="node"><title>Node10</title>
<polygon fill="white" stroke="#bfbfbf" points="608,-0.5 608,-21.5 660,-21.5 660,-0.5 608,-0.5"/>
<text text-anchor="middle" x="634" y="-8.5" font-family="Helvetica,sans-Serif" font-size="10.00">memory</text>
</g>
<!-- Node9&#45;&gt;Node10 -->
<g id="edge18" class="edge"><title>Node9&#45;&gt;Node10</title>
<path fill="none" stroke="midnightblue" d="M601.327,-174.46C596.198,-152.264 586.613,-99.3441 600,-58 603.362,-47.6178 609.969,-37.604 616.472,-29.5068"/>
<polygon fill="midnightblue" stroke="midnightblue" points="619.208,-31.693 623.071,-21.8274 613.899,-27.1309 619.208,-31.693"/>
</g>
<!-- Node9&#45;&gt;Node11 -->
<g id="edge20" class="edge"><title>Node9&#45;&gt;Node11</title>
<path fill="none" stroke="midnightblue" d="M594.106,-174.374C573.114,-152.014 522.242,-98.8024 476,-58 464.14,-47.5354 450.275,-36.5964 438.862,-27.9075"/>
<polygon fill="midnightblue" stroke="midnightblue" points="440.78,-24.9698 430.687,-21.7467 436.567,-30.5602 440.78,-24.9698"/>
</g>
<!-- Node12 -->
<g id="node23" class="node"><title>Node12</title>
<polygon fill="white" stroke="#bfbfbf" points="678,-0.5 678,-21.5 736,-21.5 736,-0.5 678,-0.5"/>
<text text-anchor="middle" x="707" y="-8.5" font-family="Helvetica,sans-Serif" font-size="10.00">wbi/wbi.h</text>
</g>
<!-- Node9&#45;&gt;Node12 -->
<g id="edge22" class="edge"><title>Node9&#45;&gt;Node12</title>
<path fill="none" stroke="midnightblue" d="M603.812,-174.384C603.918,-151.114 607.044,-94.7671 633,-58 642.576,-44.4351 657.431,-33.8958 671.325,-26.267"/>
<polygon fill="midnightblue" stroke="midnightblue" points="672.963,-29.3605 680.252,-21.6715 669.759,-23.1368 672.963,-29.3605"/>
</g>
<!-- Node9&#45;&gt;Node13 -->
<g id="edge26" class="edge"><title>Node9&#45;&gt;Node13</title>
<path fill="none" stroke="midnightblue" d="M670.012,-175.029C736.028,-165.058 837.622,-149.713 908.142,-139.062"/>
<polygon fill="midnightblue" stroke="midnightblue" points="908.948,-142.48 918.313,-137.526 907.902,-135.559 908.948,-142.48"/>
</g>
<!-- Node9&#45;&gt;Node19 -->
<g id="edge94" class="edge"><title>Node9&#45;&gt;Node19</title>
<path fill="none" stroke="midnightblue" d="M670.424,-183.364C782.908,-179.775 1005.62,-168.895 1077,-138 1102.9,-126.789 1126.4,-103.863 1140.9,-87.5153"/>
<polygon fill="midnightblue" stroke="midnightblue" points="1143.78,-89.5327 1147.64,-79.6631 1138.47,-84.976 1143.78,-89.5327"/>
</g>
<!-- Node13&#45;&gt;Node4 -->
<g id="edge36" class="edge"><title>Node13&#45;&gt;Node4</title>
<path fill="none" stroke="midnightblue" d="M973.624,-116.228C948.212,-97.2343 897.588,-59.6247 893,-58 752.464,-8.22786 375.58,-41.9775 210.217,-21.8524"/>
<polygon fill="midnightblue" stroke="midnightblue" points="210.485,-18.3575 200.112,-20.5162 209.567,-25.2971 210.485,-18.3575"/>
</g>
<!-- Node13&#45;&gt;Node12 -->
<g id="edge38" class="edge"><title>Node13&#45;&gt;Node12</title>
<path fill="none" stroke="midnightblue" d="M981.676,-116.417C971.836,-100.943 951.332,-72.422 926,-58 857.506,-19.0049 827.097,-39.6444 746.478,-22.1111"/>
<polygon fill="midnightblue" stroke="midnightblue" points="746.924,-18.6217 736.392,-19.777 745.345,-25.4415 746.924,-18.6217"/>
</g>
<!-- Node14 -->
<g id="node28" class="node"><title>Node14</title>
<polygon fill="white" stroke="#bfbfbf" points="862,-0.5 862,-21.5 916,-21.5 916,-0.5 862,-0.5"/>
<text text-anchor="middle" x="889" y="-8.5" font-family="Helvetica,sans-Serif" font-size="10.00">iostream</text>
</g>
<!-- Node13&#45;&gt;Node14 -->
<g id="edge28" class="edge"><title>Node13&#45;&gt;Node14</title>
<path fill="none" stroke="midnightblue" d="M994.745,-116.24C1002.84,-101.798 1013.94,-75.8961 1002,-58 997.438,-51.1618 957.099,-35.4163 925.904,-24.0311"/>
<polygon fill="midnightblue" stroke="midnightblue" points="926.749,-20.6147 916.155,-20.5047 924.368,-27.1974 926.749,-20.6147"/>
</g>
<!-- Node15 -->
<g id="node30" class="node"><title>Node15</title>
<polygon fill="white" stroke="#bfbfbf" points="1053.5,-58.5 1053.5,-79.5 1088.5,-79.5 1088.5,-58.5 1053.5,-58.5"/>
<text text-anchor="middle" x="1071" y="-66.5" font-family="Helvetica,sans-Serif" font-size="10.00">map</text>
</g>
<!-- Node13&#45;&gt;Node15 -->
<g id="edge30" class="edge"><title>Node13&#45;&gt;Node15</title>
<path fill="none" stroke="midnightblue" d="M1003.22,-116.362C1015.63,-107.696 1033.35,-95.3126 1047.56,-85.3819"/>
<polygon fill="midnightblue" stroke="midnightblue" points="1049.68,-88.1676 1055.87,-79.5707 1045.67,-82.4297 1049.68,-88.1676"/>
</g>
<!-- Node16 -->
<g id="node32" class="node"><title>Node16</title>
<polygon fill="white" stroke="#bfbfbf" points="2342,-0.5 2342,-21.5 2386,-21.5 2386,-0.5 2342,-0.5"/>
<text text-anchor="middle" x="2364" y="-8.5" font-family="Helvetica,sans-Serif" font-size="10.00">vector</text>
</g>
<!-- Node13&#45;&gt;Node16 -->
<g id="edge32" class="edge"><title>Node13&#45;&gt;Node16</title>
<path fill="none" stroke="midnightblue" d="M1064.27,-116.462C1108.99,-108.996 1166.12,-97.2085 1215,-80 1235.25,-72.8706 1237.22,-63.3774 1258,-58 1486.24,1.05536 2081.58,-64.6452 2331.68,-21.6222"/>
<polygon fill="midnightblue" stroke="midnightblue" points="2332.66,-25.0005 2341.88,-19.7698 2331.41,-18.1132 2332.66,-25.0005"/>
</g>
<!-- Node17 -->
<g id="node34" class="node"><title>Node17</title>
<polygon fill="white" stroke="#bfbfbf" points="753.5,-0.5 753.5,-21.5 844.5,-21.5 844.5,-0.5 753.5,-0.5"/>
<text text-anchor="middle" x="799" y="-8.5" font-family="Helvetica,sans-Serif" font-size="10.00">yarp/sig/Vector.h</text>
</g>
<!-- Node13&#45;&gt;Node17 -->
<g id="edge34" class="edge"><title>Node13&#45;&gt;Node17</title>
<path fill="none" stroke="midnightblue" d="M987.272,-116.259C985.663,-101.111 980.506,-73.5874 964,-58 955.746,-50.205 898.795,-35.0234 854.082,-24.0189"/>
<polygon fill="midnightblue" stroke="midnightblue" points="854.718,-20.5715 844.173,-21.5987 853.057,-27.3716 854.718,-20.5715"/>
</g>
<!-- Node13&#45;&gt;Node18 -->
<g id="edge40" class="edge"><title>Node13&#45;&gt;Node18</title>
<path fill="none" stroke="midnightblue" d="M947.254,-116.497C909.779,-106.836 854.073,-92.4765 813.728,-82.0765"/>
<polygon fill="midnightblue" stroke="midnightblue" points="814.379,-78.6301 803.822,-79.5231 812.632,-85.4085 814.379,-78.6301"/>
</g>
<!-- Node13&#45;&gt;Node19 -->
<g id="edge42" class="edge"><title>Node13&#45;&gt;Node19</title>
<path fill="none" stroke="midnightblue" d="M1018.42,-116.497C1045.69,-107.082 1085.89,-93.2036 1115.8,-82.8773"/>
<polygon fill="midnightblue" stroke="midnightblue" points="1117.21,-86.0949 1125.52,-79.5231 1114.92,-79.4781 1117.21,-86.0949"/>
</g>
<!-- Node19&#45;&gt;Node2 -->
<g id="edge62" class="edge"><title>Node19&#45;&gt;Node2</title>
<path fill="none" stroke="midnightblue" d="M1105.22,-59.0792C1102.44,-58.6788 1099.69,-58.3146 1097,-58 772.431,-20.048 685.328,-53.9297 357.115,-22.1272"/>
<polygon fill="midnightblue" stroke="midnightblue" points="357.13,-18.6119 346.836,-21.1174 356.446,-25.5784 357.13,-18.6119"/>
</g>
<!-- Node19&#45;&gt;Node4 -->
<g id="edge74" class="edge"><title>Node19&#45;&gt;Node4</title>
<path fill="none" stroke="midnightblue" d="M1105.22,-59.0533C1102.45,-58.6596 1099.69,-58.3039 1097,-58 707.856,-14.0667 602.186,-74.2004 210.303,-21.932"/>
<polygon fill="midnightblue" stroke="midnightblue" points="210.485,-18.4249 200.107,-20.5554 209.549,-25.362 210.485,-18.4249"/>
</g>
<!-- Node19&#45;&gt;Node5 -->
<g id="edge76" class="edge"><title>Node19&#45;&gt;Node5</title>
<path fill="none" stroke="midnightblue" d="M1105.22,-59.0407C1102.45,-58.6502 1099.69,-58.2987 1097,-58 666.21,-10.2101 551.019,-67.3806 116.696,-22.0537"/>
<polygon fill="midnightblue" stroke="midnightblue" points="117.016,-18.568 106.703,-20.9987 116.281,-25.5294 117.016,-18.568"/>
</g>
<!-- Node19&#45;&gt;Node6 -->
<g id="edge72" class="edge"><title>Node19&#45;&gt;Node6</title>
<path fill="none" stroke="midnightblue" d="M1206.52,-62.7632C1222.91,-60.9499 1241.21,-59.15 1258,-58 1798.97,-20.9508 1941.81,-88.0754 2483.87,-21.914"/>
<polygon fill="midnightblue" stroke="midnightblue" points="2484.41,-25.3748 2493.9,-20.68 2483.55,-18.4272 2484.41,-25.3748"/>
</g>
<!-- Node19&#45;&gt;Node10 -->
<g id="edge44" class="edge"><title>Node19&#45;&gt;Node10</title>
<path fill="none" stroke="midnightblue" d="M1105.2,-59.1946C1102.43,-58.7644 1099.68,-58.3623 1097,-58 911.053,-32.9103 858.106,-57.9553 670.141,-21.8595"/>
<polygon fill="midnightblue" stroke="midnightblue" points="670.698,-18.4022 660.212,-19.9206 669.356,-25.2724 670.698,-18.4022"/>
</g>
<!-- Node19&#45;&gt;Node11 -->
<g id="edge86" class="edge"><title>Node19&#45;&gt;Node11</title>
<path fill="none" stroke="midnightblue" d="M1105.21,-59.1103C1102.44,-58.7018 1099.69,-58.3274 1097,-58 826.349,-25.0459 752.879,-53.8301 478.767,-22.0884"/>
<polygon fill="midnightblue" stroke="midnightblue" points="478.852,-18.5744 468.512,-20.8836 478.035,-25.5266 478.852,-18.5744"/>
</g>
<!-- Node19&#45;&gt;Node12 -->
<g id="edge84" class="edge"><title>Node19&#45;&gt;Node12</title>
<path fill="none" stroke="midnightblue" d="M1105.2,-59.2531C1102.43,-58.8078 1099.68,-58.3864 1097,-58 944.539,-36.0294 901.145,-51.328 746.211,-21.96"/>
<polygon fill="midnightblue" stroke="midnightblue" points="746.813,-18.5116 736.331,-20.0559 745.488,-25.3851 746.813,-18.5116"/>
</g>
<!-- Node19&#45;&gt;Node14 -->
<g id="edge48" class="edge"><title>Node19&#45;&gt;Node14</title>
<path fill="none" stroke="midnightblue" d="M1105.46,-59.3042C1052.33,-49.016 971.267,-33.0235 925.956,-22.0393"/>
<polygon fill="midnightblue" stroke="midnightblue" points="926.598,-18.5924 916.049,-19.5687 924.905,-25.3844 926.598,-18.5924"/>
</g>
<!-- Node19&#45;&gt;Node16 -->
<g id="edge52" class="edge"><title>Node19&#45;&gt;Node16</title>
<path fill="none" stroke="midnightblue" d="M1206.57,-59.6463C1211.1,-59.0089 1215.63,-58.4445 1220,-58 1462.95,-33.3114 2073.46,-67.0119 2331.72,-21.6344"/>
<polygon fill="midnightblue" stroke="midnightblue" points="2332.67,-25.0178 2341.88,-19.773 2331.41,-18.1323 2332.67,-25.0178"/>
</g>
<!-- Node19&#45;&gt;Node17 -->
<g id="edge80" class="edge"><title>Node19&#45;&gt;Node17</title>
<path fill="none" stroke="midnightblue" d="M1105.49,-59.4532C1102.62,-58.9511 1099.77,-58.4632 1097,-58 992.045,-40.48 962.673,-40.9052 854.633,-22.2221"/>
<polygon fill="midnightblue" stroke="midnightblue" points="855.085,-18.7481 844.632,-20.4773 853.882,-25.6439 855.085,-18.7481"/>
</g>
<!-- Node20 -->
<g id="node43" class="node"><title>Node20</title>
<polygon fill="white" stroke="#bfbfbf" points="2152,-0.5 2152,-21.5 2196,-21.5 2196,-0.5 2152,-0.5"/>
<text text-anchor="middle" x="2174" y="-8.5" font-family="Helvetica,sans-Serif" font-size="10.00">cmath</text>
</g>
<!-- Node19&#45;&gt;Node20 -->
<g id="edge46" class="edge"><title>Node19&#45;&gt;Node20</title>
<path fill="none" stroke="midnightblue" d="M1206.57,-59.6776C1211.1,-59.0336 1215.63,-58.4591 1220,-58 1625,-15.4827 1738.04,-98.1739 2141.97,-21.6508"/>
<polygon fill="midnightblue" stroke="midnightblue" points="2142.71,-25.0733 2151.87,-19.7545 2141.39,-18.1982 2142.71,-25.0733"/>
</g>
<!-- Node21 -->
<g id="node46" class="node"><title>Node21</title>
<polygon fill="white" stroke="#bfbfbf" points="2213.5,-0.5 2213.5,-21.5 2254.5,-21.5 2254.5,-0.5 2213.5,-0.5"/>
<text text-anchor="middle" x="2234" y="-8.5" font-family="Helvetica,sans-Serif" font-size="10.00">string</text>
</g>
<!-- Node19&#45;&gt;Node21 -->
<g id="edge50" class="edge"><title>Node19&#45;&gt;Node21</title>
<path fill="none" stroke="midnightblue" d="M1206.57,-59.6661C1211.1,-59.0245 1215.63,-58.4537 1220,-58 1434.67,-35.7293 1974.2,-64.5482 2203.32,-21.7233"/>
<polygon fill="midnightblue" stroke="midnightblue" points="2204.19,-25.1199 2213.33,-19.7655 2202.85,-18.25 2204.19,-25.1199"/>
</g>
<!-- Node22 -->
<g id="node49" class="node"><title>Node22</title>
<polygon fill="white" stroke="#bfbfbf" points="2272,-0.5 2272,-21.5 2324,-21.5 2324,-0.5 2272,-0.5"/>
<text text-anchor="middle" x="2298" y="-8.5" font-family="Helvetica,sans-Serif" font-size="10.00">sstream</text>
</g>
<!-- Node19&#45;&gt;Node22 -->
<g id="edge54" class="edge"><title>Node19&#45;&gt;Node22</title>
<path fill="none" stroke="midnightblue" d="M1206.57,-59.6565C1211.1,-59.0169 1215.63,-58.4493 1220,-58 1678.02,-10.9536 1803.98,-98.9408 2261.63,-21.799"/>
<polygon fill="midnightblue" stroke="midnightblue" points="2262.54,-25.1937 2271.81,-20.0643 2261.37,-18.2931 2262.54,-25.1937"/>
</g>
<!-- Node23 -->
<g id="node51" class="node"><title>Node23</title>
<polygon fill="white" stroke="#bfbfbf" points="933.5,-0.5 933.5,-21.5 1048.5,-21.5 1048.5,-0.5 933.5,-0.5"/>
<text text-anchor="middle" x="991" y="-8.5" font-family="Helvetica,sans-Serif" font-size="10.00">yarp/os/BufferedPort.h</text>
</g>
<!-- Node19&#45;&gt;Node23 -->
<g id="edge56" class="edge"><title>Node19&#45;&gt;Node23</title>
<path fill="none" stroke="midnightblue" d="M1126.12,-58.4966C1099.34,-49.082 1059.86,-35.2036 1030.48,-24.8773"/>
<polygon fill="midnightblue" stroke="midnightblue" points="1031.53,-21.5374 1020.94,-21.5231 1029.21,-28.1413 1031.53,-21.5374"/>
</g>
<!-- Node24 -->
<g id="node53" class="node"><title>Node24</title>
<polygon fill="white" stroke="#bfbfbf" points="1066,-0.5 1066,-21.5 1152,-21.5 1152,-0.5 1066,-0.5"/>
<text text-anchor="middle" x="1109" y="-8.5" font-family="Helvetica,sans-Serif" font-size="10.00">yarp/os/Bottle.h</text>
</g>
<!-- Node19&#45;&gt;Node24 -->
<g id="edge58" class="edge"><title>Node19&#45;&gt;Node24</title>
<path fill="none" stroke="midnightblue" d="M1147.38,-58.3619C1140.82,-50.2678 1131.63,-38.9318 1123.89,-29.3796"/>
<polygon fill="midnightblue" stroke="midnightblue" points="1126.58,-27.1364 1117.57,-21.5707 1121.14,-31.5436 1126.58,-27.1364"/>
</g>
<!-- Node25 -->
<g id="node55" class="node"><title>Node25</title>
<polygon fill="white" stroke="#bfbfbf" points="1169.5,-0.5 1169.5,-21.5 1280.5,-21.5 1280.5,-0.5 1169.5,-0.5"/>
<text text-anchor="middle" x="1225" y="-8.5" font-family="Helvetica,sans-Serif" font-size="10.00">yarp/os/RateThread.h</text>
</g>
<!-- Node19&#45;&gt;Node25 -->
<g id="edge60" class="edge"><title>Node19&#45;&gt;Node25</title>
<path fill="none" stroke="midnightblue" d="M1168.66,-58.3619C1178.67,-49.9408 1192.87,-38.0105 1204.5,-28.2308"/>
<polygon fill="midnightblue" stroke="midnightblue" points="1207.02,-30.6844 1212.42,-21.5707 1202.52,-25.326 1207.02,-30.6844"/>
</g>
<!-- Node26 -->
<g id="node58" class="node"><title>Node26</title>
<polygon fill="white" stroke="#bfbfbf" points="1298,-0.5 1298,-21.5 1408,-21.5 1408,-0.5 1298,-0.5"/>
<text text-anchor="middle" x="1353" y="-8.5" font-family="Helvetica,sans-Serif" font-size="10.00">yarp/os/PortReader.h</text>
</g>
<!-- Node19&#45;&gt;Node26 -->
<g id="edge64" class="edge"><title>Node19&#45;&gt;Node26</title>
<path fill="none" stroke="midnightblue" d="M1191.68,-58.4966C1224.07,-48.9592 1272.02,-34.8408 1307.23,-24.475"/>
<polygon fill="midnightblue" stroke="midnightblue" points="1308.65,-27.7049 1317.26,-21.5231 1306.68,-20.9899 1308.65,-27.7049"/>
</g>
<!-- Node19&#45;&gt;Node27 -->
<g id="edge66" class="edge"><title>Node19&#45;&gt;Node27</title>
<path fill="none" stroke="midnightblue" d="M1105.21,-59.1564C1102.44,-58.736 1099.69,-58.3465 1097,-58 880.135,-30.0349 820.898,-49.1511 600.141,-22.0278"/>
<polygon fill="midnightblue" stroke="midnightblue" points="600.544,-18.551 590.187,-20.7872 599.678,-25.4972 600.544,-18.551"/>
</g>
<!-- Node28 -->
<g id="node62" class="node"><title>Node28</title>
<polygon fill="white" stroke="#bfbfbf" points="1425.5,-0.5 1425.5,-21.5 1532.5,-21.5 1532.5,-0.5 1425.5,-0.5"/>
<text text-anchor="middle" x="1479" y="-8.5" font-family="Helvetica,sans-Serif" font-size="10.00">yarp/os/RpcServer.h</text>
</g>
<!-- Node19&#45;&gt;Node28 -->
<g id="edge68" class="edge"><title>Node19&#45;&gt;Node28</title>
<path fill="none" stroke="midnightblue" d="M1206.82,-59.8737C1263.2,-49.7502 1354.25,-33.4012 1415.33,-22.4325"/>
<polygon fill="midnightblue" stroke="midnightblue" points="1416.02,-25.8651 1425.24,-20.6527 1414.78,-18.9753 1416.02,-25.8651"/>
</g>
<!-- Node29 -->
<g id="node64" class="node"><title>Node29</title>
<polygon fill="white" stroke="#bfbfbf" points="1549.5,-0.5 1549.5,-21.5 1690.5,-21.5 1690.5,-0.5 1549.5,-0.5"/>
<text text-anchor="middle" x="1620" y="-8.5" font-family="Helvetica,sans-Serif" font-size="10.00">yarp/os/ConnectionReader.h</text>
</g>
<!-- Node19&#45;&gt;Node29 -->
<g id="edge70" class="edge"><title>Node19&#45;&gt;Node29</title>
<path fill="none" stroke="midnightblue" d="M1206.61,-60.0195C1211.13,-59.3025 1215.65,-58.6177 1220,-58 1358.94,-38.2854 1396.87,-39.8191 1539.39,-22.1757"/>
<polygon fill="midnightblue" stroke="midnightblue" points="1539.89,-25.6402 1549.38,-20.9286 1539.02,-18.6941 1539.89,-25.6402"/>
</g>
<!-- Node30 -->
<g id="node69" class="node"><title>Node30</title>
<polygon fill="white" stroke="#bfbfbf" points="1707.5,-0.5 1707.5,-21.5 1804.5,-21.5 1804.5,-0.5 1707.5,-0.5"/>
<text text-anchor="middle" x="1756" y="-8.5" font-family="Helvetica,sans-Serif" font-size="10.00">yarp/os/Property.h</text>
</g>
<!-- Node19&#45;&gt;Node30 -->
<g id="edge78" class="edge"><title>Node19&#45;&gt;Node30</title>
<path fill="none" stroke="midnightblue" d="M1206.59,-59.8473C1211.12,-59.167 1215.64,-58.5378 1220,-58 1428.58,-32.2968 1485.62,-49.7102 1697.06,-22.1408"/>
<polygon fill="midnightblue" stroke="midnightblue" points="1697.79,-25.5746 1707.24,-20.7936 1696.87,-18.635 1697.79,-25.5746"/>
</g>
<!-- Node31 -->
<g id="node72" class="node"><title>Node31</title>
<polygon fill="white" stroke="#bfbfbf" points="1821.5,-0.5 1821.5,-21.5 1910.5,-21.5 1910.5,-0.5 1821.5,-0.5"/>
<text text-anchor="middle" x="1866" y="-8.5" font-family="Helvetica,sans-Serif" font-size="10.00">yarp/sig/Matrix.h</text>
</g>
<!-- Node19&#45;&gt;Node31 -->
<g id="edge82" class="edge"><title>Node19&#45;&gt;Node31</title>
<path fill="none" stroke="midnightblue" d="M1206.58,-59.7796C1211.11,-59.1138 1215.63,-58.5064 1220,-58 1478.95,-27.9773 1549.5,-56.1842 1811.07,-22.1042"/>
<polygon fill="midnightblue" stroke="midnightblue" points="1811.8,-25.5381 1821.26,-20.7584 1810.89,-18.5984 1811.8,-25.5381"/>
</g>
<!-- Node32 -->
<g id="node76" class="node"><title>Node32</title>
<polygon fill="white" stroke="#bfbfbf" points="1927.5,-0.5 1927.5,-21.5 2048.5,-21.5 2048.5,-0.5 1927.5,-0.5"/>
<text text-anchor="middle" x="1988" y="-8.5" font-family="Helvetica,sans-Serif" font-size="10.00">ocra/util/StringUtilities.h</text>
</g>
<!-- Node19&#45;&gt;Node32 -->
<g id="edge88" class="edge"><title>Node19&#45;&gt;Node32</title>
<path fill="none" stroke="midnightblue" d="M1206.58,-59.7364C1211.11,-59.0798 1215.63,-58.4863 1220,-58 1525.85,-23.962 1607.87,-53.8759 1917.31,-22.0822"/>
<polygon fill="midnightblue" stroke="midnightblue" points="1917.88,-25.5411 1927.47,-21.0245 1917.16,-18.5787 1917.88,-25.5411"/>
</g>
<!-- Node33 -->
<g id="node78" class="node"><title>Node33</title>
<polygon fill="white" stroke="#bfbfbf" points="2403.5,-0.5 2403.5,-21.5 2476.5,-21.5 2476.5,-0.5 2403.5,-0.5"/>
<text text-anchor="middle" x="2440" y="-8.5" font-family="Helvetica,sans-Serif" font-size="10.00">Eigen/Dense</text>
</g>
<!-- Node19&#45;&gt;Node33 -->
<g id="edge90" class="edge"><title>Node19&#45;&gt;Node33</title>
<path fill="none" stroke="midnightblue" d="M1206.52,-62.7865C1222.92,-60.9745 1241.21,-59.1695 1258,-58 1759.04,-23.1015 1892.31,-89.5106 2393.26,-21.9966"/>
<polygon fill="midnightblue" stroke="midnightblue" points="2393.85,-25.4496 2403.28,-20.6349 2392.9,-18.5133 2393.85,-25.4496"/>
</g>
<!-- Node34 -->
<g id="node80" class="node"><title>Node34</title>
<polygon fill="white" stroke="#bfbfbf" points="2066,-0.5 2066,-21.5 2134,-21.5 2134,-0.5 2066,-0.5"/>
<text text-anchor="middle" x="2100" y="-8.5" font-family="Helvetica,sans-Serif" font-size="10.00">Eigen/Lgsm</text>
</g>
<!-- Node19&#45;&gt;Node34 -->
<g id="edge92" class="edge"><title>Node19&#45;&gt;Node34</title>
<path fill="none" stroke="midnightblue" d="M1206.57,-59.6965C1211.1,-59.0484 1215.63,-58.4678 1220,-58 1586.89,-18.7418 1686.86,-75.3914 2055.71,-21.9039"/>
<polygon fill="midnightblue" stroke="midnightblue" points="2056.48,-25.3287 2065.86,-20.4136 2055.46,-18.4029 2056.48,-25.3287"/>
</g>
<!-- Node37&#45;&gt;Node6 -->
<g id="edge150" class="edge"><title>Node37&#45;&gt;Node6</title>
<path fill="none" stroke="midnightblue" d="M1546.79,-348.119C1539.05,-320.896 1520,-247.534 1520,-185 1520,-185 1520,-185 1520,-127 1520,-21.8834 2335.52,-38.4975 2483.67,-21.7948"/>
<polygon fill="midnightblue" stroke="midnightblue" points="2484.43,-25.2251 2493.87,-20.4188 2483.49,-18.288 2484.43,-25.2251"/>
</g>
<!-- Node37&#45;&gt;Node7 -->
<g id="edge120" class="edge"><title>Node37&#45;&gt;Node7</title>
<path fill="none" stroke="midnightblue" d="M1475.95,-351.358C1365.76,-339.986 1160.3,-318.782 1054.6,-307.873"/>
<polygon fill="midnightblue" stroke="midnightblue" points="1054.68,-304.363 1044.38,-306.818 1053.96,-311.326 1054.68,-304.363"/>
</g>
<!-- Node37&#45;&gt;Node35 -->
<g id="edge124" class="edge"><title>Node37&#45;&gt;Node35</title>
<path fill="none" stroke="midnightblue" d="M1624.39,-349.5C1629,-348.975 1633.56,-348.47 1638,-348 1818.87,-328.857 1867.27,-332.046 2051.35,-312.144"/>
<polygon fill="midnightblue" stroke="midnightblue" points="2051.8,-315.616 2061.36,-311.054 2051.04,-308.657 2051.8,-315.616"/>
</g>
<!-- Node38 -->
<g id="node99" class="node"><title>Node38</title>
<polygon fill="white" stroke="#bfbfbf" points="1673.5,-232.5 1673.5,-253.5 1828.5,-253.5 1828.5,-232.5 1673.5,-232.5"/>
<text text-anchor="middle" x="1751" y="-240.5" font-family="Helvetica,sans-Serif" font-size="10.00">ocra&#45;recipes/TrajectoryThread.h</text>
</g>
<!-- Node37&#45;&gt;Node38 -->
<g id="edge122" class="edge"><title>Node37&#45;&gt;Node38</title>
<path fill="none" stroke="midnightblue" d="M1622.46,-348.488C1667.25,-340.538 1719.12,-328.218 1735,-312 1747.39,-299.345 1750.91,-279.087 1751.61,-263.788"/>
<polygon fill="midnightblue" stroke="midnightblue" points="1755.11,-263.738 1751.71,-253.704 1748.11,-263.668 1755.11,-263.738"/>
</g>
<!-- Node39 -->
<g id="node102" class="node"><title>Node39</title>
<polygon fill="white" stroke="#bfbfbf" points="1782,-290.5 1782,-311.5 1902,-311.5 1902,-290.5 1782,-290.5"/>
<text text-anchor="middle" x="1842" y="-298.5" font-family="Helvetica,sans-Serif" font-size="10.00">ocra/util/EigenUtilities.h</text>
</g>
<!-- Node37&#45;&gt;Node39 -->
<g id="edge126" class="edge"><title>Node37&#45;&gt;Node39</title>
<path fill="none" stroke="midnightblue" d="M1602.88,-348.497C1652.44,-338.652 1726.57,-323.927 1779.14,-313.486"/>
<polygon fill="midnightblue" stroke="midnightblue" points="1779.9,-316.904 1789.02,-311.523 1778.53,-310.038 1779.9,-316.904"/>
</g>
<!-- Node40 -->
<g id="node104" class="node"><title>Node40</title>
<a xlink:href="ZmpPreviewController_8h.html" target="_top" xlink:title="walking&#45;client/ZmpPreviewController.h">
<polygon fill="white" stroke="black" points="1300,-290.5 1300,-311.5 1484,-311.5 1484,-290.5 1300,-290.5"/>
<text text-anchor="middle" x="1392" y="-298.5" font-family="Helvetica,sans-Serif" font-size="10.00">walking&#45;client/ZmpPreviewController.h</text>
</a>
</g>
<!-- Node37&#45;&gt;Node40 -->
<g id="edge128" class="edge"><title>Node37&#45;&gt;Node40</title>
<path fill="none" stroke="midnightblue" d="M1521.39,-348.497C1495.85,-339.123 1458.26,-325.324 1430.17,-315.012"/>
<polygon fill="midnightblue" stroke="midnightblue" points="1431.26,-311.684 1420.67,-311.523 1428.85,-318.255 1431.26,-311.684"/>
</g>
<!-- Node42 -->
<g id="node111" class="node"><title>Node42</title>
<a xlink:href="utils_8h.html" target="_top" xlink:title="walking&#45;client/utils.h">
<polygon fill="white" stroke="black" points="1547.5,-232.5 1547.5,-253.5 1652.5,-253.5 1652.5,-232.5 1547.5,-232.5"/>
<text text-anchor="middle" x="1600" y="-240.5" font-family="Helvetica,sans-Serif" font-size="10.00">walking&#45;client/utils.h</text>
</a>
</g>
<!-- Node37&#45;&gt;Node42 -->
<g id="edge146" class="edge"><title>Node37&#45;&gt;Node42</title>
<path fill="none" stroke="midnightblue" d="M1551.85,-348.357C1554.5,-334.489 1560.07,-309.688 1569,-290 1573.45,-280.194 1579.81,-270.125 1585.61,-261.835"/>
<polygon fill="midnightblue" stroke="midnightblue" points="1588.52,-263.78 1591.57,-253.633 1582.86,-259.664 1588.52,-263.78"/>
</g>
<!-- Node43 -->
<g id="node113" class="node"><title>Node43</title>
<a xlink:href="StepController_8h.html" target="_top" xlink:title="walking&#45;client/StepController.h">
<polygon fill="white" stroke="black" points="1577.5,-290.5 1577.5,-311.5 1726.5,-311.5 1726.5,-290.5 1577.5,-290.5"/>
<text text-anchor="middle" x="1652" y="-298.5" font-family="Helvetica,sans-Serif" font-size="10.00">walking&#45;client/StepController.h</text>
</a>
</g>
<!-- Node37&#45;&gt;Node43 -->
<g id="edge140" class="edge"><title>Node37&#45;&gt;Node43</title>
<path fill="none" stroke="midnightblue" d="M1568.71,-348.362C1584.38,-339.45 1606.96,-326.609 1624.66,-316.545"/>
<polygon fill="midnightblue" stroke="midnightblue" points="1626.45,-319.556 1633.41,-311.571 1622.99,-313.471 1626.45,-319.556"/>
</g>
<!-- Node44 -->
<g id="node118" class="node"><title>Node44</title>
<polygon fill="white" stroke="#bfbfbf" points="1919.5,-290.5 1919.5,-311.5 2044.5,-311.5 2044.5,-290.5 1919.5,-290.5"/>
<text text-anchor="middle" x="1982" y="-298.5" font-family="Helvetica,sans-Serif" font-size="10.00">ocra/util/FileOperations.h</text>
</g>
<!-- Node37&#45;&gt;Node44 -->
<g id="edge148" class="edge"><title>Node37&#45;&gt;Node44</title>
<path fill="none" stroke="midnightblue" d="M1624.1,-349.568C1708.62,-338.774 1842.77,-321.523 1909.23,-312.222"/>
<polygon fill="midnightblue" stroke="midnightblue" points="1909.88,-315.664 1919.29,-310.8 1908.9,-308.733 1909.88,-315.664"/>
</g>
<!-- Node40&#45;&gt;Node16 -->
<g id="edge136" class="edge"><title>Node40&#45;&gt;Node16</title>
<path fill="none" stroke="midnightblue" d="M1374.3,-290.477C1361.5,-282.055 1344.65,-269.167 1334,-254 1315.34,-227.429 1310,-217.469 1310,-185 1310,-185 1310,-185 1310,-127 1310,-94.5312 1307.88,-77.2869 1334,-58 1421.08,6.30317 2183.7,-40.3093 2331.59,-21.3789"/>
<polygon fill="midnightblue" stroke="midnightblue" points="2332.54,-24.7728 2341.87,-19.7627 2331.45,-17.8577 2332.54,-24.7728"/>
</g>
<!-- Node40&#45;&gt;Node19 -->
<g id="edge130" class="edge"><title>Node40&#45;&gt;Node19</title>
<path fill="none" stroke="midnightblue" d="M1361.77,-290.454C1341.74,-282.489 1315.62,-270.166 1296,-254 1236.33,-204.838 1187.43,-125.389 1166.7,-88.7129"/>
<polygon fill="midnightblue" stroke="midnightblue" points="1169.53,-86.6032 1161.61,-79.5633 1163.41,-90.0042 1169.53,-86.6032"/>
</g>
<!-- Node40&#45;&gt;Node33 -->
<g id="edge134" class="edge"><title>Node40&#45;&gt;Node33</title>
<path fill="none" stroke="midnightblue" d="M1384.93,-290.319C1372.49,-270.463 1348,-226.139 1348,-185 1348,-185 1348,-185 1348,-127 1348,-50.3736 1431.32,-75.1787 1506,-58 1695.58,-14.3884 2183.17,-48.474 2393.19,-21.96"/>
<polygon fill="midnightblue" stroke="midnightblue" points="2393.83,-25.4048 2403.28,-20.6079 2392.9,-18.4668 2393.83,-25.4048"/>
</g>
<!-- Node41 -->
<g id="node107" class="node"><title>Node41</title>
<polygon fill="white" stroke="#bfbfbf" points="1375.5,-232.5 1375.5,-253.5 1492.5,-253.5 1492.5,-232.5 1375.5,-232.5"/>
<text text-anchor="middle" x="1434" y="-240.5" font-family="Helvetica,sans-Serif" font-size="10.00">ocra/util/ErrorsHelper.h</text>
</g>
<!-- Node40&#45;&gt;Node41 -->
<g id="edge132" class="edge"><title>Node40&#45;&gt;Node41</title>
<path fill="none" stroke="midnightblue" d="M1399.7,-290.362C1405.45,-282.431 1413.44,-271.389 1420.27,-261.961"/>
<polygon fill="midnightblue" stroke="midnightblue" points="1423.32,-263.723 1426.35,-253.571 1417.65,-259.617 1423.32,-263.723"/>
</g>
<!-- Node40&#45;&gt;Node42 -->
<g id="edge138" class="edge"><title>Node40&#45;&gt;Node42</title>
<path fill="none" stroke="midnightblue" d="M1429.67,-290.497C1464.02,-280.918 1514.94,-266.72 1552.15,-256.342"/>
<polygon fill="midnightblue" stroke="midnightblue" points="1553.57,-259.581 1562.26,-253.523 1551.69,-252.838 1553.57,-259.581"/>
</g>
<!-- Node43&#45;&gt;Node38 -->
<g id="edge142" class="edge"><title>Node43&#45;&gt;Node38</title>
<path fill="none" stroke="midnightblue" d="M1670.16,-290.362C1685.23,-281.532 1706.89,-268.844 1723.99,-258.822"/>
<polygon fill="midnightblue" stroke="midnightblue" points="1726.1,-261.646 1732.96,-253.571 1722.56,-255.606 1726.1,-261.646"/>
</g>
<!-- Node43&#45;&gt;Node42 -->
<g id="edge144" class="edge"><title>Node43&#45;&gt;Node42</title>
<path fill="none" stroke="midnightblue" d="M1642.46,-290.362C1635.13,-282.186 1624.84,-270.702 1616.22,-261.091"/>
<polygon fill="midnightblue" stroke="midnightblue" points="1618.76,-258.68 1609.48,-253.571 1613.55,-263.353 1618.76,-258.68"/>
</g>
</g>
</svg>
