<?xml version="1.0" encoding="UTF-8" standalone="no"?>
<!DOCTYPE svg PUBLIC "-//W3C//DTD SVG 1.1//EN"
 "http://www.w3.org/Graphics/SVG/1.1/DTD/svg11.dtd">
<!-- Generated by graphviz version 2.26.3 (20100126.1600)
 -->
<!-- Title: G Pages: 1 -->
<svg width="4655pt" height="320pt"
 viewBox="0.00 0.00 4655.00 320.00" xmlns="http://www.w3.org/2000/svg" xmlns:xlink="http://www.w3.org/1999/xlink">
<g id="graph1" class="graph" transform="scale(1 1) rotate(0) translate(4 316)">
<title>G</title>
<polygon fill="white" stroke="white" points="-4,5 -4,-316 4652,-316 4652,5 -4,5"/>
<!-- Node1 -->
<g id="node1" class="node"><title>Node1</title>
<polygon fill="#bfbfbf" stroke="black" points="2098.5,-290.5 2098.5,-311.5 2409.5,-311.5 2409.5,-290.5 2098.5,-290.5"/>
<text text-anchor="middle" x="2254" y="-298.5" font-family="Helvetica,sans-Serif" font-size="10.00">ocra&#45;wbi&#45;plugins/ocra&#45;icub/include/ocra&#45;icub/OcraWbiConversions.h</text>
</g>
<!-- Node2 -->
<g id="node3" class="node"><title>Node2</title>
<a xlink:href="IcubClient_8h.html" target="_top" xlink:title="ocra&#45;wbi&#45;plugins/ocra&#45;icub/include/ocra&#45;icub/IcubClient.h">
<polygon fill="white" stroke="black" points="2104,-116.5 2104,-137.5 2366,-137.5 2366,-116.5 2104,-116.5"/>
<text text-anchor="middle" x="2235" y="-124.5" font-family="Helvetica,sans-Serif" font-size="10.00">ocra&#45;wbi&#45;plugins/ocra&#45;icub/include/ocra&#45;icub/IcubClient.h</text>
</a>
</g>
<!-- Node1&#45;&gt;Node2 -->
<g id="edge2" class="edge"><title>Node1&#45;&gt;Node2</title>
<path fill="none" stroke="midnightblue" d="M2251.73,-280.2C2247.67,-243.013 2239.3,-166.36 2236.19,-137.928"/>
<polygon fill="midnightblue" stroke="midnightblue" points="2248.28,-280.816 2252.84,-290.377 2255.23,-280.057 2248.28,-280.816"/>
</g>
<!-- Node21 -->
<g id="node47" class="node"><title>Node21</title>
<a xlink:href="OcraWbiModel_8h.html" target="_top" xlink:title="Implementation of ocra::Model using wholeBodyInterface.">
<polygon fill="white" stroke="black" points="1794,-232.5 1794,-253.5 2076,-253.5 2076,-232.5 1794,-232.5"/>
<text text-anchor="middle" x="1935" y="-240.5" font-family="Helvetica,sans-Serif" font-size="10.00">ocra&#45;wbi&#45;plugins/ocra&#45;icub/include/ocra&#45;icub/OcraWbiModel.h</text>
</a>
</g>
<!-- Node1&#45;&gt;Node21 -->
<g id="edge52" class="edge"><title>Node1&#45;&gt;Node21</title>
<path fill="none" stroke="midnightblue" d="M2186.16,-288.665C2128.72,-278.222 2047.28,-263.415 1992.88,-253.523"/>
<polygon fill="midnightblue" stroke="midnightblue" points="2185.77,-292.151 2196.23,-290.497 2187.02,-285.264 2185.77,-292.151"/>
</g>
<!-- Node34 -->
<g id="node75" class="node"><title>Node34</title>
<a xlink:href="OcraWbiConversions_8cpp.html" target="_top" xlink:title="A utility class full of static conversion functions.">
<polygon fill="white" stroke="black" points="2281.5,-232.5 2281.5,-253.5 2542.5,-253.5 2542.5,-232.5 2281.5,-232.5"/>
<text text-anchor="middle" x="2412" y="-240.5" font-family="Helvetica,sans-Serif" font-size="10.00">ocra&#45;wbi&#45;plugins/ocra&#45;icub/src/OcraWbiConversions.cpp</text>
</a>
</g>
<!-- Node1&#45;&gt;Node34 -->
<g id="edge82" class="edge"><title>Node1&#45;&gt;Node34</title>
<path fill="none" stroke="midnightblue" d="M2292.11,-287.009C2320.19,-276.702 2357.78,-262.903 2383.33,-253.523"/>
<polygon fill="midnightblue" stroke="midnightblue" points="2290.79,-283.765 2282.61,-290.497 2293.21,-290.336 2290.79,-283.765"/>
</g>
<!-- Node3 -->
<g id="node5" class="node"><title>Node3</title>
<a xlink:href="ExampleClient_8h.html" target="_top" xlink:title="ocra&#45;wbi&#45;plugins/ocra&#45;icub&#45;clients/example&#45;client/include/example&#45;client/ExampleClient.h">
<polygon fill="white" stroke="black" points="3936,-58.5 3936,-79.5 4338,-79.5 4338,-58.5 3936,-58.5"/>
<text text-anchor="middle" x="4137" y="-66.5" font-family="Helvetica,sans-Serif" font-size="10.00">ocra&#45;wbi&#45;plugins/ocra&#45;icub&#45;clients/example&#45;client/include/example&#45;client/ExampleClient.h</text>
</a>
</g>
<!-- Node2&#45;&gt;Node3 -->
<g id="edge4" class="edge"><title>Node2&#45;&gt;Node3</title>
<path fill="none" stroke="midnightblue" d="M2376.09,-123.029C2652.58,-115.198 3285.12,-97.0424 3817,-80 3855.34,-78.7716 3896.25,-77.4063 3935.58,-76.0671"/>
<polygon fill="midnightblue" stroke="midnightblue" points="2375.9,-119.533 2366.01,-123.314 2376.1,-126.53 2375.9,-119.533"/>
</g>
<!-- Node4 -->
<g id="node7" class="node"><title>Node4</title>
<a xlink:href="example-client_8cpp.html" target="_top" xlink:title="ocra&#45;wbi&#45;plugins/ocra&#45;icub&#45;clients/example&#45;client/src/example&#45;client.cpp">
<polygon fill="white" stroke="black" points="3972.5,-0.5 3972.5,-21.5 4301.5,-21.5 4301.5,-0.5 3972.5,-0.5"/>
<text text-anchor="middle" x="4137" y="-8.5" font-family="Helvetica,sans-Serif" font-size="10.00">ocra&#45;wbi&#45;plugins/ocra&#45;icub&#45;clients/example&#45;client/src/example&#45;client.cpp</text>
</a>
</g>
<!-- Node2&#45;&gt;Node4 -->
<g id="edge10" class="edge"><title>Node2&#45;&gt;Node4</title>
<path fill="none" stroke="midnightblue" d="M2376.13,-124.512C2688.25,-118.665 3429.19,-102.804 3679,-80 3824.94,-66.6775 3995.21,-37.3532 4081.2,-21.5631"/>
<polygon fill="midnightblue" stroke="midnightblue" points="2376.05,-121.012 2366.12,-124.699 2376.18,-128.011 2376.05,-121.012"/>
</g>
<!-- Node6 -->
<g id="node12" class="node"><title>Node6</title>
<a xlink:href="SittingDemoClient_8h.html" target="_top" xlink:title="ocra&#45;wbi&#45;plugins/ocra&#45;icub&#45;clients/sitting&#45;demo/include/sitting&#45;demo/SittingDemoClient.h">
<polygon fill="white" stroke="black" points="777,-58.5 777,-79.5 1175,-79.5 1175,-58.5 777,-58.5"/>
<text text-anchor="middle" x="976" y="-66.5" font-family="Helvetica,sans-Serif" font-size="10.00">ocra&#45;wbi&#45;plugins/ocra&#45;icub&#45;clients/sitting&#45;demo/include/sitting&#45;demo/SittingDemoClient.h</text>
</a>
</g>
<!-- Node2&#45;&gt;Node6 -->
<g id="edge12" class="edge"><title>Node2&#45;&gt;Node6</title>
<path fill="none" stroke="midnightblue" d="M2093.64,-120.488C1869.33,-110.154 1431.13,-89.9673 1175.13,-78.1734"/>
<polygon fill="midnightblue" stroke="midnightblue" points="2093.68,-123.993 2103.83,-120.957 2094,-117.001 2093.68,-123.993"/>
</g>
<!-- Node7 -->
<g id="node14" class="node"><title>Node7</title>
<a xlink:href="ocra-icub-clients_2sitting-demo_2src_2main_8cpp.html" target="_top" xlink:title="ocra&#45;wbi&#45;plugins/ocra&#45;icub&#45;clients/sitting&#45;demo/src/main.cpp">
<polygon fill="white" stroke="black" points="498.5,-0.5 498.5,-21.5 775.5,-21.5 775.5,-0.5 498.5,-0.5"/>
<text text-anchor="middle" x="637" y="-8.5" font-family="Helvetica,sans-Serif" font-size="10.00">ocra&#45;wbi&#45;plugins/ocra&#45;icub&#45;clients/sitting&#45;demo/src/main.cpp</text>
</a>
</g>
<!-- Node2&#45;&gt;Node7 -->
<g id="edge18" class="edge"><title>Node2&#45;&gt;Node7</title>
<path fill="none" stroke="midnightblue" d="M2093.38,-121.905C2039.7,-120.004 1978.03,-117.859 1922,-116 1793.79,-111.747 891.36,-115.204 768,-80 749.234,-74.6446 747.16,-67.2938 730,-58 705.98,-44.9908 677.94,-30.9764 658.979,-21.6686"/>
<polygon fill="midnightblue" stroke="midnightblue" points="2093.54,-125.412 2103.65,-122.269 2093.78,-118.417 2093.54,-125.412"/>
</g>
<!-- Node9 -->
<g id="node19" class="node"><title>Node9</title>
<a xlink:href="StandingDemoClient_8h.html" target="_top" xlink:title="ocra&#45;wbi&#45;plugins/ocra&#45;icub&#45;clients/standing&#45;demo/include/standing&#45;demo/StandingDemoClient.h">
<polygon fill="white" stroke="black" points="1412,-58.5 1412,-79.5 1842,-79.5 1842,-58.5 1412,-58.5"/>
<text text-anchor="middle" x="1627" y="-66.5" font-family="Helvetica,sans-Serif" font-size="10.00">ocra&#45;wbi&#45;plugins/ocra&#45;icub&#45;clients/standing&#45;demo/include/standing&#45;demo/StandingDemoClient.h</text>
</a>
</g>
<!-- Node2&#45;&gt;Node9 -->
<g id="edge20" class="edge"><title>Node2&#45;&gt;Node9</title>
<path fill="none" stroke="midnightblue" d="M2114.76,-115.53C2004.94,-105.054 1843.9,-89.6914 1737.31,-79.5231"/>
<polygon fill="midnightblue" stroke="midnightblue" points="2114.61,-119.031 2124.9,-116.497 2115.27,-112.063 2114.61,-119.031"/>
</g>
<!-- Node10 -->
<g id="node21" class="node"><title>Node10</title>
<a xlink:href="ocra-icub-clients_2standing-demo_2src_2main_8cpp.html" target="_top" xlink:title="ocra&#45;wbi&#45;plugins/ocra&#45;icub&#45;clients/standing&#45;demo/src/main.cpp">
<polygon fill="white" stroke="black" points="1144.5,-0.5 1144.5,-21.5 1431.5,-21.5 1431.5,-0.5 1144.5,-0.5"/>
<text text-anchor="middle" x="1288" y="-8.5" font-family="Helvetica,sans-Serif" font-size="10.00">ocra&#45;wbi&#45;plugins/ocra&#45;icub&#45;clients/standing&#45;demo/src/main.cpp</text>
</a>
</g>
<!-- Node2&#45;&gt;Node10 -->
<g id="edge26" class="edge"><title>Node2&#45;&gt;Node10</title>
<path fill="none" stroke="midnightblue" d="M2093.64,-120.78C1864.8,-110.459 1435.34,-89.9479 1403,-80 1362.27,-67.4725 1321.01,-37.5963 1300.79,-21.5762"/>
<polygon fill="midnightblue" stroke="midnightblue" points="2093.57,-124.28 2103.71,-121.233 2093.88,-117.287 2093.57,-124.28"/>
</g>
<!-- Node12 -->
<g id="node26" class="node"><title>Node12</title>
<a xlink:href="SteppingDemoClient_8h.html" target="_top" xlink:title="ocra&#45;wbi&#45;plugins/ocra&#45;icub&#45;clients/stepping&#45;demo/include/stepping&#45;demo/SteppingDemoClient.h">
<polygon fill="white" stroke="black" points="2020,-58.5 2020,-79.5 2450,-79.5 2450,-58.5 2020,-58.5"/>
<text text-anchor="middle" x="2235" y="-66.5" font-family="Helvetica,sans-Serif" font-size="10.00">ocra&#45;wbi&#45;plugins/ocra&#45;icub&#45;clients/stepping&#45;demo/include/stepping&#45;demo/SteppingDemoClient.h</text>
</a>
</g>
<!-- Node2&#45;&gt;Node12 -->
<g id="edge28" class="edge"><title>Node2&#45;&gt;Node12</title>
<path fill="none" stroke="midnightblue" d="M2235,-106.191C2235,-97.1684 2235,-86.9941 2235,-79.5707"/>
<polygon fill="midnightblue" stroke="midnightblue" points="2231.5,-106.362 2235,-116.362 2238.5,-106.362 2231.5,-106.362"/>
</g>
<!-- Node13 -->
<g id="node28" class="node"><title>Node13</title>
<a xlink:href="stepping-demo_8cpp.html" target="_top" xlink:title="ocra&#45;wbi&#45;plugins/ocra&#45;icub&#45;clients/stepping&#45;demo/src/stepping&#45;demo.cpp">
<polygon fill="white" stroke="black" points="1823,-0.5 1823,-21.5 2153,-21.5 2153,-0.5 1823,-0.5"/>
<text text-anchor="middle" x="1988" y="-8.5" font-family="Helvetica,sans-Serif" font-size="10.00">ocra&#45;wbi&#45;plugins/ocra&#45;icub&#45;clients/stepping&#45;demo/src/stepping&#45;demo.cpp</text>
</a>
</g>
<!-- Node2&#45;&gt;Node13 -->
<g id="edge34" class="edge"><title>Node2&#45;&gt;Node13</title>
<path fill="none" stroke="midnightblue" d="M2129.26,-114.99C2080.3,-107.442 2029,-96.0457 2011,-80 1994.03,-64.8778 1989.55,-36.9087 1988.39,-21.6348"/>
<polygon fill="midnightblue" stroke="midnightblue" points="2128.93,-118.48 2139.34,-116.496 2129.97,-111.556 2128.93,-118.48"/>
</g>
<!-- Node15 -->
<g id="node33" class="node"><title>Node15</title>
<a xlink:href="TaskOpsClient_8h.html" target="_top" xlink:title="ocra&#45;wbi&#45;plugins/ocra&#45;icub&#45;clients/task&#45;operations&#45;demo/include/task&#45;operations&#45;demo/TaskOpsClient.h">
<polygon fill="white" stroke="black" points="2507.5,-58.5 2507.5,-79.5 2972.5,-79.5 2972.5,-58.5 2507.5,-58.5"/>
<text text-anchor="middle" x="2740" y="-66.5" font-family="Helvetica,sans-Serif" font-size="10.00">ocra&#45;wbi&#45;plugins/ocra&#45;icub&#45;clients/task&#45;operations&#45;demo/include/task&#45;operations&#45;demo/TaskOpsClient.h</text>
</a>
</g>
<!-- Node2&#45;&gt;Node15 -->
<g id="edge36" class="edge"><title>Node2&#45;&gt;Node15</title>
<path fill="none" stroke="midnightblue" d="M2336.53,-115.34C2427.7,-104.868 2560.38,-89.63 2648.38,-79.5231"/>
<polygon fill="midnightblue" stroke="midnightblue" points="2335.99,-111.878 2326.45,-116.497 2336.79,-118.833 2335.99,-111.878"/>
</g>
<!-- Node16 -->
<g id="node35" class="node"><title>Node16</title>
<a xlink:href="task-operations-demo_8cpp.html" target="_top" xlink:title="ocra&#45;wbi&#45;plugins/ocra&#45;icub&#45;clients/task&#45;operations&#45;demo/src/task&#45;operations&#45;demo.cpp">
<polygon fill="white" stroke="black" points="2545,-0.5 2545,-21.5 2935,-21.5 2935,-0.5 2545,-0.5"/>
<text text-anchor="middle" x="2740" y="-8.5" font-family="Helvetica,sans-Serif" font-size="10.00">ocra&#45;wbi&#45;plugins/ocra&#45;icub&#45;clients/task&#45;operations&#45;demo/src/task&#45;operations&#45;demo.cpp</text>
</a>
</g>
<!-- Node2&#45;&gt;Node16 -->
<g id="edge42" class="edge"><title>Node2&#45;&gt;Node16</title>
<path fill="none" stroke="midnightblue" d="M2322.72,-114.785C2364.77,-107.379 2415.36,-96.1678 2459,-80 2478.03,-72.9508 2479.93,-64.9137 2499,-58 2547.99,-40.2419 2605.15,-28.7262 2651.51,-21.5404"/>
<polygon fill="midnightblue" stroke="midnightblue" points="2322.05,-111.35 2312.78,-116.494 2323.23,-118.249 2322.05,-111.35"/>
</g>
<!-- Node18 -->
<g id="node40" class="node"><title>Node18</title>
<a xlink:href="WalkingClient_8h.html" target="_top" xlink:title="ocra&#45;wbi&#45;plugins/ocra&#45;icub&#45;clients/walking&#45;client/include/walking&#45;client/WalkingClient.h">
<polygon fill="white" stroke="black" points="3278,-58.5 3278,-79.5 3670,-79.5 3670,-58.5 3278,-58.5"/>
<text text-anchor="middle" x="3474" y="-66.5" font-family="Helvetica,sans-Serif" font-size="10.00">ocra&#45;wbi&#45;plugins/ocra&#45;icub&#45;clients/walking&#45;client/include/walking&#45;client/WalkingClient.h</text>
</a>
</g>
<!-- Node2&#45;&gt;Node18 -->
<g id="edge44" class="edge"><title>Node2&#45;&gt;Node18</title>
<path fill="none" stroke="midnightblue" d="M2376.19,-120.391C2597.53,-110.029 3026.81,-89.934 3277.97,-78.1765"/>
<polygon fill="midnightblue" stroke="midnightblue" points="2375.95,-116.898 2366.13,-120.862 2376.28,-123.89 2375.95,-116.898"/>
</g>
<!-- Node19 -->
<g id="node42" class="node"><title>Node19</title>
<a xlink:href="ocra-icub-clients_2walking-client_2src_2main_8cpp.html" target="_top" xlink:title="ocra&#45;wbi&#45;plugins/ocra&#45;icub&#45;clients/walking&#45;client/src/main.cpp">
<polygon fill="white" stroke="black" points="3332.5,-0.5 3332.5,-21.5 3615.5,-21.5 3615.5,-0.5 3332.5,-0.5"/>
<text text-anchor="middle" x="3474" y="-8.5" font-family="Helvetica,sans-Serif" font-size="10.00">ocra&#45;wbi&#45;plugins/ocra&#45;icub&#45;clients/walking&#45;client/src/main.cpp</text>
</a>
</g>
<!-- Node2&#45;&gt;Node19 -->
<g id="edge50" class="edge"><title>Node2&#45;&gt;Node19</title>
<path fill="none" stroke="midnightblue" d="M2376.51,-121.296C2526.75,-114.49 2771.02,-101.278 2981,-80 3135.56,-64.3384 3316.12,-36.6525 3409.98,-21.5493"/>
<polygon fill="midnightblue" stroke="midnightblue" points="2376.13,-117.809 2366.3,-121.755 2376.45,-124.802 2376.13,-117.809"/>
</g>
<!-- Node3&#45;&gt;Node4 -->
<g id="edge6" class="edge"><title>Node3&#45;&gt;Node4</title>
<path fill="none" stroke="midnightblue" d="M4137,-48.1906C4137,-39.1684 4137,-28.9941 4137,-21.5707"/>
<polygon fill="midnightblue" stroke="midnightblue" points="4133.5,-48.3619 4137,-58.3619 4140.5,-48.3619 4133.5,-48.3619"/>
</g>
<!-- Node5 -->
<g id="node9" class="node"><title>Node5</title>
<a xlink:href="ExampleClient_8cpp.html" target="_top" xlink:title="ocra&#45;wbi&#45;plugins/ocra&#45;icub&#45;clients/example&#45;client/src/ExampleClient.cpp">
<polygon fill="white" stroke="black" points="4318.5,-0.5 4318.5,-21.5 4647.5,-21.5 4647.5,-0.5 4318.5,-0.5"/>
<text text-anchor="middle" x="4483" y="-8.5" font-family="Helvetica,sans-Serif" font-size="10.00">ocra&#45;wbi&#45;plugins/ocra&#45;icub&#45;clients/example&#45;client/src/ExampleClient.cpp</text>
</a>
</g>
<!-- Node3&#45;&gt;Node5 -->
<g id="edge8" class="edge"><title>Node3&#45;&gt;Node5</title>
<path fill="none" stroke="midnightblue" d="M4209.81,-56.7943C4272.15,-46.3447 4360.97,-31.4559 4420.22,-21.5231"/>
<polygon fill="midnightblue" stroke="midnightblue" points="4208.94,-53.3915 4199.66,-58.4966 4210.1,-60.2952 4208.94,-53.3915"/>
</g>
<!-- Node6&#45;&gt;Node7 -->
<g id="edge14" class="edge"><title>Node6&#45;&gt;Node7</title>
<path fill="none" stroke="midnightblue" d="M904.66,-56.7943C843.583,-46.3447 756.561,-31.4559 698.505,-21.5231"/>
<polygon fill="midnightblue" stroke="midnightblue" points="904.163,-60.26 914.61,-58.4966 905.343,-53.3603 904.163,-60.26"/>
</g>
<!-- Node8 -->
<g id="node16" class="node"><title>Node8</title>
<a xlink:href="SittingDemoClient_8cpp.html" target="_top" xlink:title="ocra&#45;wbi&#45;plugins/ocra&#45;icub&#45;clients/sitting&#45;demo/src/SittingDemoClient.cpp">
<polygon fill="white" stroke="black" points="792.5,-0.5 792.5,-21.5 1127.5,-21.5 1127.5,-0.5 792.5,-0.5"/>
<text text-anchor="middle" x="960" y="-8.5" font-family="Helvetica,sans-Serif" font-size="10.00">ocra&#45;wbi&#45;plugins/ocra&#45;icub&#45;clients/sitting&#45;demo/src/SittingDemoClient.cpp</text>
</a>
</g>
<!-- Node6&#45;&gt;Node8 -->
<g id="edge16" class="edge"><title>Node6&#45;&gt;Node8</title>
<path fill="none" stroke="midnightblue" d="M970.341,-48.4876C967.832,-39.3924 964.986,-29.0756 962.916,-21.5707"/>
<polygon fill="midnightblue" stroke="midnightblue" points="967.032,-49.6528 973.065,-58.3619 973.78,-47.7912 967.032,-49.6528"/>
</g>
<!-- Node9&#45;&gt;Node10 -->
<g id="edge22" class="edge"><title>Node9&#45;&gt;Node10</title>
<path fill="none" stroke="midnightblue" d="M1555.66,-56.7943C1494.58,-46.3447 1407.56,-31.4559 1349.51,-21.5231"/>
<polygon fill="midnightblue" stroke="midnightblue" points="1555.16,-60.26 1565.61,-58.4966 1556.34,-53.3603 1555.16,-60.26"/>
</g>
<!-- Node11 -->
<g id="node23" class="node"><title>Node11</title>
<a xlink:href="StandingDemoClient_8cpp.html" target="_top" xlink:title="ocra&#45;wbi&#45;plugins/ocra&#45;icub&#45;clients/standing&#45;demo/src/StandingDemoClient.cpp">
<polygon fill="white" stroke="black" points="1449,-0.5 1449,-21.5 1805,-21.5 1805,-0.5 1449,-0.5"/>
<text text-anchor="middle" x="1627" y="-8.5" font-family="Helvetica,sans-Serif" font-size="10.00">ocra&#45;wbi&#45;plugins/ocra&#45;icub&#45;clients/standing&#45;demo/src/StandingDemoClient.cpp</text>
</a>
</g>
<!-- Node9&#45;&gt;Node11 -->
<g id="edge24" class="edge"><title>Node9&#45;&gt;Node11</title>
<path fill="none" stroke="midnightblue" d="M1627,-48.1906C1627,-39.1684 1627,-28.9941 1627,-21.5707"/>
<polygon fill="midnightblue" stroke="midnightblue" points="1623.5,-48.3619 1627,-58.3619 1630.5,-48.3619 1623.5,-48.3619"/>
</g>
<!-- Node12&#45;&gt;Node13 -->
<g id="edge30" class="edge"><title>Node12&#45;&gt;Node13</title>
<path fill="none" stroke="midnightblue" d="M2180.52,-56.2081C2136.17,-45.7938 2074.33,-31.2716 2032.81,-21.5231"/>
<polygon fill="midnightblue" stroke="midnightblue" points="2179.73,-59.6179 2190.27,-58.4966 2181.34,-52.8032 2179.73,-59.6179"/>
</g>
<!-- Node14 -->
<g id="node30" class="node"><title>Node14</title>
<a xlink:href="SteppingDemoClient_8cpp.html" target="_top" xlink:title="ocra&#45;wbi&#45;plugins/ocra&#45;icub&#45;clients/stepping&#45;demo/src/SteppingDemoClient.cpp">
<polygon fill="white" stroke="black" points="2171,-0.5 2171,-21.5 2527,-21.5 2527,-0.5 2171,-0.5"/>
<text text-anchor="middle" x="2349" y="-8.5" font-family="Helvetica,sans-Serif" font-size="10.00">ocra&#45;wbi&#45;plugins/ocra&#45;icub&#45;clients/stepping&#45;demo/src/SteppingDemoClient.cpp</text>
</a>
</g>
<!-- Node12&#45;&gt;Node14 -->
<g id="edge32" class="edge"><title>Node12&#45;&gt;Node14</title>
<path fill="none" stroke="midnightblue" d="M2264.62,-53.9319C2284.54,-43.7932 2310.33,-30.6748 2328.12,-21.6212"/>
<polygon fill="midnightblue" stroke="midnightblue" points="2262.97,-50.8425 2255.64,-58.4966 2266.14,-57.0815 2262.97,-50.8425"/>
</g>
<!-- Node15&#45;&gt;Node16 -->
<g id="edge38" class="edge"><title>Node15&#45;&gt;Node16</title>
<path fill="none" stroke="midnightblue" d="M2740,-48.1906C2740,-39.1684 2740,-28.9941 2740,-21.5707"/>
<polygon fill="midnightblue" stroke="midnightblue" points="2736.5,-48.3619 2740,-58.3619 2743.5,-48.3619 2736.5,-48.3619"/>
</g>
<!-- Node17 -->
<g id="node37" class="node"><title>Node17</title>
<a xlink:href="TaskOpsClient_8cpp.html" target="_top" xlink:title="ocra&#45;wbi&#45;plugins/ocra&#45;icub&#45;clients/task&#45;operations&#45;demo/src/TaskOpsClient.cpp">
<polygon fill="white" stroke="black" points="2953,-0.5 2953,-21.5 3315,-21.5 3315,-0.5 2953,-0.5"/>
<text text-anchor="middle" x="3134" y="-8.5" font-family="Helvetica,sans-Serif" font-size="10.00">ocra&#45;wbi&#45;plugins/ocra&#45;icub&#45;clients/task&#45;operations&#45;demo/src/TaskOpsClient.cpp</text>
</a>
</g>
<!-- Node15&#45;&gt;Node17 -->
<g id="edge40" class="edge"><title>Node15&#45;&gt;Node17</title>
<path fill="none" stroke="midnightblue" d="M2821.6,-56.9877C2892.65,-46.529 2994.62,-31.5174 3062.52,-21.5231"/>
<polygon fill="midnightblue" stroke="midnightblue" points="2820.73,-53.5775 2811.35,-58.4966 2821.75,-60.5029 2820.73,-53.5775"/>
</g>
<!-- Node18&#45;&gt;Node19 -->
<g id="edge46" class="edge"><title>Node18&#45;&gt;Node19</title>
<path fill="none" stroke="midnightblue" d="M3474,-48.1906C3474,-39.1684 3474,-28.9941 3474,-21.5707"/>
<polygon fill="midnightblue" stroke="midnightblue" points="3470.5,-48.3619 3474,-58.3619 3477.5,-48.3619 3470.5,-48.3619"/>
</g>
<!-- Node20 -->
<g id="node44" class="node"><title>Node20</title>
<a xlink:href="WalkingClient_8cpp.html" target="_top" xlink:title="ocra&#45;wbi&#45;plugins/ocra&#45;icub&#45;clients/walking&#45;client/src/WalkingClient.cpp">
<polygon fill="white" stroke="black" points="3632.5,-0.5 3632.5,-21.5 3955.5,-21.5 3955.5,-0.5 3632.5,-0.5"/>
<text text-anchor="middle" x="3794" y="-8.5" font-family="Helvetica,sans-Serif" font-size="10.00">ocra&#45;wbi&#45;plugins/ocra&#45;icub&#45;clients/walking&#45;client/src/WalkingClient.cpp</text>
</a>
</g>
<!-- Node18&#45;&gt;Node20 -->
<g id="edge48" class="edge"><title>Node18&#45;&gt;Node20</title>
<path fill="none" stroke="midnightblue" d="M3542.06,-56.6648C3599.67,-46.222 3681.37,-31.415 3735.94,-21.5231"/>
<polygon fill="midnightblue" stroke="midnightblue" points="3541.17,-53.2692 3531.95,-58.4966 3542.41,-60.157 3541.17,-53.2692"/>
</g>
<!-- Node21&#45;&gt;Node2 -->
<g id="edge72" class="edge"><title>Node21&#45;&gt;Node2</title>
<path fill="none" stroke="midnightblue" d="M2057.8,-231.171C2114.53,-223.689 2174.29,-212.299 2197,-196 2217.11,-181.568 2227.78,-153.051 2232.3,-137.581"/>
<polygon fill="midnightblue" stroke="midnightblue" points="2057.1,-227.732 2047.63,-232.476 2057.99,-234.675 2057.1,-227.732"/>
</g>
<!-- Node22 -->
<g id="node49" class="node"><title>Node22</title>
<a xlink:href="IcubControllerServer_8h.html" target="_top" xlink:title="ocra&#45;wbi&#45;plugins/ocra&#45;icub&#45;server/include/ocra&#45;icub&#45;server/IcubControllerServer.h">
<polygon fill="white" stroke="black" points="765.5,-174.5 765.5,-195.5 1132.5,-195.5 1132.5,-174.5 765.5,-174.5"/>
<text text-anchor="middle" x="949" y="-182.5" font-family="Helvetica,sans-Serif" font-size="10.00">ocra&#45;wbi&#45;plugins/ocra&#45;icub&#45;server/include/ocra&#45;icub&#45;server/IcubControllerServer.h</text>
</a>
</g>
<!-- Node21&#45;&gt;Node22 -->
<g id="edge54" class="edge"><title>Node21&#45;&gt;Node22</title>
<path fill="none" stroke="midnightblue" d="M1783.84,-234.108C1607.23,-223.719 1315.35,-206.55 1127.69,-195.511"/>
<polygon fill="midnightblue" stroke="midnightblue" points="1783.8,-237.612 1793.99,-234.705 1784.22,-230.624 1783.8,-237.612"/>
</g>
<!-- Node29 -->
<g id="node63" class="node"><title>Node29</title>
<a xlink:href="MIQPController_8h.html" target="_top" xlink:title="A thread for launching trajectory generators.">
<polygon fill="white" stroke="black" points="1240,-174.5 1240,-195.5 1638,-195.5 1638,-174.5 1240,-174.5"/>
<text text-anchor="middle" x="1439" y="-182.5" font-family="Helvetica,sans-Serif" font-size="10.00">ocra&#45;wbi&#45;plugins/ocra&#45;icub&#45;clients/walking&#45;client/include/walking&#45;client/MIQPController.h</text>
</a>
</g>
<!-- Node21&#45;&gt;Node29 -->
<g id="edge68" class="edge"><title>Node21&#45;&gt;Node29</title>
<path fill="none" stroke="midnightblue" d="M1835.01,-231.308C1745.47,-220.837 1615.33,-205.62 1528.99,-195.523"/>
<polygon fill="midnightblue" stroke="midnightblue" points="1834.84,-234.811 1845.18,-232.497 1835.65,-227.859 1834.84,-234.811"/>
</g>
<!-- Node31 -->
<g id="node68" class="node"><title>Node31</title>
<a xlink:href="ModelInitializer_8h.html" target="_top" xlink:title="ocra&#45;wbi&#45;plugins/ocra&#45;icub/include/ocra&#45;icub/ModelInitializer.h">
<polygon fill="white" stroke="black" points="1655.5,-174.5 1655.5,-195.5 1938.5,-195.5 1938.5,-174.5 1655.5,-174.5"/>
<text text-anchor="middle" x="1797" y="-182.5" font-family="Helvetica,sans-Serif" font-size="10.00">ocra&#45;wbi&#45;plugins/ocra&#45;icub/include/ocra&#45;icub/ModelInitializer.h</text>
</a>
</g>
<!-- Node21&#45;&gt;Node31 -->
<g id="edge74" class="edge"><title>Node21&#45;&gt;Node31</title>
<path fill="none" stroke="midnightblue" d="M1900.77,-228.615C1876.44,-218.389 1844.3,-204.88 1822.27,-195.621"/>
<polygon fill="midnightblue" stroke="midnightblue" points="1899.43,-231.849 1910.01,-232.497 1902.15,-225.395 1899.43,-231.849"/>
</g>
<!-- Node33 -->
<g id="node73" class="node"><title>Node33</title>
<a xlink:href="OcraWbiModel_8cpp.html" target="_top" xlink:title="Implementation of ocra::Model using wholeBodyInterface.">
<polygon fill="white" stroke="black" points="1955.5,-174.5 1955.5,-195.5 2188.5,-195.5 2188.5,-174.5 1955.5,-174.5"/>
<text text-anchor="middle" x="2072" y="-182.5" font-family="Helvetica,sans-Serif" font-size="10.00">ocra&#45;wbi&#45;plugins/ocra&#45;icub/src/OcraWbiModel.cpp</text>
</a>
</g>
<!-- Node21&#45;&gt;Node33 -->
<g id="edge80" class="edge"><title>Node21&#45;&gt;Node33</title>
<path fill="none" stroke="midnightblue" d="M1969.3,-228.479C1993.42,-218.269 2025.14,-204.839 2046.91,-195.621"/>
<polygon fill="midnightblue" stroke="midnightblue" points="1967.65,-225.375 1959.81,-232.497 1970.38,-231.821 1967.65,-225.375"/>
</g>
<!-- Node23 -->
<g id="node51" class="node"><title>Node23</title>
<a xlink:href="Thread_8h.html" target="_top" xlink:title="The thread class for the controller server.">
<polygon fill="white" stroke="black" points="453,-116.5 453,-137.5 761,-137.5 761,-116.5 453,-116.5"/>
<text text-anchor="middle" x="607" y="-124.5" font-family="Helvetica,sans-Serif" font-size="10.00">ocra&#45;wbi&#45;plugins/ocra&#45;icub&#45;server/include/ocra&#45;icub&#45;server/Thread.h</text>
</a>
</g>
<!-- Node22&#45;&gt;Node23 -->
<g id="edge56" class="edge"><title>Node22&#45;&gt;Node23</title>
<path fill="none" stroke="midnightblue" d="M877.029,-172.794C815.412,-162.345 727.619,-147.456 669.05,-137.523"/>
<polygon fill="midnightblue" stroke="midnightblue" points="876.622,-176.275 887.066,-174.497 877.792,-169.374 876.622,-176.275"/>
</g>
<!-- Node28 -->
<g id="node61" class="node"><title>Node28</title>
<a xlink:href="IcubControllerServer_8cpp.html" target="_top" xlink:title="ocra&#45;wbi&#45;plugins/ocra&#45;icub&#45;server/src/IcubControllerServer.cpp">
<polygon fill="white" stroke="black" points="805.5,-116.5 805.5,-137.5 1092.5,-137.5 1092.5,-116.5 805.5,-116.5"/>
<text text-anchor="middle" x="949" y="-124.5" font-family="Helvetica,sans-Serif" font-size="10.00">ocra&#45;wbi&#45;plugins/ocra&#45;icub&#45;server/src/IcubControllerServer.cpp</text>
</a>
</g>
<!-- Node22&#45;&gt;Node28 -->
<g id="edge66" class="edge"><title>Node22&#45;&gt;Node28</title>
<path fill="none" stroke="midnightblue" d="M949,-164.191C949,-155.168 949,-144.994 949,-137.571"/>
<polygon fill="midnightblue" stroke="midnightblue" points="945.5,-164.362 949,-174.362 952.5,-164.362 945.5,-164.362"/>
</g>
<!-- Node24 -->
<g id="node53" class="node"><title>Node24</title>
<a xlink:href="Module_8h.html" target="_top" xlink:title="Module class for the controller server.">
<polygon fill="white" stroke="black" points="166.5,-58.5 166.5,-79.5 475.5,-79.5 475.5,-58.5 166.5,-58.5"/>
<text text-anchor="middle" x="321" y="-66.5" font-family="Helvetica,sans-Serif" font-size="10.00">ocra&#45;wbi&#45;plugins/ocra&#45;icub&#45;server/include/ocra&#45;icub&#45;server/Module.h</text>
</a>
</g>
<!-- Node23&#45;&gt;Node24 -->
<g id="edge58" class="edge"><title>Node23&#45;&gt;Node24</title>
<path fill="none" stroke="midnightblue" d="M545.213,-114.47C493.775,-104.038 421.364,-89.3535 372.89,-79.5231"/>
<polygon fill="midnightblue" stroke="midnightblue" points="544.711,-117.939 555.208,-116.497 546.103,-111.079 544.711,-117.939"/>
</g>
<!-- Node27 -->
<g id="node59" class="node"><title>Node27</title>
<a xlink:href="Thread_8cpp.html" target="_top" xlink:title="The thread class for the controller server.">
<polygon fill="white" stroke="black" points="493,-58.5 493,-79.5 721,-79.5 721,-58.5 493,-58.5"/>
<text text-anchor="middle" x="607" y="-66.5" font-family="Helvetica,sans-Serif" font-size="10.00">ocra&#45;wbi&#45;plugins/ocra&#45;icub&#45;server/src/Thread.cpp</text>
</a>
</g>
<!-- Node23&#45;&gt;Node27 -->
<g id="edge64" class="edge"><title>Node23&#45;&gt;Node27</title>
<path fill="none" stroke="midnightblue" d="M607,-106.191C607,-97.1684 607,-86.9941 607,-79.5707"/>
<polygon fill="midnightblue" stroke="midnightblue" points="603.5,-106.362 607,-116.362 610.5,-106.362 603.5,-106.362"/>
</g>
<!-- Node25 -->
<g id="node55" class="node"><title>Node25</title>
<a xlink:href="ocra-icub-server_2src_2main_8cpp.html" target="_top" xlink:title="ocra&#45;wbi&#45;plugins/ocra&#45;icub&#45;server/src/main.cpp">
<polygon fill="white" stroke="black" points="-0.5,-0.5 -0.5,-21.5 218.5,-21.5 218.5,-0.5 -0.5,-0.5"/>
<text text-anchor="middle" x="109" y="-8.5" font-family="Helvetica,sans-Serif" font-size="10.00">ocra&#45;wbi&#45;plugins/ocra&#45;icub&#45;server/src/main.cpp</text>
</a>
</g>
<!-- Node24&#45;&gt;Node25 -->
<g id="edge60" class="edge"><title>Node24&#45;&gt;Node25</title>
<path fill="none" stroke="midnightblue" d="M272.797,-55.8123C234.842,-45.4285 182.647,-31.1487 147.464,-21.5231"/>
<polygon fill="midnightblue" stroke="midnightblue" points="272.039,-59.2336 282.608,-58.4966 273.886,-52.4818 272.039,-59.2336"/>
</g>
<!-- Node26 -->
<g id="node57" class="node"><title>Node26</title>
<a xlink:href="Module_8cpp.html" target="_top" xlink:title="ocra&#45;wbi&#45;plugins/ocra&#45;icub&#45;server/src/Module.cpp">
<polygon fill="white" stroke="black" points="236,-0.5 236,-21.5 466,-21.5 466,-0.5 236,-0.5"/>
<text text-anchor="middle" x="351" y="-8.5" font-family="Helvetica,sans-Serif" font-size="10.00">ocra&#45;wbi&#45;plugins/ocra&#45;icub&#45;server/src/Module.cpp</text>
</a>
</g>
<!-- Node24&#45;&gt;Node26 -->
<g id="edge62" class="edge"><title>Node24&#45;&gt;Node26</title>
<path fill="none" stroke="midnightblue" d="M331.152,-49.3733C335.965,-40.0682 341.524,-29.3204 345.532,-21.5707"/>
<polygon fill="midnightblue" stroke="midnightblue" points="327.988,-47.8717 326.502,-58.3619 334.206,-51.0877 327.988,-47.8717"/>
</g>
<!-- Node30 -->
<g id="node65" class="node"><title>Node30</title>
<a xlink:href="MIQPController_8cpp.html" target="_top" xlink:title="ocra&#45;wbi&#45;plugins/ocra&#45;icub&#45;clients/walking&#45;client/src/MIQPController.cpp">
<polygon fill="white" stroke="black" points="1274.5,-116.5 1274.5,-137.5 1603.5,-137.5 1603.5,-116.5 1274.5,-116.5"/>
<text text-anchor="middle" x="1439" y="-124.5" font-family="Helvetica,sans-Serif" font-size="10.00">ocra&#45;wbi&#45;plugins/ocra&#45;icub&#45;clients/walking&#45;client/src/MIQPController.cpp</text>
</a>
</g>
<!-- Node29&#45;&gt;Node30 -->
<g id="edge70" class="edge"><title>Node29&#45;&gt;Node30</title>
<path fill="none" stroke="midnightblue" d="M1439,-164.191C1439,-155.168 1439,-144.994 1439,-137.571"/>
<polygon fill="midnightblue" stroke="midnightblue" points="1435.5,-164.362 1439,-174.362 1442.5,-164.362 1435.5,-164.362"/>
</g>
<!-- Node31&#45;&gt;Node2 -->
<g id="edge76" class="edge"><title>Node31&#45;&gt;Node2</title>
<path fill="none" stroke="midnightblue" d="M1886.26,-173.18C1965.3,-162.714 2079.59,-147.579 2155.53,-137.523"/>
<polygon fill="midnightblue" stroke="midnightblue" points="1885.77,-169.714 1876.32,-174.497 1886.69,-176.654 1885.77,-169.714"/>
</g>
<!-- Node32 -->
<g id="node71" class="node"><title>Node32</title>
<a xlink:href="ModelInitializer_8cpp.html" target="_top" xlink:title="ocra&#45;wbi&#45;plugins/ocra&#45;icub/src/ModelInitializer.cpp">
<polygon fill="white" stroke="black" points="1680.5,-116.5 1680.5,-137.5 1913.5,-137.5 1913.5,-116.5 1680.5,-116.5"/>
<text text-anchor="middle" x="1797" y="-124.5" font-family="Helvetica,sans-Serif" font-size="10.00">ocra&#45;wbi&#45;plugins/ocra&#45;icub/src/ModelInitializer.cpp</text>
</a>
</g>
<!-- Node31&#45;&gt;Node32 -->
<g id="edge78" class="edge"><title>Node31&#45;&gt;Node32</title>
<path fill="none" stroke="midnightblue" d="M1797,-164.191C1797,-155.168 1797,-144.994 1797,-137.571"/>
<polygon fill="midnightblue" stroke="midnightblue" points="1793.5,-164.362 1797,-174.362 1800.5,-164.362 1793.5,-164.362"/>
</g>
</g>
</svg>
