<?xml version="1.0" encoding="UTF-8" standalone="no"?>
<!DOCTYPE svg PUBLIC "-//W3C//DTD SVG 1.1//EN"
 "http://www.w3.org/Graphics/SVG/1.1/DTD/svg11.dtd">
<!-- Generated by graphviz version 2.26.3 (20100126.1600)
 -->
<!-- Title: G Pages: 1 -->
<svg width="4643pt" height="262pt"
 viewBox="0.00 0.00 4643.00 262.00" xmlns="http://www.w3.org/2000/svg" xmlns:xlink="http://www.w3.org/1999/xlink">
<g id="graph1" class="graph" transform="scale(1 1) rotate(0) translate(4 258)">
<title>G</title>
<polygon fill="white" stroke="white" points="-4,5 -4,-258 4640,-258 4640,5 -4,5"/>
<!-- Node1 -->
<g id="node1" class="node"><title>Node1</title>
<polygon fill="#bfbfbf" stroke="black" points="1942,-232.5 1942,-253.5 2224,-253.5 2224,-232.5 1942,-232.5"/>
<text text-anchor="middle" x="2083" y="-240.5" font-family="Helvetica,sans-Serif" font-size="10.00">ocra&#45;wbi&#45;plugins/ocra&#45;icub/include/ocra&#45;icub/OcraWbiModel.h</text>
</g>
<!-- Node2 -->
<g id="node3" class="node"><title>Node2</title>
<a xlink:href="IcubControllerServer_8h.html" target="_top" xlink:title="ocra&#45;wbi&#45;plugins/ocra&#45;icub&#45;server/include/ocra&#45;icub&#45;server/IcubControllerServer.h">
<polygon fill="white" stroke="black" points="991.5,-174.5 991.5,-195.5 1358.5,-195.5 1358.5,-174.5 991.5,-174.5"/>
<text text-anchor="middle" x="1175" y="-182.5" font-family="Helvetica,sans-Serif" font-size="10.00">ocra&#45;wbi&#45;plugins/ocra&#45;icub&#45;server/include/ocra&#45;icub&#45;server/IcubControllerServer.h</text>
</a>
</g>
<!-- Node1&#45;&gt;Node2 -->
<g id="edge2" class="edge"><title>Node1&#45;&gt;Node2</title>
<path fill="none" stroke="midnightblue" d="M1931.47,-233.321C1767.83,-222.868 1508.01,-206.271 1339.49,-195.507"/>
<polygon fill="midnightblue" stroke="midnightblue" points="1931.42,-236.825 1941.62,-233.969 1931.87,-229.839 1931.42,-236.825"/>
</g>
<!-- Node9 -->
<g id="node17" class="node"><title>Node9</title>
<a xlink:href="MIQPController_8h.html" target="_top" xlink:title="A thread for launching trajectory generators.">
<polygon fill="white" stroke="black" points="1657,-174.5 1657,-195.5 2055,-195.5 2055,-174.5 1657,-174.5"/>
<text text-anchor="middle" x="1856" y="-182.5" font-family="Helvetica,sans-Serif" font-size="10.00">ocra&#45;wbi&#45;plugins/ocra&#45;icub&#45;clients/walking&#45;client/include/walking&#45;client/MIQPController.h</text>
</a>
</g>
<!-- Node1&#45;&gt;Node9 -->
<g id="edge16" class="edge"><title>Node1&#45;&gt;Node9</title>
<path fill="none" stroke="midnightblue" d="M2032.16,-230.011C1991.46,-219.611 1935.1,-205.21 1897.19,-195.523"/>
<polygon fill="midnightblue" stroke="midnightblue" points="2031.34,-233.412 2041.89,-232.497 2033.07,-226.63 2031.34,-233.412"/>
</g>
<!-- Node11 -->
<g id="node21" class="node"><title>Node11</title>
<a xlink:href="IcubClient_8h.html" target="_top" xlink:title="ocra&#45;wbi&#45;plugins/ocra&#45;icub/include/ocra&#45;icub/IcubClient.h">
<polygon fill="white" stroke="black" points="2080,-116.5 2080,-137.5 2342,-137.5 2342,-116.5 2080,-116.5"/>
<text text-anchor="middle" x="2211" y="-124.5" font-family="Helvetica,sans-Serif" font-size="10.00">ocra&#45;wbi&#45;plugins/ocra&#45;icub/include/ocra&#45;icub/IcubClient.h</text>
</a>
</g>
<!-- Node1&#45;&gt;Node11 -->
<g id="edge20" class="edge"><title>Node1&#45;&gt;Node11</title>
<path fill="none" stroke="midnightblue" d="M2084.06,-222.006C2085.85,-207.039 2090.43,-187.294 2102,-174 2117.76,-155.89 2141.75,-144.53 2163.22,-137.526"/>
<polygon fill="midnightblue" stroke="midnightblue" points="2080.54,-222.069 2083.17,-232.333 2087.52,-222.67 2080.54,-222.069"/>
</g>
<!-- Node30 -->
<g id="node65" class="node"><title>Node30</title>
<a xlink:href="ModelInitializer_8h.html" target="_top" xlink:title="ocra&#45;wbi&#45;plugins/ocra&#45;icub/include/ocra&#45;icub/ModelInitializer.h">
<polygon fill="white" stroke="black" points="2110.5,-174.5 2110.5,-195.5 2393.5,-195.5 2393.5,-174.5 2110.5,-174.5"/>
<text text-anchor="middle" x="2252" y="-182.5" font-family="Helvetica,sans-Serif" font-size="10.00">ocra&#45;wbi&#45;plugins/ocra&#45;icub/include/ocra&#45;icub/ModelInitializer.h</text>
</a>
</g>
<!-- Node1&#45;&gt;Node30 -->
<g id="edge70" class="edge"><title>Node1&#45;&gt;Node30</title>
<path fill="none" stroke="midnightblue" d="M2123.37,-229.144C2153.45,-218.823 2193.89,-204.944 2221.34,-195.523"/>
<polygon fill="midnightblue" stroke="midnightblue" points="2121.93,-225.94 2113.6,-232.497 2124.2,-232.561 2121.93,-225.94"/>
</g>
<!-- Node32 -->
<g id="node70" class="node"><title>Node32</title>
<a xlink:href="OcraWbiModel_8cpp.html" target="_top" xlink:title="Implementation of ocra::Model using wholeBodyInterface.">
<polygon fill="white" stroke="black" points="2410.5,-174.5 2410.5,-195.5 2643.5,-195.5 2643.5,-174.5 2410.5,-174.5"/>
<text text-anchor="middle" x="2527" y="-182.5" font-family="Helvetica,sans-Serif" font-size="10.00">ocra&#45;wbi&#45;plugins/ocra&#45;icub/src/OcraWbiModel.cpp</text>
</a>
</g>
<!-- Node1&#45;&gt;Node32 -->
<g id="edge76" class="edge"><title>Node1&#45;&gt;Node32</title>
<path fill="none" stroke="midnightblue" d="M2173.48,-231.18C2253.6,-220.714 2369.47,-205.579 2446.44,-195.523"/>
<polygon fill="midnightblue" stroke="midnightblue" points="2172.87,-227.731 2163.41,-232.497 2173.77,-234.672 2172.87,-227.731"/>
</g>
<!-- Node3 -->
<g id="node5" class="node"><title>Node3</title>
<a xlink:href="Thread_8h.html" target="_top" xlink:title="The thread class for the controller server.">
<polygon fill="white" stroke="black" points="476,-116.5 476,-137.5 784,-137.5 784,-116.5 476,-116.5"/>
<text text-anchor="middle" x="630" y="-124.5" font-family="Helvetica,sans-Serif" font-size="10.00">ocra&#45;wbi&#45;plugins/ocra&#45;icub&#45;server/include/ocra&#45;icub&#45;server/Thread.h</text>
</a>
</g>
<!-- Node2&#45;&gt;Node3 -->
<g id="edge4" class="edge"><title>Node2&#45;&gt;Node3</title>
<path fill="none" stroke="midnightblue" d="M1066.33,-173.435C967.907,-162.961 824.14,-147.661 728.88,-137.523"/>
<polygon fill="midnightblue" stroke="midnightblue" points="1065.99,-176.919 1076.3,-174.497 1066.73,-169.958 1065.99,-176.919"/>
</g>
<!-- Node8 -->
<g id="node15" class="node"><title>Node8</title>
<a xlink:href="IcubControllerServer_8cpp.html" target="_top" xlink:title="ocra&#45;wbi&#45;plugins/ocra&#45;icub&#45;server/src/IcubControllerServer.cpp">
<polygon fill="white" stroke="black" points="1031.5,-116.5 1031.5,-137.5 1318.5,-137.5 1318.5,-116.5 1031.5,-116.5"/>
<text text-anchor="middle" x="1175" y="-124.5" font-family="Helvetica,sans-Serif" font-size="10.00">ocra&#45;wbi&#45;plugins/ocra&#45;icub&#45;server/src/IcubControllerServer.cpp</text>
</a>
</g>
<!-- Node2&#45;&gt;Node8 -->
<g id="edge14" class="edge"><title>Node2&#45;&gt;Node8</title>
<path fill="none" stroke="midnightblue" d="M1175,-164.191C1175,-155.168 1175,-144.994 1175,-137.571"/>
<polygon fill="midnightblue" stroke="midnightblue" points="1171.5,-164.362 1175,-174.362 1178.5,-164.362 1171.5,-164.362"/>
</g>
<!-- Node4 -->
<g id="node7" class="node"><title>Node4</title>
<a xlink:href="Module_8h.html" target="_top" xlink:title="Module class for the controller server.">
<polygon fill="white" stroke="black" points="189.5,-58.5 189.5,-79.5 498.5,-79.5 498.5,-58.5 189.5,-58.5"/>
<text text-anchor="middle" x="344" y="-66.5" font-family="Helvetica,sans-Serif" font-size="10.00">ocra&#45;wbi&#45;plugins/ocra&#45;icub&#45;server/include/ocra&#45;icub&#45;server/Module.h</text>
</a>
</g>
<!-- Node3&#45;&gt;Node4 -->
<g id="edge6" class="edge"><title>Node3&#45;&gt;Node4</title>
<path fill="none" stroke="midnightblue" d="M568.213,-114.47C516.775,-104.038 444.364,-89.3535 395.89,-79.5231"/>
<polygon fill="midnightblue" stroke="midnightblue" points="567.711,-117.939 578.208,-116.497 569.103,-111.079 567.711,-117.939"/>
</g>
<!-- Node7 -->
<g id="node13" class="node"><title>Node7</title>
<a xlink:href="Thread_8cpp.html" target="_top" xlink:title="The thread class for the controller server.">
<polygon fill="white" stroke="black" points="516,-58.5 516,-79.5 744,-79.5 744,-58.5 516,-58.5"/>
<text text-anchor="middle" x="630" y="-66.5" font-family="Helvetica,sans-Serif" font-size="10.00">ocra&#45;wbi&#45;plugins/ocra&#45;icub&#45;server/src/Thread.cpp</text>
</a>
</g>
<!-- Node3&#45;&gt;Node7 -->
<g id="edge12" class="edge"><title>Node3&#45;&gt;Node7</title>
<path fill="none" stroke="midnightblue" d="M630,-106.191C630,-97.1684 630,-86.9941 630,-79.5707"/>
<polygon fill="midnightblue" stroke="midnightblue" points="626.5,-106.362 630,-116.362 633.5,-106.362 626.5,-106.362"/>
</g>
<!-- Node5 -->
<g id="node9" class="node"><title>Node5</title>
<a xlink:href="ocra-icub-server_2src_2main_8cpp.html" target="_top" xlink:title="ocra&#45;wbi&#45;plugins/ocra&#45;icub&#45;server/src/main.cpp">
<polygon fill="white" stroke="black" points="-0.5,-0.5 -0.5,-21.5 218.5,-21.5 218.5,-0.5 -0.5,-0.5"/>
<text text-anchor="middle" x="109" y="-8.5" font-family="Helvetica,sans-Serif" font-size="10.00">ocra&#45;wbi&#45;plugins/ocra&#45;icub&#45;server/src/main.cpp</text>
</a>
</g>
<!-- Node4&#45;&gt;Node5 -->
<g id="edge8" class="edge"><title>Node4&#45;&gt;Node5</title>
<path fill="none" stroke="midnightblue" d="M291.638,-56.0766C249.481,-45.6718 190.969,-31.2306 151.637,-21.5231"/>
<polygon fill="midnightblue" stroke="midnightblue" points="290.896,-59.4984 301.443,-58.4966 292.573,-52.7023 290.896,-59.4984"/>
</g>
<!-- Node6 -->
<g id="node11" class="node"><title>Node6</title>
<a xlink:href="Module_8cpp.html" target="_top" xlink:title="ocra&#45;wbi&#45;plugins/ocra&#45;icub&#45;server/src/Module.cpp">
<polygon fill="white" stroke="black" points="236,-0.5 236,-21.5 466,-21.5 466,-0.5 236,-0.5"/>
<text text-anchor="middle" x="351" y="-8.5" font-family="Helvetica,sans-Serif" font-size="10.00">ocra&#45;wbi&#45;plugins/ocra&#45;icub&#45;server/src/Module.cpp</text>
</a>
</g>
<!-- Node4&#45;&gt;Node6 -->
<g id="edge10" class="edge"><title>Node4&#45;&gt;Node6</title>
<path fill="none" stroke="midnightblue" d="M346.511,-48.1906C347.6,-39.1684 348.828,-28.9941 349.724,-21.5707"/>
<polygon fill="midnightblue" stroke="midnightblue" points="343.007,-48.0145 345.284,-58.3619 349.957,-48.8533 343.007,-48.0145"/>
</g>
<!-- Node10 -->
<g id="node19" class="node"><title>Node10</title>
<a xlink:href="MIQPController_8cpp.html" target="_top" xlink:title="ocra&#45;wbi&#45;plugins/ocra&#45;icub&#45;clients/walking&#45;client/src/MIQPController.cpp">
<polygon fill="white" stroke="black" points="1691.5,-116.5 1691.5,-137.5 2020.5,-137.5 2020.5,-116.5 1691.5,-116.5"/>
<text text-anchor="middle" x="1856" y="-124.5" font-family="Helvetica,sans-Serif" font-size="10.00">ocra&#45;wbi&#45;plugins/ocra&#45;icub&#45;clients/walking&#45;client/src/MIQPController.cpp</text>
</a>
</g>
<!-- Node9&#45;&gt;Node10 -->
<g id="edge18" class="edge"><title>Node9&#45;&gt;Node10</title>
<path fill="none" stroke="midnightblue" d="M1856,-164.191C1856,-155.168 1856,-144.994 1856,-137.571"/>
<polygon fill="midnightblue" stroke="midnightblue" points="1852.5,-164.362 1856,-174.362 1859.5,-164.362 1852.5,-164.362"/>
</g>
<!-- Node12 -->
<g id="node23" class="node"><title>Node12</title>
<a xlink:href="ExampleClient_8h.html" target="_top" xlink:title="ocra&#45;wbi&#45;plugins/ocra&#45;icub&#45;clients/example&#45;client/include/example&#45;client/ExampleClient.h">
<polygon fill="white" stroke="black" points="800,-58.5 800,-79.5 1202,-79.5 1202,-58.5 800,-58.5"/>
<text text-anchor="middle" x="1001" y="-66.5" font-family="Helvetica,sans-Serif" font-size="10.00">ocra&#45;wbi&#45;plugins/ocra&#45;icub&#45;clients/example&#45;client/include/example&#45;client/ExampleClient.h</text>
</a>
</g>
<!-- Node11&#45;&gt;Node12 -->
<g id="edge22" class="edge"><title>Node11&#45;&gt;Node12</title>
<path fill="none" stroke="midnightblue" d="M2069.77,-118.259C2055.99,-117.468 2042.23,-116.702 2029,-116 1741.99,-100.766 1409.74,-86.1181 1202.45,-77.3355"/>
<polygon fill="midnightblue" stroke="midnightblue" points="2069.61,-121.756 2079.79,-118.839 2070.01,-114.768 2069.61,-121.756"/>
</g>
<!-- Node13 -->
<g id="node25" class="node"><title>Node13</title>
<a xlink:href="example-client_8cpp.html" target="_top" xlink:title="ocra&#45;wbi&#45;plugins/ocra&#45;icub&#45;clients/example&#45;client/src/example&#45;client.cpp">
<polygon fill="white" stroke="black" points="486.5,-0.5 486.5,-21.5 815.5,-21.5 815.5,-0.5 486.5,-0.5"/>
<text text-anchor="middle" x="651" y="-8.5" font-family="Helvetica,sans-Serif" font-size="10.00">ocra&#45;wbi&#45;plugins/ocra&#45;icub&#45;clients/example&#45;client/src/example&#45;client.cpp</text>
</a>
</g>
<!-- Node11&#45;&gt;Node13 -->
<g id="edge28" class="edge"><title>Node11&#45;&gt;Node13</title>
<path fill="none" stroke="midnightblue" d="M2069.78,-118.029C2056,-117.285 2042.23,-116.592 2029,-116 1891.52,-109.848 923.37,-117.625 791,-80 772.228,-74.6644 770.325,-66.9821 753,-58 727.035,-44.5388 696.479,-30.7163 675.626,-21.5774"/>
<polygon fill="midnightblue" stroke="midnightblue" points="2069.63,-121.526 2079.8,-118.579 2070.01,-114.536 2069.63,-121.526"/>
</g>
<!-- Node15 -->
<g id="node30" class="node"><title>Node15</title>
<a xlink:href="SittingDemoClient_8h.html" target="_top" xlink:title="ocra&#45;wbi&#45;plugins/ocra&#45;icub&#45;clients/sitting&#45;demo/include/sitting&#45;demo/SittingDemoClient.h">
<polygon fill="white" stroke="black" points="1441,-58.5 1441,-79.5 1839,-79.5 1839,-58.5 1441,-58.5"/>
<text text-anchor="middle" x="1640" y="-66.5" font-family="Helvetica,sans-Serif" font-size="10.00">ocra&#45;wbi&#45;plugins/ocra&#45;icub&#45;clients/sitting&#45;demo/include/sitting&#45;demo/SittingDemoClient.h</text>
</a>
</g>
<!-- Node11&#45;&gt;Node15 -->
<g id="edge30" class="edge"><title>Node11&#45;&gt;Node15</title>
<path fill="none" stroke="midnightblue" d="M2097.46,-115.467C1994.33,-104.992 1843.5,-89.671 1743.6,-79.5231"/>
<polygon fill="midnightblue" stroke="midnightblue" points="2097.29,-118.968 2107.6,-116.497 2098,-112.004 2097.29,-118.968"/>
</g>
<!-- Node16 -->
<g id="node32" class="node"><title>Node16</title>
<a xlink:href="ocra-icub-clients_2sitting-demo_2src_2main_8cpp.html" target="_top" xlink:title="ocra&#45;wbi&#45;plugins/ocra&#45;icub&#45;clients/sitting&#45;demo/src/main.cpp">
<polygon fill="white" stroke="black" points="1178.5,-0.5 1178.5,-21.5 1455.5,-21.5 1455.5,-0.5 1178.5,-0.5"/>
<text text-anchor="middle" x="1317" y="-8.5" font-family="Helvetica,sans-Serif" font-size="10.00">ocra&#45;wbi&#45;plugins/ocra&#45;icub&#45;clients/sitting&#45;demo/src/main.cpp</text>
</a>
</g>
<!-- Node11&#45;&gt;Node16 -->
<g id="edge36" class="edge"><title>Node11&#45;&gt;Node16</title>
<path fill="none" stroke="midnightblue" d="M2069.76,-118.461C2055.98,-117.629 2042.22,-116.798 2029,-116 1896.33,-107.991 1558.96,-119.318 1432,-80 1391.3,-67.3951 1350.02,-37.5522 1329.79,-21.5573"/>
<polygon fill="midnightblue" stroke="midnightblue" points="2069.59,-121.957 2079.78,-119.067 2070.01,-114.97 2069.59,-121.957"/>
</g>
<!-- Node18 -->
<g id="node37" class="node"><title>Node18</title>
<a xlink:href="StandingDemoClient_8h.html" target="_top" xlink:title="ocra&#45;wbi&#45;plugins/ocra&#45;icub&#45;clients/standing&#45;demo/include/standing&#45;demo/StandingDemoClient.h">
<polygon fill="white" stroke="black" points="1996,-58.5 1996,-79.5 2426,-79.5 2426,-58.5 1996,-58.5"/>
<text text-anchor="middle" x="2211" y="-66.5" font-family="Helvetica,sans-Serif" font-size="10.00">ocra&#45;wbi&#45;plugins/ocra&#45;icub&#45;clients/standing&#45;demo/include/standing&#45;demo/StandingDemoClient.h</text>
</a>
</g>
<!-- Node11&#45;&gt;Node18 -->
<g id="edge38" class="edge"><title>Node11&#45;&gt;Node18</title>
<path fill="none" stroke="midnightblue" d="M2211,-106.191C2211,-97.1684 2211,-86.9941 2211,-79.5707"/>
<polygon fill="midnightblue" stroke="midnightblue" points="2207.5,-106.362 2211,-116.362 2214.5,-106.362 2207.5,-106.362"/>
</g>
<!-- Node19 -->
<g id="node39" class="node"><title>Node19</title>
<a xlink:href="ocra-icub-clients_2standing-demo_2src_2main_8cpp.html" target="_top" xlink:title="ocra&#45;wbi&#45;plugins/ocra&#45;icub&#45;clients/standing&#45;demo/src/main.cpp">
<polygon fill="white" stroke="black" points="1824.5,-0.5 1824.5,-21.5 2111.5,-21.5 2111.5,-0.5 1824.5,-0.5"/>
<text text-anchor="middle" x="1968" y="-8.5" font-family="Helvetica,sans-Serif" font-size="10.00">ocra&#45;wbi&#45;plugins/ocra&#45;icub&#45;clients/standing&#45;demo/src/main.cpp</text>
</a>
</g>
<!-- Node11&#45;&gt;Node19 -->
<g id="edge44" class="edge"><title>Node11&#45;&gt;Node19</title>
<path fill="none" stroke="midnightblue" d="M2102.35,-114.991C2054.08,-107.541 2004.27,-96.2312 1987,-80 1970.7,-64.6823 1967.93,-36.7926 1967.72,-21.5831"/>
<polygon fill="midnightblue" stroke="midnightblue" points="2101.89,-118.461 2112.3,-116.476 2102.92,-111.537 2101.89,-118.461"/>
</g>
<!-- Node21 -->
<g id="node44" class="node"><title>Node21</title>
<a xlink:href="SteppingDemoClient_8h.html" target="_top" xlink:title="ocra&#45;wbi&#45;plugins/ocra&#45;icub&#45;clients/stepping&#45;demo/include/stepping&#45;demo/SteppingDemoClient.h">
<polygon fill="white" stroke="black" points="2482,-58.5 2482,-79.5 2912,-79.5 2912,-58.5 2482,-58.5"/>
<text text-anchor="middle" x="2697" y="-66.5" font-family="Helvetica,sans-Serif" font-size="10.00">ocra&#45;wbi&#45;plugins/ocra&#45;icub&#45;clients/stepping&#45;demo/include/stepping&#45;demo/SteppingDemoClient.h</text>
</a>
</g>
<!-- Node11&#45;&gt;Node21 -->
<g id="edge46" class="edge"><title>Node11&#45;&gt;Node21</title>
<path fill="none" stroke="midnightblue" d="M2308.97,-115.308C2396.71,-104.837 2524.22,-89.6198 2608.82,-79.5231"/>
<polygon fill="midnightblue" stroke="midnightblue" points="2308.53,-111.836 2299.01,-116.497 2309.36,-118.787 2308.53,-111.836"/>
</g>
<!-- Node22 -->
<g id="node46" class="node"><title>Node22</title>
<a xlink:href="stepping-demo_8cpp.html" target="_top" xlink:title="ocra&#45;wbi&#45;plugins/ocra&#45;icub&#45;clients/stepping&#45;demo/src/stepping&#45;demo.cpp">
<polygon fill="white" stroke="black" points="2503,-0.5 2503,-21.5 2833,-21.5 2833,-0.5 2503,-0.5"/>
<text text-anchor="middle" x="2668" y="-8.5" font-family="Helvetica,sans-Serif" font-size="10.00">ocra&#45;wbi&#45;plugins/ocra&#45;icub&#45;clients/stepping&#45;demo/src/stepping&#45;demo.cpp</text>
</a>
</g>
<!-- Node11&#45;&gt;Node22 -->
<g id="edge52" class="edge"><title>Node11&#45;&gt;Node22</title>
<path fill="none" stroke="midnightblue" d="M2301.65,-114.723C2343.17,-107.404 2392.49,-96.2824 2435,-80 2453.22,-73.0194 2454.88,-65.2504 2473,-58 2515.35,-41.0512 2565.42,-29.1412 2604.22,-21.5513"/>
<polygon fill="midnightblue" stroke="midnightblue" points="2300.81,-111.316 2291.55,-116.457 2302,-118.215 2300.81,-111.316"/>
</g>
<!-- Node24 -->
<g id="node51" class="node"><title>Node24</title>
<a xlink:href="TaskOpsClient_8h.html" target="_top" xlink:title="ocra&#45;wbi&#45;plugins/ocra&#45;icub&#45;clients/task&#45;operations&#45;demo/include/task&#45;operations&#45;demo/TaskOpsClient.h">
<polygon fill="white" stroke="black" points="3187.5,-58.5 3187.5,-79.5 3652.5,-79.5 3652.5,-58.5 3187.5,-58.5"/>
<text text-anchor="middle" x="3420" y="-66.5" font-family="Helvetica,sans-Serif" font-size="10.00">ocra&#45;wbi&#45;plugins/ocra&#45;icub&#45;clients/task&#45;operations&#45;demo/include/task&#45;operations&#45;demo/TaskOpsClient.h</text>
</a>
</g>
<!-- Node11&#45;&gt;Node24 -->
<g id="edge54" class="edge"><title>Node11&#45;&gt;Node24</title>
<path fill="none" stroke="midnightblue" d="M2352.16,-115.947C2646.31,-98.0647 2973.17,-84.7472 3187.37,-76.9161"/>
<polygon fill="midnightblue" stroke="midnightblue" points="2351.92,-112.455 2342.15,-116.558 2352.34,-119.442 2351.92,-112.455"/>
</g>
<!-- Node25 -->
<g id="node53" class="node"><title>Node25</title>
<a xlink:href="task-operations-demo_8cpp.html" target="_top" xlink:title="ocra&#45;wbi&#45;plugins/ocra&#45;icub&#45;clients/task&#45;operations&#45;demo/src/task&#45;operations&#45;demo.cpp">
<polygon fill="white" stroke="black" points="3225,-0.5 3225,-21.5 3615,-21.5 3615,-0.5 3225,-0.5"/>
<text text-anchor="middle" x="3420" y="-8.5" font-family="Helvetica,sans-Serif" font-size="10.00">ocra&#45;wbi&#45;plugins/ocra&#45;icub&#45;clients/task&#45;operations&#45;demo/src/task&#45;operations&#45;demo.cpp</text>
</a>
</g>
<!-- Node11&#45;&gt;Node25 -->
<g id="edge60" class="edge"><title>Node11&#45;&gt;Node25</title>
<path fill="none" stroke="midnightblue" d="M2352.41,-115.913C2605.93,-98.2459 2671.77,-105.067 2921,-80 3077.41,-64.2684 3260.19,-36.6108 3355.19,-21.5307"/>
<polygon fill="midnightblue" stroke="midnightblue" points="2351.88,-112.441 2342.15,-116.634 2352.37,-119.424 2351.88,-112.441"/>
</g>
<!-- Node27 -->
<g id="node58" class="node"><title>Node27</title>
<a xlink:href="WalkingClient_8h.html" target="_top" xlink:title="ocra&#45;wbi&#45;plugins/ocra&#45;icub&#45;clients/walking&#45;client/include/walking&#45;client/WalkingClient.h">
<polygon fill="white" stroke="black" points="3958,-58.5 3958,-79.5 4350,-79.5 4350,-58.5 3958,-58.5"/>
<text text-anchor="middle" x="4154" y="-66.5" font-family="Helvetica,sans-Serif" font-size="10.00">ocra&#45;wbi&#45;plugins/ocra&#45;icub&#45;clients/walking&#45;client/include/walking&#45;client/WalkingClient.h</text>
</a>
</g>
<!-- Node11&#45;&gt;Node27 -->
<g id="edge62" class="edge"><title>Node11&#45;&gt;Node27</title>
<path fill="none" stroke="midnightblue" d="M2352.27,-115.961C3004.47,-82.5932 3169.97,-98.6135 3819,-80 3863.93,-78.7113 3912.25,-77.1988 3957.83,-75.7148"/>
<polygon fill="midnightblue" stroke="midnightblue" points="2351.95,-112.472 2342.14,-116.48 2352.31,-119.463 2351.95,-112.472"/>
</g>
<!-- Node28 -->
<g id="node60" class="node"><title>Node28</title>
<a xlink:href="ocra-icub-clients_2walking-client_2src_2main_8cpp.html" target="_top" xlink:title="ocra&#45;wbi&#45;plugins/ocra&#45;icub&#45;clients/walking&#45;client/src/main.cpp">
<polygon fill="white" stroke="black" points="4012.5,-0.5 4012.5,-21.5 4295.5,-21.5 4295.5,-0.5 4012.5,-0.5"/>
<text text-anchor="middle" x="4154" y="-8.5" font-family="Helvetica,sans-Serif" font-size="10.00">ocra&#45;wbi&#45;plugins/ocra&#45;icub&#45;clients/walking&#45;client/src/main.cpp</text>
</a>
</g>
<!-- Node11&#45;&gt;Node28 -->
<g id="edge68" class="edge"><title>Node11&#45;&gt;Node28</title>
<path fill="none" stroke="midnightblue" d="M2352.48,-115.949C2934.37,-85.6825 3083.98,-128.157 3661,-80 3818.18,-66.8822 4001.8,-37.4008 4094.29,-21.5534"/>
<polygon fill="midnightblue" stroke="midnightblue" points="2351.95,-112.472 2342.14,-116.492 2352.31,-119.463 2351.95,-112.472"/>
</g>
<!-- Node12&#45;&gt;Node13 -->
<g id="edge24" class="edge"><title>Node12&#45;&gt;Node13</title>
<path fill="none" stroke="midnightblue" d="M927.735,-56.8589C864.657,-46.4061 774.564,-31.4764 714.501,-21.5231"/>
<polygon fill="midnightblue" stroke="midnightblue" points="927.18,-60.3146 937.618,-58.4966 928.324,-53.4088 927.18,-60.3146"/>
</g>
<!-- Node14 -->
<g id="node27" class="node"><title>Node14</title>
<a xlink:href="ExampleClient_8cpp.html" target="_top" xlink:title="ocra&#45;wbi&#45;plugins/ocra&#45;icub&#45;clients/example&#45;client/src/ExampleClient.cpp">
<polygon fill="white" stroke="black" points="832.5,-0.5 832.5,-21.5 1161.5,-21.5 1161.5,-0.5 832.5,-0.5"/>
<text text-anchor="middle" x="997" y="-8.5" font-family="Helvetica,sans-Serif" font-size="10.00">ocra&#45;wbi&#45;plugins/ocra&#45;icub&#45;clients/example&#45;client/src/ExampleClient.cpp</text>
</a>
</g>
<!-- Node12&#45;&gt;Node14 -->
<g id="edge26" class="edge"><title>Node12&#45;&gt;Node14</title>
<path fill="none" stroke="midnightblue" d="M999.565,-48.1906C998.943,-39.1684 998.241,-28.9941 997.729,-21.5707"/>
<polygon fill="midnightblue" stroke="midnightblue" points="996.087,-48.6264 1000.27,-58.3619 1003.07,-48.1448 996.087,-48.6264"/>
</g>
<!-- Node15&#45;&gt;Node16 -->
<g id="edge32" class="edge"><title>Node15&#45;&gt;Node16</title>
<path fill="none" stroke="midnightblue" d="M1571.31,-56.6648C1513.15,-46.222 1430.69,-31.415 1375.6,-21.5231"/>
<polygon fill="midnightblue" stroke="midnightblue" points="1571.05,-60.1741 1581.51,-58.4966 1572.28,-53.2843 1571.05,-60.1741"/>
</g>
<!-- Node17 -->
<g id="node34" class="node"><title>Node17</title>
<a xlink:href="SittingDemoClient_8cpp.html" target="_top" xlink:title="ocra&#45;wbi&#45;plugins/ocra&#45;icub&#45;clients/sitting&#45;demo/src/SittingDemoClient.cpp">
<polygon fill="white" stroke="black" points="1472.5,-0.5 1472.5,-21.5 1807.5,-21.5 1807.5,-0.5 1472.5,-0.5"/>
<text text-anchor="middle" x="1640" y="-8.5" font-family="Helvetica,sans-Serif" font-size="10.00">ocra&#45;wbi&#45;plugins/ocra&#45;icub&#45;clients/sitting&#45;demo/src/SittingDemoClient.cpp</text>
</a>
</g>
<!-- Node15&#45;&gt;Node17 -->
<g id="edge34" class="edge"><title>Node15&#45;&gt;Node17</title>
<path fill="none" stroke="midnightblue" d="M1640,-48.1906C1640,-39.1684 1640,-28.9941 1640,-21.5707"/>
<polygon fill="midnightblue" stroke="midnightblue" points="1636.5,-48.3619 1640,-58.3619 1643.5,-48.3619 1636.5,-48.3619"/>
</g>
<!-- Node18&#45;&gt;Node19 -->
<g id="edge40" class="edge"><title>Node18&#45;&gt;Node19</title>
<path fill="none" stroke="midnightblue" d="M2157.13,-56.1424C2113.52,-45.7328 2052.85,-31.2511 2012.09,-21.5231"/>
<polygon fill="midnightblue" stroke="midnightblue" points="2156.46,-59.5793 2166.99,-58.4966 2158.08,-52.7706 2156.46,-59.5793"/>
</g>
<!-- Node20 -->
<g id="node41" class="node"><title>Node20</title>
<a xlink:href="StandingDemoClient_8cpp.html" target="_top" xlink:title="ocra&#45;wbi&#45;plugins/ocra&#45;icub&#45;clients/standing&#45;demo/src/StandingDemoClient.cpp">
<polygon fill="white" stroke="black" points="2129,-0.5 2129,-21.5 2485,-21.5 2485,-0.5 2129,-0.5"/>
<text text-anchor="middle" x="2307" y="-8.5" font-family="Helvetica,sans-Serif" font-size="10.00">ocra&#45;wbi&#45;plugins/ocra&#45;icub&#45;clients/standing&#45;demo/src/StandingDemoClient.cpp</text>
</a>
</g>
<!-- Node18&#45;&gt;Node20 -->
<g id="edge42" class="edge"><title>Node18&#45;&gt;Node20</title>
<path fill="none" stroke="midnightblue" d="M2237.32,-53.1009C2253.93,-43.0658 2274.92,-30.3808 2289.5,-21.5707"/>
<polygon fill="midnightblue" stroke="midnightblue" points="2235.36,-50.195 2228.61,-58.3619 2238.98,-56.1864 2235.36,-50.195"/>
</g>
<!-- Node21&#45;&gt;Node22 -->
<g id="edge48" class="edge"><title>Node21&#45;&gt;Node22</title>
<path fill="none" stroke="midnightblue" d="M2687.19,-49.3733C2682.53,-40.0682 2677.16,-29.3204 2673.29,-21.5707"/>
<polygon fill="midnightblue" stroke="midnightblue" points="2684.08,-50.9829 2691.68,-58.3619 2690.34,-47.8524 2684.08,-50.9829"/>
</g>
<!-- Node23 -->
<g id="node48" class="node"><title>Node23</title>
<a xlink:href="SteppingDemoClient_8cpp.html" target="_top" xlink:title="ocra&#45;wbi&#45;plugins/ocra&#45;icub&#45;clients/stepping&#45;demo/src/SteppingDemoClient.cpp">
<polygon fill="white" stroke="black" points="2851,-0.5 2851,-21.5 3207,-21.5 3207,-0.5 2851,-0.5"/>
<text text-anchor="middle" x="3029" y="-8.5" font-family="Helvetica,sans-Serif" font-size="10.00">ocra&#45;wbi&#45;plugins/ocra&#45;icub&#45;clients/stepping&#45;demo/src/SteppingDemoClient.cpp</text>
</a>
</g>
<!-- Node21&#45;&gt;Node23 -->
<g id="edge50" class="edge"><title>Node21&#45;&gt;Node23</title>
<path fill="none" stroke="midnightblue" d="M2767.24,-56.7296C2827.03,-46.2833 2912.02,-31.4354 2968.76,-21.5231"/>
<polygon fill="midnightblue" stroke="midnightblue" points="2766.37,-53.3278 2757.12,-58.4966 2767.58,-60.2234 2766.37,-53.3278"/>
</g>
<!-- Node24&#45;&gt;Node25 -->
<g id="edge56" class="edge"><title>Node24&#45;&gt;Node25</title>
<path fill="none" stroke="midnightblue" d="M3420,-48.1906C3420,-39.1684 3420,-28.9941 3420,-21.5707"/>
<polygon fill="midnightblue" stroke="midnightblue" points="3416.5,-48.3619 3420,-58.3619 3423.5,-48.3619 3416.5,-48.3619"/>
</g>
<!-- Node26 -->
<g id="node55" class="node"><title>Node26</title>
<a xlink:href="TaskOpsClient_8cpp.html" target="_top" xlink:title="ocra&#45;wbi&#45;plugins/ocra&#45;icub&#45;clients/task&#45;operations&#45;demo/src/TaskOpsClient.cpp">
<polygon fill="white" stroke="black" points="3633,-0.5 3633,-21.5 3995,-21.5 3995,-0.5 3633,-0.5"/>
<text text-anchor="middle" x="3814" y="-8.5" font-family="Helvetica,sans-Serif" font-size="10.00">ocra&#45;wbi&#45;plugins/ocra&#45;icub&#45;clients/task&#45;operations&#45;demo/src/TaskOpsClient.cpp</text>
</a>
</g>
<!-- Node24&#45;&gt;Node26 -->
<g id="edge58" class="edge"><title>Node24&#45;&gt;Node26</title>
<path fill="none" stroke="midnightblue" d="M3501.6,-56.9877C3572.65,-46.529 3674.62,-31.5174 3742.52,-21.5231"/>
<polygon fill="midnightblue" stroke="midnightblue" points="3500.73,-53.5775 3491.35,-58.4966 3501.75,-60.5029 3500.73,-53.5775"/>
</g>
<!-- Node27&#45;&gt;Node28 -->
<g id="edge64" class="edge"><title>Node27&#45;&gt;Node28</title>
<path fill="none" stroke="midnightblue" d="M4154,-48.1906C4154,-39.1684 4154,-28.9941 4154,-21.5707"/>
<polygon fill="midnightblue" stroke="midnightblue" points="4150.5,-48.3619 4154,-58.3619 4157.5,-48.3619 4150.5,-48.3619"/>
</g>
<!-- Node29 -->
<g id="node62" class="node"><title>Node29</title>
<a xlink:href="WalkingClient_8cpp.html" target="_top" xlink:title="ocra&#45;wbi&#45;plugins/ocra&#45;icub&#45;clients/walking&#45;client/src/WalkingClient.cpp">
<polygon fill="white" stroke="black" points="4312.5,-0.5 4312.5,-21.5 4635.5,-21.5 4635.5,-0.5 4312.5,-0.5"/>
<text text-anchor="middle" x="4474" y="-8.5" font-family="Helvetica,sans-Serif" font-size="10.00">ocra&#45;wbi&#45;plugins/ocra&#45;icub&#45;clients/walking&#45;client/src/WalkingClient.cpp</text>
</a>
</g>
<!-- Node27&#45;&gt;Node29 -->
<g id="edge66" class="edge"><title>Node27&#45;&gt;Node29</title>
<path fill="none" stroke="midnightblue" d="M4222.06,-56.6648C4279.67,-46.222 4361.37,-31.415 4415.94,-21.5231"/>
<polygon fill="midnightblue" stroke="midnightblue" points="4221.17,-53.2692 4211.95,-58.4966 4222.41,-60.157 4221.17,-53.2692"/>
</g>
<!-- Node30&#45;&gt;Node11 -->
<g id="edge72" class="edge"><title>Node30&#45;&gt;Node11</title>
<path fill="none" stroke="midnightblue" d="M2238.54,-165.959C2231.87,-156.522 2224.07,-145.484 2218.47,-137.571"/>
<polygon fill="midnightblue" stroke="midnightblue" points="2235.85,-168.216 2244.48,-174.362 2241.57,-164.176 2235.85,-168.216"/>
</g>
<!-- Node31 -->
<g id="node68" class="node"><title>Node31</title>
<a xlink:href="ModelInitializer_8cpp.html" target="_top" xlink:title="ocra&#45;wbi&#45;plugins/ocra&#45;icub/src/ModelInitializer.cpp">
<polygon fill="white" stroke="black" points="2359.5,-116.5 2359.5,-137.5 2592.5,-137.5 2592.5,-116.5 2359.5,-116.5"/>
<text text-anchor="middle" x="2476" y="-124.5" font-family="Helvetica,sans-Serif" font-size="10.00">ocra&#45;wbi&#45;plugins/ocra&#45;icub/src/ModelInitializer.cpp</text>
</a>
</g>
<!-- Node30&#45;&gt;Node31 -->
<g id="edge74" class="edge"><title>Node30&#45;&gt;Node31</title>
<path fill="none" stroke="midnightblue" d="M2302.42,-171.945C2342.57,-161.55 2398.03,-147.19 2435.36,-137.523"/>
<polygon fill="midnightblue" stroke="midnightblue" points="2301.37,-168.602 2292.56,-174.497 2303.12,-175.378 2301.37,-168.602"/>
</g>
</g>
</svg>
