<?xml version="1.0" encoding="UTF-8" standalone="no"?>
<!DOCTYPE svg PUBLIC "-//W3C//DTD SVG 1.1//EN"
 "http://www.w3.org/Graphics/SVG/1.1/DTD/svg11.dtd">
<!-- Generated by graphviz version 2.26.3 (20100126.1600)
 -->
<!-- Title: G Pages: 1 -->
<svg width="4640pt" height="262pt"
 viewBox="0.00 0.00 4640.00 262.00" xmlns="http://www.w3.org/2000/svg" xmlns:xlink="http://www.w3.org/1999/xlink">
<g id="graph1" class="graph" transform="scale(1 1) rotate(0) translate(4 258)">
<title>G</title>
<polygon fill="white" stroke="white" points="-4,5 -4,-258 4637,-258 4637,5 -4,5"/>
<!-- Node1 -->
<g id="node1" class="node"><title>Node1</title>
<polygon fill="#bfbfbf" stroke="black" points="1734,-232.5 1734,-253.5 2016,-253.5 2016,-232.5 1734,-232.5"/>
<text text-anchor="middle" x="1875" y="-240.5" font-family="Helvetica,sans-Serif" font-size="10.00">ocra&#45;wbi&#45;plugins/ocra&#45;icub/include/ocra&#45;icub/OcraWbiModel.h</text>
</g>
<!-- Node2 -->
<g id="node3" class="node"><title>Node2</title>
<a xlink:href="IcubControllerServer_8h.html" target="_top" xlink:title="ocra&#45;wbi&#45;plugins/ocra&#45;icub&#45;server/include/ocra&#45;icub&#45;server/IcubControllerServer.h">
<polygon fill="white" stroke="black" points="859.5,-174.5 859.5,-195.5 1226.5,-195.5 1226.5,-174.5 859.5,-174.5"/>
<text text-anchor="middle" x="1043" y="-182.5" font-family="Helvetica,sans-Serif" font-size="10.00">ocra&#45;wbi&#45;plugins/ocra&#45;icub&#45;server/include/ocra&#45;icub&#45;server/IcubControllerServer.h</text>
</a>
</g>
<!-- Node1&#45;&gt;Node2 -->
<g id="edge2" class="edge"><title>Node1&#45;&gt;Node2</title>
<path fill="none" stroke="midnightblue" d="M1723.62,-232.447C1573.18,-221.96 1343.81,-205.97 1193.63,-195.501"/>
<polygon fill="midnightblue" stroke="midnightblue" points="1723.64,-235.957 1733.86,-233.161 1724.13,-228.974 1723.64,-235.957"/>
</g>
<!-- Node9 -->
<g id="node17" class="node"><title>Node9</title>
<a xlink:href="MIQPController_8h.html" target="_top" xlink:title="A thread for launching trajectory generators.">
<polygon fill="white" stroke="black" points="1400,-174.5 1400,-195.5 1798,-195.5 1798,-174.5 1400,-174.5"/>
<text text-anchor="middle" x="1599" y="-182.5" font-family="Helvetica,sans-Serif" font-size="10.00">ocra&#45;wbi&#45;plugins/ocra&#45;icub&#45;clients/walking&#45;client/include/walking&#45;client/MIQPController.h</text>
</a>
</g>
<!-- Node1&#45;&gt;Node9 -->
<g id="edge16" class="edge"><title>Node1&#45;&gt;Node9</title>
<path fill="none" stroke="midnightblue" d="M1815.06,-230.404C1765.44,-219.977 1695.76,-205.333 1649.08,-195.523"/>
<polygon fill="midnightblue" stroke="midnightblue" points="1814.51,-233.865 1825.02,-232.497 1815.95,-227.015 1814.51,-233.865"/>
</g>
<!-- Node14 -->
<g id="node27" class="node"><title>Node14</title>
<a xlink:href="IcubClient_8h.html" target="_top" xlink:title="ocra&#45;wbi&#45;plugins/ocra&#45;icub/include/ocra&#45;icub/IcubClient.h">
<polygon fill="white" stroke="black" points="1913,-116.5 1913,-137.5 2175,-137.5 2175,-116.5 1913,-116.5"/>
<text text-anchor="middle" x="2044" y="-124.5" font-family="Helvetica,sans-Serif" font-size="10.00">ocra&#45;wbi&#45;plugins/ocra&#45;icub/include/ocra&#45;icub/IcubClient.h</text>
</a>
</g>
<!-- Node1&#45;&gt;Node14 -->
<g id="edge26" class="edge"><title>Node1&#45;&gt;Node14</title>
<path fill="none" stroke="midnightblue" d="M1875.59,-222.338C1877.11,-207.105 1881.57,-186.874 1894,-174 1907.89,-159.62 1955,-146.307 1992.77,-137.548"/>
<polygon fill="midnightblue" stroke="midnightblue" points="1872.09,-222.162 1874.93,-232.37 1879.08,-222.622 1872.09,-222.162"/>
</g>
<!-- Node30 -->
<g id="node66" class="node"><title>Node30</title>
<a xlink:href="ModelInitializer_8h.html" target="_top" xlink:title="ocra&#45;wbi&#45;plugins/ocra&#45;icub/include/ocra&#45;icub/ModelInitializer.h">
<polygon fill="white" stroke="black" points="1902.5,-174.5 1902.5,-195.5 2185.5,-195.5 2185.5,-174.5 1902.5,-174.5"/>
<text text-anchor="middle" x="2044" y="-182.5" font-family="Helvetica,sans-Serif" font-size="10.00">ocra&#45;wbi&#45;plugins/ocra&#45;icub/include/ocra&#45;icub/ModelInitializer.h</text>
</a>
</g>
<!-- Node1&#45;&gt;Node30 -->
<g id="edge72" class="edge"><title>Node1&#45;&gt;Node30</title>
<path fill="none" stroke="midnightblue" d="M1915.37,-229.144C1945.45,-218.823 1985.89,-204.944 2013.34,-195.523"/>
<polygon fill="midnightblue" stroke="midnightblue" points="1913.93,-225.94 1905.6,-232.497 1916.2,-232.561 1913.93,-225.94"/>
</g>
<!-- Node32 -->
<g id="node71" class="node"><title>Node32</title>
<a xlink:href="OcraWbiModel_8cpp.html" target="_top" xlink:title="Implementation of ocra::Model using wholeBodyInterface.">
<polygon fill="white" stroke="black" points="2202.5,-174.5 2202.5,-195.5 2435.5,-195.5 2435.5,-174.5 2202.5,-174.5"/>
<text text-anchor="middle" x="2319" y="-182.5" font-family="Helvetica,sans-Serif" font-size="10.00">ocra&#45;wbi&#45;plugins/ocra&#45;icub/src/OcraWbiModel.cpp</text>
</a>
</g>
<!-- Node1&#45;&gt;Node32 -->
<g id="edge78" class="edge"><title>Node1&#45;&gt;Node32</title>
<path fill="none" stroke="midnightblue" d="M1965.48,-231.18C2045.6,-220.714 2161.47,-205.579 2238.44,-195.523"/>
<polygon fill="midnightblue" stroke="midnightblue" points="1964.87,-227.731 1955.41,-232.497 1965.77,-234.672 1964.87,-227.731"/>
</g>
<!-- Node3 -->
<g id="node5" class="node"><title>Node3</title>
<a xlink:href="Thread_8h.html" target="_top" xlink:title="The thread class for the controller server.">
<polygon fill="white" stroke="black" points="549,-116.5 549,-137.5 857,-137.5 857,-116.5 549,-116.5"/>
<text text-anchor="middle" x="703" y="-124.5" font-family="Helvetica,sans-Serif" font-size="10.00">ocra&#45;wbi&#45;plugins/ocra&#45;icub&#45;server/include/ocra&#45;icub&#45;server/Thread.h</text>
</a>
</g>
<!-- Node2&#45;&gt;Node3 -->
<g id="edge4" class="edge"><title>Node2&#45;&gt;Node3</title>
<path fill="none" stroke="midnightblue" d="M971.45,-172.794C910.193,-162.345 822.914,-147.456 764.687,-137.523"/>
<polygon fill="midnightblue" stroke="midnightblue" points="970.982,-176.265 981.429,-174.497 972.16,-169.365 970.982,-176.265"/>
</g>
<!-- Node8 -->
<g id="node15" class="node"><title>Node8</title>
<a xlink:href="IcubControllerServer_8cpp.html" target="_top" xlink:title="ocra&#45;wbi&#45;plugins/ocra&#45;icub&#45;server/src/IcubControllerServer.cpp">
<polygon fill="white" stroke="black" points="899.5,-116.5 899.5,-137.5 1186.5,-137.5 1186.5,-116.5 899.5,-116.5"/>
<text text-anchor="middle" x="1043" y="-124.5" font-family="Helvetica,sans-Serif" font-size="10.00">ocra&#45;wbi&#45;plugins/ocra&#45;icub&#45;server/src/IcubControllerServer.cpp</text>
</a>
</g>
<!-- Node2&#45;&gt;Node8 -->
<g id="edge14" class="edge"><title>Node2&#45;&gt;Node8</title>
<path fill="none" stroke="midnightblue" d="M1043,-164.191C1043,-155.168 1043,-144.994 1043,-137.571"/>
<polygon fill="midnightblue" stroke="midnightblue" points="1039.5,-164.362 1043,-174.362 1046.5,-164.362 1039.5,-164.362"/>
</g>
<!-- Node4 -->
<g id="node7" class="node"><title>Node4</title>
<a xlink:href="Module_8h.html" target="_top" xlink:title="Module class for the controller server.">
<polygon fill="white" stroke="black" points="196.5,-58.5 196.5,-79.5 505.5,-79.5 505.5,-58.5 196.5,-58.5"/>
<text text-anchor="middle" x="351" y="-66.5" font-family="Helvetica,sans-Serif" font-size="10.00">ocra&#45;wbi&#45;plugins/ocra&#45;icub&#45;server/include/ocra&#45;icub&#45;server/Module.h</text>
</a>
</g>
<!-- Node3&#45;&gt;Node4 -->
<g id="edge6" class="edge"><title>Node3&#45;&gt;Node4</title>
<path fill="none" stroke="midnightblue" d="M629.316,-114.859C565.878,-104.406 475.271,-89.4764 414.864,-79.5231"/>
<polygon fill="midnightblue" stroke="midnightblue" points="628.819,-118.324 639.255,-116.497 629.958,-111.417 628.819,-118.324"/>
</g>
<!-- Node7 -->
<g id="node13" class="node"><title>Node7</title>
<a xlink:href="Thread_8cpp.html" target="_top" xlink:title="The thread class for the controller server.">
<polygon fill="white" stroke="black" points="589,-58.5 589,-79.5 817,-79.5 817,-58.5 589,-58.5"/>
<text text-anchor="middle" x="703" y="-66.5" font-family="Helvetica,sans-Serif" font-size="10.00">ocra&#45;wbi&#45;plugins/ocra&#45;icub&#45;server/src/Thread.cpp</text>
</a>
</g>
<!-- Node3&#45;&gt;Node7 -->
<g id="edge12" class="edge"><title>Node3&#45;&gt;Node7</title>
<path fill="none" stroke="midnightblue" d="M703,-106.191C703,-97.1684 703,-86.9941 703,-79.5707"/>
<polygon fill="midnightblue" stroke="midnightblue" points="699.5,-106.362 703,-116.362 706.5,-106.362 699.5,-106.362"/>
</g>
<!-- Node5 -->
<g id="node9" class="node"><title>Node5</title>
<a xlink:href="ocra-icub-server_2src_2main_8cpp.html" target="_top" xlink:title="ocra&#45;wbi&#45;plugins/ocra&#45;icub&#45;server/src/main.cpp">
<polygon fill="white" stroke="black" points="-0.5,-0.5 -0.5,-21.5 218.5,-21.5 218.5,-0.5 -0.5,-0.5"/>
<text text-anchor="middle" x="109" y="-8.5" font-family="Helvetica,sans-Serif" font-size="10.00">ocra&#45;wbi&#45;plugins/ocra&#45;icub&#45;server/src/main.cpp</text>
</a>
</g>
<!-- Node4&#45;&gt;Node5 -->
<g id="edge8" class="edge"><title>Node4&#45;&gt;Node5</title>
<path fill="none" stroke="midnightblue" d="M297.353,-56.1424C253.92,-45.7328 193.496,-31.2511 152.907,-21.5231"/>
<polygon fill="midnightblue" stroke="midnightblue" points="296.635,-59.5695 307.176,-58.4966 298.267,-52.7623 296.635,-59.5695"/>
</g>
<!-- Node6 -->
<g id="node11" class="node"><title>Node6</title>
<a xlink:href="Module_8cpp.html" target="_top" xlink:title="ocra&#45;wbi&#45;plugins/ocra&#45;icub&#45;server/src/Module.cpp">
<polygon fill="white" stroke="black" points="236,-0.5 236,-21.5 466,-21.5 466,-0.5 236,-0.5"/>
<text text-anchor="middle" x="351" y="-8.5" font-family="Helvetica,sans-Serif" font-size="10.00">ocra&#45;wbi&#45;plugins/ocra&#45;icub&#45;server/src/Module.cpp</text>
</a>
</g>
<!-- Node4&#45;&gt;Node6 -->
<g id="edge10" class="edge"><title>Node4&#45;&gt;Node6</title>
<path fill="none" stroke="midnightblue" d="M351,-48.1906C351,-39.1684 351,-28.9941 351,-21.5707"/>
<polygon fill="midnightblue" stroke="midnightblue" points="347.5,-48.3619 351,-58.3619 354.5,-48.3619 347.5,-48.3619"/>
</g>
<!-- Node10 -->
<g id="node19" class="node"><title>Node10</title>
<a xlink:href="WalkingClient_8h.html" target="_top" xlink:title="ocra&#45;wbi&#45;plugins/ocra&#45;icub&#45;clients/walking&#45;client/include/walking&#45;client/WalkingClient.h">
<polygon fill="white" stroke="black" points="865,-58.5 865,-79.5 1257,-79.5 1257,-58.5 865,-58.5"/>
<text text-anchor="middle" x="1061" y="-66.5" font-family="Helvetica,sans-Serif" font-size="10.00">ocra&#45;wbi&#45;plugins/ocra&#45;icub&#45;clients/walking&#45;client/include/walking&#45;client/WalkingClient.h</text>
</a>
</g>
<!-- Node9&#45;&gt;Node10 -->
<g id="edge18" class="edge"><title>Node9&#45;&gt;Node10</title>
<path fill="none" stroke="midnightblue" d="M1539.84,-172.245C1432.79,-149.163 1208.86,-100.881 1109.86,-79.5352"/>
<polygon fill="midnightblue" stroke="midnightblue" points="1539.32,-175.712 1549.83,-174.398 1540.79,-168.869 1539.32,-175.712"/>
</g>
<!-- Node13 -->
<g id="node25" class="node"><title>Node13</title>
<a xlink:href="MIQPController_8cpp.html" target="_top" xlink:title="ocra&#45;wbi&#45;plugins/ocra&#45;icub&#45;clients/walking&#45;client/src/MIQPController.cpp">
<polygon fill="white" stroke="black" points="1434.5,-116.5 1434.5,-137.5 1763.5,-137.5 1763.5,-116.5 1434.5,-116.5"/>
<text text-anchor="middle" x="1599" y="-124.5" font-family="Helvetica,sans-Serif" font-size="10.00">ocra&#45;wbi&#45;plugins/ocra&#45;icub&#45;clients/walking&#45;client/src/MIQPController.cpp</text>
</a>
</g>
<!-- Node9&#45;&gt;Node13 -->
<g id="edge24" class="edge"><title>Node9&#45;&gt;Node13</title>
<path fill="none" stroke="midnightblue" d="M1599,-164.191C1599,-155.168 1599,-144.994 1599,-137.571"/>
<polygon fill="midnightblue" stroke="midnightblue" points="1595.5,-164.362 1599,-174.362 1602.5,-164.362 1595.5,-164.362"/>
</g>
<!-- Node11 -->
<g id="node21" class="node"><title>Node11</title>
<a xlink:href="ocra-icub-clients_2walking-client_2src_2main_8cpp.html" target="_top" xlink:title="ocra&#45;wbi&#45;plugins/ocra&#45;icub&#45;clients/walking&#45;client/src/main.cpp">
<polygon fill="white" stroke="black" points="823.5,-0.5 823.5,-21.5 1106.5,-21.5 1106.5,-0.5 823.5,-0.5"/>
<text text-anchor="middle" x="965" y="-8.5" font-family="Helvetica,sans-Serif" font-size="10.00">ocra&#45;wbi&#45;plugins/ocra&#45;icub&#45;clients/walking&#45;client/src/main.cpp</text>
</a>
</g>
<!-- Node10&#45;&gt;Node11 -->
<g id="edge20" class="edge"><title>Node10&#45;&gt;Node11</title>
<path fill="none" stroke="midnightblue" d="M1034.68,-53.1009C1018.07,-43.0658 997.079,-30.3808 982.496,-21.5707"/>
<polygon fill="midnightblue" stroke="midnightblue" points="1033.02,-56.1864 1043.39,-58.3619 1036.64,-50.195 1033.02,-56.1864"/>
</g>
<!-- Node12 -->
<g id="node23" class="node"><title>Node12</title>
<a xlink:href="WalkingClient_8cpp.html" target="_top" xlink:title="ocra&#45;wbi&#45;plugins/ocra&#45;icub&#45;clients/walking&#45;client/src/WalkingClient.cpp">
<polygon fill="white" stroke="black" points="483.5,-0.5 483.5,-21.5 806.5,-21.5 806.5,-0.5 483.5,-0.5"/>
<text text-anchor="middle" x="645" y="-8.5" font-family="Helvetica,sans-Serif" font-size="10.00">ocra&#45;wbi&#45;plugins/ocra&#45;icub&#45;clients/walking&#45;client/src/WalkingClient.cpp</text>
</a>
</g>
<!-- Node10&#45;&gt;Node12 -->
<g id="edge22" class="edge"><title>Node10&#45;&gt;Node12</title>
<path fill="none" stroke="midnightblue" d="M975.304,-57.052C900.27,-46.5906 792.306,-31.5378 720.476,-21.5231"/>
<polygon fill="midnightblue" stroke="midnightblue" points="975.278,-60.5822 985.666,-58.4966 976.245,-53.6492 975.278,-60.5822"/>
</g>
<!-- Node14&#45;&gt;Node10 -->
<g id="edge68" class="edge"><title>Node14&#45;&gt;Node10</title>
<path fill="none" stroke="midnightblue" d="M1902.92,-118.676C1728.06,-108.359 1429.94,-90.7685 1239.39,-79.5255"/>
<polygon fill="midnightblue" stroke="midnightblue" points="1902.77,-122.173 1912.96,-119.268 1903.18,-115.185 1902.77,-122.173"/>
</g>
<!-- Node14&#45;&gt;Node11 -->
<g id="edge70" class="edge"><title>Node14&#45;&gt;Node11</title>
<path fill="none" stroke="midnightblue" d="M1902.59,-119.708C1734.76,-110.615 1465.06,-94.498 1365,-80 1320.39,-73.5368 1310.29,-66.37 1266,-58 1189.86,-43.6114 1102.29,-30.299 1041.31,-21.5433"/>
<polygon fill="midnightblue" stroke="midnightblue" points="1902.57,-123.212 1912.75,-120.257 1902.95,-116.222 1902.57,-123.212"/>
</g>
<!-- Node15 -->
<g id="node29" class="node"><title>Node15</title>
<a xlink:href="ExampleClient_8h.html" target="_top" xlink:title="ocra&#45;wbi&#45;plugins/ocra&#45;icub&#45;clients/example&#45;client/include/example&#45;client/ExampleClient.h">
<polygon fill="white" stroke="black" points="1433,-58.5 1433,-79.5 1835,-79.5 1835,-58.5 1433,-58.5"/>
<text text-anchor="middle" x="1634" y="-66.5" font-family="Helvetica,sans-Serif" font-size="10.00">ocra&#45;wbi&#45;plugins/ocra&#45;icub&#45;clients/example&#45;client/include/example&#45;client/ExampleClient.h</text>
</a>
</g>
<!-- Node14&#45;&gt;Node15 -->
<g id="edge28" class="edge"><title>Node14&#45;&gt;Node15</title>
<path fill="none" stroke="midnightblue" d="M1959.54,-115.052C1885.59,-104.591 1779.18,-89.5378 1708.39,-79.5231"/>
<polygon fill="midnightblue" stroke="midnightblue" points="1959.36,-118.561 1969.75,-116.497 1960.34,-111.63 1959.36,-118.561"/>
</g>
<!-- Node16 -->
<g id="node31" class="node"><title>Node16</title>
<a xlink:href="example-client_8cpp.html" target="_top" xlink:title="ocra&#45;wbi&#45;plugins/ocra&#45;icub&#45;clients/example&#45;client/src/example&#45;client.cpp">
<polygon fill="white" stroke="black" points="1123.5,-0.5 1123.5,-21.5 1452.5,-21.5 1452.5,-0.5 1123.5,-0.5"/>
<text text-anchor="middle" x="1288" y="-8.5" font-family="Helvetica,sans-Serif" font-size="10.00">ocra&#45;wbi&#45;plugins/ocra&#45;icub&#45;clients/example&#45;client/src/example&#45;client.cpp</text>
</a>
</g>
<!-- Node14&#45;&gt;Node16 -->
<g id="edge34" class="edge"><title>Node14&#45;&gt;Node16</title>
<path fill="none" stroke="midnightblue" d="M1902.67,-119.216C1733.93,-109.463 1468.76,-92.5135 1424,-80 1377.59,-67.027 1328.43,-37.6252 1303.89,-21.7112"/>
<polygon fill="midnightblue" stroke="midnightblue" points="1902.7,-122.723 1912.89,-119.804 1903.1,-115.735 1902.7,-122.723"/>
</g>
<!-- Node18 -->
<g id="node36" class="node"><title>Node18</title>
<a xlink:href="SittingDemoClient_8h.html" target="_top" xlink:title="ocra&#45;wbi&#45;plugins/ocra&#45;icub&#45;clients/sitting&#45;demo/include/sitting&#45;demo/SittingDemoClient.h">
<polygon fill="white" stroke="black" points="1959,-58.5 1959,-79.5 2357,-79.5 2357,-58.5 1959,-58.5"/>
<text text-anchor="middle" x="2158" y="-66.5" font-family="Helvetica,sans-Serif" font-size="10.00">ocra&#45;wbi&#45;plugins/ocra&#45;icub&#45;clients/sitting&#45;demo/include/sitting&#45;demo/SittingDemoClient.h</text>
</a>
</g>
<!-- Node14&#45;&gt;Node18 -->
<g id="edge36" class="edge"><title>Node14&#45;&gt;Node18</title>
<path fill="none" stroke="midnightblue" d="M2073.62,-111.932C2093.54,-101.793 2119.33,-88.6748 2137.12,-79.6212"/>
<polygon fill="midnightblue" stroke="midnightblue" points="2071.97,-108.843 2064.64,-116.497 2075.14,-115.081 2071.97,-108.843"/>
</g>
<!-- Node19 -->
<g id="node38" class="node"><title>Node19</title>
<a xlink:href="ocra-icub-clients_2sitting-demo_2src_2main_8cpp.html" target="_top" xlink:title="ocra&#45;wbi&#45;plugins/ocra&#45;icub&#45;clients/sitting&#45;demo/src/main.cpp">
<polygon fill="white" stroke="black" points="1815.5,-0.5 1815.5,-21.5 2092.5,-21.5 2092.5,-0.5 1815.5,-0.5"/>
<text text-anchor="middle" x="1954" y="-8.5" font-family="Helvetica,sans-Serif" font-size="10.00">ocra&#45;wbi&#45;plugins/ocra&#45;icub&#45;clients/sitting&#45;demo/src/main.cpp</text>
</a>
</g>
<!-- Node14&#45;&gt;Node19 -->
<g id="edge42" class="edge"><title>Node14&#45;&gt;Node19</title>
<path fill="none" stroke="midnightblue" d="M1991.01,-112.546C1975.04,-105.442 1959.3,-95.0502 1950,-80 1938.9,-62.0353 1944.95,-36.1588 1949.82,-21.7403"/>
<polygon fill="midnightblue" stroke="midnightblue" points="1989.81,-115.836 2000.39,-116.359 1992.45,-109.351 1989.81,-115.836"/>
</g>
<!-- Node21 -->
<g id="node43" class="node"><title>Node21</title>
<a xlink:href="StandingDemoClient_8h.html" target="_top" xlink:title="ocra&#45;wbi&#45;plugins/ocra&#45;icub&#45;clients/standing&#45;demo/include/standing&#45;demo/StandingDemoClient.h">
<polygon fill="white" stroke="black" points="2413,-58.5 2413,-79.5 2843,-79.5 2843,-58.5 2413,-58.5"/>
<text text-anchor="middle" x="2628" y="-66.5" font-family="Helvetica,sans-Serif" font-size="10.00">ocra&#45;wbi&#45;plugins/ocra&#45;icub&#45;clients/standing&#45;demo/include/standing&#45;demo/StandingDemoClient.h</text>
</a>
</g>
<!-- Node14&#45;&gt;Node21 -->
<g id="edge44" class="edge"><title>Node14&#45;&gt;Node21</title>
<path fill="none" stroke="midnightblue" d="M2159.81,-115.498C2265.29,-105.023 2419.76,-89.6812 2522.04,-79.5231"/>
<polygon fill="midnightblue" stroke="midnightblue" points="2159.36,-112.025 2149.76,-116.497 2160.05,-118.991 2159.36,-112.025"/>
</g>
<!-- Node22 -->
<g id="node45" class="node"><title>Node22</title>
<a xlink:href="ocra-icub-clients_2standing-demo_2src_2main_8cpp.html" target="_top" xlink:title="ocra&#45;wbi&#45;plugins/ocra&#45;icub&#45;clients/standing&#45;demo/src/main.cpp">
<polygon fill="white" stroke="black" points="2461.5,-0.5 2461.5,-21.5 2748.5,-21.5 2748.5,-0.5 2461.5,-0.5"/>
<text text-anchor="middle" x="2605" y="-8.5" font-family="Helvetica,sans-Serif" font-size="10.00">ocra&#45;wbi&#45;plugins/ocra&#45;icub&#45;clients/standing&#45;demo/src/main.cpp</text>
</a>
</g>
<!-- Node14&#45;&gt;Node22 -->
<g id="edge50" class="edge"><title>Node14&#45;&gt;Node22</title>
<path fill="none" stroke="midnightblue" d="M2155.18,-115.296C2232.39,-106.311 2327.96,-93.2379 2366,-80 2384.43,-73.5865 2385.86,-65.1887 2404,-58 2447.15,-40.9045 2498.07,-29.0778 2537.87,-21.5641"/>
<polygon fill="midnightblue" stroke="midnightblue" points="2154.43,-111.859 2144.9,-116.481 2155.24,-118.813 2154.43,-111.859"/>
</g>
<!-- Node24 -->
<g id="node50" class="node"><title>Node24</title>
<a xlink:href="SteppingDemoClient_8h.html" target="_top" xlink:title="ocra&#45;wbi&#45;plugins/ocra&#45;icub&#45;clients/stepping&#45;demo/include/stepping&#45;demo/SteppingDemoClient.h">
<polygon fill="white" stroke="black" points="3090,-58.5 3090,-79.5 3520,-79.5 3520,-58.5 3090,-58.5"/>
<text text-anchor="middle" x="3305" y="-66.5" font-family="Helvetica,sans-Serif" font-size="10.00">ocra&#45;wbi&#45;plugins/ocra&#45;icub&#45;clients/stepping&#45;demo/include/stepping&#45;demo/SteppingDemoClient.h</text>
</a>
</g>
<!-- Node14&#45;&gt;Node24 -->
<g id="edge52" class="edge"><title>Node14&#45;&gt;Node24</title>
<path fill="none" stroke="midnightblue" d="M2185.39,-115.941C2371.05,-105.088 2819.95,-87.3838 3089.85,-77.0833"/>
<polygon fill="midnightblue" stroke="midnightblue" points="2184.92,-112.463 2175.15,-116.55 2185.34,-119.451 2184.92,-112.463"/>
</g>
<!-- Node25 -->
<g id="node52" class="node"><title>Node25</title>
<a xlink:href="stepping-demo_8cpp.html" target="_top" xlink:title="ocra&#45;wbi&#45;plugins/ocra&#45;icub&#45;clients/stepping&#45;demo/src/stepping&#45;demo.cpp">
<polygon fill="white" stroke="black" points="3140,-0.5 3140,-21.5 3470,-21.5 3470,-0.5 3140,-0.5"/>
<text text-anchor="middle" x="3305" y="-8.5" font-family="Helvetica,sans-Serif" font-size="10.00">ocra&#45;wbi&#45;plugins/ocra&#45;icub&#45;clients/stepping&#45;demo/src/stepping&#45;demo.cpp</text>
</a>
</g>
<!-- Node14&#45;&gt;Node25 -->
<g id="edge58" class="edge"><title>Node14&#45;&gt;Node25</title>
<path fill="none" stroke="midnightblue" d="M2185.36,-115.928C2482.4,-96.6643 2559.56,-110.08 2852,-80 2995.24,-65.267 3162.38,-36.8748 3248.02,-21.5032"/>
<polygon fill="midnightblue" stroke="midnightblue" points="2184.9,-112.45 2175.15,-116.597 2185.36,-119.435 2184.9,-112.45"/>
</g>
<!-- Node27 -->
<g id="node57" class="node"><title>Node27</title>
<a xlink:href="TaskOpsClient_8h.html" target="_top" xlink:title="ocra&#45;wbi&#45;plugins/ocra&#45;icub&#45;clients/task&#45;operations&#45;demo/include/task&#45;operations&#45;demo/TaskOpsClient.h">
<polygon fill="white" stroke="black" points="3824.5,-58.5 3824.5,-79.5 4289.5,-79.5 4289.5,-58.5 3824.5,-58.5"/>
<text text-anchor="middle" x="4057" y="-66.5" font-family="Helvetica,sans-Serif" font-size="10.00">ocra&#45;wbi&#45;plugins/ocra&#45;icub&#45;clients/task&#45;operations&#45;demo/include/task&#45;operations&#45;demo/TaskOpsClient.h</text>
</a>
</g>
<!-- Node14&#45;&gt;Node27 -->
<g id="edge60" class="edge"><title>Node14&#45;&gt;Node27</title>
<path fill="none" stroke="midnightblue" d="M2185.14,-115.97C2853.05,-81.9819 3022.47,-97.8363 3687,-80 3731.33,-78.8102 3778.64,-77.4627 3824.1,-76.1289"/>
<polygon fill="midnightblue" stroke="midnightblue" points="2184.58,-112.494 2174.77,-116.499 2184.94,-119.485 2184.58,-112.494"/>
</g>
<!-- Node28 -->
<g id="node59" class="node"><title>Node28</title>
<a xlink:href="task-operations-demo_8cpp.html" target="_top" xlink:title="ocra&#45;wbi&#45;plugins/ocra&#45;icub&#45;clients/task&#45;operations&#45;demo/src/task&#45;operations&#45;demo.cpp">
<polygon fill="white" stroke="black" points="3862,-0.5 3862,-21.5 4252,-21.5 4252,-0.5 3862,-0.5"/>
<text text-anchor="middle" x="4057" y="-8.5" font-family="Helvetica,sans-Serif" font-size="10.00">ocra&#45;wbi&#45;plugins/ocra&#45;icub&#45;clients/task&#45;operations&#45;demo/src/task&#45;operations&#45;demo.cpp</text>
</a>
</g>
<!-- Node14&#45;&gt;Node28 -->
<g id="edge66" class="edge"><title>Node14&#45;&gt;Node28</title>
<path fill="none" stroke="midnightblue" d="M2185.31,-115.959C2782.88,-85.0407 2936.19,-126.543 3529,-80 3697.2,-66.7944 3893.92,-37.3504 3993.01,-21.5317"/>
<polygon fill="midnightblue" stroke="midnightblue" points="2184.95,-112.473 2175.14,-116.489 2185.31,-119.463 2184.95,-112.473"/>
</g>
<!-- Node15&#45;&gt;Node16 -->
<g id="edge30" class="edge"><title>Node15&#45;&gt;Node16</title>
<path fill="none" stroke="midnightblue" d="M1561.19,-56.7943C1498.85,-46.3447 1410.03,-31.4559 1350.78,-21.5231"/>
<polygon fill="midnightblue" stroke="midnightblue" points="1560.9,-60.2952 1571.34,-58.4966 1562.06,-53.3915 1560.9,-60.2952"/>
</g>
<!-- Node17 -->
<g id="node33" class="node"><title>Node17</title>
<a xlink:href="ExampleClient_8cpp.html" target="_top" xlink:title="ocra&#45;wbi&#45;plugins/ocra&#45;icub&#45;clients/example&#45;client/src/ExampleClient.cpp">
<polygon fill="white" stroke="black" points="1469.5,-0.5 1469.5,-21.5 1798.5,-21.5 1798.5,-0.5 1469.5,-0.5"/>
<text text-anchor="middle" x="1634" y="-8.5" font-family="Helvetica,sans-Serif" font-size="10.00">ocra&#45;wbi&#45;plugins/ocra&#45;icub&#45;clients/example&#45;client/src/ExampleClient.cpp</text>
</a>
</g>
<!-- Node15&#45;&gt;Node17 -->
<g id="edge32" class="edge"><title>Node15&#45;&gt;Node17</title>
<path fill="none" stroke="midnightblue" d="M1634,-48.1906C1634,-39.1684 1634,-28.9941 1634,-21.5707"/>
<polygon fill="midnightblue" stroke="midnightblue" points="1630.5,-48.3619 1634,-58.3619 1637.5,-48.3619 1630.5,-48.3619"/>
</g>
<!-- Node18&#45;&gt;Node19 -->
<g id="edge38" class="edge"><title>Node18&#45;&gt;Node19</title>
<path fill="none" stroke="midnightblue" d="M2111.15,-55.6795C2074.67,-45.307 2024.72,-31.1078 1991.01,-21.5231"/>
<polygon fill="midnightblue" stroke="midnightblue" points="2110.48,-59.1284 2121.06,-58.4966 2112.4,-52.3952 2110.48,-59.1284"/>
</g>
<!-- Node20 -->
<g id="node40" class="node"><title>Node20</title>
<a xlink:href="SittingDemoClient_8cpp.html" target="_top" xlink:title="ocra&#45;wbi&#45;plugins/ocra&#45;icub&#45;clients/sitting&#45;demo/src/SittingDemoClient.cpp">
<polygon fill="white" stroke="black" points="2109.5,-0.5 2109.5,-21.5 2444.5,-21.5 2444.5,-0.5 2109.5,-0.5"/>
<text text-anchor="middle" x="2277" y="-8.5" font-family="Helvetica,sans-Serif" font-size="10.00">ocra&#45;wbi&#45;plugins/ocra&#45;icub&#45;clients/sitting&#45;demo/src/SittingDemoClient.cpp</text>
</a>
</g>
<!-- Node18&#45;&gt;Node20 -->
<g id="edge40" class="edge"><title>Node18&#45;&gt;Node20</title>
<path fill="none" stroke="midnightblue" d="M2188.63,-54.0693C2209.47,-43.9121 2236.55,-30.7157 2255.21,-21.6212"/>
<polygon fill="midnightblue" stroke="midnightblue" points="2187.01,-50.9691 2179.55,-58.4966 2190.07,-57.2615 2187.01,-50.9691"/>
</g>
<!-- Node21&#45;&gt;Node22 -->
<g id="edge46" class="edge"><title>Node21&#45;&gt;Node22</title>
<path fill="none" stroke="midnightblue" d="M2619.98,-48.7838C2616.35,-39.617 2612.2,-29.1572 2609.19,-21.5707"/>
<polygon fill="midnightblue" stroke="midnightblue" points="2616.84,-50.3563 2623.78,-58.3619 2623.35,-47.7759 2616.84,-50.3563"/>
</g>
<!-- Node23 -->
<g id="node47" class="node"><title>Node23</title>
<a xlink:href="StandingDemoClient_8cpp.html" target="_top" xlink:title="ocra&#45;wbi&#45;plugins/ocra&#45;icub&#45;clients/standing&#45;demo/src/StandingDemoClient.cpp">
<polygon fill="white" stroke="black" points="2766,-0.5 2766,-21.5 3122,-21.5 3122,-0.5 2766,-0.5"/>
<text text-anchor="middle" x="2944" y="-8.5" font-family="Helvetica,sans-Serif" font-size="10.00">ocra&#45;wbi&#45;plugins/ocra&#45;icub&#45;clients/standing&#45;demo/src/StandingDemoClient.cpp</text>
</a>
</g>
<!-- Node21&#45;&gt;Node23 -->
<g id="edge48" class="edge"><title>Node21&#45;&gt;Node23</title>
<path fill="none" stroke="midnightblue" d="M2695.21,-56.6648C2752.1,-46.222 2832.77,-31.415 2886.67,-21.5231"/>
<polygon fill="midnightblue" stroke="midnightblue" points="2694.43,-53.2488 2685.23,-58.4966 2695.69,-60.1338 2694.43,-53.2488"/>
</g>
<!-- Node24&#45;&gt;Node25 -->
<g id="edge54" class="edge"><title>Node24&#45;&gt;Node25</title>
<path fill="none" stroke="midnightblue" d="M3305,-48.1906C3305,-39.1684 3305,-28.9941 3305,-21.5707"/>
<polygon fill="midnightblue" stroke="midnightblue" points="3301.5,-48.3619 3305,-58.3619 3308.5,-48.3619 3301.5,-48.3619"/>
</g>
<!-- Node26 -->
<g id="node54" class="node"><title>Node26</title>
<a xlink:href="SteppingDemoClient_8cpp.html" target="_top" xlink:title="ocra&#45;wbi&#45;plugins/ocra&#45;icub&#45;clients/stepping&#45;demo/src/SteppingDemoClient.cpp">
<polygon fill="white" stroke="black" points="3488,-0.5 3488,-21.5 3844,-21.5 3844,-0.5 3488,-0.5"/>
<text text-anchor="middle" x="3666" y="-8.5" font-family="Helvetica,sans-Serif" font-size="10.00">ocra&#45;wbi&#45;plugins/ocra&#45;icub&#45;clients/stepping&#45;demo/src/SteppingDemoClient.cpp</text>
</a>
</g>
<!-- Node24&#45;&gt;Node26 -->
<g id="edge56" class="edge"><title>Node24&#45;&gt;Node26</title>
<path fill="none" stroke="midnightblue" d="M3380.57,-56.8589C3445.63,-46.4061 3538.55,-31.4764 3600.5,-21.5231"/>
<polygon fill="midnightblue" stroke="midnightblue" points="3379.69,-53.4546 3370.37,-58.4966 3380.8,-60.3659 3379.69,-53.4546"/>
</g>
<!-- Node27&#45;&gt;Node28 -->
<g id="edge62" class="edge"><title>Node27&#45;&gt;Node28</title>
<path fill="none" stroke="midnightblue" d="M4057,-48.1906C4057,-39.1684 4057,-28.9941 4057,-21.5707"/>
<polygon fill="midnightblue" stroke="midnightblue" points="4053.5,-48.3619 4057,-58.3619 4060.5,-48.3619 4053.5,-48.3619"/>
</g>
<!-- Node29 -->
<g id="node61" class="node"><title>Node29</title>
<a xlink:href="TaskOpsClient_8cpp.html" target="_top" xlink:title="ocra&#45;wbi&#45;plugins/ocra&#45;icub&#45;clients/task&#45;operations&#45;demo/src/TaskOpsClient.cpp">
<polygon fill="white" stroke="black" points="4270,-0.5 4270,-21.5 4632,-21.5 4632,-0.5 4270,-0.5"/>
<text text-anchor="middle" x="4451" y="-8.5" font-family="Helvetica,sans-Serif" font-size="10.00">ocra&#45;wbi&#45;plugins/ocra&#45;icub&#45;clients/task&#45;operations&#45;demo/src/TaskOpsClient.cpp</text>
</a>
</g>
<!-- Node27&#45;&gt;Node29 -->
<g id="edge64" class="edge"><title>Node27&#45;&gt;Node29</title>
<path fill="none" stroke="midnightblue" d="M4138.6,-56.9877C4209.65,-46.529 4311.62,-31.5174 4379.52,-21.5231"/>
<polygon fill="midnightblue" stroke="midnightblue" points="4137.73,-53.5775 4128.35,-58.4966 4138.75,-60.5029 4137.73,-53.5775"/>
</g>
<!-- Node30&#45;&gt;Node14 -->
<g id="edge74" class="edge"><title>Node30&#45;&gt;Node14</title>
<path fill="none" stroke="midnightblue" d="M2044,-164.191C2044,-155.168 2044,-144.994 2044,-137.571"/>
<polygon fill="midnightblue" stroke="midnightblue" points="2040.5,-164.362 2044,-174.362 2047.5,-164.362 2040.5,-164.362"/>
</g>
<!-- Node31 -->
<g id="node69" class="node"><title>Node31</title>
<a xlink:href="ModelInitializer_8cpp.html" target="_top" xlink:title="ocra&#45;wbi&#45;plugins/ocra&#45;icub/src/ModelInitializer.cpp">
<polygon fill="white" stroke="black" points="2192.5,-116.5 2192.5,-137.5 2425.5,-137.5 2425.5,-116.5 2192.5,-116.5"/>
<text text-anchor="middle" x="2309" y="-124.5" font-family="Helvetica,sans-Serif" font-size="10.00">ocra&#45;wbi&#45;plugins/ocra&#45;icub/src/ModelInitializer.cpp</text>
</a>
</g>
<!-- Node30&#45;&gt;Node31 -->
<g id="edge76" class="edge"><title>Node30&#45;&gt;Node31</title>
<path fill="none" stroke="midnightblue" d="M2101.85,-172.339C2149.47,-161.916 2216.19,-147.313 2260.92,-137.523"/>
<polygon fill="midnightblue" stroke="midnightblue" points="2101.01,-168.939 2091.99,-174.497 2102.51,-175.778 2101.01,-168.939"/>
</g>
</g>
</svg>
