<?xml version="1.0" encoding="UTF-8" standalone="no"?>
<!DOCTYPE svg PUBLIC "-//W3C//DTD SVG 1.1//EN"
 "http://www.w3.org/Graphics/SVG/1.1/DTD/svg11.dtd">
<!-- Generated by graphviz version 2.26.3 (20100126.1600)
 -->
<!-- Title: G Pages: 1 -->
<svg width="4640pt" height="320pt"
 viewBox="0.00 0.00 4640.00 320.00" xmlns="http://www.w3.org/2000/svg" xmlns:xlink="http://www.w3.org/1999/xlink">
<g id="graph1" class="graph" transform="scale(1 1) rotate(0) translate(4 316)">
<title>G</title>
<polygon fill="white" stroke="white" points="-4,5 -4,-316 4637,-316 4637,5 -4,5"/>
<!-- Node1 -->
<g id="node1" class="node"><title>Node1</title>
<polygon fill="#bfbfbf" stroke="black" points="2820.5,-290.5 2820.5,-311.5 3131.5,-311.5 3131.5,-290.5 2820.5,-290.5"/>
<text text-anchor="middle" x="2976" y="-298.5" font-family="Helvetica,sans-Serif" font-size="10.00">ocra&#45;wbi&#45;plugins/ocra&#45;icub/include/ocra&#45;icub/OcraWbiConversions.h</text>
</g>
<!-- Node2 -->
<g id="node3" class="node"><title>Node2</title>
<a xlink:href="IcubClient_8h.html" target="_top" xlink:title="ocra&#45;wbi&#45;plugins/ocra&#45;icub/include/ocra&#45;icub/IcubClient.h">
<polygon fill="white" stroke="black" points="2297,-116.5 2297,-137.5 2559,-137.5 2559,-116.5 2297,-116.5"/>
<text text-anchor="middle" x="2428" y="-124.5" font-family="Helvetica,sans-Serif" font-size="10.00">ocra&#45;wbi&#45;plugins/ocra&#45;icub/include/ocra&#45;icub/IcubClient.h</text>
</a>
</g>
<!-- Node1&#45;&gt;Node2 -->
<g id="edge2" class="edge"><title>Node1&#45;&gt;Node2</title>
<path fill="none" stroke="midnightblue" d="M2881.83,-288.988C2789.33,-274.872 2645.64,-246.672 2530,-196 2494.75,-180.555 2458.64,-152.717 2440.31,-137.549"/>
<polygon fill="midnightblue" stroke="midnightblue" points="2881.32,-292.451 2891.73,-290.475 2882.36,-285.529 2881.32,-292.451"/>
</g>
<!-- Node21 -->
<g id="node47" class="node"><title>Node21</title>
<a xlink:href="OcraWbiModel_8h.html" target="_top" xlink:title="Implementation of ocra::Model using wholeBodyInterface.">
<polygon fill="white" stroke="black" points="2835,-232.5 2835,-253.5 3117,-253.5 3117,-232.5 2835,-232.5"/>
<text text-anchor="middle" x="2976" y="-240.5" font-family="Helvetica,sans-Serif" font-size="10.00">ocra&#45;wbi&#45;plugins/ocra&#45;icub/include/ocra&#45;icub/OcraWbiModel.h</text>
</a>
</g>
<!-- Node1&#45;&gt;Node21 -->
<g id="edge52" class="edge"><title>Node1&#45;&gt;Node21</title>
<path fill="none" stroke="midnightblue" d="M2976,-280.191C2976,-271.168 2976,-260.994 2976,-253.571"/>
<polygon fill="midnightblue" stroke="midnightblue" points="2972.5,-280.362 2976,-290.362 2979.5,-280.362 2972.5,-280.362"/>
</g>
<!-- Node34 -->
<g id="node76" class="node"><title>Node34</title>
<a xlink:href="OcraWbiConversions_8cpp.html" target="_top" xlink:title="A utility class full of static conversion functions.">
<polygon fill="white" stroke="black" points="3134.5,-232.5 3134.5,-253.5 3395.5,-253.5 3395.5,-232.5 3134.5,-232.5"/>
<text text-anchor="middle" x="3265" y="-240.5" font-family="Helvetica,sans-Serif" font-size="10.00">ocra&#45;wbi&#45;plugins/ocra&#45;icub/src/OcraWbiConversions.cpp</text>
</a>
</g>
<!-- Node1&#45;&gt;Node34 -->
<g id="edge84" class="edge"><title>Node1&#45;&gt;Node34</title>
<path fill="none" stroke="midnightblue" d="M3038.44,-288.47C3090.41,-278.038 3163.58,-263.354 3212.57,-253.523"/>
<polygon fill="midnightblue" stroke="midnightblue" points="3037.45,-285.097 3028.34,-290.497 3038.83,-291.96 3037.45,-285.097"/>
</g>
<!-- Node3 -->
<g id="node5" class="node"><title>Node3</title>
<a xlink:href="ExampleClient_8h.html" target="_top" xlink:title="ocra&#45;wbi&#45;plugins/ocra&#45;icub&#45;clients/example&#45;client/include/example&#45;client/ExampleClient.h">
<polygon fill="white" stroke="black" points="309,-58.5 309,-79.5 711,-79.5 711,-58.5 309,-58.5"/>
<text text-anchor="middle" x="510" y="-66.5" font-family="Helvetica,sans-Serif" font-size="10.00">ocra&#45;wbi&#45;plugins/ocra&#45;icub&#45;clients/example&#45;client/include/example&#45;client/ExampleClient.h</text>
</a>
</g>
<!-- Node2&#45;&gt;Node3 -->
<g id="edge4" class="edge"><title>Node2&#45;&gt;Node3</title>
<path fill="none" stroke="midnightblue" d="M2286.95,-122.809C2012.79,-114.654 1388.85,-96.0407 864,-80 814.525,-78.4879 761.162,-76.8391 711.247,-75.2891"/>
<polygon fill="midnightblue" stroke="midnightblue" points="2286.85,-126.308 2296.95,-123.107 2287.06,-119.311 2286.85,-126.308"/>
</g>
<!-- Node4 -->
<g id="node7" class="node"><title>Node4</title>
<a xlink:href="example-client_8cpp.html" target="_top" xlink:title="ocra&#45;wbi&#45;plugins/ocra&#45;icub&#45;clients/example&#45;client/src/example&#45;client.cpp">
<polygon fill="white" stroke="black" points="-0.5,-0.5 -0.5,-21.5 328.5,-21.5 328.5,-0.5 -0.5,-0.5"/>
<text text-anchor="middle" x="164" y="-8.5" font-family="Helvetica,sans-Serif" font-size="10.00">ocra&#45;wbi&#45;plugins/ocra&#45;icub&#45;clients/example&#45;client/src/example&#45;client.cpp</text>
</a>
</g>
<!-- Node2&#45;&gt;Node4 -->
<g id="edge10" class="edge"><title>Node2&#45;&gt;Node4</title>
<path fill="none" stroke="midnightblue" d="M2286.61,-125.603C1826.53,-120.83 396.15,-104.121 300,-80 253.005,-68.2103 203.702,-38.0171 179.405,-21.7562"/>
<polygon fill="midnightblue" stroke="midnightblue" points="2286.6,-129.103 2296.63,-125.706 2286.67,-122.103 2286.6,-129.103"/>
</g>
<!-- Node6 -->
<g id="node12" class="node"><title>Node6</title>
<a xlink:href="SittingDemoClient_8h.html" target="_top" xlink:title="ocra&#45;wbi&#45;plugins/ocra&#45;icub&#45;clients/sitting&#45;demo/include/sitting&#45;demo/SittingDemoClient.h">
<polygon fill="white" stroke="black" points="954,-58.5 954,-79.5 1352,-79.5 1352,-58.5 954,-58.5"/>
<text text-anchor="middle" x="1153" y="-66.5" font-family="Helvetica,sans-Serif" font-size="10.00">ocra&#45;wbi&#45;plugins/ocra&#45;icub&#45;clients/sitting&#45;demo/include/sitting&#45;demo/SittingDemoClient.h</text>
</a>
</g>
<!-- Node2&#45;&gt;Node6 -->
<g id="edge12" class="edge"><title>Node2&#45;&gt;Node6</title>
<path fill="none" stroke="midnightblue" d="M2286.63,-120.569C2059.31,-110.228 1611.81,-89.8715 1352.23,-78.0629"/>
<polygon fill="midnightblue" stroke="midnightblue" points="2286.8,-124.08 2296.95,-121.039 2287.12,-117.088 2286.8,-124.08"/>
</g>
<!-- Node7 -->
<g id="node14" class="node"><title>Node7</title>
<a xlink:href="ocra-icub-clients_2sitting-demo_2src_2main_8cpp.html" target="_top" xlink:title="ocra&#45;wbi&#45;plugins/ocra&#45;icub&#45;clients/sitting&#45;demo/src/main.cpp">
<polygon fill="white" stroke="black" points="691.5,-0.5 691.5,-21.5 968.5,-21.5 968.5,-0.5 691.5,-0.5"/>
<text text-anchor="middle" x="830" y="-8.5" font-family="Helvetica,sans-Serif" font-size="10.00">ocra&#45;wbi&#45;plugins/ocra&#45;icub&#45;clients/sitting&#45;demo/src/main.cpp</text>
</a>
</g>
<!-- Node2&#45;&gt;Node7 -->
<g id="edge18" class="edge"><title>Node2&#45;&gt;Node7</title>
<path fill="none" stroke="midnightblue" d="M2286.72,-126.567C1940.98,-124.932 1071.26,-117.134 945,-80 904.123,-67.9774 862.922,-37.8842 842.749,-21.6993"/>
<polygon fill="midnightblue" stroke="midnightblue" points="2286.78,-130.067 2296.8,-126.614 2286.81,-123.068 2286.78,-130.067"/>
</g>
<!-- Node9 -->
<g id="node19" class="node"><title>Node9</title>
<a xlink:href="StandingDemoClient_8h.html" target="_top" xlink:title="ocra&#45;wbi&#45;plugins/ocra&#45;icub&#45;clients/standing&#45;demo/include/standing&#45;demo/StandingDemoClient.h">
<polygon fill="white" stroke="black" points="1605,-58.5 1605,-79.5 2035,-79.5 2035,-58.5 1605,-58.5"/>
<text text-anchor="middle" x="1820" y="-66.5" font-family="Helvetica,sans-Serif" font-size="10.00">ocra&#45;wbi&#45;plugins/ocra&#45;icub&#45;clients/standing&#45;demo/include/standing&#45;demo/StandingDemoClient.h</text>
</a>
</g>
<!-- Node2&#45;&gt;Node9 -->
<g id="edge20" class="edge"><title>Node2&#45;&gt;Node9</title>
<path fill="none" stroke="midnightblue" d="M2307.76,-115.53C2197.94,-105.054 2036.9,-89.6914 1930.31,-79.5231"/>
<polygon fill="midnightblue" stroke="midnightblue" points="2307.61,-119.031 2317.9,-116.497 2308.27,-112.063 2307.61,-119.031"/>
</g>
<!-- Node10 -->
<g id="node21" class="node"><title>Node10</title>
<a xlink:href="ocra-icub-clients_2standing-demo_2src_2main_8cpp.html" target="_top" xlink:title="ocra&#45;wbi&#45;plugins/ocra&#45;icub&#45;clients/standing&#45;demo/src/main.cpp">
<polygon fill="white" stroke="black" points="1337.5,-0.5 1337.5,-21.5 1624.5,-21.5 1624.5,-0.5 1337.5,-0.5"/>
<text text-anchor="middle" x="1481" y="-8.5" font-family="Helvetica,sans-Serif" font-size="10.00">ocra&#45;wbi&#45;plugins/ocra&#45;icub&#45;clients/standing&#45;demo/src/main.cpp</text>
</a>
</g>
<!-- Node2&#45;&gt;Node10 -->
<g id="edge26" class="edge"><title>Node2&#45;&gt;Node10</title>
<path fill="none" stroke="midnightblue" d="M2286.82,-122.718C2066.65,-115.484 1660.01,-99.6896 1596,-80 1555.27,-67.4725 1514.01,-37.5963 1493.79,-21.5762"/>
<polygon fill="midnightblue" stroke="midnightblue" points="2286.72,-126.216 2296.83,-123.045 2286.95,-119.22 2286.72,-126.216"/>
</g>
<!-- Node12 -->
<g id="node26" class="node"><title>Node12</title>
<a xlink:href="SteppingDemoClient_8h.html" target="_top" xlink:title="ocra&#45;wbi&#45;plugins/ocra&#45;icub&#45;clients/stepping&#45;demo/include/stepping&#45;demo/SteppingDemoClient.h">
<polygon fill="white" stroke="black" points="2213,-58.5 2213,-79.5 2643,-79.5 2643,-58.5 2213,-58.5"/>
<text text-anchor="middle" x="2428" y="-66.5" font-family="Helvetica,sans-Serif" font-size="10.00">ocra&#45;wbi&#45;plugins/ocra&#45;icub&#45;clients/stepping&#45;demo/include/stepping&#45;demo/SteppingDemoClient.h</text>
</a>
</g>
<!-- Node2&#45;&gt;Node12 -->
<g id="edge28" class="edge"><title>Node2&#45;&gt;Node12</title>
<path fill="none" stroke="midnightblue" d="M2428,-106.191C2428,-97.1684 2428,-86.9941 2428,-79.5707"/>
<polygon fill="midnightblue" stroke="midnightblue" points="2424.5,-106.362 2428,-116.362 2431.5,-106.362 2424.5,-106.362"/>
</g>
<!-- Node13 -->
<g id="node28" class="node"><title>Node13</title>
<a xlink:href="stepping-demo_8cpp.html" target="_top" xlink:title="ocra&#45;wbi&#45;plugins/ocra&#45;icub&#45;clients/stepping&#45;demo/src/stepping&#45;demo.cpp">
<polygon fill="white" stroke="black" points="2016,-0.5 2016,-21.5 2346,-21.5 2346,-0.5 2016,-0.5"/>
<text text-anchor="middle" x="2181" y="-8.5" font-family="Helvetica,sans-Serif" font-size="10.00">ocra&#45;wbi&#45;plugins/ocra&#45;icub&#45;clients/stepping&#45;demo/src/stepping&#45;demo.cpp</text>
</a>
</g>
<!-- Node2&#45;&gt;Node13 -->
<g id="edge34" class="edge"><title>Node2&#45;&gt;Node13</title>
<path fill="none" stroke="midnightblue" d="M2322.26,-114.99C2273.3,-107.442 2222,-96.0457 2204,-80 2187.03,-64.8778 2182.55,-36.9087 2181.39,-21.6348"/>
<polygon fill="midnightblue" stroke="midnightblue" points="2321.93,-118.48 2332.34,-116.496 2322.97,-111.556 2321.93,-118.48"/>
</g>
<!-- Node15 -->
<g id="node33" class="node"><title>Node15</title>
<a xlink:href="TaskOpsClient_8h.html" target="_top" xlink:title="ocra&#45;wbi&#45;plugins/ocra&#45;icub&#45;clients/task&#45;operations&#45;demo/include/task&#45;operations&#45;demo/TaskOpsClient.h">
<polygon fill="white" stroke="black" points="2700.5,-58.5 2700.5,-79.5 3165.5,-79.5 3165.5,-58.5 2700.5,-58.5"/>
<text text-anchor="middle" x="2933" y="-66.5" font-family="Helvetica,sans-Serif" font-size="10.00">ocra&#45;wbi&#45;plugins/ocra&#45;icub&#45;clients/task&#45;operations&#45;demo/include/task&#45;operations&#45;demo/TaskOpsClient.h</text>
</a>
</g>
<!-- Node2&#45;&gt;Node15 -->
<g id="edge36" class="edge"><title>Node2&#45;&gt;Node15</title>
<path fill="none" stroke="midnightblue" d="M2529.53,-115.34C2620.7,-104.868 2753.38,-89.63 2841.38,-79.5231"/>
<polygon fill="midnightblue" stroke="midnightblue" points="2528.99,-111.878 2519.45,-116.497 2529.79,-118.833 2528.99,-111.878"/>
</g>
<!-- Node16 -->
<g id="node35" class="node"><title>Node16</title>
<a xlink:href="task-operations-demo_8cpp.html" target="_top" xlink:title="ocra&#45;wbi&#45;plugins/ocra&#45;icub&#45;clients/task&#45;operations&#45;demo/src/task&#45;operations&#45;demo.cpp">
<polygon fill="white" stroke="black" points="2738,-0.5 2738,-21.5 3128,-21.5 3128,-0.5 2738,-0.5"/>
<text text-anchor="middle" x="2933" y="-8.5" font-family="Helvetica,sans-Serif" font-size="10.00">ocra&#45;wbi&#45;plugins/ocra&#45;icub&#45;clients/task&#45;operations&#45;demo/src/task&#45;operations&#45;demo.cpp</text>
</a>
</g>
<!-- Node2&#45;&gt;Node16 -->
<g id="edge42" class="edge"><title>Node2&#45;&gt;Node16</title>
<path fill="none" stroke="midnightblue" d="M2515.72,-114.785C2557.77,-107.379 2608.36,-96.1678 2652,-80 2671.03,-72.9508 2672.93,-64.9137 2692,-58 2740.99,-40.2419 2798.15,-28.7262 2844.51,-21.5404"/>
<polygon fill="midnightblue" stroke="midnightblue" points="2515.05,-111.35 2505.78,-116.494 2516.23,-118.249 2515.05,-111.35"/>
</g>
<!-- Node18 -->
<g id="node40" class="node"><title>Node18</title>
<a xlink:href="WalkingClient_8h.html" target="_top" xlink:title="ocra&#45;wbi&#45;plugins/ocra&#45;icub&#45;clients/walking&#45;client/include/walking&#45;client/WalkingClient.h">
<polygon fill="white" stroke="black" points="3408,-58.5 3408,-79.5 3800,-79.5 3800,-58.5 3408,-58.5"/>
<text text-anchor="middle" x="3604" y="-66.5" font-family="Helvetica,sans-Serif" font-size="10.00">ocra&#45;wbi&#45;plugins/ocra&#45;icub&#45;clients/walking&#45;client/include/walking&#45;client/WalkingClient.h</text>
</a>
</g>
<!-- Node2&#45;&gt;Node18 -->
<g id="edge44" class="edge"><title>Node2&#45;&gt;Node18</title>
<path fill="none" stroke="midnightblue" d="M2569.21,-118.757C2586.32,-117.803 2603.56,-116.864 2620,-116 2893.27,-101.646 3209.33,-86.8752 3407.94,-77.8155"/>
<polygon fill="midnightblue" stroke="midnightblue" points="2568.95,-115.266 2559.16,-119.319 2569.34,-122.255 2568.95,-115.266"/>
</g>
<!-- Node19 -->
<g id="node42" class="node"><title>Node19</title>
<a xlink:href="ocra-icub-clients_2walking-client_2src_2main_8cpp.html" target="_top" xlink:title="ocra&#45;wbi&#45;plugins/ocra&#45;icub&#45;clients/walking&#45;client/src/main.cpp">
<polygon fill="white" stroke="black" points="3525.5,-0.5 3525.5,-21.5 3808.5,-21.5 3808.5,-0.5 3525.5,-0.5"/>
<text text-anchor="middle" x="3667" y="-8.5" font-family="Helvetica,sans-Serif" font-size="10.00">ocra&#45;wbi&#45;plugins/ocra&#45;icub&#45;clients/walking&#45;client/src/main.cpp</text>
</a>
</g>
<!-- Node2&#45;&gt;Node19 -->
<g id="edge50" class="edge"><title>Node2&#45;&gt;Node19</title>
<path fill="none" stroke="midnightblue" d="M2569.64,-118.661C2769.3,-106.816 3115.78,-85.8993 3174,-80 3328.56,-64.3384 3509.12,-36.6525 3602.98,-21.5493"/>
<polygon fill="midnightblue" stroke="midnightblue" points="2569.13,-115.185 2559.36,-119.27 2569.55,-122.172 2569.13,-115.185"/>
</g>
<!-- Node3&#45;&gt;Node4 -->
<g id="edge6" class="edge"><title>Node3&#45;&gt;Node4</title>
<path fill="none" stroke="midnightblue" d="M437.187,-56.7943C374.849,-46.3447 286.03,-31.4559 226.776,-21.5231"/>
<polygon fill="midnightblue" stroke="midnightblue" points="436.901,-60.2952 447.342,-58.4966 438.058,-53.3915 436.901,-60.2952"/>
</g>
<!-- Node5 -->
<g id="node9" class="node"><title>Node5</title>
<a xlink:href="ExampleClient_8cpp.html" target="_top" xlink:title="ocra&#45;wbi&#45;plugins/ocra&#45;icub&#45;clients/example&#45;client/src/ExampleClient.cpp">
<polygon fill="white" stroke="black" points="345.5,-0.5 345.5,-21.5 674.5,-21.5 674.5,-0.5 345.5,-0.5"/>
<text text-anchor="middle" x="510" y="-8.5" font-family="Helvetica,sans-Serif" font-size="10.00">ocra&#45;wbi&#45;plugins/ocra&#45;icub&#45;clients/example&#45;client/src/ExampleClient.cpp</text>
</a>
</g>
<!-- Node3&#45;&gt;Node5 -->
<g id="edge8" class="edge"><title>Node3&#45;&gt;Node5</title>
<path fill="none" stroke="midnightblue" d="M510,-48.1906C510,-39.1684 510,-28.9941 510,-21.5707"/>
<polygon fill="midnightblue" stroke="midnightblue" points="506.5,-48.3619 510,-58.3619 513.5,-48.3619 506.5,-48.3619"/>
</g>
<!-- Node6&#45;&gt;Node7 -->
<g id="edge14" class="edge"><title>Node6&#45;&gt;Node7</title>
<path fill="none" stroke="midnightblue" d="M1084.31,-56.6648C1026.15,-46.222 943.69,-31.415 888.603,-21.5231"/>
<polygon fill="midnightblue" stroke="midnightblue" points="1084.05,-60.1741 1094.51,-58.4966 1085.28,-53.2843 1084.05,-60.1741"/>
</g>
<!-- Node8 -->
<g id="node16" class="node"><title>Node8</title>
<a xlink:href="SittingDemoClient_8cpp.html" target="_top" xlink:title="ocra&#45;wbi&#45;plugins/ocra&#45;icub&#45;clients/sitting&#45;demo/src/SittingDemoClient.cpp">
<polygon fill="white" stroke="black" points="985.5,-0.5 985.5,-21.5 1320.5,-21.5 1320.5,-0.5 985.5,-0.5"/>
<text text-anchor="middle" x="1153" y="-8.5" font-family="Helvetica,sans-Serif" font-size="10.00">ocra&#45;wbi&#45;plugins/ocra&#45;icub&#45;clients/sitting&#45;demo/src/SittingDemoClient.cpp</text>
</a>
</g>
<!-- Node6&#45;&gt;Node8 -->
<g id="edge16" class="edge"><title>Node6&#45;&gt;Node8</title>
<path fill="none" stroke="midnightblue" d="M1153,-48.1906C1153,-39.1684 1153,-28.9941 1153,-21.5707"/>
<polygon fill="midnightblue" stroke="midnightblue" points="1149.5,-48.3619 1153,-58.3619 1156.5,-48.3619 1149.5,-48.3619"/>
</g>
<!-- Node9&#45;&gt;Node10 -->
<g id="edge22" class="edge"><title>Node9&#45;&gt;Node10</title>
<path fill="none" stroke="midnightblue" d="M1748.66,-56.7943C1687.58,-46.3447 1600.56,-31.4559 1542.51,-21.5231"/>
<polygon fill="midnightblue" stroke="midnightblue" points="1748.16,-60.26 1758.61,-58.4966 1749.34,-53.3603 1748.16,-60.26"/>
</g>
<!-- Node11 -->
<g id="node23" class="node"><title>Node11</title>
<a xlink:href="StandingDemoClient_8cpp.html" target="_top" xlink:title="ocra&#45;wbi&#45;plugins/ocra&#45;icub&#45;clients/standing&#45;demo/src/StandingDemoClient.cpp">
<polygon fill="white" stroke="black" points="1642,-0.5 1642,-21.5 1998,-21.5 1998,-0.5 1642,-0.5"/>
<text text-anchor="middle" x="1820" y="-8.5" font-family="Helvetica,sans-Serif" font-size="10.00">ocra&#45;wbi&#45;plugins/ocra&#45;icub&#45;clients/standing&#45;demo/src/StandingDemoClient.cpp</text>
</a>
</g>
<!-- Node9&#45;&gt;Node11 -->
<g id="edge24" class="edge"><title>Node9&#45;&gt;Node11</title>
<path fill="none" stroke="midnightblue" d="M1820,-48.1906C1820,-39.1684 1820,-28.9941 1820,-21.5707"/>
<polygon fill="midnightblue" stroke="midnightblue" points="1816.5,-48.3619 1820,-58.3619 1823.5,-48.3619 1816.5,-48.3619"/>
</g>
<!-- Node12&#45;&gt;Node13 -->
<g id="edge30" class="edge"><title>Node12&#45;&gt;Node13</title>
<path fill="none" stroke="midnightblue" d="M2373.52,-56.2081C2329.17,-45.7938 2267.33,-31.2716 2225.81,-21.5231"/>
<polygon fill="midnightblue" stroke="midnightblue" points="2372.73,-59.6179 2383.27,-58.4966 2374.34,-52.8032 2372.73,-59.6179"/>
</g>
<!-- Node14 -->
<g id="node30" class="node"><title>Node14</title>
<a xlink:href="SteppingDemoClient_8cpp.html" target="_top" xlink:title="ocra&#45;wbi&#45;plugins/ocra&#45;icub&#45;clients/stepping&#45;demo/src/SteppingDemoClient.cpp">
<polygon fill="white" stroke="black" points="2364,-0.5 2364,-21.5 2720,-21.5 2720,-0.5 2364,-0.5"/>
<text text-anchor="middle" x="2542" y="-8.5" font-family="Helvetica,sans-Serif" font-size="10.00">ocra&#45;wbi&#45;plugins/ocra&#45;icub&#45;clients/stepping&#45;demo/src/SteppingDemoClient.cpp</text>
</a>
</g>
<!-- Node12&#45;&gt;Node14 -->
<g id="edge32" class="edge"><title>Node12&#45;&gt;Node14</title>
<path fill="none" stroke="midnightblue" d="M2457.62,-53.9319C2477.54,-43.7932 2503.33,-30.6748 2521.12,-21.6212"/>
<polygon fill="midnightblue" stroke="midnightblue" points="2455.97,-50.8425 2448.64,-58.4966 2459.14,-57.0815 2455.97,-50.8425"/>
</g>
<!-- Node15&#45;&gt;Node16 -->
<g id="edge38" class="edge"><title>Node15&#45;&gt;Node16</title>
<path fill="none" stroke="midnightblue" d="M2933,-48.1906C2933,-39.1684 2933,-28.9941 2933,-21.5707"/>
<polygon fill="midnightblue" stroke="midnightblue" points="2929.5,-48.3619 2933,-58.3619 2936.5,-48.3619 2929.5,-48.3619"/>
</g>
<!-- Node17 -->
<g id="node37" class="node"><title>Node17</title>
<a xlink:href="TaskOpsClient_8cpp.html" target="_top" xlink:title="ocra&#45;wbi&#45;plugins/ocra&#45;icub&#45;clients/task&#45;operations&#45;demo/src/TaskOpsClient.cpp">
<polygon fill="white" stroke="black" points="3146,-0.5 3146,-21.5 3508,-21.5 3508,-0.5 3146,-0.5"/>
<text text-anchor="middle" x="3327" y="-8.5" font-family="Helvetica,sans-Serif" font-size="10.00">ocra&#45;wbi&#45;plugins/ocra&#45;icub&#45;clients/task&#45;operations&#45;demo/src/TaskOpsClient.cpp</text>
</a>
</g>
<!-- Node15&#45;&gt;Node17 -->
<g id="edge40" class="edge"><title>Node15&#45;&gt;Node17</title>
<path fill="none" stroke="midnightblue" d="M3014.6,-56.9877C3085.65,-46.529 3187.62,-31.5174 3255.52,-21.5231"/>
<polygon fill="midnightblue" stroke="midnightblue" points="3013.73,-53.5775 3004.35,-58.4966 3014.75,-60.5029 3013.73,-53.5775"/>
</g>
<!-- Node18&#45;&gt;Node19 -->
<g id="edge46" class="edge"><title>Node18&#45;&gt;Node19</title>
<path fill="none" stroke="midnightblue" d="M3623.11,-51.405C3633.69,-41.6683 3646.48,-29.8914 3655.52,-21.5707"/>
<polygon fill="midnightblue" stroke="midnightblue" points="3620.54,-49.0138 3615.56,-58.3619 3625.28,-54.1637 3620.54,-49.0138"/>
</g>
<!-- Node20 -->
<g id="node44" class="node"><title>Node20</title>
<a xlink:href="WalkingClient_8cpp.html" target="_top" xlink:title="ocra&#45;wbi&#45;plugins/ocra&#45;icub&#45;clients/walking&#45;client/src/WalkingClient.cpp">
<polygon fill="white" stroke="black" points="3825.5,-0.5 3825.5,-21.5 4148.5,-21.5 4148.5,-0.5 3825.5,-0.5"/>
<text text-anchor="middle" x="3987" y="-8.5" font-family="Helvetica,sans-Serif" font-size="10.00">ocra&#45;wbi&#45;plugins/ocra&#45;icub&#45;clients/walking&#45;client/src/WalkingClient.cpp</text>
</a>
</g>
<!-- Node18&#45;&gt;Node20 -->
<g id="edge48" class="edge"><title>Node18&#45;&gt;Node20</title>
<path fill="none" stroke="midnightblue" d="M3683.32,-56.9877C3752.39,-46.529 3851.51,-31.5174 3917.51,-21.5231"/>
<polygon fill="midnightblue" stroke="midnightblue" points="3682.72,-53.5387 3673.36,-58.4966 3683.77,-60.4598 3682.72,-53.5387"/>
</g>
<!-- Node21&#45;&gt;Node2 -->
<g id="edge74" class="edge"><title>Node21&#45;&gt;Node2</title>
<path fill="none" stroke="midnightblue" d="M2824.64,-233.738C2754.02,-227.032 2669.33,-215.558 2595,-196 2540.09,-181.552 2479.34,-153.042 2448.46,-137.577"/>
<polygon fill="midnightblue" stroke="midnightblue" points="2824.67,-237.256 2834.95,-234.693 2825.32,-230.286 2824.67,-237.256"/>
</g>
<!-- Node22 -->
<g id="node49" class="node"><title>Node22</title>
<a xlink:href="IcubControllerServer_8h.html" target="_top" xlink:title="ocra&#45;wbi&#45;plugins/ocra&#45;icub&#45;server/include/ocra&#45;icub&#45;server/IcubControllerServer.h">
<polygon fill="white" stroke="black" points="3501.5,-174.5 3501.5,-195.5 3868.5,-195.5 3868.5,-174.5 3501.5,-174.5"/>
<text text-anchor="middle" x="3685" y="-182.5" font-family="Helvetica,sans-Serif" font-size="10.00">ocra&#45;wbi&#45;plugins/ocra&#45;icub&#45;server/include/ocra&#45;icub&#45;server/IcubControllerServer.h</text>
</a>
</g>
<!-- Node21&#45;&gt;Node22 -->
<g id="edge54" class="edge"><title>Node21&#45;&gt;Node22</title>
<path fill="none" stroke="midnightblue" d="M3114.67,-231.656C3242.76,-221.177 3431.56,-205.732 3556.36,-195.523"/>
<polygon fill="midnightblue" stroke="midnightblue" points="3114.08,-228.193 3104.39,-232.497 3114.65,-235.17 3114.08,-228.193"/>
</g>
<!-- Node29 -->
<g id="node63" class="node"><title>Node29</title>
<a xlink:href="MIQPController_8h.html" target="_top" xlink:title="A thread for launching trajectory generators.">
<polygon fill="white" stroke="black" points="3009,-174.5 3009,-195.5 3407,-195.5 3407,-174.5 3009,-174.5"/>
<text text-anchor="middle" x="3208" y="-182.5" font-family="Helvetica,sans-Serif" font-size="10.00">ocra&#45;wbi&#45;plugins/ocra&#45;icub&#45;clients/walking&#45;client/include/walking&#45;client/MIQPController.h</text>
</a>
</g>
<!-- Node21&#45;&gt;Node29 -->
<g id="edge68" class="edge"><title>Node21&#45;&gt;Node29</title>
<path fill="none" stroke="midnightblue" d="M3027.96,-230.011C3069.56,-219.611 3127.16,-205.21 3165.91,-195.523"/>
<polygon fill="midnightblue" stroke="midnightblue" points="3026.87,-226.676 3018.01,-232.497 3028.56,-233.467 3026.87,-226.676"/>
</g>
<!-- Node31 -->
<g id="node69" class="node"><title>Node31</title>
<a xlink:href="ModelInitializer_8h.html" target="_top" xlink:title="ocra&#45;wbi&#45;plugins/ocra&#45;icub/include/ocra&#45;icub/ModelInitializer.h">
<polygon fill="white" stroke="black" points="2603.5,-174.5 2603.5,-195.5 2886.5,-195.5 2886.5,-174.5 2603.5,-174.5"/>
<text text-anchor="middle" x="2745" y="-182.5" font-family="Helvetica,sans-Serif" font-size="10.00">ocra&#45;wbi&#45;plugins/ocra&#45;icub/include/ocra&#45;icub/ModelInitializer.h</text>
</a>
</g>
<!-- Node21&#45;&gt;Node31 -->
<g id="edge76" class="edge"><title>Node21&#45;&gt;Node31</title>
<path fill="none" stroke="midnightblue" d="M2924.27,-230.011C2882.85,-219.611 2825.49,-205.21 2786.91,-195.523"/>
<polygon fill="midnightblue" stroke="midnightblue" points="2923.62,-233.456 2934.17,-232.497 2925.32,-226.667 2923.62,-233.456"/>
</g>
<!-- Node33 -->
<g id="node74" class="node"><title>Node33</title>
<a xlink:href="OcraWbiModel_8cpp.html" target="_top" xlink:title="Implementation of ocra::Model using wholeBodyInterface.">
<polygon fill="white" stroke="black" points="3885.5,-174.5 3885.5,-195.5 4118.5,-195.5 4118.5,-174.5 3885.5,-174.5"/>
<text text-anchor="middle" x="4002" y="-182.5" font-family="Helvetica,sans-Serif" font-size="10.00">ocra&#45;wbi&#45;plugins/ocra&#45;icub/src/OcraWbiModel.cpp</text>
</a>
</g>
<!-- Node21&#45;&gt;Node33 -->
<g id="edge82" class="edge"><title>Node21&#45;&gt;Node33</title>
<path fill="none" stroke="midnightblue" d="M3127.76,-231.907C3461.3,-211.916 3547.03,-218.419 3877,-196 3879.72,-195.815 3882.47,-195.623 3885.24,-195.423"/>
<polygon fill="midnightblue" stroke="midnightblue" points="3127.09,-228.441 3117.32,-232.537 3127.51,-235.428 3127.09,-228.441"/>
</g>
<!-- Node23 -->
<g id="node51" class="node"><title>Node23</title>
<a xlink:href="Thread_8h.html" target="_top" xlink:title="The thread class for the controller server.">
<polygon fill="white" stroke="black" points="3608,-116.5 3608,-137.5 3916,-137.5 3916,-116.5 3608,-116.5"/>
<text text-anchor="middle" x="3762" y="-124.5" font-family="Helvetica,sans-Serif" font-size="10.00">ocra&#45;wbi&#45;plugins/ocra&#45;icub&#45;server/include/ocra&#45;icub&#45;server/Thread.h</text>
</a>
</g>
<!-- Node22&#45;&gt;Node23 -->
<g id="edge56" class="edge"><title>Node22&#45;&gt;Node23</title>
<path fill="none" stroke="midnightblue" d="M3707.23,-168.259C3720.36,-158.364 3736.6,-146.136 3747.97,-137.571"/>
<polygon fill="midnightblue" stroke="midnightblue" points="3705,-165.55 3699.12,-174.362 3709.22,-171.141 3705,-165.55"/>
</g>
<!-- Node28 -->
<g id="node61" class="node"><title>Node28</title>
<a xlink:href="IcubControllerServer_8cpp.html" target="_top" xlink:title="ocra&#45;wbi&#45;plugins/ocra&#45;icub&#45;server/src/IcubControllerServer.cpp">
<polygon fill="white" stroke="black" points="3933.5,-116.5 3933.5,-137.5 4220.5,-137.5 4220.5,-116.5 3933.5,-116.5"/>
<text text-anchor="middle" x="4077" y="-124.5" font-family="Helvetica,sans-Serif" font-size="10.00">ocra&#45;wbi&#45;plugins/ocra&#45;icub&#45;server/src/IcubControllerServer.cpp</text>
</a>
</g>
<!-- Node22&#45;&gt;Node28 -->
<g id="edge66" class="edge"><title>Node22&#45;&gt;Node28</title>
<path fill="none" stroke="midnightblue" d="M3766.19,-172.988C3836.87,-162.529 3938.33,-147.517 4005.88,-137.523"/>
<polygon fill="midnightblue" stroke="midnightblue" points="3765.37,-169.571 3755.99,-174.497 3766.39,-176.495 3765.37,-169.571"/>
</g>
<!-- Node24 -->
<g id="node53" class="node"><title>Node24</title>
<a xlink:href="Module_8h.html" target="_top" xlink:title="Module class for the controller server.">
<polygon fill="white" stroke="black" points="3968.5,-58.5 3968.5,-79.5 4277.5,-79.5 4277.5,-58.5 3968.5,-58.5"/>
<text text-anchor="middle" x="4123" y="-66.5" font-family="Helvetica,sans-Serif" font-size="10.00">ocra&#45;wbi&#45;plugins/ocra&#45;icub&#45;server/include/ocra&#45;icub&#45;server/Module.h</text>
</a>
</g>
<!-- Node23&#45;&gt;Node24 -->
<g id="edge58" class="edge"><title>Node23&#45;&gt;Node24</title>
<path fill="none" stroke="midnightblue" d="M3837.57,-114.859C3902.63,-104.406 3995.55,-89.4764 4057.5,-79.5231"/>
<polygon fill="midnightblue" stroke="midnightblue" points="3836.69,-111.455 3827.37,-116.497 3837.8,-118.366 3836.69,-111.455"/>
</g>
<!-- Node27 -->
<g id="node59" class="node"><title>Node27</title>
<a xlink:href="Thread_8cpp.html" target="_top" xlink:title="The thread class for the controller server.">
<polygon fill="white" stroke="black" points="4295,-58.5 4295,-79.5 4523,-79.5 4523,-58.5 4295,-58.5"/>
<text text-anchor="middle" x="4409" y="-66.5" font-family="Helvetica,sans-Serif" font-size="10.00">ocra&#45;wbi&#45;plugins/ocra&#45;icub&#45;server/src/Thread.cpp</text>
</a>
</g>
<!-- Node23&#45;&gt;Node27 -->
<g id="edge64" class="edge"><title>Node23&#45;&gt;Node27</title>
<path fill="none" stroke="midnightblue" d="M3889.34,-115.585C4007.34,-105.006 4181.3,-89.4124 4294.88,-79.2305"/>
<polygon fill="midnightblue" stroke="midnightblue" points="3888.81,-112.118 3879.17,-116.497 3889.44,-119.09 3888.81,-112.118"/>
</g>
<!-- Node25 -->
<g id="node55" class="node"><title>Node25</title>
<a xlink:href="ocra-icub-server_2src_2main_8cpp.html" target="_top" xlink:title="ocra&#45;wbi&#45;plugins/ocra&#45;icub&#45;server/src/main.cpp">
<polygon fill="white" stroke="black" points="4165.5,-0.5 4165.5,-21.5 4384.5,-21.5 4384.5,-0.5 4165.5,-0.5"/>
<text text-anchor="middle" x="4275" y="-8.5" font-family="Helvetica,sans-Serif" font-size="10.00">ocra&#45;wbi&#45;plugins/ocra&#45;icub&#45;server/src/main.cpp</text>
</a>
</g>
<!-- Node24&#45;&gt;Node25 -->
<g id="edge60" class="edge"><title>Node24&#45;&gt;Node25</title>
<path fill="none" stroke="midnightblue" d="M4160.02,-54.8742C4186.99,-44.5819 4222.95,-30.862 4247.42,-21.5231"/>
<polygon fill="midnightblue" stroke="midnightblue" points="4158.62,-51.6615 4150.53,-58.4966 4161.12,-58.2015 4158.62,-51.6615"/>
</g>
<!-- Node26 -->
<g id="node57" class="node"><title>Node26</title>
<a xlink:href="Module_8cpp.html" target="_top" xlink:title="ocra&#45;wbi&#45;plugins/ocra&#45;icub&#45;server/src/Module.cpp">
<polygon fill="white" stroke="black" points="4402,-0.5 4402,-21.5 4632,-21.5 4632,-0.5 4402,-0.5"/>
<text text-anchor="middle" x="4517" y="-8.5" font-family="Helvetica,sans-Serif" font-size="10.00">ocra&#45;wbi&#45;plugins/ocra&#45;icub&#45;server/src/Module.cpp</text>
</a>
</g>
<!-- Node24&#45;&gt;Node26 -->
<g id="edge62" class="edge"><title>Node24&#45;&gt;Node26</title>
<path fill="none" stroke="midnightblue" d="M4204.6,-56.9877C4275.65,-46.529 4377.62,-31.5174 4445.52,-21.5231"/>
<polygon fill="midnightblue" stroke="midnightblue" points="4203.73,-53.5775 4194.35,-58.4966 4204.75,-60.5029 4203.73,-53.5775"/>
</g>
<!-- Node29&#45;&gt;Node18 -->
<g id="edge70" class="edge"><title>Node29&#45;&gt;Node18</title>
<path fill="none" stroke="midnightblue" d="M3207.92,-164.189C3209.05,-148.541 3213.31,-127.838 3227,-116 3244.74,-100.656 3359.17,-87.8524 3457.36,-79.5036"/>
<polygon fill="midnightblue" stroke="midnightblue" points="3204.41,-164.375 3207.56,-174.491 3211.4,-164.62 3204.41,-164.375"/>
</g>
<!-- Node30 -->
<g id="node66" class="node"><title>Node30</title>
<a xlink:href="MIQPController_8cpp.html" target="_top" xlink:title="ocra&#45;wbi&#45;plugins/ocra&#45;icub&#45;clients/walking&#45;client/src/MIQPController.cpp">
<polygon fill="white" stroke="black" points="3235.5,-116.5 3235.5,-137.5 3564.5,-137.5 3564.5,-116.5 3235.5,-116.5"/>
<text text-anchor="middle" x="3400" y="-124.5" font-family="Helvetica,sans-Serif" font-size="10.00">ocra&#45;wbi&#45;plugins/ocra&#45;icub&#45;clients/walking&#45;client/src/MIQPController.cpp</text>
</a>
</g>
<!-- Node29&#45;&gt;Node30 -->
<g id="edge72" class="edge"><title>Node29&#45;&gt;Node30</title>
<path fill="none" stroke="midnightblue" d="M3252.54,-171.546C3286.83,-161.186 3333.57,-147.067 3365.17,-137.523"/>
<polygon fill="midnightblue" stroke="midnightblue" points="3251.33,-168.254 3242.77,-174.497 3253.35,-174.955 3251.33,-168.254"/>
</g>
<!-- Node31&#45;&gt;Node2 -->
<g id="edge78" class="edge"><title>Node31&#45;&gt;Node2</title>
<path fill="none" stroke="midnightblue" d="M2677.58,-172.665C2620.51,-162.222 2539.58,-147.415 2485.51,-137.523"/>
<polygon fill="midnightblue" stroke="midnightblue" points="2677.13,-176.14 2687.59,-174.497 2678.39,-169.254 2677.13,-176.14"/>
</g>
<!-- Node32 -->
<g id="node72" class="node"><title>Node32</title>
<a xlink:href="ModelInitializer_8cpp.html" target="_top" xlink:title="ocra&#45;wbi&#45;plugins/ocra&#45;icub/src/ModelInitializer.cpp">
<polygon fill="white" stroke="black" points="2628.5,-116.5 2628.5,-137.5 2861.5,-137.5 2861.5,-116.5 2628.5,-116.5"/>
<text text-anchor="middle" x="2745" y="-124.5" font-family="Helvetica,sans-Serif" font-size="10.00">ocra&#45;wbi&#45;plugins/ocra&#45;icub/src/ModelInitializer.cpp</text>
</a>
</g>
<!-- Node31&#45;&gt;Node32 -->
<g id="edge80" class="edge"><title>Node31&#45;&gt;Node32</title>
<path fill="none" stroke="midnightblue" d="M2745,-164.191C2745,-155.168 2745,-144.994 2745,-137.571"/>
<polygon fill="midnightblue" stroke="midnightblue" points="2741.5,-164.362 2745,-174.362 2748.5,-164.362 2741.5,-164.362"/>
</g>
</g>
</svg>
