<?xml version="1.0" encoding="UTF-8" standalone="no"?>
<!DOCTYPE svg PUBLIC "-//W3C//DTD SVG 1.1//EN"
 "http://www.w3.org/Graphics/SVG/1.1/DTD/svg11.dtd">
<!-- Generated by graphviz version 2.26.3 (20100126.1600)
 -->
<!-- Title: G Pages: 1 -->
<svg width="4697pt" height="320pt"
 viewBox="0.00 0.00 4697.00 320.00" xmlns="http://www.w3.org/2000/svg" xmlns:xlink="http://www.w3.org/1999/xlink">
<g id="graph1" class="graph" transform="scale(1 1) rotate(0) translate(4 316)">
<title>G</title>
<polygon fill="white" stroke="white" points="-4,5 -4,-316 4694,-316 4694,5 -4,5"/>
<!-- Node1 -->
<g id="node1" class="node"><title>Node1</title>
<polygon fill="#bfbfbf" stroke="black" points="3228.5,-290.5 3228.5,-311.5 3539.5,-311.5 3539.5,-290.5 3228.5,-290.5"/>
<text text-anchor="middle" x="3384" y="-298.5" font-family="Helvetica,sans-Serif" font-size="10.00">ocra&#45;wbi&#45;plugins/ocra&#45;icub/include/ocra&#45;icub/OcraWbiConversions.h</text>
</g>
<!-- Node2 -->
<g id="node3" class="node"><title>Node2</title>
<a xlink:href="IcubClient_8h.html" target="_top" xlink:title="ocra&#45;wbi&#45;plugins/ocra&#45;icub/include/ocra&#45;icub/IcubClient.h">
<polygon fill="white" stroke="black" points="2295,-116.5 2295,-137.5 2557,-137.5 2557,-116.5 2295,-116.5"/>
<text text-anchor="middle" x="2426" y="-124.5" font-family="Helvetica,sans-Serif" font-size="10.00">ocra&#45;wbi&#45;plugins/ocra&#45;icub/include/ocra&#45;icub/IcubClient.h</text>
</a>
</g>
<!-- Node1&#45;&gt;Node2 -->
<g id="edge2" class="edge"><title>Node1&#45;&gt;Node2</title>
<path fill="none" stroke="midnightblue" d="M3261.29,-289.47C3114.49,-274.299 2861.84,-243.816 2649,-196 2578.02,-180.055 2496.94,-152.547 2454.83,-137.531"/>
<polygon fill="midnightblue" stroke="midnightblue" points="3260.94,-292.951 3271.24,-290.491 3261.65,-285.988 3260.94,-292.951"/>
</g>
<!-- Node21 -->
<g id="node47" class="node"><title>Node21</title>
<a xlink:href="OcraWbiModel_8h.html" target="_top" xlink:title="Implementation of ocra::Model using wholeBodyInterface.">
<polygon fill="white" stroke="black" points="3243,-232.5 3243,-253.5 3525,-253.5 3525,-232.5 3243,-232.5"/>
<text text-anchor="middle" x="3384" y="-240.5" font-family="Helvetica,sans-Serif" font-size="10.00">ocra&#45;wbi&#45;plugins/ocra&#45;icub/include/ocra&#45;icub/OcraWbiModel.h</text>
</a>
</g>
<!-- Node1&#45;&gt;Node21 -->
<g id="edge52" class="edge"><title>Node1&#45;&gt;Node21</title>
<path fill="none" stroke="midnightblue" d="M3384,-280.191C3384,-271.168 3384,-260.994 3384,-253.571"/>
<polygon fill="midnightblue" stroke="midnightblue" points="3380.5,-280.362 3384,-290.362 3387.5,-280.362 3380.5,-280.362"/>
</g>
<!-- Node36 -->
<g id="node81" class="node"><title>Node36</title>
<a xlink:href="OcraWbiConversions_8cpp.html" target="_top" xlink:title="A utility class full of static conversion functions.">
<polygon fill="white" stroke="black" points="3542.5,-232.5 3542.5,-253.5 3803.5,-253.5 3803.5,-232.5 3542.5,-232.5"/>
<text text-anchor="middle" x="3673" y="-240.5" font-family="Helvetica,sans-Serif" font-size="10.00">ocra&#45;wbi&#45;plugins/ocra&#45;icub/src/OcraWbiConversions.cpp</text>
</a>
</g>
<!-- Node1&#45;&gt;Node36 -->
<g id="edge90" class="edge"><title>Node1&#45;&gt;Node36</title>
<path fill="none" stroke="midnightblue" d="M3446.44,-288.47C3498.41,-278.038 3571.58,-263.354 3620.57,-253.523"/>
<polygon fill="midnightblue" stroke="midnightblue" points="3445.45,-285.097 3436.34,-290.497 3446.83,-291.96 3445.45,-285.097"/>
</g>
<!-- Node3 -->
<g id="node5" class="node"><title>Node3</title>
<a xlink:href="ExampleClient_8h.html" target="_top" xlink:title="ocra&#45;wbi&#45;plugins/ocra&#45;icub&#45;clients/example&#45;client/include/example&#45;client/ExampleClient.h">
<polygon fill="white" stroke="black" points="309,-58.5 309,-79.5 711,-79.5 711,-58.5 309,-58.5"/>
<text text-anchor="middle" x="510" y="-66.5" font-family="Helvetica,sans-Serif" font-size="10.00">ocra&#45;wbi&#45;plugins/ocra&#45;icub&#45;clients/example&#45;client/include/example&#45;client/ExampleClient.h</text>
</a>
</g>
<!-- Node2&#45;&gt;Node3 -->
<g id="edge4" class="edge"><title>Node2&#45;&gt;Node3</title>
<path fill="none" stroke="midnightblue" d="M2284.46,-122.788C2010.31,-114.619 1387.75,-96.0172 864,-80 814.525,-78.487 761.162,-76.8378 711.247,-75.2878"/>
<polygon fill="midnightblue" stroke="midnightblue" points="2284.76,-126.298 2294.86,-123.098 2284.97,-119.301 2284.76,-126.298"/>
</g>
<!-- Node4 -->
<g id="node7" class="node"><title>Node4</title>
<a xlink:href="example-client_8cpp.html" target="_top" xlink:title="ocra&#45;wbi&#45;plugins/ocra&#45;icub&#45;clients/example&#45;client/src/example&#45;client.cpp">
<polygon fill="white" stroke="black" points="-0.5,-0.5 -0.5,-21.5 328.5,-21.5 328.5,-0.5 -0.5,-0.5"/>
<text text-anchor="middle" x="164" y="-8.5" font-family="Helvetica,sans-Serif" font-size="10.00">ocra&#45;wbi&#45;plugins/ocra&#45;icub&#45;clients/example&#45;client/src/example&#45;client.cpp</text>
</a>
</g>
<!-- Node2&#45;&gt;Node4 -->
<g id="edge10" class="edge"><title>Node2&#45;&gt;Node4</title>
<path fill="none" stroke="midnightblue" d="M2284.74,-125.601C1825.1,-120.823 396.059,-104.1 300,-80 253.005,-68.2098 203.702,-38.0168 179.405,-21.7561"/>
<polygon fill="midnightblue" stroke="midnightblue" points="2284.72,-129.101 2294.76,-125.705 2284.79,-122.101 2284.72,-129.101"/>
</g>
<!-- Node6 -->
<g id="node12" class="node"><title>Node6</title>
<a xlink:href="SittingDemoClient_8h.html" target="_top" xlink:title="ocra&#45;wbi&#45;plugins/ocra&#45;icub&#45;clients/sitting&#45;demo/include/sitting&#45;demo/SittingDemoClient.h">
<polygon fill="white" stroke="black" points="954,-58.5 954,-79.5 1352,-79.5 1352,-58.5 954,-58.5"/>
<text text-anchor="middle" x="1153" y="-66.5" font-family="Helvetica,sans-Serif" font-size="10.00">ocra&#45;wbi&#45;plugins/ocra&#45;icub&#45;clients/sitting&#45;demo/include/sitting&#45;demo/SittingDemoClient.h</text>
</a>
</g>
<!-- Node2&#45;&gt;Node6 -->
<g id="edge12" class="edge"><title>Node2&#45;&gt;Node6</title>
<path fill="none" stroke="midnightblue" d="M2284.55,-120.555C2057.54,-110.212 1611.18,-89.8753 1352.09,-78.0706"/>
<polygon fill="midnightblue" stroke="midnightblue" points="2284.71,-124.066 2294.86,-121.025 2285.03,-117.073 2284.71,-124.066"/>
</g>
<!-- Node7 -->
<g id="node14" class="node"><title>Node7</title>
<a xlink:href="ocra-icub-clients_2sitting-demo_2src_2main_8cpp.html" target="_top" xlink:title="ocra&#45;wbi&#45;plugins/ocra&#45;icub&#45;clients/sitting&#45;demo/src/main.cpp">
<polygon fill="white" stroke="black" points="691.5,-0.5 691.5,-21.5 968.5,-21.5 968.5,-0.5 691.5,-0.5"/>
<text text-anchor="middle" x="830" y="-8.5" font-family="Helvetica,sans-Serif" font-size="10.00">ocra&#45;wbi&#45;plugins/ocra&#45;icub&#45;clients/sitting&#45;demo/src/main.cpp</text>
</a>
</g>
<!-- Node2&#45;&gt;Node7 -->
<g id="edge18" class="edge"><title>Node2&#45;&gt;Node7</title>
<path fill="none" stroke="midnightblue" d="M2284.91,-126.561C1939.64,-124.913 1071.09,-117.087 945,-80 904.123,-67.9765 862.922,-37.8837 842.749,-21.6991"/>
<polygon fill="midnightblue" stroke="midnightblue" points="2284.96,-130.062 2294.98,-126.608 2284.99,-123.062 2284.96,-130.062"/>
</g>
<!-- Node9 -->
<g id="node19" class="node"><title>Node9</title>
<a xlink:href="StandingDemoClient_8h.html" target="_top" xlink:title="ocra&#45;wbi&#45;plugins/ocra&#45;icub&#45;clients/standing&#45;demo/include/standing&#45;demo/StandingDemoClient.h">
<polygon fill="white" stroke="black" points="1605,-58.5 1605,-79.5 2035,-79.5 2035,-58.5 1605,-58.5"/>
<text text-anchor="middle" x="1820" y="-66.5" font-family="Helvetica,sans-Serif" font-size="10.00">ocra&#45;wbi&#45;plugins/ocra&#45;icub&#45;clients/standing&#45;demo/include/standing&#45;demo/StandingDemoClient.h</text>
</a>
</g>
<!-- Node2&#45;&gt;Node9 -->
<g id="edge20" class="edge"><title>Node2&#45;&gt;Node9</title>
<path fill="none" stroke="midnightblue" d="M2306.16,-115.53C2196.7,-105.054 2036.19,-89.6914 1929.95,-79.5231"/>
<polygon fill="midnightblue" stroke="midnightblue" points="2305.97,-119.028 2316.26,-116.497 2306.64,-112.06 2305.97,-119.028"/>
</g>
<!-- Node10 -->
<g id="node21" class="node"><title>Node10</title>
<a xlink:href="ocra-icub-clients_2standing-demo_2src_2main_8cpp.html" target="_top" xlink:title="ocra&#45;wbi&#45;plugins/ocra&#45;icub&#45;clients/standing&#45;demo/src/main.cpp">
<polygon fill="white" stroke="black" points="1337.5,-0.5 1337.5,-21.5 1624.5,-21.5 1624.5,-0.5 1337.5,-0.5"/>
<text text-anchor="middle" x="1481" y="-8.5" font-family="Helvetica,sans-Serif" font-size="10.00">ocra&#45;wbi&#45;plugins/ocra&#45;icub&#45;clients/standing&#45;demo/src/main.cpp</text>
</a>
</g>
<!-- Node2&#45;&gt;Node10 -->
<g id="edge26" class="edge"><title>Node2&#45;&gt;Node10</title>
<path fill="none" stroke="midnightblue" d="M2284.72,-122.693C2064.98,-115.439 1659.81,-99.6337 1596,-80 1555.28,-67.4697 1514.01,-37.5947 1493.79,-21.5755"/>
<polygon fill="midnightblue" stroke="midnightblue" points="2284.61,-126.191 2294.72,-123.022 2284.84,-119.195 2284.61,-126.191"/>
</g>
<!-- Node12 -->
<g id="node26" class="node"><title>Node12</title>
<a xlink:href="SteppingDemoClient_8h.html" target="_top" xlink:title="ocra&#45;wbi&#45;plugins/ocra&#45;icub&#45;clients/stepping&#45;demo/include/stepping&#45;demo/SteppingDemoClient.h">
<polygon fill="white" stroke="black" points="2211,-58.5 2211,-79.5 2641,-79.5 2641,-58.5 2211,-58.5"/>
<text text-anchor="middle" x="2426" y="-66.5" font-family="Helvetica,sans-Serif" font-size="10.00">ocra&#45;wbi&#45;plugins/ocra&#45;icub&#45;clients/stepping&#45;demo/include/stepping&#45;demo/SteppingDemoClient.h</text>
</a>
</g>
<!-- Node2&#45;&gt;Node12 -->
<g id="edge28" class="edge"><title>Node2&#45;&gt;Node12</title>
<path fill="none" stroke="midnightblue" d="M2426,-106.191C2426,-97.1684 2426,-86.9941 2426,-79.5707"/>
<polygon fill="midnightblue" stroke="midnightblue" points="2422.5,-106.362 2426,-116.362 2429.5,-106.362 2422.5,-106.362"/>
</g>
<!-- Node13 -->
<g id="node28" class="node"><title>Node13</title>
<a xlink:href="stepping-demo_8cpp.html" target="_top" xlink:title="ocra&#45;wbi&#45;plugins/ocra&#45;icub&#45;clients/stepping&#45;demo/src/stepping&#45;demo.cpp">
<polygon fill="white" stroke="black" points="2016,-0.5 2016,-21.5 2346,-21.5 2346,-0.5 2016,-0.5"/>
<text text-anchor="middle" x="2181" y="-8.5" font-family="Helvetica,sans-Serif" font-size="10.00">ocra&#45;wbi&#45;plugins/ocra&#45;icub&#45;clients/stepping&#45;demo/src/stepping&#45;demo.cpp</text>
</a>
</g>
<!-- Node2&#45;&gt;Node13 -->
<g id="edge34" class="edge"><title>Node2&#45;&gt;Node13</title>
<path fill="none" stroke="midnightblue" d="M2318.67,-114.968C2270.09,-107.469 2219.62,-96.1243 2202,-80 2185.37,-64.7841 2181.75,-36.853 2181.06,-21.61"/>
<polygon fill="midnightblue" stroke="midnightblue" points="2318.26,-118.446 2328.67,-116.463 2319.3,-111.523 2318.26,-118.446"/>
</g>
<!-- Node15 -->
<g id="node33" class="node"><title>Node15</title>
<a xlink:href="TaskOpsClient_8h.html" target="_top" xlink:title="ocra&#45;wbi&#45;plugins/ocra&#45;icub&#45;clients/task&#45;operations&#45;demo/include/task&#45;operations&#45;demo/TaskOpsClient.h">
<polygon fill="white" stroke="black" points="2700.5,-58.5 2700.5,-79.5 3165.5,-79.5 3165.5,-58.5 2700.5,-58.5"/>
<text text-anchor="middle" x="2933" y="-66.5" font-family="Helvetica,sans-Serif" font-size="10.00">ocra&#45;wbi&#45;plugins/ocra&#45;icub&#45;clients/task&#45;operations&#45;demo/include/task&#45;operations&#45;demo/TaskOpsClient.h</text>
</a>
</g>
<!-- Node2&#45;&gt;Node15 -->
<g id="edge36" class="edge"><title>Node2&#45;&gt;Node15</title>
<path fill="none" stroke="midnightblue" d="M2527.93,-115.34C2619.46,-104.868 2752.67,-89.63 2841.01,-79.5231"/>
<polygon fill="midnightblue" stroke="midnightblue" points="2527.35,-111.883 2517.81,-116.497 2528.15,-118.837 2527.35,-111.883"/>
</g>
<!-- Node16 -->
<g id="node35" class="node"><title>Node16</title>
<a xlink:href="task-operations-demo_8cpp.html" target="_top" xlink:title="ocra&#45;wbi&#45;plugins/ocra&#45;icub&#45;clients/task&#45;operations&#45;demo/src/task&#45;operations&#45;demo.cpp">
<polygon fill="white" stroke="black" points="2738,-0.5 2738,-21.5 3128,-21.5 3128,-0.5 2738,-0.5"/>
<text text-anchor="middle" x="2933" y="-8.5" font-family="Helvetica,sans-Serif" font-size="10.00">ocra&#45;wbi&#45;plugins/ocra&#45;icub&#45;clients/task&#45;operations&#45;demo/src/task&#45;operations&#45;demo.cpp</text>
</a>
</g>
<!-- Node2&#45;&gt;Node16 -->
<g id="edge42" class="edge"><title>Node2&#45;&gt;Node16</title>
<path fill="none" stroke="midnightblue" d="M2511.6,-114.746C2554,-107.249 2605.51,-95.972 2650,-80 2669.83,-72.88 2672.12,-64.9789 2692,-58 2742.18,-40.3879 2800.68,-28.7799 2847.48,-21.5065"/>
<polygon fill="midnightblue" stroke="midnightblue" points="2510.84,-111.324 2501.58,-116.476 2512.03,-118.222 2510.84,-111.324"/>
</g>
<!-- Node18 -->
<g id="node40" class="node"><title>Node18</title>
<a xlink:href="WalkingClient_8h.html" target="_top" xlink:title="ocra&#45;wbi&#45;plugins/ocra&#45;icub&#45;clients/walking&#45;client/include/walking&#45;client/WalkingClient.h">
<polygon fill="white" stroke="black" points="3329,-58.5 3329,-79.5 3721,-79.5 3721,-58.5 3329,-58.5"/>
<text text-anchor="middle" x="3525" y="-66.5" font-family="Helvetica,sans-Serif" font-size="10.00">ocra&#45;wbi&#45;plugins/ocra&#45;icub&#45;clients/walking&#45;client/include/walking&#45;client/WalkingClient.h</text>
</a>
</g>
<!-- Node2&#45;&gt;Node18 -->
<g id="edge44" class="edge"><title>Node2&#45;&gt;Node18</title>
<path fill="none" stroke="midnightblue" d="M2567.45,-119.535C2761.2,-109.31 3109.99,-90.9023 3328.87,-79.3508"/>
<polygon fill="midnightblue" stroke="midnightblue" points="2567,-116.054 2557.2,-120.076 2567.37,-123.044 2567,-116.054"/>
</g>
<!-- Node19 -->
<g id="node42" class="node"><title>Node19</title>
<a xlink:href="ocra-icub-clients_2walking-client_2src_2main_8cpp.html" target="_top" xlink:title="ocra&#45;wbi&#45;plugins/ocra&#45;icub&#45;clients/walking&#45;client/src/main.cpp">
<polygon fill="white" stroke="black" points="3525.5,-0.5 3525.5,-21.5 3808.5,-21.5 3808.5,-0.5 3525.5,-0.5"/>
<text text-anchor="middle" x="3667" y="-8.5" font-family="Helvetica,sans-Serif" font-size="10.00">ocra&#45;wbi&#45;plugins/ocra&#45;icub&#45;clients/walking&#45;client/src/main.cpp</text>
</a>
</g>
<!-- Node2&#45;&gt;Node19 -->
<g id="edge50" class="edge"><title>Node2&#45;&gt;Node19</title>
<path fill="none" stroke="midnightblue" d="M2567.25,-121.782C2717.88,-115.363 2963.25,-102.456 3174,-80 3239.25,-73.047 3255.04,-67.293 3320,-58 3411.32,-44.9354 3516.31,-30.8446 3586.67,-21.5349"/>
<polygon fill="midnightblue" stroke="midnightblue" points="2566.86,-118.295 2557.02,-122.214 2567.16,-125.289 2566.86,-118.295"/>
</g>
<!-- Node3&#45;&gt;Node4 -->
<g id="edge6" class="edge"><title>Node3&#45;&gt;Node4</title>
<path fill="none" stroke="midnightblue" d="M437.187,-56.7943C374.849,-46.3447 286.03,-31.4559 226.776,-21.5231"/>
<polygon fill="midnightblue" stroke="midnightblue" points="436.901,-60.2952 447.342,-58.4966 438.058,-53.3915 436.901,-60.2952"/>
</g>
<!-- Node5 -->
<g id="node9" class="node"><title>Node5</title>
<a xlink:href="ExampleClient_8cpp.html" target="_top" xlink:title="ocra&#45;wbi&#45;plugins/ocra&#45;icub&#45;clients/example&#45;client/src/ExampleClient.cpp">
<polygon fill="white" stroke="black" points="345.5,-0.5 345.5,-21.5 674.5,-21.5 674.5,-0.5 345.5,-0.5"/>
<text text-anchor="middle" x="510" y="-8.5" font-family="Helvetica,sans-Serif" font-size="10.00">ocra&#45;wbi&#45;plugins/ocra&#45;icub&#45;clients/example&#45;client/src/ExampleClient.cpp</text>
</a>
</g>
<!-- Node3&#45;&gt;Node5 -->
<g id="edge8" class="edge"><title>Node3&#45;&gt;Node5</title>
<path fill="none" stroke="midnightblue" d="M510,-48.1906C510,-39.1684 510,-28.9941 510,-21.5707"/>
<polygon fill="midnightblue" stroke="midnightblue" points="506.5,-48.3619 510,-58.3619 513.5,-48.3619 506.5,-48.3619"/>
</g>
<!-- Node6&#45;&gt;Node7 -->
<g id="edge14" class="edge"><title>Node6&#45;&gt;Node7</title>
<path fill="none" stroke="midnightblue" d="M1084.31,-56.6648C1026.15,-46.222 943.69,-31.415 888.603,-21.5231"/>
<polygon fill="midnightblue" stroke="midnightblue" points="1084.05,-60.1741 1094.51,-58.4966 1085.28,-53.2843 1084.05,-60.1741"/>
</g>
<!-- Node8 -->
<g id="node16" class="node"><title>Node8</title>
<a xlink:href="SittingDemoClient_8cpp.html" target="_top" xlink:title="ocra&#45;wbi&#45;plugins/ocra&#45;icub&#45;clients/sitting&#45;demo/src/SittingDemoClient.cpp">
<polygon fill="white" stroke="black" points="985.5,-0.5 985.5,-21.5 1320.5,-21.5 1320.5,-0.5 985.5,-0.5"/>
<text text-anchor="middle" x="1153" y="-8.5" font-family="Helvetica,sans-Serif" font-size="10.00">ocra&#45;wbi&#45;plugins/ocra&#45;icub&#45;clients/sitting&#45;demo/src/SittingDemoClient.cpp</text>
</a>
</g>
<!-- Node6&#45;&gt;Node8 -->
<g id="edge16" class="edge"><title>Node6&#45;&gt;Node8</title>
<path fill="none" stroke="midnightblue" d="M1153,-48.1906C1153,-39.1684 1153,-28.9941 1153,-21.5707"/>
<polygon fill="midnightblue" stroke="midnightblue" points="1149.5,-48.3619 1153,-58.3619 1156.5,-48.3619 1149.5,-48.3619"/>
</g>
<!-- Node9&#45;&gt;Node10 -->
<g id="edge22" class="edge"><title>Node9&#45;&gt;Node10</title>
<path fill="none" stroke="midnightblue" d="M1748.66,-56.7943C1687.58,-46.3447 1600.56,-31.4559 1542.51,-21.5231"/>
<polygon fill="midnightblue" stroke="midnightblue" points="1748.16,-60.26 1758.61,-58.4966 1749.34,-53.3603 1748.16,-60.26"/>
</g>
<!-- Node11 -->
<g id="node23" class="node"><title>Node11</title>
<a xlink:href="StandingDemoClient_8cpp.html" target="_top" xlink:title="ocra&#45;wbi&#45;plugins/ocra&#45;icub&#45;clients/standing&#45;demo/src/StandingDemoClient.cpp">
<polygon fill="white" stroke="black" points="1642,-0.5 1642,-21.5 1998,-21.5 1998,-0.5 1642,-0.5"/>
<text text-anchor="middle" x="1820" y="-8.5" font-family="Helvetica,sans-Serif" font-size="10.00">ocra&#45;wbi&#45;plugins/ocra&#45;icub&#45;clients/standing&#45;demo/src/StandingDemoClient.cpp</text>
</a>
</g>
<!-- Node9&#45;&gt;Node11 -->
<g id="edge24" class="edge"><title>Node9&#45;&gt;Node11</title>
<path fill="none" stroke="midnightblue" d="M1820,-48.1906C1820,-39.1684 1820,-28.9941 1820,-21.5707"/>
<polygon fill="midnightblue" stroke="midnightblue" points="1816.5,-48.3619 1820,-58.3619 1823.5,-48.3619 1816.5,-48.3619"/>
</g>
<!-- Node12&#45;&gt;Node13 -->
<g id="edge30" class="edge"><title>Node12&#45;&gt;Node13</title>
<path fill="none" stroke="midnightblue" d="M2371.69,-56.1424C2327.72,-45.7328 2266.54,-31.2511 2225.45,-21.5231"/>
<polygon fill="midnightblue" stroke="midnightblue" points="2371.09,-59.5988 2381.63,-58.4966 2372.71,-52.787 2371.09,-59.5988"/>
</g>
<!-- Node14 -->
<g id="node30" class="node"><title>Node14</title>
<a xlink:href="SteppingDemoClient_8cpp.html" target="_top" xlink:title="ocra&#45;wbi&#45;plugins/ocra&#45;icub&#45;clients/stepping&#45;demo/src/SteppingDemoClient.cpp">
<polygon fill="white" stroke="black" points="2364,-0.5 2364,-21.5 2720,-21.5 2720,-0.5 2364,-0.5"/>
<text text-anchor="middle" x="2542" y="-8.5" font-family="Helvetica,sans-Serif" font-size="10.00">ocra&#45;wbi&#45;plugins/ocra&#45;icub&#45;clients/stepping&#45;demo/src/SteppingDemoClient.cpp</text>
</a>
</g>
<!-- Node12&#45;&gt;Node14 -->
<g id="edge32" class="edge"><title>Node12&#45;&gt;Node14</title>
<path fill="none" stroke="midnightblue" d="M2456.14,-53.9319C2476.41,-43.7932 2502.65,-30.6748 2520.76,-21.6212"/>
<polygon fill="midnightblue" stroke="midnightblue" points="2454.39,-50.8939 2447.01,-58.4966 2457.52,-57.1549 2454.39,-50.8939"/>
</g>
<!-- Node15&#45;&gt;Node16 -->
<g id="edge38" class="edge"><title>Node15&#45;&gt;Node16</title>
<path fill="none" stroke="midnightblue" d="M2933,-48.1906C2933,-39.1684 2933,-28.9941 2933,-21.5707"/>
<polygon fill="midnightblue" stroke="midnightblue" points="2929.5,-48.3619 2933,-58.3619 2936.5,-48.3619 2929.5,-48.3619"/>
</g>
<!-- Node17 -->
<g id="node37" class="node"><title>Node17</title>
<a xlink:href="TaskOpsClient_8cpp.html" target="_top" xlink:title="ocra&#45;wbi&#45;plugins/ocra&#45;icub&#45;clients/task&#45;operations&#45;demo/src/TaskOpsClient.cpp">
<polygon fill="white" stroke="black" points="3146,-0.5 3146,-21.5 3508,-21.5 3508,-0.5 3146,-0.5"/>
<text text-anchor="middle" x="3327" y="-8.5" font-family="Helvetica,sans-Serif" font-size="10.00">ocra&#45;wbi&#45;plugins/ocra&#45;icub&#45;clients/task&#45;operations&#45;demo/src/TaskOpsClient.cpp</text>
</a>
</g>
<!-- Node15&#45;&gt;Node17 -->
<g id="edge40" class="edge"><title>Node15&#45;&gt;Node17</title>
<path fill="none" stroke="midnightblue" d="M3014.6,-56.9877C3085.65,-46.529 3187.62,-31.5174 3255.52,-21.5231"/>
<polygon fill="midnightblue" stroke="midnightblue" points="3013.73,-53.5775 3004.35,-58.4966 3014.75,-60.5029 3013.73,-53.5775"/>
</g>
<!-- Node18&#45;&gt;Node19 -->
<g id="edge46" class="edge"><title>Node18&#45;&gt;Node19</title>
<path fill="none" stroke="midnightblue" d="M3560.22,-54.6153C3585.25,-44.3889 3618.33,-30.8796 3641,-21.6212"/>
<polygon fill="midnightblue" stroke="midnightblue" points="3558.65,-51.4752 3550.72,-58.4966 3561.3,-57.9555 3558.65,-51.4752"/>
</g>
<!-- Node20 -->
<g id="node44" class="node"><title>Node20</title>
<a xlink:href="WalkingClient_8cpp.html" target="_top" xlink:title="ocra&#45;wbi&#45;plugins/ocra&#45;icub&#45;clients/walking&#45;client/src/WalkingClient.cpp">
<polygon fill="white" stroke="black" points="3825.5,-0.5 3825.5,-21.5 4148.5,-21.5 4148.5,-0.5 3825.5,-0.5"/>
<text text-anchor="middle" x="3987" y="-8.5" font-family="Helvetica,sans-Serif" font-size="10.00">ocra&#45;wbi&#45;plugins/ocra&#45;icub&#45;clients/walking&#45;client/src/WalkingClient.cpp</text>
</a>
</g>
<!-- Node18&#45;&gt;Node20 -->
<g id="edge48" class="edge"><title>Node18&#45;&gt;Node20</title>
<path fill="none" stroke="midnightblue" d="M3618.64,-57.244C3702.03,-46.7755 3822.92,-31.5993 3903.18,-21.5231"/>
<polygon fill="midnightblue" stroke="midnightblue" points="3618.15,-53.7782 3608.66,-58.4966 3619.02,-60.7237 3618.15,-53.7782"/>
</g>
<!-- Node21&#45;&gt;Node2 -->
<g id="edge80" class="edge"><title>Node21&#45;&gt;Node2</title>
<path fill="none" stroke="midnightblue" d="M3232.76,-239.661C3100.66,-234.936 2904.12,-223.53 2735,-196 2696.06,-189.661 2687.42,-182.959 2649,-174 2591.2,-160.523 2524.57,-146.703 2479.31,-137.569"/>
<polygon fill="midnightblue" stroke="midnightblue" points="3232.83,-243.166 3242.95,-240.017 3233.08,-236.17 3232.83,-243.166"/>
</g>
<!-- Node22 -->
<g id="node49" class="node"><title>Node22</title>
<a xlink:href="IcubControllerServer_8h.html" target="_top" xlink:title="ocra&#45;wbi&#45;plugins/ocra&#45;icub&#45;server/include/ocra&#45;icub&#45;server/IcubControllerServer.h">
<polygon fill="white" stroke="black" points="3963.5,-174.5 3963.5,-195.5 4330.5,-195.5 4330.5,-174.5 3963.5,-174.5"/>
<text text-anchor="middle" x="4147" y="-182.5" font-family="Helvetica,sans-Serif" font-size="10.00">ocra&#45;wbi&#45;plugins/ocra&#45;icub&#45;server/include/ocra&#45;icub&#45;server/IcubControllerServer.h</text>
</a>
</g>
<!-- Node21&#45;&gt;Node22 -->
<g id="edge54" class="edge"><title>Node21&#45;&gt;Node22</title>
<path fill="none" stroke="midnightblue" d="M3532.4,-231.719C3670.27,-221.239 3873.99,-205.753 4008.57,-195.523"/>
<polygon fill="midnightblue" stroke="midnightblue" points="3531.88,-228.249 3522.17,-232.497 3532.41,-235.229 3531.88,-228.249"/>
</g>
<!-- Node29 -->
<g id="node63" class="node"><title>Node29</title>
<a xlink:href="MIQPController_8h.html" target="_top" xlink:title="A thread for launching trajectory generators.">
<polygon fill="white" stroke="black" points="3326,-116.5 3326,-137.5 3724,-137.5 3724,-116.5 3326,-116.5"/>
<text text-anchor="middle" x="3525" y="-124.5" font-family="Helvetica,sans-Serif" font-size="10.00">ocra&#45;wbi&#45;plugins/ocra&#45;icub&#45;clients/walking&#45;client/include/walking&#45;client/MIQPController.h</text>
</a>
</g>
<!-- Node21&#45;&gt;Node29 -->
<g id="edge68" class="edge"><title>Node21&#45;&gt;Node29</title>
<path fill="none" stroke="midnightblue" d="M3384.91,-221.868C3386.62,-206.834 3391.17,-187.064 3403,-174 3419.61,-155.661 3444.19,-144.419 3466.95,-137.554"/>
<polygon fill="midnightblue" stroke="midnightblue" points="3381.39,-222.006 3384.08,-232.252 3388.36,-222.561 3381.39,-222.006"/>
</g>
<!-- Node31 -->
<g id="node68" class="node"><title>Node31</title>
<a xlink:href="MIQPState_8h.html" target="_top" xlink:title="ocra&#45;wbi&#45;plugins/ocra&#45;icub&#45;clients/walking&#45;client/include/walking&#45;client/MIQPState.h">
<polygon fill="white" stroke="black" points="3412,-174.5 3412,-195.5 3792,-195.5 3792,-174.5 3412,-174.5"/>
<text text-anchor="middle" x="3602" y="-182.5" font-family="Helvetica,sans-Serif" font-size="10.00">ocra&#45;wbi&#45;plugins/ocra&#45;icub&#45;clients/walking&#45;client/include/walking&#45;client/MIQPState.h</text>
</a>
</g>
<!-- Node21&#45;&gt;Node31 -->
<g id="edge74" class="edge"><title>Node21&#45;&gt;Node31</title>
<path fill="none" stroke="midnightblue" d="M3433.57,-229.812C3472.6,-219.428 3526.27,-205.149 3562.45,-195.523"/>
<polygon fill="midnightblue" stroke="midnightblue" points="3432.24,-226.543 3423.48,-232.497 3434.04,-233.308 3432.24,-226.543"/>
</g>
<!-- Node33 -->
<g id="node74" class="node"><title>Node33</title>
<a xlink:href="ModelInitializer_8h.html" target="_top" xlink:title="ocra&#45;wbi&#45;plugins/ocra&#45;icub/include/ocra&#45;icub/ModelInitializer.h">
<polygon fill="white" stroke="black" points="2743.5,-174.5 2743.5,-195.5 3026.5,-195.5 3026.5,-174.5 2743.5,-174.5"/>
<text text-anchor="middle" x="2885" y="-182.5" font-family="Helvetica,sans-Serif" font-size="10.00">ocra&#45;wbi&#45;plugins/ocra&#45;icub/include/ocra&#45;icub/ModelInitializer.h</text>
</a>
</g>
<!-- Node21&#45;&gt;Node33 -->
<g id="edge82" class="edge"><title>Node21&#45;&gt;Node33</title>
<path fill="none" stroke="midnightblue" d="M3283.68,-231.34C3193.59,-220.868 3062.49,-205.63 2975.53,-195.523"/>
<polygon fill="midnightblue" stroke="midnightblue" points="3283.3,-234.819 3293.63,-232.497 3284.11,-227.865 3283.3,-234.819"/>
</g>
<!-- Node35 -->
<g id="node79" class="node"><title>Node35</title>
<a xlink:href="OcraWbiModel_8cpp.html" target="_top" xlink:title="Implementation of ocra::Model using wholeBodyInterface.">
<polygon fill="white" stroke="black" points="4347.5,-174.5 4347.5,-195.5 4580.5,-195.5 4580.5,-174.5 4347.5,-174.5"/>
<text text-anchor="middle" x="4464" y="-182.5" font-family="Helvetica,sans-Serif" font-size="10.00">ocra&#45;wbi&#45;plugins/ocra&#45;icub/src/OcraWbiModel.cpp</text>
</a>
</g>
<!-- Node21&#45;&gt;Node35 -->
<g id="edge88" class="edge"><title>Node21&#45;&gt;Node35</title>
<path fill="none" stroke="midnightblue" d="M3535.44,-231.93C3893.21,-211.062 3984.97,-219.483 4339,-196 4341.72,-195.82 4344.47,-195.631 4347.24,-195.435"/>
<polygon fill="midnightblue" stroke="midnightblue" points="3535.09,-228.444 3525.31,-232.524 3535.5,-235.432 3535.09,-228.444"/>
</g>
<!-- Node23 -->
<g id="node51" class="node"><title>Node23</title>
<a xlink:href="Thread_8h.html" target="_top" xlink:title="The thread class for the controller server.">
<polygon fill="white" stroke="black" points="4077,-116.5 4077,-137.5 4385,-137.5 4385,-116.5 4077,-116.5"/>
<text text-anchor="middle" x="4231" y="-124.5" font-family="Helvetica,sans-Serif" font-size="10.00">ocra&#45;wbi&#45;plugins/ocra&#45;icub&#45;server/include/ocra&#45;icub&#45;server/Thread.h</text>
</a>
</g>
<!-- Node22&#45;&gt;Node23 -->
<g id="edge56" class="edge"><title>Node22&#45;&gt;Node23</title>
<path fill="none" stroke="midnightblue" d="M4170.84,-168.541C4185.24,-158.597 4203.17,-146.218 4215.69,-137.571"/>
<polygon fill="midnightblue" stroke="midnightblue" points="4168.65,-165.8 4162.41,-174.362 4172.62,-171.56 4168.65,-165.8"/>
</g>
<!-- Node28 -->
<g id="node61" class="node"><title>Node28</title>
<a xlink:href="IcubControllerServer_8cpp.html" target="_top" xlink:title="ocra&#45;wbi&#45;plugins/ocra&#45;icub&#45;server/src/IcubControllerServer.cpp">
<polygon fill="white" stroke="black" points="4402.5,-116.5 4402.5,-137.5 4689.5,-137.5 4689.5,-116.5 4402.5,-116.5"/>
<text text-anchor="middle" x="4546" y="-124.5" font-family="Helvetica,sans-Serif" font-size="10.00">ocra&#45;wbi&#45;plugins/ocra&#45;icub&#45;server/src/IcubControllerServer.cpp</text>
</a>
</g>
<!-- Node22&#45;&gt;Node28 -->
<g id="edge66" class="edge"><title>Node22&#45;&gt;Node28</title>
<path fill="none" stroke="midnightblue" d="M4229.19,-173.052C4301.16,-162.591 4404.71,-147.538 4473.61,-137.523"/>
<polygon fill="midnightblue" stroke="midnightblue" points="4228.65,-169.594 4219.26,-174.497 4229.66,-176.522 4228.65,-169.594"/>
</g>
<!-- Node24 -->
<g id="node53" class="node"><title>Node24</title>
<a xlink:href="Module_8h.html" target="_top" xlink:title="Module class for the controller server.">
<polygon fill="white" stroke="black" points="4102.5,-58.5 4102.5,-79.5 4411.5,-79.5 4411.5,-58.5 4102.5,-58.5"/>
<text text-anchor="middle" x="4257" y="-66.5" font-family="Helvetica,sans-Serif" font-size="10.00">ocra&#45;wbi&#45;plugins/ocra&#45;icub&#45;server/include/ocra&#45;icub&#45;server/Module.h</text>
</a>
</g>
<!-- Node23&#45;&gt;Node24 -->
<g id="edge58" class="edge"><title>Node23&#45;&gt;Node24</title>
<path fill="none" stroke="midnightblue" d="M4239.93,-107.079C4244.07,-97.8422 4248.82,-87.2388 4252.26,-79.5707"/>
<polygon fill="midnightblue" stroke="midnightblue" points="4236.67,-105.805 4235.77,-116.362 4243.05,-108.669 4236.67,-105.805"/>
</g>
<!-- Node27 -->
<g id="node59" class="node"><title>Node27</title>
<a xlink:href="Thread_8cpp.html" target="_top" xlink:title="The thread class for the controller server.">
<polygon fill="white" stroke="black" points="4429,-58.5 4429,-79.5 4657,-79.5 4657,-58.5 4429,-58.5"/>
<text text-anchor="middle" x="4543" y="-66.5" font-family="Helvetica,sans-Serif" font-size="10.00">ocra&#45;wbi&#45;plugins/ocra&#45;icub&#45;server/src/Thread.cpp</text>
</a>
</g>
<!-- Node23&#45;&gt;Node27 -->
<g id="edge64" class="edge"><title>Node23&#45;&gt;Node27</title>
<path fill="none" stroke="midnightblue" d="M4297.35,-114.665C4353.53,-104.222 4433.18,-89.415 4486.39,-79.5231"/>
<polygon fill="midnightblue" stroke="midnightblue" points="4296.69,-111.228 4287.5,-116.497 4297.97,-118.11 4296.69,-111.228"/>
</g>
<!-- Node25 -->
<g id="node55" class="node"><title>Node25</title>
<a xlink:href="ocra-icub-server_2src_2main_8cpp.html" target="_top" xlink:title="ocra&#45;wbi&#45;plugins/ocra&#45;icub&#45;server/src/main.cpp">
<polygon fill="white" stroke="black" points="4165.5,-0.5 4165.5,-21.5 4384.5,-21.5 4384.5,-0.5 4165.5,-0.5"/>
<text text-anchor="middle" x="4275" y="-8.5" font-family="Helvetica,sans-Serif" font-size="10.00">ocra&#45;wbi&#45;plugins/ocra&#45;icub&#45;server/src/main.cpp</text>
</a>
</g>
<!-- Node24&#45;&gt;Node25 -->
<g id="edge60" class="edge"><title>Node24&#45;&gt;Node25</title>
<path fill="none" stroke="midnightblue" d="M4263.27,-48.7838C4266.12,-39.617 4269.37,-29.1572 4271.72,-21.5707"/>
<polygon fill="midnightblue" stroke="midnightblue" points="4259.92,-47.7738 4260.3,-58.3619 4266.61,-49.8487 4259.92,-47.7738"/>
</g>
<!-- Node26 -->
<g id="node57" class="node"><title>Node26</title>
<a xlink:href="Module_8cpp.html" target="_top" xlink:title="ocra&#45;wbi&#45;plugins/ocra&#45;icub&#45;server/src/Module.cpp">
<polygon fill="white" stroke="black" points="4402,-0.5 4402,-21.5 4632,-21.5 4632,-0.5 4402,-0.5"/>
<text text-anchor="middle" x="4517" y="-8.5" font-family="Helvetica,sans-Serif" font-size="10.00">ocra&#45;wbi&#45;plugins/ocra&#45;icub&#45;server/src/Module.cpp</text>
</a>
</g>
<!-- Node24&#45;&gt;Node26 -->
<g id="edge62" class="edge"><title>Node24&#45;&gt;Node26</title>
<path fill="none" stroke="midnightblue" d="M4314.05,-56.2737C4360.75,-45.8548 4426.04,-31.2921 4469.83,-21.5231"/>
<polygon fill="midnightblue" stroke="midnightblue" points="4313.08,-52.9033 4304.08,-58.4966 4314.61,-59.7353 4313.08,-52.9033"/>
</g>
<!-- Node29&#45;&gt;Node18 -->
<g id="edge70" class="edge"><title>Node29&#45;&gt;Node18</title>
<path fill="none" stroke="midnightblue" d="M3525,-106.191C3525,-97.1684 3525,-86.9941 3525,-79.5707"/>
<polygon fill="midnightblue" stroke="midnightblue" points="3521.5,-106.362 3525,-116.362 3528.5,-106.362 3521.5,-106.362"/>
</g>
<!-- Node30 -->
<g id="node66" class="node"><title>Node30</title>
<a xlink:href="MIQPController_8cpp.html" target="_top" xlink:title="ocra&#45;wbi&#45;plugins/ocra&#45;icub&#45;clients/walking&#45;client/src/MIQPController.cpp">
<polygon fill="white" stroke="black" points="3738.5,-58.5 3738.5,-79.5 4067.5,-79.5 4067.5,-58.5 3738.5,-58.5"/>
<text text-anchor="middle" x="3903" y="-66.5" font-family="Helvetica,sans-Serif" font-size="10.00">ocra&#45;wbi&#45;plugins/ocra&#45;icub&#45;clients/walking&#45;client/src/MIQPController.cpp</text>
</a>
</g>
<!-- Node29&#45;&gt;Node30 -->
<g id="edge72" class="edge"><title>Node29&#45;&gt;Node30</title>
<path fill="none" stroke="midnightblue" d="M3603.71,-114.923C3671.85,-104.468 3769.42,-89.4969 3834.42,-79.5231"/>
<polygon fill="midnightblue" stroke="midnightblue" points="3602.81,-111.52 3593.45,-116.497 3603.87,-118.439 3602.81,-111.52"/>
</g>
<!-- Node31&#45;&gt;Node29 -->
<g id="edge76" class="edge"><title>Node31&#45;&gt;Node29</title>
<path fill="none" stroke="midnightblue" d="M3579.77,-168.259C3566.64,-158.364 3550.4,-146.136 3539.03,-137.571"/>
<polygon fill="midnightblue" stroke="midnightblue" points="3577.78,-171.141 3587.88,-174.362 3582,-165.55 3577.78,-171.141"/>
</g>
<!-- Node32 -->
<g id="node71" class="node"><title>Node32</title>
<a xlink:href="MIQPState_8cpp.html" target="_top" xlink:title="ocra&#45;wbi&#45;plugins/ocra&#45;icub&#45;clients/walking&#45;client/src/MIQPState.cpp">
<polygon fill="white" stroke="black" points="3741.5,-116.5 3741.5,-137.5 4052.5,-137.5 4052.5,-116.5 3741.5,-116.5"/>
<text text-anchor="middle" x="3897" y="-124.5" font-family="Helvetica,sans-Serif" font-size="10.00">ocra&#45;wbi&#45;plugins/ocra&#45;icub&#45;clients/walking&#45;client/src/MIQPState.cpp</text>
</a>
</g>
<!-- Node31&#45;&gt;Node32 -->
<g id="edge78" class="edge"><title>Node31&#45;&gt;Node32</title>
<path fill="none" stroke="midnightblue" d="M3665.4,-172.535C3718.48,-162.099 3793.37,-147.374 3843.48,-137.523"/>
<polygon fill="midnightblue" stroke="midnightblue" points="3664.56,-169.133 3655.42,-174.497 3665.91,-176.002 3664.56,-169.133"/>
</g>
<!-- Node33&#45;&gt;Node2 -->
<g id="edge84" class="edge"><title>Node33&#45;&gt;Node2</title>
<path fill="none" stroke="midnightblue" d="M2791.71,-173.212C2708.88,-162.745 2588.94,-147.589 2509.28,-137.523"/>
<polygon fill="midnightblue" stroke="midnightblue" points="2791.52,-176.715 2801.88,-174.497 2792.4,-169.771 2791.52,-176.715"/>
</g>
<!-- Node34 -->
<g id="node77" class="node"><title>Node34</title>
<a xlink:href="ModelInitializer_8cpp.html" target="_top" xlink:title="ocra&#45;wbi&#45;plugins/ocra&#45;icub/src/ModelInitializer.cpp">
<polygon fill="white" stroke="black" points="2768.5,-116.5 2768.5,-137.5 3001.5,-137.5 3001.5,-116.5 2768.5,-116.5"/>
<text text-anchor="middle" x="2885" y="-124.5" font-family="Helvetica,sans-Serif" font-size="10.00">ocra&#45;wbi&#45;plugins/ocra&#45;icub/src/ModelInitializer.cpp</text>
</a>
</g>
<!-- Node33&#45;&gt;Node34 -->
<g id="edge86" class="edge"><title>Node33&#45;&gt;Node34</title>
<path fill="none" stroke="midnightblue" d="M2885,-164.191C2885,-155.168 2885,-144.994 2885,-137.571"/>
<polygon fill="midnightblue" stroke="midnightblue" points="2881.5,-164.362 2885,-174.362 2888.5,-164.362 2881.5,-164.362"/>
</g>
</g>
</svg>
