<?xml version="1.0" encoding="UTF-8" standalone="no"?>
<!DOCTYPE svg PUBLIC "-//W3C//DTD SVG 1.1//EN"
 "http://www.w3.org/Graphics/SVG/1.1/DTD/svg11.dtd">
<!-- Generated by graphviz version 2.26.3 (20100126.1600)
 -->
<!-- Title: G Pages: 1 -->
<svg width="2584pt" height="436pt"
 viewBox="0.00 0.00 2584.00 436.00" xmlns="http://www.w3.org/2000/svg" xmlns:xlink="http://www.w3.org/1999/xlink">
<g id="graph1" class="graph" transform="scale(1 1) rotate(0) translate(4 432)">
<title>G</title>
<polygon fill="white" stroke="white" points="-4,5 -4,-432 2581,-432 2581,5 -4,5"/>
<!-- Node1 -->
<g id="node1" class="node"><title>Node1</title>
<polygon fill="#bfbfbf" stroke="black" points="838.5,-406.5 838.5,-427.5 1121.5,-427.5 1121.5,-406.5 838.5,-406.5"/>
<text text-anchor="middle" x="980" y="-414.5" font-family="Helvetica,sans-Serif" font-size="10.00">ocra&#45;wbi&#45;plugins/ocra&#45;icub&#45;clients/walking&#45;client/src/main.cpp</text>
</g>
<!-- Node2 -->
<g id="node3" class="node"><title>Node2</title>
<polygon fill="white" stroke="#bfbfbf" points="217.5,-0.5 217.5,-21.5 346.5,-21.5 346.5,-0.5 217.5,-0.5"/>
<text text-anchor="middle" x="282" y="-8.5" font-family="Helvetica,sans-Serif" font-size="10.00">yarp/os/ResourceFinder.h</text>
</g>
<!-- Node1&#45;&gt;Node2 -->
<g id="edge2" class="edge"><title>Node1&#45;&gt;Node2</title>
<path fill="none" stroke="midnightblue" d="M898.611,-406.463C717.705,-381.134 291.926,-310.326 213,-196 175.499,-141.678 233.454,-64.4047 264.48,-29.4432"/>
<polygon fill="midnightblue" stroke="midnightblue" points="267.218,-31.6357 271.36,-21.8842 262.041,-26.924 267.218,-31.6357"/>
</g>
<!-- Node3 -->
<g id="node5" class="node"><title>Node3</title>
<polygon fill="white" stroke="#bfbfbf" points="221.5,-174.5 221.5,-195.5 318.5,-195.5 318.5,-174.5 221.5,-174.5"/>
<text text-anchor="middle" x="270" y="-182.5" font-family="Helvetica,sans-Serif" font-size="10.00">yarp/os/Network.h</text>
</g>
<!-- Node1&#45;&gt;Node3 -->
<g id="edge4" class="edge"><title>Node1&#45;&gt;Node3</title>
<path fill="none" stroke="midnightblue" d="M907.083,-406.453C788.982,-387.467 550.485,-341.155 366,-254 337.193,-240.391 308.024,-217.917 289.524,-202.332"/>
<polygon fill="midnightblue" stroke="midnightblue" points="291.682,-199.571 281.815,-195.713 287.122,-204.882 291.682,-199.571"/>
</g>
<!-- Node4 -->
<g id="node7" class="node"><title>Node4</title>
<polygon fill="white" stroke="#bfbfbf" points="124,-0.5 124,-21.5 200,-21.5 200,-0.5 124,-0.5"/>
<text text-anchor="middle" x="162" y="-8.5" font-family="Helvetica,sans-Serif" font-size="10.00">yarp/os/Log.h</text>
</g>
<!-- Node1&#45;&gt;Node4 -->
<g id="edge6" class="edge"><title>Node1&#45;&gt;Node4</title>
<path fill="none" stroke="midnightblue" d="M838.349,-411.258C602.756,-399.794 156,-369.08 156,-301 156,-301 156,-301 156,-127 156,-93.5531 158.519,-54.7539 160.292,-31.5773"/>
<polygon fill="midnightblue" stroke="midnightblue" points="163.786,-31.7924 161.089,-21.5467 156.808,-31.2382 163.786,-31.7924"/>
</g>
<!-- Node5 -->
<g id="node9" class="node"><title>Node5</title>
<polygon fill="white" stroke="#bfbfbf" points="-0.5,-0.5 -0.5,-21.5 106.5,-21.5 106.5,-0.5 -0.5,-0.5"/>
<text text-anchor="middle" x="53" y="-8.5" font-family="Helvetica,sans-Serif" font-size="10.00">yarp/os/LogStream.h</text>
</g>
<!-- Node1&#45;&gt;Node5 -->
<g id="edge8" class="edge"><title>Node1&#45;&gt;Node5</title>
<path fill="none" stroke="midnightblue" d="M838.462,-414.05C655.438,-409.196 347.107,-397.202 237,-370 164.189,-352.012 83,-376.001 83,-301 83,-301 83,-301 83,-127 83,-92.3655 70.3098,-53.714 61.4365,-30.9214"/>
<polygon fill="midnightblue" stroke="midnightblue" points="64.677,-29.5987 57.6875,-21.6365 58.1862,-32.2196 64.677,-29.5987"/>
</g>
<!-- Node6 -->
<g id="node11" class="node"><title>Node6</title>
<polygon fill="white" stroke="#bfbfbf" points="2494,-0.5 2494,-21.5 2576,-21.5 2576,-0.5 2494,-0.5"/>
<text text-anchor="middle" x="2535" y="-8.5" font-family="Helvetica,sans-Serif" font-size="10.00">yarp/os/Time.h</text>
</g>
<!-- Node1&#45;&gt;Node6 -->
<g id="edge10" class="edge"><title>Node1&#45;&gt;Node6</title>
<path fill="none" stroke="midnightblue" d="M1121.61,-412.407C1350.42,-404.598 1791.5,-387.838 1947,-370 2099.32,-352.527 2285,-454.32 2285,-301 2285,-301 2285,-301 2285,-127 2285,-83.5298 2410.95,-43.3288 2484.05,-23.6559"/>
<polygon fill="midnightblue" stroke="midnightblue" points="2485.23,-26.9647 2494,-21.018 2483.43,-20.1986 2485.23,-26.9647"/>
</g>
<!-- Node7 -->
<g id="node13" class="node"><title>Node7</title>
<a xlink:href="IcubClient_8h.html" target="_top" xlink:title="ocra&#45;icub/IcubClient.h">
<polygon fill="white" stroke="black" points="924,-290.5 924,-311.5 1036,-311.5 1036,-290.5 924,-290.5"/>
<text text-anchor="middle" x="980" y="-298.5" font-family="Helvetica,sans-Serif" font-size="10.00">ocra&#45;icub/IcubClient.h</text>
</a>
</g>
<!-- Node1&#45;&gt;Node7 -->
<g id="edge12" class="edge"><title>Node1&#45;&gt;Node7</title>
<path fill="none" stroke="midnightblue" d="M980,-406.295C980,-387.131 980,-346.654 980,-321.843"/>
<polygon fill="midnightblue" stroke="midnightblue" points="983.5,-321.679 980,-311.679 976.5,-321.679 983.5,-321.679"/>
</g>
<!-- Node35 -->
<g id="node92" class="node"><title>Node35</title>
<polygon fill="white" stroke="#bfbfbf" points="2108.5,-290.5 2108.5,-311.5 2257.5,-311.5 2257.5,-290.5 2108.5,-290.5"/>
<text text-anchor="middle" x="2183" y="-298.5" font-family="Helvetica,sans-Serif" font-size="10.00">ocra&#45;recipes/ControllerClient.h</text>
</g>
<!-- Node1&#45;&gt;Node35 -->
<g id="edge114" class="edge"><title>Node1&#45;&gt;Node35</title>
<path fill="none" stroke="midnightblue" d="M1121.66,-412.421C1335.87,-405.006 1732.16,-389.244 1873,-370 1966.99,-357.158 2074.66,-330.412 2135.17,-314.252"/>
<polygon fill="midnightblue" stroke="midnightblue" points="2136.44,-317.535 2145.19,-311.558 2134.62,-310.775 2136.44,-317.535"/>
</g>
<!-- Node36 -->
<g id="node94" class="node"><title>Node36</title>
<polygon fill="white" stroke="#bfbfbf" points="2313,-348.5 2313,-369.5 2457,-369.5 2457,-348.5 2313,-348.5"/>
<text text-anchor="middle" x="2385" y="-356.5" font-family="Helvetica,sans-Serif" font-size="10.00">ocra&#45;recipes/ClientManager.h</text>
</g>
<!-- Node1&#45;&gt;Node36 -->
<g id="edge116" class="edge"><title>Node1&#45;&gt;Node36</title>
<path fill="none" stroke="midnightblue" d="M1121.76,-413.593C1413.81,-406.305 2073.97,-388.361 2299,-370 2300.27,-369.897 2301.54,-369.788 2302.83,-369.675"/>
<polygon fill="midnightblue" stroke="midnightblue" points="2303.17,-373.159 2312.79,-368.724 2302.5,-366.19 2303.17,-373.159"/>
</g>
<!-- Node37 -->
<g id="node96" class="node"><title>Node37</title>
<a xlink:href="WalkingClient_8h.html" target="_top" xlink:title="walking&#45;client/WalkingClient.h">
<polygon fill="white" stroke="black" points="1716,-348.5 1716,-369.5 1864,-369.5 1864,-348.5 1716,-348.5"/>
<text text-anchor="middle" x="1790" y="-356.5" font-family="Helvetica,sans-Serif" font-size="10.00">walking&#45;client/WalkingClient.h</text>
</a>
</g>
<!-- Node1&#45;&gt;Node37 -->
<g id="edge118" class="edge"><title>Node1&#45;&gt;Node37</title>
<path fill="none" stroke="midnightblue" d="M1121.55,-406.864C1290.45,-394.77 1567.32,-374.945 1705.72,-365.035"/>
<polygon fill="midnightblue" stroke="midnightblue" points="1706.12,-368.515 1715.84,-364.31 1705.62,-361.533 1706.12,-368.515"/>
</g>
<!-- Node8 -->
<g id="node15" class="node"><title>Node8</title>
<a xlink:href="ModelInitializer_8h.html" target="_top" xlink:title="ocra&#45;icub/ModelInitializer.h">
<polygon fill="white" stroke="black" points="374.5,-232.5 374.5,-253.5 507.5,-253.5 507.5,-232.5 374.5,-232.5"/>
<text text-anchor="middle" x="441" y="-240.5" font-family="Helvetica,sans-Serif" font-size="10.00">ocra&#45;icub/ModelInitializer.h</text>
</a>
</g>
<!-- Node7&#45;&gt;Node8 -->
<g id="edge14" class="edge"><title>Node7&#45;&gt;Node8</title>
<path fill="none" stroke="midnightblue" d="M923.843,-294.957C826.838,-284.519 627.755,-263.096 517.945,-251.28"/>
<polygon fill="midnightblue" stroke="midnightblue" points="518.245,-247.792 507.928,-250.202 517.496,-254.752 518.245,-247.792"/>
</g>
<!-- Node9 -->
<g id="node17" class="node"><title>Node9</title>
<a xlink:href="OcraWbiModel_8h.html" target="_top" xlink:title="Implementation of ocra::Model using wholeBodyInterface.">
<polygon fill="white" stroke="black" points="666,-174.5 666,-195.5 798,-195.5 798,-174.5 666,-174.5"/>
<text text-anchor="middle" x="732" y="-182.5" font-family="Helvetica,sans-Serif" font-size="10.00">ocra&#45;icub/OcraWbiModel.h</text>
</a>
</g>
<!-- Node7&#45;&gt;Node9 -->
<g id="edge110" class="edge"><title>Node7&#45;&gt;Node9</title>
<path fill="none" stroke="midnightblue" d="M957.113,-290.295C912.616,-269.482 814.368,-223.527 763.658,-199.808"/>
<polygon fill="midnightblue" stroke="midnightblue" points="765.014,-196.578 754.473,-195.512 762.048,-202.919 765.014,-196.578"/>
</g>
<!-- Node13 -->
<g id="node26" class="node"><title>Node13</title>
<a xlink:href="OcraWbiConversions_8h.html" target="_top" xlink:title="A utility class full of static conversion functions.">
<polygon fill="white" stroke="black" points="899.5,-116.5 899.5,-137.5 1060.5,-137.5 1060.5,-116.5 899.5,-116.5"/>
<text text-anchor="middle" x="980" y="-124.5" font-family="Helvetica,sans-Serif" font-size="10.00">ocra&#45;icub/OcraWbiConversions.h</text>
</a>
</g>
<!-- Node7&#45;&gt;Node13 -->
<g id="edge108" class="edge"><title>Node7&#45;&gt;Node13</title>
<path fill="none" stroke="midnightblue" d="M980,-290.377C980,-262.293 980,-185.673 980,-148.203"/>
<polygon fill="midnightblue" stroke="midnightblue" points="983.5,-147.928 980,-137.928 976.5,-147.928 983.5,-147.928"/>
</g>
<!-- Node19 -->
<g id="node40" class="node"><title>Node19</title>
<a xlink:href="Utilities_8h.html" target="_top" xlink:title="Some useful tools for the ocra&#45;icub lib.">
<polygon fill="white" stroke="black" points="1170.5,-58.5 1170.5,-79.5 1271.5,-79.5 1271.5,-58.5 1170.5,-58.5"/>
<text text-anchor="middle" x="1221" y="-66.5" font-family="Helvetica,sans-Serif" font-size="10.00">ocra&#45;icub/Utilities.h</text>
</a>
</g>
<!-- Node7&#45;&gt;Node19 -->
<g id="edge112" class="edge"><title>Node7&#45;&gt;Node19</title>
<path fill="none" stroke="midnightblue" d="M990.982,-290.429C1028.93,-253.893 1154.84,-132.691 1202.5,-86.8092"/>
<polygon fill="midnightblue" stroke="midnightblue" points="1205.18,-89.0903 1209.95,-79.6335 1200.32,-84.0473 1205.18,-89.0903"/>
</g>
<!-- Node8&#45;&gt;Node3 -->
<g id="edge102" class="edge"><title>Node8&#45;&gt;Node3</title>
<path fill="none" stroke="midnightblue" d="M410.033,-232.497C382.156,-223.041 341.003,-209.083 310.518,-198.743"/>
<polygon fill="midnightblue" stroke="midnightblue" points="311.619,-195.421 301.025,-195.523 309.371,-202.05 311.619,-195.421"/>
</g>
<!-- Node8&#45;&gt;Node4 -->
<g id="edge106" class="edge"><title>Node8&#45;&gt;Node4</title>
<path fill="none" stroke="midnightblue" d="M434.601,-232.188C415.569,-200.893 356.131,-109.213 284,-58 261.814,-42.248 233.655,-30.9425 209.981,-23.3731"/>
<polygon fill="midnightblue" stroke="midnightblue" points="210.727,-19.9411 200.141,-20.3558 208.675,-26.6336 210.727,-19.9411"/>
</g>
<!-- Node8&#45;&gt;Node5 -->
<g id="edge104" class="edge"><title>Node8&#45;&gt;Node5</title>
<path fill="none" stroke="midnightblue" d="M423.643,-232.438C401.315,-218.864 361.318,-194.593 327,-174 236.487,-119.686 128.771,-55.8368 79.7147,-26.8009"/>
<polygon fill="midnightblue" stroke="midnightblue" points="81.3695,-23.7133 70.9809,-21.6326 77.8045,-29.7375 81.3695,-23.7133"/>
</g>
<!-- Node8&#45;&gt;Node9 -->
<g id="edge16" class="edge"><title>Node8&#45;&gt;Node9</title>
<path fill="none" stroke="midnightblue" d="M493.698,-232.497C543.09,-222.652 616.969,-207.927 669.355,-197.486"/>
<polygon fill="midnightblue" stroke="midnightblue" points="670.08,-200.91 679.203,-195.523 668.712,-194.045 670.08,-200.91"/>
</g>
<!-- Node11 -->
<g id="node21" class="node"><title>Node11</title>
<polygon fill="white" stroke="#bfbfbf" points="363.5,-0.5 363.5,-21.5 468.5,-21.5 468.5,-0.5 363.5,-0.5"/>
<text text-anchor="middle" x="416" y="-8.5" font-family="Helvetica,sans-Serif" font-size="10.00">ocra/control/Model.h</text>
</g>
<!-- Node8&#45;&gt;Node11 -->
<g id="edge96" class="edge"><title>Node8&#45;&gt;Node11</title>
<path fill="none" stroke="midnightblue" d="M439.861,-232.429C436.005,-196.648 423.399,-79.6628 418.236,-31.7481"/>
<polygon fill="midnightblue" stroke="midnightblue" points="421.697,-31.2009 417.146,-21.6335 414.737,-31.951 421.697,-31.2009"/>
</g>
<!-- Node18 -->
<g id="node38" class="node"><title>Node18</title>
<polygon fill="white" stroke="#bfbfbf" points="564,-58.5 564,-79.5 806,-79.5 806,-58.5 564,-58.5"/>
<text text-anchor="middle" x="685" y="-66.5" font-family="Helvetica,sans-Serif" font-size="10.00">yarpWholeBodyInterface/yarpWholeBodyInterface.h</text>
</g>
<!-- Node8&#45;&gt;Node18 -->
<g id="edge98" class="edge"><title>Node8&#45;&gt;Node18</title>
<path fill="none" stroke="midnightblue" d="M455.896,-232.377C496.989,-203.073 612.182,-120.927 661.792,-85.5496"/>
<polygon fill="midnightblue" stroke="midnightblue" points="663.879,-88.3604 669.989,-79.7046 659.815,-82.6611 663.879,-88.3604"/>
</g>
<!-- Node27 -->
<g id="node60" class="node"><title>Node27</title>
<polygon fill="white" stroke="#bfbfbf" points="486,-0.5 486,-21.5 590,-21.5 590,-0.5 486,-0.5"/>
<text text-anchor="middle" x="538" y="-8.5" font-family="Helvetica,sans-Serif" font-size="10.00">yarp/os/RpcClient.h</text>
</g>
<!-- Node8&#45;&gt;Node27 -->
<g id="edge100" class="edge"><title>Node8&#45;&gt;Node27</title>
<path fill="none" stroke="midnightblue" d="M445.42,-232.429C460.443,-196.497 509.705,-78.6742 529.577,-31.1453"/>
<polygon fill="midnightblue" stroke="midnightblue" points="532.926,-32.2097 533.554,-21.6335 526.467,-29.5094 532.926,-32.2097"/>
</g>
<!-- Node9&#45;&gt;Node4 -->
<g id="edge24" class="edge"><title>Node9&#45;&gt;Node4</title>
<path fill="none" stroke="midnightblue" d="M682.928,-174.473C644.11,-165.775 588.693,-152.532 541,-138 441.875,-107.797 420.43,-90.3974 322,-58 284.654,-45.7078 241.905,-33.231 209.995,-24.2245"/>
<polygon fill="midnightblue" stroke="midnightblue" points="210.61,-20.7618 200.036,-21.4268 208.717,-27.501 210.61,-20.7618"/>
</g>
<!-- Node10 -->
<g id="node19" class="node"><title>Node10</title>
<polygon fill="white" stroke="#bfbfbf" points="684,-0.5 684,-21.5 736,-21.5 736,-0.5 684,-0.5"/>
<text text-anchor="middle" x="710" y="-8.5" font-family="Helvetica,sans-Serif" font-size="10.00">memory</text>
</g>
<!-- Node9&#45;&gt;Node10 -->
<g id="edge18" class="edge"><title>Node9&#45;&gt;Node10</title>
<path fill="none" stroke="midnightblue" d="M748.167,-174.481C779.507,-152.754 843.074,-101.325 815,-58 806.947,-45.5728 772.992,-31.7724 745.845,-22.3595"/>
<polygon fill="midnightblue" stroke="midnightblue" points="746.807,-18.9899 736.212,-19.1008 744.563,-25.6208 746.807,-18.9899"/>
</g>
<!-- Node9&#45;&gt;Node11 -->
<g id="edge20" class="edge"><title>Node9&#45;&gt;Node11</title>
<path fill="none" stroke="midnightblue" d="M682.331,-174.438C651.751,-166.788 612.35,-154.818 580,-138 521.588,-107.634 462.969,-55.8733 434.226,-28.7594"/>
<polygon fill="midnightblue" stroke="midnightblue" points="436.587,-26.1748 426.936,-21.8037 431.755,-31.2393 436.587,-26.1748"/>
</g>
<!-- Node12 -->
<g id="node23" class="node"><title>Node12</title>
<polygon fill="white" stroke="#bfbfbf" points="608,-0.5 608,-21.5 666,-21.5 666,-0.5 608,-0.5"/>
<text text-anchor="middle" x="637" y="-8.5" font-family="Helvetica,sans-Serif" font-size="10.00">wbi/wbi.h</text>
</g>
<!-- Node9&#45;&gt;Node12 -->
<g id="edge22" class="edge"><title>Node9&#45;&gt;Node12</title>
<path fill="none" stroke="midnightblue" d="M693.02,-174.427C650.457,-160.561 584.44,-131.694 555,-80 541.369,-56.0647 570.927,-36.7372 598.28,-24.6929"/>
<polygon fill="midnightblue" stroke="midnightblue" points="599.898,-27.8107 607.789,-20.7408 597.211,-21.3468 599.898,-27.8107"/>
</g>
<!-- Node9&#45;&gt;Node13 -->
<g id="edge26" class="edge"><title>Node9&#45;&gt;Node13</title>
<path fill="none" stroke="midnightblue" d="M776.911,-174.497C818.567,-164.755 880.66,-150.233 925.213,-139.813"/>
<polygon fill="midnightblue" stroke="midnightblue" points="926.065,-143.208 935.005,-137.523 924.471,-136.392 926.065,-143.208"/>
</g>
<!-- Node9&#45;&gt;Node19 -->
<g id="edge94" class="edge"><title>Node9&#45;&gt;Node19</title>
<path fill="none" stroke="midnightblue" d="M798.086,-181.404C866.893,-176.366 977.233,-164.622 1069,-138 1114.46,-124.813 1163.78,-100.367 1193.53,-84.3962"/>
<polygon fill="midnightblue" stroke="midnightblue" points="1195.36,-87.3854 1202.48,-79.5337 1192.02,-81.2357 1195.36,-87.3854"/>
</g>
<!-- Node13&#45;&gt;Node4 -->
<g id="edge36" class="edge"><title>Node13&#45;&gt;Node4</title>
<path fill="none" stroke="midnightblue" d="M942.867,-116.468C915.849,-108.167 878.766,-95.4363 848,-80 832.245,-72.0951 831.712,-63.6063 815,-58 690.098,-16.0997 358.53,-40.2449 210.454,-21.8908"/>
<polygon fill="midnightblue" stroke="midnightblue" points="210.494,-18.3644 200.115,-20.4943 209.557,-25.3014 210.494,-18.3644"/>
</g>
<!-- Node13&#45;&gt;Node12 -->
<g id="edge38" class="edge"><title>Node13&#45;&gt;Node12</title>
<path fill="none" stroke="midnightblue" d="M963.187,-116.258C938.754,-101.11 891.584,-73.5851 848,-58 777.083,-32.6412 753.179,-40.2238 676.53,-22.2078"/>
<polygon fill="midnightblue" stroke="midnightblue" points="676.941,-18.7062 666.398,-19.7511 675.292,-25.509 676.941,-18.7062"/>
</g>
<!-- Node14 -->
<g id="node28" class="node"><title>Node14</title>
<polygon fill="white" stroke="#bfbfbf" points="862,-0.5 862,-21.5 916,-21.5 916,-0.5 862,-0.5"/>
<text text-anchor="middle" x="889" y="-8.5" font-family="Helvetica,sans-Serif" font-size="10.00">iostream</text>
</g>
<!-- Node13&#45;&gt;Node14 -->
<g id="edge28" class="edge"><title>Node13&#45;&gt;Node14</title>
<path fill="none" stroke="midnightblue" d="M992.053,-116.419C1006.53,-102.403 1027.3,-77.2146 1014,-58 1008.71,-50.3663 961.101,-33.8835 926.201,-22.6148"/>
<polygon fill="midnightblue" stroke="midnightblue" points="926.881,-19.1577 916.29,-19.4437 924.748,-25.8248 926.881,-19.1577"/>
</g>
<!-- Node15 -->
<g id="node30" class="node"><title>Node15</title>
<polygon fill="white" stroke="#bfbfbf" points="937.5,-58.5 937.5,-79.5 972.5,-79.5 972.5,-58.5 937.5,-58.5"/>
<text text-anchor="middle" x="955" y="-66.5" font-family="Helvetica,sans-Serif" font-size="10.00">map</text>
</g>
<!-- Node13&#45;&gt;Node15 -->
<g id="edge30" class="edge"><title>Node13&#45;&gt;Node15</title>
<path fill="none" stroke="midnightblue" d="M975.415,-116.362C972.102,-108.677 967.53,-98.0686 963.552,-88.8399"/>
<polygon fill="midnightblue" stroke="midnightblue" points="966.729,-87.3685 959.556,-79.5707 960.301,-90.1393 966.729,-87.3685"/>
</g>
<!-- Node16 -->
<g id="node32" class="node"><title>Node16</title>
<polygon fill="white" stroke="#bfbfbf" points="2342,-0.5 2342,-21.5 2386,-21.5 2386,-0.5 2342,-0.5"/>
<text text-anchor="middle" x="2364" y="-8.5" font-family="Helvetica,sans-Serif" font-size="10.00">vector</text>
</g>
<!-- Node13&#45;&gt;Node16 -->
<g id="edge32" class="edge"><title>Node13&#45;&gt;Node16</title>
<path fill="none" stroke="midnightblue" d="M1060.59,-117.97C1121.39,-110.292 1206.58,-97.6822 1280,-80 1310.47,-72.6616 1316.15,-63.5149 1347,-58 1775.41,18.5769 1900.38,-102.416 2331.95,-21.6447"/>
<polygon fill="midnightblue" stroke="midnightblue" points="2332.7,-25.064 2341.87,-19.7614 2331.4,-18.1867 2332.7,-25.064"/>
</g>
<!-- Node17 -->
<g id="node34" class="node"><title>Node17</title>
<polygon fill="white" stroke="#bfbfbf" points="753.5,-0.5 753.5,-21.5 844.5,-21.5 844.5,-0.5 753.5,-0.5"/>
<text text-anchor="middle" x="799" y="-8.5" font-family="Helvetica,sans-Serif" font-size="10.00">yarp/sig/Vector.h</text>
</g>
<!-- Node13&#45;&gt;Node17 -->
<g id="edge34" class="edge"><title>Node13&#45;&gt;Node17</title>
<path fill="none" stroke="midnightblue" d="M983.859,-116.382C988.474,-101.632 994.059,-74.8593 981,-58 976.999,-52.8344 906.754,-35.7329 854.728,-23.6542"/>
<polygon fill="midnightblue" stroke="midnightblue" points="855.449,-20.2289 844.918,-21.386 853.872,-27.0489 855.449,-20.2289"/>
</g>
<!-- Node13&#45;&gt;Node18 -->
<g id="edge40" class="edge"><title>Node13&#45;&gt;Node18</title>
<path fill="none" stroke="midnightblue" d="M926.578,-116.497C876.507,-106.652 801.612,-91.9272 748.506,-81.486"/>
<polygon fill="midnightblue" stroke="midnightblue" points="749.01,-78.0181 738.522,-79.5231 747.659,-84.8866 749.01,-78.0181"/>
</g>
<!-- Node13&#45;&gt;Node19 -->
<g id="edge42" class="edge"><title>Node13&#45;&gt;Node19</title>
<path fill="none" stroke="midnightblue" d="M1023.64,-116.497C1064.04,-106.775 1124.21,-92.2938 1167.49,-81.8787"/>
<polygon fill="midnightblue" stroke="midnightblue" points="1168.37,-85.2658 1177.27,-79.5231 1166.73,-78.4601 1168.37,-85.2658"/>
</g>
<!-- Node19&#45;&gt;Node2 -->
<g id="edge62" class="edge"><title>Node19&#45;&gt;Node2</title>
<path fill="none" stroke="midnightblue" d="M1170.4,-66.5366C1003.02,-58.3491 471.72,-32.0466 356.895,-22.042"/>
<polygon fill="midnightblue" stroke="midnightblue" points="357.121,-18.548 346.838,-21.098 356.467,-25.5173 357.121,-18.548"/>
</g>
<!-- Node19&#45;&gt;Node4 -->
<g id="edge74" class="edge"><title>Node19&#45;&gt;Node4</title>
<path fill="none" stroke="midnightblue" d="M1170.45,-66.6833C978.687,-57.8906 302.615,-26.858 210.345,-21.2781"/>
<polygon fill="midnightblue" stroke="midnightblue" points="210.336,-17.7684 200.109,-20.5363 209.83,-24.7501 210.336,-17.7684"/>
</g>
<!-- Node19&#45;&gt;Node5 -->
<g id="edge76" class="edge"><title>Node19&#45;&gt;Node5</title>
<path fill="none" stroke="midnightblue" d="M1170.44,-66.6199C1121.87,-64.3486 1046.42,-60.8591 981,-58 599.435,-41.3249 499.652,-63.3584 116.671,-22.0643"/>
<polygon fill="midnightblue" stroke="midnightblue" points="117.024,-18.5822 106.705,-20.9824 116.269,-25.5413 117.024,-18.5822"/>
</g>
<!-- Node19&#45;&gt;Node6 -->
<g id="edge72" class="edge"><title>Node19&#45;&gt;Node6</title>
<path fill="none" stroke="midnightblue" d="M1271.6,-64.2807C1296.93,-62.0708 1328.06,-59.5827 1356,-58 1853.93,-29.7929 1985.11,-83.4827 2483.93,-21.9125"/>
<polygon fill="midnightblue" stroke="midnightblue" points="2484.41,-25.379 2493.9,-20.6715 2483.55,-18.4325 2484.41,-25.379"/>
</g>
<!-- Node19&#45;&gt;Node10 -->
<g id="edge44" class="edge"><title>Node19&#45;&gt;Node10</title>
<path fill="none" stroke="midnightblue" d="M1170.46,-67.4258C1084.76,-64.015 905.506,-53.6758 746.2,-21.9026"/>
<polygon fill="midnightblue" stroke="midnightblue" points="746.717,-18.4363 736.221,-19.8786 745.325,-25.2966 746.717,-18.4363"/>
</g>
<!-- Node19&#45;&gt;Node11 -->
<g id="edge86" class="edge"><title>Node19&#45;&gt;Node11</title>
<path fill="none" stroke="midnightblue" d="M1170.38,-66.5658C1028.89,-59.6435 630.279,-39.3016 478.574,-22.0506"/>
<polygon fill="midnightblue" stroke="midnightblue" points="478.855,-18.5595 468.514,-20.8665 478.037,-25.5115 478.855,-18.5595"/>
</g>
<!-- Node19&#45;&gt;Node12 -->
<g id="edge84" class="edge"><title>Node19&#45;&gt;Node12</title>
<path fill="none" stroke="midnightblue" d="M1170.11,-65.8988C1057.04,-58.8074 786.837,-40.7008 676.491,-21.9226"/>
<polygon fill="midnightblue" stroke="midnightblue" points="676.782,-18.4192 666.322,-20.1036 675.549,-25.3098 676.782,-18.4192"/>
</g>
<!-- Node19&#45;&gt;Node14 -->
<g id="edge48" class="edge"><title>Node19&#45;&gt;Node14</title>
<path fill="none" stroke="midnightblue" d="M1170.31,-63.1313C1113.12,-56.0259 1017.21,-42.6564 925.971,-21.9851"/>
<polygon fill="midnightblue" stroke="midnightblue" points="926.548,-18.5264 916.018,-19.6963 924.979,-25.3484 926.548,-18.5264"/>
</g>
<!-- Node19&#45;&gt;Node16 -->
<g id="edge52" class="edge"><title>Node19&#45;&gt;Node16</title>
<path fill="none" stroke="midnightblue" d="M1271.57,-59.6557C1276.1,-59.0163 1280.63,-58.4489 1285,-58 1513.64,-34.5341 2088.07,-64.6285 2331.93,-21.5992"/>
<polygon fill="midnightblue" stroke="midnightblue" points="2332.67,-25.0206 2341.88,-19.7674 2331.41,-18.1363 2332.67,-25.0206"/>
</g>
<!-- Node19&#45;&gt;Node17 -->
<g id="edge80" class="edge"><title>Node19&#45;&gt;Node17</title>
<path fill="none" stroke="midnightblue" d="M1170.23,-63.7172C1101.03,-56.2515 973.033,-41.4995 854.587,-22.1801"/>
<polygon fill="midnightblue" stroke="midnightblue" points="855.057,-18.7105 844.621,-20.54 853.92,-25.6176 855.057,-18.7105"/>
</g>
<!-- Node20 -->
<g id="node43" class="node"><title>Node20</title>
<polygon fill="white" stroke="#bfbfbf" points="2020,-0.5 2020,-21.5 2064,-21.5 2064,-0.5 2020,-0.5"/>
<text text-anchor="middle" x="2042" y="-8.5" font-family="Helvetica,sans-Serif" font-size="10.00">cmath</text>
</g>
<!-- Node19&#45;&gt;Node20 -->
<g id="edge46" class="edge"><title>Node19&#45;&gt;Node20</title>
<path fill="none" stroke="midnightblue" d="M1271.58,-59.7274C1276.11,-59.0727 1280.63,-58.4822 1285,-58 1602.82,-22.9368 1692.25,-83.4186 2009.92,-21.6835"/>
<polygon fill="midnightblue" stroke="midnightblue" points="2010.73,-25.091 2019.87,-19.7252 2009.38,-18.2228 2010.73,-25.091"/>
</g>
<!-- Node21 -->
<g id="node46" class="node"><title>Node21</title>
<polygon fill="white" stroke="#bfbfbf" points="2081.5,-0.5 2081.5,-21.5 2122.5,-21.5 2122.5,-0.5 2081.5,-0.5"/>
<text text-anchor="middle" x="2102" y="-8.5" font-family="Helvetica,sans-Serif" font-size="10.00">string</text>
</g>
<!-- Node19&#45;&gt;Node21 -->
<g id="edge50" class="edge"><title>Node19&#45;&gt;Node21</title>
<path fill="none" stroke="midnightblue" d="M1271.57,-59.7091C1276.1,-59.0583 1280.63,-58.4736 1285,-58 1630.23,-20.5932 1727.84,-91.682 2071.35,-21.7964"/>
<polygon fill="midnightblue" stroke="midnightblue" points="2072.24,-25.1872 2081.33,-19.7416 2070.83,-18.3312 2072.24,-25.1872"/>
</g>
<!-- Node22 -->
<g id="node49" class="node"><title>Node22</title>
<polygon fill="white" stroke="#bfbfbf" points="2140,-0.5 2140,-21.5 2192,-21.5 2192,-0.5 2140,-0.5"/>
<text text-anchor="middle" x="2166" y="-8.5" font-family="Helvetica,sans-Serif" font-size="10.00">sstream</text>
</g>
<!-- Node19&#45;&gt;Node22 -->
<g id="edge54" class="edge"><title>Node19&#45;&gt;Node22</title>
<path fill="none" stroke="midnightblue" d="M1271.57,-59.6943C1276.1,-59.0467 1280.63,-58.4668 1285,-58 1655.92,-18.3954 1758.51,-85.7718 2129.87,-21.7745"/>
<polygon fill="midnightblue" stroke="midnightblue" points="2130.56,-25.2067 2139.81,-20.041 2129.36,-18.3108 2130.56,-25.2067"/>
</g>
<!-- Node23 -->
<g id="node51" class="node"><title>Node23</title>
<polygon fill="white" stroke="#bfbfbf" points="2209.5,-0.5 2209.5,-21.5 2324.5,-21.5 2324.5,-0.5 2209.5,-0.5"/>
<text text-anchor="middle" x="2267" y="-8.5" font-family="Helvetica,sans-Serif" font-size="10.00">yarp/os/BufferedPort.h</text>
</g>
<!-- Node19&#45;&gt;Node23 -->
<g id="edge56" class="edge"><title>Node19&#45;&gt;Node23</title>
<path fill="none" stroke="midnightblue" d="M1271.57,-59.679C1276.1,-59.0347 1280.63,-58.4597 1285,-58 1686.83,-15.7552 1793.93,-62.779 2199.22,-22.068"/>
<polygon fill="midnightblue" stroke="midnightblue" points="2199.87,-25.5205 2209.46,-21.0272 2199.16,-18.5564 2199.87,-25.5205"/>
</g>
<!-- Node24 -->
<g id="node53" class="node"><title>Node24</title>
<polygon fill="white" stroke="#bfbfbf" points="934,-0.5 934,-21.5 1020,-21.5 1020,-0.5 934,-0.5"/>
<text text-anchor="middle" x="977" y="-8.5" font-family="Helvetica,sans-Serif" font-size="10.00">yarp/os/Bottle.h</text>
</g>
<!-- Node19&#45;&gt;Node24 -->
<g id="edge58" class="edge"><title>Node19&#45;&gt;Node24</title>
<path fill="none" stroke="midnightblue" d="M1176.81,-58.4966C1135.53,-48.6841 1073.85,-34.0227 1029.96,-23.5878"/>
<polygon fill="midnightblue" stroke="midnightblue" points="1030.58,-20.1381 1020.04,-21.2305 1028.96,-26.9483 1030.58,-20.1381"/>
</g>
<!-- Node25 -->
<g id="node55" class="node"><title>Node25</title>
<polygon fill="white" stroke="#bfbfbf" points="1037.5,-0.5 1037.5,-21.5 1148.5,-21.5 1148.5,-0.5 1037.5,-0.5"/>
<text text-anchor="middle" x="1093" y="-8.5" font-family="Helvetica,sans-Serif" font-size="10.00">yarp/os/RateThread.h</text>
</g>
<!-- Node19&#45;&gt;Node25 -->
<g id="edge60" class="edge"><title>Node19&#45;&gt;Node25</title>
<path fill="none" stroke="midnightblue" d="M1197.82,-58.4966C1177.65,-49.3562 1148.19,-36.0082 1125.64,-25.7883"/>
<polygon fill="midnightblue" stroke="midnightblue" points="1126.99,-22.5606 1116.44,-21.6212 1124.1,-28.9366 1126.99,-22.5606"/>
</g>
<!-- Node26 -->
<g id="node58" class="node"><title>Node26</title>
<polygon fill="white" stroke="#bfbfbf" points="1166,-0.5 1166,-21.5 1276,-21.5 1276,-0.5 1166,-0.5"/>
<text text-anchor="middle" x="1221" y="-8.5" font-family="Helvetica,sans-Serif" font-size="10.00">yarp/os/PortReader.h</text>
</g>
<!-- Node19&#45;&gt;Node26 -->
<g id="edge64" class="edge"><title>Node19&#45;&gt;Node26</title>
<path fill="none" stroke="midnightblue" d="M1221,-58.3619C1221,-50.9219 1221,-40.7427 1221,-31.7276"/>
<polygon fill="midnightblue" stroke="midnightblue" points="1224.5,-31.5706 1221,-21.5707 1217.5,-31.5707 1224.5,-31.5706"/>
</g>
<!-- Node19&#45;&gt;Node27 -->
<g id="edge66" class="edge"><title>Node19&#45;&gt;Node27</title>
<path fill="none" stroke="midnightblue" d="M1170.43,-66.9464C1065.84,-62.3167 818.007,-49.369 600.209,-22.0459"/>
<polygon fill="midnightblue" stroke="midnightblue" points="600.55,-18.5612 590.189,-20.7759 599.669,-25.5056 600.55,-18.5612"/>
</g>
<!-- Node28 -->
<g id="node62" class="node"><title>Node28</title>
<polygon fill="white" stroke="#bfbfbf" points="1293.5,-0.5 1293.5,-21.5 1400.5,-21.5 1400.5,-0.5 1293.5,-0.5"/>
<text text-anchor="middle" x="1347" y="-8.5" font-family="Helvetica,sans-Serif" font-size="10.00">yarp/os/RpcServer.h</text>
</g>
<!-- Node19&#45;&gt;Node28 -->
<g id="edge68" class="edge"><title>Node19&#45;&gt;Node28</title>
<path fill="none" stroke="midnightblue" d="M1243.82,-58.4966C1263.59,-49.397 1292.41,-36.1273 1314.58,-25.9253"/>
<polygon fill="midnightblue" stroke="midnightblue" points="1316.31,-28.982 1323.93,-21.6212 1313.38,-22.6234 1316.31,-28.982"/>
</g>
<!-- Node29 -->
<g id="node64" class="node"><title>Node29</title>
<polygon fill="white" stroke="#bfbfbf" points="1417.5,-0.5 1417.5,-21.5 1558.5,-21.5 1558.5,-0.5 1417.5,-0.5"/>
<text text-anchor="middle" x="1488" y="-8.5" font-family="Helvetica,sans-Serif" font-size="10.00">yarp/os/ConnectionReader.h</text>
</g>
<!-- Node19&#45;&gt;Node29 -->
<g id="edge70" class="edge"><title>Node19&#45;&gt;Node29</title>
<path fill="none" stroke="midnightblue" d="M1269.35,-58.4966C1314.39,-48.7136 1381.61,-34.1107 1429.62,-23.6819"/>
<polygon fill="midnightblue" stroke="midnightblue" points="1430.53,-27.0661 1439.56,-21.5231 1429.04,-20.2257 1430.53,-27.0661"/>
</g>
<!-- Node30 -->
<g id="node69" class="node"><title>Node30</title>
<polygon fill="white" stroke="#bfbfbf" points="1575.5,-0.5 1575.5,-21.5 1672.5,-21.5 1672.5,-0.5 1575.5,-0.5"/>
<text text-anchor="middle" x="1624" y="-8.5" font-family="Helvetica,sans-Serif" font-size="10.00">yarp/os/Property.h</text>
</g>
<!-- Node19&#45;&gt;Node30 -->
<g id="edge78" class="edge"><title>Node19&#45;&gt;Node30</title>
<path fill="none" stroke="midnightblue" d="M1271.62,-60.0912C1276.14,-59.3588 1280.65,-58.6509 1285,-58 1406.79,-39.7692 1440.54,-41.8583 1565.28,-22.2066"/>
<polygon fill="midnightblue" stroke="midnightblue" points="1565.89,-25.6534 1575.22,-20.6257 1564.79,-18.7403 1565.89,-25.6534"/>
</g>
<!-- Node31 -->
<g id="node72" class="node"><title>Node31</title>
<polygon fill="white" stroke="#bfbfbf" points="1689.5,-0.5 1689.5,-21.5 1778.5,-21.5 1778.5,-0.5 1689.5,-0.5"/>
<text text-anchor="middle" x="1734" y="-8.5" font-family="Helvetica,sans-Serif" font-size="10.00">yarp/sig/Matrix.h</text>
</g>
<!-- Node19&#45;&gt;Node31 -->
<g id="edge82" class="edge"><title>Node19&#45;&gt;Node31</title>
<path fill="none" stroke="midnightblue" d="M1271.6,-59.9208C1276.12,-59.2248 1280.64,-58.5719 1285,-58 1456.97,-35.4404 1504.45,-47.5295 1679.2,-22.1433"/>
<polygon fill="midnightblue" stroke="midnightblue" points="1679.86,-25.583 1689.24,-20.6628 1678.84,-18.6577 1679.86,-25.583"/>
</g>
<!-- Node32 -->
<g id="node76" class="node"><title>Node32</title>
<polygon fill="white" stroke="#bfbfbf" points="1795.5,-0.5 1795.5,-21.5 1916.5,-21.5 1916.5,-0.5 1795.5,-0.5"/>
<text text-anchor="middle" x="1856" y="-8.5" font-family="Helvetica,sans-Serif" font-size="10.00">ocra/util/StringUtilities.h</text>
</g>
<!-- Node19&#45;&gt;Node32 -->
<g id="edge88" class="edge"><title>Node19&#45;&gt;Node32</title>
<path fill="none" stroke="midnightblue" d="M1271.59,-59.8312C1276.11,-59.1543 1280.64,-58.5303 1285,-58 1503.8,-31.4173 1563.06,-47.1543 1785.43,-22.0998"/>
<polygon fill="midnightblue" stroke="midnightblue" points="1785.92,-25.5669 1795.46,-20.9551 1785.13,-18.6121 1785.92,-25.5669"/>
</g>
<!-- Node33 -->
<g id="node78" class="node"><title>Node33</title>
<polygon fill="white" stroke="#bfbfbf" points="2403.5,-0.5 2403.5,-21.5 2476.5,-21.5 2476.5,-0.5 2403.5,-0.5"/>
<text text-anchor="middle" x="2440" y="-8.5" font-family="Helvetica,sans-Serif" font-size="10.00">Eigen/Dense</text>
</g>
<!-- Node19&#45;&gt;Node33 -->
<g id="edge90" class="edge"><title>Node19&#45;&gt;Node33</title>
<path fill="none" stroke="midnightblue" d="M1271.61,-64.3138C1296.93,-62.1121 1328.06,-59.6212 1356,-58 1813.9,-31.4265 1935.51,-84.4041 2393.1,-22.0254"/>
<polygon fill="midnightblue" stroke="midnightblue" points="2393.85,-25.4549 2403.28,-20.6258 2392.9,-18.5201 2393.85,-25.4549"/>
</g>
<!-- Node34 -->
<g id="node80" class="node"><title>Node34</title>
<polygon fill="white" stroke="#bfbfbf" points="1934,-0.5 1934,-21.5 2002,-21.5 2002,-0.5 1934,-0.5"/>
<text text-anchor="middle" x="1968" y="-8.5" font-family="Helvetica,sans-Serif" font-size="10.00">Eigen/Lgsm</text>
</g>
<!-- Node19&#45;&gt;Node34 -->
<g id="edge92" class="edge"><title>Node19&#45;&gt;Node34</title>
<path fill="none" stroke="midnightblue" d="M1271.58,-59.7587C1276.11,-59.0973 1280.63,-58.4967 1285,-58 1564.75,-26.1956 1641.65,-64.5878 1923.73,-21.9241"/>
<polygon fill="midnightblue" stroke="midnightblue" points="1924.5,-25.3474 1933.86,-20.372 1923.44,-18.4283 1924.5,-25.3474"/>
</g>
<!-- Node37&#45;&gt;Node6 -->
<g id="edge158" class="edge"><title>Node37&#45;&gt;Node6</title>
<path fill="none" stroke="midnightblue" d="M1857.3,-348.488C1925.23,-337.518 2022.32,-320.725 2038,-312 2171.85,-237.497 2136.38,-131.118 2271,-58 2352.94,-13.4942 2387.97,-38.5632 2483.75,-22.0773"/>
<polygon fill="midnightblue" stroke="midnightblue" points="2484.63,-25.4739 2493.83,-20.2272 2483.37,-18.5887 2484.63,-25.4739"/>
</g>
<!-- Node37&#45;&gt;Node7 -->
<g id="edge120" class="edge"><title>Node37&#45;&gt;Node7</title>
<path fill="none" stroke="midnightblue" d="M1715.97,-353.699C1559.31,-342.482 1196.39,-316.495 1046.56,-305.766"/>
<polygon fill="midnightblue" stroke="midnightblue" points="1046.37,-302.243 1036.14,-305.02 1045.87,-309.225 1046.37,-302.243"/>
</g>
<!-- Node37&#45;&gt;Node35 -->
<g id="edge124" class="edge"><title>Node37&#45;&gt;Node35</title>
<path fill="none" stroke="midnightblue" d="M1861.17,-348.497C1928.84,-338.509 2030.56,-323.498 2101.47,-313.033"/>
<polygon fill="midnightblue" stroke="midnightblue" points="2102.32,-316.446 2111.7,-311.523 2101.29,-309.521 2102.32,-316.446"/>
</g>
<!-- Node38 -->
<g id="node99" class="node"><title>Node38</title>
<polygon fill="white" stroke="#bfbfbf" points="1712.5,-290.5 1712.5,-311.5 1867.5,-311.5 1867.5,-290.5 1712.5,-290.5"/>
<text text-anchor="middle" x="1790" y="-298.5" font-family="Helvetica,sans-Serif" font-size="10.00">ocra&#45;recipes/TrajectoryThread.h</text>
</g>
<!-- Node37&#45;&gt;Node38 -->
<g id="edge122" class="edge"><title>Node37&#45;&gt;Node38</title>
<path fill="none" stroke="midnightblue" d="M1790,-348.362C1790,-340.922 1790,-330.743 1790,-321.728"/>
<polygon fill="midnightblue" stroke="midnightblue" points="1793.5,-321.571 1790,-311.571 1786.5,-321.571 1793.5,-321.571"/>
</g>
<!-- Node39 -->
<g id="node102" class="node"><title>Node39</title>
<polygon fill="white" stroke="#bfbfbf" points="1715,-58.5 1715,-79.5 1835,-79.5 1835,-58.5 1715,-58.5"/>
<text text-anchor="middle" x="1775" y="-66.5" font-family="Helvetica,sans-Serif" font-size="10.00">ocra/util/EigenUtilities.h</text>
</g>
<!-- Node37&#45;&gt;Node39 -->
<g id="edge126" class="edge"><title>Node37&#45;&gt;Node39</title>
<path fill="none" stroke="midnightblue" d="M1757.56,-348.481C1739.36,-341.009 1717.62,-329.209 1704,-312 1684.26,-287.062 1685,-274.808 1685,-243 1685,-243 1685,-243 1685,-185 1685,-142.219 1723.68,-105.674 1750.33,-85.5762"/>
<polygon fill="midnightblue" stroke="midnightblue" points="1752.46,-88.3528 1758.49,-79.6418 1748.35,-82.6907 1752.46,-88.3528"/>
</g>
<!-- Node40 -->
<g id="node104" class="node"><title>Node40</title>
<a xlink:href="ZmpPreviewController_8h.html" target="_top" xlink:title="walking&#45;client/ZmpPreviewController.h">
<polygon fill="white" stroke="black" points="1910,-116.5 1910,-137.5 2094,-137.5 2094,-116.5 1910,-116.5"/>
<text text-anchor="middle" x="2002" y="-124.5" font-family="Helvetica,sans-Serif" font-size="10.00">walking&#45;client/ZmpPreviewController.h</text>
</a>
</g>
<!-- Node37&#45;&gt;Node40 -->
<g id="edge128" class="edge"><title>Node37&#45;&gt;Node40</title>
<path fill="none" stroke="midnightblue" d="M1863.84,-348.494C1926.61,-338.81 2008.11,-324.141 2018,-312 2057.09,-264.029 2028.56,-183.985 2011.84,-146.937"/>
<polygon fill="midnightblue" stroke="midnightblue" points="2014.92,-145.257 2007.51,-137.69 2008.58,-148.229 2014.92,-145.257"/>
</g>
<!-- Node43 -->
<g id="node113" class="node"><title>Node43</title>
<a xlink:href="ZmpController_8h.html" target="_top" xlink:title="walking&#45;client/ZmpController.h">
<polygon fill="white" stroke="black" points="1508.5,-116.5 1508.5,-137.5 1657.5,-137.5 1657.5,-116.5 1508.5,-116.5"/>
<text text-anchor="middle" x="1583" y="-124.5" font-family="Helvetica,sans-Serif" font-size="10.00">walking&#45;client/ZmpController.h</text>
</a>
</g>
<!-- Node37&#45;&gt;Node43 -->
<g id="edge140" class="edge"><title>Node37&#45;&gt;Node43</title>
<path fill="none" stroke="midnightblue" d="M1740.53,-348.441C1717.16,-341.375 1690.23,-329.971 1671,-312 1621.33,-265.589 1596.77,-185.356 1587.52,-147.675"/>
<polygon fill="midnightblue" stroke="midnightblue" points="1590.9,-146.773 1585.22,-137.834 1584.09,-148.368 1590.9,-146.773"/>
</g>
<!-- Node46 -->
<g id="node124" class="node"><title>Node46</title>
<polygon fill="white" stroke="#bfbfbf" points="1884.5,-290.5 1884.5,-311.5 2009.5,-311.5 2009.5,-290.5 1884.5,-290.5"/>
<text text-anchor="middle" x="1947" y="-298.5" font-family="Helvetica,sans-Serif" font-size="10.00">ocra/util/FileOperations.h</text>
</g>
<!-- Node37&#45;&gt;Node46 -->
<g id="edge156" class="edge"><title>Node37&#45;&gt;Node46</title>
<path fill="none" stroke="midnightblue" d="M1818.43,-348.497C1843.81,-339.123 1881.16,-325.324 1909.07,-315.012"/>
<polygon fill="midnightblue" stroke="midnightblue" points="1910.35,-318.272 1918.52,-311.523 1907.92,-311.705 1910.35,-318.272"/>
</g>
<!-- Node40&#45;&gt;Node16 -->
<g id="edge136" class="edge"><title>Node40&#45;&gt;Node16</title>
<path fill="none" stroke="midnightblue" d="M2001.54,-116.471C2001.5,-101.067 2003.92,-72.6334 2021,-58 2071.82,-14.4492 2249.57,-35.8234 2331.82,-21.576"/>
<polygon fill="midnightblue" stroke="midnightblue" points="2332.72,-24.9634 2341.83,-19.5445 2331.33,-18.1032 2332.72,-24.9634"/>
</g>
<!-- Node40&#45;&gt;Node19 -->
<g id="edge130" class="edge"><title>Node40&#45;&gt;Node19</title>
<path fill="none" stroke="midnightblue" d="M1909.98,-120.557C1784.66,-111.726 1553.32,-95.2171 1356,-80 1331.7,-78.1258 1304.94,-75.9658 1281.7,-74.0588"/>
<polygon fill="midnightblue" stroke="midnightblue" points="1281.89,-70.5625 1271.64,-73.2305 1281.32,-77.5389 1281.89,-70.5625"/>
</g>
<!-- Node40&#45;&gt;Node33 -->
<g id="edge134" class="edge"><title>Node40&#45;&gt;Node33</title>
<path fill="none" stroke="midnightblue" d="M2006.57,-116.408C2013.98,-100.65 2030.24,-71.4482 2054,-58 2117.79,-21.8936 2304.92,-34.039 2393.24,-21.9635"/>
<polygon fill="midnightblue" stroke="midnightblue" points="2393.9,-25.4021 2403.25,-20.4108 2392.83,-18.4848 2393.9,-25.4021"/>
</g>
<!-- Node41 -->
<g id="node107" class="node"><title>Node41</title>
<polygon fill="white" stroke="#bfbfbf" points="1852.5,-58.5 1852.5,-79.5 1969.5,-79.5 1969.5,-58.5 1852.5,-58.5"/>
<text text-anchor="middle" x="1911" y="-66.5" font-family="Helvetica,sans-Serif" font-size="10.00">ocra/util/ErrorsHelper.h</text>
</g>
<!-- Node40&#45;&gt;Node41 -->
<g id="edge132" class="edge"><title>Node40&#45;&gt;Node41</title>
<path fill="none" stroke="midnightblue" d="M1985.31,-116.362C1971.58,-107.614 1951.92,-95.0786 1936.26,-85.1015"/>
<polygon fill="midnightblue" stroke="midnightblue" points="1937.9,-81.994 1927.58,-79.5707 1934.14,-87.8969 1937.9,-81.994"/>
</g>
<!-- Node42 -->
<g id="node111" class="node"><title>Node42</title>
<polygon fill="white" stroke="#bfbfbf" points="2063,-58.5 2063,-79.5 2109,-79.5 2109,-58.5 2063,-58.5"/>
<text text-anchor="middle" x="2086" y="-66.5" font-family="Helvetica,sans-Serif" font-size="10.00">chrono</text>
</g>
<!-- Node40&#45;&gt;Node42 -->
<g id="edge138" class="edge"><title>Node40&#45;&gt;Node42</title>
<path fill="none" stroke="midnightblue" d="M2017.41,-116.362C2029.96,-107.696 2047.89,-95.3126 2062.27,-85.3819"/>
<polygon fill="midnightblue" stroke="midnightblue" points="2064.45,-88.1327 2070.69,-79.5707 2060.47,-82.3725 2064.45,-88.1327"/>
</g>
<!-- Node43&#45;&gt;Node16 -->
<g id="edge154" class="edge"><title>Node43&#45;&gt;Node16</title>
<path fill="none" stroke="midnightblue" d="M1508.28,-121.538C1449.72,-115.52 1375.06,-103.407 1356,-80 1349.83,-72.4175 1349.21,-65.0401 1356,-58 1392.29,-20.3443 2215.06,-31.284 2331.63,-21.0429"/>
<polygon fill="midnightblue" stroke="midnightblue" points="2332.39,-24.4756 2341.87,-19.7605 2331.52,-17.5298 2332.39,-24.4756"/>
</g>
<!-- Node43&#45;&gt;Node19 -->
<g id="edge142" class="edge"><title>Node43&#45;&gt;Node19</title>
<path fill="none" stroke="midnightblue" d="M1517.44,-116.497C1450.43,-105.76 1347.18,-89.2171 1281.91,-78.7587"/>
<polygon fill="midnightblue" stroke="midnightblue" points="1282.2,-75.2604 1271.77,-77.1342 1281.09,-82.1722 1282.2,-75.2604"/>
</g>
<!-- Node43&#45;&gt;Node33 -->
<g id="edge152" class="edge"><title>Node43&#45;&gt;Node33</title>
<path fill="none" stroke="midnightblue" d="M1602.3,-116.468C1619.57,-107.013 1645.55,-92.7061 1668,-80 1684.98,-70.389 1687.29,-63.5523 1706,-58 1849.97,-15.273 2227.4,-43.1048 2393.15,-21.9654"/>
<polygon fill="midnightblue" stroke="midnightblue" points="2393.84,-25.4024 2403.27,-20.5721 2392.89,-18.4677 2393.84,-25.4024"/>
</g>
<!-- Node43&#45;&gt;Node39 -->
<g id="edge146" class="edge"><title>Node43&#45;&gt;Node39</title>
<path fill="none" stroke="midnightblue" d="M1617.77,-116.497C1649.34,-106.959 1696.08,-92.8408 1730.39,-82.475"/>
<polygon fill="midnightblue" stroke="midnightblue" points="1731.6,-85.7654 1740.17,-79.5231 1729.58,-79.0644 1731.6,-85.7654"/>
</g>
<!-- Node43&#45;&gt;Node41 -->
<g id="edge144" class="edge"><title>Node43&#45;&gt;Node41</title>
<path fill="none" stroke="midnightblue" d="M1642.4,-116.497C1698.68,-106.545 1783.17,-91.6044 1842.32,-81.1449"/>
<polygon fill="midnightblue" stroke="midnightblue" points="1843.08,-84.5643 1852.32,-79.3764 1841.86,-77.6713 1843.08,-84.5643"/>
</g>
<!-- Node44 -->
<g id="node118" class="node"><title>Node44</title>
<polygon fill="white" stroke="#bfbfbf" points="1365,-58.5 1365,-79.5 1489,-79.5 1489,-58.5 1365,-58.5"/>
<text text-anchor="middle" x="1427" y="-66.5" font-family="Helvetica,sans-Serif" font-size="10.00">ocra/control/TaskState.h</text>
</g>
<!-- Node43&#45;&gt;Node44 -->
<g id="edge148" class="edge"><title>Node43&#45;&gt;Node44</title>
<path fill="none" stroke="midnightblue" d="M1554.75,-116.497C1529.54,-107.123 1492.42,-93.3242 1464.69,-83.0122"/>
<polygon fill="midnightblue" stroke="midnightblue" points="1465.9,-79.7274 1455.3,-79.5231 1463.46,-86.2886 1465.9,-79.7274"/>
</g>
<!-- Node45 -->
<g id="node120" class="node"><title>Node45</title>
<polygon fill="white" stroke="#bfbfbf" points="1507,-58.5 1507,-79.5 1659,-79.5 1659,-58.5 1507,-58.5"/>
<text text-anchor="middle" x="1583" y="-66.5" font-family="Helvetica,sans-Serif" font-size="10.00">ocra&#45;recipes/TaskConnection.h</text>
</g>
<!-- Node43&#45;&gt;Node45 -->
<g id="edge150" class="edge"><title>Node43&#45;&gt;Node45</title>
<path fill="none" stroke="midnightblue" d="M1583,-116.362C1583,-108.922 1583,-98.7427 1583,-89.7276"/>
<polygon fill="midnightblue" stroke="midnightblue" points="1586.5,-89.5706 1583,-79.5707 1579.5,-89.5707 1586.5,-89.5706"/>
</g>
</g>
</svg>
