<?xml version="1.0" encoding="UTF-8" standalone="no"?>
<!DOCTYPE svg PUBLIC "-//W3C//DTD SVG 1.1//EN"
 "http://www.w3.org/Graphics/SVG/1.1/DTD/svg11.dtd">
<!-- Generated by graphviz version 2.26.3 (20100126.1600)
 -->
<!-- Title: G Pages: 1 -->
<svg width="2737pt" height="436pt"
 viewBox="0.00 0.00 2737.31 436.00" xmlns="http://www.w3.org/2000/svg" xmlns:xlink="http://www.w3.org/1999/xlink">
<g id="graph1" class="graph" transform="scale(1 1) rotate(0) translate(4 432)">
<title>G</title>
<polygon fill="white" stroke="white" points="-4,5 -4,-432 2734.31,-432 2734.31,5 -4,5"/>
<!-- Node1 -->
<g id="node1" class="node"><title>Node1</title>
<polygon fill="#bfbfbf" stroke="black" points="4.81197,-406.5 4.81197,-427.5 223.812,-427.5 223.812,-406.5 4.81197,-406.5"/>
<text text-anchor="middle" x="114.312" y="-414.5" font-family="Helvetica,sans-Serif" font-size="10.00">ocra&#45;wbi&#45;plugins/ocra&#45;icub&#45;server/src/main.cpp</text>
</g>
<!-- Node2 -->
<g id="node3" class="node"><title>Node2</title>
<polygon fill="white" stroke="#bfbfbf" points="44.812,-0.5 44.812,-21.5 173.812,-21.5 173.812,-0.5 44.812,-0.5"/>
<text text-anchor="middle" x="109.312" y="-8.5" font-family="Helvetica,sans-Serif" font-size="10.00">yarp/os/ResourceFinder.h</text>
</g>
<!-- Node1&#45;&gt;Node2 -->
<g id="edge2" class="edge"><title>Node1&#45;&gt;Node2</title>
<path fill="none" stroke="midnightblue" d="M76.1712,-406.435C56.5794,-399.174 33.8367,-387.597 19.312,-370 -0.935917,-345.469 0.311972,-332.808 0.311972,-301 0.311972,-301 0.311972,-301 0.311972,-127 0.311972,-80.972 46.4523,-45.734 78.6934,-26.7295"/>
<polygon fill="midnightblue" stroke="midnightblue" points="80.8029,-29.557 87.7771,-21.5813 77.3514,-23.467 80.8029,-29.557"/>
</g>
<!-- Node3 -->
<g id="node5" class="node"><title>Node3</title>
<polygon fill="white" stroke="#bfbfbf" points="27.812,-348.5 27.812,-369.5 124.812,-369.5 124.812,-348.5 27.812,-348.5"/>
<text text-anchor="middle" x="76.312" y="-356.5" font-family="Helvetica,sans-Serif" font-size="10.00">yarp/os/Network.h</text>
</g>
<!-- Node1&#45;&gt;Node3 -->
<g id="edge4" class="edge"><title>Node1&#45;&gt;Node3</title>
<path fill="none" stroke="midnightblue" d="M107.342,-406.362C102.146,-398.431 94.9114,-387.389 88.7345,-377.961"/>
<polygon fill="midnightblue" stroke="midnightblue" points="91.6455,-376.017 83.2376,-369.571 85.7903,-379.853 91.6455,-376.017"/>
</g>
<!-- Node4 -->
<g id="node7" class="node"><title>Node4</title>
<polygon fill="white" stroke="#bfbfbf" points="299.312,-0.5 299.312,-21.5 375.312,-21.5 375.312,-0.5 299.312,-0.5"/>
<text text-anchor="middle" x="337.312" y="-8.5" font-family="Helvetica,sans-Serif" font-size="10.00">yarp/os/Log.h</text>
</g>
<!-- Node1&#45;&gt;Node4 -->
<g id="edge6" class="edge"><title>Node1&#45;&gt;Node4</title>
<path fill="none" stroke="midnightblue" d="M120.417,-406.191C131.159,-386.127 152.312,-341.477 152.312,-301 152.312,-301 152.312,-301 152.312,-127 152.312,-91.328 165.464,-80.2933 193.312,-58 220.887,-35.9252 259.167,-24.0763 289.328,-17.7995"/>
<polygon fill="midnightblue" stroke="midnightblue" points="290.069,-21.221 299.218,-15.8778 288.734,-14.3495 290.069,-21.221"/>
</g>
<!-- Node5 -->
<g id="node9" class="node"><title>Node5</title>
<a xlink:href="Module_8h.html" target="_top" xlink:title="Module class for the controller server.">
<polygon fill="white" stroke="black" points="286.812,-348.5 286.812,-369.5 415.812,-369.5 415.812,-348.5 286.812,-348.5"/>
<text text-anchor="middle" x="351.312" y="-356.5" font-family="Helvetica,sans-Serif" font-size="10.00">ocra&#45;icub&#45;server/Module.h</text>
</a>
</g>
<!-- Node1&#45;&gt;Node5 -->
<g id="edge8" class="edge"><title>Node1&#45;&gt;Node5</title>
<path fill="none" stroke="midnightblue" d="M157.231,-406.497C196.872,-396.795 255.88,-382.355 298.418,-371.945"/>
<polygon fill="midnightblue" stroke="midnightblue" points="299.431,-375.3 308.313,-369.523 297.767,-368.501 299.431,-375.3"/>
</g>
<!-- Node6 -->
<g id="node11" class="node"><title>Node6</title>
<polygon fill="white" stroke="#bfbfbf" points="393.312,-0.5 393.312,-21.5 447.312,-21.5 447.312,-0.5 393.312,-0.5"/>
<text text-anchor="middle" x="420.312" y="-8.5" font-family="Helvetica,sans-Serif" font-size="10.00">iostream</text>
</g>
<!-- Node5&#45;&gt;Node6 -->
<g id="edge10" class="edge"><title>Node5&#45;&gt;Node6</title>
<path fill="none" stroke="midnightblue" d="M286.534,-349.344C261.199,-342.626 233.645,-331.251 214.312,-312 191.304,-289.09 190.312,-275.469 190.312,-243 190.312,-243 190.312,-243 190.312,-127 190.312,-94.5312 189.953,-79.4672 214.312,-58 269.877,-9.03186 306.439,-38.6275 383.185,-21.9491"/>
<polygon fill="midnightblue" stroke="midnightblue" points="384.343,-25.2711 393.257,-19.5453 382.718,-18.4623 384.343,-25.2711"/>
</g>
<!-- Node7 -->
<g id="node13" class="node"><title>Node7</title>
<polygon fill="white" stroke="#bfbfbf" points="465.312,-0.5 465.312,-21.5 517.312,-21.5 517.312,-0.5 465.312,-0.5"/>
<text text-anchor="middle" x="491.312" y="-8.5" font-family="Helvetica,sans-Serif" font-size="10.00">memory</text>
</g>
<!-- Node5&#45;&gt;Node7 -->
<g id="edge12" class="edge"><title>Node5&#45;&gt;Node7</title>
<path fill="none" stroke="midnightblue" d="M307.003,-348.421C286.187,-341.335 262.637,-329.919 247.312,-312 226.638,-287.827 228.312,-274.808 228.312,-243 228.312,-243 228.312,-243 228.312,-127 228.312,-95.1919 223.744,-79.3615 247.312,-58 314.831,3.19886 361.52,-41.0186 455.222,-21.8738"/>
<polygon fill="midnightblue" stroke="midnightblue" points="456.053,-25.2743 465.045,-19.6703 454.521,-18.444 456.053,-25.2743"/>
</g>
<!-- Node8 -->
<g id="node15" class="node"><title>Node8</title>
<polygon fill="white" stroke="#bfbfbf" points="256.312,-290.5 256.312,-311.5 312.312,-311.5 312.312,-290.5 256.312,-290.5"/>
<text text-anchor="middle" x="284.312" y="-298.5" font-family="Helvetica,sans-Serif" font-size="10.00">algorithm</text>
</g>
<!-- Node5&#45;&gt;Node8 -->
<g id="edge14" class="edge"><title>Node5&#45;&gt;Node8</title>
<path fill="none" stroke="midnightblue" d="M339.023,-348.362C329.295,-339.941 315.514,-328.011 304.217,-318.231"/>
<polygon fill="midnightblue" stroke="midnightblue" points="306.374,-315.469 296.523,-311.571 301.793,-320.762 306.374,-315.469"/>
</g>
<!-- Node9 -->
<g id="node17" class="node"><title>Node9</title>
<polygon fill="white" stroke="#bfbfbf" points="330.312,-290.5 330.312,-311.5 372.312,-311.5 372.312,-290.5 330.312,-290.5"/>
<text text-anchor="middle" x="351.312" y="-298.5" font-family="Helvetica,sans-Serif" font-size="10.00">locale</text>
</g>
<!-- Node5&#45;&gt;Node9 -->
<g id="edge16" class="edge"><title>Node5&#45;&gt;Node9</title>
<path fill="none" stroke="midnightblue" d="M351.312,-348.362C351.312,-340.922 351.312,-330.743 351.312,-321.728"/>
<polygon fill="midnightblue" stroke="midnightblue" points="354.812,-321.571 351.312,-311.571 347.812,-321.571 354.812,-321.571"/>
</g>
<!-- Node10 -->
<g id="node19" class="node"><title>Node10</title>
<polygon fill="white" stroke="#bfbfbf" points="389.812,-290.5 389.812,-311.5 494.812,-311.5 494.812,-290.5 389.812,-290.5"/>
<text text-anchor="middle" x="442.312" y="-298.5" font-family="Helvetica,sans-Serif" font-size="10.00">yarp/os/RFModule.h</text>
</g>
<!-- Node5&#45;&gt;Node10 -->
<g id="edge18" class="edge"><title>Node5&#45;&gt;Node10</title>
<path fill="none" stroke="midnightblue" d="M368.003,-348.362C381.728,-339.614 401.396,-327.079 417.049,-317.101"/>
<polygon fill="midnightblue" stroke="midnightblue" points="419.175,-319.897 425.727,-311.571 415.413,-313.994 419.175,-319.897"/>
</g>
<!-- Node11 -->
<g id="node21" class="node"><title>Node11</title>
<polygon fill="white" stroke="#bfbfbf" points="256.312,-58.5 256.312,-79.5 498.312,-79.5 498.312,-58.5 256.312,-58.5"/>
<text text-anchor="middle" x="377.312" y="-66.5" font-family="Helvetica,sans-Serif" font-size="10.00">yarpWholeBodyInterface/yarpWholeBodyInterface.h</text>
</g>
<!-- Node5&#45;&gt;Node11 -->
<g id="edge20" class="edge"><title>Node5&#45;&gt;Node11</title>
<path fill="none" stroke="midnightblue" d="M409.181,-348.468C447.135,-340.248 491.795,-327.617 503.312,-312 509.116,-304.131 505.817,-299.451 503.312,-290 497.479,-267.991 419.289,-138.045 389.095,-88.33"/>
<polygon fill="midnightblue" stroke="midnightblue" points="392.074,-86.493 383.887,-79.768 386.093,-90.1306 392.074,-86.493"/>
</g>
<!-- Node12 -->
<g id="node23" class="node"><title>Node12</title>
<a xlink:href="Thread_8h.html" target="_top" xlink:title="The thread class for the controller server.">
<polygon fill="white" stroke="black" points="1268.31,-290.5 1268.31,-311.5 1396.31,-311.5 1396.31,-290.5 1268.31,-290.5"/>
<text text-anchor="middle" x="1332.31" y="-298.5" font-family="Helvetica,sans-Serif" font-size="10.00">ocra&#45;icub&#45;server/Thread.h</text>
</a>
</g>
<!-- Node5&#45;&gt;Node12 -->
<g id="edge22" class="edge"><title>Node5&#45;&gt;Node12</title>
<path fill="none" stroke="midnightblue" d="M416.058,-355.172C590.958,-344.831 1072.22,-316.377 1257.89,-305.4"/>
<polygon fill="midnightblue" stroke="midnightblue" points="1258.32,-308.881 1268.1,-304.797 1257.91,-301.893 1258.32,-308.881"/>
</g>
<!-- Node23 -->
<g id="node54" class="node"><title>Node23</title>
<a xlink:href="Utilities_8h.html" target="_top" xlink:title="Some useful tools for the ocra&#45;icub lib.">
<polygon fill="white" stroke="black" points="1280.81,-58.5 1280.81,-79.5 1381.81,-79.5 1381.81,-58.5 1280.81,-58.5"/>
<text text-anchor="middle" x="1331.31" y="-66.5" font-family="Helvetica,sans-Serif" font-size="10.00">ocra&#45;icub/Utilities.h</text>
</a>
</g>
<!-- Node5&#45;&gt;Node23 -->
<g id="edge138" class="edge"><title>Node5&#45;&gt;Node23</title>
<path fill="none" stroke="midnightblue" d="M416.053,-358.515C614.79,-356.649 1214.19,-348.099 1405.31,-312 1495.24,-295.016 1599.31,-334.513 1599.31,-243 1599.31,-243 1599.31,-243 1599.31,-185 1599.31,-139.662 1468.5,-101.055 1389.66,-81.9029"/>
<polygon fill="midnightblue" stroke="midnightblue" points="1390.38,-78.4772 1379.84,-79.5532 1388.76,-85.2849 1390.38,-78.4772"/>
</g>
<!-- Node12&#45;&gt;Node11 -->
<g id="edge24" class="edge"><title>Node12&#45;&gt;Node11</title>
<path fill="none" stroke="midnightblue" d="M1267.99,-299.254C1079.92,-293.895 542.328,-276.66 512.312,-254 460.485,-214.874 506.399,-165.453 464.312,-116 452.221,-101.793 434.717,-91.178 418.576,-83.6659"/>
<polygon fill="midnightblue" stroke="midnightblue" points="419.845,-80.4008 409.281,-79.5977 417.038,-86.8136 419.845,-80.4008"/>
</g>
<!-- Node13 -->
<g id="node26" class="node"><title>Node13</title>
<polygon fill="white" stroke="#bfbfbf" points="535.312,-0.5 535.312,-21.5 593.312,-21.5 593.312,-0.5 535.312,-0.5"/>
<text text-anchor="middle" x="564.312" y="-8.5" font-family="Helvetica,sans-Serif" font-size="10.00">wbi/wbi.h</text>
</g>
<!-- Node12&#45;&gt;Node13 -->
<g id="edge26" class="edge"><title>Node12&#45;&gt;Node13</title>
<path fill="none" stroke="midnightblue" d="M1268.05,-298.494C1077.11,-290.2 526.312,-259.795 526.312,-185 526.312,-185 526.312,-185 526.312,-127 526.312,-91.7411 542.363,-53.3154 553.601,-30.7323"/>
<polygon fill="midnightblue" stroke="midnightblue" points="556.73,-32.3005 558.207,-21.809 550.51,-29.0901 556.73,-32.3005"/>
</g>
<!-- Node14 -->
<g id="node28" class="node"><title>Node14</title>
<a xlink:href="IcubControllerServer_8h.html" target="_top" xlink:title="ocra&#45;icub&#45;server/IcubControllerServer.h">
<polygon fill="white" stroke="black" points="772.812,-232.5 772.812,-253.5 959.812,-253.5 959.812,-232.5 772.812,-232.5"/>
<text text-anchor="middle" x="866.312" y="-240.5" font-family="Helvetica,sans-Serif" font-size="10.00">ocra&#45;icub&#45;server/IcubControllerServer.h</text>
</a>
</g>
<!-- Node12&#45;&gt;Node14 -->
<g id="edge28" class="edge"><title>Node12&#45;&gt;Node14</title>
<path fill="none" stroke="midnightblue" d="M1268.01,-292.996C1188.47,-283.097 1052.4,-266.162 960.943,-254.778"/>
<polygon fill="midnightblue" stroke="midnightblue" points="961.206,-251.284 950.85,-253.522 960.341,-258.23 961.206,-251.284"/>
</g>
<!-- Node12&#45;&gt;Node23 -->
<g id="edge120" class="edge"><title>Node12&#45;&gt;Node23</title>
<path fill="none" stroke="midnightblue" d="M1332.27,-290.429C1332.11,-254.648 1331.61,-137.663 1331.4,-89.7481"/>
<polygon fill="midnightblue" stroke="midnightblue" points="1334.9,-89.6183 1331.36,-79.6335 1327.9,-89.6485 1334.9,-89.6183"/>
</g>
<!-- Node25 -->
<g id="node60" class="node"><title>Node25</title>
<polygon fill="white" stroke="#bfbfbf" points="992.812,-0.5 992.812,-21.5 1033.81,-21.5 1033.81,-0.5 992.812,-0.5"/>
<text text-anchor="middle" x="1013.31" y="-8.5" font-family="Helvetica,sans-Serif" font-size="10.00">string</text>
</g>
<!-- Node12&#45;&gt;Node25 -->
<g id="edge134" class="edge"><title>Node12&#45;&gt;Node25</title>
<path fill="none" stroke="midnightblue" d="M1336.15,-290.345C1339.32,-280.93 1343.58,-266.752 1345.31,-254 1350.46,-216.054 1340.48,-200.991 1313.31,-174 1271.13,-132.09 1110.8,-55.7536 1043.42,-24.6943"/>
<polygon fill="midnightblue" stroke="midnightblue" points="1044.73,-21.443 1034.18,-20.4498 1041.81,-27.8042 1044.73,-21.443"/>
</g>
<!-- Node26 -->
<g id="node63" class="node"><title>Node26</title>
<polygon fill="white" stroke="#bfbfbf" points="2191.31,-0.5 2191.31,-21.5 2243.31,-21.5 2243.31,-0.5 2191.31,-0.5"/>
<text text-anchor="middle" x="2217.31" y="-8.5" font-family="Helvetica,sans-Serif" font-size="10.00">sstream</text>
</g>
<!-- Node12&#45;&gt;Node26 -->
<g id="edge132" class="edge"><title>Node12&#45;&gt;Node26</title>
<path fill="none" stroke="midnightblue" d="M1345.72,-290.413C1367.79,-271.701 1409.31,-230.443 1409.31,-185 1409.31,-185 1409.31,-185 1409.31,-127 1409.31,-94.5312 1407.31,-77.4434 1433.31,-58 1497.95,-9.66543 2063.29,-34.9055 2181.14,-21.4515"/>
<polygon fill="midnightblue" stroke="midnightblue" points="2181.72,-24.9053 2191.12,-20.0249 2180.72,-17.9758 2181.72,-24.9053"/>
</g>
<!-- Node28 -->
<g id="node67" class="node"><title>Node28</title>
<polygon fill="white" stroke="#bfbfbf" points="2261.31,-0.5 2261.31,-21.5 2347.31,-21.5 2347.31,-0.5 2261.31,-0.5"/>
<text text-anchor="middle" x="2304.31" y="-8.5" font-family="Helvetica,sans-Serif" font-size="10.00">yarp/os/Bottle.h</text>
</g>
<!-- Node12&#45;&gt;Node28 -->
<g id="edge124" class="edge"><title>Node12&#45;&gt;Node28</title>
<path fill="none" stroke="midnightblue" d="M1355.58,-290.463C1389.19,-273.468 1447.31,-236.612 1447.31,-185 1447.31,-185 1447.31,-185 1447.31,-127 1447.31,-94.5312 1445.29,-77.4178 1471.31,-58 1538.83,-7.62057 2128.8,-31.4645 2251.21,-21.6841"/>
<polygon fill="midnightblue" stroke="midnightblue" points="2251.68,-25.1546 2261.27,-20.6665 2250.97,-18.1901 2251.68,-25.1546"/>
</g>
<!-- Node32 -->
<g id="node76" class="node"><title>Node32</title>
<polygon fill="white" stroke="#bfbfbf" points="2364.81,-0.5 2364.81,-21.5 2471.81,-21.5 2471.81,-0.5 2364.81,-0.5"/>
<text text-anchor="middle" x="2418.31" y="-8.5" font-family="Helvetica,sans-Serif" font-size="10.00">yarp/os/RpcServer.h</text>
</g>
<!-- Node12&#45;&gt;Node32 -->
<g id="edge126" class="edge"><title>Node12&#45;&gt;Node32</title>
<path fill="none" stroke="midnightblue" d="M1370.53,-290.38C1415.84,-275.179 1485.31,-242.501 1485.31,-185 1485.31,-185 1485.31,-185 1485.31,-127 1485.31,-94.5312 1483.25,-77.3712 1509.31,-58 1582.77,-3.39337 2224.77,-30.5952 2354.59,-21.8394"/>
<polygon fill="midnightblue" stroke="midnightblue" points="2354.94,-25.3219 2364.61,-20.9793 2354.34,-18.3476 2354.94,-25.3219"/>
</g>
<!-- Node33 -->
<g id="node78" class="node"><title>Node33</title>
<polygon fill="white" stroke="#bfbfbf" points="2488.81,-0.5 2488.81,-21.5 2629.81,-21.5 2629.81,-0.5 2488.81,-0.5"/>
<text text-anchor="middle" x="2559.31" y="-8.5" font-family="Helvetica,sans-Serif" font-size="10.00">yarp/os/ConnectionReader.h</text>
</g>
<!-- Node12&#45;&gt;Node33 -->
<g id="edge128" class="edge"><title>Node12&#45;&gt;Node33</title>
<path fill="none" stroke="midnightblue" d="M1392.75,-290.484C1448.7,-276.868 1523.31,-247.074 1523.31,-185 1523.31,-185 1523.31,-185 1523.31,-127 1523.31,-94.5312 1521.22,-77.3202 1547.31,-58 1587.41,-28.3098 2365.84,-26.6685 2478.55,-21.7828"/>
<polygon fill="midnightblue" stroke="midnightblue" points="2478.94,-25.2659 2488.72,-21.1853 2478.53,-18.278 2478.94,-25.2659"/>
</g>
<!-- Node34 -->
<g id="node80" class="node"><title>Node34</title>
<polygon fill="white" stroke="#bfbfbf" points="2647.31,-0.5 2647.31,-21.5 2729.31,-21.5 2729.31,-0.5 2647.31,-0.5"/>
<text text-anchor="middle" x="2688.31" y="-8.5" font-family="Helvetica,sans-Serif" font-size="10.00">yarp/os/Time.h</text>
</g>
<!-- Node12&#45;&gt;Node34 -->
<g id="edge130" class="edge"><title>Node12&#45;&gt;Node34</title>
<path fill="none" stroke="midnightblue" d="M1385.29,-290.493C1428.82,-281.172 1486.43,-267.049 1506.31,-254 1539.1,-232.481 1561.31,-224.217 1561.31,-185 1561.31,-185 1561.31,-185 1561.31,-127 1561.31,-9.58395 2475.16,-39.2738 2636.87,-21.7981"/>
<polygon fill="midnightblue" stroke="midnightblue" points="2637.72,-25.2165 2647.19,-20.4557 2636.82,-18.275 2637.72,-25.2165"/>
</g>
<!-- Node40 -->
<g id="node98" class="node"><title>Node40</title>
<polygon fill="white" stroke="#bfbfbf" points="949.812,-174.5 949.812,-195.5 1170.81,-195.5 1170.81,-174.5 949.812,-174.5"/>
<text text-anchor="middle" x="1060.31" y="-182.5" font-family="Helvetica,sans-Serif" font-size="10.00">iDynTree/Estimation/SimpleLeggedOdometry.h</text>
</g>
<!-- Node12&#45;&gt;Node40 -->
<g id="edge136" class="edge"><title>Node12&#45;&gt;Node40</title>
<path fill="none" stroke="midnightblue" d="M1307.21,-290.295C1258.2,-269.395 1149.75,-223.145 1094.34,-199.513"/>
<polygon fill="midnightblue" stroke="midnightblue" points="1095.53,-196.215 1084.96,-195.512 1092.79,-202.654 1095.53,-196.215"/>
</g>
<!-- Node41 -->
<g id="node100" class="node"><title>Node41</title>
<polygon fill="white" stroke="#bfbfbf" points="1187.81,-174.5 1187.81,-195.5 1304.81,-195.5 1304.81,-174.5 1187.81,-174.5"/>
<text text-anchor="middle" x="1246.31" y="-182.5" font-family="Helvetica,sans-Serif" font-size="10.00">ocra/util/ErrorsHelper.h</text>
</g>
<!-- Node12&#45;&gt;Node41 -->
<g id="edge122" class="edge"><title>Node12&#45;&gt;Node41</title>
<path fill="none" stroke="midnightblue" d="M1324.38,-290.295C1309.78,-270.613 1278.53,-228.45 1260.3,-203.867"/>
<polygon fill="midnightblue" stroke="midnightblue" points="1263,-201.628 1254.23,-195.679 1257.37,-205.797 1263,-201.628"/>
</g>
<!-- Node14&#45;&gt;Node13 -->
<g id="edge30" class="edge"><title>Node14&#45;&gt;Node13</title>
<path fill="none" stroke="midnightblue" d="M772.638,-239.403C700.421,-234.526 608.72,-223.041 583.312,-196 540.853,-150.813 551.405,-69.3126 559.327,-31.4102"/>
<polygon fill="midnightblue" stroke="midnightblue" points="562.768,-32.0609 561.542,-21.5372 555.938,-30.528 562.768,-32.0609"/>
</g>
<!-- Node15 -->
<g id="node31" class="node"><title>Node15</title>
<polygon fill="white" stroke="#bfbfbf" points="592.312,-174.5 592.312,-195.5 744.312,-195.5 744.312,-174.5 592.312,-174.5"/>
<text text-anchor="middle" x="668.312" y="-182.5" font-family="Helvetica,sans-Serif" font-size="10.00">ocra&#45;recipes/ControllerServer.h</text>
</g>
<!-- Node14&#45;&gt;Node15 -->
<g id="edge32" class="edge"><title>Node14&#45;&gt;Node15</title>
<path fill="none" stroke="midnightblue" d="M830.456,-232.497C797.757,-222.918 749.286,-208.72 713.858,-198.342"/>
<polygon fill="midnightblue" stroke="midnightblue" points="714.816,-194.975 704.236,-195.523 712.848,-201.693 714.816,-194.975"/>
</g>
<!-- Node16 -->
<g id="node33" class="node"><title>Node16</title>
<polygon fill="white" stroke="#bfbfbf" points="610.812,-0.5 610.812,-21.5 683.812,-21.5 683.812,-0.5 610.812,-0.5"/>
<text text-anchor="middle" x="647.312" y="-8.5" font-family="Helvetica,sans-Serif" font-size="10.00">Eigen/Dense</text>
</g>
<!-- Node14&#45;&gt;Node16 -->
<g id="edge34" class="edge"><title>Node14&#45;&gt;Node16</title>
<path fill="none" stroke="midnightblue" d="M845.236,-232.4C829.411,-223.849 807.733,-210.832 791.312,-196 733.363,-143.66 681.394,-65.8649 658.989,-30.1657"/>
<polygon fill="midnightblue" stroke="midnightblue" points="661.953,-28.3047 653.708,-21.6519 656.005,-31.9947 661.953,-28.3047"/>
</g>
<!-- Node17 -->
<g id="node35" class="node"><title>Node17</title>
<a xlink:href="OcraWbiModel_8h.html" target="_top" xlink:title="Implementation of ocra::Model using wholeBodyInterface.">
<polygon fill="white" stroke="black" points="800.312,-174.5 800.312,-195.5 932.312,-195.5 932.312,-174.5 800.312,-174.5"/>
<text text-anchor="middle" x="866.312" y="-182.5" font-family="Helvetica,sans-Serif" font-size="10.00">ocra&#45;icub/OcraWbiModel.h</text>
</a>
</g>
<!-- Node14&#45;&gt;Node17 -->
<g id="edge36" class="edge"><title>Node14&#45;&gt;Node17</title>
<path fill="none" stroke="midnightblue" d="M866.312,-232.362C866.312,-224.922 866.312,-214.743 866.312,-205.728"/>
<polygon fill="midnightblue" stroke="midnightblue" points="869.812,-205.571 866.312,-195.571 862.812,-205.571 869.812,-205.571"/>
</g>
<!-- Node14&#45;&gt;Node40 -->
<g id="edge116" class="edge"><title>Node14&#45;&gt;Node40</title>
<path fill="none" stroke="midnightblue" d="M901.444,-232.497C933.345,-222.959 980.568,-208.841 1015.24,-198.475"/>
<polygon fill="midnightblue" stroke="midnightblue" points="1016.54,-201.741 1025.11,-195.523 1014.53,-195.034 1016.54,-201.741"/>
</g>
<!-- Node14&#45;&gt;Node41 -->
<g id="edge118" class="edge"><title>Node14&#45;&gt;Node41</title>
<path fill="none" stroke="midnightblue" d="M938.147,-232.498C999.26,-223.499 1089.65,-210.033 1177.37,-196.293"/>
<polygon fill="midnightblue" stroke="midnightblue" points="1178.16,-199.712 1187.49,-194.704 1177.07,-192.797 1178.16,-199.712"/>
</g>
<!-- Node17&#45;&gt;Node4 -->
<g id="edge44" class="edge"><title>Node17&#45;&gt;Node4</title>
<path fill="none" stroke="midnightblue" d="M826.523,-174.462C793.944,-165.56 746.793,-152.046 706.312,-138 616.255,-106.753 597.616,-88.5267 507.312,-58 466.653,-44.2553 419.555,-31.4721 385.258,-22.7179"/>
<polygon fill="midnightblue" stroke="midnightblue" points="386.047,-19.3073 375.494,-20.2461 384.329,-26.0932 386.047,-19.3073"/>
</g>
<!-- Node17&#45;&gt;Node7 -->
<g id="edge38" class="edge"><title>Node17&#45;&gt;Node7</title>
<path fill="none" stroke="midnightblue" d="M823.25,-174.445C796.877,-166.797 763.152,-154.827 736.312,-138 693.173,-110.955 698.406,-83.4583 654.312,-58 605.832,-30.0096 585.166,-37.8744 527.623,-22.2182"/>
<polygon fill="midnightblue" stroke="midnightblue" points="528.236,-18.7533 517.659,-19.3746 526.315,-25.4845 528.236,-18.7533"/>
</g>
<!-- Node17&#45;&gt;Node13 -->
<g id="edge42" class="edge"><title>Node17&#45;&gt;Node13</title>
<path fill="none" stroke="midnightblue" d="M833.92,-174.458C812.366,-166.495 784.114,-154.172 762.312,-138 724.366,-109.853 731.253,-84.752 692.312,-58 677.458,-47.7958 634.999,-33.1051 603.023,-22.8737"/>
<polygon fill="midnightblue" stroke="midnightblue" points="604.068,-19.5334 593.478,-19.8514 601.955,-26.2069 604.068,-19.5334"/>
</g>
<!-- Node18 -->
<g id="node38" class="node"><title>Node18</title>
<polygon fill="white" stroke="#bfbfbf" points="700.812,-0.5 700.812,-21.5 805.812,-21.5 805.812,-0.5 700.812,-0.5"/>
<text text-anchor="middle" x="753.312" y="-8.5" font-family="Helvetica,sans-Serif" font-size="10.00">ocra/control/Model.h</text>
</g>
<!-- Node17&#45;&gt;Node18 -->
<g id="edge40" class="edge"><title>Node17&#45;&gt;Node18</title>
<path fill="none" stroke="midnightblue" d="M831.769,-174.384C813.485,-167.024 792.207,-155.367 779.312,-138 755.949,-106.537 752.34,-59.1195 752.42,-32.0074"/>
<polygon fill="midnightblue" stroke="midnightblue" points="755.925,-31.8074 752.634,-21.7367 748.927,-31.6617 755.925,-31.8074"/>
</g>
<!-- Node19 -->
<g id="node42" class="node"><title>Node19</title>
<a xlink:href="OcraWbiConversions_8h.html" target="_top" xlink:title="A utility class full of static conversion functions.">
<polygon fill="white" stroke="black" points="787.812,-116.5 787.812,-137.5 948.812,-137.5 948.812,-116.5 787.812,-116.5"/>
<text text-anchor="middle" x="868.312" y="-124.5" font-family="Helvetica,sans-Serif" font-size="10.00">ocra&#45;icub/OcraWbiConversions.h</text>
</a>
</g>
<!-- Node17&#45;&gt;Node19 -->
<g id="edge46" class="edge"><title>Node17&#45;&gt;Node19</title>
<path fill="none" stroke="midnightblue" d="M866.679,-174.362C866.935,-166.922 867.286,-156.743 867.597,-147.728"/>
<polygon fill="midnightblue" stroke="midnightblue" points="871.101,-147.685 867.947,-137.571 864.105,-147.444 871.101,-147.685"/>
</g>
<!-- Node17&#45;&gt;Node23 -->
<g id="edge114" class="edge"><title>Node17&#45;&gt;Node23</title>
<path fill="none" stroke="midnightblue" d="M908.81,-174.398C994.256,-153.083 1186.59,-105.102 1279.35,-81.963"/>
<polygon fill="midnightblue" stroke="midnightblue" points="1280.23,-85.3516 1289.08,-79.5352 1278.53,-78.5597 1280.23,-85.3516"/>
</g>
<!-- Node19&#45;&gt;Node4 -->
<g id="edge56" class="edge"><title>Node19&#45;&gt;Node4</title>
<path fill="none" stroke="midnightblue" d="M841.05,-116.462C800.804,-101.308 722.849,-73.4867 654.312,-58 539.341,-32.021 505.182,-43.1878 385.39,-22.0474"/>
<polygon fill="midnightblue" stroke="midnightblue" points="385.929,-18.5882 375.466,-20.2574 384.686,-25.477 385.929,-18.5882"/>
</g>
<!-- Node19&#45;&gt;Node6 -->
<g id="edge48" class="edge"><title>Node19&#45;&gt;Node6</title>
<path fill="none" stroke="midnightblue" d="M862.314,-116.369C852.752,-100.559 832.436,-71.2911 806.312,-58 669.795,11.4556 611.973,-50.3483 457.519,-21.8736"/>
<polygon fill="midnightblue" stroke="midnightblue" points="458.172,-18.4352 447.688,-19.9643 456.838,-25.3068 458.172,-18.4352"/>
</g>
<!-- Node19&#45;&gt;Node11 -->
<g id="edge60" class="edge"><title>Node19&#45;&gt;Node11</title>
<path fill="none" stroke="midnightblue" d="M787.783,-117.487C702.689,-107.436 568.379,-91.5701 476.74,-80.7451"/>
<polygon fill="midnightblue" stroke="midnightblue" points="476.961,-77.2469 466.619,-79.5495 476.14,-84.1986 476.961,-77.2469"/>
</g>
<!-- Node19&#45;&gt;Node13 -->
<g id="edge58" class="edge"><title>Node19&#45;&gt;Node13</title>
<path fill="none" stroke="midnightblue" d="M867.891,-116.474C866.667,-101.074 861.99,-72.6457 844.312,-58 804.57,-25.0749 670.093,-32.6577 603.714,-21.8259"/>
<polygon fill="midnightblue" stroke="midnightblue" points="604.148,-18.3458 593.671,-19.9204 602.843,-25.2231 604.148,-18.3458"/>
</g>
<!-- Node20 -->
<g id="node45" class="node"><title>Node20</title>
<polygon fill="white" stroke="#bfbfbf" points="895.812,-58.5 895.812,-79.5 930.812,-79.5 930.812,-58.5 895.812,-58.5"/>
<text text-anchor="middle" x="913.312" y="-66.5" font-family="Helvetica,sans-Serif" font-size="10.00">map</text>
</g>
<!-- Node19&#45;&gt;Node20 -->
<g id="edge50" class="edge"><title>Node19&#45;&gt;Node20</title>
<path fill="none" stroke="midnightblue" d="M876.566,-116.362C882.782,-108.35 891.463,-97.1605 898.827,-87.6696"/>
<polygon fill="midnightblue" stroke="midnightblue" points="901.746,-89.617 905.111,-79.5707 896.215,-85.326 901.746,-89.617"/>
</g>
<!-- Node21 -->
<g id="node47" class="node"><title>Node21</title>
<polygon fill="white" stroke="#bfbfbf" points="823.312,-0.5 823.312,-21.5 867.312,-21.5 867.312,-0.5 823.312,-0.5"/>
<text text-anchor="middle" x="845.312" y="-8.5" font-family="Helvetica,sans-Serif" font-size="10.00">vector</text>
</g>
<!-- Node19&#45;&gt;Node21 -->
<g id="edge52" class="edge"><title>Node19&#45;&gt;Node21</title>
<path fill="none" stroke="midnightblue" d="M894.03,-116.411C920.006,-104.078 954.313,-82.2714 939.312,-58 932.188,-46.4731 901.686,-32.4999 877.332,-22.7996"/>
<polygon fill="midnightblue" stroke="midnightblue" points="878.282,-19.4137 867.694,-19.051 875.745,-25.9377 878.282,-19.4137"/>
</g>
<!-- Node22 -->
<g id="node49" class="node"><title>Node22</title>
<polygon fill="white" stroke="#bfbfbf" points="884.812,-0.5 884.812,-21.5 975.812,-21.5 975.812,-0.5 884.812,-0.5"/>
<text text-anchor="middle" x="930.312" y="-8.5" font-family="Helvetica,sans-Serif" font-size="10.00">yarp/sig/Vector.h</text>
</g>
<!-- Node19&#45;&gt;Node22 -->
<g id="edge54" class="edge"><title>Node19&#45;&gt;Node22</title>
<path fill="none" stroke="midnightblue" d="M906.074,-116.347C924.023,-109.176 943.81,-97.7078 954.312,-80 963.635,-64.281 954.859,-44.397 945.405,-30.0166"/>
<polygon fill="midnightblue" stroke="midnightblue" points="948.244,-27.9688 939.587,-21.8605 942.545,-32.034 948.244,-27.9688"/>
</g>
<!-- Node19&#45;&gt;Node23 -->
<g id="edge62" class="edge"><title>Node19&#45;&gt;Node23</title>
<path fill="none" stroke="midnightblue" d="M948.96,-116.897C1040.61,-105.416 1188.14,-86.9358 1270.58,-76.6085"/>
<polygon fill="midnightblue" stroke="midnightblue" points="1271.06,-80.0758 1280.54,-75.3599 1270.18,-73.1301 1271.06,-80.0758"/>
</g>
<!-- Node23&#45;&gt;Node2 -->
<g id="edge82" class="edge"><title>Node23&#45;&gt;Node2</title>
<path fill="none" stroke="midnightblue" d="M1280.66,-66.993C1129.88,-60.9589 670.827,-42.1513 290.312,-22 255.562,-20.1597 217.075,-17.8578 184.558,-15.836"/>
<polygon fill="midnightblue" stroke="midnightblue" points="184.421,-12.3208 174.223,-15.1904 183.985,-19.3071 184.421,-12.3208"/>
</g>
<!-- Node23&#45;&gt;Node4 -->
<g id="edge94" class="edge"><title>Node23&#45;&gt;Node4</title>
<path fill="none" stroke="midnightblue" d="M1280.6,-67.6903C1113.3,-63.184 579.085,-47.2653 385.484,-21.8967"/>
<polygon fill="midnightblue" stroke="midnightblue" points="385.804,-18.4081 375.423,-20.526 384.859,-25.344 385.804,-18.4081"/>
</g>
<!-- Node23&#45;&gt;Node6 -->
<g id="edge68" class="edge"><title>Node23&#45;&gt;Node6</title>
<path fill="none" stroke="midnightblue" d="M1280.76,-67.8965C1122.25,-64.1878 635.438,-50.8461 457.661,-21.8147"/>
<polygon fill="midnightblue" stroke="midnightblue" points="458.108,-18.3405 447.662,-20.1062 456.929,-25.2405 458.108,-18.3405"/>
</g>
<!-- Node23&#45;&gt;Node7 -->
<g id="edge64" class="edge"><title>Node23&#45;&gt;Node7</title>
<path fill="none" stroke="midnightblue" d="M1280.81,-67.6772C1131.14,-63.5056 690.754,-49.3547 527.401,-21.7468"/>
<polygon fill="midnightblue" stroke="midnightblue" points="527.967,-18.2927 517.51,-19.995 526.747,-25.1854 527.967,-18.2927"/>
</g>
<!-- Node23&#45;&gt;Node13 -->
<g id="edge104" class="edge"><title>Node23&#45;&gt;Node13</title>
<path fill="none" stroke="midnightblue" d="M1280.59,-67.1661C1140.94,-61.8942 751.915,-45.6509 603.859,-21.8911"/>
<polygon fill="midnightblue" stroke="midnightblue" points="604.065,-18.3765 593.622,-20.1675 602.902,-25.2794 604.065,-18.3765"/>
</g>
<!-- Node23&#45;&gt;Node16 -->
<g id="edge110" class="edge"><title>Node23&#45;&gt;Node16</title>
<path fill="none" stroke="midnightblue" d="M1280.45,-68.1258C1173.41,-65.6681 916.975,-56.5327 693.971,-22.0616"/>
<polygon fill="midnightblue" stroke="midnightblue" points="694.469,-18.5971 684.048,-20.5074 693.386,-25.5128 694.469,-18.5971"/>
</g>
<!-- Node23&#45;&gt;Node18 -->
<g id="edge106" class="edge"><title>Node23&#45;&gt;Node18</title>
<path fill="none" stroke="midnightblue" d="M1280.51,-65.8667C1189.39,-59.9228 991.956,-45.5745 815.805,-22.1142"/>
<polygon fill="midnightblue" stroke="midnightblue" points="816.215,-18.638 805.838,-20.7739 815.282,-25.5756 816.215,-18.638"/>
</g>
<!-- Node23&#45;&gt;Node21 -->
<g id="edge72" class="edge"><title>Node23&#45;&gt;Node21</title>
<path fill="none" stroke="midnightblue" d="M1280.52,-67.6854C1197.59,-64.6862 1028.08,-54.989 877.374,-21.7979"/>
<polygon fill="midnightblue" stroke="midnightblue" points="878,-18.3513 867.476,-19.5775 876.467,-25.1815 878,-18.3513"/>
</g>
<!-- Node23&#45;&gt;Node22 -->
<g id="edge100" class="edge"><title>Node23&#45;&gt;Node22</title>
<path fill="none" stroke="midnightblue" d="M1280.58,-63.1979C1214.83,-55.4406 1096.4,-40.6655 985.918,-22.1976"/>
<polygon fill="midnightblue" stroke="midnightblue" points="986.38,-18.7263 975.937,-20.5155 985.216,-25.6289 986.38,-18.7263"/>
</g>
<!-- Node24 -->
<g id="node57" class="node"><title>Node24</title>
<polygon fill="white" stroke="#bfbfbf" points="1051.31,-0.5 1051.31,-21.5 1095.31,-21.5 1095.31,-0.5 1051.31,-0.5"/>
<text text-anchor="middle" x="1073.31" y="-8.5" font-family="Helvetica,sans-Serif" font-size="10.00">cmath</text>
</g>
<!-- Node23&#45;&gt;Node24 -->
<g id="edge66" class="edge"><title>Node23&#45;&gt;Node24</title>
<path fill="none" stroke="midnightblue" d="M1280.57,-59.3346C1228.38,-49.2545 1149.62,-33.6285 1105.47,-22.0116"/>
<polygon fill="midnightblue" stroke="midnightblue" points="1106.12,-18.5605 1095.55,-19.2999 1104.27,-25.3128 1106.12,-18.5605"/>
</g>
<!-- Node23&#45;&gt;Node25 -->
<g id="edge70" class="edge"><title>Node23&#45;&gt;Node25</title>
<path fill="none" stroke="midnightblue" d="M1280.67,-60.2395C1276.15,-59.4755 1271.65,-58.7197 1267.31,-58 1170.53,-41.9405 1141.94,-47.6995 1043.78,-22.0322"/>
<polygon fill="midnightblue" stroke="midnightblue" points="1044.62,-18.6346 1034.05,-19.4484 1042.82,-25.3997 1044.62,-18.6346"/>
</g>
<!-- Node23&#45;&gt;Node26 -->
<g id="edge74" class="edge"><title>Node23&#45;&gt;Node26</title>
<path fill="none" stroke="midnightblue" d="M1381.89,-59.7093C1386.42,-59.0585 1390.94,-58.4738 1395.31,-58 1740.1,-20.6305 1835.71,-81.8157 2181.09,-21.7964"/>
<polygon fill="midnightblue" stroke="midnightblue" points="2181.88,-25.2116 2191.12,-20.0317 2180.67,-18.3175 2181.88,-25.2116"/>
</g>
<!-- Node27 -->
<g id="node65" class="node"><title>Node27</title>
<polygon fill="white" stroke="#bfbfbf" points="1112.81,-0.5 1112.81,-21.5 1227.81,-21.5 1227.81,-0.5 1112.81,-0.5"/>
<text text-anchor="middle" x="1170.31" y="-8.5" font-family="Helvetica,sans-Serif" font-size="10.00">yarp/os/BufferedPort.h</text>
</g>
<!-- Node23&#45;&gt;Node27 -->
<g id="edge76" class="edge"><title>Node23&#45;&gt;Node27</title>
<path fill="none" stroke="midnightblue" d="M1302.16,-58.4966C1276.14,-49.1229 1237.83,-35.3242 1209.21,-25.0122"/>
<polygon fill="midnightblue" stroke="midnightblue" points="1210.12,-21.6195 1199.52,-21.5231 1207.74,-28.2052 1210.12,-21.6195"/>
</g>
<!-- Node23&#45;&gt;Node28 -->
<g id="edge78" class="edge"><title>Node23&#45;&gt;Node28</title>
<path fill="none" stroke="midnightblue" d="M1381.84,-62.9095C1398.24,-61.1045 1416.53,-59.2725 1433.31,-58 1793.34,-30.7018 1889.13,-67.1875 2251.3,-21.9318"/>
<polygon fill="midnightblue" stroke="midnightblue" points="2251.79,-25.3981 2261.27,-20.6737 2250.92,-18.4532 2251.79,-25.3981"/>
</g>
<!-- Node29 -->
<g id="node69" class="node"><title>Node29</title>
<polygon fill="white" stroke="#bfbfbf" points="1244.81,-0.5 1244.81,-21.5 1355.81,-21.5 1355.81,-0.5 1244.81,-0.5"/>
<text text-anchor="middle" x="1300.31" y="-8.5" font-family="Helvetica,sans-Serif" font-size="10.00">yarp/os/RateThread.h</text>
</g>
<!-- Node23&#45;&gt;Node29 -->
<g id="edge80" class="edge"><title>Node23&#45;&gt;Node29</title>
<path fill="none" stroke="midnightblue" d="M1325.63,-58.3619C1321.47,-50.5949 1315.73,-39.8426 1310.76,-30.5458"/>
<polygon fill="midnightblue" stroke="midnightblue" points="1313.76,-28.7401 1305.96,-21.5707 1307.59,-32.0398 1313.76,-28.7401"/>
</g>
<!-- Node30 -->
<g id="node72" class="node"><title>Node30</title>
<polygon fill="white" stroke="#bfbfbf" points="1373.31,-0.5 1373.31,-21.5 1483.31,-21.5 1483.31,-0.5 1373.31,-0.5"/>
<text text-anchor="middle" x="1428.31" y="-8.5" font-family="Helvetica,sans-Serif" font-size="10.00">yarp/os/PortReader.h</text>
</g>
<!-- Node23&#45;&gt;Node30 -->
<g id="edge84" class="edge"><title>Node23&#45;&gt;Node30</title>
<path fill="none" stroke="midnightblue" d="M1349.1,-58.3619C1363.87,-49.532 1385.09,-36.844 1401.85,-26.8224"/>
<polygon fill="midnightblue" stroke="midnightblue" points="1403.85,-29.7066 1410.63,-21.5707 1400.25,-23.6987 1403.85,-29.7066"/>
</g>
<!-- Node31 -->
<g id="node74" class="node"><title>Node31</title>
<polygon fill="white" stroke="#bfbfbf" points="1501.31,-0.5 1501.31,-21.5 1605.31,-21.5 1605.31,-0.5 1501.31,-0.5"/>
<text text-anchor="middle" x="1553.31" y="-8.5" font-family="Helvetica,sans-Serif" font-size="10.00">yarp/os/RpcClient.h</text>
</g>
<!-- Node23&#45;&gt;Node31 -->
<g id="edge86" class="edge"><title>Node23&#45;&gt;Node31</title>
<path fill="none" stroke="midnightblue" d="M1371.51,-58.4966C1408.49,-48.8364 1463.45,-34.4765 1503.26,-24.0765"/>
<polygon fill="midnightblue" stroke="midnightblue" points="1504.24,-27.4372 1513.03,-21.5231 1502.47,-20.6646 1504.24,-27.4372"/>
</g>
<!-- Node23&#45;&gt;Node32 -->
<g id="edge88" class="edge"><title>Node23&#45;&gt;Node32</title>
<path fill="none" stroke="midnightblue" d="M1381.83,-64.5682C1408.43,-62.3509 1441.62,-59.7697 1471.31,-58 1860.92,-34.7783 1963.21,-63.9739 2354.43,-22.0844"/>
<polygon fill="midnightblue" stroke="midnightblue" points="2355.04,-25.5386 2364.61,-20.9854 2354.29,-18.579 2355.04,-25.5386"/>
</g>
<!-- Node23&#45;&gt;Node33 -->
<g id="edge90" class="edge"><title>Node23&#45;&gt;Node33</title>
<path fill="none" stroke="midnightblue" d="M1381.93,-65.5386C1417.54,-63.185 1466.33,-60.1247 1509.31,-58 1937.27,-36.8466 2048.39,-59.4679 2478.5,-22.0849"/>
<polygon fill="midnightblue" stroke="midnightblue" points="2479.06,-25.5491 2488.72,-21.1906 2478.45,-18.5757 2479.06,-25.5491"/>
</g>
<!-- Node23&#45;&gt;Node34 -->
<g id="edge92" class="edge"><title>Node23&#45;&gt;Node34</title>
<path fill="none" stroke="midnightblue" d="M1381.93,-66.166C1425.69,-63.7768 1490.66,-60.3769 1547.31,-58 2028.72,-37.8008 2155.21,-81.7662 2637.21,-21.9185"/>
<polygon fill="midnightblue" stroke="midnightblue" points="2637.73,-25.3814 2647.22,-20.6679 2636.86,-18.4355 2637.73,-25.3814"/>
</g>
<!-- Node35 -->
<g id="node83" class="node"><title>Node35</title>
<polygon fill="white" stroke="#bfbfbf" points="1622.81,-0.5 1622.81,-21.5 1729.81,-21.5 1729.81,-0.5 1622.81,-0.5"/>
<text text-anchor="middle" x="1676.31" y="-8.5" font-family="Helvetica,sans-Serif" font-size="10.00">yarp/os/LogStream.h</text>
</g>
<!-- Node23&#45;&gt;Node35 -->
<g id="edge96" class="edge"><title>Node23&#45;&gt;Node35</title>
<path fill="none" stroke="midnightblue" d="M1381.96,-60.2595C1386.48,-59.4912 1390.98,-58.729 1395.31,-58 1489.45,-42.1726 1515.43,-38.8252 1612.6,-22.279"/>
<polygon fill="midnightblue" stroke="midnightblue" points="1613.28,-25.7135 1622.55,-20.5812 1612.1,-18.8133 1613.28,-25.7135"/>
</g>
<!-- Node36 -->
<g id="node85" class="node"><title>Node36</title>
<polygon fill="white" stroke="#bfbfbf" points="1746.81,-0.5 1746.81,-21.5 1843.81,-21.5 1843.81,-0.5 1746.81,-0.5"/>
<text text-anchor="middle" x="1795.31" y="-8.5" font-family="Helvetica,sans-Serif" font-size="10.00">yarp/os/Property.h</text>
</g>
<!-- Node23&#45;&gt;Node36 -->
<g id="edge98" class="edge"><title>Node23&#45;&gt;Node36</title>
<path fill="none" stroke="midnightblue" d="M1381.92,-59.9862C1386.44,-59.2762 1390.96,-58.6022 1395.31,-58 1543.89,-37.4574 1584.95,-44.2326 1736.4,-22.1921"/>
<polygon fill="midnightblue" stroke="midnightblue" points="1737.16,-25.6186 1746.54,-20.698 1736.14,-18.6934 1737.16,-25.6186"/>
</g>
<!-- Node37 -->
<g id="node88" class="node"><title>Node37</title>
<polygon fill="white" stroke="#bfbfbf" points="1860.81,-0.5 1860.81,-21.5 1949.81,-21.5 1949.81,-0.5 1860.81,-0.5"/>
<text text-anchor="middle" x="1905.31" y="-8.5" font-family="Helvetica,sans-Serif" font-size="10.00">yarp/sig/Matrix.h</text>
</g>
<!-- Node23&#45;&gt;Node37 -->
<g id="edge102" class="edge"><title>Node23&#45;&gt;Node37</title>
<path fill="none" stroke="midnightblue" d="M1381.9,-59.8642C1386.43,-59.1803 1390.95,-58.5456 1395.31,-58 1594.22,-33.125 1648.86,-50.1886 1850.53,-22.117"/>
<polygon fill="midnightblue" stroke="midnightblue" points="1851.15,-25.5649 1860.56,-20.7011 1850.17,-18.6336 1851.15,-25.5649"/>
</g>
<!-- Node38 -->
<g id="node92" class="node"><title>Node38</title>
<polygon fill="white" stroke="#bfbfbf" points="1966.81,-0.5 1966.81,-21.5 2087.81,-21.5 2087.81,-0.5 1966.81,-0.5"/>
<text text-anchor="middle" x="2027.31" y="-8.5" font-family="Helvetica,sans-Serif" font-size="10.00">ocra/util/StringUtilities.h</text>
</g>
<!-- Node23&#45;&gt;Node38 -->
<g id="edge108" class="edge"><title>Node23&#45;&gt;Node38</title>
<path fill="none" stroke="midnightblue" d="M1381.9,-59.7948C1386.42,-59.1257 1390.95,-58.5134 1395.31,-58 1641.05,-29.1086 1707.38,-49.2214 1956.68,-22.0945"/>
<polygon fill="midnightblue" stroke="midnightblue" points="1957.22,-25.5568 1966.77,-20.9817 1956.45,-18.599 1957.22,-25.5568"/>
</g>
<!-- Node39 -->
<g id="node95" class="node"><title>Node39</title>
<polygon fill="white" stroke="#bfbfbf" points="2105.31,-0.5 2105.31,-21.5 2173.31,-21.5 2173.31,-0.5 2105.31,-0.5"/>
<text text-anchor="middle" x="2139.31" y="-8.5" font-family="Helvetica,sans-Serif" font-size="10.00">Eigen/Lgsm</text>
</g>
<!-- Node23&#45;&gt;Node39 -->
<g id="edge112" class="edge"><title>Node23&#45;&gt;Node39</title>
<path fill="none" stroke="midnightblue" d="M1381.89,-59.7357C1386.42,-59.0792 1390.94,-58.486 1395.31,-58 1702.04,-23.8873 1786.09,-67.9244 2095.03,-21.9182"/>
<polygon fill="midnightblue" stroke="midnightblue" points="2095.81,-25.3404 2105.17,-20.3874 2094.76,-18.4188 2095.81,-25.3404"/>
</g>
</g>
</svg>
