<?xml version="1.0" encoding="UTF-8" standalone="no"?>
<!DOCTYPE svg PUBLIC "-//W3C//DTD SVG 1.1//EN"
 "http://www.w3.org/Graphics/SVG/1.1/DTD/svg11.dtd">
<!-- Generated by graphviz version 2.26.3 (20100126.1600)
 -->
<!-- Title: G Pages: 1 -->
<svg width="701pt" height="320pt"
 viewBox="0.00 0.00 701.00 320.00" xmlns="http://www.w3.org/2000/svg" xmlns:xlink="http://www.w3.org/1999/xlink">
<g id="graph1" class="graph" transform="scale(1 1) rotate(0) translate(4 316)">
<title>G</title>
<polygon fill="white" stroke="white" points="-4,5 -4,-316 698,-316 698,5 -4,5"/>
<!-- Node1 -->
<g id="node1" class="node"><title>Node1</title>
<polygon fill="#bfbfbf" stroke="black" points="119,-290.5 119,-311.5 459,-311.5 459,-290.5 119,-290.5"/>
<text text-anchor="middle" x="289" y="-298.5" font-family="Helvetica,sans-Serif" font-size="10.00">ocra&#45;wbi&#45;plugins/ocra&#45;icub&#45;clients/walking&#45;client/src/ShapeConstraints.cpp</text>
</g>
<!-- Node2 -->
<g id="node3" class="node"><title>Node2</title>
<a xlink:href="ShapeConstraints_8h.html" target="_top" xlink:title="walking&#45;client/constraints/ShapeConstraints.h">
<polygon fill="white" stroke="black" points="181,-232.5 181,-253.5 397,-253.5 397,-232.5 181,-232.5"/>
<text text-anchor="middle" x="289" y="-240.5" font-family="Helvetica,sans-Serif" font-size="10.00">walking&#45;client/constraints/ShapeConstraints.h</text>
</a>
</g>
<!-- Node1&#45;&gt;Node2 -->
<g id="edge2" class="edge"><title>Node1&#45;&gt;Node2</title>
<path fill="none" stroke="midnightblue" d="M289,-290.362C289,-282.922 289,-272.743 289,-263.728"/>
<polygon fill="midnightblue" stroke="midnightblue" points="292.5,-263.571 289,-253.571 285.5,-263.571 292.5,-263.571"/>
</g>
<!-- Node3 -->
<g id="node5" class="node"><title>Node3</title>
<a xlink:href="Constraint_8h.html" target="_top" xlink:title="A constraint base class.">
<polygon fill="white" stroke="black" points="197.5,-116.5 197.5,-137.5 380.5,-137.5 380.5,-116.5 197.5,-116.5"/>
<text text-anchor="middle" x="289" y="-124.5" font-family="Helvetica,sans-Serif" font-size="10.00">walking&#45;client/constraints/Constraint.h</text>
</a>
</g>
<!-- Node2&#45;&gt;Node3 -->
<g id="edge4" class="edge"><title>Node2&#45;&gt;Node3</title>
<path fill="none" stroke="midnightblue" d="M199.348,-232.487C154.045,-225.136 105.781,-213.455 92,-196 85.9412,-188.326 85.9412,-181.674 92,-174 104.758,-157.84 147.07,-146.63 189.227,-139.222"/>
<polygon fill="midnightblue" stroke="midnightblue" points="190.07,-142.629 199.348,-137.513 188.905,-135.727 190.07,-142.629"/>
</g>
<!-- Node10 -->
<g id="node19" class="node"><title>Node10</title>
<a xlink:href="Bounding_8h.html" target="_top" xlink:title="walking&#45;client/constraints/Bounding.h">
<polygon fill="white" stroke="black" points="100.5,-174.5 100.5,-195.5 279.5,-195.5 279.5,-174.5 100.5,-174.5"/>
<text text-anchor="middle" x="190" y="-182.5" font-family="Helvetica,sans-Serif" font-size="10.00">walking&#45;client/constraints/Bounding.h</text>
</a>
</g>
<!-- Node2&#45;&gt;Node10 -->
<g id="edge18" class="edge"><title>Node2&#45;&gt;Node10</title>
<path fill="none" stroke="midnightblue" d="M270.842,-232.362C255.77,-223.532 234.113,-210.844 217.007,-200.822"/>
<polygon fill="midnightblue" stroke="midnightblue" points="218.441,-197.606 208.043,-195.571 214.902,-203.646 218.441,-197.606"/>
</g>
<!-- Node11 -->
<g id="node22" class="node"><title>Node11</title>
<a xlink:href="Constancy_8h.html" target="_top" xlink:title="walking&#45;client/constraints/Constancy.h">
<polygon fill="white" stroke="black" points="296.5,-174.5 296.5,-195.5 481.5,-195.5 481.5,-174.5 296.5,-174.5"/>
<text text-anchor="middle" x="389" y="-182.5" font-family="Helvetica,sans-Serif" font-size="10.00">walking&#45;client/constraints/Constancy.h</text>
</a>
</g>
<!-- Node2&#45;&gt;Node11 -->
<g id="edge22" class="edge"><title>Node2&#45;&gt;Node11</title>
<path fill="none" stroke="midnightblue" d="M307.342,-232.362C322.566,-223.532 344.441,-210.844 361.72,-200.822"/>
<polygon fill="midnightblue" stroke="midnightblue" points="363.88,-203.615 370.775,-195.571 360.368,-197.56 363.88,-203.615"/>
</g>
<!-- Node12 -->
<g id="node25" class="node"><title>Node12</title>
<a xlink:href="Sequentiality_8h.html" target="_top" xlink:title="walking&#45;client/constraints/Sequentiality.h">
<polygon fill="white" stroke="black" points="499,-174.5 499,-195.5 693,-195.5 693,-174.5 499,-174.5"/>
<text text-anchor="middle" x="596" y="-182.5" font-family="Helvetica,sans-Serif" font-size="10.00">walking&#45;client/constraints/Sequentiality.h</text>
</a>
</g>
<!-- Node2&#45;&gt;Node12 -->
<g id="edge26" class="edge"><title>Node2&#45;&gt;Node12</title>
<path fill="none" stroke="midnightblue" d="M344.595,-232.497C396.811,-222.632 474.968,-207.866 530.255,-197.421"/>
<polygon fill="midnightblue" stroke="midnightblue" points="531.124,-200.819 540.3,-195.523 529.824,-193.94 531.124,-200.819"/>
</g>
<!-- Node4 -->
<g id="node7" class="node"><title>Node4</title>
<a xlink:href="utils_8h.html" target="_top" xlink:title="walking&#45;client/utils.h">
<polygon fill="white" stroke="black" points="-0.5,-58.5 -0.5,-79.5 104.5,-79.5 104.5,-58.5 -0.5,-58.5"/>
<text text-anchor="middle" x="52" y="-66.5" font-family="Helvetica,sans-Serif" font-size="10.00">walking&#45;client/utils.h</text>
</a>
</g>
<!-- Node3&#45;&gt;Node4 -->
<g id="edge6" class="edge"><title>Node3&#45;&gt;Node4</title>
<path fill="none" stroke="midnightblue" d="M246.081,-116.497C206.44,-106.795 147.432,-92.3547 104.894,-81.9445"/>
<polygon fill="midnightblue" stroke="midnightblue" points="105.545,-78.5006 94.9994,-79.5231 103.881,-85.2999 105.545,-78.5006"/>
</g>
<!-- Node6 -->
<g id="node11" class="node"><title>Node6</title>
<polygon fill="white" stroke="#bfbfbf" points="121.5,-58.5 121.5,-79.5 186.5,-79.5 186.5,-58.5 121.5,-58.5"/>
<text text-anchor="middle" x="154" y="-66.5" font-family="Helvetica,sans-Serif" font-size="10.00">Eigen/Core</text>
</g>
<!-- Node3&#45;&gt;Node6 -->
<g id="edge10" class="edge"><title>Node3&#45;&gt;Node6</title>
<path fill="none" stroke="midnightblue" d="M264.553,-116.497C243.182,-107.315 211.931,-93.8889 188.103,-83.6516"/>
<polygon fill="midnightblue" stroke="midnightblue" points="189.291,-80.3529 178.722,-79.6212 186.528,-86.7845 189.291,-80.3529"/>
</g>
<!-- Node7 -->
<g id="node13" class="node"><title>Node7</title>
<polygon fill="white" stroke="#bfbfbf" points="204,-58.5 204,-79.5 374,-79.5 374,-58.5 204,-58.5"/>
<text text-anchor="middle" x="289" y="-66.5" font-family="Helvetica,sans-Serif" font-size="10.00">unsupported/Eigen/MatrixFunctions</text>
</g>
<!-- Node3&#45;&gt;Node7 -->
<g id="edge12" class="edge"><title>Node3&#45;&gt;Node7</title>
<path fill="none" stroke="midnightblue" d="M289,-116.362C289,-108.922 289,-98.7427 289,-89.7276"/>
<polygon fill="midnightblue" stroke="midnightblue" points="292.5,-89.5706 289,-79.5707 285.5,-89.5707 292.5,-89.5706"/>
</g>
<!-- Node8 -->
<g id="node15" class="node"><title>Node8</title>
<polygon fill="white" stroke="#bfbfbf" points="391.5,-58.5 391.5,-79.5 508.5,-79.5 508.5,-58.5 391.5,-58.5"/>
<text text-anchor="middle" x="450" y="-66.5" font-family="Helvetica,sans-Serif" font-size="10.00">ocra/util/ErrorsHelper.h</text>
</g>
<!-- Node3&#45;&gt;Node8 -->
<g id="edge14" class="edge"><title>Node3&#45;&gt;Node8</title>
<path fill="none" stroke="midnightblue" d="M318.156,-116.497C344.176,-107.123 382.479,-93.3242 411.104,-83.0122"/>
<polygon fill="midnightblue" stroke="midnightblue" points="412.568,-86.2052 420.789,-79.5231 410.195,-79.6195 412.568,-86.2052"/>
</g>
<!-- Node9 -->
<g id="node17" class="node"><title>Node9</title>
<polygon fill="white" stroke="#bfbfbf" points="526,-58.5 526,-79.5 578,-79.5 578,-58.5 526,-58.5"/>
<text text-anchor="middle" x="552" y="-66.5" font-family="Helvetica,sans-Serif" font-size="10.00">memory</text>
</g>
<!-- Node3&#45;&gt;Node9 -->
<g id="edge16" class="edge"><title>Node3&#45;&gt;Node9</title>
<path fill="none" stroke="midnightblue" d="M348.43,-116.456C392.316,-108.281 453.662,-96.0412 515.742,-80.157"/>
<polygon fill="midnightblue" stroke="midnightblue" points="516.906,-83.4712 525.709,-77.5765 515.151,-76.6947 516.906,-83.4712"/>
</g>
<!-- Node5 -->
<g id="node9" class="node"><title>Node5</title>
<polygon fill="white" stroke="#bfbfbf" points="31.5,-0.5 31.5,-21.5 72.5,-21.5 72.5,-0.5 31.5,-0.5"/>
<text text-anchor="middle" x="52" y="-8.5" font-family="Helvetica,sans-Serif" font-size="10.00">string</text>
</g>
<!-- Node4&#45;&gt;Node5 -->
<g id="edge8" class="edge"><title>Node4&#45;&gt;Node5</title>
<path fill="none" stroke="midnightblue" d="M52,-58.3619C52,-50.9219 52,-40.7427 52,-31.7276"/>
<polygon fill="midnightblue" stroke="midnightblue" points="55.5001,-31.5706 52,-21.5707 48.5001,-31.5707 55.5001,-31.5706"/>
</g>
<!-- Node10&#45;&gt;Node3 -->
<g id="edge20" class="edge"><title>Node10&#45;&gt;Node3</title>
<path fill="none" stroke="midnightblue" d="M208.158,-174.362C223.23,-165.532 244.887,-152.844 261.993,-142.822"/>
<polygon fill="midnightblue" stroke="midnightblue" points="264.098,-145.646 270.957,-137.571 260.559,-139.606 264.098,-145.646"/>
</g>
<!-- Node11&#45;&gt;Node3 -->
<g id="edge24" class="edge"><title>Node11&#45;&gt;Node3</title>
<path fill="none" stroke="midnightblue" d="M370.658,-174.362C355.434,-165.532 333.559,-152.844 316.28,-142.822"/>
<polygon fill="midnightblue" stroke="midnightblue" points="317.632,-139.56 307.225,-137.571 314.12,-145.615 317.632,-139.56"/>
</g>
<!-- Node12&#45;&gt;Node3 -->
<g id="edge28" class="edge"><title>Node12&#45;&gt;Node3</title>
<path fill="none" stroke="midnightblue" d="M540.405,-174.497C488.189,-164.632 410.032,-149.866 354.745,-139.421"/>
<polygon fill="midnightblue" stroke="midnightblue" points="355.176,-135.94 344.7,-137.523 353.876,-142.819 355.176,-135.94"/>
</g>
</g>
</svg>
