<?xml version="1.0" encoding="UTF-8" standalone="no"?>
<!DOCTYPE svg PUBLIC "-//W3C//DTD SVG 1.1//EN"
 "http://www.w3.org/Graphics/SVG/1.1/DTD/svg11.dtd">
<!-- Generated by graphviz version 2.26.3 (20100126.1600)
 -->
<!-- Title: G Pages: 1 -->
<svg width="787pt" height="262pt"
 viewBox="0.00 0.00 787.00 262.00" xmlns="http://www.w3.org/2000/svg" xmlns:xlink="http://www.w3.org/1999/xlink">
<g id="graph1" class="graph" transform="scale(1 1) rotate(0) translate(4 258)">
<title>G</title>
<polygon fill="white" stroke="white" points="-4,5 -4,-258 784,-258 784,5 -4,5"/>
<!-- Node1 -->
<g id="node1" class="node"><title>Node1</title>
<polygon fill="#bfbfbf" stroke="black" points="209,-232.5 209,-253.5 549,-253.5 549,-232.5 209,-232.5"/>
<text text-anchor="middle" x="379" y="-240.5" font-family="Helvetica,sans-Serif" font-size="10.00">ocra&#45;wbi&#45;plugins/ocra&#45;icub&#45;clients/walking&#45;client/src/ShapeConstraints.cpp</text>
</g>
<!-- Node2 -->
<g id="node3" class="node"><title>Node2</title>
<a xlink:href="ShapeConstraints_8h.html" target="_top" xlink:title="walking&#45;client/constraints/ShapeConstraints.h">
<polygon fill="white" stroke="black" points="271,-174.5 271,-195.5 487,-195.5 487,-174.5 271,-174.5"/>
<text text-anchor="middle" x="379" y="-182.5" font-family="Helvetica,sans-Serif" font-size="10.00">walking&#45;client/constraints/ShapeConstraints.h</text>
</a>
</g>
<!-- Node1&#45;&gt;Node2 -->
<g id="edge2" class="edge"><title>Node1&#45;&gt;Node2</title>
<path fill="none" stroke="midnightblue" d="M379,-232.362C379,-224.922 379,-214.743 379,-205.728"/>
<polygon fill="midnightblue" stroke="midnightblue" points="382.5,-205.571 379,-195.571 375.5,-205.571 382.5,-205.571"/>
</g>
<!-- Node3 -->
<g id="node5" class="node"><title>Node3</title>
<a xlink:href="Constraint_8h.html" target="_top" xlink:title="A constraint base class.">
<polygon fill="white" stroke="black" points="129.5,-58.5 129.5,-79.5 312.5,-79.5 312.5,-58.5 129.5,-58.5"/>
<text text-anchor="middle" x="221" y="-66.5" font-family="Helvetica,sans-Serif" font-size="10.00">walking&#45;client/constraints/Constraint.h</text>
</a>
</g>
<!-- Node2&#45;&gt;Node3 -->
<g id="edge4" class="edge"><title>Node2&#45;&gt;Node3</title>
<path fill="none" stroke="midnightblue" d="M289.348,-174.487C244.045,-167.136 195.781,-155.455 182,-138 169.293,-121.905 184.596,-101.167 199.604,-86.6453"/>
<polygon fill="midnightblue" stroke="midnightblue" points="202.228,-88.9905 207.276,-79.6756 197.521,-83.8094 202.228,-88.9905"/>
</g>
<!-- Node8 -->
<g id="node15" class="node"><title>Node8</title>
<a xlink:href="Bounding_8h.html" target="_top" xlink:title="walking&#45;client/constraints/Bounding.h">
<polygon fill="white" stroke="black" points="190.5,-116.5 190.5,-137.5 369.5,-137.5 369.5,-116.5 190.5,-116.5"/>
<text text-anchor="middle" x="280" y="-124.5" font-family="Helvetica,sans-Serif" font-size="10.00">walking&#45;client/constraints/Bounding.h</text>
</a>
</g>
<!-- Node2&#45;&gt;Node8 -->
<g id="edge14" class="edge"><title>Node2&#45;&gt;Node8</title>
<path fill="none" stroke="midnightblue" d="M360.842,-174.362C345.77,-165.532 324.113,-152.844 307.007,-142.822"/>
<polygon fill="midnightblue" stroke="midnightblue" points="308.441,-139.606 298.043,-137.571 304.902,-145.646 308.441,-139.606"/>
</g>
<!-- Node9 -->
<g id="node18" class="node"><title>Node9</title>
<polygon fill="white" stroke="#bfbfbf" points="386.5,-116.5 386.5,-137.5 569.5,-137.5 569.5,-116.5 386.5,-116.5"/>
<text text-anchor="middle" x="478" y="-124.5" font-family="Helvetica,sans-Serif" font-size="10.00">walking&#45;client/constraints/constancy.h</text>
</g>
<!-- Node2&#45;&gt;Node9 -->
<g id="edge18" class="edge"><title>Node2&#45;&gt;Node9</title>
<path fill="none" stroke="midnightblue" d="M397.158,-174.362C412.23,-165.532 433.887,-152.844 450.993,-142.822"/>
<polygon fill="midnightblue" stroke="midnightblue" points="453.098,-145.646 459.957,-137.571 449.559,-139.606 453.098,-145.646"/>
</g>
<!-- Node10 -->
<g id="node20" class="node"><title>Node10</title>
<polygon fill="white" stroke="#bfbfbf" points="586.5,-116.5 586.5,-137.5 779.5,-137.5 779.5,-116.5 586.5,-116.5"/>
<text text-anchor="middle" x="683" y="-124.5" font-family="Helvetica,sans-Serif" font-size="10.00">walking&#45;client/constraints/sequentiality.h</text>
</g>
<!-- Node2&#45;&gt;Node10 -->
<g id="edge20" class="edge"><title>Node2&#45;&gt;Node10</title>
<path fill="none" stroke="midnightblue" d="M434.052,-174.497C485.758,-164.632 563.151,-149.866 617.897,-139.421"/>
<polygon fill="midnightblue" stroke="midnightblue" points="618.678,-142.835 627.845,-137.523 617.366,-135.959 618.678,-142.835"/>
</g>
<!-- Node4 -->
<g id="node7" class="node"><title>Node4</title>
<a xlink:href="utils_8h.html" target="_top" xlink:title="walking&#45;client/utils.h">
<polygon fill="white" stroke="black" points="-0.5,-0.5 -0.5,-21.5 104.5,-21.5 104.5,-0.5 -0.5,-0.5"/>
<text text-anchor="middle" x="52" y="-8.5" font-family="Helvetica,sans-Serif" font-size="10.00">walking&#45;client/utils.h</text>
</a>
</g>
<!-- Node3&#45;&gt;Node4 -->
<g id="edge6" class="edge"><title>Node3&#45;&gt;Node4</title>
<path fill="none" stroke="midnightblue" d="M190.395,-58.4966C162.963,-49.082 122.524,-35.2036 92.4356,-24.8773"/>
<polygon fill="midnightblue" stroke="midnightblue" points="93.2567,-21.4588 82.662,-21.5231 90.9843,-28.0797 93.2567,-21.4588"/>
</g>
<!-- Node5 -->
<g id="node9" class="node"><title>Node5</title>
<polygon fill="white" stroke="#bfbfbf" points="121.5,-0.5 121.5,-21.5 186.5,-21.5 186.5,-0.5 121.5,-0.5"/>
<text text-anchor="middle" x="154" y="-8.5" font-family="Helvetica,sans-Serif" font-size="10.00">Eigen/Core</text>
</g>
<!-- Node3&#45;&gt;Node5 -->
<g id="edge8" class="edge"><title>Node3&#45;&gt;Node5</title>
<path fill="none" stroke="midnightblue" d="M208.711,-58.3619C198.983,-49.9408 185.202,-38.0105 173.905,-28.2308"/>
<polygon fill="midnightblue" stroke="midnightblue" points="176.062,-25.4695 166.211,-21.5707 171.481,-30.7619 176.062,-25.4695"/>
</g>
<!-- Node6 -->
<g id="node11" class="node"><title>Node6</title>
<polygon fill="white" stroke="#bfbfbf" points="204,-0.5 204,-21.5 374,-21.5 374,-0.5 204,-0.5"/>
<text text-anchor="middle" x="289" y="-8.5" font-family="Helvetica,sans-Serif" font-size="10.00">unsupported/Eigen/MatrixFunctions</text>
</g>
<!-- Node3&#45;&gt;Node6 -->
<g id="edge10" class="edge"><title>Node3&#45;&gt;Node6</title>
<path fill="none" stroke="midnightblue" d="M233.472,-58.3619C243.345,-49.9408 257.333,-38.0105 268.798,-28.2308"/>
<polygon fill="midnightblue" stroke="midnightblue" points="271.27,-30.7231 276.607,-21.5707 266.727,-25.3972 271.27,-30.7231"/>
</g>
<!-- Node7 -->
<g id="node13" class="node"><title>Node7</title>
<polygon fill="white" stroke="#bfbfbf" points="391.5,-0.5 391.5,-21.5 508.5,-21.5 508.5,-0.5 391.5,-0.5"/>
<text text-anchor="middle" x="450" y="-8.5" font-family="Helvetica,sans-Serif" font-size="10.00">ocra/util/ErrorsHelper.h</text>
</g>
<!-- Node3&#45;&gt;Node7 -->
<g id="edge12" class="edge"><title>Node3&#45;&gt;Node7</title>
<path fill="none" stroke="midnightblue" d="M262.47,-58.4966C300.692,-48.8159 357.549,-34.4156 398.631,-24.0105"/>
<polygon fill="midnightblue" stroke="midnightblue" points="399.617,-27.3712 408.452,-21.5231 397.899,-20.5855 399.617,-27.3712"/>
</g>
<!-- Node8&#45;&gt;Node3 -->
<g id="edge16" class="edge"><title>Node8&#45;&gt;Node3</title>
<path fill="none" stroke="midnightblue" d="M269.178,-116.362C260.779,-108.104 248.946,-96.4725 239.11,-86.8029"/>
<polygon fill="midnightblue" stroke="midnightblue" points="241.338,-84.0851 231.753,-79.5707 236.431,-89.077 241.338,-84.0851"/>
</g>
</g>
</svg>
