<?xml version="1.0" encoding="UTF-8" standalone="no"?>
<!DOCTYPE svg PUBLIC "-//W3C//DTD SVG 1.1//EN"
 "http://www.w3.org/Graphics/SVG/1.1/DTD/svg11.dtd">
<!-- Generated by graphviz version 2.26.3 (20100126.1600)
 -->
<!-- Title: G Pages: 1 -->
<svg width="344pt" height="146pt"
 viewBox="0.00 0.00 344.00 146.00" xmlns="http://www.w3.org/2000/svg" xmlns:xlink="http://www.w3.org/1999/xlink">
<g id="graph1" class="graph" transform="scale(1 1) rotate(0) translate(4 142)">
<title>G</title>
<polygon fill="white" stroke="white" points="-4,5 -4,-142 341,-142 341,5 -4,5"/>
<!-- Node1 -->
<g id="node1" class="node"><title>Node1</title>
<polygon fill="#bfbfbf" stroke="black" points="0,-116.5 0,-137.5 336,-137.5 336,-116.5 0,-116.5"/>
<text text-anchor="middle" x="168" y="-124.5" font-family="Helvetica,sans-Serif" font-size="10.00">ocra&#45;wbi&#45;plugins/ocra&#45;icub&#45;clients/walking&#45;client/src/SSDSAlternation.cpp</text>
</g>
<!-- Node2 -->
<g id="node3" class="node"><title>Node2</title>
<a xlink:href="SSDSAlternation_8h.html" target="_top" xlink:title="walking&#45;client/constraints/SSDSAlternation.h">
<polygon fill="white" stroke="black" points="62,-58.5 62,-79.5 274,-79.5 274,-58.5 62,-58.5"/>
<text text-anchor="middle" x="168" y="-66.5" font-family="Helvetica,sans-Serif" font-size="10.00">walking&#45;client/constraints/SSDSAlternation.h</text>
</a>
</g>
<!-- Node1&#45;&gt;Node2 -->
<g id="edge2" class="edge"><title>Node1&#45;&gt;Node2</title>
<path fill="none" stroke="midnightblue" d="M168,-116.362C168,-108.922 168,-98.7427 168,-89.7276"/>
<polygon fill="midnightblue" stroke="midnightblue" points="171.5,-89.5706 168,-79.5707 164.5,-89.5707 171.5,-89.5706"/>
</g>
<!-- Node3 -->
<g id="node5" class="node"><title>Node3</title>
<polygon fill="white" stroke="#bfbfbf" points="77.5,-0.5 77.5,-21.5 258.5,-21.5 258.5,-0.5 77.5,-0.5"/>
<text text-anchor="middle" x="168" y="-8.5" font-family="Helvetica,sans-Serif" font-size="10.00">walking&#45;client/constraints/constraint.h</text>
</g>
<!-- Node2&#45;&gt;Node3 -->
<g id="edge4" class="edge"><title>Node2&#45;&gt;Node3</title>
<path fill="none" stroke="midnightblue" d="M168,-58.3619C168,-50.9219 168,-40.7427 168,-31.7276"/>
<polygon fill="midnightblue" stroke="midnightblue" points="171.5,-31.5706 168,-21.5707 164.5,-31.5707 171.5,-31.5706"/>
</g>
</g>
</svg>
