<?xml version="1.0" encoding="UTF-8" standalone="no"?>
<!DOCTYPE svg PUBLIC "-//W3C//DTD SVG 1.1//EN"
 "http://www.w3.org/Graphics/SVG/1.1/DTD/svg11.dtd">
<!-- Generated by graphviz version 2.26.3 (20100126.1600)
 -->
<!-- Title: G Pages: 1 -->
<svg width="1226pt" height="262pt"
 viewBox="0.00 0.00 1226.00 262.00" xmlns="http://www.w3.org/2000/svg" xmlns:xlink="http://www.w3.org/1999/xlink">
<g id="graph1" class="graph" transform="scale(1 1) rotate(0) translate(4 258)">
<title>G</title>
<polygon fill="white" stroke="white" points="-4,5 -4,-258 1223,-258 1223,5 -4,5"/>
<!-- Node1 -->
<g id="node1" class="node"><title>Node1</title>
<polygon fill="#bfbfbf" stroke="black" points="607,-232.5 607,-253.5 1063,-253.5 1063,-232.5 607,-232.5"/>
<text text-anchor="middle" x="835" y="-240.5" font-family="Helvetica,sans-Serif" font-size="10.00">ocra&#45;wbi&#45;plugins/ocra&#45;icub&#45;clients/walking&#45;client/include/walking&#45;client/constraints/SSDSAlternation.h</text>
</g>
<!-- Node2 -->
<g id="node3" class="node"><title>Node2</title>
<a xlink:href="AdmissibilityConstraints_8h.html" target="_top" xlink:title="ocra&#45;wbi&#45;plugins/ocra&#45;icub&#45;clients/walking&#45;client/include/walking&#45;client/constraints/AdmissibilityConstraints.h">
<polygon fill="white" stroke="black" points="376,-174.5 376,-195.5 864,-195.5 864,-174.5 376,-174.5"/>
<text text-anchor="middle" x="620" y="-182.5" font-family="Helvetica,sans-Serif" font-size="10.00">ocra&#45;wbi&#45;plugins/ocra&#45;icub&#45;clients/walking&#45;client/include/walking&#45;client/constraints/AdmissibilityConstraints.h</text>
</a>
</g>
<!-- Node1&#45;&gt;Node2 -->
<g id="edge2" class="edge"><title>Node1&#45;&gt;Node2</title>
<path fill="none" stroke="midnightblue" d="M786.115,-229.812C747.623,-219.428 694.689,-205.149 659.008,-195.523"/>
<polygon fill="midnightblue" stroke="midnightblue" points="785.499,-233.271 796.065,-232.497 787.322,-226.513 785.499,-233.271"/>
</g>
<!-- Node8 -->
<g id="node15" class="node"><title>Node8</title>
<a xlink:href="SSDSAlternation_8cpp.html" target="_top" xlink:title="ocra&#45;wbi&#45;plugins/ocra&#45;icub&#45;clients/walking&#45;client/src/SSDSAlternation.cpp">
<polygon fill="white" stroke="black" points="882,-174.5 882,-195.5 1218,-195.5 1218,-174.5 882,-174.5"/>
<text text-anchor="middle" x="1050" y="-182.5" font-family="Helvetica,sans-Serif" font-size="10.00">ocra&#45;wbi&#45;plugins/ocra&#45;icub&#45;clients/walking&#45;client/src/SSDSAlternation.cpp</text>
</a>
</g>
<!-- Node1&#45;&gt;Node8 -->
<g id="edge14" class="edge"><title>Node1&#45;&gt;Node8</title>
<path fill="none" stroke="midnightblue" d="M883.885,-229.812C922.377,-219.428 975.311,-205.149 1010.99,-195.523"/>
<polygon fill="midnightblue" stroke="midnightblue" points="882.678,-226.513 873.935,-232.497 884.501,-233.271 882.678,-226.513"/>
</g>
<!-- Node3 -->
<g id="node5" class="node"><title>Node3</title>
<a xlink:href="MIQPLinearConstraints_8h.html" target="_top" xlink:title="ocra&#45;wbi&#45;plugins/ocra&#45;icub&#45;clients/walking&#45;client/include/walking&#45;client/constraints/MIQPLinearConstraints.h">
<polygon fill="white" stroke="black" points="156,-116.5 156,-137.5 640,-137.5 640,-116.5 156,-116.5"/>
<text text-anchor="middle" x="398" y="-124.5" font-family="Helvetica,sans-Serif" font-size="10.00">ocra&#45;wbi&#45;plugins/ocra&#45;icub&#45;clients/walking&#45;client/include/walking&#45;client/constraints/MIQPLinearConstraints.h</text>
</a>
</g>
<!-- Node2&#45;&gt;Node3 -->
<g id="edge4" class="edge"><title>Node2&#45;&gt;Node3</title>
<path fill="none" stroke="midnightblue" d="M570.03,-171.945C530.243,-161.55 475.278,-147.19 438.278,-137.523"/>
<polygon fill="midnightblue" stroke="midnightblue" points="569.237,-175.355 579.797,-174.497 571.007,-168.582 569.237,-175.355"/>
</g>
<!-- Node7 -->
<g id="node13" class="node"><title>Node7</title>
<a xlink:href="AdmissibilityConstraints_8cpp.html" target="_top" xlink:title="ocra&#45;wbi&#45;plugins/ocra&#45;icub&#45;clients/walking&#45;client/src/AdmissibilityConstraints.cpp">
<polygon fill="white" stroke="black" points="658,-116.5 658,-137.5 1026,-137.5 1026,-116.5 658,-116.5"/>
<text text-anchor="middle" x="842" y="-124.5" font-family="Helvetica,sans-Serif" font-size="10.00">ocra&#45;wbi&#45;plugins/ocra&#45;icub&#45;clients/walking&#45;client/src/AdmissibilityConstraints.cpp</text>
</a>
</g>
<!-- Node2&#45;&gt;Node7 -->
<g id="edge12" class="edge"><title>Node2&#45;&gt;Node7</title>
<path fill="none" stroke="midnightblue" d="M669.97,-171.945C709.757,-161.55 764.722,-147.19 801.722,-137.523"/>
<polygon fill="midnightblue" stroke="midnightblue" points="668.993,-168.582 660.203,-174.497 670.763,-175.355 668.993,-168.582"/>
</g>
<!-- Node4 -->
<g id="node7" class="node"><title>Node4</title>
<a xlink:href="MIQPController_8h.html" target="_top" xlink:title="A thread for launching trajectory generators.">
<polygon fill="white" stroke="black" points="0,-58.5 0,-79.5 398,-79.5 398,-58.5 0,-58.5"/>
<text text-anchor="middle" x="199" y="-66.5" font-family="Helvetica,sans-Serif" font-size="10.00">ocra&#45;wbi&#45;plugins/ocra&#45;icub&#45;clients/walking&#45;client/include/walking&#45;client/MIQPController.h</text>
</a>
</g>
<!-- Node3&#45;&gt;Node4 -->
<g id="edge6" class="edge"><title>Node3&#45;&gt;Node4</title>
<path fill="none" stroke="midnightblue" d="M352.297,-113.68C316.709,-103.307 267.99,-89.1078 235.105,-79.5231"/>
<polygon fill="midnightblue" stroke="midnightblue" points="351.383,-117.059 361.963,-116.497 353.341,-110.338 351.383,-117.059"/>
</g>
<!-- Node6 -->
<g id="node11" class="node"><title>Node6</title>
<a xlink:href="MIQPLinearConstraints_8cpp.html" target="_top" xlink:title="ocra&#45;wbi&#45;plugins/ocra&#45;icub&#45;clients/walking&#45;client/src/MIQPLinearConstraints.cpp">
<polygon fill="white" stroke="black" points="416,-58.5 416,-79.5 780,-79.5 780,-58.5 416,-58.5"/>
<text text-anchor="middle" x="598" y="-66.5" font-family="Helvetica,sans-Serif" font-size="10.00">ocra&#45;wbi&#45;plugins/ocra&#45;icub&#45;clients/walking&#45;client/src/MIQPLinearConstraints.cpp</text>
</a>
</g>
<!-- Node3&#45;&gt;Node6 -->
<g id="edge10" class="edge"><title>Node3&#45;&gt;Node6</title>
<path fill="none" stroke="midnightblue" d="M443.933,-113.68C479.7,-103.307 528.663,-89.1078 561.714,-79.5231"/>
<polygon fill="midnightblue" stroke="midnightblue" points="442.848,-110.35 434.218,-116.497 444.798,-117.073 442.848,-110.35"/>
</g>
<!-- Node5 -->
<g id="node9" class="node"><title>Node5</title>
<a xlink:href="MIQPController_8cpp.html" target="_top" xlink:title="ocra&#45;wbi&#45;plugins/ocra&#45;icub&#45;clients/walking&#45;client/src/MIQPController.cpp">
<polygon fill="white" stroke="black" points="34.5,-0.5 34.5,-21.5 363.5,-21.5 363.5,-0.5 34.5,-0.5"/>
<text text-anchor="middle" x="199" y="-8.5" font-family="Helvetica,sans-Serif" font-size="10.00">ocra&#45;wbi&#45;plugins/ocra&#45;icub&#45;clients/walking&#45;client/src/MIQPController.cpp</text>
</a>
</g>
<!-- Node4&#45;&gt;Node5 -->
<g id="edge8" class="edge"><title>Node4&#45;&gt;Node5</title>
<path fill="none" stroke="midnightblue" d="M199,-48.1906C199,-39.1684 199,-28.9941 199,-21.5707"/>
<polygon fill="midnightblue" stroke="midnightblue" points="195.5,-48.3619 199,-58.3619 202.5,-48.3619 195.5,-48.3619"/>
</g>
</g>
</svg>
