<?xml version="1.0" encoding="UTF-8" standalone="no"?>
<!DOCTYPE svg PUBLIC "-//W3C//DTD SVG 1.1//EN"
 "http://www.w3.org/Graphics/SVG/1.1/DTD/svg11.dtd">
<!-- Generated by graphviz version 2.26.3 (20100126.1600)
 -->
<!-- Title: G Pages: 1 -->
<svg width="668pt" height="88pt"
 viewBox="0.00 0.00 668.00 88.00" xmlns="http://www.w3.org/2000/svg" xmlns:xlink="http://www.w3.org/1999/xlink">
<g id="graph1" class="graph" transform="scale(1 1) rotate(0) translate(4 84)">
<title>G</title>
<polygon fill="white" stroke="white" points="-4,5 -4,-84 665,-84 665,5 -4,5"/>
<!-- Node1 -->
<g id="node1" class="node"><title>Node1</title>
<polygon fill="#bfbfbf" stroke="black" points="97,-58.5 97,-79.5 527,-79.5 527,-58.5 97,-58.5"/>
<text text-anchor="middle" x="312" y="-66.5" font-family="Helvetica,sans-Serif" font-size="10.00">ocra&#45;wbi&#45;plugins/ocra&#45;icub&#45;clients/standing&#45;demo/include/standing&#45;demo/StandingDemoClient.h</text>
</g>
<!-- Node2 -->
<g id="node3" class="node"><title>Node2</title>
<a xlink:href="ocra-icub-clients_2standing-demo_2src_2main_8cpp.html" target="_top" xlink:title="ocra&#45;wbi&#45;plugins/ocra&#45;icub&#45;clients/standing&#45;demo/src/main.cpp">
<polygon fill="white" stroke="black" points="-0.5,-0.5 -0.5,-21.5 286.5,-21.5 286.5,-0.5 -0.5,-0.5"/>
<text text-anchor="middle" x="143" y="-8.5" font-family="Helvetica,sans-Serif" font-size="10.00">ocra&#45;wbi&#45;plugins/ocra&#45;icub&#45;clients/standing&#45;demo/src/main.cpp</text>
</a>
</g>
<!-- Node1&#45;&gt;Node2 -->
<g id="edge2" class="edge"><title>Node1&#45;&gt;Node2</title>
<path fill="none" stroke="midnightblue" d="M271.627,-55.1443C241.553,-44.8229 201.112,-30.9439 173.662,-21.5231"/>
<polygon fill="midnightblue" stroke="midnightblue" points="270.801,-58.5609 281.395,-58.4966 273.073,-51.94 270.801,-58.5609"/>
</g>
<!-- Node3 -->
<g id="node5" class="node"><title>Node3</title>
<a xlink:href="StandingDemoClient_8cpp.html" target="_top" xlink:title="ocra&#45;wbi&#45;plugins/ocra&#45;icub&#45;clients/standing&#45;demo/src/StandingDemoClient.cpp">
<polygon fill="white" stroke="black" points="304,-0.5 304,-21.5 660,-21.5 660,-0.5 304,-0.5"/>
<text text-anchor="middle" x="482" y="-8.5" font-family="Helvetica,sans-Serif" font-size="10.00">ocra&#45;wbi&#45;plugins/ocra&#45;icub&#45;clients/standing&#45;demo/src/StandingDemoClient.cpp</text>
</a>
</g>
<!-- Node1&#45;&gt;Node3 -->
<g id="edge4" class="edge"><title>Node1&#45;&gt;Node3</title>
<path fill="none" stroke="midnightblue" d="M352.612,-55.1443C382.864,-44.8229 423.544,-30.9439 451.157,-21.5231"/>
<polygon fill="midnightblue" stroke="midnightblue" points="351.12,-51.955 342.786,-58.4966 353.38,-58.5801 351.12,-51.955"/>
</g>
</g>
</svg>
