<?xml version="1.0" encoding="UTF-8" standalone="no"?>
<!DOCTYPE svg PUBLIC "-//W3C//DTD SVG 1.1//EN"
 "http://www.w3.org/Graphics/SVG/1.1/DTD/svg11.dtd">
<!-- Generated by graphviz version 2.26.3 (20100126.1600)
 -->
<!-- Title: G Pages: 1 -->
<svg width="2584pt" height="436pt"
 viewBox="0.00 0.00 2584.00 436.00" xmlns="http://www.w3.org/2000/svg" xmlns:xlink="http://www.w3.org/1999/xlink">
<g id="graph1" class="graph" transform="scale(1 1) rotate(0) translate(4 432)">
<title>G</title>
<polygon fill="white" stroke="white" points="-4,5 -4,-432 2581,-432 2581,5 -4,5"/>
<!-- Node1 -->
<g id="node1" class="node"><title>Node1</title>
<polygon fill="#bfbfbf" stroke="black" points="1069,-406.5 1069,-427.5 1399,-427.5 1399,-406.5 1069,-406.5"/>
<text text-anchor="middle" x="1234" y="-414.5" font-family="Helvetica,sans-Serif" font-size="10.00">ocra&#45;wbi&#45;plugins/ocra&#45;icub&#45;clients/stepping&#45;demo/src/stepping&#45;demo.cpp</text>
</g>
<!-- Node2 -->
<g id="node3" class="node"><title>Node2</title>
<polygon fill="white" stroke="#bfbfbf" points="-0.5,-0.5 -0.5,-21.5 128.5,-21.5 128.5,-0.5 -0.5,-0.5"/>
<text text-anchor="middle" x="64" y="-8.5" font-family="Helvetica,sans-Serif" font-size="10.00">yarp/os/ResourceFinder.h</text>
</g>
<!-- Node1&#45;&gt;Node2 -->
<g id="edge2" class="edge"><title>Node1&#45;&gt;Node2</title>
<path fill="none" stroke="midnightblue" d="M1068.73,-414.609C841.054,-410.294 442.958,-398.804 301,-370 213.363,-352.218 112,-390.423 112,-301 112,-301 112,-301 112,-127 112,-90.5752 91.5429,-52.271 77.3388,-30.0651"/>
<polygon fill="midnightblue" stroke="midnightblue" points="80.1578,-27.9831 71.712,-21.5863 74.3253,-31.8538 80.1578,-27.9831"/>
</g>
<!-- Node3 -->
<g id="node5" class="node"><title>Node3</title>
<polygon fill="white" stroke="#bfbfbf" points="497.5,-174.5 497.5,-195.5 594.5,-195.5 594.5,-174.5 497.5,-174.5"/>
<text text-anchor="middle" x="546" y="-182.5" font-family="Helvetica,sans-Serif" font-size="10.00">yarp/os/Network.h</text>
</g>
<!-- Node1&#45;&gt;Node3 -->
<g id="edge4" class="edge"><title>Node1&#45;&gt;Node3</title>
<path fill="none" stroke="midnightblue" d="M1202.65,-406.429C1090.93,-368.755 712.247,-241.06 586.767,-198.747"/>
<polygon fill="midnightblue" stroke="midnightblue" points="587.734,-195.379 577.14,-195.501 585.497,-202.012 587.734,-195.379"/>
</g>
<!-- Node4 -->
<g id="node7" class="node"><title>Node4</title>
<polygon fill="white" stroke="#bfbfbf" points="146,-0.5 146,-21.5 222,-21.5 222,-0.5 146,-0.5"/>
<text text-anchor="middle" x="184" y="-8.5" font-family="Helvetica,sans-Serif" font-size="10.00">yarp/os/Log.h</text>
</g>
<!-- Node1&#45;&gt;Node4 -->
<g id="edge6" class="edge"><title>Node1&#45;&gt;Node4</title>
<path fill="none" stroke="midnightblue" d="M1068.78,-414.716C780.974,-408.516 218,-385.579 218,-301 218,-301 218,-301 218,-127 218,-92.0581 203.618,-53.499 193.561,-30.8087"/>
<polygon fill="midnightblue" stroke="midnightblue" points="196.671,-29.1928 189.312,-21.57 190.311,-32.1177 196.671,-29.1928"/>
</g>
<!-- Node5 -->
<g id="node9" class="node"><title>Node5</title>
<polygon fill="white" stroke="#bfbfbf" points="2469.5,-0.5 2469.5,-21.5 2576.5,-21.5 2576.5,-0.5 2469.5,-0.5"/>
<text text-anchor="middle" x="2523" y="-8.5" font-family="Helvetica,sans-Serif" font-size="10.00">yarp/os/LogStream.h</text>
</g>
<!-- Node1&#45;&gt;Node5 -->
<g id="edge8" class="edge"><title>Node1&#45;&gt;Node5</title>
<path fill="none" stroke="midnightblue" d="M1317.93,-406.484C1462.7,-387.194 1744,-344.16 1744,-301 1744,-301 1744,-301 1744,-127 1744,30.9662 2280.99,-44.7089 2459.28,-22.0709"/>
<polygon fill="midnightblue" stroke="midnightblue" points="2459.85,-25.525 2469.25,-20.6389 2458.85,-18.596 2459.85,-25.525"/>
</g>
<!-- Node6 -->
<g id="node11" class="node"><title>Node6</title>
<polygon fill="white" stroke="#bfbfbf" points="2370,-0.5 2370,-21.5 2452,-21.5 2452,-0.5 2370,-0.5"/>
<text text-anchor="middle" x="2411" y="-8.5" font-family="Helvetica,sans-Serif" font-size="10.00">yarp/os/Time.h</text>
</g>
<!-- Node1&#45;&gt;Node6 -->
<g id="edge10" class="edge"><title>Node1&#45;&gt;Node6</title>
<path fill="none" stroke="midnightblue" d="M1234.96,-406.344C1237.09,-384.364 1242.82,-332.494 1253,-290 1264.46,-242.163 1288,-234.191 1288,-185 1288,-185 1288,-185 1288,-127 1288,71.8237 1532.29,-79.021 1730,-58 2006.05,-28.6494 2080.97,-59.5577 2359.88,-21.9552"/>
<polygon fill="midnightblue" stroke="midnightblue" points="2360.46,-25.4094 2369.89,-20.5884 2359.51,-18.4737 2360.46,-25.4094"/>
</g>
<!-- Node7 -->
<g id="node13" class="node"><title>Node7</title>
<a xlink:href="SteppingDemoClient_8h.html" target="_top" xlink:title="stepping&#45;demo/SteppingDemoClient.h">
<polygon fill="white" stroke="black" points="1262,-348.5 1262,-369.5 1444,-369.5 1444,-348.5 1262,-348.5"/>
<text text-anchor="middle" x="1353" y="-356.5" font-family="Helvetica,sans-Serif" font-size="10.00">stepping&#45;demo/SteppingDemoClient.h</text>
</a>
</g>
<!-- Node1&#45;&gt;Node7 -->
<g id="edge12" class="edge"><title>Node1&#45;&gt;Node7</title>
<path fill="none" stroke="midnightblue" d="M1255.55,-406.497C1274.14,-397.438 1301.2,-384.246 1322.1,-374.063"/>
<polygon fill="midnightblue" stroke="midnightblue" points="1323.75,-377.149 1331.21,-369.621 1320.69,-370.856 1323.75,-377.149"/>
</g>
<!-- Node8 -->
<g id="node15" class="node"><title>Node8</title>
<a xlink:href="IcubClient_8h.html" target="_top" xlink:title="ocra&#45;icub/IcubClient.h">
<polygon fill="white" stroke="black" points="991,-290.5 991,-311.5 1103,-311.5 1103,-290.5 991,-290.5"/>
<text text-anchor="middle" x="1047" y="-298.5" font-family="Helvetica,sans-Serif" font-size="10.00">ocra&#45;icub/IcubClient.h</text>
</a>
</g>
<!-- Node1&#45;&gt;Node8 -->
<g id="edge122" class="edge"><title>Node1&#45;&gt;Node8</title>
<path fill="none" stroke="midnightblue" d="M1216.74,-406.295C1183.68,-385.785 1111.26,-340.859 1072.56,-316.857"/>
<polygon fill="midnightblue" stroke="midnightblue" points="1074.29,-313.809 1063.95,-311.512 1070.6,-319.757 1074.29,-313.809"/>
</g>
<!-- Node37 -->
<g id="node96" class="node"><title>Node37</title>
<polygon fill="white" stroke="#bfbfbf" points="1567.5,-290.5 1567.5,-311.5 1716.5,-311.5 1716.5,-290.5 1567.5,-290.5"/>
<text text-anchor="middle" x="1642" y="-298.5" font-family="Helvetica,sans-Serif" font-size="10.00">ocra&#45;recipes/ControllerClient.h</text>
</g>
<!-- Node1&#45;&gt;Node37 -->
<g id="edge124" class="edge"><title>Node1&#45;&gt;Node37</title>
<path fill="none" stroke="midnightblue" d="M1294.04,-406.441C1338.36,-398.086 1399.94,-385.299 1453,-370 1507.84,-354.187 1569.67,-330.45 1607.23,-315.346"/>
<polygon fill="midnightblue" stroke="midnightblue" points="1608.74,-318.512 1616.69,-311.516 1606.11,-312.023 1608.74,-318.512"/>
</g>
<!-- Node39 -->
<g id="node102" class="node"><title>Node39</title>
<polygon fill="white" stroke="#bfbfbf" points="1772,-348.5 1772,-369.5 1916,-369.5 1916,-348.5 1772,-348.5"/>
<text text-anchor="middle" x="1844" y="-356.5" font-family="Helvetica,sans-Serif" font-size="10.00">ocra&#45;recipes/ClientManager.h</text>
</g>
<!-- Node1&#45;&gt;Node39 -->
<g id="edge126" class="edge"><title>Node1&#45;&gt;Node39</title>
<path fill="none" stroke="midnightblue" d="M1366.85,-406.478C1472.86,-397.746 1625.09,-384.456 1758,-370 1759.26,-369.863 1760.54,-369.722 1761.82,-369.58"/>
<polygon fill="midnightblue" stroke="midnightblue" points="1762.23,-373.056 1771.76,-368.441 1761.43,-366.101 1762.23,-373.056"/>
</g>
<!-- Node7&#45;&gt;Node8 -->
<g id="edge14" class="edge"><title>Node7&#45;&gt;Node8</title>
<path fill="none" stroke="midnightblue" d="M1297.59,-348.497C1245.54,-338.632 1167.64,-323.866 1112.53,-313.421"/>
<polygon fill="midnightblue" stroke="midnightblue" points="1113,-309.947 1102.52,-311.523 1111.69,-316.824 1113,-309.947"/>
</g>
<!-- Node36 -->
<g id="node94" class="node"><title>Node36</title>
<polygon fill="white" stroke="#bfbfbf" points="1395.5,-290.5 1395.5,-311.5 1550.5,-311.5 1550.5,-290.5 1395.5,-290.5"/>
<text text-anchor="middle" x="1473" y="-298.5" font-family="Helvetica,sans-Serif" font-size="10.00">ocra&#45;recipes/TrajectoryThread.h</text>
</g>
<!-- Node7&#45;&gt;Node36 -->
<g id="edge116" class="edge"><title>Node7&#45;&gt;Node36</title>
<path fill="none" stroke="midnightblue" d="M1374.73,-348.497C1393.47,-339.438 1420.77,-326.246 1441.84,-316.063"/>
<polygon fill="midnightblue" stroke="midnightblue" points="1443.54,-319.124 1451.03,-311.621 1440.5,-312.822 1443.54,-319.124"/>
</g>
<!-- Node7&#45;&gt;Node37 -->
<g id="edge118" class="edge"><title>Node7&#45;&gt;Node37</title>
<path fill="none" stroke="midnightblue" d="M1405.34,-348.497C1454.29,-338.673 1527.45,-323.988 1579.46,-313.551"/>
<polygon fill="midnightblue" stroke="midnightblue" points="1580.45,-316.922 1589.57,-311.523 1579.07,-310.059 1580.45,-316.922"/>
</g>
<!-- Node38 -->
<g id="node98" class="node"><title>Node38</title>
<polygon fill="white" stroke="#bfbfbf" points="1261.5,-290.5 1261.5,-311.5 1378.5,-311.5 1378.5,-290.5 1261.5,-290.5"/>
<text text-anchor="middle" x="1320" y="-298.5" font-family="Helvetica,sans-Serif" font-size="10.00">ocra/util/ErrorsHelper.h</text>
</g>
<!-- Node7&#45;&gt;Node38 -->
<g id="edge120" class="edge"><title>Node7&#45;&gt;Node38</title>
<path fill="none" stroke="midnightblue" d="M1346.95,-348.362C1342.53,-340.595 1336.41,-329.843 1331.12,-320.546"/>
<polygon fill="midnightblue" stroke="midnightblue" points="1334,-318.531 1326.01,-311.571 1327.92,-321.993 1334,-318.531"/>
</g>
<!-- Node9 -->
<g id="node17" class="node"><title>Node9</title>
<a xlink:href="ModelInitializer_8h.html" target="_top" xlink:title="ocra&#45;icub/ModelInitializer.h">
<polygon fill="white" stroke="black" points="929.5,-232.5 929.5,-253.5 1062.5,-253.5 1062.5,-232.5 929.5,-232.5"/>
<text text-anchor="middle" x="996" y="-240.5" font-family="Helvetica,sans-Serif" font-size="10.00">ocra&#45;icub/ModelInitializer.h</text>
</a>
</g>
<!-- Node8&#45;&gt;Node9 -->
<g id="edge16" class="edge"><title>Node8&#45;&gt;Node9</title>
<path fill="none" stroke="midnightblue" d="M1037.65,-290.362C1030.46,-282.186 1020.36,-270.702 1011.91,-261.091"/>
<polygon fill="midnightblue" stroke="midnightblue" points="1014.53,-258.769 1005.29,-253.571 1009.27,-263.392 1014.53,-258.769"/>
</g>
<!-- Node10 -->
<g id="node19" class="node"><title>Node10</title>
<a xlink:href="OcraWbiModel_8h.html" target="_top" xlink:title="Implementation of ocra::Model using wholeBodyInterface.">
<polygon fill="white" stroke="black" points="810,-174.5 810,-195.5 942,-195.5 942,-174.5 810,-174.5"/>
<text text-anchor="middle" x="876" y="-182.5" font-family="Helvetica,sans-Serif" font-size="10.00">ocra&#45;icub/OcraWbiModel.h</text>
</a>
</g>
<!-- Node8&#45;&gt;Node10 -->
<g id="edge112" class="edge"><title>Node8&#45;&gt;Node10</title>
<path fill="none" stroke="midnightblue" d="M997.852,-290.479C972.897,-283.307 943.238,-271.799 921,-254 904.605,-240.878 892.213,-220.108 884.626,-204.781"/>
<polygon fill="midnightblue" stroke="midnightblue" points="887.751,-203.202 880.34,-195.63 881.412,-206.171 887.751,-203.202"/>
</g>
<!-- Node14 -->
<g id="node28" class="node"><title>Node14</title>
<a xlink:href="OcraWbiConversions_8h.html" target="_top" xlink:title="A utility class full of static conversion functions.">
<polygon fill="white" stroke="black" points="389.5,-116.5 389.5,-137.5 550.5,-137.5 550.5,-116.5 389.5,-116.5"/>
<text text-anchor="middle" x="470" y="-124.5" font-family="Helvetica,sans-Serif" font-size="10.00">ocra&#45;icub/OcraWbiConversions.h</text>
</a>
</g>
<!-- Node8&#45;&gt;Node14 -->
<g id="edge110" class="edge"><title>Node8&#45;&gt;Node14</title>
<path fill="none" stroke="midnightblue" d="M990.892,-297.834C864.309,-289.56 561.888,-263.096 489,-196 475.759,-183.811 471.419,-163.327 470.147,-147.835"/>
<polygon fill="midnightblue" stroke="midnightblue" points="473.633,-147.457 469.679,-137.628 466.64,-147.778 473.633,-147.457"/>
</g>
<!-- Node20 -->
<g id="node42" class="node"><title>Node20</title>
<a xlink:href="Utilities_8h.html" target="_top" xlink:title="Some useful tools for the ocra&#45;icub lib.">
<polygon fill="white" stroke="black" points="1007.5,-58.5 1007.5,-79.5 1108.5,-79.5 1108.5,-58.5 1007.5,-58.5"/>
<text text-anchor="middle" x="1058" y="-66.5" font-family="Helvetica,sans-Serif" font-size="10.00">ocra&#45;icub/Utilities.h</text>
</a>
</g>
<!-- Node8&#45;&gt;Node20 -->
<g id="edge114" class="edge"><title>Node8&#45;&gt;Node20</title>
<path fill="none" stroke="midnightblue" d="M1054.28,-290.372C1060.1,-281.201 1067.79,-267.362 1071,-254 1085.07,-195.528 1071.68,-123.895 1063.42,-89.435"/>
<polygon fill="midnightblue" stroke="midnightblue" points="1066.79,-88.465 1060.96,-79.6165 1060,-90.1675 1066.79,-88.465"/>
</g>
<!-- Node9&#45;&gt;Node3 -->
<g id="edge104" class="edge"><title>Node9&#45;&gt;Node3</title>
<path fill="none" stroke="midnightblue" d="M929.253,-236.044C851.826,-227.714 720.411,-212.767 608,-196 606.919,-195.839 605.827,-195.673 604.728,-195.504"/>
<polygon fill="midnightblue" stroke="midnightblue" points="605.122,-192.023 594.695,-193.9 604.017,-198.935 605.122,-192.023"/>
</g>
<!-- Node9&#45;&gt;Node4 -->
<g id="edge108" class="edge"><title>Node9&#45;&gt;Node4</title>
<path fill="none" stroke="midnightblue" d="M937.448,-232.474C860.696,-218.733 721.852,-194.069 603,-174 504.44,-157.357 474.31,-173.837 381,-138 310.261,-110.832 238.196,-55.9886 204.164,-28.1086"/>
<polygon fill="midnightblue" stroke="midnightblue" points="206.288,-25.3228 196.356,-21.6347 201.82,-30.7116 206.288,-25.3228"/>
</g>
<!-- Node9&#45;&gt;Node5 -->
<g id="edge106" class="edge"><title>Node9&#45;&gt;Node5</title>
<path fill="none" stroke="midnightblue" d="M1028.09,-232.475C1129.63,-199.706 1453.47,-99.2431 1730,-58 2048.43,-10.5082 2135.98,-57.501 2459.17,-22.0845"/>
<polygon fill="midnightblue" stroke="midnightblue" points="2459.74,-25.5427 2469.29,-20.957 2458.97,-18.5857 2459.74,-25.5427"/>
</g>
<!-- Node9&#45;&gt;Node10 -->
<g id="edge18" class="edge"><title>Node9&#45;&gt;Node10</title>
<path fill="none" stroke="midnightblue" d="M974.269,-232.497C955.526,-223.438 928.233,-210.246 907.164,-200.063"/>
<polygon fill="midnightblue" stroke="midnightblue" points="908.502,-196.822 897.975,-195.621 905.455,-203.124 908.502,-196.822"/>
</g>
<!-- Node12 -->
<g id="node23" class="node"><title>Node12</title>
<polygon fill="white" stroke="#bfbfbf" points="2125.5,-0.5 2125.5,-21.5 2230.5,-21.5 2230.5,-0.5 2125.5,-0.5"/>
<text text-anchor="middle" x="2178" y="-8.5" font-family="Helvetica,sans-Serif" font-size="10.00">ocra/control/Model.h</text>
</g>
<!-- Node9&#45;&gt;Node12 -->
<g id="edge98" class="edge"><title>Node9&#45;&gt;Node12</title>
<path fill="none" stroke="midnightblue" d="M1003.25,-232.357C1026.69,-199.018 1104.33,-96.5403 1198,-58 1290.01,-20.1432 1977.73,-32.3941 2115.53,-21.8549"/>
<polygon fill="midnightblue" stroke="midnightblue" points="2115.85,-25.3402 2125.5,-20.9471 2115.22,-18.3691 2115.85,-25.3402"/>
</g>
<!-- Node19 -->
<g id="node40" class="node"><title>Node19</title>
<polygon fill="white" stroke="#bfbfbf" points="606,-58.5 606,-79.5 848,-79.5 848,-58.5 606,-58.5"/>
<text text-anchor="middle" x="727" y="-66.5" font-family="Helvetica,sans-Serif" font-size="10.00">yarpWholeBodyInterface/yarpWholeBodyInterface.h</text>
</g>
<!-- Node9&#45;&gt;Node19 -->
<g id="edge100" class="edge"><title>Node9&#45;&gt;Node19</title>
<path fill="none" stroke="midnightblue" d="M991.364,-232.338C984.463,-217.536 970.212,-190.702 951,-174 898.539,-128.394 822.878,-98.4848 774.321,-82.654"/>
<polygon fill="midnightblue" stroke="midnightblue" points="775.278,-79.2857 764.687,-79.5821 773.151,-85.9548 775.278,-79.2857"/>
</g>
<!-- Node28 -->
<g id="node62" class="node"><title>Node28</title>
<polygon fill="white" stroke="#bfbfbf" points="2248,-0.5 2248,-21.5 2352,-21.5 2352,-0.5 2248,-0.5"/>
<text text-anchor="middle" x="2300" y="-8.5" font-family="Helvetica,sans-Serif" font-size="10.00">yarp/os/RpcClient.h</text>
</g>
<!-- Node9&#45;&gt;Node28 -->
<g id="edge102" class="edge"><title>Node9&#45;&gt;Node28</title>
<path fill="none" stroke="midnightblue" d="M1009.88,-232.27C1057.47,-195.714 1214.42,-77.2332 1274,-58 1475.23,6.95364 2009.69,-43.5712 2237.86,-21.922"/>
<polygon fill="midnightblue" stroke="midnightblue" points="2238.23,-25.4018 2247.83,-20.908 2237.52,-18.4378 2238.23,-25.4018"/>
</g>
<!-- Node10&#45;&gt;Node4 -->
<g id="edge26" class="edge"><title>Node10&#45;&gt;Node4</title>
<path fill="none" stroke="midnightblue" d="M847.224,-174.386C781.12,-150.371 612.951,-91.3676 468,-58 367.317,-34.8229 337.416,-41.6969 232.24,-22.1121"/>
<polygon fill="midnightblue" stroke="midnightblue" points="232.643,-18.6261 222.165,-20.1988 231.337,-25.5032 232.643,-18.6261"/>
</g>
<!-- Node11 -->
<g id="node21" class="node"><title>Node11</title>
<polygon fill="white" stroke="#bfbfbf" points="558,-0.5 558,-21.5 610,-21.5 610,-0.5 558,-0.5"/>
<text text-anchor="middle" x="584" y="-8.5" font-family="Helvetica,sans-Serif" font-size="10.00">memory</text>
</g>
<!-- Node10&#45;&gt;Node11 -->
<g id="edge20" class="edge"><title>Node10&#45;&gt;Node11</title>
<path fill="none" stroke="midnightblue" d="M881.913,-174.218C894.244,-150.115 919.232,-91.372 890,-58 851.847,-14.4435 694.114,-33.1643 620.472,-21.7024"/>
<polygon fill="midnightblue" stroke="midnightblue" points="620.716,-18.187 610.242,-19.7812 619.424,-25.0667 620.716,-18.187"/>
</g>
<!-- Node10&#45;&gt;Node12 -->
<g id="edge22" class="edge"><title>Node10&#45;&gt;Node12</title>
<path fill="none" stroke="midnightblue" d="M915.909,-174.5C945.511,-166.132 986.535,-153.302 1021,-138 1037.29,-130.769 1142.87,-62.9232 1160,-58 1361.44,-0.0931998 1889.13,-43.58 2115.28,-21.9943"/>
<polygon fill="midnightblue" stroke="midnightblue" points="2115.9,-25.4494 2125.5,-20.9523 2115.19,-18.4856 2115.9,-25.4494"/>
</g>
<!-- Node13 -->
<g id="node25" class="node"><title>Node13</title>
<polygon fill="white" stroke="#bfbfbf" points="420,-0.5 420,-21.5 478,-21.5 478,-0.5 420,-0.5"/>
<text text-anchor="middle" x="449" y="-8.5" font-family="Helvetica,sans-Serif" font-size="10.00">wbi/wbi.h</text>
</g>
<!-- Node10&#45;&gt;Node13 -->
<g id="edge24" class="edge"><title>Node10&#45;&gt;Node13</title>
<path fill="none" stroke="midnightblue" d="M878.245,-174.206C882.674,-149.552 889.492,-88.8596 857,-58 799.206,-3.10938 584.024,-35.1046 488.302,-21.7207"/>
<polygon fill="midnightblue" stroke="midnightblue" points="488.765,-18.2498 478.328,-20.0705 487.623,-25.1559 488.765,-18.2498"/>
</g>
<!-- Node10&#45;&gt;Node14 -->
<g id="edge28" class="edge"><title>Node10&#45;&gt;Node14</title>
<path fill="none" stroke="midnightblue" d="M809.865,-175.552C739.977,-165.568 629.576,-149.797 553.677,-138.954"/>
<polygon fill="midnightblue" stroke="midnightblue" points="554.063,-135.474 543.669,-137.524 553.073,-142.403 554.063,-135.474"/>
</g>
<!-- Node10&#45;&gt;Node20 -->
<g id="edge96" class="edge"><title>Node10&#45;&gt;Node20</title>
<path fill="none" stroke="midnightblue" d="M914.521,-174.449C938.674,-166.713 969.72,-154.647 994,-138 1014.05,-124.252 1032.42,-103.175 1044.28,-87.9334"/>
<polygon fill="midnightblue" stroke="midnightblue" points="1047.24,-89.8213 1050.48,-79.7331 1041.65,-85.6005 1047.24,-89.8213"/>
</g>
<!-- Node14&#45;&gt;Node4 -->
<g id="edge38" class="edge"><title>Node14&#45;&gt;Node4</title>
<path fill="none" stroke="midnightblue" d="M443.861,-116.398C392.371,-95.5142 277.772,-49.0333 219.499,-25.3983"/>
<polygon fill="midnightblue" stroke="midnightblue" points="220.557,-22.0504 209.975,-21.5352 217.926,-28.5371 220.557,-22.0504"/>
</g>
<!-- Node14&#45;&gt;Node13 -->
<g id="edge40" class="edge"><title>Node14&#45;&gt;Node13</title>
<path fill="none" stroke="midnightblue" d="M470.861,-116.105C471.677,-102.387 472.228,-78.1746 468,-58 466.075,-48.8138 462.457,-39.1252 458.89,-30.9468"/>
<polygon fill="midnightblue" stroke="midnightblue" points="462.059,-29.4602 454.682,-21.8551 455.706,-32.4004 462.059,-29.4602"/>
</g>
<!-- Node15 -->
<g id="node30" class="node"><title>Node15</title>
<polygon fill="white" stroke="#bfbfbf" points="348,-0.5 348,-21.5 402,-21.5 402,-0.5 348,-0.5"/>
<text text-anchor="middle" x="375" y="-8.5" font-family="Helvetica,sans-Serif" font-size="10.00">iostream</text>
</g>
<!-- Node14&#45;&gt;Node15 -->
<g id="edge30" class="edge"><title>Node14&#45;&gt;Node15</title>
<path fill="none" stroke="midnightblue" d="M455.097,-116.142C443.555,-107.26 427.625,-93.9327 416,-80 403.379,-64.8742 392.194,-45.4114 384.708,-31.0148"/>
<polygon fill="midnightblue" stroke="midnightblue" points="387.774,-29.323 380.144,-21.9729 381.525,-32.4772 387.774,-29.323"/>
</g>
<!-- Node16 -->
<g id="node32" class="node"><title>Node16</title>
<polygon fill="white" stroke="#bfbfbf" points="424.5,-58.5 424.5,-79.5 459.5,-79.5 459.5,-58.5 424.5,-58.5"/>
<text text-anchor="middle" x="442" y="-66.5" font-family="Helvetica,sans-Serif" font-size="10.00">map</text>
</g>
<!-- Node14&#45;&gt;Node16 -->
<g id="edge32" class="edge"><title>Node14&#45;&gt;Node16</title>
<path fill="none" stroke="midnightblue" d="M464.864,-116.362C461.154,-108.677 456.033,-98.0686 451.578,-88.8399"/>
<polygon fill="midnightblue" stroke="midnightblue" points="454.603,-87.0545 447.103,-79.5707 448.299,-90.0978 454.603,-87.0545"/>
</g>
<!-- Node17 -->
<g id="node34" class="node"><title>Node17</title>
<polygon fill="white" stroke="#bfbfbf" points="496,-0.5 496,-21.5 540,-21.5 540,-0.5 496,-0.5"/>
<text text-anchor="middle" x="518" y="-8.5" font-family="Helvetica,sans-Serif" font-size="10.00">vector</text>
</g>
<!-- Node14&#45;&gt;Node17 -->
<g id="edge34" class="edge"><title>Node14&#45;&gt;Node17</title>
<path fill="none" stroke="midnightblue" d="M474.43,-116.295C482.431,-96.9588 499.411,-55.9229 509.651,-31.1767"/>
<polygon fill="midnightblue" stroke="midnightblue" points="512.992,-32.2576 513.581,-21.6792 506.523,-29.5811 512.992,-32.2576"/>
</g>
<!-- Node18 -->
<g id="node36" class="node"><title>Node18</title>
<polygon fill="white" stroke="#bfbfbf" points="239.5,-0.5 239.5,-21.5 330.5,-21.5 330.5,-0.5 239.5,-0.5"/>
<text text-anchor="middle" x="285" y="-8.5" font-family="Helvetica,sans-Serif" font-size="10.00">yarp/sig/Vector.h</text>
</g>
<!-- Node14&#45;&gt;Node18 -->
<g id="edge36" class="edge"><title>Node14&#45;&gt;Node18</title>
<path fill="none" stroke="midnightblue" d="M452.927,-116.295C420.217,-95.7846 348.569,-50.8594 310.29,-26.8575"/>
<polygon fill="midnightblue" stroke="midnightblue" points="312.096,-23.8587 301.764,-21.5117 308.377,-29.7893 312.096,-23.8587"/>
</g>
<!-- Node14&#45;&gt;Node19 -->
<g id="edge42" class="edge"><title>Node14&#45;&gt;Node19</title>
<path fill="none" stroke="midnightblue" d="M516.541,-116.497C559.799,-106.734 624.325,-92.1718 670.516,-81.7474"/>
<polygon fill="midnightblue" stroke="midnightblue" points="671.388,-85.1387 680.372,-79.5231 669.847,-78.3104 671.388,-85.1387"/>
</g>
<!-- Node14&#45;&gt;Node20 -->
<g id="edge44" class="edge"><title>Node14&#45;&gt;Node20</title>
<path fill="none" stroke="midnightblue" d="M550.526,-119.057C669.695,-107.302 890.39,-85.5329 997.093,-75.0078"/>
<polygon fill="midnightblue" stroke="midnightblue" points="997.757,-78.4594 1007.37,-73.9946 997.07,-71.4932 997.757,-78.4594"/>
</g>
<!-- Node20&#45;&gt;Node2 -->
<g id="edge64" class="edge"><title>Node20&#45;&gt;Node2</title>
<path fill="none" stroke="midnightblue" d="M1007.2,-66.1535C966.564,-63.8927 908.129,-60.6773 857,-58 540.319,-41.4177 457.498,-53.6532 138.818,-22.1071"/>
<polygon fill="midnightblue" stroke="midnightblue" points="139.134,-18.6214 128.837,-21.1124 138.44,-25.5869 139.134,-18.6214"/>
</g>
<!-- Node20&#45;&gt;Node4 -->
<g id="edge76" class="edge"><title>Node20&#45;&gt;Node4</title>
<path fill="none" stroke="midnightblue" d="M1007.25,-66.1741C840.16,-56.8638 313.677,-27.4706 232.281,-21.4017"/>
<polygon fill="midnightblue" stroke="midnightblue" points="232.384,-17.8972 222.114,-20.5026 231.767,-24.87 232.384,-17.8972"/>
</g>
<!-- Node20&#45;&gt;Node5 -->
<g id="edge78" class="edge"><title>Node20&#45;&gt;Node5</title>
<path fill="none" stroke="midnightblue" d="M1108.59,-66.6306C1159.85,-64.2721 1241.43,-60.6336 1312,-58 1819.2,-39.0724 1951.08,-74.2938 2459.13,-22.0676"/>
<polygon fill="midnightblue" stroke="midnightblue" points="2459.71,-25.5267 2469.3,-21.0163 2458.99,-18.5638 2459.71,-25.5267"/>
</g>
<!-- Node20&#45;&gt;Node6 -->
<g id="edge74" class="edge"><title>Node20&#45;&gt;Node6</title>
<path fill="none" stroke="midnightblue" d="M1108.61,-66.1678C1152.38,-63.7797 1217.35,-60.3803 1274,-58 1753.65,-37.8457 1879.67,-81.5775 2359.94,-21.9142"/>
<polygon fill="midnightblue" stroke="midnightblue" points="2360.42,-25.3816 2369.9,-20.6675 2359.55,-18.4357 2360.42,-25.3816"/>
</g>
<!-- Node20&#45;&gt;Node11 -->
<g id="edge46" class="edge"><title>Node20&#45;&gt;Node11</title>
<path fill="none" stroke="midnightblue" d="M1007.4,-59.9445C1002.87,-59.2435 998.358,-58.5829 994,-58 831.286,-36.2373 784.894,-54.5367 620.204,-21.8983"/>
<polygon fill="midnightblue" stroke="midnightblue" points="620.714,-18.4307 610.219,-19.8864 619.331,-25.2928 620.714,-18.4307"/>
</g>
<!-- Node20&#45;&gt;Node12 -->
<g id="edge88" class="edge"><title>Node20&#45;&gt;Node12</title>
<path fill="none" stroke="midnightblue" d="M1108.57,-59.6644C1113.1,-59.0231 1117.63,-58.4529 1122,-58 1558.83,-12.7638 1675.28,-68.5287 2115.37,-22.0387"/>
<polygon fill="midnightblue" stroke="midnightblue" points="2115.92,-25.4995 2125.5,-20.9571 2115.18,-18.5391 2115.92,-25.4995"/>
</g>
<!-- Node20&#45;&gt;Node13 -->
<g id="edge86" class="edge"><title>Node20&#45;&gt;Node13</title>
<path fill="none" stroke="midnightblue" d="M1007.4,-65.4163C883.34,-56.5505 568.837,-33.5744 488.433,-21.772"/>
<polygon fill="midnightblue" stroke="midnightblue" points="488.754,-18.2779 478.32,-20.1147 487.622,-25.1858 488.754,-18.2779"/>
</g>
<!-- Node20&#45;&gt;Node15 -->
<g id="edge50" class="edge"><title>Node20&#45;&gt;Node15</title>
<path fill="none" stroke="midnightblue" d="M1007.45,-65.9825C871.335,-57.7683 501.826,-34.8596 412.454,-21.7207"/>
<polygon fill="midnightblue" stroke="midnightblue" points="412.797,-18.2299 402.36,-20.0513 411.654,-25.1361 412.797,-18.2299"/>
</g>
<!-- Node20&#45;&gt;Node17 -->
<g id="edge54" class="edge"><title>Node20&#45;&gt;Node17</title>
<path fill="none" stroke="midnightblue" d="M1007.2,-65.9216C899.962,-59.1698 652.61,-42.196 550.186,-21.7283"/>
<polygon fill="midnightblue" stroke="midnightblue" points="550.665,-18.2523 540.157,-19.6074 549.217,-25.1009 550.665,-18.2523"/>
</g>
<!-- Node20&#45;&gt;Node18 -->
<g id="edge82" class="edge"><title>Node20&#45;&gt;Node18</title>
<path fill="none" stroke="midnightblue" d="M1007.4,-66.0918C860.489,-57.5934 438.556,-32.7891 340.659,-21.9587"/>
<polygon fill="midnightblue" stroke="midnightblue" points="340.94,-18.4673 330.591,-20.7399 340.098,-25.4165 340.94,-18.4673"/>
</g>
<!-- Node21 -->
<g id="node45" class="node"><title>Node21</title>
<polygon fill="white" stroke="#bfbfbf" points="1320,-0.5 1320,-21.5 1364,-21.5 1364,-0.5 1320,-0.5"/>
<text text-anchor="middle" x="1342" y="-8.5" font-family="Helvetica,sans-Serif" font-size="10.00">cmath</text>
</g>
<!-- Node20&#45;&gt;Node21 -->
<g id="edge48" class="edge"><title>Node20&#45;&gt;Node21</title>
<path fill="none" stroke="midnightblue" d="M1108.51,-60.0561C1170.27,-49.06 1270.6,-30.9794 1309.72,-21.8752"/>
<polygon fill="midnightblue" stroke="midnightblue" points="1310.93,-25.1797 1319.78,-19.3557 1309.23,-18.3892 1310.93,-25.1797"/>
</g>
<!-- Node22 -->
<g id="node48" class="node"><title>Node22</title>
<polygon fill="white" stroke="#bfbfbf" points="1381.5,-0.5 1381.5,-21.5 1422.5,-21.5 1422.5,-0.5 1381.5,-0.5"/>
<text text-anchor="middle" x="1402" y="-8.5" font-family="Helvetica,sans-Serif" font-size="10.00">string</text>
</g>
<!-- Node20&#45;&gt;Node22 -->
<g id="edge52" class="edge"><title>Node20&#45;&gt;Node22</title>
<path fill="none" stroke="midnightblue" d="M1108.63,-60.1638C1113.15,-59.4159 1117.66,-58.6846 1122,-58 1230.17,-40.9503 1262.08,-49.6269 1371.5,-21.9999"/>
<polygon fill="midnightblue" stroke="midnightblue" points="1372.45,-25.3685 1381.27,-19.4902 1370.71,-18.5887 1372.45,-25.3685"/>
</g>
<!-- Node23 -->
<g id="node51" class="node"><title>Node23</title>
<polygon fill="white" stroke="#bfbfbf" points="1440,-0.5 1440,-21.5 1492,-21.5 1492,-0.5 1440,-0.5"/>
<text text-anchor="middle" x="1466" y="-8.5" font-family="Helvetica,sans-Serif" font-size="10.00">sstream</text>
</g>
<!-- Node20&#45;&gt;Node23 -->
<g id="edge56" class="edge"><title>Node20&#45;&gt;Node23</title>
<path fill="none" stroke="midnightblue" d="M1108.62,-60.0397C1113.14,-59.3183 1117.65,-58.627 1122,-58 1255.64,-38.7447 1294,-50.2838 1429.82,-21.9385"/>
<polygon fill="midnightblue" stroke="midnightblue" points="1430.71,-25.3268 1439.77,-19.8277 1429.26,-18.4791 1430.71,-25.3268"/>
</g>
<!-- Node24 -->
<g id="node53" class="node"><title>Node24</title>
<polygon fill="white" stroke="#bfbfbf" points="1509.5,-0.5 1509.5,-21.5 1624.5,-21.5 1624.5,-0.5 1509.5,-0.5"/>
<text text-anchor="middle" x="1567" y="-8.5" font-family="Helvetica,sans-Serif" font-size="10.00">yarp/os/BufferedPort.h</text>
</g>
<!-- Node20&#45;&gt;Node24 -->
<g id="edge58" class="edge"><title>Node20&#45;&gt;Node24</title>
<path fill="none" stroke="midnightblue" d="M1108.6,-59.9398C1113.13,-59.2398 1117.64,-58.5807 1122,-58 1286.53,-36.0789 1331.52,-43.6182 1499.52,-22.1232"/>
<polygon fill="midnightblue" stroke="midnightblue" points="1499.97,-25.5934 1509.44,-20.8381 1499.08,-18.6513 1499.97,-25.5934"/>
</g>
<!-- Node25 -->
<g id="node55" class="node"><title>Node25</title>
<polygon fill="white" stroke="#bfbfbf" points="1642,-0.5 1642,-21.5 1728,-21.5 1728,-0.5 1642,-0.5"/>
<text text-anchor="middle" x="1685" y="-8.5" font-family="Helvetica,sans-Serif" font-size="10.00">yarp/os/Bottle.h</text>
</g>
<!-- Node20&#45;&gt;Node25 -->
<g id="edge60" class="edge"><title>Node20&#45;&gt;Node25</title>
<path fill="none" stroke="midnightblue" d="M1108.59,-59.8253C1113.11,-59.1497 1117.63,-58.5276 1122,-58 1344.72,-31.0831 1405.76,-52.9733 1631.76,-22.0016"/>
<polygon fill="midnightblue" stroke="midnightblue" points="1632.53,-25.4287 1641.95,-20.585 1631.56,-18.4954 1632.53,-25.4287"/>
</g>
<!-- Node26 -->
<g id="node57" class="node"><title>Node26</title>
<polygon fill="white" stroke="#bfbfbf" points="1745.5,-0.5 1745.5,-21.5 1856.5,-21.5 1856.5,-0.5 1745.5,-0.5"/>
<text text-anchor="middle" x="1801" y="-8.5" font-family="Helvetica,sans-Serif" font-size="10.00">yarp/os/RateThread.h</text>
</g>
<!-- Node20&#45;&gt;Node26 -->
<g id="edge62" class="edge"><title>Node20&#45;&gt;Node26</title>
<path fill="none" stroke="midnightblue" d="M1108.58,-59.7694C1113.11,-59.1057 1117.63,-58.5016 1122,-58 1390.69,-27.1428 1463.22,-52.6007 1735.04,-22.1232"/>
<polygon fill="midnightblue" stroke="midnightblue" points="1735.66,-25.5744 1745.21,-20.9675 1734.87,-18.6192 1735.66,-25.5744"/>
</g>
<!-- Node27 -->
<g id="node60" class="node"><title>Node27</title>
<polygon fill="white" stroke="#bfbfbf" points="1874,-0.5 1874,-21.5 1984,-21.5 1984,-0.5 1874,-0.5"/>
<text text-anchor="middle" x="1929" y="-8.5" font-family="Helvetica,sans-Serif" font-size="10.00">yarp/os/PortReader.h</text>
</g>
<!-- Node20&#45;&gt;Node27 -->
<g id="edge66" class="edge"><title>Node20&#45;&gt;Node27</title>
<path fill="none" stroke="midnightblue" d="M1108.58,-59.7221C1113.11,-59.0685 1117.63,-58.4797 1122,-58 1447.27,-22.3018 1534.58,-57.3346 1863.6,-22.0284"/>
<polygon fill="midnightblue" stroke="midnightblue" points="1864.34,-25.4685 1873.9,-20.9083 1863.58,-18.5095 1864.34,-25.4685"/>
</g>
<!-- Node20&#45;&gt;Node28 -->
<g id="edge68" class="edge"><title>Node20&#45;&gt;Node28</title>
<path fill="none" stroke="midnightblue" d="M1108.51,-64.4939C1135.12,-62.2563 1168.3,-59.6793 1198,-58 1656.82,-32.054 1776.93,-70.6326 2237.58,-22.008"/>
<polygon fill="midnightblue" stroke="midnightblue" points="2238.25,-25.4556 2247.83,-20.9174 2237.51,-18.4949 2238.25,-25.4556"/>
</g>
<!-- Node29 -->
<g id="node64" class="node"><title>Node29</title>
<polygon fill="white" stroke="#bfbfbf" points="2001.5,-0.5 2001.5,-21.5 2108.5,-21.5 2108.5,-0.5 2001.5,-0.5"/>
<text text-anchor="middle" x="2055" y="-8.5" font-family="Helvetica,sans-Serif" font-size="10.00">yarp/os/RpcServer.h</text>
</g>
<!-- Node20&#45;&gt;Node29 -->
<g id="edge70" class="edge"><title>Node20&#45;&gt;Node29</title>
<path fill="none" stroke="midnightblue" d="M1108.57,-59.6886C1113.1,-59.0422 1117.63,-58.4641 1122,-58 1503.98,-17.45 1606.1,-63.1418 1991.27,-22.0647"/>
<polygon fill="midnightblue" stroke="midnightblue" points="1991.73,-25.536 2001.29,-20.9832 1990.98,-18.5764 1991.73,-25.536"/>
</g>
<!-- Node30 -->
<g id="node66" class="node"><title>Node30</title>
<polygon fill="white" stroke="#bfbfbf" points="627.5,-0.5 627.5,-21.5 768.5,-21.5 768.5,-0.5 627.5,-0.5"/>
<text text-anchor="middle" x="698" y="-8.5" font-family="Helvetica,sans-Serif" font-size="10.00">yarp/os/ConnectionReader.h</text>
</g>
<!-- Node20&#45;&gt;Node30 -->
<g id="edge72" class="edge"><title>Node20&#45;&gt;Node30</title>
<path fill="none" stroke="midnightblue" d="M1007.35,-60.234C1002.84,-59.4711 998.338,-58.7172 994,-58 920.115,-45.7852 835.75,-32.4494 776.041,-23.1139"/>
<polygon fill="midnightblue" stroke="midnightblue" points="776.353,-19.6202 765.933,-21.5348 775.273,-26.5364 776.353,-19.6202"/>
</g>
<!-- Node31 -->
<g id="node71" class="node"><title>Node31</title>
<polygon fill="white" stroke="#bfbfbf" points="785.5,-0.5 785.5,-21.5 882.5,-21.5 882.5,-0.5 785.5,-0.5"/>
<text text-anchor="middle" x="834" y="-8.5" font-family="Helvetica,sans-Serif" font-size="10.00">yarp/os/Property.h</text>
</g>
<!-- Node20&#45;&gt;Node31 -->
<g id="edge80" class="edge"><title>Node20&#45;&gt;Node31</title>
<path fill="none" stroke="midnightblue" d="M1017.44,-58.4966C980.127,-48.8364 924.668,-34.4765 884.502,-24.0765"/>
<polygon fill="midnightblue" stroke="midnightblue" points="885.199,-20.6415 874.641,-21.5231 883.444,-27.418 885.199,-20.6415"/>
</g>
<!-- Node32 -->
<g id="node74" class="node"><title>Node32</title>
<polygon fill="white" stroke="#bfbfbf" points="899.5,-0.5 899.5,-21.5 988.5,-21.5 988.5,-0.5 899.5,-0.5"/>
<text text-anchor="middle" x="944" y="-8.5" font-family="Helvetica,sans-Serif" font-size="10.00">yarp/sig/Matrix.h</text>
</g>
<!-- Node20&#45;&gt;Node32 -->
<g id="edge84" class="edge"><title>Node20&#45;&gt;Node32</title>
<path fill="none" stroke="midnightblue" d="M1037.36,-58.4966C1019.63,-49.4786 993.855,-36.3649 973.877,-26.2006"/>
<polygon fill="midnightblue" stroke="midnightblue" points="975.376,-23.0364 964.876,-21.6212 972.202,-29.2753 975.376,-23.0364"/>
</g>
<!-- Node33 -->
<g id="node78" class="node"><title>Node33</title>
<polygon fill="white" stroke="#bfbfbf" points="1005.5,-0.5 1005.5,-21.5 1126.5,-21.5 1126.5,-0.5 1005.5,-0.5"/>
<text text-anchor="middle" x="1066" y="-8.5" font-family="Helvetica,sans-Serif" font-size="10.00">ocra/util/StringUtilities.h</text>
</g>
<!-- Node20&#45;&gt;Node33 -->
<g id="edge90" class="edge"><title>Node20&#45;&gt;Node33</title>
<path fill="none" stroke="midnightblue" d="M1059.47,-58.3619C1060.49,-50.9219 1061.9,-40.7427 1063.14,-31.7276"/>
<polygon fill="midnightblue" stroke="midnightblue" points="1066.64,-31.9551 1064.54,-21.5707 1059.71,-30.9986 1066.64,-31.9551"/>
</g>
<!-- Node34 -->
<g id="node80" class="node"><title>Node34</title>
<polygon fill="white" stroke="#bfbfbf" points="1143.5,-0.5 1143.5,-21.5 1216.5,-21.5 1216.5,-0.5 1143.5,-0.5"/>
<text text-anchor="middle" x="1180" y="-8.5" font-family="Helvetica,sans-Serif" font-size="10.00">Eigen/Dense</text>
</g>
<!-- Node20&#45;&gt;Node34 -->
<g id="edge92" class="edge"><title>Node20&#45;&gt;Node34</title>
<path fill="none" stroke="midnightblue" d="M1080.09,-58.4966C1099.23,-49.397 1127.15,-36.1273 1148.61,-25.9253"/>
<polygon fill="midnightblue" stroke="midnightblue" points="1150.13,-29.0758 1157.66,-21.6212 1147.12,-22.7539 1150.13,-29.0758"/>
</g>
<!-- Node35 -->
<g id="node82" class="node"><title>Node35</title>
<polygon fill="white" stroke="#bfbfbf" points="1234,-0.5 1234,-21.5 1302,-21.5 1302,-0.5 1234,-0.5"/>
<text text-anchor="middle" x="1268" y="-8.5" font-family="Helvetica,sans-Serif" font-size="10.00">Eigen/Lgsm</text>
</g>
<!-- Node20&#45;&gt;Node35 -->
<g id="edge94" class="edge"><title>Node20&#45;&gt;Node35</title>
<path fill="none" stroke="midnightblue" d="M1096.03,-58.4966C1132.05,-48.5477 1186.12,-33.614 1223.99,-23.155"/>
<polygon fill="midnightblue" stroke="midnightblue" points="1225.02,-26.501 1233.73,-20.465 1223.16,-19.7536 1225.02,-26.501"/>
</g>
</g>
</svg>
