<?xml version="1.0" encoding="UTF-8" standalone="no"?>
<!DOCTYPE svg PUBLIC "-//W3C//DTD SVG 1.1//EN"
 "http://www.w3.org/Graphics/SVG/1.1/DTD/svg11.dtd">
<!-- Generated by graphviz version 2.26.3 (20100126.1600)
 -->
<!-- Title: G Pages: 1 -->
<svg width="1218pt" height="320pt"
 viewBox="0.00 0.00 1218.00 320.00" xmlns="http://www.w3.org/2000/svg" xmlns:xlink="http://www.w3.org/1999/xlink">
<g id="graph1" class="graph" transform="scale(1 1) rotate(0) translate(4 316)">
<title>G</title>
<polygon fill="white" stroke="white" points="-4,5 -4,-316 1215,-316 1215,5 -4,5"/>
<!-- Node1 -->
<g id="node1" class="node"><title>Node1</title>
<polygon fill="#bfbfbf" stroke="black" points="547.5,-290.5 547.5,-311.5 940.5,-311.5 940.5,-290.5 547.5,-290.5"/>
<text text-anchor="middle" x="744" y="-298.5" font-family="Helvetica,sans-Serif" font-size="10.00">ocra&#45;wbi&#45;plugins/ocra&#45;icub&#45;clients/walking&#45;client/include/walking&#45;client/StepController.h</text>
</g>
<!-- Node2 -->
<g id="node3" class="node"><title>Node2</title>
<a xlink:href="BaseOfSupport_8h.html" target="_top" xlink:title="ocra&#45;wbi&#45;plugins/ocra&#45;icub&#45;clients/walking&#45;client/include/walking&#45;client/BaseOfSupport.h">
<polygon fill="white" stroke="black" points="432,-232.5 432,-253.5 830,-253.5 830,-232.5 432,-232.5"/>
<text text-anchor="middle" x="631" y="-240.5" font-family="Helvetica,sans-Serif" font-size="10.00">ocra&#45;wbi&#45;plugins/ocra&#45;icub&#45;clients/walking&#45;client/include/walking&#45;client/BaseOfSupport.h</text>
</a>
</g>
<!-- Node1&#45;&gt;Node2 -->
<g id="edge2" class="edge"><title>Node1&#45;&gt;Node2</title>
<path fill="none" stroke="midnightblue" d="M714.375,-285.794C694.659,-275.675 669.252,-262.634 651.693,-253.621"/>
<polygon fill="midnightblue" stroke="midnightblue" points="713.042,-289.044 723.537,-290.497 716.238,-282.816 713.042,-289.044"/>
</g>
<!-- Node3 -->
<g id="node5" class="node"><title>Node3</title>
<a xlink:href="MIQPLinearConstraints_8h.html" target="_top" xlink:title="ocra&#45;wbi&#45;plugins/ocra&#45;icub&#45;clients/walking&#45;client/include/walking&#45;client/constraints/MIQPLinearConstraints.h">
<polygon fill="white" stroke="black" points="0,-174.5 0,-195.5 484,-195.5 484,-174.5 0,-174.5"/>
<text text-anchor="middle" x="242" y="-182.5" font-family="Helvetica,sans-Serif" font-size="10.00">ocra&#45;wbi&#45;plugins/ocra&#45;icub&#45;clients/walking&#45;client/include/walking&#45;client/constraints/MIQPLinearConstraints.h</text>
</a>
</g>
<!-- Node1&#45;&gt;Node3 -->
<g id="edge20" class="edge"><title>Node1&#45;&gt;Node3</title>
<path fill="none" stroke="midnightblue" d="M619.962,-289.254C559.865,-281.942 487.019,-270.674 423,-254 364.421,-238.743 298.735,-210.828 264.897,-195.599"/>
<polygon fill="midnightblue" stroke="midnightblue" points="619.916,-292.773 630.26,-290.483 620.746,-285.822 619.916,-292.773"/>
</g>
<!-- Node5 -->
<g id="node9" class="node"><title>Node5</title>
<a xlink:href="WalkingClient_8h.html" target="_top" xlink:title="ocra&#45;wbi&#45;plugins/ocra&#45;icub&#45;clients/walking&#45;client/include/walking&#45;client/WalkingClient.h">
<polygon fill="white" stroke="black" points="543,-58.5 543,-79.5 935,-79.5 935,-58.5 543,-58.5"/>
<text text-anchor="middle" x="739" y="-66.5" font-family="Helvetica,sans-Serif" font-size="10.00">ocra&#45;wbi&#45;plugins/ocra&#45;icub&#45;clients/walking&#45;client/include/walking&#45;client/WalkingClient.h</text>
</a>
</g>
<!-- Node1&#45;&gt;Node5 -->
<g id="edge22" class="edge"><title>Node1&#45;&gt;Node5</title>
<path fill="none" stroke="midnightblue" d="M797.537,-286.671C813.675,-279.577 829.587,-269.159 839,-254 857.756,-223.794 841.134,-209.491 839,-174 837.442,-148.082 846.906,-137.26 832,-116 819.537,-98.225 798.324,-86.7869 779.302,-79.6505"/>
<polygon fill="midnightblue" stroke="midnightblue" points="796.035,-283.503 788.057,-290.475 798.641,-289.999 796.035,-283.503"/>
</g>
<!-- Node11 -->
<g id="node23" class="node"><title>Node11</title>
<a xlink:href="StepController_8cpp.html" target="_top" xlink:title="ocra&#45;wbi&#45;plugins/ocra&#45;icub&#45;clients/walking&#45;client/src/StepController.cpp">
<polygon fill="white" stroke="black" points="886,-232.5 886,-253.5 1210,-253.5 1210,-232.5 886,-232.5"/>
<text text-anchor="middle" x="1048" y="-240.5" font-family="Helvetica,sans-Serif" font-size="10.00">ocra&#45;wbi&#45;plugins/ocra&#45;icub&#45;clients/walking&#45;client/src/StepController.cpp</text>
</a>
</g>
<!-- Node1&#45;&gt;Node11 -->
<g id="edge24" class="edge"><title>Node1&#45;&gt;Node11</title>
<path fill="none" stroke="midnightblue" d="M808.994,-288.6C863.71,-278.161 941.105,-263.394 992.845,-253.523"/>
<polygon fill="midnightblue" stroke="midnightblue" points="808.219,-285.184 799.052,-290.497 809.531,-292.06 808.219,-285.184"/>
</g>
<!-- Node2&#45;&gt;Node3 -->
<g id="edge4" class="edge"><title>Node2&#45;&gt;Node3</title>
<path fill="none" stroke="midnightblue" d="M550.435,-230.988C480.29,-220.529 379.608,-205.517 312.577,-195.523"/>
<polygon fill="midnightblue" stroke="midnightblue" points="550.148,-234.484 560.555,-232.497 551.181,-227.56 550.148,-234.484"/>
</g>
<!-- Node10 -->
<g id="node19" class="node"><title>Node10</title>
<a xlink:href="BaseOfSupport_8cpp.html" target="_top" xlink:title="ocra&#45;wbi&#45;plugins/ocra&#45;icub&#45;clients/walking&#45;client/src/BaseOfSupport.cpp">
<polygon fill="white" stroke="black" points="501.5,-174.5 501.5,-195.5 830.5,-195.5 830.5,-174.5 501.5,-174.5"/>
<text text-anchor="middle" x="666" y="-182.5" font-family="Helvetica,sans-Serif" font-size="10.00">ocra&#45;wbi&#45;plugins/ocra&#45;icub&#45;clients/walking&#45;client/src/BaseOfSupport.cpp</text>
</a>
</g>
<!-- Node2&#45;&gt;Node10 -->
<g id="edge18" class="edge"><title>Node2&#45;&gt;Node10</title>
<path fill="none" stroke="midnightblue" d="M642.667,-223.667C648.322,-214.295 654.895,-203.402 659.621,-195.571"/>
<polygon fill="midnightblue" stroke="midnightblue" points="639.59,-221.992 637.42,-232.362 645.583,-225.608 639.59,-221.992"/>
</g>
<!-- Node4 -->
<g id="node7" class="node"><title>Node4</title>
<a xlink:href="MIQPController_8h.html" target="_top" xlink:title="A thread for launching trajectory generators.">
<polygon fill="white" stroke="black" points="43,-116.5 43,-137.5 441,-137.5 441,-116.5 43,-116.5"/>
<text text-anchor="middle" x="242" y="-124.5" font-family="Helvetica,sans-Serif" font-size="10.00">ocra&#45;wbi&#45;plugins/ocra&#45;icub&#45;clients/walking&#45;client/include/walking&#45;client/MIQPController.h</text>
</a>
</g>
<!-- Node3&#45;&gt;Node4 -->
<g id="edge6" class="edge"><title>Node3&#45;&gt;Node4</title>
<path fill="none" stroke="midnightblue" d="M242,-164.191C242,-155.168 242,-144.994 242,-137.571"/>
<polygon fill="midnightblue" stroke="midnightblue" points="238.5,-164.362 242,-174.362 245.5,-164.362 238.5,-164.362"/>
</g>
<!-- Node9 -->
<g id="node17" class="node"><title>Node9</title>
<a xlink:href="MIQPLinearConstraints_8cpp.html" target="_top" xlink:title="ocra&#45;wbi&#45;plugins/ocra&#45;icub&#45;clients/walking&#45;client/src/MIQPLinearConstraints.cpp">
<polygon fill="white" stroke="black" points="459,-116.5 459,-137.5 823,-137.5 823,-116.5 459,-116.5"/>
<text text-anchor="middle" x="641" y="-124.5" font-family="Helvetica,sans-Serif" font-size="10.00">ocra&#45;wbi&#45;plugins/ocra&#45;icub&#45;clients/walking&#45;client/src/MIQPLinearConstraints.cpp</text>
</a>
</g>
<!-- Node3&#45;&gt;Node9 -->
<g id="edge16" class="edge"><title>Node3&#45;&gt;Node9</title>
<path fill="none" stroke="midnightblue" d="M324.194,-173.052C396.161,-162.591 499.714,-147.538 568.609,-137.523"/>
<polygon fill="midnightblue" stroke="midnightblue" points="323.648,-169.594 314.256,-174.497 324.655,-176.522 323.648,-169.594"/>
</g>
<!-- Node4&#45;&gt;Node5 -->
<g id="edge8" class="edge"><title>Node4&#45;&gt;Node5</title>
<path fill="none" stroke="midnightblue" d="M342.19,-115.308C431.912,-104.837 562.31,-89.6198 648.828,-79.5231"/>
<polygon fill="midnightblue" stroke="midnightblue" points="341.53,-111.861 332.003,-116.497 342.341,-118.814 341.53,-111.861"/>
</g>
<!-- Node8 -->
<g id="node15" class="node"><title>Node8</title>
<a xlink:href="MIQPController_8cpp.html" target="_top" xlink:title="ocra&#45;wbi&#45;plugins/ocra&#45;icub&#45;clients/walking&#45;client/src/MIQPController.cpp">
<polygon fill="white" stroke="black" points="77.5,-58.5 77.5,-79.5 406.5,-79.5 406.5,-58.5 77.5,-58.5"/>
<text text-anchor="middle" x="242" y="-66.5" font-family="Helvetica,sans-Serif" font-size="10.00">ocra&#45;wbi&#45;plugins/ocra&#45;icub&#45;clients/walking&#45;client/src/MIQPController.cpp</text>
</a>
</g>
<!-- Node4&#45;&gt;Node8 -->
<g id="edge14" class="edge"><title>Node4&#45;&gt;Node8</title>
<path fill="none" stroke="midnightblue" d="M242,-106.191C242,-97.1684 242,-86.9941 242,-79.5707"/>
<polygon fill="midnightblue" stroke="midnightblue" points="238.5,-106.362 242,-116.362 245.5,-106.362 238.5,-106.362"/>
</g>
<!-- Node6 -->
<g id="node11" class="node"><title>Node6</title>
<a xlink:href="ocra-icub-clients_2walking-client_2src_2main_8cpp.html" target="_top" xlink:title="ocra&#45;wbi&#45;plugins/ocra&#45;icub&#45;clients/walking&#45;client/src/main.cpp">
<polygon fill="white" stroke="black" points="437.5,-0.5 437.5,-21.5 720.5,-21.5 720.5,-0.5 437.5,-0.5"/>
<text text-anchor="middle" x="579" y="-8.5" font-family="Helvetica,sans-Serif" font-size="10.00">ocra&#45;wbi&#45;plugins/ocra&#45;icub&#45;clients/walking&#45;client/src/main.cpp</text>
</a>
</g>
<!-- Node5&#45;&gt;Node6 -->
<g id="edge10" class="edge"><title>Node5&#45;&gt;Node6</title>
<path fill="none" stroke="midnightblue" d="M700.405,-55.0095C671.972,-44.7023 633.905,-30.903 608.029,-21.5231"/>
<polygon fill="midnightblue" stroke="midnightblue" points="699.431,-58.3791 710.025,-58.4966 701.817,-51.7981 699.431,-58.3791"/>
</g>
<!-- Node7 -->
<g id="node13" class="node"><title>Node7</title>
<a xlink:href="WalkingClient_8cpp.html" target="_top" xlink:title="ocra&#45;wbi&#45;plugins/ocra&#45;icub&#45;clients/walking&#45;client/src/WalkingClient.cpp">
<polygon fill="white" stroke="black" points="737.5,-0.5 737.5,-21.5 1060.5,-21.5 1060.5,-0.5 737.5,-0.5"/>
<text text-anchor="middle" x="899" y="-8.5" font-family="Helvetica,sans-Serif" font-size="10.00">ocra&#45;wbi&#45;plugins/ocra&#45;icub&#45;clients/walking&#45;client/src/WalkingClient.cpp</text>
</a>
</g>
<!-- Node5&#45;&gt;Node7 -->
<g id="edge12" class="edge"><title>Node5&#45;&gt;Node7</title>
<path fill="none" stroke="midnightblue" d="M777.595,-55.0095C806.028,-44.7023 844.095,-30.903 869.971,-21.5231"/>
<polygon fill="midnightblue" stroke="midnightblue" points="776.183,-51.7981 767.975,-58.4966 778.569,-58.3791 776.183,-51.7981"/>
</g>
</g>
</svg>
