<?xml version="1.0" encoding="UTF-8" standalone="no"?>
<!DOCTYPE svg PUBLIC "-//W3C//DTD SVG 1.1//EN"
 "http://www.w3.org/Graphics/SVG/1.1/DTD/svg11.dtd">
<!-- Generated by graphviz version 2.26.3 (20100126.1600)
 -->
<!-- Title: G Pages: 1 -->
<svg width="432pt" height="110pt"
 viewBox="0.00 0.00 432.00 110.00" xmlns="http://www.w3.org/2000/svg" xmlns:xlink="http://www.w3.org/1999/xlink">
<g id="graph1" class="graph" transform="scale(1 1) rotate(0) translate(4 106)">
<title>G</title>
<polygon fill="white" stroke="white" points="-4,5 -4,-106 429,-106 429,5 -4,5"/>
<!-- Node1 -->
<g id="node1" class="node"><title>Node1</title>
<polygon fill="#bfbfbf" stroke="black" points="302.5,-40.5 302.5,-61.5 423.5,-61.5 423.5,-40.5 302.5,-40.5"/>
<text text-anchor="middle" x="363" y="-48.5" font-family="Helvetica,sans-Serif" font-size="10.00">ShapeConstraintsStruct</text>
</g>
<!-- Node2 -->
<g id="node2" class="node"><title>Node2</title>
<a xlink:href="structShapeConstraintsStruct_1_1sequentialityStruct.html" target="_top" xlink:title="ShapeConstraintsStruct::sequentialityStruct">
<polygon fill="white" stroke="black" points="0,-80.5 0,-101.5 208,-101.5 208,-80.5 0,-80.5"/>
<text text-anchor="middle" x="104" y="-88.5" font-family="Helvetica,sans-Serif" font-size="10.00">ShapeConstraintsStruct::sequentialityStruct</text>
</a>
</g>
<!-- Node2&#45;&gt;Node1 -->
<g id="edge2" class="edge"><title>Node2&#45;&gt;Node1</title>
<path fill="none" stroke="#9a32cd" stroke-dasharray="5,2" d="M208.711,-79.145C233.458,-75.9219 259.71,-72.1576 284,-68 294.786,-66.1538 306.333,-63.8545 317.176,-61.5495"/>
<polygon fill="#9a32cd" stroke="#9a32cd" points="208.05,-75.701 198.577,-80.446 208.942,-82.644 208.05,-75.701"/>
<text text-anchor="middle" x="255" y="-80" font-family="Helvetica,sans-Serif" font-size="10.00"> sequentiality</text>
</g>
<!-- Node3 -->
<g id="node4" class="node"><title>Node3</title>
<a xlink:href="structShapeConstraintsStruct_1_1constancyStruct.html" target="_top" xlink:title="ShapeConstraintsStruct::constancyStruct">
<polygon fill="white" stroke="black" points="5,-40.5 5,-61.5 203,-61.5 203,-40.5 5,-40.5"/>
<text text-anchor="middle" x="104" y="-48.5" font-family="Helvetica,sans-Serif" font-size="10.00">ShapeConstraintsStruct::constancyStruct</text>
</a>
</g>
<!-- Node3&#45;&gt;Node1 -->
<g id="edge4" class="edge"><title>Node3&#45;&gt;Node1</title>
<path fill="none" stroke="#9a32cd" stroke-dasharray="5,2" d="M213.286,-51C243.743,-51 275.73,-51 302.282,-51"/>
<polygon fill="#9a32cd" stroke="#9a32cd" points="213.025,-47.5001 203.025,-51 213.025,-54.5001 213.025,-47.5001"/>
<text text-anchor="middle" x="255" y="-55" font-family="Helvetica,sans-Serif" font-size="10.00"> constancy</text>
</g>
<!-- Node4 -->
<g id="node6" class="node"><title>Node4</title>
<a xlink:href="structShapeConstraintsStruct_1_1boundingStruct.html" target="_top" xlink:title="ShapeConstraintsStruct::boundingStruct">
<polygon fill="white" stroke="black" points="8,-0.5 8,-21.5 200,-21.5 200,-0.5 8,-0.5"/>
<text text-anchor="middle" x="104" y="-8.5" font-family="Helvetica,sans-Serif" font-size="10.00">ShapeConstraintsStruct::boundingStruct</text>
</a>
</g>
<!-- Node4&#45;&gt;Node1 -->
<g id="edge6" class="edge"><title>Node4&#45;&gt;Node1</title>
<path fill="none" stroke="#9a32cd" stroke-dasharray="5,2" d="M208.711,-22.855C233.458,-26.0781 259.71,-29.8424 284,-34 294.786,-35.8462 306.333,-38.1455 317.176,-40.4505"/>
<polygon fill="#9a32cd" stroke="#9a32cd" points="208.942,-19.356 198.577,-21.554 208.05,-26.299 208.942,-19.356"/>
<text text-anchor="middle" x="255" y="-38" font-family="Helvetica,sans-Serif" font-size="10.00"> bounding</text>
</g>
</g>
</svg>
