<?xml version="1.0" encoding="UTF-8" standalone="no"?>
<!DOCTYPE svg PUBLIC "-//W3C//DTD SVG 1.1//EN"
 "http://www.w3.org/Graphics/SVG/1.1/DTD/svg11.dtd">
<!-- Generated by graphviz version 2.26.3 (20100126.1600)
 -->
<!-- Title: G Pages: 1 -->
<svg width="2584pt" height="436pt"
 viewBox="0.00 0.00 2584.00 436.00" xmlns="http://www.w3.org/2000/svg" xmlns:xlink="http://www.w3.org/1999/xlink">
<g id="graph1" class="graph" transform="scale(1 1) rotate(0) translate(4 432)">
<title>G</title>
<polygon fill="white" stroke="white" points="-4,5 -4,-432 2581,-432 2581,5 -4,5"/>
<!-- Node1 -->
<g id="node1" class="node"><title>Node1</title>
<polygon fill="#bfbfbf" stroke="black" points="1068,-406.5 1068,-427.5 1458,-427.5 1458,-406.5 1068,-406.5"/>
<text text-anchor="middle" x="1263" y="-414.5" font-family="Helvetica,sans-Serif" font-size="10.00">ocra&#45;wbi&#45;plugins/ocra&#45;icub&#45;clients/task&#45;operations&#45;demo/src/task&#45;operations&#45;demo.cpp</text>
</g>
<!-- Node2 -->
<g id="node3" class="node"><title>Node2</title>
<polygon fill="white" stroke="#bfbfbf" points="-0.5,-0.5 -0.5,-21.5 128.5,-21.5 128.5,-0.5 -0.5,-0.5"/>
<text text-anchor="middle" x="64" y="-8.5" font-family="Helvetica,sans-Serif" font-size="10.00">yarp/os/ResourceFinder.h</text>
</g>
<!-- Node1&#45;&gt;Node2 -->
<g id="edge2" class="edge"><title>Node1&#45;&gt;Node2</title>
<path fill="none" stroke="midnightblue" d="M1067.76,-410.026C851.803,-401.678 517.721,-386.716 392,-370 246.486,-350.653 69,-447.795 69,-301 69,-301 69,-301 69,-127 69,-93.5668 66.9012,-54.7635 65.4232,-31.5824"/>
<polygon fill="midnightblue" stroke="midnightblue" points="68.912,-31.2966 64.7594,-21.5495 61.9273,-31.7588 68.912,-31.2966"/>
</g>
<!-- Node3 -->
<g id="node5" class="node"><title>Node3</title>
<polygon fill="white" stroke="#bfbfbf" points="797.5,-174.5 797.5,-195.5 894.5,-195.5 894.5,-174.5 797.5,-174.5"/>
<text text-anchor="middle" x="846" y="-182.5" font-family="Helvetica,sans-Serif" font-size="10.00">yarp/os/Network.h</text>
</g>
<!-- Node1&#45;&gt;Node3 -->
<g id="edge4" class="edge"><title>Node1&#45;&gt;Node3</title>
<path fill="none" stroke="midnightblue" d="M1239.77,-406.325C1186.61,-381.621 1052.46,-317.735 946,-254 918.412,-237.483 888.221,-216.17 868.309,-201.63"/>
<polygon fill="midnightblue" stroke="midnightblue" points="870.317,-198.762 860.187,-195.657 866.17,-204.401 870.317,-198.762"/>
</g>
<!-- Node4 -->
<g id="node7" class="node"><title>Node4</title>
<polygon fill="white" stroke="#bfbfbf" points="146,-0.5 146,-21.5 222,-21.5 222,-0.5 146,-0.5"/>
<text text-anchor="middle" x="184" y="-8.5" font-family="Helvetica,sans-Serif" font-size="10.00">yarp/os/Log.h</text>
</g>
<!-- Node1&#45;&gt;Node4 -->
<g id="edge6" class="edge"><title>Node1&#45;&gt;Node4</title>
<path fill="none" stroke="midnightblue" d="M1082.19,-406.494C776.397,-387.509 190,-345.325 190,-301 190,-301 190,-301 190,-127 190,-93.5531 187.481,-54.7539 185.708,-31.5773"/>
<polygon fill="midnightblue" stroke="midnightblue" points="189.192,-31.2382 184.911,-21.5467 182.214,-31.7924 189.192,-31.2382"/>
</g>
<!-- Node5 -->
<g id="node9" class="node"><title>Node5</title>
<polygon fill="white" stroke="#bfbfbf" points="2469.5,-0.5 2469.5,-21.5 2576.5,-21.5 2576.5,-0.5 2469.5,-0.5"/>
<text text-anchor="middle" x="2523" y="-8.5" font-family="Helvetica,sans-Serif" font-size="10.00">yarp/os/LogStream.h</text>
</g>
<!-- Node1&#45;&gt;Node5 -->
<g id="edge8" class="edge"><title>Node1&#45;&gt;Node5</title>
<path fill="none" stroke="midnightblue" d="M1359.83,-406.445C1471.24,-391.544 1639,-359.408 1639,-301 1639,-301 1639,-301 1639,-127 1639,-37.5322 2329.16,-35.9003 2459.33,-21.9528"/>
<polygon fill="midnightblue" stroke="midnightblue" points="2459.78,-25.425 2469.26,-20.6994 2458.9,-18.4801 2459.78,-25.425"/>
</g>
<!-- Node6 -->
<g id="node11" class="node"><title>Node6</title>
<polygon fill="white" stroke="#bfbfbf" points="2370,-0.5 2370,-21.5 2452,-21.5 2452,-0.5 2370,-0.5"/>
<text text-anchor="middle" x="2411" y="-8.5" font-family="Helvetica,sans-Serif" font-size="10.00">yarp/os/Time.h</text>
</g>
<!-- Node1&#45;&gt;Node6 -->
<g id="edge10" class="edge"><title>Node1&#45;&gt;Node6</title>
<path fill="none" stroke="midnightblue" d="M1261.89,-406.498C1259.99,-383.456 1258.35,-327.534 1282,-290 1380.12,-134.295 1450.41,-116.205 1625,-58 1777.39,-7.19786 2182.85,-42.2738 2359.85,-21.8674"/>
<polygon fill="midnightblue" stroke="midnightblue" points="2360.41,-25.3253 2369.9,-20.6153 2359.54,-18.3791 2360.41,-25.3253"/>
</g>
<!-- Node7 -->
<g id="node13" class="node"><title>Node7</title>
<a xlink:href="TaskOpsClient_8h.html" target="_top" xlink:title="task&#45;operations&#45;demo/TaskOpsClient.h">
<polygon fill="white" stroke="black" points="1290.5,-348.5 1290.5,-369.5 1477.5,-369.5 1477.5,-348.5 1290.5,-348.5"/>
<text text-anchor="middle" x="1384" y="-356.5" font-family="Helvetica,sans-Serif" font-size="10.00">task&#45;operations&#45;demo/TaskOpsClient.h</text>
</a>
</g>
<!-- Node1&#45;&gt;Node7 -->
<g id="edge12" class="edge"><title>Node1&#45;&gt;Node7</title>
<path fill="none" stroke="midnightblue" d="M1284.91,-406.497C1303.81,-397.438 1331.33,-384.246 1352.58,-374.063"/>
<polygon fill="midnightblue" stroke="midnightblue" points="1354.34,-377.1 1361.84,-369.621 1351.31,-370.788 1354.34,-377.1"/>
</g>
<!-- Node8 -->
<g id="node15" class="node"><title>Node8</title>
<a xlink:href="IcubClient_8h.html" target="_top" xlink:title="ocra&#45;icub/IcubClient.h">
<polygon fill="white" stroke="black" points="1078,-290.5 1078,-311.5 1190,-311.5 1190,-290.5 1078,-290.5"/>
<text text-anchor="middle" x="1134" y="-298.5" font-family="Helvetica,sans-Serif" font-size="10.00">ocra&#45;icub/IcubClient.h</text>
</a>
</g>
<!-- Node1&#45;&gt;Node8 -->
<g id="edge120" class="edge"><title>Node1&#45;&gt;Node8</title>
<path fill="none" stroke="midnightblue" d="M1251.1,-406.295C1228.82,-386.268 1180.67,-342.964 1153.56,-318.589"/>
<polygon fill="midnightblue" stroke="midnightblue" points="1155.65,-315.763 1145.88,-311.679 1150.97,-320.968 1155.65,-315.763"/>
</g>
<!-- Node37 -->
<g id="node96" class="node"><title>Node37</title>
<polygon fill="white" stroke="#bfbfbf" points="1462.5,-290.5 1462.5,-311.5 1611.5,-311.5 1611.5,-290.5 1462.5,-290.5"/>
<text text-anchor="middle" x="1537" y="-298.5" font-family="Helvetica,sans-Serif" font-size="10.00">ocra&#45;recipes/ControllerClient.h</text>
</g>
<!-- Node1&#45;&gt;Node37 -->
<g id="edge122" class="edge"><title>Node1&#45;&gt;Node37</title>
<path fill="none" stroke="midnightblue" d="M1341.65,-406.461C1395.87,-398.073 1462.28,-385.236 1486,-370 1504.79,-357.932 1519.06,-336.341 1527.66,-320.516"/>
<polygon fill="midnightblue" stroke="midnightblue" points="1530.81,-322.038 1532.27,-311.545 1524.59,-318.837 1530.81,-322.038"/>
</g>
<!-- Node38 -->
<g id="node100" class="node"><title>Node38</title>
<polygon fill="white" stroke="#bfbfbf" points="1667,-348.5 1667,-369.5 1811,-369.5 1811,-348.5 1667,-348.5"/>
<text text-anchor="middle" x="1739" y="-356.5" font-family="Helvetica,sans-Serif" font-size="10.00">ocra&#45;recipes/ClientManager.h</text>
</g>
<!-- Node1&#45;&gt;Node38 -->
<g id="edge124" class="edge"><title>Node1&#45;&gt;Node38</title>
<path fill="none" stroke="midnightblue" d="M1351.7,-406.497C1430.76,-397.091 1549.62,-382.84 1653,-370 1654.26,-369.843 1655.53,-369.685 1656.81,-369.526"/>
<polygon fill="midnightblue" stroke="midnightblue" points="1657.26,-372.997 1666.74,-368.281 1656.39,-366.052 1657.26,-372.997"/>
</g>
<!-- Node7&#45;&gt;Node8 -->
<g id="edge14" class="edge"><title>Node7&#45;&gt;Node8</title>
<path fill="none" stroke="midnightblue" d="M1338.73,-348.497C1296.74,-338.755 1234.14,-324.233 1189.23,-313.813"/>
<polygon fill="midnightblue" stroke="midnightblue" points="1189.89,-310.374 1179.36,-311.523 1188.31,-317.193 1189.89,-310.374"/>
</g>
<!-- Node36 -->
<g id="node94" class="node"><title>Node36</title>
<polygon fill="white" stroke="#bfbfbf" points="1290.5,-290.5 1290.5,-311.5 1445.5,-311.5 1445.5,-290.5 1290.5,-290.5"/>
<text text-anchor="middle" x="1368" y="-298.5" font-family="Helvetica,sans-Serif" font-size="10.00">ocra&#45;recipes/TrajectoryThread.h</text>
</g>
<!-- Node7&#45;&gt;Node36 -->
<g id="edge116" class="edge"><title>Node7&#45;&gt;Node36</title>
<path fill="none" stroke="midnightblue" d="M1381.07,-348.362C1378.99,-340.84 1376.14,-330.519 1373.64,-321.431"/>
<polygon fill="midnightblue" stroke="midnightblue" points="1376.95,-320.28 1370.92,-311.571 1370.2,-322.141 1376.95,-320.28"/>
</g>
<!-- Node7&#45;&gt;Node37 -->
<g id="edge118" class="edge"><title>Node7&#45;&gt;Node37</title>
<path fill="none" stroke="midnightblue" d="M1411.71,-348.497C1436.33,-339.164 1472.52,-325.445 1499.68,-315.147"/>
<polygon fill="midnightblue" stroke="midnightblue" points="1501.13,-318.341 1509.24,-311.523 1498.65,-311.795 1501.13,-318.341"/>
</g>
<!-- Node9 -->
<g id="node17" class="node"><title>Node9</title>
<a xlink:href="ModelInitializer_8h.html" target="_top" xlink:title="ocra&#45;icub/ModelInitializer.h">
<polygon fill="white" stroke="black" points="954.5,-232.5 954.5,-253.5 1087.5,-253.5 1087.5,-232.5 954.5,-232.5"/>
<text text-anchor="middle" x="1021" y="-240.5" font-family="Helvetica,sans-Serif" font-size="10.00">ocra&#45;icub/ModelInitializer.h</text>
</a>
</g>
<!-- Node8&#45;&gt;Node9 -->
<g id="edge16" class="edge"><title>Node8&#45;&gt;Node9</title>
<path fill="none" stroke="midnightblue" d="M1113.54,-290.497C1095.97,-281.479 1070.42,-268.365 1050.61,-258.201"/>
<polygon fill="midnightblue" stroke="midnightblue" points="1052.19,-255.074 1041.69,-253.621 1048.99,-261.301 1052.19,-255.074"/>
</g>
<!-- Node10 -->
<g id="node19" class="node"><title>Node10</title>
<a xlink:href="OcraWbiModel_8h.html" target="_top" xlink:title="Implementation of ocra::Model using wholeBodyInterface.">
<polygon fill="white" stroke="black" points="990,-174.5 990,-195.5 1122,-195.5 1122,-174.5 990,-174.5"/>
<text text-anchor="middle" x="1056" y="-182.5" font-family="Helvetica,sans-Serif" font-size="10.00">ocra&#45;icub/OcraWbiModel.h</text>
</a>
</g>
<!-- Node8&#45;&gt;Node10 -->
<g id="edge112" class="edge"><title>Node8&#45;&gt;Node10</title>
<path fill="none" stroke="midnightblue" d="M1128.96,-290.324C1122.22,-276.421 1109.52,-251.582 1096,-232 1089.08,-221.977 1080.42,-211.588 1072.93,-203.135"/>
<polygon fill="midnightblue" stroke="midnightblue" points="1075.5,-200.765 1066.2,-195.698 1070.31,-205.462 1075.5,-200.765"/>
</g>
<!-- Node14 -->
<g id="node28" class="node"><title>Node14</title>
<a xlink:href="OcraWbiConversions_8h.html" target="_top" xlink:title="A utility class full of static conversion functions.">
<polygon fill="white" stroke="black" points="407.5,-116.5 407.5,-137.5 568.5,-137.5 568.5,-116.5 407.5,-116.5"/>
<text text-anchor="middle" x="488" y="-124.5" font-family="Helvetica,sans-Serif" font-size="10.00">ocra&#45;icub/OcraWbiConversions.h</text>
</a>
</g>
<!-- Node8&#45;&gt;Node14 -->
<g id="edge110" class="edge"><title>Node8&#45;&gt;Node14</title>
<path fill="none" stroke="midnightblue" d="M1090.61,-290.486C1052.45,-281.16 995.449,-267.035 946,-254 795.11,-214.225 617.217,-163.91 534.558,-140.333"/>
<polygon fill="midnightblue" stroke="midnightblue" points="535.298,-136.905 524.721,-137.525 533.376,-143.636 535.298,-136.905"/>
</g>
<!-- Node20 -->
<g id="node42" class="node"><title>Node20</title>
<a xlink:href="Utilities_8h.html" target="_top" xlink:title="Some useful tools for the ocra&#45;icub lib.">
<polygon fill="white" stroke="black" points="1063.5,-58.5 1063.5,-79.5 1164.5,-79.5 1164.5,-58.5 1063.5,-58.5"/>
<text text-anchor="middle" x="1114" y="-66.5" font-family="Helvetica,sans-Serif" font-size="10.00">ocra&#45;icub/Utilities.h</text>
</a>
</g>
<!-- Node8&#45;&gt;Node20 -->
<g id="edge114" class="edge"><title>Node8&#45;&gt;Node20</title>
<path fill="none" stroke="midnightblue" d="M1134.24,-290.435C1134.62,-268.622 1134.97,-217.044 1131,-174 1128.28,-144.541 1122.31,-110.831 1118.22,-89.7287"/>
<polygon fill="midnightblue" stroke="midnightblue" points="1121.6,-88.7994 1116.22,-79.6702 1114.73,-90.1598 1121.6,-88.7994"/>
</g>
<!-- Node9&#45;&gt;Node3 -->
<g id="edge104" class="edge"><title>Node9&#45;&gt;Node3</title>
<path fill="none" stroke="midnightblue" d="M989.309,-232.497C960.779,-223.041 918.664,-209.083 887.465,-198.743"/>
<polygon fill="midnightblue" stroke="midnightblue" points="888.344,-195.347 877.751,-195.523 886.142,-201.991 888.344,-195.347"/>
</g>
<!-- Node9&#45;&gt;Node4 -->
<g id="edge108" class="edge"><title>Node9&#45;&gt;Node4</title>
<path fill="none" stroke="midnightblue" d="M1011.75,-232.2C1003.63,-222.691 991.491,-208.457 981,-196 929.571,-134.933 937.313,-93.8972 866,-58 742.59,4.12156 387.337,-40.0921 232.467,-21.8607"/>
<polygon fill="midnightblue" stroke="midnightblue" points="232.484,-18.3331 222.114,-20.5031 231.574,-25.2737 232.484,-18.3331"/>
</g>
<!-- Node9&#45;&gt;Node5 -->
<g id="edge106" class="edge"><title>Node9&#45;&gt;Node5</title>
<path fill="none" stroke="midnightblue" d="M1059.91,-232.424C1093.82,-223.117 1144.28,-209.053 1188,-196 1383.17,-137.737 1424.42,-93.3528 1625,-58 1987.95,5.96891 2089.49,-61.335 2459.12,-22.0778"/>
<polygon fill="midnightblue" stroke="midnightblue" points="2459.73,-25.5323 2469.29,-20.9775 2458.98,-18.5729 2459.73,-25.5323"/>
</g>
<!-- Node9&#45;&gt;Node10 -->
<g id="edge18" class="edge"><title>Node9&#45;&gt;Node10</title>
<path fill="none" stroke="midnightblue" d="M1027.42,-232.362C1032.16,-224.513 1038.73,-213.616 1044.38,-204.253"/>
<polygon fill="midnightblue" stroke="midnightblue" points="1047.45,-205.941 1049.62,-195.571 1041.46,-202.324 1047.45,-205.941"/>
</g>
<!-- Node12 -->
<g id="node23" class="node"><title>Node12</title>
<polygon fill="white" stroke="#bfbfbf" points="2125.5,-0.5 2125.5,-21.5 2230.5,-21.5 2230.5,-0.5 2125.5,-0.5"/>
<text text-anchor="middle" x="2178" y="-8.5" font-family="Helvetica,sans-Serif" font-size="10.00">ocra/control/Model.h</text>
</g>
<!-- Node9&#45;&gt;Node12 -->
<g id="edge98" class="edge"><title>Node9&#45;&gt;Node12</title>
<path fill="none" stroke="midnightblue" d="M1052.59,-232.427C1075.29,-224.148 1106.13,-211.46 1131,-196 1211.04,-146.242 1204.34,-92.617 1292,-58 1374.84,-25.2851 1988.3,-31.7394 2115.35,-21.8717"/>
<polygon fill="midnightblue" stroke="midnightblue" points="2115.86,-25.3393 2125.49,-20.9321 2115.21,-18.3692 2115.86,-25.3393"/>
</g>
<!-- Node19 -->
<g id="node40" class="node"><title>Node19</title>
<polygon fill="white" stroke="#bfbfbf" points="615,-58.5 615,-79.5 857,-79.5 857,-58.5 615,-58.5"/>
<text text-anchor="middle" x="736" y="-66.5" font-family="Helvetica,sans-Serif" font-size="10.00">yarpWholeBodyInterface/yarpWholeBodyInterface.h</text>
</g>
<!-- Node9&#45;&gt;Node19 -->
<g id="edge100" class="edge"><title>Node9&#45;&gt;Node19</title>
<path fill="none" stroke="midnightblue" d="M1003.6,-232.377C955.404,-202.952 819.938,-120.246 762.391,-85.1126"/>
<polygon fill="midnightblue" stroke="midnightblue" points="763.892,-81.9283 753.533,-79.7046 760.245,-87.9028 763.892,-81.9283"/>
</g>
<!-- Node28 -->
<g id="node62" class="node"><title>Node28</title>
<polygon fill="white" stroke="#bfbfbf" points="2248,-0.5 2248,-21.5 2352,-21.5 2352,-0.5 2248,-0.5"/>
<text text-anchor="middle" x="2300" y="-8.5" font-family="Helvetica,sans-Serif" font-size="10.00">yarp/os/RpcClient.h</text>
</g>
<!-- Node9&#45;&gt;Node28 -->
<g id="edge102" class="edge"><title>Node9&#45;&gt;Node28</title>
<path fill="none" stroke="midnightblue" d="M1064.29,-232.478C1092.33,-224.658 1129.07,-212.49 1159,-196 1244.54,-148.868 1238.57,-92.3391 1330,-58 1422.04,-23.431 2099.94,-32.4538 2237.53,-21.8429"/>
<polygon fill="midnightblue" stroke="midnightblue" points="2238.19,-25.2973 2247.83,-20.9 2237.55,-18.3265 2238.19,-25.2973"/>
</g>
<!-- Node10&#45;&gt;Node4 -->
<g id="edge26" class="edge"><title>Node10&#45;&gt;Node4</title>
<path fill="none" stroke="midnightblue" d="M1052.85,-174.345C1044.67,-148.875 1020.16,-84.6086 974,-58 904.632,-18.0107 349.194,-32.4749 232.048,-21.6581"/>
<polygon fill="midnightblue" stroke="midnightblue" points="232.441,-18.1804 222.11,-20.5298 231.652,-25.1357 232.441,-18.1804"/>
</g>
<!-- Node11 -->
<g id="node21" class="node"><title>Node11</title>
<polygon fill="white" stroke="#bfbfbf" points="2056,-0.5 2056,-21.5 2108,-21.5 2108,-0.5 2056,-0.5"/>
<text text-anchor="middle" x="2082" y="-8.5" font-family="Helvetica,sans-Serif" font-size="10.00">memory</text>
</g>
<!-- Node10&#45;&gt;Node11 -->
<g id="edge20" class="edge"><title>Node10&#45;&gt;Node11</title>
<path fill="none" stroke="midnightblue" d="M1067.56,-174.233C1098.22,-145.948 1181.61,-70.8311 1216,-58 1386.22,5.50923 1848.77,-51.9478 2045.78,-21.6973"/>
<polygon fill="midnightblue" stroke="midnightblue" points="2046.51,-25.123 2055.81,-20.0387 2045.37,-18.2168 2046.51,-25.123"/>
</g>
<!-- Node10&#45;&gt;Node12 -->
<g id="edge22" class="edge"><title>Node10&#45;&gt;Node12</title>
<path fill="none" stroke="midnightblue" d="M1074.11,-174.404C1090.01,-165.026 1113.71,-150.87 1134,-138 1161.07,-120.836 1223.53,-67.9247 1254,-58 1433.48,0.452818 1910.04,-41.6314 2115.33,-21.987"/>
<polygon fill="midnightblue" stroke="midnightblue" points="2115.91,-25.4464 2125.49,-20.9385 2115.19,-18.4834 2115.91,-25.4464"/>
</g>
<!-- Node13 -->
<g id="node25" class="node"><title>Node13</title>
<polygon fill="white" stroke="#bfbfbf" points="482,-0.5 482,-21.5 540,-21.5 540,-0.5 482,-0.5"/>
<text text-anchor="middle" x="511" y="-8.5" font-family="Helvetica,sans-Serif" font-size="10.00">wbi/wbi.h</text>
</g>
<!-- Node10&#45;&gt;Node13 -->
<g id="edge24" class="edge"><title>Node10&#45;&gt;Node13</title>
<path fill="none" stroke="midnightblue" d="M1055.93,-174.276C1055.14,-149.224 1049.31,-86.8041 1012,-58 932.705,3.21678 666.761,-37.8704 550.432,-21.7486"/>
<polygon fill="midnightblue" stroke="midnightblue" points="550.745,-18.2542 540.317,-20.1282 549.638,-25.1661 550.745,-18.2542"/>
</g>
<!-- Node10&#45;&gt;Node14 -->
<g id="edge28" class="edge"><title>Node10&#45;&gt;Node14</title>
<path fill="none" stroke="midnightblue" d="M989.732,-178.233C888.177,-167.863 693.795,-148.014 579.073,-136.3"/>
<polygon fill="midnightblue" stroke="midnightblue" points="579.212,-132.796 568.908,-135.262 578.501,-139.76 579.212,-132.796"/>
</g>
<!-- Node10&#45;&gt;Node20 -->
<g id="edge96" class="edge"><title>Node10&#45;&gt;Node20</title>
<path fill="none" stroke="midnightblue" d="M1061.35,-174.295C1071.06,-154.872 1091.72,-113.556 1104.08,-88.8462"/>
<polygon fill="midnightblue" stroke="midnightblue" points="1107.32,-90.1888 1108.66,-79.6792 1101.06,-87.0582 1107.32,-90.1888"/>
</g>
<!-- Node14&#45;&gt;Node4 -->
<g id="edge38" class="edge"><title>Node14&#45;&gt;Node4</title>
<path fill="none" stroke="midnightblue" d="M455.94,-116.494C428.263,-107.288 387.287,-93.3316 352,-80 305.154,-62.3015 251.772,-40.0055 217.995,-25.6286"/>
<polygon fill="midnightblue" stroke="midnightblue" points="219.161,-22.3212 208.59,-21.6146 216.413,-28.7593 219.161,-22.3212"/>
</g>
<!-- Node14&#45;&gt;Node13 -->
<g id="edge40" class="edge"><title>Node14&#45;&gt;Node13</title>
<path fill="none" stroke="midnightblue" d="M490.123,-116.295C493.939,-97.0451 502.02,-56.2889 506.934,-31.5091"/>
<polygon fill="midnightblue" stroke="midnightblue" points="510.371,-32.169 508.883,-21.6792 503.504,-30.8075 510.371,-32.169"/>
</g>
<!-- Node15 -->
<g id="node30" class="node"><title>Node15</title>
<polygon fill="white" stroke="#bfbfbf" points="240,-0.5 240,-21.5 294,-21.5 294,-0.5 240,-0.5"/>
<text text-anchor="middle" x="267" y="-8.5" font-family="Helvetica,sans-Serif" font-size="10.00">iostream</text>
</g>
<!-- Node14&#45;&gt;Node15 -->
<g id="edge30" class="edge"><title>Node14&#45;&gt;Node15</title>
<path fill="none" stroke="midnightblue" d="M466.239,-116.381C447.119,-106.988 418.591,-92.8232 394,-80 359.719,-62.1236 320.698,-40.7708 295.061,-26.6019"/>
<polygon fill="midnightblue" stroke="midnightblue" points="296.699,-23.5081 286.255,-21.7265 293.308,-29.6322 296.699,-23.5081"/>
</g>
<!-- Node16 -->
<g id="node32" class="node"><title>Node16</title>
<polygon fill="white" stroke="#bfbfbf" points="448.5,-58.5 448.5,-79.5 483.5,-79.5 483.5,-58.5 448.5,-58.5"/>
<text text-anchor="middle" x="466" y="-66.5" font-family="Helvetica,sans-Serif" font-size="10.00">map</text>
</g>
<!-- Node14&#45;&gt;Node16 -->
<g id="edge32" class="edge"><title>Node14&#45;&gt;Node16</title>
<path fill="none" stroke="midnightblue" d="M483.965,-116.362C481.081,-108.758 477.112,-98.294 473.637,-89.1349"/>
<polygon fill="midnightblue" stroke="midnightblue" points="476.829,-87.6793 470.01,-79.5707 470.284,-90.1619 476.829,-87.6793"/>
</g>
<!-- Node17 -->
<g id="node34" class="node"><title>Node17</title>
<polygon fill="white" stroke="#bfbfbf" points="312,-0.5 312,-21.5 356,-21.5 356,-0.5 312,-0.5"/>
<text text-anchor="middle" x="334" y="-8.5" font-family="Helvetica,sans-Serif" font-size="10.00">vector</text>
</g>
<!-- Node14&#45;&gt;Node17 -->
<g id="edge34" class="edge"><title>Node14&#45;&gt;Node17</title>
<path fill="none" stroke="midnightblue" d="M473.788,-116.295C446.972,-96.0955 388.717,-52.2158 356.52,-27.9632"/>
<polygon fill="midnightblue" stroke="midnightblue" points="358.271,-24.9002 348.178,-21.6792 354.059,-30.4915 358.271,-24.9002"/>
</g>
<!-- Node18 -->
<g id="node36" class="node"><title>Node18</title>
<polygon fill="white" stroke="#bfbfbf" points="373.5,-0.5 373.5,-21.5 464.5,-21.5 464.5,-0.5 373.5,-0.5"/>
<text text-anchor="middle" x="419" y="-8.5" font-family="Helvetica,sans-Serif" font-size="10.00">yarp/sig/Vector.h</text>
</g>
<!-- Node14&#45;&gt;Node18 -->
<g id="edge36" class="edge"><title>Node14&#45;&gt;Node18</title>
<path fill="none" stroke="midnightblue" d="M473.924,-116.486C463.207,-107.795 448.838,-94.5551 440,-80 430.989,-65.1593 425.579,-46.1531 422.512,-31.8473"/>
<polygon fill="midnightblue" stroke="midnightblue" points="425.937,-31.1247 420.603,-21.9706 419.064,-32.4532 425.937,-31.1247"/>
</g>
<!-- Node14&#45;&gt;Node19 -->
<g id="edge42" class="edge"><title>Node14&#45;&gt;Node19</title>
<path fill="none" stroke="midnightblue" d="M532.911,-116.497C574.567,-106.755 636.66,-92.2328 681.213,-81.813"/>
<polygon fill="midnightblue" stroke="midnightblue" points="682.065,-85.2084 691.005,-79.5231 680.471,-78.3924 682.065,-85.2084"/>
</g>
<!-- Node14&#45;&gt;Node20 -->
<g id="edge44" class="edge"><title>Node14&#45;&gt;Node20</title>
<path fill="none" stroke="midnightblue" d="M568.557,-119.536C695.525,-107.772 939.401,-85.1769 1052.99,-74.6526"/>
<polygon fill="midnightblue" stroke="midnightblue" points="1053.61,-78.1106 1063.24,-73.7029 1052.96,-71.1405 1053.61,-78.1106"/>
</g>
<!-- Node20&#45;&gt;Node2 -->
<g id="edge64" class="edge"><title>Node20&#45;&gt;Node2</title>
<path fill="none" stroke="midnightblue" d="M1063.24,-66.7015C877.411,-58.2691 240.127,-29.1882 138.965,-21.9422"/>
<polygon fill="midnightblue" stroke="midnightblue" points="139.087,-18.4407 128.836,-21.1188 138.519,-25.4176 139.087,-18.4407"/>
</g>
<!-- Node20&#45;&gt;Node4 -->
<g id="edge76" class="edge"><title>Node20&#45;&gt;Node4</title>
<path fill="none" stroke="midnightblue" d="M1063.47,-62.9309C1047.07,-61.1271 1028.78,-59.2905 1012,-58 668.842,-31.6125 576.921,-69.0684 232.123,-21.9207"/>
<polygon fill="midnightblue" stroke="midnightblue" points="232.494,-18.4387 222.109,-20.5374 231.536,-25.3729 232.494,-18.4387"/>
</g>
<!-- Node20&#45;&gt;Node5 -->
<g id="edge78" class="edge"><title>Node20&#45;&gt;Node5</title>
<path fill="none" stroke="midnightblue" d="M1164.61,-66.1494C1208.38,-63.7498 1273.35,-60.3439 1330,-58 1829.18,-37.3468 1959.07,-73.5791 2459.29,-22.0521"/>
<polygon fill="midnightblue" stroke="midnightblue" points="2459.71,-25.5273 2469.3,-21.0147 2458.99,-18.5646 2459.71,-25.5273"/>
</g>
<!-- Node20&#45;&gt;Node6 -->
<g id="edge74" class="edge"><title>Node20&#45;&gt;Node6</title>
<path fill="none" stroke="midnightblue" d="M1164.62,-66.1935C1208.38,-63.8214 1273.35,-60.4312 1330,-58 1784.72,-38.4837 1904.37,-78.8946 2359.77,-21.9382"/>
<polygon fill="midnightblue" stroke="midnightblue" points="2360.42,-25.3839 2369.9,-20.6615 2359.54,-18.4388 2360.42,-25.3839"/>
</g>
<!-- Node20&#45;&gt;Node11 -->
<g id="edge46" class="edge"><title>Node20&#45;&gt;Node11</title>
<path fill="none" stroke="midnightblue" d="M1164.57,-59.689C1169.1,-59.0425 1173.63,-58.4644 1178,-58 1559.11,-17.5248 1664.42,-87.3132 2045.89,-21.7692"/>
<polygon fill="midnightblue" stroke="midnightblue" points="2046.56,-25.205 2055.81,-20.0442 2045.36,-18.3084 2046.56,-25.205"/>
</g>
<!-- Node20&#45;&gt;Node12 -->
<g id="edge88" class="edge"><title>Node20&#45;&gt;Node12</title>
<path fill="none" stroke="midnightblue" d="M1164.52,-62.8695C1180.92,-61.0622 1199.21,-59.239 1216,-58 1612.36,-28.7428 1716.89,-65.0531 2115.43,-22.0413"/>
<polygon fill="midnightblue" stroke="midnightblue" points="2115.93,-25.5068 2125.49,-20.9445 2115.17,-18.5479 2115.93,-25.5068"/>
</g>
<!-- Node20&#45;&gt;Node13 -->
<g id="edge86" class="edge"><title>Node20&#45;&gt;Node13</title>
<path fill="none" stroke="midnightblue" d="M1063.41,-59.8319C1058.88,-59.1548 1054.36,-58.5306 1050,-58 831.637,-31.4545 770.544,-60.3809 550.246,-21.9066"/>
<polygon fill="midnightblue" stroke="midnightblue" points="550.772,-18.4453 540.314,-20.1456 549.549,-25.3378 550.772,-18.4453"/>
</g>
<!-- Node20&#45;&gt;Node15 -->
<g id="edge50" class="edge"><title>Node20&#45;&gt;Node15</title>
<path fill="none" stroke="midnightblue" d="M1063.47,-62.9776C1047.07,-61.1765 1028.78,-59.3296 1012,-58 700.848,-33.3426 615.597,-75.5859 304.561,-21.8979"/>
<polygon fill="midnightblue" stroke="midnightblue" points="304.801,-18.3869 294.348,-20.1148 303.597,-25.2826 304.801,-18.3869"/>
</g>
<!-- Node20&#45;&gt;Node17 -->
<g id="edge54" class="edge"><title>Node20&#45;&gt;Node17</title>
<path fill="none" stroke="midnightblue" d="M1063.46,-63.0262C1047.07,-61.2279 1028.78,-59.3703 1012,-58 728.32,-34.827 649.205,-77.7055 366.287,-21.7412"/>
<polygon fill="midnightblue" stroke="midnightblue" points="366.629,-18.2402 356.136,-19.7084 365.254,-25.104 366.629,-18.2402"/>
</g>
<!-- Node20&#45;&gt;Node18 -->
<g id="edge82" class="edge"><title>Node20&#45;&gt;Node18</title>
<path fill="none" stroke="midnightblue" d="M1063.46,-63.1374C1047.06,-61.3454 1028.77,-59.4635 1012,-58 776.09,-37.4097 712.668,-53.5783 474.594,-22.0731"/>
<polygon fill="midnightblue" stroke="midnightblue" points="474.968,-18.5921 464.592,-20.7353 474.04,-25.5303 474.968,-18.5921"/>
</g>
<!-- Node21 -->
<g id="node45" class="node"><title>Node21</title>
<polygon fill="white" stroke="#bfbfbf" points="1092,-0.5 1092,-21.5 1136,-21.5 1136,-0.5 1092,-0.5"/>
<text text-anchor="middle" x="1114" y="-8.5" font-family="Helvetica,sans-Serif" font-size="10.00">cmath</text>
</g>
<!-- Node20&#45;&gt;Node21 -->
<g id="edge48" class="edge"><title>Node20&#45;&gt;Node21</title>
<path fill="none" stroke="midnightblue" d="M1114,-58.3619C1114,-50.9219 1114,-40.7427 1114,-31.7276"/>
<polygon fill="midnightblue" stroke="midnightblue" points="1117.5,-31.5706 1114,-21.5707 1110.5,-31.5707 1117.5,-31.5706"/>
</g>
<!-- Node22 -->
<g id="node48" class="node"><title>Node22</title>
<polygon fill="white" stroke="#bfbfbf" points="1153.5,-0.5 1153.5,-21.5 1194.5,-21.5 1194.5,-0.5 1153.5,-0.5"/>
<text text-anchor="middle" x="1174" y="-8.5" font-family="Helvetica,sans-Serif" font-size="10.00">string</text>
</g>
<!-- Node20&#45;&gt;Node22 -->
<g id="edge52" class="edge"><title>Node20&#45;&gt;Node22</title>
<path fill="none" stroke="midnightblue" d="M1125,-58.3619C1133.55,-50.1043 1145.58,-38.4725 1155.58,-28.8029"/>
<polygon fill="midnightblue" stroke="midnightblue" points="1158.31,-31.0374 1163.06,-21.5707 1153.44,-26.0044 1158.31,-31.0374"/>
</g>
<!-- Node23 -->
<g id="node51" class="node"><title>Node23</title>
<polygon fill="white" stroke="#bfbfbf" points="1212,-0.5 1212,-21.5 1264,-21.5 1264,-0.5 1212,-0.5"/>
<text text-anchor="middle" x="1238" y="-8.5" font-family="Helvetica,sans-Serif" font-size="10.00">sstream</text>
</g>
<!-- Node20&#45;&gt;Node23 -->
<g id="edge56" class="edge"><title>Node20&#45;&gt;Node23</title>
<path fill="none" stroke="midnightblue" d="M1136.46,-58.4966C1155.91,-49.397 1184.28,-36.1273 1206.09,-25.9253"/>
<polygon fill="midnightblue" stroke="midnightblue" points="1207.72,-29.0285 1215.29,-21.6212 1204.75,-22.6878 1207.72,-29.0285"/>
</g>
<!-- Node24 -->
<g id="node53" class="node"><title>Node24</title>
<polygon fill="white" stroke="#bfbfbf" points="1281.5,-0.5 1281.5,-21.5 1396.5,-21.5 1396.5,-0.5 1281.5,-0.5"/>
<text text-anchor="middle" x="1339" y="-8.5" font-family="Helvetica,sans-Serif" font-size="10.00">yarp/os/BufferedPort.h</text>
</g>
<!-- Node20&#45;&gt;Node24 -->
<g id="edge58" class="edge"><title>Node20&#45;&gt;Node24</title>
<path fill="none" stroke="midnightblue" d="M1154.75,-58.4966C1192.22,-48.8364 1247.93,-34.4765 1288.27,-24.0765"/>
<polygon fill="midnightblue" stroke="midnightblue" points="1289.37,-27.4085 1298.18,-21.5231 1287.62,-20.6301 1289.37,-27.4085"/>
</g>
<!-- Node25 -->
<g id="node55" class="node"><title>Node25</title>
<polygon fill="white" stroke="#bfbfbf" points="1414,-0.5 1414,-21.5 1500,-21.5 1500,-0.5 1414,-0.5"/>
<text text-anchor="middle" x="1457" y="-8.5" font-family="Helvetica,sans-Serif" font-size="10.00">yarp/os/Bottle.h</text>
</g>
<!-- Node20&#45;&gt;Node25 -->
<g id="edge60" class="edge"><title>Node20&#45;&gt;Node25</title>
<path fill="none" stroke="midnightblue" d="M1164.65,-60.2331C1169.16,-59.4704 1173.66,-58.7168 1178,-58 1275.63,-41.8684 1302.87,-40.6402 1403.89,-22.1394"/>
<polygon fill="midnightblue" stroke="midnightblue" points="1404.7,-25.5488 1413.9,-20.294 1403.43,-18.6648 1404.7,-25.5488"/>
</g>
<!-- Node26 -->
<g id="node57" class="node"><title>Node26</title>
<polygon fill="white" stroke="#bfbfbf" points="1517.5,-0.5 1517.5,-21.5 1628.5,-21.5 1628.5,-0.5 1517.5,-0.5"/>
<text text-anchor="middle" x="1573" y="-8.5" font-family="Helvetica,sans-Serif" font-size="10.00">yarp/os/RateThread.h</text>
</g>
<!-- Node20&#45;&gt;Node26 -->
<g id="edge62" class="edge"><title>Node20&#45;&gt;Node26</title>
<path fill="none" stroke="midnightblue" d="M1164.61,-60.0038C1169.13,-59.2901 1173.65,-58.6104 1178,-58 1321.25,-37.9184 1360.7,-42.3274 1506.93,-22.2275"/>
<polygon fill="midnightblue" stroke="midnightblue" points="1507.76,-25.646 1517.18,-20.8026 1506.8,-18.7127 1507.76,-25.646"/>
</g>
<!-- Node27 -->
<g id="node60" class="node"><title>Node27</title>
<polygon fill="white" stroke="#bfbfbf" points="1646,-0.5 1646,-21.5 1756,-21.5 1756,-0.5 1646,-0.5"/>
<text text-anchor="middle" x="1701" y="-8.5" font-family="Helvetica,sans-Serif" font-size="10.00">yarp/os/PortReader.h</text>
</g>
<!-- Node20&#45;&gt;Node27 -->
<g id="edge66" class="edge"><title>Node20&#45;&gt;Node27</title>
<path fill="none" stroke="midnightblue" d="M1164.59,-59.8626C1169.12,-59.179 1173.64,-58.5449 1178,-58 1377.78,-33.0508 1432.21,-46.8939 1635.77,-22.0549"/>
<polygon fill="midnightblue" stroke="midnightblue" points="1636.4,-25.504 1645.89,-20.803 1635.54,-18.5569 1636.4,-25.504"/>
</g>
<!-- Node20&#45;&gt;Node28 -->
<g id="edge68" class="edge"><title>Node20&#45;&gt;Node28</title>
<path fill="none" stroke="midnightblue" d="M1164.62,-65.5513C1200.23,-63.2035 1249.02,-60.1448 1292,-58 1709.38,-37.1729 1818.57,-67.0126 2237.86,-21.9832"/>
<polygon fill="midnightblue" stroke="midnightblue" points="2238.26,-25.4607 2247.83,-20.9055 2237.51,-18.5013 2238.26,-25.4607"/>
</g>
<!-- Node29 -->
<g id="node64" class="node"><title>Node29</title>
<polygon fill="white" stroke="#bfbfbf" points="1773.5,-0.5 1773.5,-21.5 1880.5,-21.5 1880.5,-0.5 1773.5,-0.5"/>
<text text-anchor="middle" x="1827" y="-8.5" font-family="Helvetica,sans-Serif" font-size="10.00">yarp/os/RpcServer.h</text>
</g>
<!-- Node20&#45;&gt;Node29 -->
<g id="edge70" class="edge"><title>Node20&#45;&gt;Node29</title>
<path fill="none" stroke="midnightblue" d="M1164.58,-59.7825C1169.11,-59.116 1173.63,-58.5077 1178,-58 1434.33,-28.2007 1503.7,-52.2533 1763.18,-22.1071"/>
<polygon fill="midnightblue" stroke="midnightblue" points="1763.77,-25.5627 1773.29,-20.9171 1762.95,-18.6108 1763.77,-25.5627"/>
</g>
<!-- Node30 -->
<g id="node66" class="node"><title>Node30</title>
<polygon fill="white" stroke="#bfbfbf" points="1897.5,-0.5 1897.5,-21.5 2038.5,-21.5 2038.5,-0.5 1897.5,-0.5"/>
<text text-anchor="middle" x="1968" y="-8.5" font-family="Helvetica,sans-Serif" font-size="10.00">yarp/os/ConnectionReader.h</text>
</g>
<!-- Node20&#45;&gt;Node30 -->
<g id="edge72" class="edge"><title>Node20&#45;&gt;Node30</title>
<path fill="none" stroke="midnightblue" d="M1164.58,-59.7323C1169.11,-59.0766 1173.63,-58.4844 1178,-58 1489.1,-23.514 1572.23,-51.237 1887.06,-22.1121"/>
<polygon fill="midnightblue" stroke="midnightblue" points="1887.77,-25.561 1897.4,-21.143 1887.12,-18.5916 1887.77,-25.561"/>
</g>
<!-- Node31 -->
<g id="node71" class="node"><title>Node31</title>
<polygon fill="white" stroke="#bfbfbf" points="557.5,-0.5 557.5,-21.5 654.5,-21.5 654.5,-0.5 557.5,-0.5"/>
<text text-anchor="middle" x="606" y="-8.5" font-family="Helvetica,sans-Serif" font-size="10.00">yarp/os/Property.h</text>
</g>
<!-- Node20&#45;&gt;Node31 -->
<g id="edge80" class="edge"><title>Node20&#45;&gt;Node31</title>
<path fill="none" stroke="midnightblue" d="M1063.4,-59.9307C1058.88,-59.2326 1054.36,-58.5765 1050,-58 882.01,-35.7838 835.761,-45.987 664.86,-22.1626"/>
<polygon fill="midnightblue" stroke="midnightblue" points="665.156,-18.6697 654.765,-20.7362 664.177,-25.6009 665.156,-18.6697"/>
</g>
<!-- Node32 -->
<g id="node74" class="node"><title>Node32</title>
<polygon fill="white" stroke="#bfbfbf" points="671.5,-0.5 671.5,-21.5 760.5,-21.5 760.5,-0.5 671.5,-0.5"/>
<text text-anchor="middle" x="716" y="-8.5" font-family="Helvetica,sans-Serif" font-size="10.00">yarp/sig/Matrix.h</text>
</g>
<!-- Node20&#45;&gt;Node32 -->
<g id="edge84" class="edge"><title>Node20&#45;&gt;Node32</title>
<path fill="none" stroke="midnightblue" d="M1063.38,-60.0933C1058.86,-59.3605 1054.35,-58.6519 1050,-58 928.644,-39.8057 894.878,-42.6467 770.669,-22.1929"/>
<polygon fill="midnightblue" stroke="midnightblue" points="771.213,-18.7354 760.774,-20.5461 770.063,-25.6404 771.213,-18.7354"/>
</g>
<!-- Node33 -->
<g id="node78" class="node"><title>Node33</title>
<polygon fill="white" stroke="#bfbfbf" points="777.5,-0.5 777.5,-21.5 898.5,-21.5 898.5,-0.5 777.5,-0.5"/>
<text text-anchor="middle" x="838" y="-8.5" font-family="Helvetica,sans-Serif" font-size="10.00">ocra/util/StringUtilities.h</text>
</g>
<!-- Node20&#45;&gt;Node33 -->
<g id="edge90" class="edge"><title>Node20&#45;&gt;Node33</title>
<path fill="none" stroke="midnightblue" d="M1064.02,-58.4966C1017.37,-48.6931 947.684,-34.0496 898.037,-23.6165"/>
<polygon fill="midnightblue" stroke="midnightblue" points="898.581,-20.1545 888.075,-21.5231 897.142,-27.0049 898.581,-20.1545"/>
</g>
<!-- Node34 -->
<g id="node80" class="node"><title>Node34</title>
<polygon fill="white" stroke="#bfbfbf" points="915.5,-0.5 915.5,-21.5 988.5,-21.5 988.5,-0.5 915.5,-0.5"/>
<text text-anchor="middle" x="952" y="-8.5" font-family="Helvetica,sans-Serif" font-size="10.00">Eigen/Dense</text>
</g>
<!-- Node20&#45;&gt;Node34 -->
<g id="edge92" class="edge"><title>Node20&#45;&gt;Node34</title>
<path fill="none" stroke="midnightblue" d="M1084.66,-58.4966C1058.48,-49.1229 1019.94,-35.3242 991.137,-25.0122"/>
<polygon fill="midnightblue" stroke="midnightblue" points="991.987,-21.5987 981.392,-21.5231 989.627,-28.189 991.987,-21.5987"/>
</g>
<!-- Node35 -->
<g id="node82" class="node"><title>Node35</title>
<polygon fill="white" stroke="#bfbfbf" points="1006,-0.5 1006,-21.5 1074,-21.5 1074,-0.5 1006,-0.5"/>
<text text-anchor="middle" x="1040" y="-8.5" font-family="Helvetica,sans-Serif" font-size="10.00">Eigen/Lgsm</text>
</g>
<!-- Node20&#45;&gt;Node35 -->
<g id="edge94" class="edge"><title>Node20&#45;&gt;Node35</title>
<path fill="none" stroke="midnightblue" d="M1100.43,-58.3619C1089.58,-49.859 1074.17,-37.7785 1061.62,-27.9466"/>
<polygon fill="midnightblue" stroke="midnightblue" points="1063.52,-24.9848 1053.49,-21.5707 1059.2,-30.4942 1063.52,-24.9848"/>
</g>
</g>
</svg>
