<?xml version="1.0" encoding="UTF-8" standalone="no"?>
<!DOCTYPE svg PUBLIC "-//W3C//DTD SVG 1.1//EN"
 "http://www.w3.org/Graphics/SVG/1.1/DTD/svg11.dtd">
<!-- Generated by graphviz version 2.26.3 (20100126.1600)
 -->
<!-- Title: G Pages: 1 -->
<svg width="5161pt" height="436pt"
 viewBox="0.00 0.00 5161.00 436.00" xmlns="http://www.w3.org/2000/svg" xmlns:xlink="http://www.w3.org/1999/xlink">
<g id="graph1" class="graph" transform="scale(1 1) rotate(0) translate(4 432)">
<title>G</title>
<polygon fill="white" stroke="white" points="-4,5 -4,-432 5158,-432 5158,5 -4,5"/>
<!-- Node1 -->
<g id="node1" class="node"><title>Node1</title>
<polygon fill="#bfbfbf" stroke="black" points="4033.5,-406.5 4033.5,-427.5 4382.5,-427.5 4382.5,-406.5 4033.5,-406.5"/>
<text text-anchor="middle" x="4208" y="-414.5" font-family="Helvetica,sans-Serif" font-size="10.00">ocra&#45;wbi&#45;plugins/ocra&#45;icub&#45;clients/walking&#45;client/include/walking&#45;client/utils.h</text>
</g>
<!-- Node2 -->
<g id="node3" class="node"><title>Node2</title>
<a xlink:href="Constraint_8h.html" target="_top" xlink:title="A constraint base class.">
<polygon fill="white" stroke="black" points="1708.5,-348.5 1708.5,-369.5 2135.5,-369.5 2135.5,-348.5 1708.5,-348.5"/>
<text text-anchor="middle" x="1922" y="-356.5" font-family="Helvetica,sans-Serif" font-size="10.00">ocra&#45;wbi&#45;plugins/ocra&#45;icub&#45;clients/walking&#45;client/include/walking&#45;client/constraints/Constraint.h</text>
</a>
</g>
<!-- Node1&#45;&gt;Node2 -->
<g id="edge2" class="edge"><title>Node1&#45;&gt;Node2</title>
<path fill="none" stroke="midnightblue" d="M4023.26,-412.313C3603.79,-401.67 2581.39,-375.73 2135.65,-364.421"/>
<polygon fill="midnightblue" stroke="midnightblue" points="4023.28,-415.814 4033.36,-412.569 4023.45,-408.816 4023.28,-415.814"/>
</g>
<!-- Node5 -->
<g id="node9" class="node"><title>Node5</title>
<a xlink:href="MIQPController_8h.html" target="_top" xlink:title="A thread for launching trajectory generators.">
<polygon fill="white" stroke="black" points="3735,-116.5 3735,-137.5 4133,-137.5 4133,-116.5 3735,-116.5"/>
<text text-anchor="middle" x="3934" y="-124.5" font-family="Helvetica,sans-Serif" font-size="10.00">ocra&#45;wbi&#45;plugins/ocra&#45;icub&#45;clients/walking&#45;client/include/walking&#45;client/MIQPController.h</text>
</a>
</g>
<!-- Node1&#45;&gt;Node5 -->
<g id="edge70" class="edge"><title>Node1&#45;&gt;Node5</title>
<path fill="none" stroke="midnightblue" d="M4061.55,-405.506C3869.84,-387.069 3549.7,-343.474 3478,-254 3430.75,-195.041 3686.63,-155.259 3834.56,-137.522"/>
<polygon fill="midnightblue" stroke="midnightblue" points="4061.43,-409.01 4071.72,-406.472 4062.09,-402.042 4061.43,-409.01"/>
</g>
<!-- Node6 -->
<g id="node11" class="node"><title>Node6</title>
<a xlink:href="WalkingClient_8h.html" target="_top" xlink:title="ocra&#45;wbi&#45;plugins/ocra&#45;icub&#45;clients/walking&#45;client/include/walking&#45;client/WalkingClient.h">
<polygon fill="white" stroke="black" points="4482,-58.5 4482,-79.5 4874,-79.5 4874,-58.5 4482,-58.5"/>
<text text-anchor="middle" x="4678" y="-66.5" font-family="Helvetica,sans-Serif" font-size="10.00">ocra&#45;wbi&#45;plugins/ocra&#45;icub&#45;clients/walking&#45;client/include/walking&#45;client/WalkingClient.h</text>
</a>
</g>
<!-- Node1&#45;&gt;Node6 -->
<g id="edge94" class="edge"><title>Node1&#45;&gt;Node6</title>
<path fill="none" stroke="midnightblue" d="M4393.15,-407.187C4531.57,-394.595 4697,-365.958 4697,-301 4697,-301 4697,-301 4697,-185 4697,-145.818 4686.31,-100.159 4680.97,-79.7784"/>
<polygon fill="midnightblue" stroke="midnightblue" points="4392.47,-403.734 4382.81,-408.103 4393.08,-410.707 4392.47,-403.734"/>
</g>
<!-- Node28 -->
<g id="node64" class="node"><title>Node28</title>
<a xlink:href="MIQPState_8h.html" target="_top" xlink:title="ocra&#45;wbi&#45;plugins/ocra&#45;icub&#45;clients/walking&#45;client/include/walking&#45;client/MIQPState.h">
<polygon fill="white" stroke="black" points="3862,-290.5 3862,-311.5 4242,-311.5 4242,-290.5 3862,-290.5"/>
<text text-anchor="middle" x="4052" y="-298.5" font-family="Helvetica,sans-Serif" font-size="10.00">ocra&#45;wbi&#45;plugins/ocra&#45;icub&#45;clients/walking&#45;client/include/walking&#45;client/MIQPState.h</text>
</a>
</g>
<!-- Node1&#45;&gt;Node28 -->
<g id="edge72" class="edge"><title>Node1&#45;&gt;Node28</title>
<path fill="none" stroke="midnightblue" d="M4185.56,-400.316C4153.01,-376.112 4093.62,-331.945 4066.36,-311.679"/>
<polygon fill="midnightblue" stroke="midnightblue" points="4183.49,-403.136 4193.6,-406.295 4187.67,-397.519 4183.49,-403.136"/>
</g>
<!-- Node32 -->
<g id="node74" class="node"><title>Node32</title>
<a xlink:href="StepController_8h.html" target="_top" xlink:title="ocra&#45;wbi&#45;plugins/ocra&#45;icub&#45;clients/walking&#45;client/include/walking&#45;client/StepController.h">
<polygon fill="white" stroke="black" points="4259.5,-290.5 4259.5,-311.5 4652.5,-311.5 4652.5,-290.5 4259.5,-290.5"/>
<text text-anchor="middle" x="4456" y="-298.5" font-family="Helvetica,sans-Serif" font-size="10.00">ocra&#45;wbi&#45;plugins/ocra&#45;icub&#45;clients/walking&#45;client/include/walking&#45;client/StepController.h</text>
</a>
</g>
<!-- Node1&#45;&gt;Node32 -->
<g id="edge84" class="edge"><title>Node1&#45;&gt;Node32</title>
<path fill="none" stroke="midnightblue" d="M4240.13,-401.97C4291.14,-378.113 4389.36,-332.168 4433.53,-311.512"/>
<polygon fill="midnightblue" stroke="midnightblue" points="4238.46,-398.888 4230.89,-406.295 4241.43,-405.228 4238.46,-398.888"/>
</g>
<!-- Node34 -->
<g id="node82" class="node"><title>Node34</title>
<a xlink:href="ZmpPreviewController_8h.html" target="_top" xlink:title="ocra&#45;wbi&#45;plugins/ocra&#45;icub&#45;clients/walking&#45;client/include/walking&#45;client/ZmpPreviewController.h">
<polygon fill="white" stroke="black" points="4725,-348.5 4725,-369.5 5153,-369.5 5153,-348.5 4725,-348.5"/>
<text text-anchor="middle" x="4939" y="-356.5" font-family="Helvetica,sans-Serif" font-size="10.00">ocra&#45;wbi&#45;plugins/ocra&#45;icub&#45;clients/walking&#45;client/include/walking&#45;client/ZmpPreviewController.h</text>
</a>
</g>
<!-- Node1&#45;&gt;Node34 -->
<g id="edge96" class="edge"><title>Node1&#45;&gt;Node34</title>
<path fill="none" stroke="midnightblue" d="M4350.57,-405.688C4482.65,-395.208 4677.57,-379.743 4806.37,-369.523"/>
<polygon fill="midnightblue" stroke="midnightblue" points="4350.07,-402.217 4340.38,-406.497 4350.62,-409.195 4350.07,-402.217"/>
</g>
<!-- Node3 -->
<g id="node5" class="node"><title>Node3</title>
<a xlink:href="AdmissibilityConstraints_8h.html" target="_top" xlink:title="ocra&#45;wbi&#45;plugins/ocra&#45;icub&#45;clients/walking&#45;client/include/walking&#45;client/constraints/AdmissibilityConstraints.h">
<polygon fill="white" stroke="black" points="2168,-232.5 2168,-253.5 2656,-253.5 2656,-232.5 2168,-232.5"/>
<text text-anchor="middle" x="2412" y="-240.5" font-family="Helvetica,sans-Serif" font-size="10.00">ocra&#45;wbi&#45;plugins/ocra&#45;icub&#45;clients/walking&#45;client/include/walking&#45;client/constraints/AdmissibilityConstraints.h</text>
</a>
</g>
<!-- Node2&#45;&gt;Node3 -->
<g id="edge4" class="edge"><title>Node2&#45;&gt;Node3</title>
<path fill="none" stroke="midnightblue" d="M2145.68,-347.834C2256.97,-340.272 2372.06,-328.598 2392,-312 2409.35,-297.558 2412.16,-269.045 2412.32,-253.578"/>
<polygon fill="midnightblue" stroke="midnightblue" points="2145.36,-344.347 2135.62,-348.507 2145.83,-351.331 2145.36,-344.347"/>
</g>
<!-- Node12 -->
<g id="node23" class="node"><title>Node12</title>
<a xlink:href="Bounding_8h.html" target="_top" xlink:title="ocra&#45;wbi&#45;plugins/ocra&#45;icub&#45;clients/walking&#45;client/include/walking&#45;client/constraints/Bounding.h">
<polygon fill="white" stroke="black" points="581,-290.5 581,-311.5 1003,-311.5 1003,-290.5 581,-290.5"/>
<text text-anchor="middle" x="792" y="-298.5" font-family="Helvetica,sans-Serif" font-size="10.00">ocra&#45;wbi&#45;plugins/ocra&#45;icub&#45;clients/walking&#45;client/include/walking&#45;client/constraints/Bounding.h</text>
</a>
</g>
<!-- Node2&#45;&gt;Node12 -->
<g id="edge22" class="edge"><title>Node2&#45;&gt;Node12</title>
<path fill="none" stroke="midnightblue" d="M1707.11,-347.97C1502.88,-337.488 1197.92,-321.835 997.018,-311.523"/>
<polygon fill="midnightblue" stroke="midnightblue" points="1707.2,-351.479 1717.37,-348.497 1707.56,-344.489 1707.2,-351.479"/>
</g>
<!-- Node13 -->
<g id="node25" class="node"><title>Node13</title>
<a xlink:href="ShapeConstraints_8h.html" target="_top" xlink:title="ocra&#45;wbi&#45;plugins/ocra&#45;icub&#45;clients/walking&#45;client/include/walking&#45;client/constraints/ShapeConstraints.h">
<polygon fill="white" stroke="black" points="336,-232.5 336,-253.5 796,-253.5 796,-232.5 336,-232.5"/>
<text text-anchor="middle" x="566" y="-240.5" font-family="Helvetica,sans-Serif" font-size="10.00">ocra&#45;wbi&#45;plugins/ocra&#45;icub&#45;clients/walking&#45;client/include/walking&#45;client/constraints/ShapeConstraints.h</text>
</a>
</g>
<!-- Node2&#45;&gt;Node13 -->
<g id="edge56" class="edge"><title>Node2&#45;&gt;Node13</title>
<path fill="none" stroke="midnightblue" d="M1698.03,-354.964C1319.51,-347.628 592.107,-331.088 572,-312 556.303,-297.098 559.714,-269.039 563.122,-253.693"/>
<polygon fill="midnightblue" stroke="midnightblue" points="1698.22,-358.468 1708.29,-355.162 1698.36,-351.47 1698.22,-358.468"/>
</g>
<!-- Node16 -->
<g id="node32" class="node"><title>Node16</title>
<a xlink:href="Constancy_8h.html" target="_top" xlink:title="ocra&#45;wbi&#45;plugins/ocra&#45;icub&#45;clients/walking&#45;client/include/walking&#45;client/constraints/Constancy.h">
<polygon fill="white" stroke="black" points="1020.5,-290.5 1020.5,-311.5 1449.5,-311.5 1449.5,-290.5 1020.5,-290.5"/>
<text text-anchor="middle" x="1235" y="-298.5" font-family="Helvetica,sans-Serif" font-size="10.00">ocra&#45;wbi&#45;plugins/ocra&#45;icub&#45;clients/walking&#45;client/include/walking&#45;client/constraints/Constancy.h</text>
</a>
</g>
<!-- Node2&#45;&gt;Node16 -->
<g id="edge32" class="edge"><title>Node2&#45;&gt;Node16</title>
<path fill="none" stroke="midnightblue" d="M1787.26,-347.625C1663.15,-337.146 1480.45,-321.722 1359.64,-311.523"/>
<polygon fill="midnightblue" stroke="midnightblue" points="1787.33,-351.143 1797.59,-348.497 1787.92,-344.168 1787.33,-351.143"/>
</g>
<!-- Node18 -->
<g id="node37" class="node"><title>Node18</title>
<a xlink:href="ContactConfigEnforcement_8h.html" target="_top" xlink:title="ocra&#45;wbi&#45;plugins/ocra&#45;icub&#45;clients/walking&#45;client/include/walking&#45;client/constraints/ContactConfigEnforcement.h">
<polygon fill="white" stroke="black" points="2439,-290.5 2439,-311.5 2939,-311.5 2939,-290.5 2439,-290.5"/>
<text text-anchor="middle" x="2689" y="-298.5" font-family="Helvetica,sans-Serif" font-size="10.00">ocra&#45;wbi&#45;plugins/ocra&#45;icub&#45;clients/walking&#45;client/include/walking&#45;client/constraints/ContactConfigEnforcement.h</text>
</a>
</g>
<!-- Node2&#45;&gt;Node18 -->
<g id="edge38" class="edge"><title>Node2&#45;&gt;Node18</title>
<path fill="none" stroke="midnightblue" d="M2071.18,-347.719C2209.77,-337.239 2414.56,-321.753 2549.84,-311.523"/>
<polygon fill="midnightblue" stroke="midnightblue" points="2070.61,-344.252 2060.9,-348.497 2071.13,-351.233 2070.61,-344.252"/>
</g>
<!-- Node20 -->
<g id="node42" class="node"><title>Node20</title>
<a xlink:href="ContactConfigHistory_8h.html" target="_top" xlink:title="ocra&#45;wbi&#45;plugins/ocra&#45;icub&#45;clients/walking&#45;client/include/walking&#45;client/constraints/ContactConfigHistory.h">
<polygon fill="white" stroke="black" points="2957,-290.5 2957,-311.5 3433,-311.5 3433,-290.5 2957,-290.5"/>
<text text-anchor="middle" x="3195" y="-298.5" font-family="Helvetica,sans-Serif" font-size="10.00">ocra&#45;wbi&#45;plugins/ocra&#45;icub&#45;clients/walking&#45;client/include/walking&#45;client/constraints/ContactConfigHistory.h</text>
</a>
</g>
<!-- Node2&#45;&gt;Node20 -->
<g id="edge44" class="edge"><title>Node2&#45;&gt;Node20</title>
<path fill="none" stroke="midnightblue" d="M2145.96,-348.796C2375.95,-338.317 2732.19,-322.086 2964.53,-311.501"/>
<polygon fill="midnightblue" stroke="midnightblue" points="2145.62,-345.308 2135.79,-349.259 2145.94,-352.301 2145.62,-345.308"/>
</g>
<!-- Node22 -->
<g id="node47" class="node"><title>Node22</title>
<a xlink:href="Sequentiality_8h.html" target="_top" xlink:title="ocra&#45;wbi&#45;plugins/ocra&#45;icub&#45;clients/walking&#45;client/include/walking&#45;client/constraints/Sequentiality.h">
<polygon fill="white" stroke="black" points="87,-290.5 87,-311.5 525,-311.5 525,-290.5 87,-290.5"/>
<text text-anchor="middle" x="306" y="-298.5" font-family="Helvetica,sans-Serif" font-size="10.00">ocra&#45;wbi&#45;plugins/ocra&#45;icub&#45;clients/walking&#45;client/include/walking&#45;client/constraints/Sequentiality.h</text>
</a>
</g>
<!-- Node2&#45;&gt;Node22 -->
<g id="edge50" class="edge"><title>Node2&#45;&gt;Node22</title>
<path fill="none" stroke="midnightblue" d="M1698.4,-352.309C1424.91,-343.916 947.875,-328.598 539,-312 534.448,-311.815 529.846,-311.625 525.207,-311.431"/>
<polygon fill="midnightblue" stroke="midnightblue" points="1698.34,-355.809 1708.44,-352.617 1698.55,-348.812 1698.34,-355.809"/>
</g>
<!-- Node24 -->
<g id="node53" class="node"><title>Node24</title>
<a xlink:href="SingleSupport_8h.html" target="_top" xlink:title="ocra&#45;wbi&#45;plugins/ocra&#45;icub&#45;clients/walking&#45;client/include/walking&#45;client/constraints/SingleSupport.h">
<polygon fill="white" stroke="black" points="1466.5,-290.5 1466.5,-311.5 1909.5,-311.5 1909.5,-290.5 1466.5,-290.5"/>
<text text-anchor="middle" x="1688" y="-298.5" font-family="Helvetica,sans-Serif" font-size="10.00">ocra&#45;wbi&#45;plugins/ocra&#45;icub&#45;clients/walking&#45;client/include/walking&#45;client/constraints/SingleSupport.h</text>
</a>
</g>
<!-- Node2&#45;&gt;Node24 -->
<g id="edge58" class="edge"><title>Node2&#45;&gt;Node24</title>
<path fill="none" stroke="midnightblue" d="M1869.86,-346.077C1827.88,-335.672 1769.62,-321.231 1730.46,-311.523"/>
<polygon fill="midnightblue" stroke="midnightblue" points="1869.08,-349.488 1879.62,-348.497 1870.76,-342.694 1869.08,-349.488"/>
</g>
<!-- Node26 -->
<g id="node58" class="node"><title>Node26</title>
<a xlink:href="SSDSAlternation_8h.html" target="_top" xlink:title="ocra&#45;wbi&#45;plugins/ocra&#45;icub&#45;clients/walking&#45;client/include/walking&#45;client/constraints/SSDSAlternation.h">
<polygon fill="white" stroke="black" points="1927,-290.5 1927,-311.5 2383,-311.5 2383,-290.5 1927,-290.5"/>
<text text-anchor="middle" x="2155" y="-298.5" font-family="Helvetica,sans-Serif" font-size="10.00">ocra&#45;wbi&#45;plugins/ocra&#45;icub&#45;clients/walking&#45;client/include/walking&#45;client/constraints/SSDSAlternation.h</text>
</a>
</g>
<!-- Node2&#45;&gt;Node26 -->
<g id="edge64" class="edge"><title>Node2&#45;&gt;Node26</title>
<path fill="none" stroke="midnightblue" d="M1973.92,-346.077C2015.71,-335.672 2073.73,-321.231 2112.73,-311.523"/>
<polygon fill="midnightblue" stroke="midnightblue" points="1973.05,-342.685 1964.19,-348.497 1974.74,-349.477 1973.05,-342.685"/>
</g>
<!-- Node4 -->
<g id="node7" class="node"><title>Node4</title>
<a xlink:href="MIQPLinearConstraints_8h.html" target="_top" xlink:title="ocra&#45;wbi&#45;plugins/ocra&#45;icub&#45;clients/walking&#45;client/include/walking&#45;client/constraints/MIQPLinearConstraints.h">
<polygon fill="white" stroke="black" points="2947,-174.5 2947,-195.5 3431,-195.5 3431,-174.5 2947,-174.5"/>
<text text-anchor="middle" x="3189" y="-182.5" font-family="Helvetica,sans-Serif" font-size="10.00">ocra&#45;wbi&#45;plugins/ocra&#45;icub&#45;clients/walking&#45;client/include/walking&#45;client/constraints/MIQPLinearConstraints.h</text>
</a>
</g>
<!-- Node3&#45;&gt;Node4 -->
<g id="edge6" class="edge"><title>Node3&#45;&gt;Node4</title>
<path fill="none" stroke="midnightblue" d="M2562.7,-231.751C2703.1,-221.27 2910.85,-205.763 3048.03,-195.523"/>
<polygon fill="midnightblue" stroke="midnightblue" points="2562.42,-228.262 2552.71,-232.497 2562.94,-235.242 2562.42,-228.262"/>
</g>
<!-- Node11 -->
<g id="node21" class="node"><title>Node11</title>
<a xlink:href="AdmissibilityConstraints_8cpp.html" target="_top" xlink:title="ocra&#45;wbi&#45;plugins/ocra&#45;icub&#45;clients/walking&#45;client/src/AdmissibilityConstraints.cpp">
<polygon fill="white" stroke="black" points="2228,-174.5 2228,-195.5 2596,-195.5 2596,-174.5 2228,-174.5"/>
<text text-anchor="middle" x="2412" y="-182.5" font-family="Helvetica,sans-Serif" font-size="10.00">ocra&#45;wbi&#45;plugins/ocra&#45;icub&#45;clients/walking&#45;client/src/AdmissibilityConstraints.cpp</text>
</a>
</g>
<!-- Node3&#45;&gt;Node11 -->
<g id="edge20" class="edge"><title>Node3&#45;&gt;Node11</title>
<path fill="none" stroke="midnightblue" d="M2412,-222.191C2412,-213.168 2412,-202.994 2412,-195.571"/>
<polygon fill="midnightblue" stroke="midnightblue" points="2408.5,-222.362 2412,-232.362 2415.5,-222.362 2408.5,-222.362"/>
</g>
<!-- Node4&#45;&gt;Node5 -->
<g id="edge8" class="edge"><title>Node4&#45;&gt;Node5</title>
<path fill="none" stroke="midnightblue" d="M3333.9,-173.719C3468.51,-163.239 3667.43,-147.753 3798.83,-137.523"/>
<polygon fill="midnightblue" stroke="midnightblue" points="3333.61,-170.231 3323.91,-174.497 3334.16,-177.21 3333.61,-170.231"/>
</g>
<!-- Node10 -->
<g id="node19" class="node"><title>Node10</title>
<a xlink:href="MIQPLinearConstraints_8cpp.html" target="_top" xlink:title="ocra&#45;wbi&#45;plugins/ocra&#45;icub&#45;clients/walking&#45;client/src/MIQPLinearConstraints.cpp">
<polygon fill="white" stroke="black" points="3007,-116.5 3007,-137.5 3371,-137.5 3371,-116.5 3007,-116.5"/>
<text text-anchor="middle" x="3189" y="-124.5" font-family="Helvetica,sans-Serif" font-size="10.00">ocra&#45;wbi&#45;plugins/ocra&#45;icub&#45;clients/walking&#45;client/src/MIQPLinearConstraints.cpp</text>
</a>
</g>
<!-- Node4&#45;&gt;Node10 -->
<g id="edge18" class="edge"><title>Node4&#45;&gt;Node10</title>
<path fill="none" stroke="midnightblue" d="M3189,-164.191C3189,-155.168 3189,-144.994 3189,-137.571"/>
<polygon fill="midnightblue" stroke="midnightblue" points="3185.5,-164.362 3189,-174.362 3192.5,-164.362 3185.5,-164.362"/>
</g>
<!-- Node5&#45;&gt;Node6 -->
<g id="edge10" class="edge"><title>Node5&#45;&gt;Node6</title>
<path fill="none" stroke="midnightblue" d="M4078.7,-115.719C4213.14,-105.239 4411.79,-89.7529 4543.01,-79.5231"/>
<polygon fill="midnightblue" stroke="midnightblue" points="4078.43,-112.23 4068.73,-116.497 4078.97,-119.209 4078.43,-112.23"/>
</g>
<!-- Node9 -->
<g id="node17" class="node"><title>Node9</title>
<a xlink:href="MIQPController_8cpp.html" target="_top" xlink:title="ocra&#45;wbi&#45;plugins/ocra&#45;icub&#45;clients/walking&#45;client/src/MIQPController.cpp">
<polygon fill="white" stroke="black" points="3769.5,-58.5 3769.5,-79.5 4098.5,-79.5 4098.5,-58.5 3769.5,-58.5"/>
<text text-anchor="middle" x="3934" y="-66.5" font-family="Helvetica,sans-Serif" font-size="10.00">ocra&#45;wbi&#45;plugins/ocra&#45;icub&#45;clients/walking&#45;client/src/MIQPController.cpp</text>
</a>
</g>
<!-- Node5&#45;&gt;Node9 -->
<g id="edge16" class="edge"><title>Node5&#45;&gt;Node9</title>
<path fill="none" stroke="midnightblue" d="M3934,-106.191C3934,-97.1684 3934,-86.9941 3934,-79.5707"/>
<polygon fill="midnightblue" stroke="midnightblue" points="3930.5,-106.362 3934,-116.362 3937.5,-106.362 3930.5,-106.362"/>
</g>
<!-- Node7 -->
<g id="node13" class="node"><title>Node7</title>
<a xlink:href="ocra-icub-clients_2walking-client_2src_2main_8cpp.html" target="_top" xlink:title="ocra&#45;wbi&#45;plugins/ocra&#45;icub&#45;clients/walking&#45;client/src/main.cpp">
<polygon fill="white" stroke="black" points="4376.5,-0.5 4376.5,-21.5 4659.5,-21.5 4659.5,-0.5 4376.5,-0.5"/>
<text text-anchor="middle" x="4518" y="-8.5" font-family="Helvetica,sans-Serif" font-size="10.00">ocra&#45;wbi&#45;plugins/ocra&#45;icub&#45;clients/walking&#45;client/src/main.cpp</text>
</a>
</g>
<!-- Node6&#45;&gt;Node7 -->
<g id="edge12" class="edge"><title>Node6&#45;&gt;Node7</title>
<path fill="none" stroke="midnightblue" d="M4639.41,-55.0095C4610.97,-44.7023 4572.9,-30.903 4547.03,-21.5231"/>
<polygon fill="midnightblue" stroke="midnightblue" points="4638.43,-58.3791 4649.03,-58.4966 4640.82,-51.7981 4638.43,-58.3791"/>
</g>
<!-- Node8 -->
<g id="node15" class="node"><title>Node8</title>
<a xlink:href="WalkingClient_8cpp.html" target="_top" xlink:title="ocra&#45;wbi&#45;plugins/ocra&#45;icub&#45;clients/walking&#45;client/src/WalkingClient.cpp">
<polygon fill="white" stroke="black" points="4676.5,-0.5 4676.5,-21.5 4999.5,-21.5 4999.5,-0.5 4676.5,-0.5"/>
<text text-anchor="middle" x="4838" y="-8.5" font-family="Helvetica,sans-Serif" font-size="10.00">ocra&#45;wbi&#45;plugins/ocra&#45;icub&#45;clients/walking&#45;client/src/WalkingClient.cpp</text>
</a>
</g>
<!-- Node6&#45;&gt;Node8 -->
<g id="edge14" class="edge"><title>Node6&#45;&gt;Node8</title>
<path fill="none" stroke="midnightblue" d="M4716.59,-55.0095C4745.03,-44.7023 4783.1,-30.903 4808.97,-21.5231"/>
<polygon fill="midnightblue" stroke="midnightblue" points="4715.18,-51.7981 4706.97,-58.4966 4717.57,-58.3791 4715.18,-51.7981"/>
</g>
<!-- Node12&#45;&gt;Node13 -->
<g id="edge24" class="edge"><title>Node12&#45;&gt;Node13</title>
<path fill="none" stroke="midnightblue" d="M741.386,-288.011C700.863,-277.611 644.75,-263.21 607.004,-253.523"/>
<polygon fill="midnightblue" stroke="midnightblue" points="740.517,-291.401 751.073,-290.497 742.257,-284.621 740.517,-291.401"/>
</g>
<!-- Node15 -->
<g id="node30" class="node"><title>Node15</title>
<a xlink:href="Bounding_8cpp.html" target="_top" xlink:title="ocra&#45;wbi&#45;plugins/ocra&#45;icub&#45;clients/walking&#45;client/src/Bounding.cpp">
<polygon fill="white" stroke="black" points="814,-232.5 814,-253.5 1116,-253.5 1116,-232.5 814,-232.5"/>
<text text-anchor="middle" x="965" y="-240.5" font-family="Helvetica,sans-Serif" font-size="10.00">ocra&#45;wbi&#45;plugins/ocra&#45;icub&#45;clients/walking&#45;client/src/Bounding.cpp</text>
</a>
</g>
<!-- Node12&#45;&gt;Node15 -->
<g id="edge30" class="edge"><title>Node12&#45;&gt;Node15</title>
<path fill="none" stroke="midnightblue" d="M832.927,-287.279C863.754,-276.944 905.39,-262.985 933.612,-253.523"/>
<polygon fill="midnightblue" stroke="midnightblue" points="831.698,-283.999 823.329,-290.497 833.923,-290.636 831.698,-283.999"/>
</g>
<!-- Node13&#45;&gt;Node4 -->
<g id="edge26" class="edge"><title>Node13&#45;&gt;Node4</title>
<path fill="none" stroke="midnightblue" d="M800.959,-232.134C802.31,-232.089 803.657,-232.044 805,-232 910.505,-228.533 2361.72,-200.746 2946.93,-189.601"/>
<polygon fill="midnightblue" stroke="midnightblue" points="800.405,-228.651 790.532,-232.494 800.647,-235.647 800.405,-228.651"/>
</g>
<!-- Node14 -->
<g id="node28" class="node"><title>Node14</title>
<a xlink:href="ShapeConstraints_8cpp.html" target="_top" xlink:title="ocra&#45;wbi&#45;plugins/ocra&#45;icub&#45;clients/walking&#45;client/src/ShapeConstraints.cpp">
<polygon fill="white" stroke="black" points="396,-174.5 396,-195.5 736,-195.5 736,-174.5 396,-174.5"/>
<text text-anchor="middle" x="566" y="-182.5" font-family="Helvetica,sans-Serif" font-size="10.00">ocra&#45;wbi&#45;plugins/ocra&#45;icub&#45;clients/walking&#45;client/src/ShapeConstraints.cpp</text>
</a>
</g>
<!-- Node13&#45;&gt;Node14 -->
<g id="edge28" class="edge"><title>Node13&#45;&gt;Node14</title>
<path fill="none" stroke="midnightblue" d="M566,-222.191C566,-213.168 566,-202.994 566,-195.571"/>
<polygon fill="midnightblue" stroke="midnightblue" points="562.5,-222.362 566,-232.362 569.5,-222.362 562.5,-222.362"/>
</g>
<!-- Node16&#45;&gt;Node13 -->
<g id="edge34" class="edge"><title>Node16&#45;&gt;Node13</title>
<path fill="none" stroke="midnightblue" d="M1103.79,-289.625C982.93,-279.146 805.019,-263.722 687.378,-253.523"/>
<polygon fill="midnightblue" stroke="midnightblue" points="1103.58,-293.12 1113.85,-290.497 1104.19,-286.146 1103.58,-293.12"/>
</g>
<!-- Node17 -->
<g id="node35" class="node"><title>Node17</title>
<a xlink:href="Constancy_8cpp.html" target="_top" xlink:title="ocra&#45;wbi&#45;plugins/ocra&#45;icub&#45;clients/walking&#45;client/src/Constancy.cpp">
<polygon fill="white" stroke="black" points="1133.5,-232.5 1133.5,-253.5 1442.5,-253.5 1442.5,-232.5 1133.5,-232.5"/>
<text text-anchor="middle" x="1288" y="-240.5" font-family="Helvetica,sans-Serif" font-size="10.00">ocra&#45;wbi&#45;plugins/ocra&#45;icub&#45;clients/walking&#45;client/src/Constancy.cpp</text>
</a>
</g>
<!-- Node16&#45;&gt;Node17 -->
<g id="edge36" class="edge"><title>Node16&#45;&gt;Node17</title>
<path fill="none" stroke="midnightblue" d="M1251.6,-282.83C1260.4,-273.208 1270.89,-261.728 1278.34,-253.571"/>
<polygon fill="midnightblue" stroke="midnightblue" points="1248.88,-280.619 1244.72,-290.362 1254.05,-285.341 1248.88,-280.619"/>
</g>
<!-- Node18&#45;&gt;Node3 -->
<g id="edge40" class="edge"><title>Node18&#45;&gt;Node3</title>
<path fill="none" stroke="midnightblue" d="M2628.85,-288.404C2579.05,-277.977 2509.11,-263.333 2462.26,-253.523"/>
<polygon fill="midnightblue" stroke="midnightblue" points="2628.33,-291.873 2638.84,-290.497 2629.77,-285.021 2628.33,-291.873"/>
</g>
<!-- Node19 -->
<g id="node40" class="node"><title>Node19</title>
<a xlink:href="ContactConfigEnforcement_8cpp.html" target="_top" xlink:title="ocra&#45;wbi&#45;plugins/ocra&#45;icub&#45;clients/walking&#45;client/src/ContactConfigEnforcement.cpp">
<polygon fill="white" stroke="black" points="2674,-232.5 2674,-253.5 3054,-253.5 3054,-232.5 2674,-232.5"/>
<text text-anchor="middle" x="2864" y="-240.5" font-family="Helvetica,sans-Serif" font-size="10.00">ocra&#45;wbi&#45;plugins/ocra&#45;icub&#45;clients/walking&#45;client/src/ContactConfigEnforcement.cpp</text>
</a>
</g>
<!-- Node18&#45;&gt;Node19 -->
<g id="edge42" class="edge"><title>Node18&#45;&gt;Node19</title>
<path fill="none" stroke="midnightblue" d="M2730.4,-287.279C2761.58,-276.944 2803.7,-262.985 2832.25,-253.523"/>
<polygon fill="midnightblue" stroke="midnightblue" points="2729.08,-284.028 2720.69,-290.497 2731.28,-290.673 2729.08,-284.028"/>
</g>
<!-- Node20&#45;&gt;Node3 -->
<g id="edge46" class="edge"><title>Node20&#45;&gt;Node3</title>
<path fill="none" stroke="midnightblue" d="M3043.14,-289.751C2901.65,-279.27 2692.3,-263.763 2554.06,-253.523"/>
<polygon fill="midnightblue" stroke="midnightblue" points="3042.97,-293.248 3053.2,-290.497 3043.49,-286.267 3042.97,-293.248"/>
</g>
<!-- Node21 -->
<g id="node45" class="node"><title>Node21</title>
<a xlink:href="ContactConfigHistory_8cpp.html" target="_top" xlink:title="ocra&#45;wbi&#45;plugins/ocra&#45;icub&#45;clients/walking&#45;client/src/ContactConfigHistory.cpp">
<polygon fill="white" stroke="black" points="3072,-232.5 3072,-253.5 3428,-253.5 3428,-232.5 3072,-232.5"/>
<text text-anchor="middle" x="3250" y="-240.5" font-family="Helvetica,sans-Serif" font-size="10.00">ocra&#45;wbi&#45;plugins/ocra&#45;icub&#45;clients/walking&#45;client/src/ContactConfigHistory.cpp</text>
</a>
</g>
<!-- Node20&#45;&gt;Node21 -->
<g id="edge48" class="edge"><title>Node20&#45;&gt;Node21</title>
<path fill="none" stroke="midnightblue" d="M3212.23,-282.83C3221.35,-273.208 3232.24,-261.728 3239.98,-253.571"/>
<polygon fill="midnightblue" stroke="midnightblue" points="3209.43,-280.697 3205.09,-290.362 3214.51,-285.514 3209.43,-280.697"/>
</g>
<!-- Node22&#45;&gt;Node13 -->
<g id="edge52" class="edge"><title>Node22&#45;&gt;Node13</title>
<path fill="none" stroke="midnightblue" d="M363.049,-288.274C409.754,-277.855 475.036,-263.292 518.828,-253.523"/>
<polygon fill="midnightblue" stroke="midnightblue" points="362.082,-284.903 353.084,-290.497 363.606,-291.735 362.082,-284.903"/>
</g>
<!-- Node23 -->
<g id="node50" class="node"><title>Node23</title>
<a xlink:href="Sequentiality_8cpp.html" target="_top" xlink:title="ocra&#45;wbi&#45;plugins/ocra&#45;icub&#45;clients/walking&#45;client/src/Sequentiality.cpp">
<polygon fill="white" stroke="black" points="0,-232.5 0,-253.5 318,-253.5 318,-232.5 0,-232.5"/>
<text text-anchor="middle" x="159" y="-240.5" font-family="Helvetica,sans-Serif" font-size="10.00">ocra&#45;wbi&#45;plugins/ocra&#45;icub&#45;clients/walking&#45;client/src/Sequentiality.cpp</text>
</a>
</g>
<!-- Node22&#45;&gt;Node23 -->
<g id="edge54" class="edge"><title>Node22&#45;&gt;Node23</title>
<path fill="none" stroke="midnightblue" d="M269.886,-286.751C243.927,-276.509 209.488,-262.921 185.919,-253.621"/>
<polygon fill="midnightblue" stroke="midnightblue" points="268.793,-290.082 279.379,-290.497 271.362,-283.571 268.793,-290.082"/>
</g>
<!-- Node24&#45;&gt;Node3 -->
<g id="edge60" class="edge"><title>Node24&#45;&gt;Node3</title>
<path fill="none" stroke="midnightblue" d="M1829.21,-289.688C1960.02,-279.208 2153.07,-263.743 2280.64,-253.523"/>
<polygon fill="midnightblue" stroke="midnightblue" points="1828.8,-286.209 1819.11,-290.497 1829.36,-293.187 1828.8,-286.209"/>
</g>
<!-- Node25 -->
<g id="node56" class="node"><title>Node25</title>
<a xlink:href="SingleSupport_8cpp.html" target="_top" xlink:title="ocra&#45;wbi&#45;plugins/ocra&#45;icub&#45;clients/walking&#45;client/src/SingleSupport.cpp">
<polygon fill="white" stroke="black" points="1473.5,-232.5 1473.5,-253.5 1796.5,-253.5 1796.5,-232.5 1473.5,-232.5"/>
<text text-anchor="middle" x="1635" y="-240.5" font-family="Helvetica,sans-Serif" font-size="10.00">ocra&#45;wbi&#45;plugins/ocra&#45;icub&#45;clients/walking&#45;client/src/SingleSupport.cpp</text>
</a>
</g>
<!-- Node24&#45;&gt;Node25 -->
<g id="edge62" class="edge"><title>Node24&#45;&gt;Node25</title>
<path fill="none" stroke="midnightblue" d="M1671.4,-282.83C1662.6,-273.208 1652.11,-261.728 1644.66,-253.571"/>
<polygon fill="midnightblue" stroke="midnightblue" points="1668.95,-285.341 1678.28,-290.362 1674.12,-280.619 1668.95,-285.341"/>
</g>
<!-- Node26&#45;&gt;Node3 -->
<g id="edge66" class="edge"><title>Node26&#45;&gt;Node3</title>
<path fill="none" stroke="midnightblue" d="M2211.39,-288.274C2257.56,-277.855 2322.09,-263.292 2365.37,-253.523"/>
<polygon fill="midnightblue" stroke="midnightblue" points="2210.52,-284.881 2201.54,-290.497 2212.07,-291.709 2210.52,-284.881"/>
</g>
<!-- Node27 -->
<g id="node61" class="node"><title>Node27</title>
<a xlink:href="SSDSAlternation_8cpp.html" target="_top" xlink:title="ocra&#45;wbi&#45;plugins/ocra&#45;icub&#45;clients/walking&#45;client/src/SSDSAlternation.cpp">
<polygon fill="white" stroke="black" points="1814,-232.5 1814,-253.5 2150,-253.5 2150,-232.5 1814,-232.5"/>
<text text-anchor="middle" x="1982" y="-240.5" font-family="Helvetica,sans-Serif" font-size="10.00">ocra&#45;wbi&#45;plugins/ocra&#45;icub&#45;clients/walking&#45;client/src/SSDSAlternation.cpp</text>
</a>
</g>
<!-- Node26&#45;&gt;Node27 -->
<g id="edge68" class="edge"><title>Node26&#45;&gt;Node27</title>
<path fill="none" stroke="midnightblue" d="M2114.07,-287.279C2083.25,-276.944 2041.61,-262.985 2013.39,-253.523"/>
<polygon fill="midnightblue" stroke="midnightblue" points="2113.08,-290.636 2123.67,-290.497 2115.3,-283.999 2113.08,-290.636"/>
</g>
<!-- Node28&#45;&gt;Node5 -->
<g id="edge80" class="edge"><title>Node28&#45;&gt;Node5</title>
<path fill="none" stroke="midnightblue" d="M4160.97,-288.852C4204.23,-281.584 4246.84,-270.467 4260,-254 4266.1,-246.362 4262.62,-241.42 4260,-232 4251.93,-202.995 4249.95,-190.85 4225,-174 4198.81,-156.314 4130.17,-144.754 4066.12,-137.525"/>
<polygon fill="midnightblue" stroke="midnightblue" points="4160.18,-285.434 4150.86,-290.481 4161.29,-292.345 4160.18,-285.434"/>
</g>
<!-- Node29 -->
<g id="node66" class="node"><title>Node29</title>
<a xlink:href="BaseOfSupport_8h.html" target="_top" xlink:title="ocra&#45;wbi&#45;plugins/ocra&#45;icub&#45;clients/walking&#45;client/include/walking&#45;client/BaseOfSupport.h">
<polygon fill="white" stroke="black" points="3853,-232.5 3853,-253.5 4251,-253.5 4251,-232.5 3853,-232.5"/>
<text text-anchor="middle" x="4052" y="-240.5" font-family="Helvetica,sans-Serif" font-size="10.00">ocra&#45;wbi&#45;plugins/ocra&#45;icub&#45;clients/walking&#45;client/include/walking&#45;client/BaseOfSupport.h</text>
</a>
</g>
<!-- Node28&#45;&gt;Node29 -->
<g id="edge74" class="edge"><title>Node28&#45;&gt;Node29</title>
<path fill="none" stroke="midnightblue" d="M4052,-280.191C4052,-271.168 4052,-260.994 4052,-253.571"/>
<polygon fill="midnightblue" stroke="midnightblue" points="4048.5,-280.362 4052,-290.362 4055.5,-280.362 4048.5,-280.362"/>
</g>
<!-- Node31 -->
<g id="node72" class="node"><title>Node31</title>
<a xlink:href="MIQPState_8cpp.html" target="_top" xlink:title="ocra&#45;wbi&#45;plugins/ocra&#45;icub&#45;clients/walking&#45;client/src/MIQPState.cpp">
<polygon fill="white" stroke="black" points="3486.5,-232.5 3486.5,-253.5 3797.5,-253.5 3797.5,-232.5 3486.5,-232.5"/>
<text text-anchor="middle" x="3642" y="-240.5" font-family="Helvetica,sans-Serif" font-size="10.00">ocra&#45;wbi&#45;plugins/ocra&#45;icub&#45;clients/walking&#45;client/src/MIQPState.cpp</text>
</a>
</g>
<!-- Node28&#45;&gt;Node31 -->
<g id="edge82" class="edge"><title>Node28&#45;&gt;Node31</title>
<path fill="none" stroke="midnightblue" d="M3967.54,-289.052C3893.59,-278.591 3787.18,-263.538 3716.39,-253.523"/>
<polygon fill="midnightblue" stroke="midnightblue" points="3967.36,-292.561 3977.75,-290.497 3968.34,-285.63 3967.36,-292.561"/>
</g>
<!-- Node29&#45;&gt;Node4 -->
<g id="edge76" class="edge"><title>Node29&#45;&gt;Node4</title>
<path fill="none" stroke="midnightblue" d="M3885.56,-231.814C3729.6,-221.332 3498.25,-205.784 3345.58,-195.523"/>
<polygon fill="midnightblue" stroke="midnightblue" points="3885.5,-235.318 3895.72,-232.497 3885.97,-228.334 3885.5,-235.318"/>
</g>
<!-- Node30 -->
<g id="node69" class="node"><title>Node30</title>
<a xlink:href="BaseOfSupport_8cpp.html" target="_top" xlink:title="ocra&#45;wbi&#45;plugins/ocra&#45;icub&#45;clients/walking&#45;client/src/BaseOfSupport.cpp">
<polygon fill="white" stroke="black" points="3887.5,-174.5 3887.5,-195.5 4216.5,-195.5 4216.5,-174.5 3887.5,-174.5"/>
<text text-anchor="middle" x="4052" y="-182.5" font-family="Helvetica,sans-Serif" font-size="10.00">ocra&#45;wbi&#45;plugins/ocra&#45;icub&#45;clients/walking&#45;client/src/BaseOfSupport.cpp</text>
</a>
</g>
<!-- Node29&#45;&gt;Node30 -->
<g id="edge78" class="edge"><title>Node29&#45;&gt;Node30</title>
<path fill="none" stroke="midnightblue" d="M4052,-222.191C4052,-213.168 4052,-202.994 4052,-195.571"/>
<polygon fill="midnightblue" stroke="midnightblue" points="4048.5,-222.362 4052,-232.362 4055.5,-222.362 4048.5,-222.362"/>
</g>
<!-- Node32&#45;&gt;Node4 -->
<g id="edge88" class="edge"><title>Node32&#45;&gt;Node4</title>
<path fill="none" stroke="midnightblue" d="M4252.84,-289.89C4090.02,-280.235 3882.57,-265.961 3844,-254 3825.36,-248.219 3824.64,-237.775 3806,-232 3737.63,-210.82 3573.27,-198.955 3431.37,-192.447"/>
<polygon fill="midnightblue" stroke="midnightblue" points="4252.82,-293.395 4263.01,-290.49 4253.23,-286.407 4252.82,-293.395"/>
</g>
<!-- Node32&#45;&gt;Node6 -->
<g id="edge90" class="edge"><title>Node32&#45;&gt;Node6</title>
<path fill="none" stroke="midnightblue" d="M4538.7,-288.648C4580.61,-280.721 4625.62,-269.076 4640,-254 4687.52,-204.169 4682.65,-111.603 4679.36,-79.9462"/>
<polygon fill="midnightblue" stroke="midnightblue" points="4537.9,-285.236 4528.7,-290.483 4539.17,-292.121 4537.9,-285.236"/>
</g>
<!-- Node32&#45;&gt;Node29 -->
<g id="edge86" class="edge"><title>Node32&#45;&gt;Node29</title>
<path fill="none" stroke="midnightblue" d="M4372.78,-289.052C4299.91,-278.591 4195.06,-263.538 4125.3,-253.523"/>
<polygon fill="midnightblue" stroke="midnightblue" points="4372.44,-292.54 4382.84,-290.497 4373.44,-285.611 4372.44,-292.54"/>
</g>
<!-- Node33 -->
<g id="node79" class="node"><title>Node33</title>
<a xlink:href="StepController_8cpp.html" target="_top" xlink:title="ocra&#45;wbi&#45;plugins/ocra&#45;icub&#45;clients/walking&#45;client/src/StepController.cpp">
<polygon fill="white" stroke="black" points="4307,-232.5 4307,-253.5 4631,-253.5 4631,-232.5 4307,-232.5"/>
<text text-anchor="middle" x="4469" y="-240.5" font-family="Helvetica,sans-Serif" font-size="10.00">ocra&#45;wbi&#45;plugins/ocra&#45;icub&#45;clients/walking&#45;client/src/StepController.cpp</text>
</a>
</g>
<!-- Node32&#45;&gt;Node33 -->
<g id="edge92" class="edge"><title>Node32&#45;&gt;Node33</title>
<path fill="none" stroke="midnightblue" d="M4460.6,-280.488C4462.64,-271.392 4464.95,-261.076 4466.63,-253.571"/>
<polygon fill="midnightblue" stroke="midnightblue" points="4457.16,-279.838 4458.38,-290.362 4463.99,-281.37 4457.16,-279.838"/>
</g>
<!-- Node34&#45;&gt;Node6 -->
<g id="edge98" class="edge"><title>Node34&#45;&gt;Node6</title>
<path fill="none" stroke="midnightblue" d="M4857.89,-346.64C4815.42,-338.602 4769.15,-326.85 4754,-312 4731.29,-289.733 4735,-274.808 4735,-243 4735,-243 4735,-243 4735,-185 4735,-142.366 4703.6,-99.1192 4687.41,-79.6538"/>
<polygon fill="midnightblue" stroke="midnightblue" points="4857.26,-350.083 4867.73,-348.451 4858.52,-343.199 4857.26,-350.083"/>
</g>
<!-- Node35 -->
<g id="node85" class="node"><title>Node35</title>
<a xlink:href="ZmpPreviewController_8cpp.html" target="_top" xlink:title="ocra&#45;wbi&#45;plugins/ocra&#45;icub&#45;clients/walking&#45;client/src/ZmpPreviewController.cpp">
<polygon fill="white" stroke="black" points="4762.5,-290.5 4762.5,-311.5 5121.5,-311.5 5121.5,-290.5 4762.5,-290.5"/>
<text text-anchor="middle" x="4942" y="-298.5" font-family="Helvetica,sans-Serif" font-size="10.00">ocra&#45;wbi&#45;plugins/ocra&#45;icub&#45;clients/walking&#45;client/src/ZmpPreviewController.cpp</text>
</a>
</g>
<!-- Node34&#45;&gt;Node35 -->
<g id="edge100" class="edge"><title>Node34&#45;&gt;Node35</title>
<path fill="none" stroke="midnightblue" d="M4940.08,-338.191C4940.54,-329.168 4941.07,-318.994 4941.45,-311.571"/>
<polygon fill="midnightblue" stroke="midnightblue" points="4936.57,-338.194 4939.55,-348.362 4943.56,-338.556 4936.57,-338.194"/>
</g>
</g>
</svg>
