<?xml version="1.0" encoding="UTF-8" standalone="no"?>
<!DOCTYPE svg PUBLIC "-//W3C//DTD SVG 1.1//EN"
 "http://www.w3.org/Graphics/SVG/1.1/DTD/svg11.dtd">
<!-- Generated by graphviz version 2.26.3 (20100126.1600)
 -->
<!-- Title: G Pages: 1 -->
<svg width="4640pt" height="378pt"
 viewBox="0.00 0.00 4640.00 378.00" xmlns="http://www.w3.org/2000/svg" xmlns:xlink="http://www.w3.org/1999/xlink">
<g id="graph1" class="graph" transform="scale(1 1) rotate(0) translate(4 374)">
<title>G</title>
<polygon fill="white" stroke="white" points="-4,5 -4,-374 4637,-374 4637,5 -4,5"/>
<!-- Node1 -->
<g id="node1" class="node"><title>Node1</title>
<polygon fill="#bfbfbf" stroke="black" points="2132.5,-348.5 2132.5,-369.5 2383.5,-369.5 2383.5,-348.5 2132.5,-348.5"/>
<text text-anchor="middle" x="2258" y="-356.5" font-family="Helvetica,sans-Serif" font-size="10.00">ocra&#45;wbi&#45;plugins/ocra&#45;icub/include/ocra&#45;icub/Utilities.h</text>
</g>
<!-- Node2 -->
<g id="node3" class="node"><title>Node2</title>
<a xlink:href="Module_8h.html" target="_top" xlink:title="Module class for the controller server.">
<polygon fill="white" stroke="black" points="254.5,-58.5 254.5,-79.5 563.5,-79.5 563.5,-58.5 254.5,-58.5"/>
<text text-anchor="middle" x="409" y="-66.5" font-family="Helvetica,sans-Serif" font-size="10.00">ocra&#45;wbi&#45;plugins/ocra&#45;icub&#45;server/include/ocra&#45;icub&#45;server/Module.h</text>
</a>
</g>
<!-- Node1&#45;&gt;Node2 -->
<g id="edge2" class="edge"><title>Node1&#45;&gt;Node2</title>
<path fill="none" stroke="midnightblue" d="M2122.37,-356.557C1726.6,-348.541 601,-319.057 601,-243 601,-243 601,-243 601,-185 601,-122.883 526.468,-93.1401 470.278,-79.5429"/>
<polygon fill="midnightblue" stroke="midnightblue" points="2122.37,-360.058 2132.44,-356.76 2122.51,-353.059 2122.37,-360.058"/>
</g>
<!-- Node5 -->
<g id="node9" class="node"><title>Node5</title>
<a xlink:href="Thread_8h.html" target="_top" xlink:title="The thread class for the controller server.">
<polygon fill="white" stroke="black" points="681,-116.5 681,-137.5 989,-137.5 989,-116.5 681,-116.5"/>
<text text-anchor="middle" x="835" y="-124.5" font-family="Helvetica,sans-Serif" font-size="10.00">ocra&#45;wbi&#45;plugins/ocra&#45;icub&#45;server/include/ocra&#45;icub&#45;server/Thread.h</text>
</a>
</g>
<!-- Node1&#45;&gt;Node5 -->
<g id="edge8" class="edge"><title>Node1&#45;&gt;Node5</title>
<path fill="none" stroke="midnightblue" d="M2177.4,-346.93C2114.4,-337.477 2024.61,-323.968 1946,-312 1610.81,-260.969 1526.06,-253.959 1192,-196 1082.84,-177.062 955.57,-151.661 886.32,-137.56"/>
<polygon fill="midnightblue" stroke="midnightblue" points="2177.26,-350.447 2187.67,-348.47 2178.3,-343.525 2177.26,-350.447"/>
</g>
<!-- Node7 -->
<g id="node14" class="node"><title>Node7</title>
<a xlink:href="ZmpController_8h.html" target="_top" xlink:title="ocra&#45;wbi&#45;plugins/ocra&#45;icub&#45;clients/walking&#45;client/include/walking&#45;client/ZmpController.h">
<polygon fill="white" stroke="black" points="2381,-290.5 2381,-311.5 2773,-311.5 2773,-290.5 2381,-290.5"/>
<text text-anchor="middle" x="2577" y="-298.5" font-family="Helvetica,sans-Serif" font-size="10.00">ocra&#45;wbi&#45;plugins/ocra&#45;icub&#45;clients/walking&#45;client/include/walking&#45;client/ZmpController.h</text>
</a>
</g>
<!-- Node1&#45;&gt;Node7 -->
<g id="edge14" class="edge"><title>Node1&#45;&gt;Node7</title>
<path fill="none" stroke="midnightblue" d="M2325.84,-346.665C2383.28,-336.222 2464.72,-321.415 2519.12,-311.523"/>
<polygon fill="midnightblue" stroke="midnightblue" points="2324.98,-343.264 2315.77,-348.497 2326.23,-350.151 2324.98,-343.264"/>
</g>
<!-- Node12 -->
<g id="node24" class="node"><title>Node12</title>
<a xlink:href="ZmpPreviewController_8h.html" target="_top" xlink:title="ocra&#45;wbi&#45;plugins/ocra&#45;icub&#45;clients/walking&#45;client/include/walking&#45;client/ZmpPreviewController.h">
<polygon fill="white" stroke="black" points="2791,-290.5 2791,-311.5 3219,-311.5 3219,-290.5 2791,-290.5"/>
<text text-anchor="middle" x="3005" y="-298.5" font-family="Helvetica,sans-Serif" font-size="10.00">ocra&#45;wbi&#45;plugins/ocra&#45;icub&#45;clients/walking&#45;client/include/walking&#45;client/ZmpPreviewController.h</text>
</a>
</g>
<!-- Node1&#45;&gt;Node12 -->
<g id="edge24" class="edge"><title>Node1&#45;&gt;Node12</title>
<path fill="none" stroke="midnightblue" d="M2393.88,-348.45C2528.95,-337.963 2734.91,-321.971 2869.76,-311.501"/>
<polygon fill="midnightblue" stroke="midnightblue" points="2393.57,-344.963 2383.87,-349.227 2394.11,-351.942 2393.57,-344.963"/>
</g>
<!-- Node14 -->
<g id="node29" class="node"><title>Node14</title>
<a xlink:href="IcubClient_8h.html" target="_top" xlink:title="ocra&#45;wbi&#45;plugins/ocra&#45;icub/include/ocra&#45;icub/IcubClient.h">
<polygon fill="white" stroke="black" points="2203,-116.5 2203,-137.5 2465,-137.5 2465,-116.5 2203,-116.5"/>
<text text-anchor="middle" x="2334" y="-124.5" font-family="Helvetica,sans-Serif" font-size="10.00">ocra&#45;wbi&#45;plugins/ocra&#45;icub/include/ocra&#45;icub/IcubClient.h</text>
</a>
</g>
<!-- Node1&#45;&gt;Node14 -->
<g id="edge30" class="edge"><title>Node1&#45;&gt;Node14</title>
<path fill="none" stroke="midnightblue" d="M2292.46,-343.529C2305.43,-335.92 2318.97,-325.451 2327,-312 2361.42,-254.313 2344.3,-167.512 2336.86,-137.584"/>
<polygon fill="midnightblue" stroke="midnightblue" points="2290.74,-340.478 2283.64,-348.341 2294.09,-346.622 2290.74,-340.478"/>
</g>
<!-- Node30 -->
<g id="node68" class="node"><title>Node30</title>
<a xlink:href="OcraWbiConversions_8h.html" target="_top" xlink:title="A utility class full of static conversion functions.">
<polygon fill="white" stroke="black" points="2007.5,-290.5 2007.5,-311.5 2318.5,-311.5 2318.5,-290.5 2007.5,-290.5"/>
<text text-anchor="middle" x="2163" y="-298.5" font-family="Helvetica,sans-Serif" font-size="10.00">ocra&#45;wbi&#45;plugins/ocra&#45;icub/include/ocra&#45;icub/OcraWbiConversions.h</text>
</a>
</g>
<!-- Node1&#45;&gt;Node30 -->
<g id="edge76" class="edge"><title>Node1&#45;&gt;Node30</title>
<path fill="none" stroke="midnightblue" d="M2231.96,-343.101C2215.52,-333.066 2194.74,-320.381 2180.31,-311.571"/>
<polygon fill="midnightblue" stroke="midnightblue" points="2230.22,-346.138 2240.58,-348.362 2233.86,-340.164 2230.22,-346.138"/>
</g>
<!-- Node31 -->
<g id="node71" class="node"><title>Node31</title>
<a xlink:href="OcraWbiModel_8h.html" target="_top" xlink:title="Implementation of ocra::Model using wholeBodyInterface.">
<polygon fill="white" stroke="black" points="1727,-232.5 1727,-253.5 2009,-253.5 2009,-232.5 1727,-232.5"/>
<text text-anchor="middle" x="1868" y="-240.5" font-family="Helvetica,sans-Serif" font-size="10.00">ocra&#45;wbi&#45;plugins/ocra&#45;icub/include/ocra&#45;icub/OcraWbiModel.h</text>
</a>
</g>
<!-- Node1&#45;&gt;Node31 -->
<g id="edge100" class="edge"><title>Node1&#45;&gt;Node31</title>
<path fill="none" stroke="midnightblue" d="M2150.61,-347.01C2103.27,-339.825 2047.5,-328.729 1999,-312 1955.26,-296.913 1908.26,-268.929 1884.22,-253.644"/>
<polygon fill="midnightblue" stroke="midnightblue" points="2150.17,-350.483 2160.58,-348.485 2151.2,-343.559 2150.17,-350.483"/>
</g>
<!-- Node38 -->
<g id="node89" class="node"><title>Node38</title>
<a xlink:href="Utilities_8cpp.html" target="_top" xlink:title="Some useful tools for the ocra&#45;icub lib.">
<polygon fill="white" stroke="black" points="3236.5,-290.5 3236.5,-311.5 3437.5,-311.5 3437.5,-290.5 3236.5,-290.5"/>
<text text-anchor="middle" x="3337" y="-298.5" font-family="Helvetica,sans-Serif" font-size="10.00">ocra&#45;wbi&#45;plugins/ocra&#45;icub/src/Utilities.cpp</text>
</a>
</g>
<!-- Node1&#45;&gt;Node38 -->
<g id="edge102" class="edge"><title>Node1&#45;&gt;Node38</title>
<path fill="none" stroke="midnightblue" d="M2393.89,-354.653C2581.62,-348.136 2930.83,-334.179 3228,-312 3230.75,-311.795 3233.54,-311.577 3236.35,-311.35"/>
<polygon fill="midnightblue" stroke="midnightblue" points="2393.57,-351.162 2383.69,-355.005 2393.81,-358.157 2393.57,-351.162"/>
</g>
<!-- Node3 -->
<g id="node5" class="node"><title>Node3</title>
<a xlink:href="ocra-icub-server_2src_2main_8cpp.html" target="_top" xlink:title="ocra&#45;wbi&#45;plugins/ocra&#45;icub&#45;server/src/main.cpp">
<polygon fill="white" stroke="black" points="-0.5,-0.5 -0.5,-21.5 218.5,-21.5 218.5,-0.5 -0.5,-0.5"/>
<text text-anchor="middle" x="109" y="-8.5" font-family="Helvetica,sans-Serif" font-size="10.00">ocra&#45;wbi&#45;plugins/ocra&#45;icub&#45;server/src/main.cpp</text>
</a>
</g>
<!-- Node2&#45;&gt;Node3 -->
<g id="edge4" class="edge"><title>Node2&#45;&gt;Node3</title>
<path fill="none" stroke="midnightblue" d="M344.525,-56.5349C290.549,-46.0994 214.383,-31.374 163.43,-21.5231"/>
<polygon fill="midnightblue" stroke="midnightblue" points="344.19,-60.0347 354.672,-58.4966 345.518,-53.162 344.19,-60.0347"/>
</g>
<!-- Node4 -->
<g id="node7" class="node"><title>Node4</title>
<a xlink:href="Module_8cpp.html" target="_top" xlink:title="ocra&#45;wbi&#45;plugins/ocra&#45;icub&#45;server/src/Module.cpp">
<polygon fill="white" stroke="black" points="236,-0.5 236,-21.5 466,-21.5 466,-0.5 236,-0.5"/>
<text text-anchor="middle" x="351" y="-8.5" font-family="Helvetica,sans-Serif" font-size="10.00">ocra&#45;wbi&#45;plugins/ocra&#45;icub&#45;server/src/Module.cpp</text>
</a>
</g>
<!-- Node2&#45;&gt;Node4 -->
<g id="edge6" class="edge"><title>Node2&#45;&gt;Node4</title>
<path fill="none" stroke="midnightblue" d="M391.118,-51.118C381.438,-41.4377 369.81,-29.8098 361.571,-21.5707"/>
<polygon fill="midnightblue" stroke="midnightblue" points="388.816,-53.7657 398.362,-58.3619 393.766,-48.8159 388.816,-53.7657"/>
</g>
<!-- Node5&#45;&gt;Node2 -->
<g id="edge10" class="edge"><title>Node5&#45;&gt;Node2</title>
<path fill="none" stroke="midnightblue" d="M747.715,-115.116C670.859,-104.652 559.997,-89.5583 486.29,-79.5231"/>
<polygon fill="midnightblue" stroke="midnightblue" points="747.474,-118.616 757.855,-116.497 748.418,-111.679 747.474,-118.616"/>
</g>
<!-- Node6 -->
<g id="node12" class="node"><title>Node6</title>
<a xlink:href="Thread_8cpp.html" target="_top" xlink:title="The thread class for the controller server.">
<polygon fill="white" stroke="black" points="601,-58.5 601,-79.5 829,-79.5 829,-58.5 601,-58.5"/>
<text text-anchor="middle" x="715" y="-66.5" font-family="Helvetica,sans-Serif" font-size="10.00">ocra&#45;wbi&#45;plugins/ocra&#45;icub&#45;server/src/Thread.cpp</text>
</a>
</g>
<!-- Node5&#45;&gt;Node6 -->
<g id="edge12" class="edge"><title>Node5&#45;&gt;Node6</title>
<path fill="none" stroke="midnightblue" d="M804.109,-112.069C783.094,-101.912 755.791,-88.7157 736.975,-79.6212"/>
<polygon fill="midnightblue" stroke="midnightblue" points="802.742,-115.296 813.269,-116.497 805.789,-108.994 802.742,-115.296"/>
</g>
<!-- Node8 -->
<g id="node16" class="node"><title>Node8</title>
<a xlink:href="WalkingClient_8h.html" target="_top" xlink:title="ocra&#45;wbi&#45;plugins/ocra&#45;icub&#45;clients/walking&#45;client/include/walking&#45;client/WalkingClient.h">
<polygon fill="white" stroke="black" points="3642,-58.5 3642,-79.5 4034,-79.5 4034,-58.5 3642,-58.5"/>
<text text-anchor="middle" x="3838" y="-66.5" font-family="Helvetica,sans-Serif" font-size="10.00">ocra&#45;wbi&#45;plugins/ocra&#45;icub&#45;clients/walking&#45;client/include/walking&#45;client/WalkingClient.h</text>
</a>
</g>
<!-- Node7&#45;&gt;Node8 -->
<g id="edge16" class="edge"><title>Node7&#45;&gt;Node8</title>
<path fill="none" stroke="midnightblue" d="M2626.31,-287.854C2660.31,-278.669 2706.51,-265.957 2747,-254 2778.28,-244.765 2785.26,-239.479 2817,-232 3153.11,-152.801 3560.63,-100.587 3742.43,-79.5244"/>
<polygon fill="midnightblue" stroke="midnightblue" points="2625.36,-284.485 2616.61,-290.466 2627.18,-291.244 2625.36,-284.485"/>
</g>
<!-- Node11 -->
<g id="node22" class="node"><title>Node11</title>
<a xlink:href="ZmpController_8cpp.html" target="_top" xlink:title="ocra&#45;wbi&#45;plugins/ocra&#45;icub&#45;clients/walking&#45;client/src/ZmpController.cpp">
<polygon fill="white" stroke="black" points="2415.5,-232.5 2415.5,-253.5 2738.5,-253.5 2738.5,-232.5 2415.5,-232.5"/>
<text text-anchor="middle" x="2577" y="-240.5" font-family="Helvetica,sans-Serif" font-size="10.00">ocra&#45;wbi&#45;plugins/ocra&#45;icub&#45;clients/walking&#45;client/src/ZmpController.cpp</text>
</a>
</g>
<!-- Node7&#45;&gt;Node11 -->
<g id="edge22" class="edge"><title>Node7&#45;&gt;Node11</title>
<path fill="none" stroke="midnightblue" d="M2577,-280.191C2577,-271.168 2577,-260.994 2577,-253.571"/>
<polygon fill="midnightblue" stroke="midnightblue" points="2573.5,-280.362 2577,-290.362 2580.5,-280.362 2573.5,-280.362"/>
</g>
<!-- Node9 -->
<g id="node18" class="node"><title>Node9</title>
<a xlink:href="ocra-icub-clients_2walking-client_2src_2main_8cpp.html" target="_top" xlink:title="ocra&#45;wbi&#45;plugins/ocra&#45;icub&#45;clients/walking&#45;client/src/main.cpp">
<polygon fill="white" stroke="black" points="4009.5,-0.5 4009.5,-21.5 4292.5,-21.5 4292.5,-0.5 4009.5,-0.5"/>
<text text-anchor="middle" x="4151" y="-8.5" font-family="Helvetica,sans-Serif" font-size="10.00">ocra&#45;wbi&#45;plugins/ocra&#45;icub&#45;clients/walking&#45;client/src/main.cpp</text>
</a>
</g>
<!-- Node8&#45;&gt;Node9 -->
<g id="edge18" class="edge"><title>Node8&#45;&gt;Node9</title>
<path fill="none" stroke="midnightblue" d="M3904.57,-56.6648C3960.92,-46.222 4040.83,-31.415 4094.21,-21.5231"/>
<polygon fill="midnightblue" stroke="midnightblue" points="3903.88,-53.2331 3894.68,-58.4966 3905.15,-60.116 3903.88,-53.2331"/>
</g>
<!-- Node10 -->
<g id="node20" class="node"><title>Node10</title>
<a xlink:href="WalkingClient_8cpp.html" target="_top" xlink:title="ocra&#45;wbi&#45;plugins/ocra&#45;icub&#45;clients/walking&#45;client/src/WalkingClient.cpp">
<polygon fill="white" stroke="black" points="4309.5,-0.5 4309.5,-21.5 4632.5,-21.5 4632.5,-0.5 4309.5,-0.5"/>
<text text-anchor="middle" x="4471" y="-8.5" font-family="Helvetica,sans-Serif" font-size="10.00">ocra&#45;wbi&#45;plugins/ocra&#45;icub&#45;clients/walking&#45;client/src/WalkingClient.cpp</text>
</a>
</g>
<!-- Node8&#45;&gt;Node10 -->
<g id="edge20" class="edge"><title>Node8&#45;&gt;Node10</title>
<path fill="none" stroke="midnightblue" d="M3962.84,-57.5617C4077.18,-47.0845 4245.07,-31.7017 4356.15,-21.5231"/>
<polygon fill="midnightblue" stroke="midnightblue" points="3962.27,-54.0987 3952.63,-58.4966 3962.91,-61.0695 3962.27,-54.0987"/>
</g>
<!-- Node12&#45;&gt;Node8 -->
<g id="edge26" class="edge"><title>Node12&#45;&gt;Node8</title>
<path fill="none" stroke="midnightblue" d="M3058.92,-288.04C3096.58,-278.863 3147.96,-266.086 3193,-254 3426.75,-191.279 3705.89,-108.522 3802.81,-79.5541"/>
<polygon fill="midnightblue" stroke="midnightblue" points="3058.06,-284.647 3049.17,-290.41 3059.72,-291.449 3058.06,-284.647"/>
</g>
<!-- Node13 -->
<g id="node27" class="node"><title>Node13</title>
<a xlink:href="ZmpPreviewController_8cpp.html" target="_top" xlink:title="ocra&#45;wbi&#45;plugins/ocra&#45;icub&#45;clients/walking&#45;client/src/ZmpPreviewController.cpp">
<polygon fill="white" stroke="black" points="2825.5,-232.5 2825.5,-253.5 3184.5,-253.5 3184.5,-232.5 2825.5,-232.5"/>
<text text-anchor="middle" x="3005" y="-240.5" font-family="Helvetica,sans-Serif" font-size="10.00">ocra&#45;wbi&#45;plugins/ocra&#45;icub&#45;clients/walking&#45;client/src/ZmpPreviewController.cpp</text>
</a>
</g>
<!-- Node12&#45;&gt;Node13 -->
<g id="edge28" class="edge"><title>Node12&#45;&gt;Node13</title>
<path fill="none" stroke="midnightblue" d="M3005,-280.191C3005,-271.168 3005,-260.994 3005,-253.571"/>
<polygon fill="midnightblue" stroke="midnightblue" points="3001.5,-280.362 3005,-290.362 3008.5,-280.362 3001.5,-280.362"/>
</g>
<!-- Node14&#45;&gt;Node8 -->
<g id="edge72" class="edge"><title>Node14&#45;&gt;Node8</title>
<path fill="none" stroke="midnightblue" d="M2475.45,-122.604C2713.44,-115.043 3209,-98.5819 3628,-80 3632.56,-79.7978 3637.17,-79.5891 3641.83,-79.3751"/>
<polygon fill="midnightblue" stroke="midnightblue" points="2475.24,-119.109 2465.36,-122.925 2475.47,-126.106 2475.24,-119.109"/>
</g>
<!-- Node14&#45;&gt;Node9 -->
<g id="edge74" class="edge"><title>Node14&#45;&gt;Node9</title>
<path fill="none" stroke="midnightblue" d="M2475.38,-123.561C2793.49,-115.572 3542.07,-95.2801 3595,-80 3613.75,-74.5877 3614.4,-63.9094 3633,-58 3651.22,-52.2108 3872.08,-33.5082 4019.46,-21.514"/>
<polygon fill="midnightblue" stroke="midnightblue" points="2475.08,-120.067 2465.17,-123.816 2475.25,-127.065 2475.08,-120.067"/>
</g>
<!-- Node15 -->
<g id="node31" class="node"><title>Node15</title>
<a xlink:href="ExampleClient_8h.html" target="_top" xlink:title="ocra&#45;wbi&#45;plugins/ocra&#45;icub&#45;clients/example&#45;client/include/example&#45;client/ExampleClient.h">
<polygon fill="white" stroke="black" points="1904,-58.5 1904,-79.5 2306,-79.5 2306,-58.5 1904,-58.5"/>
<text text-anchor="middle" x="2105" y="-66.5" font-family="Helvetica,sans-Serif" font-size="10.00">ocra&#45;wbi&#45;plugins/ocra&#45;icub&#45;clients/example&#45;client/include/example&#45;client/ExampleClient.h</text>
</a>
</g>
<!-- Node14&#45;&gt;Node15 -->
<g id="edge32" class="edge"><title>Node14&#45;&gt;Node15</title>
<path fill="none" stroke="midnightblue" d="M2282.71,-114.011C2241.65,-103.611 2184.8,-89.2102 2146.55,-79.5231"/>
<polygon fill="midnightblue" stroke="midnightblue" points="2281.98,-117.434 2292.53,-116.497 2283.7,-110.648 2281.98,-117.434"/>
</g>
<!-- Node16 -->
<g id="node33" class="node"><title>Node16</title>
<a xlink:href="example-client_8cpp.html" target="_top" xlink:title="ocra&#45;wbi&#45;plugins/ocra&#45;icub&#45;clients/example&#45;client/src/example&#45;client.cpp">
<polygon fill="white" stroke="black" points="2153.5,-0.5 2153.5,-21.5 2482.5,-21.5 2482.5,-0.5 2153.5,-0.5"/>
<text text-anchor="middle" x="2318" y="-8.5" font-family="Helvetica,sans-Serif" font-size="10.00">ocra&#45;wbi&#45;plugins/ocra&#45;icub&#45;clients/example&#45;client/src/example&#45;client.cpp</text>
</a>
</g>
<!-- Node14&#45;&gt;Node16 -->
<g id="edge38" class="edge"><title>Node14&#45;&gt;Node16</title>
<path fill="none" stroke="midnightblue" d="M2331.12,-106.123C2327.7,-81.2984 2322.11,-40.8235 2319.47,-21.6792"/>
<polygon fill="midnightblue" stroke="midnightblue" points="2327.69,-106.867 2332.52,-116.295 2334.62,-105.91 2327.69,-106.867"/>
</g>
<!-- Node18 -->
<g id="node38" class="node"><title>Node18</title>
<a xlink:href="SittingDemoClient_8h.html" target="_top" xlink:title="ocra&#45;wbi&#45;plugins/ocra&#45;icub&#45;clients/sitting&#45;demo/include/sitting&#45;demo/SittingDemoClient.h">
<polygon fill="white" stroke="black" points="885,-58.5 885,-79.5 1283,-79.5 1283,-58.5 885,-58.5"/>
<text text-anchor="middle" x="1084" y="-66.5" font-family="Helvetica,sans-Serif" font-size="10.00">ocra&#45;wbi&#45;plugins/ocra&#45;icub&#45;clients/sitting&#45;demo/include/sitting&#45;demo/SittingDemoClient.h</text>
</a>
</g>
<!-- Node14&#45;&gt;Node18 -->
<g id="edge40" class="edge"><title>Node14&#45;&gt;Node18</title>
<path fill="none" stroke="midnightblue" d="M2192.6,-115.935C1798.44,-92.6302 1697.78,-97.5679 1307,-80 1299.16,-79.6475 1291.16,-79.2819 1283.08,-78.9075"/>
<polygon fill="midnightblue" stroke="midnightblue" points="2192.66,-119.445 2202.85,-116.544 2193.08,-112.458 2192.66,-119.445"/>
</g>
<!-- Node19 -->
<g id="node40" class="node"><title>Node19</title>
<a xlink:href="ocra-icub-clients_2sitting-demo_2src_2main_8cpp.html" target="_top" xlink:title="ocra&#45;wbi&#45;plugins/ocra&#45;icub&#45;clients/sitting&#45;demo/src/main.cpp">
<polygon fill="white" stroke="black" points="483.5,-0.5 483.5,-21.5 760.5,-21.5 760.5,-0.5 483.5,-0.5"/>
<text text-anchor="middle" x="622" y="-8.5" font-family="Helvetica,sans-Serif" font-size="10.00">ocra&#45;wbi&#45;plugins/ocra&#45;icub&#45;clients/sitting&#45;demo/src/main.cpp</text>
</a>
</g>
<!-- Node14&#45;&gt;Node19 -->
<g id="edge46" class="edge"><title>Node14&#45;&gt;Node19</title>
<path fill="none" stroke="midnightblue" d="M2192.78,-116.031C2007.78,-108.696 1014.2,-119.15 876,-80 857.224,-74.681 856.198,-65.0483 838,-58 792.908,-40.5353 739.878,-28.8767 697.647,-21.5397"/>
<polygon fill="midnightblue" stroke="midnightblue" points="2192.71,-119.532 2202.86,-116.492 2193.03,-112.539 2192.71,-119.532"/>
</g>
<!-- Node21 -->
<g id="node45" class="node"><title>Node21</title>
<a xlink:href="StandingDemoClient_8h.html" target="_top" xlink:title="ocra&#45;wbi&#45;plugins/ocra&#45;icub&#45;clients/standing&#45;demo/include/standing&#45;demo/StandingDemoClient.h">
<polygon fill="white" stroke="black" points="1397,-58.5 1397,-79.5 1827,-79.5 1827,-58.5 1397,-58.5"/>
<text text-anchor="middle" x="1612" y="-66.5" font-family="Helvetica,sans-Serif" font-size="10.00">ocra&#45;wbi&#45;plugins/ocra&#45;icub&#45;clients/standing&#45;demo/include/standing&#45;demo/StandingDemoClient.h</text>
</a>
</g>
<!-- Node14&#45;&gt;Node21 -->
<g id="edge48" class="edge"><title>Node14&#45;&gt;Node21</title>
<path fill="none" stroke="midnightblue" d="M2193.18,-115.688C2062.73,-105.208 1870.21,-89.7426 1742.99,-79.5231"/>
<polygon fill="midnightblue" stroke="midnightblue" points="2193,-119.185 2203.25,-116.497 2193.56,-112.207 2193,-119.185"/>
</g>
<!-- Node22 -->
<g id="node47" class="node"><title>Node22</title>
<a xlink:href="ocra-icub-clients_2standing-demo_2src_2main_8cpp.html" target="_top" xlink:title="ocra&#45;wbi&#45;plugins/ocra&#45;icub&#45;clients/standing&#45;demo/src/main.cpp">
<polygon fill="white" stroke="black" points="1129.5,-0.5 1129.5,-21.5 1416.5,-21.5 1416.5,-0.5 1129.5,-0.5"/>
<text text-anchor="middle" x="1273" y="-8.5" font-family="Helvetica,sans-Serif" font-size="10.00">ocra&#45;wbi&#45;plugins/ocra&#45;icub&#45;clients/standing&#45;demo/src/main.cpp</text>
</a>
</g>
<!-- Node14&#45;&gt;Node22 -->
<g id="edge54" class="edge"><title>Node14&#45;&gt;Node22</title>
<path fill="none" stroke="midnightblue" d="M2192.7,-115.984C1999.13,-105.892 1556.66,-130.794 1388,-80 1347.2,-67.7129 1305.97,-37.7334 1285.77,-21.6348"/>
<polygon fill="midnightblue" stroke="midnightblue" points="2192.67,-119.488 2202.85,-116.56 2193.07,-112.499 2192.67,-119.488"/>
</g>
<!-- Node24 -->
<g id="node52" class="node"><title>Node24</title>
<a xlink:href="SteppingDemoClient_8h.html" target="_top" xlink:title="ocra&#45;wbi&#45;plugins/ocra&#45;icub&#45;clients/stepping&#45;demo/include/stepping&#45;demo/SteppingDemoClient.h">
<polygon fill="white" stroke="black" points="2450,-58.5 2450,-79.5 2880,-79.5 2880,-58.5 2450,-58.5"/>
<text text-anchor="middle" x="2665" y="-66.5" font-family="Helvetica,sans-Serif" font-size="10.00">ocra&#45;wbi&#45;plugins/ocra&#45;icub&#45;clients/stepping&#45;demo/include/stepping&#45;demo/SteppingDemoClient.h</text>
</a>
</g>
<!-- Node14&#45;&gt;Node24 -->
<g id="edge56" class="edge"><title>Node14&#45;&gt;Node24</title>
<path fill="none" stroke="midnightblue" d="M2404.03,-114.73C2463.64,-104.283 2548.38,-89.4354 2604.95,-79.5231"/>
<polygon fill="midnightblue" stroke="midnightblue" points="2403.19,-111.323 2393.94,-116.497 2404.4,-118.218 2403.19,-111.323"/>
</g>
<!-- Node25 -->
<g id="node54" class="node"><title>Node25</title>
<a xlink:href="stepping-demo_8cpp.html" target="_top" xlink:title="ocra&#45;wbi&#45;plugins/ocra&#45;icub&#45;clients/stepping&#45;demo/src/stepping&#45;demo.cpp">
<polygon fill="white" stroke="black" points="2500,-0.5 2500,-21.5 2830,-21.5 2830,-0.5 2500,-0.5"/>
<text text-anchor="middle" x="2665" y="-8.5" font-family="Helvetica,sans-Serif" font-size="10.00">ocra&#45;wbi&#45;plugins/ocra&#45;icub&#45;clients/stepping&#45;demo/src/stepping&#45;demo.cpp</text>
</a>
</g>
<!-- Node14&#45;&gt;Node25 -->
<g id="edge62" class="edge"><title>Node14&#45;&gt;Node25</title>
<path fill="none" stroke="midnightblue" d="M2355.03,-110.091C2375.72,-94.2975 2408.8,-71.2289 2441,-58 2484.74,-40.0319 2536.22,-28.6128 2578.79,-21.5367"/>
<polygon fill="midnightblue" stroke="midnightblue" points="2352.71,-107.463 2346.96,-116.364 2357,-112.99 2352.71,-107.463"/>
</g>
<!-- Node27 -->
<g id="node59" class="node"><title>Node27</title>
<a xlink:href="TaskOpsClient_8h.html" target="_top" xlink:title="ocra&#45;wbi&#45;plugins/ocra&#45;icub&#45;clients/task&#45;operations&#45;demo/include/task&#45;operations&#45;demo/TaskOpsClient.h">
<polygon fill="white" stroke="black" points="3121.5,-58.5 3121.5,-79.5 3586.5,-79.5 3586.5,-58.5 3121.5,-58.5"/>
<text text-anchor="middle" x="3354" y="-66.5" font-family="Helvetica,sans-Serif" font-size="10.00">ocra&#45;wbi&#45;plugins/ocra&#45;icub&#45;clients/task&#45;operations&#45;demo/include/task&#45;operations&#45;demo/TaskOpsClient.h</text>
</a>
</g>
<!-- Node14&#45;&gt;Node27 -->
<g id="edge64" class="edge"><title>Node14&#45;&gt;Node27</title>
<path fill="none" stroke="midnightblue" d="M2475.37,-118.961C2656.2,-108.679 2969.77,-90.8482 3169.31,-79.5019"/>
<polygon fill="midnightblue" stroke="midnightblue" points="2475.04,-115.474 2465.26,-119.536 2475.44,-122.463 2475.04,-115.474"/>
</g>
<!-- Node28 -->
<g id="node61" class="node"><title>Node28</title>
<a xlink:href="task-operations-demo_8cpp.html" target="_top" xlink:title="ocra&#45;wbi&#45;plugins/ocra&#45;icub&#45;clients/task&#45;operations&#45;demo/src/task&#45;operations&#45;demo.cpp">
<polygon fill="white" stroke="black" points="3222,-0.5 3222,-21.5 3612,-21.5 3612,-0.5 3222,-0.5"/>
<text text-anchor="middle" x="3417" y="-8.5" font-family="Helvetica,sans-Serif" font-size="10.00">ocra&#45;wbi&#45;plugins/ocra&#45;icub&#45;clients/task&#45;operations&#45;demo/src/task&#45;operations&#45;demo.cpp</text>
</a>
</g>
<!-- Node14&#45;&gt;Node28 -->
<g id="edge70" class="edge"><title>Node14&#45;&gt;Node28</title>
<path fill="none" stroke="midnightblue" d="M2475.11,-116.829C2587.38,-108.308 2748.43,-95.1295 2889,-80 3052.15,-62.4407 3242.89,-36.0597 3344.53,-21.5317"/>
<polygon fill="midnightblue" stroke="midnightblue" points="2474.79,-113.344 2465.08,-117.588 2475.32,-120.324 2474.79,-113.344"/>
</g>
<!-- Node15&#45;&gt;Node16 -->
<g id="edge34" class="edge"><title>Node15&#45;&gt;Node16</title>
<path fill="none" stroke="midnightblue" d="M2153.43,-55.8123C2191.56,-45.4285 2244.01,-31.1487 2279.35,-21.5231"/>
<polygon fill="midnightblue" stroke="midnightblue" points="2152.3,-52.4922 2143.57,-58.4966 2154.14,-59.2463 2152.3,-52.4922"/>
</g>
<!-- Node17 -->
<g id="node35" class="node"><title>Node17</title>
<a xlink:href="ExampleClient_8cpp.html" target="_top" xlink:title="ocra&#45;wbi&#45;plugins/ocra&#45;icub&#45;clients/example&#45;client/src/ExampleClient.cpp">
<polygon fill="white" stroke="black" points="1807.5,-0.5 1807.5,-21.5 2136.5,-21.5 2136.5,-0.5 1807.5,-0.5"/>
<text text-anchor="middle" x="1972" y="-8.5" font-family="Helvetica,sans-Serif" font-size="10.00">ocra&#45;wbi&#45;plugins/ocra&#45;icub&#45;clients/example&#45;client/src/ExampleClient.cpp</text>
</a>
</g>
<!-- Node15&#45;&gt;Node17 -->
<g id="edge36" class="edge"><title>Node15&#45;&gt;Node17</title>
<path fill="none" stroke="midnightblue" d="M2071.7,-54.4794C2048.29,-44.2695 2017.49,-30.8386 1996.36,-21.6212"/>
<polygon fill="midnightblue" stroke="midnightblue" points="2070.35,-57.7075 2080.91,-58.4966 2073.15,-51.291 2070.35,-57.7075"/>
</g>
<!-- Node18&#45;&gt;Node19 -->
<g id="edge42" class="edge"><title>Node18&#45;&gt;Node19</title>
<path fill="none" stroke="midnightblue" d="M990.357,-57.244C906.97,-46.7755 786.084,-31.5993 705.822,-21.5231"/>
<polygon fill="midnightblue" stroke="midnightblue" points="989.977,-60.7237 1000.34,-58.4966 990.849,-53.7782 989.977,-60.7237"/>
</g>
<!-- Node20 -->
<g id="node42" class="node"><title>Node20</title>
<a xlink:href="SittingDemoClient_8cpp.html" target="_top" xlink:title="ocra&#45;wbi&#45;plugins/ocra&#45;icub&#45;clients/sitting&#45;demo/src/SittingDemoClient.cpp">
<polygon fill="white" stroke="black" points="777.5,-0.5 777.5,-21.5 1112.5,-21.5 1112.5,-0.5 777.5,-0.5"/>
<text text-anchor="middle" x="945" y="-8.5" font-family="Helvetica,sans-Serif" font-size="10.00">ocra&#45;wbi&#45;plugins/ocra&#45;icub&#45;clients/sitting&#45;demo/src/SittingDemoClient.cpp</text>
</a>
</g>
<!-- Node18&#45;&gt;Node20 -->
<g id="edge44" class="edge"><title>Node18&#45;&gt;Node20</title>
<path fill="none" stroke="midnightblue" d="M1049.53,-54.6153C1025.02,-44.3889 992.642,-30.8796 970.454,-21.6212"/>
<polygon fill="midnightblue" stroke="midnightblue" points="1048.25,-57.8758 1058.83,-58.4966 1050.95,-51.4156 1048.25,-57.8758"/>
</g>
<!-- Node21&#45;&gt;Node22 -->
<g id="edge50" class="edge"><title>Node21&#45;&gt;Node22</title>
<path fill="none" stroke="midnightblue" d="M1540.66,-56.7943C1479.58,-46.3447 1392.56,-31.4559 1334.51,-21.5231"/>
<polygon fill="midnightblue" stroke="midnightblue" points="1540.16,-60.26 1550.61,-58.4966 1541.34,-53.3603 1540.16,-60.26"/>
</g>
<!-- Node23 -->
<g id="node49" class="node"><title>Node23</title>
<a xlink:href="StandingDemoClient_8cpp.html" target="_top" xlink:title="ocra&#45;wbi&#45;plugins/ocra&#45;icub&#45;clients/standing&#45;demo/src/StandingDemoClient.cpp">
<polygon fill="white" stroke="black" points="1434,-0.5 1434,-21.5 1790,-21.5 1790,-0.5 1434,-0.5"/>
<text text-anchor="middle" x="1612" y="-8.5" font-family="Helvetica,sans-Serif" font-size="10.00">ocra&#45;wbi&#45;plugins/ocra&#45;icub&#45;clients/standing&#45;demo/src/StandingDemoClient.cpp</text>
</a>
</g>
<!-- Node21&#45;&gt;Node23 -->
<g id="edge52" class="edge"><title>Node21&#45;&gt;Node23</title>
<path fill="none" stroke="midnightblue" d="M1612,-48.1906C1612,-39.1684 1612,-28.9941 1612,-21.5707"/>
<polygon fill="midnightblue" stroke="midnightblue" points="1608.5,-48.3619 1612,-58.3619 1615.5,-48.3619 1608.5,-48.3619"/>
</g>
<!-- Node24&#45;&gt;Node25 -->
<g id="edge58" class="edge"><title>Node24&#45;&gt;Node25</title>
<path fill="none" stroke="midnightblue" d="M2665,-48.1906C2665,-39.1684 2665,-28.9941 2665,-21.5707"/>
<polygon fill="midnightblue" stroke="midnightblue" points="2661.5,-48.3619 2665,-58.3619 2668.5,-48.3619 2661.5,-48.3619"/>
</g>
<!-- Node26 -->
<g id="node56" class="node"><title>Node26</title>
<a xlink:href="SteppingDemoClient_8cpp.html" target="_top" xlink:title="ocra&#45;wbi&#45;plugins/ocra&#45;icub&#45;clients/stepping&#45;demo/src/SteppingDemoClient.cpp">
<polygon fill="white" stroke="black" points="2848,-0.5 2848,-21.5 3204,-21.5 3204,-0.5 2848,-0.5"/>
<text text-anchor="middle" x="3026" y="-8.5" font-family="Helvetica,sans-Serif" font-size="10.00">ocra&#45;wbi&#45;plugins/ocra&#45;icub&#45;clients/stepping&#45;demo/src/SteppingDemoClient.cpp</text>
</a>
</g>
<!-- Node24&#45;&gt;Node26 -->
<g id="edge60" class="edge"><title>Node24&#45;&gt;Node26</title>
<path fill="none" stroke="midnightblue" d="M2740.57,-56.8589C2805.63,-46.4061 2898.55,-31.4764 2960.5,-21.5231"/>
<polygon fill="midnightblue" stroke="midnightblue" points="2739.69,-53.4546 2730.37,-58.4966 2740.8,-60.3659 2739.69,-53.4546"/>
</g>
<!-- Node27&#45;&gt;Node28 -->
<g id="edge66" class="edge"><title>Node27&#45;&gt;Node28</title>
<path fill="none" stroke="midnightblue" d="M3373.11,-51.405C3383.69,-41.6683 3396.48,-29.8914 3405.52,-21.5707"/>
<polygon fill="midnightblue" stroke="midnightblue" points="3370.54,-49.0138 3365.56,-58.3619 3375.28,-54.1637 3370.54,-49.0138"/>
</g>
<!-- Node29 -->
<g id="node63" class="node"><title>Node29</title>
<a xlink:href="TaskOpsClient_8cpp.html" target="_top" xlink:title="ocra&#45;wbi&#45;plugins/ocra&#45;icub&#45;clients/task&#45;operations&#45;demo/src/TaskOpsClient.cpp">
<polygon fill="white" stroke="black" points="3630,-0.5 3630,-21.5 3992,-21.5 3992,-0.5 3630,-0.5"/>
<text text-anchor="middle" x="3811" y="-8.5" font-family="Helvetica,sans-Serif" font-size="10.00">ocra&#45;wbi&#45;plugins/ocra&#45;icub&#45;clients/task&#45;operations&#45;demo/src/TaskOpsClient.cpp</text>
</a>
</g>
<!-- Node27&#45;&gt;Node29 -->
<g id="edge68" class="edge"><title>Node27&#45;&gt;Node29</title>
<path fill="none" stroke="midnightblue" d="M3446.88,-57.2121C3529.36,-46.7446 3648.77,-31.589 3728.09,-21.5231"/>
<polygon fill="midnightblue" stroke="midnightblue" points="3446.24,-53.7654 3436.76,-58.4966 3447.12,-60.7097 3446.24,-53.7654"/>
</g>
<!-- Node30&#45;&gt;Node14 -->
<g id="edge78" class="edge"><title>Node30&#45;&gt;Node14</title>
<path fill="none" stroke="midnightblue" d="M2239.22,-287.426C2259.95,-280.458 2280.84,-269.923 2296,-254 2327.74,-220.666 2333.08,-161.902 2333.9,-137.787"/>
<polygon fill="midnightblue" stroke="midnightblue" points="2237.92,-284.166 2229.41,-290.476 2240,-290.851 2237.92,-284.166"/>
</g>
<!-- Node30&#45;&gt;Node31 -->
<g id="edge80" class="edge"><title>Node30&#45;&gt;Node31</title>
<path fill="none" stroke="midnightblue" d="M2099.6,-288.535C2046.52,-278.099 1971.63,-263.374 1921.52,-253.523"/>
<polygon fill="midnightblue" stroke="midnightblue" points="2099.09,-292.002 2109.58,-290.497 2100.44,-285.133 2099.09,-292.002"/>
</g>
<!-- Node37 -->
<g id="node86" class="node"><title>Node37</title>
<a xlink:href="OcraWbiConversions_8cpp.html" target="_top" xlink:title="A utility class full of static conversion functions.">
<polygon fill="white" stroke="black" points="2026.5,-232.5 2026.5,-253.5 2287.5,-253.5 2287.5,-232.5 2026.5,-232.5"/>
<text text-anchor="middle" x="2157" y="-240.5" font-family="Helvetica,sans-Serif" font-size="10.00">ocra&#45;wbi&#45;plugins/ocra&#45;icub/src/OcraWbiConversions.cpp</text>
</a>
</g>
<!-- Node30&#45;&gt;Node37 -->
<g id="edge98" class="edge"><title>Node30&#45;&gt;Node37</title>
<path fill="none" stroke="midnightblue" d="M2160.85,-280.191C2159.91,-271.168 2158.86,-260.994 2158.09,-253.571"/>
<polygon fill="midnightblue" stroke="midnightblue" points="2157.39,-280.775 2161.9,-290.362 2164.35,-280.055 2157.39,-280.775"/>
</g>
<!-- Node31&#45;&gt;Node14 -->
<g id="edge88" class="edge"><title>Node31&#45;&gt;Node14</title>
<path fill="none" stroke="midnightblue" d="M2000.02,-231.477C2083.74,-223.034 2183.63,-210.542 2224,-196 2262.39,-182.172 2301.48,-153.405 2321.09,-137.736"/>
<polygon fill="midnightblue" stroke="midnightblue" points="1999.5,-228.011 1989.89,-232.486 2000.19,-234.977 1999.5,-228.011"/>
</g>
<!-- Node32 -->
<g id="node73" class="node"><title>Node32</title>
<a xlink:href="IcubControllerServer_8h.html" target="_top" xlink:title="ocra&#45;wbi&#45;plugins/ocra&#45;icub&#45;server/include/ocra&#45;icub&#45;server/IcubControllerServer.h">
<polygon fill="white" stroke="black" points="1200.5,-174.5 1200.5,-195.5 1567.5,-195.5 1567.5,-174.5 1200.5,-174.5"/>
<text text-anchor="middle" x="1384" y="-182.5" font-family="Helvetica,sans-Serif" font-size="10.00">ocra&#45;wbi&#45;plugins/ocra&#45;icub&#45;server/include/ocra&#45;icub&#45;server/IcubControllerServer.h</text>
</a>
</g>
<!-- Node31&#45;&gt;Node32 -->
<g id="edge82" class="edge"><title>Node31&#45;&gt;Node32</title>
<path fill="none" stroke="midnightblue" d="M1770.16,-231.276C1682.8,-220.806 1555.98,-205.61 1471.81,-195.523"/>
<polygon fill="midnightblue" stroke="midnightblue" points="1770.01,-234.782 1780.35,-232.497 1770.84,-227.832 1770.01,-234.782"/>
</g>
<!-- Node34 -->
<g id="node79" class="node"><title>Node34</title>
<a xlink:href="ModelInitializer_8h.html" target="_top" xlink:title="ocra&#45;wbi&#45;plugins/ocra&#45;icub/include/ocra&#45;icub/ModelInitializer.h">
<polygon fill="white" stroke="black" points="1932.5,-174.5 1932.5,-195.5 2215.5,-195.5 2215.5,-174.5 1932.5,-174.5"/>
<text text-anchor="middle" x="2074" y="-182.5" font-family="Helvetica,sans-Serif" font-size="10.00">ocra&#45;wbi&#45;plugins/ocra&#45;icub/include/ocra&#45;icub/ModelInitializer.h</text>
</a>
</g>
<!-- Node31&#45;&gt;Node34 -->
<g id="edge90" class="edge"><title>Node31&#45;&gt;Node34</title>
<path fill="none" stroke="midnightblue" d="M1915.31,-229.68C1952.15,-219.307 2002.58,-205.108 2036.62,-195.523"/>
<polygon fill="midnightblue" stroke="midnightblue" points="1913.98,-226.417 1905.31,-232.497 1915.88,-233.155 1913.98,-226.417"/>
</g>
<!-- Node36 -->
<g id="node84" class="node"><title>Node36</title>
<a xlink:href="OcraWbiModel_8cpp.html" target="_top" xlink:title="Implementation of ocra::Model using wholeBodyInterface.">
<polygon fill="white" stroke="black" points="1682.5,-174.5 1682.5,-195.5 1915.5,-195.5 1915.5,-174.5 1682.5,-174.5"/>
<text text-anchor="middle" x="1799" y="-182.5" font-family="Helvetica,sans-Serif" font-size="10.00">ocra&#45;wbi&#45;plugins/ocra&#45;icub/src/OcraWbiModel.cpp</text>
</a>
</g>
<!-- Node31&#45;&gt;Node36 -->
<g id="edge96" class="edge"><title>Node31&#45;&gt;Node36</title>
<path fill="none" stroke="midnightblue" d="M1847.41,-225.691C1835.76,-215.9 1821.57,-203.973 1811.58,-195.571"/>
<polygon fill="midnightblue" stroke="midnightblue" points="1845.44,-228.607 1855.34,-232.362 1849.94,-223.248 1845.44,-228.607"/>
</g>
<!-- Node32&#45;&gt;Node5 -->
<g id="edge84" class="edge"><title>Node32&#45;&gt;Node5</title>
<path fill="none" stroke="midnightblue" d="M1274.53,-173.435C1175.39,-162.961 1030.56,-147.661 934.606,-137.523"/>
<polygon fill="midnightblue" stroke="midnightblue" points="1274.27,-176.927 1284.58,-174.497 1275,-169.965 1274.27,-176.927"/>
</g>
<!-- Node33 -->
<g id="node76" class="node"><title>Node33</title>
<a xlink:href="IcubControllerServer_8cpp.html" target="_top" xlink:title="ocra&#45;wbi&#45;plugins/ocra&#45;icub&#45;server/src/IcubControllerServer.cpp">
<polygon fill="white" stroke="black" points="1240.5,-116.5 1240.5,-137.5 1527.5,-137.5 1527.5,-116.5 1240.5,-116.5"/>
<text text-anchor="middle" x="1384" y="-124.5" font-family="Helvetica,sans-Serif" font-size="10.00">ocra&#45;wbi&#45;plugins/ocra&#45;icub&#45;server/src/IcubControllerServer.cpp</text>
</a>
</g>
<!-- Node32&#45;&gt;Node33 -->
<g id="edge86" class="edge"><title>Node32&#45;&gt;Node33</title>
<path fill="none" stroke="midnightblue" d="M1384,-164.191C1384,-155.168 1384,-144.994 1384,-137.571"/>
<polygon fill="midnightblue" stroke="midnightblue" points="1380.5,-164.362 1384,-174.362 1387.5,-164.362 1380.5,-164.362"/>
</g>
<!-- Node34&#45;&gt;Node14 -->
<g id="edge92" class="edge"><title>Node34&#45;&gt;Node14</title>
<path fill="none" stroke="midnightblue" d="M2131.05,-172.274C2177.75,-161.855 2243.04,-147.292 2286.83,-137.523"/>
<polygon fill="midnightblue" stroke="midnightblue" points="2130.08,-168.903 2121.08,-174.497 2131.61,-175.735 2130.08,-168.903"/>
</g>
<!-- Node35 -->
<g id="node82" class="node"><title>Node35</title>
<a xlink:href="ModelInitializer_8cpp.html" target="_top" xlink:title="ocra&#45;wbi&#45;plugins/ocra&#45;icub/src/ModelInitializer.cpp">
<polygon fill="white" stroke="black" points="1952.5,-116.5 1952.5,-137.5 2185.5,-137.5 2185.5,-116.5 1952.5,-116.5"/>
<text text-anchor="middle" x="2069" y="-124.5" font-family="Helvetica,sans-Serif" font-size="10.00">ocra&#45;wbi&#45;plugins/ocra&#45;icub/src/ModelInitializer.cpp</text>
</a>
</g>
<!-- Node34&#45;&gt;Node35 -->
<g id="edge94" class="edge"><title>Node34&#45;&gt;Node35</title>
<path fill="none" stroke="midnightblue" d="M2072.21,-164.191C2071.43,-155.168 2070.55,-144.994 2069.91,-137.571"/>
<polygon fill="midnightblue" stroke="midnightblue" points="2068.74,-164.699 2073.08,-174.362 2075.71,-164.098 2068.74,-164.699"/>
</g>
</g>
</svg>
