<?xml version="1.0" encoding="UTF-8" standalone="no"?>
<!DOCTYPE svg PUBLIC "-//W3C//DTD SVG 1.1//EN"
 "http://www.w3.org/Graphics/SVG/1.1/DTD/svg11.dtd">
<!-- Generated by graphviz version 2.26.3 (20100126.1600)
 -->
<!-- Title: G Pages: 1 -->
<svg width="4640pt" height="378pt"
 viewBox="0.00 0.00 4640.00 378.00" xmlns="http://www.w3.org/2000/svg" xmlns:xlink="http://www.w3.org/1999/xlink">
<g id="graph1" class="graph" transform="scale(1 1) rotate(0) translate(4 374)">
<title>G</title>
<polygon fill="white" stroke="white" points="-4,5 -4,-374 4637,-374 4637,5 -4,5"/>
<!-- Node1 -->
<g id="node1" class="node"><title>Node1</title>
<polygon fill="#bfbfbf" stroke="black" points="2435.5,-348.5 2435.5,-369.5 2686.5,-369.5 2686.5,-348.5 2435.5,-348.5"/>
<text text-anchor="middle" x="2561" y="-356.5" font-family="Helvetica,sans-Serif" font-size="10.00">ocra&#45;wbi&#45;plugins/ocra&#45;icub/include/ocra&#45;icub/Utilities.h</text>
</g>
<!-- Node2 -->
<g id="node3" class="node"><title>Node2</title>
<a xlink:href="Module_8h.html" target="_top" xlink:title="Module class for the controller server.">
<polygon fill="white" stroke="black" points="230.5,-58.5 230.5,-79.5 539.5,-79.5 539.5,-58.5 230.5,-58.5"/>
<text text-anchor="middle" x="385" y="-66.5" font-family="Helvetica,sans-Serif" font-size="10.00">ocra&#45;wbi&#45;plugins/ocra&#45;icub&#45;server/include/ocra&#45;icub&#45;server/Module.h</text>
</a>
</g>
<!-- Node1&#45;&gt;Node2 -->
<g id="edge2" class="edge"><title>Node1&#45;&gt;Node2</title>
<path fill="none" stroke="midnightblue" d="M2425.18,-358.407C1968.51,-355.53 517,-338.847 517,-243 517,-243 517,-243 517,-185 517,-130.695 453.183,-95.8269 414.295,-79.6202"/>
<polygon fill="midnightblue" stroke="midnightblue" points="2425.43,-361.909 2435.45,-358.47 2425.47,-354.909 2425.43,-361.909"/>
</g>
<!-- Node5 -->
<g id="node9" class="node"><title>Node5</title>
<a xlink:href="Thread_8h.html" target="_top" xlink:title="The thread class for the controller server.">
<polygon fill="white" stroke="black" points="790,-116.5 790,-137.5 1098,-137.5 1098,-116.5 790,-116.5"/>
<text text-anchor="middle" x="944" y="-124.5" font-family="Helvetica,sans-Serif" font-size="10.00">ocra&#45;wbi&#45;plugins/ocra&#45;icub&#45;server/include/ocra&#45;icub&#45;server/Thread.h</text>
</a>
</g>
<!-- Node1&#45;&gt;Node5 -->
<g id="edge8" class="edge"><title>Node1&#45;&gt;Node5</title>
<path fill="none" stroke="midnightblue" d="M2425.3,-350.783C2177.55,-334.035 1636.27,-289.368 1189,-196 1111.57,-179.837 1022.64,-152.542 976.146,-137.585"/>
<polygon fill="midnightblue" stroke="midnightblue" points="2425.22,-354.285 2435.43,-351.463 2425.69,-347.301 2425.22,-354.285"/>
</g>
<!-- Node7 -->
<g id="node14" class="node"><title>Node7</title>
<a xlink:href="ZmpController_8h.html" target="_top" xlink:title="ocra&#45;wbi&#45;plugins/ocra&#45;icub&#45;clients/walking&#45;client/include/walking&#45;client/ZmpController.h">
<polygon fill="white" stroke="black" points="3184,-290.5 3184,-311.5 3576,-311.5 3576,-290.5 3184,-290.5"/>
<text text-anchor="middle" x="3380" y="-298.5" font-family="Helvetica,sans-Serif" font-size="10.00">ocra&#45;wbi&#45;plugins/ocra&#45;icub&#45;clients/walking&#45;client/include/walking&#45;client/ZmpController.h</text>
</a>
</g>
<!-- Node1&#45;&gt;Node7 -->
<g id="edge14" class="edge"><title>Node1&#45;&gt;Node7</title>
<path fill="none" stroke="midnightblue" d="M2696.76,-349.386C2844.31,-338.936 3079.35,-322.292 3231.66,-311.505"/>
<polygon fill="midnightblue" stroke="midnightblue" points="2696.45,-345.899 2686.73,-350.096 2696.95,-352.881 2696.45,-345.899"/>
</g>
<!-- Node9 -->
<g id="node18" class="node"><title>Node9</title>
<a xlink:href="ZmpPreviewController_8h.html" target="_top" xlink:title="ocra&#45;wbi&#45;plugins/ocra&#45;icub&#45;clients/walking&#45;client/include/walking&#45;client/ZmpPreviewController.h">
<polygon fill="white" stroke="black" points="2738,-290.5 2738,-311.5 3166,-311.5 3166,-290.5 2738,-290.5"/>
<text text-anchor="middle" x="2952" y="-298.5" font-family="Helvetica,sans-Serif" font-size="10.00">ocra&#45;wbi&#45;plugins/ocra&#45;icub&#45;clients/walking&#45;client/include/walking&#45;client/ZmpPreviewController.h</text>
</a>
</g>
<!-- Node1&#45;&gt;Node9 -->
<g id="edge18" class="edge"><title>Node1&#45;&gt;Node9</title>
<path fill="none" stroke="midnightblue" d="M2641.98,-346.988C2712.49,-336.529 2813.68,-321.517 2881.06,-311.523"/>
<polygon fill="midnightblue" stroke="midnightblue" points="2641.19,-343.567 2631.81,-348.497 2642.21,-350.491 2641.19,-343.567"/>
</g>
<!-- Node14 -->
<g id="node28" class="node"><title>Node14</title>
<a xlink:href="IcubClient_8h.html" target="_top" xlink:title="ocra&#45;wbi&#45;plugins/ocra&#45;icub/include/ocra&#45;icub/IcubClient.h">
<polygon fill="white" stroke="black" points="2087,-116.5 2087,-137.5 2349,-137.5 2349,-116.5 2087,-116.5"/>
<text text-anchor="middle" x="2218" y="-124.5" font-family="Helvetica,sans-Serif" font-size="10.00">ocra&#45;wbi&#45;plugins/ocra&#45;icub/include/ocra&#45;icub/IcubClient.h</text>
</a>
</g>
<!-- Node1&#45;&gt;Node14 -->
<g id="edge28" class="edge"><title>Node1&#45;&gt;Node14</title>
<path fill="none" stroke="midnightblue" d="M2572.22,-339.297C2591.77,-302.053 2626.25,-220.868 2585,-174 2576.43,-164.266 2432.61,-148.108 2327.6,-137.506"/>
<polygon fill="midnightblue" stroke="midnightblue" points="2569.09,-337.714 2567.4,-348.172 2575.25,-341.054 2569.09,-337.714"/>
</g>
<!-- Node30 -->
<g id="node67" class="node"><title>Node30</title>
<a xlink:href="OcraWbiConversions_8h.html" target="_top" xlink:title="A utility class full of static conversion functions.">
<polygon fill="white" stroke="black" points="2038.5,-290.5 2038.5,-311.5 2349.5,-311.5 2349.5,-290.5 2038.5,-290.5"/>
<text text-anchor="middle" x="2194" y="-298.5" font-family="Helvetica,sans-Serif" font-size="10.00">ocra&#45;wbi&#45;plugins/ocra&#45;icub/include/ocra&#45;icub/OcraWbiConversions.h</text>
</a>
</g>
<!-- Node1&#45;&gt;Node30 -->
<g id="edge74" class="edge"><title>Node1&#45;&gt;Node30</title>
<path fill="none" stroke="midnightblue" d="M2484.58,-346.923C2418.42,-336.468 2323.7,-321.497 2260.59,-311.523"/>
<polygon fill="midnightblue" stroke="midnightblue" points="2484.12,-350.393 2494.54,-348.497 2485.21,-343.478 2484.12,-350.393"/>
</g>
<!-- Node31 -->
<g id="node70" class="node"><title>Node31</title>
<a xlink:href="OcraWbiModel_8h.html" target="_top" xlink:title="Implementation of ocra::Model using wholeBodyInterface.">
<polygon fill="white" stroke="black" points="2289,-232.5 2289,-253.5 2571,-253.5 2571,-232.5 2289,-232.5"/>
<text text-anchor="middle" x="2430" y="-240.5" font-family="Helvetica,sans-Serif" font-size="10.00">ocra&#45;wbi&#45;plugins/ocra&#45;icub/include/ocra&#45;icub/OcraWbiModel.h</text>
</a>
</g>
<!-- Node1&#45;&gt;Node31 -->
<g id="edge104" class="edge"><title>Node1&#45;&gt;Node31</title>
<path fill="none" stroke="midnightblue" d="M2541.1,-341.379C2513.56,-316.988 2464.65,-273.686 2442.06,-253.679"/>
<polygon fill="midnightblue" stroke="midnightblue" points="2539.1,-344.286 2548.91,-348.295 2543.74,-339.045 2539.1,-344.286"/>
</g>
<!-- Node40 -->
<g id="node93" class="node"><title>Node40</title>
<a xlink:href="Utilities_8cpp.html" target="_top" xlink:title="Some useful tools for the ocra&#45;icub lib.">
<polygon fill="white" stroke="black" points="3593.5,-290.5 3593.5,-311.5 3794.5,-311.5 3794.5,-290.5 3593.5,-290.5"/>
<text text-anchor="middle" x="3694" y="-298.5" font-family="Helvetica,sans-Serif" font-size="10.00">ocra&#45;wbi&#45;plugins/ocra&#45;icub/src/Utilities.cpp</text>
</a>
</g>
<!-- Node1&#45;&gt;Node40 -->
<g id="edge106" class="edge"><title>Node1&#45;&gt;Node40</title>
<path fill="none" stroke="midnightblue" d="M2696.92,-355.128C2893.19,-349 3267.27,-335.306 3585,-312 3587.75,-311.798 3590.54,-311.584 3593.35,-311.359"/>
<polygon fill="midnightblue" stroke="midnightblue" points="2696.74,-351.632 2686.85,-355.441 2696.95,-358.629 2696.74,-351.632"/>
</g>
<!-- Node3 -->
<g id="node5" class="node"><title>Node3</title>
<a xlink:href="ocra-icub-server_2src_2main_8cpp.html" target="_top" xlink:title="ocra&#45;wbi&#45;plugins/ocra&#45;icub&#45;server/src/main.cpp">
<polygon fill="white" stroke="black" points="-0.5,-0.5 -0.5,-21.5 218.5,-21.5 218.5,-0.5 -0.5,-0.5"/>
<text text-anchor="middle" x="109" y="-8.5" font-family="Helvetica,sans-Serif" font-size="10.00">ocra&#45;wbi&#45;plugins/ocra&#45;icub&#45;server/src/main.cpp</text>
</a>
</g>
<!-- Node2&#45;&gt;Node3 -->
<g id="edge4" class="edge"><title>Node2&#45;&gt;Node3</title>
<path fill="none" stroke="midnightblue" d="M325.063,-56.4045C275.442,-45.977 205.757,-31.333 159.075,-21.5231"/>
<polygon fill="midnightblue" stroke="midnightblue" points="324.512,-59.8652 335.018,-58.4966 325.952,-53.0148 324.512,-59.8652"/>
</g>
<!-- Node4 -->
<g id="node7" class="node"><title>Node4</title>
<a xlink:href="Module_8cpp.html" target="_top" xlink:title="ocra&#45;wbi&#45;plugins/ocra&#45;icub&#45;server/src/Module.cpp">
<polygon fill="white" stroke="black" points="236,-0.5 236,-21.5 466,-21.5 466,-0.5 236,-0.5"/>
<text text-anchor="middle" x="351" y="-8.5" font-family="Helvetica,sans-Serif" font-size="10.00">ocra&#45;wbi&#45;plugins/ocra&#45;icub&#45;server/src/Module.cpp</text>
</a>
</g>
<!-- Node2&#45;&gt;Node4 -->
<g id="edge6" class="edge"><title>Node2&#45;&gt;Node4</title>
<path fill="none" stroke="midnightblue" d="M373.667,-49.6667C368.173,-40.2948 361.787,-29.4019 357.197,-21.5707"/>
<polygon fill="midnightblue" stroke="midnightblue" points="370.687,-51.5049 378.764,-58.3619 376.726,-47.9649 370.687,-51.5049"/>
</g>
<!-- Node5&#45;&gt;Node2 -->
<g id="edge10" class="edge"><title>Node5&#45;&gt;Node2</title>
<path fill="none" stroke="midnightblue" d="M832.537,-115.435C731.587,-104.961 584.127,-89.6607 486.421,-79.5231"/>
<polygon fill="midnightblue" stroke="midnightblue" points="832.461,-118.946 842.769,-116.497 833.184,-111.983 832.461,-118.946"/>
</g>
<!-- Node6 -->
<g id="node12" class="node"><title>Node6</title>
<a xlink:href="Thread_8cpp.html" target="_top" xlink:title="The thread class for the controller server.">
<polygon fill="white" stroke="black" points="577,-58.5 577,-79.5 805,-79.5 805,-58.5 577,-58.5"/>
<text text-anchor="middle" x="691" y="-66.5" font-family="Helvetica,sans-Serif" font-size="10.00">ocra&#45;wbi&#45;plugins/ocra&#45;icub&#45;server/src/Thread.cpp</text>
</a>
</g>
<!-- Node5&#45;&gt;Node6 -->
<g id="edge12" class="edge"><title>Node5&#45;&gt;Node6</title>
<path fill="none" stroke="midnightblue" d="M888.201,-114.208C842.773,-103.794 779.426,-89.2716 736.902,-79.5231"/>
<polygon fill="midnightblue" stroke="midnightblue" points="887.654,-117.674 898.184,-116.497 889.219,-110.851 887.654,-117.674"/>
</g>
<!-- Node8 -->
<g id="node16" class="node"><title>Node8</title>
<a xlink:href="ZmpController_8cpp.html" target="_top" xlink:title="ocra&#45;wbi&#45;plugins/ocra&#45;icub&#45;clients/walking&#45;client/src/ZmpController.cpp">
<polygon fill="white" stroke="black" points="3461.5,-232.5 3461.5,-253.5 3784.5,-253.5 3784.5,-232.5 3461.5,-232.5"/>
<text text-anchor="middle" x="3623" y="-240.5" font-family="Helvetica,sans-Serif" font-size="10.00">ocra&#45;wbi&#45;plugins/ocra&#45;icub&#45;clients/walking&#45;client/src/ZmpController.cpp</text>
</a>
</g>
<!-- Node7&#45;&gt;Node8 -->
<g id="edge16" class="edge"><title>Node7&#45;&gt;Node8</title>
<path fill="none" stroke="midnightblue" d="M3433.87,-288.142C3477.48,-277.733 3538.15,-263.251 3578.91,-253.523"/>
<polygon fill="midnightblue" stroke="midnightblue" points="3432.92,-284.771 3424.01,-290.497 3434.54,-291.579 3432.92,-284.771"/>
</g>
<!-- Node10 -->
<g id="node20" class="node"><title>Node10</title>
<a xlink:href="WalkingClient_8h.html" target="_top" xlink:title="ocra&#45;wbi&#45;plugins/ocra&#45;icub&#45;clients/walking&#45;client/include/walking&#45;client/WalkingClient.h">
<polygon fill="white" stroke="black" points="3672,-58.5 3672,-79.5 4064,-79.5 4064,-58.5 3672,-58.5"/>
<text text-anchor="middle" x="3868" y="-66.5" font-family="Helvetica,sans-Serif" font-size="10.00">ocra&#45;wbi&#45;plugins/ocra&#45;icub&#45;clients/walking&#45;client/include/walking&#45;client/WalkingClient.h</text>
</a>
</g>
<!-- Node9&#45;&gt;Node10 -->
<g id="edge20" class="edge"><title>Node9&#45;&gt;Node10</title>
<path fill="none" stroke="midnightblue" d="M2976.03,-284.85C3000.46,-269.144 3039.89,-245.708 3077,-232 3317.7,-143.101 3618.47,-98.0067 3770.44,-79.5174"/>
<polygon fill="midnightblue" stroke="midnightblue" points="2973.91,-282.059 2967.44,-290.454 2977.73,-287.922 2973.91,-282.059"/>
</g>
<!-- Node13 -->
<g id="node26" class="node"><title>Node13</title>
<a xlink:href="ZmpPreviewController_8cpp.html" target="_top" xlink:title="ocra&#45;wbi&#45;plugins/ocra&#45;icub&#45;clients/walking&#45;client/src/ZmpPreviewController.cpp">
<polygon fill="white" stroke="black" points="3085.5,-232.5 3085.5,-253.5 3444.5,-253.5 3444.5,-232.5 3085.5,-232.5"/>
<text text-anchor="middle" x="3265" y="-240.5" font-family="Helvetica,sans-Serif" font-size="10.00">ocra&#45;wbi&#45;plugins/ocra&#45;icub&#45;clients/walking&#45;client/src/ZmpPreviewController.cpp</text>
</a>
</g>
<!-- Node9&#45;&gt;Node13 -->
<g id="edge26" class="edge"><title>Node9&#45;&gt;Node13</title>
<path fill="none" stroke="midnightblue" d="M3018.57,-288.665C3074.92,-278.222 3154.83,-263.415 3208.21,-253.523"/>
<polygon fill="midnightblue" stroke="midnightblue" points="3017.88,-285.233 3008.68,-290.497 3019.15,-292.116 3017.88,-285.233"/>
</g>
<!-- Node11 -->
<g id="node22" class="node"><title>Node11</title>
<a xlink:href="ocra-icub-clients_2walking-client_2src_2main_8cpp.html" target="_top" xlink:title="ocra&#45;wbi&#45;plugins/ocra&#45;icub&#45;clients/walking&#45;client/src/main.cpp">
<polygon fill="white" stroke="black" points="4009.5,-0.5 4009.5,-21.5 4292.5,-21.5 4292.5,-0.5 4009.5,-0.5"/>
<text text-anchor="middle" x="4151" y="-8.5" font-family="Helvetica,sans-Serif" font-size="10.00">ocra&#45;wbi&#45;plugins/ocra&#45;icub&#45;clients/walking&#45;client/src/main.cpp</text>
</a>
</g>
<!-- Node10&#45;&gt;Node11 -->
<g id="edge22" class="edge"><title>Node10&#45;&gt;Node11</title>
<path fill="none" stroke="midnightblue" d="M3929.14,-56.4697C3980.04,-46.0382 4051.69,-31.3535 4099.65,-21.5231"/>
<polygon fill="midnightblue" stroke="midnightblue" points="3928.34,-53.0601 3919.25,-58.4966 3929.75,-59.9176 3928.34,-53.0601"/>
</g>
<!-- Node12 -->
<g id="node24" class="node"><title>Node12</title>
<a xlink:href="WalkingClient_8cpp.html" target="_top" xlink:title="ocra&#45;wbi&#45;plugins/ocra&#45;icub&#45;clients/walking&#45;client/src/WalkingClient.cpp">
<polygon fill="white" stroke="black" points="4309.5,-0.5 4309.5,-21.5 4632.5,-21.5 4632.5,-0.5 4309.5,-0.5"/>
<text text-anchor="middle" x="4471" y="-8.5" font-family="Helvetica,sans-Serif" font-size="10.00">ocra&#45;wbi&#45;plugins/ocra&#45;icub&#45;clients/walking&#45;client/src/WalkingClient.cpp</text>
</a>
</g>
<!-- Node10&#45;&gt;Node12 -->
<g id="edge24" class="edge"><title>Node10&#45;&gt;Node12</title>
<path fill="none" stroke="midnightblue" d="M3987.25,-57.53C4096.17,-47.0535 4255.88,-31.6914 4361.6,-21.5231"/>
<polygon fill="midnightblue" stroke="midnightblue" points="3986.82,-54.0552 3977.2,-58.4966 3987.49,-61.023 3986.82,-54.0552"/>
</g>
<!-- Node14&#45;&gt;Node10 -->
<g id="edge70" class="edge"><title>Node14&#45;&gt;Node10</title>
<path fill="none" stroke="midnightblue" d="M2359.4,-115.951C2936.9,-85.5596 3083.85,-102.984 3658,-80 3662.56,-79.8175 3667.18,-79.6265 3671.83,-79.4285"/>
<polygon fill="midnightblue" stroke="midnightblue" points="2358.94,-112.47 2349.14,-116.493 2359.31,-119.46 2358.94,-112.47"/>
</g>
<!-- Node14&#45;&gt;Node11 -->
<g id="edge72" class="edge"><title>Node14&#45;&gt;Node11</title>
<path fill="none" stroke="midnightblue" d="M2359.39,-116.025C2538.92,-108.871 3492.3,-117.671 3625,-80 3643.77,-74.6707 3644.42,-63.9608 3663,-58 3695.39,-47.609 3877.65,-31.8659 4009.96,-21.5083"/>
<polygon fill="midnightblue" stroke="midnightblue" points="2358.97,-112.54 2349.14,-116.496 2359.29,-119.533 2358.97,-112.54"/>
</g>
<!-- Node15 -->
<g id="node30" class="node"><title>Node15</title>
<a xlink:href="ExampleClient_8h.html" target="_top" xlink:title="ocra&#45;wbi&#45;plugins/ocra&#45;icub&#45;clients/example&#45;client/include/example&#45;client/ExampleClient.h">
<polygon fill="white" stroke="black" points="3214,-58.5 3214,-79.5 3616,-79.5 3616,-58.5 3214,-58.5"/>
<text text-anchor="middle" x="3415" y="-66.5" font-family="Helvetica,sans-Serif" font-size="10.00">ocra&#45;wbi&#45;plugins/ocra&#45;icub&#45;clients/example&#45;client/include/example&#45;client/ExampleClient.h</text>
</a>
</g>
<!-- Node14&#45;&gt;Node15 -->
<g id="edge30" class="edge"><title>Node14&#45;&gt;Node15</title>
<path fill="none" stroke="midnightblue" d="M2359.38,-115.939C2535.62,-105.405 2959.76,-87.5338 3213.8,-77.1297"/>
<polygon fill="midnightblue" stroke="midnightblue" points="2358.92,-112.461 2349.15,-116.56 2359.34,-119.448 2358.92,-112.461"/>
</g>
<!-- Node16 -->
<g id="node32" class="node"><title>Node16</title>
<a xlink:href="example-client_8cpp.html" target="_top" xlink:title="ocra&#45;wbi&#45;plugins/ocra&#45;icub&#45;clients/example&#45;client/src/example&#45;client.cpp">
<polygon fill="white" stroke="black" points="3317.5,-0.5 3317.5,-21.5 3646.5,-21.5 3646.5,-0.5 3317.5,-0.5"/>
<text text-anchor="middle" x="3482" y="-8.5" font-family="Helvetica,sans-Serif" font-size="10.00">ocra&#45;wbi&#45;plugins/ocra&#45;icub&#45;clients/example&#45;client/src/example&#45;client.cpp</text>
</a>
</g>
<!-- Node14&#45;&gt;Node16 -->
<g id="edge36" class="edge"><title>Node14&#45;&gt;Node16</title>
<path fill="none" stroke="midnightblue" d="M2359.27,-115.927C2629.76,-97.6012 2699.84,-105.64 2966,-80 3127.94,-64.4002 3317.25,-36.6251 3415.39,-21.5085"/>
<polygon fill="midnightblue" stroke="midnightblue" points="2358.89,-112.444 2349.15,-116.618 2359.37,-119.428 2358.89,-112.444"/>
</g>
<!-- Node18 -->
<g id="node37" class="node"><title>Node18</title>
<a xlink:href="SittingDemoClient_8h.html" target="_top" xlink:title="ocra&#45;wbi&#45;plugins/ocra&#45;icub&#45;clients/sitting&#45;demo/include/sitting&#45;demo/SittingDemoClient.h">
<polygon fill="white" stroke="black" points="861,-58.5 861,-79.5 1259,-79.5 1259,-58.5 861,-58.5"/>
<text text-anchor="middle" x="1060" y="-66.5" font-family="Helvetica,sans-Serif" font-size="10.00">ocra&#45;wbi&#45;plugins/ocra&#45;icub&#45;clients/sitting&#45;demo/include/sitting&#45;demo/SittingDemoClient.h</text>
</a>
</g>
<!-- Node14&#45;&gt;Node18 -->
<g id="edge38" class="edge"><title>Node14&#45;&gt;Node18</title>
<path fill="none" stroke="midnightblue" d="M2076.64,-119.92C1871.91,-109.666 1491.98,-90.6365 1259.02,-78.9683"/>
<polygon fill="midnightblue" stroke="midnightblue" points="2076.69,-123.427 2086.85,-120.431 2077.04,-116.435 2076.69,-123.427"/>
</g>
<!-- Node19 -->
<g id="node39" class="node"><title>Node19</title>
<a xlink:href="ocra-icub-clients_2sitting-demo_2src_2main_8cpp.html" target="_top" xlink:title="ocra&#45;wbi&#45;plugins/ocra&#45;icub&#45;clients/sitting&#45;demo/src/main.cpp">
<polygon fill="white" stroke="black" points="483.5,-0.5 483.5,-21.5 760.5,-21.5 760.5,-0.5 483.5,-0.5"/>
<text text-anchor="middle" x="622" y="-8.5" font-family="Helvetica,sans-Serif" font-size="10.00">ocra&#45;wbi&#45;plugins/ocra&#45;icub&#45;clients/sitting&#45;demo/src/main.cpp</text>
</a>
</g>
<!-- Node14&#45;&gt;Node19 -->
<g id="edge44" class="edge"><title>Node14&#45;&gt;Node19</title>
<path fill="none" stroke="midnightblue" d="M2076.62,-123.984C1739.11,-116.535 910.022,-96.6591 852,-80 833.243,-74.6145 832.105,-65.2826 814,-58 771.973,-41.0953 722.24,-29.1277 683.921,-21.5003"/>
<polygon fill="midnightblue" stroke="midnightblue" points="2076.87,-127.491 2086.95,-124.212 2077.03,-120.492 2076.87,-127.491"/>
</g>
<!-- Node21 -->
<g id="node44" class="node"><title>Node21</title>
<a xlink:href="StandingDemoClient_8h.html" target="_top" xlink:title="ocra&#45;wbi&#45;plugins/ocra&#45;icub&#45;clients/standing&#45;demo/include/standing&#45;demo/StandingDemoClient.h">
<polygon fill="white" stroke="black" points="1397,-58.5 1397,-79.5 1827,-79.5 1827,-58.5 1397,-58.5"/>
<text text-anchor="middle" x="1612" y="-66.5" font-family="Helvetica,sans-Serif" font-size="10.00">ocra&#45;wbi&#45;plugins/ocra&#45;icub&#45;clients/standing&#45;demo/include/standing&#45;demo/StandingDemoClient.h</text>
</a>
</g>
<!-- Node14&#45;&gt;Node21 -->
<g id="edge46" class="edge"><title>Node14&#45;&gt;Node21</title>
<path fill="none" stroke="midnightblue" d="M2098.16,-115.53C1988.7,-105.054 1828.19,-89.6914 1721.95,-79.5231"/>
<polygon fill="midnightblue" stroke="midnightblue" points="2097.97,-119.028 2108.26,-116.497 2098.64,-112.06 2097.97,-119.028"/>
</g>
<!-- Node22 -->
<g id="node46" class="node"><title>Node22</title>
<a xlink:href="ocra-icub-clients_2standing-demo_2src_2main_8cpp.html" target="_top" xlink:title="ocra&#45;wbi&#45;plugins/ocra&#45;icub&#45;clients/standing&#45;demo/src/main.cpp">
<polygon fill="white" stroke="black" points="1129.5,-0.5 1129.5,-21.5 1416.5,-21.5 1416.5,-0.5 1129.5,-0.5"/>
<text text-anchor="middle" x="1273" y="-8.5" font-family="Helvetica,sans-Serif" font-size="10.00">ocra&#45;wbi&#45;plugins/ocra&#45;icub&#45;clients/standing&#45;demo/src/main.cpp</text>
</a>
</g>
<!-- Node14&#45;&gt;Node22 -->
<g id="edge52" class="edge"><title>Node14&#45;&gt;Node22</title>
<path fill="none" stroke="midnightblue" d="M2076.72,-122.693C1856.98,-115.439 1451.81,-99.6337 1388,-80 1347.28,-67.4697 1306.01,-37.5947 1285.79,-21.5755"/>
<polygon fill="midnightblue" stroke="midnightblue" points="2076.61,-126.191 2086.72,-123.022 2076.84,-119.195 2076.61,-126.191"/>
</g>
<!-- Node24 -->
<g id="node51" class="node"><title>Node24</title>
<a xlink:href="SteppingDemoClient_8h.html" target="_top" xlink:title="ocra&#45;wbi&#45;plugins/ocra&#45;icub&#45;clients/stepping&#45;demo/include/stepping&#45;demo/SteppingDemoClient.h">
<polygon fill="white" stroke="black" points="2003,-58.5 2003,-79.5 2433,-79.5 2433,-58.5 2003,-58.5"/>
<text text-anchor="middle" x="2218" y="-66.5" font-family="Helvetica,sans-Serif" font-size="10.00">ocra&#45;wbi&#45;plugins/ocra&#45;icub&#45;clients/stepping&#45;demo/include/stepping&#45;demo/SteppingDemoClient.h</text>
</a>
</g>
<!-- Node14&#45;&gt;Node24 -->
<g id="edge54" class="edge"><title>Node14&#45;&gt;Node24</title>
<path fill="none" stroke="midnightblue" d="M2218,-106.191C2218,-97.1684 2218,-86.9941 2218,-79.5707"/>
<polygon fill="midnightblue" stroke="midnightblue" points="2214.5,-106.362 2218,-116.362 2221.5,-106.362 2214.5,-106.362"/>
</g>
<!-- Node25 -->
<g id="node53" class="node"><title>Node25</title>
<a xlink:href="stepping-demo_8cpp.html" target="_top" xlink:title="ocra&#45;wbi&#45;plugins/ocra&#45;icub&#45;clients/stepping&#45;demo/src/stepping&#45;demo.cpp">
<polygon fill="white" stroke="black" points="1808,-0.5 1808,-21.5 2138,-21.5 2138,-0.5 1808,-0.5"/>
<text text-anchor="middle" x="1973" y="-8.5" font-family="Helvetica,sans-Serif" font-size="10.00">ocra&#45;wbi&#45;plugins/ocra&#45;icub&#45;clients/stepping&#45;demo/src/stepping&#45;demo.cpp</text>
</a>
</g>
<!-- Node14&#45;&gt;Node25 -->
<g id="edge60" class="edge"><title>Node14&#45;&gt;Node25</title>
<path fill="none" stroke="midnightblue" d="M2110.67,-114.968C2062.09,-107.469 2011.62,-96.1243 1994,-80 1977.37,-64.7841 1973.75,-36.853 1973.06,-21.61"/>
<polygon fill="midnightblue" stroke="midnightblue" points="2110.26,-118.446 2120.67,-116.463 2111.3,-111.523 2110.26,-118.446"/>
</g>
<!-- Node27 -->
<g id="node58" class="node"><title>Node27</title>
<a xlink:href="TaskOpsClient_8h.html" target="_top" xlink:title="ocra&#45;wbi&#45;plugins/ocra&#45;icub&#45;clients/task&#45;operations&#45;demo/include/task&#45;operations&#45;demo/TaskOpsClient.h">
<polygon fill="white" stroke="black" points="2492.5,-58.5 2492.5,-79.5 2957.5,-79.5 2957.5,-58.5 2492.5,-58.5"/>
<text text-anchor="middle" x="2725" y="-66.5" font-family="Helvetica,sans-Serif" font-size="10.00">ocra&#45;wbi&#45;plugins/ocra&#45;icub&#45;clients/task&#45;operations&#45;demo/include/task&#45;operations&#45;demo/TaskOpsClient.h</text>
</a>
</g>
<!-- Node14&#45;&gt;Node27 -->
<g id="edge62" class="edge"><title>Node14&#45;&gt;Node27</title>
<path fill="none" stroke="midnightblue" d="M2319.93,-115.34C2411.46,-104.868 2544.67,-89.63 2633.01,-79.5231"/>
<polygon fill="midnightblue" stroke="midnightblue" points="2319.35,-111.883 2309.81,-116.497 2320.15,-118.837 2319.35,-111.883"/>
</g>
<!-- Node28 -->
<g id="node60" class="node"><title>Node28</title>
<a xlink:href="task-operations-demo_8cpp.html" target="_top" xlink:title="ocra&#45;wbi&#45;plugins/ocra&#45;icub&#45;clients/task&#45;operations&#45;demo/src/task&#45;operations&#45;demo.cpp">
<polygon fill="white" stroke="black" points="2530,-0.5 2530,-21.5 2920,-21.5 2920,-0.5 2530,-0.5"/>
<text text-anchor="middle" x="2725" y="-8.5" font-family="Helvetica,sans-Serif" font-size="10.00">ocra&#45;wbi&#45;plugins/ocra&#45;icub&#45;clients/task&#45;operations&#45;demo/src/task&#45;operations&#45;demo.cpp</text>
</a>
</g>
<!-- Node14&#45;&gt;Node28 -->
<g id="edge68" class="edge"><title>Node14&#45;&gt;Node28</title>
<path fill="none" stroke="midnightblue" d="M2303.6,-114.746C2346,-107.249 2397.51,-95.972 2442,-80 2461.83,-72.88 2464.12,-64.9789 2484,-58 2534.18,-40.3879 2592.68,-28.7799 2639.48,-21.5065"/>
<polygon fill="midnightblue" stroke="midnightblue" points="2302.84,-111.324 2293.58,-116.476 2304.03,-118.222 2302.84,-111.324"/>
</g>
<!-- Node15&#45;&gt;Node16 -->
<g id="edge32" class="edge"><title>Node15&#45;&gt;Node16</title>
<path fill="none" stroke="midnightblue" d="M3435,-51.6908C3446.31,-41.8996 3460.08,-29.973 3469.79,-21.5707"/>
<polygon fill="midnightblue" stroke="midnightblue" points="3432.56,-49.1706 3427.29,-58.3619 3437.14,-54.4631 3432.56,-49.1706"/>
</g>
<!-- Node17 -->
<g id="node34" class="node"><title>Node17</title>
<a xlink:href="ExampleClient_8cpp.html" target="_top" xlink:title="ocra&#45;wbi&#45;plugins/ocra&#45;icub&#45;clients/example&#45;client/src/ExampleClient.cpp">
<polygon fill="white" stroke="black" points="3663.5,-0.5 3663.5,-21.5 3992.5,-21.5 3992.5,-0.5 3663.5,-0.5"/>
<text text-anchor="middle" x="3828" y="-8.5" font-family="Helvetica,sans-Serif" font-size="10.00">ocra&#45;wbi&#45;plugins/ocra&#45;icub&#45;clients/example&#45;client/src/ExampleClient.cpp</text>
</a>
</g>
<!-- Node15&#45;&gt;Node17 -->
<g id="edge34" class="edge"><title>Node15&#45;&gt;Node17</title>
<path fill="none" stroke="midnightblue" d="M3500.08,-57.052C3574.57,-46.5906 3681.76,-31.5378 3753.07,-21.5231"/>
<polygon fill="midnightblue" stroke="midnightblue" points="3499.21,-53.6399 3489.79,-58.4966 3500.18,-60.5718 3499.21,-53.6399"/>
</g>
<!-- Node18&#45;&gt;Node19 -->
<g id="edge40" class="edge"><title>Node18&#45;&gt;Node19</title>
<path fill="none" stroke="midnightblue" d="M970.739,-57.1801C891.701,-46.7138 777.405,-31.5788 701.467,-21.5231"/>
<polygon fill="midnightblue" stroke="midnightblue" points="970.309,-60.6535 980.682,-58.4966 971.228,-53.7141 970.309,-60.6535"/>
</g>
<!-- Node20 -->
<g id="node41" class="node"><title>Node20</title>
<a xlink:href="SittingDemoClient_8cpp.html" target="_top" xlink:title="ocra&#45;wbi&#45;plugins/ocra&#45;icub&#45;clients/sitting&#45;demo/src/SittingDemoClient.cpp">
<polygon fill="white" stroke="black" points="777.5,-0.5 777.5,-21.5 1112.5,-21.5 1112.5,-0.5 777.5,-0.5"/>
<text text-anchor="middle" x="945" y="-8.5" font-family="Helvetica,sans-Serif" font-size="10.00">ocra&#45;wbi&#45;plugins/ocra&#45;icub&#45;clients/sitting&#45;demo/src/SittingDemoClient.cpp</text>
</a>
</g>
<!-- Node18&#45;&gt;Node20 -->
<g id="edge42" class="edge"><title>Node18&#45;&gt;Node20</title>
<path fill="none" stroke="midnightblue" d="M1030.12,-53.9319C1010.02,-43.7932 984.01,-30.6748 966.059,-21.6212"/>
<polygon fill="midnightblue" stroke="midnightblue" points="1028.67,-57.1185 1039.17,-58.4966 1031.82,-50.8684 1028.67,-57.1185"/>
</g>
<!-- Node21&#45;&gt;Node22 -->
<g id="edge48" class="edge"><title>Node21&#45;&gt;Node22</title>
<path fill="none" stroke="midnightblue" d="M1540.66,-56.7943C1479.58,-46.3447 1392.56,-31.4559 1334.51,-21.5231"/>
<polygon fill="midnightblue" stroke="midnightblue" points="1540.16,-60.26 1550.61,-58.4966 1541.34,-53.3603 1540.16,-60.26"/>
</g>
<!-- Node23 -->
<g id="node48" class="node"><title>Node23</title>
<a xlink:href="StandingDemoClient_8cpp.html" target="_top" xlink:title="ocra&#45;wbi&#45;plugins/ocra&#45;icub&#45;clients/standing&#45;demo/src/StandingDemoClient.cpp">
<polygon fill="white" stroke="black" points="1434,-0.5 1434,-21.5 1790,-21.5 1790,-0.5 1434,-0.5"/>
<text text-anchor="middle" x="1612" y="-8.5" font-family="Helvetica,sans-Serif" font-size="10.00">ocra&#45;wbi&#45;plugins/ocra&#45;icub&#45;clients/standing&#45;demo/src/StandingDemoClient.cpp</text>
</a>
</g>
<!-- Node21&#45;&gt;Node23 -->
<g id="edge50" class="edge"><title>Node21&#45;&gt;Node23</title>
<path fill="none" stroke="midnightblue" d="M1612,-48.1906C1612,-39.1684 1612,-28.9941 1612,-21.5707"/>
<polygon fill="midnightblue" stroke="midnightblue" points="1608.5,-48.3619 1612,-58.3619 1615.5,-48.3619 1608.5,-48.3619"/>
</g>
<!-- Node24&#45;&gt;Node25 -->
<g id="edge56" class="edge"><title>Node24&#45;&gt;Node25</title>
<path fill="none" stroke="midnightblue" d="M2163.69,-56.1424C2119.72,-45.7328 2058.54,-31.2511 2017.45,-21.5231"/>
<polygon fill="midnightblue" stroke="midnightblue" points="2163.09,-59.5988 2173.63,-58.4966 2164.71,-52.787 2163.09,-59.5988"/>
</g>
<!-- Node26 -->
<g id="node55" class="node"><title>Node26</title>
<a xlink:href="SteppingDemoClient_8cpp.html" target="_top" xlink:title="ocra&#45;wbi&#45;plugins/ocra&#45;icub&#45;clients/stepping&#45;demo/src/SteppingDemoClient.cpp">
<polygon fill="white" stroke="black" points="2156,-0.5 2156,-21.5 2512,-21.5 2512,-0.5 2156,-0.5"/>
<text text-anchor="middle" x="2334" y="-8.5" font-family="Helvetica,sans-Serif" font-size="10.00">ocra&#45;wbi&#45;plugins/ocra&#45;icub&#45;clients/stepping&#45;demo/src/SteppingDemoClient.cpp</text>
</a>
</g>
<!-- Node24&#45;&gt;Node26 -->
<g id="edge58" class="edge"><title>Node24&#45;&gt;Node26</title>
<path fill="none" stroke="midnightblue" d="M2248.14,-53.9319C2268.41,-43.7932 2294.65,-30.6748 2312.76,-21.6212"/>
<polygon fill="midnightblue" stroke="midnightblue" points="2246.39,-50.8939 2239.01,-58.4966 2249.52,-57.1549 2246.39,-50.8939"/>
</g>
<!-- Node27&#45;&gt;Node28 -->
<g id="edge64" class="edge"><title>Node27&#45;&gt;Node28</title>
<path fill="none" stroke="midnightblue" d="M2725,-48.1906C2725,-39.1684 2725,-28.9941 2725,-21.5707"/>
<polygon fill="midnightblue" stroke="midnightblue" points="2721.5,-48.3619 2725,-58.3619 2728.5,-48.3619 2721.5,-48.3619"/>
</g>
<!-- Node29 -->
<g id="node62" class="node"><title>Node29</title>
<a xlink:href="TaskOpsClient_8cpp.html" target="_top" xlink:title="ocra&#45;wbi&#45;plugins/ocra&#45;icub&#45;clients/task&#45;operations&#45;demo/src/TaskOpsClient.cpp">
<polygon fill="white" stroke="black" points="2938,-0.5 2938,-21.5 3300,-21.5 3300,-0.5 2938,-0.5"/>
<text text-anchor="middle" x="3119" y="-8.5" font-family="Helvetica,sans-Serif" font-size="10.00">ocra&#45;wbi&#45;plugins/ocra&#45;icub&#45;clients/task&#45;operations&#45;demo/src/TaskOpsClient.cpp</text>
</a>
</g>
<!-- Node27&#45;&gt;Node29 -->
<g id="edge66" class="edge"><title>Node27&#45;&gt;Node29</title>
<path fill="none" stroke="midnightblue" d="M2806.6,-56.9877C2877.65,-46.529 2979.62,-31.5174 3047.52,-21.5231"/>
<polygon fill="midnightblue" stroke="midnightblue" points="2805.73,-53.5775 2796.35,-58.4966 2806.75,-60.5029 2805.73,-53.5775"/>
</g>
<!-- Node30&#45;&gt;Node14 -->
<g id="edge76" class="edge"><title>Node30&#45;&gt;Node14</title>
<path fill="none" stroke="midnightblue" d="M2098.2,-288.732C2056.62,-281.254 2014.55,-269.996 2002,-254 1995.96,-246.308 2000.31,-241.631 2002,-232 2006.74,-204.997 2002.57,-192.282 2023,-174 2040.91,-157.977 2096.17,-145.571 2143.32,-137.539"/>
<polygon fill="midnightblue" stroke="midnightblue" points="2097.72,-292.202 2108.17,-290.459 2098.91,-285.304 2097.72,-292.202"/>
</g>
<!-- Node30&#45;&gt;Node31 -->
<g id="edge78" class="edge"><title>Node30&#45;&gt;Node31</title>
<path fill="none" stroke="midnightblue" d="M2246.58,-288.077C2288.92,-277.672 2347.68,-263.231 2387.18,-253.523"/>
<polygon fill="midnightblue" stroke="midnightblue" points="2245.61,-284.711 2236.74,-290.497 2247.28,-291.509 2245.61,-284.711"/>
</g>
<!-- Node39 -->
<g id="node90" class="node"><title>Node39</title>
<a xlink:href="OcraWbiConversions_8cpp.html" target="_top" xlink:title="A utility class full of static conversion functions.">
<polygon fill="white" stroke="black" points="2010.5,-232.5 2010.5,-253.5 2271.5,-253.5 2271.5,-232.5 2010.5,-232.5"/>
<text text-anchor="middle" x="2141" y="-240.5" font-family="Helvetica,sans-Serif" font-size="10.00">ocra&#45;wbi&#45;plugins/ocra&#45;icub/src/OcraWbiConversions.cpp</text>
</a>
</g>
<!-- Node30&#45;&gt;Node39 -->
<g id="edge102" class="edge"><title>Node30&#45;&gt;Node39</title>
<path fill="none" stroke="midnightblue" d="M2177.4,-282.83C2168.6,-273.208 2158.11,-261.728 2150.66,-253.571"/>
<polygon fill="midnightblue" stroke="midnightblue" points="2174.95,-285.341 2184.28,-290.362 2180.12,-280.619 2174.95,-285.341"/>
</g>
<!-- Node31&#45;&gt;Node14 -->
<g id="edge92" class="edge"><title>Node31&#45;&gt;Node14</title>
<path fill="none" stroke="midnightblue" d="M2298.89,-231.56C2187.39,-221.185 2043.9,-206.025 2035,-196 2006.54,-163.948 2050.65,-146.728 2102.69,-137.506"/>
<polygon fill="midnightblue" stroke="midnightblue" points="2298.61,-235.049 2308.89,-232.486 2299.25,-228.079 2298.61,-235.049"/>
</g>
<!-- Node32 -->
<g id="node72" class="node"><title>Node32</title>
<a xlink:href="IcubControllerServer_8h.html" target="_top" xlink:title="ocra&#45;wbi&#45;plugins/ocra&#45;icub&#45;server/include/ocra&#45;icub&#45;server/IcubControllerServer.h">
<polygon fill="white" stroke="black" points="1197.5,-174.5 1197.5,-195.5 1564.5,-195.5 1564.5,-174.5 1197.5,-174.5"/>
<text text-anchor="middle" x="1381" y="-182.5" font-family="Helvetica,sans-Serif" font-size="10.00">ocra&#45;wbi&#45;plugins/ocra&#45;icub&#45;server/include/ocra&#45;icub&#45;server/IcubControllerServer.h</text>
</a>
</g>
<!-- Node31&#45;&gt;Node32 -->
<g id="edge80" class="edge"><title>Node31&#45;&gt;Node32</title>
<path fill="none" stroke="midnightblue" d="M2278.54,-231.918C2025.05,-216.085 1744.21,-202.02 1564.86,-193.483"/>
<polygon fill="midnightblue" stroke="midnightblue" points="2278.48,-235.422 2288.68,-232.554 2278.92,-228.435 2278.48,-235.422"/>
</g>
<!-- Node34 -->
<g id="node77" class="node"><title>Node34</title>
<a xlink:href="MIQPController_8h.html" target="_top" xlink:title="A thread for launching trajectory generators.">
<polygon fill="white" stroke="black" points="2632,-174.5 2632,-195.5 3030,-195.5 3030,-174.5 2632,-174.5"/>
<text text-anchor="middle" x="2831" y="-182.5" font-family="Helvetica,sans-Serif" font-size="10.00">ocra&#45;wbi&#45;plugins/ocra&#45;icub&#45;clients/walking&#45;client/include/walking&#45;client/MIQPController.h</text>
</a>
</g>
<!-- Node31&#45;&gt;Node34 -->
<g id="edge86" class="edge"><title>Node31&#45;&gt;Node34</title>
<path fill="none" stroke="midnightblue" d="M2512.61,-231.052C2584.93,-220.591 2689.01,-205.538 2758.25,-195.523"/>
<polygon fill="midnightblue" stroke="midnightblue" points="2512.01,-227.601 2502.62,-232.497 2513.02,-234.529 2512.01,-227.601"/>
</g>
<!-- Node36 -->
<g id="node83" class="node"><title>Node36</title>
<a xlink:href="ModelInitializer_8h.html" target="_top" xlink:title="ocra&#45;wbi&#45;plugins/ocra&#45;icub/include/ocra&#45;icub/ModelInitializer.h">
<polygon fill="white" stroke="black" points="2293.5,-174.5 2293.5,-195.5 2576.5,-195.5 2576.5,-174.5 2293.5,-174.5"/>
<text text-anchor="middle" x="2435" y="-182.5" font-family="Helvetica,sans-Serif" font-size="10.00">ocra&#45;wbi&#45;plugins/ocra&#45;icub/include/ocra&#45;icub/ModelInitializer.h</text>
</a>
</g>
<!-- Node31&#45;&gt;Node36 -->
<g id="edge94" class="edge"><title>Node31&#45;&gt;Node36</title>
<path fill="none" stroke="midnightblue" d="M2431.79,-222.191C2432.57,-213.168 2433.45,-202.994 2434.09,-195.571"/>
<polygon fill="midnightblue" stroke="midnightblue" points="2428.29,-222.098 2430.92,-232.362 2435.26,-222.699 2428.29,-222.098"/>
</g>
<!-- Node38 -->
<g id="node88" class="node"><title>Node38</title>
<a xlink:href="OcraWbiModel_8cpp.html" target="_top" xlink:title="Implementation of ocra::Model using wholeBodyInterface.">
<polygon fill="white" stroke="black" points="2043.5,-174.5 2043.5,-195.5 2276.5,-195.5 2276.5,-174.5 2043.5,-174.5"/>
<text text-anchor="middle" x="2160" y="-182.5" font-family="Helvetica,sans-Serif" font-size="10.00">ocra&#45;wbi&#45;plugins/ocra&#45;icub/src/OcraWbiModel.cpp</text>
</a>
</g>
<!-- Node31&#45;&gt;Node38 -->
<g id="edge100" class="edge"><title>Node31&#45;&gt;Node38</title>
<path fill="none" stroke="midnightblue" d="M2371.06,-230.339C2322.54,-219.916 2254.56,-205.313 2208.99,-195.523"/>
<polygon fill="midnightblue" stroke="midnightblue" points="2370.59,-233.818 2381.11,-232.497 2372.06,-226.974 2370.59,-233.818"/>
</g>
<!-- Node32&#45;&gt;Node5 -->
<g id="edge82" class="edge"><title>Node32&#45;&gt;Node5</title>
<path fill="none" stroke="midnightblue" d="M1291.94,-173.18C1213.09,-162.714 1099.05,-147.579 1023.29,-137.523"/>
<polygon fill="midnightblue" stroke="midnightblue" points="1291.49,-176.65 1301.86,-174.497 1292.41,-169.711 1291.49,-176.65"/>
</g>
<!-- Node33 -->
<g id="node75" class="node"><title>Node33</title>
<a xlink:href="IcubControllerServer_8cpp.html" target="_top" xlink:title="ocra&#45;wbi&#45;plugins/ocra&#45;icub&#45;server/src/IcubControllerServer.cpp">
<polygon fill="white" stroke="black" points="1237.5,-116.5 1237.5,-137.5 1524.5,-137.5 1524.5,-116.5 1237.5,-116.5"/>
<text text-anchor="middle" x="1381" y="-124.5" font-family="Helvetica,sans-Serif" font-size="10.00">ocra&#45;wbi&#45;plugins/ocra&#45;icub&#45;server/src/IcubControllerServer.cpp</text>
</a>
</g>
<!-- Node32&#45;&gt;Node33 -->
<g id="edge84" class="edge"><title>Node32&#45;&gt;Node33</title>
<path fill="none" stroke="midnightblue" d="M1381,-164.191C1381,-155.168 1381,-144.994 1381,-137.571"/>
<polygon fill="midnightblue" stroke="midnightblue" points="1377.5,-164.362 1381,-174.362 1384.5,-164.362 1377.5,-164.362"/>
</g>
<!-- Node34&#45;&gt;Node10 -->
<g id="edge88" class="edge"><title>Node34&#45;&gt;Node10</title>
<path fill="none" stroke="midnightblue" d="M2889.13,-172.037C2922.42,-163.848 2964.67,-152.147 3001,-138 3021,-130.211 3023.28,-121.621 3044,-116 3051.57,-113.947 3434.11,-92.7233 3675.25,-79.5079"/>
<polygon fill="midnightblue" stroke="midnightblue" points="2888,-168.71 2879.11,-174.464 2889.65,-175.513 2888,-168.71"/>
</g>
<!-- Node35 -->
<g id="node80" class="node"><title>Node35</title>
<a xlink:href="MIQPController_8cpp.html" target="_top" xlink:title="ocra&#45;wbi&#45;plugins/ocra&#45;icub&#45;clients/walking&#45;client/src/MIQPController.cpp">
<polygon fill="white" stroke="black" points="2663.5,-116.5 2663.5,-137.5 2992.5,-137.5 2992.5,-116.5 2663.5,-116.5"/>
<text text-anchor="middle" x="2828" y="-124.5" font-family="Helvetica,sans-Serif" font-size="10.00">ocra&#45;wbi&#45;plugins/ocra&#45;icub&#45;clients/walking&#45;client/src/MIQPController.cpp</text>
</a>
</g>
<!-- Node34&#45;&gt;Node35 -->
<g id="edge90" class="edge"><title>Node34&#45;&gt;Node35</title>
<path fill="none" stroke="midnightblue" d="M2829.92,-164.191C2829.46,-155.168 2828.93,-144.994 2828.55,-137.571"/>
<polygon fill="midnightblue" stroke="midnightblue" points="2826.44,-164.556 2830.45,-174.362 2833.43,-164.194 2826.44,-164.556"/>
</g>
<!-- Node36&#45;&gt;Node14 -->
<g id="edge96" class="edge"><title>Node36&#45;&gt;Node14</title>
<path fill="none" stroke="midnightblue" d="M2385.66,-171.812C2346.81,-161.428 2293.38,-147.149 2257.37,-137.523"/>
<polygon fill="midnightblue" stroke="midnightblue" points="2385.14,-175.296 2395.7,-174.497 2386.95,-168.533 2385.14,-175.296"/>
</g>
<!-- Node37 -->
<g id="node86" class="node"><title>Node37</title>
<a xlink:href="ModelInitializer_8cpp.html" target="_top" xlink:title="ocra&#45;wbi&#45;plugins/ocra&#45;icub/src/ModelInitializer.cpp">
<polygon fill="white" stroke="black" points="2366.5,-116.5 2366.5,-137.5 2599.5,-137.5 2599.5,-116.5 2366.5,-116.5"/>
<text text-anchor="middle" x="2483" y="-124.5" font-family="Helvetica,sans-Serif" font-size="10.00">ocra&#45;wbi&#45;plugins/ocra&#45;icub/src/ModelInitializer.cpp</text>
</a>
</g>
<!-- Node36&#45;&gt;Node37 -->
<g id="edge98" class="edge"><title>Node36&#45;&gt;Node37</title>
<path fill="none" stroke="midnightblue" d="M2450.28,-166.541C2458.19,-156.979 2467.57,-145.647 2474.25,-137.571"/>
<polygon fill="midnightblue" stroke="midnightblue" points="2447.48,-164.426 2443.8,-174.362 2452.88,-168.889 2447.48,-164.426"/>
</g>
</g>
</svg>
