<?xml version="1.0" encoding="UTF-8" standalone="no"?>
<!DOCTYPE svg PUBLIC "-//W3C//DTD SVG 1.1//EN"
 "http://www.w3.org/Graphics/SVG/1.1/DTD/svg11.dtd">
<!-- Generated by graphviz version 2.26.3 (20100126.1600)
 -->
<!-- Title: G Pages: 1 -->
<svg width="5134pt" height="436pt"
 viewBox="0.00 0.00 5134.00 436.00" xmlns="http://www.w3.org/2000/svg" xmlns:xlink="http://www.w3.org/1999/xlink">
<g id="graph1" class="graph" transform="scale(1 1) rotate(0) translate(4 432)">
<title>G</title>
<polygon fill="white" stroke="white" points="-4,5 -4,-432 5131,-432 5131,5 -4,5"/>
<!-- Node1 -->
<g id="node1" class="node"><title>Node1</title>
<polygon fill="#bfbfbf" stroke="black" points="3943.5,-406.5 3943.5,-427.5 4292.5,-427.5 4292.5,-406.5 3943.5,-406.5"/>
<text text-anchor="middle" x="4118" y="-414.5" font-family="Helvetica,sans-Serif" font-size="10.00">ocra&#45;wbi&#45;plugins/ocra&#45;icub&#45;clients/walking&#45;client/include/walking&#45;client/utils.h</text>
</g>
<!-- Node2 -->
<g id="node3" class="node"><title>Node2</title>
<a xlink:href="BaseOfSupport_8h.html" target="_top" xlink:title="ocra&#45;wbi&#45;plugins/ocra&#45;icub&#45;clients/walking&#45;client/include/walking&#45;client/BaseOfSupport.h">
<polygon fill="white" stroke="black" points="3852,-232.5 3852,-253.5 4250,-253.5 4250,-232.5 3852,-232.5"/>
<text text-anchor="middle" x="4051" y="-240.5" font-family="Helvetica,sans-Serif" font-size="10.00">ocra&#45;wbi&#45;plugins/ocra&#45;icub&#45;clients/walking&#45;client/include/walking&#45;client/BaseOfSupport.h</text>
</a>
</g>
<!-- Node1&#45;&gt;Node2 -->
<g id="edge2" class="edge"><title>Node1&#45;&gt;Node2</title>
<path fill="none" stroke="midnightblue" d="M4108.55,-397.32C4098.71,-376.432 4083.21,-342.319 4072,-312 4064.53,-291.799 4057.62,-267.596 4053.89,-253.887"/>
<polygon fill="midnightblue" stroke="midnightblue" points="4105.43,-398.906 4112.88,-406.438 4111.75,-395.903 4105.43,-398.906"/>
</g>
<!-- Node3 -->
<g id="node5" class="node"><title>Node3</title>
<a xlink:href="MIQPLinearConstraints_8h.html" target="_top" xlink:title="ocra&#45;wbi&#45;plugins/ocra&#45;icub&#45;clients/walking&#45;client/include/walking&#45;client/constraints/MIQPLinearConstraints.h">
<polygon fill="white" stroke="black" points="3264,-174.5 3264,-195.5 3748,-195.5 3748,-174.5 3264,-174.5"/>
<text text-anchor="middle" x="3506" y="-182.5" font-family="Helvetica,sans-Serif" font-size="10.00">ocra&#45;wbi&#45;plugins/ocra&#45;icub&#45;clients/walking&#45;client/include/walking&#45;client/constraints/MIQPLinearConstraints.h</text>
</a>
</g>
<!-- Node1&#45;&gt;Node3 -->
<g id="edge76" class="edge"><title>Node1&#45;&gt;Node3</title>
<path fill="none" stroke="midnightblue" d="M4001.24,-405.327C3833.05,-385.705 3536.23,-339.595 3477,-254 3464.13,-235.407 3482.16,-210.213 3495.02,-195.98"/>
<polygon fill="midnightblue" stroke="midnightblue" points="4001.04,-408.828 4011.38,-406.496 4001.85,-401.874 4001.04,-408.828"/>
</g>
<!-- Node4 -->
<g id="node7" class="node"><title>Node4</title>
<a xlink:href="MIQPController_8h.html" target="_top" xlink:title="A thread for launching trajectory generators.">
<polygon fill="white" stroke="black" points="4022,-116.5 4022,-137.5 4420,-137.5 4420,-116.5 4022,-116.5"/>
<text text-anchor="middle" x="4221" y="-124.5" font-family="Helvetica,sans-Serif" font-size="10.00">ocra&#45;wbi&#45;plugins/ocra&#45;icub&#45;clients/walking&#45;client/include/walking&#45;client/MIQPController.h</text>
</a>
</g>
<!-- Node1&#45;&gt;Node4 -->
<g id="edge78" class="edge"><title>Node1&#45;&gt;Node4</title>
<path fill="none" stroke="midnightblue" d="M4178.81,-404.253C4252.37,-387.753 4379.14,-355.832 4482,-312 4499.95,-304.35 4502.1,-297.766 4520,-290 4570.69,-268.011 4606.07,-298.37 4639,-254 4681.1,-197.285 4440.69,-155.872 4306.56,-137.515"/>
<polygon fill="midnightblue" stroke="midnightblue" points="4177.79,-400.893 4168.79,-406.479 4179.31,-407.727 4177.79,-400.893"/>
</g>
<!-- Node5 -->
<g id="node9" class="node"><title>Node5</title>
<a xlink:href="WalkingClient_8h.html" target="_top" xlink:title="ocra&#45;wbi&#45;plugins/ocra&#45;icub&#45;clients/walking&#45;client/include/walking&#45;client/WalkingClient.h">
<polygon fill="white" stroke="black" points="4609,-58.5 4609,-79.5 5001,-79.5 5001,-58.5 4609,-58.5"/>
<text text-anchor="middle" x="4805" y="-66.5" font-family="Helvetica,sans-Serif" font-size="10.00">ocra&#45;wbi&#45;plugins/ocra&#45;icub&#45;clients/walking&#45;client/include/walking&#45;client/WalkingClient.h</text>
</a>
</g>
<!-- Node1&#45;&gt;Node5 -->
<g id="edge98" class="edge"><title>Node1&#45;&gt;Node5</title>
<path fill="none" stroke="midnightblue" d="M4302.83,-411.984C4540.32,-404.748 4925.21,-390.02 4950,-370 4974.75,-350.018 4969,-332.808 4969,-301 4969,-301 4969,-301 4969,-185 4969,-125.887 4897.1,-94.1997 4848.52,-79.5347"/>
<polygon fill="midnightblue" stroke="midnightblue" points="4302.58,-408.49 4292.69,-412.291 4302.79,-415.487 4302.58,-408.49"/>
</g>
<!-- Node11 -->
<g id="node21" class="node"><title>Node11</title>
<a xlink:href="Constraint_8h.html" target="_top" xlink:title="A constraint base class.">
<polygon fill="white" stroke="black" points="1707.5,-348.5 1707.5,-369.5 2134.5,-369.5 2134.5,-348.5 1707.5,-348.5"/>
<text text-anchor="middle" x="1921" y="-356.5" font-family="Helvetica,sans-Serif" font-size="10.00">ocra&#45;wbi&#45;plugins/ocra&#45;icub&#45;clients/walking&#45;client/include/walking&#45;client/constraints/Constraint.h</text>
</a>
</g>
<!-- Node1&#45;&gt;Node11 -->
<g id="edge20" class="edge"><title>Node1&#45;&gt;Node11</title>
<path fill="none" stroke="midnightblue" d="M3933.26,-412.123C3528.33,-401.433 2564.52,-375.989 2134.5,-364.636"/>
<polygon fill="midnightblue" stroke="midnightblue" points="3933.22,-415.623 3943.31,-412.388 3933.4,-408.625 3933.22,-415.623"/>
</g>
<!-- Node30 -->
<g id="node70" class="node"><title>Node30</title>
<a xlink:href="MIQPState_8h.html" target="_top" xlink:title="ocra&#45;wbi&#45;plugins/ocra&#45;icub&#45;clients/walking&#45;client/include/walking&#45;client/MIQPState.h">
<polygon fill="white" stroke="black" points="3640,-290.5 3640,-311.5 4020,-311.5 4020,-290.5 3640,-290.5"/>
<text text-anchor="middle" x="3830" y="-298.5" font-family="Helvetica,sans-Serif" font-size="10.00">ocra&#45;wbi&#45;plugins/ocra&#45;icub&#45;clients/walking&#45;client/include/walking&#45;client/MIQPState.h</text>
</a>
</g>
<!-- Node1&#45;&gt;Node30 -->
<g id="edge80" class="edge"><title>Node1&#45;&gt;Node30</title>
<path fill="none" stroke="midnightblue" d="M4082.06,-402.526C4023.26,-378.843 3907.87,-332.365 3856.16,-311.535"/>
<polygon fill="midnightblue" stroke="midnightblue" points="4081.09,-405.909 4091.68,-406.398 4083.71,-399.416 4081.09,-405.909"/>
</g>
<!-- Node32 -->
<g id="node76" class="node"><title>Node32</title>
<a xlink:href="StepController_8h.html" target="_top" xlink:title="ocra&#45;wbi&#45;plugins/ocra&#45;icub&#45;clients/walking&#45;client/include/walking&#45;client/StepController.h">
<polygon fill="white" stroke="black" points="4080.5,-290.5 4080.5,-311.5 4473.5,-311.5 4473.5,-290.5 4080.5,-290.5"/>
<text text-anchor="middle" x="4277" y="-298.5" font-family="Helvetica,sans-Serif" font-size="10.00">ocra&#45;wbi&#45;plugins/ocra&#45;icub&#45;clients/walking&#45;client/include/walking&#45;client/StepController.h</text>
</a>
</g>
<!-- Node1&#45;&gt;Node32 -->
<g id="edge88" class="edge"><title>Node1&#45;&gt;Node32</title>
<path fill="none" stroke="midnightblue" d="M4140.87,-400.316C4174.04,-376.112 4234.58,-331.945 4262.36,-311.679"/>
<polygon fill="midnightblue" stroke="midnightblue" points="4138.69,-397.574 4132.67,-406.295 4142.81,-403.229 4138.69,-397.574"/>
</g>
<!-- Node34 -->
<g id="node84" class="node"><title>Node34</title>
<a xlink:href="ZmpPreviewController_8h.html" target="_top" xlink:title="ocra&#45;wbi&#45;plugins/ocra&#45;icub&#45;clients/walking&#45;client/include/walking&#45;client/ZmpPreviewController.h">
<polygon fill="white" stroke="black" points="4513,-348.5 4513,-369.5 4941,-369.5 4941,-348.5 4513,-348.5"/>
<text text-anchor="middle" x="4727" y="-356.5" font-family="Helvetica,sans-Serif" font-size="10.00">ocra&#45;wbi&#45;plugins/ocra&#45;icub&#45;clients/walking&#45;client/include/walking&#45;client/ZmpPreviewController.h</text>
</a>
</g>
<!-- Node1&#45;&gt;Node34 -->
<g id="edge100" class="edge"><title>Node1&#45;&gt;Node34</title>
<path fill="none" stroke="midnightblue" d="M4238.43,-405.53C4348.44,-395.054 4509.74,-379.691 4616.51,-369.523"/>
<polygon fill="midnightblue" stroke="midnightblue" points="4237.91,-402.064 4228.29,-406.497 4238.57,-409.033 4237.91,-402.064"/>
</g>
<!-- Node2&#45;&gt;Node3 -->
<g id="edge4" class="edge"><title>Node2&#45;&gt;Node3</title>
<path fill="none" stroke="midnightblue" d="M3942.33,-231.435C3843.91,-220.961 3700.14,-205.661 3604.88,-195.523"/>
<polygon fill="midnightblue" stroke="midnightblue" points="3941.99,-234.919 3952.3,-232.497 3942.73,-227.958 3941.99,-234.919"/>
</g>
<!-- Node10 -->
<g id="node19" class="node"><title>Node10</title>
<a xlink:href="BaseOfSupport_8cpp.html" target="_top" xlink:title="ocra&#45;wbi&#45;plugins/ocra&#45;icub&#45;clients/walking&#45;client/src/BaseOfSupport.cpp">
<polygon fill="white" stroke="black" points="3886.5,-174.5 3886.5,-195.5 4215.5,-195.5 4215.5,-174.5 3886.5,-174.5"/>
<text text-anchor="middle" x="4051" y="-182.5" font-family="Helvetica,sans-Serif" font-size="10.00">ocra&#45;wbi&#45;plugins/ocra&#45;icub&#45;clients/walking&#45;client/src/BaseOfSupport.cpp</text>
</a>
</g>
<!-- Node2&#45;&gt;Node10 -->
<g id="edge18" class="edge"><title>Node2&#45;&gt;Node10</title>
<path fill="none" stroke="midnightblue" d="M4051,-222.191C4051,-213.168 4051,-202.994 4051,-195.571"/>
<polygon fill="midnightblue" stroke="midnightblue" points="4047.5,-222.362 4051,-232.362 4054.5,-222.362 4047.5,-222.362"/>
</g>
<!-- Node3&#45;&gt;Node4 -->
<g id="edge6" class="edge"><title>Node3&#45;&gt;Node4</title>
<path fill="none" stroke="midnightblue" d="M3645.45,-173.688C3774.64,-163.208 3965.29,-147.743 4091.28,-137.523"/>
<polygon fill="midnightblue" stroke="midnightblue" points="3645.17,-170.199 3635.48,-174.497 3645.73,-177.177 3645.17,-170.199"/>
</g>
<!-- Node9 -->
<g id="node17" class="node"><title>Node9</title>
<a xlink:href="MIQPLinearConstraints_8cpp.html" target="_top" xlink:title="ocra&#45;wbi&#45;plugins/ocra&#45;icub&#45;clients/walking&#45;client/src/MIQPLinearConstraints.cpp">
<polygon fill="white" stroke="black" points="3324,-116.5 3324,-137.5 3688,-137.5 3688,-116.5 3324,-116.5"/>
<text text-anchor="middle" x="3506" y="-124.5" font-family="Helvetica,sans-Serif" font-size="10.00">ocra&#45;wbi&#45;plugins/ocra&#45;icub&#45;clients/walking&#45;client/src/MIQPLinearConstraints.cpp</text>
</a>
</g>
<!-- Node3&#45;&gt;Node9 -->
<g id="edge16" class="edge"><title>Node3&#45;&gt;Node9</title>
<path fill="none" stroke="midnightblue" d="M3506,-164.191C3506,-155.168 3506,-144.994 3506,-137.571"/>
<polygon fill="midnightblue" stroke="midnightblue" points="3502.5,-164.362 3506,-174.362 3509.5,-164.362 3502.5,-164.362"/>
</g>
<!-- Node4&#45;&gt;Node5 -->
<g id="edge8" class="edge"><title>Node4&#45;&gt;Node5</title>
<path fill="none" stroke="midnightblue" d="M4336.81,-115.498C4442.29,-105.023 4596.76,-89.6812 4699.04,-79.5231"/>
<polygon fill="midnightblue" stroke="midnightblue" points="4336.36,-112.025 4326.76,-116.497 4337.05,-118.991 4336.36,-112.025"/>
</g>
<!-- Node8 -->
<g id="node15" class="node"><title>Node8</title>
<a xlink:href="MIQPController_8cpp.html" target="_top" xlink:title="ocra&#45;wbi&#45;plugins/ocra&#45;icub&#45;clients/walking&#45;client/src/MIQPController.cpp">
<polygon fill="white" stroke="black" points="4056.5,-58.5 4056.5,-79.5 4385.5,-79.5 4385.5,-58.5 4056.5,-58.5"/>
<text text-anchor="middle" x="4221" y="-66.5" font-family="Helvetica,sans-Serif" font-size="10.00">ocra&#45;wbi&#45;plugins/ocra&#45;icub&#45;clients/walking&#45;client/src/MIQPController.cpp</text>
</a>
</g>
<!-- Node4&#45;&gt;Node8 -->
<g id="edge14" class="edge"><title>Node4&#45;&gt;Node8</title>
<path fill="none" stroke="midnightblue" d="M4221,-106.191C4221,-97.1684 4221,-86.9941 4221,-79.5707"/>
<polygon fill="midnightblue" stroke="midnightblue" points="4217.5,-106.362 4221,-116.362 4224.5,-106.362 4217.5,-106.362"/>
</g>
<!-- Node6 -->
<g id="node11" class="node"><title>Node6</title>
<a xlink:href="ocra-icub-clients_2walking-client_2src_2main_8cpp.html" target="_top" xlink:title="ocra&#45;wbi&#45;plugins/ocra&#45;icub&#45;clients/walking&#45;client/src/main.cpp">
<polygon fill="white" stroke="black" points="4503.5,-0.5 4503.5,-21.5 4786.5,-21.5 4786.5,-0.5 4503.5,-0.5"/>
<text text-anchor="middle" x="4645" y="-8.5" font-family="Helvetica,sans-Serif" font-size="10.00">ocra&#45;wbi&#45;plugins/ocra&#45;icub&#45;clients/walking&#45;client/src/main.cpp</text>
</a>
</g>
<!-- Node5&#45;&gt;Node6 -->
<g id="edge10" class="edge"><title>Node5&#45;&gt;Node6</title>
<path fill="none" stroke="midnightblue" d="M4766.41,-55.0095C4737.97,-44.7023 4699.9,-30.903 4674.03,-21.5231"/>
<polygon fill="midnightblue" stroke="midnightblue" points="4765.43,-58.3791 4776.03,-58.4966 4767.82,-51.7981 4765.43,-58.3791"/>
</g>
<!-- Node7 -->
<g id="node13" class="node"><title>Node7</title>
<a xlink:href="WalkingClient_8cpp.html" target="_top" xlink:title="ocra&#45;wbi&#45;plugins/ocra&#45;icub&#45;clients/walking&#45;client/src/WalkingClient.cpp">
<polygon fill="white" stroke="black" points="4803.5,-0.5 4803.5,-21.5 5126.5,-21.5 5126.5,-0.5 4803.5,-0.5"/>
<text text-anchor="middle" x="4965" y="-8.5" font-family="Helvetica,sans-Serif" font-size="10.00">ocra&#45;wbi&#45;plugins/ocra&#45;icub&#45;clients/walking&#45;client/src/WalkingClient.cpp</text>
</a>
</g>
<!-- Node5&#45;&gt;Node7 -->
<g id="edge12" class="edge"><title>Node5&#45;&gt;Node7</title>
<path fill="none" stroke="midnightblue" d="M4843.59,-55.0095C4872.03,-44.7023 4910.1,-30.903 4935.97,-21.5231"/>
<polygon fill="midnightblue" stroke="midnightblue" points="4842.18,-51.7981 4833.97,-58.4966 4844.57,-58.3791 4842.18,-51.7981"/>
</g>
<!-- Node12 -->
<g id="node23" class="node"><title>Node12</title>
<a xlink:href="AdmissibilityConstraints_8h.html" target="_top" xlink:title="ocra&#45;wbi&#45;plugins/ocra&#45;icub&#45;clients/walking&#45;client/include/walking&#45;client/constraints/AdmissibilityConstraints.h">
<polygon fill="white" stroke="black" points="2167,-232.5 2167,-253.5 2655,-253.5 2655,-232.5 2167,-232.5"/>
<text text-anchor="middle" x="2411" y="-240.5" font-family="Helvetica,sans-Serif" font-size="10.00">ocra&#45;wbi&#45;plugins/ocra&#45;icub&#45;clients/walking&#45;client/include/walking&#45;client/constraints/AdmissibilityConstraints.h</text>
</a>
</g>
<!-- Node11&#45;&gt;Node12 -->
<g id="edge22" class="edge"><title>Node11&#45;&gt;Node12</title>
<path fill="none" stroke="midnightblue" d="M2144.68,-347.834C2255.97,-340.272 2371.06,-328.598 2391,-312 2408.35,-297.558 2411.16,-269.045 2411.32,-253.578"/>
<polygon fill="midnightblue" stroke="midnightblue" points="2144.36,-344.347 2134.62,-348.507 2144.83,-351.331 2144.36,-344.347"/>
</g>
<!-- Node14 -->
<g id="node28" class="node"><title>Node14</title>
<a xlink:href="Bounding_8h.html" target="_top" xlink:title="ocra&#45;wbi&#45;plugins/ocra&#45;icub&#45;clients/walking&#45;client/include/walking&#45;client/constraints/Bounding.h">
<polygon fill="white" stroke="black" points="86,-290.5 86,-311.5 508,-311.5 508,-290.5 86,-290.5"/>
<text text-anchor="middle" x="297" y="-298.5" font-family="Helvetica,sans-Serif" font-size="10.00">ocra&#45;wbi&#45;plugins/ocra&#45;icub&#45;clients/walking&#45;client/include/walking&#45;client/constraints/Bounding.h</text>
</a>
</g>
<!-- Node11&#45;&gt;Node14 -->
<g id="edge28" class="edge"><title>Node11&#45;&gt;Node14</title>
<path fill="none" stroke="midnightblue" d="M1697.21,-352.534C1420.95,-344.311 936.788,-329.106 522,-312 517.409,-311.811 512.765,-311.616 508.083,-311.416"/>
<polygon fill="midnightblue" stroke="midnightblue" points="1697.25,-356.037 1707.35,-352.836 1697.46,-349.04 1697.25,-356.037"/>
</g>
<!-- Node15 -->
<g id="node30" class="node"><title>Node15</title>
<a xlink:href="ShapeConstraints_8h.html" target="_top" xlink:title="ocra&#45;wbi&#45;plugins/ocra&#45;icub&#45;clients/walking&#45;client/include/walking&#45;client/constraints/ShapeConstraints.h">
<polygon fill="white" stroke="black" points="320,-232.5 320,-253.5 780,-253.5 780,-232.5 320,-232.5"/>
<text text-anchor="middle" x="550" y="-240.5" font-family="Helvetica,sans-Serif" font-size="10.00">ocra&#45;wbi&#45;plugins/ocra&#45;icub&#45;clients/walking&#45;client/include/walking&#45;client/constraints/ShapeConstraints.h</text>
</a>
</g>
<!-- Node11&#45;&gt;Node15 -->
<g id="edge62" class="edge"><title>Node11&#45;&gt;Node15</title>
<path fill="none" stroke="midnightblue" d="M1697.25,-355.094C1315.04,-347.903 575.26,-331.506 555,-312 539.426,-297.006 543.281,-268.985 546.942,-253.669"/>
<polygon fill="midnightblue" stroke="midnightblue" points="1697.27,-358.595 1707.34,-355.283 1697.4,-351.596 1697.27,-358.595"/>
</g>
<!-- Node18 -->
<g id="node37" class="node"><title>Node18</title>
<a xlink:href="Constancy_8h.html" target="_top" xlink:title="ocra&#45;wbi&#45;plugins/ocra&#45;icub&#45;clients/walking&#45;client/include/walking&#45;client/constraints/Constancy.h">
<polygon fill="white" stroke="black" points="563.5,-290.5 563.5,-311.5 992.5,-311.5 992.5,-290.5 563.5,-290.5"/>
<text text-anchor="middle" x="778" y="-298.5" font-family="Helvetica,sans-Serif" font-size="10.00">ocra&#45;wbi&#45;plugins/ocra&#45;icub&#45;clients/walking&#45;client/include/walking&#45;client/constraints/Constancy.h</text>
</a>
</g>
<!-- Node11&#45;&gt;Node18 -->
<g id="edge38" class="edge"><title>Node11&#45;&gt;Node18</title>
<path fill="none" stroke="midnightblue" d="M1703.94,-347.986C1497.37,-337.503 1188.69,-321.84 985.377,-311.523"/>
<polygon fill="midnightblue" stroke="midnightblue" points="1703.85,-351.485 1714.01,-348.497 1704.2,-344.494 1703.85,-351.485"/>
</g>
<!-- Node20 -->
<g id="node42" class="node"><title>Node20</title>
<a xlink:href="ContactConfigEnforcement_8h.html" target="_top" xlink:title="ocra&#45;wbi&#45;plugins/ocra&#45;icub&#45;clients/walking&#45;client/include/walking&#45;client/constraints/ContactConfigEnforcement.h">
<polygon fill="white" stroke="black" points="2438,-290.5 2438,-311.5 2938,-311.5 2938,-290.5 2438,-290.5"/>
<text text-anchor="middle" x="2688" y="-298.5" font-family="Helvetica,sans-Serif" font-size="10.00">ocra&#45;wbi&#45;plugins/ocra&#45;icub&#45;clients/walking&#45;client/include/walking&#45;client/constraints/ContactConfigEnforcement.h</text>
</a>
</g>
<!-- Node11&#45;&gt;Node20 -->
<g id="edge44" class="edge"><title>Node11&#45;&gt;Node20</title>
<path fill="none" stroke="midnightblue" d="M2070.18,-347.719C2208.77,-337.239 2413.56,-321.753 2548.84,-311.523"/>
<polygon fill="midnightblue" stroke="midnightblue" points="2069.61,-344.252 2059.9,-348.497 2070.13,-351.233 2069.61,-344.252"/>
</g>
<!-- Node22 -->
<g id="node47" class="node"><title>Node22</title>
<a xlink:href="ContactConfigHistory_8h.html" target="_top" xlink:title="ocra&#45;wbi&#45;plugins/ocra&#45;icub&#45;clients/walking&#45;client/include/walking&#45;client/constraints/ContactConfigHistory.h">
<polygon fill="white" stroke="black" points="2956,-290.5 2956,-311.5 3432,-311.5 3432,-290.5 2956,-290.5"/>
<text text-anchor="middle" x="3194" y="-298.5" font-family="Helvetica,sans-Serif" font-size="10.00">ocra&#45;wbi&#45;plugins/ocra&#45;icub&#45;clients/walking&#45;client/include/walking&#45;client/constraints/ContactConfigHistory.h</text>
</a>
</g>
<!-- Node11&#45;&gt;Node22 -->
<g id="edge50" class="edge"><title>Node11&#45;&gt;Node22</title>
<path fill="none" stroke="midnightblue" d="M2144.96,-348.796C2374.95,-338.317 2731.19,-322.086 2963.53,-311.501"/>
<polygon fill="midnightblue" stroke="midnightblue" points="2144.62,-345.308 2134.79,-349.259 2144.94,-352.301 2144.62,-345.308"/>
</g>
<!-- Node24 -->
<g id="node52" class="node"><title>Node24</title>
<a xlink:href="Sequentiality_8h.html" target="_top" xlink:title="ocra&#45;wbi&#45;plugins/ocra&#45;icub&#45;clients/walking&#45;client/include/walking&#45;client/constraints/Sequentiality.h">
<polygon fill="white" stroke="black" points="1010,-290.5 1010,-311.5 1448,-311.5 1448,-290.5 1010,-290.5"/>
<text text-anchor="middle" x="1229" y="-298.5" font-family="Helvetica,sans-Serif" font-size="10.00">ocra&#45;wbi&#45;plugins/ocra&#45;icub&#45;clients/walking&#45;client/include/walking&#45;client/constraints/Sequentiality.h</text>
</a>
</g>
<!-- Node11&#45;&gt;Node24 -->
<g id="edge56" class="edge"><title>Node11&#45;&gt;Node24</title>
<path fill="none" stroke="midnightblue" d="M1785.66,-347.656C1660.63,-337.177 1476.36,-321.732 1354.55,-311.523"/>
<polygon fill="midnightblue" stroke="midnightblue" points="1785.43,-351.149 1795.68,-348.497 1786.01,-344.174 1785.43,-351.149"/>
</g>
<!-- Node26 -->
<g id="node58" class="node"><title>Node26</title>
<a xlink:href="SingleSupport_8h.html" target="_top" xlink:title="ocra&#45;wbi&#45;plugins/ocra&#45;icub&#45;clients/walking&#45;client/include/walking&#45;client/constraints/SingleSupport.h">
<polygon fill="white" stroke="black" points="1465.5,-290.5 1465.5,-311.5 1908.5,-311.5 1908.5,-290.5 1465.5,-290.5"/>
<text text-anchor="middle" x="1687" y="-298.5" font-family="Helvetica,sans-Serif" font-size="10.00">ocra&#45;wbi&#45;plugins/ocra&#45;icub&#45;clients/walking&#45;client/include/walking&#45;client/constraints/SingleSupport.h</text>
</a>
</g>
<!-- Node11&#45;&gt;Node26 -->
<g id="edge64" class="edge"><title>Node11&#45;&gt;Node26</title>
<path fill="none" stroke="midnightblue" d="M1868.86,-346.077C1826.88,-335.672 1768.62,-321.231 1729.46,-311.523"/>
<polygon fill="midnightblue" stroke="midnightblue" points="1868.08,-349.488 1878.62,-348.497 1869.76,-342.694 1868.08,-349.488"/>
</g>
<!-- Node28 -->
<g id="node63" class="node"><title>Node28</title>
<a xlink:href="SSDSAlternation_8h.html" target="_top" xlink:title="ocra&#45;wbi&#45;plugins/ocra&#45;icub&#45;clients/walking&#45;client/include/walking&#45;client/constraints/SSDSAlternation.h">
<polygon fill="white" stroke="black" points="1926,-290.5 1926,-311.5 2382,-311.5 2382,-290.5 1926,-290.5"/>
<text text-anchor="middle" x="2154" y="-298.5" font-family="Helvetica,sans-Serif" font-size="10.00">ocra&#45;wbi&#45;plugins/ocra&#45;icub&#45;clients/walking&#45;client/include/walking&#45;client/constraints/SSDSAlternation.h</text>
</a>
</g>
<!-- Node11&#45;&gt;Node28 -->
<g id="edge70" class="edge"><title>Node11&#45;&gt;Node28</title>
<path fill="none" stroke="midnightblue" d="M1972.92,-346.077C2014.71,-335.672 2072.73,-321.231 2111.73,-311.523"/>
<polygon fill="midnightblue" stroke="midnightblue" points="1972.05,-342.685 1963.19,-348.497 1973.74,-349.477 1972.05,-342.685"/>
</g>
<!-- Node12&#45;&gt;Node3 -->
<g id="edge24" class="edge"><title>Node12&#45;&gt;Node3</title>
<path fill="none" stroke="midnightblue" d="M2619.53,-231.955C2817.43,-221.472 3112.75,-205.83 3307.33,-195.523"/>
<polygon fill="midnightblue" stroke="midnightblue" points="2619.1,-228.473 2609.3,-232.497 2619.47,-235.463 2619.1,-228.473"/>
</g>
<!-- Node13 -->
<g id="node26" class="node"><title>Node13</title>
<a xlink:href="AdmissibilityConstraints_8cpp.html" target="_top" xlink:title="ocra&#45;wbi&#45;plugins/ocra&#45;icub&#45;clients/walking&#45;client/src/AdmissibilityConstraints.cpp">
<polygon fill="white" stroke="black" points="2227,-174.5 2227,-195.5 2595,-195.5 2595,-174.5 2227,-174.5"/>
<text text-anchor="middle" x="2411" y="-182.5" font-family="Helvetica,sans-Serif" font-size="10.00">ocra&#45;wbi&#45;plugins/ocra&#45;icub&#45;clients/walking&#45;client/src/AdmissibilityConstraints.cpp</text>
</a>
</g>
<!-- Node12&#45;&gt;Node13 -->
<g id="edge26" class="edge"><title>Node12&#45;&gt;Node13</title>
<path fill="none" stroke="midnightblue" d="M2411,-222.191C2411,-213.168 2411,-202.994 2411,-195.571"/>
<polygon fill="midnightblue" stroke="midnightblue" points="2407.5,-222.362 2411,-232.362 2414.5,-222.362 2407.5,-222.362"/>
</g>
<!-- Node14&#45;&gt;Node15 -->
<g id="edge30" class="edge"><title>Node14&#45;&gt;Node15</title>
<path fill="none" stroke="midnightblue" d="M352.799,-288.208C398.227,-277.794 461.574,-263.272 504.098,-253.523"/>
<polygon fill="midnightblue" stroke="midnightblue" points="351.781,-284.851 342.816,-290.497 353.346,-291.674 351.781,-284.851"/>
</g>
<!-- Node17 -->
<g id="node35" class="node"><title>Node17</title>
<a xlink:href="Bounding_8cpp.html" target="_top" xlink:title="ocra&#45;wbi&#45;plugins/ocra&#45;icub&#45;clients/walking&#45;client/src/Bounding.cpp">
<polygon fill="white" stroke="black" points="0,-232.5 0,-253.5 302,-253.5 302,-232.5 0,-232.5"/>
<text text-anchor="middle" x="151" y="-240.5" font-family="Helvetica,sans-Serif" font-size="10.00">ocra&#45;wbi&#45;plugins/ocra&#45;icub&#45;clients/walking&#45;client/src/Bounding.cpp</text>
</a>
</g>
<!-- Node14&#45;&gt;Node17 -->
<g id="edge36" class="edge"><title>Node14&#45;&gt;Node17</title>
<path fill="none" stroke="midnightblue" d="M261.132,-286.751C235.349,-276.509 201.145,-262.921 177.736,-253.621"/>
<polygon fill="midnightblue" stroke="midnightblue" points="259.975,-290.057 270.561,-290.497 262.559,-283.552 259.975,-290.057"/>
</g>
<!-- Node15&#45;&gt;Node3 -->
<g id="edge32" class="edge"><title>Node15&#45;&gt;Node3</title>
<path fill="none" stroke="midnightblue" d="M784.411,-232.147C785.946,-232.097 787.476,-232.048 789,-232 1266.87,-216.873 2691.23,-196.237 3263.75,-188.298"/>
<polygon fill="midnightblue" stroke="midnightblue" points="784.091,-228.656 774.214,-232.489 784.326,-235.652 784.091,-228.656"/>
</g>
<!-- Node16 -->
<g id="node33" class="node"><title>Node16</title>
<a xlink:href="ShapeConstraints_8cpp.html" target="_top" xlink:title="ocra&#45;wbi&#45;plugins/ocra&#45;icub&#45;clients/walking&#45;client/src/ShapeConstraints.cpp">
<polygon fill="white" stroke="black" points="380,-174.5 380,-195.5 720,-195.5 720,-174.5 380,-174.5"/>
<text text-anchor="middle" x="550" y="-182.5" font-family="Helvetica,sans-Serif" font-size="10.00">ocra&#45;wbi&#45;plugins/ocra&#45;icub&#45;clients/walking&#45;client/src/ShapeConstraints.cpp</text>
</a>
</g>
<!-- Node15&#45;&gt;Node16 -->
<g id="edge34" class="edge"><title>Node15&#45;&gt;Node16</title>
<path fill="none" stroke="midnightblue" d="M550,-222.191C550,-213.168 550,-202.994 550,-195.571"/>
<polygon fill="midnightblue" stroke="midnightblue" points="546.5,-222.362 550,-232.362 553.5,-222.362 546.5,-222.362"/>
</g>
<!-- Node18&#45;&gt;Node15 -->
<g id="edge40" class="edge"><title>Node18&#45;&gt;Node15</title>
<path fill="none" stroke="midnightblue" d="M726.939,-288.011C686.057,-277.611 629.447,-263.21 591.367,-253.523"/>
<polygon fill="midnightblue" stroke="midnightblue" points="726.157,-291.423 736.711,-290.497 727.882,-284.639 726.157,-291.423"/>
</g>
<!-- Node19 -->
<g id="node40" class="node"><title>Node19</title>
<a xlink:href="Constancy_8cpp.html" target="_top" xlink:title="ocra&#45;wbi&#45;plugins/ocra&#45;icub&#45;clients/walking&#45;client/src/Constancy.cpp">
<polygon fill="white" stroke="black" points="797.5,-232.5 797.5,-253.5 1106.5,-253.5 1106.5,-232.5 797.5,-232.5"/>
<text text-anchor="middle" x="952" y="-240.5" font-family="Helvetica,sans-Serif" font-size="10.00">ocra&#45;wbi&#45;plugins/ocra&#45;icub&#45;clients/walking&#45;client/src/Constancy.cpp</text>
</a>
</g>
<!-- Node18&#45;&gt;Node19 -->
<g id="edge42" class="edge"><title>Node18&#45;&gt;Node19</title>
<path fill="none" stroke="midnightblue" d="M819.164,-287.279C850.169,-276.944 892.045,-262.985 920.431,-253.523"/>
<polygon fill="midnightblue" stroke="midnightblue" points="817.89,-284.014 809.51,-290.497 820.104,-290.655 817.89,-284.014"/>
</g>
<!-- Node20&#45;&gt;Node12 -->
<g id="edge46" class="edge"><title>Node20&#45;&gt;Node12</title>
<path fill="none" stroke="midnightblue" d="M2627.85,-288.404C2578.05,-277.977 2508.11,-263.333 2461.26,-253.523"/>
<polygon fill="midnightblue" stroke="midnightblue" points="2627.33,-291.873 2637.84,-290.497 2628.77,-285.021 2627.33,-291.873"/>
</g>
<!-- Node21 -->
<g id="node45" class="node"><title>Node21</title>
<a xlink:href="ContactConfigEnforcement_8cpp.html" target="_top" xlink:title="ocra&#45;wbi&#45;plugins/ocra&#45;icub&#45;clients/walking&#45;client/src/ContactConfigEnforcement.cpp">
<polygon fill="white" stroke="black" points="2673,-232.5 2673,-253.5 3053,-253.5 3053,-232.5 2673,-232.5"/>
<text text-anchor="middle" x="2863" y="-240.5" font-family="Helvetica,sans-Serif" font-size="10.00">ocra&#45;wbi&#45;plugins/ocra&#45;icub&#45;clients/walking&#45;client/src/ContactConfigEnforcement.cpp</text>
</a>
</g>
<!-- Node20&#45;&gt;Node21 -->
<g id="edge48" class="edge"><title>Node20&#45;&gt;Node21</title>
<path fill="none" stroke="midnightblue" d="M2729.4,-287.279C2760.58,-276.944 2802.7,-262.985 2831.25,-253.523"/>
<polygon fill="midnightblue" stroke="midnightblue" points="2728.08,-284.028 2719.69,-290.497 2730.28,-290.673 2728.08,-284.028"/>
</g>
<!-- Node22&#45;&gt;Node12 -->
<g id="edge52" class="edge"><title>Node22&#45;&gt;Node12</title>
<path fill="none" stroke="midnightblue" d="M3042.14,-289.751C2900.65,-279.27 2691.3,-263.763 2553.06,-253.523"/>
<polygon fill="midnightblue" stroke="midnightblue" points="3041.97,-293.248 3052.2,-290.497 3042.49,-286.267 3041.97,-293.248"/>
</g>
<!-- Node23 -->
<g id="node50" class="node"><title>Node23</title>
<a xlink:href="ContactConfigHistory_8cpp.html" target="_top" xlink:title="ocra&#45;wbi&#45;plugins/ocra&#45;icub&#45;clients/walking&#45;client/src/ContactConfigHistory.cpp">
<polygon fill="white" stroke="black" points="3071,-232.5 3071,-253.5 3427,-253.5 3427,-232.5 3071,-232.5"/>
<text text-anchor="middle" x="3249" y="-240.5" font-family="Helvetica,sans-Serif" font-size="10.00">ocra&#45;wbi&#45;plugins/ocra&#45;icub&#45;clients/walking&#45;client/src/ContactConfigHistory.cpp</text>
</a>
</g>
<!-- Node22&#45;&gt;Node23 -->
<g id="edge54" class="edge"><title>Node22&#45;&gt;Node23</title>
<path fill="none" stroke="midnightblue" d="M3211.23,-282.83C3220.35,-273.208 3231.24,-261.728 3238.98,-253.571"/>
<polygon fill="midnightblue" stroke="midnightblue" points="3208.43,-280.697 3204.09,-290.362 3213.51,-285.514 3208.43,-280.697"/>
</g>
<!-- Node24&#45;&gt;Node15 -->
<g id="edge58" class="edge"><title>Node24&#45;&gt;Node15</title>
<path fill="none" stroke="midnightblue" d="M1095.83,-289.625C973.162,-279.146 792.592,-263.722 673.192,-253.523"/>
<polygon fill="midnightblue" stroke="midnightblue" points="1095.78,-293.133 1106.04,-290.497 1096.37,-286.158 1095.78,-293.133"/>
</g>
<!-- Node25 -->
<g id="node55" class="node"><title>Node25</title>
<a xlink:href="Sequentiality_8cpp.html" target="_top" xlink:title="ocra&#45;wbi&#45;plugins/ocra&#45;icub&#45;clients/walking&#45;client/src/Sequentiality.cpp">
<polygon fill="white" stroke="black" points="1124,-232.5 1124,-253.5 1442,-253.5 1442,-232.5 1124,-232.5"/>
<text text-anchor="middle" x="1283" y="-240.5" font-family="Helvetica,sans-Serif" font-size="10.00">ocra&#45;wbi&#45;plugins/ocra&#45;icub&#45;clients/walking&#45;client/src/Sequentiality.cpp</text>
</a>
</g>
<!-- Node24&#45;&gt;Node25 -->
<g id="edge60" class="edge"><title>Node24&#45;&gt;Node25</title>
<path fill="none" stroke="midnightblue" d="M1245.92,-282.83C1254.88,-273.208 1265.56,-261.728 1273.16,-253.571"/>
<polygon fill="midnightblue" stroke="midnightblue" points="1243.16,-280.658 1238.9,-290.362 1248.28,-285.428 1243.16,-280.658"/>
</g>
<!-- Node26&#45;&gt;Node12 -->
<g id="edge66" class="edge"><title>Node26&#45;&gt;Node12</title>
<path fill="none" stroke="midnightblue" d="M1828.21,-289.688C1959.02,-279.208 2152.07,-263.743 2279.64,-253.523"/>
<polygon fill="midnightblue" stroke="midnightblue" points="1827.8,-286.209 1818.11,-290.497 1828.36,-293.187 1827.8,-286.209"/>
</g>
<!-- Node27 -->
<g id="node61" class="node"><title>Node27</title>
<a xlink:href="SingleSupport_8cpp.html" target="_top" xlink:title="ocra&#45;wbi&#45;plugins/ocra&#45;icub&#45;clients/walking&#45;client/src/SingleSupport.cpp">
<polygon fill="white" stroke="black" points="1472.5,-232.5 1472.5,-253.5 1795.5,-253.5 1795.5,-232.5 1472.5,-232.5"/>
<text text-anchor="middle" x="1634" y="-240.5" font-family="Helvetica,sans-Serif" font-size="10.00">ocra&#45;wbi&#45;plugins/ocra&#45;icub&#45;clients/walking&#45;client/src/SingleSupport.cpp</text>
</a>
</g>
<!-- Node26&#45;&gt;Node27 -->
<g id="edge68" class="edge"><title>Node26&#45;&gt;Node27</title>
<path fill="none" stroke="midnightblue" d="M1670.4,-282.83C1661.6,-273.208 1651.11,-261.728 1643.66,-253.571"/>
<polygon fill="midnightblue" stroke="midnightblue" points="1667.95,-285.341 1677.28,-290.362 1673.12,-280.619 1667.95,-285.341"/>
</g>
<!-- Node28&#45;&gt;Node12 -->
<g id="edge72" class="edge"><title>Node28&#45;&gt;Node12</title>
<path fill="none" stroke="midnightblue" d="M2210.39,-288.274C2256.56,-277.855 2321.09,-263.292 2364.37,-253.523"/>
<polygon fill="midnightblue" stroke="midnightblue" points="2209.52,-284.881 2200.54,-290.497 2211.07,-291.709 2209.52,-284.881"/>
</g>
<!-- Node29 -->
<g id="node66" class="node"><title>Node29</title>
<a xlink:href="SSDSAlternation_8cpp.html" target="_top" xlink:title="ocra&#45;wbi&#45;plugins/ocra&#45;icub&#45;clients/walking&#45;client/src/SSDSAlternation.cpp">
<polygon fill="white" stroke="black" points="1813,-232.5 1813,-253.5 2149,-253.5 2149,-232.5 1813,-232.5"/>
<text text-anchor="middle" x="1981" y="-240.5" font-family="Helvetica,sans-Serif" font-size="10.00">ocra&#45;wbi&#45;plugins/ocra&#45;icub&#45;clients/walking&#45;client/src/SSDSAlternation.cpp</text>
</a>
</g>
<!-- Node28&#45;&gt;Node29 -->
<g id="edge74" class="edge"><title>Node28&#45;&gt;Node29</title>
<path fill="none" stroke="midnightblue" d="M2113.07,-287.279C2082.25,-276.944 2040.61,-262.985 2012.39,-253.523"/>
<polygon fill="midnightblue" stroke="midnightblue" points="2112.08,-290.636 2122.67,-290.497 2114.3,-283.999 2112.08,-290.636"/>
</g>
<!-- Node30&#45;&gt;Node2 -->
<g id="edge82" class="edge"><title>Node30&#45;&gt;Node2</title>
<path fill="none" stroke="midnightblue" d="M3879.75,-287.945C3919.35,-277.55 3974.07,-263.19 4010.9,-253.523"/>
<polygon fill="midnightblue" stroke="midnightblue" points="3878.81,-284.573 3870.02,-290.497 3880.58,-291.343 3878.81,-284.573"/>
</g>
<!-- Node30&#45;&gt;Node4 -->
<g id="edge84" class="edge"><title>Node30&#45;&gt;Node4</title>
<path fill="none" stroke="midnightblue" d="M3830.81,-280.235C3833.23,-250.637 3842.56,-197.323 3878,-174 3905.87,-155.663 3974.05,-144.391 4042.35,-137.505"/>
<polygon fill="midnightblue" stroke="midnightblue" points="3827.31,-280.107 3830.18,-290.306 3834.3,-280.543 3827.31,-280.107"/>
</g>
<!-- Node31 -->
<g id="node74" class="node"><title>Node31</title>
<a xlink:href="MIQPState_8cpp.html" target="_top" xlink:title="ocra&#45;wbi&#45;plugins/ocra&#45;icub&#45;clients/walking&#45;client/src/MIQPState.cpp">
<polygon fill="white" stroke="black" points="3485.5,-232.5 3485.5,-253.5 3796.5,-253.5 3796.5,-232.5 3485.5,-232.5"/>
<text text-anchor="middle" x="3641" y="-240.5" font-family="Helvetica,sans-Serif" font-size="10.00">ocra&#45;wbi&#45;plugins/ocra&#45;icub&#45;clients/walking&#45;client/src/MIQPState.cpp</text>
</a>
</g>
<!-- Node30&#45;&gt;Node31 -->
<g id="edge86" class="edge"><title>Node30&#45;&gt;Node31</title>
<path fill="none" stroke="midnightblue" d="M3786.16,-287.546C3752.4,-277.186 3706.39,-263.067 3675.29,-253.523"/>
<polygon fill="midnightblue" stroke="midnightblue" points="3785.19,-290.909 3795.77,-290.497 3787.24,-284.217 3785.19,-290.909"/>
</g>
<!-- Node32&#45;&gt;Node2 -->
<g id="edge90" class="edge"><title>Node32&#45;&gt;Node2</title>
<path fill="none" stroke="midnightblue" d="M4226.39,-288.011C4185.86,-277.611 4129.75,-263.21 4092,-253.523"/>
<polygon fill="midnightblue" stroke="midnightblue" points="4225.52,-291.401 4236.07,-290.497 4227.26,-284.621 4225.52,-291.401"/>
</g>
<!-- Node32&#45;&gt;Node3 -->
<g id="edge92" class="edge"><title>Node32&#45;&gt;Node3</title>
<path fill="none" stroke="midnightblue" d="M4277.61,-279.98C4276.83,-264.218 4272.92,-243.463 4259,-232 4239.17,-215.664 3960.66,-201.694 3748.09,-193.328"/>
<polygon fill="midnightblue" stroke="midnightblue" points="4274.11,-280.411 4277.72,-290.371 4281.11,-280.333 4274.11,-280.411"/>
</g>
<!-- Node32&#45;&gt;Node5 -->
<g id="edge94" class="edge"><title>Node32&#45;&gt;Node5</title>
<path fill="none" stroke="midnightblue" d="M4454.58,-289.523C4529.36,-282.329 4606.53,-271.084 4639,-254 4719.96,-211.407 4780.67,-112.487 4799.15,-79.7419"/>
<polygon fill="midnightblue" stroke="midnightblue" points="4454.15,-286.047 4444.52,-290.467 4454.81,-293.016 4454.15,-286.047"/>
</g>
<!-- Node33 -->
<g id="node81" class="node"><title>Node33</title>
<a xlink:href="StepController_8cpp.html" target="_top" xlink:title="ocra&#45;wbi&#45;plugins/ocra&#45;icub&#45;clients/walking&#45;client/src/StepController.cpp">
<polygon fill="white" stroke="black" points="4306,-232.5 4306,-253.5 4630,-253.5 4630,-232.5 4306,-232.5"/>
<text text-anchor="middle" x="4468" y="-240.5" font-family="Helvetica,sans-Serif" font-size="10.00">ocra&#45;wbi&#45;plugins/ocra&#45;icub&#45;clients/walking&#45;client/src/StepController.cpp</text>
</a>
</g>
<!-- Node32&#45;&gt;Node33 -->
<g id="edge96" class="edge"><title>Node32&#45;&gt;Node33</title>
<path fill="none" stroke="midnightblue" d="M4321.3,-287.546C4355.42,-277.186 4401.92,-263.067 4433.35,-253.523"/>
<polygon fill="midnightblue" stroke="midnightblue" points="4320.14,-284.242 4311.59,-290.497 4322.17,-290.94 4320.14,-284.242"/>
</g>
<!-- Node34&#45;&gt;Node5 -->
<g id="edge102" class="edge"><title>Node34&#45;&gt;Node5</title>
<path fill="none" stroke="midnightblue" d="M4798.54,-346.41C4838.05,-338.082 4881.92,-326.113 4896,-312 4918.46,-289.48 4915,-274.808 4915,-243 4915,-243 4915,-243 4915,-185 4915,-134.21 4858.79,-96.7579 4826.73,-79.5281"/>
<polygon fill="midnightblue" stroke="midnightblue" points="4797.7,-343.009 4788.61,-348.447 4799.11,-349.866 4797.7,-343.009"/>
</g>
<!-- Node35 -->
<g id="node87" class="node"><title>Node35</title>
<a xlink:href="ZmpPreviewController_8cpp.html" target="_top" xlink:title="ocra&#45;wbi&#45;plugins/ocra&#45;icub&#45;clients/walking&#45;client/src/ZmpPreviewController.cpp">
<polygon fill="white" stroke="black" points="4528.5,-290.5 4528.5,-311.5 4887.5,-311.5 4887.5,-290.5 4528.5,-290.5"/>
<text text-anchor="middle" x="4708" y="-298.5" font-family="Helvetica,sans-Serif" font-size="10.00">ocra&#45;wbi&#45;plugins/ocra&#45;icub&#45;clients/walking&#45;client/src/ZmpPreviewController.cpp</text>
</a>
</g>
<!-- Node34&#45;&gt;Node35 -->
<g id="edge104" class="edge"><title>Node34&#45;&gt;Node35</title>
<path fill="none" stroke="midnightblue" d="M4720.38,-338.784C4717.37,-329.617 4713.95,-319.157 4711.46,-311.571"/>
<polygon fill="midnightblue" stroke="midnightblue" points="4717.08,-339.948 4723.52,-348.362 4723.73,-337.769 4717.08,-339.948"/>
</g>
</g>
</svg>
