<?xml version="1.0" encoding="UTF-8" standalone="no"?>
<!DOCTYPE svg PUBLIC "-//W3C//DTD SVG 1.1//EN"
 "http://www.w3.org/Graphics/SVG/1.1/DTD/svg11.dtd">
<!-- Generated by graphviz version 2.26.3 (20100126.1600)
 -->
<!-- Title: G Pages: 1 -->
<svg width="4643pt" height="436pt"
 viewBox="0.00 0.00 4642.96 436.00" xmlns="http://www.w3.org/2000/svg" xmlns:xlink="http://www.w3.org/1999/xlink">
<g id="graph1" class="graph" transform="scale(1 1) rotate(0) translate(4 432)">
<title>G</title>
<polygon fill="white" stroke="white" points="-4,5 -4,-432 4639.96,-432 4639.96,5 -4,5"/>
<!-- Node1 -->
<g id="node1" class="node"><title>Node1</title>
<polygon fill="#bfbfbf" stroke="black" points="2890.46,-406.5 2890.46,-427.5 3239.46,-427.5 3239.46,-406.5 2890.46,-406.5"/>
<text text-anchor="middle" x="3064.96" y="-414.5" font-family="Helvetica,sans-Serif" font-size="10.00">ocra&#45;wbi&#45;plugins/ocra&#45;icub&#45;clients/walking&#45;client/include/walking&#45;client/utils.h</text>
</g>
<!-- Node2 -->
<g id="node3" class="node"><title>Node2</title>
<a xlink:href="Constraint_8h.html" target="_top" xlink:title="A constraint base class.">
<polygon fill="white" stroke="black" points="2147.46,-348.5 2147.46,-369.5 2574.46,-369.5 2574.46,-348.5 2147.46,-348.5"/>
<text text-anchor="middle" x="2360.96" y="-356.5" font-family="Helvetica,sans-Serif" font-size="10.00">ocra&#45;wbi&#45;plugins/ocra&#45;icub&#45;clients/walking&#45;client/include/walking&#45;client/constraints/Constraint.h</text>
</a>
</g>
<!-- Node1&#45;&gt;Node2 -->
<g id="edge2" class="edge"><title>Node1&#45;&gt;Node2</title>
<path fill="none" stroke="midnightblue" d="M2927.27,-405.656C2800.08,-395.177 2612.61,-379.732 2488.69,-369.523"/>
<polygon fill="midnightblue" stroke="midnightblue" points="2927.22,-409.164 2937.47,-406.497 2927.79,-402.187 2927.22,-409.164"/>
</g>
<!-- Node5 -->
<g id="node9" class="node"><title>Node5</title>
<a xlink:href="MIQPController_8h.html" target="_top" xlink:title="A thread for launching trajectory generators.">
<polygon fill="white" stroke="black" points="408.96,-116.5 408.96,-137.5 806.96,-137.5 806.96,-116.5 408.96,-116.5"/>
<text text-anchor="middle" x="607.96" y="-124.5" font-family="Helvetica,sans-Serif" font-size="10.00">ocra&#45;wbi&#45;plugins/ocra&#45;icub&#45;clients/walking&#45;client/include/walking&#45;client/MIQPController.h</text>
</a>
</g>
<!-- Node1&#45;&gt;Node5 -->
<g id="edge70" class="edge"><title>Node1&#45;&gt;Node5</title>
<path fill="none" stroke="midnightblue" d="M2880.4,-415.577C2225.67,-410.349 51.7696,-391.396 22.9602,-370 -2.88055,-350.809 0.960184,-333.188 0.960184,-301 0.960184,-301 0.960184,-301 0.960184,-243 0.960184,-193.513 316.244,-155.105 492.359,-137.511"/>
<polygon fill="midnightblue" stroke="midnightblue" points="2880.37,-419.076 2890.4,-415.656 2880.43,-412.077 2880.37,-419.076"/>
</g>
<!-- Node6 -->
<g id="node11" class="node"><title>Node6</title>
<a xlink:href="WalkingClient_8h.html" target="_top" xlink:title="ocra&#45;wbi&#45;plugins/ocra&#45;icub&#45;clients/walking&#45;client/include/walking&#45;client/WalkingClient.h">
<polygon fill="white" stroke="black" points="3784.96,-58.5 3784.96,-79.5 4176.96,-79.5 4176.96,-58.5 3784.96,-58.5"/>
<text text-anchor="middle" x="3980.96" y="-66.5" font-family="Helvetica,sans-Serif" font-size="10.00">ocra&#45;wbi&#45;plugins/ocra&#45;icub&#45;clients/walking&#45;client/include/walking&#45;client/WalkingClient.h</text>
</a>
</g>
<!-- Node1&#45;&gt;Node6 -->
<g id="edge84" class="edge"><title>Node1&#45;&gt;Node6</title>
<path fill="none" stroke="midnightblue" d="M3212.79,-405.573C3385.45,-390.29 3659.06,-359.485 3749.96,-312 3862.43,-253.246 3950.86,-118.344 3974.64,-79.5893"/>
<polygon fill="midnightblue" stroke="midnightblue" points="3212.25,-402.107 3202.59,-406.468 3212.86,-409.08 3212.25,-402.107"/>
</g>
<!-- Node28 -->
<g id="node64" class="node"><title>Node28</title>
<a xlink:href="MIQPState_8h.html" target="_top" xlink:title="ocra&#45;wbi&#45;plugins/ocra&#45;icub&#45;clients/walking&#45;client/include/walking&#45;client/MIQPState.h">
<polygon fill="white" stroke="black" points="31.9602,-348.5 31.9602,-369.5 411.96,-369.5 411.96,-348.5 31.9602,-348.5"/>
<text text-anchor="middle" x="221.96" y="-356.5" font-family="Helvetica,sans-Serif" font-size="10.00">ocra&#45;wbi&#45;plugins/ocra&#45;icub&#45;clients/walking&#45;client/include/walking&#45;client/MIQPState.h</text>
</a>
</g>
<!-- Node1&#45;&gt;Node28 -->
<g id="edge72" class="edge"><title>Node1&#45;&gt;Node28</title>
<path fill="none" stroke="midnightblue" d="M2880.25,-413.232C2367.76,-402.776 931.657,-373.479 412.374,-362.885"/>
<polygon fill="midnightblue" stroke="midnightblue" points="2880.26,-416.733 2890.33,-413.437 2880.41,-409.734 2880.26,-416.733"/>
</g>
<!-- Node30 -->
<g id="node69" class="node"><title>Node30</title>
<a xlink:href="StepController_8h.html" target="_top" xlink:title="ocra&#45;wbi&#45;plugins/ocra&#45;icub&#45;clients/walking&#45;client/include/walking&#45;client/StepController.h">
<polygon fill="white" stroke="black" points="4242.46,-348.5 4242.46,-369.5 4635.46,-369.5 4635.46,-348.5 4242.46,-348.5"/>
<text text-anchor="middle" x="4438.96" y="-356.5" font-family="Helvetica,sans-Serif" font-size="10.00">ocra&#45;wbi&#45;plugins/ocra&#45;icub&#45;clients/walking&#45;client/include/walking&#45;client/StepController.h</text>
</a>
</g>
<!-- Node1&#45;&gt;Node30 -->
<g id="edge78" class="edge"><title>Node1&#45;&gt;Node30</title>
<path fill="none" stroke="midnightblue" d="M3249.93,-410.33C3480.43,-401.842 3886.35,-386.313 4233.96,-370 4237.43,-369.837 4240.94,-369.671 4244.47,-369.501"/>
<polygon fill="midnightblue" stroke="midnightblue" points="3249.64,-406.839 3239.77,-410.704 3249.89,-413.834 3249.64,-406.839"/>
</g>
<!-- Node32 -->
<g id="node75" class="node"><title>Node32</title>
<a xlink:href="ZmpPreviewController_8h.html" target="_top" xlink:title="ocra&#45;wbi&#45;plugins/ocra&#45;icub&#45;clients/walking&#45;client/include/walking&#45;client/ZmpPreviewController.h">
<polygon fill="white" stroke="black" points="3796.96,-348.5 3796.96,-369.5 4224.96,-369.5 4224.96,-348.5 3796.96,-348.5"/>
<text text-anchor="middle" x="4010.96" y="-356.5" font-family="Helvetica,sans-Serif" font-size="10.00">ocra&#45;wbi&#45;plugins/ocra&#45;icub&#45;clients/walking&#45;client/include/walking&#45;client/ZmpPreviewController.h</text>
</a>
</g>
<!-- Node1&#45;&gt;Node32 -->
<g id="edge86" class="edge"><title>Node1&#45;&gt;Node32</title>
<path fill="none" stroke="midnightblue" d="M3246.39,-405.876C3417.35,-395.394 3671.64,-379.804 3839.33,-369.523"/>
<polygon fill="midnightblue" stroke="midnightblue" points="3246.04,-402.391 3236.27,-406.497 3246.47,-409.378 3246.04,-402.391"/>
</g>
<!-- Node3 -->
<g id="node5" class="node"><title>Node3</title>
<a xlink:href="AdmissibilityConstraints_8h.html" target="_top" xlink:title="ocra&#45;wbi&#45;plugins/ocra&#45;icub&#45;clients/walking&#45;client/include/walking&#45;client/constraints/AdmissibilityConstraints.h">
<polygon fill="white" stroke="black" points="1108.96,-232.5 1108.96,-253.5 1596.96,-253.5 1596.96,-232.5 1108.96,-232.5"/>
<text text-anchor="middle" x="1352.96" y="-240.5" font-family="Helvetica,sans-Serif" font-size="10.00">ocra&#45;wbi&#45;plugins/ocra&#45;icub&#45;clients/walking&#45;client/include/walking&#45;client/constraints/AdmissibilityConstraints.h</text>
</a>
</g>
<!-- Node2&#45;&gt;Node3 -->
<g id="edge4" class="edge"><title>Node2&#45;&gt;Node3</title>
<path fill="none" stroke="midnightblue" d="M2137.18,-355.013C1884.3,-349.346 1499.43,-336.775 1435.96,-312 1404.02,-299.531 1375.33,-269.629 1361.57,-253.59"/>
<polygon fill="midnightblue" stroke="midnightblue" points="2137.17,-358.514 2147.25,-355.237 2137.33,-351.515 2137.17,-358.514"/>
</g>
<!-- Node12 -->
<g id="node23" class="node"><title>Node12</title>
<a xlink:href="Bounding_8h.html" target="_top" xlink:title="ocra&#45;wbi&#45;plugins/ocra&#45;icub&#45;clients/walking&#45;client/include/walking&#45;client/constraints/Bounding.h">
<polygon fill="white" stroke="black" points="2378.96,-290.5 2378.96,-311.5 2800.96,-311.5 2800.96,-290.5 2378.96,-290.5"/>
<text text-anchor="middle" x="2589.96" y="-298.5" font-family="Helvetica,sans-Serif" font-size="10.00">ocra&#45;wbi&#45;plugins/ocra&#45;icub&#45;clients/walking&#45;client/include/walking&#45;client/constraints/Bounding.h</text>
</a>
</g>
<!-- Node2&#45;&gt;Node12 -->
<g id="edge22" class="edge"><title>Node2&#45;&gt;Node12</title>
<path fill="none" stroke="midnightblue" d="M2412.25,-346.011C2453.31,-335.611 2510.16,-321.21 2548.41,-311.523"/>
<polygon fill="midnightblue" stroke="midnightblue" points="2411.26,-342.648 2402.43,-348.497 2412.98,-349.434 2411.26,-342.648"/>
</g>
<!-- Node13 -->
<g id="node25" class="node"><title>Node13</title>
<a xlink:href="ShapeConstraints_8h.html" target="_top" xlink:title="ocra&#45;wbi&#45;plugins/ocra&#45;icub&#45;clients/walking&#45;client/include/walking&#45;client/constraints/ShapeConstraints.h">
<polygon fill="white" stroke="black" points="2954.96,-232.5 2954.96,-253.5 3414.96,-253.5 3414.96,-232.5 2954.96,-232.5"/>
<text text-anchor="middle" x="3184.96" y="-240.5" font-family="Helvetica,sans-Serif" font-size="10.00">ocra&#45;wbi&#45;plugins/ocra&#45;icub&#45;clients/walking&#45;client/include/walking&#45;client/constraints/ShapeConstraints.h</text>
</a>
</g>
<!-- Node2&#45;&gt;Node13 -->
<g id="edge56" class="edge"><title>Node2&#45;&gt;Node13</title>
<path fill="none" stroke="midnightblue" d="M2584.86,-354.853C2842.43,-348.959 3233.1,-336.095 3255.96,-312 3276.19,-290.679 3237.72,-267.055 3209.94,-253.718"/>
<polygon fill="midnightblue" stroke="midnightblue" points="2584.53,-351.36 2574.61,-355.086 2584.69,-358.358 2584.53,-351.36"/>
</g>
<!-- Node16 -->
<g id="node32" class="node"><title>Node16</title>
<a xlink:href="Constancy_8h.html" target="_top" xlink:title="ocra&#45;wbi&#45;plugins/ocra&#45;icub&#45;clients/walking&#45;client/include/walking&#45;client/constraints/Constancy.h">
<polygon fill="white" stroke="black" points="2818.46,-290.5 2818.46,-311.5 3247.46,-311.5 3247.46,-290.5 2818.46,-290.5"/>
<text text-anchor="middle" x="3032.96" y="-298.5" font-family="Helvetica,sans-Serif" font-size="10.00">ocra&#45;wbi&#45;plugins/ocra&#45;icub&#45;clients/walking&#45;client/include/walking&#45;client/constraints/Constancy.h</text>
</a>
</g>
<!-- Node2&#45;&gt;Node16 -->
<g id="edge32" class="edge"><title>Node2&#45;&gt;Node16</title>
<path fill="none" stroke="midnightblue" d="M2492.75,-347.625C2614.16,-337.146 2792.87,-321.722 2911.04,-311.523"/>
<polygon fill="midnightblue" stroke="midnightblue" points="2492.32,-344.15 2482.65,-348.497 2492.92,-351.124 2492.32,-344.15"/>
</g>
<!-- Node18 -->
<g id="node37" class="node"><title>Node18</title>
<a xlink:href="ContactConfigEnforcement_8h.html" target="_top" xlink:title="ocra&#45;wbi&#45;plugins/ocra&#45;icub&#45;clients/walking&#45;client/include/walking&#45;client/constraints/ContactConfigEnforcement.h">
<polygon fill="white" stroke="black" points="394.96,-290.5 394.96,-311.5 894.96,-311.5 894.96,-290.5 394.96,-290.5"/>
<text text-anchor="middle" x="644.96" y="-298.5" font-family="Helvetica,sans-Serif" font-size="10.00">ocra&#45;wbi&#45;plugins/ocra&#45;icub&#45;clients/walking&#45;client/include/walking&#45;client/constraints/ContactConfigEnforcement.h</text>
</a>
</g>
<!-- Node2&#45;&gt;Node18 -->
<g id="edge38" class="edge"><title>Node2&#45;&gt;Node18</title>
<path fill="none" stroke="midnightblue" d="M2137.3,-352.493C1851.29,-344.01 1340.74,-328.319 903.96,-312 899.688,-311.84 895.375,-311.677 891.033,-311.512"/>
<polygon fill="midnightblue" stroke="midnightblue" points="2137.28,-355.994 2147.38,-352.792 2137.49,-348.997 2137.28,-355.994"/>
</g>
<!-- Node20 -->
<g id="node42" class="node"><title>Node20</title>
<a xlink:href="ContactConfigHistory_8h.html" target="_top" xlink:title="ocra&#45;wbi&#45;plugins/ocra&#45;icub&#45;clients/walking&#45;client/include/walking&#45;client/constraints/ContactConfigHistory.h">
<polygon fill="white" stroke="black" points="912.96,-290.5 912.96,-311.5 1388.96,-311.5 1388.96,-290.5 912.96,-290.5"/>
<text text-anchor="middle" x="1150.96" y="-298.5" font-family="Helvetica,sans-Serif" font-size="10.00">ocra&#45;wbi&#45;plugins/ocra&#45;icub&#45;clients/walking&#45;client/include/walking&#45;client/constraints/ContactConfigHistory.h</text>
</a>
</g>
<!-- Node2&#45;&gt;Node20 -->
<g id="edge44" class="edge"><title>Node2&#45;&gt;Node20</title>
<path fill="none" stroke="midnightblue" d="M2137.41,-348.284C1918.58,-337.795 1587.29,-321.915 1370.02,-311.5"/>
<polygon fill="midnightblue" stroke="midnightblue" points="2137.27,-351.781 2147.42,-348.764 2137.6,-344.789 2137.27,-351.781"/>
</g>
<!-- Node22 -->
<g id="node47" class="node"><title>Node22</title>
<a xlink:href="Sequentiality_8h.html" target="_top" xlink:title="ocra&#45;wbi&#45;plugins/ocra&#45;icub&#45;clients/walking&#45;client/include/walking&#45;client/constraints/Sequentiality.h">
<polygon fill="white" stroke="black" points="3302.96,-290.5 3302.96,-311.5 3740.96,-311.5 3740.96,-290.5 3302.96,-290.5"/>
<text text-anchor="middle" x="3521.96" y="-298.5" font-family="Helvetica,sans-Serif" font-size="10.00">ocra&#45;wbi&#45;plugins/ocra&#45;icub&#45;clients/walking&#45;client/include/walking&#45;client/constraints/Sequentiality.h</text>
</a>
</g>
<!-- Node2&#45;&gt;Node22 -->
<g id="edge50" class="edge"><title>Node2&#45;&gt;Node22</title>
<path fill="none" stroke="midnightblue" d="M2581.43,-347.986C2791.27,-337.503 3104.8,-321.84 3311.32,-311.523"/>
<polygon fill="midnightblue" stroke="midnightblue" points="2581.02,-344.502 2571.21,-348.497 2581.37,-351.493 2581.02,-344.502"/>
</g>
<!-- Node24 -->
<g id="node53" class="node"><title>Node24</title>
<a xlink:href="SingleSupport_8h.html" target="_top" xlink:title="ocra&#45;wbi&#45;plugins/ocra&#45;icub&#45;clients/walking&#45;client/include/walking&#45;client/constraints/SingleSupport.h">
<polygon fill="white" stroke="black" points="1444.46,-290.5 1444.46,-311.5 1887.46,-311.5 1887.46,-290.5 1444.46,-290.5"/>
<text text-anchor="middle" x="1665.96" y="-298.5" font-family="Helvetica,sans-Serif" font-size="10.00">ocra&#45;wbi&#45;plugins/ocra&#45;icub&#45;clients/walking&#45;client/include/walking&#45;client/constraints/SingleSupport.h</text>
</a>
</g>
<!-- Node2&#45;&gt;Node24 -->
<g id="edge58" class="edge"><title>Node2&#45;&gt;Node24</title>
<path fill="none" stroke="midnightblue" d="M2225.03,-347.656C2099.46,-337.177 1914.39,-321.732 1792.06,-311.523"/>
<polygon fill="midnightblue" stroke="midnightblue" points="2224.84,-351.153 2235.1,-348.497 2225.43,-344.177 2224.84,-351.153"/>
</g>
<!-- Node26 -->
<g id="node58" class="node"><title>Node26</title>
<a xlink:href="SSDSAlternation_8h.html" target="_top" xlink:title="ocra&#45;wbi&#45;plugins/ocra&#45;icub&#45;clients/walking&#45;client/include/walking&#45;client/constraints/SSDSAlternation.h">
<polygon fill="white" stroke="black" points="1904.96,-290.5 1904.96,-311.5 2360.96,-311.5 2360.96,-290.5 1904.96,-290.5"/>
<text text-anchor="middle" x="2132.96" y="-298.5" font-family="Helvetica,sans-Serif" font-size="10.00">ocra&#45;wbi&#45;plugins/ocra&#45;icub&#45;clients/walking&#45;client/include/walking&#45;client/constraints/SSDSAlternation.h</text>
</a>
</g>
<!-- Node2&#45;&gt;Node26 -->
<g id="edge64" class="edge"><title>Node2&#45;&gt;Node26</title>
<path fill="none" stroke="midnightblue" d="M2309.9,-346.011C2269.02,-335.611 2212.41,-321.21 2174.33,-311.523"/>
<polygon fill="midnightblue" stroke="midnightblue" points="2309.12,-349.423 2319.67,-348.497 2310.84,-342.639 2309.12,-349.423"/>
</g>
<!-- Node4 -->
<g id="node7" class="node"><title>Node4</title>
<a xlink:href="MIQPLinearConstraints_8h.html" target="_top" xlink:title="ocra&#45;wbi&#45;plugins/ocra&#45;icub&#45;clients/walking&#45;client/include/walking&#45;client/constraints/MIQPLinearConstraints.h">
<polygon fill="white" stroke="black" points="1332.96,-174.5 1332.96,-195.5 1816.96,-195.5 1816.96,-174.5 1332.96,-174.5"/>
<text text-anchor="middle" x="1574.96" y="-182.5" font-family="Helvetica,sans-Serif" font-size="10.00">ocra&#45;wbi&#45;plugins/ocra&#45;icub&#45;clients/walking&#45;client/include/walking&#45;client/constraints/MIQPLinearConstraints.h</text>
</a>
</g>
<!-- Node3&#45;&gt;Node4 -->
<g id="edge6" class="edge"><title>Node3&#45;&gt;Node4</title>
<path fill="none" stroke="midnightblue" d="M1402.93,-229.945C1442.72,-219.55 1497.68,-205.19 1534.68,-195.523"/>
<polygon fill="midnightblue" stroke="midnightblue" points="1401.95,-226.582 1393.16,-232.497 1403.72,-233.355 1401.95,-226.582"/>
</g>
<!-- Node11 -->
<g id="node21" class="node"><title>Node11</title>
<a xlink:href="AdmissibilityConstraints_8cpp.html" target="_top" xlink:title="ocra&#45;wbi&#45;plugins/ocra&#45;icub&#45;clients/walking&#45;client/src/AdmissibilityConstraints.cpp">
<polygon fill="white" stroke="black" points="946.96,-174.5 946.96,-195.5 1314.96,-195.5 1314.96,-174.5 946.96,-174.5"/>
<text text-anchor="middle" x="1130.96" y="-182.5" font-family="Helvetica,sans-Serif" font-size="10.00">ocra&#45;wbi&#45;plugins/ocra&#45;icub&#45;clients/walking&#45;client/src/AdmissibilityConstraints.cpp</text>
</a>
</g>
<!-- Node3&#45;&gt;Node11 -->
<g id="edge20" class="edge"><title>Node3&#45;&gt;Node11</title>
<path fill="none" stroke="midnightblue" d="M1302.99,-229.945C1263.2,-219.55 1208.24,-205.19 1171.24,-195.523"/>
<polygon fill="midnightblue" stroke="midnightblue" points="1302.2,-233.355 1312.76,-232.497 1303.97,-226.582 1302.2,-233.355"/>
</g>
<!-- Node4&#45;&gt;Node5 -->
<g id="edge8" class="edge"><title>Node4&#45;&gt;Node5</title>
<path fill="none" stroke="midnightblue" d="M1389.76,-173.892C1215,-163.41 954.9,-147.809 783.405,-137.523"/>
<polygon fill="midnightblue" stroke="midnightblue" points="1389.65,-177.392 1399.84,-174.497 1390.07,-170.404 1389.65,-177.392"/>
</g>
<!-- Node10 -->
<g id="node19" class="node"><title>Node10</title>
<a xlink:href="MIQPLinearConstraints_8cpp.html" target="_top" xlink:title="ocra&#45;wbi&#45;plugins/ocra&#45;icub&#45;clients/walking&#45;client/src/MIQPLinearConstraints.cpp">
<polygon fill="white" stroke="black" points="1392.96,-116.5 1392.96,-137.5 1756.96,-137.5 1756.96,-116.5 1392.96,-116.5"/>
<text text-anchor="middle" x="1574.96" y="-124.5" font-family="Helvetica,sans-Serif" font-size="10.00">ocra&#45;wbi&#45;plugins/ocra&#45;icub&#45;clients/walking&#45;client/src/MIQPLinearConstraints.cpp</text>
</a>
</g>
<!-- Node4&#45;&gt;Node10 -->
<g id="edge18" class="edge"><title>Node4&#45;&gt;Node10</title>
<path fill="none" stroke="midnightblue" d="M1574.96,-164.191C1574.96,-155.168 1574.96,-144.994 1574.96,-137.571"/>
<polygon fill="midnightblue" stroke="midnightblue" points="1571.46,-164.362 1574.96,-174.362 1578.46,-164.362 1571.46,-164.362"/>
</g>
<!-- Node5&#45;&gt;Node6 -->
<g id="edge10" class="edge"><title>Node5&#45;&gt;Node6</title>
<path fill="none" stroke="midnightblue" d="M817.193,-123.402C1426.28,-112.929 3192.53,-82.5573 3784.76,-72.3737"/>
<polygon fill="midnightblue" stroke="midnightblue" points="816.924,-119.906 806.986,-123.578 817.044,-126.905 816.924,-119.906"/>
</g>
<!-- Node9 -->
<g id="node17" class="node"><title>Node9</title>
<a xlink:href="MIQPController_8cpp.html" target="_top" xlink:title="ocra&#45;wbi&#45;plugins/ocra&#45;icub&#45;clients/walking&#45;client/src/MIQPController.cpp">
<polygon fill="white" stroke="black" points="443.46,-58.5 443.46,-79.5 772.46,-79.5 772.46,-58.5 443.46,-58.5"/>
<text text-anchor="middle" x="607.96" y="-66.5" font-family="Helvetica,sans-Serif" font-size="10.00">ocra&#45;wbi&#45;plugins/ocra&#45;icub&#45;clients/walking&#45;client/src/MIQPController.cpp</text>
</a>
</g>
<!-- Node5&#45;&gt;Node9 -->
<g id="edge16" class="edge"><title>Node5&#45;&gt;Node9</title>
<path fill="none" stroke="midnightblue" d="M607.96,-106.191C607.96,-97.1684 607.96,-86.9941 607.96,-79.5707"/>
<polygon fill="midnightblue" stroke="midnightblue" points="604.46,-106.362 607.96,-116.362 611.46,-106.362 604.46,-106.362"/>
</g>
<!-- Node7 -->
<g id="node13" class="node"><title>Node7</title>
<a xlink:href="ocra-icub-clients_2walking-client_2src_2main_8cpp.html" target="_top" xlink:title="ocra&#45;wbi&#45;plugins/ocra&#45;icub&#45;clients/walking&#45;client/src/main.cpp">
<polygon fill="white" stroke="black" points="3679.46,-0.5 3679.46,-21.5 3962.46,-21.5 3962.46,-0.5 3679.46,-0.5"/>
<text text-anchor="middle" x="3820.96" y="-8.5" font-family="Helvetica,sans-Serif" font-size="10.00">ocra&#45;wbi&#45;plugins/ocra&#45;icub&#45;clients/walking&#45;client/src/main.cpp</text>
</a>
</g>
<!-- Node6&#45;&gt;Node7 -->
<g id="edge12" class="edge"><title>Node6&#45;&gt;Node7</title>
<path fill="none" stroke="midnightblue" d="M3942.37,-55.0095C3913.93,-44.7023 3875.86,-30.903 3849.99,-21.5231"/>
<polygon fill="midnightblue" stroke="midnightblue" points="3941.39,-58.3791 3951.99,-58.4966 3943.78,-51.7981 3941.39,-58.3791"/>
</g>
<!-- Node8 -->
<g id="node15" class="node"><title>Node8</title>
<a xlink:href="WalkingClient_8cpp.html" target="_top" xlink:title="ocra&#45;wbi&#45;plugins/ocra&#45;icub&#45;clients/walking&#45;client/src/WalkingClient.cpp">
<polygon fill="white" stroke="black" points="3979.46,-0.5 3979.46,-21.5 4302.46,-21.5 4302.46,-0.5 3979.46,-0.5"/>
<text text-anchor="middle" x="4140.96" y="-8.5" font-family="Helvetica,sans-Serif" font-size="10.00">ocra&#45;wbi&#45;plugins/ocra&#45;icub&#45;clients/walking&#45;client/src/WalkingClient.cpp</text>
</a>
</g>
<!-- Node6&#45;&gt;Node8 -->
<g id="edge14" class="edge"><title>Node6&#45;&gt;Node8</title>
<path fill="none" stroke="midnightblue" d="M4019.55,-55.0095C4047.99,-44.7023 4086.06,-30.903 4111.93,-21.5231"/>
<polygon fill="midnightblue" stroke="midnightblue" points="4018.14,-51.7981 4009.93,-58.4966 4020.53,-58.3791 4018.14,-51.7981"/>
</g>
<!-- Node12&#45;&gt;Node13 -->
<g id="edge24" class="edge"><title>Node12&#45;&gt;Node13</title>
<path fill="none" stroke="midnightblue" d="M2707.95,-289.498C2815.42,-279.023 2972.8,-263.681 3077.01,-253.523"/>
<polygon fill="midnightblue" stroke="midnightblue" points="2707.32,-286.043 2697.71,-290.497 2708,-293.01 2707.32,-286.043"/>
</g>
<!-- Node15 -->
<g id="node30" class="node"><title>Node15</title>
<a xlink:href="Bounding_8cpp.html" target="_top" xlink:title="ocra&#45;wbi&#45;plugins/ocra&#45;icub&#45;clients/walking&#45;client/src/Bounding.cpp">
<polygon fill="white" stroke="black" points="2308.96,-232.5 2308.96,-253.5 2610.96,-253.5 2610.96,-232.5 2308.96,-232.5"/>
<text text-anchor="middle" x="2459.96" y="-240.5" font-family="Helvetica,sans-Serif" font-size="10.00">ocra&#45;wbi&#45;plugins/ocra&#45;icub&#45;clients/walking&#45;client/src/Bounding.cpp</text>
</a>
</g>
<!-- Node12&#45;&gt;Node15 -->
<g id="edge30" class="edge"><title>Node12&#45;&gt;Node15</title>
<path fill="none" stroke="midnightblue" d="M2557.11,-286.343C2534.26,-276.15 2504.33,-262.798 2483.77,-253.621"/>
<polygon fill="midnightblue" stroke="midnightblue" points="2555.86,-289.618 2566.42,-290.497 2558.71,-283.226 2555.86,-289.618"/>
</g>
<!-- Node13&#45;&gt;Node4 -->
<g id="edge26" class="edge"><title>Node13&#45;&gt;Node4</title>
<path fill="none" stroke="midnightblue" d="M2947.86,-232.076C2947.23,-232.051 2946.59,-232.025 2945.96,-232 2550.63,-216.127 2091.05,-201.063 1817.08,-192.442"/>
<polygon fill="midnightblue" stroke="midnightblue" points="2948.07,-235.588 2958.21,-232.498 2948.36,-228.594 2948.07,-235.588"/>
</g>
<!-- Node14 -->
<g id="node28" class="node"><title>Node14</title>
<a xlink:href="ShapeConstraints_8cpp.html" target="_top" xlink:title="ocra&#45;wbi&#45;plugins/ocra&#45;icub&#45;clients/walking&#45;client/src/ShapeConstraints.cpp">
<polygon fill="white" stroke="black" points="3014.96,-174.5 3014.96,-195.5 3354.96,-195.5 3354.96,-174.5 3014.96,-174.5"/>
<text text-anchor="middle" x="3184.96" y="-182.5" font-family="Helvetica,sans-Serif" font-size="10.00">ocra&#45;wbi&#45;plugins/ocra&#45;icub&#45;clients/walking&#45;client/src/ShapeConstraints.cpp</text>
</a>
</g>
<!-- Node13&#45;&gt;Node14 -->
<g id="edge28" class="edge"><title>Node13&#45;&gt;Node14</title>
<path fill="none" stroke="midnightblue" d="M3184.96,-222.191C3184.96,-213.168 3184.96,-202.994 3184.96,-195.571"/>
<polygon fill="midnightblue" stroke="midnightblue" points="3181.46,-222.362 3184.96,-232.362 3188.46,-222.362 3181.46,-222.362"/>
</g>
<!-- Node16&#45;&gt;Node13 -->
<g id="edge34" class="edge"><title>Node16&#45;&gt;Node13</title>
<path fill="none" stroke="midnightblue" d="M3069.98,-286.874C3096.95,-276.582 3132.91,-262.862 3157.38,-253.523"/>
<polygon fill="midnightblue" stroke="midnightblue" points="3068.58,-283.661 3060.49,-290.497 3071.08,-290.202 3068.58,-283.661"/>
</g>
<!-- Node17 -->
<g id="node35" class="node"><title>Node17</title>
<a xlink:href="Constancy_8cpp.html" target="_top" xlink:title="ocra&#45;wbi&#45;plugins/ocra&#45;icub&#45;clients/walking&#45;client/src/Constancy.cpp">
<polygon fill="white" stroke="black" points="2628.46,-232.5 2628.46,-253.5 2937.46,-253.5 2937.46,-232.5 2628.46,-232.5"/>
<text text-anchor="middle" x="2782.96" y="-240.5" font-family="Helvetica,sans-Serif" font-size="10.00">ocra&#45;wbi&#45;plugins/ocra&#45;icub&#45;clients/walking&#45;client/src/Constancy.cpp</text>
</a>
</g>
<!-- Node16&#45;&gt;Node17 -->
<g id="edge36" class="edge"><title>Node16&#45;&gt;Node17</title>
<path fill="none" stroke="midnightblue" d="M2977.82,-288.208C2932.93,-277.794 2870.34,-263.272 2828.32,-253.523"/>
<polygon fill="midnightblue" stroke="midnightblue" points="2977.15,-291.646 2987.69,-290.497 2978.74,-284.827 2977.15,-291.646"/>
</g>
<!-- Node18&#45;&gt;Node3 -->
<g id="edge40" class="edge"><title>Node18&#45;&gt;Node3</title>
<path fill="none" stroke="midnightblue" d="M783.43,-289.656C911.347,-279.177 1099.88,-263.732 1224.51,-253.523"/>
<polygon fill="midnightblue" stroke="midnightblue" points="782.854,-286.192 773.174,-290.497 783.426,-293.168 782.854,-286.192"/>
</g>
<!-- Node19 -->
<g id="node40" class="node"><title>Node19</title>
<a xlink:href="ContactConfigEnforcement_8cpp.html" target="_top" xlink:title="ocra&#45;wbi&#45;plugins/ocra&#45;icub&#45;clients/walking&#45;client/src/ContactConfigEnforcement.cpp">
<polygon fill="white" stroke="black" points="336.96,-232.5 336.96,-253.5 716.96,-253.5 716.96,-232.5 336.96,-232.5"/>
<text text-anchor="middle" x="526.96" y="-240.5" font-family="Helvetica,sans-Serif" font-size="10.00">ocra&#45;wbi&#45;plugins/ocra&#45;icub&#45;clients/walking&#45;client/src/ContactConfigEnforcement.cpp</text>
</a>
</g>
<!-- Node18&#45;&gt;Node19 -->
<g id="edge42" class="edge"><title>Node18&#45;&gt;Node19</title>
<path fill="none" stroke="midnightblue" d="M614.584,-286.069C593.919,-275.912 567.071,-262.716 548.569,-253.621"/>
<polygon fill="midnightblue" stroke="midnightblue" points="613.073,-289.226 623.591,-290.497 616.161,-282.944 613.073,-289.226"/>
</g>
<!-- Node20&#45;&gt;Node3 -->
<g id="edge46" class="edge"><title>Node20&#45;&gt;Node3</title>
<path fill="none" stroke="midnightblue" d="M1197.35,-287.68C1233.48,-277.307 1282.93,-263.108 1316.31,-253.523"/>
<polygon fill="midnightblue" stroke="midnightblue" points="1196.19,-284.373 1187.54,-290.497 1198.12,-291.101 1196.19,-284.373"/>
</g>
<!-- Node21 -->
<g id="node45" class="node"><title>Node21</title>
<a xlink:href="ContactConfigHistory_8cpp.html" target="_top" xlink:title="ocra&#45;wbi&#45;plugins/ocra&#45;icub&#45;clients/walking&#45;client/src/ContactConfigHistory.cpp">
<polygon fill="white" stroke="black" points="734.96,-232.5 734.96,-253.5 1090.96,-253.5 1090.96,-232.5 734.96,-232.5"/>
<text text-anchor="middle" x="912.96" y="-240.5" font-family="Helvetica,sans-Serif" font-size="10.00">ocra&#45;wbi&#45;plugins/ocra&#45;icub&#45;clients/walking&#45;client/src/ContactConfigHistory.cpp</text>
</a>
</g>
<!-- Node20&#45;&gt;Node21 -->
<g id="edge48" class="edge"><title>Node20&#45;&gt;Node21</title>
<path fill="none" stroke="midnightblue" d="M1097.93,-288.077C1055.23,-277.672 995.976,-263.231 956.141,-253.523"/>
<polygon fill="midnightblue" stroke="midnightblue" points="1097.32,-291.529 1107.86,-290.497 1098.97,-284.728 1097.32,-291.529"/>
</g>
<!-- Node22&#45;&gt;Node13 -->
<g id="edge52" class="edge"><title>Node22&#45;&gt;Node13</title>
<path fill="none" stroke="midnightblue" d="M3451.04,-288.794C3390.32,-278.345 3303.82,-263.456 3246.1,-253.523"/>
<polygon fill="midnightblue" stroke="midnightblue" points="3450.48,-292.25 3460.93,-290.497 3451.67,-285.351 3450.48,-292.25"/>
</g>
<!-- Node23 -->
<g id="node50" class="node"><title>Node23</title>
<a xlink:href="Sequentiality_8cpp.html" target="_top" xlink:title="ocra&#45;wbi&#45;plugins/ocra&#45;icub&#45;clients/walking&#45;client/src/Sequentiality.cpp">
<polygon fill="white" stroke="black" points="3432.96,-232.5 3432.96,-253.5 3750.96,-253.5 3750.96,-232.5 3432.96,-232.5"/>
<text text-anchor="middle" x="3591.96" y="-240.5" font-family="Helvetica,sans-Serif" font-size="10.00">ocra&#45;wbi&#45;plugins/ocra&#45;icub&#45;clients/walking&#45;client/src/Sequentiality.cpp</text>
</a>
</g>
<!-- Node22&#45;&gt;Node23 -->
<g id="edge54" class="edge"><title>Node22&#45;&gt;Node23</title>
<path fill="none" stroke="midnightblue" d="M3542.51,-283.975C3554.39,-274.132 3568.96,-262.055 3579.2,-253.571"/>
<polygon fill="midnightblue" stroke="midnightblue" points="3540.27,-281.287 3534.8,-290.362 3544.73,-286.677 3540.27,-281.287"/>
</g>
<!-- Node24&#45;&gt;Node3 -->
<g id="edge60" class="edge"><title>Node24&#45;&gt;Node3</title>
<path fill="none" stroke="midnightblue" d="M1599.39,-288.665C1543.04,-278.222 1463.13,-263.415 1409.75,-253.523"/>
<polygon fill="midnightblue" stroke="midnightblue" points="1598.81,-292.116 1609.28,-290.497 1600.08,-285.233 1598.81,-292.116"/>
</g>
<!-- Node25 -->
<g id="node56" class="node"><title>Node25</title>
<a xlink:href="SingleSupport_8cpp.html" target="_top" xlink:title="ocra&#45;wbi&#45;plugins/ocra&#45;icub&#45;clients/walking&#45;client/src/SingleSupport.cpp">
<polygon fill="white" stroke="black" points="1614.46,-232.5 1614.46,-253.5 1937.46,-253.5 1937.46,-232.5 1614.46,-232.5"/>
<text text-anchor="middle" x="1775.96" y="-240.5" font-family="Helvetica,sans-Serif" font-size="10.00">ocra&#45;wbi&#45;plugins/ocra&#45;icub&#45;clients/walking&#45;client/src/SingleSupport.cpp</text>
</a>
</g>
<!-- Node24&#45;&gt;Node25 -->
<g id="edge62" class="edge"><title>Node24&#45;&gt;Node25</title>
<path fill="none" stroke="midnightblue" d="M1694.8,-285.794C1713.99,-275.675 1738.72,-262.634 1755.82,-253.621"/>
<polygon fill="midnightblue" stroke="midnightblue" points="1693.09,-282.736 1685.88,-290.497 1696.36,-288.928 1693.09,-282.736"/>
</g>
<!-- Node26&#45;&gt;Node3 -->
<g id="edge66" class="edge"><title>Node26&#45;&gt;Node3</title>
<path fill="none" stroke="midnightblue" d="M1981.68,-289.751C1840.73,-279.27 1632.19,-263.763 1494.48,-253.523"/>
<polygon fill="midnightblue" stroke="midnightblue" points="1981.48,-293.245 1991.71,-290.497 1982,-286.265 1981.48,-293.245"/>
</g>
<!-- Node27 -->
<g id="node61" class="node"><title>Node27</title>
<a xlink:href="SSDSAlternation_8cpp.html" target="_top" xlink:title="ocra&#45;wbi&#45;plugins/ocra&#45;icub&#45;clients/walking&#45;client/src/SSDSAlternation.cpp">
<polygon fill="white" stroke="black" points="1954.96,-232.5 1954.96,-253.5 2290.96,-253.5 2290.96,-232.5 1954.96,-232.5"/>
<text text-anchor="middle" x="2122.96" y="-240.5" font-family="Helvetica,sans-Serif" font-size="10.00">ocra&#45;wbi&#45;plugins/ocra&#45;icub&#45;clients/walking&#45;client/src/SSDSAlternation.cpp</text>
</a>
</g>
<!-- Node26&#45;&gt;Node27 -->
<g id="edge68" class="edge"><title>Node26&#45;&gt;Node27</title>
<path fill="none" stroke="midnightblue" d="M2129.42,-280.488C2127.86,-271.392 2126.08,-261.076 2124.78,-253.571"/>
<polygon fill="midnightblue" stroke="midnightblue" points="2125.98,-281.102 2131.13,-290.362 2132.88,-279.913 2125.98,-281.102"/>
</g>
<!-- Node28&#45;&gt;Node5 -->
<g id="edge74" class="edge"><title>Node28&#45;&gt;Node5</title>
<path fill="none" stroke="midnightblue" d="M113.431,-346.401C70.3924,-336.7 35.7968,-319.685 57.9602,-290 115.681,-212.692 401.072,-159.036 536.452,-137.513"/>
<polygon fill="midnightblue" stroke="midnightblue" points="112.814,-349.848 123.32,-348.479 114.253,-342.997 112.814,-349.848"/>
</g>
<!-- Node29 -->
<g id="node67" class="node"><title>Node29</title>
<a xlink:href="MIQPState_8cpp.html" target="_top" xlink:title="ocra&#45;wbi&#45;plugins/ocra&#45;icub&#45;clients/walking&#45;client/src/MIQPState.cpp">
<polygon fill="white" stroke="black" points="66.4602,-290.5 66.4602,-311.5 377.46,-311.5 377.46,-290.5 66.4602,-290.5"/>
<text text-anchor="middle" x="221.96" y="-298.5" font-family="Helvetica,sans-Serif" font-size="10.00">ocra&#45;wbi&#45;plugins/ocra&#45;icub&#45;clients/walking&#45;client/src/MIQPState.cpp</text>
</a>
</g>
<!-- Node28&#45;&gt;Node29 -->
<g id="edge76" class="edge"><title>Node28&#45;&gt;Node29</title>
<path fill="none" stroke="midnightblue" d="M221.96,-338.191C221.96,-329.168 221.96,-318.994 221.96,-311.571"/>
<polygon fill="midnightblue" stroke="midnightblue" points="218.46,-338.362 221.96,-348.362 225.46,-338.362 218.46,-338.362"/>
</g>
<!-- Node30&#45;&gt;Node6 -->
<g id="edge80" class="edge"><title>Node30&#45;&gt;Node6</title>
<path fill="none" stroke="midnightblue" d="M4493.43,-344.989C4511.74,-337.832 4530.83,-327.293 4543.96,-312 4564.68,-287.864 4562.96,-274.808 4562.96,-243 4562.96,-243 4562.96,-243 4562.96,-185 4562.96,-137.091 4255.73,-97.5644 4087.71,-79.5301"/>
<polygon fill="midnightblue" stroke="midnightblue" points="4492.16,-341.726 4483.95,-348.431 4494.55,-348.305 4492.16,-341.726"/>
</g>
<!-- Node31 -->
<g id="node72" class="node"><title>Node31</title>
<a xlink:href="StepController_8cpp.html" target="_top" xlink:title="ocra&#45;wbi&#45;plugins/ocra&#45;icub&#45;clients/walking&#45;client/src/StepController.cpp">
<polygon fill="white" stroke="black" points="4210.96,-290.5 4210.96,-311.5 4534.96,-311.5 4534.96,-290.5 4210.96,-290.5"/>
<text text-anchor="middle" x="4372.96" y="-298.5" font-family="Helvetica,sans-Serif" font-size="10.00">ocra&#45;wbi&#45;plugins/ocra&#45;icub&#45;clients/walking&#45;client/src/StepController.cpp</text>
</a>
</g>
<!-- Node30&#45;&gt;Node31 -->
<g id="edge82" class="edge"><title>Node30&#45;&gt;Node31</title>
<path fill="none" stroke="midnightblue" d="M4419.26,-341.691C4408.12,-331.9 4394.55,-319.973 4384.99,-311.571"/>
<polygon fill="midnightblue" stroke="midnightblue" points="4417.03,-344.39 4426.85,-348.362 4421.65,-339.132 4417.03,-344.39"/>
</g>
<!-- Node32&#45;&gt;Node6 -->
<g id="edge88" class="edge"><title>Node32&#45;&gt;Node6</title>
<path fill="none" stroke="midnightblue" d="M4073.69,-346.145C4110.01,-337.508 4151.04,-325.302 4163.96,-312 4186.12,-289.181 4182.96,-274.808 4182.96,-243 4182.96,-243 4182.96,-243 4182.96,-185 4182.96,-122.115 4108.43,-92.8259 4049.91,-79.5211"/>
<polygon fill="midnightblue" stroke="midnightblue" points="4072.55,-342.817 4063.6,-348.485 4074.13,-349.636 4072.55,-342.817"/>
</g>
<!-- Node33 -->
<g id="node78" class="node"><title>Node33</title>
<a xlink:href="ZmpPreviewController_8cpp.html" target="_top" xlink:title="ocra&#45;wbi&#45;plugins/ocra&#45;icub&#45;clients/walking&#45;client/src/ZmpPreviewController.cpp">
<polygon fill="white" stroke="black" points="3796.46,-290.5 3796.46,-311.5 4155.46,-311.5 4155.46,-290.5 3796.46,-290.5"/>
<text text-anchor="middle" x="3975.96" y="-298.5" font-family="Helvetica,sans-Serif" font-size="10.00">ocra&#45;wbi&#45;plugins/ocra&#45;icub&#45;clients/walking&#45;client/src/ZmpPreviewController.cpp</text>
</a>
</g>
<!-- Node32&#45;&gt;Node33 -->
<g id="edge90" class="edge"><title>Node32&#45;&gt;Node33</title>
<path fill="none" stroke="midnightblue" d="M3999.29,-339.667C3993.64,-330.295 3987.06,-319.402 3982.34,-311.571"/>
<polygon fill="midnightblue" stroke="midnightblue" points="3996.38,-341.608 4004.54,-348.362 4002.37,-337.992 3996.38,-341.608"/>
</g>
</g>
</svg>
