<?xml version="1.0" encoding="UTF-8" standalone="no"?>
<!DOCTYPE svg PUBLIC "-//W3C//DTD SVG 1.1//EN"
 "http://www.w3.org/Graphics/SVG/1.1/DTD/svg11.dtd">
<!-- Generated by graphviz version 2.26.3 (20100126.1600)
 -->
<!-- Title: G Pages: 1 -->
<svg width="2584pt" height="146pt"
 viewBox="0.00 0.00 2584.00 146.00" xmlns="http://www.w3.org/2000/svg" xmlns:xlink="http://www.w3.org/1999/xlink">
<g id="graph1" class="graph" transform="scale(1 1) rotate(0) translate(4 142)">
<title>G</title>
<polygon fill="white" stroke="white" points="-4,5 -4,-142 2581,-142 2581,5 -4,5"/>
<!-- Node1 -->
<g id="node1" class="node"><title>Node1</title>
<polygon fill="#bfbfbf" stroke="black" points="1106.5,-116.5 1106.5,-137.5 1307.5,-137.5 1307.5,-116.5 1106.5,-116.5"/>
<text text-anchor="middle" x="1207" y="-124.5" font-family="Helvetica,sans-Serif" font-size="10.00">ocra&#45;wbi&#45;plugins/ocra&#45;icub/src/Utilities.cpp</text>
</g>
<!-- Node2 -->
<g id="node3" class="node"><title>Node2</title>
<a xlink:href="Utilities_8h.html" target="_top" xlink:title="Some useful tools for the ocra&#45;icub lib.">
<polygon fill="white" stroke="black" points="1156.5,-58.5 1156.5,-79.5 1257.5,-79.5 1257.5,-58.5 1156.5,-58.5"/>
<text text-anchor="middle" x="1207" y="-66.5" font-family="Helvetica,sans-Serif" font-size="10.00">ocra&#45;icub/Utilities.h</text>
</a>
</g>
<!-- Node1&#45;&gt;Node2 -->
<g id="edge2" class="edge"><title>Node1&#45;&gt;Node2</title>
<path fill="none" stroke="midnightblue" d="M1207,-116.362C1207,-108.922 1207,-98.7427 1207,-89.7276"/>
<polygon fill="midnightblue" stroke="midnightblue" points="1210.5,-89.5706 1207,-79.5707 1203.5,-89.5707 1210.5,-89.5706"/>
</g>
<!-- Node3 -->
<g id="node5" class="node"><title>Node3</title>
<polygon fill="white" stroke="#bfbfbf" points="0,-0.5 0,-21.5 52,-21.5 52,-0.5 0,-0.5"/>
<text text-anchor="middle" x="26" y="-8.5" font-family="Helvetica,sans-Serif" font-size="10.00">memory</text>
</g>
<!-- Node2&#45;&gt;Node3 -->
<g id="edge4" class="edge"><title>Node2&#45;&gt;Node3</title>
<path fill="none" stroke="midnightblue" d="M1156.23,-68.6922C966.156,-67.2687 296.072,-59.7475 62.3218,-21.7599"/>
<polygon fill="midnightblue" stroke="midnightblue" points="62.633,-18.2629 52.1892,-20.0454 61.4651,-25.1648 62.633,-18.2629"/>
</g>
<!-- Node4 -->
<g id="node7" class="node"><title>Node4</title>
<polygon fill="white" stroke="#bfbfbf" points="70,-0.5 70,-21.5 114,-21.5 114,-0.5 70,-0.5"/>
<text text-anchor="middle" x="92" y="-8.5" font-family="Helvetica,sans-Serif" font-size="10.00">cmath</text>
</g>
<!-- Node2&#45;&gt;Node4 -->
<g id="edge6" class="edge"><title>Node2&#45;&gt;Node4</title>
<path fill="none" stroke="midnightblue" d="M1156.4,-68.7963C973.2,-67.7544 344.216,-61.4517 123.991,-21.6036"/>
<polygon fill="midnightblue" stroke="midnightblue" points="124.605,-18.1578 114.129,-19.7424 123.307,-25.0364 124.605,-18.1578"/>
</g>
<!-- Node5 -->
<g id="node9" class="node"><title>Node5</title>
<polygon fill="white" stroke="#bfbfbf" points="132,-0.5 132,-21.5 186,-21.5 186,-0.5 132,-0.5"/>
<text text-anchor="middle" x="159" y="-8.5" font-family="Helvetica,sans-Serif" font-size="10.00">iostream</text>
</g>
<!-- Node2&#45;&gt;Node5 -->
<g id="edge8" class="edge"><title>Node2&#45;&gt;Node5</title>
<path fill="none" stroke="midnightblue" d="M1156.48,-68.3226C981.699,-65.7233 402.595,-54.9122 196.463,-21.8223"/>
<polygon fill="midnightblue" stroke="midnightblue" points="196.787,-18.3279 186.346,-20.1274 195.63,-25.2317 196.787,-18.3279"/>
</g>
<!-- Node6 -->
<g id="node11" class="node"><title>Node6</title>
<polygon fill="white" stroke="#bfbfbf" points="203.5,-0.5 203.5,-21.5 244.5,-21.5 244.5,-0.5 203.5,-0.5"/>
<text text-anchor="middle" x="224" y="-8.5" font-family="Helvetica,sans-Serif" font-size="10.00">string</text>
</g>
<!-- Node2&#45;&gt;Node6 -->
<g id="edge10" class="edge"><title>Node2&#45;&gt;Node6</title>
<path fill="none" stroke="midnightblue" d="M1156.35,-68.5889C988.024,-66.9027 447.468,-58.8395 254.685,-21.7511"/>
<polygon fill="midnightblue" stroke="midnightblue" points="255.17,-18.2785 244.675,-19.7323 253.786,-25.1403 255.17,-18.2785"/>
</g>
<!-- Node7 -->
<g id="node13" class="node"><title>Node7</title>
<polygon fill="white" stroke="#bfbfbf" points="262,-0.5 262,-21.5 306,-21.5 306,-0.5 262,-0.5"/>
<text text-anchor="middle" x="284" y="-8.5" font-family="Helvetica,sans-Serif" font-size="10.00">vector</text>
</g>
<!-- Node2&#45;&gt;Node7 -->
<g id="edge12" class="edge"><title>Node2&#45;&gt;Node7</title>
<path fill="none" stroke="midnightblue" d="M1156.28,-68.2447C995.36,-65.5535 496.795,-54.8723 316.041,-21.6265"/>
<polygon fill="midnightblue" stroke="midnightblue" points="316.616,-18.173 306.135,-19.7166 315.291,-25.0464 316.616,-18.173"/>
</g>
<!-- Node8 -->
<g id="node15" class="node"><title>Node8</title>
<polygon fill="white" stroke="#bfbfbf" points="324,-0.5 324,-21.5 376,-21.5 376,-0.5 324,-0.5"/>
<text text-anchor="middle" x="350" y="-8.5" font-family="Helvetica,sans-Serif" font-size="10.00">sstream</text>
</g>
<!-- Node2&#45;&gt;Node8 -->
<g id="edge14" class="edge"><title>Node2&#45;&gt;Node8</title>
<path fill="none" stroke="midnightblue" d="M1156.26,-67.7413C1004.16,-63.7146 552.79,-49.8501 386.055,-21.7392"/>
<polygon fill="midnightblue" stroke="midnightblue" points="386.654,-18.2909 376.198,-19.9985 385.437,-25.1842 386.654,-18.2909"/>
</g>
<!-- Node9 -->
<g id="node17" class="node"><title>Node9</title>
<polygon fill="white" stroke="#bfbfbf" points="393.5,-0.5 393.5,-21.5 508.5,-21.5 508.5,-0.5 393.5,-0.5"/>
<text text-anchor="middle" x="451" y="-8.5" font-family="Helvetica,sans-Serif" font-size="10.00">yarp/os/BufferedPort.h</text>
</g>
<!-- Node2&#45;&gt;Node9 -->
<g id="edge16" class="edge"><title>Node2&#45;&gt;Node9</title>
<path fill="none" stroke="midnightblue" d="M1156.2,-67.2303C1043.34,-62.9338 763.014,-50.2502 518.685,-22.1083"/>
<polygon fill="midnightblue" stroke="midnightblue" points="518.883,-18.6079 508.546,-20.9291 518.075,-25.561 518.883,-18.6079"/>
</g>
<!-- Node10 -->
<g id="node19" class="node"><title>Node10</title>
<polygon fill="white" stroke="#bfbfbf" points="526,-0.5 526,-21.5 612,-21.5 612,-0.5 526,-0.5"/>
<text text-anchor="middle" x="569" y="-8.5" font-family="Helvetica,sans-Serif" font-size="10.00">yarp/os/Bottle.h</text>
</g>
<!-- Node2&#45;&gt;Node10 -->
<g id="edge18" class="edge"><title>Node2&#45;&gt;Node10</title>
<path fill="none" stroke="midnightblue" d="M1156.2,-67.1229C1055.9,-62.9412 825.291,-50.967 622.018,-21.9898"/>
<polygon fill="midnightblue" stroke="midnightblue" points="622.451,-18.5161 612.054,-20.5524 621.452,-25.4444 622.451,-18.5161"/>
</g>
<!-- Node11 -->
<g id="node21" class="node"><title>Node11</title>
<polygon fill="white" stroke="#bfbfbf" points="629.5,-0.5 629.5,-21.5 740.5,-21.5 740.5,-0.5 629.5,-0.5"/>
<text text-anchor="middle" x="685" y="-8.5" font-family="Helvetica,sans-Serif" font-size="10.00">yarp/os/RateThread.h</text>
</g>
<!-- Node2&#45;&gt;Node11 -->
<g id="edge20" class="edge"><title>Node2&#45;&gt;Node11</title>
<path fill="none" stroke="midnightblue" d="M1156.38,-64.9371C1073.61,-58.0469 903.984,-42.8889 750.873,-22.1938"/>
<polygon fill="midnightblue" stroke="midnightblue" points="751.194,-18.7052 740.813,-20.8227 750.249,-25.6411 751.194,-18.7052"/>
</g>
<!-- Node12 -->
<g id="node23" class="node"><title>Node12</title>
<polygon fill="white" stroke="#bfbfbf" points="757.5,-0.5 757.5,-21.5 886.5,-21.5 886.5,-0.5 757.5,-0.5"/>
<text text-anchor="middle" x="822" y="-8.5" font-family="Helvetica,sans-Serif" font-size="10.00">yarp/os/ResourceFinder.h</text>
</g>
<!-- Node2&#45;&gt;Node12 -->
<g id="edge22" class="edge"><title>Node2&#45;&gt;Node12</title>
<path fill="none" stroke="midnightblue" d="M1156.27,-61.3579C1089.93,-51.3633 973.173,-33.7741 896.705,-22.2542"/>
<polygon fill="midnightblue" stroke="midnightblue" points="897.067,-18.7693 886.657,-20.7405 896.024,-25.6912 897.067,-18.7693"/>
</g>
<!-- Node13 -->
<g id="node25" class="node"><title>Node13</title>
<polygon fill="white" stroke="#bfbfbf" points="904,-0.5 904,-21.5 1014,-21.5 1014,-0.5 904,-0.5"/>
<text text-anchor="middle" x="959" y="-8.5" font-family="Helvetica,sans-Serif" font-size="10.00">yarp/os/PortReader.h</text>
</g>
<!-- Node2&#45;&gt;Node13 -->
<g id="edge24" class="edge"><title>Node2&#45;&gt;Node13</title>
<path fill="none" stroke="midnightblue" d="M1162.09,-58.4966C1120.43,-48.7545 1058.34,-34.2328 1013.79,-23.813"/>
<polygon fill="midnightblue" stroke="midnightblue" points="1014.53,-20.3924 1004,-21.5231 1012.94,-27.2084 1014.53,-20.3924"/>
</g>
<!-- Node14 -->
<g id="node27" class="node"><title>Node14</title>
<polygon fill="white" stroke="#bfbfbf" points="1032,-0.5 1032,-21.5 1136,-21.5 1136,-0.5 1032,-0.5"/>
<text text-anchor="middle" x="1084" y="-8.5" font-family="Helvetica,sans-Serif" font-size="10.00">yarp/os/RpcClient.h</text>
</g>
<!-- Node2&#45;&gt;Node14 -->
<g id="edge26" class="edge"><title>Node2&#45;&gt;Node14</title>
<path fill="none" stroke="midnightblue" d="M1184.73,-58.4966C1165.43,-49.397 1137.29,-36.1273 1115.65,-25.9253"/>
<polygon fill="midnightblue" stroke="midnightblue" points="1117.06,-22.7206 1106.52,-21.6212 1114.08,-29.052 1117.06,-22.7206"/>
</g>
<!-- Node15 -->
<g id="node29" class="node"><title>Node15</title>
<polygon fill="white" stroke="#bfbfbf" points="1153.5,-0.5 1153.5,-21.5 1260.5,-21.5 1260.5,-0.5 1153.5,-0.5"/>
<text text-anchor="middle" x="1207" y="-8.5" font-family="Helvetica,sans-Serif" font-size="10.00">yarp/os/RpcServer.h</text>
</g>
<!-- Node2&#45;&gt;Node15 -->
<g id="edge28" class="edge"><title>Node2&#45;&gt;Node15</title>
<path fill="none" stroke="midnightblue" d="M1207,-58.3619C1207,-50.9219 1207,-40.7427 1207,-31.7276"/>
<polygon fill="midnightblue" stroke="midnightblue" points="1210.5,-31.5706 1207,-21.5707 1203.5,-31.5707 1210.5,-31.5706"/>
</g>
<!-- Node16 -->
<g id="node31" class="node"><title>Node16</title>
<polygon fill="white" stroke="#bfbfbf" points="1277.5,-0.5 1277.5,-21.5 1418.5,-21.5 1418.5,-0.5 1277.5,-0.5"/>
<text text-anchor="middle" x="1348" y="-8.5" font-family="Helvetica,sans-Serif" font-size="10.00">yarp/os/ConnectionReader.h</text>
</g>
<!-- Node2&#45;&gt;Node16 -->
<g id="edge30" class="edge"><title>Node2&#45;&gt;Node16</title>
<path fill="none" stroke="midnightblue" d="M1232.53,-58.4966C1254.95,-49.2746 1287.78,-35.7695 1312.71,-25.5153"/>
<polygon fill="midnightblue" stroke="midnightblue" points="1314.26,-28.6623 1322.18,-21.6212 1311.6,-22.1886 1314.26,-28.6623"/>
</g>
<!-- Node17 -->
<g id="node33" class="node"><title>Node17</title>
<polygon fill="white" stroke="#bfbfbf" points="1436,-0.5 1436,-21.5 1518,-21.5 1518,-0.5 1436,-0.5"/>
<text text-anchor="middle" x="1477" y="-8.5" font-family="Helvetica,sans-Serif" font-size="10.00">yarp/os/Time.h</text>
</g>
<!-- Node2&#45;&gt;Node17 -->
<g id="edge32" class="edge"><title>Node2&#45;&gt;Node17</title>
<path fill="none" stroke="midnightblue" d="M1256.82,-58.4464C1299.25,-49.4393 1362.09,-36.0483 1425.96,-22.217"/>
<polygon fill="midnightblue" stroke="midnightblue" points="1426.77,-25.6229 1435.8,-20.084 1425.29,-18.7817 1426.77,-25.6229"/>
</g>
<!-- Node18 -->
<g id="node35" class="node"><title>Node18</title>
<polygon fill="white" stroke="#bfbfbf" points="1536,-0.5 1536,-21.5 1612,-21.5 1612,-0.5 1536,-0.5"/>
<text text-anchor="middle" x="1574" y="-8.5" font-family="Helvetica,sans-Serif" font-size="10.00">yarp/os/Log.h</text>
</g>
<!-- Node2&#45;&gt;Node18 -->
<g id="edge34" class="edge"><title>Node2&#45;&gt;Node18</title>
<path fill="none" stroke="midnightblue" d="M1257.66,-62.8969C1318.89,-55.2222 1425.26,-40.9437 1525.81,-22.1111"/>
<polygon fill="midnightblue" stroke="midnightblue" points="1526.66,-25.5126 1535.84,-20.2146 1525.36,-18.6347 1526.66,-25.5126"/>
</g>
<!-- Node19 -->
<g id="node37" class="node"><title>Node19</title>
<polygon fill="white" stroke="#bfbfbf" points="1629.5,-0.5 1629.5,-21.5 1736.5,-21.5 1736.5,-0.5 1629.5,-0.5"/>
<text text-anchor="middle" x="1683" y="-8.5" font-family="Helvetica,sans-Serif" font-size="10.00">yarp/os/LogStream.h</text>
</g>
<!-- Node2&#45;&gt;Node19 -->
<g id="edge36" class="edge"><title>Node2&#45;&gt;Node19</title>
<path fill="none" stroke="midnightblue" d="M1257.8,-64.266C1334.1,-56.9284 1483.04,-41.7257 1619.08,-22.2182"/>
<polygon fill="midnightblue" stroke="midnightblue" points="1619.87,-25.6403 1629.26,-20.7457 1618.87,-18.7123 1619.87,-25.6403"/>
</g>
<!-- Node20 -->
<g id="node39" class="node"><title>Node20</title>
<polygon fill="white" stroke="#bfbfbf" points="1753.5,-0.5 1753.5,-21.5 1850.5,-21.5 1850.5,-0.5 1753.5,-0.5"/>
<text text-anchor="middle" x="1802" y="-8.5" font-family="Helvetica,sans-Serif" font-size="10.00">yarp/os/Property.h</text>
</g>
<!-- Node2&#45;&gt;Node20 -->
<g id="edge38" class="edge"><title>Node2&#45;&gt;Node20</title>
<path fill="none" stroke="midnightblue" d="M1257.63,-66.3291C1351.51,-60.9966 1559.04,-47.4242 1743.1,-22.1607"/>
<polygon fill="midnightblue" stroke="midnightblue" points="1743.81,-25.5957 1753.24,-20.7544 1742.85,-18.6621 1743.81,-25.5957"/>
</g>
<!-- Node21 -->
<g id="node41" class="node"><title>Node21</title>
<polygon fill="white" stroke="#bfbfbf" points="1867.5,-0.5 1867.5,-21.5 1958.5,-21.5 1958.5,-0.5 1867.5,-0.5"/>
<text text-anchor="middle" x="1913" y="-8.5" font-family="Helvetica,sans-Serif" font-size="10.00">yarp/sig/Vector.h</text>
</g>
<!-- Node2&#45;&gt;Node21 -->
<g id="edge40" class="edge"><title>Node2&#45;&gt;Node21</title>
<path fill="none" stroke="midnightblue" d="M1257.54,-67.5764C1365.81,-64.0479 1628.26,-52.9385 1857.22,-22.1064"/>
<polygon fill="midnightblue" stroke="midnightblue" points="1857.97,-25.5363 1867.41,-20.7182 1857.02,-18.6004 1857.97,-25.5363"/>
</g>
<!-- Node22 -->
<g id="node43" class="node"><title>Node22</title>
<polygon fill="white" stroke="#bfbfbf" points="1975.5,-0.5 1975.5,-21.5 2064.5,-21.5 2064.5,-0.5 1975.5,-0.5"/>
<text text-anchor="middle" x="2020" y="-8.5" font-family="Helvetica,sans-Serif" font-size="10.00">yarp/sig/Matrix.h</text>
</g>
<!-- Node2&#45;&gt;Node22 -->
<g id="edge42" class="edge"><title>Node2&#45;&gt;Node22</title>
<path fill="none" stroke="midnightblue" d="M1257.94,-68.3581C1379.07,-66.2936 1693.86,-57.7645 1965.22,-22.0898"/>
<polygon fill="midnightblue" stroke="midnightblue" points="1965.81,-25.5425 1975.26,-20.7548 1964.88,-18.6036 1965.81,-25.5425"/>
</g>
<!-- Node23 -->
<g id="node45" class="node"><title>Node23</title>
<polygon fill="white" stroke="#bfbfbf" points="2082,-0.5 2082,-21.5 2140,-21.5 2140,-0.5 2082,-0.5"/>
<text text-anchor="middle" x="2111" y="-8.5" font-family="Helvetica,sans-Serif" font-size="10.00">wbi/wbi.h</text>
</g>
<!-- Node2&#45;&gt;Node23 -->
<g id="edge44" class="edge"><title>Node2&#45;&gt;Node23</title>
<path fill="none" stroke="midnightblue" d="M1257.58,-67.7661C1415,-63.6925 1895.74,-49.4329 2071.79,-21.821"/>
<polygon fill="midnightblue" stroke="midnightblue" points="2072.39,-25.2692 2081.69,-20.1978 2071.26,-18.3614 2072.39,-25.2692"/>
</g>
<!-- Node24 -->
<g id="node47" class="node"><title>Node24</title>
<polygon fill="white" stroke="#bfbfbf" points="2157.5,-0.5 2157.5,-21.5 2262.5,-21.5 2262.5,-0.5 2157.5,-0.5"/>
<text text-anchor="middle" x="2210" y="-8.5" font-family="Helvetica,sans-Serif" font-size="10.00">ocra/control/Model.h</text>
</g>
<!-- Node2&#45;&gt;Node24 -->
<g id="edge46" class="edge"><title>Node2&#45;&gt;Node24</title>
<path fill="none" stroke="midnightblue" d="M1257.7,-67.332C1424.31,-61.7179 1954.81,-42.7528 2147.48,-22.0253"/>
<polygon fill="midnightblue" stroke="midnightblue" points="2147.94,-25.4956 2157.49,-20.9111 2147.17,-18.5386 2147.94,-25.4956"/>
</g>
<!-- Node25 -->
<g id="node49" class="node"><title>Node25</title>
<polygon fill="white" stroke="#bfbfbf" points="2279.5,-0.5 2279.5,-21.5 2400.5,-21.5 2400.5,-0.5 2279.5,-0.5"/>
<text text-anchor="middle" x="2340" y="-8.5" font-family="Helvetica,sans-Serif" font-size="10.00">ocra/util/StringUtilities.h</text>
</g>
<!-- Node2&#45;&gt;Node25 -->
<g id="edge48" class="edge"><title>Node2&#45;&gt;Node25</title>
<path fill="none" stroke="midnightblue" d="M1257.75,-67.5268C1438.48,-62.1621 2051.16,-42.9353 2269.38,-22.0456"/>
<polygon fill="midnightblue" stroke="midnightblue" points="2269.86,-25.5151 2279.47,-21.0497 2269.17,-18.549 2269.86,-25.5151"/>
</g>
<!-- Node26 -->
<g id="node51" class="node"><title>Node26</title>
<polygon fill="white" stroke="#bfbfbf" points="2417.5,-0.5 2417.5,-21.5 2490.5,-21.5 2490.5,-0.5 2417.5,-0.5"/>
<text text-anchor="middle" x="2454" y="-8.5" font-family="Helvetica,sans-Serif" font-size="10.00">Eigen/Dense</text>
</g>
<!-- Node2&#45;&gt;Node26 -->
<g id="edge50" class="edge"><title>Node2&#45;&gt;Node26</title>
<path fill="none" stroke="midnightblue" d="M1257.79,-68.3715C1453.77,-65.7388 2161.65,-54.2608 2407.33,-21.9671"/>
<polygon fill="midnightblue" stroke="midnightblue" points="2407.84,-25.4299 2417.28,-20.6122 2406.9,-18.4939 2407.84,-25.4299"/>
</g>
<!-- Node27 -->
<g id="node53" class="node"><title>Node27</title>
<polygon fill="white" stroke="#bfbfbf" points="2508,-0.5 2508,-21.5 2576,-21.5 2576,-0.5 2508,-0.5"/>
<text text-anchor="middle" x="2542" y="-8.5" font-family="Helvetica,sans-Serif" font-size="10.00">Eigen/Lgsm</text>
</g>
<!-- Node2&#45;&gt;Node27 -->
<g id="edge52" class="edge"><title>Node2&#45;&gt;Node27</title>
<path fill="none" stroke="midnightblue" d="M1257.67,-68.6049C1462.82,-66.7842 2233.07,-57.7586 2497.9,-21.8337"/>
<polygon fill="midnightblue" stroke="midnightblue" points="2498.45,-25.2913 2507.87,-20.4345 2497.48,-18.3593 2498.45,-25.2913"/>
</g>
</g>
</svg>
