<?xml version="1.0" encoding="UTF-8" standalone="no"?>
<!DOCTYPE svg PUBLIC "-//W3C//DTD SVG 1.1//EN"
 "http://www.w3.org/Graphics/SVG/1.1/DTD/svg11.dtd">
<!-- Generated by graphviz version 2.26.3 (20100126.1600)
 -->
<!-- Title: G Pages: 1 -->
<svg width="3306pt" height="436pt"
 viewBox="0.00 0.00 3306.00 436.00" xmlns="http://www.w3.org/2000/svg" xmlns:xlink="http://www.w3.org/1999/xlink">
<g id="graph1" class="graph" transform="scale(1 1) rotate(0) translate(4 432)">
<title>G</title>
<polygon fill="white" stroke="white" points="-4,5 -4,-432 3303,-432 3303,5 -4,5"/>
<!-- Node1 -->
<g id="node1" class="node"><title>Node1</title>
<polygon fill="#bfbfbf" stroke="black" points="2250.5,-406.5 2250.5,-427.5 2599.5,-427.5 2599.5,-406.5 2250.5,-406.5"/>
<text text-anchor="middle" x="2425" y="-414.5" font-family="Helvetica,sans-Serif" font-size="10.00">ocra&#45;wbi&#45;plugins/ocra&#45;icub&#45;clients/walking&#45;client/include/walking&#45;client/utils.h</text>
</g>
<!-- Node2 -->
<g id="node3" class="node"><title>Node2</title>
<a xlink:href="Constraint_8h.html" target="_top" xlink:title="A constraint base class.">
<polygon fill="white" stroke="black" points="1068.5,-348.5 1068.5,-369.5 1495.5,-369.5 1495.5,-348.5 1068.5,-348.5"/>
<text text-anchor="middle" x="1282" y="-356.5" font-family="Helvetica,sans-Serif" font-size="10.00">ocra&#45;wbi&#45;plugins/ocra&#45;icub&#45;clients/walking&#45;client/include/walking&#45;client/constraints/Constraint.h</text>
</a>
</g>
<!-- Node1&#45;&gt;Node2 -->
<g id="edge2" class="edge"><title>Node1&#45;&gt;Node2</title>
<path fill="none" stroke="midnightblue" d="M2240.48,-407.637C2035,-397.21 1703.67,-380.397 1489.38,-369.523"/>
<polygon fill="midnightblue" stroke="midnightblue" points="2240.31,-411.132 2250.47,-408.144 2240.66,-404.141 2240.31,-411.132"/>
</g>
<!-- Node5 -->
<g id="node9" class="node"><title>Node5</title>
<a xlink:href="MIQPController_8h.html" target="_top" xlink:title="A thread for launching trajectory generators.">
<polygon fill="white" stroke="black" points="1816,-116.5 1816,-137.5 2214,-137.5 2214,-116.5 1816,-116.5"/>
<text text-anchor="middle" x="2015" y="-124.5" font-family="Helvetica,sans-Serif" font-size="10.00">ocra&#45;wbi&#45;plugins/ocra&#45;icub&#45;clients/walking&#45;client/include/walking&#45;client/MIQPController.h</text>
</a>
</g>
<!-- Node1&#45;&gt;Node5 -->
<g id="edge42" class="edge"><title>Node1&#45;&gt;Node5</title>
<path fill="none" stroke="midnightblue" d="M2245.8,-405.707C2143.97,-397.675 2033.17,-385.559 2015,-370 1990.84,-349.312 1996,-332.808 1996,-301 1996,-301 1996,-301 1996,-243 1996,-203.818 2006.69,-158.159 2012.03,-137.778"/>
<polygon fill="midnightblue" stroke="midnightblue" points="2245.7,-409.209 2255.94,-406.495 2246.24,-402.23 2245.7,-409.209"/>
</g>
<!-- Node6 -->
<g id="node11" class="node"><title>Node6</title>
<a xlink:href="WalkingClient_8h.html" target="_top" xlink:title="ocra&#45;wbi&#45;plugins/ocra&#45;icub&#45;clients/walking&#45;client/include/walking&#45;client/WalkingClient.h">
<polygon fill="white" stroke="black" points="2475,-58.5 2475,-79.5 2867,-79.5 2867,-58.5 2475,-58.5"/>
<text text-anchor="middle" x="2671" y="-66.5" font-family="Helvetica,sans-Serif" font-size="10.00">ocra&#45;wbi&#45;plugins/ocra&#45;icub&#45;clients/walking&#45;client/include/walking&#45;client/WalkingClient.h</text>
</a>
</g>
<!-- Node1&#45;&gt;Node6 -->
<g id="edge56" class="edge"><title>Node1&#45;&gt;Node6</title>
<path fill="none" stroke="midnightblue" d="M2609.91,-406.625C2718.97,-398.833 2839.44,-386.639 2859,-370 2883.23,-349.388 2878,-332.808 2878,-301 2878,-301 2878,-301 2878,-185 2878,-121.868 2803.82,-92.7516 2744.27,-79.5495"/>
<polygon fill="midnightblue" stroke="midnightblue" points="2609.46,-403.147 2599.73,-407.341 2609.95,-410.13 2609.46,-403.147"/>
</g>
<!-- Node20 -->
<g id="node42" class="node"><title>Node20</title>
<a xlink:href="MIQPState_8h.html" target="_top" xlink:title="ocra&#45;wbi&#45;plugins/ocra&#45;icub&#45;clients/walking&#45;client/include/walking&#45;client/MIQPState.h">
<polygon fill="white" stroke="black" points="2024,-348.5 2024,-369.5 2404,-369.5 2404,-348.5 2024,-348.5"/>
<text text-anchor="middle" x="2214" y="-356.5" font-family="Helvetica,sans-Serif" font-size="10.00">ocra&#45;wbi&#45;plugins/ocra&#45;icub&#45;clients/walking&#45;client/include/walking&#45;client/MIQPState.h</text>
</a>
</g>
<!-- Node1&#45;&gt;Node20 -->
<g id="edge44" class="edge"><title>Node1&#45;&gt;Node20</title>
<path fill="none" stroke="midnightblue" d="M2377.02,-403.812C2339.25,-393.428 2287.3,-379.149 2252.28,-369.523"/>
<polygon fill="midnightblue" stroke="midnightblue" points="2376.22,-407.221 2386.79,-406.497 2378.07,-400.471 2376.22,-407.221"/>
</g>
<!-- Node22 -->
<g id="node47" class="node"><title>Node22</title>
<a xlink:href="StepController_8h.html" target="_top" xlink:title="ocra&#45;wbi&#45;plugins/ocra&#45;icub&#45;clients/walking&#45;client/include/walking&#45;client/StepController.h">
<polygon fill="white" stroke="black" points="2905.5,-348.5 2905.5,-369.5 3298.5,-369.5 3298.5,-348.5 2905.5,-348.5"/>
<text text-anchor="middle" x="3102" y="-356.5" font-family="Helvetica,sans-Serif" font-size="10.00">ocra&#45;wbi&#45;plugins/ocra&#45;icub&#45;clients/walking&#45;client/include/walking&#45;client/StepController.h</text>
</a>
</g>
<!-- Node1&#45;&gt;Node22 -->
<g id="edge50" class="edge"><title>Node1&#45;&gt;Node22</title>
<path fill="none" stroke="midnightblue" d="M2557.78,-405.625C2680.08,-395.146 2860.12,-379.722 2979.17,-369.523"/>
<polygon fill="midnightblue" stroke="midnightblue" points="2557.26,-402.156 2547.6,-406.497 2557.86,-409.13 2557.26,-402.156"/>
</g>
<!-- Node24 -->
<g id="node53" class="node"><title>Node24</title>
<a xlink:href="ZmpPreviewController_8h.html" target="_top" xlink:title="ocra&#45;wbi&#45;plugins/ocra&#45;icub&#45;clients/walking&#45;client/include/walking&#45;client/ZmpPreviewController.h">
<polygon fill="white" stroke="black" points="2422,-348.5 2422,-369.5 2850,-369.5 2850,-348.5 2422,-348.5"/>
<text text-anchor="middle" x="2636" y="-356.5" font-family="Helvetica,sans-Serif" font-size="10.00">ocra&#45;wbi&#45;plugins/ocra&#45;icub&#45;clients/walking&#45;client/include/walking&#45;client/ZmpPreviewController.h</text>
</a>
</g>
<!-- Node1&#45;&gt;Node24 -->
<g id="edge58" class="edge"><title>Node1&#45;&gt;Node24</title>
<path fill="none" stroke="midnightblue" d="M2472.98,-403.812C2510.75,-393.428 2562.7,-379.149 2597.72,-369.523"/>
<polygon fill="midnightblue" stroke="midnightblue" points="2471.93,-400.471 2463.21,-406.497 2473.78,-407.221 2471.93,-400.471"/>
</g>
<!-- Node3 -->
<g id="node5" class="node"><title>Node3</title>
<a xlink:href="AdmissibilityConstraints_8h.html" target="_top" xlink:title="ocra&#45;wbi&#45;plugins/ocra&#45;icub&#45;clients/walking&#45;client/include/walking&#45;client/constraints/AdmissibilityConstraints.h">
<polygon fill="white" stroke="black" points="902,-290.5 902,-311.5 1390,-311.5 1390,-290.5 902,-290.5"/>
<text text-anchor="middle" x="1146" y="-298.5" font-family="Helvetica,sans-Serif" font-size="10.00">ocra&#45;wbi&#45;plugins/ocra&#45;icub&#45;clients/walking&#45;client/include/walking&#45;client/constraints/AdmissibilityConstraints.h</text>
</a>
</g>
<!-- Node2&#45;&gt;Node3 -->
<g id="edge4" class="edge"><title>Node2&#45;&gt;Node3</title>
<path fill="none" stroke="midnightblue" d="M1247.95,-344.479C1224.01,-334.269 1192.52,-320.839 1170.9,-311.621"/>
<polygon fill="midnightblue" stroke="midnightblue" points="1246.8,-347.793 1257.37,-348.497 1249.55,-341.354 1246.8,-347.793"/>
</g>
<!-- Node12 -->
<g id="node23" class="node"><title>Node12</title>
<a xlink:href="Bounding_8h.html" target="_top" xlink:title="ocra&#45;wbi&#45;plugins/ocra&#45;icub&#45;clients/walking&#45;client/include/walking&#45;client/constraints/Bounding.h">
<polygon fill="white" stroke="black" points="1446,-290.5 1446,-311.5 1868,-311.5 1868,-290.5 1446,-290.5"/>
<text text-anchor="middle" x="1657" y="-298.5" font-family="Helvetica,sans-Serif" font-size="10.00">ocra&#45;wbi&#45;plugins/ocra&#45;icub&#45;clients/walking&#45;client/include/walking&#45;client/constraints/Bounding.h</text>
</a>
</g>
<!-- Node2&#45;&gt;Node12 -->
<g id="edge22" class="edge"><title>Node2&#45;&gt;Node12</title>
<path fill="none" stroke="midnightblue" d="M1360.08,-346.923C1427.68,-336.468 1524.48,-321.497 1588.96,-311.523"/>
<polygon fill="midnightblue" stroke="midnightblue" points="1359.26,-343.509 1349.91,-348.497 1360.33,-350.427 1359.26,-343.509"/>
</g>
<!-- Node13 -->
<g id="node25" class="node"><title>Node13</title>
<a xlink:href="ShapeConstraints_8h.html" target="_top" xlink:title="ocra&#45;wbi&#45;plugins/ocra&#45;icub&#45;clients/walking&#45;client/include/walking&#45;client/constraints/ShapeConstraints.h">
<polygon fill="white" stroke="black" points="1188,-232.5 1188,-253.5 1648,-253.5 1648,-232.5 1188,-232.5"/>
<text text-anchor="middle" x="1418" y="-240.5" font-family="Helvetica,sans-Serif" font-size="10.00">ocra&#45;wbi&#45;plugins/ocra&#45;icub&#45;clients/walking&#45;client/include/walking&#45;client/constraints/ShapeConstraints.h</text>
</a>
</g>
<!-- Node2&#45;&gt;Node13 -->
<g id="edge40" class="edge"><title>Node2&#45;&gt;Node13</title>
<path fill="none" stroke="midnightblue" d="M1345.43,-345.297C1364.95,-338.26 1384.97,-327.718 1399,-312 1413.73,-295.501 1417.16,-268.587 1417.89,-253.718"/>
<polygon fill="midnightblue" stroke="midnightblue" points="1344.29,-341.988 1335.91,-348.478 1346.51,-348.627 1344.29,-341.988"/>
</g>
<!-- Node16 -->
<g id="node32" class="node"><title>Node16</title>
<a xlink:href="Constancy_8h.html" target="_top" xlink:title="ocra&#45;wbi&#45;plugins/ocra&#45;icub&#45;clients/walking&#45;client/include/walking&#45;client/constraints/Constancy.h">
<polygon fill="white" stroke="black" points="-0.5,-290.5 -0.5,-311.5 428.5,-311.5 428.5,-290.5 -0.5,-290.5"/>
<text text-anchor="middle" x="214" y="-298.5" font-family="Helvetica,sans-Serif" font-size="10.00">ocra&#45;wbi&#45;plugins/ocra&#45;icub&#45;clients/walking&#45;client/include/walking&#45;client/constraints/Constancy.h</text>
</a>
</g>
<!-- Node2&#45;&gt;Node16 -->
<g id="edge32" class="edge"><title>Node2&#45;&gt;Node16</title>
<path fill="none" stroke="midnightblue" d="M1078.32,-347.939C885.305,-337.457 597.459,-321.825 407.769,-311.523"/>
<polygon fill="midnightblue" stroke="midnightblue" points="1078.42,-351.449 1088.59,-348.497 1078.8,-344.459 1078.42,-351.449"/>
</g>
<!-- Node18 -->
<g id="node36" class="node"><title>Node18</title>
<a xlink:href="Sequentiality_8h.html" target="_top" xlink:title="ocra&#45;wbi&#45;plugins/ocra&#45;icub&#45;clients/walking&#45;client/include/walking&#45;client/constraints/Sequentiality.h">
<polygon fill="white" stroke="black" points="446,-290.5 446,-311.5 884,-311.5 884,-290.5 446,-290.5"/>
<text text-anchor="middle" x="665" y="-298.5" font-family="Helvetica,sans-Serif" font-size="10.00">ocra&#45;wbi&#45;plugins/ocra&#45;icub&#45;clients/walking&#45;client/include/walking&#45;client/constraints/Sequentiality.h</text>
</a>
</g>
<!-- Node2&#45;&gt;Node18 -->
<g id="edge36" class="edge"><title>Node2&#45;&gt;Node18</title>
<path fill="none" stroke="midnightblue" d="M1159.98,-347.53C1048.53,-337.054 885.114,-321.691 776.944,-311.523"/>
<polygon fill="midnightblue" stroke="midnightblue" points="1159.98,-351.045 1170.27,-348.497 1160.64,-344.076 1159.98,-351.045"/>
</g>
<!-- Node4 -->
<g id="node7" class="node"><title>Node4</title>
<a xlink:href="MIQPLinearConstraints_8h.html" target="_top" xlink:title="ocra&#45;wbi&#45;plugins/ocra&#45;icub&#45;clients/walking&#45;client/include/walking&#45;client/constraints/MIQPLinearConstraints.h">
<polygon fill="white" stroke="black" points="1022,-174.5 1022,-195.5 1506,-195.5 1506,-174.5 1022,-174.5"/>
<text text-anchor="middle" x="1264" y="-182.5" font-family="Helvetica,sans-Serif" font-size="10.00">ocra&#45;wbi&#45;plugins/ocra&#45;icub&#45;clients/walking&#45;client/include/walking&#45;client/constraints/MIQPLinearConstraints.h</text>
</a>
</g>
<!-- Node3&#45;&gt;Node4 -->
<g id="edge6" class="edge"><title>Node3&#45;&gt;Node4</title>
<path fill="none" stroke="midnightblue" d="M1151.97,-280.686C1157.18,-265.793 1165.95,-245.84 1179,-232 1194.5,-215.558 1217.06,-203.451 1235.05,-195.646"/>
<polygon fill="midnightblue" stroke="midnightblue" points="1148.55,-279.885 1148.81,-290.477 1155.22,-282.038 1148.55,-279.885"/>
</g>
<!-- Node11 -->
<g id="node21" class="node"><title>Node11</title>
<a xlink:href="AdmissibilityConstraints_8cpp.html" target="_top" xlink:title="ocra&#45;wbi&#45;plugins/ocra&#45;icub&#45;clients/walking&#45;client/src/AdmissibilityConstraints.cpp">
<polygon fill="white" stroke="black" points="764,-232.5 764,-253.5 1132,-253.5 1132,-232.5 764,-232.5"/>
<text text-anchor="middle" x="948" y="-240.5" font-family="Helvetica,sans-Serif" font-size="10.00">ocra&#45;wbi&#45;plugins/ocra&#45;icub&#45;clients/walking&#45;client/src/AdmissibilityConstraints.cpp</text>
</a>
</g>
<!-- Node3&#45;&gt;Node11 -->
<g id="edge20" class="edge"><title>Node3&#45;&gt;Node11</title>
<path fill="none" stroke="midnightblue" d="M1100.53,-287.68C1065.12,-277.307 1016.64,-263.108 983.924,-253.523"/>
<polygon fill="midnightblue" stroke="midnightblue" points="1099.56,-291.044 1110.14,-290.497 1101.53,-284.327 1099.56,-291.044"/>
</g>
<!-- Node4&#45;&gt;Node5 -->
<g id="edge8" class="edge"><title>Node4&#45;&gt;Node5</title>
<path fill="none" stroke="midnightblue" d="M1410.06,-173.719C1545.76,-163.239 1746.29,-147.753 1878.74,-137.523"/>
<polygon fill="midnightblue" stroke="midnightblue" points="1409.7,-170.237 1400,-174.497 1410.24,-177.216 1409.7,-170.237"/>
</g>
<!-- Node10 -->
<g id="node19" class="node"><title>Node10</title>
<a xlink:href="MIQPLinearConstraints_8cpp.html" target="_top" xlink:title="ocra&#45;wbi&#45;plugins/ocra&#45;icub&#45;clients/walking&#45;client/src/MIQPLinearConstraints.cpp">
<polygon fill="white" stroke="black" points="1082,-116.5 1082,-137.5 1446,-137.5 1446,-116.5 1082,-116.5"/>
<text text-anchor="middle" x="1264" y="-124.5" font-family="Helvetica,sans-Serif" font-size="10.00">ocra&#45;wbi&#45;plugins/ocra&#45;icub&#45;clients/walking&#45;client/src/MIQPLinearConstraints.cpp</text>
</a>
</g>
<!-- Node4&#45;&gt;Node10 -->
<g id="edge18" class="edge"><title>Node4&#45;&gt;Node10</title>
<path fill="none" stroke="midnightblue" d="M1264,-164.191C1264,-155.168 1264,-144.994 1264,-137.571"/>
<polygon fill="midnightblue" stroke="midnightblue" points="1260.5,-164.362 1264,-174.362 1267.5,-164.362 1260.5,-164.362"/>
</g>
<!-- Node5&#45;&gt;Node6 -->
<g id="edge10" class="edge"><title>Node5&#45;&gt;Node6</title>
<path fill="none" stroke="midnightblue" d="M2144.01,-115.593C2262.52,-105.115 2436.74,-89.7119 2551.98,-79.5231"/>
<polygon fill="midnightblue" stroke="midnightblue" points="2143.45,-112.129 2133.8,-116.497 2144.07,-119.102 2143.45,-112.129"/>
</g>
<!-- Node9 -->
<g id="node17" class="node"><title>Node9</title>
<a xlink:href="MIQPController_8cpp.html" target="_top" xlink:title="ocra&#45;wbi&#45;plugins/ocra&#45;icub&#45;clients/walking&#45;client/src/MIQPController.cpp">
<polygon fill="white" stroke="black" points="1850.5,-58.5 1850.5,-79.5 2179.5,-79.5 2179.5,-58.5 1850.5,-58.5"/>
<text text-anchor="middle" x="2015" y="-66.5" font-family="Helvetica,sans-Serif" font-size="10.00">ocra&#45;wbi&#45;plugins/ocra&#45;icub&#45;clients/walking&#45;client/src/MIQPController.cpp</text>
</a>
</g>
<!-- Node5&#45;&gt;Node9 -->
<g id="edge16" class="edge"><title>Node5&#45;&gt;Node9</title>
<path fill="none" stroke="midnightblue" d="M2015,-106.191C2015,-97.1684 2015,-86.9941 2015,-79.5707"/>
<polygon fill="midnightblue" stroke="midnightblue" points="2011.5,-106.362 2015,-116.362 2018.5,-106.362 2011.5,-106.362"/>
</g>
<!-- Node7 -->
<g id="node13" class="node"><title>Node7</title>
<a xlink:href="ocra-icub-clients_2walking-client_2src_2main_8cpp.html" target="_top" xlink:title="ocra&#45;wbi&#45;plugins/ocra&#45;icub&#45;clients/walking&#45;client/src/main.cpp">
<polygon fill="white" stroke="black" points="2369.5,-0.5 2369.5,-21.5 2652.5,-21.5 2652.5,-0.5 2369.5,-0.5"/>
<text text-anchor="middle" x="2511" y="-8.5" font-family="Helvetica,sans-Serif" font-size="10.00">ocra&#45;wbi&#45;plugins/ocra&#45;icub&#45;clients/walking&#45;client/src/main.cpp</text>
</a>
</g>
<!-- Node6&#45;&gt;Node7 -->
<g id="edge12" class="edge"><title>Node6&#45;&gt;Node7</title>
<path fill="none" stroke="midnightblue" d="M2632.41,-55.0095C2603.97,-44.7023 2565.9,-30.903 2540.03,-21.5231"/>
<polygon fill="midnightblue" stroke="midnightblue" points="2631.43,-58.3791 2642.03,-58.4966 2633.82,-51.7981 2631.43,-58.3791"/>
</g>
<!-- Node8 -->
<g id="node15" class="node"><title>Node8</title>
<a xlink:href="WalkingClient_8cpp.html" target="_top" xlink:title="ocra&#45;wbi&#45;plugins/ocra&#45;icub&#45;clients/walking&#45;client/src/WalkingClient.cpp">
<polygon fill="white" stroke="black" points="2669.5,-0.5 2669.5,-21.5 2992.5,-21.5 2992.5,-0.5 2669.5,-0.5"/>
<text text-anchor="middle" x="2831" y="-8.5" font-family="Helvetica,sans-Serif" font-size="10.00">ocra&#45;wbi&#45;plugins/ocra&#45;icub&#45;clients/walking&#45;client/src/WalkingClient.cpp</text>
</a>
</g>
<!-- Node6&#45;&gt;Node8 -->
<g id="edge14" class="edge"><title>Node6&#45;&gt;Node8</title>
<path fill="none" stroke="midnightblue" d="M2709.59,-55.0095C2738.03,-44.7023 2776.1,-30.903 2801.97,-21.5231"/>
<polygon fill="midnightblue" stroke="midnightblue" points="2708.18,-51.7981 2699.97,-58.4966 2710.57,-58.3791 2708.18,-51.7981"/>
</g>
<!-- Node12&#45;&gt;Node13 -->
<g id="edge24" class="edge"><title>Node12&#45;&gt;Node13</title>
<path fill="none" stroke="midnightblue" d="M1603.75,-288.077C1560.87,-277.672 1501.36,-263.231 1461.36,-253.523"/>
<polygon fill="midnightblue" stroke="midnightblue" points="1603.18,-291.54 1613.72,-290.497 1604.83,-284.737 1603.18,-291.54"/>
</g>
<!-- Node15 -->
<g id="node30" class="node"><title>Node15</title>
<a xlink:href="Bounding_8cpp.html" target="_top" xlink:title="ocra&#45;wbi&#45;plugins/ocra&#45;icub&#45;clients/walking&#45;client/src/Bounding.cpp">
<polygon fill="white" stroke="black" points="1666,-232.5 1666,-253.5 1968,-253.5 1968,-232.5 1666,-232.5"/>
<text text-anchor="middle" x="1817" y="-240.5" font-family="Helvetica,sans-Serif" font-size="10.00">ocra&#45;wbi&#45;plugins/ocra&#45;icub&#45;clients/walking&#45;client/src/Bounding.cpp</text>
</a>
</g>
<!-- Node12&#45;&gt;Node15 -->
<g id="edge30" class="edge"><title>Node12&#45;&gt;Node15</title>
<path fill="none" stroke="midnightblue" d="M1695.59,-287.009C1724.03,-276.702 1762.1,-262.903 1787.97,-253.523"/>
<polygon fill="midnightblue" stroke="midnightblue" points="1694.18,-283.798 1685.97,-290.497 1696.57,-290.379 1694.18,-283.798"/>
</g>
<!-- Node13&#45;&gt;Node4 -->
<g id="edge26" class="edge"><title>Node13&#45;&gt;Node4</title>
<path fill="none" stroke="midnightblue" d="M1380.49,-228.874C1353.17,-218.582 1316.74,-204.862 1291.94,-195.523"/>
<polygon fill="midnightblue" stroke="midnightblue" points="1379.52,-232.247 1390.11,-232.497 1381.99,-225.697 1379.52,-232.247"/>
</g>
<!-- Node14 -->
<g id="node28" class="node"><title>Node14</title>
<a xlink:href="ShapeConstraints_8cpp.html" target="_top" xlink:title="ocra&#45;wbi&#45;plugins/ocra&#45;icub&#45;clients/walking&#45;client/src/ShapeConstraints.cpp">
<polygon fill="white" stroke="black" points="1524,-174.5 1524,-195.5 1864,-195.5 1864,-174.5 1524,-174.5"/>
<text text-anchor="middle" x="1694" y="-182.5" font-family="Helvetica,sans-Serif" font-size="10.00">ocra&#45;wbi&#45;plugins/ocra&#45;icub&#45;clients/walking&#45;client/src/ShapeConstraints.cpp</text>
</a>
</g>
<!-- Node13&#45;&gt;Node14 -->
<g id="edge28" class="edge"><title>Node13&#45;&gt;Node14</title>
<path fill="none" stroke="midnightblue" d="M1477.94,-230.404C1527.56,-219.977 1597.24,-205.333 1643.92,-195.523"/>
<polygon fill="midnightblue" stroke="midnightblue" points="1477.05,-227.015 1467.98,-232.497 1478.49,-233.865 1477.05,-227.015"/>
</g>
<!-- Node17 -->
<g id="node34" class="node"><title>Node17</title>
<a xlink:href="Constancy_8cpp.html" target="_top" xlink:title="ocra&#45;wbi&#45;plugins/ocra&#45;icub&#45;clients/walking&#45;client/src/Constancy.cpp">
<polygon fill="white" stroke="black" points="59.5,-232.5 59.5,-253.5 368.5,-253.5 368.5,-232.5 59.5,-232.5"/>
<text text-anchor="middle" x="214" y="-240.5" font-family="Helvetica,sans-Serif" font-size="10.00">ocra&#45;wbi&#45;plugins/ocra&#45;icub&#45;clients/walking&#45;client/src/Constancy.cpp</text>
</a>
</g>
<!-- Node16&#45;&gt;Node17 -->
<g id="edge34" class="edge"><title>Node16&#45;&gt;Node17</title>
<path fill="none" stroke="midnightblue" d="M214,-280.191C214,-271.168 214,-260.994 214,-253.571"/>
<polygon fill="midnightblue" stroke="midnightblue" points="210.5,-280.362 214,-290.362 217.5,-280.362 210.5,-280.362"/>
</g>
<!-- Node19 -->
<g id="node38" class="node"><title>Node19</title>
<a xlink:href="Sequentiality_8cpp.html" target="_top" xlink:title="ocra&#45;wbi&#45;plugins/ocra&#45;icub&#45;clients/walking&#45;client/src/Sequentiality.cpp">
<polygon fill="white" stroke="black" points="428,-232.5 428,-253.5 746,-253.5 746,-232.5 428,-232.5"/>
<text text-anchor="middle" x="587" y="-240.5" font-family="Helvetica,sans-Serif" font-size="10.00">ocra&#45;wbi&#45;plugins/ocra&#45;icub&#45;clients/walking&#45;client/src/Sequentiality.cpp</text>
</a>
</g>
<!-- Node18&#45;&gt;Node19 -->
<g id="edge38" class="edge"><title>Node18&#45;&gt;Node19</title>
<path fill="none" stroke="midnightblue" d="M642.486,-284.259C629.179,-274.364 612.735,-262.136 601.216,-253.571"/>
<polygon fill="midnightblue" stroke="midnightblue" points="640.58,-287.203 650.694,-290.362 644.757,-281.586 640.58,-287.203"/>
</g>
<!-- Node20&#45;&gt;Node5 -->
<g id="edge46" class="edge"><title>Node20&#45;&gt;Node5</title>
<path fill="none" stroke="midnightblue" d="M2145.41,-346.321C2107.66,-337.968 2065.91,-326.004 2053,-312 2006.33,-261.37 2010.66,-169.316 2013.72,-137.869"/>
<polygon fill="midnightblue" stroke="midnightblue" points="2144.9,-349.79 2155.41,-348.472 2146.37,-342.947 2144.9,-349.79"/>
</g>
<!-- Node21 -->
<g id="node45" class="node"><title>Node21</title>
<a xlink:href="MIQPState_8cpp.html" target="_top" xlink:title="ocra&#45;wbi&#45;plugins/ocra&#45;icub&#45;clients/walking&#45;client/src/MIQPState.cpp">
<polygon fill="white" stroke="black" points="2061.5,-290.5 2061.5,-311.5 2372.5,-311.5 2372.5,-290.5 2061.5,-290.5"/>
<text text-anchor="middle" x="2217" y="-298.5" font-family="Helvetica,sans-Serif" font-size="10.00">ocra&#45;wbi&#45;plugins/ocra&#45;icub&#45;clients/walking&#45;client/src/MIQPState.cpp</text>
</a>
</g>
<!-- Node20&#45;&gt;Node21 -->
<g id="edge48" class="edge"><title>Node20&#45;&gt;Node21</title>
<path fill="none" stroke="midnightblue" d="M2215.08,-338.191C2215.54,-329.168 2216.07,-318.994 2216.45,-311.571"/>
<polygon fill="midnightblue" stroke="midnightblue" points="2211.57,-338.194 2214.55,-348.362 2218.56,-338.556 2211.57,-338.194"/>
</g>
<!-- Node22&#45;&gt;Node6 -->
<g id="edge52" class="edge"><title>Node22&#45;&gt;Node6</title>
<path fill="none" stroke="midnightblue" d="M3182.87,-345.377C3203.51,-338.415 3224.06,-327.895 3239,-312 3260.79,-288.824 3258,-274.808 3258,-243 3258,-243 3258,-243 3258,-185 3258,-136.76 2948.96,-97.4537 2779.35,-79.5136"/>
<polygon fill="midnightblue" stroke="midnightblue" points="3181.58,-342.111 3173.08,-348.424 3183.66,-348.794 3181.58,-342.111"/>
</g>
<!-- Node23 -->
<g id="node50" class="node"><title>Node23</title>
<a xlink:href="StepController_8cpp.html" target="_top" xlink:title="ocra&#45;wbi&#45;plugins/ocra&#45;icub&#45;clients/walking&#45;client/src/StepController.cpp">
<polygon fill="white" stroke="black" points="2906,-290.5 2906,-311.5 3230,-311.5 3230,-290.5 2906,-290.5"/>
<text text-anchor="middle" x="3068" y="-298.5" font-family="Helvetica,sans-Serif" font-size="10.00">ocra&#45;wbi&#45;plugins/ocra&#45;icub&#45;clients/walking&#45;client/src/StepController.cpp</text>
</a>
</g>
<!-- Node22&#45;&gt;Node23 -->
<g id="edge54" class="edge"><title>Node22&#45;&gt;Node23</title>
<path fill="none" stroke="midnightblue" d="M3090.67,-339.667C3085.17,-330.295 3078.79,-319.402 3074.2,-311.571"/>
<polygon fill="midnightblue" stroke="midnightblue" points="3087.69,-341.505 3095.76,-348.362 3093.73,-337.965 3087.69,-341.505"/>
</g>
<!-- Node24&#45;&gt;Node6 -->
<g id="edge60" class="edge"><title>Node24&#45;&gt;Node6</title>
<path fill="none" stroke="midnightblue" d="M2573.27,-346.145C2536.95,-337.508 2495.92,-325.302 2483,-312 2460.84,-289.181 2464,-274.808 2464,-243 2464,-243 2464,-243 2464,-185 2464,-121.868 2538.18,-92.7516 2597.73,-79.5495"/>
<polygon fill="midnightblue" stroke="midnightblue" points="2572.83,-349.636 2583.36,-348.485 2574.41,-342.817 2572.83,-349.636"/>
</g>
<!-- Node25 -->
<g id="node56" class="node"><title>Node25</title>
<a xlink:href="ZmpPreviewController_8cpp.html" target="_top" xlink:title="ocra&#45;wbi&#45;plugins/ocra&#45;icub&#45;clients/walking&#45;client/src/ZmpPreviewController.cpp">
<polygon fill="white" stroke="black" points="2491.5,-290.5 2491.5,-311.5 2850.5,-311.5 2850.5,-290.5 2491.5,-290.5"/>
<text text-anchor="middle" x="2671" y="-298.5" font-family="Helvetica,sans-Serif" font-size="10.00">ocra&#45;wbi&#45;plugins/ocra&#45;icub&#45;clients/walking&#45;client/src/ZmpPreviewController.cpp</text>
</a>
</g>
<!-- Node24&#45;&gt;Node25 -->
<g id="edge62" class="edge"><title>Node24&#45;&gt;Node25</title>
<path fill="none" stroke="midnightblue" d="M2647.67,-339.667C2653.32,-330.295 2659.9,-319.402 2664.62,-311.571"/>
<polygon fill="midnightblue" stroke="midnightblue" points="2644.59,-337.992 2642.42,-348.362 2650.58,-341.608 2644.59,-337.992"/>
</g>
</g>
</svg>
