<?xml version="1.0" encoding="UTF-8" standalone="no"?>
<!DOCTYPE svg PUBLIC "-//W3C//DTD SVG 1.1//EN"
 "http://www.w3.org/Graphics/SVG/1.1/DTD/svg11.dtd">
<!-- Generated by graphviz version 2.26.3 (20100126.1600)
 -->
<!-- Title: G Pages: 1 -->
<svg width="3275pt" height="436pt"
 viewBox="0.00 0.00 3275.00 436.00" xmlns="http://www.w3.org/2000/svg" xmlns:xlink="http://www.w3.org/1999/xlink">
<g id="graph1" class="graph" transform="scale(1 1) rotate(0) translate(4 432)">
<title>G</title>
<polygon fill="white" stroke="white" points="-4,5 -4,-432 3272,-432 3272,5 -4,5"/>
<!-- Node1 -->
<g id="node1" class="node"><title>Node1</title>
<polygon fill="#bfbfbf" stroke="black" points="2550.5,-406.5 2550.5,-427.5 2873.5,-427.5 2873.5,-406.5 2550.5,-406.5"/>
<text text-anchor="middle" x="2712" y="-414.5" font-family="Helvetica,sans-Serif" font-size="10.00">ocra&#45;wbi&#45;plugins/ocra&#45;icub&#45;clients/walking&#45;client/src/WalkingClient.cpp</text>
</g>
<!-- Node2 -->
<g id="node3" class="node"><title>Node2</title>
<a xlink:href="WalkingClient_8h.html" target="_top" xlink:title="walking&#45;client/WalkingClient.h">
<polygon fill="white" stroke="black" points="2638,-348.5 2638,-369.5 2786,-369.5 2786,-348.5 2638,-348.5"/>
<text text-anchor="middle" x="2712" y="-356.5" font-family="Helvetica,sans-Serif" font-size="10.00">walking&#45;client/WalkingClient.h</text>
</a>
</g>
<!-- Node1&#45;&gt;Node2 -->
<g id="edge2" class="edge"><title>Node1&#45;&gt;Node2</title>
<path fill="none" stroke="midnightblue" d="M2712,-406.362C2712,-398.922 2712,-388.743 2712,-379.728"/>
<polygon fill="midnightblue" stroke="midnightblue" points="2715.5,-379.571 2712,-369.571 2708.5,-379.571 2715.5,-379.571"/>
</g>
<!-- Node3 -->
<g id="node5" class="node"><title>Node3</title>
<a xlink:href="IcubClient_8h.html" target="_top" xlink:title="ocra&#45;icub/IcubClient.h">
<polygon fill="white" stroke="black" points="896,-290.5 896,-311.5 1008,-311.5 1008,-290.5 896,-290.5"/>
<text text-anchor="middle" x="952" y="-298.5" font-family="Helvetica,sans-Serif" font-size="10.00">ocra&#45;icub/IcubClient.h</text>
</a>
</g>
<!-- Node2&#45;&gt;Node3 -->
<g id="edge4" class="edge"><title>Node2&#45;&gt;Node3</title>
<path fill="none" stroke="midnightblue" d="M2637.78,-356.554C2347.83,-346.999 1293.98,-312.27 1018.34,-303.186"/>
<polygon fill="midnightblue" stroke="midnightblue" points="1018.21,-299.68 1008.1,-302.849 1017.98,-306.676 1018.21,-299.68"/>
</g>
<!-- Node28 -->
<g id="node60" class="node"><title>Node28</title>
<polygon fill="white" stroke="#bfbfbf" points="2586,-0.5 2586,-21.5 2668,-21.5 2668,-0.5 2586,-0.5"/>
<text text-anchor="middle" x="2627" y="-8.5" font-family="Helvetica,sans-Serif" font-size="10.00">yarp/os/Time.h</text>
</g>
<!-- Node2&#45;&gt;Node28 -->
<g id="edge170" class="edge"><title>Node2&#45;&gt;Node28</title>
<path fill="none" stroke="midnightblue" d="M2730.62,-348.484C2759.3,-330.748 2811,-291.981 2811,-243 2811,-243 2811,-243 2811,-127 2811,-63.8987 2732.6,-33.751 2678.16,-20.422"/>
<polygon fill="midnightblue" stroke="midnightblue" points="2678.83,-16.9844 2668.29,-18.1248 2677.24,-23.8019 2678.83,-16.9844"/>
</g>
<!-- Node36 -->
<g id="node89" class="node"><title>Node36</title>
<polygon fill="white" stroke="#bfbfbf" points="2599.5,-116.5 2599.5,-137.5 2754.5,-137.5 2754.5,-116.5 2599.5,-116.5"/>
<text text-anchor="middle" x="2677" y="-124.5" font-family="Helvetica,sans-Serif" font-size="10.00">ocra&#45;recipes/TrajectoryThread.h</text>
</g>
<!-- Node2&#45;&gt;Node36 -->
<g id="edge106" class="edge"><title>Node2&#45;&gt;Node36</title>
<path fill="none" stroke="midnightblue" d="M2720.44,-348.148C2726.95,-339.063 2735.41,-325.457 2739,-312 2748.42,-276.708 2769.42,-251.218 2731,-174 2724.94,-161.83 2714.21,-151.479 2703.89,-143.616"/>
<polygon fill="midnightblue" stroke="midnightblue" points="2705.62,-140.549 2695.44,-137.609 2701.56,-146.255 2705.62,-140.549"/>
</g>
<!-- Node37 -->
<g id="node91" class="node"><title>Node37</title>
<polygon fill="white" stroke="#bfbfbf" points="2838.5,-290.5 2838.5,-311.5 2987.5,-311.5 2987.5,-290.5 2838.5,-290.5"/>
<text text-anchor="middle" x="2913" y="-298.5" font-family="Helvetica,sans-Serif" font-size="10.00">ocra&#45;recipes/ControllerClient.h</text>
</g>
<!-- Node2&#45;&gt;Node37 -->
<g id="edge108" class="edge"><title>Node2&#45;&gt;Node37</title>
<path fill="none" stroke="midnightblue" d="M2748.4,-348.497C2781.59,-338.918 2830.8,-324.72 2866.76,-314.342"/>
<polygon fill="midnightblue" stroke="midnightblue" points="2867.89,-317.658 2876.53,-311.523 2865.95,-310.933 2867.89,-317.658"/>
</g>
<!-- Node38 -->
<g id="node93" class="node"><title>Node38</title>
<polygon fill="white" stroke="#bfbfbf" points="3005,-290.5 3005,-311.5 3125,-311.5 3125,-290.5 3005,-290.5"/>
<text text-anchor="middle" x="3065" y="-298.5" font-family="Helvetica,sans-Serif" font-size="10.00">ocra/util/EigenUtilities.h</text>
</g>
<!-- Node2&#45;&gt;Node38 -->
<g id="edge110" class="edge"><title>Node2&#45;&gt;Node38</title>
<path fill="none" stroke="midnightblue" d="M2775.93,-348.497C2837.69,-338.348 2931.02,-323.014 2994.81,-312.532"/>
<polygon fill="midnightblue" stroke="midnightblue" points="2995.49,-315.968 3004.79,-310.893 2994.35,-309.061 2995.49,-315.968"/>
</g>
<!-- Node39 -->
<g id="node95" class="node"><title>Node39</title>
<a xlink:href="ZmpPreviewController_8h.html" target="_top" xlink:title="walking&#45;client/ZmpPreviewController.h">
<polygon fill="white" stroke="black" points="1739,-174.5 1739,-195.5 1923,-195.5 1923,-174.5 1739,-174.5"/>
<text text-anchor="middle" x="1831" y="-182.5" font-family="Helvetica,sans-Serif" font-size="10.00">walking&#45;client/ZmpPreviewController.h</text>
</a>
</g>
<!-- Node2&#45;&gt;Node39 -->
<g id="edge112" class="edge"><title>Node2&#45;&gt;Node39</title>
<path fill="none" stroke="midnightblue" d="M2637.98,-358.063C2420.83,-354.954 1798.82,-343.341 1769,-312 1744.49,-286.24 1753.18,-263.843 1769,-232 1775.46,-218.987 1787.44,-208.611 1799.16,-200.954"/>
<polygon fill="midnightblue" stroke="midnightblue" points="1801.23,-203.796 1807.98,-195.629 1797.61,-197.804 1801.23,-203.796"/>
</g>
<!-- Node41 -->
<g id="node102" class="node"><title>Node41</title>
<a xlink:href="utils_8h.html" target="_top" xlink:title="walking&#45;client/utils.h">
<polygon fill="white" stroke="black" points="2068.5,-116.5 2068.5,-137.5 2173.5,-137.5 2173.5,-116.5 2068.5,-116.5"/>
<text text-anchor="middle" x="2121" y="-124.5" font-family="Helvetica,sans-Serif" font-size="10.00">walking&#45;client/utils.h</text>
</a>
</g>
<!-- Node2&#45;&gt;Node41 -->
<g id="edge130" class="edge"><title>Node2&#45;&gt;Node41</title>
<path fill="none" stroke="midnightblue" d="M2637.8,-356.137C2430.33,-347.359 1855.85,-317.48 1802,-254 1795.67,-246.544 1796.08,-239.782 1802,-232 1838.3,-184.285 1874.91,-214.295 1932,-196 1985.74,-178.779 2046.93,-155.812 2084.76,-141.211"/>
<polygon fill="midnightblue" stroke="midnightblue" points="2086.26,-144.384 2094.32,-137.507 2083.73,-137.856 2086.26,-144.384"/>
</g>
<!-- Node42 -->
<g id="node104" class="node"><title>Node42</title>
<a xlink:href="StepController_8h.html" target="_top" xlink:title="walking&#45;client/StepController.h">
<polygon fill="white" stroke="black" points="2573.5,-174.5 2573.5,-195.5 2722.5,-195.5 2722.5,-174.5 2573.5,-174.5"/>
<text text-anchor="middle" x="2648" y="-182.5" font-family="Helvetica,sans-Serif" font-size="10.00">walking&#45;client/StepController.h</text>
</a>
</g>
<!-- Node2&#45;&gt;Node42 -->
<g id="edge124" class="edge"><title>Node2&#45;&gt;Node42</title>
<path fill="none" stroke="midnightblue" d="M2715.65,-348.354C2722.8,-325.5 2736.29,-270.681 2716,-232 2708.92,-218.5 2696.01,-208.112 2683.32,-200.577"/>
<polygon fill="midnightblue" stroke="midnightblue" points="2684.67,-197.322 2674.21,-195.591 2681.31,-203.462 2684.67,-197.322"/>
</g>
<!-- Node43 -->
<g id="node109" class="node"><title>Node43</title>
<a xlink:href="MIQPController_8h.html" target="_top" xlink:title="A thread for launching trajectory generators.">
<polygon fill="white" stroke="black" points="2161.5,-290.5 2161.5,-311.5 2316.5,-311.5 2316.5,-290.5 2161.5,-290.5"/>
<text text-anchor="middle" x="2239" y="-298.5" font-family="Helvetica,sans-Serif" font-size="10.00">walking&#45;client/MIQPController.h</text>
</a>
</g>
<!-- Node2&#45;&gt;Node43 -->
<g id="edge132" class="edge"><title>Node2&#45;&gt;Node43</title>
<path fill="none" stroke="midnightblue" d="M2637.83,-349.906C2553.59,-339.576 2416.25,-322.734 2326.75,-311.76"/>
<polygon fill="midnightblue" stroke="midnightblue" points="2326.97,-308.261 2316.62,-310.518 2326.12,-315.209 2326.97,-308.261"/>
</g>
<!-- Node44 -->
<g id="node111" class="node"><title>Node44</title>
<polygon fill="white" stroke="#bfbfbf" points="2563,-232.5 2563,-253.5 2637,-253.5 2637,-232.5 2563,-232.5"/>
<text text-anchor="middle" x="2600" y="-240.5" font-family="Helvetica,sans-Serif" font-size="10.00">gurobi_c++.h</text>
</g>
<!-- Node2&#45;&gt;Node44 -->
<g id="edge172" class="edge"><title>Node2&#45;&gt;Node44</title>
<path fill="none" stroke="midnightblue" d="M2701.66,-348.295C2682.41,-328.355 2640.88,-285.337 2617.29,-260.906"/>
<polygon fill="midnightblue" stroke="midnightblue" points="2619.77,-258.442 2610.31,-253.679 2614.74,-263.304 2619.77,-258.442"/>
</g>
<!-- Node49 -->
<g id="node132" class="node"><title>Node49</title>
<polygon fill="white" stroke="#bfbfbf" points="2654.5,-232.5 2654.5,-253.5 2707.5,-253.5 2707.5,-232.5 2654.5,-232.5"/>
<text text-anchor="middle" x="2681" y="-240.5" font-family="Helvetica,sans-Serif" font-size="10.00">Gurobi.h</text>
</g>
<!-- Node2&#45;&gt;Node49 -->
<g id="edge174" class="edge"><title>Node2&#45;&gt;Node49</title>
<path fill="none" stroke="midnightblue" d="M2709.14,-348.295C2703.99,-329.045 2693.1,-288.289 2686.48,-263.509"/>
<polygon fill="midnightblue" stroke="midnightblue" points="2689.82,-262.437 2683.85,-253.679 2683.05,-264.244 2689.82,-262.437"/>
</g>
<!-- Node50 -->
<g id="node134" class="node"><title>Node50</title>
<polygon fill="white" stroke="#bfbfbf" points="3142.5,-290.5 3142.5,-311.5 3267.5,-311.5 3267.5,-290.5 3142.5,-290.5"/>
<text text-anchor="middle" x="3205" y="-298.5" font-family="Helvetica,sans-Serif" font-size="10.00">ocra/util/FileOperations.h</text>
</g>
<!-- Node2&#45;&gt;Node50 -->
<g id="edge168" class="edge"><title>Node2&#45;&gt;Node50</title>
<path fill="none" stroke="midnightblue" d="M2786.06,-351.72C2868.28,-343.42 3005.16,-328.951 3132.38,-312.178"/>
<polygon fill="midnightblue" stroke="midnightblue" points="3132.85,-315.647 3142.3,-310.863 3131.93,-308.708 3132.85,-315.647"/>
</g>
<!-- Node4 -->
<g id="node7" class="node"><title>Node4</title>
<a xlink:href="ModelInitializer_8h.html" target="_top" xlink:title="ocra&#45;icub/ModelInitializer.h">
<polygon fill="white" stroke="black" points="250.5,-232.5 250.5,-253.5 383.5,-253.5 383.5,-232.5 250.5,-232.5"/>
<text text-anchor="middle" x="317" y="-240.5" font-family="Helvetica,sans-Serif" font-size="10.00">ocra&#45;icub/ModelInitializer.h</text>
</a>
</g>
<!-- Node3&#45;&gt;Node4 -->
<g id="edge6" class="edge"><title>Node3&#45;&gt;Node4</title>
<path fill="none" stroke="midnightblue" d="M895.927,-295.878C782.02,-285.474 523.411,-261.853 393.903,-250.024"/>
<polygon fill="midnightblue" stroke="midnightblue" points="393.948,-246.514 383.671,-249.09 393.311,-253.485 393.948,-246.514"/>
</g>
<!-- Node5 -->
<g id="node9" class="node"><title>Node5</title>
<a xlink:href="OcraWbiModel_8h.html" target="_top" xlink:title="Implementation of ocra::Model using wholeBodyInterface.">
<polygon fill="white" stroke="black" points="886,-174.5 886,-195.5 1018,-195.5 1018,-174.5 886,-174.5"/>
<text text-anchor="middle" x="952" y="-182.5" font-family="Helvetica,sans-Serif" font-size="10.00">ocra&#45;icub/OcraWbiModel.h</text>
</a>
</g>
<!-- Node3&#45;&gt;Node5 -->
<g id="edge102" class="edge"><title>Node3&#45;&gt;Node5</title>
<path fill="none" stroke="midnightblue" d="M952,-290.295C952,-271.131 952,-230.654 952,-205.843"/>
<polygon fill="midnightblue" stroke="midnightblue" points="955.5,-205.679 952,-195.679 948.5,-205.679 955.5,-205.679"/>
</g>
<!-- Node10 -->
<g id="node19" class="node"><title>Node10</title>
<a xlink:href="OcraWbiConversions_8h.html" target="_top" xlink:title="A utility class full of static conversion functions.">
<polygon fill="white" stroke="black" points="763.5,-116.5 763.5,-137.5 924.5,-137.5 924.5,-116.5 763.5,-116.5"/>
<text text-anchor="middle" x="844" y="-124.5" font-family="Helvetica,sans-Serif" font-size="10.00">ocra&#45;icub/OcraWbiConversions.h</text>
</a>
</g>
<!-- Node3&#45;&gt;Node10 -->
<g id="edge100" class="edge"><title>Node3&#45;&gt;Node10</title>
<path fill="none" stroke="midnightblue" d="M943.467,-290.388C928.82,-271.896 898.406,-232.27 877,-196 867.55,-179.988 858.566,-160.851 852.364,-146.796"/>
<polygon fill="midnightblue" stroke="midnightblue" points="855.558,-145.365 848.374,-137.578 849.135,-148.146 855.558,-145.365"/>
</g>
<!-- Node16 -->
<g id="node33" class="node"><title>Node16</title>
<a xlink:href="Utilities_8h.html" target="_top" xlink:title="Some useful tools for the ocra&#45;icub lib.">
<polygon fill="white" stroke="black" points="1273.5,-58.5 1273.5,-79.5 1374.5,-79.5 1374.5,-58.5 1273.5,-58.5"/>
<text text-anchor="middle" x="1324" y="-66.5" font-family="Helvetica,sans-Serif" font-size="10.00">ocra&#45;icub/Utilities.h</text>
</a>
</g>
<!-- Node3&#45;&gt;Node16 -->
<g id="edge104" class="edge"><title>Node3&#45;&gt;Node16</title>
<path fill="none" stroke="midnightblue" d="M968.951,-290.429C1028.26,-253.44 1226.71,-129.673 1298.12,-85.1379"/>
<polygon fill="midnightblue" stroke="midnightblue" points="1300.32,-87.8951 1306.95,-79.6335 1296.61,-81.9555 1300.32,-87.8951"/>
</g>
<!-- Node4&#45;&gt;Node5 -->
<g id="edge8" class="edge"><title>Node4&#45;&gt;Node5</title>
<path fill="none" stroke="midnightblue" d="M383.756,-236.903C502.533,-226.054 749.851,-203.464 875.371,-191.999"/>
<polygon fill="midnightblue" stroke="midnightblue" points="876.023,-195.454 885.663,-191.059 875.386,-188.483 876.023,-195.454"/>
</g>
<!-- Node7 -->
<g id="node13" class="node"><title>Node7</title>
<polygon fill="white" stroke="#bfbfbf" points="245.5,-0.5 245.5,-21.5 350.5,-21.5 350.5,-0.5 245.5,-0.5"/>
<text text-anchor="middle" x="298" y="-8.5" font-family="Helvetica,sans-Serif" font-size="10.00">ocra/control/Model.h</text>
</g>
<!-- Node4&#45;&gt;Node7 -->
<g id="edge88" class="edge"><title>Node4&#45;&gt;Node7</title>
<path fill="none" stroke="midnightblue" d="M316.134,-232.429C313.204,-196.648 303.623,-79.6628 299.699,-31.7481"/>
<polygon fill="midnightblue" stroke="midnightblue" points="303.175,-31.3144 298.871,-21.6335 296.199,-31.8859 303.175,-31.3144"/>
</g>
<!-- Node9 -->
<g id="node17" class="node"><title>Node9</title>
<polygon fill="white" stroke="#bfbfbf" points="368,-0.5 368,-21.5 444,-21.5 444,-0.5 368,-0.5"/>
<text text-anchor="middle" x="406" y="-8.5" font-family="Helvetica,sans-Serif" font-size="10.00">yarp/os/Log.h</text>
</g>
<!-- Node4&#45;&gt;Node9 -->
<g id="edge98" class="edge"><title>Node4&#45;&gt;Node9</title>
<path fill="none" stroke="midnightblue" d="M321.055,-232.429C334.839,-196.497 380.039,-78.6742 398.272,-31.1453"/>
<polygon fill="midnightblue" stroke="midnightblue" points="401.607,-32.2237 401.921,-21.6335 395.071,-29.7165 401.607,-32.2237"/>
</g>
<!-- Node15 -->
<g id="node31" class="node"><title>Node15</title>
<polygon fill="white" stroke="#bfbfbf" points="478,-58.5 478,-79.5 720,-79.5 720,-58.5 478,-58.5"/>
<text text-anchor="middle" x="599" y="-66.5" font-family="Helvetica,sans-Serif" font-size="10.00">yarpWholeBodyInterface/yarpWholeBodyInterface.h</text>
</g>
<!-- Node4&#45;&gt;Node15 -->
<g id="edge90" class="edge"><title>Node4&#45;&gt;Node15</title>
<path fill="none" stroke="midnightblue" d="M334.216,-232.377C381.905,-202.952 515.946,-120.246 572.887,-85.1126"/>
<polygon fill="midnightblue" stroke="midnightblue" points="574.979,-87.9344 581.651,-79.7046 571.303,-81.9771 574.979,-87.9344"/>
</g>
<!-- Node25 -->
<g id="node54" class="node"><title>Node25</title>
<polygon fill="white" stroke="#bfbfbf" points="0,-0.5 0,-21.5 104,-21.5 104,-0.5 0,-0.5"/>
<text text-anchor="middle" x="52" y="-8.5" font-family="Helvetica,sans-Serif" font-size="10.00">yarp/os/RpcClient.h</text>
</g>
<!-- Node4&#45;&gt;Node25 -->
<g id="edge92" class="edge"><title>Node4&#45;&gt;Node25</title>
<path fill="none" stroke="midnightblue" d="M262.172,-232.437C220.451,-223.519 167.345,-209.997 150,-196 95.6812,-152.165 67.7091,-69.988 57.1229,-31.6632"/>
<polygon fill="midnightblue" stroke="midnightblue" points="60.4229,-30.451 54.4875,-21.6748 53.6545,-32.2368 60.4229,-30.451"/>
</g>
<!-- Node29 -->
<g id="node63" class="node"><title>Node29</title>
<polygon fill="white" stroke="#bfbfbf" points="121.5,-0.5 121.5,-21.5 228.5,-21.5 228.5,-0.5 121.5,-0.5"/>
<text text-anchor="middle" x="175" y="-8.5" font-family="Helvetica,sans-Serif" font-size="10.00">yarp/os/LogStream.h</text>
</g>
<!-- Node4&#45;&gt;Node29 -->
<g id="edge96" class="edge"><title>Node4&#45;&gt;Node29</title>
<path fill="none" stroke="midnightblue" d="M259.131,-232.468C221.177,-224.248 176.517,-211.617 165,-196 128.51,-146.523 152.082,-67.8015 166.371,-31.0843"/>
<polygon fill="midnightblue" stroke="midnightblue" points="169.74,-32.0893 170.264,-21.5074 163.256,-29.4531 169.74,-32.0893"/>
</g>
<!-- Node35 -->
<g id="node82" class="node"><title>Node35</title>
<polygon fill="white" stroke="#bfbfbf" points="173.5,-174.5 173.5,-195.5 270.5,-195.5 270.5,-174.5 173.5,-174.5"/>
<text text-anchor="middle" x="222" y="-182.5" font-family="Helvetica,sans-Serif" font-size="10.00">yarp/os/Network.h</text>
</g>
<!-- Node4&#45;&gt;Node35 -->
<g id="edge94" class="edge"><title>Node4&#45;&gt;Node35</title>
<path fill="none" stroke="midnightblue" d="M299.576,-232.362C285.113,-223.532 264.331,-210.844 247.916,-200.822"/>
<polygon fill="midnightblue" stroke="midnightblue" points="249.673,-197.794 239.314,-195.571 246.025,-203.769 249.673,-197.794"/>
</g>
<!-- Node6 -->
<g id="node11" class="node"><title>Node6</title>
<polygon fill="white" stroke="#bfbfbf" points="718,-0.5 718,-21.5 770,-21.5 770,-0.5 718,-0.5"/>
<text text-anchor="middle" x="744" y="-8.5" font-family="Helvetica,sans-Serif" font-size="10.00">memory</text>
</g>
<!-- Node5&#45;&gt;Node6 -->
<g id="edge10" class="edge"><title>Node5&#45;&gt;Node6</title>
<path fill="none" stroke="midnightblue" d="M957.772,-174.338C969.814,-150.48 994.25,-92.2072 966,-58 914.105,4.83794 864.854,-39.1712 780.226,-21.8943"/>
<polygon fill="midnightblue" stroke="midnightblue" points="780.81,-18.4376 770.281,-19.614 779.246,-25.2605 780.81,-18.4376"/>
</g>
<!-- Node5&#45;&gt;Node7 -->
<g id="edge12" class="edge"><title>Node5&#45;&gt;Node7</title>
<path fill="none" stroke="midnightblue" d="M885.786,-182.833C808.499,-178.945 677.442,-168.115 569,-138 508.04,-121.071 496.312,-106.798 439,-80 400.406,-61.9544 356.368,-40.2179 327.927,-26.0275"/>
<polygon fill="midnightblue" stroke="midnightblue" points="329.42,-22.8608 318.91,-21.5206 326.29,-29.1223 329.42,-22.8608"/>
</g>
<!-- Node8 -->
<g id="node15" class="node"><title>Node8</title>
<polygon fill="white" stroke="#bfbfbf" points="642,-0.5 642,-21.5 700,-21.5 700,-0.5 642,-0.5"/>
<text text-anchor="middle" x="671" y="-8.5" font-family="Helvetica,sans-Serif" font-size="10.00">wbi/wbi.h</text>
</g>
<!-- Node5&#45;&gt;Node8 -->
<g id="edge14" class="edge"><title>Node5&#45;&gt;Node8</title>
<path fill="none" stroke="midnightblue" d="M951.726,-174.298C950.453,-149.293 943.482,-86.9657 906,-58 838.049,-5.48828 798.482,-39.7857 710.226,-21.9831"/>
<polygon fill="midnightblue" stroke="midnightblue" points="710.899,-18.5476 700.381,-19.8229 709.398,-25.3849 710.899,-18.5476"/>
</g>
<!-- Node5&#45;&gt;Node9 -->
<g id="edge16" class="edge"><title>Node5&#45;&gt;Node9</title>
<path fill="none" stroke="midnightblue" d="M885.876,-175.706C770.875,-158.713 539.554,-120.626 469,-80 447.73,-67.7529 429.596,-45.8795 418.32,-30.037"/>
<polygon fill="midnightblue" stroke="midnightblue" points="421.034,-27.8053 412.502,-21.5244 415.255,-31.7553 421.034,-27.8053"/>
</g>
<!-- Node5&#45;&gt;Node10 -->
<g id="edge18" class="edge"><title>Node5&#45;&gt;Node10</title>
<path fill="none" stroke="midnightblue" d="M932.442,-174.497C915.802,-165.56 891.673,-152.602 872.82,-142.477"/>
<polygon fill="midnightblue" stroke="midnightblue" points="874.243,-139.269 863.777,-137.621 870.931,-145.436 874.243,-139.269"/>
</g>
<!-- Node5&#45;&gt;Node16 -->
<g id="edge86" class="edge"><title>Node5&#45;&gt;Node16</title>
<path fill="none" stroke="midnightblue" d="M985.999,-174.398C1053.8,-153.255 1205.74,-105.877 1280.61,-82.53"/>
<polygon fill="midnightblue" stroke="midnightblue" points="1281.71,-85.8534 1290.21,-79.5352 1279.63,-79.1708 1281.71,-85.8534"/>
</g>
<!-- Node10&#45;&gt;Node8 -->
<g id="edge30" class="edge"><title>Node10&#45;&gt;Node8</title>
<path fill="none" stroke="midnightblue" d="M859.702,-116.497C878.619,-102.568 905.984,-77.4759 890,-58 839.948,2.98729 792.445,-38.0142 710.313,-21.962"/>
<polygon fill="midnightblue" stroke="midnightblue" points="710.911,-18.5098 700.392,-19.777 709.405,-25.346 710.911,-18.5098"/>
</g>
<!-- Node10&#45;&gt;Node9 -->
<g id="edge28" class="edge"><title>Node10&#45;&gt;Node9</title>
<path fill="none" stroke="midnightblue" d="M826.539,-116.267C795.681,-97.3375 734.25,-59.8279 729,-58 615.254,-18.3948 576.742,-42.7567 454.289,-22.0502"/>
<polygon fill="midnightblue" stroke="midnightblue" points="454.608,-18.5526 444.153,-20.2666 453.395,-25.4467 454.608,-18.5526"/>
</g>
<!-- Node11 -->
<g id="node21" class="node"><title>Node11</title>
<polygon fill="white" stroke="#bfbfbf" points="462,-0.5 462,-21.5 516,-21.5 516,-0.5 462,-0.5"/>
<text text-anchor="middle" x="489" y="-8.5" font-family="Helvetica,sans-Serif" font-size="10.00">iostream</text>
</g>
<!-- Node10&#45;&gt;Node11 -->
<g id="edge20" class="edge"><title>Node10&#45;&gt;Node11</title>
<path fill="none" stroke="midnightblue" d="M843.465,-116.402C842.068,-100.91 837.04,-72.3664 819,-58 769.723,-18.7581 604.46,-34.1747 526.362,-21.7567"/>
<polygon fill="midnightblue" stroke="midnightblue" points="526.859,-18.2892 516.388,-19.9083 525.583,-25.172 526.859,-18.2892"/>
</g>
<!-- Node12 -->
<g id="node23" class="node"><title>Node12</title>
<polygon fill="white" stroke="#bfbfbf" points="775.5,-58.5 775.5,-79.5 810.5,-79.5 810.5,-58.5 775.5,-58.5"/>
<text text-anchor="middle" x="793" y="-66.5" font-family="Helvetica,sans-Serif" font-size="10.00">map</text>
</g>
<!-- Node10&#45;&gt;Node12 -->
<g id="edge22" class="edge"><title>Node10&#45;&gt;Node12</title>
<path fill="none" stroke="midnightblue" d="M834.646,-116.362C827.457,-108.186 817.359,-96.7025 808.907,-87.0907"/>
<polygon fill="midnightblue" stroke="midnightblue" points="811.527,-84.7692 802.295,-79.5707 806.27,-89.3916 811.527,-84.7692"/>
</g>
<!-- Node13 -->
<g id="node25" class="node"><title>Node13</title>
<polygon fill="white" stroke="#bfbfbf" points="2128,-0.5 2128,-21.5 2172,-21.5 2172,-0.5 2128,-0.5"/>
<text text-anchor="middle" x="2150" y="-8.5" font-family="Helvetica,sans-Serif" font-size="10.00">vector</text>
</g>
<!-- Node10&#45;&gt;Node13 -->
<g id="edge24" class="edge"><title>Node10&#45;&gt;Node13</title>
<path fill="none" stroke="midnightblue" d="M924.933,-121.557C1180.93,-104.176 1964.7,-49.6362 2117.92,-21.6063"/>
<polygon fill="midnightblue" stroke="midnightblue" points="2118.72,-25.0158 2127.85,-19.6348 2117.36,-18.1499 2118.72,-25.0158"/>
</g>
<!-- Node14 -->
<g id="node27" class="node"><title>Node14</title>
<polygon fill="white" stroke="#bfbfbf" points="533.5,-0.5 533.5,-21.5 624.5,-21.5 624.5,-0.5 533.5,-0.5"/>
<text text-anchor="middle" x="579" y="-8.5" font-family="Helvetica,sans-Serif" font-size="10.00">yarp/sig/Vector.h</text>
</g>
<!-- Node10&#45;&gt;Node14 -->
<g id="edge26" class="edge"><title>Node10&#45;&gt;Node14</title>
<path fill="none" stroke="midnightblue" d="M849.645,-116.244C856.598,-101.33 865.893,-74.3634 852,-58 821.825,-22.4595 696.343,-29.9171 634.673,-21.9696"/>
<polygon fill="midnightblue" stroke="midnightblue" points="635.058,-18.4877 624.641,-20.4243 633.992,-25.4061 635.058,-18.4877"/>
</g>
<!-- Node10&#45;&gt;Node15 -->
<g id="edge32" class="edge"><title>Node10&#45;&gt;Node15</title>
<path fill="none" stroke="midnightblue" d="M799.632,-116.497C758.567,-106.775 697.396,-92.2938 653.401,-81.8787"/>
<polygon fill="midnightblue" stroke="midnightblue" points="653.988,-78.4209 643.451,-79.5231 652.376,-85.2327 653.988,-78.4209"/>
</g>
<!-- Node10&#45;&gt;Node16 -->
<g id="edge34" class="edge"><title>Node10&#45;&gt;Node16</title>
<path fill="none" stroke="midnightblue" d="M924.612,-117.259C1020.2,-105.71 1177.34,-86.7216 1263.25,-76.3409"/>
<polygon fill="midnightblue" stroke="midnightblue" points="1263.85,-79.7931 1273.36,-75.1187 1263.02,-72.8436 1263.85,-79.7931"/>
</g>
<!-- Node16&#45;&gt;Node6 -->
<g id="edge36" class="edge"><title>Node16&#45;&gt;Node6</title>
<path fill="none" stroke="midnightblue" d="M1273.18,-66.0408C1160.26,-59.2424 890.434,-41.7075 780.357,-21.8438"/>
<polygon fill="midnightblue" stroke="midnightblue" points="780.691,-18.3447 770.214,-19.9145 779.383,-25.2215 780.691,-18.3447"/>
</g>
<!-- Node16&#45;&gt;Node7 -->
<g id="edge78" class="edge"><title>Node16&#45;&gt;Node7</title>
<path fill="none" stroke="midnightblue" d="M1273.27,-67.4001C1103.88,-61.924 557.878,-43.1564 360.485,-22.0197"/>
<polygon fill="midnightblue" stroke="midnightblue" points="360.833,-18.5369 350.509,-20.9151 360.063,-25.4944 360.833,-18.5369"/>
</g>
<!-- Node16&#45;&gt;Node8 -->
<g id="edge76" class="edge"><title>Node16&#45;&gt;Node8</title>
<path fill="none" stroke="midnightblue" d="M1273.36,-66.4743C1149.87,-60.1052 834.868,-42.541 710.357,-21.8816"/>
<polygon fill="midnightblue" stroke="midnightblue" points="710.769,-18.4007 700.317,-20.1321 709.567,-25.2968 710.769,-18.4007"/>
</g>
<!-- Node16&#45;&gt;Node9 -->
<g id="edge66" class="edge"><title>Node16&#45;&gt;Node9</title>
<path fill="none" stroke="midnightblue" d="M1273.47,-67.4434C1115.59,-62.3995 632.023,-45.5359 454.123,-21.8963"/>
<polygon fill="midnightblue" stroke="midnightblue" points="454.498,-18.4149 444.113,-20.5119 453.539,-25.3489 454.498,-18.4149"/>
</g>
<!-- Node16&#45;&gt;Node11 -->
<g id="edge40" class="edge"><title>Node16&#45;&gt;Node11</title>
<path fill="none" stroke="midnightblue" d="M1273.35,-67.5951C1124.45,-63.2221 688.978,-48.6289 526.644,-21.8715"/>
<polygon fill="midnightblue" stroke="midnightblue" points="526.802,-18.347 516.352,-20.0914 525.609,-25.2446 526.802,-18.347"/>
</g>
<!-- Node16&#45;&gt;Node13 -->
<g id="edge44" class="edge"><title>Node16&#45;&gt;Node13</title>
<path fill="none" stroke="midnightblue" d="M1374.72,-67.8666C1523.28,-64.2589 1956.54,-51.6098 2117.65,-21.6944"/>
<polygon fill="midnightblue" stroke="midnightblue" points="2118.72,-25.0517 2127.86,-19.6988 2117.38,-18.1816 2118.72,-25.0517"/>
</g>
<!-- Node16&#45;&gt;Node14 -->
<g id="edge72" class="edge"><title>Node16&#45;&gt;Node14</title>
<path fill="none" stroke="midnightblue" d="M1273.48,-67.8639C1160.58,-64.8301 879.15,-54.5192 634.734,-22.0925"/>
<polygon fill="midnightblue" stroke="midnightblue" points="634.969,-18.5928 624.592,-20.7313 634.038,-25.5305 634.969,-18.5928"/>
</g>
<!-- Node17 -->
<g id="node36" class="node"><title>Node17</title>
<polygon fill="white" stroke="#bfbfbf" points="1702,-0.5 1702,-21.5 1746,-21.5 1746,-0.5 1702,-0.5"/>
<text text-anchor="middle" x="1724" y="-8.5" font-family="Helvetica,sans-Serif" font-size="10.00">cmath</text>
</g>
<!-- Node16&#45;&gt;Node17 -->
<g id="edge38" class="edge"><title>Node16&#45;&gt;Node17</title>
<path fill="none" stroke="midnightblue" d="M1374.75,-65.9873C1444.5,-61.0913 1573.86,-49.3037 1691.89,-21.8635"/>
<polygon fill="midnightblue" stroke="midnightblue" points="1692.9,-25.2229 1701.82,-19.512 1691.28,-18.4115 1692.9,-25.2229"/>
</g>
<!-- Node18 -->
<g id="node39" class="node"><title>Node18</title>
<polygon fill="white" stroke="#bfbfbf" points="1763.5,-0.5 1763.5,-21.5 1804.5,-21.5 1804.5,-0.5 1763.5,-0.5"/>
<text text-anchor="middle" x="1784" y="-8.5" font-family="Helvetica,sans-Serif" font-size="10.00">string</text>
</g>
<!-- Node16&#45;&gt;Node18 -->
<g id="edge42" class="edge"><title>Node16&#45;&gt;Node18</title>
<path fill="none" stroke="midnightblue" d="M1374.81,-67.6219C1454.24,-64.5647 1612.5,-54.8409 1753.19,-21.9837"/>
<polygon fill="midnightblue" stroke="midnightblue" points="1754.37,-25.3002 1763.29,-19.5778 1752.75,-18.4909 1754.37,-25.3002"/>
</g>
<!-- Node19 -->
<g id="node42" class="node"><title>Node19</title>
<polygon fill="white" stroke="#bfbfbf" points="1822,-0.5 1822,-21.5 1874,-21.5 1874,-0.5 1822,-0.5"/>
<text text-anchor="middle" x="1848" y="-8.5" font-family="Helvetica,sans-Serif" font-size="10.00">sstream</text>
</g>
<!-- Node16&#45;&gt;Node19 -->
<g id="edge46" class="edge"><title>Node16&#45;&gt;Node19</title>
<path fill="none" stroke="midnightblue" d="M1374.84,-67.6003C1462.45,-64.433 1647.45,-54.4297 1811.5,-21.9555"/>
<polygon fill="midnightblue" stroke="midnightblue" points="1812.67,-25.2915 1821.78,-19.8861 1811.29,-18.4293 1812.67,-25.2915"/>
</g>
<!-- Node20 -->
<g id="node44" class="node"><title>Node20</title>
<polygon fill="white" stroke="#bfbfbf" points="1891.5,-0.5 1891.5,-21.5 2006.5,-21.5 2006.5,-0.5 1891.5,-0.5"/>
<text text-anchor="middle" x="1949" y="-8.5" font-family="Helvetica,sans-Serif" font-size="10.00">yarp/os/BufferedPort.h</text>
</g>
<!-- Node16&#45;&gt;Node20 -->
<g id="edge48" class="edge"><title>Node16&#45;&gt;Node20</title>
<path fill="none" stroke="midnightblue" d="M1374.63,-66.1259C1471.22,-60.3423 1688.65,-45.8798 1881.42,-22.1226"/>
<polygon fill="midnightblue" stroke="midnightblue" points="1881.96,-25.5825 1891.45,-20.875 1881.09,-18.636 1881.96,-25.5825"/>
</g>
<!-- Node21 -->
<g id="node46" class="node"><title>Node21</title>
<polygon fill="white" stroke="#bfbfbf" points="2024,-0.5 2024,-21.5 2110,-21.5 2110,-0.5 2024,-0.5"/>
<text text-anchor="middle" x="2067" y="-8.5" font-family="Helvetica,sans-Serif" font-size="10.00">yarp/os/Bottle.h</text>
</g>
<!-- Node16&#45;&gt;Node21 -->
<g id="edge50" class="edge"><title>Node16&#45;&gt;Node21</title>
<path fill="none" stroke="midnightblue" d="M1374.54,-67.9924C1487.47,-65.2179 1768.97,-55.4002 2013.79,-21.9958"/>
<polygon fill="midnightblue" stroke="midnightblue" points="2014.52,-25.4281 2023.95,-20.5931 2013.57,-18.4939 2014.52,-25.4281"/>
</g>
<!-- Node22 -->
<g id="node48" class="node"><title>Node22</title>
<polygon fill="white" stroke="#bfbfbf" points="2275.5,-0.5 2275.5,-21.5 2386.5,-21.5 2386.5,-0.5 2275.5,-0.5"/>
<text text-anchor="middle" x="2331" y="-8.5" font-family="Helvetica,sans-Serif" font-size="10.00">yarp/os/RateThread.h</text>
</g>
<!-- Node16&#45;&gt;Node22 -->
<g id="edge52" class="edge"><title>Node16&#45;&gt;Node22</title>
<path fill="none" stroke="midnightblue" d="M1374.52,-68.6187C1514.56,-67.1059 1919.69,-59.6425 2265.26,-22.0876"/>
<polygon fill="midnightblue" stroke="midnightblue" points="2265.65,-25.5659 2275.21,-20.9962 2264.89,-18.6076 2265.65,-25.5659"/>
</g>
<!-- Node23 -->
<g id="node50" class="node"><title>Node23</title>
<polygon fill="white" stroke="#bfbfbf" points="787.5,-0.5 787.5,-21.5 916.5,-21.5 916.5,-0.5 787.5,-0.5"/>
<text text-anchor="middle" x="852" y="-8.5" font-family="Helvetica,sans-Serif" font-size="10.00">yarp/os/ResourceFinder.h</text>
</g>
<!-- Node16&#45;&gt;Node23 -->
<g id="edge54" class="edge"><title>Node16&#45;&gt;Node23</title>
<path fill="none" stroke="midnightblue" d="M1273.23,-63.5512C1199.29,-55.4983 1057.39,-39.6027 927.027,-22.2446"/>
<polygon fill="midnightblue" stroke="midnightblue" points="927.239,-18.7418 916.863,-20.8851 926.311,-25.68 927.239,-18.7418"/>
</g>
<!-- Node24 -->
<g id="node52" class="node"><title>Node24</title>
<polygon fill="white" stroke="#bfbfbf" points="934,-0.5 934,-21.5 1044,-21.5 1044,-0.5 934,-0.5"/>
<text text-anchor="middle" x="989" y="-8.5" font-family="Helvetica,sans-Serif" font-size="10.00">yarp/os/PortReader.h</text>
</g>
<!-- Node16&#45;&gt;Node24 -->
<g id="edge56" class="edge"><title>Node16&#45;&gt;Node24</title>
<path fill="none" stroke="midnightblue" d="M1273.48,-60.254C1214.93,-50.1158 1118.27,-33.3813 1054.12,-22.2744"/>
<polygon fill="midnightblue" stroke="midnightblue" points="1054.56,-18.7994 1044.11,-20.542 1053.37,-25.6968 1054.56,-18.7994"/>
</g>
<!-- Node16&#45;&gt;Node25 -->
<g id="edge58" class="edge"><title>Node16&#45;&gt;Node25</title>
<path fill="none" stroke="midnightblue" d="M1273.22,-67.9755C1076.45,-63.8609 363.212,-47.5679 114.256,-21.9725"/>
<polygon fill="midnightblue" stroke="midnightblue" points="114.487,-18.4774 104.174,-20.9027 113.749,-25.4384 114.487,-18.4774"/>
</g>
<!-- Node26 -->
<g id="node56" class="node"><title>Node26</title>
<polygon fill="white" stroke="#bfbfbf" points="1061.5,-0.5 1061.5,-21.5 1168.5,-21.5 1168.5,-0.5 1061.5,-0.5"/>
<text text-anchor="middle" x="1115" y="-8.5" font-family="Helvetica,sans-Serif" font-size="10.00">yarp/os/RpcServer.h</text>
</g>
<!-- Node16&#45;&gt;Node26 -->
<g id="edge60" class="edge"><title>Node16&#45;&gt;Node26</title>
<path fill="none" stroke="midnightblue" d="M1286.15,-58.4966C1251.49,-48.8773 1200.03,-34.5981 1162.6,-24.209"/>
<polygon fill="midnightblue" stroke="midnightblue" points="1163.49,-20.8246 1152.92,-21.5231 1161.62,-27.5697 1163.49,-20.8246"/>
</g>
<!-- Node27 -->
<g id="node58" class="node"><title>Node27</title>
<polygon fill="white" stroke="#bfbfbf" points="1185.5,-0.5 1185.5,-21.5 1326.5,-21.5 1326.5,-0.5 1185.5,-0.5"/>
<text text-anchor="middle" x="1256" y="-8.5" font-family="Helvetica,sans-Serif" font-size="10.00">yarp/os/ConnectionReader.h</text>
</g>
<!-- Node16&#45;&gt;Node27 -->
<g id="edge62" class="edge"><title>Node16&#45;&gt;Node27</title>
<path fill="none" stroke="midnightblue" d="M1311.53,-58.3619C1301.65,-49.9408 1287.67,-38.0105 1276.2,-28.2308"/>
<polygon fill="midnightblue" stroke="midnightblue" points="1278.27,-25.3972 1268.39,-21.5707 1273.73,-30.7231 1278.27,-25.3972"/>
</g>
<!-- Node16&#45;&gt;Node28 -->
<g id="edge64" class="edge"><title>Node16&#45;&gt;Node28</title>
<path fill="none" stroke="midnightblue" d="M1374.67,-67.6157C1536.56,-63.0504 2055.81,-47.3021 2485,-22 2515.1,-20.2258 2548.73,-17.6464 2575.71,-15.4313"/>
<polygon fill="midnightblue" stroke="midnightblue" points="2576.03,-18.9172 2585.71,-14.6026 2575.45,-11.9411 2576.03,-18.9172"/>
</g>
<!-- Node16&#45;&gt;Node29 -->
<g id="edge68" class="edge"><title>Node16&#45;&gt;Node29</title>
<path fill="none" stroke="midnightblue" d="M1273.43,-67.7036C1090.3,-62.8724 461.335,-45.0565 238.681,-22.0417"/>
<polygon fill="midnightblue" stroke="midnightblue" points="239.021,-18.5582 228.706,-20.9769 238.278,-25.5187 239.021,-18.5582"/>
</g>
<!-- Node30 -->
<g id="node65" class="node"><title>Node30</title>
<polygon fill="white" stroke="#bfbfbf" points="1343.5,-0.5 1343.5,-21.5 1440.5,-21.5 1440.5,-0.5 1343.5,-0.5"/>
<text text-anchor="middle" x="1392" y="-8.5" font-family="Helvetica,sans-Serif" font-size="10.00">yarp/os/Property.h</text>
</g>
<!-- Node16&#45;&gt;Node30 -->
<g id="edge70" class="edge"><title>Node16&#45;&gt;Node30</title>
<path fill="none" stroke="midnightblue" d="M1336.47,-58.3619C1346.35,-49.9408 1360.33,-38.0105 1371.8,-28.2308"/>
<polygon fill="midnightblue" stroke="midnightblue" points="1374.27,-30.7231 1379.61,-21.5707 1369.73,-25.3972 1374.27,-30.7231"/>
</g>
<!-- Node31 -->
<g id="node68" class="node"><title>Node31</title>
<polygon fill="white" stroke="#bfbfbf" points="1457.5,-0.5 1457.5,-21.5 1546.5,-21.5 1546.5,-0.5 1457.5,-0.5"/>
<text text-anchor="middle" x="1502" y="-8.5" font-family="Helvetica,sans-Serif" font-size="10.00">yarp/sig/Matrix.h</text>
</g>
<!-- Node16&#45;&gt;Node31 -->
<g id="edge74" class="edge"><title>Node16&#45;&gt;Node31</title>
<path fill="none" stroke="midnightblue" d="M1356.23,-58.4966C1385.25,-49.0411 1428.09,-35.0829 1459.82,-24.7428"/>
<polygon fill="midnightblue" stroke="midnightblue" points="1461.28,-27.949 1469.71,-21.5231 1459.11,-21.2934 1461.28,-27.949"/>
</g>
<!-- Node32 -->
<g id="node72" class="node"><title>Node32</title>
<polygon fill="white" stroke="#bfbfbf" points="1563.5,-0.5 1563.5,-21.5 1684.5,-21.5 1684.5,-0.5 1563.5,-0.5"/>
<text text-anchor="middle" x="1624" y="-8.5" font-family="Helvetica,sans-Serif" font-size="10.00">ocra/util/StringUtilities.h</text>
</g>
<!-- Node16&#45;&gt;Node32 -->
<g id="edge80" class="edge"><title>Node16&#45;&gt;Node32</title>
<path fill="none" stroke="midnightblue" d="M1374.55,-59.2267C1425.49,-49.3795 1504.26,-34.1493 1559.63,-23.4446"/>
<polygon fill="midnightblue" stroke="midnightblue" points="1560.53,-26.8354 1569.69,-21.5007 1559.2,-19.9626 1560.53,-26.8354"/>
</g>
<!-- Node33 -->
<g id="node74" class="node"><title>Node33</title>
<polygon fill="white" stroke="#bfbfbf" points="2403.5,-0.5 2403.5,-21.5 2476.5,-21.5 2476.5,-0.5 2403.5,-0.5"/>
<text text-anchor="middle" x="2440" y="-8.5" font-family="Helvetica,sans-Serif" font-size="10.00">Eigen/Dense</text>
</g>
<!-- Node16&#45;&gt;Node33 -->
<g id="edge82" class="edge"><title>Node16&#45;&gt;Node33</title>
<path fill="none" stroke="midnightblue" d="M1374.51,-68.0958C1555.85,-64.6486 2174.42,-51.1027 2393.17,-21.9955"/>
<polygon fill="midnightblue" stroke="midnightblue" points="2393.85,-25.4342 2403.28,-20.5976 2392.89,-18.5002 2393.85,-25.4342"/>
</g>
<!-- Node34 -->
<g id="node76" class="node"><title>Node34</title>
<polygon fill="white" stroke="#bfbfbf" points="2190,-0.5 2190,-21.5 2258,-21.5 2258,-0.5 2190,-0.5"/>
<text text-anchor="middle" x="2224" y="-8.5" font-family="Helvetica,sans-Serif" font-size="10.00">Eigen/Lgsm</text>
</g>
<!-- Node16&#45;&gt;Node34 -->
<g id="edge84" class="edge"><title>Node16&#45;&gt;Node34</title>
<path fill="none" stroke="midnightblue" d="M1374.58,-67.5264C1530.77,-62.7749 2004.95,-46.7946 2179.77,-21.8762"/>
<polygon fill="midnightblue" stroke="midnightblue" points="2180.48,-25.3092 2189.86,-20.3764 2179.45,-18.3853 2180.48,-25.3092"/>
</g>
<!-- Node39&#45;&gt;Node13 -->
<g id="edge120" class="edge"><title>Node39&#45;&gt;Node13</title>
<path fill="none" stroke="midnightblue" d="M1832.45,-174.077C1834.87,-159.453 1840.95,-133.343 1855,-116 1886.38,-77.2709 1904.66,-76.3643 1951,-58 2019.08,-31.0223 2043.52,-41.8193 2117.93,-21.9977"/>
<polygon fill="midnightblue" stroke="midnightblue" points="2119.05,-25.3185 2127.76,-19.281 2117.19,-18.5715 2119.05,-25.3185"/>
</g>
<!-- Node39&#45;&gt;Node16 -->
<g id="edge114" class="edge"><title>Node39&#45;&gt;Node16</title>
<path fill="none" stroke="midnightblue" d="M1784.66,-174.398C1691.31,-153.04 1480.94,-104.907 1380.04,-81.8228"/>
<polygon fill="midnightblue" stroke="midnightblue" points="1380.57,-78.3537 1370.05,-79.5352 1379.01,-85.1774 1380.57,-78.3537"/>
</g>
<!-- Node39&#45;&gt;Node33 -->
<g id="edge118" class="edge"><title>Node39&#45;&gt;Node33</title>
<path fill="none" stroke="midnightblue" d="M1837.46,-174.273C1846.9,-159.394 1865.78,-132.469 1888,-116 1941.78,-76.1405 1962.08,-74.3282 2027,-58 2183.1,-18.7367 2231.04,-48.3122 2392.93,-22.1517"/>
<polygon fill="midnightblue" stroke="midnightblue" points="2393.96,-25.5283 2403.25,-20.4341 2392.81,-18.6233 2393.96,-25.5283"/>
</g>
<!-- Node40 -->
<g id="node98" class="node"><title>Node40</title>
<polygon fill="white" stroke="#bfbfbf" points="1896.5,-116.5 1896.5,-137.5 2013.5,-137.5 2013.5,-116.5 1896.5,-116.5"/>
<text text-anchor="middle" x="1955" y="-124.5" font-family="Helvetica,sans-Serif" font-size="10.00">ocra/util/ErrorsHelper.h</text>
</g>
<!-- Node39&#45;&gt;Node40 -->
<g id="edge116" class="edge"><title>Node39&#45;&gt;Node40</title>
<path fill="none" stroke="midnightblue" d="M1853.46,-174.497C1872.91,-165.397 1901.28,-152.127 1923.09,-141.925"/>
<polygon fill="midnightblue" stroke="midnightblue" points="1924.72,-145.028 1932.29,-137.621 1921.75,-138.688 1924.72,-145.028"/>
</g>
<!-- Node39&#45;&gt;Node41 -->
<g id="edge122" class="edge"><title>Node39&#45;&gt;Node41</title>
<path fill="none" stroke="midnightblue" d="M1883.52,-174.497C1932.74,-164.652 2006.36,-149.927 2058.57,-139.486"/>
<polygon fill="midnightblue" stroke="midnightblue" points="2059.27,-142.916 2068.38,-137.523 2057.89,-136.052 2059.27,-142.916"/>
</g>
<!-- Node42&#45;&gt;Node36 -->
<g id="edge126" class="edge"><title>Node42&#45;&gt;Node36</title>
<path fill="none" stroke="midnightblue" d="M2653.32,-174.362C2657.2,-166.595 2662.58,-155.843 2667.23,-146.546"/>
<polygon fill="midnightblue" stroke="midnightblue" points="2670.37,-148.08 2671.71,-137.571 2664.11,-144.95 2670.37,-148.08"/>
</g>
<!-- Node42&#45;&gt;Node41 -->
<g id="edge128" class="edge"><title>Node42&#45;&gt;Node41</title>
<path fill="none" stroke="midnightblue" d="M2573.33,-176.782C2468.98,-165.298 2281.4,-144.653 2183.82,-133.914"/>
<polygon fill="midnightblue" stroke="midnightblue" points="2184.13,-130.427 2173.81,-132.812 2183.36,-137.385 2184.13,-130.427"/>
</g>
<!-- Node43&#45;&gt;Node5 -->
<g id="edge138" class="edge"><title>Node43&#45;&gt;Node5</title>
<path fill="none" stroke="midnightblue" d="M2161.39,-294.005C1931.64,-273.297 1256.78,-212.47 1028.49,-191.894"/>
<polygon fill="midnightblue" stroke="midnightblue" points="1028.55,-188.386 1018.28,-190.974 1027.93,-195.358 1028.55,-188.386"/>
</g>
<!-- Node43&#45;&gt;Node22 -->
<g id="edge140" class="edge"><title>Node43&#45;&gt;Node22</title>
<path fill="none" stroke="midnightblue" d="M2239,-290.444C2239,-270.062 2239,-223.868 2239,-185 2239,-185 2239,-185 2239,-127 2239,-94.5312 2243.34,-83.8405 2263,-58 2272.81,-45.101 2287.2,-34.4358 2300.22,-26.5439"/>
<polygon fill="midnightblue" stroke="midnightblue" points="2302.02,-29.5488 2308.94,-21.5299 2298.53,-23.4804 2302.02,-29.5488"/>
</g>
<!-- Node43&#45;&gt;Node33 -->
<g id="edge142" class="edge"><title>Node43&#45;&gt;Node33</title>
<path fill="none" stroke="midnightblue" d="M2245.11,-290.191C2255.85,-270.127 2277,-225.477 2277,-185 2277,-185 2277,-185 2277,-127 2277,-69.3224 2345.59,-37.6626 2393.78,-22.5359"/>
<polygon fill="midnightblue" stroke="midnightblue" points="2394.85,-25.8692 2403.42,-19.6418 2392.84,-19.1647 2394.85,-25.8692"/>
</g>
<!-- Node43&#45;&gt;Node34 -->
<g id="edge144" class="edge"><title>Node43&#45;&gt;Node34</title>
<path fill="none" stroke="midnightblue" d="M2234.88,-290.37C2231.47,-280.971 2226.89,-266.802 2225,-254 2212.96,-172.572 2218.69,-74.112 2222.1,-31.8816"/>
<polygon fill="midnightblue" stroke="midnightblue" points="2225.6,-32.0014 2222.96,-21.7405 2218.63,-31.4076 2225.6,-32.0014"/>
</g>
<!-- Node43&#45;&gt;Node41 -->
<g id="edge136" class="edge"><title>Node43&#45;&gt;Node41</title>
<path fill="none" stroke="midnightblue" d="M2224.46,-290.213C2213.25,-281.372 2197.86,-268.062 2187,-254 2160.57,-219.775 2139.58,-173.394 2128.84,-147.2"/>
<polygon fill="midnightblue" stroke="midnightblue" points="2131.96,-145.589 2125,-137.607 2125.47,-148.191 2131.96,-145.589"/>
</g>
<!-- Node43&#45;&gt;Node44 -->
<g id="edge134" class="edge"><title>Node43&#45;&gt;Node44</title>
<path fill="none" stroke="midnightblue" d="M2316.67,-291.318C2378.25,-283.203 2466.67,-270.575 2552.94,-254.086"/>
<polygon fill="midnightblue" stroke="midnightblue" points="2553.75,-257.495 2562.9,-252.163 2552.42,-250.622 2553.75,-257.495"/>
</g>
<!-- Node45 -->
<g id="node118" class="node"><title>Node45</title>
<polygon fill="white" stroke="#bfbfbf" points="1811,-232.5 1811,-253.5 1981,-253.5 1981,-232.5 1811,-232.5"/>
<text text-anchor="middle" x="1896" y="-240.5" font-family="Helvetica,sans-Serif" font-size="10.00">unsupported/Eigen/MatrixFunctions</text>
</g>
<!-- Node43&#45;&gt;Node45 -->
<g id="edge146" class="edge"><title>Node43&#45;&gt;Node45</title>
<path fill="none" stroke="midnightblue" d="M2176.89,-290.497C2118.18,-280.57 2030.14,-265.682 1968.3,-255.226"/>
<polygon fill="midnightblue" stroke="midnightblue" points="1968.67,-251.739 1958.23,-253.523 1967.51,-258.641 1968.67,-251.739"/>
</g>
<!-- Node46 -->
<g id="node120" class="node"><title>Node46</title>
<a xlink:href="MIQPLinearConstraints_8h.html" target="_top" xlink:title="walking&#45;client/constraints/MIQPLinearConstraints.h">
<polygon fill="white" stroke="red" points="2305,-232.5 2305,-253.5 2545,-253.5 2545,-232.5 2305,-232.5"/>
<text text-anchor="middle" x="2425" y="-240.5" font-family="Helvetica,sans-Serif" font-size="10.00">walking&#45;client/constraints/MIQPLinearConstraints.h</text>
</a>
</g>
<!-- Node43&#45;&gt;Node46 -->
<g id="edge148" class="edge"><title>Node43&#45;&gt;Node46</title>
<path fill="none" stroke="midnightblue" d="M2272.68,-290.497C2303.14,-281 2348.16,-266.962 2381.36,-256.609"/>
<polygon fill="midnightblue" stroke="midnightblue" points="2382.75,-259.841 2391.25,-253.523 2380.67,-253.159 2382.75,-259.841"/>
</g>
<!-- Node48 -->
<g id="node125" class="node"><title>Node48</title>
<a xlink:href="MIQPState_8h.html" target="_top" xlink:title="walking&#45;client/MIQPState.h">
<polygon fill="white" stroke="black" points="1999,-232.5 1999,-253.5 2135,-253.5 2135,-232.5 1999,-232.5"/>
<text text-anchor="middle" x="2067" y="-240.5" font-family="Helvetica,sans-Serif" font-size="10.00">walking&#45;client/MIQPState.h</text>
</a>
</g>
<!-- Node43&#45;&gt;Node48 -->
<g id="edge154" class="edge"><title>Node43&#45;&gt;Node48</title>
<path fill="none" stroke="midnightblue" d="M2207.85,-290.497C2179.81,-281.041 2138.42,-267.083 2107.75,-256.743"/>
<polygon fill="midnightblue" stroke="midnightblue" points="2108.8,-253.402 2098.21,-253.523 2106.56,-260.035 2108.8,-253.402"/>
</g>
<!-- Node43&#45;&gt;Node49 -->
<g id="edge166" class="edge"><title>Node43&#45;&gt;Node49</title>
<path fill="none" stroke="midnightblue" d="M2316.6,-296.429C2396.76,-290.716 2525.5,-278.779 2644.38,-254.052"/>
<polygon fill="midnightblue" stroke="midnightblue" points="2645.33,-257.43 2654.39,-251.936 2643.88,-250.582 2645.33,-257.43"/>
</g>
<!-- Node46&#45;&gt;Node42 -->
<g id="edge152" class="edge"><title>Node46&#45;&gt;Node42</title>
<path fill="none" stroke="midnightblue" d="M2465.38,-232.497C2502.53,-222.836 2557.74,-208.477 2597.72,-198.077"/>
<polygon fill="midnightblue" stroke="midnightblue" points="2598.74,-201.428 2607.54,-195.523 2596.98,-194.653 2598.74,-201.428"/>
</g>
<!-- Node47 -->
<g id="node122" class="node"><title>Node47</title>
<a xlink:href="ShapeConstraints_8h.html" target="_top" xlink:title="walking&#45;client/constraints/ShapeConstraints.h">
<polygon fill="white" stroke="red" points="2317,-174.5 2317,-195.5 2533,-195.5 2533,-174.5 2317,-174.5"/>
<text text-anchor="middle" x="2425" y="-182.5" font-family="Helvetica,sans-Serif" font-size="10.00">walking&#45;client/constraints/ShapeConstraints.h</text>
</a>
</g>
<!-- Node46&#45;&gt;Node47 -->
<g id="edge150" class="edge"><title>Node46&#45;&gt;Node47</title>
<path fill="none" stroke="midnightblue" d="M2425,-232.362C2425,-224.922 2425,-214.743 2425,-205.728"/>
<polygon fill="midnightblue" stroke="midnightblue" points="2428.5,-205.571 2425,-195.571 2421.5,-205.571 2428.5,-205.571"/>
</g>
<!-- Node48&#45;&gt;Node5 -->
<g id="edge158" class="edge"><title>Node48&#45;&gt;Node5</title>
<path fill="none" stroke="midnightblue" d="M1998.61,-232.88C1995.7,-232.56 1992.82,-232.265 1990,-232 1803.33,-214.482 1235.45,-194.425 1028.49,-187.502"/>
<polygon fill="midnightblue" stroke="midnightblue" points="1028.43,-183.998 1018.32,-187.163 1028.2,-190.994 1028.43,-183.998"/>
</g>
<!-- Node48&#45;&gt;Node16 -->
<g id="edge164" class="edge"><title>Node48&#45;&gt;Node16</title>
<path fill="none" stroke="midnightblue" d="M1998.98,-233.267C1995.95,-232.838 1992.94,-232.414 1990,-232 1874.48,-215.751 1844.13,-220.158 1730,-196 1638.62,-176.657 1617.15,-165.86 1528,-138 1470.47,-120.023 1404.5,-97.3249 1363.53,-82.9808"/>
<polygon fill="midnightblue" stroke="midnightblue" points="1364.52,-79.619 1353.93,-79.6103 1362.21,-86.2241 1364.52,-79.619"/>
</g>
<!-- Node48&#45;&gt;Node33 -->
<g id="edge156" class="edge"><title>Node48&#45;&gt;Node33</title>
<path fill="none" stroke="midnightblue" d="M2062.32,-232.489C2052.64,-208.94 2033.4,-151.258 2060,-116 2065.14,-109.182 2293.37,-49.1394 2393.61,-23.034"/>
<polygon fill="midnightblue" stroke="midnightblue" points="2394.67,-26.3738 2403.47,-20.468 2392.91,-19.5994 2394.67,-26.3738"/>
</g>
<!-- Node48&#45;&gt;Node40 -->
<g id="edge160" class="edge"><title>Node48&#45;&gt;Node40</title>
<path fill="none" stroke="midnightblue" d="M2056.66,-232.295C2037.41,-212.355 1995.88,-169.337 1972.29,-144.906"/>
<polygon fill="midnightblue" stroke="midnightblue" points="1974.77,-142.442 1965.31,-137.679 1969.74,-147.304 1974.77,-142.442"/>
</g>
<!-- Node48&#45;&gt;Node41 -->
<g id="edge162" class="edge"><title>Node48&#45;&gt;Node41</title>
<path fill="none" stroke="midnightblue" d="M2071.98,-232.295C2081.02,-212.872 2100.26,-171.556 2111.76,-146.846"/>
<polygon fill="midnightblue" stroke="midnightblue" points="2114.98,-148.222 2116.03,-137.679 2108.64,-145.268 2114.98,-148.222"/>
</g>
</g>
</svg>
