<?xml version="1.0" encoding="UTF-8" standalone="no"?>
<!DOCTYPE svg PUBLIC "-//W3C//DTD SVG 1.1//EN"
 "http://www.w3.org/Graphics/SVG/1.1/DTD/svg11.dtd">
<!-- Generated by graphviz version 2.26.3 (20100126.1600)
 -->
<!-- Title: G Pages: 1 -->
<svg width="2706pt" height="436pt"
 viewBox="0.00 0.00 2706.00 436.00" xmlns="http://www.w3.org/2000/svg" xmlns:xlink="http://www.w3.org/1999/xlink">
<g id="graph1" class="graph" transform="scale(1 1) rotate(0) translate(4 432)">
<title>G</title>
<polygon fill="white" stroke="white" points="-4,5 -4,-432 2703,-432 2703,5 -4,5"/>
<!-- Node1 -->
<g id="node1" class="node"><title>Node1</title>
<polygon fill="#bfbfbf" stroke="black" points="1385.5,-406.5 1385.5,-427.5 1708.5,-427.5 1708.5,-406.5 1385.5,-406.5"/>
<text text-anchor="middle" x="1547" y="-414.5" font-family="Helvetica,sans-Serif" font-size="10.00">ocra&#45;wbi&#45;plugins/ocra&#45;icub&#45;clients/walking&#45;client/src/WalkingClient.cpp</text>
</g>
<!-- Node2 -->
<g id="node3" class="node"><title>Node2</title>
<a xlink:href="WalkingClient_8h.html" target="_top" xlink:title="walking&#45;client/WalkingClient.h">
<polygon fill="white" stroke="black" points="1473,-348.5 1473,-369.5 1621,-369.5 1621,-348.5 1473,-348.5"/>
<text text-anchor="middle" x="1547" y="-356.5" font-family="Helvetica,sans-Serif" font-size="10.00">walking&#45;client/WalkingClient.h</text>
</a>
</g>
<!-- Node1&#45;&gt;Node2 -->
<g id="edge2" class="edge"><title>Node1&#45;&gt;Node2</title>
<path fill="none" stroke="midnightblue" d="M1547,-406.362C1547,-398.922 1547,-388.743 1547,-379.728"/>
<polygon fill="midnightblue" stroke="midnightblue" points="1550.5,-379.571 1547,-369.571 1543.5,-379.571 1550.5,-379.571"/>
</g>
<!-- Node3 -->
<g id="node5" class="node"><title>Node3</title>
<a xlink:href="IcubClient_8h.html" target="_top" xlink:title="ocra&#45;icub/IcubClient.h">
<polygon fill="white" stroke="black" points="950,-290.5 950,-311.5 1062,-311.5 1062,-290.5 950,-290.5"/>
<text text-anchor="middle" x="1006" y="-298.5" font-family="Helvetica,sans-Serif" font-size="10.00">ocra&#45;icub/IcubClient.h</text>
</a>
</g>
<!-- Node2&#45;&gt;Node3 -->
<g id="edge4" class="edge"><title>Node2&#45;&gt;Node3</title>
<path fill="none" stroke="midnightblue" d="M1472.62,-352.883C1379.66,-344.939 1215.79,-329.943 1076,-312 1074.73,-311.837 1073.45,-311.669 1072.16,-311.497"/>
<polygon fill="midnightblue" stroke="midnightblue" points="1072.51,-308.013 1062.12,-310.105 1071.55,-314.946 1072.51,-308.013"/>
</g>
<!-- Node28 -->
<g id="node60" class="node"><title>Node28</title>
<polygon fill="white" stroke="#bfbfbf" points="0,-0.5 0,-21.5 82,-21.5 82,-0.5 0,-0.5"/>
<text text-anchor="middle" x="41" y="-8.5" font-family="Helvetica,sans-Serif" font-size="10.00">yarp/os/Time.h</text>
</g>
<!-- Node2&#45;&gt;Node28 -->
<g id="edge168" class="edge"><title>Node2&#45;&gt;Node28</title>
<path fill="none" stroke="midnightblue" d="M1472.79,-357.077C1174.13,-348.86 76,-313.828 76,-243 76,-243 76,-243 76,-127 76,-91.9757 61.1947,-53.4414 50.8426,-30.7784"/>
<polygon fill="midnightblue" stroke="midnightblue" points="53.9151,-29.0889 46.4688,-21.5522 47.5899,-32.0875 53.9151,-29.0889"/>
</g>
<!-- Node36 -->
<g id="node89" class="node"><title>Node36</title>
<polygon fill="white" stroke="#bfbfbf" points="1274.5,-232.5 1274.5,-253.5 1429.5,-253.5 1429.5,-232.5 1274.5,-232.5"/>
<text text-anchor="middle" x="1352" y="-240.5" font-family="Helvetica,sans-Serif" font-size="10.00">ocra&#45;recipes/TrajectoryThread.h</text>
</g>
<!-- Node2&#45;&gt;Node36 -->
<g id="edge106" class="edge"><title>Node2&#45;&gt;Node36</title>
<path fill="none" stroke="midnightblue" d="M1472.95,-356.354C1354.4,-351.347 1132.83,-338.525 1109,-312 1102.47,-304.727 1102.78,-297.542 1109,-290 1128.66,-266.179 1202.85,-254.29 1264.15,-248.445"/>
<polygon fill="midnightblue" stroke="midnightblue" points="1264.61,-251.917 1274.25,-247.524 1263.97,-244.946 1264.61,-251.917"/>
</g>
<!-- Node37 -->
<g id="node91" class="node"><title>Node37</title>
<polygon fill="white" stroke="#bfbfbf" points="1117.5,-290.5 1117.5,-311.5 1266.5,-311.5 1266.5,-290.5 1117.5,-290.5"/>
<text text-anchor="middle" x="1192" y="-298.5" font-family="Helvetica,sans-Serif" font-size="10.00">ocra&#45;recipes/ControllerClient.h</text>
</g>
<!-- Node2&#45;&gt;Node37 -->
<g id="edge108" class="edge"><title>Node2&#45;&gt;Node37</title>
<path fill="none" stroke="midnightblue" d="M1482.71,-348.497C1421.83,-338.55 1330.45,-323.621 1266.44,-313.162"/>
<polygon fill="midnightblue" stroke="midnightblue" points="1266.84,-309.681 1256.41,-311.523 1265.71,-316.59 1266.84,-309.681"/>
</g>
<!-- Node38 -->
<g id="node93" class="node"><title>Node38</title>
<polygon fill="white" stroke="#bfbfbf" points="1284,-290.5 1284,-311.5 1404,-311.5 1404,-290.5 1284,-290.5"/>
<text text-anchor="middle" x="1344" y="-298.5" font-family="Helvetica,sans-Serif" font-size="10.00">ocra/util/EigenUtilities.h</text>
</g>
<!-- Node2&#45;&gt;Node38 -->
<g id="edge110" class="edge"><title>Node2&#45;&gt;Node38</title>
<path fill="none" stroke="midnightblue" d="M1510.24,-348.497C1476.71,-338.918 1427.02,-324.72 1390.7,-314.342"/>
<polygon fill="midnightblue" stroke="midnightblue" points="1391.41,-310.905 1380.83,-311.523 1389.48,-317.636 1391.41,-310.905"/>
</g>
<!-- Node39 -->
<g id="node95" class="node"><title>Node39</title>
<a xlink:href="ZmpPreviewController_8h.html" target="_top" xlink:title="walking&#45;client/ZmpPreviewController.h">
<polygon fill="white" stroke="black" points="1792,-232.5 1792,-253.5 1976,-253.5 1976,-232.5 1792,-232.5"/>
<text text-anchor="middle" x="1884" y="-240.5" font-family="Helvetica,sans-Serif" font-size="10.00">walking&#45;client/ZmpPreviewController.h</text>
</a>
</g>
<!-- Node2&#45;&gt;Node39 -->
<g id="edge112" class="edge"><title>Node2&#45;&gt;Node39</title>
<path fill="none" stroke="midnightblue" d="M1577.8,-348.398C1638.97,-327.342 1775.74,-280.263 1843.86,-256.817"/>
<polygon fill="midnightblue" stroke="midnightblue" points="1845.08,-260.099 1853.39,-253.535 1842.8,-253.481 1845.08,-260.099"/>
</g>
<!-- Node41 -->
<g id="node102" class="node"><title>Node41</title>
<a xlink:href="utils_8h.html" target="_top" xlink:title="walking&#45;client/utils.h">
<polygon fill="white" stroke="black" points="1557.5,-174.5 1557.5,-195.5 1662.5,-195.5 1662.5,-174.5 1557.5,-174.5"/>
<text text-anchor="middle" x="1610" y="-182.5" font-family="Helvetica,sans-Serif" font-size="10.00">walking&#45;client/utils.h</text>
</a>
</g>
<!-- Node2&#45;&gt;Node41 -->
<g id="edge130" class="edge"><title>Node2&#45;&gt;Node41</title>
<path fill="none" stroke="midnightblue" d="M1555.82,-348.457C1563.03,-339.34 1572.98,-325.529 1579,-312 1594.83,-276.415 1603.37,-231.471 1607.28,-205.705"/>
<polygon fill="midnightblue" stroke="midnightblue" points="1610.77,-206.013 1608.72,-195.618 1603.84,-205.023 1610.77,-206.013"/>
</g>
<!-- Node42 -->
<g id="node104" class="node"><title>Node42</title>
<a xlink:href="StepController_8h.html" target="_top" xlink:title="walking&#45;client/StepController.h">
<polygon fill="white" stroke="black" points="1421.5,-290.5 1421.5,-311.5 1570.5,-311.5 1570.5,-290.5 1421.5,-290.5"/>
<text text-anchor="middle" x="1496" y="-298.5" font-family="Helvetica,sans-Serif" font-size="10.00">walking&#45;client/StepController.h</text>
</a>
</g>
<!-- Node2&#45;&gt;Node42 -->
<g id="edge124" class="edge"><title>Node2&#45;&gt;Node42</title>
<path fill="none" stroke="midnightblue" d="M1537.65,-348.362C1530.46,-340.186 1520.36,-328.702 1511.91,-319.091"/>
<polygon fill="midnightblue" stroke="midnightblue" points="1514.53,-316.769 1505.29,-311.571 1509.27,-321.392 1514.53,-316.769"/>
</g>
<!-- Node43 -->
<g id="node109" class="node"><title>Node43</title>
<a xlink:href="MIQPController_8h.html" target="_top" xlink:title="A thread for launching trajectory generators.">
<polygon fill="white" stroke="black" points="2057.5,-290.5 2057.5,-311.5 2212.5,-311.5 2212.5,-290.5 2057.5,-290.5"/>
<text text-anchor="middle" x="2135" y="-298.5" font-family="Helvetica,sans-Serif" font-size="10.00">walking&#45;client/MIQPController.h</text>
</a>
</g>
<!-- Node2&#45;&gt;Node43 -->
<g id="edge132" class="edge"><title>Node2&#45;&gt;Node43</title>
<path fill="none" stroke="midnightblue" d="M1621.17,-351.684C1729.66,-340.982 1931.26,-321.096 2047.07,-309.674"/>
<polygon fill="midnightblue" stroke="midnightblue" points="2047.7,-313.128 2057.31,-308.663 2047.02,-306.162 2047.7,-313.128"/>
</g>
<!-- Node44 -->
<g id="node111" class="node"><title>Node44</title>
<polygon fill="white" stroke="#bfbfbf" points="2554,-232.5 2554,-253.5 2628,-253.5 2628,-232.5 2554,-232.5"/>
<text text-anchor="middle" x="2591" y="-240.5" font-family="Helvetica,sans-Serif" font-size="10.00">gurobi_c++.h</text>
</g>
<!-- Node2&#45;&gt;Node44 -->
<g id="edge170" class="edge"><title>Node2&#45;&gt;Node44</title>
<path fill="none" stroke="midnightblue" d="M1621.02,-357.574C1771.85,-354.06 2109.9,-342.899 2221,-312 2241.68,-306.248 2243.5,-296.371 2264,-290 2382.13,-253.288 2418.1,-275.059 2540,-254 2541.26,-253.783 2542.53,-253.557 2543.81,-253.323"/>
<polygon fill="midnightblue" stroke="midnightblue" points="2544.59,-256.737 2553.75,-251.407 2543.26,-249.864 2544.59,-256.737"/>
</g>
<!-- Node49 -->
<g id="node131" class="node"><title>Node49</title>
<polygon fill="white" stroke="#bfbfbf" points="2645.5,-232.5 2645.5,-253.5 2698.5,-253.5 2698.5,-232.5 2645.5,-232.5"/>
<text text-anchor="middle" x="2672" y="-240.5" font-family="Helvetica,sans-Serif" font-size="10.00">Gurobi.h</text>
</g>
<!-- Node2&#45;&gt;Node49 -->
<g id="edge172" class="edge"><title>Node2&#45;&gt;Node49</title>
<path fill="none" stroke="midnightblue" d="M1621.02,-358.051C1777.77,-355.398 2138.46,-345.715 2256,-312 2275.88,-306.298 2277.24,-296.091 2297,-290 2439.09,-246.203 2486.2,-283.267 2635.41,-253.989"/>
<polygon fill="midnightblue" stroke="midnightblue" points="2636.29,-257.383 2645.39,-251.963 2634.9,-250.523 2636.29,-257.383"/>
</g>
<!-- Node50 -->
<g id="node133" class="node"><title>Node50</title>
<polygon fill="white" stroke="#bfbfbf" points="2305.5,-290.5 2305.5,-311.5 2430.5,-311.5 2430.5,-290.5 2305.5,-290.5"/>
<text text-anchor="middle" x="2368" y="-298.5" font-family="Helvetica,sans-Serif" font-size="10.00">ocra/util/FileOperations.h</text>
</g>
<!-- Node2&#45;&gt;Node50 -->
<g id="edge166" class="edge"><title>Node2&#45;&gt;Node50</title>
<path fill="none" stroke="midnightblue" d="M1621.18,-356.305C1755.34,-350.991 2047.08,-337.408 2292,-312 2293.09,-311.887 2294.2,-311.769 2295.31,-311.648"/>
<polygon fill="midnightblue" stroke="midnightblue" points="2295.9,-315.102 2305.42,-310.465 2295.09,-308.149 2295.9,-315.102"/>
</g>
<!-- Node4 -->
<g id="node7" class="node"><title>Node4</title>
<a xlink:href="ModelInitializer_8h.html" target="_top" xlink:title="ocra&#45;icub/ModelInitializer.h">
<polygon fill="white" stroke="black" points="381.5,-232.5 381.5,-253.5 514.5,-253.5 514.5,-232.5 381.5,-232.5"/>
<text text-anchor="middle" x="448" y="-240.5" font-family="Helvetica,sans-Serif" font-size="10.00">ocra&#45;icub/ModelInitializer.h</text>
</a>
</g>
<!-- Node3&#45;&gt;Node4 -->
<g id="edge6" class="edge"><title>Node3&#45;&gt;Node4</title>
<path fill="none" stroke="midnightblue" d="M949.942,-295.173C849.474,-284.73 638.633,-262.815 524.801,-250.983"/>
<polygon fill="midnightblue" stroke="midnightblue" points="525.073,-247.492 514.765,-249.94 524.349,-254.455 525.073,-247.492"/>
</g>
<!-- Node5 -->
<g id="node9" class="node"><title>Node5</title>
<a xlink:href="OcraWbiModel_8h.html" target="_top" xlink:title="Implementation of ocra::Model using wholeBodyInterface.">
<polygon fill="white" stroke="black" points="967,-174.5 967,-195.5 1099,-195.5 1099,-174.5 967,-174.5"/>
<text text-anchor="middle" x="1033" y="-182.5" font-family="Helvetica,sans-Serif" font-size="10.00">ocra&#45;icub/OcraWbiModel.h</text>
</a>
</g>
<!-- Node3&#45;&gt;Node5 -->
<g id="edge102" class="edge"><title>Node3&#45;&gt;Node5</title>
<path fill="none" stroke="midnightblue" d="M1008.49,-290.295C1012.97,-271.045 1022.46,-230.289 1028.23,-205.509"/>
<polygon fill="midnightblue" stroke="midnightblue" points="1031.66,-206.212 1030.51,-195.679 1024.84,-204.625 1031.66,-206.212"/>
</g>
<!-- Node10 -->
<g id="node19" class="node"><title>Node10</title>
<a xlink:href="OcraWbiConversions_8h.html" target="_top" xlink:title="A utility class full of static conversion functions.">
<polygon fill="white" stroke="black" points="849.5,-116.5 849.5,-137.5 1010.5,-137.5 1010.5,-116.5 849.5,-116.5"/>
<text text-anchor="middle" x="930" y="-124.5" font-family="Helvetica,sans-Serif" font-size="10.00">ocra&#45;icub/OcraWbiConversions.h</text>
</a>
</g>
<!-- Node3&#45;&gt;Node10 -->
<g id="edge100" class="edge"><title>Node3&#45;&gt;Node10</title>
<path fill="none" stroke="midnightblue" d="M1000.94,-290.336C992.015,-271.439 973.001,-230.786 958,-196 950.983,-179.729 943.454,-161.102 937.972,-147.306"/>
<polygon fill="midnightblue" stroke="midnightblue" points="941.152,-145.83 934.222,-137.817 934.642,-148.403 941.152,-145.83"/>
</g>
<!-- Node16 -->
<g id="node33" class="node"><title>Node16</title>
<a xlink:href="Utilities_8h.html" target="_top" xlink:title="Some useful tools for the ocra&#45;icub lib.">
<polygon fill="white" stroke="black" points="1143.5,-58.5 1143.5,-79.5 1244.5,-79.5 1244.5,-58.5 1143.5,-58.5"/>
<text text-anchor="middle" x="1194" y="-66.5" font-family="Helvetica,sans-Serif" font-size="10.00">ocra&#45;icub/Utilities.h</text>
</a>
</g>
<!-- Node3&#45;&gt;Node16 -->
<g id="edge104" class="edge"><title>Node3&#45;&gt;Node16</title>
<path fill="none" stroke="midnightblue" d="M1017.7,-290.262C1037.4,-271.897 1078,-232.862 1108,-196 1137.36,-159.921 1166.69,-113.947 1182.37,-88.3804"/>
<polygon fill="midnightblue" stroke="midnightblue" points="1185.47,-90.0075 1187.68,-79.6442 1179.49,-86.3718 1185.47,-90.0075"/>
</g>
<!-- Node4&#45;&gt;Node5 -->
<g id="edge8" class="edge"><title>Node4&#45;&gt;Node5</title>
<path fill="none" stroke="midnightblue" d="M514.537,-236.403C623.984,-225.552 841.351,-204.001 956.804,-192.554"/>
<polygon fill="midnightblue" stroke="midnightblue" points="957.367,-196.016 966.973,-191.546 956.677,-189.05 957.367,-196.016"/>
</g>
<!-- Node7 -->
<g id="node13" class="node"><title>Node7</title>
<polygon fill="white" stroke="#bfbfbf" points="439.5,-0.5 439.5,-21.5 544.5,-21.5 544.5,-0.5 439.5,-0.5"/>
<text text-anchor="middle" x="492" y="-8.5" font-family="Helvetica,sans-Serif" font-size="10.00">ocra/control/Model.h</text>
</g>
<!-- Node4&#45;&gt;Node7 -->
<g id="edge88" class="edge"><title>Node4&#45;&gt;Node7</title>
<path fill="none" stroke="midnightblue" d="M450.005,-232.429C456.791,-196.648 478.978,-79.6628 488.065,-31.7481"/>
<polygon fill="midnightblue" stroke="midnightblue" points="491.559,-32.1106 489.983,-21.6335 484.681,-30.8062 491.559,-32.1106"/>
</g>
<!-- Node9 -->
<g id="node17" class="node"><title>Node9</title>
<polygon fill="white" stroke="#bfbfbf" points="346,-0.5 346,-21.5 422,-21.5 422,-0.5 346,-0.5"/>
<text text-anchor="middle" x="384" y="-8.5" font-family="Helvetica,sans-Serif" font-size="10.00">yarp/os/Log.h</text>
</g>
<!-- Node4&#45;&gt;Node9 -->
<g id="edge98" class="edge"><title>Node4&#45;&gt;Node9</title>
<path fill="none" stroke="midnightblue" d="M445.084,-232.429C435.192,-196.573 402.805,-79.1689 389.64,-31.4458"/>
<polygon fill="midnightblue" stroke="midnightblue" points="392.967,-30.3427 386.933,-21.6335 386.219,-32.2042 392.967,-30.3427"/>
</g>
<!-- Node15 -->
<g id="node31" class="node"><title>Node15</title>
<polygon fill="white" stroke="#bfbfbf" points="510,-58.5 510,-79.5 752,-79.5 752,-58.5 510,-58.5"/>
<text text-anchor="middle" x="631" y="-66.5" font-family="Helvetica,sans-Serif" font-size="10.00">yarpWholeBodyInterface/yarpWholeBodyInterface.h</text>
</g>
<!-- Node4&#45;&gt;Node15 -->
<g id="edge90" class="edge"><title>Node4&#45;&gt;Node15</title>
<path fill="none" stroke="midnightblue" d="M459.172,-232.377C489.6,-203.446 574.201,-123.006 612.153,-86.9202"/>
<polygon fill="midnightblue" stroke="midnightblue" points="614.672,-89.3548 619.507,-79.9277 609.848,-84.2819 614.672,-89.3548"/>
</g>
<!-- Node25 -->
<g id="node54" class="node"><title>Node25</title>
<polygon fill="white" stroke="#bfbfbf" points="100,-0.5 100,-21.5 204,-21.5 204,-0.5 100,-0.5"/>
<text text-anchor="middle" x="152" y="-8.5" font-family="Helvetica,sans-Serif" font-size="10.00">yarp/os/RpcClient.h</text>
</g>
<!-- Node4&#45;&gt;Node25 -->
<g id="edge92" class="edge"><title>Node4&#45;&gt;Node25</title>
<path fill="none" stroke="midnightblue" d="M391.787,-232.438C348.148,-223.416 291.979,-209.75 273,-196 213.06,-152.573 174.757,-69.5763 159.511,-31.2811"/>
<polygon fill="midnightblue" stroke="midnightblue" points="162.692,-29.8022 155.823,-21.7353 156.162,-32.3248 162.692,-29.8022"/>
</g>
<!-- Node29 -->
<g id="node63" class="node"><title>Node29</title>
<polygon fill="white" stroke="#bfbfbf" points="221.5,-0.5 221.5,-21.5 328.5,-21.5 328.5,-0.5 221.5,-0.5"/>
<text text-anchor="middle" x="275" y="-8.5" font-family="Helvetica,sans-Serif" font-size="10.00">yarp/os/LogStream.h</text>
</g>
<!-- Node4&#45;&gt;Node29 -->
<g id="edge96" class="edge"><title>Node4&#45;&gt;Node29</title>
<path fill="none" stroke="midnightblue" d="M387.446,-232.45C348.027,-224.261 301.661,-211.675 289,-196 250.481,-148.314 261.496,-69.2872 269.684,-31.8713"/>
<polygon fill="midnightblue" stroke="midnightblue" points="273.199,-32.2114 272.077,-21.6762 266.384,-30.612 273.199,-32.2114"/>
</g>
<!-- Node35 -->
<g id="node82" class="node"><title>Node35</title>
<polygon fill="white" stroke="#bfbfbf" points="297.5,-174.5 297.5,-195.5 394.5,-195.5 394.5,-174.5 297.5,-174.5"/>
<text text-anchor="middle" x="346" y="-182.5" font-family="Helvetica,sans-Serif" font-size="10.00">yarp/os/Network.h</text>
</g>
<!-- Node4&#45;&gt;Node35 -->
<g id="edge94" class="edge"><title>Node4&#45;&gt;Node35</title>
<path fill="none" stroke="midnightblue" d="M429.292,-232.362C413.619,-223.45 391.036,-210.609 373.337,-200.545"/>
<polygon fill="midnightblue" stroke="midnightblue" points="375.013,-197.471 364.59,-195.571 371.553,-203.556 375.013,-197.471"/>
</g>
<!-- Node6 -->
<g id="node11" class="node"><title>Node6</title>
<polygon fill="white" stroke="#bfbfbf" points="2158,-0.5 2158,-21.5 2210,-21.5 2210,-0.5 2158,-0.5"/>
<text text-anchor="middle" x="2184" y="-8.5" font-family="Helvetica,sans-Serif" font-size="10.00">memory</text>
</g>
<!-- Node5&#45;&gt;Node6 -->
<g id="edge10" class="edge"><title>Node5&#45;&gt;Node6</title>
<path fill="none" stroke="midnightblue" d="M1099.09,-179.064C1271.32,-162.8 1747.79,-112.743 2147.72,-22.0302"/>
<polygon fill="midnightblue" stroke="midnightblue" points="2148.78,-25.3796 2157.75,-19.7438 2147.22,-18.5548 2148.78,-25.3796"/>
</g>
<!-- Node5&#45;&gt;Node7 -->
<g id="edge12" class="edge"><title>Node5&#45;&gt;Node7</title>
<path fill="none" stroke="midnightblue" d="M966.607,-177.81C928.028,-171.482 879.577,-159.717 841,-138 797.183,-113.333 805.638,-81.1478 761,-58 680.56,-16.2868 647.657,-36.7954 554.671,-22.1905"/>
<polygon fill="midnightblue" stroke="midnightblue" points="555.008,-18.6985 544.568,-20.5037 553.855,-25.6029 555.008,-18.6985"/>
</g>
<!-- Node8 -->
<g id="node15" class="node"><title>Node8</title>
<polygon fill="white" stroke="#bfbfbf" points="742,-0.5 742,-21.5 800,-21.5 800,-0.5 742,-0.5"/>
<text text-anchor="middle" x="771" y="-8.5" font-family="Helvetica,sans-Serif" font-size="10.00">wbi/wbi.h</text>
</g>
<!-- Node5&#45;&gt;Node8 -->
<g id="edge14" class="edge"><title>Node5&#45;&gt;Node8</title>
<path fill="none" stroke="midnightblue" d="M1032.27,-174.277C1031.01,-160.322 1027.65,-135.428 1019,-116 1005.94,-86.6874 1002.97,-75.386 976,-58 914.8,-18.5499 885.104,-38.7318 810.261,-22.0768"/>
<polygon fill="midnightblue" stroke="midnightblue" points="810.942,-18.6414 800.404,-19.7301 809.321,-25.4511 810.942,-18.6414"/>
</g>
<!-- Node5&#45;&gt;Node9 -->
<g id="edge16" class="edge"><title>Node5&#45;&gt;Node9</title>
<path fill="none" stroke="midnightblue" d="M966.749,-179.168C864.121,-168.547 661.783,-141.227 501,-80 465.98,-66.6642 429.356,-43.2983 406.612,-27.4926"/>
<polygon fill="midnightblue" stroke="midnightblue" points="408.512,-24.5495 398.324,-21.639 404.473,-30.2671 408.512,-24.5495"/>
</g>
<!-- Node5&#45;&gt;Node10 -->
<g id="edge18" class="edge"><title>Node5&#45;&gt;Node10</title>
<path fill="none" stroke="midnightblue" d="M1014.11,-174.362C998.282,-165.45 975.477,-152.609 957.605,-142.545"/>
<polygon fill="midnightblue" stroke="midnightblue" points="959.203,-139.428 948.772,-137.571 955.768,-145.527 959.203,-139.428"/>
</g>
<!-- Node5&#45;&gt;Node16 -->
<g id="edge86" class="edge"><title>Node5&#45;&gt;Node16</title>
<path fill="none" stroke="midnightblue" d="M1047.86,-174.295C1076.01,-154.009 1137.32,-109.84 1170.89,-85.6534"/>
<polygon fill="midnightblue" stroke="midnightblue" points="1173.11,-88.3647 1179.18,-79.6792 1169.02,-82.6852 1173.11,-88.3647"/>
</g>
<!-- Node10&#45;&gt;Node8 -->
<g id="edge30" class="edge"><title>Node10&#45;&gt;Node8</title>
<path fill="none" stroke="midnightblue" d="M941.132,-116.283C954.725,-101.89 974.247,-76.0431 960,-58 919.165,-6.28548 879.444,-36.5669 810.005,-21.928"/>
<polygon fill="midnightblue" stroke="midnightblue" points="810.545,-18.4589 800.007,-19.5511 808.926,-25.2691 810.545,-18.4589"/>
</g>
<!-- Node10&#45;&gt;Node9 -->
<g id="edge28" class="edge"><title>Node10&#45;&gt;Node9</title>
<path fill="none" stroke="midnightblue" d="M909.559,-116.46C878.402,-100.906 816.758,-72.1273 761,-58 621.195,-22.578 578.346,-45.7601 432.369,-22.0449"/>
<polygon fill="midnightblue" stroke="midnightblue" points="432.581,-18.5318 422.141,-20.3346 431.427,-25.436 432.581,-18.5318"/>
</g>
<!-- Node11 -->
<g id="node21" class="node"><title>Node11</title>
<polygon fill="white" stroke="#bfbfbf" points="562,-0.5 562,-21.5 616,-21.5 616,-0.5 562,-0.5"/>
<text text-anchor="middle" x="589" y="-8.5" font-family="Helvetica,sans-Serif" font-size="10.00">iostream</text>
</g>
<!-- Node10&#45;&gt;Node11 -->
<g id="edge20" class="edge"><title>Node10&#45;&gt;Node11</title>
<path fill="none" stroke="midnightblue" d="M926.919,-116.29C921.816,-100.654 910.026,-71.929 889,-58 792.978,5.61153 743.416,-44.4782 626.063,-21.8465"/>
<polygon fill="midnightblue" stroke="midnightblue" points="626.505,-18.3637 616.003,-19.7612 625.084,-25.2181 626.505,-18.3637"/>
</g>
<!-- Node12 -->
<g id="node23" class="node"><title>Node12</title>
<polygon fill="white" stroke="#bfbfbf" points="845.5,-58.5 845.5,-79.5 880.5,-79.5 880.5,-58.5 845.5,-58.5"/>
<text text-anchor="middle" x="863" y="-66.5" font-family="Helvetica,sans-Serif" font-size="10.00">map</text>
</g>
<!-- Node10&#45;&gt;Node12 -->
<g id="edge22" class="edge"><title>Node10&#45;&gt;Node12</title>
<path fill="none" stroke="midnightblue" d="M917.711,-116.362C907.983,-107.941 894.202,-96.0105 882.905,-86.2308"/>
<polygon fill="midnightblue" stroke="midnightblue" points="885.062,-83.4695 875.211,-79.5707 880.481,-88.7619 885.062,-83.4695"/>
</g>
<!-- Node13 -->
<g id="node25" class="node"><title>Node13</title>
<polygon fill="white" stroke="#bfbfbf" points="2228,-0.5 2228,-21.5 2272,-21.5 2272,-0.5 2228,-0.5"/>
<text text-anchor="middle" x="2250" y="-8.5" font-family="Helvetica,sans-Serif" font-size="10.00">vector</text>
</g>
<!-- Node10&#45;&gt;Node13 -->
<g id="edge24" class="edge"><title>Node10&#45;&gt;Node13</title>
<path fill="none" stroke="midnightblue" d="M1010.52,-123.181C1251.8,-111.311 1967.09,-72.9066 2218.04,-21.6966"/>
<polygon fill="midnightblue" stroke="midnightblue" points="2218.78,-25.1176 2227.85,-19.6373 2217.34,-18.267 2218.78,-25.1176"/>
</g>
<!-- Node14 -->
<g id="node27" class="node"><title>Node14</title>
<polygon fill="white" stroke="#bfbfbf" points="633.5,-0.5 633.5,-21.5 724.5,-21.5 724.5,-0.5 633.5,-0.5"/>
<text text-anchor="middle" x="679" y="-8.5" font-family="Helvetica,sans-Serif" font-size="10.00">yarp/sig/Vector.h</text>
</g>
<!-- Node10&#45;&gt;Node14 -->
<g id="edge26" class="edge"><title>Node10&#45;&gt;Node14</title>
<path fill="none" stroke="midnightblue" d="M932.253,-116.319C934.753,-101.245 936.698,-73.8092 922,-58 865.936,2.30112 820.391,-35.4769 734.741,-22.1233"/>
<polygon fill="midnightblue" stroke="midnightblue" points="735.113,-18.6349 724.657,-20.343 733.896,-25.5283 735.113,-18.6349"/>
</g>
<!-- Node10&#45;&gt;Node15 -->
<g id="edge32" class="edge"><title>Node10&#45;&gt;Node15</title>
<path fill="none" stroke="midnightblue" d="M875.853,-116.497C825.104,-106.652 749.194,-91.9272 695.367,-81.486"/>
<polygon fill="midnightblue" stroke="midnightblue" points="695.732,-77.9915 685.248,-79.5231 694.399,-84.8634 695.732,-77.9915"/>
</g>
<!-- Node10&#45;&gt;Node16 -->
<g id="edge34" class="edge"><title>Node10&#45;&gt;Node16</title>
<path fill="none" stroke="midnightblue" d="M977.808,-116.497C1022.34,-106.714 1088.81,-92.1107 1136.28,-81.6819"/>
<polygon fill="midnightblue" stroke="midnightblue" points="1137.09,-85.0874 1146.1,-79.5231 1135.58,-78.2505 1137.09,-85.0874"/>
</g>
<!-- Node16&#45;&gt;Node6 -->
<g id="edge36" class="edge"><title>Node16&#45;&gt;Node6</title>
<path fill="none" stroke="midnightblue" d="M1244.67,-67.2638C1423.9,-61.0221 2023.33,-39.253 2147.85,-21.6075"/>
<polygon fill="midnightblue" stroke="midnightblue" points="2148.48,-25.0516 2157.81,-20.0216 2147.38,-18.1388 2148.48,-25.0516"/>
</g>
<!-- Node16&#45;&gt;Node7 -->
<g id="edge78" class="edge"><title>Node16&#45;&gt;Node7</title>
<path fill="none" stroke="midnightblue" d="M1143.13,-67.0905C1036.03,-62.6767 779.302,-50.0286 554.522,-22.0888"/>
<polygon fill="midnightblue" stroke="midnightblue" points="554.877,-18.606 544.518,-20.8326 554.004,-25.5514 554.877,-18.606"/>
</g>
<!-- Node16&#45;&gt;Node8 -->
<g id="edge76" class="edge"><title>Node16&#45;&gt;Node8</title>
<path fill="none" stroke="midnightblue" d="M1143.44,-65.4261C1071.4,-59.7642 935.019,-46.939 810.437,-22.0469"/>
<polygon fill="midnightblue" stroke="midnightblue" points="810.839,-18.5572 800.342,-19.9979 809.446,-25.4173 810.839,-18.5572"/>
</g>
<!-- Node16&#45;&gt;Node9 -->
<g id="edge66" class="edge"><title>Node16&#45;&gt;Node9</title>
<path fill="none" stroke="midnightblue" d="M1143.36,-66.9957C999.317,-61.1222 588.236,-43.1157 432.445,-21.951"/>
<polygon fill="midnightblue" stroke="midnightblue" points="432.509,-18.4252 422.116,-20.4872 431.526,-25.3559 432.509,-18.4252"/>
</g>
<!-- Node16&#45;&gt;Node11 -->
<g id="edge40" class="edge"><title>Node16&#45;&gt;Node11</title>
<path fill="none" stroke="midnightblue" d="M1143.19,-66.2019C1026.48,-59.5549 741.068,-41.9958 626.282,-21.8532"/>
<polygon fill="midnightblue" stroke="midnightblue" points="626.834,-18.396 616.365,-20.0226 625.564,-25.2797 626.834,-18.396"/>
</g>
<!-- Node16&#45;&gt;Node13 -->
<g id="edge44" class="edge"><title>Node16&#45;&gt;Node13</title>
<path fill="none" stroke="midnightblue" d="M1244.72,-67.5519C1432.81,-62.0648 2085.98,-41.9315 2217.99,-21.4623"/>
<polygon fill="midnightblue" stroke="midnightblue" points="2218.62,-24.9056 2227.87,-19.7355 2217.42,-18.0102 2218.62,-24.9056"/>
</g>
<!-- Node16&#45;&gt;Node14 -->
<g id="edge72" class="edge"><title>Node16&#45;&gt;Node14</title>
<path fill="none" stroke="midnightblue" d="M1143.31,-65.4882C1060.03,-59.3563 888.883,-45.235 734.736,-22.1554"/>
<polygon fill="midnightblue" stroke="midnightblue" points="735.019,-18.6585 724.608,-20.6222 733.972,-25.5797 735.019,-18.6585"/>
</g>
<!-- Node17 -->
<g id="node36" class="node"><title>Node17</title>
<polygon fill="white" stroke="#bfbfbf" points="1062,-0.5 1062,-21.5 1106,-21.5 1106,-0.5 1062,-0.5"/>
<text text-anchor="middle" x="1084" y="-8.5" font-family="Helvetica,sans-Serif" font-size="10.00">cmath</text>
</g>
<!-- Node16&#45;&gt;Node17 -->
<g id="edge38" class="edge"><title>Node16&#45;&gt;Node17</title>
<path fill="none" stroke="midnightblue" d="M1174.08,-58.4966C1157.05,-49.5194 1132.33,-36.4835 1113.09,-26.3387"/>
<polygon fill="midnightblue" stroke="midnightblue" points="1114.62,-23.1894 1104.14,-21.6212 1111.36,-29.3814 1114.62,-23.1894"/>
</g>
<!-- Node18 -->
<g id="node39" class="node"><title>Node18</title>
<polygon fill="white" stroke="#bfbfbf" points="1123.5,-0.5 1123.5,-21.5 1164.5,-21.5 1164.5,-0.5 1123.5,-0.5"/>
<text text-anchor="middle" x="1144" y="-8.5" font-family="Helvetica,sans-Serif" font-size="10.00">string</text>
</g>
<!-- Node16&#45;&gt;Node18 -->
<g id="edge42" class="edge"><title>Node16&#45;&gt;Node18</title>
<path fill="none" stroke="midnightblue" d="M1184.83,-58.3619C1177.85,-50.2678 1168.08,-38.9318 1159.84,-29.3796"/>
<polygon fill="midnightblue" stroke="midnightblue" points="1162.29,-26.8595 1153.11,-21.5707 1156.99,-31.4301 1162.29,-26.8595"/>
</g>
<!-- Node19 -->
<g id="node42" class="node"><title>Node19</title>
<polygon fill="white" stroke="#bfbfbf" points="1182,-0.5 1182,-21.5 1234,-21.5 1234,-0.5 1182,-0.5"/>
<text text-anchor="middle" x="1208" y="-8.5" font-family="Helvetica,sans-Serif" font-size="10.00">sstream</text>
</g>
<!-- Node16&#45;&gt;Node19 -->
<g id="edge46" class="edge"><title>Node16&#45;&gt;Node19</title>
<path fill="none" stroke="midnightblue" d="M1196.57,-58.3619C1198.38,-50.8401 1200.87,-40.5187 1203.07,-31.4308"/>
<polygon fill="midnightblue" stroke="midnightblue" points="1206.5,-32.1127 1205.45,-21.5707 1199.7,-30.4702 1206.5,-32.1127"/>
</g>
<!-- Node20 -->
<g id="node44" class="node"><title>Node20</title>
<polygon fill="white" stroke="#bfbfbf" points="1251.5,-0.5 1251.5,-21.5 1366.5,-21.5 1366.5,-0.5 1251.5,-0.5"/>
<text text-anchor="middle" x="1309" y="-8.5" font-family="Helvetica,sans-Serif" font-size="10.00">yarp/os/BufferedPort.h</text>
</g>
<!-- Node16&#45;&gt;Node20 -->
<g id="edge48" class="edge"><title>Node16&#45;&gt;Node20</title>
<path fill="none" stroke="midnightblue" d="M1214.83,-58.4966C1232.71,-49.4786 1258.71,-36.3649 1278.86,-26.2006"/>
<polygon fill="midnightblue" stroke="midnightblue" points="1280.59,-29.2495 1287.94,-21.6212 1277.44,-22.9994 1280.59,-29.2495"/>
</g>
<!-- Node21 -->
<g id="node46" class="node"><title>Node21</title>
<polygon fill="white" stroke="#bfbfbf" points="1384,-0.5 1384,-21.5 1470,-21.5 1470,-0.5 1384,-0.5"/>
<text text-anchor="middle" x="1427" y="-8.5" font-family="Helvetica,sans-Serif" font-size="10.00">yarp/os/Bottle.h</text>
</g>
<!-- Node16&#45;&gt;Node21 -->
<g id="edge50" class="edge"><title>Node16&#45;&gt;Node21</title>
<path fill="none" stroke="midnightblue" d="M1236.19,-58.4966C1275.17,-48.7955 1333.18,-34.3547 1375,-23.9445"/>
<polygon fill="midnightblue" stroke="midnightblue" points="1375.87,-27.335 1384.73,-21.5231 1374.18,-20.5423 1375.87,-27.335"/>
</g>
<!-- Node22 -->
<g id="node48" class="node"><title>Node22</title>
<polygon fill="white" stroke="#bfbfbf" points="2375.5,-0.5 2375.5,-21.5 2486.5,-21.5 2486.5,-0.5 2375.5,-0.5"/>
<text text-anchor="middle" x="2431" y="-8.5" font-family="Helvetica,sans-Serif" font-size="10.00">yarp/os/RateThread.h</text>
</g>
<!-- Node16&#45;&gt;Node22 -->
<g id="edge52" class="edge"><title>Node16&#45;&gt;Node22</title>
<path fill="none" stroke="midnightblue" d="M1244.5,-67.8532C1436.85,-63.3515 2124.45,-46 2365.12,-22.064"/>
<polygon fill="midnightblue" stroke="midnightblue" points="2365.62,-25.5311 2375.21,-21.0285 2364.91,-18.5676 2365.62,-25.5311"/>
</g>
<!-- Node23 -->
<g id="node50" class="node"><title>Node23</title>
<polygon fill="white" stroke="#bfbfbf" points="1487.5,-0.5 1487.5,-21.5 1616.5,-21.5 1616.5,-0.5 1487.5,-0.5"/>
<text text-anchor="middle" x="1552" y="-8.5" font-family="Helvetica,sans-Serif" font-size="10.00">yarp/os/ResourceFinder.h</text>
</g>
<!-- Node16&#45;&gt;Node23 -->
<g id="edge54" class="edge"><title>Node16&#45;&gt;Node23</title>
<path fill="none" stroke="midnightblue" d="M1244.53,-60.813C1305.25,-50.9766 1407.64,-34.388 1477.44,-23.0793"/>
<polygon fill="midnightblue" stroke="midnightblue" points="1478.18,-26.5048 1487.5,-21.4505 1477.06,-19.5949 1478.18,-26.5048"/>
</g>
<!-- Node24 -->
<g id="node52" class="node"><title>Node24</title>
<polygon fill="white" stroke="#bfbfbf" points="1634,-0.5 1634,-21.5 1744,-21.5 1744,-0.5 1634,-0.5"/>
<text text-anchor="middle" x="1689" y="-8.5" font-family="Helvetica,sans-Serif" font-size="10.00">yarp/os/PortReader.h</text>
</g>
<!-- Node16&#45;&gt;Node24 -->
<g id="edge56" class="edge"><title>Node16&#45;&gt;Node24</title>
<path fill="none" stroke="midnightblue" d="M1244.55,-64.5051C1323.31,-57.2796 1480.27,-41.9849 1623.58,-22.1334"/>
<polygon fill="midnightblue" stroke="midnightblue" points="1624.46,-25.5454 1633.88,-20.6963 1623.49,-18.6127 1624.46,-25.5454"/>
</g>
<!-- Node16&#45;&gt;Node25 -->
<g id="edge58" class="edge"><title>Node16&#45;&gt;Node25</title>
<path fill="none" stroke="midnightblue" d="M1143.3,-66.9599C961.005,-59.5733 343.281,-34.0771 214.478,-21.9334"/>
<polygon fill="midnightblue" stroke="midnightblue" points="214.484,-18.4155 204.177,-20.8713 213.766,-25.3786 214.484,-18.4155"/>
</g>
<!-- Node26 -->
<g id="node56" class="node"><title>Node26</title>
<polygon fill="white" stroke="#bfbfbf" points="1761.5,-0.5 1761.5,-21.5 1868.5,-21.5 1868.5,-0.5 1761.5,-0.5"/>
<text text-anchor="middle" x="1815" y="-8.5" font-family="Helvetica,sans-Serif" font-size="10.00">yarp/os/RpcServer.h</text>
</g>
<!-- Node16&#45;&gt;Node26 -->
<g id="edge60" class="edge"><title>Node16&#45;&gt;Node26</title>
<path fill="none" stroke="midnightblue" d="M1244.65,-66.3016C1341.28,-60.815 1558.77,-46.8377 1751.26,-22.1401"/>
<polygon fill="midnightblue" stroke="midnightblue" points="1751.81,-25.5982 1761.28,-20.8421 1750.91,-18.6563 1751.81,-25.5982"/>
</g>
<!-- Node27 -->
<g id="node58" class="node"><title>Node27</title>
<polygon fill="white" stroke="#bfbfbf" points="1885.5,-0.5 1885.5,-21.5 2026.5,-21.5 2026.5,-0.5 1885.5,-0.5"/>
<text text-anchor="middle" x="1956" y="-8.5" font-family="Helvetica,sans-Serif" font-size="10.00">yarp/os/ConnectionReader.h</text>
</g>
<!-- Node16&#45;&gt;Node27 -->
<g id="edge62" class="edge"><title>Node16&#45;&gt;Node27</title>
<path fill="none" stroke="midnightblue" d="M1244.66,-66.7233C1356.56,-61.4331 1633.44,-46.9092 1875.36,-22.1163"/>
<polygon fill="midnightblue" stroke="midnightblue" points="1875.81,-25.5883 1885.39,-21.0794 1875.09,-18.6254 1875.81,-25.5883"/>
</g>
<!-- Node16&#45;&gt;Node28 -->
<g id="edge64" class="edge"><title>Node16&#45;&gt;Node28</title>
<path fill="none" stroke="midnightblue" d="M1143.24,-67.0833C941.575,-59.4386 203.037,-31.1414 92.2372,-21.6701"/>
<polygon fill="midnightblue" stroke="midnightblue" points="92.4043,-18.1691 82.1007,-20.6361 91.6939,-25.1329 92.4043,-18.1691"/>
</g>
<!-- Node16&#45;&gt;Node29 -->
<g id="edge68" class="edge"><title>Node16&#45;&gt;Node29</title>
<path fill="none" stroke="midnightblue" d="M1143.49,-67.0335C987.493,-60.8357 513.825,-41.0544 338.809,-22.0718"/>
<polygon fill="midnightblue" stroke="midnightblue" points="339.038,-18.5757 328.71,-20.9385 338.257,-25.532 339.038,-18.5757"/>
</g>
<!-- Node30 -->
<g id="node65" class="node"><title>Node30</title>
<polygon fill="white" stroke="#bfbfbf" points="2043.5,-0.5 2043.5,-21.5 2140.5,-21.5 2140.5,-0.5 2043.5,-0.5"/>
<text text-anchor="middle" x="2092" y="-8.5" font-family="Helvetica,sans-Serif" font-size="10.00">yarp/os/Property.h</text>
</g>
<!-- Node16&#45;&gt;Node30 -->
<g id="edge70" class="edge"><title>Node16&#45;&gt;Node30</title>
<path fill="none" stroke="midnightblue" d="M1244.93,-68.5409C1374.82,-66.8595 1729.05,-59.0722 2032.92,-22.126"/>
<polygon fill="midnightblue" stroke="midnightblue" points="2033.75,-25.5497 2043.25,-20.8558 2032.9,-18.602 2033.75,-25.5497"/>
</g>
<!-- Node31 -->
<g id="node68" class="node"><title>Node31</title>
<polygon fill="white" stroke="#bfbfbf" points="817.5,-0.5 817.5,-21.5 906.5,-21.5 906.5,-0.5 817.5,-0.5"/>
<text text-anchor="middle" x="862" y="-8.5" font-family="Helvetica,sans-Serif" font-size="10.00">yarp/sig/Matrix.h</text>
</g>
<!-- Node16&#45;&gt;Node31 -->
<g id="edge74" class="edge"><title>Node16&#45;&gt;Node31</title>
<path fill="none" stroke="midnightblue" d="M1143.5,-61.0802C1089.61,-52.498 1001.5,-38.0889 916.339,-22.2073"/>
<polygon fill="midnightblue" stroke="midnightblue" points="916.983,-18.767 906.509,-20.3647 915.693,-25.6472 916.983,-18.767"/>
</g>
<!-- Node32 -->
<g id="node72" class="node"><title>Node32</title>
<polygon fill="white" stroke="#bfbfbf" points="923.5,-0.5 923.5,-21.5 1044.5,-21.5 1044.5,-0.5 923.5,-0.5"/>
<text text-anchor="middle" x="984" y="-8.5" font-family="Helvetica,sans-Serif" font-size="10.00">ocra/util/StringUtilities.h</text>
</g>
<!-- Node16&#45;&gt;Node32 -->
<g id="edge80" class="edge"><title>Node16&#45;&gt;Node32</title>
<path fill="none" stroke="midnightblue" d="M1155.97,-58.4966C1121.14,-48.8773 1069.44,-34.5981 1031.83,-24.209"/>
<polygon fill="midnightblue" stroke="midnightblue" points="1032.67,-20.8117 1022.1,-21.5231 1030.81,-27.5591 1032.67,-20.8117"/>
</g>
<!-- Node33 -->
<g id="node74" class="node"><title>Node33</title>
<polygon fill="white" stroke="#bfbfbf" points="2503.5,-0.5 2503.5,-21.5 2576.5,-21.5 2576.5,-0.5 2503.5,-0.5"/>
<text text-anchor="middle" x="2540" y="-8.5" font-family="Helvetica,sans-Serif" font-size="10.00">Eigen/Dense</text>
</g>
<!-- Node16&#45;&gt;Node33 -->
<g id="edge82" class="edge"><title>Node16&#45;&gt;Node33</title>
<path fill="none" stroke="midnightblue" d="M1244.65,-68.5479C1450.66,-66.4993 2226.87,-56.6884 2493.26,-21.9728"/>
<polygon fill="midnightblue" stroke="midnightblue" points="2493.84,-25.4266 2503.28,-20.6213 2492.9,-18.4894 2493.84,-25.4266"/>
</g>
<!-- Node34 -->
<g id="node76" class="node"><title>Node34</title>
<polygon fill="white" stroke="#bfbfbf" points="2290,-0.5 2290,-21.5 2358,-21.5 2358,-0.5 2290,-0.5"/>
<text text-anchor="middle" x="2324" y="-8.5" font-family="Helvetica,sans-Serif" font-size="10.00">Eigen/Lgsm</text>
</g>
<!-- Node16&#45;&gt;Node34 -->
<g id="edge84" class="edge"><title>Node16&#45;&gt;Node34</title>
<path fill="none" stroke="midnightblue" d="M1244.64,-68.2026C1427.99,-65.1022 2057.63,-52.5448 2279.91,-21.8415"/>
<polygon fill="midnightblue" stroke="midnightblue" points="2280.46,-25.2977 2289.86,-20.4129 2279.47,-18.3687 2280.46,-25.2977"/>
</g>
<!-- Node39&#45;&gt;Node13 -->
<g id="edge120" class="edge"><title>Node39&#45;&gt;Node13</title>
<path fill="none" stroke="midnightblue" d="M1903.66,-232.332C1920.61,-223.025 1945.65,-209.011 1967,-196 2062.69,-137.696 2084.2,-119.292 2178,-58 2193.68,-47.752 2211.3,-36.2556 2225.17,-27.1981"/>
<polygon fill="midnightblue" stroke="midnightblue" points="2227.24,-30.0319 2233.7,-21.6358 2223.41,-24.1697 2227.24,-30.0319"/>
</g>
<!-- Node39&#45;&gt;Node16 -->
<g id="edge114" class="edge"><title>Node39&#45;&gt;Node16</title>
<path fill="none" stroke="midnightblue" d="M1907.42,-232.386C1933.48,-219.153 1969.63,-195.634 1951,-174 1905.6,-121.292 1426.57,-84.4762 1254.83,-72.8868"/>
<polygon fill="midnightblue" stroke="midnightblue" points="1254.91,-69.3843 1244.7,-72.2082 1254.44,-76.3686 1254.91,-69.3843"/>
</g>
<!-- Node39&#45;&gt;Node33 -->
<g id="edge118" class="edge"><title>Node39&#45;&gt;Node33</title>
<path fill="none" stroke="midnightblue" d="M1913.89,-232.429C2020.31,-194.793 2380.76,-67.3161 2500.77,-24.8745"/>
<polygon fill="midnightblue" stroke="midnightblue" points="2502.05,-28.1346 2510.31,-21.5006 2499.71,-21.5351 2502.05,-28.1346"/>
</g>
<!-- Node40 -->
<g id="node98" class="node"><title>Node40</title>
<polygon fill="white" stroke="#bfbfbf" points="1825.5,-174.5 1825.5,-195.5 1942.5,-195.5 1942.5,-174.5 1825.5,-174.5"/>
<text text-anchor="middle" x="1884" y="-182.5" font-family="Helvetica,sans-Serif" font-size="10.00">ocra/util/ErrorsHelper.h</text>
</g>
<!-- Node39&#45;&gt;Node40 -->
<g id="edge116" class="edge"><title>Node39&#45;&gt;Node40</title>
<path fill="none" stroke="midnightblue" d="M1884,-232.362C1884,-224.922 1884,-214.743 1884,-205.728"/>
<polygon fill="midnightblue" stroke="midnightblue" points="1887.5,-205.571 1884,-195.571 1880.5,-205.571 1887.5,-205.571"/>
</g>
<!-- Node39&#45;&gt;Node41 -->
<g id="edge122" class="edge"><title>Node39&#45;&gt;Node41</title>
<path fill="none" stroke="midnightblue" d="M1834.38,-232.497C1788.07,-222.693 1718.89,-208.05 1669.6,-197.616"/>
<polygon fill="midnightblue" stroke="midnightblue" points="1670.22,-194.17 1659.71,-195.523 1668.77,-201.018 1670.22,-194.17"/>
</g>
<!-- Node42&#45;&gt;Node36 -->
<g id="edge126" class="edge"><title>Node42&#45;&gt;Node36</title>
<path fill="none" stroke="midnightblue" d="M1469.92,-290.497C1446.93,-281.234 1413.2,-267.65 1387.7,-257.379"/>
<polygon fill="midnightblue" stroke="midnightblue" points="1388.95,-254.111 1378.37,-253.621 1386.34,-260.604 1388.95,-254.111"/>
</g>
<!-- Node42&#45;&gt;Node41 -->
<g id="edge128" class="edge"><title>Node42&#45;&gt;Node41</title>
<path fill="none" stroke="midnightblue" d="M1504.92,-290.405C1516.68,-276.589 1538.21,-251.844 1558,-232 1568.07,-221.902 1579.82,-211.2 1589.59,-202.563"/>
<polygon fill="midnightblue" stroke="midnightblue" points="1592.04,-205.071 1597.27,-195.853 1587.43,-199.802 1592.04,-205.071"/>
</g>
<!-- Node43&#45;&gt;Node5 -->
<g id="edge138" class="edge"><title>Node43&#45;&gt;Node5</title>
<path fill="none" stroke="midnightblue" d="M2057.23,-294.929C1954.83,-286.729 1769.23,-271.151 1611,-254 1533.94,-245.648 1514.94,-241.356 1438,-232 1323.61,-218.09 1190.94,-202.866 1109.49,-193.623"/>
<polygon fill="midnightblue" stroke="midnightblue" points="1109.65,-190.12 1099.32,-192.471 1108.86,-197.075 1109.65,-190.12"/>
</g>
<!-- Node43&#45;&gt;Node22 -->
<g id="edge140" class="edge"><title>Node43&#45;&gt;Node22</title>
<path fill="none" stroke="midnightblue" d="M2152.87,-290.294C2180.39,-272.291 2230,-233.157 2230,-185 2230,-185 2230,-185 2230,-127 2230,-90.2463 2332.09,-46.9622 2390.75,-25.1234"/>
<polygon fill="midnightblue" stroke="midnightblue" points="2392.29,-28.2874 2400.47,-21.5539 2389.88,-21.7166 2392.29,-28.2874"/>
</g>
<!-- Node43&#45;&gt;Node33 -->
<g id="edge142" class="edge"><title>Node43&#45;&gt;Node33</title>
<path fill="none" stroke="midnightblue" d="M2212.69,-290.559C2214.14,-290.37 2215.58,-290.184 2217,-290 2281.4,-281.683 2458.55,-297.244 2507,-254 2570.95,-196.912 2554.72,-79.294 2544.87,-31.6843"/>
<polygon fill="midnightblue" stroke="midnightblue" points="2548.23,-30.6692 2542.67,-21.6509 2541.4,-32.1685 2548.23,-30.6692"/>
</g>
<!-- Node43&#45;&gt;Node34 -->
<g id="edge144" class="edge"><title>Node43&#45;&gt;Node34</title>
<path fill="none" stroke="midnightblue" d="M2145.8,-290.34C2154.31,-281.365 2165.91,-267.815 2173,-254 2187.53,-225.703 2192,-216.808 2192,-185 2192,-185 2192,-185 2192,-127 2192,-94.5312 2193.93,-81.8116 2216,-58 2225.66,-47.5822 2256.64,-34.6286 2282.96,-24.9602"/>
<polygon fill="midnightblue" stroke="midnightblue" points="2284.18,-28.2419 2292.4,-21.5575 2281.81,-21.6569 2284.18,-28.2419"/>
</g>
<!-- Node43&#45;&gt;Node41 -->
<g id="edge136" class="edge"><title>Node43&#45;&gt;Node41</title>
<path fill="none" stroke="midnightblue" d="M2057.32,-298.586C1923.6,-293.732 1661.08,-280.877 1629,-254 1615.13,-242.378 1610.89,-221.646 1609.81,-205.932"/>
<polygon fill="midnightblue" stroke="midnightblue" points="1613.3,-205.466 1609.5,-195.578 1606.31,-205.68 1613.3,-205.466"/>
</g>
<!-- Node43&#45;&gt;Node44 -->
<g id="edge134" class="edge"><title>Node43&#45;&gt;Node44</title>
<path fill="none" stroke="midnightblue" d="M2212.93,-291.548C2217.35,-291.021 2221.73,-290.503 2226,-290 2365.51,-273.571 2401.4,-276.836 2540,-254 2541.26,-253.793 2542.53,-253.575 2543.81,-253.349"/>
<polygon fill="midnightblue" stroke="midnightblue" points="2544.58,-256.767 2553.76,-251.475 2543.28,-249.888 2544.58,-256.767"/>
</g>
<!-- Node45 -->
<g id="node118" class="node"><title>Node45</title>
<polygon fill="white" stroke="#bfbfbf" points="1994,-232.5 1994,-253.5 2164,-253.5 2164,-232.5 1994,-232.5"/>
<text text-anchor="middle" x="2079" y="-240.5" font-family="Helvetica,sans-Serif" font-size="10.00">unsupported/Eigen/MatrixFunctions</text>
</g>
<!-- Node43&#45;&gt;Node45 -->
<g id="edge146" class="edge"><title>Node43&#45;&gt;Node45</title>
<path fill="none" stroke="midnightblue" d="M2124.73,-290.362C2116.76,-282.104 2105.53,-270.472 2096.19,-260.803"/>
<polygon fill="midnightblue" stroke="midnightblue" points="2098.67,-258.334 2089.21,-253.571 2093.63,-263.196 2098.67,-258.334"/>
</g>
<!-- Node46 -->
<g id="node120" class="node"><title>Node46</title>
<a xlink:href="MIQPLinearConstraints_8h.html" target="_top" xlink:title="walking&#45;client/constraints/MIQPLinearConstraints.h">
<polygon fill="white" stroke="red" points="2258,-232.5 2258,-253.5 2498,-253.5 2498,-232.5 2258,-232.5"/>
<text text-anchor="middle" x="2378" y="-240.5" font-family="Helvetica,sans-Serif" font-size="10.00">walking&#45;client/constraints/MIQPLinearConstraints.h</text>
</a>
</g>
<!-- Node43&#45;&gt;Node46 -->
<g id="edge148" class="edge"><title>Node43&#45;&gt;Node46</title>
<path fill="none" stroke="midnightblue" d="M2179.01,-290.497C2219.74,-280.775 2280.41,-266.294 2324.04,-255.879"/>
<polygon fill="midnightblue" stroke="midnightblue" points="2325,-259.249 2333.91,-253.523 2323.37,-252.44 2325,-259.249"/>
</g>
<!-- Node48 -->
<g id="node124" class="node"><title>Node48</title>
<a xlink:href="MIQPState_8h.html" target="_top" xlink:title="walking&#45;client/MIQPState.h">
<polygon fill="white" stroke="black" points="1638,-232.5 1638,-253.5 1774,-253.5 1774,-232.5 1638,-232.5"/>
<text text-anchor="middle" x="1706" y="-240.5" font-family="Helvetica,sans-Serif" font-size="10.00">walking&#45;client/MIQPState.h</text>
</a>
</g>
<!-- Node43&#45;&gt;Node48 -->
<g id="edge152" class="edge"><title>Node43&#45;&gt;Node48</title>
<path fill="none" stroke="midnightblue" d="M2057.37,-290.843C1988.33,-281.761 1884.32,-267.963 1784.02,-254.133"/>
<polygon fill="midnightblue" stroke="midnightblue" points="1784.4,-250.652 1774.02,-252.751 1783.44,-257.586 1784.4,-250.652"/>
</g>
<!-- Node43&#45;&gt;Node49 -->
<g id="edge164" class="edge"><title>Node43&#45;&gt;Node49</title>
<path fill="none" stroke="midnightblue" d="M2212.76,-294.153C2338.48,-283.026 2577.51,-261.618 2635.18,-253.644"/>
<polygon fill="midnightblue" stroke="midnightblue" points="2636.08,-257.043 2645.4,-251.997 2634.97,-250.133 2636.08,-257.043"/>
</g>
<!-- Node47 -->
<g id="node122" class="node"><title>Node47</title>
<a xlink:href="ShapeConstraints_8h.html" target="_top" xlink:title="walking&#45;client/constraints/ShapeConstraints.h">
<polygon fill="white" stroke="red" points="2296,-174.5 2296,-195.5 2512,-195.5 2512,-174.5 2296,-174.5"/>
<text text-anchor="middle" x="2404" y="-182.5" font-family="Helvetica,sans-Serif" font-size="10.00">walking&#45;client/constraints/ShapeConstraints.h</text>
</a>
</g>
<!-- Node46&#45;&gt;Node47 -->
<g id="edge150" class="edge"><title>Node46&#45;&gt;Node47</title>
<path fill="none" stroke="midnightblue" d="M2382.77,-232.362C2386.21,-224.677 2390.97,-214.069 2395.11,-204.84"/>
<polygon fill="midnightblue" stroke="midnightblue" points="2398.36,-206.127 2399.26,-195.571 2391.98,-203.264 2398.36,-206.127"/>
</g>
<!-- Node48&#45;&gt;Node5 -->
<g id="edge156" class="edge"><title>Node48&#45;&gt;Node5</title>
<path fill="none" stroke="midnightblue" d="M1637.77,-237.119C1511.4,-226.229 1241.8,-202.995 1109.48,-191.591"/>
<polygon fill="midnightblue" stroke="midnightblue" points="1109.68,-188.096 1099.42,-190.724 1109.08,-195.07 1109.68,-188.096"/>
</g>
<!-- Node48&#45;&gt;Node16 -->
<g id="edge162" class="edge"><title>Node48&#45;&gt;Node16</title>
<path fill="none" stroke="midnightblue" d="M1703.63,-232.281C1699.65,-216.903 1690.11,-188.805 1671,-174 1606.4,-123.963 1368.7,-89.7537 1255.16,-75.901"/>
<polygon fill="midnightblue" stroke="midnightblue" points="1255.25,-72.3861 1244.9,-74.6633 1254.41,-79.3357 1255.25,-72.3861"/>
</g>
<!-- Node48&#45;&gt;Node33 -->
<g id="edge154" class="edge"><title>Node48&#45;&gt;Node33</title>
<path fill="none" stroke="midnightblue" d="M1719.55,-232.456C1739.68,-217.295 1779.2,-189.466 1817,-174 2099.75,-58.3192 2192.34,-91.7027 2493.3,-22.3579"/>
<polygon fill="midnightblue" stroke="midnightblue" points="2494.23,-25.735 2503.18,-20.0622 2492.64,-18.9167 2494.23,-25.735"/>
</g>
<!-- Node48&#45;&gt;Node40 -->
<g id="edge158" class="edge"><title>Node48&#45;&gt;Node40</title>
<path fill="none" stroke="midnightblue" d="M1738.23,-232.497C1767.25,-223.041 1810.09,-209.083 1841.82,-198.743"/>
<polygon fill="midnightblue" stroke="midnightblue" points="1843.28,-201.949 1851.71,-195.523 1841.11,-195.293 1843.28,-201.949"/>
</g>
<!-- Node48&#45;&gt;Node41 -->
<g id="edge160" class="edge"><title>Node48&#45;&gt;Node41</title>
<path fill="none" stroke="midnightblue" d="M1688.39,-232.362C1673.78,-223.532 1652.78,-210.844 1636.19,-200.822"/>
<polygon fill="midnightblue" stroke="midnightblue" points="1637.87,-197.746 1627.5,-195.571 1634.25,-203.738 1637.87,-197.746"/>
</g>
</g>
</svg>
