<?xml version="1.0" encoding="UTF-8" standalone="no"?>
<!DOCTYPE svg PUBLIC "-//W3C//DTD SVG 1.1//EN"
 "http://www.w3.org/Graphics/SVG/1.1/DTD/svg11.dtd">
<!-- Generated by graphviz version 2.26.3 (20100126.1600)
 -->
<!-- Title: G Pages: 1 -->
<svg width="3104pt" height="436pt"
 viewBox="0.00 0.00 3104.00 436.00" xmlns="http://www.w3.org/2000/svg" xmlns:xlink="http://www.w3.org/1999/xlink">
<g id="graph1" class="graph" transform="scale(1 1) rotate(0) translate(4 432)">
<title>G</title>
<polygon fill="white" stroke="white" points="-4,5 -4,-432 3101,-432 3101,5 -4,5"/>
<!-- Node1 -->
<g id="node1" class="node"><title>Node1</title>
<polygon fill="#bfbfbf" stroke="black" points="2358.5,-406.5 2358.5,-427.5 2681.5,-427.5 2681.5,-406.5 2358.5,-406.5"/>
<text text-anchor="middle" x="2520" y="-414.5" font-family="Helvetica,sans-Serif" font-size="10.00">ocra&#45;wbi&#45;plugins/ocra&#45;icub&#45;clients/walking&#45;client/src/WalkingClient.cpp</text>
</g>
<!-- Node2 -->
<g id="node3" class="node"><title>Node2</title>
<a xlink:href="WalkingClient_8h.html" target="_top" xlink:title="walking&#45;client/WalkingClient.h">
<polygon fill="white" stroke="black" points="2446,-348.5 2446,-369.5 2594,-369.5 2594,-348.5 2446,-348.5"/>
<text text-anchor="middle" x="2520" y="-356.5" font-family="Helvetica,sans-Serif" font-size="10.00">walking&#45;client/WalkingClient.h</text>
</a>
</g>
<!-- Node1&#45;&gt;Node2 -->
<g id="edge2" class="edge"><title>Node1&#45;&gt;Node2</title>
<path fill="none" stroke="midnightblue" d="M2520,-406.362C2520,-398.922 2520,-388.743 2520,-379.728"/>
<polygon fill="midnightblue" stroke="midnightblue" points="2523.5,-379.571 2520,-369.571 2516.5,-379.571 2523.5,-379.571"/>
</g>
<!-- Node3 -->
<g id="node5" class="node"><title>Node3</title>
<a xlink:href="IcubClient_8h.html" target="_top" xlink:title="ocra&#45;icub/IcubClient.h">
<polygon fill="white" stroke="black" points="758,-290.5 758,-311.5 870,-311.5 870,-290.5 758,-290.5"/>
<text text-anchor="middle" x="814" y="-298.5" font-family="Helvetica,sans-Serif" font-size="10.00">ocra&#45;icub/IcubClient.h</text>
</a>
</g>
<!-- Node2&#45;&gt;Node3 -->
<g id="edge4" class="edge"><title>Node2&#45;&gt;Node3</title>
<path fill="none" stroke="midnightblue" d="M2445.87,-356.48C2162.44,-346.844 1149.75,-312.415 880.269,-303.253"/>
<polygon fill="midnightblue" stroke="midnightblue" points="880.359,-299.754 870.246,-302.912 880.121,-306.75 880.359,-299.754"/>
</g>
<!-- Node28 -->
<g id="node60" class="node"><title>Node28</title>
<polygon fill="white" stroke="#bfbfbf" points="2494,-0.5 2494,-21.5 2576,-21.5 2576,-0.5 2494,-0.5"/>
<text text-anchor="middle" x="2535" y="-8.5" font-family="Helvetica,sans-Serif" font-size="10.00">yarp/os/Time.h</text>
</g>
<!-- Node2&#45;&gt;Node28 -->
<g id="edge134" class="edge"><title>Node2&#45;&gt;Node28</title>
<path fill="none" stroke="midnightblue" d="M2510.99,-348.457C2503.61,-339.339 2493.38,-325.528 2487,-312 2473.44,-283.227 2468,-274.808 2468,-243 2468,-243 2468,-243 2468,-127 2468,-88.024 2496.71,-50.3657 2516.55,-29.0036"/>
<polygon fill="midnightblue" stroke="midnightblue" points="2519.22,-31.2757 2523.63,-21.6454 2514.18,-26.4194 2519.22,-31.2757"/>
</g>
<!-- Node36 -->
<g id="node89" class="node"><title>Node36</title>
<polygon fill="white" stroke="#bfbfbf" points="2495.5,-290.5 2495.5,-311.5 2650.5,-311.5 2650.5,-290.5 2495.5,-290.5"/>
<text text-anchor="middle" x="2573" y="-298.5" font-family="Helvetica,sans-Serif" font-size="10.00">ocra&#45;recipes/TrajectoryThread.h</text>
</g>
<!-- Node2&#45;&gt;Node36 -->
<g id="edge106" class="edge"><title>Node2&#45;&gt;Node36</title>
<path fill="none" stroke="midnightblue" d="M2529.72,-348.362C2537.19,-340.186 2547.69,-328.702 2556.47,-319.091"/>
<polygon fill="midnightblue" stroke="midnightblue" points="2559.18,-321.314 2563.34,-311.571 2554.01,-316.592 2559.18,-321.314"/>
</g>
<!-- Node37 -->
<g id="node91" class="node"><title>Node37</title>
<polygon fill="white" stroke="#bfbfbf" points="2667.5,-290.5 2667.5,-311.5 2816.5,-311.5 2816.5,-290.5 2667.5,-290.5"/>
<text text-anchor="middle" x="2742" y="-298.5" font-family="Helvetica,sans-Serif" font-size="10.00">ocra&#45;recipes/ControllerClient.h</text>
</g>
<!-- Node2&#45;&gt;Node37 -->
<g id="edge108" class="edge"><title>Node2&#45;&gt;Node37</title>
<path fill="none" stroke="midnightblue" d="M2560.2,-348.497C2597.18,-338.836 2652.14,-324.477 2691.95,-314.077"/>
<polygon fill="midnightblue" stroke="midnightblue" points="2692.93,-317.437 2701.72,-311.523 2691.16,-310.665 2692.93,-317.437"/>
</g>
<!-- Node38 -->
<g id="node93" class="node"><title>Node38</title>
<polygon fill="white" stroke="#bfbfbf" points="2834,-290.5 2834,-311.5 2954,-311.5 2954,-290.5 2834,-290.5"/>
<text text-anchor="middle" x="2894" y="-298.5" font-family="Helvetica,sans-Serif" font-size="10.00">ocra/util/EigenUtilities.h</text>
</g>
<!-- Node2&#45;&gt;Node38 -->
<g id="edge110" class="edge"><title>Node2&#45;&gt;Node38</title>
<path fill="none" stroke="midnightblue" d="M2589.06,-348.462C2648.6,-339.354 2737.15,-325.75 2823.79,-312.185"/>
<polygon fill="midnightblue" stroke="midnightblue" points="2824.45,-315.623 2833.79,-310.617 2823.37,-308.707 2824.45,-315.623"/>
</g>
<!-- Node39 -->
<g id="node95" class="node"><title>Node39</title>
<a xlink:href="ZmpPreviewController_8h.html" target="_top" xlink:title="walking&#45;client/ZmpPreviewController.h">
<polygon fill="white" stroke="black" points="2090,-116.5 2090,-137.5 2274,-137.5 2274,-116.5 2090,-116.5"/>
<text text-anchor="middle" x="2182" y="-124.5" font-family="Helvetica,sans-Serif" font-size="10.00">walking&#45;client/ZmpPreviewController.h</text>
</a>
</g>
<!-- Node2&#45;&gt;Node39 -->
<g id="edge112" class="edge"><title>Node2&#45;&gt;Node39</title>
<path fill="none" stroke="midnightblue" d="M2498.96,-348.318C2481.5,-339.225 2456.18,-325.521 2435,-312 2345.75,-255.018 2246,-177.771 2203.28,-143.991"/>
<polygon fill="midnightblue" stroke="midnightblue" points="2205.3,-141.121 2195.29,-137.649 2200.95,-146.605 2205.3,-141.121"/>
</g>
<!-- Node41 -->
<g id="node102" class="node"><title>Node41</title>
<a xlink:href="ZmpController_8h.html" target="_top" xlink:title="walking&#45;client/ZmpController.h">
<polygon fill="white" stroke="black" points="2291.5,-116.5 2291.5,-137.5 2440.5,-137.5 2440.5,-116.5 2291.5,-116.5"/>
<text text-anchor="middle" x="2366" y="-124.5" font-family="Helvetica,sans-Serif" font-size="10.00">walking&#45;client/ZmpController.h</text>
</a>
</g>
<!-- Node2&#45;&gt;Node41 -->
<g id="edge122" class="edge"><title>Node2&#45;&gt;Node41</title>
<path fill="none" stroke="midnightblue" d="M2500.03,-348.444C2485.74,-340.09 2466.84,-327.303 2454,-312 2410.71,-260.389 2383.3,-183.879 2371.98,-147.566"/>
<polygon fill="midnightblue" stroke="midnightblue" points="2375.23,-146.216 2368.98,-137.659 2368.53,-148.244 2375.23,-146.216"/>
</g>
<!-- Node42 -->
<g id="node108" class="node"><title>Node42</title>
<polygon fill="white" stroke="#bfbfbf" points="2971.5,-290.5 2971.5,-311.5 3096.5,-311.5 3096.5,-290.5 2971.5,-290.5"/>
<text text-anchor="middle" x="3034" y="-298.5" font-family="Helvetica,sans-Serif" font-size="10.00">ocra/util/FileOperations.h</text>
</g>
<!-- Node2&#45;&gt;Node42 -->
<g id="edge132" class="edge"><title>Node2&#45;&gt;Node42</title>
<path fill="none" stroke="midnightblue" d="M2594.2,-352.226C2680.14,-344.131 2826.23,-329.611 2961.19,-312.194"/>
<polygon fill="midnightblue" stroke="midnightblue" points="2961.84,-315.639 2971.3,-310.881 2960.94,-308.698 2961.84,-315.639"/>
</g>
<!-- Node4 -->
<g id="node7" class="node"><title>Node4</title>
<a xlink:href="ModelInitializer_8h.html" target="_top" xlink:title="ocra&#45;icub/ModelInitializer.h">
<polygon fill="white" stroke="black" points="207.5,-232.5 207.5,-253.5 340.5,-253.5 340.5,-232.5 207.5,-232.5"/>
<text text-anchor="middle" x="274" y="-240.5" font-family="Helvetica,sans-Serif" font-size="10.00">ocra&#45;icub/ModelInitializer.h</text>
</a>
</g>
<!-- Node3&#45;&gt;Node4 -->
<g id="edge6" class="edge"><title>Node3&#45;&gt;Node4</title>
<path fill="none" stroke="midnightblue" d="M757.992,-294.984C660.795,-284.545 460.762,-263.06 350.729,-251.241"/>
<polygon fill="midnightblue" stroke="midnightblue" points="351.009,-247.751 340.692,-250.163 350.261,-254.711 351.009,-247.751"/>
</g>
<!-- Node5 -->
<g id="node9" class="node"><title>Node5</title>
<a xlink:href="OcraWbiModel_8h.html" target="_top" xlink:title="Implementation of ocra::Model using wholeBodyInterface.">
<polygon fill="white" stroke="black" points="518,-174.5 518,-195.5 650,-195.5 650,-174.5 518,-174.5"/>
<text text-anchor="middle" x="584" y="-182.5" font-family="Helvetica,sans-Serif" font-size="10.00">ocra&#45;icub/OcraWbiModel.h</text>
</a>
</g>
<!-- Node3&#45;&gt;Node5 -->
<g id="edge102" class="edge"><title>Node3&#45;&gt;Node5</title>
<path fill="none" stroke="midnightblue" d="M792.774,-290.295C751.679,-269.568 661.147,-223.909 613.95,-200.105"/>
<polygon fill="midnightblue" stroke="midnightblue" points="615.347,-196.89 604.842,-195.512 612.195,-203.14 615.347,-196.89"/>
</g>
<!-- Node10 -->
<g id="node19" class="node"><title>Node10</title>
<a xlink:href="OcraWbiConversions_8h.html" target="_top" xlink:title="A utility class full of static conversion functions.">
<polygon fill="white" stroke="black" points="733.5,-116.5 733.5,-137.5 894.5,-137.5 894.5,-116.5 733.5,-116.5"/>
<text text-anchor="middle" x="814" y="-124.5" font-family="Helvetica,sans-Serif" font-size="10.00">ocra&#45;icub/OcraWbiConversions.h</text>
</a>
</g>
<!-- Node3&#45;&gt;Node10 -->
<g id="edge100" class="edge"><title>Node3&#45;&gt;Node10</title>
<path fill="none" stroke="midnightblue" d="M814,-290.377C814,-262.293 814,-185.673 814,-148.203"/>
<polygon fill="midnightblue" stroke="midnightblue" points="817.5,-147.928 814,-137.928 810.5,-147.928 817.5,-147.928"/>
</g>
<!-- Node16 -->
<g id="node33" class="node"><title>Node16</title>
<a xlink:href="Utilities_8h.html" target="_top" xlink:title="Some useful tools for the ocra&#45;icub lib.">
<polygon fill="white" stroke="black" points="1233.5,-58.5 1233.5,-79.5 1334.5,-79.5 1334.5,-58.5 1233.5,-58.5"/>
<text text-anchor="middle" x="1284" y="-66.5" font-family="Helvetica,sans-Serif" font-size="10.00">ocra&#45;icub/Utilities.h</text>
</a>
</g>
<!-- Node3&#45;&gt;Node16 -->
<g id="edge104" class="edge"><title>Node3&#45;&gt;Node16</title>
<path fill="none" stroke="midnightblue" d="M835.416,-290.429C910.971,-253.133 1165.26,-127.613 1253.52,-84.0457"/>
<polygon fill="midnightblue" stroke="midnightblue" points="1255.31,-87.0654 1262.73,-79.5006 1252.21,-80.7884 1255.31,-87.0654"/>
</g>
<!-- Node4&#45;&gt;Node5 -->
<g id="edge8" class="edge"><title>Node4&#45;&gt;Node5</title>
<path fill="none" stroke="midnightblue" d="M330.139,-232.497C382.865,-222.632 461.786,-207.866 517.612,-197.421"/>
<polygon fill="midnightblue" stroke="midnightblue" points="518.57,-200.803 527.756,-195.523 517.283,-193.922 518.57,-200.803"/>
</g>
<!-- Node7 -->
<g id="node13" class="node"><title>Node7</title>
<polygon fill="white" stroke="#bfbfbf" points="-0.5,-0.5 -0.5,-21.5 104.5,-21.5 104.5,-0.5 -0.5,-0.5"/>
<text text-anchor="middle" x="52" y="-8.5" font-family="Helvetica,sans-Serif" font-size="10.00">ocra/control/Model.h</text>
</g>
<!-- Node4&#45;&gt;Node7 -->
<g id="edge88" class="edge"><title>Node4&#45;&gt;Node7</title>
<path fill="none" stroke="midnightblue" d="M251.399,-232.455C234.734,-224.021 212.086,-211.129 195,-196 136.69,-144.369 85.4629,-66.2205 63.4521,-30.2993"/>
<polygon fill="midnightblue" stroke="midnightblue" points="66.4385,-28.4739 58.2671,-21.7301 60.4495,-32.0977 66.4385,-28.4739"/>
</g>
<!-- Node9 -->
<g id="node17" class="node"><title>Node9</title>
<polygon fill="white" stroke="#bfbfbf" points="122,-0.5 122,-21.5 198,-21.5 198,-0.5 122,-0.5"/>
<text text-anchor="middle" x="160" y="-8.5" font-family="Helvetica,sans-Serif" font-size="10.00">yarp/os/Log.h</text>
</g>
<!-- Node4&#45;&gt;Node9 -->
<g id="edge98" class="edge"><title>Node4&#45;&gt;Node9</title>
<path fill="none" stroke="midnightblue" d="M252.901,-232.427C238.768,-224.305 220.83,-211.808 210,-196 174.537,-144.238 164.189,-68.3413 161.198,-31.9599"/>
<polygon fill="midnightblue" stroke="midnightblue" points="164.663,-31.3436 160.463,-21.6169 157.681,-31.8399 164.663,-31.3436"/>
</g>
<!-- Node15 -->
<g id="node31" class="node"><title>Node15</title>
<polygon fill="white" stroke="#bfbfbf" points="416,-58.5 416,-79.5 658,-79.5 658,-58.5 416,-58.5"/>
<text text-anchor="middle" x="537" y="-66.5" font-family="Helvetica,sans-Serif" font-size="10.00">yarpWholeBodyInterface/yarpWholeBodyInterface.h</text>
</g>
<!-- Node4&#45;&gt;Node15 -->
<g id="edge90" class="edge"><title>Node4&#45;&gt;Node15</title>
<path fill="none" stroke="midnightblue" d="M280.97,-232.009C290.724,-217.305 309.665,-191.107 331,-174 383.116,-132.211 454.525,-100.382 498.122,-83.2231"/>
<polygon fill="midnightblue" stroke="midnightblue" points="499.455,-86.46 507.516,-79.5837 496.926,-79.9327 499.455,-86.46"/>
</g>
<!-- Node25 -->
<g id="node54" class="node"><title>Node25</title>
<polygon fill="white" stroke="#bfbfbf" points="216,-0.5 216,-21.5 320,-21.5 320,-0.5 216,-0.5"/>
<text text-anchor="middle" x="268" y="-8.5" font-family="Helvetica,sans-Serif" font-size="10.00">yarp/os/RpcClient.h</text>
</g>
<!-- Node4&#45;&gt;Node25 -->
<g id="edge92" class="edge"><title>Node4&#45;&gt;Node25</title>
<path fill="none" stroke="midnightblue" d="M255.905,-232.386C243.818,-224.167 228.915,-211.57 222,-196 197.107,-139.946 198.834,-114.79 222,-58 226.689,-46.5066 235.691,-36.2985 244.498,-28.3571"/>
<polygon fill="midnightblue" stroke="midnightblue" points="246.988,-30.8367 252.401,-21.7292 242.49,-25.473 246.988,-30.8367"/>
</g>
<!-- Node29 -->
<g id="node63" class="node"><title>Node29</title>
<polygon fill="white" stroke="#bfbfbf" points="337.5,-0.5 337.5,-21.5 444.5,-21.5 444.5,-0.5 337.5,-0.5"/>
<text text-anchor="middle" x="391" y="-8.5" font-family="Helvetica,sans-Serif" font-size="10.00">yarp/os/LogStream.h</text>
</g>
<!-- Node4&#45;&gt;Node29 -->
<g id="edge96" class="edge"><title>Node4&#45;&gt;Node29</title>
<path fill="none" stroke="midnightblue" d="M278.624,-232.146C284.507,-218.47 295.096,-194.301 305,-174 330.586,-121.553 363.365,-61.1036 380.102,-30.6741"/>
<polygon fill="midnightblue" stroke="midnightblue" points="383.364,-32.0071 385.13,-21.5604 377.235,-28.6259 383.364,-32.0071"/>
</g>
<!-- Node35 -->
<g id="node82" class="node"><title>Node35</title>
<polygon fill="white" stroke="#bfbfbf" points="339.5,-174.5 339.5,-195.5 436.5,-195.5 436.5,-174.5 339.5,-174.5"/>
<text text-anchor="middle" x="388" y="-182.5" font-family="Helvetica,sans-Serif" font-size="10.00">yarp/os/Network.h</text>
</g>
<!-- Node4&#45;&gt;Node35 -->
<g id="edge94" class="edge"><title>Node4&#45;&gt;Node35</title>
<path fill="none" stroke="midnightblue" d="M294.645,-232.497C312.37,-223.479 338.145,-210.365 358.123,-200.201"/>
<polygon fill="midnightblue" stroke="midnightblue" points="359.798,-203.275 367.124,-195.621 356.624,-197.036 359.798,-203.275"/>
</g>
<!-- Node6 -->
<g id="node11" class="node"><title>Node6</title>
<polygon fill="white" stroke="#bfbfbf" points="462,-0.5 462,-21.5 514,-21.5 514,-0.5 462,-0.5"/>
<text text-anchor="middle" x="488" y="-8.5" font-family="Helvetica,sans-Serif" font-size="10.00">memory</text>
</g>
<!-- Node5&#45;&gt;Node6 -->
<g id="edge10" class="edge"><title>Node5&#45;&gt;Node6</title>
<path fill="none" stroke="midnightblue" d="M545.02,-174.427C502.457,-160.561 436.44,-131.694 407,-80 393.016,-55.4454 424.663,-35.5995 452.403,-23.6019"/>
<polygon fill="midnightblue" stroke="midnightblue" points="454.038,-26.7145 461.97,-19.6907 451.389,-20.2349 454.038,-26.7145"/>
</g>
<!-- Node5&#45;&gt;Node7 -->
<g id="edge12" class="edge"><title>Node5&#45;&gt;Node7</title>
<path fill="none" stroke="midnightblue" d="M531.663,-174.428C491.679,-165.891 435.396,-152.88 387,-138 274.929,-103.543 146.264,-50.9699 86.2092,-25.6433"/>
<polygon fill="midnightblue" stroke="midnightblue" points="87.4054,-22.3491 76.832,-21.6747 84.677,-28.7955 87.4054,-22.3491"/>
</g>
<!-- Node8 -->
<g id="node15" class="node"><title>Node8</title>
<polygon fill="white" stroke="#bfbfbf" points="532,-0.5 532,-21.5 590,-21.5 590,-0.5 532,-0.5"/>
<text text-anchor="middle" x="561" y="-8.5" font-family="Helvetica,sans-Serif" font-size="10.00">wbi/wbi.h</text>
</g>
<!-- Node5&#45;&gt;Node8 -->
<g id="edge14" class="edge"><title>Node5&#45;&gt;Node8</title>
<path fill="none" stroke="midnightblue" d="M600.18,-174.473C631.543,-152.73 695.151,-101.276 667,-58 659.106,-45.8641 626.62,-32.5283 599.668,-23.1721"/>
<polygon fill="midnightblue" stroke="midnightblue" points="600.639,-19.8058 590.045,-19.9147 598.395,-26.4362 600.639,-19.8058"/>
</g>
<!-- Node5&#45;&gt;Node9 -->
<g id="edge16" class="edge"><title>Node5&#45;&gt;Node9</title>
<path fill="none" stroke="midnightblue" d="M542.173,-174.435C511.401,-166.077 468.865,-153.289 433,-138 365.293,-109.137 354.962,-88.5511 288,-58 260.145,-45.2915 227.766,-33.4279 202.543,-24.7992"/>
<polygon fill="midnightblue" stroke="midnightblue" points="203.498,-21.4275 192.904,-21.5395 201.255,-28.0586 203.498,-21.4275"/>
</g>
<!-- Node5&#45;&gt;Node10 -->
<g id="edge18" class="edge"><title>Node5&#45;&gt;Node10</title>
<path fill="none" stroke="midnightblue" d="M625.651,-174.497C664.04,-164.816 721.145,-150.416 762.407,-140.01"/>
<polygon fill="midnightblue" stroke="midnightblue" points="763.43,-143.362 772.271,-137.523 761.718,-136.575 763.43,-143.362"/>
</g>
<!-- Node5&#45;&gt;Node16 -->
<g id="edge86" class="edge"><title>Node5&#45;&gt;Node16</title>
<path fill="none" stroke="midnightblue" d="M650.081,-175.91C714.663,-166.874 815.72,-152.329 903,-138 1016.25,-119.408 1147.89,-94.9273 1223.03,-80.6801"/>
<polygon fill="midnightblue" stroke="midnightblue" points="1224.08,-84.0437 1233.25,-78.7394 1222.77,-77.1666 1224.08,-84.0437"/>
</g>
<!-- Node10&#45;&gt;Node8 -->
<g id="edge30" class="edge"><title>Node10&#45;&gt;Node8</title>
<path fill="none" stroke="midnightblue" d="M814.33,-116.362C814.183,-101.085 811.488,-73.1114 795,-58 732.002,-0.261035 688.356,-39.3611 600.199,-21.9554"/>
<polygon fill="midnightblue" stroke="midnightblue" points="600.897,-18.5255 590.382,-19.8202 599.409,-25.3656 600.897,-18.5255"/>
</g>
<!-- Node10&#45;&gt;Node9 -->
<g id="edge28" class="edge"><title>Node10&#45;&gt;Node9</title>
<path fill="none" stroke="midnightblue" d="M796.687,-116.325C769.977,-100.457 716.606,-71.1155 667,-58 471.938,-6.42642 411.583,-51.9399 208.232,-21.9676"/>
<polygon fill="midnightblue" stroke="midnightblue" points="208.537,-18.4738 198.125,-20.4335 207.486,-25.3945 208.537,-18.4738"/>
</g>
<!-- Node11 -->
<g id="node21" class="node"><title>Node11</title>
<polygon fill="white" stroke="#bfbfbf" points="608,-0.5 608,-21.5 662,-21.5 662,-0.5 608,-0.5"/>
<text text-anchor="middle" x="635" y="-8.5" font-family="Helvetica,sans-Serif" font-size="10.00">iostream</text>
</g>
<!-- Node10&#45;&gt;Node11 -->
<g id="edge20" class="edge"><title>Node10&#45;&gt;Node11</title>
<path fill="none" stroke="midnightblue" d="M820.883,-116.426C829.493,-101.729 841.557,-75.0174 828,-58 785.31,-4.41327 743.882,-37.3403 671.944,-21.8831"/>
<polygon fill="midnightblue" stroke="midnightblue" points="672.61,-18.4432 662.067,-19.4963 670.965,-25.2474 672.61,-18.4432"/>
</g>
<!-- Node12 -->
<g id="node23" class="node"><title>Node12</title>
<polygon fill="white" stroke="#bfbfbf" points="751.5,-58.5 751.5,-79.5 786.5,-79.5 786.5,-58.5 751.5,-58.5"/>
<text text-anchor="middle" x="769" y="-66.5" font-family="Helvetica,sans-Serif" font-size="10.00">map</text>
</g>
<!-- Node10&#45;&gt;Node12 -->
<g id="edge22" class="edge"><title>Node10&#45;&gt;Node12</title>
<path fill="none" stroke="midnightblue" d="M805.746,-116.362C799.53,-108.35 790.849,-97.1605 783.485,-87.6696"/>
<polygon fill="midnightblue" stroke="midnightblue" points="786.097,-85.326 777.201,-79.5707 780.566,-89.617 786.097,-85.326"/>
</g>
<!-- Node13 -->
<g id="node25" class="node"><title>Node13</title>
<polygon fill="white" stroke="#bfbfbf" points="2342,-0.5 2342,-21.5 2386,-21.5 2386,-0.5 2342,-0.5"/>
<text text-anchor="middle" x="2364" y="-8.5" font-family="Helvetica,sans-Serif" font-size="10.00">vector</text>
</g>
<!-- Node10&#45;&gt;Node13 -->
<g id="edge24" class="edge"><title>Node10&#45;&gt;Node13</title>
<path fill="none" stroke="midnightblue" d="M894.611,-124.318C1164.28,-114.898 2034.13,-80.793 2331.93,-21.6946"/>
<polygon fill="midnightblue" stroke="midnightblue" points="2332.76,-25.0985 2341.86,-19.6712 2331.36,-18.2396 2332.76,-25.0985"/>
</g>
<!-- Node14 -->
<g id="node27" class="node"><title>Node14</title>
<polygon fill="white" stroke="#bfbfbf" points="679.5,-0.5 679.5,-21.5 770.5,-21.5 770.5,-0.5 679.5,-0.5"/>
<text text-anchor="middle" x="725" y="-8.5" font-family="Helvetica,sans-Serif" font-size="10.00">yarp/sig/Vector.h</text>
</g>
<!-- Node10&#45;&gt;Node14 -->
<g id="edge26" class="edge"><title>Node10&#45;&gt;Node14</title>
<path fill="none" stroke="midnightblue" d="M831.994,-116.349C852.426,-102.883 881.086,-78.9301 866,-58 855.598,-43.5681 815.495,-31.0474 780.704,-22.566"/>
<polygon fill="midnightblue" stroke="midnightblue" points="781.127,-19.0696 770.59,-20.1745 779.516,-25.8818 781.127,-19.0696"/>
</g>
<!-- Node10&#45;&gt;Node15 -->
<g id="edge32" class="edge"><title>Node10&#45;&gt;Node15</title>
<path fill="none" stroke="midnightblue" d="M763.837,-116.497C717.017,-106.693 647.081,-92.0496 597.254,-81.6165"/>
<polygon fill="midnightblue" stroke="midnightblue" points="597.762,-78.1468 587.257,-79.5231 596.327,-84.9983 597.762,-78.1468"/>
</g>
<!-- Node10&#45;&gt;Node16 -->
<g id="edge34" class="edge"><title>Node10&#45;&gt;Node16</title>
<path fill="none" stroke="midnightblue" d="M894.529,-117.062C987.828,-105.549 1139.44,-86.8387 1223.34,-76.4862"/>
<polygon fill="midnightblue" stroke="midnightblue" points="1223.97,-79.9341 1233.47,-75.2356 1223.12,-72.9868 1223.97,-79.9341"/>
</g>
<!-- Node16&#45;&gt;Node6 -->
<g id="edge36" class="edge"><title>Node16&#45;&gt;Node6</title>
<path fill="none" stroke="midnightblue" d="M1233.41,-67.4776C1089.53,-62.8999 678.997,-48.0542 524.442,-21.8122"/>
<polygon fill="midnightblue" stroke="midnightblue" points="524.659,-18.2958 514.2,-19.9852 523.43,-25.187 524.659,-18.2958"/>
</g>
<!-- Node16&#45;&gt;Node7 -->
<g id="edge78" class="edge"><title>Node16&#45;&gt;Node7</title>
<path fill="none" stroke="midnightblue" d="M1233.24,-67.8986C1040.75,-63.5782 354.899,-46.8469 114.582,-22.0187"/>
<polygon fill="midnightblue" stroke="midnightblue" points="114.82,-18.5243 104.505,-20.9438 114.078,-25.4848 114.82,-18.5243"/>
</g>
<!-- Node16&#45;&gt;Node8 -->
<g id="edge76" class="edge"><title>Node16&#45;&gt;Node8</title>
<path fill="none" stroke="midnightblue" d="M1233.17,-66.9199C1099.43,-61.2282 739.104,-44.4234 600.309,-21.8599"/>
<polygon fill="midnightblue" stroke="midnightblue" points="600.759,-18.3861 590.312,-20.1552 599.582,-25.2865 600.759,-18.3861"/>
</g>
<!-- Node16&#45;&gt;Node9 -->
<g id="edge66" class="edge"><title>Node16&#45;&gt;Node9</title>
<path fill="none" stroke="midnightblue" d="M1233.21,-68.0391C1050.89,-64.3969 428.951,-50.2633 208.308,-21.9065"/>
<polygon fill="midnightblue" stroke="midnightblue" points="208.483,-18.3989 198.108,-20.5454 207.557,-25.3374 208.483,-18.3989"/>
</g>
<!-- Node16&#45;&gt;Node11 -->
<g id="edge40" class="edge"><title>Node16&#45;&gt;Node11</title>
<path fill="none" stroke="midnightblue" d="M1233.04,-66.5397C1109.59,-60.3531 796.149,-43.2358 672.345,-21.853"/>
<polygon fill="midnightblue" stroke="midnightblue" points="672.826,-18.3833 662.362,-20.0397 671.575,-25.2706 672.826,-18.3833"/>
</g>
<!-- Node16&#45;&gt;Node13 -->
<g id="edge44" class="edge"><title>Node16&#45;&gt;Node13</title>
<path fill="none" stroke="midnightblue" d="M1334.56,-67.6133C1525.25,-62.2664 2196.47,-42.3505 2331.75,-21.4989"/>
<polygon fill="midnightblue" stroke="midnightblue" points="2332.62,-24.9012 2341.87,-19.7384 2331.42,-18.0049 2332.62,-24.9012"/>
</g>
<!-- Node16&#45;&gt;Node14 -->
<g id="edge72" class="edge"><title>Node16&#45;&gt;Node14</title>
<path fill="none" stroke="midnightblue" d="M1233.25,-66.099C1143.73,-60.5845 951.772,-46.9833 780.551,-22.1119"/>
<polygon fill="midnightblue" stroke="midnightblue" points="781.006,-18.6413 770.604,-20.6507 779.989,-25.567 781.006,-18.6413"/>
</g>
<!-- Node17 -->
<g id="node36" class="node"><title>Node17</title>
<polygon fill="white" stroke="#bfbfbf" points="2152,-0.5 2152,-21.5 2196,-21.5 2196,-0.5 2152,-0.5"/>
<text text-anchor="middle" x="2174" y="-8.5" font-family="Helvetica,sans-Serif" font-size="10.00">cmath</text>
</g>
<!-- Node16&#45;&gt;Node17 -->
<g id="edge38" class="edge"><title>Node16&#45;&gt;Node17</title>
<path fill="none" stroke="midnightblue" d="M1334.52,-68.1295C1491.09,-65.1397 1967.65,-53.7722 2141.82,-21.6551"/>
<polygon fill="midnightblue" stroke="midnightblue" points="2142.71,-25.0477 2151.86,-19.711 2141.38,-18.1753 2142.71,-25.0477"/>
</g>
<!-- Node18 -->
<g id="node39" class="node"><title>Node18</title>
<polygon fill="white" stroke="#bfbfbf" points="2213.5,-0.5 2213.5,-21.5 2254.5,-21.5 2254.5,-0.5 2213.5,-0.5"/>
<text text-anchor="middle" x="2234" y="-8.5" font-family="Helvetica,sans-Serif" font-size="10.00">string</text>
</g>
<!-- Node16&#45;&gt;Node18 -->
<g id="edge42" class="edge"><title>Node16&#45;&gt;Node18</title>
<path fill="none" stroke="midnightblue" d="M1334.76,-67.3329C1509.79,-61.4606 2083.63,-41.1446 2203.46,-21.5594"/>
<polygon fill="midnightblue" stroke="midnightblue" points="2204.13,-24.9939 2213.32,-19.7277 2202.85,-18.1114 2204.13,-24.9939"/>
</g>
<!-- Node19 -->
<g id="node42" class="node"><title>Node19</title>
<polygon fill="white" stroke="#bfbfbf" points="2272,-0.5 2272,-21.5 2324,-21.5 2324,-0.5 2272,-0.5"/>
<text text-anchor="middle" x="2298" y="-8.5" font-family="Helvetica,sans-Serif" font-size="10.00">sstream</text>
</g>
<!-- Node16&#45;&gt;Node19 -->
<g id="edge46" class="edge"><title>Node16&#45;&gt;Node19</title>
<path fill="none" stroke="midnightblue" d="M1334.65,-67.3298C1516.76,-61.2238 2133.8,-39.6243 2261.6,-21.6428"/>
<polygon fill="midnightblue" stroke="midnightblue" points="2262.48,-25.0471 2271.81,-20.0251 2261.38,-18.1333 2262.48,-25.0471"/>
</g>
<!-- Node20 -->
<g id="node44" class="node"><title>Node20</title>
<polygon fill="white" stroke="#bfbfbf" points="787.5,-0.5 787.5,-21.5 902.5,-21.5 902.5,-0.5 787.5,-0.5"/>
<text text-anchor="middle" x="845" y="-8.5" font-family="Helvetica,sans-Serif" font-size="10.00">yarp/os/BufferedPort.h</text>
</g>
<!-- Node16&#45;&gt;Node20 -->
<g id="edge48" class="edge"><title>Node16&#45;&gt;Node20</title>
<path fill="none" stroke="midnightblue" d="M1233.23,-63.2523C1163.35,-55.1959 1033.31,-39.6929 912.719,-22.2127"/>
<polygon fill="midnightblue" stroke="midnightblue" points="912.972,-18.7127 902.572,-20.7339 911.962,-25.6395 912.972,-18.7127"/>
</g>
<!-- Node21 -->
<g id="node46" class="node"><title>Node21</title>
<polygon fill="white" stroke="#bfbfbf" points="920,-0.5 920,-21.5 1006,-21.5 1006,-0.5 920,-0.5"/>
<text text-anchor="middle" x="963" y="-8.5" font-family="Helvetica,sans-Serif" font-size="10.00">yarp/os/Bottle.h</text>
</g>
<!-- Node16&#45;&gt;Node21 -->
<g id="edge50" class="edge"><title>Node16&#45;&gt;Node21</title>
<path fill="none" stroke="midnightblue" d="M1233.33,-60.6983C1181.3,-52.0493 1097.72,-37.8154 1016.05,-22.1579"/>
<polygon fill="midnightblue" stroke="midnightblue" points="1016.59,-18.6964 1006.11,-20.2417 1015.26,-25.5701 1016.59,-18.6964"/>
</g>
<!-- Node22 -->
<g id="node48" class="node"><title>Node22</title>
<polygon fill="white" stroke="#bfbfbf" points="1023.5,-0.5 1023.5,-21.5 1134.5,-21.5 1134.5,-0.5 1023.5,-0.5"/>
<text text-anchor="middle" x="1079" y="-8.5" font-family="Helvetica,sans-Serif" font-size="10.00">yarp/os/RateThread.h</text>
</g>
<!-- Node16&#45;&gt;Node22 -->
<g id="edge52" class="edge"><title>Node16&#45;&gt;Node22</title>
<path fill="none" stroke="midnightblue" d="M1246.88,-58.4966C1213.02,-48.9183 1162.84,-34.7196 1126.16,-24.3418"/>
<polygon fill="midnightblue" stroke="midnightblue" points="1126.77,-20.8777 1116.19,-21.5231 1124.86,-27.6133 1126.77,-20.8777"/>
</g>
<!-- Node23 -->
<g id="node50" class="node"><title>Node23</title>
<polygon fill="white" stroke="#bfbfbf" points="1151.5,-0.5 1151.5,-21.5 1280.5,-21.5 1280.5,-0.5 1151.5,-0.5"/>
<text text-anchor="middle" x="1216" y="-8.5" font-family="Helvetica,sans-Serif" font-size="10.00">yarp/os/ResourceFinder.h</text>
</g>
<!-- Node16&#45;&gt;Node23 -->
<g id="edge54" class="edge"><title>Node16&#45;&gt;Node23</title>
<path fill="none" stroke="midnightblue" d="M1271.53,-58.3619C1261.65,-49.9408 1247.67,-38.0105 1236.2,-28.2308"/>
<polygon fill="midnightblue" stroke="midnightblue" points="1238.27,-25.3972 1228.39,-21.5707 1233.73,-30.7231 1238.27,-25.3972"/>
</g>
<!-- Node24 -->
<g id="node52" class="node"><title>Node24</title>
<polygon fill="white" stroke="#bfbfbf" points="1298,-0.5 1298,-21.5 1408,-21.5 1408,-0.5 1298,-0.5"/>
<text text-anchor="middle" x="1353" y="-8.5" font-family="Helvetica,sans-Serif" font-size="10.00">yarp/os/PortReader.h</text>
</g>
<!-- Node16&#45;&gt;Node24 -->
<g id="edge56" class="edge"><title>Node16&#45;&gt;Node24</title>
<path fill="none" stroke="midnightblue" d="M1296.66,-58.3619C1306.67,-49.9408 1320.87,-38.0105 1332.5,-28.2308"/>
<polygon fill="midnightblue" stroke="midnightblue" points="1335.02,-30.6844 1340.42,-21.5707 1330.52,-25.326 1335.02,-30.6844"/>
</g>
<!-- Node16&#45;&gt;Node25 -->
<g id="edge58" class="edge"><title>Node16&#45;&gt;Node25</title>
<path fill="none" stroke="midnightblue" d="M1233.5,-67.3779C1065.61,-61.8527 526.231,-43.0002 330.358,-21.9962"/>
<polygon fill="midnightblue" stroke="midnightblue" points="330.503,-18.4909 320.178,-20.8668 329.731,-25.4482 330.503,-18.4909"/>
</g>
<!-- Node26 -->
<g id="node56" class="node"><title>Node26</title>
<polygon fill="white" stroke="#bfbfbf" points="1425.5,-0.5 1425.5,-21.5 1532.5,-21.5 1532.5,-0.5 1425.5,-0.5"/>
<text text-anchor="middle" x="1479" y="-8.5" font-family="Helvetica,sans-Serif" font-size="10.00">yarp/os/RpcServer.h</text>
</g>
<!-- Node16&#45;&gt;Node26 -->
<g id="edge60" class="edge"><title>Node16&#45;&gt;Node26</title>
<path fill="none" stroke="midnightblue" d="M1319.31,-58.4966C1351.38,-48.9592 1398.85,-34.8408 1433.7,-24.475"/>
<polygon fill="midnightblue" stroke="midnightblue" points="1435.03,-27.7288 1443.62,-21.5231 1433.04,-21.0193 1435.03,-27.7288"/>
</g>
<!-- Node27 -->
<g id="node58" class="node"><title>Node27</title>
<polygon fill="white" stroke="#bfbfbf" points="1549.5,-0.5 1549.5,-21.5 1690.5,-21.5 1690.5,-0.5 1549.5,-0.5"/>
<text text-anchor="middle" x="1620" y="-8.5" font-family="Helvetica,sans-Serif" font-size="10.00">yarp/os/ConnectionReader.h</text>
</g>
<!-- Node16&#45;&gt;Node27 -->
<g id="edge62" class="edge"><title>Node16&#45;&gt;Node27</title>
<path fill="none" stroke="midnightblue" d="M1334.67,-60.254C1391.66,-50.4162 1484.63,-34.3672 1548.88,-23.2762"/>
<polygon fill="midnightblue" stroke="midnightblue" points="1549.68,-26.6906 1558.94,-21.5405 1548.49,-19.7926 1549.68,-26.6906"/>
</g>
<!-- Node16&#45;&gt;Node28 -->
<g id="edge64" class="edge"><title>Node16&#45;&gt;Node28</title>
<path fill="none" stroke="midnightblue" d="M1334.73,-68.2146C1530.47,-65.0007 2237.51,-51.6506 2483.92,-21.8944"/>
<polygon fill="midnightblue" stroke="midnightblue" points="2484.41,-25.3605 2493.9,-20.6476 2483.54,-18.4145 2484.41,-25.3605"/>
</g>
<!-- Node16&#45;&gt;Node29 -->
<g id="edge68" class="edge"><title>Node16&#45;&gt;Node29</title>
<path fill="none" stroke="midnightblue" d="M1233.23,-68.231C1104.58,-65.8319 755.2,-56.5113 454.923,-22.1146"/>
<polygon fill="midnightblue" stroke="midnightblue" points="455.047,-18.6056 444.711,-20.9328 454.242,-25.5592 455.047,-18.6056"/>
</g>
<!-- Node30 -->
<g id="node65" class="node"><title>Node30</title>
<polygon fill="white" stroke="#bfbfbf" points="1707.5,-0.5 1707.5,-21.5 1804.5,-21.5 1804.5,-0.5 1707.5,-0.5"/>
<text text-anchor="middle" x="1756" y="-8.5" font-family="Helvetica,sans-Serif" font-size="10.00">yarp/os/Property.h</text>
</g>
<!-- Node16&#45;&gt;Node30 -->
<g id="edge70" class="edge"><title>Node16&#45;&gt;Node30</title>
<path fill="none" stroke="midnightblue" d="M1334.64,-64.5473C1411.07,-57.5446 1560.66,-42.7439 1697.01,-22.2229"/>
<polygon fill="midnightblue" stroke="midnightblue" points="1697.86,-25.634 1707.23,-20.6715 1696.81,-18.7134 1697.86,-25.634"/>
</g>
<!-- Node31 -->
<g id="node68" class="node"><title>Node31</title>
<polygon fill="white" stroke="#bfbfbf" points="1821.5,-0.5 1821.5,-21.5 1910.5,-21.5 1910.5,-0.5 1821.5,-0.5"/>
<text text-anchor="middle" x="1866" y="-8.5" font-family="Helvetica,sans-Serif" font-size="10.00">yarp/sig/Matrix.h</text>
</g>
<!-- Node16&#45;&gt;Node31 -->
<g id="edge74" class="edge"><title>Node16&#45;&gt;Node31</title>
<path fill="none" stroke="midnightblue" d="M1334.56,-66.4655C1427.26,-61.3926 1630.8,-48.2821 1811.31,-22.1263"/>
<polygon fill="midnightblue" stroke="midnightblue" points="1811.86,-25.5828 1821.25,-20.6693 1810.84,-18.6568 1811.86,-25.5828"/>
</g>
<!-- Node32 -->
<g id="node72" class="node"><title>Node32</title>
<polygon fill="white" stroke="#bfbfbf" points="1927.5,-0.5 1927.5,-21.5 2048.5,-21.5 2048.5,-0.5 1927.5,-0.5"/>
<text text-anchor="middle" x="1988" y="-8.5" font-family="Helvetica,sans-Serif" font-size="10.00">ocra/util/StringUtilities.h</text>
</g>
<!-- Node16&#45;&gt;Node32 -->
<g id="edge80" class="edge"><title>Node16&#45;&gt;Node32</title>
<path fill="none" stroke="midnightblue" d="M1334.76,-66.6971C1440.97,-61.5639 1694.59,-47.6632 1917.22,-22.1326"/>
<polygon fill="midnightblue" stroke="midnightblue" points="1917.93,-25.5738 1927.46,-20.9472 1917.12,-18.6202 1917.93,-25.5738"/>
</g>
<!-- Node33 -->
<g id="node74" class="node"><title>Node33</title>
<polygon fill="white" stroke="#bfbfbf" points="2403.5,-0.5 2403.5,-21.5 2476.5,-21.5 2476.5,-0.5 2403.5,-0.5"/>
<text text-anchor="middle" x="2440" y="-8.5" font-family="Helvetica,sans-Serif" font-size="10.00">Eigen/Dense</text>
</g>
<!-- Node16&#45;&gt;Node33 -->
<g id="edge82" class="edge"><title>Node16&#45;&gt;Node33</title>
<path fill="none" stroke="midnightblue" d="M1334.77,-68.1837C1520.85,-64.9876 2166.12,-52.0591 2393.11,-22.0005"/>
<polygon fill="midnightblue" stroke="midnightblue" points="2393.85,-25.4322 2403.28,-20.6024 2392.89,-18.4975 2393.85,-25.4322"/>
</g>
<!-- Node34 -->
<g id="node76" class="node"><title>Node34</title>
<polygon fill="white" stroke="#bfbfbf" points="2066,-0.5 2066,-21.5 2134,-21.5 2134,-0.5 2066,-0.5"/>
<text text-anchor="middle" x="2100" y="-8.5" font-family="Helvetica,sans-Serif" font-size="10.00">Eigen/Lgsm</text>
</g>
<!-- Node16&#45;&gt;Node34 -->
<g id="edge84" class="edge"><title>Node16&#45;&gt;Node34</title>
<path fill="none" stroke="midnightblue" d="M1334.53,-67.1814C1479.93,-61.7543 1898.44,-44.7205 2055.87,-21.8711"/>
<polygon fill="midnightblue" stroke="midnightblue" points="2056.49,-25.3167 2065.85,-20.3577 2055.44,-18.3957 2056.49,-25.3167"/>
</g>
<!-- Node39&#45;&gt;Node13 -->
<g id="edge120" class="edge"><title>Node39&#45;&gt;Node13</title>
<path fill="none" stroke="midnightblue" d="M2180.42,-116.386C2178.83,-101.393 2178.38,-74.0552 2193,-58 2234.23,-12.7221 2268.23,-38.0945 2332.09,-21.8785"/>
<polygon fill="midnightblue" stroke="midnightblue" points="2333.05,-25.244 2341.73,-19.1708 2331.15,-18.5046 2333.05,-25.244"/>
</g>
<!-- Node39&#45;&gt;Node16 -->
<g id="edge114" class="edge"><title>Node39&#45;&gt;Node16</title>
<path fill="none" stroke="midnightblue" d="M2089.7,-121.039C1906.05,-109.177 1499.29,-82.9053 1344.98,-72.9384"/>
<polygon fill="midnightblue" stroke="midnightblue" points="1344.95,-69.4295 1334.75,-72.2776 1344.5,-76.4149 1344.95,-69.4295"/>
</g>
<!-- Node39&#45;&gt;Node33 -->
<g id="edge118" class="edge"><title>Node39&#45;&gt;Node33</title>
<path fill="none" stroke="midnightblue" d="M2185.68,-116.477C2191.62,-101.081 2204.87,-72.6579 2226,-58 2286.51,-16.0215 2317.54,-37.1931 2393.22,-22.2214"/>
<polygon fill="midnightblue" stroke="midnightblue" points="2394.14,-25.6053 2403.18,-20.0942 2392.67,-18.7596 2394.14,-25.6053"/>
</g>
<!-- Node40 -->
<g id="node98" class="node"><title>Node40</title>
<polygon fill="white" stroke="#bfbfbf" points="2234.5,-58.5 2234.5,-79.5 2351.5,-79.5 2351.5,-58.5 2234.5,-58.5"/>
<text text-anchor="middle" x="2293" y="-66.5" font-family="Helvetica,sans-Serif" font-size="10.00">ocra/util/ErrorsHelper.h</text>
</g>
<!-- Node39&#45;&gt;Node40 -->
<g id="edge116" class="edge"><title>Node39&#45;&gt;Node40</title>
<path fill="none" stroke="midnightblue" d="M2202.1,-116.497C2219.28,-107.519 2244.23,-94.4835 2263.64,-84.3387"/>
<polygon fill="midnightblue" stroke="midnightblue" points="2265.43,-87.3544 2272.67,-79.6212 2262.19,-81.1503 2265.43,-87.3544"/>
</g>
<!-- Node41&#45;&gt;Node13 -->
<g id="edge130" class="edge"><title>Node41&#45;&gt;Node13</title>
<path fill="none" stroke="midnightblue" d="M2365.82,-116.295C2365.49,-97.1314 2364.79,-56.654 2364.36,-31.8434"/>
<polygon fill="midnightblue" stroke="midnightblue" points="2367.86,-31.6173 2364.18,-21.6792 2360.86,-31.7381 2367.86,-31.6173"/>
</g>
<!-- Node41&#45;&gt;Node16 -->
<g id="edge124" class="edge"><title>Node41&#45;&gt;Node16</title>
<path fill="none" stroke="midnightblue" d="M2291.38,-116.807C2288.55,-116.517 2285.75,-116.247 2283,-116 1928.41,-84.2198 1500.98,-73.197 1344.85,-70.0679"/>
<polygon fill="midnightblue" stroke="midnightblue" points="1344.59,-66.5621 1334.52,-69.8645 1344.45,-73.5608 1344.59,-66.5621"/>
</g>
<!-- Node41&#45;&gt;Node33 -->
<g id="edge128" class="edge"><title>Node41&#45;&gt;Node33</title>
<path fill="none" stroke="midnightblue" d="M2372.83,-116.295C2385.33,-96.6998 2412.05,-54.8198 2427.76,-30.1913"/>
<polygon fill="midnightblue" stroke="midnightblue" points="2430.76,-31.9922 2433.19,-21.6792 2424.86,-28.2275 2430.76,-31.9922"/>
</g>
<!-- Node41&#45;&gt;Node40 -->
<g id="edge126" class="edge"><title>Node41&#45;&gt;Node40</title>
<path fill="none" stroke="midnightblue" d="M2352.61,-116.362C2341.91,-107.859 2326.7,-95.7785 2314.33,-85.9466"/>
<polygon fill="midnightblue" stroke="midnightblue" points="2316.31,-83.0511 2306.3,-79.5707 2311.96,-88.5318 2316.31,-83.0511"/>
</g>
</g>
</svg>
