<?xml version="1.0" encoding="UTF-8" standalone="no"?>
<!DOCTYPE svg PUBLIC "-//W3C//DTD SVG 1.1//EN"
 "http://www.w3.org/Graphics/SVG/1.1/DTD/svg11.dtd">
<!-- Generated by graphviz version 2.26.3 (20100126.1600)
 -->
<!-- Title: G Pages: 1 -->
<svg width="3000pt" height="378pt"
 viewBox="0.00 0.00 3000.00 378.00" xmlns="http://www.w3.org/2000/svg" xmlns:xlink="http://www.w3.org/1999/xlink">
<g id="graph1" class="graph" transform="scale(1 1) rotate(0) translate(4 374)">
<title>G</title>
<polygon fill="white" stroke="white" points="-4,5 -4,-374 2997,-374 2997,5 -4,5"/>
<!-- Node1 -->
<g id="node1" class="node"><title>Node1</title>
<polygon fill="#bfbfbf" stroke="black" points="2248,-348.5 2248,-369.5 2640,-369.5 2640,-348.5 2248,-348.5"/>
<text text-anchor="middle" x="2444" y="-356.5" font-family="Helvetica,sans-Serif" font-size="10.00">ocra&#45;wbi&#45;plugins/ocra&#45;icub&#45;clients/walking&#45;client/include/walking&#45;client/WalkingClient.h</text>
</g>
<!-- Node2 -->
<g id="node3" class="node"><title>Node2</title>
<a xlink:href="IcubClient_8h.html" target="_top" xlink:title="ocra&#45;icub/IcubClient.h">
<polygon fill="white" stroke="black" points="1151,-290.5 1151,-311.5 1263,-311.5 1263,-290.5 1151,-290.5"/>
<text text-anchor="middle" x="1207" y="-298.5" font-family="Helvetica,sans-Serif" font-size="10.00">ocra&#45;icub/IcubClient.h</text>
</a>
</g>
<!-- Node1&#45;&gt;Node2 -->
<g id="edge2" class="edge"><title>Node1&#45;&gt;Node2</title>
<path fill="none" stroke="midnightblue" d="M2247.99,-349.81C1964.64,-336.524 1454.68,-312.613 1273.28,-304.107"/>
<polygon fill="midnightblue" stroke="midnightblue" points="1273.24,-300.602 1263.09,-303.63 1272.91,-307.594 1273.24,-300.602"/>
</g>
<!-- Node27 -->
<g id="node58" class="node"><title>Node27</title>
<polygon fill="white" stroke="#bfbfbf" points="2495,-0.5 2495,-21.5 2577,-21.5 2577,-0.5 2495,-0.5"/>
<text text-anchor="middle" x="2536" y="-8.5" font-family="Helvetica,sans-Serif" font-size="10.00">yarp/os/Time.h</text>
</g>
<!-- Node1&#45;&gt;Node27 -->
<g id="edge166" class="edge"><title>Node1&#45;&gt;Node27</title>
<path fill="none" stroke="midnightblue" d="M2456.71,-348.361C2466.87,-339.399 2481.01,-325.855 2491,-312 2526.28,-263.048 2539,-245.341 2539,-185 2539,-185 2539,-185 2539,-127 2539,-93.5866 2537.74,-54.7774 2536.85,-31.5898"/>
<polygon fill="midnightblue" stroke="midnightblue" points="2540.35,-31.4071 2536.46,-21.5537 2533.36,-31.6847 2540.35,-31.4071"/>
</g>
<!-- Node35 -->
<g id="node87" class="node"><title>Node35</title>
<polygon fill="white" stroke="#bfbfbf" points="2356.5,-232.5 2356.5,-253.5 2511.5,-253.5 2511.5,-232.5 2356.5,-232.5"/>
<text text-anchor="middle" x="2434" y="-240.5" font-family="Helvetica,sans-Serif" font-size="10.00">ocra&#45;recipes/TrajectoryThread.h</text>
</g>
<!-- Node1&#45;&gt;Node35 -->
<g id="edge104" class="edge"><title>Node1&#45;&gt;Node35</title>
<path fill="none" stroke="midnightblue" d="M2454.69,-348.442C2466.87,-335.073 2484.1,-311.219 2476,-290 2471.79,-278.959 2463.65,-268.868 2455.66,-260.892"/>
<polygon fill="midnightblue" stroke="midnightblue" points="2457.57,-257.894 2447.86,-253.663 2452.81,-263.028 2457.57,-257.894"/>
</g>
<!-- Node36 -->
<g id="node89" class="node"><title>Node36</title>
<polygon fill="white" stroke="#bfbfbf" points="2563.5,-290.5 2563.5,-311.5 2712.5,-311.5 2712.5,-290.5 2563.5,-290.5"/>
<text text-anchor="middle" x="2638" y="-298.5" font-family="Helvetica,sans-Serif" font-size="10.00">ocra&#45;recipes/ControllerClient.h</text>
</g>
<!-- Node1&#45;&gt;Node36 -->
<g id="edge106" class="edge"><title>Node1&#45;&gt;Node36</title>
<path fill="none" stroke="midnightblue" d="M2479.13,-348.497C2511.03,-338.959 2558.26,-324.841 2592.93,-314.475"/>
<polygon fill="midnightblue" stroke="midnightblue" points="2594.22,-317.741 2602.8,-311.523 2592.22,-311.034 2594.22,-317.741"/>
</g>
<!-- Node37 -->
<g id="node91" class="node"><title>Node37</title>
<polygon fill="white" stroke="#bfbfbf" points="2730,-290.5 2730,-311.5 2850,-311.5 2850,-290.5 2730,-290.5"/>
<text text-anchor="middle" x="2790" y="-298.5" font-family="Helvetica,sans-Serif" font-size="10.00">ocra/util/EigenUtilities.h</text>
</g>
<!-- Node1&#45;&gt;Node37 -->
<g id="edge108" class="edge"><title>Node1&#45;&gt;Node37</title>
<path fill="none" stroke="midnightblue" d="M2506.66,-348.497C2566.7,-338.431 2657.19,-323.264 2719.67,-312.789"/>
<polygon fill="midnightblue" stroke="midnightblue" points="2720.55,-316.191 2729.84,-311.085 2719.39,-309.287 2720.55,-316.191"/>
</g>
<!-- Node38 -->
<g id="node93" class="node"><title>Node38</title>
<a xlink:href="ZmpPreviewController_8h.html" target="_top" xlink:title="walking&#45;client/ZmpPreviewController.h">
<polygon fill="white" stroke="black" points="1503,-116.5 1503,-137.5 1687,-137.5 1687,-116.5 1503,-116.5"/>
<text text-anchor="middle" x="1595" y="-124.5" font-family="Helvetica,sans-Serif" font-size="10.00">walking&#45;client/ZmpPreviewController.h</text>
</a>
</g>
<!-- Node1&#45;&gt;Node38 -->
<g id="edge110" class="edge"><title>Node1&#45;&gt;Node38</title>
<path fill="none" stroke="midnightblue" d="M2405.8,-348.496C2371.9,-339.119 2321.08,-324.912 2277,-312 2107.13,-262.243 2058.33,-266.585 1896,-196 1878.1,-188.218 1876.33,-180.707 1858,-174 1806.65,-155.21 1746.83,-143.759 1697.22,-136.872"/>
<polygon fill="midnightblue" stroke="midnightblue" points="1697.5,-133.378 1687.12,-135.513 1696.57,-140.315 1697.5,-133.378"/>
</g>
<!-- Node40 -->
<g id="node100" class="node"><title>Node40</title>
<a xlink:href="utils_8h.html" target="_top" xlink:title="walking&#45;client/utils.h">
<polygon fill="white" stroke="black" points="2242.5,-58.5 2242.5,-79.5 2347.5,-79.5 2347.5,-58.5 2242.5,-58.5"/>
<text text-anchor="middle" x="2295" y="-66.5" font-family="Helvetica,sans-Serif" font-size="10.00">walking&#45;client/utils.h</text>
</a>
</g>
<!-- Node1&#45;&gt;Node40 -->
<g id="edge128" class="edge"><title>Node1&#45;&gt;Node40</title>
<path fill="none" stroke="midnightblue" d="M2375.84,-348.493C2352.16,-341.685 2327.24,-330.471 2310,-312 2288.29,-288.75 2291,-274.808 2291,-243 2291,-243 2291,-243 2291,-185 2291,-151.578 2292.68,-112.771 2293.86,-89.5866"/>
<polygon fill="midnightblue" stroke="midnightblue" points="2297.36,-89.7229 2294.39,-79.5519 2290.37,-89.3529 2297.36,-89.7229"/>
</g>
<!-- Node41 -->
<g id="node102" class="node"><title>Node41</title>
<a xlink:href="StepController_8h.html" target="_top" xlink:title="walking&#45;client/StepController.h">
<polygon fill="white" stroke="black" points="2318.5,-290.5 2318.5,-311.5 2467.5,-311.5 2467.5,-290.5 2318.5,-290.5"/>
<text text-anchor="middle" x="2393" y="-298.5" font-family="Helvetica,sans-Serif" font-size="10.00">walking&#45;client/StepController.h</text>
</a>
</g>
<!-- Node1&#45;&gt;Node41 -->
<g id="edge122" class="edge"><title>Node1&#45;&gt;Node41</title>
<path fill="none" stroke="midnightblue" d="M2434.65,-348.362C2427.46,-340.186 2417.36,-328.702 2408.91,-319.091"/>
<polygon fill="midnightblue" stroke="midnightblue" points="2411.53,-316.769 2402.29,-311.571 2406.27,-321.392 2411.53,-316.769"/>
</g>
<!-- Node42 -->
<g id="node107" class="node"><title>Node42</title>
<a xlink:href="MIQPController_8h.html" target="_top" xlink:title="A thread for launching trajectory generators.">
<polygon fill="white" stroke="black" points="1663.5,-290.5 1663.5,-311.5 1818.5,-311.5 1818.5,-290.5 1663.5,-290.5"/>
<text text-anchor="middle" x="1741" y="-298.5" font-family="Helvetica,sans-Serif" font-size="10.00">walking&#45;client/MIQPController.h</text>
</a>
</g>
<!-- Node1&#45;&gt;Node42 -->
<g id="edge130" class="edge"><title>Node1&#45;&gt;Node42</title>
<path fill="none" stroke="midnightblue" d="M2316.69,-348.497C2175.64,-336.86 1951.93,-318.403 1829.04,-308.264"/>
<polygon fill="midnightblue" stroke="midnightblue" points="1829.17,-304.763 1818.92,-307.429 1828.6,-311.739 1829.17,-304.763"/>
</g>
<!-- Node50 -->
<g id="node132" class="node"><title>Node50</title>
<polygon fill="white" stroke="#bfbfbf" points="2867.5,-290.5 2867.5,-311.5 2992.5,-311.5 2992.5,-290.5 2867.5,-290.5"/>
<text text-anchor="middle" x="2930" y="-298.5" font-family="Helvetica,sans-Serif" font-size="10.00">ocra/util/FileOperations.h</text>
</g>
<!-- Node1&#45;&gt;Node50 -->
<g id="edge164" class="edge"><title>Node1&#45;&gt;Node50</title>
<path fill="none" stroke="midnightblue" d="M2547.33,-348.485C2628.91,-339.905 2745.9,-326.991 2857.24,-312.201"/>
<polygon fill="midnightblue" stroke="midnightblue" points="2857.85,-315.65 2867.3,-310.856 2856.92,-308.711 2857.85,-315.65"/>
</g>
<!-- Node3 -->
<g id="node5" class="node"><title>Node3</title>
<a xlink:href="ModelInitializer_8h.html" target="_top" xlink:title="ocra&#45;icub/ModelInitializer.h">
<polygon fill="white" stroke="black" points="851.5,-232.5 851.5,-253.5 984.5,-253.5 984.5,-232.5 851.5,-232.5"/>
<text text-anchor="middle" x="918" y="-240.5" font-family="Helvetica,sans-Serif" font-size="10.00">ocra&#45;icub/ModelInitializer.h</text>
</a>
</g>
<!-- Node2&#45;&gt;Node3 -->
<g id="edge4" class="edge"><title>Node2&#45;&gt;Node3</title>
<path fill="none" stroke="midnightblue" d="M1154.66,-290.497C1105.71,-280.673 1032.55,-265.988 980.539,-255.551"/>
<polygon fill="midnightblue" stroke="midnightblue" points="980.927,-252.059 970.434,-253.523 979.55,-258.922 980.927,-252.059"/>
</g>
<!-- Node4 -->
<g id="node7" class="node"><title>Node4</title>
<a xlink:href="OcraWbiModel_8h.html" target="_top" xlink:title="Implementation of ocra::Model using wholeBodyInterface.">
<polygon fill="white" stroke="black" points="1274,-174.5 1274,-195.5 1406,-195.5 1406,-174.5 1274,-174.5"/>
<text text-anchor="middle" x="1340" y="-182.5" font-family="Helvetica,sans-Serif" font-size="10.00">ocra&#45;icub/OcraWbiModel.h</text>
</a>
</g>
<!-- Node2&#45;&gt;Node4 -->
<g id="edge100" class="edge"><title>Node2&#45;&gt;Node4</title>
<path fill="none" stroke="midnightblue" d="M1219.27,-290.295C1242.33,-270.182 1292.31,-226.59 1320.19,-202.275"/>
<polygon fill="midnightblue" stroke="midnightblue" points="1322.52,-204.89 1327.76,-195.679 1317.92,-199.615 1322.52,-204.89"/>
</g>
<!-- Node9 -->
<g id="node17" class="node"><title>Node9</title>
<a xlink:href="OcraWbiConversions_8h.html" target="_top" xlink:title="A utility class full of static conversion functions.">
<polygon fill="white" stroke="black" points="688.5,-116.5 688.5,-137.5 849.5,-137.5 849.5,-116.5 688.5,-116.5"/>
<text text-anchor="middle" x="769" y="-124.5" font-family="Helvetica,sans-Serif" font-size="10.00">ocra&#45;icub/OcraWbiConversions.h</text>
</a>
</g>
<!-- Node2&#45;&gt;Node9 -->
<g id="edge98" class="edge"><title>Node2&#45;&gt;Node9</title>
<path fill="none" stroke="midnightblue" d="M1150.95,-299.716C1061.7,-296.701 892.312,-286.719 843,-254 804.913,-228.729 783.897,-176.649 774.709,-147.646"/>
<polygon fill="midnightblue" stroke="midnightblue" points="777.972,-146.343 771.755,-137.764 771.265,-148.348 777.972,-146.343"/>
</g>
<!-- Node15 -->
<g id="node31" class="node"><title>Node15</title>
<a xlink:href="Utilities_8h.html" target="_top" xlink:title="Some useful tools for the ocra&#45;icub lib.">
<polygon fill="white" stroke="black" points="1156.5,-58.5 1156.5,-79.5 1257.5,-79.5 1257.5,-58.5 1156.5,-58.5"/>
<text text-anchor="middle" x="1207" y="-66.5" font-family="Helvetica,sans-Serif" font-size="10.00">ocra&#45;icub/Utilities.h</text>
</a>
</g>
<!-- Node2&#45;&gt;Node15 -->
<g id="edge102" class="edge"><title>Node2&#45;&gt;Node15</title>
<path fill="none" stroke="midnightblue" d="M1207,-290.429C1207,-254.648 1207,-137.663 1207,-89.7481"/>
<polygon fill="midnightblue" stroke="midnightblue" points="1210.5,-89.6335 1207,-79.6335 1203.5,-89.6335 1210.5,-89.6335"/>
</g>
<!-- Node3&#45;&gt;Node4 -->
<g id="edge6" class="edge"><title>Node3&#45;&gt;Node4</title>
<path fill="none" stroke="midnightblue" d="M984.523,-233.859C1053.44,-224.39 1164.26,-209.161 1260,-196 1261.11,-195.847 1262.23,-195.693 1263.36,-195.538"/>
<polygon fill="midnightblue" stroke="midnightblue" points="1264.22,-198.953 1273.65,-194.124 1263.26,-192.019 1264.22,-198.953"/>
</g>
<!-- Node6 -->
<g id="node11" class="node"><title>Node6</title>
<polygon fill="white" stroke="#bfbfbf" points="1997.5,-0.5 1997.5,-21.5 2102.5,-21.5 2102.5,-0.5 1997.5,-0.5"/>
<text text-anchor="middle" x="2050" y="-8.5" font-family="Helvetica,sans-Serif" font-size="10.00">ocra/control/Model.h</text>
</g>
<!-- Node3&#45;&gt;Node6 -->
<g id="edge86" class="edge"><title>Node3&#45;&gt;Node6</title>
<path fill="none" stroke="midnightblue" d="M938.759,-232.286C1004.05,-199.184 1211.91,-98.3517 1397,-58 1651.28,-2.56415 1725.41,-52.1515 1987.29,-22.0746"/>
<polygon fill="midnightblue" stroke="midnightblue" points="1987.96,-25.5195 1997.49,-20.8744 1987.15,-18.5675 1987.96,-25.5195"/>
</g>
<!-- Node8 -->
<g id="node15" class="node"><title>Node8</title>
<polygon fill="white" stroke="#bfbfbf" points="122,-0.5 122,-21.5 198,-21.5 198,-0.5 122,-0.5"/>
<text text-anchor="middle" x="160" y="-8.5" font-family="Helvetica,sans-Serif" font-size="10.00">yarp/os/Log.h</text>
</g>
<!-- Node3&#45;&gt;Node8 -->
<g id="edge96" class="edge"><title>Node3&#45;&gt;Node8</title>
<path fill="none" stroke="midnightblue" d="M868.658,-232.465C764.576,-209.639 515.545,-151.841 314,-80 269.925,-64.2892 220.903,-41.3248 190.263,-26.2728"/>
<polygon fill="midnightblue" stroke="midnightblue" points="191.505,-22.9824 180.99,-21.683 188.4,-29.2559 191.505,-22.9824"/>
</g>
<!-- Node14 -->
<g id="node29" class="node"><title>Node14</title>
<polygon fill="white" stroke="#bfbfbf" points="406,-58.5 406,-79.5 648,-79.5 648,-58.5 406,-58.5"/>
<text text-anchor="middle" x="527" y="-66.5" font-family="Helvetica,sans-Serif" font-size="10.00">yarpWholeBodyInterface/yarpWholeBodyInterface.h</text>
</g>
<!-- Node3&#45;&gt;Node14 -->
<g id="edge88" class="edge"><title>Node3&#45;&gt;Node14</title>
<path fill="none" stroke="midnightblue" d="M893.986,-232.483C851.017,-213.647 758.158,-172.864 680,-138 638.458,-119.47 590.688,-97.8814 559.733,-83.855"/>
<polygon fill="midnightblue" stroke="midnightblue" points="560.855,-80.521 550.302,-79.5801 557.965,-86.8966 560.855,-80.521"/>
</g>
<!-- Node24 -->
<g id="node52" class="node"><title>Node24</title>
<polygon fill="white" stroke="#bfbfbf" points="0,-0.5 0,-21.5 104,-21.5 104,-0.5 0,-0.5"/>
<text text-anchor="middle" x="52" y="-8.5" font-family="Helvetica,sans-Serif" font-size="10.00">yarp/os/RpcClient.h</text>
</g>
<!-- Node3&#45;&gt;Node24 -->
<g id="edge90" class="edge"><title>Node3&#45;&gt;Node24</title>
<path fill="none" stroke="midnightblue" d="M851.332,-234.543C792.267,-226.494 703.882,-213.085 628,-196 458.631,-157.865 419.49,-135.528 255,-80 198.634,-60.972 133.526,-38.8093 92.5612,-24.8422"/>
<polygon fill="midnightblue" stroke="midnightblue" points="93.5335,-21.4759 82.939,-21.5609 91.2741,-28.1013 93.5335,-21.4759"/>
</g>
<!-- Node28 -->
<g id="node61" class="node"><title>Node28</title>
<polygon fill="white" stroke="#bfbfbf" points="457.5,-0.5 457.5,-21.5 564.5,-21.5 564.5,-0.5 457.5,-0.5"/>
<text text-anchor="middle" x="511" y="-8.5" font-family="Helvetica,sans-Serif" font-size="10.00">yarp/os/LogStream.h</text>
</g>
<!-- Node3&#45;&gt;Node28 -->
<g id="edge94" class="edge"><title>Node3&#45;&gt;Node28</title>
<path fill="none" stroke="midnightblue" d="M913.564,-232.362C897.468,-193.861 842.678,-63.7503 835,-58 790.257,-24.4912 646.116,-30.4221 575.085,-22.0739"/>
<polygon fill="midnightblue" stroke="midnightblue" points="575.127,-18.5476 564.747,-20.6681 574.184,-25.4837 575.127,-18.5476"/>
</g>
<!-- Node34 -->
<g id="node80" class="node"><title>Node34</title>
<polygon fill="white" stroke="#bfbfbf" points="907.5,-174.5 907.5,-195.5 1004.5,-195.5 1004.5,-174.5 907.5,-174.5"/>
<text text-anchor="middle" x="956" y="-182.5" font-family="Helvetica,sans-Serif" font-size="10.00">yarp/os/Network.h</text>
</g>
<!-- Node3&#45;&gt;Node34 -->
<g id="edge92" class="edge"><title>Node3&#45;&gt;Node34</title>
<path fill="none" stroke="midnightblue" d="M924.97,-232.362C930.166,-224.431 937.401,-213.389 943.578,-203.961"/>
<polygon fill="midnightblue" stroke="midnightblue" points="946.522,-205.853 949.074,-195.571 940.666,-202.017 946.522,-205.853"/>
</g>
<!-- Node5 -->
<g id="node9" class="node"><title>Node5</title>
<polygon fill="white" stroke="#bfbfbf" points="2120,-0.5 2120,-21.5 2172,-21.5 2172,-0.5 2120,-0.5"/>
<text text-anchor="middle" x="2146" y="-8.5" font-family="Helvetica,sans-Serif" font-size="10.00">memory</text>
</g>
<!-- Node4&#45;&gt;Node5 -->
<g id="edge8" class="edge"><title>Node4&#45;&gt;Node5</title>
<path fill="none" stroke="midnightblue" d="M1349.96,-174.334C1378.27,-144.062 1457.37,-59.6752 1461,-58 1589.53,1.32733 1952.61,-45.7686 2109.76,-21.6942"/>
<polygon fill="midnightblue" stroke="midnightblue" points="2110.52,-25.1144 2119.8,-20.0037 2109.36,-18.2114 2110.52,-25.1144"/>
</g>
<!-- Node4&#45;&gt;Node6 -->
<g id="edge10" class="edge"><title>Node4&#45;&gt;Node6</title>
<path fill="none" stroke="midnightblue" d="M1345.37,-174.332C1359.72,-146.291 1399.45,-71.7281 1423,-58 1475.32,-27.5066 1891.97,-29.3969 1987.48,-21.8367"/>
<polygon fill="midnightblue" stroke="midnightblue" points="1987.87,-25.315 1997.49,-20.8651 1987.19,-18.3477 1987.87,-25.315"/>
</g>
<!-- Node7 -->
<g id="node13" class="node"><title>Node7</title>
<polygon fill="white" stroke="#bfbfbf" points="1922,-0.5 1922,-21.5 1980,-21.5 1980,-0.5 1922,-0.5"/>
<text text-anchor="middle" x="1951" y="-8.5" font-family="Helvetica,sans-Serif" font-size="10.00">wbi/wbi.h</text>
</g>
<!-- Node4&#45;&gt;Node7 -->
<g id="edge12" class="edge"><title>Node4&#45;&gt;Node7</title>
<path fill="none" stroke="midnightblue" d="M1340.14,-174.244C1341.1,-149.123 1347.36,-86.5648 1385,-58 1429.92,-23.9101 1821.01,-31.5075 1911.74,-21.5369"/>
<polygon fill="midnightblue" stroke="midnightblue" points="1912.26,-24.9984 1921.69,-20.1565 1911.3,-18.0649 1912.26,-24.9984"/>
</g>
<!-- Node4&#45;&gt;Node8 -->
<g id="edge14" class="edge"><title>Node4&#45;&gt;Node8</title>
<path fill="none" stroke="midnightblue" d="M1273.66,-183.151C1154.37,-179.187 895.941,-167.687 680,-138 552.804,-120.514 521.628,-110.859 397,-80 328.455,-63.0276 249.959,-39.3171 202.722,-24.5744"/>
<polygon fill="midnightblue" stroke="midnightblue" points="203.72,-21.2195 193.131,-21.5703 201.627,-27.8995 203.72,-21.2195"/>
</g>
<!-- Node4&#45;&gt;Node9 -->
<g id="edge16" class="edge"><title>Node4&#45;&gt;Node9</title>
<path fill="none" stroke="midnightblue" d="M1273.94,-178.29C1171.78,-167.913 975.228,-147.948 859.79,-136.222"/>
<polygon fill="midnightblue" stroke="midnightblue" points="859.867,-132.712 849.565,-135.183 859.16,-139.676 859.867,-132.712"/>
</g>
<!-- Node4&#45;&gt;Node15 -->
<g id="edge84" class="edge"><title>Node4&#45;&gt;Node15</title>
<path fill="none" stroke="midnightblue" d="M1327.73,-174.295C1304.67,-154.182 1254.69,-110.59 1226.81,-86.2752"/>
<polygon fill="midnightblue" stroke="midnightblue" points="1229.08,-83.6145 1219.24,-79.6792 1224.48,-88.89 1229.08,-83.6145"/>
</g>
<!-- Node9&#45;&gt;Node7 -->
<g id="edge28" class="edge"><title>Node9&#45;&gt;Node7</title>
<path fill="none" stroke="midnightblue" d="M849.604,-123.074C969.819,-116.593 1190.07,-102.129 1266,-80 1286.61,-73.9933 1288.29,-63.6477 1309,-58 1565.28,11.8856 1646.02,-65.7286 1911.75,-21.8643"/>
<polygon fill="midnightblue" stroke="midnightblue" points="1912.42,-25.3022 1921.69,-20.1819 1911.25,-18.4004 1912.42,-25.3022"/>
</g>
<!-- Node9&#45;&gt;Node8 -->
<g id="edge26" class="edge"><title>Node9&#45;&gt;Node8</title>
<path fill="none" stroke="midnightblue" d="M752.008,-116.242C721.977,-97.2697 662.183,-59.6945 657,-58 469.368,3.3457 407.239,-51.1329 208.025,-21.9308"/>
<polygon fill="midnightblue" stroke="midnightblue" points="208.538,-18.4687 198.125,-20.4279 207.487,-25.3894 208.538,-18.4687"/>
</g>
<!-- Node10 -->
<g id="node19" class="node"><title>Node10</title>
<polygon fill="white" stroke="#bfbfbf" points="324,-0.5 324,-21.5 378,-21.5 378,-0.5 324,-0.5"/>
<text text-anchor="middle" x="351" y="-8.5" font-family="Helvetica,sans-Serif" font-size="10.00">iostream</text>
</g>
<!-- Node9&#45;&gt;Node10 -->
<g id="edge18" class="edge"><title>Node9&#45;&gt;Node10</title>
<path fill="none" stroke="midnightblue" d="M775.359,-116.381C783.427,-101.383 794.637,-74.0388 780,-58 752,-27.3184 463.012,-30.0442 388.703,-21.5307"/>
<polygon fill="midnightblue" stroke="midnightblue" points="388.776,-18.0033 378.37,-19.9966 387.748,-24.9274 388.776,-18.0033"/>
</g>
<!-- Node11 -->
<g id="node21" class="node"><title>Node11</title>
<polygon fill="white" stroke="#bfbfbf" points="703.5,-58.5 703.5,-79.5 738.5,-79.5 738.5,-58.5 703.5,-58.5"/>
<text text-anchor="middle" x="721" y="-66.5" font-family="Helvetica,sans-Serif" font-size="10.00">map</text>
</g>
<!-- Node9&#45;&gt;Node11 -->
<g id="edge20" class="edge"><title>Node9&#45;&gt;Node11</title>
<path fill="none" stroke="midnightblue" d="M760.196,-116.362C753.498,-108.268 744.116,-96.9318 736.211,-87.3796"/>
<polygon fill="midnightblue" stroke="midnightblue" points="738.82,-85.0431 729.748,-79.5707 733.427,-89.5061 738.82,-85.0431"/>
</g>
<!-- Node12 -->
<g id="node23" class="node"><title>Node12</title>
<polygon fill="white" stroke="#bfbfbf" points="396,-0.5 396,-21.5 440,-21.5 440,-0.5 396,-0.5"/>
<text text-anchor="middle" x="418" y="-8.5" font-family="Helvetica,sans-Serif" font-size="10.00">vector</text>
</g>
<!-- Node9&#45;&gt;Node12 -->
<g id="edge22" class="edge"><title>Node9&#45;&gt;Node12</title>
<path fill="none" stroke="midnightblue" d="M785.801,-116.367C806.035,-102.295 835.276,-77.0432 818,-58 764.589,0.87569 545.598,-37.0187 450.094,-21.5086"/>
<polygon fill="midnightblue" stroke="midnightblue" points="450.642,-18.0498 440.161,-19.5931 449.317,-24.9232 450.642,-18.0498"/>
</g>
<!-- Node13 -->
<g id="node25" class="node"><title>Node13</title>
<polygon fill="white" stroke="#bfbfbf" points="215.5,-0.5 215.5,-21.5 306.5,-21.5 306.5,-0.5 215.5,-0.5"/>
<text text-anchor="middle" x="261" y="-8.5" font-family="Helvetica,sans-Serif" font-size="10.00">yarp/sig/Vector.h</text>
</g>
<!-- Node9&#45;&gt;Node13 -->
<g id="edge24" class="edge"><title>Node9&#45;&gt;Node13</title>
<path fill="none" stroke="midnightblue" d="M769.025,-116.354C768.428,-100.801 764.801,-72.1793 747,-58 674.005,0.14503 426.511,-33.3796 316.778,-21.9345"/>
<polygon fill="midnightblue" stroke="midnightblue" points="316.952,-18.4296 306.599,-20.682 316.097,-25.3772 316.952,-18.4296"/>
</g>
<!-- Node9&#45;&gt;Node14 -->
<g id="edge30" class="edge"><title>Node9&#45;&gt;Node14</title>
<path fill="none" stroke="midnightblue" d="M725.176,-116.497C684.613,-106.775 624.191,-92.2938 580.735,-81.8787"/>
<polygon fill="midnightblue" stroke="midnightblue" points="581.447,-78.4502 570.907,-79.5231 579.815,-85.2574 581.447,-78.4502"/>
</g>
<!-- Node9&#45;&gt;Node15 -->
<g id="edge32" class="edge"><title>Node9&#45;&gt;Node15</title>
<path fill="none" stroke="midnightblue" d="M848.318,-116.497C933.961,-105.156 1068.52,-87.338 1146.18,-77.0539"/>
<polygon fill="midnightblue" stroke="midnightblue" points="1146.83,-80.4981 1156.29,-75.7155 1145.91,-73.5587 1146.83,-80.4981"/>
</g>
<!-- Node15&#45;&gt;Node5 -->
<g id="edge34" class="edge"><title>Node15&#45;&gt;Node5</title>
<path fill="none" stroke="midnightblue" d="M1257.54,-66.4148C1435.11,-57.326 2023.99,-27.1425 2109.61,-20.9319"/>
<polygon fill="midnightblue" stroke="midnightblue" points="2110.16,-24.3971 2119.81,-20.0135 2109.53,-17.4254 2110.16,-24.3971"/>
</g>
<!-- Node15&#45;&gt;Node6 -->
<g id="edge76" class="edge"><title>Node15&#45;&gt;Node6</title>
<path fill="none" stroke="midnightblue" d="M1257.52,-64.7556C1284.14,-62.5896 1317.32,-59.9977 1347,-58 1628.79,-39.0311 1703.44,-55.0363 1987.3,-22.0833"/>
<polygon fill="midnightblue" stroke="midnightblue" points="1987.96,-25.5298 1997.49,-20.8903 1987.15,-18.5774 1987.96,-25.5298"/>
</g>
<!-- Node15&#45;&gt;Node7 -->
<g id="edge74" class="edge"><title>Node15&#45;&gt;Node7</title>
<path fill="none" stroke="midnightblue" d="M1257.58,-59.7579C1262.11,-59.0967 1266.63,-58.4963 1271,-58 1551.63,-26.121 1629.47,-69.01 1911.57,-21.9063"/>
<polygon fill="midnightblue" stroke="midnightblue" points="1912.42,-25.3128 1921.69,-20.1924 1911.25,-18.411 1912.42,-25.3128"/>
</g>
<!-- Node15&#45;&gt;Node8 -->
<g id="edge64" class="edge"><title>Node15&#45;&gt;Node8</title>
<path fill="none" stroke="midnightblue" d="M1156.23,-67.8427C982.648,-63.6968 412.698,-48.4792 208.153,-21.8908"/>
<polygon fill="midnightblue" stroke="midnightblue" points="208.488,-18.4044 198.11,-20.5345 207.551,-25.3414 208.488,-18.4044"/>
</g>
<!-- Node15&#45;&gt;Node10 -->
<g id="edge38" class="edge"><title>Node15&#45;&gt;Node10</title>
<path fill="none" stroke="midnightblue" d="M1156.39,-67.6844C1004.77,-63.4982 554.934,-49.2324 388.432,-21.834"/>
<polygon fill="midnightblue" stroke="midnightblue" points="388.801,-18.346 378.351,-20.0958 387.611,-25.2442 388.801,-18.346"/>
</g>
<!-- Node15&#45;&gt;Node12 -->
<g id="edge42" class="edge"><title>Node15&#45;&gt;Node12</title>
<path fill="none" stroke="midnightblue" d="M1156.35,-65.6506C1122.78,-63.4438 1077.76,-60.5091 1038,-58 779.577,-41.6924 707.801,-73.5374 450.17,-21.7334"/>
<polygon fill="midnightblue" stroke="midnightblue" points="450.636,-18.2566 440.139,-19.6933 449.241,-25.1162 450.636,-18.2566"/>
</g>
<!-- Node15&#45;&gt;Node13 -->
<g id="edge70" class="edge"><title>Node15&#45;&gt;Node13</title>
<path fill="none" stroke="midnightblue" d="M1156.43,-67.3241C995.964,-61.8537 498.621,-43.6871 316.569,-22.0138"/>
<polygon fill="midnightblue" stroke="midnightblue" points="316.94,-18.5331 306.586,-20.7809 316.081,-25.4803 316.94,-18.5331"/>
</g>
<!-- Node16 -->
<g id="node34" class="node"><title>Node16</title>
<polygon fill="white" stroke="#bfbfbf" points="582,-0.5 582,-21.5 626,-21.5 626,-0.5 582,-0.5"/>
<text text-anchor="middle" x="604" y="-8.5" font-family="Helvetica,sans-Serif" font-size="10.00">cmath</text>
</g>
<!-- Node15&#45;&gt;Node16 -->
<g id="edge36" class="edge"><title>Node15&#45;&gt;Node16</title>
<path fill="none" stroke="midnightblue" d="M1156.28,-65.5867C1031.92,-57.1157 716.7,-34.9934 636.265,-21.5527"/>
<polygon fill="midnightblue" stroke="midnightblue" points="636.628,-18.0594 626.151,-19.6353 635.324,-24.9369 636.628,-18.0594"/>
</g>
<!-- Node17 -->
<g id="node37" class="node"><title>Node17</title>
<polygon fill="white" stroke="#bfbfbf" points="643.5,-0.5 643.5,-21.5 684.5,-21.5 684.5,-0.5 643.5,-0.5"/>
<text text-anchor="middle" x="664" y="-8.5" font-family="Helvetica,sans-Serif" font-size="10.00">string</text>
</g>
<!-- Node15&#45;&gt;Node17 -->
<g id="edge40" class="edge"><title>Node15&#45;&gt;Node17</title>
<path fill="none" stroke="midnightblue" d="M1156.17,-65.1402C1041.42,-56.3189 767.166,-34.6018 694.564,-21.627"/>
<polygon fill="midnightblue" stroke="midnightblue" points="695.196,-18.1838 684.699,-19.623 693.802,-25.0437 695.196,-18.1838"/>
</g>
<!-- Node18 -->
<g id="node40" class="node"><title>Node18</title>
<polygon fill="white" stroke="#bfbfbf" points="702,-0.5 702,-21.5 754,-21.5 754,-0.5 702,-0.5"/>
<text text-anchor="middle" x="728" y="-8.5" font-family="Helvetica,sans-Serif" font-size="10.00">sstream</text>
</g>
<!-- Node15&#45;&gt;Node18 -->
<g id="edge44" class="edge"><title>Node15&#45;&gt;Node18</title>
<path fill="none" stroke="midnightblue" d="M1156.37,-64.9182C1060.25,-56.9657 853.624,-38.8538 764.273,-21.8696"/>
<polygon fill="midnightblue" stroke="midnightblue" points="764.717,-18.3893 754.225,-19.8582 763.343,-25.2531 764.717,-18.3893"/>
</g>
<!-- Node19 -->
<g id="node42" class="node"><title>Node19</title>
<polygon fill="white" stroke="#bfbfbf" points="771.5,-0.5 771.5,-21.5 886.5,-21.5 886.5,-0.5 771.5,-0.5"/>
<text text-anchor="middle" x="829" y="-8.5" font-family="Helvetica,sans-Serif" font-size="10.00">yarp/os/BufferedPort.h</text>
</g>
<!-- Node15&#45;&gt;Node19 -->
<g id="edge46" class="edge"><title>Node15&#45;&gt;Node19</title>
<path fill="none" stroke="midnightblue" d="M1156.44,-61.6311C1096.75,-52.8768 994.201,-37.6648 896.619,-22.2414"/>
<polygon fill="midnightblue" stroke="midnightblue" points="897.009,-18.7596 886.584,-20.6518 895.913,-25.6734 897.009,-18.7596"/>
</g>
<!-- Node20 -->
<g id="node44" class="node"><title>Node20</title>
<polygon fill="white" stroke="#bfbfbf" points="904,-0.5 904,-21.5 990,-21.5 990,-0.5 904,-0.5"/>
<text text-anchor="middle" x="947" y="-8.5" font-family="Helvetica,sans-Serif" font-size="10.00">yarp/os/Bottle.h</text>
</g>
<!-- Node15&#45;&gt;Node20 -->
<g id="edge48" class="edge"><title>Node15&#45;&gt;Node20</title>
<path fill="none" stroke="midnightblue" d="M1159.92,-58.4966C1114.93,-48.4604 1047.2,-33.3514 1000.26,-22.8805"/>
<polygon fill="midnightblue" stroke="midnightblue" points="1000.8,-19.4156 990.278,-20.6543 999.276,-26.2477 1000.8,-19.4156"/>
</g>
<!-- Node21 -->
<g id="node46" class="node"><title>Node21</title>
<polygon fill="white" stroke="#bfbfbf" points="2189.5,-0.5 2189.5,-21.5 2300.5,-21.5 2300.5,-0.5 2189.5,-0.5"/>
<text text-anchor="middle" x="2245" y="-8.5" font-family="Helvetica,sans-Serif" font-size="10.00">yarp/os/RateThread.h</text>
</g>
<!-- Node15&#45;&gt;Node21 -->
<g id="edge50" class="edge"><title>Node15&#45;&gt;Node21</title>
<path fill="none" stroke="midnightblue" d="M1257.61,-66.7298C1442.88,-58.3973 2078.24,-29.6272 2179.11,-21.8936"/>
<polygon fill="midnightblue" stroke="midnightblue" points="2179.56,-25.3678 2189.21,-21.0014 2178.94,-18.395 2179.56,-25.3678"/>
</g>
<!-- Node22 -->
<g id="node48" class="node"><title>Node22</title>
<polygon fill="white" stroke="#bfbfbf" points="1007.5,-0.5 1007.5,-21.5 1136.5,-21.5 1136.5,-0.5 1007.5,-0.5"/>
<text text-anchor="middle" x="1072" y="-8.5" font-family="Helvetica,sans-Serif" font-size="10.00">yarp/os/ResourceFinder.h</text>
</g>
<!-- Node15&#45;&gt;Node22 -->
<g id="edge52" class="edge"><title>Node15&#45;&gt;Node22</title>
<path fill="none" stroke="midnightblue" d="M1182.55,-58.4966C1161.18,-49.3154 1129.93,-35.8889 1106.1,-25.6516"/>
<polygon fill="midnightblue" stroke="midnightblue" points="1107.29,-22.3529 1096.72,-21.6212 1104.53,-28.7845 1107.29,-22.3529"/>
</g>
<!-- Node23 -->
<g id="node50" class="node"><title>Node23</title>
<polygon fill="white" stroke="#bfbfbf" points="1154,-0.5 1154,-21.5 1264,-21.5 1264,-0.5 1154,-0.5"/>
<text text-anchor="middle" x="1209" y="-8.5" font-family="Helvetica,sans-Serif" font-size="10.00">yarp/os/PortReader.h</text>
</g>
<!-- Node15&#45;&gt;Node23 -->
<g id="edge54" class="edge"><title>Node15&#45;&gt;Node23</title>
<path fill="none" stroke="midnightblue" d="M1207.37,-58.3619C1207.62,-50.9219 1207.97,-40.7427 1208.29,-31.7276"/>
<polygon fill="midnightblue" stroke="midnightblue" points="1211.79,-31.6854 1208.64,-21.5707 1204.79,-31.4441 1211.79,-31.6854"/>
</g>
<!-- Node15&#45;&gt;Node24 -->
<g id="edge56" class="edge"><title>Node15&#45;&gt;Node24</title>
<path fill="none" stroke="midnightblue" d="M1156.42,-67.7383C972.523,-63.0114 338.885,-45.468 114.24,-21.9758"/>
<polygon fill="midnightblue" stroke="midnightblue" points="114.493,-18.4828 104.175,-20.8884 113.742,-25.4423 114.493,-18.4828"/>
</g>
<!-- Node25 -->
<g id="node54" class="node"><title>Node25</title>
<polygon fill="white" stroke="#bfbfbf" points="1281.5,-0.5 1281.5,-21.5 1388.5,-21.5 1388.5,-0.5 1281.5,-0.5"/>
<text text-anchor="middle" x="1335" y="-8.5" font-family="Helvetica,sans-Serif" font-size="10.00">yarp/os/RpcServer.h</text>
</g>
<!-- Node15&#45;&gt;Node25 -->
<g id="edge58" class="edge"><title>Node15&#45;&gt;Node25</title>
<path fill="none" stroke="midnightblue" d="M1230.18,-58.4966C1250.35,-49.3562 1279.81,-36.0082 1302.36,-25.7883"/>
<polygon fill="midnightblue" stroke="midnightblue" points="1303.9,-28.9366 1311.56,-21.6212 1301.01,-22.5606 1303.9,-28.9366"/>
</g>
<!-- Node26 -->
<g id="node56" class="node"><title>Node26</title>
<polygon fill="white" stroke="#bfbfbf" points="1405.5,-0.5 1405.5,-21.5 1546.5,-21.5 1546.5,-0.5 1405.5,-0.5"/>
<text text-anchor="middle" x="1476" y="-8.5" font-family="Helvetica,sans-Serif" font-size="10.00">yarp/os/ConnectionReader.h</text>
</g>
<!-- Node15&#45;&gt;Node26 -->
<g id="edge60" class="edge"><title>Node15&#45;&gt;Node26</title>
<path fill="none" stroke="midnightblue" d="M1255.71,-58.4966C1301.09,-48.7136 1368.81,-34.1107 1417.18,-23.6819"/>
<polygon fill="midnightblue" stroke="midnightblue" points="1418.16,-27.0522 1427.19,-21.5231 1416.68,-20.2095 1418.16,-27.0522"/>
</g>
<!-- Node15&#45;&gt;Node27 -->
<g id="edge62" class="edge"><title>Node15&#45;&gt;Node27</title>
<path fill="none" stroke="midnightblue" d="M1257.61,-67.6653C1479.64,-61.7384 2361.91,-37.417 2485,-22 2485.1,-21.9873 2485.2,-21.9746 2485.3,-21.9617"/>
<polygon fill="midnightblue" stroke="midnightblue" points="2485.55,-25.465 2494.91,-20.5108 2484.5,-18.5435 2485.55,-25.465"/>
</g>
<!-- Node15&#45;&gt;Node28 -->
<g id="edge66" class="edge"><title>Node15&#45;&gt;Node28</title>
<path fill="none" stroke="midnightblue" d="M1156.27,-65.5377C1022.14,-56.3429 662.899,-31.4415 574.887,-22.044"/>
<polygon fill="midnightblue" stroke="midnightblue" points="575.052,-18.54 564.718,-20.8748 574.253,-25.4942 575.052,-18.54"/>
</g>
<!-- Node29 -->
<g id="node63" class="node"><title>Node29</title>
<polygon fill="white" stroke="#bfbfbf" points="1563.5,-0.5 1563.5,-21.5 1660.5,-21.5 1660.5,-0.5 1563.5,-0.5"/>
<text text-anchor="middle" x="1612" y="-8.5" font-family="Helvetica,sans-Serif" font-size="10.00">yarp/os/Property.h</text>
</g>
<!-- Node15&#45;&gt;Node29 -->
<g id="edge68" class="edge"><title>Node15&#45;&gt;Node29</title>
<path fill="none" stroke="midnightblue" d="M1257.62,-60.0871C1262.14,-59.3556 1266.65,-58.649 1271,-58 1393.64,-39.6963 1427.65,-41.9343 1553.22,-22.2152"/>
<polygon fill="midnightblue" stroke="midnightblue" points="1553.89,-25.6519 1563.22,-20.6286 1552.79,-18.7384 1553.89,-25.6519"/>
</g>
<!-- Node30 -->
<g id="node66" class="node"><title>Node30</title>
<polygon fill="white" stroke="#bfbfbf" points="1677.5,-0.5 1677.5,-21.5 1766.5,-21.5 1766.5,-0.5 1677.5,-0.5"/>
<text text-anchor="middle" x="1722" y="-8.5" font-family="Helvetica,sans-Serif" font-size="10.00">yarp/sig/Matrix.h</text>
</g>
<!-- Node15&#45;&gt;Node30 -->
<g id="edge72" class="edge"><title>Node15&#45;&gt;Node30</title>
<path fill="none" stroke="midnightblue" d="M1257.6,-59.9187C1262.12,-59.2231 1266.64,-58.5709 1271,-58 1443.84,-35.3666 1491.56,-47.6139 1667.15,-22.1494"/>
<polygon fill="midnightblue" stroke="midnightblue" points="1667.86,-25.5822 1677.24,-20.6642 1666.84,-18.6567 1667.86,-25.5822"/>
</g>
<!-- Node31 -->
<g id="node70" class="node"><title>Node31</title>
<polygon fill="white" stroke="#bfbfbf" points="1783.5,-0.5 1783.5,-21.5 1904.5,-21.5 1904.5,-0.5 1783.5,-0.5"/>
<text text-anchor="middle" x="1844" y="-8.5" font-family="Helvetica,sans-Serif" font-size="10.00">ocra/util/StringUtilities.h</text>
</g>
<!-- Node15&#45;&gt;Node31 -->
<g id="edge78" class="edge"><title>Node15&#45;&gt;Node31</title>
<path fill="none" stroke="midnightblue" d="M1257.59,-59.8298C1262.11,-59.1533 1266.64,-58.5297 1271,-58 1490.67,-31.3431 1550.17,-47.2201 1773.39,-22.1037"/>
<polygon fill="midnightblue" stroke="midnightblue" points="1773.92,-25.5665 1783.46,-20.9561 1773.13,-18.6115 1773.92,-25.5665"/>
</g>
<!-- Node32 -->
<g id="node72" class="node"><title>Node32</title>
<polygon fill="white" stroke="#bfbfbf" points="2403.5,-0.5 2403.5,-21.5 2476.5,-21.5 2476.5,-0.5 2403.5,-0.5"/>
<text text-anchor="middle" x="2440" y="-8.5" font-family="Helvetica,sans-Serif" font-size="10.00">Eigen/Dense</text>
</g>
<!-- Node15&#45;&gt;Node32 -->
<g id="edge80" class="edge"><title>Node15&#45;&gt;Node32</title>
<path fill="none" stroke="midnightblue" d="M1257.58,-67.5971C1464.47,-61.779 2242.15,-39.1084 2393.14,-21.8927"/>
<polygon fill="midnightblue" stroke="midnightblue" points="2393.8,-25.3375 2403.28,-20.6108 2392.92,-18.3928 2393.8,-25.3375"/>
</g>
<!-- Node33 -->
<g id="node74" class="node"><title>Node33</title>
<polygon fill="white" stroke="#bfbfbf" points="2318,-0.5 2318,-21.5 2386,-21.5 2386,-0.5 2318,-0.5"/>
<text text-anchor="middle" x="2352" y="-8.5" font-family="Helvetica,sans-Serif" font-size="10.00">Eigen/Lgsm</text>
</g>
<!-- Node15&#45;&gt;Node33 -->
<g id="edge82" class="edge"><title>Node15&#45;&gt;Node33</title>
<path fill="none" stroke="midnightblue" d="M1257.64,-67.4603C1454.62,-61.3885 2165.51,-38.6812 2307.59,-21.775"/>
<polygon fill="midnightblue" stroke="midnightblue" points="2308.41,-25.1976 2317.86,-20.4147 2307.49,-18.2582 2308.41,-25.1976"/>
</g>
<!-- Node38&#45;&gt;Node12 -->
<g id="edge118" class="edge"><title>Node38&#45;&gt;Node12</title>
<path fill="none" stroke="midnightblue" d="M1502.78,-118.626C1247.24,-95.4132 543.207,-31.3952 450.135,-20.9106"/>
<polygon fill="midnightblue" stroke="midnightblue" points="450.526,-17.432 440.157,-19.6094 449.62,-24.3732 450.526,-17.432"/>
</g>
<!-- Node38&#45;&gt;Node15 -->
<g id="edge112" class="edge"><title>Node38&#45;&gt;Node15</title>
<path fill="none" stroke="midnightblue" d="M1524.74,-116.497C1451.26,-105.513 1337.15,-88.4547 1267.53,-78.0483"/>
<polygon fill="midnightblue" stroke="midnightblue" points="1268,-74.5797 1257.59,-76.5627 1266.96,-81.5028 1268,-74.5797"/>
</g>
<!-- Node38&#45;&gt;Node32 -->
<g id="edge116" class="edge"><title>Node38&#45;&gt;Node32</title>
<path fill="none" stroke="midnightblue" d="M1594.41,-116.318C1594.21,-100.718 1596.43,-72.0373 1614,-58 1679.82,-5.41929 2271.56,-32.5971 2393.28,-21.724"/>
<polygon fill="midnightblue" stroke="midnightblue" points="2393.73,-25.1951 2403.28,-20.5909 2392.95,-18.2397 2393.73,-25.1951"/>
</g>
<!-- Node39 -->
<g id="node96" class="node"><title>Node39</title>
<polygon fill="white" stroke="#bfbfbf" points="1622.5,-58.5 1622.5,-79.5 1739.5,-79.5 1739.5,-58.5 1622.5,-58.5"/>
<text text-anchor="middle" x="1681" y="-66.5" font-family="Helvetica,sans-Serif" font-size="10.00">ocra/util/ErrorsHelper.h</text>
</g>
<!-- Node38&#45;&gt;Node39 -->
<g id="edge114" class="edge"><title>Node38&#45;&gt;Node39</title>
<path fill="none" stroke="midnightblue" d="M1610.77,-116.362C1623.62,-107.696 1641.98,-95.3126 1656.71,-85.3819"/>
<polygon fill="midnightblue" stroke="midnightblue" points="1658.99,-88.0639 1665.33,-79.5707 1655.08,-82.2604 1658.99,-88.0639"/>
</g>
<!-- Node38&#45;&gt;Node40 -->
<g id="edge120" class="edge"><title>Node38&#45;&gt;Node40</title>
<path fill="none" stroke="midnightblue" d="M1687.23,-119.358C1831.85,-107.375 2108.23,-84.4753 2232.15,-74.2072"/>
<polygon fill="midnightblue" stroke="midnightblue" points="2232.56,-77.6856 2242.24,-73.3717 2231.98,-70.7095 2232.56,-77.6856"/>
</g>
<!-- Node41&#45;&gt;Node35 -->
<g id="edge124" class="edge"><title>Node41&#45;&gt;Node35</title>
<path fill="none" stroke="midnightblue" d="M2400.52,-290.362C2406.13,-282.431 2413.93,-271.389 2420.6,-261.961"/>
<polygon fill="midnightblue" stroke="midnightblue" points="2423.61,-263.757 2426.53,-253.571 2417.9,-259.716 2423.61,-263.757"/>
</g>
<!-- Node41&#45;&gt;Node40 -->
<g id="edge126" class="edge"><title>Node41&#45;&gt;Node40</title>
<path fill="none" stroke="midnightblue" d="M2379.76,-290.346C2369.7,-281.578 2356.21,-268.302 2348,-254 2331.66,-225.543 2309.19,-131.823 2299.62,-89.7577"/>
<polygon fill="midnightblue" stroke="midnightblue" points="2302.99,-88.7878 2297.37,-79.8015 2296.16,-90.3263 2302.99,-88.7878"/>
</g>
<!-- Node42&#45;&gt;Node4 -->
<g id="edge136" class="edge"><title>Node42&#45;&gt;Node4</title>
<path fill="none" stroke="midnightblue" d="M1663.4,-295.347C1606.15,-289.426 1527.05,-277.534 1461,-254 1424.44,-240.973 1386.16,-217.16 1362.69,-201.205"/>
<polygon fill="midnightblue" stroke="midnightblue" points="1364.67,-198.319 1354.45,-195.514 1360.69,-204.078 1364.67,-198.319"/>
</g>
<!-- Node42&#45;&gt;Node21 -->
<g id="edge138" class="edge"><title>Node42&#45;&gt;Node21</title>
<path fill="none" stroke="midnightblue" d="M1663.28,-295.106C1600.35,-288.764 1518.3,-276.419 1494,-254 1470.62,-232.434 1475,-216.808 1475,-185 1475,-185 1475,-185 1475,-127 1475,-114.83 1366.08,-126.641 1595,-58 1717.04,-21.4062 2035.98,-36.3265 2179.2,-22.0383"/>
<polygon fill="midnightblue" stroke="midnightblue" points="2179.64,-25.5116 2189.2,-20.9579 2178.89,-18.552 2179.64,-25.5116"/>
</g>
<!-- Node42&#45;&gt;Node32 -->
<g id="edge140" class="edge"><title>Node42&#45;&gt;Node32</title>
<path fill="none" stroke="midnightblue" d="M1818.77,-296.402C1914.8,-289.88 2072.06,-276.202 2126,-254 2172.28,-234.949 2215,-235.051 2215,-185 2215,-185 2215,-185 2215,-127 2215,-95.1919 2210.97,-79.9372 2234,-58 2284.81,-9.60422 2320.44,-36.1696 2393.15,-22.2009"/>
<polygon fill="midnightblue" stroke="midnightblue" points="2394.13,-25.5722 2403.18,-20.0639 2392.67,-18.7261 2394.13,-25.5722"/>
</g>
<!-- Node42&#45;&gt;Node33 -->
<g id="edge142" class="edge"><title>Node42&#45;&gt;Node33</title>
<path fill="none" stroke="midnightblue" d="M1818.7,-296.242C1944.05,-286.412 2177,-258.285 2177,-185 2177,-185 2177,-185 2177,-127 2177,-94.5312 2177.67,-80.5772 2201,-58 2208.92,-50.3337 2266.35,-33.785 2308.04,-22.5181"/>
<polygon fill="midnightblue" stroke="midnightblue" points="2308.98,-25.8901 2317.73,-19.9175 2307.16,-19.1294 2308.98,-25.8901"/>
</g>
<!-- Node42&#45;&gt;Node40 -->
<g id="edge134" class="edge"><title>Node42&#45;&gt;Node40</title>
<path fill="none" stroke="midnightblue" d="M1818.57,-298.078C1948.12,-292.533 2197.48,-278.767 2229,-254 2280.06,-213.877 2254.72,-176.995 2277,-116 2280.2,-107.229 2283.87,-97.5893 2287.05,-89.3356"/>
<polygon fill="midnightblue" stroke="midnightblue" points="2290.4,-90.3804 2290.76,-79.7915 2283.88,-87.8479 2290.4,-90.3804"/>
</g>
<!-- Node43 -->
<g id="node109" class="node"><title>Node43</title>
<polygon fill="white" stroke="#bfbfbf" points="1503,-232.5 1503,-253.5 1577,-253.5 1577,-232.5 1503,-232.5"/>
<text text-anchor="middle" x="1540" y="-240.5" font-family="Helvetica,sans-Serif" font-size="10.00">gurobi_c++.h</text>
</g>
<!-- Node42&#45;&gt;Node43 -->
<g id="edge132" class="edge"><title>Node42&#45;&gt;Node43</title>
<path fill="none" stroke="midnightblue" d="M1704.6,-290.497C1671.41,-280.918 1622.2,-266.72 1586.24,-256.342"/>
<polygon fill="midnightblue" stroke="midnightblue" points="1587.05,-252.933 1576.47,-253.523 1585.11,-259.658 1587.05,-252.933"/>
</g>
<!-- Node44 -->
<g id="node116" class="node"><title>Node44</title>
<polygon fill="white" stroke="#bfbfbf" points="1757,-58.5 1757,-79.5 1927,-79.5 1927,-58.5 1757,-58.5"/>
<text text-anchor="middle" x="1842" y="-66.5" font-family="Helvetica,sans-Serif" font-size="10.00">unsupported/Eigen/MatrixFunctions</text>
</g>
<!-- Node42&#45;&gt;Node44 -->
<g id="edge144" class="edge"><title>Node42&#45;&gt;Node44</title>
<path fill="none" stroke="midnightblue" d="M1678.19,-290.42C1657.41,-283.607 1636.44,-272.408 1624,-254 1604.09,-224.543 1605.2,-204.182 1624,-174 1624.97,-172.45 1740.35,-116.791 1742,-116 1764.73,-105.072 1790.49,-92.9712 1810.17,-83.7849"/>
<polygon fill="midnightblue" stroke="midnightblue" points="1811.72,-86.9246 1819.31,-79.5273 1808.77,-80.58 1811.72,-86.9246"/>
</g>
<!-- Node45 -->
<g id="node118" class="node"><title>Node45</title>
<a xlink:href="MIQPLinearConstraints_8h.html" target="_top" xlink:title="walking&#45;client/constraints/MIQPLinearConstraints.h">
<polygon fill="white" stroke="black" points="1703,-232.5 1703,-253.5 1943,-253.5 1943,-232.5 1703,-232.5"/>
<text text-anchor="middle" x="1823" y="-240.5" font-family="Helvetica,sans-Serif" font-size="10.00">walking&#45;client/constraints/MIQPLinearConstraints.h</text>
</a>
</g>
<!-- Node42&#45;&gt;Node45 -->
<g id="edge146" class="edge"><title>Node42&#45;&gt;Node45</title>
<path fill="none" stroke="midnightblue" d="M1756.04,-290.362C1768.29,-281.696 1785.8,-269.313 1799.84,-259.382"/>
<polygon fill="midnightblue" stroke="midnightblue" points="1801.91,-262.203 1808.06,-253.571 1797.87,-256.488 1801.91,-262.203"/>
</g>
<!-- Node49 -->
<g id="node130" class="node"><title>Node49</title>
<polygon fill="white" stroke="#bfbfbf" points="1632.5,-232.5 1632.5,-253.5 1685.5,-253.5 1685.5,-232.5 1632.5,-232.5"/>
<text text-anchor="middle" x="1659" y="-240.5" font-family="Helvetica,sans-Serif" font-size="10.00">Gurobi.h</text>
</g>
<!-- Node42&#45;&gt;Node49 -->
<g id="edge162" class="edge"><title>Node42&#45;&gt;Node49</title>
<path fill="none" stroke="midnightblue" d="M1725.96,-290.362C1713.71,-281.696 1696.2,-269.313 1682.16,-259.382"/>
<polygon fill="midnightblue" stroke="midnightblue" points="1684.13,-256.488 1673.94,-253.571 1680.09,-262.203 1684.13,-256.488"/>
</g>
<!-- Node46 -->
<g id="node120" class="node"><title>Node46</title>
<a xlink:href="ShapeConstraints_8h.html" target="_top" xlink:title="walking&#45;client/constraints/ShapeConstraints.h">
<polygon fill="white" stroke="red" points="1633,-174.5 1633,-195.5 1849,-195.5 1849,-174.5 1633,-174.5"/>
<text text-anchor="middle" x="1741" y="-182.5" font-family="Helvetica,sans-Serif" font-size="10.00">walking&#45;client/constraints/ShapeConstraints.h</text>
</a>
</g>
<!-- Node45&#45;&gt;Node46 -->
<g id="edge148" class="edge"><title>Node45&#45;&gt;Node46</title>
<path fill="none" stroke="midnightblue" d="M1807.96,-232.362C1795.71,-223.696 1778.2,-211.313 1764.16,-201.382"/>
<polygon fill="midnightblue" stroke="midnightblue" points="1766.13,-198.488 1755.94,-195.571 1762.09,-204.203 1766.13,-198.488"/>
</g>
<!-- Node48 -->
<g id="node127" class="node"><title>Node48</title>
<a xlink:href="AdmissibilityConstraints_8h.html" target="_top" xlink:title="walking&#45;client/constraints/AdmissibilityConstraints.h">
<polygon fill="white" stroke="red" points="1905,-174.5 1905,-195.5 2149,-195.5 2149,-174.5 1905,-174.5"/>
<text text-anchor="middle" x="2027" y="-182.5" font-family="Helvetica,sans-Serif" font-size="10.00">walking&#45;client/constraints/AdmissibilityConstraints.h</text>
</a>
</g>
<!-- Node45&#45;&gt;Node48 -->
<g id="edge158" class="edge"><title>Node45&#45;&gt;Node48</title>
<path fill="none" stroke="midnightblue" d="M1859.94,-232.497C1893.63,-222.918 1943.57,-208.72 1980.07,-198.342"/>
<polygon fill="midnightblue" stroke="midnightblue" points="1981.33,-201.624 1989.99,-195.523 1979.41,-194.891 1981.33,-201.624"/>
</g>
<!-- Node47 -->
<g id="node122" class="node"><title>Node47</title>
<a xlink:href="Constraint_8h.html" target="_top" xlink:title="A constraint base class.">
<polygon fill="white" stroke="red" points="1750.5,-116.5 1750.5,-137.5 1933.5,-137.5 1933.5,-116.5 1750.5,-116.5"/>
<text text-anchor="middle" x="1842" y="-124.5" font-family="Helvetica,sans-Serif" font-size="10.00">walking&#45;client/constraints/Constraint.h</text>
</a>
</g>
<!-- Node46&#45;&gt;Node47 -->
<g id="edge150" class="edge"><title>Node46&#45;&gt;Node47</title>
<path fill="none" stroke="midnightblue" d="M1759.52,-174.362C1774.9,-165.532 1797,-152.844 1814.45,-142.822"/>
<polygon fill="midnightblue" stroke="midnightblue" points="1816.66,-145.586 1823.59,-137.571 1813.18,-139.515 1816.66,-145.586"/>
</g>
<!-- Node47&#45;&gt;Node39 -->
<g id="edge156" class="edge"><title>Node47&#45;&gt;Node39</title>
<path fill="none" stroke="midnightblue" d="M1812.84,-116.497C1786.82,-107.123 1748.52,-93.3242 1719.9,-83.0122"/>
<polygon fill="midnightblue" stroke="midnightblue" points="1720.8,-79.6195 1710.21,-79.5231 1718.43,-86.2052 1720.8,-79.6195"/>
</g>
<!-- Node47&#45;&gt;Node40 -->
<g id="edge152" class="edge"><title>Node47&#45;&gt;Node40</title>
<path fill="none" stroke="midnightblue" d="M1924.03,-116.497C2012.67,-105.148 2151.96,-87.3145 2232.26,-77.0335"/>
<polygon fill="midnightblue" stroke="midnightblue" points="2232.75,-80.4987 2242.23,-75.757 2231.86,-73.5554 2232.75,-80.4987"/>
</g>
<!-- Node47&#45;&gt;Node44 -->
<g id="edge154" class="edge"><title>Node47&#45;&gt;Node44</title>
<path fill="none" stroke="midnightblue" d="M1842,-116.362C1842,-108.922 1842,-98.7427 1842,-89.7276"/>
<polygon fill="midnightblue" stroke="midnightblue" points="1845.5,-89.5706 1842,-79.5707 1838.5,-89.5707 1845.5,-89.5706"/>
</g>
<!-- Node48&#45;&gt;Node47 -->
<g id="edge160" class="edge"><title>Node48&#45;&gt;Node47</title>
<path fill="none" stroke="midnightblue" d="M1993.5,-174.497C1963.21,-165 1918.43,-150.962 1885.41,-140.609"/>
<polygon fill="midnightblue" stroke="midnightblue" points="1886.15,-137.175 1875.56,-137.523 1884.06,-143.854 1886.15,-137.175"/>
</g>
</g>
</svg>
