<?xml version="1.0" encoding="UTF-8" standalone="no"?>
<!DOCTYPE svg PUBLIC "-//W3C//DTD SVG 1.1//EN"
 "http://www.w3.org/Graphics/SVG/1.1/DTD/svg11.dtd">
<!-- Generated by graphviz version 2.26.3 (20100126.1600)
 -->
<!-- Title: G Pages: 1 -->
<svg width="2722pt" height="436pt"
 viewBox="0.00 0.00 2722.00 436.00" xmlns="http://www.w3.org/2000/svg" xmlns:xlink="http://www.w3.org/1999/xlink">
<g id="graph1" class="graph" transform="scale(1 1) rotate(0) translate(4 432)">
<title>G</title>
<polygon fill="white" stroke="white" points="-4,5 -4,-432 2719,-432 2719,5 -4,5"/>
<!-- Node1 -->
<g id="node1" class="node"><title>Node1</title>
<polygon fill="#bfbfbf" stroke="black" points="1566.5,-406.5 1566.5,-427.5 1889.5,-427.5 1889.5,-406.5 1566.5,-406.5"/>
<text text-anchor="middle" x="1728" y="-414.5" font-family="Helvetica,sans-Serif" font-size="10.00">ocra&#45;wbi&#45;plugins/ocra&#45;icub&#45;clients/walking&#45;client/src/WalkingClient.cpp</text>
</g>
<!-- Node2 -->
<g id="node3" class="node"><title>Node2</title>
<a xlink:href="WalkingClient_8h.html" target="_top" xlink:title="walking&#45;client/WalkingClient.h">
<polygon fill="white" stroke="black" points="1654,-348.5 1654,-369.5 1802,-369.5 1802,-348.5 1654,-348.5"/>
<text text-anchor="middle" x="1728" y="-356.5" font-family="Helvetica,sans-Serif" font-size="10.00">walking&#45;client/WalkingClient.h</text>
</a>
</g>
<!-- Node1&#45;&gt;Node2 -->
<g id="edge2" class="edge"><title>Node1&#45;&gt;Node2</title>
<path fill="none" stroke="midnightblue" d="M1728,-406.362C1728,-398.922 1728,-388.743 1728,-379.728"/>
<polygon fill="midnightblue" stroke="midnightblue" points="1731.5,-379.571 1728,-369.571 1724.5,-379.571 1731.5,-379.571"/>
</g>
<!-- Node3 -->
<g id="node5" class="node"><title>Node3</title>
<a xlink:href="IcubClient_8h.html" target="_top" xlink:title="ocra&#45;icub/IcubClient.h">
<polygon fill="white" stroke="black" points="960,-290.5 960,-311.5 1072,-311.5 1072,-290.5 960,-290.5"/>
<text text-anchor="middle" x="1016" y="-298.5" font-family="Helvetica,sans-Serif" font-size="10.00">ocra&#45;icub/IcubClient.h</text>
</a>
</g>
<!-- Node2&#45;&gt;Node3 -->
<g id="edge4" class="edge"><title>Node2&#45;&gt;Node3</title>
<path fill="none" stroke="midnightblue" d="M1653.6,-353.292C1541.84,-344.667 1324.01,-327.654 1139,-312 1120.52,-310.437 1100.49,-308.674 1082.07,-307.026"/>
<polygon fill="midnightblue" stroke="midnightblue" points="1082.29,-303.532 1072.02,-306.123 1081.66,-310.504 1082.29,-303.532"/>
</g>
<!-- Node28 -->
<g id="node60" class="node"><title>Node28</title>
<polygon fill="white" stroke="#bfbfbf" points="718,-0.5 718,-21.5 800,-21.5 800,-0.5 718,-0.5"/>
<text text-anchor="middle" x="759" y="-8.5" font-family="Helvetica,sans-Serif" font-size="10.00">yarp/os/Time.h</text>
</g>
<!-- Node2&#45;&gt;Node28 -->
<g id="edge168" class="edge"><title>Node2&#45;&gt;Node28</title>
<path fill="none" stroke="midnightblue" d="M1653.8,-351.751C1571.85,-343.149 1445.46,-327.95 1400,-312 1190.19,-238.39 1175.78,-139.72 969,-58 967.118,-57.2562 871.494,-35.9689 809.945,-22.3011"/>
<polygon fill="midnightblue" stroke="midnightblue" points="810.525,-18.8448 800.005,-20.0941 809.008,-25.6784 810.525,-18.8448"/>
</g>
<!-- Node36 -->
<g id="node89" class="node"><title>Node36</title>
<polygon fill="white" stroke="#bfbfbf" points="1323.5,-232.5 1323.5,-253.5 1478.5,-253.5 1478.5,-232.5 1323.5,-232.5"/>
<text text-anchor="middle" x="1401" y="-240.5" font-family="Helvetica,sans-Serif" font-size="10.00">ocra&#45;recipes/TrajectoryThread.h</text>
</g>
<!-- Node2&#45;&gt;Node36 -->
<g id="edge106" class="edge"><title>Node2&#45;&gt;Node36</title>
<path fill="none" stroke="midnightblue" d="M1653.96,-352.177C1567.53,-343.543 1434.16,-327.875 1417,-312 1403.92,-299.905 1400.52,-279.408 1400.03,-263.889"/>
<polygon fill="midnightblue" stroke="midnightblue" points="1403.54,-263.68 1400.1,-253.659 1396.54,-263.637 1403.54,-263.68"/>
</g>
<!-- Node37 -->
<g id="node91" class="node"><title>Node37</title>
<polygon fill="white" stroke="#bfbfbf" points="1425.5,-290.5 1425.5,-311.5 1574.5,-311.5 1574.5,-290.5 1425.5,-290.5"/>
<text text-anchor="middle" x="1500" y="-298.5" font-family="Helvetica,sans-Serif" font-size="10.00">ocra&#45;recipes/ControllerClient.h</text>
</g>
<!-- Node2&#45;&gt;Node37 -->
<g id="edge108" class="edge"><title>Node2&#45;&gt;Node37</title>
<path fill="none" stroke="midnightblue" d="M1686.71,-348.497C1648.66,-338.816 1592.05,-324.416 1551.14,-314.01"/>
<polygon fill="midnightblue" stroke="midnightblue" points="1551.92,-310.597 1541.37,-311.523 1550.19,-317.38 1551.92,-310.597"/>
</g>
<!-- Node38 -->
<g id="node93" class="node"><title>Node38</title>
<polygon fill="white" stroke="#bfbfbf" points="1592,-290.5 1592,-311.5 1712,-311.5 1712,-290.5 1592,-290.5"/>
<text text-anchor="middle" x="1652" y="-298.5" font-family="Helvetica,sans-Serif" font-size="10.00">ocra/util/EigenUtilities.h</text>
</g>
<!-- Node2&#45;&gt;Node38 -->
<g id="edge110" class="edge"><title>Node2&#45;&gt;Node38</title>
<path fill="none" stroke="midnightblue" d="M1714.06,-348.362C1702.81,-339.777 1686.78,-327.546 1673.84,-317.664"/>
<polygon fill="midnightblue" stroke="midnightblue" points="1675.92,-314.855 1665.85,-311.571 1671.68,-320.42 1675.92,-314.855"/>
</g>
<!-- Node39 -->
<g id="node95" class="node"><title>Node39</title>
<a xlink:href="ZmpPreviewController_8h.html" target="_top" xlink:title="walking&#45;client/ZmpPreviewController.h">
<polygon fill="white" stroke="black" points="1694,-232.5 1694,-253.5 1878,-253.5 1878,-232.5 1694,-232.5"/>
<text text-anchor="middle" x="1786" y="-240.5" font-family="Helvetica,sans-Serif" font-size="10.00">walking&#45;client/ZmpPreviewController.h</text>
</a>
</g>
<!-- Node2&#45;&gt;Node39 -->
<g id="edge112" class="edge"><title>Node2&#45;&gt;Node39</title>
<path fill="none" stroke="midnightblue" d="M1790.2,-348.477C1829.51,-340.415 1875.07,-327.968 1887,-312 1905.39,-287.381 1870.72,-268.547 1837.09,-256.824"/>
<polygon fill="midnightblue" stroke="midnightblue" points="1837.81,-253.375 1827.22,-253.562 1835.61,-260.022 1837.81,-253.375"/>
</g>
<!-- Node41 -->
<g id="node102" class="node"><title>Node41</title>
<a xlink:href="utils_8h.html" target="_top" xlink:title="walking&#45;client/utils.h">
<polygon fill="white" stroke="black" points="1957.5,-174.5 1957.5,-195.5 2062.5,-195.5 2062.5,-174.5 1957.5,-174.5"/>
<text text-anchor="middle" x="2010" y="-182.5" font-family="Helvetica,sans-Serif" font-size="10.00">walking&#45;client/utils.h</text>
</a>
</g>
<!-- Node2&#45;&gt;Node41 -->
<g id="edge130" class="edge"><title>Node2&#45;&gt;Node41</title>
<path fill="none" stroke="midnightblue" d="M1802.38,-350.21C1835.35,-343.615 1873.3,-332.097 1903,-312 1939.81,-287.094 1933.88,-265.576 1963,-232 1971.77,-221.886 1982.25,-211.287 1991.08,-202.718"/>
<polygon fill="midnightblue" stroke="midnightblue" points="1993.53,-205.218 1998.33,-195.775 1988.69,-200.161 1993.53,-205.218"/>
</g>
<!-- Node42 -->
<g id="node104" class="node"><title>Node42</title>
<a xlink:href="StepController_8h.html" target="_top" xlink:title="walking&#45;client/StepController.h">
<polygon fill="white" stroke="black" points="1729.5,-290.5 1729.5,-311.5 1878.5,-311.5 1878.5,-290.5 1729.5,-290.5"/>
<text text-anchor="middle" x="1804" y="-298.5" font-family="Helvetica,sans-Serif" font-size="10.00">walking&#45;client/StepController.h</text>
</a>
</g>
<!-- Node2&#45;&gt;Node42 -->
<g id="edge124" class="edge"><title>Node2&#45;&gt;Node42</title>
<path fill="none" stroke="midnightblue" d="M1741.94,-348.362C1753.19,-339.777 1769.22,-327.546 1782.16,-317.664"/>
<polygon fill="midnightblue" stroke="midnightblue" points="1784.32,-320.42 1790.15,-311.571 1780.08,-314.855 1784.32,-320.42"/>
</g>
<!-- Node43 -->
<g id="node109" class="node"><title>Node43</title>
<a xlink:href="MIQPController_8h.html" target="_top" xlink:title="A thread for launching trajectory generators.">
<polygon fill="white" stroke="black" points="1993.5,-290.5 1993.5,-311.5 2148.5,-311.5 2148.5,-290.5 1993.5,-290.5"/>
<text text-anchor="middle" x="2071" y="-298.5" font-family="Helvetica,sans-Serif" font-size="10.00">walking&#45;client/MIQPController.h</text>
</a>
</g>
<!-- Node2&#45;&gt;Node43 -->
<g id="edge132" class="edge"><title>Node2&#45;&gt;Node43</title>
<path fill="none" stroke="midnightblue" d="M1790.11,-348.497C1848.82,-338.57 1936.86,-323.682 1998.7,-313.226"/>
<polygon fill="midnightblue" stroke="midnightblue" points="1999.49,-316.641 2008.77,-311.523 1998.33,-309.739 1999.49,-316.641"/>
</g>
<!-- Node50 -->
<g id="node133" class="node"><title>Node50</title>
<polygon fill="white" stroke="#bfbfbf" points="2165.5,-290.5 2165.5,-311.5 2290.5,-311.5 2290.5,-290.5 2165.5,-290.5"/>
<text text-anchor="middle" x="2228" y="-298.5" font-family="Helvetica,sans-Serif" font-size="10.00">ocra/util/FileOperations.h</text>
</g>
<!-- Node2&#45;&gt;Node50 -->
<g id="edge166" class="edge"><title>Node2&#45;&gt;Node50</title>
<path fill="none" stroke="midnightblue" d="M1802.14,-351.891C1885.58,-343.661 2025.44,-329.179 2155.18,-312.201"/>
<polygon fill="midnightblue" stroke="midnightblue" points="2155.84,-315.644 2165.3,-310.869 2154.93,-308.704 2155.84,-315.644"/>
</g>
<!-- Node4 -->
<g id="node7" class="node"><title>Node4</title>
<a xlink:href="ModelInitializer_8h.html" target="_top" xlink:title="ocra&#45;icub/ModelInitializer.h">
<polygon fill="white" stroke="black" points="225.5,-232.5 225.5,-253.5 358.5,-253.5 358.5,-232.5 225.5,-232.5"/>
<text text-anchor="middle" x="292" y="-240.5" font-family="Helvetica,sans-Serif" font-size="10.00">ocra&#45;icub/ModelInitializer.h</text>
</a>
</g>
<!-- Node3&#45;&gt;Node4 -->
<g id="edge6" class="edge"><title>Node3&#45;&gt;Node4</title>
<path fill="none" stroke="midnightblue" d="M959.791,-296.497C831.146,-286.191 515.147,-260.876 368.749,-249.148"/>
<polygon fill="midnightblue" stroke="midnightblue" points="368.754,-245.638 358.506,-248.328 368.195,-252.615 368.754,-245.638"/>
</g>
<!-- Node5 -->
<g id="node9" class="node"><title>Node5</title>
<a xlink:href="OcraWbiModel_8h.html" target="_top" xlink:title="Implementation of ocra::Model using wholeBodyInterface.">
<polygon fill="white" stroke="black" points="950,-174.5 950,-195.5 1082,-195.5 1082,-174.5 950,-174.5"/>
<text text-anchor="middle" x="1016" y="-182.5" font-family="Helvetica,sans-Serif" font-size="10.00">ocra&#45;icub/OcraWbiModel.h</text>
</a>
</g>
<!-- Node3&#45;&gt;Node5 -->
<g id="edge102" class="edge"><title>Node3&#45;&gt;Node5</title>
<path fill="none" stroke="midnightblue" d="M1016,-290.295C1016,-271.131 1016,-230.654 1016,-205.843"/>
<polygon fill="midnightblue" stroke="midnightblue" points="1019.5,-205.679 1016,-195.679 1012.5,-205.679 1019.5,-205.679"/>
</g>
<!-- Node10 -->
<g id="node19" class="node"><title>Node10</title>
<a xlink:href="OcraWbiConversions_8h.html" target="_top" xlink:title="A utility class full of static conversion functions.">
<polygon fill="white" stroke="black" points="827.5,-116.5 827.5,-137.5 988.5,-137.5 988.5,-116.5 827.5,-116.5"/>
<text text-anchor="middle" x="908" y="-124.5" font-family="Helvetica,sans-Serif" font-size="10.00">ocra&#45;icub/OcraWbiConversions.h</text>
</a>
</g>
<!-- Node3&#45;&gt;Node10 -->
<g id="edge100" class="edge"><title>Node3&#45;&gt;Node10</title>
<path fill="none" stroke="midnightblue" d="M1007.47,-290.388C992.82,-271.896 962.406,-232.27 941,-196 931.55,-179.988 922.566,-160.851 916.364,-146.796"/>
<polygon fill="midnightblue" stroke="midnightblue" points="919.558,-145.365 912.374,-137.578 913.135,-148.146 919.558,-145.365"/>
</g>
<!-- Node16 -->
<g id="node33" class="node"><title>Node16</title>
<a xlink:href="Utilities_8h.html" target="_top" xlink:title="Some useful tools for the ocra&#45;icub lib.">
<polygon fill="white" stroke="black" points="1147.5,-58.5 1147.5,-79.5 1248.5,-79.5 1248.5,-58.5 1147.5,-58.5"/>
<text text-anchor="middle" x="1198" y="-66.5" font-family="Helvetica,sans-Serif" font-size="10.00">ocra&#45;icub/Utilities.h</text>
</a>
</g>
<!-- Node3&#45;&gt;Node16 -->
<g id="edge104" class="edge"><title>Node3&#45;&gt;Node16</title>
<path fill="none" stroke="midnightblue" d="M1024.29,-290.429C1052.78,-254.12 1146.86,-134.19 1183.35,-87.671"/>
<polygon fill="midnightblue" stroke="midnightblue" points="1186.24,-89.6617 1189.66,-79.6335 1180.73,-85.3411 1186.24,-89.6617"/>
</g>
<!-- Node4&#45;&gt;Node5 -->
<g id="edge8" class="edge"><title>Node4&#45;&gt;Node5</title>
<path fill="none" stroke="midnightblue" d="M358.814,-237.647C493.543,-226.854 797.063,-202.539 939.486,-191.13"/>
<polygon fill="midnightblue" stroke="midnightblue" points="940.182,-194.585 949.871,-190.298 939.623,-187.607 940.182,-194.585"/>
</g>
<!-- Node7 -->
<g id="node13" class="node"><title>Node7</title>
<polygon fill="white" stroke="#bfbfbf" points="245.5,-0.5 245.5,-21.5 350.5,-21.5 350.5,-0.5 245.5,-0.5"/>
<text text-anchor="middle" x="298" y="-8.5" font-family="Helvetica,sans-Serif" font-size="10.00">ocra/control/Model.h</text>
</g>
<!-- Node4&#45;&gt;Node7 -->
<g id="edge88" class="edge"><title>Node4&#45;&gt;Node7</title>
<path fill="none" stroke="midnightblue" d="M283.555,-232.148C277.053,-223.063 268.59,-209.457 265,-196 249.224,-136.866 274.289,-65.0563 288.811,-30.9019"/>
<polygon fill="midnightblue" stroke="midnightblue" points="292.095,-32.1293 292.922,-21.5668 285.689,-29.3078 292.095,-32.1293"/>
</g>
<!-- Node9 -->
<g id="node17" class="node"><title>Node9</title>
<polygon fill="white" stroke="#bfbfbf" points="368,-0.5 368,-21.5 444,-21.5 444,-0.5 368,-0.5"/>
<text text-anchor="middle" x="406" y="-8.5" font-family="Helvetica,sans-Serif" font-size="10.00">yarp/os/Log.h</text>
</g>
<!-- Node4&#45;&gt;Node9 -->
<g id="edge98" class="edge"><title>Node4&#45;&gt;Node9</title>
<path fill="none" stroke="midnightblue" d="M333.772,-232.48C353.107,-225.408 374.512,-213.987 387,-196 421.875,-145.766 415.545,-68.595 409.892,-31.8452"/>
<polygon fill="midnightblue" stroke="midnightblue" points="413.315,-31.0938 408.205,-21.8123 406.411,-32.2542 413.315,-31.0938"/>
</g>
<!-- Node15 -->
<g id="node31" class="node"><title>Node15</title>
<polygon fill="white" stroke="#bfbfbf" points="434,-58.5 434,-79.5 676,-79.5 676,-58.5 434,-58.5"/>
<text text-anchor="middle" x="555" y="-66.5" font-family="Helvetica,sans-Serif" font-size="10.00">yarpWholeBodyInterface/yarpWholeBodyInterface.h</text>
</g>
<!-- Node4&#45;&gt;Node15 -->
<g id="edge90" class="edge"><title>Node4&#45;&gt;Node15</title>
<path fill="none" stroke="midnightblue" d="M283.938,-232.258C274.182,-217.838 260.523,-191.959 273,-174 299.368,-136.045 423.988,-100.4 498.455,-82.0008"/>
<polygon fill="midnightblue" stroke="midnightblue" points="499.73,-85.2924 508.615,-79.5206 498.07,-78.4921 499.73,-85.2924"/>
</g>
<!-- Node25 -->
<g id="node54" class="node"><title>Node25</title>
<polygon fill="white" stroke="#bfbfbf" points="0,-0.5 0,-21.5 104,-21.5 104,-0.5 0,-0.5"/>
<text text-anchor="middle" x="52" y="-8.5" font-family="Helvetica,sans-Serif" font-size="10.00">yarp/os/RpcClient.h</text>
</g>
<!-- Node4&#45;&gt;Node25 -->
<g id="edge92" class="edge"><title>Node4&#45;&gt;Node25</title>
<path fill="none" stroke="midnightblue" d="M280.427,-232.23C270.258,-222.74 255.085,-208.518 242,-196 178.556,-135.303 104.194,-62.3703 70.3912,-29.1174"/>
<polygon fill="midnightblue" stroke="midnightblue" points="72.6521,-26.4318 63.0699,-21.9117 67.7419,-31.4208 72.6521,-26.4318"/>
</g>
<!-- Node29 -->
<g id="node63" class="node"><title>Node29</title>
<polygon fill="white" stroke="#bfbfbf" points="121.5,-0.5 121.5,-21.5 228.5,-21.5 228.5,-0.5 121.5,-0.5"/>
<text text-anchor="middle" x="175" y="-8.5" font-family="Helvetica,sans-Serif" font-size="10.00">yarp/os/LogStream.h</text>
</g>
<!-- Node4&#45;&gt;Node29 -->
<g id="edge96" class="edge"><title>Node4&#45;&gt;Node29</title>
<path fill="none" stroke="midnightblue" d="M282.926,-232.277C275.39,-223.049 264.697,-209.177 257,-196 223.759,-139.092 195.203,-66.246 182.316,-31.3787"/>
<polygon fill="midnightblue" stroke="midnightblue" points="185.549,-30.0296 178.831,-21.8368 178.974,-32.4307 185.549,-30.0296"/>
</g>
<!-- Node35 -->
<g id="node82" class="node"><title>Node35</title>
<polygon fill="white" stroke="#bfbfbf" points="281.5,-174.5 281.5,-195.5 378.5,-195.5 378.5,-174.5 281.5,-174.5"/>
<text text-anchor="middle" x="330" y="-182.5" font-family="Helvetica,sans-Serif" font-size="10.00">yarp/os/Network.h</text>
</g>
<!-- Node4&#45;&gt;Node35 -->
<g id="edge94" class="edge"><title>Node4&#45;&gt;Node35</title>
<path fill="none" stroke="midnightblue" d="M298.97,-232.362C304.166,-224.431 311.401,-213.389 317.578,-203.961"/>
<polygon fill="midnightblue" stroke="midnightblue" points="320.522,-205.853 323.074,-195.571 314.666,-202.017 320.522,-205.853"/>
</g>
<!-- Node6 -->
<g id="node11" class="node"><title>Node6</title>
<polygon fill="white" stroke="#bfbfbf" points="2158,-0.5 2158,-21.5 2210,-21.5 2210,-0.5 2158,-0.5"/>
<text text-anchor="middle" x="2184" y="-8.5" font-family="Helvetica,sans-Serif" font-size="10.00">memory</text>
</g>
<!-- Node5&#45;&gt;Node6 -->
<g id="edge10" class="edge"><title>Node5&#45;&gt;Node6</title>
<path fill="none" stroke="midnightblue" d="M1082.19,-174.92C1226.6,-153.001 1580.82,-99.6284 1878,-58 1995.16,-41.589 2028.63,-47.9513 2147.88,-21.9648"/>
<polygon fill="midnightblue" stroke="midnightblue" points="2148.75,-25.3568 2157.76,-19.7812 2147.24,-18.5217 2148.75,-25.3568"/>
</g>
<!-- Node5&#45;&gt;Node7 -->
<g id="edge12" class="edge"><title>Node5&#45;&gt;Node7</title>
<path fill="none" stroke="midnightblue" d="M949.795,-180.217C901.634,-174.735 835.878,-163.012 783,-138 757.587,-125.979 710.923,-68.8776 685,-58 553.604,-2.86413 505.427,-41.1386 360.669,-22.1131"/>
<polygon fill="midnightblue" stroke="midnightblue" points="360.921,-18.6147 350.535,-20.7091 359.96,-25.5485 360.921,-18.6147"/>
</g>
<!-- Node8 -->
<g id="node15" class="node"><title>Node8</title>
<polygon fill="white" stroke="#bfbfbf" points="642,-0.5 642,-21.5 700,-21.5 700,-0.5 642,-0.5"/>
<text text-anchor="middle" x="671" y="-8.5" font-family="Helvetica,sans-Serif" font-size="10.00">wbi/wbi.h</text>
</g>
<!-- Node5&#45;&gt;Node8 -->
<g id="edge14" class="edge"><title>Node5&#45;&gt;Node8</title>
<path fill="none" stroke="midnightblue" d="M1014.75,-174.048C1012.74,-159.847 1007.87,-134.686 997,-116 978.663,-84.4919 971.497,-74.5208 939,-58 849.65,-12.5761 812.358,-42.4256 710.433,-22.0326"/>
<polygon fill="midnightblue" stroke="midnightblue" points="710.872,-18.5479 700.364,-19.898 709.421,-25.3958 710.872,-18.5479"/>
</g>
<!-- Node5&#45;&gt;Node9 -->
<g id="edge16" class="edge"><title>Node5&#45;&gt;Node9</title>
<path fill="none" stroke="midnightblue" d="M949.691,-176.561C910.277,-169.774 860.118,-157.966 819,-138 767.488,-112.986 770.689,-80.4294 718,-58 611.628,-12.718 572.058,-41.8695 454.278,-22.0407"/>
<polygon fill="midnightblue" stroke="midnightblue" points="454.613,-18.5456 444.156,-20.2495 453.393,-25.4385 454.613,-18.5456"/>
</g>
<!-- Node5&#45;&gt;Node10 -->
<g id="edge18" class="edge"><title>Node5&#45;&gt;Node10</title>
<path fill="none" stroke="midnightblue" d="M996.442,-174.497C979.802,-165.56 955.673,-152.602 936.82,-142.477"/>
<polygon fill="midnightblue" stroke="midnightblue" points="938.243,-139.269 927.777,-137.621 934.931,-145.436 938.243,-139.269"/>
</g>
<!-- Node5&#45;&gt;Node16 -->
<g id="edge86" class="edge"><title>Node5&#45;&gt;Node16</title>
<path fill="none" stroke="midnightblue" d="M1032.8,-174.295C1064.84,-153.871 1134.87,-109.238 1172.64,-85.1624"/>
<polygon fill="midnightblue" stroke="midnightblue" points="1174.96,-87.8379 1181.51,-79.5117 1171.19,-81.935 1174.96,-87.8379"/>
</g>
<!-- Node10&#45;&gt;Node8 -->
<g id="edge30" class="edge"><title>Node10&#45;&gt;Node8</title>
<path fill="none" stroke="midnightblue" d="M915.018,-116.315C923.79,-101.485 936.044,-74.6174 922,-58 892.768,-23.4128 770.782,-31.5592 710.525,-21.8224"/>
<polygon fill="midnightblue" stroke="midnightblue" points="710.854,-18.3215 700.372,-19.8621 709.527,-25.1945 710.854,-18.3215"/>
</g>
<!-- Node10&#45;&gt;Node9 -->
<g id="edge28" class="edge"><title>Node10&#45;&gt;Node9</title>
<path fill="none" stroke="midnightblue" d="M894.117,-116.293C869.996,-97.7852 822.048,-61.4464 813,-58 665.814,-1.93936 613.758,-46.4688 454.295,-21.9933"/>
<polygon fill="midnightblue" stroke="midnightblue" points="454.564,-18.4918 444.136,-20.3637 453.455,-25.4034 454.564,-18.4918"/>
</g>
<!-- Node11 -->
<g id="node21" class="node"><title>Node11</title>
<polygon fill="white" stroke="#bfbfbf" points="462,-0.5 462,-21.5 516,-21.5 516,-0.5 462,-0.5"/>
<text text-anchor="middle" x="489" y="-8.5" font-family="Helvetica,sans-Serif" font-size="10.00">iostream</text>
</g>
<!-- Node10&#45;&gt;Node11 -->
<g id="edge20" class="edge"><title>Node10&#45;&gt;Node11</title>
<path fill="none" stroke="midnightblue" d="M901.987,-116.399C892.404,-100.628 872.063,-71.4109 846,-58 721.215,6.21033 667.989,-48.5219 526.291,-21.9038"/>
<polygon fill="midnightblue" stroke="midnightblue" points="526.872,-18.4508 516.382,-19.9377 525.51,-25.317 526.872,-18.4508"/>
</g>
<!-- Node12 -->
<g id="node23" class="node"><title>Node12</title>
<polygon fill="white" stroke="#bfbfbf" points="769.5,-58.5 769.5,-79.5 804.5,-79.5 804.5,-58.5 769.5,-58.5"/>
<text text-anchor="middle" x="787" y="-66.5" font-family="Helvetica,sans-Serif" font-size="10.00">map</text>
</g>
<!-- Node10&#45;&gt;Node12 -->
<g id="edge22" class="edge"><title>Node10&#45;&gt;Node12</title>
<path fill="none" stroke="midnightblue" d="M886.088,-116.497C865.799,-106.771 835.573,-92.283 813.843,-81.867"/>
<polygon fill="midnightblue" stroke="midnightblue" points="815.345,-78.7055 804.814,-77.5391 812.319,-85.0178 815.345,-78.7055"/>
</g>
<!-- Node13 -->
<g id="node25" class="node"><title>Node13</title>
<polygon fill="white" stroke="#bfbfbf" points="2228,-0.5 2228,-21.5 2272,-21.5 2272,-0.5 2228,-0.5"/>
<text text-anchor="middle" x="2250" y="-8.5" font-family="Helvetica,sans-Serif" font-size="10.00">vector</text>
</g>
<!-- Node10&#45;&gt;Node13 -->
<g id="edge24" class="edge"><title>Node10&#45;&gt;Node13</title>
<path fill="none" stroke="midnightblue" d="M988.875,-121.756C1249.6,-104.682 2059.77,-50.2713 2217.63,-21.6559"/>
<polygon fill="midnightblue" stroke="midnightblue" points="2218.72,-25.009 2227.85,-19.641 2217.36,-18.1411 2218.72,-25.009"/>
</g>
<!-- Node14 -->
<g id="node27" class="node"><title>Node14</title>
<polygon fill="white" stroke="#bfbfbf" points="533.5,-0.5 533.5,-21.5 624.5,-21.5 624.5,-0.5 533.5,-0.5"/>
<text text-anchor="middle" x="579" y="-8.5" font-family="Helvetica,sans-Serif" font-size="10.00">yarp/sig/Vector.h</text>
</g>
<!-- Node10&#45;&gt;Node14 -->
<g id="edge26" class="edge"><title>Node10&#45;&gt;Node14</title>
<path fill="none" stroke="midnightblue" d="M907.589,-116.462C906.378,-101.047 901.716,-72.5995 884,-58 842.638,-23.9141 703.104,-30.8117 634.596,-21.9821"/>
<polygon fill="midnightblue" stroke="midnightblue" points="635.038,-18.5093 624.63,-20.4903 634.001,-25.4321 635.038,-18.5093"/>
</g>
<!-- Node10&#45;&gt;Node15 -->
<g id="edge32" class="edge"><title>Node10&#45;&gt;Node15</title>
<path fill="none" stroke="midnightblue" d="M844.074,-116.497C783.536,-106.55 692.673,-91.6205 629.019,-81.1618"/>
<polygon fill="midnightblue" stroke="midnightblue" points="629.481,-77.6908 619.046,-79.5231 628.346,-84.5982 629.481,-77.6908"/>
</g>
<!-- Node10&#45;&gt;Node16 -->
<g id="edge34" class="edge"><title>Node10&#45;&gt;Node16</title>
<path fill="none" stroke="midnightblue" d="M960.517,-116.497C1010.35,-106.53 1085.2,-91.5594 1137.51,-81.0977"/>
<polygon fill="midnightblue" stroke="midnightblue" points="1138.21,-84.5269 1147.33,-79.1337 1136.84,-77.6629 1138.21,-84.5269"/>
</g>
<!-- Node16&#45;&gt;Node6 -->
<g id="edge36" class="edge"><title>Node16&#45;&gt;Node6</title>
<path fill="none" stroke="midnightblue" d="M1248.78,-67.2489C1427.65,-60.9796 2023.94,-39.1878 2147.9,-21.6013"/>
<polygon fill="midnightblue" stroke="midnightblue" points="2148.48,-25.0524 2157.81,-20.021 2147.38,-18.1398 2148.48,-25.0524"/>
</g>
<!-- Node16&#45;&gt;Node7 -->
<g id="edge78" class="edge"><title>Node16&#45;&gt;Node7</title>
<path fill="none" stroke="midnightblue" d="M1147.22,-68.3186C1017.7,-66.1179 664.435,-57.2124 360.837,-22.0972"/>
<polygon fill="midnightblue" stroke="midnightblue" points="360.85,-18.575 350.511,-20.8905 360.037,-25.5277 360.85,-18.575"/>
</g>
<!-- Node16&#45;&gt;Node8 -->
<g id="edge76" class="edge"><title>Node16&#45;&gt;Node8</title>
<path fill="none" stroke="midnightblue" d="M1147.25,-65.326C1043.4,-57.6179 808.807,-39.1844 710.266,-21.9038"/>
<polygon fill="midnightblue" stroke="midnightblue" points="710.796,-18.4426 700.327,-20.074 709.528,-25.3269 710.796,-18.4426"/>
</g>
<!-- Node16&#45;&gt;Node9 -->
<g id="edge66" class="edge"><title>Node16&#45;&gt;Node9</title>
<path fill="none" stroke="midnightblue" d="M1147.26,-66.9053C1005.46,-60.8793 606.032,-42.6885 454.186,-21.9181"/>
<polygon fill="midnightblue" stroke="midnightblue" points="454.511,-18.4292 444.117,-20.4824 453.523,-25.3591 454.511,-18.4292"/>
</g>
<!-- Node16&#45;&gt;Node11 -->
<g id="edge40" class="edge"><title>Node16&#45;&gt;Node11</title>
<path fill="none" stroke="midnightblue" d="M1147.06,-66.9406C1014.98,-61.3674 662.838,-44.9651 526.562,-21.8775"/>
<polygon fill="midnightblue" stroke="midnightblue" points="526.817,-18.3679 516.358,-20.0595 525.589,-25.2594 526.817,-18.3679"/>
</g>
<!-- Node16&#45;&gt;Node13 -->
<g id="edge44" class="edge"><title>Node16&#45;&gt;Node13</title>
<path fill="none" stroke="midnightblue" d="M1248.69,-67.0818C1440.23,-59.7814 2113.96,-33.6195 2217.91,-21.2132"/>
<polygon fill="midnightblue" stroke="midnightblue" points="2218.49,-24.6657 2227.87,-19.735 2217.46,-17.7416 2218.49,-24.6657"/>
</g>
<!-- Node16&#45;&gt;Node14 -->
<g id="edge72" class="edge"><title>Node16&#45;&gt;Node14</title>
<path fill="none" stroke="midnightblue" d="M1147.13,-66.7826C1049.56,-62.0928 829.242,-49.3938 634.721,-22.1184"/>
<polygon fill="midnightblue" stroke="midnightblue" points="634.992,-18.6218 624.599,-20.6824 634.008,-25.5524 634.992,-18.6218"/>
</g>
<!-- Node17 -->
<g id="node36" class="node"><title>Node17</title>
<polygon fill="white" stroke="#bfbfbf" points="1062,-0.5 1062,-21.5 1106,-21.5 1106,-0.5 1062,-0.5"/>
<text text-anchor="middle" x="1084" y="-8.5" font-family="Helvetica,sans-Serif" font-size="10.00">cmath</text>
</g>
<!-- Node16&#45;&gt;Node17 -->
<g id="edge38" class="edge"><title>Node16&#45;&gt;Node17</title>
<path fill="none" stroke="midnightblue" d="M1177.36,-58.4966C1159.63,-49.4786 1133.86,-36.3649 1113.88,-26.2006"/>
<polygon fill="midnightblue" stroke="midnightblue" points="1115.38,-23.0364 1104.88,-21.6212 1112.2,-29.2753 1115.38,-23.0364"/>
</g>
<!-- Node18 -->
<g id="node39" class="node"><title>Node18</title>
<polygon fill="white" stroke="#bfbfbf" points="1123.5,-0.5 1123.5,-21.5 1164.5,-21.5 1164.5,-0.5 1123.5,-0.5"/>
<text text-anchor="middle" x="1144" y="-8.5" font-family="Helvetica,sans-Serif" font-size="10.00">string</text>
</g>
<!-- Node16&#45;&gt;Node18 -->
<g id="edge42" class="edge"><title>Node16&#45;&gt;Node18</title>
<path fill="none" stroke="midnightblue" d="M1188.1,-58.3619C1180.48,-50.1861 1169.79,-38.7025 1160.84,-29.0907"/>
<polygon fill="midnightblue" stroke="midnightblue" points="1163.22,-26.5046 1153.84,-21.5707 1158.09,-31.2746 1163.22,-26.5046"/>
</g>
<!-- Node19 -->
<g id="node42" class="node"><title>Node19</title>
<polygon fill="white" stroke="#bfbfbf" points="1182,-0.5 1182,-21.5 1234,-21.5 1234,-0.5 1182,-0.5"/>
<text text-anchor="middle" x="1208" y="-8.5" font-family="Helvetica,sans-Serif" font-size="10.00">sstream</text>
</g>
<!-- Node16&#45;&gt;Node19 -->
<g id="edge46" class="edge"><title>Node16&#45;&gt;Node19</title>
<path fill="none" stroke="midnightblue" d="M1199.83,-58.3619C1201.13,-50.8401 1202.91,-40.5187 1204.48,-31.4308"/>
<polygon fill="midnightblue" stroke="midnightblue" points="1207.93,-32.02 1206.18,-21.5707 1201.03,-30.8306 1207.93,-32.02"/>
</g>
<!-- Node20 -->
<g id="node44" class="node"><title>Node20</title>
<polygon fill="white" stroke="#bfbfbf" points="1251.5,-0.5 1251.5,-21.5 1366.5,-21.5 1366.5,-0.5 1251.5,-0.5"/>
<text text-anchor="middle" x="1309" y="-8.5" font-family="Helvetica,sans-Serif" font-size="10.00">yarp/os/BufferedPort.h</text>
</g>
<!-- Node16&#45;&gt;Node20 -->
<g id="edge48" class="edge"><title>Node16&#45;&gt;Node20</title>
<path fill="none" stroke="midnightblue" d="M1218.1,-58.4966C1235.28,-49.5194 1260.23,-36.4835 1279.64,-26.3387"/>
<polygon fill="midnightblue" stroke="midnightblue" points="1281.43,-29.3544 1288.67,-21.6212 1278.19,-23.1503 1281.43,-29.3544"/>
</g>
<!-- Node21 -->
<g id="node46" class="node"><title>Node21</title>
<polygon fill="white" stroke="#bfbfbf" points="1384,-0.5 1384,-21.5 1470,-21.5 1470,-0.5 1384,-0.5"/>
<text text-anchor="middle" x="1427" y="-8.5" font-family="Helvetica,sans-Serif" font-size="10.00">yarp/os/Bottle.h</text>
</g>
<!-- Node16&#45;&gt;Node21 -->
<g id="edge50" class="edge"><title>Node16&#45;&gt;Node21</title>
<path fill="none" stroke="midnightblue" d="M1239.47,-58.4966C1277.69,-48.8159 1334.55,-34.4156 1375.63,-24.0105"/>
<polygon fill="midnightblue" stroke="midnightblue" points="1376.62,-27.3712 1385.45,-21.5231 1374.9,-20.5855 1376.62,-27.3712"/>
</g>
<!-- Node22 -->
<g id="node48" class="node"><title>Node22</title>
<polygon fill="white" stroke="#bfbfbf" points="2289.5,-0.5 2289.5,-21.5 2400.5,-21.5 2400.5,-0.5 2289.5,-0.5"/>
<text text-anchor="middle" x="2345" y="-8.5" font-family="Helvetica,sans-Serif" font-size="10.00">yarp/os/RateThread.h</text>
</g>
<!-- Node16&#45;&gt;Node22 -->
<g id="edge52" class="edge"><title>Node16&#45;&gt;Node22</title>
<path fill="none" stroke="midnightblue" d="M1248.7,-67.6547C1431.46,-62.6742 2056.95,-44.4592 2278.95,-22.086"/>
<polygon fill="midnightblue" stroke="midnightblue" points="2279.63,-25.5343 2289.21,-21.0175 2278.9,-18.5719 2279.63,-25.5343"/>
</g>
<!-- Node23 -->
<g id="node50" class="node"><title>Node23</title>
<polygon fill="white" stroke="#bfbfbf" points="1487.5,-0.5 1487.5,-21.5 1616.5,-21.5 1616.5,-0.5 1487.5,-0.5"/>
<text text-anchor="middle" x="1552" y="-8.5" font-family="Helvetica,sans-Serif" font-size="10.00">yarp/os/ResourceFinder.h</text>
</g>
<!-- Node16&#45;&gt;Node23 -->
<g id="edge54" class="edge"><title>Node16&#45;&gt;Node23</title>
<path fill="none" stroke="midnightblue" d="M1248.72,-60.69C1308.76,-50.8528 1409.25,-34.388 1477.98,-23.1274"/>
<polygon fill="midnightblue" stroke="midnightblue" points="1478.58,-26.5761 1487.88,-21.5052 1477.45,-19.6682 1478.58,-26.5761"/>
</g>
<!-- Node24 -->
<g id="node52" class="node"><title>Node24</title>
<polygon fill="white" stroke="#bfbfbf" points="1634,-0.5 1634,-21.5 1744,-21.5 1744,-0.5 1634,-0.5"/>
<text text-anchor="middle" x="1689" y="-8.5" font-family="Helvetica,sans-Serif" font-size="10.00">yarp/os/PortReader.h</text>
</g>
<!-- Node16&#45;&gt;Node24 -->
<g id="edge56" class="edge"><title>Node16&#45;&gt;Node24</title>
<path fill="none" stroke="midnightblue" d="M1248.74,-64.4187C1326.97,-57.1339 1482,-41.8256 1623.7,-22.1191"/>
<polygon fill="midnightblue" stroke="midnightblue" points="1624.46,-25.5468 1633.88,-20.6927 1623.49,-18.6146 1624.46,-25.5468"/>
</g>
<!-- Node16&#45;&gt;Node25 -->
<g id="edge58" class="edge"><title>Node16&#45;&gt;Node25</title>
<path fill="none" stroke="midnightblue" d="M1147.2,-67.7118C963.988,-62.9261 336.755,-45.2928 114.15,-21.9667"/>
<polygon fill="midnightblue" stroke="midnightblue" points="114.494,-18.4836 104.176,-20.8871 113.741,-25.443 114.494,-18.4836"/>
</g>
<!-- Node26 -->
<g id="node56" class="node"><title>Node26</title>
<polygon fill="white" stroke="#bfbfbf" points="1761.5,-0.5 1761.5,-21.5 1868.5,-21.5 1868.5,-0.5 1761.5,-0.5"/>
<text text-anchor="middle" x="1815" y="-8.5" font-family="Helvetica,sans-Serif" font-size="10.00">yarp/os/RpcServer.h</text>
</g>
<!-- Node16&#45;&gt;Node26 -->
<g id="edge60" class="edge"><title>Node16&#45;&gt;Node26</title>
<path fill="none" stroke="midnightblue" d="M1248.67,-66.2586C1344.8,-60.7211 1560.41,-46.6909 1751.34,-22.1308"/>
<polygon fill="midnightblue" stroke="midnightblue" points="1751.81,-25.5992 1761.28,-20.8401 1750.91,-18.6575 1751.81,-25.5992"/>
</g>
<!-- Node27 -->
<g id="node58" class="node"><title>Node27</title>
<polygon fill="white" stroke="#bfbfbf" points="1885.5,-0.5 1885.5,-21.5 2026.5,-21.5 2026.5,-0.5 1885.5,-0.5"/>
<text text-anchor="middle" x="1956" y="-8.5" font-family="Helvetica,sans-Serif" font-size="10.00">yarp/os/ConnectionReader.h</text>
</g>
<!-- Node16&#45;&gt;Node27 -->
<g id="edge62" class="edge"><title>Node16&#45;&gt;Node27</title>
<path fill="none" stroke="midnightblue" d="M1248.78,-66.689C1360.3,-61.3542 1635.17,-46.7843 1875.42,-22.1098"/>
<polygon fill="midnightblue" stroke="midnightblue" points="1875.81,-25.5889 1885.39,-21.0779 1875.09,-18.6261 1875.81,-25.5889"/>
</g>
<!-- Node16&#45;&gt;Node28 -->
<g id="edge64" class="edge"><title>Node16&#45;&gt;Node28</title>
<path fill="none" stroke="midnightblue" d="M1147.17,-60.6246C1141.05,-59.6973 1134.89,-58.8003 1129,-58 990.369,-39.1619 951.907,-45.1205 810.077,-22.0441"/>
<polygon fill="midnightblue" stroke="midnightblue" points="810.571,-18.5782 800.135,-20.4067 809.433,-25.4852 810.571,-18.5782"/>
</g>
<!-- Node16&#45;&gt;Node29 -->
<g id="edge68" class="edge"><title>Node16&#45;&gt;Node29</title>
<path fill="none" stroke="midnightblue" d="M1147.48,-67.3764C978.889,-61.8278 435.621,-42.8637 238.929,-22.0757"/>
<polygon fill="midnightblue" stroke="midnightblue" points="239.029,-18.5658 228.708,-20.9581 238.268,-25.5244 239.029,-18.5658"/>
</g>
<!-- Node30 -->
<g id="node65" class="node"><title>Node30</title>
<polygon fill="white" stroke="#bfbfbf" points="2043.5,-0.5 2043.5,-21.5 2140.5,-21.5 2140.5,-0.5 2043.5,-0.5"/>
<text text-anchor="middle" x="2092" y="-8.5" font-family="Helvetica,sans-Serif" font-size="10.00">yarp/os/Property.h</text>
</g>
<!-- Node16&#45;&gt;Node30 -->
<g id="edge70" class="edge"><title>Node16&#45;&gt;Node30</title>
<path fill="none" stroke="midnightblue" d="M1248.72,-67.0492C1402.43,-60.9981 1862.52,-41.8286 2033.16,-22.0667"/>
<polygon fill="midnightblue" stroke="midnightblue" points="2033.74,-25.5224 2043.25,-20.8549 2032.91,-18.5723 2033.74,-25.5224"/>
</g>
<!-- Node31 -->
<g id="node68" class="node"><title>Node31</title>
<polygon fill="white" stroke="#bfbfbf" points="817.5,-0.5 817.5,-21.5 906.5,-21.5 906.5,-0.5 817.5,-0.5"/>
<text text-anchor="middle" x="862" y="-8.5" font-family="Helvetica,sans-Serif" font-size="10.00">yarp/sig/Matrix.h</text>
</g>
<!-- Node16&#45;&gt;Node31 -->
<g id="edge74" class="edge"><title>Node16&#45;&gt;Node31</title>
<path fill="none" stroke="midnightblue" d="M1147.33,-60.8353C1082.55,-50.3562 972.894,-32.4726 916.683,-22.2494"/>
<polygon fill="midnightblue" stroke="midnightblue" points="916.976,-18.7445 906.507,-20.3723 915.707,-25.6283 916.976,-18.7445"/>
</g>
<!-- Node32 -->
<g id="node72" class="node"><title>Node32</title>
<polygon fill="white" stroke="#bfbfbf" points="923.5,-0.5 923.5,-21.5 1044.5,-21.5 1044.5,-0.5 923.5,-0.5"/>
<text text-anchor="middle" x="984" y="-8.5" font-family="Helvetica,sans-Serif" font-size="10.00">ocra/util/StringUtilities.h</text>
</g>
<!-- Node16&#45;&gt;Node32 -->
<g id="edge80" class="edge"><title>Node16&#45;&gt;Node32</title>
<path fill="none" stroke="midnightblue" d="M1159.25,-58.4966C1123.75,-48.8773 1071.07,-34.5981 1032.74,-24.209"/>
<polygon fill="midnightblue" stroke="midnightblue" points="1033.39,-20.7609 1022.83,-21.5231 1031.56,-27.5172 1033.39,-20.7609"/>
</g>
<!-- Node33 -->
<g id="node74" class="node"><title>Node33</title>
<polygon fill="white" stroke="#bfbfbf" points="2503.5,-0.5 2503.5,-21.5 2576.5,-21.5 2576.5,-0.5 2503.5,-0.5"/>
<text text-anchor="middle" x="2540" y="-8.5" font-family="Helvetica,sans-Serif" font-size="10.00">Eigen/Dense</text>
</g>
<!-- Node16&#45;&gt;Node33 -->
<g id="edge82" class="edge"><title>Node16&#45;&gt;Node33</title>
<path fill="none" stroke="midnightblue" d="M1248.85,-68.5394C1454.76,-66.4636 2227.85,-56.5789 2493.3,-21.9684"/>
<polygon fill="midnightblue" stroke="midnightblue" points="2493.84,-25.4268 2503.28,-20.6209 2492.9,-18.4897 2493.84,-25.4268"/>
</g>
<!-- Node34 -->
<g id="node76" class="node"><title>Node34</title>
<polygon fill="white" stroke="#bfbfbf" points="2418,-0.5 2418,-21.5 2486,-21.5 2486,-0.5 2418,-0.5"/>
<text text-anchor="middle" x="2452" y="-8.5" font-family="Helvetica,sans-Serif" font-size="10.00">Eigen/Lgsm</text>
</g>
<!-- Node16&#45;&gt;Node34 -->
<g id="edge84" class="edge"><title>Node16&#45;&gt;Node34</title>
<path fill="none" stroke="midnightblue" d="M1248.84,-68.4598C1445.84,-66.1479 2159.82,-55.6835 2407.82,-21.8474"/>
<polygon fill="midnightblue" stroke="midnightblue" points="2408.45,-25.2931 2417.86,-20.4268 2407.47,-18.3621 2408.45,-25.2931"/>
</g>
<!-- Node39&#45;&gt;Node13 -->
<g id="edge120" class="edge"><title>Node39&#45;&gt;Node13</title>
<path fill="none" stroke="midnightblue" d="M1796.91,-232.139C1829.96,-199.902 1933.19,-104.151 2038,-58 2110.13,-26.2366 2137.75,-42.3795 2217.75,-21.994"/>
<polygon fill="midnightblue" stroke="midnightblue" points="2219.01,-25.2799 2227.77,-19.3212 2217.21,-18.5163 2219.01,-25.2799"/>
</g>
<!-- Node39&#45;&gt;Node16 -->
<g id="edge114" class="edge"><title>Node39&#45;&gt;Node16</title>
<path fill="none" stroke="midnightblue" d="M1774.01,-232.35C1756.13,-217.056 1720.85,-189.063 1686,-174 1540.36,-111.055 1353.45,-84.4387 1258.78,-74.3832"/>
<polygon fill="midnightblue" stroke="midnightblue" points="1259.11,-70.899 1248.8,-73.349 1258.39,-77.8617 1259.11,-70.899"/>
</g>
<!-- Node39&#45;&gt;Node33 -->
<g id="edge118" class="edge"><title>Node39&#45;&gt;Node33</title>
<path fill="none" stroke="midnightblue" d="M1808.31,-232.448C1839.37,-218.015 1897.63,-191.871 1949,-174 2052.66,-137.939 2372.87,-54.1898 2493.44,-22.9942"/>
<polygon fill="midnightblue" stroke="midnightblue" points="2494.66,-26.2946 2503.46,-20.403 2492.91,-19.5175 2494.66,-26.2946"/>
</g>
<!-- Node40 -->
<g id="node98" class="node"><title>Node40</title>
<polygon fill="white" stroke="#bfbfbf" points="1560.5,-174.5 1560.5,-195.5 1677.5,-195.5 1677.5,-174.5 1560.5,-174.5"/>
<text text-anchor="middle" x="1619" y="-182.5" font-family="Helvetica,sans-Serif" font-size="10.00">ocra/util/ErrorsHelper.h</text>
</g>
<!-- Node39&#45;&gt;Node40 -->
<g id="edge116" class="edge"><title>Node39&#45;&gt;Node40</title>
<path fill="none" stroke="midnightblue" d="M1755.76,-232.497C1728.65,-223.082 1688.69,-209.204 1658.96,-198.877"/>
<polygon fill="midnightblue" stroke="midnightblue" points="1659.89,-195.498 1649.3,-195.523 1657.6,-202.11 1659.89,-195.498"/>
</g>
<!-- Node39&#45;&gt;Node41 -->
<g id="edge122" class="edge"><title>Node39&#45;&gt;Node41</title>
<path fill="none" stroke="midnightblue" d="M1826.56,-232.497C1863.87,-222.836 1919.33,-208.477 1959.5,-198.077"/>
<polygon fill="midnightblue" stroke="midnightblue" points="1960.56,-201.418 1969.36,-195.523 1958.8,-194.641 1960.56,-201.418"/>
</g>
<!-- Node42&#45;&gt;Node36 -->
<g id="edge126" class="edge"><title>Node42&#45;&gt;Node36</title>
<path fill="none" stroke="midnightblue" d="M1731.02,-290.497C1661.48,-280.488 1556.89,-265.436 1484.16,-254.969"/>
<polygon fill="midnightblue" stroke="midnightblue" points="1484.51,-251.483 1474.12,-253.523 1483.52,-258.412 1484.51,-251.483"/>
</g>
<!-- Node42&#45;&gt;Node41 -->
<g id="edge128" class="edge"><title>Node42&#45;&gt;Node41</title>
<path fill="none" stroke="midnightblue" d="M1823.01,-290.295C1859.59,-269.698 1939.89,-224.48 1982.38,-200.555"/>
<polygon fill="midnightblue" stroke="midnightblue" points="1984.34,-203.468 1991.33,-195.512 1980.9,-197.369 1984.34,-203.468"/>
</g>
<!-- Node43&#45;&gt;Node5 -->
<g id="edge138" class="edge"><title>Node43&#45;&gt;Node5</title>
<path fill="none" stroke="midnightblue" d="M1993.42,-295.866C1854.65,-286.443 1574.33,-266.236 1531,-254 1509.96,-248.058 1508,-238.075 1487,-232 1414.97,-211.166 1206.29,-196.152 1092.38,-189.247"/>
<polygon fill="midnightblue" stroke="midnightblue" points="1092.53,-185.749 1082.34,-188.644 1092.11,-192.737 1092.53,-185.749"/>
</g>
<!-- Node43&#45;&gt;Node22 -->
<g id="edge140" class="edge"><title>Node43&#45;&gt;Node22</title>
<path fill="none" stroke="midnightblue" d="M2071.35,-290.229C2072.95,-247.659 2081.03,-91.8242 2114,-58 2119.86,-51.9893 2213.1,-34.3765 2279.3,-22.5028"/>
<polygon fill="midnightblue" stroke="midnightblue" points="2280.04,-25.9264 2289.27,-20.722 2278.81,-19.0356 2280.04,-25.9264"/>
</g>
<!-- Node43&#45;&gt;Node33 -->
<g id="edge142" class="edge"><title>Node43&#45;&gt;Node33</title>
<path fill="none" stroke="midnightblue" d="M2148.77,-291C2253.13,-277.542 2425.69,-255.142 2427,-254 2450.98,-233.106 2446,-216.808 2446,-185 2446,-185 2446,-185 2446,-127 2446,-83.7291 2485.97,-47.5659 2513.78,-27.6402"/>
<polygon fill="midnightblue" stroke="midnightblue" points="2516.07,-30.3115 2522.32,-21.7529 2512.1,-24.5489 2516.07,-30.3115"/>
</g>
<!-- Node43&#45;&gt;Node34 -->
<g id="edge144" class="edge"><title>Node43&#45;&gt;Node34</title>
<path fill="none" stroke="midnightblue" d="M2080.41,-290.346C2096.6,-270.881 2128,-227.634 2128,-185 2128,-185 2128,-185 2128,-127 2128,-112.294 2319.69,-51.5806 2408.18,-24.3367"/>
<polygon fill="midnightblue" stroke="midnightblue" points="2409.41,-27.6225 2417.94,-21.3405 2407.35,-20.9311 2409.41,-27.6225"/>
</g>
<!-- Node43&#45;&gt;Node41 -->
<g id="edge136" class="edge"><title>Node43&#45;&gt;Node41</title>
<path fill="none" stroke="midnightblue" d="M2065.37,-290.295C2055.16,-270.872 2033.43,-229.556 2020.44,-204.846"/>
<polygon fill="midnightblue" stroke="midnightblue" points="2023.37,-202.901 2015.62,-195.679 2017.17,-206.159 2023.37,-202.901"/>
</g>
<!-- Node44 -->
<g id="node111" class="node"><title>Node44</title>
<polygon fill="white" stroke="#bfbfbf" points="2156,-232.5 2156,-253.5 2230,-253.5 2230,-232.5 2156,-232.5"/>
<text text-anchor="middle" x="2193" y="-240.5" font-family="Helvetica,sans-Serif" font-size="10.00">gurobi_c++.h</text>
</g>
<!-- Node43&#45;&gt;Node44 -->
<g id="edge134" class="edge"><title>Node43&#45;&gt;Node44</title>
<path fill="none" stroke="midnightblue" d="M2093.09,-290.497C2112.23,-281.397 2140.15,-268.127 2161.61,-257.925"/>
<polygon fill="midnightblue" stroke="midnightblue" points="2163.13,-261.076 2170.66,-253.621 2160.12,-254.754 2163.13,-261.076"/>
</g>
<!-- Node45 -->
<g id="node118" class="node"><title>Node45</title>
<polygon fill="white" stroke="#bfbfbf" points="2248,-232.5 2248,-253.5 2418,-253.5 2418,-232.5 2248,-232.5"/>
<text text-anchor="middle" x="2333" y="-240.5" font-family="Helvetica,sans-Serif" font-size="10.00">unsupported/Eigen/MatrixFunctions</text>
</g>
<!-- Node43&#45;&gt;Node45 -->
<g id="edge146" class="edge"><title>Node43&#45;&gt;Node45</title>
<path fill="none" stroke="midnightblue" d="M2118.45,-290.497C2162.55,-280.734 2228.33,-266.172 2275.42,-255.747"/>
<polygon fill="midnightblue" stroke="midnightblue" points="2276.46,-259.102 2285.46,-253.523 2274.94,-252.267 2276.46,-259.102"/>
</g>
<!-- Node46 -->
<g id="node120" class="node"><title>Node46</title>
<a xlink:href="MIQPLinearConstraints_8h.html" target="_top" xlink:title="walking&#45;client/constraints/MIQPLinearConstraints.h">
<polygon fill="white" stroke="red" points="2474,-232.5 2474,-253.5 2714,-253.5 2714,-232.5 2474,-232.5"/>
<text text-anchor="middle" x="2594" y="-240.5" font-family="Helvetica,sans-Serif" font-size="10.00">walking&#45;client/constraints/MIQPLinearConstraints.h</text>
</a>
</g>
<!-- Node43&#45;&gt;Node46 -->
<g id="edge148" class="edge"><title>Node43&#45;&gt;Node46</title>
<path fill="none" stroke="midnightblue" d="M2148.81,-290.977C2151.57,-290.643 2154.31,-290.317 2157,-290 2266.82,-277.072 2392.34,-263.72 2480.59,-254.566"/>
<polygon fill="midnightblue" stroke="midnightblue" points="2481.04,-258.039 2490.63,-253.527 2480.32,-251.076 2481.04,-258.039"/>
</g>
<!-- Node48 -->
<g id="node124" class="node"><title>Node48</title>
<a xlink:href="MIQPState_8h.html" target="_top" xlink:title="walking&#45;client/MIQPState.h">
<polygon fill="white" stroke="black" points="1540,-232.5 1540,-253.5 1676,-253.5 1676,-232.5 1540,-232.5"/>
<text text-anchor="middle" x="1608" y="-240.5" font-family="Helvetica,sans-Serif" font-size="10.00">walking&#45;client/MIQPState.h</text>
</a>
</g>
<!-- Node43&#45;&gt;Node48 -->
<g id="edge152" class="edge"><title>Node43&#45;&gt;Node48</title>
<path fill="none" stroke="midnightblue" d="M1993.31,-292.02C1917.6,-283.159 1798.95,-268.983 1686.2,-254.139"/>
<polygon fill="midnightblue" stroke="midnightblue" points="1686.38,-250.633 1676.01,-252.794 1685.47,-257.573 1686.38,-250.633"/>
</g>
<!-- Node49 -->
<g id="node131" class="node"><title>Node49</title>
<polygon fill="white" stroke="#bfbfbf" points="1971.5,-232.5 1971.5,-253.5 2024.5,-253.5 2024.5,-232.5 1971.5,-232.5"/>
<text text-anchor="middle" x="1998" y="-240.5" font-family="Helvetica,sans-Serif" font-size="10.00">Gurobi.h</text>
</g>
<!-- Node43&#45;&gt;Node49 -->
<g id="edge164" class="edge"><title>Node43&#45;&gt;Node49</title>
<path fill="none" stroke="midnightblue" d="M2057.61,-290.362C2046.91,-281.859 2031.7,-269.779 2019.33,-259.947"/>
<polygon fill="midnightblue" stroke="midnightblue" points="2021.31,-257.051 2011.3,-253.571 2016.96,-262.532 2021.31,-257.051"/>
</g>
<!-- Node47 -->
<g id="node122" class="node"><title>Node47</title>
<a xlink:href="ShapeConstraints_8h.html" target="_top" xlink:title="walking&#45;client/constraints/ShapeConstraints.h">
<polygon fill="white" stroke="red" points="2486,-174.5 2486,-195.5 2702,-195.5 2702,-174.5 2486,-174.5"/>
<text text-anchor="middle" x="2594" y="-182.5" font-family="Helvetica,sans-Serif" font-size="10.00">walking&#45;client/constraints/ShapeConstraints.h</text>
</a>
</g>
<!-- Node46&#45;&gt;Node47 -->
<g id="edge150" class="edge"><title>Node46&#45;&gt;Node47</title>
<path fill="none" stroke="midnightblue" d="M2594,-232.362C2594,-224.922 2594,-214.743 2594,-205.728"/>
<polygon fill="midnightblue" stroke="midnightblue" points="2597.5,-205.571 2594,-195.571 2590.5,-205.571 2597.5,-205.571"/>
</g>
<!-- Node48&#45;&gt;Node5 -->
<g id="edge156" class="edge"><title>Node48&#45;&gt;Node5</title>
<path fill="none" stroke="midnightblue" d="M1539.72,-233.838C1534.4,-233.192 1529.12,-232.571 1524,-232 1371.19,-214.931 1192.01,-199.398 1092.51,-191.168"/>
<polygon fill="midnightblue" stroke="midnightblue" points="1092.5,-187.655 1082.25,-190.321 1091.92,-194.632 1092.5,-187.655"/>
</g>
<!-- Node48&#45;&gt;Node16 -->
<g id="edge162" class="edge"><title>Node48&#45;&gt;Node16</title>
<path fill="none" stroke="midnightblue" d="M1582.97,-232.377C1512.69,-202.553 1313.44,-117.991 1232.66,-83.7085"/>
<polygon fill="midnightblue" stroke="midnightblue" points="1233.54,-80.2787 1222.96,-79.5938 1230.8,-86.7224 1233.54,-80.2787"/>
</g>
<!-- Node48&#45;&gt;Node33 -->
<g id="edge154" class="edge"><title>Node48&#45;&gt;Node33</title>
<path fill="none" stroke="midnightblue" d="M1641.19,-232.441C1738.35,-201.833 2031.01,-111.827 2279,-58 2370.95,-38.0414 2397.89,-41.3162 2493.15,-22.272"/>
<polygon fill="midnightblue" stroke="midnightblue" points="2494.11,-25.6489 2503.21,-20.2291 2492.72,-18.7889 2494.11,-25.6489"/>
</g>
<!-- Node48&#45;&gt;Node40 -->
<g id="edge158" class="edge"><title>Node48&#45;&gt;Node40</title>
<path fill="none" stroke="midnightblue" d="M1610.02,-232.362C1611.44,-224.84 1613.4,-214.519 1615.13,-205.431"/>
<polygon fill="midnightblue" stroke="midnightblue" points="1618.57,-206.048 1617,-195.571 1611.69,-204.743 1618.57,-206.048"/>
</g>
<!-- Node48&#45;&gt;Node41 -->
<g id="edge160" class="edge"><title>Node48&#45;&gt;Node41</title>
<path fill="none" stroke="midnightblue" d="M1676.19,-233.161C1752.04,-222.218 1873.54,-204.688 1947.16,-194.067"/>
<polygon fill="midnightblue" stroke="midnightblue" points="1947.82,-197.508 1957.21,-192.616 1946.82,-190.58 1947.82,-197.508"/>
</g>
</g>
</svg>
