<?xml version="1.0" encoding="UTF-8" standalone="no"?>
<!DOCTYPE svg PUBLIC "-//W3C//DTD SVG 1.1//EN"
 "http://www.w3.org/Graphics/SVG/1.1/DTD/svg11.dtd">
<!-- Generated by graphviz version 2.26.3 (20100126.1600)
 -->
<!-- Title: G Pages: 1 -->
<svg width="2997pt" height="436pt"
 viewBox="0.00 0.00 2997.00 436.00" xmlns="http://www.w3.org/2000/svg" xmlns:xlink="http://www.w3.org/1999/xlink">
<g id="graph1" class="graph" transform="scale(1 1) rotate(0) translate(4 432)">
<title>G</title>
<polygon fill="white" stroke="white" points="-4,5 -4,-432 2994,-432 2994,5 -4,5"/>
<!-- Node1 -->
<g id="node1" class="node"><title>Node1</title>
<polygon fill="#bfbfbf" stroke="black" points="2331.5,-406.5 2331.5,-427.5 2654.5,-427.5 2654.5,-406.5 2331.5,-406.5"/>
<text text-anchor="middle" x="2493" y="-414.5" font-family="Helvetica,sans-Serif" font-size="10.00">ocra&#45;wbi&#45;plugins/ocra&#45;icub&#45;clients/walking&#45;client/src/WalkingClient.cpp</text>
</g>
<!-- Node2 -->
<g id="node3" class="node"><title>Node2</title>
<a xlink:href="WalkingClient_8h.html" target="_top" xlink:title="walking&#45;client/WalkingClient.h">
<polygon fill="white" stroke="black" points="2419,-348.5 2419,-369.5 2567,-369.5 2567,-348.5 2419,-348.5"/>
<text text-anchor="middle" x="2493" y="-356.5" font-family="Helvetica,sans-Serif" font-size="10.00">walking&#45;client/WalkingClient.h</text>
</a>
</g>
<!-- Node1&#45;&gt;Node2 -->
<g id="edge2" class="edge"><title>Node1&#45;&gt;Node2</title>
<path fill="none" stroke="midnightblue" d="M2493,-406.362C2493,-398.922 2493,-388.743 2493,-379.728"/>
<polygon fill="midnightblue" stroke="midnightblue" points="2496.5,-379.571 2493,-369.571 2489.5,-379.571 2496.5,-379.571"/>
</g>
<!-- Node3 -->
<g id="node5" class="node"><title>Node3</title>
<a xlink:href="IcubClient_8h.html" target="_top" xlink:title="ocra&#45;icub/IcubClient.h">
<polygon fill="white" stroke="black" points="1118,-290.5 1118,-311.5 1230,-311.5 1230,-290.5 1118,-290.5"/>
<text text-anchor="middle" x="1174" y="-298.5" font-family="Helvetica,sans-Serif" font-size="10.00">ocra&#45;icub/IcubClient.h</text>
</a>
</g>
<!-- Node2&#45;&gt;Node3 -->
<g id="edge4" class="edge"><title>Node2&#45;&gt;Node3</title>
<path fill="none" stroke="midnightblue" d="M2418.78,-355.736C2184.61,-345.439 1463.68,-313.738 1240.53,-303.926"/>
<polygon fill="midnightblue" stroke="midnightblue" points="1240.43,-300.418 1230.29,-303.475 1240.12,-307.411 1240.43,-300.418"/>
</g>
<!-- Node28 -->
<g id="node60" class="node"><title>Node28</title>
<polygon fill="white" stroke="#bfbfbf" points="2494,-0.5 2494,-21.5 2576,-21.5 2576,-0.5 2494,-0.5"/>
<text text-anchor="middle" x="2535" y="-8.5" font-family="Helvetica,sans-Serif" font-size="10.00">yarp/os/Time.h</text>
</g>
<!-- Node2&#45;&gt;Node28 -->
<g id="edge134" class="edge"><title>Node2&#45;&gt;Node28</title>
<path fill="none" stroke="midnightblue" d="M2497.49,-348.226C2508.33,-321.246 2535,-248.395 2535,-185 2535,-185 2535,-185 2535,-127 2535,-93.5978 2535,-54.7853 2535,-31.5939"/>
<polygon fill="midnightblue" stroke="midnightblue" points="2538.5,-31.5561 2535,-21.5561 2531.5,-31.5561 2538.5,-31.5561"/>
</g>
<!-- Node36 -->
<g id="node89" class="node"><title>Node36</title>
<polygon fill="white" stroke="#bfbfbf" points="2352.5,-232.5 2352.5,-253.5 2507.5,-253.5 2507.5,-232.5 2352.5,-232.5"/>
<text text-anchor="middle" x="2430" y="-240.5" font-family="Helvetica,sans-Serif" font-size="10.00">ocra&#45;recipes/TrajectoryThread.h</text>
</g>
<!-- Node2&#45;&gt;Node36 -->
<g id="edge106" class="edge"><title>Node2&#45;&gt;Node36</title>
<path fill="none" stroke="midnightblue" d="M2491.65,-348.103C2489.55,-333.96 2484.56,-308.862 2474,-290 2467.89,-279.099 2458.73,-268.757 2450.35,-260.564"/>
<polygon fill="midnightblue" stroke="midnightblue" points="2452.67,-257.949 2442.97,-253.689 2447.9,-263.069 2452.67,-257.949"/>
</g>
<!-- Node37 -->
<g id="node91" class="node"><title>Node37</title>
<polygon fill="white" stroke="#bfbfbf" points="2560.5,-290.5 2560.5,-311.5 2709.5,-311.5 2709.5,-290.5 2560.5,-290.5"/>
<text text-anchor="middle" x="2635" y="-298.5" font-family="Helvetica,sans-Serif" font-size="10.00">ocra&#45;recipes/ControllerClient.h</text>
</g>
<!-- Node2&#45;&gt;Node37 -->
<g id="edge108" class="edge"><title>Node2&#45;&gt;Node37</title>
<path fill="none" stroke="midnightblue" d="M2518.72,-348.497C2541.29,-339.275 2574.36,-325.769 2599.46,-315.515"/>
<polygon fill="midnightblue" stroke="midnightblue" points="2601.06,-318.643 2609,-311.621 2598.42,-312.162 2601.06,-318.643"/>
</g>
<!-- Node38 -->
<g id="node93" class="node"><title>Node38</title>
<polygon fill="white" stroke="#bfbfbf" points="2727,-290.5 2727,-311.5 2847,-311.5 2847,-290.5 2727,-290.5"/>
<text text-anchor="middle" x="2787" y="-298.5" font-family="Helvetica,sans-Serif" font-size="10.00">ocra/util/EigenUtilities.h</text>
</g>
<!-- Node2&#45;&gt;Node38 -->
<g id="edge110" class="edge"><title>Node2&#45;&gt;Node38</title>
<path fill="none" stroke="midnightblue" d="M2546.24,-348.497C2596.14,-338.652 2670.78,-323.927 2723.71,-313.486"/>
<polygon fill="midnightblue" stroke="midnightblue" points="2724.53,-316.892 2733.66,-311.523 2723.17,-310.025 2724.53,-316.892"/>
</g>
<!-- Node39 -->
<g id="node95" class="node"><title>Node39</title>
<a xlink:href="ZmpPreviewController_8h.html" target="_top" xlink:title="walking&#45;client/ZmpPreviewController.h">
<polygon fill="white" stroke="black" points="2067,-290.5 2067,-311.5 2251,-311.5 2251,-290.5 2067,-290.5"/>
<text text-anchor="middle" x="2159" y="-298.5" font-family="Helvetica,sans-Serif" font-size="10.00">walking&#45;client/ZmpPreviewController.h</text>
</a>
</g>
<!-- Node2&#45;&gt;Node39 -->
<g id="edge112" class="edge"><title>Node2&#45;&gt;Node39</title>
<path fill="none" stroke="midnightblue" d="M2432.52,-348.497C2375.47,-338.591 2289.97,-323.743 2229.78,-313.291"/>
<polygon fill="midnightblue" stroke="midnightblue" points="2230.05,-309.786 2219.6,-311.523 2228.85,-316.682 2230.05,-309.786"/>
</g>
<!-- Node41 -->
<g id="node102" class="node"><title>Node41</title>
<a xlink:href="utils_8h.html" target="_top" xlink:title="walking&#45;client/utils.h">
<polygon fill="white" stroke="black" points="2230.5,-232.5 2230.5,-253.5 2335.5,-253.5 2335.5,-232.5 2230.5,-232.5"/>
<text text-anchor="middle" x="2283" y="-240.5" font-family="Helvetica,sans-Serif" font-size="10.00">walking&#45;client/utils.h</text>
</a>
</g>
<!-- Node2&#45;&gt;Node41 -->
<g id="edge130" class="edge"><title>Node2&#45;&gt;Node41</title>
<path fill="none" stroke="midnightblue" d="M2424.54,-348.475C2379.29,-340.259 2325.25,-327.628 2308,-312 2294.32,-299.611 2288.12,-279.153 2285.31,-263.722"/>
<polygon fill="midnightblue" stroke="midnightblue" points="2288.73,-262.942 2283.81,-253.562 2281.81,-263.967 2288.73,-262.942"/>
</g>
<!-- Node42 -->
<g id="node104" class="node"><title>Node42</title>
<a xlink:href="StepController_8h.html" target="_top" xlink:title="walking&#45;client/StepController.h">
<polygon fill="white" stroke="black" points="2316.5,-290.5 2316.5,-311.5 2465.5,-311.5 2465.5,-290.5 2316.5,-290.5"/>
<text text-anchor="middle" x="2391" y="-298.5" font-family="Helvetica,sans-Serif" font-size="10.00">walking&#45;client/StepController.h</text>
</a>
</g>
<!-- Node2&#45;&gt;Node42 -->
<g id="edge124" class="edge"><title>Node2&#45;&gt;Node42</title>
<path fill="none" stroke="midnightblue" d="M2474.29,-348.362C2458.62,-339.45 2436.04,-326.609 2418.34,-316.545"/>
<polygon fill="midnightblue" stroke="midnightblue" points="2420.01,-313.471 2409.59,-311.571 2416.55,-319.556 2420.01,-313.471"/>
</g>
<!-- Node43 -->
<g id="node109" class="node"><title>Node43</title>
<polygon fill="white" stroke="#bfbfbf" points="2864.5,-290.5 2864.5,-311.5 2989.5,-311.5 2989.5,-290.5 2864.5,-290.5"/>
<text text-anchor="middle" x="2927" y="-298.5" font-family="Helvetica,sans-Serif" font-size="10.00">ocra/util/FileOperations.h</text>
</g>
<!-- Node2&#45;&gt;Node43 -->
<g id="edge132" class="edge"><title>Node2&#45;&gt;Node43</title>
<path fill="none" stroke="midnightblue" d="M2567.11,-349.953C2638.23,-341.147 2748.94,-327.111 2854.13,-312.243"/>
<polygon fill="midnightblue" stroke="midnightblue" points="2854.88,-315.672 2864.29,-310.802 2853.9,-308.741 2854.88,-315.672"/>
</g>
<!-- Node4 -->
<g id="node7" class="node"><title>Node4</title>
<a xlink:href="ModelInitializer_8h.html" target="_top" xlink:title="ocra&#45;icub/ModelInitializer.h">
<polygon fill="white" stroke="black" points="287.5,-232.5 287.5,-253.5 420.5,-253.5 420.5,-232.5 287.5,-232.5"/>
<text text-anchor="middle" x="354" y="-240.5" font-family="Helvetica,sans-Serif" font-size="10.00">ocra&#45;icub/ModelInitializer.h</text>
</a>
</g>
<!-- Node3&#45;&gt;Node4 -->
<g id="edge6" class="edge"><title>Node3&#45;&gt;Node4</title>
<path fill="none" stroke="midnightblue" d="M1117.96,-297.036C974.604,-286.896 594.352,-260.001 430.686,-248.424"/>
<polygon fill="midnightblue" stroke="midnightblue" points="430.917,-244.932 420.694,-247.717 430.423,-251.914 430.917,-244.932"/>
</g>
<!-- Node5 -->
<g id="node9" class="node"><title>Node5</title>
<a xlink:href="OcraWbiModel_8h.html" target="_top" xlink:title="Implementation of ocra::Model using wholeBodyInterface.">
<polygon fill="white" stroke="black" points="515,-174.5 515,-195.5 647,-195.5 647,-174.5 515,-174.5"/>
<text text-anchor="middle" x="581" y="-182.5" font-family="Helvetica,sans-Serif" font-size="10.00">ocra&#45;icub/OcraWbiModel.h</text>
</a>
</g>
<!-- Node3&#45;&gt;Node5 -->
<g id="edge102" class="edge"><title>Node3&#45;&gt;Node5</title>
<path fill="none" stroke="midnightblue" d="M1120.07,-290.45C1010.48,-269.014 762.265,-220.458 644.844,-197.489"/>
<polygon fill="midnightblue" stroke="midnightblue" points="645.402,-194.032 634.917,-195.547 644.059,-200.902 645.402,-194.032"/>
</g>
<!-- Node10 -->
<g id="node19" class="node"><title>Node10</title>
<a xlink:href="OcraWbiConversions_8h.html" target="_top" xlink:title="A utility class full of static conversion functions.">
<polygon fill="white" stroke="black" points="1201.5,-116.5 1201.5,-137.5 1362.5,-137.5 1362.5,-116.5 1201.5,-116.5"/>
<text text-anchor="middle" x="1282" y="-124.5" font-family="Helvetica,sans-Serif" font-size="10.00">ocra&#45;icub/OcraWbiConversions.h</text>
</a>
</g>
<!-- Node3&#45;&gt;Node10 -->
<g id="edge100" class="edge"><title>Node3&#45;&gt;Node10</title>
<path fill="none" stroke="midnightblue" d="M1180.59,-290.377C1198.25,-261.93 1246.82,-183.684 1269.73,-146.769"/>
<polygon fill="midnightblue" stroke="midnightblue" points="1272.92,-148.27 1275.22,-137.928 1266.97,-144.578 1272.92,-148.27"/>
</g>
<!-- Node16 -->
<g id="node33" class="node"><title>Node16</title>
<a xlink:href="Utilities_8h.html" target="_top" xlink:title="Some useful tools for the ocra&#45;icub lib.">
<polygon fill="white" stroke="black" points="1231.5,-58.5 1231.5,-79.5 1332.5,-79.5 1332.5,-58.5 1231.5,-58.5"/>
<text text-anchor="middle" x="1282" y="-66.5" font-family="Helvetica,sans-Serif" font-size="10.00">ocra&#45;icub/Utilities.h</text>
</a>
</g>
<!-- Node3&#45;&gt;Node16 -->
<g id="edge104" class="edge"><title>Node3&#45;&gt;Node16</title>
<path fill="none" stroke="midnightblue" d="M1171.87,-290.239C1166.48,-259.845 1155.25,-171.935 1193,-116 1202.97,-101.229 1219.12,-90.7672 1234.94,-83.5262"/>
<polygon fill="midnightblue" stroke="midnightblue" points="1236.33,-86.7423 1244.18,-79.6266 1233.6,-80.294 1236.33,-86.7423"/>
</g>
<!-- Node4&#45;&gt;Node5 -->
<g id="edge8" class="edge"><title>Node4&#45;&gt;Node5</title>
<path fill="none" stroke="midnightblue" d="M395.108,-232.497C432.996,-222.816 489.356,-208.416 530.08,-198.01"/>
<polygon fill="midnightblue" stroke="midnightblue" points="530.993,-201.39 539.815,-195.523 529.26,-194.608 530.993,-201.39"/>
</g>
<!-- Node7 -->
<g id="node13" class="node"><title>Node7</title>
<polygon fill="white" stroke="#bfbfbf" points="-0.5,-0.5 -0.5,-21.5 104.5,-21.5 104.5,-0.5 -0.5,-0.5"/>
<text text-anchor="middle" x="52" y="-8.5" font-family="Helvetica,sans-Serif" font-size="10.00">ocra/control/Model.h</text>
</g>
<!-- Node4&#45;&gt;Node7 -->
<g id="edge88" class="edge"><title>Node4&#45;&gt;Node7</title>
<path fill="none" stroke="midnightblue" d="M340.239,-232.429C292.385,-195.667 132.948,-73.1848 74.0834,-27.9647"/>
<polygon fill="midnightblue" stroke="midnightblue" points="75.9043,-24.95 65.8419,-21.6335 71.6398,-30.5011 75.9043,-24.95"/>
</g>
<!-- Node9 -->
<g id="node17" class="node"><title>Node9</title>
<polygon fill="white" stroke="#bfbfbf" points="368,-0.5 368,-21.5 444,-21.5 444,-0.5 368,-0.5"/>
<text text-anchor="middle" x="406" y="-8.5" font-family="Helvetica,sans-Serif" font-size="10.00">yarp/os/Log.h</text>
</g>
<!-- Node4&#45;&gt;Node9 -->
<g id="edge98" class="edge"><title>Node4&#45;&gt;Node9</title>
<path fill="none" stroke="midnightblue" d="M356.369,-232.429C364.406,-196.573 390.721,-79.1689 401.417,-31.4458"/>
<polygon fill="midnightblue" stroke="midnightblue" points="404.845,-32.1569 403.617,-21.6335 398.014,-30.6259 404.845,-32.1569"/>
</g>
<!-- Node15 -->
<g id="node31" class="node"><title>Node15</title>
<polygon fill="white" stroke="#bfbfbf" points="628,-58.5 628,-79.5 870,-79.5 870,-58.5 628,-58.5"/>
<text text-anchor="middle" x="749" y="-66.5" font-family="Helvetica,sans-Serif" font-size="10.00">yarpWholeBodyInterface/yarpWholeBodyInterface.h</text>
</g>
<!-- Node4&#45;&gt;Node15 -->
<g id="edge90" class="edge"><title>Node4&#45;&gt;Node15</title>
<path fill="none" stroke="midnightblue" d="M356.985,-232.443C361.818,-217.266 372.809,-189.416 392,-174 459.002,-120.18 552.769,-93.9412 627.393,-81.152"/>
<polygon fill="midnightblue" stroke="midnightblue" points="628.029,-84.5943 637.324,-79.5094 626.887,-77.6881 628.029,-84.5943"/>
</g>
<!-- Node25 -->
<g id="node54" class="node"><title>Node25</title>
<polygon fill="white" stroke="#bfbfbf" points="122,-0.5 122,-21.5 226,-21.5 226,-0.5 122,-0.5"/>
<text text-anchor="middle" x="174" y="-8.5" font-family="Helvetica,sans-Serif" font-size="10.00">yarp/os/RpcClient.h</text>
</g>
<!-- Node4&#45;&gt;Node25 -->
<g id="edge92" class="edge"><title>Node4&#45;&gt;Node25</title>
<path fill="none" stroke="midnightblue" d="M345.798,-232.429C317.627,-196.12 224.578,-76.1899 188.486,-29.671"/>
<polygon fill="midnightblue" stroke="midnightblue" points="191.145,-27.3889 182.25,-21.6335 185.615,-31.6799 191.145,-27.3889"/>
</g>
<!-- Node29 -->
<g id="node63" class="node"><title>Node29</title>
<polygon fill="white" stroke="#bfbfbf" points="243.5,-0.5 243.5,-21.5 350.5,-21.5 350.5,-0.5 243.5,-0.5"/>
<text text-anchor="middle" x="297" y="-8.5" font-family="Helvetica,sans-Serif" font-size="10.00">yarp/os/LogStream.h</text>
</g>
<!-- Node4&#45;&gt;Node29 -->
<g id="edge96" class="edge"><title>Node4&#45;&gt;Node29</title>
<path fill="none" stroke="midnightblue" d="M351.403,-232.429C342.593,-196.573 313.748,-79.1689 302.023,-31.4458"/>
<polygon fill="midnightblue" stroke="midnightblue" points="305.397,-30.5096 299.613,-21.6335 298.6,-32.1798 305.397,-30.5096"/>
</g>
<!-- Node35 -->
<g id="node82" class="node"><title>Node35</title>
<polygon fill="white" stroke="#bfbfbf" points="400.5,-174.5 400.5,-195.5 497.5,-195.5 497.5,-174.5 400.5,-174.5"/>
<text text-anchor="middle" x="449" y="-182.5" font-family="Helvetica,sans-Serif" font-size="10.00">yarp/os/Network.h</text>
</g>
<!-- Node4&#45;&gt;Node35 -->
<g id="edge94" class="edge"><title>Node4&#45;&gt;Node35</title>
<path fill="none" stroke="midnightblue" d="M371.424,-232.362C385.887,-223.532 406.669,-210.844 423.084,-200.822"/>
<polygon fill="midnightblue" stroke="midnightblue" points="424.975,-203.769 431.686,-195.571 421.327,-197.794 424.975,-203.769"/>
</g>
<!-- Node6 -->
<g id="node11" class="node"><title>Node6</title>
<polygon fill="white" stroke="#bfbfbf" points="462,-0.5 462,-21.5 514,-21.5 514,-0.5 462,-0.5"/>
<text text-anchor="middle" x="488" y="-8.5" font-family="Helvetica,sans-Serif" font-size="10.00">memory</text>
</g>
<!-- Node5&#45;&gt;Node6 -->
<g id="edge10" class="edge"><title>Node5&#45;&gt;Node6</title>
<path fill="none" stroke="midnightblue" d="M575.322,-174.377C560.118,-145.93 518.297,-67.6838 498.566,-30.7689"/>
<polygon fill="midnightblue" stroke="midnightblue" points="501.641,-29.0972 493.841,-21.9277 495.468,-32.3969 501.641,-29.0972"/>
</g>
<!-- Node5&#45;&gt;Node7 -->
<g id="edge12" class="edge"><title>Node5&#45;&gt;Node7</title>
<path fill="none" stroke="midnightblue" d="M548.705,-174.377C457.2,-144.279 196.218,-58.4364 93.8902,-24.7786"/>
<polygon fill="midnightblue" stroke="midnightblue" points="94.8006,-21.3937 84.2076,-21.5938 92.6134,-28.0432 94.8006,-21.3937"/>
</g>
<!-- Node8 -->
<g id="node15" class="node"><title>Node8</title>
<polygon fill="white" stroke="#bfbfbf" points="532,-0.5 532,-21.5 590,-21.5 590,-0.5 532,-0.5"/>
<text text-anchor="middle" x="561" y="-8.5" font-family="Helvetica,sans-Serif" font-size="10.00">wbi/wbi.h</text>
</g>
<!-- Node5&#45;&gt;Node8 -->
<g id="edge14" class="edge"><title>Node5&#45;&gt;Node8</title>
<path fill="none" stroke="midnightblue" d="M579.779,-174.377C576.551,-146.293 567.744,-69.6735 563.437,-32.2027"/>
<polygon fill="midnightblue" stroke="midnightblue" points="566.875,-31.4626 562.256,-21.9277 559.921,-32.262 566.875,-31.4626"/>
</g>
<!-- Node5&#45;&gt;Node9 -->
<g id="edge16" class="edge"><title>Node5&#45;&gt;Node9</title>
<path fill="none" stroke="midnightblue" d="M570.316,-174.377C541.34,-145.567 460.992,-65.6779 424.481,-29.3755"/>
<polygon fill="midnightblue" stroke="midnightblue" points="426.55,-26.4966 416.991,-21.9277 421.614,-31.4605 426.55,-26.4966"/>
</g>
<!-- Node5&#45;&gt;Node10 -->
<g id="edge18" class="edge"><title>Node5&#45;&gt;Node10</title>
<path fill="none" stroke="midnightblue" d="M647.264,-179.517C773.417,-169.08 1048.24,-146.341 1191.32,-134.503"/>
<polygon fill="midnightblue" stroke="midnightblue" points="1191.71,-137.982 1201.39,-133.67 1191.14,-131.006 1191.71,-137.982"/>
</g>
<!-- Node5&#45;&gt;Node16 -->
<g id="edge86" class="edge"><title>Node5&#45;&gt;Node16</title>
<path fill="none" stroke="midnightblue" d="M644.756,-174.45C779.128,-152.214 1089.84,-100.799 1221.4,-79.0283"/>
<polygon fill="midnightblue" stroke="midnightblue" points="1222.01,-82.4739 1231.31,-77.3882 1220.87,-75.5678 1222.01,-82.4739"/>
</g>
<!-- Node10&#45;&gt;Node8 -->
<g id="edge30" class="edge"><title>Node10&#45;&gt;Node8</title>
<path fill="none" stroke="midnightblue" d="M1255.79,-116.487C1215.51,-100.832 1135.62,-71.7634 1065,-58 864.294,-18.8835 805.232,-57.8185 600.192,-21.8974"/>
<polygon fill="midnightblue" stroke="midnightblue" points="600.777,-18.4465 590.317,-20.1296 599.544,-25.337 600.777,-18.4465"/>
</g>
<!-- Node10&#45;&gt;Node9 -->
<g id="edge28" class="edge"><title>Node10&#45;&gt;Node9</title>
<path fill="none" stroke="midnightblue" d="M1229.08,-116.457C1152.26,-101.487 1005.21,-74.1081 879,-58 693.742,-34.3563 642.413,-51.1331 454.077,-21.9763"/>
<polygon fill="midnightblue" stroke="midnightblue" points="454.55,-18.5077 444.128,-20.4134 453.463,-25.4229 454.55,-18.5077"/>
</g>
<!-- Node11 -->
<g id="node21" class="node"><title>Node11</title>
<polygon fill="white" stroke="#bfbfbf" points="2270,-0.5 2270,-21.5 2324,-21.5 2324,-0.5 2270,-0.5"/>
<text text-anchor="middle" x="2297" y="-8.5" font-family="Helvetica,sans-Serif" font-size="10.00">iostream</text>
</g>
<!-- Node10&#45;&gt;Node11 -->
<g id="edge20" class="edge"><title>Node10&#45;&gt;Node11</title>
<path fill="none" stroke="midnightblue" d="M1362.58,-124.28C1529.52,-117.368 1924.85,-94.3671 2260.1,-21.9215"/>
<polygon fill="midnightblue" stroke="midnightblue" points="2260.97,-25.313 2270,-19.7637 2259.48,-18.4735 2260.97,-25.313"/>
</g>
<!-- Node12 -->
<g id="node23" class="node"><title>Node12</title>
<polygon fill="white" stroke="#bfbfbf" points="1349.5,-58.5 1349.5,-79.5 1384.5,-79.5 1384.5,-58.5 1349.5,-58.5"/>
<text text-anchor="middle" x="1367" y="-66.5" font-family="Helvetica,sans-Serif" font-size="10.00">map</text>
</g>
<!-- Node10&#45;&gt;Node12 -->
<g id="edge22" class="edge"><title>Node10&#45;&gt;Node12</title>
<path fill="none" stroke="midnightblue" d="M1297.59,-116.362C1310.29,-107.696 1328.44,-95.3126 1342.99,-85.3819"/>
<polygon fill="midnightblue" stroke="midnightblue" points="1345.22,-88.0982 1351.51,-79.5707 1341.28,-82.316 1345.22,-88.0982"/>
</g>
<!-- Node13 -->
<g id="node25" class="node"><title>Node13</title>
<polygon fill="white" stroke="#bfbfbf" points="2432,-0.5 2432,-21.5 2476,-21.5 2476,-0.5 2432,-0.5"/>
<text text-anchor="middle" x="2454" y="-8.5" font-family="Helvetica,sans-Serif" font-size="10.00">vector</text>
</g>
<!-- Node10&#45;&gt;Node13 -->
<g id="edge24" class="edge"><title>Node10&#45;&gt;Node13</title>
<path fill="none" stroke="midnightblue" d="M1362.61,-123.498C1494.89,-117.344 1766.19,-103.017 1995,-80 2087.51,-70.6935 2314.91,-46.2085 2421.85,-21.8467"/>
<polygon fill="midnightblue" stroke="midnightblue" points="2422.89,-25.1977 2431.82,-19.49 2421.28,-18.3856 2422.89,-25.1977"/>
</g>
<!-- Node14 -->
<g id="node27" class="node"><title>Node14</title>
<polygon fill="white" stroke="#bfbfbf" points="2161.5,-0.5 2161.5,-21.5 2252.5,-21.5 2252.5,-0.5 2161.5,-0.5"/>
<text text-anchor="middle" x="2207" y="-8.5" font-family="Helvetica,sans-Serif" font-size="10.00">yarp/sig/Vector.h</text>
</g>
<!-- Node10&#45;&gt;Node14 -->
<g id="edge26" class="edge"><title>Node10&#45;&gt;Node14</title>
<path fill="none" stroke="midnightblue" d="M1362.76,-119.471C1515.19,-104.777 1855.81,-69.6464 2151.33,-22.1848"/>
<polygon fill="midnightblue" stroke="midnightblue" points="2152.07,-25.6112 2161.38,-20.5628 2150.95,-18.7006 2152.07,-25.6112"/>
</g>
<!-- Node10&#45;&gt;Node15 -->
<g id="edge32" class="edge"><title>Node10&#45;&gt;Node15</title>
<path fill="none" stroke="midnightblue" d="M1201.34,-118.223C1109.1,-108.185 957.722,-91.7127 855.769,-80.6183"/>
<polygon fill="midnightblue" stroke="midnightblue" points="856.072,-77.1308 845.752,-79.5283 855.315,-84.0897 856.072,-77.1308"/>
</g>
<!-- Node10&#45;&gt;Node16 -->
<g id="edge34" class="edge"><title>Node10&#45;&gt;Node16</title>
<path fill="none" stroke="midnightblue" d="M1282,-116.362C1282,-108.922 1282,-98.7427 1282,-89.7276"/>
<polygon fill="midnightblue" stroke="midnightblue" points="1285.5,-89.5706 1282,-79.5707 1278.5,-89.5707 1285.5,-89.5706"/>
</g>
<!-- Node16&#45;&gt;Node6 -->
<g id="edge36" class="edge"><title>Node16&#45;&gt;Node6</title>
<path fill="none" stroke="midnightblue" d="M1231.37,-66.2034C1075.49,-57.5504 608.647,-31.3064 524.34,-21.425"/>
<polygon fill="midnightblue" stroke="midnightblue" points="524.593,-17.9258 514.2,-19.9847 523.609,-24.8563 524.593,-17.9258"/>
</g>
<!-- Node16&#45;&gt;Node7 -->
<g id="edge78" class="edge"><title>Node16&#45;&gt;Node7</title>
<path fill="none" stroke="midnightblue" d="M1231.19,-67.3723C1026.1,-60.7471 263.51,-35.5617 114.52,-21.9438"/>
<polygon fill="midnightblue" stroke="midnightblue" points="114.804,-18.4548 104.505,-20.9436 114.108,-25.4202 114.804,-18.4548"/>
</g>
<!-- Node16&#45;&gt;Node8 -->
<g id="edge76" class="edge"><title>Node16&#45;&gt;Node8</title>
<path fill="none" stroke="midnightblue" d="M1231.46,-63.0893C1215.06,-61.2946 1196.77,-59.4232 1180,-58 925.482,-36.402 855.672,-65.4801 600.255,-21.8927"/>
<polygon fill="midnightblue" stroke="midnightblue" points="600.759,-18.428 590.309,-20.1749 599.567,-25.3259 600.759,-18.428"/>
</g>
<!-- Node16&#45;&gt;Node9 -->
<g id="edge66" class="edge"><title>Node16&#45;&gt;Node9</title>
<path fill="none" stroke="midnightblue" d="M1231.34,-66.3706C1065.34,-57.7248 543.753,-30.3089 454.112,-21.6414"/>
<polygon fill="midnightblue" stroke="midnightblue" points="454.446,-18.1569 444.114,-20.5031 453.654,-25.112 454.446,-18.1569"/>
</g>
<!-- Node16&#45;&gt;Node11 -->
<g id="edge40" class="edge"><title>Node16&#45;&gt;Node11</title>
<path fill="none" stroke="midnightblue" d="M1332.78,-59.0487C1335.55,-58.6562 1338.31,-58.302 1341,-58 1744.37,-12.7476 1855.76,-89.1053 2259.76,-21.8168"/>
<polygon fill="midnightblue" stroke="midnightblue" points="2260.38,-25.2613 2269.66,-20.1486 2259.22,-18.3586 2260.38,-25.2613"/>
</g>
<!-- Node16&#45;&gt;Node13 -->
<g id="edge44" class="edge"><title>Node16&#45;&gt;Node13</title>
<path fill="none" stroke="midnightblue" d="M1332.78,-59.0296C1335.55,-58.642 1338.31,-58.2941 1341,-58 1577,-32.2231 2170.69,-65.8455 2421.99,-21.5863"/>
<polygon fill="midnightblue" stroke="midnightblue" points="2422.67,-25.0194 2431.88,-19.7704 2421.41,-18.1346 2422.67,-25.0194"/>
</g>
<!-- Node16&#45;&gt;Node14 -->
<g id="edge72" class="edge"><title>Node16&#45;&gt;Node14</title>
<path fill="none" stroke="midnightblue" d="M1332.78,-59.0656C1335.56,-58.6687 1338.31,-58.309 1341,-58 1696.56,-17.1766 1792.69,-65.2797 2151.27,-22.0466"/>
<polygon fill="midnightblue" stroke="midnightblue" points="2151.92,-25.4944 2161.42,-20.8079 2151.07,-18.5461 2151.92,-25.4944"/>
</g>
<!-- Node17 -->
<g id="node36" class="node"><title>Node17</title>
<polygon fill="white" stroke="#bfbfbf" points="1334,-0.5 1334,-21.5 1378,-21.5 1378,-0.5 1334,-0.5"/>
<text text-anchor="middle" x="1356" y="-8.5" font-family="Helvetica,sans-Serif" font-size="10.00">cmath</text>
</g>
<!-- Node16&#45;&gt;Node17 -->
<g id="edge38" class="edge"><title>Node16&#45;&gt;Node17</title>
<path fill="none" stroke="midnightblue" d="M1295.57,-58.3619C1306.42,-49.859 1321.83,-37.7785 1334.38,-27.9466"/>
<polygon fill="midnightblue" stroke="midnightblue" points="1336.8,-30.4942 1342.51,-21.5707 1332.48,-24.9848 1336.8,-30.4942"/>
</g>
<!-- Node18 -->
<g id="node39" class="node"><title>Node18</title>
<polygon fill="white" stroke="#bfbfbf" points="1395.5,-0.5 1395.5,-21.5 1436.5,-21.5 1436.5,-0.5 1395.5,-0.5"/>
<text text-anchor="middle" x="1416" y="-8.5" font-family="Helvetica,sans-Serif" font-size="10.00">string</text>
</g>
<!-- Node16&#45;&gt;Node18 -->
<g id="edge42" class="edge"><title>Node16&#45;&gt;Node18</title>
<path fill="none" stroke="midnightblue" d="M1306.27,-58.4966C1328.67,-48.7989 1362.02,-34.365 1386.07,-23.9556"/>
<polygon fill="midnightblue" stroke="midnightblue" points="1387.64,-27.0895 1395.43,-19.9052 1384.86,-20.6655 1387.64,-27.0895"/>
</g>
<!-- Node19 -->
<g id="node42" class="node"><title>Node19</title>
<polygon fill="white" stroke="#bfbfbf" points="1454,-0.5 1454,-21.5 1506,-21.5 1506,-0.5 1454,-0.5"/>
<text text-anchor="middle" x="1480" y="-8.5" font-family="Helvetica,sans-Serif" font-size="10.00">sstream</text>
</g>
<!-- Node16&#45;&gt;Node19 -->
<g id="edge46" class="edge"><title>Node16&#45;&gt;Node19</title>
<path fill="none" stroke="midnightblue" d="M1319.62,-58.4256C1350.64,-49.6467 1396.02,-36.6632 1444.02,-22.2556"/>
<polygon fill="midnightblue" stroke="midnightblue" points="1445.08,-25.5905 1453.65,-19.356 1443.06,-18.8878 1445.08,-25.5905"/>
</g>
<!-- Node20 -->
<g id="node44" class="node"><title>Node20</title>
<polygon fill="white" stroke="#bfbfbf" points="1523.5,-0.5 1523.5,-21.5 1638.5,-21.5 1638.5,-0.5 1523.5,-0.5"/>
<text text-anchor="middle" x="1581" y="-8.5" font-family="Helvetica,sans-Serif" font-size="10.00">yarp/os/BufferedPort.h</text>
</g>
<!-- Node16&#45;&gt;Node20 -->
<g id="edge48" class="edge"><title>Node16&#45;&gt;Node20</title>
<path fill="none" stroke="midnightblue" d="M1332.72,-59.1611C1383.46,-49.3183 1461.68,-34.1452 1516.74,-23.4653"/>
<polygon fill="midnightblue" stroke="midnightblue" points="1517.59,-26.866 1526.74,-21.5257 1516.25,-19.9941 1517.59,-26.866"/>
</g>
<!-- Node21 -->
<g id="node46" class="node"><title>Node21</title>
<polygon fill="white" stroke="#bfbfbf" points="1656,-0.5 1656,-21.5 1742,-21.5 1742,-0.5 1656,-0.5"/>
<text text-anchor="middle" x="1699" y="-8.5" font-family="Helvetica,sans-Serif" font-size="10.00">yarp/os/Bottle.h</text>
</g>
<!-- Node16&#45;&gt;Node21 -->
<g id="edge50" class="edge"><title>Node16&#45;&gt;Node21</title>
<path fill="none" stroke="midnightblue" d="M1332.81,-59.3023C1335.58,-58.8444 1338.32,-58.4068 1341,-58 1473.21,-37.9211 1510.15,-43.8918 1645.97,-22.0496"/>
<polygon fill="midnightblue" stroke="midnightblue" points="1646.62,-25.4907 1655.93,-20.4282 1645.49,-18.5817 1646.62,-25.4907"/>
</g>
<!-- Node22 -->
<g id="node48" class="node"><title>Node22</title>
<polygon fill="white" stroke="#bfbfbf" points="1759.5,-0.5 1759.5,-21.5 1870.5,-21.5 1870.5,-0.5 1759.5,-0.5"/>
<text text-anchor="middle" x="1815" y="-8.5" font-family="Helvetica,sans-Serif" font-size="10.00">yarp/os/RateThread.h</text>
</g>
<!-- Node16&#45;&gt;Node22 -->
<g id="edge52" class="edge"><title>Node16&#45;&gt;Node22</title>
<path fill="none" stroke="midnightblue" d="M1332.8,-59.2065C1335.57,-58.7732 1338.32,-58.3672 1341,-58 1518.96,-33.6556 1567.84,-45.0804 1749.05,-22.171"/>
<polygon fill="midnightblue" stroke="midnightblue" points="1749.72,-25.6145 1759.19,-20.8712 1748.83,-18.6713 1749.72,-25.6145"/>
</g>
<!-- Node23 -->
<g id="node50" class="node"><title>Node23</title>
<polygon fill="white" stroke="#bfbfbf" points="1887.5,-0.5 1887.5,-21.5 2016.5,-21.5 2016.5,-0.5 1887.5,-0.5"/>
<text text-anchor="middle" x="1952" y="-8.5" font-family="Helvetica,sans-Serif" font-size="10.00">yarp/os/ResourceFinder.h</text>
</g>
<!-- Node16&#45;&gt;Node23 -->
<g id="edge54" class="edge"><title>Node16&#45;&gt;Node23</title>
<path fill="none" stroke="midnightblue" d="M1332.79,-59.1389C1335.56,-58.7231 1338.31,-58.3393 1341,-58 1575.51,-28.3971 1639.03,-47.3416 1877.15,-22.1295"/>
<polygon fill="midnightblue" stroke="midnightblue" points="1877.59,-25.6031 1887.16,-21.0554 1876.84,-18.6431 1877.59,-25.6031"/>
</g>
<!-- Node24 -->
<g id="node52" class="node"><title>Node24</title>
<polygon fill="white" stroke="#bfbfbf" points="2034,-0.5 2034,-21.5 2144,-21.5 2144,-0.5 2034,-0.5"/>
<text text-anchor="middle" x="2089" y="-8.5" font-family="Helvetica,sans-Serif" font-size="10.00">yarp/os/PortReader.h</text>
</g>
<!-- Node16&#45;&gt;Node24 -->
<g id="edge56" class="edge"><title>Node16&#45;&gt;Node24</title>
<path fill="none" stroke="midnightblue" d="M1332.78,-59.0926C1335.56,-58.6887 1338.31,-58.3202 1341,-58 1640.04,-22.4109 1720.74,-55.1231 2023.94,-21.9962"/>
<polygon fill="midnightblue" stroke="midnightblue" points="2024.35,-25.4731 2033.9,-20.8936 2023.58,-18.5156 2024.35,-25.4731"/>
</g>
<!-- Node16&#45;&gt;Node25 -->
<g id="edge58" class="edge"><title>Node16&#45;&gt;Node25</title>
<path fill="none" stroke="midnightblue" d="M1231.42,-67.6264C1052.83,-62.6384 451.454,-44.6371 236.426,-21.9977"/>
<polygon fill="midnightblue" stroke="midnightblue" points="236.496,-18.4847 226.176,-20.8817 235.739,-25.4436 236.496,-18.4847"/>
</g>
<!-- Node26 -->
<g id="node56" class="node"><title>Node26</title>
<polygon fill="white" stroke="#bfbfbf" points="607.5,-0.5 607.5,-21.5 714.5,-21.5 714.5,-0.5 607.5,-0.5"/>
<text text-anchor="middle" x="661" y="-8.5" font-family="Helvetica,sans-Serif" font-size="10.00">yarp/os/RpcServer.h</text>
</g>
<!-- Node16&#45;&gt;Node26 -->
<g id="edge60" class="edge"><title>Node16&#45;&gt;Node26</title>
<path fill="none" stroke="midnightblue" d="M1231.44,-63.2567C1215.04,-61.4715 1196.76,-59.5634 1180,-58 980.409,-39.3803 926.813,-47.5514 724.767,-22.1356"/>
<polygon fill="midnightblue" stroke="midnightblue" points="725.081,-18.6474 714.72,-20.8595 724.199,-25.5916 725.081,-18.6474"/>
</g>
<!-- Node27 -->
<g id="node58" class="node"><title>Node27</title>
<polygon fill="white" stroke="#bfbfbf" points="731.5,-0.5 731.5,-21.5 872.5,-21.5 872.5,-0.5 731.5,-0.5"/>
<text text-anchor="middle" x="802" y="-8.5" font-family="Helvetica,sans-Serif" font-size="10.00">yarp/os/ConnectionReader.h</text>
</g>
<!-- Node16&#45;&gt;Node27 -->
<g id="edge62" class="edge"><title>Node16&#45;&gt;Node27</title>
<path fill="none" stroke="midnightblue" d="M1231.32,-63.4159C1157.13,-55.1634 1014.33,-38.9824 882.874,-22.2221"/>
<polygon fill="midnightblue" stroke="midnightblue" points="882.988,-18.7082 872.625,-20.9111 882.1,-25.6517 882.988,-18.7082"/>
</g>
<!-- Node16&#45;&gt;Node28 -->
<g id="edge64" class="edge"><title>Node16&#45;&gt;Node28</title>
<path fill="none" stroke="midnightblue" d="M1332.78,-59.0238C1335.55,-58.6376 1338.31,-58.2917 1341,-58 1843.4,-3.58362 1978.43,-83.8478 2483.79,-21.9245"/>
<polygon fill="midnightblue" stroke="midnightblue" points="2484.41,-25.3751 2493.9,-20.6729 2483.55,-18.4282 2484.41,-25.3751"/>
</g>
<!-- Node16&#45;&gt;Node29 -->
<g id="edge68" class="edge"><title>Node16&#45;&gt;Node29</title>
<path fill="none" stroke="midnightblue" d="M1231.45,-67.259C1067.32,-61.4768 549.456,-42.1924 360.784,-22.0633"/>
<polygon fill="midnightblue" stroke="midnightblue" points="361.032,-18.5695 350.709,-20.9515 360.264,-25.5273 361.032,-18.5695"/>
</g>
<!-- Node30 -->
<g id="node65" class="node"><title>Node30</title>
<polygon fill="white" stroke="#bfbfbf" points="889.5,-0.5 889.5,-21.5 986.5,-21.5 986.5,-0.5 889.5,-0.5"/>
<text text-anchor="middle" x="938" y="-8.5" font-family="Helvetica,sans-Serif" font-size="10.00">yarp/os/Property.h</text>
</g>
<!-- Node16&#45;&gt;Node30 -->
<g id="edge70" class="edge"><title>Node16&#45;&gt;Node30</title>
<path fill="none" stroke="midnightblue" d="M1231.38,-61.1541C1176.05,-52.48 1084.55,-37.8428 996.667,-22.2672"/>
<polygon fill="midnightblue" stroke="midnightblue" points="997.259,-18.8178 986.801,-20.5119 996.033,-25.7095 997.259,-18.8178"/>
</g>
<!-- Node31 -->
<g id="node68" class="node"><title>Node31</title>
<polygon fill="white" stroke="#bfbfbf" points="1003.5,-0.5 1003.5,-21.5 1092.5,-21.5 1092.5,-0.5 1003.5,-0.5"/>
<text text-anchor="middle" x="1048" y="-8.5" font-family="Helvetica,sans-Serif" font-size="10.00">yarp/sig/Matrix.h</text>
</g>
<!-- Node16&#45;&gt;Node31 -->
<g id="edge74" class="edge"><title>Node16&#45;&gt;Node31</title>
<path fill="none" stroke="midnightblue" d="M1239.62,-58.4966C1200.49,-48.7955 1142.22,-34.3547 1100.22,-23.9445"/>
<polygon fill="midnightblue" stroke="midnightblue" points="1101,-20.5318 1090.46,-21.5231 1099.32,-27.3262 1101,-20.5318"/>
</g>
<!-- Node32 -->
<g id="node72" class="node"><title>Node32</title>
<polygon fill="white" stroke="#bfbfbf" points="1109.5,-0.5 1109.5,-21.5 1230.5,-21.5 1230.5,-0.5 1109.5,-0.5"/>
<text text-anchor="middle" x="1170" y="-8.5" font-family="Helvetica,sans-Serif" font-size="10.00">ocra/util/StringUtilities.h</text>
</g>
<!-- Node16&#45;&gt;Node32 -->
<g id="edge80" class="edge"><title>Node16&#45;&gt;Node32</title>
<path fill="none" stroke="midnightblue" d="M1261.72,-58.4966C1244.38,-49.5194 1219.21,-36.4835 1199.62,-26.3387"/>
<polygon fill="midnightblue" stroke="midnightblue" points="1201,-23.1118 1190.51,-21.6212 1197.78,-29.3278 1201,-23.1118"/>
</g>
<!-- Node33 -->
<g id="node74" class="node"><title>Node33</title>
<polygon fill="white" stroke="#bfbfbf" points="2341.5,-0.5 2341.5,-21.5 2414.5,-21.5 2414.5,-0.5 2341.5,-0.5"/>
<text text-anchor="middle" x="2378" y="-8.5" font-family="Helvetica,sans-Serif" font-size="10.00">Eigen/Dense</text>
</g>
<!-- Node16&#45;&gt;Node33 -->
<g id="edge82" class="edge"><title>Node16&#45;&gt;Node33</title>
<path fill="none" stroke="midnightblue" d="M1332.78,-59.0395C1335.55,-58.6493 1338.31,-58.2982 1341,-58 1776.18,-9.80436 1894.23,-81.5916 2331.23,-22.007"/>
<polygon fill="midnightblue" stroke="midnightblue" points="2331.85,-25.454 2341.28,-20.6208 2330.9,-18.5196 2331.85,-25.454"/>
</g>
<!-- Node34 -->
<g id="node76" class="node"><title>Node34</title>
<polygon fill="white" stroke="#bfbfbf" points="1248,-0.5 1248,-21.5 1316,-21.5 1316,-0.5 1248,-0.5"/>
<text text-anchor="middle" x="1282" y="-8.5" font-family="Helvetica,sans-Serif" font-size="10.00">Eigen/Lgsm</text>
</g>
<!-- Node16&#45;&gt;Node34 -->
<g id="edge84" class="edge"><title>Node16&#45;&gt;Node34</title>
<path fill="none" stroke="midnightblue" d="M1282,-58.3619C1282,-50.9219 1282,-40.7427 1282,-31.7276"/>
<polygon fill="midnightblue" stroke="midnightblue" points="1285.5,-31.5706 1282,-21.5707 1278.5,-31.5707 1285.5,-31.5706"/>
</g>
<!-- Node39&#45;&gt;Node13 -->
<g id="edge120" class="edge"><title>Node39&#45;&gt;Node13</title>
<path fill="none" stroke="midnightblue" d="M2168.59,-290.028C2180.75,-276.231 2202.48,-251.936 2222,-232 2298.46,-153.909 2394.2,-65.517 2434.6,-28.6278"/>
<polygon fill="midnightblue" stroke="midnightblue" points="2437.1,-31.0806 2442.14,-21.7571 2432.39,-25.9075 2437.1,-31.0806"/>
</g>
<!-- Node39&#45;&gt;Node16 -->
<g id="edge114" class="edge"><title>Node39&#45;&gt;Node16</title>
<path fill="none" stroke="midnightblue" d="M2119.04,-290.429C1975.91,-252.567 1489.07,-123.777 1331.58,-82.1168"/>
<polygon fill="midnightblue" stroke="midnightblue" points="1332.26,-78.6744 1321.69,-79.5006 1330.47,-85.4417 1332.26,-78.6744"/>
</g>
<!-- Node39&#45;&gt;Node33 -->
<g id="edge118" class="edge"><title>Node39&#45;&gt;Node33</title>
<path fill="none" stroke="midnightblue" d="M2157.63,-290.465C2155.12,-270.119 2150,-223.985 2150,-185 2150,-185 2150,-185 2150,-127 2150,-85.7719 2177.01,-79.807 2212,-58 2222.28,-51.5929 2285.85,-34.5163 2331.26,-22.8125"/>
<polygon fill="midnightblue" stroke="midnightblue" points="2332.4,-26.1323 2341.22,-20.2561 2330.66,-19.3521 2332.4,-26.1323"/>
</g>
<!-- Node40 -->
<g id="node98" class="node"><title>Node40</title>
<polygon fill="white" stroke="#bfbfbf" points="2005.5,-232.5 2005.5,-253.5 2122.5,-253.5 2122.5,-232.5 2005.5,-232.5"/>
<text text-anchor="middle" x="2064" y="-240.5" font-family="Helvetica,sans-Serif" font-size="10.00">ocra/util/ErrorsHelper.h</text>
</g>
<!-- Node39&#45;&gt;Node40 -->
<g id="edge116" class="edge"><title>Node39&#45;&gt;Node40</title>
<path fill="none" stroke="midnightblue" d="M2141.58,-290.362C2127.11,-281.532 2106.33,-268.844 2089.92,-258.822"/>
<polygon fill="midnightblue" stroke="midnightblue" points="2091.67,-255.794 2081.31,-253.571 2088.03,-261.769 2091.67,-255.794"/>
</g>
<!-- Node39&#45;&gt;Node41 -->
<g id="edge122" class="edge"><title>Node39&#45;&gt;Node41</title>
<path fill="none" stroke="midnightblue" d="M2181.46,-290.497C2200.91,-281.397 2229.28,-268.127 2251.09,-257.925"/>
<polygon fill="midnightblue" stroke="midnightblue" points="2252.72,-261.028 2260.29,-253.621 2249.75,-254.688 2252.72,-261.028"/>
</g>
<!-- Node42&#45;&gt;Node36 -->
<g id="edge126" class="edge"><title>Node42&#45;&gt;Node36</title>
<path fill="none" stroke="midnightblue" d="M2398.15,-290.362C2403.49,-282.431 2410.91,-271.389 2417.25,-261.961"/>
<polygon fill="midnightblue" stroke="midnightblue" points="2420.22,-263.822 2422.89,-253.571 2414.41,-259.916 2420.22,-263.822"/>
</g>
<!-- Node42&#45;&gt;Node41 -->
<g id="edge128" class="edge"><title>Node42&#45;&gt;Node41</title>
<path fill="none" stroke="midnightblue" d="M2371.44,-290.497C2354.8,-281.56 2330.67,-268.602 2311.82,-258.477"/>
<polygon fill="midnightblue" stroke="midnightblue" points="2313.24,-255.269 2302.78,-253.621 2309.93,-261.436 2313.24,-255.269"/>
</g>
</g>
</svg>
