<?xml version="1.0" encoding="UTF-8" standalone="no"?>
<!DOCTYPE svg PUBLIC "-//W3C//DTD SVG 1.1//EN"
 "http://www.w3.org/Graphics/SVG/1.1/DTD/svg11.dtd">
<!-- Generated by graphviz version 2.26.3 (20100126.1600)
 -->
<!-- Title: G Pages: 1 -->
<svg width="2584pt" height="204pt"
 viewBox="0.00 0.00 2584.00 204.00" xmlns="http://www.w3.org/2000/svg" xmlns:xlink="http://www.w3.org/1999/xlink">
<g id="graph1" class="graph" transform="scale(1 1) rotate(0) translate(4 200)">
<title>G</title>
<polygon fill="white" stroke="white" points="-4,5 -4,-200 2581,-200 2581,5 -4,5"/>
<!-- Node1 -->
<g id="node1" class="node"><title>Node1</title>
<polygon fill="#bfbfbf" stroke="black" points="1084.5,-174.5 1084.5,-195.5 1407.5,-195.5 1407.5,-174.5 1084.5,-174.5"/>
<text text-anchor="middle" x="1246" y="-182.5" font-family="Helvetica,sans-Serif" font-size="10.00">ocra&#45;wbi&#45;plugins/ocra&#45;icub&#45;clients/walking&#45;client/src/ZmpController.cpp</text>
</g>
<!-- Node2 -->
<g id="node3" class="node"><title>Node2</title>
<a xlink:href="ZmpController_8h.html" target="_top" xlink:title="walking&#45;client/ZmpController.h">
<polygon fill="white" stroke="black" points="1171.5,-116.5 1171.5,-137.5 1320.5,-137.5 1320.5,-116.5 1171.5,-116.5"/>
<text text-anchor="middle" x="1246" y="-124.5" font-family="Helvetica,sans-Serif" font-size="10.00">walking&#45;client/ZmpController.h</text>
</a>
</g>
<!-- Node1&#45;&gt;Node2 -->
<g id="edge2" class="edge"><title>Node1&#45;&gt;Node2</title>
<path fill="none" stroke="midnightblue" d="M1246,-174.362C1246,-166.922 1246,-156.743 1246,-147.728"/>
<polygon fill="midnightblue" stroke="midnightblue" points="1249.5,-147.571 1246,-137.571 1242.5,-147.571 1249.5,-147.571"/>
</g>
<!-- Node3 -->
<g id="node5" class="node"><title>Node3</title>
<a xlink:href="Utilities_8h.html" target="_top" xlink:title="Some useful tools for the ocra&#45;icub lib.">
<polygon fill="white" stroke="black" points="1156.5,-58.5 1156.5,-79.5 1257.5,-79.5 1257.5,-58.5 1156.5,-58.5"/>
<text text-anchor="middle" x="1207" y="-66.5" font-family="Helvetica,sans-Serif" font-size="10.00">ocra&#45;icub/Utilities.h</text>
</a>
</g>
<!-- Node2&#45;&gt;Node3 -->
<g id="edge4" class="edge"><title>Node2&#45;&gt;Node3</title>
<path fill="none" stroke="midnightblue" d="M1238.85,-116.362C1233.51,-108.431 1226.09,-97.3885 1219.75,-87.9606"/>
<polygon fill="midnightblue" stroke="midnightblue" points="1222.59,-85.9161 1214.11,-79.5707 1216.78,-89.8221 1222.59,-85.9161"/>
</g>
<!-- Node8 -->
<g id="node15" class="node"><title>Node8</title>
<polygon fill="white" stroke="#bfbfbf" points="0,-0.5 0,-21.5 44,-21.5 44,-0.5 0,-0.5"/>
<text text-anchor="middle" x="22" y="-8.5" font-family="Helvetica,sans-Serif" font-size="10.00">vector</text>
</g>
<!-- Node2&#45;&gt;Node8 -->
<g id="edge60" class="edge"><title>Node2&#45;&gt;Node8</title>
<path fill="none" stroke="midnightblue" d="M1171.47,-122.916C948.379,-110.307 287.426,-70.0498 53.9484,-21.7073"/>
<polygon fill="midnightblue" stroke="midnightblue" points="54.6649,-18.2815 44.1548,-19.6193 53.2052,-25.1276 54.6649,-18.2815"/>
</g>
<!-- Node27 -->
<g id="node53" class="node"><title>Node27</title>
<polygon fill="white" stroke="#bfbfbf" points="2503.5,-0.5 2503.5,-21.5 2576.5,-21.5 2576.5,-0.5 2503.5,-0.5"/>
<text text-anchor="middle" x="2540" y="-8.5" font-family="Helvetica,sans-Serif" font-size="10.00">Eigen/Dense</text>
</g>
<!-- Node2&#45;&gt;Node27 -->
<g id="edge58" class="edge"><title>Node2&#45;&gt;Node27</title>
<path fill="none" stroke="midnightblue" d="M1251.17,-116.413C1259.66,-100.378 1278.23,-70.4824 1304,-58 1420.6,-1.53303 2323.77,-38.163 2493.2,-21.7956"/>
<polygon fill="midnightblue" stroke="midnightblue" points="2493.75,-25.2559 2503.28,-20.6393 2492.95,-18.3015 2493.75,-25.2559"/>
</g>
<!-- Node29 -->
<g id="node57" class="node"><title>Node29</title>
<polygon fill="white" stroke="#bfbfbf" points="1312.5,-58.5 1312.5,-79.5 1429.5,-79.5 1429.5,-58.5 1312.5,-58.5"/>
<text text-anchor="middle" x="1371" y="-66.5" font-family="Helvetica,sans-Serif" font-size="10.00">ocra/util/ErrorsHelper.h</text>
</g>
<!-- Node2&#45;&gt;Node29 -->
<g id="edge56" class="edge"><title>Node2&#45;&gt;Node29</title>
<path fill="none" stroke="midnightblue" d="M1268.64,-116.497C1288.25,-107.397 1316.85,-94.1273 1338.83,-83.9253"/>
<polygon fill="midnightblue" stroke="midnightblue" points="1340.51,-87.0051 1348.11,-79.6212 1337.57,-80.6554 1340.51,-87.0051"/>
</g>
<!-- Node4 -->
<g id="node7" class="node"><title>Node4</title>
<polygon fill="white" stroke="#bfbfbf" points="62,-0.5 62,-21.5 114,-21.5 114,-0.5 62,-0.5"/>
<text text-anchor="middle" x="88" y="-8.5" font-family="Helvetica,sans-Serif" font-size="10.00">memory</text>
</g>
<!-- Node3&#45;&gt;Node4 -->
<g id="edge6" class="edge"><title>Node3&#45;&gt;Node4</title>
<path fill="none" stroke="midnightblue" d="M1156.45,-68.5559C973.399,-66.6802 344.884,-57.8445 124.079,-21.7235"/>
<polygon fill="midnightblue" stroke="midnightblue" points="124.636,-18.268 114.19,-20.0386 123.46,-25.1686 124.636,-18.268"/>
</g>
<!-- Node5 -->
<g id="node9" class="node"><title>Node5</title>
<polygon fill="white" stroke="#bfbfbf" points="132,-0.5 132,-21.5 176,-21.5 176,-0.5 132,-0.5"/>
<text text-anchor="middle" x="154" y="-8.5" font-family="Helvetica,sans-Serif" font-size="10.00">cmath</text>
</g>
<!-- Node3&#45;&gt;Node5 -->
<g id="edge8" class="edge"><title>Node3&#45;&gt;Node5</title>
<path fill="none" stroke="midnightblue" d="M1156.24,-68.6397C979.84,-67.0852 393.437,-59.3084 186.014,-21.6114"/>
<polygon fill="midnightblue" stroke="midnightblue" points="186.608,-18.1619 176.131,-19.7352 185.303,-25.0391 186.608,-18.1619"/>
</g>
<!-- Node6 -->
<g id="node11" class="node"><title>Node6</title>
<polygon fill="white" stroke="#bfbfbf" points="194,-0.5 194,-21.5 248,-21.5 248,-0.5 194,-0.5"/>
<text text-anchor="middle" x="221" y="-8.5" font-family="Helvetica,sans-Serif" font-size="10.00">iostream</text>
</g>
<!-- Node3&#45;&gt;Node6 -->
<g id="edge10" class="edge"><title>Node3&#45;&gt;Node6</title>
<path fill="none" stroke="midnightblue" d="M1156.35,-68.1428C988.649,-65.051 451.611,-53.0588 258.385,-21.8142"/>
<polygon fill="midnightblue" stroke="midnightblue" points="258.791,-18.3332 248.347,-20.1185 257.625,-25.2355 258.791,-18.3332"/>
</g>
<!-- Node7 -->
<g id="node13" class="node"><title>Node7</title>
<polygon fill="white" stroke="#bfbfbf" points="265.5,-0.5 265.5,-21.5 306.5,-21.5 306.5,-0.5 265.5,-0.5"/>
<text text-anchor="middle" x="286" y="-8.5" font-family="Helvetica,sans-Serif" font-size="10.00">string</text>
</g>
<!-- Node3&#45;&gt;Node7 -->
<g id="edge12" class="edge"><title>Node3&#45;&gt;Node7</title>
<path fill="none" stroke="midnightblue" d="M1156.25,-68.3855C995.244,-66.1192 496.444,-56.5825 316.534,-21.7275"/>
<polygon fill="midnightblue" stroke="midnightblue" points="317.174,-18.286 306.677,-19.7234 315.779,-25.1456 317.174,-18.286"/>
</g>
<!-- Node3&#45;&gt;Node8 -->
<g id="edge14" class="edge"><title>Node3&#45;&gt;Node8</title>
<path fill="none" stroke="midnightblue" d="M1156.42,-67.8335C953.365,-63.0322 201.68,-44.0824 54.3887,-21.5203"/>
<polygon fill="midnightblue" stroke="midnightblue" points="54.5776,-18.0012 44.128,-19.7497 53.3872,-24.8993 54.5776,-18.0012"/>
</g>
<!-- Node9 -->
<g id="node17" class="node"><title>Node9</title>
<polygon fill="white" stroke="#bfbfbf" points="324,-0.5 324,-21.5 376,-21.5 376,-0.5 324,-0.5"/>
<text text-anchor="middle" x="350" y="-8.5" font-family="Helvetica,sans-Serif" font-size="10.00">sstream</text>
</g>
<!-- Node3&#45;&gt;Node9 -->
<g id="edge16" class="edge"><title>Node3&#45;&gt;Node9</title>
<path fill="none" stroke="midnightblue" d="M1156.26,-67.7413C1004.16,-63.7146 552.79,-49.8501 386.055,-21.7392"/>
<polygon fill="midnightblue" stroke="midnightblue" points="386.654,-18.2909 376.198,-19.9985 385.437,-25.1842 386.654,-18.2909"/>
</g>
<!-- Node10 -->
<g id="node19" class="node"><title>Node10</title>
<polygon fill="white" stroke="#bfbfbf" points="393.5,-0.5 393.5,-21.5 508.5,-21.5 508.5,-0.5 393.5,-0.5"/>
<text text-anchor="middle" x="451" y="-8.5" font-family="Helvetica,sans-Serif" font-size="10.00">yarp/os/BufferedPort.h</text>
</g>
<!-- Node3&#45;&gt;Node10 -->
<g id="edge18" class="edge"><title>Node3&#45;&gt;Node10</title>
<path fill="none" stroke="midnightblue" d="M1156.2,-67.2303C1043.34,-62.9338 763.014,-50.2502 518.685,-22.1083"/>
<polygon fill="midnightblue" stroke="midnightblue" points="518.883,-18.6079 508.546,-20.9291 518.075,-25.561 518.883,-18.6079"/>
</g>
<!-- Node11 -->
<g id="node21" class="node"><title>Node11</title>
<polygon fill="white" stroke="#bfbfbf" points="526,-0.5 526,-21.5 612,-21.5 612,-0.5 526,-0.5"/>
<text text-anchor="middle" x="569" y="-8.5" font-family="Helvetica,sans-Serif" font-size="10.00">yarp/os/Bottle.h</text>
</g>
<!-- Node3&#45;&gt;Node11 -->
<g id="edge20" class="edge"><title>Node3&#45;&gt;Node11</title>
<path fill="none" stroke="midnightblue" d="M1156.2,-67.1229C1055.9,-62.9412 825.291,-50.967 622.018,-21.9898"/>
<polygon fill="midnightblue" stroke="midnightblue" points="622.451,-18.5161 612.054,-20.5524 621.452,-25.4444 622.451,-18.5161"/>
</g>
<!-- Node12 -->
<g id="node23" class="node"><title>Node12</title>
<polygon fill="white" stroke="#bfbfbf" points="629.5,-0.5 629.5,-21.5 740.5,-21.5 740.5,-0.5 629.5,-0.5"/>
<text text-anchor="middle" x="685" y="-8.5" font-family="Helvetica,sans-Serif" font-size="10.00">yarp/os/RateThread.h</text>
</g>
<!-- Node3&#45;&gt;Node12 -->
<g id="edge22" class="edge"><title>Node3&#45;&gt;Node12</title>
<path fill="none" stroke="midnightblue" d="M1156.38,-64.9371C1073.61,-58.0469 903.984,-42.8889 750.873,-22.1938"/>
<polygon fill="midnightblue" stroke="midnightblue" points="751.194,-18.7052 740.813,-20.8227 750.249,-25.6411 751.194,-18.7052"/>
</g>
<!-- Node13 -->
<g id="node25" class="node"><title>Node13</title>
<polygon fill="white" stroke="#bfbfbf" points="757.5,-0.5 757.5,-21.5 886.5,-21.5 886.5,-0.5 757.5,-0.5"/>
<text text-anchor="middle" x="822" y="-8.5" font-family="Helvetica,sans-Serif" font-size="10.00">yarp/os/ResourceFinder.h</text>
</g>
<!-- Node3&#45;&gt;Node13 -->
<g id="edge24" class="edge"><title>Node3&#45;&gt;Node13</title>
<path fill="none" stroke="midnightblue" d="M1156.27,-61.3579C1089.93,-51.3633 973.173,-33.7741 896.705,-22.2542"/>
<polygon fill="midnightblue" stroke="midnightblue" points="897.067,-18.7693 886.657,-20.7405 896.024,-25.6912 897.067,-18.7693"/>
</g>
<!-- Node14 -->
<g id="node27" class="node"><title>Node14</title>
<polygon fill="white" stroke="#bfbfbf" points="904,-0.5 904,-21.5 1014,-21.5 1014,-0.5 904,-0.5"/>
<text text-anchor="middle" x="959" y="-8.5" font-family="Helvetica,sans-Serif" font-size="10.00">yarp/os/PortReader.h</text>
</g>
<!-- Node3&#45;&gt;Node14 -->
<g id="edge26" class="edge"><title>Node3&#45;&gt;Node14</title>
<path fill="none" stroke="midnightblue" d="M1162.09,-58.4966C1120.43,-48.7545 1058.34,-34.2328 1013.79,-23.813"/>
<polygon fill="midnightblue" stroke="midnightblue" points="1014.53,-20.3924 1004,-21.5231 1012.94,-27.2084 1014.53,-20.3924"/>
</g>
<!-- Node15 -->
<g id="node29" class="node"><title>Node15</title>
<polygon fill="white" stroke="#bfbfbf" points="1032,-0.5 1032,-21.5 1136,-21.5 1136,-0.5 1032,-0.5"/>
<text text-anchor="middle" x="1084" y="-8.5" font-family="Helvetica,sans-Serif" font-size="10.00">yarp/os/RpcClient.h</text>
</g>
<!-- Node3&#45;&gt;Node15 -->
<g id="edge28" class="edge"><title>Node3&#45;&gt;Node15</title>
<path fill="none" stroke="midnightblue" d="M1184.73,-58.4966C1165.43,-49.397 1137.29,-36.1273 1115.65,-25.9253"/>
<polygon fill="midnightblue" stroke="midnightblue" points="1117.06,-22.7206 1106.52,-21.6212 1114.08,-29.052 1117.06,-22.7206"/>
</g>
<!-- Node16 -->
<g id="node31" class="node"><title>Node16</title>
<polygon fill="white" stroke="#bfbfbf" points="1153.5,-0.5 1153.5,-21.5 1260.5,-21.5 1260.5,-0.5 1153.5,-0.5"/>
<text text-anchor="middle" x="1207" y="-8.5" font-family="Helvetica,sans-Serif" font-size="10.00">yarp/os/RpcServer.h</text>
</g>
<!-- Node3&#45;&gt;Node16 -->
<g id="edge30" class="edge"><title>Node3&#45;&gt;Node16</title>
<path fill="none" stroke="midnightblue" d="M1207,-58.3619C1207,-50.9219 1207,-40.7427 1207,-31.7276"/>
<polygon fill="midnightblue" stroke="midnightblue" points="1210.5,-31.5706 1207,-21.5707 1203.5,-31.5707 1210.5,-31.5706"/>
</g>
<!-- Node17 -->
<g id="node33" class="node"><title>Node17</title>
<polygon fill="white" stroke="#bfbfbf" points="1277.5,-0.5 1277.5,-21.5 1418.5,-21.5 1418.5,-0.5 1277.5,-0.5"/>
<text text-anchor="middle" x="1348" y="-8.5" font-family="Helvetica,sans-Serif" font-size="10.00">yarp/os/ConnectionReader.h</text>
</g>
<!-- Node3&#45;&gt;Node17 -->
<g id="edge32" class="edge"><title>Node3&#45;&gt;Node17</title>
<path fill="none" stroke="midnightblue" d="M1232.53,-58.4966C1254.95,-49.2746 1287.78,-35.7695 1312.71,-25.5153"/>
<polygon fill="midnightblue" stroke="midnightblue" points="1314.26,-28.6623 1322.18,-21.6212 1311.6,-22.1886 1314.26,-28.6623"/>
</g>
<!-- Node18 -->
<g id="node35" class="node"><title>Node18</title>
<polygon fill="white" stroke="#bfbfbf" points="1436,-0.5 1436,-21.5 1518,-21.5 1518,-0.5 1436,-0.5"/>
<text text-anchor="middle" x="1477" y="-8.5" font-family="Helvetica,sans-Serif" font-size="10.00">yarp/os/Time.h</text>
</g>
<!-- Node3&#45;&gt;Node18 -->
<g id="edge34" class="edge"><title>Node3&#45;&gt;Node18</title>
<path fill="none" stroke="midnightblue" d="M1256.82,-58.4464C1299.25,-49.4393 1362.09,-36.0483 1425.96,-22.217"/>
<polygon fill="midnightblue" stroke="midnightblue" points="1426.77,-25.6229 1435.8,-20.084 1425.29,-18.7817 1426.77,-25.6229"/>
</g>
<!-- Node19 -->
<g id="node37" class="node"><title>Node19</title>
<polygon fill="white" stroke="#bfbfbf" points="1536,-0.5 1536,-21.5 1612,-21.5 1612,-0.5 1536,-0.5"/>
<text text-anchor="middle" x="1574" y="-8.5" font-family="Helvetica,sans-Serif" font-size="10.00">yarp/os/Log.h</text>
</g>
<!-- Node3&#45;&gt;Node19 -->
<g id="edge36" class="edge"><title>Node3&#45;&gt;Node19</title>
<path fill="none" stroke="midnightblue" d="M1257.63,-60.1509C1262.15,-59.4058 1266.66,-58.6786 1271,-58 1381.31,-40.7689 1412.32,-42.9684 1525.71,-22.1173"/>
<polygon fill="midnightblue" stroke="midnightblue" points="1526.65,-25.5032 1535.84,-20.2344 1525.37,-18.6211 1526.65,-25.5032"/>
</g>
<!-- Node20 -->
<g id="node39" class="node"><title>Node20</title>
<polygon fill="white" stroke="#bfbfbf" points="1629.5,-0.5 1629.5,-21.5 1736.5,-21.5 1736.5,-0.5 1629.5,-0.5"/>
<text text-anchor="middle" x="1683" y="-8.5" font-family="Helvetica,sans-Serif" font-size="10.00">yarp/os/LogStream.h</text>
</g>
<!-- Node3&#45;&gt;Node20 -->
<g id="edge38" class="edge"><title>Node3&#45;&gt;Node20</title>
<path fill="none" stroke="midnightblue" d="M1257.61,-59.9764C1262.13,-59.2685 1266.64,-58.5977 1271,-58 1422.6,-37.2001 1464.35,-43.3885 1618.92,-22.2153"/>
<polygon fill="midnightblue" stroke="midnightblue" points="1619.85,-25.621 1629.27,-20.7805 1618.88,-18.6873 1619.85,-25.621"/>
</g>
<!-- Node21 -->
<g id="node41" class="node"><title>Node21</title>
<polygon fill="white" stroke="#bfbfbf" points="1753.5,-0.5 1753.5,-21.5 1850.5,-21.5 1850.5,-0.5 1753.5,-0.5"/>
<text text-anchor="middle" x="1802" y="-8.5" font-family="Helvetica,sans-Serif" font-size="10.00">yarp/os/Property.h</text>
</g>
<!-- Node3&#45;&gt;Node21 -->
<g id="edge40" class="edge"><title>Node3&#45;&gt;Node21</title>
<path fill="none" stroke="midnightblue" d="M1257.59,-59.851C1262.12,-59.1699 1266.64,-58.5395 1271,-58 1477.4,-32.4822 1533.84,-49.5116 1743.16,-22.1289"/>
<polygon fill="midnightblue" stroke="midnightblue" points="1743.79,-25.5759 1753.24,-20.7911 1742.87,-18.6367 1743.79,-25.5759"/>
</g>
<!-- Node22 -->
<g id="node43" class="node"><title>Node22</title>
<polygon fill="white" stroke="#bfbfbf" points="1867.5,-0.5 1867.5,-21.5 1958.5,-21.5 1958.5,-0.5 1867.5,-0.5"/>
<text text-anchor="middle" x="1913" y="-8.5" font-family="Helvetica,sans-Serif" font-size="10.00">yarp/sig/Vector.h</text>
</g>
<!-- Node3&#45;&gt;Node22 -->
<g id="edge42" class="edge"><title>Node3&#45;&gt;Node22</title>
<path fill="none" stroke="midnightblue" d="M1257.58,-59.782C1262.11,-59.1157 1266.63,-58.5075 1271,-58 1527.77,-28.1635 1597.66,-55.5015 1857.3,-22.0732"/>
<polygon fill="midnightblue" stroke="midnightblue" points="1857.95,-25.5184 1867.41,-20.7533 1857.04,-18.5773 1857.95,-25.5184"/>
</g>
<!-- Node23 -->
<g id="node45" class="node"><title>Node23</title>
<polygon fill="white" stroke="#bfbfbf" points="1975.5,-0.5 1975.5,-21.5 2064.5,-21.5 2064.5,-0.5 1975.5,-0.5"/>
<text text-anchor="middle" x="2020" y="-8.5" font-family="Helvetica,sans-Serif" font-size="10.00">yarp/sig/Matrix.h</text>
</g>
<!-- Node3&#45;&gt;Node23 -->
<g id="edge44" class="edge"><title>Node3&#45;&gt;Node23</title>
<path fill="none" stroke="midnightblue" d="M1257.58,-59.7375C1262.11,-59.0806 1266.63,-58.4868 1271,-58 1575.54,-24.074 1658.03,-60.783 1965.18,-22.0747"/>
<polygon fill="midnightblue" stroke="midnightblue" points="1965.79,-25.5254 1975.26,-20.7869 1964.9,-18.5818 1965.79,-25.5254"/>
</g>
<!-- Node24 -->
<g id="node47" class="node"><title>Node24</title>
<polygon fill="white" stroke="#bfbfbf" points="2082,-0.5 2082,-21.5 2140,-21.5 2140,-0.5 2082,-0.5"/>
<text text-anchor="middle" x="2111" y="-8.5" font-family="Helvetica,sans-Serif" font-size="10.00">wbi/wbi.h</text>
</g>
<!-- Node3&#45;&gt;Node24 -->
<g id="edge46" class="edge"><title>Node3&#45;&gt;Node24</title>
<path fill="none" stroke="midnightblue" d="M1257.57,-59.7053C1262.1,-59.0553 1266.63,-58.4719 1271,-58 1622.45,-20.0604 1719.16,-78.9021 2071.73,-21.8589"/>
<polygon fill="midnightblue" stroke="midnightblue" points="2072.4,-25.2959 2081.7,-20.2257 2071.27,-18.3879 2072.4,-25.2959"/>
</g>
<!-- Node25 -->
<g id="node49" class="node"><title>Node25</title>
<polygon fill="white" stroke="#bfbfbf" points="2157.5,-0.5 2157.5,-21.5 2262.5,-21.5 2262.5,-0.5 2157.5,-0.5"/>
<text text-anchor="middle" x="2210" y="-8.5" font-family="Helvetica,sans-Serif" font-size="10.00">ocra/control/Model.h</text>
</g>
<!-- Node3&#45;&gt;Node25 -->
<g id="edge48" class="edge"><title>Node3&#45;&gt;Node25</title>
<path fill="none" stroke="midnightblue" d="M1257.57,-59.687C1262.1,-59.041 1266.63,-58.4634 1271,-58 1656.06,-17.188 1759.04,-63.9431 2147.39,-22.0441"/>
<polygon fill="midnightblue" stroke="midnightblue" points="2147.93,-25.5056 2157.49,-20.9409 2147.17,-18.547 2147.93,-25.5056"/>
</g>
<!-- Node26 -->
<g id="node51" class="node"><title>Node26</title>
<polygon fill="white" stroke="#bfbfbf" points="2279.5,-0.5 2279.5,-21.5 2400.5,-21.5 2400.5,-0.5 2279.5,-0.5"/>
<text text-anchor="middle" x="2340" y="-8.5" font-family="Helvetica,sans-Serif" font-size="10.00">ocra/util/StringUtilities.h</text>
</g>
<!-- Node3&#45;&gt;Node26 -->
<g id="edge50" class="edge"><title>Node3&#45;&gt;Node26</title>
<path fill="none" stroke="midnightblue" d="M1257.57,-59.6635C1262.1,-59.0224 1266.63,-58.4525 1271,-58 1710.02,-12.5765 1826.6,-64.2934 2269.29,-22.0605"/>
<polygon fill="midnightblue" stroke="midnightblue" points="2269.85,-25.5221 2279.47,-21.0778 2269.18,-18.5545 2269.85,-25.5221"/>
</g>
<!-- Node3&#45;&gt;Node27 -->
<g id="edge52" class="edge"><title>Node3&#45;&gt;Node27</title>
<path fill="none" stroke="midnightblue" d="M1257.57,-59.6325C1262.1,-58.998 1266.63,-58.4381 1271,-58 1809.22,-4.10231 1953.92,-93.9102 2493.3,-21.9852"/>
<polygon fill="midnightblue" stroke="midnightblue" points="2493.84,-25.4444 2503.28,-20.6418 2492.91,-18.507 2493.84,-25.4444"/>
</g>
<!-- Node28 -->
<g id="node55" class="node"><title>Node28</title>
<polygon fill="white" stroke="#bfbfbf" points="2418,-0.5 2418,-21.5 2486,-21.5 2486,-0.5 2418,-0.5"/>
<text text-anchor="middle" x="2452" y="-8.5" font-family="Helvetica,sans-Serif" font-size="10.00">Eigen/Lgsm</text>
</g>
<!-- Node3&#45;&gt;Node28 -->
<g id="edge54" class="edge"><title>Node3&#45;&gt;Node28</title>
<path fill="none" stroke="midnightblue" d="M1257.57,-59.643C1262.1,-59.0063 1266.63,-58.443 1271,-58 1771.14,-7.35512 1906.22,-92.0016 2407.83,-21.8661"/>
<polygon fill="midnightblue" stroke="midnightblue" points="2408.46,-25.3131 2417.87,-20.4494 2407.48,-18.3819 2408.46,-25.3131"/>
</g>
</g>
</svg>
