<?xml version="1.0" encoding="UTF-8" standalone="no"?>
<!DOCTYPE svg PUBLIC "-//W3C//DTD SVG 1.1//EN"
 "http://www.w3.org/Graphics/SVG/1.1/DTD/svg11.dtd">
<!-- Generated by graphviz version 2.26.3 (20100126.1600)
 -->
<!-- Title: G Pages: 1 -->
<svg width="845pt" height="146pt"
 viewBox="0.00 0.00 845.00 146.00" xmlns="http://www.w3.org/2000/svg" xmlns:xlink="http://www.w3.org/1999/xlink">
<g id="graph1" class="graph" transform="scale(1 1) rotate(0) translate(4 142)">
<title>G</title>
<polygon fill="white" stroke="white" points="-4,5 -4,-142 842,-142 842,5 -4,5"/>
<!-- Node1 -->
<g id="node1" class="node"><title>Node1</title>
<polygon fill="#bfbfbf" stroke="black" points="292,-116.5 292,-137.5 684,-137.5 684,-116.5 292,-116.5"/>
<text text-anchor="middle" x="488" y="-124.5" font-family="Helvetica,sans-Serif" font-size="10.00">ocra&#45;wbi&#45;plugins/ocra&#45;icub&#45;clients/walking&#45;client/include/walking&#45;client/ZmpController.h</text>
</g>
<!-- Node2 -->
<g id="node3" class="node"><title>Node2</title>
<a xlink:href="WalkingClient_8h.html" target="_top" xlink:title="ocra&#45;wbi&#45;plugins/ocra&#45;icub&#45;clients/walking&#45;client/include/walking&#45;client/WalkingClient.h">
<polygon fill="white" stroke="black" points="105,-58.5 105,-79.5 497,-79.5 497,-58.5 105,-58.5"/>
<text text-anchor="middle" x="301" y="-66.5" font-family="Helvetica,sans-Serif" font-size="10.00">ocra&#45;wbi&#45;plugins/ocra&#45;icub&#45;clients/walking&#45;client/include/walking&#45;client/WalkingClient.h</text>
</a>
</g>
<!-- Node1&#45;&gt;Node2 -->
<g id="edge2" class="edge"><title>Node1&#45;&gt;Node2</title>
<path fill="none" stroke="midnightblue" d="M444.193,-113.413C410.829,-103.065 365.566,-89.0258 334.928,-79.5231"/>
<polygon fill="midnightblue" stroke="midnightblue" points="443.548,-116.877 454.136,-116.497 445.621,-110.191 443.548,-116.877"/>
</g>
<!-- Node5 -->
<g id="node9" class="node"><title>Node5</title>
<a xlink:href="ZmpController_8cpp.html" target="_top" xlink:title="ocra&#45;wbi&#45;plugins/ocra&#45;icub&#45;clients/walking&#45;client/src/ZmpController.cpp">
<polygon fill="white" stroke="black" points="514.5,-58.5 514.5,-79.5 837.5,-79.5 837.5,-58.5 514.5,-58.5"/>
<text text-anchor="middle" x="676" y="-66.5" font-family="Helvetica,sans-Serif" font-size="10.00">ocra&#45;wbi&#45;plugins/ocra&#45;icub&#45;clients/walking&#45;client/src/ZmpController.cpp</text>
</a>
</g>
<!-- Node1&#45;&gt;Node5 -->
<g id="edge8" class="edge"><title>Node1&#45;&gt;Node5</title>
<path fill="none" stroke="midnightblue" d="M531.608,-113.546C565.191,-103.186 610.956,-89.0668 641.891,-79.5231"/>
<polygon fill="midnightblue" stroke="midnightblue" points="530.569,-110.204 522.045,-116.497 532.633,-116.893 530.569,-110.204"/>
</g>
<!-- Node3 -->
<g id="node5" class="node"><title>Node3</title>
<a xlink:href="ocra-icub-clients_2walking-client_2src_2main_8cpp.html" target="_top" xlink:title="ocra&#45;wbi&#45;plugins/ocra&#45;icub&#45;clients/walking&#45;client/src/main.cpp">
<polygon fill="white" stroke="black" points="-0.5,-0.5 -0.5,-21.5 282.5,-21.5 282.5,-0.5 -0.5,-0.5"/>
<text text-anchor="middle" x="141" y="-8.5" font-family="Helvetica,sans-Serif" font-size="10.00">ocra&#45;wbi&#45;plugins/ocra&#45;icub&#45;clients/walking&#45;client/src/main.cpp</text>
</a>
</g>
<!-- Node2&#45;&gt;Node3 -->
<g id="edge4" class="edge"><title>Node2&#45;&gt;Node3</title>
<path fill="none" stroke="midnightblue" d="M262.405,-55.0095C233.972,-44.7023 195.905,-30.903 170.029,-21.5231"/>
<polygon fill="midnightblue" stroke="midnightblue" points="261.431,-58.3791 272.025,-58.4966 263.817,-51.7981 261.431,-58.3791"/>
</g>
<!-- Node4 -->
<g id="node7" class="node"><title>Node4</title>
<a xlink:href="WalkingClient_8cpp.html" target="_top" xlink:title="ocra&#45;wbi&#45;plugins/ocra&#45;icub&#45;clients/walking&#45;client/src/WalkingClient.cpp">
<polygon fill="white" stroke="black" points="299.5,-0.5 299.5,-21.5 622.5,-21.5 622.5,-0.5 299.5,-0.5"/>
<text text-anchor="middle" x="461" y="-8.5" font-family="Helvetica,sans-Serif" font-size="10.00">ocra&#45;wbi&#45;plugins/ocra&#45;icub&#45;clients/walking&#45;client/src/WalkingClient.cpp</text>
</a>
</g>
<!-- Node2&#45;&gt;Node4 -->
<g id="edge6" class="edge"><title>Node2&#45;&gt;Node4</title>
<path fill="none" stroke="midnightblue" d="M339.595,-55.0095C368.028,-44.7023 406.095,-30.903 431.971,-21.5231"/>
<polygon fill="midnightblue" stroke="midnightblue" points="338.183,-51.7981 329.975,-58.4966 340.569,-58.3791 338.183,-51.7981"/>
</g>
</g>
</svg>
