<?xml version="1.0" encoding="UTF-8" standalone="no"?>
<!DOCTYPE svg PUBLIC "-//W3C//DTD SVG 1.1//EN"
 "http://www.w3.org/Graphics/SVG/1.1/DTD/svg11.dtd">
<!-- Generated by graphviz version 2.26.3 (20100126.1600)
 -->
<!-- Title: G Pages: 1 -->
<svg width="2584pt" height="204pt"
 viewBox="0.00 0.00 2584.00 204.00" xmlns="http://www.w3.org/2000/svg" xmlns:xlink="http://www.w3.org/1999/xlink">
<g id="graph1" class="graph" transform="scale(1 1) rotate(0) translate(4 200)">
<title>G</title>
<polygon fill="white" stroke="white" points="-4,5 -4,-200 2581,-200 2581,5 -4,5"/>
<!-- Node1 -->
<g id="node1" class="node"><title>Node1</title>
<polygon fill="#bfbfbf" stroke="black" points="1165.5,-174.5 1165.5,-195.5 1524.5,-195.5 1524.5,-174.5 1165.5,-174.5"/>
<text text-anchor="middle" x="1345" y="-182.5" font-family="Helvetica,sans-Serif" font-size="10.00">ocra&#45;wbi&#45;plugins/ocra&#45;icub&#45;clients/walking&#45;client/src/ZmpPreviewController.cpp</text>
</g>
<!-- Node2 -->
<g id="node3" class="node"><title>Node2</title>
<a xlink:href="ZmpPreviewController_8h.html" target="_top" xlink:title="walking&#45;client/ZmpPreviewController.h">
<polygon fill="white" stroke="black" points="1156,-116.5 1156,-137.5 1340,-137.5 1340,-116.5 1156,-116.5"/>
<text text-anchor="middle" x="1248" y="-124.5" font-family="Helvetica,sans-Serif" font-size="10.00">walking&#45;client/ZmpPreviewController.h</text>
</a>
</g>
<!-- Node1&#45;&gt;Node2 -->
<g id="edge2" class="edge"><title>Node1&#45;&gt;Node2</title>
<path fill="none" stroke="midnightblue" d="M1327.21,-174.362C1312.44,-165.532 1291.22,-152.844 1274.46,-142.822"/>
<polygon fill="midnightblue" stroke="midnightblue" points="1276.06,-139.699 1265.68,-137.571 1272.47,-145.707 1276.06,-139.699"/>
</g>
<!-- Node31 -->
<g id="node64" class="node"><title>Node31</title>
<polygon fill="white" stroke="#bfbfbf" points="1358,-116.5 1358,-137.5 1528,-137.5 1528,-116.5 1358,-116.5"/>
<text text-anchor="middle" x="1443" y="-124.5" font-family="Helvetica,sans-Serif" font-size="10.00">unsupported/Eigen/MatrixFunctions</text>
</g>
<!-- Node1&#45;&gt;Node31 -->
<g id="edge66" class="edge"><title>Node1&#45;&gt;Node31</title>
<path fill="none" stroke="midnightblue" d="M1362.97,-174.362C1377.89,-165.532 1399.33,-152.844 1416.27,-142.822"/>
<polygon fill="midnightblue" stroke="midnightblue" points="1418.32,-145.676 1425.14,-137.571 1414.75,-139.652 1418.32,-145.676"/>
</g>
<!-- Node3 -->
<g id="node5" class="node"><title>Node3</title>
<a xlink:href="Utilities_8h.html" target="_top" xlink:title="Some useful tools for the ocra&#45;icub lib.">
<polygon fill="white" stroke="black" points="1197.5,-58.5 1197.5,-79.5 1298.5,-79.5 1298.5,-58.5 1197.5,-58.5"/>
<text text-anchor="middle" x="1248" y="-66.5" font-family="Helvetica,sans-Serif" font-size="10.00">ocra&#45;icub/Utilities.h</text>
</a>
</g>
<!-- Node2&#45;&gt;Node3 -->
<g id="edge4" class="edge"><title>Node2&#45;&gt;Node3</title>
<path fill="none" stroke="midnightblue" d="M1248,-116.362C1248,-108.922 1248,-98.7427 1248,-89.7276"/>
<polygon fill="midnightblue" stroke="midnightblue" points="1251.5,-89.5706 1248,-79.5707 1244.5,-89.5707 1251.5,-89.5706"/>
</g>
<!-- Node8 -->
<g id="node15" class="node"><title>Node8</title>
<polygon fill="white" stroke="#bfbfbf" points="58,-0.5 58,-21.5 102,-21.5 102,-0.5 58,-0.5"/>
<text text-anchor="middle" x="80" y="-8.5" font-family="Helvetica,sans-Serif" font-size="10.00">vector</text>
</g>
<!-- Node2&#45;&gt;Node8 -->
<g id="edge60" class="edge"><title>Node2&#45;&gt;Node8</title>
<path fill="none" stroke="midnightblue" d="M1155.97,-119.825C910.146,-100.479 248.139,-47.1279 112.039,-21.6175"/>
<polygon fill="midnightblue" stroke="midnightblue" points="112.654,-18.1711 102.157,-19.6074 111.259,-25.0306 112.654,-18.1711"/>
</g>
<!-- Node27 -->
<g id="node53" class="node"><title>Node27</title>
<polygon fill="white" stroke="#bfbfbf" points="2503.5,-0.5 2503.5,-21.5 2576.5,-21.5 2576.5,-0.5 2503.5,-0.5"/>
<text text-anchor="middle" x="2540" y="-8.5" font-family="Helvetica,sans-Serif" font-size="10.00">Eigen/Dense</text>
</g>
<!-- Node2&#45;&gt;Node27 -->
<g id="edge58" class="edge"><title>Node2&#45;&gt;Node27</title>
<path fill="none" stroke="midnightblue" d="M1261,-116.293C1282.91,-98.5055 1326.59,-64.1992 1345,-58 1463.44,-18.1206 2328.2,-38.3122 2493.05,-21.8313"/>
<polygon fill="midnightblue" stroke="midnightblue" points="2493.76,-25.2722 2503.28,-20.636 2492.94,-18.3194 2493.76,-25.2722"/>
</g>
<!-- Node29 -->
<g id="node57" class="node"><title>Node29</title>
<polygon fill="white" stroke="#bfbfbf" points="1353.5,-58.5 1353.5,-79.5 1470.5,-79.5 1470.5,-58.5 1353.5,-58.5"/>
<text text-anchor="middle" x="1412" y="-66.5" font-family="Helvetica,sans-Serif" font-size="10.00">ocra/util/ErrorsHelper.h</text>
</g>
<!-- Node2&#45;&gt;Node29 -->
<g id="edge56" class="edge"><title>Node2&#45;&gt;Node29</title>
<path fill="none" stroke="midnightblue" d="M1277.7,-116.497C1304.32,-107.082 1343.56,-93.2036 1372.76,-82.8773"/>
<polygon fill="midnightblue" stroke="midnightblue" points="1373.98,-86.1571 1382.25,-79.5231 1371.65,-79.5576 1373.98,-86.1571"/>
</g>
<!-- Node30 -->
<g id="node61" class="node"><title>Node30</title>
<a xlink:href="utils_8h.html" target="_top" xlink:title="walking&#45;client/utils.h">
<polygon fill="white" stroke="black" points="272.5,-58.5 272.5,-79.5 377.5,-79.5 377.5,-58.5 272.5,-58.5"/>
<text text-anchor="middle" x="325" y="-66.5" font-family="Helvetica,sans-Serif" font-size="10.00">walking&#45;client/utils.h</text>
</a>
</g>
<!-- Node2&#45;&gt;Node30 -->
<g id="edge62" class="edge"><title>Node2&#45;&gt;Node30</title>
<path fill="none" stroke="midnightblue" d="M1155.7,-121.2C968.173,-109.416 546.928,-82.9456 387.629,-72.9355"/>
<polygon fill="midnightblue" stroke="midnightblue" points="387.72,-69.4344 377.52,-72.3003 387.281,-76.4206 387.72,-69.4344"/>
</g>
<!-- Node4 -->
<g id="node7" class="node"><title>Node4</title>
<polygon fill="white" stroke="#bfbfbf" points="1592,-0.5 1592,-21.5 1644,-21.5 1644,-0.5 1592,-0.5"/>
<text text-anchor="middle" x="1618" y="-8.5" font-family="Helvetica,sans-Serif" font-size="10.00">memory</text>
</g>
<!-- Node3&#45;&gt;Node4 -->
<g id="edge6" class="edge"><title>Node3&#45;&gt;Node4</title>
<path fill="none" stroke="midnightblue" d="M1298.63,-60.1151C1303.15,-59.3776 1307.65,-58.662 1312,-58 1428.95,-40.1883 1462.62,-47.8774 1581.88,-21.9618"/>
<polygon fill="midnightblue" stroke="midnightblue" points="1582.75,-25.3541 1591.76,-19.7812 1581.24,-18.5186 1582.75,-25.3541"/>
</g>
<!-- Node5 -->
<g id="node9" class="node"><title>Node5</title>
<polygon fill="white" stroke="#bfbfbf" points="1662,-0.5 1662,-21.5 1706,-21.5 1706,-0.5 1662,-0.5"/>
<text text-anchor="middle" x="1684" y="-8.5" font-family="Helvetica,sans-Serif" font-size="10.00">cmath</text>
</g>
<!-- Node3&#45;&gt;Node5 -->
<g id="edge8" class="edge"><title>Node3&#45;&gt;Node5</title>
<path fill="none" stroke="midnightblue" d="M1298.61,-59.989C1303.13,-59.2785 1307.64,-58.6035 1312,-58 1459.71,-37.5309 1502.55,-54.9333 1651.84,-21.826"/>
<polygon fill="midnightblue" stroke="midnightblue" points="1652.85,-25.187 1661.83,-19.5713 1651.31,-18.3588 1652.85,-25.187"/>
</g>
<!-- Node6 -->
<g id="node11" class="node"><title>Node6</title>
<polygon fill="white" stroke="#bfbfbf" points="1724,-0.5 1724,-21.5 1778,-21.5 1778,-0.5 1724,-0.5"/>
<text text-anchor="middle" x="1751" y="-8.5" font-family="Helvetica,sans-Serif" font-size="10.00">iostream</text>
</g>
<!-- Node3&#45;&gt;Node6 -->
<g id="edge10" class="edge"><title>Node3&#45;&gt;Node6</title>
<path fill="none" stroke="midnightblue" d="M1298.6,-59.9135C1303.12,-59.219 1307.64,-58.5685 1312,-58 1487.09,-35.1706 1536.72,-55.6895 1713.73,-21.9227"/>
<polygon fill="midnightblue" stroke="midnightblue" points="1714.48,-25.3426 1723.63,-20.0032 1713.15,-18.4705 1714.48,-25.3426"/>
</g>
<!-- Node7 -->
<g id="node13" class="node"><title>Node7</title>
<polygon fill="white" stroke="#bfbfbf" points="-0.5,-0.5 -0.5,-21.5 40.5,-21.5 40.5,-0.5 -0.5,-0.5"/>
<text text-anchor="middle" x="20" y="-8.5" font-family="Helvetica,sans-Serif" font-size="10.00">string</text>
</g>
<!-- Node3&#45;&gt;Node7 -->
<g id="edge12" class="edge"><title>Node3&#45;&gt;Node7</title>
<path fill="none" stroke="midnightblue" d="M1197.25,-67.9763C988.743,-63.6425 202.212,-45.9977 50.8228,-21.6026"/>
<polygon fill="midnightblue" stroke="midnightblue" points="51.134,-18.1019 40.6695,-19.7586 49.8831,-24.9893 51.134,-18.1019"/>
</g>
<!-- Node3&#45;&gt;Node8 -->
<g id="edge14" class="edge"><title>Node3&#45;&gt;Node8</title>
<path fill="none" stroke="midnightblue" d="M1197.47,-67.8017C996.382,-62.915 257.284,-43.7907 112.235,-21.4967"/>
<polygon fill="midnightblue" stroke="midnightblue" points="112.579,-18.0042 102.128,-19.748 111.385,-24.9017 112.579,-18.0042"/>
</g>
<!-- Node9 -->
<g id="node17" class="node"><title>Node9</title>
<polygon fill="white" stroke="#bfbfbf" points="1796,-0.5 1796,-21.5 1848,-21.5 1848,-0.5 1796,-0.5"/>
<text text-anchor="middle" x="1822" y="-8.5" font-family="Helvetica,sans-Serif" font-size="10.00">sstream</text>
</g>
<!-- Node3&#45;&gt;Node9 -->
<g id="edge16" class="edge"><title>Node3&#45;&gt;Node9</title>
<path fill="none" stroke="midnightblue" d="M1298.59,-59.8503C1303.12,-59.1693 1307.64,-58.5391 1312,-58 1518.84,-32.4452 1577.28,-61.0781 1785.75,-21.8638"/>
<polygon fill="midnightblue" stroke="midnightblue" points="1786.63,-25.2597 1795.79,-19.9446 1785.31,-18.3841 1786.63,-25.2597"/>
</g>
<!-- Node10 -->
<g id="node19" class="node"><title>Node10</title>
<polygon fill="white" stroke="#bfbfbf" points="1865.5,-0.5 1865.5,-21.5 1980.5,-21.5 1980.5,-0.5 1865.5,-0.5"/>
<text text-anchor="middle" x="1923" y="-8.5" font-family="Helvetica,sans-Serif" font-size="10.00">yarp/os/BufferedPort.h</text>
</g>
<!-- Node3&#45;&gt;Node10 -->
<g id="edge18" class="edge"><title>Node3&#45;&gt;Node10</title>
<path fill="none" stroke="midnightblue" d="M1298.58,-59.8047C1303.11,-59.1335 1307.63,-58.518 1312,-58 1549.76,-29.7923 1614.12,-49.4346 1855.32,-22.1001"/>
<polygon fill="midnightblue" stroke="midnightblue" points="1855.92,-25.5545 1865.45,-20.9361 1855.12,-18.6003 1855.92,-25.5545"/>
</g>
<!-- Node11 -->
<g id="node21" class="node"><title>Node11</title>
<polygon fill="white" stroke="#bfbfbf" points="1998,-0.5 1998,-21.5 2084,-21.5 2084,-0.5 1998,-0.5"/>
<text text-anchor="middle" x="2041" y="-8.5" font-family="Helvetica,sans-Serif" font-size="10.00">yarp/os/Bottle.h</text>
</g>
<!-- Node3&#45;&gt;Node11 -->
<g id="edge20" class="edge"><title>Node3&#45;&gt;Node11</title>
<path fill="none" stroke="midnightblue" d="M1298.58,-59.7443C1303.11,-59.086 1307.63,-58.49 1312,-58 1608.07,-24.7996 1688.46,-60.4789 1987.68,-21.9834"/>
<polygon fill="midnightblue" stroke="midnightblue" points="1988.5,-25.4065 1997.96,-20.6428 1987.59,-18.4653 1988.5,-25.4065"/>
</g>
<!-- Node12 -->
<g id="node23" class="node"><title>Node12</title>
<polygon fill="white" stroke="#bfbfbf" points="2101.5,-0.5 2101.5,-21.5 2212.5,-21.5 2212.5,-0.5 2101.5,-0.5"/>
<text text-anchor="middle" x="2157" y="-8.5" font-family="Helvetica,sans-Serif" font-size="10.00">yarp/os/RateThread.h</text>
</g>
<!-- Node3&#45;&gt;Node12 -->
<g id="edge22" class="edge"><title>Node3&#45;&gt;Node12</title>
<path fill="none" stroke="midnightblue" d="M1298.57,-59.711C1303.1,-59.0598 1307.63,-58.4745 1312,-58 1654.16,-20.8548 1745.81,-58.7664 2091.18,-22.0872"/>
<polygon fill="midnightblue" stroke="midnightblue" points="2091.64,-25.5577 2101.21,-21.0086 2090.89,-18.5979 2091.64,-25.5577"/>
</g>
<!-- Node13 -->
<g id="node25" class="node"><title>Node13</title>
<polygon fill="white" stroke="#bfbfbf" points="2229.5,-0.5 2229.5,-21.5 2358.5,-21.5 2358.5,-0.5 2229.5,-0.5"/>
<text text-anchor="middle" x="2294" y="-8.5" font-family="Helvetica,sans-Serif" font-size="10.00">yarp/os/ResourceFinder.h</text>
</g>
<!-- Node3&#45;&gt;Node13 -->
<g id="edge24" class="edge"><title>Node3&#45;&gt;Node13</title>
<path fill="none" stroke="midnightblue" d="M1298.57,-59.6805C1303.1,-59.0358 1307.63,-58.4604 1312,-58 1710.76,-16.0173 1816.74,-59.4469 2219,-22.1024"/>
<polygon fill="midnightblue" stroke="midnightblue" points="2219.54,-25.5676 2229.17,-21.1476 2218.88,-18.5983 2219.54,-25.5676"/>
</g>
<!-- Node14 -->
<g id="node27" class="node"><title>Node14</title>
<polygon fill="white" stroke="#bfbfbf" points="2376,-0.5 2376,-21.5 2486,-21.5 2486,-0.5 2376,-0.5"/>
<text text-anchor="middle" x="2431" y="-8.5" font-family="Helvetica,sans-Serif" font-size="10.00">yarp/os/PortReader.h</text>
</g>
<!-- Node3&#45;&gt;Node14 -->
<g id="edge26" class="edge"><title>Node3&#45;&gt;Node14</title>
<path fill="none" stroke="midnightblue" d="M1298.57,-59.6547C1303.1,-59.0155 1307.63,-58.4484 1312,-58 1775.41,-10.4921 1898.55,-69.0068 2365.86,-21.9809"/>
<polygon fill="midnightblue" stroke="midnightblue" points="2366.31,-25.4528 2375.91,-20.9588 2365.6,-18.4887 2366.31,-25.4528"/>
</g>
<!-- Node15 -->
<g id="node29" class="node"><title>Node15</title>
<polygon fill="white" stroke="#bfbfbf" points="120,-0.5 120,-21.5 224,-21.5 224,-0.5 120,-0.5"/>
<text text-anchor="middle" x="172" y="-8.5" font-family="Helvetica,sans-Serif" font-size="10.00">yarp/os/RpcClient.h</text>
</g>
<!-- Node3&#45;&gt;Node15 -->
<g id="edge28" class="edge"><title>Node3&#45;&gt;Node15</title>
<path fill="none" stroke="midnightblue" d="M1197.44,-67.5448C1022.51,-62.3737 442.772,-44.0663 234.408,-21.9977"/>
<polygon fill="midnightblue" stroke="midnightblue" points="234.498,-18.4867 224.177,-20.8768 233.736,-25.4451 234.498,-18.4867"/>
</g>
<!-- Node16 -->
<g id="node31" class="node"><title>Node16</title>
<polygon fill="white" stroke="#bfbfbf" points="241.5,-0.5 241.5,-21.5 348.5,-21.5 348.5,-0.5 241.5,-0.5"/>
<text text-anchor="middle" x="295" y="-8.5" font-family="Helvetica,sans-Serif" font-size="10.00">yarp/os/RpcServer.h</text>
</g>
<!-- Node3&#45;&gt;Node16 -->
<g id="edge30" class="edge"><title>Node3&#45;&gt;Node16</title>
<path fill="none" stroke="midnightblue" d="M1197.09,-68.5009C1061.97,-66.7093 683.054,-58.6451 358.77,-22.0907"/>
<polygon fill="midnightblue" stroke="midnightblue" points="359.041,-18.599 348.709,-20.9454 358.249,-25.5541 359.041,-18.599"/>
</g>
<!-- Node17 -->
<g id="node33" class="node"><title>Node17</title>
<polygon fill="white" stroke="#bfbfbf" points="365.5,-0.5 365.5,-21.5 506.5,-21.5 506.5,-0.5 365.5,-0.5"/>
<text text-anchor="middle" x="436" y="-8.5" font-family="Helvetica,sans-Serif" font-size="10.00">yarp/os/ConnectionReader.h</text>
</g>
<!-- Node3&#45;&gt;Node17 -->
<g id="edge32" class="edge"><title>Node3&#45;&gt;Node17</title>
<path fill="none" stroke="midnightblue" d="M1197.24,-67.0458C1079.48,-62.2322 778.408,-48.3162 516.68,-22.1127"/>
<polygon fill="midnightblue" stroke="midnightblue" points="516.905,-18.6177 506.604,-21.0958 516.202,-25.5823 516.905,-18.6177"/>
</g>
<!-- Node18 -->
<g id="node35" class="node"><title>Node18</title>
<polygon fill="white" stroke="#bfbfbf" points="524,-0.5 524,-21.5 606,-21.5 606,-0.5 524,-0.5"/>
<text text-anchor="middle" x="565" y="-8.5" font-family="Helvetica,sans-Serif" font-size="10.00">yarp/os/Time.h</text>
</g>
<!-- Node3&#45;&gt;Node18 -->
<g id="edge34" class="edge"><title>Node3&#45;&gt;Node18</title>
<path fill="none" stroke="midnightblue" d="M1197.27,-67.6838C1091.15,-64.402 837.894,-53.8066 616.309,-22.0128"/>
<polygon fill="midnightblue" stroke="midnightblue" points="616.515,-18.506 606.115,-20.5318 615.508,-25.4333 616.515,-18.506"/>
</g>
<!-- Node19 -->
<g id="node37" class="node"><title>Node19</title>
<polygon fill="white" stroke="#bfbfbf" points="624,-0.5 624,-21.5 700,-21.5 700,-0.5 624,-0.5"/>
<text text-anchor="middle" x="662" y="-8.5" font-family="Helvetica,sans-Serif" font-size="10.00">yarp/os/Log.h</text>
</g>
<!-- Node3&#45;&gt;Node19 -->
<g id="edge36" class="edge"><title>Node3&#45;&gt;Node19</title>
<path fill="none" stroke="midnightblue" d="M1197.17,-66.9916C1102.92,-62.7412 894.581,-50.8821 710.013,-21.9729"/>
<polygon fill="midnightblue" stroke="midnightblue" points="710.554,-18.5151 700.129,-20.4047 709.457,-25.4286 710.554,-18.5151"/>
</g>
<!-- Node20 -->
<g id="node39" class="node"><title>Node20</title>
<polygon fill="white" stroke="#bfbfbf" points="717.5,-0.5 717.5,-21.5 824.5,-21.5 824.5,-0.5 717.5,-0.5"/>
<text text-anchor="middle" x="771" y="-8.5" font-family="Helvetica,sans-Serif" font-size="10.00">yarp/os/LogStream.h</text>
</g>
<!-- Node3&#45;&gt;Node20 -->
<g id="edge38" class="edge"><title>Node3&#45;&gt;Node20</title>
<path fill="none" stroke="midnightblue" d="M1197.4,-64.3038C1121.02,-56.987 971.486,-41.7796 834.959,-22.2229"/>
<polygon fill="midnightblue" stroke="midnightblue" points="835.133,-18.7118 824.735,-20.7466 834.132,-25.6399 835.133,-18.7118"/>
</g>
<!-- Node21 -->
<g id="node41" class="node"><title>Node21</title>
<polygon fill="white" stroke="#bfbfbf" points="841.5,-0.5 841.5,-21.5 938.5,-21.5 938.5,-0.5 841.5,-0.5"/>
<text text-anchor="middle" x="890" y="-8.5" font-family="Helvetica,sans-Serif" font-size="10.00">yarp/os/Property.h</text>
</g>
<!-- Node3&#45;&gt;Node21 -->
<g id="edge40" class="edge"><title>Node3&#45;&gt;Node21</title>
<path fill="none" stroke="midnightblue" d="M1197.31,-61.6506C1139.46,-53.1362 1041.76,-38.3732 948.661,-22.2522"/>
<polygon fill="midnightblue" stroke="midnightblue" points="949.248,-18.8019 938.797,-20.5358 948.048,-25.6983 949.248,-18.8019"/>
</g>
<!-- Node22 -->
<g id="node43" class="node"><title>Node22</title>
<polygon fill="white" stroke="#bfbfbf" points="955.5,-0.5 955.5,-21.5 1046.5,-21.5 1046.5,-0.5 955.5,-0.5"/>
<text text-anchor="middle" x="1001" y="-8.5" font-family="Helvetica,sans-Serif" font-size="10.00">yarp/sig/Vector.h</text>
</g>
<!-- Node3&#45;&gt;Node22 -->
<g id="edge42" class="edge"><title>Node3&#45;&gt;Node22</title>
<path fill="none" stroke="midnightblue" d="M1203.27,-58.4966C1161.78,-48.7545 1099.94,-34.2328 1055.57,-23.813"/>
<polygon fill="midnightblue" stroke="midnightblue" points="1056.35,-20.4018 1045.81,-21.5231 1054.75,-27.2165 1056.35,-20.4018"/>
</g>
<!-- Node23 -->
<g id="node45" class="node"><title>Node23</title>
<polygon fill="white" stroke="#bfbfbf" points="1063.5,-0.5 1063.5,-21.5 1152.5,-21.5 1152.5,-0.5 1063.5,-0.5"/>
<text text-anchor="middle" x="1108" y="-8.5" font-family="Helvetica,sans-Serif" font-size="10.00">yarp/sig/Matrix.h</text>
</g>
<!-- Node3&#45;&gt;Node23 -->
<g id="edge44" class="edge"><title>Node3&#45;&gt;Node23</title>
<path fill="none" stroke="midnightblue" d="M1222.65,-58.4966C1200.39,-49.2746 1167.79,-35.7695 1143.04,-25.5153"/>
<polygon fill="midnightblue" stroke="midnightblue" points="1144.22,-22.2152 1133.64,-21.6212 1141.54,-28.6822 1144.22,-22.2152"/>
</g>
<!-- Node24 -->
<g id="node47" class="node"><title>Node24</title>
<polygon fill="white" stroke="#bfbfbf" points="1170,-0.5 1170,-21.5 1228,-21.5 1228,-0.5 1170,-0.5"/>
<text text-anchor="middle" x="1199" y="-8.5" font-family="Helvetica,sans-Serif" font-size="10.00">wbi/wbi.h</text>
</g>
<!-- Node3&#45;&gt;Node24 -->
<g id="edge46" class="edge"><title>Node3&#45;&gt;Node24</title>
<path fill="none" stroke="midnightblue" d="M1239.01,-58.3619C1232.17,-50.2678 1222.6,-38.9318 1214.53,-29.3796"/>
<polygon fill="midnightblue" stroke="midnightblue" points="1217.06,-26.9508 1207.93,-21.5707 1211.71,-31.4683 1217.06,-26.9508"/>
</g>
<!-- Node25 -->
<g id="node49" class="node"><title>Node25</title>
<polygon fill="white" stroke="#bfbfbf" points="1245.5,-0.5 1245.5,-21.5 1350.5,-21.5 1350.5,-0.5 1245.5,-0.5"/>
<text text-anchor="middle" x="1298" y="-8.5" font-family="Helvetica,sans-Serif" font-size="10.00">ocra/control/Model.h</text>
</g>
<!-- Node3&#45;&gt;Node25 -->
<g id="edge48" class="edge"><title>Node3&#45;&gt;Node25</title>
<path fill="none" stroke="midnightblue" d="M1257.17,-58.3619C1264.15,-50.2678 1273.92,-38.9318 1282.16,-29.3796"/>
<polygon fill="midnightblue" stroke="midnightblue" points="1285.01,-31.4301 1288.89,-21.5707 1279.71,-26.8595 1285.01,-31.4301"/>
</g>
<!-- Node26 -->
<g id="node51" class="node"><title>Node26</title>
<polygon fill="white" stroke="#bfbfbf" points="1367.5,-0.5 1367.5,-21.5 1488.5,-21.5 1488.5,-0.5 1367.5,-0.5"/>
<text text-anchor="middle" x="1428" y="-8.5" font-family="Helvetica,sans-Serif" font-size="10.00">ocra/util/StringUtilities.h</text>
</g>
<!-- Node3&#45;&gt;Node26 -->
<g id="edge50" class="edge"><title>Node3&#45;&gt;Node26</title>
<path fill="none" stroke="midnightblue" d="M1280.6,-58.4966C1310.07,-49.0001 1353.64,-34.9619 1385.77,-24.6087"/>
<polygon fill="midnightblue" stroke="midnightblue" points="1386.9,-27.9214 1395.34,-21.5231 1384.75,-21.2587 1386.9,-27.9214"/>
</g>
<!-- Node3&#45;&gt;Node27 -->
<g id="edge52" class="edge"><title>Node3&#45;&gt;Node27</title>
<path fill="none" stroke="midnightblue" d="M1298.57,-59.6373C1303.1,-59.0018 1307.63,-58.4403 1312,-58 1832.05,-5.65409 1972,-91.7349 2493.25,-21.9944"/>
<polygon fill="midnightblue" stroke="midnightblue" points="2493.84,-25.4459 2503.28,-20.6386 2492.9,-18.5089 2493.84,-25.4459"/>
</g>
<!-- Node28 -->
<g id="node55" class="node"><title>Node28</title>
<polygon fill="white" stroke="#bfbfbf" points="1506,-0.5 1506,-21.5 1574,-21.5 1574,-0.5 1506,-0.5"/>
<text text-anchor="middle" x="1540" y="-8.5" font-family="Helvetica,sans-Serif" font-size="10.00">Eigen/Lgsm</text>
</g>
<!-- Node3&#45;&gt;Node28 -->
<g id="edge54" class="edge"><title>Node3&#45;&gt;Node28</title>
<path fill="none" stroke="midnightblue" d="M1298.64,-59.8376C1355.99,-49.3948 1446.91,-32.6299 1495.97,-22.1096"/>
<polygon fill="midnightblue" stroke="midnightblue" points="1496.76,-25.5204 1505.78,-19.964 1495.26,-18.6822 1496.76,-25.5204"/>
</g>
<!-- Node30&#45;&gt;Node7 -->
<g id="edge64" class="edge"><title>Node30&#45;&gt;Node7</title>
<path fill="none" stroke="midnightblue" d="M272.459,-63.1325C218.628,-56.4369 132.505,-43.8318 50.7015,-22.1162"/>
<polygon fill="midnightblue" stroke="midnightblue" points="51.3165,-18.6568 40.7493,-19.4226 49.4876,-25.4137 51.3165,-18.6568"/>
</g>
</g>
</svg>
