<?xml version="1.0" encoding="UTF-8" standalone="no"?>
<!DOCTYPE svg PUBLIC "-//W3C//DTD SVG 1.1//EN"
 "http://www.w3.org/Graphics/SVG/1.1/DTD/svg11.dtd">
<!-- Generated by graphviz version 2.38.0 (20140413.2041)
 -->
<!-- Title: SquaredLinearFunction.cpp Pages: 1 -->
<svg width="1577pt" height="464pt"
 viewBox="0.00 0.00 1577.00 464.00" xmlns="http://www.w3.org/2000/svg" xmlns:xlink="http://www.w3.org/1999/xlink">
<g id="graph0" class="graph" transform="scale(1 1) rotate(0) translate(4 460)">
<title>SquaredLinearFunction.cpp</title>
<polygon fill="white" stroke="none" points="-4,4 -4,-460 1573,-460 1573,4 -4,4"/>
<!-- Node1 -->
<g id="node1" class="node"><title>Node1</title>
<polygon fill="#bfbfbf" stroke="black" points="784.5,-436.5 784.5,-455.5 919.5,-455.5 919.5,-436.5 784.5,-436.5"/>
<text text-anchor="middle" x="852" y="-443.5" font-family="Helvetica,sans-Serif" font-size="10.00">SquaredLinearFunction.cpp</text>
</g>
<!-- Node2 -->
<g id="node2" class="node"><title>Node2</title>
<g id="a_node2"><a xlink:href="../../d1/d0e/SquaredLinearFunction_8h.html" target="_top" xlink:title="Declaration file of the SquaredLinearFunction class. ">
<polygon fill="white" stroke="black" points="862,-369.5 862,-399.5 990,-399.5 990,-369.5 862,-369.5"/>
<text text-anchor="start" x="870" y="-387.5" font-family="Helvetica,sans-Serif" font-size="10.00">ocra/optim/SquaredLinear</text>
<text text-anchor="middle" x="926" y="-376.5" font-family="Helvetica,sans-Serif" font-size="10.00">Function.h</text>
</a>
</g>
</g>
<!-- Node1&#45;&gt;Node2 -->
<g id="edge1" class="edge"><title>Node1&#45;&gt;Node2</title>
<path fill="none" stroke="midnightblue" d="M862.602,-436.475C872.437,-428.567 887.464,-416.485 900.42,-406.067"/>
<polygon fill="midnightblue" stroke="midnightblue" points="902.96,-408.517 908.56,-399.523 898.573,-403.062 902.96,-408.517"/>
</g>
<!-- Node40 -->
<g id="node40" class="node"><title>Node40</title>
<g id="a_node40"><a xlink:href="../../dc/d6f/DiagonalLinearFunction_8h.html" target="_top" xlink:title="Declaration file of the DiagonalLinearFunction class. ">
<polygon fill="white" stroke="black" points="714,-369.5 714,-399.5 844,-399.5 844,-369.5 714,-369.5"/>
<text text-anchor="start" x="722" y="-387.5" font-family="Helvetica,sans-Serif" font-size="10.00">ocra/optim/DiagonalLinear</text>
<text text-anchor="middle" x="779" y="-376.5" font-family="Helvetica,sans-Serif" font-size="10.00">Function.h</text>
</a>
</g>
</g>
<!-- Node1&#45;&gt;Node40 -->
<g id="edge60" class="edge"><title>Node1&#45;&gt;Node40</title>
<path fill="none" stroke="midnightblue" d="M841.541,-436.475C831.839,-428.567 817.015,-416.485 804.234,-406.067"/>
<polygon fill="midnightblue" stroke="midnightblue" points="806.167,-403.128 796.205,-399.523 801.745,-408.554 806.167,-403.128"/>
</g>
<!-- Node3 -->
<g id="node3" class="node"><title>Node3</title>
<g id="a_node3"><a xlink:href="../../dc/d8a/LinearFunction_8h.html" target="_top" xlink:title="Declaration file of the LinearFunction class. ">
<polygon fill="white" stroke="black" points="727.5,-313.5 727.5,-332.5 864.5,-332.5 864.5,-313.5 727.5,-313.5"/>
<text text-anchor="middle" x="796" y="-320.5" font-family="Helvetica,sans-Serif" font-size="10.00">ocra/optim/LinearFunction.h</text>
</a>
</g>
</g>
<!-- Node2&#45;&gt;Node3 -->
<g id="edge2" class="edge"><title>Node2&#45;&gt;Node3</title>
<path fill="none" stroke="midnightblue" d="M895.192,-369.399C873.672,-359.55 845.163,-346.501 824.232,-336.922"/>
<polygon fill="midnightblue" stroke="midnightblue" points="825.466,-333.637 814.916,-332.658 822.552,-340.002 825.466,-333.637"/>
</g>
<!-- Node38 -->
<g id="node38" class="node"><title>Node38</title>
<g id="a_node38"><a xlink:href="../../d4/d83/QuadraticFunction_8h.html" target="_top" xlink:title="Declaration file of the QuadraticFunction class. ">
<polygon fill="white" stroke="black" points="953.5,-313.5 953.5,-332.5 1106.5,-332.5 1106.5,-313.5 953.5,-313.5"/>
<text text-anchor="middle" x="1030" y="-320.5" font-family="Helvetica,sans-Serif" font-size="10.00">ocra/optim/QuadraticFunction.h</text>
</a>
</g>
</g>
<!-- Node2&#45;&gt;Node38 -->
<g id="edge55" class="edge"><title>Node2&#45;&gt;Node38</title>
<path fill="none" stroke="midnightblue" d="M950.647,-369.399C967.317,-359.862 989.231,-347.325 1005.81,-337.842"/>
<polygon fill="midnightblue" stroke="midnightblue" points="1007.93,-340.662 1014.87,-332.658 1004.45,-334.586 1007.93,-340.662"/>
</g>
<!-- Node39 -->
<g id="node39" class="node"><title>Node39</title>
<polygon fill="white" stroke="#bfbfbf" points="883,-313.5 883,-332.5 935,-332.5 935,-313.5 883,-313.5"/>
<text text-anchor="middle" x="909" y="-320.5" font-family="Helvetica,sans-Serif" font-size="10.00">sstream</text>
</g>
<!-- Node2&#45;&gt;Node39 -->
<g id="edge59" class="edge"><title>Node2&#45;&gt;Node39</title>
<path fill="none" stroke="midnightblue" d="M921.971,-369.399C919.654,-361.288 916.716,-351.007 914.223,-342.281"/>
<polygon fill="midnightblue" stroke="midnightblue" points="917.586,-341.311 911.474,-332.658 910.856,-343.235 917.586,-341.311"/>
</g>
<!-- Node4 -->
<g id="node4" class="node"><title>Node4</title>
<g id="a_node4"><a xlink:href="../../df/df5/Function_8h.html" target="_top" xlink:title="Declaration file of the Function class. ">
<polygon fill="white" stroke="black" points="918.5,-257.5 918.5,-276.5 1029.5,-276.5 1029.5,-257.5 918.5,-257.5"/>
<text text-anchor="middle" x="974" y="-264.5" font-family="Helvetica,sans-Serif" font-size="10.00">ocra/optim/Function.h</text>
</a>
</g>
</g>
<!-- Node3&#45;&gt;Node4 -->
<g id="edge3" class="edge"><title>Node3&#45;&gt;Node4</title>
<path fill="none" stroke="midnightblue" d="M824.205,-313.444C854.41,-304.28 902.511,-289.688 936.029,-279.519"/>
<polygon fill="midnightblue" stroke="midnightblue" points="937.374,-282.769 945.927,-276.516 935.342,-276.07 937.374,-282.769"/>
</g>
<!-- Node36 -->
<g id="node36" class="node"><title>Node36</title>
<g id="a_node36"><a xlink:href="../../df/d0a/Macros_8h.html" target="_top" xlink:title="ocra/util/Macros.h">
<polygon fill="white" stroke="black" points="748.5,-257.5 748.5,-276.5 843.5,-276.5 843.5,-257.5 748.5,-257.5"/>
<text text-anchor="middle" x="796" y="-264.5" font-family="Helvetica,sans-Serif" font-size="10.00">ocra/util/Macros.h</text>
</a>
</g>
</g>
<!-- Node3&#45;&gt;Node36 -->
<g id="edge53" class="edge"><title>Node3&#45;&gt;Node36</title>
<path fill="none" stroke="midnightblue" d="M796,-313.083C796,-306.006 796,-295.861 796,-286.986"/>
<polygon fill="midnightblue" stroke="midnightblue" points="799.5,-286.751 796,-276.751 792.5,-286.751 799.5,-286.751"/>
</g>
<!-- Node5 -->
<g id="node5" class="node"><title>Node5</title>
<g id="a_node5"><a xlink:href="../../de/d94/IFunction_8h.html" target="_top" xlink:title="Declaration file of the IFunction interface. ">
<polygon fill="white" stroke="black" points="1248,-134.5 1248,-153.5 1362,-153.5 1362,-134.5 1248,-134.5"/>
<text text-anchor="middle" x="1305" y="-141.5" font-family="Helvetica,sans-Serif" font-size="10.00">ocra/optim/IFunction.h</text>
</a>
</g>
</g>
<!-- Node4&#45;&gt;Node5 -->
<g id="edge4" class="edge"><title>Node4&#45;&gt;Node5</title>
<path fill="none" stroke="midnightblue" d="M1029.8,-263.617C1132.51,-258.655 1343.09,-245.578 1365,-221 1374.17,-210.716 1371.16,-202.323 1365,-190 1358.27,-176.543 1345.39,-166.067 1333.29,-158.621"/>
<polygon fill="midnightblue" stroke="midnightblue" points="1334.72,-155.41 1324.3,-153.52 1331.27,-161.498 1334.72,-155.41"/>
</g>
<!-- Node14 -->
<g id="node14" class="node"><title>Node14</title>
<g id="a_node14"><a xlink:href="../../d9/d54/IFunctionProperties_8h.html" target="_top" xlink:title="ocra/optim/IFunctionProperties.h">
<polygon fill="white" stroke="black" points="1064,-196 1064,-215 1222,-215 1222,-196 1064,-196"/>
<text text-anchor="middle" x="1143" y="-203" font-family="Helvetica,sans-Serif" font-size="10.00">ocra/optim/IFunctionProperties.h</text>
</a>
</g>
</g>
<!-- Node4&#45;&gt;Node14 -->
<g id="edge13" class="edge"><title>Node4&#45;&gt;Node14</title>
<path fill="none" stroke="midnightblue" d="M998.214,-257.475C1027.33,-247.225 1076.37,-229.959 1109.2,-218.399"/>
<polygon fill="midnightblue" stroke="midnightblue" points="1110.56,-221.631 1118.83,-215.009 1108.24,-215.029 1110.56,-221.631"/>
</g>
<!-- Node16 -->
<g id="node16" class="node"><title>Node16</title>
<g id="a_node16"><a xlink:href="../../db/d47/AbilitySet_8h.html" target="_top" xlink:title="ocra/optim/AbilitySet.h">
<polygon fill="white" stroke="black" points="1240,-196 1240,-215 1356,-215 1356,-196 1240,-196"/>
<text text-anchor="middle" x="1298" y="-203" font-family="Helvetica,sans-Serif" font-size="10.00">ocra/optim/AbilitySet.h</text>
</a>
</g>
</g>
<!-- Node4&#45;&gt;Node16 -->
<g id="edge16" class="edge"><title>Node4&#45;&gt;Node16</title>
<path fill="none" stroke="midnightblue" d="M1026.29,-257.471C1078.3,-248.84 1160.32,-234.831 1231,-221 1237.13,-219.8 1243.57,-218.483 1249.92,-217.146"/>
<polygon fill="midnightblue" stroke="midnightblue" points="1250.74,-220.551 1259.79,-215.044 1249.28,-213.705 1250.74,-220.551"/>
</g>
<!-- Node17 -->
<g id="node17" class="node"><title>Node17</title>
<g id="a_node17"><a xlink:href="../../d1/d87/CoupledInputOutputSize_8h.html" target="_top" xlink:title="ocra/optim/CoupledInputOutput\lSize.h">
<polygon fill="white" stroke="black" points="605,-190.5 605,-220.5 757,-220.5 757,-190.5 605,-190.5"/>
<text text-anchor="start" x="613" y="-208.5" font-family="Helvetica,sans-Serif" font-size="10.00">ocra/optim/CoupledInputOutput</text>
<text text-anchor="middle" x="681" y="-197.5" font-family="Helvetica,sans-Serif" font-size="10.00">Size.h</text>
</a>
</g>
</g>
<!-- Node4&#45;&gt;Node17 -->
<g id="edge19" class="edge"><title>Node4&#45;&gt;Node17</title>
<path fill="none" stroke="midnightblue" d="M932.02,-257.475C887.331,-248.4 815.566,-233.826 760.193,-222.582"/>
<polygon fill="midnightblue" stroke="midnightblue" points="760.551,-219.083 750.054,-220.523 759.158,-225.943 760.551,-219.083"/>
</g>
<!-- Node18 -->
<g id="node18" class="node"><title>Node18</title>
<g id="a_node18"><a xlink:href="../../d7/d90/Variable_8h.html" target="_top" xlink:title="Declaration file of the Variable class. ">
<polygon fill="white" stroke="black" points="775.5,-196 775.5,-215 884.5,-215 884.5,-196 775.5,-196"/>
<text text-anchor="middle" x="830" y="-203" font-family="Helvetica,sans-Serif" font-size="10.00">ocra/optim/Variable.h</text>
</a>
</g>
</g>
<!-- Node4&#45;&gt;Node18 -->
<g id="edge20" class="edge"><title>Node4&#45;&gt;Node18</title>
<path fill="none" stroke="midnightblue" d="M953.368,-257.475C928.881,-247.357 887.853,-230.405 859.891,-218.851"/>
<polygon fill="midnightblue" stroke="midnightblue" points="861.172,-215.593 850.593,-215.009 858.499,-222.063 861.172,-215.593"/>
</g>
<!-- Node19 -->
<g id="node19" class="node"><title>Node19</title>
<g id="a_node19"><a xlink:href="../../d8/ddc/ObserverSubject_8h.html" target="_top" xlink:title="Declaration file of the Observer, Subject and ObserverSubject classes. ">
<polygon fill="white" stroke="black" points="406,-134.5 406,-153.5 552,-153.5 552,-134.5 406,-134.5"/>
<text text-anchor="middle" x="479" y="-141.5" font-family="Helvetica,sans-Serif" font-size="10.00">ocra/optim/ObserverSubject.h</text>
</a>
</g>
</g>
<!-- Node4&#45;&gt;Node19 -->
<g id="edge50" class="edge"><title>Node4&#45;&gt;Node19</title>
<path fill="none" stroke="midnightblue" d="M918.117,-261.085C820.142,-252.211 624.973,-233.297 596,-221 575.936,-212.484 575.976,-202.326 558,-190 540.967,-178.321 520.708,-166.825 504.97,-158.376"/>
<polygon fill="midnightblue" stroke="midnightblue" points="506.3,-155.12 495.825,-153.534 503.025,-161.306 506.3,-155.12"/>
</g>
<!-- Node35 -->
<g id="node35" class="node"><title>Node35</title>
<g id="a_node35"><a xlink:href="../../df/d97/NamedInstance_8h.html" target="_top" xlink:title="ocra/optim/NamedInstance.h">
<polygon fill="white" stroke="black" points="902.5,-196 902.5,-215 1045.5,-215 1045.5,-196 902.5,-196"/>
<text text-anchor="middle" x="974" y="-203" font-family="Helvetica,sans-Serif" font-size="10.00">ocra/optim/NamedInstance.h</text>
</a>
</g>
</g>
<!-- Node4&#45;&gt;Node35 -->
<g id="edge51" class="edge"><title>Node4&#45;&gt;Node35</title>
<path fill="none" stroke="midnightblue" d="M974,-257.475C974,-249.08 974,-235.981 974,-225.163"/>
<polygon fill="midnightblue" stroke="midnightblue" points="977.5,-225.009 974,-215.009 970.5,-225.009 977.5,-225.009"/>
</g>
<!-- Node6 -->
<g id="node6" class="node"><title>Node6</title>
<g id="a_node6"><a xlink:href="../../d5/d55/MathTypes_8h.html" target="_top" xlink:title="Declaration file of the OptimizationVariable class. ">
<polygon fill="white" stroke="black" points="1385.5,-73 1385.5,-92 1496.5,-92 1496.5,-73 1385.5,-73"/>
<text text-anchor="middle" x="1441" y="-80" font-family="Helvetica,sans-Serif" font-size="10.00">ocra/util/MathTypes.h</text>
</a>
</g>
</g>
<!-- Node5&#45;&gt;Node6 -->
<g id="edge5" class="edge"><title>Node5&#45;&gt;Node6</title>
<path fill="none" stroke="midnightblue" d="M1324.49,-134.475C1347.41,-124.445 1385.69,-107.7 1412.08,-96.1546"/>
<polygon fill="midnightblue" stroke="midnightblue" points="1413.79,-99.2239 1421.55,-92.0091 1410.99,-92.8108 1413.79,-99.2239"/>
</g>
<!-- Node9 -->
<g id="node9" class="node"><title>Node9</title>
<g id="a_node9"><a xlink:href="../../de/df3/ocra__assert_8h.html" target="_top" xlink:title="ocra/optim/ocra_assert.h">
<polygon fill="white" stroke="black" points="1242.5,-73 1242.5,-92 1367.5,-92 1367.5,-73 1242.5,-73"/>
<text text-anchor="middle" x="1305" y="-80" font-family="Helvetica,sans-Serif" font-size="10.00">ocra/optim/ocra_assert.h</text>
</a>
</g>
</g>
<!-- Node5&#45;&gt;Node9 -->
<g id="edge8" class="edge"><title>Node5&#45;&gt;Node9</title>
<path fill="none" stroke="midnightblue" d="M1305,-134.475C1305,-126.08 1305,-112.981 1305,-102.163"/>
<polygon fill="midnightblue" stroke="midnightblue" points="1308.5,-102.009 1305,-92.0091 1301.5,-102.009 1308.5,-102.009"/>
</g>
<!-- Node11 -->
<g id="node11" class="node"><title>Node11</title>
<polygon fill="white" stroke="#bfbfbf" points="1515,-73 1515,-92 1569,-92 1569,-73 1515,-73"/>
<text text-anchor="middle" x="1542" y="-80" font-family="Helvetica,sans-Serif" font-size="10.00">iostream</text>
</g>
<!-- Node5&#45;&gt;Node11 -->
<g id="edge10" class="edge"><title>Node5&#45;&gt;Node11</title>
<path fill="none" stroke="midnightblue" d="M1352.41,-134.447C1393.27,-126.575 1453.62,-113.748 1505,-98 1507.42,-97.257 1509.91,-96.4285 1512.4,-95.5544"/>
<polygon fill="midnightblue" stroke="midnightblue" points="1513.69,-98.81 1521.84,-92.0411 1511.25,-92.2498 1513.69,-98.81"/>
</g>
<!-- Node12 -->
<g id="node12" class="node"><title>Node12</title>
<polygon fill="white" stroke="#bfbfbf" points="1181,-73 1181,-92 1225,-92 1225,-73 1181,-73"/>
<text text-anchor="middle" x="1203" y="-80" font-family="Helvetica,sans-Serif" font-size="10.00">vector</text>
</g>
<!-- Node5&#45;&gt;Node12 -->
<g id="edge11" class="edge"><title>Node5&#45;&gt;Node12</title>
<path fill="none" stroke="midnightblue" d="M1290.39,-134.475C1273.65,-124.711 1246,-108.581 1226.28,-97.0808"/>
<polygon fill="midnightblue" stroke="midnightblue" points="1227.99,-94.0246 1217.59,-92.0091 1224.46,-100.071 1227.99,-94.0246"/>
</g>
<!-- Node13 -->
<g id="node13" class="node"><title>Node13</title>
<polygon fill="white" stroke="#bfbfbf" points="1103.5,-73 1103.5,-92 1162.5,-92 1162.5,-73 1103.5,-73"/>
<text text-anchor="middle" x="1133" y="-80" font-family="Helvetica,sans-Serif" font-size="10.00">stdexcept</text>
</g>
<!-- Node5&#45;&gt;Node13 -->
<g id="edge12" class="edge"><title>Node5&#45;&gt;Node13</title>
<path fill="none" stroke="midnightblue" d="M1278.93,-134.432C1252.05,-125.543 1208.98,-111.129 1172,-98 1169.76,-97.2048 1167.45,-96.3745 1165.13,-95.5312"/>
<polygon fill="midnightblue" stroke="midnightblue" points="1166.24,-92.2096 1155.64,-92.0482 1163.82,-98.7806 1166.24,-92.2096"/>
</g>
<!-- Node7 -->
<g id="node7" class="node"><title>Node7</title>
<polygon fill="white" stroke="#bfbfbf" points="1374.5,-6 1374.5,-25 1447.5,-25 1447.5,-6 1374.5,-6"/>
<text text-anchor="middle" x="1411" y="-13" font-family="Helvetica,sans-Serif" font-size="10.00">Eigen/Dense</text>
</g>
<!-- Node6&#45;&gt;Node7 -->
<g id="edge6" class="edge"><title>Node6&#45;&gt;Node7</title>
<path fill="none" stroke="midnightblue" d="M1436.95,-72.7338C1432.46,-62.9877 1425.07,-46.9805 1419.32,-34.5318"/>
<polygon fill="midnightblue" stroke="midnightblue" points="1422.35,-32.7402 1414.98,-25.1273 1415.99,-35.6736 1422.35,-32.7402"/>
</g>
<!-- Node8 -->
<g id="node8" class="node"><title>Node8</title>
<polygon fill="white" stroke="#bfbfbf" points="1466,-6 1466,-25 1510,-25 1510,-6 1466,-6"/>
<text text-anchor="middle" x="1488" y="-13" font-family="Helvetica,sans-Serif" font-size="10.00">cmath</text>
</g>
<!-- Node6&#45;&gt;Node8 -->
<g id="edge7" class="edge"><title>Node6&#45;&gt;Node8</title>
<path fill="none" stroke="midnightblue" d="M1447.34,-72.7338C1454.6,-62.6953 1466.66,-46.0145 1475.76,-33.4213"/>
<polygon fill="midnightblue" stroke="midnightblue" points="1478.74,-35.2816 1481.76,-25.1273 1473.07,-31.18 1478.74,-35.2816"/>
</g>
<!-- Node10 -->
<g id="node10" class="node"><title>Node10</title>
<polygon fill="white" stroke="#bfbfbf" points="1283.5,-6 1283.5,-25 1326.5,-25 1326.5,-6 1283.5,-6"/>
<text text-anchor="middle" x="1305" y="-13" font-family="Helvetica,sans-Serif" font-size="10.00">cstdio</text>
</g>
<!-- Node9&#45;&gt;Node10 -->
<g id="edge9" class="edge"><title>Node9&#45;&gt;Node10</title>
<path fill="none" stroke="midnightblue" d="M1305,-72.7338C1305,-63.1826 1305,-47.6183 1305,-35.2829"/>
<polygon fill="midnightblue" stroke="midnightblue" points="1308.5,-35.1273 1305,-25.1273 1301.5,-35.1273 1308.5,-35.1273"/>
</g>
<!-- Node14&#45;&gt;Node12 -->
<g id="edge15" class="edge"><title>Node14&#45;&gt;Node12</title>
<path fill="none" stroke="midnightblue" d="M1147.32,-195.798C1157.09,-176.089 1181.08,-127.711 1194.15,-101.342"/>
<polygon fill="midnightblue" stroke="midnightblue" points="1197.42,-102.637 1198.72,-92.1232 1191.15,-99.5273 1197.42,-102.637"/>
</g>
<!-- Node15 -->
<g id="node15" class="node"><title>Node15</title>
<polygon fill="white" stroke="#bfbfbf" points="1065.5,-134.5 1065.5,-153.5 1106.5,-153.5 1106.5,-134.5 1065.5,-134.5"/>
<text text-anchor="middle" x="1086" y="-141.5" font-family="Helvetica,sans-Serif" font-size="10.00">string</text>
</g>
<!-- Node14&#45;&gt;Node15 -->
<g id="edge14" class="edge"><title>Node14&#45;&gt;Node15</title>
<path fill="none" stroke="midnightblue" d="M1134.83,-195.975C1126.11,-186.873 1112.1,-172.241 1101.31,-160.983"/>
<polygon fill="midnightblue" stroke="midnightblue" points="1103.6,-158.309 1094.15,-153.509 1098.54,-163.151 1103.6,-158.309"/>
</g>
<!-- Node16&#45;&gt;Node5 -->
<g id="edge17" class="edge"><title>Node16&#45;&gt;Node5</title>
<path fill="none" stroke="midnightblue" d="M1299,-195.975C1299.99,-187.58 1301.53,-174.481 1302.8,-163.663"/>
<polygon fill="midnightblue" stroke="midnightblue" points="1306.31,-163.85 1304,-153.509 1299.35,-163.032 1306.31,-163.85"/>
</g>
<!-- Node16&#45;&gt;Node12 -->
<g id="edge18" class="edge"><title>Node16&#45;&gt;Node12</title>
<path fill="none" stroke="midnightblue" d="M1284.97,-195.669C1272.06,-186.433 1252.35,-170.943 1239,-154 1226.4,-138.019 1216.34,-116.941 1210.09,-102.007"/>
<polygon fill="midnightblue" stroke="midnightblue" points="1213.2,-100.36 1206.23,-92.3803 1206.7,-102.965 1213.2,-100.36"/>
</g>
<!-- Node18&#45;&gt;Node12 -->
<g id="edge49" class="edge"><title>Node18&#45;&gt;Node12</title>
<path fill="none" stroke="midnightblue" d="M849.438,-195.947C870.921,-186.332 906.398,-169.97 936,-154 951.094,-145.857 952.953,-140.051 969,-134 1054.33,-101.823 1083.91,-125.028 1171,-98 1172.88,-97.417 1174.79,-96.7508 1176.7,-96.0315"/>
<polygon fill="midnightblue" stroke="midnightblue" points="1178.16,-99.2168 1186.04,-92.1336 1175.46,-92.7574 1178.16,-99.2168"/>
</g>
<!-- Node18&#45;&gt;Node15 -->
<g id="edge48" class="edge"><title>Node18&#45;&gt;Node15</title>
<path fill="none" stroke="midnightblue" d="M866.965,-195.935C875.511,-193.97 884.57,-191.901 893,-190 962.405,-174.349 982.564,-172.78 1055.71,-153.917"/>
<polygon fill="midnightblue" stroke="midnightblue" points="1056.6,-157.302 1065.4,-151.399 1054.84,-150.528 1056.6,-157.302"/>
</g>
<!-- Node18&#45;&gt;Node19 -->
<g id="edge21" class="edge"><title>Node18&#45;&gt;Node19</title>
<path fill="none" stroke="midnightblue" d="M794.209,-195.945C785.039,-193.876 775.175,-191.757 766,-190 693.218,-176.066 609.442,-163.303 551.266,-154.957"/>
<polygon fill="midnightblue" stroke="midnightblue" points="551.466,-151.45 541.072,-153.502 550.477,-158.38 551.466,-151.45"/>
</g>
<!-- Node30 -->
<g id="node30" class="node"><title>Node30</title>
<g id="a_node30"><a xlink:href="../../d1/de6/Composite_8h.html" target="_top" xlink:title="Utility classes and functions to implement the Composite design pattern. ">
<polygon fill="white" stroke="black" points="762.5,-134.5 762.5,-153.5 883.5,-153.5 883.5,-134.5 762.5,-134.5"/>
<text text-anchor="middle" x="823" y="-141.5" font-family="Helvetica,sans-Serif" font-size="10.00">ocra/optim/Composite.h</text>
</a>
</g>
</g>
<!-- Node18&#45;&gt;Node30 -->
<g id="edge35" class="edge"><title>Node18&#45;&gt;Node30</title>
<path fill="none" stroke="midnightblue" d="M828.997,-195.975C828.009,-187.58 826.468,-174.481 825.196,-163.663"/>
<polygon fill="midnightblue" stroke="midnightblue" points="828.646,-163.032 824.001,-153.509 821.694,-163.85 828.646,-163.032"/>
</g>
<!-- Node31 -->
<g id="node31" class="node"><title>Node31</title>
<polygon fill="white" stroke="#bfbfbf" points="968.5,-73 968.5,-92 1085.5,-92 1085.5,-73 968.5,-73"/>
<text text-anchor="middle" x="1027" y="-80" font-family="Helvetica,sans-Serif" font-size="10.00">boost/noncopyable.hpp</text>
</g>
<!-- Node18&#45;&gt;Node31 -->
<g id="edge47" class="edge"><title>Node18&#45;&gt;Node31</title>
<path fill="none" stroke="midnightblue" d="M842.194,-195.924C861.7,-182.314 901.262,-155.144 936,-134 957.817,-120.72 983.287,-106.708 1001.72,-96.8221"/>
<polygon fill="midnightblue" stroke="midnightblue" points="1003.49,-99.8471 1010.67,-92.0539 1000.2,-93.6702 1003.49,-99.8471"/>
</g>
<!-- Node34 -->
<g id="node34" class="node"><title>Node34</title>
<polygon fill="white" stroke="#bfbfbf" points="978.5,-134.5 978.5,-153.5 1047.5,-153.5 1047.5,-134.5 978.5,-134.5"/>
<text text-anchor="middle" x="1013" y="-141.5" font-family="Helvetica,sans-Serif" font-size="10.00">Eigen/Eigen</text>
</g>
<!-- Node18&#45;&gt;Node34 -->
<g id="edge46" class="edge"><title>Node18&#45;&gt;Node34</title>
<path fill="none" stroke="midnightblue" d="M856.219,-195.975C888.018,-185.636 941.765,-168.161 977.317,-156.602"/>
<polygon fill="midnightblue" stroke="midnightblue" points="978.401,-159.93 986.829,-153.509 976.237,-153.273 978.401,-159.93"/>
</g>
<!-- Node20 -->
<g id="node20" class="node"><title>Node20</title>
<g id="a_node20"><a xlink:href="../../df/d67/ObserverSubjectBase_8h.html" target="_top" xlink:title="Declaration file of the Observer and Subject base classes. ">
<polygon fill="white" stroke="black" points="148,-67.5 148,-97.5 286,-97.5 286,-67.5 148,-67.5"/>
<text text-anchor="start" x="156" y="-85.5" font-family="Helvetica,sans-Serif" font-size="10.00">ocra/optim/ObserverSubject</text>
<text text-anchor="middle" x="217" y="-74.5" font-family="Helvetica,sans-Serif" font-size="10.00">Base.h</text>
</a>
</g>
</g>
<!-- Node19&#45;&gt;Node20 -->
<g id="edge22" class="edge"><title>Node19&#45;&gt;Node20</title>
<path fill="none" stroke="midnightblue" d="M441.462,-134.475C401.749,-125.456 338.126,-111.008 288.74,-99.7921"/>
<polygon fill="midnightblue" stroke="midnightblue" points="289.275,-96.3246 278.748,-97.523 287.725,-103.151 289.275,-96.3246"/>
</g>
<!-- Node24 -->
<g id="node24" class="node"><title>Node24</title>
<polygon fill="white" stroke="#bfbfbf" points="0,-0.5 0,-30.5 100,-30.5 100,-0.5 0,-0.5"/>
<text text-anchor="start" x="8" y="-18.5" font-family="Helvetica,sans-Serif" font-size="10.00">boost/type_traits/is</text>
<text text-anchor="middle" x="50" y="-7.5" font-family="Helvetica,sans-Serif" font-size="10.00">_class.hpp</text>
</g>
<!-- Node19&#45;&gt;Node24 -->
<g id="edge34" class="edge"><title>Node19&#45;&gt;Node24</title>
<path fill="none" stroke="midnightblue" d="M405.95,-138.476C320.543,-132.296 185,-119.46 139,-98 109.726,-84.3428 83.4302,-57.5731 67.1442,-38.4398"/>
<polygon fill="midnightblue" stroke="midnightblue" points="69.6629,-35.9932 60.5945,-30.5145 64.2671,-40.4525 69.6629,-35.9932"/>
</g>
<!-- Node25 -->
<g id="node25" class="node"><title>Node25</title>
<polygon fill="white" stroke="#bfbfbf" points="410,-0.5 410,-30.5 510,-30.5 510,-0.5 410,-0.5"/>
<text text-anchor="start" x="418" y="-18.5" font-family="Helvetica,sans-Serif" font-size="10.00">boost/type_traits/is</text>
<text text-anchor="middle" x="460" y="-7.5" font-family="Helvetica,sans-Serif" font-size="10.00">_base_of.hpp</text>
</g>
<!-- Node19&#45;&gt;Node25 -->
<g id="edge32" class="edge"><title>Node19&#45;&gt;Node25</title>
<path fill="none" stroke="midnightblue" d="M477.694,-134.305C474.839,-115.298 467.956,-69.4696 463.665,-40.9004"/>
<polygon fill="midnightblue" stroke="midnightblue" points="467.108,-40.2572 462.161,-30.888 460.185,-41.297 467.108,-40.2572"/>
</g>
<!-- Node26 -->
<g id="node26" class="node"><title>Node26</title>
<polygon fill="white" stroke="#bfbfbf" points="528.5,-6 528.5,-25 647.5,-25 647.5,-6 528.5,-6"/>
<text text-anchor="middle" x="588" y="-13" font-family="Helvetica,sans-Serif" font-size="10.00">boost/static_assert.hpp</text>
</g>
<!-- Node19&#45;&gt;Node26 -->
<g id="edge31" class="edge"><title>Node19&#45;&gt;Node26</title>
<path fill="none" stroke="midnightblue" d="M481.801,-134.221C486.924,-119.179 498.962,-88.0663 517,-67 529.872,-51.9661 548.134,-39.1079 562.913,-30.1287"/>
<polygon fill="midnightblue" stroke="midnightblue" points="564.722,-33.1253 571.586,-25.0544 561.187,-27.0835 564.722,-33.1253"/>
</g>
<!-- Node28 -->
<g id="node28" class="node"><title>Node28</title>
<g id="a_node28"><a xlink:href="../../db/ddf/ocra__events_8h.html" target="_top" xlink:title="ocra/optim/ocra_events.h">
<polygon fill="white" stroke="black" points="304.5,-73 304.5,-92 431.5,-92 431.5,-73 304.5,-73"/>
<text text-anchor="middle" x="368" y="-80" font-family="Helvetica,sans-Serif" font-size="10.00">ocra/optim/ocra_events.h</text>
</a>
</g>
</g>
<!-- Node19&#45;&gt;Node28 -->
<g id="edge30" class="edge"><title>Node19&#45;&gt;Node28</title>
<path fill="none" stroke="midnightblue" d="M463.096,-134.475C444.715,-124.622 414.244,-108.288 392.755,-96.7697"/>
<polygon fill="midnightblue" stroke="midnightblue" points="394.341,-93.6488 383.874,-92.0091 391.034,-99.8183 394.341,-93.6488"/>
</g>
<!-- Node29 -->
<g id="node29" class="node"><title>Node29</title>
<polygon fill="white" stroke="#bfbfbf" points="526,-67.5 526,-97.5 626,-97.5 626,-67.5 526,-67.5"/>
<text text-anchor="start" x="534" y="-85.5" font-family="Helvetica,sans-Serif" font-size="10.00">boost/type_traits/is</text>
<text text-anchor="middle" x="576" y="-74.5" font-family="Helvetica,sans-Serif" font-size="10.00">_convertible.hpp</text>
</g>
<!-- Node19&#45;&gt;Node29 -->
<g id="edge33" class="edge"><title>Node19&#45;&gt;Node29</title>
<path fill="none" stroke="midnightblue" d="M492.898,-134.475C506.281,-126.266 526.998,-113.558 544.398,-102.885"/>
<polygon fill="midnightblue" stroke="midnightblue" points="546.445,-105.735 553.139,-97.523 542.785,-99.7683 546.445,-105.735"/>
</g>
<!-- Node21 -->
<g id="node21" class="node"><title>Node21</title>
<polygon fill="white" stroke="#bfbfbf" points="236.5,-6 236.5,-25 295.5,-25 295.5,-6 236.5,-6"/>
<text text-anchor="middle" x="266" y="-13" font-family="Helvetica,sans-Serif" font-size="10.00">functional</text>
</g>
<!-- Node20&#45;&gt;Node21 -->
<g id="edge23" class="edge"><title>Node20&#45;&gt;Node21</title>
<path fill="none" stroke="midnightblue" d="M227.632,-67.396C235.197,-57.3614 245.391,-43.8382 253.37,-33.2535"/>
<polygon fill="midnightblue" stroke="midnightblue" points="256.221,-35.2867 259.446,-25.1945 250.631,-31.0729 256.221,-35.2867"/>
</g>
<!-- Node22 -->
<g id="node22" class="node"><title>Node22</title>
<polygon fill="white" stroke="#bfbfbf" points="684,-6 684,-25 740,-25 740,-6 684,-6"/>
<text text-anchor="middle" x="712" y="-13" font-family="Helvetica,sans-Serif" font-size="10.00">algorithm</text>
</g>
<!-- Node20&#45;&gt;Node22 -->
<g id="edge24" class="edge"><title>Node20&#45;&gt;Node22</title>
<path fill="none" stroke="midnightblue" d="M286.273,-68.3086C289.218,-67.847 292.136,-67.4082 295,-67 454.627,-44.2451 497.261,-59.2922 656,-31 661.891,-29.9501 668.072,-28.6036 674.091,-27.1553"/>
<polygon fill="midnightblue" stroke="midnightblue" points="675.147,-30.4986 683.985,-24.6563 673.432,-23.7117 675.147,-30.4986"/>
</g>
<!-- Node23 -->
<g id="node23" class="node"><title>Node23</title>
<polygon fill="white" stroke="#bfbfbf" points="314,-6 314,-25 392,-25 392,-6 314,-6"/>
<text text-anchor="middle" x="353" y="-13" font-family="Helvetica,sans-Serif" font-size="10.00">boost/any.hpp</text>
</g>
<!-- Node20&#45;&gt;Node23 -->
<g id="edge25" class="edge"><title>Node20&#45;&gt;Node23</title>
<path fill="none" stroke="midnightblue" d="M246.51,-67.396C270.162,-56.0919 303.076,-40.3607 326.03,-29.3903"/>
<polygon fill="midnightblue" stroke="midnightblue" points="327.688,-32.4771 335.201,-25.007 324.669,-26.1614 327.688,-32.4771"/>
</g>
<!-- Node20&#45;&gt;Node24 -->
<g id="edge26" class="edge"><title>Node20&#45;&gt;Node24</title>
<path fill="none" stroke="midnightblue" d="M180.763,-67.396C155.816,-57.6858 122.475,-44.7088 95.7039,-34.2889"/>
<polygon fill="midnightblue" stroke="midnightblue" points="96.7543,-30.9421 86.1658,-30.5765 94.2153,-37.4654 96.7543,-30.9421"/>
</g>
<!-- Node20&#45;&gt;Node25 -->
<g id="edge27" class="edge"><title>Node20&#45;&gt;Node25</title>
<path fill="none" stroke="midnightblue" d="M269.428,-67.476C307.758,-57.2233 359.82,-43.2971 399.843,-32.5913"/>
<polygon fill="midnightblue" stroke="midnightblue" points="400.988,-35.9083 409.744,-29.9431 399.179,-29.1461 400.988,-35.9083"/>
</g>
<!-- Node20&#45;&gt;Node26 -->
<g id="edge28" class="edge"><title>Node20&#45;&gt;Node26</title>
<path fill="none" stroke="midnightblue" d="M286.307,-68.5252C289.243,-68.0042 292.15,-67.4938 295,-67 394.353,-49.7843 419.855,-49.3736 519,-31 525.55,-29.7861 532.434,-28.4331 539.213,-27.0548"/>
<polygon fill="midnightblue" stroke="midnightblue" points="539.933,-30.48 549.019,-25.0309 538.518,-23.6245 539.933,-30.48"/>
</g>
<!-- Node27 -->
<g id="node27" class="node"><title>Node27</title>
<polygon fill="white" stroke="#bfbfbf" points="118,-0.5 118,-30.5 218,-30.5 218,-0.5 118,-0.5"/>
<text text-anchor="start" x="126" y="-18.5" font-family="Helvetica,sans-Serif" font-size="10.00">boost/ptr_container</text>
<text text-anchor="middle" x="168" y="-7.5" font-family="Helvetica,sans-Serif" font-size="10.00">/ptr_vector.hpp</text>
</g>
<!-- Node20&#45;&gt;Node27 -->
<g id="edge29" class="edge"><title>Node20&#45;&gt;Node27</title>
<path fill="none" stroke="midnightblue" d="M206.368,-67.396C200.075,-59.0486 191.963,-48.2871 184.819,-38.8113"/>
<polygon fill="midnightblue" stroke="midnightblue" points="187.426,-36.4549 178.612,-30.5765 181.836,-40.6686 187.426,-36.4549"/>
</g>
<!-- Node30&#45;&gt;Node9 -->
<g id="edge36" class="edge"><title>Node30&#45;&gt;Node9</title>
<path fill="none" stroke="midnightblue" d="M883.817,-138.111C964.241,-131.241 1110.25,-117.369 1234,-98 1241.26,-96.8632 1248.91,-95.4898 1256.39,-94.0471"/>
<polygon fill="midnightblue" stroke="midnightblue" points="1257.3,-97.4343 1266.43,-92.0525 1255.94,-90.5685 1257.3,-97.4343"/>
</g>
<!-- Node30&#45;&gt;Node12 -->
<g id="edge42" class="edge"><title>Node30&#45;&gt;Node12</title>
<path fill="none" stroke="midnightblue" d="M883.566,-137.352C968.477,-129.061 1118.41,-112.953 1171,-98 1172.94,-97.4495 1174.9,-96.8 1176.87,-96.0862"/>
<polygon fill="midnightblue" stroke="midnightblue" points="1178.51,-99.1944 1186.41,-92.1412 1175.84,-92.7247 1178.51,-99.1944"/>
</g>
<!-- Node30&#45;&gt;Node13 -->
<g id="edge45" class="edge"><title>Node30&#45;&gt;Node13</title>
<path fill="none" stroke="midnightblue" d="M883.711,-136.296C939.102,-129.386 1022.91,-116.93 1094,-98 1096.81,-97.2507 1099.71,-96.3778 1102.59,-95.4388"/>
<polygon fill="midnightblue" stroke="midnightblue" points="1103.91,-98.6853 1112.19,-92.0755 1101.59,-92.079 1103.91,-98.6853"/>
</g>
<!-- Node30&#45;&gt;Node22 -->
<g id="edge43" class="edge"><title>Node30&#45;&gt;Node22</title>
<path fill="none" stroke="midnightblue" d="M802.152,-134.468C785.886,-126.922 763.662,-114.54 749,-98 732.61,-79.5115 722.307,-52.55 716.851,-34.7726"/>
<polygon fill="midnightblue" stroke="midnightblue" points="720.185,-33.7004 714.07,-25.0483 713.455,-35.6253 720.185,-33.7004"/>
</g>
<!-- Node30&#45;&gt;Node25 -->
<g id="edge39" class="edge"><title>Node30&#45;&gt;Node25</title>
<path fill="none" stroke="midnightblue" d="M773.231,-134.459C741.907,-127.666 701.421,-116.211 669,-98 651.171,-87.9853 652.846,-76.9848 635,-67 624.662,-61.2161 566.472,-44.9018 519.988,-32.366"/>
<polygon fill="midnightblue" stroke="midnightblue" points="520.834,-28.9692 510.268,-29.7535 519.017,-35.7293 520.834,-28.9692"/>
</g>
<!-- Node30&#45;&gt;Node26 -->
<g id="edge38" class="edge"><title>Node30&#45;&gt;Node26</title>
<path fill="none" stroke="midnightblue" d="M803.028,-134.429C783.219,-125.766 752.128,-111.733 726,-98 684.139,-75.998 637.035,-47.2874 610.101,-30.474"/>
<polygon fill="midnightblue" stroke="midnightblue" points="611.788,-27.401 601.457,-25.0536 608.069,-33.3314 611.788,-27.401"/>
</g>
<!-- Node30&#45;&gt;Node29 -->
<g id="edge40" class="edge"><title>Node30&#45;&gt;Node29</title>
<path fill="none" stroke="midnightblue" d="M787.611,-134.475C748.133,-124.965 683.592,-109.418 636.151,-97.9899"/>
<polygon fill="midnightblue" stroke="midnightblue" points="636.844,-94.5568 626.303,-95.6175 635.205,-101.362 636.844,-94.5568"/>
</g>
<!-- Node30&#45;&gt;Node31 -->
<g id="edge37" class="edge"><title>Node30&#45;&gt;Node31</title>
<path fill="none" stroke="midnightblue" d="M852.228,-134.475C887.903,-124.07 948.36,-106.437 987.982,-94.8801"/>
<polygon fill="midnightblue" stroke="midnightblue" points="989.206,-98.1692 997.826,-92.0091 987.246,-91.4492 989.206,-98.1692"/>
</g>
<!-- Node32 -->
<g id="node32" class="node"><title>Node32</title>
<polygon fill="white" stroke="#bfbfbf" points="758.5,-67.5 758.5,-97.5 887.5,-97.5 887.5,-67.5 758.5,-67.5"/>
<text text-anchor="start" x="766.5" y="-85.5" font-family="Helvetica,sans-Serif" font-size="10.00">boost/type_traits/has</text>
<text text-anchor="middle" x="823" y="-74.5" font-family="Helvetica,sans-Serif" font-size="10.00">_nothrow_constructor.hpp</text>
</g>
<!-- Node30&#45;&gt;Node32 -->
<g id="edge41" class="edge"><title>Node30&#45;&gt;Node32</title>
<path fill="none" stroke="midnightblue" d="M823,-134.475C823,-127.471 823,-117.192 823,-107.696"/>
<polygon fill="midnightblue" stroke="midnightblue" points="826.5,-107.523 823,-97.523 819.5,-107.523 826.5,-107.523"/>
</g>
<!-- Node33 -->
<g id="node33" class="node"><title>Node33</title>
<polygon fill="white" stroke="#bfbfbf" points="905.5,-73 905.5,-92 950.5,-92 950.5,-73 905.5,-73"/>
<text text-anchor="middle" x="928" y="-80" font-family="Helvetica,sans-Serif" font-size="10.00">iosfwd</text>
</g>
<!-- Node30&#45;&gt;Node33 -->
<g id="edge44" class="edge"><title>Node30&#45;&gt;Node33</title>
<path fill="none" stroke="midnightblue" d="M838.044,-134.475C855.275,-124.711 883.74,-108.581 904.034,-97.0808"/>
<polygon fill="midnightblue" stroke="midnightblue" points="906.009,-99.9843 912.984,-92.0091 902.558,-93.8942 906.009,-99.9843"/>
</g>
<!-- Node35&#45;&gt;Node15 -->
<g id="edge52" class="edge"><title>Node35&#45;&gt;Node15</title>
<path fill="none" stroke="midnightblue" d="M990.047,-195.975C1008.59,-186.122 1039.34,-169.788 1061.02,-158.27"/>
<polygon fill="midnightblue" stroke="midnightblue" points="1062.79,-161.292 1069.98,-153.509 1059.51,-155.11 1062.79,-161.292"/>
</g>
<!-- Node37 -->
<g id="node37" class="node"><title>Node37</title>
<polygon fill="white" stroke="#bfbfbf" points="497,-196 497,-215 549,-215 549,-196 497,-196"/>
<text text-anchor="middle" x="523" y="-203" font-family="Helvetica,sans-Serif" font-size="10.00">memory</text>
</g>
<!-- Node36&#45;&gt;Node37 -->
<g id="edge54" class="edge"><title>Node36&#45;&gt;Node37</title>
<path fill="none" stroke="midnightblue" d="M748.192,-259.02C700.734,-251.565 626.146,-238.427 563,-221 560.196,-220.226 557.309,-219.347 554.43,-218.414"/>
<polygon fill="midnightblue" stroke="midnightblue" points="555.401,-215.047 544.806,-215.106 553.125,-221.667 555.401,-215.047"/>
</g>
<!-- Node38&#45;&gt;Node4 -->
<g id="edge56" class="edge"><title>Node38&#45;&gt;Node4</title>
<path fill="none" stroke="midnightblue" d="M1021,-313.324C1012.81,-305.42 1000.49,-293.548 990.528,-283.938"/>
<polygon fill="midnightblue" stroke="midnightblue" points="992.789,-281.256 983.161,-276.834 987.93,-286.295 992.789,-281.256"/>
</g>
<!-- Node38&#45;&gt;Node9 -->
<g id="edge57" class="edge"><title>Node38&#45;&gt;Node9</title>
<path fill="none" stroke="midnightblue" d="M1090.26,-313.496C1181.26,-299.282 1346.9,-267.589 1382,-221 1393.56,-205.661 1374.95,-140.364 1371,-134 1361.32,-118.417 1344.98,-105.855 1330.97,-97.1585"/>
<polygon fill="midnightblue" stroke="midnightblue" points="1332.6,-94.0545 1322.2,-92.0084 1329.05,-100.091 1332.6,-94.0545"/>
</g>
<!-- Node38&#45;&gt;Node36 -->
<g id="edge58" class="edge"><title>Node38&#45;&gt;Node36</title>
<path fill="none" stroke="midnightblue" d="M992.922,-313.444C952.272,-304.063 886.968,-288.993 842.816,-278.804"/>
<polygon fill="midnightblue" stroke="midnightblue" points="843.435,-275.355 832.905,-276.516 841.861,-282.175 843.435,-275.355"/>
</g>
<!-- Node40&#45;&gt;Node3 -->
<g id="edge61" class="edge"><title>Node40&#45;&gt;Node3</title>
<path fill="none" stroke="midnightblue" d="M783.029,-369.399C785.346,-361.288 788.284,-351.007 790.777,-342.281"/>
<polygon fill="midnightblue" stroke="midnightblue" points="794.144,-343.235 793.526,-332.658 787.414,-341.311 794.144,-343.235"/>
</g>
</g>
</svg>
