<?xml version="1.0" encoding="UTF-8" standalone="no"?>
<!DOCTYPE svg PUBLIC "-//W3C//DTD SVG 1.1//EN"
 "http://www.w3.org/Graphics/SVG/1.1/DTD/svg11.dtd">
<!-- Generated by graphviz version 2.38.0 (20140413.2041)
 -->
<!-- Title: GHCJTController.h Pages: 1 -->
<svg width="1757pt" height="274pt"
 viewBox="0.00 0.00 1756.50 274.00" xmlns="http://www.w3.org/2000/svg" xmlns:xlink="http://www.w3.org/1999/xlink">
<g id="graph0" class="graph" transform="scale(1 1) rotate(0) translate(4 270)">
<title>GHCJTController.h</title>
<polygon fill="white" stroke="none" points="-4,4 -4,-270 1752.5,-270 1752.5,4 -4,4"/>
<!-- Node1 -->
<g id="node1" class="node"><title>Node1</title>
<polygon fill="#bfbfbf" stroke="black" points="733.5,-246.5 733.5,-265.5 834.5,-265.5 834.5,-246.5 733.5,-246.5"/>
<text text-anchor="middle" x="784" y="-253.5" font-family="Helvetica,sans-Serif" font-size="10.00">GHCJTController.h</text>
</g>
<!-- Node2 -->
<g id="node2" class="node"><title>Node2</title>
<g id="a_node2"><a xlink:href="../../df/d0a/main_8cpp.html" target="_top" xlink:title="main.cpp">
<polygon fill="white" stroke="black" points="0,-190.5 0,-209.5 56,-209.5 56,-190.5 0,-190.5"/>
<text text-anchor="middle" x="28" y="-197.5" font-family="Helvetica,sans-Serif" font-size="10.00">main.cpp</text>
</a>
</g>
</g>
<!-- Node1&#45;&gt;Node2 -->
<g id="edge1" class="edge"><title>Node1&#45;&gt;Node2</title>
<path fill="none" stroke="midnightblue" d="M723.065,-254.197C599.387,-251.899 310.249,-243.126 70,-210 65.5676,-209.389 60.9058,-208.57 56.3655,-207.674"/>
<polygon fill="midnightblue" stroke="midnightblue" points="723.038,-257.697 733.099,-254.376 723.163,-250.698 723.038,-257.697"/>
</g>
<!-- Node3 -->
<g id="node3" class="node"><title>Node3</title>
<g id="a_node3"><a xlink:href="../../db/d31/gOcraTaskManagerBase_8h.html" target="_top" xlink:title="gOcraTaskManagerBase.h">
<polygon fill="white" stroke="black" points="783.5,-190.5 783.5,-209.5 916.5,-209.5 916.5,-190.5 783.5,-190.5"/>
<text text-anchor="middle" x="850" y="-197.5" font-family="Helvetica,sans-Serif" font-size="10.00">gOcraTaskManagerBase.h</text>
</a>
</g>
</g>
<!-- Node1&#45;&gt;Node3 -->
<g id="edge2" class="edge"><title>Node1&#45;&gt;Node3</title>
<path fill="none" stroke="midnightblue" d="M802.554,-239.82C814.378,-230.145 829.286,-217.948 839.203,-209.834"/>
<polygon fill="midnightblue" stroke="midnightblue" points="800.127,-237.283 794.604,-246.324 804.56,-242.7 800.127,-237.283"/>
</g>
<!-- Node5 -->
<g id="node5" class="node"><title>Node5</title>
<g id="a_node5"><a xlink:href="../../de/d9f/gOcraTaskManagerCollectionBase_8cpp.html" target="_top" xlink:title="gOcraTaskManagerCollection\lBase.cpp">
<polygon fill="white" stroke="black" points="416,-0.5 416,-30.5 562,-30.5 562,-0.5 416,-0.5"/>
<text text-anchor="start" x="424" y="-18.5" font-family="Helvetica,sans-Serif" font-size="10.00">gOcraTaskManagerCollection</text>
<text text-anchor="middle" x="489" y="-7.5" font-family="Helvetica,sans-Serif" font-size="10.00">Base.cpp</text>
</a>
</g>
</g>
<!-- Node1&#45;&gt;Node5 -->
<g id="edge39" class="edge"><title>Node1&#45;&gt;Node5</title>
<path fill="none" stroke="midnightblue" d="M723.271,-254.195C576.019,-250.969 205.621,-234.82 118,-154 89.1584,-127.397 77.1172,-96.4896 103,-67 123.285,-43.8883 309.824,-28.1142 415.972,-20.926"/>
<polygon fill="midnightblue" stroke="midnightblue" points="723.41,-257.699 733.48,-254.406 723.555,-250.7 723.41,-257.699"/>
</g>
<!-- Node6 -->
<g id="node6" class="node"><title>Node6</title>
<g id="a_node6"><a xlink:href="../../de/dda/gOcraCoMTaskManager_8h.html" target="_top" xlink:title="gOcraCoMTaskManager.h">
<polygon fill="white" stroke="black" points="127.5,-134.5 127.5,-153.5 258.5,-153.5 258.5,-134.5 127.5,-134.5"/>
<text text-anchor="middle" x="193" y="-141.5" font-family="Helvetica,sans-Serif" font-size="10.00">gOcraCoMTaskManager.h</text>
</a>
</g>
</g>
<!-- Node1&#45;&gt;Node6 -->
<g id="edge30" class="edge"><title>Node1&#45;&gt;Node6</title>
<path fill="none" stroke="midnightblue" d="M724.119,-244.719C672.411,-235.772 595.722,-222.34 529,-210 423.545,-190.496 299.76,-166.182 235.919,-153.537"/>
<polygon fill="midnightblue" stroke="midnightblue" points="723.667,-248.192 734.117,-246.446 724.859,-241.295 723.667,-248.192"/>
</g>
<!-- Node8 -->
<g id="node8" class="node"><title>Node8</title>
<g id="a_node8"><a xlink:href="../../d0/d8c/gOcraContactSetTaskManager_8h.html" target="_top" xlink:title="gOcraContactSetTaskManager.h">
<polygon fill="white" stroke="black" points="277,-134.5 277,-153.5 437,-153.5 437,-134.5 277,-134.5"/>
<text text-anchor="middle" x="357" y="-141.5" font-family="Helvetica,sans-Serif" font-size="10.00">gOcraContactSetTaskManager.h</text>
</a>
</g>
</g>
<!-- Node1&#45;&gt;Node8 -->
<g id="edge31" class="edge"><title>Node1&#45;&gt;Node8</title>
<path fill="none" stroke="midnightblue" d="M740.972,-243.916C655.645,-221.934 466.65,-173.247 390.13,-153.535"/>
<polygon fill="midnightblue" stroke="midnightblue" points="740.292,-247.355 750.849,-246.46 742.039,-240.576 740.292,-247.355"/>
</g>
<!-- Node10 -->
<g id="node10" class="node"><title>Node10</title>
<g id="a_node10"><a xlink:href="../../dc/db6/gOcraContactTaskManager_8h.html" target="_top" xlink:title="gOcraContactTaskManager.h">
<polygon fill="white" stroke="black" points="455.5,-134.5 455.5,-153.5 600.5,-153.5 600.5,-134.5 455.5,-134.5"/>
<text text-anchor="middle" x="528" y="-141.5" font-family="Helvetica,sans-Serif" font-size="10.00">gOcraContactTaskManager.h</text>
</a>
</g>
</g>
<!-- Node1&#45;&gt;Node10 -->
<g id="edge32" class="edge"><title>Node1&#45;&gt;Node10</title>
<path fill="none" stroke="midnightblue" d="M754.455,-242.305C701.755,-219.66 592.864,-172.871 547.995,-153.591"/>
<polygon fill="midnightblue" stroke="midnightblue" points="753.343,-245.636 763.912,-246.368 756.106,-239.205 753.343,-245.636"/>
</g>
<!-- Node12 -->
<g id="node12" class="node"><title>Node12</title>
<g id="a_node12"><a xlink:href="../../d0/dd7/gOcraFullPostureTaskManager_8h.html" target="_top" xlink:title="gOcraFullPostureTaskManager.h">
<polygon fill="white" stroke="black" points="619,-134.5 619,-153.5 779,-153.5 779,-134.5 619,-134.5"/>
<text text-anchor="middle" x="699" y="-141.5" font-family="Helvetica,sans-Serif" font-size="10.00">gOcraFullPostureTaskManager.h</text>
</a>
</g>
</g>
<!-- Node1&#45;&gt;Node12 -->
<g id="edge33" class="edge"><title>Node1&#45;&gt;Node12</title>
<path fill="none" stroke="midnightblue" d="M771.074,-238.272C752.7,-214.494 719.701,-171.789 705.639,-153.591"/>
<polygon fill="midnightblue" stroke="midnightblue" points="768.446,-240.596 777.33,-246.368 773.985,-236.316 768.446,-240.596"/>
</g>
<!-- Node14 -->
<g id="node14" class="node"><title>Node14</title>
<g id="a_node14"><a xlink:href="../../dd/dc3/gOcraPartialPostureTaskManager_8h.html" target="_top" xlink:title="gOcraPartialPostureTaskManager.h">
<polygon fill="white" stroke="black" points="997,-134.5 997,-153.5 1169,-153.5 1169,-134.5 997,-134.5"/>
<text text-anchor="middle" x="1083" y="-141.5" font-family="Helvetica,sans-Serif" font-size="10.00">gOcraPartialPostureTaskManager.h</text>
</a>
</g>
</g>
<!-- Node1&#45;&gt;Node14 -->
<g id="edge34" class="edge"><title>Node1&#45;&gt;Node14</title>
<path fill="none" stroke="midnightblue" d="M823.942,-243.621C852.413,-235.179 891.433,-222.934 925,-210 945.044,-202.277 949.226,-198.391 969,-190 1000.34,-176.702 1037.04,-162.448 1060.15,-153.628"/>
<polygon fill="midnightblue" stroke="midnightblue" points="822.945,-240.266 814.337,-246.443 824.918,-246.982 822.945,-240.266"/>
</g>
<!-- Node16 -->
<g id="node16" class="node"><title>Node16</title>
<g id="a_node16"><a xlink:href="../../d8/de2/gOcraSegCartesianTaskManager_8h.html" target="_top" xlink:title="gOcraSegCartesianTaskManager.h">
<polygon fill="white" stroke="black" points="1187,-134.5 1187,-153.5 1357,-153.5 1357,-134.5 1187,-134.5"/>
<text text-anchor="middle" x="1272" y="-141.5" font-family="Helvetica,sans-Serif" font-size="10.00">gOcraSegCartesianTaskManager.h</text>
</a>
</g>
</g>
<!-- Node1&#45;&gt;Node16 -->
<g id="edge35" class="edge"><title>Node1&#45;&gt;Node16</title>
<path fill="none" stroke="midnightblue" d="M835.495,-244.217C871.159,-236.19 919.496,-224.195 961,-210 982.094,-202.786 985.632,-196.357 1007,-190 1067.72,-171.936 1138.56,-160.376 1191.71,-153.502"/>
<polygon fill="midnightblue" stroke="midnightblue" points="834.326,-240.891 825.323,-246.476 835.844,-247.724 834.326,-240.891"/>
</g>
<!-- Node18 -->
<g id="node18" class="node"><title>Node18</title>
<g id="a_node18"><a xlink:href="../../d7/d74/gOcraSegOrientationTaskManager_8h.html" target="_top" xlink:title="gOcraSegOrientationTaskManager.h">
<polygon fill="white" stroke="black" points="1375.5,-134.5 1375.5,-153.5 1550.5,-153.5 1550.5,-134.5 1375.5,-134.5"/>
<text text-anchor="middle" x="1463" y="-141.5" font-family="Helvetica,sans-Serif" font-size="10.00">gOcraSegOrientationTaskManager.h</text>
</a>
</g>
</g>
<!-- Node1&#45;&gt;Node18 -->
<g id="edge36" class="edge"><title>Node1&#45;&gt;Node18</title>
<path fill="none" stroke="midnightblue" d="M844.959,-245.446C888.225,-237.878 947.373,-225.927 998,-210 1019.66,-203.187 1023.03,-195.722 1045,-190 1060.85,-185.872 1259.98,-165.409 1377.57,-153.548"/>
<polygon fill="midnightblue" stroke="midnightblue" points="844.133,-242.037 834.872,-247.182 845.32,-248.935 844.133,-242.037"/>
</g>
<!-- Node20 -->
<g id="node20" class="node"><title>Node20</title>
<g id="a_node20"><a xlink:href="../../d2/db2/gOcraSegPoseTaskManager_8h.html" target="_top" xlink:title="gOcraSegPoseTaskManager.h">
<polygon fill="white" stroke="black" points="1569,-134.5 1569,-153.5 1719,-153.5 1719,-134.5 1569,-134.5"/>
<text text-anchor="middle" x="1644" y="-141.5" font-family="Helvetica,sans-Serif" font-size="10.00">gOcraSegPoseTaskManager.h</text>
</a>
</g>
</g>
<!-- Node1&#45;&gt;Node20 -->
<g id="edge37" class="edge"><title>Node1&#45;&gt;Node20</title>
<path fill="none" stroke="midnightblue" d="M844.704,-248.782C896.446,-242.395 972.328,-230.436 1036,-210 1055.69,-203.682 1058.02,-195.306 1078,-190 1285.19,-134.979 1345.49,-173.288 1559,-154 1562.25,-153.706 1565.57,-153.397 1568.93,-153.076"/>
<polygon fill="midnightblue" stroke="midnightblue" points="844.199,-245.317 834.688,-249.986 845.034,-252.267 844.199,-245.317"/>
</g>
<!-- Node23 -->
<g id="node23" class="node"><title>Node23</title>
<g id="a_node23"><a xlink:href="../../d0/d71/GHCJTController_8cpp.html" target="_top" xlink:title="Implement the quasi&#45;static Generalized Hierarchical Control based on Jacobian Transpose (GHCJT)...">
<polygon fill="white" stroke="black" points="1087.5,-190.5 1087.5,-209.5 1198.5,-209.5 1198.5,-190.5 1087.5,-190.5"/>
<text text-anchor="middle" x="1143" y="-197.5" font-family="Helvetica,sans-Serif" font-size="10.00">GHCJTController.cpp</text>
</a>
</g>
</g>
<!-- Node1&#45;&gt;Node23 -->
<g id="edge38" class="edge"><title>Node1&#45;&gt;Node23</title>
<path fill="none" stroke="midnightblue" d="M844.789,-245.856C912.649,-235.649 1021.54,-219.27 1087.27,-209.382"/>
<polygon fill="midnightblue" stroke="midnightblue" points="844.043,-242.429 834.675,-247.378 845.084,-249.351 844.043,-242.429"/>
</g>
<!-- Node4 -->
<g id="node4" class="node"><title>Node4</title>
<g id="a_node4"><a xlink:href="../../d4/d79/gOcraTaskManagerCollectionBase_8h.html" target="_top" xlink:title="gOcraTaskManagerCollection\lBase.h">
<polygon fill="white" stroke="black" points="822,-67.5 822,-97.5 968,-97.5 968,-67.5 822,-67.5"/>
<text text-anchor="start" x="830" y="-85.5" font-family="Helvetica,sans-Serif" font-size="10.00">gOcraTaskManagerCollection</text>
<text text-anchor="middle" x="895" y="-74.5" font-family="Helvetica,sans-Serif" font-size="10.00">Base.h</text>
</a>
</g>
</g>
<!-- Node3&#45;&gt;Node4 -->
<g id="edge3" class="edge"><title>Node3&#45;&gt;Node4</title>
<path fill="none" stroke="midnightblue" d="M903.666,-187.084C921.149,-180.383 938.694,-170.005 949,-154 962.188,-133.519 938.527,-111.464 918.48,-97.5802"/>
<polygon fill="midnightblue" stroke="midnightblue" points="902.303,-183.853 894.006,-190.441 904.6,-190.465 902.303,-183.853"/>
</g>
<!-- Node3&#45;&gt;Node6 -->
<g id="edge5" class="edge"><title>Node3&#45;&gt;Node6</title>
<path fill="none" stroke="midnightblue" d="M773.005,-194.087C661.516,-186.737 448.687,-171.819 268,-154 264.998,-153.704 261.931,-153.389 258.833,-153.059"/>
<polygon fill="midnightblue" stroke="midnightblue" points="772.938,-197.59 783.146,-194.753 773.397,-190.605 772.938,-197.59"/>
</g>
<!-- Node3&#45;&gt;Node8 -->
<g id="edge8" class="edge"><title>Node3&#45;&gt;Node8</title>
<path fill="none" stroke="midnightblue" d="M773.161,-190.584C681.038,-180.493 527.513,-163.677 434.916,-153.534"/>
<polygon fill="midnightblue" stroke="midnightblue" points="772.934,-194.08 783.255,-191.689 773.696,-187.121 772.934,-194.08"/>
</g>
<!-- Node3&#45;&gt;Node10 -->
<g id="edge11" class="edge"><title>Node3&#45;&gt;Node10</title>
<path fill="none" stroke="midnightblue" d="M788.745,-188.727C727.897,-178.523 635.681,-163.058 578.783,-153.516"/>
<polygon fill="midnightblue" stroke="midnightblue" points="788.537,-192.241 798.978,-190.444 789.695,-185.338 788.537,-192.241"/>
</g>
<!-- Node3&#45;&gt;Node12 -->
<g id="edge14" class="edge"><title>Node3&#45;&gt;Node12</title>
<path fill="none" stroke="midnightblue" d="M816.554,-187.039C788.142,-176.879 748.063,-162.546 722.814,-153.516"/>
<polygon fill="midnightblue" stroke="midnightblue" points="815.479,-190.372 826.074,-190.444 817.836,-183.781 815.479,-190.372"/>
</g>
<!-- Node3&#45;&gt;Node14 -->
<g id="edge17" class="edge"><title>Node3&#45;&gt;Node14</title>
<path fill="none" stroke="midnightblue" d="M896.803,-188.153C940.827,-177.95 1005.85,-162.881 1046.25,-153.516"/>
<polygon fill="midnightblue" stroke="midnightblue" points="895.871,-184.776 886.92,-190.444 897.452,-191.595 895.871,-184.776"/>
</g>
<!-- Node3&#45;&gt;Node16 -->
<g id="edge20" class="edge"><title>Node3&#45;&gt;Node16</title>
<path fill="none" stroke="midnightblue" d="M926.844,-189.167C1006.52,-178.972 1129.8,-163.196 1205.45,-153.516"/>
<polygon fill="midnightblue" stroke="midnightblue" points="926.342,-185.702 916.867,-190.444 927.231,-192.646 926.342,-185.702"/>
</g>
<!-- Node3&#45;&gt;Node18 -->
<g id="edge23" class="edge"><title>Node3&#45;&gt;Node18</title>
<path fill="none" stroke="midnightblue" d="M926.902,-192.427C1027.74,-183.778 1210.14,-168.027 1366,-154 1369.12,-153.72 1372.29,-153.433 1375.49,-153.142"/>
<polygon fill="midnightblue" stroke="midnightblue" points="926.47,-188.951 916.806,-193.293 927.068,-195.926 926.47,-188.951"/>
</g>
<!-- Node3&#45;&gt;Node20 -->
<g id="edge26" class="edge"><title>Node3&#45;&gt;Node20</title>
<path fill="none" stroke="midnightblue" d="M926.798,-195.187C1056.98,-188.487 1329.26,-173.445 1559,-154 1562.25,-153.725 1565.57,-153.43 1568.93,-153.122"/>
<polygon fill="midnightblue" stroke="midnightblue" points="926.345,-191.706 916.538,-195.713 926.704,-198.697 926.345,-191.706"/>
</g>
<!-- Node22 -->
<g id="node22" class="node"><title>Node22</title>
<g id="a_node22"><a xlink:href="../../d6/d1f/gOcraTaskManagerBase_8cpp.html" target="_top" xlink:title="gOcraTaskManagerBase.cpp">
<polygon fill="white" stroke="black" points="797.5,-134.5 797.5,-153.5 940.5,-153.5 940.5,-134.5 797.5,-134.5"/>
<text text-anchor="middle" x="869" y="-141.5" font-family="Helvetica,sans-Serif" font-size="10.00">gOcraTaskManagerBase.cpp</text>
</a>
</g>
</g>
<!-- Node3&#45;&gt;Node22 -->
<g id="edge29" class="edge"><title>Node3&#45;&gt;Node22</title>
<path fill="none" stroke="midnightblue" d="M856.546,-180.396C859.724,-171.362 863.393,-160.936 865.921,-153.751"/>
<polygon fill="midnightblue" stroke="midnightblue" points="853.155,-179.488 853.137,-190.083 859.758,-181.812 853.155,-179.488"/>
</g>
<!-- Node4&#45;&gt;Node5 -->
<g id="edge4" class="edge"><title>Node4&#45;&gt;Node5</title>
<path fill="none" stroke="midnightblue" d="M811.687,-66.7994C720.009,-51.6181 625.496,-37.062 562.094,-27.4575"/>
<polygon fill="midnightblue" stroke="midnightblue" points="811.257,-70.2759 821.695,-68.4612 812.404,-63.3704 811.257,-70.2759"/>
</g>
<!-- Node6&#45;&gt;Node4 -->
<g id="edge6" class="edge"><title>Node6&#45;&gt;Node4</title>
<path fill="none" stroke="midnightblue" d="M269.014,-133.962C511.445,-111.95 575.305,-126.779 813,-98 815.87,-97.6525 818.793,-97.2707 821.742,-96.8622"/>
<polygon fill="midnightblue" stroke="midnightblue" points="268.466,-130.497 258.829,-134.899 269.107,-137.468 268.466,-130.497"/>
</g>
<!-- Node7 -->
<g id="node7" class="node"><title>Node7</title>
<g id="a_node7"><a xlink:href="../../d4/d34/gOcraCoMTaskManager_8cpp.html" target="_top" xlink:title="gOcraCoMTaskManager.cpp">
<polygon fill="white" stroke="black" points="112,-73 112,-92 254,-92 254,-73 112,-73"/>
<text text-anchor="middle" x="183" y="-80" font-family="Helvetica,sans-Serif" font-size="10.00">gOcraCoMTaskManager.cpp</text>
</a>
</g>
</g>
<!-- Node6&#45;&gt;Node7 -->
<g id="edge7" class="edge"><title>Node6&#45;&gt;Node7</title>
<path fill="none" stroke="midnightblue" d="M189.86,-124.317C188.041,-113.496 185.84,-100.398 184.43,-92.0091"/>
<polygon fill="midnightblue" stroke="midnightblue" points="186.458,-125.194 191.567,-134.475 193.361,-124.033 186.458,-125.194"/>
</g>
<!-- Node8&#45;&gt;Node4 -->
<g id="edge9" class="edge"><title>Node8&#45;&gt;Node4</title>
<path fill="none" stroke="midnightblue" d="M447.474,-133.863C610.842,-117.849 653.958,-119.829 813,-98 815.865,-97.6068 818.782,-97.1866 821.727,-96.7459"/>
<polygon fill="midnightblue" stroke="midnightblue" points="446.66,-130.427 437.052,-134.893 447.348,-137.393 446.66,-130.427"/>
</g>
<!-- Node9 -->
<g id="node9" class="node"><title>Node9</title>
<g id="a_node9"><a xlink:href="../../d9/d71/gOcraContactSetTaskManager_8cpp.html" target="_top" xlink:title="gOcraContactSetTaskManager.cpp">
<polygon fill="white" stroke="black" points="272,-73 272,-92 442,-92 442,-73 272,-73"/>
<text text-anchor="middle" x="357" y="-80" font-family="Helvetica,sans-Serif" font-size="10.00">gOcraContactSetTaskManager.cpp</text>
</a>
</g>
</g>
<!-- Node8&#45;&gt;Node9 -->
<g id="edge10" class="edge"><title>Node8&#45;&gt;Node9</title>
<path fill="none" stroke="midnightblue" d="M357,-124.317C357,-113.496 357,-100.398 357,-92.0091"/>
<polygon fill="midnightblue" stroke="midnightblue" points="353.5,-124.475 357,-134.475 360.5,-124.475 353.5,-124.475"/>
</g>
<!-- Node10&#45;&gt;Node4 -->
<g id="edge12" class="edge"><title>Node10&#45;&gt;Node4</title>
<path fill="none" stroke="midnightblue" d="M594.116,-132.914C651.915,-124.012 738.08,-110.538 813,-98 815.852,-97.5228 818.758,-97.0316 821.694,-96.5316"/>
<polygon fill="midnightblue" stroke="midnightblue" points="593.372,-129.487 584.02,-134.466 594.436,-136.406 593.372,-129.487"/>
</g>
<!-- Node11 -->
<g id="node11" class="node"><title>Node11</title>
<g id="a_node11"><a xlink:href="../../da/d9a/gOcraContactTaskManager_8cpp.html" target="_top" xlink:title="gOcraContactTaskManager.cpp">
<polygon fill="white" stroke="black" points="460.5,-73 460.5,-92 615.5,-92 615.5,-73 460.5,-73"/>
<text text-anchor="middle" x="538" y="-80" font-family="Helvetica,sans-Serif" font-size="10.00">gOcraContactTaskManager.cpp</text>
</a>
</g>
</g>
<!-- Node10&#45;&gt;Node11 -->
<g id="edge13" class="edge"><title>Node10&#45;&gt;Node11</title>
<path fill="none" stroke="midnightblue" d="M531.14,-124.317C532.959,-113.496 535.16,-100.398 536.57,-92.0091"/>
<polygon fill="midnightblue" stroke="midnightblue" points="527.639,-124.033 529.433,-134.475 534.542,-125.194 527.639,-124.033"/>
</g>
<!-- Node12&#45;&gt;Node4 -->
<g id="edge15" class="edge"><title>Node12&#45;&gt;Node4</title>
<path fill="none" stroke="midnightblue" d="M736.938,-131.483C768.894,-121.782 814.719,-107.871 848.807,-97.523"/>
<polygon fill="midnightblue" stroke="midnightblue" points="735.634,-128.221 727.082,-134.475 737.668,-134.919 735.634,-128.221"/>
</g>
<!-- Node13 -->
<g id="node13" class="node"><title>Node13</title>
<g id="a_node13"><a xlink:href="../../d3/df6/gOcraFullPostureTaskManager_8cpp.html" target="_top" xlink:title="gOcraFullPostureTaskManager.cpp">
<polygon fill="white" stroke="black" points="634,-73 634,-92 804,-92 804,-73 634,-73"/>
<text text-anchor="middle" x="719" y="-80" font-family="Helvetica,sans-Serif" font-size="10.00">gOcraFullPostureTaskManager.cpp</text>
</a>
</g>
</g>
<!-- Node12&#45;&gt;Node13 -->
<g id="edge16" class="edge"><title>Node12&#45;&gt;Node13</title>
<path fill="none" stroke="midnightblue" d="M705.166,-124.657C708.824,-113.772 713.29,-100.486 716.14,-92.0091"/>
<polygon fill="midnightblue" stroke="midnightblue" points="701.734,-123.881 701.866,-134.475 708.369,-126.111 701.734,-123.881"/>
</g>
<!-- Node14&#45;&gt;Node4 -->
<g id="edge18" class="edge"><title>Node14&#45;&gt;Node4</title>
<path fill="none" stroke="midnightblue" d="M1046.21,-131.357C1015.58,-121.662 971.863,-107.826 939.308,-97.523"/>
<polygon fill="midnightblue" stroke="midnightblue" points="1045.47,-134.795 1056.06,-134.475 1047.59,-128.121 1045.47,-134.795"/>
</g>
<!-- Node15 -->
<g id="node15" class="node"><title>Node15</title>
<g id="a_node15"><a xlink:href="../../dd/dcc/gOcraPartialPostureTaskManager_8cpp.html" target="_top" xlink:title="gOcraPartialPostureTaskManager.cpp">
<polygon fill="white" stroke="black" points="986,-73 986,-92 1168,-92 1168,-73 986,-73"/>
<text text-anchor="middle" x="1077" y="-80" font-family="Helvetica,sans-Serif" font-size="10.00">gOcraPartialPostureTaskManager.cpp</text>
</a>
</g>
</g>
<!-- Node14&#45;&gt;Node15 -->
<g id="edge19" class="edge"><title>Node14&#45;&gt;Node15</title>
<path fill="none" stroke="midnightblue" d="M1081.12,-124.317C1080.02,-113.496 1078.7,-100.398 1077.86,-92.0091"/>
<polygon fill="midnightblue" stroke="midnightblue" points="1077.65,-124.877 1082.14,-134.475 1084.62,-124.174 1077.65,-124.877"/>
</g>
<!-- Node16&#45;&gt;Node4 -->
<g id="edge21" class="edge"><title>Node16&#45;&gt;Node4</title>
<path fill="none" stroke="midnightblue" d="M1203.36,-132.999C1143.53,-124.169 1054.44,-110.751 977,-98 974.147,-97.5302 971.239,-97.0453 968.303,-96.5506"/>
<polygon fill="midnightblue" stroke="midnightblue" points="1203.04,-136.49 1213.44,-134.485 1204.06,-129.564 1203.04,-136.49"/>
</g>
<!-- Node17 -->
<g id="node17" class="node"><title>Node17</title>
<g id="a_node17"><a xlink:href="../../dd/d9e/gOcraSegCartesianTaskManager_8cpp.html" target="_top" xlink:title="gOcraSegCartesianTaskManager.cpp">
<polygon fill="white" stroke="black" points="1186,-73 1186,-92 1366,-92 1366,-73 1186,-73"/>
<text text-anchor="middle" x="1276" y="-80" font-family="Helvetica,sans-Serif" font-size="10.00">gOcraSegCartesianTaskManager.cpp</text>
</a>
</g>
</g>
<!-- Node16&#45;&gt;Node17 -->
<g id="edge22" class="edge"><title>Node16&#45;&gt;Node17</title>
<path fill="none" stroke="midnightblue" d="M1273.26,-124.317C1273.98,-113.496 1274.86,-100.398 1275.43,-92.0091"/>
<polygon fill="midnightblue" stroke="midnightblue" points="1269.75,-124.263 1272.57,-134.475 1276.74,-124.732 1269.75,-124.263"/>
</g>
<!-- Node18&#45;&gt;Node4 -->
<g id="edge24" class="edge"><title>Node18&#45;&gt;Node4</title>
<path fill="none" stroke="midnightblue" d="M1365.48,-133.959C1191.43,-118.088 1145.89,-120.707 977,-98 974.134,-97.6147 971.216,-97.2011 968.271,-96.766"/>
<polygon fill="midnightblue" stroke="midnightblue" points="1365.21,-137.449 1375.49,-134.88 1365.85,-130.479 1365.21,-137.449"/>
</g>
<!-- Node19 -->
<g id="node19" class="node"><title>Node19</title>
<g id="a_node19"><a xlink:href="../../d8/dfe/gOcraSegOrientationTaskManager_8cpp.html" target="_top" xlink:title="gOcraSegOrientationTaskManager.cpp">
<polygon fill="white" stroke="black" points="1384.5,-73 1384.5,-92 1569.5,-92 1569.5,-73 1384.5,-73"/>
<text text-anchor="middle" x="1477" y="-80" font-family="Helvetica,sans-Serif" font-size="10.00">gOcraSegOrientationTaskManager.cpp</text>
</a>
</g>
</g>
<!-- Node18&#45;&gt;Node19 -->
<g id="edge25" class="edge"><title>Node18&#45;&gt;Node19</title>
<path fill="none" stroke="midnightblue" d="M1467.32,-124.657C1469.88,-113.772 1473,-100.486 1475,-92.0091"/>
<polygon fill="midnightblue" stroke="midnightblue" points="1463.89,-123.939 1465.01,-134.475 1470.7,-125.543 1463.89,-123.939"/>
</g>
<!-- Node20&#45;&gt;Node4 -->
<g id="edge27" class="edge"><title>Node20&#45;&gt;Node4</title>
<path fill="none" stroke="midnightblue" d="M1558.81,-134.032C1299.03,-112.756 1231.08,-128.224 977,-98 974.129,-97.6585 971.206,-97.2818 968.257,-96.8776"/>
<polygon fill="midnightblue" stroke="midnightblue" points="1558.67,-137.533 1568.93,-134.872 1559.25,-130.557 1558.67,-137.533"/>
</g>
<!-- Node21 -->
<g id="node21" class="node"><title>Node21</title>
<g id="a_node21"><a xlink:href="../../de/d48/gOcraSegPoseTaskManager_8cpp.html" target="_top" xlink:title="gOcraSegPoseTaskManager.cpp">
<polygon fill="white" stroke="black" points="1587.5,-73 1587.5,-92 1748.5,-92 1748.5,-73 1587.5,-73"/>
<text text-anchor="middle" x="1668" y="-80" font-family="Helvetica,sans-Serif" font-size="10.00">gOcraSegPoseTaskManager.cpp</text>
</a>
</g>
</g>
<!-- Node20&#45;&gt;Node21 -->
<g id="edge28" class="edge"><title>Node20&#45;&gt;Node21</title>
<path fill="none" stroke="midnightblue" d="M1651.26,-124.997C1655.68,-114.05 1661.11,-100.575 1664.57,-92.0091"/>
<polygon fill="midnightblue" stroke="midnightblue" points="1647.93,-123.892 1647.44,-134.475 1654.43,-126.51 1647.93,-123.892"/>
</g>
</g>
</svg>
