<?xml version="1.0" encoding="UTF-8" standalone="no"?>
<!DOCTYPE svg PUBLIC "-//W3C//DTD SVG 1.1//EN"
 "http://www.w3.org/Graphics/SVG/1.1/DTD/svg11.dtd">
<!-- Generated by graphviz version 2.38.0 (20140413.2041)
 -->
<!-- Title: ocra::ControlFrame Pages: 1 -->
<svg width="208pt" height="84pt"
 viewBox="0.00 0.00 207.50 84.00" xmlns="http://www.w3.org/2000/svg" xmlns:xlink="http://www.w3.org/1999/xlink">
<g id="graph0" class="graph" transform="scale(1 1) rotate(0) translate(4 80)">
<title>ocra::ControlFrame</title>
<polygon fill="white" stroke="none" points="-4,4 -4,-80 203.5,-80 203.5,4 -4,4"/>
<!-- Node1 -->
<g id="node1" class="node"><title>Node1</title>
<polygon fill="#bfbfbf" stroke="black" points="58.5,-0.5 58.5,-19.5 159.5,-19.5 159.5,-0.5 58.5,-0.5"/>
<text text-anchor="middle" x="109" y="-7.5" font-family="Helvetica,sans-Serif" font-size="10.00">ocra::ControlFrame</text>
</g>
<!-- Node2 -->
<g id="node2" class="node"><title>Node2</title>
<g id="a_node2"><a xlink:href="../../db/de3/classocra_1_1NamedInstance.html" target="_top" xlink:title="ocra::NamedInstance">
<polygon fill="white" stroke="black" points="0,-56.5 0,-75.5 110,-75.5 110,-56.5 0,-56.5"/>
<text text-anchor="middle" x="55" y="-63.5" font-family="Helvetica,sans-Serif" font-size="10.00">ocra::NamedInstance</text>
</a>
</g>
</g>
<!-- Node2&#45;&gt;Node1 -->
<g id="edge1" class="edge"><title>Node2&#45;&gt;Node1</title>
<path fill="none" stroke="midnightblue" d="M70.9976,-49.0024C80.5671,-39.4329 92.3611,-27.6389 100.249,-19.7511"/>
<polygon fill="midnightblue" stroke="midnightblue" points="68.5132,-46.537 63.917,-56.083 73.463,-51.4868 68.5132,-46.537"/>
</g>
<!-- Node3 -->
<g id="node3" class="node"><title>Node3</title>
<polygon fill="white" stroke="#bfbfbf" points="128.5,-56.5 128.5,-75.5 199.5,-75.5 199.5,-56.5 128.5,-56.5"/>
<text text-anchor="middle" x="164" y="-63.5" font-family="Helvetica,sans-Serif" font-size="10.00">noncopyable</text>
</g>
<!-- Node3&#45;&gt;Node1 -->
<g id="edge2" class="edge"><title>Node3&#45;&gt;Node1</title>
<path fill="none" stroke="#8b1a1a" d="M147.706,-49.0024C137.959,-39.4329 125.947,-27.6389 117.913,-19.7511"/>
<polygon fill="#8b1a1a" stroke="#8b1a1a" points="145.33,-51.5746 154.918,-56.083 150.234,-46.5796 145.33,-51.5746"/>
</g>
</g>
</svg>
