<?xml version="1.0" encoding="UTF-8" standalone="no"?>
<!DOCTYPE svg PUBLIC "-//W3C//DTD SVG 1.1//EN"
 "http://www.w3.org/Graphics/SVG/1.1/DTD/svg11.dtd">
<!-- Generated by graphviz version 2.38.0 (20140413.2041)
 -->
<!-- Title: ocra::IFunctionProperties Pages: 1 -->
<svg width="808pt" height="656pt"
 viewBox="0.00 0.00 808.00 656.00" xmlns="http://www.w3.org/2000/svg" xmlns:xlink="http://www.w3.org/1999/xlink">
<g id="graph0" class="graph" transform="scale(1 1) rotate(0) translate(4 652)">
<title>ocra::IFunctionProperties</title>
<polygon fill="white" stroke="none" points="-4,4 -4,-652 804,-652 804,4 -4,4"/>
<!-- Node1 -->
<g id="node1" class="node"><title>Node1</title>
<polygon fill="#bfbfbf" stroke="black" points="0,-297 0,-316 126,-316 126,-297 0,-297"/>
<text text-anchor="middle" x="63" y="-304" font-family="Helvetica,sans-Serif" font-size="10.00">ocra::IFunctionProperties</text>
</g>
<!-- Node2 -->
<g id="node2" class="node"><title>Node2</title>
<g id="a_node2"><a xlink:href="../../d2/d99/classocra_1_1Function.html" target="_top" xlink:title="Function class. ">
<polygon fill="white" stroke="black" points="162,-297 162,-316 241,-316 241,-297 162,-297"/>
<text text-anchor="middle" x="201.5" y="-304" font-family="Helvetica,sans-Serif" font-size="10.00">ocra::Function</text>
</a>
</g>
</g>
<!-- Node1&#45;&gt;Node2 -->
<g id="edge1" class="edge"><title>Node1&#45;&gt;Node2</title>
<path fill="none" stroke="midnightblue" d="M136.488,-306.5C145.196,-306.5 153.811,-306.5 161.764,-306.5"/>
<polygon fill="midnightblue" stroke="midnightblue" points="136.258,-303 126.258,-306.5 136.258,-310 136.258,-303"/>
</g>
<!-- Node3 -->
<g id="node3" class="node"><title>Node3</title>
<g id="a_node3"><a xlink:href="../../d1/d44/classFunction1.html" target="_top" xlink:title="Function1">
<polygon fill="white" stroke="black" points="311.5,-487 311.5,-506 370.5,-506 370.5,-487 311.5,-487"/>
<text text-anchor="middle" x="341" y="-494" font-family="Helvetica,sans-Serif" font-size="10.00">Function1</text>
</a>
</g>
</g>
<!-- Node2&#45;&gt;Node3 -->
<g id="edge2" class="edge"><title>Node2&#45;&gt;Node3</title>
<path fill="none" stroke="midnightblue" d="M205.59,-326.367C212.168,-361.925 230.909,-436.549 277,-477.5 286.48,-485.922 299.583,-490.613 311.385,-493.225"/>
<polygon fill="midnightblue" stroke="midnightblue" points="209.001,-325.552 203.862,-316.287 202.102,-326.734 209.001,-325.552"/>
</g>
<!-- Node4 -->
<g id="node4" class="node"><title>Node4</title>
<g id="a_node4"><a xlink:href="../../d6/d7e/classFunction2.html" target="_top" xlink:title="Function2">
<polygon fill="white" stroke="black" points="311.5,-449 311.5,-468 370.5,-468 370.5,-449 311.5,-449"/>
<text text-anchor="middle" x="341" y="-456" font-family="Helvetica,sans-Serif" font-size="10.00">Function2</text>
</a>
</g>
</g>
<!-- Node2&#45;&gt;Node4 -->
<g id="edge3" class="edge"><title>Node2&#45;&gt;Node4</title>
<path fill="none" stroke="midnightblue" d="M208.196,-325.961C217.685,-354.975 239.488,-409.378 277,-439.5 286.799,-447.368 299.808,-451.982 311.46,-454.687"/>
<polygon fill="midnightblue" stroke="midnightblue" points="211.468,-324.696 205.155,-316.188 204.784,-326.776 211.468,-324.696"/>
</g>
<!-- Node5 -->
<g id="node5" class="node"><title>Node5</title>
<g id="a_node5"><a xlink:href="../../d9/d4a/classFunction3.html" target="_top" xlink:title="Function3">
<polygon fill="white" stroke="black" points="311.5,-411 311.5,-430 370.5,-430 370.5,-411 311.5,-411"/>
<text text-anchor="middle" x="341" y="-418" font-family="Helvetica,sans-Serif" font-size="10.00">Function3</text>
</a>
</g>
</g>
<!-- Node2&#45;&gt;Node5 -->
<g id="edge4" class="edge"><title>Node2&#45;&gt;Node5</title>
<path fill="none" stroke="midnightblue" d="M212.308,-324.996C224.625,-346.475 247.734,-381.507 277,-401.5 287.188,-408.46 299.992,-412.929 311.392,-415.77"/>
<polygon fill="midnightblue" stroke="midnightblue" points="215.334,-323.235 207.426,-316.184 209.211,-326.627 215.334,-323.235"/>
</g>
<!-- Node6 -->
<g id="node6" class="node"><title>Node6</title>
<g id="a_node6"><a xlink:href="../../db/d8c/classMyFunction.html" target="_top" xlink:title="MyFunction">
<polygon fill="white" stroke="black" points="307,-373 307,-392 375,-392 375,-373 307,-373"/>
<text text-anchor="middle" x="341" y="-380" font-family="Helvetica,sans-Serif" font-size="10.00">MyFunction</text>
</a>
</g>
</g>
<!-- Node2&#45;&gt;Node6 -->
<g id="edge5" class="edge"><title>Node2&#45;&gt;Node6</title>
<path fill="none" stroke="midnightblue" d="M220.382,-323.17C234.738,-335.779 255.913,-352.709 277,-363.5 286.254,-368.236 296.89,-372.006 306.756,-374.898"/>
<polygon fill="midnightblue" stroke="midnightblue" points="222.546,-320.409 212.77,-316.325 217.865,-325.614 222.546,-320.409"/>
</g>
<!-- Node7 -->
<g id="node7" class="node"><title>Node7</title>
<g id="a_node7"><a xlink:href="../../db/da4/classocra_1_1DotProductFunction.html" target="_top" xlink:title="DotProductFunction class. ">
<polygon fill="white" stroke="black" points="277,-335 277,-354 405,-354 405,-335 277,-335"/>
<text text-anchor="middle" x="341" y="-342" font-family="Helvetica,sans-Serif" font-size="10.00">ocra::DotProductFunction</text>
</a>
</g>
</g>
<!-- Node2&#45;&gt;Node7 -->
<g id="edge6" class="edge"><title>Node2&#45;&gt;Node7</title>
<path fill="none" stroke="midnightblue" d="M247.073,-318.818C265.965,-324.039 287.647,-330.032 305.314,-334.914"/>
<polygon fill="midnightblue" stroke="midnightblue" points="247.768,-315.379 237.197,-316.089 245.903,-322.126 247.768,-315.379"/>
</g>
<!-- Node8 -->
<g id="node8" class="node"><title>Node8</title>
<g id="a_node8"><a xlink:href="../../de/d3a/classocra_1_1LinearFunction.html" target="_top" xlink:title="LinearFunction class. ">
<polygon fill="white" stroke="black" points="288.5,-297 288.5,-316 393.5,-316 393.5,-297 288.5,-297"/>
<text text-anchor="middle" x="341" y="-304" font-family="Helvetica,sans-Serif" font-size="10.00">ocra::LinearFunction</text>
</a>
</g>
</g>
<!-- Node2&#45;&gt;Node8 -->
<g id="edge7" class="edge"><title>Node2&#45;&gt;Node8</title>
<path fill="none" stroke="midnightblue" d="M251.408,-306.5C263.365,-306.5 276.197,-306.5 288.28,-306.5"/>
<polygon fill="midnightblue" stroke="midnightblue" points="251.167,-303 241.167,-306.5 251.167,-310 251.167,-303"/>
</g>
<!-- Node27 -->
<g id="node27" class="node"><title>Node27</title>
<g id="a_node27"><a xlink:href="../../dd/d93/classocra_1_1Pb114G10.html" target="_top" xlink:title="ocra::Pb114G10">
<polygon fill="white" stroke="black" points="297.5,-259 297.5,-278 384.5,-278 384.5,-259 297.5,-259"/>
<text text-anchor="middle" x="341" y="-266" font-family="Helvetica,sans-Serif" font-size="10.00">ocra::Pb114G10</text>
</a>
</g>
</g>
<!-- Node2&#45;&gt;Node27 -->
<g id="edge26" class="edge"><title>Node2&#45;&gt;Node27</title>
<path fill="none" stroke="midnightblue" d="M247.073,-294.182C265.965,-288.961 287.647,-282.968 305.314,-278.086"/>
<polygon fill="midnightblue" stroke="midnightblue" points="245.903,-290.874 237.197,-296.911 247.768,-297.621 245.903,-290.874"/>
</g>
<!-- Node28 -->
<g id="node28" class="node"><title>Node28</title>
<g id="a_node28"><a xlink:href="../../da/d6c/classocra_1_1Pb114G11.html" target="_top" xlink:title="ocra::Pb114G11">
<polygon fill="white" stroke="black" points="297.5,-221 297.5,-240 384.5,-240 384.5,-221 297.5,-221"/>
<text text-anchor="middle" x="341" y="-228" font-family="Helvetica,sans-Serif" font-size="10.00">ocra::Pb114G11</text>
</a>
</g>
</g>
<!-- Node2&#45;&gt;Node28 -->
<g id="edge27" class="edge"><title>Node2&#45;&gt;Node28</title>
<path fill="none" stroke="midnightblue" d="M220.382,-289.83C234.738,-277.221 255.913,-260.291 277,-249.5 284.322,-245.753 292.509,-242.611 300.495,-240.029"/>
<polygon fill="midnightblue" stroke="midnightblue" points="217.865,-287.386 212.77,-296.675 222.546,-292.591 217.865,-287.386"/>
</g>
<!-- Node29 -->
<g id="node29" class="node"><title>Node29</title>
<g id="a_node29"><a xlink:href="../../d9/df1/classocra_1_1Pb114G5.html" target="_top" xlink:title="ocra::Pb114G5">
<polygon fill="white" stroke="black" points="300,-183 300,-202 382,-202 382,-183 300,-183"/>
<text text-anchor="middle" x="341" y="-190" font-family="Helvetica,sans-Serif" font-size="10.00">ocra::Pb114G5</text>
</a>
</g>
</g>
<!-- Node2&#45;&gt;Node29 -->
<g id="edge28" class="edge"><title>Node2&#45;&gt;Node29</title>
<path fill="none" stroke="midnightblue" d="M212.308,-288.004C224.625,-266.525 247.734,-231.493 277,-211.5 283.792,-206.86 291.747,-203.327 299.673,-200.646"/>
<polygon fill="midnightblue" stroke="midnightblue" points="209.211,-286.373 207.426,-296.816 215.334,-289.765 209.211,-286.373"/>
</g>
<!-- Node30 -->
<g id="node30" class="node"><title>Node30</title>
<g id="a_node30"><a xlink:href="../../d9/d7e/classocra_1_1QuadraticFunction.html" target="_top" xlink:title="QuadraticFunction class. ">
<polygon fill="white" stroke="black" points="280.5,-88 280.5,-107 401.5,-107 401.5,-88 280.5,-88"/>
<text text-anchor="middle" x="341" y="-95" font-family="Helvetica,sans-Serif" font-size="10.00">ocra::QuadraticFunction</text>
</a>
</g>
</g>
<!-- Node2&#45;&gt;Node30 -->
<g id="edge29" class="edge"><title>Node2&#45;&gt;Node30</title>
<path fill="none" stroke="midnightblue" d="M211.734,-287.555C224.9,-261.165 250.43,-212.224 277,-173.5 294.26,-148.346 317.976,-121.429 330.825,-107.361"/>
<polygon fill="midnightblue" stroke="midnightblue" points="208.461,-286.279 207.171,-296.795 214.737,-289.378 208.461,-286.279"/>
</g>
<!-- Node34 -->
<g id="node34" class="node"><title>Node34</title>
<g id="a_node34"><a xlink:href="../../df/d5a/classocra_1_1SubtractionFunction.html" target="_top" xlink:title="SubtractionFunction class. ">
<polygon fill="white" stroke="black" points="277,-50 277,-69 405,-69 405,-50 277,-50"/>
<text text-anchor="middle" x="341" y="-57" font-family="Helvetica,sans-Serif" font-size="10.00">ocra::SubtractionFunction</text>
</a>
</g>
</g>
<!-- Node2&#45;&gt;Node34 -->
<g id="edge33" class="edge"><title>Node2&#45;&gt;Node34</title>
<path fill="none" stroke="midnightblue" d="M203.114,-286.371C205.567,-242.277 217.676,-136.481 277,-78.5 281.003,-74.5873 285.782,-71.4764 290.893,-69.0036"/>
<polygon fill="midnightblue" stroke="midnightblue" points="199.605,-286.491 202.661,-296.635 206.598,-286.799 199.605,-286.491"/>
</g>
<!-- Node9 -->
<g id="node9" class="node"><title>Node9</title>
<g id="a_node9"><a xlink:href="../../d4/d45/classocra_1_1ContactAvoidanceFunction.html" target="_top" xlink:title="Create a linear function that represents the joint limit function. ">
<polygon fill="white" stroke="black" points="442.5,-574 442.5,-593 601.5,-593 601.5,-574 442.5,-574"/>
<text text-anchor="middle" x="522" y="-581" font-family="Helvetica,sans-Serif" font-size="10.00">ocra::ContactAvoidanceFunction</text>
</a>
</g>
</g>
<!-- Node8&#45;&gt;Node9 -->
<g id="edge8" class="edge"><title>Node8&#45;&gt;Node9</title>
<path fill="none" stroke="midnightblue" d="M401.267,-321.768C402.591,-322.924 403.841,-324.166 405,-325.5 473.745,-404.581 372.65,-479.077 441,-558.5 446.885,-565.338 454.612,-570.331 462.943,-573.97"/>
<polygon fill="midnightblue" stroke="midnightblue" points="403.188,-318.841 392.971,-316.038 399.21,-324.601 403.188,-318.841"/>
</g>
<!-- Node12 -->
<g id="node12" class="node"><title>Node12</title>
<g id="a_node12"><a xlink:href="../../d3/d89/classocra_1_1DiagonalLinearFunction.html" target="_top" xlink:title="DiagonalLinearFunction class. ">
<polygon fill="white" stroke="black" points="450.5,-530 450.5,-549 593.5,-549 593.5,-530 450.5,-530"/>
<text text-anchor="middle" x="522" y="-537" font-family="Helvetica,sans-Serif" font-size="10.00">ocra::DiagonalLinearFunction</text>
</a>
</g>
</g>
<!-- Node8&#45;&gt;Node12 -->
<g id="edge11" class="edge"><title>Node8&#45;&gt;Node12</title>
<path fill="none" stroke="midnightblue" d="M401.214,-321.815C402.554,-322.958 403.821,-324.184 405,-325.5 463.525,-390.808 380.927,-455.614 441,-519.5 445.021,-523.776 449.806,-527.196 455.007,-529.923"/>
<polygon fill="midnightblue" stroke="midnightblue" points="403.093,-318.86 392.852,-316.143 399.163,-324.653 403.093,-318.86"/>
</g>
<!-- Node15 -->
<g id="node15" class="node"><title>Node15</title>
<g id="a_node15"><a xlink:href="../../d4/d5c/classocra_1_1DoubleDiagonalLinearFunction.html" target="_top" xlink:title="DoubleDiagonalLinearFunction class. ">
<polygon fill="white" stroke="black" points="453.5,-480.5 453.5,-510.5 590.5,-510.5 590.5,-480.5 453.5,-480.5"/>
<text text-anchor="start" x="461.5" y="-498.5" font-family="Helvetica,sans-Serif" font-size="10.00">ocra::DoubleDiagonalLinear</text>
<text text-anchor="middle" x="522" y="-487.5" font-family="Helvetica,sans-Serif" font-size="10.00">Function</text>
</a>
</g>
</g>
<!-- Node8&#45;&gt;Node15 -->
<g id="edge14" class="edge"><title>Node8&#45;&gt;Node15</title>
<path fill="none" stroke="midnightblue" d="M400.535,-321.448C402.116,-322.694 403.612,-324.041 405,-325.5 450.775,-373.601 395.466,-422.171 441,-470.5 444.592,-474.313 448.756,-477.548 453.26,-480.292"/>
<polygon fill="midnightblue" stroke="midnightblue" points="402.327,-318.44 392.008,-316.036 398.575,-324.35 402.327,-318.44"/>
</g>
<!-- Node16 -->
<g id="node16" class="node"><title>Node16</title>
<g id="a_node16"><a xlink:href="../../d9/da6/classocra_1_1DynamicEquationFunction.html" target="_top" xlink:title="DynamicEquationFunction class. ">
<polygon fill="white" stroke="black" points="444,-442 444,-461 600,-461 600,-442 444,-442"/>
<text text-anchor="middle" x="522" y="-449" font-family="Helvetica,sans-Serif" font-size="10.00">ocra::DynamicEquationFunction</text>
</a>
</g>
</g>
<!-- Node8&#45;&gt;Node16 -->
<g id="edge15" class="edge"><title>Node8&#45;&gt;Node16</title>
<path fill="none" stroke="midnightblue" d="M399.743,-321.142C401.602,-322.471 403.364,-323.92 405,-325.5 440.783,-360.069 404.399,-397.798 441,-431.5 445.634,-435.767 451.038,-439.158 456.811,-441.848"/>
<polygon fill="midnightblue" stroke="midnightblue" points="401.459,-318.09 391.063,-316.049 397.917,-324.128 401.459,-318.09"/>
</g>
<!-- Node17 -->
<g id="node17" class="node"><title>Node17</title>
<g id="a_node17"><a xlink:href="../../de/ddd/classocra_1_1FullDynamicEquationFunction.html" target="_top" xlink:title="Create a linear function that represents the dynamic equation of motion. ">
<polygon fill="white" stroke="black" points="455,-392.5 455,-422.5 589,-422.5 589,-392.5 455,-392.5"/>
<text text-anchor="start" x="463" y="-410.5" font-family="Helvetica,sans-Serif" font-size="10.00">ocra::FullDynamicEquation</text>
<text text-anchor="middle" x="522" y="-399.5" font-family="Helvetica,sans-Serif" font-size="10.00">Function</text>
</a>
</g>
</g>
<!-- Node8&#45;&gt;Node17 -->
<g id="edge16" class="edge"><title>Node8&#45;&gt;Node17</title>
<path fill="none" stroke="midnightblue" d="M397.113,-320.407C399.882,-321.933 402.533,-323.624 405,-325.5 428.849,-343.638 417.241,-364.243 441,-382.5 446.077,-386.401 451.772,-389.7 457.722,-392.488"/>
<polygon fill="midnightblue" stroke="midnightblue" points="398.488,-317.186 387.951,-316.079 395.498,-323.515 398.488,-317.186"/>
</g>
<!-- Node18 -->
<g id="node18" class="node"><title>Node18</title>
<g id="a_node18"><a xlink:href="../../df/de0/classocra_1_1JointLimitFunction.html" target="_top" xlink:title="Create a linear function that represents the joint limit function. ">
<polygon fill="white" stroke="black" points="461.5,-354 461.5,-373 582.5,-373 582.5,-354 461.5,-354"/>
<text text-anchor="middle" x="522" y="-361" font-family="Helvetica,sans-Serif" font-size="10.00">ocra::JointLimitFunction</text>
</a>
</g>
</g>
<!-- Node8&#45;&gt;Node18 -->
<g id="edge17" class="edge"><title>Node8&#45;&gt;Node18</title>
<path fill="none" stroke="midnightblue" d="M387.825,-319.184C393.666,-321.132 399.515,-323.25 405,-325.5 421.738,-332.366 424.064,-338.137 441,-344.5 450.889,-348.215 461.745,-351.37 472.183,-353.979"/>
<polygon fill="midnightblue" stroke="midnightblue" points="388.659,-315.776 378.068,-316.074 386.533,-322.446 388.659,-315.776"/>
</g>
<!-- Node21 -->
<g id="node21" class="node"><title>Node21</title>
<g id="a_node21"><a xlink:href="../../d0/dd6/classocra_1_1LinearizedCoulombFunction.html" target="_top" xlink:title="LinearizedCoulombFunction class. ">
<polygon fill="white" stroke="black" points="441,-316 441,-335 603,-335 603,-316 441,-316"/>
<text text-anchor="middle" x="522" y="-323" font-family="Helvetica,sans-Serif" font-size="10.00">ocra::LinearizedCoulombFunction</text>
</a>
</g>
</g>
<!-- Node8&#45;&gt;Node21 -->
<g id="edge20" class="edge"><title>Node8&#45;&gt;Node21</title>
<path fill="none" stroke="midnightblue" d="M403.971,-313.078C415.809,-314.334 428.359,-315.667 440.675,-316.974"/>
<polygon fill="midnightblue" stroke="midnightblue" points="404.088,-309.571 393.774,-311.996 403.349,-316.532 404.088,-309.571"/>
</g>
<!-- Node22 -->
<g id="node22" class="node"><title>Node22</title>
<g id="a_node22"><a xlink:href="../../dd/d16/classocra_1_1LinearTask.html" target="_top" xlink:title="LinearTask class. ">
<polygon fill="white" stroke="black" points="477.5,-278 477.5,-297 566.5,-297 566.5,-278 477.5,-278"/>
<text text-anchor="middle" x="522" y="-285" font-family="Helvetica,sans-Serif" font-size="10.00">ocra::LinearTask</text>
</a>
</g>
</g>
<!-- Node8&#45;&gt;Node22 -->
<g id="edge21" class="edge"><title>Node8&#45;&gt;Node22</title>
<path fill="none" stroke="midnightblue" d="M403.915,-299.928C428.055,-297.366 455.163,-294.488 477.212,-292.148"/>
<polygon fill="midnightblue" stroke="midnightblue" points="403.349,-296.468 393.774,-301.004 404.088,-303.429 403.349,-296.468"/>
</g>
<!-- Node23 -->
<g id="node23" class="node"><title>Node23</title>
<g id="a_node23"><a xlink:href="../../dd/dda/classocra_1_1SecondOrderLinearTask.html" target="_top" xlink:title="SecondOrderLinearTask class. ">
<polygon fill="white" stroke="black" points="449,-240 449,-259 595,-259 595,-240 449,-240"/>
<text text-anchor="middle" x="522" y="-247" font-family="Helvetica,sans-Serif" font-size="10.00">ocra::SecondOrderLinearTask</text>
</a>
</g>
</g>
<!-- Node8&#45;&gt;Node23 -->
<g id="edge22" class="edge"><title>Node8&#45;&gt;Node23</title>
<path fill="none" stroke="midnightblue" d="M387.825,-293.816C393.666,-291.868 399.515,-289.75 405,-287.5 421.738,-280.634 424.064,-274.863 441,-268.5 450.889,-264.785 461.745,-261.63 472.183,-259.021"/>
<polygon fill="midnightblue" stroke="midnightblue" points="386.533,-290.554 378.068,-296.926 388.659,-297.224 386.533,-290.554"/>
</g>
<!-- Node24 -->
<g id="node24" class="node"><title>Node24</title>
<g id="a_node24"><a xlink:href="../../d0/d8f/classocra_1_1SumOfLinearFunctions.html" target="_top" xlink:title="ocra::SumOfLinearFunctions">
<polygon fill="white" stroke="black" points="451.5,-202 451.5,-221 592.5,-221 592.5,-202 451.5,-202"/>
<text text-anchor="middle" x="522" y="-209" font-family="Helvetica,sans-Serif" font-size="10.00">ocra::SumOfLinearFunctions</text>
</a>
</g>
</g>
<!-- Node8&#45;&gt;Node24 -->
<g id="edge23" class="edge"><title>Node8&#45;&gt;Node24</title>
<path fill="none" stroke="midnightblue" d="M397.113,-292.593C399.882,-291.067 402.533,-289.376 405,-287.5 428.849,-269.362 416.62,-247.918 441,-230.5 446.459,-226.6 452.611,-223.491 459.016,-221.015"/>
<polygon fill="midnightblue" stroke="midnightblue" points="395.498,-289.485 387.951,-296.921 398.488,-295.814 395.498,-289.485"/>
</g>
<!-- Node25 -->
<g id="node25" class="node"><title>Node25</title>
<g id="a_node25"><a xlink:href="../../dd/d3d/classocra_1_1TorqueLimitFunction.html" target="_top" xlink:title="Create a linear function that represents the torque limit function. ">
<polygon fill="white" stroke="black" points="457,-164 457,-183 587,-183 587,-164 457,-164"/>
<text text-anchor="middle" x="522" y="-171" font-family="Helvetica,sans-Serif" font-size="10.00">ocra::TorqueLimitFunction</text>
</a>
</g>
</g>
<!-- Node8&#45;&gt;Node25 -->
<g id="edge24" class="edge"><title>Node8&#45;&gt;Node25</title>
<path fill="none" stroke="midnightblue" d="M399.559,-291.865C401.479,-290.534 403.303,-289.083 405,-287.5 438.015,-256.698 407.08,-222.302 441,-192.5 445.719,-188.354 451.178,-185.072 456.985,-182.48"/>
<polygon fill="midnightblue" stroke="midnightblue" points="397.572,-288.969 390.616,-296.961 401.037,-295.051 397.572,-288.969"/>
</g>
<!-- Node26 -->
<g id="node26" class="node"><title>Node26</title>
<g id="a_node26"><a xlink:href="../../d7/d46/classocra_1_1VariableChiFunction.html" target="_top" xlink:title="ocra::VariableChiFunction">
<polygon fill="white" stroke="black" points="457.5,-126 457.5,-145 586.5,-145 586.5,-126 457.5,-126"/>
<text text-anchor="middle" x="522" y="-133" font-family="Helvetica,sans-Serif" font-size="10.00">ocra::VariableChiFunction</text>
</a>
</g>
</g>
<!-- Node8&#45;&gt;Node26 -->
<g id="edge25" class="edge"><title>Node8&#45;&gt;Node26</title>
<path fill="none" stroke="midnightblue" d="M400.495,-291.514C402.088,-290.279 403.597,-288.944 405,-287.5 447.679,-243.584 397.029,-197.122 441,-154.5 445.715,-149.93 451.319,-146.388 457.339,-143.654"/>
<polygon fill="midnightblue" stroke="midnightblue" points="398.54,-288.608 391.927,-296.885 402.258,-294.539 398.54,-288.608"/>
</g>
<!-- Node10 -->
<g id="node10" class="node"><title>Node10</title>
<g id="a_node10"><a xlink:href="../../da/d90/classocra_1_1FullContactAvoidanceFunction.html" target="_top" xlink:title="Create a linear function that represents the contact avoidance function for the full formalism...">
<polygon fill="white" stroke="black" points="651,-617.5 651,-647.5 788,-647.5 788,-617.5 651,-617.5"/>
<text text-anchor="start" x="659" y="-635.5" font-family="Helvetica,sans-Serif" font-size="10.00">ocra::FullContactAvoidance</text>
<text text-anchor="middle" x="719.5" y="-624.5" font-family="Helvetica,sans-Serif" font-size="10.00">Function</text>
</a>
</g>
</g>
<!-- Node9&#45;&gt;Node10 -->
<g id="edge9" class="edge"><title>Node9&#45;&gt;Node10</title>
<path fill="none" stroke="midnightblue" d="M570.934,-595.514C597.35,-602.135 630.39,-610.416 658.506,-617.463"/>
<polygon fill="midnightblue" stroke="midnightblue" points="571.709,-592.1 561.158,-593.064 570.007,-598.89 571.709,-592.1"/>
</g>
<!-- Node11 -->
<g id="node11" class="node"><title>Node11</title>
<g id="a_node11"><a xlink:href="../../db/d40/classocra_1_1ReducedContactAvoidanceFunction.html" target="_top" xlink:title="Create a linear function that represents the contact avoidance function for the reduced formalism...">
<polygon fill="white" stroke="black" points="639,-568.5 639,-598.5 800,-598.5 800,-568.5 639,-568.5"/>
<text text-anchor="start" x="647" y="-586.5" font-family="Helvetica,sans-Serif" font-size="10.00">ocra::ReducedContactAvoidance</text>
<text text-anchor="middle" x="719.5" y="-575.5" font-family="Helvetica,sans-Serif" font-size="10.00">Function</text>
</a>
</g>
</g>
<!-- Node9&#45;&gt;Node11 -->
<g id="edge10" class="edge"><title>Node9&#45;&gt;Node11</title>
<path fill="none" stroke="midnightblue" d="M611.758,-583.5C620.743,-583.5 629.831,-583.5 638.714,-583.5"/>
<polygon fill="midnightblue" stroke="midnightblue" points="611.672,-580 601.672,-583.5 611.672,-587 611.672,-580"/>
</g>
<!-- Node13 -->
<g id="node13" class="node"><title>Node13</title>
<g id="a_node13"><a xlink:href="../../dd/d77/classocra_1_1BoundFunction.html" target="_top" xlink:title="BoundFunction class. ">
<polygon fill="white" stroke="black" points="666,-530 666,-549 773,-549 773,-530 666,-530"/>
<text text-anchor="middle" x="719.5" y="-537" font-family="Helvetica,sans-Serif" font-size="10.00">ocra::BoundFunction</text>
</a>
</g>
</g>
<!-- Node12&#45;&gt;Node13 -->
<g id="edge12" class="edge"><title>Node12&#45;&gt;Node13</title>
<path fill="none" stroke="midnightblue" d="M603.76,-539.5C624.709,-539.5 646.733,-539.5 665.82,-539.5"/>
<polygon fill="midnightblue" stroke="midnightblue" points="603.58,-536 593.58,-539.5 603.58,-543 603.58,-536"/>
</g>
<!-- Node14 -->
<g id="node14" class="node"><title>Node14</title>
<g id="a_node14"><a xlink:href="../../d4/d58/classocra_1_1IdentityFunction.html" target="_top" xlink:title="IdentityFunction class. ">
<polygon fill="white" stroke="black" points="664,-492 664,-511 775,-511 775,-492 664,-492"/>
<text text-anchor="middle" x="719.5" y="-499" font-family="Helvetica,sans-Serif" font-size="10.00">ocra::IdentityFunction</text>
</a>
</g>
</g>
<!-- Node12&#45;&gt;Node14 -->
<g id="edge13" class="edge"><title>Node12&#45;&gt;Node14</title>
<path fill="none" stroke="midnightblue" d="M582.11,-528.011C610.004,-522.589 642.902,-516.194 669.399,-511.044"/>
<polygon fill="midnightblue" stroke="midnightblue" points="581.229,-524.616 572.081,-529.96 582.565,-531.488 581.229,-524.616"/>
</g>
<!-- Node19 -->
<g id="node19" class="node"><title>Node19</title>
<g id="a_node19"><a xlink:href="../../df/d42/classocra_1_1FullJointLimitFunction.html" target="_top" xlink:title="Create a linear function that represents the joint limit function for the full formalism. ">
<polygon fill="white" stroke="black" points="651,-373 651,-392 788,-392 788,-373 651,-373"/>
<text text-anchor="middle" x="719.5" y="-380" font-family="Helvetica,sans-Serif" font-size="10.00">ocra::FullJointLimitFunction</text>
</a>
</g>
</g>
<!-- Node18&#45;&gt;Node19 -->
<g id="edge18" class="edge"><title>Node18&#45;&gt;Node19</title>
<path fill="none" stroke="midnightblue" d="M592.757,-370.279C611.685,-372.119 632.142,-374.107 650.946,-375.935"/>
<polygon fill="midnightblue" stroke="midnightblue" points="593.01,-366.788 582.719,-369.304 592.333,-373.755 593.01,-366.788"/>
</g>
<!-- Node20 -->
<g id="node20" class="node"><title>Node20</title>
<g id="a_node20"><a xlink:href="../../dc/daa/classocra_1_1ReducedJointLimitFunction.html" target="_top" xlink:title="Create a linear function that represents the joint limit function for the reduced formalism...">
<polygon fill="white" stroke="black" points="639.5,-335 639.5,-354 799.5,-354 799.5,-335 639.5,-335"/>
<text text-anchor="middle" x="719.5" y="-342" font-family="Helvetica,sans-Serif" font-size="10.00">ocra::ReducedJointLimitFunction</text>
</a>
</g>
</g>
<!-- Node18&#45;&gt;Node20 -->
<g id="edge19" class="edge"><title>Node18&#45;&gt;Node20</title>
<path fill="none" stroke="midnightblue" d="M592.954,-356.701C607.987,-355.24 623.976,-353.686 639.331,-352.194"/>
<polygon fill="midnightblue" stroke="midnightblue" points="592.333,-353.245 582.719,-357.696 593.01,-360.212 592.333,-353.245"/>
</g>
<!-- Node31 -->
<g id="node31" class="node"><title>Node31</title>
<g id="a_node31"><a xlink:href="../../d3/d16/classocra_1_1FcQuadraticFunction.html" target="_top" xlink:title="ocra::FcQuadraticFunction">
<polygon fill="white" stroke="black" points="456,-88 456,-107 588,-107 588,-88 456,-88"/>
<text text-anchor="middle" x="522" y="-95" font-family="Helvetica,sans-Serif" font-size="10.00">ocra::FcQuadraticFunction</text>
</a>
</g>
</g>
<!-- Node30&#45;&gt;Node31 -->
<g id="edge30" class="edge"><title>Node30&#45;&gt;Node31</title>
<path fill="none" stroke="midnightblue" d="M411.966,-97.5C426.401,-97.5 441.548,-97.5 455.805,-97.5"/>
<polygon fill="midnightblue" stroke="midnightblue" points="411.604,-94.0001 401.604,-97.5 411.604,-101 411.604,-94.0001"/>
</g>
<!-- Node32 -->
<g id="node32" class="node"><title>Node32</title>
<g id="a_node32"><a xlink:href="../../df/dfc/classocra_1_1SquaredLinearFunction.html" target="_top" xlink:title="SquaredLinearFunction class. ">
<polygon fill="white" stroke="black" points="451.5,-50 451.5,-69 592.5,-69 592.5,-50 451.5,-50"/>
<text text-anchor="middle" x="522" y="-57" font-family="Helvetica,sans-Serif" font-size="10.00">ocra::SquaredLinearFunction</text>
</a>
</g>
</g>
<!-- Node30&#45;&gt;Node32 -->
<g id="edge31" class="edge"><title>Node30&#45;&gt;Node32</title>
<path fill="none" stroke="midnightblue" d="M397.024,-85.819C422.408,-80.4301 452.161,-74.1139 476.156,-69.0201"/>
<polygon fill="midnightblue" stroke="midnightblue" points="396.224,-82.4106 387.169,-87.911 397.678,-89.258 396.224,-82.4106"/>
</g>
<!-- Node33 -->
<g id="node33" class="node"><title>Node33</title>
<g id="a_node33"><a xlink:href="../../d2/d31/classocra_1_1WeightedSquareDistanceFunction.html" target="_top" xlink:title="WeightedSquareDistanceFunction class. ">
<polygon fill="white" stroke="black" points="446,-0.5 446,-30.5 598,-30.5 598,-0.5 446,-0.5"/>
<text text-anchor="start" x="454" y="-18.5" font-family="Helvetica,sans-Serif" font-size="10.00">ocra::WeightedSquareDistance</text>
<text text-anchor="middle" x="522" y="-7.5" font-family="Helvetica,sans-Serif" font-size="10.00">Function</text>
</a>
</g>
</g>
<!-- Node30&#45;&gt;Node33 -->
<g id="edge32" class="edge"><title>Node30&#45;&gt;Node33</title>
<path fill="none" stroke="midnightblue" d="M394.181,-84.1612C397.947,-82.4792 401.597,-80.599 405,-78.5 424.801,-66.2871 421.26,-52.8114 441,-40.5 447.173,-36.6498 453.987,-33.3499 460.955,-30.5322"/>
<polygon fill="midnightblue" stroke="midnightblue" points="392.656,-81.0007 384.655,-87.9457 395.241,-87.5061 392.656,-81.0007"/>
</g>
</g>
</svg>
