<?xml version="1.0" encoding="UTF-8" standalone="no"?>
<!DOCTYPE svg PUBLIC "-//W3C//DTD SVG 1.1//EN"
 "http://www.w3.org/Graphics/SVG/1.1/DTD/svg11.dtd">
<!-- Generated by graphviz version 2.38.0 (20140413.2041)
 -->
<!-- Title: MergedVariable.h Pages: 1 -->
<svg width="1394pt" height="274pt"
 viewBox="0.00 0.00 1394.00 274.00" xmlns="http://www.w3.org/2000/svg" xmlns:xlink="http://www.w3.org/1999/xlink">
<g id="graph0" class="graph" transform="scale(1 1) rotate(0) translate(4 270)">
<title>MergedVariable.h</title>
<polygon fill="white" stroke="none" points="-4,4 -4,-270 1390,-270 1390,4 -4,4"/>
<!-- Node1 -->
<g id="node1" class="node"><title>Node1</title>
<polygon fill="#bfbfbf" stroke="black" points="1270,-246.5 1270,-265.5 1362,-265.5 1362,-246.5 1270,-246.5"/>
<text text-anchor="middle" x="1316" y="-253.5" font-family="Helvetica,sans-Serif" font-size="10.00">MergedVariable.h</text>
</g>
<!-- Node2 -->
<g id="node2" class="node"><title>Node2</title>
<g id="a_node2"><a xlink:href="../../d7/d90/Variable_8h.html" target="_top" xlink:title="Declaration file of the Variable class. ">
<polygon fill="white" stroke="black" points="1152.5,-190.5 1152.5,-209.5 1261.5,-209.5 1261.5,-190.5 1152.5,-190.5"/>
<text text-anchor="middle" x="1207" y="-197.5" font-family="Helvetica,sans-Serif" font-size="10.00">ocra/optim/Variable.h</text>
</a>
</g>
</g>
<!-- Node1&#45;&gt;Node2 -->
<g id="edge1" class="edge"><title>Node1&#45;&gt;Node2</title>
<path fill="none" stroke="midnightblue" d="M1298.49,-246.324C1280.93,-237.625 1253.67,-224.12 1233.47,-214.113"/>
<polygon fill="midnightblue" stroke="midnightblue" points="1234.98,-210.958 1224.47,-209.655 1231.88,-217.23 1234.98,-210.958"/>
</g>
<!-- Node23 -->
<g id="node23" class="node"><title>Node23</title>
<polygon fill="white" stroke="#bfbfbf" points="1322.5,-134.5 1322.5,-153.5 1363.5,-153.5 1363.5,-134.5 1322.5,-134.5"/>
<text text-anchor="middle" x="1343" y="-141.5" font-family="Helvetica,sans-Serif" font-size="10.00">string</text>
</g>
<!-- Node1&#45;&gt;Node23 -->
<g id="edge32" class="edge"><title>Node1&#45;&gt;Node23</title>
<path fill="none" stroke="midnightblue" d="M1318.12,-246.368C1322.48,-228.617 1332.53,-187.666 1338.44,-163.597"/>
<polygon fill="midnightblue" stroke="midnightblue" points="1341.91,-164.137 1340.89,-153.591 1335.11,-162.469 1341.91,-164.137"/>
</g>
<!-- Node24 -->
<g id="node24" class="node"><title>Node24</title>
<polygon fill="white" stroke="#bfbfbf" points="1344.5,-190.5 1344.5,-209.5 1379.5,-209.5 1379.5,-190.5 1344.5,-190.5"/>
<text text-anchor="middle" x="1362" y="-197.5" font-family="Helvetica,sans-Serif" font-size="10.00">map</text>
</g>
<!-- Node1&#45;&gt;Node24 -->
<g id="edge33" class="edge"><title>Node1&#45;&gt;Node24</title>
<path fill="none" stroke="midnightblue" d="M1323.6,-246.083C1330.23,-238.298 1340.02,-226.801 1348.06,-217.367"/>
<polygon fill="midnightblue" stroke="midnightblue" points="1350.73,-219.633 1354.55,-209.751 1345.4,-215.094 1350.73,-219.633"/>
</g>
<!-- Node3 -->
<g id="node3" class="node"><title>Node3</title>
<g id="a_node3"><a xlink:href="../../d8/ddc/ObserverSubject_8h.html" target="_top" xlink:title="Declaration file of the Observer, Subject and ObserverSubject classes. ">
<polygon fill="white" stroke="black" points="297,-134.5 297,-153.5 443,-153.5 443,-134.5 297,-134.5"/>
<text text-anchor="middle" x="370" y="-141.5" font-family="Helvetica,sans-Serif" font-size="10.00">ocra/optim/ObserverSubject.h</text>
</a>
</g>
</g>
<!-- Node2&#45;&gt;Node3 -->
<g id="edge2" class="edge"><title>Node2&#45;&gt;Node3</title>
<path fill="none" stroke="midnightblue" d="M1152.4,-195.478C1009.59,-186.264 624.216,-161.401 453.429,-150.383"/>
<polygon fill="midnightblue" stroke="midnightblue" points="453.44,-146.876 443.235,-149.725 452.989,-153.861 453.44,-146.876"/>
</g>
<!-- Node14 -->
<g id="node14" class="node"><title>Node14</title>
<g id="a_node14"><a xlink:href="../../d1/de6/Composite_8h.html" target="_top" xlink:title="Utility classes and functions to implement the Composite design pattern. ">
<polygon fill="white" stroke="black" points="923.5,-134.5 923.5,-153.5 1044.5,-153.5 1044.5,-134.5 923.5,-134.5"/>
<text text-anchor="middle" x="984" y="-141.5" font-family="Helvetica,sans-Serif" font-size="10.00">ocra/optim/Composite.h</text>
</a>
</g>
</g>
<!-- Node2&#45;&gt;Node14 -->
<g id="edge16" class="edge"><title>Node2&#45;&gt;Node14</title>
<path fill="none" stroke="midnightblue" d="M1171.66,-190.444C1133.09,-181.102 1071.22,-166.119 1029.15,-155.933"/>
<polygon fill="midnightblue" stroke="midnightblue" points="1029.71,-152.468 1019.17,-153.516 1028.07,-159.272 1029.71,-152.468"/>
</g>
<!-- Node17 -->
<g id="node17" class="node"><title>Node17</title>
<polygon fill="white" stroke="#bfbfbf" points="1206.5,-73 1206.5,-92 1323.5,-92 1323.5,-73 1206.5,-73"/>
<text text-anchor="middle" x="1265" y="-80" font-family="Helvetica,sans-Serif" font-size="10.00">boost/noncopyable.hpp</text>
</g>
<!-- Node2&#45;&gt;Node17 -->
<g id="edge29" class="edge"><title>Node2&#45;&gt;Node17</title>
<path fill="none" stroke="midnightblue" d="M1201.5,-190.089C1194.23,-177.08 1183.41,-152.434 1193,-134 1201.69,-117.286 1218.73,-104.952 1234.05,-96.6585"/>
<polygon fill="midnightblue" stroke="midnightblue" points="1235.92,-99.6363 1243.28,-92.014 1232.78,-93.3837 1235.92,-99.6363"/>
</g>
<!-- Node19 -->
<g id="node19" class="node"><title>Node19</title>
<polygon fill="white" stroke="#bfbfbf" points="1342,-73 1342,-92 1386,-92 1386,-73 1342,-73"/>
<text text-anchor="middle" x="1364" y="-80" font-family="Helvetica,sans-Serif" font-size="10.00">vector</text>
</g>
<!-- Node2&#45;&gt;Node19 -->
<g id="edge31" class="edge"><title>Node2&#45;&gt;Node19</title>
<path fill="none" stroke="midnightblue" d="M1207.11,-190.175C1207.77,-176.367 1211.04,-149.622 1226,-134 1260.42,-98.0702 1285.73,-116.289 1332,-98 1333.42,-97.4395 1334.86,-96.8502 1336.32,-96.243"/>
<polygon fill="midnightblue" stroke="midnightblue" points="1338.08,-99.2928 1345.86,-92.0936 1335.29,-92.874 1338.08,-99.2928"/>
</g>
<!-- Node22 -->
<g id="node22" class="node"><title>Node22</title>
<polygon fill="white" stroke="#bfbfbf" points="1235.5,-134.5 1235.5,-153.5 1304.5,-153.5 1304.5,-134.5 1235.5,-134.5"/>
<text text-anchor="middle" x="1270" y="-141.5" font-family="Helvetica,sans-Serif" font-size="10.00">Eigen/Eigen</text>
</g>
<!-- Node2&#45;&gt;Node22 -->
<g id="edge28" class="edge"><title>Node2&#45;&gt;Node22</title>
<path fill="none" stroke="midnightblue" d="M1217.12,-190.324C1226.53,-182.263 1240.74,-170.077 1252.07,-160.369"/>
<polygon fill="midnightblue" stroke="midnightblue" points="1254.38,-162.999 1259.69,-153.834 1249.82,-157.684 1254.38,-162.999"/>
</g>
<!-- Node2&#45;&gt;Node23 -->
<g id="edge30" class="edge"><title>Node2&#45;&gt;Node23</title>
<path fill="none" stroke="midnightblue" d="M1228.55,-190.444C1251.3,-181.412 1287.32,-167.107 1312.88,-156.961"/>
<polygon fill="midnightblue" stroke="midnightblue" points="1314.44,-160.106 1322.44,-153.163 1311.86,-153.6 1314.44,-160.106"/>
</g>
<!-- Node4 -->
<g id="node4" class="node"><title>Node4</title>
<g id="a_node4"><a xlink:href="../../df/d67/ObserverSubjectBase_8h.html" target="_top" xlink:title="Declaration file of the Observer and Subject base classes. ">
<polygon fill="white" stroke="black" points="166,-67.5 166,-97.5 304,-97.5 304,-67.5 166,-67.5"/>
<text text-anchor="start" x="174" y="-85.5" font-family="Helvetica,sans-Serif" font-size="10.00">ocra/optim/ObserverSubject</text>
<text text-anchor="middle" x="235" y="-74.5" font-family="Helvetica,sans-Serif" font-size="10.00">Base.h</text>
</a>
</g>
</g>
<!-- Node3&#45;&gt;Node4 -->
<g id="edge3" class="edge"><title>Node3&#45;&gt;Node4</title>
<path fill="none" stroke="midnightblue" d="M350.658,-134.475C331.263,-125.927 300.801,-112.501 276.007,-101.573"/>
<polygon fill="midnightblue" stroke="midnightblue" points="277.379,-98.3534 266.817,-97.523 274.556,-104.759 277.379,-98.3534"/>
</g>
<!-- Node8 -->
<g id="node8" class="node"><title>Node8</title>
<polygon fill="white" stroke="#bfbfbf" points="0,-0.5 0,-30.5 100,-30.5 100,-0.5 0,-0.5"/>
<text text-anchor="start" x="8" y="-18.5" font-family="Helvetica,sans-Serif" font-size="10.00">boost/type_traits/is</text>
<text text-anchor="middle" x="50" y="-7.5" font-family="Helvetica,sans-Serif" font-size="10.00">_class.hpp</text>
</g>
<!-- Node3&#45;&gt;Node8 -->
<g id="edge15" class="edge"><title>Node3&#45;&gt;Node8</title>
<path fill="none" stroke="midnightblue" d="M296.982,-135.684C254.649,-129.486 201.155,-118.227 157,-98 124.202,-82.975 92.0212,-56.4029 71.6578,-37.6927"/>
<polygon fill="midnightblue" stroke="midnightblue" points="73.8892,-34.9872 64.1993,-30.7028 69.1025,-40.0948 73.8892,-34.9872"/>
</g>
<!-- Node9 -->
<g id="node9" class="node"><title>Node9</title>
<polygon fill="white" stroke="#bfbfbf" points="484,-0.5 484,-30.5 584,-30.5 584,-0.5 484,-0.5"/>
<text text-anchor="start" x="492" y="-18.5" font-family="Helvetica,sans-Serif" font-size="10.00">boost/type_traits/is</text>
<text text-anchor="middle" x="534" y="-7.5" font-family="Helvetica,sans-Serif" font-size="10.00">_base_of.hpp</text>
</g>
<!-- Node3&#45;&gt;Node9 -->
<g id="edge13" class="edge"><title>Node3&#45;&gt;Node9</title>
<path fill="none" stroke="midnightblue" d="M364.342,-134.021C355.471,-118.677 340.792,-87.1226 356,-67 359.734,-62.0598 423.566,-44.745 473.733,-31.7577"/>
<polygon fill="midnightblue" stroke="midnightblue" points="474.754,-35.1092 483.563,-29.2229 473.006,-28.3309 474.754,-35.1092"/>
</g>
<!-- Node10 -->
<g id="node10" class="node"><title>Node10</title>
<polygon fill="white" stroke="#bfbfbf" points="602.5,-6 602.5,-25 721.5,-25 721.5,-6 602.5,-6"/>
<text text-anchor="middle" x="662" y="-13" font-family="Helvetica,sans-Serif" font-size="10.00">boost/static_assert.hpp</text>
</g>
<!-- Node3&#45;&gt;Node10 -->
<g id="edge12" class="edge"><title>Node3&#45;&gt;Node10</title>
<path fill="none" stroke="midnightblue" d="M369.387,-134.463C368.761,-118.652 369.898,-84.8043 389,-67 456.349,-4.22665 502.605,-48.4693 593,-31 599.31,-29.7806 605.933,-28.4516 612.477,-27.1091"/>
<polygon fill="midnightblue" stroke="midnightblue" points="613.556,-30.4599 622.637,-25.0022 612.134,-23.6057 613.556,-30.4599"/>
</g>
<!-- Node12 -->
<g id="node12" class="node"><title>Node12</title>
<g id="a_node12"><a xlink:href="../../db/ddf/ocra__events_8h.html" target="_top" xlink:title="ocra/optim/ocra_events.h">
<polygon fill="white" stroke="black" points="398.5,-73 398.5,-92 525.5,-92 525.5,-73 398.5,-73"/>
<text text-anchor="middle" x="462" y="-80" font-family="Helvetica,sans-Serif" font-size="10.00">ocra/optim/ocra_events.h</text>
</a>
</g>
</g>
<!-- Node3&#45;&gt;Node12 -->
<g id="edge11" class="edge"><title>Node3&#45;&gt;Node12</title>
<path fill="none" stroke="midnightblue" d="M383.181,-134.475C398.074,-124.843 422.544,-109.017 440.273,-97.5517"/>
<polygon fill="midnightblue" stroke="midnightblue" points="442.347,-100.379 448.843,-92.0091 438.545,-94.5008 442.347,-100.379"/>
</g>
<!-- Node13 -->
<g id="node13" class="node"><title>Node13</title>
<polygon fill="white" stroke="#bfbfbf" points="544,-67.5 544,-97.5 644,-97.5 644,-67.5 544,-67.5"/>
<text text-anchor="start" x="552" y="-85.5" font-family="Helvetica,sans-Serif" font-size="10.00">boost/type_traits/is</text>
<text text-anchor="middle" x="594" y="-74.5" font-family="Helvetica,sans-Serif" font-size="10.00">_convertible.hpp</text>
</g>
<!-- Node3&#45;&gt;Node13 -->
<g id="edge14" class="edge"><title>Node3&#45;&gt;Node13</title>
<path fill="none" stroke="midnightblue" d="M402.094,-134.475C436.364,-125.372 491.461,-110.737 533.846,-99.4783"/>
<polygon fill="midnightblue" stroke="midnightblue" points="535.012,-102.79 543.778,-96.8402 533.215,-96.0248 535.012,-102.79"/>
</g>
<!-- Node5 -->
<g id="node5" class="node"><title>Node5</title>
<polygon fill="white" stroke="#bfbfbf" points="118.5,-6 118.5,-25 177.5,-25 177.5,-6 118.5,-6"/>
<text text-anchor="middle" x="148" y="-13" font-family="Helvetica,sans-Serif" font-size="10.00">functional</text>
</g>
<!-- Node4&#45;&gt;Node5 -->
<g id="edge4" class="edge"><title>Node4&#45;&gt;Node5</title>
<path fill="none" stroke="midnightblue" d="M216.122,-67.396C201.886,-56.7593 182.402,-42.2028 167.918,-31.3813"/>
<polygon fill="midnightblue" stroke="midnightblue" points="169.743,-28.376 159.637,-25.1945 165.554,-33.9837 169.743,-28.376"/>
</g>
<!-- Node6 -->
<g id="node6" class="node"><title>Node6</title>
<polygon fill="white" stroke="#bfbfbf" points="410,-6 410,-25 466,-25 466,-6 410,-6"/>
<text text-anchor="middle" x="438" y="-13" font-family="Helvetica,sans-Serif" font-size="10.00">algorithm</text>
</g>
<!-- Node4&#45;&gt;Node6 -->
<g id="edge5" class="edge"><title>Node4&#45;&gt;Node6</title>
<path fill="none" stroke="midnightblue" d="M284.72,-67.4775C317.87,-57.8582 362.301,-44.4461 401,-31 403.118,-30.2641 405.295,-29.4813 407.481,-28.6754"/>
<polygon fill="midnightblue" stroke="midnightblue" points="408.87,-31.892 416.974,-25.0683 406.383,-25.3484 408.87,-31.892"/>
</g>
<!-- Node7 -->
<g id="node7" class="node"><title>Node7</title>
<polygon fill="white" stroke="#bfbfbf" points="196,-6 196,-25 274,-25 274,-6 196,-6"/>
<text text-anchor="middle" x="235" y="-13" font-family="Helvetica,sans-Serif" font-size="10.00">boost/any.hpp</text>
</g>
<!-- Node4&#45;&gt;Node7 -->
<g id="edge6" class="edge"><title>Node4&#45;&gt;Node7</title>
<path fill="none" stroke="midnightblue" d="M235,-67.396C235,-58.0638 235,-45.7143 235,-35.5173"/>
<polygon fill="midnightblue" stroke="midnightblue" points="238.5,-35.1945 235,-25.1945 231.5,-35.1946 238.5,-35.1945"/>
</g>
<!-- Node4&#45;&gt;Node8 -->
<g id="edge7" class="edge"><title>Node4&#45;&gt;Node8</title>
<path fill="none" stroke="midnightblue" d="M194.858,-67.396C166.979,-57.6006 129.638,-44.4809 99.8513,-34.0153"/>
<polygon fill="midnightblue" stroke="midnightblue" points="100.659,-30.5893 90.0639,-30.5765 98.3383,-37.1935 100.659,-30.5893"/>
</g>
<!-- Node4&#45;&gt;Node9 -->
<g id="edge8" class="edge"><title>Node4&#45;&gt;Node9</title>
<path fill="none" stroke="midnightblue" d="M304.19,-67.5825C349.771,-58.2652 411.01,-45.4661 473.737,-31.2488"/>
<polygon fill="midnightblue" stroke="midnightblue" points="474.841,-34.5871 483.815,-28.9551 473.288,-27.7617 474.841,-34.5871"/>
</g>
<!-- Node4&#45;&gt;Node10 -->
<g id="edge9" class="edge"><title>Node4&#45;&gt;Node10</title>
<path fill="none" stroke="midnightblue" d="M304.181,-73.1376C376.447,-64.0757 492.999,-48.5402 593,-31 599.724,-29.8207 606.792,-28.4671 613.736,-27.0712"/>
<polygon fill="midnightblue" stroke="midnightblue" points="614.675,-30.4515 623.766,-25.011 613.267,-23.5946 614.675,-30.4515"/>
</g>
<!-- Node11 -->
<g id="node11" class="node"><title>Node11</title>
<polygon fill="white" stroke="#bfbfbf" points="292,-0.5 292,-30.5 392,-30.5 392,-0.5 292,-0.5"/>
<text text-anchor="start" x="300" y="-18.5" font-family="Helvetica,sans-Serif" font-size="10.00">boost/ptr_container</text>
<text text-anchor="middle" x="342" y="-7.5" font-family="Helvetica,sans-Serif" font-size="10.00">/ptr_vector.hpp</text>
</g>
<!-- Node4&#45;&gt;Node11 -->
<g id="edge10" class="edge"><title>Node4&#45;&gt;Node11</title>
<path fill="none" stroke="midnightblue" d="M258.217,-67.396C273.361,-58.1968 293.33,-46.0658 309.975,-35.9546"/>
<polygon fill="midnightblue" stroke="midnightblue" points="312.098,-38.7597 318.828,-30.5765 308.464,-32.7771 312.098,-38.7597"/>
</g>
<!-- Node14&#45;&gt;Node6 -->
<g id="edge25" class="edge"><title>Node14&#45;&gt;Node6</title>
<path fill="none" stroke="midnightblue" d="M923.5,-138.14C848.843,-131.408 726.772,-117.797 686,-98 667.898,-89.2106 670.878,-76.2363 653,-67 581.291,-29.9537 552.422,-53.8112 475,-31 472.568,-30.2834 470.072,-29.4738 467.58,-28.6125"/>
<polygon fill="midnightblue" stroke="midnightblue" points="468.728,-25.3057 458.135,-25.1229 466.302,-31.8718 468.728,-25.3057"/>
</g>
<!-- Node14&#45;&gt;Node9 -->
<g id="edge21" class="edge"><title>Node14&#45;&gt;Node9</title>
<path fill="none" stroke="midnightblue" d="M923.37,-141.184C868.975,-137.576 788.084,-127.223 724,-98 704.169,-88.9568 705.101,-77.4979 686,-67 669.516,-57.9408 628.008,-44.3539 592.526,-33.5544"/>
<polygon fill="midnightblue" stroke="midnightblue" points="593.289,-30.1287 582.704,-30.5884 591.265,-36.8298 593.289,-30.1287"/>
</g>
<!-- Node14&#45;&gt;Node10 -->
<g id="edge20" class="edge"><title>Node14&#45;&gt;Node10</title>
<path fill="none" stroke="midnightblue" d="M923.215,-137.852C878.382,-132.31 816.784,-120.969 767,-98 757.452,-93.5948 708.27,-54.1461 680.734,-31.7894"/>
<polygon fill="midnightblue" stroke="midnightblue" points="682.598,-28.7937 672.632,-25.1974 678.18,-34.2235 682.598,-28.7937"/>
</g>
<!-- Node14&#45;&gt;Node13 -->
<g id="edge22" class="edge"><title>Node14&#45;&gt;Node13</title>
<path fill="none" stroke="midnightblue" d="M923.37,-136.206C857.72,-128.482 750.045,-114.748 658,-98 656.739,-97.7706 655.465,-97.5333 654.182,-97.2893"/>
<polygon fill="midnightblue" stroke="midnightblue" points="654.716,-93.827 644.225,-95.3063 653.349,-100.692 654.716,-93.827"/>
</g>
<!-- Node15 -->
<g id="node15" class="node"><title>Node15</title>
<g id="a_node15"><a xlink:href="../../de/df3/ocra__assert_8h.html" target="_top" xlink:title="ocra/optim/ocra_assert.h">
<polygon fill="white" stroke="black" points="776.5,-73 776.5,-92 901.5,-92 901.5,-73 776.5,-73"/>
<text text-anchor="middle" x="839" y="-80" font-family="Helvetica,sans-Serif" font-size="10.00">ocra/optim/ocra_assert.h</text>
</a>
</g>
</g>
<!-- Node14&#45;&gt;Node15 -->
<g id="edge17" class="edge"><title>Node14&#45;&gt;Node15</title>
<path fill="none" stroke="midnightblue" d="M963.225,-134.475C938.568,-124.357 897.255,-107.405 869.098,-95.8507"/>
<polygon fill="midnightblue" stroke="midnightblue" points="870.317,-92.5674 859.736,-92.0091 867.659,-99.0434 870.317,-92.5674"/>
</g>
<!-- Node14&#45;&gt;Node17 -->
<g id="edge19" class="edge"><title>Node14&#45;&gt;Node17</title>
<path fill="none" stroke="midnightblue" d="M1024.44,-134.48C1067.29,-125.447 1136.92,-110.752 1197,-98 1202.82,-96.7637 1208.93,-95.4655 1214.99,-94.1751"/>
<polygon fill="midnightblue" stroke="midnightblue" points="1216.04,-97.5302 1225.09,-92.0232 1214.58,-90.6838 1216.04,-97.5302"/>
</g>
<!-- Node18 -->
<g id="node18" class="node"><title>Node18</title>
<polygon fill="white" stroke="#bfbfbf" points="919.5,-67.5 919.5,-97.5 1048.5,-97.5 1048.5,-67.5 919.5,-67.5"/>
<text text-anchor="start" x="927.5" y="-85.5" font-family="Helvetica,sans-Serif" font-size="10.00">boost/type_traits/has</text>
<text text-anchor="middle" x="984" y="-74.5" font-family="Helvetica,sans-Serif" font-size="10.00">_nothrow_constructor.hpp</text>
</g>
<!-- Node14&#45;&gt;Node18 -->
<g id="edge23" class="edge"><title>Node14&#45;&gt;Node18</title>
<path fill="none" stroke="midnightblue" d="M984,-134.475C984,-127.471 984,-117.192 984,-107.696"/>
<polygon fill="midnightblue" stroke="midnightblue" points="987.5,-107.523 984,-97.523 980.5,-107.523 987.5,-107.523"/>
</g>
<!-- Node14&#45;&gt;Node19 -->
<g id="edge24" class="edge"><title>Node14&#45;&gt;Node19</title>
<path fill="none" stroke="midnightblue" d="M1044.51,-140.608C1114.8,-136.592 1233.7,-125.949 1332,-98 1333.94,-97.4495 1335.9,-96.8 1337.87,-96.0862"/>
<polygon fill="midnightblue" stroke="midnightblue" points="1339.51,-99.1944 1347.41,-92.1412 1336.84,-92.7247 1339.51,-99.1944"/>
</g>
<!-- Node20 -->
<g id="node20" class="node"><title>Node20</title>
<polygon fill="white" stroke="#bfbfbf" points="1066.5,-73 1066.5,-92 1111.5,-92 1111.5,-73 1066.5,-73"/>
<text text-anchor="middle" x="1089" y="-80" font-family="Helvetica,sans-Serif" font-size="10.00">iosfwd</text>
</g>
<!-- Node14&#45;&gt;Node20 -->
<g id="edge26" class="edge"><title>Node14&#45;&gt;Node20</title>
<path fill="none" stroke="midnightblue" d="M999.044,-134.475C1016.28,-124.711 1044.74,-108.581 1065.03,-97.0808"/>
<polygon fill="midnightblue" stroke="midnightblue" points="1067.01,-99.9843 1073.98,-92.0091 1063.56,-93.8942 1067.01,-99.9843"/>
</g>
<!-- Node21 -->
<g id="node21" class="node"><title>Node21</title>
<polygon fill="white" stroke="#bfbfbf" points="1129.5,-73 1129.5,-92 1188.5,-92 1188.5,-73 1129.5,-73"/>
<text text-anchor="middle" x="1159" y="-80" font-family="Helvetica,sans-Serif" font-size="10.00">stdexcept</text>
</g>
<!-- Node14&#45;&gt;Node21 -->
<g id="edge27" class="edge"><title>Node14&#45;&gt;Node21</title>
<path fill="none" stroke="midnightblue" d="M1010.68,-134.49C1038.17,-125.646 1082.22,-111.268 1120,-98 1122.24,-97.2123 1124.55,-96.3876 1126.88,-95.5483"/>
<polygon fill="midnightblue" stroke="midnightblue" points="1128.18,-98.799 1136.37,-92.074 1125.77,-92.2258 1128.18,-98.799"/>
</g>
<!-- Node16 -->
<g id="node16" class="node"><title>Node16</title>
<polygon fill="white" stroke="#bfbfbf" points="817.5,-6 817.5,-25 860.5,-25 860.5,-6 817.5,-6"/>
<text text-anchor="middle" x="839" y="-13" font-family="Helvetica,sans-Serif" font-size="10.00">cstdio</text>
</g>
<!-- Node15&#45;&gt;Node16 -->
<g id="edge18" class="edge"><title>Node15&#45;&gt;Node16</title>
<path fill="none" stroke="midnightblue" d="M839,-72.7338C839,-63.1826 839,-47.6183 839,-35.2829"/>
<polygon fill="midnightblue" stroke="midnightblue" points="842.5,-35.1273 839,-25.1273 835.5,-35.1273 842.5,-35.1273"/>
</g>
</g>
</svg>
