<?xml version="1.0" encoding="UTF-8" standalone="no"?>
<!DOCTYPE svg PUBLIC "-//W3C//DTD SVG 1.1//EN"
 "http://www.w3.org/Graphics/SVG/1.1/DTD/svg11.dtd">
<!-- Generated by graphviz version 2.38.0 (20140413.2041)
 -->
<!-- Title: ocra_recipes::ControlThread Pages: 1 -->
<svg width="582pt" height="163pt"
 viewBox="0.00 0.00 582.00 162.50" xmlns="http://www.w3.org/2000/svg" xmlns:xlink="http://www.w3.org/1999/xlink">
<g id="graph0" class="graph" transform="scale(1 1) rotate(0) translate(4 158.5)">
<title>ocra_recipes::ControlThread</title>
<polygon fill="white" stroke="none" points="-4,4 -4,-158.5 578,-158.5 578,4 -4,4"/>
<!-- Node1 -->
<g id="node1" class="node"><title>Node1</title>
<polygon fill="#bfbfbf" stroke="black" points="434,-75 434,-94 574,-94 574,-75 434,-75"/>
<text text-anchor="middle" x="504" y="-82" font-family="Helvetica,sans-Serif" font-size="10.00">ocra_recipes::ControlThread</text>
</g>
<!-- Node2 -->
<g id="node2" class="node"><title>Node2</title>
<polygon fill="white" stroke="#bfbfbf" points="179.5,-135 179.5,-154 288.5,-154 288.5,-135 179.5,-135"/>
<text text-anchor="middle" x="234" y="-142" font-family="Helvetica,sans-Serif" font-size="10.00">yarp::os::RateThread</text>
</g>
<!-- Node2&#45;&gt;Node1 -->
<g id="edge1" class="edge"><title>Node2&#45;&gt;Node1</title>
<path fill="none" stroke="midnightblue" d="M298.837,-139.537C333.845,-135.858 377.774,-129.664 416,-119.5 439.758,-113.183 465.758,-102.141 483.089,-94.1459"/>
<polygon fill="midnightblue" stroke="midnightblue" points="298.343,-136.069 288.745,-140.555 299.046,-143.034 298.343,-136.069"/>
</g>
<!-- Node3 -->
<g id="node3" class="node"><title>Node3</title>
<polygon fill="white" stroke="#bfbfbf" points="4.5,-72 4.5,-91 61.5,-91 61.5,-72 4.5,-72"/>
<text text-anchor="middle" x="33" y="-79" font-family="Helvetica,sans-Serif" font-size="10.00">VectorXd</text>
</g>
<!-- Node3&#45;&gt;Node1 -->
<g id="edge2" class="edge"><title>Node3&#45;&gt;Node1</title>
<path fill="none" stroke="#9a32cd" stroke-dasharray="5,2" d="M71.7226,-89.8644C75.8488,-90.5341 80.0014,-91.1041 84,-91.5 230.837,-106.04 268.563,-97.4218 416,-91.5 421.753,-91.2689 427.716,-90.9522 433.698,-90.5804"/>
<polygon fill="#9a32cd" stroke="#9a32cd" points="72.0865,-86.3735 61.623,-88.0362 70.8396,-93.2615 72.0865,-86.3735"/>
<text text-anchor="middle" x="234" y="-102.5" font-family="Helvetica,sans-Serif" font-size="10.00"> currentStateVector</text>
</g>
<!-- Node6 -->
<g id="node6" class="node"><title>Node6</title>
<g id="a_node6"><a xlink:href="../../d7/d59/classocra__recipes_1_1TaskParameters.html" target="_top" xlink:title="ocra_recipes::TaskParameters">
<polygon fill="white" stroke="black" points="159,-50 159,-69 309,-69 309,-50 159,-50"/>
<text text-anchor="middle" x="234" y="-57" font-family="Helvetica,sans-Serif" font-size="10.00">ocra_recipes::TaskParameters</text>
</a>
</g>
</g>
<!-- Node3&#45;&gt;Node6 -->
<g id="edge6" class="edge"><title>Node3&#45;&gt;Node6</title>
<path fill="none" stroke="#9a32cd" stroke-dasharray="5,2" d="M59.2094,-67.3497C66.9259,-63.7282 75.5996,-60.3394 84,-58.5 108.006,-53.2433 134.714,-52.0257 158.813,-52.5735"/>
<polygon fill="#9a32cd" stroke="#9a32cd" points="57.4003,-64.3417 50.0396,-71.9621 60.5459,-70.5952 57.4003,-64.3417"/>
<text text-anchor="middle" x="112.5" y="-83.5" font-family="Helvetica,sans-Serif" font-size="10.00"> currentState</text>
<text text-anchor="middle" x="112.5" y="-72.5" font-family="Helvetica,sans-Serif" font-size="10.00">desired</text>
<text text-anchor="middle" x="112.5" y="-61.5" font-family="Helvetica,sans-Serif" font-size="10.00">weight</text>
</g>
<!-- Node4 -->
<g id="node4" class="node"><title>Node4</title>
<g id="a_node4"><a xlink:href="../../d5/d79/classocra__recipes_1_1ControlThread_1_1inputCallback.html" target="_top" xlink:title="ocra_recipes::ControlThread\l::inputCallback">
<polygon fill="white" stroke="black" points="164,-0.5 164,-30.5 304,-30.5 304,-0.5 164,-0.5"/>
<text text-anchor="start" x="172" y="-18.5" font-family="Helvetica,sans-Serif" font-size="10.00">ocra_recipes::ControlThread</text>
<text text-anchor="middle" x="234" y="-7.5" font-family="Helvetica,sans-Serif" font-size="10.00">::inputCallback</text>
</a>
</g>
</g>
<!-- Node4&#45;&gt;Node1 -->
<g id="edge3" class="edge"><title>Node4&#45;&gt;Node1</title>
<path fill="none" stroke="#9a32cd" stroke-dasharray="5,2" d="M314.317,-26.2245C346.265,-31.508 383.236,-38.8533 416,-48.5 439.835,-55.5176 466.037,-66.8932 483.392,-74.9777"/>
<polygon fill="#9a32cd" stroke="#9a32cd" points="314.562,-22.7188 304.132,-24.5812 313.447,-29.6295 314.562,-22.7188"/>
<text text-anchor="middle" x="371.5" y="-51.5" font-family="Helvetica,sans-Serif" font-size="10.00"> inpCallback</text>
</g>
<!-- Node5 -->
<g id="node5" class="node"><title>Node5</title>
<polygon fill="white" stroke="#bfbfbf" points="0,-6 0,-25 66,-25 66,-6 0,-6"/>
<text text-anchor="middle" x="33" y="-13" font-family="Helvetica,sans-Serif" font-size="10.00">PortReader</text>
</g>
<!-- Node5&#45;&gt;Node4 -->
<g id="edge4" class="edge"><title>Node5&#45;&gt;Node4</title>
<path fill="none" stroke="midnightblue" d="M76.4642,-15.5C101.88,-15.5 134.791,-15.5 163.874,-15.5"/>
<polygon fill="midnightblue" stroke="midnightblue" points="76.4157,-12.0001 66.4157,-15.5 76.4157,-19.0001 76.4157,-12.0001"/>
</g>
<!-- Node6&#45;&gt;Node1 -->
<g id="edge5" class="edge"><title>Node6&#45;&gt;Node1</title>
<path fill="none" stroke="#9a32cd" stroke-dasharray="5,2" d="M319.316,-62.1346C349.839,-63.6218 384.534,-65.9302 416,-69.5 428.183,-70.8822 441.248,-72.8653 453.454,-74.9389"/>
<polygon fill="#9a32cd" stroke="#9a32cd" points="319.287,-58.6296 309.135,-61.6611 318.962,-65.622 319.287,-58.6296"/>
<text text-anchor="middle" x="371.5" y="-83.5" font-family="Helvetica,sans-Serif" font-size="10.00"> currentTaskParams</text>
<text text-anchor="middle" x="371.5" y="-72.5" font-family="Helvetica,sans-Serif" font-size="10.00">originalTaskParams</text>
</g>
</g>
</svg>
