<?xml version="1.0" encoding="UTF-8" standalone="no"?>
<!DOCTYPE svg PUBLIC "-//W3C//DTD SVG 1.1//EN"
 "http://www.w3.org/Graphics/SVG/1.1/DTD/svg11.dtd">
<!-- Generated by graphviz version 2.38.0 (20140413.2041)
 -->
<!-- Title: ocra::ReducedContactAvoidanceFunction::Pimpl Pages: 1 -->
<svg width="1546pt" height="443pt"
 viewBox="0.00 0.00 1546.00 442.50" xmlns="http://www.w3.org/2000/svg" xmlns:xlink="http://www.w3.org/1999/xlink">
<g id="graph0" class="graph" transform="scale(1 1) rotate(0) translate(4 438.5)">
<title>ocra::ReducedContactAvoidanceFunction::Pimpl</title>
<polygon fill="white" stroke="none" points="-4,4 -4,-438.5 1542,-438.5 1542,4 -4,4"/>
<!-- Node1 -->
<g id="node1" class="node"><title>Node1</title>
<polygon fill="#bfbfbf" stroke="black" points="1377,-176.5 1377,-206.5 1538,-206.5 1538,-176.5 1377,-176.5"/>
<text text-anchor="start" x="1385" y="-194.5" font-family="Helvetica,sans-Serif" font-size="10.00">ocra::ReducedContactAvoidance</text>
<text text-anchor="middle" x="1457.5" y="-183.5" font-family="Helvetica,sans-Serif" font-size="10.00">Function::Pimpl</text>
</g>
<!-- Node2 -->
<g id="node2" class="node"><title>Node2</title>
<polygon fill="white" stroke="#bfbfbf" points="638,-384 638,-403 695,-403 695,-384 638,-384"/>
<text text-anchor="middle" x="666.5" y="-391" font-family="Helvetica,sans-Serif" font-size="10.00">VectorXd</text>
</g>
<!-- Node2&#45;&gt;Node1 -->
<g id="edge1" class="edge"><title>Node2&#45;&gt;Node1</title>
<path fill="none" stroke="#9a32cd" stroke-dasharray="5,2" d="M705.014,-402.454C745.387,-411.295 811.608,-423.5 869.5,-423.5 869.5,-423.5 869.5,-423.5 1191,-423.5 1323.22,-423.5 1421.33,-258.336 1448.76,-206.722"/>
<polygon fill="#9a32cd" stroke="#9a32cd" points="705.604,-399 695.081,-400.233 704.076,-405.831 705.604,-399"/>
<text text-anchor="middle" x="999.5" y="-426.5" font-family="Helvetica,sans-Serif" font-size="10.00"> _fullb</text>
</g>
<!-- Node4 -->
<g id="node4" class="node"><title>Node4</title>
<g id="a_node4"><a xlink:href="../../de/d3a/classocra_1_1LinearFunction.html" target="_top" xlink:title="LinearFunction class. ">
<polygon fill="white" stroke="black" points="947,-229 947,-248 1052,-248 1052,-229 947,-229"/>
<text text-anchor="middle" x="999.5" y="-236" font-family="Helvetica,sans-Serif" font-size="10.00">ocra::LinearFunction</text>
</a>
</g>
</g>
<!-- Node2&#45;&gt;Node4 -->
<g id="edge26" class="edge"><title>Node2&#45;&gt;Node4</title>
<path fill="none" stroke="#9a32cd" stroke-dasharray="5,2" d="M705.149,-392.276C735.299,-390.196 778.16,-384.725 813,-370.5 888.383,-339.723 962.562,-273.005 988.662,-248.117"/>
<polygon fill="#9a32cd" stroke="#9a32cd" points="704.822,-388.79 695.049,-392.88 705.24,-395.777 704.822,-388.79"/>
<text text-anchor="middle" x="870.5" y="-365.5" font-family="Helvetica,sans-Serif" font-size="10.00"> _b</text>
</g>
<!-- Node5 -->
<g id="node5" class="node"><title>Node5</title>
<g id="a_node5"><a xlink:href="../../d2/d99/classocra_1_1Function.html" target="_top" xlink:title="Function class. ">
<polygon fill="white" stroke="black" points="831,-229 831,-248 910,-248 910,-229 831,-229"/>
<text text-anchor="middle" x="870.5" y="-236" font-family="Helvetica,sans-Serif" font-size="10.00">ocra::Function</text>
</a>
</g>
</g>
<!-- Node2&#45;&gt;Node5 -->
<g id="edge19" class="edge"><title>Node2&#45;&gt;Node5</title>
<path fill="none" stroke="#9a32cd" stroke-dasharray="5,2" d="M705.481,-388.594C719.934,-385.755 736.227,-381.333 750,-374.5 759.329,-369.872 759.889,-366.031 768,-359.5 787.735,-343.61 795.813,-343.116 813,-324.5 835.782,-299.824 855.574,-265.01 864.481,-248.257"/>
<polygon fill="#9a32cd" stroke="#9a32cd" points="704.578,-385.2 695.344,-390.394 705.802,-392.092 704.578,-385.2"/>
<text text-anchor="middle" x="790.5" y="-362.5" font-family="Helvetica,sans-Serif" font-size="10.00"> _value</text>
</g>
<!-- Node3 -->
<g id="node3" class="node"><title>Node3</title>
<g id="a_node3"><a xlink:href="../../de/ddd/classocra_1_1FullDynamicEquationFunction.html" target="_top" xlink:title="Create a linear function that represents the dynamic equation of motion. ">
<polygon fill="white" stroke="black" points="1123,-205.5 1123,-235.5 1257,-235.5 1257,-205.5 1123,-205.5"/>
<text text-anchor="start" x="1131" y="-223.5" font-family="Helvetica,sans-Serif" font-size="10.00">ocra::FullDynamicEquation</text>
<text text-anchor="middle" x="1190" y="-212.5" font-family="Helvetica,sans-Serif" font-size="10.00">Function</text>
</a>
</g>
</g>
<!-- Node3&#45;&gt;Node1 -->
<g id="edge2" class="edge"><title>Node3&#45;&gt;Node1</title>
<path fill="none" stroke="#9a32cd" stroke-dasharray="5,2" d="M1267.29,-212.167C1301.62,-208.418 1342.14,-203.991 1376.86,-200.199"/>
<polygon fill="#9a32cd" stroke="#9a32cd" points="1266.87,-208.692 1257.31,-213.257 1267.63,-215.65 1266.87,-208.692"/>
<text text-anchor="middle" x="1317" y="-214.5" font-family="Helvetica,sans-Serif" font-size="10.00"> _dynamicEquation</text>
</g>
<!-- Node4&#45;&gt;Node3 -->
<g id="edge3" class="edge"><title>Node4&#45;&gt;Node3</title>
<path fill="none" stroke="midnightblue" d="M1062.22,-232.606C1081.57,-230.758 1103.02,-228.711 1122.67,-226.833"/>
<polygon fill="midnightblue" stroke="midnightblue" points="1061.63,-229.147 1052.01,-233.581 1062.3,-236.115 1061.63,-229.147"/>
</g>
<!-- Node5&#45;&gt;Node4 -->
<g id="edge4" class="edge"><title>Node5&#45;&gt;Node4</title>
<path fill="none" stroke="midnightblue" d="M920.566,-238.5C929.176,-238.5 938.16,-238.5 946.839,-238.5"/>
<polygon fill="midnightblue" stroke="midnightblue" points="920.294,-235 910.294,-238.5 920.294,-242 920.294,-235"/>
</g>
<!-- Node6 -->
<g id="node6" class="node"><title>Node6</title>
<g id="a_node6"><a xlink:href="../../d3/d16/classocra_1_1ObserverSubject.html" target="_top" xlink:title="ocra::ObserverSubject">
<polygon fill="white" stroke="black" points="388,-106 388,-125 502,-125 502,-106 388,-106"/>
<text text-anchor="middle" x="445" y="-113" font-family="Helvetica,sans-Serif" font-size="10.00">ocra::ObserverSubject</text>
</a>
</g>
</g>
<!-- Node6&#45;&gt;Node5 -->
<g id="edge5" class="edge"><title>Node6&#45;&gt;Node5</title>
<path fill="none" stroke="midnightblue" d="M512.294,-110.498C575.047,-107.874 671.127,-109.377 750,-134.5 802.936,-151.361 846.735,-206.366 862.858,-228.821"/>
<polygon fill="midnightblue" stroke="midnightblue" points="511.958,-107.01 502.132,-110.972 512.284,-114.003 511.958,-107.01"/>
</g>
<!-- Node21 -->
<g id="node21" class="node"><title>Node21</title>
<g id="a_node21"><a xlink:href="../../d2/dac/classocra_1_1Variable.html" target="_top" xlink:title="This class represents a variable in a mathematical sense. ">
<polygon fill="white" stroke="black" points="628,-182 628,-201 705,-201 705,-182 628,-182"/>
<text text-anchor="middle" x="666.5" y="-189" font-family="Helvetica,sans-Serif" font-size="10.00">ocra::Variable</text>
</a>
</g>
</g>
<!-- Node6&#45;&gt;Node21 -->
<g id="edge23" class="edge"><title>Node6&#45;&gt;Node21</title>
<path fill="none" stroke="midnightblue" d="M511.951,-127.313C523.65,-130.705 535.454,-135.023 546,-140.5 565.294,-150.521 563.613,-162.659 583,-172.5 596.761,-179.485 613.113,-183.937 627.615,-186.758"/>
<polygon fill="midnightblue" stroke="midnightblue" points="512.745,-123.902 502.178,-124.677 510.922,-130.661 512.745,-123.902"/>
</g>
<!-- Node25 -->
<g id="node25" class="node"><title>Node25</title>
<g id="a_node25"><a xlink:href="../../d4/d00/classocra_1_1Model.html" target="_top" xlink:title="Model class. ">
<polygon fill="white" stroke="black" points="836.5,-56 836.5,-75 904.5,-75 904.5,-56 836.5,-56"/>
<text text-anchor="middle" x="870.5" y="-63" font-family="Helvetica,sans-Serif" font-size="10.00">ocra::Model</text>
</a>
</g>
</g>
<!-- Node6&#45;&gt;Node25 -->
<g id="edge28" class="edge"><title>Node6&#45;&gt;Node25</title>
<path fill="none" stroke="midnightblue" d="M472.138,-100.953C499,-86.8995 542.501,-66.5888 583,-58.5 673.263,-40.4718 782.687,-52.1556 836.44,-60.0232"/>
<polygon fill="midnightblue" stroke="midnightblue" points="470.206,-98.0171 463.031,-105.813 473.501,-104.193 470.206,-98.0171"/>
</g>
<!-- Node7 -->
<g id="node7" class="node"><title>Node7</title>
<g id="a_node7"><a xlink:href="../../d2/d45/classocra_1_1Observer.html" target="_top" xlink:title="ocra::Observer">
<polygon fill="white" stroke="black" points="226,-177 226,-196 307,-196 307,-177 226,-177"/>
<text text-anchor="middle" x="266.5" y="-184" font-family="Helvetica,sans-Serif" font-size="10.00">ocra::Observer</text>
</a>
</g>
</g>
<!-- Node7&#45;&gt;Node6 -->
<g id="edge6" class="edge"><title>Node7&#45;&gt;Node6</title>
<path fill="none" stroke="midnightblue" d="M289.127,-171.116C303.966,-161.17 324.44,-148.613 344,-140.5 359.621,-134.021 377.336,-128.919 393.47,-125.059"/>
<polygon fill="midnightblue" stroke="midnightblue" points="286.944,-168.369 280.673,-176.909 290.901,-174.143 286.944,-168.369"/>
</g>
<!-- Node8 -->
<g id="node8" class="node"><title>Node8</title>
<g id="a_node8"><a xlink:href="../../d4/dee/classocra_1_1ObserverBase.html" target="_top" xlink:title="ocra::ObserverBase\l\&lt; EVT_RESIZE \&gt;">
<polygon fill="white" stroke="black" points="42.5,-245.5 42.5,-275.5 146.5,-275.5 146.5,-245.5 42.5,-245.5"/>
<text text-anchor="start" x="50.5" y="-263.5" font-family="Helvetica,sans-Serif" font-size="10.00">ocra::ObserverBase</text>
<text text-anchor="middle" x="94.5" y="-252.5" font-family="Helvetica,sans-Serif" font-size="10.00">&lt; EVT_RESIZE &gt;</text>
</a>
</g>
</g>
<!-- Node8&#45;&gt;Node7 -->
<g id="edge7" class="edge"><title>Node8&#45;&gt;Node7</title>
<path fill="none" stroke="midnightblue" d="M156.871,-247.002C167.777,-243.788 178.878,-239.966 189,-235.5 213.243,-224.805 238.613,-207.045 253.19,-196.098"/>
<polygon fill="midnightblue" stroke="midnightblue" points="155.628,-243.716 146.943,-249.785 157.517,-250.456 155.628,-243.716"/>
</g>
<!-- Node9 -->
<g id="node9" class="node"><title>Node9</title>
<g id="a_node9"><a xlink:href="../../d4/dee/classocra_1_1ObserverBase.html" target="_top" xlink:title="ocra::ObserverBase\l\&lt; EVT_CHANGE_DEPENDENCIES \&gt;">
<polygon fill="white" stroke="black" points="0,-196.5 0,-226.5 189,-226.5 189,-196.5 0,-196.5"/>
<text text-anchor="start" x="8" y="-214.5" font-family="Helvetica,sans-Serif" font-size="10.00">ocra::ObserverBase</text>
<text text-anchor="middle" x="94.5" y="-203.5" font-family="Helvetica,sans-Serif" font-size="10.00">&lt; EVT_CHANGE_DEPENDENCIES &gt;</text>
</a>
</g>
</g>
<!-- Node9&#45;&gt;Node7 -->
<g id="edge8" class="edge"><title>Node9&#45;&gt;Node7</title>
<path fill="none" stroke="midnightblue" d="M199.529,-196.202C208.724,-194.849 217.605,-193.543 225.713,-192.351"/>
<polygon fill="midnightblue" stroke="midnightblue" points="198.834,-192.766 189.45,-197.684 199.853,-199.692 198.834,-192.766"/>
</g>
<!-- Node10 -->
<g id="node10" class="node"><title>Node10</title>
<g id="a_node10"><a xlink:href="../../d4/dee/classocra_1_1ObserverBase.html" target="_top" xlink:title="ocra::ObserverBase\l\&lt; EVT_CHANGE_VALUE \&gt;">
<polygon fill="white" stroke="black" points="24,-147.5 24,-177.5 165,-177.5 165,-147.5 24,-147.5"/>
<text text-anchor="start" x="32" y="-165.5" font-family="Helvetica,sans-Serif" font-size="10.00">ocra::ObserverBase</text>
<text text-anchor="middle" x="94.5" y="-154.5" font-family="Helvetica,sans-Serif" font-size="10.00">&lt; EVT_CHANGE_VALUE &gt;</text>
</a>
</g>
</g>
<!-- Node10&#45;&gt;Node7 -->
<g id="edge9" class="edge"><title>Node10&#45;&gt;Node7</title>
<path fill="none" stroke="midnightblue" d="M175.415,-173.782C192.968,-176.26 210.811,-178.779 225.936,-180.914"/>
<polygon fill="midnightblue" stroke="midnightblue" points="175.527,-170.263 165.136,-172.331 174.549,-177.195 175.527,-170.263"/>
</g>
<!-- Node11 -->
<g id="node11" class="node"><title>Node11</title>
<g id="a_node11"><a xlink:href="../../dc/d77/classocra_1_1Subject.html" target="_top" xlink:title="ocra::Subject">
<polygon fill="white" stroke="black" points="229.5,-76 229.5,-95 303.5,-95 303.5,-76 229.5,-76"/>
<text text-anchor="middle" x="266.5" y="-83" font-family="Helvetica,sans-Serif" font-size="10.00">ocra::Subject</text>
</a>
</g>
</g>
<!-- Node11&#45;&gt;Node6 -->
<g id="edge10" class="edge"><title>Node11&#45;&gt;Node6</title>
<path fill="none" stroke="midnightblue" d="M313.732,-93.3581C336.501,-97.2283 364.139,-101.926 388.089,-105.997"/>
<polygon fill="midnightblue" stroke="midnightblue" points="314.088,-89.8686 303.643,-91.6433 312.915,-96.7696 314.088,-89.8686"/>
</g>
<!-- Node12 -->
<g id="node12" class="node"><title>Node12</title>
<g id="a_node12"><a xlink:href="../../dc/d29/classocra_1_1SubjectBase.html" target="_top" xlink:title="ocra::SubjectBase\&lt;\l EVT_RESIZE \&gt;">
<polygon fill="white" stroke="black" points="43,-98.5 43,-128.5 146,-128.5 146,-98.5 43,-98.5"/>
<text text-anchor="start" x="51" y="-116.5" font-family="Helvetica,sans-Serif" font-size="10.00">ocra::SubjectBase&lt;</text>
<text text-anchor="middle" x="94.5" y="-105.5" font-family="Helvetica,sans-Serif" font-size="10.00"> EVT_RESIZE &gt;</text>
</a>
</g>
</g>
<!-- Node12&#45;&gt;Node11 -->
<g id="edge11" class="edge"><title>Node12&#45;&gt;Node11</title>
<path fill="none" stroke="midnightblue" d="M156.006,-103.534C180.573,-99.4879 208.125,-94.9499 229.446,-91.4383"/>
<polygon fill="midnightblue" stroke="midnightblue" points="155.344,-100.096 146.045,-105.175 156.481,-107.003 155.344,-100.096"/>
</g>
<!-- Node13 -->
<g id="node13" class="node"><title>Node13</title>
<g id="a_node13"><a xlink:href="../../dc/d29/classocra_1_1SubjectBase.html" target="_top" xlink:title="ocra::SubjectBase\&lt;\l EVT_CHANGE_DEPENDENCIES \&gt;">
<polygon fill="white" stroke="black" points="3,-49.5 3,-79.5 186,-79.5 186,-49.5 3,-49.5"/>
<text text-anchor="start" x="11" y="-67.5" font-family="Helvetica,sans-Serif" font-size="10.00">ocra::SubjectBase&lt;</text>
<text text-anchor="middle" x="94.5" y="-56.5" font-family="Helvetica,sans-Serif" font-size="10.00"> EVT_CHANGE_DEPENDENCIES &gt;</text>
</a>
</g>
</g>
<!-- Node13&#45;&gt;Node11 -->
<g id="edge12" class="edge"><title>Node13&#45;&gt;Node11</title>
<path fill="none" stroke="midnightblue" d="M196.712,-77.0027C208.269,-78.4303 219.411,-79.8066 229.239,-81.0207"/>
<polygon fill="midnightblue" stroke="midnightblue" points="196.826,-73.4902 186.472,-75.7377 195.968,-80.4374 196.826,-73.4902"/>
</g>
<!-- Node14 -->
<g id="node14" class="node"><title>Node14</title>
<g id="a_node14"><a xlink:href="../../dc/d29/classocra_1_1SubjectBase.html" target="_top" xlink:title="ocra::SubjectBase\&lt;\l EVT_CHANGE_VALUE \&gt;">
<polygon fill="white" stroke="black" points="27,-0.5 27,-30.5 162,-30.5 162,-0.5 27,-0.5"/>
<text text-anchor="start" x="35" y="-18.5" font-family="Helvetica,sans-Serif" font-size="10.00">ocra::SubjectBase&lt;</text>
<text text-anchor="middle" x="94.5" y="-7.5" font-family="Helvetica,sans-Serif" font-size="10.00"> EVT_CHANGE_VALUE &gt;</text>
</a>
</g>
</g>
<!-- Node14&#45;&gt;Node11 -->
<g id="edge13" class="edge"><title>Node14&#45;&gt;Node11</title>
<path fill="none" stroke="midnightblue" d="M172.021,-33.1758C177.834,-35.1139 183.553,-37.2206 189,-39.5 212.589,-49.371 237.55,-65.627 252.315,-75.9367"/>
<polygon fill="midnightblue" stroke="midnightblue" points="172.771,-29.7425 162.182,-30.0722 170.666,-36.4183 172.771,-29.7425"/>
</g>
<!-- Node15 -->
<g id="node15" class="node"><title>Node15</title>
<g id="a_node15"><a xlink:href="../../dd/d68/classocra_1_1IFunctionProperties.html" target="_top" xlink:title="ocra::IFunctionProperties">
<polygon fill="white" stroke="black" points="603.5,-346 603.5,-365 729.5,-365 729.5,-346 603.5,-346"/>
<text text-anchor="middle" x="666.5" y="-353" font-family="Helvetica,sans-Serif" font-size="10.00">ocra::IFunctionProperties</text>
</a>
</g>
</g>
<!-- Node15&#45;&gt;Node5 -->
<g id="edge14" class="edge"><title>Node15&#45;&gt;Node5</title>
<path fill="none" stroke="midnightblue" d="M730.394,-343.013C737.143,-340.864 743.802,-338.375 750,-335.5 797.754,-313.352 842.777,-267.85 860.993,-248.053"/>
<polygon fill="midnightblue" stroke="midnightblue" points="729.092,-339.748 720.483,-345.924 731.064,-346.464 729.092,-339.748"/>
</g>
<!-- Node16 -->
<g id="node16" class="node"><title>Node16</title>
<polygon fill="white" stroke="#bfbfbf" points="583,-296.5 583,-326.5 750,-326.5 750,-296.5 583,-296.5"/>
<text text-anchor="start" x="591" y="-314.5" font-family="Helvetica,sans-Serif" font-size="10.00">OCRA_FUNCTION_INTERFACE</text>
<text text-anchor="middle" x="666.5" y="-303.5" font-family="Helvetica,sans-Serif" font-size="10.00">_INHERITANCEpublic</text>
</g>
<!-- Node16&#45;&gt;Node5 -->
<g id="edge15" class="edge"><title>Node16&#45;&gt;Node5</title>
<path fill="none" stroke="#8b1a1a" d="M735.688,-293.64C760.38,-286.453 788.266,-277.492 813,-267.5 826.699,-261.966 841.537,-254.28 852.568,-248.211"/>
<polygon fill="#8b1a1a" stroke="#8b1a1a" points="734.686,-290.286 726.038,-296.406 736.615,-297.015 734.686,-290.286"/>
</g>
<!-- Node17 -->
<g id="node17" class="node"><title>Node17</title>
<g id="a_node17"><a xlink:href="../../db/de3/classocra_1_1NamedInstance.html" target="_top" xlink:title="ocra::NamedInstance">
<polygon fill="white" stroke="black" points="611.5,-68 611.5,-87 721.5,-87 721.5,-68 611.5,-68"/>
<text text-anchor="middle" x="666.5" y="-75" font-family="Helvetica,sans-Serif" font-size="10.00">ocra::NamedInstance</text>
</a>
</g>
</g>
<!-- Node17&#45;&gt;Node5 -->
<g id="edge16" class="edge"><title>Node17&#45;&gt;Node5</title>
<path fill="none" stroke="midnightblue" d="M731.728,-76.3169C759.323,-78.8908 790.361,-86.2812 813,-104.5 853.519,-137.107 865.413,-204.005 868.513,-228.893"/>
<polygon fill="midnightblue" stroke="midnightblue" points="731.97,-72.8254 721.739,-75.5754 731.452,-79.8062 731.97,-72.8254"/>
</g>
<!-- Node17&#45;&gt;Node25 -->
<g id="edge29" class="edge"><title>Node17&#45;&gt;Node25</title>
<path fill="none" stroke="midnightblue" d="M731.727,-73.6845C766.548,-71.616 808.122,-69.1462 836.428,-67.4647"/>
<polygon fill="midnightblue" stroke="midnightblue" points="731.407,-70.1973 721.632,-74.2842 731.822,-77.185 731.407,-70.1973"/>
</g>
<!-- Node18 -->
<g id="node18" class="node"><title>Node18</title>
<g id="a_node18"><a xlink:href="../../d8/d24/classocra_1_1AbilitySet.html" target="_top" xlink:title="ocra::AbilitySet">
<polygon fill="white" stroke="black" points="625,-258 625,-277 708,-277 708,-258 625,-258"/>
<text text-anchor="middle" x="666.5" y="-265" font-family="Helvetica,sans-Serif" font-size="10.00">ocra::AbilitySet</text>
</a>
</g>
</g>
<!-- Node18&#45;&gt;Node5 -->
<g id="edge17" class="edge"><title>Node18&#45;&gt;Node5</title>
<path fill="none" stroke="midnightblue" d="M718.034,-262.119C746.077,-258.914 781.545,-254.501 813,-249.5 818.823,-248.574 824.963,-247.491 830.964,-246.372"/>
<polygon fill="midnightblue" stroke="midnightblue" points="717.604,-258.645 708.06,-263.244 718.389,-265.601 717.604,-258.645"/>
</g>
<!-- Node19 -->
<g id="node19" class="node"><title>Node19</title>
<g id="a_node19"><a xlink:href="../../d5/dc0/classocra_1_1CoupledInputOutputSize.html" target="_top" xlink:title="ocra::CoupledInputOutputSize">
<polygon fill="white" stroke="black" points="592.5,-220 592.5,-239 740.5,-239 740.5,-220 592.5,-220"/>
<text text-anchor="middle" x="666.5" y="-227" font-family="Helvetica,sans-Serif" font-size="10.00">ocra::CoupledInputOutputSize</text>
</a>
</g>
</g>
<!-- Node19&#45;&gt;Node5 -->
<g id="edge18" class="edge"><title>Node19&#45;&gt;Node5</title>
<path fill="none" stroke="midnightblue" d="M750.83,-233.213C778.563,-234.448 808.131,-235.766 830.815,-236.776"/>
<polygon fill="midnightblue" stroke="midnightblue" points="750.858,-229.711 740.712,-232.762 750.547,-236.704 750.858,-229.711"/>
</g>
<!-- Node20 -->
<g id="node20" class="node"><title>Node20</title>
<polygon fill="white" stroke="#bfbfbf" points="638.5,-144 638.5,-163 694.5,-163 694.5,-144 638.5,-144"/>
<text text-anchor="middle" x="666.5" y="-151" font-family="Helvetica,sans-Serif" font-size="10.00">MatrixXd</text>
</g>
<!-- Node20&#45;&gt;Node1 -->
<g id="edge30" class="edge"><title>Node20&#45;&gt;Node1</title>
<path fill="none" stroke="#9a32cd" stroke-dasharray="5,2" d="M704.819,-151.137C745.345,-148.777 811.991,-145.5 869.5,-145.5 869.5,-145.5 869.5,-145.5 1191,-145.5 1264.91,-145.5 1348.72,-163.022 1402.06,-176.438"/>
<polygon fill="#9a32cd" stroke="#9a32cd" points="704.38,-147.657 694.605,-151.744 704.795,-154.644 704.38,-147.657"/>
<text text-anchor="middle" x="999.5" y="-148.5" font-family="Helvetica,sans-Serif" font-size="10.00"> _fullJacobian</text>
</g>
<!-- Node20&#45;&gt;Node5 -->
<g id="edge20" class="edge"><title>Node20&#45;&gt;Node5</title>
<path fill="none" stroke="#9a32cd" stroke-dasharray="5,2" d="M704.823,-159.256C735.303,-165.047 778.778,-175.857 813,-194.5 830.687,-204.135 848.614,-219.196 859.395,-228.957"/>
<polygon fill="#9a32cd" stroke="#9a32cd" points="705.083,-155.746 694.62,-157.412 703.838,-162.634 705.083,-155.746"/>
<text text-anchor="middle" x="790.5" y="-197.5" font-family="Helvetica,sans-Serif" font-size="10.00"> _jacobian</text>
</g>
<!-- Node21&#45;&gt;Node5 -->
<g id="edge21" class="edge"><title>Node21&#45;&gt;Node5</title>
<path fill="none" stroke="#9a32cd" stroke-dasharray="5,2" d="M715.315,-199.035C743.88,-203.949 780.762,-211.019 813,-219.5 823.108,-222.159 834.035,-225.678 843.561,-228.963"/>
<polygon fill="#9a32cd" stroke="#9a32cd" points="715.635,-195.54 705.192,-197.324 714.468,-202.442 715.635,-195.54"/>
<text text-anchor="middle" x="790.5" y="-222.5" font-family="Helvetica,sans-Serif" font-size="10.00"> x</text>
</g>
<!-- Node22 -->
<g id="node22" class="node"><title>Node22</title>
<g id="a_node22"><a xlink:href="../../d0/d29/classocra_1_1Component.html" target="_top" xlink:title="ocra::Component\&lt; Variable,\l CompositeVariable, VariableParenthood \&gt;">
<polygon fill="white" stroke="black" points="344,-188.5 344,-218.5 546,-218.5 546,-188.5 344,-188.5"/>
<text text-anchor="start" x="352" y="-206.5" font-family="Helvetica,sans-Serif" font-size="10.00">ocra::Component&lt; Variable,</text>
<text text-anchor="middle" x="445" y="-195.5" font-family="Helvetica,sans-Serif" font-size="10.00"> CompositeVariable, VariableParenthood &gt;</text>
</a>
</g>
</g>
<!-- Node22&#45;&gt;Node21 -->
<g id="edge22" class="edge"><title>Node22&#45;&gt;Node21</title>
<path fill="none" stroke="midnightblue" d="M556.355,-197.467C582.096,-196.06 607.793,-194.655 627.781,-193.562"/>
<polygon fill="midnightblue" stroke="midnightblue" points="555.909,-193.986 546.115,-198.027 556.291,-200.976 555.909,-193.986"/>
</g>
<!-- Node23 -->
<g id="node23" class="node"><title>Node23</title>
<polygon fill="white" stroke="#bfbfbf" points="409.5,-150 409.5,-169 480.5,-169 480.5,-150 409.5,-150"/>
<text text-anchor="middle" x="445" y="-157" font-family="Helvetica,sans-Serif" font-size="10.00">noncopyable</text>
</g>
<!-- Node23&#45;&gt;Node21 -->
<g id="edge24" class="edge"><title>Node23&#45;&gt;Node21</title>
<path fill="none" stroke="#8b1a1a" d="M490.889,-166.044C531.288,-171.934 589.974,-180.489 627.942,-186.025"/>
<polygon fill="#8b1a1a" stroke="#8b1a1a" points="491.181,-162.55 480.78,-164.57 490.171,-169.477 491.181,-162.55"/>
</g>
<!-- Node24 -->
<g id="node24" class="node"><title>Node24</title>
<g id="a_node24"><a xlink:href="../../dc/d20/classocra_1_1VariableHasRestrictedClassDerivation.html" target="_top" xlink:title="ocra::VariableHasRestricted\lClassDerivation">
<polygon fill="white" stroke="black" points="375,-237.5 375,-267.5 515,-267.5 515,-237.5 375,-237.5"/>
<text text-anchor="start" x="383" y="-255.5" font-family="Helvetica,sans-Serif" font-size="10.00">ocra::VariableHasRestricted</text>
<text text-anchor="middle" x="445" y="-244.5" font-family="Helvetica,sans-Serif" font-size="10.00">ClassDerivation</text>
</a>
</g>
</g>
<!-- Node24&#45;&gt;Node21 -->
<g id="edge25" class="edge"><title>Node24&#45;&gt;Node21</title>
<path fill="none" stroke="#8b1a1a" d="M523.276,-234.714C531.011,-232.477 538.699,-230.065 546,-227.5 563.074,-221.502 565.871,-216.339 583,-210.5 597.329,-205.616 613.483,-201.586 627.674,-198.514"/>
<polygon fill="#8b1a1a" stroke="#8b1a1a" points="522.166,-231.389 513.478,-237.452 524.051,-238.131 522.166,-231.389"/>
</g>
<!-- Node25&#45;&gt;Node1 -->
<g id="edge27" class="edge"><title>Node25&#45;&gt;Node1</title>
<path fill="none" stroke="#9a32cd" stroke-dasharray="5,2" d="M914.803,-65.4148C1001.67,-66.5164 1202.27,-75.5081 1359,-131.5 1388.57,-142.065 1418.78,-162.444 1437.58,-176.498"/>
<polygon fill="#9a32cd" stroke="#9a32cd" points="914.573,-61.9125 904.539,-65.3153 914.505,-68.9121 914.573,-61.9125"/>
<text text-anchor="middle" x="1087.5" y="-80.5" font-family="Helvetica,sans-Serif" font-size="10.00"> _model</text>
</g>
</g>
</svg>
