<?xml version="1.0" encoding="UTF-8" standalone="no"?>
<!DOCTYPE svg PUBLIC "-//W3C//DTD SVG 1.1//EN"
 "http://www.w3.org/Graphics/SVG/1.1/DTD/svg11.dtd">
<!-- Generated by graphviz version 2.38.0 (20140413.2041)
 -->
<!-- Title: ocra_recipes::ControllerServer Pages: 1 -->
<svg width="209pt" height="197pt"
 viewBox="0.00 0.00 209.00 197.00" xmlns="http://www.w3.org/2000/svg" xmlns:xlink="http://www.w3.org/1999/xlink">
<g id="graph0" class="graph" transform="scale(1 1) rotate(0) translate(4 193)">
<title>ocra_recipes::ControllerServer</title>
<polygon fill="white" stroke="none" points="-4,4 -4,-193 205,-193 205,4 -4,4"/>
<!-- Node1 -->
<g id="node1" class="node"><title>Node1</title>
<polygon fill="#bfbfbf" stroke="black" points="79,-0.5 79,-30.5 199,-30.5 199,-0.5 79,-0.5"/>
<text text-anchor="start" x="87" y="-18.5" font-family="Helvetica,sans-Serif" font-size="10.00">ocra_recipes::Controller</text>
<text text-anchor="middle" x="139" y="-7.5" font-family="Helvetica,sans-Serif" font-size="10.00">Server</text>
</g>
<!-- Node2 -->
<g id="node2" class="node"><title>Node2</title>
<g id="a_node2"><a xlink:href="../../d5/dd0/classocra__recipes_1_1RobotState.html" target="_top" xlink:title="A portable class for sending robot state information over yarp. ">
<polygon fill="white" stroke="black" points="0,-85 0,-104 128,-104 128,-85 0,-85"/>
<text text-anchor="middle" x="64" y="-92" font-family="Helvetica,sans-Serif" font-size="10.00">ocra_recipes::RobotState</text>
</a>
</g>
</g>
<!-- Node2&#45;&gt;Node1 -->
<g id="edge1" class="edge"><title>Node2&#45;&gt;Node1</title>
<path fill="none" stroke="#9a32cd" stroke-dasharray="5,2" d="M79.4877,-77.5993C92.9886,-63.7384 112.382,-43.8278 125.32,-30.5446"/>
<polygon fill="#9a32cd" stroke="#9a32cd" points="76.7831,-75.3598 72.3129,-84.9655 81.7976,-80.244 76.7831,-75.3598"/>
<text text-anchor="middle" x="121" y="-52" font-family="Helvetica,sans-Serif" font-size="10.00"> rState</text>
</g>
<!-- Node3 -->
<g id="node3" class="node"><title>Node3</title>
<polygon fill="white" stroke="#bfbfbf" points="17,-169.5 17,-188.5 111,-188.5 111,-169.5 17,-169.5"/>
<text text-anchor="middle" x="64" y="-176.5" font-family="Helvetica,sans-Serif" font-size="10.00">yarp::os::Portable</text>
</g>
<!-- Node3&#45;&gt;Node2 -->
<g id="edge2" class="edge"><title>Node3&#45;&gt;Node2</title>
<path fill="none" stroke="midnightblue" d="M64,-159.433C64,-142.134 64,-117.111 64,-104.095"/>
<polygon fill="midnightblue" stroke="midnightblue" points="60.5001,-159.482 64,-169.482 67.5001,-159.482 60.5001,-159.482"/>
</g>
<!-- Node4 -->
<g id="node4" class="node"><title>Node4</title>
<polygon fill="white" stroke="#bfbfbf" points="132.5,-169.5 132.5,-188.5 189.5,-188.5 189.5,-169.5 132.5,-169.5"/>
<text text-anchor="middle" x="161" y="-176.5" font-family="Helvetica,sans-Serif" font-size="10.00">VectorXd</text>
</g>
<!-- Node4&#45;&gt;Node1 -->
<g id="edge4" class="edge"><title>Node4&#45;&gt;Node1</title>
<path fill="none" stroke="#9a32cd" stroke-dasharray="5,2" d="M158.458,-159.336C154.024,-126.791 144.971,-60.3323 140.973,-30.9831"/>
<polygon fill="#9a32cd" stroke="#9a32cd" points="154.999,-159.881 159.817,-169.317 161.935,-158.936 154.999,-159.881"/>
<text text-anchor="middle" x="176.5" y="-103" font-family="Helvetica,sans-Serif" font-size="10.00"> tau</text>
<text text-anchor="middle" x="176.5" y="-92" font-family="Helvetica,sans-Serif" font-size="10.00">qdPrevious</text>
<text text-anchor="middle" x="176.5" y="-81" font-family="Helvetica,sans-Serif" font-size="10.00">qPrevious</text>
</g>
<!-- Node4&#45;&gt;Node2 -->
<g id="edge3" class="edge"><title>Node4&#45;&gt;Node2</title>
<path fill="none" stroke="#9a32cd" stroke-dasharray="5,2" d="M143.11,-162.784C122.816,-145.524 90.4301,-117.979 74.1062,-104.095"/>
<polygon fill="#9a32cd" stroke="#9a32cd" points="141.1,-165.669 150.985,-169.482 145.635,-160.337 141.1,-165.669"/>
<text text-anchor="middle" x="134" y="-143" font-family="Helvetica,sans-Serif" font-size="10.00"> qd</text>
<text text-anchor="middle" x="134" y="-132" font-family="Helvetica,sans-Serif" font-size="10.00">q</text>
</g>
</g>
</svg>
