<?xml version="1.0" encoding="UTF-8" standalone="no"?>
<!DOCTYPE svg PUBLIC "-//W3C//DTD SVG 1.1//EN"
 "http://www.w3.org/Graphics/SVG/1.1/DTD/svg11.dtd">
<!-- Generated by graphviz version 2.38.0 (20140413.2041)
 -->
<!-- Title: VariableMapping.h Pages: 1 -->
<svg width="470pt" height="84pt"
 viewBox="0.00 0.00 470.00 84.00" xmlns="http://www.w3.org/2000/svg" xmlns:xlink="http://www.w3.org/1999/xlink">
<g id="graph0" class="graph" transform="scale(1 1) rotate(0) translate(4 80)">
<title>VariableMapping.h</title>
<polygon fill="white" stroke="none" points="-4,4 -4,-80 466,-80 466,4 -4,4"/>
<!-- Node1 -->
<g id="node1" class="node"><title>Node1</title>
<polygon fill="#bfbfbf" stroke="black" points="162,-56.5 162,-75.5 259,-75.5 259,-56.5 162,-56.5"/>
<text text-anchor="middle" x="210.5" y="-63.5" font-family="Helvetica,sans-Serif" font-size="10.00">VariableMapping.h</text>
</g>
<!-- Node2 -->
<g id="node2" class="node"><title>Node2</title>
<g id="a_node2"><a xlink:href="../../d9/d4f/MergedVariable_8cpp.html" target="_top" xlink:title="MergedVariable.cpp">
<polygon fill="white" stroke="black" points="0,-0.5 0,-19.5 103,-19.5 103,-0.5 0,-0.5"/>
<text text-anchor="middle" x="51.5" y="-7.5" font-family="Helvetica,sans-Serif" font-size="10.00">MergedVariable.cpp</text>
</a>
</g>
</g>
<!-- Node1&#45;&gt;Node2 -->
<g id="edge1" class="edge"><title>Node1&#45;&gt;Node2</title>
<path fill="none" stroke="midnightblue" d="M175.673,-53.172C145.734,-43.0039 103.279,-28.5852 76.5762,-19.5164"/>
<polygon fill="midnightblue" stroke="midnightblue" points="174.712,-56.5417 185.306,-56.4435 176.963,-49.9136 174.712,-56.5417"/>
</g>
<!-- Node3 -->
<g id="node3" class="node"><title>Node3</title>
<g id="a_node3"><a xlink:href="../../d4/d01/Solver_8cpp.html" target="_top" xlink:title="Solver.cpp">
<polygon fill="white" stroke="black" points="121,-0.5 121,-19.5 184,-19.5 184,-0.5 121,-0.5"/>
<text text-anchor="middle" x="152.5" y="-7.5" font-family="Helvetica,sans-Serif" font-size="10.00">Solver.cpp</text>
</a>
</g>
</g>
<!-- Node1&#45;&gt;Node3 -->
<g id="edge2" class="edge"><title>Node1&#45;&gt;Node3</title>
<path fill="none" stroke="midnightblue" d="M193.587,-49.2533C183.297,-39.6731 170.534,-27.7906 161.988,-19.8339"/>
<polygon fill="midnightblue" stroke="midnightblue" points="191.477,-52.0714 201.181,-56.324 196.247,-46.9481 191.477,-52.0714"/>
</g>
<!-- Node4 -->
<g id="node4" class="node"><title>Node4</title>
<g id="a_node4"><a xlink:href="../../d8/d27/SumOfLinearFunctions_8cpp.html" target="_top" xlink:title="SumOfLinearFunctions.cpp">
<polygon fill="white" stroke="black" points="202,-0.5 202,-19.5 337,-19.5 337,-0.5 202,-0.5"/>
<text text-anchor="middle" x="269.5" y="-7.5" font-family="Helvetica,sans-Serif" font-size="10.00">SumOfLinearFunctions.cpp</text>
</a>
</g>
</g>
<!-- Node1&#45;&gt;Node4 -->
<g id="edge3" class="edge"><title>Node1&#45;&gt;Node4</title>
<path fill="none" stroke="midnightblue" d="M227.395,-49.5372C237.915,-39.9087 251.069,-27.8694 259.848,-19.8339"/>
<polygon fill="midnightblue" stroke="midnightblue" points="224.993,-46.9905 219.979,-56.324 229.719,-52.1542 224.993,-46.9905"/>
</g>
<!-- Node5 -->
<g id="node5" class="node"><title>Node5</title>
<g id="a_node5"><a xlink:href="../../d4/d29/VariableMapping_8cpp.html" target="_top" xlink:title="VariableMapping.cpp">
<polygon fill="white" stroke="black" points="355,-0.5 355,-19.5 462,-19.5 462,-0.5 355,-0.5"/>
<text text-anchor="middle" x="408.5" y="-7.5" font-family="Helvetica,sans-Serif" font-size="10.00">VariableMapping.cpp</text>
</a>
</g>
</g>
<!-- Node1&#45;&gt;Node5 -->
<g id="edge4" class="edge"><title>Node1&#45;&gt;Node5</title>
<path fill="none" stroke="midnightblue" d="M251.938,-53.6986C289.307,-43.507 343.443,-28.7429 377.273,-19.5164"/>
<polygon fill="midnightblue" stroke="midnightblue" points="250.6,-50.4356 241.874,-56.4435 252.442,-57.189 250.6,-50.4356"/>
</g>
</g>
</svg>
