<?xml version="1.0" encoding="UTF-8" standalone="no"?>
<!DOCTYPE svg PUBLIC "-//W3C//DTD SVG 1.1//EN"
 "http://www.w3.org/Graphics/SVG/1.1/DTD/svg11.dtd">
<!-- Generated by graphviz version 2.38.0 (20140413.2041)
 -->
<!-- Title: OrthonormalFamily.cpp Pages: 1 -->
<svg width="214pt" height="140pt"
 viewBox="0.00 0.00 214.00 140.00" xmlns="http://www.w3.org/2000/svg" xmlns:xlink="http://www.w3.org/1999/xlink">
<g id="graph0" class="graph" transform="scale(1 1) rotate(0) translate(4 136)">
<title>OrthonormalFamily.cpp</title>
<polygon fill="white" stroke="none" points="-4,4 -4,-136 210,-136 210,4 -4,4"/>
<!-- Node1 -->
<g id="node1" class="node"><title>Node1</title>
<polygon fill="#bfbfbf" stroke="black" points="64,-112.5 64,-131.5 182,-131.5 182,-112.5 64,-112.5"/>
<text text-anchor="middle" x="123" y="-119.5" font-family="Helvetica,sans-Serif" font-size="10.00">OrthonormalFamily.cpp</text>
</g>
<!-- Node2 -->
<g id="node2" class="node"><title>Node2</title>
<g id="a_node2"><a xlink:href="../../d0/d09/OrthonormalFamily_8h.html" target="_top" xlink:title="gocra/OrthonormalFamily.h">
<polygon fill="white" stroke="black" points="0,-56.5 0,-75.5 134,-75.5 134,-56.5 0,-56.5"/>
<text text-anchor="middle" x="67" y="-63.5" font-family="Helvetica,sans-Serif" font-size="10.00">gocra/OrthonormalFamily.h</text>
</a>
</g>
</g>
<!-- Node1&#45;&gt;Node2 -->
<g id="edge1" class="edge"><title>Node1&#45;&gt;Node2</title>
<path fill="none" stroke="midnightblue" d="M114.003,-112.324C105.806,-104.42 93.4945,-92.5482 83.528,-82.9377"/>
<polygon fill="midnightblue" stroke="midnightblue" points="85.789,-80.2558 76.1611,-75.8339 80.9301,-85.2947 85.789,-80.2558"/>
</g>
<!-- Node4 -->
<g id="node4" class="node"><title>Node4</title>
<polygon fill="white" stroke="#bfbfbf" points="152,-56.5 152,-75.5 206,-75.5 206,-56.5 152,-56.5"/>
<text text-anchor="middle" x="179" y="-63.5" font-family="Helvetica,sans-Serif" font-size="10.00">iostream</text>
</g>
<!-- Node1&#45;&gt;Node4 -->
<g id="edge3" class="edge"><title>Node1&#45;&gt;Node4</title>
<path fill="none" stroke="midnightblue" d="M131.997,-112.324C140.194,-104.42 152.506,-92.5482 162.472,-82.9377"/>
<polygon fill="midnightblue" stroke="midnightblue" points="165.07,-85.2947 169.839,-75.8339 160.211,-80.2558 165.07,-85.2947"/>
</g>
<!-- Node3 -->
<g id="node3" class="node"><title>Node3</title>
<polygon fill="white" stroke="#bfbfbf" points="32.5,-0.5 32.5,-19.5 101.5,-19.5 101.5,-0.5 32.5,-0.5"/>
<text text-anchor="middle" x="67" y="-7.5" font-family="Helvetica,sans-Serif" font-size="10.00">Eigen/Eigen</text>
</g>
<!-- Node2&#45;&gt;Node3 -->
<g id="edge2" class="edge"><title>Node2&#45;&gt;Node3</title>
<path fill="none" stroke="midnightblue" d="M67,-56.083C67,-49.0059 67,-38.8611 67,-29.9865"/>
<polygon fill="midnightblue" stroke="midnightblue" points="70.5001,-29.751 67,-19.7511 63.5001,-29.7511 70.5001,-29.751"/>
</g>
</g>
</svg>
