<?xml version="1.0" encoding="UTF-8" standalone="no"?>
<!DOCTYPE svg PUBLIC "-//W3C//DTD SVG 1.1//EN"
 "http://www.w3.org/Graphics/SVG/1.1/DTD/svg11.dtd">
<!-- Generated by graphviz version 2.38.0 (20140413.2041)
 -->
<!-- Title: IFunctionProperties.cpp Pages: 1 -->
<svg width="382pt" height="140pt"
 viewBox="0.00 0.00 382.00 140.00" xmlns="http://www.w3.org/2000/svg" xmlns:xlink="http://www.w3.org/1999/xlink">
<g id="graph0" class="graph" transform="scale(1 1) rotate(0) translate(4 136)">
<title>IFunctionProperties.cpp</title>
<polygon fill="white" stroke="none" points="-4,4 -4,-136 378,-136 378,4 -4,4"/>
<!-- Node1 -->
<g id="node1" class="node"><title>Node1</title>
<polygon fill="#bfbfbf" stroke="black" points="178,-112.5 178,-131.5 298,-131.5 298,-112.5 178,-112.5"/>
<text text-anchor="middle" x="238" y="-119.5" font-family="Helvetica,sans-Serif" font-size="10.00">IFunctionProperties.cpp</text>
</g>
<!-- Node2 -->
<g id="node2" class="node"><title>Node2</title>
<g id="a_node2"><a xlink:href="../../d9/d54/IFunctionProperties_8h.html" target="_top" xlink:title="ocra/optim/IFunctionProperties.h">
<polygon fill="white" stroke="black" points="0,-56.5 0,-75.5 158,-75.5 158,-56.5 0,-56.5"/>
<text text-anchor="middle" x="79" y="-63.5" font-family="Helvetica,sans-Serif" font-size="10.00">ocra/optim/IFunctionProperties.h</text>
</a>
</g>
</g>
<!-- Node1&#45;&gt;Node2 -->
<g id="edge1" class="edge"><title>Node1&#45;&gt;Node2</title>
<path fill="none" stroke="midnightblue" d="M212.806,-112.444C186.057,-103.359 143.597,-88.9388 113.695,-78.7831"/>
<polygon fill="midnightblue" stroke="midnightblue" points="114.671,-75.4182 104.076,-75.5164 112.419,-82.0464 114.671,-75.4182"/>
</g>
<!-- Node5 -->
<g id="node5" class="node"><title>Node5</title>
<g id="a_node5"><a xlink:href="../../de/df3/ocra__assert_8h.html" target="_top" xlink:title="ocra/optim/ocra_assert.h">
<polygon fill="white" stroke="black" points="175.5,-56.5 175.5,-75.5 300.5,-75.5 300.5,-56.5 175.5,-56.5"/>
<text text-anchor="middle" x="238" y="-63.5" font-family="Helvetica,sans-Serif" font-size="10.00">ocra/optim/ocra_assert.h</text>
</a>
</g>
</g>
<!-- Node1&#45;&gt;Node5 -->
<g id="edge4" class="edge"><title>Node1&#45;&gt;Node5</title>
<path fill="none" stroke="midnightblue" d="M238,-112.083C238,-105.006 238,-94.8611 238,-85.9865"/>
<polygon fill="midnightblue" stroke="midnightblue" points="241.5,-85.751 238,-75.7511 234.5,-85.7511 241.5,-85.751"/>
</g>
<!-- Node7 -->
<g id="node7" class="node"><title>Node7</title>
<polygon fill="white" stroke="#bfbfbf" points="318,-56.5 318,-75.5 374,-75.5 374,-56.5 318,-56.5"/>
<text text-anchor="middle" x="346" y="-63.5" font-family="Helvetica,sans-Serif" font-size="10.00">algorithm</text>
</g>
<!-- Node1&#45;&gt;Node7 -->
<g id="edge6" class="edge"><title>Node1&#45;&gt;Node7</title>
<path fill="none" stroke="midnightblue" d="M255.352,-112.324C272.672,-103.664 299.515,-90.2424 319.502,-80.249"/>
<polygon fill="midnightblue" stroke="midnightblue" points="321.312,-83.2572 328.691,-75.6545 318.181,-76.9962 321.312,-83.2572"/>
</g>
<!-- Node3 -->
<g id="node3" class="node"><title>Node3</title>
<polygon fill="white" stroke="#bfbfbf" points="28.5,-0.5 28.5,-19.5 69.5,-19.5 69.5,-0.5 28.5,-0.5"/>
<text text-anchor="middle" x="49" y="-7.5" font-family="Helvetica,sans-Serif" font-size="10.00">string</text>
</g>
<!-- Node2&#45;&gt;Node3 -->
<g id="edge2" class="edge"><title>Node2&#45;&gt;Node3</title>
<path fill="none" stroke="midnightblue" d="M74.0461,-56.083C69.8959,-48.6127 63.8469,-37.7244 58.7333,-28.5199"/>
<polygon fill="midnightblue" stroke="midnightblue" points="61.7777,-26.7929 53.8617,-19.7511 55.6586,-30.1924 61.7777,-26.7929"/>
</g>
<!-- Node4 -->
<g id="node4" class="node"><title>Node4</title>
<polygon fill="white" stroke="#bfbfbf" points="88,-0.5 88,-19.5 132,-19.5 132,-0.5 88,-0.5"/>
<text text-anchor="middle" x="110" y="-7.5" font-family="Helvetica,sans-Serif" font-size="10.00">vector</text>
</g>
<!-- Node2&#45;&gt;Node4 -->
<g id="edge3" class="edge"><title>Node2&#45;&gt;Node4</title>
<path fill="none" stroke="midnightblue" d="M84.119,-56.083C88.4075,-48.6127 94.6582,-37.7244 99.9423,-28.5199"/>
<polygon fill="midnightblue" stroke="midnightblue" points="103.033,-30.1662 104.976,-19.7511 96.9621,-26.6811 103.033,-30.1662"/>
</g>
<!-- Node6 -->
<g id="node6" class="node"><title>Node6</title>
<polygon fill="white" stroke="#bfbfbf" points="216.5,-0.5 216.5,-19.5 259.5,-19.5 259.5,-0.5 216.5,-0.5"/>
<text text-anchor="middle" x="238" y="-7.5" font-family="Helvetica,sans-Serif" font-size="10.00">cstdio</text>
</g>
<!-- Node5&#45;&gt;Node6 -->
<g id="edge5" class="edge"><title>Node5&#45;&gt;Node6</title>
<path fill="none" stroke="midnightblue" d="M238,-56.083C238,-49.0059 238,-38.8611 238,-29.9865"/>
<polygon fill="midnightblue" stroke="midnightblue" points="241.5,-29.751 238,-19.7511 234.5,-29.7511 241.5,-29.751"/>
</g>
</g>
</svg>
