<?xml version="1.0" encoding="UTF-8" standalone="no"?>
<!DOCTYPE svg PUBLIC "-//W3C//DTD SVG 1.1//EN"
 "http://www.w3.org/Graphics/SVG/1.1/DTD/svg11.dtd">
<!-- Generated by graphviz version 2.38.0 (20140413.2041)
 -->
<!-- Title: LinearTask.cpp Pages: 1 -->
<svg width="1546pt" height="520pt"
 viewBox="0.00 0.00 1546.00 520.00" xmlns="http://www.w3.org/2000/svg" xmlns:xlink="http://www.w3.org/1999/xlink">
<g id="graph0" class="graph" transform="scale(1 1) rotate(0) translate(4 516)">
<title>LinearTask.cpp</title>
<polygon fill="white" stroke="none" points="-4,4 -4,-516 1542,-516 1542,4 -4,4"/>
<!-- Node1 -->
<g id="node1" class="node"><title>Node1</title>
<polygon fill="#bfbfbf" stroke="black" points="611.5,-492.5 611.5,-511.5 694.5,-511.5 694.5,-492.5 611.5,-492.5"/>
<text text-anchor="middle" x="653" y="-499.5" font-family="Helvetica,sans-Serif" font-size="10.00">LinearTask.cpp</text>
</g>
<!-- Node2 -->
<g id="node2" class="node"><title>Node2</title>
<g id="a_node2"><a xlink:href="../../dc/df4/LinearTask_8h.html" target="_top" xlink:title="Declaration file of the LinearTask class. ">
<polygon fill="white" stroke="black" points="592,-436.5 592,-455.5 714,-455.5 714,-436.5 592,-436.5"/>
<text text-anchor="middle" x="653" y="-443.5" font-family="Helvetica,sans-Serif" font-size="10.00">ocra/optim/LinearTask.h</text>
</a>
</g>
</g>
<!-- Node1&#45;&gt;Node2 -->
<g id="edge1" class="edge"><title>Node1&#45;&gt;Node2</title>
<path fill="none" stroke="midnightblue" d="M653,-492.083C653,-485.006 653,-474.861 653,-465.986"/>
<polygon fill="midnightblue" stroke="midnightblue" points="656.5,-465.751 653,-455.751 649.5,-465.751 656.5,-465.751"/>
</g>
<!-- Node13 -->
<g id="node13" class="node"><title>Node13</title>
<polygon fill="white" stroke="#bfbfbf" points="1067.5,-73 1067.5,-92 1126.5,-92 1126.5,-73 1067.5,-73"/>
<text text-anchor="middle" x="1097" y="-80" font-family="Helvetica,sans-Serif" font-size="10.00">stdexcept</text>
</g>
<!-- Node1&#45;&gt;Node13 -->
<g id="edge59" class="edge"><title>Node1&#45;&gt;Node13</title>
<path fill="none" stroke="midnightblue" d="M632.543,-492.464C598.519,-476.741 534,-439.771 534,-385.5 534,-385.5 534,-385.5 534,-266 534,-231.183 527.234,-213.417 553,-190 592.748,-153.877 739.143,-163.536 792,-154 851.447,-143.275 999.975,-114.794 1058,-98 1060.64,-97.2356 1063.36,-96.378 1066.07,-95.4717"/>
<polygon fill="midnightblue" stroke="midnightblue" points="1067.47,-98.689 1075.73,-92.0565 1065.14,-92.0891 1067.47,-98.689"/>
</g>
<!-- Node39 -->
<g id="node39" class="node"><title>Node39</title>
<g id="a_node39"><a xlink:href="../../d1/d68/FunctionUtilities_8h.html" target="_top" xlink:title="Declaration file of the FunctionProperties class. ">
<polygon fill="white" stroke="black" points="776,-375 776,-394 920,-394 920,-375 776,-375"/>
<text text-anchor="middle" x="848" y="-382" font-family="Helvetica,sans-Serif" font-size="10.00">ocra/optim/FunctionUtilities.h</text>
</a>
</g>
</g>
<!-- Node1&#45;&gt;Node39 -->
<g id="edge57" class="edge"><title>Node1&#45;&gt;Node39</title>
<path fill="none" stroke="midnightblue" d="M667.657,-492.319C701.265,-472.412 784.109,-423.343 824.753,-399.269"/>
<polygon fill="midnightblue" stroke="midnightblue" points="826.619,-402.232 833.439,-394.124 823.052,-396.209 826.619,-402.232"/>
</g>
<!-- Node3 -->
<g id="node3" class="node"><title>Node3</title>
<g id="a_node3"><a xlink:href="../../dc/d8a/LinearFunction_8h.html" target="_top" xlink:title="Declaration file of the LinearFunction class. ">
<polygon fill="white" stroke="black" points="598.5,-313.5 598.5,-332.5 735.5,-332.5 735.5,-313.5 598.5,-313.5"/>
<text text-anchor="middle" x="667" y="-320.5" font-family="Helvetica,sans-Serif" font-size="10.00">ocra/optim/LinearFunction.h</text>
</a>
</g>
</g>
<!-- Node2&#45;&gt;Node3 -->
<g id="edge2" class="edge"><title>Node2&#45;&gt;Node3</title>
<path fill="none" stroke="midnightblue" d="M640.503,-436.302C630.126,-428.251 616.113,-415.245 610,-400 604.872,-387.212 603.992,-381.399 610,-369 616.397,-355.8 628.752,-345.303 640.329,-337.779"/>
<polygon fill="midnightblue" stroke="midnightblue" points="642.155,-340.765 648.918,-332.61 638.546,-334.768 642.155,-340.765"/>
</g>
<!-- Node38 -->
<g id="node38" class="node"><title>Node38</title>
<g id="a_node38"><a xlink:href="../../dc/d6f/DiagonalLinearFunction_8h.html" target="_top" xlink:title="Declaration file of the DiagonalLinearFunction class. ">
<polygon fill="white" stroke="black" points="619,-369.5 619,-399.5 749,-399.5 749,-369.5 619,-369.5"/>
<text text-anchor="start" x="627" y="-387.5" font-family="Helvetica,sans-Serif" font-size="10.00">ocra/optim/DiagonalLinear</text>
<text text-anchor="middle" x="684" y="-376.5" font-family="Helvetica,sans-Serif" font-size="10.00">Function.h</text>
</a>
</g>
</g>
<!-- Node2&#45;&gt;Node38 -->
<g id="edge55" class="edge"><title>Node2&#45;&gt;Node38</title>
<path fill="none" stroke="midnightblue" d="M657.442,-436.475C661.248,-429.17 666.91,-418.302 672.03,-408.475"/>
<polygon fill="midnightblue" stroke="midnightblue" points="675.177,-410.009 676.694,-399.523 668.969,-406.774 675.177,-410.009"/>
</g>
<!-- Node4 -->
<g id="node4" class="node"><title>Node4</title>
<g id="a_node4"><a xlink:href="../../df/df5/Function_8h.html" target="_top" xlink:title="Declaration file of the Function class. ">
<polygon fill="white" stroke="black" points="839.5,-257.5 839.5,-276.5 950.5,-276.5 950.5,-257.5 839.5,-257.5"/>
<text text-anchor="middle" x="895" y="-264.5" font-family="Helvetica,sans-Serif" font-size="10.00">ocra/optim/Function.h</text>
</a>
</g>
</g>
<!-- Node3&#45;&gt;Node4 -->
<g id="edge3" class="edge"><title>Node3&#45;&gt;Node4</title>
<path fill="none" stroke="midnightblue" d="M703.127,-313.444C742.651,-304.083 806.097,-289.056 849.113,-278.868"/>
<polygon fill="midnightblue" stroke="midnightblue" points="850.118,-282.227 859.042,-276.516 848.504,-275.415 850.118,-282.227"/>
</g>
<!-- Node36 -->
<g id="node36" class="node"><title>Node36</title>
<g id="a_node36"><a xlink:href="../../df/d0a/Macros_8h.html" target="_top" xlink:title="ocra/util/Macros.h">
<polygon fill="white" stroke="black" points="600.5,-257.5 600.5,-276.5 695.5,-276.5 695.5,-257.5 600.5,-257.5"/>
<text text-anchor="middle" x="648" y="-264.5" font-family="Helvetica,sans-Serif" font-size="10.00">ocra/util/Macros.h</text>
</a>
</g>
</g>
<!-- Node3&#45;&gt;Node36 -->
<g id="edge53" class="edge"><title>Node3&#45;&gt;Node36</title>
<path fill="none" stroke="midnightblue" d="M663.863,-313.083C661.317,-305.849 657.644,-295.409 654.473,-286.397"/>
<polygon fill="midnightblue" stroke="midnightblue" points="657.7,-285.023 651.079,-276.751 651.097,-287.346 657.7,-285.023"/>
</g>
<!-- Node5 -->
<g id="node5" class="node"><title>Node5</title>
<g id="a_node5"><a xlink:href="../../de/d94/IFunction_8h.html" target="_top" xlink:title="Declaration file of the IFunction interface. ">
<polygon fill="white" stroke="black" points="1306,-134.5 1306,-153.5 1420,-153.5 1420,-134.5 1306,-134.5"/>
<text text-anchor="middle" x="1363" y="-141.5" font-family="Helvetica,sans-Serif" font-size="10.00">ocra/optim/IFunction.h</text>
</a>
</g>
</g>
<!-- Node4&#45;&gt;Node5 -->
<g id="edge4" class="edge"><title>Node4&#45;&gt;Node5</title>
<path fill="none" stroke="midnightblue" d="M950.663,-265.483C1081.12,-263.695 1398.02,-255.78 1430,-221 1439.33,-210.858 1436.48,-202.159 1430,-190 1422.45,-175.834 1408.24,-165.335 1394.84,-158.058"/>
<polygon fill="midnightblue" stroke="midnightblue" points="1396.3,-154.872 1385.79,-153.529 1393.17,-161.133 1396.3,-154.872"/>
</g>
<!-- Node14 -->
<g id="node14" class="node"><title>Node14</title>
<g id="a_node14"><a xlink:href="../../d9/d54/IFunctionProperties_8h.html" target="_top" xlink:title="ocra/optim/IFunctionProperties.h">
<polygon fill="white" stroke="black" points="1129,-196 1129,-215 1287,-215 1287,-196 1129,-196"/>
<text text-anchor="middle" x="1208" y="-203" font-family="Helvetica,sans-Serif" font-size="10.00">ocra/optim/IFunctionProperties.h</text>
</a>
</g>
</g>
<!-- Node4&#45;&gt;Node14 -->
<g id="edge13" class="edge"><title>Node4&#45;&gt;Node14</title>
<path fill="none" stroke="midnightblue" d="M939.845,-257.475C996.093,-246.783 1092.49,-228.458 1153.09,-216.937"/>
<polygon fill="midnightblue" stroke="midnightblue" points="1154.07,-220.315 1163.24,-215.009 1152.76,-213.438 1154.07,-220.315"/>
</g>
<!-- Node16 -->
<g id="node16" class="node"><title>Node16</title>
<g id="a_node16"><a xlink:href="../../db/d47/AbilitySet_8h.html" target="_top" xlink:title="ocra/optim/AbilitySet.h">
<polygon fill="white" stroke="black" points="1305,-196 1305,-215 1421,-215 1421,-196 1305,-196"/>
<text text-anchor="middle" x="1363" y="-203" font-family="Helvetica,sans-Serif" font-size="10.00">ocra/optim/AbilitySet.h</text>
</a>
</g>
</g>
<!-- Node4&#45;&gt;Node16 -->
<g id="edge16" class="edge"><title>Node4&#45;&gt;Node16</title>
<path fill="none" stroke="midnightblue" d="M950.706,-261.546C1028.37,-254.928 1173.46,-241.082 1296,-221 1302.79,-219.888 1309.92,-218.539 1316.9,-217.117"/>
<polygon fill="midnightblue" stroke="midnightblue" points="1317.9,-220.484 1326.97,-215 1316.46,-213.634 1317.9,-220.484"/>
</g>
<!-- Node17 -->
<g id="node17" class="node"><title>Node17</title>
<g id="a_node17"><a xlink:href="../../d1/d87/CoupledInputOutputSize_8h.html" target="_top" xlink:title="ocra/optim/CoupledInputOutput\lSize.h">
<polygon fill="white" stroke="black" points="670,-190.5 670,-220.5 822,-220.5 822,-190.5 670,-190.5"/>
<text text-anchor="start" x="678" y="-208.5" font-family="Helvetica,sans-Serif" font-size="10.00">ocra/optim/CoupledInputOutput</text>
<text text-anchor="middle" x="746" y="-197.5" font-family="Helvetica,sans-Serif" font-size="10.00">Size.h</text>
</a>
</g>
</g>
<!-- Node4&#45;&gt;Node17 -->
<g id="edge19" class="edge"><title>Node4&#45;&gt;Node17</title>
<path fill="none" stroke="midnightblue" d="M873.652,-257.475C852.057,-248.852 818.031,-235.264 790.538,-224.285"/>
<polygon fill="midnightblue" stroke="midnightblue" points="791.701,-220.981 781.116,-220.523 789.105,-227.482 791.701,-220.981"/>
</g>
<!-- Node18 -->
<g id="node18" class="node"><title>Node18</title>
<g id="a_node18"><a xlink:href="../../d7/d90/Variable_8h.html" target="_top" xlink:title="Declaration file of the Variable class. ">
<polygon fill="white" stroke="black" points="840.5,-196 840.5,-215 949.5,-215 949.5,-196 840.5,-196"/>
<text text-anchor="middle" x="895" y="-203" font-family="Helvetica,sans-Serif" font-size="10.00">ocra/optim/Variable.h</text>
</a>
</g>
</g>
<!-- Node4&#45;&gt;Node18 -->
<g id="edge20" class="edge"><title>Node4&#45;&gt;Node18</title>
<path fill="none" stroke="midnightblue" d="M895,-257.475C895,-249.08 895,-235.981 895,-225.163"/>
<polygon fill="midnightblue" stroke="midnightblue" points="898.5,-225.009 895,-215.009 891.5,-225.009 898.5,-225.009"/>
</g>
<!-- Node19 -->
<g id="node19" class="node"><title>Node19</title>
<g id="a_node19"><a xlink:href="../../d8/ddc/ObserverSubject_8h.html" target="_top" xlink:title="Declaration file of the Observer, Subject and ObserverSubject classes. ">
<polygon fill="white" stroke="black" points="370,-134.5 370,-153.5 516,-153.5 516,-134.5 370,-134.5"/>
<text text-anchor="middle" x="443" y="-141.5" font-family="Helvetica,sans-Serif" font-size="10.00">ocra/optim/ObserverSubject.h</text>
</a>
</g>
</g>
<!-- Node4&#45;&gt;Node19 -->
<g id="edge50" class="edge"><title>Node4&#45;&gt;Node19</title>
<path fill="none" stroke="midnightblue" d="M839.209,-262.978C790.254,-258.565 718.156,-247.709 661,-221 641.254,-211.773 642.485,-199.767 623,-190 589.321,-173.119 548.845,-162.27 514.813,-155.465"/>
<polygon fill="midnightblue" stroke="midnightblue" points="515.417,-152.017 504.936,-153.566 514.095,-158.891 515.417,-152.017"/>
</g>
<!-- Node35 -->
<g id="node35" class="node"><title>Node35</title>
<g id="a_node35"><a xlink:href="../../df/d97/NamedInstance_8h.html" target="_top" xlink:title="ocra/optim/NamedInstance.h">
<polygon fill="white" stroke="black" points="967.5,-196 967.5,-215 1110.5,-215 1110.5,-196 967.5,-196"/>
<text text-anchor="middle" x="1039" y="-203" font-family="Helvetica,sans-Serif" font-size="10.00">ocra/optim/NamedInstance.h</text>
</a>
</g>
</g>
<!-- Node4&#45;&gt;Node35 -->
<g id="edge51" class="edge"><title>Node4&#45;&gt;Node35</title>
<path fill="none" stroke="midnightblue" d="M915.632,-257.475C940.119,-247.357 981.147,-230.405 1009.11,-218.851"/>
<polygon fill="midnightblue" stroke="midnightblue" points="1010.5,-222.063 1018.41,-215.009 1007.83,-215.593 1010.5,-222.063"/>
</g>
<!-- Node6 -->
<g id="node6" class="node"><title>Node6</title>
<g id="a_node6"><a xlink:href="../../d5/d55/MathTypes_8h.html" target="_top" xlink:title="Declaration file of the OptimizationVariable class. ">
<polygon fill="white" stroke="black" points="1422.5,-73 1422.5,-92 1533.5,-92 1533.5,-73 1422.5,-73"/>
<text text-anchor="middle" x="1478" y="-80" font-family="Helvetica,sans-Serif" font-size="10.00">ocra/util/MathTypes.h</text>
</a>
</g>
</g>
<!-- Node5&#45;&gt;Node6 -->
<g id="edge5" class="edge"><title>Node5&#45;&gt;Node6</title>
<path fill="none" stroke="midnightblue" d="M1379.48,-134.475C1398.61,-124.578 1430.37,-108.142 1452.65,-96.6151"/>
<polygon fill="midnightblue" stroke="midnightblue" points="1454.28,-99.713 1461.55,-92.0091 1451.06,-93.4958 1454.28,-99.713"/>
</g>
<!-- Node9 -->
<g id="node9" class="node"><title>Node9</title>
<g id="a_node9"><a xlink:href="../../de/df3/ocra__assert_8h.html" target="_top" xlink:title="ocra/optim/ocra_assert.h">
<polygon fill="white" stroke="black" points="1206.5,-73 1206.5,-92 1331.5,-92 1331.5,-73 1206.5,-73"/>
<text text-anchor="middle" x="1269" y="-80" font-family="Helvetica,sans-Serif" font-size="10.00">ocra/optim/ocra_assert.h</text>
</a>
</g>
</g>
<!-- Node5&#45;&gt;Node9 -->
<g id="edge8" class="edge"><title>Node5&#45;&gt;Node9</title>
<path fill="none" stroke="midnightblue" d="M1349.53,-134.475C1334.32,-124.843 1309.31,-109.017 1291.2,-97.5517"/>
<polygon fill="midnightblue" stroke="midnightblue" points="1292.76,-94.4002 1282.44,-92.0091 1289.02,-100.315 1292.76,-94.4002"/>
</g>
<!-- Node11 -->
<g id="node11" class="node"><title>Node11</title>
<polygon fill="white" stroke="#bfbfbf" points="1350,-73 1350,-92 1404,-92 1404,-73 1350,-73"/>
<text text-anchor="middle" x="1377" y="-80" font-family="Helvetica,sans-Serif" font-size="10.00">iostream</text>
</g>
<!-- Node5&#45;&gt;Node11 -->
<g id="edge10" class="edge"><title>Node5&#45;&gt;Node11</title>
<path fill="none" stroke="midnightblue" d="M1365.01,-134.475C1367,-125.992 1370.13,-112.704 1372.69,-101.822"/>
<polygon fill="midnightblue" stroke="midnightblue" points="1376.11,-102.545 1375,-92.0091 1369.3,-100.942 1376.11,-102.545"/>
</g>
<!-- Node12 -->
<g id="node12" class="node"><title>Node12</title>
<polygon fill="white" stroke="#bfbfbf" points="1145,-73 1145,-92 1189,-92 1189,-73 1145,-73"/>
<text text-anchor="middle" x="1167" y="-80" font-family="Helvetica,sans-Serif" font-size="10.00">vector</text>
</g>
<!-- Node5&#45;&gt;Node12 -->
<g id="edge11" class="edge"><title>Node5&#45;&gt;Node12</title>
<path fill="none" stroke="midnightblue" d="M1323.45,-134.461C1289.4,-126.598 1239.24,-113.777 1197,-98 1195.58,-97.4687 1194.13,-96.8938 1192.68,-96.29"/>
<polygon fill="midnightblue" stroke="midnightblue" points="1193.82,-92.9638 1183.27,-92.0384 1190.94,-99.3436 1193.82,-92.9638"/>
</g>
<!-- Node5&#45;&gt;Node13 -->
<g id="edge12" class="edge"><title>Node5&#45;&gt;Node13</title>
<path fill="none" stroke="midnightblue" d="M1306.9,-134.455C1260.6,-126.788 1193.41,-114.249 1136,-98 1133.35,-97.2512 1130.63,-96.4045 1127.92,-95.5056"/>
<polygon fill="midnightblue" stroke="midnightblue" points="1128.85,-92.1221 1118.25,-92.1031 1126.52,-98.725 1128.85,-92.1221"/>
</g>
<!-- Node7 -->
<g id="node7" class="node"><title>Node7</title>
<polygon fill="white" stroke="#bfbfbf" points="1402.5,-6 1402.5,-25 1475.5,-25 1475.5,-6 1402.5,-6"/>
<text text-anchor="middle" x="1439" y="-13" font-family="Helvetica,sans-Serif" font-size="10.00">Eigen/Dense</text>
</g>
<!-- Node6&#45;&gt;Node7 -->
<g id="edge6" class="edge"><title>Node6&#45;&gt;Node7</title>
<path fill="none" stroke="midnightblue" d="M1472.74,-72.7338C1466.78,-62.7928 1456.9,-46.3377 1449.37,-33.7892"/>
<polygon fill="midnightblue" stroke="midnightblue" points="1452.32,-31.9015 1444.18,-25.1273 1446.32,-35.503 1452.32,-31.9015"/>
</g>
<!-- Node8 -->
<g id="node8" class="node"><title>Node8</title>
<polygon fill="white" stroke="#bfbfbf" points="1494,-6 1494,-25 1538,-25 1538,-6 1494,-6"/>
<text text-anchor="middle" x="1516" y="-13" font-family="Helvetica,sans-Serif" font-size="10.00">cmath</text>
</g>
<!-- Node6&#45;&gt;Node8 -->
<g id="edge7" class="edge"><title>Node6&#45;&gt;Node8</title>
<path fill="none" stroke="midnightblue" d="M1483.12,-72.7338C1488.94,-62.7928 1498.56,-46.3377 1505.89,-33.7892"/>
<polygon fill="midnightblue" stroke="midnightblue" points="1508.93,-35.5267 1510.96,-25.1273 1502.89,-31.9938 1508.93,-35.5267"/>
</g>
<!-- Node10 -->
<g id="node10" class="node"><title>Node10</title>
<polygon fill="white" stroke="#bfbfbf" points="1247.5,-6 1247.5,-25 1290.5,-25 1290.5,-6 1247.5,-6"/>
<text text-anchor="middle" x="1269" y="-13" font-family="Helvetica,sans-Serif" font-size="10.00">cstdio</text>
</g>
<!-- Node9&#45;&gt;Node10 -->
<g id="edge9" class="edge"><title>Node9&#45;&gt;Node10</title>
<path fill="none" stroke="midnightblue" d="M1269,-72.7338C1269,-63.1826 1269,-47.6183 1269,-35.2829"/>
<polygon fill="midnightblue" stroke="midnightblue" points="1272.5,-35.1273 1269,-25.1273 1265.5,-35.1273 1272.5,-35.1273"/>
</g>
<!-- Node14&#45;&gt;Node12 -->
<g id="edge15" class="edge"><title>Node14&#45;&gt;Node12</title>
<path fill="none" stroke="midnightblue" d="M1205.05,-195.798C1198.4,-176.176 1182.13,-128.138 1173.16,-101.693"/>
<polygon fill="midnightblue" stroke="midnightblue" points="1176.45,-100.471 1169.92,-92.1232 1169.82,-102.717 1176.45,-100.471"/>
</g>
<!-- Node15 -->
<g id="node15" class="node"><title>Node15</title>
<polygon fill="white" stroke="#bfbfbf" points="1033.5,-134.5 1033.5,-153.5 1074.5,-153.5 1074.5,-134.5 1033.5,-134.5"/>
<text text-anchor="middle" x="1054" y="-141.5" font-family="Helvetica,sans-Serif" font-size="10.00">string</text>
</g>
<!-- Node14&#45;&gt;Node15 -->
<g id="edge14" class="edge"><title>Node14&#45;&gt;Node15</title>
<path fill="none" stroke="midnightblue" d="M1185.94,-195.975C1159.19,-185.64 1113.98,-168.173 1084.06,-156.613"/>
<polygon fill="midnightblue" stroke="midnightblue" points="1085.14,-153.278 1074.55,-152.939 1082.61,-159.807 1085.14,-153.278"/>
</g>
<!-- Node16&#45;&gt;Node5 -->
<g id="edge17" class="edge"><title>Node16&#45;&gt;Node5</title>
<path fill="none" stroke="midnightblue" d="M1363,-195.975C1363,-187.58 1363,-174.481 1363,-163.663"/>
<polygon fill="midnightblue" stroke="midnightblue" points="1366.5,-163.509 1363,-153.509 1359.5,-163.509 1366.5,-163.509"/>
</g>
<!-- Node16&#45;&gt;Node12 -->
<g id="edge18" class="edge"><title>Node16&#45;&gt;Node12</title>
<path fill="none" stroke="midnightblue" d="M1349.22,-195.992C1315.91,-175.43 1230.78,-122.875 1189.77,-97.5544"/>
<polygon fill="midnightblue" stroke="midnightblue" points="1191.38,-94.436 1181.03,-92.161 1187.7,-100.392 1191.38,-94.436"/>
</g>
<!-- Node18&#45;&gt;Node12 -->
<g id="edge49" class="edge"><title>Node18&#45;&gt;Node12</title>
<path fill="none" stroke="midnightblue" d="M910.558,-195.785C942.288,-178.042 1012.46,-138.975 1024,-134 1071.63,-113.475 1086.64,-116.732 1135,-98 1136.42,-97.4493 1137.87,-96.8678 1139.33,-96.2669"/>
<polygon fill="midnightblue" stroke="midnightblue" points="1141.09,-99.3207 1148.87,-92.138 1138.31,-92.8961 1141.09,-99.3207"/>
</g>
<!-- Node18&#45;&gt;Node15 -->
<g id="edge48" class="edge"><title>Node18&#45;&gt;Node15</title>
<path fill="none" stroke="midnightblue" d="M917.781,-195.975C945.675,-185.537 993.007,-167.824 1023.88,-156.27"/>
<polygon fill="midnightblue" stroke="midnightblue" points="1025.15,-159.535 1033.28,-152.752 1022.69,-152.979 1025.15,-159.535"/>
</g>
<!-- Node18&#45;&gt;Node19 -->
<g id="edge21" class="edge"><title>Node18&#45;&gt;Node19</title>
<path fill="none" stroke="midnightblue" d="M860.592,-195.992C851.05,-193.827 840.658,-191.649 831,-190 726.724,-172.194 605.46,-159.379 526.63,-152.084"/>
<polygon fill="midnightblue" stroke="midnightblue" points="526.552,-148.562 516.274,-151.135 525.913,-155.533 526.552,-148.562"/>
</g>
<!-- Node30 -->
<g id="node30" class="node"><title>Node30</title>
<g id="a_node30"><a xlink:href="../../d1/de6/Composite_8h.html" target="_top" xlink:title="Utility classes and functions to implement the Composite design pattern. ">
<polygon fill="white" stroke="black" points="662.5,-134.5 662.5,-153.5 783.5,-153.5 783.5,-134.5 662.5,-134.5"/>
<text text-anchor="middle" x="723" y="-141.5" font-family="Helvetica,sans-Serif" font-size="10.00">ocra/optim/Composite.h</text>
</a>
</g>
</g>
<!-- Node18&#45;&gt;Node30 -->
<g id="edge35" class="edge"><title>Node18&#45;&gt;Node30</title>
<path fill="none" stroke="midnightblue" d="M870.357,-195.975C840.725,-185.725 790.815,-168.459 757.398,-156.899"/>
<polygon fill="midnightblue" stroke="midnightblue" points="758.192,-153.471 747.598,-153.509 755.904,-160.086 758.192,-153.471"/>
</g>
<!-- Node31 -->
<g id="node31" class="node"><title>Node31</title>
<polygon fill="white" stroke="#bfbfbf" points="932.5,-73 932.5,-92 1049.5,-92 1049.5,-73 932.5,-73"/>
<text text-anchor="middle" x="991" y="-80" font-family="Helvetica,sans-Serif" font-size="10.00">boost/noncopyable.hpp</text>
</g>
<!-- Node18&#45;&gt;Node31 -->
<g id="edge47" class="edge"><title>Node18&#45;&gt;Node31</title>
<path fill="none" stroke="midnightblue" d="M892.844,-195.905C889.819,-181.788 885.936,-153.331 898,-134 909.483,-115.599 930.153,-103.43 949.094,-95.6586"/>
<polygon fill="midnightblue" stroke="midnightblue" points="950.389,-98.9108 958.494,-92.0872 947.903,-92.3672 950.389,-98.9108"/>
</g>
<!-- Node34 -->
<g id="node34" class="node"><title>Node34</title>
<polygon fill="white" stroke="#bfbfbf" points="907.5,-134.5 907.5,-153.5 976.5,-153.5 976.5,-134.5 907.5,-134.5"/>
<text text-anchor="middle" x="942" y="-141.5" font-family="Helvetica,sans-Serif" font-size="10.00">Eigen/Eigen</text>
</g>
<!-- Node18&#45;&gt;Node34 -->
<g id="edge46" class="edge"><title>Node18&#45;&gt;Node34</title>
<path fill="none" stroke="midnightblue" d="M901.734,-195.975C908.784,-187.05 920.035,-172.807 928.854,-161.643"/>
<polygon fill="midnightblue" stroke="midnightblue" points="931.826,-163.526 935.279,-153.509 926.333,-159.187 931.826,-163.526"/>
</g>
<!-- Node20 -->
<g id="node20" class="node"><title>Node20</title>
<g id="a_node20"><a xlink:href="../../df/d67/ObserverSubjectBase_8h.html" target="_top" xlink:title="Declaration file of the Observer and Subject base classes. ">
<polygon fill="white" stroke="black" points="258,-67.5 258,-97.5 396,-97.5 396,-67.5 258,-67.5"/>
<text text-anchor="start" x="266" y="-85.5" font-family="Helvetica,sans-Serif" font-size="10.00">ocra/optim/ObserverSubject</text>
<text text-anchor="middle" x="327" y="-74.5" font-family="Helvetica,sans-Serif" font-size="10.00">Base.h</text>
</a>
</g>
</g>
<!-- Node19&#45;&gt;Node20 -->
<g id="edge22" class="edge"><title>Node19&#45;&gt;Node20</title>
<path fill="none" stroke="midnightblue" d="M426.38,-134.475C410.009,-126.078 384.459,-112.973 363.366,-102.153"/>
<polygon fill="midnightblue" stroke="midnightblue" points="364.834,-98.9727 354.339,-97.523 361.639,-105.201 364.834,-98.9727"/>
</g>
<!-- Node24 -->
<g id="node24" class="node"><title>Node24</title>
<polygon fill="white" stroke="#bfbfbf" points="0,-0.5 0,-30.5 100,-30.5 100,-0.5 0,-0.5"/>
<text text-anchor="start" x="8" y="-18.5" font-family="Helvetica,sans-Serif" font-size="10.00">boost/type_traits/is</text>
<text text-anchor="middle" x="50" y="-7.5" font-family="Helvetica,sans-Serif" font-size="10.00">_class.hpp</text>
</g>
<!-- Node19&#45;&gt;Node24 -->
<g id="edge34" class="edge"><title>Node19&#45;&gt;Node24</title>
<path fill="none" stroke="midnightblue" d="M369.681,-140.396C283.293,-136.119 146.054,-125.167 103,-98 81.705,-84.563 67.2304,-59.1087 58.8589,-40.207"/>
<polygon fill="midnightblue" stroke="midnightblue" points="62.002,-38.6497 54.9325,-30.7585 55.5379,-41.336 62.002,-38.6497"/>
</g>
<!-- Node25 -->
<g id="node25" class="node"><title>Node25</title>
<polygon fill="white" stroke="#bfbfbf" points="548,-0.5 548,-30.5 648,-30.5 648,-0.5 548,-0.5"/>
<text text-anchor="start" x="556" y="-18.5" font-family="Helvetica,sans-Serif" font-size="10.00">boost/type_traits/is</text>
<text text-anchor="middle" x="598" y="-7.5" font-family="Helvetica,sans-Serif" font-size="10.00">_base_of.hpp</text>
</g>
<!-- Node19&#45;&gt;Node25 -->
<g id="edge32" class="edge"><title>Node19&#45;&gt;Node25</title>
<path fill="none" stroke="midnightblue" d="M445.214,-134.29C449.566,-118.792 460.632,-86.2547 481,-67 497.03,-51.8459 518.322,-40.8355 538.346,-33.04"/>
<polygon fill="midnightblue" stroke="midnightblue" points="539.568,-36.3199 547.738,-29.5744 537.144,-29.7527 539.568,-36.3199"/>
</g>
<!-- Node26 -->
<g id="node26" class="node"><title>Node26</title>
<polygon fill="white" stroke="#bfbfbf" points="410.5,-6 410.5,-25 529.5,-25 529.5,-6 410.5,-6"/>
<text text-anchor="middle" x="470" y="-13" font-family="Helvetica,sans-Serif" font-size="10.00">boost/static_assert.hpp</text>
</g>
<!-- Node19&#45;&gt;Node26 -->
<g id="edge31" class="edge"><title>Node19&#45;&gt;Node26</title>
<path fill="none" stroke="midnightblue" d="M442.615,-134.421C442.186,-120.19 442.195,-90.8998 448,-67 450.752,-55.6712 455.871,-43.6804 460.48,-34.2269"/>
<polygon fill="midnightblue" stroke="midnightblue" points="463.703,-35.6126 465.144,-25.1163 457.471,-32.4228 463.703,-35.6126"/>
</g>
<!-- Node28 -->
<g id="node28" class="node"><title>Node28</title>
<g id="a_node28"><a xlink:href="../../db/ddf/ocra__events_8h.html" target="_top" xlink:title="ocra/optim/ocra_events.h">
<polygon fill="white" stroke="black" points="112.5,-73 112.5,-92 239.5,-92 239.5,-73 112.5,-73"/>
<text text-anchor="middle" x="176" y="-80" font-family="Helvetica,sans-Serif" font-size="10.00">ocra/optim/ocra_events.h</text>
</a>
</g>
</g>
<!-- Node19&#45;&gt;Node28 -->
<g id="edge30" class="edge"><title>Node19&#45;&gt;Node28</title>
<path fill="none" stroke="midnightblue" d="M404.745,-134.475C357.161,-123.871 275.89,-105.76 224.125,-94.2244"/>
<polygon fill="midnightblue" stroke="midnightblue" points="224.706,-90.7681 214.184,-92.0091 223.183,-97.6005 224.706,-90.7681"/>
</g>
<!-- Node29 -->
<g id="node29" class="node"><title>Node29</title>
<polygon fill="white" stroke="#bfbfbf" points="490,-67.5 490,-97.5 590,-97.5 590,-67.5 490,-67.5"/>
<text text-anchor="start" x="498" y="-85.5" font-family="Helvetica,sans-Serif" font-size="10.00">boost/type_traits/is</text>
<text text-anchor="middle" x="540" y="-74.5" font-family="Helvetica,sans-Serif" font-size="10.00">_convertible.hpp</text>
</g>
<!-- Node19&#45;&gt;Node29 -->
<g id="edge33" class="edge"><title>Node19&#45;&gt;Node29</title>
<path fill="none" stroke="midnightblue" d="M456.898,-134.475C470.281,-126.266 490.998,-113.558 508.398,-102.885"/>
<polygon fill="midnightblue" stroke="midnightblue" points="510.445,-105.735 517.139,-97.523 506.785,-99.7683 510.445,-105.735"/>
</g>
<!-- Node21 -->
<g id="node21" class="node"><title>Node21</title>
<polygon fill="white" stroke="#bfbfbf" points="118.5,-6 118.5,-25 177.5,-25 177.5,-6 118.5,-6"/>
<text text-anchor="middle" x="148" y="-13" font-family="Helvetica,sans-Serif" font-size="10.00">functional</text>
</g>
<!-- Node20&#45;&gt;Node21 -->
<g id="edge23" class="edge"><title>Node20&#45;&gt;Node21</title>
<path fill="none" stroke="midnightblue" d="M287.738,-67.4532C259.653,-57.3772 220.967,-43.4404 187,-31 184.906,-30.233 182.749,-29.4401 180.576,-28.6387"/>
<polygon fill="midnightblue" stroke="midnightblue" points="181.676,-25.3139 171.083,-25.1247 179.246,-31.8785 181.676,-25.3139"/>
</g>
<!-- Node22 -->
<g id="node22" class="node"><title>Node22</title>
<polygon fill="white" stroke="#bfbfbf" points="666,-6 666,-25 722,-25 722,-6 666,-6"/>
<text text-anchor="middle" x="694" y="-13" font-family="Helvetica,sans-Serif" font-size="10.00">algorithm</text>
</g>
<!-- Node20&#45;&gt;Node22 -->
<g id="edge24" class="edge"><title>Node20&#45;&gt;Node22</title>
<path fill="none" stroke="midnightblue" d="M396.176,-75.4184C463.589,-68.442 568.566,-54.7787 657,-31 659.657,-30.2856 662.383,-29.442 665.094,-28.5268"/>
<polygon fill="midnightblue" stroke="midnightblue" points="666.507,-31.7364 674.685,-25.001 664.092,-25.1662 666.507,-31.7364"/>
</g>
<!-- Node23 -->
<g id="node23" class="node"><title>Node23</title>
<polygon fill="white" stroke="#bfbfbf" points="196,-6 196,-25 274,-25 274,-6 196,-6"/>
<text text-anchor="middle" x="235" y="-13" font-family="Helvetica,sans-Serif" font-size="10.00">boost/any.hpp</text>
</g>
<!-- Node20&#45;&gt;Node23 -->
<g id="edge25" class="edge"><title>Node20&#45;&gt;Node23</title>
<path fill="none" stroke="midnightblue" d="M307.037,-67.396C291.752,-56.5966 270.748,-41.7564 255.363,-30.8872"/>
<polygon fill="midnightblue" stroke="midnightblue" points="257.228,-27.9188 247.041,-25.007 253.188,-33.6359 257.228,-27.9188"/>
</g>
<!-- Node20&#45;&gt;Node24 -->
<g id="edge26" class="edge"><title>Node20&#45;&gt;Node24</title>
<path fill="none" stroke="midnightblue" d="M265.401,-67.4611C224.1,-57.9952 168.227,-45.0876 110.277,-31.2891"/>
<polygon fill="midnightblue" stroke="midnightblue" points="110.74,-27.8014 100.201,-28.8858 109.116,-34.6105 110.74,-27.8014"/>
</g>
<!-- Node20&#45;&gt;Node25 -->
<g id="edge27" class="edge"><title>Node20&#45;&gt;Node25</title>
<path fill="none" stroke="midnightblue" d="M385.674,-67.4939C428.015,-57.3776 486.546,-43.3748 538,-31 538.101,-30.9757 538.202,-30.9514 538.303,-30.9271"/>
<polygon fill="midnightblue" stroke="midnightblue" points="539.009,-34.3572 547.912,-28.6134 537.37,-27.5518 539.009,-34.3572"/>
</g>
<!-- Node20&#45;&gt;Node26 -->
<g id="edge28" class="edge"><title>Node20&#45;&gt;Node26</title>
<path fill="none" stroke="midnightblue" d="M358.029,-67.396C383.009,-56.0414 417.816,-40.2201 441.964,-29.2437"/>
<polygon fill="midnightblue" stroke="midnightblue" points="443.629,-32.3314 451.285,-25.007 440.733,-25.9588 443.629,-32.3314"/>
</g>
<!-- Node27 -->
<g id="node27" class="node"><title>Node27</title>
<polygon fill="white" stroke="#bfbfbf" points="292,-0.5 292,-30.5 392,-30.5 392,-0.5 292,-0.5"/>
<text text-anchor="start" x="300" y="-18.5" font-family="Helvetica,sans-Serif" font-size="10.00">boost/ptr_container</text>
<text text-anchor="middle" x="342" y="-7.5" font-family="Helvetica,sans-Serif" font-size="10.00">/ptr_vector.hpp</text>
</g>
<!-- Node20&#45;&gt;Node27 -->
<g id="edge29" class="edge"><title>Node20&#45;&gt;Node27</title>
<path fill="none" stroke="midnightblue" d="M330.255,-67.396C332.063,-59.5597 334.363,-49.5958 336.446,-40.5653"/>
<polygon fill="midnightblue" stroke="midnightblue" points="339.913,-41.1075 338.752,-30.5765 333.093,-39.5334 339.913,-41.1075"/>
</g>
<!-- Node30&#45;&gt;Node9 -->
<g id="edge36" class="edge"><title>Node30&#45;&gt;Node9</title>
<path fill="none" stroke="midnightblue" d="M783.611,-139.343C874.147,-133.409 1049.91,-120.072 1198,-98 1205.53,-96.8781 1213.46,-95.4768 1221.19,-93.9907"/>
<polygon fill="midnightblue" stroke="midnightblue" points="1222.05,-97.3874 1231.18,-92.0047 1220.69,-90.5218 1222.05,-97.3874"/>
</g>
<!-- Node30&#45;&gt;Node12 -->
<g id="edge42" class="edge"><title>Node30&#45;&gt;Node12</title>
<path fill="none" stroke="midnightblue" d="M783.695,-138.738C881.705,-131.457 1070.37,-115.687 1135,-98 1137.15,-97.4114 1139.34,-96.6951 1141.51,-95.8997"/>
<polygon fill="midnightblue" stroke="midnightblue" points="1142.87,-99.1253 1150.76,-92.0559 1140.19,-92.6612 1142.87,-99.1253"/>
</g>
<!-- Node30&#45;&gt;Node13 -->
<g id="edge45" class="edge"><title>Node30&#45;&gt;Node13</title>
<path fill="none" stroke="midnightblue" d="M783.563,-135.606C872.833,-124.595 1032.02,-104.487 1058,-98 1060.99,-97.2539 1064.06,-96.3543 1067.11,-95.3729"/>
<polygon fill="midnightblue" stroke="midnightblue" points="1068.34,-98.6508 1076.63,-92.0477 1066.03,-92.0426 1068.34,-98.6508"/>
</g>
<!-- Node30&#45;&gt;Node22 -->
<g id="edge43" class="edge"><title>Node30&#45;&gt;Node22</title>
<path fill="none" stroke="midnightblue" d="M721.007,-134.305C716.35,-113.994 704.672,-63.0532 698.305,-35.2768"/>
<polygon fill="midnightblue" stroke="midnightblue" points="701.653,-34.2207 696.007,-25.2557 694.83,-35.785 701.653,-34.2207"/>
</g>
<!-- Node30&#45;&gt;Node25 -->
<g id="edge39" class="edge"><title>Node30&#45;&gt;Node25</title>
<path fill="none" stroke="midnightblue" d="M714.408,-134.305C695.048,-114.712 647.523,-66.6176 619.549,-38.308"/>
<polygon fill="midnightblue" stroke="midnightblue" points="621.736,-35.5411 612.217,-30.888 616.757,-40.4612 621.736,-35.5411"/>
</g>
<!-- Node30&#45;&gt;Node26 -->
<g id="edge38" class="edge"><title>Node30&#45;&gt;Node26</title>
<path fill="none" stroke="midnightblue" d="M707.806,-134.444C692.17,-125.563 667.174,-111.157 646,-98 624.745,-84.7932 621.218,-78.5132 599,-67 568.704,-51.3005 532.368,-37.4919 505.991,-28.3002"/>
<polygon fill="midnightblue" stroke="midnightblue" points="506.997,-24.9453 496.403,-25.0092 504.725,-31.5662 506.997,-24.9453"/>
</g>
<!-- Node30&#45;&gt;Node29 -->
<g id="edge40" class="edge"><title>Node30&#45;&gt;Node29</title>
<path fill="none" stroke="midnightblue" d="M696.781,-134.475C669.795,-125.701 627.003,-111.788 592.939,-100.712"/>
<polygon fill="midnightblue" stroke="midnightblue" points="593.722,-97.2866 583.129,-97.523 591.557,-103.944 593.722,-97.2866"/>
</g>
<!-- Node30&#45;&gt;Node31 -->
<g id="edge37" class="edge"><title>Node30&#45;&gt;Node31</title>
<path fill="none" stroke="midnightblue" d="M761.398,-134.475C809.16,-123.871 890.736,-105.76 942.695,-94.2244"/>
<polygon fill="midnightblue" stroke="midnightblue" points="943.67,-97.5933 952.673,-92.0091 942.152,-90.7597 943.67,-97.5933"/>
</g>
<!-- Node32 -->
<g id="node32" class="node"><title>Node32</title>
<polygon fill="white" stroke="#bfbfbf" points="722.5,-67.5 722.5,-97.5 851.5,-97.5 851.5,-67.5 722.5,-67.5"/>
<text text-anchor="start" x="730.5" y="-85.5" font-family="Helvetica,sans-Serif" font-size="10.00">boost/type_traits/has</text>
<text text-anchor="middle" x="787" y="-74.5" font-family="Helvetica,sans-Serif" font-size="10.00">_nothrow_constructor.hpp</text>
</g>
<!-- Node30&#45;&gt;Node32 -->
<g id="edge41" class="edge"><title>Node30&#45;&gt;Node32</title>
<path fill="none" stroke="midnightblue" d="M732.17,-134.475C740.595,-126.643 753.425,-114.714 764.556,-104.366"/>
<polygon fill="midnightblue" stroke="midnightblue" points="766.976,-106.895 771.916,-97.523 762.209,-101.769 766.976,-106.895"/>
</g>
<!-- Node33 -->
<g id="node33" class="node"><title>Node33</title>
<polygon fill="white" stroke="#bfbfbf" points="869.5,-73 869.5,-92 914.5,-92 914.5,-73 869.5,-73"/>
<text text-anchor="middle" x="892" y="-80" font-family="Helvetica,sans-Serif" font-size="10.00">iosfwd</text>
</g>
<!-- Node30&#45;&gt;Node33 -->
<g id="edge44" class="edge"><title>Node30&#45;&gt;Node33</title>
<path fill="none" stroke="midnightblue" d="M751.92,-134.496C779.87,-126.045 823.258,-112.31 860,-98 861.421,-97.4466 862.869,-96.863 864.327,-96.2604"/>
<polygon fill="midnightblue" stroke="midnightblue" points="866.085,-99.3131 873.869,-92.1259 863.302,-92.8901 866.085,-99.3131"/>
</g>
<!-- Node35&#45;&gt;Node15 -->
<g id="edge52" class="edge"><title>Node35&#45;&gt;Node15</title>
<path fill="none" stroke="midnightblue" d="M1041.15,-195.975C1043.29,-187.492 1046.64,-174.204 1049.38,-163.322"/>
<polygon fill="midnightblue" stroke="midnightblue" points="1052.8,-164.061 1051.85,-153.509 1046.02,-162.35 1052.8,-164.061"/>
</g>
<!-- Node37 -->
<g id="node37" class="node"><title>Node37</title>
<polygon fill="white" stroke="#bfbfbf" points="562,-196 562,-215 614,-215 614,-196 562,-196"/>
<text text-anchor="middle" x="588" y="-203" font-family="Helvetica,sans-Serif" font-size="10.00">memory</text>
</g>
<!-- Node36&#45;&gt;Node37 -->
<g id="edge54" class="edge"><title>Node36&#45;&gt;Node37</title>
<path fill="none" stroke="midnightblue" d="M639.403,-257.475C630.136,-248.285 615.183,-233.456 603.788,-222.156"/>
<polygon fill="midnightblue" stroke="midnightblue" points="606.146,-219.565 596.581,-215.009 601.217,-224.536 606.146,-219.565"/>
</g>
<!-- Node38&#45;&gt;Node3 -->
<g id="edge56" class="edge"><title>Node38&#45;&gt;Node3</title>
<path fill="none" stroke="midnightblue" d="M679.971,-369.399C677.654,-361.288 674.716,-351.007 672.223,-342.281"/>
<polygon fill="midnightblue" stroke="midnightblue" points="675.586,-341.311 669.474,-332.658 668.856,-343.235 675.586,-341.311"/>
</g>
<!-- Node39&#45;&gt;Node4 -->
<g id="edge58" class="edge"><title>Node39&#45;&gt;Node4</title>
<path fill="none" stroke="midnightblue" d="M851.533,-374.819C859.154,-356.09 877.28,-311.546 887.556,-286.292"/>
<polygon fill="midnightblue" stroke="midnightblue" points="890.899,-287.364 891.426,-276.782 884.415,-284.725 890.899,-287.364"/>
</g>
</g>
</svg>
