<?xml version="1.0" encoding="UTF-8" standalone="no"?>
<!DOCTYPE svg PUBLIC "-//W3C//DTD SVG 1.1//EN"
 "http://www.w3.org/Graphics/SVG/1.1/DTD/svg11.dtd">
<!-- Generated by graphviz version 2.38.0 (20140413.2041)
 -->
<!-- Title: wocra::WocraController::Pimpl Pages: 1 -->
<svg width="1527pt" height="599pt"
 viewBox="0.00 0.00 1527.00 598.50" xmlns="http://www.w3.org/2000/svg" xmlns:xlink="http://www.w3.org/1999/xlink">
<g id="graph0" class="graph" transform="scale(1 1) rotate(0) translate(4 594.5)">
<title>wocra::WocraController::Pimpl</title>
<polygon fill="white" stroke="none" points="-4,4 -4,-594.5 1523,-594.5 1523,4 -4,4"/>
<!-- Node1 -->
<g id="node1" class="node"><title>Node1</title>
<polygon fill="#bfbfbf" stroke="black" points="1400,-100 1400,-130 1519,-130 1519,-100 1400,-100"/>
<text text-anchor="start" x="1408" y="-118" font-family="Helvetica,sans-Serif" font-size="10.00">wocra::WocraController</text>
<text text-anchor="middle" x="1459.5" y="-107" font-family="Helvetica,sans-Serif" font-size="10.00">::Pimpl</text>
</g>
<!-- Node2 -->
<g id="node2" class="node"><title>Node2</title>
<g id="a_node2"><a xlink:href="../../d9/d7e/classocra_1_1QuadraticFunction.html" target="_top" xlink:title="QuadraticFunction class. ">
<polygon fill="white" stroke="black" points="947,-183.5 947,-202.5 1068,-202.5 1068,-183.5 947,-183.5"/>
<text text-anchor="middle" x="1007.5" y="-190.5" font-family="Helvetica,sans-Serif" font-size="10.00">ocra::QuadraticFunction</text>
</a>
</g>
</g>
<!-- Node2&#45;&gt;Node1 -->
<g id="edge1" class="edge"><title>Node2&#45;&gt;Node1</title>
<path fill="none" stroke="#9a32cd" stroke-dasharray="5,2" d="M1077.98,-203.741C1155.16,-212.687 1282.05,-218.393 1382,-179 1408.26,-168.651 1432.09,-145.534 1445.94,-130.105"/>
<polygon fill="#9a32cd" stroke="#9a32cd" points="1078.24,-200.247 1067.89,-202.52 1077.4,-207.196 1078.24,-200.247"/>
<text text-anchor="middle" x="1183" y="-225" font-family="Helvetica,sans-Serif" font-size="10.00"> minDdqFunction</text>
<text text-anchor="middle" x="1183" y="-214" font-family="Helvetica,sans-Serif" font-size="10.00">minTauFunction</text>
</g>
<!-- Node26 -->
<g id="node26" class="node"><title>Node26</title>
<g id="a_node26"><a xlink:href="../../d3/d16/classocra_1_1FcQuadraticFunction.html" target="_top" xlink:title="ocra::FcQuadraticFunction">
<polygon fill="white" stroke="black" points="1117,-155.5 1117,-174.5 1249,-174.5 1249,-155.5 1117,-155.5"/>
<text text-anchor="middle" x="1183" y="-162.5" font-family="Helvetica,sans-Serif" font-size="10.00">ocra::FcQuadraticFunction</text>
</a>
</g>
</g>
<!-- Node2&#45;&gt;Node26 -->
<g id="edge28" class="edge"><title>Node2&#45;&gt;Node26</title>
<path fill="none" stroke="midnightblue" d="M1077.93,-181.795C1092.88,-179.382 1108.54,-176.855 1123.04,-174.515"/>
<polygon fill="midnightblue" stroke="midnightblue" points="1077.04,-178.394 1067.72,-183.442 1078.15,-185.304 1077.04,-178.394"/>
</g>
<!-- Node3 -->
<g id="node3" class="node"><title>Node3</title>
<g id="a_node3"><a xlink:href="../../d2/d99/classocra_1_1Function.html" target="_top" xlink:title="Function class. ">
<polygon fill="white" stroke="black" points="831,-313.5 831,-332.5 910,-332.5 910,-313.5 831,-313.5"/>
<text text-anchor="middle" x="870.5" y="-320.5" font-family="Helvetica,sans-Serif" font-size="10.00">ocra::Function</text>
</a>
</g>
</g>
<!-- Node3&#45;&gt;Node2 -->
<g id="edge2" class="edge"><title>Node3&#45;&gt;Node2</title>
<path fill="none" stroke="midnightblue" d="M888.96,-306.187C917.653,-278.556 973.864,-224.427 996.602,-202.531"/>
<polygon fill="midnightblue" stroke="midnightblue" points="886.422,-303.771 881.647,-313.229 891.278,-308.814 886.422,-303.771"/>
</g>
<!-- Node4 -->
<g id="node4" class="node"><title>Node4</title>
<g id="a_node4"><a xlink:href="../../d3/d16/classocra_1_1ObserverSubject.html" target="_top" xlink:title="ocra::ObserverSubject">
<polygon fill="white" stroke="black" points="388,-420.5 388,-439.5 502,-439.5 502,-420.5 388,-420.5"/>
<text text-anchor="middle" x="445" y="-427.5" font-family="Helvetica,sans-Serif" font-size="10.00">ocra::ObserverSubject</text>
</a>
</g>
</g>
<!-- Node4&#45;&gt;Node3 -->
<g id="edge3" class="edge"><title>Node4&#45;&gt;Node3</title>
<path fill="none" stroke="midnightblue" d="M512.326,-434.178C575.104,-436.062 671.199,-433.527 750,-408 797.23,-392.7 841.844,-351.39 860.423,-332.572"/>
<polygon fill="midnightblue" stroke="midnightblue" points="512.276,-430.674 502.16,-433.825 512.033,-437.67 512.276,-430.674"/>
</g>
<!-- Node20 -->
<g id="node20" class="node"><title>Node20</title>
<g id="a_node20"><a xlink:href="../../d2/dac/classocra_1_1Variable.html" target="_top" xlink:title="This class represents a variable in a mathematical sense. ">
<polygon fill="white" stroke="black" points="628,-461.5 628,-480.5 705,-480.5 705,-461.5 628,-461.5"/>
<text text-anchor="middle" x="666.5" y="-468.5" font-family="Helvetica,sans-Serif" font-size="10.00">ocra::Variable</text>
</a>
</g>
</g>
<!-- Node4&#45;&gt;Node20 -->
<g id="edge21" class="edge"><title>Node4&#45;&gt;Node20</title>
<path fill="none" stroke="midnightblue" d="M507.039,-441.401C545.801,-448.642 594.732,-457.781 627.891,-463.975"/>
<polygon fill="midnightblue" stroke="midnightblue" points="507.382,-437.905 496.909,-439.509 506.097,-444.786 507.382,-437.905"/>
</g>
<!-- Node5 -->
<g id="node5" class="node"><title>Node5</title>
<g id="a_node5"><a xlink:href="../../d2/d45/classocra_1_1Observer.html" target="_top" xlink:title="ocra::Observer">
<polygon fill="white" stroke="black" points="226,-491.5 226,-510.5 307,-510.5 307,-491.5 226,-491.5"/>
<text text-anchor="middle" x="266.5" y="-498.5" font-family="Helvetica,sans-Serif" font-size="10.00">ocra::Observer</text>
</a>
</g>
</g>
<!-- Node5&#45;&gt;Node4 -->
<g id="edge4" class="edge"><title>Node5&#45;&gt;Node4</title>
<path fill="none" stroke="midnightblue" d="M286.748,-485.055C301.529,-473.613 322.92,-458.732 344,-450 357.74,-444.309 373.23,-440.199 387.842,-437.246"/>
<polygon fill="midnightblue" stroke="midnightblue" points="284.513,-482.36 278.86,-491.321 288.867,-487.841 284.513,-482.36"/>
</g>
<!-- Node6 -->
<g id="node6" class="node"><title>Node6</title>
<g id="a_node6"><a xlink:href="../../d4/dee/classocra_1_1ObserverBase.html" target="_top" xlink:title="ocra::ObserverBase\l\&lt; EVT_RESIZE \&gt;">
<polygon fill="white" stroke="black" points="42.5,-560 42.5,-590 146.5,-590 146.5,-560 42.5,-560"/>
<text text-anchor="start" x="50.5" y="-578" font-family="Helvetica,sans-Serif" font-size="10.00">ocra::ObserverBase</text>
<text text-anchor="middle" x="94.5" y="-567" font-family="Helvetica,sans-Serif" font-size="10.00">&lt; EVT_RESIZE &gt;</text>
</a>
</g>
</g>
<!-- Node6&#45;&gt;Node5 -->
<g id="edge5" class="edge"><title>Node6&#45;&gt;Node5</title>
<path fill="none" stroke="midnightblue" d="M156.912,-562.312C167.814,-559.198 178.902,-555.45 189,-551 213.537,-540.187 239.017,-521.86 253.501,-510.653"/>
<polygon fill="midnightblue" stroke="midnightblue" points="155.726,-559.007 146.986,-564.995 157.553,-565.764 155.726,-559.007"/>
</g>
<!-- Node7 -->
<g id="node7" class="node"><title>Node7</title>
<g id="a_node7"><a xlink:href="../../d4/dee/classocra_1_1ObserverBase.html" target="_top" xlink:title="ocra::ObserverBase\l\&lt; EVT_CHANGE_DEPENDENCIES \&gt;">
<polygon fill="white" stroke="black" points="0,-511 0,-541 189,-541 189,-511 0,-511"/>
<text text-anchor="start" x="8" y="-529" font-family="Helvetica,sans-Serif" font-size="10.00">ocra::ObserverBase</text>
<text text-anchor="middle" x="94.5" y="-518" font-family="Helvetica,sans-Serif" font-size="10.00">&lt; EVT_CHANGE_DEPENDENCIES &gt;</text>
</a>
</g>
</g>
<!-- Node7&#45;&gt;Node5 -->
<g id="edge6" class="edge"><title>Node7&#45;&gt;Node5</title>
<path fill="none" stroke="midnightblue" d="M199.529,-510.702C208.724,-509.349 217.605,-508.043 225.713,-506.851"/>
<polygon fill="midnightblue" stroke="midnightblue" points="198.834,-507.266 189.45,-512.184 199.853,-514.192 198.834,-507.266"/>
</g>
<!-- Node8 -->
<g id="node8" class="node"><title>Node8</title>
<g id="a_node8"><a xlink:href="../../d4/dee/classocra_1_1ObserverBase.html" target="_top" xlink:title="ocra::ObserverBase\l\&lt; EVT_CHANGE_VALUE \&gt;">
<polygon fill="white" stroke="black" points="24,-462 24,-492 165,-492 165,-462 24,-462"/>
<text text-anchor="start" x="32" y="-480" font-family="Helvetica,sans-Serif" font-size="10.00">ocra::ObserverBase</text>
<text text-anchor="middle" x="94.5" y="-469" font-family="Helvetica,sans-Serif" font-size="10.00">&lt; EVT_CHANGE_VALUE &gt;</text>
</a>
</g>
</g>
<!-- Node8&#45;&gt;Node5 -->
<g id="edge7" class="edge"><title>Node8&#45;&gt;Node5</title>
<path fill="none" stroke="midnightblue" d="M175.415,-488.282C192.968,-490.76 210.811,-493.279 225.936,-495.414"/>
<polygon fill="midnightblue" stroke="midnightblue" points="175.527,-484.763 165.136,-486.831 174.549,-491.695 175.527,-484.763"/>
</g>
<!-- Node9 -->
<g id="node9" class="node"><title>Node9</title>
<g id="a_node9"><a xlink:href="../../dc/d77/classocra_1_1Subject.html" target="_top" xlink:title="ocra::Subject">
<polygon fill="white" stroke="black" points="229.5,-390.5 229.5,-409.5 303.5,-409.5 303.5,-390.5 229.5,-390.5"/>
<text text-anchor="middle" x="266.5" y="-397.5" font-family="Helvetica,sans-Serif" font-size="10.00">ocra::Subject</text>
</a>
</g>
</g>
<!-- Node9&#45;&gt;Node4 -->
<g id="edge8" class="edge"><title>Node9&#45;&gt;Node4</title>
<path fill="none" stroke="midnightblue" d="M313.732,-407.858C336.501,-411.728 364.139,-416.426 388.089,-420.497"/>
<polygon fill="midnightblue" stroke="midnightblue" points="314.088,-404.369 303.643,-406.143 312.915,-411.27 314.088,-404.369"/>
</g>
<!-- Node10 -->
<g id="node10" class="node"><title>Node10</title>
<g id="a_node10"><a xlink:href="../../dc/d29/classocra_1_1SubjectBase.html" target="_top" xlink:title="ocra::SubjectBase\&lt;\l EVT_RESIZE \&gt;">
<polygon fill="white" stroke="black" points="43,-413 43,-443 146,-443 146,-413 43,-413"/>
<text text-anchor="start" x="51" y="-431" font-family="Helvetica,sans-Serif" font-size="10.00">ocra::SubjectBase&lt;</text>
<text text-anchor="middle" x="94.5" y="-420" font-family="Helvetica,sans-Serif" font-size="10.00"> EVT_RESIZE &gt;</text>
</a>
</g>
</g>
<!-- Node10&#45;&gt;Node9 -->
<g id="edge9" class="edge"><title>Node10&#45;&gt;Node9</title>
<path fill="none" stroke="midnightblue" d="M156.006,-418.034C180.573,-413.988 208.125,-409.45 229.446,-405.938"/>
<polygon fill="midnightblue" stroke="midnightblue" points="155.344,-414.596 146.045,-419.675 156.481,-421.503 155.344,-414.596"/>
</g>
<!-- Node11 -->
<g id="node11" class="node"><title>Node11</title>
<g id="a_node11"><a xlink:href="../../dc/d29/classocra_1_1SubjectBase.html" target="_top" xlink:title="ocra::SubjectBase\&lt;\l EVT_CHANGE_DEPENDENCIES \&gt;">
<polygon fill="white" stroke="black" points="3,-364 3,-394 186,-394 186,-364 3,-364"/>
<text text-anchor="start" x="11" y="-382" font-family="Helvetica,sans-Serif" font-size="10.00">ocra::SubjectBase&lt;</text>
<text text-anchor="middle" x="94.5" y="-371" font-family="Helvetica,sans-Serif" font-size="10.00"> EVT_CHANGE_DEPENDENCIES &gt;</text>
</a>
</g>
</g>
<!-- Node11&#45;&gt;Node9 -->
<g id="edge10" class="edge"><title>Node11&#45;&gt;Node9</title>
<path fill="none" stroke="midnightblue" d="M196.712,-391.503C208.269,-392.93 219.411,-394.307 229.239,-395.521"/>
<polygon fill="midnightblue" stroke="midnightblue" points="196.826,-387.99 186.472,-390.238 195.968,-394.937 196.826,-387.99"/>
</g>
<!-- Node12 -->
<g id="node12" class="node"><title>Node12</title>
<g id="a_node12"><a xlink:href="../../dc/d29/classocra_1_1SubjectBase.html" target="_top" xlink:title="ocra::SubjectBase\&lt;\l EVT_CHANGE_VALUE \&gt;">
<polygon fill="white" stroke="black" points="27,-315 27,-345 162,-345 162,-315 27,-315"/>
<text text-anchor="start" x="35" y="-333" font-family="Helvetica,sans-Serif" font-size="10.00">ocra::SubjectBase&lt;</text>
<text text-anchor="middle" x="94.5" y="-322" font-family="Helvetica,sans-Serif" font-size="10.00"> EVT_CHANGE_VALUE &gt;</text>
</a>
</g>
</g>
<!-- Node12&#45;&gt;Node9 -->
<g id="edge11" class="edge"><title>Node12&#45;&gt;Node9</title>
<path fill="none" stroke="midnightblue" d="M172.021,-347.676C177.834,-349.614 183.553,-351.721 189,-354 212.589,-363.871 237.55,-380.127 252.315,-390.437"/>
<polygon fill="midnightblue" stroke="midnightblue" points="172.771,-344.242 162.182,-344.572 170.666,-350.918 172.771,-344.242"/>
</g>
<!-- Node13 -->
<g id="node13" class="node"><title>Node13</title>
<g id="a_node13"><a xlink:href="../../dd/d68/classocra_1_1IFunctionProperties.html" target="_top" xlink:title="ocra::IFunctionProperties">
<polygon fill="white" stroke="black" points="603.5,-379.5 603.5,-398.5 729.5,-398.5 729.5,-379.5 603.5,-379.5"/>
<text text-anchor="middle" x="666.5" y="-386.5" font-family="Helvetica,sans-Serif" font-size="10.00">ocra::IFunctionProperties</text>
</a>
</g>
</g>
<!-- Node13&#45;&gt;Node3 -->
<g id="edge12" class="edge"><title>Node13&#45;&gt;Node3</title>
<path fill="none" stroke="midnightblue" d="M720.968,-376.966C730.681,-374.517 740.683,-371.82 750,-369 778.529,-360.364 785.191,-356.732 813,-346 824.066,-341.729 836.264,-336.793 846.485,-332.591"/>
<polygon fill="midnightblue" stroke="midnightblue" points="719.865,-373.633 710.992,-379.423 721.539,-380.43 719.865,-373.633"/>
</g>
<!-- Node14 -->
<g id="node14" class="node"><title>Node14</title>
<polygon fill="white" stroke="#bfbfbf" points="583,-330 583,-360 750,-360 750,-330 583,-330"/>
<text text-anchor="start" x="591" y="-348" font-family="Helvetica,sans-Serif" font-size="10.00">OCRA_FUNCTION_INTERFACE</text>
<text text-anchor="middle" x="666.5" y="-337" font-family="Helvetica,sans-Serif" font-size="10.00">_INHERITANCEpublic</text>
</g>
<!-- Node14&#45;&gt;Node3 -->
<g id="edge13" class="edge"><title>Node14&#45;&gt;Node3</title>
<path fill="none" stroke="#8b1a1a" d="M760.446,-334.877C785.255,-332.175 810.716,-329.402 830.791,-327.216"/>
<polygon fill="#8b1a1a" stroke="#8b1a1a" points="759.806,-331.426 750.244,-335.988 760.564,-338.385 759.806,-331.426"/>
</g>
<!-- Node15 -->
<g id="node15" class="node"><title>Node15</title>
<g id="a_node15"><a xlink:href="../../db/de3/classocra_1_1NamedInstance.html" target="_top" xlink:title="ocra::NamedInstance">
<polygon fill="white" stroke="black" points="611.5,-291.5 611.5,-310.5 721.5,-310.5 721.5,-291.5 611.5,-291.5"/>
<text text-anchor="middle" x="666.5" y="-298.5" font-family="Helvetica,sans-Serif" font-size="10.00">ocra::NamedInstance</text>
</a>
</g>
</g>
<!-- Node15&#45;&gt;Node3 -->
<g id="edge14" class="edge"><title>Node15&#45;&gt;Node3</title>
<path fill="none" stroke="midnightblue" d="M731.98,-308.023C764.546,-311.569 802.968,-315.754 830.909,-318.797"/>
<polygon fill="midnightblue" stroke="midnightblue" points="731.952,-304.499 721.632,-306.896 731.195,-311.458 731.952,-304.499"/>
</g>
<!-- Node16 -->
<g id="node16" class="node"><title>Node16</title>
<g id="a_node16"><a xlink:href="../../d8/d24/classocra_1_1AbilitySet.html" target="_top" xlink:title="ocra::AbilitySet">
<polygon fill="white" stroke="black" points="625,-253.5 625,-272.5 708,-272.5 708,-253.5 625,-253.5"/>
<text text-anchor="middle" x="666.5" y="-260.5" font-family="Helvetica,sans-Serif" font-size="10.00">ocra::AbilitySet</text>
</a>
</g>
</g>
<!-- Node16&#45;&gt;Node3 -->
<g id="edge15" class="edge"><title>Node16&#45;&gt;Node3</title>
<path fill="none" stroke="midnightblue" d="M718.328,-273.83C728.85,-276.317 739.826,-279.092 750,-282 782.899,-291.404 820.077,-304.572 844.103,-313.424"/>
<polygon fill="midnightblue" stroke="midnightblue" points="718.95,-270.381 708.419,-271.539 717.373,-277.201 718.95,-270.381"/>
</g>
<!-- Node17 -->
<g id="node17" class="node"><title>Node17</title>
<g id="a_node17"><a xlink:href="../../d5/dc0/classocra_1_1CoupledInputOutputSize.html" target="_top" xlink:title="ocra::CoupledInputOutputSize">
<polygon fill="white" stroke="black" points="592.5,-215.5 592.5,-234.5 740.5,-234.5 740.5,-215.5 592.5,-215.5"/>
<text text-anchor="middle" x="666.5" y="-222.5" font-family="Helvetica,sans-Serif" font-size="10.00">ocra::CoupledInputOutputSize</text>
</a>
</g>
</g>
<!-- Node17&#45;&gt;Node3 -->
<g id="edge16" class="edge"><title>Node17&#45;&gt;Node3</title>
<path fill="none" stroke="midnightblue" d="M730.806,-237.243C737.387,-239.206 743.896,-241.448 750,-244 793.367,-262.132 837.834,-296.551 858.14,-313.325"/>
<polygon fill="midnightblue" stroke="midnightblue" points="731.72,-233.865 721.149,-234.565 729.85,-240.61 731.72,-233.865"/>
</g>
<!-- Node18 -->
<g id="node18" class="node"><title>Node18</title>
<polygon fill="white" stroke="#bfbfbf" points="638,-175.5 638,-194.5 695,-194.5 695,-175.5 638,-175.5"/>
<text text-anchor="middle" x="666.5" y="-182.5" font-family="Helvetica,sans-Serif" font-size="10.00">VectorXd</text>
</g>
<!-- Node18&#45;&gt;Node2 -->
<g id="edge24" class="edge"><title>Node18&#45;&gt;Node2</title>
<path fill="none" stroke="#9a32cd" stroke-dasharray="5,2" d="M705.538,-185.898C764.191,-187.282 877.198,-189.949 946.814,-191.591"/>
<polygon fill="#9a32cd" stroke="#9a32cd" points="705.322,-182.392 695.242,-185.655 705.156,-189.39 705.322,-182.392"/>
<text text-anchor="middle" x="870.5" y="-194" font-family="Helvetica,sans-Serif" font-size="10.00"> _r</text>
</g>
<!-- Node18&#45;&gt;Node3 -->
<g id="edge17" class="edge"><title>Node18&#45;&gt;Node3</title>
<path fill="none" stroke="#9a32cd" stroke-dasharray="5,2" d="M704.898,-190.958C736.896,-197.749 782.489,-211.662 813,-239 837.739,-261.166 856.745,-296.388 864.999,-313.306"/>
<polygon fill="#9a32cd" stroke="#9a32cd" points="705.514,-187.512 695.024,-188.995 704.149,-194.377 705.514,-187.512"/>
<text text-anchor="middle" x="790.5" y="-242" font-family="Helvetica,sans-Serif" font-size="10.00"> _value</text>
</g>
<!-- Node19 -->
<g id="node19" class="node"><title>Node19</title>
<polygon fill="white" stroke="#bfbfbf" points="638.5,-499.5 638.5,-518.5 694.5,-518.5 694.5,-499.5 638.5,-499.5"/>
<text text-anchor="middle" x="666.5" y="-506.5" font-family="Helvetica,sans-Serif" font-size="10.00">MatrixXd</text>
</g>
<!-- Node19&#45;&gt;Node3 -->
<g id="edge18" class="edge"><title>Node19&#45;&gt;Node3</title>
<path fill="none" stroke="#9a32cd" stroke-dasharray="5,2" d="M704.893,-510.57C737.19,-509.913 783.229,-503.88 813,-478 858.178,-438.728 867.247,-360.269 869.054,-332.784"/>
<polygon fill="#9a32cd" stroke="#9a32cd" points="704.497,-507.071 694.51,-510.607 704.522,-514.071 704.497,-507.071"/>
<text text-anchor="middle" x="790.5" y="-504" font-family="Helvetica,sans-Serif" font-size="10.00"> _jacobian</text>
</g>
<!-- Node20&#45;&gt;Node3 -->
<g id="edge19" class="edge"><title>Node20&#45;&gt;Node3</title>
<path fill="none" stroke="#9a32cd" stroke-dasharray="5,2" d="M715.149,-471.655C745.969,-469.739 785.348,-462.629 813,-441 849.139,-412.732 863.424,-355.606 867.843,-332.763"/>
<polygon fill="#9a32cd" stroke="#9a32cd" points="714.884,-468.163 705.055,-472.119 715.205,-475.156 714.884,-468.163"/>
<text text-anchor="middle" x="790.5" y="-466" font-family="Helvetica,sans-Serif" font-size="10.00"> x</text>
</g>
<!-- Node21 -->
<g id="node21" class="node"><title>Node21</title>
<g id="a_node21"><a xlink:href="../../d0/d29/classocra_1_1Component.html" target="_top" xlink:title="ocra::Component\&lt; Variable,\l CompositeVariable, VariableParenthood \&gt;">
<polygon fill="white" stroke="black" points="344,-548 344,-578 546,-578 546,-548 344,-548"/>
<text text-anchor="start" x="352" y="-566" font-family="Helvetica,sans-Serif" font-size="10.00">ocra::Component&lt; Variable,</text>
<text text-anchor="middle" x="445" y="-555" font-family="Helvetica,sans-Serif" font-size="10.00"> CompositeVariable, VariableParenthood &gt;</text>
</a>
</g>
</g>
<!-- Node21&#45;&gt;Node20 -->
<g id="edge20" class="edge"><title>Node21&#45;&gt;Node20</title>
<path fill="none" stroke="midnightblue" d="M536.15,-543.676C539.559,-541.944 542.858,-540.057 546,-538 568.538,-523.249 560.326,-504.54 583,-490 596.238,-481.51 612.823,-476.798 627.644,-474.189"/>
<polygon fill="midnightblue" stroke="midnightblue" points="534.539,-540.564 526.902,-547.908 537.452,-546.929 534.539,-540.564"/>
</g>
<!-- Node22 -->
<g id="node22" class="node"><title>Node22</title>
<polygon fill="white" stroke="#bfbfbf" points="409.5,-509.5 409.5,-528.5 480.5,-528.5 480.5,-509.5 409.5,-509.5"/>
<text text-anchor="middle" x="445" y="-516.5" font-family="Helvetica,sans-Serif" font-size="10.00">noncopyable</text>
</g>
<!-- Node22&#45;&gt;Node20 -->
<g id="edge22" class="edge"><title>Node22&#45;&gt;Node20</title>
<path fill="none" stroke="#8b1a1a" d="M490.64,-510.481C507.96,-507.068 527.938,-503.001 546,-499 562.523,-495.34 566.531,-493.899 583,-490 597.588,-486.546 613.649,-482.828 627.692,-479.605"/>
<polygon fill="#8b1a1a" stroke="#8b1a1a" points="489.925,-507.054 480.783,-512.409 491.269,-513.924 489.925,-507.054"/>
</g>
<!-- Node23 -->
<g id="node23" class="node"><title>Node23</title>
<g id="a_node23"><a xlink:href="../../dc/d20/classocra_1_1VariableHasRestrictedClassDerivation.html" target="_top" xlink:title="ocra::VariableHasRestricted\lClassDerivation">
<polygon fill="white" stroke="black" points="375,-460 375,-490 515,-490 515,-460 375,-460"/>
<text text-anchor="start" x="383" y="-478" font-family="Helvetica,sans-Serif" font-size="10.00">ocra::VariableHasRestricted</text>
<text text-anchor="middle" x="445" y="-467" font-family="Helvetica,sans-Serif" font-size="10.00">ClassDerivation</text>
</a>
</g>
</g>
<!-- Node23&#45;&gt;Node20 -->
<g id="edge23" class="edge"><title>Node23&#45;&gt;Node20</title>
<path fill="none" stroke="#8b1a1a" d="M525.371,-473.554C560.378,-472.916 599.861,-472.196 627.974,-471.684"/>
<polygon fill="#8b1a1a" stroke="#8b1a1a" points="525.084,-470.058 515.15,-473.74 525.212,-477.057 525.084,-470.058"/>
</g>
<!-- Node24 -->
<g id="node24" class="node"><title>Node24</title>
<g id="a_node24"><a xlink:href="../../d9/dce/classocra_1_1ObjectivePtr.html" target="_top" xlink:title="ocra::ObjectivePtr\l\&lt; ocra::QuadraticFunction \&gt;">
<polygon fill="white" stroke="black" points="1113.5,-100 1113.5,-130 1252.5,-130 1252.5,-100 1113.5,-100"/>
<text text-anchor="start" x="1121.5" y="-118" font-family="Helvetica,sans-Serif" font-size="10.00">ocra::ObjectivePtr</text>
<text text-anchor="middle" x="1183" y="-107" font-family="Helvetica,sans-Serif" font-size="10.00">&lt; ocra::QuadraticFunction &gt;</text>
</a>
</g>
</g>
<!-- Node24&#45;&gt;Node1 -->
<g id="edge25" class="edge"><title>Node24&#45;&gt;Node1</title>
<path fill="none" stroke="#9a32cd" stroke-dasharray="5,2" d="M1262.57,-115C1306.22,-115 1359.62,-115 1399.64,-115"/>
<polygon fill="#9a32cd" stroke="#9a32cd" points="1262.56,-111.5 1252.56,-115 1262.56,-118.5 1262.56,-111.5"/>
<text text-anchor="middle" x="1330.5" y="-140" font-family="Helvetica,sans-Serif" font-size="10.00"> minFcObjective</text>
<text text-anchor="middle" x="1330.5" y="-129" font-family="Helvetica,sans-Serif" font-size="10.00">minDdqObjective</text>
<text text-anchor="middle" x="1330.5" y="-118" font-family="Helvetica,sans-Serif" font-size="10.00">minTauObjective</text>
</g>
<!-- Node25 -->
<g id="node25" class="node"><title>Node25</title>
<g id="a_node25"><a xlink:href="../../d4/d43/classwocra_1_1PerformanceRecorder.html" target="_top" xlink:title="To get and save time information to collect some data on performances. ">
<polygon fill="white" stroke="black" points="1111,-60.5 1111,-79.5 1255,-79.5 1255,-60.5 1111,-60.5"/>
<text text-anchor="middle" x="1183" y="-67.5" font-family="Helvetica,sans-Serif" font-size="10.00">wocra::PerformanceRecorder</text>
</a>
</g>
</g>
<!-- Node25&#45;&gt;Node1 -->
<g id="edge26" class="edge"><title>Node25&#45;&gt;Node1</title>
<path fill="none" stroke="#9a32cd" stroke-dasharray="5,2" d="M1265.16,-73.5292C1301.23,-76.1873 1344.04,-80.8441 1382,-89 1394.62,-91.711 1408.05,-95.8313 1420.07,-99.998"/>
<polygon fill="#9a32cd" stroke="#9a32cd" points="1265.39,-70.0371 1255.17,-72.8313 1264.9,-77.02 1265.39,-70.0371"/>
<text text-anchor="middle" x="1330.5" y="-103" font-family="Helvetica,sans-Serif" font-size="10.00"> solveProblemRecorder</text>
<text text-anchor="middle" x="1330.5" y="-92" font-family="Helvetica,sans-Serif" font-size="10.00">updateTasksRecorder</text>
</g>
<!-- Node26&#45;&gt;Node1 -->
<g id="edge27" class="edge"><title>Node26&#45;&gt;Node1</title>
<path fill="none" stroke="#9a32cd" stroke-dasharray="5,2" d="M1259.42,-164.855C1296.78,-163.288 1342.29,-159.116 1382,-149 1398.76,-144.731 1416.47,-137.084 1430.62,-130.122"/>
<polygon fill="#9a32cd" stroke="#9a32cd" points="1258.97,-161.369 1249.11,-165.23 1259.23,-168.364 1258.97,-161.369"/>
<text text-anchor="middle" x="1330.5" y="-167" font-family="Helvetica,sans-Serif" font-size="10.00"> minFcFunction</text>
</g>
<!-- Node27 -->
<g id="node27" class="node"><title>Node27</title>
<g id="a_node27"><a xlink:href="../../d5/d01/classocra_1_1EqualZeroConstraintPtr.html" target="_top" xlink:title="ocra::EqualZeroConstraint\lPtr\&lt; ocra::FullDynamicEquation\lFunction \&gt;">
<polygon fill="white" stroke="black" points="1105,-0.5 1105,-41.5 1261,-41.5 1261,-0.5 1105,-0.5"/>
<text text-anchor="start" x="1113" y="-29.5" font-family="Helvetica,sans-Serif" font-size="10.00">ocra::EqualZeroConstraint</text>
<text text-anchor="start" x="1113" y="-18.5" font-family="Helvetica,sans-Serif" font-size="10.00">Ptr&lt; ocra::FullDynamicEquation</text>
<text text-anchor="middle" x="1183" y="-7.5" font-family="Helvetica,sans-Serif" font-size="10.00">Function &gt;</text>
</a>
</g>
</g>
<!-- Node27&#45;&gt;Node1 -->
<g id="edge29" class="edge"><title>Node27&#45;&gt;Node1</title>
<path fill="none" stroke="#9a32cd" stroke-dasharray="5,2" d="M1271.35,-29.9712C1306.73,-35.6885 1347.33,-44.9756 1382,-60 1404.66,-69.8208 1427.21,-87.1915 1441.89,-99.7887"/>
<polygon fill="#9a32cd" stroke="#9a32cd" points="1271.45,-26.4457 1261.03,-28.3804 1270.38,-33.3639 1271.45,-26.4457"/>
<text text-anchor="middle" x="1330.5" y="-63" font-family="Helvetica,sans-Serif" font-size="10.00"> dynamicEquation</text>
</g>
</g>
</svg>
