<?xml version="1.0" encoding="UTF-8" standalone="no"?>
<!DOCTYPE svg PUBLIC "-//W3C//DTD SVG 1.1//EN"
 "http://www.w3.org/Graphics/SVG/1.1/DTD/svg11.dtd">
<!-- Generated by graphviz version 2.38.0 (20140413.2041)
 -->
<!-- Title: ocra::LinearFunction Pages: 1 -->
<svg width="1168pt" height="531pt"
 viewBox="0.00 0.00 1168.00 530.50" xmlns="http://www.w3.org/2000/svg" xmlns:xlink="http://www.w3.org/1999/xlink">
<g id="graph0" class="graph" transform="scale(1 1) rotate(0) translate(4 526.5)">
<title>ocra::LinearFunction</title>
<polygon fill="white" stroke="none" points="-4,4 -4,-526.5 1164,-526.5 1164,4 -4,4"/>
<!-- Node1 -->
<g id="node1" class="node"><title>Node1</title>
<polygon fill="#bfbfbf" stroke="black" points="660,-209.5 660,-228.5 765,-228.5 765,-209.5 660,-209.5"/>
<text text-anchor="middle" x="712.5" y="-216.5" font-family="Helvetica,sans-Serif" font-size="10.00">ocra::LinearFunction</text>
</g>
<!-- Node17 -->
<g id="node17" class="node"><title>Node17</title>
<g id="a_node17"><a xlink:href="../../d4/d45/classocra_1_1ContactAvoidanceFunction.html" target="_top" xlink:title="Create a linear function that represents the joint limit function. ">
<polygon fill="white" stroke="black" points="802.5,-448.5 802.5,-467.5 961.5,-467.5 961.5,-448.5 802.5,-448.5"/>
<text text-anchor="middle" x="882" y="-455.5" font-family="Helvetica,sans-Serif" font-size="10.00">ocra::ContactAvoidanceFunction</text>
</a>
</g>
</g>
<!-- Node1&#45;&gt;Node17 -->
<g id="edge16" class="edge"><title>Node1&#45;&gt;Node17</title>
<path fill="none" stroke="midnightblue" d="M715.938,-238.789C722.16,-280.768 742.501,-379.287 801,-433 808.503,-439.889 817.884,-444.88 827.555,-448.495"/>
<polygon fill="midnightblue" stroke="midnightblue" points="719.387,-238.18 714.564,-228.746 712.452,-239.129 719.387,-238.18"/>
</g>
<!-- Node20 -->
<g id="node20" class="node"><title>Node20</title>
<g id="a_node20"><a xlink:href="../../d3/d89/classocra_1_1DiagonalLinearFunction.html" target="_top" xlink:title="DiagonalLinearFunction class. ">
<polygon fill="white" stroke="black" points="810.5,-404.5 810.5,-423.5 953.5,-423.5 953.5,-404.5 810.5,-404.5"/>
<text text-anchor="middle" x="882" y="-411.5" font-family="Helvetica,sans-Serif" font-size="10.00">ocra::DiagonalLinearFunction</text>
</a>
</g>
</g>
<!-- Node1&#45;&gt;Node20 -->
<g id="edge19" class="edge"><title>Node1&#45;&gt;Node20</title>
<path fill="none" stroke="midnightblue" d="M717.616,-238.621C726.314,-275.056 750.094,-353.164 801,-394 806.36,-398.3 812.523,-401.69 818.999,-404.362"/>
<polygon fill="midnightblue" stroke="midnightblue" points="721.002,-237.724 715.388,-228.739 714.173,-239.264 721.002,-237.724"/>
</g>
<!-- Node23 -->
<g id="node23" class="node"><title>Node23</title>
<g id="a_node23"><a xlink:href="../../d4/d5c/classocra_1_1DoubleDiagonalLinearFunction.html" target="_top" xlink:title="DoubleDiagonalLinearFunction class. ">
<polygon fill="white" stroke="black" points="813.5,-355 813.5,-385 950.5,-385 950.5,-355 813.5,-355"/>
<text text-anchor="start" x="821.5" y="-373" font-family="Helvetica,sans-Serif" font-size="10.00">ocra::DoubleDiagonalLinear</text>
<text text-anchor="middle" x="882" y="-362" font-family="Helvetica,sans-Serif" font-size="10.00">Function</text>
</a>
</g>
</g>
<!-- Node1&#45;&gt;Node23 -->
<g id="edge22" class="edge"><title>Node1&#45;&gt;Node23</title>
<path fill="none" stroke="midnightblue" d="M721.648,-237.811C734.526,-265.359 762.168,-316.488 801,-345 806.278,-348.875 812.173,-352.161 818.304,-354.944"/>
<polygon fill="midnightblue" stroke="midnightblue" points="724.75,-236.176 717.443,-228.504 718.371,-239.058 724.75,-236.176"/>
</g>
<!-- Node24 -->
<g id="node24" class="node"><title>Node24</title>
<g id="a_node24"><a xlink:href="../../d9/da6/classocra_1_1DynamicEquationFunction.html" target="_top" xlink:title="DynamicEquationFunction class. ">
<polygon fill="white" stroke="black" points="804,-316.5 804,-335.5 960,-335.5 960,-316.5 804,-316.5"/>
<text text-anchor="middle" x="882" y="-323.5" font-family="Helvetica,sans-Serif" font-size="10.00">ocra::DynamicEquationFunction</text>
</a>
</g>
</g>
<!-- Node1&#45;&gt;Node24 -->
<g id="edge23" class="edge"><title>Node1&#45;&gt;Node24</title>
<path fill="none" stroke="midnightblue" d="M726.474,-236.728C741.979,-256.613 769.775,-288.38 801,-306 808.73,-310.362 817.409,-313.785 826.122,-316.466"/>
<polygon fill="midnightblue" stroke="midnightblue" points="729.08,-234.372 720.247,-228.522 723.504,-238.604 729.08,-234.372"/>
</g>
<!-- Node25 -->
<g id="node25" class="node"><title>Node25</title>
<g id="a_node25"><a xlink:href="../../de/ddd/classocra_1_1FullDynamicEquationFunction.html" target="_top" xlink:title="Create a linear function that represents the dynamic equation of motion. ">
<polygon fill="white" stroke="black" points="815,-267 815,-297 949,-297 949,-267 815,-267"/>
<text text-anchor="start" x="823" y="-285" font-family="Helvetica,sans-Serif" font-size="10.00">ocra::FullDynamicEquation</text>
<text text-anchor="middle" x="882" y="-274" font-family="Helvetica,sans-Serif" font-size="10.00">Function</text>
</a>
</g>
</g>
<!-- Node1&#45;&gt;Node25 -->
<g id="edge24" class="edge"><title>Node1&#45;&gt;Node25</title>
<path fill="none" stroke="midnightblue" d="M743.055,-232.773C759.863,-240.369 781.408,-249.708 801,-257 810.273,-260.451 820.265,-263.833 829.939,-266.939"/>
<polygon fill="midnightblue" stroke="midnightblue" points="744.307,-229.498 733.756,-228.532 741.402,-235.866 744.307,-229.498"/>
</g>
<!-- Node26 -->
<g id="node26" class="node"><title>Node26</title>
<g id="a_node26"><a xlink:href="../../df/de0/classocra_1_1JointLimitFunction.html" target="_top" xlink:title="Create a linear function that represents the joint limit function. ">
<polygon fill="white" stroke="black" points="821.5,-228.5 821.5,-247.5 942.5,-247.5 942.5,-228.5 821.5,-228.5"/>
<text text-anchor="middle" x="882" y="-235.5" font-family="Helvetica,sans-Serif" font-size="10.00">ocra::JointLimitFunction</text>
</a>
</g>
</g>
<!-- Node1&#45;&gt;Node26 -->
<g id="edge25" class="edge"><title>Node1&#45;&gt;Node26</title>
<path fill="none" stroke="midnightblue" d="M775.339,-226.015C790.369,-227.719 806.41,-229.539 821.337,-231.232"/>
<polygon fill="midnightblue" stroke="midnightblue" points="775.453,-222.505 765.122,-224.856 774.664,-229.461 775.453,-222.505"/>
</g>
<!-- Node29 -->
<g id="node29" class="node"><title>Node29</title>
<g id="a_node29"><a xlink:href="../../d0/dd6/classocra_1_1LinearizedCoulombFunction.html" target="_top" xlink:title="LinearizedCoulombFunction class. ">
<polygon fill="white" stroke="black" points="801,-190.5 801,-209.5 963,-209.5 963,-190.5 801,-190.5"/>
<text text-anchor="middle" x="882" y="-197.5" font-family="Helvetica,sans-Serif" font-size="10.00">ocra::LinearizedCoulombFunction</text>
</a>
</g>
</g>
<!-- Node1&#45;&gt;Node29 -->
<g id="edge28" class="edge"><title>Node1&#45;&gt;Node29</title>
<path fill="none" stroke="midnightblue" d="M775.166,-212.005C783.55,-211.054 792.251,-210.067 800.901,-209.086"/>
<polygon fill="midnightblue" stroke="midnightblue" points="774.664,-208.539 765.122,-213.144 775.453,-215.495 774.664,-208.539"/>
</g>
<!-- Node30 -->
<g id="node30" class="node"><title>Node30</title>
<g id="a_node30"><a xlink:href="../../dd/d16/classocra_1_1LinearTask.html" target="_top" xlink:title="LinearTask class. ">
<polygon fill="white" stroke="black" points="837.5,-152.5 837.5,-171.5 926.5,-171.5 926.5,-152.5 837.5,-152.5"/>
<text text-anchor="middle" x="882" y="-159.5" font-family="Helvetica,sans-Serif" font-size="10.00">ocra::LinearTask</text>
</a>
</g>
</g>
<!-- Node1&#45;&gt;Node30 -->
<g id="edge29" class="edge"><title>Node1&#45;&gt;Node30</title>
<path fill="none" stroke="midnightblue" d="M742.205,-205.005C759.047,-197.182 780.903,-187.692 801,-181 812.648,-177.121 825.498,-173.704 837.428,-170.877"/>
<polygon fill="midnightblue" stroke="midnightblue" points="740.472,-201.952 732.92,-209.384 743.458,-208.284 740.472,-201.952"/>
</g>
<!-- Node31 -->
<g id="node31" class="node"><title>Node31</title>
<g id="a_node31"><a xlink:href="../../dd/dda/classocra_1_1SecondOrderLinearTask.html" target="_top" xlink:title="SecondOrderLinearTask class. ">
<polygon fill="white" stroke="black" points="809,-114.5 809,-133.5 955,-133.5 955,-114.5 809,-114.5"/>
<text text-anchor="middle" x="882" y="-121.5" font-family="Helvetica,sans-Serif" font-size="10.00">ocra::SecondOrderLinearTask</text>
</a>
</g>
</g>
<!-- Node1&#45;&gt;Node31 -->
<g id="edge30" class="edge"><title>Node1&#45;&gt;Node31</title>
<path fill="none" stroke="midnightblue" d="M728.63,-201.663C744.811,-184.222 772.079,-157.843 801,-143 808.493,-139.154 816.782,-136.072 825.101,-133.606"/>
<polygon fill="midnightblue" stroke="midnightblue" points="725.729,-199.653 721.618,-209.418 730.921,-204.348 725.729,-199.653"/>
</g>
<!-- Node32 -->
<g id="node32" class="node"><title>Node32</title>
<g id="a_node32"><a xlink:href="../../d0/d8f/classocra_1_1SumOfLinearFunctions.html" target="_top" xlink:title="ocra::SumOfLinearFunctions">
<polygon fill="white" stroke="black" points="811.5,-76.5 811.5,-95.5 952.5,-95.5 952.5,-76.5 811.5,-76.5"/>
<text text-anchor="middle" x="882" y="-83.5" font-family="Helvetica,sans-Serif" font-size="10.00">ocra::SumOfLinearFunctions</text>
</a>
</g>
</g>
<!-- Node1&#45;&gt;Node32 -->
<g id="edge31" class="edge"><title>Node1&#45;&gt;Node32</title>
<path fill="none" stroke="midnightblue" d="M722.664,-200.183C736.155,-174.54 763.84,-129.064 801,-105 806.991,-101.12 813.694,-98.0313 820.601,-95.5722"/>
<polygon fill="midnightblue" stroke="midnightblue" points="719.466,-198.75 718.052,-209.25 725.705,-201.923 719.466,-198.75"/>
</g>
<!-- Node33 -->
<g id="node33" class="node"><title>Node33</title>
<g id="a_node33"><a xlink:href="../../dd/d3d/classocra_1_1TorqueLimitFunction.html" target="_top" xlink:title="Create a linear function that represents the torque limit function. ">
<polygon fill="white" stroke="black" points="817,-38.5 817,-57.5 947,-57.5 947,-38.5 817,-38.5"/>
<text text-anchor="middle" x="882" y="-45.5" font-family="Helvetica,sans-Serif" font-size="10.00">ocra::TorqueLimitFunction</text>
</a>
</g>
</g>
<!-- Node1&#45;&gt;Node33 -->
<g id="edge32" class="edge"><title>Node1&#45;&gt;Node33</title>
<path fill="none" stroke="midnightblue" d="M719.066,-199.65C729.495,-166.997 755.168,-101.182 801,-67 806.149,-63.1595 811.96,-60.082 818.041,-57.6181"/>
<polygon fill="midnightblue" stroke="midnightblue" points="715.675,-198.772 716.107,-209.358 722.37,-200.813 715.675,-198.772"/>
</g>
<!-- Node34 -->
<g id="node34" class="node"><title>Node34</title>
<g id="a_node34"><a xlink:href="../../d7/d46/classocra_1_1VariableChiFunction.html" target="_top" xlink:title="ocra::VariableChiFunction">
<polygon fill="white" stroke="black" points="817.5,-0.5 817.5,-19.5 946.5,-19.5 946.5,-0.5 817.5,-0.5"/>
<text text-anchor="middle" x="882" y="-7.5" font-family="Helvetica,sans-Serif" font-size="10.00">ocra::VariableChiFunction</text>
</a>
</g>
</g>
<!-- Node1&#45;&gt;Node34 -->
<g id="edge33" class="edge"><title>Node1&#45;&gt;Node34</title>
<path fill="none" stroke="midnightblue" d="M716.73,-199.285C724.173,-160.422 746.276,-73.8172 801,-29 805.859,-25.0203 811.412,-21.8473 817.275,-19.3213"/>
<polygon fill="midnightblue" stroke="midnightblue" points="713.252,-198.852 714.938,-209.312 720.143,-200.084 713.252,-198.852"/>
</g>
<!-- Node2 -->
<g id="node2" class="node"><title>Node2</title>
<g id="a_node2"><a xlink:href="../../d2/d99/classocra_1_1Function.html" target="_top" xlink:title="Function class. ">
<polygon fill="white" stroke="black" points="545,-209.5 545,-228.5 624,-228.5 624,-209.5 545,-209.5"/>
<text text-anchor="middle" x="584.5" y="-216.5" font-family="Helvetica,sans-Serif" font-size="10.00">ocra::Function</text>
</a>
</g>
</g>
<!-- Node2&#45;&gt;Node1 -->
<g id="edge1" class="edge"><title>Node2&#45;&gt;Node1</title>
<path fill="none" stroke="midnightblue" d="M634.519,-219C642.737,-219 651.29,-219 659.579,-219"/>
<polygon fill="midnightblue" stroke="midnightblue" points="634.332,-215.5 624.332,-219 634.332,-222.5 634.332,-215.5"/>
</g>
<!-- Node3 -->
<g id="node3" class="node"><title>Node3</title>
<g id="a_node3"><a xlink:href="../../d3/d16/classocra_1_1ObserverSubject.html" target="_top" xlink:title="ocra::ObserverSubject">
<polygon fill="white" stroke="black" points="368.5,-313.5 368.5,-332.5 482.5,-332.5 482.5,-313.5 368.5,-313.5"/>
<text text-anchor="middle" x="425.5" y="-320.5" font-family="Helvetica,sans-Serif" font-size="10.00">ocra::ObserverSubject</text>
</a>
</g>
</g>
<!-- Node3&#45;&gt;Node2 -->
<g id="edge2" class="edge"><title>Node3&#45;&gt;Node2</title>
<path fill="none" stroke="midnightblue" d="M492.657,-311.746C498.372,-309.6 503.908,-307.043 509,-304 541.339,-284.67 567.076,-246.523 577.923,-228.657"/>
<polygon fill="midnightblue" stroke="midnightblue" points="491.301,-308.508 482.918,-314.986 493.511,-315.15 491.301,-308.508"/>
</g>
<!-- Node4 -->
<g id="node4" class="node"><title>Node4</title>
<g id="a_node4"><a xlink:href="../../d2/d45/classocra_1_1Observer.html" target="_top" xlink:title="ocra::Observer">
<polygon fill="white" stroke="black" points="225,-362.5 225,-381.5 306,-381.5 306,-362.5 225,-362.5"/>
<text text-anchor="middle" x="265.5" y="-369.5" font-family="Helvetica,sans-Serif" font-size="10.00">ocra::Observer</text>
</a>
</g>
</g>
<!-- Node4&#45;&gt;Node3 -->
<g id="edge3" class="edge"><title>Node4&#45;&gt;Node3</title>
<path fill="none" stroke="midnightblue" d="M306.903,-359.47C333.937,-351.086 368.965,-340.223 393.739,-332.54"/>
<polygon fill="midnightblue" stroke="midnightblue" points="305.854,-356.131 297.339,-362.436 307.927,-362.817 305.854,-356.131"/>
</g>
<!-- Node5 -->
<g id="node5" class="node"><title>Node5</title>
<g id="a_node5"><a xlink:href="../../d4/dee/classocra_1_1ObserverBase.html" target="_top" xlink:title="ocra::ObserverBase\l\&lt; EVT_RESIZE \&gt;">
<polygon fill="white" stroke="black" points="42.5,-431 42.5,-461 146.5,-461 146.5,-431 42.5,-431"/>
<text text-anchor="start" x="50.5" y="-449" font-family="Helvetica,sans-Serif" font-size="10.00">ocra::ObserverBase</text>
<text text-anchor="middle" x="94.5" y="-438" font-family="Helvetica,sans-Serif" font-size="10.00">&lt; EVT_RESIZE &gt;</text>
</a>
</g>
</g>
<!-- Node5&#45;&gt;Node4 -->
<g id="edge4" class="edge"><title>Node5&#45;&gt;Node4</title>
<path fill="none" stroke="midnightblue" d="M156.893,-432.553C167.797,-429.333 178.891,-425.496 189,-421 212.987,-410.332 238.006,-392.563 252.372,-381.608"/>
<polygon fill="midnightblue" stroke="midnightblue" points="155.65,-429.266 146.967,-435.337 157.54,-436.006 155.65,-429.266"/>
</g>
<!-- Node6 -->
<g id="node6" class="node"><title>Node6</title>
<g id="a_node6"><a xlink:href="../../d4/dee/classocra_1_1ObserverBase.html" target="_top" xlink:title="ocra::ObserverBase\l\&lt; EVT_CHANGE_DEPENDENCIES \&gt;">
<polygon fill="white" stroke="black" points="0,-382 0,-412 189,-412 189,-382 0,-382"/>
<text text-anchor="start" x="8" y="-400" font-family="Helvetica,sans-Serif" font-size="10.00">ocra::ObserverBase</text>
<text text-anchor="middle" x="94.5" y="-389" font-family="Helvetica,sans-Serif" font-size="10.00">&lt; EVT_CHANGE_DEPENDENCIES &gt;</text>
</a>
</g>
</g>
<!-- Node6&#45;&gt;Node4 -->
<g id="edge5" class="edge"><title>Node6&#45;&gt;Node4</title>
<path fill="none" stroke="midnightblue" d="M199.526,-381.611C208.41,-380.297 216.989,-379.028 224.84,-377.867"/>
<polygon fill="midnightblue" stroke="midnightblue" points="198.77,-378.185 189.39,-383.111 199.795,-385.11 198.77,-378.185"/>
</g>
<!-- Node7 -->
<g id="node7" class="node"><title>Node7</title>
<g id="a_node7"><a xlink:href="../../d4/dee/classocra_1_1ObserverBase.html" target="_top" xlink:title="ocra::ObserverBase\l\&lt; EVT_CHANGE_VALUE \&gt;">
<polygon fill="white" stroke="black" points="24,-333 24,-363 165,-363 165,-333 24,-333"/>
<text text-anchor="start" x="32" y="-351" font-family="Helvetica,sans-Serif" font-size="10.00">ocra::ObserverBase</text>
<text text-anchor="middle" x="94.5" y="-340" font-family="Helvetica,sans-Serif" font-size="10.00">&lt; EVT_CHANGE_VALUE &gt;</text>
</a>
</g>
</g>
<!-- Node7&#45;&gt;Node4 -->
<g id="edge6" class="edge"><title>Node7&#45;&gt;Node4</title>
<path fill="none" stroke="midnightblue" d="M175.313,-359.334C192.551,-361.782 210.051,-364.268 224.93,-366.381"/>
<polygon fill="midnightblue" stroke="midnightblue" points="175.607,-355.841 165.214,-357.9 174.623,-362.772 175.607,-355.841"/>
</g>
<!-- Node8 -->
<g id="node8" class="node"><title>Node8</title>
<g id="a_node8"><a xlink:href="../../dc/d77/classocra_1_1Subject.html" target="_top" xlink:title="ocra::Subject">
<polygon fill="white" stroke="black" points="228.5,-264.5 228.5,-283.5 302.5,-283.5 302.5,-264.5 228.5,-264.5"/>
<text text-anchor="middle" x="265.5" y="-271.5" font-family="Helvetica,sans-Serif" font-size="10.00">ocra::Subject</text>
</a>
</g>
</g>
<!-- Node8&#45;&gt;Node3 -->
<g id="edge7" class="edge"><title>Node8&#45;&gt;Node3</title>
<path fill="none" stroke="midnightblue" d="M297.324,-287.478C310.861,-293.075 327.048,-299.337 342,-304 353.365,-307.544 365.798,-310.748 377.485,-313.471"/>
<polygon fill="midnightblue" stroke="midnightblue" points="298.566,-284.203 287.991,-283.552 295.852,-290.656 298.566,-284.203"/>
</g>
<!-- Node9 -->
<g id="node9" class="node"><title>Node9</title>
<g id="a_node9"><a xlink:href="../../dc/d29/classocra_1_1SubjectBase.html" target="_top" xlink:title="ocra::SubjectBase\&lt;\l EVT_RESIZE \&gt;">
<polygon fill="white" stroke="black" points="43,-284 43,-314 146,-314 146,-284 43,-284"/>
<text text-anchor="start" x="51" y="-302" font-family="Helvetica,sans-Serif" font-size="10.00">ocra::SubjectBase&lt;</text>
<text text-anchor="middle" x="94.5" y="-291" font-family="Helvetica,sans-Serif" font-size="10.00"> EVT_RESIZE &gt;</text>
</a>
</g>
</g>
<!-- Node9&#45;&gt;Node8 -->
<g id="edge8" class="edge"><title>Node9&#45;&gt;Node8</title>
<path fill="none" stroke="midnightblue" d="M156.345,-289.999C180.463,-286.432 207.377,-282.45 228.323,-279.352"/>
<polygon fill="midnightblue" stroke="midnightblue" points="155.586,-286.573 146.206,-291.499 156.61,-293.498 155.586,-286.573"/>
</g>
<!-- Node10 -->
<g id="node10" class="node"><title>Node10</title>
<g id="a_node10"><a xlink:href="../../dc/d29/classocra_1_1SubjectBase.html" target="_top" xlink:title="ocra::SubjectBase\&lt;\l EVT_CHANGE_DEPENDENCIES \&gt;">
<polygon fill="white" stroke="black" points="3,-235 3,-265 186,-265 186,-235 3,-235"/>
<text text-anchor="start" x="11" y="-253" font-family="Helvetica,sans-Serif" font-size="10.00">ocra::SubjectBase&lt;</text>
<text text-anchor="middle" x="94.5" y="-242" font-family="Helvetica,sans-Serif" font-size="10.00"> EVT_CHANGE_DEPENDENCIES &gt;</text>
</a>
</g>
</g>
<!-- Node10&#45;&gt;Node8 -->
<g id="edge9" class="edge"><title>Node10&#45;&gt;Node8</title>
<path fill="none" stroke="midnightblue" d="M196.458,-264.337C207.772,-265.944 218.677,-267.493 228.318,-268.862"/>
<polygon fill="midnightblue" stroke="midnightblue" points="196.824,-260.854 186.431,-262.913 195.84,-267.785 196.824,-260.854"/>
</g>
<!-- Node11 -->
<g id="node11" class="node"><title>Node11</title>
<g id="a_node11"><a xlink:href="../../dc/d29/classocra_1_1SubjectBase.html" target="_top" xlink:title="ocra::SubjectBase\&lt;\l EVT_CHANGE_VALUE \&gt;">
<polygon fill="white" stroke="black" points="27,-186 27,-216 162,-216 162,-186 27,-186"/>
<text text-anchor="start" x="35" y="-204" font-family="Helvetica,sans-Serif" font-size="10.00">ocra::SubjectBase&lt;</text>
<text text-anchor="middle" x="94.5" y="-193" font-family="Helvetica,sans-Serif" font-size="10.00"> EVT_CHANGE_VALUE &gt;</text>
</a>
</g>
</g>
<!-- Node11&#45;&gt;Node8 -->
<g id="edge10" class="edge"><title>Node11&#45;&gt;Node8</title>
<path fill="none" stroke="midnightblue" d="M172.11,-218.468C177.903,-220.453 183.593,-222.627 189,-225 213.04,-235.548 238.043,-253.354 252.391,-264.35"/>
<polygon fill="midnightblue" stroke="midnightblue" points="172.889,-215.042 162.297,-215.303 170.74,-221.704 172.889,-215.042"/>
</g>
<!-- Node12 -->
<g id="node12" class="node"><title>Node12</title>
<g id="a_node12"><a xlink:href="../../dd/d68/classocra_1_1IFunctionProperties.html" target="_top" xlink:title="ocra::IFunctionProperties">
<polygon fill="white" stroke="black" points="362.5,-275.5 362.5,-294.5 488.5,-294.5 488.5,-275.5 362.5,-275.5"/>
<text text-anchor="middle" x="425.5" y="-282.5" font-family="Helvetica,sans-Serif" font-size="10.00">ocra::IFunctionProperties</text>
</a>
</g>
</g>
<!-- Node12&#45;&gt;Node2 -->
<g id="edge11" class="edge"><title>Node12&#45;&gt;Node2</title>
<path fill="none" stroke="midnightblue" d="M486.939,-272.694C494.485,-270.477 502.002,-267.921 509,-265 532.145,-255.337 556.404,-239.021 570.725,-228.642"/>
<polygon fill="midnightblue" stroke="midnightblue" points="485.757,-269.39 477.045,-275.418 487.615,-276.138 485.757,-269.39"/>
</g>
<!-- Node13 -->
<g id="node13" class="node"><title>Node13</title>
<polygon fill="white" stroke="#bfbfbf" points="342,-226 342,-256 509,-256 509,-226 342,-226"/>
<text text-anchor="start" x="350" y="-244" font-family="Helvetica,sans-Serif" font-size="10.00">OCRA_FUNCTION_INTERFACE</text>
<text text-anchor="middle" x="425.5" y="-233" font-family="Helvetica,sans-Serif" font-size="10.00">_INHERITANCEpublic</text>
</g>
<!-- Node13&#45;&gt;Node2 -->
<g id="edge12" class="edge"><title>Node13&#45;&gt;Node2</title>
<path fill="none" stroke="#8b1a1a" d="M519.262,-228.001C528.157,-226.755 536.799,-225.544 544.71,-224.436"/>
<polygon fill="#8b1a1a" stroke="#8b1a1a" points="518.555,-224.566 509.138,-229.42 519.527,-231.498 518.555,-224.566"/>
</g>
<!-- Node14 -->
<g id="node14" class="node"><title>Node14</title>
<g id="a_node14"><a xlink:href="../../db/de3/classocra_1_1NamedInstance.html" target="_top" xlink:title="ocra::NamedInstance">
<polygon fill="white" stroke="black" points="370.5,-187.5 370.5,-206.5 480.5,-206.5 480.5,-187.5 370.5,-187.5"/>
<text text-anchor="middle" x="425.5" y="-194.5" font-family="Helvetica,sans-Serif" font-size="10.00">ocra::NamedInstance</text>
</a>
</g>
</g>
<!-- Node14&#45;&gt;Node2 -->
<g id="edge13" class="edge"><title>Node14&#45;&gt;Node2</title>
<path fill="none" stroke="midnightblue" d="M490.592,-205.981C508.951,-208.554 528.4,-211.279 544.732,-213.568"/>
<polygon fill="midnightblue" stroke="midnightblue" points="490.919,-202.493 480.53,-204.571 489.948,-209.425 490.919,-202.493"/>
</g>
<!-- Node15 -->
<g id="node15" class="node"><title>Node15</title>
<g id="a_node15"><a xlink:href="../../d8/d24/classocra_1_1AbilitySet.html" target="_top" xlink:title="ocra::AbilitySet">
<polygon fill="white" stroke="black" points="384,-149.5 384,-168.5 467,-168.5 467,-149.5 384,-149.5"/>
<text text-anchor="middle" x="425.5" y="-156.5" font-family="Helvetica,sans-Serif" font-size="10.00">ocra::AbilitySet</text>
</a>
</g>
</g>
<!-- Node15&#45;&gt;Node2 -->
<g id="edge14" class="edge"><title>Node15&#45;&gt;Node2</title>
<path fill="none" stroke="midnightblue" d="M476.782,-168.244C487.579,-170.873 498.803,-174.107 509,-178 530.93,-186.373 554.357,-200.161 568.963,-209.408"/>
<polygon fill="midnightblue" stroke="midnightblue" points="477.559,-164.832 467.029,-165.999 475.988,-171.653 477.559,-164.832"/>
</g>
<!-- Node16 -->
<g id="node16" class="node"><title>Node16</title>
<g id="a_node16"><a xlink:href="../../d5/dc0/classocra_1_1CoupledInputOutputSize.html" target="_top" xlink:title="ocra::CoupledInputOutputSize">
<polygon fill="white" stroke="black" points="351.5,-111.5 351.5,-130.5 499.5,-130.5 499.5,-111.5 351.5,-111.5"/>
<text text-anchor="middle" x="425.5" y="-118.5" font-family="Helvetica,sans-Serif" font-size="10.00">ocra::CoupledInputOutputSize</text>
</a>
</g>
</g>
<!-- Node16&#45;&gt;Node2 -->
<g id="edge15" class="edge"><title>Node16&#45;&gt;Node2</title>
<path fill="none" stroke="midnightblue" d="M496.654,-134.041C500.939,-135.784 505.093,-137.76 509,-140 539.911,-157.72 565.787,-192.335 577.214,-209.24"/>
<polygon fill="midnightblue" stroke="midnightblue" points="497.702,-130.698 487.107,-130.586 495.319,-137.281 497.702,-130.698"/>
</g>
<!-- Node18 -->
<g id="node18" class="node"><title>Node18</title>
<g id="a_node18"><a xlink:href="../../da/d90/classocra_1_1FullContactAvoidanceFunction.html" target="_top" xlink:title="Create a linear function that represents the contact avoidance function for the full formalism...">
<polygon fill="white" stroke="black" points="1011,-492 1011,-522 1148,-522 1148,-492 1011,-492"/>
<text text-anchor="start" x="1019" y="-510" font-family="Helvetica,sans-Serif" font-size="10.00">ocra::FullContactAvoidance</text>
<text text-anchor="middle" x="1079.5" y="-499" font-family="Helvetica,sans-Serif" font-size="10.00">Function</text>
</a>
</g>
</g>
<!-- Node17&#45;&gt;Node18 -->
<g id="edge17" class="edge"><title>Node17&#45;&gt;Node18</title>
<path fill="none" stroke="midnightblue" d="M930.934,-470.014C957.35,-476.635 990.39,-484.916 1018.51,-491.963"/>
<polygon fill="midnightblue" stroke="midnightblue" points="931.709,-466.6 921.158,-467.564 930.007,-473.39 931.709,-466.6"/>
</g>
<!-- Node19 -->
<g id="node19" class="node"><title>Node19</title>
<g id="a_node19"><a xlink:href="../../db/d40/classocra_1_1ReducedContactAvoidanceFunction.html" target="_top" xlink:title="Create a linear function that represents the contact avoidance function for the reduced formalism...">
<polygon fill="white" stroke="black" points="999,-443 999,-473 1160,-473 1160,-443 999,-443"/>
<text text-anchor="start" x="1007" y="-461" font-family="Helvetica,sans-Serif" font-size="10.00">ocra::ReducedContactAvoidance</text>
<text text-anchor="middle" x="1079.5" y="-450" font-family="Helvetica,sans-Serif" font-size="10.00">Function</text>
</a>
</g>
</g>
<!-- Node17&#45;&gt;Node19 -->
<g id="edge18" class="edge"><title>Node17&#45;&gt;Node19</title>
<path fill="none" stroke="midnightblue" d="M971.758,-458C980.743,-458 989.831,-458 998.714,-458"/>
<polygon fill="midnightblue" stroke="midnightblue" points="971.672,-454.5 961.672,-458 971.672,-461.5 971.672,-454.5"/>
</g>
<!-- Node21 -->
<g id="node21" class="node"><title>Node21</title>
<g id="a_node21"><a xlink:href="../../dd/d77/classocra_1_1BoundFunction.html" target="_top" xlink:title="BoundFunction class. ">
<polygon fill="white" stroke="black" points="1026,-404.5 1026,-423.5 1133,-423.5 1133,-404.5 1026,-404.5"/>
<text text-anchor="middle" x="1079.5" y="-411.5" font-family="Helvetica,sans-Serif" font-size="10.00">ocra::BoundFunction</text>
</a>
</g>
</g>
<!-- Node20&#45;&gt;Node21 -->
<g id="edge20" class="edge"><title>Node20&#45;&gt;Node21</title>
<path fill="none" stroke="midnightblue" d="M963.76,-414C984.709,-414 1006.73,-414 1025.82,-414"/>
<polygon fill="midnightblue" stroke="midnightblue" points="963.58,-410.5 953.58,-414 963.58,-417.5 963.58,-410.5"/>
</g>
<!-- Node22 -->
<g id="node22" class="node"><title>Node22</title>
<g id="a_node22"><a xlink:href="../../d4/d58/classocra_1_1IdentityFunction.html" target="_top" xlink:title="IdentityFunction class. ">
<polygon fill="white" stroke="black" points="1024,-366.5 1024,-385.5 1135,-385.5 1135,-366.5 1024,-366.5"/>
<text text-anchor="middle" x="1079.5" y="-373.5" font-family="Helvetica,sans-Serif" font-size="10.00">ocra::IdentityFunction</text>
</a>
</g>
</g>
<!-- Node20&#45;&gt;Node22 -->
<g id="edge21" class="edge"><title>Node20&#45;&gt;Node22</title>
<path fill="none" stroke="midnightblue" d="M942.11,-402.511C970.004,-397.089 1002.9,-390.694 1029.4,-385.544"/>
<polygon fill="midnightblue" stroke="midnightblue" points="941.229,-399.116 932.081,-404.46 942.565,-405.988 941.229,-399.116"/>
</g>
<!-- Node27 -->
<g id="node27" class="node"><title>Node27</title>
<g id="a_node27"><a xlink:href="../../df/d42/classocra_1_1FullJointLimitFunction.html" target="_top" xlink:title="Create a linear function that represents the joint limit function for the full formalism. ">
<polygon fill="white" stroke="black" points="1011,-247.5 1011,-266.5 1148,-266.5 1148,-247.5 1011,-247.5"/>
<text text-anchor="middle" x="1079.5" y="-254.5" font-family="Helvetica,sans-Serif" font-size="10.00">ocra::FullJointLimitFunction</text>
</a>
</g>
</g>
<!-- Node26&#45;&gt;Node27 -->
<g id="edge26" class="edge"><title>Node26&#45;&gt;Node27</title>
<path fill="none" stroke="midnightblue" d="M952.757,-244.779C971.685,-246.619 992.142,-248.607 1010.95,-250.435"/>
<polygon fill="midnightblue" stroke="midnightblue" points="953.01,-241.288 942.719,-243.804 952.333,-248.255 953.01,-241.288"/>
</g>
<!-- Node28 -->
<g id="node28" class="node"><title>Node28</title>
<g id="a_node28"><a xlink:href="../../dc/daa/classocra_1_1ReducedJointLimitFunction.html" target="_top" xlink:title="Create a linear function that represents the joint limit function for the reduced formalism...">
<polygon fill="white" stroke="black" points="999.5,-209.5 999.5,-228.5 1159.5,-228.5 1159.5,-209.5 999.5,-209.5"/>
<text text-anchor="middle" x="1079.5" y="-216.5" font-family="Helvetica,sans-Serif" font-size="10.00">ocra::ReducedJointLimitFunction</text>
</a>
</g>
</g>
<!-- Node26&#45;&gt;Node28 -->
<g id="edge27" class="edge"><title>Node26&#45;&gt;Node28</title>
<path fill="none" stroke="midnightblue" d="M952.954,-231.201C967.987,-229.74 983.976,-228.186 999.331,-226.694"/>
<polygon fill="midnightblue" stroke="midnightblue" points="952.333,-227.745 942.719,-232.196 953.01,-234.712 952.333,-227.745"/>
</g>
</g>
</svg>
