<?xml version="1.0" encoding="UTF-8" standalone="no"?>
<!DOCTYPE svg PUBLIC "-//W3C//DTD SVG 1.1//EN"
 "http://www.w3.org/Graphics/SVG/1.1/DTD/svg11.dtd">
<!-- Generated by graphviz version 2.38.0 (20140413.2041)
 -->
<!-- Title: PartialState.cpp Pages: 1 -->
<svg width="1852pt" height="386pt"
 viewBox="0.00 0.00 1851.50 386.00" xmlns="http://www.w3.org/2000/svg" xmlns:xlink="http://www.w3.org/1999/xlink">
<g id="graph0" class="graph" transform="scale(1 1) rotate(0) translate(4 382)">
<title>PartialState.cpp</title>
<polygon fill="white" stroke="none" points="-4,4 -4,-382 1847.5,-382 1847.5,4 -4,4"/>
<!-- Node1 -->
<g id="node1" class="node"><title>Node1</title>
<polygon fill="#bfbfbf" stroke="black" points="181.5,-358.5 181.5,-377.5 267.5,-377.5 267.5,-358.5 181.5,-358.5"/>
<text text-anchor="middle" x="224.5" y="-365.5" font-family="Helvetica,sans-Serif" font-size="10.00">PartialState.cpp</text>
</g>
<!-- Node2 -->
<g id="node2" class="node"><title>Node2</title>
<g id="a_node2"><a xlink:href="../../d9/daf/PartialState_8h.html" target="_top" xlink:title="Define partial state classes that can be used to control some joints of the robot. ">
<polygon fill="white" stroke="black" points="159.5,-302.5 159.5,-321.5 289.5,-321.5 289.5,-302.5 159.5,-302.5"/>
<text text-anchor="middle" x="224.5" y="-309.5" font-family="Helvetica,sans-Serif" font-size="10.00">ocra/control/PartialState.h</text>
</a>
</g>
</g>
<!-- Node1&#45;&gt;Node2 -->
<g id="edge1" class="edge"><title>Node1&#45;&gt;Node2</title>
<path fill="none" stroke="midnightblue" d="M224.5,-358.083C224.5,-351.006 224.5,-340.861 224.5,-331.986"/>
<polygon fill="midnightblue" stroke="midnightblue" points="228,-331.751 224.5,-321.751 221,-331.751 228,-331.751"/>
</g>
<!-- Node36 -->
<g id="node36" class="node"><title>Node36</title>
<polygon fill="white" stroke="#bfbfbf" points="1151.5,-190.5 1151.5,-209.5 1205.5,-209.5 1205.5,-190.5 1151.5,-190.5"/>
<text text-anchor="middle" x="1178.5" y="-197.5" font-family="Helvetica,sans-Serif" font-size="10.00">iostream</text>
</g>
<!-- Node1&#45;&gt;Node36 -->
<g id="edge59" class="edge"><title>Node1&#45;&gt;Node36</title>
<path fill="none" stroke="midnightblue" d="M267.668,-360.694C399.294,-341.232 806.979,-279.236 1141.5,-210 1141.6,-209.979 1141.7,-209.958 1141.8,-209.937"/>
<polygon fill="midnightblue" stroke="midnightblue" points="1142.46,-213.376 1151.47,-207.803 1140.95,-206.541 1142.46,-213.376"/>
</g>
<!-- Node38 -->
<g id="node38" class="node"><title>Node38</title>
<g id="a_node38"><a xlink:href="../../da/dfc/FullState_8h.html" target="_top" xlink:title="ocra/control/FullState.h">
<polygon fill="white" stroke="black" points="40.5,-246.5 40.5,-265.5 158.5,-265.5 158.5,-246.5 40.5,-246.5"/>
<text text-anchor="middle" x="99.5" y="-253.5" font-family="Helvetica,sans-Serif" font-size="10.00">ocra/control/FullState.h</text>
</a>
</g>
</g>
<!-- Node1&#45;&gt;Node38 -->
<g id="edge54" class="edge"><title>Node1&#45;&gt;Node38</title>
<path fill="none" stroke="midnightblue" d="M206.558,-358.425C190.777,-350.363 167.705,-337.272 150.5,-322 134.637,-307.92 120.083,-288.418 110.619,-274.456"/>
<polygon fill="midnightblue" stroke="midnightblue" points="113.349,-272.237 104.927,-265.81 107.502,-276.087 113.349,-272.237"/>
</g>
<!-- Node3 -->
<g id="node3" class="node"><title>Node3</title>
<g id="a_node3"><a xlink:href="../../df/d97/NamedInstance_8h.html" target="_top" xlink:title="ocra/optim/NamedInstance.h">
<polygon fill="white" stroke="black" points="279,-190.5 279,-209.5 422,-209.5 422,-190.5 279,-190.5"/>
<text text-anchor="middle" x="350.5" y="-197.5" font-family="Helvetica,sans-Serif" font-size="10.00">ocra/optim/NamedInstance.h</text>
</a>
</g>
</g>
<!-- Node2&#45;&gt;Node3 -->
<g id="edge2" class="edge"><title>Node2&#45;&gt;Node3</title>
<path fill="none" stroke="midnightblue" d="M234.387,-302.368C255.641,-283.814 305.927,-239.913 332.817,-216.438"/>
<polygon fill="midnightblue" stroke="midnightblue" points="335.428,-218.805 340.659,-209.591 330.824,-213.531 335.428,-218.805"/>
</g>
<!-- Node5 -->
<g id="node5" class="node"><title>Node5</title>
<g id="a_node5"><a xlink:href="../../d3/d5a/Model_8h.html" target="_top" xlink:title="Declaration file of the Model class. ">
<polygon fill="white" stroke="black" points="692,-246.5 692,-265.5 797,-265.5 797,-246.5 692,-246.5"/>
<text text-anchor="middle" x="744.5" y="-253.5" font-family="Helvetica,sans-Serif" font-size="10.00">ocra/control/Model.h</text>
</a>
</g>
</g>
<!-- Node2&#45;&gt;Node5 -->
<g id="edge4" class="edge"><title>Node2&#45;&gt;Node5</title>
<path fill="none" stroke="midnightblue" d="M289.569,-304.243C390.244,-293.788 582.481,-273.825 681.737,-263.518"/>
<polygon fill="midnightblue" stroke="midnightblue" points="682.332,-266.975 691.917,-262.461 681.609,-260.012 682.332,-266.975"/>
</g>
<!-- Node31 -->
<g id="node31" class="node"><title>Node31</title>
<polygon fill="white" stroke="#bfbfbf" points="0,-134.5 0,-153.5 65,-153.5 65,-134.5 0,-134.5"/>
<text text-anchor="middle" x="32.5" y="-141.5" font-family="Helvetica,sans-Serif" font-size="10.00">Eigen/Core</text>
</g>
<!-- Node2&#45;&gt;Node31 -->
<g id="edge52" class="edge"><title>Node2&#45;&gt;Node31</title>
<path fill="none" stroke="midnightblue" d="M159.386,-304.444C109.78,-297.947 47.3811,-286.01 31.5,-266 8.18846,-236.628 17.8718,-189.388 25.8712,-163.478"/>
<polygon fill="midnightblue" stroke="midnightblue" points="29.2572,-164.388 29.0953,-153.794 22.6156,-162.176 29.2572,-164.388"/>
</g>
<!-- Node32 -->
<g id="node32" class="node"><title>Node32</title>
<polygon fill="white" stroke="#bfbfbf" points="83.5,-134.5 83.5,-153.5 191.5,-153.5 191.5,-134.5 83.5,-134.5"/>
<text text-anchor="middle" x="137.5" y="-141.5" font-family="Helvetica,sans-Serif" font-size="10.00">boost/shared_ptr.hpp</text>
</g>
<!-- Node2&#45;&gt;Node32 -->
<g id="edge53" class="edge"><title>Node2&#45;&gt;Node32</title>
<path fill="none" stroke="midnightblue" d="M217.319,-302.371C203.675,-285.586 173.821,-246.938 156.5,-210 149.481,-195.031 144.44,-176.894 141.322,-163.586"/>
<polygon fill="midnightblue" stroke="midnightblue" points="144.718,-162.735 139.154,-153.719 137.881,-164.237 144.718,-162.735"/>
</g>
<!-- Node33 -->
<g id="node33" class="node"><title>Node33</title>
<g id="a_node33"><a xlink:href="../../df/d0a/Macros_8h.html" target="_top" xlink:title="ocra/util/Macros.h">
<polygon fill="white" stroke="black" points="166,-190.5 166,-209.5 261,-209.5 261,-190.5 166,-190.5"/>
<text text-anchor="middle" x="213.5" y="-197.5" font-family="Helvetica,sans-Serif" font-size="10.00">ocra/util/Macros.h</text>
</a>
</g>
</g>
<!-- Node2&#45;&gt;Node33 -->
<g id="edge51" class="edge"><title>Node2&#45;&gt;Node33</title>
<path fill="none" stroke="midnightblue" d="M223.637,-302.368C221.862,-284.617 217.767,-243.666 215.36,-219.597"/>
<polygon fill="midnightblue" stroke="midnightblue" points="218.837,-219.193 214.359,-209.591 211.872,-219.89 218.837,-219.193"/>
</g>
<!-- Node4 -->
<g id="node4" class="node"><title>Node4</title>
<polygon fill="white" stroke="#bfbfbf" points="687,-134.5 687,-153.5 728,-153.5 728,-134.5 687,-134.5"/>
<text text-anchor="middle" x="707.5" y="-141.5" font-family="Helvetica,sans-Serif" font-size="10.00">string</text>
</g>
<!-- Node3&#45;&gt;Node4 -->
<g id="edge3" class="edge"><title>Node3&#45;&gt;Node4</title>
<path fill="none" stroke="midnightblue" d="M407.068,-190.444C483.483,-178.885 617.006,-158.688 676.901,-149.628"/>
<polygon fill="midnightblue" stroke="midnightblue" points="677.501,-153.078 686.865,-148.121 676.454,-146.156 677.501,-153.078"/>
</g>
<!-- Node5&#45;&gt;Node3 -->
<g id="edge40" class="edge"><title>Node5&#45;&gt;Node3</title>
<path fill="none" stroke="midnightblue" d="M691.772,-247.773C622.538,-238.284 500.676,-221.582 422.855,-210.917"/>
<polygon fill="midnightblue" stroke="midnightblue" points="423.03,-207.408 412.648,-209.518 422.08,-214.343 423.03,-207.408"/>
</g>
<!-- Node5&#45;&gt;Node4 -->
<g id="edge48" class="edge"><title>Node5&#45;&gt;Node4</title>
<path fill="none" stroke="midnightblue" d="M764.611,-246.379C788.546,-234.835 823.505,-213.112 808.5,-190 800.343,-177.436 764.596,-163.467 737.93,-154.475"/>
<polygon fill="midnightblue" stroke="midnightblue" points="738.823,-151.085 728.23,-151.286 736.637,-157.735 738.823,-151.085"/>
</g>
<!-- Node6 -->
<g id="node6" class="node"><title>Node6</title>
<g id="a_node6"><a xlink:href="../../d5/d55/MathTypes_8h.html" target="_top" xlink:title="Declaration file of the OptimizationVariable class. ">
<polygon fill="white" stroke="black" points="856,-190.5 856,-209.5 967,-209.5 967,-190.5 856,-190.5"/>
<text text-anchor="middle" x="911.5" y="-197.5" font-family="Helvetica,sans-Serif" font-size="10.00">ocra/util/MathTypes.h</text>
</a>
</g>
</g>
<!-- Node5&#45;&gt;Node6 -->
<g id="edge5" class="edge"><title>Node5&#45;&gt;Node6</title>
<path fill="none" stroke="midnightblue" d="M770.962,-246.444C799.178,-237.32 844.04,-222.813 875.468,-212.651"/>
<polygon fill="midnightblue" stroke="midnightblue" points="876.724,-215.923 885.162,-209.516 874.57,-209.263 876.724,-215.923"/>
</g>
<!-- Node9 -->
<g id="node9" class="node"><title>Node9</title>
<g id="a_node9"><a xlink:href="../../d8/ddc/ObserverSubject_8h.html" target="_top" xlink:title="Declaration file of the Observer, Subject and ObserverSubject classes. ">
<polygon fill="white" stroke="black" points="900.5,-134.5 900.5,-153.5 1046.5,-153.5 1046.5,-134.5 900.5,-134.5"/>
<text text-anchor="middle" x="973.5" y="-141.5" font-family="Helvetica,sans-Serif" font-size="10.00">ocra/optim/ObserverSubject.h</text>
</a>
</g>
</g>
<!-- Node5&#45;&gt;Node9 -->
<g id="edge8" class="edge"><title>Node5&#45;&gt;Node9</title>
<path fill="none" stroke="midnightblue" d="M797.177,-252.29C858.238,-247.917 953.35,-236.881 975.5,-210 986.027,-197.224 983.839,-177.76 980.048,-163.46"/>
<polygon fill="midnightblue" stroke="midnightblue" points="983.333,-162.237 977.021,-153.728 976.649,-164.316 983.333,-162.237"/>
</g>
<!-- Node20 -->
<g id="node20" class="node"><title>Node20</title>
<g id="a_node20"><a xlink:href="../../d7/d90/Variable_8h.html" target="_top" xlink:title="Declaration file of the Variable class. ">
<polygon fill="white" stroke="black" points="1024,-190.5 1024,-209.5 1133,-209.5 1133,-190.5 1024,-190.5"/>
<text text-anchor="middle" x="1078.5" y="-197.5" font-family="Helvetica,sans-Serif" font-size="10.00">ocra/optim/Variable.h</text>
</a>
</g>
</g>
<!-- Node5&#45;&gt;Node20 -->
<g id="edge22" class="edge"><title>Node5&#45;&gt;Node20</title>
<path fill="none" stroke="midnightblue" d="M797.055,-246.503C856.222,-236.937 952.318,-221.401 1015.47,-211.19"/>
<polygon fill="midnightblue" stroke="midnightblue" points="1016.39,-214.588 1025.7,-209.536 1015.27,-207.677 1016.39,-214.588"/>
</g>
<!-- Node30 -->
<g id="node30" class="node"><title>Node30</title>
<g id="a_node30"><a xlink:href="../../d9/d5d/ModelContacts_8h.html" target="_top" xlink:title="Declaration file of the ModelContacts class. ">
<polygon fill="white" stroke="black" points="440,-190.5 440,-209.5 585,-209.5 585,-190.5 440,-190.5"/>
<text text-anchor="middle" x="512.5" y="-197.5" font-family="Helvetica,sans-Serif" font-size="10.00">ocra/control/ModelContacts.h</text>
</a>
</g>
</g>
<!-- Node5&#45;&gt;Node30 -->
<g id="edge41" class="edge"><title>Node5&#45;&gt;Node30</title>
<path fill="none" stroke="midnightblue" d="M707.739,-246.444C667.437,-237.063 602.691,-221.993 558.915,-211.804"/>
<polygon fill="midnightblue" stroke="midnightblue" points="559.622,-208.375 549.089,-209.516 558.035,-215.192 559.622,-208.375"/>
</g>
<!-- Node5&#45;&gt;Node33 -->
<g id="edge45" class="edge"><title>Node5&#45;&gt;Node33</title>
<path fill="none" stroke="midnightblue" d="M691.659,-251.12C605.631,-244.557 429.738,-230.108 271.071,-210.132"/>
<polygon fill="midnightblue" stroke="midnightblue" points="271.49,-206.657 261.129,-208.87 270.608,-213.602 271.49,-206.657"/>
</g>
<!-- Node35 -->
<g id="node35" class="node"><title>Node35</title>
<polygon fill="white" stroke="#bfbfbf" points="603.5,-190.5 603.5,-209.5 671.5,-209.5 671.5,-190.5 603.5,-190.5"/>
<text text-anchor="middle" x="637.5" y="-197.5" font-family="Helvetica,sans-Serif" font-size="10.00">Eigen/Lgsm</text>
</g>
<!-- Node5&#45;&gt;Node35 -->
<g id="edge47" class="edge"><title>Node5&#45;&gt;Node35</title>
<path fill="none" stroke="midnightblue" d="M727.309,-246.324C710.149,-237.664 683.554,-224.242 663.753,-214.249"/>
<polygon fill="midnightblue" stroke="midnightblue" points="665.153,-211.035 654.649,-209.655 661.999,-217.285 665.153,-211.035"/>
</g>
<!-- Node5&#45;&gt;Node36 -->
<g id="edge49" class="edge"><title>Node5&#45;&gt;Node36</title>
<path fill="none" stroke="midnightblue" d="M797.144,-251.153C871.519,-245.251 1011.73,-232.412 1141.02,-209.854"/>
<polygon fill="midnightblue" stroke="midnightblue" points="1141.86,-213.259 1151.1,-208.071 1140.65,-206.366 1141.86,-213.259"/>
</g>
<!-- Node37 -->
<g id="node37" class="node"><title>Node37</title>
<polygon fill="white" stroke="#bfbfbf" points="689.5,-190.5 689.5,-209.5 799.5,-209.5 799.5,-190.5 689.5,-190.5"/>
<text text-anchor="middle" x="744.5" y="-197.5" font-family="Helvetica,sans-Serif" font-size="10.00">yarp/os/Semaphore.h</text>
</g>
<!-- Node5&#45;&gt;Node37 -->
<g id="edge50" class="edge"><title>Node5&#45;&gt;Node37</title>
<path fill="none" stroke="midnightblue" d="M744.5,-246.083C744.5,-239.006 744.5,-228.861 744.5,-219.986"/>
<polygon fill="midnightblue" stroke="midnightblue" points="748,-219.751 744.5,-209.751 741,-219.751 748,-219.751"/>
</g>
<!-- Node7 -->
<g id="node7" class="node"><title>Node7</title>
<polygon fill="white" stroke="#bfbfbf" points="809,-134.5 809,-153.5 882,-153.5 882,-134.5 809,-134.5"/>
<text text-anchor="middle" x="845.5" y="-141.5" font-family="Helvetica,sans-Serif" font-size="10.00">Eigen/Dense</text>
</g>
<!-- Node6&#45;&gt;Node7 -->
<g id="edge6" class="edge"><title>Node6&#45;&gt;Node7</title>
<path fill="none" stroke="midnightblue" d="M900.896,-190.324C891.044,-182.263 876.149,-170.077 864.285,-160.369"/>
<polygon fill="midnightblue" stroke="midnightblue" points="866.253,-157.457 856.297,-153.834 861.82,-162.875 866.253,-157.457"/>
</g>
<!-- Node8 -->
<g id="node8" class="node"><title>Node8</title>
<polygon fill="white" stroke="#bfbfbf" points="746.5,-134.5 746.5,-153.5 790.5,-153.5 790.5,-134.5 746.5,-134.5"/>
<text text-anchor="middle" x="768.5" y="-141.5" font-family="Helvetica,sans-Serif" font-size="10.00">cmath</text>
</g>
<!-- Node6&#45;&gt;Node8 -->
<g id="edge7" class="edge"><title>Node6&#45;&gt;Node8</title>
<path fill="none" stroke="midnightblue" d="M888.841,-190.444C864.958,-181.425 827.149,-167.147 800.289,-157.004"/>
<polygon fill="midnightblue" stroke="midnightblue" points="801.175,-153.597 790.583,-153.339 798.702,-160.146 801.175,-153.597"/>
</g>
<!-- Node10 -->
<g id="node10" class="node"><title>Node10</title>
<g id="a_node10"><a xlink:href="../../df/d67/ObserverSubjectBase_8h.html" target="_top" xlink:title="Declaration file of the Observer and Subject base classes. ">
<polygon fill="white" stroke="black" points="623.5,-67.5 623.5,-97.5 761.5,-97.5 761.5,-67.5 623.5,-67.5"/>
<text text-anchor="start" x="631.5" y="-85.5" font-family="Helvetica,sans-Serif" font-size="10.00">ocra/optim/ObserverSubject</text>
<text text-anchor="middle" x="692.5" y="-74.5" font-family="Helvetica,sans-Serif" font-size="10.00">Base.h</text>
</a>
</g>
</g>
<!-- Node9&#45;&gt;Node10 -->
<g id="edge9" class="edge"><title>Node9&#45;&gt;Node10</title>
<path fill="none" stroke="midnightblue" d="M933.24,-134.475C890.469,-125.419 821.84,-110.887 768.78,-99.6518"/>
<polygon fill="midnightblue" stroke="midnightblue" points="769.234,-96.1705 758.726,-97.523 767.784,-103.019 769.234,-96.1705"/>
</g>
<!-- Node14 -->
<g id="node14" class="node"><title>Node14</title>
<polygon fill="white" stroke="#bfbfbf" points="426.5,-0.5 426.5,-30.5 526.5,-30.5 526.5,-0.5 426.5,-0.5"/>
<text text-anchor="start" x="434.5" y="-18.5" font-family="Helvetica,sans-Serif" font-size="10.00">boost/type_traits/is</text>
<text text-anchor="middle" x="476.5" y="-7.5" font-family="Helvetica,sans-Serif" font-size="10.00">_class.hpp</text>
</g>
<!-- Node9&#45;&gt;Node14 -->
<g id="edge21" class="edge"><title>Node9&#45;&gt;Node14</title>
<path fill="none" stroke="midnightblue" d="M900.481,-134.615C799.448,-122.903 627.856,-102.561 614.5,-98 572.863,-83.7812 530.012,-56.0334 503.333,-36.8946"/>
<polygon fill="midnightblue" stroke="midnightblue" points="505.072,-33.8309 494.93,-30.766 500.947,-39.4865 505.072,-33.8309"/>
</g>
<!-- Node15 -->
<g id="node15" class="node"><title>Node15</title>
<polygon fill="white" stroke="#bfbfbf" points="836.5,-0.5 836.5,-30.5 936.5,-30.5 936.5,-0.5 836.5,-0.5"/>
<text text-anchor="start" x="844.5" y="-18.5" font-family="Helvetica,sans-Serif" font-size="10.00">boost/type_traits/is</text>
<text text-anchor="middle" x="886.5" y="-7.5" font-family="Helvetica,sans-Serif" font-size="10.00">_base_of.hpp</text>
</g>
<!-- Node9&#45;&gt;Node15 -->
<g id="edge19" class="edge"><title>Node9&#45;&gt;Node15</title>
<path fill="none" stroke="midnightblue" d="M913.84,-134.452C872.061,-127.104 821.476,-114.989 808.5,-98 800.137,-87.0507 801.917,-79.1036 808.5,-67 815.764,-53.6431 828.252,-43.2762 841.133,-35.5082"/>
<polygon fill="midnightblue" stroke="midnightblue" points="843.019,-38.4638 850.053,-30.5408 839.614,-32.348 843.019,-38.4638"/>
</g>
<!-- Node16 -->
<g id="node16" class="node"><title>Node16</title>
<polygon fill="white" stroke="#bfbfbf" points="955,-6 955,-25 1074,-25 1074,-6 955,-6"/>
<text text-anchor="middle" x="1014.5" y="-13" font-family="Helvetica,sans-Serif" font-size="10.00">boost/static_assert.hpp</text>
</g>
<!-- Node9&#45;&gt;Node16 -->
<g id="edge18" class="edge"><title>Node9&#45;&gt;Node16</title>
<path fill="none" stroke="midnightblue" d="M975.157,-134.432C978.014,-120.217 984.353,-90.949 992.5,-67 996.255,-55.9631 1001.42,-43.9861 1005.81,-34.4671"/>
<polygon fill="midnightblue" stroke="midnightblue" points="1009.05,-35.8008 1010.15,-25.2636 1002.72,-32.8125 1009.05,-35.8008"/>
</g>
<!-- Node18 -->
<g id="node18" class="node"><title>Node18</title>
<g id="a_node18"><a xlink:href="../../db/ddf/ocra__events_8h.html" target="_top" xlink:title="ocra/optim/ocra_events.h">
<polygon fill="white" stroke="black" points="818,-73 818,-92 945,-92 945,-73 818,-73"/>
<text text-anchor="middle" x="881.5" y="-80" font-family="Helvetica,sans-Serif" font-size="10.00">ocra/optim/ocra_events.h</text>
</a>
</g>
</g>
<!-- Node9&#45;&gt;Node18 -->
<g id="edge17" class="edge"><title>Node9&#45;&gt;Node18</title>
<path fill="none" stroke="midnightblue" d="M960.319,-134.475C945.426,-124.843 920.956,-109.017 903.227,-97.5517"/>
<polygon fill="midnightblue" stroke="midnightblue" points="904.955,-94.5008 894.657,-92.0091 901.153,-100.379 904.955,-94.5008"/>
</g>
<!-- Node19 -->
<g id="node19" class="node"><title>Node19</title>
<polygon fill="white" stroke="#bfbfbf" points="1001.5,-67.5 1001.5,-97.5 1101.5,-97.5 1101.5,-67.5 1001.5,-67.5"/>
<text text-anchor="start" x="1009.5" y="-85.5" font-family="Helvetica,sans-Serif" font-size="10.00">boost/type_traits/is</text>
<text text-anchor="middle" x="1051.5" y="-74.5" font-family="Helvetica,sans-Serif" font-size="10.00">_convertible.hpp</text>
</g>
<!-- Node9&#45;&gt;Node19 -->
<g id="edge20" class="edge"><title>Node9&#45;&gt;Node19</title>
<path fill="none" stroke="midnightblue" d="M984.675,-134.475C995.141,-126.492 1011.18,-114.254 1024.93,-103.77"/>
<polygon fill="midnightblue" stroke="midnightblue" points="1027.29,-106.371 1033.12,-97.523 1023.04,-100.805 1027.29,-106.371"/>
</g>
<!-- Node11 -->
<g id="node11" class="node"><title>Node11</title>
<polygon fill="white" stroke="#bfbfbf" points="663,-6 663,-25 722,-25 722,-6 663,-6"/>
<text text-anchor="middle" x="692.5" y="-13" font-family="Helvetica,sans-Serif" font-size="10.00">functional</text>
</g>
<!-- Node10&#45;&gt;Node11 -->
<g id="edge10" class="edge"><title>Node10&#45;&gt;Node11</title>
<path fill="none" stroke="midnightblue" d="M692.5,-67.396C692.5,-58.0638 692.5,-45.7143 692.5,-35.5173"/>
<polygon fill="midnightblue" stroke="midnightblue" points="696,-35.1945 692.5,-25.1945 689,-35.1946 696,-35.1945"/>
</g>
<!-- Node12 -->
<g id="node12" class="node"><title>Node12</title>
<polygon fill="white" stroke="#bfbfbf" points="1135.5,-6 1135.5,-25 1191.5,-25 1191.5,-6 1135.5,-6"/>
<text text-anchor="middle" x="1163.5" y="-13" font-family="Helvetica,sans-Serif" font-size="10.00">algorithm</text>
</g>
<!-- Node10&#45;&gt;Node12 -->
<g id="edge11" class="edge"><title>Node10&#45;&gt;Node12</title>
<path fill="none" stroke="midnightblue" d="M761.597,-72.7376C865.095,-59.5846 1051.59,-35.7654 1082.5,-31 1096.56,-28.8319 1111.95,-26.1558 1125.49,-23.6952"/>
<polygon fill="midnightblue" stroke="midnightblue" points="1126.24,-27.1169 1135.44,-21.8675 1124.97,-20.2321 1126.24,-27.1169"/>
</g>
<!-- Node13 -->
<g id="node13" class="node"><title>Node13</title>
<polygon fill="white" stroke="#bfbfbf" points="740.5,-6 740.5,-25 818.5,-25 818.5,-6 740.5,-6"/>
<text text-anchor="middle" x="779.5" y="-13" font-family="Helvetica,sans-Serif" font-size="10.00">boost/any.hpp</text>
</g>
<!-- Node10&#45;&gt;Node13 -->
<g id="edge12" class="edge"><title>Node10&#45;&gt;Node13</title>
<path fill="none" stroke="midnightblue" d="M711.378,-67.396C725.614,-56.7593 745.098,-42.2028 759.582,-31.3813"/>
<polygon fill="midnightblue" stroke="midnightblue" points="761.946,-33.9837 767.863,-25.1945 757.757,-28.376 761.946,-33.9837"/>
</g>
<!-- Node10&#45;&gt;Node14 -->
<g id="edge13" class="edge"><title>Node10&#45;&gt;Node14</title>
<path fill="none" stroke="midnightblue" d="M645.897,-67.476C612.796,-57.5149 568.171,-44.0862 533.033,-33.5123"/>
<polygon fill="midnightblue" stroke="midnightblue" points="533.976,-30.1411 523.392,-30.6109 531.959,-36.8441 533.976,-30.1411"/>
</g>
<!-- Node10&#45;&gt;Node15 -->
<g id="edge14" class="edge"><title>Node10&#45;&gt;Node15</title>
<path fill="none" stroke="midnightblue" d="M734.595,-67.396C763.958,-57.558 803.328,-44.3668 834.63,-33.879"/>
<polygon fill="midnightblue" stroke="midnightblue" points="836.117,-37.0722 844.487,-30.5765 833.893,-30.4348 836.117,-37.0722"/>
</g>
<!-- Node10&#45;&gt;Node16 -->
<g id="edge15" class="edge"><title>Node10&#45;&gt;Node16</title>
<path fill="none" stroke="midnightblue" d="M761.53,-67.9169C812.415,-57.8567 883.302,-43.7425 945.5,-31 951.638,-29.7425 958.08,-28.4081 964.46,-27.0779"/>
<polygon fill="midnightblue" stroke="midnightblue" points="965.308,-30.4763 974.38,-25.0027 963.875,-23.6246 965.308,-30.4763"/>
</g>
<!-- Node17 -->
<g id="node17" class="node"><title>Node17</title>
<polygon fill="white" stroke="#bfbfbf" points="544.5,-0.5 544.5,-30.5 644.5,-30.5 644.5,-0.5 544.5,-0.5"/>
<text text-anchor="start" x="552.5" y="-18.5" font-family="Helvetica,sans-Serif" font-size="10.00">boost/ptr_container</text>
<text text-anchor="middle" x="594.5" y="-7.5" font-family="Helvetica,sans-Serif" font-size="10.00">/ptr_vector.hpp</text>
</g>
<!-- Node10&#45;&gt;Node17 -->
<g id="edge16" class="edge"><title>Node10&#45;&gt;Node17</title>
<path fill="none" stroke="midnightblue" d="M671.235,-67.396C657.494,-58.282 639.414,-46.2902 624.256,-36.236"/>
<polygon fill="midnightblue" stroke="midnightblue" points="625.991,-33.1872 615.723,-30.5765 622.122,-39.0207 625.991,-33.1872"/>
</g>
<!-- Node20&#45;&gt;Node4 -->
<g id="edge38" class="edge"><title>Node20&#45;&gt;Node4</title>
<path fill="none" stroke="midnightblue" d="M1023.7,-194.495C958,-188.489 844.475,-176.193 737.994,-153.766"/>
<polygon fill="midnightblue" stroke="midnightblue" points="738.555,-150.307 728.044,-151.636 737.09,-157.152 738.555,-150.307"/>
</g>
<!-- Node20&#45;&gt;Node9 -->
<g id="edge23" class="edge"><title>Node20&#45;&gt;Node9</title>
<path fill="none" stroke="midnightblue" d="M1061.63,-190.324C1044.79,-181.664 1018.69,-168.242 999.262,-158.249"/>
<polygon fill="midnightblue" stroke="midnightblue" points="1000.82,-155.116 990.328,-153.655 997.62,-161.341 1000.82,-155.116"/>
</g>
<!-- Node21 -->
<g id="node21" class="node"><title>Node21</title>
<g id="a_node21"><a xlink:href="../../d1/de6/Composite_8h.html" target="_top" xlink:title="Utility classes and functions to implement the Composite design pattern. ">
<polygon fill="white" stroke="black" points="1238,-134.5 1238,-153.5 1359,-153.5 1359,-134.5 1238,-134.5"/>
<text text-anchor="middle" x="1298.5" y="-141.5" font-family="Helvetica,sans-Serif" font-size="10.00">ocra/optim/Composite.h</text>
</a>
</g>
</g>
<!-- Node20&#45;&gt;Node21 -->
<g id="edge24" class="edge"><title>Node20&#45;&gt;Node21</title>
<path fill="none" stroke="midnightblue" d="M1113.36,-190.444C1151.42,-181.102 1212.46,-166.119 1253.96,-155.933"/>
<polygon fill="midnightblue" stroke="midnightblue" points="1254.93,-159.299 1263.8,-153.516 1253.26,-152.501 1254.93,-159.299"/>
</g>
<!-- Node24 -->
<g id="node24" class="node"><title>Node24</title>
<polygon fill="white" stroke="#bfbfbf" points="1664,-73 1664,-92 1781,-92 1781,-73 1664,-73"/>
<text text-anchor="middle" x="1722.5" y="-80" font-family="Helvetica,sans-Serif" font-size="10.00">boost/noncopyable.hpp</text>
</g>
<!-- Node20&#45;&gt;Node24 -->
<g id="edge37" class="edge"><title>Node20&#45;&gt;Node24</title>
<path fill="none" stroke="midnightblue" d="M1133.2,-191.119C1191.39,-182.586 1286.1,-168.273 1367.5,-154 1495.51,-131.554 1527.17,-123.997 1654.5,-98 1660.41,-96.7934 1666.6,-95.5055 1672.74,-94.2138"/>
<polygon fill="midnightblue" stroke="midnightblue" points="1673.91,-97.5443 1682.97,-92.0503 1672.46,-90.6959 1673.91,-97.5443"/>
</g>
<!-- Node26 -->
<g id="node26" class="node"><title>Node26</title>
<polygon fill="white" stroke="#bfbfbf" points="1799.5,-73 1799.5,-92 1843.5,-92 1843.5,-73 1799.5,-73"/>
<text text-anchor="middle" x="1821.5" y="-80" font-family="Helvetica,sans-Serif" font-size="10.00">vector</text>
</g>
<!-- Node20&#45;&gt;Node26 -->
<g id="edge39" class="edge"><title>Node20&#45;&gt;Node26</title>
<path fill="none" stroke="midnightblue" d="M1133.3,-191.231C1136.41,-190.809 1139.5,-190.396 1142.5,-190 1430.45,-152.006 1511.26,-181.32 1789.5,-98 1791.43,-97.4226 1793.39,-96.7531 1795.35,-96.0249"/>
<polygon fill="midnightblue" stroke="midnightblue" points="1797,-99.1265 1804.89,-92.0485 1794.31,-92.6653 1797,-99.1265"/>
</g>
<!-- Node29 -->
<g id="node29" class="node"><title>Node29</title>
<polygon fill="white" stroke="#bfbfbf" points="1065,-134.5 1065,-153.5 1134,-153.5 1134,-134.5 1065,-134.5"/>
<text text-anchor="middle" x="1099.5" y="-141.5" font-family="Helvetica,sans-Serif" font-size="10.00">Eigen/Eigen</text>
</g>
<!-- Node20&#45;&gt;Node29 -->
<g id="edge36" class="edge"><title>Node20&#45;&gt;Node29</title>
<path fill="none" stroke="midnightblue" d="M1081.97,-190.083C1084.81,-182.77 1088.93,-172.181 1092.46,-163.103"/>
<polygon fill="midnightblue" stroke="midnightblue" points="1095.73,-164.34 1096.1,-153.751 1089.21,-161.803 1095.73,-164.34"/>
</g>
<!-- Node21&#45;&gt;Node12 -->
<g id="edge33" class="edge"><title>Node21&#45;&gt;Node12</title>
<path fill="none" stroke="midnightblue" d="M1280.16,-134.362C1264.33,-126.349 1241.42,-113.366 1224.5,-98 1203.42,-78.8513 1184.7,-51.5137 1173.73,-33.8858"/>
<polygon fill="midnightblue" stroke="midnightblue" points="1176.65,-31.9406 1168.47,-25.2051 1170.66,-35.5705 1176.65,-31.9406"/>
</g>
<!-- Node21&#45;&gt;Node15 -->
<g id="edge29" class="edge"><title>Node21&#45;&gt;Node15</title>
<path fill="none" stroke="midnightblue" d="M1247.25,-134.453C1215.83,-127.717 1175.63,-116.326 1143.5,-98 1126.02,-88.03 1128.31,-76.3724 1110.5,-67 1046.8,-33.475 1020.78,-46.7381 946.493,-31.1007"/>
<polygon fill="midnightblue" stroke="midnightblue" points="947.211,-27.6748 936.691,-28.9297 945.697,-34.5093 947.211,-27.6748"/>
</g>
<!-- Node21&#45;&gt;Node16 -->
<g id="edge28" class="edge"><title>Node21&#45;&gt;Node16</title>
<path fill="none" stroke="midnightblue" d="M1276.18,-134.381C1254.84,-125.899 1221.94,-112.188 1194.5,-98 1170.94,-85.8154 1167.27,-78.7677 1143.5,-67 1112.73,-51.7677 1076.16,-37.8195 1049.83,-28.4602"/>
<polygon fill="midnightblue" stroke="midnightblue" points="1050.87,-25.1153 1040.27,-25.1048 1048.55,-31.72 1050.87,-25.1153"/>
</g>
<!-- Node21&#45;&gt;Node19 -->
<g id="edge30" class="edge"><title>Node21&#45;&gt;Node19</title>
<path fill="none" stroke="midnightblue" d="M1263.11,-134.475C1223.63,-124.965 1159.09,-109.418 1111.65,-97.9899"/>
<polygon fill="midnightblue" stroke="midnightblue" points="1112.34,-94.5568 1101.8,-95.6175 1110.71,-101.362 1112.34,-94.5568"/>
</g>
<!-- Node22 -->
<g id="node22" class="node"><title>Node22</title>
<g id="a_node22"><a xlink:href="../../de/df3/ocra__assert_8h.html" target="_top" xlink:title="ocra/optim/ocra_assert.h">
<polygon fill="white" stroke="black" points="1521,-73 1521,-92 1646,-92 1646,-73 1521,-73"/>
<text text-anchor="middle" x="1583.5" y="-80" font-family="Helvetica,sans-Serif" font-size="10.00">ocra/optim/ocra_assert.h</text>
</a>
</g>
</g>
<!-- Node21&#45;&gt;Node22 -->
<g id="edge25" class="edge"><title>Node21&#45;&gt;Node22</title>
<path fill="none" stroke="midnightblue" d="M1339.33,-134.475C1390.34,-123.827 1477.6,-105.609 1532.82,-94.0806"/>
<polygon fill="midnightblue" stroke="midnightblue" points="1533.67,-97.479 1542.74,-92.0091 1532.24,-90.6267 1533.67,-97.479"/>
</g>
<!-- Node21&#45;&gt;Node24 -->
<g id="edge27" class="edge"><title>Node21&#45;&gt;Node24</title>
<path fill="none" stroke="midnightblue" d="M1359.2,-136.904C1430.24,-129.405 1551.31,-115.491 1654.5,-98 1661.22,-96.8615 1668.28,-95.5202 1675.2,-94.1209"/>
<polygon fill="midnightblue" stroke="midnightblue" points="1676.12,-97.5056 1685.2,-92.0461 1674.7,-90.6517 1676.12,-97.5056"/>
</g>
<!-- Node25 -->
<g id="node25" class="node"><title>Node25</title>
<polygon fill="white" stroke="#bfbfbf" points="1234,-67.5 1234,-97.5 1363,-97.5 1363,-67.5 1234,-67.5"/>
<text text-anchor="start" x="1242" y="-85.5" font-family="Helvetica,sans-Serif" font-size="10.00">boost/type_traits/has</text>
<text text-anchor="middle" x="1298.5" y="-74.5" font-family="Helvetica,sans-Serif" font-size="10.00">_nothrow_constructor.hpp</text>
</g>
<!-- Node21&#45;&gt;Node25 -->
<g id="edge31" class="edge"><title>Node21&#45;&gt;Node25</title>
<path fill="none" stroke="midnightblue" d="M1298.5,-134.475C1298.5,-127.471 1298.5,-117.192 1298.5,-107.696"/>
<polygon fill="midnightblue" stroke="midnightblue" points="1302,-107.523 1298.5,-97.523 1295,-107.523 1302,-107.523"/>
</g>
<!-- Node21&#45;&gt;Node26 -->
<g id="edge32" class="edge"><title>Node21&#45;&gt;Node26</title>
<path fill="none" stroke="midnightblue" d="M1359.33,-143.875C1453.24,-143.794 1638.47,-137.923 1789.5,-98 1791.66,-97.4301 1793.85,-96.7272 1796.02,-95.941"/>
<polygon fill="midnightblue" stroke="midnightblue" points="1797.38,-99.1698 1805.28,-92.1141 1794.7,-92.7011 1797.38,-99.1698"/>
</g>
<!-- Node27 -->
<g id="node27" class="node"><title>Node27</title>
<polygon fill="white" stroke="#bfbfbf" points="1381,-73 1381,-92 1426,-92 1426,-73 1381,-73"/>
<text text-anchor="middle" x="1403.5" y="-80" font-family="Helvetica,sans-Serif" font-size="10.00">iosfwd</text>
</g>
<!-- Node21&#45;&gt;Node27 -->
<g id="edge34" class="edge"><title>Node21&#45;&gt;Node27</title>
<path fill="none" stroke="midnightblue" d="M1313.54,-134.475C1330.78,-124.711 1359.24,-108.581 1379.53,-97.0808"/>
<polygon fill="midnightblue" stroke="midnightblue" points="1381.51,-99.9843 1388.48,-92.0091 1378.06,-93.8942 1381.51,-99.9843"/>
</g>
<!-- Node28 -->
<g id="node28" class="node"><title>Node28</title>
<polygon fill="white" stroke="#bfbfbf" points="1444,-73 1444,-92 1503,-92 1503,-73 1444,-73"/>
<text text-anchor="middle" x="1473.5" y="-80" font-family="Helvetica,sans-Serif" font-size="10.00">stdexcept</text>
</g>
<!-- Node21&#45;&gt;Node28 -->
<g id="edge35" class="edge"><title>Node21&#45;&gt;Node28</title>
<path fill="none" stroke="midnightblue" d="M1325.18,-134.49C1352.67,-125.646 1396.72,-111.268 1434.5,-98 1436.74,-97.2123 1439.05,-96.3876 1441.38,-95.5483"/>
<polygon fill="midnightblue" stroke="midnightblue" points="1442.68,-98.799 1450.87,-92.074 1440.27,-92.2258 1442.68,-98.799"/>
</g>
<!-- Node23 -->
<g id="node23" class="node"><title>Node23</title>
<polygon fill="white" stroke="#bfbfbf" points="1562,-6 1562,-25 1605,-25 1605,-6 1562,-6"/>
<text text-anchor="middle" x="1583.5" y="-13" font-family="Helvetica,sans-Serif" font-size="10.00">cstdio</text>
</g>
<!-- Node22&#45;&gt;Node23 -->
<g id="edge26" class="edge"><title>Node22&#45;&gt;Node23</title>
<path fill="none" stroke="midnightblue" d="M1583.5,-72.7338C1583.5,-63.1826 1583.5,-47.6183 1583.5,-35.2829"/>
<polygon fill="midnightblue" stroke="midnightblue" points="1587,-35.1273 1583.5,-25.1273 1580,-35.1273 1587,-35.1273"/>
</g>
<!-- Node30&#45;&gt;Node9 -->
<g id="edge42" class="edge"><title>Node30&#45;&gt;Node9</title>
<path fill="none" stroke="midnightblue" d="M585.038,-190.503C667.966,-180.789 803.454,-164.919 890.517,-154.72"/>
<polygon fill="midnightblue" stroke="midnightblue" points="891.099,-158.176 900.624,-153.536 890.285,-151.224 891.099,-158.176"/>
</g>
<!-- Node30&#45;&gt;Node31 -->
<g id="edge43" class="edge"><title>Node30&#45;&gt;Node31</title>
<path fill="none" stroke="midnightblue" d="M439.626,-190.969C436.543,-190.64 433.491,-190.315 430.5,-190 275.591,-173.667 233.32,-178.487 75.5168,-153.997"/>
<polygon fill="midnightblue" stroke="midnightblue" points="75.8722,-150.51 65.4509,-152.42 74.7885,-157.426 75.8722,-150.51"/>
</g>
<!-- Node30&#45;&gt;Node32 -->
<g id="edge44" class="edge"><title>Node30&#45;&gt;Node32</title>
<path fill="none" stroke="midnightblue" d="M453.08,-190.444C384.579,-180.579 272.389,-164.424 201.864,-154.268"/>
<polygon fill="midnightblue" stroke="midnightblue" points="202.168,-150.776 191.772,-152.815 201.171,-157.705 202.168,-150.776"/>
</g>
<!-- Node34 -->
<g id="node34" class="node"><title>Node34</title>
<polygon fill="white" stroke="#bfbfbf" points="209.5,-134.5 209.5,-153.5 261.5,-153.5 261.5,-134.5 209.5,-134.5"/>
<text text-anchor="middle" x="235.5" y="-141.5" font-family="Helvetica,sans-Serif" font-size="10.00">memory</text>
</g>
<!-- Node33&#45;&gt;Node34 -->
<g id="edge46" class="edge"><title>Node33&#45;&gt;Node34</title>
<path fill="none" stroke="midnightblue" d="M217.133,-190.083C220.112,-182.77 224.426,-172.181 228.125,-163.103"/>
<polygon fill="midnightblue" stroke="midnightblue" points="231.403,-164.333 231.935,-153.751 224.92,-161.691 231.403,-164.333"/>
</g>
<!-- Node38&#45;&gt;Node3 -->
<g id="edge55" class="edge"><title>Node38&#45;&gt;Node3</title>
<path fill="none" stroke="midnightblue" d="M139.272,-246.444C183.058,-237.023 253.514,-221.866 300.88,-211.675"/>
<polygon fill="midnightblue" stroke="midnightblue" points="301.874,-215.041 310.914,-209.516 300.402,-208.198 301.874,-215.041"/>
</g>
<!-- Node38&#45;&gt;Node31 -->
<g id="edge57" class="edge"><title>Node38&#45;&gt;Node31</title>
<path fill="none" stroke="midnightblue" d="M94.2426,-246.368C83.2346,-228.296 57.5802,-186.176 43.0418,-162.307"/>
<polygon fill="midnightblue" stroke="midnightblue" points="45.9241,-160.311 37.733,-153.591 39.9458,-163.953 45.9241,-160.311"/>
</g>
<!-- Node38&#45;&gt;Node32 -->
<g id="edge58" class="edge"><title>Node38&#45;&gt;Node32</title>
<path fill="none" stroke="midnightblue" d="M102.482,-246.368C108.642,-228.537 122.889,-187.295 131.188,-163.272"/>
<polygon fill="midnightblue" stroke="midnightblue" points="134.575,-164.186 134.532,-153.591 127.959,-161.9 134.575,-164.186"/>
</g>
<!-- Node38&#45;&gt;Node33 -->
<g id="edge56" class="edge"><title>Node38&#45;&gt;Node33</title>
<path fill="none" stroke="midnightblue" d="M117.564,-246.444C136.075,-237.675 165.081,-223.935 186.355,-213.858"/>
<polygon fill="midnightblue" stroke="midnightblue" points="187.982,-216.96 195.521,-209.516 184.985,-210.634 187.982,-216.96"/>
</g>
</g>
</svg>
