<?xml version="1.0" encoding="UTF-8" standalone="no"?>
<!DOCTYPE svg PUBLIC "-//W3C//DTD SVG 1.1//EN"
 "http://www.w3.org/Graphics/SVG/1.1/DTD/svg11.dtd">
<!-- Generated by graphviz version 2.38.0 (20140413.2041)
 -->
<!-- Title: QuadraticSolver.h Pages: 1 -->
<svg width="335pt" height="140pt"
 viewBox="0.00 0.00 335.00 140.00" xmlns="http://www.w3.org/2000/svg" xmlns:xlink="http://www.w3.org/1999/xlink">
<g id="graph0" class="graph" transform="scale(1 1) rotate(0) translate(4 136)">
<title>QuadraticSolver.h</title>
<polygon fill="white" stroke="none" points="-4,4 -4,-136 331,-136 331,4 -4,4"/>
<!-- Node1 -->
<g id="node1" class="node"><title>Node1</title>
<polygon fill="#bfbfbf" stroke="black" points="120,-112.5 120,-131.5 215,-131.5 215,-112.5 120,-112.5"/>
<text text-anchor="middle" x="167.5" y="-119.5" font-family="Helvetica,sans-Serif" font-size="10.00">QuadraticSolver.h</text>
</g>
<!-- Node2 -->
<g id="node2" class="node"><title>Node2</title>
<g id="a_node2"><a xlink:href="../../d2/d2f/CmlQuadraticSolver_8h.html" target="_top" xlink:title="Declaration file of the CmlQuadraticSolver class. ">
<polygon fill="white" stroke="black" points="0,-56.5 0,-75.5 113,-75.5 113,-56.5 0,-56.5"/>
<text text-anchor="middle" x="56.5" y="-63.5" font-family="Helvetica,sans-Serif" font-size="10.00">CmlQuadraticSolver.h</text>
</a>
</g>
</g>
<!-- Node1&#45;&gt;Node2 -->
<g id="edge1" class="edge"><title>Node1&#45;&gt;Node2</title>
<path fill="none" stroke="midnightblue" d="M140.495,-107.862C119.912,-97.8492 92.1553,-84.3458 74.2898,-75.6545"/>
<polygon fill="midnightblue" stroke="midnightblue" points="139.142,-111.097 149.666,-112.324 142.205,-104.802 139.142,-111.097"/>
</g>
<!-- Node3 -->
<g id="node3" class="node"><title>Node3</title>
<g id="a_node3"><a xlink:href="../../da/d52/QLDSolver_8h.html" target="_top" xlink:title="Declaration file of the QLDSolver class. ">
<polygon fill="white" stroke="black" points="131,-56.5 131,-75.5 204,-75.5 204,-56.5 131,-56.5"/>
<text text-anchor="middle" x="167.5" y="-63.5" font-family="Helvetica,sans-Serif" font-size="10.00">QLDSolver.h</text>
</a>
</g>
</g>
<!-- Node1&#45;&gt;Node3 -->
<g id="edge2" class="edge"><title>Node1&#45;&gt;Node3</title>
<path fill="none" stroke="midnightblue" d="M167.5,-101.805C167.5,-92.9102 167.5,-82.7798 167.5,-75.7511"/>
<polygon fill="midnightblue" stroke="midnightblue" points="164,-102.083 167.5,-112.083 171,-102.083 164,-102.083"/>
</g>
<!-- Node6 -->
<g id="node6" class="node"><title>Node6</title>
<g id="a_node6"><a xlink:href="../../d5/d6a/QuadraticSolver_8cpp.html" target="_top" xlink:title="QuadraticSolver.cpp">
<polygon fill="white" stroke="black" points="222,-56.5 222,-75.5 327,-75.5 327,-56.5 222,-56.5"/>
<text text-anchor="middle" x="274.5" y="-63.5" font-family="Helvetica,sans-Serif" font-size="10.00">QuadraticSolver.cpp</text>
</a>
</g>
</g>
<!-- Node1&#45;&gt;Node6 -->
<g id="edge5" class="edge"><title>Node1&#45;&gt;Node6</title>
<path fill="none" stroke="midnightblue" d="M193.802,-107.726C213.615,-97.7271 240.207,-84.3065 257.351,-75.6545"/>
<polygon fill="midnightblue" stroke="midnightblue" points="192.042,-104.694 184.691,-112.324 195.196,-110.943 192.042,-104.694"/>
</g>
<!-- Node4 -->
<g id="node4" class="node"><title>Node4</title>
<g id="a_node4"><a xlink:href="../../d2/dcc/NewtonSolver_8cpp.html" target="_top" xlink:title="NewtonSolver.cpp">
<polygon fill="white" stroke="black" points="65,-0.5 65,-19.5 162,-19.5 162,-0.5 65,-0.5"/>
<text text-anchor="middle" x="113.5" y="-7.5" font-family="Helvetica,sans-Serif" font-size="10.00">NewtonSolver.cpp</text>
</a>
</g>
</g>
<!-- Node3&#45;&gt;Node4 -->
<g id="edge3" class="edge"><title>Node3&#45;&gt;Node4</title>
<path fill="none" stroke="midnightblue" d="M151.502,-49.0024C141.933,-39.4329 130.139,-27.6389 122.251,-19.7511"/>
<polygon fill="midnightblue" stroke="midnightblue" points="149.037,-51.4868 158.583,-56.083 153.987,-46.537 149.037,-51.4868"/>
</g>
<!-- Node5 -->
<g id="node5" class="node"><title>Node5</title>
<g id="a_node5"><a xlink:href="../../da/db2/QLDSolver_8cpp.html" target="_top" xlink:title="QLDSolver.cpp">
<polygon fill="white" stroke="black" points="180,-0.5 180,-19.5 263,-19.5 263,-0.5 180,-0.5"/>
<text text-anchor="middle" x="221.5" y="-7.5" font-family="Helvetica,sans-Serif" font-size="10.00">QLDSolver.cpp</text>
</a>
</g>
</g>
<!-- Node3&#45;&gt;Node5 -->
<g id="edge4" class="edge"><title>Node3&#45;&gt;Node5</title>
<path fill="none" stroke="midnightblue" d="M183.498,-49.0024C193.067,-39.4329 204.861,-27.6389 212.749,-19.7511"/>
<polygon fill="midnightblue" stroke="midnightblue" points="181.013,-46.537 176.417,-56.083 185.963,-51.4868 181.013,-46.537"/>
</g>
</g>
</svg>
