<?xml version="1.0" encoding="UTF-8" standalone="no"?>
<!DOCTYPE svg PUBLIC "-//W3C//DTD SVG 1.1//EN"
 "http://www.w3.org/Graphics/SVG/1.1/DTD/svg11.dtd">
<!-- Generated by graphviz version 2.38.0 (20140413.2041)
 -->
<!-- Title: WeightedSquareDistanceFunction.h Pages: 1 -->
<svg width="1702pt" height="397pt"
 viewBox="0.00 0.00 1701.50 397.00" xmlns="http://www.w3.org/2000/svg" xmlns:xlink="http://www.w3.org/1999/xlink">
<g id="graph0" class="graph" transform="scale(1 1) rotate(0) translate(4 393)">
<title>WeightedSquareDistanceFunction.h</title>
<polygon fill="white" stroke="none" points="-4,4 -4,-393 1697.5,-393 1697.5,4 -4,4"/>
<!-- Node1 -->
<g id="node1" class="node"><title>Node1</title>
<polygon fill="#bfbfbf" stroke="black" points="1483.5,-369.5 1483.5,-388.5 1656.5,-388.5 1656.5,-369.5 1483.5,-369.5"/>
<text text-anchor="middle" x="1570" y="-376.5" font-family="Helvetica,sans-Serif" font-size="10.00">WeightedSquareDistanceFunction.h</text>
</g>
<!-- Node2 -->
<g id="node2" class="node"><title>Node2</title>
<g id="a_node2"><a xlink:href="../../d4/d83/QuadraticFunction_8h.html" target="_top" xlink:title="Declaration file of the QuadraticFunction class. ">
<polygon fill="white" stroke="black" points="1493.5,-313.5 1493.5,-332.5 1646.5,-332.5 1646.5,-313.5 1493.5,-313.5"/>
<text text-anchor="middle" x="1570" y="-320.5" font-family="Helvetica,sans-Serif" font-size="10.00">ocra/optim/QuadraticFunction.h</text>
</a>
</g>
</g>
<!-- Node1&#45;&gt;Node2 -->
<g id="edge1" class="edge"><title>Node1&#45;&gt;Node2</title>
<path fill="none" stroke="midnightblue" d="M1570,-369.083C1570,-362.006 1570,-351.861 1570,-342.986"/>
<polygon fill="midnightblue" stroke="midnightblue" points="1573.5,-342.751 1570,-332.751 1566.5,-342.751 1573.5,-342.751"/>
</g>
<!-- Node3 -->
<g id="node3" class="node"><title>Node3</title>
<g id="a_node3"><a xlink:href="../../df/df5/Function_8h.html" target="_top" xlink:title="Declaration file of the Function class. ">
<polygon fill="white" stroke="black" points="1143.5,-257.5 1143.5,-276.5 1254.5,-276.5 1254.5,-257.5 1143.5,-257.5"/>
<text text-anchor="middle" x="1199" y="-264.5" font-family="Helvetica,sans-Serif" font-size="10.00">ocra/optim/Function.h</text>
</a>
</g>
</g>
<!-- Node2&#45;&gt;Node3 -->
<g id="edge2" class="edge"><title>Node2&#45;&gt;Node3</title>
<path fill="none" stroke="midnightblue" d="M1511.21,-313.444C1444.13,-303.679 1334.68,-287.748 1264.8,-277.577"/>
<polygon fill="midnightblue" stroke="midnightblue" points="1265.18,-274.096 1254.78,-276.119 1264.17,-281.023 1265.18,-274.096"/>
</g>
<!-- Node8 -->
<g id="node8" class="node"><title>Node8</title>
<g id="a_node8"><a xlink:href="../../de/df3/ocra__assert_8h.html" target="_top" xlink:title="ocra/optim/ocra_assert.h">
<polygon fill="white" stroke="black" points="1316.5,-73 1316.5,-92 1441.5,-92 1441.5,-73 1316.5,-73"/>
<text text-anchor="middle" x="1379" y="-80" font-family="Helvetica,sans-Serif" font-size="10.00">ocra/optim/ocra_assert.h</text>
</a>
</g>
</g>
<!-- Node2&#45;&gt;Node8 -->
<g id="edge52" class="edge"><title>Node2&#45;&gt;Node8</title>
<path fill="none" stroke="midnightblue" d="M1569.57,-313.429C1568.08,-291.065 1561.47,-229.916 1533,-190 1501,-145.126 1443.83,-112.975 1408.87,-96.3786"/>
<polygon fill="midnightblue" stroke="midnightblue" points="1410.18,-93.1303 1399.64,-92.1125 1407.25,-99.4846 1410.18,-93.1303"/>
</g>
<!-- Node35 -->
<g id="node35" class="node"><title>Node35</title>
<g id="a_node35"><a xlink:href="../../df/d0a/Macros_8h.html" target="_top" xlink:title="ocra/util/Macros.h">
<polygon fill="white" stroke="black" points="1598.5,-257.5 1598.5,-276.5 1693.5,-276.5 1693.5,-257.5 1598.5,-257.5"/>
<text text-anchor="middle" x="1646" y="-264.5" font-family="Helvetica,sans-Serif" font-size="10.00">ocra/util/Macros.h</text>
</a>
</g>
</g>
<!-- Node2&#45;&gt;Node35 -->
<g id="edge53" class="edge"><title>Node2&#45;&gt;Node35</title>
<path fill="none" stroke="midnightblue" d="M1582.21,-313.324C1593.78,-305.107 1611.38,-292.602 1625.16,-282.807"/>
<polygon fill="midnightblue" stroke="midnightblue" points="1627.44,-285.479 1633.57,-276.834 1623.39,-279.773 1627.44,-285.479"/>
</g>
<!-- Node4 -->
<g id="node4" class="node"><title>Node4</title>
<g id="a_node4"><a xlink:href="../../de/d94/IFunction_8h.html" target="_top" xlink:title="Declaration file of the IFunction interface. ">
<polygon fill="white" stroke="black" points="1219,-134.5 1219,-153.5 1333,-153.5 1333,-134.5 1219,-134.5"/>
<text text-anchor="middle" x="1276" y="-141.5" font-family="Helvetica,sans-Serif" font-size="10.00">ocra/optim/IFunction.h</text>
</a>
</g>
</g>
<!-- Node3&#45;&gt;Node4 -->
<g id="edge3" class="edge"><title>Node3&#45;&gt;Node4</title>
<path fill="none" stroke="midnightblue" d="M1254.65,-266.383C1335.71,-265.617 1480.22,-258.814 1513,-221 1563.3,-162.978 1429.55,-148.888 1343.05,-145.697"/>
<polygon fill="midnightblue" stroke="midnightblue" points="1343.12,-142.197 1333.01,-145.367 1342.89,-149.194 1343.12,-142.197"/>
</g>
<!-- Node13 -->
<g id="node13" class="node"><title>Node13</title>
<g id="a_node13"><a xlink:href="../../d9/d54/IFunctionProperties_8h.html" target="_top" xlink:title="ocra/optim/IFunctionProperties.h">
<polygon fill="white" stroke="black" points="1042,-196 1042,-215 1200,-215 1200,-196 1042,-196"/>
<text text-anchor="middle" x="1121" y="-203" font-family="Helvetica,sans-Serif" font-size="10.00">ocra/optim/IFunctionProperties.h</text>
</a>
</g>
</g>
<!-- Node3&#45;&gt;Node13 -->
<g id="edge12" class="edge"><title>Node3&#45;&gt;Node13</title>
<path fill="none" stroke="midnightblue" d="M1187.82,-257.475C1175.43,-248.02 1155.21,-232.596 1140.25,-221.187"/>
<polygon fill="midnightblue" stroke="midnightblue" points="1142.23,-218.291 1132.15,-215.009 1137.98,-223.857 1142.23,-218.291"/>
</g>
<!-- Node15 -->
<g id="node15" class="node"><title>Node15</title>
<g id="a_node15"><a xlink:href="../../db/d47/AbilitySet_8h.html" target="_top" xlink:title="ocra/optim/AbilitySet.h">
<polygon fill="white" stroke="black" points="1218,-196 1218,-215 1334,-215 1334,-196 1218,-196"/>
<text text-anchor="middle" x="1276" y="-203" font-family="Helvetica,sans-Serif" font-size="10.00">ocra/optim/AbilitySet.h</text>
</a>
</g>
</g>
<!-- Node3&#45;&gt;Node15 -->
<g id="edge15" class="edge"><title>Node3&#45;&gt;Node15</title>
<path fill="none" stroke="midnightblue" d="M1210.03,-257.475C1222.27,-248.02 1242.23,-232.596 1256.99,-221.187"/>
<polygon fill="midnightblue" stroke="midnightblue" points="1259.22,-223.893 1264.99,-215.009 1254.94,-218.354 1259.22,-223.893"/>
</g>
<!-- Node16 -->
<g id="node16" class="node"><title>Node16</title>
<g id="a_node16"><a xlink:href="../../d1/d87/CoupledInputOutputSize_8h.html" target="_top" xlink:title="ocra/optim/CoupledInputOutput\lSize.h">
<polygon fill="white" stroke="black" points="1352,-190.5 1352,-220.5 1504,-220.5 1504,-190.5 1352,-190.5"/>
<text text-anchor="start" x="1360" y="-208.5" font-family="Helvetica,sans-Serif" font-size="10.00">ocra/optim/CoupledInputOutput</text>
<text text-anchor="middle" x="1428" y="-197.5" font-family="Helvetica,sans-Serif" font-size="10.00">Size.h</text>
</a>
</g>
</g>
<!-- Node3&#45;&gt;Node16 -->
<g id="edge18" class="edge"><title>Node3&#45;&gt;Node16</title>
<path fill="none" stroke="midnightblue" d="M1231.81,-257.475C1266.23,-248.532 1321.2,-234.249 1364.21,-223.074"/>
<polygon fill="midnightblue" stroke="midnightblue" points="1365.23,-226.425 1374.03,-220.523 1363.47,-219.65 1365.23,-226.425"/>
</g>
<!-- Node17 -->
<g id="node17" class="node"><title>Node17</title>
<g id="a_node17"><a xlink:href="../../d7/d90/Variable_8h.html" target="_top" xlink:title="Declaration file of the Variable class. ">
<polygon fill="white" stroke="black" points="753.5,-196 753.5,-215 862.5,-215 862.5,-196 753.5,-196"/>
<text text-anchor="middle" x="808" y="-203" font-family="Helvetica,sans-Serif" font-size="10.00">ocra/optim/Variable.h</text>
</a>
</g>
</g>
<!-- Node3&#45;&gt;Node17 -->
<g id="edge19" class="edge"><title>Node3&#45;&gt;Node17</title>
<path fill="none" stroke="midnightblue" d="M1143.33,-259.909C1077.89,-252.39 966.122,-238.435 871,-221 865.059,-219.911 858.832,-218.639 852.702,-217.31"/>
<polygon fill="midnightblue" stroke="midnightblue" points="853.067,-213.805 842.544,-215.039 851.54,-220.636 853.067,-213.805"/>
</g>
<!-- Node18 -->
<g id="node18" class="node"><title>Node18</title>
<g id="a_node18"><a xlink:href="../../d8/ddc/ObserverSubject_8h.html" target="_top" xlink:title="Declaration file of the Observer, Subject and ObserverSubject classes. ">
<polygon fill="white" stroke="black" points="406,-134.5 406,-153.5 552,-153.5 552,-134.5 406,-134.5"/>
<text text-anchor="middle" x="479" y="-141.5" font-family="Helvetica,sans-Serif" font-size="10.00">ocra/optim/ObserverSubject.h</text>
</a>
</g>
</g>
<!-- Node3&#45;&gt;Node18 -->
<g id="edge49" class="edge"><title>Node3&#45;&gt;Node18</title>
<path fill="none" stroke="midnightblue" d="M1143.2,-263.73C1056.94,-259.493 886.288,-248.208 744,-221 659.339,-204.811 562.647,-173.788 512.749,-156.813"/>
<polygon fill="midnightblue" stroke="midnightblue" points="513.717,-153.445 503.122,-153.514 511.447,-160.067 513.717,-153.445"/>
</g>
<!-- Node34 -->
<g id="node34" class="node"><title>Node34</title>
<g id="a_node34"><a xlink:href="../../df/d97/NamedInstance_8h.html" target="_top" xlink:title="ocra/optim/NamedInstance.h">
<polygon fill="white" stroke="black" points="880.5,-196 880.5,-215 1023.5,-215 1023.5,-196 880.5,-196"/>
<text text-anchor="middle" x="952" y="-203" font-family="Helvetica,sans-Serif" font-size="10.00">ocra/optim/NamedInstance.h</text>
</a>
</g>
</g>
<!-- Node3&#45;&gt;Node34 -->
<g id="edge50" class="edge"><title>Node3&#45;&gt;Node34</title>
<path fill="none" stroke="midnightblue" d="M1163.61,-257.475C1119.77,-246.915 1045.03,-228.911 997.12,-217.369"/>
<polygon fill="midnightblue" stroke="midnightblue" points="997.865,-213.948 987.323,-215.009 996.226,-220.754 997.865,-213.948"/>
</g>
<!-- Node5 -->
<g id="node5" class="node"><title>Node5</title>
<g id="a_node5"><a xlink:href="../../d5/d55/MathTypes_8h.html" target="_top" xlink:title="Declaration file of the OptimizationVariable class. ">
<polygon fill="white" stroke="black" points="1459.5,-73 1459.5,-92 1570.5,-92 1570.5,-73 1459.5,-73"/>
<text text-anchor="middle" x="1515" y="-80" font-family="Helvetica,sans-Serif" font-size="10.00">ocra/util/MathTypes.h</text>
</a>
</g>
</g>
<!-- Node4&#45;&gt;Node5 -->
<g id="edge4" class="edge"><title>Node4&#45;&gt;Node5</title>
<path fill="none" stroke="midnightblue" d="M1310.24,-134.475C1352.57,-123.937 1424.68,-105.986 1471.05,-94.4415"/>
<polygon fill="midnightblue" stroke="midnightblue" points="1471.96,-97.8213 1480.82,-92.0091 1470.27,-91.0286 1471.96,-97.8213"/>
</g>
<!-- Node4&#45;&gt;Node8 -->
<g id="edge7" class="edge"><title>Node4&#45;&gt;Node8</title>
<path fill="none" stroke="midnightblue" d="M1290.76,-134.475C1307.66,-124.711 1335.58,-108.581 1355.49,-97.0808"/>
<polygon fill="midnightblue" stroke="midnightblue" points="1357.36,-100.042 1364.27,-92.0091 1353.86,-93.9805 1357.36,-100.042"/>
</g>
<!-- Node10 -->
<g id="node10" class="node"><title>Node10</title>
<polygon fill="white" stroke="#bfbfbf" points="1244,-73 1244,-92 1298,-92 1298,-73 1244,-73"/>
<text text-anchor="middle" x="1271" y="-80" font-family="Helvetica,sans-Serif" font-size="10.00">iostream</text>
</g>
<!-- Node4&#45;&gt;Node10 -->
<g id="edge9" class="edge"><title>Node4&#45;&gt;Node10</title>
<path fill="none" stroke="midnightblue" d="M1275.28,-134.475C1274.58,-126.08 1273.48,-112.981 1272.57,-102.163"/>
<polygon fill="midnightblue" stroke="midnightblue" points="1276.04,-101.681 1271.72,-92.0091 1269.06,-102.267 1276.04,-101.681"/>
</g>
<!-- Node11 -->
<g id="node11" class="node"><title>Node11</title>
<polygon fill="white" stroke="#bfbfbf" points="1104,-73 1104,-92 1148,-92 1148,-73 1104,-73"/>
<text text-anchor="middle" x="1126" y="-80" font-family="Helvetica,sans-Serif" font-size="10.00">vector</text>
</g>
<!-- Node4&#45;&gt;Node11 -->
<g id="edge10" class="edge"><title>Node4&#45;&gt;Node11</title>
<path fill="none" stroke="midnightblue" d="M1251.63,-134.398C1227.42,-125.711 1189.35,-111.661 1157,-98 1155.63,-97.4222 1154.23,-96.819 1152.83,-96.2008"/>
<polygon fill="midnightblue" stroke="midnightblue" points="1154.15,-92.9588 1143.6,-92.0153 1151.26,-99.3337 1154.15,-92.9588"/>
</g>
<!-- Node12 -->
<g id="node12" class="node"><title>Node12</title>
<polygon fill="white" stroke="#bfbfbf" points="1166.5,-73 1166.5,-92 1225.5,-92 1225.5,-73 1166.5,-73"/>
<text text-anchor="middle" x="1196" y="-80" font-family="Helvetica,sans-Serif" font-size="10.00">stdexcept</text>
</g>
<!-- Node4&#45;&gt;Node12 -->
<g id="edge11" class="edge"><title>Node4&#45;&gt;Node12</title>
<path fill="none" stroke="midnightblue" d="M1264.54,-134.475C1251.83,-125.02 1231.09,-109.596 1215.75,-98.1871"/>
<polygon fill="midnightblue" stroke="midnightblue" points="1217.55,-95.1686 1207.44,-92.0091 1213.38,-100.785 1217.55,-95.1686"/>
</g>
<!-- Node6 -->
<g id="node6" class="node"><title>Node6</title>
<polygon fill="white" stroke="#bfbfbf" points="1448.5,-6 1448.5,-25 1521.5,-25 1521.5,-6 1448.5,-6"/>
<text text-anchor="middle" x="1485" y="-13" font-family="Helvetica,sans-Serif" font-size="10.00">Eigen/Dense</text>
</g>
<!-- Node5&#45;&gt;Node6 -->
<g id="edge5" class="edge"><title>Node5&#45;&gt;Node6</title>
<path fill="none" stroke="midnightblue" d="M1510.95,-72.7338C1506.46,-62.9877 1499.07,-46.9805 1493.32,-34.5318"/>
<polygon fill="midnightblue" stroke="midnightblue" points="1496.35,-32.7402 1488.98,-25.1273 1489.99,-35.6736 1496.35,-32.7402"/>
</g>
<!-- Node7 -->
<g id="node7" class="node"><title>Node7</title>
<polygon fill="white" stroke="#bfbfbf" points="1540,-6 1540,-25 1584,-25 1584,-6 1540,-6"/>
<text text-anchor="middle" x="1562" y="-13" font-family="Helvetica,sans-Serif" font-size="10.00">cmath</text>
</g>
<!-- Node5&#45;&gt;Node7 -->
<g id="edge6" class="edge"><title>Node5&#45;&gt;Node7</title>
<path fill="none" stroke="midnightblue" d="M1521.34,-72.7338C1528.6,-62.6953 1540.66,-46.0145 1549.76,-33.4213"/>
<polygon fill="midnightblue" stroke="midnightblue" points="1552.74,-35.2816 1555.76,-25.1273 1547.07,-31.18 1552.74,-35.2816"/>
</g>
<!-- Node9 -->
<g id="node9" class="node"><title>Node9</title>
<polygon fill="white" stroke="#bfbfbf" points="1357.5,-6 1357.5,-25 1400.5,-25 1400.5,-6 1357.5,-6"/>
<text text-anchor="middle" x="1379" y="-13" font-family="Helvetica,sans-Serif" font-size="10.00">cstdio</text>
</g>
<!-- Node8&#45;&gt;Node9 -->
<g id="edge8" class="edge"><title>Node8&#45;&gt;Node9</title>
<path fill="none" stroke="midnightblue" d="M1379,-72.7338C1379,-63.1826 1379,-47.6183 1379,-35.2829"/>
<polygon fill="midnightblue" stroke="midnightblue" points="1382.5,-35.1273 1379,-25.1273 1375.5,-35.1273 1382.5,-35.1273"/>
</g>
<!-- Node13&#45;&gt;Node11 -->
<g id="edge14" class="edge"><title>Node13&#45;&gt;Node11</title>
<path fill="none" stroke="midnightblue" d="M1121.36,-195.798C1122.16,-176.35 1124.12,-128.99 1125.22,-102.404"/>
<polygon fill="midnightblue" stroke="midnightblue" points="1128.73,-102.259 1125.64,-92.1232 1121.73,-101.97 1128.73,-102.259"/>
</g>
<!-- Node14 -->
<g id="node14" class="node"><title>Node14</title>
<polygon fill="white" stroke="#bfbfbf" points="1051.5,-134.5 1051.5,-153.5 1092.5,-153.5 1092.5,-134.5 1051.5,-134.5"/>
<text text-anchor="middle" x="1072" y="-141.5" font-family="Helvetica,sans-Serif" font-size="10.00">string</text>
</g>
<!-- Node13&#45;&gt;Node14 -->
<g id="edge13" class="edge"><title>Node13&#45;&gt;Node14</title>
<path fill="none" stroke="midnightblue" d="M1113.98,-195.975C1106.56,-186.962 1094.67,-172.525 1085.43,-161.312"/>
<polygon fill="midnightblue" stroke="midnightblue" points="1088.07,-159.003 1079.01,-153.509 1082.66,-163.453 1088.07,-159.003"/>
</g>
<!-- Node15&#45;&gt;Node4 -->
<g id="edge16" class="edge"><title>Node15&#45;&gt;Node4</title>
<path fill="none" stroke="midnightblue" d="M1276,-195.975C1276,-187.58 1276,-174.481 1276,-163.663"/>
<polygon fill="midnightblue" stroke="midnightblue" points="1279.5,-163.509 1276,-153.509 1272.5,-163.509 1279.5,-163.509"/>
</g>
<!-- Node15&#45;&gt;Node11 -->
<g id="edge17" class="edge"><title>Node15&#45;&gt;Node11</title>
<path fill="none" stroke="midnightblue" d="M1264.19,-195.718C1250.89,-185.766 1228.69,-168.979 1210,-154 1186.85,-135.444 1160.76,-113.355 1143.88,-98.9104"/>
<polygon fill="midnightblue" stroke="midnightblue" points="1145.83,-95.9702 1135.96,-92.1128 1141.27,-101.282 1145.83,-95.9702"/>
</g>
<!-- Node17&#45;&gt;Node11 -->
<g id="edge48" class="edge"><title>Node17&#45;&gt;Node11</title>
<path fill="none" stroke="midnightblue" d="M842.911,-195.996C894.905,-183.249 988.184,-160.037 1003,-154 1023.05,-145.829 1073.65,-115.584 1103.33,-97.4701"/>
<polygon fill="midnightblue" stroke="midnightblue" points="1105.46,-100.266 1112.16,-92.0585 1101.81,-94.2968 1105.46,-100.266"/>
</g>
<!-- Node17&#45;&gt;Node14 -->
<g id="edge47" class="edge"><title>Node17&#45;&gt;Node14</title>
<path fill="none" stroke="midnightblue" d="M844.627,-195.988C853.271,-194.002 862.456,-191.91 871,-190 944.675,-173.533 963.541,-171.404 1037,-154 1038.45,-153.656 1039.93,-153.299 1041.43,-152.934"/>
<polygon fill="midnightblue" stroke="midnightblue" points="1042.45,-156.285 1051.3,-150.461 1040.75,-149.495 1042.45,-156.285"/>
</g>
<!-- Node17&#45;&gt;Node18 -->
<g id="edge20" class="edge"><title>Node17&#45;&gt;Node18</title>
<path fill="none" stroke="midnightblue" d="M760.862,-195.975C701.495,-185.239 599.576,-166.806 535.925,-155.295"/>
<polygon fill="midnightblue" stroke="midnightblue" points="536.514,-151.845 526.05,-153.509 535.268,-158.733 536.514,-151.845"/>
</g>
<!-- Node29 -->
<g id="node29" class="node"><title>Node29</title>
<g id="a_node29"><a xlink:href="../../d1/de6/Composite_8h.html" target="_top" xlink:title="Utility classes and functions to implement the Composite design pattern. ">
<polygon fill="white" stroke="black" points="747.5,-134.5 747.5,-153.5 868.5,-153.5 868.5,-134.5 747.5,-134.5"/>
<text text-anchor="middle" x="808" y="-141.5" font-family="Helvetica,sans-Serif" font-size="10.00">ocra/optim/Composite.h</text>
</a>
</g>
</g>
<!-- Node17&#45;&gt;Node29 -->
<g id="edge34" class="edge"><title>Node17&#45;&gt;Node29</title>
<path fill="none" stroke="midnightblue" d="M808,-195.975C808,-187.58 808,-174.481 808,-163.663"/>
<polygon fill="midnightblue" stroke="midnightblue" points="811.5,-163.509 808,-153.509 804.5,-163.509 811.5,-163.509"/>
</g>
<!-- Node30 -->
<g id="node30" class="node"><title>Node30</title>
<polygon fill="white" stroke="#bfbfbf" points="968.5,-73 968.5,-92 1085.5,-92 1085.5,-73 968.5,-73"/>
<text text-anchor="middle" x="1027" y="-80" font-family="Helvetica,sans-Serif" font-size="10.00">boost/noncopyable.hpp</text>
</g>
<!-- Node17&#45;&gt;Node30 -->
<g id="edge46" class="edge"><title>Node17&#45;&gt;Node30</title>
<path fill="none" stroke="midnightblue" d="M819.937,-195.844C839.464,-181.887 879.7,-153.956 916,-134 942.343,-119.518 973.611,-105.566 996.236,-96.0102"/>
<polygon fill="midnightblue" stroke="midnightblue" points="997.791,-99.1539 1005.67,-92.0696 995.093,-92.6948 997.791,-99.1539"/>
</g>
<!-- Node33 -->
<g id="node33" class="node"><title>Node33</title>
<polygon fill="white" stroke="#bfbfbf" points="925.5,-134.5 925.5,-153.5 994.5,-153.5 994.5,-134.5 925.5,-134.5"/>
<text text-anchor="middle" x="960" y="-141.5" font-family="Helvetica,sans-Serif" font-size="10.00">Eigen/Eigen</text>
</g>
<!-- Node17&#45;&gt;Node33 -->
<g id="edge45" class="edge"><title>Node17&#45;&gt;Node33</title>
<path fill="none" stroke="midnightblue" d="M829.778,-195.975C855.738,-185.813 899.311,-168.756 928.835,-157.2"/>
<polygon fill="midnightblue" stroke="midnightblue" points="930.226,-160.413 938.263,-153.509 927.675,-153.895 930.226,-160.413"/>
</g>
<!-- Node19 -->
<g id="node19" class="node"><title>Node19</title>
<g id="a_node19"><a xlink:href="../../df/d67/ObserverSubjectBase_8h.html" target="_top" xlink:title="Declaration file of the Observer and Subject base classes. ">
<polygon fill="white" stroke="black" points="148,-67.5 148,-97.5 286,-97.5 286,-67.5 148,-67.5"/>
<text text-anchor="start" x="156" y="-85.5" font-family="Helvetica,sans-Serif" font-size="10.00">ocra/optim/ObserverSubject</text>
<text text-anchor="middle" x="217" y="-74.5" font-family="Helvetica,sans-Serif" font-size="10.00">Base.h</text>
</a>
</g>
</g>
<!-- Node18&#45;&gt;Node19 -->
<g id="edge21" class="edge"><title>Node18&#45;&gt;Node19</title>
<path fill="none" stroke="midnightblue" d="M441.462,-134.475C401.749,-125.456 338.126,-111.008 288.74,-99.7921"/>
<polygon fill="midnightblue" stroke="midnightblue" points="289.275,-96.3246 278.748,-97.523 287.725,-103.151 289.275,-96.3246"/>
</g>
<!-- Node23 -->
<g id="node23" class="node"><title>Node23</title>
<polygon fill="white" stroke="#bfbfbf" points="0,-0.5 0,-30.5 100,-30.5 100,-0.5 0,-0.5"/>
<text text-anchor="start" x="8" y="-18.5" font-family="Helvetica,sans-Serif" font-size="10.00">boost/type_traits/is</text>
<text text-anchor="middle" x="50" y="-7.5" font-family="Helvetica,sans-Serif" font-size="10.00">_class.hpp</text>
</g>
<!-- Node18&#45;&gt;Node23 -->
<g id="edge33" class="edge"><title>Node18&#45;&gt;Node23</title>
<path fill="none" stroke="midnightblue" d="M405.95,-138.476C320.543,-132.296 185,-119.46 139,-98 109.726,-84.3428 83.4302,-57.5731 67.1442,-38.4398"/>
<polygon fill="midnightblue" stroke="midnightblue" points="69.6629,-35.9932 60.5945,-30.5145 64.2671,-40.4525 69.6629,-35.9932"/>
</g>
<!-- Node24 -->
<g id="node24" class="node"><title>Node24</title>
<polygon fill="white" stroke="#bfbfbf" points="410,-0.5 410,-30.5 510,-30.5 510,-0.5 410,-0.5"/>
<text text-anchor="start" x="418" y="-18.5" font-family="Helvetica,sans-Serif" font-size="10.00">boost/type_traits/is</text>
<text text-anchor="middle" x="460" y="-7.5" font-family="Helvetica,sans-Serif" font-size="10.00">_base_of.hpp</text>
</g>
<!-- Node18&#45;&gt;Node24 -->
<g id="edge31" class="edge"><title>Node18&#45;&gt;Node24</title>
<path fill="none" stroke="midnightblue" d="M477.694,-134.305C474.839,-115.298 467.956,-69.4696 463.665,-40.9004"/>
<polygon fill="midnightblue" stroke="midnightblue" points="467.108,-40.2572 462.161,-30.888 460.185,-41.297 467.108,-40.2572"/>
</g>
<!-- Node25 -->
<g id="node25" class="node"><title>Node25</title>
<polygon fill="white" stroke="#bfbfbf" points="528.5,-6 528.5,-25 647.5,-25 647.5,-6 528.5,-6"/>
<text text-anchor="middle" x="588" y="-13" font-family="Helvetica,sans-Serif" font-size="10.00">boost/static_assert.hpp</text>
</g>
<!-- Node18&#45;&gt;Node25 -->
<g id="edge30" class="edge"><title>Node18&#45;&gt;Node25</title>
<path fill="none" stroke="midnightblue" d="M481.801,-134.221C486.924,-119.179 498.962,-88.0663 517,-67 529.872,-51.9661 548.134,-39.1079 562.913,-30.1287"/>
<polygon fill="midnightblue" stroke="midnightblue" points="564.722,-33.1253 571.586,-25.0544 561.187,-27.0835 564.722,-33.1253"/>
</g>
<!-- Node27 -->
<g id="node27" class="node"><title>Node27</title>
<g id="a_node27"><a xlink:href="../../db/ddf/ocra__events_8h.html" target="_top" xlink:title="ocra/optim/ocra_events.h">
<polygon fill="white" stroke="black" points="304.5,-73 304.5,-92 431.5,-92 431.5,-73 304.5,-73"/>
<text text-anchor="middle" x="368" y="-80" font-family="Helvetica,sans-Serif" font-size="10.00">ocra/optim/ocra_events.h</text>
</a>
</g>
</g>
<!-- Node18&#45;&gt;Node27 -->
<g id="edge29" class="edge"><title>Node18&#45;&gt;Node27</title>
<path fill="none" stroke="midnightblue" d="M463.096,-134.475C444.715,-124.622 414.244,-108.288 392.755,-96.7697"/>
<polygon fill="midnightblue" stroke="midnightblue" points="394.341,-93.6488 383.874,-92.0091 391.034,-99.8183 394.341,-93.6488"/>
</g>
<!-- Node28 -->
<g id="node28" class="node"><title>Node28</title>
<polygon fill="white" stroke="#bfbfbf" points="526,-67.5 526,-97.5 626,-97.5 626,-67.5 526,-67.5"/>
<text text-anchor="start" x="534" y="-85.5" font-family="Helvetica,sans-Serif" font-size="10.00">boost/type_traits/is</text>
<text text-anchor="middle" x="576" y="-74.5" font-family="Helvetica,sans-Serif" font-size="10.00">_convertible.hpp</text>
</g>
<!-- Node18&#45;&gt;Node28 -->
<g id="edge32" class="edge"><title>Node18&#45;&gt;Node28</title>
<path fill="none" stroke="midnightblue" d="M492.898,-134.475C506.281,-126.266 526.998,-113.558 544.398,-102.885"/>
<polygon fill="midnightblue" stroke="midnightblue" points="546.445,-105.735 553.139,-97.523 542.785,-99.7683 546.445,-105.735"/>
</g>
<!-- Node20 -->
<g id="node20" class="node"><title>Node20</title>
<polygon fill="white" stroke="#bfbfbf" points="236.5,-6 236.5,-25 295.5,-25 295.5,-6 236.5,-6"/>
<text text-anchor="middle" x="266" y="-13" font-family="Helvetica,sans-Serif" font-size="10.00">functional</text>
</g>
<!-- Node19&#45;&gt;Node20 -->
<g id="edge22" class="edge"><title>Node19&#45;&gt;Node20</title>
<path fill="none" stroke="midnightblue" d="M227.632,-67.396C235.197,-57.3614 245.391,-43.8382 253.37,-33.2535"/>
<polygon fill="midnightblue" stroke="midnightblue" points="256.221,-35.2867 259.446,-25.1945 250.631,-31.0729 256.221,-35.2867"/>
</g>
<!-- Node21 -->
<g id="node21" class="node"><title>Node21</title>
<polygon fill="white" stroke="#bfbfbf" points="684,-6 684,-25 740,-25 740,-6 684,-6"/>
<text text-anchor="middle" x="712" y="-13" font-family="Helvetica,sans-Serif" font-size="10.00">algorithm</text>
</g>
<!-- Node19&#45;&gt;Node21 -->
<g id="edge23" class="edge"><title>Node19&#45;&gt;Node21</title>
<path fill="none" stroke="midnightblue" d="M286.273,-68.3086C289.218,-67.847 292.136,-67.4082 295,-67 454.627,-44.2451 497.261,-59.2922 656,-31 661.891,-29.9501 668.072,-28.6036 674.091,-27.1553"/>
<polygon fill="midnightblue" stroke="midnightblue" points="675.147,-30.4986 683.985,-24.6563 673.432,-23.7117 675.147,-30.4986"/>
</g>
<!-- Node22 -->
<g id="node22" class="node"><title>Node22</title>
<polygon fill="white" stroke="#bfbfbf" points="314,-6 314,-25 392,-25 392,-6 314,-6"/>
<text text-anchor="middle" x="353" y="-13" font-family="Helvetica,sans-Serif" font-size="10.00">boost/any.hpp</text>
</g>
<!-- Node19&#45;&gt;Node22 -->
<g id="edge24" class="edge"><title>Node19&#45;&gt;Node22</title>
<path fill="none" stroke="midnightblue" d="M246.51,-67.396C270.162,-56.0919 303.076,-40.3607 326.03,-29.3903"/>
<polygon fill="midnightblue" stroke="midnightblue" points="327.688,-32.4771 335.201,-25.007 324.669,-26.1614 327.688,-32.4771"/>
</g>
<!-- Node19&#45;&gt;Node23 -->
<g id="edge25" class="edge"><title>Node19&#45;&gt;Node23</title>
<path fill="none" stroke="midnightblue" d="M180.763,-67.396C155.816,-57.6858 122.475,-44.7088 95.7039,-34.2889"/>
<polygon fill="midnightblue" stroke="midnightblue" points="96.7543,-30.9421 86.1658,-30.5765 94.2153,-37.4654 96.7543,-30.9421"/>
</g>
<!-- Node19&#45;&gt;Node24 -->
<g id="edge26" class="edge"><title>Node19&#45;&gt;Node24</title>
<path fill="none" stroke="midnightblue" d="M269.428,-67.476C307.758,-57.2233 359.82,-43.2971 399.843,-32.5913"/>
<polygon fill="midnightblue" stroke="midnightblue" points="400.988,-35.9083 409.744,-29.9431 399.179,-29.1461 400.988,-35.9083"/>
</g>
<!-- Node19&#45;&gt;Node25 -->
<g id="edge27" class="edge"><title>Node19&#45;&gt;Node25</title>
<path fill="none" stroke="midnightblue" d="M286.307,-68.5252C289.243,-68.0042 292.15,-67.4938 295,-67 394.353,-49.7843 419.855,-49.3736 519,-31 525.55,-29.7861 532.434,-28.4331 539.213,-27.0548"/>
<polygon fill="midnightblue" stroke="midnightblue" points="539.933,-30.48 549.019,-25.0309 538.518,-23.6245 539.933,-30.48"/>
</g>
<!-- Node26 -->
<g id="node26" class="node"><title>Node26</title>
<polygon fill="white" stroke="#bfbfbf" points="118,-0.5 118,-30.5 218,-30.5 218,-0.5 118,-0.5"/>
<text text-anchor="start" x="126" y="-18.5" font-family="Helvetica,sans-Serif" font-size="10.00">boost/ptr_container</text>
<text text-anchor="middle" x="168" y="-7.5" font-family="Helvetica,sans-Serif" font-size="10.00">/ptr_vector.hpp</text>
</g>
<!-- Node19&#45;&gt;Node26 -->
<g id="edge28" class="edge"><title>Node19&#45;&gt;Node26</title>
<path fill="none" stroke="midnightblue" d="M206.368,-67.396C200.075,-59.0486 191.963,-48.2871 184.819,-38.8113"/>
<polygon fill="midnightblue" stroke="midnightblue" points="187.426,-36.4549 178.612,-30.5765 181.836,-40.6686 187.426,-36.4549"/>
</g>
<!-- Node29&#45;&gt;Node8 -->
<g id="edge35" class="edge"><title>Node29&#45;&gt;Node8</title>
<path fill="none" stroke="midnightblue" d="M868.542,-137.913C991.962,-127.488 1264.61,-104.162 1307,-98 1314.72,-96.8781 1322.86,-95.4644 1330.78,-93.9625"/>
<polygon fill="midnightblue" stroke="midnightblue" points="1331.51,-97.3867 1340.65,-92.0282 1330.16,-90.5175 1331.51,-97.3867"/>
</g>
<!-- Node29&#45;&gt;Node11 -->
<g id="edge41" class="edge"><title>Node29&#45;&gt;Node11</title>
<path fill="none" stroke="midnightblue" d="M868.756,-138.22C927.382,-132.497 1018.16,-120.695 1094,-98 1095.93,-97.423 1097.89,-96.7538 1099.85,-96.0258"/>
<polygon fill="midnightblue" stroke="midnightblue" points="1101.5,-99.1275 1109.39,-92.0498 1098.81,-92.6662 1101.5,-99.1275"/>
</g>
<!-- Node29&#45;&gt;Node12 -->
<g id="edge44" class="edge"><title>Node29&#45;&gt;Node12</title>
<path fill="none" stroke="midnightblue" d="M868.609,-136.868C953.603,-127.98 1103.77,-111.145 1157,-98 1159.99,-97.2618 1163.06,-96.3675 1166.11,-95.3894"/>
<polygon fill="midnightblue" stroke="midnightblue" points="1167.34,-98.668 1175.63,-92.0689 1165.04,-92.0588 1167.34,-98.668"/>
</g>
<!-- Node29&#45;&gt;Node21 -->
<g id="edge42" class="edge"><title>Node29&#45;&gt;Node21</title>
<path fill="none" stroke="midnightblue" d="M792.997,-134.495C779.957,-126.479 761.281,-113.416 749,-98 733.685,-78.7759 723.171,-52.1947 717.371,-34.6866"/>
<polygon fill="midnightblue" stroke="midnightblue" points="720.698,-33.6005 714.368,-25.1047 714.019,-35.6937 720.698,-33.6005"/>
</g>
<!-- Node29&#45;&gt;Node24 -->
<g id="edge38" class="edge"><title>Node29&#45;&gt;Node24</title>
<path fill="none" stroke="midnightblue" d="M771.615,-134.463C743.835,-127.087 705.158,-114.932 674,-98 654.545,-87.4274 654.678,-77.1515 635,-67 624.473,-61.5691 566.314,-45.1946 519.89,-32.5481"/>
<polygon fill="midnightblue" stroke="midnightblue" points="520.751,-29.1552 510.183,-29.9113 518.916,-35.9104 520.751,-29.1552"/>
</g>
<!-- Node29&#45;&gt;Node25 -->
<g id="edge37" class="edge"><title>Node29&#45;&gt;Node25</title>
<path fill="none" stroke="midnightblue" d="M792.625,-134.44C776.49,-125.437 750.406,-110.822 728,-98 686.95,-74.5079 639.417,-46.7097 611.633,-30.4009"/>
<polygon fill="midnightblue" stroke="midnightblue" points="613.068,-27.1844 602.673,-25.1374 609.522,-33.2202 613.068,-27.1844"/>
</g>
<!-- Node29&#45;&gt;Node28 -->
<g id="edge39" class="edge"><title>Node29&#45;&gt;Node28</title>
<path fill="none" stroke="midnightblue" d="M774.76,-134.475C738.65,-125.214 680.215,-110.228 636.03,-98.8955"/>
<polygon fill="midnightblue" stroke="midnightblue" points="636.821,-95.4852 626.265,-96.3911 635.082,-102.266 636.821,-95.4852"/>
</g>
<!-- Node29&#45;&gt;Node30 -->
<g id="edge36" class="edge"><title>Node29&#45;&gt;Node30</title>
<path fill="none" stroke="midnightblue" d="M839.377,-134.475C877.919,-124.004 943.405,-106.212 985.924,-94.6601"/>
<polygon fill="midnightblue" stroke="midnightblue" points="986.948,-98.0086 995.681,-92.0091 985.113,-91.2534 986.948,-98.0086"/>
</g>
<!-- Node31 -->
<g id="node31" class="node"><title>Node31</title>
<polygon fill="white" stroke="#bfbfbf" points="758.5,-67.5 758.5,-97.5 887.5,-97.5 887.5,-67.5 758.5,-67.5"/>
<text text-anchor="start" x="766.5" y="-85.5" font-family="Helvetica,sans-Serif" font-size="10.00">boost/type_traits/has</text>
<text text-anchor="middle" x="823" y="-74.5" font-family="Helvetica,sans-Serif" font-size="10.00">_nothrow_constructor.hpp</text>
</g>
<!-- Node29&#45;&gt;Node31 -->
<g id="edge40" class="edge"><title>Node29&#45;&gt;Node31</title>
<path fill="none" stroke="midnightblue" d="M810.149,-134.475C811.934,-127.396 814.562,-116.97 816.977,-107.39"/>
<polygon fill="midnightblue" stroke="midnightblue" points="820.414,-108.075 819.465,-97.523 813.626,-106.364 820.414,-108.075"/>
</g>
<!-- Node32 -->
<g id="node32" class="node"><title>Node32</title>
<polygon fill="white" stroke="#bfbfbf" points="905.5,-73 905.5,-92 950.5,-92 950.5,-73 905.5,-73"/>
<text text-anchor="middle" x="928" y="-80" font-family="Helvetica,sans-Serif" font-size="10.00">iosfwd</text>
</g>
<!-- Node29&#45;&gt;Node32 -->
<g id="edge43" class="edge"><title>Node29&#45;&gt;Node32</title>
<path fill="none" stroke="midnightblue" d="M825.193,-134.475C845.243,-124.534 878.599,-107.995 901.86,-96.461"/>
<polygon fill="midnightblue" stroke="midnightblue" points="903.434,-99.5871 910.839,-92.0091 900.325,-93.3157 903.434,-99.5871"/>
</g>
<!-- Node34&#45;&gt;Node14 -->
<g id="edge51" class="edge"><title>Node34&#45;&gt;Node14</title>
<path fill="none" stroke="midnightblue" d="M969.193,-195.975C989.243,-186.034 1022.6,-169.495 1045.86,-157.961"/>
<polygon fill="midnightblue" stroke="midnightblue" points="1047.43,-161.087 1054.84,-153.509 1044.32,-154.816 1047.43,-161.087"/>
</g>
<!-- Node36 -->
<g id="node36" class="node"><title>Node36</title>
<polygon fill="white" stroke="#bfbfbf" points="1620,-196 1620,-215 1672,-215 1672,-196 1620,-196"/>
<text text-anchor="middle" x="1646" y="-203" font-family="Helvetica,sans-Serif" font-size="10.00">memory</text>
</g>
<!-- Node35&#45;&gt;Node36 -->
<g id="edge54" class="edge"><title>Node35&#45;&gt;Node36</title>
<path fill="none" stroke="midnightblue" d="M1646,-257.475C1646,-249.08 1646,-235.981 1646,-225.163"/>
<polygon fill="midnightblue" stroke="midnightblue" points="1649.5,-225.009 1646,-215.009 1642.5,-225.009 1649.5,-225.009"/>
</g>
</g>
</svg>
