<?xml version="1.0" encoding="UTF-8" standalone="no"?>
<!DOCTYPE svg PUBLIC "-//W3C//DTD SVG 1.1//EN"
 "http://www.w3.org/Graphics/SVG/1.1/DTD/svg11.dtd">
<!-- Generated by graphviz version 2.38.0 (20140413.2041)
 -->
<!-- Title: ocra::ReducedJointLimitFunction::Pimpl Pages: 1 -->
<svg width="1545pt" height="464pt"
 viewBox="0.00 0.00 1545.00 463.50" xmlns="http://www.w3.org/2000/svg" xmlns:xlink="http://www.w3.org/1999/xlink">
<g id="graph0" class="graph" transform="scale(1 1) rotate(0) translate(4 459.5)">
<title>ocra::ReducedJointLimitFunction::Pimpl</title>
<polygon fill="white" stroke="none" points="-4,4 -4,-459.5 1541,-459.5 1541,4 -4,4"/>
<!-- Node1 -->
<g id="node1" class="node"><title>Node1</title>
<polygon fill="#bfbfbf" stroke="black" points="1377,-49 1377,-79 1537,-79 1537,-49 1377,-49"/>
<text text-anchor="start" x="1385" y="-67" font-family="Helvetica,sans-Serif" font-size="10.00">ocra::ReducedJointLimitFunction</text>
<text text-anchor="middle" x="1457" y="-56" font-family="Helvetica,sans-Serif" font-size="10.00">::Pimpl</text>
</g>
<!-- Node2 -->
<g id="node2" class="node"><title>Node2</title>
<g id="a_node2"><a xlink:href="../../de/ddd/classocra_1_1FullDynamicEquationFunction.html" target="_top" xlink:title="Create a linear function that represents the dynamic equation of motion. ">
<polygon fill="white" stroke="black" points="1123,-49 1123,-79 1257,-79 1257,-49 1123,-49"/>
<text text-anchor="start" x="1131" y="-67" font-family="Helvetica,sans-Serif" font-size="10.00">ocra::FullDynamicEquation</text>
<text text-anchor="middle" x="1190" y="-56" font-family="Helvetica,sans-Serif" font-size="10.00">Function</text>
</a>
</g>
</g>
<!-- Node2&#45;&gt;Node1 -->
<g id="edge1" class="edge"><title>Node2&#45;&gt;Node1</title>
<path fill="none" stroke="#9a32cd" stroke-dasharray="5,2" d="M1267.63,-64C1301.95,-64 1342.39,-64 1376.99,-64"/>
<polygon fill="#9a32cd" stroke="#9a32cd" points="1267.19,-60.5001 1257.19,-64 1267.19,-67.5001 1267.19,-60.5001"/>
<text text-anchor="middle" x="1317" y="-67" font-family="Helvetica,sans-Serif" font-size="10.00"> _dynamicEquation</text>
</g>
<!-- Node3 -->
<g id="node3" class="node"><title>Node3</title>
<g id="a_node3"><a xlink:href="../../de/d3a/classocra_1_1LinearFunction.html" target="_top" xlink:title="LinearFunction class. ">
<polygon fill="white" stroke="black" points="947,-54.5 947,-73.5 1052,-73.5 1052,-54.5 947,-54.5"/>
<text text-anchor="middle" x="999.5" y="-61.5" font-family="Helvetica,sans-Serif" font-size="10.00">ocra::LinearFunction</text>
</a>
</g>
</g>
<!-- Node3&#45;&gt;Node2 -->
<g id="edge2" class="edge"><title>Node3&#45;&gt;Node2</title>
<path fill="none" stroke="midnightblue" d="M1062.22,-64C1081.57,-64 1103.02,-64 1122.67,-64"/>
<polygon fill="midnightblue" stroke="midnightblue" points="1062.01,-60.5001 1052.01,-64 1062.01,-67.5001 1062.01,-60.5001"/>
</g>
<!-- Node4 -->
<g id="node4" class="node"><title>Node4</title>
<g id="a_node4"><a xlink:href="../../d2/d99/classocra_1_1Function.html" target="_top" xlink:title="Function class. ">
<polygon fill="white" stroke="black" points="831,-147.5 831,-166.5 910,-166.5 910,-147.5 831,-147.5"/>
<text text-anchor="middle" x="870.5" y="-154.5" font-family="Helvetica,sans-Serif" font-size="10.00">ocra::Function</text>
</a>
</g>
</g>
<!-- Node4&#45;&gt;Node3 -->
<g id="edge3" class="edge"><title>Node4&#45;&gt;Node3</title>
<path fill="none" stroke="midnightblue" d="M892.823,-141.386C919.207,-122.065 963.323,-89.7594 985.268,-73.6894"/>
<polygon fill="midnightblue" stroke="midnightblue" points="890.613,-138.666 884.613,-147.398 894.749,-144.313 890.613,-138.666"/>
</g>
<!-- Node5 -->
<g id="node5" class="node"><title>Node5</title>
<g id="a_node5"><a xlink:href="../../d3/d16/classocra_1_1ObserverSubject.html" target="_top" xlink:title="ocra::ObserverSubject">
<polygon fill="white" stroke="black" points="388,-285.5 388,-304.5 502,-304.5 502,-285.5 388,-285.5"/>
<text text-anchor="middle" x="445" y="-292.5" font-family="Helvetica,sans-Serif" font-size="10.00">ocra::ObserverSubject</text>
</a>
</g>
</g>
<!-- Node5&#45;&gt;Node4 -->
<g id="edge4" class="edge"><title>Node5&#45;&gt;Node4</title>
<path fill="none" stroke="midnightblue" d="M512.129,-298.493C574.569,-300.018 670.259,-297.743 750,-276 780.299,-267.738 789.648,-264.999 813,-244 838.578,-220.999 857.44,-183.891 865.369,-166.53"/>
<polygon fill="midnightblue" stroke="midnightblue" points="512.114,-294.991 502.019,-298.205 511.915,-301.988 512.114,-294.991"/>
</g>
<!-- Node21 -->
<g id="node21" class="node"><title>Node21</title>
<g id="a_node21"><a xlink:href="../../d2/dac/classocra_1_1Variable.html" target="_top" xlink:title="This class represents a variable in a mathematical sense. ">
<polygon fill="white" stroke="black" points="628,-247.5 628,-266.5 705,-266.5 705,-247.5 628,-247.5"/>
<text text-anchor="middle" x="666.5" y="-254.5" font-family="Helvetica,sans-Serif" font-size="10.00">ocra::Variable</text>
</a>
</g>
</g>
<!-- Node5&#45;&gt;Node21 -->
<g id="edge22" class="edge"><title>Node5&#45;&gt;Node21</title>
<path fill="none" stroke="midnightblue" d="M511.097,-283.73C549.203,-277.133 595.967,-269.038 627.981,-263.495"/>
<polygon fill="midnightblue" stroke="midnightblue" points="510.362,-280.305 501.106,-285.46 511.556,-287.203 510.362,-280.305"/>
</g>
<!-- Node25 -->
<g id="node25" class="node"><title>Node25</title>
<g id="a_node25"><a xlink:href="../../d4/d00/classocra_1_1Model.html" target="_top" xlink:title="Model class. ">
<polygon fill="white" stroke="black" points="836.5,-335.5 836.5,-354.5 904.5,-354.5 904.5,-335.5 836.5,-335.5"/>
<text text-anchor="middle" x="870.5" y="-342.5" font-family="Helvetica,sans-Serif" font-size="10.00">ocra::Model</text>
</a>
</g>
</g>
<!-- Node5&#45;&gt;Node25 -->
<g id="edge27" class="edge"><title>Node5&#45;&gt;Node25</title>
<path fill="none" stroke="midnightblue" d="M472.166,-309.41C499.05,-323.355 542.568,-343.583 583,-352 683.085,-372.835 711.161,-363.943 813,-355 820.641,-354.329 828.797,-353.157 836.467,-351.846"/>
<polygon fill="midnightblue" stroke="midnightblue" points="473.527,-306.17 463.051,-304.589 470.255,-312.358 473.527,-306.17"/>
</g>
<!-- Node6 -->
<g id="node6" class="node"><title>Node6</title>
<g id="a_node6"><a xlink:href="../../d2/d45/classocra_1_1Observer.html" target="_top" xlink:title="ocra::Observer">
<polygon fill="white" stroke="black" points="226,-356.5 226,-375.5 307,-375.5 307,-356.5 226,-356.5"/>
<text text-anchor="middle" x="266.5" y="-363.5" font-family="Helvetica,sans-Serif" font-size="10.00">ocra::Observer</text>
</a>
</g>
</g>
<!-- Node6&#45;&gt;Node5 -->
<g id="edge5" class="edge"><title>Node6&#45;&gt;Node5</title>
<path fill="none" stroke="midnightblue" d="M300.591,-352.689C335.446,-338.668 389.463,-316.938 420.292,-304.537"/>
<polygon fill="midnightblue" stroke="midnightblue" points="299.275,-349.445 291.304,-356.425 301.887,-355.94 299.275,-349.445"/>
</g>
<!-- Node7 -->
<g id="node7" class="node"><title>Node7</title>
<g id="a_node7"><a xlink:href="../../d4/dee/classocra_1_1ObserverBase.html" target="_top" xlink:title="ocra::ObserverBase\l\&lt; EVT_RESIZE \&gt;">
<polygon fill="white" stroke="black" points="42.5,-425 42.5,-455 146.5,-455 146.5,-425 42.5,-425"/>
<text text-anchor="start" x="50.5" y="-443" font-family="Helvetica,sans-Serif" font-size="10.00">ocra::ObserverBase</text>
<text text-anchor="middle" x="94.5" y="-432" font-family="Helvetica,sans-Serif" font-size="10.00">&lt; EVT_RESIZE &gt;</text>
</a>
</g>
</g>
<!-- Node7&#45;&gt;Node6 -->
<g id="edge6" class="edge"><title>Node7&#45;&gt;Node6</title>
<path fill="none" stroke="midnightblue" d="M156.871,-426.502C167.777,-423.288 178.878,-419.466 189,-415 213.243,-404.305 238.613,-386.545 253.19,-375.598"/>
<polygon fill="midnightblue" stroke="midnightblue" points="155.628,-423.216 146.943,-429.285 157.517,-429.956 155.628,-423.216"/>
</g>
<!-- Node8 -->
<g id="node8" class="node"><title>Node8</title>
<g id="a_node8"><a xlink:href="../../d4/dee/classocra_1_1ObserverBase.html" target="_top" xlink:title="ocra::ObserverBase\l\&lt; EVT_CHANGE_DEPENDENCIES \&gt;">
<polygon fill="white" stroke="black" points="0,-376 0,-406 189,-406 189,-376 0,-376"/>
<text text-anchor="start" x="8" y="-394" font-family="Helvetica,sans-Serif" font-size="10.00">ocra::ObserverBase</text>
<text text-anchor="middle" x="94.5" y="-383" font-family="Helvetica,sans-Serif" font-size="10.00">&lt; EVT_CHANGE_DEPENDENCIES &gt;</text>
</a>
</g>
</g>
<!-- Node8&#45;&gt;Node6 -->
<g id="edge7" class="edge"><title>Node8&#45;&gt;Node6</title>
<path fill="none" stroke="midnightblue" d="M199.529,-375.702C208.724,-374.349 217.605,-373.043 225.713,-371.851"/>
<polygon fill="midnightblue" stroke="midnightblue" points="198.834,-372.266 189.45,-377.184 199.853,-379.192 198.834,-372.266"/>
</g>
<!-- Node9 -->
<g id="node9" class="node"><title>Node9</title>
<g id="a_node9"><a xlink:href="../../d4/dee/classocra_1_1ObserverBase.html" target="_top" xlink:title="ocra::ObserverBase\l\&lt; EVT_CHANGE_VALUE \&gt;">
<polygon fill="white" stroke="black" points="24,-327 24,-357 165,-357 165,-327 24,-327"/>
<text text-anchor="start" x="32" y="-345" font-family="Helvetica,sans-Serif" font-size="10.00">ocra::ObserverBase</text>
<text text-anchor="middle" x="94.5" y="-334" font-family="Helvetica,sans-Serif" font-size="10.00">&lt; EVT_CHANGE_VALUE &gt;</text>
</a>
</g>
</g>
<!-- Node9&#45;&gt;Node6 -->
<g id="edge8" class="edge"><title>Node9&#45;&gt;Node6</title>
<path fill="none" stroke="midnightblue" d="M175.415,-353.282C192.968,-355.76 210.811,-358.279 225.936,-360.414"/>
<polygon fill="midnightblue" stroke="midnightblue" points="175.527,-349.763 165.136,-351.831 174.549,-356.695 175.527,-349.763"/>
</g>
<!-- Node10 -->
<g id="node10" class="node"><title>Node10</title>
<g id="a_node10"><a xlink:href="../../dc/d77/classocra_1_1Subject.html" target="_top" xlink:title="ocra::Subject">
<polygon fill="white" stroke="black" points="229.5,-255.5 229.5,-274.5 303.5,-274.5 303.5,-255.5 229.5,-255.5"/>
<text text-anchor="middle" x="266.5" y="-262.5" font-family="Helvetica,sans-Serif" font-size="10.00">ocra::Subject</text>
</a>
</g>
</g>
<!-- Node10&#45;&gt;Node5 -->
<g id="edge9" class="edge"><title>Node10&#45;&gt;Node5</title>
<path fill="none" stroke="midnightblue" d="M313.732,-272.858C336.501,-276.728 364.139,-281.426 388.089,-285.497"/>
<polygon fill="midnightblue" stroke="midnightblue" points="314.088,-269.369 303.643,-271.143 312.915,-276.27 314.088,-269.369"/>
</g>
<!-- Node11 -->
<g id="node11" class="node"><title>Node11</title>
<g id="a_node11"><a xlink:href="../../dc/d29/classocra_1_1SubjectBase.html" target="_top" xlink:title="ocra::SubjectBase\&lt;\l EVT_RESIZE \&gt;">
<polygon fill="white" stroke="black" points="43,-278 43,-308 146,-308 146,-278 43,-278"/>
<text text-anchor="start" x="51" y="-296" font-family="Helvetica,sans-Serif" font-size="10.00">ocra::SubjectBase&lt;</text>
<text text-anchor="middle" x="94.5" y="-285" font-family="Helvetica,sans-Serif" font-size="10.00"> EVT_RESIZE &gt;</text>
</a>
</g>
</g>
<!-- Node11&#45;&gt;Node10 -->
<g id="edge10" class="edge"><title>Node11&#45;&gt;Node10</title>
<path fill="none" stroke="midnightblue" d="M156.006,-283.034C180.573,-278.988 208.125,-274.45 229.446,-270.938"/>
<polygon fill="midnightblue" stroke="midnightblue" points="155.344,-279.596 146.045,-284.675 156.481,-286.503 155.344,-279.596"/>
</g>
<!-- Node12 -->
<g id="node12" class="node"><title>Node12</title>
<g id="a_node12"><a xlink:href="../../dc/d29/classocra_1_1SubjectBase.html" target="_top" xlink:title="ocra::SubjectBase\&lt;\l EVT_CHANGE_DEPENDENCIES \&gt;">
<polygon fill="white" stroke="black" points="3,-229 3,-259 186,-259 186,-229 3,-229"/>
<text text-anchor="start" x="11" y="-247" font-family="Helvetica,sans-Serif" font-size="10.00">ocra::SubjectBase&lt;</text>
<text text-anchor="middle" x="94.5" y="-236" font-family="Helvetica,sans-Serif" font-size="10.00"> EVT_CHANGE_DEPENDENCIES &gt;</text>
</a>
</g>
</g>
<!-- Node12&#45;&gt;Node10 -->
<g id="edge11" class="edge"><title>Node12&#45;&gt;Node10</title>
<path fill="none" stroke="midnightblue" d="M196.712,-256.503C208.269,-257.93 219.411,-259.307 229.239,-260.521"/>
<polygon fill="midnightblue" stroke="midnightblue" points="196.826,-252.99 186.472,-255.238 195.968,-259.937 196.826,-252.99"/>
</g>
<!-- Node13 -->
<g id="node13" class="node"><title>Node13</title>
<g id="a_node13"><a xlink:href="../../dc/d29/classocra_1_1SubjectBase.html" target="_top" xlink:title="ocra::SubjectBase\&lt;\l EVT_CHANGE_VALUE \&gt;">
<polygon fill="white" stroke="black" points="27,-180 27,-210 162,-210 162,-180 27,-180"/>
<text text-anchor="start" x="35" y="-198" font-family="Helvetica,sans-Serif" font-size="10.00">ocra::SubjectBase&lt;</text>
<text text-anchor="middle" x="94.5" y="-187" font-family="Helvetica,sans-Serif" font-size="10.00"> EVT_CHANGE_VALUE &gt;</text>
</a>
</g>
</g>
<!-- Node13&#45;&gt;Node10 -->
<g id="edge12" class="edge"><title>Node13&#45;&gt;Node10</title>
<path fill="none" stroke="midnightblue" d="M172.021,-212.676C177.834,-214.614 183.553,-216.721 189,-219 212.589,-228.871 237.55,-245.127 252.315,-255.437"/>
<polygon fill="midnightblue" stroke="midnightblue" points="172.771,-209.242 162.182,-209.572 170.666,-215.918 172.771,-209.242"/>
</g>
<!-- Node14 -->
<g id="node14" class="node"><title>Node14</title>
<g id="a_node14"><a xlink:href="../../dd/d68/classocra_1_1IFunctionProperties.html" target="_top" xlink:title="ocra::IFunctionProperties">
<polygon fill="white" stroke="black" points="603.5,-209.5 603.5,-228.5 729.5,-228.5 729.5,-209.5 603.5,-209.5"/>
<text text-anchor="middle" x="666.5" y="-216.5" font-family="Helvetica,sans-Serif" font-size="10.00">ocra::IFunctionProperties</text>
</a>
</g>
</g>
<!-- Node14&#45;&gt;Node4 -->
<g id="edge13" class="edge"><title>Node14&#45;&gt;Node4</title>
<path fill="none" stroke="midnightblue" d="M718.924,-207.119C729.249,-204.569 739.997,-201.797 750,-199 778.292,-191.09 785.298,-188.779 813,-179 823.919,-175.146 835.886,-170.542 845.984,-166.544"/>
<polygon fill="midnightblue" stroke="midnightblue" points="718.081,-203.722 709.193,-209.489 719.737,-210.523 718.081,-203.722"/>
</g>
<!-- Node15 -->
<g id="node15" class="node"><title>Node15</title>
<polygon fill="white" stroke="#bfbfbf" points="583,-160 583,-190 750,-190 750,-160 583,-160"/>
<text text-anchor="start" x="591" y="-178" font-family="Helvetica,sans-Serif" font-size="10.00">OCRA_FUNCTION_INTERFACE</text>
<text text-anchor="middle" x="666.5" y="-167" font-family="Helvetica,sans-Serif" font-size="10.00">_INHERITANCEpublic</text>
</g>
<!-- Node15&#45;&gt;Node4 -->
<g id="edge14" class="edge"><title>Node15&#45;&gt;Node4</title>
<path fill="none" stroke="#8b1a1a" d="M760.446,-166.718C785.255,-164.507 810.716,-162.238 830.791,-160.449"/>
<polygon fill="#8b1a1a" stroke="#8b1a1a" points="759.894,-163.253 750.244,-167.627 760.515,-170.225 759.894,-163.253"/>
</g>
<!-- Node16 -->
<g id="node16" class="node"><title>Node16</title>
<g id="a_node16"><a xlink:href="../../db/de3/classocra_1_1NamedInstance.html" target="_top" xlink:title="ocra::NamedInstance">
<polygon fill="white" stroke="black" points="611.5,-323.5 611.5,-342.5 721.5,-342.5 721.5,-323.5 611.5,-323.5"/>
<text text-anchor="middle" x="666.5" y="-330.5" font-family="Helvetica,sans-Serif" font-size="10.00">ocra::NamedInstance</text>
</a>
</g>
</g>
<!-- Node16&#45;&gt;Node4 -->
<g id="edge15" class="edge"><title>Node16&#45;&gt;Node4</title>
<path fill="none" stroke="midnightblue" d="M731.716,-334.597C759.455,-332.126 790.61,-324.703 813,-306 857.163,-269.109 866.86,-193.803 868.944,-166.86"/>
<polygon fill="midnightblue" stroke="midnightblue" points="731.407,-331.109 721.674,-335.294 731.892,-338.093 731.407,-331.109"/>
</g>
<!-- Node16&#45;&gt;Node25 -->
<g id="edge28" class="edge"><title>Node16&#45;&gt;Node25</title>
<path fill="none" stroke="midnightblue" d="M731.727,-336.815C766.548,-338.884 808.122,-341.354 836.428,-343.035"/>
<polygon fill="midnightblue" stroke="midnightblue" points="731.822,-333.315 721.632,-336.216 731.407,-340.303 731.822,-333.315"/>
</g>
<!-- Node17 -->
<g id="node17" class="node"><title>Node17</title>
<g id="a_node17"><a xlink:href="../../d8/d24/classocra_1_1AbilitySet.html" target="_top" xlink:title="ocra::AbilitySet">
<polygon fill="white" stroke="black" points="625,-121.5 625,-140.5 708,-140.5 708,-121.5 625,-121.5"/>
<text text-anchor="middle" x="666.5" y="-128.5" font-family="Helvetica,sans-Serif" font-size="10.00">ocra::AbilitySet</text>
</a>
</g>
</g>
<!-- Node17&#45;&gt;Node4 -->
<g id="edge16" class="edge"><title>Node17&#45;&gt;Node4</title>
<path fill="none" stroke="midnightblue" d="M718.369,-137.548C753.242,-142.036 798.796,-147.9 830.739,-152.011"/>
<polygon fill="midnightblue" stroke="midnightblue" points="718.743,-134.067 708.378,-136.261 717.849,-141.01 718.743,-134.067"/>
</g>
<!-- Node18 -->
<g id="node18" class="node"><title>Node18</title>
<g id="a_node18"><a xlink:href="../../d5/dc0/classocra_1_1CoupledInputOutputSize.html" target="_top" xlink:title="ocra::CoupledInputOutputSize">
<polygon fill="white" stroke="black" points="592.5,-83.5 592.5,-102.5 740.5,-102.5 740.5,-83.5 592.5,-83.5"/>
<text text-anchor="middle" x="666.5" y="-90.5" font-family="Helvetica,sans-Serif" font-size="10.00">ocra::CoupledInputOutputSize</text>
</a>
</g>
</g>
<!-- Node18&#45;&gt;Node4 -->
<g id="edge17" class="edge"><title>Node18&#45;&gt;Node4</title>
<path fill="none" stroke="midnightblue" d="M723.87,-104.921C732.668,-107.087 741.617,-109.469 750,-112 784.38,-122.381 823.102,-137.644 846.903,-147.453"/>
<polygon fill="midnightblue" stroke="midnightblue" points="724.578,-101.492 714.039,-102.572 722.951,-108.3 724.578,-101.492"/>
</g>
<!-- Node19 -->
<g id="node19" class="node"><title>Node19</title>
<polygon fill="white" stroke="#bfbfbf" points="638,-45.5 638,-64.5 695,-64.5 695,-45.5 638,-45.5"/>
<text text-anchor="middle" x="666.5" y="-52.5" font-family="Helvetica,sans-Serif" font-size="10.00">VectorXd</text>
</g>
<!-- Node19&#45;&gt;Node3 -->
<g id="edge25" class="edge"><title>Node19&#45;&gt;Node3</title>
<path fill="none" stroke="#9a32cd" stroke-dasharray="5,2" d="M705.214,-56.0255C764.566,-57.6392 879.889,-60.7749 946.881,-62.5965"/>
<polygon fill="#9a32cd" stroke="#9a32cd" points="705.243,-52.525 695.152,-55.7519 705.053,-59.5225 705.243,-52.525"/>
<text text-anchor="middle" x="870.5" y="-65" font-family="Helvetica,sans-Serif" font-size="10.00"> _b</text>
</g>
<!-- Node19&#45;&gt;Node4 -->
<g id="edge18" class="edge"><title>Node19&#45;&gt;Node4</title>
<path fill="none" stroke="#9a32cd" stroke-dasharray="5,2" d="M705.03,-61.8369C719.305,-64.9052 735.593,-68.9784 750,-74 779.285,-84.2073 787.386,-86.5163 813,-104 831.884,-116.89 850.603,-136.032 861.049,-147.439"/>
<polygon fill="#9a32cd" stroke="#9a32cd" points="705.548,-58.3702 695.048,-59.7812 704.136,-65.2263 705.548,-58.3702"/>
<text text-anchor="middle" x="790.5" y="-107" font-family="Helvetica,sans-Serif" font-size="10.00"> _value</text>
</g>
<!-- Node20 -->
<g id="node20" class="node"><title>Node20</title>
<polygon fill="white" stroke="#bfbfbf" points="638.5,-0.5 638.5,-19.5 694.5,-19.5 694.5,-0.5 638.5,-0.5"/>
<text text-anchor="middle" x="666.5" y="-7.5" font-family="Helvetica,sans-Serif" font-size="10.00">MatrixXd</text>
</g>
<!-- Node20&#45;&gt;Node1 -->
<g id="edge29" class="edge"><title>Node20&#45;&gt;Node1</title>
<path fill="none" stroke="#9a32cd" stroke-dasharray="5,2" d="M704.819,-7.63685C745.345,-5.2775 811.991,-2 869.5,-2 869.5,-2 869.5,-2 1191,-2 1273.21,-2 1366.09,-30.6425 1417.16,-48.9915"/>
<polygon fill="#9a32cd" stroke="#9a32cd" points="704.38,-4.15668 694.605,-8.24437 704.795,-11.1443 704.38,-4.15668"/>
<text text-anchor="middle" x="999.5" y="-5" font-family="Helvetica,sans-Serif" font-size="10.00"> _fullJacobian</text>
</g>
<!-- Node20&#45;&gt;Node4 -->
<g id="edge19" class="edge"><title>Node20&#45;&gt;Node4</title>
<path fill="none" stroke="#9a32cd" stroke-dasharray="5,2" d="M704.535,-16.5648C736.494,-23.8761 782.237,-38.4808 813,-66 839.611,-89.8047 858.087,-129.09 865.661,-147.245"/>
<polygon fill="#9a32cd" stroke="#9a32cd" points="705.192,-13.1262 694.679,-14.4402 703.717,-19.969 705.192,-13.1262"/>
<text text-anchor="middle" x="790.5" y="-69" font-family="Helvetica,sans-Serif" font-size="10.00"> _jacobian</text>
</g>
<!-- Node21&#45;&gt;Node4 -->
<g id="edge20" class="edge"><title>Node21&#45;&gt;Node4</title>
<path fill="none" stroke="#9a32cd" stroke-dasharray="5,2" d="M715.185,-248.616C726.788,-245.871 739.015,-242.371 750,-238 794.479,-220.302 839.108,-183.923 858.903,-166.591"/>
<polygon fill="#9a32cd" stroke="#9a32cd" points="714.197,-245.25 705.195,-250.836 715.716,-252.083 714.197,-245.25"/>
<text text-anchor="middle" x="790.5" y="-232" font-family="Helvetica,sans-Serif" font-size="10.00"> x</text>
</g>
<!-- Node22 -->
<g id="node22" class="node"><title>Node22</title>
<g id="a_node22"><a xlink:href="../../d0/d29/classocra_1_1Component.html" target="_top" xlink:title="ocra::Component\&lt; Variable,\l CompositeVariable, VariableParenthood \&gt;">
<polygon fill="white" stroke="black" points="344,-184 344,-214 546,-214 546,-184 344,-184"/>
<text text-anchor="start" x="352" y="-202" font-family="Helvetica,sans-Serif" font-size="10.00">ocra::Component&lt; Variable,</text>
<text text-anchor="middle" x="445" y="-191" font-family="Helvetica,sans-Serif" font-size="10.00"> CompositeVariable, VariableParenthood &gt;</text>
</a>
</g>
</g>
<!-- Node22&#45;&gt;Node21 -->
<g id="edge21" class="edge"><title>Node22&#45;&gt;Node21</title>
<path fill="none" stroke="midnightblue" d="M524.612,-216.684C531.883,-218.675 539.104,-220.788 546,-223 562.897,-228.419 566.079,-232.659 583,-238 597.437,-242.557 613.611,-246.523 627.789,-249.635"/>
<polygon fill="midnightblue" stroke="midnightblue" points="525.257,-213.234 514.694,-214.048 523.459,-219.999 525.257,-213.234"/>
</g>
<!-- Node23 -->
<g id="node23" class="node"><title>Node23</title>
<polygon fill="white" stroke="#bfbfbf" points="409.5,-145.5 409.5,-164.5 480.5,-164.5 480.5,-145.5 409.5,-145.5"/>
<text text-anchor="middle" x="445" y="-152.5" font-family="Helvetica,sans-Serif" font-size="10.00">noncopyable</text>
</g>
<!-- Node23&#45;&gt;Node21 -->
<g id="edge23" class="edge"><title>Node23&#45;&gt;Node21</title>
<path fill="none" stroke="#8b1a1a" d="M490.742,-155.482C509.255,-157.611 530.071,-162.696 546,-174 572.794,-193.015 556.578,-218.471 583,-238 595.884,-247.522 612.752,-252.38 627.877,-254.82"/>
<polygon fill="#8b1a1a" stroke="#8b1a1a" points="491.012,-151.993 480.739,-154.583 490.386,-158.964 491.012,-151.993"/>
</g>
<!-- Node24 -->
<g id="node24" class="node"><title>Node24</title>
<g id="a_node24"><a xlink:href="../../dc/d20/classocra_1_1VariableHasRestrictedClassDerivation.html" target="_top" xlink:title="ocra::VariableHasRestricted\lClassDerivation">
<polygon fill="white" stroke="black" points="375,-233 375,-263 515,-263 515,-233 375,-233"/>
<text text-anchor="start" x="383" y="-251" font-family="Helvetica,sans-Serif" font-size="10.00">ocra::VariableHasRestricted</text>
<text text-anchor="middle" x="445" y="-240" font-family="Helvetica,sans-Serif" font-size="10.00">ClassDerivation</text>
</a>
</g>
</g>
<!-- Node24&#45;&gt;Node21 -->
<g id="edge24" class="edge"><title>Node24&#45;&gt;Node21</title>
<path fill="none" stroke="#8b1a1a" d="M525.371,-251.254C560.378,-252.69 599.861,-254.309 627.974,-255.461"/>
<polygon fill="#8b1a1a" stroke="#8b1a1a" points="525.285,-247.748 515.15,-250.835 524.998,-254.742 525.285,-247.748"/>
</g>
<!-- Node25&#45;&gt;Node1 -->
<g id="edge26" class="edge"><title>Node25&#45;&gt;Node1</title>
<path fill="none" stroke="#9a32cd" stroke-dasharray="5,2" d="M900.371,-331.12C998.991,-283.708 1322.06,-128.392 1424.52,-79.1323"/>
<polygon fill="#9a32cd" stroke="#9a32cd" points="898.778,-328.002 891.282,-335.49 901.811,-334.311 898.778,-328.002"/>
<text text-anchor="middle" x="1087.5" y="-253" font-family="Helvetica,sans-Serif" font-size="10.00"> _model</text>
</g>
</g>
</svg>
